<svg id="Layer_1" data-name="Layer 1" xmlns="http://www.w3.org/2000/svg" viewBox="0 0 500 500"><defs><style>.cls-1{fill:#434243;}.cls-2{fill:#fff;}</style></defs><title>Icons</title><path class="cls-1" d="M89.81,479c-9.81,0-16.41-4.27-20.17-13A246.7,246.7,0,0,1,61,441.52c-3.57-11.53-7-23.12-10.4-34.7L47,394.61c-1.33-4.5-2.76-9-4.19-13.45-3.41-10.68-6.92-21.72-9.12-33-1.57-8-1.13-21.43-.75-33.26.14-4.34.27-8.33.27-11.47v-4.86H467.39l.09,5.64c.28,15.87.75,42.44-4.41,58.27-6.64,20.43-13,41.39-19.09,61.64-3.29,10.9-6.58,21.81-9.94,32.68a123.53,123.53,0,0,1-5,12.82l-.4.94c-2.64,6.09-7.73,9.05-14,8.15a5.58,5.58,0,0,0-1.26,0l-1.16,0H346.46c-84.09,0-171,0-256.55.27ZM42.91,308.32c-.05,2.15-.13,4.49-.21,6.94-.35,10.75-.78,24.14.58,31.09,2.08,10.7,5.51,21.46,8.83,31.88,1.45,4.54,2.9,9.08,4.24,13.64L60,404.06c3.4,11.54,6.8,23.09,10.36,34.59a235.25,235.25,0,0,0,8.24,23.52c2.23,5.2,5.29,7.15,11.23,7.15h.08c85.53-.3,172.5-.29,256.58-.27h65.71l.8,0a16.21,16.21,0,0,1,3,.09c1.44.2,2.6.16,3.71-2.4l.41-.95A114.49,114.49,0,0,0,424.76,454q5-16.29,9.93-32.63c6.13-20.31,12.47-41.31,19.16-61.84,4.27-13.13,4.24-35.77,4-51.19Z"/><path class="cls-1" d="M89.33,238.71H59l.46-5.28c3.05-34.84,17.5-60.57,42.93-76.46,34.6-21.62,70.54-19.82,106.83,5.34l5,3.44-17.84,16.58c-10.45,9.71-20.73,19.26-31,28.84-1.77,1.66-3.47,3.39-5.17,5.12s-3.15,3.2-4.77,4.75c-5.27,5-10.58,10-16,14.9a10.78,10.78,0,0,1-6.84,2.71C118.19,238.69,103.84,238.71,89.33,238.71ZM69.68,229H76.9c18.78,0,37.19,0,55.61-.06,5.72-5,11-10,16.17-14.92,1.56-1.49,3.06-3,4.56-4.53,1.8-1.83,3.6-3.65,5.46-5.41,10.26-9.58,20.55-19.14,31-28.85l8.91-8.28c-31.41-19.81-61.26-20.38-91.1-1.74C85.77,178.78,73.36,199.68,69.68,229Z"/><path class="cls-1" d="M359.63,238.36H143.43l89.5-84.56,3.12,1.77c21.75,12.33,38.08,24.83,53.87,36.91s32,24.48,53.71,36.8Zm-191.79-9.71H323.75C308.66,219,296.18,209.5,284,200.19c-15.44-11.81-30.06-23-49.66-34.39Z"/><path class="cls-2" d="M150.52,429.15h-25.3V301.81h25.3Z"/><path class="cls-1" d="M155.38,434h-35V297h35Zm-25.31-9.71h15.6V306.67h-15.6Z"/><path class="cls-2" d="M225.63,429.11h-25.3V301.77h25.3Z"/><path class="cls-1" d="M230.48,434h-35v-137h35Zm-25.31-9.71h15.6V306.63h-15.6Z"/><path class="cls-2" d="M299.68,429.11h-25.3V301.77h25.3Z"/><path class="cls-1" d="M304.54,434h-35v-137h35Zm-25.3-9.71h15.59V306.63H279.23Z"/><path class="cls-2" d="M374.78,429.1h-25.3V302h25.3Z"/><path class="cls-1" d="M379.64,434h-35V297.1h35Zm-25.31-9.71h15.6V306.81h-15.6Z"/><path class="cls-1" d="M294.26,304.45H16.64C5.45,304.45,0,299,0,287.72v-9.26c0-10.59,0-24.42,0-31.7,0-11.33,4.61-15.94,15.82-15.94h468.3c11.23,0,15.83,4.61,15.86,15.91,0,7.28,0,21.12,0,31.71v9.25c0,11.29-5.44,16.77-16.61,16.77Zm-94.56-9.71H483.38c5.8,0,6.9-1.13,6.9-7.07v-9.24c0-10.59,0-24.41,0-31.69,0-5.92-.3-6.21-6.15-6.21H15.84c-5.67,0-6.1.15-6.11,6.25,0,7.27,0,21.09,0,31.68v9.25c0,5.91,1.11,7,6.93,7Z"/><path class="cls-1" d="M462.79,232.31v-59.1a70.49,70.49,0,0,0-26.41-55.29V91.66a5.07,5.07,0,0,0-5.07-5.07H412.72V71.36a5.07,5.07,0,0,0,4-5V26A5.07,5.07,0,0,0,411.67,21H312.47a5.07,5.07,0,0,0-4.55,7.3l9.9,20.18a5.07,5.07,0,0,0,4.55,2.84h44.28V66.4a5.07,5.07,0,0,0,4,5V86.59H352.08A5.07,5.07,0,0,0,347,91.66v26.25a70.5,70.5,0,0,0-26.41,55.29v58l10.14-1.07V173.21a60.49,60.49,0,0,1,24.39-48.77l.09-.08.19-.15.2-.19.14-.14.21-.23.1-.13.2-.26.09-.13.17-.28.08-.16.13-.27.08-.19c0-.09.07-.17.1-.26l.06-.21c0-.09,0-.18.07-.27s0-.14,0-.21,0-.2,0-.29,0-.12,0-.19,0-.22,0-.33,0-.05,0-.08V96.74h69.09v18.58H372.36a5.07,5.07,0,0,0,0,10.14h57.22a60.46,60.46,0,0,1,23.07,47.75v59.64ZM366.65,41.15H325.53l-4.93-10h46Zm10.14,5.07V31.11H406.6V61.33H376.79V46.22Zm25.8,25.25V86.59H380.81V71.47Z"/></svg>