<svg id="Layer_1" data-name="Layer 1" xmlns="http://www.w3.org/2000/svg" viewBox="0 0 500 500"><defs><style>.cls-1{fill:#444243;}.cls-2{fill:none;}.cls-3{fill:#434243;}.cls-4{fill:#fff;}</style></defs><title>Icons</title><path class="cls-1" d="M289.65,159.42h-.29l-12.79-.8c-21.5-4.56-27.72-22.2-28-30.89l-.17-5.07h5.07c6.1,0,12.79,3.06,17.61,5.84,4-16.17,15.23-19.68,15.78-19.84l3.5-1,2,3.06a48.68,48.68,0,0,1,7.7,19.54c12.44-5.23,20-1.85,20.9-1.38l4.39,2.19-2.2,4.39C311.26,159.15,290.52,159.42,289.65,159.42Zm-11.4-10.48,11.48.67c1.37-.05,12.22-.84,20.78-12.29a33.45,33.45,0,0,0-12.61,5l-9.61,5.95,2.22-11.08c0-.27,1.17-7.18-4-17.15-2.66,2.37-6.15,7.3-6.85,17l-.64,9-7.22-5.5a55.41,55.41,0,0,0-11.89-6.76C261.95,139.29,266.82,146.39,278.25,148.94Z"/><path class="cls-1" d="M346.59,186.58c-12.88,0-20.7-6.48-21.16-6.86l-.09-.08-8.52-7.8c-16.66-21.34-2.64-39.73-2.5-39.91l2-2.6,2.58,2.06c5,4,8.33,11.63,10.14,16.87,12.64-11.39,24-6.91,24.55-6.69l2.21.91-.2,2.38c-.86,10.4-4.25,17.43-7,21.59,14.25,3.24,17.77,10.72,18.17,11.65L368,181l-2.89,1.31A44.68,44.68,0,0,1,346.59,186.58Zm-16.91-11.82c.86.69,11.61,9.06,28.72,3.21-2.5-2.13-7.37-4.93-16.34-6l-7.53-.9,5.82-4.86c.27-.23,6.61-5.83,8.46-19.08-3.56-.39-10.9.33-18.78,9.53l-4.17,4.87-1.49-6.23c-.75-3.14-3.22-11-6.88-15.94-2.48,5.23-5.33,15.94,4.12,28.08Z"/><path class="cls-1" d="M366.65,224.52a29.1,29.1,0,0,1-9.94-1.67l2.41-6.08-1.21,3,1.19-3a22.8,22.8,0,0,0,20.78-3.17c-2.48-2.68-8.39-7-20.16-6.14l-6.16.46,3.09-5.35c1.63-2.83,5.18-10.24,5.57-16.07-5.31,2.12-14.89,8.07-15.81,23.58l.71,11-6.52.41-.71-11.35c1.55-26.81,24.48-31.06,24.71-31.1l3-.51.74,2.94c1.58,6.31-1.19,14.32-3.5,19.45,16.71.82,22.16,11.33,22.41,11.82l1.09,2.17-1.77,1.67A28.4,28.4,0,0,1,366.65,224.52Z"/><path class="cls-1" d="M221.45,183.82a32.09,32.09,0,0,1-18.76-6.2l-2.48-2,2-2.52c4.05-5.07,11.83-8.14,17.1-9.73-10.93-13.69-6.4-24.53-6.19-25l1-2.24,2.43.3c10.25,1.28,17,4.78,21,7.66,3.76-14.19,11.19-17.69,12.12-18.08l3-1.25,1.26,3c9.9,23.58-2.81,38.93-3.36,39.57l-.08.09-7.81,8.52C235,181.9,227.66,183.82,221.45,183.82Zm-11.36-9.21c5.16,2.68,15.94,6,28.16-3.51l7.34-8.08c.7-.85,9.07-11.62,3.8-28.65-2.22,2.52-5.18,7.42-6.61,16.41l-1.22,7.61-4.63-6.17c-.2-.26-5.23-6.54-18.32-8.92-.38,3.57.31,10.81,9.05,19.56l4.36,4.36L226,168.38C222.84,169,215,171.1,210.09,174.62Z"/><path class="cls-1" d="M190.42,240.44l-.26-3.35c-.51-6.57,2.92-14.39,5.54-19.3-17.28-2-21.5-13.4-21.69-13.93l-.8-2.28,1.95-1.44c8.07-5.95,15.28-8.11,20.13-8.86-7.36-12.37-4.56-20.06-4.18-21l1.25-3,3,1.22c24,9.76,25.38,29.14,25.45,30.53l.73,11.72-.07.38c-4.63,26.26-27.48,28.92-27.71,28.94Zm-9-36.67c2.15,2.9,7.58,7.8,19.83,7.8h6.1l-3.38,5.08c-1.79,2.69-5.84,9.86-7,16,5.51-1.86,15.21-7.22,18-22.26l-.69-11c0-.71-1-14.42-17.4-23,.22,3.29,1.6,8.74,7,15.89l4.67,6.23-7.72-1C200.72,197.51,192.34,196.63,181.39,203.77Z"/><path class="cls-2" d="M353.8,241.1A15.16,15.16,0,0,0,348.12,229c9.23,0,15.61-6.39,15.61-14.19a14.55,14.55,0,0,0-14.9-14.9c5-2.13,8.52-7.81,8.52-13.48a14.55,14.55,0,0,0-14.9-14.9,20.72,20.72,0,0,0-6.39,1.42,20.72,20.72,0,0,0,1.42-6.39,14.55,14.55,0,0,0-14.9-14.9,16.75,16.75,0,0,0-11.35,5c-.71,0-.71-.71-1.42-.71,0-7.81-7.1-14.9-14.9-14.9-6.39,0-11.35,3.55-14.19,9.23h-1.42c-1.42-7.81-8.52-13.48-17-13.48-9.23,0-17,7.81-17,17.74v3.55c-2.84-2.13-5.68-3.55-9.23-3.55a14.55,14.55,0,0,0-14.9,14.9,17,17,0,0,0,1.42,6.39c-.71,0-2.13-.71-3.55-.71a14.55,14.55,0,0,0-14.9,14.9,14.29,14.29,0,0,0,8.52,13.48,15.13,15.13,0,0,0-11.35,14.19,14.55,14.55,0,0,0,14.9,14.9"/><rect class="cls-1" x="419.09" y="47.53" width="9.94" height="78.06" transform="matrix(0.99, -0.16, 0.16, 0.99, -8.47, 71.16)"/><rect class="cls-1" x="424.71" y="101.64" width="78.06" height="9.94" transform="translate(9.12 247.1) rotate(-30.12)"/><rect class="cls-1" x="409.03" y="85.06" width="72.39" height="9.94" transform="translate(216.09 482.23) rotate(-71.14)"/><path class="cls-3" d="M425.12,225.33,418,218.54c20.49-21.33,32.57-37.52,39.14-52.5a2.82,2.82,0,0,0,.29-1l.25-1.44c.19-.65,4.88-17.7-25.93-33.1L429.11,129c-8.24-4.7-20.67-11.8-31.26-8.19-6.49,2.22-11.91,8.46-16.09,18.56-6.11,14.26-17.68,46.55-28,80.79l-9.38-2.83c10.91-36.2,22.35-67.76,28.35-81.78,5.29-12.75,12.69-20.85,22-24,14.74-5,30.12,3.71,39.3,8.95l2.41,1.36c35.41,17.7,32,39.76,30.87,44.13a12,12,0,0,1-1.18,4.22C459.1,186.06,446.45,203.13,425.12,225.33Z"/><path class="cls-3" d="M261.48,219.81h-9.81c0-40.34-42.37-73.16-94.45-73.16s-94.46,32.82-94.46,73.16H53c0-45.75,46.77-83,104.26-83S261.48,174.06,261.48,219.81Z"/><path class="cls-3" d="M86.25,191.42A4.64,4.64,0,0,1,91.93,190c2.13,1.42,2.84,3.55,1.42,5.68,0,0-10.84,11.34-11,25.68H77.45S76.42,209.76,86.25,191.42Z"/><ellipse class="cls-3" cx="98.32" cy="180.78" rx="7.81" ry="7.1"/><path class="cls-3" d="M85.57,452.75c-9.44,0-15.79-4.11-19.41-12.56A234.88,234.88,0,0,1,58,416.93C54.6,406,51.36,395,48.12,384l-3.43-11.61c-1.26-4.25-2.61-8.48-4-12.72-3.24-10.16-6.59-20.67-8.68-31.39-1.49-7.66-1.08-20.41-.72-31.67.13-4.11.26-7.89.26-10.87v-4.9H444.43l.1,5.65c.26,15.09.7,40.34-4.21,55.42C434,361.38,428,381.34,422.13,400.64c-3.11,10.29-6.21,20.58-9.38,30.84A118.64,118.64,0,0,1,408,443.73l-.37.86c-2.56,5.91-7.55,8.82-13.64,7.9a6.08,6.08,0,0,0-1.13,0l-1.13,0h-63.1c-79.58,0-161.94,0-242.92.25ZM41.33,290.64c-.05,2-.12,4.08-.19,6.29-.33,10.2-.74,22.89.54,29.47,2,10.16,5.24,20.39,8.4,30.28,1.37,4.3,2.74,8.6,4,12.92l3.43,11.63c3.23,10.95,6.45,21.9,9.83,32.81a226.59,226.59,0,0,0,7.82,22.29c2.09,4.88,4.81,6.62,10.38,6.62h.09c81-.29,163.34-.27,242.95-.25h63.1l.75,0a15.82,15.82,0,0,1,2.92.09c1.33.19,2.25.15,3.23-2.11l.38-.86a109.84,109.84,0,0,0,4.41-11.23q4.74-15.37,9.37-30.79c5.84-19.35,11.88-39.37,18.25-58.93,4-12.34,4-33.61,3.79-48.23Z"/><path class="cls-4" d="M143.37,404.58h-24V283.66h24Z"/><path class="cls-3" d="M148.27,409.49H114.44V278.76h33.83Zm-24-9.81h14.22V288.56H124.24Z"/><path class="cls-4" d="M214.69,404.54h-24V283.61h24Z"/><path class="cls-3" d="M219.59,409.44H185.76V278.71h33.83Zm-24-9.81h14.22V288.52H195.56Z"/><path class="cls-4" d="M285,404.54H261V283.62h24Z"/><path class="cls-3" d="M289.91,409.44H256.08V278.71h33.84Zm-24-9.81h14.22V288.52H265.88Z"/><path class="cls-4" d="M356.33,404.53h-24V283.79h24Z"/><path class="cls-3" d="M361.23,409.43H327.4V278.89h33.83Zm-24-9.81h14.22V288.69H337.2Z"/><path class="cls-3" d="M132,287H16.1C5.28,287,0,281.67,0,270.78V262c0-10.06,0-23.2,0-30.11,0-10.81,4.61-15.43,15.32-15.43H460c10.73,0,15.32,4.61,15.35,15.4,0,6.91,0,20.05,0,30.11v8.78c0,10.92-5.27,16.22-16.07,16.22ZM15.33,226.26c-5.35,0-5.5.16-5.52,5.65,0,6.9,0,20,0,30.08v8.78c0,5.49.89,6.39,6.29,6.39H459.32c5.38,0,6.26-.9,6.26-6.42V262c0-10.05,0-23.18,0-30.09,0-5.46-.17-5.61-5.54-5.61Z"/></svg>