<svg id="Layer_1" data-name="Layer 1" xmlns="http://www.w3.org/2000/svg" viewBox="0 0 500 500"><defs><style>.cls-1{fill:#414141;}</style></defs><title>Icons</title><path class="cls-1" d="M495.38,211.87h-14L474,181.47a3,3,0,0,0-3,0H342.38a3,3,0,0,0-3,0l-7.48,30.4H318a3,3,0,0,0-3,3V235.3a3,3,0,0,0,3,3h5.48l7.48,86.22a3,3,0,0,0,3,2.49h0a3,3,0,0,0,2.49-3l-4.49-49.84H481.43l-10,117.12H342.38l-4.49-49.84a3,3,0,0,0-3-2.49h0a3,3,0,0,0-2.49,3l7.48,88.71a3,3,0,0,0,2.49,4H471a3,3,0,0,0,3-2.49L489.9,240.78h5.48a3.12,3.12,0,0,0,3-5.48h0V214.86a3,3,0,0,0-3-3Zm-26.91,215.8H345.37l-2.49-29.9H471Zm13.46-158.48H332.41l-2.49-29.9h154.5Zm11-33.89H321V217.86H462.49a3,3,0,0,0,0-5.48H337.9l7-26.91h123.6l7.48,30.4a3,3,0,0,0,3,0h13.46Z"/><path class="cls-1" d="M314.47,411.22h0L96.68,461.06h0A1409.9,1409.9,0,0,0,71.77,130.14v-3.49h72.76a420.63,420.63,0,0,1,26.41,132.57h3.49l114.63-9a3.49,3.49,0,0,0,3.49-3.49h0a389.23,389.23,0,0,0-21.93-120.11v-3h70.27c0,3,5,24.42,6.48,30.9h7.48l-6-26.91h0a25.42,25.42,0,0,0,10-22.43V59.87A23.92,23.92,0,0,0,335.9,35.95H49.84A23.92,23.92,0,0,0,27.91,59.87v62.79A2908.5,2908.5,0,0,0,0,454.58H51.33l41.86,9.47L319,414.21h0A26.41,26.41,0,0,1,314.47,411.22Zm-28.91-166h0l-107.15,9h0A432.59,432.59,0,0,0,153.5,129.64v-3H263.14A367.8,367.8,0,0,1,285.57,245.27ZM335.4,43.42a16.94,16.94,0,0,1,16.94,16.94h0v42.86c0,8.47-3.49,16.45-8,16.94H78.74v-3a33.89,33.89,0,0,0,2.49-13.46V59.87a23.92,23.92,0,0,0-2-13V43.42ZM89.21,460.56h0l-39.37-9.47V225.83a3.74,3.74,0,1,0-7.48,0h0V450.59H7.48A2953.84,2953.84,0,0,1,35.38,123.66h0V59.87A16.94,16.94,0,0,1,49.84,43.42h7A16.94,16.94,0,0,1,73.76,60.37h0v42.86c0,8.47-4,16.45-8,16.94h0c-4.49,0-8-6-8-12.46V90.27a3.74,3.74,0,0,0-7.48,0v16.45A20.43,20.43,0,0,0,60.8,125.16h0A1370.52,1370.52,0,0,1,89.21,460.56Z"/></svg>