<svg id="Layer_1" data-name="Layer 1" xmlns="http://www.w3.org/2000/svg" viewBox="0 0 500 500"><defs><style>.cls-1{fill:#414042;}</style></defs><title>Icons</title><path class="cls-1" d="M439.81,239.18,420.53,129.82a590.08,590.08,0,0,1-8.65-101.49V0H86.54V29.11A590.09,590.09,0,0,1,77.1,134.93L61.37,220.3A508.65,508.65,0,0,0,53.1,312v148.7A39.34,39.34,0,0,0,92.44,500H350.9A69.24,69.24,0,0,0,393,485.84l35-26.75a49.17,49.17,0,0,0,18.88-39.34V326.51A508.26,508.26,0,0,0,439.81,239.18ZM382.37,29.5V66.88H114.47V29.5ZM92.44,472.07A11.41,11.41,0,0,1,81,460.66V312a478.36,478.36,0,0,1,7.87-86.15L104.64,140c2.75-14.56,4.33-29.11,5.9-44.06H382.77l-24,165.22a371,371,0,0,0-3.93,53.5V472.07H92.44ZM416.2,421.72a19.28,19.28,0,0,1-7.47,15.34l-26,20.06V314.71a345,345,0,0,1,3.54-49.57l12.2-83,10.62,61.76a480.33,480.33,0,0,1,8.65,82.61Z"/></svg>