<svg id="Layer_1" data-name="Layer 1" xmlns="http://www.w3.org/2000/svg" xmlns:xlink="http://www.w3.org/1999/xlink" viewBox="0 0 27 32"><defs><style>.cls-1{fill:none;}.cls-2{fill:#fff;}.cls-3{clip-path:url(#clip-path);}.cls-4{fill:#a7a9ac;}.cls-5{fill:#414042;}</style><clipPath id="clip-path"><path class="cls-1" d="M27,32H0V0H27V32Zm-13.07-.25c.47-.5,11.44-12.22,11.44-19.76A11.87,11.87,0,1,0,1.63,12c0,7.53,11,19.26,11.45,19.76a.58.58,0,0,0,.85,0Z"/></clipPath></defs><title>iSHOP Dashboard_Elements</title><path class="cls-2" d="M0,15.75C0,7.09,6,.07,13.5.07S27,7.09,27,15.75,21,31.43,13.5,31.43,0,24.41,0,15.75Zm13.92,16c.47-.5,11.4-12.22,11.4-19.76A11.82,11.82,0,1,0,1.68,12c0,7.53,10.94,19.26,11.4,19.76a.58.58,0,0,0,.84,0Z"/><g class="cls-3"><rect class="cls-4" x="-0.39" y="17.65" width="28.21" height="22.19"/><path class="cls-5" d="M27.75,17.77H-.43a3.06,3.06,0,0,1-.07-.89A3.06,3.06,0,0,1-.43,16H27.75a3.06,3.06,0,0,1,.07.89A3.06,3.06,0,0,1,27.75,17.77Z"/></g><path class="cls-5" d="M13.5,31.93a.58.58,0,0,1-.42-.18c-.47-.5-11.4-12.22-11.4-19.76a11.82,11.82,0,1,1,23.65,0c0,7.53-10.93,19.26-11.4,19.76A.58.58,0,0,1,13.5,31.93Zm0-30.69A10.72,10.72,0,0,0,2.84,12c0,6.27,8.63,16.23,10.66,18.49,2-2.25,10.66-12.22,10.66-18.49A10.72,10.72,0,0,0,13.5,1.24Z"/></svg>