<svg id="Layer_1" data-name="Layer 1" xmlns="http://www.w3.org/2000/svg" viewBox="0 0 500 500"><defs><style>.cls-1{fill:#414042;}</style></defs><title>Icons</title><path class="cls-1" d="M427.49,402h13.19L496.25,187.5H462.64l23-45.48-98-54.55-29.8,46.26V91.93a45.45,45.45,0,0,0-4.48-19.7L338.14,40.34A11.8,11.8,0,0,1,337,35.29v-5.1a9.69,9.69,0,0,0,9.66-9.68V9.73A9.73,9.73,0,0,0,337,0h-52.3A9.73,9.73,0,0,0,275,9.73V20.51a9.7,9.7,0,0,0,9.7,9.7h1.08v5.08a12.06,12.06,0,0,1-1.14,5.08L269.35,72.27a45.83,45.83,0,0,0-4.41,19.67v23.49L254.6,124V83.7c3.67-.75,6.63-3.57,6.63-7.46V68.83a8,8,0,0,0-8-8H181.93a8,8,0,0,0-8,8v7.41c0,3.9,3,6.74,6.63,7.47v77.73l-9.71,25.94H144.62l-23.54-92H3.75v25.86H101l69.67,272.34-.07,0,3.54,14.58a49.31,49.31,0,1,0,72.55,55.33H371.29A49.36,49.36,0,1,0,427.49,402ZM393.37,110.35,462.81,149l-19.44,38.47-94.8,0,27.66-21.33-10.42-12.94Zm-41.59,52.87-31.44,24.21H288.93l14.39-37.84L267.06,136.1l37.61-31.34ZM283.59,20.51V9.73a1.07,1.07,0,0,1,1.08-1.11H337A1.07,1.07,0,0,1,338,9.73V20.51A1.06,1.06,0,0,1,337,21.59h-52.3A1.06,1.06,0,0,1,283.59,20.51Zm-10,71.42a37.59,37.59,0,0,1,3.57-16l15.22-31.82a20.4,20.4,0,0,0,2-8.82V30.21h34v5.08a20.26,20.26,0,0,0,2,8.79l15.19,31.86a36.69,36.69,0,0,1,3.64,16V132.6L307.1,80.31l-33.54,27.92Zm-20.95-23.1v6.84l-70.08.57-.61-6.8ZM189.17,84.29H246v4.17A8.15,8.15,0,0,0,240.18,86c-3.1,0-5.3,2-6.68,4.57-1.39-2.55-3.58-4.57-6.68-4.57-3.49,0-5.91,2.45-7.11,5.51-1.19-3.05-3.6-5.51-7.07-5.51s-5.88,2.45-7.07,5.51C204.38,88.49,202,86,198.46,86a8.18,8.18,0,1,0,0,16.37c3.49,0,5.91-2.45,7.11-5.51,1.19,3.05,3.6,5.51,7.07,5.51s5.88-2.45,7.07-5.51c1.19,3.05,3.61,5.51,7.11,5.51,3.1,0,5.3-2,6.68-4.57,1.39,2.55,3.58,4.57,6.68,4.57A8.15,8.15,0,0,0,246,100v28.28l-10.24-3.81v-3.13h-8.41l-8.88-3.3h7.85v-8.62h-13.5v6.52l-13.37-5L189.17,138.4Zm20.37,48.83L281,159.68,270.5,187.41l-81.24,0Zm253.3,80.25L420.68,376.11H192.9L151.25,213.23ZM199.17,474.14a23.59,23.59,0,1,1,23.61-23.61A23.61,23.61,0,0,1,199.17,474.14ZM371.3,437.6H246.7A49.39,49.39,0,0,0,207.83,402H410.16A49.39,49.39,0,0,0,371.3,437.6Zm47.53,36.54a23.59,23.59,0,1,1,23.61-23.61A23.61,23.61,0,0,1,418.83,474.14Z"/></svg>