<svg id="Layer_1" data-name="Layer 1" xmlns="http://www.w3.org/2000/svg" viewBox="0 0 500 500"><defs><style>.cls-1{fill:#434243;}</style></defs><title>Icons</title><path class="cls-1" d="M250,0C112.15,0,0,112.15,0,250S112.15,500,250,500,500,387.85,500,250,387.85,0,250,0Zm0,483.33C121.34,483.33,16.67,378.66,16.67,250S121.34,16.67,250,16.67,483.33,121.34,483.33,250,378.66,483.33,250,483.33Z"/><path class="cls-1" d="M258.33,216.84V132.32a8.33,8.33,0,1,0-16.67,0v84.52a33.29,33.29,0,0,0-23.82,23.82H158.33a8.33,8.33,0,0,0,0,16.67h59.52a33.26,33.26,0,1,0,40.48-40.48ZM250,265.66A16.67,16.67,0,1,1,266.67,249,16.68,16.68,0,0,1,250,265.66Z"/><path class="cls-1" d="M250,82.32A8.33,8.33,0,0,0,258.33,74V65.66a8.33,8.33,0,1,0-16.67,0V74A8.33,8.33,0,0,0,250,82.32Z"/><path class="cls-1" d="M250,415.66a8.33,8.33,0,0,0-8.33,8.33v8.33a8.33,8.33,0,0,0,16.67,0V424A8.33,8.33,0,0,0,250,415.66Z"/><path class="cls-1" d="M433.33,240.66H425a8.33,8.33,0,0,0,0,16.67h8.33a8.33,8.33,0,1,0,0-16.67Z"/><path class="cls-1" d="M75,240.66H66.67a8.33,8.33,0,0,0,0,16.67H75a8.33,8.33,0,0,0,0-16.67Z"/><path class="cls-1" d="M373.74,113.46l-5.89,5.89a8.33,8.33,0,1,0,11.78,11.78l5.89-5.89a8.33,8.33,0,0,0-11.78-11.78Z"/><path class="cls-1" d="M120.37,366.84l-5.89,5.89a8.33,8.33,0,1,0,11.78,11.78l5.89-5.89a8.33,8.33,0,0,0-11.78-11.78Z"/><path class="cls-1" d="M379.63,366.84a8.33,8.33,0,0,0-11.78,11.78l5.89,5.89a8.33,8.33,0,0,0,11.78-11.78Z"/><path class="cls-1" d="M126.26,113.46a8.33,8.33,0,0,0-11.78,11.78l5.89,5.89a8.33,8.33,0,0,0,11.78-11.78Z"/></svg>