<svg id="Layer_1" data-name="Layer 1" xmlns="http://www.w3.org/2000/svg" viewBox="0 0 19.18 26.85"><defs><style>.cls-1{fill:#414042;}</style></defs><title>iSHOP Dashboard_Elements</title><path class="cls-1" d="M11.38,5.57V2.82l4.52-2L15.56,0l-5,2.26,0,3.31L.11,5.51,0,26.75l19.07.1.11-21.23Zm6.64.9-2.33,4.27L13.4,6.45ZM1,6.38l11.27.06-.1,19.5L.87,25.88ZM16,26l0-7.37h-.87l0,7.37H13l.1-18.21,2.57,4.84L18.3,7.76,18.2,26Z"/><rect class="cls-1" x="2.8" y="11.4" width="7.57" height="0.87" transform="translate(-4.15 3.57) rotate(-23.32)"/><rect class="cls-1" x="6.87" y="13.57" width="3.3" height="0.87" transform="translate(-4.78 4.41) rotate(-22.88)"/><path class="cls-1" d="M6.55,17.25l-.26,0-.66-1.12-.75.44.54.91a2.92,2.92,0,0,0-1.48,2.77c0,1.81,1,3,2.58,3s2.61-1.21,2.62-3S8.11,17.26,6.55,17.25Zm0,5.2c-1.28,0-1.73-1.13-1.72-2.18a2.09,2.09,0,0,1,1.06-2l.31.52.75-.44-.11-.18c1.07.15,1.46,1.18,1.46,2.14S7.8,22.45,6.52,22.45Z"/><rect class="cls-1" x="15.22" y="16.86" width="0.87" height="0.87" transform="translate(-1.73 32.85) rotate(-89.69)"/><rect class="cls-1" x="15.23" y="15.13" width="0.87" height="0.87" transform="translate(0.01 31.14) rotate(-89.69)"/></svg>