<svg id="Layer_1" data-name="Layer 1" xmlns="http://www.w3.org/2000/svg" viewBox="0 0 22.23 27.28"><defs><style>.cls-1{fill:#444344;}</style></defs><title>Ishop icon P2P_9-10</title><path class="cls-1" d="M9,7.25H5.08v-4a.33.33,0,0,1,.65,0V6.6H8.35V3.22a.33.33,0,0,1,.65,0Z"/><path class="cls-1" d="M9.49,26.17H4.59a2,2,0,0,1-2-2V12.78A4.41,4.41,0,0,1,5.08,8.83V6.6H9V8.83a4.41,4.41,0,0,1,2.45,3.95V24.21A2,2,0,0,1,9.49,26.17ZM5.73,7.25v2l-.2.09a3.76,3.76,0,0,0-2.25,3.44V24.21a1.31,1.31,0,0,0,1.31,1.31h4.9a1.31,1.31,0,0,0,1.31-1.31V12.78A3.76,3.76,0,0,0,8.58,9.35l-.28-.1L8.35,9V7.25Z"/><path class="cls-1" d="M8.67,2.57a.33.33,0,0,1-.33-.33V1.35H5.73v.89a.33.33,0,0,1-.65,0V.7H9V2.25A.33.33,0,0,1,8.67,2.57Z"/><path class="cls-1" d="M8.67,3.44H5.41A.73.73,0,1,1,5.41,2H8.67a.73.73,0,0,1,0,1.47ZM5.41,2.63a.08.08,0,1,0,0,.16H8.67a.08.08,0,0,0,0-.16Z"/><path class="cls-1" d="M18.8,26.58H13.25a.73.73,0,1,1,0-1.47h1.1l.08-.06a2.79,2.79,0,0,1,.86-.51V19h1.47v5.55a2.8,2.8,0,0,1,.86.51l.08.06h1.1a.73.73,0,1,1,0,1.47Zm-5.55-.82a.08.08,0,1,0,0,.16H18.8a.08.08,0,1,0,0-.16H17.48l-.26-.2a1.89,1.89,0,0,0-.85-.45l-.27-.05V19.65h-.16v5.42l-.27.05a1.89,1.89,0,0,0-.85.45l-.26.2Z"/><path class="cls-1" d="M11.45,20.36H2.61V15.57h8.84ZM3.27,19.7H10.8V16.23H3.27Z"/><path class="cls-1" d="M16,19.64A3.6,3.6,0,0,1,12.43,16a3.64,3.64,0,0,1,0-.38l.5-4.85h6.14l.5,4.85a3.46,3.46,0,0,1,0,.38A3.6,3.6,0,0,1,16,19.64Zm-2.48-8.16-.44,4.26a2.83,2.83,0,0,0,0,.31A2.94,2.94,0,0,0,19,16a2.59,2.59,0,0,0,0-.3h0l-.44-4.26Z"/></svg>