<svg id="Layer_1" data-name="Layer 1" xmlns="http://www.w3.org/2000/svg" viewBox="0 0 25.35 24"><title>coke_Icon</title><path d="M24.85,13.3l-.73-3.46V8.52a.73.73,0,0,0-.48-.69V6.71c0-.6,1.21-.72,1.22-.72a.28.28,0,0,0,.26-.28V4.32A.28.28,0,0,0,25,4.08a19.38,19.38,0,0,0-3.3-1.66H15.81a.28.28,0,0,0-.28.28h0V4.84a.28.28,0,0,0,.23.28l1.13.2h0l.81.14a6.26,6.26,0,0,1-1.53,3.11.38.38,0,0,0,0,.5.68.68,0,0,0,.53.26.82.82,0,0,0,.4-.11,7.47,7.47,0,0,0,3.07-3.18.93.93,0,0,1,.28.64V7.85a.76.76,0,0,0-.41.67V9.89a.29.29,0,0,0,0,.06,6.13,6.13,0,0,1-1.57,4l-.17.19a6.61,6.61,0,0,0-1.42,2.58l-.06.21a6.63,6.63,0,0,0-.21,1.64v3.88A1.58,1.58,0,0,0,18.26,24h5.51a1.58,1.58,0,0,0,1.58-1.58h0V19A32.09,32.09,0,0,0,24.85,13.3ZM16.7,4.67l-.61-.1V3h.61Zm.19,4h0a7,7,0,0,0,1.47-3.1l1.39.2a6.89,6.89,0,0,1-2.86,2.93Zm3.57-3.23a1.49,1.49,0,0,0-.52-.23h-.06L18.45,5l-.28,0-.29,0-.63-.11V3h4.42a28.35,28.35,0,0,1,2.9,1.5v.93c-.64.11-1.49.46-1.49,1.25V7.81h-2V6.71a1.48,1.48,0,0,0-.63-1.21Zm3.1,3V9.58H20.68V8.52a.29.29,0,0,1,0-.11h2.8a.29.29,0,0,1,.07.11Zm-5.9,7.85a6.05,6.05,0,0,1,1.13-1.87l.17-.19a6.7,6.7,0,0,0,1.72-4.1h1.17v2.57c-.06,1.52-.15,2.8-.26,3.92h.56c.18-1.7.3-3.85.31-6.54h1.21l.68,3.23q.25,1.4.36,2.8v.36a4.54,4.54,0,0,1-2.63.55h-.77a2.54,2.54,0,0,1-.7-.17,4.72,4.72,0,0,0-3.07-.07A1.73,1.73,0,0,1,17.66,16.34Zm7.13,6.08a1,1,0,0,1-1,1H18.27a1,1,0,0,1-1-1h0V18.54a6.07,6.07,0,0,1,.1-1.12c.29-.21,1.21-.65,3.09-.1a7.77,7.77,0,0,0,.78.19h.21a25.84,25.84,0,0,1-.6,3.28,7.47,7.47,0,0,1-.42,1.27.28.28,0,0,0,.5.26A15.82,15.82,0,0,0,22,17.58h.43a5.11,5.11,0,0,0,2.31-.51c0,.61.06,1.22.06,1.87Z"/><circle cx="14.04" cy="3.83" r="0.36"/><circle cx="12.41" cy="3.83" r="0.45"/><circle cx="10.79" cy="3.83" r="0.54"/><circle cx="9.17" cy="3.83" r="0.64"/><circle cx="14.39" cy="2.54" r="0.36" transform="translate(6.43 14.79) rotate(-67.02)"/><circle cx="12.89" cy="1.9" r="0.45" transform="translate(6.11 13.03) rotate(-67.01)"/><circle cx="11.39" cy="1.27" r="0.54" transform="translate(5.77 11.26) rotate(-67.02)"/><circle cx="9.89" cy="0.64" r="0.64" transform="translate(5.45 9.5) rotate(-67.02)"/><circle cx="14.38" cy="5.13" r="0.36" transform="translate(-0.86 6.02) rotate(-22.98)"/><circle cx="12.89" cy="5.76" r="0.45" transform="translate(-1.23 5.49) rotate(-22.99)"/><circle cx="11.39" cy="6.4" r="0.54" transform="translate(-1.59 4.96) rotate(-22.98)"/><circle cx="9.9" cy="7.04" r="0.64" transform="translate(-1.96 4.42) rotate(-22.98)"/><path d="M16,14.48h0a8.08,8.08,0,1,0-13.74,7,.23.23,0,0,0,.15.16A8.07,8.07,0,0,0,16,14.48Zm-.66-.56a8.65,8.65,0,0,0-4-.79A9.49,9.49,0,0,0,11,11.65h.18a2.14,2.14,0,0,0,1.86-1,1.32,1.32,0,0,0,.13-.37,7.59,7.59,0,0,1,2.29,3.67Zm-8,9.26a.24.24,0,0,0-.24.22,7.55,7.55,0,0,1-4.06-1.82,8.71,8.71,0,0,0,5.22-3.44c.89-1.06,1.61-1.9,2.91-2.06,0,4.2-1.56,7.11-3.79,7.11ZM.66,17.31h0a.24.24,0,0,0,.18-.07C3,15.07,5.9,14,10.38,13.66H11a13,13,0,0,1,.19,2c-1.53.17-2.39,1.17-3.31,2.23a8.14,8.14,0,0,1-5.29,3.35A7.58,7.58,0,0,1,.66,17.31Zm12-7.52a.24.24,0,0,0,0,.09.54.54,0,0,1-.06.49,1.61,1.61,0,0,1-1.44.75h-.34A5.39,5.39,0,0,0,7.93,8.3h.18A7.54,7.54,0,0,1,12.62,9.78ZM6.37,8.46a.24.24,0,0,0,.13,0,4.3,4.3,0,0,1,3.71,2.64,9.82,9.82,0,0,1-3.11-.66,5.57,5.57,0,0,0-4.94.66,7.6,7.6,0,0,1,4.2-2.66Zm-5.05,4a.24.24,0,0,0,.17-.07A5.12,5.12,0,0,1,6.93,11a10.1,10.1,0,0,0,3.5.71,8.75,8.75,0,0,1,.48,1.49h-.58c-4.55.31-7.57,1.45-9.76,3.68A7.38,7.38,0,0,1,1.32,12.43Zm7.21,11c1.9-.8,3.15-3.6,3.18-7.37a2,2,0,0,1,1.71.91,5.08,5.08,0,0,1,.36,3.88h0a7.56,7.56,0,0,1-5.22,2.57Zm6-3.52a5.33,5.33,0,0,0-.66-3.21,2.51,2.51,0,0,0-2.13-1.16,13.47,13.47,0,0,0-.19-1.94,6.7,6.7,0,0,1,4,1,7.42,7.42,0,0,1-1.07,5.29Z"/></svg>