<svg id="Layer_1" data-name="Layer 1" xmlns="http://www.w3.org/2000/svg" viewBox="0 0 18.24 24"><title>coke_Icon</title><path d="M18,10.08v-.6A.44.44,0,0,0,17.59,9H11.73a.44.44,0,0,0-.38.47v.6a.31.31,0,0,0-.26.34V22.6a.31.31,0,0,0,.26.33v.6a.44.44,0,0,0,.38.47H17.6a.44.44,0,0,0,.38-.47v-.6a.31.31,0,0,0,.26-.33V10.41A.31.31,0,0,0,18,10.08Zm-6.09-.44h5.55V10H11.88Zm2.57,6.1c.12.44.23.85.34,1.24.54,1.92.9,3.17.19,5.22H14.3A8.43,8.43,0,0,0,14,16.75c-.11-.38-.22-.78-.33-1.22a6.66,6.66,0,0,1,.88-4.76l0-.06h.58a7.26,7.26,0,0,0-.76,5.06Zm-2.82,6.49V10.74H14a7.26,7.26,0,0,0-.78,5c.12.44.23.85.34,1.24.54,1.92.9,3.17.19,5.22Zm5.81,1.07H11.88v-.4h5.55Zm.26-1.07H15.58a8.43,8.43,0,0,0-.26-5.44c-.11-.38-.22-.78-.33-1.22a6.66,6.66,0,0,1,.88-4.76v-.06h1.82Z"/><path d="M9.05,17.5a2.94,2.94,0,0,1-.52-1.63,5.9,5.9,0,0,1,.34-2,8,8,0,0,0,.43-2.66,6.47,6.47,0,0,0-1.58-4.5C7.11,5.92,7,4,7,3a1.1,1.1,0,0,0,.82-1.1A8.21,8.21,0,0,0,7.39.3L7.27,0H2.82L2.73.26A8.23,8.23,0,0,0,2.32,1.9,1.1,1.1,0,0,0,3.13,3c0,1-.12,2.89-.75,3.69a6.47,6.47,0,0,0-1.58,4.5,8,8,0,0,0,.41,2.71,5.89,5.89,0,0,1,.34,2A2.94,2.94,0,0,1,1,17.51a7.28,7.28,0,0,0-1,4.17A2.22,2.22,0,0,0,2.13,24H7.75a2.22,2.22,0,0,0,2.32-2.12q0-.1,0-.2A7.28,7.28,0,0,0,9.05,17.5ZM3,7.21c1-1.32.92-4.38.92-4.51V2.34H3.5A.36.36,0,0,1,3.1,2,6.38,6.38,0,0,1,3.38.78H6.71A6.39,6.39,0,0,1,7,1.94a.36.36,0,0,1-.33.39H6.22V2.7c0,.13-.1,3.21.91,4.51A6,6,0,0,1,8.28,9.29H1.82A6,6,0,0,1,3,7.21ZM1.65,10.06H8.43a7.5,7.5,0,0,1,.09,1.16,7,7,0,0,1-.25,1.94H1.81a7,7,0,0,1-.25-1.94A7.5,7.5,0,0,1,1.65,10.06ZM7.75,23.22H2.33A1.45,1.45,0,0,1,.79,21.68a6.54,6.54,0,0,1,.92-3.79,3.69,3.69,0,0,0,.63-2,6.28,6.28,0,0,0-.3-2h6a6.29,6.29,0,0,0-.29,1.94,3.69,3.69,0,0,0,.63,2,6.54,6.54,0,0,1,.92,3.79A1.45,1.45,0,0,1,8,23.23H7.75Z"/><rect x="4.27" y="2.32" width="1.54" height="0.78"/><path d="M2.57,17.66a8.63,8.63,0,0,0-1,4.41h.78A7.86,7.86,0,0,1,3.28,18l.2-.43-.7-.33Z"/><path d="M3.15,15.66a1.49,1.49,0,0,1,0,1.2l.69.34a2.26,2.26,0,0,0,0-1.9Z"/><rect x="4.66" y="11.22" width="0.78" height="0.78"/><rect x="6.21" y="11.22" width="0.78" height="0.78"/><rect x="3.11" y="11.22" width="0.78" height="0.78"/></svg>