<svg id="Layer_1" data-name="Layer 1" xmlns="http://www.w3.org/2000/svg" viewBox="0 0 21.79 27.44"><defs><style>.cls-1{fill:#414042;}</style></defs><title>iSHOP Dashboard_Elements</title><path class="cls-1" d="M19.19,0H2.6A2.54,2.54,0,0,0,0,2.47V25a2.54,2.54,0,0,0,2.6,2.47H19.19A2.54,2.54,0,0,0,21.79,25V2.47A2.54,2.54,0,0,0,19.19,0ZM21,6.27V25a1.76,1.76,0,0,1-1.82,1.69H2.6A1.76,1.76,0,0,1,.78,25V6.27Zm0-3.8v3H.78v-3A1.76,1.76,0,0,1,2.6.78H19.19A1.76,1.76,0,0,1,21,2.47Z"/><path class="cls-1" d="M15.61,1.66A1.31,1.31,0,1,0,16.92,3,1.32,1.32,0,0,0,15.61,1.66ZM16.21,3a.61.61,0,1,1-.61-.61A.61.61,0,0,1,16.21,3Z"/><path class="cls-1" d="M18.66,1.66A1.31,1.31,0,1,0,20,3,1.32,1.32,0,0,0,18.66,1.66ZM19.27,3a.61.61,0,1,1-.61-.61A.61.61,0,0,1,19.27,3Z"/><path class="cls-1" d="M7.52,1.66H2.66a.85.85,0,0,0-.85.85v.94a.85.85,0,0,0,.85.85H7.52a.85.85,0,0,0,.85-.85V2.5A.85.85,0,0,0,7.52,1.66Zm0,1.92H2.66a.14.14,0,0,1-.14-.14V2.5a.14.14,0,0,1,.14-.14H7.52a.14.14,0,0,1,.14.14v.94A.14.14,0,0,1,7.52,3.58Z"/><path class="cls-1" d="M10.89,24.42a7.76,7.76,0,1,0-7.76-7.76A7.77,7.77,0,0,0,10.89,24.42Zm-7-7.76a7,7,0,1,1,7,7A7,7,0,0,1,3.92,16.66Z"/><path class="cls-1" d="M7.9,21.84a6,6,0,0,0,.75.37h0l.4.14.44.13.43.08.44.05h.08l.42,0h.49l.36,0h0l.4-.07h.05l.37-.1h0l.39-.13h0l.37-.16h0l.39-.2.35-.21h0l.35-.25,0,0a6,6,0,0,0,.91-.88l0,0,.32-.46v0l.21-.32,0-.06.18-.33v0a5.91,5.91,0,0,0,.62-2.64V16l0,0a6,6,0,0,0-11.93.59l-.06,0,.09.65A6,6,0,0,0,7.9,21.84Zm7.93-3.31h-.08l-.12.29v0l-.1.2,0,0-.09.16,0,.07-.08.14,0,0a.7.7,0,0,0-.25.34l-.14.17-.08.1-.14.15-.14.14-.12.11-.28.24,0,0-.34.24h0a5.11,5.11,0,0,1-.66.37l-.32.14h0l-.34.12,0,.07,0-.06-.32.08h0l-.34.06h0l-.3,0h-.08a4.61,4.61,0,0,1-.71,0h-.07l-.38,0-.38-.08-.38-.1L9,21.5l0,.07v-.08l-.3-.13-.07,0,0,0-.18-.1-.08,0-.05,0L8.1,21l-.16-.11-.1-.07-.18-.14-.06,0-.2-.17A5.21,5.21,0,0,1,5.87,18a1.17,1.17,0,0,0,.26,0,1.78,1.78,0,0,0,1.06-.62,1.39,1.39,0,0,1,.55-.4,1.17,1.17,0,0,0,.38.72,1.38,1.38,0,0,0,.53.27H8.7A1.33,1.33,0,0,0,9,18h.21a1.78,1.78,0,0,0,1.06-.62,1.39,1.39,0,0,1,.55-.4,1.17,1.17,0,0,0,.38.72,1.38,1.38,0,0,0,.53.27h.05a1.33,1.33,0,0,0,.3,0h.21a1.78,1.78,0,0,0,1.06-.62,1.39,1.39,0,0,1,.55-.4,1.17,1.17,0,0,0,.38.72,1.38,1.38,0,0,0,.53.27h.05a1.33,1.33,0,0,0,.3,0h.21a1.49,1.49,0,0,0,.6-.22,5.15,5.15,0,0,1-.22.74l.07,0Zm-.56-1.32H15a.58.58,0,0,1-.21-.1.57.57,0,0,1-.12-.49l.11-.48H14.3a1.9,1.9,0,0,0-1.5.69,1.07,1.07,0,0,1-.62.39h-.25a.58.58,0,0,1-.21-.1.57.57,0,0,1-.12-.49l.11-.48h-.49a1.9,1.9,0,0,0-1.5.69,1.07,1.07,0,0,1-.62.39H8.84a.58.58,0,0,1-.21-.1.57.57,0,0,1-.12-.49l.11-.48H8.13a1.9,1.9,0,0,0-1.5.69A1.07,1.07,0,0,1,6,17.2a.61.61,0,0,1-.29,0,5,5,0,0,1,0-.51,5.2,5.2,0,0,1,10.4-.05l-.21.2A1.06,1.06,0,0,1,15.26,17.2Zm.93,2.07Z"/><path class="cls-1" d="M10.77,12.12a4.78,4.78,0,0,0-3.82,2.42l0,.07.69.36,0-.07a4,4,0,0,1,3.17-2h.08l0-.78Z"/></svg>