<svg id="Layer_1" data-name="Layer 1" xmlns="http://www.w3.org/2000/svg" viewBox="0 0 14.12 28.07"><defs><style>.cls-1{fill:#414042;}</style></defs><title>iSHOP Dashboard_Elements</title><path class="cls-1" d="M14,21.1A.42.42,0,0,0,14,21l.1-7.43a2.64,2.64,0,0,0-1.67-2.48,1.71,1.71,0,0,0,.06-.42l0-1.38a1.7,1.7,0,0,0-1.67-1.71h-.78A2.51,2.51,0,0,0,10.62,6a2.2,2.2,0,0,0-.71-1.75A2.47,2.47,0,0,1,9.2,2.18,2.47,2.47,0,0,0,8.73.85,1.82,1.82,0,0,0,7.28,0h0a1.7,1.7,0,0,0-1.2.52A2.56,2.56,0,0,0,5.3,2.13a2.49,2.49,0,0,1-.66,2l-.1.11a2.2,2.2,0,0,0-.75,1.73,2.51,2.51,0,0,0,.5,1.59h-.7A1.69,1.69,0,0,0,1.89,9.19l0,1.38a1.67,1.67,0,0,0,0,.41,2.64,2.64,0,0,0-1,.6,2.6,2.6,0,0,0-.79,1.84L0,25.3A2.63,2.63,0,0,0,2.59,28a19,19,0,0,0,2.24-.17A17.21,17.21,0,0,1,7,27.62a16,16,0,0,1,2.13.22,16.45,16.45,0,0,0,2.23.23h0a2.59,2.59,0,0,0,1-.19,2.65,2.65,0,0,0,.84-.55A2.61,2.61,0,0,0,14,25.49V24.37A.38.38,0,0,0,14,24l0-2.83A.35.35,0,0,0,14,21.1Zm-9-16.36.11-.11A3.2,3.2,0,0,0,6,2.14a1.86,1.86,0,0,1,.54-1.08A1,1,0,0,1,7.26.75h0a1.11,1.11,0,0,1,.85.54,1.75,1.75,0,0,1,.34.89A3.19,3.19,0,0,0,9.36,4.8,1.47,1.47,0,0,1,9.87,6a1.81,1.81,0,0,1-.54,1.31l-.07.08a.32.32,0,0,0-.08.18l-4-.05a.38.38,0,0,0-.08-.18L5,7.28A1.81,1.81,0,0,1,4.53,6,1.48,1.48,0,0,1,5.07,4.74ZM2.64,9.2a1,1,0,0,1,1-.93l1.54,0,5.72.08a.95.95,0,0,1,.93,1l0,1.38a.92.92,0,0,1,0,.26h-.19l-8.72-.11H2.66a.93.93,0,0,1,0-.26Zm10.72,5.36H9.46a.38.38,0,0,0,0,.75h3.89l0,2.33H9.46a.38.38,0,0,0,0,.75h3.85l0,2.33H9.46a.38.38,0,0,0,0,.75h3.81l0,2.33H9.46a.38.38,0,1,0,0,.75h3.77v.91a1.86,1.86,0,0,1-.57,1.31,1.92,1.92,0,0,1-.6.4,1.72,1.72,0,0,1-.73.14,16,16,0,0,1-2.13-.22A16.3,16.3,0,0,0,7,26.87H6.86A17.3,17.3,0,0,0,4.73,27a13.56,13.56,0,0,1-2.13.17,1.88,1.88,0,0,1-1.85-1.9L.91,13.44a1.88,1.88,0,0,1,1.87-1.85h0l8.72.11a1.88,1.88,0,0,1,1.85,1.9Z"/></svg>