<svg id="Layer_1" data-name="Layer 1" xmlns="http://www.w3.org/2000/svg" viewBox="0 0 500 500"><defs><style>.cls-1{fill:#414042;}</style></defs><title>Icons</title><path class="cls-1" d="M354.39,142.33c-2.27-.84-4.57-1.48-6.88-2.12a107.92,107.92,0,0,0,4.38-28.46C351.88,49.08,310,0,256.55,0,209.85,0,171,38.55,163,92c-2.18.35-4.37.7-6.54,1.24C104.57,106,75.67,163.74,90.66,224.58c6.59,26.76,26.84,54.65,55.54,76.5,18.56,14.13,37.28,23,52.21,25.74-6.21,12.86-15.68,34.68-15.68,48.93,0,13.25,9.5,23.19,17.88,32,4.78,5,10.21,10.68,10.43,14.3.57,9.3-9.81,31.69-16,45.06-1.58,3.4-3,6.46-4.1,9l11.84,5.18c1.06-2.44,2.46-5.42,4-8.73,9.45-20.4,17.9-39.68,17.17-51.28-.5-8.33-7-15.17-14-22.44s-14.3-15-14.3-23c0-12.52,10.51-35.85,16.82-48.29.54-.09,1.18-.06,1.7-.19,6.64-1.64,12-5.6,17.51-11.35,9.57,25.28,23.57,45.24,37.19,51.51,0,7.35-.2,25.55-3.37,42.3-1.85,9.74-7,13.17-13.07,17.16-5.69,3.75-12.11,8-14.21,17.22-2.29,10,.4,20.54,3.28,31.74,2,7.94,4.1,16.13,4.36,24.15l12.92-.4c-.3-9.44-2.57-18.33-4.76-26.93-2.47-9.65-4.79-18.77-3.21-25.68.93-4,3.63-6,8.75-9.33,6.66-4.39,15.79-10.43,18.64-25.52,3.07-16.17,3.58-33.05,3.61-42,.24,0,.39.1.63.1,15.51,0,37-7.23,58.73-20.17,31-18.48,54.23-43.9,63.8-69.75C426.72,221.52,404.51,160.91,354.39,142.33ZM256.55,12.92C302,12.92,339,57.25,339,111.75a95.29,95.29,0,0,1-4.12,25.94c-18.48-2.15-37.6,1.82-55.39,11.82a108.22,108.22,0,0,0-11.11,7.72c-12.32-28.06-33.51-49-57.88-59.26l1.31.25C216.1,75.49,231.19,58,250.21,53.55L247.28,41c-23.5,5.43-42,26.23-47.75,53.13a86,86,0,0,0-23.17-3.21C184.38,45.46,217.21,12.92,256.55,12.92Zm-45.48,301.8c-9.62,2.44-32.29-5.06-57-23.92-26.41-20.1-44.93-45.36-50.83-69.31-13.05-52.91,12.23-104.82,56.35-115.72,39.26-9.69,80.53,16.19,98.22,60.32a126.4,126.4,0,0,0-31.57,47.85c-9.82,26.5-7.54,59.19.76,87.81C220.44,309.83,216,313.49,211.07,314.71Zm181.77-38.92c-8.56,23.13-29.82,46.14-58.3,63.12-26.71,15.91-50.07,20.72-59.37,17.32-22.42-8.33-55.71-87-36.85-137.84,9.33-25.21,26.19-45.68,47.47-57.64A80.28,80.28,0,0,1,325.14,150a71,71,0,0,1,24.74,4.44C392.5,170.25,411.76,224.68,392.84,275.79Z"/><path class="cls-1" d="M128,212.2l12.55-3.09c-7.89-31.94,7.2-63.24,33.62-69.77l-3.09-12.55C137.18,135.18,118.26,172.69,128,212.2Z"/><path class="cls-1" d="M260.2,251.37l12.92-.2c-.47-32.88,21.28-60,48.51-60.4l-.2-12.92C286.51,178.39,259.61,210.68,260.2,251.37Z"/></svg>