<svg id="Layer_1" data-name="Layer 1" xmlns="http://www.w3.org/2000/svg" viewBox="0 0 12.31 29.36"><defs><style>.cls-1{fill:#414042;}</style></defs><title>iSHOP Dashboard_Elements</title><path class="cls-1" d="M11.06,21.41a3.6,3.6,0,0,1-.64-2A7.22,7.22,0,0,1,10.84,17a9.81,9.81,0,0,0,.53-3.26,7.92,7.92,0,0,0-1.93-5.5c-.76-1-.92-3.32-.92-4.52a1.34,1.34,0,0,0,1-1.35,10.05,10.05,0,0,0-.5-2L8.88,0H3.43L3.32.32a10.07,10.07,0,0,0-.5,2,1.34,1.34,0,0,0,1,1.35c0,1.19-.15,3.53-.92,4.52a7.92,7.92,0,0,0-1.93,5.5A9.82,9.82,0,0,0,1.47,17a7.21,7.21,0,0,1,.42,2.42,3.6,3.6,0,0,1-.64,2A8.91,8.91,0,0,0,0,26.52a2.72,2.72,0,0,0,2.84,2.84H9.47a2.72,2.72,0,0,0,2.84-2.84A8.91,8.91,0,0,0,11.06,21.41ZM3.62,8.82C4.87,7.2,4.74,3.46,4.74,3.3l0-.44H4.27a.44.44,0,0,1-.49-.47A7.81,7.81,0,0,1,4.12.95H8.2a7.82,7.82,0,0,1,.34,1.42.44.44,0,0,1-.49.47H7.59l0,.46c0,.16-.12,3.93,1.11,5.52a7.29,7.29,0,0,1,1.41,2.55H2.21A7.29,7.29,0,0,1,3.62,8.82ZM2,12.31h8.3a9.18,9.18,0,0,1,.11,1.42,8.5,8.5,0,0,1-.3,2.37H2.2a8.5,8.5,0,0,1-.3-2.37A9.18,9.18,0,0,1,2,12.31Zm7.47,16.1H2.84A1.78,1.78,0,0,1,.95,26.52a8,8,0,0,1,1.13-4.64,4.52,4.52,0,0,0,.77-2.46A7.68,7.68,0,0,0,2.48,17H9.84a7.69,7.69,0,0,0-.36,2.37,4.52,4.52,0,0,0,.77,2.46,8,8,0,0,1,1.13,4.64A1.78,1.78,0,0,1,9.47,28.42Z"/><rect class="cls-1" x="5.21" y="2.84" width="1.89" height="0.95"/><path class="cls-1" d="M3.13,21.61A10.56,10.56,0,0,0,1.89,27h.95A9.62,9.62,0,0,1,4,22l.25-.52-.86-.4Z"/><path class="cls-1" d="M3.84,19.16a1.82,1.82,0,0,1,0,1.47l.85.42a2.77,2.77,0,0,0,0-2.32Z"/><rect class="cls-1" x="5.68" y="13.73" width="0.95" height="0.95"/><rect class="cls-1" x="7.58" y="13.73" width="0.95" height="0.95"/><rect class="cls-1" x="3.79" y="13.73" width="0.95" height="0.95"/></svg>