<svg id="Layer_1" data-name="Layer 1" xmlns="http://www.w3.org/2000/svg" viewBox="0 0 22 27.28"><defs><style>.cls-1{fill:#414042;}</style></defs><title>iSHOP Dashboard_Elements</title><rect class="cls-1" x="6.16" y="3.08" width="9.24" height="0.88"/><path class="cls-1" d="M17.16,3.37V.88A.88.88,0,0,0,16.28,0H5.72a.88.88,0,0,0-.88.88V3.37L0,9.53V26a1.32,1.32,0,0,0,1.32,1.32H20.68A1.32,1.32,0,0,0,22,26V9.53Zm-2.67,3.7,4.26,1.7L19.08,8l-4-1.61,1.66-2.11,3.93,5H12.79ZM5.72,3.67V.88H16.28V3.37L11.67,9.24H1.35ZM.88,26V10.12H11.41V26.4H1.32A.44.44,0,0,1,.88,26Zm19.8.44H12.29V10.12h8.83V26A.44.44,0,0,1,20.68,26.4Z"/><rect class="cls-1" x="9.68" y="15.4" width="0.88" height="0.88"/><rect class="cls-1" x="7.92" y="15.4" width="0.88" height="0.88"/><rect class="cls-1" x="1.76" y="15.4" width="5.28" height="0.88"/><rect class="cls-1" x="1.76" y="21.56" width="8.8" height="0.88"/></svg>