<svg id="Layer_1" data-name="Layer 1" xmlns="http://www.w3.org/2000/svg" viewBox="0 0 22.23 27.28"><defs><style>.cls-1{fill:#444344;}.cls-2{fill:#454244;}.cls-3{fill:none;}</style></defs><title>Ishop icon P2P_9-10</title><path class="cls-1" d="M17.13,19H4.92a3.14,3.14,0,0,1-3.13-3.13v-.7l.43.08a4.08,4.08,0,0,0,2.7-.36l.19-.12.19.12a3.62,3.62,0,0,0,1.84.44,3.3,3.3,0,0,0,2-.55l.23-.19.23.19a3.31,3.31,0,0,0,2,.55,3.6,3.6,0,0,0,1.84-.44l.19-.12.19.12a4.33,4.33,0,0,0,3.45.13l.15-.07.15.07a4.35,4.35,0,0,0,2.29.26l.42-.06v.66A3.14,3.14,0,0,1,17.13,19ZM2.5,16a2.42,2.42,0,0,0,2.41,2.27H17.13A2.42,2.42,0,0,0,19.54,16a5,5,0,0,1-2.13-.3,5.14,5.14,0,0,1-3.8-.13,5,5,0,0,1-4.26-.11,5,5,0,0,1-4.26.11A4.78,4.78,0,0,1,2.5,16Z"/><path class="cls-1" d="M19.16,16a4.65,4.65,0,0,1-1.91-.38l.3-.65a3.91,3.91,0,0,0,1.6.31c1.38,0,2.23-.55,2.23-.94,0-.14-.29-.46-.82-.69l.29-.66c.29.13,1.25.61,1.25,1.35C22.11,15.32,20.85,16,19.16,16Z"/><path class="cls-1" d="M20.26,13.09h-.72v-1.6A2.43,2.43,0,0,0,17.13,9a2.39,2.39,0,0,0-1.77.78l-.26.29-.26-.29a2.47,2.47,0,0,0-3.54,0l-.26.29-.26-.29a2.46,2.46,0,0,0-3.54,0L7,10.07l-.26-.28A2.39,2.39,0,0,0,4.92,9,2.42,2.42,0,0,0,2.5,11.42v1.34H1.78V11.61l.36,0-.36-.06v-.08A3.13,3.13,0,0,1,7,9,3.2,3.2,0,0,1,11,9a3.22,3.22,0,0,1,4.07,0,3.13,3.13,0,0,1,5.17,2.38Z"/><path class="cls-1" d="M3.07,16c-1.68,0-3-.71-3-1.65,0-.33.25-1,1.42-1.14L1.6,14c-.6.05-.77.29-.77.42,0,.4.85.95,2.23.95s2.23-.55,2.23-.94a.31.31,0,0,0,0-.11L5.94,14a1,1,0,0,1,.07.37C6,15.32,4.75,16,3.07,16Z"/><path class="cls-2" d="M4.55,17.64a.85.85,0,1,1,.85-.85A.85.85,0,0,1,4.55,17.64Zm0-1a.11.11,0,0,0-.11.11c0,.12.22.12.22,0A.11.11,0,0,0,4.55,16.68Z"/><path class="cls-2" d="M6.4,18.37a.85.85,0,1,1,.85-.85A.85.85,0,0,1,6.4,18.37Zm0-1a.11.11,0,0,0-.11.11c0,.12.22.12.22,0A.11.11,0,0,0,6.4,17.42Z"/><path class="cls-2" d="M7.88,17.64a.85.85,0,1,1,.85-.85A.85.85,0,0,1,7.88,17.64Zm0-1a.11.11,0,0,0-.11.11c0,.12.22.12.22,0A.11.11,0,0,0,7.88,16.68Z"/><path class="cls-2" d="M9,18.37a.85.85,0,1,1,.85-.85A.85.85,0,0,1,9,18.37Zm0-1a.11.11,0,0,0-.11.11c0,.12.22.12.22,0A.11.11,0,0,0,9,17.42Z"/><path class="cls-2" d="M10.47,17.64a.85.85,0,1,1,.85-.85A.85.85,0,0,1,10.47,17.64Zm0-1a.11.11,0,0,0-.11.11c0,.12.22.12.22,0A.11.11,0,0,0,10.47,16.68Z"/><path class="cls-2" d="M11.95,18.37a.85.85,0,1,1,.85-.85A.85.85,0,0,1,11.95,18.37Zm0-1a.11.11,0,0,0-.11.11c0,.12.22.12.22,0A.11.11,0,0,0,11.95,17.42Z"/><path class="cls-2" d="M13.43,17.27a.85.85,0,1,1,.85-.85A.85.85,0,0,1,13.43,17.27Zm0-1a.11.11,0,0,0-.11.11c0,.12.22.12.22,0A.11.11,0,0,0,13.43,16.31Z"/><path class="cls-2" d="M14.54,18.37a.85.85,0,1,1,.85-.85A.85.85,0,0,1,14.54,18.37Zm0-1a.11.11,0,0,0-.11.11c0,.12.22.12.22,0A.11.11,0,0,0,14.54,17.42Z"/><path class="cls-2" d="M16.39,17.64a.85.85,0,1,1,.85-.85A.85.85,0,0,1,16.39,17.64Zm0-1a.11.11,0,0,0-.11.11c0,.12.22.12.22,0A.11.11,0,0,0,16.39,16.68Z"/><path class="cls-3" d="M18.24,17.16a.37.37,0,1,1-.37-.37.37.37,0,0,1,.37.37Zm0,0"/><path class="cls-2" d="M6,12.11a.36.36,0,0,1-.36-.36,3.47,3.47,0,0,1,1.05-2.5.36.36,0,1,1,.5.51,2.76,2.76,0,0,0-.84,2A.36.36,0,0,1,6,12.11Z"/><path class="cls-2" d="M10.09,12.15a.36.36,0,0,1-.36-.36A3.51,3.51,0,0,1,10.9,9.17a.36.36,0,0,1,.48.54,2.79,2.79,0,0,0-.94,2.08A.36.36,0,0,1,10.09,12.15Z"/><path class="cls-2" d="M14.16,12.15a.36.36,0,0,1-.36-.36,3.51,3.51,0,0,1,3.51-3.5.36.36,0,1,1,0,.72,2.79,2.79,0,0,0-2.79,2.79A.36.36,0,0,1,14.16,12.15Z"/><path class="cls-2" d="M4.55,14.92a1.08,1.08,0,0,1-.45-.1,1.3,1.3,0,0,1-1.4-.29,1.26,1.26,0,0,1-1.48-1.09,1.2,1.2,0,0,1,1.28-1.1,1.45,1.45,0,0,1,.58.12,2,2,0,0,1,.54-.12,1,1,0,0,1,1.46,0h0a.91.91,0,0,1,.73.37h0c.72,0,1.28.4,1.28.91s-.55.91-1.28.91a1.82,1.82,0,0,1-.43-.05A1.09,1.09,0,0,1,4.55,14.92ZM4.12,14l.2.14a.43.43,0,0,0,.58-.18l.13-.4.37.19a1,1,0,0,0,.43.09c.35,0,.55-.14.57-.2a.72.72,0,0,0-.57-.19H5.67l-.29,0-.09-.28a.19.19,0,0,0-.19-.14l-.38.16-.17-.39a.2.2,0,0,0-.37,0l-.1.33-.33-.08a.52.52,0,0,0-.45.09l-.2.14-.2-.13a.72.72,0,0,0-.39-.11c-.3,0-.57.18-.57.38s.45.46.8.35L3,13.72l.15.23a.57.57,0,0,0,.77.17Z"/><path class="cls-2" d="M9,14.92a1.09,1.09,0,0,1-.44-.1,1.3,1.3,0,0,1-1.39-.29,1.51,1.51,0,0,1-.81-.12l.3-.65a.77.77,0,0,0,.54,0l.26-.08.15.23a.57.57,0,0,0,.77.17l.2-.13.19.14a.38.38,0,0,0,.58-.18l.13-.39.37.19a1,1,0,0,0,.43.09c.35,0,.55-.14.57-.2a.72.72,0,0,0-.57-.19h-.17l-.29,0-.09-.28a.19.19,0,0,0-.18-.14l-.38.16L9,12.85c0-.18-.33-.13-.37,0l-.1.32-.33-.08a.52.52,0,0,0-.46.09l-.2.14-.2-.13a.83.83,0,0,0-.89.1l-.57-.44a1.44,1.44,0,0,1,1.65-.38,1.18,1.18,0,0,1,.54-.12,1,1,0,0,1,1.47,0h0a.91.91,0,0,1,.73.37h0c.72,0,1.28.4,1.28.91s-.55.91-1.28.91a1.81,1.81,0,0,1-.43-.05A1.1,1.1,0,0,1,9,14.92Z"/><path class="cls-2" d="M13.8,14.92a1.09,1.09,0,0,1-.45-.1,1.3,1.3,0,0,1-1.4-.29,1.44,1.44,0,0,1-1.11-.31l.47-.54a.74.74,0,0,0,.67.12l.26-.08.15.23a.57.57,0,0,0,.77.17l.2-.13.2.14a.43.43,0,0,0,.58-.18l.13-.4.37.19a1.06,1.06,0,0,0,.94,0l.43.57a1.76,1.76,0,0,1-1.37.23A1.09,1.09,0,0,1,13.8,14.92Zm1.7-1.4a1.18,1.18,0,0,0-.58-.07l-.29,0-.09-.28a.19.19,0,0,0-.19-.14l-.38.16-.17-.39a.2.2,0,0,0-.37,0l-.1.33L13,13.09a.52.52,0,0,0-.45.09l-.2.14-.2-.13a.72.72,0,0,0-.39-.11.58.58,0,0,0-.54.28l-.66-.29a1.41,1.41,0,0,1,1.78-.59,2,2,0,0,1,.54-.12,1,1,0,0,1,1.46,0,1,1,0,0,1,.74.37h0a1.73,1.73,0,0,1,.7.14Z"/><path class="cls-2" d="M18.61,14.92a1.1,1.1,0,0,1-.45-.09,1.3,1.3,0,0,1-1.39-.29,1.26,1.26,0,0,1-1.48-1.09,1.2,1.2,0,0,1,1.28-1.1,1.44,1.44,0,0,1,.57.12,1.78,1.78,0,0,1,.54-.12,1,1,0,0,1,1.47,0h0a.91.91,0,0,1,.73.37c.7,0,1.29.4,1.29.91s-.55.91-1.28.91a1.81,1.81,0,0,1-.43-.05A1.1,1.1,0,0,1,18.61,14.92ZM18.19,14l.2.14a.43.43,0,0,0,.58-.19l.13-.39.37.19a1,1,0,0,0,.43.09c.35,0,.55-.14.57-.2a.71.71,0,0,0-.57-.19h-.17l-.29,0-.09-.28a.2.2,0,0,0-.19-.14l-.38.16-.17-.38c0-.19-.33-.14-.37,0l-.1.32-.33-.08a.52.52,0,0,0-.45.09l-.2.14-.2-.13a.72.72,0,0,0-.39-.11c-.3,0-.57.18-.57.38s.46.45.79.35l.26-.08.15.23a.58.58,0,0,0,.78.17Z"/><path class="cls-1" d="M9.6,15.31l-.48-.53a1.19,1.19,0,0,0,.33-.69l.71.07A1.9,1.9,0,0,1,9.6,15.31Z"/><path class="cls-1" d="M13.68,15.57l-.39-.6c.24-.16.6-.48.64-.67l.71.13C14.53,15,13.83,15.48,13.68,15.57Z"/><path class="cls-1" d="M17.63,15.61,17.22,15a2.94,2.94,0,0,0,.68-.74l.61.38A3.59,3.59,0,0,1,17.63,15.61Z"/></svg>