<svg id="Layer_1" data-name="Layer 1" xmlns="http://www.w3.org/2000/svg" viewBox="0 0 30.91 31.15"><defs><style>.cls-1{fill:#414042;}</style></defs><title>iSHOP Dashboard_Elements</title><path class="cls-1" d="M10,22.76H7.41a.37.37,0,1,0,0,.75H10a.37.37,0,0,0,0-.75Z"/><path class="cls-1" d="M30.91,2.45a1.09,1.09,0,0,0-.34-.78A1.13,1.13,0,0,0,29,1.7l-8.35,8.64-.26-.2,6.51-8.38a1.11,1.11,0,0,0-.2-1.54,1.13,1.13,0,0,0-1.55.19L18.63,8.83,14.45,5.7a4.53,4.53,0,0,0-5.11,0L.15,12.57h0l0,0-.06.07v0a.38.38,0,0,0,0,.1v0a.37.37,0,0,0,0,.1c.07.44,1.86,12,2.69,17.51a.37.37,0,0,0,.34.32C6,31,9,31.15,11.9,31.15s5.93-.14,8.86-.41a.37.37,0,0,0,.34-.32C21.88,25.15,23.62,14,23.78,13h0v0s0,0,0,0a.36.36,0,0,0,0-.12l0,0a.37.37,0,0,0-.06-.1l0,0,0,0h0l-1.2-.9,8.15-8.43A1.09,1.09,0,0,0,30.91,2.45ZM25.75.88A.36.36,0,0,1,26,.74a.35.35,0,0,1,.22.07.36.36,0,0,1,.07.5L19.8,9.7l-.57-.42ZM.89,13.77c1.9,1.55,6.85,5.55,8.9,6.94A3,3,0,0,1,11.26,23a2.27,2.27,0,0,1-.93,1.88C8.9,26,4.77,28.8,3.35,29.74,2.62,24.94,1.33,16.6.89,13.77Zm.83-.29a54.74,54.74,0,0,0,9.37.82h0a81.15,81.15,0,0,0,11.05-.88c-2.06,1.68-6.66,5.37-8.57,6.67a4,4,0,0,0-1.68,2.2,4,4,0,0,0-1.68-2.2C8.33,18.81,3.82,15.19,1.72,13.48ZM4.18,30.09c1.69-1.12,5.27-3.53,6.63-4.63a3.22,3.22,0,0,0,1.09-1.59A3.22,3.22,0,0,0,13,25.46c1.36,1.1,4.94,3.51,6.63,4.63A96.71,96.71,0,0,1,4.18,30.09Zm16.27-.35c-1.42-.94-5.55-3.69-7-4.86A2.27,2.27,0,0,1,12.53,23,3,3,0,0,1,14,20.71c2.06-1.39,7-5.39,8.9-6.94C22.45,16.66,21.15,25,20.44,29.74Zm2-17.12a82,82,0,0,1-11.38.93h0a54.67,54.67,0,0,1-9.8-.9L9.79,6.3A3.79,3.79,0,0,1,14,6.3l4.48,3.34h0l.29.22,1.7,1.27h0l1.09.81Zm7.59-9.91-8.22,8.5-.13-.1-.44-.33,8.29-8.57a.35.35,0,0,1,.61.24A.35.35,0,0,1,30.06,2.72Z"/><path class="cls-1" d="M13.46,23.14a.37.37,0,0,0,.37.37h2.55a.37.37,0,1,0,0-.75H13.84A.37.37,0,0,0,13.46,23.14Z"/></svg>