<svg id="Layer_1" data-name="Layer 1" xmlns="http://www.w3.org/2000/svg" viewBox="0 0 23.29 23.15"><defs><style>.cls-1{fill:#414042;}</style></defs><title>iSHOP Dashboard_Elements</title><path class="cls-1" d="M23,16.38a11.86,11.86,0,0,1-3.06-1,9.41,9.41,0,0,0-1.2-.49c-2-.59-3.69-.54-4.77.14a2.72,2.72,0,0,0-1.24,2,.37.37,0,0,0,.07.27,4.44,4.44,0,0,0-1.92,1.51,18,18,0,0,1,.78-6.58c1,.84,2.9,1.73,4.11,1.09A3.19,3.19,0,0,0,17.34,9.5a3.2,3.2,0,0,0-.91-6.26,3.2,3.2,0,0,0-6.24-1.07,3.2,3.2,0,0,0-2.94,5.6A3.21,3.21,0,0,0,7.58,12a3.15,3.15,0,0,0,3.22.34A20.5,20.5,0,0,0,10.14,19a3.69,3.69,0,0,0-1-1,4.29,4.29,0,0,0-.25-3.13,5.21,5.21,0,0,0-3.3-2.36,5.35,5.35,0,0,0-1.66-.13,7.43,7.43,0,0,1-3.36-.53.37.37,0,0,0-.47.54,11.83,11.83,0,0,1,1.36,3.4,6.62,6.62,0,0,0,1.39,3,3.68,3.68,0,0,0,2.66,1.4,4.79,4.79,0,0,0,3.26-1.53,3.86,3.86,0,0,1,1.62,2.48c0,.24.07.48.11.7h0a9.39,9.39,0,0,0,.26,1.06.38.38,0,0,0,.36.26l.11,0a.38.38,0,0,0,.24-.47,9.12,9.12,0,0,1-.24-1,5.58,5.58,0,0,0-.14-.79c0-.33-.08-.68-.11-1l.06,0,.16-.21a4.4,4.4,0,0,1,1.58-1.5,3.22,3.22,0,0,0,1.18,2.18,3.73,3.73,0,0,0,2.34.76,5.58,5.58,0,0,0,1.43-.2,6.11,6.11,0,0,0,2.6-1.73,10.28,10.28,0,0,1,2.76-2,.37.37,0,0,0-.1-.71Zm-14.52,1a13,13,0,0,0-4.9-3.2.38.38,0,0,0-.27.7,12.14,12.14,0,0,1,4.85,3.24,4,4,0,0,1-2.65,1.25,3,3,0,0,1-2.12-1.15,5.88,5.88,0,0,1-1.22-2.69,13.63,13.63,0,0,0-1-2.72,9.14,9.14,0,0,0,2.72.26,5,5,0,0,1,1.43.1,4.51,4.51,0,0,1,2.86,2A3.4,3.4,0,0,1,8.45,17.43Zm-.35-6A2.46,2.46,0,0,1,8.08,8a.38.38,0,0,0,.11-.32A.37.37,0,0,0,8,7.36,2.45,2.45,0,0,1,10.28,3a.37.37,0,0,0,.54-.27,2.45,2.45,0,0,1,4.84.83.38.38,0,0,0,.42.43,2.45,2.45,0,0,1,.7,4.85.38.38,0,0,0-.28.53,2.45,2.45,0,0,1-1.08,3.22c-.92.48-2.78-.44-3.6-1.29h0a.38.38,0,0,0-.24-.11h-.08l-.13,0C10.47,11.74,8.87,12.19,8.11,11.44ZM19.8,18.58a5.47,5.47,0,0,1-2.28,1.55,3.51,3.51,0,0,1-3.12-.42,2.54,2.54,0,0,1-.93-1.92,16.47,16.47,0,0,1,5.76-.51.38.38,0,0,0,.37-.36.39.39,0,0,0-.38-.39,17.57,17.57,0,0,0-5.73.47,2,2,0,0,1,.87-1.36c.88-.56,2.39-.58,4.15-.06a9,9,0,0,1,1.1.45,14.17,14.17,0,0,0,2.25.86A12.84,12.84,0,0,0,19.8,18.58Z"/><path class="cls-1" d="M12.59,10.36A3.2,3.2,0,0,0,13,4a3.2,3.2,0,1,0-.46,6.37ZM10.15,6.8a2.46,2.46,0,0,1,2.43-2.1l.36,0A2.45,2.45,0,1,1,10.15,6.8Z"/></svg>