<svg id="Layer_1" data-name="Layer 1" xmlns="http://www.w3.org/2000/svg" viewBox="0 0 26.66 22.67"><defs><style>.cls-1{fill:#414042;}</style></defs><title>iSHOP Dashboard_Elements</title><path class="cls-1" d="M8.57,3.64h.15c.67-.13,1.67-.23,1.7-.23a.33.33,0,0,0,0-.67s-1.06.1-1.8.24a.33.33,0,0,0,0,.67Z"/><path class="cls-1" d="M16.26,3.55c.69,0,1.7.16,1.71.16h.1a.33.33,0,0,0,.33-.33.34.34,0,0,0-.34-.33S17,2.91,16.28,2.89a.33.33,0,1,0,0,.67Z"/><path class="cls-1" d="M12.27,8.62c.69,0,1.71,0,1.73,0h0a.33.33,0,0,0,.32-.32A.34.34,0,0,0,14,8s-1.06,0-1.8,0a.33.33,0,0,0,0,.67Z"/><path class="cls-1" d="M5.48,7l.18,0c.63-.15,1.58-.29,1.69-.3h0a.33.33,0,0,0,.28-.38A.34.34,0,0,0,7.26,6c-.18,0-1.11.16-1.78.32a.33.33,0,0,0,0,.67Z"/><path class="cls-1" d="M18.17,6.36a.33.33,0,0,0,.32.35c.68,0,1.7.19,1.71.19h.12a.33.33,0,0,0,.33-.33.34.34,0,0,0-.34-.33s-1.06-.16-1.78-.2A.34.34,0,0,0,18.17,6.36Z"/><path class="cls-1" d="M26.12,14.3a1.83,1.83,0,0,0,.25-.34,1.86,1.86,0,0,0,.14-1.47,6.11,6.11,0,0,1-.26-1.09L26.1,9.94s0,0,0,0a3.15,3.15,0,0,0,.18-1,3.67,3.67,0,0,0-1.11-2.62h0c0-.09,0-.17,0-.26,0-3.35-5.21-6-11.85-6S1.45,2.62,1.45,6a3.19,3.19,0,0,0,0,.33A3.83,3.83,0,0,0,.36,8.86a3.14,3.14,0,0,0,.17,1L.36,11.4a6.13,6.13,0,0,1-.26,1.09v0a1.83,1.83,0,0,0,.7,2l.09,0A3.37,3.37,0,0,0,.66,17.4c.87,2.31,4.13,3.64,5.49,4.11A20.93,20.93,0,0,0,13,22.67c.54,0,1.65,0,2.35-.07A21.11,21.11,0,0,0,21,21.48c1.36-.47,4.62-1.81,5.49-4.11A3.84,3.84,0,0,0,26.12,14.3Zm-9.57,1.31a8.24,8.24,0,0,1,.88.07h0a3.54,3.54,0,0,1,.51.16,4.11,4.11,0,0,0,1.4.32,2,2,0,0,0,.88-.19,1.73,1.73,0,0,0,1.07-1.05,1,1,0,0,1,.12-.23c.06-.09.1-.15.4,0l.24.09a4.93,4.93,0,0,0,2.38.23,17.87,17.87,0,0,1-7.26,3H17a31.46,31.46,0,0,1-4.85.4c-4.71,0-8.08-1.19-10.08-3.52a8.52,8.52,0,0,0,2.37-.16,2.13,2.13,0,0,1,2.19,1.16c1,1.4,2.38.77,3.23.4a3.24,3.24,0,0,1,.93-.32h.15a1.08,1.08,0,0,1,.11.14,2.16,2.16,0,0,0,1.5,1,3,3,0,0,0,.6.06,3.45,3.45,0,0,0,2.27-.93l.07-.07h0A1.49,1.49,0,0,1,16.56,15.61ZM13.3.67C19.47.67,24.49,3,24.49,6s-5,5.3-11.18,5.3S2.12,8.9,2.12,6,7.14.67,13.3.67ZM1.67,7.12c1,2.78,5.77,4.82,11.64,4.82S24,9.88,25,7.07a3,3,0,0,1,.63,1.79c0,2.41-3.6,4.46-9,5.11l-.06,0a31.24,31.24,0,0,1-3.5.18h0c-6.71,0-12-2.36-12-5.3A3,3,0,0,1,1.67,7.12Zm-.95,5.6v0A6.63,6.63,0,0,0,1,11.47l.06-.57c1.7,2.31,6.24,3.91,11.87,3.93h.3a30.87,30.87,0,0,0,3.37-.18l.07,0c4.3-.52,7.47-1.9,8.82-3.73l.06.56a6.64,6.64,0,0,0,.29,1.22,1.19,1.19,0,0,1-.09.94,1.15,1.15,0,0,1-.83.57l-.56.09a4.25,4.25,0,0,1-2.09-.19L22.08,14a.9.9,0,0,0-1.18.3,1.68,1.68,0,0,0-.19.37c-.09.24-.16.41-.73.69a1.37,1.37,0,0,1-.6.13,3.54,3.54,0,0,1-1.17-.28,3.75,3.75,0,0,0-.65-.2h-.05a7.69,7.69,0,0,0-1-.08,2.14,2.14,0,0,0-1.53.79l-.06.05a2.81,2.81,0,0,1-1.81.75,2.3,2.3,0,0,1-.46,0,1.51,1.51,0,0,1-1.08-.72.8.8,0,0,0-.81-.44,3.48,3.48,0,0,0-1.18.37c-1,.44-1.81.7-2.41-.17C6.12,14,5,13.91,4.28,14.11a9.3,9.3,0,0,1-2.61.1,1.19,1.19,0,0,1-.5-.2,1.16,1.16,0,0,1-.45-1.29Zm25.14,4.4c-.77,2-3.81,3.28-5.08,3.72a20.5,20.5,0,0,1-5.51,1.09C14.59,22,13.49,22,13,22a20.26,20.26,0,0,1-6.6-1.12c-1.27-.44-4.31-1.67-5.08-3.72a2.69,2.69,0,0,1,.09-2.06c2.1,2.64,5.71,4,10.78,4a32.07,32.07,0,0,0,4.93-.4l.16,0h.08l.07,0c3.25-.65,7.26-2.33,8.17-3.93h0A3.18,3.18,0,0,1,25.86,17.13Z"/></svg>