<svg id="Layer_1" data-name="Layer 1" xmlns="http://www.w3.org/2000/svg" viewBox="0 0 27.7 25.3"><defs><style>.cls-1{fill:#414042;}</style></defs><title>iSHOP Dashboard_Elements</title><path class="cls-1" d="M26.41,4.77A10.06,10.06,0,0,0,19.2.24C14.14-.53,10.45.62,7.72,2.77A19,19,0,0,0,2,11.24c-.46,1.24-.87,2.47-1.2,3.65A17.53,17.53,0,0,0,.06,21.2,4.1,4.1,0,0,0,2.6,25l.36.12c2.65.73,3.85-.33,5.65-1.92a20.63,20.63,0,0,1,10.78-5.36c3.69-.77,6.07-2.55,7.3-4.71a7.74,7.74,0,0,0,1-4.18A8.51,8.51,0,0,0,26.41,4.77Zm-.25,8c-1.15,2-3.39,3.69-6.89,4.41A21.17,21.17,0,0,0,8.2,22.68c-1.65,1.46-2.75,2.44-5.08,1.79l-.31-.1A3.53,3.53,0,0,1,.67,21.14a17,17,0,0,1,.77-6.08c.32-1.17.72-2.38,1.18-3.6A18.4,18.4,0,0,1,8.1,3.25C10.7,1.2,14.24.11,19.11.85a9.45,9.45,0,0,1,6.78,4.25,7.9,7.9,0,0,1,1.2,3.82A7.13,7.13,0,0,1,26.15,12.77Z"/><path class="cls-1" d="M15.72,2.28A10.78,10.78,0,0,0,8,6a21.32,21.32,0,0,0-4.07,6.35,17.28,17.28,0,0,0-1.49,6.39,4.57,4.57,0,0,0,1.07,3.35c1.34,1.28,2.77.12,4.85-1.56s5.14-4.16,9.41-4.71a8.63,8.63,0,0,0,6.71-4.59,6.25,6.25,0,0,0,.66-3,5.15,5.15,0,0,0-1-2.85C22.88,3.61,20.18,2.28,15.72,2.28ZM23.95,11a8,8,0,0,1-6.23,4.25c-4.44.58-7.47,3-9.72,4.84-1.83,1.48-3.09,2.5-4,1.59a4,4,0,0,1-.88-2.9,16.66,16.66,0,0,1,1.44-6.15,20.69,20.69,0,0,1,4-6.16A10.19,10.19,0,0,1,15.72,2.9c4.23,0,6.76,1.22,8,2.9a4.54,4.54,0,0,1,.86,2.51A5.64,5.64,0,0,1,23.95,11Z"/><path class="cls-1" d="M18.21,6.82a2.42,2.42,0,0,0-.89-.32h0a2.42,2.42,0,0,0-2.74,2h0A2.41,2.41,0,0,0,15,10.33a2.42,2.42,0,0,0,4.34-1.07h0a2.41,2.41,0,0,0-.45-1.79A2.44,2.44,0,0,0,18.21,6.82Zm.53,2.34h0a1.8,1.8,0,0,1-3.57-.54h0a1.8,1.8,0,0,1,.71-1.18,1.79,1.79,0,0,1,1.33-.33h0a1.8,1.8,0,0,1,1.51,2Z"/><path class="cls-1" d="M17.45,5.65h0A3.28,3.28,0,0,0,13.72,8.4h0a3.28,3.28,0,1,0,3.73-2.76Zm2.14,3.64a2.66,2.66,0,0,1-5.26-.79v0a2.66,2.66,0,0,1,3-2.22h0a2.66,2.66,0,0,1,2.22,3Z"/></svg>