<svg id="Layer_1" data-name="Layer 1" xmlns="http://www.w3.org/2000/svg" viewBox="0 0 500 500"><defs><style>.cls-1{opacity:0.6;}</style></defs><title>Icon</title><g class="cls-1"><path d="M204.68,489.88a14.58,14.58,0,0,1-16.4-14.35L160,225a14.13,14.13,0,0,1-7.74-3A19.59,19.59,0,0,1,146.14,210V177.4a14.12,14.12,0,0,1,13.17-15l.49,0a110.23,110.23,0,0,1,65.37-82.68,75.15,75.15,0,0,0-1.59-11.39c0-4.78-1.82-9.57-2.73-14.35a28,28,0,0,0-25.74-22.78l-75.84-3.87a7.06,7.06,0,0,1-4.78-1.14,32.5,32.5,0,0,1-3.64-3.64l-3.19-3.42,2.28-4.33c2.73-2.5,4.56-4.56,7.52-4.78h11.62l25.05,1.37,41.68,2.05a45.55,45.55,0,0,1,43,38.49l3.64,20.73h2.73c5,0,10-1.59,15-2.05h8.88a110.69,110.69,0,0,1,109.32,91.1,15.94,15.94,0,0,1,13.89,15.49v33.94a14.12,14.12,0,0,1-12.75,14.12h-2S352.95,443,349.76,473c-1.37,11.62-6.15,16.17-17.54,16.4H204.68Zm125.49-17.31c1.82,0,2,0,2.28-2.28,0-8.2,1.59-16.17,2.73-24.37L340,402H197.62l2,18.45c2,16.63,3.87,33.48,5.69,50.11l2,1.82h123ZM342,383.52,354.54,272.6H183.27l12.53,110.92Zm14.58-129.14,3.19-28.7c1.59-13.89,3-16.17,15-17.54V181.73H163.22v27.33H309a10.48,10.48,0,0,1,6.15,8,10.25,10.25,0,0,1-6.15,8.43,11.63,11.63,0,0,1-4.56,0H178l3.19,28.47ZM248.86,110.44c3.19,17.31,6.38,34.39,9.34,51.7l48.51,1.14h53.52a93.15,93.15,0,0,0-91.1-74,84.08,84.08,0,0,0-22.78,3.42Zm-8.43,52.38L228.82,98.6a93.38,93.38,0,0,0-51.25,64.23Z"/><path d="M329.71,144.38a11.16,11.16,0,0,1-7.74-3,38.66,38.66,0,0,1-4.33-5.47l-2.73-3.64a54.43,54.43,0,0,0-24.6-15.94,11.62,11.62,0,0,1-6.6-8.65,7.52,7.52,0,0,1,3.64-6.83l1.37-1.59H291a66.73,66.73,0,0,1,45.55,34.85,9.57,9.57,0,0,1-5,10.25h-1.82Z"/></g></svg>