<svg id="Layer_1" data-name="Layer 1" xmlns="http://www.w3.org/2000/svg" viewBox="0 0 500 500"><defs><style>.cls-1{fill:#414042;}</style></defs><title>Icons</title><path class="cls-1" d="M425.13,397.94q-107.26-.14-214.54-.12l-141.85,0c-10.68,0-18.51-4.37-23.93-13.38-9.09-15.08-19.29-25.16-32.09-31.71-6.1-3.12-9.2-9.31-12.73-16.51V162.4c3.6-7.86,9.61-14.12,19.93-20.8,10-6.45,17.52-16.09,22.1-23,7.6-11.56,16.33-16.5,29.18-16.5,51,.08,103.68.13,161.48.13s120.69,0,192-.13a36.44,36.44,0,0,1,21.47,6.48c7.09,4.83,14.29,9.48,21.47,14.1l9.75,6.31,3.22.48.63-.13a7,7,0,0,0,4.52-2.52c2.64-3.56,5-5.35,7.12-5.35a6.63,6.63,0,0,1,2.06.38c2.75.9,5,2.24,5,9.61V345l-.08,13.22c0,2.87,0,5.72.13,8.56l0,1.25c0,5.87-1.63,7.65-4.64,8.87a6.3,6.3,0,0,1-2.37.57c-.74,0-3,0-8.09-5.72l-.89-1-5.43-.74-10.38,6.62c-7.62,4.85-15.28,9.72-22.83,14.75-6.75,4.49-13.16,6.59-20.17,6.59Zm-360-277.06V379.24l4,4.25,3.22.23c1.28.09,2.31.16,3.34.16H201q112.24,0,224.44-.06a17.51,17.51,0,0,0,9.24-2.46c15.24-9.6,30.37-19.35,45.49-29.14,1.36-.88,5.5-3.56,5.65-7.95s.16-8.67.16-13.16l0-15.25-7.65-3.65-11.68,9.41c-7.5,6-14.56,11.63-21.49,17.65-5.94,5.15-12.7,7.55-21.3,7.55-14.45-.06-28.73-.07-43-.07l-57.38,0a27,27,0,0,1-4.41-.26,6.68,6.68,0,0,1-5.74-6.18c0-3.46,1.64-5.94,4.12-6.8a20.76,20.76,0,0,1,6.34-.79l35,0c21.52,0,43,0,64.56-.16A21.78,21.78,0,0,0,436,328.2c7.75-6.1,15.4-12.32,23-18.53l1.26-1c6.52-5.31,13-10.61,19.62-15.84,4.18-3.34,6.13-7.5,6.13-13.1q-.08-29.76-.1-59.36,0-30.34.13-60.68c0-5.83-2.23-9.84-7.24-13-2.77-1.75-5.55-3.46-8.35-5.18-9.42-5.79-18.57-11.42-26.7-17.85-8.42-6.66-17.23-7.55-24.73-7.55-2.06,0-4.12.07-6.16.15s-3.91.14-5.89.14c-1.11,0-2.22,0-3.34-.08l-1.55-.08-4.54,4.31v95.12q0,22.87,0,45.74c0,2-.4,4.78-2.28,6.58a8.89,8.89,0,0,1-6.27,2c-3.76-.14-6.83-.26-9.91-.26H138.56c-9.57,0-11.14-1.55-11.14-11l0-137.78-4.29-4.29H69.38Zm-23.9,23.19c-1.93,1.31-3.81,2.66-5.67,4a123.37,123.37,0,0,1-13.29,8.7c-6,3.22-8.71,7.72-8.71,14.59.11,7.53.13,14.62.13,21.71L13.57,265q0,31.39.13,62.79c0,3.87,1.38,9.41,5.19,12.25,5.19,3.89,10.48,7.26,16.08,10.82,2.24,1.41,8.12,5.21,8.12,5.21l7.13-3.89V146.69L43,142.86Zm101-22.94v130l4.29,4.29h232.5l4.29-4.29v-130l-4.29-4.29H146.45Z"/></svg>