<svg id="Layer_1" data-name="Layer 1" xmlns="http://www.w3.org/2000/svg" viewBox="0 0 500 500"><defs><style>.cls-1{fill:#414042;}.cls-2{fill:#444243;}.cls-3{fill:#434243;}.cls-4{fill:#454244;}</style></defs><title>Icons</title><path class="cls-1" d="M472.21,84.58V16.85A8.17,8.17,0,0,0,459,10.45l-44.7,24.31-44.7-24.31a8.24,8.24,0,0,0-10.17,0l-44.7,24.31L270,10.45a8.24,8.24,0,0,0-10.17,0l-44.7,24.31-44.7-24.31a8.24,8.24,0,0,0-10.17,0L115.5,34.76,70.8,10.45a8.17,8.17,0,0,0-13.26,6.4V80.9a9.26,9.26,0,0,0-1,1.79c-72,122.49-59,236.41-47.51,337,2.4,21.13,4.79,41.92,6.36,62.41a8.17,8.17,0,0,0,7.92,7.53L72.1,491a7.94,7.94,0,0,0,2.15.3H472.55a8.16,8.16,0,0,0,8.13-7.4c2.11-22.3,4.68-44.6,7.28-66.92C500.25,311.08,513,201.59,472.21,84.58ZM68.1,474.57l-37-1c-1.57-18.3-3.68-36.85-5.83-55.66-11.3-99-23-201.15,37.83-313.58C100.74,247.4,91.06,387,68.1,474.57ZM471.72,415.1c-2.32,20-4.64,39.92-6.6,59.87H84.86C108,383.84,117.06,240.25,77.25,94h311.9a8.17,8.17,0,1,0,0-16.34H73.89V33.77l36.53,17.82a8.24,8.24,0,0,0,10.17,0l44.7-24.31L210,51.59a8.24,8.24,0,0,0,10.17,0l44.7-24.31,44.72,24.31a8.24,8.24,0,0,0,10.17,0l44.7-24.31,44.7,24.31a8.24,8.24,0,0,0,10.17,0l36.53-17.82V86a7.85,7.85,0,0,0,.47,2.7C496.4,202.63,483.85,310.65,471.72,415.1Z"/><path class="cls-2" d="M400.89,306.56a5.31,5.31,0,0,1-5.23-4.42l0-.21a5.25,5.25,0,0,1-3.63,2.39,5.31,5.31,0,0,1-6.08-4.39l-10.47-65,19.12-3.19,11.56,68.65a5.32,5.32,0,0,1-4.35,6.12A6.52,6.52,0,0,1,400.89,306.56Z"/><path class="cls-2" d="M404.15,310.77a5.31,5.31,0,0,1-5.18-6.46l-1.69,1a5.3,5.3,0,1,1-5.33-9.17l64.47-37.4,9.72,16.8-59.34,34.54A5.33,5.33,0,0,1,404.15,310.77Z"/><path class="cls-2" d="M404.13,309.54A5.33,5.33,0,0,1,399,305.6a5.21,5.21,0,0,1-4.93.8,5.29,5.29,0,0,1-3.3-6.73l22.47-65.77,18.36,6.28-22.46,65.76A5.28,5.28,0,0,1,404.13,309.54Z"/><path class="cls-3" d="M373.82,301c6.3,0,13.71,4.23,19.12,7.31l2.69,1.51c22,11,19.83,21.75,19.85,21.77l-.54,1.63v.57c-13.6,30.12-63.4,74.65-92.34,98.87,8.68-39.59,28.42-97.65,37.23-118.2,5.59-13.47,11.69-13.47,14-13.47m0-10.61c-8.69,0-17.43,4.7-23.79,20-11.33,26.43-40.28,113.28-42.16,147.89,0,0,96.92-74.89,117.05-120.83a6.28,6.28,0,0,0,.63-2.52s6.29-18.88-25.17-34.61c-6.13-3.4-16.31-9.94-26.56-9.94Z"/><polygon class="cls-4" points="355.86 313.63 366.36 316.39 370.23 313.63 376.3 316.94 380.17 319.7 385.14 319.15 393.98 323.02 397.85 329.1 355.86 313.63"/><polygon class="cls-4" points="359.18 365 366.91 366.66 369.67 365 374.09 367.21 376.86 369.42 380.72 368.87 387.35 372.19 390.12 376.05 359.18 365"/><polygon class="cls-4" points="347.57 341.8 353.65 342.35 355.86 340.7 359.73 342.91 361.94 344.56 364.7 344.01 370.23 346.77 372.44 350.09 347.57 341.8"/><polygon class="cls-4" points="376.86 341.25 384.59 342.91 387.35 341.25 391.77 343.46 394.53 345.67 398.4 345.67 405.03 348.43 407.79 352.85 376.86 341.25"/><polygon class="cls-4" points="333.21 373.29 339.29 374.95 342.05 373.29 345.37 375.5 347.57 377.16 350.89 376.61 355.86 378.82 358.07 382.13 333.21 373.29"/><polygon class="cls-4" points="324.37 408.1 327.69 409.2 329.34 408.1 331.55 409.2 332.66 410.31 334.87 410.31 337.63 411.41 339.29 413.62 324.37 408.1"/><polygon class="cls-4" points="337.08 392.07 343.15 393.73 345.37 392.07 349.23 394.29 351.44 395.94 354.76 395.39 359.73 397.6 361.94 401.47 337.08 392.07"/><path class="cls-3" d="M232.61,463.12c-51.5,0-93.41-33.44-93.41-74.53,0-22.71,12.69-43.88,34.82-58.09a5.3,5.3,0,1,1,5.73,8.92c-19,12.22-29.94,30.15-29.94,49.17,0,35.25,37.14,63.92,82.8,63.92s82.79-28.67,82.79-63.92c0-20.7-13.12-40.22-35.1-52.22a5.3,5.3,0,0,1,5.08-9.31C310.83,340.95,326,363.95,326,388.59,326,429.68,284.12,463.12,232.61,463.12Z"/><path class="cls-2" d="M200.29,390.09l-2.56-34.47c-.11-1.48-.65-11.31,3.43-19.17-7-1.24-13.2-1.52-14.92-.59l-32.18,18.4,25.65-26.63c.72-.75,16.85-17.13,39.27-14.41l8.66-43.3,7,12.18a135.26,135.26,0,0,1,12.82,32.06c8.07.44,25.5,2.65,37.13,13.23l9.24,8.4-30.5,2a33.4,33.4,0,0,1,6,20.18l-.59,14.28L259.92,361c-3.77-4.75-16.71-17.72-25.77-16.31-11.45,2.1-24.94,7.43-26,11.73Zm1.81-64.28c4.48.75,8.38,1.71,10.46,2.27l13,3.45-11.89,6.35a7.61,7.61,0,0,0-3,3.23c8.52-4.24,18.58-6.28,21.59-6.84,6-1,12.17.88,17.56,3.94-.55-.5-.91-.77-.93-.79l-11.22-8.58,24.38-1.62a72.35,72.35,0,0,0-18.63-2.57l-4.42.1-.91-4.32a131.34,131.34,0,0,0-5.94-19l-4.89,24.46-5.4-1.34A33,33,0,0,0,202.1,325.81Z"/><path class="cls-2" d="M180.38,429.49a4.81,4.81,0,0,1-3.15-1.26c-22.66-28.95-17-51.6-7.55-64.82a4.11,4.11,0,0,1,5-1.26c1.89,1.26,2.52,3.15,1.26,5-8.18,12-13.22,31.47,7.55,57.9,1.26,1.26.63,3.78-1.26,5C181.63,428.86,181,429.49,180.38,429.49Z"/><ellipse class="cls-2" cx="180.38" cy="353.97" rx="6.92" ry="6.29"/><path class="cls-3" d="M232.61,321.87c-6.6,0-12,2.54-12,5.66s5.35,5.66,12,5.66,12-2.54,12-5.66-5.35-5.66-12-5.66Z"/><path class="cls-3" d="M352.56,232.34,334.83,222.1,350.2,213a6,6,0,1,0-6.05-10.26L323,215.25l-31.92-18.43L323,178.4l21.18,12.48a6,6,0,0,0,6.05-10.27l-15.37-9.06,17.74-10.24a6,6,0,0,0-6-10.32l-17.73,10.24-.16-17.84a6,6,0,0,0-11.92.11l.22,24.58L285.1,186.51V149.65l21.4-12.09a6,6,0,1,0-5.86-10.37L285.1,136V115.48a6,6,0,1,0-11.92,0V136l-15.54-8.78a6,6,0,0,0-5.86,10.37l21.4,12.09v36.85l-31.92-18.43.22-24.58a6,6,0,0,0-5.9-6h-.05a6,6,0,0,0-6,5.9l-.16,17.84L211.68,151a6,6,0,1,0-6,10.32l17.74,10.24-15.37,9.06a6,6,0,1,0,6.05,10.27l21.18-12.48,31.91,18.43-31.92,18.43-21.17-12.49A6,6,0,1,0,208.08,213l15.37,9.06-17.73,10.24a6,6,0,1,0,6,10.32l17.73-10.24.16,17.84a6,6,0,0,0,6,5.9h.05a6,6,0,0,0,5.9-6l-.22-24.58,31.92-18.43V244l-21.4,12.09a6,6,0,1,0,5.86,10.37l15.54-8.78v20.48a6,6,0,1,0,11.92,0V257.69l15.54,8.78a6,6,0,1,0,5.86-10.37L285.1,244V207.14L317,225.57l-.23,24.58a6,6,0,0,0,5.9,6h.06a6,6,0,0,0,6-5.9l.17-17.85,17.74,10.24a6,6,0,1,0,6-10.32Z"/></svg>