<svg id="Layer_1" data-name="Layer 1" xmlns="http://www.w3.org/2000/svg" viewBox="0 0 23.22 23.48"><defs><style>.cls-1{fill:#414042;}</style></defs><title>iSHOP Dashboard_Elements</title><path class="cls-1" d="M22.41,14.72l-2.63-2.2A2.25,2.25,0,1,0,16.89,16l2.63,2.2A2.23,2.23,0,0,0,21,18.7h.21a2.25,2.25,0,0,0,1.24-4Zm-5.23-1.43a1.51,1.51,0,0,1,2.12-.19l1,.86L18.4,16.26l-1-.86A1.5,1.5,0,0,1,17.18,13.29Zm4.94,4.12a1.49,1.49,0,0,1-1,.53A1.51,1.51,0,0,1,20,17.6l-1-.86,1.92-2.31,1,.86a1.51,1.51,0,0,1,.19,2.12Z"/><path class="cls-1" d="M17.15,19H14.41V10.23c0-1-.77-1.49-1.46-1.95s-1.28-.86-1.28-1.63v-.5a.36.36,0,0,0,0-.06,1.36,1.36,0,0,0,1-1.31V1.35A1.36,1.36,0,0,0,11.33,0H3.08A1.36,1.36,0,0,0,1.72,1.35V4.78a1.36,1.36,0,0,0,1,1.31.36.36,0,0,0,0,.06v.5c0,.78-.59,1.17-1.28,1.63S0,9.26,0,10.23v10A1.78,1.78,0,0,0,1.8,22h9.8a2.25,2.25,0,0,0,2.12,1.52h3.43a2.25,2.25,0,1,0,0-4.5ZM2.47,4.78V1.35a.61.61,0,0,1,.6-.6h8.25a.61.61,0,0,1,.6.6V4.78a.61.61,0,0,1-.6.6H3.08A.61.61,0,0,1,2.47,4.78ZM.75,11.93H8.44V18H.75Zm0,8.27V18.79H8.82a.38.38,0,0,0,.38-.37V11.55a.38.38,0,0,0-.37-.37H.75v-.95c0-.55.43-.86,1.12-1.32A2.77,2.77,0,0,0,3.49,6.66v-.5h7.43v.5a2.77,2.77,0,0,0,1.62,2.26c.7.47,1.12.79,1.12,1.32V19h0a2.25,2.25,0,0,0-2.2,2.23H1.8A1,1,0,0,1,.75,20.2Zm11.47,1a1.5,1.5,0,0,1,1.5-1.5h1.34v3H13.72A1.5,1.5,0,0,1,12.22,21.22Zm4.93,1.5H15.81v-3h1.34a1.5,1.5,0,1,1,0,3Z"/></svg>