<svg id="Layer_1" data-name="Layer 1" xmlns="http://www.w3.org/2000/svg" viewBox="0 0 10.96 25.08"><defs><style>.cls-1{fill:#414042;}</style></defs><title>iSHOP Dashboard_Elements</title><path class="cls-1" d="M5.48,0C2.41,0,0,1.25,0,2.86v20l.08.1c.07.09,1.66,2.16,5.4,2.16s5.32-1.77,5.39-1.85l.09-.11V2.86C11,1.25,8.55,0,5.48,0Zm0,.75c2.79,0,4.73,1.11,4.73,2.11S8.27,5,5.48,5,.75,3.85.75,2.86,2.69.75,5.48.75Zm3.07,23H8.1V24a8.81,8.81,0,0,1-2.62.37A6.19,6.19,0,0,1,.75,22.56V4.3A7.27,7.27,0,0,0,5.48,5.71,7.27,7.27,0,0,0,10.21,4.3V22.83A5.38,5.38,0,0,1,8.55,23.79Z"/><path class="cls-1" d="M5.48,4.08c1.21,0,2.12-.53,2.12-1.22S6.69,1.63,5.48,1.63s-2.12.53-2.12,1.22S4.27,4.08,5.48,4.08Zm0-1.7c.89,0,1.37.34,1.37.47s-.52.47-1.37.47S4.11,3,4.11,2.86,4.59,2.38,5.48,2.38Z"/><rect class="cls-1" x="8.1" y="19.88" width="0.5" height="0.98"/><rect class="cls-1" x="8.1" y="21.84" width="0.5" height="0.98"/><rect class="cls-1" x="8.1" y="17.93" width="0.5" height="0.98"/><rect class="cls-1" x="8.1" y="8.15" width="0.5" height="0.98"/><rect class="cls-1" x="8.1" y="10.1" width="0.5" height="0.98"/><rect class="cls-1" x="8.1" y="15.97" width="0.5" height="0.98"/><rect class="cls-1" x="8.1" y="6.19" width="0.5" height="0.98"/><rect class="cls-1" x="8.1" y="12.06" width="0.5" height="0.98"/><rect class="cls-1" x="8.1" y="14.01" width="0.5" height="0.98"/></svg>