<svg id="Layer_1" data-name="Layer 1" xmlns="http://www.w3.org/2000/svg" viewBox="0 0 24.88 23.83"><defs><style>.cls-1{fill:#414042;}</style></defs><title>iSHOP Dashboard_Elements</title><path class="cls-1" d="M24.88,8.77a2.46,2.46,0,0,0-.58-1.57,2.45,2.45,0,0,0,.58-1.57,2.46,2.46,0,0,0-4-1.9,2.4,2.4,0,0,0-3.55.47H7.59a2.48,2.48,0,0,0-2-1A2.46,2.46,0,0,0,4,3.72,2.46,2.46,0,0,0,.58,7.19,2.44,2.44,0,0,0,1,10.78V16.2a2.44,2.44,0,0,0-.47,3.58A2.46,2.46,0,0,0,4,23.26a2.46,2.46,0,0,0,1.57.58,2.48,2.48,0,0,0,2-1h9.69a2.48,2.48,0,0,0,2,1,2.45,2.45,0,0,0,1.57-.58,2.46,2.46,0,0,0,3.47-3.47,2.44,2.44,0,0,0-.47-3.58V10.78A2.43,2.43,0,0,0,24.88,8.77Zm-1.61,8a1.7,1.7,0,0,1,.27,2.77.38.38,0,0,0,0,.57,1.72,1.72,0,1,1-2.42,2.42.38.38,0,0,0-.56,0,1.72,1.72,0,0,1-1.29.6,1.75,1.75,0,0,1-1.45-.87.38.38,0,0,0-.32-.18H7.39a.38.38,0,0,0-.32.18,1.75,1.75,0,0,1-1.45.87,1.72,1.72,0,0,1-1.29-.6.39.39,0,0,0-.56,0,1.72,1.72,0,1,1-2.42-2.42.38.38,0,0,0,0-.57,1.7,1.7,0,0,1,.27-2.77.38.38,0,0,0,.19-.32V10.57a.37.37,0,0,0-.19-.32,1.7,1.7,0,0,1-.27-2.77.38.38,0,0,0,0-.57A1.72,1.72,0,1,1,3.76,4.49a.39.39,0,0,0,.56,0,1.72,1.72,0,0,1,1.29-.6,1.74,1.74,0,0,1,1.45.87.38.38,0,0,0,.32.18H17.49a.38.38,0,0,0,.32-.18,1.74,1.74,0,0,1,1.45-.87,1.72,1.72,0,0,1,1.29.6.39.39,0,0,0,.56,0,1.72,1.72,0,1,1,2.42,2.42.38.38,0,0,0,0,.57,1.7,1.7,0,0,1-.27,2.77.37.37,0,0,0-.19.32v5.84A.37.37,0,0,0,23.27,16.73Z"/><path class="cls-1" d="M21.36,6.3H3.52a.38.38,0,0,0-.37.38V20.31a.38.38,0,0,0,.38.38H21.36a.38.38,0,0,0,.38-.37V6.67A.38.38,0,0,0,21.36,6.3ZM21,7V18.41l-5.14-4.68a.38.38,0,0,0-.52,0l-1.57,1.57-3.67-3.67a.44.44,0,0,0-.27-.11.37.37,0,0,0-.27.12L3.9,17.78V7Zm0,12.89H3.9V18.88l5.93-6.42L15.32,18l.53-.53-1.57-1.57,1.32-1.32L21,19.43Z"/><path class="cls-1" d="M13,.91l2.36,2.36.53-.53L13.23.11a.38.38,0,0,0-.53,0L10.08,2.73l.53.53Z"/><path class="cls-1" d="M17.69,12.29a1.95,1.95,0,1,0-1.95-1.95A2,2,0,0,0,17.69,12.29Zm0-3.15a1.2,1.2,0,1,1-1.2,1.2A1.2,1.2,0,0,1,17.69,9.14Z"/></svg>