<svg id="Layer_1" data-name="Layer 1" xmlns="http://www.w3.org/2000/svg" viewBox="0 0 35.8 12.12"><defs><style>.cls-1{fill:#414042;}</style></defs><title>iSHOP Dashboard_Elements</title><path class="cls-1" d="M7.05,6.21a.7.7,0,0,1-.32-.93.5.5,0,0,0-.9-.44,1.7,1.7,0,1,0,3,1.5,49.93,49.93,0,0,1,2.58-4.58.89.89,0,0,1,.63-.4c1-.13,2-.22,3-.28A.5.5,0,0,0,15.6.54a.5.5,0,0,0-.53-.47C14,.13,12.93.23,12,.36a1.89,1.89,0,0,0-1.34.86A51,51,0,0,0,8,5.9.71.71,0,0,1,7.05,6.21Z"/><path class="cls-1" d="M13.37,6.21a.7.7,0,0,1-.32-.93.5.5,0,1,0-.9-.44,1.7,1.7,0,1,0,3,1.5A49.38,49.38,0,0,1,18,1.41.87.87,0,0,1,18.77,1c.89,0,1.77.05,2.6.11A.51.51,0,0,0,21.9.65a.5.5,0,0,0-.46-.53C20.59.05,19.69,0,18.78,0a1.91,1.91,0,0,0-1.62.87,50.43,50.43,0,0,0-2.85,5A.71.71,0,0,1,13.37,6.21Z"/><path class="cls-1" d="M19.7,6.21a.7.7,0,0,1-.32-.93.5.5,0,0,0-.9-.44,1.7,1.7,0,1,0,3,1.5A50,50,0,0,1,24,1.94a.88.88,0,0,1,.9-.41c.76.13,1.49.29,2.16.47a.5.5,0,1,0,.26-1C26.6.85,25.85.69,25.06.55a1.87,1.87,0,0,0-1.92.86A51,51,0,0,0,20.63,5.9.71.71,0,0,1,19.7,6.21Z"/><path class="cls-1" d="M35.66,7.52c-.54-1.7-2-4.06-6-5.68l-.4-.16L29.07,2C28.33,3.27,27.61,4.56,27,5.9a.71.71,0,0,1-.93.32.7.7,0,0,1-.32-.93.5.5,0,0,0-.9-.44,1.7,1.7,0,0,0,.77,2.27,1.73,1.73,0,0,0,2.27-.77c.58-1.17,1.2-2.32,1.86-3.41,3.3,1.46,4.54,3.45,5,4.89a2.16,2.16,0,0,1-1.13,2.58,7.67,7.67,0,0,1-3.32.73H5.55a7.62,7.62,0,0,1-3.37-.75A2.14,2.14,0,0,1,1.1,7.82C1.67,6,3.37,3.58,8.26,2.14a.5.5,0,0,0-.28-1C2.67,2.74.79,5.49.14,7.52a3.16,3.16,0,0,0,1.65,3.78,8.56,8.56,0,0,0,3.76.83H30.26a8.72,8.72,0,0,0,3.81-.86A3.15,3.15,0,0,0,35.66,7.52Z"/></svg>