<svg id="Layer_1" data-name="Layer 1" xmlns="http://www.w3.org/2000/svg" viewBox="0 0 21.58 25.32"><defs><style>.cls-1{fill:none;}.cls-2{fill:#414042;}</style></defs><title>iSHOP Dashboard_Elements</title><path class="cls-1" d="M10,.71H8.51a2.47,2.47,0,0,1,1.55.55Z"/><path class="cls-1" d="M9.2,11l.12-.23H7.46a5,5,0,0,0,.71,2.37,8.13,8.13,0,0,1,.38-.89C8.78,11.8,9,11.38,9.2,11Z"/><path class="cls-1" d="M10.29,3.19a1.77,1.77,0,1,0-3.55,0H6a.71.71,0,0,0-1.42,0H3.9a1.42,1.42,0,0,0-2.84,0H1L.92,3.9h6.4l.15-.36.09-.21h2.79l0-.13Z"/><path class="cls-1" d="M4.35,2.17a1.4,1.4,0,0,1,1.92,0A2.48,2.48,0,0,1,8.51.71H1.37l-.11.75a2.12,2.12,0,0,1,3.09.71Z"/><path class="cls-1" d="M2.1,21.07a.26.26,0,0,0,0,.2H9.28a.25.25,0,0,0,0-.2s-.09-.21-.21-.5H2.3C2.19,20.86,2.11,21,2.1,21.07Z"/><path class="cls-1" d="M.71,6a9,9,0,0,0,1.44,5c.2.38.42.79.65,1.25a6.33,6.33,0,0,1,.75,3,14.9,14.9,0,0,1-1,4.61h6.2A16.7,16.7,0,0,1,7.84,16a6.33,6.33,0,0,1-2.52-5.23C5.32,9.18,6.4,6.21,7,4.61H.83C.76,5.23.71,5.76.71,6ZM4.26,19.15H3.55v-.71h.71ZM5,17.38H4.26v-.71H5Zm0-5.68H4.26V11H5ZM3.55,9.58h.71v.71H3.55ZM2.13,6.74h.71v.71H2.13Z"/><path class="cls-1" d="M9.18,12.57a6.66,6.66,0,0,0-.49,1.26,5.43,5.43,0,0,0,4.07,1.55c3.1,0,5.15-1.8,5.31-4.61h-8l-.29.56C9.63,11.71,9.41,12.12,9.18,12.57Z"/><path class="cls-1" d="M6.74,10.42v-.35H9.69a8,8,0,0,0,1-4c0-.14,0-.33,0-.58H9.22V4.74h1.31l0-.13H7.8C7.21,6.08,6,9.22,6,10.77a5.67,5.67,0,0,0,1.78,4.29,6.09,6.09,0,0,1,.11-1A5.67,5.67,0,0,1,6.74,10.42Z"/><path class="cls-1" d="M8.1,24.61h9.34l-4.31-1.52V16.84l.32,0c3.74-.34,6.06-2.65,6.06-6C19.51,9,17.9,5,17.5,4H11.16c0,.25.06.48.08.71h1.17v.71H11.32c0,.24,0,.44,0,.58a8.58,8.58,0,0,1-.88,4H18.8v.35c0,3.45-2.37,5.68-6,5.68a6.33,6.33,0,0,1-4.23-1.41c0,.18,0,.37,0,.57s0,.26,0,.39a7.64,7.64,0,0,0,3.56,1.17l.32,0v6.25ZM14.54,5.45H13.12V4.74h1.42Z"/><path class="cls-2" d="M2.3,20.57H9c-.08-.19-.17-.43-.27-.71H2.57C2.47,20.14,2.38,20.38,2.3,20.57Z"/><path class="cls-2" d="M8.78,19.86c.1.28.19.52.27.71s.2.47.21.5a.25.25,0,0,1,0,.2H2.07a.26.26,0,0,1,0-.2s.09-.21.21-.5.17-.43.27-.71a14.9,14.9,0,0,0,1-4.61,6.33,6.33,0,0,0-.75-3c-.23-.46-.45-.87-.65-1.25A9,9,0,0,1,.71,6c0-.27,0-.8.12-1.42H7l.29-.71H.92L1,3.19h.05a1.42,1.42,0,0,1,2.84,0h.71A.71.71,0,0,1,6,3.19h.71a1.77,1.77,0,1,1,3.55,0h.05l0,.13h.72c-.19-1.45-.42-2.92-.43-3l0-.3H.76l0,.3C.68.49,0,5,0,6a9.68,9.68,0,0,0,1.53,5.31c.2.37.41.78.64,1.24a5.66,5.66,0,0,1,.67,2.68,17,17,0,0,1-1.39,5.53.92.92,0,0,0,0,.88.76.76,0,0,0,.66.33H9.22a.76.76,0,0,0,.66-.34.91.91,0,0,0,0-.87A19.82,19.82,0,0,1,8.62,16.5,6.84,6.84,0,0,1,7.84,16,16.7,16.7,0,0,0,8.78,19.86ZM1.37.71H10l.08.55a2.48,2.48,0,0,0-3.8.89,1.4,1.4,0,0,0-1.92,0,2.12,2.12,0,0,0-3.09-.71Z"/><rect class="cls-2" x="2.13" y="6.74" width="0.71" height="0.71"/><rect class="cls-2" x="3.55" y="9.58" width="0.71" height="0.71"/><rect class="cls-2" x="4.26" y="11" width="0.71" height="0.71"/><rect class="cls-2" x="3.55" y="18.44" width="0.71" height="0.71"/><rect class="cls-2" x="4.26" y="16.67" width="0.71" height="0.71"/><path class="cls-2" d="M6.74,10.06v.35A5.67,5.67,0,0,0,7.92,14a4.94,4.94,0,0,0,.62.64,6.33,6.33,0,0,0,4.23,1.41c3.66,0,6-2.23,6-5.68v-.35H6.74Zm11.34.71c-.16,2.81-2.21,4.61-5.31,4.61A5.43,5.43,0,0,1,8.7,13.83a4.32,4.32,0,0,1-.53-.69,5,5,0,0,1-.71-2.37H18.08Z"/><polygon class="cls-2" points="9.22 4.74 9.22 5.45 10.61 5.45 11.32 5.45 12.41 5.45 12.41 4.74 11.25 4.74 10.53 4.74 9.22 4.74"/><rect class="cls-2" x="13.12" y="4.74" width="1.42" height="0.71"/><path class="cls-2" d="M4,25.32H21.58l-7.75-2.73V17.48c3.89-.48,6.38-3.08,6.38-6.7,0-2.21-2.07-7-2.16-7.23L18,3.33H7.57l-.09.21-.15.36L7,4.61C6.4,6.21,5.32,9.18,5.32,10.77A6.33,6.33,0,0,0,7.84,16a6.84,6.84,0,0,0,.78.51,8.4,8.4,0,0,0,3.08,1v5.11Zm8.13-8.51a7.64,7.64,0,0,1-3.56-1.17A5.64,5.64,0,0,1,6,10.77C6,9.22,7.21,6.08,7.8,4.61L8,4H17.5c.4,1,2,4.93,2,6.74,0,3.38-2.32,5.69-6.06,6l-.32,0v6.25l4.31,1.52H8.1l4.31-1.52V16.84Z"/></svg>