<svg id="Layer_1" data-name="Layer 1" xmlns="http://www.w3.org/2000/svg" viewBox="0 0 18.05 26.32"><defs><style>.cls-1{fill:#414042;stroke:#414042;stroke-miterlimit:10;stroke-width:0.25px;}</style></defs><title>iSHOP Dashboard_Elements</title><path class="cls-1" d="M14.48,13.52a1.72,1.72,0,1,0-1.12,0C11,16.17,9.09,20.38,10.3,23.74a3.77,3.77,0,0,0,3.63,2.45h0a3.77,3.77,0,0,0,3.63-2.45C18.76,20.38,16.85,16.17,14.48,13.52Zm-1.54-1.62a1,1,0,1,1,1,1A1,1,0,0,1,12.94,11.91Zm3.92,11.59a3,3,0,0,1-2.93,2,3,3,0,0,1-2.93-2c-1.11-3.09.7-7,2.93-9.5C16.22,16.56,17.92,20.54,16.86,23.49Z"/><path class="cls-1" d="M7.76,23.74c1.21-3.37-.7-7.57-3.07-10.22a1.72,1.72,0,1,0-1.12,0C1.2,16.17-.71,20.38.5,23.74A3.77,3.77,0,0,0,4.13,26.2h0A3.77,3.77,0,0,0,7.76,23.74ZM3.14,11.91a1,1,0,1,1,1,1A1,1,0,0,1,3.14,11.91Zm1,13.55a3,3,0,0,1-2.93-2c-1.11-3.09.7-7,2.93-9.5,2.29,2.56,4,6.54,2.93,9.5A3,3,0,0,1,4.13,25.46Z"/><path class="cls-1" d="M15.93,3.33s-.31-.12-.31-.38c0,0,0-.1,0-.17A3.17,3.17,0,0,0,15.11.53a1.34,1.34,0,0,0-1-.41,1.61,1.61,0,0,0-1.49.77A2.18,2.18,0,0,0,12.74,3c.09.14.51.68.85,1.11a.34.34,0,0,1,.07.21v.63a1.46,1.46,0,0,0-1.16.95,3.85,3.85,0,0,0,.93,3.46.64.64,0,0,0,1,0,3.78,3.78,0,0,0,.93-3.46A1.45,1.45,0,0,0,14.4,5V4.3a1.08,1.08,0,0,0-.23-.67c-.49-.62-.76-1-.8-1a1.46,1.46,0,0,1-.12-1.34A.89.89,0,0,1,14.1.86a.62.62,0,0,1,.48.18c.37.38.33,1.31.31,1.7,0,.08,0,.15,0,.2A1.19,1.19,0,0,0,15.67,4a.37.37,0,0,0,.26-.69Zm-1.28,2.8a3,3,0,0,1-.73,2.64,3.07,3.07,0,0,1-.73-2.64.79.79,0,0,1,1.45,0Z"/><path class="cls-1" d="M2.41,4A1.19,1.19,0,0,0,3.2,2.95c0-.05,0-.12,0-.2,0-.39-.06-1.32.31-1.7A.62.62,0,0,1,4,.86a.89.89,0,0,1,.85.39,1.46,1.46,0,0,1-.12,1.34,7.18,7.18,0,0,1-.76,1,1.08,1.08,0,0,0-.27.72V5a1.45,1.45,0,0,0-1,.91,3.85,3.85,0,0,0,.93,3.46.64.64,0,0,0,1,0,3.78,3.78,0,0,0,.93-3.46,1.46,1.46,0,0,0-1.13-.94v-.6a.34.34,0,0,1,.09-.23A8,8,0,0,0,5.34,3,2.18,2.18,0,0,0,5.48.89,1.61,1.61,0,0,0,4,.13,1.34,1.34,0,0,0,3,.53a3.17,3.17,0,0,0-.51,2.24c0,.07,0,.13,0,.17,0,.25-.3.38-.32.38A.37.37,0,0,0,2.41,4Zm2.44,2.1a3,3,0,0,1-.73,2.64A3.07,3.07,0,0,1,3.4,6.12a.75.75,0,0,1,.73-.48A.75.75,0,0,1,4.85,6.12Z"/><path class="cls-1" d="M14.7,23.59a.37.37,0,0,0,.6.43c1.45-2,.67-5.05-.66-7a.37.37,0,0,0-.61.41C15.22,19.17,15.94,21.87,14.7,23.59Z"/></svg>