<svg id="Layer_1" data-name="Layer 1" xmlns="http://www.w3.org/2000/svg" viewBox="0 0 500 500"><title>Icon</title><path d="M112.5,329.43a105.46,105.46,0,0,1-9.3-11.44,90.64,90.64,0,0,1-7.87-12.87l-2.15-4.05v-1.91h0l-2.86-6.91c0-2.38-1.43-4.77-2.38-7.39s0-5-1.67-7.39-1.43-10.25-1.67-15.26a232.11,232.11,0,0,1,0-28.84c1.91-17.4,4.05-30,4.05-30a81.28,81.28,0,0,0-18.36,26,91.6,91.6,0,0,0-5.72,14.78l-2.38,8.34-1.43,9.06V281a95.3,95.3,0,0,0,4.77,20c1.19,3.1,2.86,6.44,4.29,9.54h0L71,312.51l2.38,3.81A122.5,122.5,0,0,0,86,331.58a87.76,87.76,0,0,0,14.3,11.2,74.09,74.09,0,0,0,14.54,7.15A63.88,63.88,0,0,0,138.72,354a42.15,42.15,0,0,0,8.82,0,108.48,108.48,0,0,1-25.27-15.5,126.44,126.44,0,0,1-9.77-9.06Z"/><path d="M143.49,409A133.73,133.73,0,0,1,10,275.55c0-75.57,77-205,129-255.3L148.5,10V24.06c3.34,46.25,36.47,91.78,68.65,135.88s58.16,79.62,58.16,115.38A133.73,133.73,0,0,1,143.49,409ZM123,57.68C75.32,118,23.11,218.58,23.11,275.79a120.38,120.38,0,0,0,240.76,0c0-31.23-26.94-68.18-55.54-107.27a433.12,433.12,0,0,1-63.89-107L137.06,40Z"/><path d="M446.71,217.39a4.29,4.29,0,0,0-6.07-.13l-.13.13L420,238.13h0L217.63,440.51a4.29,4.29,0,0,0-.13,6.07l.13.13A162.1,162.1,0,0,0,446.71,217.63ZM327.52,455.77a123.71,123.71,0,0,1-80.33-33.13l80.33-80.33ZM336.1,342.3l79.62,79.62h0a123.48,123.48,0,0,1-80.33,33.37Zm86.29,74.37h0l-79.62-79.62H456.24a123.24,123.24,0,0,1-33.37,80.57ZM342.3,327.52l80.33-80.33a123.25,123.25,0,0,1,33.13,80.33Zm98,112.75a153.28,153.28,0,0,1-214.54,3.1l14.54-14.54a132.78,132.78,0,0,0,187.6-187.6l14.54-14.54a153.28,153.28,0,0,1-3.1,214.54Z"/></svg>