<svg id="Layer_1" data-name="Layer 1" xmlns="http://www.w3.org/2000/svg" viewBox="0 0 22.23 27.28"><defs><style>.cls-1{fill:#444344;}</style></defs><title>Ishop icon P2P_9-10</title><path class="cls-1" d="M15.75,20.78v-.7a5.47,5.47,0,0,0,5.35-5.57,5.49,5.49,0,0,0-5.35-5.62v-.7a6.2,6.2,0,0,1,6,6.32A6.17,6.17,0,0,1,15.75,20.78Zm0-1.38v-.7a4.09,4.09,0,0,0,4-4.19,4.09,4.09,0,0,0-4-4.19v-.7a4.79,4.79,0,0,1,4.67,4.89A4.79,4.79,0,0,1,15.75,19.4Z"/><path class="cls-1" d="M15.31,7.86V24.32a1.39,1.39,0,0,1-1.38,1.4h-11a1.38,1.38,0,0,1-1.38-1.38V7.86h13.8m.7-.7H.8V24.34a2.08,2.08,0,0,0,2.08,2.08h11A2.1,2.1,0,0,0,16,24.32V7.15Z"/><path class="cls-1" d="M5.7,6.94a.92.92,0,0,1-.84-1.29l.31-.7a.75.75,0,0,0-.12-.8,2.56,2.56,0,0,1-.26-3l.12-.2a.92.92,0,0,1,1.57,1l-.12.2a.74.74,0,0,0,.08.88A2.58,2.58,0,0,1,6.85,5.7l-.31.7A.92.92,0,0,1,5.7,6.94Zm0-5.76a.21.21,0,0,0-.18.1l-.12.2a1.86,1.86,0,0,0,.19,2.21,1.45,1.45,0,0,1,.23,1.55l-.31.7a.21.21,0,0,0,.11.28.21.21,0,0,0,.28-.11l.31-.7a1.87,1.87,0,0,0-.3-2A1.44,1.44,0,0,1,5.77,1.7l.12-.2a.21.21,0,0,0-.07-.29A.21.21,0,0,0,5.71,1.18ZM5.5,5.09h0Z"/><path class="cls-1" d="M8.27,6.94a.92.92,0,0,1-.83-1.3l.31-.69a.74.74,0,0,0-.12-.79,2.56,2.56,0,0,1-.26-3l.12-.2A.92.92,0,0,1,9,1.87l-.12.2A.74.74,0,0,0,9,2.95,2.58,2.58,0,0,1,9.42,5.7l-.31.7A.92.92,0,0,1,8.27,6.94Zm.12-1.7-.31.7a.21.21,0,0,0,0,.16.21.21,0,0,0,.39,0l.31-.7a1.87,1.87,0,0,0-.3-2A1.44,1.44,0,0,1,8.33,1.7l.12-.2a.21.21,0,0,0-.23-.32.21.21,0,0,0-.13.1L8,1.48a1.86,1.86,0,0,0,.19,2.21,1.45,1.45,0,0,1,.23,1.55Z"/><path class="cls-1" d="M10.81,6.94A.92.92,0,0,1,10,5.64l.31-.7a.75.75,0,0,0-.12-.8,2.56,2.56,0,0,1-.26-3L10,.92a.92.92,0,0,1,1.57,1l-.12.2a.74.74,0,0,0,.08.88A2.58,2.58,0,0,1,12,5.7l-.31.7A.92.92,0,0,1,10.81,6.94Zm0-5.76a.21.21,0,0,0-.18.1l-.12.2a1.86,1.86,0,0,0,.19,2.21,1.45,1.45,0,0,1,.23,1.55l-.31.7a.21.21,0,0,0,.11.28A.21.21,0,0,0,11,6.11l.31-.7a1.87,1.87,0,0,0-.3-2,1.44,1.44,0,0,1-.15-1.71l.12-.2a.21.21,0,0,0-.07-.29A.21.21,0,0,0,10.81,1.18Zm-.2,3.91h0Z"/><path class="cls-1" d="M13.31,20.76,13,20.66a2.59,2.59,0,0,1-.6-.3,4.89,4.89,0,0,1-.75-.6,2.55,2.55,0,0,1-.23-.26,2.77,2.77,0,0,1-.41-.89,2.55,2.55,0,0,0-.44-.9l-.12-.14.05-.18c0-.08,0-.17.06-.25a3.3,3.3,0,0,0,.06-.48l0-.44.42.12a3.64,3.64,0,0,1,1.56.94h0a2.78,2.78,0,0,1,.79,3.25Zm-2-3.37a3.29,3.29,0,0,1,.43.92,2.44,2.44,0,0,0,.32.75l.17.19a4.24,4.24,0,0,0,.65.52l.15.09a2.41,2.41,0,0,0-.81-2.1,3.2,3.2,0,0,0-.86-.62l0,.11Z"/><path class="cls-1" d="M11.91,21.35a3.34,3.34,0,0,1-2.27-1,4,4,0,0,1-.39-.45l-.19-.25.23-.21a5,5,0,0,0,1.06-1.51l.28-.64.35.61a3.3,3.3,0,0,1,.25.6l0,.09a2.57,2.57,0,0,0,.37.81,2.27,2.27,0,0,0,.21.24,4.66,4.66,0,0,0,.73.58,3.15,3.15,0,0,0,.38.22l.53.24L13,21A1.79,1.79,0,0,1,11.91,21.35ZM10,19.67l.13.14a2.56,2.56,0,0,0,1.89.84,5.38,5.38,0,0,1-.67-.56,3.16,3.16,0,0,1-.28-.31,3,3,0,0,1-.45-.92A5.77,5.77,0,0,1,10,19.67Z"/><path class="cls-1" d="M4.56,20.21l-.2-.2c-.75-1.21-.28-3.12,1.12-4.52s3.25-1.84,4.45-1.17l.58.32-.59.3c-.16.08-.32.15-.49.21l-.09,0a2.48,2.48,0,0,0-.94.54,3.58,3.58,0,0,0-.79,1.44l0,.1A3.93,3.93,0,0,1,7,18.52a3.76,3.76,0,0,1-.32.36,7,7,0,0,1-1.07.86,3,3,0,0,1-.89.44Zm4.08-5.49A4,4,0,0,0,6,16a3.49,3.49,0,0,0-1.15,3.39l.39-.23a6.35,6.35,0,0,0,1-.77,3,3,0,0,0,.26-.29,3.33,3.33,0,0,0,.46-1l0-.1a4.16,4.16,0,0,1,.88-1.64l.08-.09A2.61,2.61,0,0,1,8.64,14.72Z"/><path class="cls-1" d="M6.5,21.16A2.45,2.45,0,0,1,5,20.67l-.45-.35L5,20.08a5.39,5.39,0,0,0,.58-.33,6.89,6.89,0,0,0,1.08-.86A3.69,3.69,0,0,0,7,18.52a3.78,3.78,0,0,0,.56-1.21l0-.14a3.44,3.44,0,0,1,.73-1.37l.06-.07a2.6,2.6,0,0,1,1-.55,4.07,4.07,0,0,0,.73-.34l.26-.16.2.23a2.47,2.47,0,0,1,.55,1.71,3.53,3.53,0,0,1-.11.75,4.29,4.29,0,0,1-.19.57,5.38,5.38,0,0,1-1.18,1.75A4.75,4.75,0,0,1,6.5,21.16Zm-.58-.78a3.62,3.62,0,0,0,3.24-1.17,4.67,4.67,0,0,0,1-1.54h0a3.61,3.61,0,0,0,.16-.48,2.86,2.86,0,0,0,.09-.6,1.91,1.91,0,0,0-.22-1,6,6,0,0,1-.56.24,2,2,0,0,0-.77.4,2.84,2.84,0,0,0-.61,1.15l0,.13a4.4,4.4,0,0,1-.67,1.42,4.42,4.42,0,0,1-.39.44,7.57,7.57,0,0,1-1.2,1Z"/></svg>