<svg id="Layer_1" data-name="Layer 1" xmlns="http://www.w3.org/2000/svg" viewBox="0 0 25.03 25.84"><defs><style>.cls-1{fill:#414042;}</style></defs><title>iSHOP Dashboard_Elements</title><path class="cls-1" d="M18.56,10.56h.17A3.74,3.74,0,0,0,20.66,10c1.42-.88,2-2.44,1.41-3.48a2,2,0,0,0-1.65-.88,3.69,3.69,0,0,0-2.1.58c-1.42.88-2,2.44-1.41,3.48A2,2,0,0,0,18.56,10.56Zm1.7-1.22a3,3,0,0,1-1.66.47,1.68,1.68,0,0,1-.46-.1A1.4,1.4,0,0,1,18.39,9a1.67,1.67,0,0,1,.75-.56,4,4,0,0,1,.74-.18l.23,0a2.8,2.8,0,0,0,1.14-.43,1.61,1.61,0,0,0,.3-.29A2.56,2.56,0,0,1,20.26,9.34ZM18.72,6.83a3,3,0,0,1,1.54-.47h.13a1.47,1.47,0,0,1,.76.24s0,0,0,0a.68.68,0,0,1-.31.56,2.15,2.15,0,0,1-.84.3l-.22,0a4.69,4.69,0,0,0-.88.21,2.4,2.4,0,0,0-1.09.82,2.19,2.19,0,0,0-.3.57C17.22,8.45,17.74,7.44,18.72,6.83Z"/><path class="cls-1" d="M13.77,22.19c-1.1.18-2.46-.72-3.25-2.12s-.87-3.06-.14-3.89a.38.38,0,1,0-.56-.49c-.95,1.08-.92,3,.05,4.75A4.6,4.6,0,0,0,13.49,23a2.47,2.47,0,0,0,.39,0,.37.37,0,1,0-.12-.74Z"/><path class="cls-1" d="M10.84,15l-.66.2.53.44a3.14,3.14,0,0,1,.91,1.27A9.1,9.1,0,0,1,12,18.37l.08.45a4.75,4.75,0,0,0,2.64,3.59l.22.08.17-.17c1.06-1,1.1-3.13.09-4.9S12.26,14.59,10.84,15Zm3.88,6.6a4.17,4.17,0,0,1-1.94-2.94l-.09-.46a9.42,9.42,0,0,0-.37-1.53,3.74,3.74,0,0,0-.57-1,4,4,0,0,1,2.76,2.13A3.74,3.74,0,0,1,14.72,21.62Z"/><path class="cls-1" d="M24.61,20.68A3,3,0,0,0,25,19.15a10.74,10.74,0,0,0-.91-3.82,1.71,1.71,0,0,0,.22-.46,2.88,2.88,0,0,0-.71-2.39,2.62,2.62,0,0,0,.65-1A2.63,2.63,0,0,0,23.57,9,2.35,2.35,0,0,0,24,7.69c0-1.34-1.57-2.81-3.77-3.61a3,3,0,0,0-2.09-2.63c-1.55-.62-3.18-.2-3.63.94a2,2,0,0,0,.27,1.85A3.67,3.67,0,0,0,16.5,5.58,3.93,3.93,0,0,0,18,5.88a3.16,3.16,0,0,0,.71-.08,2,2,0,0,0,1.38-1c2,.74,3.22,2,3.22,2.88,0,1.93-4.32,4-10.76,4-.71,0-1.38,0-2-.08a2.52,2.52,0,0,0,.29-.12,3.67,3.67,0,0,0,1.5-1.58l0,0a1.88,1.88,0,0,0,1.15,1,1.72,1.72,0,0,0,.46.06,2.13,2.13,0,0,0,1.35-.53,3.68,3.68,0,0,0,1.15-1.85c.46-1.63-.13-3.18-1.33-3.51a2,2,0,0,0-1.81.47,3.49,3.49,0,0,0-.94,1.27,1.74,1.74,0,0,0-.65-.59c-1.09-.56-2.6.19-3.36,1.68a2.83,2.83,0,0,0,.34,3.52A19.52,19.52,0,0,1,6,10.85a1.67,1.67,0,0,0,.65-.25A2,2,0,0,0,7.44,8.9a3.68,3.68,0,0,0-.69-2.06c-.07-.1-.15-.19-.23-.28a2.07,2.07,0,0,0,1.11.35,1.71,1.71,0,0,0,.52-.08,2.3,2.3,0,0,0,1.4-2.36,1.76,1.76,0,0,0,.64.83,1.78,1.78,0,0,0,1,.31,3.24,3.24,0,0,0,2.52-1.55A3.66,3.66,0,0,0,14.4,2,2,2,0,0,0,13.59.3,2,2,0,0,0,11.73.17a3.67,3.67,0,0,0-1.68,1.38h0A3.72,3.72,0,0,0,9.4,3.44c0-.05,0-.11,0-.16C8.85,1.69,7.49.7,6.32,1.07A2.46,2.46,0,0,0,5,3.93C1.41,5,1,6.91,1,7.69A2.35,2.35,0,0,0,1.46,9a2.63,2.63,0,0,0-.67,2.41,2.63,2.63,0,0,0,.65,1,2.88,2.88,0,0,0-.71,2.39,1.7,1.7,0,0,0,.22.46A10.73,10.73,0,0,0,0,19.15a3,3,0,0,0,.37,1.53,3.17,3.17,0,0,0-.2,2.66c.46,1,1.59,1.68,3.38,2a37.85,37.85,0,0,0,4.21.4c1.54.08,3.1.12,4.67.12s3.12,0,4.69-.12a37.29,37.29,0,0,0,4.27-.4c1.79-.3,2.92-1,3.38-2A3.17,3.17,0,0,0,24.61,20.68ZM16.71,1.92a3.17,3.17,0,0,1,1.17.23A2.37,2.37,0,0,1,19.5,4h0a.67.67,0,0,1-.63.08,2.12,2.12,0,0,1-.74-.5l-.16-.15a4.68,4.68,0,0,0-.7-.58,2.44,2.44,0,0,0-1.3-.39h0a2.2,2.2,0,0,0-.62.1A1.6,1.6,0,0,1,16.71,1.92ZM18.5,5.07a2.93,2.93,0,0,1-1.72-.18,2.91,2.91,0,0,1-1.36-1.06,1.7,1.7,0,0,1-.2-.43,1.41,1.41,0,0,1,.72-.22h0a1.69,1.69,0,0,1,.9.27,4,4,0,0,1,.58.49l.17.16a2.82,2.82,0,0,0,1,.66,1.56,1.56,0,0,0,.42.07A1.63,1.63,0,0,1,18.5,5.07ZM13.11,3.63a2.63,2.63,0,0,1-1.79,1.21,1.4,1.4,0,0,1-.06-.75,1.68,1.68,0,0,1,.46-.82,4.2,4.2,0,0,1,.62-.47l.18-.12a2.81,2.81,0,0,0,.87-.86,1.61,1.61,0,0,0,.16-.38,1.64,1.64,0,0,1,.1.57A2.93,2.93,0,0,1,13.11,3.63ZM10.67,2h0A2.92,2.92,0,0,1,12,.87a1.64,1.64,0,0,1,.58-.12l.21,0v0a.67.67,0,0,1-.05.64,2.14,2.14,0,0,1-.64.62l-.17.12a4.84,4.84,0,0,0-.73.56,2.43,2.43,0,0,0-.66,1.2,2.2,2.2,0,0,0,0,.64,1.32,1.32,0,0,1-.36-1A2.92,2.92,0,0,1,10.67,2Zm5,6.39a2.92,2.92,0,0,1-.9,1.47,1.7,1.7,0,0,1-.41.24,1.41,1.41,0,0,1-.29-.69,1.68,1.68,0,0,1,.17-.93,4.1,4.1,0,0,1,.43-.64l.14-.18a2.81,2.81,0,0,0,.55-1.09,1.6,1.6,0,0,0,0-.42A2.57,2.57,0,0,1,15.67,8.37Zm-2.84-.79a2.91,2.91,0,0,1,.9-1.47,1.47,1.47,0,0,1,.72-.34v0a.67.67,0,0,1,.15.62,2.13,2.13,0,0,1-.41.79l-.13.17a4.71,4.71,0,0,0-.51.76,2.45,2.45,0,0,0-.25,1.34,2.2,2.2,0,0,0,.17.62,1.32,1.32,0,0,1-.65-.8A2.92,2.92,0,0,1,12.83,7.57Zm-1.23,2a2.91,2.91,0,0,1-1.18,1.26A1.7,1.7,0,0,1,10,11a1.41,1.41,0,0,1-.15-.74,1.67,1.67,0,0,1,.35-.88,4,4,0,0,1,.54-.54l.17-.15a2.81,2.81,0,0,0,.75-1,1.6,1.6,0,0,0,.11-.4,1.63,1.63,0,0,1,.17.55A2.92,2.92,0,0,1,11.6,9.58ZM9,8.23a2.37,2.37,0,0,1,2-1.45v0a.67.67,0,0,1,0,.64,2.11,2.11,0,0,1-.56.69l-.17.15a4.66,4.66,0,0,0-.64.64,2.41,2.41,0,0,0-.51,1.27,2.22,2.22,0,0,0,0,.64A2.16,2.16,0,0,1,9,8.23ZM3.36,6.55h0A.66.66,0,0,1,4,6.83a2.12,2.12,0,0,1,.35.82l.05.22a4.58,4.58,0,0,0,.26.87,2.42,2.42,0,0,0,.88,1,2.21,2.21,0,0,0,.58.27A2.16,2.16,0,0,1,3.71,9,2.37,2.37,0,0,1,3.36,6.55ZM6.62,9.37a1.43,1.43,0,0,1-.72-.22,1.66,1.66,0,0,1-.6-.72,4,4,0,0,1-.22-.73L5,7.48a2.8,2.8,0,0,0-.49-1.12,1.6,1.6,0,0,0-.3-.28,1.64,1.64,0,0,1,.56.1A2.92,2.92,0,0,1,6.14,7.27,2.92,2.92,0,0,1,6.69,8.9,1.69,1.69,0,0,1,6.62,9.37Zm2-5.87a2.62,2.62,0,0,1-.16,2.15,1.41,1.41,0,0,1-.62-.42,1.68,1.68,0,0,1-.37-.87,4,4,0,0,1,0-.77V3.37a2.82,2.82,0,0,0-.14-1.21,1.59,1.59,0,0,0-.2-.36A2.56,2.56,0,0,1,8.64,3.51ZM6.2,2h0a.67.67,0,0,1,.47.44,2.15,2.15,0,0,1,.09.89v.22a4.63,4.63,0,0,0,0,.91,2.44,2.44,0,0,0,.53,1.26,2.21,2.21,0,0,0,.48.43,1.32,1.32,0,0,1-1-.31,2.92,2.92,0,0,1-1-1.44A2.37,2.37,0,0,1,6.2,2ZM5.13,4.67a3.91,3.91,0,0,0,.65,1.2,3.21,3.21,0,0,0-.72-.39,2,2,0,0,0-1.86.15c-1,.71-1.07,2.36-.1,3.75a4,4,0,0,0,.36.41c-1.09-.65-1.7-1.39-1.7-2.11S2.1,5.59,5.13,4.67ZM24.13,23c-.35.77-1.29,1.29-2.82,1.55a36.5,36.5,0,0,1-4.18.39,90.9,90.9,0,0,1-9.29,0,37,37,0,0,1-4.12-.39C2.2,24.33,1.25,23.81.9,23a2.22,2.22,0,0,1,0-1.66,3,3,0,0,0,1.27.76A30.1,30.1,0,0,0,7.63,23h0a.38.38,0,0,0,0-.75,29.73,29.73,0,0,1-5.27-.8A2.28,2.28,0,0,1,.79,19.17a9.94,9.94,0,0,1,.74-3.27,4.07,4.07,0,0,0,1.29.57h.1a.37.37,0,0,0,.1-.74c-.9-.24-1.42-.6-1.56-1.07A2.18,2.18,0,0,1,2,13c1.26.93,3.44,1.66,6.55,2.16h.06a.37.37,0,0,0,.06-.75C3,13.48,1.75,12,1.51,11.23A1.84,1.84,0,0,1,2,9.61c1.75,1.68,5.77,2.84,10.56,2.84s8.81-1.15,10.56-2.84a1.83,1.83,0,0,1,.44,1.62c-.23.79-1.47,2.25-7.16,3.17a.37.37,0,0,0,.06.75h.06c3.11-.5,5.29-1.23,6.55-2.16a2.17,2.17,0,0,1,.55,1.69c-.14.48-.66.84-1.56,1.07a.37.37,0,0,0,.1.74h.1a4.07,4.07,0,0,0,1.29-.57,10,10,0,0,1,.74,3.27,2.28,2.28,0,0,1-1.63,2.24,29.8,29.8,0,0,1-5.27.8.38.38,0,0,0,0,.75h0a30.2,30.2,0,0,0,5.43-.83,3,3,0,0,0,1.27-.76A2.21,2.21,0,0,1,24.13,23Z"/></svg>