<svg id="Layer_1" data-name="Layer 1" xmlns="http://www.w3.org/2000/svg" viewBox="0 0 22.23 27.28"><defs><style>.cls-1{fill:#444344;}.cls-2{fill:#454244;}</style></defs><title>Ishop icon P2P_9-10</title><path class="cls-1" d="M5.74,8.25A8.87,8.87,0,0,1,7.53,5.6a3.32,3.32,0,0,1,2.77-1,4.51,4.51,0,0,1,2.08.86A11.28,11.28,0,0,1,15,8.12a17.5,17.5,0,0,1,2.72,5.34c.1.34.16.79.24,1.15l-.49.07a8.84,8.84,0,0,0-.2-1A17.22,17.22,0,0,0,13.42,7a6.73,6.73,0,0,0-2.17-1.61,2.83,2.83,0,0,0-3.33.54A7.11,7.11,0,0,0,6.34,8.25Z"/><path class="cls-1" d="M.76,23.1a.63.63,0,0,1-.47-.16.64.64,0,0,1-.16-.47V11.1a.88.88,0,0,1,.25-.59q1.1-1.13,2.23-2.24A.86.86,0,0,1,3.18,8H9a.83.83,0,0,1,.54.23q1.14,1.12,2.27,2.27a.8.8,0,0,1,.22.53q0,5.11,0,10.22v1.28a1.24,1.24,0,0,1,0,.15L12,23l-.33.08H.76Zm3.44-.72h7.11v-1.1q0-5.11,0-10.21C10.55,10.28,9.79,9.53,9,8.78L9,8.4v.36H3.19C2.37,9.52,1.63,10.27.9,11a.19.19,0,0,0,0,.09V22.38Z"/><path class="cls-1" d="M15.9,21.8l-.08-.3a.51.51,0,0,0-.56-.45h-.31l-.63-5.47.3-.08a.5.5,0,0,0,.45-.56v-.32l.32,0L20.24,14l.3,0,.08.29a.52.52,0,0,0,.56.45h.33l.62,5.42-.24.11c-.46.21-.46.22-.53.66l0,.27Zm-.31-1.43a1.14,1.14,0,0,1,.82.65l4.29-.49a1.07,1.07,0,0,1,.65-.81l-.49-4.3a1.14,1.14,0,0,1-.83-.65l-4.29.49a1.14,1.14,0,0,1-.65.82Z"/><path class="cls-2" d="M5.84,19.29l0-.5a2.68,2.68,0,0,0-.31-1.48l-.09-.18.1-.17A2.59,2.59,0,0,1,8.33,15.5l.25.06,0,.26a3.19,3.19,0,0,1-2.26,3.34Zm.47-2.13a3.44,3.44,0,0,1,.3,1.14,2.52,2.52,0,0,0,1.28-2.14h0A2,2,0,0,0,6.31,17.16Z"/><path class="cls-2" d="M6,19.21a2.7,2.7,0,0,1-2-.88,3.33,3.33,0,0,1-.87-2.67l0-.26.25-.05a2.58,2.58,0,0,1,2.6,1.45h0a3.39,3.39,0,0,1,.47,1.86c0,.1,0,.17,0,.23l0,.29-.3,0ZM3.89,16a2.63,2.63,0,0,0,.7,1.81,2,2,0,0,0,1.24.64,2.71,2.71,0,0,0-.37-1.32A2.05,2.05,0,0,0,3.89,16Z"/><path class="cls-1" d="M7.61,9.25h-3v.43h3Z"/><path class="cls-1" d="M16.91,15.81l2.15-.25L19,15.11l-2.13.25Z"/></svg>