<svg id="Layer_1" data-name="Layer 1" xmlns="http://www.w3.org/2000/svg" viewBox="0 0 12 28.62"><defs><style>.cls-1{fill:#333;}</style></defs><title>iSHOP Dashboard_Elements</title><rect class="cls-1" x="3.69" y="5.54" width="0.92" height="4.61" transform="translate(-3.69 11.99) rotate(-89.92)"/><path class="cls-1" d="M9.95,13.93a.73.73,0,0,1-.25-.55A1.36,1.36,0,0,1,10,12.33c1-1,1.51-1.68,1.52-2.63V6.92a2.19,2.19,0,0,0-2-2.28,1.23,1.23,0,0,0,.11-.48V3.69A1.46,1.46,0,0,0,8.31,2.31H7.39V.92h.46V0H4.15V.92h.46V2.3H3.69A1.46,1.46,0,0,0,2.31,3.69v.46a1.25,1.25,0,0,0,.11.49,2.24,2.24,0,0,0-2,2.28V9.7c0,1.07.58,1.69,1.52,2.63a1.26,1.26,0,0,1,.33,1,.82.82,0,0,1-.26.58A4,4,0,0,0,0,17.52c0,.15,0,7.34,0,8.78a2.07,2.07,0,0,0,2.31,2.31H9.69A2.06,2.06,0,0,0,12,26.31V17.55A3.94,3.94,0,0,0,9.95,13.93ZM5.54.92h.92V2.3H5.54ZM3.23,3.69a.54.54,0,0,1,.46-.46H8.31a.54.54,0,0,1,.46.46v.46a.54.54,0,0,1-.46.45H3.69a.54.54,0,0,1-.46-.46Zm-.67,11a1.68,1.68,0,0,0,.66-1.26,2.19,2.19,0,0,0-.59-1.76c-.9-.9-1.24-1.31-1.25-2V6.92A1.34,1.34,0,0,1,2.77,5.53H9.23a1.31,1.31,0,0,1,1.39,1.39V9.69c0,.57-.3,1-1.25,2a2.27,2.27,0,0,0-.59,1.79,1.61,1.61,0,0,0,.66,1.23,3.05,3.05,0,0,1,1.64,2.85H.93A3.06,3.06,0,0,1,2.57,14.69ZM.92,18.47H11.08v6H.92C.92,22.33.92,19.8.92,18.47Zm8.77,9.22H2.31c-1,0-1.38-.39-1.38-1.39,0-.28,0-.59,0-.92H11.08v.92C11.08,27.31,10.69,27.69,9.69,27.69Z"/><rect class="cls-1" x="7.39" y="7.39" width="0.92" height="0.92"/><rect class="cls-1" x="9.23" y="7.38" width="0.92" height="0.92" transform="translate(1.78 17.48) rotate(-89.58)"/><polygon class="cls-1" points="5.73 20.77 6.79 19.71 6.13 19.06 3.5 21.69 6.11 21.69 4.32 23.19 4.91 23.89 8.66 20.77 5.73 20.77"/></svg>