<svg id="Layer_1" data-name="Layer 1" xmlns="http://www.w3.org/2000/svg" viewBox="0 0 25.65 24.96"><defs><style>.cls-1{fill:#414042;stroke:#414042;stroke-miterlimit:10;stroke-width:0.25px;}</style></defs><title>iSHOP Dashboard_Elements</title><path class="cls-1" d="M25.52,5.65a2.49,2.49,0,0,0-.69-1.79L22,.9A2.51,2.51,0,0,0,18.47.82l-7,6.68-1-1h0l0,0,0,0,0,0h-.29L8,7.45l-.05,0,0,0,0,0,0,0,0,0V7.7s0,0,0,0a.33.33,0,0,0,0,0,.32.32,0,0,0,0,.05h0L8.31,9.6l-5.6,5.33a1.13,1.13,0,0,0-1.17.24L.34,16.31l-.05.06-.07,0a.32.32,0,0,0,0,.45,1.21,1.21,0,0,0,.92.37.59.59,0,0,1,.48.17.59.59,0,0,1,.15.49A1.19,1.19,0,0,0,3,19.21a.56.56,0,0,1,.63.66,1.19,1.19,0,0,0,1.24,1.3.56.56,0,0,1,.63.66,1.19,1.19,0,0,0,1.24,1.3.56.56,0,0,1,.63.66,1.21,1.21,0,0,0,.32.93.32.32,0,0,0,.45,0l.05-.06.07,0L9.46,23.5a1.14,1.14,0,0,0,.3-1.16l5.54-5.27,1.93.63h0l.09,0h.12l.06,0,0,0,0,0,0,0v0l1.17-2h0v-.12s0,0,0,0V15.2l0,0,0,0h0l-1-1,7-6.68A2.49,2.49,0,0,0,25.52,5.65ZM10.15,7.07l3.18,3.35-4.41-1L8.51,7.9ZM9,23,8,24c0-.05,0-.11,0-.18a1.19,1.19,0,0,0-1.24-1.3.56.56,0,0,1-.63-.66,1.19,1.19,0,0,0-1.24-1.3.56.56,0,0,1-.63-.66A1.19,1.19,0,0,0,3,18.57a.57.57,0,0,1-.63-.66,1.19,1.19,0,0,0-1.24-1.3l-.18,0,1-.95a.49.49,0,0,1,.7,0l1.16,1.22L9,22.33A.49.49,0,0,1,9,23Zm.39-1.24L6.32,18.55,3.24,15.31l5.53-5.26,5.35,1.19L15,16.45Zm8.69-6.38L17.17,17l-1.5-.49h0l-.76-4.45Zm-.81-1.78L16,12.32c.28-.6-.15-1.49-.57-2.35S14.69,8.37,15,8.11s1.14.22,1.84.6c1,.54,2,1.09,2.59.51S19.5,7.6,19,6.61c-.35-.72-.78-1.61-.51-1.86s1.14.22,1.84.6c1,.54,2,1.09,2.59.51a.32.32,0,0,0-.44-.47c-.27.26-1.14-.22-1.84-.6-1-.54-2-1.09-2.59-.51s-.11,1.61.38,2.61c.35.72.78,1.61.51,1.86s-1.14-.22-1.84-.6c-1-.54-2-1.09-2.59-.51s-.11,1.61.38,2.61a6.29,6.29,0,0,1,.59,1.48l-.83-.87h0l-.11-.12h0L11.89,8l7-6.68a1.87,1.87,0,0,1,2.64.07l2.82,3a1.87,1.87,0,0,1-.07,2.64Z"/><path class="cls-1" d="M13.36,15a2.25,2.25,0,0,1-3.1-3.26.32.32,0,0,0-.44-.47,2.89,2.89,0,0,0,4,4.19.32.32,0,1,0-.44-.47Z"/></svg>