<svg id="Layer_1" data-name="Layer 1" xmlns="http://www.w3.org/2000/svg" viewBox="0 0 500 500"><defs><style>.cls-1{fill:#434243;}.cls-2{fill:#414042;}</style></defs><title>Icons</title><path class="cls-1" d="M368.95,230.39c-11.24,0-20.33-4.55-27.36-8.9-8.84-5.46-18.09-10.67-27-15.71q-5.66-3.19-11.3-6.4l-8-4.57q-22.09-12.64-44.2-25.23c-4.5-2.56-9-5-13.6-7.51l-9-4.93.9-3.07c7.49-25.39,15.94-52.31,29.57-77.76a109.18,109.18,0,0,1,6.26-10.75,15.08,15.08,0,0,1,13.38-7.07h40.57c11,0,15.69,5.54,19.14,11.53,12.19,21.21,22,45.66,31,77a496.68,496.68,0,0,1,11.29,48.41c1.25,7,1.33,14,1.4,20.87,0,3,.07,5.93.2,8.85l.15,3.28-3.2.76A43.51,43.51,0,0,1,368.95,230.39Zm-131-77.14,3.37,1.84c4.6,2.51,9.19,5,13.73,7.58q22.13,12.58,44.22,25.25l8,4.57q5.61,3.21,11.25,6.37c9,5.08,18.34,10.33,27.32,15.87,10.45,6.46,19.11,8.75,28.31,7.33,0-1.89-.07-3.79-.09-5.7-.07-6.51-.15-13.25-1.28-19.55-2.82-15.67-6.55-31.69-11.11-47.63-8.76-30.67-18.36-54.56-30.22-75.19-2.87-5-5.56-7.54-12.24-7.54H278.57a7.27,7.27,0,0,0-6.83,3.63,97.61,97.61,0,0,0-5.56,9.55C253.22,103.82,245,129.17,237.9,153.25Z"/><path class="cls-1" d="M69.4,228.74H42.87l.38-4.33C46,193,59,169.79,81.94,155.47c31.19-19.48,63.6-17.85,96.32,4.84l4.06,2.82-15,13.89c-9.75,9.06-19.34,18-28.9,26.89-1.61,1.5-3.15,3.08-4.7,4.66s-2.84,2.89-4.31,4.29c-4.77,4.56-9.58,9.07-14.49,13.49a9.29,9.29,0,0,1-5.91,2.34C95.89,228.74,82.71,228.74,69.4,228.74Zm-17.78-8h6.77c17.09,0,33.86,0,50.64-.06a1.77,1.77,0,0,0,.62-.3c4.85-4.37,9.61-8.84,14.33-13.34,1.4-1.34,2.77-2.73,4.13-4.11,1.63-1.65,3.25-3.3,4.94-4.89,9.57-8.94,19.16-17.85,28.92-26.91l7.63-7.09c-28.44-18.06-56.5-18.71-83.43-1.88C66.23,174.67,54.9,193.86,51.62,220.79Z"/><path class="cls-1" d="M333.45,228.43H120l80.1-75.67Zm-193.47-8H303.3l-102-57.89Z"/><path class="cls-1" d="M257.6,58.79c-2.58,0-5.46-.32-7.49-2.46s-2.17-5.18-2-7.23c.32-5.06.22-10.31.12-15.39l-.06-3.2a8.15,8.15,0,0,1,2-6.15,7.53,7.53,0,0,1,5.58-2h0c23.32,0,46.64,0,70.22,0h19a7.41,7.41,0,0,1,7.41,7.4v22.3a6.71,6.71,0,0,1-2,4.79,6.59,6.59,0,0,1-4.69,1.93h-4.25c-17,0-59.84-.12-83.65,0Zm-1.59-8a10.84,10.84,0,0,0,1.72.09c23.81-.13,66.73,0,83.71,0h2.94V30.32H326c-23.42,0-46.65,0-69.87,0v.1l.06,3.17c.1,5.23.2,10.64-.13,16A7,7,0,0,0,256,50.74Z"/><path class="cls-1" d="M197.32,440H166.45V281.88h30.88Zm-22.92-8h15V289.84h-15Z"/><path class="cls-1" d="M264.42,440H233.54V281.88h30.88Zm-22.92-8h15V289.84h-15Z"/><path class="cls-1" d="M332.45,440H301.58V282.1h30.88Zm-22.92-8h15V290.06h-15Z"/><path class="cls-1" d="M266.17,288.32H14.66c-10,0-14.65-4.69-14.65-14.75,0-8.82,0-28.28,0-37.11,0-10,4.05-14,13.91-14H438.2c9.88,0,13.92,4.06,13.94,14,0,8.82,0,28.28,0,37.1,0,10.08-4.65,14.78-14.63,14.78Zm-85.67-8h257c5.49,0,6.67-1.21,6.67-6.82,0-8.82,0-28.26,0-37.08,0-5.6-.46-6.06-6-6.06H13.93c-5.5,0-5.95.46-6,6.08,0,8.82,0,28.26,0,37.08,0,5.59,1.19,6.8,6.7,6.8Z"/><path class="cls-2" d="M430.11,458.59A69.89,69.89,0,1,1,500,388.7,70,70,0,0,1,430.11,458.59Zm0-132.95a63.06,63.06,0,1,0,63.05,63.05A63.13,63.13,0,0,0,430.11,325.65Z"/><path class="cls-2" d="M430.11,428.39A3.42,3.42,0,0,1,426.7,425V352.45a3.41,3.41,0,0,1,6.83,0V425A3.42,3.42,0,0,1,430.11,428.39Z"/><path class="cls-2" d="M393.86,392.12a3.42,3.42,0,1,1,0-6.83h72.51a3.42,3.42,0,1,1,0,6.83Z"/><path class="cls-1" d="M391.23,453.58c-1.09,3.94-2.43,7.88-3.79,11.71l-.35,1c-1.31,3.67-2.68,3.41-3.6,3.26a12.22,12.22,0,0,0-2.82-.11l-.71,0H320.3c-76.15,0-154.88-.05-232.32.28h-.09c-5.43,0-8.27-2.32-10.44-8.54-3-8.46-5.25-17.25-7.52-26.27-3.28-13-6.42-26-9.56-39.06L57.26,383c-1.22-5-2.53-10.06-3.83-15.08-3-11.61-6.14-23.61-8.05-35.6-1.26-7.94-.87-22.93-.55-35,.08-3.23.17-6.28.21-9H421.76c.09,6.83.15,15.1,0,23.53h7.94c.22-9.75.11-19.21,0-26.57l-.07-4.92H37.12v4c0,3.5-.12,7.95-.25,12.78-.34,13-.73,27.76.65,36.43,2,12.36,5.14,24.56,8.21,36.35,1.29,5,2.59,10,3.8,14.95l3.1,12.86c3.14,13.07,6.29,26.13,9.57,39.14,2.32,9.2,4.66,18.18,7.73,27,3.27,9.33,9.14,13.86,18,13.86H88c77.46-.34,156.2-.31,232.31-.28H380c.37,0,.74,0,1.1,0a8.58,8.58,0,0,1,1,0c2.67.47,9.29.63,12.5-8.44l.34-1c1.23-3.45,2.42-7,3.49-10.65Z"/></svg>