<svg id="Layer_1" data-name="Layer 1" xmlns="http://www.w3.org/2000/svg" viewBox="0 0 500 500"><defs><style>.cls-1{fill:#434243;}</style></defs><title>Icons</title><path class="cls-1" d="M0,195.06l13.62,0,.21-60.34c0-1.19,1.28-2.13,2.86-2.13h350l52.67,75.68v95.44H433v-102L368.12,122.5H16.69C7.61,122.5.21,128,.21,134.73Z"/><rect class="cls-1" x="361.31" y="188.84" width="13.62" height="183.84"/><rect class="cls-1" x="361.31" y="130.19" width="13.62" height="61.29"/><polygon class="cls-1" points="24.08 367.22 24.08 377.28 376.57 377.06 432.98 303.15 427.44 293.75 372.36 367.22 24.08 367.22"/><path class="cls-1" d="M13.78,192.71V365c0,1.19,1.28,2.17,2.85,2.17h7.51V377.5H16.63C7.55,377.5.16,371.92.16,365V192.71Z"/><polygon class="cls-1" points="423.63 224.07 367.12 188.82 12.15 188.82 12.15 181.82 369.13 181.82 427.34 218.13 423.63 224.07"/><path class="cls-1" d="M484.61,329.2l-59.12-20.64V203.18L477.75,171l2.47,1.37A29.53,29.53,0,0,1,493.16,190c2.1,8,1,16.83-3.15,26.31,3.24,2.89,7.07,7.63,7.6,14.16.48,5.88-1.81,11.61-6.82,17.09A26.22,26.22,0,0,1,495,258.38c1.07,6.9-.43,14.19-4.46,21.77a24.76,24.76,0,0,1,9.05,14.68c1.81,9.79-2.49,20.52-12.78,31.92ZM436,300.92l45.58,15.15c6-7.33,8.72-13.83,7.78-18.91-1.2-6.49-8.09-9.71-8.16-9.74l-6.35-2.81,4.1-6.06c4.58-6.77,6.53-12.84,5.79-18a13.73,13.73,0,0,0-4.55-8.5l-5.89-4.6,5.71-4.83c4.89-4.06,7.45-8,7.2-11.05-.32-4-5.13-7.42-6.4-8.13l-5.06-2.8,2.91-5.37c4.54-8.39,6.06-15.73,4.51-21.82a18.32,18.32,0,0,0-5.52-9L436,210Z"/><polygon class="cls-1" points="31.45 364.22 27.45 364.22 27.45 183.39 29.98 130.09 33.98 130.29 31.44 183.49 31.45 364.22"/><polygon class="cls-1" points="57.19 364.22 53.19 364.22 53.19 183.39 55.73 130.09 59.73 130.29 57.19 183.49 57.19 364.22"/><polygon class="cls-1" points="82.94 364.22 78.94 364.22 78.94 183.39 81.48 130.09 85.48 130.29 82.94 183.49 82.94 364.22"/><polygon class="cls-1" points="108.69 364.22 104.69 364.22 104.69 183.39 107.23 130.09 111.22 130.29 108.68 183.49 108.69 364.22"/><polygon class="cls-1" points="134.43 364.22 130.43 364.22 130.43 183.39 132.97 130.09 136.97 130.29 134.43 183.49 134.43 364.22"/><polygon class="cls-1" points="160.18 364.22 156.18 364.22 156.18 183.39 158.72 130.09 162.72 130.29 160.18 183.49 160.18 364.22"/><polygon class="cls-1" points="185.93 364.22 181.93 364.22 181.93 183.39 184.47 130.09 188.46 130.29 185.92 183.49 185.93 364.22"/><polygon class="cls-1" points="211.67 364.22 207.67 364.22 207.67 183.39 210.21 130.09 214.21 130.29 211.67 183.49 211.67 364.22"/><polygon class="cls-1" points="237.42 364.22 233.42 364.22 233.42 183.39 235.96 130.09 239.96 130.29 237.42 183.49 237.42 364.22"/><polygon class="cls-1" points="263.17 364.22 259.17 364.22 259.17 183.39 261.71 130.09 265.7 130.29 263.16 183.49 263.17 364.22"/><polygon class="cls-1" points="288.91 364.22 284.91 364.22 284.91 183.39 287.45 130.09 291.45 130.29 288.91 183.49 288.91 364.22"/><polygon class="cls-1" points="314.66 364.22 310.66 364.22 310.66 183.39 313.2 130.09 317.19 130.29 314.66 183.49 314.66 364.22"/><polygon class="cls-1" points="340.41 364.22 336.41 364.22 336.41 183.39 338.95 130.09 342.94 130.29 340.4 183.49 340.41 364.22"/></svg>