<svg id="Layer_1" data-name="Layer 1" xmlns="http://www.w3.org/2000/svg" viewBox="0 0 15.99 23.53"><defs><style>.cls-1{fill:#414042;}</style></defs><title>iSHOP Dashboard_Elements</title><path class="cls-1" d="M14.29,4.32h.79V1.12A1.09,1.09,0,0,0,14,0H2A1.09,1.09,0,0,0,.9,1.12v3.2H1.7L0,7.91V19.37C0,22,1.81,23.53,5,23.53h6c3.16,0,5-1.51,5-4.16V7.91ZM12.88,1H14a.16.16,0,0,1,.15.16V3.36H12.88ZM11.37,1h.9v2.4h-.9ZM9.87,1h.91v2.4H9.87ZM8.36,1h.9v2.4h-.9ZM6.85,1h.91v2.4H6.85ZM5.34,1h.9v2.4h-.9ZM3.83,1h.91v2.4H3.83Zm-2,.16A.16.16,0,0,1,2,1H3.23v2.4H1.81Zm.9,3.2H13.28l1.6,3.39H1.11ZM15.08,19.37c0,2.78-2.55,3.2-4.07,3.2H5c-1.52,0-4.07-.42-4.07-3.2v-.16H15.08Zm0-1.12H.9V17.13H15.08Zm0-1.76H.9V10.42H15.08Zm0-6.71H.9V8.66H15.08Z"/></svg>