<svg id="Layer_1" data-name="Layer 1" xmlns="http://www.w3.org/2000/svg" viewBox="0 0 22.23 27.28"><defs><style>.cls-1{fill:#444344;}</style></defs><title>Ishop icon P2P_9-10</title><path class="cls-1" d="M18.59,22.41H3.64l-.1-.09A11.55,11.55,0,0,1,.12,14v-.73a1.83,1.83,0,0,1,1.83-1.82H20.29a1.83,1.83,0,0,1,1.83,1.82V14a11.46,11.46,0,0,1-3.43,8.31ZM3.92,21.7H18.31A11,11,0,0,0,21.4,14v-.73a1.11,1.11,0,0,0-1.11-1.1H1.94a1.11,1.11,0,0,0-1.11,1.1V14A11.06,11.06,0,0,0,3.92,21.7Z"/><path class="cls-1" d="M18.1,22.77v.76h-14v-.76h14m.35-.72H3.78a.39.39,0,0,0-.37.37v1.46a.39.39,0,0,0,.37.37H18.45a.37.37,0,0,0,.37-.37V22.42a.37.37,0,0,0-.37-.37Z"/><path class="cls-1" d="M8.5,12.19H4.67v-.36L3.79,3.76a.75.75,0,0,1,.58-.83L5.8,2.67a.72.72,0,0,1,.58.16.64.64,0,0,1,.24.49L8.5,11.83Zm-3.15-.72H7.7L5.92,3.39,4.5,3.63Z"/><path class="cls-1" d="M9.77,19.51A2.45,2.45,0,0,1,8,18.77c-1.37-1.37-1.39-4-1.39-4.13v-.36H7c.11,0,2.75,0,4.13,1.37l0,0c1.37-1.37,4-1.39,4.14-1.39h.36v.36c0,.11,0,2.76-1.39,4.13a2.63,2.63,0,0,1-3.08.43A3,3,0,0,1,9.77,19.51ZM7.35,15a5.49,5.49,0,0,0,1.16,3.24,1.92,1.92,0,0,0,2.3.27,3.36,3.36,0,0,0,0-2.14.66.66,0,0,0-.14-.17A5.63,5.63,0,0,0,7.35,15Zm4.2,3.54a1.89,1.89,0,0,0,2.18-.34A5.49,5.49,0,0,0,14.88,15a5.55,5.55,0,0,0-3.26,1.16l-.11.11A4.16,4.16,0,0,1,11.54,18.55Z"/></svg>