<svg id="Layer_1" data-name="Layer 1" xmlns="http://www.w3.org/2000/svg" viewBox="0 0 22.23 27.28"><defs><style>.cls-1{fill:#414042;}</style></defs><title>PLAIN OR FLAVORED MILK</title><path class="cls-1" d="M13.32,26.7H2.63a1.41,1.41,0,0,1-1.41-1.41V9H13.32ZM1.92,9.7V25.3a.71.71,0,0,0,.71.71h10V9.7Z"/><path class="cls-1" d="M19.58,26.7h-7V9.18l3-5.7h2.17L21,9.35V25.29A1.41,1.41,0,0,1,19.6,26.7ZM13.32,26h6.27a.71.71,0,0,0,.71-.71V9.44L17.42,4.19H16.08L13.32,9.44Z"/><path class="cls-1" d="M13.45,9.18,1.22,9l3-5.51H16.51ZM2.15,9h10.6l2.59-4.81H4.7Z"/><path class="cls-1" d="M18,4.19H4.14V2A1.41,1.41,0,0,1,5.54.58h11A1.41,1.41,0,0,1,18,1.94S18,2,18,2ZM4.83,3.49H17.28V2a.71.71,0,0,0-.71-.71h-11A.71.71,0,0,0,4.84,2V3.49Z"/><path class="cls-1" d="M13.32,23.37H1.22V12.21H13.32Zm-11.39-.7H12.61V12.91H1.92Z"/><path class="cls-1" d="M7.78,16.36a.16.16,0,1,1-.16-.16h0A.16.16,0,0,1,7.78,16.36Z"/><path class="cls-1" d="M10.23,17.42a2,2,0,0,0-1.66-1.54l-.39-.09a2.77,2.77,0,0,0,1.75-2.57.16.16,0,0,0-.16-.16A2.77,2.77,0,0,0,7.16,14.9a2.77,2.77,0,0,0-2.61-1.84.16.16,0,0,0-.16.16,2.77,2.77,0,0,0,1.75,2.57l-.39.09c-1,.27-1.55.8-1.66,1.54a5,5,0,0,0,.59,2.89,3.94,3.94,0,0,0,2.43,2.06H7.2a3.94,3.94,0,0,0,2.43-2.06,5,5,0,0,0,.59-2.89ZM8,14.09a2.43,2.43,0,0,1,1.57-.71,2.45,2.45,0,0,1-2.28,2.28A2.43,2.43,0,0,1,8,14.09Zm-3.32-.71A2.45,2.45,0,0,1,7,15.66,2.54,2.54,0,0,1,4.69,13.4Zm4.64,6.78a3.64,3.64,0,0,1-2.19,1.89A3.64,3.64,0,0,1,5,20.16a4.69,4.69,0,0,1-.56-2.7C4.61,16,7,16,7.15,16h0S9.7,16,9.9,17.46a4.69,4.69,0,0,1-.56,2.7Z"/><path class="cls-1" d="M9.15,17.57A.16.16,0,1,1,9,17.41H9a.16.16,0,0,1,.16.16Z"/><path class="cls-1" d="M6.4,19.22a.16.16,0,1,1-.16-.16h0A.16.16,0,0,1,6.4,19.22Z"/><path class="cls-1" d="M8.23,19.22a.16.16,0,1,1-.16-.16h0A.16.16,0,0,1,8.23,19.22Z"/><path class="cls-1" d="M5.49,17.57a.16.16,0,1,1-.16-.16h0A.16.16,0,0,1,5.49,17.57Z"/><path class="cls-1" d="M7.32,17.57a.16.16,0,1,1-.16-.16h0A.16.16,0,0,1,7.32,17.57Z"/><path class="cls-1" d="M7.32,20.87a.16.16,0,1,1-.16-.16h0A.16.16,0,0,1,7.32,20.87Z"/></svg>