<svg id="Layer_1" data-name="Layer 1" xmlns="http://www.w3.org/2000/svg" viewBox="0 0 22.23 27.28"><defs><style>.cls-1{fill:#444344;}</style></defs><title>Ishop icon P2P_9-10</title><path class="cls-1" d="M8.48,25.56,2.42,20.79l-.92-12L.64,5.08,4.21,4.5a2.26,2.26,0,0,1,.18-1.81,2.24,2.24,0,0,1,1.52-.93,3.22,3.22,0,0,1,3.32,2l3.55-.54L13.49,6l-1,1.81L3.51,9l4.42,2.72.19,4.67-.05-4.35.36-3.23,4.13-.45c.19-.81,1-3.39,3.39-3.52a2.1,2.1,0,0,1,1.86.67,2.51,2.51,0,0,1,.41,1.83l3.42-.71-.92,3.69.13,0L18.05,23ZM3,20.46l5.59,4.41,8.89-2.36L20,11.1,8.72,12.77l.14,11.71L7.78,23.4,7.31,12.11,2.15,8.94Zm6-11-.3,2.68v.26l.44-.7,11-1.78.59-2.38-3.39.7.13-.5a2.31,2.31,0,0,0-.21-1.75A1.52,1.52,0,0,0,16,5.52c-2.33.12-2.84,3.2-2.85,3.23l0,.24ZM1.42,5.6l.7,3,10-1.37.7-1.31-.5-2-3.52.54-.07-.28A2.59,2.59,0,0,0,6,2.39H6a1.61,1.61,0,0,0-1,.64,1.88,1.88,0,0,0,0,1.62L5,5Z"/><path class="cls-1" d="M13.76,21.16a3.14,3.14,0,0,1-1.67-.47c-1.68-1-2-3.49-.83-5.45s3.58-2.72,5.25-1.68h0c1.68,1,2,3.49.83,5.45A4.34,4.34,0,0,1,13.76,21.16Zm1.08-7.43a3.71,3.71,0,0,0-3,1.85c-1,1.67-.76,3.72.62,4.58s3.34.2,4.38-1.47.76-3.72-.62-4.58A2.53,2.53,0,0,0,14.84,13.73Z"/></svg>