<svg id="Layer_1" data-name="Layer 1" xmlns="http://www.w3.org/2000/svg" viewBox="0 0 17.18 28.16"><defs><style>.cls-1{fill:#414042;}</style></defs><title>iSHOP Dashboard_Elements</title><path class="cls-1" d="M14.08,27.31H1.71a.42.42,0,1,0,0,.85H14.08a.42.42,0,0,0,0-.85Z"/><path class="cls-1" d="M14.39,11.63a.43.43,0,0,0-.48.36l-.84,5.92c-.71.8-2.61,1.46-5.19.14a4.66,4.66,0,0,0-4.9.28L2.08,12a.43.43,0,0,0-.84.12l1.9,13.37a1.38,1.38,0,0,0-.65,1.17.42.42,0,1,0,.85,0,.54.54,0,0,1,.54-.54h8.25a.54.54,0,0,1,.54.54.42.42,0,1,0,.85,0,1.38,1.38,0,0,0-.65-1.17l1.9-13.37A.43.43,0,0,0,14.39,11.63ZM4,25.27l-.85-6a3.84,3.84,0,0,1,4.37-.48,6.93,6.93,0,0,0,3.18.84,4.58,4.58,0,0,0,2.23-.54L12,25.27Z"/><path class="cls-1" d="M3.85,7.64A.42.42,0,0,0,4.61,8,3.79,3.79,0,0,1,8,5.94a.42.42,0,1,0,0-.85A4.63,4.63,0,0,0,3.85,7.64Z"/><path class="cls-1" d="M12.5,12.48a.42.42,0,1,0,0-.85h-9a.42.42,0,1,0,0,.85Z"/><path class="cls-1" d="M16.71,0,13.46.37a2,2,0,0,0-1.56,1.1L10.61,4.09A6.21,6.21,0,0,0,1.78,9.38,2.29,2.29,0,0,0,0,11.61v1a.42.42,0,0,0,.85,0v-1a1.44,1.44,0,0,1,1.44-1.44H13.71a1.44,1.44,0,0,1,1.44,1.44v1a.42.42,0,0,0,.85,0v-1a2.29,2.29,0,0,0-1.78-2.23A6.23,6.23,0,0,0,11.35,4.5l1.31-2.65a1.14,1.14,0,0,1,.89-.63L16.81.85a.42.42,0,0,0-.1-.84ZM13.34,9.32H2.66a5.36,5.36,0,0,1,10.68,0Z"/></svg>