<svg id="Layer_1" data-name="Layer 1" xmlns="http://www.w3.org/2000/svg" viewBox="0 0 22.23 27.28"><defs><style>.cls-1{fill:#444344;}</style></defs><title>Ishop icon P2P_9-10</title><path class="cls-1" d="M12.57,5.13a5.58,5.58,0,0,1,3.77,4.23,1,1,0,0,0,.28.65.85.85,0,0,0,.61.23h.13a2.68,2.68,0,0,1,2,4.23,2.6,2.6,0,0,1-1.69,1.08,3.18,3.18,0,0,1-.52,0,2.61,2.61,0,0,1-1.84-.76l-.09-.08-.44-.36-.45.35A5.45,5.45,0,0,1,11,15.94h-.07a5.5,5.5,0,0,1-3.34-1.12l-.41-.3-.42.28-.19.13-.33.22a2.52,2.52,0,0,1-1.29.35,2.61,2.61,0,0,1-2-4.28,2.56,2.56,0,0,1,1.76-.92.81.81,0,0,0,.75-.73A5.55,5.55,0,0,1,9.25,5.14a2.6,2.6,0,0,0,3.32,0m-.16-.78a.12.12,0,0,0-.09,0,1.9,1.9,0,0,1-2.8,0,.14.14,0,0,0-.11-.05H9.36A6.26,6.26,0,0,0,4.74,9.48c0,.07,0,.12-.11.13a3.31,3.31,0,0,0,.31,6.61,3.25,3.25,0,0,0,1.64-.45c.19-.11.37-.25.56-.38a6.17,6.17,0,0,0,3.76,1.26H11a6.19,6.19,0,0,0,3.82-1.36l.06,0a3.32,3.32,0,0,0,2.32,1,3.88,3.88,0,0,0,.64-.06,3.39,3.39,0,0,0-.43-6.72h-.18a.17.17,0,0,1-.12,0c-.06-.06-.05-.2-.07-.3a6.26,6.26,0,0,0-4.58-4.83Z"/><path class="cls-1" d="M16.1,25.57H5.93a.48.48,0,0,1-.49-.34L2.36,16.29l.84.54A3,3,0,0,0,7,16.7l.21-.16.22.16A6,6,0,0,0,11,17.88a5.86,5.86,0,0,0,3.59-1.27l.23-.18.22.19a3.09,3.09,0,0,0,4,.32l.82-.5-.34,1L16.6,25.24A.49.49,0,0,1,16.1,25.57ZM11,24.86h5L18.59,18a3.65,3.65,0,0,1-3.75-.62A6.52,6.52,0,0,1,11,18.59a6.65,6.65,0,0,1-3.84-1.18,3.53,3.53,0,0,1-3.56.46l2.43,7Z"/><path class="cls-1" d="M11.12,1.45a1.2,1.2,0,1,1-1.2,1.2,1.2,1.2,0,0,1,1.2-1.2h0m0-.71h0a1.91,1.91,0,0,0,0,3.82h0a1.91,1.91,0,0,0,0-3.82Z"/><path class="cls-1" d="M16.28,26.92H5.95a1,1,0,1,1,0-2.05H16.28a1,1,0,0,1,0,2.05ZM5.95,25.57a.32.32,0,0,0,0,.63H16.28a.32.32,0,0,0,0-.63Z"/></svg>