<svg id="Layer_1" data-name="Layer 1" xmlns="http://www.w3.org/2000/svg" viewBox="0 0 22.23 27.28"><defs><style>.cls-1{fill:none;}.cls-2{fill:#444345;}.cls-3{fill:#444344;}</style></defs><title>Ishop icon P2P_9-10</title><path class="cls-1" d="M21.76,18.94a2.63,2.63,0,0,1-2.36,2.82H2.83A2.63,2.63,0,0,1,.47,18.94V8.34A2.63,2.63,0,0,1,2.83,5.51H19.4a2.63,2.63,0,0,1,2.36,2.82Z"/><path class="cls-2" d="M17.94,12.91a13.77,13.77,0,0,0-6.49-4.06,11.58,11.58,0,0,0-4.94-.51,5.42,5.42,0,0,0-1.59.5A4.47,4.47,0,0,0,2.42,12.5a2.64,2.64,0,0,0,1.22,2.35A11.25,11.25,0,0,0,6.88,16,22.16,22.16,0,0,1,11,17.32c2.9,1.35,5.14,1.92,6.65,1.68a2.38,2.38,0,0,0,2.07-1.76h0C20,16.16,19.31,14.46,17.94,12.91ZM5,9.14a7.2,7.2,0,0,1,1.54-.46,10.87,10.87,0,0,1,4.87.51c3,.9,5.65,3,5.7,3.28s-1.6,1.71-2,1.4-.43-.57-.72-.89a7.74,7.74,0,0,0-3.66-2.24,7.5,7.5,0,0,0-2.32-.32.94.94,0,0,1-.35,0,1.26,1.26,0,0,1-.35-.2,7.54,7.54,0,0,0-3-.88C4.78,9.23,4.92,9.19,5,9.14Zm10.24,6.14a1.18,1.18,0,0,1-1,.84,7.13,7.13,0,0,1-3.66-.9,20,20,0,0,0-2.35-.74c-.71-.23-1.42-.55-1.41-1.41a2.88,2.88,0,0,1,1.47-2,4,4,0,0,1,2.51,0,8.13,8.13,0,0,1,3.55,2.16A2.8,2.8,0,0,1,15.28,15.28Zm-8.38.38C4.15,15,2.71,14.52,2.66,12.53a3.59,3.59,0,0,1,1-2.27A3.07,3.07,0,0,1,4,9.9c.61-.47,3.42.15,3.4.67,0,.11,0,.08-.26.21a2.58,2.58,0,0,0-1.45,2.05c0,1.38,1.09,1.63,2.55,2a12.53,12.53,0,0,1,2.31.73,13.44,13.44,0,0,0,3.05,1c.42.09,1.55,1.49,1.84,2A18.29,18.29,0,0,1,11.06,17,22.24,22.24,0,0,0,6.89,15.65Zm12.63,1.43a2.18,2.18,0,0,1-1.91,1.58,4.83,4.83,0,0,1-1,0,3.83,3.83,0,0,1-2.22-2.26c.14-.19,1-.29,1.11-1a3.9,3.9,0,0,0,0-.86c.07-.3,1-.51,1.25-.78s.45-.95.66-1,.27.22.4.37C19.09,14.61,19.76,16.15,19.52,17.08Z"/><path class="cls-2" d="M16.94,19.29a15.38,15.38,0,0,1-6-1.75,22,22,0,0,0-4.09-1.33,11.37,11.37,0,0,1-3.31-1.16,2.87,2.87,0,0,1-1.33-2.55A4.72,4.72,0,0,1,4.82,8.63,5.66,5.66,0,0,1,6.48,8.1a11.83,11.83,0,0,1,5,.52,14,14,0,0,1,6.6,4.13h0c1.42,1.61,2.14,3.39,1.85,4.54a2.61,2.61,0,0,1-2.27,1.94A4.85,4.85,0,0,1,16.94,19.29Zm-1.35-.61.5.08a3.45,3.45,0,0,1-.38-.23l-.12.15Zm1.06-.2a4.44,4.44,0,0,0,.93,0A1.93,1.93,0,0,0,19.29,17c.21-.85-.46-2.33-1.66-3.7l-.08-.09-.11-.13-.09.18a2.62,2.62,0,0,1-.43.68,2.14,2.14,0,0,1-.67.39,2,2,0,0,0-.53.3l0,.12a2,2,0,0,1,0,.72,1.49,1.49,0,0,1-1,1l-.12.06A4.1,4.1,0,0,0,16.65,18.47ZM7,15.42a22.34,22.34,0,0,1,4.21,1.37,28.75,28.75,0,0,0,3.76,1.38,5.9,5.9,0,0,0-1.39-1.44l-.13,0a13.53,13.53,0,0,1-3-1A12.33,12.33,0,0,0,8.17,15c-1.45-.35-2.69-.65-2.73-2.21A2.84,2.84,0,0,1,7,10.56l.08,0A3.66,3.66,0,0,0,5.9,10.1a3,3,0,0,0-1.77,0,2.93,2.93,0,0,0-.33.33,3.37,3.37,0,0,0-.91,2.11C2.94,14.26,4,14.7,7,15.42Zm6.94,1a2.19,2.19,0,0,1,.26.2.37.37,0,0,1,0-.22ZM9.41,11.11a2.09,2.09,0,0,0-1,.18,2.66,2.66,0,0,0-1.36,1.78c0,.64.46.92,1.25,1.18l.76.22a9.81,9.81,0,0,1,1.61.53,7,7,0,0,0,3.52.88,1,1,0,0,0,.85-.66,2.65,2.65,0,0,0-.88-1.84,7.8,7.8,0,0,0-3.44-2.09A4.78,4.78,0,0,0,9.41,11.11Zm5.87,3,.09.19a2,2,0,0,1,.7-.42,2.17,2.17,0,0,0,.51-.28,1.47,1.47,0,0,0,.17-.23,4.83,4.83,0,0,1-.72.51A1.36,1.36,0,0,1,15.27,14.14ZM7.54,10.31a.43.43,0,0,1,.09.27.34.34,0,0,1-.24.33L7.24,11a2.37,2.37,0,0,0-1.33,1.84c0,.86.45,1.21,1.33,1.48a1.4,1.4,0,0,1-.66-1.23,3.08,3.08,0,0,1,1.58-2.19A2,2,0,0,1,9,10.65H8.51a1.18,1.18,0,0,1-.44,0,1.13,1.13,0,0,1-.34-.18l-.07,0Zm1.18-.14a8.19,8.19,0,0,1,2.15.33,8,8,0,0,1,3.78,2.31,5.31,5.31,0,0,1,.36.47,2.63,2.63,0,0,0,.33.41,2.1,2.1,0,0,0,.73-.36,2.3,2.3,0,0,0,.83-.84,15.48,15.48,0,0,0-5.53-3.07,10.73,10.73,0,0,0-4.76-.5,6.47,6.47,0,0,0-1,.27,5.34,5.34,0,0,1,2.32.8L8,10a.65.65,0,0,0,.21.11.7.7,0,0,0,.27,0ZM4.56,9.34l-.26.19.34,0a.26.26,0,0,1-.07-.14ZM5,9.12H5l0,0H5Z"/><path class="cls-3" d="M19.4,22.13H2.83A3,3,0,0,1,.12,18.95V8.33A3,3,0,0,1,2.83,5.15H19.4a3,3,0,0,1,2.71,3.18V18.95A3,3,0,0,1,19.4,22.13ZM2.83,5.87a2.27,2.27,0,0,0-2,2.46V18.95a2.27,2.27,0,0,0,2,2.46H19.4a2.27,2.27,0,0,0,2-2.46V8.33a2.27,2.27,0,0,0-2-2.46Z"/><path class="cls-3" d="M13,19.23h-9A1.25,1.25,0,0,1,2.84,18V15.6a.36.36,0,0,1,.72,0V18a.53.53,0,0,0,.53.53h9a.36.36,0,0,1,0,.72Z"/><path class="cls-3" d="M19,14.91a.36.36,0,0,1-.36-.36V9.29a.53.53,0,0,0-.53-.53H4.08a.53.53,0,0,0-.53.53v1.27a.36.36,0,0,1-.72,0V9.29A1.25,1.25,0,0,1,4.08,8H18.15a1.25,1.25,0,0,1,1.24,1.24v5.26A.36.36,0,0,1,19,14.91Z"/><path class="cls-3" d="M16.82,20a14.23,14.23,0,0,1-5.67-1.65,16.2,16.2,0,0,0-4.65-1.26c-2.24-.35-4-.63-4.36-3.07a6.81,6.81,0,0,1,.05-1.65l.71.13a6.31,6.31,0,0,0-.05,1.4c.29,1.94,1.6,2.14,3.77,2.49a17.07,17.07,0,0,1,4.84,1.32c4.36,2.05,6.26,1.73,7.1,1.1a2.61,2.61,0,0,0,.8-2.29l.7-.14a3.37,3.37,0,0,1-1,3A3.46,3.46,0,0,1,16.82,20Z"/><polygon class="cls-1" points="5.08 20.91 8.2 15.18 4.34 20.91 5.08 20.91"/><polygon class="cls-1" points="7.37 20.91 10 14.83 6.63 20.91 7.37 20.91"/></svg>