<svg id="Layer_1" data-name="Layer 1" xmlns="http://www.w3.org/2000/svg" viewBox="0 0 19.15 24.63"><defs><style>.cls-1{fill:#414042;}</style></defs><title>iSHOP Dashboard_Elements</title><path class="cls-1" d="M3.47,2.38H2.8a.41.41,0,0,0,0,.81h.67a.41.41,0,0,0,0-.81Z"/><path class="cls-1" d="M4.64,3.18h.67a.41.41,0,1,0,0-.81H4.64a.41.41,0,1,0,0,.81Z"/><path class="cls-1" d="M6.48,3.16h.67a.41.41,0,1,0,0-.81H6.48a.41.41,0,1,0,0,.81Z"/><path class="cls-1" d="M8.32,3.14H9a.41.41,0,0,0,0-.81H8.32a.41.41,0,0,0,0,.81Z"/><path class="cls-1" d="M10.16,3.12h.67a.4.4,0,1,0,0-.81h-.67a.4.4,0,1,0,0,.81Z"/><path class="cls-1" d="M12,3.1h.67a.41.41,0,1,0,0-.81H12a.41.41,0,1,0,0,.81Z"/><path class="cls-1" d="M13.84,3.08h.67a.41.41,0,1,0,0-.81h-.67a.41.41,0,1,0,0,.81Z"/><path class="cls-1" d="M16.36,2.25h-.67a.41.41,0,1,0,0,.81h.67a.41.41,0,1,0,0-.81Z"/><path class="cls-1" d="M3.47,21.44H2.8a.41.41,0,1,0,0,.81h.67a.41.41,0,1,0,0-.81Z"/><path class="cls-1" d="M5.31,21.46H4.64a.41.41,0,1,0,0,.81h.67a.41.41,0,1,0,0-.81Z"/><path class="cls-1" d="M7.15,21.47H6.48a.41.41,0,0,0,0,.81h.67a.41.41,0,0,0,0-.81Z"/><path class="cls-1" d="M9,21.49H8.32a.4.4,0,1,0,0,.81H9a.4.4,0,1,0,0-.81Z"/><path class="cls-1" d="M10.83,21.51h-.67a.41.41,0,0,0,0,.81h.67a.41.41,0,1,0,0-.81Z"/><path class="cls-1" d="M12.67,21.53H12a.4.4,0,1,0,0,.81h.67a.4.4,0,1,0,0-.81Z"/><path class="cls-1" d="M14.51,21.55h-.67a.41.41,0,1,0,0,.81h.67a.41.41,0,1,0,0-.81Z"/><path class="cls-1" d="M16.36,21.57h-.67a.41.41,0,1,0,0,.81h.67a.41.41,0,1,0,0-.81Z"/><path class="cls-1" d="M14.6,9.86a3.19,3.19,0,0,0-2.23-1.73,3.31,3.31,0,0,0-2.84.71L5,12.63a2.3,2.3,0,0,0-.82,2.12,1.54,1.54,0,0,0,1.26,1.32,2.15,2.15,0,0,0,.47.05,2.36,2.36,0,0,0,1.4-.48l.29-.22a.41.41,0,0,0-.19-.73.39.39,0,0,0-.3.08L6.85,15a1.47,1.47,0,0,1-1.21.29A.74.74,0,0,1,5,14.62a1.49,1.49,0,0,1,.55-1.36l.39-.33a13.64,13.64,0,0,1,2.82,1.83,3.44,3.44,0,0,0,3.74.59,4.24,4.24,0,0,0,2.28-2.53,3.85,3.85,0,0,0-.14-2.9ZM14,12.55a3.44,3.44,0,0,1-1.86,2.06,2.62,2.62,0,0,1-2.86-.46,13.72,13.72,0,0,0-2.68-1.79l3.45-2.9a2.52,2.52,0,0,1,2.15-.54,2.39,2.39,0,0,1,1.67,1.29l0,0A3,3,0,0,1,14,12.55Z"/><path class="cls-1" d="M18.09,21.84a42.77,42.77,0,0,0,0-19.08V0h-17V2.73a42.79,42.79,0,0,0,0,19.11L.53,22h.56v2.66h17V22h.56Zm-.8-.12h0v.11l0,.07h0v1.92H1.9V21.9h0l0-.07v-.11h0a42.11,42.11,0,0,1,0-18.87v-2H17.26V2.88A42,42,0,0,1,17.28,21.72Z"/></svg>