<svg id="Layer_1" data-name="Layer 1" xmlns="http://www.w3.org/2000/svg" viewBox="0 0 500 500"><defs><style>.cls-1{fill:#414042;}</style></defs><title>Icons</title><path class="cls-1" d="M425.57,430.05c-12.92,8.6-25.5,17.1-38.29,25.29-1.12.72-3.87-.19-5.37-1.13-6.62-4.15-13.19-8.41-19.52-13-3-2.2-5.25-1.91-8.13.15-6,4.3-12.47,8-18.39,12.47-3.45,2.59-5.91,2.32-9.24-.11-6.14-4.48-12.74-8.35-18.92-12.78-2.63-1.88-4.35-1.33-7.09,0-11.44,5.4-17.4,13.3-14.83,26.58.87,4.51.14,9.34.14,14.62H457.2V500H42.8V482.34H214c0-10.18.13-19.78-.14-29.37,0-1.44-1.7-3.18-3.05-4.19-14.26-10.68-14.28-10.64-29-.77-13.13,8.79-13.13,8.79-26.11.14-4.61-3.08-9.22-6.17-14.08-9.43-7.65,5.06-15.29,9.89-22.67,15.09-3.09,2.18-5.37,2.6-8.72.27C98.57,446,86.69,438.26,74.38,430l60.13-77.28-33-22.15,60.12-77.3-32.88-22L250,69.66,371.19,231.28l-32.88,22,60.14,77.37-33,22.06Zm-25.94-4.2c-2.11-2.75-3.83-5-5.59-7.3l-56.12-72.08c-6-7.66-6-7.66-13.75-2.47-5.3,3.54-10.72,6.92-15.86,10.69-2.89,2.12-5.12,2.32-8.11.12-5.81-4.25-12.15-7.78-17.81-12.2-4-3.14-7-2.73-10.81.16A205.06,205.06,0,0,1,253.08,355a7.3,7.3,0,0,1-6.28,0c-6.87-4.13-13.52-8.63-20.06-13.27-2.76-2-4.86-2.15-7.67-.1-5.32,3.87-11.16,7-16.29,11.14-4.85,3.87-8.78,4.57-13.81.21-4.32-3.74-9.77-6.15-14.2-9.79-4.94-4.05-7.88-3.37-11.76,1.73-19.59,25.68-39.57,51.07-59.39,76.57-1.07,1.37-1.93,2.9-3,4.56l13.8,9.2c7.93-5.29,15.7-10.3,23.27-15.6,2.79-2,4.87-2,7.68,0,6.53,4.66,13.19,9.15,20.07,13.26a7.34,7.34,0,0,0,6.31,0c6.71-4,13.23-8.33,19.58-12.88,3.12-2.24,5.44-2.51,8.69-.12,6.12,4.51,12.76,8.3,18.9,12.8,3.07,2.25,5.25,1.9,8.12-.14,6.2-4.4,12.74-8.33,18.9-12.8,3-2.19,5.22-2.08,8.19.05,6.35,4.55,13.06,8.6,19.43,13.12,2.59,1.84,4.46,1.89,7.06,0,6-4.31,12.44-8.05,18.38-12.46,3.68-2.73,6.5-3,10.29-.13,5.54,4.24,11.76,7.6,17.31,11.84,3.6,2.75,6.22,2.4,9.68-.15,6-4.39,12.38-8.14,18.37-12.48,2.83-2,4.87-1.9,7.65,0,7.57,5.3,15.34,10.3,23.27,15.57ZM127.39,326.39c3.52,2.37,6.58,4.09,9.21,6.31,3.39,2.86,6.16,2.78,9.74.07,5.57-4.21,11.73-7.62,17.34-11.78,3.44-2.55,6-2.92,9.65-.17,5.72,4.35,12.08,7.84,17.84,12.14,3.44,2.57,5.94,2.3,9.27-.13,6.14-4.48,12.72-8.35,18.91-12.77,2.63-1.88,4.46-1.79,7,0,6.37,4.52,13.09,8.54,19.43,13.1,3,2.13,5.19,2.28,8.2.09,5.81-4.23,12.1-7.82,17.84-12.14,3.65-2.75,6.38-3.11,10.2-.18,5.69,4.38,12,7.88,17.82,12.16,3.23,2.4,5.59,2.15,8.71-.11,6.16-4.45,12.71-8.36,18.9-12.79,2.76-2,4.76-2.08,7.58,0,6.49,4.69,13.16,9.18,20,13.31a7.77,7.77,0,0,0,6.41.12c3.78-1.88,7.13-4.62,11-7.26L304.8,239.46c-8.56,5.69-16.18,10.56-23.57,15.76-3,2.09-5.2,2.27-8.23.08-6.15-4.46-12.69-8.41-18.87-12.83-2.9-2.07-5.14-2.34-8.16-.11-5.62,4.14-11.77,7.59-17.32,11.82-4,3.06-7.12,3.52-11.34.21-5.65-4.43-12-7.9-17.81-12.18-3.31-2.45-5.28-1.78-7.59,1.2C170.63,270.87,149.26,298.28,127.39,326.39Zm27-99.53c3.51,2.39,6.7,4.27,9.55,6.58,3.17,2.56,5.74,2.74,9.19.14,5.91-4.44,12.4-8.09,18.37-12.46,3.22-2.36,5.54-2.15,8.68.12,6.32,4.58,12.85,8.91,19.55,12.9a7.34,7.34,0,0,0,6.31,0c6.87-4.12,13.53-8.62,20.06-13.25,2.75-2,4.81-2.13,7.64-.1,6.18,4.43,12.82,8.23,18.87,12.81,3.49,2.64,5.91,2.21,9.17-.15,6.15-4.46,12.46-8.75,19-12.59a8,8,0,0,1,6.87,0C314.56,225,321,229.74,327.82,234c1.46.92,4,1.69,5.3,1,4.25-2.3,8.12-5.28,12.44-8.2L250,99.4Zm113,254.94c.35-.7.69-1.05.69-1.41.08-7.4-.24-14.82.3-22.18.4-5.42-1.45-8.58-6-11.46-12.54-7.85-12.44-8.12-25,.4-2.11,1.43-5.28,3.43-5.38,5.31-.54,9.75-.25,19.55-.25,29.34Z"/><path class="cls-1" d="M249.95,0c3.19,7.26,6.19,13.84,9,20.51A4.8,4.8,0,0,0,263.67,24c7.21.5,14.39,1.4,22.14,2.2-.9.95-1.43,1.58-2,2.12-4.88,4.37-9.7,8.79-14.69,13a4.45,4.45,0,0,0-1.72,5.1c1.55,6.35,2.83,12.76,4.2,19.15.18.85.26,1.73.46,3.1C265.39,64.8,259.1,61.27,253,57.5c-2.19-1.35-3.82-1.52-6.12-.08-6.11,3.83-12.44,7.33-19.34,11.34,1-5,1.93-9.27,2.84-13.56.64-3,1.22-6,2-9a4,4,0,0,0-1.46-4.64c-5.62-4.85-11.1-9.85-17.23-15.32,3.62-.42,6.57-.8,9.54-1.1,4.63-.47,9.29-.76,13.9-1.43a4.84,4.84,0,0,0,3.15-2.36c2.88-6.08,5.51-12.29,8.24-18.45C248.85,2.12,249.26,1.37,249.95,0Zm-.1,21.2c-1.36,3.06-2.58,5.32-3.37,7.71a4,4,0,0,1-4.1,3c-2.6.14-5.18.52-8.41.86,2.48,2.24,4.35,4.13,6.44,5.75,1.67,1.3,1.94,2.69,1.4,4.64-.7,2.52-1.1,5.12-1.74,8.25a73.51,73.51,0,0,0,6.68-3.88c2.25-1.64,4.13-1.57,6.34.06a71.65,71.65,0,0,0,6.54,3.81,57.67,57.67,0,0,0-1.58-7.49c-1-2.72-.14-4.44,2-6.07,1.86-1.4,3.48-3.1,5.65-5.08-3.38-.36-6.1-.72-8.83-.91a3.49,3.49,0,0,1-3.47-2.55C252.5,26.83,251.3,24.44,249.85,21.2Z"/></svg>