<svg id="Layer_1" data-name="Layer 1" xmlns="http://www.w3.org/2000/svg" viewBox="0 0 25.86 23.49"><defs><style>.cls-1{fill:#414042;}</style></defs><title>iSHOP Dashboard_Elements</title><path class="cls-1" d="M23.4,2.81a10.69,10.69,0,0,0-2.53-2c-1.33-.74-5-1.59-7.45.76l-1,1-.82-.82C8.7-1.09,4.72,0,2.27,2.43c-2.29,2.33-3.45,6.15-.55,9L3.25,13l-.43.43a1.86,1.86,0,0,0,0,2.63l.17.17a1.87,1.87,0,0,0,1.72.5,1.94,1.94,0,0,0,0,.34,1.85,1.85,0,0,0,.54,1.31l.17.17A1.87,1.87,0,0,0,7.24,19a1.86,1.86,0,0,0,.53,1.55l.17.17a1.86,1.86,0,0,0,1.79.48,1.86,1.86,0,0,0,.53,1.55l.17.17a1.84,1.84,0,0,0,1.31.54h0a1.85,1.85,0,0,0,1.31-.54l1.48-1.48a1.84,1.84,0,0,0,.49-.91l.13.13a1.81,1.81,0,0,0,1.31.55,2.15,2.15,0,0,0,1.47-.61,1.81,1.81,0,0,0,.57-1.42,2.14,2.14,0,0,0,2-.56,1.86,1.86,0,0,0,.59-1.57,1.74,1.74,0,0,0,1.48-.49,2,2,0,0,0,.15-2.85h0l1.48-1.47C27.06,9.39,25.85,5.46,23.4,2.81ZM5.09,15.7a1.11,1.11,0,0,1-1.57,0l-.17-.17a1.11,1.11,0,0,1,0-1.57l2.21-2.21a1.11,1.11,0,0,1,1.57,0l.17.17a1.12,1.12,0,0,1,0,1.57ZM7.5,18a1.11,1.11,0,0,1-1.57,0l-.17-.17a1.11,1.11,0,0,1,0-1.57l3.52-3.52a1.11,1.11,0,0,1,1.57,0l.17.17a1.11,1.11,0,0,1,0,1.57ZM10,20.21a1.11,1.11,0,0,1-1.57,0L8.3,20a1.11,1.11,0,0,1,0-1.57l2.41-2.41a1.11,1.11,0,0,1,1.57,0l.17.17a1.11,1.11,0,0,1,0,1.57Zm4.29-.06a1.1,1.1,0,0,1-.32.78l-1.48,1.48a1.12,1.12,0,0,1-1.57,0l-.17-.17a1.11,1.11,0,0,1,0-1.57l1.48-1.48A1.06,1.06,0,0,1,13.6,19l0,0,.7.7A1.1,1.1,0,0,1,14.33,20.15Zm7.89-7L16.55,7.21,16,7.73l6.21,6.5a1.29,1.29,0,0,1-.13,1.8,1,1,0,0,1-1.57-.13h0l-3.12-3.22-.54.52.22.22h0l2.91,3h0a1.1,1.1,0,0,1,0,1.68,1.24,1.24,0,0,1-1.75.1l-3.2-3.28-.54.52,2.86,2.94,0,0a1.08,1.08,0,0,1,.07,1.66,1.22,1.22,0,0,1-1.72.07l-.79-.8a1.83,1.83,0,0,0-.36-.52l-.17-.17h0a1.85,1.85,0,0,0-1.21-.54A1.86,1.86,0,0,0,13,15.69l-.17-.17A1.86,1.86,0,0,0,11.6,15a1.86,1.86,0,0,0,0-2.58l-.17-.17h0a1.91,1.91,0,0,0-2.63,0l-.38.38a1.85,1.85,0,0,0-.54-1.22l-.17-.17a1.85,1.85,0,0,0-1.31-.54h0A1.85,1.85,0,0,0,5,11.22L3.78,12.47,2.25,10.94C-.28,8.41.76,5,2.81,3s5.6-3.28,8.25-.7l.82.81L8.59,6.33A1.1,1.1,0,0,0,8.53,8a3.26,3.26,0,0,0,4.23-.21L14,6.59c.63-.57,1.32-.4,2.39-.08,1.23.37,2.76.83,4.44-.49l-.46-.59c-1.37,1.08-2.58.71-3.76.36s-2.14-.65-3.13.25l-1.21,1.2a2.53,2.53,0,0,1-3.17.22c-.14-.14-.23-.31.05-.59l4.82-4.79C16,0,19.32.78,20.5,1.43a9.94,9.94,0,0,1,2.35,1.89c2,2.2,3.5,5.72.84,8.37Z"/></svg>