<svg id="Layer_1" data-name="Layer 1" xmlns="http://www.w3.org/2000/svg" viewBox="0 0 23.59 24.7"><defs><style>.cls-1{fill:#414042;}</style></defs><title>iSHOP Dashboard_Elements</title><path class="cls-1" d="M23.57,10.42c0-2.86-3.54-6.46-8.9-8.7A20.64,20.64,0,0,0,7,0C4.16,0,2.24.87,1.57,2.45c-.54,1.28-.13,2.82,1,4.36C.91,7.82,0,9.08,0,10.42V19c0,3.22,5.18,5.74,11.8,5.74s11.8-2.52,11.8-5.74V10.42ZM2.45,2.82C2.94,1.63,4.6.95,7,.95A19.69,19.69,0,0,1,14.3,2.59c5.43,2.27,9.16,6.21,8.16,8.61-.5,1.19-2.15,1.87-4.54,1.87a19.69,19.69,0,0,1-7.32-1.64C5.18,9.16,1.44,5.21,2.45,2.82Zm.72,4.73a19.69,19.69,0,0,0,7.07,4.75A20.64,20.64,0,0,0,17.93,14c.39,0,.76,0,1.11-.05-.42.17-.87.32-1.34.46a21,21,0,0,0-5.93-.81,21,21,0,0,0-5.89.8c-2.95-.87-4.94-2.35-4.94-4C.95,9.39,1.73,8.39,3.17,7.55Zm13.26,7.19a22.41,22.41,0,0,1-4.64.47,22.18,22.18,0,0,1-4.65-.48,21.31,21.31,0,0,1,4.63-.49A21.29,21.29,0,0,1,16.43,14.74Zm6.21,0c0,1.59-1.93,3.13-5,4l.26.91A10,10,0,0,0,22.65,17V19c0,2.6-5,4.79-10.85,4.79S.95,21.56.95,19V17a10.36,10.36,0,0,0,5.2,2.75l.24-.91C3,18,.95,16.41.95,14.73v-2c1.78,2,5.92,3.45,10.85,3.45s9-1.41,10.85-3.46Z"/><path class="cls-1" d="M7.89,19.67c0,1.12,1.37,2,3.13,2a3.86,3.86,0,0,0,2.55-.83l1.09.61a1,1,0,0,0,1,0,1,1,0,0,0,.5-.86V18.75a1,1,0,0,0-.5-.86,1,1,0,0,0-1,0l-1.09.61A3.86,3.86,0,0,0,11,17.67C9.26,17.67,7.89,18.54,7.89,19.67Zm6.2-.38,1-.58a.08.08,0,0,1,.08,0,0,0,0,0,1,0,0v1.83a0,0,0,0,1,0,0,.08.08,0,0,1-.08,0l-1-.58a1.32,1.32,0,0,0,0-.76Zm-.89.38c0,.5-.93,1.05-2.18,1.05s-2.18-.56-2.18-1.05.93-1.05,2.18-1.05S13.2,19.17,13.2,19.67Z"/><path class="cls-1" d="M6.89,6.7A4,4,0,0,0,8.4,7a1.82,1.82,0,0,0,1.8-1,1.67,1.67,0,0,0-.3-1.64A3.72,3.72,0,0,0,8.33,3.26a4,4,0,0,0-1.51-.32A1.82,1.82,0,0,0,5,3.9C4.63,4.87,5.44,6.1,6.89,6.7Zm-1-2.44c.1-.24.45-.38.92-.38A3,3,0,0,1,8,4.13,2.81,2.81,0,0,1,9.13,5a.77.77,0,0,1,.19.71c-.1.23-.45.38-.92.38a3,3,0,0,1-1.14-.25C6.28,5.42,5.73,4.67,5.9,4.27Z"/></svg>