<svg id="Layer_1" data-name="Layer 1" xmlns="http://www.w3.org/2000/svg" viewBox="0 0 26 40"><defs><style>.cls-1{fill:#8dc63f;}.cls-2{fill:#fff;}.cls-3{fill:#333;}.cls-4{fill:#414042;}.cls-5{fill:#f6d056;}.cls-6{fill:#45a5da;}.cls-7{fill:#f15f2e;}</style></defs><title>iSHOP Dashboard_Elements</title><rect class="cls-1" x="1.65" y="12.48" width="10.19" height="4.78"/><path class="cls-2" d="M11.79,11.86H1.68A7.48,7.48,0,0,1,5.11,7s.95-.56,1-2.65h1.2c.08,2.09,1,2.63,1,2.66A7.48,7.48,0,0,1,11.79,11.86Z"/><path class="cls-3" d="M11.57,30.18l.87-12.3h0v-6h0A7.94,7.94,0,0,0,8.71,6.5S8,6.05,8,4.37h.89v-.9h.27V1H4.36V3.47h.26v.9h.89C5.45,6,4.79,6.49,4.78,6.5a7.92,7.92,0,0,0-3.72,5.36H1v6H1L1.91,30A1.76,1.76,0,0,0,1,32v1.78a2.07,2.07,0,0,0,2.1,2.1,1.9,1.9,0,0,0,1.8-1,1.91,1.91,0,0,0,1.8,1,1.91,1.91,0,0,0,1.8-1,1.9,1.9,0,0,0,1.79,1,2.08,2.08,0,0,0,2.11-2.1V32A1.7,1.7,0,0,0,11.57,30.18ZM5,1.66H8.51V2.85H5Zm.27,2.09V3.47h3v.28ZM5.11,7s.95-.56,1-2.65h1.2c.08,2.09,1,2.63,1,2.66a7.47,7.47,0,0,1,3.4,4.83H1.68A7.48,7.48,0,0,1,5.11,7ZM1.65,12.48H11.83v4.78H1.65Zm10.2,19.45v1.86a1.49,1.49,0,0,1-3,0v-.13H8.24v.13a1.46,1.46,0,0,1-1.49,1.49,1.44,1.44,0,0,1-1.49-1.49v-.13H4.63v.13a1.45,1.45,0,0,1-1.49,1.49,1.45,1.45,0,0,1-1.49-1.49V32c-.16-1.29.62-1.47.66-1.47l.26-.05,0-.27L1.67,17.88H11.82L10.92,30.6l.23.07A1.1,1.1,0,0,1,11.84,31.93Z"/><rect class="cls-1" x="4.97" y="1.66" width="3.54" height="1.18"/><rect class="cls-3" x="6.43" y="22.4" width="0.62" height="7.91"/><polygon class="cls-3" points="3.8 22.38 4.3 30.29 3.69 30.33 3.18 22.42 3.8 22.38"/><rect class="cls-4" x="13.7" y="13.85" width="11.6" height="0.6"/><rect class="cls-5" x="16.08" y="6.7" width="6.8" height="1.6"/><rect class="cls-5" x="13.7" y="14.15" width="11.49" height="21.49"/><polygon class="cls-2" points="8.15 20.67 21.44 20.54 18.57 17.7 10.96 17.7 8.15 20.67"/><rect class="cls-2" x="8.15" y="25.2" width="13.45" height="8.88"/><rect class="cls-6" x="8.15" y="20.67" width="13.5" height="4.42"/><rect class="cls-6" x="8.09" y="34.17" width="13.52" height="4.45"/><rect class="cls-7" x="11.04" y="16.11" width="7.53" height="1.4"/><circle class="cls-7" cx="11.9" cy="28.88" r="2.08"/><path class="cls-4" d="M11.9,31.21a2.33,2.33,0,1,1,2.33-2.33A2.33,2.33,0,0,1,11.9,31.21Zm0-4.16a1.83,1.83,0,1,0,1.83,1.83A1.83,1.83,0,0,0,11.9,27.05Z"/><path class="cls-4" d="M21.78,20.45l-2.94-2.93V16.15a.25.25,0,0,0-.25-.25H11.07a.25.25,0,0,0-.25.25V17.4l-2.94,3a.25.25,0,0,0-.07.17v18a.25.25,0,0,0,.25.25H21.6a.25.25,0,0,0,.25-.25v-18A.25.25,0,0,0,21.78,20.45ZM11.17,17.76l6.82.11-2.53,2.51H8.64Zm4.15,3.12v4h-7v-4Zm.5,0h5.53v4H15.81Zm-7.51,4.5h7l0,8.49-7,0Zm7.5,0h5.55v8.51l-5.58,0Zm5.19-5H16.18L18.59,18Zm-2.66-4v1l-7-.11V16.4Zm-10,17.94,7,0v4h-7Zm7.45,4.05v-4l5.58,0v4Z"/><path class="cls-4" d="M19.62,32.89h-2a.7.7,0,0,1-.7-.7V27.08a.7.7,0,0,1,.7-.7h2a.7.7,0,0,1,.7.7v5.11A.7.7,0,0,1,19.62,32.89Zm-2-6a.2.2,0,0,0-.2.2v5.11a.2.2,0,0,0,.2.2h2a.2.2,0,0,0,.2-.2V27.08a.2.2,0,0,0-.2-.2Z"/><path class="cls-4" d="M14.08,32.89H9.45a.25.25,0,0,1,0-.5h4.63a.25.25,0,1,1,0,.5Z"/><path class="cls-4" d="M14.08,23.89H9.45a.25.25,0,0,1,0-.5h4.63a.25.25,0,1,1,0,.5Z"/><path class="cls-4" d="M25.62,13.6a4.25,4.25,0,0,0-2.57-3.48s-.58-.32-.75-1.46h.21a.75.75,0,0,0,.75-.75V7.08a.75.75,0,0,0-.75-.75h-6a.75.75,0,0,0-.75.75v.84a.75.75,0,0,0,.75.75h.25A1.9,1.9,0,0,1,16,10.12a4.25,4.25,0,0,0-2.57,3.49v2.5H14V14.45H25v1.66l0,19.23H21.65v.6h3.64a.3.3,0,0,0,.3-.3l0-19.53Zm-9.3-5.69V7.08a.15.15,0,0,1,.15-.15h6a.15.15,0,0,1,.15.15v.84a.15.15,0,0,1-.15.15h-6A.15.15,0,0,1,16.32,7.91ZM14,13.85v-.23a3.7,3.7,0,0,1,2.24-3,2.49,2.49,0,0,0,1.09-2H21.7a2.49,2.49,0,0,0,1.09,2A3.67,3.67,0,0,1,25,13.61v.24Z"/></svg>