<svg id="Layer_1" data-name="Layer 1" xmlns="http://www.w3.org/2000/svg" viewBox="0 0 36 40"><defs><style>.cls-1{fill:#fff;}.cls-2{fill:#45a5da;}.cls-3{fill:#414042;}.cls-4{fill:#f6d056;}.cls-5{fill:#edd366;}</style></defs><title>iSHOP Dashboard_Elements</title><rect class="cls-1" x="3.68" y="1.19" width="22.11" height="32.69"/><rect class="cls-2" x="9.65" y="11.92" width="11.04" height="2.96"/><path class="cls-2" d="M5.16,4.93A1.87,1.87,0,1,0,3.51,2.2L3.26,1.7.76,33.21h5l-1-28.32a1.94,1.94,0,0,0,.39,0"/><path class="cls-2" d="M25.32,5.15A1.87,1.87,0,1,1,27,2.41l.25-.49,2.5,31.51-5.32-.09L25.71,5.1a1.93,1.93,0,0,1-.39,0"/><path class="cls-3" d="M20.06,11.64h-9.8A1.34,1.34,0,0,0,8.94,13v1A1.54,1.54,0,0,0,10.2,15.4a34.26,34.26,0,0,0,5,.36,34.35,34.35,0,0,0,5-.36,1.54,1.54,0,0,0,1.26-1.47V13a1.34,1.34,0,0,0-1.33-1.33m.43,2.29a.63.63,0,0,1-.49.58,33.39,33.39,0,0,1-9.67,0,.63.63,0,0,1-.49-.58V13a.44.44,0,0,1,.43-.43h9.79a.44.44,0,0,1,.43.43Zm7.38-6.36V2.8a2,2,0,0,0-1.94-2H4.48a2,2,0,0,0-2,2V7.57C2.4,8.11.36,22.51.34,32.91a.45.45,0,0,0,.45.45h0l.09,0h0a85.71,85.71,0,0,0,14.22,1.18,85.68,85.68,0,0,0,14.22-1.18l.06,0a.44.44,0,0,0,.14,0h0a.45.45,0,0,0,.45-.45C30,22.48,27.93,8,27.87,7.57m-3.64-2h.92v.79c0,.45-.24.78-.46.78s-.46-.43-.46-1.1ZM23.65,1.7a2,2,0,0,0-.33,1.1V6.06a2.74,2.74,0,0,0,.22,1.1H6.8A2.74,2.74,0,0,0,7,6.06V2.8a2,2,0,0,0-.33-1.1ZM5,33q-1.87-.22-3.71-.53A226.5,226.5,0,0,1,3.37,7.68s0,0,0,0,0,0,0,0V2.8a1.1,1.1,0,0,1,1.1-1.1H5a1.1,1.1,0,0,1,1.1,1.1V4.68H4.75a.45.45,0,0,0-.45.45V6.38a2,2,0,0,0,.14.73.44.44,0,0,0-.05.21c.06,2.85.23,5.74.39,8.54a117,117,0,0,1,.16,17A.42.42,0,0,0,5,33M5.2,5.59h.92v.47c0,.67-.3,1.1-.46,1.1s-.46-.33-.46-.78ZM24.59,15.81A117.65,117.65,0,0,0,24.43,33a.48.48,0,0,0,0,.17,86.13,86.13,0,0,1-18.68,0,.45.45,0,0,0,0-.17,117.51,117.51,0,0,0-.16-17.14c-.15-2.56-.3-5.2-.37-7.8a.44.44,0,0,0,.21.06H24.75l.11,0H25c-.07,2.6-.22,5.23-.37,7.78M25.31,33a.47.47,0,0,0,0-.15,116.87,116.87,0,0,1,.16-17c.16-2.8.33-5.7.39-8.54a.41.41,0,0,0,0-.12A2,2,0,0,0,26,6.38V5.13a.45.45,0,0,0-.45-.45H24.22V2.8a1.1,1.1,0,0,1,1.1-1.1h.54A1.1,1.1,0,0,1,27,2.8V7.61s0,0,0,0,0,0,0,0A226.69,226.69,0,0,1,29.1,32.48q-1.88.31-3.79.54"/><path class="cls-1" d="M35.27,18.06c0,2.08-2.44,3.77-5.45,3.77s-5.45-1.69-5.45-3.77,2.44-3.77,5.45-3.77,5.45,1.69,5.45,3.77"/><rect class="cls-1" x="26.97" y="11.56" width="5.13" height="6.04"/><rect class="cls-4" x="24.21" y="18.27" width="11.06" height="20.54"/><rect class="cls-5" x="26.58" y="11.17" width="6.32" height="1.58"/><path class="cls-3" d="M35.27,39.2H24.21a.39.39,0,0,1-.39-.39V18.27a.39.39,0,1,1,.79,0V38.41H34.87V18.27a.39.39,0,1,1,.79,0V38.81a.4.4,0,0,1-.39.39"/><path class="cls-3" d="M24.21,18.67a.4.4,0,0,1-.4-.39A4.08,4.08,0,0,1,26,14.7c.64-.46,1-.74,1-1.16a.39.39,0,1,1,.79,0c0,.86-.68,1.34-1.34,1.81a3.29,3.29,0,0,0-1.82,2.93.4.4,0,0,1-.39.39"/><path class="cls-3" d="M35.27,18.67a.4.4,0,0,1-.4-.39,3.29,3.29,0,0,0-1.82-2.93c-.66-.47-1.34-.95-1.34-1.81a.39.39,0,1,1,.79,0c0,.43.37.71,1,1.16a4.08,4.08,0,0,1,2.15,3.57.4.4,0,0,1-.39.39"/><path class="cls-3" d="M32.9,13.14H26.58a.4.4,0,0,1-.39-.4V11.17a.4.4,0,0,1,.39-.4H32.9a.4.4,0,0,1,.4.4v1.58a.4.4,0,0,1-.4.4M27,12.35H32.5v-.79H27Z"/><path class="cls-3" d="M32.11,13.93a.4.4,0,0,1-.4-.39v-.79a.39.39,0,0,1,.79,0v.79a.4.4,0,0,1-.39.39"/><path class="cls-3" d="M27.37,13.93a.4.4,0,0,1-.4-.39v-.79a.39.39,0,0,1,.79,0v.79a.4.4,0,0,1-.39.39"/><path class="cls-3" d="M35.27,18.67H24.21a.39.39,0,0,1,0-.79H35.27a.39.39,0,0,1,0,.79"/></svg>