<svg id="Layer_1" data-name="Layer 1" xmlns="http://www.w3.org/2000/svg" viewBox="0 0 30 30"><defs><style>.cls-1{fill:#f6d056;fill-rule:evenodd;}.cls-2{fill:#414042;}</style></defs><title>iSHOP Dashboard_Elements</title><path class="cls-1" d="M24.13,15.23A9.19,9.19,0,1,1,14.94,6a9.19,9.19,0,0,1,9.19,9.19"/><path class="cls-2" d="M15,29.76a.67.67,0,0,1-.67-.67V25.88a.67.67,0,1,1,1.33,0v3.21a.67.67,0,0,1-.67.67m7-1.89-.17,0a.66.66,0,0,1-.41-.31l-1.61-2.78a.67.67,0,0,1,.25-.91.66.66,0,0,1,.5-.07.67.67,0,0,1,.41.31l1.61,2.78a.67.67,0,0,1-.58,1m-1.62-3.44-.27.16.27-.16ZM8,27.87a.64.64,0,0,1-.33-.09.67.67,0,0,1-.24-.91L9,24.09a.66.66,0,0,1,.41-.31.66.66,0,0,1,.51.07.67.67,0,0,1,.24.91L8.53,27.54a.67.67,0,0,1-.58.33m7-3A9.91,9.91,0,1,1,22,22a9.85,9.85,0,0,1-7,2.9M15,6.43a8.57,8.57,0,1,0,6.06,2.51A8.51,8.51,0,0,0,15,6.43M8.23,8.23l.22.22ZM2.8,22.71l-.18,0a.66.66,0,0,1-.4-.31.67.67,0,0,1,.24-.91l2.79-1.61A.67.67,0,0,1,5.91,21L3.13,22.62a.65.65,0,0,1-.33.09m2.62-2.56.16.27ZM27.2,22.71a.66.66,0,0,1-.33-.09L24.09,21a.67.67,0,0,1,.16-1.22.66.66,0,0,1,.51.07l2.78,1.61a.67.67,0,0,1-.34,1.25m1.89-7H25.88a.67.67,0,1,1,0-1.34h3.21a.67.67,0,0,1,0,1.34m-25,0H.91a.67.67,0,1,1,0-1.34H4.12a.67.67,0,1,1,0,1.34m20.3-5.44A.67.67,0,0,1,24.09,9l2.78-1.61a.67.67,0,1,1,.67,1.16l-2.78,1.61a.67.67,0,0,1-.33.09m-18.85,0a.67.67,0,0,1-.33-.09L2.46,8.53a.67.67,0,0,1,.66-1.15L5.91,9a.67.67,0,0,1-.33,1.25m0-.68h0Zm4-3.3-.18,0A.66.66,0,0,1,9,5.91L7.38,3.13a.67.67,0,0,1,.24-.91.67.67,0,0,1,.91.24l1.61,2.79a.67.67,0,0,1-.25.91.64.64,0,0,1-.33.09m0-.68h0l.27-.16Zm10.87.67a.67.67,0,0,1-.58-1l1.61-2.78a.67.67,0,0,1,.41-.31.67.67,0,0,1,.82.48.66.66,0,0,1-.07.51L21,5.91a.66.66,0,0,1-.41.31l-.17,0M15,4.79a.67.67,0,0,1-.67-.67V.91a.67.67,0,1,1,1.33,0V4.12a.67.67,0,0,1-.67.67"/></svg>