<svg xmlns="http://www.w3.org/2000/svg" width="100" height="100" viewBox="0 0 100 100"><defs><style>.a{fill:#4f2400;}.b{fill:#d28816;}.c{fill:#fff;}.d{fill:#f15d22;}</style></defs><title>iShop Brand logo</title><path class="a" d="M18.73,39.83S17,36.25,20.85,33.47a75.88,75.88,0,0,1,19.27-9.8c9.64-3.3,18.21-4.77,24.65-4.43,5,.26,5.45,4.1,5.45,4.1s20.2.33,24,11.72-8.57,21.78-13,25.16c0,0,1.27,3.57-1.46,5.76A72.16,72.16,0,0,1,59.52,76.44c-8.64,2.58-14,4.37-23.72,4.37-5.18,0-6-3.71-6-4.3,0,0-21.64-.2-24.45-13-2.66-12.1,12.82-23.31,13.42-23.7"/><path class="b" d="M19.51,40s-1.69-3.5,2.07-6.22a73.51,73.51,0,0,1,18.81-9.6C49.8,21,58.17,19.53,64.45,19.86c4.93.26,5.32,4,5.32,4s19.72.33,23.48,11.48S84.88,56.7,80.6,60c0,0,1.24,3.5-1.42,5.64A70.47,70.47,0,0,1,59.33,75.9c-8.43,2.53-13.62,4.28-23.16,4.28-5.05,0-5.9-3.63-5.9-4.22,0,0-21.12-.19-23.87-12.71C3.81,51.4,18.92,40.42,19.51,40"/><path class="c" d="M90,37c3.67,11.27-11.25,26.22-33.31,33.4S13.79,74.22,10.13,63s11.25-26.22,33.31-33.4S86.35,25.69,90,37"/><path class="a" d="M43.32,29.24C21,36.48,6,51.63,9.72,63.08s24.8,14.84,47.08,7.6,37.32-22.4,33.6-33.85S65.6,22,43.32,29.24Zm45.81,8.09c3.57,11-11,25.55-32.49,32.55s-41.86,3.77-45.43-7.21,11-25.55,32.5-32.55,41.85-3.77,45.42,7.21"/><path class="d" d="M46,46.8c.1.05.24-.07.13-.27s-.34-.26-.7-.26-1.8.66-1.78,1.74a1.17,1.17,0,0,0,1.67,1c.6-.19.43.2.22.28s-2.9,1.53-3,4.13C42.42,55,43.93,55,44.47,55a3,3,0,0,0,3.05-3c0-1.1-.83-1.1-1.06-1.1s-2.6.48-2.29,2.22c0,0,.07,0,.11-.21a1.53,1.53,0,0,1,1.44-1.23c.57,0,.74.38.74.81a1.73,1.73,0,0,1-1.84,1.75,1.28,1.28,0,0,1-1.31-1.39,4.17,4.17,0,0,1,3.62-3.29,2,2,0,0,1,2.32,2.18c0,2.38-2.2,5.37-6.45,5.6a2.75,2.75,0,0,1-2.92-3.22,6.08,6.08,0,0,1,2.49-3.65c.38-.19.26-.31.09-.33-.68-.07-.75-1.15-.71-1.62a2.91,2.91,0,0,1,1.66-2.39,4.42,4.42,0,0,1,2.14-.63c.27,0,1.3,0,1.35,1a2,2,0,0,1-1.67,2,.8.8,0,0,1-.74-.72,1,1,0,0,1,1.46-1"/><path class="a" d="M45.78,44.88s1.75.07,2,1.42a3.65,3.65,0,0,1-1.08,2.63A2.62,2.62,0,0,1,50,51.29c.55,3.17-2.37,5.14-2.37,5.14l.94,4.8c.34,1.69,2.1,1.08,2.1,1.08L54.56,61c-1.08-.34-.61-1.62-.61-1.62s4.39-12,4.66-12.71.62.21.62.21l1.61,10a1.8,1.8,0,0,0,2.23,1.55l4.46-1.55c-1.42-.41-.47-2.49-.47-2.49S74.36,32.23,74.64,31c.39-1.62-1.5-1.62-1.5-1.62l-2.7.94c1.08.27.67,1.83.67,1.83S66.18,46.77,66,47.24s-.48-.4-.48-.4-1.75-10.74-2.16-12.3a1.77,1.77,0,0,0-2-1.28l-3.38,1.08c.81.2.54,1.82.54,1.82s-4.73,14.53-5,14.87a.3.3,0,0,1-.5,0s-1.83-10.75-2.23-12.5a1.42,1.42,0,0,0-1.9-1.22L43.82,39c1.69.81,2,5.88,2,5.88ZM31.45,57.44l4.87-1.55L35,47.24ZM32,42.85l6.29-2.09s1.15-.54,1.62,1,1.28,6,1.28,6-.34,2.23.34,2.71c0,0-3,2.36-2.36,5s3.78,2.77,3.78,2.77l.54,3.44s.47,2.16,1.69,2.43l-5,1.56s-2,.94-2.37-1.08-.94-5.75-.94-5.75l-6.49,2.23-2,6.08s-.54,1.83.6,2.17l-2.09.74s-2.43.81-1.89-2l7.77-22.77a2.25,2.25,0,0,0-.75-2.5"/><path class="a" d="M75,29.47a3.87,3.87,0,0,0-1.83-.78.52.52,0,0,0-.21,0l-2.7.94a.65.65,0,0,0-.43.63.63.63,0,0,0,.48.58.24.24,0,0,1,.18.13,1.5,1.5,0,0,1,0,.91l-.12.35-.09.29C66.41,31.15,61.13,30.5,54.14,31c-16.67,1.23-33.66,12.6-35.8,14.47,0,0,9.53-10.58,28.73-15.64C65.69,24.94,85,28,87.61,37.67,90.68,49.17,77,59,64.72,63.28c-3.27,1.16-7.6,2.37-7.6,2.37S66.27,62.41,71,58.06s9.73-10,8.18-16.47a11.34,11.34,0,0,0-4.86-7s1.83-4.19.65-5.15"/><path class="d" d="M46,69.12c-7.52.56-12.7-.21-16.82-1.8l-.08.23c0,.09-.42,1,.06,1.1a.62.62,0,0,1,.46.59.65.65,0,0,1-.42.61l-2.1.74h0a3.35,3.35,0,0,1-.92.14,1.8,1.8,0,0,1-1.46-.62,2.58,2.58,0,0,1-.33-2.2.29.29,0,0,1,0-.09l.92-2.68a11.66,11.66,0,0,1-4.36-6.6c-1.55-6.49,3.14-11.86,7.88-16.2S43,34.49,43,34.49a76.93,76.93,0,0,0-7.6,2.36c-13.23,5.19-26,13.8-23,25.3,2.6,9.7,22,13,40.62,8.14,19.2-5.06,28.73-15.64,28.73-15.64C79.63,56.52,62.64,67.89,46,69.12"/><path class="a" d="M28.18,33.34v0c.08.17.25.16.64,0l.26-.14c.32-.17.42-.28.36-.41l-.05-.11c-.07-.14-.22-.08-.52,0l-.89.4c-.67.3-1,.26-1.24-.14l-.08-.15a.64.64,0,0,1,.1-.69,2.54,2.54,0,0,1,.9-.64l.64-.34c.81-.42,1.33-.44,1.51-.08l.08.16-1,.54v0c-.07-.15-.19-.14-.48,0l-.25.13c-.31.16-.43.27-.37.4l0,.09c.07.14.22.07.51-.06l.82-.37c.7-.31,1.13-.29,1.3,0l.11.23c.19.39-.11.88-.82,1.25l-.87.46c-.92.48-1.42.53-1.63.1l-.08-.17,1-.54"/><path class="a" d="M30.38,30.12l1.09-.52,1.14,2.45-1.09.52-1.14-2.45"/><path class="a" d="M32.4,29.15,34,28.46l2,1.31-.76-1.85,1-.45,1,2.5-1.63.69-2-1.33.77,1.87-1,.45-1-2.5"/><path class="a" d="M41.23,27.52c.24.66-.12,1.1-1.2,1.5l-.38.14c-1.19.44-1.69.3-2-.46l-.18-.53c-.27-.76,0-1.18,1.22-1.62l.31-.12c1.17-.43,1.65-.34,1.89.34l0,.05-1.11.41,0-.05c-.08-.24-.27-.26-.7-.1s-.56.34-.42.72l.14.42c.14.38.23.47.78.27s.57-.3.47-.57l0-.06,1.13-.42,0,.08"/><path class="a" d="M41.42,25.62l3.17-1,.17.57-2,.66.14.45,2-.64.16.49-2,.64.15.49,2.09-.67.18.57-3.22,1-.79-2.58"/><path class="a" d="M48.5,23.49l1.27-.34.65,2.62-1.07.29-.49-1.95-.45.4L48,24l.53-.51"/><path class="a" d="M51.72,23.2c-.4.1-.48.15-.44.32l0,.2c0,.17.13.18.53.08l.24-.05c.39-.09.48-.14.44-.32l0-.19c0-.18-.15-.18-.53-.09Zm-.07,1.51v0c0,.15.13.17.43.1l.28-.07c.37-.08.44-.13.39-.33l-.1-.46a1.28,1.28,0,0,1-.67.33l-.42.1c-.8.19-1.21,0-1.32-.44l-.05-.24c-.1-.47.33-.81,1.29-1l.51-.12c1.1-.26,1.5,0,1.67.75l.12.55c.17.77-.11,1.15-1.2,1.41l-.52.12c-.88.21-1.37.11-1.46-.28l0-.16,1.08-.26"/><path class="a" d="M54.37,22.11l1.29-.26.49,2.67-1.1.22-.36-2-.41.35-.46-.52.55-.47"/><path class="a" d="M57.7,22.05c-.4.07-.48.12-.46.29l0,.2c0,.18.12.19.52.12l.24,0c.4-.06.49-.1.47-.28l0-.2c0-.18-.14-.19-.53-.12Zm-.17,1.51v0c0,.16.12.18.42.13l.29,0c.37-.06.44-.11.41-.31l-.07-.47a1.34,1.34,0,0,1-.69.29l-.43.07c-.81.14-1.21,0-1.28-.53l0-.24c-.07-.48.39-.79,1.35-.95l.52-.09c1.12-.18,1.5.07,1.62.86l.08.55c.11.79-.18,1.16-1.29,1.34l-.52.08c-.9.15-1.38,0-1.44-.37l0-.17,1.1-.18"/><path class="a" d="M41.22,77.27c.4-.06.52-.14.48-.38v-.1c0-.24-.18-.29-.58-.23l-.68.1.11.71Zm-2.11-1L41,76c1.28-.19,1.86-.13,1.95.48l0,.22c.06.37-.21.63-.79.76.63,0,.92.1,1,.45l.09.56L42,78.62l-.08-.5c0-.24-.18-.29-.58-.23l-.67.1.12.8L39.54,79l-.43-2.75"/><path class="a" d="M44.74,77c.09.41.17.51.79.39l.22,0c.62-.12.66-.25.57-.66l-.1-.45c-.08-.42-.18-.52-.79-.4l-.23,0c-.61.12-.65.25-.56.67Zm.14-1.72.6-.12c1.29-.27,1.79-.05,2,.76l.12.56c.18.81-.19,1.2-1.49,1.46l-.6.12c-1.3.27-1.79,0-2-.76l-.12-.56c-.17-.81.19-1.2,1.49-1.46"/><path class="a" d="M49.21,76c.11.41.2.5.81.35l.22,0c.61-.16.65-.28.54-.69l-.12-.45c-.11-.41-.21-.51-.82-.35l-.22,0c-.61.15-.64.28-.53.7Zm0-1.72.59-.15c1.29-.33,1.8-.14,2,.67l.15.55c.22.81-.13,1.21-1.42,1.53L50,77c-1.28.32-1.79.13-2-.67l-.15-.56c-.22-.8.13-1.2,1.41-1.52"/><path class="a" d="M53.14,73.9,52,74.23l-.18-.59,3.47-1,.18.59-1.13.33L55,75.61,53.79,76l-.65-2.06"/><path class="a" d="M61,73l.86-.31c.26-.1.35-.19.29-.33l0-.11c-.05-.13-.18-.14-.44,0l-.86.32Zm-.39-1,.82-.3c.25-.09.33-.18.28-.31l0-.1c0-.13-.17-.14-.42,0l-.82.3Zm.48-1.36c1-.37,1.5-.38,1.68.07l.07.17c.11.29-.06.53-.54.75.54-.13.91-.05,1,.23l.06.15c.2.53-.21.83-1.3,1.24l-2,.73-1-2.59,2-.75"/><path class="a" d="M63.12,69.87l3.19-1.32.25.57-2,.85.19.44,2-.82.22.49-2,.82.21.48,2.1-.86.25.56-3.23,1.35-1.14-2.56"/><path class="a" d="M66.87,68.31,70,66.84l.28.56-2,.94.22.43,2-.91.24.48-2,.92.23.47,2.06-1,.27.56-3.16,1.49-1.25-2.5"/><path class="a" d="M72.88,66.84c.35-.19.44-.31.31-.52l0-.09c-.12-.21-.27-.21-.62,0l-.6.33.36.63Zm-2.36-.26,1.63-.88c1.13-.61,1.69-.75,2-.21l.12.19c.19.33,0,.66-.46,1,.57-.24.9-.22,1.07.09l.29.5-1.1.59-.25-.43c-.13-.21-.28-.21-.63,0l-.59.32.4.71L71.92,69l-1.4-2.42"/><path class="b" d="M32.67,56.31l1.51-.48,1-3-.4-2.68-2.16,6.17"/><path class="b" d="M32.14,62.22l4.39-1.51c-.06-.41-.13-.79-.17-1.09l-5.28,1.82a.39.39,0,0,0,0,.09l-2,6.08v0a3.93,3.93,0,0,0-.13.67.42.42,0,0,0,.25.35.62.62,0,0,1,.46.59.65.65,0,0,1-.42.61l-2.1.74h0a3.35,3.35,0,0,1-.92.14l-.28,0,.09.12a1.82,1.82,0,0,0,1.46.61,3,3,0,0,0,.92-.14h0l2.09-.75a.65.65,0,0,0,.43-.61.65.65,0,0,0-.46-.59c-.48-.14-.2-1.28-.18-1.37l1.92-5.77"/><path class="b" d="M46.58,64.15c-.62-.14-1.08-1.35-1.21-2l-.51-3.24a7.11,7.11,0,0,0,1.23-.28,10,10,0,0,1,1.22-.49,11.64,11.64,0,0,0-.15-1.35,7.72,7.72,0,0,1-3.58,1.39l.52,3.35c.13.58.6,1.8,1.21,1.93a.64.64,0,0,1,.49.59.63.63,0,0,1-.44.63l-5,1.55a3.37,3.37,0,0,1-1.22.26l-.28,0a1.85,1.85,0,0,0,1.55.73,3.17,3.17,0,0,0,1.22-.26l5-1.54a.64.64,0,0,0,.44-.63.63.63,0,0,0-.49-.59"/><path class="b" d="M56,61c-.17-.06-.21-.13-.22-.16a1,1,0,0,1,0-.64c0-.08,2.06-5.61,3.44-9.35l-.41-2.55c-1.18,3.2-4.18,11.36-4.21,11.46a1.75,1.75,0,0,0-.1.37.35.35,0,0,0,.22.15.63.63,0,0,1,0,1.2l-3.85,1.35A2.79,2.79,0,0,1,50,63a1.87,1.87,0,0,1-.34,0,1.92,1.92,0,0,0,1.61.74,3.3,3.3,0,0,0,.9-.14L56,62.19A.63.63,0,0,0,56,61"/><path class="b" d="M42.51,45.73a30.85,30.85,0,0,0-.79-3.47c-.4-1.33-1.25-1.56-1.69-1.59a2.82,2.82,0,0,1,.42.87c.48,1.6,1.07,5,1.1,5.17"/><path class="b" d="M68.93,55.18c.3-.91,7.31-22.16,7.6-23.37a1.8,1.8,0,0,0-.29-1.62A2.16,2.16,0,0,0,75,29.47h0A1.87,1.87,0,0,1,75.33,31a4.06,4.06,0,0,1-.13.47c-.22.92-4.94,15.59-7.46,23.24a4.21,4.21,0,0,0-.32,1.14s0,0,0,.06a.36.36,0,0,0,.26.2.61.61,0,0,1,.46.59.62.62,0,0,1-.42.61L63.28,58.9l-.08,0a2.63,2.63,0,0,1-.54,0,3.68,3.68,0,0,1-.59-.06,2.39,2.39,0,0,0,1.86.77,2.63,2.63,0,0,0,.54,0l.08,0L69,58.07a.64.64,0,0,0,0-1.21.36.36,0,0,1-.26-.2,2.31,2.31,0,0,1,.19-1.42l0-.06"/><path class="b" d="M51.39,38.3c.32,1.39,1.49,8.16,2,11.14l.76-2.24C53.6,44,52.9,40,52.66,39a2,2,0,0,0-1.74-1.77,2.56,2.56,0,0,1,.47,1"/><path class="b" d="M64,34.3c.33,1.26,1.5,8.21,2,11.1.21-.61.48-1.38.78-2.26-.54-3.2-1.23-7.2-1.48-8.13a2.25,2.25,0,0,0-1.79-1.71,2.39,2.39,0,0,1,.52,1"/></svg>