<svg xmlns="http://www.w3.org/2000/svg" xmlns:xlink="http://www.w3.org/1999/xlink" width="100" height="100" viewBox="0 0 100 100"><defs><style>.a{fill:none;}.b{clip-path:url(#a);}.c{fill:#dc0c1c;fill-rule:evenodd;}</style><clipPath id="a"><rect class="a" x="5" y="32.82" width="90" height="34.35"/></clipPath></defs><title>iShop Brand logo</title><g class="b"><path class="c" d="M81.81,38.45a5,5,0,0,0-.73,1.09A4.07,4.07,0,0,0,83,38.36c.15-.19.4-.55.23-.76S82.83,37.32,81.81,38.45Zm-8.28-4c-.11.16-.2.34-.4.71s-.56,1.44-.87,2.18a8.69,8.69,0,0,1-2.32,3.27A5.9,5.9,0,0,1,68,41.82a3,3,0,0,0,.82.11,5.8,5.8,0,0,0,5.06-2.33c1-1.36,1.65-3.18.55-4.84s-5.6-2.18-8.07,0c-1.36,1.17-.9,2.94,1,2.19a1.63,1.63,0,0,0,.77-.64,3.2,3.2,0,0,0,2.44-.45,4.42,4.42,0,0,1-3.23,2.42c-2.35.3-3-.92-3-1.78.22-2.88,5.87-4.55,9.25-3.09,2.75,1.21,3.34,3.32,2.78,5a6.23,6.23,0,0,1-5,4,10,10,0,0,1-4.52-.1,1.73,1.73,0,0,1-.37-.14,9,9,0,0,0,1.52-1.43,21.08,21.08,0,0,0,1.72-2.46,9.08,9.08,0,0,1,3.68-3.76Zm5.88.16A.83.83,0,0,0,79,35.7a.87.87,0,0,0,1.19.18.85.85,0,0,0,.45-1.09A.87.87,0,0,0,79.41,34.61ZM79,41a6.49,6.49,0,0,1-1.58,1.26,1.49,1.49,0,0,1-1.55.05.86.86,0,0,1-.16-.85,4.11,4.11,0,0,1,.4-.85l2-3.69.07,0h1.47l0,0L79,38.19l-1.56,2.89c-.15.28,0,.5.41.23A4.07,4.07,0,0,0,79,40.22a17,17,0,0,1,1.39-2.07,4.62,4.62,0,0,1,1.89-1.31c.7-.24,1.47-.07,1.65.44a1.56,1.56,0,0,1-.38,1.41,5.11,5.11,0,0,1-2.8,1.54c-.17.25-.46,1.28.47,1.26a2.81,2.81,0,0,0,1.43-.6,8.3,8.3,0,0,0,2.1-2.12c.25-.45.52-.9.75-1.36h-.91l.32-.55h.91l1-1.77H88.3l-.94,1.76H88.5l-.27.55H87.06l-.16.24s-1.23,2.29-1.66,3.06-.1.76.17.64a3.89,3.89,0,0,0,1-.79c.26-.31.53-.62.76-1h.58a6,6,0,0,1-3.15,2.84,1.18,1.18,0,0,1-1.08-.22,1,1,0,0,1-.11-1c.05-.11.09-.22.12-.27l0,0a4.75,4.75,0,0,1-3,1.55,1.36,1.36,0,0,1-1.22-.65A1.68,1.68,0,0,1,79,41Z"/><path class="c" d="M73.79,56.16C73.79,63,78.43,67.09,85,67.1a10,10,0,0,0,10-6.85,11.79,11.79,0,0,1-8,3.55c-4.83,0-5.41-5.12-5.53-6.22,2.87,0,13,0,13-6.29,0-4.54-4.76-6.81-9-6.81-7.46,0-11.7,4.91-11.7,11.68Zm-51,8c-5.46,0-9.34-3.77-9.34-13.1S17,36.94,21.91,36.94c6.1,0,9,7,9.56,8.48V37c-2-.53-5.18-2.2-9.85-2.21A16.26,16.26,0,0,0,5,51.5c0,9.38,6.4,15.68,15.49,15.68a14,14,0,0,0,11.31-5c2,3.07,5.61,4.89,10,4.9,8.38,0,12.66-5.29,12.66-11.45S50.52,44.35,42.3,44.35C36.13,44.34,30,47.88,30,55.73a12.26,12.26,0,0,0,.64,4h0c-1.45,1.84-4.07,4.44-7.86,4.43Zm14.63-8.72c0-1.69.08-9.39,4.6-9.39,4.17,0,4.4,6.6,4.39,9.64S46,65.26,41.8,65.26,37.38,58.18,37.39,55.44ZM55.76,36.38h7V54.49l8.82-10.28h4.19L68.29,52.8c1.72,2.9,5.86,9.88,8.09,13.55H69.29c-1.71-3-3.77-6.6-5-8.81l-1.55,1.79v7h-7Zm25.52,19.1c0-7.2,2-9.2,3.77-9.2,2.5,0,3.48,2.79,3.48,4.85,0,4.14-4.87,4.21-7.25,4.35Z"/></g></svg>