<svg xmlns="http://www.w3.org/2000/svg" width="100" height="100" viewBox="0 0 100 100"><defs><style>.a{fill:#fff;}.b{fill:#f5821f;}.c{fill:#e11383;}.d{fill:#683817;}</style></defs><title>iShop Brand logo</title><path class="a" d="M57.56,41.78h0v0M30,66l0,0,0,0ZM67.64,41.44l0,0,0,0ZM89.92,52.9a3.51,3.51,0,0,0,.64-2.38V47.35a2.67,2.67,0,0,0,1.06.49c.47.09,2.07.2,3-2.12a6.3,6.3,0,0,0,.41-2.1,3,3,0,0,0-2.81-3.15A2.64,2.64,0,0,0,90,41.76l-.13-.17h0a3,3,0,0,0-2.3-1.09,3,3,0,0,0-2.48,1.33,3.93,3.93,0,0,0-.43.94l-.88-1.09a2.82,2.82,0,0,0-2.29-1.16,3,3,0,0,0-2.75,1.63,3.22,3.22,0,0,0-.45-.66,3,3,0,0,0-2.25-1,2.93,2.93,0,0,0-2.24,1,3.59,3.59,0,0,0-.39.53,3.06,3.06,0,0,0-2.62-1.52,3,3,0,0,0-2.5,1.37,2.67,2.67,0,0,0-.17.26,2.89,2.89,0,0,0-.43-.62,3,3,0,0,0-2.27-1,2.91,2.91,0,0,0-2.68,1.67,2.92,2.92,0,0,0-.35-.57h0A3,3,0,0,0,60,40.49a3,3,0,0,0-2.47,1.33,3.62,3.62,0,0,0-.44.94c-.46-.58-.88-1.09-.88-1.09A2.79,2.79,0,0,0,54,40.51,3,3,0,0,0,51.26,42a4.16,4.16,0,0,0-.32-.45,3.13,3.13,0,0,0-2.35-1.08,3,3,0,0,0-2.34,1.14,2.83,2.83,0,0,0-.47.81,3,3,0,0,0-.62-1,3.07,3.07,0,0,0-2.21-1,3.11,3.11,0,0,0-2.36,1.16l0,0a3.07,3.07,0,0,0-.62,2,6.72,6.72,0,0,0-5.94-3H31.77a3,3,0,0,0-3.13,2,3,3,0,0,0-.15,1h0a3.81,3.81,0,0,0-3.73-3.13H14.45a3.46,3.46,0,0,0-.39-1.05,2.63,2.63,0,0,0,1.8-.32l-.38.09L16,39h0a3.24,3.24,0,0,0,1.29-2.59,4.25,4.25,0,0,0-.09-.79,3.22,3.22,0,0,0-2.63-2.42,4.47,4.47,0,0,0-3,.81,3.6,3.6,0,0,0-1.46,2.51,4.07,4.07,0,0,0,0,.47,3.76,3.76,0,0,0,.17,1,3.3,3.3,0,0,0-3.39.38h0a3.64,3.64,0,0,0-1.62,2.49,3,3,0,0,0,.21,1.5A4.1,4.1,0,0,0,5,44.26V62.73a3.82,3.82,0,0,0,3.81,3.82H24.73a3.83,3.83,0,0,0,3.73-3.07h.16v.22a3.17,3.17,0,0,0,.1.64A2.79,2.79,0,0,0,30,66a3.57,3.57,0,0,0,2.19.5h1.54a12.08,12.08,0,0,0,2.08-.15h0A6.84,6.84,0,0,0,39,64.71l.22-.22,0,0a5.7,5.7,0,0,0,.86-1.11,9.07,9.07,0,0,0,.77,1.07,7,7,0,0,0,10.44,0l.16-.19a2.87,2.87,0,0,0,.5,1.13l0,0a3,3,0,0,0,4.69.07l0,0a3,3,0,0,0,.58-1.22l.9,1.15a2.91,2.91,0,0,0,2.36,1.2,3,3,0,0,0,2.34-1.13,2.81,2.81,0,0,0,.53-1.1h0l0,0a5.86,5.86,0,0,0,4.7,2.4,5.74,5.74,0,0,0,4.37-2l.32-.41a6.09,6.09,0,0,0,1.13-3.83V58.68a3,3,0,0,0,.93.15v4.38l0,.51a3.1,3.1,0,0,0,.49,1.57l0,.06a3,3,0,0,0,2.45,1.24,2.91,2.91,0,0,0,2.5-1.37,3.14,3.14,0,0,0,.46-1.46,3.09,3.09,0,0,1,0-.34h.32a2.57,2.57,0,0,0,.23.71c.71,1.61,2.7,2.65,5,2.65a5.21,5.21,0,0,0,3.92-1.45,5,5,0,0,0,.83-1.12,5.1,5.1,0,0,0,.56-2.33,4.6,4.6,0,0,0-1.37-3.35,2.78,2.78,0,0,0,.88-1.47,1.84,1.84,0,0,0,1.14.4A1.82,1.82,0,0,0,94.18,56h0v-.32a1.81,1.81,0,0,0-1.81-1.82,1.88,1.88,0,0,0-1.62.94,3.86,3.86,0,0,0-1.44-1.26A3.1,3.1,0,0,0,89.92,52.9Zm2.51,3.54ZM85.06,41.78h0l0,0Zm-11.29-.32h0l0,0Z"/><path class="b" d="M48.61,41.65a1.79,1.79,0,0,0-1.4.69c-.34.4-.4.64-.4,1.47v4.4c0,.77-.35,1.22-1,1.22s-1-.49-1-1.27V43.81a2.05,2.05,0,0,0-.48-1.58,1.85,1.85,0,0,0-2.8.13c-.31.42-.37.68-.37,1.73V48a4.62,4.62,0,0,0,.9,3.17,4.61,4.61,0,0,0,7.24.3A5,5,0,0,0,50.47,48V44.05c0-1-.08-1.33-.43-1.74a2,2,0,0,0-1.43-.66M39.5,45.29A5.49,5.49,0,0,0,38,43.13a5.71,5.71,0,0,0-4-1.4H31.79a1.87,1.87,0,0,0-2,1.2,3.74,3.74,0,0,0-.08,1.27v6.08a5.2,5.2,0,0,0,.06,1.2,1.57,1.57,0,0,0,.77,1,2.5,2.5,0,0,0,1.53.3h1.54a12.7,12.7,0,0,0,1.88-.13,5.77,5.77,0,0,0,2.6-1.33,5.57,5.57,0,0,0,1.79-4.05A6.1,6.1,0,0,0,39.5,45.29Zm-4.63,0,.17.07a2.15,2.15,0,0,1,1.18,1.92,2.29,2.29,0,0,1-.9,1.76c-.43.3-.73.35-2,.35V45.12h.3a3.49,3.49,0,0,1,1.24.17ZM60,41.65a1.79,1.79,0,0,0-1.48.79,2.19,2.19,0,0,0-.34,1.44v2l-.52-.66-2.37-2.91A1.66,1.66,0,0,0,54,41.63a1.84,1.84,0,0,0-1.92,2v7a2.25,2.25,0,0,0,.38,1.56,1.86,1.86,0,0,0,2.87.06,2,2,0,0,0,.41-1.47V48.42l2.89,3.69a1.75,1.75,0,0,0,1.44.75,1.81,1.81,0,0,0,1.43-.67,2.35,2.35,0,0,0,.39-1.65V43.79a2,2,0,0,0-.43-1.46A1.81,1.81,0,0,0,60,41.65Zm10.45,5.48,1.27-1.84.58-.86a1.69,1.69,0,0,0,.28-1,1.86,1.86,0,0,0-1.84-1.82,1.77,1.77,0,0,0-1.5.84l-1.89,2.8-.13.19V43.71a1.86,1.86,0,0,0-.49-1.44,1.83,1.83,0,0,0-3.19,1.42v7.09a1.85,1.85,0,1,0,3.68,0V48.85L70,52.32a1.63,1.63,0,0,0,1.27.54A1.85,1.85,0,0,0,73.08,51a1.49,1.49,0,0,0-.35-1Zm17.06-5.48a1.79,1.79,0,0,0-1.48.79,2.13,2.13,0,0,0-.34,1.44v2l-.53-.66-2.36-2.91a1.67,1.67,0,0,0-1.35-.73,1.82,1.82,0,0,0-1.91,1.95v7a2.24,2.24,0,0,0,.37,1.55,1.88,1.88,0,0,0,1.47.71,1.81,1.81,0,0,0,1.4-.65,2,2,0,0,0,.42-1.46V48.42l2.88,3.69a1.81,1.81,0,0,0,2.87.08,2.3,2.3,0,0,0,.4-1.65V43.79a2,2,0,0,0-.44-1.46A1.75,1.75,0,0,0,87.54,41.65Zm4.65,0c-1,0-1.62,1.16-1.62,2.12a8.29,8.29,0,0,0,.1,1.52,1.52,1.52,0,0,0,1.18,1.37c.77.15,1.29-.57,1.61-1.37h0a5.25,5.25,0,0,0,.34-1.69A1.81,1.81,0,0,0,92.19,41.65ZM76,41.65a1.81,1.81,0,0,0-1.34.6c-.38.41-.47.75-.47,1.67v6.84a1.88,1.88,0,0,0,.47,1.52,1.94,1.94,0,0,0,1.34.58,1.83,1.83,0,0,0,1.36-.62,2,2,0,0,0,.46-1.48V43.92a2.14,2.14,0,0,0-.48-1.69A1.76,1.76,0,0,0,76,41.65Z"/><path class="c" d="M72.73,55.84a1.65,1.65,0,0,0-.4-1,1.9,1.9,0,0,0-1.4-.65,1.77,1.77,0,0,0-1.39.69,1.38,1.38,0,0,0-.38,1c0,.14,0,.29,0,.47v4.41c0,.77-.37,1.26-1,1.26s-1-.51-1-1.32V56.29a3.32,3.32,0,0,0,0-.46,1.64,1.64,0,0,0-.47-1.09,1.87,1.87,0,0,0-1.33-.56,2,2,0,0,0-1.42.69,1.47,1.47,0,0,0-.36,1c0,.18,0,.43,0,.75v3.9a4.62,4.62,0,0,0,.86,3.11l0,0a4.59,4.59,0,0,0,7.22.3l.26-.32a5,5,0,0,0,.89-3.12V56.56a4.53,4.53,0,0,0,0-.72"/><path class="c" d="M92.62,55.66c.28,0,.5-.13.5-.43a.34.34,0,0,0-.18-.34.69.69,0,0,0-.4-.08h-.69v1.6H92v-.73h.35l.12.18.33.55h.23l-.36-.55-.09-.2m-.26-.15h-.3v-.57h.45c.2,0,.41,0,.41.29S92.58,55.51,92.36,55.51Z"/><path class="c" d="M93.8,55.84a.93.93,0,0,0,0-.24,1.42,1.42,0,0,0-1.43-1.42A1.44,1.44,0,0,0,91,55.6a.9.9,0,0,0,0,.24A1.43,1.43,0,0,0,92.38,57a1.45,1.45,0,0,0,1.42-1.19h-.17a1.26,1.26,0,0,1-2.47,0,.93.93,0,0,1,0-.24,1.26,1.26,0,1,1,2.51,0,.9.9,0,0,1,0,.24h.17"/><path class="c" d="M38.34,63.63a5.62,5.62,0,0,0,1.57-3.85,6.18,6.18,0,0,0-.35-2h0a5.84,5.84,0,0,0-1.28-1.95h0l-.19-.16a5.63,5.63,0,0,0-4-1.41H31.85a1.82,1.82,0,0,0-2,1.18,1.36,1.36,0,0,0-.07.38h0c0,.16,0,.43,0,.88v6.88a1.48,1.48,0,0,0,.05.39,1.61,1.61,0,0,0,.75,1,2.43,2.43,0,0,0,1.52.3h1.54a12.54,12.54,0,0,0,1.87-.13,5.42,5.42,0,0,0,2.59-1.34l.23-.16h0m-5-5.84v-.16h.34a3.9,3.9,0,0,1,1.29.16h0l.13.06a2.16,2.16,0,0,1,1.2,1.93,2.25,2.25,0,0,1-.9,1.78c-.43.3-.75.36-2,.38h0V57.79Z"/><path class="c" d="M51.52,57.79a5.78,5.78,0,0,0-1.2-1.95,5.89,5.89,0,0,0-8.53,0h0a5.63,5.63,0,0,0-1.18,1.94h0a5.37,5.37,0,0,0-.34,1.93,5.82,5.82,0,0,0,1.46,3.9h0a5.82,5.82,0,0,0,10.15-3.85,5.88,5.88,0,0,0-.36-2M46.08,62a2.23,2.23,0,0,1-2.21-2.23,2.18,2.18,0,0,1,1.33-2,2.26,2.26,0,0,1,.88-.16,2.33,2.33,0,0,1,.88.16,2.18,2.18,0,0,1,1.33,2A2.23,2.23,0,0,1,46.08,62Z"/><path class="c" d="M62.28,55.84a1.79,1.79,0,0,0-.41-1A1.76,1.76,0,0,0,59,55a1.6,1.6,0,0,0-.3.88h0a4.53,4.53,0,0,0,0,.55v2.15l-.62-.76-1.58-2-.76-.94a1.61,1.61,0,0,0-1.33-.71,1.75,1.75,0,0,0-1.86,1.65c0,.09,0,.18,0,.26v7a4,4,0,0,0,0,.51,1.76,1.76,0,0,0,1.8,1.74,1.81,1.81,0,0,0,1.39-.65,1.63,1.63,0,0,0,.39-1.09V60.81l2.16,2.76.78,1a1.73,1.73,0,0,0,1.43.73,1.77,1.77,0,0,0,1.41-.67,1.87,1.87,0,0,0,.37-1.07,5,5,0,0,0,0-.56V56.24c0-.11,0-.26,0-.4"/><path class="c" d="M82.48,55.84A1.63,1.63,0,0,0,81,54.31l-.32,0H76.1c-1.44,0-1.59,0-2,.19a1.68,1.68,0,0,0-.92,1.38h0v.1a1.73,1.73,0,0,0,.51,1.18,1.76,1.76,0,0,0,1.35.47h1v5.57a2.82,2.82,0,0,0,0,.43,1.76,1.76,0,0,0,.3,1,1.81,1.81,0,0,0,1.48.75,1.73,1.73,0,0,0,1.48-.8,2.13,2.13,0,0,0,.3-.94,3.25,3.25,0,0,0,0-.47V57.57h.84a2,2,0,0,0,1.39-.39,1.77,1.77,0,0,0,.58-1.3v0"/><path class="c" d="M89.45,59.26a7.29,7.29,0,0,0-2.34-1.17,5,5,0,0,1-.81-.31h0c-.23-.14-.32-.27-.32-.47a.48.48,0,0,1,.47-.47c.21,0,.39.09.79.41a3.12,3.12,0,0,0,.94.54h0a1.69,1.69,0,0,0,.56.1,1.31,1.31,0,0,0,.5-.1h0a1.38,1.38,0,0,0,.88-1.38,1.67,1.67,0,0,0-.09-.55C89.68,54.79,88.31,54,86.6,54A3.91,3.91,0,0,0,83,55.86h0a3.66,3.66,0,0,0-.45,1.77v.18h0A3.11,3.11,0,0,0,85,60.76c.3.11.6.2.9.32a2.28,2.28,0,0,1,.73.31.56.56,0,0,1,.3.49.47.47,0,0,1-.49.51c-.28,0-.39-.08-1.18-.7a2,2,0,0,0-1.27-.52,1.61,1.61,0,0,0-1.63,1.63,1.83,1.83,0,0,0,.18.83h0a4.25,4.25,0,0,0,4,1.95,4.11,4.11,0,0,0,3.07-1.11,2.75,2.75,0,0,0,.6-.84,3.79,3.79,0,0,0,.44-1.79,3.43,3.43,0,0,0-1.11-2.58"/><path class="b" d="M8.19,44.35a3.14,3.14,0,0,1-2-.82,2.46,2.46,0,0,0-.09.67v2.18a5.5,5.5,0,0,1,2.1-2"/><path class="b" d="M10.14,54.74a2,2,0,0,1-1.71-1.07L6.2,48l-.09-.19V62.74a2.68,2.68,0,0,0,2.68,2.69h7a3.26,3.26,0,0,1-.62-.87s-4.31-8.34-5.06-9.82"/><path class="c" d="M24.76,41.52h-4l0,0a1.09,1.09,0,0,1,.17.32,1.63,1.63,0,0,1,.07.26C23,47,23.24,47.69,23.28,47.78h0v0a1.28,1.28,0,0,1,.1.55,2.16,2.16,0,0,1-.61,1.4c.49,1.5,1.37,4.48,2.95,10.31l.09.32v0c.62,2-.3,3.89-2.42,5.12h1.37a2.68,2.68,0,0,0,2.68-2.68V44.2a2.68,2.68,0,0,0-2.68-2.68"/><path class="d" d="M16.49,41.76h0a25.42,25.42,0,0,0-3.73,1.15,21.51,21.51,0,0,0-3.5,1.72c-1.75,1-2.65,2-2.48,2.59v.06a.48.48,0,0,0,0,.18l.07.13,0,.08,2.25,5.7c.13.34.56.54,1.28.6a.36.36,0,0,1,.28.19l5.19,10c1,2,3.84,1.91,6.06,1,2.49-1,3.63-2.74,3.05-4.65L25,60.25c-1.67-6.17-2.57-9.13-3-10.54a.3.3,0,0,1,.08-.33c.48-.53.65-1,.52-1.32l-2.25-5.7,0-.07,0-.15-.1-.17,0,0c-.32-.56-1.61-.62-3.6-.17"/><path class="d" d="M12.07,34.69a3,3,0,0,0-1.16,2A3.13,3.13,0,0,0,12,39.27c.61.73,1.16,1.37.82,2.47a.32.32,0,0,0,0,.3.33.33,0,0,0,.24.19.4.4,0,0,0,.51-.26,3.14,3.14,0,0,0-1-3.23c-.61-.71-1-1.2-.88-2a2.13,2.13,0,0,1,.85-1.44,2.76,2.76,0,0,1,1.78-.52A1.56,1.56,0,0,1,15.65,36a1.61,1.61,0,0,1,0,.62,1.57,1.57,0,0,1-.6,1.06h0c-.39.21-.73.21-.94,0A.61.61,0,0,1,14,37c.08-.15.28-.21.58-.17a.33.33,0,0,0,.3-.08.34.34,0,0,0,.17-.26.41.41,0,0,0-.34-.47,1.27,1.27,0,0,0-1.42.58,1.4,1.4,0,0,0,.3,1.6,1.59,1.59,0,0,0,1.93.11l.06,0a2.48,2.48,0,0,0,.9-2.55,2.39,2.39,0,0,0-2-1.78,4.07,4.07,0,0,0-2.42.71"/><path class="d" d="M7.32,39.08a2.76,2.76,0,0,0-1.27,2,2.23,2.23,0,0,0,3.56,2.06h0a1.57,1.57,0,0,0,.21-2.14,1.22,1.22,0,0,0-1.78-.26.41.41,0,0,0-.12.56.39.39,0,0,0,.27.17.4.4,0,0,0,.3-.06c.37-.26.56-.09.67.06a.87.87,0,0,1,.15.65.45.45,0,0,1-.19.36,1.42,1.42,0,0,1-2.06-.3,1.69,1.69,0,0,1,.69-2.38,1.67,1.67,0,0,1,2.22,0,2.14,2.14,0,0,1,.58,2.42.4.4,0,0,0,.15.55.35.35,0,0,0,.3,0,.37.37,0,0,0,.24-.18,2.92,2.92,0,0,0-.75-3.42,2.42,2.42,0,0,0-3.19-.11"/><path class="a" d="M18.67,43.34a22.94,22.94,0,0,0-5.14,1.4,22,22,0,0,0-4.72,2.57,3,3,0,0,1-1.35-.09c.11-.45,1.91-2.1,5.62-3.58s6.1-1.56,6.49-1.3a2.45,2.45,0,0,1-.9,1"/><path class="a" d="M24.29,60.74c.49,1.61-.73,2.94-2.6,3.69s-4.33.83-5.07-.64c-.24-.5-3.5-6.48-5.1-9.84a20.67,20.67,0,0,0,5.07-1.33,20.75,20.75,0,0,0,4.59-2.51c1.18,3.54,2.94,10.08,3.11,10.63"/><path class="a" d="M16.32,51.85c-3.43,1.35-6,1.46-6.41,1.13L8,48.27a17.11,17.11,0,0,0,6.3-1.43,17.28,17.28,0,0,0,5.57-3.28l1.89,4.71c-.07.51-2,2.21-5.46,3.58"/><path class="b" d="M17.69,55.54a1.73,1.73,0,0,0-.67-.45,2.2,2.2,0,0,0-1.39,0c-.22.05-.47.13-.69.16s-.49.25-.47.47,0,.12.13.36c.26.56.51,1.14.77,1.71a1.31,1.31,0,0,0,.17.33.57.57,0,0,0,.35.23.83.83,0,0,0,.49,0l.45-.11a2.8,2.8,0,0,0,.53-.19,1.44,1.44,0,0,0,.6-.62A1.71,1.71,0,0,0,18,56.05a2,2,0,0,0-.32-.51M16.89,57c-.1.11-.17.16-.55.26-.16-.4-.33-.81-.5-1.2l.09,0a1.69,1.69,0,0,1,.39-.06h.06a.75.75,0,0,1,.58.43A.64.64,0,0,1,16.89,57Z"/><path class="c" d="M20.75,54a1.41,1.41,0,0,0-.6-.4,1.67,1.67,0,0,0-1.27.21l-.66.3a.62.62,0,0,0-.45.6,1.3,1.3,0,0,0,.11.37l.68,1.75a.77.77,0,0,0,.15.33.4.4,0,0,0,.31.19.87.87,0,0,0,.47-.09l.44-.19a2.23,2.23,0,0,0,.48-.3A2,2,0,0,0,21,56a2.29,2.29,0,0,0,.07-1.48,2.54,2.54,0,0,0-.3-.52M20,55.77c-.09.15-.17.21-.5.37L19,54.91l.1,0a1.46,1.46,0,0,1,.36-.13h.05a.58.58,0,0,1,.53.37A.94.94,0,0,1,20,55.77Z"/></svg>