<svg xmlns="http://www.w3.org/2000/svg" width="100" height="100" viewBox="0 0 100 100"><defs><style>.a{fill:none;stroke:#000;stroke-linecap:round;stroke-linejoin:round;}</style></defs><title>iShop Brand logo</title><path d="M24,37.42a7.37,7.37,0,0,1,.54-2.82A7.63,7.63,0,0,1,26,32.28a7.21,7.21,0,0,1,2.17-1.58,6,6,0,0,1,2.6-.58,8.51,8.51,0,0,1,3.29.59,6.47,6.47,0,0,1,2.33,1.61,6.54,6.54,0,0,1,1.37,2.32,8.32,8.32,0,0,1,.46,2.78,8,8,0,0,1-.56,3.06,6.91,6.91,0,0,1-1.55,2.3,6.68,6.68,0,0,1-2.32,1.44,8.13,8.13,0,0,1-2.85.5,7.52,7.52,0,0,1-2.81-.52A6.26,6.26,0,0,1,26,42.71a6.68,6.68,0,0,1-1.43-2.3A8.41,8.41,0,0,1,24,37.42Zm7.45,6.26a4.36,4.36,0,0,0,1.86-.39,4.11,4.11,0,0,0,1.45-1.09,5,5,0,0,0,.95-1.64,6.34,6.34,0,0,0,.33-2.08,12.48,12.48,0,0,0-.32-2.89,7.29,7.29,0,0,0-1-2.32,4.77,4.77,0,0,0-1.67-1.55,4.67,4.67,0,0,0-2.35-.56,4.51,4.51,0,0,0-1.7.33,4.35,4.35,0,0,0-1.43,1,4.77,4.77,0,0,0-1,1.57,5.68,5.68,0,0,0-.37,2.14,12.24,12.24,0,0,0,.35,3,7.69,7.69,0,0,0,1,2.38,4.81,4.81,0,0,0,1.64,1.57A4.33,4.33,0,0,0,31.46,43.68Z"/><path d="M45.1,43.18a.53.53,0,0,1,.19-.13.3.3,0,0,1,.12,0c.13,0,.24.09.34.28a5.21,5.21,0,0,1-1.21,1,2.72,2.72,0,0,1-1.39.39,3.68,3.68,0,0,1-.82-.1,1.45,1.45,0,0,1-.67-.38,1.86,1.86,0,0,1-.44-.77,4,4,0,0,1-.17-1.27v-6h-1.3V36a.64.64,0,0,1,.06-.28.22.22,0,0,1,.23-.13,1.41,1.41,0,0,0,1-.31,2.41,2.41,0,0,0,.61-.78c.17-.34.32-.67.45-1s.27-.46.43-.46h.39v2.26h2.54a1.71,1.71,0,0,1-.1.68.36.36,0,0,1-.36.23H42.87V41.6a7.94,7.94,0,0,0,.07,1.11,2,2,0,0,0,.19.65.61.61,0,0,0,.31.29.94.94,0,0,0,.39.07,1.45,1.45,0,0,0,.68-.16A4,4,0,0,0,45.1,43.18Z"/><path d="M50,37.2s.16-.16.37-.39a5.81,5.81,0,0,1,.79-.74,6,6,0,0,1,1.11-.7,3.05,3.05,0,0,1,1.39-.31,3.21,3.21,0,0,1,1,.15,2.12,2.12,0,0,1,.84.5,2.4,2.4,0,0,1,.57.88,3.53,3.53,0,0,1,.22,1.35v5.28a.53.53,0,0,0,.39.49,4.09,4.09,0,0,0,.89.25.23.23,0,0,1,.17.26,1.69,1.69,0,0,1,0,.34l-1.1-.07c-.35,0-.75,0-1.19,0s-.76,0-1.14,0l-1.14.07a1.85,1.85,0,0,1-.05-.34.24.24,0,0,1,.2-.26l.4-.09a2.15,2.15,0,0,0,.38-.15,1.27,1.27,0,0,0,.29-.21.38.38,0,0,0,.12-.29V39a7.68,7.68,0,0,0-.06-1,2.53,2.53,0,0,0-.25-.79,1.39,1.39,0,0,0-.5-.52,1.62,1.62,0,0,0-.81-.18,3.13,3.13,0,0,0-1,.18,2.66,2.66,0,0,0-.92.54,2.45,2.45,0,0,0-.63.88A2.78,2.78,0,0,0,50,39.28v3.94a.52.52,0,0,0,.37.49,3.76,3.76,0,0,0,.82.25.23.23,0,0,1,.19.26,1.69,1.69,0,0,1,0,.34l-1.1-.07c-.37,0-.75,0-1.16,0s-.83,0-1.2,0l-1.11.07a1.69,1.69,0,0,1,0-.34.23.23,0,0,1,.17-.26,4.25,4.25,0,0,0,.89-.25.54.54,0,0,0,.39-.51V31.55a1.26,1.26,0,0,0-.26-.93,1.93,1.93,0,0,0-1-.33.28.28,0,0,1-.28-.3,1.25,1.25,0,0,1,0-.31l.78,0,.91-.07a6.21,6.21,0,0,0,.9-.18,2.57,2.57,0,0,1,.57-.11.3.3,0,0,1,.26.09.36.36,0,0,1,.07.24,5.48,5.48,0,0,1-.07.85A9.58,9.58,0,0,0,50,31.61Z"/><path d="M66.85,42.44a.46.46,0,0,1,.33-.15c.14,0,.28.12.41.37a7.5,7.5,0,0,1-.65.76,4.7,4.7,0,0,1-.88.66,4.84,4.84,0,0,1-1.16.46,5.58,5.58,0,0,1-1.49.18,4.77,4.77,0,0,1-1.65-.29,3.69,3.69,0,0,1-1.38-.86,4.51,4.51,0,0,1-1-1.45,5.31,5.31,0,0,1-.36-2,4.94,4.94,0,0,1,.43-2,5.16,5.16,0,0,1,1.09-1.59,5.26,5.26,0,0,1,1.48-1,3.92,3.92,0,0,1,1.57-.36,3.52,3.52,0,0,1,2.94,1.17,4.8,4.8,0,0,1,.92,3.05c0,.09,0,.13-.13.13l-6.26.28a4.9,4.9,0,0,0,.24,1.56A3.64,3.64,0,0,0,62,42.48a3,3,0,0,0,1,.82,3.3,3.3,0,0,0,1.4.29,2.81,2.81,0,0,0,1.32-.33A3.39,3.39,0,0,0,66.85,42.44Zm-3.5-6.6a2,2,0,0,0-1.68.84,3.73,3.73,0,0,0-.6,2.21l4.07-.2c.22,0,.32-.09.32-.28a3,3,0,0,0-.13-.86,2.78,2.78,0,0,0-.38-.84,2.47,2.47,0,0,0-.66-.63A1.8,1.8,0,0,0,63.35,35.84Z"/><path d="M75.3,35.08a1.27,1.27,0,0,1,.93.3.94.94,0,0,1,.3.67.61.61,0,0,1,0,.24.61.61,0,0,1-.21.23c-.11.08-.26.17-.45.28s-.47.24-.82.4a1.65,1.65,0,0,0-.46-.41,1.06,1.06,0,0,0-.6-.18,1.16,1.16,0,0,0-.67.21,2,2,0,0,0-.52.56,3.27,3.27,0,0,0-.33.83,3.83,3.83,0,0,0-.12,1V42.9a.73.73,0,0,0,.5.7,5.45,5.45,0,0,0,1.42.36.24.24,0,0,1,.22.26,1.69,1.69,0,0,1,0,.34l-.6,0-.74,0q-.39,0-.81,0H71.5l-1.23,0-1.19.07a1.69,1.69,0,0,1,0-.34.23.23,0,0,1,.19-.26,4,4,0,0,0,.88-.26.55.55,0,0,0,.38-.5V37.7a4,4,0,0,0-.06-.76,1.09,1.09,0,0,0-.18-.49.78.78,0,0,0-.38-.27,3,3,0,0,0-.64-.13c-.19,0-.28-.12-.28-.28a1.13,1.13,0,0,1,0-.3l.79,0,.84-.08.84-.18a2.08,2.08,0,0,1,.54-.1.28.28,0,0,1,.31.32v1.45a9.9,9.9,0,0,1,1.39-1.26A2.65,2.65,0,0,1,75.3,35.08Z"/><path d="M30.54,62.93a7.91,7.91,0,0,1,1.39.31,4.76,4.76,0,0,1,1.25.64,3.21,3.21,0,0,1,.91,1,3,3,0,0,1,.35,1.46,4,4,0,0,1-.36,1.72,3.5,3.5,0,0,1-1,1.27,4.57,4.57,0,0,1-1.59.8,7,7,0,0,1-2.06.29H26c-.24,0-.52,0-.83,0l-.88,0-1,0a.21.21,0,0,1,0-.13.3.3,0,0,1,0-.1v-.11c0-.2.08-.32.24-.35a5.73,5.73,0,0,0,1.17-.33.61.61,0,0,0,.33-.6v-11a.74.74,0,0,0-.08-.36.53.53,0,0,0-.25-.24,2.51,2.51,0,0,0-.45-.17L23.5,57c-.16,0-.24-.16-.24-.41a.72.72,0,0,1,0-.17.31.31,0,0,1,0-.13l1.39.08,1.27,0h2.66a6.93,6.93,0,0,1,2.07.27,3.81,3.81,0,0,1,1.4.75,2.88,2.88,0,0,1,.79,1.09,3.33,3.33,0,0,1,.25,1.29,2.51,2.51,0,0,1-.2,1,3.23,3.23,0,0,1-.53.89,3.61,3.61,0,0,1-.81.74,4.14,4.14,0,0,1-1.06.5Zm-3.18-.28A4.46,4.46,0,0,0,30.1,62a2.6,2.6,0,0,0,.83-2.13,2.33,2.33,0,0,0-.83-2,4.63,4.63,0,0,0-2.74-.63H27v5.39ZM27,68.78a.53.53,0,0,0,.15.39,1.12,1.12,0,0,0,.38.24,3.51,3.51,0,0,0,.49.12l.5,0A8.43,8.43,0,0,0,30,69.43,3.05,3.05,0,0,0,31.19,69a2.17,2.17,0,0,0,.74-.87,3.36,3.36,0,0,0,.26-1.4,2.75,2.75,0,0,0-1.08-2.36,4.74,4.74,0,0,0-2.93-.8H27Z"/><path d="M42.19,61.07a1.27,1.27,0,0,1,.93.3.91.91,0,0,1,.31.67.6.6,0,0,1,0,.24.57.57,0,0,1-.2.23,4.49,4.49,0,0,1-.46.28c-.19.11-.46.24-.81.4a2,2,0,0,0-.46-.41,1.07,1.07,0,0,0-.6-.17,1.13,1.13,0,0,0-.67.2,1.87,1.87,0,0,0-.52.56,3,3,0,0,0-.34.83,3.83,3.83,0,0,0-.12,1v3.73a.75.75,0,0,0,.5.7,5.54,5.54,0,0,0,1.43.36.24.24,0,0,1,.22.26,1.85,1.85,0,0,1-.05.34l-.59,0-.75,0c-.26,0-.53,0-.8,0h-.77l-1.22,0L36,70.55a1.85,1.85,0,0,1,0-.34.24.24,0,0,1,.2-.26,3.88,3.88,0,0,0,.87-.26.54.54,0,0,0,.38-.5v-5.5a4.13,4.13,0,0,0-.05-.76,1.48,1.48,0,0,0-.18-.49.83.83,0,0,0-.38-.27,3,3,0,0,0-.64-.13c-.19,0-.28-.12-.28-.28a1.13,1.13,0,0,1,0-.3l.79,0,.84-.08.84-.18a2.08,2.08,0,0,1,.54-.1c.2,0,.3.11.3.32v1.45a9.42,9.42,0,0,1,1.4-1.26A2.65,2.65,0,0,1,42.19,61.07Z"/><path d="M52.8,69.86c.16,0,.25.15.26.46a2.44,2.44,0,0,1-1.43.39,2.37,2.37,0,0,1-.83-.14,1.87,1.87,0,0,1-.59-.38,1.72,1.72,0,0,1-.37-.55,2.31,2.31,0,0,1-.18-.62,3.06,3.06,0,0,1-1.28,1.33,4,4,0,0,1-1.73.36,6.13,6.13,0,0,1-.92-.08,3,3,0,0,1-.92-.31,1.93,1.93,0,0,1-.71-.68,2,2,0,0,1-.28-1.14,2.36,2.36,0,0,1,.37-1.36,3.16,3.16,0,0,1,1-.91,6.1,6.1,0,0,1,1.3-.57c.47-.14.92-.27,1.35-.37.25,0,.48-.09.68-.14a4.83,4.83,0,0,0,.56-.16.6.6,0,0,0,.38-.24,1.53,1.53,0,0,0,.07-.58,3.26,3.26,0,0,0-.39-1.68,1.47,1.47,0,0,0-1.38-.66,1.93,1.93,0,0,0-.63.08,1.09,1.09,0,0,0-.44.27,2.05,2.05,0,0,0-.3.49,7.15,7.15,0,0,0-.26.72.52.52,0,0,1-.29.34,5.48,5.48,0,0,1-.77.26l-.32.09a1.47,1.47,0,0,1-.33,0c-.14,0-.22-.15-.22-.45a1.61,1.61,0,0,1,.37-1,3.84,3.84,0,0,1,.94-.84,6,6,0,0,1,1.25-.6A4,4,0,0,1,48,61.05a6.44,6.44,0,0,1,1.37.13,2.42,2.42,0,0,1,1,.47,2.07,2.07,0,0,1,.67.93,4.3,4.3,0,0,1,.23,1.52v3.73a6.93,6.93,0,0,0,.06,1.09,1.58,1.58,0,0,0,.16.53.86.86,0,0,0,.33.4.77.77,0,0,0,.38.1.9.9,0,0,0,.34,0A.65.65,0,0,1,52.8,69.86Zm-3.29-4.22-.7.11a10.34,10.34,0,0,0-1.1.26,3.36,3.36,0,0,0-.94.42,2.17,2.17,0,0,0-.67.68,2,2,0,0,0-.25,1,1.66,1.66,0,0,0,.43,1.25,1.4,1.4,0,0,0,1,.44,1.86,1.86,0,0,0,.82-.19,2,2,0,0,0,.7-.52,2.92,2.92,0,0,0,.48-.79,2.64,2.64,0,0,0,.18-1Z"/><path d="M63.5,69.21a.53.53,0,0,0,.39.49,4.23,4.23,0,0,0,.87.25.23.23,0,0,1,.19.26,1.69,1.69,0,0,1,0,.34l-1.1-.07q-.54,0-1.17,0c-.39,0-.78,0-1.16,0l-1.14.07a1.69,1.69,0,0,1,0-.34.23.23,0,0,1,.19-.26,3.85,3.85,0,0,0,.83-.25.52.52,0,0,0,.36-.49V65a7.68,7.68,0,0,0-.06-1,2.29,2.29,0,0,0-.25-.79,1.37,1.37,0,0,0-.49-.52,1.62,1.62,0,0,0-.81-.18,3.23,3.23,0,0,0-1.06.18,2.66,2.66,0,0,0-1.55,1.42,2.81,2.81,0,0,0-.24,1.19v3.94a.53.53,0,0,0,.38.49,4,4,0,0,0,.81.25.24.24,0,0,1,.2.26,1.85,1.85,0,0,1,0,.34l-1.1-.07c-.36,0-.75,0-1.16,0s-.82,0-1.2,0L54,70.55a3,3,0,0,1,0-.34.24.24,0,0,1,.2-.26A4.32,4.32,0,0,0,55,69.7a.54.54,0,0,0,.39-.51V63.3a1.52,1.52,0,0,0-.22-.93,1.42,1.42,0,0,0-1-.35.28.28,0,0,1-.28-.3,1.1,1.1,0,0,1,0-.28c.19,0,.45,0,.79,0s.62,0,.84-.07.63-.12.9-.19a2.86,2.86,0,0,1,.57-.09c.2,0,.3.1.3.32a5.34,5.34,0,0,1-.06.73,6.65,6.65,0,0,0-.07,1.11A9.32,9.32,0,0,1,59,61.61a3.29,3.29,0,0,1,1.87-.56,2.41,2.41,0,0,1,2,.77A3.16,3.16,0,0,1,63.5,64Z"/><path d="M75.29,68.52a1.89,1.89,0,0,0,0,.44.76.76,0,0,0,.17.32,1,1,0,0,0,.36.2,3.15,3.15,0,0,0,.6.12c.18,0,.28.12.28.28a1.32,1.32,0,0,1,0,.31l-.74,0-.79.07a8.56,8.56,0,0,0-.85.19,2.63,2.63,0,0,1-.54.1q-.3,0-.3-.33V68.6l-.61.8a4,4,0,0,1-.7.67,3.45,3.45,0,0,1-.92.46,3.9,3.9,0,0,1-1.26.18,3.29,3.29,0,0,1-1.41-.31,3.42,3.42,0,0,1-1.19-.9A4.39,4.39,0,0,1,66.55,68a5.73,5.73,0,0,1-.32-2,4.76,4.76,0,0,1,.46-2.13,5.34,5.34,0,0,1,1.12-1.58,5,5,0,0,1,1.47-1,3.77,3.77,0,0,1,1.46-.33,5.88,5.88,0,0,1,1.46.16,10.48,10.48,0,0,1,1.27.42V57.54a1,1,0,0,0-1.22-1.26A.29.29,0,0,1,72,56a1.17,1.17,0,0,1,0-.3l.79,0c.33,0,.61,0,.83-.07a6.21,6.21,0,0,0,.9-.18,2.57,2.57,0,0,1,.57-.11c.2,0,.31.11.31.33a6.78,6.78,0,0,1-.07.84,9.64,9.64,0,0,0-.06,1.17ZM73.47,63a4.36,4.36,0,0,0-1.19-.89,3.25,3.25,0,0,0-1.48-.32,2.05,2.05,0,0,0-1.89,1,5,5,0,0,0-.64,2.66,6.69,6.69,0,0,0,.18,1.57A4.86,4.86,0,0,0,69,68.41a2.85,2.85,0,0,0,.87.89,2.13,2.13,0,0,0,1.14.32,1.59,1.59,0,0,0,.86-.26,3.09,3.09,0,0,0,.79-.66,3.32,3.32,0,0,0,.59-.91,2.46,2.46,0,0,0,.23-1Z"/><circle class="a" cx="50" cy="50" r="45"/></svg>