<svg xmlns="http://www.w3.org/2000/svg" width="100" height="100" viewBox="0 0 100 100"><defs><style>.a{fill:none;stroke:#000;stroke-linecap:round;stroke-linejoin:round;}</style></defs><title>iShop Brand logo</title><path d="M39.43,39.94l-.26,0a.47.47,0,0,1-.32-.09.55.55,0,0,1-.16-.18,3.34,3.34,0,0,0-1-1.41A2.76,2.76,0,0,0,36,37.84a2.48,2.48,0,0,0-.77.12,2,2,0,0,0-.64.32,1.56,1.56,0,0,0-.43.52,1.39,1.39,0,0,0-.16.68,1.57,1.57,0,0,0,.67,1.31,8.87,8.87,0,0,0,2,1A6.92,6.92,0,0,1,39,43.26a2.71,2.71,0,0,1,.77,2,4,4,0,0,1-.21,1.3,2.78,2.78,0,0,1-.67,1.05,3,3,0,0,1-1.16.71,5.16,5.16,0,0,1-1.72.25,7.53,7.53,0,0,1-1.91-.22,5.41,5.41,0,0,1-1.45-.58c0-.47-.09-.93-.16-1.38s-.14-.88-.23-1.32a.63.63,0,0,1,.29-.05.48.48,0,0,1,.31.09.71.71,0,0,1,.19.3,4.14,4.14,0,0,0,1.1,1.8,3.25,3.25,0,0,0,2.83.43,2,2,0,0,0,.68-.43,1.77,1.77,0,0,0,.41-.61,2,2,0,0,0,.14-.73,1.75,1.75,0,0,0-.61-1.4,5.7,5.7,0,0,0-1.72-.91c-.49-.19-.93-.38-1.33-.57a4.34,4.34,0,0,1-1-.69,2.77,2.77,0,0,1-.65-.91,2.94,2.94,0,0,1-.23-1.23,3,3,0,0,1,.23-1.19,2.85,2.85,0,0,1,.66-1,3.25,3.25,0,0,1,1-.64A3.68,3.68,0,0,1,36,37.08a7.63,7.63,0,0,1,1.53.15,10.08,10.08,0,0,1,1.65.51c0,.34,0,.71.09,1.1A11.07,11.07,0,0,0,39.43,39.94Z"/><path d="M45.1,47.31a.48.48,0,0,1,.15-.1l.09,0c.1,0,.19.08.27.23a4.12,4.12,0,0,1-1,.79,2,2,0,0,1-1.09.31,2.25,2.25,0,0,1-.64-.08,1.15,1.15,0,0,1-.53-.29,1.56,1.56,0,0,1-.35-.61,3.3,3.3,0,0,1-.13-1V41.86h-1v-.19a.54.54,0,0,1,.05-.22.17.17,0,0,1,.18-.1,1.12,1.12,0,0,0,.74-.24,1.83,1.83,0,0,0,.48-.61c.14-.28.25-.53.36-.77s.21-.36.34-.36h.3v1.77h2a1.5,1.5,0,0,1-.07.54.3.3,0,0,1-.29.18H43.35v4.21a6.63,6.63,0,0,0,0,.88,1.61,1.61,0,0,0,.16.51.47.47,0,0,0,.23.23,1,1,0,0,0,.31.05,1.13,1.13,0,0,0,.54-.13A2.27,2.27,0,0,0,45.1,47.31Z"/><path d="M46.17,44.73a3.73,3.73,0,0,1,.3-1.48A3.89,3.89,0,0,1,47.28,42,3.83,3.83,0,0,1,50,40.94a4,4,0,0,1,1.53.28,3.59,3.59,0,0,1,1.19.77,3.44,3.44,0,0,1,.79,1.2,4.26,4.26,0,0,1,.28,1.54,3.71,3.71,0,0,1-.3,1.49,3.85,3.85,0,0,1-.81,1.2A3.83,3.83,0,0,1,50,48.52a4,4,0,0,1-1.53-.28,3.54,3.54,0,0,1-1.2-.77,3.33,3.33,0,0,1-.78-1.19A4.08,4.08,0,0,1,46.17,44.73Zm1.6-.56a6.44,6.44,0,0,0,.14,1.29,4.48,4.48,0,0,0,.42,1.2,2.49,2.49,0,0,0,.72.88,1.62,1.62,0,0,0,1.07.35,1.78,1.78,0,0,0,1.5-.68,2.73,2.73,0,0,0,.54-1.75A6.86,6.86,0,0,0,52,44.14a4.37,4.37,0,0,0-.41-1.25,2.78,2.78,0,0,0-.73-1,1.67,1.67,0,0,0-1.11-.37,1.81,1.81,0,0,0-1.45.62A2.91,2.91,0,0,0,47.77,44.17Z"/><path d="M59.83,41a1,1,0,0,1,.73.23.77.77,0,0,1,.23.53.58.58,0,0,1,0,.19.6.6,0,0,1-.16.18l-.36.22c-.15.08-.36.19-.64.31a1.59,1.59,0,0,0-.36-.32.86.86,0,0,0-.47-.14,1,1,0,0,0-.53.16,1.47,1.47,0,0,0-.4.45,2.06,2.06,0,0,0-.27.64,3.22,3.22,0,0,0-.09.76v2.92a.59.59,0,0,0,.39.56,4.62,4.62,0,0,0,1.12.28.18.18,0,0,1,.17.2,1.57,1.57,0,0,1,0,.27l-.47,0-.59,0-.63,0h-.6c-.31,0-.63,0-1,0L55,48.4a1,1,0,0,1,0-.27.18.18,0,0,1,.16-.2,2.87,2.87,0,0,0,.68-.21.43.43,0,0,0,.3-.39V43a3.27,3.27,0,0,0,0-.59,1,1,0,0,0-.15-.39.59.59,0,0,0-.29-.21,2.58,2.58,0,0,0-.5-.1c-.15,0-.23-.1-.23-.22a1.2,1.2,0,0,1,0-.24l.62,0,.66-.06.66-.15a1.78,1.78,0,0,1,.42-.07c.16,0,.24.08.24.25v1.14a6.6,6.6,0,0,1,1.1-1A2,2,0,0,1,59.83,41Z"/><path d="M67.12,46.74a.35.35,0,0,1,.25-.12c.12,0,.22.09.33.29a5.51,5.51,0,0,1-.51.59,3.67,3.67,0,0,1-.69.52,3.93,3.93,0,0,1-.91.36,4.17,4.17,0,0,1-1.17.14,3.74,3.74,0,0,1-1.3-.22A3,3,0,0,1,62,47.62a3.36,3.36,0,0,1-.74-1.14,4.12,4.12,0,0,1-.28-1.6,3.85,3.85,0,0,1,.33-1.6A4.09,4.09,0,0,1,62.21,42a4,4,0,0,1,1.16-.8,2.86,2.86,0,0,1,1.23-.29,2.75,2.75,0,0,1,2.31.92,3.76,3.76,0,0,1,.72,2.39.1.1,0,0,1-.1.11l-4.92.22a3.67,3.67,0,0,0,.19,1.22,2.84,2.84,0,0,0,.53,1,2.36,2.36,0,0,0,.82.64,2.53,2.53,0,0,0,1.09.23,2.26,2.26,0,0,0,1-.26A2.84,2.84,0,0,0,67.12,46.74Zm-2.75-5.19a1.54,1.54,0,0,0-1.32.66A3,3,0,0,0,62.58,44l3.2-.16c.17,0,.25-.07.25-.22a2.43,2.43,0,0,0-.1-.68,2.29,2.29,0,0,0-.31-.65,1.59,1.59,0,0,0-.51-.49A1.39,1.39,0,0,0,64.37,41.55Z"/><path d="M34.73,62.82a6,6,0,0,1,1.08.24,3.44,3.44,0,0,1,1,.51,2.48,2.48,0,0,1,.71.8,2.36,2.36,0,0,1,.28,1.15,3,3,0,0,1-.29,1.34,2.78,2.78,0,0,1-.79,1,4,4,0,0,1-1.25.63,5.88,5.88,0,0,1-1.62.22H30.5l-.69,0-.76,0a.25.25,0,0,1,0-.1.2.2,0,0,1,0-.09v-.08c0-.16.07-.25.19-.27a3.88,3.88,0,0,0,.92-.27.46.46,0,0,0,.25-.46V58.87a.61.61,0,0,0-.06-.28.47.47,0,0,0-.19-.18,1.59,1.59,0,0,0-.36-.14l-.56-.13c-.12,0-.19-.13-.19-.32a.52.52,0,0,1,0-.14.44.44,0,0,1,0-.1l1.09.06,1,0h2.09a5.45,5.45,0,0,1,1.62.21,3,3,0,0,1,1.1.59,2.3,2.3,0,0,1,.62.85,2.73,2.73,0,0,1,.2,1,2,2,0,0,1-.16.76,2.92,2.92,0,0,1-.41.7,3.26,3.26,0,0,1-.64.58,3,3,0,0,1-.83.39Zm-2.5-.22a3.48,3.48,0,0,0,2.15-.53A2,2,0,0,0,35,60.4a1.81,1.81,0,0,0-.65-1.53,3.56,3.56,0,0,0-2.15-.51H32V62.6ZM32,67.41a.39.39,0,0,0,.12.3.77.77,0,0,0,.3.19,1.18,1.18,0,0,0,.38.09l.39,0a6,6,0,0,0,1.17-.1,2.41,2.41,0,0,0,.91-.36,1.69,1.69,0,0,0,.57-.69A2.49,2.49,0,0,0,36,65.78a2.18,2.18,0,0,0-.84-1.86,3.77,3.77,0,0,0-2.31-.63H32Z"/><path d="M43.87,61.36a1,1,0,0,1,.73.23.74.74,0,0,1,.24.53.58.58,0,0,1,0,.19.67.67,0,0,1-.17.18l-.35.22c-.16.08-.37.19-.64.31a1.59,1.59,0,0,0-.36-.32.89.89,0,0,0-.47-.14,1,1,0,0,0-.53.16,1.49,1.49,0,0,0-.41.45,2.32,2.32,0,0,0-.26.64,3.22,3.22,0,0,0-.09.76v2.92a.59.59,0,0,0,.39.56,4.62,4.62,0,0,0,1.12.28.19.19,0,0,1,.17.2,1,1,0,0,1,0,.27l-.46,0-.59,0-.63,0h-.6c-.31,0-.63,0-1,0L39,68.8a1.57,1.57,0,0,1,0-.27.18.18,0,0,1,.15-.2,3.11,3.11,0,0,0,.69-.21.43.43,0,0,0,.3-.39V63.41a3.17,3.17,0,0,0-.05-.59.86.86,0,0,0-.14-.39.68.68,0,0,0-.3-.21,2.43,2.43,0,0,0-.5-.1c-.15,0-.22-.1-.22-.22a1.12,1.12,0,0,1,0-.24l.62,0,.66-.06.66-.15a1.78,1.78,0,0,1,.42-.07.22.22,0,0,1,.25.25v1.14a6.56,6.56,0,0,1,1.09-1A2.07,2.07,0,0,1,43.87,61.36Z"/><path d="M52.2,68.26c.13,0,.19.12.21.35a1.91,1.91,0,0,1-1.13.31,1.84,1.84,0,0,1-.65-.11,1.23,1.23,0,0,1-.46-.3,1.25,1.25,0,0,1-.3-.42,1.76,1.76,0,0,1-.13-.5,2.41,2.41,0,0,1-1,1,3,3,0,0,1-1.35.28,4.76,4.76,0,0,1-.72-.06,2.06,2.06,0,0,1-.72-.25,1.47,1.47,0,0,1-.56-.52,1.62,1.62,0,0,1-.22-.9,1.92,1.92,0,0,1,.29-1.07,2.62,2.62,0,0,1,.77-.71,4.27,4.27,0,0,1,1-.45c.37-.11.72-.21,1.06-.29l.54-.11a3.68,3.68,0,0,0,.43-.13.47.47,0,0,0,.3-.18,1.2,1.2,0,0,0,.06-.46,2.58,2.58,0,0,0-.31-1.32A1.15,1.15,0,0,0,48.22,62a1.45,1.45,0,0,0-.49.07.79.79,0,0,0-.34.21,1.55,1.55,0,0,0-.24.38c-.07.16-.13.35-.2.56a.43.43,0,0,1-.23.28,5.81,5.81,0,0,1-.6.2l-.26.07-.25,0c-.12,0-.18-.12-.18-.35a1.24,1.24,0,0,1,.29-.75,3.2,3.2,0,0,1,.74-.67,4.63,4.63,0,0,1,1-.46,3.11,3.11,0,0,1,1-.18,5.09,5.09,0,0,1,1.08.1,2,2,0,0,1,.82.37,1.74,1.74,0,0,1,.52.74A3.27,3.27,0,0,1,51,63.74v2.92a5.59,5.59,0,0,0,.05.86,1.55,1.55,0,0,0,.12.41.68.68,0,0,0,.27.32.61.61,0,0,0,.3.08.74.74,0,0,0,.26,0A.41.41,0,0,1,52.2,68.26Zm-2.58-3.32-.55.09a7.71,7.71,0,0,0-.86.2,2.84,2.84,0,0,0-.75.33,1.78,1.78,0,0,0-.52.54,1.51,1.51,0,0,0-.2.8,1.34,1.34,0,0,0,.34,1,1.1,1.1,0,0,0,.83.34,1.48,1.48,0,0,0,.64-.14,1.69,1.69,0,0,0,.55-.41,2.19,2.19,0,0,0,.52-1.4Z"/><path d="M60.6,67.75a.4.4,0,0,0,.31.38,3.28,3.28,0,0,0,.67.2.18.18,0,0,1,.16.2,1,1,0,0,1,0,.27l-.86-.06c-.29,0-.59,0-.92,0s-.61,0-.91,0l-.89.06a1,1,0,0,1,0-.27.18.18,0,0,1,.16-.2,3,3,0,0,0,.64-.2.41.41,0,0,0,.29-.38V64.42a6.3,6.3,0,0,0-.05-.79,2,2,0,0,0-.19-.62,1.07,1.07,0,0,0-.39-.4,1.24,1.24,0,0,0-.64-.15,2.39,2.39,0,0,0-.83.15,2,2,0,0,0-.72.42,2.35,2.35,0,0,0-.5.69,2.27,2.27,0,0,0-.18.93v3.1a.41.41,0,0,0,.3.38,3.3,3.3,0,0,0,.63.2.18.18,0,0,1,.16.2,1,1,0,0,1,0,.27l-.87-.06c-.28,0-.58,0-.9,0s-.65,0-1,0l-.86.06a1,1,0,0,1,0-.27.18.18,0,0,1,.15-.2,3.2,3.2,0,0,0,.68-.2.42.42,0,0,0,.31-.4V63.11a1.15,1.15,0,0,0-.18-.73,1.12,1.12,0,0,0-.77-.28.22.22,0,0,1-.22-.23,1.2,1.2,0,0,1,0-.23c.15,0,.36,0,.62,0l.66-.06.7-.14a1.76,1.76,0,0,1,.45-.08c.16,0,.24.08.24.25a4.4,4.4,0,0,1-.05.57,6.75,6.75,0,0,0,0,.88,7.13,7.13,0,0,1,1.4-1.26,2.61,2.61,0,0,1,1.46-.44,1.93,1.93,0,0,1,1.55.6,2.47,2.47,0,0,1,.52,1.68Z"/><path d="M69.85,67.2a1.69,1.69,0,0,0,0,.35.48.48,0,0,0,.14.25.69.69,0,0,0,.28.16,2.18,2.18,0,0,0,.47.09c.14,0,.22.1.22.22a1.2,1.2,0,0,1,0,.24l-.58,0a4.65,4.65,0,0,0-.62.06,6.45,6.45,0,0,0-.67.14,1.94,1.94,0,0,1-.42.08c-.16,0-.24-.09-.24-.26V67.27c-.16.22-.32.42-.48.62a2.76,2.76,0,0,1-.55.53,2.7,2.7,0,0,1-.72.36,2.88,2.88,0,0,1-1,.14,2.63,2.63,0,0,1-1.1-.24,2.75,2.75,0,0,1-.94-.7A3.56,3.56,0,0,1,63,66.83a4.38,4.38,0,0,1-.25-1.55,3.76,3.76,0,0,1,.36-1.67A4.26,4.26,0,0,1,64,62.37a3.87,3.87,0,0,1,1.15-.77,3.05,3.05,0,0,1,1.15-.26,4.36,4.36,0,0,1,1.14.13,6.16,6.16,0,0,1,1,.33V58.58a1.11,1.11,0,0,0-.18-.72,1.15,1.15,0,0,0-.77-.26.22.22,0,0,1-.22-.24,1.12,1.12,0,0,1,0-.24l.62,0,.66-.06a5.4,5.4,0,0,0,.7-.14,1.76,1.76,0,0,1,.45-.08c.16,0,.24.08.24.25a5.57,5.57,0,0,1,0,.66,6.12,6.12,0,0,0-.05.92Zm-1.43-4.3a3.45,3.45,0,0,0-.94-.69A2.53,2.53,0,0,0,66.33,62a1.62,1.62,0,0,0-1.49.82,4,4,0,0,0-.5,2.09,5.45,5.45,0,0,0,.14,1.23,3.55,3.55,0,0,0,.43,1,2.28,2.28,0,0,0,.68.7,1.62,1.62,0,0,0,.89.25,1.36,1.36,0,0,0,.68-.2,2.77,2.77,0,0,0,.62-.52,2.68,2.68,0,0,0,.46-.72,1.89,1.89,0,0,0,.18-.79Z"/><polygon class="a" points="50 78.18 77.81 92.8 72.5 61.83 95 39.9 63.91 35.38 50 7.2 36.09 35.38 5 39.9 27.5 61.83 22.19 92.8 50 78.18"/></svg>