<svg xmlns="http://www.w3.org/2000/svg" width="100" height="100" viewBox="0 0 100 100"><defs><style>.a{fill:#221f72;}.b{fill:#fff;}</style></defs><title>iShop Brand logo</title><path class="a" d="M93.74,63.9a1.27,1.27,0,1,1-1.27,1.27,1.27,1.27,0,0,1,1.27-1.27m0,2.25a1,1,0,1,0-.94-1,1,1,0,0,0,.94,1m-.49-1.66h.42c.31,0,.6.07.6.39a.39.39,0,0,1-.3.41l.34.53H94l-.31-.51h-.08v.51h-.32V64.49Zm.32.55h.16c.08,0,.22,0,.22-.14s-.14-.14-.22-.14h-.16Z"/><path class="b" d="M91.74,34.92a1.1,1.1,0,0,0,0-.18c-.15-.85-1.47-1.81-2.36-2.2,0,0-5.74-3.22-22.17-2.08C57.81,31.11,46,33.21,46,33.21h0c-36.9-6.3-41-.82-41,0H5V65.08a1.1,1.1,0,0,0,0,.18c.15.85,1.48,1.82,2.36,2.21,0,0,5.74,3.22,22.17,2.07,9.38-.65,21.15-2.74,21.15-2.74h0c36.9,6.29,41,.81,41-.05h0V34.92Z"/><path class="a" d="M50.16,58.46a1.22,1.22,0,0,1-1-.6c-.26-.37-.16-1.06-.16-2s.2-15.52.19-15.76.06-.92-.54-.83-4.52.89-5.23,1-.55.17-.51.59a.39.39,0,0,0,.15.32,4.37,4.37,0,0,0,.49.23,2.66,2.66,0,0,1,1.2,1.76,2.84,2.84,0,0,1,.09.72c0,.32-.14,10.65-.21,12.82,0,1.58.19,2.63.76,3.23a2.48,2.48,0,0,0,1.86.68,2.54,2.54,0,0,0,.39,0,4,4,0,0,0,2.91-1.22c.47-.53.09-1-.4-1"/><path class="a" d="M77.15,36.14H77a1.59,1.59,0,0,0-1.43,1.58,2.25,2.25,0,0,0,.74,1.59,1.33,1.33,0,0,1,.28,1.15,4.88,4.88,0,0,1-.35,1.06l0,0c-.05.12-.12.35.08.44l.12,0a.92.92,0,0,0,.53-.24,5.78,5.78,0,0,0,1.8-3.87c0-1.33-.81-1.8-1.56-1.8"/><path class="a" d="M76.08,54.82c-1.06-.2-1.2-1.27-1.2-2.18,0-1.1.19-4.2.27-7a5.35,5.35,0,0,0-1-3.83,3.13,3.13,0,0,0-2.34-.85h0a5.2,5.2,0,0,0-3.22,1.4l-.1.08a.68.68,0,0,1-.38.15c-.1,0-.42,0-.43-.6l0-4.88c0-.61-.17-.64-.71-.61-1,.06-4.41.45-4.94.54s-.41.22-.39.55,0,.39.47.57,1.24.74,1.24,2.48c0,1.94,0,15.06,0,16.6,0,.7.57.58.9.53l2.52-.36c.7-.1.94,0,.94-.87,0-.69,0-9.45,0-9.52,0-1.78.78-3.34,1.86-3.34h.07c1.09,0,1.2,1.62,1.18,2.54,0,1.56-.21,5.4-.16,7.54s.86,2.89,2.74,2.94h.2a4.32,4.32,0,0,0,2.63-.73.79.79,0,0,0,.4-.64c0-.16,0-.39-.49-.46"/><path class="a" d="M61.34,54.3c-.16,0-.37.1-.62.33a3.3,3.3,0,0,1-2.1.94h-.37c-1.91-.16-2.86-2.29-2.58-5.83.26-3.07,1.13-5,2.44-5.18a1,1,0,0,1,.9.37,2.73,2.73,0,0,1,.31,1.93c-.09.78,0,1,.27,1.11a.79.79,0,0,0,.75-.15,3.54,3.54,0,0,0,1-3.88A2.8,2.8,0,0,0,59,42.68a6.38,6.38,0,0,0-1.71.12c-3,.62-6,3.79-6.29,9-.25,4.2,1.5,6.87,4.71,7.15a6.54,6.54,0,0,0,.77,0,5.43,5.43,0,0,0,4.82-3.1c.26-.54.42-1.25.23-1.44a.28.28,0,0,0-.21-.11"/><path class="a" d="M40.88,46.09a5,5,0,0,0-1.11,0c-3.74.25-7.15,4.43-7.75,9.51-.45,3.84,1,6.49,3.93,6.9a5.68,5.68,0,0,0,1.1.05,6.73,6.73,0,0,0,5.5-3.42c.42-.79.45-1.37.27-1.54a.48.48,0,0,0-.16-.08c-.14,0-.34.11-.65.42l-.09.1a3.53,3.53,0,0,1-2.36,1,3.12,3.12,0,0,1-.75,0A2.61,2.61,0,0,1,36.61,57a.61.61,0,0,1,0-.42.49.49,0,0,1,.29-.27,16.1,16.1,0,0,0,1.62-.75c1.53-.78,4.18-2.5,4.86-5.32a3.76,3.76,0,0,0-.34-2.77,2.87,2.87,0,0,0-2.17-1.34m-1.47,6.67a7.46,7.46,0,0,1-2.35,1.84h0a.68.68,0,0,1-.3,0c-.22,0-.36-.24-.37-.55A9.46,9.46,0,0,1,37,51c.73-1.92,1.82-3.07,2.8-2.93l.13,0a1.16,1.16,0,0,1,.83.88,5,5,0,0,1-1.34,3.79"/><path class="a" d="M35,42.91a.88.88,0,0,0-.22-.7,1.38,1.38,0,0,0-1-.41,2.15,2.15,0,0,0-.7.12c-1.92.65-2.75,3.29-3.45,6.19-.49,2-1,4.57-1.14,5.47,0,.16-.06.28-.07.33-.07.36-.14.71-.46.72h0c-.33,0-.44-.43-.49-.64-.42-1.63-2.25-9.88-2.32-10.16-.19-.76-.34-.74-1-.67l-1.26.14c-.69.07-.89,0-1,.57s-2.32,11-2.33,11.06c-.05.21-.14.61-.45.62h0c-.3,0-.39-.32-.44-.53v0c0-.16-2.41-7.86-2.41-7.86A1.79,1.79,0,0,1,16.87,45c.53-.25.51-.4.49-.83s-.37-.42-.65-.42c-.09,0-1.92,0-3.75-.06a23.91,23.91,0,0,1-3.89-.53s-.44-.1-.48.33-.12.64.68,1.09a4.22,4.22,0,0,1,2.05,2.54c.31.87,4.31,15,4.45,15.43.24.76.32,1.08.92,1.14s1.11.06,1.57.07c.93,0,1,0,1.2-1s2.22-9.48,2.23-9.52.13-.59.44-.6h0c.3,0,.38.32.43.51h0c.06.19,2.05,8.45,2.26,9.17.31,1.1.41,1.37,1.1,1.29l1.5-.1c.64-.08.58,0,.93-1.27.17-.59.4-1.58.65-2.62.29-1.21.65-2.7,1.13-4.57,1.81-7.1,3.13-9.8,4.35-11.2a1.74,1.74,0,0,0,.49-1"/><path class="a" d="M85,46.9h0c-1.74-1.34-2.5-2.13-2.45-3.29a1.38,1.38,0,0,1,1.35-1.35,1.74,1.74,0,0,1,.45.06c.75.21,1.35.89,1.9,2.14s.73,1.29,1,1.27c.11,0,.39,0,.38-.75,0-.46,0-.6,0-1.06v-.07a2.51,2.51,0,0,0-.82-2,6.33,6.33,0,0,0-2.91-1.44,5.25,5.25,0,0,0-1.29-.14,4.06,4.06,0,0,0-3,1.33,4.35,4.35,0,0,0-1,3.09c.06,2.42,1.9,3.93,3.38,5.14L82,50c1.92,1.58,2.42,2.36,2.26,3.49a1.5,1.5,0,0,1-1.48,1.32,2,2,0,0,1-.59-.09,4.14,4.14,0,0,1-2.15-2.38c-.07-.14-.13-.27-.19-.38a.83.83,0,0,0-1.29-.45c-.26.17-.67.79-.29,1.89.6,1.71,2.29,2.89,4.64,3.23a6.55,6.55,0,0,0,1,.07,4.42,4.42,0,0,0,4.57-4.15c.25-2.76-1.81-4.34-3.46-5.62"/><path class="a" d="M91.75,66.74c0-.48-.83-1.26-1.88-1.65C89.11,65.54,81,70.34,53,66.4l-2.22.39C87.67,73.08,91.73,67.6,91.75,66.74Z"/><path class="a" d="M5,33.26c0,.48.79,1.26,1.84,1.66.76-.46,8.91-5.25,36.89-1.32L46,33.21C9.08,26.92,5,32.4,5,33.26Z"/><path class="a" d="M89.87,65.09c1,.39,1.88,1.17,1.88,1.65h0V63.42a1.06,1.06,0,0,0,0-.17,1.78,1.78,0,0,0-.68-1c-.85-.73-2.68-1.43-5.64-1.8-5.21-.67-13.6.19-28.06,2.54l-1.59.27-1,.19-1,.18c-9.8,1.79-18.25,4-29.4,4.29-9.29.29-13.79-.61-16.69-1.75A3.87,3.87,0,0,1,5,63.68v1.41a.55.55,0,0,0,0,.17c.15.85,1.48,1.82,2.36,2.21,0,0,5.73,3.22,22.17,2.07,9.37-.65,21.15-2.74,21.15-2.74L53,66.4c3.67-.61,11.17-1.78,17.93-2.27,14.08-1,18.74.87,18.74.87l.22.09"/><path class="a" d="M6.84,34.91C5.79,34.52,5,33.73,5,33.26H5v3.32a1,1,0,0,0,0,.17,1.63,1.63,0,0,0,.64,1c.86.73,2.69,1.43,5.64,1.81,5.21.66,13.6-.2,28.06-2.55l1.6-.27,1-.18,1-.19c9.81-1.78,18.25-3.95,29.41-4.29,9.29-.29,13.78.61,16.68,1.76a3.89,3.89,0,0,1,2.61,2.45V34.92a1.1,1.1,0,0,0,0-.18c-.15-.85-1.5-1.83-2.37-2.22,0,0-5.76-3.21-22.19-2.06C57.78,31.11,46,33.21,46,33.21l-2.28.39c-3.66.61-11.16,1.78-17.93,2.27C11.72,36.89,7.06,35,7.06,35l-.22-.09"/></svg>