<svg id="Layer_1" data-name="Layer 1" xmlns="http://www.w3.org/2000/svg" viewBox="0 0 60 62.52"><defs><style>.cls-1{fill:#f7d057;}.cls-1,.cls-5{stroke:#444344;stroke-miterlimit:10;stroke-width:0.75px;}.cls-2{fill:#f05f2f;}.cls-3{fill:#444344;}.cls-4{fill:#444345;}.cls-5{fill:#45a4d7;}</style></defs><title>Somewhere else</title><path class="cls-1" d="M44.18,58.33A1.14,1.14,0,0,1,43,57.18h0V46.91a1.14,1.14,0,0,1,2.29,0V57.18a1.14,1.14,0,0,1-1.14,1.14Z"/><path class="cls-1" d="M15.82,58.33a1.14,1.14,0,0,1-1.14-1.14h0V46.91a1.14,1.14,0,0,1,2.29,0h0V57.18a1.14,1.14,0,0,1-1.14,1.14Z"/><path class="cls-2" d="M43.7,42.84H55.11a.64.64,0,0,1,.64.64h0v3.43a.65.65,0,0,1-.65.65H43.7a.64.64,0,0,1-.64-.64h0V43.48A.64.64,0,0,1,43.7,42.84Z"/><path class="cls-3" d="M55.11,43.34a.14.14,0,0,1,.14.14h0v3.43a.14.14,0,0,1-.14.14H43.7a.14.14,0,0,1-.14-.14h0V43.48a.14.14,0,0,1,.14-.14H55.11m0-1H43.7a1.14,1.14,0,0,0-1.14,1.14h0v3.43a1.14,1.14,0,0,0,1.14,1.14H55.11a1.14,1.14,0,0,0,1.14-1.14h0V43.48a1.14,1.14,0,0,0-1.14-1.14h0Z"/><rect class="cls-2" x="4.26" y="42.84" width="12.7" height="4.71" rx="0.64" ry="0.64"/><path class="cls-3" d="M16.31,43.34a.14.14,0,0,1,.14.14h0v3.43a.14.14,0,0,1-.14.14H4.9a.14.14,0,0,1-.14-.14h0V43.48a.14.14,0,0,1,.14-.14H16.31m0-1H4.9a1.14,1.14,0,0,0-1.14,1.13h0v3.43A1.14,1.14,0,0,0,4.9,48.05H16.31a1.14,1.14,0,0,0,1.14-1.14h0V43.48a1.14,1.14,0,0,0-1.14-1.14h0Z"/><path class="cls-1" d="M32.29,58.33H27.72a1.14,1.14,0,0,1-1.14-1.14h0V38.93a1.14,1.14,0,0,1,1.14-1.14H32.3a1.14,1.14,0,0,1,1.14,1.14h0V57.18a1.14,1.14,0,0,1-1.14,1.14h0Z"/><path class="cls-4" d="M36.85,59H23.17a1.14,1.14,0,0,1,0-2.29H36.85a1.14,1.14,0,1,1,0,2.29Z"/><path class="cls-4" d="M30,36.65a1.14,1.14,0,0,1-1.14-1.15v0h0V4.7a1.14,1.14,0,1,1,2.29,0h0V35.46a1.14,1.14,0,0,1-1.1,1.19Z"/><path class="cls-5" d="M55.5,15,30.39,5.91a1.14,1.14,0,0,0-.78,0L4.5,15a1.14,1.14,0,0,0-.75,1.07v2.29a1.14,1.14,0,0,0,1.13,1.12H55.1a1.14,1.14,0,0,0,1.14-1.14h0V16.11A1.14,1.14,0,0,0,55.5,15Z"/><path class="cls-1" d="M46,40.07H14a1.14,1.14,0,0,1-1.14-1.14h0V35.46A1.14,1.14,0,0,1,14,34.36H46a1.14,1.14,0,0,1,1.18,1.1h0v3.43A1.14,1.14,0,0,1,46,40.07Z"/><path class="cls-1" d="M55.11,58.33a1.14,1.14,0,0,1-1.18-1.11s0,0,0,0h0V29.71a1.14,1.14,0,1,1,2.29,0V57.18a1.14,1.14,0,0,1-1.14,1.14h0Z"/><path class="cls-1" d="M4.9,58.33a1.14,1.14,0,0,1-1.14-1.14h0V29.71a1.14,1.14,0,0,1,2.29,0H6V57.18A1.14,1.14,0,0,1,4.9,58.33Z"/></svg>