<svg xmlns="http://www.w3.org/2000/svg" viewBox="0 0 15.47 15.79">
  <defs>
    <style>.a{fill:#fff;}</style>
  </defs>
  <title>BGS China</title>
  <rect class="a" x="3.39" y="7.12" width="8.69" height="1.54"/>
  <polygon class="a" points="8.49 7.12 8.49 3.55 6.95 3.55 6.95 7.12 3.39 7.12 3.39 8.66 6.95 8.66 6.95 12.24 8.49 12.24 8.49 8.66 12.08 8.66 12.08 7.12 8.49 7.12"/>
  <path class="a" d="M7.73,15.79A7.82,7.82,0,0,1,0,7.9,7.83,7.83,0,0,1,7.73,0a7.83,7.83,0,0,1,7.73,7.9A7.82,7.82,0,0,1,7.73,15.79ZM7.73,1A6.82,6.82,0,0,0,1,7.9a6.82,6.82,0,0,0,6.73,6.9,6.82,6.82,0,0,0,6.73-6.9A6.82,6.82,0,0,0,7.73,1Z"/>
</svg>