<svg xmlns="http://www.w3.org/2000/svg" width="17.61" height="17.61" viewBox="0 0 17.61 17.61"><defs><style>.cls-1{fill:#474949;opacity:0.6;}</style></defs><title>Coke_Dine_Sprite</title><g id="Layer_1" data-name="Layer 1"><path class="cls-1" d="M15.78,17.61h-14l-.09,0A2.08,2.08,0,0,1,.08,16.1c0-.1-.06-.21-.08-.31q0-7,0-14a.64.64,0,0,0,0-.09A2.06,2.06,0,0,1,1.26.18,4.72,4.72,0,0,1,1.82,0h14l.09,0a2.08,2.08,0,0,1,1.64,1.48c0,.1.06.21.08.31v14s0,.07,0,.11a2.09,2.09,0,0,1-1.48,1.63ZM8.82,1.1H2.19A1,1,0,0,0,1.1,2.18q0,6.64,0,13.27a1,1,0,0,0,1,1.05H15.48a1,1,0,0,0,1-1q0-6.68,0-13.36a1,1,0,0,0-1-1Z"/></g></svg>