<svg xmlns="http://www.w3.org/2000/svg" width="17.61" height="17.61" viewBox="0 0 17.61 17.61"><defs><style>.cls-1{fill:#f15f2e;}.cls-2{fill:#474949;opacity:0.8;}</style></defs><title>Coke_Dine_Sprite</title><g id="Layer_1" data-name="Layer 1"><path class="cls-1" d="M7.62,11.56l.1-.14,4.16-6.27c.19-.29.43-.36.66-.21s.26.41.07.69L8.07,12.49a.44.44,0,0,1-.57.22.54.54,0,0,1-.19-.15L5,9.74a.44.44,0,1,1,.68-.55l1.88,2.28Z"/><path class="cls-1" d="M7.67,13a.65.65,0,0,1-.26-.06.77.77,0,0,1-.29-.22L4.79,9.9a.72.72,0,0,1-.13-.71.68.68,0,0,1,.54-.43A.69.69,0,0,1,5.86,9L7.6,11.15,11.67,5a.7.7,0,0,1,1-.28.65.65,0,0,1,.29.42.83.83,0,0,1-.15.62L8.28,12.62A.74.74,0,0,1,7.67,13ZM5.31,9.25h0a.18.18,0,0,0-.15.11.22.22,0,0,0,.05.22L7.5,12.4a.28.28,0,0,0,.1.08s.13.06.26-.13L12.4,5.49a.37.37,0,0,0,.08-.25.15.15,0,0,0-.08-.1s-.16-.1-.32.14L7.65,12l-1-1.23L5.47,9.35C5.41,9.27,5.36,9.25,5.31,9.25Z"/><path class="cls-2" d="M15.78,17.61h-14l-.09,0A2.08,2.08,0,0,1,.08,16.1c0-.1-.06-.21-.08-.31q0-7,0-14a.64.64,0,0,0,0-.09A2.06,2.06,0,0,1,1.26.18,4.72,4.72,0,0,1,1.82,0h14l.09,0a2.08,2.08,0,0,1,1.64,1.48c0,.1.06.21.08.31v14s0,.07,0,.11a2.09,2.09,0,0,1-1.48,1.63ZM8.82,1.1H2.19A1,1,0,0,0,1.1,2.18q0,6.64,0,13.27a1,1,0,0,0,1,1.05H15.48a1,1,0,0,0,1-1q0-6.68,0-13.36a1,1,0,0,0-1-1Z"/></g></svg>