<svg id="Layer_1" data-name="Layer 1" xmlns="http://www.w3.org/2000/svg" width="703.09" height="63.14" viewBox="0 0 703.09 63.14"><defs><style>.cls-1{fill:#fff;}.cls-2{fill:#e8222c;}</style></defs><title>Coke LandingPage icons_22-12</title><path class="cls-1" d="M128.34,3.85H130V17.5h-1.64Z"/><circle class="cls-1" cx="129.16" cy="1.07" r="1.02" transform="translate(0.28 9.62) rotate(-4.27)"/><path class="cls-1" d="M132.43,14.13l1.43-.86Q135.37,16,137.34,16a3.33,3.33,0,0,0,1.59-.39,2.79,2.79,0,0,0,1.13-1.06,2.73,2.73,0,0,0,.39-1.4,2.85,2.85,0,0,0-.57-1.66A13.67,13.67,0,0,0,137,8.84a14.69,14.69,0,0,1-2.62-2.3A4.2,4.2,0,0,1,133.49,4,3.9,3.9,0,0,1,134,2,3.75,3.75,0,0,1,135.5.55,4.26,4.26,0,0,1,137.57,0a4.42,4.42,0,0,1,2.22.59A7.62,7.62,0,0,1,142,2.79l-1.37,1A6.59,6.59,0,0,0,139,2.17a2.79,2.79,0,0,0-1.46-.4,2.31,2.31,0,0,0-1.66.62,2,2,0,0,0-.65,1.52A2.59,2.59,0,0,0,135.46,5a3.9,3.9,0,0,0,.83,1.12q.33.32,2.17,1.68a12.22,12.22,0,0,1,3,2.87,4.62,4.62,0,0,1,.81,2.52,4.28,4.28,0,0,1-1.39,3.17,4.66,4.66,0,0,1-3.37,1.35,5,5,0,0,1-2.77-.82A7.47,7.47,0,0,1,132.43,14.13Z"/><path class="cls-1" d="M144.52.09h1.74V7.4h8.87V.09h1.74V17.51h-1.74V9.1h-8.87v8.41h-1.74Z"/><path class="cls-1" d="M167.77,0a8.62,8.62,0,0,1,6.32,2.52,8.39,8.39,0,0,1,2.54,6.2A8.43,8.43,0,0,1,174.09,15a8.42,8.42,0,0,1-6.19,2.54A8.51,8.51,0,0,1,161.66,15a8.32,8.32,0,0,1-2.54-6.12,8.85,8.85,0,0,1,1.16-4.44A8.56,8.56,0,0,1,167.77,0Zm.07,1.62a6.85,6.85,0,0,0-3.5,1,6.91,6.91,0,0,0-2.58,2.59,7.2,7.2,0,0,0-.93,3.63,6.78,6.78,0,0,0,2.05,5,6.77,6.77,0,0,0,5,2,7.11,7.11,0,0,0,3.58-.94A6.72,6.72,0,0,0,174,12.38a7.21,7.21,0,0,0,.92-3.62A7,7,0,0,0,174,5.18a6.89,6.89,0,0,0-2.6-2.56A7,7,0,0,0,167.84,1.66Z"/><path class="cls-1" d="M178.88.09h3.47a20,20,0,0,1,4,.26,4.47,4.47,0,0,1,2.44,1.51,4.35,4.35,0,0,1,.95,2.87,4.39,4.39,0,0,1-.92,2.87,4.54,4.54,0,0,1-2.55,1.52,22.5,22.5,0,0,1-4.43.28h-1.24v8.1h-1.74Zm1.74,1.71V7.71l2.95,0a7.71,7.71,0,0,0,2.62-.32,2.69,2.69,0,0,0,1.3-1.05A2.92,2.92,0,0,0,188,4.74a2.88,2.88,0,0,0-.47-1.6,2.62,2.62,0,0,0-1.25-1,7.51,7.51,0,0,0-2.54-.31Z"/><path class="cls-1" d="M107.39,20.57l-.39.34a.55.55,0,0,0-.42-.28.25.25,0,0,0-.17.06.16.16,0,0,0-.07.12.21.21,0,0,0,0,.13,3.55,3.55,0,0,0,.38.35l.36.32a1.11,1.11,0,0,1,.23.31.77.77,0,0,1,.07.32.74.74,0,0,1-.23.56.85.85,0,0,1-.61.22.91.91,0,0,1-.51-.14,1.14,1.14,0,0,1-.37-.45l.44-.27q.2.36.46.36a.34.34,0,0,0,.23-.08.23.23,0,0,0,.09-.18.31.31,0,0,0-.07-.19,2,2,0,0,0-.31-.29,3.08,3.08,0,0,1-.58-.57.72.72,0,0,1-.13-.4.65.65,0,0,1,.22-.49.76.76,0,0,1,.54-.2.85.85,0,0,1,.39.1A1.43,1.43,0,0,1,107.39,20.57Z"/><path class="cls-1" d="M107.94,20.2h.53v1h.92v-1h.53v2.75h-.53V21.74h-.92v1.21h-.53Z"/><path class="cls-1" d="M111.84,20.13a1.37,1.37,0,0,1,1,.42,1.41,1.41,0,0,1,.42,1,1.39,1.39,0,0,1-.41,1,1.44,1.44,0,0,1-2,0,1.45,1.45,0,0,1,1-2.46Zm0,.51a.86.86,0,0,0-.64.27.92.92,0,0,0-.26.67.88.88,0,0,0,.33.72.9.9,0,0,0,.58.21.85.85,0,0,0,.63-.27,1,1,0,0,0,0-1.33A.86.86,0,0,0,111.84,20.64Z"/><path class="cls-1" d="M113.76,20.2h.55a1.83,1.83,0,0,1,.65.08.66.66,0,0,1,.31.27.83.83,0,0,1,.11.45.75.75,0,0,1-.15.48.78.78,0,0,1-.41.27,2.34,2.34,0,0,1-.55,0v1.16h-.52Zm.52,1.07h.17a.9.9,0,0,0,.27,0,.24.24,0,0,0,.12-.09.27.27,0,0,0,0-.16.25.25,0,0,0-.12-.23.7.7,0,0,0-.33-.05h-.15Z"/><path class="cls-1" d="M115.9,20.2h.55a1.83,1.83,0,0,1,.65.08.66.66,0,0,1,.31.27.83.83,0,0,1,.11.45.75.75,0,0,1-.15.48.78.78,0,0,1-.41.27,2.34,2.34,0,0,1-.55,0v1.16h-.52Zm.52,1.07h.17a.9.9,0,0,0,.27,0,.24.24,0,0,0,.12-.09.27.27,0,0,0,0-.16.25.25,0,0,0-.12-.23.7.7,0,0,0-.33-.05h-.15Z"/><path class="cls-1" d="M118,20.2h1.5v.51h-1v.5h1v.5h-1v.72h1v.51H118Z"/><path class="cls-1" d="M120.07,20.2h.55a1.83,1.83,0,0,1,.65.08.67.67,0,0,1,.31.27.83.83,0,0,1,.12.45.76.76,0,0,1-.13.45.79.79,0,0,1-.39.28l.65,1.22h-.57l-.62-1.16h0v1.16h-.52Zm.52,1.07h.16a.64.64,0,0,0,.34-.07.25.25,0,0,0,.09-.22.26.26,0,0,0,0-.16.26.26,0,0,0-.12-.1.94.94,0,0,0-.29,0h-.14Z"/><path class="cls-1" d="M123.33,20.2h.53v1h.92v-1h.53v2.75h-.53V21.74h-.92v1.21h-.53Z"/><path class="cls-1" d="M126.77,20.2h.53l1.06,2.75h-.54l-.22-.57h-1.12l-.22.57h-.54Zm.27.73-.37.94h.74Z"/><path class="cls-1" d="M128.77,22.95V20.2h.43a2.24,2.24,0,0,1,.55,0,.74.74,0,0,1,.39.24.64.64,0,0,1,.15.42.61.61,0,0,1-.07.29.73.73,0,0,1-.22.24.86.86,0,0,1,.37.29.74.74,0,0,1,.12.42.78.78,0,0,1-.12.42.77.77,0,0,1-.31.29,1.19,1.19,0,0,1-.52.09Zm.52-2.25v.58h.11a.42.42,0,0,0,.28-.08.27.27,0,0,0,.09-.22.26.26,0,0,0-.09-.2.4.4,0,0,0-.27-.08Zm0,1v.7h.13a.81.81,0,0,0,.44-.08.28.28,0,0,0,.11-.24.34.34,0,0,0-.13-.28.74.74,0,0,0-.44-.1Z"/><path class="cls-1" d="M130.95,20.2h.52v2.75h-.52Z"/><path class="cls-1" d="M131.79,20.2h1.52v.52h-.5v2.23h-.53V20.72h-.49Z"/><path class="cls-1" d="M135.11,20.57l-.39.34a.55.55,0,0,0-.42-.28.25.25,0,0,0-.17.06.16.16,0,0,0-.07.12.21.21,0,0,0,0,.13,3.55,3.55,0,0,0,.38.35l.36.32a1.11,1.11,0,0,1,.23.31.77.77,0,0,1,.07.32.74.74,0,0,1-.23.56.85.85,0,0,1-.61.22.91.91,0,0,1-.51-.14,1.14,1.14,0,0,1-.37-.45l.44-.27q.2.36.46.36a.34.34,0,0,0,.23-.08.23.23,0,0,0,.09-.18.31.31,0,0,0-.07-.19,2,2,0,0,0-.31-.29,3.08,3.08,0,0,1-.58-.57.72.72,0,0,1-.13-.4.65.65,0,0,1,.22-.49.76.76,0,0,1,.54-.2.85.85,0,0,1,.39.1A1.43,1.43,0,0,1,135.11,20.57Z"/><path class="cls-1" d="M137.42,20.13h.3v3.56h-.3Z"/><path class="cls-1" d="M141.39,20.13a1.37,1.37,0,0,1,1,.42,1.41,1.41,0,0,1,.42,1,1.39,1.39,0,0,1-.41,1,1.44,1.44,0,0,1-2,0,1.45,1.45,0,0,1,1-2.46Zm0,.51a.86.86,0,0,0-.64.27.92.92,0,0,0-.26.67.88.88,0,0,0,.33.72.9.9,0,0,0,.58.21.85.85,0,0,0,.63-.27,1,1,0,0,0,0-1.33A.86.86,0,0,0,141.39,20.64Z"/><path class="cls-1" d="M145.84,20.68l-.37.35a1.13,1.13,0,0,0-.84-.39.92.92,0,0,0-.93.93,1,1,0,0,0,.12.49.86.86,0,0,0,.34.33,1,1,0,0,0,.49.12,1,1,0,0,0,.42-.09,1.48,1.48,0,0,0,.41-.31l.35.37a2,2,0,0,1-.58.41,1.57,1.57,0,0,1-.62.11,1.42,1.42,0,0,1-1-.41,1.41,1.41,0,0,1-.41-1,1.43,1.43,0,0,1,.19-.73,1.38,1.38,0,0,1,.53-.51,1.5,1.5,0,0,1,.75-.19,1.59,1.59,0,0,1,1.2.55Z"/><path class="cls-1" d="M148.82,20.68l-.37.35a1.13,1.13,0,0,0-.84-.39.92.92,0,0,0-.93.93,1,1,0,0,0,.12.49.86.86,0,0,0,.34.33,1,1,0,0,0,.49.12,1,1,0,0,0,.42-.09,1.48,1.48,0,0,0,.41-.31l.35.37a2,2,0,0,1-.58.41,1.57,1.57,0,0,1-.62.11,1.42,1.42,0,0,1-1-.41,1.41,1.41,0,0,1-.41-1,1.43,1.43,0,0,1,.19-.73,1.38,1.38,0,0,1,.53-.51,1.5,1.5,0,0,1,.75-.19,1.59,1.59,0,0,1,1.2.55Z"/><path class="cls-1" d="M150.12,20.2h.53l1.06,2.75h-.54l-.22-.57h-1.12l-.22.57h-.54Zm.27.73-.37.94h.74Z"/><path class="cls-1" d="M153.56,20.57l-.39.34a.55.55,0,0,0-.42-.28.25.25,0,0,0-.17.06.16.16,0,0,0-.07.12.21.21,0,0,0,0,.13,3.55,3.55,0,0,0,.38.35l.36.32a1.11,1.11,0,0,1,.23.31.77.77,0,0,1,.07.32.74.74,0,0,1-.23.56.85.85,0,0,1-.61.22.91.91,0,0,1-.51-.14,1.14,1.14,0,0,1-.37-.45l.44-.27q.2.36.46.36a.34.34,0,0,0,.23-.08.23.23,0,0,0,.09-.18.31.31,0,0,0-.07-.19,2,2,0,0,0-.31-.29,3.08,3.08,0,0,1-.58-.57.72.72,0,0,1-.13-.4.65.65,0,0,1,.22-.49.76.76,0,0,1,.54-.2.85.85,0,0,1,.39.1A1.43,1.43,0,0,1,153.56,20.57Z"/><path class="cls-1" d="M154.07,20.2h.52v2.75h-.52Z"/><path class="cls-1" d="M156.47,20.13a1.37,1.37,0,0,1,1,.42,1.41,1.41,0,0,1,.42,1,1.39,1.39,0,0,1-.41,1,1.44,1.44,0,0,1-2,0,1.45,1.45,0,0,1,1-2.46Zm0,.51a.86.86,0,0,0-.64.27.92.92,0,0,0-.26.67.88.88,0,0,0,.33.72.9.9,0,0,0,.58.21.85.85,0,0,0,.63-.27,1,1,0,0,0,0-1.33A.86.86,0,0,0,156.47,20.64Z"/><path class="cls-1" d="M158.39,20.2h.5L160.07,22V20.2h.52v2.75h-.5l-1.18-1.8v1.8h-.52Z"/><path class="cls-1" d="M162.67,20.57l-.39.34a.55.55,0,0,0-.42-.28.25.25,0,0,0-.17.06.16.16,0,0,0-.07.12.21.21,0,0,0,0,.13,3.55,3.55,0,0,0,.38.35l.36.32a1.11,1.11,0,0,1,.23.31.77.77,0,0,1,.07.32.74.74,0,0,1-.23.56.85.85,0,0,1-.61.22.91.91,0,0,1-.51-.14,1.14,1.14,0,0,1-.37-.45l.44-.27q.2.36.46.36a.34.34,0,0,0,.23-.08.23.23,0,0,0,.09-.18.31.31,0,0,0-.07-.19,2,2,0,0,0-.31-.29,3.08,3.08,0,0,1-.58-.57.72.72,0,0,1-.13-.4.65.65,0,0,1,.22-.49.76.76,0,0,1,.54-.2.85.85,0,0,1,.39.1A1.43,1.43,0,0,1,162.67,20.57Z"/><path class="cls-1" d="M165,20.13h.3v3.56H165Z"/><path class="cls-1" d="M167.65,20.2h.55a1.83,1.83,0,0,1,.65.08.66.66,0,0,1,.31.27.83.83,0,0,1,.11.45.75.75,0,0,1-.15.48.78.78,0,0,1-.41.27,2.34,2.34,0,0,1-.55,0v1.16h-.52Zm.52,1.07h.17a.9.9,0,0,0,.27,0,.24.24,0,0,0,.12-.09.27.27,0,0,0,0-.16.25.25,0,0,0-.12-.23.7.7,0,0,0-.33-.05h-.15Z"/><path class="cls-1" d="M169.8,20.2h1.5v.51h-1v.5h1v.5h-1v.72h1v.51h-1.5Z"/><path class="cls-1" d="M171.82,20.2h.55a1.83,1.83,0,0,1,.65.08.67.67,0,0,1,.31.27.83.83,0,0,1,.12.45.76.76,0,0,1-.13.45.79.79,0,0,1-.39.28l.65,1.22H173l-.62-1.16h0v1.16h-.52Zm.52,1.07h.16a.64.64,0,0,0,.34-.07.25.25,0,0,0,.09-.22.26.26,0,0,0,0-.16.26.26,0,0,0-.12-.1.94.94,0,0,0-.29,0h-.14Z"/><path class="cls-1" d="M176.54,20.68l-.37.35a1.13,1.13,0,0,0-.84-.39.92.92,0,0,0-.93.93,1,1,0,0,0,.12.49.86.86,0,0,0,.34.33,1,1,0,0,0,.49.12,1,1,0,0,0,.42-.09,1.48,1.48,0,0,0,.41-.31l.35.37a2,2,0,0,1-.58.41,1.57,1.57,0,0,1-.62.11,1.42,1.42,0,0,1-1-.41,1.41,1.41,0,0,1-.41-1,1.43,1.43,0,0,1,.19-.73,1.38,1.38,0,0,1,.53-.51,1.5,1.5,0,0,1,.75-.19,1.59,1.59,0,0,1,1.2.55Z"/><path class="cls-1" d="M177,20.2h1.5v.51h-1v.5h1v.5h-1v.72h1v.51H177Z"/><path class="cls-1" d="M179,20.2h.55a1.83,1.83,0,0,1,.65.08.66.66,0,0,1,.31.27.83.83,0,0,1,.11.45.75.75,0,0,1-.15.48.78.78,0,0,1-.41.27,2.34,2.34,0,0,1-.55,0v1.16H179Zm.52,1.07h.17a.9.9,0,0,0,.27,0,.24.24,0,0,0,.12-.09.27.27,0,0,0,0-.16.25.25,0,0,0-.12-.23.7.7,0,0,0-.33-.05h-.15Z"/><path class="cls-1" d="M180.86,20.2h1.52v.52h-.5v2.23h-.53V20.72h-.49Z"/><path class="cls-1" d="M182.7,20.2h.52v2.75h-.52Z"/><path class="cls-1" d="M185.11,20.13a1.37,1.37,0,0,1,1,.42,1.41,1.41,0,0,1,.42,1,1.39,1.39,0,0,1-.41,1,1.44,1.44,0,0,1-2,0,1.45,1.45,0,0,1,1-2.46Zm0,.51a.86.86,0,0,0-.64.27.92.92,0,0,0-.26.67.88.88,0,0,0,.33.72.9.9,0,0,0,.58.21.85.85,0,0,0,.63-.27,1,1,0,0,0,0-1.33A.86.86,0,0,0,185.1,20.64Z"/><path class="cls-1" d="M187,20.2h.5L188.7,22V20.2h.52v2.75h-.5l-1.18-1.8v1.8H187Z"/><path class="cls-1" d="M191.3,20.57l-.39.34a.55.55,0,0,0-.42-.28.25.25,0,0,0-.17.06.16.16,0,0,0-.07.12.21.21,0,0,0,0,.13,3.55,3.55,0,0,0,.38.35l.36.32a1.11,1.11,0,0,1,.23.31.77.77,0,0,1,.07.32.74.74,0,0,1-.23.56.85.85,0,0,1-.61.22.91.91,0,0,1-.51-.14,1.14,1.14,0,0,1-.37-.45l.44-.27q.2.36.46.36a.34.34,0,0,0,.23-.08.23.23,0,0,0,.09-.18.31.31,0,0,0-.07-.19,2,2,0,0,0-.31-.29,3.08,3.08,0,0,1-.58-.57.72.72,0,0,1-.13-.4.65.65,0,0,1,.22-.49.76.76,0,0,1,.54-.2.85.85,0,0,1,.39.1A1.43,1.43,0,0,1,191.3,20.57Z"/><circle class="cls-1" cx="113.69" cy="16.28" r="1.27"/><circle class="cls-1" cx="120.75" cy="16.28" r="1.27"/><path class="cls-1" d="M125.19,3.94a.72.72,0,0,0-.53-.23h-14l-.4-1.62a.63.63,0,0,0-.39-.43L106.73.08a.73.73,0,0,0-.93.24.58.58,0,0,0,.27.84L109,2.62l.52,2.11,1.56,7.21.18.82h1.4l-.21-1,10.85-1.06a.66.66,0,0,0,.59-.48l1.43-5.79A.57.57,0,0,0,125.19,3.94ZM111.08,5.43a.55.55,0,0,0,0-.16L111,4.94h3.5l.17,2.27-3.15.15Zm1.14,5.2-.53-2.4,3-.14.17,2.27Zm6.37-.66-2.72.28L115.7,8l3.14-.15ZM119,7l-3.32.16-.17-2.22h3.74Zm3.71,2.55-3.07.32.25-2,3.28-.15Zm.68-2.75-3.4.16.25-2h3.61Z"/><path class="cls-1" d="M125.19,3.94Z"/><path class="cls-1" d="M122.59,13.18H111.8a.53.53,0,0,0,0,1.06h10.79a.53.53,0,0,0,0-1.06Z"/><path class="cls-2" d="M52.92,1.8a9.38,9.38,0,0,0-3.06,2.38C48.21,6,47.25,8,48,8.58c.27.21.9.24,2-.79a9.05,9.05,0,0,0,2.41-3.35,4.57,4.57,0,0,0,.5-2.64m9,3.26c-1.83-.94-3.17-2.08-4.56-2.8a5.2,5.2,0,0,0-3.26-.82,3.21,3.21,0,0,0-.44.11S54.23,3.44,52,6.62s-4.25,3.2-4.82,2.31.17-2.83,1.47-4.53a16.3,16.3,0,0,1,3.74-3.24s-.76-.46-2.63.6a26.3,26.3,0,0,0-7.87,7.63C39,13.54,38.43,15.82,38,17.61s0,3.72,2,3.72,4.3-3,5-4.09c1.21-2,2-5,.35-4.57a3.46,3.46,0,0,0-1.89,2,8.36,8.36,0,0,0-.6,1.74,6.88,6.88,0,0,0-1.61.94,12,12,0,0,0-1.53,1.35,9.57,9.57,0,0,1,1.15-3.76,6.12,6.12,0,0,1,4.43-3.48c1.07-.09,2.46.82,1.29,4.18s-4.66,7.43-8.32,7.48c-3.38,0-5.59-4.26-.89-11.79C42.5,3,48.61.44,50.59.15s2.63.59,2.63.59A8.52,8.52,0,0,1,57,.11c2.42.16,4.3,1.88,6.76,3.08-.65.63-1.26,1.27-1.81,1.87M72.81,2.26A10.32,10.32,0,0,1,66.58,4.1c-.56.59-1.17,1.26-1.77,2,3.87.76,7.26-1.63,9.06-3.68A12.09,12.09,0,0,0,75.55,0a15,15,0,0,1-2.73,2.25m-5.14,10.9a.84.84,0,0,0,.07-.16.39.39,0,0,0-.35-.34c-.37,0-.87.05-2.19,1.51a19.75,19.75,0,0,0-2.8,4c-.75,1.38-1.06,2.41-.63,2.67a.64.64,0,0,0,.46,0c.29-.07.63-.34,1.13-.93.24-.27.5-.66.82-1.1.87-1.19,3.05-4.93,3.49-5.68M54,14.76c.22-.58.5-1.71-.09-2.15s-2.22.63-2.23,1.77a2,2,0,0,0,1.4,1.76c.15,0,.21,0,.28-.09A9.8,9.8,0,0,0,54,14.76m-1.2,2.11a5,5,0,0,1-1.1-.7,3.56,3.56,0,0,1-.83-1s0,0-.07,0-.12.12-1,1.37-2.15,3.83-1,4.27c.76.28,2-1,2.7-1.92A16.28,16.28,0,0,0,52.81,17c0-.07,0-.09,0-.11m13.41,3c-.32.51-.68,1.5.38.88,1.29-.75,3.13-3.54,3.13-3.54h.83A27.89,27.89,0,0,1,68,20.5c-1.31,1.45-2.9,2.77-4,2.64-1.31-.15-.9-1.88-.9-1.88s-1.88,2-3.18,1.86c-1.75-.19-1.22-2.36-1.22-2.36s-2,2.44-3.33,2.36c-2.12-.12-1.59-2.71-1-4.52.32-1,.61-1.74.61-1.74s-.21.06-.66.12c-.24,0-.67.06-.67.06A28.77,28.77,0,0,1,52,19.54c-.71.94-3.71,4.16-5.48,3.52S45.45,20,46.4,18c1.39-2.9,5.29-7.06,7.54-6.52s.05,4.82.05,4.82,0,0,0,0a1,1,0,0,0,.45,0,4.82,4.82,0,0,0,.85-.26A49.65,49.65,0,0,1,60.25,7.9C62.84,4.69,68-.85,70,.49c.5.33.27,1.46-.4,2.84a9.4,9.4,0,0,1-.92.24,7.43,7.43,0,0,0,.83-2c.3-1.66-3.57,1.84-6.34,5.61a52.13,52.13,0,0,0-4.43,7.18,11.89,11.89,0,0,0,1.43-1,41.52,41.52,0,0,0,3.52-3.29,38.75,38.75,0,0,0,3-3.46,8.26,8.26,0,0,0,.88-.09,38.23,38.23,0,0,1-3.3,3.91c-1.1,1.12-2.3,2.32-3.34,3.2A27.65,27.65,0,0,1,58,15.82S55.61,20.7,56.93,21c.77.18,2.3-2.17,2.3-2.17a54.23,54.23,0,0,1,3.2-4.42c1.64-1.87,3.05-2.95,4.47-3a1.68,1.68,0,0,1,1.31.86l.39-.6H71s-4.45,7.55-4.8,8.12M72.81,2.26A10.32,10.32,0,0,1,66.58,4.1c-.56.59-1.17,1.26-1.77,2,3.87.76,7.26-1.63,9.06-3.68A12.09,12.09,0,0,0,75.55,0a15,15,0,0,1-2.73,2.25M39.35,6H37.08L35.8,8.06h2.27ZM28.62,13.16c1-1.32,3.62-6,3.62-6a.39.39,0,0,0-.35-.34c-.37,0-1,.11-2.2,1.63a28.6,28.6,0,0,0-2.85,4c-.75,1.38-1.09,2.35-.65,2.62a.64.64,0,0,0,.46,0,2.73,2.73,0,0,0,1.16-.94c.24-.27.51-.64.82-1.07M16.45,6.9c-.62-.47-2.22.63-2.23,1.77s1.44,1.49,1.63,1.5a.2.2,0,0,0,.23-.09,10.24,10.24,0,0,0,.46-1c.22-.58.5-1.71-.09-2.15m-.94,4a5.35,5.35,0,0,1-1.23-.56,2.62,2.62,0,0,1-.88-1s0,0-.07,0-.15.19-1,1.44-2.11,3.81-.93,4.25c.76.28,2-1,2.72-1.93A22.09,22.09,0,0,0,15.55,11c0-.07,0-.09,0-.11M34,11.65h.83s-4.16,6-6.51,5.74c-1.31-.15-.92-1.77-.92-1.77s-1.85,2.16-3.53,1.73-.55-2.95-.55-2.95c-.17.07-3.5,3.82-5.83,2.92s-1.18-4.08-.71-5,.83-1.57.83-1.57L17,10.9l-.59.12s-1.16,1.88-1.86,2.82S10.87,18,9.1,17.35s-1.33-3.11-.34-5.08c1.61-3.19,5.43-7.11,7.73-6.52s.4,4.37.4,4.37.46.06,1.57-.7c1.6-1.09,3.7-4,6-3.68,1.07.16,2.07,1.26.71,3.35-.44.67-1.17,1.27-1.73.68-.35-.37,0-1,.32-1.5A1.44,1.44,0,0,1,25,7.71s.38-.87-.58-.85c-.78,0-2.74,1.82-3.85,3.65s-2.56,4.54-1,5.16,4.12-2.64,5.37-4.31S29,5.87,31.4,5.72a1.59,1.59,0,0,1,1.31.7L33,6h2.38s-4.5,7.51-4.85,8.08-.64,1.45.38.88A19.17,19.17,0,0,0,34,11.65m-1.3,12a9.91,9.91,0,0,0-6-1.75,3.68,3.68,0,0,0-2.93,1.59c-.91-1.59-2.72-2.57-5.5-2.54-4.5.05-9,2.13-12.5,2.13A5.41,5.41,0,0,1,0,17.2C.15,10.57,5.75,4.58,9.95,1.89,12.36.34,14.38-.12,15.7,0a1.93,1.93,0,0,1,1.39,2.86c-1.07,2.4-2.55,2.2-2.5,1.05a1.9,1.9,0,0,1,.9-1.47,1.82,1.82,0,0,1,.87-.22c.21-.18.37-1.49-1.35-1.06S11.2,3.32,9.22,5.51,4.15,11.84,3.39,16.19c-.35,2-.12,5.69,4.66,5.65,4,0,10-2.7,15.52-2.66A10.47,10.47,0,0,1,29,20.67a15,15,0,0,1,3.73,3"/><path class="cls-2" d="M67.82,22.53c.07,0,.12,0,.12-.09s-.09-.08-.15-.08h-.15v.17Zm.22.35H67.9l-.14-.26h-.12v.26h-.12v-.62h.3a.34.34,0,0,1,.17,0,.18.18,0,0,1,.07.16c0,.11-.06.16-.17.17Zm.18-.31a.46.46,0,1,0-.46.47.46.46,0,0,0,.46-.47m-1,0a.57.57,0,1,1,.57.57.57.57,0,0,1-.57-.57"/></svg>