<svg xmlns="http://www.w3.org/2000/svg" width="15.5" height="22" viewBox="0 0 15.5 22"><defs><style>.a{fill:#fff;}</style></defs><title>Coke iShop icon</title><path class="a" d="M13,0s.05,0,.08.05a1,1,0,0,1,.72,1,1,1,0,0,1-.65,1L13.07,2c.4.57.79,1.13,1.2,1.68a1.29,1.29,0,0,1,.27.83q0,7,0,14a.6.6,0,0,1-.17.44l-1,1.2a.3.3,0,0,0-.1.21c0,.26,0,.52,0,.77s.06.16.18.16h1.87c.16,0,.21,0,.21.21,0,.44,0,.44-.44.44-4.92,0-9.85,0-14.77,0C.07,22,0,22,0,21.73s0-.38.37-.38H2.09c.13,0,.19,0,.17-.16v0a1.48,1.48,0,0,0-.51-1.45,8.44,8.44,0,0,1-.68-.78A.38.38,0,0,1,1,18.68Q1,11.47,1,4.24A.52.52,0,0,1,1.07,4L2.32,2.18c.05-.08.12-.14,0-.2a1,1,0,0,1-.63-1A1,1,0,0,1,2.4,0l.07,0Zm.85,11.47V4.77c0-.21-.05-.26-.26-.26H1.87c-.21,0-.27,0-.26.26V18.14c0,.2,0,.25.24.25q5.9,0,11.79,0c.22,0,.25-.07.25-.26Zm-12-7.61H13.57c-.39-.56-.77-1.08-1.14-1.62a.38.38,0,0,0-.35-.18H6.22c-.41,0-.4,0-.41-.4,0-.19,0-.25.24-.25h6.66c.31,0,.49-.15.49-.39S13,.64,12.7.64H2.78c-.3,0-.49.16-.48.4s.19.38.48.38h2c.45,0,.44,0,.45.45,0,.17-.06.2-.21.2H3.34a.24.24,0,0,0-.22.09ZM2,19c.24.29.46.54.69.8,0,.06.11.05.18.05h9.75c.06,0,.13,0,.18-.05l.68-.8Zm5.73,2.31H12c.18,0,.42.08.54,0s0-.35,0-.52,0-.26-.25-.26H3c-.09,0-.13,0-.13.13a2.46,2.46,0,0,1,0,.47c0,.18.05.23.23.22Z"/><path class="a" d="M13.24,11.56a7.94,7.94,0,0,1-.12,1.7c0,.14-.06.2-.24.15-.42-.12-.39-.11-.35-.56a9.37,9.37,0,0,0-.16-3.58A4.82,4.82,0,0,0,7.31,5.94,4.8,4.8,0,0,0,3,9.72a2.57,2.57,0,0,0-.09.61A14.34,14.34,0,0,0,2.94,13a4.77,4.77,0,0,0,4.2,3.9,4.82,4.82,0,0,0,4.12-1.44A4.31,4.31,0,0,0,12.19,14c.05-.12.1-.14.22-.09.47.18.48.18.24.63a5.36,5.36,0,0,1-5.27,2.94,5.39,5.39,0,0,1-5-4,4.52,4.52,0,0,1-.17-1A9.63,9.63,0,0,1,2.49,9,5.27,5.27,0,0,1,7.28,5.31,5.41,5.41,0,0,1,12.93,8.9,7,7,0,0,1,13.24,11.56Z"/><path class="a" d="M4.44,11.33a1.51,1.51,0,0,1-.35-2.16,1.43,1.43,0,0,1,.78-.52.22.22,0,0,0,.2-.19A1.43,1.43,0,0,1,6.18,7.39a1.43,1.43,0,0,1,1.48.51c.08.09.1.1.18,0a1.4,1.4,0,0,1,1.41-.52,1.4,1.4,0,0,1,1.15,1,.38.38,0,0,0,.29.28,1.41,1.41,0,0,1,1,1.13,1.43,1.43,0,0,1-.51,1.42.39.39,0,0,1-.1.08c0,.07.06.08.1.11a1.44,1.44,0,0,1,.5,1.45,1.4,1.4,0,0,1-1,1.13.27.27,0,0,0-.21.22,1.49,1.49,0,0,1-2.55.57c-.1-.12-.14-.12-.24,0a1.44,1.44,0,0,1-1.46.47,1.42,1.42,0,0,1-1.08-1A.32.32,0,0,0,4.84,14a1.39,1.39,0,0,1-1-1.12A1.43,1.43,0,0,1,4.44,11.33ZM7.72,10h0l-.06-.23A7.21,7.21,0,0,0,7.28,8.5a.83.83,0,0,0-1-.49.87.87,0,0,0-.67.84c0,.12.08.28,0,.37s-.26,0-.4,0a.85.85,0,0,0-.83.77.88.88,0,0,0,.75.95l1.35.32-.35.11a10,10,0,0,0-1.33.47.72.72,0,0,0-.37.4.85.85,0,0,0,.91,1.15c.3,0,.3,0,.28.28a.85.85,0,0,0,1.64.4,3.57,3.57,0,0,0,.18-.66l.24-1a2.21,2.21,0,0,1,.15.48,6.9,6.9,0,0,0,.34,1.26.84.84,0,0,0,1.61-.35c0-.38,0-.38.39-.39a.84.84,0,0,0,.83-.64.85.85,0,0,0-.45-1,2.27,2.27,0,0,0-.46-.16l-1.35-.31c.27-.09.54-.14.81-.21a3.67,3.67,0,0,0,1.07-.32.85.85,0,0,0,.37-1,.82.82,0,0,0-.81-.61H10c-.12,0-.15,0-.14-.15a2.16,2.16,0,0,0,0-.36A.83.83,0,0,0,9.12,8a.8.8,0,0,0-.86.46,6,6,0,0,0-.3.8Z"/><path class="a" d="M6.74,2.94c0,.37,0,.31-.35.31s-.29.06-.29-.36,0-.28.35-.28S6.74,2.56,6.74,2.94Z"/><path class="a" d="M7.38,2.92c0-.36,0-.31.35-.31S8,2.56,8,3s0,.3-.38.3S7.38,3.25,7.38,2.92Z"/><path class="a" d="M9.32,2.94c0,.37,0,.31-.35.31s-.3,0-.3-.34,0-.3.36-.3S9.31,2.56,9.32,2.94Z"/></svg>