<svg xmlns="http://www.w3.org/2000/svg" viewBox="0 0 155.02 154.59"><defs><style>.a{fill:#fff;}.b,.c,.d,.e,.f{stroke:#000;}.b,.c{stroke-width:0.25px;}.c,.d{fill:#c8a94d;}.d,.f{stroke-width:0.24px;}.e,.f{fill:none;}.e{stroke-width:0.13px;}</style></defs><title>ausa corporate</title><circle class="a" cx="77.44" cy="77.33" r="76.56"/><path d="M77.65,154.59c-2,0-4.19,0-6.18-.2a77.22,77.22,0,0,1-44.06-136A76.45,76.45,0,0,1,83.83.29a77.27,77.27,0,0,1-6.18,154.3ZM77.45,1.48a75.41,75.41,0,0,0-49,18.14A74.53,74.53,0,0,0,1.89,71.29,75.9,75.9,0,1,0,83.63,1.71,57.33,57.33,0,0,0,77.45,1.48Z"/><path d="M60.7,138.44l3.19.8-2.59,4.59h0Zm-.15-2.15-.4-3-2.79-.6,1.59,15,2,.6,8.57-12.36-2.79-.6-1.79,2.59Z"/><path d="M47,139.24a2.22,2.22,0,0,0,1.4,1.79,1.67,1.67,0,0,0,2.19-.8c1-2.19-4.39-3.39-2.59-7.78,1.2-2.59,3.59-3.59,6-2.39a4.85,4.85,0,0,1,2.79,4.19l-2.19.8a2.82,2.82,0,0,0-1.4-2.79,1.94,1.94,0,0,0-2.39,1c-.6,1.4.4,2.19,1.2,3,1.4,1.4,2.19,2.79,1.2,4.78a3.7,3.7,0,0,1-4.52,2.64,3.56,3.56,0,0,1-.66-.25,5.8,5.8,0,0,1-2.79-3Z"/><path d="M37.78,133.66a2.2,2.2,0,0,0,1.2,2c.8.4,1.79.4,2.19-.4,1.2-2-3.79-4.19-1.4-8,1.59-2.39,4-3,6.38-1.4a4.59,4.59,0,0,1,2,4.59l-2.39.4a2.85,2.85,0,0,0-1-3,1.8,1.8,0,0,0-2.47.59,2.25,2.25,0,0,0-.12.21c-.8,1.2.2,2.19.8,3.19,1,1.59,1.59,3,.6,4.78a3.76,3.76,0,0,1-5.11,1.5,2.66,2.66,0,0,1-.47-.3,5.91,5.91,0,0,1-2.44-3.37Z"/><path d="M29,127.29a4.34,4.34,0,0,1,.2-6c1.4-1.4,4.59-2.19,6.18-.6s1,4.78-.4,6.18C33.39,128.47,30.6,129.07,29,127.29Zm8.17-8.37c-2.79-2.79-7.18-2.39-10,.4a7.2,7.2,0,0,0-.2,10c2.8,2.82,7.18,2.39,10-.4s3.19-7.23.2-10Z"/><path d="M18.24,111.73a4.07,4.07,0,0,0,.6,3.39c1.4,2.19,4.19,2,6.18.6s3-3.79,1.59-6a4.3,4.3,0,0,0-3-1.79l2.59-1.79a6.33,6.33,0,0,1,2.41,2.15c2.19,3.19,1,7.38-2.19,9.57a7.22,7.22,0,0,1-10-1.4,5.44,5.44,0,0,1-1-3Z"/><path d="M25,102.36l1.2,2.39-12.37,6.18-1.2-2.39Z"/><path d="M17,96.37l1,3-5.18.2h0Zm1.79-1.59,2.39-2-1-2.79L8.46,99.56l.6,2,15.15.4-.6-2.39-3.19-.2Z"/><path d="M19.83,85.41l.4,2.59L8.87,90l.4,2.79-2.39.4L5.48,85l2.59-.4.4,2.79Z"/><path d="M19.24,79.43l.2,2.59-13.76.8-.2-2.59Z"/><path d="M7.87,70.66c.2-2.39,2.59-3.79,4.78-3.59,2,.2,4.59,2.19,4.39,4.39-.2,2.39-3,3.79-5,3.59C9.87,74.84,7.67,73.05,7.87,70.66Zm12,1a6.82,6.82,0,0,0-6.26-7.35l-.35,0a7,7,0,0,0-7.77,6.13v0a6.85,6.85,0,0,0,6.26,7.37h.32a7,7,0,0,0,7.77-6.14v-.06Z"/><path d="M6.88,59.89l.6-1.79,11.36-3.81h0l-8.77-3,.8-2.59,13.36,4.39-.6,1.79L12.27,58.67h0l9,3-.8,2.59Z"/><path d="M21.23,35.57a4.19,4.19,0,0,1,5.86-.72l.14.12c1.59,1.2,2.79,4.19,1.4,6s-4.59,1.59-6.18.4a4.15,4.15,0,0,1-1.26-5.73A.43.43,0,0,0,21.23,35.57Zm9.57,7.18C33.19,39.56,32.2,35.37,29,33c-3.19-2.19-7.58-2-10,1.2a6.88,6.88,0,0,0,1.52,9.59l.27.18C24,46.14,28.41,45.94,30.8,42.75Z"/><path d="M29.4,26.4l2,2.19L34.19,26l1.59,1.79L33,30.39l4.19,4.39-2,1.79-9.37-10,5-4.78,1.59,1.79Z"/><path d="M49.94,25.4l-2.39,1.4-5.78-10-2.39,1.4-1.2-2L45.36,12l1.2,2-2.39,1.4Z"/><path d="M56.92,13.29,55.13,8.11l2.59-1,4.78,13-2.59,1.2-2.19-5.78-4.59,1.79,2.19,5.78-2.59.8L48,10.9l2.59-1,1.79,5.18Z"/><path d="M64.49,8.29l.6,3,4.19-.8.4,2.39-4.19.8.6,3.59,4.39-.8.4,2.39-7,1.2L61.55,6.46l7-1.2L69,7.65Z"/><path d="M83.83,4.67l2.59.4-1.2,7.58c-.2,1.59-.4,4,1.79,4.39s2.79-2,3-3.59l1.2-7.58,2.59.4-1.2,8.17c-.6,3.39-2.39,5.58-6,5S82,16.05,82.41,12.86Z"/><path d="M98,6.86l1.79.8,3.39,11.56h0l3.39-8.77,2.59,1-5,13.16-1.79-.6L99,12.45h0l-3.41,8.76-2.59-1Z"/><path d="M107.75,26.6l-2.39-1.4,6.78-12,2.39,1.4Z"/><path d="M112.74,30l-2.19-1.6L117.13,19l-2.19-1.59,1.4-2,6.78,4.78-1.4,2-2.17-1.59Z"/><path d="M125.3,25.6l-2,2.19,3.19,3-1.59,1.79-3.19-3-2.59,2.79,3.19,3-1.59,1.79-5.18-5,9.37-10,5.18,5L128.5,29Z"/><path d="M132.28,33l.2.4c1.79,2.39,1.59,4.59-.8,6.38-2.19,1.59-4.39,1.79-6.38-1l-.2-.4Zm-10.73,4.78,2.39,3c2.39,3.19,6.38,3.59,9.57,1.2s4-6.38,1.59-9.57l-2.39-3Z"/><path d="M144.24,57.1a3.23,3.23,0,0,0,.4-2.39,1.48,1.48,0,0,0-1.82-1.05l-.18.05c-2.19.8.6,5.58-3.79,7.18a4.28,4.28,0,0,1-5.72-2,4,4,0,0,1-.28-.75c-.6-1.79,0-3.39,1.2-5l2.19,1a2.87,2.87,0,0,0-1,3,1.77,1.77,0,0,0,2.26,1.06.75.75,0,0,0,.13-.06c1.4-.4,1.4-1.79,1.4-3,.2-2,.6-3.39,2.59-4.19a3.92,3.92,0,0,1,5.1,2.16c0,.08.06.16.08.23a5.42,5.42,0,0,1-.2,4Z"/><path d="M135.66,67.47l-.4-2.59,11.16-2.19-.6-2.79,2.39-.4,1.4,8.17-2.39.4-.6-2.79Z"/><path d="M141.45,77.44V74.29l5,1.4h0Zm-2.19.8-2.79,1.2v2.79l14.15-5.58v-2l-14.35-5.18v2.82l3,1Z"/><path d="M135.46,87l.4-2.59L147.22,86l.4-2.79,2.39.4-1.2,8.17-2.39-.4.4-2.79Z"/><path d="M145.23,96l-3-.8L141,99.37l-2.19-.6,1.2-4.19-3.59-1-1.2,4.19-2.19-.6,2-6.78,13.16,3.79-2,6.78-2.19-.6Z"/><path d="M139.45,108.74a2.83,2.83,0,0,0,2-1.4,1.51,1.51,0,0,0-.55-2.07,1.92,1.92,0,0,0-.25-.12c-2.19-1-3.59,4.39-7.78,2.39-2.59-1.2-3.59-3.59-2.39-6.18a4.87,4.87,0,0,1,4.19-2.79l.8,2.39a2.55,2.55,0,0,0-2.79,1.4,1.78,1.78,0,0,0,.87,2.34l.13,0c1.2.6,2.19-.4,3-1.2,1.4-1.4,2.79-2.19,4.78-1.2a4,4,0,0,1,2,5.28.47.47,0,0,1,0,.1,5.72,5.72,0,0,1-3,2.79Z"/><path d="M123.7,121.29l2.19-2.39,2.59,4.59h0Zm-2.15-1-2.79-1.2-2,2.19,14,5.78,1.4-1.59-6.78-13.56-2,2.19,1.4,2.79Z"/><path d="M121.31,132.29l-.2.2c-1.2.8-2.19,1.2-3.19-.2s-.4-2.39.8-3.19l.2-.2Zm-5.76-3a3.9,3.9,0,0,0,0,4.78c1.79,2.39,4,2.19,6.18.6l3-2.19-8.37-11-2.19,1.59,3.39,4.39h0l-6-2.39-2.59,2Z"/><path d="M103.17,139.24h0l-.8-9.17.8-.4,6.38,6.62h0L107,128.12l2.39-1.2,4,13.76-1.59.8-7-6.78,1,9.57-1.79.8-8-12,2.39-1.2Z"/><path d="M100,146.22l-3,.8-3.43-4.19L92.15,148l-3,.8,2.59-8.17-1.4-6.18,2.59-.6,1.4,6.18Z"/><circle cx="77.23" cy="141.62" r="1.59"/><path class="b" d="M37.55,42.55S26,32.78,38.75,30.79C41.94,26.4,47.12,26,54.3,26.6c2-4,9-2.79,9.17-1.2-1.79.4-1,3.59-.2,4.39s9.17,10.57,9.17,10.57L84.2,16.84s1.4-2.39,6.78-2.39c5.78,0,11.56,12.76,13.36,14.35C106.13,30.59,144.81,84,144.81,84l-12.56,2L106.76,71.29l-11.16.6,27.31,36.88-24.53,1.52s-.2,5.58-1.79,5.38c.2,3.79-.6,5.58,0,6.18a20.69,20.69,0,0,0,3.59,1.4l.2,2.19-2.59,1.85-6-3c-2.59,3.19-10.77-1-13.36,2.19,1.2-4.78-.8-5,7.78-5.78a31.21,31.21,0,0,1-2.59-2.79c-4,3.59-9.77-2.39-11.76-.6,1.4-4,2.39-4.19,6.58-4.39-1.4-1.4-3-5.18-7.78-1.79,0,0-.6,7-4.39,10.57-5,4.78-12.76,8.77-12.76,8.77l-5.57-3.18-11-7.38s-5.58-2.19-5.58-13.16c0-12.56.4-20.53.4-20.53h3.79c-.6,0,0-.8-2.19-1.59,4.19-1.4,6.58.6,8.17,1.79h6.38L45.55,84s-6.58.2-9.37-3.59c-2.59-3.79-4.39-6.58-5.18-6.78,4.39-.8,7.58.6,8.77.6-3.59-4.39-4-12-2.19-17.34,6.58,5,6.58,8.37,6.18,15.15.4-4,2.19-5.58,3-7,.8,2.79,4.78,9.17,2,17.15A19.33,19.33,0,0,1,50.55,85c-.8-4.59,3-7,3.39-8.37,1.2,4.78,1.59,8.77.2,9.77h4c-1.2-6.38,2-6,6.58-5.78C61.72,73.85,54,58.9,54,58.9l-2.82-2.61-8-15.95C43.55,40.55,36.78,40.15,37.55,42.55Zm50,73.56,5,3.59s-2.79-2.79-2.39-8.57c-1,1.59-.35,4-2.54,5ZM70.8,96.57l.6,3.19L73,102.55l.8-2.79c-.13,0-1.32-3.39-2.92-3.19Z"/><path class="c" d="M37.78,86.21a3.17,3.17,0,0,0-2-2.59c3-.2,5.38,1,6,2.79C39.37,86.21,37.78,86.21,37.78,86.21Z"/><path class="c" d="M50.74,86.41s-2-4.39,2.39-9.17c1,3.19,1.59,6.38,1.2,7.58-.8,2.39-1,1.59-1,1.59Z"/><path class="c" d="M91.41,19.22,117.93,56.7s16.55,23.72,15,23.92c-1.79.2-7.58.2-7.58.2L87.42,30.19,99,47.73s20.73,31.5,17.15,29.51C111,74.45,103,69.66,103,69.66L82.83,44.14l7.38,10.77s7.58,12.36,5,12.56c-2.79,0-8.57.2-8.57.2l-6.38-8L98.2,86.58s11.35,17.57,10.55,19c-3,.2-14.35.4-14.35.4l-3.59-3.59-16.15-.2-.8-30.3-1,6s-.4,4.39-3.59,5.18a6.31,6.31,0,0,1-1.2,6.18c-.6-8.57-9.57-4.78-8.37-2.39a2,2,0,0,1-1.2,0s-3.19-7,6-6.18c-5.38-11-10.37-21.33-10.37-21.33l5.18-3-.2-2.19,4.78-2.39.2-2,3.79-2-.2-1.4,3.19-2.59L83.63,16.84"/><path class="c" d="M47.94,127.48,36.78,119.9s-6-3.39-5.58-12.76c0-2.39.4-21.13.4-21.13l16.75.2h.2l17,.2s-.4,18.94-.4,21.33c0,10-5.58,12.56-5.58,12.56L48,127.48"/><path class="d" d="M44.36,98s-8.17-2.59-1.4-6.58c-.6-2,3.79-3.59,5.58-2.79.8-1.59,3.19-.8,4-.2-1.59.2-1.4.2-2,1.4.2.4.6,1.4,1.4,1.59s2-.8,2.39-2c1.79,1.4,1.2,2.59,1,3a2.17,2.17,0,0,1,.55,3,2.11,2.11,0,0,1-.35.38c-.6.6-2,1.59-2,2.19"/><path class="c" d="M34,38.56s-4.78-6.58,4.78-8c3-5.78,14.15-3.79,15.75-4,.2-1.4,2.59-2.79,3-2.19-1.2-.6-1.79,3.59-.4,5.58,1.4,1.79,3.39,3.79,4.19,5s6,8.77,6,8.77l-1.79,2.19s-3.59-5.58-5.18-7.58c-.4-.4-3.59-5-3.59-5l3,5.78s4.59,7.18,3.79,8c-.8,1-1.79,3-2,2.19-.2-.6-6-11.16-7-12.16,1,2.19,3,6.18,3,6.18s2.79,4.78,2.79,6.58c0,1.4-3.79,3.59-3.79,3.59l-7-13,3,7s2.79,6,2.39,6.18c-.8,1-3.19,3.79-4.19,2s-8-17.34-8-17.34S40.17,33.18,34,38.56Z"/><path class="c" d="M70.87,43.94S83.23,17.42,83.63,16.83C87.42,11.65,91.41,19,91.41,19"/><path class="c" d="M92.4,119.7a10.32,10.32,0,0,1-.6-12.36C96.19,112.52,94.79,118.7,92.4,119.7Z"/><path class="c" d="M83.43,115.29l6.78,5.18c-6.18-.8-11.16-2-12.56,4.59,1-.8,1.4-1.79,4.59-1.4,3.59.4,7.78,1,9.37-1.79,1.59.8,6,3.39,6,3.39a4.62,4.62,0,0,0,2.59-2c-1.79-.4-5.18-2.19-7.78-3.59-1.59-1-3.39-2.39-7.58-5.58,3.39-2.79-.4-8.57,0-11.36-4.39,5.58-1,9.57-1.4,10-2-2.39-3.59-3.79-4.39-4.78a70,70,0,0,1-6.18-6.58c1.59-7.18-.2-5.18-.6-11.36-1.79,2.79-3,3.79-.2,10.77A7.65,7.65,0,0,1,70.67,99a18.51,18.51,0,0,0,.2,2.79c0,.8,3.19,3,2.19,3.19a3.6,3.6,0,0,0-2.39,1.4,24.91,24.91,0,0,1-.2,3,5.56,5.56,0,0,1,3.79-3c1.59.4,7.58,7.18,7.58,7.18s-7.38-3-10.37,2.19c1.4-.4,1.79-.4,5.38,1.2,3.79,1.4,4.78-.6,5.78-1Z"/><path class="c" d="M84.83,109.73c2.79,0,7-.6,7,1.79,2.79-4.19-2.39-3.59-6.18-3.79V102h-1.4l-.2,5.78c-3.59,0-9-.8-6.18,3.59,0-2.19,4.19-1.59,7-1.59"/><path class="d" d="M53.73,99.37a.84.84,0,0,0,.8-.8h0a.86.86,0,0,0-.8-.8l-10-.2a.88.88,0,0,0-.8.8h0a.86.86,0,0,0,.8.8Z"/><path class="d" d="M53.73,102.55a.84.84,0,0,0,.8-.8h0a.86.86,0,0,0-.8-.8l-10-.2a.88.88,0,0,0-.8.8h0a.86.86,0,0,0,.8.8Z"/><path class="c" d="M53.93,101a.84.84,0,0,0,.8-.8h0a.86.86,0,0,0-.8-.8l-10.38-.19a.88.88,0,0,0-.8.8h0a.86.86,0,0,0,.8.8Z"/><path class="c" d="M43.76,102.36l1.59,2.79.6,1.59,1,14.75h0a1.56,1.56,0,0,0-.4,1,1.6,1.6,0,1,0,3.19,0,1.2,1.2,0,0,0-.2-.8h.2l1.4-14.75.6-1.59,1.79-3Z"/><path class="c" d="M51.73,107.14a.84.84,0,0,0,.8-.8h0a.86.86,0,0,0-.8-.8H45.55a.88.88,0,0,0-.8.8h0a.86.86,0,0,0,.8.8Z"/><path class="c" d="M49.94,120.9a.52.52,0,0,0,.6-.44.43.43,0,0,0,0-.16h0a.53.53,0,0,0-.44-.6H46.55a.54.54,0,0,0-.6.45v.15h0a.53.53,0,0,0,.45.6h3.54Z"/><path class="c" d="M49.94,122.29a.52.52,0,0,0,.6-.44.43.43,0,0,0,0-.16h0a.53.53,0,0,0-.44-.6H46.55a.54.54,0,0,0-.6.45v.15h0a.53.53,0,0,0,.45.6h3.54Z"/><path class="e" d="M44.55,97.57a.86.86,0,0,0-.62,1.05.85.85,0,0,0,.42.54c-1.2.4-1.4,1-.2,1.59a.81.81,0,0,0-.56,1,.8.8,0,0,0,.76.59l1.79,3.19s-2,.4,0,1.4"/><path class="e" d="M46.55,106.94c.2,1,.8,13,.8,13"/><path class="e" d="M52.93,98s1.79.8-.2,1.4c1.79.2,1,1.59-.2,1.59,1.4.6,1,1.2.2,1.4l-1.79,3s1.59,1.2-.4,1.59c-.2,1.79-1.2,12.36-1.2,12.36s1.2.8,0,1.59c1,.6,0,1.4,0,1.4"/><path class="e" d="M52.73,98.17s1,.8-.2,1.2"/><path class="e" d="M53.13,99.56s1,.4-.4,1.2c0,0,1,1.4-.4,1.4l-1.79,3.19s1,1.2-.4,1.59c0,2.59-1,12.56-1,12.56s1,1.2,0,1.59c.8,1.2.2,1,0,1.2"/><path class="e" d="M47.35,119.5s-1.2.4-.2,1.4c0,0-1,.8,0,1.4"/><path class="f" d="M42.76,91.59a1.56,1.56,0,0,1,1,0c-.8.8-2.39,3.59.2,5.58"/><path class="f" d="M43.55,91.19A4.16,4.16,0,0,1,46.94,90c-1,1.4-3,3.39-1,6.78"/><path class="f" d="M43.55,91.79s0-.8,2.59-.8"/><path class="f" d="M48.55,88.6a3.13,3.13,0,0,1,2,1.2"/><path class="f" d="M51.13,90.79s-6.58.8-3,7"/><path class="f" d="M52.73,91.19s-4.39,1.4-2.79,5.18"/><path class="f" d="M55.32,92.39a15.87,15.87,0,0,1-2.59,2.39c-1,.4-1,2.59-.8,3"/><path class="c" d="M47,86.21l-2.4-3.39s-6.58,0-8.17-3.59-3.79-5.78-5-6.38c3.39-2,9.37,3.19,9.37,3.19s-5-5.38-4.59-9.57c.4-4.59.6-6.78.6-8,1.59,2.19,4,3.59,5,6,1.4,3.59.4,9.37,2,12.16.2-.8-1.4-2.79,2-11,.8,2.59,2.79,8,3,10.57A16.56,16.56,0,0,1,47.56,83l2.19,3.59Z"/></svg>