<?xml version="1.0" encoding="utf-8"?>
<!-- Generator: Adobe Illustrator 21.1.0, SVG Export Plug-In . SVG Version: 6.00 Build 0)  -->
<svg version="1.1" id="Layer_1" xmlns="http://www.w3.org/2000/svg" xmlns:xlink="http://www.w3.org/1999/xlink" x="0px" y="0px"
	 viewBox="0 0 250 250" style="enable-background:new 0 0 250 250;" xml:space="preserve">
<style type="text/css">
	.st0{fill:#6C9D31;}
	.st1{fill:#FFFFFF;}
	.st2{font-family:'ArialRoundedMTBold';}
	.st3{font-size:51.9532px;}
	.st4{letter-spacing:-1.1;}
	.st5{fill:#CADB2A;}
	.st6{font-size:50.8479px;}
	.st7{font-size:46.4263px;}
	.st8{font-family:'ArialMT';}
	.st9{font-size:19.897px;}
	.st10{fill:none;stroke:#FFFFFF;stroke-width:3;}
	.st11{fill:#CADB2A;stroke:#6C9D31;}
	.st12{font-size:8.8431px;}
</style>
<title>Grocery</title>
<path class="st0" d="M32.4,55.9v74.1c0,0,8.8,33.2,35.4,33.2h113.9c0,0,35.4-3.3,35.4-37.6V91.3c0,0-5.5-35.4-34.3-35.4H32.4z"/>
<text transform="matrix(0.88 0 0 1 41.6143 108.938)" class="st1 st2 st3">f</text>
<text transform="matrix(0.88 0 0 1 56.8408 108.938)" class="st1 st2 st3 st4">r</text>
<text transform="matrix(0.88 0 0 1 75.7256 108.938)" class="st1 st2 st3">esh</text>
<text transform="matrix(1 0 0 1 63.3379 148.7227)" class="st5 st2 st6">&amp;</text>
<text transform="matrix(1 0 0 1 97.6074 139.8789)" class="st1 st2 st7">easy</text>
<text transform="matrix(1 0 0 1 29.0688 188.5195)" class="st0 st8 st9">Neighborhood Market</text>
<circle class="st10" cx="175.2" cy="90.1" r="18.2"/>
<circle class="st5" cx="175.5" cy="89.6" r="14"/>
<path class="st11" d="M152.1,67.5h14.6c0,0,6.8,2.6,6.6,6.6l0.2,2.2H161C161,76.3,154.5,77.4,152.1,67.5z"/>
<text transform="matrix(1 0 0 1 205.5576 62.5693)" class="st0 st8 st12">TM</text>
<polygon class="st0" points="172.4,89.4 181.3,78.2 177.4,88.5 182.4,96.2 "/>
</svg>
