<svg xmlns="http://www.w3.org/2000/svg" viewBox="0 0 186.8 114.49"><defs><style>.a,.g{fill:#f6d056;}.a,.b,.c,.e,.j,.k{stroke:#414042;stroke-miterlimit:10;}.a,.c{stroke-width:3px;}.b{fill:none;}.c,.i,.k{fill:#45a5da;}.d,.e,.j{fill:#fff;}.f{fill:#606060;}.h{fill:#414042;}.j,.k{stroke-width:0.5px;}</style></defs><title>large store -grocery- supercenters- mass- club- net</title><polygon class="a" points="93.4 2.19 49.4 48.99 137.4 48.99 93.4 2.19"/><rect class="a" x="22.9" y="42.99" width="141" height="69.9"/><line class="b" x1="22.9" y1="47.69" x2="163.9" y2="47.69"/><polygon class="c" points="122 43.59 93.4 13.19 64.7 43.69 64.7 112.99 122 112.99 122 43.59"/><rect class="d" x="74.1" y="92.39" width="11.3" height="19.1"/><rect class="d" x="87.7" y="92.39" width="11.3" height="19.1"/><rect class="d" x="101.3" y="92.39" width="11.3" height="19.1"/><rect class="e" x="31.1" y="83.49" width="8.3" height="16.2"/><rect class="e" x="41" y="83.49" width="8.3" height="16.2"/><rect class="e" x="51" y="83.49" width="8.3" height="16.2"/><rect class="e" x="127.5" y="83.49" width="8.3" height="16.2"/><rect class="e" x="137.4" y="83.49" width="8.3" height="16.2"/><rect class="e" x="147.4" y="83.49" width="8.3" height="16.2"/><path class="f" d="M112.4,83.69H74.1v-5.4h38.3Z"/><path class="f" d="M90,63.39h6.5v5.5H90Z"/><path class="f" d="M88.6,68.89H82v-5.4h6.6Z"/><path class="f" d="M88.6,48.49H82.1v-5.4h6.5Z"/><path class="f" d="M96.6,48.49H90.1v-5.4h6.5Z"/><path class="f" d="M97.9,48.49v-5.4h6.6v5.4Z"/><path class="f" d="M80.7,68.89H74.2v-5.4h6.5Z"/><path class="f" d="M80.8,56.59V62H74.2v-5.4Z"/><path class="f" d="M82,55.19v-5.4h6.6v5.4Z"/><path class="f" d="M90,55.29v-5.4h6.6v5.4Z"/><path class="f" d="M97.9,55.29v-5.4h6.6v5.4Z"/><path class="f" d="M96.6,62.09H90v-5.4h6.6Z"/><path class="f" d="M88.6,62.09H82v-5.4h6.6Z"/><path class="f" d="M104.5,68.89H98v-5.4h6.5Z"/><path class="f" d="M105.9,68.89v-5.4h6.6v5.4Z"/><path class="f" d="M80.7,75.69H74.1v-5.4h6.6Z"/><path class="f" d="M88.6,75.69H82.1v-5.4h6.5Z"/><path class="f" d="M90,75.69v-5.4h6.6v5.4Z"/><path class="f" d="M104.5,75.69H98v-5.4h6.5Z"/><path class="f" d="M112.4,75.69h-6.6v-5.4h6.6Z"/><path class="f" d="M112.5,56.69v5.4h-6.6v-5.4Z"/><path class="f" d="M104.5,56.69v5.4H97.9v-5.4Z"/><path class="f" d="M74.2,55.29v-5.4h6.5v5.4Z"/><path class="f" d="M105.9,49.79h6.5l.3,5.4H106C105.9,53.49,105.9,51.69,105.9,49.79Z"/><path class="f" d="M90,41.69v-5.3h6.6v5.3Z"/><path class="f" d="M74.4,48.49a27.81,27.81,0,0,1,3.2-5.1c.6-.6,2-.4,3.2-.6v5.7Z"/><path class="f" d="M105.9,43c3.3-.3,5,1.3,5.9,5.5h-5.9Z"/><path class="f" d="M97.9,41.69v-5.3a50.49,50.49,0,0,1,6.2,2.8c.5.3.4,1.6.6,2.5Z"/><path class="f" d="M88.7,41.69H82.2c-.4-2.4-.4-2.5,1.7-3.4,1.5-.7,3.1-1.2,4.8-1.8Z"/><path class="g" d="M74.1,86.09H85.2v4.3H74.1Z"/><path class="g" d="M87.7,90.39v-4.3H98.8v4.3Z"/><path class="g" d="M112.5,86.09v4.3H101.4v-4.3Z"/><path class="h" d="M122,59.89h24.7a6.42,6.42,0,0,1,6.4,3.8c2.1,4.4,8,17.2,8,17.2H122Z"/><path class="i" d="M125.1,61.59h20.8a5.29,5.29,0,0,1,5.3,3.2c1.8,3.7,6.7,14.5,6.7,14.5H125V61.59Z"/><rect class="h" x="127.53" y="60.7" width="2" height="20.9" transform="translate(-18.36 73.8) rotate(-30)"/><rect class="h" x="132.71" y="59.4" width="2" height="22.2" transform="translate(-17.34 76.3) rotate(-30)"/><rect class="h" x="138.29" y="59.3" width="2" height="22.3" transform="translate(-16.56 79.09) rotate(-30)"/><rect class="h" x="144.08" y="59.48" width="2" height="22.1" transform="translate(-15.83 81.99) rotate(-30)"/><rect class="h" x="149.41" y="59.19" width="2" height="22.2" transform="translate(-15 84.62) rotate(-30)"/><path class="h" d="M64.7,59.89H40a6.42,6.42,0,0,0-6.4,3.8c-2.1,4.4-8,17.2-8,17.2H64.7Z"/><path class="i" d="M61.6,61.59H40.8a5.29,5.29,0,0,0-5.3,3.2c-1.8,3.7-6.7,14.5-6.7,14.5H61.7V61.59Z"/><rect class="h" x="47.71" y="70.1" width="20.9" height="2" transform="translate(-32.5 85.91) rotate(-60)"/><rect class="h" x="41.89" y="69.47" width="22.2" height="2" transform="translate(-34.53 81.13) rotate(-60)"/><rect class="h" x="36.24" y="69.5" width="22.3" height="2" transform="translate(-37.36 76.29) rotate(-60)"/><rect class="h" x="30.61" y="69.56" width="22.1" height="2" transform="translate(-40.28 71.36) rotate(-60)"/><rect class="h" x="25.21" y="69.27" width="22.2" height="2" transform="translate(-42.7 66.58) rotate(-60)"/><rect class="a" x="163.9" y="59.89" width="21.4" height="53.1"/><rect class="a" x="1.5" y="59.89" width="21.4" height="53.1"/><rect class="j" x="4.8" y="83.49" width="4.3" height="6.8"/><rect class="j" x="10" y="83.49" width="4.3" height="6.8"/><rect class="j" x="15.2" y="83.49" width="4.3" height="6.8"/><rect class="j" x="4.8" y="80.99" width="4.3" height="1.1"/><rect class="j" x="10" y="80.99" width="4.3" height="1.1"/><rect class="j" x="15.2" y="80.99" width="4.3" height="1.1"/><circle class="k" cx="12.2" cy="71.59" r="2.9"/><path class="f" d="M20.2,93.09H4.2v-1.3h16Z"/><rect class="j" x="167.2" y="83.49" width="4.3" height="6.8"/><rect class="j" x="172.4" y="83.49" width="4.3" height="6.8"/><rect class="j" x="177.7" y="83.49" width="4.3" height="6.8"/><rect class="j" x="167.2" y="80.99" width="4.3" height="1.1"/><rect class="j" x="172.4" y="80.99" width="4.3" height="1.1"/><rect class="j" x="177.7" y="80.99" width="4.3" height="1.1"/><circle class="k" cx="174.6" cy="71.59" r="2.9"/><path class="f" d="M182.6,93.09h-16v-1.3h16Z"/></svg>