<svg xmlns="http://www.w3.org/2000/svg" viewBox="0 0 221.6 101"><defs><style>.a{fill:#f6d056;}.b{fill:#414042;}.c{fill:#45a5da;}.d{fill:#fff;}</style></defs><title>large store -grocery- supercenters- mass- net</title><rect class="a" x="9.3" y="8.2" width="71.6" height="91.6"/><path class="b" d="M82.2,101H7.9V6.9H82.2ZM10.6,98.5H79.4V9.5H10.6Z"/><rect class="a" x="140.8" y="8.2" width="71.6" height="91.6"/><path class="b" d="M213.7,101H139.4V6.9h74.3Zm-71.6-2.5h68.8V9.5H142.1Z"/><rect class="c" x="61.4" y="35.9" width="99.8" height="63.8"/><path class="b" d="M162.6,101H60.1V34.5H162.6ZM62.8,98.3h97v-61h-97Z"/><rect class="a" x="1.4" y="1.4" width="87.3" height="11.2"/><path class="b" d="M90,13.9H0V0H90ZM2.8,11.2H87.3V2.7H2.8Z"/><rect class="a" x="132.9" y="1.4" width="87.3" height="11.2"/><path class="b" d="M221.6,13.9h-90V0h90Zm-87.3-2.7h84.5V2.7H134.3Z"/><rect class="a" x="52.8" y="30.3" width="116" height="11.2"/><path class="b" d="M170.2,42.8H51.4V28.9H170.2ZM54.1,40.1H167.4V31.6H54.1Z"/><rect class="d" x="98.7" y="72.3" width="12.6" height="27.3"/><path class="b" d="M112.7,101H97.3V70.9h15.4ZM100,98.3h9.9V73.7H100Z"/><rect class="d" x="111.3" y="72.3" width="12.6" height="27.3"/><path class="b" d="M125.3,101H109.9V70.9h15.4Zm-12.6-2.7h9.9V73.7h-9.9Z"/><rect class="b" x="93.8" y="69.3" width="35" height="4.2"/><rect class="b" x="86.5" y="88.7" width="5.5" height="5.5"/><rect class="b" x="18.2" y="20.4" width="5.5" height="5.5"/><rect class="b" x="29.2" y="20.4" width="5.5" height="5.5"/><rect class="b" x="67.4" y="53.2" width="5.5" height="5.5"/><rect class="b" x="78.3" y="53.2" width="5.5" height="5.5"/><rect class="b" x="67.4" y="64.1" width="5.5" height="5.5"/><rect class="b" x="78.3" y="64.1" width="5.5" height="5.5"/><rect class="b" x="138.5" y="53.2" width="5.5" height="5.5"/><rect class="b" x="149.4" y="53.2" width="5.5" height="5.5"/><rect class="b" x="138.5" y="64.1" width="5.5" height="5.5"/><rect class="b" x="149.4" y="64.1" width="5.5" height="5.5"/><rect class="b" x="18.2" y="36.8" width="5.5" height="5.5"/><rect class="b" x="29.2" y="36.8" width="5.5" height="5.5"/><rect class="b" x="18.2" y="47.7" width="5.5" height="5.5"/><rect class="b" x="29.2" y="47.7" width="5.5" height="5.5"/><rect class="b" x="18.2" y="64.1" width="5.5" height="5.5"/><rect class="b" x="29.2" y="64.1" width="5.5" height="5.5"/><rect class="b" x="18.2" y="75" width="5.5" height="5.5"/><rect class="b" x="29.2" y="75" width="5.5" height="5.5"/><rect class="b" x="56.5" y="20.4" width="5.5" height="5.5"/><rect class="b" x="67.4" y="20.4" width="5.5" height="5.5"/><rect class="b" x="45.6" y="88.7" width="5.5" height="5.5"/><rect class="b" x="130.3" y="88.7" width="5.5" height="5.5"/><rect class="b" x="198.9" y="20.4" width="5.5" height="5.5"/><rect class="b" x="188" y="20.4" width="5.5" height="5.5"/><rect class="b" x="198.9" y="36.8" width="5.5" height="5.5"/><rect class="b" x="188" y="36.8" width="5.5" height="5.5"/><rect class="b" x="198.9" y="47.7" width="5.5" height="5.5"/><rect class="b" x="188" y="47.7" width="5.5" height="5.5"/><rect class="b" x="198.9" y="64.1" width="5.5" height="5.5"/><rect class="b" x="188" y="64.1" width="5.5" height="5.5"/><rect class="b" x="198.9" y="75" width="5.5" height="5.5"/><rect class="b" x="188" y="75" width="5.5" height="5.5"/><rect class="b" x="160.7" y="20.4" width="5.5" height="5.5"/><rect class="b" x="149.7" y="20.4" width="5.5" height="5.5"/><rect class="b" x="171.6" y="88.7" width="5.5" height="5.5"/><rect class="b" x="18.2" y="88.7" width="21.7" height="5.5"/><rect class="b" x="182.7" y="88.7" width="21.7" height="5.5"/><rect class="b" x="138.5" y="88.7" width="16.4" height="5.5"/><rect class="b" x="67.4" y="88.7" width="16.4" height="5.5"/></svg>