<svg xmlns="http://www.w3.org/2000/svg" viewBox="0 0 197.4 124.99"><defs><style>.a{fill:#414042;}.b{fill:#fff;}.c{fill:#45a5da;}.d{fill:#f6d056;}</style></defs><title>mass and supercenters net</title><rect class="a" y="111.99" width="197.4" height="13"/><rect class="b" x="3.9" y="48.79" width="36.4" height="45.6"/><path class="b" d="M108.1,70.59v44.5H89.6c0-.6-.1-1.2-.1-1.8V73c0-1.8.5-2.4,2.3-2.4Z"/><path class="a" d="M108.7,115.59H89.1l-.1-1c0-.4-.1-.9-.1-1.3V73a2.42,2.42,0,0,1,2.9-2.9c3.8.1,7.6.1,11.6,0h5.3Zm-18.5-1.1h17.4V71.19H91.9c-.8,0-1.2.1-1.4.3a2.37,2.37,0,0,0-.3,1.5c.1,9.7,0,19.6,0,29.2v11.1a2.44,2.44,0,0,0,0,1.2Z"/><path class="c" d="M108.1,41.49H89.6c0-.6-.1-1.1-.1-1.7V19.89a2.17,2.17,0,0,1,1.5-2.3c5.8-2.5,5.8-2.5,11.6-.3,1.8.7,4.3,1,5.2,2.4s.3,3.8.4,5.8v14.1A12.1,12.1,0,0,1,108.1,41.49Z"/><path class="c" d="M108.1,67.89H89.7V44.39h18.4Z"/><path class="b" d="M158.5,72.69c4.9,0,9.5,0,14.2.1a1.8,1.8,0,0,1,1.2,1.2c.1,5.5.1,11,0,16.4,0,.4-.6,1.2-1,1.2-4.8.1-9.5.1-14.4.1Z"/><path class="a" d="M164.3,92.29H158V72.19h3.7c3.8,0,7.4,0,11.1.1a2.13,2.13,0,0,1,1.7,1.8c.1,5.3.1,10.6,0,16.5,0,.7-.8,1.8-1.5,1.8C170.1,92.19,167.1,92.29,164.3,92.29Zm-5.2-1.2h2.3c3.9,0,7.7,0,11.5-.1a1.61,1.61,0,0,0,.4-.7c.1-5.8.1-11.2,0-16.4,0-.2-.5-.6-.7-.7-3.6-.1-7.2-.1-11-.1H159v18Z"/><path class="b" d="M57.4,82.39v7.8c0,1.1-.3,1.5-1.4,1.5H43.4c-1.2,0-1.6-.4-1.5-1.6V74.19c0-1.1.4-1.6,1.5-1.6H56c1.1,0,1.4.5,1.4,1.5-.1,2.8-.1,5.6,0,8.3Z"/><path class="a" d="M43.3,92.29a2.1,2.1,0,0,1-1.5-.5,2.15,2.15,0,0,1-.5-1.6V74.29a1.81,1.81,0,0,1,2.1-2.1H56a2.25,2.25,0,0,1,1.5.5,2,2,0,0,1,.5,1.6v16.1a2,2,0,0,1-.5,1.6,2.26,2.26,0,0,1-1.5.5c-4.4-.3-8.6-.3-12.7-.2Zm0-19.1a1.55,1.55,0,0,0-.8.2,1.44,1.44,0,0,0-.2.9v15.9a.8.8,0,0,0,1,1H55.9c.2,0,.6,0,.7-.2a1.29,1.29,0,0,0,.2-.8v-7.3h0v-8.8a1.29,1.29,0,0,0-.2-.8,1.45,1.45,0,0,0-.7-.2c-4.6.2-8.7.2-12.6.1Z"/><path class="b" d="M193.2,91.49H177.6V74.19c0-1.1.3-1.6,1.5-1.6,4.2,0,8.4,0,12.6.1.5,0,1.5.6,1.5.9Z"/><path class="a" d="M193.7,92.09H177V74.29a2.26,2.26,0,0,1,.5-1.7,2.35,2.35,0,0,1,1.6-.5h12.6c.7,0,2,.7,2,1.5.1,4.9.1,9.7.1,14.7ZM178.1,91h14.5v-2.6c0-5,0-9.8-.1-14.6a2,2,0,0,0-.9-.5H179a1.29,1.29,0,0,0-.8.2,1.44,1.44,0,0,0-.2.9v5.4Zm14.5-17.4Z"/><path class="b" d="M193.2,51.59v17.2c0,.4-.5,1-.8,1-4.9.1-9.8,0-14.8,0V52.59a1.28,1.28,0,0,1,1-1Z"/><path class="a" d="M183,70.39h-6V52.69a1.92,1.92,0,0,1,1.5-1.6c3.8-.1,7.6-.1,11.6,0h3.5v17.8c0,.6-.7,1.6-1.3,1.6C189.3,70.39,186.2,70.39,183,70.39Zm-4.9-1.1h14.1a1.33,1.33,0,0,0,.3-.5V52.09h-14c-.1,0-.4.4-.4.5v16.7Zm14.2,0Z"/><path class="b" d="M57.2,69.79c-.8,0-1.6.1-2.3.1H43.4c-1.1,0-1.7-.2-1.7-1.5V52.89c0-1.2.5-1.5,1.6-1.5,4,0,8,.1,12,0,1.4,0,2,.4,2,2-.1,4.9,0,9.8,0,14.7A4.88,4.88,0,0,1,57.2,69.79Z"/><path class="a" d="M43.4,70.49a2.62,2.62,0,0,1-1.7-.5,2.07,2.07,0,0,1-.5-1.5V53a2.54,2.54,0,0,1,.5-1.6,2.26,2.26,0,0,1,1.7-.5c3.6,0,7.8.1,12,0a3,3,0,0,1,2,.6,2.55,2.55,0,0,1,.6,1.9c-.1,3.3-.1,6.7,0,10v4.7a4.48,4.48,0,0,1-.1,1.1,1.27,1.27,0,0,1-.1.6v.5l-1.3.1c-.5,0-1.1.1-1.6.1H43.4ZM43.3,52a.8.8,0,0,0-1,1v15.5c0,.3,0,.6.2.7a1.44,1.44,0,0,0,.9.2H54.8a7.57,7.57,0,0,0,1.5-.1h.3v-.1c0-.4.1-.7.1-1V53.49c0-.6-.1-1-.3-1.1a1.74,1.74,0,0,0-1.2-.3c-4,0-8.2,0-11.9-.1Z"/><path class="b" d="M158.5,69.69V51.49h12.2c3.2.1,3.1.1,3.1,3.1V68c0,1.4-.4,1.9-1.8,1.9-4-.1-8,0-12,0A10.4,10.4,0,0,1,158.5,69.69Z"/><path class="a" d="M172.3,70.49h-.1c-2.7-.1-5.4,0-8,0h-4.1a4.1,4.1,0,0,1-1.1-.1.9.9,0,0,1-.5-.1l-.5-.1V50.89h12.9c3.5.1,3.7.3,3.7,3.7V68a2.31,2.31,0,0,1-.6,1.9A2.2,2.2,0,0,1,172.3,70.49Zm-5.9-1.2h5.8a1.6,1.6,0,0,0,1-.2c.2-.2.2-.5.2-1.1-.1-3.4,0-6.9,0-10.2v-3.2c0-1.3,0-2.1-.2-2.3a7.4,7.4,0,0,0-2.4-.3H159.1v17.2h.1c.3,0,.6.1,1,.1h6.2Z"/><path class="b" d="M154.8,82.29v7.6c0,1.2-.3,1.8-1.6,1.8H141.3c-1,0-1.5-.4-1.5-1.4,0-5.4,0-10.8.1-16.3,0-.4.9-1.2,1.3-1.3,4-.1,8,0,12-.1,1.2,0,1.5.5,1.5,1.6C154.8,76.89,154.8,79.59,154.8,82.29Z"/><path class="a" d="M141.4,92.29a2.26,2.26,0,0,1-1.5-.5,2.07,2.07,0,0,1-.5-1.5v-5.4c0-3.6,0-7.2.1-10.8a2.35,2.35,0,0,1,1.9-1.8c2.4-.1,4.9-.1,7.2-.1h4.8a2.07,2.07,0,0,1,1.6.5,2.16,2.16,0,0,1,.5,1.7V90a2.38,2.38,0,0,1-.5,1.8,1.94,1.94,0,0,1-1.6.5c-4.5-.1-8.7-.1-12,0Zm12-19.1h-4.9c-2.4,0-4.8,0-7.2.1-.2,0-.7.5-.8.7-.1,3.6-.1,7.3-.1,10.8v5.4a1,1,0,0,0,.2.7c.1.1.3.2.8.2,3.2,0,7.5-.1,11.9,0,.5,0,.7-.1.8-.2a1.85,1.85,0,0,0,.2-1V74.29c0-.5,0-.7-.2-.9A1.17,1.17,0,0,0,153.4,73.19Z"/><path class="b" d="M154.8,60.69v7.4c0,1.2-.3,1.8-1.6,1.7-3.9-.1-7.9,0-11.8,0-1.2,0-1.6-.4-1.6-1.6V53.29c0-1.4.4-2,1.9-2h11.6c1.2,0,1.5.6,1.5,1.6Z"/><path class="a" d="M141.4,70.49a2.54,2.54,0,0,1-1.6-.5,2.15,2.15,0,0,1-.5-1.6V53.49a2.31,2.31,0,0,1,.6-1.9,2.44,2.44,0,0,1,1.8-.6h11.7a2.07,2.07,0,0,1,1.5.5,2.26,2.26,0,0,1,.5,1.7v15a2.38,2.38,0,0,1-.5,1.8,2.07,2.07,0,0,1-1.6.5c-4.3-.1-8.6-.1-11.9,0Zm.3-18.4a1.33,1.33,0,0,0-1,.3,1.61,1.61,0,0,0-.3,1.1v14.9a.8.8,0,0,0,1,1c3.3,0,7.5-.1,11.8,0,.3,0,.7,0,.8-.2a1.85,1.85,0,0,0,.2-1V53.09c0-.5,0-.8-.2-.9a1.45,1.45,0,0,0-.7-.2c-4.2.1-8,.1-11.6.1Z"/><path class="c" d="M85.9,70.79v23.6c-3.9-.2-7.6-.5-11.5-.7a9.32,9.32,0,0,1-.2-1.4V73.19c0-1.4.5-1.9,1.8-1.9C79.3,71.19,82.5,71,85.9,70.79Z"/><path class="c" d="M112.1,44.79c3.5.7,7,1.3,10.4,2a1.77,1.77,0,0,1,1.1,1.4c.1,6.4,0,12.7,0,19.1,0,1.1-.4,1.5-1.5,1.4-3-.2-6-.3-9-.6-.5,0-1.4-.8-1.4-1.2-.1-7.1,0-14.3,0-21.4A3.22,3.22,0,0,0,112.1,44.79Z"/><path class="c" d="M111.9,94.39V71c3.7.2,7.3.4,10.9.7.4,0,.9.8.9,1.3.1,6.4,0,12.7,0,19.1,0,.5-.6,1.3-.9,1.3C119.2,93.79,115.6,94.09,111.9,94.39Z"/><path class="c" d="M85.9,68l-11.6.6v-2.3c0-5.9.1-11.7,0-17.6,0-1.4.5-1.9,1.7-2.1,3.3-.5,6.5-1.1,9.9-1.8Z"/><path class="c" d="M85.9,42c-3.8.7-7.6,1.3-11.4,2a6.88,6.88,0,0,1-.2-1.3V26.09a2.24,2.24,0,0,1,.7-1.7c3.5-1.6,7.1-3,10.9-4.6Z"/><path class="c" d="M111.8,20.79c3.9,1.5,7.5,2.8,11,4.2a1.76,1.76,0,0,1,.9,1.3v17c0,.2-.1.3-.3.7-2.5-.4-5.1-.9-7.6-1.3-4-.7-4-.7-4-4.7Z"/><path class="c" d="M70.6,93.19c-3-.4-5.8-.7-8.6-1.1-.4-.1-1-.7-1-1-.1-6.1,0-12.2,0-18.5l9.7-.9C70.6,78.89,70.6,85.89,70.6,93.19Z"/><path class="c" d="M70.5,68.79c-3.2.3-6.3.5-9.7.8V52.29a1.89,1.89,0,0,1,1.5-2.1c2.7-.8,5.3-1.6,8.2-2.5Z"/><path class="c" d="M127.3,93a12.77,12.77,0,0,1-.2-1.7V73.89c0-1.4.3-2.1,1.9-1.9,2,.2,4.1.2,6.1.5.5.1,1.2.8,1.2,1.2.1,5.7.1,11.3,0,17a1.89,1.89,0,0,1-1,1.3C132.7,92.39,130.1,92.59,127.3,93Z"/><path class="c" d="M127.2,47.79c3,.9,5.7,1.7,8.2,2.6a1.59,1.59,0,0,1,.9,1.2c.1,5.9,0,11.8,0,18-2.9-.2-5.6-.3-8.3-.6a1.32,1.32,0,0,1-.9-1C127.2,61.49,127.2,54.89,127.2,47.79Z"/><path class="c" d="M70.7,26v10.3c0,2.4.1,4.7,0,7.1,0,.6-.4,1.5-.8,1.6-2.8.9-5.7,1.7-8.8,2.6a12.37,12.37,0,0,1-.2-1.8V31.59a2.07,2.07,0,0,1,1.5-2.3C65.1,28.39,67.7,27.29,70.7,26Z"/><path class="c" d="M127.6,26.79q4.05,1.5,7.8,3a2.07,2.07,0,0,1,1,1.4c.1,5.2,0,10.4,0,15.6,0,.2-.1.3-.3.7l-8.2-2.4a1.44,1.44,0,0,1-.7-1.1V27.39C127.2,27.29,127.4,27.19,127.6,26.79Z"/><path class="c" d="M123.6,96.19c0,3.4,0,6.7-.1,9.9,0,.4-.9,1.1-1.4,1.1-3,.1-6.1.1-9.2,0-.4,0-1.2-.6-1.2-1-.1-3-.1-6-.1-9.1C115.7,96.89,119.5,96.59,123.6,96.19Z"/><path class="c" d="M74.3,96.49c4,.3,7.7.5,11.7.8v9c0,.4-.7,1-1,1-3.2.1-6.4.1-9.5,0-.4,0-1-.7-1.1-1.1C74.2,103,74.3,99.89,74.3,96.49Z"/><path class="c" d="M60.9,94.79c3.2.4,6,.7,8.8,1.1a1.6,1.6,0,0,1,.9,1.3c.1,2.9,0,5.7.1,8.6,0,1.1-.5,1.5-1.5,1.5-2.3,0-4.6.1-6.9-.1-.5,0-1.4-.7-1.4-1Z"/><path class="c" d="M136.4,94.69c0,4.1,0,7.8-.1,11.5,0,.4-.8,1-1.2,1-2.2.1-4.4.1-6.7,0-.5,0-1.2-.9-1.2-1.4-.1-2.9-.1-5.8,0-8.8,0-.5.7-1.3,1.1-1.3C130.9,95.29,133.5,95.09,136.4,94.69Z"/><path class="d" d="M195.5,45.59H141.4c-.4,0-.9-.1-1.4-.1v-14c1.1.4,2,.7,2.9,1.1a5.76,5.76,0,0,0,5.8-.7,6.6,6.6,0,0,0,3.1-6.4c-.4-3-2.4-4.8-5.1-5.9l-47.1-18a6.77,6.77,0,0,0-5.4.1c-14.3,6-28.7,11.9-43.1,17.9a11.52,11.52,0,0,0-3.5,2.2,6.12,6.12,0,0,0-.9,8,6.6,6.6,0,0,0,8,2.8c.8-.3,1.7-.6,2.6-.9v14.1H1.1v69.6H63.9V124h71.2v-8.7h61.2V45.59Zm-68.3-18.1c0-.1.1-.2.3-.6q4,1.5,7.8,3a2.07,2.07,0,0,1,1,1.4c.1,5.2,0,10.4,0,15.6,0,.2-.1.3-.3.7l-8.2-2.4a1.44,1.44,0,0,1-.7-1.1C127.2,38.49,127.2,33,127.2,27.49Zm0,20.3c3,.9,5.7,1.7,8.2,2.6a1.59,1.59,0,0,1,.9,1.2c.1,5.9,0,11.8,0,18-2.9-.2-5.6-.3-8.3-.6a1.32,1.32,0,0,1-.9-1C127.2,61.49,127.2,54.89,127.2,47.79ZM74.3,26a2.24,2.24,0,0,1,.7-1.7c3.5-1.6,7.1-3,10.9-4.6v22.2c-3.8.7-7.6,1.3-11.4,2a6.88,6.88,0,0,1-.2-1.3C74.3,37.09,74.2,31.59,74.3,26ZM23,51.49c4.9,0,9.5,0,14.2.1a1.51,1.51,0,0,1,1.1,1.2q.15,8,0,15.9c0,.5-.9,1.3-1.3,1.3q-6.3.15-12.6,0a1.8,1.8,0,0,1-1.2-1.2C23,63.09,23,57.39,23,51.49Zm0,30.6v-7.8c0-1.1.3-1.6,1.5-1.6H36.9c1.1,0,1.5.4,1.5,1.5,0,5.4,0,10.8-.1,16.2a1.73,1.73,0,0,1-1.3,1.3c-4.1.1-8.3,0-12.4.1-1.1,0-1.6-.4-1.5-1.6C23,87.49,23,84.79,23,82.09ZM4.4,52.89c0-.5.7-1.4,1-1.4,4.6-.1,9.1-.1,13.9-.1v18.4H6c-1.1,0-1.6-.3-1.6-1.5C4.4,63.19,4.3,58.09,4.4,52.89Zm-.1,37.3c0-5.2.1-10.3,0-15.5,0-1.6.6-2.1,2.1-2.1,3.8.1,7.5,0,11.3.1.6,0,1.6.6,1.6,1,.1,5.9.1,11.8.1,18H5.9C4.8,91.69,4.3,91.39,4.3,90.19Zm51.6,1.5H43.3c-1.2,0-1.6-.4-1.5-1.6V74.19c0-1.1.4-1.6,1.5-1.6H55.9c1.1,0,1.4.5,1.4,1.5v8.2h0v7.8C57.4,91.29,57,91.69,55.9,91.69Zm1.5-23.5c0,.5-.1,1-.1,1.6-.8,0-1.6.1-2.3.1H43.5c-1.1,0-1.7-.2-1.7-1.5V52.89c0-1.2.5-1.5,1.6-1.5,4,0,8,.1,12,0,1.4,0,2,.4,2,2C57.3,58.39,57.4,63.29,57.4,68.19Zm3.5-1.4V52.29a1.89,1.89,0,0,1,1.5-2.1c2.7-.8,5.3-1.6,8.2-2.5v21.1c-3.2.3-6.3.5-9.7.8Zm9.7,4.8v21.5c-3-.4-5.8-.7-8.6-1.1-.4-.1-1-.7-1-1-.1-6.1,0-12.2,0-18.5Zm-1.4,35.7c-2.3,0-4.6.1-6.9-.1-.5,0-1.4-.7-1.4-1-.1-3.7-.1-7.4-.1-11.4,3.2.4,6,.7,8.8,1.1a1.6,1.6,0,0,1,.9,1.3c.1,2.9,0,5.7.1,8.6C70.7,107,70.3,107.29,69.2,107.29Zm1.5-63.8c0,.6-.4,1.5-.8,1.6-2.8.9-5.7,1.7-8.8,2.6a12.37,12.37,0,0,1-.2-1.8V31.69a2.07,2.07,0,0,1,1.5-2.3c2.7-1,5.4-2.2,8.4-3.4v10.3C70.7,38.69,70.8,41.09,70.7,43.49Zm5.3,3c3.3-.5,6.5-1.1,9.9-1.8v23.2l-11.6.6v-2.3c0-5.9.1-11.7,0-17.6C74.2,47.29,74.7,46.69,76,46.49Zm.1,24.7c3.2-.1,6.4-.3,9.9-.4v23.6c-3.9-.2-7.6-.5-11.5-.7a9.32,9.32,0,0,1-.2-1.4V73.19C74.2,71.69,74.7,71.29,76.1,71.19Zm9.8,35c0,.4-.7,1-1,1-3.2.1-6.4.1-9.5,0-.4,0-1-.7-1.1-1.1-.1-3.1,0-6.2,0-9.6,4,.3,7.7.5,11.7.8C86,100.29,86,103.29,85.9,106.19Zm22.2,8.8H89.6c0-.6-.1-1.2-.1-1.8V72.89c0-1.8.5-2.4,2.3-2.4,5.3.1,10.7,0,16.3,0ZM89.7,67.89V44.39h18.4v23.5Zm18.5-28.3c0,.6-.1,1.2-.1,1.8H89.6c0-.6-.1-1.1-.1-1.7V19.79a2.17,2.17,0,0,1,1.5-2.3c5.8-2.5,5.8-2.5,11.6-.3,1.8.7,4.3,1,5.2,2.4s.3,3.8.4,5.8Zm3.6-18.8c3.9,1.5,7.5,2.8,11,4.2a1.76,1.76,0,0,1,.9,1.3v17c0,.2-.1.3-.3.7-2.5-.4-5.1-.9-7.6-1.3-4-.7-4-.7-4-4.7Zm11.8,85.3c0,.4-.9,1.1-1.4,1.1-3,.1-6.1.1-9.2,0-.4,0-1.2-.6-1.2-1-.1-3-.1-6-.1-9.1,4-.3,7.7-.6,11.9-1C123.6,99.69,123.7,102.89,123.6,106.09Zm0-14c0,.5-.6,1.3-.9,1.3-3.5.4-7.1.7-10.8,1V71c3.7.2,7.3.4,10.9.7.4,0,.9.8.9,1.3C123.7,79.39,123.7,85.69,123.6,92.09Zm-1.4-23.3c-3-.2-6-.3-9-.6-.5,0-1.4-.8-1.4-1.2-.1-7.1,0-14.3,0-21.4,0-.2.1-.3.3-.7,3.5.7,7,1.3,10.4,2a1.77,1.77,0,0,1,1.1,1.4c.1,6.4,0,12.7,0,19.1C123.7,68.49,123.2,68.89,122.2,68.79Zm14.1,37.4c0,.4-.8,1-1.2,1-2.2.1-4.4.1-6.7,0-.5,0-1.2-.9-1.2-1.4-.1-2.9-.1-5.8,0-8.8,0-.5.7-1.3,1.1-1.3,2.6-.4,5.1-.7,8.1-1.1C136.4,98.79,136.4,102.49,136.3,106.19Zm.1-15.5a1.89,1.89,0,0,1-1,1.3c-2.6.4-5.3.7-8,1a12.77,12.77,0,0,1-.2-1.7V73.89c0-1.4.3-2.1,1.9-1.9,2,.2,4.1.2,6.1.5.5.1,1.2.8,1.2,1.2Zm3.5-37.2c0-1.4.4-2,1.9-2h11.6c1.2,0,1.5.6,1.5,1.6v15c0,1.2-.3,1.8-1.6,1.7-3.9-.1-7.9,0-11.8,0-1.2,0-1.6-.4-1.6-1.6Zm14.9,28.8v7.6c0,1.2-.3,1.8-1.6,1.8H141.3c-1,0-1.5-.4-1.5-1.4,0-5.4,0-10.8.1-16.3,0-.4.9-1.2,1.3-1.3,4-.1,8,0,12-.1,1.2,0,1.5.5,1.5,1.6C154.8,76.89,154.8,79.59,154.8,82.29Zm19.1,8.1c0,.4-.6,1.2-1,1.2-4.8.1-9.5.1-14.4.1v-19c4.9,0,9.5,0,14.2.1a1.8,1.8,0,0,1,1.2,1.2C174,79.39,174,84.89,173.9,90.39Zm-1.8-20.5c-4-.1-8,0-12,0a10,10,0,0,1-1.6-.2V51.49h12.2c3.2.1,3.1.1,3.1,3.1V68C174,69.49,173.6,70,172.1,69.89Zm21.1,21.6H177.6V74.19c0-1.1.3-1.6,1.5-1.6,4.2,0,8.4,0,12.6.1.5,0,1.5.6,1.5.9Zm0-22.7c0,.4-.5,1-.8,1-4.9.1-9.8,0-14.8,0V52.59a1.28,1.28,0,0,1,1-1c4.8-.1,9.5,0,14.6,0Z"/><path class="a" d="M136.2,125H62.8v-8.6H0V44.59H56.2V33.19c-.4.1-.7.3-1.1.4a7.61,7.61,0,0,1-9.3-3.2,7.32,7.32,0,0,1,1.1-9.5,11.7,11.7,0,0,1,3.9-2.4c8-3.3,15.9-6.6,23.9-9.9C81.1,6,87.5,3.29,93.9.69a7.86,7.86,0,0,1,6.2-.1l21.3,8.1,25.8,9.9c3.5,1.3,5.4,3.6,5.8,6.8.4,3-.9,5.5-3.6,7.4a7.1,7.1,0,0,1-6.9.8c-.4-.2-.9-.3-1.4-.5v11.4h54.8l1.5-.1v72H136.2V125ZM65,122.79h69v-8.7h61.2V46.69H141.4a3.4,3.4,0,0,1-1-.1l-1.5-.1V29.89l2.5.9c.7.2,1.3.5,1.9.7a4.65,4.65,0,0,0,4.8-.6,5.33,5.33,0,0,0,2.6-5.3c-.3-2.3-1.7-4-4.4-5l-25.8-9.9L99.2,2.59a6.1,6.1,0,0,0-4.6,0c-6.4,2.7-12.8,5.3-19.2,7.9-8,3.3-15.9,6.6-23.9,9.9a10.25,10.25,0,0,0-3.2,2,5,5,0,0,0-.7,6.6,5.26,5.26,0,0,0,6.6,2.3l1.8-.6,2.4-.8v16.8H2.2V114H65Zm44.2-6.7H88.6l-.1-1.6c0-.4-.1-.9-.1-1.3V72.89a3.77,3.77,0,0,1,.8-2.7,3.66,3.66,0,0,1,2.6-.8c3.8.1,7.6.1,11.5,0h5.8l.1,46.7Zm-18.5-2.2H107V71.69H91.8c-.8,0-1,.1-1,.2s-.2.2-.2,1.1c.1,9.7,0,19.6,0,29.2v11.1A1.27,1.27,0,0,1,90.7,113.89Zm41.1-5.4c-1.2,0-2.3,0-3.4-.1a3.11,3.11,0,0,1-2.3-2.5c-.1-2.8-.1-5.8,0-8.8a2.93,2.93,0,0,1,2-2.4c1.9-.3,3.9-.6,5.9-.8l2.2-.3,1.3-.2v3.9c0,3.1,0,6-.1,8.9a2.55,2.55,0,0,1-2.3,2.1C134,108.39,132.8,108.49,131.8,108.49Zm-3.1-2.4c1.9.1,3.9.1,6.3,0a.22.22,0,0,0,.2-.2c.1-2.8.1-5.6.1-8.6v-1.4c-.3,0-.6.1-1,.1-2,.2-3.9.5-5.7.8-.1.1-.3.3-.3.4-.1,2.9-.1,5.9,0,8.6C128.4,105.79,128.5,106.09,128.7,106.09Zm-11.3,2.3c-1.4,0-2.9,0-4.4-.1-.9,0-2.3-1-2.3-2-.1-2.3-.1-4.6-.1-7v-3.2L124.7,95v3.6c0,2.6,0,5-.1,7.5h0c0,1.1-1.4,2.1-2.4,2.2C120.7,108.39,119.1,108.39,117.4,108.39Zm-4.4-2.1Zm-.1-.3c.1.1.2.1.3.2,3.2.1,6.1.1,9,0a1.44,1.44,0,0,0,.3-.2c.1-2.4.1-4.7.1-7.2v-1.2l-9.6.8v1.1C112.9,101.69,112.9,103.79,112.9,106Zm9.6.1Zm-57.1,2.3c-1,0-2.1,0-3.1-.1s-2.4-1-2.4-2.1c-.1-2.9-.1-5.7-.1-8.8v-3.9l3.5.4c2.3.3,4.5.5,6.6.9a3,3,0,0,1,1.9,2.4v8.6a2.3,2.3,0,0,1-2.6,2.6H65.4Zm4.2-2.2Zm-7.5-.3a.76.76,0,0,0,.4.2,30.85,30.85,0,0,0,4.3,0h2.8v-8.9a1.44,1.44,0,0,0-.2-.3c-2-.3-4.1-.6-6.3-.8l-1-.1v1.4C62,100.39,62,103.19,62.1,105.89Zm17.6,2.5c-1.5,0-2.9,0-4.3-.1a2.44,2.44,0,0,1-2.1-2.2c-.1-2.4-.1-4.7-.1-7.2v-3.6l13.9.9v3.2c0,2.4,0,4.6-.1,6.9h0a2.55,2.55,0,0,1-2.1,2.1Zm-4.1-2.3c2.9.1,5.9.1,9.1,0l.1-.1q.15-3.3,0-6.6v-1.1l-9.5-.6V106C75.5,106,75.5,106.09,75.6,106.09Zm9.1.1Zm-9.3-.1Zm35.3-10.5V69.79l3.6.2c2.9.2,5.7.3,8.5.6a2.55,2.55,0,0,1,1.9,2.4c.1,6.4,0,12.8,0,19.1h0a2.55,2.55,0,0,1-1.9,2.4c-2.7.3-5.5.6-8.4.8Zm2.3-23.4v21l1.3-.1c2.8-.2,5.4-.5,8.1-.8.1-.1.1-.2.2-.3.1-6.3.1-12.7,0-19l-.2-.2c-2.7-.2-5.3-.4-8.1-.5ZM87,95.59l-13.5-.9-.1-.9c0-.2-.1-.3-.1-.5a4.1,4.1,0,0,1-.1-1.1V73.09c0-2,.9-3,2.9-3h0c2.3,0,4.5-.2,6.9-.3,1-.1,2-.1,3-.2l1.2-.1v26.1Zm-11.6-3,9.4.6V72c-.6,0-1.2.1-1.8.1l-6.9.3h0a1.73,1.73,0,0,0-.7.1h0s-.1.1-.1.7v19.1C75.4,92.29,75.4,92.49,75.4,92.59Zm-3.7,1.8L68.3,94c-2.2-.3-4.3-.5-6.5-.9a2.55,2.55,0,0,1-2-2.1c-.1-5-.1-9.8,0-15v-4.6l11.9-1.1Zm-9.6-3.6c.1.1.2.1.2.2,2,.3,4.1.6,6.3.8l.9.1V72.79l-7.5.7V76C62,81.09,62,85.89,62.1,90.79Zm64.2,3.4-.1-1.1a1.27,1.27,0,0,0-.1-.6,4.87,4.87,0,0,1-.1-1.2V74a3.42,3.42,0,0,1,.8-2.5,3,3,0,0,1,2.4-.6,26.35,26.35,0,0,0,2.8.2c1.1.1,2.2.1,3.3.3a2.78,2.78,0,0,1,2.1,2.3c.1,5.4.1,11.1,0,17a2.55,2.55,0,0,1-2,2.3c-2,.3-3.9.5-6,.8Zm2-21.1a2,2,0,0,0-.1.8v17.7l.9-.1c2-.2,3.9-.4,5.8-.7.1-.1.2-.2.2-.3.1-5.8.1-11.4,0-16.7l-.3-.3c-1-.1-2-.2-3-.2s-2-.1-2.9-.2a1.06,1.06,0,0,0-.6,0Zm6.7,17.8Zm.2-.2Zm.1-.1Zm-.4-17ZM5.8,92.79a2.52,2.52,0,0,1-1.9-.7,2.58,2.58,0,0,1-.7-2h0c.1-6,.1-11,0-15.5a3.32,3.32,0,0,1,.8-2.4,3.56,3.56,0,0,1,2.5-.8H17.8c.8,0,2.7.8,2.7,2,.1,4.9.1,9.7.1,14.8v4.4H6.1C5.9,92.79,5.9,92.79,5.8,92.79Zm-.3-2.2H18.3v-2.2c0-5,0-9.6-.1-14.4a1.69,1.69,0,0,0-.5-.2H6.4a2.39,2.39,0,0,0-.9.1s-.1.1-.1.8c.1,4.5.1,9.4,0,15.5h0c0,.2.1.3.1.4Zm37.8,2.2a2.23,2.23,0,0,1-1.9-.7,2.88,2.88,0,0,1-.7-2V74.29a2.74,2.74,0,0,1,.7-2,2.58,2.58,0,0,1,2-.7H56a2.49,2.49,0,0,1,1.9.7,2.74,2.74,0,0,1,.7,2v16.1a2.63,2.63,0,0,1-.6,2,2.56,2.56,0,0,1-1.9.7h0c-4.5-.3-8.7-.3-12.8-.3Zm-.3-2.2H56.3V73.79H43v16.3c-.1.3-.1.4,0,.5Zm13.3-16.8Zm85.1,19a2.35,2.35,0,0,1-1.9-.7,2.74,2.74,0,0,1-.7-1.9v-5.4c0-3.6,0-7.2.1-10.9a3,3,0,0,1,2.4-2.4c2.4-.1,4.9-.1,7.3-.1h4.8a2.58,2.58,0,0,1,2,.7,3,3,0,0,1,.7,2.1v15.6a2.88,2.88,0,0,1-.7,2.2,2.72,2.72,0,0,1-2,.7c-4.5.1-8.7.1-12,.1Zm-.3-2.2h.3c3.3,0,7.5-.1,11.9,0h.4V73.89h-5.1c-2.3,0-4.7,0-7.1.1-.1.1-.3.2-.4.3-.1,3.6-.1,7.2-.1,10.7v5.4a.31.31,0,0,0,.1.2Zm12.7-16.8Zm-129.3,19a2.69,2.69,0,0,1-2-.7,2.58,2.58,0,0,1-.7-2V74.29a2.47,2.47,0,0,1,.7-2.1,2.44,2.44,0,0,1,2-.7H36.9a2.42,2.42,0,0,1,2.6,2.6v5.3c0,3.6,0,7.3-.1,10.9a3,3,0,0,1-2.4,2.4c-2.7.1-5.4.1-8.1.1Zm-.4-2.2h4.7c2.6,0,5.3,0,7.9-.1.1-.1.3-.2.3-.3.1-3.6.1-7.2.1-10.7v-5.7h-13v16.8Zm12.6,0ZM24,73.79Zm140.3,19h-6.8V71.59h4.2c3.8,0,7.4,0,11.1.1a2.76,2.76,0,0,1,2.3,2.3c.1,5.3.1,10.6,0,16.5h0a2.55,2.55,0,0,1-2.1,2.3Zm-4.6-2.2h1.8c3.8,0,7.5,0,11.2-.1.1-.1.1-.2.2-.2.1-5.7.1-11,0-16.2l-.3-.3c-3.6-.1-7.1-.1-10.9-.1h-2Zm34.6,2.1H176.4V74.29a2.86,2.86,0,0,1,.6-2.1,2.58,2.58,0,0,1,2-.7h12.6c.9,0,2.5.9,2.6,2,.1,4.9.1,9.7.1,14.7Zm-15.6-2.3h13.4v-2.1c0-4.9,0-9.6-.1-14.3a.76.76,0,0,0-.4-.2H178.8v5.8ZM192,73.69Zm-19.7-2.6h-.1c-2.6-.1-5.3,0-7.9,0h-4.1A4.87,4.87,0,0,1,159,71a.9.9,0,0,1-.5-.1l-1-.1V50.39H171c3.8.1,4.2.5,4.2,4.2V68a3.45,3.45,0,0,1-.7,2.3A3,3,0,0,1,172.3,71.09Zm-.1-2.3a2.44,2.44,0,0,0,.7-.1,1.73,1.73,0,0,0,.1-.7c-.1-3.4,0-6.9,0-10.2v-3.2a9.23,9.23,0,0,0-.1-1.9,9.81,9.81,0,0,0-2-.1H159.8v16.1h4.5c2.5.1,5.2.1,7.9.1ZM5.8,71a2.86,2.86,0,0,1-1.9-.6,2.58,2.58,0,0,1-.7-2V52.89h0a2.87,2.87,0,0,1,2.1-2.5c3.6-.1,7.2-.1,11-.1h4v20.6H5.9A.1.1,0,0,1,5.8,71Zm-.3-2.2H18.2V52.59H16.4c-3.7,0-7.1,0-10.7.1-.1.1-.2.2-.2.3v15.4a.48.48,0,0,0,0,.4ZM141.4,71a2.23,2.23,0,0,1-1.9-.7,2.88,2.88,0,0,1-.7-2V53.39h0a3.1,3.1,0,0,1,.8-2.3,2.92,2.92,0,0,1,2.2-.7h11.6a2.23,2.23,0,0,1,1.9.7,3,3,0,0,1,.7,2.1v15a2.68,2.68,0,0,1-.7,2.2,2.58,2.58,0,0,1-2,.7c-4.3-.1-8.6-.1-11.9-.1Zm-.3-2.2h.4c3.3,0,7.6-.1,11.9,0h.4V52.59h-.3c-4.3.1-8.1.1-11.7,0-.5,0-.6.1-.6.1s-.1.1-.1.7h0v14.9c-.1.3-.1.4,0,.5ZM43.4,71a2.83,2.83,0,0,1-2.1-.7,2.49,2.49,0,0,1-.7-1.9V53a2.58,2.58,0,0,1,.7-2,3,3,0,0,1,2.1-.7c3.6,0,7.8.1,12,0a3.19,3.19,0,0,1,2.4.8,2.73,2.73,0,0,1,.7,2.3c-.1,3.3-.1,6.7,0,10v4.7h0a5.28,5.28,0,0,1-.1,1.2,1.27,1.27,0,0,1-.1.6l-.1,1-1.7.1c-.6,0-1.1.1-1.6.1H50.6c-2.4-.1-4.8-.1-7.2-.1Zm-.4-2.2H56.2V53.39c0-.6-.1-.7-.1-.7h0a2,2,0,0,0-.8-.1H42.8v15.9c.1.1.1.2.2.3ZM30.6,71c-2.1,0-4.2,0-6.4-.1a2.76,2.76,0,0,1-2.3-2.3c-.1-4.5-.1-8.9-.1-13.6v-4.7h4.1c3.9,0,7.5,0,11.2.1a2.65,2.65,0,0,1,2.2,2.3c.1,5.8.1,11,0,15.9A3.11,3.11,0,0,1,36.9,71Zm-6.2-2.3q6.45.15,12.3,0c.1-.1.3-.2.4-.3.1-4.8.1-9.9,0-15.5,0-.1-.1-.1-.2-.2-3.6-.1-7.2-.1-11-.1H24v2.5c0,4.6,0,9,.1,13.4C24.2,68.59,24.3,68.69,24.4,68.69Zm-.2-.1Zm13-.3Zm0-15.4Zm-.3-.3ZM183,71h-6.5V52.69a2.34,2.34,0,0,1,2.1-2.1c3.8-.1,7.6-.1,11.6,0h4.1V69h0a2.23,2.23,0,0,1-1.9,2.1C189.3,71,186.2,71,183,71Zm9-2.2Zm-13.3,0H192v-16H178.7l-.1.1v13.6ZM59.8,70.89V52.29a2.8,2.8,0,0,1,2.3-3.1c1.9-.5,3.8-1.1,5.7-1.7l3.9-1.2v23.6Zm9.6-21.6-1,.3c-2,.6-3.9,1.2-5.8,1.7-.5.1-.7.2-.6,1v16.2l7.4-.6Zm68.1,21.5-3.2-.2c-2.2-.1-4.2-.2-6.3-.4a2.43,2.43,0,0,1-1.9-2.1V46.29l3.7,1.1c2.1.6,4.1,1.3,6,1.9a2.76,2.76,0,0,1,1.7,2.2c.1,4.8,0,9.5,0,14.4ZM128.4,68c2,.2,3.9.3,6,.4l.9.1V51.79c0-.1-.2-.2-.2-.3-1.9-.6-3.8-1.2-5.9-1.9l-.8-.3v2.1c-.1,5.7-.1,11.1,0,16.6Zm6.8-16.3Zm-12.8,18.2h-.3c-1.1-.1-2.2-.1-3.3-.2-1.9-.1-3.8-.2-5.7-.4-1-.1-2.4-1.3-2.4-2.3-.1-6.3,0-12.8,0-19v-2.4a1.4,1.4,0,0,1,.3-.9c0-.1.1-.2.1-.3l.4-.8,3.4.6c2.6.5,5.3,1,8,1.6a2.91,2.91,0,0,1,2,2.5v19.2a2.23,2.23,0,0,1-.7,1.9A3.45,3.45,0,0,1,122.4,69.89Zm-.1-2.2h.3V48.19a4,4,0,0,0-.3-.4q-3.9-.9-7.8-1.5L113,46v20.7c.1.1.3.3.4.3,1.8.2,3.7.3,5.6.4,1.1.2,2.2.2,3.3.3Zm-9.4-1Zm-39.8,3V48.59a2.82,2.82,0,0,1,2.7-3.2c2.3-.4,4.6-.8,7-1.2l4.2-.8V69Zm11.7-23.6-1.6.3c-2.4.4-4.7.9-7,1.2h0c-.7.1-.8.2-.8,1,.1,4.3.1,8.7,0,12.9v5.8l9.4-.5ZM109.2,69H88.6V43.29h20.6Zm-18.4-2.3H107V45.49H90.8ZM60.1,49.09l-.1-1.3a1.27,1.27,0,0,0-.1-.6,4.87,4.87,0,0,1-.1-1.2V31.89a3,3,0,0,1,2.2-3.3c1.9-.7,3.8-1.5,5.8-2.3.8-.4,1.7-.7,2.6-1.1l1.5-.6v19.1h0a2.88,2.88,0,0,1-1.6,2.6c-2.1.7-4.3,1.3-6.6,2Zm9.5-21.4c-.3.1-.7.3-1,.4-2,.8-3.9,1.7-5.9,2.4-.6.2-.8.4-.7,1.2v14.4l1-.3c2.2-.6,4.3-1.2,6.3-1.9a1.42,1.42,0,0,0,.2-.6,43.39,43.39,0,0,0,0-5.1v-1.9l.1-8.6ZM136.8,49l-2.9-.9c-2-.6-4.2-1.2-6.2-1.9a2.5,2.5,0,0,1-1.5-2.2V27.39a1.49,1.49,0,0,1,.3-.8c0-.1.1-.2.2-.3l.5-.9,2.9,1.1c1.9.7,3.9,1.5,5.9,2.3a2.89,2.89,0,0,1,1.6,2.4c.1,4.5,0,9.1,0,13.6v2.1a1.55,1.55,0,0,1-.2.8c0,.1-.1.2-.1.3Zm-8.4-4.8,6,1.8.8.2v-15c0-.1-.2-.3-.3-.4-1.9-.8-3.8-1.5-5.8-2.3l-.8-.3v.5c0,5-.1,10.2,0,15.2C128.3,44,128.4,44.09,128.4,44.19Zm-4.4,1.1-3.2-.5-5.3-.9c-4.5-.8-4.9-1.3-4.9-5.8V19.19l4.2,1.6c2.9,1.1,5.6,2.1,8.3,3.2a3,3,0,0,1,1.6,2.3v17a1.22,1.22,0,0,1-.3.9c0,.1-.1.2-.1.3Zm-11.1-22.9v15.5a9.12,9.12,0,0,0,.2,2.9c.2.3,1.4.5,2.8.7l5.3.9,1.3.2V26.19a1.44,1.44,0,0,0-.2-.3c-2.6-1-5.3-2.1-8.2-3.2ZM73.5,45.19l-.2-1.1c0-.1-.1-.3-.1-.4a3.75,3.75,0,0,1-.1-1.1V25.89c0-.8.4-2.3,1.4-2.7,2.7-1.2,5.4-2.3,8.3-3.5L86.9,18v24.8Zm2.1-19.9a1.88,1.88,0,0,0-.2.8h0c-.1,5.2,0,10.5,0,15.6v1h0l9.4-1.6V21.39l-1.1.4C80.9,23,78.3,24.09,75.6,25.29Zm0-.1Zm33.6,17.4H88.6L88.5,41c0-.4-.1-.8-.1-1.2V20a3.13,3.13,0,0,1,2.2-3.3l.2-.1c5.9-2.5,6.3-2.6,12.3-.2.5.2,1,.3,1.5.5,1.6.5,3.3,1,4.2,2.3s.8,3.1.6,4.7c0,.6-.1,1.1-.1,1.6v14.2a5.7,5.7,0,0,1-.1,1.3Zm-18.5-2.3h16.4V25.39a10.87,10.87,0,0,1,.1-1.8c.1-1.3.2-2.7-.2-3.3s-1.8-1.1-3-1.4c-.6-.2-1.2-.4-1.7-.6-5.3-2.1-5.3-2.1-10.6.2l-.2.1c-.7.3-.8.5-.8,1.2v20.5Z"/></svg>