<svg xmlns="http://www.w3.org/2000/svg" viewBox="0 0 240 89.93"><defs><style>.a{fill:#ec1e31;}</style></defs><title>maverik</title><path class="a" d="M0,86.33c1.7-27.4.5-54.7.8-82.1,0-2.9.5-4.1,3.7-3.8a72.31,72.31,0,0,0,11.4,0c2.2-.1,3.2.5,3.6,2.7.7,3.7,1.7,7.4,2.6,11.1.2.7.1,1.5,1.1,1.9,1.1-4.5,2.4-8.9,3.4-13.4A2.4,2.4,0,0,1,29.2.43a.6.6,0,0,1,.4.1c3.6.2,7.2.1,10.7,0,1.9,0,2.6.4,2.6,2.4-.1,16.1,0,32.3,0,48.4,0,1.1,0,2-1.3,2.6-3.5,1.8-6.8,3.6-10.5,5.6V24.73l-.7-.2L22.9,50,16,25.43a5.85,5.85,0,0,0-.6,3.7V68a5.21,5.21,0,0,1-2.1,4.6A106.35,106.35,0,0,0,1.2,84.73C.7,85.33.5,86.33,0,86.33Z"/><path class="a" d="M206.9,65.13c-4.3-2.7-8.2-5.2-12.1-7.6-1.2-.7-1-1.7-1-2.8V2.83c0-1.9.5-2.6,2.5-2.5a56.11,56.11,0,0,0,8.2,0c2.2-.2,2.6.8,2.5,2.7a151.19,151.19,0,0,0,.5,17.8c1.9-5.4,4-10.7,5.5-16.2.9-3.5,2.6-4.8,6.1-4.3a64.61,64.61,0,0,0,8.8,0c-2.9,9.7-5.6,19.1-8.5,28.4-.7,2.1-.6,3.3,1.5,4.6,3.2,2,4,5.5,4.3,9.1.6,7.2.6,14.5.7,21.8a54.92,54.92,0,0,0,3.5,20.1,2.56,2.56,0,0,1,0,2.1,121.7,121.7,0,0,0-16-16.1c-1.1-.9-.9-2.3-.9-3.5V46.93a7.81,7.81,0,0,0-2.5-6.6,2.56,2.56,0,0,0-2.6-.8c-.9.4-.5,1.5-.5,2.3Z"/><path class="a" d="M45.4,51.73c.7-8.6,1.4-16.8,2.2-25,.7-7.9,1.5-15.7,2.1-23.6.2-2,.7-2.9,3-2.8,5.9.2,11.8.1,17.7,0,1.8,0,2.6.4,2.9,2.3,1.9,11.9,3.9,23.9,6.4,35.7.3,1.5,0,2.3-1.7,2.6a59.84,59.84,0,0,0-7.3,1.8c-1.9.6-2.6,0-2.9-1.9-.6-3.6-.8-3.7-4.1-2.2-2.5,1.1-4.2,2.7-4.3,5.7a2.33,2.33,0,0,1-1.7,2.6C53.5,48.33,49.7,49.93,45.4,51.73Zm16.9-39.1H62c-.4,5.1-.9,10.3-1.3,15.5,0,.7-.6,1.8.7,2a3.08,3.08,0,0,0,3.6-2.5,1.1,1.1,0,0,0,0-.8c-.9-4.8-1.8-9.5-2.7-14.2Z"/><path class="a" d="M174.6,47.23c-4.6-.4-8.8-2.7-13.3-4-1-.3-.9-1.5-.9-2.5-.2-3.1-.3-6.3-.5-9.5a9.2,9.2,0,0,0-1.1-4.6,4.19,4.19,0,0,0-4.5-1.7c-1.5.3-.7,2-.7,3-.1,3.6-.2,7.2,0,10.7,0,2-.5,2.6-2.5,2.2q-4.5-1-9-1.8c-1.5-.2-1.8-1-1.8-2.3V2.63c0-1.2-.1-2.3,1.7-2.2,7.7.3,15.4-.5,23,.5,4.6.6,6.5,2.7,6.9,7.2a28.87,28.87,0,0,1-.2,8.8,8.33,8.33,0,0,1-5.3,5.5c5.8,3,6.9,8,6.9,13.5a38.47,38.47,0,0,0,1.3,11.3Zm-21-34.7c.3,1.9-1.2,4.6,2.8,4.4,3.5-.3,4.7-1.2,4.7-4.4s-.9-3.7-4.9-4S154.1,10.93,153.6,12.53Z"/><path class="a" d="M93.4,24c.6-7,1.4-14,1.9-21.1.1-2.2.9-2.6,2.8-2.5,2.6.1,5.3.1,7.9,0,1.6,0,2.3.4,2,2.1-1.4,10.9-2.8,21.7-4.1,32.5-.2,1.5-.7,2.1-2.3,2.2A116.09,116.09,0,0,0,85,39.43c-1.4.3-1.9-.4-2.1-1.5C80.9,26,78.8,14,76.6,2.13,76.4,1,76.5.23,77.9.33h.9c3.1,0,7.1-1,9.3.5s1.5,5.8,2.2,8.9c1,4.6,1.7,9.4,2.5,14.2h.6Z"/><path class="a" d="M110.7,18.53V2.73c0-1.8.4-2.4,2.3-2.3,7.5.1,14.9.1,22.4,0,1.7,0,2.1.6,2.2,2.2.3,7.4.4,7.4-7,7.4a16.05,16.05,0,0,1-3.1,0c-2.7-.4-3.7.4-3.5,3.3.1,2.2.4,3.4,2.9,3h1.3c3.7,0,5.3,2.5,4,5.9-.4.9-1.1.8-1.8.9h-4.1c-1.2,0-2.3-.1-2.2,1.7,0,1.5.3,2.3,2,2.3,3.1,0,6.1.5,9.1.6,2,0,2.4.8,2.5,2.7.2,8.1.3,8.1-7.6,7.3a155.35,155.35,0,0,0-16.7-.6c-2.2,0-2.6-.6-2.6-2.7C110.7,29,110.7,23.83,110.7,18.53Z"/><path class="a" d="M190.3,54.93c-4.3-2-8.1-3.9-12.1-5.6-1.2-.5-1.1-1.4-1.1-2.3V2.43c0-1.5.4-2.1,1.9-2,3.1.1,6.1.1,9.2,0,1.7,0,2.1.5,2.1,2.2Z"/><path class="a" d="M174.6,47.23l.3.4h-.3v-.4Z"/><path class="a" d="M236.2,89.93a3.8,3.8,0,1,1,3.8-3.8h0A3.8,3.8,0,0,1,236.2,89.93Zm0-6.9a3.1,3.1,0,1,0,3.1,3.1,3.12,3.12,0,0,0-3.1-3.1Z"/><path class="a" d="M234.6,87.93v-3.6h1.5a2.77,2.77,0,0,1,.9.1,1.38,1.38,0,0,1,.4.3,1.42,1.42,0,0,1,.2.6,1.85,1.85,0,0,1-.2.7.91.91,0,0,1-.7.3c.1.1.3.2.4.3a2.09,2.09,0,0,1,.4.6l.4.7H237l-.5-.8a1,1,0,0,0-.4-.5l-.2-.2h-.6v1.5Zm.8-2.1h1.2a.22.22,0,0,0,.2-.2v-.3a.35.35,0,0,0-.4-.4h-1.1Z"/></svg>