<svg xmlns="http://www.w3.org/2000/svg" viewBox="0 0 98.63 100"><defs><style>.a{fill:red;}.b{fill:#f9e8a0;}.c{fill:#414042;}</style></defs><title>other grocery- mass merchandise- or supercenter</title><circle class="a" cx="30.4" cy="88.3" r="9.1"/><circle class="a" cx="78.9" cy="88.9" r="9.1"/><path class="b" d="M71.6,55.2c3.2,0,7-1.6,8-4.8L96.7,18.3a3.9,3.9,0,0,0,0-4.8A4.29,4.29,0,0,0,93,11.4H21.4L17.7,2.3H1.7v9.6h9.6L28.9,48.8l-7,11.8c-.5,1.6-.5,3.2-1.1,4.3a9.6,9.6,0,0,0,9.6,9.6H88.7V64.9H32.6a1.18,1.18,0,0,1-1.1-1.1v-.5l4.3-8H71.6Z"/><path class="c" d="M79.1,77.6A11.24,11.24,0,0,0,67.9,88.8a11.2,11.2,0,0,0,22.4,0h0A11.31,11.31,0,0,0,79.1,77.6Zm8,11.3a8.6,8.6,0,1,1-8.6-8.6,8.47,8.47,0,0,1,8.6,8.6Z"/><path class="c" d="M97.8,12.9A5.72,5.72,0,0,0,93,10.2H22.4L18.7,1.1C18.2.6,17.6,0,17.1,0H1.1C.6,0,0,.5,0,1.6v9.6a1.7,1.7,0,0,0,1.6,1.6h8.6L26.8,48.1,20.3,59.5a20,20,0,0,0-1.1,5.3A11.24,11.24,0,0,0,30.4,76H88.7a1.18,1.18,0,0,0,1.1-1.1V65.3a1.7,1.7,0,0,0-1.6-1.6H32.6l3.7-7H71.6a10.39,10.39,0,0,0,9.1-5.3L97.8,19.3C98.9,16.7,98.9,14.5,97.8,12.9Zm-2.1,4.3L78.6,49.3c-1.1,2.7-4.3,4.3-7,4.3H35.8a2.21,2.21,0,0,0-1.1.5l-4.3,8v1a2.26,2.26,0,0,0,2.1,2.1H87.6v7H30.4a8.47,8.47,0,0,1-8.6-8.6c0-1.6.5-2.7.5-4.3l7-11.8V46.4l-17-35.6c0-.5-.5-.5-1.1-.5H2.6v-7H16.5l3.7,9.1a1.18,1.18,0,0,0,1.1,1.1H93C95.5,13.1,97.8,14.3,95.7,17.2Z"/><path class="c" d="M30.4,77.6A11.24,11.24,0,0,0,19.2,88.8,10.94,10.94,0,0,0,30.4,100,11.24,11.24,0,0,0,41.6,88.8h0A10.88,10.88,0,0,0,30.4,77.6ZM39,88.9a8.47,8.47,0,0,1-8.6,8.6,8.41,8.41,0,0,1-8.6-8.6,8.8,8.8,0,0,1,8.6-8.6A8.47,8.47,0,0,1,39,88.9Z"/><path class="c" d="M79.1,77.6A11.24,11.24,0,0,0,67.9,88.8a11.2,11.2,0,0,0,22.4,0h0A11.31,11.31,0,0,0,79.1,77.6Zm8,11.3a8.6,8.6,0,1,1-8.6-8.6,8.47,8.47,0,0,1,8.6,8.6Z"/><path class="c" d="M97.8,12.9A5.72,5.72,0,0,0,93,10.2H22.4L18.7,1.1C18.2.6,17.6,0,17.1,0H1.1C.6,0,0,.5,0,1.6v9.6a1.7,1.7,0,0,0,1.6,1.6h8.6L26.8,48.1,20.3,59.5a20,20,0,0,0-1.1,5.3A11.24,11.24,0,0,0,30.4,76H88.7a1.18,1.18,0,0,0,1.1-1.1V65.3a1.7,1.7,0,0,0-1.6-1.6H32.6l3.7-7H71.6a10.39,10.39,0,0,0,9.1-5.3L97.8,19.3C98.9,16.7,98.9,14.5,97.8,12.9Zm-2.1,4.3L78.6,49.3c-1.1,2.7-4.3,4.3-7,4.3H35.8a2.21,2.21,0,0,0-1.1.5l-4.3,8v1a2.26,2.26,0,0,0,2.1,2.1H87.6v7H30.4a8.47,8.47,0,0,1-8.6-8.6c.8-5.3,7.5-16,7.5-16V46.5l-17-35.7c0-.5-.5-.5-1.1-.5H2.6v-7H16.5l3.7,9.1a1.18,1.18,0,0,0,1.1,1.1H93C95.6,13.4,97.4,14.1,95.7,17.2Z"/><path class="c" d="M30.4,77.6A11.24,11.24,0,0,0,19.2,88.8,10.94,10.94,0,0,0,30.4,100,11.24,11.24,0,0,0,41.6,88.8h0A10.88,10.88,0,0,0,30.4,77.6ZM39,88.9a8.47,8.47,0,0,1-8.6,8.6,8.41,8.41,0,0,1-8.6-8.6,8.8,8.8,0,0,1,8.6-8.6A8.47,8.47,0,0,1,39,88.9Z"/><path class="c" d="M53.2,17.5l4.3,9.3,10.1,1.7-7.5,7,1.5,10.1-8.9-5-9.2,4.5,2-10-7.1-7.3,10.1-1.2,4.7-9.1m0-2a2.11,2.11,0,0,0-1.8,1.1l-4.3,8.1L38,25.8a1.84,1.84,0,0,0-1.6,1.3,1.89,1.89,0,0,0,.5,2.1l6.4,6.6-1.8,9a2.2,2.2,0,0,0,.7,2,1.92,1.92,0,0,0,1.2.4,2.92,2.92,0,0,0,.9-.2l8.2-4.1,8,4.5a1.69,1.69,0,0,0,1,.3,1.5,1.5,0,0,0,1.1-.4,1.82,1.82,0,0,0,.8-1.9l-1.3-9.1,6.7-6.2a1.95,1.95,0,0,0-1-3.4l-9-1.5-3.9-8.3a1.7,1.7,0,0,0-1.7-1.4Z"/></svg>