<svg xmlns="http://www.w3.org/2000/svg" xmlns:xlink="http://www.w3.org/1999/xlink" viewBox="0 0 215.5 62"><defs><style>.a{fill:#5c5c5f;}.b{fill:#f1f2f2;}.c{fill:#797a7d;}.d{fill:#fff;}.e{fill:#6f0f10;}.f{fill:#700f10;}.g{fill:#710f11;}.h{fill:#720f11;}.i{fill:#731011;}.j{fill:#741012;}.k{fill:#751012;}.l{fill:#761012;}.m{fill:#761112;}.n{fill:#771113;}.o{fill:#781113;}.p{fill:#791113;}.q{fill:#7a1213;}.r{fill:#7b1214;}.s{fill:#7c1214;}.t{fill:#7d1214;}.u{fill:#7e1214;}.v{fill:#7f1315;}.w{fill:#801315;}.x{fill:#811315;}.y{fill:#821316;}.z{fill:#831416;}.aa{fill:#841416;}.ab{fill:#851416;}.ac{fill:#861417;}.ad{fill:#871417;}.ae{fill:#881517;}.af{fill:#891517;}.ag{fill:#8a1518;}.ah{fill:#8b1518;}.ai{fill:#8c1518;}.aj{fill:#8d1618;}.ak{fill:#8e1618;}.al{fill:#8f1619;}.am{fill:#901619;}.an{fill:#911619;}.ao{fill:#921619;}.ap{fill:#931619;}.aq{fill:#94171a;}.ar{fill:#95171a;}.as{fill:#96171a;}.at{fill:#97171a;}.au{fill:#97171b;}.av{fill:#98171b;}.aw{fill:#99181b;}.ax{fill:#9a181b;}.ay{fill:#9b181b;}.az{fill:#9c181c;}.ba{fill:#9d181c;}.bb{fill:#9e181c;}.bc{fill:#a0181c;}.bd{fill:#a1191c;}.be{fill:#a2191d;}.bf{fill:#a3191d;}.bg{fill:#a4191d;}.bh{fill:#a5191d;}.bi{fill:#a6191d;}.bj{fill:#a7191d;}.bk{fill:#a8191e;}.bl{fill:#a91a1e;}.bm{fill:#aa1a1e;}.bn{fill:#ab1a1e;}.bo{fill:#ac1a1e;}.bp{fill:#ad1a1e;}.bq{fill:#ae1a1f;}.br{fill:#af1a1f;}.bs{fill:#b01a1f;}.bt{fill:#b11a1f;}.bu{fill:#b21a1f;}.bv{fill:#b31a1f;}.bw{fill:#b41b20;}.bx{fill:#b51b20;}.by{fill:#b61b20;}.bz{fill:#b71b20;}.ca{fill:#b81b20;}.cb{fill:#b91b20;}.cc{fill:#ba1b20;}.cd{fill:#bc1b20;}.ce{fill:#bd1b21;}.cf{fill:#be1b21;}.cg{fill:#bf1b21;}.ch{fill:#c01b21;}.ci{fill:#c11b21;}.cj{fill:#c21b21;}.ck{fill:#c31b21;}.cl{fill:#c41b22;}.cm{fill:#c51b22;}.cn{fill:#c61c22;}.co{fill:#c71c22;}.cp{fill:#c81c22;}.cq{fill:#ca1c22;}.cr{fill:#cb1c22;}.cs{fill:#cc1c22;}.ct{fill:#cd1c22;}.cu{fill:#ce1c23;}.cv{fill:#cf1c23;}.cw{fill:#d01c23;}.cx{fill:#d11c23;}.cy{fill:#d21c23;}.cz{fill:#d41c23;}.da{fill:#d51c23;}.db{fill:#d61c23;}.dc{fill:#d71c23;}.dd{fill:#d81c23;}.de{fill:#d91c23;}.df{fill:#da1d24;}.dg{fill:#dc1d24;}.dh{fill:#dd1d24;}.di{fill:#de1d24;}.dj{fill:#df1d24;}.dk{fill:#e11d24;}.dl{fill:#e21d24;}.dm{fill:#e41d24;}.dn{fill:#e51d24;}.do{fill:#e71d24;}.dp{fill:#e91c24;}.dq{fill:#eb1c24;}.dr{fill:#ed1c24;}.ds{fill:url(#a);}.dt{fill:url(#b);}.du{fill:url(#c);}.dv{fill:url(#d);}.dw{fill:url(#e);}.dx{fill:url(#f);}.dy{fill:#58595b;}.dz{fill:#595a5c;}.ea{fill:#595a5d;}.eb{fill:#5a5b5d;}.ec{fill:#5b5c5e;}.ed{fill:#5c5d5f;}.ee{fill:#5d5e60;}.ef{fill:#5e5f61;}.eg{fill:#5e5f62;}.eh{fill:#5f6062;}.ei{fill:#606163;}.ej{fill:#606164;}.ek{fill:#616264;}.el{fill:#626365;}.em{fill:#626366;}.en{fill:#636466;}.eo{fill:#646567;}.ep{fill:#646568;}.eq{fill:#656668;}.er{fill:#666769;}.es{fill:#66676a;}.et{fill:#67686a;}.eu{fill:#67696b;}.ev{fill:#68696c;}.ew{fill:#696a6c;}.ex{fill:#696b6d;}.ey{fill:#6a6b6e;}.ez{fill:#6b6c6e;}.fa{fill:#6b6d6f;}.fb{fill:#6c6d70;}.fc{fill:#6d6e70;}.fd{fill:#6d6f71;}.fe{fill:#6e6f72;}.ff{fill:#6e7072;}.fg{fill:#6f7073;}.fh{fill:#707174;}.fi{fill:#707274;}.fj{fill:#717275;}.fk{fill:#717375;}.fl{fill:#727476;}.fm{fill:#737477;}.fn{fill:#737577;}.fo{fill:#747578;}.fp{fill:#747679;}.fq{fill:#757779;}.fr{fill:#76777a;}.fs{fill:#76787a;}.ft{fill:#77797b;}.fu{fill:#78797c;}.fv{fill:#787a7c;}.fw{fill:#797b7e;}.fx{fill:#7a7c7e;}.fy{fill:#7b7c7f;}.fz{fill:#7b7d7f;}.ga{fill:#7c7d80;}.gb{fill:#7c7e81;}.gc{fill:#7d7f81;}.gd{fill:#7d7f82;}.ge{fill:#7e8082;}.gf{fill:#7f8083;}.gg{fill:#7f8184;}.gh{fill:#808284;}.gi{fill:#808285;}.gj{fill:#818385;}.gk{fill:#828386;}.gl{fill:#828487;}.gm{fill:#838587;}.gn{fill:#838588;}.go{fill:#848688;}.gp{fill:#858689;}.gq{fill:#85878a;}.gr{fill:#86888a;}.gs{fill:#86888b;}.gt{fill:#87898b;}.gu{fill:#88898c;}.gv{fill:#888a8d;}.gw{fill:#898b8d;}.gx{fill:#898b8e;}.gy{fill:#8a8c8e;}.gz{fill:#8a8c8f;}.ha{fill:#8b8d90;}.hb{fill:#8c8e90;}.hc{fill:#8c8e91;}.hd{fill:#8d8f92;}.he{fill:#8e9093;}.hf{fill:#8f9193;}.hg{fill:#8f9194;}.hh{fill:#909295;}.hi{fill:#909395;}.hj{fill:#919396;}.hk{fill:#929496;}.hl{fill:#929497;}.hm{fill:#939598;}.hn{fill:#939698;}.ho{fill:#949699;}.hp{fill:#959799;}.hq{fill:#95979a;}.hr{fill:#96989b;}.hs{fill:#97999b;}.ht{fill:#97999c;}.hu{fill:#989a9c;}.hv{fill:#989a9d;}.hw{fill:#999b9e;}.hx{fill:#9a9c9e;}.hy{fill:#9a9c9f;}.hz{fill:#9b9da0;}.ia{fill:#9b9ea0;}.ib{fill:#9c9ea1;}.ic{fill:#9d9fa1;}.id{fill:#9d9fa2;}.ie{fill:#9ea0a3;}.if{fill:#9fa1a3;}.ig{fill:#9fa1a4;}.ih{fill:#a0a2a5;}.ii{fill:#a0a3a5;}.ij{fill:#a1a3a6;}.ik{fill:#a2a4a6;}.il{fill:#a2a4a7;}.im{fill:#a3a5a8;}.in{fill:#a4a6a8;}.io{fill:#a4a6a9;}.ip{fill:#a5a7aa;}.iq{fill:#a5a8aa;}.ir{fill:#a6a8ab;}.is{fill:#a7a9ab;}.it{fill:#a7aaac;}.iu{fill:#a8aaad;}.iv{fill:#a9abad;}.iw{fill:#a9abae;}.ix{fill:#aaacaf;}.iy{fill:#abadaf;}.iz{fill:#abadb0;}.ja{fill:#acaeb0;}.jb{fill:#adafb1;}.jc{fill:#adafb2;}.jd{fill:#aeb0b2;}.je{fill:#aeb1b3;}.jf{fill:#afb1b4;}.jg{fill:#b0b2b4;}.jh{fill:#b0b2b5;}.ji{fill:#b1b3b6;}.jj{fill:#b2b4b6;}.jk{fill:#b2b4b7;}.jl{fill:#b3b5b7;}.jm{fill:#b4b6b8;}.jn{fill:#b4b6b9;}.jo{fill:#b5b7b9;}.jp{fill:#b6b8ba;}.jq{fill:#b6b8bb;}.jr{fill:#b7b9bb;}.js{fill:#b8babc;}.jt{fill:#b8babd;}.ju{fill:#b9bbbd;}.jv{fill:#babcbe;}.jw{fill:#bbbdbf;}.jx{fill:#bcbec0;}.jy{fill:#bdbfc1;}.jz{fill:#bec0c2;}.ka{fill:#bfc1c3;}.kb{fill:#c0c2c4;}.kc{fill:#c1c3c5;}.kd{fill:#c2c3c6;}.ke{fill:#c2c4c6;}.kf{fill:#c3c5c7;}.kg{fill:#c4c5c8;}.kh{fill:#c4c6c8;}.ki{fill:#c5c7c9;}.kj{fill:#c6c7c9;}.kk{fill:#c6c8ca;}.kl{fill:#c7c9cb;}.km{fill:#c8c9cb;}.kn{fill:#c8cacc;}.ko{fill:#c9cbcd;}.kp{fill:#cacbcd;}.kq{fill:#caccce;}.kr{fill:#cbcdce;}.ks{fill:#cccdcf;}.kt{fill:#ccced0;}.ku{fill:#cdcfd0;}.kv{fill:#cecfd1;}.kw{fill:#ced0d2;}.kx{fill:#cfd1d2;}.ky{fill:#d0d1d3;}.kz{fill:#d0d2d3;}.la{fill:#d1d2d4;}.lb{fill:#d2d3d5;}.lc{fill:#d2d4d5;}.ld{fill:#d3d4d6;}.le{fill:#d4d5d7;}.lf{fill:#d4d6d7;}.lg{fill:#d5d6d8;}.lh{fill:#d6d7d8;}.li{fill:#d6d8d9;}.lj{fill:#d7d8da;}.lk{fill:#d8d9da;}.ll{fill:#d8dadb;}.lm{fill:#d9dadc;}.ln{fill:#dadbdc;}.lo{fill:#dadcdd;}.lp{fill:#dbdcdd;}.lq{fill:#dcddde;}.lr{fill:#dcdddf;}.ls{fill:#dddedf;}.lt{fill:#dedfe0;}.lu{fill:#dedfe1;}.lv{fill:#dfe0e1;}.lw{fill:#e0e1e2;}.lx{fill:#e1e2e3;}.ly{fill:#e2e3e4;}.lz{fill:#e3e4e5;}.ma{fill:#e4e4e6;}.mb{fill:#e4e5e6;}.mc{fill:#e5e6e7;}.md{fill:#e6e6e7;}.me{fill:#e6e7e8;}.mf{fill:#e7e8e9;}.mg{fill:#e8e8e9;}.mh{fill:#e8e9ea;}.mi{fill:#e9eaeb;}.mj{fill:#eaeaeb;}.mk{fill:#eaebec;}.ml{fill:#ebecec;}.mm{fill:#ececed;}.mn{fill:#ecedee;}.mo{fill:#edeeee;}.mp{fill:#eeeeef;}.mq{fill:#eeeff0;}.mr{fill:#eff0f0;}.ms{fill:#f0f0f1;}.mt{fill:#f0f1f1;}.mu{fill:#f2f2f3;}.mv{fill:#f2f3f3;}.mw{fill:#f3f3f4;}.mx{fill:#f4f4f5;}.my{fill:#f4f5f5;}.mz{fill:#f5f6f6;}.na{fill:#f6f6f7;}.nb{fill:#f7f7f7;}.nc{fill:#f7f8f8;}.nd{fill:#f8f9f9;}.ne{fill:#f9f9fa;}.nf{fill:#fafafa;}.ng{fill:#fbfbfb;}.nh{fill:#fcfcfd;}.ni{fill:#fefefe;}</style><linearGradient id="a" x1="31" y1="-1082.5" x2="31" y2="-1121.66" gradientTransform="matrix(1, 0, 0, -1, 0, -1076)" gradientUnits="userSpaceOnUse"><stop offset="0" stop-color="#f04d36"/><stop offset="0.42" stop-color="#ee352a"/><stop offset="0.81" stop-color="#ed1c24"/></linearGradient><linearGradient id="b" x1="31" y1="-1082.6" x2="31" y2="-1121.7" gradientTransform="matrix(1, 0, 0, -1, 0, -1076)" gradientUnits="userSpaceOnUse"><stop offset="0" stop-color="#f36e51"/><stop offset="0.18" stop-color="#f15e43"/><stop offset="0.6" stop-color="#ee352a"/><stop offset="0.81" stop-color="#ed1c24"/></linearGradient><linearGradient id="c" x1="31" y1="-1082.62" x2="31" y2="-1121.68" gradientTransform="matrix(1, 0, 0, -1, 0, -1076)" gradientUnits="userSpaceOnUse"><stop offset="0" stop-color="#f58a6c"/><stop offset="0.36" stop-color="#f15f43"/><stop offset="0.66" stop-color="#ee352a"/><stop offset="0.81" stop-color="#ed1c24"/></linearGradient><linearGradient id="d" x1="31" y1="-1082.7" x2="31" y2="-1121.7" gradientTransform="matrix(1, 0, 0, -1, 0, -1076)" gradientUnits="userSpaceOnUse"><stop offset="0" stop-color="#f8a68b"/><stop offset="0.13" stop-color="#f69173"/><stop offset="0.45" stop-color="#f15f43"/><stop offset="0.69" stop-color="#ee352a"/><stop offset="0.81" stop-color="#ed1c24"/></linearGradient><linearGradient id="e" x1="31" y1="-1082.7" x2="31" y2="-1121.64" gradientTransform="matrix(1, 0, 0, -1, 0, -1076)" gradientUnits="userSpaceOnUse"><stop offset="0" stop-color="#fbc3ae"/><stop offset="0.25" stop-color="#f69173"/><stop offset="0.52" stop-color="#f15f43"/><stop offset="0.71" stop-color="#ee352a"/><stop offset="0.81" stop-color="#ed1c24"/></linearGradient><linearGradient id="f" x1="31.1" y1="-1082.8" x2="31.1" y2="-1121.68" gradientTransform="matrix(1, 0, 0, -1, 0, -1076)" gradientUnits="userSpaceOnUse"><stop offset="0" stop-color="#fde1d4"/><stop offset="0.04" stop-color="#fdd7c7"/><stop offset="0.32" stop-color="#f69274"/><stop offset="0.56" stop-color="#f15f43"/><stop offset="0.73" stop-color="#ee352a"/><stop offset="0.81" stop-color="#ed1c24"/></linearGradient></defs><title>sedano-s supermarket</title><circle class="a" cx="31" cy="31" r="31"/><path class="b" d="M75.4,46.6h-.5A15.65,15.65,0,0,1,66,43.8l-.1-.3L68.1,40l.4-.1a9.62,9.62,0,0,0,5.9,2.3h.3a4.27,4.27,0,0,0,2.9-1,3.22,3.22,0,0,0,1.2-2.6c0-1.3-1.1-2.9-3.1-4.8-1-.9-2.6-2.2-4.7-3.9-2.5-2-3.7-4.2-3.7-6.5a6.69,6.69,0,0,1,2.8-5.5,11,11,0,0,1,6.6-2.1h.4a13,13,0,0,1,7.6,2.4l.1.3-2.3,3.2-.4.1a7.55,7.55,0,0,0-4.6-1.6h-.2a4.07,4.07,0,0,0-2.4.8,2.52,2.52,0,0,0-.9,2c0,1,.9,2.3,2.6,3.8l4.5,3.8c2.9,2.3,4.3,4.9,4.3,7.6a7.62,7.62,0,0,1-3,6.2A13.17,13.17,0,0,1,75.4,46.6Z"/><path class="c" d="M76.6,15.9H77a12.65,12.65,0,0,1,7.5,2.4l-2.3,3.2a9,9,0,0,0-4.7-1.7h-.2a5,5,0,0,0-2.6.8,2.7,2.7,0,0,0-1,2.2q0,1.65,2.7,3.9l4.5,3.8c2.8,2.3,4.2,4.8,4.2,7.4a7,7,0,0,1-2.9,5.9,11.45,11.45,0,0,1-6.9,2.3h-.6a14.73,14.73,0,0,1-8.6-2.8l2.2-3.5a11,11,0,0,0,6,2.4h.3a5.71,5.71,0,0,0,3.1-1A3.47,3.47,0,0,0,79,38.3c0-1.4-1.1-3.1-3.2-5-1-.9-2.6-2.2-4.7-3.9-2.4-1.9-3.7-4-3.7-6.3a6.49,6.49,0,0,1,2.7-5.3,12.33,12.33,0,0,1,6.5-1.9m0-.5a11.43,11.43,0,0,0-6.7,2.2A7,7,0,0,0,67,23.3c0,2.4,1.3,4.7,3.8,6.7,2.1,1.7,3.7,3,4.7,3.9,2,1.8,3.1,3.4,3.1,4.6A3.25,3.25,0,0,1,77.5,41a4.47,4.47,0,0,1-2.8.9h-.3a9.82,9.82,0,0,1-5.7-2.2l-.7.1-2.2,3.5.1.7a15,15,0,0,0,8.9,2.9h.6a12.44,12.44,0,0,0,7.2-2.4,8,8,0,0,0,3.1-6.4c0-2.8-1.5-5.4-4.4-7.8l-4.5-3.8c-1.7-1.4-2.5-2.6-2.5-3.6a2.34,2.34,0,0,1,.8-1.8,3.41,3.41,0,0,1,2.2-.7h.2A8.19,8.19,0,0,1,82,22l.7-.1L85,18.7l-.1-.7a13.59,13.59,0,0,0-7.7-2.5,1.76,1.76,0,0,0-.6-.1Z"/><path class="b" d="M96.5,46.5a10.6,10.6,0,0,1-7.4-2.9,11.33,11.33,0,0,1-3.6-8.7A10.43,10.43,0,0,1,96,24h.4c3.9,0,6.6,1.6,8,4.8a17.19,17.19,0,0,1,1.2,6.3c0,.2-.2.3-.7.6-.3.2-.4.2-.4.2l-.2.2H91.9a7.07,7.07,0,0,0,1.7,4.6,6.17,6.17,0,0,0,4.2,1.8H98a10,10,0,0,0,5.3-1.6l.4.1,1.6,2.9-.1.3a17.36,17.36,0,0,1-8.3,2.4C96.8,46.5,96.7,46.5,96.5,46.5Zm-.1-19c-2.7,0-4.1,1.7-4.3,5.3h8.1V32C99.9,29,98.7,27.5,96.4,27.5Z"/><path class="c" d="M96,24.3h.4c3.8,0,6.4,1.5,7.8,4.6a16.68,16.68,0,0,1,1.2,6.2c0,.1-.2.2-.5.3s-.6.3-.6.4H91.7a7.18,7.18,0,0,0,1.8,5,6.2,6.2,0,0,0,4.4,1.8h.2a9.59,9.59,0,0,0,5.4-1.7l1.6,2.9a17,17,0,0,1-8.2,2.4h-.4a10.54,10.54,0,0,1-7.3-2.9,11.32,11.32,0,0,1-3.5-8.5A10.33,10.33,0,0,1,88.8,27,11.27,11.27,0,0,1,96,24.3M91.8,33h8.6V32c-.2-3.2-1.6-4.7-4-4.7-2.9,0-4.5,1.9-4.6,5.7M96,23.8h0a11.12,11.12,0,0,0-7.5,3A10.86,10.86,0,0,0,85.2,35a11.7,11.7,0,0,0,3.6,8.8,11.37,11.37,0,0,0,7.6,3h.4a17.43,17.43,0,0,0,8.4-2.4l.2-.7-1.6-2.9-.7-.2a9.65,9.65,0,0,1-5.2,1.6h-.2a5.83,5.83,0,0,1-4.1-1.7,6.85,6.85,0,0,1-1.7-4.1H104l.5-.5c0,.1-.1.2-.1.3a1.09,1.09,0,0,1,.4-.2c.4-.2.8-.4.8-.8a17.32,17.32,0,0,0-1.2-6.4c-1.5-3.3-4.3-4.9-8.3-4.9.1-.1,0-.1-.1-.1Zm-3.7,8.7c.3-3.2,1.6-4.7,4.1-4.7,2.1,0,3.3,1.4,3.5,4.3v.5l-7.6-.1Z"/><path class="b" d="M114.6,46.5a8.57,8.57,0,0,1-6.9-3.5,12.06,12.06,0,0,1-2.4-7.8,11.32,11.32,0,0,1,2.9-8,9.28,9.28,0,0,1,7.1-3.2h.4a8.2,8.2,0,0,1,6.2,2.8V15l.3-.3h5.4l.3.3V46.2l-.3.1v.1H122l-.3-.3V43.3a9.73,9.73,0,0,1-6.8,3.2Zm2-18.7a4.24,4.24,0,0,0-3.6,1.9,8.26,8.26,0,0,0-1.3,5.3,10.29,10.29,0,0,0,1.4,5.7,4.08,4.08,0,0,0,3.6,2.1h0v0a4.08,4.08,0,0,0,3.6-2.1,9.59,9.59,0,0,0,1.5-5.7,8.41,8.41,0,0,0-1.5-5.3,4.37,4.37,0,0,0-3.6-1.9Z"/><path class="c" d="M127.4,15V46.2H122V42.7a9.36,9.36,0,0,1-7.1,3.6h-.3a8.25,8.25,0,0,1-6.7-3.4,12.28,12.28,0,0,1-2.4-7.6,11,11,0,0,1,2.8-7.8,9,9,0,0,1,6.9-3.1h.4a8.05,8.05,0,0,1,6.4,3.2V15h5.4M116.6,27.6h0a4.32,4.32,0,0,0-3.8,2,9.31,9.31,0,0,0-1.4,5.4,10.63,10.63,0,0,0,1.4,5.8,4.29,4.29,0,0,0,3.8,2.2h0a4.57,4.57,0,0,0,3.9-2.2A9.9,9.9,0,0,0,122,35a8.7,8.7,0,0,0-1.5-5.4,4.57,4.57,0,0,0-3.8-2h-.1m10.8-13.1H122l-.5.5V26.2a8.67,8.67,0,0,0-5.9-2.4h-.4a9.79,9.79,0,0,0-7.3,3.3,11.81,11.81,0,0,0-2.9,8.2,12.61,12.61,0,0,0,2.5,7.9,9,9,0,0,0,7.1,3.6h.3a10.14,10.14,0,0,0,6.6-2.8v2.2l.5.5h5.4v-.3l.5-.2V15l-.5-.5ZM116.5,28.1h.1a4.17,4.17,0,0,1,3.4,1.8,8.39,8.39,0,0,1,1.4,5.1v.1a9.43,9.43,0,0,1-1.4,5.5,4,4,0,0,1-6.8,0,10.84,10.84,0,0,1-1.4-5.6,9.38,9.38,0,0,1,1.3-5.2,4.36,4.36,0,0,1,3.4-1.7Z"/><path class="b" d="M134.6,46.5a6.21,6.21,0,0,1-6.2-6.1v-.2a6.93,6.93,0,0,1,3.9-6.2,19.58,19.58,0,0,1,5.7-2.1c.9-.2,1.9-.5,3.2-.7q-.9-3.3-3.9-3.3a8.15,8.15,0,0,0-5.1,2.2h-.4L130,27.5v-.3a13.31,13.31,0,0,1,8.3-2.9h.1q5.1,0,7.2,3a6.59,6.59,0,0,1,1.1,2.4,29.34,29.34,0,0,1,.3,4.1v5.6a22.55,22.55,0,0,0,.9,6.9l-.2.3H142l-.2-.2a11,11,0,0,1-.6-2.6,9.45,9.45,0,0,1-6.6,2.7Zm4.8-11.3c-3.4.8-5.1,2.3-5.1,4.2a3.14,3.14,0,0,0,.7,2.1,2.5,2.5,0,0,0,1.8.8,4.11,4.11,0,0,0,4-2.9,7,7,0,0,0,.4-2.9h0V34.8Z"/><path class="c" d="M138.4,24.3h.1c3.3,0,5.7.9,7,2.8a6.14,6.14,0,0,1,1.1,2.3,27.28,27.28,0,0,1,.3,4.1v5.6a20.83,20.83,0,0,0,1,7H142a16.47,16.47,0,0,1-.6-3.2,8.43,8.43,0,0,1-6.7,3.3h-.1a5.85,5.85,0,0,1-5.9-5.9v-.2c0-2.5,1.3-4.5,3.8-6a18,18,0,0,1,5.6-2.1c.9-.2,2.1-.5,3.5-.8-.6-2.5-2-3.8-4.2-3.8a8.26,8.26,0,0,0-5.3,2.3l-1.8-2.6a13,13,0,0,1,8.1-2.8m-1.6,18.2h0a4.54,4.54,0,0,0,4.3-3.1,7.77,7.77,0,0,0,.4-3h0v-2l-2.2.5c-3.5.9-5.3,2.4-5.3,4.5a3.49,3.49,0,0,0,.8,2.2,2.66,2.66,0,0,0,2,.9m1.6-18.7a13.76,13.76,0,0,0-8.5,3l-.1.7,1.8,2.6.8.1a7.57,7.57,0,0,1,5-2.1A3.61,3.61,0,0,1,141,31c-1.2.3-2.2.5-3,.7a19.58,19.58,0,0,0-5.7,2.1c-2.7,1.6-4.1,3.7-4.1,6.4v.2a6.44,6.44,0,0,0,6.4,6.4h.1a9,9,0,0,0,6.3-2.6,16,16,0,0,0,.5,2.1l.5.3h5.9l.5-.6a19.6,19.6,0,0,1-.9-6.8V33.6a29.66,29.66,0,0,0-.3-4.2,5.82,5.82,0,0,0-1.2-2.5c-1.4-2-3.9-3.1-7.4-3.1Zm-1.6,18.7V42a2.36,2.36,0,0,1-1.6-.7,2.64,2.64,0,0,1-.7-1.9c0-1.9,1.6-3.2,4.9-4L141,35v1.4h0a8.63,8.63,0,0,1-.4,2.8,4.23,4.23,0,0,1-3.8,2.8v.5Z"/><path class="b" d="M164.3,46.5l-.3-.3V33.7a8.22,8.22,0,0,0-.6-3.8,3.36,3.36,0,0,0-2.9-1.6h-.3q-3.3,0-4.2,2.7a12.67,12.67,0,0,0-.4,3.4V46.2l-.3.3h-5.6l-.3-.3V24.8l.3-.3h5.6l.3.3V27a9.44,9.44,0,0,1,6.9-2.9c3.4,0,5.7,1.4,6.9,4.1a15.86,15.86,0,0,1,.6,5.7V46.2l-.3.3Z"/><path class="c" d="M162.6,24.3h0c3.3,0,5.6,1.3,6.6,3.9a17.53,17.53,0,0,1,.6,5.6V46.2h-5.5V33.7a7.54,7.54,0,0,0-.7-3.9,3.53,3.53,0,0,0-3.1-1.8h-.3c-2.3,0-3.8,1-4.4,2.9a13.42,13.42,0,0,0-.4,3.5V46.2h-5.6V24.8h5.6v2.8a9.58,9.58,0,0,1,7.2-3.3m0-.5h0a9.71,9.71,0,0,0-6.7,2.6V24.8l-.5-.5h-5.6l-.5.5V46.2l.5.5h5.6l.5-.5V34.4a13.17,13.17,0,0,1,.4-3.4c.6-1.7,1.9-2.5,4-2.5h.3a3,3,0,0,1,2.6,1.5,7.81,7.81,0,0,1,.6,3.7V46.2l.5.5h5.5l.5-.5V33.8a19.1,19.1,0,0,0-.6-5.8v-.1c-1.2-2.7-3.5-4.1-7.1-4.1Z"/><path class="b" d="M182.1,46.5a10.57,10.57,0,0,1-7.7-3.2,11.38,11.38,0,0,1-3.1-8.2,10.48,10.48,0,0,1,3.2-8,11.07,11.07,0,0,1,7.7-3.1h.6a10.84,10.84,0,0,1,10.8,10.6v.5h0a11.41,11.41,0,0,1-3.1,8.1,11,11,0,0,1-7.7,3.2h-.4A.37.37,0,0,1,182.1,46.5Zm.3-18.9a3.89,3.89,0,0,0-2.3.7,4,4,0,0,0-1.3,1.3,9.74,9.74,0,0,0-1.3,5.5,11.74,11.74,0,0,0,1.3,5.8,4.16,4.16,0,0,0,3.5,2h.1a4.33,4.33,0,0,0,3.6-2,9.44,9.44,0,0,0,1.3-5.7,11.13,11.13,0,0,0-1.3-5.7A4.24,4.24,0,0,0,182.4,27.6Z"/><path class="c" d="M182.1,24.3h.6a10.56,10.56,0,0,1,10.6,10.4v.4h0a10.77,10.77,0,0,1-3.1,8,10.6,10.6,0,0,1-7.5,3.1h-.8a11,11,0,0,1-7.6-3.1,10.77,10.77,0,0,1-3.1-8,10.33,10.33,0,0,1,3.1-7.8,12.28,12.28,0,0,1,7.8-3m.3,18.9h.2a4.36,4.36,0,0,0,3.7-2.1,11,11,0,0,0,1.4-5.9h0a10.29,10.29,0,0,0-1.4-5.7,4.67,4.67,0,0,0-3.8-2.1,4.75,4.75,0,0,0-2.5.7,4.67,4.67,0,0,0-1.4,1.4,10.29,10.29,0,0,0-1.4,5.7,11,11,0,0,0,1.4,5.9,4.41,4.41,0,0,0,3.8,2.1m-.3-19.4a11,11,0,0,0-7.9,3.2,10.86,10.86,0,0,0-3.3,8.2A11.11,11.11,0,0,0,182,46.8h.7a10.89,10.89,0,0,0,7.8-3.3,11.54,11.54,0,0,0,3.2-8.3h0v-.5a11.16,11.16,0,0,0-11.1-10.9h-.5Zm.3,18.9a3.74,3.74,0,0,1-3.3-1.9,10.07,10.07,0,0,1-1.3-5.6v-.1a10.28,10.28,0,0,1,1.3-5.4,3.45,3.45,0,0,1,1.2-1.2,4.39,4.39,0,0,1,2.2-.7,4.17,4.17,0,0,1,3.4,1.8,9.24,9.24,0,0,1,1.3,5.4v.1a10.77,10.77,0,0,1-1.3,5.6,3.7,3.7,0,0,1-3.2,1.9h-.1l-.2.1Z"/><path class="b" d="M191.3,27.8c.1-.1,2.1-2.5.2-4.5a2.9,2.9,0,0,1-.5-1.8,2.84,2.84,0,0,1,1-2.2,3.17,3.17,0,0,1,2.3-.9h.2a3.08,3.08,0,0,1,3.2,3.2c0,3.9-5.8,6.4-6.1,6.5Z"/><path class="c" d="M194.5,18.7a3.23,3.23,0,0,1,2.1.8,3.23,3.23,0,0,1,.8,2.1c0,3.8-5.9,6.3-5.9,6.3s2.2-2.6.2-4.9a2.28,2.28,0,0,1-.4-1.6,2.52,2.52,0,0,1,.9-2,3.23,3.23,0,0,1,2.1-.8h0a.31.31,0,0,0,.2.1m0-.5h-.3a3.58,3.58,0,0,0-2.4.9,2.8,2.8,0,0,0-1,2.4,3.2,3.2,0,0,0,.5,1.9v.1c1.7,1.9-.2,4.1-.2,4.2l.6.8c.3-.1,6.2-2.6,6.2-6.8a3.84,3.84,0,0,0-.9-2.5,4,4,0,0,0-2.5-1Z"/><path class="b" d="M202.8,46.5a11.38,11.38,0,0,1-7.1-2.5l-.1-.3,1.8-2.9h.4a6.65,6.65,0,0,0,4.3,2h.2a2.79,2.79,0,0,0,1.8-.6,1.81,1.81,0,0,0,.7-1.7,2.27,2.27,0,0,0-.6-1.6,16.83,16.83,0,0,0-2.9-2.4,24.24,24.24,0,0,1-3.1-2.5,5.37,5.37,0,0,1-1.5-3.8,5.22,5.22,0,0,1,2.1-4.4,8.16,8.16,0,0,1,5-1.7h.3a10.9,10.9,0,0,1,6.1,1.8l.1.3-1.6,2.6-.4.1a6,6,0,0,0-3.4-1.1h0a2.86,2.86,0,0,0-1.7.5,1.61,1.61,0,0,0-.6,1.3c0,.5.5,1.5,2.8,3.2a26,26,0,0,1,4.3,3.8,5.43,5.43,0,0,1,1.2,3.4,5.82,5.82,0,0,1-2.3,4.7,9,9,0,0,1-5.4,1.8Z"/><path class="c" d="M203.9,24.3h.4a11.24,11.24,0,0,1,5.9,1.7l-1.6,2.6a5.71,5.71,0,0,0-3.5-1.2H205a3,3,0,0,0-1.8.6,1.8,1.8,0,0,0-.7,1.5c0,.8,1,2,2.9,3.4a22.12,22.12,0,0,1,4.3,3.8,5,5,0,0,1,1.2,3.3,5.5,5.5,0,0,1-2.2,4.5,9.14,9.14,0,0,1-5.3,1.8h-.5a11.55,11.55,0,0,1-6.9-2.4l1.8-2.9a7.56,7.56,0,0,0,4.5,2.1h.2a3.06,3.06,0,0,0,2-.7,2.09,2.09,0,0,0,.8-1.9,2.41,2.41,0,0,0-.7-1.8,21.72,21.72,0,0,0-2.9-2.4,24.24,24.24,0,0,1-3.1-2.5,5.43,5.43,0,0,1-1.4-3.6,5.31,5.31,0,0,1,2-4.2,7.33,7.33,0,0,1,4.7-1.7m0-.5a8,8,0,0,0-5.1,1.8,5.83,5.83,0,0,0-2.2,4.6,5.52,5.52,0,0,0,1.6,3.9,25.13,25.13,0,0,0,3.1,2.6,21.72,21.72,0,0,1,2.9,2.4,2.39,2.39,0,0,1,.5,1.4A1.8,1.8,0,0,1,204,42a2.45,2.45,0,0,1-1.6.6h-.1a6.41,6.41,0,0,1-4.2-2l-.8.1-1.8,2.9.1.7a11.66,11.66,0,0,0,7.2,2.5h.5a9.45,9.45,0,0,0,5.6-1.9,5.75,5.75,0,0,0,2.4-4.9,5.33,5.33,0,0,0-1.3-3.6,23.22,23.22,0,0,0-4.4-3.9c-2.3-1.7-2.7-2.6-2.7-3a1.61,1.61,0,0,1,.5-1.1,2.46,2.46,0,0,1,1.5-.5h.1a5.17,5.17,0,0,1,3.2,1.1l.7-.1,1.6-2.6-.2-.7a11.23,11.23,0,0,0-6.2-1.8h-.2Z"/><path class="d" d="M212.1,43.9a1.84,1.84,0,0,1,1-1,1.48,1.48,0,0,1,.7-.1,1.7,1.7,0,0,1,.7.1,1.59,1.59,0,0,1,.9.9,2.5,2.5,0,0,1,0,1.4,1.84,1.84,0,0,1-1,1,1.48,1.48,0,0,1-.7.1,1.7,1.7,0,0,1-.7-.1,1.84,1.84,0,0,1-1-1,1.7,1.7,0,0,1-.1-.7A1.42,1.42,0,0,1,212.1,43.9Zm.2,1.2c.1.2.2.3.3.5a2.19,2.19,0,0,0,.5.3,1.85,1.85,0,0,0,1.2,0c.2-.1.3-.2.5-.3a2.19,2.19,0,0,0,.3-.5,1.27,1.27,0,0,0,.1-.6.76.76,0,0,0-.2-.5c-.1-.4-.4-.6-.8-.8a1.27,1.27,0,0,0-.6-.1,1.42,1.42,0,0,0-1.3.9,1.27,1.27,0,0,0-.1.6,4.33,4.33,0,0,0,.1.5Zm1.5-1.6a.75.75,0,0,1,.5.1.76.76,0,0,1,.2.4c0,.2,0,.3-.2.4s-.2.1-.4.1l.6.9h-.3l-.6-.9h-.3v.9H213V43.3h.8Zm-.1.9h.4l.1-.1v-.4l-.1-.1h-.7v.6Z"/><circle class="e" cx="31" cy="31.1" r="28.9"/><circle class="f" cx="31.1" cy="31.1" r="28.9"/><circle class="g" cx="31.1" cy="31.1" r="28.9"/><circle class="h" cx="31.1" cy="31.1" r="28.8"/><circle class="i" cx="31.1" cy="31.1" r="28.8"/><ellipse class="j" cx="31.1" cy="31.1" rx="28.7" ry="28.8"/><circle class="k" cx="31.1" cy="31.1" r="28.7"/><circle class="l" cx="31.1" cy="31.1" r="28.7"/><ellipse class="m" cx="31.1" cy="31.2" rx="28.6" ry="28.7"/><circle class="n" cx="31.1" cy="31.2" r="28.6"/><ellipse class="o" cx="31.1" cy="31.2" rx="28.5" ry="28.6"/><ellipse class="p" cx="31.1" cy="31.2" rx="28.5" ry="28.6"/><circle class="q" cx="31.1" cy="31.2" r="28.5"/><ellipse class="r" cx="31.1" cy="31.2" rx="28.4" ry="28.5"/><ellipse class="s" cx="31.1" cy="31.2" rx="28.4" ry="28.5"/><circle class="t" cx="31.1" cy="31.2" r="28.4"/><ellipse class="u" cx="31.1" cy="31.2" rx="28.3" ry="28.4"/><ellipse class="v" cx="31.1" cy="31.2" rx="28.3" ry="28.4"/><ellipse class="v" cx="31.1" cy="31.2" rx="28.2" ry="28.3"/><ellipse class="w" cx="31.1" cy="31.2" rx="28.2" ry="28.3"/><ellipse class="x" cx="31.1" cy="31.2" rx="28.2" ry="28.3"/><ellipse class="y" cx="31.1" cy="31.2" rx="28.1" ry="28.2"/><ellipse class="z" cx="31.2" cy="31.2" rx="28.1" ry="28.2"/><ellipse class="aa" cx="31.2" cy="31.2" rx="28" ry="28.2"/><ellipse class="ab" cx="31.2" cy="31.2" rx="28" ry="28.1"/><ellipse class="ac" cx="31.2" cy="31.2" rx="28" ry="28.1"/><ellipse class="ad" cx="31.2" cy="31.2" rx="27.9" ry="28.1"/><ellipse class="ae" cx="31.2" cy="31.2" rx="27.9" ry="28"/><ellipse class="af" cx="31.2" cy="31.2" rx="27.8" ry="28"/><ellipse class="ag" cx="31.2" cy="31.2" rx="27.8" ry="28"/><ellipse class="ah" cx="31.2" cy="31.2" rx="27.8" ry="28"/><ellipse class="ai" cx="31.2" cy="31.3" rx="27.7" ry="27.9"/><ellipse class="aj" cx="31.2" cy="31.3" rx="27.7" ry="27.9"/><ellipse class="ak" cx="31.2" cy="31.3" rx="27.7" ry="27.8"/><ellipse class="al" cx="31.2" cy="31.3" rx="27.6" ry="27.8"/><ellipse class="am" cx="31.2" cy="31.3" rx="27.6" ry="27.8"/><ellipse class="an" cx="31.2" cy="31.3" rx="27.5" ry="27.7"/><ellipse class="ao" cx="31.2" cy="31.3" rx="27.5" ry="27.7"/><ellipse class="ap" cx="31.2" cy="31.3" rx="27.5" ry="27.7"/><ellipse class="aq" cx="31.2" cy="31.3" rx="27.4" ry="27.6"/><ellipse class="ar" cx="31.2" cy="31.3" rx="27.4" ry="27.6"/><ellipse class="as" cx="31.2" cy="31.3" rx="27.4" ry="27.6"/><ellipse class="at" cx="31.2" cy="31.3" rx="27.3" ry="27.6"/><ellipse class="au" cx="31.2" cy="31.3" rx="27.3" ry="27.5"/><ellipse class="av" cx="31.2" cy="31.3" rx="27.2" ry="27.5"/><ellipse class="aw" cx="31.2" cy="31.3" rx="27.2" ry="27.5"/><ellipse class="ax" cx="31.3" cy="31.3" rx="27.2" ry="27.4"/><ellipse class="ay" cx="31.3" cy="31.3" rx="27.1" ry="27.4"/><ellipse class="az" cx="31.3" cy="31.3" rx="27.1" ry="27.4"/><ellipse class="ba" cx="31.3" cy="31.3" rx="27" ry="27.3"/><ellipse class="bb" cx="31.3" cy="31.3" rx="27" ry="27.3"/><ellipse class="bc" cx="31.3" cy="31.3" rx="27" ry="27.3"/><ellipse class="bd" cx="31.3" cy="31.3" rx="26.9" ry="27.2"/><ellipse class="be" cx="31.3" cy="31.3" rx="26.9" ry="27.2"/><ellipse class="bf" cx="31.3" cy="31.3" rx="26.8" ry="27.2"/><ellipse class="bg" cx="31.3" cy="31.3" rx="26.8" ry="27.1"/><ellipse class="bh" cx="31.3" cy="31.3" rx="26.8" ry="27.1"/><ellipse class="bi" cx="31.3" cy="31.4" rx="26.7" ry="27.1"/><ellipse class="bj" cx="31.3" cy="31.4" rx="26.7" ry="27"/><ellipse class="bk" cx="31.3" cy="31.4" rx="26.7" ry="27"/><path class="bl" d="M31.3,4.4A27,27,0,1,0,57.9,31.8v-.4a26.8,26.8,0,0,0-26.6-27Z"/><ellipse class="bm" cx="31.3" cy="31.4" rx="26.6" ry="26.9"/><ellipse class="bn" cx="31.3" cy="31.4" rx="26.5" ry="26.9"/><ellipse class="bo" cx="31.3" cy="31.4" rx="26.5" ry="26.9"/><ellipse class="bp" cx="31.3" cy="31.4" rx="26.5" ry="26.8"/><path class="bq" d="M31.3,4.6A26.8,26.8,0,1,0,57.7,31.8v-.4A26.52,26.52,0,0,0,31.3,4.6Z"/><ellipse class="br" cx="31.3" cy="31.4" rx="26.4" ry="26.8"/><ellipse class="bs" cx="31.3" cy="31.4" rx="26.4" ry="26.7"/><ellipse class="bt" cx="31.3" cy="31.4" rx="26.3" ry="26.7"/><ellipse class="bu" cx="31.3" cy="31.4" rx="26.3" ry="26.7"/><ellipse class="bv" cx="31.3" cy="31.4" rx="26.2" ry="26.6"/><path class="bw" d="M31.3,4.8a26.6,26.6,0,1,0,26.2,27v-.4A26.31,26.31,0,0,0,31.3,4.8Z"/><ellipse class="bx" cx="31.4" cy="31.4" rx="26.2" ry="26.6"/><ellipse class="by" cx="31.4" cy="31.4" rx="26.1" ry="26.5"/><ellipse class="bz" cx="31.4" cy="31.4" rx="26.1" ry="26.5"/><ellipse class="ca" cx="31.4" cy="31.4" rx="26" ry="26.5"/><path class="cb" d="M31.4,5a26.45,26.45,0,1,0,26,26.9v-.5A26.23,26.23,0,0,0,31.4,5Z"/><ellipse class="cc" cx="31.4" cy="31.4" rx="26" ry="26.4"/><ellipse class="cd" cx="31.4" cy="31.4" rx="25.9" ry="26.4"/><ellipse class="ce" cx="31.4" cy="31.4" rx="25.9" ry="26.4"/><ellipse class="cf" cx="31.4" cy="31.5" rx="25.9" ry="26.3"/><path class="cg" d="M31.4,5.2A26.25,26.25,0,1,0,57.2,31.9v-.5A26,26,0,0,0,31.4,5.2Z"/><ellipse class="ch" cx="31.4" cy="31.5" rx="25.8" ry="26.2"/><path class="ci" d="M31.4,5.3A26.2,26.2,0,1,0,57.1,32v-.5A25.8,25.8,0,0,0,31.4,5.3Z"/><ellipse class="cj" cx="31.4" cy="31.5" rx="25.7" ry="26.2"/><ellipse class="ck" cx="31.4" cy="31.5" rx="25.7" ry="26.2"/><path class="cl" d="M31.4,5.4a26.1,26.1,0,0,0,0,52.2,26.1,26.1,0,0,0,0-52.2Z"/><path class="cm" d="M31.4,5.4a26.1,26.1,0,0,0,0,52.2,26.1,26.1,0,0,0,0-52.2Z"/><path class="cn" d="M31.4,5.4a26.06,26.06,0,0,0,0,52.1,26.06,26.06,0,0,0,0-52.1Z"/><ellipse class="co" cx="31.4" cy="31.5" rx="25.5" ry="26"/><ellipse class="cp" cx="31.4" cy="31.5" rx="25.5" ry="26"/><ellipse class="cq" cx="31.4" cy="31.5" rx="25.4" ry="25.9"/><path class="cr" d="M31.4,5.6C17.4,5.6,6,17.2,6,31.5S17.4,57.4,31.4,57.4,56.8,45.8,56.8,31.5A25.61,25.61,0,0,0,31.4,5.6Z"/><path class="cs" d="M31.5,5.6c-14,0-25.4,11.6-25.4,25.9S17.5,57.4,31.5,57.4,56.9,45.8,56.9,31.5,45.5,5.6,31.5,5.6Z"/><ellipse class="ct" cx="31.5" cy="31.5" rx="25.3" ry="25.8"/><ellipse class="cu" cx="31.5" cy="31.5" rx="25.3" ry="25.8"/><ellipse class="cv" cx="31.5" cy="31.5" rx="25.2" ry="25.8"/><path class="cw" d="M31.5,5.8C17.6,5.8,6.3,17.3,6.3,31.6S17.6,57.4,31.5,57.4,56.7,45.9,56.7,31.6,45.4,5.8,31.5,5.8Z"/><path class="cx" d="M31.5,5.8A25.46,25.46,0,0,0,6.3,31.5,25.46,25.46,0,0,0,31.5,57.2,25.46,25.46,0,0,0,56.7,31.5,25.46,25.46,0,0,0,31.5,5.8Z"/><path class="cy" d="M31.5,5.8C17.6,5.8,6.4,17.3,6.4,31.5S17.6,57.2,31.5,57.2,56.6,45.7,56.6,31.5,45.3,5.8,31.5,5.8Z"/><path class="cz" d="M31.5,5.9C17.6,5.9,6.4,17.4,6.4,31.6S17.6,57.3,31.5,57.3,56.6,45.8,56.6,31.6,45.3,5.9,31.5,5.9Z"/><path class="da" d="M31.5,5.9c-13.8,0-25,11.5-25,25.6s11.2,25.6,25,25.6,25-11.5,25-25.6S45.3,5.9,31.5,5.9Z"/><path class="db" d="M31.5,6c-13.8,0-25,11.5-25,25.6s11.2,25.6,25,25.6,25-11.5,25-25.6S45.3,6,31.5,6Z"/><path class="dc" d="M31.5,6c-13.8,0-25,11.4-25,25.6s11.2,25.6,25,25.6,25-11.4,25-25.6S45.3,6,31.5,6Z"/><path class="dd" d="M31.5,6C17.7,6,6.6,17.4,6.6,31.5S17.8,57,31.5,57,56.4,45.6,56.4,31.5,45.3,6,31.5,6Z"/><path class="de" d="M31.5,6.1C17.7,6.1,6.6,17.5,6.6,31.6S17.8,57.1,31.5,57.1,56.4,45.7,56.4,31.6,45.3,6.1,31.5,6.1Z"/><path class="df" d="M31.5,6.1C17.8,6.1,6.6,17.5,6.6,31.6A25.14,25.14,0,0,0,31.5,57c13.7,0,24.8-11.4,24.8-25.5S45.2,6.1,31.5,6.1Z"/><path class="dg" d="M31.5,6.1C17.8,6.1,6.7,17.5,6.7,31.5S17.8,57,31.5,57,56.3,45.6,56.3,31.6,45.2,6.1,31.5,6.1Z"/><path class="dh" d="M31.5,6.2C17.8,6.2,6.7,17.6,6.7,31.6S17.8,57,31.5,57,56.3,45.6,56.3,31.6,45.2,6.2,31.5,6.2Z"/><path class="di" d="M31.5,6.2C17.8,6.2,6.8,17.6,6.8,31.6S17.9,57,31.5,57,56.2,45.6,56.2,31.6,45.2,6.2,31.5,6.2Z"/><path class="dj" d="M31.5,6.3C17.9,6.3,6.8,17.6,6.8,31.6S17.9,56.9,31.5,56.9,56.2,45.6,56.2,31.6,45.2,6.3,31.5,6.3Z"/><path class="dk" d="M31.5,6.3C17.9,6.3,6.8,17.6,6.8,31.6s11,25.3,24.7,25.3S56.2,45.6,56.2,31.6,45.2,6.3,31.5,6.3Z"/><path class="dl" d="M31.5,6.3C17.9,6.3,6.9,17.6,6.9,31.6s11,25.3,24.6,25.3S56.1,45.6,56.1,31.6,45.1,6.3,31.5,6.3Z"/><path class="dm" d="M31.5,6.4C17.9,6.4,6.9,17.7,6.9,31.6s11,25.2,24.6,25.2S56.1,45.5,56.1,31.6,45.1,6.4,31.5,6.4Z"/><path class="dn" d="M31.5,6.4C18,6.4,7,17.7,7,31.6S18,56.8,31.5,56.8,56,45.5,56,31.6,45.1,6.4,31.5,6.4Z"/><path class="do" d="M31.5,6.4C18,6.4,7,17.7,7,31.6S18,56.8,31.5,56.8,56,45.5,56,31.6,45.1,6.4,31.5,6.4Z"/><path class="dp" d="M31.5,6.5C18,6.5,7,17.8,7,31.6S18,56.7,31.5,56.7,56,45.5,56,31.6,45.1,6.5,31.5,6.5Z"/><ellipse class="dq" cx="31.5" cy="31.6" rx="24.4" ry="25.1"/><ellipse class="dr" cx="31.6" cy="31.6" rx="24.4" ry="25.1"/><circle class="dr" cx="31" cy="31.1" r="22.8"/><circle class="dr" cx="31" cy="31.9" r="20.9"/><circle class="dr" cx="31" cy="32.6" r="19.1"/><ellipse class="dr" cx="31" cy="26.1" rx="23.8" ry="19.6"/><ellipse class="ds" cx="31" cy="26.1" rx="23.7" ry="19.6"/><ellipse class="dt" cx="31" cy="26.1" rx="23.6" ry="19.5"/><ellipse class="du" cx="31" cy="26.2" rx="23.5" ry="19.5"/><ellipse class="dv" cx="31" cy="26.2" rx="23.4" ry="19.5"/><ellipse class="dw" cx="31" cy="26.2" rx="23.3" ry="19.5"/><path class="dx" d="M54.3,26.2c0-10.7-10.4-19.4-23.2-19.4S7.9,15.5,7.9,26.2,18.3,45.6,31.1,45.6,54.3,37,54.3,26.2Z"/><path class="b" d="M41.9,17.3a17.75,17.75,0,0,0-8.4-2.4c-4.4,0-6.8,2-6.8,4.4,0,2.8,3.6,4.8,9.7,8.7,7,4.5,10.7,8,10.7,13.1s-6.2,11.4-18,11.4c-5.4,0-11.4-1.3-15.3-4.2l3.8-4.8c2.8,1.6,5.9,3.3,10.6,3.3,4.3,0,8.1-1.9,8.1-5.8,0-4.6-7-7.6-11.2-10.3-5-3.3-9.3-5.8-9.3-11.4S22.9,9.1,32.3,9.1c5.9,0,10.7,1.7,13.2,3.6Z"/><path class="dy" d="M31,59.6A28.6,28.6,0,1,1,59.6,31,28.59,28.59,0,0,1,31,59.6ZM31,.5A30.5,30.5,0,1,0,61.5,31h0A30.37,30.37,0,0,0,31,.5Z"/><path class="dz" d="M31,59.6A28.6,28.6,0,1,1,59.6,31,28.59,28.59,0,0,1,31,59.6ZM31,.5A30.5,30.5,0,1,0,61.5,31h0A30.43,30.43,0,0,0,31,.5Z"/><path class="ea" d="M31,59.6A28.6,28.6,0,1,1,59.6,31,28.59,28.59,0,0,1,31,59.6ZM31,.5A30.5,30.5,0,1,0,61.5,31,30.56,30.56,0,0,0,31,.5Z"/><path class="eb" d="M31,59.6A28.6,28.6,0,1,1,59.6,31,28.59,28.59,0,0,1,31,59.6ZM31,.5A30.5,30.5,0,1,0,61.5,31,30.56,30.56,0,0,0,31,.5Z"/><path class="ec" d="M31,59.6A28.6,28.6,0,1,1,59.6,31,28.59,28.59,0,0,1,31,59.6ZM31,.5A30.5,30.5,0,1,0,61.5,31,30.56,30.56,0,0,0,31,.5Z"/><path class="a" d="M31,59.6A28.6,28.6,0,1,1,59.6,31,28.59,28.59,0,0,1,31,59.6ZM31,.5A30.5,30.5,0,1,0,61.5,31,30.56,30.56,0,0,0,31,.5Z"/><path class="ed" d="M31,59.6A28.6,28.6,0,1,1,59.6,31,28.59,28.59,0,0,1,31,59.6ZM31,.5A30.5,30.5,0,1,0,61.5,31,30.56,30.56,0,0,0,31,.5Z"/><path class="ee" d="M31,59.6A28.65,28.65,0,1,1,59.6,30.9h0A28.49,28.49,0,0,1,31,59.6ZM31,.5A30.5,30.5,0,1,0,61.5,31,30.56,30.56,0,0,0,31,.5Z"/><path class="ef" d="M31,59.6A28.65,28.65,0,1,1,59.6,30.9h0A28.49,28.49,0,0,1,31,59.6ZM31,.5A30.5,30.5,0,1,0,61.5,31,30.56,30.56,0,0,0,31,.5Z"/><path class="eg" d="M31,59.6A28.65,28.65,0,1,1,59.6,30.9h0A28.49,28.49,0,0,1,31,59.6ZM31,.5A30.5,30.5,0,1,0,61.5,31,30.56,30.56,0,0,0,31,.5Z"/><path class="eh" d="M31,59.6A28.65,28.65,0,1,1,59.7,31,28.62,28.62,0,0,1,31,59.6ZM31,.5A30.5,30.5,0,1,0,61.5,31,30.56,30.56,0,0,0,31,.5Z"/><path class="ei" d="M31,59.7A28.7,28.7,0,1,1,59.7,31,28.7,28.7,0,0,1,31,59.7ZM31,.5A30.5,30.5,0,1,0,61.5,31,30.56,30.56,0,0,0,31,.5Z"/><path class="ej" d="M31,59.7A28.7,28.7,0,1,1,59.7,31,28.7,28.7,0,0,1,31,59.7ZM31,.5A30.5,30.5,0,1,0,61.5,31h0A30.49,30.49,0,0,0,31,.5Z"/><path class="ek" d="M31,59.7A28.7,28.7,0,1,1,59.7,31,28.7,28.7,0,0,1,31,59.7ZM31,.5A30.5,30.5,0,1,0,61.5,31h0A30.49,30.49,0,0,0,31,.5Z"/><path class="el" d="M31,59.7A28.65,28.65,0,1,1,59.7,31.1,28.55,28.55,0,0,1,31,59.7ZM31,.5A30.5,30.5,0,1,0,61.5,31h0A30.49,30.49,0,0,0,31,.5Z"/><path class="em" d="M31,59.7A28.7,28.7,0,1,1,59.7,31h0A28.7,28.7,0,0,1,31,59.7ZM31,.5A30.5,30.5,0,1,0,61.5,31,30.56,30.56,0,0,0,31,.5Z"/><path class="en" d="M31,59.7A28.7,28.7,0,1,1,59.7,31h0A28.7,28.7,0,0,1,31,59.7ZM31,.5A30.5,30.5,0,1,0,61.5,31,30.49,30.49,0,0,0,31,.5Z"/><path class="eo" d="M31,59.7A28.7,28.7,0,1,1,59.7,31h0A28.7,28.7,0,0,1,31,59.7ZM31,.5A30.5,30.5,0,1,0,61.5,31,30.49,30.49,0,0,0,31,.5Z"/><path class="ep" d="M31,59.7A28.7,28.7,0,1,1,59.7,31,28.7,28.7,0,0,1,31,59.7ZM31,.5A30.5,30.5,0,1,0,61.5,31,30.49,30.49,0,0,0,31,.5Z"/><path class="eq" d="M31,59.7A28.7,28.7,0,1,1,59.7,31h0A28.7,28.7,0,0,1,31,59.7ZM31,.5A30.5,30.5,0,1,0,61.5,31h0A30.49,30.49,0,0,0,31,.5Z"/><path class="er" d="M31,59.7A28.7,28.7,0,1,1,59.7,31h0A28.7,28.7,0,0,1,31,59.7ZM31,.5A30.5,30.5,0,1,0,61.6,31,30.34,30.34,0,0,0,31,.5Z"/><path class="es" d="M31,59.7A28.7,28.7,0,1,1,59.7,31h0A28.7,28.7,0,0,1,31,59.7ZM31,.5A30.5,30.5,0,1,0,61.5,31,30.49,30.49,0,0,0,31,.5Z"/><path class="et" d="M31,59.7A28.7,28.7,0,1,1,59.7,31,28.76,28.76,0,0,1,31,59.7ZM31,.5A30.5,30.5,0,1,0,61.5,31,30.49,30.49,0,0,0,31,.5Z"/><path class="eu" d="M31,59.7A28.7,28.7,0,1,1,59.7,31h0A28.7,28.7,0,0,1,31,59.7ZM31,.5A30.5,30.5,0,1,0,61.5,31,30.49,30.49,0,0,0,31,.5Z"/><path class="ev" d="M31,59.7A28.7,28.7,0,1,1,59.7,31h0A28.7,28.7,0,0,1,31,59.7ZM31,.5A30.5,30.5,0,1,0,61.5,31,30.49,30.49,0,0,0,31,.5Z"/><path class="ew" d="M31,59.7A28.7,28.7,0,1,1,59.7,31h0A28.7,28.7,0,0,1,31,59.7ZM31,.5A30.45,30.45,0,1,0,61.5,31,30.41,30.41,0,0,0,31,.5Z"/><path class="ex" d="M31,59.7A28.7,28.7,0,1,1,59.7,31h0A28.57,28.57,0,0,1,31,59.7ZM31,.5A30.45,30.45,0,1,0,61.5,31,30.49,30.49,0,0,0,31,.5Z"/><path class="ey" d="M31,59.7A28.7,28.7,0,1,1,59.7,31h0A28.57,28.57,0,0,1,31,59.7ZM31,.5A30.45,30.45,0,1,0,61.5,31,30.49,30.49,0,0,0,31,.5Z"/><path class="ez" d="M31,59.7A28.7,28.7,0,1,1,59.7,31h0A28.57,28.57,0,0,1,31,59.7ZM31,.5A30.45,30.45,0,1,0,61.5,31,30.49,30.49,0,0,0,31,.5Z"/><path class="fa" d="M31,59.7A28.7,28.7,0,1,1,59.7,31h0A28.57,28.57,0,0,1,31,59.7ZM31,.5A30.45,30.45,0,1,0,61.5,31,30.41,30.41,0,0,0,31,.5Z"/><path class="fb" d="M31,59.7A28.7,28.7,0,1,1,59.7,31h0A28.57,28.57,0,0,1,31,59.7ZM31,.5A30.4,30.4,0,1,0,61.4,30.9,30.39,30.39,0,0,0,31,.5Z"/><path class="fc" d="M31,59.7A28.7,28.7,0,1,1,59.7,31,28.7,28.7,0,0,1,31,59.7ZM31,.6A30.4,30.4,0,1,0,61.4,31h0A30.26,30.26,0,0,0,31,.6Z"/><path class="fd" d="M31,59.7A28.7,28.7,0,1,1,59.7,31,28.7,28.7,0,0,1,31,59.7ZM31,.6A30.4,30.4,0,1,0,61.4,31h0A30.26,30.26,0,0,0,31,.6Z"/><path class="fe" d="M31,59.7A28.7,28.7,0,1,1,59.7,31,28.7,28.7,0,0,1,31,59.7ZM31,.6A30.4,30.4,0,1,0,61.4,31h0A30.26,30.26,0,0,0,31,.6Z"/><path class="ff" d="M31,59.7A28.7,28.7,0,1,1,59.7,31h0A28.57,28.57,0,0,1,31,59.7ZM31,.6A30.4,30.4,0,1,0,61.4,31,30.39,30.39,0,0,0,31,.6Z"/><path class="fg" d="M31,59.7A28.7,28.7,0,1,1,59.7,31h0A28.57,28.57,0,0,1,31,59.7ZM31,.6A30.4,30.4,0,1,0,61.4,31,30.39,30.39,0,0,0,31,.6Z"/><path class="fh" d="M31,59.7A28.7,28.7,0,1,1,59.7,31h0A28.57,28.57,0,0,1,31,59.7ZM31,.6A30.4,30.4,0,1,0,61.4,31,30.39,30.39,0,0,0,31,.6Z"/><path class="fi" d="M31,59.7A28.7,28.7,0,1,1,59.7,31h0A28.57,28.57,0,0,1,31,59.7ZM31,.6A30.4,30.4,0,1,0,61.4,31,30.39,30.39,0,0,0,31,.6Z"/><path class="fj" d="M31,59.7A28.7,28.7,0,1,1,59.7,31h0A28.57,28.57,0,0,1,31,59.7ZM31,.6A30.4,30.4,0,1,0,61.4,31h0A30.26,30.26,0,0,0,31,.6Z"/><path class="fk" d="M31,59.7A28.7,28.7,0,1,1,59.7,31h0A28.57,28.57,0,0,1,31,59.7ZM31,.6A30.4,30.4,0,1,0,61.4,31,30.39,30.39,0,0,0,31,.6Z"/><path class="fl" d="M31,59.7A28.7,28.7,0,1,1,59.7,31h0A28.57,28.57,0,0,1,31,59.7ZM31,.6A30.4,30.4,0,1,0,61.4,31,30.39,30.39,0,0,0,31,.6Z"/><path class="fm" d="M31,59.7A28.7,28.7,0,1,1,59.7,31h0A28.57,28.57,0,0,1,31,59.7ZM31,.6A30.4,30.4,0,1,0,61.4,31,30.39,30.39,0,0,0,31,.6Z"/><path class="fn" d="M31,59.7A28.7,28.7,0,1,1,59.7,31,28.7,28.7,0,0,1,31,59.7ZM31,.6A30.4,30.4,0,1,0,61.4,31h0A30.26,30.26,0,0,0,31,.6Z"/><path class="fo" d="M31,59.7A28.7,28.7,0,1,1,59.7,31,28.7,28.7,0,0,1,31,59.7ZM31,.6A30.4,30.4,0,1,0,61.4,31,30.39,30.39,0,0,0,31,.6Z"/><path class="fp" d="M31,59.7A28.7,28.7,0,1,1,59.7,31,28.7,28.7,0,0,1,31,59.7ZM31,.6A30.4,30.4,0,1,0,61.4,31h0A30.32,30.32,0,0,0,31,.6Z"/><path class="fq" d="M31,59.7A28.7,28.7,0,1,1,59.7,31,28.7,28.7,0,0,1,31,59.7ZM31,.6A30.4,30.4,0,1,0,61.4,31h0A30.32,30.32,0,0,0,31,.6Z"/><path class="fr" d="M31,59.8A28.8,28.8,0,1,1,59.8,31,28.72,28.72,0,0,1,31,59.8ZM31,.6A30.4,30.4,0,1,0,61.4,31h0A30.32,30.32,0,0,0,31,.6Z"/><path class="fs" d="M31,59.8A28.8,28.8,0,1,1,59.8,31,28.72,28.72,0,0,1,31,59.8ZM31,.6A30.4,30.4,0,1,0,61.4,31h0A30.32,30.32,0,0,0,31,.6Z"/><path class="ft" d="M31,59.8A28.8,28.8,0,1,1,59.8,31,28.72,28.72,0,0,1,31,59.8ZM31,.6A30.4,30.4,0,1,0,61.4,31,30.39,30.39,0,0,0,31,.6Z"/><path class="fu" d="M31,59.8A28.8,28.8,0,1,1,59.8,31,28.72,28.72,0,0,1,31,59.8ZM31,.6A30.4,30.4,0,1,0,61.4,31,30.39,30.39,0,0,0,31,.6Z"/><path class="fv" d="M31,59.8A28.8,28.8,0,1,1,59.8,31h0A28.81,28.81,0,0,1,31,59.8ZM31,.6A30.4,30.4,0,1,0,61.4,31,30.39,30.39,0,0,0,31,.6Z"/><path class="c" d="M31,59.8A28.8,28.8,0,1,1,59.8,31h0A28.81,28.81,0,0,1,31,59.8ZM31,.6A30.4,30.4,0,1,0,61.4,31,30.39,30.39,0,0,0,31,.6Z"/><path class="fw" d="M31,59.8A28.8,28.8,0,1,1,59.8,31h0A28.81,28.81,0,0,1,31,59.8ZM31,.6A30.4,30.4,0,1,0,61.4,31,30.39,30.39,0,0,0,31,.6Z"/><path class="fx" d="M31,59.8A28.8,28.8,0,1,1,59.9,31,29,29,0,0,1,31,59.8ZM31,.6A30.4,30.4,0,1,0,61.4,31,30.39,30.39,0,0,0,31,.6Z"/><path class="fy" d="M31,59.8A28.8,28.8,0,1,1,59.8,31,28.81,28.81,0,0,1,31,59.8ZM31,.6A30.4,30.4,0,1,0,61.4,31,30.39,30.39,0,0,0,31,.6Z"/><path class="fz" d="M31,59.8A28.8,28.8,0,1,1,59.8,31,28.81,28.81,0,0,1,31,59.8ZM31,.6A30.4,30.4,0,1,0,61.4,31,30.39,30.39,0,0,0,31,.6Z"/><path class="ga" d="M31,59.8A28.8,28.8,0,1,1,59.8,31,28.81,28.81,0,0,1,31,59.8ZM31,.6A30.4,30.4,0,1,0,61.4,31,30.39,30.39,0,0,0,31,.6Z"/><path class="gb" d="M31,59.8A28.8,28.8,0,1,1,59.8,31,28.81,28.81,0,0,1,31,59.8ZM31,.6A30.4,30.4,0,1,0,61.4,31,30.39,30.39,0,0,0,31,.6Z"/><path class="gc" d="M31,59.8A28.8,28.8,0,1,1,59.8,31h0A28.81,28.81,0,0,1,31,59.8ZM31,.6A30.4,30.4,0,1,0,61.4,31,30.39,30.39,0,0,0,31,.6Z"/><path class="gd" d="M31,59.8A28.8,28.8,0,1,1,59.8,31h0A28.81,28.81,0,0,1,31,59.8ZM31,.6A30.4,30.4,0,1,0,61.4,31,30.39,30.39,0,0,0,31,.6Z"/><path class="ge" d="M31,59.8A28.8,28.8,0,1,1,59.8,31h0A28.81,28.81,0,0,1,31,59.8ZM31,.6A30.4,30.4,0,1,0,61.4,31,30.39,30.39,0,0,0,31,.6Z"/><path class="gf" d="M31,59.8A28.8,28.8,0,1,1,59.8,31,28.81,28.81,0,0,1,31,59.8ZM31,.6A30.4,30.4,0,1,0,61.4,31,30.39,30.39,0,0,0,31,.6Z"/><path class="gg" d="M31,59.8A28.8,28.8,0,1,1,59.8,31h0A28.74,28.74,0,0,1,31,59.8ZM31,.6A30.4,30.4,0,1,0,61.4,31,30.39,30.39,0,0,0,31,.6Z"/><path class="gh" d="M31,59.8A28.8,28.8,0,1,1,59.8,31h0A28.74,28.74,0,0,1,31,59.8ZM31,.6A30.4,30.4,0,1,0,61.4,31,30.39,30.39,0,0,0,31,.6Z"/><path class="gi" d="M31,59.8A28.8,28.8,0,1,1,59.8,31h0A28.74,28.74,0,0,1,31,59.8ZM31,.6A30.4,30.4,0,1,0,61.4,31,30.39,30.39,0,0,0,31,.6Z"/><path class="gj" d="M31,59.8A28.8,28.8,0,1,1,59.8,31,28.81,28.81,0,0,1,31,59.8ZM31,.6A30.4,30.4,0,1,0,61.4,31,30.39,30.39,0,0,0,31,.6Z"/><path class="gk" d="M31,59.8A28.8,28.8,0,1,1,59.8,31,28.81,28.81,0,0,1,31,59.8ZM31,.6A30.4,30.4,0,1,0,61.4,31,30.39,30.39,0,0,0,31,.6Z"/><path class="gl" d="M31,59.8A28.8,28.8,0,1,1,59.8,31,28.81,28.81,0,0,1,31,59.8ZM31,.6A30.4,30.4,0,1,0,61.4,31,30.39,30.39,0,0,0,31,.6Z"/><path class="gm" d="M31,59.8A28.8,28.8,0,1,1,59.8,31,28.81,28.81,0,0,1,31,59.8ZM31,.6A30.4,30.4,0,1,0,61.4,31,30.39,30.39,0,0,0,31,.6Z"/><path class="gn" d="M31,59.8A28.8,28.8,0,1,1,59.8,31,28.81,28.81,0,0,1,31,59.8ZM31,.6A30.4,30.4,0,1,0,61.4,31,30.39,30.39,0,0,0,31,.6Z"/><path class="go" d="M31,59.8A28.8,28.8,0,1,1,59.8,31,28.81,28.81,0,0,1,31,59.8ZM31,.6A30.4,30.4,0,1,0,61.4,31h0A30.39,30.39,0,0,0,31,.6Z"/><path class="gp" d="M31,59.8A28.8,28.8,0,1,1,59.8,31,28.81,28.81,0,0,1,31,59.8ZM31,.6A30.35,30.35,0,1,0,61.4,31,30.3,30.3,0,0,0,31,.6Z"/><path class="gq" d="M31,59.8A28.8,28.8,0,1,1,59.8,31,28.81,28.81,0,0,1,31,59.8ZM31,.6A30.3,30.3,0,1,0,61.4,30.9,30.28,30.28,0,0,0,31,.6Z"/><path class="gr" d="M31,59.8A28.8,28.8,0,1,1,59.8,31,28.81,28.81,0,0,1,31,59.8ZM31,.6A30.3,30.3,0,1,0,61.4,30.9,30.28,30.28,0,0,0,31,.6Z"/><path class="gs" d="M31,59.8A28.8,28.8,0,1,1,59.8,31,28.81,28.81,0,0,1,31,59.8ZM31,.7A30.3,30.3,0,1,0,61.4,31h0A30.3,30.3,0,0,0,31,.7Z"/><path class="gt" d="M31,59.8A28.8,28.8,0,1,1,59.8,31,28.81,28.81,0,0,1,31,59.8ZM31,.7A30.3,30.3,0,1,0,61.4,31h0A30.3,30.3,0,0,0,31,.7Z"/><path class="gu" d="M31,59.8A28.8,28.8,0,1,1,59.8,31,28.81,28.81,0,0,1,31,59.8ZM31,.7A30.3,30.3,0,1,0,61.3,31h0A30.15,30.15,0,0,0,31,.7Z"/><path class="gv" d="M31,59.8A28.8,28.8,0,1,1,59.8,31,28.81,28.81,0,0,1,31,59.8ZM31,.7A30.3,30.3,0,1,0,61.3,31,30.28,30.28,0,0,0,31,.7Z"/><path class="gw" d="M31,59.8A28.8,28.8,0,1,1,59.8,31,28.81,28.81,0,0,1,31,59.8ZM31,.7A30.3,30.3,0,1,0,61.3,31h0A30.15,30.15,0,0,0,31,.7Z"/><path class="gx" d="M31,59.8A28.8,28.8,0,1,1,59.8,31,28.81,28.81,0,0,1,31,59.8ZM31,.7A30.3,30.3,0,1,0,61.3,31h0A30.15,30.15,0,0,0,31,.7Z"/><path class="gy" d="M31,59.8A28.8,28.8,0,1,1,59.8,31,28.81,28.81,0,0,1,31,59.8ZM31,.7A30.3,30.3,0,1,0,61.3,31,30.28,30.28,0,0,0,31,.7Z"/><path class="gz" d="M31,59.8A28.8,28.8,0,1,1,59.8,31h0A28.68,28.68,0,0,1,31,59.8ZM31,.7A30.3,30.3,0,1,0,61.3,31,30.28,30.28,0,0,0,31,.7Z"/><path class="ha" d="M31,59.8A28.8,28.8,0,1,1,59.8,31h0A28.68,28.68,0,0,1,31,59.8ZM31,.7A30.3,30.3,0,1,0,61.3,31,30.28,30.28,0,0,0,31,.7Z"/><path class="hb" d="M31,59.8A28.8,28.8,0,1,1,59.8,31h0A28.68,28.68,0,0,1,31,59.8ZM31,.7A30.3,30.3,0,1,0,61.3,31,30.28,30.28,0,0,0,31,.7Z"/><path class="hc" d="M31,59.8A28.8,28.8,0,1,1,59.8,31h0A28.68,28.68,0,0,1,31,59.8ZM31,.7A30.3,30.3,0,1,0,61.3,31,30.28,30.28,0,0,0,31,.7Z"/><path class="hd" d="M31,59.8A28.85,28.85,0,1,1,59.9,30.9h0A28.85,28.85,0,0,1,31,59.8ZM31,.7A30.3,30.3,0,1,0,61.3,31,30.34,30.34,0,0,0,31,.7Z"/><path class="hd" d="M31,59.9A28.85,28.85,0,1,1,59.9,31,28.77,28.77,0,0,1,31,59.9ZM31,.7A30.3,30.3,0,1,0,61.3,31h0A30.22,30.22,0,0,0,31,.7Z"/><path class="he" d="M31,59.9A28.85,28.85,0,1,1,59.9,31,28.77,28.77,0,0,1,31,59.9ZM31,.7A30.3,30.3,0,1,0,61.3,31h0A30.22,30.22,0,0,0,31,.7Z"/><path class="hf" d="M31,59.9A28.85,28.85,0,1,1,59.9,31,28.77,28.77,0,0,1,31,59.9ZM31,.7A30.3,30.3,0,1,0,61.3,31h0A30.22,30.22,0,0,0,31,.7Z"/><path class="hg" d="M31,59.9A28.9,28.9,0,1,1,59.9,31,28.91,28.91,0,0,1,31,59.9ZM31,.7A30.3,30.3,0,1,0,61.3,31,30.34,30.34,0,0,0,31,.7Z"/><path class="hh" d="M31,59.9A28.9,28.9,0,1,1,59.9,31,28.91,28.91,0,0,1,31,59.9ZM31,.7A30.3,30.3,0,1,0,61.3,31,30.34,30.34,0,0,0,31,.7Z"/><path class="hi" d="M31,59.9A28.9,28.9,0,1,1,59.9,31,28.91,28.91,0,0,1,31,59.9ZM31,.7A30.3,30.3,0,1,0,61.3,31,30.34,30.34,0,0,0,31,.7Z"/><path class="hj" d="M31,59.9A28.9,28.9,0,1,1,59.9,31,28.91,28.91,0,0,1,31,59.9ZM31,.7A30.3,30.3,0,1,0,61.3,31,30.34,30.34,0,0,0,31,.7Z"/><path class="hk" d="M31,59.9A28.9,28.9,0,1,1,59.9,31h0A28.91,28.91,0,0,1,31,59.9ZM31,.7A30.3,30.3,0,1,0,61.3,31h0A30.22,30.22,0,0,0,31,.7Z"/><path class="hl" d="M31,59.9A28.9,28.9,0,1,1,59.9,31h0A28.91,28.91,0,0,1,31,59.9ZM31,.7A30.3,30.3,0,1,0,61.3,31,30.34,30.34,0,0,0,31,.7Z"/><path class="hm" d="M31,59.9A28.9,28.9,0,1,1,59.9,31h0A28.91,28.91,0,0,1,31,59.9ZM31,.7A30.3,30.3,0,1,0,61.3,31,30.34,30.34,0,0,0,31,.7Z"/><path class="hn" d="M31,59.9A28.9,28.9,0,1,1,59.9,31h0A28.91,28.91,0,0,1,31,59.9ZM31,.7A30.3,30.3,0,1,0,61.3,31,30.34,30.34,0,0,0,31,.7Z"/><path class="ho" d="M31,59.9A28.9,28.9,0,1,1,59.9,31,28.91,28.91,0,0,1,31,59.9ZM31,.7A30.3,30.3,0,1,0,61.3,31h0A30.28,30.28,0,0,0,31,.7Z"/><path class="hp" d="M31,59.9A28.9,28.9,0,1,1,59.9,31,28.91,28.91,0,0,1,31,59.9ZM31,.7A30.3,30.3,0,1,0,61.3,31h0A30.22,30.22,0,0,0,31,.7Z"/><path class="hq" d="M31,59.9A28.9,28.9,0,1,1,59.9,31,28.91,28.91,0,0,1,31,59.9ZM31,.7A30.3,30.3,0,1,0,61.3,31h0A30.28,30.28,0,0,0,31,.7Z"/><path class="hr" d="M31,59.9A28.9,28.9,0,1,1,59.9,31,28.91,28.91,0,0,1,31,59.9ZM31,.7A30.3,30.3,0,1,0,61.3,31h0A30.28,30.28,0,0,0,31,.7Z"/><path class="hs" d="M31,59.9A28.9,28.9,0,1,1,59.9,31,28.85,28.85,0,0,1,31,59.9ZM31,.7A30.3,30.3,0,1,0,61.3,31h0A30.28,30.28,0,0,0,31,.7Z"/><path class="ht" d="M31,59.9A28.9,28.9,0,1,1,59.9,31,28.85,28.85,0,0,1,31,59.9ZM31,.7A30.3,30.3,0,1,0,61.3,31h0A30.28,30.28,0,0,0,31,.7Z"/><path class="hu" d="M31,59.9A28.9,28.9,0,1,1,59.9,31,28.85,28.85,0,0,1,31,59.9ZM31,.7A30.3,30.3,0,1,0,61.3,31,30.34,30.34,0,0,0,31,.7Z"/><path class="hv" d="M31,59.9A28.9,28.9,0,1,1,59.9,31,28.85,28.85,0,0,1,31,59.9ZM31,.7A30.3,30.3,0,1,0,61.3,31,30.34,30.34,0,0,0,31,.7Z"/><path class="hw" d="M31,59.9A28.9,28.9,0,1,1,59.9,31h0A28.85,28.85,0,0,1,31,59.9ZM31,.7A30.3,30.3,0,1,0,61.3,31,30.34,30.34,0,0,0,31,.7Z"/><path class="hx" d="M31,59.9A28.85,28.85,0,1,1,59.9,31.1,28.77,28.77,0,0,1,31,59.9ZM31,.7A30.3,30.3,0,1,0,61.3,31,30.34,30.34,0,0,0,31,.7Z"/><path class="hy" d="M31,59.9A28.85,28.85,0,1,1,59.9,31.1,28.77,28.77,0,0,1,31,59.9ZM31,.7A30.3,30.3,0,1,0,61.3,31,30.34,30.34,0,0,0,31,.7Z"/><path class="hz" d="M31,59.9A28.85,28.85,0,1,1,59.9,31.1,28.77,28.77,0,0,1,31,59.9ZM31,.7A30.3,30.3,0,1,0,61.3,31,30.34,30.34,0,0,0,31,.7Z"/><path class="ia" d="M31,59.9A28.9,28.9,0,1,1,59.9,31,28.91,28.91,0,0,1,31,59.9ZM31,.7A30.3,30.3,0,1,0,61.3,31h0A30.28,30.28,0,0,0,31,.7Z"/><path class="ib" d="M31,59.9A28.9,28.9,0,1,1,59.9,31,28.91,28.91,0,0,1,31,59.9ZM31,.7A30.3,30.3,0,1,0,61.3,31h0A30.28,30.28,0,0,0,31,.7Z"/><path class="ic" d="M31,59.9A28.9,28.9,0,1,1,59.9,31,28.91,28.91,0,0,1,31,59.9ZM31,.7A30.3,30.3,0,1,0,61.3,31h0A30.28,30.28,0,0,0,31,.7Z"/><path class="id" d="M31,59.9A28.9,28.9,0,1,1,59.9,31,28.91,28.91,0,0,1,31,59.9ZM31,.7A30.3,30.3,0,1,0,61.3,31h0A30.28,30.28,0,0,0,31,.7Z"/><path class="ie" d="M31,59.9A28.9,28.9,0,1,1,59.9,31,28.91,28.91,0,0,1,31,59.9ZM31,.7A30.3,30.3,0,1,0,61.3,31,30.28,30.28,0,0,0,31,.7Z"/><path class="if" d="M31,59.9A28.9,28.9,0,1,1,59.9,31,28.91,28.91,0,0,1,31,59.9ZM31,.7A30.3,30.3,0,1,0,61.3,31,30.28,30.28,0,0,0,31,.7Z"/><path class="ig" d="M31,59.9A28.9,28.9,0,1,1,59.9,31,28.91,28.91,0,0,1,31,59.9ZM31,.7A30.3,30.3,0,1,0,61.3,31,30.28,30.28,0,0,0,31,.7Z"/><path class="ih" d="M31,59.9A28.9,28.9,0,1,1,59.9,31,28.91,28.91,0,0,1,31,59.9ZM31,.7A30.3,30.3,0,1,0,61.3,31,30.28,30.28,0,0,0,31,.7Z"/><path class="ii" d="M31,59.9A28.9,28.9,0,1,1,59.9,31,28.91,28.91,0,0,1,31,59.9ZM31,.7A30.25,30.25,0,1,0,61.3,31,30.26,30.26,0,0,0,31,.7Z"/><path class="ij" d="M31,59.9A28.9,28.9,0,1,1,59.9,31,28.91,28.91,0,0,1,31,59.9ZM31,.7A30.25,30.25,0,1,0,61.4,31,30.19,30.19,0,0,0,31,.7C31.1.8,31,.8,31,.7Z"/><path class="ik" d="M31,59.9A28.9,28.9,0,1,1,59.9,31,28.91,28.91,0,0,1,31,59.9ZM31,.7A30.25,30.25,0,1,0,61.4,31,30.19,30.19,0,0,0,31,.7C31.1.8,31,.8,31,.7Z"/><path class="il" d="M31,59.9A28.9,28.9,0,1,1,59.9,31,28.91,28.91,0,0,1,31,59.9ZM31,.7A30.25,30.25,0,1,0,61.4,31,30.19,30.19,0,0,0,31,.7C31.1.8,31,.8,31,.7Z"/><path class="im" d="M31,59.9A28.9,28.9,0,1,1,60,31,28.91,28.91,0,0,1,31,59.9ZM31,.8A30.25,30.25,0,1,0,61.3,31.1h0A30.22,30.22,0,0,0,31,.8Z"/><path class="in" d="M31,59.9A28.9,28.9,0,1,1,60,31,28.91,28.91,0,0,1,31,59.9ZM31,.8A30.25,30.25,0,1,0,61.3,31.1,30.19,30.19,0,0,0,31,.8Z"/><path class="io" d="M31,59.9A28.9,28.9,0,1,1,60,31,28.91,28.91,0,0,1,31,59.9ZM31,.8A30.2,30.2,0,1,0,61.2,31,30.17,30.17,0,0,0,31,.8Z"/><path class="ip" d="M31,59.9A28.9,28.9,0,1,1,60,31,28.91,28.91,0,0,1,31,59.9ZM31,.8A30.2,30.2,0,1,0,61.2,31,30.17,30.17,0,0,0,31,.8Z"/><path class="iq" d="M31,59.9A29,29,0,1,1,60,31h0A28.94,28.94,0,0,1,31,59.9ZM31,.8A30.2,30.2,0,1,0,61.2,31h0A30,30,0,0,0,31,.8Z"/><path class="ir" d="M31,59.9A29,29,0,1,1,60,31h0A28.94,28.94,0,0,1,31,59.9ZM31,.8A30.2,30.2,0,1,0,61.2,31,30.17,30.17,0,0,0,31,.8Z"/><path class="is" d="M31,60A29,29,0,1,1,60,31,29,29,0,0,1,31,60ZM31,.8A30.2,30.2,0,1,0,61.2,31h0A30.11,30.11,0,0,0,31,.8Z"/><path class="it" d="M31,60A29,29,0,1,1,60,31,29,29,0,0,1,31,60ZM31,.8A30.2,30.2,0,1,0,61.2,31h0A30.11,30.11,0,0,0,31,.8Z"/><path class="iu" d="M31,60A29,29,0,1,1,60,31,29,29,0,0,1,31,60ZM31,.8A30.2,30.2,0,1,0,61.2,31h0A30.11,30.11,0,0,0,31,.8Z"/><path class="iv" d="M31,60A29,29,0,1,1,60,31,29,29,0,0,1,31,60ZM31,.8A30.2,30.2,0,1,0,61.2,31h0A30.11,30.11,0,0,0,31,.8Z"/><path class="iw" d="M31,60A29,29,0,1,1,60,31,29,29,0,0,1,31,60ZM31,.8A30.2,30.2,0,1,0,61.2,31h0A30,30,0,0,0,31,.8Z"/><path class="ix" d="M31,60A29,29,0,1,1,60,31,29,29,0,0,1,31,60ZM31,.8A30.2,30.2,0,1,0,61.2,31h0A30.11,30.11,0,0,0,31,.8Z"/><path class="iy" d="M31,60A29,29,0,1,1,60,31,29,29,0,0,1,31,60ZM31,.8A30.2,30.2,0,1,0,61.2,31h0A30.11,30.11,0,0,0,31,.8Z"/><path class="iz" d="M31,60A29,29,0,1,1,60,31,29,29,0,0,1,31,60ZM31,.8A30.2,30.2,0,1,0,61.2,31h0A30.11,30.11,0,0,0,31,.8Z"/><path class="ja" d="M31,60A29,29,0,1,1,60,31,29,29,0,0,1,31,60ZM31,.8A30.2,30.2,0,1,0,61.2,31h0A30,30,0,0,0,31,.8Z"/><path class="jb" d="M31,60A29,29,0,1,1,60,31,29,29,0,0,1,31,60ZM31,.8A30.2,30.2,0,1,0,61.2,31h0A30.11,30.11,0,0,0,31,.8Z"/><path class="jc" d="M31,60A29,29,0,1,1,60,31,29,29,0,0,1,31,60ZM31,.8A30.2,30.2,0,1,0,61.2,31h0A30.11,30.11,0,0,0,31,.8Z"/><path class="jd" d="M31,60A29,29,0,1,1,60,31,29,29,0,0,1,31,60ZM31,.8A30.2,30.2,0,1,0,61.2,31h0A30.11,30.11,0,0,0,31,.8Z"/><path class="je" d="M31,60A29,29,0,1,1,60,31,29,29,0,0,1,31,60ZM31,.8A30.2,30.2,0,1,0,61.2,31h0A30.11,30.11,0,0,0,31,.8Z"/><path class="jf" d="M31,60A29,29,0,1,1,60,31,29,29,0,0,1,31,60ZM31,.8A30.2,30.2,0,1,0,61.2,31,30.17,30.17,0,0,0,31,.8Z"/><path class="jg" d="M31,60A29,29,0,1,1,60,31,29,29,0,0,1,31,60ZM31,.8A30.2,30.2,0,1,0,61.2,31h0A30.11,30.11,0,0,0,31,.8Z"/><path class="jh" d="M31,60A29,29,0,1,1,60,31,29,29,0,0,1,31,60ZM31,.8A30.2,30.2,0,1,0,61.2,31h0A30.11,30.11,0,0,0,31,.8Z"/><path class="ji" d="M31,60A29,29,0,1,1,60,31,29,29,0,0,1,31,60ZM31,.8A30.2,30.2,0,1,0,61.2,31h0A30.11,30.11,0,0,0,31,.8Z"/><path class="jj" d="M31,60A29,29,0,1,1,60,31,29,29,0,0,1,31,60ZM31,.8A30.2,30.2,0,1,0,61.2,31h0A30.11,30.11,0,0,0,31,.8Z"/><path class="jk" d="M31,60A29,29,0,1,1,60,31,29,29,0,0,1,31,60ZM31,.8A30.2,30.2,0,1,0,61.2,31,30.17,30.17,0,0,0,31,.8Z"/><path class="jl" d="M31,60A29,29,0,1,1,60,31,29,29,0,0,1,31,60ZM31,.8A30.2,30.2,0,1,0,61.2,31h0A30.17,30.17,0,0,0,31,.8Z"/><path class="jm" d="M31,60A29,29,0,1,1,60,31,29,29,0,0,1,31,60ZM31,.8A30.2,30.2,0,1,0,61.2,31h0A30.17,30.17,0,0,0,31,.8Z"/><path class="jn" d="M31,60A29,29,0,1,1,60,31,29,29,0,0,1,31,60ZM31,.8A30.2,30.2,0,1,0,61.2,31h0A30.17,30.17,0,0,0,31,.8Z"/><path class="jo" d="M31,60A29,29,0,1,1,60,31,29,29,0,0,1,31,60ZM31,.8A30.2,30.2,0,1,0,61.2,31,30.17,30.17,0,0,0,31,.8Z"/><path class="jp" d="M31,60A29,29,0,1,1,60,31,29,29,0,0,1,31,60ZM31,.8A30.2,30.2,0,1,0,61.2,31,30.17,30.17,0,0,0,31,.8Z"/><path class="jq" d="M31,60A29,29,0,1,1,60,31,29,29,0,0,1,31,60ZM31,.8A30.2,30.2,0,1,0,61.2,31,30.17,30.17,0,0,0,31,.8Z"/><path class="jr" d="M31,60A29,29,0,1,1,60,31,29,29,0,0,1,31,60ZM31,.8A30.2,30.2,0,1,0,61.2,31,30.17,30.17,0,0,0,31,.8Z"/><path class="js" d="M31,60A29,29,0,1,1,60,31,29,29,0,0,1,31,60ZM31,.8A30.2,30.2,0,1,0,61.2,31,30.17,30.17,0,0,0,31,.8Z"/><path class="jt" d="M31,60A29,29,0,1,1,60,31,29,29,0,0,1,31,60ZM31,.8A30.2,30.2,0,1,0,61.2,31.1,30.17,30.17,0,0,0,31,.8Z"/><path class="ju" d="M31,60A29,29,0,1,1,60,31,29,29,0,0,1,31,60ZM31,.8A30.2,30.2,0,1,0,61.2,31.1,30.17,30.17,0,0,0,31,.8Z"/><path class="jv" d="M31,60A29,29,0,1,1,60,31,29,29,0,0,1,31,60ZM31,.8A30.2,30.2,0,1,0,61.2,31.1,30.17,30.17,0,0,0,31,.8Z"/><path class="jv" d="M31,60A29,29,0,1,1,60,31,29,29,0,0,1,31,60ZM31,.8A30.2,30.2,0,1,0,61.2,31.1,30.17,30.17,0,0,0,31,.8Z"/><path class="jw" d="M31,60A29,29,0,1,1,60,31,29,29,0,0,1,31,60ZM31,.8A30.2,30.2,0,1,0,61.2,31.1,30.17,30.17,0,0,0,31,.8Z"/><path class="jx" d="M31,60A29,29,0,1,1,60,31,29,29,0,0,1,31,60ZM31,.8A30.15,30.15,0,1,0,61.2,31,30,30,0,0,0,31,.8Z"/><path class="jx" d="M31,60A29,29,0,1,1,60,31,29,29,0,0,1,31,60ZM31,.8A30.2,30.2,0,1,0,61.2,31.1,30.17,30.17,0,0,0,31,.8Z"/><path class="jy" d="M31,60A29,29,0,1,1,60,31,29,29,0,0,1,31,60ZM31,.8A30.2,30.2,0,1,0,61.2,31.1,30.17,30.17,0,0,0,31,.8Z"/><path class="jz" d="M31,60A29,29,0,1,1,60,31,29,29,0,0,1,31,60ZM31,.8A30.2,30.2,0,1,0,61.2,31.1,30.17,30.17,0,0,0,31,.8Z"/><path class="jz" d="M31,60A29,29,0,1,1,60,31,29,29,0,0,1,31,60ZM31,.8A30.15,30.15,0,1,0,61.2,31,30.09,30.09,0,0,0,31,.8Z"/><path class="ka" d="M31,60A29,29,0,1,1,60,31,29,29,0,0,1,31,60ZM31,.8A30.15,30.15,0,1,0,61.2,31,30.09,30.09,0,0,0,31,.8Z"/><path class="kb" d="M31,60A29,29,0,1,1,60,31,29,29,0,0,1,31,60ZM31,.8A30.15,30.15,0,1,0,61.2,31,30.09,30.09,0,0,0,31,.8Z"/><path class="kb" d="M31,60.1A29.05,29.05,0,1,1,60,31,29,29,0,0,1,31,60.1ZM31,.9A30.2,30.2,0,1,0,61.1,31.1h0A29.9,29.9,0,0,0,31,.9Z"/><path class="kc" d="M31,60.1A29.05,29.05,0,1,1,60.1,31,29,29,0,0,1,31,60.1ZM31,.9A30.2,30.2,0,1,0,61.1,31.1h0A29.9,29.9,0,0,0,31,.9Z"/><path class="kd" d="M31,60.1A29.1,29.1,0,1,1,60.1,31h0A29.13,29.13,0,0,1,31,60.1ZM31,.9A30.1,30.1,0,1,0,61.1,31,30.13,30.13,0,0,0,31,.9Z"/><path class="ke" d="M31,60.1A29.1,29.1,0,1,1,60.1,31h0A29.13,29.13,0,0,1,31,60.1ZM31,.9A30.1,30.1,0,1,0,61.1,31,30.13,30.13,0,0,0,31,.9Z"/><path class="kf" d="M31,60.1A29.1,29.1,0,1,1,60.1,31h0A29.13,29.13,0,0,1,31,60.1ZM31,.9A30.1,30.1,0,1,0,61.1,31,30.13,30.13,0,0,0,31,.9Z"/><path class="kg" d="M31,60.1A29.1,29.1,0,1,1,60.1,31h0A29.13,29.13,0,0,1,31,60.1ZM31,.9A30.1,30.1,0,1,0,61.1,31,30.13,30.13,0,0,0,31,.9Z"/><path class="kh" d="M31,60.1A29.1,29.1,0,1,1,60.2,31,29,29,0,0,1,31,60.1ZM31,.9A30.1,30.1,0,1,0,61.1,31h0A30,30,0,0,0,31,.9Z"/><path class="ki" d="M31,60.1A29.1,29.1,0,1,1,60.2,31,29,29,0,0,1,31,60.1ZM31,.9A30.1,30.1,0,1,0,61.1,31h0A30,30,0,0,0,31,.9Z"/><path class="kj" d="M31,60.1A29.1,29.1,0,1,1,60.2,31,29,29,0,0,1,31,60.1ZM31,.9A30.1,30.1,0,1,0,61.1,31h0A30,30,0,0,0,31,.9Z"/><path class="kk" d="M31,60.1A29.1,29.1,0,1,1,60.2,31,29.11,29.11,0,0,1,31,60.1ZM31,.9A30.1,30.1,0,1,0,61.1,31h0A30,30,0,0,0,31,.9Z"/><path class="kl" d="M31,60.1A29.1,29.1,0,1,1,60.2,31h0A29.21,29.21,0,0,1,31,60.1ZM31,.9A30.1,30.1,0,1,0,61.1,31h0A30,30,0,0,0,31,.9Z"/><path class="km" d="M31,60.1A29.1,29.1,0,1,1,60.2,31h0A29.21,29.21,0,0,1,31,60.1ZM31,.9A30.1,30.1,0,1,0,61.1,31,30.13,30.13,0,0,0,31,.9Z"/><path class="kn" d="M31,60.1A29.1,29.1,0,1,1,60.2,31h0A29.21,29.21,0,0,1,31,60.1ZM31,.9A30.1,30.1,0,1,0,61.1,31h0A30,30,0,0,0,31,.9Z"/><path class="ko" d="M31,60.1A29.1,29.1,0,1,1,60.2,31,29,29,0,0,1,31,60.1ZM31,.9A30.1,30.1,0,1,0,61.1,31h0A30,30,0,0,0,31,.9Z"/><path class="kp" d="M31,60.1A29.1,29.1,0,1,1,60.1,31h0A29.06,29.06,0,0,1,31,60.1ZM31,.9A30.1,30.1,0,1,0,61.1,31h0A30,30,0,0,0,31,.9Z"/><path class="kq" d="M31,60.1A29.1,29.1,0,1,1,60.1,31h0A29.06,29.06,0,0,1,31,60.1ZM31,.9A30.1,30.1,0,1,0,61.1,31h0A30,30,0,0,0,31,.9Z"/><path class="kr" d="M31,60.1A29.1,29.1,0,1,1,60.1,31h0A29.06,29.06,0,0,1,31,60.1ZM31,.9A30.1,30.1,0,1,0,61.1,31,30.13,30.13,0,0,0,31,.9Z"/><path class="ks" d="M31,60.1A29.1,29.1,0,1,1,60.2,31,29,29,0,0,1,31,60.1ZM31,.9A30.1,30.1,0,1,0,61.1,31,30.13,30.13,0,0,0,31,.9Z"/><path class="kt" d="M31,60.1A29.1,29.1,0,1,1,60.2,31,29,29,0,0,1,31,60.1ZM31,.9A30.1,30.1,0,1,0,61.1,31h0A30,30,0,0,0,31,.9Z"/><path class="ku" d="M31,60.1A29.1,29.1,0,1,1,60.2,31,29,29,0,0,1,31,60.1ZM31,.9A30.1,30.1,0,1,0,61.1,31h0A30,30,0,0,0,31,.9Z"/><path class="kv" d="M31,60.1A29.1,29.1,0,1,1,60.2,31,29,29,0,0,1,31,60.1ZM31,.9A30.1,30.1,0,1,0,61.1,31h0A30,30,0,0,0,31,.9Z"/><path class="kw" d="M31,60.1A29.1,29.1,0,1,1,60.2,31,29,29,0,0,1,31,60.1ZM31,.9A30.1,30.1,0,1,0,61.2,31,30,30,0,0,0,31,.9Z"/><path class="kx" d="M31,60.1A29.1,29.1,0,1,1,60.1,31,29.06,29.06,0,0,1,31,60.1ZM31,.9A30.1,30.1,0,1,0,61.2,31,30,30,0,0,0,31,.9Z"/><path class="ky" d="M31,60.1A29.1,29.1,0,1,1,60.1,31,29.06,29.06,0,0,1,31,60.1ZM31,.9A30.1,30.1,0,1,0,61.2,31,30,30,0,0,0,31,.9Z"/><path class="kz" d="M31,60.1A29.1,29.1,0,1,1,60.1,31,29.06,29.06,0,0,1,31,60.1ZM31,.9A30.1,30.1,0,1,0,61.2,31,30,30,0,0,0,31,.9Z"/><path class="la" d="M31,60.1A29.1,29.1,0,1,1,60.1,31,29.06,29.06,0,0,1,31,60.1ZM31,.9A30.1,30.1,0,1,0,61.2,31,30,30,0,0,0,31,.9Z"/><path class="lb" d="M31,60.1A29.1,29.1,0,1,1,60.1,31h0A29,29,0,0,1,31,60.1ZM31,.9A30.1,30.1,0,1,0,61.2,31,30,30,0,0,0,31,.9Z"/><path class="lc" d="M31,60.1A29.1,29.1,0,1,1,60.1,31h0A29,29,0,0,1,31,60.1ZM31,.9A30.1,30.1,0,1,0,61.2,31,30,30,0,0,0,31,.9Z"/><path class="ld" d="M31,60.1A29.1,29.1,0,1,1,60.1,31h0A29,29,0,0,1,31,60.1ZM31,.9A30.1,30.1,0,1,0,61.2,31,30,30,0,0,0,31,.9Z"/><path class="le" d="M31,60.1A29.1,29.1,0,1,1,60.1,31,29.06,29.06,0,0,1,31,60.1ZM31,.9A30.1,30.1,0,1,0,61.2,31,30,30,0,0,0,31,.9Z"/><path class="lf" d="M31,60.1A29.1,29.1,0,1,1,60.1,31,29.06,29.06,0,0,1,31,60.1ZM31,.9A30.1,30.1,0,1,0,61.2,31,30,30,0,0,0,31,.9Z"/><path class="lg" d="M31,60.1A29.1,29.1,0,1,1,60.1,31,29.06,29.06,0,0,1,31,60.1ZM31,.9A30.1,30.1,0,1,0,61.2,31h0A30.22,30.22,0,0,0,31,.9Z"/><path class="lh" d="M31,60.1A29.1,29.1,0,1,1,60.1,31,29.06,29.06,0,0,1,31,60.1ZM31,.9A30.1,30.1,0,1,0,61.2,31h0A30.22,30.22,0,0,0,31,.9Z"/><path class="li" d="M31,60.1A29.1,29.1,0,1,1,60.2,31,29.13,29.13,0,0,1,31,60.1ZM31,.9A30.1,30.1,0,1,0,61.2,31h0A30.22,30.22,0,0,0,31,.9Z"/><path class="lj" d="M31,60.1A29.1,29.1,0,1,1,60.1,31,29.06,29.06,0,0,1,31,60.1ZM31,.9A30.1,30.1,0,1,0,61.2,31,30,30,0,0,0,31,.9Z"/><path class="lk" d="M31,60.1A29.1,29.1,0,1,1,60.1,31,29.06,29.06,0,0,1,31,60.1ZM31,.9A30.1,30.1,0,1,0,61.2,31,30,30,0,0,0,31,.9Z"/><path class="ll" d="M31,60.1A29.1,29.1,0,1,1,60.1,31,29.06,29.06,0,0,1,31,60.1ZM31,.9A30.1,30.1,0,1,0,61.2,31,30,30,0,0,0,31,.9Z"/><path class="lm" d="M31,60.1A29.1,29.1,0,1,1,60.2,31,29.13,29.13,0,0,1,31,60.1ZM31,.9A30.1,30.1,0,1,0,61.2,31,30,30,0,0,0,31,.9Z"/><path class="ln" d="M31,60.1A29.15,29.15,0,1,1,60.1,30.9h0A29,29,0,0,1,31,60.1ZM31,.9A30.1,30.1,0,1,0,61.2,31h0A30.22,30.22,0,0,0,31,.9Z"/><path class="lo" d="M31,60.1A29.15,29.15,0,1,1,60.1,30.9h0A29,29,0,0,1,31,60.1ZM31,.9A30.1,30.1,0,1,0,61.1,31,30,30,0,0,0,31,.9Z"/><path class="lp" d="M31,60.1A29.15,29.15,0,1,1,60.1,30.9h0A29,29,0,0,1,31,60.1ZM31,.9A30.1,30.1,0,1,0,61.2,31,30,30,0,0,0,31,.9Z"/><path class="lq" d="M31,60.1A29.15,29.15,0,1,1,60.2,31h0A29.09,29.09,0,0,1,31,60.1ZM31,.9A30.1,30.1,0,1,0,61.2,31,30,30,0,0,0,31,.9Z"/><path class="lr" d="M31,60.2A29.2,29.2,0,1,1,60.2,31,29.23,29.23,0,0,1,31,60.2ZM31,.9A30.1,30.1,0,1,0,61.2,31h0A30.22,30.22,0,0,0,31,.9Z"/><path class="ls" d="M31,60.2A29.2,29.2,0,1,1,60.2,31,29.23,29.23,0,0,1,31,60.2ZM31,.9A30.1,30.1,0,1,0,61.2,31h0A30.22,30.22,0,0,0,31,.9Z"/><path class="lt" d="M31,60.2A29.2,29.2,0,1,1,60.2,31,29.23,29.23,0,0,1,31,60.2ZM31,.9a30,30,0,1,0,30,30A30,30,0,0,0,31,.9Z"/><path class="lu" d="M31,60.2A29.2,29.2,0,1,1,60.2,31h0A29.17,29.17,0,0,1,31,60.2ZM31,.9a30,30,0,1,0,30,30A30,30,0,0,0,31,.9Z"/><path class="lv" d="M31,60.2A29.2,29.2,0,1,1,60.2,31h0A29.17,29.17,0,0,1,31,60.2ZM31,.9a30,30,0,1,0,30,30A30,30,0,0,0,31,.9Z"/><path class="lw" d="M31,60.2A29.2,29.2,0,1,1,60.2,31h0A29.17,29.17,0,0,1,31,60.2ZM31,.9a30,30,0,1,0,30,30A30,30,0,0,0,31,.9Z"/><path class="lw" d="M31,60.2A29.2,29.2,0,1,1,60.2,31h0A29.17,29.17,0,0,1,31,60.2ZM31,.9a30,30,0,1,0,30,30A30,30,0,0,0,31,.9Z"/><path class="lx" d="M31,60.2A29.2,29.2,0,1,1,60.2,31h0A29.17,29.17,0,0,1,31,60.2ZM31,1A30,30,0,1,0,61,31,30,30,0,0,0,31,1Z"/><path class="ly" d="M31,60.2A29.2,29.2,0,1,1,60.2,31h0A29.17,29.17,0,0,1,31,60.2ZM31,1A30,30,0,1,0,61,31,30,30,0,0,0,31,1Z"/><path class="ly" d="M31,60.2A29.2,29.2,0,1,1,60.2,31h0A29.17,29.17,0,0,1,31,60.2ZM31,1A30,30,0,1,0,61,31,30,30,0,0,0,31,1Z"/><path class="lz" d="M31,60.2A29.2,29.2,0,1,1,60.2,31h0A29.17,29.17,0,0,1,31,60.2ZM31,1A30,30,0,1,0,61,31,30,30,0,0,0,31,1Z"/><path class="ma" d="M31,60.2A29.2,29.2,0,1,1,60.2,31h0A29.17,29.17,0,0,1,31,60.2ZM31,1A30,30,0,1,0,61,31,30,30,0,0,0,31,1Z"/><path class="mb" d="M31,60.2A29.2,29.2,0,1,1,60.2,31h0A29.17,29.17,0,0,1,31,60.2ZM31,1A30,30,0,1,0,61,31,30,30,0,0,0,31,1Z"/><path class="mc" d="M31,60.2A29.2,29.2,0,1,1,60.2,31h0A29.17,29.17,0,0,1,31,60.2ZM31,1A30,30,0,1,0,61,31,30,30,0,0,0,31,1Z"/><path class="md" d="M31,60.2A29.2,29.2,0,1,1,60.2,31h0A29.17,29.17,0,0,1,31,60.2ZM31,1A30,30,0,1,0,61,31,30,30,0,0,0,31,1Z"/><path class="me" d="M31,60.2A29.2,29.2,0,1,1,60.2,31h0A29.11,29.11,0,0,1,31,60.2ZM31,1A30,30,0,1,0,61,31,30,30,0,0,0,31,1Z"/><path class="mf" d="M31,60.2A29.2,29.2,0,1,1,60.2,31h0A29.11,29.11,0,0,1,31,60.2ZM31,1A30,30,0,1,0,61,31,30,30,0,0,0,31,1Z"/><path class="mg" d="M31,60.2A29.2,29.2,0,1,1,60.2,31h0A29.11,29.11,0,0,1,31,60.2ZM31,1A30,30,0,1,0,61,31,30,30,0,0,0,31,1Z"/><path class="mh" d="M31,60.2A29.2,29.2,0,1,1,60.2,31h0A29.11,29.11,0,0,1,31,60.2ZM31,1A30,30,0,1,0,61,31,30,30,0,0,0,31,1Z"/><path class="mi" d="M31,60.2A29.2,29.2,0,1,1,60.2,31,29.23,29.23,0,0,1,31,60.2ZM31,1A30,30,0,1,0,61,31,30,30,0,0,0,31,1Z"/><path class="mj" d="M31,60.2A29.2,29.2,0,1,1,60.2,31,29.23,29.23,0,0,1,31,60.2ZM31,1A30,30,0,1,0,61,31,30,30,0,0,0,31,1Z"/><path class="mk" d="M31,60.2A29.2,29.2,0,1,1,60.2,31,29.23,29.23,0,0,1,31,60.2ZM31,1A30,30,0,1,0,61,31,30,30,0,0,0,31,1Z"/><path class="ml" d="M31,60.2A29.2,29.2,0,1,1,60.2,31,29.23,29.23,0,0,1,31,60.2ZM31,1A30,30,0,1,0,61,31,30,30,0,0,0,31,1Z"/><path class="mm" d="M31,60.2A29.2,29.2,0,1,1,60.2,31,29.23,29.23,0,0,1,31,60.2ZM31,1A30,30,0,1,0,61,31,30,30,0,0,0,31,1Z"/><path class="mn" d="M31,60.2A29.2,29.2,0,1,1,60.2,31,29.23,29.23,0,0,1,31,60.2ZM31,1A30,30,0,1,0,61,31,30,30,0,0,0,31,1Z"/><path class="mo" d="M31,60.2A29.2,29.2,0,1,1,60.2,31,29.23,29.23,0,0,1,31,60.2ZM31,1A30,30,0,1,0,61,31,30,30,0,0,0,31,1Z"/><path class="mp" d="M31,60.2A29.2,29.2,0,1,1,60.2,31,29.23,29.23,0,0,1,31,60.2ZM31,1A30,30,0,1,0,61,31,30,30,0,0,0,31,1Z"/><path class="mq" d="M31,60.2A29.2,29.2,0,1,1,60.2,31h0A29.11,29.11,0,0,1,31,60.2ZM31,1A30,30,0,1,0,61,31,30,30,0,0,0,31,1Z"/><path class="mr" d="M31,60.2A29.2,29.2,0,1,1,60.2,31h0A29.11,29.11,0,0,1,31,60.2ZM31,1A30,30,0,1,0,61,31,30,30,0,0,0,31,1Z"/><path class="ms" d="M31,60.2A29.2,29.2,0,1,1,60.2,31h0A29.11,29.11,0,0,1,31,60.2ZM31,1A30,30,0,1,0,61,31,30,30,0,0,0,31,1Z"/><path class="mt" d="M31,60.2A29.2,29.2,0,1,1,60.2,31,29.23,29.23,0,0,1,31,60.2ZM31,1A30,30,0,1,0,61,31,30,30,0,0,0,31,1Z"/><path class="b" d="M31,60.2A29.2,29.2,0,1,1,60.2,31,29.23,29.23,0,0,1,31,60.2ZM31,1A30,30,0,1,0,61,31,30,30,0,0,0,31,1Z"/><path class="mu" d="M31,60.2A29.2,29.2,0,1,1,60.2,31,29.23,29.23,0,0,1,31,60.2ZM31,1A30,30,0,1,0,61,31,30,30,0,0,0,31,1Z"/><path class="mv" d="M31,60.2A29.2,29.2,0,1,1,60.2,31,29.23,29.23,0,0,1,31,60.2ZM31,1A30,30,0,1,0,61,31,30,30,0,0,0,31,1Z"/><path class="mw" d="M31,60.2A29.25,29.25,0,1,1,60.3,30.9,29.26,29.26,0,0,1,31,60.2ZM31,1A30,30,0,1,0,61,31,30,30,0,0,0,31,1Z"/><path class="mx" d="M31,60.3A29.3,29.3,0,1,1,60.3,31,29.19,29.19,0,0,1,31,60.3ZM31,1A30,30,0,1,0,61,31,30,30,0,0,0,31,1Z"/><path class="my" d="M31,60.3A29.3,29.3,0,1,1,60.3,31,29.19,29.19,0,0,1,31,60.3ZM31,1A30,30,0,1,0,61,31,30,30,0,0,0,31,1Z"/><path class="mz" d="M31,60.3A29.3,29.3,0,1,1,60.3,31,29.19,29.19,0,0,1,31,60.3ZM31,1A30,30,0,1,0,61,31,30,30,0,0,0,31,1Z"/><path class="na" d="M31,60.3A29.25,29.25,0,1,1,60.3,31.1,29.19,29.19,0,0,1,31,60.3ZM31,1A30,30,0,1,0,61,31,30,30,0,0,0,31,1Z"/><path class="nb" d="M31,60.3A29.3,29.3,0,1,1,60.3,31h0A29.28,29.28,0,0,1,31,60.3ZM31,1A30,30,0,1,0,61,31,30,30,0,0,0,31,1Z"/><path class="nc" d="M31,60.3A29.3,29.3,0,1,1,60.3,31h0A29.28,29.28,0,0,1,31,60.3ZM31,1A30,30,0,1,0,61,31,30,30,0,0,0,31,1Z"/><path class="nd" d="M31,60.3A29.3,29.3,0,1,1,60.3,31h0A29.28,29.28,0,0,1,31,60.3ZM31,1A30,30,0,1,0,61,31,30,30,0,0,0,31,1Z"/><path class="ne" d="M31,60.3A29.3,29.3,0,1,1,60.4,31,29.43,29.43,0,0,1,31,60.3ZM31,1A30,30,0,1,0,61,31,30,30,0,0,0,31,1Z"/><path class="nf" d="M31,60.3A29.3,29.3,0,1,1,60.3,31,29.28,29.28,0,0,1,31,60.3ZM31,1A30,30,0,1,0,61,31,30,30,0,0,0,31,1Z"/><path class="ng" d="M31,60.3A29.3,29.3,0,1,1,60.3,31,29.28,29.28,0,0,1,31,60.3ZM31,1A30,30,0,1,0,61,31,30,30,0,0,0,31,1Z"/><path class="nh" d="M31,60.3A29.3,29.3,0,1,1,60.3,31,29.28,29.28,0,0,1,31,60.3ZM31,1A30,30,0,1,0,61,31,30,30,0,0,0,31,1Z"/><path class="ni" d="M31,60.3A29.3,29.3,0,1,1,60.3,31,29.28,29.28,0,0,1,31,60.3ZM31,1A30,30,0,1,0,61,31,30,30,0,0,0,31,1Z"/><path class="d" d="M31,60.3A29.3,29.3,0,1,1,60.3,31,29.28,29.28,0,0,1,31,60.3ZM31,1.1a30,30,0,1,0,30,30,30,30,0,0,0-30-30Z"/></svg>