<svg xmlns="http://www.w3.org/2000/svg" viewBox="0 0 121.9 110"><defs><style>.a{fill:#f6d056;}.b{fill:#414042;}.c{fill:#45a5da;}.d{fill:#fff;}</style></defs><title>small store -cr- dollar- drug- net</title><rect class="a" x="1.3" y="32.7" width="119.1" height="5.9"/><path class="b" d="M121.8,40.1H0V31.4H121.9v8.7ZM2.7,37.3H119.1V34.1H2.7Z"/><rect class="a" x="18.2" y="16.7" width="85.4" height="5.9"/><path class="b" d="M105,24.1H16.8V15.4H105ZM19.6,21.3h82.7V18.1H19.6Z"/><rect class="a" x="26.7" y="1.4" width="68.3" height="5.9"/><path class="b" d="M96.4,8.7h-71V0H96.5V8.7ZM28.1,5.9H93.6V2.7H28.1Z"/><rect class="c" x="5.5" y="38.7" width="110.5" height="69.9"/><path class="b" d="M117.5,110H4.1V37.3H117.4V110ZM6.9,107.2H114.7V40H6.9Z"/><rect class="a" x="21.7" y="22.7" width="78.7" height="85.9"/><path class="b" d="M101.8,110H20.3V21.3h81.5Zm-78.7-2.8h76V24.1h-76Z"/><rect class="c" x="30.5" y="7.6" width="60.2" height="99.4"/><path class="b" d="M92.1,108.4h-63V6.2h63Zm-60.2-2.8H89.3V8.9H31.9Z"/><rect class="a" x="38.4" y="22.7" width="44.3" height="24"/><path class="b" d="M84.1,48h-47V21.3h47ZM39.8,45.3H81.3V24.1H39.8Z"/><rect class="d" x="38.7" y="80.6" width="42.9" height="26.4"/><path class="b" d="M83,108.4H37.3V79.2H83Zm-42.9-2.8H80.2V81.9H40.1Z"/><rect class="b" x="44.8" y="30" width="31.6" height="2.8"/><rect class="b" x="44.8" y="36.5" width="21.6" height="2.8"/><rect class="b" x="70.6" y="36.5" width="5.7" height="2.8"/><rect class="b" x="30.5" y="70.7" width="60.2" height="2.8"/><rect class="b" x="58.8" y="80.6" width="2.8" height="26.4"/><rect class="b" x="54.2" y="91.1" width="2.8" height="5.4"/><rect class="b" x="63.4" y="91.1" width="2.8" height="5.4"/></svg>