<svg xmlns="http://www.w3.org/2000/svg" viewBox="0 0 240 51"><defs><style>.a{fill:#d81b31;}</style></defs><title>target corporate</title><path class="a" d="M25.5,51A25.5,25.5,0,1,1,50.9,25.4v.1A25.59,25.59,0,0,1,25.5,51ZM8.2,25.5A17.44,17.44,0,0,0,25.4,42.9,17.44,17.44,0,0,0,42.8,25.7,17.44,17.44,0,0,0,25.6,8.3h-.1A17.35,17.35,0,0,0,8.2,25.5Z"/><path class="a" d="M179.6,18.1H173a1.16,1.16,0,0,1-.7-.5c-2.6-6.7-11.7-6.7-15.5-1.2a15.15,15.15,0,0,0-2.2,9.3,14.85,14.85,0,0,0,1.5,6.6,9.4,9.4,0,0,0,10.1,4.6,8.72,8.72,0,0,0,7-7.1v-.5h-7.9V23.6h14.3V42.2h-4.2c-.2,0-.6-.5-.6-.9-.2-1.1-.4-2.1-.6-3.3-.2.2-.5.3-.7.5-5.5,7.1-18.3,5.8-23.3-2.2-4-6.6-4-17,.4-23.2,3.7-5.3,9.1-6.9,15.3-6.5A15.25,15.25,0,0,1,175,10,12,12,0,0,1,179.6,18.1Z"/><path class="a" d="M117.5,7.4H133a29.11,29.11,0,0,1,5.1.3A9.65,9.65,0,0,1,145.8,19a9.38,9.38,0,0,1-1,2.8,8.24,8.24,0,0,1-4,3.6c0,.1.1.2.2.3,3.1,1.2,3.9,3.8,4,6.7,0,2,0,4,.1,6a3,3,0,0,0,1.2,2.8c.1.1.1.4.2.8h-7.6c-.2,0-.6-.6-.7-1-.2-1.7-.4-3.5-.5-5.2-.1-1.2,0-2.3-.1-3.5a3.55,3.55,0,0,0-3.2-3.8h-.5c-3.1-.2-6.3,0-9.6,0V41.9h-6.9Zm6.9,15.3c3.5,0,6.9.1,10.2,0a4,4,0,0,0,4-4v-.4a4.37,4.37,0,0,0-3.7-4.9,2.72,2.72,0,0,0-.9,0c-3.1-.1-6.1,0-9.1,0-.2,0-.4.1-.6.1Z"/><path class="a" d="M184.2,7.5h24.1v5.9h-17v7.5h15.5v6H192.5c-1,0-1.3.2-1.3,1.3v8h18v5.9H184.3V7.5Z"/><path class="a" d="M115,42.1h-7.2c-.3,0-.7-.5-.8-.9-.6-1.8-1.1-3.6-1.7-5.4a1,1,0,0,0-1.2-.9H93a1.13,1.13,0,0,0-1.3.9c-.6,1.8-1.2,3.6-1.9,5.4a1.37,1.37,0,0,1-1,.8H82a3.37,3.37,0,0,1,.4-1.2C86.2,30,90.1,19.2,93.9,8.4a1.34,1.34,0,0,1,1.5-1.1h6.2a1.52,1.52,0,0,1,1.2.7c4,11.1,7.9,22.2,11.8,33.3A1.2,1.2,0,0,1,115,42.1ZM98.8,15.3h-.3L94.1,28.9h9Z"/><path class="a" d="M229.5,42h-7.2V13.4H211.8V7.5H240v5.9h-8.3c-2.7,0-2.2-.3-2.2,2.2V42Z"/><path class="a" d="M78.2,42H71V13.4H60.5V7.5h28v5.9H78.2Z"/><path class="a" d="M34.5,25.5a9.05,9.05,0,1,1-9.1-9h0a9,9,0,0,1,9.1,9Z"/><path class="a" d="M235.4,42.9a2.2,2.2,0,1,1,2.2-2.2h0A2.15,2.15,0,0,1,235.4,42.9Zm0-4a1.7,1.7,0,1,0,1.7,1.7,1.63,1.63,0,0,0-1.7-1.7Z"/><path class="a" d="M234.6,41.6v-2H236a.22.22,0,0,1,.2.2.37.37,0,0,1,.1.3.6.6,0,0,1-.1.4.76.76,0,0,1-.4.2.22.22,0,0,1,.2.2c.1.1.2.2.2.3l.2.4h-.5l-.3-.4-.2-.3-.1-.1H235v.8Zm.4-1.2h.7a.1.1,0,0,0,.1-.1v-.4a.35.35,0,0,0-.2-.1H235Z"/></svg>