<svg xmlns="http://www.w3.org/2000/svg" viewBox="0 0 240 96.96"><defs><style>.a{fill:#d4241d;}</style></defs><title>tom-s</title><path class="a" d="M179.1,0h10.4a9.56,9.56,0,0,0,4.7.8,71.57,71.57,0,0,1,23.3,5.1c9.2,3.8,17.7,8.7,22.5,18.1v3.2c-.7.9-1.5,1.8-2.3,2.7-4.8,5.1-10,6.1-14.8,2.8-4.2-2.9-7.3-3-10-.2s-2.8,6.7.1,10.5,6.3,7.6,9.1,11.7c8.1,11.4,6.3,24.6-4.5,33.5a35.61,35.61,0,0,1-31.5,7.5c-12.3-2.8-18-11.7-16-24,1-6.1,3.9-11.6,5.5-17.5.6-2.4,1.5-5.3-1.3-6.8s-4.9.3-6.8,2a20.46,20.46,0,0,0-6.1,11c-2,7.8-2,15.9-2.4,23.9-.4,8.3-4.1,12.1-12,12.5-5.9.3-9.1-3-8.4-8.9a49,49,0,0,1,2.6-10c2.6-8,6.2-15.6,8-23.9.5-2.4.8-5-1.7-6.5-2.3-1.5-4.7-.5-6.7.9-4.2,2.7-6.1,7-7.4,11.5-2.2,8-2.5,16.3-3.3,24.6-.7,8.1-4.2,11.7-12,12.3-6.2.4-9.4-3-8.4-9.1a74,74,0,0,1,2.6-9.2c2.7-8.2,6.8-16,8.7-24.5.5-2.3.7-4.6-1.5-6.2-2.8-1.9-5.6-1.1-8.4.2a4.74,4.74,0,0,0-3,5.4,30.64,30.64,0,0,1,.2,8c-1.6,15-7.8,27.4-22.5,33.3-15,6.1-35.2-1.4-35.2-22.4-.1-15.6,7.2-27.9,20.2-36.6a19.33,19.33,0,0,1,6.3-2.5c2.5-.6,5.2-.6,6.7,2.1s-.1,4.6-1.8,6.4c-3.4,3.6-7,6.9-9.8,11.1-3.5,5.1-5.7,10.6-5.3,16.9.5,9.2,7.9,13.9,16.3,10.2,7.3-3.2,10.5-9.5,11.8-17,.3-1.7-.4-2.2-2.1-2.4-7.2-.7-10-4.5-9.2-11.6.9-7.8,9.3-15,15.2-12,4.7,2.3,7.5.9,11.1-1.2a38.51,38.51,0,0,1,8.2-3.1c3.5-.9,8.1-1.7,10.3,1,5,6.2,9,3.2,14.2.5,7.7-3.9,13.1-2.6,19,3.4,1.5,1.5,2.5,1,3.7,0a21.63,21.63,0,0,1,9.5-4.9c9.2-2.2,16,3.2,16,12.6,0,3.7-1.1,7.1-2,10.6-1.3,4.9-2.9,9.7-2.8,14.9.1,4.1,1.4,7.7,5.5,9.5,5.2,2.3,10.1,1,14.2-2.5,3.9-3.2,5.2-7.6,4-12.6a24.75,24.75,0,0,0-4.6-8.8c-2-2.7-4.3-5.2-6-8-5.8-9.4-4-17.6,4.8-24,.8-.6,2.2-1,2-2.2s-1.5-1.5-2.4-1.8a58.41,58.41,0,0,0-18-3.3c-17-.8-33.9.9-50.8,2.4-24.3,2.1-48.7,4.2-73,6.1-3.6.3-5.4,1.8-6.9,4.9a175.21,175.21,0,0,0-15.5,54c-.5,4.2-1.6,8.2-5.5,10.6s-11.3,2.7-14.1.3c-3.8-3.2-2.9-7.5-1.9-11.5A143.82,143.82,0,0,1,28.1,56.1c4.1-8.7,8.4-17.3,12.7-25.8,1.4-2.7,1-3.9-2.3-3.8-5.2.2-10.4.3-15.6,0-5.6-.3-11.2-.6-16.6-2.4-6.1-2.5-8-7.7-4.7-13.4S10,3.2,16.3,6.2a72.47,72.47,0,0,0,29.3,7c3.5.1,6.1-.8,8-4A15.78,15.78,0,0,1,60,2.8a5.6,5.6,0,0,1,6.4.6C68.2,5,68,7,67.1,8.9c-1.5,3.2-.1,3.7,2.7,3.4,7.3-.7,14.6-1.3,21.9-2.1,22-2.5,44-5,66-7.7C164.8,1.6,172.1,1.6,179.1,0Z"/></svg>