<svg xmlns="http://www.w3.org/2000/svg" viewBox="0 0 175.7 126.55"><defs><style>.a{fill:#f15f30;}.a,.b,.c,.d{stroke:#444344;stroke-miterlimit:10;stroke-width:0.7px;}.b{fill:#f7d157;}.c{fill:#41a4d9;}.d{fill:none;}</style></defs><title>Total</title><rect class="a" x="0.35" y="114.42" width="175" height="11.78"/><rect class="b" x="13.22" y="22.74" width="149.26" height="91.68"/><rect class="b" x="13.22" y="40.05" width="61.16" height="20.92"/><rect class="a" x="13.22" y="60.94" width="61.16" height="8.54"/><rect class="a" x="1.7" y="11.15" width="172.29" height="11.59"/><rect class="c" x="27.33" y="69.48" width="31.91" height="44.94"/><rect class="b" x="13.22" y="22.74" width="149.26" height="17.27"/><polygon class="b" points="167.15 11.18 10.32 11.18 14.16 0.35 163.31 0.35 167.15 11.18"/><rect class="c" x="87.02" y="55.78" width="61.23" height="46.1"/><polygon class="a" points="72.91 40.05 160.79 40.05 175.05 63.08 175.05 69.52 168.76 73.73 159.35 67.71 151.38 73.73 142.42 67.71 133.2 73.73 125.18 67.71 116.72 73.73 108.81 67.71 98.76 73.73 91.46 67.71 82.05 73.73 73.51 67.71 66.06 73.73 59.25 68.88 59.25 62.14 72.91 40.05"/><polyline class="d" points="85.89 40.05 73.62 63.5 73.62 113.74"/><polyline class="d" points="98.69 40.05 91.54 62.63 91.54 67.71"/><line class="d" x1="110.77" y1="40.05" x2="108.81" y2="67.71"/><line class="d" x1="122.89" y1="40.05" x2="125.18" y2="67.71"/><polyline class="d" points="134.89 40.05 142.19 62.33 142.19 68.31"/><polyline class="d" points="148.25 40.05 159.54 63.16 159.54 67.71"/></svg>