<svg xmlns="http://www.w3.org/2000/svg" viewBox="0 0 239.76 75.48"><defs><style>.a{fill:#e5022b;}.b{fill:#4393ce;}.c{fill:#02419b;}.d{fill:#e5052d;}.e{fill:#fd9a05;}</style></defs><title>total shopper</title><path class="a" d="M63,14.79a31.81,31.81,0,0,1,8.7,12.1c3.1,8.5,2.9,16.9-1.8,24.9a5.48,5.48,0,0,1-2.7,2.9c0-.2.1-.4.1-.6,2.8-3.9,2.7-8.1,1.1-12.4a16,16,0,0,0-4.4-6.5,18.48,18.48,0,0,0-3.8-3.6,43.33,43.33,0,0,0-11.5-6.4,52.86,52.86,0,0,0-14.6-4.6,52.69,52.69,0,0,0-21.3-.5A17.29,17.29,0,0,0,3,25.19a.52.52,0,0,1-.7.3C9.24,9.69,24.94,5,38.64,5.89c2.4.2,4.9.6,7.3.9L49.84,8A43.55,43.55,0,0,1,63,14.79Z"/><path class="b" d="M52,62.29c1.9.8,3.8,0,5.7-.2s3.9-.7,5.9-1.2a39.86,39.86,0,0,1-7.7,5.8,36.79,36.79,0,0,1-13.3,4.5,6.47,6.47,0,0,0-1.3.4c-.8-.6-1.6-.3-2.4-.2a45.79,45.79,0,0,1-9.8-.8,39,39,0,0,0-5.9-1.4c-1.9-.9-3.9-1.8-5.8-2.8-6.5-3.4-11.9-7.9-14.9-14.8-2.6-6-3.7-12.2-.9-18.6a3.28,3.28,0,0,1,1.5-2,8.14,8.14,0,0,0-.5,4.6,14.6,14.6,0,0,0,3.8,7,53.34,53.34,0,0,0,18.9,14,38,38,0,0,0,9.8,3.4,51,51,0,0,0,13.4,2.4A4.29,4.29,0,0,0,52,62.29Z"/><path class="c" d="M52,62.29a5.85,5.85,0,0,1-3.7.3,51.75,51.75,0,0,1-13.5-2.4l1.8-2.7a32.52,32.52,0,0,0,3.8-6.5,88.21,88.21,0,0,0,8.3-25.1c0-.2.1-.4.1-.7a49.75,49.75,0,0,1,11.5,6.4,21.61,21.61,0,0,1,3.8,3.6,64.56,64.56,0,0,1-3.4,11.6,71.82,71.82,0,0,1-6.4,12.3Z"/><path class="d" d="M134.14,57.89a21.16,21.16,0,0,1-9.3-1.8,10.19,10.19,0,0,1-6.1-9.9,9.79,9.79,0,0,1,6.2-9.6,23.4,23.4,0,0,1,18-.3,9.86,9.86,0,0,1,6.7,10,10.28,10.28,0,0,1-6.6,10.1A22.25,22.25,0,0,1,134.14,57.89Zm-.3-5.3a15.94,15.94,0,0,0,4.8-.7,5.54,5.54,0,0,0,3.8-5.7,5.5,5.5,0,0,0-3.9-5.5,13.47,13.47,0,0,0-7.7-.2,5.36,5.36,0,0,0-4.5,6,5.44,5.44,0,0,0,4.6,5.6,25,25,0,0,0,2.9.5Z"/><path class="d" d="M211.24,57.49h-6.4c-.7,0-.9-.3-1.1-1-1.2-3.8-1.2-3.8-5.1-3.8H188a1.91,1.91,0,0,0-2.2,1.5h0c-.3,1.1-.4,2.5-1.2,3.1s-2.2.2-3.3.2c-4.1,0-4.2,0-2.6-3.9a49.06,49.06,0,0,1,12.9-17.7,4.11,4.11,0,0,1,5.4-.2c6.2,5.6,11.5,11.9,13.9,20.1C211,56.39,211.14,56.89,211.24,57.49Zm-11.5-9.6a40.23,40.23,0,0,0-4.5-5.7c-.3-.3-.6-.9-1.2-.3a38.69,38.69,0,0,0-4.8,5.9h10.5Z"/><path class="a" d="M106,28.59h14.7c1.1,0,1.4.2,1.4,1.4,0,4.1,0,4.1-4,4.1h-6.9c-1.3,0-1.6.3-1.5,1.5v20.2c0,1.5-.4,1.9-1.8,1.5a10.78,10.78,0,0,1-5.1-2.3,5.93,5.93,0,0,1-2-4.6V35.69c0-1.3-.3-1.7-1.5-1.5-2.7.1-5.5,0-8.2,0-1.2,0-1.5-.4-1.5-1.5,0-4,0-4,4-4Z"/><path class="d" d="M165.34,35.29h12c1.1,0,1.4.3,1.4,1.5,0,3.6,0,3.6-3.5,3.6h-4.6c-1,0-1.2.3-1.2,1.3v13a2.42,2.42,0,0,1-2.1,2.8h-.4a21.75,21.75,0,0,1-2.6.1c-2.7-.1-3.3-.8-3.3-3.6V41.79c0-1.2-.2-1.5-1.5-1.5-2.2.1-4.3,0-6.5,0-1,0-1.4-.1-1.4-1.3,0-3.8-.1-3.8,3.7-3.8Z"/><path class="e" d="M6.14,42.79a14.6,14.6,0,0,1-3.8-7,10.08,10.08,0,0,1,.5-4.6c1.5-2.8,4.4-3.9,7.2-4.8,8.6-2.8,17.3-2.4,26-.3a17.1,17.1,0,0,1,3,.9c-2.5.4-5.1.8-7.5,1.4-7.5,2-14.7,4.5-20.9,9.3A17.06,17.06,0,0,0,6.14,42.79Z"/><path class="d" d="M231.94,57.49a45.12,45.12,0,0,1-10.4-.6c-4.4-.9-6.8-3.5-7-8-.2-3.9,0-7.7-.1-11.7a1.67,1.67,0,0,1,1.5-1.8,12.59,12.59,0,0,1,2.7-.4c3.2,0,3.8.7,3.8,3.8v8.6c0,3.3,1.1,4.5,4.3,4.8a110.3,110.3,0,0,0,11.5.1c1.3,0,1.6.3,1.5,1.5,0,3.6,0,3.6-3.7,3.6Z"/><path class="c" d="M63,14.79A43.46,43.46,0,0,0,49.64,8l-3.9-1.2c-4.4-4.9-9.9-5-16-3.5a6.83,6.83,0,0,1,2.8-1.7c8.8-3.7,24.8-1.5,30.3,12.5A1.08,1.08,0,0,1,63,14.79Z"/><path class="e" d="M54.34,59.19a71.82,71.82,0,0,0,6.4-12.3,22.32,22.32,0,0,0,7.7-5.2c1.5,4.3,1.7,8.5-1.1,12.4a1.27,1.27,0,0,0-.1.6c-1.4,1.9-3.5,2.6-5.6,3.2A16.6,16.6,0,0,1,54.34,59.19Z"/><path class="c" d="M22.94,69.09a39,39,0,0,1,5.9,1.4,45.79,45.79,0,0,0,9.8.8c.8,0,1.7-.4,2.4.2-6.8,3.8-13.9,5.2-21.5,2.8a16.57,16.57,0,0,1-10.2-9A14.3,14.3,0,0,0,22.94,69.09Z"/><path class="e" d="M40.44,51a35.58,35.58,0,0,1-3.8,6.5,57.51,57.51,0,0,1-23.7-13.6A83.94,83.94,0,0,0,40.44,51Z"/></svg>