<svg id="Layer_1" data-name="Layer 1" xmlns="http://www.w3.org/2000/svg" viewBox="0 0 51 38"><defs><style>.cls-1{fill:#45a5da;}.cls-2{fill:#ed8a3a;}.cls-3{fill:#414042;}</style></defs><title>iSHOP Dashboard_Elements</title><rect class="cls-1" x="31.86" y="14.7" width="10.53" height="1.99" rx="0.83" ry="0.83"/><path class="cls-2" d="M20.74,5.07H9.11A4.15,4.15,0,0,0,5,9.22v0a4.15,4.15,0,0,0,4.15,4.15H20.74a4.15,4.15,0,0,0,4.15-4.15v0a4.15,4.15,0,0,0-4.15-4.15m1.44,6.14a.71.71,0,0,1-.71.71H8.38a.71.71,0,0,1-.71-.71V7.27a.71.71,0,0,1,.71-.71H21.47a.71.71,0,0,1,.71.71Z"/><path class="cls-3" d="M21.47,12.19H8.38a1,1,0,0,1-1-1V7.27a1,1,0,0,1,1-1H21.47a1,1,0,0,1,1,1v3.94a1,1,0,0,1-1,1M8.38,6.82a.45.45,0,0,0-.45.45v3.94a.45.45,0,0,0,.45.44H21.47a.45.45,0,0,0,.45-.44V7.27a.45.45,0,0,0-.45-.45Z"/><path class="cls-2" d="M46.19,21.13a.75.75,0,0,1-.83.63H5.64a.75.75,0,0,1-.83-.63V17.32a.75.75,0,0,1,.83-.63H45.36a.75.75,0,0,1,.83.63Z"/><path class="cls-2" d="M46.19,36.89a.75.75,0,0,1-.83.63H5.64a.75.75,0,0,1-.83-.63V33.07a.75.75,0,0,1,.83-.63H45.36a.75.75,0,0,1,.83.63Z"/><path class="cls-3" d="M37.12,2.77a.27.27,0,0,1-.21-.1L36.41,2l-.5.64a.28.28,0,0,1-.42,0L35,2l-.5.64a.26.26,0,0,1-.21.1.27.27,0,0,1-.21-.1L33.56,2l-.5.64a.27.27,0,1,1-.42-.33l.71-.92a.27.27,0,0,1,.21-.1.27.27,0,0,1,.21.1l.5.64.5-.64a.28.28,0,0,1,.42,0l.5.64.5-.64a.27.27,0,0,1,.42,0l.71.92a.27.27,0,0,1-.21.43"/><path class="cls-3" d="M37.12,2.77a.27.27,0,0,1-.21-.43l.71-.92a.28.28,0,0,1,.42,0l.5.65.5-.65a.28.28,0,0,1,.42,0l.5.65.5-.65a.28.28,0,0,1,.42,0l.71.92a.27.27,0,1,1-.42.33L40.68,2l-.5.64a.28.28,0,0,1-.42,0L39.26,2l-.5.64a.28.28,0,0,1-.42,0L37.84,2l-.5.64a.27.27,0,0,1-.21.1"/><path class="cls-3" d="M37.12,15a.27.27,0,0,1-.21-.1l-.5-.64-.5.64a.28.28,0,0,1-.42,0l-.5-.64-.5.64a.26.26,0,0,1-.21.1.27.27,0,0,1-.21-.1l-.5-.64-.5.64a.27.27,0,1,1-.42-.33l.71-.92a.27.27,0,0,1,.21-.1.27.27,0,0,1,.21.1l.5.64.5-.64a.28.28,0,0,1,.42,0l.5.64.5-.64a.27.27,0,0,1,.42,0l.71.92a.27.27,0,0,1-.21.43"/><path class="cls-3" d="M37.12,15a.27.27,0,0,1-.21-.43l.71-.92a.28.28,0,0,1,.42,0l.5.64.5-.64a.28.28,0,0,1,.42,0l.5.64.5-.64a.28.28,0,0,1,.42,0l.71.92a.27.27,0,1,1-.42.33l-.5-.64-.5.64a.28.28,0,0,1-.42,0l-.5-.64-.5.64a.28.28,0,0,1-.42,0l-.5-.64-.5.64a.27.27,0,0,1-.21.1"/><path class="cls-3" d="M32.85,15a.27.27,0,0,1-.27-.27V2.5a.27.27,0,0,1,.54,0V14.7a.27.27,0,0,1-.27.27"/><path class="cls-3" d="M41.4,15a.27.27,0,0,1-.27-.27V2.5a.27.27,0,0,1,.53,0V14.7a.27.27,0,0,1-.27.27"/><path class="cls-3" d="M39.6,6.05H34.73a.27.27,0,0,1,0-.53H39.6a.27.27,0,1,1,0,.53"/><path class="cls-3" d="M39.6,8.54H34.73a.27.27,0,0,1,0-.53H39.6a.27.27,0,1,1,0,.53"/><path class="cls-3" d="M39.6,11.08H34.73a.27.27,0,0,1,0-.53H39.6a.27.27,0,1,1,0,.53"/><path class="cls-3" d="M45.36,22H5.64a1,1,0,0,1-1.1-.89V17.32a1,1,0,0,1,1.1-.89H45.36a1,1,0,0,1,1.1.89v3.82a1,1,0,0,1-1.1.89M5.64,17c-.3,0-.56.17-.56.36v3.82c0,.19.26.36.56.36H45.36c.3,0,.56-.17.56-.36V17.32c0-.19-.26-.36-.56-.36Z"/><path class="cls-3" d="M45.36,37.78H5.64a1,1,0,0,1-1.1-.89V33.07a1,1,0,0,1,1.1-.89H45.36a1,1,0,0,1,1.1.89v3.82a1,1,0,0,1-1.1.89M5.64,32.71c-.3,0-.56.17-.56.36v3.82c0,.19.26.36.56.36H45.36c.3,0,.56-.17.56-.36V33.07c0-.19-.26-.36-.56-.36Z"/><path class="cls-3" d="M44.63,32.71H6.47c-.62,0-1.1-.35-1.1-.8V22.29c0-.45.48-.8,1.1-.8H44.63c.61,0,1.1.35,1.1.8v9.62c0,.45-.48.8-1.1.8M6.47,22c-.34,0-.56.16-.56.27v9.62c0,.11.22.26.56.26H44.63c.34,0,.56-.16.56-.26V22.29c0-.11-.22-.27-.56-.27Z"/><path class="cls-3" d="M20.74,13.68H9.11A4.42,4.42,0,0,1,4.69,9.26v0A4.42,4.42,0,0,1,9.11,4.81H20.74a4.42,4.42,0,0,1,4.42,4.42v0a4.42,4.42,0,0,1-4.42,4.42M9.11,5.34A3.89,3.89,0,0,0,5.23,9.22v0a3.89,3.89,0,0,0,3.88,3.88H20.74a3.89,3.89,0,0,0,3.88-3.88v0a3.89,3.89,0,0,0-3.88-3.88Z"/><rect class="cls-3" x="8.2" y="23.96" width="0.53" height="5.99"/><rect class="cls-3" x="10.39" y="23.96" width="0.53" height="5.99"/><rect class="cls-3" x="12.59" y="23.96" width="0.53" height="5.99"/><rect class="cls-3" x="14.78" y="23.96" width="0.53" height="5.99"/><path class="cls-3" d="M40.44,28.13a2.22,2.22,0,1,1,2.22-2.22,2.22,2.22,0,0,1-2.22,2.22m0-3.9a1.68,1.68,0,1,0,1.68,1.68,1.68,1.68,0,0,0-1.68-1.68"/><path class="cls-3" d="M35.09,28.13a2.22,2.22,0,1,1,2.22-2.22,2.22,2.22,0,0,1-2.22,2.22m0-3.9a1.68,1.68,0,1,0,1.68,1.68,1.68,1.68,0,0,0-1.68-1.68"/><rect class="cls-3" x="7.77" y="13.27" width="0.53" height="3.42"/><rect class="cls-3" x="10.39" y="13.41" width="0.53" height="3.28"/><rect class="cls-3" x="19.08" y="13.27" width="0.53" height="3.42"/><rect class="cls-3" x="21.7" y="13.41" width="0.53" height="3.28"/><path class="cls-3" d="M41.56,17H32.69a1.1,1.1,0,0,1-1.1-1.1v-.33a1.1,1.1,0,0,1,1.1-1.1h8.87a1.1,1.1,0,0,1,1.1,1.1v.33a1.1,1.1,0,0,1-1.1,1.1m-8.87-2a.56.56,0,0,0-.56.56v.33a.56.56,0,0,0,.56.56h8.87a.56.56,0,0,0,.56-.56v-.33a.56.56,0,0,0-.56-.56Z"/></svg>