<svg id="Layer_1" data-name="Layer 1" xmlns="http://www.w3.org/2000/svg" viewBox="0 0 51 38"><defs><style>.cls-1{fill:#f6d056;}.cls-1,.cls-2,.cls-3{stroke:#404040;stroke-miterlimit:10;stroke-width:0.75px;}.cls-2{fill:#f15f2e;}.cls-3{fill:none;stroke-linecap:round;}</style></defs><title>iSHOP Dashboard_Elements</title><path class="cls-1" d="M11.84,37.78a3.44,3.44,0,0,1-3.41-3L6.12,16.22H45.38l-2.3,18.54a3.44,3.44,0,0,1-3.41,3Zm-.64-18.33a1.11,1.11,0,0,0-1,1.23l1.54,13.41a1.11,1.11,0,0,0,1.1,1H13a1.11,1.11,0,0,0,1-1.23L12.42,20.42a1.11,1.11,0,0,0-1.1-1h-.13m14.48-.14a1.11,1.11,0,0,0-1.11,1.11v13.5a1.11,1.11,0,0,0,2.22,0V20.42a1.11,1.11,0,0,0-1.11-1.11m-7.32,0a1.11,1.11,0,0,0-1,1.19L18.3,34a1.12,1.12,0,0,0,1.11,1,1.13,1.13,0,0,0,1.11-1.19l-1-13.46a1.11,1.11,0,0,0-1.11-1Zm21.58,0a1.11,1.11,0,0,0-1.1,1L37.29,33.75a1.11,1.11,0,0,0,1,1.23h.13a1.11,1.11,0,0,0,1.1-1L41,20.6a1.11,1.11,0,0,0-1-1.23h-.13m-7.11-.11a1.11,1.11,0,0,0-1.11,1l-1,13.46a1.11,1.11,0,0,0,1,1.19h0a1.13,1.13,0,0,0,1.18-1l1-13.46a1.11,1.11,0,0,0-1-1.19Z"/><path class="cls-2" d="M4.77,18.81V13.09A1.59,1.59,0,0,1,6.35,11.5H44.65a1.59,1.59,0,0,1,1.59,1.59v5.72Z"/><line class="cls-3" x1="10.96" y1="14.95" x2="24.29" y2="1.62"/><line class="cls-3" x1="39.9" y1="14.95" x2="26.56" y2="1.62"/></svg>