<svg xmlns="http://www.w3.org/2000/svg" xmlns:xlink="http://www.w3.org/1999/xlink" viewBox="0 0 51 38"><defs><style>.cls-1{fill:none;}.cls-2{isolation:isolate;}.cls-3{opacity:0.25;mix-blend-mode:multiply;}.cls-4{clip-path:url(#clip-path);}.cls-5{fill:#2d2d2e;}.cls-6{fill:#a3a3a3;}.cls-7{clip-path:url(#clip-path-2);}.cls-8{fill:#c9c9c9;}.cls-9{fill:#404040;}.cls-10{fill:#8dc63f;}.cls-11{fill:#abe254;}.cls-12{fill:#f7dfa9;}.cls-13{opacity:0.3;}.cls-14{clip-path:url(#clip-path-3);}.cls-15{fill:#fff;}.cls-16{clip-path:url(#clip-path-4);}.cls-17{clip-path:url(#clip-path-5);}.cls-18{clip-path:url(#clip-path-6);}.cls-19{clip-path:url(#clip-path-7);}.cls-20{fill:#d9e4e8;}.cls-21{fill:#f6d056;}.cls-22{fill:#e5c213;}.cls-23{clip-path:url(#clip-path-8);}.cls-24{clip-path:url(#clip-path-9);}.cls-25{clip-path:url(#clip-path-10);}.cls-26{clip-path:url(#clip-path-11);}.cls-27{fill:#45a5da;}.cls-28{fill:#34a1e0;}.cls-29{clip-path:url(#clip-path-12);}.cls-30{clip-path:url(#clip-path-13);}.cls-31{clip-path:url(#clip-path-14);}.cls-32{clip-path:url(#clip-path-15);}.cls-33{fill:#f15f2e;}.cls-34{fill:#750606;}.cls-35{clip-path:url(#clip-path-16);}.cls-36{clip-path:url(#clip-path-17);}.cls-37{fill:#f7f7e4;}.cls-38{fill:#7aa9e2;}.cls-39{fill:#ffe394;}.cls-40{fill:#ffb194;}.cls-41{fill:#dfe9ea;}.cls-42{fill:#5e3e24;}.cls-43{fill:#ced7d8;}.cls-44{clip-path:url(#clip-path-18);}.cls-45{clip-path:url(#clip-path-19);}.cls-46{clip-path:url(#clip-path-20);}.cls-47{clip-path:url(#clip-path-21);}</style><clipPath id="clip-path"><rect class="cls-1" x="6.51" y="5.79" width="3.38" height="31.74"/></clipPath><clipPath id="clip-path-2"><rect class="cls-1" x="5.91" y="10.06" width="39.11" height="27.23"/></clipPath><clipPath id="clip-path-3"><rect class="cls-1" x="28.55" y="13.69" width="0.89" height="3.96"/></clipPath><clipPath id="clip-path-4"><rect class="cls-1" x="31.75" y="13.69" width="0.89" height="3.96"/></clipPath><clipPath id="clip-path-5"><rect class="cls-1" x="34.95" y="13.69" width="0.89" height="3.96"/></clipPath><clipPath id="clip-path-6"><rect class="cls-1" x="38.15" y="13.69" width="0.89" height="3.96"/></clipPath><clipPath id="clip-path-7"><rect class="cls-1" x="41.36" y="13.69" width="0.89" height="3.96"/></clipPath><clipPath id="clip-path-8"><rect class="cls-1" x="8.75" y="31.66" width="0.96" height="3.59"/></clipPath><clipPath id="clip-path-9"><rect class="cls-1" x="12.26" y="31.66" width="0.96" height="3.59"/></clipPath><clipPath id="clip-path-10"><rect class="cls-1" x="15.77" y="31.66" width="0.96" height="3.59"/></clipPath><clipPath id="clip-path-11"><rect class="cls-1" x="19.28" y="31.66" width="0.96" height="3.59"/></clipPath><clipPath id="clip-path-12"><rect class="cls-1" x="23.49" y="32.28" width="0.83" height="3.09"/></clipPath><clipPath id="clip-path-13"><rect class="cls-1" x="26.53" y="32.28" width="0.83" height="3.09"/></clipPath><clipPath id="clip-path-14"><rect class="cls-1" x="29.58" y="32.28" width="0.83" height="3.09"/></clipPath><clipPath id="clip-path-15"><rect class="cls-1" x="32.63" y="32.28" width="0.83" height="3.09"/></clipPath><clipPath id="clip-path-16"><rect class="cls-1" x="40.75" y="30.83" width="1.14" height="4.26"/></clipPath><clipPath id="clip-path-17"><rect class="cls-1" x="36.59" y="30.83" width="1.14" height="4.26"/></clipPath><clipPath id="clip-path-18"><rect class="cls-1" x="9.01" y="4.83" width="0.96" height="3.84"/></clipPath><clipPath id="clip-path-19"><rect class="cls-1" x="12.85" y="4.83" width="0.96" height="3.84"/></clipPath><clipPath id="clip-path-20"><rect class="cls-1" x="16.7" y="4.83" width="0.96" height="3.84"/></clipPath><clipPath id="clip-path-21"><rect class="cls-1" x="20.55" y="4.83" width="0.96" height="3.84"/></clipPath></defs><title>iSHOP Dashboard_Elements</title><g class="cls-2"><g id="Layer_1" data-name="Layer 1"><g class="cls-3"><g class="cls-4"><rect class="cls-5" x="6.51" y="5.79" width="3.38" height="31.74"/></g></g><rect class="cls-6" x="5.91" y="10.28" width="39.11" height="26.53"/><g class="cls-3"><g class="cls-7"><polygon class="cls-5" points="45.01 13.37 45.01 10.63 10.68 10.63 10.68 10.06 5.91 10.06 5.91 37.29 10.68 37.29 10.68 31.66 45.01 31.66 45.01 28.92 10.68 28.92 10.68 22.52 45.01 22.52 45.01 19.78 10.68 19.78 10.68 13.37 45.01 13.37"/></g></g><rect class="cls-8" x="5.57" y="27.79" width="39.85" height="1.14"/><path class="cls-9" d="M45.67,29.17H5.33V27.54H45.67ZM5.82,28.67H45.18V28H5.82Z"/><rect class="cls-8" x="5.58" y="18.64" width="39.44" height="1.14"/><path class="cls-9" d="M45.26,20H5.33V18.39H45.26ZM5.82,19.53H44.77v-.64H5.82Z"/><rect class="cls-8" x="5.58" y="9.49" width="39.44" height="1.14"/><path class="cls-9" d="M45.26,10.88H5.33V9.25H45.26ZM5.82,10.38H44.77V9.74H5.82Z"/><path class="cls-10" d="M29.7,12.46v-.87s0-.09,0-.14h-.88s0,.09,0,.14v.87a1.16,1.16,0,0,1-.43.94.87.87,0,0,0-.4.68v3.82c0,.45.28.48.63.48h1.3c.35,0,.63,0,.63-.48V14.08a.85.85,0,0,0-.41-.67,1.16,1.16,0,0,1-.44-.95"/><path class="cls-9" d="M29.92,18.49h-1.3c-.3,0-.75,0-.75-.6V14.08a1,1,0,0,1,.45-.78,1,1,0,0,0,.38-.84v-.87s0-.08,0-.12v-.14h1.16v.14s0,.08,0,.13v.87a1,1,0,0,0,.39.84,1,1,0,0,1,.46.77v3.81c0,.6-.45.6-.75.6m-1-6.92h0v.87a1.29,1.29,0,0,1-.48,1,.76.76,0,0,0-.35.58v3.81c0,.33.14.36.51.36h1.3c.37,0,.51,0,.51-.36V14.08a.72.72,0,0,0-.36-.57,1.28,1.28,0,0,1-.49-1v-.87h-.62Z"/><rect class="cls-11" x="28" y="14.28" width="2.55" height="2.78"/><path class="cls-9" d="M29.92,18.49h-1.3c-.3,0-.75,0-.75-.6V14.08a1,1,0,0,1,.45-.78,1,1,0,0,0,.38-.84v-.87s0-.08,0-.12v-.14h1.16v.14s0,.08,0,.13v.87a1,1,0,0,0,.39.84,1,1,0,0,1,.46.77v3.81c0,.6-.45.6-.75.6m-1-6.92h0v.87a1.29,1.29,0,0,1-.48,1,.76.76,0,0,0-.35.58v3.81c0,.33.14.36.51.36h1.3c.37,0,.51,0,.51-.36V14.08a.72.72,0,0,0-.36-.57,1.28,1.28,0,0,1-.49-1v-.87h-.62Z"/><path class="cls-12" d="M29.7,11h-.86a.32.32,0,0,0-.29.33v.22a.32.32,0,0,0,.29.33h.86a.32.32,0,0,0,.29-.33v-.22A.32.32,0,0,0,29.7,11"/><g class="cls-13"><g class="cls-14"><path class="cls-15" d="M29.44,17.2a.45.45,0,0,1-.89,0V14.13a.45.45,0,1,1,.89,0Z"/></g></g><path class="cls-10" d="M32.9,12.46v-.87a1.25,1.25,0,0,1,0-.14H32s0,.09,0,.14v.87a1.16,1.16,0,0,1-.43.94.88.88,0,0,0-.4.68v3.82c0,.45.28.48.63.48h1.3c.35,0,.63,0,.63-.48V14.08a.86.86,0,0,0-.41-.67,1.16,1.16,0,0,1-.44-.95"/><path class="cls-9" d="M33.12,18.49h-1.3c-.3,0-.75,0-.75-.6V14.08a1,1,0,0,1,.45-.78,1,1,0,0,0,.38-.84v-.87a1.23,1.23,0,0,0,0-.12l0-.14H33l0,.14a1,1,0,0,0,0,.12v.87a1,1,0,0,0,.39.84,1,1,0,0,1,.46.77v3.81c0,.6-.45.6-.75.6m-1-6.92h0v.87a1.29,1.29,0,0,1-.48,1,.76.76,0,0,0-.35.58v3.81c0,.33.14.36.5.36h1.3c.37,0,.51,0,.51-.36V14.08a.73.73,0,0,0-.36-.57,1.27,1.27,0,0,1-.49-1v-.87h-.62Z"/><rect class="cls-11" x="31.2" y="14.28" width="2.55" height="2.78"/><path class="cls-9" d="M33.12,18.49h-1.3c-.3,0-.75,0-.75-.6V14.08a1,1,0,0,1,.45-.78,1,1,0,0,0,.38-.84v-.87a1.23,1.23,0,0,0,0-.12l0-.14H33l0,.14a1,1,0,0,0,0,.12v.87a1,1,0,0,0,.39.84,1,1,0,0,1,.46.77v3.81c0,.6-.45.6-.75.6m-1-6.92h0v.87a1.29,1.29,0,0,1-.48,1,.76.76,0,0,0-.35.58v3.81c0,.33.14.36.5.36h1.3c.37,0,.51,0,.51-.36V14.08a.73.73,0,0,0-.36-.57,1.27,1.27,0,0,1-.49-1v-.87h-.62Z"/><path class="cls-12" d="M32.9,11H32a.32.32,0,0,0-.3.33v.22a.32.32,0,0,0,.3.33h.86a.32.32,0,0,0,.29-.33v-.22A.32.32,0,0,0,32.9,11"/><g class="cls-13"><g class="cls-16"><path class="cls-15" d="M32.64,17.2a.45.45,0,0,1-.89,0V14.13a.45.45,0,1,1,.89,0Z"/></g></g><path class="cls-10" d="M36.1,12.46v-.87s0-.09,0-.14h-.88s0,.09,0,.14v.87a1.16,1.16,0,0,1-.43.94.87.87,0,0,0-.4.68v3.82c0,.45.28.48.63.48h1.3c.35,0,.63,0,.63-.48V14.08a.85.85,0,0,0-.41-.67,1.16,1.16,0,0,1-.44-.95"/><path class="cls-9" d="M36.32,18.49H35c-.3,0-.75,0-.75-.6V14.08a1,1,0,0,1,.45-.78,1,1,0,0,0,.38-.84v-.87s0-.08,0-.12l0-.14h1.16l0,.14s0,.08,0,.13v.87a1,1,0,0,0,.39.84,1,1,0,0,1,.46.77v3.81c0,.6-.45.6-.75.6m-1-6.92h0v.87a1.29,1.29,0,0,1-.48,1,.76.76,0,0,0-.35.58v3.81c0,.33.14.36.5.36h1.3c.37,0,.5,0,.5-.36V14.08a.72.72,0,0,0-.36-.57,1.28,1.28,0,0,1-.49-1v-.87h-.62Z"/><rect class="cls-11" x="34.4" y="14.28" width="2.55" height="2.78"/><path class="cls-9" d="M36.32,18.49H35c-.3,0-.75,0-.75-.6V14.08a1,1,0,0,1,.45-.78,1,1,0,0,0,.38-.84v-.87s0-.08,0-.12l0-.14h1.16l0,.14s0,.08,0,.13v.87a1,1,0,0,0,.39.84,1,1,0,0,1,.46.77v3.81c0,.6-.45.6-.75.6m-1-6.92h0v.87a1.29,1.29,0,0,1-.48,1,.76.76,0,0,0-.35.58v3.81c0,.33.14.36.5.36h1.3c.37,0,.5,0,.5-.36V14.08a.72.72,0,0,0-.36-.57,1.28,1.28,0,0,1-.49-1v-.87h-.62Z"/><path class="cls-12" d="M36.1,11h-.86a.32.32,0,0,0-.29.33v.22a.32.32,0,0,0,.29.33h.86a.32.32,0,0,0,.3-.33v-.22a.32.32,0,0,0-.3-.33"/><g class="cls-13"><g class="cls-17"><path class="cls-15" d="M35.84,17.2a.45.45,0,0,1-.89,0V14.13a.45.45,0,1,1,.89,0Z"/></g></g><path class="cls-10" d="M39.3,12.46v-.87a1.25,1.25,0,0,1,0-.14h-.89s0,.09,0,.14v.87a1.16,1.16,0,0,1-.43.94.87.87,0,0,0-.4.68v3.82c0,.45.28.48.63.48h1.3c.35,0,.63,0,.63-.48V14.08a.86.86,0,0,0-.41-.67,1.16,1.16,0,0,1-.44-.95"/><path class="cls-9" d="M39.53,18.49h-1.3c-.3,0-.75,0-.75-.6V14.08a1,1,0,0,1,.45-.78,1,1,0,0,0,.38-.84v-.87a1.23,1.23,0,0,0,0-.12l0-.14h1.16v.14s0,.08,0,.12v.87a1,1,0,0,0,.39.84,1,1,0,0,1,.46.77v3.81c0,.6-.45.6-.75.6m-1-6.92h0v.87a1.29,1.29,0,0,1-.48,1,.76.76,0,0,0-.35.58v3.81c0,.33.14.36.51.36h1.3c.37,0,.51,0,.51-.36V14.08a.72.72,0,0,0-.36-.57,1.27,1.27,0,0,1-.49-1v-.87h-.62Z"/><rect class="cls-11" x="37.61" y="14.28" width="2.55" height="2.78"/><path class="cls-9" d="M39.53,18.49h-1.3c-.3,0-.75,0-.75-.6V14.08a1,1,0,0,1,.45-.78,1,1,0,0,0,.38-.84v-.87a1.23,1.23,0,0,0,0-.12l0-.14h1.16v.14s0,.08,0,.12v.87a1,1,0,0,0,.39.84,1,1,0,0,1,.46.77v3.81c0,.6-.45.6-.75.6m-1-6.92h0v.87a1.29,1.29,0,0,1-.48,1,.76.76,0,0,0-.35.58v3.81c0,.33.14.36.51.36h1.3c.37,0,.51,0,.51-.36V14.08a.72.72,0,0,0-.36-.57,1.27,1.27,0,0,1-.49-1v-.87h-.62Z"/><path class="cls-12" d="M39.31,11h-.86a.32.32,0,0,0-.3.33v.22a.32.32,0,0,0,.3.33h.86a.32.32,0,0,0,.29-.33v-.22a.32.32,0,0,0-.29-.33"/><g class="cls-13"><g class="cls-18"><path class="cls-15" d="M39,17.2a.45.45,0,0,1-.89,0V14.13a.45.45,0,1,1,.89,0Z"/></g></g><path class="cls-10" d="M42.5,12.46v-.87a1.25,1.25,0,0,1,0-.14h-.89s0,.09,0,.14v.87a1.16,1.16,0,0,1-.43.94.87.87,0,0,0-.4.68v3.82c0,.45.28.48.63.48h1.3c.35,0,.63,0,.63-.48V14.08a.85.85,0,0,0-.41-.67,1.16,1.16,0,0,1-.44-.95"/><path class="cls-9" d="M42.73,18.49h-1.3c-.3,0-.75,0-.75-.6V14.08a1,1,0,0,1,.45-.78,1,1,0,0,0,.38-.84v-.87s0-.08,0-.12v-.14h1.16l0,.14s0,.08,0,.12v.87a1,1,0,0,0,.39.84,1,1,0,0,1,.46.77v3.81c0,.6-.45.6-.75.6m-1-6.92h0v.87a1.29,1.29,0,0,1-.48,1,.76.76,0,0,0-.35.58v3.81c0,.33.14.36.51.36h1.3c.37,0,.51,0,.51-.36V14.08a.72.72,0,0,0-.36-.57,1.28,1.28,0,0,1-.49-1v-.87h-.62Z"/><rect class="cls-11" x="40.81" y="14.28" width="2.55" height="2.78"/><path class="cls-9" d="M42.73,18.49h-1.3c-.3,0-.75,0-.75-.6V14.08a1,1,0,0,1,.45-.78,1,1,0,0,0,.38-.84v-.87s0-.08,0-.12v-.14h1.16l0,.14s0,.08,0,.12v.87a1,1,0,0,0,.39.84,1,1,0,0,1,.46.77v3.81c0,.6-.45.6-.75.6m-1-6.92h0v.87a1.29,1.29,0,0,1-.48,1,.76.76,0,0,0-.35.58v3.81c0,.33.14.36.51.36h1.3c.37,0,.51,0,.51-.36V14.08a.72.72,0,0,0-.36-.57,1.28,1.28,0,0,1-.49-1v-.87h-.62Z"/><path class="cls-12" d="M42.51,11h-.86a.32.32,0,0,0-.29.33v.22a.32.32,0,0,0,.29.33h.86a.32.32,0,0,0,.29-.33v-.22a.31.31,0,0,0-.29-.33"/><g class="cls-13"><g class="cls-19"><path class="cls-15" d="M42.25,17.2a.45.45,0,0,1-.89,0V14.13a.45.45,0,1,1,.89,0Z"/></g></g><path class="cls-20" d="M10.57,31.3c0,.07-.09.13-.2.13H9.11c-.11,0-.2-.06-.2-.13v-.52c0-.07.09-.13.2-.13h1.26c.11,0,.2.06.2.13Z"/><path class="cls-21" d="M11,36.13a.25.25,0,0,0,.24-.26v-4c0-.6-.33-.77-.66-.77H9c-.36,0-.69.18-.69.77l0,4a.25.25,0,0,0,.24.26Z"/><polygon class="cls-22" points="8.31 34.92 11.21 34.92 11.21 32.31 8.29 32.31 8.31 34.92"/><path class="cls-9" d="M11,36.25H8.56a.37.37,0,0,1-.37-.38l0-4c0-.57.3-.9.81-.9h1.57c.49,0,.78.33.78.9v4a.37.37,0,0,1-.37.38m-2-5c-.38,0-.56.21-.56.65l0,4a.13.13,0,0,0,.12.13H11a.13.13,0,0,0,.12-.13v-4c0-.43-.18-.65-.53-.65Z"/><g class="cls-13"><g class="cls-23"><path class="cls-15" d="M9.71,34.77a.48.48,0,0,1-1,0V32.14a.48.48,0,0,1,1,0Z"/></g></g><path class="cls-20" d="M14.08,31.3c0,.07-.09.13-.2.13H12.62c-.11,0-.2-.06-.2-.13v-.52c0-.07.09-.13.2-.13h1.26c.11,0,.2.06.2.13Z"/><path class="cls-21" d="M14.47,36.13a.25.25,0,0,0,.24-.26v-4c0-.6-.33-.77-.66-.77H12.49c-.36,0-.69.18-.69.77l0,4a.25.25,0,0,0,.24.26Z"/><polygon class="cls-22" points="11.82 34.92 14.72 34.92 14.72 32.31 11.8 32.31 11.82 34.92"/><path class="cls-9" d="M14.47,36.25h-2.4a.37.37,0,0,1-.37-.38l0-4c0-.57.29-.9.81-.9h1.57c.49,0,.78.33.78.9v4a.37.37,0,0,1-.37.38m-2-5c-.38,0-.56.21-.56.65l0,4a.13.13,0,0,0,.12.13h2.4a.13.13,0,0,0,.12-.13v-4c0-.43-.18-.65-.53-.65Z"/><g class="cls-13"><g class="cls-24"><path class="cls-15" d="M13.22,34.77a.48.48,0,0,1-1,0V32.14a.48.48,0,0,1,1,0Z"/></g></g><path class="cls-20" d="M17.59,31.3c0,.07-.09.13-.2.13H16.13c-.11,0-.2-.06-.2-.13v-.52c0-.07.09-.13.2-.13h1.26c.11,0,.2.06.2.13Z"/><path class="cls-21" d="M18,36.13a.25.25,0,0,0,.24-.26v-4c0-.6-.33-.77-.66-.77H16c-.36,0-.69.18-.69.77l0,4a.25.25,0,0,0,.24.26Z"/><polygon class="cls-22" points="15.33 34.92 18.23 34.92 18.23 32.31 15.31 32.31 15.33 34.92"/><path class="cls-9" d="M18,36.25h-2.4a.37.37,0,0,1-.37-.38l0-4c0-.57.29-.9.81-.9h1.57c.49,0,.78.33.78.9v4a.37.37,0,0,1-.37.38m-2-5c-.38,0-.56.21-.56.65l0,4a.13.13,0,0,0,.12.13H18a.13.13,0,0,0,.12-.13v-4c0-.43-.18-.65-.53-.65Z"/><g class="cls-13"><g class="cls-25"><path class="cls-15" d="M16.73,34.77a.48.48,0,0,1-1,0V32.14a.48.48,0,0,1,1,0Z"/></g></g><path class="cls-20" d="M21.1,31.3c0,.07-.09.13-.2.13H19.64c-.11,0-.2-.06-.2-.13v-.52c0-.07.09-.13.2-.13H20.9c.11,0,.2.06.2.13Z"/><path class="cls-21" d="M21.49,36.13a.25.25,0,0,0,.24-.26v-4c0-.6-.33-.77-.66-.77H19.51c-.36,0-.69.18-.69.77l0,4a.25.25,0,0,0,.24.26Z"/><polygon class="cls-22" points="18.84 34.92 21.74 34.92 21.74 32.31 18.82 32.31 18.84 34.92"/><path class="cls-9" d="M21.49,36.25h-2.4a.37.37,0,0,1-.37-.38l0-4c0-.57.29-.9.81-.9h1.57c.49,0,.78.33.78.9v4a.37.37,0,0,1-.37.38m-2-5c-.38,0-.56.21-.56.65l0,4a.13.13,0,0,0,.12.13h2.4a.13.13,0,0,0,.12-.13v-4c0-.43-.18-.65-.53-.65Z"/><g class="cls-13"><g class="cls-26"><path class="cls-15" d="M20.24,34.77a.48.48,0,0,1-1,0V32.14a.48.48,0,0,1,1,0Z"/></g></g><path class="cls-20" d="M25.05,32c0,.06-.08.11-.17.11H23.79c-.1,0-.17,0-.17-.11v-.45c0-.06.08-.11.17-.11h1.08c.09,0,.17,0,.17.11Z"/><path class="cls-27" d="M25.39,36.13a.22.22,0,0,0,.21-.22V32.48c0-.51-.28-.67-.57-.67H23.68c-.31,0-.59.15-.59.67l0,3.43a.22.22,0,0,0,.21.22Z"/><polygon class="cls-28" points="23.11 35.09 25.6 35.09 25.6 32.84 23.09 32.84 23.11 35.09"/><path class="cls-9" d="M25.39,36.25H23.32a.34.34,0,0,1-.33-.34l0-3.43c0-.5.26-.79.72-.79H25c.43,0,.69.29.69.79v3.43a.34.34,0,0,1-.33.34m-1.71-4.31c-.32,0-.47.18-.47.54l0,3.43a.09.09,0,0,0,.09.1h2.07a.09.09,0,0,0,.09-.1V32.48c0-.36-.15-.54-.44-.54Z"/><g class="cls-13"><g class="cls-29"><path class="cls-15" d="M24.31,35a.41.41,0,0,1-.83,0V32.69a.41.41,0,0,1,.83,0Z"/></g></g><path class="cls-20" d="M28.1,32c0,.06-.08.11-.17.11H26.84c-.1,0-.17,0-.17-.11v-.45c0-.06.08-.11.17-.11h1.09c.09,0,.17,0,.17.11Z"/><path class="cls-27" d="M28.44,36.13a.22.22,0,0,0,.21-.22V32.48c0-.51-.28-.67-.57-.67H26.73c-.31,0-.59.15-.59.67l0,3.43a.22.22,0,0,0,.21.22Z"/><polygon class="cls-28" points="26.16 35.09 28.65 35.09 28.65 32.84 26.14 32.84 26.16 35.09"/><path class="cls-9" d="M28.44,36.25H26.37a.34.34,0,0,1-.33-.34l0-3.43c0-.5.26-.79.72-.79h1.35c.43,0,.69.29.69.79v3.43a.34.34,0,0,1-.33.34m-1.71-4.31c-.32,0-.47.18-.47.54l0,3.43a.09.09,0,0,0,.09.1h2.07a.09.09,0,0,0,.09-.1V32.48c0-.36-.15-.54-.44-.54Z"/><g class="cls-13"><g class="cls-30"><path class="cls-15" d="M27.36,35a.41.41,0,0,1-.83,0V32.69a.41.41,0,0,1,.83,0Z"/></g></g><path class="cls-20" d="M31.15,32c0,.06-.08.11-.17.11H29.89c-.1,0-.17,0-.17-.11v-.45c0-.06.08-.11.17-.11H31c.1,0,.17,0,.17.11Z"/><path class="cls-27" d="M31.49,36.13a.22.22,0,0,0,.21-.22V32.48c0-.51-.28-.67-.57-.67H29.78c-.31,0-.59.15-.59.67l0,3.43a.22.22,0,0,0,.21.22Z"/><polygon class="cls-28" points="29.2 35.09 31.7 35.09 31.7 32.84 29.19 32.84 29.2 35.09"/><path class="cls-9" d="M31.49,36.25H29.42a.34.34,0,0,1-.33-.34l0-3.43c0-.5.26-.79.72-.79h1.35c.43,0,.69.29.69.79v3.43a.34.34,0,0,1-.33.34m-1.71-4.31c-.32,0-.47.18-.47.54l0,3.43a.09.09,0,0,0,.09.1h2.07a.09.09,0,0,0,.09-.1V32.48c0-.36-.15-.54-.44-.54Z"/><g class="cls-13"><g class="cls-31"><path class="cls-15" d="M30.41,35a.41.41,0,0,1-.83,0V32.69a.41.41,0,0,1,.83,0Z"/></g></g><path class="cls-20" d="M34.2,32c0,.06-.08.11-.17.11H32.94c-.1,0-.17,0-.17-.11v-.45c0-.06.08-.11.17-.11H34c.1,0,.17,0,.17.11Z"/><path class="cls-27" d="M34.54,36.13a.22.22,0,0,0,.21-.22V32.48c0-.51-.28-.67-.57-.67H32.83c-.31,0-.59.15-.59.67l0,3.43a.22.22,0,0,0,.21.22Z"/><polygon class="cls-28" points="32.25 35.09 34.75 35.09 34.75 32.84 32.24 32.84 32.25 35.09"/><path class="cls-9" d="M34.54,36.25H32.47a.34.34,0,0,1-.33-.34l0-3.43c0-.5.26-.79.72-.79h1.35c.43,0,.69.29.69.79v3.43a.34.34,0,0,1-.33.34m-1.71-4.31c-.32,0-.47.18-.47.54l0,3.43a.09.09,0,0,0,.09.1h2.07a.09.09,0,0,0,.09-.1V32.48c0-.36-.15-.54-.44-.54Z"/><g class="cls-13"><g class="cls-32"><path class="cls-15" d="M33.46,35a.41.41,0,0,1-.83,0V32.69a.41.41,0,0,1,.83,0Z"/></g></g><path class="cls-20" d="M42.91,30.41c0,.08-.11.15-.24.15H41.18c-.13,0-.24-.07-.24-.15v-.62c0-.08.11-.15.24-.15h1.49c.13,0,.24.07.24.15Z"/><path class="cls-33" d="M43.38,36.13a.3.3,0,0,0,.29-.3V31.11c0-.71-.39-.92-.78-.92H41c-.43,0-.82.21-.82.92l0,4.72a.3.3,0,0,0,.29.3Z"/><polygon class="cls-34" points="40.23 34.69 43.67 34.69 43.67 31.6 40.21 31.6 40.23 34.69"/><path class="cls-9" d="M43.38,36.25H40.53a.42.42,0,0,1-.41-.43l0-4.72c0-.91.59-1,.94-1h1.86c.27,0,.9.1.9,1v4.72a.42.42,0,0,1-.41.43M41,30.32c-.47,0-.69.26-.69.79l0,4.72a.17.17,0,0,0,.17.18h2.84a.17.17,0,0,0,.16-.18V31.11c0-.66-.36-.79-.65-.79Z"/><g class="cls-13"><g class="cls-35"><path class="cls-15" d="M41.89,34.52a.57.57,0,0,1-1.14,0V31.4a.57.57,0,0,1,1.14,0Z"/></g></g><path class="cls-20" d="M38.75,30.41c0,.08-.11.15-.24.15H37c-.13,0-.24-.07-.24-.15v-.62c0-.08.11-.15.24-.15h1.49c.13,0,.24.07.24.15Z"/><path class="cls-33" d="M39.22,36.13a.3.3,0,0,0,.29-.3V31.11c0-.71-.39-.92-.78-.92H36.86c-.43,0-.82.21-.82.92l0,4.72a.3.3,0,0,0,.29.3Z"/><polygon class="cls-34" points="36.07 34.69 39.51 34.69 39.51 31.6 36.05 31.6 36.07 34.69"/><path class="cls-9" d="M39.22,36.25H36.37a.42.42,0,0,1-.41-.43l0-4.72c0-.91.59-1,.94-1h1.86c.27,0,.9.1.9,1v4.72a.42.42,0,0,1-.41.43m-2.35-5.94c-.47,0-.69.26-.69.79l0,4.72a.17.17,0,0,0,.17.18h2.85a.17.17,0,0,0,.17-.18V31.11c0-.66-.36-.79-.66-.79Z"/><g class="cls-13"><g class="cls-36"><path class="cls-15" d="M37.73,34.52a.57.57,0,0,1-1.14,0V31.4a.57.57,0,0,1,1.14,0Z"/></g></g><polygon class="cls-8" points="44.52 6.02 44.52 36.4 6.48 36.4 6.48 6.02 5.57 6.02 5.57 36.4 5.57 37.54 6.48 37.54 44.52 37.54 44.97 37.54 45.43 37.54 45.43 6.02 44.52 6.02"/><path class="cls-9" d="M45.67,37.78H5.33v-32H6.73V36.15H44.27V5.78h1.4Zm-39.85-.5H45.18v-31h-.42V36.65H6.24V6.27H5.82Z"/><path class="cls-15" d="M9,20.42a.15.15,0,0,1,.14-.15h.66a.15.15,0,0,1,.14.15v.45H9Z"/><path class="cls-37" d="M8.91,20.71a0,0,0,0,1,0,0H10a0,0,0,0,1,0,0v.17H8.91Z"/><path class="cls-27" d="M8.74,21A.23.23,0,0,1,8.91,21h1.66a.23.23,0,0,1,.16.07l.35.36a.25.25,0,0,1,.07.17l0,5.93a.1.1,0,0,1-.1.1H8.39a.1.1,0,0,1-.1-.1l0-5.93a.25.25,0,0,1,.07-.17Z"/><path class="cls-38" d="M8.91,21a.23.23,0,0,0-.17.07l-.35.36a.24.24,0,0,0-.06.13h2.8a.24.24,0,0,0-.06-.12L10.73,21a.23.23,0,0,0-.16-.07Z"/><rect class="cls-9" x="8.29" y="21.4" width="2.85" height="0.25"/><path class="cls-9" d="M11,27.74H8.39a.21.21,0,0,1-.15-.06.23.23,0,0,1-.07-.16l0-5.93a.37.37,0,0,1,.1-.26l.35-.36a.35.35,0,0,1,.25-.11h1.66a.35.35,0,0,1,.25.11l.35.36a.37.37,0,0,1,.1.26l0,5.93a.22.22,0,0,1-.22.22m-2.6-.26H11l0-5.91a.12.12,0,0,0,0-.09l-.35-.36a.11.11,0,0,0-.08,0H8.91a.12.12,0,0,0-.08,0l-.35.36a.13.13,0,0,0,0,.09Z"/><path class="cls-15" d="M12.31,20.42a.15.15,0,0,1,.14-.15h.66a.15.15,0,0,1,.14.15v.45H12.3Z"/><path class="cls-37" d="M12.21,20.71a0,0,0,0,1,0,0h1.06a0,0,0,0,1,0,0v.17H12.21Z"/><path class="cls-27" d="M12,21a.23.23,0,0,1,.16-.07h1.66A.23.23,0,0,1,14,21l.35.36a.25.25,0,0,1,.07.17l0,5.93a.1.1,0,0,1-.1.1H11.69a.1.1,0,0,1-.1-.1l0-5.93a.25.25,0,0,1,.07-.17Z"/><path class="cls-38" d="M12.2,21A.23.23,0,0,0,12,21l-.35.36a.24.24,0,0,0-.06.13h2.8a.24.24,0,0,0-.06-.12L14,21a.23.23,0,0,0-.16-.07Z"/><rect class="cls-9" x="11.59" y="21.4" width="2.85" height="0.25"/><path class="cls-9" d="M14.31,27.74H11.69a.21.21,0,0,1-.15-.06.23.23,0,0,1-.07-.16l0-5.93a.37.37,0,0,1,.1-.26l.35-.36a.35.35,0,0,1,.25-.11h1.66a.35.35,0,0,1,.25.11l.35.36a.37.37,0,0,1,.1.26l0,5.93a.22.22,0,0,1-.22.22m-2.6-.26h2.57l0-5.91a.12.12,0,0,0,0-.09l-.35-.36a.11.11,0,0,0-.08,0H12.2a.1.1,0,0,0-.08,0l-.35.36a.13.13,0,0,0,0,.09Z"/><path class="cls-15" d="M15.6,20.42a.15.15,0,0,1,.14-.15h.66a.15.15,0,0,1,.14.15v.45H15.6Z"/><path class="cls-37" d="M15.51,20.71a0,0,0,0,1,0,0h1.06a0,0,0,0,1,0,0v.17H15.51Z"/><path class="cls-27" d="M15.34,21A.23.23,0,0,1,15.5,21h1.66a.23.23,0,0,1,.16.07l.35.36a.25.25,0,0,1,.07.17l0,5.93a.1.1,0,0,1-.1.1H15a.1.1,0,0,1-.1-.1l0-5.93A.25.25,0,0,1,15,21.4Z"/><path class="cls-38" d="M15.5,21a.23.23,0,0,0-.17.07L15,21.4a.24.24,0,0,0-.06.13h2.8a.24.24,0,0,0-.06-.12L17.32,21a.23.23,0,0,0-.16-.07Z"/><rect class="cls-9" x="14.89" y="21.4" width="2.85" height="0.25"/><path class="cls-9" d="M17.61,27.74H15a.21.21,0,0,1-.15-.06.23.23,0,0,1-.07-.16l0-5.93a.37.37,0,0,1,.1-.26l.35-.36a.35.35,0,0,1,.25-.11h1.66a.35.35,0,0,1,.25.11l.35.36a.37.37,0,0,1,.1.26l0,5.93a.22.22,0,0,1-.22.22M15,27.48h2.57l0-5.91a.12.12,0,0,0,0-.09l-.35-.36a.11.11,0,0,0-.08,0H15.5a.16.16,0,0,0-.08,0l-.35.36a.13.13,0,0,0,0,.09Z"/><path class="cls-15" d="M18.9,20.42a.15.15,0,0,1,.14-.15h.66a.15.15,0,0,1,.14.15v.45H18.9Z"/><path class="cls-37" d="M18.8,20.71a0,0,0,0,1,0,0H19.9a0,0,0,0,1,0,0v.17H18.8Z"/><path class="cls-27" d="M18.64,21A.23.23,0,0,1,18.8,21h1.66a.23.23,0,0,1,.16.07l.35.36a.25.25,0,0,1,.07.17l0,5.93a.1.1,0,0,1-.1.1H18.28a.1.1,0,0,1-.1-.1l0-5.93a.25.25,0,0,1,.07-.17Z"/><path class="cls-38" d="M18.8,21a.23.23,0,0,0-.17.07l-.35.36a.24.24,0,0,0-.06.13H21a.24.24,0,0,0-.06-.12L20.62,21a.23.23,0,0,0-.16-.07Z"/><rect class="cls-9" x="18.19" y="21.4" width="2.85" height="0.25"/><path class="cls-9" d="M20.91,27.74H18.28a.21.21,0,0,1-.15-.06.23.23,0,0,1-.07-.16l0-5.93a.37.37,0,0,1,.1-.26l.35-.36a.36.36,0,0,1,.26-.11h1.65a.35.35,0,0,1,.25.11l.35.36a.37.37,0,0,1,.1.26l0,5.93a.22.22,0,0,1-.22.22m-2.6-.26h2.57l0-5.91a.12.12,0,0,0,0-.09l-.35-.36a.11.11,0,0,0-.08,0H18.8a.13.13,0,0,0-.08,0l-.35.36a.13.13,0,0,0,0,.09Z"/><path class="cls-15" d="M24.74,4.17A.15.15,0,0,1,24.88,4h.66a.15.15,0,0,1,.14.15v.45h-.94Z"/><path class="cls-37" d="M24.64,4.46a0,0,0,0,1,0,0h1.06a0,0,0,0,1,0,0v.16H24.64Z"/><path class="cls-21" d="M24.47,4.79a.23.23,0,0,1,.16-.07h1.66a.22.22,0,0,1,.16.07l.35.36a.25.25,0,0,1,.07.17l0,3.77a.1.1,0,0,1-.1.1H24.12a.1.1,0,0,1-.1-.1l0-3.76a.25.25,0,0,1,.07-.17Z"/><path class="cls-39" d="M24.63,4.71a.23.23,0,0,0-.17.07l-.35.36a.25.25,0,0,0-.06.13h2.8a.24.24,0,0,0-.06-.12l-.35-.36a.22.22,0,0,0-.16-.07Z"/><rect class="cls-9" x="24.02" y="5.15" width="2.85" height="0.25"/><path class="cls-9" d="M26.74,9.32H24.12a.22.22,0,0,1-.22-.22l0-3.77a.38.38,0,0,1,.1-.26l.35-.36a.35.35,0,0,1,.25-.11h1.66a.35.35,0,0,1,.25.11l.35.37a.38.38,0,0,1,.1.26L27,9.1a.22.22,0,0,1-.22.22m-2.6-.26h2.57l0-3.74a.12.12,0,0,0,0-.09l-.35-.37a.11.11,0,0,0-.08,0H24.63a.11.11,0,0,0-.08,0l-.35.36a.13.13,0,0,0,0,.09Z"/><path class="cls-15" d="M28.07,4.17A.15.15,0,0,1,28.21,4h.66a.15.15,0,0,1,.14.15v.45h-.94Z"/><path class="cls-37" d="M28,4.46a0,0,0,0,1,0,0h1.06a0,0,0,0,1,0,0v.16H28Z"/><path class="cls-21" d="M27.8,4.79A.23.23,0,0,1,28,4.72h1.66a.23.23,0,0,1,.16.07l.35.36a.25.25,0,0,1,.07.17l0,3.77a.1.1,0,0,1-.1.1H27.45a.1.1,0,0,1-.1-.1l0-3.76a.26.26,0,0,1,.07-.17Z"/><path class="cls-39" d="M28,4.71a.23.23,0,0,0-.17.07l-.35.36a.25.25,0,0,0-.06.13h2.8a.25.25,0,0,0-.06-.12l-.35-.36a.22.22,0,0,0-.16-.07Z"/><rect class="cls-9" x="27.35" y="5.15" width="2.85" height="0.25"/><path class="cls-9" d="M30.07,9.32H27.45a.22.22,0,0,1-.22-.22l0-3.77a.37.37,0,0,1,.1-.26l.35-.36A.35.35,0,0,1,28,4.59h1.66a.35.35,0,0,1,.25.11l.35.37a.38.38,0,0,1,.1.26l0,3.77a.22.22,0,0,1-.22.22m-2.6-.26H30l0-3.74a.13.13,0,0,0,0-.09l-.35-.37a.11.11,0,0,0-.08,0H28a.1.1,0,0,0-.08,0l-.35.36a.13.13,0,0,0,0,.09Zm0,0"/><path class="cls-15" d="M31.4,4.17A.15.15,0,0,1,31.54,4h.66a.15.15,0,0,1,.14.15v.45h-.94Z"/><path class="cls-37" d="M31.3,4.46a0,0,0,0,1,0,0H32.4a0,0,0,0,1,0,0v.16H31.3Z"/><path class="cls-33" d="M31.13,4.79a.23.23,0,0,1,.16-.07H33a.22.22,0,0,1,.16.07l.35.36a.25.25,0,0,1,.07.17l0,3.77a.1.1,0,0,1-.1.1H30.78a.1.1,0,0,1-.1-.1l0-3.76a.26.26,0,0,1,.07-.17Z"/><path class="cls-40" d="M31.29,4.71a.23.23,0,0,0-.17.07l-.35.36a.24.24,0,0,0-.06.13h2.8a.24.24,0,0,0-.06-.12l-.35-.36a.22.22,0,0,0-.16-.07Z"/><rect class="cls-9" x="30.68" y="5.15" width="2.85" height="0.25"/><path class="cls-9" d="M33.4,9.32H30.78a.22.22,0,0,1-.22-.22l0-3.77a.37.37,0,0,1,.1-.26L31,4.7a.35.35,0,0,1,.25-.11H33a.35.35,0,0,1,.25.11l.35.37a.37.37,0,0,1,.1.26l0,3.76a.22.22,0,0,1-.22.22m-2.6-.26h2.57l0-3.74a.12.12,0,0,0,0-.09L33,4.88a.11.11,0,0,0-.08,0H31.29a.11.11,0,0,0-.08,0l-.35.36a.13.13,0,0,0,0,.09Z"/><path class="cls-15" d="M34.72,4.17A.15.15,0,0,1,34.87,4h.66a.15.15,0,0,1,.14.15v.45h-.94Z"/><path class="cls-37" d="M34.63,4.46a0,0,0,0,1,0,0h1.06a0,0,0,0,1,0,0v.16H34.63Z"/><path class="cls-33" d="M34.46,4.79a.23.23,0,0,1,.16-.07h1.66a.22.22,0,0,1,.16.07l.35.36a.25.25,0,0,1,.07.17l0,3.77a.1.1,0,0,1-.1.1H34.11a.1.1,0,0,1-.1-.1l0-3.76a.25.25,0,0,1,.07-.17Z"/><path class="cls-40" d="M34.62,4.71a.23.23,0,0,0-.17.07l-.35.36a.25.25,0,0,0-.06.13h2.8a.26.26,0,0,0-.06-.12l-.35-.36a.22.22,0,0,0-.16-.07Z"/><rect class="cls-9" x="34.01" y="5.15" width="2.85" height="0.25"/><path class="cls-9" d="M36.73,9.32H34.11a.22.22,0,0,1-.22-.22l0-3.77a.37.37,0,0,1,.1-.26l.35-.36a.35.35,0,0,1,.25-.11h1.66a.35.35,0,0,1,.25.11l.35.37a.38.38,0,0,1,.1.26L37,9.1a.22.22,0,0,1-.22.22m-2.6-.26h2.57l0-3.74a.12.12,0,0,0,0-.09l-.35-.37a.11.11,0,0,0-.08,0H34.62a.11.11,0,0,0-.08,0l-.35.36a.12.12,0,0,0,0,.09Z"/><path class="cls-15" d="M38.05,4.17A.15.15,0,0,1,38.2,4h.66a.15.15,0,0,1,.14.15v.45h-.94Z"/><path class="cls-37" d="M38,4.46a0,0,0,0,1,0,0h1.06a0,0,0,0,1,0,0v.16H38Z"/><path class="cls-33" d="M37.79,4.79A.23.23,0,0,1,38,4.72h1.66a.22.22,0,0,1,.16.07l.35.36a.25.25,0,0,1,.07.17l0,3.77a.1.1,0,0,1-.1.1H37.44a.1.1,0,0,1-.1-.1l0-3.76a.26.26,0,0,1,.07-.17Z"/><path class="cls-40" d="M38,4.71a.23.23,0,0,0-.17.07l-.35.36a.25.25,0,0,0-.06.13h2.8a.24.24,0,0,0-.06-.12l-.35-.36a.22.22,0,0,0-.16-.07Z"/><rect class="cls-9" x="37.34" y="5.15" width="2.85" height="0.25"/><path class="cls-9" d="M40.06,9.32H37.43a.21.21,0,0,1-.15-.06.23.23,0,0,1-.07-.16l0-3.77a.38.38,0,0,1,.1-.26l.35-.36A.35.35,0,0,1,38,4.59h1.66a.35.35,0,0,1,.25.11l.35.37a.37.37,0,0,1,.1.26l0,3.76a.22.22,0,0,1-.22.22m-2.6-.26H40l0-3.74a.12.12,0,0,0,0-.09l-.35-.37a.1.1,0,0,0-.07,0H38a.1.1,0,0,0-.08,0l-.35.36a.13.13,0,0,0,0,.09Z"/><path class="cls-15" d="M41.38,4.17A.15.15,0,0,1,41.53,4h.66a.15.15,0,0,1,.14.15v.45h-.94Z"/><path class="cls-37" d="M41.29,4.46a0,0,0,0,1,0,0h1.06a0,0,0,0,1,0,0v.16H41.29Z"/><path class="cls-21" d="M41.12,4.79a.23.23,0,0,1,.17-.07h1.66a.22.22,0,0,1,.16.07l.35.36a.25.25,0,0,1,.07.17l0,3.77a.1.1,0,0,1-.1.1H40.76a.1.1,0,0,1-.1-.1l0-3.76a.26.26,0,0,1,.07-.17Z"/><path class="cls-39" d="M41.28,4.71a.23.23,0,0,0-.17.07l-.35.36a.25.25,0,0,0-.06.13h2.8a.26.26,0,0,0-.06-.12l-.35-.36a.22.22,0,0,0-.16-.07Z"/><rect class="cls-9" x="40.67" y="5.15" width="2.85" height="0.25"/><path class="cls-9" d="M43.39,9.32H40.76a.22.22,0,0,1-.22-.22l0-3.77a.37.37,0,0,1,.1-.26L41,4.7a.35.35,0,0,1,.25-.11h1.66a.35.35,0,0,1,.25.11l.35.37a.38.38,0,0,1,.1.26l0,3.77a.22.22,0,0,1-.22.22m-2.6-.26h2.57l0-3.74a.13.13,0,0,0,0-.09L43,4.88a.11.11,0,0,0-.08,0H41.28a.1.1,0,0,0-.08,0l-.35.36a.13.13,0,0,0,0,.09Zm0,0"/><rect class="cls-10" x="8.29" y="11.24" width="4" height="7.13"/><path class="cls-9" d="M12.42,18.49H8.17V11.12h4.25Zm-4-.25h3.76V11.37H8.42Z"/><rect class="cls-41" x="9.2" y="13.42" width="2.19" height="0.96"/><rect class="cls-41" x="9.52" y="15" width="1.56" height="0.66"/><rect class="cls-10" x="13.02" y="11.24" width="4" height="7.13"/><path class="cls-9" d="M17.14,18.49H12.89V11.12h4.25Zm-4-.25H16.9V11.37H13.14Z"/><rect class="cls-41" x="13.92" y="13.42" width="2.19" height="0.96"/><rect class="cls-41" x="14.24" y="15" width="1.56" height="0.66"/><rect class="cls-10" x="17.74" y="11.24" width="4" height="7.13"/><path class="cls-9" d="M21.87,18.49H17.62V11.12h4.25Zm-4-.25h3.76V11.37H17.86Z"/><rect class="cls-41" x="18.65" y="13.42" width="2.19" height="0.96"/><rect class="cls-41" x="18.96" y="15" width="1.56" height="0.66"/><rect class="cls-10" x="22.46" y="11.24" width="4" height="7.13"/><path class="cls-9" d="M26.59,18.49H22.34V11.12h4.25Zm-4-.25h3.76V11.37H22.59Z"/><rect class="cls-41" x="23.37" y="13.42" width="2.19" height="0.96"/><rect class="cls-41" x="23.69" y="15" width="1.56" height="0.66"/><rect class="cls-21" x="21.77" y="24.1" width="3.63" height="3.51"/><path class="cls-9" d="M25.52,27.74H21.64V24h3.88Zm-3.63-.25h3.38V24.23H21.89Z"/><rect class="cls-42" x="22.59" y="24.95" width="1.98" height="0.67"/><rect class="cls-42" x="22.87" y="26.09" width="1.41" height="0.6"/><rect class="cls-21" x="23.97" y="20.58" width="3.63" height="3.51"/><path class="cls-9" d="M27.73,24.21H23.85V20.45h3.88ZM24.1,24h3.38V20.7H24.1Z"/><rect class="cls-42" x="24.8" y="21.43" width="1.98" height="0.67"/><rect class="cls-42" x="25.08" y="22.56" width="1.41" height="0.6"/><rect class="cls-21" x="28.39" y="20.58" width="3.63" height="3.51"/><path class="cls-9" d="M32.14,24.21H28.27V20.45h3.88ZM28.51,24h3.38V20.7H28.51Z"/><rect class="cls-42" x="29.21" y="21.43" width="1.98" height="0.67"/><rect class="cls-42" x="29.5" y="22.56" width="1.41" height="0.6"/><rect class="cls-21" x="32.8" y="20.58" width="3.63" height="3.51"/><path class="cls-9" d="M36.56,24.21H32.68V20.45h3.88ZM32.93,24h3.38V20.7H32.93Z"/><rect class="cls-42" x="33.63" y="21.43" width="1.98" height="0.67"/><rect class="cls-42" x="33.91" y="22.56" width="1.41" height="0.6"/><rect class="cls-21" x="37.22" y="20.58" width="3.63" height="3.51"/><path class="cls-9" d="M41,24.21H37.1V20.45H41ZM37.34,24h3.38V20.7H37.34Z"/><rect class="cls-42" x="38.04" y="21.43" width="1.98" height="0.67"/><rect class="cls-42" x="38.33" y="22.56" width="1.41" height="0.6"/><rect class="cls-21" x="26.18" y="24.1" width="3.63" height="3.51"/><path class="cls-9" d="M29.93,27.74H26.06V24h3.88Zm-3.63-.25h3.38V24.23H26.3Z"/><rect class="cls-42" x="27" y="24.95" width="1.98" height="0.67"/><rect class="cls-42" x="27.29" y="26.09" width="1.41" height="0.6"/><rect class="cls-21" x="30.6" y="24.1" width="3.63" height="3.51"/><path class="cls-9" d="M34.35,27.74H30.47V24h3.88Zm-3.63-.25H34.1V24.23H30.72Z"/><rect class="cls-42" x="31.42" y="24.95" width="1.98" height="0.67"/><rect class="cls-42" x="31.71" y="26.09" width="1.41" height="0.6"/><rect class="cls-21" x="35.01" y="24.1" width="3.63" height="3.51"/><path class="cls-9" d="M38.76,27.74H34.89V24h3.88Zm-3.63-.25h3.38V24.23H35.14Z"/><rect class="cls-42" x="35.84" y="24.95" width="1.98" height="0.67"/><rect class="cls-42" x="36.12" y="26.09" width="1.41" height="0.6"/><rect class="cls-21" x="39.43" y="24.1" width="3.63" height="3.51"/><path class="cls-9" d="M43.18,27.74H39.3V24h3.88Zm-3.63-.25h3.38V24.23H39.55Z"/><rect class="cls-42" x="40.25" y="24.95" width="1.98" height="0.67"/><rect class="cls-42" x="40.54" y="26.09" width="1.41" height="0.6"/><path class="cls-33" d="M10.42,2.44V1.88a1.28,1.28,0,0,1,0-.15H9.32c0,.05,0,.1,0,.15v.56a4.42,4.42,0,0,1-.54,2,2.3,2.3,0,0,0-.5,1.06V8.29a.86.86,0,0,0,.79.91H10.7a.86.86,0,0,0,.79-.91V5.46a2.17,2.17,0,0,0-.51-1,4.93,4.93,0,0,1-.55-2"/><path class="cls-9" d="M10.7,9.32H9.08a1,1,0,0,1-.91-1V5.46a2.35,2.35,0,0,1,.52-1.13,4.33,4.33,0,0,0,.52-1.89V1.88a1.26,1.26,0,0,0,0-.14l0-.14h1.38l0,.14a1,1,0,0,0,0,.14v.56a4.91,4.91,0,0,0,.53,1.89,2.33,2.33,0,0,1,.54,1.13V8.29a1,1,0,0,1-.91,1M9.46,1.86v.59a4.5,4.5,0,0,1-.56,2,2.09,2.09,0,0,0-.47,1V8.29a.73.73,0,0,0,.66.79H10.7a.73.73,0,0,0,.66-.79V5.46a2,2,0,0,0-.48-1,5,5,0,0,1-.58-2V1.86Z"/><path class="cls-43" d="M10.55,1.95a.23.23,0,0,1-.2.26H9.42a.23.23,0,0,1-.2-.26V1.69a.23.23,0,0,1,.2-.25h.94a.23.23,0,0,1,.2.25Z"/><path class="cls-9" d="M10.36,2.33H9.42a.35.35,0,0,1-.32-.38V1.69a.35.35,0,0,1,.32-.38h.94a.35.35,0,0,1,.32.38v.25a.35.35,0,0,1-.32.38m-.94-.77s-.07.05-.07.13v.25c0,.08,0,.13.07.13h.94s.07-.05.07-.13V1.69c0-.08,0-.13-.07-.13Z"/><g class="cls-13"><g class="cls-44"><path class="cls-15" d="M10,8.2a.48.48,0,0,1-1,0V5.31a.48.48,0,0,1,1,0Z"/></g></g><path class="cls-33" d="M14.26,2.44V1.88a1.28,1.28,0,0,1,0-.15H13.17a1.27,1.27,0,0,1,0,.15v.56a4.42,4.42,0,0,1-.54,2,2.3,2.3,0,0,0-.5,1.06V8.29a.86.86,0,0,0,.79.91h1.62a.86.86,0,0,0,.79-.91V5.46a2.17,2.17,0,0,0-.51-1,4.93,4.93,0,0,1-.55-2"/><path class="cls-9" d="M14.54,9.32H12.92a1,1,0,0,1-.91-1V5.46a2.34,2.34,0,0,1,.52-1.13,4.35,4.35,0,0,0,.52-1.89V1.88a1.26,1.26,0,0,0,0-.14l0-.14h1.38l0,.14a1.26,1.26,0,0,0,0,.14v.56a4.93,4.93,0,0,0,.53,1.89,2.33,2.33,0,0,1,.54,1.13V8.29a1,1,0,0,1-.91,1M13.3,1.86v.59a4.5,4.5,0,0,1-.56,2,2.09,2.09,0,0,0-.47,1V8.29a.73.73,0,0,0,.66.79h1.62a.73.73,0,0,0,.66-.79V5.46a2,2,0,0,0-.48-1,5,5,0,0,1-.58-2V1.86Z"/><path class="cls-43" d="M14.4,1.95a.23.23,0,0,1-.2.26h-.94a.23.23,0,0,1-.2-.26V1.69a.23.23,0,0,1,.2-.25h.94a.23.23,0,0,1,.2.25Z"/><path class="cls-9" d="M14.2,2.33h-.94a.35.35,0,0,1-.32-.38V1.69a.35.35,0,0,1,.32-.38h.94a.35.35,0,0,1,.32.38v.25a.35.35,0,0,1-.32.38m-.94-.77s-.07.05-.07.13v.25c0,.08,0,.13.07.13h.94s.07-.05.07-.13V1.69c0-.08,0-.13-.07-.13Z"/><g class="cls-13"><g class="cls-45"><path class="cls-15" d="M13.81,8.2a.48.48,0,0,1-1,0V5.31a.48.48,0,0,1,1,0Z"/></g></g><path class="cls-33" d="M18.11,2.44V1.88a1.28,1.28,0,0,1,0-.15H17a1.27,1.27,0,0,1,0,.15v.56a4.42,4.42,0,0,1-.54,2A2.3,2.3,0,0,0,16,5.46V8.29a.86.86,0,0,0,.79.91h1.62a.86.86,0,0,0,.78-.91V5.46a2.17,2.17,0,0,0-.51-1,4.93,4.93,0,0,1-.55-2"/><path class="cls-9" d="M18.39,9.32H16.77a1,1,0,0,1-.91-1V5.46a2.34,2.34,0,0,1,.52-1.13,4.33,4.33,0,0,0,.52-1.89V1.88a1.26,1.26,0,0,0,0-.14l0-.14h1.38l0,.14a1.23,1.23,0,0,0,0,.14v.56a4.91,4.91,0,0,0,.53,1.89,2.33,2.33,0,0,1,.54,1.13V8.29a1,1,0,0,1-.91,1M17.15,1.86v.59a4.5,4.5,0,0,1-.56,2,2.09,2.09,0,0,0-.48,1V8.29a.73.73,0,0,0,.66.79h1.62a.73.73,0,0,0,.66-.79V5.46a2,2,0,0,0-.48-1,5,5,0,0,1-.58-2V1.86Z"/><path class="cls-43" d="M18.25,1.95a.23.23,0,0,1-.2.26h-.94a.23.23,0,0,1-.2-.26V1.69a.23.23,0,0,1,.2-.25H18a.23.23,0,0,1,.2.25Z"/><path class="cls-9" d="M18.05,2.33h-.94a.35.35,0,0,1-.32-.38V1.69a.35.35,0,0,1,.32-.38h.94a.35.35,0,0,1,.32.38v.25a.35.35,0,0,1-.32.38m-.94-.77s-.07.05-.07.13v.25c0,.08,0,.13.07.13h.94s.07-.05.07-.13V1.69c0-.08,0-.13-.07-.13Z"/><g class="cls-13"><g class="cls-46"><path class="cls-15" d="M17.65,8.2a.48.48,0,0,1-1,0V5.31a.48.48,0,0,1,1,0Z"/></g></g><path class="cls-33" d="M22,2.44V1.88a1.28,1.28,0,0,1,0-.15H20.86c0,.05,0,.1,0,.15v.56a4.42,4.42,0,0,1-.54,2,2.3,2.3,0,0,0-.5,1.06V8.29a.86.86,0,0,0,.79.91h1.62A.86.86,0,0,0,23,8.29V5.46a2.17,2.17,0,0,0-.51-1,4.93,4.93,0,0,1-.55-2"/><path class="cls-9" d="M22.24,9.32H20.62a1,1,0,0,1-.91-1V5.46a2.34,2.34,0,0,1,.52-1.13,4.35,4.35,0,0,0,.52-1.89V1.88a1,1,0,0,0,0-.14l0-.14H22.1l0,.14a1.23,1.23,0,0,0,0,.14v.56a4.91,4.91,0,0,0,.53,1.89,2.33,2.33,0,0,1,.54,1.13V8.29a1,1,0,0,1-.91,1M21,1.86v.59a4.5,4.5,0,0,1-.56,2,2.09,2.09,0,0,0-.48,1V8.29a.73.73,0,0,0,.66.79h1.62a.73.73,0,0,0,.66-.79V5.46a2,2,0,0,0-.48-1,5,5,0,0,1-.58-2V1.86Z"/><path class="cls-43" d="M22.09,1.95a.23.23,0,0,1-.2.26H21a.23.23,0,0,1-.2-.26V1.69a.23.23,0,0,1,.2-.25h.94a.23.23,0,0,1,.2.25Z"/><path class="cls-9" d="M21.9,2.33H21a.35.35,0,0,1-.32-.38V1.69A.35.35,0,0,1,21,1.31h.94a.35.35,0,0,1,.32.38v.25a.35.35,0,0,1-.32.38M21,1.56s-.07.05-.07.13v.25c0,.08,0,.13.07.13h.94S22,2,22,1.95V1.69c0-.08,0-.13-.07-.13Z"/><g class="cls-13"><g class="cls-47"><path class="cls-15" d="M21.5,8.2a.48.48,0,0,1-1,0V5.31a.48.48,0,0,1,1,0Z"/></g></g></g></g></svg>