<svg id="Layer_1" data-name="Layer 1" xmlns="http://www.w3.org/2000/svg" viewBox="0 0 51 38"><defs><style>.cls-1{fill:#edd366;}.cls-2{fill:#414042;}.cls-3{fill:#f6d056;}.cls-4{fill:#8dc63f;}.cls-5{fill:#ff1d25;}.cls-6{fill:#fff;}.cls-7{fill:#d6bea7;}</style></defs><title>iSHOP Dashboard_Elements</title><path class="cls-1" d="M20.87,9.94A7.45,7.45,0,0,1,24.73,4l-.44-1.24a7.87,7.87,0,0,0-1.83,15l.73-1.1a7.45,7.45,0,0,1-2.32-6.7"/><path class="cls-2" d="M22.46,18.13a.39.39,0,0,1-.16,0A8.26,8.26,0,0,1,24.22,2.35a.39.39,0,0,1,.43.26l.45,1.24a.39.39,0,0,1-.2.49A7.12,7.12,0,0,0,21.26,10a7.12,7.12,0,0,0,2.17,6.35.39.39,0,0,1,.08.52L22.79,18a.39.39,0,0,1-.33.17M24,3.19a7.47,7.47,0,0,0-1.71,14.05l.35-.53a7.94,7.94,0,0,1-2.19-6.82,7.93,7.93,0,0,1,3.76-6.09Z"/><path class="cls-2" d="M23.74,5a.39.39,0,0,1-.29-.13L22.24,3.51A.39.39,0,0,1,22.83,3L24,4.32a.39.39,0,0,1-.29.66"/><path class="cls-1" d="M22.75,10.57A7.45,7.45,0,0,1,24.9,3.81l-.76-1.08a7.87,7.87,0,0,0,2.19,14.95l.41-1.25a7.45,7.45,0,0,1-4-5.85"/><path class="cls-2" d="M26.33,18.07h-.05A8.26,8.26,0,0,1,24,2.37a.39.39,0,0,1,.49.13l.76,1.09a.39.39,0,0,1-.07.53,7.12,7.12,0,0,0-2,6.4,7.12,7.12,0,0,0,3.77,5.55.39.39,0,0,1,.22.48l-.41,1.26a.39.39,0,0,1-.37.27M24,3.23a7.47,7.47,0,0,0,2,14l.2-.61a7.93,7.93,0,0,1-3.91-6,7.93,7.93,0,0,1,2-6.87Z"/><path class="cls-2" d="M24.11,5A.4.4,0,0,1,23.89,5L22.38,4a.39.39,0,1,1,.43-.66l1.52,1a.39.39,0,0,1-.21.72"/><path class="cls-3" d="M24.8,10.66a7.45,7.45,0,0,1,.35-7.08l-1-.85a7.87,7.87,0,0,0,6,13.89l.08-1.32a7.45,7.45,0,0,1-5.37-4.63"/><path class="cls-2" d="M29.15,17.06h0A8.26,8.26,0,0,1,23.89,2.42a.39.39,0,0,1,.5,0l1,.85a.39.39,0,0,1,.07.53,7.12,7.12,0,0,0-.31,6.7,7.11,7.11,0,0,0,5.07,4.4.39.39,0,0,1,.33.41l-.08,1.32a.39.39,0,0,1-.34.37,8.28,8.28,0,0,1-1,.06m-5-13.82a7.47,7.47,0,0,0,5,13l.58,0,0-.64a7.93,7.93,0,0,1-5.32-4.8,7.94,7.94,0,0,1,.19-7.16Z"/><path class="cls-2" d="M24.6,5l-.12,0-1.72-.56A.39.39,0,1,1,23,3.66l1.72.56A.39.39,0,0,1,24.6,5"/><path class="cls-4" d="M30.22,7.47a3.15,3.15,0,0,1-3.15-3.15,3.15,3.15,0,0,1,3.15,3.15"/><path class="cls-5" d="M33.37,10.62a3.15,3.15,0,1,1-3.15-3.15,3.15,3.15,0,0,1,3.15,3.15"/><path class="cls-2" d="M30.22,14.17a3.54,3.54,0,1,1,3.54-3.54,3.55,3.55,0,0,1-3.54,3.54m0-6.3A2.76,2.76,0,1,0,33,10.62a2.76,2.76,0,0,0-2.75-2.76"/><path class="cls-2" d="M30.22,7.87a.39.39,0,0,1-.39-.39,2,2,0,0,1,2-2,.39.39,0,1,1,0,.79,1.18,1.18,0,0,0-1.18,1.18.39.39,0,0,1-.39.39"/><path class="cls-2" d="M30.23,7.87h0a3.55,3.55,0,0,1-3.54-3.54.39.39,0,0,1,.39-.39,3.55,3.55,0,0,1,3.54,3.46.37.37,0,0,1,0,.08.39.39,0,0,1-.39.39M27.5,4.75A2.76,2.76,0,0,0,29.8,7a2.76,2.76,0,0,0-2.29-2.3"/><path class="cls-6" d="M28.65,11a.39.39,0,0,1-.39-.39,2,2,0,0,1,2-2,.39.39,0,0,1,0,.79A1.18,1.18,0,0,0,29,10.62a.39.39,0,0,1-.39.39"/><rect class="cls-7" x="16.05" y="10.62" width="18.89" height="26.77"/><path class="cls-2" d="M34.95,37.78H16.05a.39.39,0,0,1-.39-.39V10.62a.39.39,0,0,1,.39-.39H34.95a.39.39,0,0,1,.39.39V37.39a.39.39,0,0,1-.39.39M16.45,37H34.55V11H16.45Z"/><path class="cls-2" d="M25.5,20.46a6.7,6.7,0,0,1-6.69-6.69.39.39,0,1,1,.79,0,5.91,5.91,0,0,0,5.9,5.9.39.39,0,0,1,0,.79"/><path class="cls-2" d="M25.5,20.46a.39.39,0,1,1,0-.79,5.91,5.91,0,0,0,5.9-5.9.39.39,0,1,1,.79,0,6.7,6.7,0,0,1-6.69,6.69"/></svg>