<svg id="Layer_1" data-name="Layer 1" xmlns="http://www.w3.org/2000/svg" viewBox="0 0 51 38"><defs><style>.cls-1{fill:#f6d056;}.cls-2{fill:#f15f2e;}.cls-3{fill:#231f20;}</style></defs><title>iSHOP Dashboard_Elements</title><path class="cls-1" d="M27.54,9s-3,3.13-3.74,3.19-4.73.5-5.17,0-.88,1.15-.88,1.15l.39,3.13.61.88s.11,2.2.82,2.8S20.48,22,21.15,23s.78.28.78.28L21,26.6l-.77-.33-4.34,1.81a18,18,0,0,1-1.28-4.67c-.1-1.87,0-8.78,0-8.78l1.77-5.07,3.19-3.24a9.42,9.42,0,0,1,3.24-1.7c1.76-.45,5.28-.34,6.43.38s3.68,2.2,4.89,4.29a14.82,14.82,0,0,1,2.09,9.07c-.39,4,.11,8-.55,9.07s-.55.66-.55.66l-4.23-2-.28.17-.38.5-1.1-3.26a8.94,8.94,0,0,0,2.2-2.63c.88-1.63.55-1.86,1-3.24s-1.32-1.2-2.25-2.74A55.64,55.64,0,0,1,27.54,9"/><path class="cls-2" d="M30.62,26.27s4.45,1.23,5.55,2.32,3.39,7.5,2.86,7.69-9.61,1.55-12.86,1.22S12,36.66,12,36.66s-.16-3.63.88-5.22a13.71,13.71,0,0,1,4.4-4c1.1-.49,3-1.21,3-1.21s1.1,2.62,2.91,3.06,2.6.84,4.07.3,3.41-3.35,3.41-3.35"/><path class="cls-3" d="M39.3,35.64c-.27-3.39-1.43-5.8-3.69-7.49.84-2,.94-7.23.94-11.13,0-7.44-4.75-13-11.05-13S14.45,9.57,14.45,17c0,3.86.1,9.12.93,11.09C13.1,29.8,12,32.19,11.7,35.64l0,.6a.76.76,0,0,0,.77.81A98.27,98.27,0,0,0,23,37.76l.1,0,.09,0,2.13,0h.46A104.27,104.27,0,0,0,38.57,37a.77.77,0,0,0,.77-.83ZM15,17c0-7.1,4.5-12.46,10.46-12.46S36,9.91,36,17c0,2.18,0,8.59-.84,10.76a15.19,15.19,0,0,0-4.51-1.89.29.29,0,0,0-.35.19l-.05.13a10.89,10.89,0,0,1-.79-2.82,11.49,11.49,0,0,0,3.22-6.3.3.3,0,0,0-.16-.32c-2.71-1.3-4.45-6.39-4.65-8.1a.3.3,0,0,0-.57-.07c-.05.14-1.37,3.5-6.15,3.7a5.93,5.93,0,0,1-2.2-.36h-.12l-.31,0c-.83.21-1.19,1.32-1,3a3.24,3.24,0,0,0,.9,2.26,11.46,11.46,0,0,0,3.19,6.2,10.65,10.65,0,0,1-.87,3c-.07-.15-.1-.24-.11-.27a.3.3,0,0,0-.36-.19,15.53,15.53,0,0,0-4.38,1.84C15,25.59,15,19.21,15,17M25.49,29.53A5.06,5.06,0,0,1,21,27l0,0a10.3,10.3,0,0,0,1-3.12,5.3,5.3,0,0,0,6.77,0,10.41,10.41,0,0,0,1,3,5,5,0,0,1-4.38,2.65m0-5c-3,0-5.72-3.09-6.56-7.51a.29.29,0,0,0-.15-.2c-.46-.26-.63-1.1-.73-1.9-.16-1.27.06-2.21.49-2.32h.2a6.61,6.61,0,0,0,2.36.37A7.46,7.46,0,0,0,27.4,9.59c.52,2.22,2.14,6.25,4.62,7.61-.89,4.29-3.54,7.28-6.51,7.28M12.25,36.26l0-.58c.4-5,2.68-7.63,7.87-9.1a5.84,5.84,0,0,0,5.33,3.54,5.32,5.32,0,0,0,2.09-.41l-4.68,7.46a97.41,97.41,0,0,1-10.4-.7c-.26,0-.26-.09-.26-.2m26.25.2a104.38,104.38,0,0,1-13,.73H23.6l5.08-8.1a6.73,6.73,0,0,0,2-2.54c5.28,1.45,7.61,4.12,8,9.14l0,.56c0,.13,0,.19-.26.22"/></svg>