<svg xmlns="http://www.w3.org/2000/svg" viewBox="0 0 100 100"><defs><style>.a{fill:#fff;}.b{fill:none;}</style></defs><title>iShop</title><path class="a" d="M-3-2.44V102.44H103V-2.44Zm32.73,59.5,3.3.33,1.51.83,2.71,1.33,2.58.61,3.77.91,1.55,1.73,1.2,2.8-.27,4.61-2.26,3.32-2.1,2.23L38,78l-2.68,1.26-2-.31L31,77.32l-3.05-.25L25.49,73.8,24,69.4l-.48-5,1.83-4.56,3.12-2.55Z"/><path class="b" d="M68.57,40.73c0,.26,0,.52.07,1.36l6-8.12C68.59,35.06,68.5,35.16,68.57,40.73Z"/><path class="b" d="M66.15,34.07c1.9.33,4-.77,6.07-1.21l-.12-.55C65.59,31.2,59.09,30,52.56,29a31.85,31.85,0,0,0-5.84.18l.08.67C53.25,31.33,59.65,33,66.15,34.07Z"/><path class="b" d="M60.91,39.68c1.42,2.6,3,5.12,4.72,8,.83-.92,1.89-1.55,1.94-2.24.18-3,.08-6.07.08-9.43-2.26.77-4.18,1.35-6,2.12C61.23,38.34,60.74,39.38,60.91,39.68Z"/><path class="b" d="M45.45,30.43c.26.84.42,1.35.7,2.29a22.39,22.39,0,0,1-3.63-.09c-.21,0-.23-1.19-.36-2l-5.59,1.39c.84.25,1.31.43,1.8.53,6.41,1.33,12.85,2.55,19.24,4,2.79.64,4.9-.8,7.28-1.86Z"/><path class="b" d="M69,43.09a2.7,2.7,0,0,0-.39,1.26c-.25,2.91-.31,3-3.51,3.86-1.32-2.12-2.67-4.28-4.31-6.93V82.69c.65-.31,1.17-.52,1.66-.79,3.58-2,7.14-4,10.75-5.88a2.54,2.54,0,0,0,1.58-2.55c.23-12.34.53-24.67.8-37,0-.6,0-1.19,0-2.32C73.11,37.45,71,40.26,69,43.09Z"/><path d="M77.11,31.52c-6-1-12-2.11-17.94-3.08-4.38-.71-8.74-2.17-13.2-.47-.07,0-.2-.11-.41-.23,0-2.46,0-5,0-7.52,0-4.3-2.93-6.28-6.89-4.66q-7.2,3-14.38,5.94c-.51.21-1,.51-1.53.8.4.95.73,1.71,1.09,2.57,5.32-2.2,10.52-4.37,15.73-6.51,2.13-.88,3-.38,3,1.86,0,2.41,0,4.81,0,7.21,0,1.14-.39,1.58-1.49,1.82-2.47.53-4.89,1.32-7.37,1.8-1.5.3-2,.91-1.95,2.46.17,7,.29,14,.43,21a7.44,7.44,0,0,1,1.53.24c-.14-6.61-.32-14.2-.46-20.81a3.67,3.67,0,0,1,.25-.65l25.23,5.2V83.15l-6.47-1.68C49.15,80.65,46,79.81,42.88,79c-1,.43-2,.83-2.91,1.14,6.23,1.6,12.45,3.23,18.69,4.79a4.16,4.16,0,0,0,2.71-.35c4.61-2.4,9.13-5,13.72-7.38a2.59,2.59,0,0,0,1.58-2.58c.16-13.84.38-27.68.57-41.51A15.08,15.08,0,0,0,77.11,31.52ZM52.56,29c6.53,1,13,2.16,19.54,3.27l.12.55c-2,.44-4.17,1.54-6.07,1.21-6.5-1.12-12.9-2.74-19.35-4.18l-.08-.67A31.85,31.85,0,0,1,52.56,29ZM74.62,34l-6,8.12c0-.84-.07-1.1-.07-1.36C68.5,35.16,68.59,35.06,74.62,34ZM67.57,45.48c0,.69-1.11,1.32-1.94,2.24-1.74-2.92-3.3-5.44-4.72-8-.17-.3.32-1.34.72-1.51,1.84-.77,3.76-1.35,6-2.12C67.65,39.41,67.75,42.45,67.57,45.48Zm-10-8.87c-6.39-1.46-12.83-2.68-19.24-4-.49-.1-1-.28-1.8-.53l5.59-1.39c.13.76.15,1.92.36,2a22.39,22.39,0,0,0,3.63.09c-.28-.94-.44-1.45-.7-2.29l19.44,4.32C62.51,35.81,60.4,37.25,57.61,36.61Zm17.94-.14c-.27,12.33-.57,24.66-.8,37A2.54,2.54,0,0,1,73.17,76c-3.61,1.9-7.17,3.92-10.75,5.88-.49.27-1,.48-1.66.79V41.28c1.64,2.65,3,4.81,4.31,6.93,3.2-.87,3.26-1,3.51-3.86A2.7,2.7,0,0,1,69,43.09c2-2.83,4.14-5.64,6.58-8.94C75.55,35.28,75.56,35.87,75.55,36.47Z"/><path d="M37.88,50.69a3.76,3.76,0,0,1,.3.47A10.05,10.05,0,0,1,39,54.4a1.94,1.94,0,0,0,0,.24l0,0c.25-.18.49-.38.76-.54a5.73,5.73,0,0,1,4-.63,15.37,15.37,0,0,1,4.83,1.74.57.57,0,0,1,.24.83,7.52,7.52,0,0,1-6.68,3.3A6.68,6.68,0,0,1,38.92,58l-.16-.12-.08,0-.52,1.51a6.88,6.88,0,0,0,1.25.19,7,7,0,0,1,6.67,3.68,7.86,7.86,0,0,1,1,5,10.15,10.15,0,0,1-2.53,5.52,19.67,19.67,0,0,1-8.07,5.66,4.6,4.6,0,0,1-2.67.23.2.2,0,0,0-.11,0l-1-.35L31,78.08a.3.3,0,0,0-.15,0c-.67,0-1.35-.06-2-.09l-1-.35-.54-.34a5.06,5.06,0,0,1-1.64-1.77A20.08,20.08,0,0,1,23,65.93a10.49,10.49,0,0,1,.93-4.65,7.91,7.91,0,0,1,8.29-4.75,6.4,6.4,0,0,1,3.41,1.58,4.12,4.12,0,0,0,1.4.75,7.82,7.82,0,0,0,.83-3.3,8.82,8.82,0,0,0-.8-4.05c-.21-.46,0-.79.54-.93Zm7.74,18.64A6.76,6.76,0,0,0,44,62.44a5.42,5.42,0,0,0-4-1.73,6.77,6.77,0,0,1-2.2-.31,8.58,8.58,0,0,1-3.19-1.57,4.63,4.63,0,0,0-2.23-1.06,6.39,6.39,0,0,0-5.68,1.68,8,8,0,0,0-2.47,5.68,17.93,17.93,0,0,0,2.51,9.72,3.81,3.81,0,0,0,4.19,2,.91.91,0,0,1,.89.31,3.91,3.91,0,0,0,4.64,1,19.87,19.87,0,0,0,6.46-4.36A11.48,11.48,0,0,0,45.62,69.33ZM47.38,56a13.59,13.59,0,0,0-3.3-1.23,6.23,6.23,0,0,0-2.58,0,3.43,3.43,0,0,0-2.24,1.64c-.06.11-.15.21,0,.33a5.86,5.86,0,0,0,2.66,1.43C44.18,58.56,45.84,57.48,47.38,56Z"/></svg>