<svg xmlns="http://www.w3.org/2000/svg" viewBox="0 0 100 100"><defs><style>.a,.b,.c{fill:none;}.a,.b{stroke:#fff;}.a,.b,.e,.f{stroke-miterlimit:10;}.a,.e{stroke-width:0.5px;}.b,.f{stroke-width:0.25px;}.d{fill:#fff;}.e,.f{fill:#e2e2e2;stroke:#000;}</style></defs><title>iShop</title><path class="a" d="M50.28,69.7a11.41,11.41,0,0,1,20.93-6.47"/><path class="a" d="M73.09,69.51a11.4,11.4,0,0,1-20.88,6.34"/><path class="b" d="M53.64,68.91a8.07,8.07,0,0,1,14.43-4.34"/><path class="b" d="M69.7,70.45a8.06,8.06,0,0,1-14.08,4.36"/><rect class="a" x="45.68" y="66.45" width="32.02" height="6.1" rx="1.27" transform="translate(-17.82 21.38) rotate(-17.23)"/><path class="c" d="M26.69,61.82a.32.32,0,0,0,.27-.35,3.22,3.22,0,0,1,1.17-2.4.32.32,0,0,0,.11-.44,2.36,2.36,0,0,0-2.11-1.53A2.27,2.27,0,0,0,24,58.17,2.49,2.49,0,0,0,24.1,61,2.41,2.41,0,0,0,26.69,61.82Z"/><path class="c" d="M29.17,58.33l2.08-.08A3.6,3.6,0,0,1,32,56.74a.43.43,0,0,0,0-.35,2.4,2.4,0,0,0-4.37.15A3.39,3.39,0,0,1,29.17,58.33Z"/><path class="c" d="M27.18,65.56,28,64.14l-.9-1.4a3.57,3.57,0,0,1-2.47-.11.26.26,0,0,0-.24.09,4.23,4.23,0,0,0-.51,1,2.24,2.24,0,0,0,.7,2.38A3.41,3.41,0,0,1,27.18,65.56Z"/><path class="c" d="M28,61.1a2.54,2.54,0,0,0,1.45,2.79A2.43,2.43,0,0,0,31,64a.31.31,0,0,0,.27-.33,3.23,3.23,0,0,1,1.27-2.34.35.35,0,0,0,.15-.46A2.43,2.43,0,0,0,28,61.1Z"/><path class="c" d="M32,69.48a3.33,3.33,0,0,1-2.64.17c-.46-.16-.49-.15-.75.28a.83.83,0,0,0-.07.13,2.4,2.4,0,0,0,.82,3.2,2.42,2.42,0,0,0,3.06-3.7A.31.31,0,0,0,32,69.48Z"/><path class="c" d="M41,67.49a2.26,2.26,0,0,0-.27-2.42,2.36,2.36,0,0,0-2.43-.94.32.32,0,0,0-.3.31,3.2,3.2,0,0,1-1.41,2.3.31.31,0,0,0-.14.4,2.44,2.44,0,0,0,2.06,1.77A2.48,2.48,0,0,0,41,67.49Z"/><path class="c" d="M27.41,72.15A3.47,3.47,0,0,1,25.07,72a.38.38,0,0,0-.33.09,2.34,2.34,0,0,0-.46,2.35,2.42,2.42,0,0,0,4.6-.06.4.4,0,0,0-.08-.33A3.53,3.53,0,0,1,27.41,72.15Z"/><path class="c" d="M35.45,67.29a7.59,7.59,0,0,1-.81.07c-.26,0-.52,0-.75,0-.28.5-.54,1-.81,1.49a3.46,3.46,0,0,1,1,2.51A2.39,2.39,0,0,0,37,69.73c0-.1,0-.29,0-.34A3.5,3.5,0,0,1,35.45,67.29Z"/><path class="c" d="M33.63,60.7a3.49,3.49,0,0,1,2,0c.52.16.58.14.89-.3l.12-.18a2.36,2.36,0,0,0-.07-2.63,2.38,2.38,0,0,0-2.48-1,2.42,2.42,0,0,0-1.88,1.88.45.45,0,0,0,.08.35A3.58,3.58,0,0,1,33.63,60.7Z"/><path class="c" d="M38.62,55.06a11,11,0,0,0,.8,1.25.7.7,0,0,0,.19.13l.15-.44a3.6,3.6,0,0,0,2.18,2c0-.56.09-1.11.13-1.63.14.23.3.5.48.75a1.3,1.3,0,0,0,1.15.6c.67,0,1.35,0,1.94-.06-.12-.52-.28-1.08-.38-1.65a1.21,1.21,0,0,0-.76-1l-.81-.32a2.91,2.91,0,0,0,1.67-.36,3.13,3.13,0,0,0-2.2-1.9l0-.07.57-.07a3.1,3.1,0,0,0-2.66-.72A1.47,1.47,0,0,0,40,52.83a.68.68,0,0,1-.51.58,2.49,2.49,0,0,0-.33.16A1.09,1.09,0,0,0,38.62,55.06Z"/><path class="c" d="M36.72,65.16a2.43,2.43,0,1,0-3.29.91A2.42,2.42,0,0,0,36.72,65.16Z"/><path class="c" d="M38,63.14a9.13,9.13,0,0,1,1.17,0,9.49,9.49,0,0,1,1.22.31h0a2.44,2.44,0,0,0,0-2.61,2.4,2.4,0,0,0-2.36-1.09.28.28,0,0,0-.21.17A3.61,3.61,0,0,1,37,61.39Z"/><path class="c" d="M27.05,71.23a.29.29,0,0,0,.25-.31,3.31,3.31,0,0,1,.62-1.68,3.44,3.44,0,0,1,.26-.34,3.65,3.65,0,0,1-1.05-2.19c0-.07-.15-.17-.25-.19a2.38,2.38,0,0,0-2.49,1.06,2.41,2.41,0,0,0,.1,2.76A2.45,2.45,0,0,0,27.05,71.23Z"/><path class="c" d="M31.33,64.9a3.57,3.57,0,0,1-2.49-.21,6.26,6.26,0,0,0-.39.51,2.42,2.42,0,1,0,4.27,2.27c.23-.44.22-.49-.15-.78A3.6,3.6,0,0,1,31.33,64.9Z"/><path class="c" d="M60.43,41c0,.21,0,.42,0,1.12l5-6.74C60.44,36.27,60.37,36.35,60.43,41Z"/><path class="c" d="M58.42,35.45c1.57.27,3.35-.64,5-1,0-.16-.06-.31-.1-.46-5.39-.92-10.78-1.91-16.2-2.71a26.26,26.26,0,0,0-4.84.15c0,.18,0,.37.07.56C47.72,33.18,53,34.52,58.42,35.45Z"/><path class="c" d="M54.67,38.85c-.33.14-.73,1-.59,1.25,1.17,2.16,2.46,4.25,3.91,6.67.69-.76,1.57-1.28,1.61-1.86.15-2.51.06-5,.06-7.82C57.79,37.73,56.2,38.22,54.67,38.85Z"/><path class="c" d="M41.26,32.43c.21.7.34,1.12.58,1.9a19.46,19.46,0,0,1-3-.07c-.18,0-.2-1-.31-1.62l-4.63,1.15c.7.21,1.09.36,1.49.44,5.32,1.1,10.66,2.11,16,3.32,2.31.53,4.07-.65,6-1.53Z"/><path class="d" d="M39.12,72.7c-.83.35-1.66.68-2.41.94l7.57,1.94-.53-1.66Z"/><path class="d" d="M54,41.43l3.58,5.75c2.65-.72,2.7-.79,2.91-3.21a2.19,2.19,0,0,1,.32-1c1.7-2.35,3.44-4.68,5.46-7.42,0,.94,0,1.43,0,1.93-.14,6.08-.26,12.17-.4,18.25.54.17,1.05.35,1.51.54q.14-10.8.29-21.59a12.22,12.22,0,0,0-.11-1.3c-5-.87-9.94-1.76-14.88-2.56-3.63-.59-7.24-1.8-11-.39,0,0-.16-.09-.33-.19,0-2,0-4.14,0-6.24,0-3.56-2.43-5.2-5.72-3.86q-6,2.45-11.93,4.93c-.42.17-.81.42-1.27.66.34.78.61,1.42.91,2.13l13.05-5.4c1.77-.73,2.44-.31,2.47,1.55s0,4,0,6c0,.93-.32,1.31-1.23,1.5-2,.44-4,1.1-6.11,1.5-1.25.24-1.65.75-1.62,2,.14,5.81.24,11.63.35,17.44a8.45,8.45,0,0,1,1.28-.62c-.13-5.48-.27-11-.39-16.44a2.65,2.65,0,0,1,.21-.54L52.3,39.13V57.6q.73-.47,1.65-.93Zm5.65,3.48c0,.58-.92,1.1-1.61,1.86-1.45-2.42-2.74-4.51-3.91-6.67-.14-.25.26-1.11.59-1.25,1.53-.63,3.12-1.12,5-1.76C59.66,39.88,59.75,42.4,59.6,44.91Zm.88-2.81c0-.7,0-.91,0-1.12-.06-4.63,0-4.71,5-5.62ZM47.15,31.28c5.42.8,10.81,1.79,16.2,2.71,0,.15.07.3.1.46-1.68.36-3.46,1.27-5,1-5.38-.93-10.7-2.27-16-3.46,0-.19-.05-.38-.07-.56A26.26,26.26,0,0,1,47.15,31.28Zm4.19,6.27c-5.3-1.21-10.64-2.22-16-3.32-.4-.08-.79-.23-1.49-.44l4.63-1.15c.11.63.13,1.59.31,1.62a19.46,19.46,0,0,0,3,.07c-.24-.78-.37-1.2-.58-1.9L57.38,36C55.41,36.9,53.65,38.08,51.34,37.55Z"/><path class="d" d="M-.5-.5v101h101V-.5Zm38.84,69s-1.74,3.38-4.23,2c0,0-.62,3.49-3.89,2.51,0,0-1,4.34-4.85,1.38,0,0-1.94-2.31.21-4a3.26,3.26,0,0,1,0-4.74s-2.35-1.06-.44-4.37c0,0-2.95-3.76,1.47-5.17h1.26s2.38-4.34,5.35-.16c0,0,4.15-1.5,4.86,2.49,0,0,5,.3,3.1,4.74C41.15,63.12,44,67.81,38.34,68.45Zm7.79-10.92a6.5,6.5,0,0,1-3.23-.23l-.54.8-2.79-1.92c-2.37-2.24.24-3.71.24-3.71l1-1.24c3.53-1.38,5.33,2.84,5.33,2.84l-.51.53C46.22,55.19,46.13,57.53,46.13,57.53Z"/><path class="e" d="M50.27,68.71a11,11,0,0,1,20.16-6.23"/><path class="e" d="M72.24,68.53a11,11,0,0,1-20.11,6.1"/><path class="f" d="M53.51,68A7.76,7.76,0,0,1,67.4,63.77"/><path class="f" d="M69,69.43a7.76,7.76,0,0,1-13.55,4.2"/><rect class="e" x="45.84" y="65.58" width="30.83" height="5.88" rx="1.22" transform="translate(-17.54 21.21) rotate(-17.23)"/><path class="c" d="M27.55,61.12a.31.31,0,0,0,.27-.34,3.12,3.12,0,0,1,1.12-2.31.29.29,0,0,0,.1-.42,2.25,2.25,0,0,0-2-1.48,2.22,2.22,0,0,0-2.1,1,2.42,2.42,0,0,0,.14,2.75A2.34,2.34,0,0,0,27.55,61.12Z"/><path class="c" d="M30,57.75l2-.07a3.41,3.41,0,0,1,.73-1.46.38.38,0,0,0,0-.33A2.22,2.22,0,0,0,31,54.63a2.27,2.27,0,0,0-2.5,1.4A3.36,3.36,0,0,1,30,57.75Z"/><path class="c" d="M28,64.72c.26-.49.52-.95.75-1.37L27.91,62a3.35,3.35,0,0,1-2.37-.11.29.29,0,0,0-.24.1,4.29,4.29,0,0,0-.49.92,2.17,2.17,0,0,0,.67,2.29A3.32,3.32,0,0,1,28,64.72Z"/><path class="c" d="M28.81,60.42a2.43,2.43,0,0,0,1.39,2.69,2.26,2.26,0,0,0,1.46.09.31.31,0,0,0,.27-.32,3.12,3.12,0,0,1,1.22-2.26.31.31,0,0,0,.14-.43,2.33,2.33,0,0,0-4.48.23Z"/><path class="c" d="M32.7,68.5a3.21,3.21,0,0,1-2.54.15c-.45-.14-.47-.14-.73.28l-.07.13a2.31,2.31,0,0,0,.79,3.07,2.33,2.33,0,0,0,3-3.56A.28.28,0,0,0,32.7,68.5Z"/><path class="c" d="M41.31,66.58A2.19,2.19,0,0,0,41,64.25a2.24,2.24,0,0,0-2.34-.9.3.3,0,0,0-.28.29,3.12,3.12,0,0,1-1.36,2.22.32.32,0,0,0-.14.39,2.34,2.34,0,0,0,4.39.33Z"/><path class="c" d="M28.25,71.06A3.33,3.33,0,0,1,26,70.93a.37.37,0,0,0-.32.09,2.22,2.22,0,0,0-.44,2.26,2.32,2.32,0,0,0,4.42-.06.35.35,0,0,0-.07-.32A3.34,3.34,0,0,1,28.25,71.06Z"/><path class="c" d="M36,66.39c-.27,0-.52.06-.77.06s-.51,0-.73,0l-.79,1.43a3.35,3.35,0,0,1,1,2.42,2.31,2.31,0,0,0,2.78-1.53c0-.09,0-.28,0-.32A3.42,3.42,0,0,1,36,66.39Z"/><path class="c" d="M34.24,60a3.39,3.39,0,0,1,1.92,0c.5.15.56.14.86-.29l.11-.17a2.33,2.33,0,0,0-2.45-3.51,2.35,2.35,0,0,0-1.81,1.82.41.41,0,0,0,.08.33A3.47,3.47,0,0,1,34.24,60Z"/><path class="c" d="M39,54.61a9.82,9.82,0,0,0,.78,1.2.59.59,0,0,0,.17.13c0-.14.1-.26.15-.42a3.48,3.48,0,0,0,2.1,2c0-.54.08-1.07.12-1.57.14.22.3.48.47.72a1.26,1.26,0,0,0,1.1.58c.65,0,1.3,0,1.87-.06-.12-.5-.27-1-.37-1.58a1.14,1.14,0,0,0-.72-1l-.79-.31A2.78,2.78,0,0,0,45.53,54a3,3,0,0,0-2.12-1.83l0-.08L44,52a3,3,0,0,0-2.57-.69,1.42,1.42,0,0,0-1.1,1.15.64.64,0,0,1-.48.56,1.59,1.59,0,0,0-.32.16A1,1,0,0,0,39,54.61Z"/><path class="c" d="M37.21,64.33a2.33,2.33,0,1,0-3.17.88A2.32,2.32,0,0,0,37.21,64.33Z"/><path class="c" d="M38.46,62.39a8.37,8.37,0,0,1,1.12,0,9.29,9.29,0,0,1,1.18.3s0,0,0,0a2.33,2.33,0,0,0-2.27-3.56.31.31,0,0,0-.2.17,3.53,3.53,0,0,1-.84,1.42C37.8,61.28,38.13,61.83,38.46,62.39Z"/><path class="c" d="M27.9,70.18a.28.28,0,0,0,.24-.3,3.3,3.3,0,0,1,.6-1.62c.07-.11.16-.21.25-.33a3.44,3.44,0,0,1-1-2.1c0-.07-.15-.17-.24-.19a2.31,2.31,0,0,0-2.4,1,2.34,2.34,0,0,0,2.56,3.52Z"/><path class="c" d="M32,64.08a3.38,3.38,0,0,1-2.4-.2c-.12.17-.26.32-.37.49a2.34,2.34,0,1,0,4.12,2.19c.21-.43.2-.48-.16-.75A3.56,3.56,0,0,1,32,64.08Z"/><path class="c" d="M60,41.05c0,.21,0,.41.06,1.08,1.7-2.31,3.18-4.33,4.77-6.48C60.05,36.52,60,36.6,60,41.05Z"/><path class="c" d="M58.11,35.73c1.51.26,3.22-.61,4.84-1l-.09-.44c-5.2-.88-10.39-1.84-15.6-2.61a26,26,0,0,0-4.66.14l.06.54C47.8,33.54,52.92,34.83,58.11,35.73Z"/><path class="c" d="M54.5,39c-.32.13-.71,1-.58,1.2,1.14,2.07,2.38,4.08,3.77,6.42.67-.73,1.52-1.24,1.55-1.79.15-2.42.06-4.85.06-7.53C57.5,37.93,56,38.39,54.5,39Z"/><path class="c" d="M41.58,32.82c.21.67.33,1.08.56,1.83a18.1,18.1,0,0,1-2.9-.07c-.17,0-.19-1-.29-1.56l-4.46,1.11c.67.2,1,.34,1.43.42,5.13,1.06,10.27,2,15.37,3.2,2.23.51,3.92-.63,5.81-1.48Z"/><path d="M39.53,71.59c-.81.35-1.6.66-2.33.91l7.29,1.86L44,72.77Z"/><path d="M53.8,41.48,57.25,47c2.55-.69,2.6-.76,2.8-3.08a2.14,2.14,0,0,1,.31-1c1.64-2.26,3.31-4.5,5.26-7.14,0,.9,0,1.38,0,1.85q-.2,8.79-.38,17.58c.51.16,1,.33,1.44.51q.15-10.38.29-20.79c0-.4-.07-.8-.11-1.25C62,32.86,57.29,32,52.53,31.23c-3.49-.57-7-1.73-10.54-.37-.05,0-.15-.09-.32-.19,0-2,0-4,0-6,0-3.44-2.34-5-5.5-3.72-3.84,1.57-7.66,3.15-11.49,4.74-.4.17-.78.41-1.22.64l.87,2.05c4.25-1.76,8.4-3.49,12.56-5.2,1.71-.7,2.36-.3,2.38,1.49s0,3.84,0,5.76c0,.9-.3,1.26-1.18,1.45-2,.42-3.91,1.05-5.89,1.44-1.19.23-1.59.72-1.56,2,.14,5.59.23,11.19.35,16.79a8.14,8.14,0,0,1,1.22-.6q-.18-7.9-.37-15.83a2.82,2.82,0,0,1,.2-.52l20.15,4.15V57.05c.48-.29,1-.59,1.59-.89Zm5.44,3.36c0,.55-.88,1.06-1.55,1.79-1.39-2.34-2.63-4.35-3.77-6.42-.13-.24.26-1.07.58-1.2,1.47-.62,3-1.08,4.8-1.7C59.3,40,59.39,42.42,59.24,44.84Zm.86-2.71c0-.67-.06-.87-.06-1.08,0-4.45,0-4.53,4.83-5.4C63.28,37.8,61.8,39.82,60.1,42.13ZM47.26,31.71c5.21.77,10.4,1.73,15.6,2.61l.09.44c-1.62.36-3.33,1.23-4.84,1-5.19-.9-10.31-2.19-15.45-3.34l-.06-.54A26,26,0,0,1,47.26,31.71Zm4,6c-5.1-1.16-10.24-2.14-15.37-3.2-.38-.08-.76-.22-1.43-.42L39,33c.1.6.12,1.53.29,1.56a18.1,18.1,0,0,0,2.9.07c-.23-.75-.35-1.16-.56-1.83L57.1,36.27C55.21,37.12,53.52,38.26,51.29,37.75Z"/><path d="M38.45,68.84l.18,0a3.27,3.27,0,0,0,3-5.37c-.13-.15-.11-.24,0-.4a3.26,3.26,0,0,0-1.59-4.69,11,11,0,0,0-1.64-.35,3.23,3.23,0,0,0-1.61-2.51c.23-1.42.46-2.81.69-4.16l1.66.91-.27.17a2,2,0,0,0-.79,2.34A3.57,3.57,0,0,0,39,56.31a10.37,10.37,0,0,0,3,2.11,4.14,4.14,0,0,0,.94.21c.2,0,.31-.09.3-.3s0-.3,0-.38a8.37,8.37,0,0,0,1.26.19c.69,0,1.39-.09,2.09-.14.32,0,.4-.1.32-.41-.22-.93-.47-1.87-.72-2.83l.14-.07c.51-.24.54-.31.29-.83a8.23,8.23,0,0,0-1.79-2.39,4.35,4.35,0,0,0-1.85-1.06A2.84,2.84,0,0,0,40,51.1a5,5,0,0,0-.49.71c-.57-.41-1.14-.84-1.74-1.24a.57.57,0,0,1-.31-.55,12.07,12.07,0,0,0-.24-2.86l-1.48.2a19.32,19.32,0,0,1,.2,7.83,3.34,3.34,0,0,0-2.33.3l-.06,0c0-.09-.11-.18-.17-.27a3.28,3.28,0,0,0-5.67.23.37.37,0,0,1-.44.24A3.27,3.27,0,0,0,24.37,61l.24.28a3.37,3.37,0,0,0,.12,4.6A3.31,3.31,0,0,0,25,70.3a2.77,2.77,0,0,0-.19.26,3.26,3.26,0,0,0,.26,4.26c.12.13.25.25.37.37l.78.43h.14a3.27,3.27,0,0,0,4.06-1.78c.07-.16.12-.32.19-.49A3.27,3.27,0,0,0,33,73a3.21,3.21,0,0,0,1.51-1.79A3.35,3.35,0,0,0,38.45,68.84Zm1.08-15.66a1.59,1.59,0,0,1,.32-.16.64.64,0,0,0,.48-.56,1.42,1.42,0,0,1,1.1-1.15A3,3,0,0,1,44,52l-.55.06,0,.08A3,3,0,0,1,45.53,54a2.78,2.78,0,0,1-1.61.34l.79.31a1.14,1.14,0,0,1,.72,1c.1.54.25,1.08.37,1.58-.57,0-1.22.05-1.87.06a1.26,1.26,0,0,1-1.1-.58c-.17-.24-.33-.5-.47-.72,0,.5-.08,1-.12,1.57a3.48,3.48,0,0,1-2.1-2c0,.16-.1.28-.15.42a.59.59,0,0,1-.17-.13,9.82,9.82,0,0,1-.78-1.2A1,1,0,0,1,39.53,53.18Zm-1,5.93a2.33,2.33,0,0,1,2.27,3.56s0,0,0,0a9.29,9.29,0,0,0-1.18-.3,8.37,8.37,0,0,0-1.12,0c-.33-.56-.66-1.11-1-1.69a3.53,3.53,0,0,0,.84-1.42A.31.31,0,0,1,38.51,59.11Zm-5.37,2.94a2.33,2.33,0,1,1,4.07,2.28,2.33,2.33,0,0,1-4.07-2.28Zm.23,4.51a2.34,2.34,0,1,1-4.12-2.19c.11-.17.25-.32.37-.49a3.38,3.38,0,0,0,2.4.2,3.56,3.56,0,0,0,1.19,1.73C33.57,66.08,33.58,66.13,33.37,66.56Zm1.31-10.47a2.33,2.33,0,0,1,2.45,3.51l-.11.17c-.3.43-.36.44-.86.29a3.39,3.39,0,0,0-1.92,0A3.47,3.47,0,0,0,33,58.24a.41.41,0,0,1-.08-.33A2.35,2.35,0,0,1,34.68,56.09Zm-1.39,4.1a.31.31,0,0,1-.14.43,3.12,3.12,0,0,0-1.22,2.26.31.31,0,0,1-.27.32,2.26,2.26,0,0,1-1.46-.09,2.43,2.43,0,0,1-1.39-2.69,2.33,2.33,0,0,1,4.48-.23ZM31,54.63a2.22,2.22,0,0,1,1.7,1.26.38.38,0,0,1,0,.33A3.41,3.41,0,0,0,32,57.68l-2,.07A3.36,3.36,0,0,0,28.49,56,2.27,2.27,0,0,1,31,54.63Zm-6.07,3a2.22,2.22,0,0,1,2.1-1,2.25,2.25,0,0,1,2,1.48.29.29,0,0,1-.1.42,3.12,3.12,0,0,0-1.12,2.31.31.31,0,0,1-.27.34,2.34,2.34,0,0,1-2.49-.76A2.42,2.42,0,0,1,24.92,57.61Zm-.11,5.3A4.29,4.29,0,0,1,25.3,62a.29.29,0,0,1,.24-.1,3.35,3.35,0,0,0,2.37.11l.87,1.35c-.23.42-.49.88-.75,1.37a3.32,3.32,0,0,0-2.55.48A2.17,2.17,0,0,1,24.81,62.91Zm.53,3.75a2.31,2.31,0,0,1,2.4-1c.09,0,.24.12.24.19a3.44,3.44,0,0,0,1,2.1c-.09.12-.18.22-.25.33a3.3,3.3,0,0,0-.6,1.62.28.28,0,0,1-.24.3,2.34,2.34,0,0,1-2.56-3.52Zm2.18,8.2a2.29,2.29,0,0,1-2.28-1.58A2.22,2.22,0,0,1,25.68,71a.37.37,0,0,1,.32-.09,3.33,3.33,0,0,0,2.25.13,3.34,3.34,0,0,0,1.34,1.84.35.35,0,0,1,.07.32A2.3,2.3,0,0,1,27.52,74.86Zm5.65-3.17a2.34,2.34,0,0,1-3,.44,2.31,2.31,0,0,1-.79-3.07l.07-.13c.26-.42.28-.42.73-.28a3.21,3.21,0,0,0,2.54-.15.28.28,0,0,1,.4.07A2.34,2.34,0,0,1,33.17,71.69Zm4.3-3a2.31,2.31,0,0,1-2.78,1.53,3.35,3.35,0,0,0-1-2.42l.79-1.43c.22,0,.47,0,.73,0s.5,0,.77-.06a3.42,3.42,0,0,0,1.43,2C37.48,68.45,37.5,68.64,37.47,68.73Zm-.55-2.48a.32.32,0,0,1,.14-.39,3.12,3.12,0,0,0,1.36-2.22.3.3,0,0,1,.28-.29,2.24,2.24,0,0,1,2.34.9,2.19,2.19,0,0,1,.27,2.33,2.34,2.34,0,0,1-4.39-.33Z"/></svg>