<svg xmlns="http://www.w3.org/2000/svg" viewBox="0 0 100 100"><defs><style>.a{fill:#fff;}.b{fill:none;}</style></defs><title>iShop</title><path class="a" d="M-3-2.44V102.44H103V-2.44Zm27.33,83.8.32-3.22.87-.83-1.19-2-.2-2L25,71.52,23.6,69.21,24.33,67l.23-1.38-1-1.54V62.28l.54-1.65,1.62-.74,2.12-.37,1.39-1.28,1.27-.84,1.93-.28,1.1.76,1.36,1.3,1.5,0L38,59l1.49.68,1.06.86.24,1.35.44,1,1.68.21,1.53.47,1,2v1.57l-.65,1.46L45.51,70l.56,1.84-1.16,2.52L42,74.94H41L40.5,76.4l-1.24,1.18-1.82.56-1.3-.23-.8,1.56-1.89,1.14H31.39l-.36,1-1,1.3-1.86.62-2.27-.2Z"/><path class="b" d="M68.57,40.73c0,.26,0,.52.07,1.36l6-8.12C68.59,35.06,68.5,35.16,68.57,40.73Z"/><path class="b" d="M66.15,34.07c1.9.33,4-.77,6.07-1.21l-.12-.55C65.59,31.2,59.09,30,52.56,29a31.85,31.85,0,0,0-5.84.18l.08.67C53.25,31.33,59.65,33,66.15,34.07Z"/><path class="b" d="M60.91,39.68c1.42,2.6,3,5.12,4.72,8,.83-.92,1.89-1.55,1.94-2.24.18-3,.08-6.07.08-9.43-2.26.77-4.18,1.35-6,2.12C61.23,38.34,60.74,39.38,60.91,39.68Z"/><path class="b" d="M45.45,30.43c.26.84.42,1.35.7,2.29a22.39,22.39,0,0,1-3.63-.09c-.21,0-.23-1.19-.36-2l-5.59,1.39c.84.25,1.31.43,1.8.53,6.41,1.33,12.85,2.55,19.24,4,2.79.64,4.9-.8,7.28-1.86Z"/><path class="b" d="M69,43.09a2.7,2.7,0,0,0-.39,1.26c-.25,2.91-.31,3-3.51,3.86-1.32-2.12-2.67-4.28-4.31-6.93V82.69c.65-.31,1.17-.52,1.66-.79,3.58-2,7.14-4,10.75-5.88a2.54,2.54,0,0,0,1.58-2.55c.23-12.34.53-24.67.8-37,0-.6,0-1.19,0-2.32C73.11,37.45,71,40.26,69,43.09Z"/><path d="M77.11,31.52c-6-1-12-2.11-17.94-3.08-4.38-.71-8.74-2.17-13.2-.47-.07,0-.2-.11-.41-.23,0-2.46,0-5,0-7.52,0-4.3-2.93-6.28-6.89-4.66q-7.2,3-14.38,5.94c-.51.21-1,.51-1.53.8.4.95.73,1.71,1.09,2.57,5.32-2.2,10.52-4.37,15.73-6.51,2.13-.88,3-.38,3,1.86,0,2.41,0,4.81,0,7.21,0,1.14-.39,1.58-1.49,1.82-2.47.53-4.89,1.32-7.37,1.8-1.5.3-2,.91-1.95,2.46.17,7,.29,14,.43,21a10.85,10.85,0,0,1,1.53-.74c-.14-6.61-.32-13.22-.46-19.83a3.67,3.67,0,0,1,.25-.65l25.23,5.2V83.15l-6.47-1.68C49.15,80.65,46,79.81,42.88,79c-1,.43-2,.83-2.91,1.14,6.23,1.6,12.45,3.23,18.69,4.79a4.16,4.16,0,0,0,2.71-.35c4.61-2.4,9.13-5,13.72-7.38a2.59,2.59,0,0,0,1.58-2.58c.16-13.84.38-27.68.57-41.51A15.08,15.08,0,0,0,77.11,31.52ZM52.56,29c6.53,1,13,2.16,19.54,3.27l.12.55c-2,.44-4.17,1.54-6.07,1.21-6.5-1.12-12.9-2.74-19.35-4.18l-.08-.67A31.85,31.85,0,0,1,52.56,29ZM74.62,34l-6,8.12c0-.84-.07-1.1-.07-1.36C68.5,35.16,68.59,35.06,74.62,34ZM67.57,45.48c0,.69-1.11,1.32-1.94,2.24-1.74-2.92-3.3-5.44-4.72-8-.17-.3.32-1.34.72-1.51,1.84-.77,3.76-1.35,6-2.12C67.65,39.41,67.75,42.45,67.57,45.48Zm-10-8.87c-6.39-1.46-12.83-2.68-19.24-4-.49-.1-1-.28-1.8-.53l5.59-1.39c.13.76.15,1.92.36,2a22.39,22.39,0,0,0,3.63.09c-.28-.94-.44-1.45-.7-2.29l19.44,4.32C62.51,35.81,60.4,37.25,57.61,36.61Zm17.94-.14c-.27,12.33-.57,24.66-.8,37A2.54,2.54,0,0,1,73.17,76c-3.61,1.9-7.17,3.92-10.75,5.88-.49.27-1,.48-1.66.79V41.28c1.64,2.65,3,4.81,4.31,6.93,3.2-.87,3.26-1,3.51-3.86A2.7,2.7,0,0,1,69,43.09c2-2.83,4.14-5.64,6.58-8.94C75.55,35.28,75.56,35.87,75.55,36.47Z"/><path d="M25.28,83.49,24.81,83a4.09,4.09,0,0,1-.33-5.34l.25-.33a4.18,4.18,0,0,1-1.25-2.7,4.12,4.12,0,0,1,.87-2.83,4.21,4.21,0,0,1-.15-5.75c-.09-.12-.2-.24-.3-.36a4.08,4.08,0,0,1-.49-4.56A4,4,0,0,1,27.53,59c.31,0,.41-.05.55-.3a4.12,4.12,0,0,1,7.11-.29l.21.34.07,0a4.17,4.17,0,0,1,2.91-.36,24.21,24.21,0,0,0-.24-9.81L40,48.39A15.52,15.52,0,0,1,40.3,52a.69.69,0,0,0,.38.69c.75.49,1.46,1,2.18,1.55a6.68,6.68,0,0,1,.61-.89,3.54,3.54,0,0,1,3.65-.86,5.33,5.33,0,0,1,2.32,1.32,10,10,0,0,1,2.24,3c.32.64.28.73-.35,1l-.18.09c.31,1.2.62,2.37.91,3.54.09.39,0,.48-.42.51-.87.07-1.74.17-2.61.18a10,10,0,0,1-1.57-.25c0,.11,0,.3,0,.49s-.13.41-.38.37a4.61,4.61,0,0,1-1.18-.27,12.91,12.91,0,0,1-3.71-2.63A4.35,4.35,0,0,1,41.09,58a2.47,2.47,0,0,1,1-2.92l.33-.22-2.08-1.14-.86,5.21a4.1,4.1,0,0,1,2,3.15,13.74,13.74,0,0,1,2,.43,4.08,4.08,0,0,1,2,5.88.34.34,0,0,0,0,.5,4.1,4.1,0,0,1-3.78,6.72l-.23,0a4.2,4.2,0,0,1-4.93,3,4.13,4.13,0,0,1-4.85,2.66c-.09.21-.15.42-.24.62A4.1,4.1,0,0,1,26.43,84l-.18,0ZM50.4,56.91a3.78,3.78,0,0,0-2.66-2.29l0-.09.69-.08a3.79,3.79,0,0,0-3.22-.87A1.77,1.77,0,0,0,43.89,55a.82.82,0,0,1-.61.7,1.62,1.62,0,0,0-.4.19,1.3,1.3,0,0,0-.61,1.79,12.09,12.09,0,0,0,1,1.51.73.73,0,0,0,.22.16l.19-.53a4.35,4.35,0,0,0,2.62,2.47l.16-2c.17.27.37.59.58.9A1.59,1.59,0,0,0,48.4,61c.81,0,1.63,0,2.34-.07-.15-.63-.34-1.3-.46-2a1.44,1.44,0,0,0-.91-1.2l-1-.39A3.49,3.49,0,0,0,50.4,56.91ZM36,71a2.92,2.92,0,1,0-1.12-4A2.92,2.92,0,0,0,36,71ZM24.59,61.47a3,3,0,0,0,.17,3.44,2.93,2.93,0,0,0,3.12,1,.39.39,0,0,0,.34-.43,3.83,3.83,0,0,1,1.41-2.89.38.38,0,0,0,.12-.53,2.82,2.82,0,0,0-2.54-1.84A2.71,2.71,0,0,0,24.59,61.47ZM45.11,72.7a2.75,2.75,0,0,0-.33-2.92,2.82,2.82,0,0,0-2.93-1.12.37.37,0,0,0-.36.37,3.87,3.87,0,0,1-1.7,2.77.39.39,0,0,0-.17.49,2.93,2.93,0,0,0,2.48,2.12A3,3,0,0,0,45.11,72.7ZM31.2,68.36a2.81,2.81,0,0,0,1.83.11.37.37,0,0,0,.33-.39,3.87,3.87,0,0,1,1.54-2.83.42.42,0,0,0,.17-.55,2.93,2.93,0,0,0-5.62.3A3.06,3.06,0,0,0,31.2,68.36Zm-1.05,7.45a2.9,2.9,0,0,0,1,3.85,2.92,2.92,0,0,0,3.69-4.46.35.35,0,0,0-.5-.09,4.07,4.07,0,0,1-3.19.19c-.55-.18-.58-.18-.9.35Zm6.11-11.29a4.2,4.2,0,0,1,2.41,0c.62.19.69.17,1.07-.36l.14-.22a2.92,2.92,0,0,0-3.07-4.38,2.91,2.91,0,0,0-2.27,2.26.54.54,0,0,0,.1.42A4.28,4.28,0,0,1,36.26,64.52ZM29.68,74.4a4.35,4.35,0,0,1-1.26-2.64c0-.09-.18-.2-.3-.23a2.87,2.87,0,0,0-3,1.28,2.91,2.91,0,0,0,3.2,4.4.36.36,0,0,0,.31-.37,4,4,0,0,1,.74-2C29.46,74.68,29.57,74.55,29.68,74.4Zm-.93,3.92a4.2,4.2,0,0,1-2.82-.17.44.44,0,0,0-.39.11A2.82,2.82,0,0,0,25,81.09a2.9,2.9,0,0,0,2.86,2A2.87,2.87,0,0,0,30.52,81a.43.43,0,0,0-.09-.4A4.26,4.26,0,0,1,28.75,78.32Zm1.72-9c-.15.21-.33.4-.46.61a2.92,2.92,0,1,0,5.15,2.74c.27-.53.27-.59-.19-.94a4.39,4.39,0,0,1-1.49-2.16A4.35,4.35,0,0,1,30.47,69.33ZM28.33,67a4.24,4.24,0,0,1-3-.13.33.33,0,0,0-.29.11,5.65,5.65,0,0,0-.62,1.16A2.71,2.71,0,0,0,25.29,71a4.13,4.13,0,0,1,3.19-.6l.94-1.72Zm8.24,5.52-1,1.79a4.24,4.24,0,0,1,1.23,3A2.89,2.89,0,0,0,40.3,75.4c0-.12,0-.35-.06-.4a4.27,4.27,0,0,1-1.79-2.53c-.34,0-.65.07-1,.08S36.85,72.51,36.57,72.49Zm5-5a11,11,0,0,1,1.41,0,10.26,10.26,0,0,1,1.47.38s0,0,0,0a2.92,2.92,0,0,0,0-3.14,2.87,2.87,0,0,0-2.84-1.31.38.38,0,0,0-.26.2,4.32,4.32,0,0,1-1.05,1.78Zm-12.48-8a4.16,4.16,0,0,1,1.82,2.16l2.51-.1a4.28,4.28,0,0,1,.91-1.82.47.47,0,0,0,0-.42,2.79,2.79,0,0,0-2.13-1.58A2.85,2.85,0,0,0,29.06,59.5Z"/></svg>