<svg xmlns="http://www.w3.org/2000/svg" viewBox="0 0 100 100"><defs><style>.a{fill:#fff;}</style></defs><title>iShop</title><path class="a" d="M-.5-.5v101h101V-.5ZM45.93,66.06a5.95,5.95,0,1,1,6.31-5.94A6.14,6.14,0,0,1,45.93,66.06ZM46.58,53c1.16-5.43,6.23-3.75,6.23-3.75C50.92,52.87,46.58,53,46.58,53Z"/><path d="M35,79.74a.7.7,0,0,1-.71-.7V36.29l-.12.13v-.37l.12.14,4.19-10.62,0-4.6a.7.7,0,0,1,.7-.71H61.85a.71.71,0,0,1,.71.71v4.77l3.22,4.16,0,.11a.74.74,0,0,1,.05.26V73a.68.68,0,0,1-.27.54L58,79.64a.77.77,0,0,1-.34.1Zm.71-1.42H56.9V37H35.67ZM58.32,36.63V77.56l6.12-4.91V31.72ZM36,35.58H57.13l3.68-9.26H39.68Zm23.26-1.51,4.9-3.94L62,27.27ZM39.9,24.9H61.14V21.68H39.9Z"/><path d="M46.07,66.71c-4.06,0-7-2.66-7-6.33a7.09,7.09,0,0,1,5.49-6.89l.5-.11-.21-.46a18,18,0,0,0-.92-1.79.45.45,0,0,1,0-.34.49.49,0,0,1,.21-.28.46.46,0,0,1,.62.16c.28.5.54,1,.76,1.46l.38.78.38-.78a7.07,7.07,0,0,1,2.07-2.9,5.94,5.94,0,0,1,3-.61,14.8,14.8,0,0,1,1.78.11.46.46,0,0,1,.35.27.49.49,0,0,1-.06.44,12.64,12.64,0,0,1-3.36,3.14,6.33,6.33,0,0,1-1.22.42l-1.33.33,1.29.46a6.77,6.77,0,0,1,4.71,6.3C53.5,63.8,50.24,66.71,46.07,66.71ZM45,54.31a6.12,6.12,0,0,0-5,6c0,3.21,2.51,5.44,6.11,5.44s6.54-2.51,6.54-5.72a6.14,6.14,0,0,0-5.71-5.82l-.6-.07.15.59c.08.34.16.7.23,1.07l.06.34h.35c.38,0,.59.21.59.45a.46.46,0,0,1-.45.45H45.34a.45.45,0,0,1-.44-.45.44.44,0,0,1,.43-.45h.52l-.11-.5c-.08-.37-.17-.74-.27-1.09l-.11-.35Zm6.26-4.81a4.91,4.91,0,0,0-2.48.47c-.22.13-.58.43-1.3,1.67l-.45.77.88-.16a6.6,6.6,0,0,0,1.74-.48,7.22,7.22,0,0,0,1.91-1.57l.68-.71Z"/></svg>