<svg xmlns="http://www.w3.org/2000/svg" viewBox="0 0 100 100"><defs><style>.a{fill:#fff;}.b{fill:#e6e7e8;}</style></defs><title>iShop</title><path class="a" d="M-3-2.44V102.44H103V-2.44ZM71.59,59.78V52a19.38,19.38,0,0,1,2.29,0,1.85,1.85,0,0,1,1.59,1.84c0,1.36,0,2.72,0,4.07a1.9,1.9,0,0,1-1.89,1.86C72.93,59.8,72.29,59.78,71.59,59.78Zm0-27.43V24.58a16.43,16.43,0,0,1,2.33,0,1.82,1.82,0,0,1,1.55,1.86q0,2,0,4a1.89,1.89,0,0,1-1.88,1.92C72.94,32.37,72.3,32.35,71.59,32.35Zm0,13.73V38.32a18.16,18.16,0,0,1,2.45,0,1.8,1.8,0,0,1,1.43,1.85c0,1.31,0,2.63,0,4a1.93,1.93,0,0,1-1.77,1.93C73,46.12,72.33,46.08,71.59,46.08ZM50,34.76l3,6.16,6.79,1L54.91,46.7l1.16,6.76L50,50.27l-6.07,3.19,1.16-6.76-4.92-4.79,6.79-1Z"/><polygon class="b" points="28.45 69.39 31 68.48 67.72 68.48 67.72 74.3 31 74.3 27.88 73.23 27.3 70.85 28.25 69.37 28.45 69.39"/><path d="M77.05,57.53v-.86c0-.9,0-1.8,0-2.69a3.52,3.52,0,0,0-3.57-3.59H71.21V47.65h2.17A3.54,3.54,0,0,0,77,44q0-1.83,0-3.66a3.48,3.48,0,0,0-3.53-3.63c-.42,0-.84,0-1.28,0h-1V33.93h2.07a3.54,3.54,0,0,0,3.77-3.8V26.75A3.54,3.54,0,0,0,73.22,23h-.37a2.17,2.17,0,0,1-2.4-1.09,2.06,2.06,0,0,0-.88-.61c-.17-.08-.35-.17-.5-.26H29.5l-.33.08-.82.22A7.43,7.43,0,0,0,23,28.37q0,21.63,0,43.26A7.41,7.41,0,0,0,29.2,78.9a1.66,1.66,0,0,1,.29.09H69.08a1.33,1.33,0,0,1,.23-.1,2.58,2.58,0,0,0,1.86-2.53A2.64,2.64,0,0,0,69,74l-.24,0-.54-.07V69.36l.43-.12.29-.07a2.51,2.51,0,0,0,2.23-2.6c0-.95,0-1.9,0-2.84V61.36h2A3.54,3.54,0,0,0,77.05,57.53ZM70,66.3c0,1.25-.51,1.73-1.79,1.73H62.87q-16,0-32,0h0a3.92,3.92,0,0,0-2.51.71A3.48,3.48,0,0,0,27,72.59a3.53,3.53,0,0,0,3.22,2.49H68.18a3.62,3.62,0,0,1,.57,0A1.43,1.43,0,0,1,70,76.47a1.39,1.39,0,0,1-1.24,1.34,1.62,1.62,0,0,1-.31,0H30.75a6.27,6.27,0,0,1-6.62-6.62V43.87q0-7.62,0-15.25A6.21,6.21,0,0,1,29,22.36a6.87,6.87,0,0,1,1.62-.18H68.29c1.2,0,1.71.51,1.71,1.71Zm-3,2.91v4.65l-.56,0H30.68a2.43,2.43,0,0,1-2.52-1.65,2.36,2.36,0,0,1,2-3,5.08,5.08,0,0,1,.68,0Zm4.18-45h1.1a9.46,9.46,0,0,1,1.68,0,2.21,2.21,0,0,1,1.88,2.25c0,1.41,0,2.71,0,4a2.31,2.31,0,0,1-2.25,2.31H71.2Zm0,13.74h1.14a10.24,10.24,0,0,1,1.75,0,2.2,2.2,0,0,1,1.77,2.23c0,1.43,0,2.73,0,4a2.31,2.31,0,0,1-2.13,2.31c-.27,0-.54,0-.81,0H71.2Zm1,22.26h-1V51.6h1.1a9.9,9.9,0,0,1,1.63,0,2.25,2.25,0,0,1,1.93,2.22c0,1.52,0,2.86,0,4.09a2.29,2.29,0,0,1-2.27,2.24H72.22Z"/><path d="M31,25.4a.59.59,0,0,0-.57-.48h0a.58.58,0,0,0-.55.56c0,.13,0,.26,0,.39V64.42c0,.84.39.85.56.85a.43.43,0,0,0,.39-.13A1.07,1.07,0,0,0,31,64.4V25.85A2.12,2.12,0,0,0,31,25.4Z"/></svg>