<svg xmlns="http://www.w3.org/2000/svg" viewBox="0 0 100 100"><defs><style>.a{fill:#fff;}.b{fill:#e6e7e8;}</style></defs><title>iShop</title><path class="a" d="M-3.36-2.64V102.24h106V-2.64ZM22.92,80,9.33,80s-.5-11.33,0-14.33,7.92-4.55,7.92-4.55l5.67,8.38ZM51,80,37.44,80V69.49l5.67-8.38s7.42,1.55,7.92,4.55S51,80,51,80Z"/><path class="b" d="M85.25,80H57.06s.06-5.88,1.81-6.94V62.37L63,61.3s2.73,6.73,7.39,6.62c4.46,0,8.44-3,9.07-5.92l4.06.37v9.37S85.81,78.93,85.25,80Z"/><path d="M76.86,43.06a1.71,1.71,0,1,1,1.71-1.71A1.71,1.71,0,0,1,76.86,43.06Z"/><path d="M68.1,46.81a.81.81,0,0,1-.49-.5.78.78,0,0,1,.12-.68L70.46,42l1.22.91-2.09,2.8,1.66.55-.48,1.44Z"/><path d="M50.53,80V68.15a6.45,6.45,0,0,1,5.65-6.44l8.53-1.06a1.14,1.14,0,0,0,1-1.13V55.74h1.52v3.77a2.65,2.65,0,0,1-2.32,2.65l-8.53,1.06a4.91,4.91,0,0,0-4.31,4.92V80Z"/><path d="M90.32,80V68.2A4.93,4.93,0,0,0,86,63.27l-8.52-1.06a2.66,2.66,0,0,1-2.32-2.66V55.74h1.52v3.82a1.14,1.14,0,0,0,1,1.14l8.52,1.06a6.44,6.44,0,0,1,5.65,6.44V80Z"/><path d="M81.78,45.9V44.38h.77a2.09,2.09,0,0,0,0-4.17h-.77V38.69h.77a3.61,3.61,0,0,1,0,7.21Z"/><path d="M71.18,68.63A9.37,9.37,0,0,1,62.56,63L62,61.71l1.4-.6L64,62.35a7.86,7.86,0,0,0,14.44,0l.53-1.24,1.4.6L79.8,63a9.36,9.36,0,0,1-8.61,5.68Z"/><path d="M71.18,57.26a10.64,10.64,0,0,1-10.65-10.2l-.05-1.72,1.52,0,0,1.71a9.14,9.14,0,0,0,18.27,0l.51-8.35,1.52.09-.51,8.34A10.63,10.63,0,0,1,71.18,57.26Z"/><path d="M69.47,50.63V49.11H70a8.19,8.19,0,0,0,3.51-.79l.68,1.37a9.79,9.79,0,0,1-4.19.94Z"/><path d="M58.87,47.79a.78.78,0,0,1-.37-.09.79.79,0,0,1-.39-.61c0-.51-1-12.55,1-16.5,3-5.9,6.65-7,12-7,11.14,0,12.84,8,13.07,14.94v1.73H82.73v-1.7C82.41,29,79.06,25.06,71.18,25.06c-5,0-8.06,1-10.68,6.21-1.49,3-1.07,12.38-1,14.23v.3l.26-.15A42.65,42.65,0,0,0,75.27,30.54a.73.73,0,0,1,.64-.37.8.8,0,0,1,.71.46A27.68,27.68,0,0,0,82,38.79l-1.1,1.06a29.51,29.51,0,0,1-5-7l-.14-.28-.18.27a44.19,44.19,0,0,1-16.41,14.9A.94.94,0,0,1,58.87,47.79Z"/><rect x="82.73" y="45.32" width="1.52" height="16.67"/><rect x="58.11" y="46.27" width="1.52" height="15.73"/><path d="M56.22,80A16.77,16.77,0,0,1,58,72.66l.1-.2,0-10.09h1.52V72.6a.77.77,0,0,1-.08.34l-.2.4A15.33,15.33,0,0,0,57.74,80Z"/><path d="M84.62,80A15.19,15.19,0,0,0,83,73.34l-.2-.4a.81.81,0,0,1-.08-.34V62.37h1.52v10l.12.28A16.78,16.78,0,0,1,86.15,80Z"/><path d="M21.05,31.69a6.86,6.86,0,0,1-6.85-6.86A.82.82,0,0,1,15,24h.86l-.16-.27a3.82,3.82,0,0,1-.52-1.92v-1A.82.82,0,0,1,16,20h15.1A10.89,10.89,0,0,1,42,30.87a.82.82,0,0,1-.82.82Zm-5.11-5.81a5.24,5.24,0,0,0,5.11,4.17H40.32l0-.2a9.23,9.23,0,0,0-9.18-8.22H16.84v.19A2.2,2.2,0,0,0,19,24a.82.82,0,0,1,0,1.64H15.9Z"/><path d="M18.84,36.09c.68-.41,3.3-2.13,3.4-5h1.64c-.1,3.9-3.5,6-4.31,6.5Z"/><path d="M40.65,37.56c-.81-.46-4.21-2.59-4.31-6.5H38c.11,2.89,2.72,4.62,3.41,5Z"/><path d="M24.07,40.75a1.83,1.83,0,1,1,1.83-1.83A1.83,1.83,0,0,1,24.07,40.75Z"/><path d="M36.15,40.75A1.83,1.83,0,1,1,38,38.92,1.83,1.83,0,0,1,36.15,40.75Z"/><path d="M28.1,43.77a.83.83,0,0,1-.68-.36.81.81,0,0,1-.08-.77l1.94-4.86,1.52.61-1.49,3.74h1.62v1.64Z"/><path d="M28.28,46.15a6.06,6.06,0,0,0,4.14-1.64l1.16,1.16a7.68,7.68,0,0,1-5.3,2.12Z"/><path d="M41.36,43.77V42.13h.82a2.2,2.2,0,0,0,0-4.4h-.82V36.09h.82a3.84,3.84,0,1,1,0,7.68Z"/><path d="M18,43.77a3.84,3.84,0,1,1,0-7.68h.82v1.64H18a2.2,2.2,0,1,0,0,4.4h.82v1.64Z"/><path d="M30.12,54.84A11.69,11.69,0,0,1,18.6,45.19c-.06-.35-.1-.7-.13-1L18.22,41V31.06h1.64v9.87L20.1,44c0,.29.07.59.12.89a10,10,0,0,0,9.9,8.3,10.46,10.46,0,0,0,1.76-.15,10.25,10.25,0,0,0,8.27-9.44l.21-2.74V31.06H42v9.87l-.21,2.79A11.66,11.66,0,0,1,30.12,54.84Z"/><path d="M22.25,80V60.27a.82.82,0,0,1,.82-.82h.17a1.19,1.19,0,0,0,1-1.18V53.19H25.9v5.07A2.83,2.83,0,0,1,24,61l-.12,0V80Z"/><path d="M8.16,80V69.11a8.89,8.89,0,0,1,7.69-8.79l.94-.07.11,1.64L16,62A7.22,7.22,0,0,0,9.8,69.11V80Z"/><path d="M30.11,67.92a9.91,9.91,0,0,1-7.55-3.47l1.26-1.05a8.33,8.33,0,0,0,12.58,0l1.26,1.05A9.93,9.93,0,0,1,30.11,67.92Z"/><path d="M17,62.52a4.71,4.71,0,0,1,3.9-7.31h4v1.64h-4a3,3,0,0,0-3,3,3,3,0,0,0,.51,1.72l5.29,7.89-1.37.92Z"/><path d="M20.05,78a.82.82,0,0,1-.82-.82v-6a.82.82,0,0,1,1.64,0v6A.82.82,0,0,1,20.05,78Z"/><path d="M36.33,80V61l-.12,0a2.84,2.84,0,0,1-1.89-2.7V53.19H36v5.07a1.19,1.19,0,0,0,1,1.19h.2a.82.82,0,0,1,.82.82V80Z"/><path d="M50.42,80V69.11a7.26,7.26,0,0,0-6.27-7.17l-.83,0,.11-1.64.88.06a8.93,8.93,0,0,1,7.75,8.8V80Z"/><path d="M36.57,69.5l5.29-7.89a3,3,0,0,0,.51-1.71,3.05,3.05,0,0,0-3-3h-4V55.21h4a4.71,4.71,0,0,1,3.9,7.31l-5.29,7.9Z"/><path d="M40.17,78a.82.82,0,0,1-.82-.82v-6a.82.82,0,0,1,1.64,0v6A.82.82,0,0,1,40.17,78Z"/></svg>