<svg xmlns="http://www.w3.org/2000/svg" viewBox="0 0 100 100"><defs><style>.a{fill:#fff;}.b{fill:none;stroke:#000;stroke-linecap:round;stroke-linejoin:round;stroke-width:2px;}</style></defs><title>iShop</title><path class="a" d="M-2.34-3V103.27H103.24V-3ZM31.51,20.67a.87.87,0,0,1,.93,0,1.07,1.07,0,0,1,.45.9,5,5,0,0,0,1.17,3.16c.13.14.3.39.41,0a7.18,7.18,0,0,1,3.93-4.61h.74c.86.86.75,1.4-.35,2a4.87,4.87,0,0,0-2.61,3.91,1,1,0,0,0-.11.52c-.08,1-.71,1.34-1.6.91a9.83,9.83,0,0,1-1.68-1.19A7.28,7.28,0,0,1,31,21.64,1,1,0,0,1,31.51,20.67ZM48.47,67c-.53,0-1-.38-1.51-.39a8.79,8.79,0,0,0-1.79.27,19.43,19.43,0,0,1-2.62-4.35c-.28-.67-.57-.8-1.31-.64a31.58,31.58,0,0,1-5.54.93A26.71,26.71,0,0,1,29,62c-.93-.19-1-.18-1.43.68A19.54,19.54,0,0,1,25,66.92a4.63,4.63,0,0,0-3.3.1,9.44,9.44,0,0,1,1.17-9.37.77.77,0,0,0,.12-.74,5.32,5.32,0,0,1,1-4.57.65.65,0,0,1,1-.25,7.15,7.15,0,0,0,5.55.78c1.2-.25,2.4-.53,3.59-.8.14,0,.3,0,.38-.17a16.48,16.48,0,0,0,2.81-.23c2.43,0,4.51.71,5.89,2.86a1.13,1.13,0,0,0,.67.39,7.54,7.54,0,0,1,4.92,5.39A13.1,13.1,0,0,1,48.47,67Zm30.28.24a4.06,4.06,0,0,0-3.56-.35,9.58,9.58,0,0,0-.58-2.74A10.14,10.14,0,0,0,63.19,57.9a9.7,9.7,0,0,0-8.19,9,4.18,4.18,0,0,0-3.63.35,15,15,0,0,1,.17-3.73A13.51,13.51,0,0,1,63.85,52.41a9,9,0,0,1,2.49,0A13.59,13.59,0,0,1,78.51,63,17.92,17.92,0,0,1,78.75,67.27ZM78.4,33.73c-.07.23-.17.45-.26.68a4,4,0,0,0-3,0,6.41,6.41,0,0,1-1.57-.94,26,26,0,0,1-4.74-4.87c-.43-.55-.63-.59-1.16-.2a44.44,44.44,0,0,1-5.17,3.31,21.92,21.92,0,0,1-7.64,2.72,3.77,3.77,0,0,0-3.2.08c-.07-.59-.16-1.18-.2-1.77a12.26,12.26,0,0,1,2.52-9,12.55,12.55,0,0,1,7-4.06c.78-.19,1.58-.33,2.37-.5h2.95a5.58,5.58,0,0,0,1.27.36A8.36,8.36,0,0,1,70.51,21a.83.83,0,0,0,.6.24c4.81-.29,7.09,2.93,7.75,6.65A11.47,11.47,0,0,1,78.4,33.73Z"/><path class="b" d="M32.79,26.3a9.83,9.83,0,0,0,1.68,1.19c.89.43,1.52.08,1.59-.91a1.17,1.17,0,0,1,.12-.52,9.2,9.2,0,0,1,5.25,2.13A10.1,10.1,0,0,1,45,34a8,8,0,0,0,.3,1.61c-.18.23-.12.5-.13.77A29.39,29.39,0,0,1,45,41.48a10.12,10.12,0,0,1-11,8A9.85,9.85,0,0,1,28.38,47,10,10,0,0,1,25,39.19V35.57a10.24,10.24,0,0,1,7.08-9.15A2,2,0,0,1,32.79,26.3Z"/><path class="b" d="M54.89,40.57a3.8,3.8,0,0,0,.1-1.92c-.17-1.4-.05-2.8-.09-4.2a21.92,21.92,0,0,0,7.64-2.72,44.44,44.44,0,0,0,5.17-3.31c.53-.39.73-.35,1.16.2a26,26,0,0,0,4.74,4.87,6.29,6.29,0,0,0,1.58.94v6.15a10.13,10.13,0,0,1-8.53,10c-.15,0-.3,0-.32.21a9,9,0,0,0-2.49,0c0-.2-.17-.18-.32-.2a10,10,0,0,1-7.29-5A11.42,11.42,0,0,1,54.89,40.57Z"/><path class="b" d="M55,66.9A10.1,10.1,0,0,1,74.61,64a10.39,10.39,0,0,1,.58,2.87c0,1.25,0,2.5,0,3.75a10.14,10.14,0,0,1-1.78,5.82,9.7,9.7,0,0,1-6.51,4.2,9.84,9.84,0,0,1-9.45-3.3,9.2,9.2,0,0,1-2.43-6C55,69.88,55,68.39,55,66.9Z"/><path class="b" d="M25,66.92a19.54,19.54,0,0,0,2.61-4.28c.42-.86.5-.87,1.43-.68a26.71,26.71,0,0,0,6.66.89,31.58,31.58,0,0,0,5.54-.93c.74-.16,1,0,1.31.64a19.43,19.43,0,0,0,2.62,4.35c0,1.46.06,2.92,0,4.37a9.76,9.76,0,0,1-3.66,7.27A10,10,0,0,1,34,80.8a9.57,9.57,0,0,1-5.18-2.17,9.86,9.86,0,0,1-3.57-5.89,11.14,11.14,0,0,1-.2-1.82C25,69.59,25,68.25,25,66.92Z"/><path d="M35,46.85a4.06,4.06,0,0,0,3.48-1.69,1,1,0,0,0-.21-1.51c-.46-.32-1-.16-1.41.41a2.22,2.22,0,0,1-3.45,0c-.41-.56-1-.73-1.41-.43a1,1,0,0,0-.2,1.55A3.91,3.91,0,0,0,35,46.85Z"/><path d="M31.53,38.71c0-.32,0-.65,0-1a.9.9,0,0,0-1-.83.87.87,0,0,0-.9.83,14.9,14.9,0,0,0,0,1.89.87.87,0,0,0,.9.84.91.91,0,0,0,1-.83C31.55,39.33,31.53,39,31.53,38.71Z"/><path d="M40.51,38.71c0-.32,0-.65,0-1a.92.92,0,0,0-1-.84.87.87,0,0,0-.9.82,15.06,15.06,0,0,0,0,1.9.85.85,0,0,0,.89.83.91.91,0,0,0,1-.82C40.53,39.33,40.51,39,40.51,38.71Z"/><path d="M65.07,45.86c.29,0,.62-.06.94-.13a3.37,3.37,0,0,0,2.55-1.81,1,1,0,0,0-.35-1.29,1,1,0,0,0-1.29.3c-.07.1-.14.21-.21.3a2.33,2.33,0,0,1-3.32-.11c-.41-.61-.94-.8-1.42-.48s-.6,1-.16,1.61A4.08,4.08,0,0,0,65.07,45.86Z"/><path d="M61.55,37.71c0-.32,0-.65,0-1a.91.91,0,0,0-.95-.84.88.88,0,0,0-.91.82,17.2,17.2,0,0,0,0,1.9.89.89,0,0,0,1,.83.87.87,0,0,0,.9-.82A7,7,0,0,0,61.55,37.71Z"/><path d="M70.53,37.65c0-.3,0-.61,0-.92a.94.94,0,0,0-1.87.06c0,.61,0,1.22,0,1.83a.86.86,0,0,0,.9.83.9.9,0,0,0,1-.82C70.55,38.31,70.53,38,70.53,37.65Z"/><path d="M65,62.6h-2c-.62,0-.9-.26-.93-.82a.9.9,0,0,1,.84-1q2.12,0,4.23,0a.89.89,0,0,1,.83,1c0,.55-.31.81-.92.82Z"/><path d="M65.1,66.05c-.45,0-.9,0-1.35,0a1,1,0,0,1-1-1,.93.93,0,0,1,1-.82h2.64a.92.92,0,0,1,1,.83.94.94,0,0,1-1,1C66,66.06,65.55,66.05,65.1,66.05Z"/><path d="M39.89,75.92c0,1.58-.12,1.66-1.7,1.47a4,4,0,0,1-2.81-1.56c-.24-.32-.33-.3-.56,0a4.39,4.39,0,0,1-3.6,1.66c-.67,0-.92-.25-.94-.93a8.56,8.56,0,0,1,0-1.6c.41-2.21,2.17-3.17,4.2-3.36a6.33,6.33,0,0,1,2.66.32A3.88,3.88,0,0,1,39.89,75.92Z"/><path d="M40.5,68.64c0,.26,0,.53,0,.79a.91.91,0,0,1-.89.92.85.85,0,0,1-1-.73,5.1,5.1,0,0,1,0-2.06.87.87,0,0,1,1-.75.9.9,0,0,1,.9.91C40.52,68,40.5,68.33,40.5,68.64Z"/><path d="M31.52,68.62c0,.3,0,.61,0,.91a.93.93,0,0,1-1,.83.85.85,0,0,1-.89-.84,16,16,0,0,1,0-1.83,1,1,0,0,1,.91-.9,1,1,0,0,1,1,.85C31.55,68,31.52,68.29,31.52,68.62Z"/><path d="M65.12,71.58a4.69,4.69,0,0,1,4.11,1.87,4.77,4.77,0,0,1,.62,3.48c-.06.45-.48.57-.9.55a4.43,4.43,0,0,1-3.6-1.67c-.25-.33-.38-.27-.58,0a4.25,4.25,0,0,1-3.64,1.65.74.74,0,0,1-.84-.7c-.49-3,1.4-5,4.21-5.18C64.7,71.57,64.91,71.58,65.12,71.58Z"/><path d="M61.56,68.58c0,.29,0,.58,0,.86a.94.94,0,0,1-.95.91.92.92,0,0,1-.92-.88q0-.91,0-1.83a.92.92,0,0,1,1-.85.94.94,0,0,1,.92.88C61.57,68,61.55,68.28,61.56,68.58Z"/><path d="M70.53,68.58c0,.31,0,.61,0,.92a1,1,0,0,1-1,.85.92.92,0,0,1-.92-.87c0-.62,0-1.23,0-1.84a.92.92,0,0,1,.94-.85.94.94,0,0,1,.93.87C70.55,68,70.53,68.27,70.53,68.58Z"/></svg>