<svg xmlns="http://www.w3.org/2000/svg" viewBox="0 0 100 100"><defs><style>.a{fill:#fff;}</style></defs><title>iShop</title><path class="a" d="M-3-2.44V102.44H103V-2.44ZM78.73,45.81V51H21.28V45.81ZM66.22,23.3v9.6H33.79V23.3Z"/><rect x="63.68" y="57.12" width="6.08" height="1.82" transform="translate(-21.5 64.18) rotate(-45)"/><rect x="63.27" y="59.31" width="12.26" height="1.82" transform="translate(-22.25 66.72) rotate(-45)"/><polygon points="27.91 60.83 32.17 56.53 30.89 55.24 26.59 59.54 27.91 60.83"/><rect x="25.97" y="59.31" width="12.26" height="1.82" transform="translate(-33.18 40.34) rotate(-45)"/><path d="M79.64,75.79V38.39a.93.93,0,0,0-.91-.91H60.49V33.81h5.72a.93.93,0,0,0,.92-.91V23.3a.93.93,0,0,0-.92-.91H33.79a.91.91,0,0,0-.91.91v9.6a.91.91,0,0,0,.91.91h5.72v3.67H21.27a.91.91,0,0,0-.9.91v7.26h0V75.79H15.58v1.82H84.42V75.79ZM65.3,24.22V32H34.7V24.22Zm-6.65,9.59v3.67H41.33V33.81ZM78,39.16v5.9H22v-5.9ZM59.58,67.86v-16H77.81v16ZM58.51,50.05H22.19V46.73H77.81v3.32ZM40.43,51.88v16H22.19v-16Zm1.82,0h6.83V75.79H42.25Zm8.67,0h6.83V75.79H50.92Zm8.66,17.83H77.81v6.1H59.58Zm-19.15,0v6.1H22.19v-6.1Z"/></svg>