<svg xmlns="http://www.w3.org/2000/svg" viewBox="0 0 100 100"><defs><style>.a{fill:#fff;}</style></defs><title>iShop</title><path class="a" d="M-3-2.44V102.44H103V-2.44ZM63.13,64.32H36.91V47.51H63.13ZM55.47,21.67H44.58V15.11H55.47Z"/><path d="M58.81,86.46a5.51,5.51,0,0,1-4.14-1.89l-.26-.31-.27.31a5.48,5.48,0,0,1-8.28,0l-.27-.31-.26.31A5.49,5.49,0,0,1,35.69,81V36.27a1.12,1.12,0,0,1,.17-.59L44.06,23l-.24-.2a1.08,1.08,0,0,1-.38-.82V14.63a1.09,1.09,0,0,1,1.09-1.09H55.47a1.09,1.09,0,0,1,1.09,1.09v7.31a1.08,1.08,0,0,1-.38.82l-.24.2,8.2,12.72a1.12,1.12,0,0,1,.17.59V81A5.51,5.51,0,0,1,58.81,86.46Zm-4.4-6.59A1.08,1.08,0,0,1,55.49,81a3.32,3.32,0,0,0,6.64,0V65.11H37.86V81a3.32,3.32,0,1,0,6.64,0,1.09,1.09,0,0,1,2.18,0,3.32,3.32,0,0,0,6.64,0A1.09,1.09,0,0,1,54.41,79.87ZM37.87,62.93H62.13V48.27H37.87Zm.05-26.42-.05,9.58H62.13v-9.4l-8.64-13.5L46.61,23Zm7.69-15.67h8.78V15.72H45.61Z"/></svg>