<svg xmlns="http://www.w3.org/2000/svg" viewBox="0 0 100 100"><defs><style>.a{fill:#fff;}.b{fill:#e6e7e8;}.c{fill:none;stroke:#000;stroke-linecap:round;stroke-linejoin:round;}</style></defs><title>iShop</title><path class="a" d="M-3-2.44V102.44H103V-2.44Zm61.44,74a1.88,1.88,0,1,1-1.85-1.87A1.88,1.88,0,0,1,58.44,71.56Zm16.88,0a1.88,1.88,0,1,1-3.75,0,1.87,1.87,0,0,1,1.88-1.84A1.89,1.89,0,0,1,75.32,71.55ZM65,29.9l3,6.15,6.79,1-4.91,4.79,1.16,6.76L65,45.4l-6.08,3.19,1.16-6.76L55.18,37l6.79-1Z"/><polygon class="b" points="54.7 64.87 52.02 55.91 78.28 55.91 76.23 64.87 54.7 64.87"/><path d="M78.84,54.89H52.49l-1.37-4.65a.36.36,0,0,0,0-.09.74.74,0,0,1-.06-.34.78.78,0,0,1,.26-.56,3,3,0,0,0,1.32-2.7,3.17,3.17,0,0,0-1.91-2.67c-1.61-.78-3.24-1.6-4.82-2.39s-3.1-1.57-4.66-2.32A15.61,15.61,0,0,0,39,38.39l-.77-.22a3,3,0,0,0-.65-.11l-.37,0-.4-.05.29-.29A7.62,7.62,0,0,0,39.48,32a7.39,7.39,0,0,0-2.32-5.19A7.29,7.29,0,0,0,24.9,32.31a7.44,7.44,0,0,0,2.63,5.56l.24.21-.4.17-.24.09a8.12,8.12,0,0,0-6,7.72c-.05,3.41,0,6.8,0,9.66A4.43,4.43,0,0,0,24.52,60c.25.06.5.1.77.14s.25,0,.37.06l.17,0v4q0,3.68,0,7.35a3.53,3.53,0,0,0,1.43,2.85,3.4,3.4,0,0,0,3,.54,5.24,5.24,0,0,0,1.28-.63L32.2,74l.12-.06.1.09a3.7,3.7,0,0,0,2.37,1.11,3.44,3.44,0,0,0,2.62-.93,3.74,3.74,0,0,0,1.14-2.76q0-9.22,0-18.45V45.12l.53.22.35.15,2.08.95,4.69,2.12c.8.36,1.75.78,2.73,1.13a1,1,0,0,1,.69.69c.66,2.29,1.34,4.58,2,6.88L52,58.4l1.17,4,.6,2-.14.07a2.66,2.66,0,0,0-.07,4.77l.15.09-.07.16c-.89,2-.71,3.53.55,4.68a3.55,3.55,0,0,0,5.49-4.36l-.14-.29h11l-.21.45-.13.29a3.54,3.54,0,0,0,6.13,3.42A3.32,3.32,0,0,0,76.62,70a3.4,3.4,0,0,0-3.26-2H55.2a1.85,1.85,0,0,1-1.37-.4,1,1,0,0,1-.27-.76c0-1.12,1.23-1.12,1.62-1.12H76.46c.34,0,.41-.06.48-.38.55-2.63,1-4.79,1.51-6.8A11.3,11.3,0,0,0,78.84,54.89ZM26.37,32.18a5.83,5.83,0,0,1,5.82-5.82h0a5.83,5.83,0,0,1,0,11.65h0A5.83,5.83,0,0,1,26.37,32.18Zm23.88,16a1.74,1.74,0,0,1-1.46,0l-3.08-1.4L44.1,46l-1.17-.52c-.87-.38-1.76-.77-2.61-1.22a5.33,5.33,0,0,0-3.24-.58V71.24A3.83,3.83,0,0,1,37,72a2.07,2.07,0,0,1-4.09-.38c0-.56,0-1.11,0-1.66V54H31.46V58.9q0,6.24,0,12.48a2.27,2.27,0,0,1-.92,1.91,2,2,0,0,1-1.11.35,2.28,2.28,0,0,1-.72-.13,2,2,0,0,1-1.38-1.78,4,4,0,0,1,0-.49V44.6H25.85V58.55l-.18,0a2.87,2.87,0,0,1-3-2.77v-.67c0-3.07-.07-6.24,0-9.35a6.59,6.59,0,0,1,6.42-6.27c2.38-.06,5.15-.1,7.86,0a9.17,9.17,0,0,1,3.38.86c2.49,1.17,5,2.43,7.39,3.65l2.42,1.22a1.59,1.59,0,0,1,.95,1.9A1.55,1.55,0,0,1,50.25,48.16ZM73.44,69.49h0a2.07,2.07,0,0,1,0,4.14h0A2,2,0,0,1,72,73a2,2,0,0,1-.61-1.49A2.07,2.07,0,0,1,73.44,69.49Zm-16.87,0h0a2.07,2.07,0,0,1,0,4.14h0A2.05,2.05,0,0,1,55.1,73a2.06,2.06,0,0,1,1.47-3.52Zm19.1-5.23H56a.83.83,0,0,1-.95-.7c-.43-1.55-.9-3.12-1.35-4.64l-.52-1.76-.09-.36-.1-.43H77.41Z"/><rect x="58.69" y="58.65" width="1.38" height="3.3"/><rect x="64.3" y="58.65" width="1.4" height="3.3"/><rect x="69.93" y="58.65" width="1.4" height="3.3"/><polygon class="c" points="65.01 29.9 68.04 36.05 74.83 37.04 69.92 41.83 71.08 48.59 65.01 45.4 58.93 48.59 60.09 41.83 55.18 37.04 61.97 36.05 65.01 29.9"/></svg>