<svg xmlns="http://www.w3.org/2000/svg" viewBox="0 0 100 100"><defs><style>.a{fill:#fff;}.b{fill:#e2e2e2;}</style></defs><title>iShop</title><path class="a" d="M-3.24-3.12V103.12H103.24V-3.12ZM55,69.78a.25.25,0,0,1,.25-.25H60a.25.25,0,0,1,.25.25v4.54a.25.25,0,0,1-.25.25H55.23a.25.25,0,0,1-.25-.25Zm-11.78,0a.25.25,0,0,1,.25-.25h4.78a.25.25,0,0,1,.25.25v4.54a.26.26,0,0,1-.25.25H43.45a.25.25,0,0,1-.25-.25Zm-11.78,0a.25.25,0,0,1,.25-.25h4.78a.25.25,0,0,1,.25.25v4.54a.26.26,0,0,1-.25.25H31.67a.26.26,0,0,1-.25-.25Zm2.51-35.11h5.12v2.95a.75.75,0,0,0,1.5,0V34.67h5.93v2.95a.75.75,0,0,0,1.5,0V34.67h3.68V47.61H37.19V40.38a.74.74,0,0,0-.75-.75H33.93Z"/><path d="M43.45,76.07h4.78A1.76,1.76,0,0,0,50,74.32V69.78A1.75,1.75,0,0,0,48.23,68H43.45a1.75,1.75,0,0,0-1.75,1.75v4.54A1.75,1.75,0,0,0,43.45,76.07Zm-.25-6.29a.25.25,0,0,1,.25-.25h4.78a.25.25,0,0,1,.25.25v4.54a.26.26,0,0,1-.25.25H43.45a.25.25,0,0,1-.25-.25Z"/><path d="M31.67,76.07h4.78a1.76,1.76,0,0,0,1.75-1.75V69.78A1.75,1.75,0,0,0,36.45,68H31.67a1.75,1.75,0,0,0-1.75,1.75v4.54A1.76,1.76,0,0,0,31.67,76.07Zm-.25-6.29a.25.25,0,0,1,.25-.25h4.78a.25.25,0,0,1,.25.25v4.54a.26.26,0,0,1-.25.25H31.67a.26.26,0,0,1-.25-.25Z"/><circle class="b" cx="66.43" cy="27.11" r="11.11"/><path d="M55.23,76.07H60a1.75,1.75,0,0,0,1.75-1.75V69.78A1.75,1.75,0,0,0,60,68H55.23a1.75,1.75,0,0,0-1.75,1.75v4.54A1.75,1.75,0,0,0,55.23,76.07ZM55,69.78a.25.25,0,0,1,.25-.25H60a.25.25,0,0,1,.25.25v4.54a.25.25,0,0,1-.25.25H55.23a.25.25,0,0,1-.25-.25Z"/><circle cx="62.04" cy="42.14" r="0.69"/><path d="M66.43,38.68A11.57,11.57,0,1,0,54.86,27.11,11.58,11.58,0,0,0,66.43,38.68Zm0-22.14A10.57,10.57,0,1,1,55.86,27.11,10.58,10.58,0,0,1,66.43,16.54Z"/><path d="M82.34,47l-.17-1-10,1.81a2.19,2.19,0,0,0-1-.25H63.5l2.5-6a.76.76,0,0,0-.39-1l-7.56-3.3a.75.75,0,0,0-1,.33L53.15,45V33.92a.75.75,0,0,0-.75-.75H48V31.25c-.07-1.23-1.1-3.55-4.48-3.55s-4.39,2.36-4.44,3.64v1.83H33.18a.75.75,0,0,0-.75.75v5.71H25.58a.75.75,0,0,0-.75.75v7.23H20.47a2.19,2.19,0,0,0-2.18,2.18v6.68a2.19,2.19,0,0,0,2.18,2.18H21a2.45,2.45,0,0,0-.13.78l3,22.81A2.18,2.18,0,0,0,26,84.42H65.68a2.15,2.15,0,0,0,2.17-2.08l3-23a2.21,2.21,0,0,0-.12-.68h.46a2.19,2.19,0,0,0,2.18-2.18V49.79a2.11,2.11,0,0,0-.3-1.08ZM58.09,39l6.24,2.73-2.46,5.9H53.46Zm-17.54-7.6c0-.23.21-2.18,2.94-2.18s3,1.93,3,2.09v1.88H40.55Zm-6.62,3.29h5.12v2.95a.75.75,0,0,0,1.5,0V34.67h5.93v2.95a.75.75,0,0,0,1.5,0V34.67h3.68V47.61H37.19V40.38a.74.74,0,0,0-.75-.75H33.93Zm-7.6,6.46h9.36v6.48H26.33Zm43,18.1-3,23a.69.69,0,0,1-.68.68H26a.72.72,0,0,1-.68-.78l-3-22.81a.68.68,0,0,1,.67-.68H68.68A.7.7,0,0,1,69.37,59.23ZM71.2,49.11a.68.68,0,0,1,.68.68v6.68a.68.68,0,0,1-.68.68H20.47a.69.69,0,0,1-.68-.68V49.79a.69.69,0,0,1,.68-.68H65.23l-17,3.07a2.62,2.62,0,1,0,.18,1l22.39-4.06ZM45.93,53.62l1.5-.27a1.62,1.62,0,1,1-.18-1l-1.5.27Z"/><path d="M65.51,33.6V31.84a3.46,3.46,0,0,1-1.89-.93,3.75,3.75,0,0,1-1-1.73h1.84a2.19,2.19,0,0,0,2.15,1.12A2.27,2.27,0,0,0,67.86,30a1,1,0,0,0,.48-.83c0-.67-.55-1.08-1.65-1.22l-.89-.11a3.61,3.61,0,0,1-2.25-.92,2.47,2.47,0,0,1-.7-1.78,2.53,2.53,0,0,1,.71-1.82,3.4,3.4,0,0,1,2-.95V20.62h1.72v1.74a3.87,3.87,0,0,1,2,.95,3.61,3.61,0,0,1,1,1.72H68.42a1.48,1.48,0,0,0-.76-.82,2.85,2.85,0,0,0-1.34-.3,2,2,0,0,0-1.2.33,1,1,0,0,0-.44.82.89.89,0,0,0,.39.76,3,3,0,0,0,1.29.4l.84.12a3.86,3.86,0,0,1,2.23.91A2.41,2.41,0,0,1,70.17,29a2.65,2.65,0,0,1-.78,1.88,3.33,3.33,0,0,1-2.16,1V33.6Z"/></svg>