<svg xmlns="http://www.w3.org/2000/svg" viewBox="0 0 100 100"><defs><style>.a{fill:#fff;}.b{fill:#e6e7e8;}.c{stroke:#000;stroke-miterlimit:10;stroke-width:0.5px;}</style></defs><title>iShop</title><path class="a" d="M-3-2.44V102.44H103V-2.44Zm47.27,40h-23V29.37h23ZM68.46,60.34a2.91,2.91,0,1,1-2.9-2.91A2.9,2.9,0,0,1,68.46,60.34Zm8.68,0a2.91,2.91,0,1,1-2.91-2.91A2.9,2.9,0,0,1,77.14,60.34Z"/><path class="b" d="M81.14,71H19a1.25,1.25,0,0,1-1.24-1.25V54.94A1.25,1.25,0,0,1,19,53.7H81.14a1.25,1.25,0,0,1,1.24,1.24V69.73A1.25,1.25,0,0,1,81.14,71Zm-15.58-7h0a3.6,3.6,0,1,0-3.6-3.6,3.6,3.6,0,0,0,3.6,3.6m8.67,0h0a3.6,3.6,0,1,0-3.6-3.6,3.61,3.61,0,0,0,3.6,3.6"/><path class="c" d="M43.46,38.08H22.23a1.62,1.62,0,0,1-1.62-1.62V30.1a1.61,1.61,0,0,1,1.62-1.62H43.46a1.61,1.61,0,0,1,1.62,1.62v6.39a1.61,1.61,0,0,1-1.62,1.62M22.23,29.37a.73.73,0,0,0-.73.73v6.39a.73.73,0,0,0,.73.72H43.46a.73.73,0,0,0,.73-.72V30.1a.73.73,0,0,0-.73-.73H22.23Z"/><path class="c" d="M68.85,22.8a.44.44,0,0,1-.34-.16l-.81-1.09-.81,1a.45.45,0,0,1-.64,0l0,0-.8-1-.81,1a.44.44,0,0,1-.68,0l-.85-1-.81,1a.44.44,0,0,1-.76-.43.44.44,0,0,1,.08-.11l1.15-1.49a.46.46,0,0,1,.34-.16.46.46,0,0,1,.35.16l.81,1,.81-1a.46.46,0,0,1,.64,0l0,0,.81,1,.81-1A.43.43,0,0,1,68,20.5l.06.06,1.15,1.49a.43.43,0,0,1-.34.7"/><path class="c" d="M68.85,22.8a.45.45,0,0,1-.43-.45.54.54,0,0,1,.09-.25l1.15-1.49a.45.45,0,0,1,.64,0l0,0,.81,1.06L72,20.61a.45.45,0,0,1,.64,0l.05,0,.81,1.06.81-1.06a.45.45,0,0,1,.64,0l0,0L76.1,22.1a.44.44,0,0,1,0,.62.43.43,0,0,1-.62,0,.39.39,0,0,1-.08-.1l-.8-1.09-.81,1a.45.45,0,0,1-.64,0l0,0-.81-1-.81,1a.45.45,0,0,1-.64,0s0,0,0,0l-.81-1-.81,1a.46.46,0,0,1-.34.16"/><path class="c" d="M68.85,42.64a.44.44,0,0,1-.34-.16l-.81-1-.81,1a.46.46,0,0,1-.64,0l0,0-.82-1-.81,1a.43.43,0,0,1-.34.16.44.44,0,0,1-.34-.16l-.81-1-.81,1a.44.44,0,0,1-.76-.44l.08-.1,1.15-1.49a.44.44,0,0,1,.68,0l.81,1,.81-1a.45.45,0,0,1,.64,0l0,0,.82,1,.81-1a.43.43,0,0,1,.61-.07.46.46,0,0,1,.07.07l1.15,1.49a.44.44,0,0,1-.09.61.4.4,0,0,1-.25.09"/><path class="c" d="M68.85,42.64a.45.45,0,0,1-.43-.45.54.54,0,0,1,.09-.25l1.15-1.49a.45.45,0,0,1,.64,0l0,0,.81,1,.81-1a.45.45,0,0,1,.64,0l.05,0,.81,1,.81-1a.45.45,0,0,1,.64,0l0,0,1.15,1.49a.44.44,0,1,1-.6.64l-.08-.1-.81-1-.81,1a.46.46,0,0,1-.64,0l0,0-.82-1-.81,1a.46.46,0,0,1-.64,0s0,0,0,0l-.81-1-.81,1a.44.44,0,0,1-.34.16"/><path class="c" d="M61.92,42.64a.44.44,0,0,1-.44-.44h0V22.36a.44.44,0,1,1,.88,0V42.15a.44.44,0,0,1-.44.44h0"/><path class="c" d="M75.79,42.64a.44.44,0,0,1-.44-.44h0V22.36a.44.44,0,0,1,.52-.34.43.43,0,0,1,.34.34V42.15a.44.44,0,0,1-.43.44h0"/><path class="c" d="M72.87,28.12H65a.43.43,0,0,1-.34-.51.44.44,0,0,1,.34-.35h7.9a.45.45,0,0,1,.52.35.45.45,0,0,1-.35.51h-.17"/><path class="c" d="M72.87,32.16H65a.43.43,0,0,1-.34-.51A.43.43,0,0,1,65,31.3h7.9a.44.44,0,1,1,.17.86.49.49,0,0,1-.17,0"/><path class="c" d="M72.87,36.28H65a.43.43,0,0,1-.34-.51.43.43,0,0,1,.34-.35h7.9a.44.44,0,1,1,.17.86h-.17"/><path class="c" d="M82.22,54H17.78A1.61,1.61,0,0,1,16,52.55h0V46.4A1.62,1.62,0,0,1,17.78,45H82.22A1.61,1.61,0,0,1,84,46.4h0v6.2A1.61,1.61,0,0,1,82.22,54h0M17.78,45.88c-.48,0-.9.28-.9.59v6.19c0,.31.42.59.9.59H82.22c.48,0,.9-.28.9-.59V46.4c0-.31-.42-.58-.9-.58Z"/><path class="c" d="M82.22,79.59H17.78A1.61,1.61,0,0,1,16,78.15h0V72a1.61,1.61,0,0,1,1.78-1.44H82.22A1.61,1.61,0,0,1,84,72h0v6.2a1.61,1.61,0,0,1-1.78,1.44h0M17.78,71.37c-.48,0-.9.27-.9.58v6.2c0,.31.42.58.9.58H82.22c.48,0,.9-.27.9-.58V72c0-.31-.42-.58-.9-.58Z"/><path class="c" d="M81,71.37H19.13c-1,0-1.78-.57-1.78-1.3V54.46c0-.73.77-1.29,1.78-1.29H81c1,0,1.79.56,1.79,1.29V70.07c0,.73-.78,1.3-1.79,1.3M19.13,54c-.55,0-.91.26-.91.44V70c0,.18.36.42.91.42H81c.55,0,.91-.26.91-.42V54.46c0-.17-.36-.43-.91-.43Z"/><path class="c" d="M42.28,40.5H23.41a7.17,7.17,0,0,1-7.17-7.17h0a7.18,7.18,0,0,1,7.12-7.22H42.28a7.17,7.17,0,0,1,7.17,7.17h0a7.17,7.17,0,0,1-7.17,7.17h0M23.41,27a6.31,6.31,0,0,0-6.29,6.29h0a6.31,6.31,0,0,0,6.29,6.3H42.28a6.31,6.31,0,0,0,6.29-6.3h0A6.31,6.31,0,0,0,42.28,27Z"/><rect class="c" x="21.94" y="57.17" width="0.86" height="9.72"/><rect class="c" x="25.49" y="57.17" width="0.86" height="9.72"/><rect class="c" x="29.06" y="57.17" width="0.86" height="9.72"/><rect class="c" x="32.61" y="57.17" width="0.86" height="9.72"/><path class="c" d="M74.23,63.94a3.6,3.6,0,1,1,3.61-3.6,3.6,3.6,0,0,1-3.61,3.6h0m0-6.33A2.73,2.73,0,1,0,77,60.34a2.72,2.72,0,0,0-2.73-2.73h0"/><path class="c" d="M65.56,63.94a3.6,3.6,0,1,1,3.6-3.6,3.6,3.6,0,0,1-3.6,3.6h0m0-6.33a2.73,2.73,0,1,0,2.72,2.73,2.73,2.73,0,0,0-2.72-2.73h0"/><rect class="c" x="21.24" y="39.83" width="0.86" height="5.55"/><rect class="c" x="25.49" y="40.06" width="0.86" height="5.32"/><rect class="c" x="39.59" y="39.83" width="0.86" height="5.55"/><rect class="c" x="43.84" y="40.06" width="0.86" height="5.32"/><path class="c" d="M76.05,45.88H61.66a1.78,1.78,0,0,1-1.78-1.78h0v-.54a1.78,1.78,0,0,1,1.78-1.78H76.05a1.79,1.79,0,0,1,1.79,1.78v.54a1.79,1.79,0,0,1-1.79,1.78M61.66,42.64a.91.91,0,0,0-.91.91h0v.53a.91.91,0,0,0,.91.91H76.05a.91.91,0,0,0,.91-.91h0v-.53a.91.91,0,0,0-.91-.91H61.66Z"/></svg>