<svg xmlns="http://www.w3.org/2000/svg" viewBox="0 0 100 100"><defs><style>.a{fill:#fff;}.b{fill:none;stroke:#000;stroke-linecap:round;stroke-linejoin:round;stroke-width:2px;}</style></defs><title>iShop</title><path class="a" d="M-2.34-3V103.27H103.24V-3ZM60.57,59l5.23-.25,2.76,15.67H64.11Zm7.32,21.91A2.1,2.1,0,1,1,70,78.83,2.1,2.1,0,0,1,67.89,80.92Zm8.82.19A2.29,2.29,0,1,1,79,78.83,2.28,2.28,0,0,1,76.71,81.11Zm4.5-44.87v3.92l-1.33,3.08-3.52,2.35-3.82.22L70.14,44,68,40.68,67,43.09l-2.59,2.13-4.47.35-2.5-1.8L55.15,40.9l-1.32,2.34-2.48,2-3.79.5-3.11-1.44-2-3-2,2.77-3.71,1.73L32.3,44.9l-3.2-3.15-4.19,4.06-5.62-.89-2.85-3.45L15.59,35l65.77-.28Z"/><path class="b" d="M24.27,19.1,16.13,34.53a.1.1,0,0,0,.09.14l65,.36a.19.19,0,0,0,.17-.28L72.49,18.89Z"/><line class="b" x1="23.95" y1="45.86" x2="23.95" y2="70.89"/><polyline class="b" points="57.78 71.27 17.76 71.27 17.76 76.06 61.36 76.06"/><polyline class="b" points="31.1 71.01 31.1 51.23 44.32 51.23 44.32 70.82"/><line class="b" x1="40.49" y1="59.01" x2="40.49" y2="65.52"/><line class="b" x1="75.05" y1="45.93" x2="75.05" y2="53.81"/><path class="b" d="M16.07,34.5v4.8a6.52,6.52,0,0,0,6.51,6.51h0A6.52,6.52,0,0,0,29.1,39.3V35.06"/><path class="b" d="M29.1,34.5v4.8a6.52,6.52,0,0,0,6.51,6.51h0a6.52,6.52,0,0,0,6.52-6.51V35.06"/><path class="b" d="M42.13,34.5v4.8a6.51,6.51,0,0,0,6.51,6.51h0a6.51,6.51,0,0,0,6.51-6.51V35.06"/><path class="b" d="M55.15,34.5v4.8a6.52,6.52,0,0,0,6.52,6.51h0a6.51,6.51,0,0,0,6.51-6.51V35.06"/><path class="b" d="M68.18,34.5v4.8a6.52,6.52,0,0,0,6.52,6.51h0a6.52,6.52,0,0,0,6.51-6.51V35.06"/><polyline class="b" points="56.55 54.29 60.73 56.79 64.11 74.43 81.5 74.43"/><line class="b" x1="66.51" y1="63.2" x2="78.22" y2="63.2"/><line class="b" x1="66.51" y1="66.2" x2="78.22" y2="66.2"/><polyline class="b" points="63.34 70.42 81.5 70.42 83.93 59.01 61.15 59.01"/><circle class="b" cx="67.89" cy="78.83" r="2.29"/><circle class="b" cx="76.71" cy="78.83" r="2.29"/></svg>