<svg xmlns="http://www.w3.org/2000/svg" viewBox="0 0 100 100"><defs><style>.a{fill:#fff;}.b{fill:none;stroke:#000;stroke-linecap:round;stroke-linejoin:round;stroke-width:2px;}</style></defs><title>iShop</title><path class="a" d="M-2.34-3V103.27H103.24V-3ZM61.21,75.61l-5.77,3.68L52,80.16,45.9,77.37l-4.7-5-5.13-5.68-2.2-6.56L32,53.72l-2.56-5.1-3.79-3.75-1.82-2.61,2-2.08L29,39.25l4.28,1.39,4.39,4.09,3,4,2,2.38,1.1,1,3.75-3.31L65.56,71.85Z"/><path class="b" d="M43.81,52.57,68.63,27a3.71,3.71,0,0,1,4,1,4.13,4.13,0,0,1,.85,4.39L61.09,45.11s3.73-3.32,6.2-.85S65,51.61,65,51.61s3.51-3.38,6.08-.81-2.32,7.47-2.32,7.47,3.19-3.14,6.33,0c0,0,2.11,1.61-.25,4.06s-12.11,12.53-15,15-9.69,5.07-14.16-.5-9-8.11-10.09-11.48S31.8,51.06,30.91,50.13,23.44,42.78,24.07,42a7,7,0,0,1,8.61-1.68C37.58,42.62,42.49,52.4,43.81,52.57Z"/><line class="b" x1="50.97" y1="31.85" x2="58.52" y2="24.29"/><line class="b" x1="40.05" y1="31.85" x2="33.3" y2="24.96"/><line class="b" x1="45.7" y1="31.13" x2="45.7" y2="19.83"/></svg>