<svg xmlns="http://www.w3.org/2000/svg" viewBox="0 0 100 100"><defs><style>.a{fill:#fff;}</style></defs><title>iShop</title><path class="a" d="M-4.26-3V103.27h106.7V-3ZM63.28,65.28a8.92,8.92,0,0,1-8.91,8.92H50.75V51.91h3.62a8.91,8.91,0,0,1,8.91,8.91ZM45.63,50.41a8.92,8.92,0,0,1-8.91-8.92V37a8.91,8.91,0,0,1,8.91-8.91h3.62V50.41Z"/><path d="M54.37,50.41H50.75V28.12h3.62A8.91,8.91,0,0,1,63.28,37a.75.75,0,0,0,1.5,0A10.42,10.42,0,0,0,54.37,26.62H50.75V20.2a.75.75,0,0,0-1.5,0v6.42H45.63A10.42,10.42,0,0,0,35.22,37v4.46A10.43,10.43,0,0,0,45.63,51.91h3.62V74.2H45.63a8.92,8.92,0,0,1-8.91-8.92V60.82a.75.75,0,1,0-1.5,0v4.46A10.43,10.43,0,0,0,45.63,75.7h3.62v4.1a.75.75,0,1,0,1.5,0V75.7h3.62A10.43,10.43,0,0,0,64.78,65.28V60.82A10.42,10.42,0,0,0,54.37,50.41Zm-8.74,0a8.92,8.92,0,0,1-8.91-8.92V37a8.91,8.91,0,0,1,8.91-8.91h3.62V50.41ZM63.28,65.28a8.92,8.92,0,0,1-8.91,8.92H50.75V51.91h3.62a8.91,8.91,0,0,1,8.91,8.91Z"/></svg>