<svg xmlns="http://www.w3.org/2000/svg" viewBox="0 0 100 100"><defs><style>.a{fill:#fff;}.b{fill:none;stroke:#000;stroke-linecap:round;stroke-linejoin:round;stroke-width:2px;}</style></defs><title>iShop</title><path class="a" d="M-2.34-3V103.27H103.24V-3ZM60.47,72.77A10.59,10.59,0,1,1,71.06,62.18,10.59,10.59,0,0,1,60.47,72.77Z"/><circle class="b" cx="60.47" cy="62.18" r="10.98"/><path class="b" d="M50,66.67l-3.15,3.26a11.6,11.6,0,0,1-16.36.28h0a11.6,11.6,0,0,1-.28-16.35l23-23.79a11.6,11.6,0,0,1,16.36-.28h0a11.6,11.6,0,0,1,.28,16.35L64.53,51.6"/><line class="b" x1="43.64" y1="43.5" x2="51.55" y2="51.19"/><line class="b" x1="52.77" y1="62.18" x2="68.17" y2="62.18"/></svg>