<svg xmlns="http://www.w3.org/2000/svg" viewBox="0 0 100 100"><defs><style>.a{fill:#fff;}.b,.d{fill:none;}.b,.c,.d{stroke:#000;stroke-miterlimit:10;}.c{fill:#e6e7e8;}.d{stroke-linecap:round;}</style></defs><title>iShop</title><path class="a" d="M-3-2.44V102.44H103V-2.44ZM32.88,71.07h-.22a1.52,1.52,0,0,1-1.51-1.37l-2.1-18.36v0a1.53,1.53,0,0,1,1.38-1.65l0,0h.18A1.52,1.52,0,0,1,32.09,51l2.16,18.4v0A1.51,1.51,0,0,1,32.88,71.07ZM41.66,71a1.54,1.54,0,0,1-1.52-1.37L38.84,51.1a1.51,1.51,0,0,1,1.36-1.63l.09.05a1.53,1.53,0,0,1,1.52,1.37l1.37,18.43v.05A1.56,1.56,0,0,1,41.66,71Zm10.09-1.52a1.52,1.52,0,0,1-3,0V50.94h0a1.52,1.52,0,0,1,1.52-1.51v0A1.52,1.52,0,0,1,51.75,51Zm8.28,0a1.54,1.54,0,0,1-1.62,1.37A1.52,1.52,0,0,1,57,69.19l1.37-18.42a1.52,1.52,0,0,1,1.52-1.37H60A1.52,1.52,0,0,1,61.4,51ZM71.21,51.23l-2,18.32a1.53,1.53,0,0,1-1.51,1.37h-.21a1.53,1.53,0,0,1-1.34-1.68l2.11-18.4a1.52,1.52,0,0,1,1.51-1.37l-.08.08h.2A1.52,1.52,0,0,1,71.21,51.23Z"/><path class="b" d="M31.29,74.75a4.71,4.71,0,0,1-4.67-4.1L23.46,45.24H77.21L74.06,70.62a4.71,4.71,0,0,1-4.67,4.11Zm-.87-25.09A1.53,1.53,0,0,0,29,51.31v0l2.1,18.36a1.52,1.52,0,0,0,1.51,1.37h.22a1.51,1.51,0,0,0,1.37-1.65v0L32.09,51a1.52,1.52,0,0,0-1.51-1.37H30.4m19.83-.2a1.53,1.53,0,0,0-1.52,1.52h0V69.43a1.52,1.52,0,0,0,3,0V51a1.52,1.52,0,0,0-1.52-1.52h0m-10,0a1.51,1.51,0,0,0-1.36,1.63l1.3,18.48A1.54,1.54,0,0,0,41.66,71a1.56,1.56,0,0,0,1.52-1.58v-.05L41.81,50.89a1.53,1.53,0,0,0-1.52-1.37Zm29.55,0a1.52,1.52,0,0,0-1.51,1.37l-2.11,18.4a1.53,1.53,0,0,0,1.34,1.68h.21a1.53,1.53,0,0,0,1.51-1.37l2-18.32a1.52,1.52,0,0,0-1.34-1.68h-.2m-9.74-.15a1.52,1.52,0,0,0-1.52,1.37L57,69.19a1.52,1.52,0,0,0,1.37,1.63h0A1.54,1.54,0,0,0,60,69.45L61.4,51A1.52,1.52,0,0,0,60,49.4Z"/><path class="c" d="M21.61,48.78V41a2.18,2.18,0,0,1,2.17-2.18H76.21A2.19,2.19,0,0,1,78.39,41h0v7.83Z"/><line class="d" x1="30.09" y1="43.5" x2="48.34" y2="25.25"/><line class="d" x1="69.71" y1="43.5" x2="51.44" y2="25.25"/></svg>