<svg xmlns="http://www.w3.org/2000/svg" viewBox="0 0 100 100"><defs><style>.a{fill:#fff;}</style></defs><title>iShop</title><path class="a" d="M-3-2.44V102.44H103V-2.44Zm56.79,60-7,5.87,3.83-5-7.29-7.78L44.22,49c1.32-2.45,2.69-5,4.11-7.51a1,1,0,0,1,.61-.35c1.51,0,3,0,4.61,0h3.11l-8,10ZM34.38,28,37,21.85H63L65.62,28Z"/><path d="M51,82.85c-.27,0-.55-.07-.82-.08l-9.18,0a3.07,3.07,0,0,1-3.09-2.3.82.82,0,0,0-.48-.45,5,5,0,0,1-4.1-5.23q0-23.26,0-46.52A6.05,6.05,0,0,1,34,25.91c.59-1.34,1.32-2.61,2-4l-.09-.11a2.55,2.55,0,0,1-.56-2.95A2.71,2.71,0,0,1,38,17.16q12,0,24.06,0a2.83,2.83,0,0,1,2.63,1.75,2.55,2.55,0,0,1-.4,2.82l-.21.26c.72,1.41,1.49,2.69,2,4.07a7.61,7.61,0,0,1,.47,2.73c.05,4.21,0,8.42,0,12.64,0,7.42,0,14.84,0,22.26,0,3.74,0,7.48,0,11.22a4.76,4.76,0,0,1-4,5.08c-.18.05-.44.18-.47.31a3,3,0,0,1-2.45,2.55ZM64.65,40.39c0-3.55,0-7.1,0-10.65,0-.21,0-.42,0-.66H35.35v46a2.76,2.76,0,0,0,3.16,3l.58,0,22.46,0a2.85,2.85,0,0,0,3.08-3c0-3.21,0-6.42,0-9.62ZM64.39,27a10.42,10.42,0,0,0-2.1-3.67,2.28,2.28,0,0,0-1.44-.55c-7.23,0-14.46,0-21.69,0a2.47,2.47,0,0,0-1.59.66,10.75,10.75,0,0,0-2,3.55ZM49.9,20.75h12c.66,0,1.06-.32,1.06-.84s-.27-.75-1-.75H38.14c-.7,0-1.08.28-1.09.79s.26.8,1,.8Zm10.15,59.4H39.93c.12.61.54.64,1,.64H59.17C59.6,80.81,60.07,80.86,60.05,80.15Z"/></svg>