<svg xmlns="http://www.w3.org/2000/svg" viewBox="0 0 100 100"><defs><style>.a{fill:#fff;}</style></defs><title>iShop</title><path class="a" d="M-3-2.44V102.44H103V-2.44Zm55,88.5H30.18l-8.95-.45-2.57-4.43V51.09l7.83-2.5,6.71,1.57L38.78,53l6.86.84,6.26-1.51L56,51.86l.19,30.86ZM69.59,37.27A11.41,11.41,0,1,1,81,25.86,11.4,11.4,0,0,1,69.59,37.27Z"/><path d="M17.9,81.22a5.63,5.63,0,0,0,2.49,4.69,5.71,5.71,0,0,0,3.17,1h27.9a5.6,5.6,0,0,0,2.21-.45,5.66,5.66,0,0,0,2.48-2,5.54,5.54,0,0,0,.72-1.49,5.89,5.89,0,0,0,.25-1.68V46.69a15,15,0,0,0-2.51-8.3l-4.79-7.18a1.31,1.31,0,0,1-.15-1.11,1.35,1.35,0,0,1,.76-.84,3.28,3.28,0,0,0,1.47-1.21,3.5,3.5,0,0,0,.42-.87,3.35,3.35,0,0,0,.15-1V21.54a3.35,3.35,0,0,0-.26-1.3,3.35,3.35,0,0,0-2.08-1.89,3.4,3.4,0,0,0-1-.15H25.88a3.17,3.17,0,0,0-1.29.27,3.26,3.26,0,0,0-1.47,1.2,3.4,3.4,0,0,0-.42.88,3.3,3.3,0,0,0-.15,1v4.65a3.34,3.34,0,0,0,.26,1.29A3.28,3.28,0,0,0,24,29a2.7,2.7,0,0,0,.58.31,1.32,1.32,0,0,1,.76.84,1.28,1.28,0,0,1-.16,1.11l-4.79,7.18a15,15,0,0,0-2.51,8.3Zm6.66-55V21.54a1.33,1.33,0,0,1,1.32-1.32H49.14a1.32,1.32,0,0,1,1.31,1.32v4.65a1.32,1.32,0,0,1-1.31,1.32H25.88A1.33,1.33,0,0,1,24.56,26.19Zm-4.65,20.5a12.9,12.9,0,0,1,2.18-7.18l6.26-9.4a1.33,1.33,0,0,1,1.1-.59H45.57a1.33,1.33,0,0,1,1.1.59l6.26,9.4a12.89,12.89,0,0,1,2.17,7.18v2.55a1.34,1.34,0,0,1-.89,1.25L49.15,52.2A14.51,14.51,0,0,1,36.3,50.47h0l-.53-.36A17.12,17.12,0,0,0,27,47.65a16.79,16.79,0,0,0-5.38.91,1.32,1.32,0,0,1-1.75-1.24Zm0,5.65a1.33,1.33,0,0,1,.75-1.19A14.65,14.65,0,0,1,27,49.68h0a14.49,14.49,0,0,1,8.13,2.46l.46.3.11.05A17,17,0,0,0,44.46,55a16.34,16.34,0,0,0,5.34-.88l3.57-1.2a1.34,1.34,0,0,1,1.18.17,1.32,1.32,0,0,1,.55,1.08V81.22a3.6,3.6,0,0,1-1.6,3,3.69,3.69,0,0,1-1,.46,3.58,3.58,0,0,1-1.08.16H23.56a3.6,3.6,0,0,1-3-1.6,3.33,3.33,0,0,1-.46-1,3.55,3.55,0,0,1-.17-1.09Z"/><path d="M69.59,13.12A12.51,12.51,0,1,0,82.1,25.63,12.52,12.52,0,0,0,69.59,13.12Zm0,1.61a10.9,10.9,0,1,1-10.9,10.9A10.91,10.91,0,0,1,69.59,14.73Z"/><path d="M63.74,26.44h5.05v5.27a.81.81,0,1,0,1.61,0V26.44h5a.81.81,0,0,0,0-1.62h-5V20a.81.81,0,0,0-1.61,0v4.81H63.74a.81.81,0,1,0,0,1.62Z"/></svg>