<svg xmlns="http://www.w3.org/2000/svg" viewBox="0 0 100 100"><defs><style>.a{fill:#fff;}</style></defs><title>iShop</title><path class="a" d="M-2.34-3V103.27H103.24V-3ZM63.5,25.9a1,1,0,0,1,1.29-.48,1,1,0,0,1,.48,1.3,1,1,0,0,1-.55.5h0a.92.92,0,0,1-.33.06.93.93,0,0,1-.4-.09,1,1,0,0,1-.52-.56A1,1,0,0,1,63.5,25.9Zm-2.15.35a.94.94,0,0,1,.55-.5,1,1,0,0,1,.75,0,1,1,0,0,1,.5.55,1,1,0,0,1,0,.75,1,1,0,0,1-.55.5.92.92,0,0,1-.33.06.9.9,0,0,1-.42-.1,1,1,0,0,1-.46-1.29Zm-.07,2a1,1,0,0,1-.56.51.88.88,0,0,1-.33.06,1,1,0,0,1-.41-.09,1,1,0,0,1-.5-.55,1,1,0,0,1,0-.74,1,1,0,0,1,1.3-.48,1,1,0,0,1,.47,1.29ZM67,29a5.74,5.74,0,0,0-1.09,1.76.81.81,0,0,1-.44.43.78.78,0,0,1-.26,0,.82.82,0,0,1-.35-.08,5.06,5.06,0,0,0-2.63-.42.78.78,0,0,1-.84-.57.74.74,0,0,1,.46-.88l4.4-1.55a.74.74,0,0,1,.89.33A.76.76,0,0,1,67,29Z"/><path d="M69.2,29.25a1.4,1.4,0,0,0-.76-.85.65.65,0,0,0,0-.13,1.49,1.49,0,0,0-.31-.51A1.44,1.44,0,0,0,68,27.3L68,27.18a1.79,1.79,0,0,0,0-1.31,3.29,3.29,0,0,0-2.65-2,7.53,7.53,0,0,0-3.9.39q-.47.18-.9.39a7.49,7.49,0,0,0,.1-1.17,7.16,7.16,0,1,0-3.27,6c0,.07,0,.14,0,.21a1.83,1.83,0,0,0,.86,1,.5.5,0,0,0,0,.13,1.2,1.2,0,0,0,.22.4,1.57,1.57,0,0,0,.09.6l.06.13a1.38,1.38,0,0,0,0,1.13A1.65,1.65,0,0,0,60,34.22l-.36,2-1.51-.25a4.93,4.93,0,0,0-4.41-4.58l-2.92-.43a3.83,3.83,0,0,0-4.1,2.29h0L34.21,45.51a2.74,2.74,0,0,0-.37,3.83,2.68,2.68,0,0,0,2.08,1,2.9,2.9,0,0,0,1.57-.47l6.89-5.65-1.87,9.18-2.64,11.1a2,2,0,0,1-.3.66L31.55,76a4.45,4.45,0,0,0-.77,3.53,4.39,4.39,0,0,0,2.12,2.93,4.33,4.33,0,0,0,2.21.6,4.41,4.41,0,0,0,3.42-1.62l8.81-10.71a3.38,3.38,0,0,0,.54-.94l2.24-6,2.09,2.74a1.52,1.52,0,0,1,.28.57L56.05,80.3a4.48,4.48,0,0,0,4.34,3.33,5,5,0,0,0,1-.11,4.5,4.5,0,0,0,2.84-2A4.42,4.42,0,0,0,64.76,78l-3.6-14.15a3.35,3.35,0,0,0-.55-1.14l-6.83-9,2.66-10.21a.34.34,0,0,0,0-.1l7.88.38h0a.76.76,0,0,0,.75-.67l1.28-11,1.87-.68A1.68,1.68,0,0,0,69.2,29.25Zm-4,1.93a.82.82,0,0,1-.35-.08,5.06,5.06,0,0,0-2.63-.42.78.78,0,0,1-.84-.57.74.74,0,0,1,.46-.88l4.4-1.55a.74.74,0,0,1,.89.33A.76.76,0,0,1,67,29a5.74,5.74,0,0,0-1.09,1.76.81.81,0,0,1-.44.43A.78.78,0,0,1,65.21,31.18Zm-5.57-4.06a6.22,6.22,0,0,1,2.3-1.43,6,6,0,0,1,3.1-.33,1.89,1.89,0,0,1,1.53,1,.35.35,0,0,1,0,.26L59,29.37a.39.39,0,0,1-.18-.18,1.48,1.48,0,0,1,.1-1.06A8,8,0,0,0,59.64,27.12ZM66,30.45l1.77-.64a.23.23,0,0,1,0,.22l-1.84.67ZM64.57,31l.26.11-4.58,1.66h0c-.07,0-.13,0-.18-.14ZM47.87,23.5a5.63,5.63,0,1,1,10.57,2.71,3.31,3.31,0,0,0-.26.27,4.17,4.17,0,0,0-.55.84,5.62,5.62,0,0,1-9.76-3.82ZM36.6,48.64a1.22,1.22,0,0,1-1.38-2L46.06,36l-1.21,5.91Zm9.88,20.59a1.9,1.9,0,0,1-.3.51L37.37,80.45a2.92,2.92,0,0,1-4.61-3.59l8-10.83a3.48,3.48,0,0,0,.56-1.2l2.28-9.57L49,62.37Zm12.93-5.6a1.52,1.52,0,0,1,.29.6l3.61,14.15a3,3,0,0,1-5.81,1.53L53.94,66.7a3.09,3.09,0,0,0-.54-1.09L44.68,54.19l7.9.74h.07l.12,0ZM52.33,53.4l-8.14-.76,2-10h0a.74.74,0,0,0,.18-.92l1.52-7.49a2.35,2.35,0,0,1,2.65-1.86l3,.44a3.47,3.47,0,0,1,3.07,2.83l-2.68-.45a4.33,4.33,0,0,0-5.15,3.34c-.46,2.22,1,4.14,3.44,4.67h.12l2.61.13ZM63.71,42.29l-11.24-.53c-1.36-.31-2.56-1.32-2.23-2.88a2.82,2.82,0,0,1,1.22-1.8,2.85,2.85,0,0,1,2.18-.38l3.55.6.16.05h.06l2.71.46a.75.75,0,0,0,.86-.61l.61-3.33,3.23-1.17Z"/></svg>