<svg xmlns="http://www.w3.org/2000/svg" viewBox="0 0 100 100"><defs><style>.a{fill:#fff;}.b{fill:#e6e7e8;}</style></defs><title>iShop</title><path class="a" d="M-3.36-2.64V102.24h106V-2.64ZM78.5,13.07s0-.09.07-.13l8.71,8.14-1.77,1.34-1.32,1.33c-.54.56-1,1-1.32,1.32-1.07,1-1.07,1-1.05,2.7,0,.45,0,1,0,1.77A9.18,9.18,0,0,1,81,34.19c-1,1.78-2.21,3.62-3.25,5.24-.45.7-.9,1.4-1.35,2.12a.93.93,0,0,1-.66.45l-.28.06a3.4,3.4,0,0,1-.65.09,1.2,1.2,0,0,1-.68-.19,2,2,0,0,1-.7-1.61,1.5,1.5,0,0,1,.35-1l.09-.13,1-1.65c.52-.85,1-1.7,1.54-2.57a.77.77,0,0,0-.12-1,.66.66,0,0,0-.41-.16,1.08,1.08,0,0,0-.67.3c-.1.09-.2.2-.31.31l-11.4,11.4c-.12.13-.25.25-.38.37a1.79,1.79,0,0,1-1.21.51,1.54,1.54,0,0,1-1.15-.52,1.61,1.61,0,0,1,.09-2.35l5.44-5.44a4.6,4.6,0,0,0,.46-.53.73.73,0,0,0-.5-1.14.85.85,0,0,0-.26,0,1.88,1.88,0,0,0-.67.48L60.61,41.9,58.52,44l-.13.15a1.66,1.66,0,0,1-.93.61,1.91,1.91,0,0,1-.43,0,1.5,1.5,0,0,1-1.57-2.08,1.67,1.67,0,0,1,.58-.87l.11-.1L62.92,35a3.15,3.15,0,0,0,.49-.58.66.66,0,0,0,0-.61.76.76,0,0,0-.55-.41l-.15,0a1.22,1.22,0,0,0-.76.45l-5.53,5.53a1.86,1.86,0,0,1-1.32.63,1.55,1.55,0,0,1-1.1-.48,1.57,1.57,0,0,1-.52-1.15A1.91,1.91,0,0,1,54.16,37l5.37-5.36a4.41,4.41,0,0,0,.48-.56.7.7,0,0,0-.09-.86.69.69,0,0,0-.5-.23.71.71,0,0,0-.39.12,3.64,3.64,0,0,0-.56.48c-1.09,1.07-2.16,2.15-3.24,3.23l-.42.42a1.76,1.76,0,0,1-1.27.6,1.69,1.69,0,0,1-1.62-1.65,1.88,1.88,0,0,1,.57-1.25L63.07,21.33a10.65,10.65,0,0,1,6-3.2A20.57,20.57,0,0,1,71.45,18c.5,0,1,0,1.49-.06.71-.06.89-.18.93-.22C75.65,16,77.17,14.5,78.5,13.07Z"/><path class="b" d="M26.06,82.21s.22-.16.93-.22c.49,0,1,0,1.48-.06a20.6,20.6,0,0,0,2.35-.15,10.7,10.7,0,0,0,6-3.19L47.43,68A2,2,0,0,0,48,66.74a1.55,1.55,0,0,0-.55-1.19,1.53,1.53,0,0,0-1.07-.45,1.83,1.83,0,0,0-1.28.59l-.42.43-3.23,3.22a3.16,3.16,0,0,1-.57.48.68.68,0,0,1-.38.12.72.72,0,0,1-.51-.22.7.7,0,0,1-.09-.86,3.39,3.39,0,0,1,.49-.56l5.36-5.37a1.87,1.87,0,0,0,.66-1.35,1.59,1.59,0,0,0-.52-1.14A1.57,1.57,0,0,0,44.79,60a1.86,1.86,0,0,0-1.32.63l-5.53,5.54a1.2,1.2,0,0,1-.76.44l-.15,0a.71.71,0,0,1-.54-.41.67.67,0,0,1,0-.6,3,3,0,0,1,.5-.59l6.76-6.77.11-.1a1.66,1.66,0,0,0,.59-.87,1.9,1.9,0,0,0-.35-1.67,1.86,1.86,0,0,0-1.23-.4,2.9,2.9,0,0,0-.43,0,1.63,1.63,0,0,0-.92.61l-.14.16L39.31,58l-4.66,4.65a2,2,0,0,1-.68.49.77.77,0,0,1-.25,0,.58.58,0,0,1-.49-.28.63.63,0,0,1,0-.86,3.3,3.3,0,0,1,.47-.52l5.43-5.45a1.6,1.6,0,0,0,.09-2.35,1.58,1.58,0,0,0-1.15-.52,1.82,1.82,0,0,0-1.21.52c-.13.11-.26.24-.38.36L25.07,65.5a3.07,3.07,0,0,1-.32.31,1,1,0,0,1-.66.3.68.68,0,0,1-.42-.15.78.78,0,0,1-.11-1c.5-.86,1-1.71,1.54-2.57l1-1.64.09-.14a1.6,1.6,0,0,0,.35-1A2,2,0,0,0,25.83,58a1.28,1.28,0,0,0-.68-.18,2.6,2.6,0,0,0-.64.09l-.29,0a.93.93,0,0,0-.66.45c-.45.72-.89,1.42-1.34,2.12C21.17,62.1,20,64,19,65.73a9.08,9.08,0,0,0-.87,4.65c0,.77,0,1.32,0,1.76,0,1.67,0,1.67-1,2.71-.35.33-.79.75-1.33,1.31s-.88.89-1.32,1.33l-1.77,1.34L21.36,87a.39.39,0,0,1,.06-.13C22.75,85.41,24.27,83.9,26.06,82.21Z"/><path class="b" d="M26.14,82.22s.22-.16.93-.22c.49,0,1,0,1.48-.07a18.53,18.53,0,0,0,2.35-.14,10.72,10.72,0,0,0,6-3.2L47.51,68a1.94,1.94,0,0,0,.58-1.25,1.56,1.56,0,0,0-.55-1.2,1.53,1.53,0,0,0-1.07-.45,1.8,1.8,0,0,0-1.28.6l-.42.42q-1.6,1.62-3.23,3.23a4.26,4.26,0,0,1-.57.48.76.76,0,0,1-.38.11.65.65,0,0,1-.5-.22.67.67,0,0,1-.09-.86,3.72,3.72,0,0,1,.48-.56l5.36-5.37a1.85,1.85,0,0,0,.66-1.34A1.61,1.61,0,0,0,46,60.44,1.56,1.56,0,0,0,44.87,60a1.88,1.88,0,0,0-1.32.63L38,66.12a1.2,1.2,0,0,1-.76.44h-.15a.76.76,0,0,1-.54-.41.69.69,0,0,1,0-.61,3.65,3.65,0,0,1,.5-.59l6.76-6.76.11-.11a1.66,1.66,0,0,0,.59-.87,1.9,1.9,0,0,0-.35-1.67,1.86,1.86,0,0,0-1.23-.4,2,2,0,0,0-.43,0,1.58,1.58,0,0,0-.92.61l-.14.15L39.39,58c-1.55,1.55-3.1,3.11-4.66,4.65a2,2,0,0,1-.68.49.79.79,0,0,1-.25.05.6.6,0,0,1-.49-.29.62.62,0,0,1,0-.85,4.69,4.69,0,0,1,.47-.53l5.43-5.44a1.6,1.6,0,0,0,.09-2.35,1.54,1.54,0,0,0-1.15-.52,1.8,1.8,0,0,0-1.21.51l-.38.37L25.15,65.51l-.32.31a1,1,0,0,1-.66.29.68.68,0,0,1-.42-.15.78.78,0,0,1-.11-1c.5-.86,1-1.71,1.54-2.56l1-1.65.09-.13a1.61,1.61,0,0,0,.35-1A1.92,1.92,0,0,0,25.91,58a1.2,1.2,0,0,0-.68-.19,3.19,3.19,0,0,0-.64.09l-.29.06a.9.9,0,0,0-.66.45c-.44.71-.89,1.42-1.34,2.11-1,1.63-2.23,3.47-3.25,5.25a9.08,9.08,0,0,0-.87,4.65c0,.77,0,1.32,0,1.76,0,1.67,0,1.67-1.05,2.71-.35.33-.78.75-1.33,1.32s-.88.89-1.32,1.33l-1.77,1.33L21.44,87a.42.42,0,0,1,.07-.13C22.84,85.42,24.35,83.9,26.14,82.22Z"/><path d="M21.59,88.09a2.12,2.12,0,0,1-.31-.69c0-.13,0-.42.63-1l1.2-1.19c.88-.88,1.75-1.74,2.62-2.64A1.91,1.91,0,0,1,27.2,82h.16a24.64,24.64,0,0,0,4.11-.3,10.14,10.14,0,0,0,5.43-3L47.48,68a1.63,1.63,0,0,0,.11-2.43,1.56,1.56,0,0,0-1.12-.5,1.85,1.85,0,0,0-1.31.62q-1.81,1.83-3.64,3.65a3.67,3.67,0,0,1-.56.47.68.68,0,0,1-.86-.1.66.66,0,0,1-.09-.89,3.35,3.35,0,0,1,.49-.57l5.09-5.1a5.47,5.47,0,0,0,.55-.58,1.71,1.71,0,0,0,.34-1.32,1.4,1.4,0,0,0-.68-.95,1.91,1.91,0,0,0-.95-.23,1.85,1.85,0,0,0-.91.21,4.15,4.15,0,0,0-1,.86l-.29.31L38,66.16a1.18,1.18,0,0,1-.75.43,1,1,0,0,1-.23,0,.74.74,0,0,1-.46-.42.62.62,0,0,1,0-.55,2.77,2.77,0,0,1,.53-.64l6.7-6.72.13-.11a1.76,1.76,0,0,0,.61-.9,2,2,0,0,0-.33-1.65A1.73,1.73,0,0,0,43,55.12a2.73,2.73,0,0,0-.41,0,1.75,1.75,0,0,0-.93.61L34.82,62.6a5.21,5.21,0,0,1-.52.46.81.81,0,0,1-.46.15.71.71,0,0,1-.49-.2.7.7,0,0,1-.05-.94,3.64,3.64,0,0,1,.49-.55l5.13-5.14.1-.09a1.46,1.46,0,0,0,.56-.87,1.94,1.94,0,0,0-.36-1.67,1.62,1.62,0,0,0-1.12-.38,2.84,2.84,0,0,0-.6.06,1.73,1.73,0,0,0-.89.61l-.14.16L25,65.71a1.25,1.25,0,0,1-.81.42.6.6,0,0,1-.39-.16c-.22-.17-.45-.49,0-1.19s2.47-4.09,2.47-4.09l.07-.1a1.43,1.43,0,0,0,.34-1A2.07,2.07,0,0,0,25.87,58a1.5,1.5,0,0,0-.76-.18,1.68,1.68,0,0,0-1.39.59c-1.56,2.32-3.16,4.71-4.6,7.19a9.82,9.82,0,0,0-.94,5.12c0,.54,0,1,0,1.31v.15c0,1.69,0,1.69-1,2.69-.31.29-.69.67-1.17,1.16-.81.83-1.63,1.64-2.46,2.46a1.23,1.23,0,0,1-.8.41.63.63,0,0,1-.45-.21c-.12-.12-.51-.51.22-1.25l.56-.57c.79-.82,1.69-1.74,2.59-2.57a3.12,3.12,0,0,0,1-2.47,36.59,36.59,0,0,1,.3-4.51,11.45,11.45,0,0,1,2-4.72l.87-1.29c.25-.38.26-.4.26-.52a27.85,27.85,0,0,0,1.75-2.5c.88-1.41,1.85-2.06,3-2.06l.42,0a3.33,3.33,0,0,1,2.86,2.67l.42,1.29L30,58.62c.32-.37.57-.66.84-.93,1.6-1.62,3.2-3.23,4.83-4.83a3.47,3.47,0,0,1,2.42-1.12,3.43,3.43,0,0,1,2.62,1.43,1.57,1.57,0,0,0,1.12.53,5.28,5.28,0,0,1,1.2-.2,3.21,3.21,0,0,1,2.53,1.3A3.41,3.41,0,0,1,46,57.89l0,.24.06.31c1.88,1.43,2.35,2.74,1.67,4.59l-.05.29,0,.25.67.67a3.13,3.13,0,0,1,.54,4.47,7.81,7.81,0,0,1-.62.67l-3.44,3.43c-2.21,2.2-4.42,4.4-6.59,6.62a13,13,0,0,1-9.55,4h-.46a2.67,2.67,0,0,0-2.17.87c-1,1.06-2,2.09-3,3a5.89,5.89,0,0,1-.68.53l-.23.17Z"/><path d="M21.33,38.76a.58.58,0,0,1-.41-.23l-.64-.78a25.42,25.42,0,0,1-2.41-3.19,11.51,11.51,0,0,1-1.38-6.46,2.47,2.47,0,0,0-.83-2.05c-1.14-1.08-2.18-2.15-3.14-3.14a4.71,4.71,0,0,1-.47-.61l-.32-.45.14-.18a1.41,1.41,0,0,1,.72-.44c.15,0,.44.11,1,.64l1.6,1.6c.76.77,1.49,1.5,2.23,2.21a2.06,2.06,0,0,1,.61,1.5l0,.36a31.68,31.68,0,0,0,.51,4.71,10.43,10.43,0,0,0,3.09,4.94,1.67,1.67,0,0,1,.45.89,1.55,1.55,0,0,1-.57.63A.34.34,0,0,1,21.33,38.76Z"/><path d="M87.41,78.7c-.15,0-.44-.11-1-.64l-1.21-1.22c-.87-.87-1.73-1.74-2.62-2.6a1.81,1.81,0,0,1-.6-1.45A26.1,26.1,0,0,0,81.83,69a10.67,10.67,0,0,0-3.21-6,2.54,2.54,0,0,1-.54-.71.66.66,0,0,1,.3-.78.8.8,0,0,1,.4-.14,1,1,0,0,1,.64.34A11.58,11.58,0,0,1,83,67.52a20,20,0,0,1,.37,2.74c.06.69.11,1.27.19,1.85a3.12,3.12,0,0,0,.68,1.6c.62.67,1.27,1.31,1.92,2,.45.44.9.89,1.34,1.35a5.52,5.52,0,0,1,.51.66l.28.4-.14.18A1.41,1.41,0,0,1,87.41,78.7Z"/><path d="M61.86,48.18a2.91,2.91,0,0,1-1.56-.46,5.71,5.71,0,0,1-.89-.78c-.23-.22-.39-.38-.56-.53L58,46.26h-.12l-.69,0a3.31,3.31,0,0,1-2.68-1,4,4,0,0,1-.45-3.4v-.27L54,41.43,53.46,41a3.22,3.22,0,0,1-1.27-3.68,1.59,1.59,0,0,0-.44-1.54,3.47,3.47,0,0,1-1.34-2.44,3.28,3.28,0,0,1,1.06-2.45Q56.81,25.46,62.2,20.1a12.5,12.5,0,0,1,9.1-3.65h.47A2.8,2.8,0,0,0,74,15.54c1.22-1.31,2.24-2.33,3.24-3.22a1.61,1.61,0,0,1,.87-.41.6.6,0,0,1,.54.38.76.76,0,0,1-.16.78C77.17,14.5,75.65,16,73.87,17.7c0,0-.22.16-.93.22-.49,0-1,0-1.49.06a20.57,20.57,0,0,0-2.34.15,10.65,10.65,0,0,0-6,3.2L52.49,31.92a1.88,1.88,0,0,0-.57,1.25,1.69,1.69,0,0,0,1.62,1.65,1.76,1.76,0,0,0,1.27-.6l.42-.42c1.08-1.08,2.15-2.16,3.24-3.23a3.64,3.64,0,0,1,.56-.48.71.71,0,0,1,.39-.12.69.69,0,0,1,.5.23.7.7,0,0,1,.09.86,4.41,4.41,0,0,1-.48.56L54.16,37a1.91,1.91,0,0,0-.65,1.35A1.57,1.57,0,0,0,54,39.48a1.55,1.55,0,0,0,1.1.48,1.86,1.86,0,0,0,1.32-.63L62,33.8a1.22,1.22,0,0,1,.76-.45l.15,0a.76.76,0,0,1,.55.41.66.66,0,0,1,0,.61,3.15,3.15,0,0,1-.49.58l-6.77,6.77-.11.1a1.67,1.67,0,0,0-.58.87A1.5,1.5,0,0,0,57,44.79a1.91,1.91,0,0,0,.43,0,1.66,1.66,0,0,0,.93-.61l.13-.15,2.09-2.09,4.67-4.66a1.88,1.88,0,0,1,.67-.48.85.85,0,0,1,.26,0,.73.73,0,0,1,.5,1.14,4.6,4.6,0,0,1-.46.53l-5.44,5.44a1.61,1.61,0,0,0-.09,2.35,1.54,1.54,0,0,0,1.15.52,1.79,1.79,0,0,0,1.21-.51c.13-.12.26-.24.38-.37l11.4-11.4c.11-.11.21-.22.31-.31a1.08,1.08,0,0,1,.67-.3.66.66,0,0,1,.41.16.77.77,0,0,1,.12,1c-.51.87-1,1.72-1.54,2.57l-1,1.65-.09.13a1.5,1.5,0,0,0-.35,1,2,2,0,0,0,.7,1.61,1.2,1.2,0,0,0,.68.19,3.4,3.4,0,0,0,.65-.09L75.7,42a.93.93,0,0,0,.66-.45c.45-.72.9-1.42,1.35-2.12,1-1.62,2.22-3.46,3.25-5.24a9.18,9.18,0,0,0,.87-4.65c0-.77,0-1.32,0-1.77,0-1.66,0-1.66,1.05-2.7.34-.34.78-.76,1.32-1.32l1.32-1.33.76-.76a1.67,1.67,0,0,1,1-.58.59.59,0,0,1,.41.2.62.62,0,0,1,.23.43,1.64,1.64,0,0,1-.57,1l-1,1c-.81.8-1.62,1.6-2.4,2.43a2.69,2.69,0,0,0-.64,1.51c0,.7-.09,1.41-.12,2.11-.06,1-.11,2.05-.23,3a10.8,10.8,0,0,1-2,4.58c-.35.54-.72,1.08-1.08,1.62l-.26.38c-.6.89-1.14,1.68-1.65,2.5a3.47,3.47,0,0,1-3,2l-.48,0a3.27,3.27,0,0,1-2.76-2.54L71.41,40l-3.29,3.29-3.8,3.79A3.58,3.58,0,0,1,61.86,48.18Z"/><path d="M78.23,87.88a1.14,1.14,0,0,1-.77-.4l-.37-.35c-1-1-2-1.92-2.83-2.86a3,3,0,0,0-2.4-1,36.81,36.81,0,0,1-4.59-.31,11.37,11.37,0,0,1-4.65-2l-1.74-1.17c-1-.69-1.88-1.27-2.75-1.83a3.35,3.35,0,0,1-1.88-3.4,3.22,3.22,0,0,1,2.58-2.77l1.22-.38-2.77-2.76c-1.47-1.47-2.91-2.9-4.36-4.33A3,3,0,0,1,52,60.86a6.36,6.36,0,0,1,.92-1.41c.22-.27.44-.56.66-.86a2.2,2.2,0,0,0,.1-.92,5.46,5.46,0,0,1,0-1.22,3,3,0,0,1,3-2.67,3.19,3.19,0,0,1,.8.1A2,2,0,0,0,58,54a1.4,1.4,0,0,0,1.17-.64A3,3,0,0,1,61.56,52a3.85,3.85,0,0,1,1.08.17,1.85,1.85,0,0,0,.54.09,1.37,1.37,0,0,0,1.13-.61,3.14,3.14,0,0,1,2.47-1.28,3.21,3.21,0,0,1,2.19.91c.87.79,1.69,1.64,2.6,2.59.39.4.42.82.09,1.14a.71.71,0,0,1-.47.22,1.09,1.09,0,0,1-.68-.34c-.57-.55-1.12-1.11-1.68-1.67l-.67-.68a1.94,1.94,0,0,0-1.37-.67,1.67,1.67,0,0,0-1.07.41,1.46,1.46,0,0,0-.56,1.08,2.06,2.06,0,0,0,.68,1.51l1.23,1.22c.88.86,1.65,1.63,2.41,2.43a1.66,1.66,0,0,1,.46.68,1.49,1.49,0,0,1-.4.82.29.29,0,0,1-.21.09A.79.79,0,0,1,69,60a3.06,3.06,0,0,1-.6-.5c-1.28-1.27-5.09-5.1-5.09-5.1l-.48-.47a1.77,1.77,0,0,0-1.14-.46,1.66,1.66,0,0,0-1.13,2.81c.63.65,1.26,1.27,1.89,1.9L64.2,60q1,1,2,2c.48.49.55.91.2,1.26a.7.7,0,0,1-.46.22,1.21,1.21,0,0,1-.79-.43c-1.5-1.48-6.93-6.92-6.93-6.92l-.1-.11a1.62,1.62,0,0,0-.86-.58,2.91,2.91,0,0,0-.6-.06,1.4,1.4,0,0,0-1.08.39,2.13,2.13,0,0,0-.39,1.62,1.55,1.55,0,0,0,.58.93l.27.25,1.08,1.09s4.59,4.58,5.53,5.53a2.36,2.36,0,0,1,.49.59.64.64,0,0,1-.12.85.63.63,0,0,1-.48.21.64.64,0,0,1-.35-.1,3.18,3.18,0,0,1-.61-.51Q59,63.62,56.39,61a2.1,2.1,0,0,0-1.48-.78,1.64,1.64,0,0,0-1.07.41,1.45,1.45,0,0,0-.55,1.06,2.22,2.22,0,0,0,.8,1.65L65.47,74.72l.4.41A.82.82,0,0,1,66,76.21a.68.68,0,0,1-.54.28,1,1,0,0,1-.51-.16c-.82-.47-1.64-1-2.45-1.47L61,73.94a7.63,7.63,0,0,0-.84-.48,1.86,1.86,0,0,0-.84-.21,1.68,1.68,0,0,0-.91,3l1.45,1c1.57,1,3.52,2.35,5.47,3.49a10.09,10.09,0,0,0,5.33,1H73c.87,0,.87,0,1.85,1,.32.33.72.74,1.25,1.25.81.79,1.6,1.59,2.4,2.4.45.47.52.87.19,1.21A.64.64,0,0,1,78.23,87.88Z"/><path d="M33.22,49.55a3,3,0,0,1-1.95-.72,21.56,21.56,0,0,1-2.09-2.06.71.71,0,0,1,0-1,.67.67,0,0,1,.48-.2.85.85,0,0,1,.58.24c.43.38.84.8,1.24,1.21l.35.35a2,2,0,0,0,1.42.72,1.67,1.67,0,0,0,1.08-.43,1.42,1.42,0,0,0,.54-1.07A2,2,0,0,0,34.15,45L32.5,43.4l-2.16-2.18c-.21-.21-.44-.5-.33-.69a1.65,1.65,0,0,1,.79-.69c.27,0,.59.32.76.49l5.36,5.38a2.22,2.22,0,0,0,1.5.75,1.47,1.47,0,0,0,1.14-.56c.46-.55.79-1.42-.31-2.5L33.88,38c-.38-.38-.54-.62-.48-1a.73.73,0,0,1,.69-.6.68.68,0,0,1,.33.09,3.21,3.21,0,0,1,.65.55l6.71,6.71.1.11a1.44,1.44,0,0,0,.82.54,3.84,3.84,0,0,0,.69.07,1.34,1.34,0,0,0,1-.39,2.14,2.14,0,0,0,.33-1.66,1.31,1.31,0,0,0-.56-.88l-.12-.12-6.7-6.69a4.66,4.66,0,0,1-.53-.62.72.72,0,0,1,.61-1.08.71.71,0,0,1,.39.12,3.85,3.85,0,0,1,.57.49c1.74,1.73,3.46,3.47,5.19,5.21a2.13,2.13,0,0,0,1.49.78,1.59,1.59,0,0,0,1.06-.42,1.37,1.37,0,0,0,.55-1.06,2.2,2.2,0,0,0-.79-1.64L34.53,25.2c-1-1-.72-1.25-.54-1.48a.5.5,0,0,1,.44-.26,2.41,2.41,0,0,1,1.12.43l1.08.66c1,.63,2,1.24,3,1.81a1.88,1.88,0,0,0,.91.22,2.09,2.09,0,0,0,.93-.21,1.84,1.84,0,0,0,.73-1.64,1.75,1.75,0,0,0-.81-1.23c-1.79-1.22-3.57-2.43-5.38-3.6A11,11,0,0,0,30,18.14H26.9a1.62,1.62,0,0,1-1.26-.52c-1.05-1.08-2.12-2.14-3.19-3.2l-.95-.95c-.45-.45-.45-.72-.31-1a.65.65,0,0,1,.58-.4,1.07,1.07,0,0,1,.72.34c1.1,1.06,2.26,2.2,3.35,3.36a2.66,2.66,0,0,0,2.09.92h.15c.46,0,.9,0,1.35,0A12.69,12.69,0,0,1,35,17.69,22.21,22.21,0,0,1,37.31,19c.85.55,1.7,1.12,2.54,1.69l2.25,1.51a3.17,3.17,0,0,1,1.65,3.28,3.07,3.07,0,0,1-2.28,2.62,1.1,1.1,0,0,0-.31.17l-1,.58,5.55,5.49c.51.5,1,1,1.5,1.52a3.38,3.38,0,0,1,1,2.56,3.31,3.31,0,0,1-1.45,2.34.83.83,0,0,0-.39.95l.1.21L46.4,42a11.08,11.08,0,0,1,0,1.5,3,3,0,0,1-3,2.62,2.86,2.86,0,0,1-.77-.1,2.2,2.2,0,0,0-.52-.07,1.44,1.44,0,0,0-1.22.69,3,3,0,0,1-2.41,1.26,3.6,3.6,0,0,1-1-.17,2,2,0,0,0-.56-.09,1.45,1.45,0,0,0-1.17.64,3.08,3.08,0,0,1-2.44,1.24Z"/><path d="M75.33,59.39a.71.71,0,0,1-.72-.7.73.73,0,0,1,.7-.75.79.79,0,0,1,.75.72.67.67,0,0,1-.21.49.72.72,0,0,1-.5.24Z"/><path d="M25.51,42.81a.68.68,0,0,1-.5-.22.72.72,0,0,1-.22-.5.75.75,0,0,1,.72-.73.8.8,0,0,1,.74.74.75.75,0,0,1-.74.71Z"/></svg>