<svg xmlns="http://www.w3.org/2000/svg" viewBox="0 0 100 100"><defs><style>.a{fill:#fff;}.b{fill:#e6e7e8;}</style></defs><title>iShop</title><path class="a" d="M-3-2.44V102.44H103V-2.44ZM81.83,54.37H14.09V46H81.83Z"/><path class="b" d="M34.28,72.5H30.77V54.84h3.51Z"/><path class="b" d="M44.69,72.5h-3.5V54.83h3.5Z"/><path class="b" d="M55,72.5h-3.5V54.83H55Z"/><path class="b" d="M65.38,72.49h-3.5V54.86h3.5Z"/><path d="M27.7,40.85a1,1,0,1,0-1.14-1A1.09,1.09,0,0,0,27.7,40.85Z"/><path d="M80.52,45H76.86a26.1,26.1,0,0,0,4.78-6.75,1.84,1.84,0,0,0,.17-.62c.16-.61.61-3.55-3.8-6.07l8.65-5-.72-1.25-7.67,4.44,2.79-8.15-1.38-.47-2.73,8-1.4-8.68-1.44.24,1.55,9.62a5.93,5.93,0,0,0-4.45-.62A5.65,5.65,0,0,0,68,33.21c-.48,1.1-1.18,2.95-2,5.24a5.06,5.06,0,0,0-1.77-.73,6.72,6.72,0,0,0,1-3.15l0-.35L65,34.09a3.47,3.47,0,0,0-3.58,1,7,7,0,0,0-1-2l.12-.24.19-.42-.41-.2c-.13-.07-1.24-.56-3.12.44a6.69,6.69,0,0,0-1.29-3l-.21-.28-.33.11a3.51,3.51,0,0,0-2.07,3.08,5.7,5.7,0,0,0-2.73-.89H50v.12l-.22.09c-.13.06-1.22.57-1.77,2.64A6.59,6.59,0,0,0,45,33.33l-.36,0-.15.33a3.09,3.09,0,0,0-.09,1.62,18,18,0,0,0-8.06-1.85c-8.2,0-14.89,5.18-15.22,11.63H15.57c-1.56,0-2.23.68-2.23,2.26V53a2.08,2.08,0,0,0,2.35,2.37h2.25c0,.4,0,.88,0,1.4a24.41,24.41,0,0,0,.1,4.63,42.92,42.92,0,0,0,1.27,4.58c.2.62.4,1.24.58,1.86l.5,1.69c.48,1.61.95,3.22,1.45,4.81A31.09,31.09,0,0,0,23,77.7a2.82,2.82,0,0,0,2.83,1.84h0c11.83,0,23.86,0,35.49,0h9.38a.43.43,0,0,1,.16,0,1.78,1.78,0,0,0,2-1.16l.06-.12a18.38,18.38,0,0,0,.69-1.79c.47-1.5.92-3,1.37-4.5.86-2.82,1.74-5.74,2.66-8.58.71-2.18.65-5.82.62-8h2.15A2.07,2.07,0,0,0,82.77,53V47.27C82.76,45.7,82.09,45,80.52,45ZM69.31,33.76a4.43,4.43,0,0,1,2.36-2.71c1.54-.52,3.36.51,4.56,1.2l.39.22c4.5,2.25,3.81,4.74,3.78,4.83l0,.21a.83.83,0,0,1,0,.15A27.1,27.1,0,0,1,74.9,45H65.39c.55-1.81,1.12-3.56,1.67-5.16l0,0,0,0C68,37.19,68.78,35,69.31,33.76ZM63.89,45H51.51A10.4,10.4,0,0,0,49,38.85l.91-1h0a5.23,5.23,0,0,0,1-3.46,4.94,4.94,0,0,0,3.16,1.86l1.69,0h0a4.92,4.92,0,0,0,2.59-.94,5.19,5.19,0,0,0,1.19,3.15l1.25,1.14h0a5.06,5.06,0,0,0,3.09,1,7,7,0,0,0,1.37-.16C64.86,41.91,64.37,43.43,63.89,45Zm-3.18-8.93.22.91.61-.71a3.2,3.2,0,0,1,2.74-1.39,4.55,4.55,0,0,1-1.23,2.78l-.85.71,1.1.14a4.32,4.32,0,0,1,2.38.87,4.4,4.4,0,0,1-4.19-.47l-1.18-1.07a3.82,3.82,0,0,1-.82-3.51q.18-.21.33-.42A7.89,7.89,0,0,1,60.71,36.09Zm-7.33-2.38.76.54v-.93a3.19,3.19,0,0,1,1.17-2.85,4.52,4.52,0,0,1,.88,2.92L56,34.48l.92-.62A4.73,4.73,0,0,1,59.05,33a4.18,4.18,0,0,0-.39.88,4.21,4.21,0,0,1-2.83,1.49l-1.59,0A3.78,3.78,0,0,1,51.1,32.6,7.32,7.32,0,0,1,53.38,33.71Zm-8.11.63a4.41,4.41,0,0,1,2.67,1.3l.68.9.18-1.11a4.74,4.74,0,0,1,1-2.4,4.59,4.59,0,0,1-.55,4.19l-.84.92a14.45,14.45,0,0,0-2.73-2.2A2.69,2.69,0,0,1,45.27,34.34Zm-9,.49c7.39,0,13.45,4.53,13.78,10.19H25.43A6.6,6.6,0,0,1,27,42a.56.56,0,0,0-.21-.83.67.67,0,0,0-.83.21A10.54,10.54,0,0,0,24.68,45H22.52C22.85,39.36,28.9,34.83,36.3,34.83Zm28.37,21V71.78H62.59V55.86Zm-10.42,0V71.78H52.18V55.86ZM44,55.86V71.78H41.9V55.86Zm-10.42,0V71.79H31.49V55.86Zm42.73,7c-.93,2.86-1.82,5.78-2.67,8.61-.45,1.5-.91,3-1.37,4.5a16.37,16.37,0,0,1-.64,1.64l-.06.12c-.14.33-.27.34-.47.31a2,2,0,0,0-.43,0H61.33c-11.63,0-23.66,0-35.49,0h0a1.41,1.41,0,0,1-1.52-1c-.43-1.07-.81-2.15-1.14-3.26-.49-1.59-1-3.19-1.43-4.79l-.51-1.7c-.18-.63-.38-1.26-.58-1.89a41.91,41.91,0,0,1-1.23-4.42,26.65,26.65,0,0,1-.08-4.3c0-.33,0-.63,0-.92H30.05V73.22H35V55.86h5.48V73.21h4.94V55.86h5.33V73.21h4.94V55.86h5.48V73.21H66.1V55.86H76.84A26.32,26.32,0,0,1,76.29,62.9Zm5-11.22V53c0,.81-.13.94-.92.94H15.69c-.79,0-.92-.13-.92-.93V47.28c0-.8,0-.82.8-.82h65c.78,0,.81,0,.81.82Z"/></svg>