<svg xmlns="http://www.w3.org/2000/svg" viewBox="0 0 100 100"><defs><style>.a{fill:#fff;}.b{fill:#e6e7e8;}</style></defs><title>iShop</title><path class="a" d="M-3-2.44V102.44H103V-2.44ZM81.83,54.37H14.09V46H81.83Z"/><path class="b" d="M34.28,72.5H30.77V54.84h3.51Z"/><path class="b" d="M44.69,72.5h-3.5V54.83h3.5Z"/><path class="b" d="M55,72.5h-3.5V54.83H55Z"/><path class="b" d="M65.38,72.49h-3.5V54.86h3.5Z"/><path d="M21.09,45H15.57c-1.56,0-2.23.68-2.23,2.26V53a2.08,2.08,0,0,0,2.35,2.37h2.25c0,.4,0,.88,0,1.4a24.41,24.41,0,0,0,.1,4.63,42.92,42.92,0,0,0,1.27,4.58c.2.62.4,1.24.58,1.86l.5,1.69c.48,1.61.95,3.22,1.45,4.81A31.09,31.09,0,0,0,23,77.7a2.82,2.82,0,0,0,2.83,1.84h0c11.83,0,23.86,0,35.49,0h9.38a.43.43,0,0,1,.16,0,1.78,1.78,0,0,0,2-1.16l.06-.12a18.38,18.38,0,0,0,.69-1.79c.47-1.5.92-3,1.37-4.5.86-2.82,1.74-5.74,2.66-8.58.71-2.18.65-5.82.62-8h2.15A2.07,2.07,0,0,0,82.77,53V47.27c0-1.57-.68-2.25-2.25-2.25H76.86M64.67,55.86V71.78H62.59V55.86Zm-10.42,0V71.78H52.18V55.86ZM44,55.86V71.78H41.9V55.86Zm-10.42,0V71.79H31.49V55.86Zm42.73,7c-.93,2.86-1.82,5.78-2.67,8.61-.45,1.5-.91,3-1.37,4.5a16.37,16.37,0,0,1-.64,1.64l-.06.12c-.14.33-.27.34-.47.31a2,2,0,0,0-.43,0H61.33c-11.63,0-23.66,0-35.49,0h0a1.41,1.41,0,0,1-1.52-1c-.43-1.07-.81-2.15-1.14-3.26-.49-1.59-1-3.19-1.43-4.79l-.51-1.7c-.18-.63-.38-1.26-.58-1.89a41.91,41.91,0,0,1-1.23-4.42,26.65,26.65,0,0,1-.08-4.3c0-.33,0-.63,0-.92H30.05V73.22H35V55.86h5.48V73.21h4.94V55.86h5.33V73.21h4.94V55.86h5.48V73.21H66.1V55.86H76.84A26.32,26.32,0,0,1,76.29,62.9Zm5-11.22V53c0,.81-.13.94-.92.94H15.69c-.79,0-.92-.13-.92-.93V47.28c0-.8,0-.82.8-.82h65c.78,0,.81,0,.81.82Z"/><path d="M23.38,46H18.93l.06-.77c.45-5.11,2.57-8.88,6.3-11.21,5.08-3.17,10.35-2.91,15.67.78l.73.5-2.61,2.44c-1.54,1.42-3,2.82-4.55,4.23-.26.24-.51.49-.76.75s-.46.47-.7.69c-.77.74-1.55,1.47-2.35,2.19a1.65,1.65,0,0,1-1,.4Zm-2.89-1.42h9.22c.84-.73,1.61-1.47,2.37-2.19l.67-.66c.26-.27.53-.54.8-.79,1.5-1.41,3-2.81,4.55-4.24l1.3-1.21c-4.6-2.91-9-3-13.36-.26C22.85,37.22,21,40.29,20.49,44.59Z"/><path d="M63,46H31.31l13.13-12.4.45.26a65.69,65.69,0,0,1,7.9,5.41,65.8,65.8,0,0,0,7.88,5.4ZM34.89,44.54H57.76c-2.22-1.42-4-2.81-5.83-4.18a66,66,0,0,0-7.29-5Z"/><path d="M78.15,45.08V36.41a10.36,10.36,0,0,0-3.88-8.11V24.45a.75.75,0,0,0-.74-.75H70.8V21.47a.74.74,0,0,0,.59-.73V14.82a.74.74,0,0,0-.74-.74H56.1a.75.75,0,0,0-.74.75.78.78,0,0,0,.07.33l1.46,2.95a.73.73,0,0,0,.66.42h6.5v2.21a.74.74,0,0,0,.58.74V23.7H61.91a.75.75,0,0,0-.74.75h0V28.3a10.34,10.34,0,0,0-3.88,8.11v8.5l1.49-.15V36.41a8.87,8.87,0,0,1,3.58-7.15v0l0,0,0,0,0,0,0,0v0l0,0,0,0,0,0v0l0,0v0l0,0v0a.08.08,0,0,1,0,0s0,0,0,0v-.12h0V25.19H72.77v2.73H64.89a.74.74,0,1,0,0,1.48h8.39a8.9,8.9,0,0,1,3.38,7v8.74ZM64.05,17H58l-.73-1.47H64Zm1.49.74V15.57h4.37V20H65.54Zm3.78,3.71V23.7h-3.2V21.49Z"/></svg>