<svg xmlns="http://www.w3.org/2000/svg" viewBox="0 0 100 100"><defs><style>.a{fill:#fff;}.b{fill:none;}</style></defs><title>iShop</title><path class="a" d="M40.23,61.09a7.49,7.49,0,0,0,6.11,4.59,8.19,8.19,0,0,0,6.92,3.67,7.82,7.82,0,0,0,8.06-7.54.47.47,0,0,0-.47-.46H55.72l.09-.26a1.63,1.63,0,0,0,0-3.25,6.13,6.13,0,0,0-2.14-2.9,9.7,9.7,0,0,0-11.31,0,6.26,6.26,0,0,0-2.14,2.9,1.63,1.63,0,0,0,0,3.25Z"/><path class="a" d="M-3-2.44V102.44H103V-2.44ZM44.31,14.78H55.7v5.07H44.31ZM63.77,75.61H36V47.9H63.77Z"/><path class="b" d="M54.76,15.71a.29.29,0,0,0-.29-.29H45.53a.29.29,0,0,0-.29.29v3h9.52Z"/><path class="b" d="M61.75,29.87a5.19,5.19,0,0,0-4.15.05l-1.31-1.56a6,6,0,0,1,4.15-.59,12.18,12.18,0,0,0-4.74-3.44A2.49,2.49,0,0,1,54.14,22v-.3H46.05v.22a2.46,2.46,0,0,1-1.59,2.32,12.22,12.22,0,0,0-4.66,3.26,6.14,6.14,0,0,1,4.42,1.19C46.86,30.66,50,31.47,52.67,30l1.44,1.48a8.42,8.42,0,0,1-4.26.89,11.53,11.53,0,0,1-6.77-2.16,4.87,4.87,0,0,0-5-.31,12.17,12.17,0,0,0-1.46,5.71V45.5a1,1,0,0,0,1,1H62.34a1,1,0,0,0,1-1V35.65A12.22,12.22,0,0,0,62,30.18.7.7,0,0,0,61.75,29.87ZM59.26,40a1,1,0,0,1-1,.85h-.11a1,1,0,0,1-.84-1.07c1.09-8.82-5.45-11.2-5.73-11.29a1,1,0,1,1,.62-1.82C52.32,26.65,60.54,29.56,59.26,40Z"/><path class="b" d="M54.76,15.71a.29.29,0,0,0-.29-.29H45.53a.29.29,0,0,0-.29.29v3h9.52Z"/><path class="b" d="M61.75,29.87a5.19,5.19,0,0,0-4.15.05l-1.31-1.56a6,6,0,0,1,4.15-.59,12.18,12.18,0,0,0-4.74-3.44A2.49,2.49,0,0,1,54.14,22v-.3H46.05v.22a2.46,2.46,0,0,1-1.59,2.32,12.22,12.22,0,0,0-4.66,3.26,6.14,6.14,0,0,1,4.42,1.19C46.86,30.66,50,31.47,52.67,30l1.44,1.48a8.42,8.42,0,0,1-4.26.89,11.53,11.53,0,0,1-6.77-2.16,4.87,4.87,0,0,0-5-.31,12.17,12.17,0,0,0-1.46,5.71V45.5a1,1,0,0,0,1,1H62.34a1,1,0,0,0,1-1V35.65A12.22,12.22,0,0,0,62,30.18.7.7,0,0,0,61.75,29.87Z"/><path d="M65.26,35.65a14.06,14.06,0,0,0-8.84-13.1.57.57,0,0,1-.36-.53V20.47a1.19,1.19,0,0,0,.62-1V15.71a2.21,2.21,0,0,0-2.21-2.21H45.53a2.21,2.21,0,0,0-2.21,2.21v3.72a1.21,1.21,0,0,0,.81,1.14v1.37a.55.55,0,0,1-.37.53,14.23,14.23,0,0,0-9,13.18V45.5a2.91,2.91,0,0,0,.77,2,2.91,2.91,0,0,0-.77,1.95V55a2.91,2.91,0,0,0,.79,2,2.87,2.87,0,0,0-.79,2v5.57a2.89,2.89,0,0,0,.79,2,2.87,2.87,0,0,0-.79,2v5.57a2.87,2.87,0,0,0,.79,2,2.89,2.89,0,0,0-.79,2v4.67a3.82,3.82,0,0,0,3.82,3.82H61.44a3.82,3.82,0,0,0,3.82-3.82V78a2.89,2.89,0,0,0-.79-2,2.87,2.87,0,0,0,.79-2V68.48a2.87,2.87,0,0,0-.79-2,2.89,2.89,0,0,0,.79-2V59a2.87,2.87,0,0,0-.79-2,2.91,2.91,0,0,0,.79-2V49.41a2.91,2.91,0,0,0-.77-1.95,2.91,2.91,0,0,0,.77-2Zm-20-19.94a.29.29,0,0,1,.29-.29h8.94a.29.29,0,0,1,.29.29v3H45.24Zm18.1,67a1.9,1.9,0,0,1-1.9,1.9H38.56a1.9,1.9,0,0,1-1.9-1.9V78a1,1,0,0,1,1-1H62.34a1,1,0,0,1,1,1Zm0-27.7a1,1,0,0,1-.05.25V58.7a1,1,0,0,1,.05.25v5.57a1.11,1.11,0,0,1-.05.25v3.46a1,1,0,0,1,.05.25v5.57a1,1,0,0,1-1,1H37.66a1,1,0,0,1-1-1V68.48a1,1,0,0,1,.21-.59V65.11a1,1,0,0,1-.21-.59V59a1,1,0,0,1,.21-.59V55.57a1,1,0,0,1-.21-.59V49.41a1,1,0,0,1,1-1H62.34a1,1,0,0,1,1,1Zm0-9.48a1,1,0,0,1-1,1H37.66a1,1,0,0,1-1-1V35.65a12.17,12.17,0,0,1,1.46-5.71,4.87,4.87,0,0,1,5,.31,11.53,11.53,0,0,0,6.77,2.16,8.42,8.42,0,0,0,4.26-.89L52.67,30c-2.7,1.43-5.81.62-8.45-1.33a6.14,6.14,0,0,0-4.42-1.19,12.22,12.22,0,0,1,4.66-3.26,2.46,2.46,0,0,0,1.59-2.32v-.22h8.09V22a2.49,2.49,0,0,0,1.56,2.31,12.18,12.18,0,0,1,4.74,3.44,6,6,0,0,0-4.15.59l1.31,1.56a5.19,5.19,0,0,1,4.15-.05.7.7,0,0,1,.28.31,12.22,12.22,0,0,1,1.31,5.47Z"/><path d="M52.24,26.63a1,1,0,1,0-.62,1.82c.28.09,6.82,2.47,5.73,11.29a1,1,0,0,0,.84,1.07h.11a1,1,0,0,0,1-.85C60.54,29.56,52.32,26.65,52.24,26.63Z"/><path d="M48,55.94a.48.48,0,0,0,.47-.47.45.45,0,0,0-.14-.33A.47.47,0,0,0,48,55a.44.44,0,0,0-.33.14.45.45,0,0,0-.14.33.47.47,0,0,0,.14.33.44.44,0,0,0,.33.14Zm0,0"/><path d="M43.58,57.52a.48.48,0,0,0,.47-.47.47.47,0,0,0-.14-.33.43.43,0,0,0-.33-.13.46.46,0,0,0-.33.13.47.47,0,0,0-.14.33.44.44,0,0,0,.14.33.47.47,0,0,0,.33.14Zm0,0"/><path d="M52.45,57.52a.48.48,0,0,0,.47-.47.47.47,0,0,0-.14-.33.43.43,0,0,0-.33-.13.46.46,0,0,0-.33.13.47.47,0,0,0-.14.33.44.44,0,0,0,.14.33.47.47,0,0,0,.33.14Zm0,0"/><path d="M50.37,56.41a.46.46,0,0,0,.46-.47.51.51,0,0,0-.13-.33.47.47,0,0,0-.33-.14.48.48,0,0,0-.34.14.51.51,0,0,0-.13.33.47.47,0,0,0,.13.33.48.48,0,0,0,.34.14Zm0,0"/><path d="M45.67,56.41a.47.47,0,0,0,.33-.14.44.44,0,0,0,.14-.33.47.47,0,0,0-.94,0,.44.44,0,0,0,.14.33.47.47,0,0,0,.33.14Zm0,0"/><path d="M60.85,61.35H55.72l.09-.26a1.63,1.63,0,0,0,0-3.25,6.13,6.13,0,0,0-2.14-2.9,9.7,9.7,0,0,0-11.31,0,6.26,6.26,0,0,0-2.14,2.9,1.63,1.63,0,0,0,0,3.25,7.49,7.49,0,0,0,6.11,4.59,8.19,8.19,0,0,0,6.92,3.67,7.82,7.82,0,0,0,8.06-7.54.47.47,0,0,0-.47-.46ZM46.72,64.43a8.39,8.39,0,0,0,13.1-.06,7.35,7.35,0,0,1-13.1.06Zm8.42-5a4.32,4.32,0,0,1-.44,1.88h-9a.47.47,0,0,0-.47.46,7.11,7.11,0,0,0,.57,2.8c-2.87-.73-4.87-2.79-4.87-5.14,0-3,3.19-5.42,7.12-5.42s7.12,2.43,7.12,5.42Zm-8.58,2.81h5.38L48.3,64.76a6.57,6.57,0,0,1-1.74-2.48Zm6.23.55V66.6a7.36,7.36,0,0,1-3.71-1.24Zm.94,0,3.7,2.53a7.56,7.56,0,0,1-3.7,1.24Zm4.47,1.92-3.62-2.47h5.35a6.48,6.48,0,0,1-1.73,2.47ZM56,58.9a.68.68,0,0,1,.38.57A.66.66,0,0,1,56,60a5.09,5.09,0,0,0,0-.56,5.46,5.46,0,0,0,0-.57ZM40,60a.7.7,0,0,1-.37-.56.67.67,0,0,1,.37-.56,5.12,5.12,0,0,0,0,.56A5.25,5.25,0,0,0,40,60Zm0,0"/><circle cx="38.35" cy="38.88" r="0.39"/><circle cx="40.05" cy="40.85" r="0.39"/><circle cx="45.59" cy="36.9" r="0.39"/><circle cx="46.08" cy="39.61" r="0.25"/><path d="M53.25,39.54a.26.26,0,0,0,.25.25.25.25,0,0,0,.25-.25.25.25,0,0,0-.5,0Z"/><circle cx="50.08" cy="36.17" r="0.25"/><path d="M51.23,42.9a.24.24,0,0,0,.24-.24.25.25,0,1,0-.24.24Z"/><circle cx="40.79" cy="43.45" r="0.39"/><path d="M42.56,40.12a.39.39,0,0,0-.38-.39.4.4,0,0,0-.39.39.39.39,0,1,0,.77,0Z"/><path d="M45.4,42.07a.38.38,0,0,0-.39-.38.38.38,0,0,0-.38.38.38.38,0,0,0,.39.39A.39.39,0,0,0,45.4,42.07Z"/><path d="M47.62,40.91a.43.43,0,0,0-.43-.43.44.44,0,0,0-.44.44.44.44,0,0,0,.44.43A.43.43,0,0,0,47.62,40.91Z"/><circle cx="44.49" cy="44.69" r="0.39"/><path d="M43.46,36.43a.76.76,0,1,0-.44,1A.75.75,0,0,0,43.46,36.43Z"/><path d="M49.42,44.48A.88.88,0,1,0,48.27,44,.89.89,0,0,0,49.42,44.48Z"/><path d="M52.93,43.05a.88.88,0,1,0,.51-1.14A.87.87,0,0,0,52.93,43.05Z"/><path d="M53.45,34.14a.89.89,0,1,0-.51,1.14A.89.89,0,0,0,53.45,34.14Z"/><path d="M51.56,38.78a.88.88,0,1,0-1.15-.51A.89.89,0,0,0,51.56,38.78Z"/><circle cx="40.64" cy="80.3" r="0.24"/><circle cx="41.68" cy="81.5" r="0.24"/><circle cx="45.08" cy="79.08" r="0.24"/><circle cx="45.38" cy="80.74" r="0.15"/><path d="M49.78,80.7a.15.15,0,0,0,.15.15.14.14,0,0,0,.15-.15.15.15,0,0,0-.3,0Z"/><circle cx="47.83" cy="78.64" r="0.15"/><path d="M48.54,82.76a.15.15,0,0,0,.15-.15.15.15,0,0,0-.15-.15.15.15,0,0,0,0,.3Z"/><circle cx="42.14" cy="83.1" r="0.24"/><path d="M43.23,81.06a.24.24,0,1,0-.24.24A.24.24,0,0,0,43.23,81.06Z"/><path d="M45,82.25a.24.24,0,0,0-.48,0,.24.24,0,0,0,.48,0Z"/><path d="M46.33,81.54a.27.27,0,1,0-.27.27A.27.27,0,0,0,46.33,81.54Z"/><circle cx="44.41" cy="83.86" r="0.24"/><path d="M43.77,78.79a.47.47,0,0,0-.6-.27.46.46,0,0,0-.26.6.46.46,0,1,0,.86-.33Z"/><path d="M47.43,83.73a.54.54,0,1,0-.7-.31A.54.54,0,0,0,47.43,83.73Z"/><path d="M49.58,82.86a.54.54,0,0,0,.7.31.54.54,0,1,0-.39-1A.54.54,0,0,0,49.58,82.86Z"/><path d="M49.9,77.39a.54.54,0,1,0-.31.7A.54.54,0,0,0,49.9,77.39Z"/><path d="M48.74,80.24a.54.54,0,0,0,.31-.7.54.54,0,1,0-1,.39A.54.54,0,0,0,48.74,80.24Z"/></svg>