<svg xmlns="http://www.w3.org/2000/svg" viewBox="0 0 100 100"><defs><style>.a{fill:#fff;}</style></defs><title>iShop</title><path class="a" d="M34.25,66.12a6.3,6.3,0,0,0,1.84-.3,3.63,3.63,0,0,0,2.56-3.4,3.81,3.81,0,0,0-.58-2.61c-.83-1.26-1.71-2.48-2.58-3.71l-1-1.38h-.07l-.78,1c-.66.8-1.35,1.63-2,2.48a10.14,10.14,0,0,0-1.23,2.24,4.12,4.12,0,0,0,3.8,5.72Z"/><path class="a" d="M-3-2.44V102.44H103V-2.44ZM47.6,70.33H21.48V51.24H47.6Zm29,.09-3-1.86.65,1.66L74,72.76,72.22,75.4l-1.5-2.83-.48-1.27-.35-1.21-.07-1.36-2.67.75-1.84-.7-2.05-1.12-1.89-.45-.26-.44,1.55-1.47,2.06-1.06,2.52-.4-1-1.25-1.58-1.66-.87-1.74,1.66.21,2.83.75,2.43,1.71,1.48,3.3,1.52,0,2.26,1,2,2.59L79,71.07Z"/><path d="M57.73,86.5l-.24,0a5.52,5.52,0,0,1-4.14-2.58A6.76,6.76,0,0,1,52.51,79a44.74,44.74,0,0,1,1.61-6.65,11.56,11.56,0,0,0,.69-3.73,10.79,10.79,0,0,1,1.5-5.52,5,5,0,0,1,2.28-2.22,8,8,0,0,1,2.61-.75c.7-.07,1.41-.1,2.11-.15-.08-.33-.17-.69-.25-1a.57.57,0,0,1,.29-.66.58.58,0,0,1,.69.08,1,1,0,0,0,.38.2,11.78,11.78,0,0,0,1.55.3A7.77,7.77,0,0,1,70,60.41a5.69,5.69,0,0,1,2,3.12.56.56,0,0,1-.39.72.58.58,0,0,1-.73-.38l-.12-.36a4.87,4.87,0,0,0-1.67-2.31c-1.36-1-3-1.12-4.58-1.37.13.21.23.39.35.56a10.36,10.36,0,0,0,2.44,2.46,7.71,7.71,0,0,0,.93.53,3.41,3.41,0,0,1,.63.41.52.52,0,0,1,0,.71.61.61,0,0,1-.69.22,4.08,4.08,0,0,0-.78-.12c-.47,0-.94,0-1.41,0a5.46,5.46,0,0,0-3.34,1.14,7.85,7.85,0,0,0-.81.82,4,4,0,0,1,1.81.58c.4.23.79.5,1.2.73a11.87,11.87,0,0,0,1.41.74,2.61,2.61,0,0,0,3.1-.55.6.6,0,0,1,1,.41c0,.46,0,.92.05,1.38a3.47,3.47,0,0,0,.41,1.7c.51.86,1.06,1.71,1.59,2.57.18-.31.39-.65.58-1a4.3,4.3,0,0,0,.07-4.32A.59.59,0,0,1,74,68c.26.19.49.42.75.61a8.57,8.57,0,0,0,.89.59c.44.23.91.41,1.36.61l.88.35c-.2-.42-.36-.77-.52-1.12a5.06,5.06,0,0,0-2.14-2.45c-.23-.12-.42-.31-.65-.42a3.52,3.52,0,0,0-.88-.3c-.58-.08-.76-.29-.65-.86l.14-.21a2.82,2.82,0,0,1,.86-.06,4.14,4.14,0,0,1,1.17.44,12.27,12.27,0,0,1,1.35.91,5.42,5.42,0,0,1,.91.88,17.24,17.24,0,0,1,2,3.84c.24.52-.17.94-.74.82L78,71.48c0,.16,0,.3,0,.44a12.7,12.7,0,0,1-.53,5.51A7.52,7.52,0,0,1,73.52,82,13.14,13.14,0,0,1,69,83.33a12.12,12.12,0,0,0-4.8,1.42A22.17,22.17,0,0,1,61.34,86a14.23,14.23,0,0,1-2,.48ZM69,69.78a3.54,3.54,0,0,1-2.87,0A22.59,22.59,0,0,1,64,68.73c-.39-.2-.76-.44-1.14-.66a2,2,0,0,0-1.12-.23h-.5c-.54,0-.85-.32-.73-.84A3.22,3.22,0,0,1,61,65.93a5.62,5.62,0,0,1,3.43-2.26c.54-.14,1.12-.18,1.69-.27l-.2-.19-1.67-1.72a.73.73,0,0,0-.31-.19,8.54,8.54,0,0,0-4.81.63,3.46,3.46,0,0,0-1.47,1.26A9.37,9.37,0,0,0,56,68.43a15.34,15.34,0,0,1-.88,4.7,40.87,40.87,0,0,0-1.45,6.09,5.61,5.61,0,0,0,.65,4,4.38,4.38,0,0,0,3.43,2.1,8.39,8.39,0,0,0,4.66-1l2.8-1.37a9.41,9.41,0,0,1,3.05-.7,13.82,13.82,0,0,0,4.92-1.35,6.45,6.45,0,0,0,3.24-4,12.25,12.25,0,0,0,.27-5.71.25.25,0,0,0-.1-.18c-.57-.27-1.15-.52-1.76-.8a6.33,6.33,0,0,1-1.2,4.42l-1,1.63a.58.58,0,0,1-.7.29.56.56,0,0,1-.41-.59,4.08,4.08,0,0,0-.9-2.66,5.62,5.62,0,0,1-1.16-2.42c0-.37-.08-.74-.12-1.14C69.2,69.72,69.11,69.74,69,69.78Z"/><path d="M73.06,65l.14-.21c.42-.68.86-1.35,1.24-2a10.86,10.86,0,0,0,1.08-3.08.59.59,0,0,0-.21-.65.47.47,0,0,0-.59-.07.86.86,0,0,0-.34.42,12.23,12.23,0,0,1-3.93,6.66.72.72,0,0,0-.32.61.57.57,0,0,0,.39.5.55.55,0,0,0,.63-.15l1.74-1.81Z"/><path d="M59.41,72.31a.58.58,0,0,0,.58-.46q.12-.52.21-1a.58.58,0,0,0-.49-.69c-.34-.08-.51,0-.62.4a11.07,11.07,0,0,0-.25,1.11A.57.57,0,0,0,59.41,72.31Z"/><path d="M58.25,74.29a.39.39,0,0,0-.41.31c-.11.43-.22.87-.3,1.31a.56.56,0,0,0,.47.59.55.55,0,0,0,.66-.36,10.12,10.12,0,0,0,.24-1.22C59,74.56,58.65,74.3,58.25,74.29Z"/><path d="M60.59,83a2.4,2.4,0,0,0,1.49-1.13.65.65,0,0,0-.28-.62.39.39,0,0,0-.53,0,12.19,12.19,0,0,0-1,.76.48.48,0,0,0-.1.63A1.68,1.68,0,0,0,60.59,83Z"/><path d="M64.36,73.58a.57.57,0,0,0,.36.6.52.52,0,0,0,.63-.12c.25-.31.49-.62.71-1a.57.57,0,0,0-.18-.76.45.45,0,0,0-.72.07,10.14,10.14,0,0,0-.71.91A.69.69,0,0,0,64.36,73.58Z"/><path d="M63.05,76.61a.65.65,0,0,0-.43-.63.42.42,0,0,0-.53.17,10.77,10.77,0,0,0-.73.94.55.55,0,0,0,.13.74.53.53,0,0,0,.75,0,12.12,12.12,0,0,0,.76-1A.64.64,0,0,0,63.05,76.61Z"/><path d="M66,79.14a2.61,2.61,0,0,0-1.36,1.11.56.56,0,0,0,.26.59.51.51,0,0,0,.64,0c.32-.24.61-.5.9-.76a.43.43,0,0,0,.14-.55A.61.61,0,0,0,66,79.14Z"/><path d="M68.7,78.6a2.51,2.51,0,0,0,1.42-1.09.62.62,0,0,0-.28-.67.42.42,0,0,0-.55,0c-.32.24-.64.47-.93.73a.59.59,0,0,0,.34,1Z"/><path d="M56.16,81l1.18.23c.06-.4.14-.78.17-1.16s-.08-.49-.41-.55a.57.57,0,0,0-.7.38C56.3,80.2,56.25,80.57,56.16,81Z"/><path d="M27.35,86.49a6.55,6.55,0,0,1-6.89-6.9V44a18.65,18.65,0,0,1,3.37-10.55l1.49-2.24c1-1.54,2.05-3.07,3.06-4.62a2.51,2.51,0,0,0,.38-1.25c0-2.23,0-4.46,0-6.69V15.89a2.12,2.12,0,0,1,2.36-2.39h6.6a2.1,2.1,0,0,1,2.3,2.3v3.24c0,2.08,0,4.17,0,6.26a2.4,2.4,0,0,0,.37,1.25q2.13,3.26,4.31,6.49a20.73,20.73,0,0,1,3.65,12.11c-.06,7.9,0,15.93,0,23.7,0,3.58,0,7.15,0,10.73a6.51,6.51,0,0,1-5.05,6.69,8.79,8.79,0,0,1-1.85.21H27.35ZM22.24,71.38c0,.92,0,1.83,0,2.74,0,2,0,4.17.05,6.24a4.55,4.55,0,0,0,4.6,4.36q3.78,0,7.58,0h0q3.74,0,7.47,0a4.59,4.59,0,0,0,4.62-4.52c.06-2.06,0-4.15,0-6.18,0-.84,0-2.61,0-2.61l-.21-.29-.18,0H22.24Zm0-2.12H46.54V52.13H26.94V58H25.19V52.09H22.27Zm4.71-19h19.6V48.31c0-1.19,0-2.37,0-3.55a17.33,17.33,0,0,0-3.23-10.62q-2.43-3.59-4.8-7.22a1.79,1.79,0,0,1-.27-.94c0-1.06,0-2.13,0-3.21V21.24H30.53v1.54c0,1.06,0,2.09,0,3.12A2.14,2.14,0,0,1,30.19,27c-.9,1.4-1.83,2.78-2.76,4.17l-2.11,3.18a15.93,15.93,0,0,0-2.9,7.29c-.16,1.93-.16,3.9-.16,5.81,0,.81,0,1.62,0,2.43V50l.23.28h2.76V48H27Zm3.61-30.87h7.63v-4.1H30.59Z"/><rect x="25.25" y="42.02" width="1.67" height="2.86"/><path d="M34.24,66.34A4.17,4.17,0,0,1,31.16,65a4.1,4.1,0,0,1-.86-4.64,10,10,0,0,1,1.27-2.32c.65-.89,1.36-1.75,2-2.59l.81-1h.07l1,1.44c.91,1.27,1.82,2.54,2.68,3.84a3.94,3.94,0,0,1,.6,2.72A3.77,3.77,0,0,1,36.16,66,6.5,6.5,0,0,1,34.24,66.34ZM34,57.57c-.2.33-.41.66-.62,1-.48.76-1,1.54-1.39,2.35A2.54,2.54,0,0,0,32.62,64a3.2,3.2,0,0,0,3.56,0,2.58,2.58,0,0,0,.66-3.12c-.41-.81-.91-1.59-1.39-2.35-.21-.33-.42-.66-.62-1l-.09-.14h-.69Z"/></svg>