<svg xmlns="http://www.w3.org/2000/svg" viewBox="0 0 100 100"><defs><style>.a{fill:#fff;}</style></defs><title>iShop</title><path class="a" d="M-3.36-2.64V102.24h106V-2.64ZM40.38,90.13l-18.16,0s-.67-15.15,0-19.16S32.8,64.85,32.8,64.85l7.58,11.21ZM78,90.1l-18.16,0V76.06l7.57-11.21S77.3,66.93,78,70.94,78,90.1,78,90.1Z"/><path d="M37.89,25.52a9.18,9.18,0,0,1-9.17-9.17,1.1,1.1,0,0,1,1.1-1.1H31l-.21-.37a5.1,5.1,0,0,1-.69-2.57V11a1.09,1.09,0,0,1,1.09-1.1H51.35A14.57,14.57,0,0,1,65.9,24.42a1.1,1.1,0,0,1-1.1,1.1Zm-6.83-7.77a7,7,0,0,0,6.83,5.58H63.66l0-.28a12.34,12.34,0,0,0-12.28-11H32.26v.24a2.94,2.94,0,0,0,2.94,2.94,1.1,1.1,0,1,1,0,2.2H31Z"/><path d="M34.92,31.39c.92-.53,4.42-2.83,4.56-6.72h2.2c-.15,5.22-4.69,8.08-5.77,8.69Z"/><path d="M64.09,33.36c-1.08-.6-5.62-3.45-5.77-8.69h2.2c.15,3.87,3.65,6.19,4.56,6.72Z"/><path d="M65.05,41.66V39.47h1.09a2.94,2.94,0,0,0,0-5.88H65.05V31.4h1.09a5.13,5.13,0,1,1,0,10.26Z"/><path d="M33.86,41.66a5.13,5.13,0,1,1,0-10.26H35v2.19H33.86a2.94,2.94,0,0,0,0,5.88H35v2.19Z"/><path d="M50,56.47a15.61,15.61,0,0,1-15.39-12.9,13.44,13.44,0,0,1-.19-1.4L34.11,38V24.67h2.2V37.88L36.62,42c0,.39.08.8.15,1.19A13.44,13.44,0,0,0,50,54.28a13.25,13.25,0,0,0,2.35-.21A13.67,13.67,0,0,0,63.42,41.46l.29-3.67V24.67h2.2V37.88l-.29,3.73A15.58,15.58,0,0,1,50,56.47Z"/><path d="M39.48,90.1V63.74a1.1,1.1,0,0,1,1.1-1.1h.23a1.61,1.61,0,0,0,1.37-1.59V54.27h2.19v6.78a3.78,3.78,0,0,1-2.52,3.59l-.17.06V90.1Z"/><path d="M20.65,90.1V75.55A11.9,11.9,0,0,1,30.94,63.79l1.25-.08.15,2.19L31.16,66a9.67,9.67,0,0,0-8.32,9.58V90.1Z"/><path d="M50,74a13.26,13.26,0,0,1-10.1-4.63l1.69-1.4a11.13,11.13,0,0,0,16.82,0l1.69,1.4A13.26,13.26,0,0,1,50,74Z"/><path d="M32.46,66.74A6.3,6.3,0,0,1,37.67,57H43v2.19H37.68a4.08,4.08,0,0,0-4.07,4.08,4,4,0,0,0,.68,2.29l7.07,10.56L39.53,77.3Z"/><path d="M36.55,87.41a1.1,1.1,0,0,1-1.1-1.1V78.24a1.1,1.1,0,1,1,2.19,0v8.07A1.09,1.09,0,0,1,36.55,87.41Z"/><path d="M58.32,90.1V64.7l-.17-.06A3.8,3.8,0,0,1,55.63,61V54.27h2.19v6.78a1.61,1.61,0,0,0,1.33,1.59h.27a1.1,1.1,0,0,1,1.1,1.1V90.1Z"/><path d="M77.16,90.1V75.55A9.7,9.7,0,0,0,68.77,66l-1.1-.07.14-2.19,1.18.08A11.93,11.93,0,0,1,79.35,75.55V90.1Z"/><path d="M58.64,76.08l7.08-10.56a4,4,0,0,0,.67-2.28,4.08,4.08,0,0,0-4.07-4.09H57V57h5.34a6.3,6.3,0,0,1,5.22,9.78L60.47,77.3Z"/><path d="M63.45,87.41a1.09,1.09,0,0,1-1.09-1.1V78.24a1.1,1.1,0,1,1,2.19,0v8.07A1.1,1.1,0,0,1,63.45,87.41Z"/></svg>