<svg xmlns="http://www.w3.org/2000/svg" viewBox="0 0 100 100"><defs><style>.a{fill:#fff;}</style></defs><title>iShop</title><path class="a" d="M-2.34-3V103.27H103.24V-3ZM34.4,61.52a11.63,11.63,0,0,1,2.88-22.67A15.32,15.32,0,0,0,47.54,57.13,11.47,11.47,0,0,1,34.4,61.52ZM63.5,45a11.53,11.53,0,0,1-10.64,9.17A15.36,15.36,0,0,0,42.6,35.87a11.46,11.46,0,0,1,13.18-4.35A11.66,11.66,0,0,1,63.5,45Z"/><path d="M76.45,30.39V21.7H67.51v2.13h3.25A.71.71,0,0,1,71.25,25L63.49,32.4a.7.7,0,0,1-.78.13,1.13,1.13,0,0,1-.32-.19l-.56-.5A14,14,0,0,0,52,28.06,14.23,14.23,0,0,0,39.6,35.14a1.47,1.47,0,0,1-1.4.79,13,13,0,0,0-5.9,1.19c-5.37,2.53-8.3,6.74-8.71,12.51a13.83,13.83,0,0,0,3.93,10.78,14.33,14.33,0,0,0,8.4,4.41c.36.06,1,.41,1,1,0,1.18,0,2.37,0,3.58v.91a.71.71,0,0,1-.7.7H31.7v2.15h4.59a.7.7,0,0,1,.7.7V78.3H39.1V73.83a.71.71,0,0,1,.7-.7h4.83V71h-4.8a.7.7,0,0,1-.7-.7v-.94c0-1.18,0-2.33,0-3.48a1.19,1.19,0,0,1,1-1A14.52,14.52,0,0,0,50.45,58,1.65,1.65,0,0,1,52,57.09h.08A14.51,14.51,0,0,0,65.92,38.24c-.24-.73-.55-1.45-.87-2.2-.16-.36-.32-.72-.47-1.09a.71.71,0,0,1,.17-.78L73,26.33a.71.71,0,0,1,.71-.15.92.92,0,0,1,.61.71v3.5ZM48.13,57.51a12.2,12.2,0,0,1-10.08,5.32,11.92,11.92,0,0,1-3.88-.65,12.33,12.33,0,0,1,3.1-24,.64.64,0,0,1,.55.26A.69.69,0,0,1,38,39a14.63,14.63,0,0,0,9.8,17.46.65.65,0,0,1,.44.43A.67.67,0,0,1,48.13,57.51Zm1.7-3.42a.71.71,0,0,1-.66.47l-.17,0a12.13,12.13,0,0,1-7.8-6.07A11.89,11.89,0,0,1,40.28,39a.71.71,0,0,1,.81-.46,12.23,12.23,0,0,1,8.74,15.59Zm14.35-9c-1.3,6.09-6.78,9.73-11.32,9.73a.7.7,0,0,1-.55-.27.69.69,0,0,1-.13-.59,14.59,14.59,0,0,0-9.79-17.45.71.71,0,0,1-.45-.43A.66.66,0,0,1,42,35.5a12.15,12.15,0,0,1,14-4.64A12.41,12.41,0,0,1,64.18,45.12Z"/></svg>