<svg xmlns="http://www.w3.org/2000/svg" viewBox="0 0 100 100"><defs><style>.a{fill:#fff;}.b{fill:#e2e2e2;}</style></defs><title>iShop</title><path class="a" d="M-.5-.5v101h101V-.5ZM46,46.33a1.39,1.39,0,0,1,1.42.41,2,2,0,0,1,.38,1.63c0,.21-.18.19-.33.18l-1.11,0v0a.8.8,0,0,1-.31,0c-.35-.14-.93.4-1.08-.26A1.54,1.54,0,0,1,46,46.33Zm8.35,11.4c-2.67,0-5.33,0-8,0s-5.33,0-8,0c-.54,0-.6-.17-.52-.65a8.62,8.62,0,0,1,17.07.06C54.92,57.64,54.77,57.74,54.31,57.73Z"/><path d="M44.7,77.22a9.34,9.34,0,0,0-2.1-.37,21,21,0,0,1-2.48-40.67,18.29,18.29,0,0,1,3.57-.75c.45,0,.53-.22.52-.61,0-.87,0-1.74,0-2.61,0-.46,0-.92.64-.92s.61.43.61.88c0,.87,0,1.74,0,2.6,0,.36.05.51.46.51,1.28,0,1.27,0,1.27-1.25,0-.66,0-1.32,0-2,0-.43.12-.76.61-.76s.64.35.64.79c0,.93,0,1.86,0,2.79,0,.34.06.5.45.55a21,21,0,0,1,1,41.45,9.91,9.91,0,0,0-2.1.35Zm2.23-38.9h0c0,.41,0,.82,0,1.24s-.09.81-.61.82-.66-.38-.65-.85c0-.85,0-1.7,0-2.54,0-.4-.12-.51-.5-.47a25.75,25.75,0,0,0-2.76.37,19.91,19.91,0,0,0-9.21,4.58c-.32.28-.36.46,0,.76.62.58,1.2,1.2,1.81,1.79.32.32.43.68.08,1s-.68.17-1-.13L32.6,43.37c-.67-.67-.67-.67-1.27,0A19.9,19.9,0,0,0,26.62,55.1c0,.38.07.52.47.51.84,0,1.69,0,2.54,0,.47,0,.87.11.86.64s-.43.63-.89.63c-.85,0-1.69,0-2.54,0-.35,0-.48.08-.43.46.1.63.11,1.28.21,1.91a19.51,19.51,0,0,0,4.85,10.2c.2.23.32.25.53,0,.6-.62,1.23-1.23,1.83-1.85.32-.32.66-.58,1.06-.18s.18.74-.16,1.06c-.61.59-1.19,1.21-1.81,1.79-.25.24-.26.38,0,.63a20.84,20.84,0,0,0,2.94,2.17,19.4,19.4,0,0,0,9,2.83c.52,0,.63-.14.61-.61,0-.8,0-1.61,0-2.41,0-.46.14-.82.62-.83s.65.36.64.81c0,.83,0,1.66,0,2.49,0,.48.13.58.59.55a19.46,19.46,0,0,0,12-5c.27-.23.29-.37,0-.62-.64-.6-1.24-1.23-1.86-1.83-.32-.32-.48-.67-.14-1s.71-.19,1,.12c.56.58,1.16,1.13,1.69,1.73.34.37.52.42.89,0a19.82,19.82,0,0,0,4.9-12c0-.36-.12-.41-.41-.41-.87,0-1.74,0-2.61,0-.44,0-.83-.12-.84-.61s.36-.67.84-.66c.85,0,1.7,0,2.55,0,.43,0,.52-.14.46-.54-.1-.63-.11-1.28-.21-1.91A19.73,19.73,0,0,0,61,43.1c-.27-.31-.44-.32-.72,0-.58.62-1.2,1.21-1.79,1.81-.31.32-.66.5-1,.13s-.2-.71.12-1c.57-.55,1.09-1.14,1.69-1.65.44-.39.39-.62,0-1a20,20,0,0,0-11.64-4.83c-.55-.05-.79.08-.71.67A8.37,8.37,0,0,1,46.93,38.32Z"/><path d="M67.64,40.49A11.63,11.63,0,0,1,65.42,43a.61.61,0,0,1-.94,0c-.31-.31-.21-.63.08-.92.48-.48,1-1,1.44-1.45s.44-.75,0-1.21-1-1-1.44-1.45a.68.68,0,0,0-1.08,0L62,39.47c-.32.32-.67.46-1,.1s-.17-.67.13-1c.54-.53,1.07-1.09,1.63-1.61a1.73,1.73,0,0,1,2.37-.09,9.2,9.2,0,0,1,2.5,2.84Z"/><path d="M29,36.51a1.66,1.66,0,0,1,1.24.47c.57.54,1.12,1.1,1.67,1.66.3.3.41.65.06,1a.62.62,0,0,1-.93-.1c-.47-.46-.93-.93-1.41-1.39s-.76-.5-1.25,0-1,1-1.45,1.45a.67.67,0,0,0,0,1.07l1.45,1.44c.31.31.49.67.12,1s-.71.16-1-.15c-.5-.52-1-1-1.53-1.54a1.82,1.82,0,0,1,0-2.62c.55-.58,1.13-1.14,1.71-1.7A1.77,1.77,0,0,1,29,36.51Z"/><path class="a" d="M46.93,38.32a8.37,8.37,0,0,0,0-1.12c-.08-.59.16-.72.71-.67a20,20,0,0,1,11.64,4.83c.43.37.48.6,0,1-.6.51-1.12,1.1-1.69,1.65-.32.31-.47.67-.12,1s.7.19,1-.13c.59-.6,1.21-1.19,1.79-1.81.28-.3.45-.29.72,0a19.73,19.73,0,0,1,4.75,10.06c.1.63.11,1.28.21,1.91.06.4,0,.56-.46.54-.85,0-1.7,0-2.55,0-.48,0-.86.13-.84.66s.4.61.84.61c.87,0,1.74,0,2.61,0,.29,0,.43,0,.41.41a19.82,19.82,0,0,1-4.9,12c-.37.42-.55.37-.89,0-.53-.6-1.13-1.15-1.69-1.73-.31-.31-.67-.48-1-.12s-.18.71.14,1c.62.6,1.22,1.23,1.86,1.83.26.25.24.39,0,.62a19.46,19.46,0,0,1-12,5c-.46,0-.62-.07-.59-.55,0-.83,0-1.66,0-2.49,0-.45-.15-.81-.64-.81s-.63.37-.62.83c0,.8,0,1.61,0,2.41,0,.47-.09.65-.61.61a19.4,19.4,0,0,1-9-2.83,20.84,20.84,0,0,1-2.94-2.17c-.27-.25-.26-.39,0-.63.62-.58,1.2-1.2,1.81-1.79.34-.32.54-.68.16-1.06s-.74-.14-1.06.18c-.6.62-1.23,1.23-1.83,1.85-.21.23-.33.21-.53,0a19.51,19.51,0,0,1-4.85-10.2c-.1-.63-.11-1.28-.21-1.91-.05-.38.08-.47.43-.46.85,0,1.69,0,2.54,0,.46,0,.88-.1.89-.63s-.39-.65-.86-.64c-.85,0-1.7,0-2.54,0-.4,0-.49-.13-.47-.51a19.9,19.9,0,0,1,4.71-11.69c.6-.71.6-.71,1.27,0l1.53,1.54c.29.3.63.46,1,.13s.24-.7-.08-1c-.61-.59-1.19-1.21-1.81-1.79-.34-.3-.3-.48,0-.76a19.91,19.91,0,0,1,9.21-4.58,25.75,25.75,0,0,1,2.76-.37c.38,0,.51.07.5.47,0,.84,0,1.69,0,2.54,0,.47.09.85.65.85s.62-.38.61-.82,0-.83,0-1.24ZM46.33,59h9c.67,0,.92-.25.87-.9a9.64,9.64,0,0,0-6-8.77c-.83-.37-1.18-.69-1.16-1.64a2.61,2.61,0,0,0-3.07-2.59,2.71,2.71,0,0,0-2.27,3,.91.91,0,0,1-.72,1A9.77,9.77,0,0,0,36.5,58c0,.82.13,1,1,1Zm0,2.42h-10a3,3,0,0,0-.67,0,.56.56,0,0,0-.46.59.58.58,0,0,0,.45.59,2.59,2.59,0,0,0,.56.05H56.35c.47,0,1,0,1-.64s-.52-.64-1-.64h-10Z"/><path class="a" d="M46.25,29.28c-1.11,0-2.23,0-3.34,0-.43,0-.57-.13-.56-.57,0-1.41-.19-1.16,1.17-1.17,2.06,0,4.13,0,6.19,0,.42,0,.57.12.56.56,0,1.4.18,1.16-1.17,1.18Z"/><path d="M46.33,59H37.47c-.84,0-1-.15-1-1a9.77,9.77,0,0,1,6.42-8.88.91.91,0,0,0,.72-1,2.71,2.71,0,0,1,2.27-3A2.61,2.61,0,0,1,49,47.66c0,1,.33,1.27,1.16,1.64a9.64,9.64,0,0,1,6,8.77c0,.65-.2.9-.87.9Zm0-1.25c2.67,0,5.33,0,8,0,.46,0,.61-.09.56-.58a8.62,8.62,0,0,0-17.07-.06c-.08.48,0,.65.52.65C41,57.71,43.65,57.72,46.31,57.72Zm0-9.2v0l1.11,0c.15,0,.32,0,.33-.18a2,2,0,0,0-.38-1.63A1.39,1.39,0,0,0,46,46.33a1.54,1.54,0,0,0-1,1.92c.15.66.73.12,1.08.26A.8.8,0,0,0,46.32,48.52Z"/><path d="M46.37,61.39h10c.47,0,1,0,1,.64s-.52.64-1,.64H36.27a2.59,2.59,0,0,1-.56-.05.58.58,0,0,1-.45-.59.56.56,0,0,1,.46-.59,3,3,0,0,1,.67,0Z"/><path d="M46.3,73.26a17,17,0,1,1,17-17A17.06,17.06,0,0,1,46.3,73.26Zm0-33.21A16.17,16.17,0,1,0,62.47,56.22,16.19,16.19,0,0,0,46.3,40.05Z"/><rect class="b" x="41.79" y="27.27" width="9.04" height="2.26"/><path d="M46.28,30.53H42.75a1.45,1.45,0,0,1-1.64-1.64v-1a1.44,1.44,0,0,1,1.6-1.62c1.24,0,2.48,0,3.72,0s2.27,0,3.4,0,1.67.53,1.67,1.67c0,.35,0,.7,0,1.06A1.39,1.39,0,0,1,50,30.52C48.76,30.54,47.52,30.53,46.28,30.53Zm0-1.25H49.1c1.35,0,1.13.22,1.17-1.18,0-.44-.14-.56-.56-.56-2.06,0-4.13,0-6.19,0-1.36,0-1.13-.24-1.17,1.17,0,.44.13.58.56.57C44,29.27,45.14,29.28,46.25,29.28Z"/></svg>