<svg xmlns="http://www.w3.org/2000/svg" xmlns:xlink="http://www.w3.org/1999/xlink" viewBox="0 0 100 100"><defs><style>.a{fill:none;}.b{fill:#fff;}.c{fill:#1d1d1d;}.d{clip-path:url(#a);}.e{fill:#e2e2e2;}</style><clipPath id="a"><path class="a" d="M83.67,31.26H55.84V44.34c6.59,0,13.49,7.47,13.75,14.73a1.91,1.91,0,0,1,1.15,1.8,2,2,0,0,1-.68,1.52,3.65,3.65,0,0,1,1,2.57,4.07,4.07,0,0,1-.07.61H83.67Z"/></clipPath></defs><title>iShop</title><path class="b" d="M20.79,41l.06.56,0,.22.09.59c0,.1,0,.2.07.3s.08.38.13.55.07.23.11.34.11.33.17.49.09.22.14.34.14.31.22.47l0,.08.12.23c.09.16.19.32.29.48l.05.09a1.63,1.63,0,0,1,.11.17,8.16,8.16,0,0,0,.5.66l.35.43.42-.35,3-3L26.51,41Z"/><path class="b" d="M36.69,33.6l-.44-.36c-.22-.18-.45-.35-.7-.52l-.14-.08-.09-.06a5.48,5.48,0,0,0-.52-.31l-.21-.11-.08,0L34,31.89l-.32-.13a5,5,0,0,0-.5-.18l-.33-.1-.52-.13-.08,0L32,31.27l-.59-.08-.22,0-.56-.06v5.5h3Z"/><path class="b" d="M46,45.61a6,6,0,0,0,1-.83l2.27-2.27.29-5.13H46l-1,8.77Z"/><path class="b" d="M29.87,31.1l-.55.06a9.42,9.42,0,0,0-5.05,2.09l-.43.36,3,3h3Z"/><path class="b" d="M26.3,37.16l-3-3-.35.44a9.37,9.37,0,0,0-2.1,5l-.05.56h5.68Z"/><path class="b" d="M33.84,42.81a6.68,6.68,0,0,1,4.75,2,5.9,5.9,0,0,0,4.2,1.74,5.76,5.76,0,0,0,1.09-.11l.37-.06,1-9H27.09l.49,8.91,1.51-1.51A6.66,6.66,0,0,1,33.84,42.81Z"/><path class="b" d="M-.5-.5v101h101V-.5ZM66.73,65.84C65.13,65.82,53,66,53,66L48.6,68.59l0,.64v3.59a.39.39,0,0,1-.38.39H28.47a.4.4,0,0,1-.39-.39V69.25L26.72,44.66,21,50.35a.37.37,0,0,1-.27.11.39.39,0,0,1-.27-.11l-.18-.18A13.82,13.82,0,1,1,40,30.8a.39.39,0,0,1,0,.55L34.78,36.6H45.34L46,30.68a.37.37,0,0,1,.19-.29l4-2.43.4.67L46.75,31l-.63,5.65H50a.43.43,0,0,1,.29.13.37.37,0,0,1,.09.28L49,61.7a4.48,4.48,0,0,1,1.58.79c1.59,1.1,3.86.27,5.1-.38a4.29,4.29,0,0,1,4.13.21,5.38,5.38,0,0,0,5.12-.2,2,2,0,0,1,3,1.05C67.94,63.65,68.14,65.45,66.73,65.84Z"/><path class="b" d="M41.44,66l-2.28,0a3.07,3.07,0,0,1-1.32-2.7c.11-1.8,2.21-1.32,2.78-.94a5.92,5.92,0,0,0,5.28.19,7,7,0,0,1,2.31-.81l1-18-1.66,1.66a6.72,6.72,0,0,1-9.5,0,6,6,0,0,0-8.41,0l-2,2,1.2,21.53h17.7Z"/><path d="M67.82,62a1.35,1.35,0,0,0,.54-1.09,1.37,1.37,0,0,0-.92-1.3,9.83,9.83,0,0,0-9.81-9.42H48.12a9.81,9.81,0,0,0-9.8,9.42,1.38,1.38,0,0,0-.92,1.3A1.4,1.4,0,0,0,37.94,62a2.51,2.51,0,0,0,.37,4v2.87a3.75,3.75,0,0,0,3.75,3.75H63.7a3.75,3.75,0,0,0,3.74-3.75V65.94a2.51,2.51,0,0,0,.38-4Zm-29-1.53h3.8v-.94H39.26a8.89,8.89,0,0,1,8.86-8.41h9.51a8.9,8.9,0,0,1,8.87,8.41H43.94v.94H67a.44.44,0,1,1,0,.88l-.51,0h0a5.35,5.35,0,0,0-2,.59,4.19,4.19,0,0,1-2.14.52h-.38a4.22,4.22,0,0,1-1.77-.51,5.14,5.14,0,0,0-2.55-.61q-.36,0-.66,0a5.21,5.21,0,0,0-1.89.58l-.42.19a4,4,0,0,1-1.7.33h-.27a4,4,0,0,1-1-.15,5,5,0,0,1-.89-.36,5.63,5.63,0,0,0-5.1,0,4.27,4.27,0,0,1-1.78.51h-.37a4.2,4.2,0,0,1-2.15-.52,5.12,5.12,0,0,0-2-.59h0l-.51,0a.44.44,0,1,1,0-.88Zm27.73,7h-10v.94h10v.45a2.81,2.81,0,0,1-2.81,2.81H42.06a2.81,2.81,0,0,1-2.81-2.81V66.32H40.7l6.66,3.6L54,66.32H66.51Zm-23.84-1.1h9.38l-4.69,2.54Zm23.45-.93H39.63a1.57,1.57,0,0,1-.3-3.12,4.51,4.51,0,0,1,1.6.49,5.08,5.08,0,0,0,2.31.61h.24A5.11,5.11,0,0,0,46,62.76a4.32,4.32,0,0,1,2.15-.51,4.9,4.9,0,0,1,.7,0l.29.05.14,0a4.82,4.82,0,0,1,1,.39,5.26,5.26,0,0,0,1.43.51l.27,0,.2,0q.3,0,.66,0h0a5.92,5.92,0,0,0,.76,0,4.9,4.9,0,0,0,1.73-.54l.06,0a4.32,4.32,0,0,1,2.15-.51,4.9,4.9,0,0,1,.7,0l.29.05.14,0a4.82,4.82,0,0,1,1,.39,5.26,5.26,0,0,0,1.43.51l.27,0,.2,0q.3,0,.66,0h.23a5.17,5.17,0,0,0,2.32-.61,4.39,4.39,0,0,1,1.59-.49,1.58,1.58,0,0,1-.31,3.12Zm0,0"/><rect class="c" x="47.51" y="52.19" width="1.46" height="0.94"/><rect class="c" x="49.83" y="54.23" width="1.46" height="0.94"/><rect class="c" x="45.19" y="54.23" width="1.46" height="0.94"/><rect class="c" x="59.1" y="54.23" width="1.46" height="0.94"/><rect class="c" x="54.46" y="54.23" width="1.46" height="0.94"/><rect class="c" x="52.15" y="52.19" width="1.46" height="0.94"/><rect class="c" x="56.78" y="52.19" width="1.46" height="0.94"/><g class="d"><polygon class="b" points="72.13 32.95 66.53 32.95 66.53 34.18 68.21 34.18 68.21 35.82 70.38 35.82 70.38 34.18 72.13 34.18 72.13 32.95"/><polygon class="b" points="79.89 37.45 81.06 38.62 82.45 37.23 81.3 36.07 79.89 37.45"/><path class="e" d="M68.45,49.89s-.22-.51.42-1.15,5.93-4.18,5.93-4.18l-4.56,6.58A1.58,1.58,0,0,1,68.45,49.89Z"/><path d="M69.77,51.66a1.84,1.84,0,0,0,1.32-.74l4.76-6.6a.51.51,0,0,0,0-.72.53.53,0,0,0-.69,0l-6.59,4.77a1.81,1.81,0,0,0,1.1,3.3Zm-.94-1.87a.81.81,0,0,1,.33-.59l4-2.92-2.91,4a.79.79,0,0,1-1.44-.53Z"/><path d="M81.15,42.3h0a14,14,0,0,0-1.81-2.45l1.1-1.1.71.72,2.2-2.2-2.2-2.2L79,37.27l.72.71-1.1,1.1a14,14,0,0,0-2.45-1.81h0a13.76,13.76,0,0,0-5.22-1.73v-.6h.76a1.27,1.27,0,1,0,0-2.54H67.05a1.27,1.27,0,0,0,0,2.54h.76v.58a13.07,13.07,0,0,0-1.64.28.51.51,0,0,0-.38.61.52.52,0,0,0,.61.38,13.89,13.89,0,0,1,1.41-.25h1v.94a.52.52,0,0,0,1,0v-1.1a12.54,12.54,0,0,1,5.31,1.44l-.51.87a.52.52,0,0,0,.19.69.55.55,0,0,0,.25.07.51.51,0,0,0,.44-.26l.5-.86A12.56,12.56,0,0,1,80,42.27l-.86.5a.5.5,0,0,0-.19.69.48.48,0,0,0,.44.25.54.54,0,0,0,.25-.06l.87-.51a12.57,12.57,0,0,1,1.45,5.39h-1a.51.51,0,0,0-.51.51.5.5,0,0,0,.51.5h1a12.57,12.57,0,0,1-1.45,5.4l-.87-.5a.51.51,0,0,0-.69.18.51.51,0,0,0,.18.7h0l.87.49a12.73,12.73,0,0,1-4,3.95l-.49-.87a.52.52,0,0,0-.69-.19.51.51,0,0,0-.19.7l.51.87a12.84,12.84,0,0,1-5.32,1.44v-1a.5.5,0,0,0-.5-.51.51.51,0,0,0-.51.5h0v1a13.25,13.25,0,0,1-2.43-.31.51.51,0,1,0-.23,1,13.85,13.85,0,0,0,3.08.35h.1a13.67,13.67,0,0,0,6.72-1.81h0a13.87,13.87,0,0,0,5-5h0a13.69,13.69,0,0,0,0-13.65Zm0-5.76.71.72-.71.71-.71-.71Zm-12.28-1.1V33.9H67.05a.25.25,0,0,1,0-.5h4.58a.25.25,0,0,1,0,.5H69.84v1.54h-1Zm-4.11,4H62.23a.51.51,0,1,0,0,1h2.53a.51.51,0,1,0,0-1Zm0,3.52H59.68a.51.51,0,0,0,0,1h5.08a.51.51,0,1,0,0-1Zm0,3.59H57.14a.52.52,0,0,0,0,1h7.62a.52.52,0,0,0,0-1Zm0,3.57H55.12a.51.51,0,0,0,0,1h9.64a.51.51,0,1,0,0-1Zm0,3.55h-6.6a.51.51,0,0,0,0,1h6.6a.5.5,0,0,0,.51-.5.51.51,0,0,0-.5-.51Zm0,3.59H61.21a.51.51,0,0,0-.51.51.51.51,0,0,0,.51.51h3.55a.51.51,0,0,0,.51-.51A.5.5,0,0,0,64.76,57.28Z"/></g><path class="e" d="M28.47,73.21a.4.4,0,0,1-.39-.39V69.25L26.72,44.66,21,50.35a.37.37,0,0,1-.27.11.39.39,0,0,1-.27-.11l-.18-.18A13.82,13.82,0,1,1,40,30.8a.39.39,0,0,1,0,.55L34.78,36.6H45.34L46,30.68a.37.37,0,0,1,.19-.29l4-2.43.4.67L46.75,31l-.63,5.65H50a.43.43,0,0,1,.29.13.41.41,0,0,1,.09.28L48.56,69.23v3.59a.39.39,0,0,1-.38.39Zm.39-.78H47.79V69.62H28.86Zm1.4-44.9a13.05,13.05,0,0,0-8.54,3.18A13.06,13.06,0,0,0,20.4,49.12l.36.41,2-2-.32-.37,0-.05L22.27,47l-.09-.12-.38-.51-.14-.22L21.61,46c-.11-.17-.21-.34-.31-.51l-.17-.34c-.09-.17-.17-.34-.25-.51l-.15-.36c-.06-.17-.13-.35-.19-.54s-.08-.24-.11-.36-.09-.33-.13-.5l0-.2a1.55,1.55,0,0,1-.05-.23c-.05-.21-.07-.42-.1-.64l0-.13c0-.06,0-.12,0-.18,0-.33-.05-.66-.05-1A10.26,10.26,0,0,1,30.26,30.34c.31,0,.63,0,1,0l.31,0,.64.1.24.05.12,0,.56.14.29.09.08,0L34,31l.37.16q.26.11.51.24l.34.18c.17.09.33.19.49.29l0,0,.29.18.47.35.1.08.2.15.39.3.35-.26,1.67-1.67-.41-.36a13,13,0,0,0-8.51-3.18Zm-9.41,14,0,.22.09.59c0,.1,0,.2.07.3s.08.38.13.55.07.23.11.34.11.33.17.49.09.22.14.34.14.31.22.47l0,.08.12.23c.09.16.19.32.29.48l.05.09a1.63,1.63,0,0,1,.11.17,8.16,8.16,0,0,0,.5.66l.35.43.42-.35,3-3L26.51,41H20.79Zm13,1.29a6.68,6.68,0,0,1,4.75,2,5.9,5.9,0,0,0,4.2,1.74,5.76,5.76,0,0,0,1.09-.11l.37-.06,1-9H27.09l.49,8.91,1.51-1.51A6.66,6.66,0,0,1,33.84,42.81Zm11.22,3.34.89-.54a6,6,0,0,0,1-.83l2.27-2.27.29-5.13H46ZM22.94,34.59a9.37,9.37,0,0,0-2.1,5l-.05.56h5.68l-.17-3-3-3Zm7.71,2h3l3-3-.44-.36c-.22-.18-.45-.35-.7-.52l-.14-.08-.09-.06a5.48,5.48,0,0,0-.52-.31l-.21-.11-.08,0L34,31.89l-.32-.13a5,5,0,0,0-.5-.18l-.33-.1-.52-.13-.08,0L32,31.27l-.59-.08-.22,0-.56-.06Zm-1.33-5.44a9.42,9.42,0,0,0-5.05,2.09l-.43.36,3,3h3V31.1Z"/><path d="M28.47,73.21a.4.4,0,0,1-.39-.39V69.25L26.72,44.66,21,50.35a.37.37,0,0,1-.27.11.39.39,0,0,1-.27-.11l-.18-.18A13.82,13.82,0,1,1,40,30.8a.39.39,0,0,1,0,.55L34.78,36.6H45.34L46,30.68a.37.37,0,0,1,.19-.29l4-2.43.4.67L46.75,31l-.63,5.65H50a.43.43,0,0,1,.29.13.41.41,0,0,1,.09.28L48.56,69.23v3.59a.39.39,0,0,1-.38.39Zm.39-.78H47.79V69.62H28.86Zm5-28.84a5.91,5.91,0,0,0-4.2,1.73l-2,2,1.2,21.53h19l1.4-25.18-1.66,1.66a6.72,6.72,0,0,1-9.5,0A5.91,5.91,0,0,0,33.84,43.59ZM30.26,27.53a13.05,13.05,0,0,0-8.54,3.18A13.06,13.06,0,0,0,20.4,49.12l.36.41,2-2-.32-.37,0-.05L22.27,47l-.09-.12-.38-.51-.14-.22L21.61,46c-.11-.17-.21-.34-.31-.51l-.17-.34c-.09-.17-.17-.34-.25-.51l-.15-.36c-.06-.17-.13-.35-.19-.54s-.08-.24-.11-.36-.09-.33-.13-.5l0-.2a1.55,1.55,0,0,1-.05-.23c-.05-.21-.07-.42-.1-.64l0-.13c0-.06,0-.12,0-.18,0-.33-.05-.66-.05-1A10.26,10.26,0,0,1,30.26,30.34c.31,0,.63,0,1,0l.31,0,.64.1.24.05.12,0,.56.14.29.09.08,0L34,31l.37.16q.26.11.51.24l.34.18c.17.09.33.19.49.29l0,0,.29.18.47.35.1.08.2.15.39.3.35-.26,1.67-1.67-.41-.36a13,13,0,0,0-8.51-3.18Zm-9.41,14,0,.22.09.59c0,.1,0,.2.07.3s.08.38.13.55.07.23.11.34.11.33.17.49.09.22.14.34.14.31.22.47l0,.08.12.23c.09.16.19.32.29.48l.05.09a1.63,1.63,0,0,1,.11.17,8.16,8.16,0,0,0,.5.66l.35.43.42-.35,3-3L26.51,41H20.79Zm13,1.29a6.68,6.68,0,0,1,4.75,2,5.9,5.9,0,0,0,4.2,1.74,5.76,5.76,0,0,0,1.09-.11l.37-.06,1-9H27.09l.49,8.91,1.51-1.51A6.66,6.66,0,0,1,33.84,42.81Zm11.22,3.34.89-.54a6,6,0,0,0,1-.83l2.27-2.27.29-5.13H46ZM22.94,34.59a9.37,9.37,0,0,0-2.1,5l-.05.56h5.68l-.17-3-3-3Zm7.71,2h3l3-3-.44-.36c-.22-.18-.45-.35-.7-.52l-.14-.08-.09-.06a5.48,5.48,0,0,0-.52-.31l-.21-.11-.08,0L34,31.89l-.32-.13a5,5,0,0,0-.5-.18l-.33-.1-.52-.13-.08,0L32,31.27l-.59-.08-.22,0-.56-.06Zm-1.33-5.44a9.42,9.42,0,0,0-5.05,2.09l-.43.36,3,3h3V31.1Z"/><rect class="a" x="16.33" y="26.66" width="34.51" height="46.68"/><rect x="32.56" y="49.14" width="0.77" height="0.77"/><rect x="37.94" y="56.31" width="0.77" height="0.77"/><rect x="43.31" y="63.48" width="0.77" height="0.77"/><rect x="44.21" y="51.83" width="0.77" height="0.77"/><rect x="33.46" y="62.58" width="0.77" height="0.77"/><rect class="b" x="28.86" y="69.62" width="18.93" height="2.81"/></svg>