<svg xmlns="http://www.w3.org/2000/svg" viewBox="0 0 100 100"><defs><style>.a{fill:#fff;}.b{fill:none;stroke:#000;stroke-miterlimit:10;stroke-width:1.4px;}.c{fill:#e2e2e2;}</style></defs><title>iShop</title><path class="a" d="M-.5-.5v101h101V-.5ZM56.58,22.28h.64l.21-.2.2.2h.3v.3l.4.41-.4.41v.23H57.7l-.46.45-.46-.45h-.2v-.2l-.26-.26.26-.26ZM45.81,20.56v-.93h4.41v0h.18v.9h-.18v0H48.83v1.28h-1.7V20.6H45.81Zm6.51,8.2-3.59,5.17a1.25,1.25,0,0,1-1.42-1s-.16-.4.34-.91S52.32,28.76,52.32,28.76ZM35.77,67.25H21.55V65.12H35.77ZM61.4,54.59H38.33V51.81H61.4ZM78.6,67.25H64.38V65.12H78.6Z"/><path d="M48.21,34.43a1.51,1.51,0,0,1-.87-2.74l5.19-3.75a.5.5,0,0,1,.32-.12.48.48,0,0,1,.32.13.48.48,0,0,1,0,.67l-3.74,5.19a1.51,1.51,0,0,1-1.1.61ZM47.69,33a.55.55,0,0,0,.23.39.5.5,0,0,0,.31.1.54.54,0,0,0,.45-.24l2-2.75-2.75,2a.56.56,0,0,0-.22.41Z"/><path d="M48,43.14a10.56,10.56,0,0,1-2.44-.28.48.48,0,0,1,.11-.94h.1a11.2,11.2,0,0,0,1.82.24v-.71A.49.49,0,0,1,48,41a.45.45,0,0,1,.33.14.44.44,0,0,1,.14.34v.71a10,10,0,0,0,4-1.09l-.36-.61a.47.47,0,0,1,.17-.65.53.53,0,0,1,.24-.06A.5.5,0,0,1,53,40l.35.62a10.1,10.1,0,0,0,3-3l-.61-.35a.46.46,0,0,1-.22-.29.45.45,0,0,1,0-.36.49.49,0,0,1,.42-.24.5.5,0,0,1,.24.06l.61.36a9.9,9.9,0,0,0,1.09-4.06h-.7a.48.48,0,0,1,0-1h.71a9.9,9.9,0,0,0-1.09-4.05l-.61.36a.53.53,0,0,1-.24.06.48.48,0,0,1-.24-.89l.61-.35a9.86,9.86,0,0,0-3-3l-.34.61a.54.54,0,0,1-.42.24.73.73,0,0,1-.24-.07.48.48,0,0,1-.17-.65l.35-.61a9.73,9.73,0,0,0-4-1.08v.78a.48.48,0,0,1-.48.48.49.49,0,0,1-.48-.48v-.66h-.73c-.35,0-.72.11-1.09.19h-.1a.48.48,0,0,1-.11-.94,8.31,8.31,0,0,1,1.23-.21v-.31h-.52a1.08,1.08,0,0,1,0-2.16h3.62a1.08,1.08,0,0,1,0,2.16h-.52v.33A10.54,10.54,0,0,1,53.4,23a11,11,0,0,1,1.87,1.38l.76-.75L55.47,23l1.84-1.84L59.15,23l-1.84,1.85-.56-.57-.76.76a10.75,10.75,0,0,1,1.39,1.88l0,.1h-.09A10.77,10.77,0,0,1,48,43.14Zm9.36-19.67.45-.45-.45-.46-.45.46Zm-9-2V20.3h1.48a.13.13,0,0,0,.12-.12.12.12,0,0,0-.12-.12h-3.6a.12.12,0,0,0-.12.12.12.12,0,0,0,.12.12h1.5v1.21ZM41.62,39.65a.49.49,0,0,1,0-1h2.8a.49.49,0,0,1,0,1Zm-2.39-2.83a.48.48,0,1,1,0-1h5.19a.48.48,0,0,1,.34.14.43.43,0,0,1,.13.34.48.48,0,0,1-.47.48ZM36.83,34a.49.49,0,0,1-.48-.48.48.48,0,0,1,.48-.48h7.59a.48.48,0,0,1,.48.48.49.49,0,0,1-.48.48Zm1.59-2.8a.49.49,0,0,1,0-1h6a.49.49,0,0,1,0,1Zm2-2.84a.49.49,0,0,1-.48-.48.48.48,0,0,1,.48-.47h4a.48.48,0,0,1,.34.14.42.42,0,0,1,.13.33.48.48,0,0,1-.47.48Zm2-2.76a.48.48,0,0,1-.48-.48.47.47,0,0,1,.48-.48h2a.48.48,0,0,1,.48.48.49.49,0,0,1-.48.48Z"/><line class="b" x1="34.43" y1="67.78" x2="34.43" y2="80.89"/><path class="b" d="M21.4,64.73v2.53a.38.38,0,0,0,.38.37H35.24a.38.38,0,0,0,.38-.37V65"/><line class="b" x1="22.66" y1="67.78" x2="22.66" y2="80.89"/><line class="b" x1="22.57" y1="73.12" x2="34.33" y2="73.12"/><path class="b" d="M20,38.58h1.51a3.3,3.3,0,0,1,3.3,3.3V59.67a.55.55,0,0,0,.55.55H35a2.35,2.35,0,0,1,2.34,2.35h0A2.34,2.34,0,0,1,35,64.91H22.06A1.89,1.89,0,0,1,20.17,63Z"/><line class="b" x1="65.57" y1="67.78" x2="65.57" y2="80.89"/><path class="b" d="M78.6,64.73v2.53a.38.38,0,0,1-.38.37H64.76a.38.38,0,0,1-.38-.37V65"/><line class="b" x1="77.34" y1="67.78" x2="77.34" y2="80.89"/><line class="b" x1="77.43" y1="73.12" x2="65.67" y2="73.12"/><path class="b" d="M80,38.58H78.49a3.3,3.3,0,0,0-3.3,3.3V59.67a.55.55,0,0,1-.55.55H65a2.35,2.35,0,0,0-2.34,2.35h0A2.34,2.34,0,0,0,65,64.91H77.94A1.89,1.89,0,0,0,79.83,63Z"/><path class="b" d="M38.48,51.27v2.56a1.2,1.2,0,0,0,1.2,1.2H60.4a1.2,1.2,0,0,0,1.2-1.2V51.62"/><line class="b" x1="47.75" y1="55.06" x2="47.75" y2="76.72"/><line class="b" x1="52.43" y1="55.06" x2="52.43" y2="76.72"/><path class="b" d="M52,80.59H42a.58.58,0,0,1-.58-.58v-.24A2.76,2.76,0,0,1,44.14,77H55.67a2.76,2.76,0,0,1,2.76,2.76V80a.58.58,0,0,1-.58.58H54.7"/><rect class="c" x="31.94" y="46.62" width="35" height="4.7"/><rect class="b" x="31.94" y="46.62" width="35.71" height="4.7" rx="0.71"/></svg>