<svg xmlns="http://www.w3.org/2000/svg" viewBox="0 0 100 100"><defs><style>.a{fill:#fff;}.b{fill:#e2e2e2;}</style></defs><title>iShop</title><path class="a" d="M25.49,71.62c0,.15,0,.3,0,.45a.8.8,0,1,0,1.59,0,4.5,4.5,0,0,0,0-.9.79.79,0,0,0-1.57,0,2.26,2.26,0,0,0,0,.45Z"/><path class="a" d="M-.5-.5v101h101V-.5ZM28.66,73.62H23.92V60.88h4.74ZM60.79,52.24a2.26,2.26,0,0,1-.45,0H27.43a2.13,2.13,0,0,1-.44,0,.74.74,0,0,1-.69-.78.75.75,0,0,1,.69-.79,2.77,2.77,0,0,1,.5,0h32.8a2.77,2.77,0,0,1,.5,0,.76.76,0,0,1,.69.79A.75.75,0,0,1,60.79,52.24Z"/><path d="M60.74,49A2.41,2.41,0,0,1,63,50.79a2.37,2.37,0,0,1-2.1,3.05.55.55,0,0,0-.58.46c-.39,1.22-.81,2.43-1.2,3.65a.92.92,0,0,1-1,.71H29.66a.92.92,0,0,1-1-.72c-.4-1.24-.81-2.47-1.24-3.69a.65.65,0,0,0-.4-.38,2.44,2.44,0,0,1-2.34-2.35A2.41,2.41,0,0,1,27,49.06L27,49c1.05-8.56,5.74-13.81,14.14-15.83a3.34,3.34,0,0,1-.24-3A3.21,3.21,0,0,1,46,29c1.19,1,1.39,2.3.66,4.2C55,35.2,59.68,40.46,60.74,49Zm-1.69,0a15.18,15.18,0,0,0-30.31,0Zm-.28,4.86H29c.31.92.62,1.79.88,2.68.11.4.3.5.7.5h26.6a.92.92,0,0,0,.29,0c.11,0,.26-.1.29-.2C58.11,55.88,58.43,54.9,58.77,53.89ZM43.94,50.66H27.49a2.77,2.77,0,0,0-.5,0,.75.75,0,0,0-.69.79.74.74,0,0,0,.69.78,2.13,2.13,0,0,0,.44,0H60.34a2.26,2.26,0,0,0,.45,0,.75.75,0,0,0,.69-.78.76.76,0,0,0-.69-.79,2.77,2.77,0,0,0-.5,0Zm1.55-19.22a1.6,1.6,0,1,0-1.59,1.61A1.61,1.61,0,0,0,45.49,31.44Z"/><path d="M51,64.91l4.66-2.69,3-1.72A3.21,3.21,0,1,1,61.89,66L48.61,73.71a5.62,5.62,0,0,1-2.86.76q-5.93,0-11.85,0a5.75,5.75,0,0,1-2.61-.61l-1-.49c0,.39,0,.72,0,1a.78.78,0,0,1-.84.85H23.13a.78.78,0,0,1-.84-.84c0-.23,0-.47,0-.75H16.87c-.7,0-1-.28-1-1V61.84c0-.71.29-1,1-1h5.38c0-.28,0-.51,0-.73a.79.79,0,0,1,.83-.87c2.12,0,4.23,0,6.35,0a.77.77,0,0,1,.81.82c0,.43,0,.86,0,1.34,1.08-.26,2.11-.46,3.11-.78a8.44,8.44,0,0,1,5,0c3.47,1,7,1.89,10.46,2.81A3.59,3.59,0,0,1,51,64.91ZM30.29,63.09v.58c0,2.39,0,4.77,0,7.15a1,1,0,0,0,.67,1.09,7.2,7.2,0,0,0,3,1c3.93,0,7.86,0,11.79,0a4.15,4.15,0,0,0,2-.48c4.52-2.56,9-5.17,13.5-7.78a1.58,1.58,0,0,0,.64-2.16,1.61,1.61,0,0,0-2.21-.61q-3.9,2.23-7.78,4.5a.58.58,0,0,0-.25.42,3.18,3.18,0,0,1-4.14,3l-9.25-2.48c-.61-.17-.87-.54-.73-1s.55-.66,1.13-.51l5.16,1.38c1.38.37,2.76.76,4.14,1.12A1.6,1.6,0,0,0,50,66.46a1.68,1.68,0,0,0-1.45-1.39c-3.47-.92-6.94-1.86-10.41-2.79a6.19,6.19,0,0,0-3-.38C33.5,62.27,31.92,62.68,30.29,63.09Zm-6.37-2.21V73.62h4.74V60.88ZM22.25,72V62.5H17.51V72Z"/><path class="a" d="M59.05,49H28.74a15.18,15.18,0,0,1,30.31,0ZM48.74,37.17a.82.82,0,0,0-.84.65.8.8,0,0,0,.57.94,12,12,0,0,1,7,8A.8.8,0,1,0,57,46.3a13.51,13.51,0,0,0-7.84-9C49,37.26,48.85,37.21,48.74,37.17Zm-4.29-.92a5.27,5.27,0,0,0-.59,0,.8.8,0,0,0-.77.77.79.79,0,0,0,.72.81c.55,0,1.09.09,1.64.1a.79.79,0,0,0,.1-1.58Z"/><path class="a" d="M58.77,53.89c-.34,1-.66,2-1,3,0,.1-.18.16-.29.2a.92.92,0,0,1-.29,0H30.59c-.4,0-.59-.1-.7-.5-.26-.89-.57-1.76-.88-2.68Z"/><path class="a" d="M45.49,31.44a1.6,1.6,0,1,1-1.59-1.59A1.61,1.61,0,0,1,45.49,31.44Z"/><path class="a" d="M30.29,63.09c1.63-.41,3.21-.82,4.79-1.19a6.19,6.19,0,0,1,3,.38c3.47.93,6.94,1.87,10.41,2.79A1.68,1.68,0,0,1,50,66.46a1.6,1.6,0,0,1-2.07,1.77c-1.38-.36-2.76-.75-4.14-1.12l-5.16-1.38c-.58-.15-1,0-1.13.51s.12.87.73,1l9.25,2.48a3.18,3.18,0,0,0,4.14-3,.58.58,0,0,1,.25-.42q3.87-2.27,7.78-4.5a1.61,1.61,0,0,1,2.21.61,1.58,1.58,0,0,1-.64,2.16c-4.49,2.61-9,5.22-13.5,7.78a4.15,4.15,0,0,1-2,.48c-3.93,0-7.86,0-11.79,0a7.2,7.2,0,0,1-3-1,1,1,0,0,1-.67-1.09c0-2.38,0-4.76,0-7.15Z"/><path class="a" d="M22.25,72H17.51V62.5h4.74Z"/><path d="M48.74,37.17c.11,0,.27.09.43.16a13.51,13.51,0,0,1,7.84,9,.8.8,0,1,1-1.52.48,12,12,0,0,0-7-8,.8.8,0,0,1-.57-.94A.82.82,0,0,1,48.74,37.17Z"/><circle class="b" cx="72.45" cy="36.4" r="11.11"/><path d="M44.45,36.25l1.1.11a.79.79,0,0,1-.1,1.58c-.55,0-1.09,0-1.64-.1a.79.79,0,0,1-.72-.81.8.8,0,0,1,.77-.77A5.27,5.27,0,0,1,44.45,36.25Z"/><path d="M25.49,71.62a2.26,2.26,0,0,1,0-.45.79.79,0,0,1,1.57,0,4.5,4.5,0,0,1,0,.9.8.8,0,1,1-1.59,0c0-.15,0-.3,0-.45Z"/><path d="M72.45,48.07A11.67,11.67,0,1,1,84.12,36.4,11.68,11.68,0,0,1,72.45,48.07Zm0-21.94A10.27,10.27,0,1,0,82.71,36.4,10.29,10.29,0,0,0,72.45,26.13Z"/><path d="M71.62,42.26V40.67a3.22,3.22,0,0,1-1.71-.84A3.53,3.53,0,0,1,69,38.27h1.67a2,2,0,0,0,1.93,1A2.1,2.1,0,0,0,73.75,39a.88.88,0,0,0,.43-.75c0-.61-.5-1-1.5-1.1l-.79-.1a3.27,3.27,0,0,1-2-.83,2.25,2.25,0,0,1-.63-1.61A2.29,2.29,0,0,1,69.86,33a3,3,0,0,1,1.76-.87V30.54h1.56v1.57A3.39,3.39,0,0,1,75,33a3.17,3.17,0,0,1,.94,1.55H74.25a1.34,1.34,0,0,0-.69-.74,2.54,2.54,0,0,0-1.21-.27,1.77,1.77,0,0,0-1.08.3.9.9,0,0,0-.4.74.81.81,0,0,0,.35.68,2.71,2.71,0,0,0,1.17.37l.76.1a3.46,3.46,0,0,1,2,.83,2.14,2.14,0,0,1,.67,1.61,2.38,2.38,0,0,1-.7,1.7,3.06,3.06,0,0,1-1.95.88v1.54Z"/></svg>