<svg xmlns="http://www.w3.org/2000/svg" viewBox="0 0 100 100"><defs><style>.a{fill:#fff;}</style></defs><title>iShop</title><path class="a" d="M-3-2.44V102.44H103V-2.44ZM64.47,31H35.09V26.87H64.47Z"/><path d="M32.21,47.22a49.68,49.68,0,0,0-.8,8.87v14.6a3.12,3.12,0,0,0,3.12,3.11H59.92a6.08,6.08,0,0,0,3.67-1.24L67,69.94a4.13,4.13,0,0,0,1.56-3.26V57.51a49.92,49.92,0,0,0-.69-8.45L66,38.33a58,58,0,0,1-.86-10.1v-2H34.7v2.11a58.88,58.88,0,0,1-.94,10.52Zm34.15,2.05a48.27,48.27,0,0,1,.86,8.23l-.15,9.37a2.65,2.65,0,0,1-1,2.09l-3.76,2.91V56.35a33.13,33.13,0,0,1,.35-5l1.88-12.81ZM35.94,27.6H63.75v5.17H35.94ZM35,39.06c.25-1.35.4-2.68.57-4.27l.07-.67H63.91L61.42,51.2a35.48,35.48,0,0,0-.37,5.15V72.56H34.52A1.81,1.81,0,0,1,33.21,72a1.87,1.87,0,0,1-.56-1.32V56.09a48.61,48.61,0,0,1,.79-8.6Z"/></svg>