<svg xmlns="http://www.w3.org/2000/svg" viewBox="0 0 100 100"><defs><style>.a{fill:#fff;}</style></defs><title>iShop</title><path class="a" d="M-3-2.44V102.44H103V-2.44Zm58.33,52L39.63,51V49.33l-.84-6.16-1.2-5.45L36,32.62H52.19l1.2,3.83,1.27,4.93.67,4.47ZM81,69.9H62.36L61,53H82.29Z"/><path d="M83.8,44.75H81.87l-1-4.19a.45.45,0,0,0-.42,0H62.73a.45.45,0,0,0-.42,0l-1,4.19H59.37a.41.41,0,0,0-.42.41V48a.42.42,0,0,0,.42.42h.75l1,11.88a.42.42,0,0,0,.42.34h0a.42.42,0,0,0,.34-.41l-.62-6.87H81.88L80.5,69.46H62.73l-.62-6.86a.43.43,0,0,0-.42-.35h0a.42.42,0,0,0-.34.42l1,12.22a.42.42,0,0,0,.25.53l.09,0H80.44a.42.42,0,0,0,.42-.34l2.19-26.37h.75a.44.44,0,0,0,.59-.17.45.45,0,0,0-.17-.59h0V45.16a.41.41,0,0,0-.42-.41ZM80.1,74.48h-17l-.35-4.12H80.44ZM82,52.64H61.35L61,48.52H82.29ZM83.46,48H59.78v-2.4H79.27a.41.41,0,0,0,.21-.54.39.39,0,0,0-.21-.21H62.11l1-3.71h17l1,4.19a.43.43,0,0,0,.41,0H83.4Z"/><path d="M58.88,72.21h0l-30,6.86h0a194.7,194.7,0,0,0-3.43-45.58V33h10a57.92,57.92,0,0,1,3.64,18.26h.48L55.38,50a.47.47,0,0,0,.48-.48h0a53.71,53.71,0,0,0-3-16.55v-.41h9.68c0,.41.69,3.36.89,4.26h1l-.82-3.71h0A3.48,3.48,0,0,0,65,30.05V23.81a3.29,3.29,0,0,0-3.16-3.3H22.43a3.29,3.29,0,0,0-3,3.3v8.65a399.84,399.84,0,0,0-3.85,45.72h7.07l5.77,1.31,31.1-6.87h0A3.17,3.17,0,0,1,58.88,72.21Zm-4-22.87h0L40.14,50.58h0a59.87,59.87,0,0,0-3.43-17.16V33h15.1A50.67,50.67,0,0,1,54.9,49.35Zm6.86-27.8a2.34,2.34,0,0,1,2.34,2.34h0v5.9c0,1.17-.48,2.27-1.1,2.33H26.41V31.7a4.71,4.71,0,0,0,.34-1.85v-6A3.34,3.34,0,0,0,26.48,22v-.48ZM27.85,79h0L22.43,77.7v-31a.51.51,0,0,0-.52-.51.51.51,0,0,0-.51.51h0v31H16.59a409,409,0,0,1,3.84-45h0V23.81a2.36,2.36,0,0,1,2-2.27h1a2.33,2.33,0,0,1,2.33,2.34h0v5.9c0,1.17-.55,2.27-1.1,2.34h0c-.62,0-1.1-.83-1.1-1.72V28a.52.52,0,1,0-1,0v2.26a2.81,2.81,0,0,0,1.45,2.54h0A189.15,189.15,0,0,1,27.85,79Z"/></svg>