<svg xmlns="http://www.w3.org/2000/svg" viewBox="0 0 100 100"><defs><style>.a{fill:#fff;}</style></defs><title>iShop</title><path class="a" d="M-3-2.44V102.44H103V-2.44ZM40.12,51a4.5,4.5,0,0,1-1-6.43A4.29,4.29,0,0,1,41.42,43a.7.7,0,0,0,.59-.55,4.43,4.43,0,0,1,7.73-1.67c.22.26.3.3.54,0a4.15,4.15,0,0,1,4.21-1.56,4.2,4.2,0,0,1,3.42,3,1.13,1.13,0,0,0,.86.85,4.17,4.17,0,0,1,3,3.37,4.29,4.29,0,0,1-1.51,4.25l-.3.24c0,.19.19.23.29.31a4.34,4.34,0,0,1,1.51,4.32,4.24,4.24,0,0,1-3.14,3.38.82.82,0,0,0-.65.65,4.43,4.43,0,0,1-7.59,1.7c-.31-.34-.42-.35-.73,0a4.43,4.43,0,0,1-7.58-1.64.94.94,0,0,0-.72-.74,4.16,4.16,0,0,1-3.08-3.35A4.28,4.28,0,0,1,40.12,51Z"/><path d="M65.77,17.18c0,.12.17.11.26.15a3.06,3.06,0,0,1,2.14,2.89,3,3,0,0,1-2,2.9l-.34.16c1.2,1.68,2.35,3.37,3.58,5a3.83,3.83,0,0,1,.8,2.46q0,20.92,0,41.85a1.81,1.81,0,0,1-.49,1.32c-1.05,1.17-2.06,2.39-3.09,3.58a.93.93,0,0,0-.29.62c0,.77,0,1.54,0,2.31,0,.43.18.47.53.47,1.86,0,3.72,0,5.57,0,.51,0,.65.13.64.64,0,1.3,0,1.3-1.3,1.3q-22,0-44.09,0c-.64,0-.89-.12-.85-.82.06-1.11,0-1.12,1.11-1.12,1.71,0,3.42,0,5.13,0,.38,0,.57-.08.5-.49v-.06A4.46,4.46,0,0,0,32.09,76a25,25,0,0,1-2-2.31,1.1,1.1,0,0,1-.31-.8q0-21.53,0-43.06a1.51,1.51,0,0,1,.31-.88c1.25-1.76,2.48-3.52,3.72-5.29.16-.22.38-.39-.07-.59a2.89,2.89,0,0,1-1.87-3A3,3,0,0,1,34,17.3a.88.88,0,0,0,.21-.12ZM68.32,51.4c0-6.66,0-13.33,0-20,0-.62-.16-.77-.77-.77q-17.56,0-35.11,0c-.61,0-.78.13-.78.76q0,20,0,39.92c0,.59.15.73.73.73q17.6,0,35.18,0c.65,0,.75-.2.75-.79C68.31,64.64,68.32,58,68.32,51.4ZM32.62,28.69H67.36C66.19,27,65.05,25.46,64,23.87a1.11,1.11,0,0,0-1-.55q-8.74,0-17.49,0c-1.21,0-1.18,0-1.22-1.2,0-.57.12-.74.73-.74,6.62,0,13.24,0,19.86,0,.91,0,1.46-.44,1.45-1.16s-.55-1.15-1.47-1.15H35.17c-.89,0-1.45.47-1.43,1.19s.55,1.12,1.43,1.12c1.94,0,3.89,0,5.83,0,1.32,0,1.3,0,1.32,1.35,0,.51-.17.59-.62.59-1.62,0-3.25,0-4.87,0a.68.68,0,0,0-.66.27C35,25.27,33.85,26.93,32.62,28.69ZM32.86,74l2.06,2.39c.15.18.35.14.54.14H64.55c.19,0,.39,0,.53-.14.66-.77,1.33-1.53,2.06-2.39ZM50,80.88c4.27,0,8.54,0,12.81,0,.54,0,1.24.24,1.59-.13s0-1,.1-1.55-.13-.77-.76-.77q-13.71,0-27.41,0c-.13,0-.25,0-.38,0s-.38.1-.38.37a11.06,11.06,0,0,1,0,1.41c-.06.54.13.68.66.68Q43.08,80.87,50,80.88Z"/><path d="M66.39,51.68a22.85,22.85,0,0,1-.37,5c-.09.42-.18.61-.7.47-1.27-.37-1.18-.33-1.07-1.69.31-3.57.61-7.18-.47-10.68a14.59,14.59,0,0,0-28.06,1.34A10.44,10.44,0,0,0,35.47,48a41.49,41.49,0,0,0,.17,7.8A14.21,14.21,0,0,0,48.18,67.45a14.45,14.45,0,0,0,12.3-4.28A13.36,13.36,0,0,0,63.24,59c.16-.35.3-.42.67-.28,1.39.55,1.44.56.7,1.89-3.41,6.19-8.71,9.08-15.72,8.78a16.05,16.05,0,0,1-14.84-11.9,12.17,12.17,0,0,1-.51-3.09c0-3.47-.46-7,.76-10.35C36.74,37.43,41.52,33.65,48.6,33a16.09,16.09,0,0,1,16.85,10.7C66.21,45.86,66.39,47.33,66.39,51.68Z"/><path d="M40.12,51a4.5,4.5,0,0,1-1-6.43A4.29,4.29,0,0,1,41.42,43a.7.7,0,0,0,.59-.55,4.43,4.43,0,0,1,7.73-1.67c.22.26.3.3.54,0a4.15,4.15,0,0,1,4.21-1.56,4.2,4.2,0,0,1,3.42,3,1.13,1.13,0,0,0,.86.85,4.17,4.17,0,0,1,3,3.37,4.29,4.29,0,0,1-1.51,4.25l-.3.24c0,.19.19.23.29.31a4.34,4.34,0,0,1,1.51,4.32,4.24,4.24,0,0,1-3.14,3.38.82.82,0,0,0-.65.65,4.43,4.43,0,0,1-7.59,1.7c-.31-.34-.42-.35-.73,0a4.43,4.43,0,0,1-7.58-1.64.94.94,0,0,0-.72-.74,4.16,4.16,0,0,1-3.08-3.35A4.28,4.28,0,0,1,40.12,51Zm9.79-3.88h-.12c-.06-.24-.11-.48-.17-.71a21.81,21.81,0,0,0-1-3.83,2.49,2.49,0,0,0-2.84-1.46,2.53,2.53,0,0,0-2,2.49c0,.38.24.85,0,1.1s-.77,0-1.17,0A2.52,2.52,0,0,0,40.1,47a2.63,2.63,0,0,0,2.25,2.83c1.27.34,2.56.61,4,.95l-1,.34a32.8,32.8,0,0,0-4,1.4,2.11,2.11,0,0,0-1.09,1.2c-.7,1.79.64,3.49,2.7,3.43.91,0,.91,0,.84.83a2.54,2.54,0,0,0,4.9,1.2,11.3,11.3,0,0,0,.55-2l.69-3a6.25,6.25,0,0,1,.46,1.43,21.27,21.27,0,0,0,1,3.76,2.52,2.52,0,0,0,4.82-1c0-1.14,0-1.14,1.16-1.15a2.53,2.53,0,0,0,2.48-1.93,2.5,2.5,0,0,0-1.34-2.84,5.53,5.53,0,0,0-1.38-.49l-4-.91c.81-.27,1.63-.44,2.43-.63a11.29,11.29,0,0,0,3.17-1,2.51,2.51,0,0,0-1.29-4.67,5.71,5.71,0,0,0-.83,0c-.36,0-.44-.1-.42-.43a6.62,6.62,0,0,0,0-1.09,2.48,2.48,0,0,0-2.09-2.19,2.38,2.38,0,0,0-2.57,1.36,17.25,17.25,0,0,0-.88,2.4C50.4,45.58,50.15,46.34,49.91,47.1Z"/><path d="M47,25.94c0,1.12.09.95-1,.95s-.89.16-.89-1.08c0-1-.12-.84,1.06-.84C47.1,25,47,24.83,47,25.94Z"/><path d="M48.91,25.89c0-1.09-.13-.92,1.05-.92,1,0,.87-.15.87,1s.12.89-1.14.9C48.91,26.9,48.91,26.89,48.91,25.89Z"/><path d="M54.68,25.94c0,1.12.1.95-1,.95s-.89.15-.89-1-.13-.9,1.06-.91C54.79,25,54.66,24.83,54.68,25.94Z"/></svg>