<svg xmlns="http://www.w3.org/2000/svg" viewBox="0 0 100 100"><defs><style>.a{fill:#e6e7e8;}.b,.c{fill:#fff;}.c,.d{stroke:#000;stroke-miterlimit:10;stroke-width:1.25px;}.d{fill:none;stroke-linecap:round;}</style></defs><title>iShop</title><path class="a" d="M27.86,61.09c2.3,10,11.34,16.13,23.6,16.13S72.76,71,75.06,61.09l0-.11H27.83Z"/><path class="b" d="M24.58,23.46a1.44,1.44,0,1,0-1.44,1.44A1.45,1.45,0,0,0,24.58,23.46Z"/><path class="b" d="M58.92,43.33a1.44,1.44,0,1,0,1.43,1.44A1.44,1.44,0,0,0,58.92,43.33Z"/><circle class="b" cx="46.59" cy="52.76" r="1.44"/><path class="b" d="M-.5-.5v101h101V-.5Zm20.93,24a2.71,2.71,0,1,1,2.71,2.71A2.71,2.71,0,0,1,20.43,23.46ZM37.88,54.91c-.14.11-.27.22-.4.31l-.08.08-8.47,0a9.6,9.6,0,0,1-.89-1l-.17-.18A7.08,7.08,0,0,1,26.13,50,24.13,24.13,0,0,0,23.71,41l-.5-1a1.34,1.34,0,0,1,.42-1.65l2.1-1.52a1.35,1.35,0,0,1,.82-.28,1.32,1.32,0,0,1,.9.35l.8.77A24.22,24.22,0,0,0,36,42.79a7,7,0,0,1,3.44,3A7.26,7.26,0,0,1,37.88,54.91Zm8.71.55a2.71,2.71,0,1,1,2.71-2.7A2.7,2.7,0,0,1,46.59,55.46Zm12.33-8a2.7,2.7,0,1,1,2.7-2.7A2.7,2.7,0,0,1,58.92,47.47ZM66,28.63c-.92,3.25-3.35,5.75-5.92,6.09a.65.65,0,0,0-.54.65v.14a1.46,1.46,0,0,1-1.44,1.54,1.44,1.44,0,0,1-1.44-1.35,1.28,1.28,0,0,1,.27-.92v-.12a.42.42,0,0,0,.07-.13V34.4a.3.3,0,0,0,0-.23.83.83,0,0,0,0-.12.44.44,0,0,0-.09-.11.73.73,0,0,0-.08-.09c-2.06-1.62-2.84-5.08-1.91-8.46.84-3,2.87-5.33,5.18-6.05a.63.63,0,0,0,.5-.64c0-.13,0-.25.07-.38A2.17,2.17,0,0,1,61.71,17a2.29,2.29,0,0,1,1.09-.27,2.23,2.23,0,0,1,.63.09A2.29,2.29,0,0,1,65,19.62a1.51,1.51,0,0,1-.11.22,1.49,1.49,0,0,0-.21.77.61.61,0,0,0,.13.39A8.94,8.94,0,0,1,66,28.63Zm8.56-3.39a2.71,2.71,0,1,1,2.71-2.71A2.72,2.72,0,0,1,74.56,25.24Z"/><path class="b" d="M74.56,21.09A1.44,1.44,0,1,0,76,22.53,1.45,1.45,0,0,0,74.56,21.09Z"/><path d="M51.33,51.59A1.58,1.58,0,0,1,50,50.81L41,35.32a4.82,4.82,0,0,1,1.47-6.44l.11-.07-.1-.09a7.42,7.42,0,0,1-1.95-2.4,9.62,9.62,0,0,1-.38-6.49.64.64,0,0,1,.57-.45h0a.65.65,0,0,1,.62.37s1,2.31,2.37,5l.35.68.18,0,0-.21a4.21,4.21,0,0,1,0-.51c-.27-3-.62-5.46-.62-5.48a.62.62,0,0,1,.63-.72.59.59,0,0,1,.4.15,9.64,9.64,0,0,1,3.12,5.71,7.4,7.4,0,0,1-.39,2.95l0,.13h.14A4.82,4.82,0,0,1,52.28,32L52.89,50a1.56,1.56,0,0,1-1.13,1.56,1.59,1.59,0,0,1-.43.06Zm-2.06-9.72a.63.63,0,0,1,.14,1.25l-2,.58,3.71,6.48a.29.29,0,0,0,.25.15.32.32,0,0,0,.22-.1.27.27,0,0,0,.09-.21l-.52-15-2.37.69a.75.75,0,0,1-.21,0,.63.63,0,0,1-.62-.49.6.6,0,0,1,.08-.47.58.58,0,0,1,.4-.28l2.68-.76-.05-1.65a3.54,3.54,0,0,0-1.5-2.76l-.15-.11h0a3.58,3.58,0,0,0-1.94-.57,3.72,3.72,0,0,0-1,.14l-2.29.66a.7.7,0,0,0-.19.06A3.55,3.55,0,0,0,41.79,34l0,.09,1.75-.5.21,0a.63.63,0,0,1,.62.49.66.66,0,0,1-.08.48.65.65,0,0,1-.4.28l-1.5.43,2,3.43,2-.57a.57.57,0,0,1,.18,0,.64.64,0,0,1,.62.47.64.64,0,0,1-.44.81l-1.68.48,1.71,2.77.08-.06.12-.06,2.09-.6ZM41,22.53a6.84,6.84,0,0,0,.64,3.21,6.65,6.65,0,0,0,2.23,2.42L44,28c-.44-.8-.91-1.68-1.45-2.76L42.41,25c-.44-.89-.87-1.75-1.22-2.5Zm4.11-1.14c.11.91.22,1.95.32,3.1s.18,2,.25,3.1l.18,0a6.8,6.8,0,0,0,.58-3.21,7,7,0,0,0-1.15-3.09Z"/><path d="M38.33,39.53a.67.67,0,0,1-.5-.24l-.49-.73a41.32,41.32,0,0,1-3.06-5.17c-1.49-.78-5-2.89-6-6.35-1.19-4.33,2.1-8.91,2.13-8.95a.61.61,0,0,1,.77-.25c.53.24,5.27,2.46,6.4,6.59,1,3.76-1.26,7.65-2,8.75l0,0,0,.05a37.72,37.72,0,0,0,2.74,4.56l.49.73a.63.63,0,0,1-.15.83.59.59,0,0,1-.39.13ZM31.7,23.68a.64.64,0,0,1,.61.48l.21.84a38.75,38.75,0,0,0,2.37,6.71l.08.18.09-.17c.83-1.46,2.11-4.31,1.38-6.95-.82-2.91-3.88-4.81-5.16-5.49l-.08,0-.05.08c-.75,1.24-2.41,4.44-1.6,7.33a8.89,8.89,0,0,0,3.5,4.47L33.2,31a41.19,41.19,0,0,1-1.92-5.71l-.2-.83a.63.63,0,0,1,.07-.48.67.67,0,0,1,.39-.29Z"/><path d="M51.46,78.48C36.48,78.48,26,69.22,26,56a.63.63,0,0,1,.63-.63h.58L26.92,55a8.36,8.36,0,0,1-2.07-5,23.07,23.07,0,0,0-2.3-8.45l-.49-1a2.54,2.54,0,0,1,0-2.25l0,0-2.22-2.88H19.8a2.58,2.58,0,0,1-.68.08H19a2.61,2.61,0,0,1-2-.9,2.42,2.42,0,0,1,1.91-3.91H19l0-.07a2.31,2.31,0,0,1,.25-.61,2.44,2.44,0,0,1,2.1-1.21,2.47,2.47,0,0,1,1.21.33,2.43,2.43,0,0,1,.88,3.32l0,.06,2.27,2.93.07,0a2.75,2.75,0,0,1,.81-.13,2.61,2.61,0,0,1,1.81.74l.79.77a23.13,23.13,0,0,0,7.33,4.83,8.31,8.31,0,0,1,4.05,3.51,8.51,8.51,0,0,1-1.07,10l-.14.16H65l-.57-.92-6.53-.9a.65.65,0,0,1-.46-.31.62.62,0,0,1,.22-.86l5.32-3.13v-.07c-.33-4.16-.17-10,2.44-14,4.53-7,15.75-7.74,15.86-7.74h0a.65.65,0,0,1,.64.41c0,.1,4,10.61-.51,17.66-2.62,4.05-7.81,6.58-11.71,8l-.06,0-.16,1.88h6.82a.64.64,0,0,1,.63.64C76.89,69.22,66.43,78.48,51.46,78.48ZM27.86,61.09c2.3,10,11.34,16.13,23.6,16.13S72.76,71,75.06,61.09l0-.11H27.83Zm-.57-4.39a22,22,0,0,0,.29,2.93v.08H75.32l0-.08a24.22,24.22,0,0,0,.29-2.93v-.1H27.28ZM69.52,32.62a12.1,12.1,0,0,0-3.09,3.17c-2.47,3.85-2.56,9.58-2.2,13.7a.63.63,0,0,1-.31.6l-3.84,2.26,0,.18,4.7.63a.61.61,0,0,1,.45.29l1.16,1.84,1.73,0L68.44,53v-.1a.5.5,0,0,1,0-.13,2,2,0,0,1,.15-.19l.11-.07.08-.05c3.89-1.38,9.05-3.84,11.51-7.68a11.67,11.67,0,0,0,1.59-4.1l0-.07-1.68-.68a29.39,29.39,0,0,1-9.3-6l-1.37-1.31Zm-43,4a1.35,1.35,0,0,0-.82.28l-2.1,1.52A1.34,1.34,0,0,0,23.21,40l.5,1A24.13,24.13,0,0,1,26.13,50a7.08,7.08,0,0,0,1.74,4.19l.17.18a9.6,9.6,0,0,0,.89,1l8.47,0,.08-.08c.13-.09.26-.2.4-.31a7.26,7.26,0,0,0,1.54-9.16,7,7,0,0,0-3.44-3,24.22,24.22,0,0,1-7.73-5.09l-.8-.77A1.32,1.32,0,0,0,26.55,36.58Zm54.22-7.9a26.7,26.7,0,0,0-10,3.13l-.11.06L71.82,33a27.86,27.86,0,0,0,9,5.72l1.42.58v-.13a26.53,26.53,0,0,0-1.31-10.39l0-.08ZM20.21,34l.1,0,.12.06.08.07L23,37.3l1.61-1.19L22.17,33a.65.65,0,0,1,0-.89,1.2,1.2,0,0,0,.34-.84,1.17,1.17,0,0,0-2.34.05.65.65,0,0,1-.38.64.7.7,0,0,1-.36.1.47.47,0,0,1-.17,0,1.06,1.06,0,0,0-.35,0,1.13,1.13,0,0,0-.73.25A1.17,1.17,0,0,0,18,33.85a1.52,1.52,0,0,0,1,.39,1.59,1.59,0,0,0,.74-.18l.19,0Z"/><path d="M66.93,46a.64.64,0,0,1-.59-.67,18.37,18.37,0,0,1,2.5-8.85.65.65,0,0,1,.54-.29.61.61,0,0,1,.34.1.63.63,0,0,1,.19.86,17.31,17.31,0,0,0-2.3,8.26A.63.63,0,0,1,67,46Z"/><path d="M75.66,33.69a1,1,0,0,1-.83-1.54,1,1,0,0,1,.84-.46,1.06,1.06,0,0,1,.54.16,1,1,0,0,1,.29,1.38A1,1,0,0,1,75.66,33.69Z"/><path d="M58.06,38.44a2.71,2.71,0,0,1-2.44-1.53,2.66,2.66,0,0,1-.12-2.07,2.12,2.12,0,0,1,.11-.21l0-.07,0-.05c-2.17-2.1-2.91-5.78-1.91-9.39a10,10,0,0,1,5.66-6.79.41.41,0,0,0,.11-.3,3.43,3.43,0,0,1,1.67-2.1,3.52,3.52,0,0,1,1.73-.45A3.51,3.51,0,0,1,66.25,20a2.57,2.57,0,0,1-.2.45l0,0,0,.05a10.24,10.24,0,0,1,1.16,8.42c-1,3.52-3.48,6.23-6.36,6.9h-.06v.07a2.32,2.32,0,0,1-.07.38,1.58,1.58,0,0,1-.09.31,2.72,2.72,0,0,1-2.56,1.83ZM62.8,16.72a2.29,2.29,0,0,0-1.09.27,2.17,2.17,0,0,0-1.06,1.33c0,.13,0,.25-.07.38a.63.63,0,0,1-.5.64c-2.31.72-4.34,3.09-5.18,6.05-.93,3.38-.15,6.84,1.91,8.46a.73.73,0,0,1,.08.09.44.44,0,0,1,.09.11.83.83,0,0,1,0,.12.3.3,0,0,1,0,.23v.13a.42.42,0,0,1-.07.13v.12a1.28,1.28,0,0,0-.27.92,1.44,1.44,0,0,0,1.44,1.35,1.46,1.46,0,0,0,1.44-1.54v-.14a.65.65,0,0,1,.54-.65c2.57-.34,5-2.84,5.92-6.09A8.94,8.94,0,0,0,64.82,21a.61.61,0,0,1-.13-.39,1.49,1.49,0,0,1,.21-.77,1.51,1.51,0,0,0,.11-.22,2.3,2.3,0,0,0-1.58-2.81A2.23,2.23,0,0,0,62.8,16.72Z"/><path d="M56.87,31.6a.63.63,0,0,1-.62-.5,11.39,11.39,0,0,1,2.63-9.55.64.64,0,0,1,.9-.05.63.63,0,0,1,0,.89,10.1,10.1,0,0,0-2.33,8.46.65.65,0,0,1-.5.75Z"/><path d="M73.59,24.27a2.71,2.71,0,1,1,2.71-2.71,2.72,2.72,0,0,1-2.71,2.71Zm0-4.15A1.44,1.44,0,1,0,75,21.56,1.45,1.45,0,0,0,73.59,20.12Z"/><path d="M57.94,46.5a2.71,2.71,0,0,1,0-5.41,2.71,2.71,0,1,1,0,5.41Zm0-4.14a1.44,1.44,0,1,0,1.44,1.44A1.44,1.44,0,0,0,57.94,42.36Z"/><path d="M45.62,54.49a2.71,2.71,0,1,1,2.71-2.7A2.7,2.7,0,0,1,45.62,54.49Zm0-4.14a1.44,1.44,0,1,0,1.44,1.44A1.44,1.44,0,0,0,45.62,50.35Z"/><path d="M22.17,25.2a2.71,2.71,0,1,1,0-5.41,2.71,2.71,0,0,1,0,5.41Zm0-4.15a1.44,1.44,0,1,0,1.44,1.44A1.44,1.44,0,0,0,22.17,21.05Z"/><path d="M33.69,64.79a.66.66,0,0,1-.53-.28c-.26-.39-.5-.78-.72-1.18a.64.64,0,0,1,.23-.87.69.69,0,0,1,.32-.08.65.65,0,0,1,.55.32c.22.37.44.74.68,1.1a.63.63,0,0,1,.09.48.6.6,0,0,1-.27.4A.61.61,0,0,1,33.69,64.79Z"/><path d="M41.83,71.88a.59.59,0,0,1-.32-.09c-.48-.26-.87-.48-1.46-.83a19.05,19.05,0,0,1-1.7-1.12,21,21,0,0,1-2.65-2.25l-.25-.25a7.54,7.54,0,0,1-.55-.59.68.68,0,0,1-.15-.47.63.63,0,0,1,.63-.58.65.65,0,0,1,.49.23,5.34,5.34,0,0,0,.46.5l.27.26a20.07,20.07,0,0,0,2.49,2.12c.53.39,1.16.8,1.6,1.06s.81.46,1.23.68h0l.19.1a.74.74,0,0,1,.37.43.65.65,0,0,1-.62.79Z"/><path d="M30,53.92a.64.64,0,0,1-.46-.21,8.22,8.22,0,0,1-2.08-5,23.46,23.46,0,0,0-.54-3.54.63.63,0,0,1,.47-.76l.15,0a.63.63,0,0,1,.61.49,24.86,24.86,0,0,1,.58,3.74,7,7,0,0,0,1.74,4.22.62.62,0,0,1,0,.89.63.63,0,0,1-.43.17Z"/><path class="a" d="M27.86,61.09c2.3,10,11.34,16.13,23.6,16.13S72.76,71,75.06,61.09l0-.11H27.83Z"/><path d="M26.93,43.42a.65.65,0,0,1-.6-.43c-.14-.41-.29-.82-.45-1.22A.64.64,0,0,1,26.2,41a.67.67,0,0,1,.28-.06.64.64,0,0,1,.57.36c.17.42.33.85.47,1.28a.6.6,0,0,1,0,.49.58.58,0,0,1-.36.31h0A.69.69,0,0,1,26.93,43.42Z"/><circle class="c" cx="66.38" cy="74.21" r="10.31"/><polyline class="d" points="61.03 74.21 64.1 77.45 71.73 70.98"/></svg>