<svg xmlns="http://www.w3.org/2000/svg" viewBox="0 0 100 100"><defs><style>.a{fill:#fff;}.b{fill:#e6e7e8;}.b,.c{stroke:#000;stroke-linecap:round;stroke-miterlimit:10;stroke-width:1.3px;}.c{fill:none;}</style></defs><title>iShop</title><path d="M31.89,64.16H24a.88.88,0,0,1,0-1.76h7.9a.88.88,0,1,1,0,1.76"/><path d="M32.43,68.14H24a.88.88,0,0,1,0-1.76h8.44a.88.88,0,1,1,0,1.76"/><path d="M35.81,72.41H24a.88.88,0,1,1,0-1.75H35.81a.88.88,0,1,1,0,1.75"/><path class="a" d="M-.5-.5v101h101V-.5ZM50.88,45.56,23.62,45s-1.65-7.86,7.63-8c0,0,3.55,1,4.43,3a5.17,5.17,0,0,1,6.93-.27l6-10.34,3.15-2.08,1,1.65,1.68-2.63s3.73-.74,4.21,8.36Z"/><path d="M51.61,60.57H42.7a8.31,8.31,0,0,1-8.3-8.31V45.85a.88.88,0,0,1,1.76,0v6.41a6.55,6.55,0,0,0,6.54,6.55h8.91a6.56,6.56,0,0,0,6.55-6.55V45.91a.88.88,0,1,1,1.76,0v6.35a8.32,8.32,0,0,1-8.31,8.31"/><path d="M51.17,56.17h-8a4.71,4.71,0,0,1-4.71-4.71V46a.88.88,0,0,1,1.75,0v5.44a3,3,0,0,0,3,2.95h8a3,3,0,0,0,2.95-2.95V45.91a.88.88,0,1,1,1.76,0v5.55a4.71,4.71,0,0,1-4.71,4.71"/><path d="M70.33,45.83a.9.9,0,0,1-.54-.18.88.88,0,0,1-.16-1.23c12.1-16,7.54-20.44,7.49-20.49C71,20.19,57,38.1,52.1,45.32a.88.88,0,1,1-1.45-1c1.89-2.8,18.72-27.22,27.5-21.82.74.59,6,5.68-7.12,23a.89.89,0,0,1-.7.35"/><path d="M23.82,45.92a.88.88,0,0,1-.86-.68,7.53,7.53,0,0,1-.19-1.71A7.41,7.41,0,1,1,37.43,45a.88.88,0,0,1-1.72-.36,6.12,6.12,0,0,0,.11-1.14,5.65,5.65,0,1,0-11.29,0,5.79,5.79,0,0,0,.15,1.31.87.87,0,0,1-.66,1,.69.69,0,0,1-.2,0"/><path d="M44.75,45.92h-.13a.89.89,0,0,1-.74-1,4.91,4.91,0,0,0,0-.67,5.17,5.17,0,0,0-5.4-4.89,5.84,5.84,0,0,0-2.85.73.87.87,0,0,1-1.19-.34.88.88,0,0,1,.33-1.2,7.67,7.67,0,0,1,3.71-.95,6.92,6.92,0,0,1,7.16,6.65,5.53,5.53,0,0,1-.07.92.87.87,0,0,1-.87.75"/><path d="M26.3,44.34a.87.87,0,0,1-.87-.76A5.32,5.32,0,0,1,27.17,39a.88.88,0,0,1,1.11,1.36,3.64,3.64,0,0,0-1.11,3,.88.88,0,0,1-.76,1H26.3"/><path d="M42.52,44.7a.88.88,0,0,1-.87-.75,3,3,0,0,0-2-2.4.88.88,0,0,1,.5-1.69,4.82,4.82,0,0,1,3.26,3.84.87.87,0,0,1-.74,1h-.13"/><path d="M27.46,38.31a.87.87,0,0,1-.84-.62,13.51,13.51,0,0,0-2.31-4.17.88.88,0,1,1,1.31-1.18,14.71,14.71,0,0,1,2.67,4.83.88.88,0,0,1-.57,1.1,1.27,1.27,0,0,1-.26,0"/><path d="M27.63,37.94a.53.53,0,0,1-.32-.1.56.56,0,0,1-.15-.8l.3-.45-.5-.08a.57.57,0,0,1-.55-.6A3.9,3.9,0,0,1,28,32.85a2.69,2.69,0,0,1,1.39-.36,5.48,5.48,0,0,1,2.46.7l1.27.65-1.36.42c-1.65.51-2.68,2-3.51,3.24l-.13.19A.57.57,0,0,1,27.63,37.94Zm1.71-4.29a1.43,1.43,0,0,0-.76.2,2.26,2.26,0,0,0-.92,1.48l.53.25a9.05,9.05,0,0,1,1.34-1.4l.68-.55Z"/><path d="M21,38.84c.84-2.37,2-3.72,3.34-4a2.48,2.48,0,0,1,.54-.06,3.85,3.85,0,0,1,2.51,1.16.59.59,0,0,1,.08.68l-.21.38.54.08a.58.58,0,0,1-.07,1.15,12.63,12.63,0,0,0-1.54-.1,6.25,6.25,0,0,0-4.25,1.33L20.2,41.05Zm3.88-2.9a1.63,1.63,0,0,0-.31,0,2.25,2.25,0,0,0-1.21.83l-.61.73.92-.25A9.53,9.53,0,0,1,26,37h.89l-.72-.53A2.28,2.28,0,0,0,24.86,35.94Z"/><path d="M42.82,41a.87.87,0,0,1-.35-.07A.89.89,0,0,1,42,39.73c.19-.45,4.77-11,9.31-12.93l1-.44.21,1.08a1.81,1.81,0,0,0,.09.31,7.4,7.4,0,0,0,1-1.72l.2-.44.47-.07a3.55,3.55,0,0,1,2.81,1c1.68,1.5,2.43,4.44,2.24,8.75a.89.89,0,0,1-.91.84.87.87,0,0,1-.84-.92c.2-4.61-.77-6.53-1.62-7.32a2.1,2.1,0,0,0-1-.55c-.65,1.33-1.45,2.53-2.58,2.39a1.61,1.61,0,0,1-1.15-.82c-3.06,2.16-6.46,8.92-7.59,11.56a.88.88,0,0,1-.81.53"/><path d="M55.72,39a2.1,2.1,0,0,1-1-.24,2.78,2.78,0,0,1-1.1-1A1.49,1.49,0,0,1,52.3,38a2.61,2.61,0,0,1-1.42-2.14,2.92,2.92,0,0,1-2.33.08c-1.87-.78-2.28-3.47-2.32-3.77A.88.88,0,1,1,48,32c.07.51.46,2.06,1.26,2.39.56.23,1.33-.21,1.88-.63l1.56-1.17-.15,1.95a4.46,4.46,0,0,0,.27,1.68,3.32,3.32,0,0,0,.44-.63l1.35-2.29.28,2.65a1.68,1.68,0,0,0,.7,1.32.29.29,0,0,0,.22,0,.88.88,0,1,1,.87,1.52,1.83,1.83,0,0,1-.93.25"/><path d="M55.33,34.92a.87.87,0,0,1-.79-.49l-1.67-3.36a.88.88,0,1,1,1.57-.78l1.67,3.36a.88.88,0,0,1-.39,1.18.92.92,0,0,1-.39.09"/><path d="M52.63,34.39a.88.88,0,0,1-.42-1.66l3.66-2a.88.88,0,1,1,.83,1.55l-3.65,2a.94.94,0,0,1-.42.11"/><path d="M71.05,39c-1.45,0-2.6-2.88-3.17-4.69-.29-.9-1.17-3.93-.52-5.19a1.18,1.18,0,0,1,.71-.62c1.09-.35,1.89,1,2.15,1.44a16.05,16.05,0,0,1,1.37,3.19c.62,2,1.42,5.3-.2,5.82a1,1,0,0,1-.34,0M69,31.31a17.28,17.28,0,0,0,.59,2.47,15.85,15.85,0,0,0,1,2.36,15.49,15.49,0,0,0-.59-2.47,14.84,14.84,0,0,0-1-2.36"/><path d="M66.82,43.82c-.9,0-1.56-1.11-1.79-1.5a16.05,16.05,0,0,1-1.37-3.19c-.62-2-1.42-5.31.19-5.82,1.08-.34,1.89,1,2.15,1.45a15.69,15.69,0,0,1,1.37,3.18c.62,2,1.42,5.31-.19,5.82a1.13,1.13,0,0,1-.36.06m-2.07-7.7a14.47,14.47,0,0,0,.59,2.47A14.94,14.94,0,0,0,66.28,41a14.47,14.47,0,0,0-.59-2.47,16,16,0,0,0-.94-2.36"/><path d="M63,45.75a.89.89,0,0,1-.86-.67c-.1-.42-.22-.85-.36-1.3a16,16,0,0,0-.94-2.36,15.31,15.31,0,0,0,.58,2.47c.07.22.14.43.22.63a.88.88,0,0,1-.54,1.12A.87.87,0,0,1,60,45.11c-.08-.22-.16-.45-.23-.68-.62-2-1.42-5.3.19-5.82s2.9,2.69,3.52,4.64c.15.49.29,1,.39,1.42a.88.88,0,0,1-.65,1.06.68.68,0,0,1-.2,0"/><path class="b" d="M79.43,64.56c0,4.7-7.41,13.19-7.41,13.19s-7.42-8-7.42-13.19a7.42,7.42,0,1,1,14.83,0Z"/><circle class="c" cx="72.02" cy="64.56" r="3.8"/><path d="M67.13,77.1h-40a3,3,0,0,1-3-3V45.83H71.14v8.5H72.3V44.67H22.93V74.11a4.15,4.15,0,0,0,4.15,4.15H67.13Z"/></svg>