<svg xmlns="http://www.w3.org/2000/svg" viewBox="0 0 100 100"><defs><style>.a{fill:#fff;}.b{fill:#e6e7e8;}</style></defs><title>iShop</title><path class="a" d="M-.56-.5v101h101V-.5Zm48.9,26.61a2.61,2.61,0,0,1,3.55.36A2.63,2.63,0,0,1,52,30c-.7.8-1.52,1.5-2.29,2.24L46,28.62A27.61,27.61,0,0,1,48.34,26.11Zm-5.41,5.15A28.61,28.61,0,0,1,45.35,29l3.77,3.73a28.92,28.92,0,0,1-2.7,2.45,2.67,2.67,0,0,1-3.49-3.9ZM30.13,44.57a3.46,3.46,0,0,1-3.3,2.62,3.86,3.86,0,0,1-4.08-2,2.75,2.75,0,0,1-.36-1.09c0-1.29,0-2.57,0-3.89h8A34.52,34.52,0,0,1,30.13,44.57ZM39,44.48a3.74,3.74,0,0,1-3.69,3.16,4,4,0,0,1-4.24-2.14,3.59,3.59,0,0,1-.42-1.5c-.06-1.23,0-2.46,0-3.77H39A33.4,33.4,0,0,1,39,44.48Zm16.83.23a3.69,3.69,0,0,1-3.54,2.9c-1.86.12-3.41-.37-4.31-2.11a4.34,4.34,0,0,1-.37-1.24c0,.1,0,.2,0,.29a3.71,3.71,0,0,1-3.66,3.09,4,4,0,0,1-4.23-2.13A3.59,3.59,0,0,1,39.26,44c-.06-1.23,0-2.46,0-3.79H56.05A38.94,38.94,0,0,1,55.81,44.71Zm8.4.51a3.7,3.7,0,0,1-3.38,2.41c-1.85.14-3.4-.34-4.33-2.08a3.37,3.37,0,0,1-.42-1.36c-.06-1.3,0-2.59,0-4h8.48C64.42,41.91,64.85,43.61,64.21,45.22Zm8.45-.13a3.59,3.59,0,0,1-3.29,2.34,4,4,0,0,1-4.22-2,3.36,3.36,0,0,1-.4-1.33c-.06-1.26,0-2.52,0-3.85H73C72.87,41.86,73.28,43.52,72.66,45.09Z"/><path class="a" d="M25.26,48.73a5.37,5.37,0,0,0,5.15-1.91,5.36,5.36,0,0,0,4.29,2,5.3,5.3,0,0,0,4.23-1.93c3.13,2.65,5.51,2.65,8.59,0a5.61,5.61,0,0,0,8.5,0,5.6,5.6,0,0,0,8.53,0,5.42,5.42,0,0,0,5.17,1.91v4h-17c-1.13,0-1.45.33-1.45,1.47V68.32c0,1.13.33,1.45,1.46,1.45h17v5.37H47.07V54.26c0-1.25-.29-1.55-1.52-1.55H30.31c-1.25,0-1.55.3-1.55,1.52V75.15h-3.5Z"/><path d="M45.19,36.41a3.68,3.68,0,0,1-2.6-1.09,3.48,3.48,0,0,1-.25-4.73c1.54-1.66,3.19-3.27,4.8-4.82l.5-.49a3.29,3.29,0,0,1,2.26-.78,3.53,3.53,0,0,1,3.21,2.15,3.22,3.22,0,0,1-.49,3.68c-1.69,1.84-3.46,3.61-5.26,5.26A3.2,3.2,0,0,1,45.19,36.41ZM45,29.54l-.54.48a14,14,0,0,0-1.31,1.26,2.41,2.41,0,0,0,.12,3.19,2.55,2.55,0,0,0,1.89.87,2.1,2.1,0,0,0,1.27-.41,13.61,13.61,0,0,0,1.5-1.32l.57-.54.38-.36-3.53-3.5Zm4.81-4a2.25,2.25,0,0,0-1.45.53,12.51,12.51,0,0,0-1.29,1.34c-.16.19-.33.39-.5.57l-.32.35,3.42,3.41.35-.34.53-.5a16.84,16.84,0,0,0,1.2-1.19,2.44,2.44,0,0,0-.06-3.33A2.59,2.59,0,0,0,49.81,25.56Z"/><path d="M34.78,67.87c-.31,0-.51-.27-.52-.66,0-1,0-2,0-3V59a1.9,1.9,0,0,1,.07-.49.42.42,0,0,1,.46-.31.45.45,0,0,1,.48.31,1.42,1.42,0,0,1,.06.44c0,2.73,0,5.47,0,8.2,0,.61-.26.69-.36.73A.63.63,0,0,1,34.78,67.87Z"/><path d="M34.79,71.82a.53.53,0,0,1-.37-.17.47.47,0,0,1-.15-.36.54.54,0,0,1,.53-.51.55.55,0,0,1,.38.16.53.53,0,0,1,.15.36.56.56,0,0,1-.53.52Z"/><path d="M41.66,65.52a.59.59,0,0,1-.37-.18.5.5,0,0,1-.15-.36.53.53,0,1,1,.53.54Z"/><path class="b" d="M63.69,70.05,64.13,69l-.65-1.42,1.33-1.31,1.58.66,1-.49L67.7,65h2.2l.36,1.3,1.39.62,1-.72,1.49,1.45-.63,1.32L74,70.05l1.42.59v1.77L74,72.92l-.4,1.32.5,1.17-1.2,1.35-1.18-.54-1.53.43A11.44,11.44,0,0,1,69.94,78a2.32,2.32,0,0,1-2.2-.19l-.35-.93-1.22-.59L65,76.76l-1.65-1.42.75-1.18-.3-1.22-1.53-.38-.12-2,.73-.41Z"/><path d="M61.51,64.63c-.34,0-.4-.31-.4-.49,0-.47,0-.94,0-1.42V61.66H58.65c-.16,0-.54,0-.54-.43s.26-.41.5-.42h2.5v-1c0-.49,0-1,0-1.44,0-.31.16-.51.39-.51a.4.4,0,0,1,.15,0c.07,0,.29.08.3.51s0,.93,0,1.42v1h2.47c.23,0,.51.09.51.42s-.27.42-.5.42H62v1c0,.48,0,.94,0,1.4s-.27.52-.36.53Z"/><path d="M61.78,70.9l0-.07a1.31,1.31,0,0,1,1.27-1c.3,0,.3,0,.41-.29s.13-.32.21-.48a.15.15,0,0,0,0-.21,1.36,1.36,0,0,1-.48-.79,1.21,1.21,0,0,1,.3-1.11c.23-.25.47-.49.71-.72a1.27,1.27,0,0,1,1.79,0c.18.18.32.23.54.09A2.08,2.08,0,0,1,67,66.1c.08,0,.1-.06.1-.15a2.27,2.27,0,0,1,0-.45,1.28,1.28,0,0,1,1.23-1,7.46,7.46,0,0,1,1.16,0,1.24,1.24,0,0,1,1.07,1.21c0,.27,0,.43.34.48a1,1,0,0,1,.28.12l.31.14a3.08,3.08,0,0,1,.24-.27,1.28,1.28,0,0,1,1.73,0c.24.22.47.45.7.69a1.29,1.29,0,0,1,0,1.83c-.2.22-.2.21-.08.48s.14.34.2.52a.14.14,0,0,0,.15.11,1.39,1.39,0,0,1,.85.17,1.27,1.27,0,0,1,.64,1.1,8.5,8.5,0,0,1,0,1.13,1.27,1.27,0,0,1-1.25,1.09c-.11,0-.24,0-.32,0s-.08.18-.12.28-.13.32-.21.47a.15.15,0,0,0,0,.2,1.38,1.38,0,0,1,.48.8,1.26,1.26,0,0,1-.3,1.1c-.22.25-.46.48-.7.71a1.29,1.29,0,0,1-1.82,0c-.22-.21-.22-.2-.5-.08l-.52.2c-.07,0-.09.06-.1.14a2.37,2.37,0,0,1,0,.53,1.29,1.29,0,0,1-1,.94l-.08,0H68.23l-.13,0a1.33,1.33,0,0,1-.8-.61,1.46,1.46,0,0,1-.18-.84c0-.09,0-.13-.11-.16a5.1,5.1,0,0,1-.5-.19c-.09,0-.19-.13-.27-.11s-.16.13-.24.2a1.29,1.29,0,0,1-1.8,0c-.24-.23-.48-.47-.71-.71a1.24,1.24,0,0,1-.3-1.12,1.28,1.28,0,0,1,.41-.72c.16-.16.15-.16.06-.35l-.18-.42c-.1-.28-.1-.28-.39-.28a1.3,1.3,0,0,1-1.28-1.05l0-.06Zm7.09-5.61c-.14,0-.28,0-.43,0a.46.46,0,0,0-.49.48v.57a.41.41,0,0,1-.33.44,5.51,5.51,0,0,0-1.23.51.41.41,0,0,1-.55-.08l-.4-.39a.47.47,0,0,0-.7,0l-.59.6a.47.47,0,0,0,0,.7c.12.13.25.25.38.38a.41.41,0,0,1,.08.57,5.07,5.07,0,0,0-.5,1.21.42.42,0,0,1-.44.34H63.1a.47.47,0,0,0-.49.49V72a.48.48,0,0,0,.48.49h.58a.41.41,0,0,1,.44.33,5,5,0,0,0,.5,1.23.4.4,0,0,1-.08.56l-.39.39a.47.47,0,0,0,0,.69c.2.21.4.41.61.61a.47.47,0,0,0,.69,0l.38-.38a.43.43,0,0,1,.59-.09,5.18,5.18,0,0,0,1.19.5.42.42,0,0,1,.35.46v.56a.48.48,0,0,0,.49.48h.85a.48.48,0,0,0,.5-.49v-.52a.43.43,0,0,1,.36-.5,5,5,0,0,0,1.17-.48.43.43,0,0,1,.6.08l.37.37a.47.47,0,0,0,.7,0c.21-.19.4-.39.6-.59a.48.48,0,0,0,0-.71l-.38-.38a.41.41,0,0,1-.08-.57,5.33,5.33,0,0,0,.5-1.21.41.41,0,0,1,.44-.34h.57a.48.48,0,0,0,.49-.49v-.86a.47.47,0,0,0-.48-.48h-.57a.41.41,0,0,1-.45-.33,5.22,5.22,0,0,0-.5-1.22.39.39,0,0,1,.07-.55l.4-.41a.47.47,0,0,0,0-.69l-.61-.6a.46.46,0,0,0-.69,0c-.13.12-.26.25-.38.38a.43.43,0,0,1-.59.08,5.25,5.25,0,0,0-1.2-.5.41.41,0,0,1-.34-.45c0-.19,0-.38,0-.57a.47.47,0,0,0-.49-.47C69.16,65.28,69,65.29,68.87,65.29Z"/><path d="M65.79,71.54a3.08,3.08,0,1,1,3.07,3.08A3.07,3.07,0,0,1,65.79,71.54Zm5.33,0a2.25,2.25,0,1,0-2.25,2.25A2.25,2.25,0,0,0,71.12,71.54Z"/><path d="M23.19,75.66a3.46,3.46,0,0,1-.46,0h-.39c-.52,0-.79,0-1,.36v.72h41l-.05-1.12H46.57V54.26c0-1-.07-1-1-1H30.31c-1,0-1,.07-1,1V75.66H24.76V48.17l.56.07a8.38,8.38,0,0,0,.86,0A4.65,4.65,0,0,0,30,46.5L30.4,46l.4.46a4.85,4.85,0,0,0,3.9,1.8,4.77,4.77,0,0,0,3.84-1.76l.33-.38.38.32a6.35,6.35,0,0,0,4,1.87,6.21,6.21,0,0,0,3.95-1.86l.39-.33.32.38a5.1,5.1,0,0,0,7.73,0l.39-.45.38.45a4.87,4.87,0,0,0,3.88,1.79,4.73,4.73,0,0,0,3.89-1.8l.39-.46.38.47a4.68,4.68,0,0,0,3.85,1.78,6.53,6.53,0,0,0,.87-.05l.56-.06v5H52.69c-.85,0-.95.09-.95,1V68.32c0,.85.1,1,1,1h8.23L61,68.16h-8.2V54.32H70.22v9h1.11V48.42a1.28,1.28,0,0,1,.54-1.12A4.18,4.18,0,0,0,73.6,44c0-3.59,0-7.28,0-11.27A2.53,2.53,0,0,0,71,30.13l-3.78,0-4.8,0c-.28,0-.63.09-.64.52a.49.49,0,0,0,.13.37.74.74,0,0,0,.52.17h8.17c1.37,0,1.93.56,1.93,1.94v6.31H23l-.48-.12,0-.47c0-.11,0-.23,0-.34V33.06c0-1.27.59-1.86,1.85-1.86H36.56a1.66,1.66,0,0,0,.56-.06.51.51,0,0,0,0-.95,2.24,2.24,0,0,0-.58-.05H24.78c-2.12,0-2.65.33-3.42,2.2v12a1.36,1.36,0,0,1,.11.29,4.68,4.68,0,0,0,1.69,2.7,1.36,1.36,0,0,1,.49,1q0,11.57,0,23.11v4.19Zm7.17-21.34H45.45V75.65H30.36ZM65.12,40.58h7.46l0,.53a9.61,9.61,0,0,0,0,1.2,6.48,6.48,0,0,1-.29,2.74,3.29,3.29,0,0,1-3,2.14l-.49,0a3.45,3.45,0,0,1-3.28-1.86,3,3,0,0,1-.38-1.25c0-.71,0-1.42,0-2.15Zm-8.53,0h7.47l0,.53a10.1,10.1,0,0,0,0,1.23,6.49,6.49,0,0,1-.29,2.71,3.29,3.29,0,0,1-3,2.14l-.49,0A3.45,3.45,0,0,1,57,45.35a3,3,0,0,1-.38-1.25c0-.71,0-1.42,0-2.15ZM48,41.92V40.59h7.52l0,.52c0,.35,0,.69,0,1a15.34,15.34,0,0,1-.16,2.43,3.3,3.3,0,0,1-3.15,2.61l-.43,0h0a3.44,3.44,0,0,1-3.31-1.89,3.59,3.59,0,0,1-.39-1.44C48,43.23,48,42.59,48,41.92Zm-8.52,0V40.56h7.37v.51c0,.34,0,.68,0,1a14,14,0,0,1-.06,2.33,3.29,3.29,0,0,1-3.25,2.78h-.37a3.45,3.45,0,0,1-3.32-1.9A3.29,3.29,0,0,1,39.53,44C39.49,43.3,39.5,42.63,39.51,41.94Zm-8.54,0V40.58h7.38v.51c0,.33,0,.66,0,1a14.67,14.67,0,0,1-.06,2.29,3.34,3.34,0,0,1-3.26,2.83h-.37a3.45,3.45,0,0,1-3.32-1.9A3.57,3.57,0,0,1,31,44C31,43.29,31,42.62,31,41.93Zm-8.13,3.4a2.51,2.51,0,0,1-.34-1.1c0-.75,0-1.5,0-2.26V40.59H30l0,.53c0,.35,0,.71,0,1.06a16.28,16.28,0,0,1-.19,2.5,3.29,3.29,0,0,1-3.12,2.51l-.44,0A3.48,3.48,0,0,1,22.84,45.33Z"/></svg>