<svg xmlns="http://www.w3.org/2000/svg" viewBox="0 0 100 100"><defs><style>.a{fill:#fff;}.b{fill:#e6e7e8;}</style></defs><title>iShop</title><path class="a" d="M-.5-.5v101h101V-.5ZM28.62,75.67H19.67V50h9Z"/><path d="M81.13,32.78a4.35,4.35,0,0,0-2.78-4.32c-4-1.69-8.12-3.31-12.18-5H65a.28.28,0,0,1-.09.07c-1.93.76-7.68,3.07-10.32,4.15h0c-.49.18-1,.4-1.46.6A4.57,4.57,0,0,0,50,32.94V49.75H46.25a1.56,1.56,0,0,1,0-.26,21.39,21.39,0,0,0-.42-12.79,3.53,3.53,0,0,0-4.11-2.41,3.61,3.61,0,0,0-2.86,3.76,18.73,18.73,0,0,1-.38,3.67A9,9,0,0,1,35,46.57L29.7,50.71s-.1,0-.21,0v-.57c0-1.18-.23-1.4-1.43-1.4-2.64,0-5.27,0-7.91,0a1.34,1.34,0,0,0-1.28.62V75.9a1.4,1.4,0,0,0,1.29.6c2.7,0,5.39,0,8.09,0,.94,0,1.23-.29,1.24-1.23v-2a7.18,7.18,0,0,1,4.07,1.31,5.36,5.36,0,0,0,3.35,1.07c5,0,10.09,0,15.13,0a4.17,4.17,0,0,1,.78.1,16,16,0,0,0,2.25.37c5.15,0,10.3,0,15.45,0a4.87,4.87,0,0,0,.54,0,.89.89,0,0,0,.18-1.73,2.91,2.91,0,0,0-.78-.08H55.69a4.07,4.07,0,0,0,0-5.08,4.06,4.06,0,0,0,1.16-6.14,4,4,0,0,0,1.87-2.77,4,4,0,0,0-.88-3.21,4.19,4.19,0,0,0,2-3.2,3.94,3.94,0,0,0-3.9-4.16c-1.35,0-2.7,0-4.09,0,0-.18,0-.29,0-.41,0-5.55,0-11.1,0-16.65a2.72,2.72,0,0,1,1.74-2.62c.55-.25,1.13-.45,1.67-.71l.09-.05c2.12-.86,7.33-3,8.7-3.61a3.59,3.59,0,0,1,3,0c3.45,1.45,6.91,2.88,10.36,4.32a2.88,2.88,0,0,1,1.94,2.92q0,19.2,0,38.4a2.82,2.82,0,0,1-3,3c-.46,0-.93,0-1.4,0a.89.89,0,0,0-.88,1,.87.87,0,0,0,.93.84c.46,0,.93,0,1.39,0a4.62,4.62,0,0,0,4.78-4.8Q81.13,52.07,81.13,32.78ZM54.82,51.59h1A2.13,2.13,0,0,1,58,53.68a2.1,2.1,0,0,1-2.13,2.12c-1.17,0-2.35,0-3.52,0-.69,0-1.08.33-1.1.87s.4.94,1.09,1,1.66,0,2.49,0a2.09,2.09,0,1,1,0,4.17H52.47c-.76,0-1.19.34-1.21.9s.42.92,1.18.92c.48,0,1,0,1.46,0a2.1,2.1,0,0,1,0,4.2c-.87,0-1.74,0-2.61,0-.63,0-1,.34-1.05.86a1,1,0,0,0,1,1c.51,0,1,0,1.52,0a2.08,2.08,0,0,1,0,4.15,4.87,4.87,0,0,1-.54,0H36.87a3.59,3.59,0,0,1-2.25-.73,8.52,8.52,0,0,0-4.4-1.59c-.62-.05-.75-.27-.75-.85,0-3.12,0-6.24,0-9.36a5,5,0,0,0,0-.67.83.83,0,0,0-.87-.76.82.82,0,0,0-.87.69,3.44,3.44,0,0,0-.06.72V74.63H20.72v-24h6.91c0,.24,0,.45,0,.67v5a3.37,3.37,0,0,0,0,.55.89.89,0,0,0,.95.88.86.86,0,0,0,.85-.93c0-.93,0-1.86,0-2.79a1.38,1.38,0,0,1,.34-.85c1.69-1.45,3.42-2.85,5.12-4.29a39.74,39.74,0,0,0,3-2.64,10.4,10.4,0,0,0,2.77-7.91,3.63,3.63,0,0,1,.11-1.14A1.68,1.68,0,0,1,42.48,36,1.7,1.7,0,0,1,44.1,37.2a19.35,19.35,0,0,1,.15,12.64l-.09.23c-.36,1,0,1.52,1.05,1.52Z"/><path d="M66.05,61.82v1.74c0,.72-.33,1.12-.9,1.13s-.91-.4-.92-1.11c0-.54,0-1.09,0-1.64,0,0,0-.07,0-.14A3.44,3.44,0,0,1,61,59.09a3.07,3.07,0,0,1-.07-.6.89.89,0,0,1,.85-1,.91.91,0,0,1,1,.87,1.57,1.57,0,0,0,1.83,1.57c.47,0,.93,0,1.4,0a1.22,1.22,0,0,0,1.27-.77,8.93,8.93,0,0,0,.15-2.37c0-.2-.43-.46-.71-.56-1.18-.42-2.38-.79-3.58-1.17a2.75,2.75,0,0,1-2.18-3c0-.49,0-1,0-1.46a3.05,3.05,0,0,1,3-3.15l.33,0c0-.6,0-1.2,0-1.8s.32-1.06.88-1.08.93.38.94,1.09,0,1.17,0,1.76a10.26,10.26,0,0,1,1.1.21,3.07,3.07,0,0,1,2.18,2.71,1,1,0,0,1-.83,1.14c-.51,0-.89-.32-1-.93a1.24,1.24,0,0,0-1.37-1.23c-.69,0-1.38,0-2.07,0a1.24,1.24,0,0,0-1.31,1.35c0,.51,0,1,0,1.52a1,1,0,0,0,.77,1.07c1.24.39,2.47.79,3.7,1.2a2.74,2.74,0,0,1,2.11,3,9.49,9.49,0,0,1,0,1.51C69,60.51,68,61.46,66.05,61.82Z"/><path d="M68.85,33a3.47,3.47,0,1,1-3.45-3.48A3.48,3.48,0,0,1,68.85,33Zm-5.11,0A1.65,1.65,0,1,0,67,33a1.65,1.65,0,0,0-3.29,0Z"/><circle class="b" cx="65.38" cy="33.02" r="2.28"/></svg>