<svg xmlns="http://www.w3.org/2000/svg" viewBox="0 0 100 100"><defs><style>.a{fill:#fff;}</style></defs><title>iShop</title><path class="a" d="M-3.36-2.64V102.24h106V-2.64Zm20.67,89.1-12.23,0s-.45-10.2,0-12.9,7.13-4.1,7.13-4.1L17.31,77Zm25.3,0-12.23,0V77l5.1-7.55s6.68,1.4,7.13,4.1S42.61,86.44,42.61,86.44Z"/><path d="M15.63,43A6.18,6.18,0,0,1,9.46,36.8a.74.74,0,0,1,.74-.74H11l-.14-.25a3.41,3.41,0,0,1-.47-1.73v-.91a.74.74,0,0,1,.74-.73H24.69a9.8,9.8,0,0,1,9.79,9.79.74.74,0,0,1-.74.74ZM11,37.74a4.71,4.71,0,0,0,4.6,3.75H33l0-.18a8.31,8.31,0,0,0-8.26-7.4H11.84v.17a2,2,0,0,0,2,2,.74.74,0,1,1,0,1.47H11Z"/><path d="M13.63,46.92c.62-.36,3-1.91,3.07-4.52h1.48c-.1,3.51-3.16,5.44-3.88,5.85Z"/><path d="M33.26,48.25c-.72-.41-3.78-2.33-3.88-5.85h1.48c.1,2.6,2.46,4.16,3.07,4.52Z"/><path d="M33.91,53.84V52.36h.74a2,2,0,0,0,0-4h-.74V46.93h.74a3.46,3.46,0,0,1,0,6.91Z"/><path d="M12.91,53.84a3.46,3.46,0,0,1,0-6.91h.74V48.4h-.74a2,2,0,0,0,0,4h.74v1.48Z"/><path d="M23.79,63.8a10.52,10.52,0,0,1-10.37-8.68c-.05-.32-.09-.63-.12-.95l-.22-2.83V42.4h1.48v8.89l.21,2.76a7.5,7.5,0,0,0,.11.81,9,9,0,0,0,8.91,7.47,9.37,9.37,0,0,0,1.58-.14,9.2,9.2,0,0,0,7.44-8.5l.2-2.46V42.4h1.48v8.89l-.19,2.51a10.7,10.7,0,0,1-8.65,9.84A10.43,10.43,0,0,1,23.79,63.8Z"/><path d="M16.7,86.44V68.69a.74.74,0,0,1,.74-.74h.15a1.06,1.06,0,0,0,.92-1.06V62.32H20v4.56a2.53,2.53,0,0,1-1.7,2.42l-.11,0v17.1Z"/><path d="M4,86.44v-9.8A8,8,0,0,1,11,68.73l.84-.06.1,1.48-.79,0a6.5,6.5,0,0,0-5.6,6.44v9.8Z"/><path d="M23.78,75.57A8.94,8.94,0,0,1,17,72.45l1.14-.94a7.5,7.5,0,0,0,11.32,0l1.14.94A8.94,8.94,0,0,1,23.78,75.57Z"/><path d="M12,70.72a4.25,4.25,0,0,1,3.51-6.59h3.6v1.48H15.49a2.74,2.74,0,0,0-2.74,2.74,2.7,2.7,0,0,0,.45,1.54L18,77l-1.23.82Z"/><path d="M14.72,84.63a.74.74,0,0,1-.73-.74V78.45a.74.74,0,0,1,1.47,0v5.44A.74.74,0,0,1,14.72,84.63Z"/><path d="M29.38,86.44V69.34l-.11,0a2.55,2.55,0,0,1-1.7-2.43V62.32h1.48v4.56A1.07,1.07,0,0,0,29.94,68h.18a.74.74,0,0,1,.74.74V86.44Z"/><path d="M42.06,86.44v-9.8a6.54,6.54,0,0,0-5.64-6.45l-.75,0,.1-1.48.79.06a8,8,0,0,1,7,7.91v9.8Z"/><path d="M29.6,77l4.76-7.11a2.76,2.76,0,0,0-2.28-4.28h-3.6V64.13h3.6a4.22,4.22,0,0,1,4.21,4.22,4.13,4.13,0,0,1-.7,2.36l-4.76,7.11Z"/><path d="M32.84,84.63a.74.74,0,0,1-.74-.74V78.45a.74.74,0,0,1,1.48,0v5.44A.74.74,0,0,1,32.84,84.63Z"/><path d="M59,73.94a1,1,0,0,1-1-1V70.68l-.45-.05c-4.41-.5-7.6-3.26-7.6-6.56a1,1,0,1,1,2,0c0,2.55,3.16,4.63,7,4.63s7-2.08,7-4.63-3.16-4.62-7-4.62C54,59.45,50,56.53,50,52.8c0-3.3,3.19-6.06,7.6-6.56l.45-.05V43.94a1,1,0,0,1,2,0v2.25l.45.05c4.41.5,7.61,3.26,7.61,6.56a1,1,0,1,1-2,0c0-2.55-3.16-4.63-7-4.63s-7,2.08-7,4.63,3.16,4.63,7,4.63c5.08,0,9.06,2.92,9.06,6.64,0,3.3-3.2,6.06-7.61,6.56l-.45.05v2.25A1,1,0,0,1,59,73.94Z"/><path d="M50.49,87.57V86H87.82V41.81L58.55,14.63,36.25,35.34c-.38-.38-.76-.77-1.13-1.16L58.55,12.43,95.72,46.94a.81.81,0,0,1,.25.56.76.76,0,0,1-.21.58.79.79,0,0,1-.59.26.82.82,0,0,1-.56-.22l-5.17-4.81V87.57Z"/></svg>