<svg xmlns="http://www.w3.org/2000/svg" viewBox="0 0 100 100"><defs><style>.a{fill:#fff;}.b{fill:#e6e7e8;}</style></defs><title>iShop</title><path class="a" d="M-3-2.44V102.44H103V-2.44ZM26.51,61.28,39.09,53.8l12.58,7.48Zm8.36-16.94V41.27h8.46v3.07Zm30.46,24.4H56.87V63.39h8.46Zm0-22.12H56.87V41.27h8.46ZM28.54,32.53,50.16,19.05,71.79,32.53Z"/><path class="a" d="M47.62,26.85a2.5,2.5,0,1,0,2.5-2.51A2.5,2.5,0,0,0,47.62,26.85Z"/><path d="M72,81.7H28.28V36.16H72Zm-43.34-.33h43V36.46h-43Z"/><path d="M50.33,81.7h-22V61.88h22Zm-21.72-.33H50V62.16H28.61Z"/><path d="M44.13,82.07H33.88v-.15c0-.4-1.12-9.79,1.24-12.14,1.77-1.78,5.63-1.68,7.5.17,2.34,2.38,1.57,11.58,1.57,12Zm-10-.34h9.66c.09-1.22.63-9.45-1.46-11.54-1.75-1.75-5.37-1.84-7-.17-2.1,2.09-1.3,10.51-1.17,11.72Z"/><path d="M43.5,50.77H34.81v-6h8.64Zm-8.35-.33h8V45.09h-8Z"/><path d="M65.27,50.77H56.62v-6h8.65Zm-8.35-.33h8V45.09h-8Z"/><path d="M65.27,73.16H56.62v-6h8.65Zm-8.35-.34h8V67.46h-8Z"/><path d="M36.78,30.13H31.35V22.51h5.43Zm-5.1-.33h4.76v-7H31.68Z"/><path d="M43.5,44.51H34.7V41.1h8.8ZM35,44.18h8.11V41.43H35Z"/><path d="M65.5,46.78H56.71V41.1h8.8ZM57,46.45h8.13v-5H57Z"/><path d="M65.5,68.9H56.71V63.23h8.8ZM57,68.57h8.13v-5H57Z"/><path class="b" d="M28.55,60.43c.34-1-.5-3-.42-4.17.42-6.78-2-9.6-6.48-9.6s-8,3.07-8,8.45a9,9,0,0,0,1,3.8,14.25,14.25,0,0,0-1.11,4.77A6.18,6.18,0,0,0,20,69.6a7,7,0,0,0,1.88-.26,6.69,6.69,0,0,0,4.72,1.9c3.54,0,1.53-2.65,1.53-5.92C28.12,62.92,28.55,62.13,28.55,60.43Z"/><path d="M26.59,71.41a6.87,6.87,0,0,1-4.77-1.86,7.07,7.07,0,0,1-1.83.24,6.36,6.36,0,0,1-6.59-6.11,14.61,14.61,0,0,1,1.15-4.78l-.26-.61a7.32,7.32,0,0,1-.82-3.18c0-5.22,3.29-8.66,8.17-8.66a6.29,6.29,0,0,1,4.75,1.77c1.49,1.59,2.08,4.28,1.89,8a7.18,7.18,0,0,0,.27,1.84,5.35,5.35,0,0,1,.17,2.42,11.27,11.27,0,0,1-.17,2.09,15.41,15.41,0,0,0-.26,2.79A13.17,13.17,0,0,0,28.62,68c.24,1.22.43,2.18-.08,2.81A2.4,2.4,0,0,1,26.59,71.41Zm-4.68-2.25.07.07a6.57,6.57,0,0,0,4.61,1.86,2.18,2.18,0,0,0,1.69-.5c.4-.5.24-1.4,0-2.52a13.65,13.65,0,0,1-.33-2.7,16.73,16.73,0,0,1,.25-2.83,10.48,10.48,0,0,0,.18-2.09V60.4a5.11,5.11,0,0,0-.18-2.33A8.13,8.13,0,0,1,28,56.16c.23-3.63-.38-6.26-1.8-7.75a6,6,0,0,0-4.51-1.67c-4.69,0-7.84,3.35-7.84,8.35a6.9,6.9,0,0,0,.78,3l.29.69V59a14.39,14.39,0,0,0-1.14,4.69A6,6,0,0,0,20,69.42a6.68,6.68,0,0,0,1.83-.25Z"/><path class="b" d="M86.45,65.37a6.13,6.13,0,0,0-4.17-5.8,6.12,6.12,0,0,0-5.37-3.13c-3.38,0-4.66,1.91-4.66,5.29,0,1.05-.45,2.83,0,3.69a5,5,0,0,0-.49,2.65c0,2.93,1.39,5.31,4.33,5.31.22,0,.45,0,.68,0A5.32,5.32,0,0,0,84.26,73a5.38,5.38,0,0,0,1.34-3.54,6.47,6.47,0,0,0,0-.76A6.09,6.09,0,0,0,86.45,65.37Z"/><path d="M80.32,74.76a5.42,5.42,0,0,1-3.58-1.35q-.31,0-.63,0c-2.78,0-4.5-2.09-4.5-5.47a5.55,5.55,0,0,1,.47-2.57A5.59,5.59,0,0,1,72,62.83a10.75,10.75,0,0,0,.09-1.13c0-3.72,1.53-5.45,4.83-5.45a6.25,6.25,0,0,1,5.49,3.21,6.25,6.25,0,0,1,3.8,8,5.58,5.58,0,0,1-.49,1,4.45,4.45,0,0,1,0,.73A5.47,5.47,0,0,1,80.32,74.76Zm-3.47-1.7h.05a5.14,5.14,0,0,0,8.55-3.84,4.36,4.36,0,0,0,0-.72h0a5.94,5.94,0,0,0-2-8.18,5.52,5.52,0,0,0-1.15-.55h-.06v-.05A6,6,0,0,0,77,56.59c-3.13,0-4.49,1.59-4.49,5.13,0,.37-.08.73-.14,1.09a5.16,5.16,0,0,0,.07,2.44v.08l-.07,0a5.16,5.16,0,0,0-.46,2.57c0,2.48,1,5.14,4.17,5.14a3.75,3.75,0,0,0,.67,0Z"/><path d="M73.47,36h-47V32.37H73.51Zm-46.73-.34H73.13v-3H26.74Z"/><path d="M52.28,61.45H25.92L39.1,53.61Zm-25.16-.33h24L39.09,54Z"/><path d="M78.9,74.83a5.13,5.13,0,0,0,6.71-6.26l0-.19.12-.15A5.51,5.51,0,0,0,85,60.47a5.68,5.68,0,0,0-2.2-1.12h-.16l-.07-.24A6.25,6.25,0,0,0,74.27,56a6.71,6.71,0,0,0-1.1.64l-.56.41V36.74h1.2a.49.49,0,0,0,.49-.49h0V32.68a.45.45,0,0,0-.19-.24h0L50.36,17.63a.49.49,0,0,0-.52,0l-12.79,8V22.7a.49.49,0,0,0-.49-.49H31.48a.49.49,0,0,0-.49.49v6.7l-.17.11L28.73,30.8c-2.81,1.74-2.81,1.78-2.82,2v3.4a.49.49,0,0,0,.49.49h1.2V49.12L27,48.5A8.06,8.06,0,0,0,14.57,58.7l.15.22-.16.21a6.54,6.54,0,0,0,6.82,10.42h.2l.14.13a6.94,6.94,0,0,0,.74.6l.15.1V81.45H16.25a.5.5,0,1,0,0,1H84a.5.5,0,1,0,0-1H78.43v-6.8ZM27.6,81.45h-4V70.9l.47.17a6.17,6.17,0,0,0,3.13.28l.41-.06Zm0-21.15-1.46.91a.5.5,0,0,0-.14.7.53.53,0,0,0,.4.22h1.2v8.15l-.28.06a5.22,5.22,0,0,1-1.11.11,5.46,5.46,0,0,1-2.42-.55l-.2-.09V57a.47.47,0,0,0-.45-.49h0a.46.46,0,0,0-.49.42v8h-.36a2.68,2.68,0,0,1-2.33-1.57,2.74,2.74,0,0,1,.28-2.87.48.48,0,0,0-.09-.68h0c-.09-.07-.32-.24-.67.08a3.69,3.69,0,0,0,.63,5.18,3.73,3.73,0,0,0,2.22.79h.34V69l-.57-.49a.47.47,0,0,0-.52,0A5.46,5.46,0,0,1,17,68.19a5.55,5.55,0,0,1-2.29-7.51,5.39,5.39,0,0,1,1-1.36.49.49,0,0,0,0-.66A7.08,7.08,0,1,1,27.52,51v.07ZM32,23.2h4.09v3L32,28.79ZM50.1,19,70.85,32H29.35ZM27.25,35.39V33.7H73v1.69ZM43.68,81.45H34.51v-8a4.59,4.59,0,1,1,9.17,0Zm5.93,0H44.67v-8a5.57,5.57,0,1,0-11.14,0v8h-5V62.13H49.61ZM28.13,61.14l11-6.86,11,6.86ZM71.61,81.45h-21V62.13h.64c.74,0,.93,0,1-.37a.49.49,0,0,0-.22-.55L39.36,53.27a.53.53,0,0,0-.52,0L28.55,59.68v-23H71.61Zm5.83,0H72.6V72.94l.52.3a5.12,5.12,0,0,0,3.81.51h.19l.15.15h0l.13.1Zm.49-18.24a.47.47,0,0,0-.49.43v9l-.28.09H77a4.07,4.07,0,0,1-4.17-.94l-.1-.11V65.94l.09-.11a.53.53,0,0,0,0-.72L72.74,65V58.56l.07-.09a5.29,5.29,0,0,1,7.44-.79,5.42,5.42,0,0,1,1.63,2.26.47.47,0,0,0,.38.31,4.52,4.52,0,0,1,2.44,7.69.49.49,0,0,0-.11.54,4.17,4.17,0,0,1-2.38,5.4,4.08,4.08,0,0,1-1.5.29,4.14,4.14,0,0,1-2.09-.58l-.18-.1V70.36h.33A3.21,3.21,0,0,0,81,65.14a.46.46,0,0,0-.66-.07.49.49,0,0,0-.09.69h0a2.26,2.26,0,0,1-1.44,3.6l-.41.06V63.7a.47.47,0,0,0-.44-.49Z"/><path d="M84,82.61H16.25a.67.67,0,1,1,0-1.33h6.19V70.43l-.08-.05a6.26,6.26,0,0,1-.76-.6l-.07-.08h-.11a6.72,6.72,0,0,1-7-10.71l.1-.1-.09-.12a8.24,8.24,0,0,1,2.12-11.46,8.46,8.46,0,0,1,2.85-1.25,8.29,8.29,0,0,1,7.72,2.32l.32.33V36.91h-1a.66.66,0,0,1-.66-.66v-3.4c0-.37,0-.38,2.9-2.17l2.09-1.3.08-.05V22.7a.65.65,0,0,1,.66-.66h5.08a.66.66,0,0,1,.66.66v2.62l12.53-7.83a.68.68,0,0,1,.7,0L74.16,32.3a.72.72,0,0,1,.25.32h0v3.59a.66.66,0,0,1-.66.65h-1v20l.29-.22a6.45,6.45,0,0,1,9,1.33,6.75,6.75,0,0,1,.7,1.19v.09h.08a5.68,5.68,0,0,1,4.14,6.88,5.74,5.74,0,0,1-1.17,2.29l-.07.07v.09A5.29,5.29,0,0,1,78.78,75l-.16-.08v6.39H84a.67.67,0,0,1,0,1.33Zm-67.7-1a.33.33,0,1,0-.12.65.24.24,0,0,0,.12,0H84a.32.32,0,0,0,.39-.27.33.33,0,0,0-.27-.38.24.24,0,0,0-.12,0H78.27v-7.2l.69.26a5,5,0,0,0,6.38-2.94,5,5,0,0,0,.11-3.09l-.08-.27.18-.22a5.34,5.34,0,0,0-2.76-8.64l-.24-.06-.1-.23a6.1,6.1,0,0,0-9.16-2.38l-.82.61V36.59h1.36a.34.34,0,0,0,.34-.33V32.74A.29.29,0,0,0,74,32.6h0L50.28,17.76a.33.33,0,0,0-.36,0l-13,8.15V22.7a.34.34,0,0,0-.33-.34H31.48a.34.34,0,0,0-.34.34v6.8l-.24.15L28.82,31c-2.59,1.6-2.75,1.72-2.75,1.9v3.39a.34.34,0,0,0,.34.33h1.36v13l-.88-.92a7.88,7.88,0,0,0-11.15-.23,7.72,7.72,0,0,0-1.9,2.85,7.83,7.83,0,0,0,.86,7.35l.22.33-.25.3a6.4,6.4,0,0,0,6.66,10.19l.28-.08.21.2a5.82,5.82,0,0,0,.72.57l.22.16V81.62Zm61.36,0H72.39V72.68l.77.43a5,5,0,0,0,3.69.51l.27-.08.23.2h0l.17.16Zm-4.84-.34h4.5V74.06l-.2-.17H77A5.24,5.24,0,0,1,73,73.35l-.28-.15Zm-1,.34H50.45V62h.81c.76,0,.81,0,.87-.24a.34.34,0,0,0-.14-.37L39.27,53.42a.32.32,0,0,0-.35,0L28.42,60V36.57H71.78Zm-21-.34H71.44V36.91H28.76V59.39l10-6.26a.68.68,0,0,1,.7,0l12.69,7.94a.67.67,0,0,1,.29.74c-.14.48-.51.49-1.2.48h-.47Zm-1,.34H44.56V73.48a5.41,5.41,0,0,0-10.82,0v8.14H28.53V62H49.77Zm-4.94-.34h4.57v-19H28.76v19h4.6v-7.8a5.74,5.74,0,1,1,11.47,0Zm-1,.34H34.36V73.48a4.75,4.75,0,1,1,9.49,0Zm-9.17-.34h8.84v-7.8a4.42,4.42,0,0,0-8.84,0h0Zm-6.92.34H23.43v-11l.69.24a6.13,6.13,0,0,0,3.06.29l.59-.1Zm-4-.34h3.67v-9.8h-.22a6.49,6.49,0,0,1-3.21-.3l-.25-.08Zm56.95-6.94a4.31,4.31,0,0,1-2.19-.62l-.25-.15V70.26h.46a3.14,3.14,0,0,0,2.4-1.49,3,3,0,0,0-.21-3.45c-.24-.22-.37-.12-.44-.06a.34.34,0,0,0-.07.46,2.42,2.42,0,0,1-1.55,3.83l-.59.09V63.7a.33.33,0,0,0-.39-.26.32.32,0,0,0-.27.26v9l-.42.08h-.13a4.18,4.18,0,0,1-4.4-1l-.15-.16V65.78l.14-.15c.06,0,.2-.19,0-.51l-.1-.13V58.42l.11-.15a5.46,5.46,0,0,1,9.39,1.51.33.33,0,0,0,.25.21,4.69,4.69,0,0,1,2.53,8,.36.36,0,0,0-.08.36,4.24,4.24,0,0,1-1.16,4.86A4.35,4.35,0,0,1,80.71,74.34Zm-2.09-.94.09,0a4,4,0,0,0,5.65-4.92.65.65,0,0,1,.14-.71,4.35,4.35,0,0,0-2.34-7.42.65.65,0,0,1-.51-.42,5.14,5.14,0,0,0-8.79-1.42h0V65h0a.68.68,0,0,1,0,.94v5.62l0,0a3.91,3.91,0,0,0,4.06.9h.33V63.7a.66.66,0,0,1,1.32,0v5.54h.22a2.1,2.1,0,0,0,1.35-3.35A.66.66,0,0,1,80.3,65h0a.62.62,0,0,1,.87.08,3.39,3.39,0,0,1,.28,3.87,3.44,3.44,0,0,1-2.69,1.68h-.15ZM26.21,70.59A5.77,5.77,0,0,1,23.72,70l-.3-.14V57a.33.33,0,0,0-.38-.27.32.32,0,0,0-.27.27v8.12h-.55a2.84,2.84,0,0,1-2.47-1.65,2.91,2.91,0,0,1,.33-3,.34.34,0,0,0-.07-.46c-.07-.06-.21-.15-.46.08a3.54,3.54,0,0,0,2.74,5.61h.5v3.64l-.85-.71a.31.31,0,0,0-.32-.06A5.61,5.61,0,0,1,17,68.28a5.7,5.7,0,0,1-2.36-7.73,5.5,5.5,0,0,1,1-1.37.33.33,0,0,0,0-.45A7.24,7.24,0,1,1,27.71,51V60.4l-1.53,1a.32.32,0,0,0-.08.46.3.3,0,0,0,.26.14h1.36V70.4l-.41.09A5.85,5.85,0,0,1,26.21,70.59Zm-2.45-.92h.1a5.46,5.46,0,0,0,3.42.43h.15V62.24h-1a.65.65,0,0,1-.68-.64A.7.7,0,0,1,26,61l1.4-.86v-9h0A6.9,6.9,0,1,0,15.9,58.55a.67.67,0,0,1,0,.9,5.38,5.38,0,0,0-.08,7.61,5.23,5.23,0,0,0,1.25,1,5.31,5.31,0,0,0,4.39.31.63.63,0,0,1,.66.11l.3.26V66.08h-.13a3.86,3.86,0,0,1-2.92-6.26.62.62,0,0,1,.83-.1.66.66,0,0,1,.13.92h0a2.57,2.57,0,0,0-.28,2.64,2.53,2.53,0,0,0,2.24,1.46h.2V57a.66.66,0,1,1,1.32,0Zm26.88-8.34H27.5l11.55-7.22.08,0ZM28.73,61H49.49l-10.43-6.5ZM71.42,32.18H28.78L50.1,18.85l.08,0Zm-41.49-.33H70.27L50.1,19.24Zm1.88-2.76V23h4.42v3.3Zm.34-5.73V28.5l3.7-2.36V23.36Z"/><path d="M67,72.13h-1.2V63.29a.49.49,0,0,0-.49-.49H56.87a.49.49,0,0,0-.49.49h0V72.1h-1.2a.5.5,0,1,0,0,1H67a.46.46,0,0,0,.49-.44V72.6a.46.46,0,0,0-.45-.47Zm-2.19,0H57.37V68.9h7.47Zm0-4.23H57.37V63.82h7.47Z"/><path d="M67,73.29H55.18a.66.66,0,0,1,0-1.32h1V63.29a.66.66,0,0,1,.66-.66h8.46a.66.66,0,0,1,.66.66h0v8.65h1a.66.66,0,0,1,0,1.32Zm-11.85-1a.34.34,0,0,0-.27.39.33.33,0,0,0,.27.27H67a.34.34,0,0,0,.27-.39A.33.33,0,0,0,67,72.3H65.66v-9a.34.34,0,0,0-.33-.34H56.87a.34.34,0,0,0-.33.34v9Zm9.83,0H57.2V68.73H65ZM57.54,72h7.14v-2.9H57.53ZM65,68.07H57.2V63.65H65Zm-7.47-.34h7.14V64H57.53Z"/><path d="M45,50.13h-1.2V41.32a.49.49,0,0,0-.49-.49H34.87a.49.49,0,0,0-.49.49v8.81h-1.2a.5.5,0,1,0,0,1H45a.5.5,0,0,0,0-1Zm-2.19,0H35.36V45.2h7.48Zm0-5.92H35.36v-2.4h7.48Z"/><path d="M45,51.29H33.18a.66.66,0,0,1,0-1.32h1V41.32a.66.66,0,0,1,.66-.66h8.46a.66.66,0,0,1,.66.66V50h1a.66.66,0,1,1,0,1.32Zm-11.85-1a.34.34,0,0,0-.39.27.34.34,0,0,0,.27.39H45a.34.34,0,0,0,.27-.39A.33.33,0,0,0,45,50.3H43.66v-9a.34.34,0,0,0-.33-.34H34.87a.34.34,0,0,0-.34.34v9Zm9.82,0h-7.8V45.08H43ZM35.53,50h7.14v-4.6H35.53ZM43,44.37h-7.8V41.65H43ZM35.53,44h7.14V42H35.53Z"/><path d="M67,50.13h-1.2V41.32a.49.49,0,0,0-.49-.49H56.87a.49.49,0,0,0-.49.49h0v8.81h-1.2a.5.5,0,1,0,0,1H67a.46.46,0,0,0,.49-.44v0a.47.47,0,0,0-.41-.5Zm-2.19,0H57.37V46.89h7.47Zm0-4.23H57.37V41.82h7.47Z"/><path d="M67,51.29H55.18a.66.66,0,0,1,0-1.32h1V41.32a.66.66,0,0,1,.66-.66h8.46a.66.66,0,0,1,.66.66h0V50h1a.66.66,0,1,1,0,1.32Zm-11.85-1a.34.34,0,0,0,0,.66H67a.34.34,0,0,0,.27-.39A.32.32,0,0,0,67,50.3H65.66v-9a.34.34,0,0,0-.33-.34H56.87a.34.34,0,0,0-.33.34v9Zm9.83,0H57.2V46.73H65ZM57.54,50h7.14V47.06H57.53ZM65,46.06H57.2V41.65H65Zm-7.47-.33h7.14V42H57.53Z"/><path d="M72.36,32.7H28l22.2-13.85Zm-43.24-.33H71.2l-21-13.13Z"/><path d="M50.12,29.51a2.67,2.67,0,1,1,2.67-2.67,2.67,2.67,0,0,1-2.67,2.67Zm0-5a2.34,2.34,0,1,0,2.34,2.34,2.34,2.34,0,0,0-2.34-2.34Z"/><path d="M50.1,23.9a3,3,0,1,0,3,3h0A3,3,0,0,0,50.1,23.9Zm0,5.08a2.09,2.09,0,1,1,2.09-2.09A2.1,2.1,0,0,1,50.1,29Z"/><path d="M50.1,30.13a3.2,3.2,0,1,1,3.2-3.2h0A3.2,3.2,0,0,1,50.1,30.13Zm0-6.07A2.87,2.87,0,1,0,53,26.93h0A2.88,2.88,0,0,0,50.1,24.06Zm0,5.08a2.21,2.21,0,1,1,2.21-2.21h0A2.21,2.21,0,0,1,50.1,29.14Zm0-4.09A1.88,1.88,0,1,0,52,26.93h0a1.88,1.88,0,0,0-1.88-1.88Z"/></svg>