<svg xmlns="http://www.w3.org/2000/svg" viewBox="0 0 100 100"><defs><style>.a{fill:#fff;}</style></defs><title>iShop</title><path class="a" d="M-3-2.44V102.44H103V-2.44Zm41.94,54L36.19,53l-7.33,4-10-1,1.71-3.64,4.57-3.91,4.24-2.21-3.63-4.85L23,37.07l3.52-1.17,9.81,1.6L43.14,42,44,51ZM72.17,68.3l-1.76,2.21-12.84-.28-.44-6.72-1.22-4.08L53.05,56l-3-2.81L48.36,32.87H74.93Z"/><path d="M42.17,82.85a16.68,16.68,0,0,1-15.59-13.5,15.41,15.41,0,0,1,1.25-9.22l1-2.16L25,57.75c-2.27-.12-4.48-.24-6.69-.41a3,3,0,0,1-1.43-.48c-.59-.43-.09-1.17,0-1.32,2.33-3.21,5.27-6.81,9.45-9.24l.3-.23.65-.61-.44-.73s-3.24-4.93-4.13-6.31a9.79,9.79,0,0,1-.87-1.7,1.06,1.06,0,0,1,.09-.92.81.81,0,0,1,.61-.4,46,46,0,0,1,4.67-.26,26.25,26.25,0,0,1,10.7,2,15.51,15.51,0,0,1,1.41.71l2.45,1.28-.57-6.75L40,18.44a1.18,1.18,0,0,1,.21-.93,1.78,1.78,0,0,1,1.21-.36H81.59c1,0,1.43.2,1.58.37s.31.61.19,1.73c-.33,3-.59,6.06-.85,9.09l-4,44a5.71,5.71,0,0,1-5.32,5H55.53a2.68,2.68,0,0,0-1.71.79,15.92,15.92,0,0,1-11.38,4.76Zm-5.52-3.2,1.2.37a16.05,16.05,0,0,0,4.71.72,15.58,15.58,0,0,0,5.9-1.19l1.16-.48-7-10.39ZM28.63,69a13.67,13.67,0,0,0,5.19,8.9l1,.75L40.66,67.8H28.43ZM51.4,77.89l.88-.86A13.54,13.54,0,0,0,56.39,69l.17-1.16h-12ZM60,71.38c-2.08,0-2.6.47-2.93,2.63l-.17,1.17h9.62l6.85,0c2.49,0,2.94-1.83,3.07-3.19L77,65.88l3.48-38.71.68-7.83H42.23s.09,1.94.11,2.19l2.4,26.75c.2,2.25.55,2.61,2.87,3l1.25.2-.11-2.18-1.4-15.72c-.08-.94.06-1.31.19-1.46s.52-.33,1.5-.33H73.48c.61,0,2.06,0,2.34.31s.16,1.8.11,2.36L72.87,68.49a2.94,2.94,0,0,1-3.16,2.89ZM49.64,35.56l.22,2.53c.41,4.64.82,9.27,1.27,13.9a3.05,3.05,0,0,0,1.11,1.91,17.28,17.28,0,0,1,5.11,6.53,15.7,15.7,0,0,1,1.34,7.62l-.08,1.09H70.69L73.84,34H49.63ZM33,56.38c-2.32,1.83-3.67,4.29-4.37,8l-.23,1.22H40.51L33.87,55.7Zm11.33,9.17H56.6l-.2-1.19a13.48,13.48,0,0,0-5.22-8.9l-1-.73Zm-1.85-12.9a15.15,15.15,0,0,0-5.81,1.17l-1.17.47,6.93,10.3,5.93-10.88-1.22-.36A16.32,16.32,0,0,0,42.48,52.65Zm-13.56-5a2.93,2.93,0,0,0-1.44.41,20.54,20.54,0,0,0-6.37,5.61l-.23.28.06.77.22.7.73.12h7.28A4.93,4.93,0,0,0,32.71,54a9,9,0,0,1,1.07-.89l1.65-1.3-2.19-1.57a31.45,31.45,0,0,1-2.52-1.91A2.67,2.67,0,0,0,28.92,47.61Zm-3.57-9.24.14.64c3.8,5.57,7.45,10.2,14.08,11.48l.6.11,1-1.2-.46-.89-1.18-.93c-.82-.63-1.65-1.26-2.51-1.85-1.24-.86-.87-1.47-.73-1.71a.87.87,0,0,1,.78-.49,2.1,2.1,0,0,1,1.06.39c.54.35,1.06.72,1.6,1.11l2.8,2-.23-2.23a2.1,2.1,0,0,0-.3-1.28l-.47-.62a11.36,11.36,0,0,0-1.74-2,14.48,14.48,0,0,0-7.66-3.2c-1.28-.19-2.57-.28-3.87-.37l-2.52-.2Z"/></svg>