<svg xmlns="http://www.w3.org/2000/svg" viewBox="0 0 100 100"><defs><style>.a{fill:#fff;}.b{fill:#e6e7e8;}.c{fill:none;stroke:#000;stroke-miterlimit:10;stroke-width:1.5px;}</style></defs><title>iShop</title><path class="a" d="M-3-2.44V102.44H103V-2.44ZM45.24,78.28a4.37,4.37,0,1,1,4.36-4.37A4.37,4.37,0,0,1,45.24,78.28Zm26,0a4.37,4.37,0,1,1,4.36-4.37A4.37,4.37,0,0,1,71.24,78.28Zm2.67-34H62.26L63,42.59l.86-2.87L59,44.3H42.27l3.61-9.4,5.65,2.45L57.72,32l6.83,7.25,4-6.32,8.85,5.11Z"/><rect class="b" x="42.42" y="28.57" width="9.41" height="1.76" rx="0.4"/><rect class="b" x="54.5" y="21.32" width="7.52" height="2.56" rx="0.57"/><polyline class="c" points="22.4 33.85 35.04 33.85 43.23 66.86 71.66 66.86 77.6 44.1 37.66 44.1"/><circle class="c" cx="45.24" cy="73.91" r="4.77"/><circle class="c" cx="71.24" cy="73.91" r="4.77"/><line class="c" x1="50.01" y1="73.91" x2="66.47" y2="73.91"/><polyline class="c" points="53.26 44.03 55.39 38.64 45.88 34.9 42.27 44.04"/><polyline class="c" points="62.26 43.91 68.58 32.96 77.43 38.07 73.98 44.04"/><polyline class="c" points="51.53 37.07 57.72 31.8 64.35 39.57 59.17 43.98"/><line class="c" x1="43.57" y1="40.76" x2="43.57" y2="30.47"/><path d="M51.44,28.57a.4.4,0,0,1,.4.39v1a.39.39,0,0,1-.4.39H42.82a.39.39,0,0,1-.4-.39V29a.4.4,0,0,1,.4-.39h8.62m0-1.5H42.82A1.9,1.9,0,0,0,40.92,29v1a1.9,1.9,0,0,0,1.9,1.89h8.62a1.9,1.9,0,0,0,1.9-1.89V29a1.9,1.9,0,0,0-1.9-1.89Z"/><rect class="c" x="54.5" y="21.32" width="7.52" height="2.56" rx="0.57"/><path class="c" d="M55.91,23.89v.89a4.82,4.82,0,0,1-.49,1.83c-.41.69-1.49,3.1-1.49,3.1s-.38.64-.38,5.64"/><path class="c" d="M60.41,23.89v.89a4.82,4.82,0,0,0,.49,1.83c.41.69,1.49,3.1,1.49,3.1s.38.64.38,5.64v2.37"/></svg>