<svg xmlns="http://www.w3.org/2000/svg" viewBox="0 0 100 100"><defs><style>.a{fill:#fff;}.b{stroke:#000;stroke-miterlimit:10;stroke-width:0.5px;}</style></defs><title>iShop</title><path class="a" d="M-3-2.44V102.44H103V-2.44ZM32.07,66.28a10,10,0,0,1-3.67-.64,11.9,11.9,0,0,1-2.3-1.13,14.19,14.19,0,0,1-2.26-1.79,18.75,18.75,0,0,1-2-2.41l-.37-.6-.2-.31,0-.07-.08-.16-.1-.18c-.24-.5-.47-1-.68-1.52a15,15,0,0,1-.75-3.18c0-.54-.06-1.06-.07-1.58s.07-1,.1-1.52.15-1,.21-1.44.25-.9.37-1.32a14.33,14.33,0,0,1,.89-2.33A12.92,12.92,0,0,1,24,42s-.33,2-.62,4.77a35.22,35.22,0,0,0-.15,4.57c0,.81.16,1.61.27,2.43.1.39.18.8.26,1.19s.25.77.36,1.17l.44,1.11.06.15,0,0h0s-.08-.14-.05-.06l0,0,0,.07.17.32.33.63a14.4,14.4,0,0,0,1.26,2.05,17.6,17.6,0,0,0,1.46,1.8c.53.51,1,1,1.56,1.45a17.49,17.49,0,0,0,4,2.44A7.08,7.08,0,0,1,32.07,66.28ZM79.86,79.81A24.27,24.27,0,0,1,46,80.28l2.3-2.3A21,21,0,0,0,78,48.26L80.33,46a24.28,24.28,0,0,1-.47,33.85Z"/><path d="M32.8,74.86A21.16,21.16,0,0,1,11.66,53.72c0-12,12.2-32.46,20.42-40.45l1.59-1.55.16,2.22c.53,7.34,5.79,14.55,10.88,21.51,4.75,6.5,9.23,12.62,9.23,18.27A21.16,21.16,0,0,1,32.8,74.86ZM29.56,19.19C22,28.74,13.73,44.66,13.73,53.72a19.07,19.07,0,0,0,38.13,0c0-5-4.26-10.81-8.78-17-3.77-5.14-8-11-10.11-17l-1.17-3.4Z"/><path class="b" d="M80.83,44.49a.7.7,0,0,0-1,0L76.6,47.76h0l-32,32.05a.68.68,0,0,0,0,1A25.66,25.66,0,0,0,80.83,44.49ZM62,82.27A19.53,19.53,0,0,1,49.29,77L62,64.29Zm1.38-18L76,76.9a.67.67,0,0,0,.14.09,19.54,19.54,0,0,1-12.74,5.28ZM77.05,76.06a1,1,0,0,0-.09-.13L64.35,63.32h18a19.49,19.49,0,0,1-5.28,12.74ZM64.35,62,77.07,49.23A19.49,19.49,0,0,1,82.33,62ZM79.86,79.81A24.27,24.27,0,0,1,46,80.28l2.3-2.3A21,21,0,0,0,78,48.26L80.33,46a24.28,24.28,0,0,1-.47,33.85Zm0,0"/></svg>