<svg xmlns="http://www.w3.org/2000/svg" viewBox="0 0 100 100"><defs><style>.a{fill:#fff;}.b,.c{fill:none;stroke:#000;stroke-linecap:round;stroke-linejoin:round;}.b{stroke-width:2px;}</style></defs><title>iShop</title><path class="a" d="M-2.34-3V103.27H103.24V-3ZM63.21,39.11,62,45H52.05l-1-5.9ZM50.94,62.79H40.51V53.65H50.94Zm19.52,0H60V53.65H70.46Z"/><polyline class="b" points="38.14 44.34 30.19 44.34 30.19 70.5"/><line class="b" x1="38.14" y1="53.44" x2="30.19" y2="53.44"/><line class="b" x1="38.14" y1="62.44" x2="30.19" y2="62.44"/><polyline class="b" points="40.52 70.5 40.52 29.5 69.81 35.01 69.81 70.5"/><line class="b" x1="40.51" y1="53.44" x2="69.81" y2="53.44"/><line class="b" x1="40.51" y1="62.44" x2="69.81" y2="62.44"/><line class="b" x1="50.69" y1="53.44" x2="50.69" y2="70.5"/><line class="b" x1="60.33" y1="53.44" x2="60.33" y2="70.5"/><polyline class="c" points="48.84 36.67 50.99 37.96 52.75 47.08 61.73 47.08"/><line class="c" x1="53.98" y1="41.28" x2="60.04" y2="41.28"/><line class="c" x1="53.98" y1="42.83" x2="60.04" y2="42.83"/><polyline class="c" points="52.35 45.01 61.73 45.01 62.99 39.11 51.21 39.11"/><circle class="c" cx="54.7" cy="49.35" r="1.18"/><circle class="c" cx="59.26" cy="49.35" r="1.18"/></svg>