<svg xmlns="http://www.w3.org/2000/svg" viewBox="0 0 100 100"><defs><style>.a{fill:#fff;}.b{fill:#e6e7e8;}</style></defs><title>iShop</title><path class="a" d="M-.5-.5v101h101V-.5ZM32.13,80.25,22.44,63.88,31,59.28l9.3,16Z"/><path d="M75.4,22.17a.73.73,0,0,1-.73-.73c0-.36,0-.73,0-1.09v-.61c0-.29.16-.47.52-.74h.44a1.14,1.14,0,0,1,.51,1.19,6.06,6.06,0,0,0,0,.74c0,.17,0,.34,0,.51A.74.74,0,0,1,75.4,22.17Z"/><path d="M80.15,25.41H80a3.62,3.62,0,0,0-.47,0h-.85a.73.73,0,0,1-.73-.68.7.7,0,0,1,.62-.74c.34,0,.69-.06,1-.06a4,4,0,0,1,.83.08,1.47,1.47,0,0,1,.51.38l.17.16v.38A1,1,0,0,1,80.15,25.41Z"/><path d="M19.82,50.76a1,1,0,0,1-.89-.51v-.47a1.09,1.09,0,0,1,1-.52h1.45a.73.73,0,0,1,.73.73.75.75,0,0,1-.79.72h-.83a4,4,0,0,0-.49,0Z"/><path d="M32.36,81a1.49,1.49,0,0,1-1.27-.89Q26.7,72.54,22.32,65a1.37,1.37,0,0,1,.49-2.08c2.34-1.39,4.7-2.76,7-4.06a1.6,1.6,0,0,1,.78-.22,1.5,1.5,0,0,1,1.27.8c.15.22.28.46.42.7l.45.78,4.48-2.27c.93-.47,1.85-.94,2.77-1.43a9.94,9.94,0,0,1,4.76-1.24,11,11,0,0,1,2.69.35l2.82.71,8.23,2.06a3.88,3.88,0,0,1,3.15,3.23l.19.86.83-.77c.12-.11.23-.2.33-.31l2.54-2.54c1.88-1.88,3.76-3.76,5.66-5.63A4,4,0,0,1,74,52.72a3.92,3.92,0,0,1,3.79,2.9,3.61,3.61,0,0,1-.88,3.73c-4.11,4.16-7.82,7.89-11.61,11.55a9.28,9.28,0,0,1-6.59,2.45c-1.28,0-2.57,0-3.85,0H49.05a1.45,1.45,0,0,1-.64-.13.65.65,0,0,1-.34-.77.77.77,0,0,1,.85-.55h9.19c.48,0,1,0,1.45-.08a8.34,8.34,0,0,0,5.32-2.51L75.54,58.72A2.64,2.64,0,0,0,76.38,56a2.46,2.46,0,0,0-1.84-1.75,2.44,2.44,0,0,0-.59-.07,2.81,2.81,0,0,0-2,1L61.83,65.29a4,4,0,0,1-2.92,1.2H49a1.07,1.07,0,0,1-.77-.26.66.66,0,0,1-.18-.49c0-.66.75-.71,1-.71h8.63a2.47,2.47,0,0,0,2-.79,2.22,2.22,0,0,0,.48-2.15,2.43,2.43,0,0,0-1.75-1.59L55,59.65l-1.84-.46-6-1.52a9.32,9.32,0,0,0-2.25-.29,8.47,8.47,0,0,0-3.85.93c-1.63.82-3.26,1.67-4.88,2.51l-1.91,1A1.09,1.09,0,0,0,34,62l-.36.26.15.45,6.84,11.82A1.52,1.52,0,0,1,40,76.9q-3.3,1.91-6.61,3.8A2,2,0,0,1,32.36,81ZM23.52,64.13l8.92,15.42,2.94-1.71L32.2,72.32a1.1,1.1,0,0,1-.19-.8.68.68,0,0,1,.37-.42.69.69,0,0,1,.34-.1c.35,0,.62.38.76.6l3.18,5.51,2.83-1.64L30.57,60.06Z"/><path d="M75.4,30.31a.7.7,0,0,1-.72-.65,14.12,14.12,0,0,1,0-1.84.74.74,0,0,1,.72-.67.77.77,0,0,1,.73.71,5.61,5.61,0,0,1,0,.58v.61a5.42,5.42,0,0,1,0,.57.72.72,0,0,1-.72.69Z"/><path d="M24.6,55.66a.7.7,0,0,1-.72-.63c0-.2,0-.4,0-.6v-.82h0a3.1,3.1,0,0,1,0-.43.72.72,0,0,1,1.44,0,13.37,13.37,0,0,1,0,1.9.68.68,0,0,1-.71.61Z"/><circle class="b" cx="49.98" cy="35.96" r="16"/><path d="M70.46,25.38a.72.72,0,0,1-.72-.68.68.68,0,0,1,.58-.73c.33,0,.67,0,1,0s.65,0,1,0a.67.67,0,0,1,.43.24.71.71,0,0,1,.16.51.75.75,0,0,1-.76.68H70.46Z"/><path d="M24.58,47.52a.71.71,0,0,1-.7-.69,17.8,17.8,0,0,1,0-1.79.72.72,0,0,1,.72-.67.73.73,0,0,1,.72.69,5.42,5.42,0,0,1,0,.57v.58q0,.3,0,.6a.75.75,0,0,1-.73.71Z"/><path d="M28.66,50.74h-.84a.75.75,0,0,1-.73-.7.7.7,0,0,1,.59-.72c.33,0,.66,0,1,0s.66,0,1,0a.69.69,0,0,1,.59.76.71.71,0,0,1-.71.65h-.89Z"/><path d="M43.86,73.34a.72.72,0,0,1-.53-.23.73.73,0,0,1-.21-.52.7.7,0,0,1,.74-.69.69.69,0,0,1,.71.71.73.73,0,0,1-.71.73Z"/><path d="M50,36.75a1.06,1.06,0,0,1-.67-.39l-5-5a1.05,1.05,0,0,1-.37-.73.59.59,0,0,1,.21-.44.64.64,0,0,1,.47-.23,1.08,1.08,0,0,1,.72.39c1,1,2,2,3,3L50,35l5.47-5.57,2.35-2.34a1.09,1.09,0,0,1,.71-.37.69.69,0,0,1,.48.24c.36.36.16.83-.15,1.14l-8.23,8.23A1.09,1.09,0,0,1,50,36.75Z"/><path d="M50,25.69c-.48,0-.72-.35-.73-1,0-.26,0-.45,0-.64A.78.78,0,0,1,50,23.2c.44,0,.71.34.72.85v.6c0,1-.53,1-.71,1Z"/><path d="M38,36.71a.75.75,0,0,1-.79-.74.74.74,0,0,1,.79-.72h.47a1.63,1.63,0,0,1,1.1.27.63.63,0,0,1,.15.46c0,.24,0,.73-1.26.73H38Z"/><path d="M61.09,36.73a.73.73,0,1,1,0-1.46H62c.5,0,.84.32.83.73s-.32.71-.84.73h-.88Z"/><path d="M49.93,48.77a.7.7,0,0,1-.66-.74,2,2,0,0,1,0-.35v-.35c0-.1,0-.2,0-.31a.68.68,0,0,1,.62-.72h0c.49,0,.76.23.8.62a5.06,5.06,0,0,1,0,1.23.69.69,0,0,1-.72.62Z"/><path d="M30.24,68.21a.75.75,0,0,1-.51-.21.74.74,0,0,1-.21-.53.72.72,0,0,1,.72-.72.77.77,0,0,1,.74.73.79.79,0,0,1-.73.73Z"/><path d="M50,52.93a17,17,0,0,1-2.63-33.7l1-.16.44-.07h2.63c.27.07.65.13,1,.2a14.85,14.85,0,0,1,2.3.5C61.74,22,65.83,26.78,66.84,34A16.79,16.79,0,0,1,52.62,52.73,18.32,18.32,0,0,1,50,52.93Zm0-32.46a15.59,15.59,0,0,0-11.08,4.71,15,15,0,0,0-4.38,10.69A15.48,15.48,0,0,0,49.94,51.49h.14a15.61,15.61,0,0,0,11.06-4.73A15.06,15.06,0,0,0,65.54,36,15.65,15.65,0,0,0,50,20.47Z"/></svg>