<svg xmlns="http://www.w3.org/2000/svg" viewBox="0 0 100 100"><defs><style>.a{fill:#fff;}</style></defs><title>iShop</title><path class="a" d="M-3-2.44V102.44H103V-2.44ZM50,74.63A24.63,24.63,0,1,1,74.63,50,24.66,24.66,0,0,1,50,74.63Zm0-46.26A21.63,21.63,0,1,0,71.63,50,21.66,21.66,0,0,0,50,28.37Z"/><path d="M50,24.05A26,26,0,1,0,76,50,26,26,0,0,0,50,24.05Zm0,50.17A24.22,24.22,0,1,1,74.22,50,24.24,24.24,0,0,1,50,74.22Z"/><path d="M50.86,46.56V37.78a.87.87,0,0,0-1.73,0v8.78A3.45,3.45,0,0,0,46.66,49H40.48a.87.87,0,0,0,0,1.73h6.18a3.45,3.45,0,0,0,6.69-1.71,3.42,3.42,0,0,0-2.49-2.49ZM50,51.63a1.74,1.74,0,1,1,1.73-1.73h0A1.74,1.74,0,0,1,50,51.63Z"/><path d="M50,32.59a.85.85,0,0,0,.86-.86v-.87a.87.87,0,0,0-1.73,0v.87a.86.86,0,0,0,.87.86Z"/><path d="M50,67.2a.85.85,0,0,0-.86.86v.87a.87.87,0,0,0,1.73,0h0v-.87A.86.86,0,0,0,50,67.2Z"/><path d="M69,49h-.86a.87.87,0,1,0,0,1.73H69A.87.87,0,1,0,69,49Z"/><path d="M31.83,49H31a.87.87,0,1,0,0,1.73h.86a.87.87,0,1,0,0-1.73Z"/><path d="M62.84,35.83l-.61.61a.87.87,0,1,0,1.22,1.23h0l.61-.61a.87.87,0,0,0,0-1.22A.88.88,0,0,0,62.84,35.83Z"/><path d="M36.54,62.13l-.61.61A.87.87,0,1,0,37.15,64h0l.61-.61a.87.87,0,0,0,0-1.22A.88.88,0,0,0,36.54,62.13Z"/><path d="M63.46,62.13a.87.87,0,0,0-1.23,1.22l.61.61a.87.87,0,0,0,1.23-1.22Z"/><path d="M37.16,35.83a.87.87,0,0,0-1.23,1.22l.61.61a.87.87,0,0,0,1.23-1.22Z"/></svg>