<svg xmlns="http://www.w3.org/2000/svg" viewBox="0 0 100 100"><defs><style>.a{fill:#fff;}</style></defs><title>iShop</title><path class="a" d="M-3-2.44V102.44H103V-2.44Zm61.57,21.1H41.24V14.79H58.57ZM34.27,44.31l3-9.71,3.29.58,4.15,1.19V85.45h-8.2L34.27,82Z"/><path d="M65.16,37.6,58.07,23.54V20.3h.39a1.17,1.17,0,0,0,1.17-1.17V14.44a1.17,1.17,0,0,0-1.17-1.17H41.54a1.17,1.17,0,0,0-1.17,1.17v4.69a1.17,1.17,0,0,0,1.17,1.17h.39v3.24L34.84,37.6A16.68,16.68,0,0,0,33.3,44V82.43a4.31,4.31,0,0,0,4.3,4.3H62.4a4.31,4.31,0,0,0,4.3-4.3V44a16.68,16.68,0,0,0-1.54-6.44Zm-22.45-22H57.29V18H42.71Zm1.44,8.74a1.24,1.24,0,0,0,.12-.53V20.3H55.73v3.52a1.24,1.24,0,0,0,.12.53l4.46,8.84a6.28,6.28,0,0,0-2,1.1,3.47,3.47,0,0,1-4.64,0,5.77,5.77,0,0,0-7.44,0,3.47,3.47,0,0,1-4.64,0,6.28,6.28,0,0,0-2-1.1Zm20.2,58.08a2,2,0,0,1-1.95,2H37.6a2,2,0,0,1-2-2V44a14.38,14.38,0,0,1,1.28-5.39l1.68-3.32a3.6,3.6,0,0,1,1.62.84,5.78,5.78,0,0,0,7.45,0,3.44,3.44,0,0,1,4.64,0,5.78,5.78,0,0,0,7.45,0,3.6,3.6,0,0,1,1.62-.84l1.68,3.32A14.38,14.38,0,0,1,64.35,44Zm0,0"/><path d="M39.16,75A1.17,1.17,0,0,0,38,76.18v4.69a1.17,1.17,0,0,0,2.34,0V76.18A1.17,1.17,0,0,0,39.16,75Zm0,0"/><path d="M40.6,39.19a1.18,1.18,0,0,0-1.58.52A12.47,12.47,0,0,0,38,44V71.49a1.17,1.17,0,0,0,2.34,0V44a10.49,10.49,0,0,1,.78-3.27,1.17,1.17,0,0,0-.51-1.58Zm0,0"/><path d="M47.79,25h4.42a1.17,1.17,0,0,0,0-2.34H47.79a1.17,1.17,0,0,0,0,2.34Zm0,0"/></svg>