<svg xmlns="http://www.w3.org/2000/svg" viewBox="0 0 100 100"><defs><style>.a{fill:#fff;}</style></defs><title>iShop</title><path class="a" d="M-3-2.44V102.44H103V-2.44ZM79.5,79.64H69.23V33.89H79.5Z"/><path d="M80.91,81H19.09V57.3l2.8-.13,1.46-23.63h10l1.46,23.63h3.22a2.13,2.13,0,0,0,.07-.63c-.52-2.52.7-4,2.67-5.49C44,48.72,47,46.1,50.19,43.47v7.81c.54-.39.85-.6,1.14-.83,1.75-1.44,3.48-2.91,5.27-4.31a2,2,0,0,0,.84-1.76c0-3.84,0-7.67,0-11.61H80.91ZM21.7,60.13V78.31H57.32V49c-2.29,1.9-4.42,3.64-6.51,5.42a1.55,1.55,0,0,0-.27,1c0,1.48,0,3,0,4.51H47.75V49.09c-2.33,1.92-4.46,3.66-6.55,5.45a1.71,1.71,0,0,0-.3,1.12c0,1.46,0,2.93,0,4.45h-8.3L31.13,36.46H25.85L24.4,60.13ZM78.33,78.32V35.43H60.13V78.32Z"/><path d="M26.12,30.71a10.81,10.81,0,0,1,1-6,1.18,1.18,0,0,1,1.06-.44c2.4.59,3.88-.47,5.12-2.42,1.59-2.49,3.84-3.35,6.13-2.52A12.68,12.68,0,0,0,39,20.7c-.14.69-.42,1-1.22,1a3.73,3.73,0,0,0-1.88,1,7.74,7.74,0,0,0-1.28,1.65A5.21,5.21,0,0,1,29.77,27c-.74,0-.94.36-1,.93-.08.78-.12,1.56-.19,2.46Z"/><path d="M26.33,67.1h3.09v2.46H26.33Z"/><path d="M40.56,67.12v2.46h-3.1V67.12Z"/><path d="M51.66,69.59H48.55V67.12h3.11Z"/><path d="M66.19,62.49V65h-2.9V62.49Z"/><path d="M66.2,39.51V42H63.26V39.51Z"/><path d="M66.22,74.08v2.5H63.31v-2.5Z"/><path d="M72.38,42v-2.5h2.85V42Z"/><path d="M72.41,62.45h2.82V65H72.41Z"/><path d="M75.29,74.09V76.6h-2.9V74.09Z"/><path d="M66.22,51v2.42H63.3V51Z"/><path d="M75.3,51v2.44H72.4V51Z"/></svg>