<svg xmlns="http://www.w3.org/2000/svg" viewBox="0 0 100 100"><defs><style>.a{fill:#fff;}.b{fill:#e6e7e8;}.c{fill:none;stroke:#000;stroke-miterlimit:10;stroke-width:2px;}</style></defs><title>iShop</title><path class="a" d="M-3-2.44V102.44H103V-2.44ZM63.28,51H51V63.28a1,1,0,0,1-2,0V51H36.72a1,1,0,0,1,0-2H49V36.72a1,1,0,0,1,2,0V49H63.28a1,1,0,0,1,0,2Z"/><path class="b" d="M50,73.89A23.89,23.89,0,1,1,73.89,50,23.92,23.92,0,0,1,50,73.89Zm0-44.78A20.89,20.89,0,1,0,70.89,50,20.91,20.91,0,0,0,50,29.11Z"/><path class="b" d="M50,73.89A23.89,23.89,0,1,1,73.89,50,23.92,23.92,0,0,1,50,73.89Zm0-44.78A20.89,20.89,0,1,0,70.89,50,20.91,20.91,0,0,0,50,29.11Z"/><circle class="c" cx="50" cy="50" r="24.37"/></svg>