<svg xmlns="http://www.w3.org/2000/svg" viewBox="0 0 100 100"><defs><style>.a{fill:#fff;}</style></defs><title>iShop</title><path class="a" d="M-3-2.44V102.44H103V-2.44ZM37.4,49.7l6-1.39,6.59,1,7.94,1.11,8.61-.88L69,48.9V85.25H37.4Z"/><path d="M38.06,86.5c-1.44,0-1.81-.37-1.81-1.77V29.54c0-1.64.31-1.95,1.93-1.95H60a1.14,1.14,0,0,0,1.31-1c.25-1,.53-2,.81-3s.49-1.74.72-2.62a1.65,1.65,0,0,1,1.34-1.33c2.72-.65,5.43-1.34,8.14-2l3.82-1a2.22,2.22,0,0,1,.49-.07,1.14,1.14,0,0,1,1.2.93c.17.68-.27,1.26-1.11,1.47C73,20,69.53,20.87,66.05,21.71A1.54,1.54,0,0,0,64.79,23c-.24,1-.5,1.92-.78,2.91l-.47,1.72H68.2c1.47,0,1.85.38,1.85,1.83V84.68c0,1.43-.39,1.82-1.79,1.82Zm5.48-37a9.56,9.56,0,0,0-4.67,1.08l-.19.1V84H67.55V50.38l-.44.1a33,33,0,0,1-7.41.83c-.8,0-1.61,0-2.41-.08l-.28,0-.29.85L49.64,77.57a1.27,1.27,0,0,1-1.19,1.06A1.29,1.29,0,0,1,47.31,77l6.08-21.82,1.1-4-.35-.1a4.84,4.84,0,0,0-.53-.14s-4.26-.69-5.73-.91A30,30,0,0,0,43.54,49.5ZM63.73,30a1.08,1.08,0,0,0-1.16.94c-.56,2.08-1.14,4.15-1.72,6.22L57.63,48.83l.46,0c.59,0,1.17,0,1.76,0a28.08,28.08,0,0,0,7.45-1l.26-.07V30.05H65.17Zm-21,17.13c2.23.11,4.45.38,6.67.65l1,.13c1,.12,2,.28,3,.45l1.67.27L60.33,30.1H38.69V47.72l.42-.06c.4,0,.81-.14,1.21-.22a11.75,11.75,0,0,1,2.18-.29Z"/><path d="M31.21,42.6a1.56,1.56,0,0,1-.7-.2,15.36,15.36,0,0,1-6.25-5.85,15.3,15.3,0,0,1,12.44-23l1,0a15.47,15.47,0,0,1,13.37,8.44,1.22,1.22,0,0,1-.49,1.66A1.17,1.17,0,0,1,48.92,23,12.85,12.85,0,0,0,24.6,28.06c-.28,5.19,1.95,9.23,6.64,12a3.33,3.33,0,0,1,1,.87A1.07,1.07,0,0,1,32,42.26,1.14,1.14,0,0,1,31.21,42.6Z"/><path d="M34.33,27a1.33,1.33,0,0,1-.94-.44c-1-1-2.05-2.1-3.05-3.17A1.09,1.09,0,0,1,30.11,22c.17-.35.44-.67,1.31-.67a3.17,3.17,0,0,1,.58.34q1.59,1.56,3.12,3.19a1.22,1.22,0,0,1-.79,2.1Z"/><path d="M39,25.31a1.12,1.12,0,0,1-.78-.33,1.09,1.09,0,0,1-.38-.82,1.28,1.28,0,0,1,.41-.95c1-1,2-2.06,3-3.06a1.2,1.2,0,0,1,.83-.38,1.14,1.14,0,0,1,.52.13c.4.18.68.47.72,1.32a5.15,5.15,0,0,1-.48.71c-.89,1-1.83,1.87-2.77,2.79A1.6,1.6,0,0,1,39,25.31Z"/><path d="M29.58,34.72a1.13,1.13,0,0,1-.78-.33,1.17,1.17,0,0,1-.38-.81,1.34,1.34,0,0,1,.41-1c1-1,2-2.06,3.05-3.06a1.2,1.2,0,0,1,.83-.38,1.27,1.27,0,0,1,.52.12c.41.19.68.49.71,1.33a4,4,0,0,1-.46.7c-.84.9-1.72,1.77-2.6,2.63l-.29.29A1.48,1.48,0,0,1,29.58,34.72Z"/></svg>