<svg xmlns="http://www.w3.org/2000/svg" viewBox="0 0 100 100"><defs><style>.a{fill:#fff;}.b{fill:#e6e7e8;}</style></defs><title>iShop</title><path class="a" d="M-3-2.44V102.44H103V-2.44Zm67.89,27.5.6-.62a.42.42,0,0,1,.3-.12l2.85,0a.36.36,0,0,1,.28.12l.61.62a.41.41,0,0,1,.1.21H64.78A.49.49,0,0,1,64.89,25.06Zm3,14.8v6.86H66.36V39.86h.34a.84.84,0,0,1,.31-.12.77.77,0,0,1,.54.12ZM53.43,25.06l.6-.62a.42.42,0,0,1,.3-.12l2.85,0a.36.36,0,0,1,.28.12l.61.62a.41.41,0,0,1,.1.21H53.32A.49.49,0,0,1,53.43,25.06Zm3.39,14.8v6.86H55.28V39.86h.34a.91.91,0,0,1,.31-.12.77.77,0,0,1,.54.12Zm-9.23-14.8.61-.62a.4.4,0,0,1,.29-.12l2.86,0a.36.36,0,0,1,.28.12l.6.62a.43.43,0,0,1,.11.21H47.49A.48.48,0,0,1,47.59,25.06ZM46.31,39.4H50.1v1.66H46.31Zm3.26,2.73v1.14h-2.7V42.13ZM38.14,39.4h3.79v1.66H38.14Zm3.24,2.73v1.14h-2.7V42.13Zm-7.3-16.24a.48.48,0,0,1,.07-.33v-.27h.27a.86.86,0,0,1,.32-.1.94.94,0,0,1,.53.1h.42v5.44H34.15v-.44a.56.56,0,0,1-.07-.18ZM30,39.4h3.79v1.66H30Zm3.26,2.73v1.14h-2.7V42.13Zm-5.7-12V25.29h.34a.81.81,0,0,1,.31-.1,1,1,0,0,1,.54.1h.35v5.44H27.51Zm-6.65,0V25.29h.35a.76.76,0,0,1,.31-.1,1,1,0,0,1,.54.1h.35v5.44H20.86ZM22.67,71.8v5.39H22a.5.5,0,0,1-.34,0H21V76.7a1,1,0,0,1-.07-.34V71.8a.88.88,0,0,1,.07-.33V71h.63A.5.5,0,0,1,22,71h.7ZM20.28,53.49a.4.4,0,0,1,.1-.23l.61-.62a.38.38,0,0,1,.29-.12l2.87-.12a.36.36,0,0,1,.28.12l.59.76a.41.41,0,0,1,.1.21Zm2.06-10.22V42.13H25v1.14Zm3.23-2.21H21.78V39.4h3.79ZM28.74,71.8v5.39h-.69a1,1,0,0,1-.17,0,1.13,1.13,0,0,1-.18,0h-.62V76.7a1,1,0,0,1-.07-.34V71.8a.88.88,0,0,1,.07-.33V71h.62a1.13,1.13,0,0,1,.18,0,1,1,0,0,1,.17,0h.69ZM25.92,53.37a.44.44,0,0,1,.1-.23l.61-.62a.43.43,0,0,1,.35,0l2.83-.12a.36.36,0,0,1,.28.12l.57.64a.43.43,0,0,1,.11.21Zm8.9,18.43v5.39h-.7a.86.86,0,0,1-.17,0,1,1,0,0,1-.17,0h-.62V76.7a.8.8,0,0,1-.07-.34V71.8a.8.8,0,0,1,.07-.34V71h.62a1,1,0,0,1,.17,0,.86.86,0,0,1,.17,0h.7Zm-3.1-18.36a.44.44,0,0,1,.1-.23l.57-.57a.42.42,0,0,1,.3-.12l2.87-.12a.36.36,0,0,1,.28.12l.62.71a.43.43,0,0,1,.11.21ZM40.89,71.8v5.39H40.2a1,1,0,0,1-.17,0,.86.86,0,0,1-.17,0h-.63V76.7a1,1,0,0,1-.07-.34V71.8a.88.88,0,0,1,.07-.33V71h.63a.86.86,0,0,1,.17,0,1,1,0,0,1,.17,0h.69ZM37.4,53.49a.4.4,0,0,1,.1-.23l.61-.62a.38.38,0,0,1,.29-.12l2.88-.12a.36.36,0,0,1,.27.12l.56.76a.41.41,0,0,1,.1.21Zm4.93-27.78v5H40.79V25.29h.35a.76.76,0,0,1,.31-.1,1,1,0,0,1,.54.1h.34ZM48,77.4h-.43a.78.78,0,0,1-.31.07.82.82,0,0,1-.31-.07h-.39v-.56s0,0,0-.09v-4s0-.06,0-.09v-.62H48Zm-2.51-15v-1h2.44v1Zm2.94-1.85H45V59.36h3.43Zm.4-7.26h3.43v1.16H48.79Zm2.92,3H49.27v-1h2.44Zm1.51,16.5V77.4h-.41a.78.78,0,0,1-.31.07.82.82,0,0,1-.31-.07h-.41V72.05h1.44Zm2.32-10.39H53.1v-1h2.44ZM56,60.52H52.6V59.36H56ZM58.5,72.76V77.4h-.41a.78.78,0,0,1-.31.07.82.82,0,0,1-.31-.07h-.41V72.05H58.5Zm.87-16.5H56.92v-1h2.45Zm.48-1.84H56.42V53.26h3.43Zm3.83,4.94v1.16H60.25V59.36ZM60.82,46.72V39.86h.34a.84.84,0,0,1,.31-.12.77.77,0,0,1,.54.12h.35v6.86Zm-.07,14.61h2.44v1H60.75Zm3,11.43V77.4h-.41a.78.78,0,0,1-.31.07.82.82,0,0,1-.31-.07h-.41V72.05h1.44ZM59,25.29a.48.48,0,0,1,.1-.23l.61-.62a.4.4,0,0,1,.29-.12l2.86,0a.38.38,0,0,1,.28.12l.6.62a.43.43,0,0,1,.11.21Zm8,31H64.56v-1H67Zm.5-1.84H64.07V53.26H67.5Zm3.67,16.1v6.39h-2V69.54h2Zm-2.79-8.15v-1h2.45v1Zm3-1.85H67.9V59.36h3.43Zm3.32-4.26H72.21v-1h2.44Zm.49-1.84H71.71V53.26h3.43Zm-3.31-8.48V40.63a.77.77,0,0,1,.07-.43v-.34h.27a.84.84,0,0,1,.31-.12.77.77,0,0,1,.54.12h.42v6.86H71.9v-.56A.81.81,0,0,1,71.83,45.94ZM70.64,25.29a.4.4,0,0,1,.1-.23l.61-.62a.38.38,0,0,1,.29-.12l2.86,0a.36.36,0,0,1,.27.12l.61.62a.41.41,0,0,1,.1.21Zm7.73,45.23v6.39h-2V69.54h2Zm.11-8.15H76v-1h2.44ZM79,60.52H75.53V59.36H79Zm0-20.13v6.33H77.46V39.86h.34a.77.77,0,0,1,.85,0H79Zm-2.69-15.1a.49.49,0,0,1,.11-.23l.6-.62a.42.42,0,0,1,.3-.12l2.85,0a.36.36,0,0,1,.28.12l.61.62a.51.51,0,0,1,.1.21Z"/><path d="M57.65,48.17H55.4c-.52,0-1.3,0-1.3-1V40.54a1.72,1.72,0,0,1,.78-1.35,1.75,1.75,0,0,0,.66-1.46V35.78h2v2a1.73,1.73,0,0,0,.67,1.46,1.72,1.72,0,0,1,.8,1.33v6.59c0,1-.78,1-1.3,1M56,36.19h0V37.7a2.24,2.24,0,0,1-.83,1.73,1.33,1.33,0,0,0-.61,1V47c0,.57.25.62.89.62h2.25c.64,0,.88,0,.88-.62V40.54a1.28,1.28,0,0,0-.62-1,2.16,2.16,0,0,1-.85-1.73v-1.5H56Z"/><path d="M63.19,48.17H60.94c-.52,0-1.3,0-1.3-1V40.54a1.72,1.72,0,0,1,.78-1.35,1.75,1.75,0,0,0,.66-1.46V35.78H63v1.95a1.76,1.76,0,0,0,.68,1.46,1.76,1.76,0,0,1,.8,1.33v6.6c0,1-.78,1-1.3,1m-1.73-12h0v1.5a2.23,2.23,0,0,1-.84,1.73,1.35,1.35,0,0,0-.6,1V47c0,.58.24.63.86.63H63.1c.65,0,.89,0,.89-.63V40.54a1.29,1.29,0,0,0-.63-1,2.18,2.18,0,0,1-.84-1.73v-1.5H61.44Z"/><path d="M68.73,48.17H66.45c-.52,0-1.3,0-1.3-1V40.54a1.72,1.72,0,0,1,.78-1.35,1.74,1.74,0,0,0,.65-1.46V35.78h2v2a1.76,1.76,0,0,0,.68,1.46,1.71,1.71,0,0,1,.79,1.33v6.59c0,1-.78,1-1.29,1M67,36.19h0V37.7a2.2,2.2,0,0,1-.83,1.73,1.32,1.32,0,0,0-.6,1V47c0,.57.24.62.86.62h2.25c.64,0,.87,0,.87-.62V40.54a1.28,1.28,0,0,0-.62-1,2.16,2.16,0,0,1-.85-1.73v-1.5H67Z"/><path d="M74.29,48.17H72c-.52,0-1.3,0-1.3-1V40.54a1.72,1.72,0,0,1,.78-1.35,1.75,1.75,0,0,0,.66-1.46V35.78h2v1.95a1.76,1.76,0,0,0,.68,1.46,1.73,1.73,0,0,1,.8,1.33v6.6c0,1-.78,1-1.3,1m-1.73-12h0v1.5a2.25,2.25,0,0,1-.83,1.73,1.33,1.33,0,0,0-.61,1V47c0,.58.24.63.88.63h2.25c.64,0,.89,0,.89-.63V40.54a1.29,1.29,0,0,0-.63-1,2.22,2.22,0,0,1-.85-1.73v-1.5H72.66Z"/><path d="M79.83,48.17H77.58c-.52,0-1.3,0-1.3-1V40.54a1.72,1.72,0,0,1,.78-1.35,1.75,1.75,0,0,0,.66-1.46V35.78h2v1.95a1.76,1.76,0,0,0,.68,1.46,1.73,1.73,0,0,1,.8,1.33v6.6c0,1-.78,1-1.3,1m-1.73-12h0v1.5a2.23,2.23,0,0,1-.84,1.73,1.35,1.35,0,0,0-.6,1V47c0,.58.24.63.88.63h2.25c.64,0,.89,0,.89-.63V40.54a1.29,1.29,0,0,0-.63-1,2.22,2.22,0,0,1-.85-1.73v-1.5H78.2Z"/><path d="M57.65,48.17H55.4c-.52,0-1.3,0-1.3-1V40.54a1.72,1.72,0,0,1,.78-1.35,1.75,1.75,0,0,0,.66-1.46V35.78h2v2a1.73,1.73,0,0,0,.67,1.46,1.72,1.72,0,0,1,.8,1.33v6.59c0,1-.78,1-1.3,1M56,36.19h0V37.7a2.24,2.24,0,0,1-.83,1.73,1.33,1.33,0,0,0-.61,1V47c0,.57.25.62.89.62h2.25c.64,0,.88,0,.88-.62V40.54a1.28,1.28,0,0,0-.62-1,2.16,2.16,0,0,1-.85-1.73v-1.5H56Z"/><path d="M63.19,48.17H60.94c-.52,0-1.3,0-1.3-1V40.54a1.72,1.72,0,0,1,.78-1.35,1.75,1.75,0,0,0,.66-1.46V35.78H63v1.95a1.76,1.76,0,0,0,.68,1.46,1.76,1.76,0,0,1,.8,1.33v6.6c0,1-.78,1-1.3,1m-1.73-12h0v1.5a2.23,2.23,0,0,1-.84,1.73,1.35,1.35,0,0,0-.6,1V47c0,.58.24.63.86.63H63.1c.65,0,.89,0,.89-.63V40.54a1.29,1.29,0,0,0-.63-1,2.18,2.18,0,0,1-.84-1.73v-1.5H61.44Z"/><path d="M68.73,48.17H66.45c-.52,0-1.3,0-1.3-1V40.54a1.72,1.72,0,0,1,.78-1.35,1.74,1.74,0,0,0,.65-1.46V35.78h2v2a1.76,1.76,0,0,0,.68,1.46,1.71,1.71,0,0,1,.79,1.33v6.59c0,1-.78,1-1.29,1M67,36.19h0V37.7a2.2,2.2,0,0,1-.83,1.73,1.32,1.32,0,0,0-.6,1V47c0,.57.24.62.86.62h2.25c.64,0,.87,0,.87-.62V40.54a1.28,1.28,0,0,0-.62-1,2.16,2.16,0,0,1-.85-1.73v-1.5H67Z"/><path d="M74.29,48.17H72c-.52,0-1.3,0-1.3-1V40.54a1.72,1.72,0,0,1,.78-1.35,1.75,1.75,0,0,0,.66-1.46V35.78h2v1.95a1.76,1.76,0,0,0,.68,1.46,1.73,1.73,0,0,1,.8,1.33v6.6c0,1-.78,1-1.3,1m-1.73-12h0v1.5a2.25,2.25,0,0,1-.83,1.73,1.33,1.33,0,0,0-.61,1V47c0,.58.24.63.88.63h2.25c.64,0,.89,0,.89-.63V40.54a1.29,1.29,0,0,0-.63-1,2.22,2.22,0,0,1-.85-1.73v-1.5H72.66Z"/><path d="M79.83,48.17H77.58c-.52,0-1.3,0-1.3-1V40.54a1.72,1.72,0,0,1,.78-1.35,1.75,1.75,0,0,0,.66-1.46V35.78h2v1.95a1.76,1.76,0,0,0,.68,1.46,1.73,1.73,0,0,1,.8,1.33v6.6c0,1-.78,1-1.3,1m-1.73-12h0v1.5a2.23,2.23,0,0,1-.84,1.73,1.35,1.35,0,0,0-.6,1V47c0,.58.24.63.88.63h2.25c.64,0,.89,0,.89-.63V40.54a1.29,1.29,0,0,0-.63-1,2.22,2.22,0,0,1-.85-1.73v-1.5H78.2Z"/><path d="M24.38,32.3H21.57A1.73,1.73,0,0,1,20,30.57V25.62a4.1,4.1,0,0,1,.9-2,7.52,7.52,0,0,0,.9-3.27V18.93h2.39v.25a1,1,0,0,0,0,.24v1a8.35,8.35,0,0,0,.92,3.27,4.11,4.11,0,0,1,.93,2v4.9a1.74,1.74,0,0,1-1.57,1.73M22.23,19.38v1a7.78,7.78,0,0,1-1,3.46,3.6,3.6,0,0,0-.81,1.73v4.92a1.26,1.26,0,0,0,1.14,1.36h2.79a1.26,1.26,0,0,0,1.14-1.36v-4.9a3.38,3.38,0,0,0-.83-1.73,8.63,8.63,0,0,1-1-3.47v-1Z"/><path d="M31,32.3H28.22a1.72,1.72,0,0,1-1.57-1.73V25.62a4,4,0,0,1,.9-2,7.66,7.66,0,0,0,.9-3.27V18.93h2.39v.25a1,1,0,0,0,0,.24v1a8.51,8.51,0,0,0,.91,3.27,4,4,0,0,1,.94,2v4.9a1.74,1.74,0,0,1-1.58,1.73M28.88,19.38v1a7.78,7.78,0,0,1-1,3.46,3.6,3.6,0,0,0-.81,1.73v4.92a1.26,1.26,0,0,0,1.14,1.36H31a1.26,1.26,0,0,0,1.15-1.36v-4.9a3.46,3.46,0,0,0-.83-1.73,8.64,8.64,0,0,1-1-3.47v-1Z"/><path d="M37.69,32.3h-2.8a1.73,1.73,0,0,1-1.58-1.73V25.62a4.1,4.1,0,0,1,.9-2,7.39,7.39,0,0,0,.9-3.27v-1a1,1,0,0,0,0-.24v-.25H37.5v1.46a8.52,8.52,0,0,0,.92,3.27,4,4,0,0,1,.93,2v4.9a1.73,1.73,0,0,1-1.57,1.73M35.54,19.38v1a7.77,7.77,0,0,1-1,3.46,3.64,3.64,0,0,0-.84,1.73v4.92a1.26,1.26,0,0,0,1.15,1.36h2.8a1.26,1.26,0,0,0,1.14-1.36v-4.9A3.3,3.3,0,0,0,38,23.89a8.79,8.79,0,0,1-1-3.47v-1Z"/><path d="M44.36,32.3H41.55A1.72,1.72,0,0,1,40,30.57V25.62a4,4,0,0,1,.9-2,7.66,7.66,0,0,0,.9-3.27V18.93h2.33v1.46A8.7,8.7,0,0,0,45,23.66a4,4,0,0,1,.94,2v4.9a1.74,1.74,0,0,1-1.58,1.73M42.21,19.38v1a7.78,7.78,0,0,1-1,3.46,3.63,3.63,0,0,0-.83,1.73v4.92a1.26,1.26,0,0,0,1.14,1.36h2.81a1.26,1.26,0,0,0,1.14-1.36v-4.9a3.46,3.46,0,0,0-.83-1.73,8.64,8.64,0,0,1-1-3.47v-1Z"/><path class="b" d="M57.27,35.21H55.78a.55.55,0,0,0-.5.57v.38a.56.56,0,0,0,.5.57h1.49a.56.56,0,0,0,.5-.57v-.38a.55.55,0,0,0-.5-.57"/><path class="b" d="M62.81,35.21H61.25a.55.55,0,0,0-.52.57v.38a.55.55,0,0,0,.52.57h1.49a.56.56,0,0,0,.5-.57v-.38a.54.54,0,0,0-.43-.57"/><path class="b" d="M68.35,35.21H66.86a.55.55,0,0,0-.5.57v.38a.56.56,0,0,0,.5.57h1.49a.55.55,0,0,0,.52-.57v-.38a.55.55,0,0,0-.52-.57"/><path class="b" d="M73.91,35.21H72.42a.55.55,0,0,0-.52.57v.38a.55.55,0,0,0,.52.57h1.49a.56.56,0,0,0,.5-.57v-.38a.55.55,0,0,0-.5-.57"/><path class="b" d="M79.45,35.21H78a.55.55,0,0,0-.5.57v.38a.56.56,0,0,0,.5.57h1.49a.56.56,0,0,0,.5-.57v-.38a.54.54,0,0,0-.5-.57h0"/><path class="b" d="M24.15,70.35c0,.12-.15.22-.34.22H21.63c-.19,0-.35-.1-.35-.22v-.9c0-.12.16-.23.35-.23h2.18c.19,0,.34.11.34.23Z"/><path class="b" d="M30.23,70.35c0,.12-.16.22-.35.22H27.7c-.19,0-.34-.1-.34-.22v-.9c0-.12.15-.23.34-.23h2.18c.19,0,.35.11.35.23Z"/><path class="b" d="M36.31,70.35c0,.12-.16.22-.35.22H33.78c-.19,0-.35-.1-.35-.22v-.9c0-.12.16-.23.35-.23H36c.19,0,.35.11.35.23Z"/><path class="b" d="M42.38,70.35c0,.12-.15.22-.34.22H39.86c-.19,0-.35-.1-.35-.22v-.9c0-.12.16-.23.35-.23H42c.19,0,.34.11.34.23Z"/><path class="b" d="M49.22,71.56c0,.11-.14.19-.29.19H47c-.17,0-.29,0-.29-.19v-.78c0-.1.13-.19.29-.19h1.87c.16,0,.29,0,.29.19Z"/><path class="b" d="M54.5,71.56c0,.11-.14.19-.29.19H52.32c-.17,0-.29,0-.29-.19v-.78c0-.1.13-.19.29-.19h1.89c.15,0,.29,0,.29.19Z"/><path class="b" d="M59.78,71.56c0,.11-.14.19-.29.19H57.6c-.17,0-.29,0-.29-.19v-.78c0-.1.13-.19.29-.19h1.92c.17,0,.3,0,.3.19Z"/><path class="b" d="M65.06,71.56c0,.11-.14.19-.29.19H62.88c-.17,0-.29,0-.29-.19v-.78c0-.1.13-.19.29-.19h1.83c.18,0,.3,0,.3.19Z"/><path class="b" d="M80.14,68.81c0,.14-.19.26-.42.26H77.14c-.22,0-.41-.12-.41-.26V67.74c0-.14.19-.26.41-.26h2.58c.23,0,.42.12.42.26Z"/><path class="b" d="M72.94,68.81c0,.14-.19.26-.42.26H69.91c-.23,0-.42-.12-.42-.26V67.74c0-.14.19-.26.42-.26h2.58c.22,0,.41.12.41.26Z"/><path class="b" d="M21.41,51.51a.25.25,0,0,1,.24-.25H22.8a.25.25,0,0,1,.24.25v.78H21.41Z"/><path class="b" d="M21.28,52h1.89v.29H21.28Z"/><path class="b" d="M27.11,51.51a.25.25,0,0,1,.24-.25h1.14a.25.25,0,0,1,.24.25v.78H27.09Z"/><path class="b" d="M27,52h1.84v.29H27Z"/><path class="b" d="M32.81,51.51a.25.25,0,0,1,.24-.25h1.14a.25.25,0,0,1,.25.25v.78H32.81Z"/><path class="b" d="M32.71,52h1.83v.29H32.71Z"/><path class="b" d="M38.54,51.51a.25.25,0,0,1,.24-.25h1.14a.25.25,0,0,1,.25.25v.78H38.54Z"/><path class="b" d="M38.4,52h1.91v.29H38.4Z"/><path class="b" d="M48.62,23.38a.26.26,0,0,1,.22-.29H50a.25.25,0,0,1,.24.26v.78H48.62Z"/><path class="b" d="M48.51,23.89h1.84v.27H48.51Z"/><path class="b" d="M54.45,23.38a.26.26,0,0,1,.22-.29h1.16a.26.26,0,0,1,.25.26v.78H54.45Z"/><path class="b" d="M54.33,23.89h1.83v.27H54.33Z"/><path class="b" d="M60.18,23.38a.26.26,0,0,1,.22-.29h1.17a.26.26,0,0,1,.24.26v.78H60.18Z"/><path class="b" d="M60,23.89h1.9v.27H60Z"/><path class="b" d="M65.9,23.38a.26.26,0,0,1,.22-.29H67.3a.26.26,0,0,1,.25.26v.78H65.92Z"/><path class="b" d="M65.81,23.89h1.83v.27H65.81Z"/><path class="b" d="M71.74,23.38a.26.26,0,0,1,.22-.29h1.18a.26.26,0,0,1,.24.26v.78H71.75Z"/><path class="b" d="M71.64,23.89h1.83v.27H71.64Z"/><path class="b" d="M77.43,23.38a.26.26,0,0,1,.22-.29h1.18a.26.26,0,0,1,.25.26v.78H77.45Z"/><path class="b" d="M77.33,23.89h1.84v.27H77.33Z"/><path class="b" d="M24.12,19.54a.4.4,0,0,1-.34.45H22.16a.39.39,0,0,1-.34-.44h0v-.45a.39.39,0,0,1,.34-.43h1.63a.4.4,0,0,1,.35.43Z"/><path class="b" d="M30.78,19.54a.4.4,0,0,1-.34.45H28.81a.4.4,0,0,1-.35-.44h0v-.45a.4.4,0,0,1,.35-.43h1.63a.39.39,0,0,1,.34.43Z"/><path class="b" d="M37.45,19.54a.4.4,0,0,1-.34.45H35.48a.39.39,0,0,1-.35-.44h0v-.45a.39.39,0,0,1,.35-.43H37a.39.39,0,0,1,.34.43Z"/><path class="b" d="M44.1,19.54a.4.4,0,0,1-.34.45H42.21a.4.4,0,0,1-.35-.44h0v-.45a.4.4,0,0,1,.35-.43h1.63a.39.39,0,0,1,.34.43Z"/><path d="M83.36,66.66H16.66V63.84h66.7ZM17.47,65.8H82.55V64.64H17.47Z"/><path d="M83.34,50.79H16.66V48H83.34ZM17.48,50h65v-1.1h-65Z"/><path d="M83.34,35H16.66V32.18H83.34Zm-65.86-.87h65V33h-65Z"/><path d="M24.9,78.92H20.67a.64.64,0,0,1-.64-.64V71.34c0-1,.52-1.56,1.41-1.56h2.71c.85,0,1.35.57,1.35,1.56v6.92a.64.64,0,0,1-.62.66h0M21.4,70.26c-.66,0-1,.37-1,1.13v6.92a.23.23,0,0,0,.21.23H24.9a.23.23,0,0,0,.21-.23V71.39c0-.75-.32-1.13-.92-1.13Z"/><path d="M30.91,78.92H26.75a.64.64,0,0,1-.64-.64V71.34c0-1,.5-1.56,1.4-1.56h2.72c.85,0,1.35.57,1.35,1.56v6.92a.64.64,0,0,1-.62.66h0m-3.46-8.66c-.66,0-1,.37-1,1.13v6.92a.23.23,0,0,0,.21.23h4.15a.23.23,0,0,0,.21-.23V71.39c0-.75-.31-1.13-.92-1.13Z"/><path d="M37,78.92H32.86a.64.64,0,0,1-.64-.64V71.34c0-1,.5-1.56,1.4-1.56h2.72c.85,0,1.35.57,1.35,1.56v6.92a.64.64,0,0,1-.62.66h0m-3.46-8.66c-.66,0-1,.37-1,1.13v6.92a.23.23,0,0,0,.21.23H37a.23.23,0,0,0,.2-.23V71.39c0-.75-.31-1.13-.91-1.13Z"/><path d="M43.06,78.92H38.9a.64.64,0,0,1-.64-.64V71.34c0-1,.5-1.56,1.41-1.56h2.71c.85,0,1.35.57,1.35,1.56v6.92a.64.64,0,0,1-.62.66h0m-3.46-8.66c-.66,0-1,.37-1,1.13v6.92a.23.23,0,0,0,.21.23H43a.23.23,0,0,0,.21-.23V71.39c0-.75-.31-1.13-.92-1.13Z"/><path d="M49.81,78.92H46.23a.6.6,0,0,1-.58-.59V72.39A1.2,1.2,0,0,1,46.9,71h2.23c.75,0,1.2.51,1.2,1.37v5.94a.59.59,0,0,1-.57.59m-3-7.46c-.56,0-.82.31-.82.93v5.94a.16.16,0,0,0,.14.17h3.6a.16.16,0,0,0,.16-.15v-6c0-.62-.26-.93-.76-.93Z"/><path d="M55.09,78.92H51.51a.6.6,0,0,1-.58-.59V72.39A1.2,1.2,0,0,1,52.18,71h2.34c.74,0,1.19.51,1.19,1.37v5.94a.59.59,0,0,1-.57.59m-3-7.46c-.55,0-.81.31-.81.93v5.94a.15.15,0,0,0,.14.17h3.6a.15.15,0,0,0,.15-.15v-6c0-.62-.26-.93-.76-.93Z"/><path d="M60.37,78.92H56.79a.6.6,0,0,1-.58-.59V72.39A1.2,1.2,0,0,1,57.46,71H59.8c.74,0,1.19.51,1.19,1.37v5.94a.59.59,0,0,1-.57.59m-3-7.46c-.55,0-.81.31-.81.93v5.94a.15.15,0,0,0,.14.17h3.6a.15.15,0,0,0,.15-.15v-6c0-.62-.26-.93-.76-.93Z"/><path d="M65.65,78.92H62.07a.6.6,0,0,1-.58-.59V72.39A1.2,1.2,0,0,1,62.74,71h2.34c.74,0,1.19.51,1.19,1.37v5.94a.59.59,0,0,1-.57.59m-3-7.46c-.55,0-.81.31-.81.93v5.94a.15.15,0,0,0,.14.17h3.6a.15.15,0,0,0,.15-.15v-6c0-.62-.26-.93-.76-.93Z"/><path d="M81,78.92H76a.73.73,0,0,1-.71-.75h0V70c0-1.57,1-1.73,1.63-1.73h3.22c.46,0,1.55.18,1.55,1.73v8.17a.72.72,0,0,1-.7.75h0M76.83,68.65c-.81,0-1.19.45-1.19,1.37v8.17a.29.29,0,0,0,.27.31h4.94a.3.3,0,0,0,.28-.31h0V70c0-1.14-.63-1.37-1.13-1.37Z"/><path d="M73.75,78.92H68.82a.73.73,0,0,1-.71-.75h0V70c0-1.57,1-1.73,1.63-1.73H73c.47,0,1.56.18,1.56,1.73v8.17a.72.72,0,0,1-.71.75h0M69.74,68.64c-.82,0-1.2.45-1.2,1.36v8.17a.3.3,0,0,0,.28.32h5a.3.3,0,0,0,.29-.3V70c0-1.14-.62-1.37-1.14-1.37Z"/><path d="M84.92,81.57H15.08V26.17h2.43V78.75h65V26.17h2.43Zm-69-.87H84.07V27h-.73V79.61H16.66V27h-.73Z"/><rect x="20.21" y="53.21" width="4.93" height="0.43"/><path d="M24.9,64.19H20.38a.36.36,0,0,1-.26-.11.4.4,0,0,1-.12-.27V53.54a.66.66,0,0,1,.17-.45l.61-.62a.59.59,0,0,1,.43-.19h2.87a.6.6,0,0,1,.44.19l.6.62a.63.63,0,0,1,.18.45V63.81a.38.38,0,0,1-.38.38m-4.51-.45H24.9V53.51a.22.22,0,0,0,0-.16l-.61-.62a.17.17,0,0,0-.14,0H21.28a.17.17,0,0,0-.14,0l-.6.62a.22.22,0,0,0,0,.16Z"/><rect x="25.92" y="53.21" width="4.93" height="0.43"/><path d="M30.63,64.19H26.09a.38.38,0,0,1-.26-.11.4.4,0,0,1-.12-.27V53.54a.63.63,0,0,1,.18-.45l.6-.62a.59.59,0,0,1,.43-.19H29.8a.59.59,0,0,1,.43.19l.61.62a.66.66,0,0,1,.17.45V63.81a.38.38,0,0,1-.38.38m-4.5-.45h4.45V53.51a.22.22,0,0,0,0-.16L30,52.73a.17.17,0,0,0-.14,0H27a.17.17,0,0,0-.14,0l-.61.62a.22.22,0,0,0,0,.16Z"/><rect x="31.63" y="53.21" width="4.93" height="0.43"/><path d="M36.34,64.19H31.82a.38.38,0,0,1-.26-.11.4.4,0,0,1-.12-.27V53.54a.63.63,0,0,1,.18-.45l.6-.62a.59.59,0,0,1,.43-.19h2.88a.59.59,0,0,1,.43.19l.61.62a.66.66,0,0,1,.17.45V63.81a.38.38,0,0,1-.38.38m-4.54-.45h4.45V53.51a.22.22,0,0,0,0-.16l-.6-.62a.17.17,0,0,0-.14,0H32.69a.17.17,0,0,0-.14,0l-.61.62a.43.43,0,0,0,0,.16Z"/><rect x="37.35" y="53.21" width="4.93" height="0.43"/><path d="M42.05,64.19H37.5a.36.36,0,0,1-.26-.11.4.4,0,0,1-.12-.27V53.54a.66.66,0,0,1,.17-.45l.61-.62a.6.6,0,0,1,.45-.19h2.86a.59.59,0,0,1,.43.19l.6.62a.63.63,0,0,1,.18.45V63.81a.38.38,0,0,1-.38.38m-4.5-.45H42V53.51a.15.15,0,0,0,0-.16l-.6-.62a.17.17,0,0,0-.14,0H38.4a.17.17,0,0,0-.14,0l-.6.62a.22.22,0,0,0,0,.16Z"/><rect x="47.44" y="25.08" width="4.93" height="0.43"/><path d="M52.15,32.3H47.61a.38.38,0,0,1-.38-.38V25.39a.68.68,0,0,1,.17-.45l.61-.62a.59.59,0,0,1,.43-.19h2.88a.59.59,0,0,1,.43.19l.6.64a.63.63,0,0,1,.18.45l.07,6.51a.38.38,0,0,1-.38.38m-4.51-.45h4.45V25.37a.2.2,0,0,0,0-.15l-.6-.64a.17.17,0,0,0-.14,0H48.49a.15.15,0,0,0-.13,0l-.61.62a.22.22,0,0,0,0,.16Z"/><rect x="53.2" y="25.08" width="4.93" height="0.43"/><path d="M57.91,32.3H53.38a.39.39,0,0,1-.39-.38V25.39a.63.63,0,0,1,.18-.45l.6-.62a.63.63,0,0,1,.56-.21H57.2a.57.57,0,0,1,.43.19l.61.64a.68.68,0,0,1,.17.45v6.53a.38.38,0,0,1-.38.38m-4.5-.45h4.26V25.37a.2.2,0,0,0,0-.15l-.61-.64a.15.15,0,0,0-.13,0H54.33a.17.17,0,0,0-.14,0l-.61.62a.22.22,0,0,0,0,.16Z"/><rect x="58.97" y="25.08" width="4.93" height="0.43"/><path d="M63.68,32.3H59.14a.38.38,0,0,1-.38-.38V25.39a.66.66,0,0,1,.17-.45l.59-.64a.59.59,0,0,1,.43-.19h3a.61.61,0,0,1,.44.19l.6.64a.63.63,0,0,1,.18.45V31.9a.39.39,0,0,1-.39.38h0m-4.5-.45h4.45V25.36a.22.22,0,0,0,0-.16L63,24.61h-3.1l-.6.63a.19.19,0,0,0,0,.15Z"/><rect x="64.73" y="25.08" width="4.93" height="0.43"/><path d="M69.44,32.3H64.91a.38.38,0,0,1-.39-.38h0V25.39a.63.63,0,0,1,.18-.45l.6-.62a.61.61,0,0,1,.44-.19h2.87a.59.59,0,0,1,.43.19l.61.64a.66.66,0,0,1,.17.45l.09,6.51a.38.38,0,0,1-.38.38h0M65,31.85h4.45V25.37a.2.2,0,0,0,0-.15l-.61-.64a.17.17,0,0,0-.14,0H65.79a.17.17,0,0,0-.14,0L65,25.2a.22.22,0,0,0,0,.16Z"/><rect x="70.5" y="25.08" width="4.93" height="0.43"/><path d="M75.21,32.3H70.65a.42.42,0,0,1-.26-.1.44.44,0,0,1-.12-.28V25.39a.68.68,0,0,1,.17-.45l.61-.62a.62.62,0,0,1,.59-.21h2.87a.61.61,0,0,1,.44.19l.6.64a.58.58,0,0,1,.17.45V31.9a.38.38,0,0,1-.38.38h0m-4.5-.45H75.1V25.36a.22.22,0,0,0,0-.16l-.6-.64H71.64a.17.17,0,0,0-.14,0l-.61.62a.43.43,0,0,0,0,.16Z"/><rect x="76.26" y="25.08" width="4.93" height="0.43"/><path d="M81,32.3H76.42a.38.38,0,0,1-.38-.38h0V25.39a.62.62,0,0,1,.17-.45l.62-.64a.61.61,0,0,1,.44-.19h2.87a.59.59,0,0,1,.43.19l.61.64a.68.68,0,0,1,.17.45v6.53a.38.38,0,0,1-.38.38h0m-4.5-.45h4.45V25.37a.2.2,0,0,0,0-.15l-.62-.61h-3a.17.17,0,0,0-.14,0l-.61.63a.2.2,0,0,0,0,.15Z"/><path d="M27.36,48.17H20V35.42h7.36Zm-6.93-.43h6.51V35.85H20.43Z"/><path d="M35.53,48.17H28.17V35.42h7.36Zm-6.93-.43h6.51V35.85H28.6Z"/><path d="M43.72,48.17H36.36V35.42h7.36Zm-6.93-.43H43.3V35.85H36.77Z"/><path d="M51.89,48.17H44.53V35.42h7.36ZM45,47.74h6.51V35.85H45Z"/><path d="M50,64.19H43.32V57.71H50Zm-6.28-.44H49.6V58.11H43.75Z"/><path d="M53.86,58.08H47.14V51.57h6.72Zm-6.28-.37h5.85V52H47.58Z"/><path d="M61.49,58.08H54.8V51.57h6.71Zm-6.28-.37h5.85V52H55.21Z"/><path d="M69.15,58.08H62.43V51.57h6.72Zm-6.29-.37h5.85V52H62.86Z"/><path d="M76.83,58.08H70.08V51.57h6.75Zm-6.33-.37h5.85V52H70.5Z"/><path d="M57.67,64.19H51V57.71h6.72Zm-6.29-.44h5.86V58.11H51.38Z"/><path d="M65.32,64.19H58.6V57.71h6.72ZM59,63.75h5.85V58.11H59Z"/><path d="M73,64.19H66.26V57.71H73Zm-6.28-.44h5.85V58.11H66.69Z"/><path d="M80.61,64.19H73.89V57.71h6.72Zm-6.29-.44h5.85V58.11H74.32Z"/><path d="M37.1,20.2H35.48a.61.61,0,0,1-.56-.66h0v-.45a.61.61,0,0,1,.55-.66H37.1a.61.61,0,0,1,.56.66h0v.43a.61.61,0,0,1-.55.66h0m-1.62-1.33a.28.28,0,0,0-.13.22v.44c0,.13,0,.22.13.22H37.1a.31.31,0,0,0,.12-.22v-.42c0-.14,0-.22-.12-.22Z"/><path d="M23.79,20.2H22.16a.61.61,0,0,1-.55-.66h0v-.45a.61.61,0,0,1,.55-.66h1.63a.61.61,0,0,1,.55.66h0v.43a.6.6,0,0,1-.55.66h0m-1.63-1.33a.29.29,0,0,0-.12.22v.44c0,.13,0,.22.12.22h1.63a.31.31,0,0,0,.12-.22v-.42c0-.14,0-.22-.12-.22Z"/><path d="M30.44,20.2H28.81a.61.61,0,0,1-.55-.66h0v-.45a.61.61,0,0,1,.55-.66h1.63a.61.61,0,0,1,.55.66h0v.43a.6.6,0,0,1-.55.66h0m-1.63-1.33a.29.29,0,0,0-.12.22v.44c0,.13,0,.22.12.22h1.63a.31.31,0,0,0,.12-.22v-.42c0-.14,0-.22-.12-.22Z"/><path d="M43.7,20.2H42.14a.61.61,0,0,1-.55-.66h0v-.45a.61.61,0,0,1,.55-.66h1.63a.61.61,0,0,1,.55.66h0v.43a.6.6,0,0,1-.55.66h0m-1.63-1.31a.29.29,0,0,0-.12.22v.43c0,.14,0,.23.12.23h1.63a.44.44,0,0,0,.1-.21v-.45c0-.14,0-.22-.12-.22Z"/></svg>