<svg xmlns="http://www.w3.org/2000/svg" viewBox="0 0 100 100"><defs><style>.a{fill:#fff;}</style></defs><title>iShop</title><path class="a" d="M-3-2.44V102.44H103V-2.44ZM47.15,52.88l3.16-.22,3.33.89L56,57.26v4.59L54.39,66,51.58,68.5l-2.85.9H46.29l-4.44-.56L39.49,67,37,62.75,36.55,59l1.2-4.79,3.43-2Z"/><path d="M71.57,15.82a1.14,1.14,0,0,0-1.4-.78L55.86,19.13a4.78,4.78,0,0,0-3.45,4.58v5.8H35.24a4.76,4.76,0,0,0-4.76,4.55L28.39,80a4.77,4.77,0,0,0,4.76,5H59.42a4.75,4.75,0,0,0,4.76-5l-2.09-46a4.75,4.75,0,0,0-4.76-4.55H54.68v-5.8a2.5,2.5,0,0,1,1.81-2.4l14.3-4.09a1.14,1.14,0,0,0,.78-1.4ZM59.83,34.16l2.09,46A2.51,2.51,0,0,1,61.23,82a2.48,2.48,0,0,1-1.81.77H33.15a2.44,2.44,0,0,1-1.8-.77,2.47,2.47,0,0,1-.69-1.84l2.09-46a2.49,2.49,0,0,1,2.49-2.38H57.33a2.5,2.5,0,0,1,2.5,2.38Zm0,0"/><path d="M52.37,51.56a5.49,5.49,0,0,0-2-.27,7.58,7.58,0,0,0,3.07-6.13A1.14,1.14,0,0,0,52.33,44a7.13,7.13,0,0,0-6,3.46,6.57,6.57,0,0,0-1.78-2.06,1.14,1.14,0,0,0-1.58.3,1.13,1.13,0,0,0,.3,1.57,5.68,5.68,0,0,1,1.93,4.49,11.93,11.93,0,0,1-1.67-.3,5.72,5.72,0,0,0-3.28.07A6.74,6.74,0,0,0,36,56.05a11.75,11.75,0,0,0,0,7.07,10.72,10.72,0,0,0,5,6.58,6.37,6.37,0,0,0,3,.79,5.63,5.63,0,0,0,1.76-.28h0a1.53,1.53,0,0,1,1,0h0a6.07,6.07,0,0,0,4.79-.51,10.72,10.72,0,0,0,5-6.58,11.82,11.82,0,0,0,0-7.07,6.76,6.76,0,0,0-4.18-4.49ZM51,46.48a5.1,5.1,0,0,1-3.46,3.72A5.08,5.08,0,0,1,51,46.48Zm3.35,16a8.56,8.56,0,0,1-3.87,5.21,3.88,3.88,0,0,1-3,.36h0a3.79,3.79,0,0,0-2.4,0h0a3.9,3.9,0,0,1-3-.36,8.59,8.59,0,0,1-3.87-5.21c-1.15-3.9.1-7.91,2.73-8.76a3.29,3.29,0,0,1,1-.17,4,4,0,0,1,1,.13,13.31,13.31,0,0,0,6.75,0,3.52,3.52,0,0,1,2,0c2.63.85,3.87,4.87,2.72,8.76Zm0,0"/></svg>