<svg xmlns="http://www.w3.org/2000/svg" viewBox="0 0 100 100"><defs><style>.a{fill:#fff;}.b{fill:none;}</style></defs><title>iShop</title><path class="a" d="M-3-2.44V102.44H103V-2.44ZM41.59,76.74a9.47,9.47,0,0,1-3.8-.79,9.38,9.38,0,1,1-5-12.33,9.53,9.53,0,1,1,8.83,13.12Z"/><path d="M32.51,62A10.71,10.71,0,0,1,36,58.43a10,10,0,0,1,5.78-1.75,10.52,10.52,0,1,1-.45,21,14.85,14.85,0,0,1-2.64-.44.47.47,0,0,0-.6.24,10.23,10.23,0,0,1-7.39,4.86,10,10,0,0,1-10.3-4.8c-4.45-6.82.38-15,7.39-16A10.1,10.1,0,0,1,32.51,62ZM37.76,72a8.46,8.46,0,0,0-8.63-8.6,8.61,8.61,0,1,0,.1,17.21A8.43,8.43,0,0,0,37.76,72Zm-3.41-9.26c4.55,3.14,6.31,7.3,4.85,12.69a8.45,8.45,0,0,0,10.14-4.35,8.69,8.69,0,0,0-3.83-11.58A8.52,8.52,0,0,0,34.35,62.73Z"/><path d="M31.94,72c-.08,0-.26-.09-.44-.17l-1.38-.62a1.58,1.58,0,0,0-1.69.18l-.52.35a1,1,0,0,1-1.38-1.34,5,5,0,0,0,.55-.91,1.46,1.46,0,0,0,.1-.89,13,13,0,0,0-.72-1.78,1,1,0,0,1,.18-1.3.94.94,0,0,1,1.28,0,2.25,2.25,0,0,0,2.9.24c.24-.13.48-.23.72-.36a1,1,0,0,1,1.32,1.34c-.21.46-.43.91-.64,1.37a1.62,1.62,0,0,0,.17,1.73,6.67,6.67,0,0,1,.48.7A1,1,0,0,1,31.94,72Zm-1.85-2.79.13-1.16-1.14.15.11.89Z"/><path d="M47.33,63.52c0,.11-.12.31-.21.52-.21.49-.43,1-.63,1.47a1.36,1.36,0,0,0,.14,1.32l.5.74A1,1,0,0,1,45.9,69l-1.38-.63a1.64,1.64,0,0,0-1.84.21c-.14.11-.3.21-.44.31a1,1,0,0,1-1.31,0,1,1,0,0,1-.07-1.3c.15-.22.29-.45.45-.67a1.43,1.43,0,0,0,.15-1.44c-.21-.51-.43-1-.66-1.51A1,1,0,0,1,41,62.67a.91.91,0,0,1,1.27,0,2.31,2.31,0,0,0,3,.23,7.69,7.69,0,0,1,.76-.38A1,1,0,0,1,47.33,63.52Zm-3.91,1.81.11.89.9.12.14-1.15Z"/><path class="b" d="M72.69,40.73c0,.26,0,.52.07,1.36l6-8.12C72.71,35.06,72.62,35.16,72.69,40.73Z"/><path class="b" d="M70.27,34.07c1.9.33,4-.77,6.07-1.21l-.12-.55C69.71,31.2,63.22,30,56.69,29a31.93,31.93,0,0,0-5.85.18l.09.67C57.37,31.33,63.78,33,70.27,34.07Z"/><path class="b" d="M65,39.68c1.42,2.6,3,5.12,4.72,8,.83-.92,1.89-1.55,1.94-2.24.19-3,.08-6.07.08-9.43-2.26.77-4.18,1.35-6,2.12C65.35,38.34,64.87,39.38,65,39.68Z"/><path class="b" d="M49.57,30.43c.26.84.42,1.35.7,2.29a22.23,22.23,0,0,1-3.62-.09c-.22,0-.24-1.19-.37-2l-5.59,1.39c.85.25,1.32.43,1.8.53,6.41,1.33,12.85,2.55,19.24,4,2.79.64,4.91-.8,7.28-1.86Z"/><path class="b" d="M73.09,43.09a2.7,2.7,0,0,0-.39,1.26c-.25,2.91-.31,3-3.51,3.86l-4.31-6.93V82.69c.65-.31,1.17-.52,1.66-.79,3.58-2,7.14-4,10.76-5.88a2.55,2.55,0,0,0,1.57-2.55c.23-12.34.53-24.67.8-37,0-.6,0-1.19,0-2.32C77.23,37.45,75.14,40.26,73.09,43.09Z"/><path d="M81.23,31.52c-6-1-12-2.11-17.94-3.08-4.37-.71-8.74-2.17-13.2-.47-.07,0-.2-.11-.4-.23,0-2.46,0-5,0-7.52,0-4.3-2.93-6.28-6.88-4.66q-7.21,3-14.39,5.94c-.51.21-1,.51-1.53.8.4.95.73,1.71,1.09,2.57,5.32-2.2,10.52-4.37,15.73-6.51,2.14-.88,2.95-.38,3,1.86,0,2.41,0,4.81,0,7.21,0,1.14-.39,1.58-1.48,1.82-2.48.53-4.89,1.32-7.37,1.8-1.5.3-2,.91-2,2.46.17,7,.29,14,.43,21a10.47,10.47,0,0,1,1.54-.74c-.15-6.61-.32-13.22-.46-19.83,0-.11.08-.23.24-.65l25.23,5.2V83.15l-6.47-1.68C53.27,80.65,50.14,79.81,47,79c-1,.43-2,.83-2.91,1.14,6.23,1.6,12.45,3.23,18.69,4.79a4.2,4.2,0,0,0,2.72-.35c4.6-2.4,9.12-5,13.71-7.38a2.59,2.59,0,0,0,1.58-2.58q.25-20.76.58-41.51C81.37,32.59,81.28,32.08,81.23,31.52ZM56.69,29c6.53,1,13,2.16,19.53,3.27l.12.55c-2,.44-4.17,1.54-6.07,1.21-6.49-1.12-12.9-2.74-19.34-4.18l-.09-.67A31.93,31.93,0,0,1,56.69,29Zm22,4.93-6,8.12c0-.84-.07-1.1-.07-1.36C72.62,35.16,72.71,35.06,78.74,34Zm-7,11.51c0,.69-1.11,1.32-1.94,2.24-1.74-2.92-3.3-5.44-4.72-8-.16-.3.32-1.34.72-1.51,1.84-.77,3.76-1.35,6-2.12C71.77,39.41,71.88,42.45,71.69,45.48Zm-10-8.87c-6.39-1.46-12.83-2.68-19.24-4-.48-.1-1-.28-1.8-.53l5.59-1.39c.13.76.15,1.92.37,2a22.23,22.23,0,0,0,3.62.09c-.28-.94-.44-1.45-.7-2.29L69,34.75C66.64,35.81,64.52,37.25,61.73,36.61Zm17.94-.14c-.27,12.33-.57,24.66-.8,37A2.55,2.55,0,0,1,77.3,76c-3.62,1.9-7.18,3.92-10.76,5.88-.49.27-1,.48-1.66.79V41.28l4.31,6.93c3.2-.87,3.26-1,3.51-3.86a2.7,2.7,0,0,1,.39-1.26c2-2.83,4.14-5.64,6.59-8.94C79.68,35.28,79.69,35.87,79.67,36.47Z"/></svg>