<svg xmlns="http://www.w3.org/2000/svg" viewBox="0 0 100 100"><defs><style>.a{fill:#fff;}</style></defs><title>iShop</title><path class="a" d="M-3-2.44V102.44H103V-2.44ZM33.28,65.89,59.47,72,76,64.39l-.2,10.74-2.87,2.49-8.19,4.21-5.6,2.39-25.84-7Z"/><path d="M23.85,24.87,22.76,22.3c.55-.29,1-.59,1.53-.8q7.18-3,14.38-5.94c4-1.62,6.87.36,6.89,4.66,0,2.53,0,5.06,0,7.52.21.12.34.26.41.23,4.46-1.7,8.83-.24,13.2.47,6,1,11.89,2,17.94,3.08a15.08,15.08,0,0,1,.13,1.57c-.19,13.84-.41,27.67-.57,41.51a2.59,2.59,0,0,1-1.58,2.58c-4.59,2.42-9.11,5-13.72,7.38a4.16,4.16,0,0,1-2.71.35c-8.11-2-16.2-4.17-24.31-6.23a1.88,1.88,0,0,1-1.69-2.11Q32.28,55,31.78,33.51c0-1.55.45-2.16,1.95-2.46,2.48-.48,4.9-1.27,7.37-1.8,1.1-.24,1.52-.68,1.49-1.82-.07-2.4,0-4.8,0-7.21,0-2.24-.85-2.74-3-1.86C34.37,20.5,29.17,22.67,23.85,24.87ZM58.76,83.15V38.5L33.53,33.31a3.67,3.67,0,0,0-.25.65c.3,13.89.59,27.77,1,41.66,0,.52.89,1.31,1.5,1.48,5.49,1.52,11,2.93,16.54,4.37Zm2-.46c.65-.31,1.17-.52,1.66-.79,3.58-2,7.14-4,10.75-5.88a2.54,2.54,0,0,0,1.58-2.55c.23-12.33.53-24.67.8-37,0-.6,0-1.19,0-2.32C73.11,37.45,71,40.26,69,43.09a2.7,2.7,0,0,0-.39,1.26c-.25,2.91-.31,3-3.51,3.86l-4.31-6.93ZM36.57,32.07c.84.25,1.31.43,1.8.53,6.41,1.33,12.85,2.55,19.24,4,2.79.64,4.9-.8,7.28-1.86L45.45,30.43l.7,2.29a22.39,22.39,0,0,1-3.63-.09c-.21,0-.23-1.19-.36-2Zm10.15-2.85.08.67c6.45,1.44,12.85,3.06,19.35,4.18,1.9.33,4-.77,6.07-1.21l-.12-.55C65.59,31.2,59.09,30,52.56,29A31.85,31.85,0,0,0,46.72,29.22ZM67.65,36c-2.26.78-4.18,1.36-6,2.13-.4.17-.89,1.21-.72,1.51,1.42,2.6,3,5.12,4.72,8,.83-.92,1.89-1.55,1.94-2.24C67.75,42.45,67.65,39.41,67.65,36Zm1,6.05,6-8.12c-6,1.09-6.12,1.19-6.05,6.76C68.57,41,68.59,41.25,68.64,42.09Z"/></svg>