<svg xmlns="http://www.w3.org/2000/svg" viewBox="0 0 100 100"><defs><style>.a{fill:#fff;}.b{fill:none;stroke:#000;stroke-linecap:round;stroke-linejoin:round;stroke-width:1.65px;}.c{fill:#e6e7e8;}</style></defs><title>iShop</title><rect class="a" x="56.6" y="75.6" width="4.67" height="3.3"/><rect class="a" x="68.68" y="75.6" width="4.67" height="3.3"/><path class="a" d="M-3.36-2.64V102.24h106V-2.64ZM31.25,33.83,30.13,35,25.21,30v4.21l6,6.09-1.12,1.12-4.92-4.93v4.21l6,6.09-1.12,1.12L25.21,43V85H23.62V43l-4.93,4.93-1.12-1.12,6-6,0-4.27-4.93,4.93-1.12-1.12,6-6,0-4.28L18.69,35l-1.12-1.12,6-6,0-4.27-4.93,4.93-1.12-1.12,6.28-6.28a.78.78,0,0,1,.55-.24.74.74,0,0,1,.56.24l.2.21h0l6.07,6.08-1.12,1.12-4.92-4.93v4.21ZM62.93,79.72a.83.83,0,0,1-.83.83H55.78a.83.83,0,0,1-.83-.83v-5a.83.83,0,0,1,.83-.82H62.1a.83.83,0,0,1,.83.82ZM64.64,28l-1.12,1.12-4.93-4.93V28.4l6,6.09-1.12,1.12-4.93-4.93v4.21l6,6.09L63.52,42.1l-4.93-4.93v25.9H57V37.17L52.07,42.1,51,41l6-6,0-4.27-4.93,4.93L51,34.49l6-6,0-4.28-4.93,4.93L51,28l6-6,0-4.27-4.93,4.93L51,21.52l6.28-6.28a.79.79,0,0,1,.56-.24.72.72,0,0,1,.55.24l.21.21h0l6.08,6.08-1.12,1.12-4.93-4.93v4.21ZM75,79.72a.82.82,0,0,1-.82.83H67.86a.83.83,0,0,1-.83-.83v-5a.83.83,0,0,1,.83-.82h6.32a.82.82,0,0,1,.82.82Zm9-42.4-1.12,1.12L78,33.51v4.21L84,43.81l-1.12,1.12L78,40V67.92H76.38V46.48l0-2.21,0-4.27-4.93,4.93-1.12-1.12,6-6,0-4.27-4.93,4.93-1.12-1.12,6-6,0-4.28L71.45,32l-1.12-1.12,6.28-6.28a.8.8,0,0,1,.55-.23.77.77,0,0,1,.56.23l.2.22,0,0L84,30.83,82.89,32,78,27v4.21Z"/><path d="M22,85V43l-4.93,4.93L16,46.81l6-6,0-4.27-4.93,4.93L16,40.32l6-6L22,30,17.11,35,16,33.83l6-6,0-4.27-4.93,4.93L16,27.35l6.28-6.28a.77.77,0,0,1,.55-.24.76.76,0,0,1,.56.24l.2.21h0l6.08,6.08-1.12,1.12-4.93-4.93v4.21l6.05,6.08L28.55,35,23.62,30v4.21l6.05,6.09-1.12,1.12-4.93-4.93v4.21l6.05,6.09-1.12,1.12L23.62,43V85Z"/><polyline class="b" points="78.41 68.11 78.41 84.19 31.67 84.19 31.67 68.11"/><line class="b" x1="83.52" y1="84.19" x2="19.31" y2="84.19"/><line class="b" x1="48.89" y1="68.11" x2="48.89" y2="84.19"/><polygon class="c" points="70.73 47.38 40.25 47.38 50.9 67.32 80.86 67.32 70.73 47.38"/><rect x="64.04" y="67.32" width="1.59" height="1.59"/><rect x="60.26" y="50.15" width="1.58" height="15.38" transform="translate(-20.14 35.9) rotate(-28.33)"/><path d="M68.36,68.9V67.32H79.79l-9-19H41.28l10,19h10V68.9H29.15a.77.77,0,0,1-.36-.09.79.79,0,0,1-.34-1.07L39.26,47.2a.76.76,0,0,1,.11-.14.79.79,0,0,1,.6-.28H55.39V37.59l-4.93,4.93L49.34,41.4l6-6,0-4.28L50.46,36l-1.12-1.11,6-6,0-4.27-4.93,4.93-1.12-1.12,6-6,0-4.28-4.93,4.93-1.12-1.12,6.28-6.28a.77.77,0,0,1,.55-.24.8.8,0,0,1,.56.24l.2.21h0L63,21.94,61.9,23.06,57,18.13v4.21L63,28.43,61.9,29.55,57,24.62v4.21L63,34.92,61.9,36,57,31.1v4.21L63,41.4,61.9,42.52,57,37.59v9.19H71.31a.8.8,0,0,1,.72.45l2.3,4.85.52-.11V40.84l-4.93,4.92L68.8,44.64l6-6,0-4.27-4.93,4.93L68.8,38.16l6-6,0-4.27-4.93,4.93L68.8,31.67l6.28-6.28a.77.77,0,0,1,.55-.24.76.76,0,0,1,.55.24l.2.21h0l6.08,6.08-1.12,1.12-4.93-4.93v4.21l6,6.09-1.12,1.12-4.93-4.93v4.21l6,6.08-1.12,1.12-4.93-4.92V56.46l5.33,11.31a.77.77,0,0,1,.07.34.79.79,0,0,1-.79.79H68.36Zm-27.6-17V67.32h8.7L41.27,51.75ZM30.47,67.32h8.7V51.88l-.51-.13Z"/><rect class="b" x="37.09" y="72.79" width="6.32" height="11.4"/><rect class="b" x="54.44" y="74.33" width="6.32" height="4.95"/><rect class="b" x="66.52" y="74.33" width="6.32" height="4.95"/></svg>