<svg xmlns="http://www.w3.org/2000/svg" viewBox="0 0 100 100"><defs><style>.a{fill:#fff;}.b{fill:#e6e7e8;}</style></defs><title>iShop</title><path class="a" d="M102.64,102.24h-106V-2.64h106Zm-14.7-29h0a2.71,2.71,0,0,0-2.7-2.7H68.73a2.71,2.71,0,0,0-2.7,2.7h0a2.7,2.7,0,0,0,2.7,2.7H85.24A2.71,2.71,0,0,0,87.94,73.26Z"/><path d="M15.7,81l-1-15.14h-1v-.34a4.18,4.18,0,0,1-2.52-3.8,4.13,4.13,0,0,1,3.06-4,3.64,3.64,0,0,1,1.64-2.59l-.61-2.69a2.07,2.07,0,0,1-.05-.5V51.8a2.29,2.29,0,0,1,4.52-.51l.24,1a3.63,3.63,0,0,1,4,.78,3.33,3.33,0,0,1,.25.28,4.63,4.63,0,0,1,6.37,4.31,4.27,4.27,0,0,1-.07.71,4.07,4.07,0,0,1,1.38.9,4.14,4.14,0,0,1,0,5.85,4.19,4.19,0,0,1-1.88,1.08L28.94,81Zm12.11-1.21L28.07,76H16.57l.26,3.84Zm.34-5.05.42-6.36H16.07l.43,6.36Zm.5-7.57.06-.81a4.19,4.19,0,0,1-1.81-.5h-11L16,67.17Zm-1.84-7-.07.07-.86-.86L26,59.3a4.07,4.07,0,0,1,2.92-1.21l.37,0a3,3,0,0,0,0-.42,3.44,3.44,0,0,0-3.44-3.44,3.35,3.35,0,0,0-1.12.2,3.64,3.64,0,0,1-.85,3.79l-.07.07L23,57.45l.08-.07a2.42,2.42,0,0,0-1.72-4.13A2.37,2.37,0,0,0,19.6,54a2.46,2.46,0,0,0-.55.83,3.63,3.63,0,0,1,2.36,3.4v.1H20.2v-.1a2.42,2.42,0,1,0-3.76,2l.08.06-.67,1-.08-.05A3.57,3.57,0,0,1,14.24,59a2.92,2.92,0,0,0-.6,5.17V62.63H26l.13.43A2.93,2.93,0,0,0,31,64.3a2.93,2.93,0,1,0-4.14-4.14Zm-1.28,4.49a3.6,3.6,0,0,1-.46-.81H14.85v.81ZM17.86,54.56a3.48,3.48,0,0,1,.88-1.46l.1-.09-.34-1.45a1.08,1.08,0,0,0-2.13.24V52a2.32,2.32,0,0,0,0,.24L17,54.66a3.42,3.42,0,0,1,.83-.1Z"/><rect x="23.23" y="58.59" width="1.21" height="1.21"/><rect x="20.2" y="59.6" width="1.21" height="1.21"/><rect x="28.28" y="61.12" width="1.21" height="1.21"/><polygon class="b" points="28.15 74.74 28.57 68.38 16.07 68.38 16.5 74.74 28.15 74.74"/><path d="M47.83,45.64a2.23,2.23,0,1,1,2.23-2.23A2.23,2.23,0,0,1,47.83,45.64Zm0-3.27a1,1,0,1,0,1.05,1A1,1,0,0,0,47.83,42.37Z"/><path d="M58.36,45.64a2.23,2.23,0,1,1,2.22-2.23A2.23,2.23,0,0,1,58.36,45.64Zm0-3.27a1,1,0,1,0,1,1A1,1,0,0,0,58.36,42.37Z"/><path d="M27.64,81l3.2-10.27a12.26,12.26,0,0,1,9.76-8.39l5.46-.84V60L45.92,60a13.87,13.87,0,0,1-6.61-9.07l-.05-.21-.2,0A4.76,4.76,0,0,1,35,46V36.88a17.88,17.88,0,1,1,35.75,0V46a4.76,4.76,0,0,1-4.1,4.69l-.21,0,0,.21A13.89,13.89,0,0,1,59.75,60L59.6,60V61.5l5.47.84c.33.06.66.12,1,.2l.2.05.11-.17a6.79,6.79,0,0,1,5.65-3H82.11a6.78,6.78,0,0,1,6.77,6.77V70.9H88.1l.26.45a3.62,3.62,0,0,1,0,3.74l-.26.45h.78v2.73A2.73,2.73,0,0,1,86.15,81Zm39-2.73A1.31,1.31,0,0,0,68,79.57H86.15a1.31,1.31,0,0,0,1.31-1.3V77H73.32V75.54h7.07l-4.6-4.61-6.8,0a2.32,2.32,0,1,0,0,4.64h1.72V77h-4Zm-27.16,1.3h26l-.14-.39a2.8,2.8,0,0,1-.17-.91V75.54H66l-.26-.45a3.56,3.56,0,0,1,0-3.74L66,70.9h-.79V66.15a6.74,6.74,0,0,1,.29-1.93l.09-.32-.49-.09-.28-.06-5.37-.82-.08.24c-.44,1.38-1.88,3.7-6.57,3.7s-6.12-2.32-6.56-3.7l-.08-.24-5.37.82a10.83,10.83,0,0,0-8.62,7.41l-2.63,8.41h8.5l.9-7.15,1.41.17Zm42.27-4h3.36A2.32,2.32,0,0,0,85.65,71l-.18,0ZM81,74.17l2.62-3.27H77.78ZM72,60.81a5.35,5.35,0,0,0-5.35,5.34v3.33H87.46V66.15a5.35,5.35,0,0,0-5.35-5.34Zm-24.53,1.3c0,.35.24,3.33,5.34,3.33s5.34-3,5.35-3.33V60.74l-.4.15a13.61,13.61,0,0,1-9.89,0l-.4-.15Zm.3-26.54a7.37,7.37,0,0,0-7.37,7.36v5a12.41,12.41,0,0,0,24.82,0V35.53l-.24,0A5.79,5.79,0,0,1,61.16,33l-.25-.37-.25.37a5.75,5.75,0,0,1-4.8,2.58ZM38.6,42.84a3.3,3.3,0,0,0,0,6.26l.42.14,0-.68c0-.19,0-.38,0-.58V42.7ZM66.67,48a5.49,5.49,0,0,1,0,.58l0,.68L67,49.1a3.31,3.31,0,0,0,0-6.26l-.4-.14Zm0-6.72.24.05a4.57,4.57,0,0,1,1.9.88l.47.36V36.88a16.45,16.45,0,0,0-32.9,0v5.67l.48-.36a4.58,4.58,0,0,1,2.1-.9l.2,0,0-.2a8.85,8.85,0,0,1,8.59-6.92h8.07a4.33,4.33,0,0,0,4.33-4h1.44a4.33,4.33,0,0,0,4.33,4h.71Z"/><rect x="70.29" y="63.42" width="1.43" height="1.43"/><rect x="74.33" y="65.44" width="1.43" height="1.43"/><rect x="78.37" y="62.41" width="1.43" height="1.43"/><rect x="82.41" y="64.43" width="1.43" height="1.43"/><path d="M53.31,54.32c-2.84,0-5.34-1-6.36-2.53a.76.76,0,0,1-.11-.57.78.78,0,0,1,.32-.49.81.81,0,0,1,.42-.12.75.75,0,0,1,.64.34c.59.89,2.44,1.84,5.09,1.84s4.36-.89,5-1.73a.73.73,0,0,1,.6-.29.7.7,0,0,1,.46.16.69.69,0,0,1,.29.5.73.73,0,0,1-.15.57C58.41,53.43,56,54.32,53.31,54.32Z"/><polygon class="a" points="81.04 74.17 83.66 70.9 77.78 70.9 81.04 74.17"/></svg>