<svg xmlns="http://www.w3.org/2000/svg" viewBox="0 0 100 100"><defs><style>.a{fill:#fff;}.b{fill:none;stroke:#000;stroke-linecap:round;stroke-linejoin:round;stroke-width:1.5px;}.c{font-size:37.23px;font-family:Gotham-Book, Gotham;}</style></defs><title>iShop</title><path class="a" d="M-3.9-4.56V102.37H103V-4.56ZM35.42,71.88A21.88,21.88,0,1,1,57.3,50,21.9,21.9,0,0,1,35.42,71.88ZM5.85,50A29.57,29.57,0,1,1,35.42,79.57,29.57,29.57,0,0,1,5.85,50Z"/><path d="M35.42,80.32A30.32,30.32,0,1,1,65.74,50,30.35,30.35,0,0,1,35.42,80.32Zm0-59.14A28.82,28.82,0,1,0,64.24,50,28.85,28.85,0,0,0,35.42,21.18Zm0,50.7A21.88,21.88,0,1,1,57.3,50,21.9,21.9,0,0,1,35.42,71.88Zm0-42.26A20.38,20.38,0,1,0,55.8,50,20.4,20.4,0,0,0,35.42,29.62Z"/><path class="b" d="M43.86,20.43a29.57,29.57,0,0,1,0,59.14"/><path class="b" d="M54.22,20.43a29.57,29.57,0,0,1,0,59.14"/><path class="b" d="M64.58,20.43a29.57,29.57,0,1,1,0,59.14"/><text class="c" transform="translate(23.39 63.08)">$</text></svg>