<svg xmlns="http://www.w3.org/2000/svg" viewBox="0 0 100 100"><defs><style>.a{fill:#fff;}.b{fill:#e6e7e8;}</style></defs><title>iShop</title><path class="a" d="M-3-2.44V102.44H103V-2.44ZM57.82,44.23a13.25,13.25,0,0,1-6.59-.83c.28.17.56.35.85.51L51.4,46a13.24,13.24,0,0,1-5.95-2.41c.22.23.43.47.67.69l-1.23,1.85a13.22,13.22,0,0,1,2.48-25.08c.12-.06.22-.13.34-.18h0l.1.08a.58.58,0,0,1,.14,0l.07.21,1.37,1.17a12.54,12.54,0,0,0-.59,11.9h.1A12.54,12.54,0,0,0,58,42Zm.11-4.79a5.3,5.3,0,0,1,0-10.6,5.29,5.29,0,0,1-5.29-5.29,5.29,5.29,0,0,1,5.29,5.29,5.3,5.3,0,0,1,0,10.6Z"/><path d="M44.89,46.76a.62.62,0,0,1-.27,0m2.86-25.11a12.57,12.57,0,0,0-10,12.23l-1.37-.05a13.69,13.69,0,0,1,1.08-5.24,13.86,13.86,0,0,1,10.67-8.35.65.65,0,0,1,.72.43l.14.38Z"/><path d="M47,24.69a.68.68,0,0,1-.49-.22l-2-2.28a.66.66,0,0,1,1-.86l2,2.22a.66.66,0,0,1,0,.93.67.67,0,0,1-.47.18"/><path d="M39.37,33.88a14.69,14.69,0,0,1,.1-2.88,13.91,13.91,0,0,1,8-10.73c.29-.14.82.22.82.22l-.82,1.23A12.55,12.55,0,0,0,40.64,33.8Zm12,12.78h-.09"/><path d="M47.66,24.69a.59.59,0,0,1-.37,0L44.76,23a.66.66,0,1,1,.72-1.11h0L48,23.58a.66.66,0,0,1,.21.91.65.65,0,0,1-.56.3"/><path d="M56.14,45h0a13.89,13.89,0,0,1-8.85-24.61.64.64,0,0,1,.84,0l1.69,1.42a.65.65,0,0,1,.11.89,12,12,0,0,0-.52,11.27,12,12,0,0,0,8.52,7.39.67.67,0,0,1,.56.69l-.14,2.22a.64.64,0,0,1-.57.62A13.41,13.41,0,0,1,56.1,45M47.7,21.73a12.56,12.56,0,0,0,8.4,21.86h1V42.51a13.33,13.33,0,0,1-8.95-8.07,13.35,13.35,0,0,1,.32-12Z"/><path d="M48.49,24.69h-.2l-2.9-.94a.69.69,0,0,1,.41-1.31h0l2.89.94a.67.67,0,0,1,.55.76.65.65,0,0,1-.75.55"/><path d="M57.93,40.11a6,6,0,1,1,6-6h0a6,6,0,0,1-6,6m0-10.59a3.67,3.67,0,1,0,.06,0"/><path d="M57.93,29.52a.66.66,0,0,1-.65-.66,3.35,3.35,0,0,1,3.36-3.36.67.67,0,1,1,0,1.33h0a2,2,0,0,0-2,2h0a.67.67,0,0,1-.66.66"/><path d="M58,29.52h0a6,6,0,0,1-6-5.95.65.65,0,0,1,.66-.66,6,6,0,0,1,6,5.82v.13a.67.67,0,0,1-.66.66m-4.59-5.25a4.64,4.64,0,0,0,3.87,3.78,4.65,4.65,0,0,0-3.85-3.86"/><path d="M55.3,34.78a.65.65,0,0,1-.66-.66A3.37,3.37,0,0,1,58,30.76a.67.67,0,1,1,0,1.33,2,2,0,0,0-2.11,1.84,1.48,1.48,0,0,0,0,.21.66.66,0,0,1-.65.66"/><rect class="b" x="34.11" y="34.14" width="31.76" height="45"/><path d="M65.89,79.8H34.11a.66.66,0,0,1-.65-.66v-45a.66.66,0,0,1,.65-.66H65.89a.66.66,0,0,1,.65.66v45a.66.66,0,0,1-.65.66m-31.1-1.31H65.21V34.78H34.79Z"/><path d="M50,50.68A11.26,11.26,0,0,1,38.75,39.44a.67.67,0,1,1,1.33,0A9.94,9.94,0,0,0,50,49.35a.67.67,0,0,1,0,1.33"/><path d="M50,50.68a.67.67,0,0,1,0-1.33,9.94,9.94,0,0,0,9.92-9.91.67.67,0,1,1,1.33,0A11.26,11.26,0,0,1,50,50.68"/><line x1="47.7" y1="21.73" x2="48.57" y2="20.67"/></svg>