<svg xmlns="http://www.w3.org/2000/svg" viewBox="0 0 100 100"><defs><style>.a{fill:#fff;}.b{fill:#e6e7e8;}.c{fill:none;stroke:#000;stroke-miterlimit:10;stroke-width:0.75px;}</style></defs><title>iShop</title><path class="a" d="M-3-2.44V102.44H103V-2.44ZM47.44,39.14A13.39,13.39,0,1,1,34.05,52.53,13.39,13.39,0,0,1,47.44,39.14Z"/><rect class="b" x="23.14" y="33.89" width="58.83" height="5.1"/><polyline class="b" points="81.97 60.97 81.97 38.99 76.86 38.99 76.86 60.97"/><polyline class="c" points="23.14 39.1 23.14 33.89 81.97 33.89 81.97 60.97 77 60.97"/><rect class="c" x="18.03" y="38.99" width="58.83" height="27.08"/><path class="c" d="M28.14,39.19A10.12,10.12,0,0,1,18,49.31"/><path class="c" d="M18,56A10.11,10.11,0,0,1,28.14,66.11"/><path class="c" d="M66.74,66.07A10.12,10.12,0,0,1,76.86,56h0"/><path class="c" d="M76.86,49.25A10.12,10.12,0,0,1,66.74,39.14"/><circle class="c" cx="47.44" cy="52.53" r="13.39"/></svg>