<svg xmlns="http://www.w3.org/2000/svg" viewBox="0 0 100 100"><defs><style>.a{fill:#fff;}.b{fill:#e6e7e8;}</style></defs><title>iShop</title><path class="a" d="M-.5-.5v101h101V-.5ZM42.86,71.59l1.44-2.3,6.78-10.54-9.38.67L54.2,46.84l2.47-2.39-7.3,11.23,9.46-.75Z"/><rect class="b" x="34.97" y="29.08" width="30.2" height="9.99" rx="1.31"/><path d="M63.41,39.78H36.59A2.58,2.58,0,0,1,34,37.2V30.56A2.58,2.58,0,0,1,36.59,28H63.41A2.58,2.58,0,0,1,66,30.56V37.2A2.58,2.58,0,0,1,63.41,39.78ZM36.59,29.44a1.12,1.12,0,0,0-1.12,1.12V37.2a1.12,1.12,0,0,0,1.12,1.12H63.41a1.12,1.12,0,0,0,1.12-1.12V30.56a1.12,1.12,0,0,0-1.12-1.12Z"/><path d="M58.49,79.74H42a5.41,5.41,0,0,1-5.41-5.17L35,39l1.45-.06L38,74.51a3.94,3.94,0,0,0,4,3.78H58.49a3.94,3.94,0,0,0,3.95-3.81L63.82,39l1.45.06L63.9,74.54A5.4,5.4,0,0,1,58.49,79.74Z"/><path d="M59.82,28.71H58.36V24.07A2.36,2.36,0,0,0,56,21.71H46.35l-.63,1.58h9.42a1.55,1.55,0,0,1,1.55,1.54v3.84H55.23V24.83L45,24.74a1,1,0,0,1-.91-.6,1,1,0,0,1,.08-.93l.93-2.29a1,1,0,0,1,1-.66H56a3.82,3.82,0,0,1,3.81,3.81Z"/></svg>