<svg xmlns="http://www.w3.org/2000/svg" viewBox="0 0 100 100"><defs><style>.a{fill:#fff;}</style></defs><title>iShop</title><path class="a" d="M-3.89-3V103.27H102.59V-3Zm58.22,72.9a.25.25,0,0,1,.25-.25h4.77a.25.25,0,0,1,.25.25v4.54a.25.25,0,0,1-.25.25H54.58a.25.25,0,0,1-.25-.25Zm-11.78,0a.25.25,0,0,1,.25-.25h4.78a.25.25,0,0,1,.25.25v4.54a.26.26,0,0,1-.25.25H42.8a.25.25,0,0,1-.25-.25Zm-11.78,0a.25.25,0,0,1,.25-.25H35.8a.25.25,0,0,1,.25.25v4.54a.25.25,0,0,1-.25.25H31a.26.26,0,0,1-.25-.25Zm2.51-35.1H38.4v2.94a.75.75,0,0,0,1.5,0V34.82h5.93v2.94a.75.75,0,1,0,1.5,0V34.82H51V47.76H36.55V40.52a.75.75,0,0,0-.75-.75H33.28Z"/><path d="M42.8,76.21h4.78a1.76,1.76,0,0,0,1.75-1.75V69.92a1.75,1.75,0,0,0-1.75-1.75H42.8a1.75,1.75,0,0,0-1.75,1.75v4.54A1.75,1.75,0,0,0,42.8,76.21Zm-.25-6.29a.25.25,0,0,1,.25-.25h4.78a.25.25,0,0,1,.25.25v4.54a.26.26,0,0,1-.25.25H42.8a.25.25,0,0,1-.25-.25Z"/><path d="M31,76.21H35.8a1.76,1.76,0,0,0,1.75-1.75V69.92a1.75,1.75,0,0,0-1.75-1.75H31a1.75,1.75,0,0,0-1.75,1.75v4.54A1.76,1.76,0,0,0,31,76.21Zm-.25-6.29a.25.25,0,0,1,.25-.25H35.8a.25.25,0,0,1,.25.25v4.54a.25.25,0,0,1-.25.25H31a.26.26,0,0,1-.25-.25Z"/><path d="M54.58,76.21h4.77a1.75,1.75,0,0,0,1.75-1.75V69.92a1.75,1.75,0,0,0-1.75-1.75H54.58a1.75,1.75,0,0,0-1.75,1.75v4.54A1.75,1.75,0,0,0,54.58,76.21Zm-.25-6.29a.25.25,0,0,1,.25-.25h4.77a.25.25,0,0,1,.25.25v4.54a.25.25,0,0,1-.25.25H54.58a.25.25,0,0,1-.25-.25Z"/><circle cx="61.39" cy="42.28" r="0.69"/><path d="M65.78,38.82A11.57,11.57,0,1,0,54.21,27.25,11.58,11.58,0,0,0,65.78,38.82Zm0-22.13A10.57,10.57,0,1,1,55.21,27.25,10.58,10.58,0,0,1,65.78,16.69Z"/><path d="M81.7,47.17l-.18-1L71.53,48a2.18,2.18,0,0,0-1-.24h-7.7l2.5-6a.74.74,0,0,0-.39-1L57.4,37.47a.76.76,0,0,0-1,.34L52.5,45.15V34.07a.74.74,0,0,0-.75-.75H47.33V31.39c-.08-1.23-1.11-3.55-4.49-3.55s-4.39,2.36-4.44,3.64v1.84H32.53a.74.74,0,0,0-.75.75v5.7H24.93a.75.75,0,0,0-.75.75v7.24H19.82a2.18,2.18,0,0,0-2.18,2.18v6.67a2.19,2.19,0,0,0,2.18,2.18h.48a2.45,2.45,0,0,0-.13.78l3,22.81a2.18,2.18,0,0,0,2.18,2.18H65a2.15,2.15,0,0,0,2.17-2.08l3-23a2.21,2.21,0,0,0-.12-.68h.46a2.19,2.19,0,0,0,2.18-2.18V49.94a2.12,2.12,0,0,0-.3-1.09ZM57.44,39.12l6.24,2.74-2.46,5.9H52.81ZM39.9,31.52c0-.22.21-2.18,2.94-2.18s3,1.93,3,2.1v1.88H39.9Zm-6.62,3.3H38.4v2.94a.75.75,0,0,0,1.5,0V34.82h5.93v2.94a.75.75,0,1,0,1.5,0V34.82H51V47.76H36.55V40.52a.75.75,0,0,0-.75-.75H33.28Zm-7.6,6.45h9.37v6.49H25.68Zm43,18.11-3,23a.67.67,0,0,1-.68.68H25.35a.72.72,0,0,1-.69-.78l-3-22.81a.68.68,0,0,1,.68-.68H68A.69.69,0,0,1,68.72,59.38Zm1.83-10.12a.67.67,0,0,1,.68.68v6.67a.67.67,0,0,1-.68.68H19.82a.68.68,0,0,1-.68-.68V49.94a.68.68,0,0,1,.68-.68H64.58l-17,3.07a2.61,2.61,0,1,0,.18,1l22.39-4.05ZM45.28,53.77l1.5-.27a1.62,1.62,0,1,1-.18-1l-1.5.27Z"/><path d="M65.69,30.67a1.09,1.09,0,0,0-.81.32,1,1,0,0,0-.33.79,1.05,1.05,0,0,0,.34.82,1.17,1.17,0,0,0,.8.3,1.11,1.11,0,0,0,.77-.3,1,1,0,0,0,.34-.82,1.09,1.09,0,0,0-1.11-1.11Z"/><path d="M63,25.66q.7,0,1-.84a3.31,3.31,0,0,1,.66-1.22,1.57,1.57,0,0,1,1.21-.41A1.6,1.6,0,0,1,67,23.6a1.29,1.29,0,0,1,.44,1,1.23,1.23,0,0,1-.14.57,2.35,2.35,0,0,1-.36.47q-.21.21-.69.63c-.36.32-.65.59-.86.82A2.61,2.61,0,0,0,64.69,29a1,1,0,0,0,.26.76,1,1,0,0,0,.65.25.83.83,0,0,0,.89-.78q.09-.36.12-.51a1.54,1.54,0,0,1,.35-.61,5,5,0,0,1,.4-.4c.61-.55,1-.94,1.27-1.17a3.19,3.19,0,0,0,.61-.82,2.22,2.22,0,0,0,.26-1.11,2.64,2.64,0,0,0-.45-1.49A3.13,3.13,0,0,0,67.77,22a4.39,4.39,0,0,0-1.9-.4,4.16,4.16,0,0,0-2,.48,3.51,3.51,0,0,0-1.32,1.2,2.68,2.68,0,0,0-.46,1.44.92.92,0,0,0,.29.64A1,1,0,0,0,63,25.66Z"/></svg>