<svg xmlns="http://www.w3.org/2000/svg" viewBox="0 0 100 100"><defs><style>.a{fill:#fff;}.b{fill:#e6e7e8;}</style></defs><title>iShop</title><path class="a" d="M-.5-.5v101h101V-.5ZM61,56.38H42.89V44.25H61Z"/><path class="b" d="M42.43,57.08A63.67,63.67,0,0,1,41.22,79S42,83.12,48,82.32H58.57a4.69,4.69,0,0,0,3.58-4.48S59,63.67,61,57.65Z"/><path d="M62.84,77.51c-.7-3.81-2.23-13.39-1.07-20,0,0,0-.06,0-.08s0-.06,0-.09V45a1.08,1.08,0,0,0-.07-.31v0s0,0,0,0a58.85,58.85,0,0,1-5.14-18.4l0-.08a2.22,2.22,0,0,0,.3-1.11v-2.6a2.28,2.28,0,0,0-2.28-2.28H48.86a2.29,2.29,0,0,0-2.29,2.28V25a2.37,2.37,0,0,0,.3,1.12s0,.08,0,.13a45.77,45.77,0,0,1-5.13,18.32s0,0,0,0,0,0,0,.07a.77.77,0,0,0-.06.3s0,0,0,0V57.37a.53.53,0,0,0,0,.12.33.33,0,0,0,0,.1c1.23,5.55-.16,14.88-1.1,20a5,5,0,0,0,4.94,5.95H57.89a5,5,0,0,0,5-6ZM43.59,46H59.8V56.38H43.59Zm5-23.6a.3.3,0,0,1,.31-.3h5.68a.3.3,0,0,1,.3.3V25a.31.31,0,0,1-.3.3H48.86a.31.31,0,0,1-.31-.3Zm.22,4.89h5.91A61.77,61.77,0,0,0,59.27,44H44.18a47.73,47.73,0,0,0,4.59-16.73ZM60.25,80.41a3,3,0,0,1-2.36,1.11H45.48a3.07,3.07,0,0,1-3-3.61C43.58,72,44.66,64,43.79,58.36H59.64c-.86,6.8.57,15.81,1.26,19.52a3.05,3.05,0,0,1-.65,2.53Zm0,0"/></svg>