<svg xmlns="http://www.w3.org/2000/svg" viewBox="0 0 100 100"><defs><style>.a{fill:#fff;}</style></defs><title>iShop</title><path class="a" d="M-3-2.44V102.44H103V-2.44ZM6.72,41H8.85v3H6.72Zm5,0h2.35v3H11.72Zm5.47,0H19.6v3H17.19Zm10.56,0h2.42v3H27.75Zm-5.11,0h2.41v3H22.64Zm15.85,0H40.9v3H38.49ZM33,41h2.41v3H33Zm10.64,0h2.26v3H43.67Zm5.14,0h2.35v3H48.81Zm5,0H56.2v3H53.79Zm10.55,0h2.42v3H64.34Zm-5.16,0h2.41v3H59.18ZM75,41h2.41v3H75ZM69.6,41H72v3H69.6Zm10.68,0h2.41v3H80.28Zm10.64,0h2.42v3H90.92Zm-5,0h2.41v3H85.87ZM10.76,33.32h2.1l-4,7.44-2.46,0Zm4.55-.22,2.53.21-3.47,7.55H11.72Zm4.61,0h2.29L19.6,40.8l-2.43.06Zm4.8.09,2.18-.08-1.64,7.71H22.72Zm4.72,0,2.68,0-2,7.59-2.24.05Zm4.64,0,2.58,0L35.4,40.8l-2.23,0Zm6.72,7.63H38.32l.77-7.66h2.48Zm2.93-7.6h2.49v7.61H43.73Zm4.93,0h2.49v7.61H48.66Zm7.91,7.6H54.08l-.63-7.6h2.48Zm5,0H59.13l-.76-7.6h2.49Zm5.17,0H64.31l-.87-7.6h2.48Zm5.26,0H69.56l-1.34-7.53h2.49Zm5.38,0H74.94l-1.89-7.54h2.49Zm5.21.1H80.16l-2.51-7.7h2.49Zm5.68-.1H85.83L82,33.18h2.49Zm5.05,0H90.88L87,33.18h2.49Z"/><path d="M79.77,69.59H89.3V48.27H79.77ZM88.53,49V68.81h-8V49Z"/><path d="M93.7,40.49,90,33.09V26.85H10.26v6.24L6.16,40.7V73H36.6V73l.13-.05H37V72.9l1.36-.49H51.13l1.5.54v0h.14l.42.15V73h40.5v-.16h.15V40.49Zm-55,4.86H50.83V71.68H38.69ZM38,44.64V71.79l-.94.33V44.3H52.47V72.12l-.93-.33V44.64ZM6.88,44.3H36.32v28H6.88ZM89.24,27.56v5.26H11V27.56Zm-37.7,16V41.19h2v2.39Zm-15.66,0V41.19H38v2.39Zm51.86-3.09H85.91l-3.28-7h1.59Zm-2.63,0h-2l-2.78-7h1.48Zm-2.76,0H80.41l-2.36-7H79.6Zm-2.71,0h-2l-1.81-7h1.49Zm-2.78,0H75.07l-1.77-7H75Zm-2.56,0H72.48l-1.61-7h1.7Zm-2.56,0H69.93l-1.52-7h1.71Zm-2.55,0h-2l-1.11-7h1.56Zm-2.74,0h-1.8l-1.06-7h1.77Zm-2.56,0h-2l-.5-6.93h1.52Zm-2.79,0H59.31l-.45-7h1.77Zm-2.56,0H56.73l-.3-6.93h1.7Zm-2.55,0H54.23L54,33.56h1.71Zm-2.5,0h-2v-7h1.71Zm-2.69,0H49v-7h1.8Zm-2.51,0h-1.9l.25-6.93h1.71Zm-2.65,0H43.85l.3-6.93h1.77Zm-2.56,0H41.26l.45-6.93h1.71Zm-2.55,0h-1.8l.5-6.93H41Zm-2.56,0h-2L37,33.56h1.51Zm-2.8,0H33.4l1.11-6.93h1.75Zm-2.56,0H30.66l1.56-6.93h1.56Zm-2.74,0H28.12l1.61-6.93h1.76Zm-2.56,0H25.54l1.75-6.93H29Zm-2.56,0H23l1.81-6.93h1.71Zm-2.56,0h-2l2.37-6.93h1.49Zm-2.79,0H17.5l2.77-6.93h1.55Zm-2.66,0h-2l3.26-7H19.5Zm-2.78,0H12.13l3.52-6.93h1.6Zm-2.68,0H9.57l3.6-7h1.66Zm-.14.72V43.6H9.32V41.21Zm.72,0h2V43.6H11.89Zm2.65,0h2.07V43.6h-2Zm2.79,0h2V43.6h-2Zm2.74,0h2.09V43.6H20.07Zm2.82,0h1.82V43.6H22.89Zm2.56,0h1.87V43.6H25.43Zm2.55,0h1.84V43.6H28Zm2.56,0H32.6V43.6H30.55Zm2.77,0h1.85V43.6H33.34Zm5.36,0h1.82V43.6H38.69Zm2.56,0h1.87V43.6H41.22Zm2.56,0H45.6V43.6H43.83Zm2.55,0h1.94V43.6H46.38Zm2.66,0h1.79V43.6H49Zm5.21,0H56V43.6H54.25Zm2.49,0h1.88V43.6H56.69Zm2.56,0h1.91V43.6H59.34Zm2.56,0h2.1V43.6h-2Zm2.82,0h1.83V43.6H64.7Zm2.56,0h2.07V43.6h-2Zm2.76,0h1.87V43.6H70Zm2.56,0h1.88V43.6H72.51Zm2.56,0h1.87V43.6H75.15Zm2.56,0h2.1V43.6h-2Zm2.82,0h2V43.6h-2Zm2.74,0h2.07V43.6h-2Zm2.79,0h1.93V43.6H86Zm2.65,0h2V43.6H88.69Zm-.08-.72-3.52-7h1.65l3.63,7Zm-1.06-7h1.89l3.52,7H91.12Zm-75.13,0-3.64,7H7.12l3.72-7Zm-3.76,10H6.89V41.19H8.6Zm44.59.72h40v28H53.19Zm40-.9v.18H91.25V41.19h1.89Z"/><path d="M39.52,46.12V71.19H50.17V46.12Zm.75,24.33V46.87h9.15V70.45Z"/><path d="M56.47,46.11V71.69H91.18V46.11Zm.78,24.79v-24H90.4v24Z"/><path d="M57.9,69.59h9.53V48.27H57.9ZM66.65,49V68.81h-8V49Z"/><path d="M68.83,69.59h9.53V48.27H68.83ZM77.59,49V68.81h-8V49Z"/><path d="M8.23,71.19H34.92V45.91H8.23ZM34.15,46.67V70.42H9V46.68Z"/><path d="M47.17,57.19a1.23,1.23,0,1,0,1.24,1.22h0A1.25,1.25,0,0,0,47.17,57.19Zm0,1.7a.48.48,0,1,1,.48-.47.48.48,0,0,1-.48.47Z"/></svg>