<svg xmlns="http://www.w3.org/2000/svg" viewBox="0 0 100 100"><defs><style>.a{fill:#fff;}</style></defs><title>iShop</title><path class="a" d="M-.5-.5v101h101V-.5ZM43.62,22.38h13v3.3h-13ZM50.5,60.62a1.65,1.65,0,0,1-2.81.12A9.57,9.57,0,0,0,44,57.84a6,6,0,0,1,4.87-.56C51.82,58.93,50.5,60.62,50.5,60.62Zm6-1.63S55,61.82,52.58,60.52c0,0-2.81-2.45,2-5.35a6.45,6.45,0,0,1,4.93.11A10,10,0,0,0,56.5,59Z"/><path d="M40.29,78.46a3.06,3.06,0,0,1-3.06-3V45.33a12.67,12.67,0,0,1,1.17-4.91l5.55-11,0-3h-.62a.62.62,0,0,1-.61-.61V22.15a.61.61,0,0,1,.61-.61H56.63a.61.61,0,0,1,.61.61v3.67a.62.62,0,0,1-.61.61H56v2.84L61.6,40.42a12.67,12.67,0,0,1,1.17,4.91V75.41a3.06,3.06,0,0,1-3.05,3ZM39.48,41a11.7,11.7,0,0,0-1,4.36V75.41a1.84,1.84,0,0,0,1.84,1.84H59.72a1.85,1.85,0,0,0,1.84-1.84V45.33a11.76,11.76,0,0,0-1-4.36L59.1,38.16l-.23,0a3.19,3.19,0,0,0-1.41.71,4,4,0,0,1-2.73,1,4.09,4.09,0,0,1-2.73-1,3,3,0,0,0-4,0,4.23,4.23,0,0,1-5.46,0,3.11,3.11,0,0,0-1.41-.72l-.23,0Zm10.52-4a4.07,4.07,0,0,1,2.73,1,3,3,0,0,0,4,0,4.68,4.68,0,0,1,1.44-.81l.35-.12-3.66-7.24a.67.67,0,0,1-.06-.28V26.43H45.21v3.06a.68.68,0,0,1-.07.28L41.48,37l.35.12a4.59,4.59,0,0,1,1.43.81,3,3,0,0,0,4,0A4.09,4.09,0,0,1,50,36.94ZM44,25.21H56V22.75H44Z"/><path d="M41.51,74.79a.61.61,0,0,1-.61-.61V70.51a.61.61,0,0,1,1.22,0v3.67A.61.61,0,0,1,41.51,74.79Z"/><path d="M41.51,67.44a.6.6,0,0,1-.61-.6V45.33a9.38,9.38,0,0,1,.78-3.25.59.59,0,0,1,.81-.27.61.61,0,0,1,.27.82,8.33,8.33,0,0,0-.64,2.7V66.84A.6.6,0,0,1,41.51,67.44Z"/><path d="M48.27,30.1a.61.61,0,1,1,0-1.21h3.46a.61.61,0,1,1,0,1.21Z"/><path d="M51.15,67.88l-.1-4.47a3.51,3.51,0,0,0-.68-2.07,1.46,1.46,0,0,1-1.21.58c-.94,0-1.73-.76-2.57-1.57a6.93,6.93,0,0,0-2.82-2l-.7-.19.56-.6a6,6,0,0,1,3.47-1.22,4.74,4.74,0,0,1,2.54.73,3.78,3.78,0,0,1,1.49,1.71,2.17,2.17,0,0,1-.13,2,2.74,2.74,0,0,1,.62,1,2.73,2.73,0,0,1,.46-1.28,2.33,2.33,0,0,1-.64-2.59,4.85,4.85,0,0,1,1.81-2.51,5.89,5.89,0,0,1,3.53-1.14,7.55,7.55,0,0,1,3.11.71l.66.29-.63.51A8.67,8.67,0,0,0,57,58.87c-.88,1.3-1.72,2.53-3,2.53a2.58,2.58,0,0,1-1.25-.35,6.58,6.58,0,0,0-.76,2.28v4.55Zm-4-10.6a4.75,4.75,0,0,0-2.4.69,6.3,6.3,0,0,1,2.49,1.73c.75.72,1.39,1.33,2,1.34a1.24,1.24,0,0,0,.79-.36,19.09,19.09,0,0,0-1.65-1.13L48,59.32l.38-.69.37.12a10.09,10.09,0,0,1,1.8,1.38,3,3,0,0,0-3.4-2.85Zm7.52.9c0,.23-.71,1.07-1.36,2.09a1,1,0,0,0,.68.25c.85,0,1.53-1,2.31-2.15a10.94,10.94,0,0,1,2.64-3,19.08,19.08,0,0,0-2.11-.21,5,5,0,0,0-3,1,4,4,0,0,0-1.48,2,1.71,1.71,0,0,0,.31,1.72,13.38,13.38,0,0,1,1.34-2.12l.07-.08Z"/></svg>