<svg xmlns="http://www.w3.org/2000/svg" viewBox="0 0 100 100"><defs><style>.a{fill:#fff;}.b{fill:#e6e7e8;}</style></defs><title>iShop</title><path class="a" d="M-.54-.5v101h101V-.5ZM55,43.1s.4,4.47-5,5C50,48.12,50.57,43.2,55,43.1ZM53.36,62.59l-3-.09c-3.2.39-4.7-.58-4.7-.58-7.52-6.73-1.18-12.56-1.18-12.56,1.63-1.37,5.88,0,5.88,0,7.21-1.7,7.45,4,7.45,4C58.45,60.47,53.36,62.59,53.36,62.59Z"/><path d="M54.94,48.28a4.68,4.68,0,0,0-1.61-.22,6.23,6.23,0,0,0,2.51-5,.93.93,0,0,0-.93-.93A5.83,5.83,0,0,0,50,45a5.33,5.33,0,0,0-1.45-1.69.93.93,0,0,0-1.3.25.92.92,0,0,0,.25,1.28A4.67,4.67,0,0,1,49,48.46a10.61,10.61,0,0,1-1.37-.24,4.69,4.69,0,0,0-2.68.06A5.48,5.48,0,0,0,41.56,52a9.63,9.63,0,0,0,0,5.8,8.8,8.8,0,0,0,4.09,5.38,5.27,5.27,0,0,0,2.47.65,4.71,4.71,0,0,0,1.44-.23h0a1.4,1.4,0,0,1,.81,0h0a5,5,0,0,0,3.92-.42,8.82,8.82,0,0,0,4.08-5.38,9.71,9.71,0,0,0,0-5.8,5.51,5.51,0,0,0-3.42-3.67Zm-.12-5a6.49,6.49,0,0,1-4.53,4.61,6.46,6.46,0,0,1,4.53-4.61Zm1.77,14a7,7,0,0,1-3.17,4.27,3.17,3.17,0,0,1-2.47.29h0a3.13,3.13,0,0,0-2,0h0a3.2,3.2,0,0,1-2.48-.29,7.08,7.08,0,0,1-3.17-4.27c-.94-3.19.08-6.48,2.23-7.18a2.76,2.76,0,0,1,.86-.13,3,3,0,0,1,.78.1,11,11,0,0,0,5.53,0,2.94,2.94,0,0,1,1.64,0c2.15.7,3.17,4,2.23,7.18Zm0,0"/><rect class="b" x="41.8" y="24.86" width="16.37" height="4.77"/><path d="M60.46,76h-21a2.35,2.35,0,0,1-2.35-2.34V34.18l3.94-4.8V24H59.1v5.38L62.8,34V73.66A2.34,2.34,0,0,1,60.46,76ZM38.52,34.69v39a.94.94,0,0,0,.94.93h21a.94.94,0,0,0,.94-.93V34.49l-3.71-4.61V25.41H42.46v4.47Z"/><rect x="41.75" y="28.93" width="16.64" height="1.41"/></svg>