<svg xmlns="http://www.w3.org/2000/svg" viewBox="0 0 100 100"><defs><style>.a{fill:#e6e7e8;}.b{fill:#fff;}</style></defs><title>iShop</title><rect class="a" x="43.34" y="21.37" width="13.27" height="3.62"/><path class="b" d="M-.5-.5v101h101V-.5ZM53.74,65.73s-5-.69-5.71-3.86a7.75,7.75,0,0,1,1.79-2l-.8.2S44,57.91,45.74,52c0,0,7.48-1.54,8.45,6l.11.61c.47,0,4.21.53,5.34,3.48A6.2,6.2,0,0,1,53.74,65.73Z"/><path d="M40,79.41a3.17,3.17,0,0,1-3.16-3.16V45.18A13.05,13.05,0,0,1,38,40.11l5.74-11.38,0-3.09h-.64a.63.63,0,0,1-.63-.63V21.22a.63.63,0,0,1,.63-.63h13.7a.63.63,0,0,1,.63.63V25a.63.63,0,0,1-.63.63h-.64v2.94L62,40.11a13.05,13.05,0,0,1,1.21,5.07V76.25A3.17,3.17,0,0,1,60,79.41Zm-.83-38.74a12.07,12.07,0,0,0-1.07,4.51V76.25a1.9,1.9,0,0,0,1.9,1.9H60a1.9,1.9,0,0,0,1.9-1.9V45.18a12.11,12.11,0,0,0-1.07-4.51l-1.47-2.9-.24,0a3.27,3.27,0,0,0-1.45.73,4.19,4.19,0,0,1-2.82,1,4.24,4.24,0,0,1-2.82-1,3.11,3.11,0,0,0-4.14,0,4.38,4.38,0,0,1-5.64,0,3.18,3.18,0,0,0-1.45-.74l-.24,0ZM50,36.5a4.19,4.19,0,0,1,2.82,1,3.11,3.11,0,0,0,4.14,0,4.77,4.77,0,0,1,1.49-.84l.35-.12L55,29.09a.64.64,0,0,1-.06-.28V25.64H45.05v3.17a.68.68,0,0,1-.07.28L41.2,36.58l.35.12a4.66,4.66,0,0,1,1.49.84,3,3,0,0,0,2.07.79,3.06,3.06,0,0,0,2.07-.79A4.19,4.19,0,0,1,50,36.5ZM43.78,24.39H56.22V21.85H43.78Z"/><path d="M41.23,75.61A.63.63,0,0,1,40.6,75v-3.8a.63.63,0,0,1,.63-.63.63.63,0,0,1,.63.63V75A.63.63,0,0,1,41.23,75.61Z"/><path d="M41.23,68a.63.63,0,0,1-.63-.62V45.18a9.83,9.83,0,0,1,.8-3.37.63.63,0,0,1,.56-.34.53.53,0,0,1,.28.07.62.62,0,0,1,.28.84,8.68,8.68,0,0,0-.66,2.8V67.4A.63.63,0,0,1,41.23,68Z"/><path d="M48.21,29.44a.63.63,0,1,1,0-1.26h3.58a.63.63,0,1,1,0,1.26Z"/><path d="M53.82,66.07a7.22,7.22,0,0,1-5.45-2.54L48,63.15a1.54,1.54,0,0,1,0-2.08l.34-.38c.14-.16.29-.32.45-.47a6.76,6.76,0,0,1-4-6.85l0-.52a1.52,1.52,0,0,1,1.46-1.46l.52,0h.5a7.23,7.23,0,0,1,5,1.92,7.14,7.14,0,0,1,2.23,5,6.71,6.71,0,0,1,4.69,2.41l.34.38a1.54,1.54,0,0,1,0,2.08l-.34.38A7.2,7.2,0,0,1,53.82,66.07Zm-2.89-4.76a3.72,3.72,0,0,0-2.54,1,1.89,1.89,0,0,0,.22.34L49,63a6.34,6.34,0,0,0,9.69,0,2.81,2.81,0,0,1-1.91.63,4.47,4.47,0,0,1-3.16-1.31A3.7,3.7,0,0,0,50.93,61.31Zm0-.8a4.48,4.48,0,0,1,3.19,1.32,3.68,3.68,0,0,0,5.13.08c-.06-.07-.12-.2-.23-.32l-.34-.39a6.51,6.51,0,0,0-4.5-2.26h-.61a6.36,6.36,0,0,0-3.9,1.56,7.89,7.89,0,0,0-.65.63A2.85,2.85,0,0,1,50.93,60.51Zm-5.15-8a.82.82,0,0,0-.13.4l0,.51a6.37,6.37,0,0,0,3.78,6.37A4.26,4.26,0,0,1,50.45,59a4.12,4.12,0,0,1-1-2.5,8.2,8.2,0,0,0-.39-1.64A3.85,3.85,0,0,0,45.78,52.5Zm1.2-.37a3.94,3.94,0,0,1,2.82,2.44,8.6,8.6,0,0,1,.43,1.81,4.2,4.2,0,0,0,.9,2.38,5.37,5.37,0,0,1,2.06-.58l.63,0a6.36,6.36,0,0,0-6.47-6Z"/></svg>