<svg xmlns="http://www.w3.org/2000/svg" viewBox="0 0 100 100"><defs><style>.a{fill:#fff;}</style></defs><title>iShop</title><path class="a" d="M-.5-.5v101h101V-.5Zm49,33.06h7.88v4.21H48.46ZM61.64,77.8A1.23,1.23,0,0,1,60.41,79H45a1.76,1.76,0,0,1-1.76-1.76V60.2H61.64Z"/><path d="M59.17,80.11H45.82a3.39,3.39,0,0,1-3.39-3.39V55.55a7.94,7.94,0,0,1,.33-2.27L47.6,37.15a2.87,2.87,0,0,0,.13-.87V33.37A1.42,1.42,0,0,1,49.15,32h6.47A1.42,1.42,0,0,1,57,33.37v2.88a2.79,2.79,0,0,0,.14.91l5,16.07a7.85,7.85,0,0,1,.36,2.36V76.72A3.39,3.39,0,0,1,59.17,80.11Zm-10-46.76,0,2.93a4.32,4.32,0,0,1-.19,1.28L44.11,53.68a6.23,6.23,0,0,0-.28,1.87V76.72a2,2,0,0,0,2,2H59.17a2,2,0,0,0,2-2V55.59a6.7,6.7,0,0,0-.29-1.94l-5-16.07a4.61,4.61,0,0,1-.2-1.33V33.37Z"/><rect x="48.46" y="36.07" width="7.88" height="1.4"/><rect x="43.13" y="59.5" width="18.73" height="1.4"/><path d="M54.74,60.22l-5.2-35.61a2.17,2.17,0,0,0-1.84-1.83l-10.26-1.5.2-1.39,10.27,1.5a3.59,3.59,0,0,1,3,3L56.13,60Z"/></svg>