<svg xmlns="http://www.w3.org/2000/svg" viewBox="0 0 100 100"><defs><style>.a{fill:#fff;}</style></defs><title>iShop</title><path class="a" d="M-3-2.44V102.44H103V-2.44ZM74.4,37.18H25.59L50,21.46Zm-22-6.72A2.46,2.46,0,1,0,50,32.91h0A2.47,2.47,0,0,0,52.42,30.46ZM69.07,66.39v4.13H59.84V66.39h9.23Zm-28.91,0v4.13H30.93V66.39h9.23Zm0-24.82v4.12H30.92V41.57Zm28.91,0v4.12H59.83V41.57Z"/><path d="M50,27.49h0a3,3,0,0,0-3,3,2.91,2.91,0,0,0,.86,2.1,3,3,0,0,0,2.1.88h0a3,3,0,0,0,0-5.94Zm0,4.91a1.95,1.95,0,1,1,1.94-1.94A1.94,1.94,0,0,1,50,32.4Z"/><path d="M93.34,47.05H73.07v-5H74.4a.57.57,0,0,0,.39-.15.56.56,0,0,0,.15-.37V37.17a.52.52,0,0,0-.24-.43L50.3,21a.53.53,0,0,0-.58,0L25.31,36.75a.52.52,0,0,0-.24.43v4.38a.52.52,0,0,0,.52.52h1.35v5H6.66v1H8.33L8.28,78.56a.51.51,0,0,0,.51.51h82.4a.52.52,0,0,0,.52-.52V48.07h1.63ZM50,22.06l22.6,14.61H27.33Zm-23.89,19V37.69H73.88v3.36Zm43,24.82H67.86l-.51-19.68h1.72a.51.51,0,0,0,.51-.51v-3.6H72L72,70H69.58V66.39A.52.52,0,0,0,69.07,65.87ZM50,51.3a5.61,5.61,0,0,0-5.6,5.61V70H40.68l0-3.58a.53.53,0,0,0-.52-.52H39l-.52-19.68h1.72a.51.51,0,0,0,.51-.51v-3.6H59.3v3.6a.52.52,0,0,0,.52.51h1.76l-.52,19.68H59.84a.52.52,0,0,0-.52.52V70h-3.7V56.91A5.63,5.63,0,0,0,50,51.3Zm4.58,5.61V70H45.42V56.91a4.58,4.58,0,0,1,9.16,0ZM30.92,46.19h1.74l-.52,19.68H30.93a.52.52,0,0,0-.52.52V70H28l0-27.89H30.4v3.6A.51.51,0,0,0,30.92,46.19Zm.51-1V42.08h8.2v3.09Zm6.5,20.7H33.17l.49-19.68h3.75Zm-6.48,1h8.19V70H31.45ZM60.33,45.17V42.08h8.22v3.09Zm6.51,20.7H62.09l.52-19.68h3.71Zm-6.49,1h8.2V70h-8.2ZM73.9,71v3H26.08V71ZM22.76,74.55V78H9.3v-30H26.94V70H25.59a.6.6,0,0,0-.42.17.55.55,0,0,0-.14.37V74H23.3A.52.52,0,0,0,22.76,74.55Zm53.42,3.5H23.81v-3H76.18Zm14.5,0H77.22l0-3.52a.52.52,0,0,0-.52-.52H74.91V70.49a.52.52,0,0,0-.52-.52H73V48.07H90.68Z"/><path d="M87.22,58a.52.52,0,0,0,.52-.52V53.18a.52.52,0,0,0-.52-.52H83.77a.52.52,0,0,0-.52.52v4.34a.53.53,0,0,0,.52.52ZM84.3,53.71h2.42V57H84.3Z"/><path d="M87.22,66.37a.51.51,0,0,0,.52-.51V61.52a.51.51,0,0,0-.52-.51H83.77a.52.52,0,0,0-.52.51v4.33a.52.52,0,0,0,.52.52ZM84.3,62h2.42v3.32H84.3Z"/><path d="M79.79,52.66H76.33a.51.51,0,0,0-.51.52v4.34a.52.52,0,0,0,.51.52h3.46a.52.52,0,0,0,.51-.52V53.18A.51.51,0,0,0,79.79,52.66ZM79.27,57H76.84V53.71h2.43Z"/><path d="M79.79,61H76.33a.51.51,0,0,0-.51.51v4.33a.51.51,0,0,0,.51.52h3.46a.51.51,0,0,0,.51-.51V61.52A.51.51,0,0,0,79.79,61Zm-.52,4.34H76.84V62h2.43Z"/><path d="M20.12,52.66a.52.52,0,0,0-.52.52v4.34a.53.53,0,0,0,.52.52h3.46a.53.53,0,0,0,.51-.52V53.18a.52.52,0,0,0-.52-.52ZM23.06,57H20.64V53.71h2.42Z"/><path d="M20.13,66.37h3.45a.52.52,0,0,0,.52-.51V61.52a.51.51,0,0,0-.52-.51H20.13a.52.52,0,0,0-.52.51v4.34A.53.53,0,0,0,20.13,66.37ZM20.64,62h2.42v3.32H20.64Z"/><path d="M16.7,57.52V53.18a.52.52,0,0,0-.52-.52H12.73a.52.52,0,0,0-.52.52v4.34a.53.53,0,0,0,.5.52h3.43A.53.53,0,0,0,16.7,57.52ZM15.63,57H13.2V53.71h2.43Z"/><path d="M12.73,61a.51.51,0,0,0-.52.51v4.34a.52.52,0,0,0,.5.51h3.42a.47.47,0,0,0,.41-.15.48.48,0,0,0,.16-.36V61.52a.51.51,0,0,0-.52-.51Zm2.9,4.34H13.2V62h2.43Z"/></svg>