<svg xmlns="http://www.w3.org/2000/svg" viewBox="0 0 100 100"><defs><style>.a{fill:#fff;}.b{fill:#e6e7e8;}</style></defs><title>iShop</title><path class="a" d="M-3-2.44V102.44H103V-2.44ZM59.16,59.67s8,2.21,10,4.17,6.09,13.48,5.14,13.82S57,80.44,51.17,79.85,25.7,78.34,25.7,78.34s-.28-6.52,1.58-9.38a24.64,24.64,0,0,1,7.91-7.19c2-.88,5.39-2.17,5.39-2.17s2,4.7,5.23,5.5,4.67,1.5,7.32.53,6.12-6,6.12-6"/><path class="b" d="M53.63,28.63s-5.39,5.63-6.72,5.74-8.5.89-9.29,0S36,36.43,36,36.43l.7,5.63,1.09,1.58s.2,4,1.48,5,1.63,3.32,2.84,5.12,1.4.5,1.4.5l-1.67,6-1.39-.59-7.8,3.25a32.54,32.54,0,0,1-2.3-8.39c-.18-3.36,0-15.78,0-15.78l3.18-9.11,5.74-5.82a16.94,16.94,0,0,1,5.82-3.06c3.16-.81,9.49-.61,11.55.68s6.62,4,8.79,7.71a26.65,26.65,0,0,1,3.76,16.3c-.7,7.19.2,14.38-1,16.3s-1,1.19-1,1.19l-7.6-3.6-.5.31-.69.9-2-5.86A16.07,16.07,0,0,0,60.44,50c1.58-2.93,1-3.34,1.8-5.82S59.87,42,58.19,39.22a101.12,101.12,0,0,1-4.56-10.59"/><path d="M74.76,76.51c-.48-6.1-2.57-10.43-6.63-13.46,1.51-3.6,1.69-13,1.69-20,0-13.38-8.53-23.37-19.86-23.37S30.11,29.66,30.11,43c0,6.94.18,16.39,1.67,19.93-4.1,3.07-6.08,7.37-6.62,13.57v1.08A1.37,1.37,0,0,0,26.44,79h.11a178.54,178.54,0,0,0,18.92,1.28h5a187.72,187.72,0,0,0,23-1.37,1.38,1.38,0,0,0,1.39-1.38v-.11ZM31.09,43c0-12.76,8.09-22.39,18.8-22.39S68.83,30.27,68.83,43c0,3.92,0,15.44-1.51,19.34a27.13,27.13,0,0,0-8.1-3.4.52.52,0,0,0-.63.34l-.09.23a19.35,19.35,0,0,1-1.42-5.06,20.68,20.68,0,0,0,5.79-11.33.54.54,0,0,0-.29-.57c-4.87-2.34-8-11.48-8.36-14.56a.53.53,0,0,0-1-.12c-.09.25-2.46,6.29-11.05,6.65a10.91,10.91,0,0,1-4-.65h-.77c-1.49.38-2.14,2.37-1.8,5.39a5.8,5.8,0,0,0,1.62,4.06A20.58,20.58,0,0,0,43,54.47a19.13,19.13,0,0,1-1.56,5.4,4.39,4.39,0,0,1-.2-.49.54.54,0,0,0-.65-.34,28,28,0,0,0-7.87,3.31c-1.6-3.9-1.6-15.37-1.6-19.34M50,65.53A9.11,9.11,0,0,1,41.88,61h0a18.4,18.4,0,0,0,1.79-5.61,9.52,9.52,0,0,0,12.17,0,18.61,18.61,0,0,0,1.8,5.39,9,9,0,0,1-7.87,4.77m0-9C44.37,56.54,39.49,51,38,43.05a.5.5,0,0,0-.27-.36c-.83-.47-1.13-2-1.31-3.42-.29-2.28.1-4,.88-4.17h.36a12,12,0,0,0,4.24.67,13.41,13.41,0,0,0,11.5-6.08c.93,4,3.84,11.23,8.3,13.68-1.6,7.71-6.36,13.08-11.7,13.08M26.15,77.62v-1c.72-9,4.82-13.71,14.15-16.35a10.5,10.5,0,0,0,9.57,6.36,9.52,9.52,0,0,0,3.76-.74L45.22,79.26A176.85,176.85,0,0,1,26.53,78c-.47,0-.47-.16-.47-.36M73.24,78a188.21,188.21,0,0,1-23.37,1.31H46.55l9.13-14.56a12,12,0,0,0,3.59-4.56C68.76,62.8,73,67.59,73.65,76.61v1c0,.23,0,.34-.47.4"/></svg>