<svg xmlns="http://www.w3.org/2000/svg" viewBox="0 0 100 100"><defs><style>.a{fill:#fff;}.b{fill:#e2e2e2;}.c{fill:#008161;}.d{fill:none;}</style></defs><title>iShop</title><path class="a" d="M-3.11-3V102.37h105.8V-3Zm18.66,40.2,0,.33c0,.3.08.6.13.89s.06.29.1.44c.06.31.13.57.2.84s.11.34.16.51.17.49.26.74.14.33.21.5.22.48.34.71l.06.12a3,3,0,0,0,.18.36c.13.24.28.48.44.73l.07.12c.06.09.11.18.17.26a12.41,12.41,0,0,0,.75,1l.52.65.64-.53,4.49-4.49-.22-4H15.46Zm19.59,2a10.07,10.07,0,0,1,7.16,3,8.9,8.9,0,0,0,6.33,2.62,8.39,8.39,0,0,0,1.65-.16l.56-.1L52.34,31H25l.73,13.44L28,42.13A10.07,10.07,0,0,1,35.14,39.17Zm16.91,5,1.34-.82A8.41,8.41,0,0,0,55,42.13l3.42-3.42L58.84,31H53.52ZM18.7,26.76a14.11,14.11,0,0,0-3.16,7.6l-.08.85H24l-.26-4.57L19.24,26.1Zm11.62,3H34.9l4.53-4.53-.66-.54q-.5-.4-1.05-.78l-.21-.13-.14-.09c-.26-.16-.51-.32-.78-.46a3.1,3.1,0,0,0-.32-.17L36.15,23l-.73-.35-.49-.2c-.25-.1-.5-.19-.76-.27l-.5-.15c-.26-.08-.52-.14-.78-.2l-.12,0-.38-.09-.88-.13-.33,0-.86-.09Zm-2-8.21a14.24,14.24,0,0,0-7.61,3.15l-.65.54,4.52,4.52h4.58V21.5ZM59.45,29.8a.61.61,0,0,1,.44.2.57.57,0,0,1,.15.42L57.34,79v5.42a.59.59,0,0,1-.59.58H27a.58.58,0,0,1-.58-.58V79L24.4,42l-8.57,8.57a.58.58,0,0,1-.41.17.56.56,0,0,1-.41-.16l-.27-.28a20.84,20.84,0,1,1,29.73-29.2.58.58,0,0,1,0,.82L36.55,29.8H52.48l1-8.94a.58.58,0,0,1,.28-.43l6.1-3.66.6,1L54.6,21.28l-1,8.52ZM92.61,81.23a.4.4,0,0,1-.07.24l-1.38,2.35a.47.47,0,0,1-.4.23H65.85a.49.49,0,0,1-.41-.23l-1.37-2.34a.46.46,0,0,1-.08-.25V25a3,3,0,0,1,1.08-1.83l.35-.34-1-1a.51.51,0,0,1-.13-.33V19.85a.47.47,0,0,1,.47-.47H71l7.48-3a.57.57,0,0,1,.18,0,.49.49,0,0,1,.44.3.48.48,0,0,1-.27.61l-5.46,2.13H91.86a.47.47,0,0,1,.47.47v1.64a.44.44,0,0,1-.13.33l-1,1,.34.34A2.9,2.9,0,0,1,92.61,25Z"/><path class="b" d="M27,85a.58.58,0,0,1-.58-.58V79L24.4,42l-8.57,8.57a.58.58,0,0,1-.41.17.56.56,0,0,1-.41-.16l-.27-.28a20.84,20.84,0,1,1,29.73-29.2.58.58,0,0,1,0,.82L36.55,29.8H52.48l1-8.94a.58.58,0,0,1,.28-.43l6.1-3.66.6,1L54.6,21.28l-1,8.52h5.8a.61.61,0,0,1,.44.2.57.57,0,0,1,.15.42L57.34,79v5.42a.59.59,0,0,1-.59.58Zm.58-1.17H56.17V79.59H27.62Zm2.12-67.71A19.68,19.68,0,0,0,14.87,48.67l.54.62,3-3-.49-.56-.05-.07-.18-.23-.14-.18c-.2-.25-.39-.51-.57-.77-.07-.11-.15-.22-.22-.34L16.69,44c-.16-.25-.31-.5-.45-.76s-.18-.33-.27-.51-.25-.52-.37-.78-.15-.35-.22-.54-.2-.53-.29-.8l-.18-.55c-.07-.26-.13-.5-.19-.75l-.06-.3c0-.12-.06-.23-.08-.35-.06-.32-.1-.64-.14-1l0-.2c0-.09,0-.18,0-.28,0-.5-.07-1-.07-1.45A15.48,15.48,0,0,1,29.74,20.35c.47,0,1,0,1.46.07l.47.06,1,.14.36.08.19.05c.28.06.57.13.85.21l.43.13.13.05c.27.09.54.18.79.28l.56.23c.26.11.5.23.76.36l.53.28c.25.14.49.28.72.44l.07,0a3.55,3.55,0,0,1,.43.28c.25.16.48.34.71.52l.16.12.29.23.59.44.53-.39,2.52-2.51-.62-.54A19.55,19.55,0,0,0,29.8,16.11ZM15.55,37.22l0,.33c0,.3.08.6.13.89s.06.29.1.44c.06.31.13.57.2.84s.11.34.16.51.17.49.26.74.14.33.21.5.22.48.34.71l.06.12a3,3,0,0,0,.18.36c.13.24.28.48.44.73l.07.12c.06.09.11.18.17.26a12.41,12.41,0,0,0,.75,1l.52.65.64-.53,4.49-4.49-.22-4H15.46Zm19.59,2a10.07,10.07,0,0,1,7.16,3,8.9,8.9,0,0,0,6.33,2.62,8.39,8.39,0,0,0,1.65-.16l.56-.1L52.34,31H25l.73,13.44L28,42.13A10.07,10.07,0,0,1,35.14,39.17Zm16.91,5,1.34-.82A8.41,8.41,0,0,0,55,42.13l3.42-3.42L58.84,31H53.52ZM18.7,26.76a14.11,14.11,0,0,0-3.16,7.6l-.08.85H24l-.26-4.57L19.24,26.1Zm11.62,3H34.9l4.53-4.53-.66-.54q-.5-.4-1.05-.78l-.21-.13-.14-.09c-.26-.16-.51-.32-.78-.46a3.1,3.1,0,0,0-.32-.17L36.15,23l-.73-.35-.49-.2c-.25-.1-.5-.19-.76-.27l-.5-.15c-.26-.08-.52-.14-.78-.2l-.12,0-.38-.09-.88-.13-.33,0-.86-.09Zm-2-8.21a14.24,14.24,0,0,0-7.61,3.15l-.65.54,4.52,4.52h4.58V21.5Z"/><path class="c" d="M59.45,29.8h-5.8l1-8.52,5.85-3.51-.6-1-6.1,3.66a.58.58,0,0,0-.28.43l-1,8.94H36.55l7.93-7.93a.58.58,0,0,0,0-.82,20.84,20.84,0,1,0-29.73,29.2l.27.28a.56.56,0,0,0,.41.16.58.58,0,0,0,.41-.17L24.4,42,26.46,79v5.38A.58.58,0,0,0,27,85H56.75a.59.59,0,0,0,.59-.58V79L60,30.42a.57.57,0,0,0-.15-.42A.61.61,0,0,0,59.45,29.8Zm-24.55,0H30.32V21.5l.86.09.33,0,.88.13.38.09.12,0c.26.06.52.12.78.2l.5.15c.26.08.51.17.76.27l.49.2.73.35.12.06a3.1,3.1,0,0,1,.32.17c.27.14.52.3.78.46l.14.09.21.13q.56.38,1.05.78l.66.54ZM15.41,49.29l-.54-.62A19.68,19.68,0,0,1,29.74,16.11h.06a19.55,19.55,0,0,1,12.83,4.81l.62.54L40.73,24l-.53.39-.59-.44-.29-.23-.16-.12c-.23-.18-.46-.36-.71-.52a3.55,3.55,0,0,0-.43-.28l-.07,0c-.23-.16-.47-.3-.72-.44L36.7,22c-.26-.13-.5-.25-.76-.36l-.56-.23c-.25-.1-.52-.19-.79-.28l-.13-.05L34,21c-.28-.08-.57-.15-.85-.21L33,20.7l-.36-.08-1-.14-.47-.06c-.51-.05-1-.07-1.46-.07A15.48,15.48,0,0,0,14.3,35.79c0,.46,0,1,.07,1.45,0,.1,0,.19,0,.28l0,.2c0,.32.08.64.14,1,0,.12.05.23.08.35l.06.3c.06.25.12.49.19.75l.18.55c.09.27.18.54.29.8s.14.37.22.54.24.52.37.78.18.35.27.51.29.51.45.76l.08.12c.07.12.15.23.22.34.18.26.37.52.57.77l.14.18.18.23.05.07.49.56ZM19.24,26.1l4.53,4.54L24,35.21H15.46l.08-.85a14.11,14.11,0,0,1,3.16-7.6Zm.58,18.79-.64.53-.52-.65a12.41,12.41,0,0,1-.75-1c-.06-.08-.11-.17-.17-.26l-.07-.12c-.16-.25-.31-.49-.44-.73a3,3,0,0,1-.18-.36L17,42.18c-.12-.23-.24-.47-.34-.71s-.15-.34-.21-.5-.18-.49-.26-.74-.11-.34-.16-.51-.14-.53-.2-.84c0-.15-.07-.29-.1-.44s-.09-.59-.13-.89l0-.33-.09-.85h8.63l.22,4Zm.24-19.61.65-.54a14.24,14.24,0,0,1,7.61-3.15l.84-.09v8.3H24.58ZM25,31H52.34l-1.5,13.52-.56.1a8.39,8.39,0,0,1-1.65.16,8.9,8.9,0,0,1-6.33-2.62,10.15,10.15,0,0,0-14.33,0l-2.28,2.28ZM56.17,83.82H27.62V79.59H56.17Zm0-5.4H27.59L25.79,46l3-3a9,9,0,0,1,12.68,0,10.15,10.15,0,0,0,14.33,0l2.51-2.5Zm2.21-39.71L55,42.13a8.41,8.41,0,0,1-1.6,1.25l-1.34.82L53.52,31h5.32Z"/><path d="M27,85a.58.58,0,0,1-.58-.58V79L24.4,42l-8.57,8.57a.58.58,0,0,1-.41.17.56.56,0,0,1-.41-.16l-.27-.28a20.84,20.84,0,1,1,29.73-29.2.58.58,0,0,1,0,.82L36.55,29.8H52.48l1-8.94a.58.58,0,0,1,.28-.43l6.1-3.66.6,1L54.6,21.28l-1,8.52h5.8a.61.61,0,0,1,.44.2.57.57,0,0,1,.15.42L57.34,79v5.42a.59.59,0,0,1-.59.58Zm2.7-68.88A19.68,19.68,0,0,0,14.87,48.67l.54.62,3-3-.49-.56-.05-.07-.18-.23-.14-.18c-.2-.25-.39-.51-.57-.77-.07-.11-.15-.22-.22-.34L16.69,44c-.16-.25-.31-.5-.45-.76s-.18-.33-.27-.51-.25-.52-.37-.78-.15-.35-.22-.54-.2-.53-.29-.8l-.18-.55c-.07-.26-.13-.5-.19-.75l-.06-.3c0-.12-.06-.23-.08-.35-.06-.32-.1-.64-.14-1l0-.2c0-.09,0-.18,0-.28,0-.5-.07-1-.07-1.45A15.48,15.48,0,0,1,29.74,20.35c.47,0,1,0,1.46.07l.47.06,1,.14.36.08.19.05c.28.06.57.13.85.21l.43.13.13.05c.27.09.54.18.79.28l.56.23c.26.11.5.23.76.36l.53.28c.25.14.49.28.72.44l.07,0a3.55,3.55,0,0,1,.43.28c.25.16.48.34.71.52l.16.12.29.23.59.44.53-.39,2.52-2.51-.62-.54A19.55,19.55,0,0,0,29.8,16.11ZM27.62,83.82H56.17V79.59H27.62Zm7.52-43.49A8.94,8.94,0,0,0,28.8,43l-3,3,1.8,32.45H56.2l2.12-38L55.81,43a10.15,10.15,0,0,1-14.33,0A8.9,8.9,0,0,0,35.14,40.33ZM15.55,37.22l0,.33c0,.3.08.6.13.89s.06.29.1.44c.06.31.13.57.2.84s.11.34.16.51.17.49.26.74.14.33.21.5.22.48.34.71l.06.12a3,3,0,0,0,.18.36c.13.24.28.48.44.73l.07.12c.06.09.11.18.17.26a12.41,12.41,0,0,0,.75,1l.52.65.64-.53,4.49-4.49-.22-4H15.46Zm19.59,2a10.07,10.07,0,0,1,7.16,3,8.9,8.9,0,0,0,6.33,2.62,8.39,8.39,0,0,0,1.65-.16l.56-.1L52.34,31H25l.73,13.44L28,42.13A10.07,10.07,0,0,1,35.14,39.17Zm16.91,5,1.34-.82A8.41,8.41,0,0,0,55,42.13l3.42-3.42L58.84,31H53.52ZM18.7,26.76a14.11,14.11,0,0,0-3.16,7.6l-.08.85H24l-.26-4.57L19.24,26.1Zm11.62,3H34.9l4.53-4.53-.66-.54q-.5-.4-1.05-.78l-.21-.13-.14-.09c-.26-.16-.51-.32-.78-.46a3.1,3.1,0,0,0-.32-.17L36.15,23l-.73-.35-.49-.2c-.25-.1-.5-.19-.76-.27l-.5-.15c-.26-.08-.52-.14-.78-.2l-.12,0-.38-.09-.88-.13-.33,0-.86-.09Zm-2-8.21a14.24,14.24,0,0,0-7.61,3.15l-.65.54,4.52,4.52h4.58V21.5Z"/><rect class="d" x="8.73" y="14.81" width="52.04" height="70.38"/><rect x="33.21" y="48.71" width="1.16" height="1.17"/><rect x="41.31" y="59.51" width="1.17" height="1.17"/><rect x="49.42" y="70.32" width="1.17" height="1.17"/><rect x="50.77" y="52.76" width="1.17" height="1.17"/><rect x="34.56" y="68.97" width="1.17" height="1.17"/><path class="b" d="M65.85,84.05a.49.49,0,0,1-.41-.23l-1.37-2.34a.46.46,0,0,1-.08-.25V25a3,3,0,0,1,1.08-1.83l.35-.34-1-1a.51.51,0,0,1-.13-.33V19.85a.47.47,0,0,1,.47-.47H71l7.48-3a.57.57,0,0,1,.18,0,.49.49,0,0,1,.44.3.48.48,0,0,1-.27.61l-5.46,2.13H91.86a.47.47,0,0,1,.47.47v1.64a.44.44,0,0,1-.13.33l-1,1,.34.34A2.9,2.9,0,0,1,92.61,25V81.23a.4.4,0,0,1-.07.24l-1.38,2.35a.47.47,0,0,1-.4.23ZM72.23,50.6h5.26a.48.48,0,0,1,.38.2.51.51,0,0,1,.07.42l-5.71,17.3L74.53,65,86.14,46.34H80.2a.48.48,0,0,1-.39-.21.5.5,0,0,1,0-.43l4.51-11.58H76.94ZM66.12,83.11H90.49l.83-1.41h-26ZM65.21,21.3l1.11,1.13h24l1.11-1.13v-1H65.21Z"/><path class="b" d="M70.92,72.13a.43.43,0,0,1-.19,0,.47.47,0,0,1-.25-.57l6.36-20H71.6a.49.49,0,0,1-.37-.18.48.48,0,0,1-.08-.42l5-17.42a.47.47,0,0,1,.45-.34H85a.47.47,0,0,1,.39.21.44.44,0,0,1,0,.43L80.89,45.4H87a.46.46,0,0,1,.41.24.48.48,0,0,1,0,.48L71.32,71.91A.45.45,0,0,1,70.92,72.13ZM72.23,50.6h5.26a.48.48,0,0,1,.38.2.51.51,0,0,1,.07.42l-5.71,17.3L74.53,65,86.14,46.34H80.2a.48.48,0,0,1-.39-.21.5.5,0,0,1,0-.43l4.51-11.58H76.94Z"/><path d="M65.85,84.05a.49.49,0,0,1-.41-.23l-1.37-2.34a.46.46,0,0,1-.08-.25V25a3,3,0,0,1,1.08-1.83l.35-.34-1-1a.51.51,0,0,1-.13-.33V19.85a.47.47,0,0,1,.47-.47H71l7.48-3a.57.57,0,0,1,.18,0,.49.49,0,0,1,.44.3.48.48,0,0,1-.27.61l-5.46,2.13H91.86a.47.47,0,0,1,.47.47v1.64a.44.44,0,0,1-.13.33l-1,1,.34.34A2.9,2.9,0,0,1,92.61,25V81.23a.4.4,0,0,1-.07.24l-1.38,2.35a.47.47,0,0,1-.4.23Zm.27-.94H90.49l.83-1.41h-26Zm0-59.62A4.43,4.43,0,0,0,65,24.92l0,.06V80.76H91.67V25l0-.06a4.43,4.43,0,0,0-1.2-1.43l-.13-.12h-24Zm-.94-2.19,1.11,1.13h24l1.11-1.13v-1H65.21Z"/><path d="M70.92,72.13a.43.43,0,0,1-.19,0,.47.47,0,0,1-.25-.57l6.36-20H71.6a.49.49,0,0,1-.37-.18.48.48,0,0,1-.08-.42l5-17.42a.47.47,0,0,1,.45-.34H85a.47.47,0,0,1,.39.21.44.44,0,0,1,0,.43L80.89,45.4H87a.46.46,0,0,1,.41.24.48.48,0,0,1,0,.48L71.32,71.91A.45.45,0,0,1,70.92,72.13ZM72.23,50.6h5.26a.48.48,0,0,1,.38.2.51.51,0,0,1,.07.42l-5.71,17.3L74.53,65,86.14,46.34H80.2a.48.48,0,0,1-.39-.21.5.5,0,0,1,0-.43l4.51-11.58H76.94Z"/></svg>