<svg xmlns="http://www.w3.org/2000/svg" viewBox="0 0 100 100"><defs><style>.a{fill:#fff;}.b{fill:#e6e7e8;}.c{fill:none;stroke:#000;stroke-miterlimit:10;}</style></defs><title>iShop</title><path class="a" d="M-3-2.44V102.44H103V-2.44ZM37,65.63a.64.64,0,0,1-.64.64H24.9a.64.64,0,0,1-.64-.64V62.2a.64.64,0,0,1,.64-.64H36.32a.64.64,0,0,1,.64.64Zm38.79,0a.65.65,0,0,1-.65.65H63.7a.64.64,0,0,1-.64-.64V62.2a.64.64,0,0,1,.64-.64H75.11a.64.64,0,0,1,.64.64Zm.49-28.57A1.14,1.14,0,0,1,75.1,38.2H24.88a1.13,1.13,0,0,1-1.13-1.12V34.79a1.14,1.14,0,0,1,.75-1.07l25.11-9.09a1.16,1.16,0,0,1,.78,0L75.5,33.72a1.14,1.14,0,0,1,.74,1.11Z"/><rect class="b" x="33.18" y="53.44" width="33.94" height="5.21" rx="0.5"/><path class="c" d="M76.25,62.2a1,1,0,0,0-.08-.39V48.43h0a1.15,1.15,0,0,0-2.29,0V61.06H63.7a1.14,1.14,0,0,0-1.14,1.14v3.43a1.13,1.13,0,0,0,.44.88V76a1.14,1.14,0,0,0,1.18,1.1,1.1,1.1,0,0,0,1.11-1.15V66.77h8.64v9.14a1.12,1.12,0,1,0,2.24,0V66a1.1,1.1,0,0,0,.08-.4Z"/><path class="c" d="M36.31,61.06H26V48.43h.05a1.15,1.15,0,0,0-2.29,0V75.91a1.12,1.12,0,1,0,2.24,0V66.77h8.68v9.14a1.14,1.14,0,0,0,1.14,1.14h0A1.14,1.14,0,0,0,37,75.9V66.54a1.14,1.14,0,0,0,.48-.91V62.2A1.14,1.14,0,0,0,36.31,61.06Z"/><path class="c" d="M75.5,33.72,51.15,24.91V23.35a1.15,1.15,0,0,0-2.29,0V24.9L24.5,33.72a1.14,1.14,0,0,0-.75,1.07v2.29a1.13,1.13,0,0,0,1.13,1.12h24V52.27h0a1,1,0,0,0,.4.8H34a1.14,1.14,0,0,0-1.14,1.1v3.47A1.14,1.14,0,0,0,34,58.79H47.72a1.09,1.09,0,0,0-1.14,1V75.43H43.17a1.15,1.15,0,0,0,0,2.29H56.85a1.15,1.15,0,0,0,0-2.29H53.44V59.81a1.09,1.09,0,0,0-1.14-1H66.08a1.14,1.14,0,0,0,1.1-1.18V54.18h0A1.14,1.14,0,0,0,66,53.08H50.74a1,1,0,0,0,.41-.84v-14H75.1a1.14,1.14,0,0,0,1.14-1.14V34.83A1.14,1.14,0,0,0,75.5,33.72Z"/></svg>