<svg xmlns="http://www.w3.org/2000/svg" viewBox="0 0 100 100"><defs><style>.a{fill:#fff;}.b{fill:#e6e7e8;}</style></defs><title>iShop</title><path class="a" d="M-.5-.5v101h101V-.5ZM36.13,76.59a3.62,3.62,0,0,1-3.61,3.62H26.71V55h5.85a3.57,3.57,0,0,1,3.57,3.58Z"/><path d="M64.17,53.21c-.46,0-.7-.33-.7-.94V46H61.62a1.4,1.4,0,0,1-1.43-.86,1.43,1.43,0,0,1,.32-1.64l5.39-6.16a1.41,1.41,0,0,1,2.33,0c1.81,2,3.61,4.13,5.41,6.2A3.73,3.73,0,0,1,74,44l.13.2V45c-.43.92-1.22,1-2.06,1H70.68v2.41c0,1.31,0,2.62,0,3.93,0,.46-.16.73-.47.79h-.12a1.45,1.45,0,0,1-.71-.23.87.87,0,0,1-.15-.54c0-2.12,0-4.24,0-6.35a1.41,1.41,0,0,1,1.52-1.53h1.81l-5.48-6.29-5.48,6.28h1.76a1.45,1.45,0,0,1,1.58,1.6c0,2.06,0,4.11,0,6.17,0,.35-.09.95-.73.95Z"/><path d="M66,71.15a4,4,0,0,0-1.33-2.94l-.15-.14.15-.14a3.88,3.88,0,0,0,0-5.84L64.58,62l.14-.14a4.13,4.13,0,0,0,1.32-3,3.83,3.83,0,0,0-1.15-2.68,4,4,0,0,0-3-1.09,7,7,0,0,0-.91.05.62.62,0,0,0-.55.7.64.64,0,0,0,.63.71c.23,0,.46,0,.69,0a6.79,6.79,0,0,1,.78,0,2.28,2.28,0,0,1,2,2.23,2.36,2.36,0,0,1-1.77,2.31l-.38.06a1.59,1.59,0,0,0-.39.06.72.72,0,0,0,0,1.38l.36.06.15,0a2.32,2.32,0,0,1,2,2.3,2.34,2.34,0,0,1-2,2.28l-.14,0a2.2,2.2,0,0,0-.37.06c-.28.09-.56.3-.48.62a2,2,0,0,0,.54.79,1.42,1.42,0,0,0,.24,0h.17a2.31,2.31,0,0,1,1.68,1,2.34,2.34,0,0,1-1.83,3.6,1,1,0,0,0-.73.36.63.63,0,0,0-.07.56c.09.37.33.53.89.58a2.33,2.33,0,0,1,1.82,1.14,2.3,2.3,0,0,1,.11,2.09A2.37,2.37,0,0,1,62,79.6H54.14l-5.67,0h-.14a14.84,14.84,0,0,1-8.1-2.18,1.62,1.62,0,0,0-.82-.22l-1,0H36.83V69a.2.2,0,0,0,0-.07c0-2.74,0-5.48,0-8.22V57.85l1.51,0a7.87,7.87,0,0,0,.84,0,1.71,1.71,0,0,0,.93-.32c2.41-2,4.79-4.09,7.17-6.15l.52-.45A7,7,0,0,0,50,47.45l.84-2.93a1.21,1.21,0,0,1,2.35-.15,12.35,12.35,0,0,1,.85,6.8,25.81,25.81,0,0,1-.56,2.53c-.1.39-.19.78-.28,1.17a1.41,1.41,0,0,0,.17,1.22,1.36,1.36,0,0,0,1.1.47H57c.55,0,.87-.27.88-.72s-.34-.74-.92-.75H54.63l.2-.79c.1-.38.19-.75.28-1.11a14.27,14.27,0,0,0-.65-9.48A2.66,2.66,0,0,0,52,42h-.13a2.69,2.69,0,0,0-2.44,2c-.29,1-.56,1.93-.84,2.92a5.9,5.9,0,0,1-1.94,3L45.2,51.17c-1.45,1.22-3,2.48-4.35,3.81a4.49,4.49,0,0,1-3.2,1.45,5.09,5.09,0,0,1-.77-.06,1.66,1.66,0,0,1-.91-.48,3.54,3.54,0,0,0-2.51-1.51c-1.65-.09-3.33-.09-5-.09-.64,0-1.28,0-2,0l-.21.23c-.15.15-.34.33-.34.45a1.35,1.35,0,0,0,.5.75s.15,0,.34,0l1.66,0H30.2c.68,0,1.37,0,2.05,0h.19a2.87,2.87,0,0,1,2.1.83,3.08,3.08,0,0,1,.82,2.27c0,2.49,0,5,0,7.46v2.92a1.31,1.31,0,0,0,0,.28v6.87a2.68,2.68,0,0,1-2.93,2.92H26.86c-.59,0-.94.26-.95.72a.64.64,0,0,0,.17.49,1.08,1.08,0,0,0,.78.27h5.73a3.33,3.33,0,0,0,2.81-1.09,2.5,2.5,0,0,1,2.19-1h.84a.78.78,0,0,1,.22,0l.36.07a3.62,3.62,0,0,1,1.12.33,14.69,14.69,0,0,0,7,2c2.45,0,4.91,0,7.36,0,2.61,0,5.23,0,7.84,0A3.66,3.66,0,0,0,65,79.94,3.87,3.87,0,0,0,66,77.18a4,4,0,0,0-1.33-2.84l-.15-.14.15-.14A4,4,0,0,0,66,71.15Z"/><polygon class="b" points="36.48 49.37 36.48 33.79 28.17 33.3 28.17 32.75 43.06 19.34 57.96 32.73 57.75 33.47 50.87 33.75 49.69 33.67 49.58 39.83 36.48 49.37"/><path d="M36.56,49.93c-.62,0-.72-.54-.73-.86,0-.71,0-1.43,0-2.14v-1.8q0-.83,0-1.65V34.4H29.05a1.47,1.47,0,0,1-1.58-.89A1.41,1.41,0,0,1,28,31.79l2.31-2.09q5.52-5,11.07-10.06a3.55,3.55,0,0,1,.82-.51l.39-.21h1l.57.39a12.92,12.92,0,0,1,1.27.93l8.14,7.39,4.56,4.15a1.56,1.56,0,0,1,.66,1.31,1.43,1.43,0,0,1-1.56,1.31H50.3v2.54c0,.73,0,1.46,0,2.19a.69.69,0,0,1-.71.7h0a.67.67,0,0,1-.72-.66c0-2,0-3.84,0-5.61,0-.41.3-.62.88-.63H57l-.4-.49a2.11,2.11,0,0,0-.22-.26L43.85,20.79a1.17,1.17,0,0,0-.79-.37,1,1,0,0,0-.7.31L29.62,32.32a1,1,0,0,0-.11.15l-.33.46h7.08c.84,0,1.05.22,1.06,1,0,1.43,0,7.23,0,9.42,0,1.89,0,3.77,0,5.66,0,.39-.12.87-.7.89Z"/></svg>