<svg xmlns="http://www.w3.org/2000/svg" viewBox="0 0 100 100"><defs><style>.a{fill:#fff;}.b{fill:#e6e7e8;}</style></defs><title>iShop</title><path class="a" d="M57.88,19.91a.16.16,0,0,0-.21.05.15.15,0,0,0,0,.2,2.52,2.52,0,0,1,.93,1.57.15.15,0,0,0,.15.13h0a.14.14,0,0,0,.12-.17A2.68,2.68,0,0,0,57.88,19.91Z"/><path class="a" d="M47.37,18.94c0-.06-.13-.6-.5-.67a.15.15,0,0,0-.17.12.14.14,0,0,0,.12.17c.13,0,.23.31.25.43a.15.15,0,0,0,.15.12h0A.15.15,0,0,0,47.37,18.94Z"/><path class="a" d="M50.16,28.38a.16.16,0,0,0-.2.08.15.15,0,0,0,.07.2c.43.19.57,1,.59,1.25a.15.15,0,0,0,.15.14h0a.16.16,0,0,0,.14-.16C50.91,29.84,50.83,28.7,50.16,28.38Z"/><path class="a" d="M-.5-.5v101h101V-.5ZM46.06,18.87a.75.75,0,0,1,.75-.75.75.75,0,1,1-.75.75Zm3.09,13.21a2.18,2.18,0,1,1,2.18-2.18A2.19,2.19,0,0,1,49.15,32.08Zm2.71-6.79a1.52,1.52,0,0,1-.53-2.94v.07a4.3,4.3,0,0,0,1,2.79A1.69,1.69,0,0,1,51.86,25.29Zm3.77.83a3.7,3.7,0,1,1,3.7-3.7A3.71,3.71,0,0,1,55.63,26.12Z"/><path d="M61.61,76.56a17.66,17.66,0,0,1-2.14.74c-.29.07-.64-.2-1-.32.16-.28.25-.72.48-.82a31.88,31.88,0,0,1,3.49-1.3,1.07,1.07,0,0,1,1,.37,34,34,0,0,1,1.74,3.4c.12.25-.13.66-.21,1-.32-.16-.75-.23-.93-.49a20.09,20.09,0,0,1-1.07-2c-.24.4-.4.68-.57.95A8.58,8.58,0,0,1,54,82.43c-3.92-.35-6.5-2.59-7.81-6.28-.16-.46-.41-1,.24-1.25s.84.36,1,.84a7.65,7.65,0,0,0,14,1.45c.06-.11.11-.22.16-.33A1.6,1.6,0,0,0,61.61,76.56Z"/><path d="M46.66,69.1a9.16,9.16,0,0,1,5.59-4.63,8.93,8.93,0,0,1,10.88,5.6c.18.5.43,1.06-.27,1.3s-.78-.38-1-.83a7.42,7.42,0,0,0-6.45-5.05,7.32,7.32,0,0,0-7,3.24c-.2.28-.35.59-.64,1.06a22.53,22.53,0,0,1,2.31-.59c.3,0,.64.24,1,.37-.2.29-.34.74-.61.83a27.08,27.08,0,0,1-3.42.95,1.1,1.1,0,0,1-.94-.42,32.43,32.43,0,0,1-1.6-3.37c-.1-.25.16-.65.25-1,.3.14.71.2.86.43A21.33,21.33,0,0,1,46.66,69.1Z"/><rect class="b" x="40.81" y="36.1" width="9.31" height="1.5"/><path class="b" d="M41.6,48.6A2.08,2.08,0,0,0,43.08,48a3.69,3.69,0,0,1,4.76,0,2.12,2.12,0,0,0,1.48.58A2.08,2.08,0,0,0,50.8,48a4.42,4.42,0,0,1,1.25-.7L49.2,41.68a.81.81,0,0,1-.08-.34V39.09H41.8v2.25a.68.68,0,0,1-.08.34l-2.84,5.64a4.35,4.35,0,0,1,1.24.7A2.12,2.12,0,0,0,41.6,48.6Zm2.45-8h2.82a.75.75,0,1,1,0,1.5H44.05a.75.75,0,0,1,0-1.5Z"/><path d="M37.54,80a1.25,1.25,0,0,1-1.25-1.25V54.25a9.32,9.32,0,0,1,.82-3.44l1.08-2.12a2.45,2.45,0,0,1,1,.53,3.68,3.68,0,0,0,4.75,0,2.16,2.16,0,0,1,1.48-.57,2.12,2.12,0,0,1,1.48.57,3.69,3.69,0,0,0,4.76,0,2.4,2.4,0,0,1,1-.53l1.07,2.12a9.13,9.13,0,0,1,.82,3.44v7c.21,0,.41-.06.62-.06s.58.07.88.09v-7a10.64,10.64,0,0,0-1-4.11l-4.53-9V39.09h.25a.75.75,0,0,0,.75-.75v-3a.75.75,0,0,0-.75-.75H40.06a.74.74,0,0,0-.75.75v3a.74.74,0,0,0,.75.75h.25v2.07l-4.53,9a10.64,10.64,0,0,0-1,4.11V78.77a2.75,2.75,0,0,0,2.74,2.75h8.57A11.32,11.32,0,0,1,45,80ZM40.81,36.1h9.31v1.49H40.81Zm.91,5.58a.68.68,0,0,0,.08-.34V39.09h7.32v2.25a.81.81,0,0,0,.08.34l2.85,5.64a4.42,4.42,0,0,0-1.25.7,2.08,2.08,0,0,1-1.48.58A2.12,2.12,0,0,1,47.84,48a3.69,3.69,0,0,0-4.76,0,2.08,2.08,0,0,1-1.48.58A2.12,2.12,0,0,1,40.12,48a4.35,4.35,0,0,0-1.24-.7Z"/><path d="M38.54,74a.76.76,0,0,0-.75.75v3a.75.75,0,0,0,1.5,0v-3A.76.76,0,0,0,38.54,74Z"/><path d="M38.45,51.49a8,8,0,0,0-.66,2.76V71.79a.75.75,0,0,0,1.5,0V54.25a6.59,6.59,0,0,1,.5-2.09.75.75,0,0,0-1.34-.67Z"/><path d="M44.05,42.09h2.82a.75.75,0,1,0,0-1.5H44.05a.75.75,0,0,0,0,1.5Z"/><path d="M51.86,25.89a2.05,2.05,0,0,0,1-.23,4.3,4.3,0,1,0-1.42-3.95,2.12,2.12,0,0,0,.47,4.18Zm3.77-7.17a3.7,3.7,0,1,1-3.71,3.7A3.7,3.7,0,0,1,55.63,18.72Zm-4.3,3.63v.07a4.3,4.3,0,0,0,1,2.79,1.69,1.69,0,0,1-.5.08,1.52,1.52,0,0,1-.53-2.94Z"/><path d="M46.81,20.21a1.35,1.35,0,1,0-1.35-1.34A1.34,1.34,0,0,0,46.81,20.21Zm0-2.09a.75.75,0,1,1-.75.75A.75.75,0,0,1,46.81,18.12Z"/><path d="M46.37,29.9a2.78,2.78,0,1,0,2.78-2.78A2.78,2.78,0,0,0,46.37,29.9Zm2.78-2.18A2.18,2.18,0,1,1,47,29.9,2.19,2.19,0,0,1,49.15,27.72Z"/><path d="M58.65,21.73a.15.15,0,0,0,.15.13h0a.14.14,0,0,0,.12-.17,2.68,2.68,0,0,0-1.06-1.77.16.16,0,0,0-.21.05.15.15,0,0,0,0,.2A2.5,2.5,0,0,1,58.65,21.73Z"/><path d="M50.62,29.91a.15.15,0,0,0,.15.14h0a.16.16,0,0,0,.14-.16c0-.05-.09-1.19-.76-1.51a.16.16,0,0,0-.2.08.15.15,0,0,0,.07.2C50.46,28.85,50.6,29.63,50.62,29.91Z"/><path d="M47.07,19a.15.15,0,0,0,.15.12h0a.15.15,0,0,0,.12-.17c0-.06-.13-.6-.5-.67a.15.15,0,0,0-.17.12.14.14,0,0,0,.12.17C47,18.59,47.05,18.87,47.07,19Z"/></svg>