<svg xmlns="http://www.w3.org/2000/svg" viewBox="0 0 100 100"><defs><style>.a{fill:#e6e7e8;}.b{fill:#fff;}</style></defs><title>iShop</title><rect class="a" x="23.16" y="20.88" width="24.39" height="3.3" rx="1.65"/><path class="a" d="M25.16,24.56H45.58a3.12,3.12,0,0,1,3.12,3.12v2a0,0,0,0,1,0,0H22.41a0,0,0,0,1,0,0V27.3A2.75,2.75,0,0,1,25.16,24.56Z"/><path class="b" d="M-.5-.5v101h101V-.5ZM49.36,62.27H40.45l-5.82-9.74,6-9.74h8.73Z"/><path d="M36.4,79.58c-.25,0-.5-.06-.75-.06l-8.32,0a2.76,2.76,0,0,1-2.8-2.08.74.74,0,0,0-.44-.41,4.56,4.56,0,0,1-3.72-4.74q0-21.11,0-42.19a5.46,5.46,0,0,1,.51-2.13c.54-1.21,1.2-2.37,1.85-3.62l-.09-.1a2.3,2.3,0,0,1-.5-2.67A2.44,2.44,0,0,1,24.56,20q10.9,0,21.82,0a2.56,2.56,0,0,1,2.39,1.58,2.33,2.33,0,0,1-.37,2.56l-.19.24a39.73,39.73,0,0,1,1.85,3.69,6.87,6.87,0,0,1,.43,2.47c0,3.82,0,7.64,0,11.47,0,6.73,0,13.46,0,20.19,0,3.39,0,6.78,0,10.18A4.32,4.32,0,0,1,46.84,77c-.15,0-.4.16-.42.28a2.73,2.73,0,0,1-2.22,2.31ZM22.18,30.82V61.3c0,3.74,0,7.49,0,11.23A2.5,2.5,0,0,0,25,75.27c.18,0,.35,0,.53,0l20.37,0a2.59,2.59,0,0,0,2.79-2.73c0-2.91,0-5.82,0-8.73,0-.52-.17-.66-.67-.65-2.48,0-5,0-7.45,0a1.16,1.16,0,0,1-1.13-.63q-2.66-4.68-5.37-9.32a1.39,1.39,0,0,1,0-1.56c1.79-3.06,3.55-6.14,5.31-9.22a1.21,1.21,0,0,1,1.21-.7c2.46,0,4.93,0,7.39,0,.53,0,.69-.14.69-.68,0-3.22,0-6.44,0-9.66,0-.19,0-.38,0-.6ZM48.69,52.46h0c0-2.77,0-5.55,0-8.32,0-.47-.14-.64-.62-.63q-3.29,0-6.57,0a.89.89,0,0,0-.91.54c-1.51,2.65-3,5.28-4.56,7.9a.87.87,0,0,0,0,1q2.3,3.94,4.55,7.91a1,1,0,0,0,1,.54q3.26,0,6.51,0c.49,0,.63-.15.62-.63C48.68,58,48.69,55.23,48.69,52.46Zm-.18-23.53a9.46,9.46,0,0,0-1.9-3.33,2.14,2.14,0,0,0-1.31-.49q-9.84-.06-19.67,0a2.28,2.28,0,0,0-1.44.6,9.89,9.89,0,0,0-1.78,3.22ZM35.37,23.26H46.25c.61,0,1-.29,1-.76s-.24-.68-.92-.68H24.7c-.63,0-1,.26-1,.72s.24.72.95.72Zm9.21,53.88H26.33c.11.55.49.58.89.58H43.78C44.17,77.73,44.6,77.78,44.58,77.14Z"/><path d="M56,73c.36-.36.71-.74,1.06-1.13l1.15-1.26-1.58-1.46A1.76,1.76,0,0,1,55.94,68a1.22,1.22,0,0,1,.2-.9.65.65,0,0,1,.54-.19,2,2,0,0,1,.45.06,8.68,8.68,0,0,1,3.26,1.54,26.78,26.78,0,0,1,5.29,5,6.3,6.3,0,0,1,.63,1.06.72.72,0,0,1-.07.71,5.52,5.52,0,0,1-3.09,2.54A41.2,41.2,0,0,1,59,79.05l2.94-1.54A5.31,5.31,0,0,0,63.72,76a1.64,1.64,0,0,0-.32-2.31c-.5-.37-1-.71-1.58-1l-.24-.14-.38,0a1.53,1.53,0,0,0-.9.29l-1.15.87c-.66.52-1.33,1-2,1.48-1.68,1.08-3.39,2.1-5.1,3.12L49.1,80Z"/><path d="M63.46,61.21a1.94,1.94,0,0,1-1.34-.45L61.19,60c-.53-.46-1.06-.92-1.61-1.35a4,4,0,0,0-2.48-1,3.69,3.69,0,0,0-3,1.71,10.61,10.61,0,0,0-1,1.67,6.3,6.3,0,0,1,1.59-3.46,3.53,3.53,0,0,1,2.65-1.26,3.63,3.63,0,0,1,.65,0,8.16,8.16,0,0,1,5,2.74,4,4,0,0,1,.65,1.14A.88.88,0,0,1,63.46,61.21Z"/><path d="M74.71,71.29a2.46,2.46,0,0,1-1.49-.52,6.48,6.48,0,0,1-2.75-4.32A1.65,1.65,0,0,1,70.85,65c.11-.13.19-.17.21-.17a.57.57,0,0,1,.26.12,1.91,1.91,0,0,1,.66.94s.62,1.57.76,1.9a4.11,4.11,0,0,0,1.86,2,2.4,2.4,0,0,0,1.1.28h0a2.26,2.26,0,0,0,1.06-.27,14.17,14.17,0,0,0,2.87-1.95,8.6,8.6,0,0,1-1.09,1.35,7.36,7.36,0,0,1-3,1.86A2.81,2.81,0,0,1,74.71,71.29Z"/><path d="M70.52,62.27A2.45,2.45,0,0,1,68,59.88a2.51,2.51,0,0,1,2.49-2.32,2.61,2.61,0,0,1,1.9.81A2.15,2.15,0,0,1,73.05,60a2.42,2.42,0,0,1-2.53,2.31Z"/></svg>