<svg xmlns="http://www.w3.org/2000/svg" viewBox="0 0 100 100"><defs><style>.a{fill:#fff;}.b{fill:#e7e7e7;}.c{fill:#e6e7e8;}</style></defs><title>iShop</title><path class="a" d="M57.88,19.89a.15.15,0,0,0-.2.05.14.14,0,0,0,0,.2,2.52,2.52,0,0,1,.93,1.57.15.15,0,0,0,.14.13h0a.15.15,0,0,0,.13-.17A2.72,2.72,0,0,0,57.88,19.89Z"/><path class="a" d="M-.5-.5v101h101V-.5ZM46.06,18.85a.75.75,0,1,1,.74.74A.74.74,0,0,1,46.06,18.85Zm3.09,13.21a2.18,2.18,0,1,1,2.18-2.18A2.18,2.18,0,0,1,49.15,32.06Zm2.71-6.78a1.53,1.53,0,0,1-1.52-1.52,1.51,1.51,0,0,1,1-1.42v.06a4.28,4.28,0,0,0,1,2.79A1.39,1.39,0,0,1,51.86,25.28Zm3.77.82a3.7,3.7,0,1,1,3.7-3.7A3.7,3.7,0,0,1,55.63,26.1Z"/><path class="a" d="M50.16,28.37a.15.15,0,0,0-.2.07.15.15,0,0,0,.07.2c.43.2.57,1,.59,1.25a.15.15,0,0,0,.15.14h0a.15.15,0,0,0,.14-.16S50.83,28.68,50.16,28.37Z"/><path class="a" d="M47.36,18.92c0-.06-.12-.6-.49-.67a.14.14,0,0,0-.17.12.13.13,0,0,0,.11.17c.14,0,.24.31.26.43a.15.15,0,0,0,.15.12h0A.14.14,0,0,0,47.36,18.92Z"/><path class="b" d="M40.11,35.05v3.09h.69v3.19l-3,6.3s2.33,2.44,4.86,1.34a4.78,4.78,0,0,1,6.06.29,32.63,32.63,0,0,1,4.36-1.43L50,41.33V38.18h1.2V35.05Z"/><path d="M61.62,76.58a17.78,17.78,0,0,1-2.15.74c-.28.07-.63-.2-1-.32.16-.29.25-.72.49-.82a33.28,33.28,0,0,1,3.49-1.31,1.08,1.08,0,0,1,.95.38,32,32,0,0,1,1.74,3.4c.12.25-.13.66-.21,1-.32-.16-.75-.23-.93-.49a19.24,19.24,0,0,1-1.07-2c-.24.4-.4.69-.57,1A8.63,8.63,0,0,1,54,82.46c-3.92-.36-6.5-2.6-7.81-6.3-.16-.45-.41-1,.24-1.24s.84.35,1,.84a7.66,7.66,0,0,0,14,1.44,3.18,3.18,0,0,0,.16-.32A1.76,1.76,0,0,0,61.62,76.58Z"/><path d="M46.65,69.11a9.2,9.2,0,0,1,5.6-4.63,8.94,8.94,0,0,1,10.89,5.6c.18.5.43,1.07-.27,1.3s-.78-.38-1-.83a7.43,7.43,0,0,0-6.45-5,7.33,7.33,0,0,0-7,3.24c-.2.28-.36.59-.64,1.06a22.53,22.53,0,0,1,2.31-.59c.3,0,.64.24,1,.37-.2.29-.34.74-.61.83a27.08,27.08,0,0,1-3.42,1A1.12,1.12,0,0,1,46.1,71a30.51,30.51,0,0,1-1.6-3.37c-.11-.26.16-.66.25-1,.3.14.71.2.86.43A19.37,19.37,0,0,1,46.65,69.11Z"/><rect class="c" x="40.8" y="36.09" width="9.32" height="1.5"/><path class="c" d="M41.6,48.6A2.1,2.1,0,0,0,43.08,48a3.69,3.69,0,0,1,4.76,0,2.18,2.18,0,0,0,3,0,4.19,4.19,0,0,1,1.25-.7L49.2,41.67a.81.81,0,0,1-.08-.34V39.08H41.8v2.25a.81.81,0,0,1-.08.34l-2.85,5.65a4.19,4.19,0,0,1,1.25.7A2.08,2.08,0,0,0,41.6,48.6Zm2.45-8h2.82a.75.75,0,0,1,0,1.5H44.05a.75.75,0,0,1,0-1.5Z"/><path d="M37.53,80a1.25,1.25,0,0,1-1.24-1.25V54.26a9.14,9.14,0,0,1,.82-3.45l1.07-2.12a2.4,2.4,0,0,1,1,.53,3.69,3.69,0,0,0,4.76,0,2.21,2.21,0,0,1,3,0,3.69,3.69,0,0,0,4.76,0,2.4,2.4,0,0,1,1-.53l1.07,2.12a9.14,9.14,0,0,1,.82,3.45v7c.21,0,.41-.06.63-.06s.58.07.87.09v-7a10.68,10.68,0,0,0-1-4.12l-4.53-9V39.08h.25a.75.75,0,0,0,.75-.74v-3a.75.75,0,0,0-.75-.75H40.05a.75.75,0,0,0-.75.75v3a.75.75,0,0,0,.75.74h.25v2.07l-4.53,9a10.68,10.68,0,0,0-1,4.12V78.79a2.75,2.75,0,0,0,2.74,2.75h8.58A11.32,11.32,0,0,1,45,80ZM40.8,36.09h9.32v1.5H40.8Zm.92,5.58a.81.81,0,0,0,.08-.34V39.08h7.32v2.25a.81.81,0,0,0,.08.34l2.85,5.65a4.19,4.19,0,0,0-1.25.7,2.18,2.18,0,0,1-3,0,3.69,3.69,0,0,0-4.76,0,2.18,2.18,0,0,1-3,0,4.19,4.19,0,0,0-1.25-.7Z"/><path d="M38.53,74.05a.75.75,0,0,0-.75.75v3a.75.75,0,0,0,1.5,0v-3A.74.74,0,0,0,38.53,74.05Z"/><path d="M38.44,51.49a8,8,0,0,0-.66,2.77V71.8a.75.75,0,0,0,1.5,0V54.26a6.64,6.64,0,0,1,.5-2.1.74.74,0,0,0-.33-1A.75.75,0,0,0,38.44,51.49Z"/><path d="M44.05,42.08h2.82a.75.75,0,0,0,0-1.5H44.05a.75.75,0,0,0,0,1.5Z"/><path d="M51.86,25.88a2.26,2.26,0,0,0,1-.23,4.3,4.3,0,1,0-1.43-4,2.12,2.12,0,0,0,.47,4.19Zm3.77-7.18a3.7,3.7,0,1,1-3.7,3.7A3.7,3.7,0,0,1,55.63,18.7Zm-4.3,3.64v0a4.29,4.29,0,0,0,1,2.81,1.39,1.39,0,0,1-.5.09,1.53,1.53,0,0,1-1.52-1.52A1.51,1.51,0,0,1,51.33,22.34Z"/><path d="M46.81,20.19a1.35,1.35,0,1,0-1.35-1.34A1.34,1.34,0,0,0,46.81,20.19Zm0-2.09a.75.75,0,1,1-.75.75A.74.74,0,0,1,46.81,18.1Z"/><path d="M46.37,29.88a2.78,2.78,0,1,0,2.78-2.77A2.78,2.78,0,0,0,46.37,29.88Zm2.78-2.17A2.18,2.18,0,1,1,47,29.88,2.18,2.18,0,0,1,49.15,27.71Z"/><path d="M58.66,21.71a.15.15,0,0,0,.14.13h0a.15.15,0,0,0,.13-.17,2.72,2.72,0,0,0-1.07-1.78.15.15,0,0,0-.2.05.14.14,0,0,0,0,.2A2.55,2.55,0,0,1,58.66,21.71Z"/><path d="M50.62,29.89a.15.15,0,0,0,.15.14h0a.15.15,0,0,0,.14-.16s-.09-1.19-.76-1.5a.15.15,0,0,0-.2.07.15.15,0,0,0,.07.2C50.46,28.84,50.6,29.61,50.62,29.89Z"/><path d="M47.07,19a.15.15,0,0,0,.15.12h0a.14.14,0,0,0,.12-.17c0-.06-.12-.6-.49-.67a.14.14,0,0,0-.17.12.13.13,0,0,0,.11.17C47,18.57,47.05,18.85,47.07,19Z"/></svg>