<svg xmlns="http://www.w3.org/2000/svg" viewBox="0 0 100 100"><defs><style>.a{fill:#fff;}.b{fill:#e6e7e8;}</style></defs><title>iShop</title><path class="a" d="M-.5-.5v101h101V-.5Zm35,23.4a1.71,1.71,0,0,1,1.71-1.71h5a1.72,1.72,0,0,1,1.71,1.71v.78a1.72,1.72,0,0,1-1.71,1.71h-5a1.71,1.71,0,0,1-1.71-1.71Zm13,33.57A1.41,1.41,0,0,1,46,57.88H30.79a1.42,1.42,0,0,1-1.42-1.41V47.23a1.43,1.43,0,0,1,1.42-1.42H46a1.42,1.42,0,0,1,1.41,1.42Z"/><circle class="b" cx="60.81" cy="57.61" r="9.53"/><path d="M35.51,20.22h6.34a1.91,1.91,0,0,1,1.35.57,1.86,1.86,0,0,1,.56,1.35v2.31a1.93,1.93,0,0,1-.2.85,1.88,1.88,0,0,1-.36.49l-.09.1,0,9.16a2.35,2.35,0,0,0,.39,1.28l.17.25A25.46,25.46,0,0,1,48,46a15.33,15.33,0,0,1,.23,2.57v2.29a63.38,63.38,0,0,1-.31,9.61,49.51,49.51,0,0,0-.3,12.34l.41,2.7a3.69,3.69,0,0,1-.76,3,3.61,3.61,0,0,1-2.8,1.32l-11.68,0a3.62,3.62,0,0,1-3.54-4.31l.41-2.68a49.58,49.58,0,0,0-.26-12.35C29,59,29,55.36,29.07,50.81l0-2.28a14.18,14.18,0,0,1,.28-2.72,20.71,20.71,0,0,1,1.83-5.12,37.25,37.25,0,0,1,2.63-4.37l.15-.26a2.24,2.24,0,0,0,.24-1V25.89l-.1-.1a1.93,1.93,0,0,1-.55-1.35v-2.3a1.78,1.78,0,0,1,.21-.85A1.9,1.9,0,0,1,35.51,20.22Zm6.92,4.32V22.15a.57.57,0,0,0-.58-.58H35.5a.58.58,0,0,0-.52.32l-.06.18v2.39a.59.59,0,0,0,.59.58h6.34a.59.59,0,0,0,.53-.32Zm-7.55,12.6a36.61,36.61,0,0,0-2.49,4.15A19.88,19.88,0,0,0,31,44.92l-.13.44,15.64,0-.12-.44a26.53,26.53,0,0,0-3.8-7.61l-.17-.25a3.56,3.56,0,0,1-.62-2V26.37H35.56v8.69a3.63,3.63,0,0,1-.38,1.61A3.58,3.58,0,0,1,34.88,37.14Zm9.57,20.17L33.86,46.69h-3l-.49-.16.15.46,0,.17,9.87,10.15Zm-5.94,0L30.42,49l0,1.9c0,1.91,0,4.2,0,6.07v.33Zm8.31,0V57c.06-1.89,0-4.21,0-6.13v-2.3A13.13,13.13,0,0,0,46.76,47l0-.3-11,0L46.33,57.32ZM32.13,74.91H30.64l-.13.8a2.3,2.3,0,0,0,2.24,2.73H44.44a2.28,2.28,0,0,0,1.76-.83,2,2,0,0,0,.28-.43,2.23,2.23,0,0,0,.19-1.49l-.11-.76h-8a.68.68,0,0,1-.67-.67A.82.82,0,0,1,38,74a.7.7,0,0,1,.6-.37l7.35,0,.37-.21-.06-.4a50.67,50.67,0,0,1,.32-12.84A9.24,9.24,0,0,0,46.73,59l-.16-.37-16.09,0,0,.38a9.24,9.24,0,0,0,.15,1.13,50.3,50.3,0,0,1,.24,13.05l-.06.39h1.29a.68.68,0,0,1,.67.67.73.73,0,0,1-.07.3A.67.67,0,0,1,32.13,74.91Z"/><path d="M60.26,67.47V71h-5.9a.51.51,0,1,0,0,1H67.24a.51.51,0,0,0,0-1H61.29V67.47h.15a10.18,10.18,0,1,0-1.33,0Zm.52-1a9.15,9.15,0,1,1,9.14-9.15,9.15,9.15,0,0,1-9.14,9.15Zm0,0"/><path d="M62.65,51.62l-2,4.18h-.09a2,2,0,0,0-.43.12,1.55,1.55,0,1,0,2,.76,1.51,1.51,0,0,0-.29-.42l-.06-.06Zm-.84,4.59"/><path d="M54.36,73.52a.51.51,0,1,0,0,1H67.24a.51.51,0,1,0,0-1Zm0,0"/></svg>