<svg xmlns="http://www.w3.org/2000/svg" xmlns:xlink="http://www.w3.org/1999/xlink" viewBox="0 0 100 100"><defs><style>.a{fill:none;}.b{fill:#fff;}.c{clip-path:url(#a);}.d{fill:#0b050c;}</style><clipPath id="a"><rect class="a" x="17.27" y="17.05" width="65.46" height="65.89"/></clipPath></defs><title>iShop</title><path class="b" d="M-3.36-2.64V102.24h106V-2.64ZM56.35,55.94l-1.89,1.88a7.52,7.52,0,0,0-7.36,1.9h0a7.49,7.49,0,0,0-1.89,7.36L33.29,79A6.57,6.57,0,0,1,24,69.72L35.92,57.8a7.48,7.48,0,0,0,9.26-9.26l1.89-1.89a1.7,1.7,0,0,1,2.4,0l1.71,1.71,3.47,3.47,1.7,1.7A1.7,1.7,0,0,1,56.35,55.94Z"/><g class="c"><path class="d" d="M72.16,73.45a1.39,1.39,0,1,1,1.39,1.38,1.39,1.39,0,0,1-1.39-1.38Zm4.79,0a3.41,3.41,0,1,0-3.4,3.4,3.41,3.41,0,0,0,3.4-3.4Z"/><path class="d" d="M76.4,22.46l4.15,4.14-3.66,1.94-2.42-2.42,1.93-3.66ZM56.35,55.94l-1.89,1.88a7.52,7.52,0,0,0-7.36,1.9h0a7.49,7.49,0,0,0-1.89,7.36L33.29,79A6.57,6.57,0,0,1,24,69.72L35.92,57.8a7.48,7.48,0,0,0,9.26-9.26l1.89-1.89a1.7,1.7,0,0,1,2.4,0l1.71,1.71,3.47,3.47,1.7,1.7a1.7,1.7,0,0,1,0,2.41ZM38.59,45.45a1,1,0,0,0-1.1-.27A13.48,13.48,0,0,1,19.7,29.24L26.45,36a3.28,3.28,0,0,0,2.31,1,3.24,3.24,0,0,0,2.3-1l5.15-5.15a3.25,3.25,0,0,0,1-2.31,3.21,3.21,0,0,0-1-2.3l-6.75-6.76A13.49,13.49,0,0,1,45.29,37.56a1,1,0,0,0,.26,1.12l7.3,6.58-1,1-1-1a3.74,3.74,0,0,0-5.26,0l-2.33,2.34a1,1,0,0,0-.23,1.08,5.41,5.41,0,0,1,.37,2.13l-4.86-5.32ZM82.73,73.27a8.94,8.94,0,0,0-3-6.46L59.43,48.48l18-18a1.7,1.7,0,0,0,.35-.14l3.89-2.05a1.86,1.86,0,0,0,1-1.39,1.9,1.9,0,0,0-.54-1.63l-4.38-4.38a1.89,1.89,0,0,0-3,.46l-2.06,3.89a2.13,2.13,0,0,0-.14.35L64,34.09a1,1,0,1,0,1.43,1.43l7.78-7.78,2,2L55.36,49.69l-2-2L62,39a1,1,0,0,0-1.43-1.43l-6.3,6.3-6.86-6.19A15.51,15.51,0,0,0,27.21,18.08a1,1,0,0,0-.63.74,1,1,0,0,0,.28.92l7.92,7.93a1.22,1.22,0,0,1,0,1.75l-5.14,5.15a1.26,1.26,0,0,1-1.76,0L20,26.64A1,1,0,0,0,18.3,27,15.5,15.5,0,0,0,37.55,47.3l5.3,5.8a5.3,5.3,0,0,1-1,1.38A5.45,5.45,0,0,1,36,55.7a1,1,0,0,0-1.08.23L22.58,68.29A8.58,8.58,0,1,0,34.71,80.43L47.08,68.07A1,1,0,0,0,47.3,67a5.46,5.46,0,0,1,7.07-7.07,1,1,0,0,0,1.08-.23l2.33-2.33a3.71,3.71,0,0,0,0-5.25l-1-1L58,49.91l20.4,18.4a7,7,0,1,1-9.84,9.91L53.39,61.63A1,1,0,0,0,52,61.57,1,1,0,0,0,51.9,63L67.07,79.58a8.87,8.87,0,0,0,6.45,2.93h.2a9,9,0,0,0,9-9.24Z"/></g><path class="d" d="M37.94,61.61a1,1,0,0,0-1.42,0L27,71.18a1,1,0,0,0,0,1.43,1,1,0,0,0,.72.29,1,1,0,0,0,.71-.29L37.94,63a1,1,0,0,0,0-1.43Z"/><path class="d" d="M40.05,65.15l-9.56,9.56a1,1,0,0,0,0,1.43,1,1,0,0,0,1.42,0l9.57-9.56a1,1,0,0,0,0-1.43,1,1,0,0,0-1.43,0Z"/></svg>