<svg xmlns="http://www.w3.org/2000/svg" viewBox="0 0 100 100"><defs><style>.a{fill:#fff;}</style></defs><title>iShop</title><path class="a" d="M-2.34-3V103.27H103.24V-3ZM84.72,42Q71.63,45.6,58.53,49.18s-.05,0-.21,0c0-.42,0-.83,0-1.23a1.74,1.74,0,0,0-1.78-1.77q-6.53,0-13.06,0A1.76,1.76,0,0,0,41.68,48c0,.38,0,.76,0,1.23l-6.54-1.78q-9.78-2.67-19.57-5.33A1,1,0,0,1,14.71,41c0-2.73,0-5.46,0-8.19a2.38,2.38,0,0,1,2.67-2.67H39.5c6.56,0,13.13.06,19.7.06,7.72,0,15.45,0,23.18-.06,2.06,0,2.89.84,2.89,2.91q0,4.09,0,8.19C85.28,41.64,85.23,41.9,84.72,42Z"/><path d="M39.3,28c0-1.21,0-2.31,0-3.41A3.25,3.25,0,0,1,42.85,21c4.76,0,9.53,0,14.29,0a3.27,3.27,0,0,1,3.59,3.61c0,1.08,0,2.15,0,3.36H82.61a4.46,4.46,0,0,1,4.7,3.53,6.28,6.28,0,0,1,.1,1.3q0,20.67,0,41.35A4.44,4.44,0,0,1,82.74,79c-7.81,0-15.61,0-23.42,0-.89,0-1.38-.43-1.35-1.12s.49-1,1.37-1h23c2.17,0,3-.82,3-3V44.1l-6.08,1.66q-10.05,2.75-20.1,5.47c-.61.16-.85.4-.78,1a9.88,9.88,0,0,1,0,1.54,1.77,1.77,0,0,1-1.84,1.88q-6.48,0-13,0a1.76,1.76,0,0,1-1.82-1.89c0-.77,0-1.54,0-2.34L14.73,44.08V74c0,2,.86,2.84,2.82,2.84H29.83c.31,0,.7,0,.89.12a1.47,1.47,0,0,1,.56,1,1.65,1.65,0,0,1-.65.92,1.3,1.3,0,0,1-.75.11c-4.17,0-8.35,0-12.52,0a4.49,4.49,0,0,1-4.68-3.57,6.31,6.31,0,0,1-.09-1.23q0-20.71,0-41.42A4.45,4.45,0,0,1,17.37,28c7,0,13.9,0,20.86,0Zm19,21.18c.16,0,.19,0,.21,0Q71.63,45.61,84.72,42c.51-.14.56-.4.56-.83q0-4.1,0-8.19c0-2.07-.83-2.91-2.89-2.91-7.73,0-15.46.06-23.18.06-6.57,0-13.14-.05-19.7-.06H17.4a2.38,2.38,0,0,0-2.67,2.67c0,2.73,0,5.46,0,8.19a1,1,0,0,0,.86,1.15q9.8,2.64,19.57,5.33l6.54,1.78c0-.47,0-.85,0-1.23a1.76,1.76,0,0,1,1.79-1.84q6.53,0,13.06,0a1.74,1.74,0,0,1,1.78,1.77C58.34,48.33,58.32,48.74,58.32,49.16ZM41.46,27.86H58.61V24.72c0-1.22-.35-1.57-1.56-1.58H42.83c-.68,0-1.31.19-1.35,1C41.41,25.35,41.46,26.61,41.46,27.86ZM56.13,53.51V48.36H43.87v5.15Z"/><rect x="22.87" y="76.86" width="48.18" height="2.14"/></svg>