<svg xmlns="http://www.w3.org/2000/svg" viewBox="0 0 100 100"><defs><style>.a{fill:#fff;}.b,.c,.d,.e{fill:none;stroke:#000;stroke-linecap:round;}.b{stroke-miterlimit:10;}.b,.c{stroke-width:2px;}.c,.d,.e{stroke-linejoin:round;}.e{stroke-width:1.5px;}</style></defs><title>iShop</title><path class="a" d="M-2.34-3V103.27H103.24V-3ZM37.11,67.25H23.47V49.6H37.11ZM62,29.2H19.55V23.85H62ZM65.3,54.81h3.14l2.71,14.92h-3ZM72,75.91a1.78,1.78,0,1,1,1.78-1.78A1.78,1.78,0,0,1,72,75.91Zm8.82,0a1.78,1.78,0,1,1,1.78-1.78A1.78,1.78,0,0,1,80.77,75.91Z"/><path class="b" d="M21.25,23.58H60.86a2,2,0,0,1,2,2v4.27a0,0,0,0,1,0,0H19.25a0,0,0,0,1,0,0V25.58a2,2,0,0,1,2-2Z"/><polyline class="b" points="69.17 73.16 67.45 73.16 12.02 73.16 12.02 67.84 65.37 67.84"/><polyline class="c" points="19.25 29.85 14.18 42.18 68.17 42.18 62.86 29.85"/><path class="c" d="M30.79,29.85,28.13,42.18s-4.43,7.17-6.81,0"/><path class="c" d="M35.94,29.85,34.61,42.18s-3.5,7.35-6.48,0"/><path class="c" d="M41.06,29.85V42.18s-3.49,7-6.45,0"/><path class="c" d="M14.17,42.18s2.49,6.89,7.15,0l3.82-12.33"/><path class="c" d="M51.56,29.85l2.65,12.33s4.43,7.17,6.82,0"/><path class="c" d="M46.41,29.85l1.32,12.33s3.51,7.35,6.48,0"/><path class="c" d="M68.17,42.18s-2.48,6.89-7.14,0L57.2,29.85"/><path class="c" d="M40.92,42.18s3.55,7.35,6.81,0"/><rect class="c" x="23.47" y="49.17" width="13.64" height="18.67"/><rect class="c" x="45.17" y="50.29" width="12.41" height="12.41"/><line class="c" x1="18.56" y1="44.94" x2="18.56" y2="67.84"/><line class="c" x1="63.78" y1="56.89" x2="63.78" y2="67.84"/><line class="c" x1="63.78" y1="44.94" x2="63.78" y2="49.11"/><line class="c" x1="57.44" y1="58.51" x2="63.78" y2="58.51"/><line class="c" x1="37.3" y1="58.51" x2="44.99" y2="58.51"/><line class="c" x1="18.56" y1="58.51" x2="23.28" y2="58.51"/><line class="d" x1="34.61" y1="56.06" x2="34.61" y2="61.1"/><polyline class="c" points="60.61 49.6 64.78 52.1 68.17 69.73 85.56 69.73"/><line class="c" x1="70.56" y1="58.51" x2="82.27" y2="58.51"/><line class="c" x1="70.56" y1="61.51" x2="82.27" y2="61.51"/><polyline class="c" points="67.4 65.72 85.56 65.72 87.98 54.31 65.21 54.31"/><rect class="e" x="70.59" y="48.78" width="5.68" height="5.53"/><polyline class="e" points="74.57 48.78 74.57 44.31 84.62 44.31 84.62 54.31 74.57 54.31"/><path class="e" d="M78,46.87V42.52s.07-2,1.93-2,2,2,2,2v4.38"/><circle class="c" cx="71.95" cy="74.13" r="2.29"/><circle class="c" cx="80.77" cy="74.13" r="2.29"/></svg>