<svg xmlns="http://www.w3.org/2000/svg" viewBox="0 0 100 100"><defs><style>.a{fill:#fff;}.b{fill:none;stroke:#000;stroke-linecap:round;stroke-linejoin:round;stroke-width:2px;}</style></defs><title>iShop</title><path class="a" d="M-2.34-3V103.27H103.24V-3ZM47,70.07V52.69h8.89V70.07M67.08,39.78H35.81V35.93a6,6,0,0,1,6-6H61.08a6,6,0,0,1,6,6Z"/><line class="b" x1="19.94" y1="70.07" x2="80.06" y2="70.07"/><polyline class="b" points="35.45 36.56 22.83 36.56 22.83 70.07"/><line class="b" x1="80.06" y1="36.56" x2="67.53" y2="36.56"/><line class="b" x1="80.06" y1="42.84" x2="22.83" y2="42.84"/><line class="b" x1="62.86" y1="62.54" x2="80.06" y2="62.54"/><line class="b" x1="22.83" y1="62.54" x2="42.41" y2="62.54"/><line class="b" x1="31.22" y1="42.84" x2="31.22" y2="62.54"/><line class="b" x1="42.79" y1="42.84" x2="42.79" y2="70.07"/><line class="b" x1="62.59" y1="42.84" x2="62.59" y2="70.07"/><line class="b" x1="74.07" y1="42.84" x2="74.07" y2="62.54"/><polyline class="b" points="47 70.07 47 52.69 55.89 52.69 55.89 70.07"/><path class="b" d="M41.81,29.93H61.08a6,6,0,0,1,6,6v3.85a0,0,0,0,1,0,0H35.81a0,0,0,0,1,0,0V35.93a6,6,0,0,1,6-6Z"/></svg>