<svg xmlns="http://www.w3.org/2000/svg" viewBox="0 0 100 100"><defs><style>.a{fill:#fff;}.b{fill:#e2e2e2;}</style></defs><title>iShop</title><path class="a" d="M-.5-.5v101h101V-.5ZM65.43,72.06a1.61,1.61,0,0,1-1.61,1.6H58.19a2.74,2.74,0,0,1-2.74-2.74V59.19a2.65,2.65,0,0,1,2.65-2.65h6.62a.7.7,0,0,1,.71.7Z"/><path d="M54.43,58.6l.15-.57a3.74,3.74,0,0,1,3.48-2.66c2.52,0,5,0,7.56,0a.75.75,0,0,1,.82.74c0,.07,0,.15,0,.33a3.06,3.06,0,0,0,.24-.37q2.06-4.45,4.1-8.9a1.25,1.25,0,0,0,.12-.54c0-1.52,0-3.05,0-4.57a.91.91,0,0,1,.55-1,11.57,11.57,0,0,1,1.86-.69,2.77,2.77,0,0,1,2.42.7,6.78,6.78,0,0,1,2.62,6.29,24,24,0,0,1-1,4.52l-.13.44h9.08a4.14,4.14,0,0,1,3,1.11,3.65,3.65,0,0,1,.41,4.89l-.21.28A3.41,3.41,0,0,1,88.64,64a3.44,3.44,0,0,1-1.47,4.47,8.75,8.75,0,0,1,.25,1.3,3.33,3.33,0,0,1-3.33,3.59q-7.07,0-14.14,0a8.57,8.57,0,0,1-3.36-.79l-.29-.12h0a10.08,10.08,0,0,1-.84,1.22,3.52,3.52,0,0,1-2.68,1.21c-1.52,0-3,0-4.57,0a3.71,3.71,0,0,1-3.7-3.13s0-.08,0-.12ZM77,71.88h2.75c1.39,0,2.79,0,4.18,0a1.91,1.91,0,0,0,1.88-1.12,1.79,1.79,0,0,0-.41-2.11.71.71,0,0,1-.2-.8.79.79,0,0,1,.69-.52,1.86,1.86,0,0,0,1.08-3.1.83.83,0,0,1-.27-.88c.11-.36.41-.47.76-.53a1.83,1.83,0,0,0,1.49-1.54,1.67,1.67,0,0,0-.84-1.83A.85.85,0,0,1,88,57.9a2.15,2.15,0,0,0-.08-3.62,2.79,2.79,0,0,0-1.57-.42H76.44c-.87,0-1.16-.42-.87-1.25a29.9,29.9,0,0,0,1.28-4.92,5.59,5.59,0,0,0-1.76-5.23,2,2,0,0,0-2.39-.35.4.4,0,0,0-.27.42c0,1.43,0,2.87,0,4.3a2.06,2.06,0,0,1-.19.84c-1.32,2.89-2.68,5.77-4,8.68a2.5,2.5,0,0,1-1.52,1.57.41.41,0,0,0-.31.46q0,6,0,12.07a.51.51,0,0,0,.31.52,8,8,0,0,0,3.62.9C72.56,71.89,74.77,71.88,77,71.88Zm-12-15H58.42a2.29,2.29,0,0,0-2.5,2.52v7.07c0,1.52,0,3,0,4.57a2.26,2.26,0,0,0,2.38,2.36c1.46,0,2.93,0,4.39,0a2.21,2.21,0,0,0,2.18-1.75,4.57,4.57,0,0,0,0-1q0-6.27,0-12.56Z"/><circle class="b" cx="38.23" cy="37.17" r="2.94"/><circle class="b" cx="51.11" cy="49.93" r="2.94"/><path d="M52.55,34.23,54,35.57,36.66,52.84l-1.37-1.37Z"/><path d="M33.77,37a4.33,4.33,0,1,1,4.28,4.36A4.29,4.29,0,0,1,33.77,37Zm2.16,0a2.17,2.17,0,0,0,4.33.08A2.17,2.17,0,1,0,35.93,37Z"/><path d="M51.1,54.37a4.33,4.33,0,1,1,4.35-4.29A4.34,4.34,0,0,1,51.1,54.37Zm0-2.17A2.12,2.12,0,0,0,53.27,50a2.15,2.15,0,0,0-2.14-2.13,2.2,2.2,0,0,0-2.19,2.17A2.16,2.16,0,0,0,51.13,52.2Z"/><path d="M29.22,44.6H27.13V42.52h2.09Z"/><path d="M16,31.59H13.93V29.5H16Z"/><path d="M27.14,29.49h2.08v2.1H27.14Z"/><path d="M70.28,29.49v2.08H68.19V29.49Z"/><path d="M29.22,35.92H27.13V33.83h2.09Z"/><path d="M27.13,51.18h2.09v2.1H27.13Z"/><path d="M16,57.61H13.93V55.52H16Z"/><path d="M27.12,55.5h2.1v2.1h-2.1Z"/><path d="M29.22,40.26H27.13V38.18h2.09Z"/><path d="M29.22,46.85v2.09H27.14V46.85Z"/><path d="M52.54,59.77H11.75V51.08A7.73,7.73,0,0,0,17,47.73a7.58,7.58,0,0,0,1.25-4.63c-.17-3.48-2.46-6-6.48-7.09V27.34H72.43V36c-3.24,1-5.26,2.69-6.07,5.07h2.4a5.34,5.34,0,0,1,3.55-2.78,3.8,3.8,0,0,1,.94-.13,1.56,1.56,0,0,0,1.39-.7V25.9a1.45,1.45,0,0,0-1.46-.78H11c-1.13,0-1.47.34-1.47,1.48v9.91c0,1.27.2,1.49,1.47,1.63a5.4,5.4,0,0,1,1.3,10.53,9.52,9.52,0,0,1-1.68.29,1.07,1.07,0,0,0-1.08,1.16c0,3.56,0,7.11,0,10.67A1.07,1.07,0,0,0,10.7,62H52.54Z"/></svg>