<svg xmlns="http://www.w3.org/2000/svg" viewBox="0 0 100 100"><defs><style>.a{fill:#fff;}.b{fill:#e6e7e8;}</style></defs><title>iShop</title><path class="a" d="M-3-2.44V102.44H103V-2.44ZM53.18,49c0-1,0-1.86,0-2.75A5,5,0,0,0,53,44.77a1,1,0,0,1,.2-1,5.35,5.35,0,1,0-8.59-6.36,5.27,5.27,0,0,0,.26,6.23A1.15,1.15,0,0,1,45,44.74a15.16,15.16,0,0,0-.24,2.43c0,.56,0,1.12,0,1.7-3.27-1-5.85-5.78-5.31-9.74a9.63,9.63,0,0,1,19-.48A9.53,9.53,0,0,1,53.18,49ZM64,26a2.06,2.06,0,0,1-2.1,2.11,2.1,2.1,0,1,1,0-4.2A2.08,2.08,0,0,1,64,26ZM38.31,54.67a2.09,2.09,0,0,1-2.15,2.07,2.1,2.1,0,1,1,.07-4.2A2.08,2.08,0,0,1,38.31,54.67Z"/><ellipse class="b" cx="49.11" cy="39.89" rx="4.2" ry="3.68"/><path d="M70.88,78.69v-5q0-4.48,0-9a3.69,3.69,0,0,0-3-3.6,3.87,3.87,0,0,0-2.54.38l-.44.22-.18-.46a3.85,3.85,0,0,0-6.36-1.49l-.29.27L56.6,58.83l.78-.4a4.51,4.51,0,0,1,.44-.22,19.93,19.93,0,0,0,7.77-28.95,1.36,1.36,0,0,1-.1-1.53,4,4,0,0,0-1.19-4.9,4,4,0,0,0-5.06.19,4,4,0,0,0,3.92,6.77,1.06,1.06,0,0,1,1.41.51,18.64,18.64,0,0,1,2.92,9.2A18.24,18.24,0,0,1,57.2,56.91c-.84.4-1.69.71-2.6,1l-1.26.46-.61.23V56.33c0-1.43,0-2.79,0-4.15a1.22,1.22,0,0,1,.83-1.27,11.5,11.5,0,0,0,6.94-11.84,11.54,11.54,0,0,0-13-10.16,11.51,11.51,0,0,0-3,22,1.19,1.19,0,0,1,.8,1.24q0,6.32,0,12.65v5l-.8-1A18.76,18.76,0,0,1,43.22,67l-.37-.57a3.8,3.8,0,0,0-4.06-1.65,3.9,3.9,0,0,0-2.68,2.11,4,4,0,0,0,0,3.49c1.26,2.59,2.6,5.3,4.11,8.28a3.29,3.29,0,0,0,.52.67l.17.19h.36c.62-.4.66-.65.29-1.39L40.5,75.92c-1-2-2-4-3-6a3.47,3.47,0,0,1-.34-1.56,2.37,2.37,0,0,1,1.88-2.14,2.44,2.44,0,0,1,2.64,1.15L44,71.05,45.14,73l.1.19a1.3,1.3,0,0,0,.1.18,2.33,2.33,0,0,0,.92.26c.3,0,.38-.38.4-.49a4.71,4.71,0,0,0,0-.75V66.13q0-9.81,0-19.61a3.83,3.83,0,0,1,.31-1.6,2.18,2.18,0,0,1,2.5-1.11,2.28,2.28,0,0,1,1.76,2.08c0,.17,0,.34,0,.51V68.16c0,.32.11.86.72.86h0c.61,0,.7-.53.7-.84V65.71c0-1.09,0-2.18,0-3.27a2.29,2.29,0,0,1,1.93-2.29,2.25,2.25,0,0,1,2.48,1.4,3.49,3.49,0,0,1,.19,1.19c0,1,0,2,0,3s0,2,0,3a.69.69,0,0,0,.68.75.75.75,0,0,0,.74-.72,1.7,1.7,0,0,0,0-.39V66.43c0-1.34,0-2.68,0-4a2.3,2.3,0,0,1,1-1.9,2.25,2.25,0,0,1,2.09-.23,2.29,2.29,0,0,1,1.46,2.21c0,1.34,0,2.67,0,4v2c0,.12,0,.24,0,.35a.72.72,0,0,0,.75.71.68.68,0,0,0,.68-.74c0-.63,0-1.25,0-1.87s0-1.37,0-2.06a2.31,2.31,0,0,1,1.85-2.29,2.27,2.27,0,0,1,2.55,1.37,3.46,3.46,0,0,1,.2,1.24c0,4.42,0,8.83,0,13.24,0,.6.14.91.51,1.13h.46A1,1,0,0,0,70.88,78.69ZM63.7,27.83a2.54,2.54,0,0,1-1.82.74,2.57,2.57,0,0,1-1.83-.76,2.49,2.49,0,0,1-.73-1.8,2.56,2.56,0,0,1,4.34-1.82A2.52,2.52,0,0,1,64.43,26,2.57,2.57,0,0,1,63.7,27.83ZM51.86,42.36a.85.85,0,0,1-1.15.37,3.79,3.79,0,0,0-3.66.07l-.29.12-.21-.22a3.41,3.41,0,0,1,0-4.77,3.47,3.47,0,0,1,5.32,4.43Zm1,1.09a4.9,4.9,0,0,0-2.58-7.89,5,5,0,0,0-5.3,2.07,4.81,4.81,0,0,0,.24,5.7,1.58,1.58,0,0,1,.3,1.51,10.42,10.42,0,0,0-.2,1.89l0,.47c0,.37,0,.75,0,1.13v1.15l-.58-.18c-3.47-1-6.2-6-5.62-10.23A10.07,10.07,0,0,1,59,38.57a10,10,0,0,1-5.6,10.8l-.63.27V48.12c0-.65,0-1.27,0-1.89a4.63,4.63,0,0,0-.19-1.32A1.38,1.38,0,0,1,52.82,43.45Z"/><path d="M48.63,21.17c0-.29-.12-.48-.5-.72H47.2c-.21.05-.51.09-.8.14-.6.1-1.21.2-1.8.34a19.89,19.89,0,0,0-12.14,30.4A1.48,1.48,0,0,1,32.6,53a3.85,3.85,0,0,0-.12,3.12,4,4,0,0,0,2.26,2.27,3.93,3.93,0,0,0,3.17-.1,4,4,0,0,0-.69-7.49,4.38,4.38,0,0,0-2.8.25l-.34.14-.52-.77A18.48,18.48,0,0,1,47.79,21.9C48.63,21.84,48.63,21.33,48.63,21.17ZM34.4,52.83a2.57,2.57,0,0,1,1.81-.74h0a2.49,2.49,0,0,1,1.79.75,2.55,2.55,0,0,1-1.81,4.35h-.07a2.55,2.55,0,0,1-1.75-4.36Z"/><path d="M53.2,22.31a.71.71,0,0,0,.71-.71.69.69,0,0,0-.69-.71h0a.71.71,0,0,0-.72.69.66.66,0,0,0,.2.5A.83.83,0,0,0,53.2,22.31Z"/></svg>