<svg xmlns="http://www.w3.org/2000/svg" viewBox="0 0 100 100"><defs><style>.a{fill:#fff;}.b{fill:#e6e7e8;}</style></defs><title>iShop</title><path class="a" d="M-.5-.5v101h101V-.5ZM49.85,62.2c-6.12-1.45,0-7.54,0-7.54C56.61,60.9,49.85,62.2,49.85,62.2Zm3.61-35.53h-7V22.52h7Z"/><path class="b" d="M40.22,66H59.73a0,0,0,0,1,0,0v8.11a3,3,0,0,1-3,3h-13a3.54,3.54,0,0,1-3.54-3.54V66A0,0,0,0,1,40.22,66Z"/><rect x="42.84" y="43.77" width="1.3" height="2.23"/><path d="M49.87,62.76a3.23,3.23,0,0,1-2.41-1,3.19,3.19,0,0,1-.67-3.62,7.93,7.93,0,0,1,1-1.81c.51-.7,1.06-1.37,1.6-2l.64-.77h0l.8,1.13c.71,1,1.42,2,2.1,3a3.16,3.16,0,0,1,.47,2.12,2.94,2.94,0,0,1-2.08,2.75A4.89,4.89,0,0,1,49.87,62.76Zm-.22-6.85-.48.77c-.38.59-.76,1.21-1.09,1.84A2,2,0,0,0,48.6,61a2.56,2.56,0,0,0,2.78,0,2,2,0,0,0,.52-2.44c-.33-.63-.71-1.25-1.09-1.84-.16-.25-.33-.51-.48-.77l-.07-.11h-.54Z"/><path d="M44.48,78.5a5.12,5.12,0,0,1-5.37-5.4V45.29a14.55,14.55,0,0,1,2.64-8.24l1.16-1.74q1.2-1.8,2.39-3.61a1.87,1.87,0,0,0,.29-1c0-1.74,0-3.48,0-5.23V23.36a1.65,1.65,0,0,1,1.84-1.86h5.15a1.64,1.64,0,0,1,1.79,1.8v2.53c0,1.63,0,3.26,0,4.89a1.94,1.94,0,0,0,.3,1c1.1,1.7,2.23,3.39,3.36,5.07a16.26,16.26,0,0,1,2.85,9.46c0,6.17,0,12.44,0,18.51v8.38a5.08,5.08,0,0,1-3.94,5.22,7,7,0,0,1-1.44.16h-11Zm-4-11.81c0,.72,0,1.43,0,2.14,0,1.6,0,3.26,0,4.88a3.54,3.54,0,0,0,3.59,3.4c2,0,4,0,5.92,0h0c1.95,0,3.9,0,5.84,0a3.59,3.59,0,0,0,3.61-3.53c0-1.61,0-3.24,0-4.83,0-.65,0-2,0-2l-.16-.23-.14,0H40.49Zm0-1.65H59.47V51.66H44.16v4.55H42.8V51.63H40.52ZM44.2,50.2H59.5V48.68c0-.93,0-1.85,0-2.77A13.49,13.49,0,0,0,57,37.62c-1.27-1.87-2.51-3.75-3.75-5.64a1.46,1.46,0,0,1-.22-.73c0-.83,0-1.67,0-2.52V27.54H47v1.21c0,.83,0,1.63,0,2.44a1.75,1.75,0,0,1-.24.83c-.71,1.1-1.44,2.18-2.16,3.26L42.9,37.76a12.4,12.4,0,0,0-2.26,5.7c-.13,1.5-.13,3-.13,4.53,0,.63,0,1.27,0,1.9V50l.18.21h2.15V48.42H44.2ZM47,26.1H53V22.9H47Z"/></svg>