<svg xmlns="http://www.w3.org/2000/svg" viewBox="0 0 100 100"><defs><style>.a{fill:#fff;}.b{fill:#e6e7e8;}</style></defs><title>iShop</title><path class="a" d="M-.5-.5v101h101V-.5ZM53.92,28H46.1V22.12h7.82Z"/><rect class="b" x="41.66" y="56.84" width="16.74" height="20.74" rx="1.3"/><path d="M59.38,43.23V41.69c0-.37.93-8.86-5.05-13.38a1,1,0,0,0,.7-.94v-.14a1,1,0,0,0-.32-.72V22.9a1.4,1.4,0,0,0-1.4-1.4H46.69a1.4,1.4,0,0,0-1.39,1.4v3.61a1,1,0,0,0-.33.72v.14a1,1,0,0,0,.65.92c-5.93,4-5,13-5,13.33v1.57a1.11,1.11,0,0,0,.48.92.79.79,0,0,1,0,1.28,1.11,1.11,0,0,0-.48.92V57.85a1.11,1.11,0,0,0,.48.92.77.77,0,0,1,.33.64.79.79,0,0,1-.32.64,1.09,1.09,0,0,0-.49.92V75.89a2.62,2.62,0,0,0,2.61,2.61H56.77a2.61,2.61,0,0,0,2.61-2.61V61.12a1.08,1.08,0,0,0-.55-.94.78.78,0,0,1-.36-.67.77.77,0,0,1,.36-.67,1.08,1.08,0,0,0,.55-1V46.46a1.08,1.08,0,0,0-.55-.94.78.78,0,0,1-.36-.67.77.77,0,0,1,.36-.67A1.08,1.08,0,0,0,59.38,43.23Zm-1.29,13H41.92V48H58.09ZM52.75,27.73h-5.5v-.17h5.5Zm-6.06-4.94h6.62a.1.1,0,0,1,.1.11v3.36H46.6V22.9A.11.11,0,0,1,46.69,22.79Zm.2,6.24H53.1c5.87,4,5,12.43,5,12.59v1.5a2.09,2.09,0,0,0,0,3.46v.1H41.92V46.4a2.1,2.1,0,0,0,0-3.3V41.55C41.91,41.46,41,32.39,46.89,29Zm11.2,32.21V75.89a1.32,1.32,0,0,1-1.32,1.32H43.23a1.32,1.32,0,0,1-1.31-1.32V61.06a2.1,2.1,0,0,0,0-3.3V57.5H58.09v.28a2.09,2.09,0,0,0,0,3.46Z"/><circle cx="51.34" cy="31.52" r="0.29"/><circle cx="49.88" cy="32.78" r="0.29"/><circle cx="52.79" cy="36.9" r="0.29"/><circle cx="50.78" cy="37.25" r="0.18"/><path d="M50.8,42.57a.19.19,0,0,0-.18.19.18.18,0,0,0,.36,0A.19.19,0,0,0,50.8,42.57Z"/><circle cx="53.31" cy="40.23" r="0.18"/><path d="M48.32,41.06a.18.18,0,1,0,.18-.18A.18.18,0,0,0,48.32,41.06Z"/><circle cx="47.94" cy="33.32" r="0.29"/><path d="M50.41,34.64a.29.29,0,0,0,0-.57.29.29,0,1,0,0,.57Z"/><path d="M49,36.74a.29.29,0,0,0,.29-.29.29.29,0,0,0-.58,0A.29.29,0,0,0,49,36.74Z"/><path d="M49.8,38.39a.32.32,0,1,0,0-.64.32.32,0,0,0,0,.64Z"/><circle cx="47.01" cy="36.06" r="0.29"/><path d="M53.14,35.32a.56.56,0,1,0-.72-.33A.56.56,0,0,0,53.14,35.32Z"/><path d="M47.15,39.71a.66.66,0,1,0,.38-.84A.64.64,0,0,0,47.15,39.71Z"/><path d="M48.2,42.32a.67.67,0,0,0-.39.85A.66.66,0,0,0,49,42.7.64.64,0,0,0,48.2,42.32Z"/><path d="M54.81,42.73a.64.64,0,0,0,.38-.84.66.66,0,0,0-.85-.38.64.64,0,0,0-.38.84A.66.66,0,0,0,54.81,42.73Z"/><path d="M51.37,41.32a.66.66,0,0,0,.85.38.67.67,0,0,0,.38-.85.66.66,0,1,0-1.23.47Z"/><circle cx="50.6" cy="61.12" r="0.29"/><circle cx="49.13" cy="62.38" r="0.29"/><circle cx="52.05" cy="66.5" r="0.29"/><circle cx="50.03" cy="66.85" r="0.18"/><path d="M50.06,72.18a.18.18,0,1,0,.18.18A.18.18,0,0,0,50.06,72.18Z"/><path d="M52.57,69.65a.18.18,0,1,0,.18.18A.18.18,0,0,0,52.57,69.65Z"/><circle cx="47.75" cy="70.66" r="0.18"/><circle cx="47.2" cy="62.92" r="0.29"/><circle cx="49.66" cy="63.96" r="0.29"/><path d="M48.21,65.77a.29.29,0,1,0,0,.57.29.29,0,0,0,0-.57Z"/><path d="M49.06,67.35a.32.32,0,1,0,.32.32A.32.32,0,0,0,49.06,67.35Z"/><circle cx="46.27" cy="65.66" r="0.29"/><path d="M52,63.87a.56.56,0,0,0,.4,1.05.56.56,0,1,0-.4-1.05Z"/><path d="M47.63,68.85a.65.65,0,0,0-1.22.46.65.65,0,1,0,1.22-.46Z"/><path d="M47.45,71.92a.66.66,0,1,0,.85.38A.66.66,0,0,0,47.45,71.92Z"/><path d="M53.6,71.11a.65.65,0,0,0-.38.84.66.66,0,0,0,.84.39.67.67,0,0,0,.39-.85A.66.66,0,0,0,53.6,71.11Z"/><path d="M51,70.07a.66.66,0,0,0-.38.85.64.64,0,0,0,.84.38.66.66,0,0,0,.38-.85A.64.64,0,0,0,51,70.07Z"/><path d="M45.18,45.07c0-2.5,0-4.42,0-5.28a14.13,14.13,0,0,1,1.45-6.39l-1.13-.64a15.4,15.4,0,0,0-1.61,7v5.28Z"/><path d="M43.89,59.23c0,6.68,0,12.48,0,12.48h1.3s0-5.8,0-12.48Z"/><path d="M43.89,55.35h1.3c0-2.23,0-4.68,0-6.47h-1.3C43.88,50.67,43.89,53.12,43.89,55.35Z"/></svg>