<svg xmlns="http://www.w3.org/2000/svg" viewBox="0 0 100 100"><defs><style>.a{fill:#fff;}.b{fill:#e6e7e8;}</style></defs><title>iShop</title><path class="a" d="M-.5-.5v101h101V-.5Zm58,83.66a3.95,3.95,0,1,1,4-4A3.94,3.94,0,0,1,57.5,83.16Zm9.4-1.68a3.95,3.95,0,1,1,3.95-3.94A3.93,3.93,0,0,1,66.9,81.48Zm4.9-30.1H70c-2.5-4.89-9-6.05-9-6.05L59.7,42c1.76-.12,4.52,2.22,4.52,2.22a4.94,4.94,0,0,1,3.54-.6,1.9,1.9,0,0,0,0,2.38,11.29,11.29,0,0,1,5,2.54l-2.47.58Z"/><path class="b" d="M27.34,34.48l.78,7a6.76,6.76,0,0,1,7.94,0,9.38,9.38,0,0,0,8.59,0s5-2.42,8.56,1.33l.92-8.35Z"/><path d="M41,43.31a16.37,16.37,0,0,1-6.62-1.87c-2.47-1.12-5.89.39-5.93.41l-.54-1.21c.16-.07,4-1.76,6.93-.44,2.7,1.22,5.94,2.69,9.2,1.09,3.83-1.88,6.75-1.56,9.45,1l-.91,1c-2.28-2.19-4.66-2.44-8-.81a8.14,8.14,0,0,1-3.62.83"/><path d="M73,52h-.87a10.88,10.88,0,0,1-2.5-.36l.36-1.27s.38.1.9.19a11.45,11.45,0,0,0-1.14-.94L69,49.12l.72-1.1a2.9,2.9,0,0,0,1.89.25A6.54,6.54,0,0,0,68.23,47a1.67,1.67,0,0,1-1.36-.82,2.83,2.83,0,0,1-.1-2,4,4,0,0,0-2.54,1.35l-.87.87-.25-1.2c-.17-.85-1-1.47-2-2a10.42,10.42,0,0,1,.43,1.67L60.2,45a7.35,7.35,0,0,0-1.13-2.9L57.47,40l2.39,1.07c1.69.76,3.38,1.52,4.16,2.82a4.15,4.15,0,0,1,3.88-1l.66.25-.29.64A2.61,2.61,0,0,0,68,45.53s.08.14.35.16a7.92,7.92,0,0,1,5.1,2.45l.75.78-1,.32a10.14,10.14,0,0,1-1.48.35,3.49,3.49,0,0,1,1,1.6Z"/><path d="M55,52.28a6.49,6.49,0,0,1,2,0,10,10,0,0,1,2,.51c.34.15.71.27,1.06.46s.7.37,1,.59a8.58,8.58,0,0,1,1,.72,8,8,0,0,1,.85.79,6.6,6.6,0,0,1,.69.83A4.61,4.61,0,0,1,64,57a6.39,6.39,0,0,1,.6,1.31c.11.32.16.51.16.51s-.15-.13-.39-.38-.56-.59-1-1A17,17,0,0,0,62,56.25,16.7,16.7,0,0,0,60.26,55c-.59-.42-1.24-.75-1.84-1.1s-1.19-.61-1.71-.84c-1-.48-1.75-.78-1.75-.78"/><path d="M47.19,68.32a2.59,2.59,0,0,1,1.14-.08,4.38,4.38,0,0,1,2.28,1,4.69,4.69,0,0,1,.9,1,4,4,0,0,1,.5,1,3,3,0,0,1,.16.81,1.94,1.94,0,0,1,0,.32l-.24-.2-.57-.53c-.45-.43-1-1-1.6-1.43-.28-.25-.59-.48-.88-.7l-.82-.6-.88-.63"/><path d="M35.54,45a1,1,0,1,1-1-1,1,1,0,0,1,1,1"/><path d="M39,47.64a1.39,1.39,0,1,1-1.39-1.39A1.39,1.39,0,0,1,39,47.64"/><path d="M38,56.83a.87.87,0,1,1-.86-.86.87.87,0,0,1,.86.86"/><path d="M39.21,64.44a.8.8,0,0,1-.8.8.8.8,0,0,1,0-1.6.8.8,0,0,1,.8.8"/><path d="M42.82,34.48l-1.27-.37,3.6-12.24a3.06,3.06,0,0,1,1.85-2l8.66-3.24.47,1.24-8.66,3.24a1.72,1.72,0,0,0-1,1.13Z"/><path d="M60.6,61.34l1.55,1-.24-.55.62-.31c0,.07.07.12.09.17.19.47.38.95.58,1.41a.89.89,0,0,0,.21.32A12.15,12.15,0,0,1,67.62,73c0,.24.07.32.3.37a4.42,4.42,0,0,1,3.3,4,4.32,4.32,0,1,1-5.9-3.83,14.76,14.76,0,0,1,1.59-.41,11.48,11.48,0,0,0-3.3-8.52,16,16,0,0,1,0,6.32,12.2,12.2,0,0,1-2.75,5.59,4.32,4.32,0,1,1-6.9.46,4.21,4.21,0,0,1,2.47-1.8,4.31,4.31,0,0,1,3.94.85c2.73-3.3,3.26-7.09,2.6-11.15a.09.09,0,0,0,0,.07,2.17,2.17,0,0,0,0,.25,5.68,5.68,0,0,1-1,2.63c-1.35,1.86-3.29,2.2-5.46,2.11.06-.68.08-1.35.18-2a4.93,4.93,0,0,1,4.33-4.31c.46-.07.93-.11,1.4-.16l0-.05-2.1-1.48ZM59.29,77.88l1,.38-.49.57a4.41,4.41,0,0,0-1.92-.24,2.43,2.43,0,0,0-.6-1.89l.45-.53a2.65,2.65,0,0,1,.76,1.29,5.1,5.1,0,0,0,1.27-.92,3.55,3.55,0,0,0-4.74.18,3.61,3.61,0,1,0,5.1,5.11,3.56,3.56,0,0,0,.18-4.77Zm8.13-2.27,1.26-.28v.74a2.53,2.53,0,0,0-1.93,1,1.7,1.7,0,0,0-1.35-1.4l.13-.69a3,3,0,0,1,1.16.6l.2-1.67a3.64,3.64,0,0,0-3.55,3A3.61,3.61,0,1,0,67.6,74ZM57.17,69.23A4.8,4.8,0,0,0,61,67.82a5.45,5.45,0,0,0,1.26-3.63C58.93,64.29,57.26,66,57.17,69.23Z"/><path d="M56.74,82.57a4.85,4.85,0,0,0,2.36-.39l-.28-.64a4.13,4.13,0,0,1-1.94.33Z"/><path d="M67.21,80.1l.1.67a3.45,3.45,0,0,0,2.39-1.61l-.55-.37a8.08,8.08,0,0,1-.87.8A7.62,7.62,0,0,1,67.21,80.1Z"/><path d="M59.05,66.85l.6.35a4.9,4.9,0,0,1,2-2l-.32-.65A5.76,5.76,0,0,0,59.05,66.85Z"/><path d="M55.69,72c-1.08,1-2.25,2.13-3.55,3.24a25.27,25.27,0,0,1-6.42,4.51h0a2.21,2.21,0,0,1-1.62.2c-.21-.13-.25-.49-.25-.76,0-2.41.83-6.26,2.47-11.45S52.21,54.14,54,51q.4-.7.78-1.41c1.2-2.26,2.12-4,4.35-4a6.2,6.2,0,0,1,1.59.24c3.46.95,7.84,3,9,7.11.54,1.89-.75,4.64-3.62,7.86a7,7,0,0,1,1,.82c3.18-3.6,4.52-6.7,3.85-9.05-1.09-3.75-4.53-6.52-10-8-4.46-1.23-6,1.64-7.46,4.42-.24.45-.49.92-.75,1.37-1.9,3.3-6.15,11.68-7.83,17s-2.53,9.31-2.53,11.85a2.06,2.06,0,0,0,.86,1.88,2.11,2.11,0,0,0,1.14.29A4.66,4.66,0,0,0,46.27,81,26,26,0,0,0,53,76.22C54.33,75.11,55.5,74,56.57,73A6.92,6.92,0,0,1,55.69,72Z"/><path d="M58.21,61.86A8.8,8.8,0,0,0,57,60.7a8,8,0,0,0-1.59-.92,6.2,6.2,0,0,0-1.53-.48,4.42,4.42,0,0,0-1.57,0s.56.31,1.3.76c.38.23.81.49,1.25.79s.91.62,1.36,1,.78.6,1.15.9A4,4,0,0,1,58.21,61.86Z"/><path d="M26.68,33.93,31,81.15a2.19,2.19,0,0,0,2.2,2h14A2.18,2.18,0,0,0,49.14,82,2.17,2.17,0,0,1,48,81.4a.87.87,0,0,1-.75.44h-14a.88.88,0,0,1-.89-.81L28.13,35.26H53.27l-1.11,9.88,1.31.15,1.28-11.36Z"/></svg>