<svg xmlns="http://www.w3.org/2000/svg" viewBox="0 0 100 100"><defs><style>.a{fill:#fff;}.b{fill:#414042;}.c,.d{fill:#e6e7e8;}.d{stroke:#414042;stroke-miterlimit:10;stroke-width:1.5px;}</style></defs><title>iShop</title><path class="a" d="M-3-2.44V102.44H103V-2.44ZM43,60.08h4.14v6.71H43Zm9.6,3.78h21.7V68.3H52.61Zm0-8.55h21.7v4.44H52.61Zm0-8.55h21.7V51.2H52.61Zm0-8.56h21.7v4.44H52.61ZM50.33,25.73v6.71H43V25.73ZM43,48.63h4.14v6.72H43Zm0-11.45h4.14v6.71H43ZM31.87,60.08h7.32v6.71H31.87Zm0-11.45h7.32v6.72H31.87Zm0-11.45h7.32v6.71H31.87Zm0-11.45h7.32v6.71H31.87Z"/><path class="b" d="M17.26,63.43v4a4.29,4.29,0,0,0,1.43,0v-4Z"/><path class="b" d="M18.69,75.36v-9a5.7,5.7,0,0,1-1.43,0V77A7.55,7.55,0,0,1,18.69,75.36Z"/><ellipse class="c" cx="17.97" cy="59.84" rx="7.04" ry="8.88"/><polygon class="c" points="56.31 16.31 56.31 21.27 54.42 21.27 27.77 21.27 25.88 21.27 25.88 16.31 56.31 16.31"/><path class="d" d="M89.62,82.5a2.88,2.88,0,0,1-.25,1.16H73.77a3.61,3.61,0,0,1,1-5,3.65,3.65,0,0,1,2.06-.58,4.17,4.17,0,0,1,.5,0,5,5,0,0,1,2.3-2.45l.11-.06a5,5,0,0,1,2.22-.5,5.12,5.12,0,0,1,5.13,4.55A2.87,2.87,0,0,1,89.62,82.5Z"/><path class="d" d="M32.47,82.36a2.09,2.09,0,0,1,0,.5.81.81,0,0,1,0,.22,1.4,1.4,0,0,1-.08.34.5.5,0,0,1-.09.23v.1H13.64a4.39,4.39,0,0,1,1.32-6A4.46,4.46,0,0,1,17.34,77c.2,0,.4,0,.6,0A6.08,6.08,0,0,1,26,74.12a5.88,5.88,0,0,1,1.74,1.22h0A6.1,6.1,0,0,1,28.94,77a2.76,2.76,0,0,1,.2.47,5,5,0,0,1,.27.85v.25a2.32,2.32,0,0,1,.06.38A3.41,3.41,0,0,1,32.47,82.36Z"/><path class="b" d="M31.87,67.51h7.32a.72.72,0,0,0,.72-.72h0V60.1a.71.71,0,0,0-.72-.71H31.87a.71.71,0,0,0-.72.71h0v6.72A.72.72,0,0,0,31.87,67.51Zm.72-6.71h5.88v5.3H32.59Z"/><path class="b" d="M31.87,56.06h7.32a.72.72,0,0,0,.72-.72h0V48.63a.71.71,0,0,0-.72-.71H31.87a.71.71,0,0,0-.72.71h0v6.72A.71.71,0,0,0,31.87,56.06Zm.72-6.71h5.88v5.28H32.59Z"/><path class="b" d="M31.87,44.61h7.32a.72.72,0,0,0,.72-.72h0V37.18a.72.72,0,0,0-.72-.72H31.87a.72.72,0,0,0-.72.72h0v6.71a.72.72,0,0,0,.72.72Zm.72-6.71h5.88v5.27H32.59Z"/><path class="b" d="M31.87,33.16h7.32a.72.72,0,0,0,.72-.72h0V25.73a.72.72,0,0,0-.72-.72H31.87a.72.72,0,0,0-.72.72h0v6.71a.72.72,0,0,0,.72.72Zm.72-6.71h5.88v5.27H32.59Z"/><path class="b" d="M50.33,25H43a.72.72,0,0,0-.72.72h0v6.71a.72.72,0,0,0,.72.72h4.48v-.72a1.18,1.18,0,0,1,.24-.72h-4V26.45h5.87V32.2h1.46V25.73a.72.72,0,0,0-.72-.72Z"/><path class="b" d="M42.29,37.18v6.71a.72.72,0,0,0,.72.72h3.66V43.17h-3V37.9h3V36.47H43A.73.73,0,0,0,42.29,37.18Z"/><path class="b" d="M42.29,60.1v6.72a.71.71,0,0,0,.72.71h3.78V66.1H43.72V60.8h3.07V59.37H43a.72.72,0,0,0-.72.72h0Z"/><path class="b" d="M42.29,48.63v6.72a.71.71,0,0,0,.72.71h3.78V54.63H43.72V49.35h3.07V47.92H43a.71.71,0,0,0-.72.71Z"/><path class="b" d="M74.32,37.48H52.61a.71.71,0,0,0-.71.72h0v4.44a.71.71,0,0,0,.71.72H74.32a.72.72,0,0,0,.72-.72V38.2A.72.72,0,0,0,74.32,37.48Zm-.72,4.44H53.33v-3H73.6Z"/><path class="b" d="M74.32,46H52.61a.71.71,0,0,0-.71.72h0V51.2a.71.71,0,0,0,.71.72H74.32A.72.72,0,0,0,75,51.2V46.76A.72.72,0,0,0,74.32,46Zm-.72,4.44H53.33v-3H73.6Z"/><path class="b" d="M74.32,54.59H52.61a.71.71,0,0,0-.71.72h0v4.44a.71.71,0,0,0,.71.72H74.32a.72.72,0,0,0,.72-.72V55.31A.72.72,0,0,0,74.32,54.59ZM73.6,59H53.33V56H73.6Z"/><path class="b" d="M74.32,63.14H52.61a.72.72,0,0,0-.71.72h0V68.3a.71.71,0,0,0,.71.72H74.32A.72.72,0,0,0,75,68.3V63.86A.72.72,0,0,0,74.32,63.14Zm-.72,4.45H53.33v-3H73.6Z"/><rect class="b" x="69.34" y="73.41" width="1.44" height="10.46"/><rect class="b" x="56.18" y="73.41" width="1.44" height="10.46"/><path class="b" d="M36.2,73.66v9.75h1.41v-9H46.9V72.94h-10A.72.72,0,0,0,36.2,73.66Z"/><path class="b" d="M28.61,20.55h-2V17h29v3.52H54a1.18,1.18,0,0,1,.24.72V22h2a.71.71,0,0,0,.71-.72h0v-5a.72.72,0,0,0-.7-.72H25.88a.73.73,0,0,0-.72.72h0v5a.72.72,0,0,0,.72.72h2.49v-.72A1.18,1.18,0,0,1,28.61,20.55Z"/><polygon class="b" points="58.1 73.42 58.1 74.38 68.84 74.38 68.84 73.42 71.27 73.42 71.27 74.38 72.26 74.38 72.26 72.94 54.69 72.94 54.69 74.38 55.68 74.38 55.68 73.42 58.1 73.42"/><rect class="b" x="69.34" y="73.91" width="1.44" height="0.47"/><polygon class="b" points="68.84 73.42 68.84 74.38 69.09 74.38 69.09 73.66 71.02 73.66 71.02 74.38 71.27 74.38 71.27 73.42 68.84 73.42"/><polygon class="b" points="69.09 73.66 69.09 74.38 69.34 74.38 69.34 73.91 70.77 73.91 70.77 74.38 71.02 74.38 71.02 73.66 69.09 73.66"/><rect class="b" x="56.18" y="73.91" width="1.44" height="0.47"/><polygon class="b" points="57.85 73.66 57.85 74.38 58.1 74.38 58.1 73.42 55.68 73.42 55.68 74.38 55.93 74.38 55.93 73.66 57.85 73.66"/><polygon class="b" points="57.61 73.91 57.61 74.38 57.85 74.38 57.85 73.66 55.93 73.66 55.93 74.38 56.18 74.38 56.18 73.91 57.61 73.91"/><path class="b" d="M11.66,59.84c0-4.5,2.83-8.17,6.32-8.17s6.33,3.67,6.33,8.17c0,4-2.21,7.29-5.14,8v1.46c3.71-.72,6.55-4.7,6.55-9.48,0-5.3-3.52-9.6-7.8-9.6s-7.7,4.28-7.7,9.6c0,4.78,2.84,8.76,6.55,9.48V67.81C13.86,67.12,11.66,63.81,11.66,59.84Z"/><path class="b" d="M18.69,69.4V68a4.29,4.29,0,0,1-1.43,0V69.4A5.7,5.7,0,0,0,18.69,69.4Z"/><path class="b" d="M18.94,67.91v1.46h.25V67.81Z"/><path class="b" d="M16.77,67.81v1.47l.25,0V67.87Z"/><path class="b" d="M17,67.91v1.46h.24V68Z"/><path class="b" d="M18.69,68V69.4h.25V67.91Z"/><path class="b" d="M54.18,33.16h24.9v41.5l.2-.11a5.9,5.9,0,0,1,1.24-.44V32.44a.72.72,0,0,0-.72-.72H54.42v.72A1.18,1.18,0,0,1,54.18,33.16Z"/><path class="b" d="M72.15,82.94h-.86v1H68.84v-1H58.1v1H55.68v-1H47v.72a1.24,1.24,0,0,1-.24.72h26l-.1-.08A4.74,4.74,0,0,1,72.15,82.94Z"/><rect class="b" x="69.34" y="82.94" width="1.44" height="0.47"/><polygon class="b" points="71.02 83.66 69.09 83.66 69.09 82.94 68.84 82.94 68.84 83.91 71.27 83.91 71.27 82.94 71.02 82.94 71.02 83.66"/><polygon class="b" points="70.77 83.41 69.34 83.41 69.34 82.94 69.09 82.94 69.09 83.66 71.02 83.66 71.02 82.94 70.77 82.94 70.77 83.41"/><rect class="b" x="56.18" y="82.94" width="1.44" height="0.47"/><polygon class="b" points="57.85 83.66 55.93 83.66 55.93 82.94 55.68 82.94 55.68 83.91 58.1 83.91 58.1 82.94 57.85 82.94 57.85 83.66"/><polygon class="b" points="57.61 83.41 56.18 83.41 56.18 82.94 55.93 82.94 55.93 83.66 57.85 83.66 57.85 82.94 57.61 82.94 57.61 83.41"/><path class="b" d="M79.08,74.66v.27l.31-.16a5.1,5.1,0,0,1,1.13-.41V74.1a5.9,5.9,0,0,0-1.24.44Z"/><path class="b" d="M72.4,82.94h-.25a4.86,4.86,0,0,0,.6,1.36l0,.07h.32a1.63,1.63,0,0,1-.17-.2A5,5,0,0,1,72.4,82.94Z"/><path class="b" d="M79.08,74.9v.29l.41-.23a5.51,5.51,0,0,1,1-.37v-.26a6.35,6.35,0,0,0-1.13.41Z"/><path class="b" d="M47.88,82.45V33.16H54.2V31.22h.94V22.44h-1V20.55H28v1.89h-1V73.29a7.51,7.51,0,0,1,1.43,1.07V22H53.71v9.73H51.54v1H49.12v-1H47.41v1.93h-1V36h1V38.4h-1v4.28h1V45.1h-1v2.32h1v2.41h-1v4.28h1v2.43h-1v2.31h1v2.43h-1v4.28h1V68h-1v4.45h1v2.42h-1v8.07H38.12v1H35.7v-1h-2a2.5,2.5,0,0,1-.06.38,4.27,4.27,0,0,1-.13.48v0h0l-.08.17h0l-.06.14a1.62,1.62,0,0,1-.1.18H46.92V82.45Z"/><path class="b" d="M46.43,32.44v.72h.47v-1.4A.72.72,0,0,0,46.43,32.44Z"/><rect class="b" x="49.61" y="31.72" width="1.44" height="0.47"/><polygon class="b" points="47.15 33.4 46.43 33.4 46.43 33.65 47.39 33.65 47.39 31.72 47.15 31.72 47.15 33.4"/><polygon class="b" points="51.05 32.19 49.61 32.19 49.61 31.72 49.37 31.72 49.37 32.44 51.3 32.44 51.3 31.72 51.05 31.72 51.05 32.19"/><rect class="b" x="46.43" y="36.47" width="0.47" height="1.44"/><rect class="b" x="46.43" y="43.17" width="0.47" height="1.44"/><polygon class="b" points="47.15 36.22 47.15 38.15 46.43 38.15 46.43 38.4 47.39 38.4 47.39 35.98 46.43 35.98 46.43 36.22 47.15 36.22"/><polygon class="b" points="47.15 42.93 47.15 44.86 46.43 44.86 46.43 45.1 47.39 45.1 47.39 42.69 46.43 42.69 46.43 42.93 47.15 42.93"/><polygon class="b" points="46.9 36.47 46.9 37.9 46.43 37.9 46.43 38.15 47.15 38.15 47.15 36.22 46.43 36.22 46.43 36.47 46.9 36.47"/><polygon class="b" points="46.9 43.17 46.9 44.61 46.43 44.61 46.43 44.86 47.15 44.86 47.15 42.93 46.43 42.93 46.43 43.17 46.9 43.17"/><rect class="b" x="46.43" y="59.37" width="0.47" height="1.44"/><rect class="b" x="46.43" y="66.07" width="0.47" height="1.44"/><polygon class="b" points="47.15 59.12 47.15 61.05 46.43 61.05 46.43 61.29 47.39 61.29 47.39 58.87 46.43 58.87 46.43 59.12 47.15 59.12"/><polygon class="b" points="47.15 65.82 47.15 67.76 46.43 67.76 46.43 68 47.39 68 47.39 65.58 46.43 65.58 46.43 65.82 47.15 65.82"/><polygon class="b" points="46.9 66.07 46.9 67.51 46.43 67.51 46.43 67.76 47.15 67.76 47.15 65.82 46.43 65.82 46.43 66.07 46.9 66.07"/><polygon class="b" points="46.9 59.37 46.9 60.8 46.43 60.8 46.43 61.05 47.15 61.05 47.15 59.12 46.43 59.12 46.43 59.37 46.9 59.37"/><rect class="b" x="46.43" y="54.63" width="0.47" height="1.44"/><rect class="b" x="46.43" y="47.92" width="0.47" height="1.44"/><polygon class="b" points="47.15 47.67 47.15 49.6 46.43 49.6 46.43 49.84 47.39 49.84 47.39 47.43 46.43 47.43 46.43 47.67 47.15 47.67"/><polygon class="b" points="47.15 54.38 47.15 56.3 46.43 56.3 46.43 56.55 47.39 56.55 47.39 54.13 46.43 54.13 46.43 54.38 47.15 54.38"/><polygon class="b" points="46.9 47.92 46.9 49.35 46.43 49.35 46.43 49.6 47.15 49.6 47.15 47.67 46.43 47.67 46.43 47.92 46.9 47.92"/><polygon class="b" points="46.9 54.63 46.9 56.06 46.43 56.06 46.43 56.3 47.15 56.3 47.15 54.38 46.43 54.38 46.43 54.63 46.9 54.63"/><rect class="b" x="46.43" y="72.94" width="0.47" height="1.44"/><rect class="b" x="36.2" y="82.94" width="1.44" height="0.47"/><polygon class="b" points="47.15 72.7 47.15 74.63 46.43 74.63 46.43 74.87 47.39 74.87 47.39 72.46 46.43 72.46 46.43 72.7 47.15 72.7"/><polygon class="b" points="37.88 83.66 35.95 83.66 35.95 82.94 35.7 82.94 35.7 83.91 38.12 83.91 38.12 82.94 37.88 82.94 37.88 83.66"/><polygon class="b" points="37.63 83.41 36.2 83.41 36.2 82.94 35.95 82.94 35.95 83.66 37.88 83.66 37.88 82.94 37.63 82.94 37.63 83.41"/><polygon class="b" points="46.9 72.94 46.9 74.38 46.43 74.38 46.43 74.63 47.15 74.63 47.15 72.7 46.43 72.7 46.43 72.94 46.9 72.94"/><path class="b" d="M27.53,20.6a.72.72,0,0,0-.47.67V22h.47Z"/><path class="b" d="M54.67,20.6V22h.47v-.72A.72.72,0,0,0,54.67,20.6Z"/><polygon class="b" points="54.42 20.55 54.42 20.55 54.18 20.55 54.18 22.48 55.14 22.48 55.14 22.24 54.42 22.24 54.42 20.55"/><polygon class="b" points="28.02 20.55 27.77 20.55 27.77 20.55 27.77 22.24 27.06 22.24 27.06 22.48 28.02 22.48 28.02 20.55"/><path class="b" d="M54.67,20.6a.69.69,0,0,0-.25,0v1.71h.72V22h-.47Z"/><path class="b" d="M27.78,20.55a.69.69,0,0,0-.25,0V22h-.47v.25h.72Z"/><path class="b" d="M54.67,33.11a.72.72,0,0,0,.47-.67v-.72h-.47Z"/><path class="b" d="M47.88,83.66v-.72h-.47v1.39A.72.72,0,0,0,47.88,83.66Z"/><polygon class="b" points="47.86 82.69 47.86 82.45 46.9 82.45 46.9 84.38 47.15 84.38 47.15 82.69 47.86 82.69"/><polygon class="b" points="54.18 33.16 54.42 33.16 54.42 33.16 54.42 31.47 55.14 31.47 55.14 31.23 54.18 31.23 54.18 33.16"/><path class="b" d="M47.88,82.94v-.25h-.72v1.72a.7.7,0,0,0,.25,0V82.94Z"/><path class="b" d="M54.42,33.16a1,1,0,0,0,.25,0V31.72h.47v-.25h-.72Z"/><path class="b" d="M28.49,74.74V74.4a7.16,7.16,0,0,0-1.43-1.08v.28a7.12,7.12,0,0,1,1.4,1.11Z"/><polygon class="b" points="33.45 83.88 33.44 83.88 33.38 84.06 33.45 83.88"/><path class="b" d="M28.5,75.12h0v-.38h0a7.07,7.07,0,0,0-1.4-1.1v.29a6.88,6.88,0,0,1,1.23,1Z"/><polygon class="b" points="31.95 83.3 31.95 83.56 32.2 83.64 32.2 83.39 31.95 83.3"/><rect class="b" x="27.06" y="70.29" width="1.45" height="5.01"/><rect class="b" x="32.48" y="82.94" width="57.3" height="1.45"/><rect class="b" x="79.08" y="70.51" width="1.44" height="5.06"/><rect class="b" x="46.41" y="32.15" width="1.47" height="51.76"/><rect class="b" x="47.97" y="31.72" width="18.9" height="1.44"/><rect class="b" x="54.88" y="72.94" width="16.99" height="1.44"/><path class="b" d="M20.35,67.41a5.37,5.37,0,0,1-1.71.56H17.32a5.49,5.49,0,0,1-1.58-.5V69a6,6,0,0,0,4.12.14,7.36,7.36,0,0,0,1.71-.79Z"/></svg>