<svg xmlns="http://www.w3.org/2000/svg" viewBox="0 0 100 100"><defs><style>.a{fill:#fff;}</style></defs><title>iShop</title><path class="a" d="M-3-2.44V102.44H103V-2.44ZM39.63,25H60.28v8.5H39.63Z"/><path d="M57.68,44.47l-2.87-5.68H65.6v-19H34.39v19H45.21l-2.88,5.68H21.93v34.8H28V74.49H40.17v5.7h5.88V74.11h-.3V50.57H58V74.11h-.28v6.08h5.87V74.48H72v4.79h6.08V44.47ZM35.14,38V20.56H64.85V38H35.14Zm10.92.75H54l2.69,5.32H43.35ZM23,45.64H76.91v3.75H23Zm3.71,32.51H23V50.84h3.71ZM44.89,79H41.34V75.27h3.55ZM45,73.74H28.3v-7.1H45Zm0-7.85H28.3v-7.1H45ZM28.3,58V50.94H45V58ZM62.38,79H58.83V75.27h3.55Zm9.23-5.3H58.7V50.94H71.61Zm5.3,4.42H73.15V50.84h3.76Z"/><path d="M60.7,33.91V24.65H39.25v9.26H60.7ZM40,33.16V25.4h19.9v7.76Z"/><path d="M63.58,64.7a1.21,1.21,0,0,0,1.22-1.21V59.7a1.22,1.22,0,0,0-2.43,0v3.79A1.21,1.21,0,0,0,63.58,64.7Z"/></svg>