<?xml version="1.0" encoding="utf-8"?>
<!-- Generator: Adobe Illustrator 21.1.0, SVG Export Plug-In . SVG Version: 6.00 Build 0)  -->
<svg version="1.1" id="Layer_1" xmlns="http://www.w3.org/2000/svg" xmlns:xlink="http://www.w3.org/1999/xlink" x="0px" y="0px"
	 viewBox="0 0 250 250" style="enable-background:new 0 0 250 250;" xml:space="preserve">
<style type="text/css">
	.st0{fill:#FFFFFF;}
	.st1{fill:#0454A2;}
	.st2{fill:#AA218E;}
	.st3{fill:#009D7B;}
	.st4{fill:#0355A1;}
	.st5{fill:none;stroke:#0355A1;stroke-miterlimit:10;}
</style>
<title>Dollar</title>
<ellipse class="st0" cx="125" cy="125" rx="106.3" ry="68"/>
<path class="st1" d="M125,195c-28.8,0-55.9-7.2-76.3-20.2C28,161.6,16.6,143.9,16.6,125S28,88.4,48.7,75.2C69.1,62.2,96.2,55,125,55
	s55.9,7.2,76.3,20.2c20.7,13.2,32.1,30.9,32.1,49.8s-11.4,36.6-32.1,49.8C180.9,187.8,153.8,195,125,195z M125,59
	C67.5,59,20.7,88.6,20.7,125s46.8,66,104.3,66s104.3-29.6,104.3-66S182.5,59,125,59z"/>
<path class="st2" d="M95.9,127.8c0,8.8,0,17.6,0,26.4c0,3-0.3,6.1-0.9,9.1c-1.7,8.7-6,13.1-14.7,14.7c-5.5,1.1-11.2,0.8-16.6-0.7
	c-8.1-2.4-12.8-8.6-12.9-17c0-3.8,0-7.5,0-11.3c0-1.2,0.4-1.4,1.5-1.4c5.4,0,10.8,0,16.2,0c1.1,0,1.4,0.3,1.4,1.4
	c-0.1,3.4,0,6.8,0,10.1c0,0.8,0.1,1.5,0.2,2.3c0.1,1.7,1.6,2.9,3.3,2.8c0.1,0,0.1,0,0.2,0c1.8,0,2.7-0.8,3.1-2.8
	c0.1-0.7,0.2-1.4,0.2-2.2c0-6.2,0-12.5,0-18.7c0-0.4,0.3-1.1-0.2-1.3c-0.5-0.3-0.8,0.3-1.1,0.5c-4.3,2.8-9.6,3.5-14.4,2.1
	c-5.6-1.5-9.2-6-9.9-12c-0.2-1.7-0.3-3.5-0.3-5.2c0-7.6,0-15.3,0-22.9c0-3.7,0.4-7.3,1.3-10.8c1.7-6.9,6-11.1,13-12.6
	c5.6-1.2,11.3-1.2,16.9,0.1c7.1,1.6,11.2,6,12.8,13c0.8,3.4,1.2,6.9,1.1,10.3C96,110.3,96,119.1,95.9,127.8L95.9,127.8z M76.8,108.9
	c0-3.8,0-7.5,0-11.3c0-1,0-1.9-0.2-2.9c-0.3-2.1-1.3-3-3.2-3c-1.7-0.2-3.2,1-3.4,2.7c0,0.1,0,0.2,0,0.3c-0.1,0.8-0.2,1.6-0.2,2.4
	c0,7.7,0,15.4,0,23.2c0,1,0.1,1.9,0.2,2.9c0.1,1.6,1.5,2.9,3.2,2.8c0,0,0.1,0,0.1,0c1.6,0.2,3.1-1,3.2-2.6c0-0.1,0-0.1,0-0.2
	c0.1-0.8,0.2-1.6,0.2-2.4C76.8,116.8,76.8,112.8,76.8,108.9z"/>
<path class="st2" d="M98.7,110.6c0.1-4.6-0.3-10.3,0.5-15.9c0.3-2.8,1.1-5.5,2.2-8c2.4-5,6.6-7.5,11.8-8.7c5.3-1.1,10.7-1.1,16-0.1
	c7.8,1.5,12.1,6.4,13.7,14c0.6,3.2,0.9,6.5,0.9,9.8c0,7.1,0,14.2,0,21.3c0.1,0.9-0.4,1.8-1.3,2.1c-4.8,2.1-7.8,5.7-8.1,11
	c-0.5,7.1-0.5,14.2,0,21.3c0.3,4.5,3.3,7,7.6,6.2c1-0.2,0.8,0.3,0.6,0.9c-1.6,7-5.7,11.6-12.9,13.1c-6.7,1.4-13.3,1.5-19.8-1
	c-7.1-2.7-10.9-8-11.2-15.7c-0.2-4.1,0-8.2-0.1-12.3c0-0.9,0.3-1.2,1.2-1.1c5.5,0,11.1,0,16.7,0c1,0,1.3,0.4,1.3,1.3
	c0,4-0.2,7.9,0.1,11.9c0.2,2.3,1.4,3.4,3.5,3.3c1.5,0.1,2.8-0.9,3-2.4c0.2-0.7,0.2-1.4,0.3-2.1c0-6.5,0-12.9,0-19.4
	c0-0.4,0.2-0.8-0.2-1c-0.4-0.2-0.7,0.2-1,0.4c-4.2,2.8-9.3,3.6-14.1,2.3c-6-1.4-9.9-6.2-10.4-12.9c-0.1-0.8-0.2-1.6-0.2-2.4
	C98.7,121.5,98.7,116.6,98.7,110.6z M117.9,108.5h-0.1c0,3.7,0,7.4,0,11.1c-0.1,1.3,0,2.5,0.3,3.7c0.3,1.5,1.7,2.6,3.3,2.5
	c1.5,0.1,2.9-1,3.1-2.5c0.2-0.8,0.3-1.7,0.3-2.6c0-8.1,0-16.3,0-24.4c0-1-0.1-1.9-0.4-2.9c-0.3-1.1-1.3-1.9-2.5-1.9
	c-2.4-0.2-3.9,0.9-3.9,3.5C117.8,99.6,117.9,104.1,117.9,108.5L117.9,108.5z"/>
<path class="st2" d="M154.6,120.6c0-1.5,0-2.9,0-4.4c0.1-0.7-0.4-1.3-1-1.4c0,0,0,0-0.1,0c-2.9-0.4-5.1-2.7-5.5-5.6
	c-0.1-0.6-0.2-1.1-0.3-1.7c-0.2-7.9-0.4-15.8,0.1-23.7c0.3-3.6,2.1-6,5.9-6.6c0.7-0.1,0.9-0.4,0.9-1.1c0-0.2,0-0.5,0-0.7
	c0.2-3.2,0.3-3.3,3.4-4c0.6-0.1,0.8,0,0.8,0.6c0,1.2,0.1,2.3,0,3.5c-0.1,1.1,0.3,1.6,1.4,1.8c1.8,0.3,3.5,1.2,4.6,2.7
	c0.9,1.1,1.5,2.6,1.5,4c0,2.3,0,4.5,0,6.8c0,0.8-0.2,1-1,1c-2,0-4,0-5.9,0c-0.7,0-0.9-0.3-0.9-0.9c0-2,0-4,0-5.9
	c0-0.6-0.1-1.2-0.3-1.7c-0.2-0.6-0.8-0.9-1.4-0.8c-0.6-0.1-1.2,0.3-1.3,0.9c-0.1,0.7-0.2,1.3-0.2,2c0,7,0,13.9,0,20.9
	c0,0.6,0,1.2,0.1,1.7c0,0.8,0.6,1.4,1.4,1.4c0,0,0.1,0,0.1,0c0.8,0.1,1.4-0.5,1.5-1.3c0-0.1,0-0.1,0-0.2c0.1-1.5,0.1-3.1,0.1-4.6
	c0-2.9,0-2.9,3-2.9c1.2,0,2.4,0,3.6,0c0.8,0,1.2,0.2,1.2,1.1c-0.1,2,0,4.1,0,6c0,3.6-2.5,6.6-6,7.2c-0.8,0.2-1.5,0.3-1.5,1.5
	C158.8,119.7,158.5,119.9,154.6,120.6z"/>
<path class="st3" d="M170.9,119.9c-0.1-1.3-1.3-2.3-2.6-2.2c-0.2,0-0.5,0.1-0.7,0.2c-2,0.5-3.7,1.8-4.8,3.6l-1,1.7l-0.3-0.1
	c0-0.2-0.1-0.5-0.1-0.7c-0.1-1.6-0.1-1.6-1.7-1c-1.2,0.5-2.4,1-3.6,1.3c-0.8,0.1-1.3,0.9-1.2,1.7c0,9.9,0,19.8,0,29.7
	c0,1.2,0.4,1.1,1.3,0.8c1.4-0.6,2.8-1.1,4.2-1.6c1-0.3,1.3-0.9,1.3-1.9c0-7.6,0-15.2,0-22.9c-0.1-0.7,0-1.5,0.2-2.1
	c0.2-0.8,1-1.3,1.8-1.2c0.9,0.1,0.8,1,0.8,1.6c0,0.4,0,0.9,0,1.3c0,7.4,0,14.8,0,22.1c0,1.3,0.3,1.4,1.4,1c1.3-0.6,2.7-1.1,4.1-1.5
	c0.9-0.2,1.4-1,1.3-1.9c0-8.5,0-17.1,0-25.6C171.2,121.4,171.1,120.7,170.9,119.9z"/>
<path class="st3" d="M194.3,108.6c-0.9,0.2-1.5,1-1.4,1.9c-0.5,5.5-1,11-1.6,16.5c-0.2,2.4-0.4,4.8-0.7,7.3
	c-0.4-0.2-0.7-0.7-0.6-1.2c0.1-4.2-0.4-8.3-0.7-12.4c-0.2-2.9-0.4-5.8-0.7-8.6c-0.1-1-0.4-1.2-1.4-0.8c-1.6,0.7-3.1,1.2-4.7,1.8
	c-0.7,0.2-0.9,0.5-0.7,1.2c0.4,2.1,0.7,4.3,1,6.4c1.1,7.2,2.2,14.4,3.4,21.5c0.6,3.5,0.6,3.5-2.7,5.1c-3.3,1.6-3.5,1.7-3.3,5.3
	c0,0,0,0.1,0,0.1c0,0.7,0.1,1,0.9,0.6c2.7-1.2,5.4-2.3,8.1-3.5c2.1-0.9,3.6-2.6,4.2-4.8c0.3-1.1,0.6-2.2,0.8-3.4
	c1-6.7,1.9-13.3,2.9-20c0.7-4.8,1.3-9.6,2-14.7C197.4,107.5,195.9,108.1,194.3,108.6z"/>
<path class="st3" d="M146.2,126c-6,1.9-9.4,4.8-9.4,12c0,2.8,0,5.6,0,8.4l0,0c0,2.7,0,5.4,0,8.1c-0.1,1.2,0.1,2.4,0.4,3.6
	c0.3,2,2.1,3.3,4.1,3.1c0.2,0,0.4-0.1,0.6-0.1c1.6-0.3,3.2-0.8,4.6-1.5c3.4-1.4,5.8-4.6,6.1-8.3c0.5-6.9,0.5-13.8,0.1-20.7
	C152.6,125.9,150.5,124.7,146.2,126z M146.2,151.7c0,0.8-0.1,1.5-0.3,2.3c-0.2,0.7-0.8,1.3-1.6,1.2c-0.9-0.1-0.9-0.9-0.9-1.4
	c0-3.5,0-6.9,0-10.4h-0.1c0-3,0-6.1,0-9.1c-0.1-0.8,0.1-1.5,0.4-2.3c0.3-0.6,0.9-0.9,1.5-0.9c0.8,0.1,0.8,0.8,0.8,1.3
	c0.1,0.6,0.1,1.2,0.1,1.7C146.3,140,146.3,145.8,146.2,151.7L146.2,151.7z"/>
<path class="st3" d="M180.1,126L180.1,126c0-6.3,0-12.5,0-18.8c0-1.2-0.3-1.4-1.4-1c-1.2,0.6-2.5,1-3.8,1.4c-1.2,0.3-1.6,1-1.6,2.3
	c0,12.3,0,24.5,0,36.8c0,0.3,0,0.6,0,0.9c0,0.7,0.2,0.8,0.9,0.6c1.6-0.6,3.1-1.2,4.7-1.7c1-0.3,1.1-0.8,1.1-1.7
	C180.1,138.5,180.1,132.2,180.1,126z"/>
<path class="st4" d="M148.1,166c0-0.7,0-1.3,0-1.9c0-0.3-0.1-0.6-0.4-0.6c-0.3,0-0.6,0.2-0.6,0.5c0,0,0,0,0,0
	c-0.1,1-0.3,1.9,0.8,2.6c0.4,0.2,0.7,0.6,1.1,0.8c2.2,1.1,1.6,3.1,1.4,4.8s-1.8,2.6-3.4,2.9s-2.2-0.2-2.2-1.8c0-1.2-0.5-2.6,1.5-2.9
	c0.7-0.1,0.9-0.1,1,0.7s-0.4,1.5,0.4,1.9c0.1,0,0.4-0.2,0.4-0.3c0.2-0.9,0.5-1.9-0.3-2.7c-0.6-0.5-1.2-1-1.8-1.4
	c-1.3-1.3-1.6-3.2-0.8-4.8c0.9-1.5,2.6-2.4,4.3-2.3c0.5,0.1,0.9,0.5,1,0.9C150.9,164.5,150.4,165.5,148.1,166z"/>
<path class="st4" d="M160,165.3c0,0.8,0,1.6,0,2.4c0.1,2-1.3,3.7-3.3,3.9c-0.9,0.2-1.5-0.1-1.6-1.1c-0.3-2.3-0.3-4.7,0-7
	c0.4-1.7,1.9-2.9,3.6-2.9c0.7,0,1.2,0.5,1.2,1.2c0,0,0,0.1,0,0.1c0,1.2,0,2.3,0,3.5L160,165.3z M158,166L158,166c0-0.9,0-1.8,0-2.7
	c0-0.4,0.1-0.9-0.4-0.9s-0.6,0.5-0.6,0.9c0,1.9,0,3.8,0,5.7c0,0.3-0.1,0.8,0.4,0.7s0.5-0.4,0.5-0.7C158,168,158,167,158,166z"/>
<path class="st4" d="M167.1,162.5c0-0.9,0-1.8,0-2.7c-0.1-1.9,1.4-3.5,3.3-3.6c0,0,0,0,0.1,0c0.4-0.1,0.8,0,1.1,0.2
	c1.1,1.1,0.4,2.6,0.6,3.9c0.1,0.9-0.7,0.9-1.2,1.2c-1.9,0.7-2.2,1.2-1.9,3.3c0,0.3,0,0.6,0.4,0.7c0.4,0,0.5-0.4,0.5-0.7s0-0.9,0-1.3
	c0.1-1.1,1.1-1.1,1.7-1.2s0.4,0.7,0.4,1.1c0.1,2-1.4,3.8-3.4,3.9c-0.9,0.1-1.5-0.2-1.6-1.2s0-2.3,0-3.5L167.1,162.5z M170.1,159.1
	c-0.1-0.4,0.3-1.2-0.4-1.2c-0.8,0-0.6,0.8-0.6,1.3s-0.3,1.2,0.4,1.2S170.1,159.6,170.1,159.1L170.1,159.1z"/>
<path class="st4" d="M173.2,162.6c0-0.2-0.2-0.8,0.5-1.2c1.2-0.6,1.5-0.5,1.6,0.9c0,0.3-0.1,0.8,0.3,0.8s0.6-0.4,0.6-0.8
	c0.2-0.9-0.3-1.8-1.2-2.1c-1.9-0.9-2.4-1.9-1.9-3.6c0.6-1.6,2.1-2.6,3.8-2.7c1.5,0.1,1.2,1.3,1.3,2.3c0,1.2-1,1.1-1.6,1.2
	c-0.6,0.1-0.3-0.6-0.4-1c-0.1-0.4,0-0.7-0.5-0.7c-0.5,0-0.5,0.4-0.5,0.8c-0.1,0.8,0.4,1.6,1.1,1.8c1.9,0.9,2.4,2.1,1.8,4.2
	c-0.6,1.5-2,2.5-3.5,2.6C173.2,164.9,173,164,173.2,162.6z"/>
<path class="st4" d="M160.9,164.7c0-1.3,0-2.5,0-3.8c0-0.1,0-0.3,0-0.4c-0.1-0.6,0.3-1.2,0.7-1c1.7,0.6,2.4-2.1,4.1-1.2
	c0.3,0.2,0.3,0.6,0.3,0.9c0,1.1,0,2.1,0,3.2c0.1,0.4-0.2,0.9-0.6,1c-1.2,0.6-1.4,0.5-1.5-0.9c-0.1-0.7,0.5-2.1-0.5-2
	c-1,0-0.4,1.4-0.4,2.1c-0.1,1.7-0.1,3.5,0,5.2c0.1,1.1-0.5,1.4-1.3,1.7c-0.6,0.2-0.9,0.1-0.9-0.6
	C160.9,167.5,160.9,166.2,160.9,164.7L160.9,164.7z"/>
<path class="st4" d="M151.6,168.4c-0.2-1.2,0.2-2.7-0.5-4.2c-0.3-0.7,0.3-2,0.7-2.9c0.4-0.5,1-0.7,1.5-0.6c0.5,0,0.1,0.7,0.3,1
	c0.9,0.9,0.3,1.7,0.1,2.7c-0.2,2-0.2,4,0,6c0,0.1,0,0.2,0.1,0.3c0.5,0.3,0.7,0.9,0.4,1.4c0,0-0.1,0.1-0.1,0.1
	c-0.5,0.5-1.2,0.7-1.8,0.7c-0.7,0-0.8-0.6-0.8-1.1C151.6,170.8,151.6,169.7,151.6,168.4z"/>
<ellipse transform="matrix(0.6831 -0.7303 0.7303 0.6831 -57.4181 184.2802)" class="st5" cx="183.7" cy="158.3" rx="3.6" ry="2.4"/>
<path class="st4" d="M182.1,156.9c0.3-0.1,0.5-0.1,0.8-0.2c0.3-0.1,0.7,0,1,0.1c0.2,0.1,0.3,0.4,0.4,0.6c0.1,0.4-0.1,0.8-0.5,1l0,0
	c0.3,0.1,0.5,0.3,0.6,0.6c0.1,0.3,0.2,0.6,0.4,0.9l-0.5,0.1c-0.1-0.3-0.3-0.5-0.3-0.8c-0.2-0.5-0.4-0.6-0.8-0.6h-0.4l0.2,1.5h-0.4
	L182.1,156.9z M182.8,158.4l0.4-0.1c0.5-0.1,0.7-0.4,0.7-0.8c-0.1-0.4-0.4-0.6-0.9-0.5c-0.1,0-0.3,0-0.4,0.1L182.8,158.4z"/>
</svg>
