<?xml version="1.0" encoding="utf-8"?>
<!-- Generator: Adobe Illustrator 21.1.0, SVG Export Plug-In . SVG Version: 6.00 Build 0)  -->
<svg version="1.1" id="Layer_1" xmlns="http://www.w3.org/2000/svg" xmlns:xlink="http://www.w3.org/1999/xlink" x="0px" y="0px"
	 viewBox="0 0 250 250" style="enable-background:new 0 0 250 250;" xml:space="preserve">
<style type="text/css">
	.st0{fill:#F8E401;}
	.st1{fill:#E22A3C;}
	.st2{fill:#EFA930;}
	.st3{fill:#05994A;}
	.st4{fill:#1E3F78;}
</style>
<title>CR</title>
<path class="st0" d="M220.8,182.9h-1.1H30.1h-0.8c0-1.6,0.1-3.2,0.3-4.7c0.1-1.9,0.4-3.7,0.7-5.5c0.3-1.8,0.7-4,1.1-6
	c0.8-3.6,1.7-7.1,2.9-10.5c1.7-4.9,3.7-9.6,6.1-14.1c2.3-4.2,4.8-8.2,7.6-12c2.8-3.8,5.9-7.4,9.2-10.7c2.7-2.7,5.5-5.2,8.5-7.5
	c6.4-5.1,13.5-9.3,21-12.6c8.4-3.7,17.3-6.2,26.5-7.2c6.4-0.8,12.8-1,19.2-0.5c2.3,0.2,4.7,0.5,7,0.8c3.7,0.6,7.4,1.3,11,2.3
	c4.3,1.2,8.5,2.7,12.6,4.4c5.7,2.4,11.1,5.4,16.2,8.9c4.6,3.1,8.9,6.7,12.9,10.6c3.6,3.5,6.9,7.3,10,11.4c1.4,1.9,2.8,3.9,4.1,5.9
	c3.1,5,5.8,10.2,8,15.7c1.5,3.8,2.8,7.7,3.8,11.6c1.1,4,1.8,8.1,2.3,12.3C220.5,177.9,220.7,180.4,220.8,182.9z M146.3,166.7
	L146.3,166.7l-1.6,0.8c0.1,0.1,0.3,0.1,0.4,0c2.4-0.8,4.8-1.3,7.2-2c1.4-0.5,2.8-0.7,4.3-0.6c0.3,0,0.6,0,0.8-0.1
	c2.1-0.6,4.2-1,6.3-1.3c2.8-0.4,5.6-0.6,8.4-1c2.2-0.3,4.3-0.5,6.5-0.5c1.8-0.1,3.6-0.2,5.3-0.2c1.5,0,3.1-0.1,4.6-0.2
	c1.8,0,3.6,0,5.3,0.2c1.3,0.3,2.7,0,3.9-0.8c0.5-0.4,0.8-1.3,0.4-1.6c-0.8-0.5-1.3-1.1-2.1-1.6c-0.8-0.4-1.5-1.5-2.7-1.5
	c-0.1,0-0.2-0.2-0.3-0.3c-1.3-1-1.9-1.7-3.4-0.8c-0.3,0.2-0.6,0.3-0.9,0.2c-1.5-0.1-2.9-0.1-4.4,0c-2.5,0.1-5,0.3-7.5,0.7
	c-1.9,0.2-3.9,0.4-5.8,0.8c-1.5,0.3-3.1,0.6-4.7,0.8c-2.6,0.4-5.1,0.8-7.7,1.5c-2.3,0.6-4.6,0.9-6.9,1.3c-1.7,0.4-3.3,0.8-5,1.2
	c-0.9,0.2-1.8,0.1-2.7,0.4c-1.9,0.5-3.8,1-5.7,1.3c-2.3,0.5-4.6,1-6.9,1.6c-1.8,0.5-3.7,0.9-5.5,1.3c-1.3,0.4-2.6,0.8-4,1
	c-0.4,0-0.8,0.1-1.1,0.3c-2,1.2-4.3,1.6-6.5,2.5c-2.1,0.9-4,1.3-5.9,2.2c-2.5,1-4.8,2.2-7,3.6c-0.1,0.1-0.3,0.2-0.4,0.3
	s-0.4,0.3-0.3,0.5c0.1,0.2,0.4,0.2,0.6,0.2c0.9,0,1.7-0.5,2.7-0.6c1.2-0.1,2.3-0.6,3.1-1.5c0.1-0.2,0.3-0.2,0.5-0.2
	c0.4,0.1,0.9,0,1.3-0.2c0.8-0.4,1.9-0.2,2.7-1c0.2-0.2,0.4-0.1,0.6,0c0.3,0.1,0.6,0,0.7-0.3c0.2-0.5,0.4-0.7,0.9-0.5
	c0.2,0.1,0.5,0.1,0.7,0c1-0.3,2-0.7,3-0.9c1.2-0.5,2.5-0.9,3.7-1.2c0.7-0.2,1.4-0.4,2-0.6c0.8-0.2,1.5-0.4,2.3-0.5
	c0.8-0.1,1.5-0.4,2.3-0.7c0.7-0.3,1.4-0.1,2.1-0.4c0.7-0.3,1.8-0.4,2.7-0.7c0.6-0.3,1.4-0.5,2.1-0.4c1.2,0.2,2.3,0,3.4-0.4
	c0.2,0,0.4-0.3,0.8,0.1c-2.5,0.6-4.5,2-6.7,3c0.7-0.2,1.4,0.1,2.1,0c0.7-0.1,0.9-0.7,1.3-0.8c0.4-0.1,1.2,0.1,1.8-0.2
	c0.8-0.4,1.7-0.7,2.5-0.9c0.9-0.3,1.8-0.5,2.7-0.8c0.4-0.2,0.7-0.4,0.9,0.3C144.3,167,145.3,166.6,146.3,166.7z M63.3,150.3
	L63.3,150.3c-0.7,0.7-1.5,1.3-2.3,1.9c-1.7,1.1-3.3,2.3-4.8,3.7c-2.1,1.8-4.2,3.7-6.3,5.5c-2.7,2.2-4.8,4.9-7.2,7.2
	c-0.5,0.4-0.8,1-0.9,1.6c0.5-0.3,1-0.5,1.6-0.5c2.3-0.3,4.6-1,6.7-2.1c0.3-0.2,0.8-0.3,0.8-0.8c0-0.2,0.1-0.2,0.2-0.2
	c0.7-0.1,1.1-0.6,1.6-1c1.5-1.3,2.7-2.8,4.3-4c0.6-0.4,1-0.9,1.2-1.5c0.1-0.4,0.4-0.6,0.7-0.7c1.1-0.5,2-1.2,2.7-2.2
	c0.4-0.4,1.3-0.6,0.8-1.5l0,0c0.6-0.6,1.1-1.4,2-1.7c0.3-0.1,0.6-0.2,0.9-0.4c1.2-1.1,2.3-2.3,3.5-3.5c0.6-0.7,1.3-1.3,2.1-1.7
	c0.5-0.2,1-0.4,1.4-0.8l1.3-1.1c0.2-0.2,0.4-0.2,0.5,0.1c0.2,0.4,0.7,0.6,1.1,0.4c0.1,0,0.1-0.1,0.2-0.1c0.7-0.6,1.6-0.5,2.3-0.7
	c1.6-0.5,3.1-0.9,4.7-1.3c0.6-0.1,0.9-0.6,1.5-0.6c0.9-0.1,1.7-0.3,2.5-0.5c1.7-0.3,3.1-1.3,4.8-1.5c1-0.2,2-0.4,3-0.7
	c-1.1,1.5-2,3-2.9,4.7c-1.2,1.7-1.7,3.7-2.9,5.4c-1.5,2.2-2,4.8-3.2,7.1c-1,1.7-1.8,3.5-2.4,5.3c0,0.2-0.2,0.5-0.1,0.7
	c0.4,0.8-0.1,1.4-0.4,2c-0.4,0.6-0.5,1.4-0.3,2c0.7,1.3,1.9,2.2,3.3,2.5c1.2,0.1,2.5,0,3.7-0.3c0.9-0.3,1.9-0.7,2.8-1.1
	c1-0.4,1.8-1,2.7-1.6c0.2-0.2,0.5-0.3,0.8-0.3c1.7-0.5,3.1-1.6,4.2-3c0.2-0.2,0.3-0.5,0.2-0.7l-0.6,0.2c-1.3,0.6-2.8,1-4.2,1.1
	c-1.1,0-1.6-0.4-1.5-1.6c0-0.7,0.2-1.3,0.3-2c-0.1-1,0.1-2,0.6-2.8c0.7-1,0.9-2.3,1.6-3.3c0.7-1,0.8-2.3,1.6-3.3
	c0.6-1,1-2.1,1.3-3.2c0.2-0.3-0.2-0.4-0.4-0.4c-0.3,0-0.5,0-0.6-0.2c-0.1-0.2,0.3-0.4,0.5-0.5s0.8-0.4,0.8-0.8
	c-0.1-0.6,0.3-0.7,0.7-0.8c0.5-0.6,0.9-1.4,1.1-2.2c0-0.1-0.1-0.1-0.1-0.2c-0.5-0.7-0.5-1,0.2-1.3c1.1-0.5,1.2-1.5,1.7-2.4
	c0.3-0.5,0.5-1.1,1.3-1.3c3.4-0.8,6.9-1.6,10.3-2.4c2.4-0.5,4.8-1.1,7.3-1.5c1,0,2-0.4,2.7-1.1c0.1-0.2,0.3-0.1,0.5,0
	c0.4,0.3,0.9,0.4,1.3,0.2c1-0.2,1.9-0.4,2.9-0.6c1-0.1,1.9-0.5,2.7-1.2c0.2-0.2,0.5-0.3,0.8-0.3c0.7,0.2,1.4,0.4,2.1-0.3
	c0.1,0,0.2,0,0.2,0c1,0.2,2.1,0,3-0.5c1.1-0.4,2.1-1,3-1.9c-1.6,0.3-3,0.5-4.4,0.7c-1.2,0.1-2.3,0.6-3.5,0.7c-1,0-2,0.2-3,0.6
	c-0.5,0.3-1.1,0.4-1.6,0.2c-0.4-0.1-0.8-0.1-1.2,0c-1.3,0.4-2.6,0.2-3.9,0.5c-2.2,0.5-4.5,0.9-6.8,1.2c-2.5,0.3-4.9,0.8-7.4,1.2
	l-3.5,0.5c0.3-1,0.8-2,1.3-2.9c0.9-1.3,1.3-2.9,2.3-4.2c0.4-0.7,0.8-1.4,1-2.1c0.3-0.6,0.7-1.1,1.1-1.7c0.3-0.4,0.4-0.7-0.3-0.8
	c0.5-0.4,1.1-0.4,1.3-0.9c0.4-0.7,0.9-1.4,1.3-2.1c0.3-0.4,0.1-0.6-0.3-0.7c-0.1,0-0.3,0.1-0.5-0.1c0.5-0.5,1.2-1,1.9-1.2
	c0.7-0.2,0.9-0.8,0.4-1.2c0.3-0.1,0.5-0.2,0.8-0.3c0.2-0.1,0.5-0.4,0.4-0.7s-0.4-0.1-0.6-0.1c-0.2,0-0.3,0-0.5-0.2
	c0.5-0.3,1-0.6,1.5-0.9c0.8-0.4,1.5-0.9,2-1.6c1.4-1.7,2.9-3.2,4.7-4.6c0.8-0.6,1.5-1.2,2.3-2H125c-2.6,0.4-5.2,1.1-7.6,2
	c-2.6,0.9-4.5,2.7-6.8,4.1c-1.3,0.8-2.5,1.9-3.7,2.8c-2.2,1.6-4.3,3.2-6.5,4.9c-2.1,1.7-3.9,3.1-5.9,4.5c-2,1.4-3.7,3.1-5.8,4.5
	c-2.5,1.6-4.9,3.5-7.1,5.5c-0.5,0.5-0.9,1.1-1.7,1.5c-0.5,0.3-1,0.6-1.5,1c-1.6,1.3-3.1,2.7-4.8,3.9c-0.7,0.6-1.5,1-2.4,1.3
	c-2.9,0.9-5.8,1.7-8.8,2.3c-2,0.4-4,1-5.9,1.7c-0.7,0.3-1.3,0.8-1.8,1.3c0.8-0.1,1.7-0.1,2.5,0c-0.7,0.3-1.4,0.5-2.1,0.6
	c-2,0.1-3.3,1.5-4.8,2.5c-0.1,0.1-0.1,0.1-0.2,0.2c-0.1,0.5-0.5,1-1.1,1.1c-0.9,0.3-1.8,0.8-2.5,1.5c-0.6,0.4-1.1,0.8-1.6,1.3
	c0.3,0.1,0.5,0.1,0.8,0c3.9-0.9,7.6-2.3,11.4-3.5C59.3,151.6,61.2,150.8,63.3,150.3z M168.7,151c2.3-0.2,4.5-0.5,6.8-0.9
	c3.6-0.5,7-1.8,10-3.8c0.6-0.5,1.1-1.2,1.4-1.9c0.2-0.5,0-1-0.4-1.3c-1.2-1-2.7-1.5-4.2-1.5c-1.8-0.1-3.5-0.1-5.3-0.3
	c-0.5-0.1-0.4-0.4-0.3-0.6c0.2-0.2,0.3-0.4,0.6-0.5c2-1.2,4.2-2,6.5-2.3c0.3,0,0.6-0.2,0.8,0.1c0.2,0.3-0.1,0.5-0.3,0.7
	c-0.1,0.2-0.3,0.3-0.1,0.5c0.1,0.1,0.3,0.1,0.4,0.1c0.7-0.4,1.5-0.3,2.3-0.6c1.7-0.7,3.3-1.6,4.7-2.7c0.2-0.2,0.6-0.3,0.5-0.7
	c-0.1-0.3-0.4-0.6-0.8-0.7c-0.3-0.1-0.6-0.1-0.8,0c-4,0.3-7.9,1.8-11.8,2.8c-0.5,0.1-1,0.3-1.5,0.5c-1.4,0.5-2.7,1.1-4,1.8
	c-1.8,0.7-3.3,1.8-4.6,3.2c-0.4,0.5-0.8,1-0.6,1.7s0.9,0.5,1.4,0.6c1.3,0,2.8,0,4.1,0c1.7-0.1,3.5,0.3,5.1,0.9
	c0.3,0.1,0.7,0.3,0.7,0.7c-0.1,0.4-0.3,0.8-0.7,0.9c-1.3,0.6-2.6,0.8-4,0.8c-0.5,0-0.6-0.2-0.3-0.6c0.3-0.4,0.6-0.4,0.3-0.7
	c-0.3-0.3-0.6,0-0.9,0c-0.1,0-0.2,0.1-0.4,0.1c-2.1,0.2-4.1,0.9-5.9,1.9c-0.5,0.2-1.1,0.3-1.1,1.1c0,0.2-0.3,0.2-0.4,0.3
	c-1,0.4-2.1,0.8-3.1,1c-0.3,0-0.7,0.3-0.9-0.1c-0.2-0.3,0-0.7,0.2-1c0.8-1.4,1.6-2.7,2.3-4.2c1.1-1.8,2.1-3.6,2.9-5.5
	c0.1-0.4,0.1-0.5-0.3-0.6c-0.6-0.1-1.2,0-1.7,0.2c-1.3,0.4-2.3,1.1-3.6,1.6c-1.4,0.4-2.6,1.5-3.1,2.9c-0.5,1.4-1.4,2.7-2.4,3.8
	c-1.5,1.7-3.3,3.1-5.2,4.2c-0.3,0.2-0.6,0.3-0.9,0.4c-0.2,0.1-0.5,0.1-0.6-0.1c-0.2-0.2,0-0.4,0-0.6c0.5-1.2,1.2-2.4,2-3.5
	c1.2-1.7,2.1-3.5,3.4-5.1c0.2-0.3,0.4-0.6,0.6-0.9c0.2-0.4,0.1-1-0.3-1c-0.7-0.1-1.3,0-1.9,0.3c-0.8,0.5-1.7,0.8-2.6,1
	c-1.2,0.3-2.2,1.1-2.7,2.2c-0.9,1.6-1.8,3.2-2.5,4.8c0,0.1-0.1,0.2-0.2,0.3c-1,0.9-1.6,2-1.7,3.3c-0.2,1,0.3,1.9,1.2,2.4
	c1,0.4,2.1,0.4,3.1,0.1c1.7-0.7,3.4-1.6,4.8-2.8c0.9-0.7,1.9-1.3,2.9-2c0.1-0.1,0.3-0.3,0.4-0.1c0.1,0.2,0.1,0.3,0,0.5
	c-0.2,0.8,0.2,1.7,1.1,2c0.1,0,0.3,0.1,0.4,0.1c2.3-0.2,4.6-0.8,6.8-1.7C165.5,151.3,167.1,150.9,168.7,151z M116.3,151.8
	c1-2.4,2.4-4.4,3.4-6.7c0.5-1.1,1-2.2,1.5-3.2c0.3-0.6,0.1-0.8-0.7-0.7h-0.4c-1.3,0.3-2.5,0.7-3.7,1.2c-0.9,0.3-1.8,0.7-2.6,1.2
	c-0.3,0.1-0.5,0.3-0.7,0.6c-0.6,1.6-1.3,3.1-2.2,4.5c-1.5,2.7-2.9,5.5-4.1,8.4c-0.1,0.2-0.1,0.4-0.1,0.6c0.1,0.4-0.1,0.7-0.3,0.9
	c-0.2,0.2-0.4,0.7-0.1,0.8c0.8,0.3,0.3,0.5,0,0.7c-0.4,0.4-0.6,1-0.4,1.5c0.1,0.7,0.7,1.3,0.3,2.2c0,0,0.1,0.2,0.2,0.3
	c1.3,1.4,2.8,2.5,4.5,3.4c0.1-0.3,0-0.5-0.1-0.7c-0.4-1.2-0.6-2.4-0.4-3.6c0.3-1.3,0.8-2.6,1.5-3.7c1-1.6,1.9-3.3,2.7-5
	c0.3-0.8,1-1.3,1.8-1.3c3.1-0.5,6.2-1.4,9-2.7c3.2-1.1,6.2-2.8,8.9-4.8c1.2-0.8,1.9-2.1,2.2-3.5c0.3-1-0.1-2-0.9-2.7
	c-1.1-0.8-2.3-1.2-3.7-1.3c-2.7-0.2-5.3-0.2-8,0.1c-2.4,0.3-4.8,0.6-7.1,1.2c-3.5,0.9-6.9,2.2-10.1,3.8c-0.5,0.2-0.9,0.5-1.3,0.8
	c-0.1,0.1-0.3,0.2-0.2,0.4c0.4,0.1,0.8,0,1.1-0.1c1.9-0.5,3.6-1.5,5.5-2c2.6-0.7,5.2-1.2,7.8-1.4c1.5-0.1,3.1-0.1,4.7,0
	c0.7,0.1,1.3,0.2,1.9,0.4c1.7,0.5,2.8,1.6,1.9,3.6c-0.3,0.8-0.8,1.5-1.4,2.1c-1.2,1.2-2.5,2.2-4,2.9
	C120.7,151,118.5,151.6,116.3,151.8L116.3,151.8z M145.6,113.8c-2.2,0.1-4.4,0.7-6.4,1.7c-1.6,1.1-3.1,2.3-4.6,3.6
	c-0.3,0.3-0.4,0.6-0.5,1c-0.3,1.1,1.1,2.7,2.2,3.2c0.5,0.2,0.6,0.1,0.7-0.3c0.2-0.4,0-0.9,0.3-1.1c0.7-0.3,1-1,1.5-1.5
	s1.2-0.9,1.4-1.6c0-0.2,0.2-0.4,0.4-0.2s0.6,0.2,0.9,0.1c1.8-0.7,3.8-1,5.7-1c1.6,0,3.1,0.2,4.6,0.7c0.8,0.2,1.5,0.5,2.2,0.7
	c0.9,0.7,1.9,1.2,3.1,1.5c0.5,0,0.9,0.4,1,0.9c0.1,0.6,0.4,1.2,0.9,1.5c0.4,0.4,0.8,0.8,1.2,1.1c0.4,0.4,0.6,0.5,0.5,0.9
	c-0.3,0.9,0.3,1.8,0.3,2.7c-0.1,0.3,0.2,0.7,0.5,0.7c0,0,0,0,0,0c0.3,0.1,0.4,0.4,0.1,0.5c-0.6,0.3-0.6,0.7-0.6,1.2
	c0,0.5-0.1,1.3-0.2,1.9c0,0.2-0.1,0.5,0.1,0.6c1.3,1.1,2.8,0.7,3.2-0.5c0.4-1.2,1.1-2.1,0.3-3.3c0-0.1,0-0.2,0-0.3
	c0.5-2.5-0.8-4.6-1.8-6.7c-0.5-1-1.3-2-2.2-2.7c-1.4-1.1-2.7-2.7-4.5-3c-0.1,0-0.2-0.1-0.2-0.2c-0.2-0.6-0.7-0.7-1.2-0.9
	c-1.4-0.5-2.8-0.9-4.3-1.1C148.8,113.8,147.2,113.7,145.6,113.8L145.6,113.8z M141.5,156.3c-0.5,0.1-0.9,0.2-1.3,0.3
	c-1,0.1-1.3-0.3-1.1-1.3c0.1-0.9,0.4-1.8,0.7-2.6c0.4-0.8,0.7-1.7,1.1-2.5c0.6-1.4,1.4-2.7,2.2-4c0.3-0.3,0.5-0.6,0.7-1
	c0.9-1.6,1.8-3.2,2.9-4.7c0.8-1.1,1.4-2.3,1.9-3.6c0.1-0.4,0.5-0.8,0.2-1.1c-0.3-0.3-0.8-0.1-1.3,0c-1.3,0.4-2.6,0.9-3.8,1.5
	c-0.8,0.2-1.5,0.6-2.1,1.2c-1.2,1.5-2.2,3.1-3.1,4.9c-1,2-2.2,4-3.2,6c-1.1,2-1.8,4.3-2.1,6.5c-0.2,1.2,0.6,2.4,1.8,2.6
	c0.1,0,0.3,0,0.5,0c1.9-0.1,3.7-0.7,5.3-1.6C141.2,156.7,141.4,156.5,141.5,156.3L141.5,156.3z M145.1,123.9c0.6-0.5,1.3-0.8,2-1
	c3.8-0.7,6.5,0.9,8.7,3.9c0.4,0.6,0.7,1.3,0.7,2.1c0.1,0.5,0.2,1.1,0.3,1.6c0.1,0.3,0.3,0.5,0.7,0.6c0.3,0,0.3-0.4,0.4-0.6
	c0.6-2.9,0.3-5.7-2.1-7.7c-1-1-2.3-1.5-3.6-1.6c-0.1,0-0.3,0-0.4-0.2c-0.1-0.4-0.5-0.4-0.8-0.5c-1.8-0.3-3.7-0.3-5.5,0
	c-1,0-2,0.4-2.9,1c-0.3,0.2-0.6,0.3-0.5,0.8c0.1,0.4,0.1,0.7-0.4,0.6c-0.8-0.2-1,0.3-1.3,0.9c-0.3,0.6-0.4,1.2-0.4,1.9
	c0,0.5,0,1.1,0.5,1.3c0.6,0.2,1.2,0.1,1.7-0.3c0.3-0.3,0.7-0.4,1.1-0.2c0.6,0.3,1.4,0.1,1.8-0.5c0.6,0.6,1.4,1,2.2,0.9
	c0.2,0,0.5-0.2,0.6,0c0.3,0.6,0.9,0.6,1.3,0.9c0.3,0.1,0.7,0,0.9,0.3c0.8,0.8,1.9,1.2,2.7,2.1c0.1,0.1,0.2,0.3,0.4,0.2
	s0.1-0.3,0.2-0.4c0.2-1-0.2-2-0.9-2.7c-1-0.9-2.3-1.6-3.6-2C147.4,124.7,146.3,124.3,145.1,123.9L145.1,123.9z M175.1,129.8l1.1-0.1
	c0.6,0,1.1-0.4,1.1-1c0-0.7-0.5-0.8-1-1c-1.9-0.4-3.9-0.6-5.9-0.6c-1.2-0.1-2.3-0.1-3.5,0.1c-0.2,0-0.4,0-0.5,0.3
	c0,0.3,0.1,0.5,0.4,0.6C169.5,129.1,172.3,129.6,175.1,129.8L175.1,129.8z M131.7,110.7c-0.1,0.4,0.1,0.8,0.4,1.1
	c1.5,1.2,3.1,2.2,4.8,3.1c0.1,0,0.2,0,0.2,0c0.8,0.2,1.2-0.3,1-1c-0.1-0.7-0.5-1.2-0.9-1.7c-1-1-2-1.9-3.1-2.7
	c-0.6-0.5-1.5-0.5-2.1,0.1C131.8,109.9,131.6,110.3,131.7,110.7z M171.8,121.8c0.9,0,1.9-0.2,2.7-0.6c0.5-0.3,0.4-0.8,0.4-1.2
	c0-0.3-0.3-0.5-0.5-0.5c-2.7-0.3-5.5-0.1-8.1,0.7c-0.5,0.1-1,0.4-1.3,0.8c-0.1,0.1-0.2,0.3-0.1,0.5c0.1,0.3,0.3,0,0.4,0
	c0.7-0.2,1.5-0.2,2.3-0.1C169,121.5,170.5,121.7,171.8,121.8L171.8,121.8z M143.7,109c0-1.3-0.3-2.6-0.8-3.8
	c-0.1-0.5-0.7-0.8-1.2-0.7c-0.5,0.1-0.9,0.5-1,1c-0.2,0.9-0.2,1.8,0.1,2.7c0.4,1.3,1,2.5,1.3,3.8c0.1,0.4,0.5,0.4,0.7,0.4
	s0.4-0.2,0.5-0.5C143.5,111,143.6,110,143.7,109z M156.3,105.8c0-0.3,0-0.7-0.4-0.7c-0.4,0-1.3,0-1.7,0.6c-1.3,1.8-2.2,3.8-2.5,6
	c0,0.3-0.3,0.7,0.1,0.8c0.3,0.1,0.7-0.1,1-0.4c1-1.1,1.9-2.2,2.6-3.5C155.9,107.8,156.2,106.8,156.3,105.8L156.3,105.8z
	 M161.1,115.6c1.6-0.2,3.1-0.6,4.6-1.2c0.7-0.3,1.2-0.8,1.4-1.5c0.2-0.4,0.2-0.8-0.1-1.2c-0.3-0.4-0.7-0.3-1.1-0.1
	c-2,0.7-3.8,1.7-5.4,3.1c-0.2,0.1-0.5,0.3-0.4,0.5s0.4,0.3,0.7,0.3H161.1z M189.4,146.8c1.7-0.2,3.1-1.4,3.6-3
	c0.2-0.6-0.1-1.2-0.7-1.4c-0.1,0-0.2-0.1-0.4,0c-1.8,0.1-3.3,1.4-3.7,3.1c-0.1,0.6,0.2,1.2,0.8,1.3
	C189.1,146.8,189.3,146.8,189.4,146.8L189.4,146.8z"/>
<path class="st1" d="M22.1,182.8H5.5c-0.5,0-0.5-0.2-0.5-0.6C7.4,123.1,52.6,74.5,111.5,67.8c7-0.8,14-1,21-0.5
	c13.8,0.8,27.3,4,40,9.5c36.4,15.7,62.7,48.3,70.4,87.2c1.2,6,1.9,12.1,2.1,18.2c0,0.4,0.1,0.7-0.5,0.7h-16.6
	c-0.1-3.4-0.4-6.9-0.9-10.3c-0.7-5.1-1.8-10.1-3.3-15c-2.4-7.9-5.7-15.5-9.9-22.7c-4.2-7.2-9.3-13.8-15.1-19.7
	c-11.8-12.1-26.4-21.1-42.5-26.2c-4.2-1.3-8.5-2.4-12.8-3.2c-13.3-2.4-26.8-2.1-40,0.7c-7.4,1.6-14.7,4-21.5,7.2
	c-28.7,13.3-49.7,39-57,69.7C23.2,169.8,22.3,176.3,22.1,182.8z"/>
<path class="st2" d="M22.1,182.8c0.2-6.6,1.1-13.1,2.7-19.5c7.4-30.7,28.4-56.4,57-69.7c6.9-3.2,14.1-5.6,21.5-7.2
	c13.2-2.8,26.7-3.1,40-0.7c4.3,0.8,8.6,1.9,12.8,3.2c16.1,5.1,30.7,14.1,42.6,26.2c5.8,6,10.9,12.6,15.1,19.7
	c4.2,7.1,7.6,14.7,9.9,22.7c1.5,4.9,2.6,9.9,3.3,14.9c0.5,3.4,0.8,6.8,0.9,10.3c-2.4,0.1-4.7,0-7.1,0c0-2.5-0.2-4.9-0.6-7.4
	c-0.5-4.1-1.2-8.3-2.3-12.3c-1-3.9-2.3-7.8-3.8-11.6c-2.2-5.5-4.9-10.7-8-15.7c-1.3-2-2.7-4-4.1-5.9c-3-4.1-6.3-7.9-10-11.4
	c-3.9-3.9-8.3-7.5-12.9-10.6c-5.1-3.5-10.5-6.5-16.2-8.9c-4.1-1.8-8.3-3.2-12.6-4.4c-3.6-1-7.3-1.8-11-2.3c-2.3-0.3-4.6-0.6-7-0.8
	c-6.4-0.5-12.9-0.4-19.2,0.5c-17.3,2.1-33.7,9-47.4,19.8c-3,2.3-5.8,4.9-8.5,7.5c-3.3,3.3-6.4,6.9-9.2,10.7c-2.8,3.8-5.4,7.8-7.6,12
	c-2.4,4.5-4.5,9.2-6.1,14.1c-1.2,3.4-2.2,7-2.9,10.5c-0.4,2-0.8,4-1.1,6c-0.3,2-0.6,3.7-0.7,5.5c-0.2,1.6-0.3,3.2-0.3,4.7
	C26.8,182.9,24.5,182.9,22.1,182.8z"/>
<path class="st1" d="M63.3,150.3c-2.1,0.5-4,1.3-6.1,1.9c-3.8,1.2-7.5,2.5-11.4,3.5c-0.3,0.1-0.5,0.1-0.8,0c0.5-0.6,1-1.1,1.6-1.5
	c0.7-0.7,1.6-1.2,2.5-1.5c0.5-0.1,1-0.5,1.1-1.1c0-0.1,0.1-0.2,0.2-0.2c1.5-1,2.8-2.4,4.8-2.5c0.7-0.1,1.4-0.3,2.1-0.6
	c-0.8-0.1-1.7-0.1-2.5,0c0.5-0.6,1.1-1,1.8-1.3c1.9-0.7,3.9-1.2,5.9-1.7c3-0.6,5.9-1.4,8.8-2.3c0.9-0.3,1.7-0.8,2.4-1.3
	c1.7-1.2,3.2-2.5,4.8-3.9c0.4-0.4,0.9-0.7,1.5-1c0.7-0.3,1.1-1,1.7-1.5c2.2-2,4.6-3.9,7.1-5.5c2.1-1.3,3.8-3.1,5.8-4.5
	c2-1.4,3.9-3,5.9-4.5c2-1.5,4.3-3.3,6.5-4.9c1.3-0.9,2.4-2,3.7-2.8c2.3-1.3,4.2-3.2,6.8-4.1c2.5-0.9,5-1.6,7.6-2h0.4
	c-0.9,0.7-1.6,1.3-2.3,2c-1.7,1.3-3.3,2.9-4.7,4.6c-0.5,0.7-1.2,1.2-2,1.6c-0.5,0.3-1,0.6-1.5,0.9c0.2,0.2,0.4,0.1,0.5,0.2
	c0.1,0,0.5-0.1,0.6,0.1c0.1,0.3-0.2,0.5-0.4,0.7c-0.3,0.1-0.5,0.2-0.8,0.3c0.5,0.4,0.3,1-0.4,1.2c-0.7,0.3-1.3,0.7-1.9,1.2
	c0.1,0.2,0.3,0.1,0.5,0.1c0.5,0,0.6,0.2,0.3,0.7c-0.4,0.7-0.9,1.4-1.3,2.1c-0.3,0.5-0.9,0.5-1.3,0.9c0.7,0.1,0.6,0.4,0.3,0.8
	c-0.4,0.5-0.8,1.1-1.1,1.7c-0.3,0.7-0.6,1.5-1,2.1c-0.9,1.3-1.3,2.9-2.3,4.2c-0.5,0.9-1,1.9-1.3,2.9l3.5-0.5
	c2.5-0.4,4.9-0.9,7.4-1.2c2.3-0.3,4.5-0.6,6.8-1.2c1.3-0.3,2.7-0.2,3.9-0.5c0.4-0.1,0.8-0.1,1.2,0c0.6,0.1,1.1,0.1,1.6-0.2
	c0.9-0.4,1.9-0.6,3-0.6c1.2-0.1,2.3-0.5,3.5-0.7c1.4-0.2,2.8-0.4,4.4-0.7c-0.8,0.8-1.9,1.5-3,1.9c-0.9,0.5-1.9,0.7-3,0.5
	c-0.1,0-0.2,0-0.2,0c-0.6,0.7-1.3,0.4-2.1,0.3c-0.3-0.1-0.6,0-0.8,0.3c-0.7,0.7-1.7,1.1-2.7,1.2c-1,0.2-2,0.4-2.9,0.6
	c-0.5,0.2-1,0.1-1.3-0.2c-0.2-0.1-0.3-0.2-0.5,0c-0.7,0.7-1.7,1.1-2.7,1.1c-2.5,0.3-4.9,0.9-7.3,1.5c-3.4,0.7-6.9,1.6-10.3,2.4
	c-0.7,0.2-1,0.8-1.3,1.3c-0.5,0.9-0.6,1.9-1.7,2.4c-0.7,0.3-0.7,0.6-0.2,1.3c0.1,0.1,0.1,0.1,0.1,0.2c-0.2,0.8-0.5,1.6-1.1,2.2
	c-0.3,0.2-0.8,0.2-0.7,0.8c0,0.4-0.5,0.6-0.8,0.8s-0.5,0.2-0.5,0.5c0.1,0.3,0.4,0.2,0.6,0.2c0.2,0,0.6,0.1,0.4,0.4
	c-0.3,1.1-0.8,2.2-1.3,3.2c-0.8,1-0.9,2.2-1.6,3.3c-0.7,1-1,2.3-1.6,3.3c-0.5,0.9-0.7,1.9-0.6,2.8c0,0.7-0.2,1.3-0.3,2
	c0,1.1,0.4,1.6,1.5,1.6c1.4-0.2,2.9-0.6,4.2-1.1l0.6-0.2c0,0.3,0,0.5-0.2,0.7c-1.1,1.4-2.5,2.4-4.2,3c-0.3,0.1-0.5,0.2-0.8,0.3
	c-0.8,0.6-1.7,1.2-2.7,1.6c-0.9,0.4-1.8,0.8-2.8,1.1c-1.1,0.3-2.3,0.4-3.5,0.3c-1.4-0.3-2.6-1.2-3.3-2.5c-0.3-0.7-0.2-1.5,0.3-2
	c0.3-0.6,0.8-1.2,0.4-2c-0.1-0.2,0.1-0.4,0.1-0.7c0.7-1.8,1.5-3.6,2.4-5.3c1.1-2.3,1.7-5,3.2-7.1c1.2-1.7,1.7-3.8,2.9-5.4
	c0.9-1.6,1.8-3.2,2.9-4.7c-1,0.3-2,0.5-3,0.7c-1.7,0.1-3.1,1.2-4.8,1.5c-0.8,0.2-1.7,0.4-2.5,0.5c-0.6,0-1,0.5-1.5,0.6
	c-1.6,0.3-3.2,0.8-4.7,1.3c-0.8,0.2-1.6,0.1-2.3,0.7c-0.3,0.3-0.9,0.2-1.1-0.1c0-0.1-0.1-0.1-0.1-0.2c-0.2-0.3-0.3-0.3-0.5-0.1
	l-1.3,1.1c-0.4,0.3-0.9,0.6-1.4,0.8c-0.8,0.4-1.5,1-2.1,1.7c-1.2,1.1-2.3,2.3-3.5,3.5c-0.3,0.2-0.6,0.3-0.9,0.4
	c-0.9,0.3-1.3,1.1-2,1.7l0,0c0.5,0.9-0.4,1.1-0.8,1.5c-0.7,1-1.6,1.7-2.7,2.2c-0.4,0.1-0.6,0.4-0.7,0.7c-0.2,0.6-0.6,1.2-1.2,1.5
	c-1.5,1.2-2.8,2.7-4.3,4c-0.5,0.4-0.9,0.9-1.6,1c-0.1,0-0.2,0-0.2,0.2c0,0.6-0.4,0.6-0.8,0.8c-2.1,1.1-4.3,1.8-6.7,2.1
	c-0.6,0.1-1.1,0.2-1.6,0.5c0.1-0.6,0.4-1.2,0.9-1.6c2.5-2.3,4.6-5,7.2-7.2c2.1-1.8,4.2-3.7,6.3-5.5c1.4-1.3,3-2.5,4.5-3.6
	C61.8,151.6,62.6,151,63.3,150.3l0.2,0l0,0L63.3,150.3z M79.7,141.1l5.3-1.3c0.2,0,0.4-0.2,0.7,0c0.2,0.2,0.7,0.2,1.1,0
	c0.7-0.4,1.4-0.7,2.2-0.9c2.2-0.4,4.4-0.9,6.6-1.3c1-0.2,1.3-1,1.8-1.7c0.3-0.4,0.5-1,0.7-1.6c0.1-0.2,0.2-0.4,0.2-0.5
	c-0.5-0.4,0-0.6,0.1-0.8c0.9-1.2,1.8-2.4,2.5-3.7c2.1-3.2,4.2-6.5,6.4-9.7c0.3-0.4,0.5-0.8,0.7-1.2c-0.7,0.3-1.3,0.7-1.8,1.2
	c-3.1,2.3-6.2,4.5-9.1,7c-4.6,3.8-9.2,7.6-13.9,11.3c-1.3,1-2.6,2-3.7,3.2c0,0-0.2,0-0.1,0.2C79.5,141.3,79.6,141.2,79.7,141.1z"/>
<path class="st3" d="M146.3,166.7c-1.1,0-2.1,0.5-2.8,1.3c-0.2-0.7-0.5-0.5-0.9-0.3c-0.9,0.3-1.8,0.6-2.7,0.8
	c-0.9,0.2-1.7,0.5-2.5,0.9c-0.6,0.3-1.2,0-1.8,0.2s-0.8,0.7-1.3,0.8c-0.6,0.1-1.3-0.2-2.1,0c2.2-1,4.2-2.4,6.7-3
	c-0.3-0.4-0.6-0.1-0.8-0.1c-1.1,0.4-2.3,0.6-3.4,0.4c-0.7-0.1-1.4,0.1-2.1,0.4c-0.9,0.3-1.9,0.3-2.7,0.7c-0.8,0.4-1.4,0.2-2.1,0.4
	c-0.7,0.3-1.5,0.5-2.3,0.7c-0.8,0.1-1.5,0.4-2.3,0.5c-0.7,0.2-1.3,0.4-2,0.6c-1.3,0.3-2.5,0.7-3.7,1.2c-1,0.2-2,0.6-3,0.9
	c-0.2,0.1-0.5,0.1-0.7,0c-0.5-0.2-0.7,0-0.9,0.5c-0.2,0.2-0.5,0.3-0.7,0.3c-0.2-0.1-0.5-0.1-0.6,0c-0.7,0.8-1.8,0.5-2.7,1
	c-0.4,0.2-0.8,0.3-1.3,0.2c-0.2-0.1-0.4,0-0.5,0.2c-0.8,0.8-1.9,1.4-3.1,1.5c-1,0.1-1.7,0.6-2.7,0.6c-0.2,0-0.5,0-0.6-0.2
	c-0.1-0.2,0.2-0.4,0.3-0.5c0.2-0.1,0.3-0.2,0.4-0.3c2.2-1.4,4.6-2.6,7-3.6c1.9-0.9,4-1.4,5.9-2.2s4.4-1.3,6.5-2.5
	c0.3-0.2,0.7-0.3,1.1-0.3c1.4-0.2,2.7-0.6,4-1c1.8-0.5,3.7-0.9,5.5-1.3c2.3-0.6,4.6-1.1,6.9-1.6c1.9-0.4,3.8-0.9,5.7-1.3
	c0.9-0.2,1.8-0.1,2.7-0.4c1.7-0.5,3.3-0.9,5-1.2c2.3-0.5,4.6-0.8,6.9-1.3c2.5-0.6,5.1-1.1,7.7-1.5c1.6-0.2,3.2-0.5,4.7-0.8
	c1.9-0.4,3.8-0.7,5.8-0.8c2.5-0.4,5-0.6,7.5-0.7c1.5-0.1,2.9-0.1,4.4,0c0.3,0,0.6-0.1,0.9-0.2c1.5-0.9,2.1-0.2,3.4,0.8
	c0.1,0.1,0.2,0.3,0.3,0.3c1.2,0,1.8,1,2.7,1.5c0.9,0.5,1.3,1.1,2.1,1.6c0.4,0.3,0.1,1.2-0.4,1.6c-1.1,0.8-2.5,1.1-3.9,0.8
	c-1.8-0.1-3.6-0.2-5.3-0.2c-1.5,0-3.1,0.2-4.6,0.2c-1.8,0-3.6,0.1-5.3,0.2c-2.2,0.1-4.4,0.3-6.5,0.5c-2.8,0.3-5.6,0.5-8.4,1
	c-2.1,0.3-4.3,0.7-6.3,1.3c-0.3,0.1-0.5,0.1-0.8,0.1c-1.5-0.1-2.9,0.1-4.3,0.6c-2.4,0.6-4.9,1.1-7.2,2c-0.1,0.1-0.3,0.1-0.4,0
	l1.6-0.8c0.5,0,1-0.1,1.3-0.5C147.2,166.3,146.7,166.3,146.3,166.7z"/>
<path class="st4" d="M168.7,151c-1.6-0.1-3.1,0.3-4.5,1.1c-2.2,0.9-4.5,1.5-6.8,1.7c-0.9,0-1.6-0.7-1.6-1.6c0-0.1,0-0.3,0.1-0.4
	c0.1-0.2,0.1-0.3,0-0.5c-0.2-0.2-0.3,0-0.4,0.1c-1,0.6-2,1.3-2.9,2c-1.4,1.2-3,2.2-4.8,2.8c-1,0.3-2.1,0.2-3.1-0.1
	c-0.9-0.5-1.4-1.4-1.2-2.4c0.1-1.3,0.7-2.5,1.7-3.3c0.1-0.1,0.2-0.2,0.2-0.3c0.8-1.6,1.6-3.2,2.5-4.8c0.5-1.1,1.5-1.9,2.7-2.2
	c0.9-0.2,1.8-0.5,2.6-1c0.6-0.3,1.3-0.4,1.9-0.3c0.5,0,0.5,0.6,0.3,1c-0.2,0.3-0.3,0.6-0.6,0.9c-1.3,1.6-2.2,3.4-3.4,5.1
	c-0.8,1.1-1.5,2.2-2,3.5c-0.1,0.2-0.2,0.4,0,0.6c0.2,0.2,0.4,0.2,0.6,0.1c0.3-0.1,0.6-0.2,0.9-0.4c1.9-1.2,3.7-2.6,5.2-4.2
	c1-1.1,1.9-2.4,2.4-3.8c0.5-1.4,1.6-2.5,3.1-2.9c1.2-0.5,2.3-1.2,3.6-1.6c0.6-0.2,1.2-0.3,1.7-0.2c0.3,0.1,0.4,0.2,0.3,0.6
	c-0.8,1.9-1.8,3.8-2.9,5.5c-0.7,1.4-1.4,2.8-2.3,4.2c-0.2,0.3-0.4,0.7-0.2,1c0.2,0.3,0.6,0.1,0.9,0.1c1.1-0.2,2.1-0.5,3.1-1
	c0.2,0,0.4-0.1,0.4-0.3c0-0.8,0.6-0.9,1.1-1.1c1.8-1,3.8-1.7,5.9-1.9c0.1,0,0.3-0.1,0.4-0.1c0.3,0,0.6-0.3,0.9,0
	c0.2,0.3-0.2,0.5-0.3,0.7c-0.1,0.2-0.2,0.6,0.3,0.6c1.4,0.1,2.7-0.2,4-0.8c0.4-0.2,0.6-0.5,0.7-0.9c0.1-0.4-0.4-0.6-0.7-0.7
	c-1.6-0.7-3.3-1-5.1-0.9c-1.3,0.1-2.8,0-4.1,0c-0.5,0-1.2,0-1.4-0.6c-0.2-0.6,0.2-1.2,0.6-1.7c1.3-1.4,2.9-2.5,4.6-3.2
	c1.3-0.7,2.6-1.3,4-1.8c0.5-0.1,1-0.3,1.5-0.5c3.9-1,7.7-2.4,11.8-2.8c0.3-0.1,0.6-0.1,0.8,0c0.4,0.1,0.6,0.4,0.8,0.7
	c0.1,0.4-0.3,0.5-0.5,0.7c-1.4,1.1-3,2-4.7,2.7c-0.7,0.3-1.6,0.2-2.3,0.6c-0.1,0.1-0.3,0.1-0.4-0.1c-0.2-0.2,0-0.3,0.1-0.5
	c0.1-0.1,0.5-0.4,0.3-0.7s-0.5-0.2-0.8-0.1c-2.3,0.3-4.5,1-6.5,2.3c-0.2,0.1-0.4,0.3-0.6,0.5c-0.1,0.2-0.3,0.6,0.3,0.6
	c1.8,0.2,3.5,0.2,5.3,0.3c1.5,0,3,0.5,4.2,1.5c0.4,0.3,0.6,0.9,0.4,1.3c-0.3,0.8-0.8,1.4-1.4,1.9c-3,2.1-6.4,3.4-10,3.8
	C173.3,150.5,171,150.8,168.7,151z"/>
<path class="st4" d="M116.3,151.8c2.3-0.2,4.4-0.9,6.4-2c1.5-0.8,2.8-1.8,4-2.9c0.6-0.6,1.1-1.3,1.4-2.1c0.9-2-0.2-3.1-1.9-3.6
	c-0.6-0.2-1.3-0.3-1.9-0.4c-1.5-0.1-3.1-0.1-4.7,0c-2.6,0.2-5.2,0.7-7.8,1.5c-1.9,0.5-3.7,1.4-5.5,2c-0.3,0.2-0.7,0.2-1.1,0.1
	c-0.1-0.3,0.1-0.3,0.2-0.4c0.4-0.3,0.9-0.6,1.3-0.8c3.2-1.7,6.6-3,10.1-3.8c2.3-0.5,4.7-0.9,7.1-1.2c2.7-0.3,5.3-0.3,8-0.1
	c1.3,0.1,2.6,0.5,3.7,1.3c0.8,0.6,1.2,1.7,0.9,2.7c-0.2,1.4-1,2.7-2.2,3.5c-2.7,2.1-5.7,3.8-8.8,5c-2.9,1.3-5.9,2.2-9,2.7
	c-0.8,0-1.6,0.6-1.8,1.3c-0.8,1.7-1.7,3.4-2.7,5c-0.7,1.1-1.3,2.4-1.5,3.7c-0.2,1.2,0,2.5,0.4,3.6c0.1,0.2,0.3,0.4,0.1,0.7
	c-1.7-0.9-3.2-2-4.5-3.4c-0.1-0.1-0.2-0.3-0.2-0.3c0.4-0.8-0.1-1.5-0.3-2.2c-0.2-0.5-0.1-1.2,0.4-1.5c0.2-0.2,0.7-0.5,0-0.7
	c-0.3-0.1,0-0.6,0.1-0.8c0.3-0.2,0.4-0.6,0.3-0.9c0-0.2,0-0.4,0.1-0.6c1.2-2.9,2.6-5.7,4.1-8.4c0.9-1.4,1.6-2.9,2.2-4.5
	c0.1-0.3,0.4-0.5,0.7-0.6c0.8-0.5,1.7-0.9,2.6-1.2c1.2-0.5,2.5-0.8,3.7-1.2h0.4c0.8,0,1,0.1,0.7,0.7c-0.5,1.1-1.1,2.1-1.5,3.2
	C118.7,147.5,117.2,149.4,116.3,151.8z"/>
<path class="st1" d="M145.6,113.8c1.6-0.2,3.2-0.1,4.7,0.4c1.4,0.3,2.9,0.6,4.3,1.1c0.5,0.2,1,0.3,1.2,0.9c0,0.1,0.1,0.1,0.2,0.2
	c1.9,0.4,3.1,1.8,4.5,3c0.9,0.7,1.7,1.6,2.2,2.7c1,2.1,2.3,4.2,1.8,6.7c0,0.1,0,0.2,0,0.3c0.8,1.2,0,2.2-0.3,3.3s-1.9,1.5-3.2,0.5
	c-0.2-0.2-0.2-0.4-0.1-0.6c0.1-0.6,0.2-1.3,0.2-1.9c0-0.6,0-0.9,0.6-1.2c0.3-0.1,0.3-0.4-0.1-0.5c-0.3-0.1-0.6-0.4-0.5-0.7
	c0,0,0,0,0,0c0-0.9-0.6-1.7-0.3-2.7c0.1-0.4-0.2-0.7-0.5-0.9c-0.3-0.3-0.8-0.7-1.2-1.1c-0.5-0.4-0.8-0.9-0.9-1.5
	c0-0.5-0.5-0.9-1-0.9c-1.1-0.3-2.2-0.8-3.1-1.5c-0.7-0.3-1.5-0.5-2.2-0.7c-1.5-0.5-3-0.7-4.6-0.7c-2,0-3.9,0.3-5.7,1
	c-0.3,0.1-0.6,0.3-0.9-0.1c-0.3-0.4-0.4,0-0.4,0.2c-0.2,0.8-0.9,1.2-1.4,1.6c-0.6,0.5-0.9,1.1-1.5,1.5c-0.3,0.2-0.1,0.7-0.3,1.1
	c-0.2,0.4-0.3,0.6-0.7,0.3c-1-0.5-2.4-2-2.2-3.2c0-0.4,0.2-0.7,0.5-1c1.4-1.3,2.9-2.5,4.6-3.6C141.2,114.5,143.4,113.9,145.6,113.8z
	"/>
<path class="st4" d="M141.5,156.2c-0.1,0.3-0.3,0.5-0.5,0.6c-1.6,0.9-3.5,1.5-5.3,1.6c-1.2,0-2.3-1-2.3-2.2c0-0.2,0-0.3,0-0.5
	c0.3-2.3,1-4.5,2.1-6.5c1-2.1,2.1-4,3.2-6c0.8-1.7,1.9-3.4,3.1-4.9c0.6-0.6,1.3-1,2.1-1.2c1.2-0.6,2.5-1.1,3.8-1.5
	c0.4-0.1,1-0.3,1.3,0c0.3,0.3,0,0.7-0.2,1.1c-0.5,1.3-1.2,2.5-1.9,3.6c-1.1,1.5-2,3.1-2.9,4.7c-0.2,0.3-0.4,0.7-0.7,1
	c-0.8,1.3-1.5,2.6-2.2,4c-0.4,0.8-0.8,1.7-1.1,2.5c-0.3,0.8-0.6,1.7-0.7,2.6c-0.2,1,0.2,1.4,1.1,1.3
	C140.7,156.5,141,156.3,141.5,156.2z"/>
<path class="st1" d="M145.1,123.9c1.2,0.4,2.3,0.8,3.4,1.2c1.3,0.4,2.5,1.1,3.6,2c0.8,0.7,1.1,1.7,0.9,2.7c0,0.1-0.1,0.3-0.2,0.4
	c-0.1,0.1-0.3-0.1-0.4-0.2c-0.7-0.9-1.8-1.3-2.7-2.1c-0.2-0.2-0.6-0.1-0.9-0.3c-0.5-0.3-1.1-0.3-1.3-0.9c-0.1-0.2-0.4,0-0.6,0
	c-0.8,0.1-1.7-0.2-2.2-0.9c-0.4,0.6-1.1,0.8-1.8,0.5c-0.4-0.2-0.8-0.1-1.1,0.2c-0.5,0.4-1.1,0.5-1.7,0.3c-0.5-0.2-0.5-0.8-0.5-1.3
	c0-0.6,0.1-1.3,0.4-1.9c0.3-0.6,0.5-1,1.3-0.9c0.5,0.1,0.5-0.3,0.4-0.6c-0.1-0.4,0.1-0.5,0.5-0.8c0.8-0.6,1.9-1,2.9-1
	c1.8-0.3,3.7-0.3,5.5,0c0.3,0.1,0.7,0,0.8,0.5c0,0.2,0.2,0.2,0.4,0.2c1.4,0.1,2.7,0.6,3.6,1.6c2.4,2,2.8,4.8,2.1,7.7
	c0,0.2,0,0.6-0.4,0.6c-0.3,0-0.6-0.2-0.7-0.6c-0.2-0.5-0.3-1-0.3-1.6c0-0.7-0.2-1.5-0.7-2.1c-2.2-3-4.8-4.6-8.7-3.9
	C146.4,123,145.7,123.4,145.1,123.9z"/>
<path class="st1" d="M175.1,129.8c-2.8-0.2-5.6-0.7-8.2-1.7c-0.3-0.1-0.4-0.3-0.4-0.6c0-0.3,0.3-0.2,0.5-0.3
	c1.2-0.2,2.3-0.3,3.5-0.1c2,0,3.9,0.2,5.9,0.6c0.5,0.1,1,0.3,1,1c0,0.7-0.5,1-1.1,1L175.1,129.8z"/>
<path class="st1" d="M131.7,110.7c0-0.8,0.6-1.5,1.4-1.5c0.4,0,0.7,0.1,1,0.4c1.1,0.8,2.1,1.7,3.1,2.7c0.5,0.5,0.8,1.1,0.9,1.7
	c0.2,0.7-0.2,1.1-1,1c-0.1,0-0.2,0-0.2,0c-1.7-0.8-3.3-1.9-4.8-3.1C131.7,111.7,131.6,111.2,131.7,110.7z"/>
<path class="st1" d="M171.8,121.8c-1.3-0.1-2.8-0.3-4.3-0.5c-0.8-0.1-1.5,0-2.3,0.1c-0.1,0-0.3,0.3-0.4,0c-0.1-0.2,0-0.4,0.1-0.5
	c0.4-0.4,0.8-0.6,1.3-0.8c2.6-0.7,5.4-1,8.1-0.7c0.3,0,0.5,0.2,0.5,0.5c0.1,0.5,0.1,0.9-0.4,1.2
	C173.7,121.7,172.8,121.9,171.8,121.8z"/>
<path class="st1" d="M143.7,109c0,1-0.2,1.9-0.4,2.9c0,0.3-0.2,0.5-0.5,0.5c-0.3,0-0.6,0-0.7-0.4c-0.3-1.3-1-2.5-1.3-3.8
	c-0.3-0.9-0.3-1.8-0.1-2.7c0.1-0.5,0.5-0.9,1-1c0.5-0.1,1,0.2,1.2,0.7C143.4,106.4,143.7,107.7,143.7,109z"/>
<path class="st1" d="M156.3,105.8c-0.1,1-0.5,2-0.9,2.9c-0.7,1.3-1.6,2.4-2.6,3.5c-0.3,0.3-0.6,0.5-1,0.4c-0.4-0.2-0.1-0.5-0.1-0.8
	c0.3-2.2,1.2-4.2,2.5-6c0.4-0.6,1.1-0.6,1.7-0.6C156.5,105.1,156.3,105.5,156.3,105.8z"/>
<path class="st1" d="M161.1,115.5h-0.4c-0.3,0-0.6,0-0.7-0.3c-0.1-0.3,0.3-0.4,0.4-0.5c1.6-1.4,3.4-2.4,5.4-3.1
	c0.4-0.1,0.8-0.2,1.1,0.1c0.2,0.3,0.3,0.8,0.1,1.2c-0.2,0.7-0.7,1.2-1.4,1.5C164.2,115,162.7,115.4,161.1,115.5z"/>
<path class="st4" d="M189.4,146.8c-0.6,0.1-1.1-0.3-1.2-0.9c0-0.1,0-0.3,0-0.4c0.4-1.7,1.9-3,3.7-3.1c0.6,0,1.1,0.5,1.1,1.1
	c0,0.1,0,0.2,0,0.4C192.5,145.4,191.1,146.6,189.4,146.8z M189.4,146.5c1.6-0.2,2.8-1.3,3.3-2.8c0.1-0.6-0.3-1-0.9-1
	c-1.5,0.2-2.7,1.3-3.2,2.7C188.4,146.1,188.7,146.5,189.4,146.5L189.4,146.5z"/>
<path class="st0" d="M79.5,141c1.2-1.1,2.4-2.2,3.7-3.2c4.7-3.7,9.3-7.5,13.9-11.3c3-2.4,6.1-4.7,9.1-7c0.5-0.5,1.1-0.9,1.8-1.2
	c-0.1,0.5-0.3,0.9-0.7,1.2c-2.3,3.2-4.3,6.5-6.4,9.7c-0.8,1.3-1.6,2.6-2.6,3.8c-0.2,0.2-0.6,0.4-0.1,0.8c0,0-0.1,0.3-0.2,0.5
	c-0.3,0.5-0.5,1.1-0.7,1.6c-0.4,0.7-0.9,1.5-1.8,1.7c-2.2,0.4-4.4,0.9-6.6,1.3c-0.8,0.2-1.5,0.5-2.2,0.9c-0.4,0.2-0.8,0.3-1.1,0
	c-0.4-0.3-0.4,0-0.7,0l-5.3,1.3L79.5,141z"/>
<path class="st0" d="M79.7,141.1c0,0.1-0.2,0.2-0.2,0.1c-0.1-0.1,0.1-0.1,0.1-0.2L79.7,141.1z"/>
<path class="st0" d="M63.3,150.3l0.2-0.1l0,0L63.3,150.3z"/>
<path class="st0" d="M146.3,166.7c0.4-0.4,0.9-0.3,1.3-0.5C147.3,166.6,146.8,166.7,146.3,166.7L146.3,166.7z"/>
<path class="st0" d="M189.4,146.5c-0.7,0-1-0.4-0.8-1.1c0.5-1.4,1.7-2.4,3.2-2.7c0.7,0,1,0.3,0.9,1
	C192.2,145.2,190.9,146.3,189.4,146.5z M189,146c0.6,0,0.6-0.5,0.7-0.8s0.2-0.4,0.5-0.4c0.3,0,0.2,0.3,0.3,0.5s0,0.4,0.3,0.4
	c0.3,0,0.3-0.2,0.2-0.4c-0.2-0.5,0-0.7,0.4-0.9c0.2-0.1,0.3-0.3,0.4-0.5c0.1-0.2,0.3-0.4,0.1-0.6c-0.2-0.2-0.3-0.1-0.5-0.1
	c-0.7,0.1-1.3,0.2-1.6,1C189.5,144.9,189.3,145.4,189,146L189,146z"/>
<path class="st4" d="M189,146c0.3-0.5,0.6-1.1,0.8-1.7c0.3-0.8,0.9-1,1.6-1c0.2,0,0.4,0,0.5,0.1c0.1,0.1,0,0.4-0.1,0.6
	c-0.1,0.2-0.2,0.3-0.4,0.5c-0.4,0.2-0.6,0.4-0.4,0.9c0.1,0.2,0.1,0.4-0.2,0.4s-0.2-0.2-0.3-0.4c-0.1-0.1,0-0.5-0.3-0.5
	c-0.3,0-0.4,0.2-0.5,0.4C189.6,145.4,189.6,145.9,189,146z M190.2,144.4c0.5,0,0.9-0.1,1.2-0.6c0-0.1,0-0.2-0.1-0.2c0,0-0.1,0-0.1,0
	C190.7,143.7,190.3,143.7,190.2,144.4L190.2,144.4z"/>
<path class="st0" d="M190.2,144.4c0-0.7,0.5-0.8,1-0.8c0.1,0,0.2,0.1,0.2,0.2c0,0,0,0.1,0,0.1C191.1,144.3,190.7,144.4,190.2,144.4z
	"/>
</svg>
