<?xml version="1.0" encoding="utf-8"?>
<!-- Generator: Adobe Illustrator 21.1.0, SVG Export Plug-In . SVG Version: 6.00 Build 0)  -->
<svg version="1.1" id="Layer_1" xmlns="http://www.w3.org/2000/svg" xmlns:xlink="http://www.w3.org/1999/xlink" x="0px" y="0px"
	 viewBox="0 0 250 250" style="enable-background:new 0 0 250 250;" xml:space="preserve">
<style type="text/css">
	.st0{fill:#05631F;}
	.st1{fill:#FCFCFC;}
	.st2{fill:#FAFDF8;}
	.st3{fill:#0C5E29;}
	.st4{fill:#17652B;}
	.st5{fill:#91B21B;}
	.st6{fill:#586977;}
	.st7{fill:#6D6F76;}
	.st8{fill:#055C2F;}
</style>
<title>Grocery</title>
<path class="st0" d="M34.2,152.2l-12.9-68l-12-2.4l-0.2-0.1c-2-1.3-3.4-3.4-3.6-5.7c0-2.2,0.8-4.4,2.4-5.9l0,0H8
	c1-0.6,2.2-0.9,3.3-0.9c0.8,0,1.5,0.1,2.3,0.3l10.3,2.1l2.9,0.8c2.2,0.7,2.5,3.7,2.5,4.3l6.8,35.7l55.3,10.9l-5.8,40.2L34.2,152.2z"
	/>
<path class="st1" d="M11.4,69.9c0.7,0,1.4,0.1,2.1,0.2l10.3,2.1l2.9,0.8c1.7,0.5,1.9,3.6,1.9,3.6l6.9,36.3l55,10.9l-5.5,38.5
	L35,151.5l-12.9-68L9.6,81C3,76.1,8.5,70.6,8.5,70.6C9.4,70.1,10.4,69.9,11.4,69.9 M11.4,68.2c-1.3,0-2.7,0.3-3.8,1l-0.1,0.1
	l-0.1,0.1c-1.8,1.8-2.7,4.2-2.7,6.7c0.3,2.6,1.8,5,4,6.4l0.3,0.2l0.4,0.1L20.6,85l12.7,66.8l0.2,1.1l1.1,0.2l49.9,10.9l1.8,0.4
	l0.3-1.9l5.6-38.4l0.2-1.6l-1.6-0.3l-53.9-10.7l-6.7-35.1c0-0.8-0.5-4.2-3.1-5l0,0l-2.9-0.8h-0.1l-10.2-2.1
	C13.1,68.3,12.2,68.2,11.4,68.2L11.4,68.2z"/>
<polygon class="st2" points="38.4,126 49.4,128.3 59.6,129.5 77.9,133.7 74.5,149.8 73.3,149.4 73.2,150.7 41.6,143.7 "/>
<ellipse class="st3" cx="42.6" cy="164.4" rx="8.7" ry="10.4"/>
<path class="st1" d="M42.6,175.5c-5.1,0-9.3-5-9.3-11s4.1-11,9.3-11s9.3,5,9.3,11S47.7,175.5,42.6,175.5z M42.6,154.6
	c-4.4,0-8,4.4-8,9.8s3.6,9.8,8,9.8s8-4.4,8-9.8S47,154.6,42.6,154.6L42.6,154.6z"/>
<ellipse class="st4" cx="76" cy="171.4" rx="8.5" ry="9.8"/>
<path class="st1" d="M76,181.8c-5,0-9.1-4.7-9.1-10.4c0-5.7,4.1-10.4,9.1-10.4s9.1,4.7,9.1,10.4C85.1,177.2,81.1,181.8,76,181.8z
	 M76,162.3c-4.4,0-7.9,4.1-7.9,9.2c0,5,3.5,9.2,7.9,9.2s7.9-4.1,7.9-9.2C83.9,166.4,80.4,162.3,76,162.3z"/>
<path class="st5" d="M55.9,142.7l-13.5-3c0,0,12.9-66.8,55.9-64.7l-11.2,77.9l-13.8-3.3l2.7-15.3l-17-4.4L55.9,142.7z"/>
<path class="st1" d="M87.8,153.8l-15.6-3.7l2.7-15.3l-15.4-4l-3,12.8l-15.1-3.5l0.2-0.8c2.5-11.6,6.5-22.8,11.9-33.4
	c5-9.6,10.9-17.3,17.3-22.6c7.6-6.5,17.4-9.9,27.5-9.4h0.9L87.8,153.8z M74.3,148.9l12.1,2.8l10.9-76c-17-0.4-31.2,10-42.3,31.1
	c-5.2,10.2-9,20.9-11.6,32l11.8,2.7l3-12.9l18.7,4.8L74.3,148.9z"/>
<path class="st6" d="M76.4,120.1l-8.4-1.9c0,0,2.1-7.2,10.4-13.3L76.4,120.1z"/>
<path class="st1" d="M76.9,121l-9.8-2.2l0.2-0.7c0.1-0.3,2.3-7.4,10.7-13.7l1.3-1L76.9,121z M68.9,117.7l6.8,1.5l1.7-12.8
	C73.8,109.4,70.8,113.3,68.9,117.7L68.9,117.7z"/>
<path class="st6" d="M43.9,129.5l-3-0.6l1.5,7.9C43.2,134.4,43.7,132,43.9,129.5z"/>
<path class="st0" d="M86.4,151.7l-46.8-10.8l-1.2,6.1c0,0,10.4,4.4,11.2,3.8c0.8-0.6,33.9,6.8,33.9,6.8l2.3-1L86.4,151.7z"/>
<polygon class="st7" points="59.2,130.1 56.5,141.8 73.7,146.1 75.6,134.4 60.2,130.4 "/>
<path class="st8" d="M196.9,114.9c0-6.4,0-12.7,0-19.1c0-1.3,0-1.3,1.3-1.3c3.1,0,6.2,0.1,9.2,0c6.2-0.2,9.7,3.9,10.9,8.9
	c0.9,3.4,0.7,7.1-0.5,10.4c-0.5,1.3-1.2,2.5-2,3.6c-0.6,0.7-0.7,1.6-0.5,2.5c1.3,4.6,2.7,9.2,4,13.7c0.5,1.7,0.5,1.7-1.3,1.7
	c-2.1,0-4.1,0-6.2,0c-0.6,0.1-1.2-0.3-1.3-0.9c-1.3-4-2.6-8-3.8-12.1c-0.1-0.3-0.1-0.6-0.1-0.9c0-2.8,0-5.6,0-8.4
	c0-1.1,0.1-1.1,1.2-1.3c1.7-0.5,2.8-2.3,2.3-4c-0.2-0.8-0.7-1.4-1.4-1.9c-1-0.3-2-0.5-3-0.4c-0.6,0-0.6,0.6-0.6,1.1c0,2.7,0,5.3,0,8
	c0,6.5,0,13,0,19.6c0,1.3-0.1,1.3-1.3,1.3h-5.9c-1.2,0-1.2,0-1.2-1.2c0-5.1,0-10.1,0-15.2c0-1.3,0-2.7,0-4L196.9,114.9z"/>
<path class="st1" d="M211.8,135.8c-0.7,0-1.4-0.5-1.5-1.2l-1.6-5l-2.2-7.1c-0.1-0.3-0.1-0.6-0.1-1c0-2.7,0-5.5,0-8.4
	c0-1.2,0.2-1.3,1.3-1.7h0.1c0.6-0.2,1.1-0.5,1.5-1c0.5-0.7,0.7-1.7,0.4-2.5c-0.1-0.7-0.5-1.3-1.1-1.7c-0.8-0.3-1.7-0.4-2.5-0.4h-0.3
	c-0.1,0-0.1,0-0.1,0s-0.1,0.5-0.1,0.7c0,2.7,0,5.3,0,8c0,6.5,0,13,0,19.6c0,0.7,0,1.1-0.3,1.3c-0.3,0.3-0.7,0.3-1.3,0.3H198
	c-0.6,0-1,0-1.3-0.3c-0.3-0.3-0.3-0.7-0.3-1.3c0-3.6,0-7.1,0-10.7v-4.5c0-0.9,0-1.8,0-2.8v-1.6l0,0V110c0-4.7,0-9.4,0-14.1
	c0-1.5,0.2-1.7,1.7-1.7h3c2,0,4.1,0,6.2,0c5.6-0.2,9.8,3.2,11.2,9.2c0.9,3.5,0.7,7.2-0.5,10.7c-0.5,1.3-1.2,2.5-2,3.7
	c-0.5,0.6-0.7,1.4-0.4,2.2c1.1,3.7,2.2,7.5,3.3,11.1l0.8,2.7c0.3,0.9,0.4,1.4,0.1,1.8c-0.3,0.4-0.8,0.4-1.7,0.4h-2.5
	C214.4,135.8,213.1,135.8,211.8,135.8L211.8,135.8z M205.8,105.1h0.3c1-0.1,1.9,0.1,2.8,0.4c0.8,0.4,1.4,1.2,1.5,2.1
	c0.3,1.1,0.1,2.2-0.6,3.1c-0.5,0.6-1.1,1.1-1.9,1.3h-0.1c-0.3,0-0.5,0.1-0.7,0.3c-0.1,0.2-0.1,0.5-0.1,0.7c0,3,0,5.7,0,8.4
	c0,0.3,0,0.5,0.1,0.8l2.2,7.1l1.6,5c0.1,0.4,0.5,0.7,0.9,0.7c0,0,0,0,0,0c1.2,0,2.5,0,3.7,0h2.5c0.4,0,0.8,0,1.2-0.1
	c0-0.4-0.1-0.8-0.3-1.2l-0.8-2.7c-1.1-3.7-2.2-7.4-3.3-11.1c-0.3-0.9-0.1-2,0.5-2.8c0.8-1.1,1.5-2.3,2-3.5c1.2-3.3,1.4-6.9,0.5-10.2
	c-0.6-2.7-2.9-8.9-10.5-8.6c-2.1,0.1-4.2,0-6.2,0h-3c-0.3,0-0.6,0-0.9,0.1c-0.1,0.3-0.1,0.6-0.1,0.9c0,4.7,0,9.4,0,14.1v5.3l0,0v0.9
	c0,0.9,0,1.8,0,2.8v4.5c0,3.6,0,7.1,0,10.7c0,0.3,0,0.5,0.1,0.8c0.3,0,0.5,0,0.8,0h5.9c0.3,0,0.6,0,0.9-0.1c0.1-0.3,0.1-0.6,0.1-0.9
	c0-6.5,0-13,0-19.6c0-2.7,0-5.3,0-8c-0.1-0.4,0.1-0.8,0.3-1.2C205.4,105.1,205.6,105.1,205.8,105.1L205.8,105.1z"/>
<path class="st8" d="M243.7,119.9c0,4.8,0,9.6,0,14.3c0,0.8-0.3,1.1-1.1,1.1c-2.1,0-4.2,0-6.4,0c-0.8,0-1.1-0.3-1.1-1.1
	c0-6.1,0-12.2,0-18.3c0-2.8,0-5.6-0.1-8.4c0-1.4-0.7-2-1.9-2.1c-0.8,0-1.5,0.5-1.6,1.3c-0.2,0.8-0.4,1.7-0.4,2.5c-0.1,1.5,0,3,0,4.4
	c0,1.1,0.3,1.3,1.3,1.3s1.1,0,1.1,1.2c0,2.7,0,5.3,0,8c0,1.2-0.1,1.3-1.3,1.3c-0.9,0-1.2,0.3-1.2,1.3c0,2.4,0,4.8,0,7.2
	c0,1.1-0.1,1.3-1.3,1.3c-2.1,0-4.2,0-6.4,0c-0.7,0-1-0.3-1-1c0-8.8,0-17.6,0-26.4c0-3.2,0.7-6.3,2.2-9.1c2.1-4.2,7-6.3,11.5-5.1
	c3.7,0.8,5.5,3.4,6.5,6.8c0.7,2.6,1.1,5.3,1,8.1c0,3.8,0,7.5,0,11.3L243.7,119.9z"/>
<path class="st1" d="M236.2,135.8c-0.4,0-0.8-0.1-1.1-0.3c-0.3-0.3-0.4-0.7-0.4-1.1c0-6.8,0-12.8,0-18.3c0-2.5,0-5.5-0.1-8.4
	c0-1.1-0.5-1.7-1.5-1.7c-0.4,0-1,0.1-1.3,1.1c-0.2,0.8-0.4,1.6-0.4,2.5c0,1.1,0,2.2,0,3.2c0,0.4,0,0.8,0,1.2c0,0.9,0.1,1,1,1
	c1.3,0,1.5,0.2,1.5,1.5c0,1.9,0,3.8,0,5.6v2.4c0,1.4-0.3,1.7-1.7,1.7c-0.7,0-0.9,0.2-0.9,0.9c0,2.3,0,4.7,0,7.2
	c0,1.3-0.3,1.6-1.6,1.6h-6.4c-0.4,0-0.7-0.1-1-0.3c-0.2-0.3-0.4-0.6-0.3-1c0-2.9,0-5.8,0-8.7c0-5.8,0-11.8,0-17.8
	c0-3.2,0.7-6.4,2.2-9.3c2.2-4.4,7.2-6.6,11.9-5.3c3.4,0.7,5.5,3,6.7,7c0.7,2.7,1.1,5.4,1,8.2c0,2.7,0,5.3,0,7.9c0,1,0,2,0,3l0,0v0.3
	c0,1.2,0,2.4,0,3.6c0,3.5,0,7.2,0,10.7c0.1,0.7-0.3,1.3-1,1.5c-0.2,0-0.3,0-0.5,0c-2,0-4.1,0-6.3,0L236.2,135.8z M233.1,105.1
	L233.1,105.1c1.3,0,2.1,0.9,2.2,2.4c0.1,2.9,0.1,5.9,0.1,8.4c0,5.5,0,11.5,0,18.3c0,0.2,0,0.4,0.1,0.6c0.2,0.1,0.4,0.2,0.6,0.1
	c2.3,0,4.3,0,6.4,0c0.2,0,0.4,0,0.6-0.1c0.1-0.2,0.2-0.4,0.1-0.6c0-3.6,0-7.2,0-10.7c0-1.1,0-2.2,0-3.3l0,0V120c0-1.1,0-2.3,0-3.4
	c0-2.7,0-5.3,0-7.9c0.1-2.7-0.2-5.4-1-8c-1.1-3.8-3.1-5.9-6.2-6.6C231.7,92.9,227,95,225,99c-1.4,2.8-2.2,5.8-2.1,9
	c0,5.9,0,12,0,17.8c0,2.8,0,5.8,0,8.7c0,0.2,0,0.4,0.1,0.5c0.1,0.1,0.3,0.1,0.5,0.1h6.4c0.9,0,0.9,0,0.9-0.9c0-2.5,0-4.9,0-7.2
	c0-1.1,0.4-1.6,1.5-1.6c0.3,0,0.6,0,0.9-0.1c0.1-0.3,0.1-0.6,0.1-0.9v-2.4c0-1.9,0-3.8,0-5.6c0-0.3,0-0.5,0-0.8c-0.2,0-0.5,0-0.7,0
	c-1.3,0-1.7-0.4-1.7-1.7c0-0.4,0-0.8,0-1.2c0-1.1,0-2.2,0-3.3c0-0.9,0.2-1.8,0.4-2.7C231.4,105.8,232.1,105.1,233.1,105.1
	L233.1,105.1z"/>
<path class="st8" d="M166.2,119.8c0,4.8,0,9.6,0,14.4c0,1.2,0,1.3-1.3,1.3H159c-1.1,0-1.3-0.2-1.3-1.3c0-2.5,0-5,0-7.5
	c0-5.5,0-11.1,0-16.6c0-1.1-0.1-2.1-0.3-3.2c-0.1-0.8-0.8-1.3-1.5-1.3c-0.8-0.1-1.6,0.5-1.7,1.3c-0.2,0.7-0.4,1.5-0.4,2.3
	c-0.1,1.6-0.1,3.2,0,4.8c0,1,0.3,1.3,1.3,1.3s1.2,0.1,1.2,1.1c0,2.8,0,5.6,0,8.4c0,0.8-0.3,1.1-1.1,1.1c-1.3,0-1.3,0.1-1.3,1.5
	c0,2.3,0,4.7,0,7c0,1.1-0.1,1.2-1.2,1.2c-2.1,0-4.2,0-6.4,0c-0.7,0-1-0.3-1-1c0-8.9,0-17.9,0.1-26.8c-0.1-3.7,1-7.2,3.1-10.2
	c1.6-2.3,4.2-3.7,7.1-3.9c1.7-0.2,3.3,0.1,4.9,0.7c1.8,0.7,3.3,2.1,4.1,3.8c1.2,2.4,1.8,5,1.9,7.7
	C166.3,110.4,166.2,115.1,166.2,119.8L166.2,119.8z"/>
<path class="st1" d="M146,135.7c-0.3,0-0.7-0.1-0.9-0.3c-0.2-0.3-0.4-0.6-0.3-1c0-3,0-6.1,0-9.1c0-5.8,0-11.8,0-17.7
	c-0.1-3.7,1-7.4,3.1-10.5c1.7-2.4,4.4-3.9,7.3-4c1.7-0.2,3.4,0.1,5,0.7c1.9,0.7,3.4,2.2,4.3,4c1.2,2.4,1.9,5.1,1.9,7.9
	c0.1,3.3,0,6.7,0,9.9c0,1.3,0,2.5,0,3.8h0.1v4.1c0,3.6,0,7.1,0,10.6c0,1.3-0.2,1.6-1.6,1.6h-5.9c-0.7,0.2-1.4-0.2-1.7-0.9
	c-0.1-0.2-0.1-0.5,0-0.7c0-1.3,0-2.5,0-3.8s0-2.5,0-3.7v-2.2c0-4.7,0-9.6,0-14.4c0-1-0.1-2.1-0.3-3.1c-0.1-0.6-0.6-1.1-1.2-1.1
	c-0.7-0.1-1.2,0.4-1.4,1c-0.2,0.7-0.4,1.5-0.4,2.2c-0.1,1.7-0.1,3.4,0,4.8c0,0.8,0.1,0.9,0.9,0.9l0,0c1.2,0,1.5,0.3,1.5,1.5
	c0,1.2,0,2.7,0,4c0,1.3,0,2.9,0,4.4c0.1,0.7-0.5,1.4-1.2,1.5c-0.1,0-0.2,0-0.2,0c-0.3,0-0.6,0-0.9,0.1c-0.1,0.3-0.1,0.7-0.1,1
	c0,1.1,0,2.2,0,3.3c0,1.1,0,2.4,0,3.7c0,1.3-0.3,1.5-1.5,1.5h-1.6C149.2,135.8,147.6,135.8,146,135.7L146,135.7z M156.4,93.8h-1
	c-2.7,0.1-5.2,1.5-6.8,3.7c-2,2.9-3.1,6.5-3,10c0,5.9,0,11.9,0,17.7c0,3,0,6.1,0,9.1c0,0.2,0,0.4,0.1,0.5c0.2,0.1,0.3,0.1,0.5,0.1
	c1.6,0,3.2,0,4.8,0h1.5c0.3,0.2,0.7,0.1,0.8-0.2c0.1-0.2,0.1-0.5,0-0.7c0-1.2,0-2.5,0-3.7s0-2.3,0-3.3c0-1.5,0.2-1.8,1.7-1.8
	c0.6,0,0.8-0.2,0.8-0.8c0-1.5,0-2.9,0-4.4c0-1.4,0-2.7,0-4c0-0.2,0-0.6-0.1-0.7c-0.2-0.1-0.5-0.1-0.7-0.1l0,0
	c-1.2,0-1.6-0.4-1.6-1.6c0-1.4,0-3.1,0-4.8c0.1-0.8,0.2-1.6,0.5-2.4c0.2-1,1.1-1.6,2.1-1.5c1,0,1.8,0.7,1.9,1.7
	c0.2,1.1,0.3,2.2,0.3,3.2c0,4.8,0,9.7,0,14.5v2.2c0,1.2,0,2.5,0,3.7c0,1.2,0,2.5,0,3.7c0,0.3,0,0.6,0.1,0.8c0.3,0.1,0.6,0.2,0.8,0.1
	h5.9c0.3,0,0.6,0,0.9-0.1c0.1-0.3,0.1-0.6,0.1-0.8c0-3.6,0-7.1,0-10.6v-3.4h-0.1v-0.3c0-1.4,0-2.8,0-4.2c0-3.3,0-6.7,0-9.9
	c0-2.6-0.7-5.2-1.8-7.6c-0.8-1.7-2.2-3-3.9-3.7C158.9,94,157.7,93.8,156.4,93.8L156.4,93.8z"/>
<path class="st8" d="M171.7,114.9c0-6.4,0-12.8,0-19.1c0-1.2,0.1-1.3,1.3-1.3h9c1.6-0.1,3.3,0.2,4.8,0.8c1.9,0.8,3.4,2.4,4,4.4
	c1.3,3.7,1,7.8-0.7,11.3c-0.3,0.6-0.7,1.1-1.1,1.6c-0.4,0.5-0.5,1,0.1,1.5c2.4,1.9,3.8,4.8,3.8,7.9c0.3,2.7,0,5.4-1,7.9
	c-0.7,2-2.1,3.7-4,4.7c-1.8,0.8-3.8,1.1-5.7,0.8c-0.2,0-0.5-0.4-0.5-0.7c0-2.9,0-5.9,0-8.8c0-0.2,0.4-0.6,0.7-0.7
	c0.4-0.1,0.7-0.2,1.1-0.1c1.1,0,2-0.8,2-1.9c0-0.1,0-0.1,0-0.2c0.1-1.1-0.8-2.1-1.9-2.2c0,0,0,0-0.1,0c-1.8-0.2-1.9-0.2-1.9-2.1
	c0-2.5,0-4.9,0-7.4c0-0.8,0.2-1.3,1.1-1.5c0.9-0.4,1.4-1.3,1.3-2.3c0-1-0.7-1.8-1.7-2c-2.1-0.4-2.3-0.3-2.3,1.8c0,8.9,0,17.8,0,26.7
	c0,1.5,0,1.5-1.5,1.5c-2.1,0-4.1,0-6.2,0c-0.7,0-0.9-0.3-0.9-0.9c0-1.2,0-2.4,0-3.7C171.6,125.5,171.6,120.2,171.7,114.9
	L171.7,114.9z"/>
<path class="st1" d="M183.8,135.8c-0.5,0-1,0-1.5-0.1c-0.5-0.1-0.8-0.7-0.8-1c0-3.2,0-6.1,0-8.8c0-0.5,0.7-0.9,0.9-1
	c0.3-0.1,0.6-0.2,0.9-0.2h0.3c0.9,0,1.7-0.6,1.7-1.5c0-0.1,0-0.2,0-0.3c0.1-0.9-0.6-1.8-1.6-1.8c0,0,0,0-0.1,0
	c-2-0.2-2.2-0.3-2.2-2.4c0-0.7,0-1.5,0-2.2c0-1.7,0-3.4,0-5.2c-0.1-0.9,0.5-1.7,1.3-1.9c0.7-0.4,1.2-1.1,1.1-1.9
	c0-0.8-0.6-1.6-1.4-1.7c-0.8-0.2-1.5-0.3-1.7-0.1c-0.2,0.2-0.2,0.8-0.2,1.6c0,8.5,0,16.8,0,26.7l0,0c0,1.7-0.2,1.9-1.9,1.9h-6.2
	c-0.3,0-0.7-0.1-0.9-0.3c-0.2-0.3-0.3-0.6-0.3-0.9c0-1.2,0-2.4,0-3.7c0-3.9,0-7.7,0-11.6V95.8c0-0.6,0-1.1,0.3-1.3
	c0.3-0.3,0.7-0.3,1.3-0.3h9c1.7-0.1,3.4,0.2,5,0.8c2,0.8,3.6,2.5,4.3,4.6c1.3,3.8,1.1,8-0.7,11.6c-0.3,0.6-0.7,1.1-1.1,1.6
	c-0.2,0.1-0.2,0.3-0.3,0.5c0.1,0.2,0.2,0.3,0.3,0.4c2.5,2,4,5,4,8.1c0.3,2.7,0,5.5-1,8c-0.7,2.1-2.2,3.8-4.1,4.9
	C186.9,135.5,185.4,135.8,183.8,135.8z M182.4,135c1.9,0.3,3.8,0,5.5-0.8c1.8-1,3.2-2.6,3.8-4.6c0.9-2.5,1.3-5.1,1-7.7
	c0-3-1.4-5.8-3.7-7.6c-0.3-0.2-0.5-0.5-0.6-0.9c0-0.4,0.1-0.8,0.4-1.1c0.4-0.5,0.8-1,1.1-1.5c1.7-3.4,2-7.4,0.7-11.1
	c-0.6-1.9-2-3.4-3.9-4.2c-1.5-0.6-3.1-0.9-4.7-0.8h-9c-0.3,0-0.6,0-0.9,0.1c-0.1,0.3-0.1,0.5-0.1,0.8v18.8l0,0v4.7
	c0,3.9,0,7.7,0,11.6c0,1.2,0,2.4,0,3.7c0,0.2,0,0.3,0.1,0.5c0.1,0.1,0.3,0.1,0.4,0.1h6.2c0.4,0,0.7,0,1.1-0.1
	c0.1-0.3,0.1-0.7,0.1-1.1l0,0c0-9.9,0-18.1,0-26.7c0-1.1,0-1.7,0.5-2.1c0.5-0.3,1.1-0.3,2.2,0c1.1,0.2,2,1.2,2,2.3
	c0.1,1.1-0.6,2.2-1.6,2.7c-0.6,0.1-0.8,0.4-0.8,1.2c0,1.7,0,3.5,0,5.2c0,0.7,0,1.5,0,2.2c-0.1,0.5,0,1,0.1,1.4
	c0.1,0.2,0.6,0.2,1.3,0.3c1.3,0.1,2.4,1.2,2.3,2.5c0,0,0,0,0,0c0.1,1.3-0.9,2.4-2.1,2.5c-0.1,0-0.1,0-0.2,0h-0.3
	c-0.2,0-0.5,0-0.7,0.1c-0.2,0.1-0.4,0.2-0.5,0.4c0,2.7,0,5.5,0,8.8C182.2,134.8,182.3,134.9,182.4,135L182.4,135z"/>
<path class="st8" d="M124,114.8c0-2.5,0-5,0-7.6c-0.1-2.7,0.3-5.3,1.3-7.8c1.2-2.9,4-4.9,7.2-4.9c2.4-0.1,4.9-0.1,7.3-0.1
	c0.3,0.1,0.5,0.2,0.7,0.5c0.1,0.3,0.1,0.7,0.1,1c0,2.9,0,5.8,0,8.7c0,1.3-0.2,1.5-1.5,1.5s-2.7,0-4.1,0c-0.9-0.1-1.7,0.4-2,1.2
	c-0.4,0.9-0.3,1.9,0.4,2.7c0.5,0.4,1,0.5,1.6,0.5c1.3,0.1,2.7,0.1,4,0c0.9,0,1.1,0.3,1.1,1.1c0,2,0,4,0,5.9c0,1.9-0.1,1.9-2,1.9
	c-1.3,0-2.5,0-3.8,0.1c-1.3,0.1-2,0.8-1.9,2.2c-0.1,1,0.6,2,1.6,2.1c0.1,0,0.3,0,0.4,0c1.8,0,3.5,0,5.3,0c0.9,0,1.1,0.3,1.1,1.1
	c0,3,0,6,0,9c0,1.3-0.1,1.3-1.3,1.3c-1.9,0-3.8,0-5.7,0c-3.7,0.2-7-2-8.4-5.4c-0.8-2-1.2-4.2-1.2-6.4
	C123.9,120.7,124,117.8,124,114.8z"/>
<path class="st1" d="M135.6,135.8h-2.1c-3.8,0.2-7.3-2.1-8.7-5.6c-0.8-2.1-1.3-4.3-1.2-6.5c0-2,0-4.1,0-6.1c0-0.9,0-1.8,0-2.7l0,0
	c0-0.8,0-1.6,0-2.4c0-1.7,0-3.5,0-5.2c-0.1-2.7,0.3-5.5,1.4-8c1.2-3.1,4.2-5.1,7.5-5.1c2.2,0,4.5-0.1,7.3-0.1c0.4,0.1,0.8,0.3,1,0.7
	c0.1,0.3,0.2,0.7,0.1,1V96c0,2.8,0,5.7,0,8.5v0.2c0,0.7,0,1.2-0.3,1.5c-0.4,0.3-1,0.4-1.5,0.3H135c-0.7-0.1-1.4,0.3-1.7,1
	c-0.4,0.7-0.2,1.6,0.3,2.2c0.4,0.3,0.9,0.4,1.3,0.4c1.3,0.1,2.7,0.1,4,0c0.4-0.1,0.8,0.1,1.1,0.3c0.3,0.3,0.4,0.7,0.4,1.1
	c0,0.7,0,1.3,0,2.1c0,1.3,0,2.5,0,3.8c0,2.1-0.2,2.3-2.3,2.3l0,0c-1.2,0-2.5,0-3.8,0.1c-1.3,0.1-1.6,0.6-1.6,1.9s0.5,1.7,1.7,1.8
	c1.8,0,3.6,0,5.3,0c0.4,0,0.8,0.1,1.1,0.3c0.3,0.3,0.4,0.7,0.3,1.1c0,1.8,0,3.7,0,5.5c0,1.2,0,2.3,0,3.5c0,1.5-0.2,1.7-1.6,1.7h-1
	L135.6,135.8z M139.2,94.8c-2.5,0-4.7,0-6.7,0.1c-3,0-5.8,1.9-6.9,4.7c-1,2.4-1.5,5-1.3,7.7c0,1.7,0,3.5,0,5.2c0,0.8,0,1.6,0,2.4
	l0,0c0,0.9,0,1.8,0,2.7c0,2,0,4,0,6.1c0,2.1,0.4,4.3,1.2,6.2c1.3,3.3,4.5,5.3,8,5.2c1.6,0,3.3,0,4.9,0h0.9c0.3,0,0.6,0,0.9-0.1
	c0.1-0.3,0.1-0.6,0.1-0.9c0-1.2,0-2.3,0-3.5c0-1.8,0-3.7,0-5.5c0-0.2,0-0.5-0.1-0.6c-0.2-0.1-0.4-0.2-0.6-0.1c-1.7,0-3.5,0-5.3,0
	c-1.2,0.1-2.3-0.9-2.3-2.1c0-0.1,0-0.2,0-0.3c0-1.7,0.7-2.5,2.3-2.6c1.3-0.1,2.7-0.1,3.8-0.1l0,0c0.8,0,1.3,0,1.5-0.2
	c0.2-0.5,0.2-1,0.2-1.4c0-1.3,0-2.5,0-3.8c0-0.7,0-1.4,0-2.1c0-0.2,0-0.5-0.1-0.6c-0.2-0.1-0.4-0.2-0.6-0.1c-1.3,0.1-2.7,0.1-4,0
	c-1.3,0.1-2.5-0.9-2.6-2.2c0-0.5,0.1-1,0.3-1.4c0.4-0.9,1.3-1.5,2.3-1.4h4.1c0.4,0.2,0.9,0.1,1.1-0.3c0.1-0.2,0.1-0.6,0-0.8v-0.2
	c0-2.8,0-5.6,0-8.5v-0.1c0-0.3,0-0.5-0.1-0.8c-0.1-0.1-0.2-0.2-0.3-0.3L139.2,94.8z"/>
<path class="st8" d="M105,123.8c0.2,0.1,0.4,0.1,0.7,0.2c0.9,0.8,2.2,0.7,3-0.1c0-0.1,0.1-0.1,0.1-0.2c0.9-0.9,1.2-2.3,0.8-3.5
	c-0.7-1.9-1.3-3.8-1.9-5.7c-1.3-4.1-1.4-8.4-0.2-12.5c0.8-3.1,2.7-5.7,5.3-7.5c2.1-1.3,4.6-1.4,6.8-0.3c0.2,0.1,0.3,0.6,0.3,1
	c0,2.9,0,5.9,0,8.8c0,0.3,0,0.5,0,0.8c0.1,0.7-0.1,1-0.9,0.8c-2-0.4-3,1.6-3,3.2c0.1,1.4,0.5,2.8,1.1,4.1c2,4.8,2.9,9.7,1.3,14.8
	c-0.6,2.2-1.7,4.3-3.3,5.9c-2.1,2.4-5.3,3.4-8.4,2.5c-1.7-0.5-2-0.8-2-2.7c0-2.9,0-5.7,0-8.6C104.9,124.5,105,124.2,105,123.8z"/>
<path class="st1" d="M109.2,136.8c-0.8,0-1.7-0.1-2.5-0.4c-1.8-0.5-2.2-1-2.2-2.9c0-1.7,0-3.4,0-5.1c0-1.2,0-2.3,0-3.5
	c0-0.2,0-0.4,0-0.7s0-0.3,0-0.4v-0.5l0.4,0.1l0.3,0.1c0.2,0,0.3,0.1,0.5,0.2c0.7,0.7,1.9,0.6,2.5-0.1c0,0,0.1-0.1,0.1-0.1
	c0.8-0.9,1.1-2.1,0.7-3.2l-0.5-1.5c-0.5-1.3-1-2.7-1.3-4.1c-1.3-4.1-1.4-8.5-0.2-12.7c0.8-3.2,2.8-5.9,5.5-7.7
	c2.2-1.3,4.9-1.5,7.2-0.4c0.5,0.2,0.6,1,0.6,1.3c0,2.2,0,4.5,0,6.7c0,0.7,0,1.4,0,2.1c0,0.1,0,0.2,0,0.3c0,0.2,0,0.3,0,0.5
	c0.2,0.5,0,1-0.5,1.2c-0.3,0.1-0.6,0.1-0.9-0.1c-0.5-0.1-1.1,0-1.6,0.4c-0.7,0.7-1,1.6-1,2.5c0.1,1.4,0.5,2.7,1.1,4
	c2.3,5.6,2.7,10.4,1.3,15.1c-0.6,2.3-1.8,4.4-3.4,6.1C113.7,135.6,111.6,136.6,109.2,136.8z M105.3,124.3c0,0.2,0,0.4,0,0.6
	c0,1.2,0,2.3,0,3.5c0,1.7,0,3.4,0,5.1c0,1.6,0.2,1.8,1.7,2.3c2.9,0.8,6-0.1,8-2.4c1.5-1.6,2.7-3.6,3.2-5.8c1.3-4.5,0.9-9.1-1.3-14.6
	c-0.6-1.4-1-2.8-1.1-4.3c-0.1-1.2,0.4-2.3,1.2-3.1c0.6-0.5,1.4-0.7,2.2-0.5c0.3,0.1,0.4,0,0.4,0s0-0.1,0-0.4c0-0.2,0-0.4,0-0.6
	c0-0.1,0-0.1,0-0.2c0-0.7,0-1.4,0-2.1c0-2.2,0-4.5,0-6.7c0-0.2-0.1-0.5-0.2-0.7c-2.1-1-4.5-0.9-6.5,0.3c-2.6,1.7-4.4,4.3-5.2,7.3
	c-1.1,4-1.1,8.3,0.2,12.3c0.4,1.3,0.9,2.8,1.3,4.1l0.6,1.6c0.5,1.4,0.1,2.9-0.8,3.9c-0.8,1.1-2.4,1.3-3.5,0.5
	c-0.1,0-0.1-0.1-0.1-0.1L105.3,124.3z"/>
<path class="st8" d="M201.3,155.7c0-3.9,0-7.8,0-11.7c-0.1-1.5,1.1-2.9,2.6-3c0.1,0,0.3,0,0.4,0h3.1c2.9,0,5.6,1.4,7.3,3.7
	c4.5,5.6,4.5,15.8,0.6,21.3c-1.4,2.2-3.5,3.8-6,4.3c-1.2,0.2-2.3,0.5-3.2-0.7c-0.3-0.1-0.6-0.1-0.9,0c-0.5,0.7-1.4,1-2.2,0.7
	c-0.9-0.4-1.5-1.3-1.6-2.3c-0.1-1-0.1-2-0.1-3C201.3,162,201.3,158.9,201.3,155.7L201.3,155.7z M206,155.8L206,155.8
	c0,2.3,0,4.6,0,7c0,0.6,0.1,1.1,0.8,1.2c1.9,0.3,3.7-0.5,4.8-2.1c2-2.8,2.5-6.4,1.3-9.7c-0.8-2.4-2.7-4.6-5.6-4.5
	c-1.1,0.1-1.3,0.1-1.3,1.3C206,151.3,206,153.5,206,155.8L206,155.8z"/>
<path class="st1" d="M207.8,170.9c-0.8,0-1.6-0.4-2.1-1c-0.1,0-0.3,0-0.4,0c-0.6,0.8-1.7,1.2-2.7,0.8c-1.1-0.5-1.8-1.5-1.8-2.7
	c-0.1-1-0.1-2-0.1-3v0c0-2.2,0-4.5,0-6.7v-2.9l0,0c0-1,0-2,0-3c0-2.7,0-5.5,0-8.3c-0.1-1.7,1.2-3.2,3-3.3c0.1,0,0.2,0,0.4,0h3.1
	c3,0,5.8,1.4,7.6,3.9c4.5,5.6,4.7,15.9,0.6,21.7c-1.4,2.3-3.7,3.9-6.3,4.5h-0.1C208.7,170.9,208.3,170.9,207.8,170.9z M205.6,169.2
	L205.6,169.2c0.3,0,0.6,0.1,0.7,0.3c0.7,1,1.7,0.8,2.8,0.6h0.1c2.4-0.5,4.5-2.1,5.8-4.2c4-5.6,3.7-15.5-0.6-20.9
	c-1.6-2.2-4.2-3.6-7-3.6h-3.1c-1.3-0.1-2.5,0.8-2.7,2.2c0,0.2,0,0.3,0,0.5c0,2.7,0,5.6,0,8.3c0,1.1,0,2.3,0,3.4v0.3l0,0v2.2
	c0,2.2,0,4.5,0,6.7v0.1c0,1,0,2,0.1,2.9c0,0.9,0.5,1.7,1.3,2c0.7,0.2,1.4-0.1,1.9-0.6C205.1,169.2,205.3,169.1,205.6,169.2
	L205.6,169.2z M207.3,164.3h-0.6c-0.7-0.1-1.3-0.8-1.2-1.5c0,0,0,0,0-0.1c0-1.7,0-3.4,0-5.1v-2.2l0,0c0-0.5,0-1.1,0-1.6
	c0-1.6,0-3.2,0-4.8c0-1.6,0.4-1.5,1.7-1.6c3.2-0.2,5.2,2.4,6,4.7c1.3,3.3,0.8,7.1-1.3,10C210.8,163.5,209.1,164.3,207.3,164.3
	L207.3,164.3z M206.3,156.1v1.5c0,1.7,0,3.4,0,5.1c0,0.7,0.2,0.8,0.5,0.8c1.7,0.2,3.5-0.5,4.5-1.9c2-2.7,2.5-6.2,1.3-9.3
	c-0.7-2.1-2.5-4.4-5.2-4.2c-1,0-1,0-1,0.9c0,1.6,0,3.2,0,4.8c0,0.7,0,1.3,0,2L206.3,156.1L206.3,156.1z"/>
<path class="st8" d="M106,158.4c0-2.7,0-5.3,0-8c-0.1-2.3,0.6-4.5,1.8-6.4c1-1.7,2.8-2.8,4.8-2.8c0.7,0,1.3,0,2,0
	c1.3-0.1,2.5,0.9,2.7,2.2c0.1,0.8,0.1,1.7-0.1,2.5c-0.3,1.5-1.1,2-2.7,2c-0.4,0-0.9,0-1.3,0c-1.8-0.3-2.4,1.2-2.5,2.6
	c0,0.6,0,1.2,0,1.7c0,0.9,0.3,1.3,1.2,1.3h2.7c1.2-0.2,2.3,0.5,2.5,1.7c0.5,1.3,0.4,2.8-0.3,4c-0.4,0.6-1,1-1.7,0.9
	c-1,0-2.1,0-3.1,0s-1.3,0.3-1.2,1.3c0,2.2,0,4.3,0,6.5c0,1.1-0.6,2.1-1.7,2.5c-0.7,0.3-1.6,0.1-2.1-0.6c-0.5-0.8-0.8-1.7-0.9-2.6
	C105.9,164.2,106,161.2,106,158.4z"/>
<path class="st1" d="M108.3,170.8c-0.7,0-1.3-0.3-1.7-0.9c-0.5-0.8-0.8-1.7-0.9-2.7c-0.1-2.1,0-4.3,0-6.4c0-0.8,0-1.6,0-2.4l0,0
	c0-0.8,0-1.6,0-2.4c0-1.8,0-3.7,0-5.6c-0.1-2.4,0.6-4.7,1.9-6.7c1-1.8,3-3,5.1-2.9c0.4,0,0.7,0,1.1,0h0.9l0,0c1.5-0.1,2.8,1,3.1,2.5
	c0.1,0.9,0.1,1.8-0.1,2.7c-0.2,1.4-1.4,2.4-2.8,2.3c0,0-0.1,0-0.1,0h-0.4c-0.3,0-0.7,0-1,0c-0.5-0.1-1,0-1.3,0.3
	c-0.5,0.5-0.8,1.2-0.9,2c0,0.4,0,0.8,0,1.2c0,0.2,0,0.4,0,0.5c0,0.7,0.2,0.9,0.9,0.9h2.7c1.3-0.2,2.5,0.6,2.9,1.9
	c0.6,1.4,0.4,3-0.4,4.3c-0.4,0.7-1.2,1.1-2,1.1H112c-0.8,0-0.9,0.1-0.9,1.1v0.2c0,2.1,0,4.2,0,6.3c0,1.2-0.7,2.4-1.9,2.8
	C108.9,170.8,108.6,170.8,108.3,170.8z M106.4,158.4c0,0.8,0,1.6,0,2.5c0,2.1,0,4.3,0,6.4c0.1,0.9,0.4,1.7,0.8,2.4
	c0.4,0.5,1.1,0.7,1.6,0.4c0.9-0.3,1.5-1.2,1.5-2.2c0.1-2.1,0-4.2,0-6.3v-0.2c0-1.1,0.2-1.7,1.6-1.7h3.1c0.6,0,1.2-0.3,1.5-0.8
	c0.7-1.1,0.8-2.5,0.3-3.7c-0.4-1.1-0.9-1.4-2.2-1.4h-2.7c-1.1,0-1.6-0.5-1.6-1.6c0-0.2,0-0.3,0-0.5c0-0.4,0-0.8,0-1.2
	c0-0.9,0.4-1.8,1.1-2.5c0.5-0.4,1.2-0.6,1.8-0.4c0.3,0,0.6,0,0.9,0h0.5c1.4,0,2-0.4,2.3-1.7c0.2-0.8,0.2-1.6,0.1-2.4
	c-0.2-1.2-1.2-2-2.4-1.9l0,0h-0.9c-0.4,0-0.8,0-1.2,0c-1.9,0-3.6,1-4.5,2.7c-1.2,1.9-1.8,4-1.7,6.2c0,1.9,0,3.7,0,5.6
	C106.3,156.7,106.3,157.5,106.4,158.4L106.4,158.4z"/>
<path class="st8" d="M187.3,156.8c0,3.4-1,6.8-3.1,9.6c-1.8,2.9-5.1,4.5-8.5,4.1c-2-0.3-3.8-1.3-5-2.8c-3.8-4.3-4.7-9.3-4-14.9
	c0.3-2.8,1.4-5.5,3.1-7.8c1.5-2.1,3.7-3.5,6.2-3.9c2.8-0.3,5.6,0.8,7.4,3.1C186.3,147.7,187.4,151.8,187.3,156.8z M171.1,155.4
	c-0.2,2.4,0.5,4.7,1.9,6.6c1.2,1.7,3.4,2.4,5.4,1.6c1.2-0.5,2.3-1.5,2.9-2.7c1.7-2.8,2-8.7-1.3-11.9c-1.7-1.5-4.3-1.7-6.1-0.3
	C172,150.4,171,152.8,171.1,155.4L171.1,155.4z"/>
<path class="st1" d="M176.8,170.9c-0.4,0-0.8,0-1.2-0.1c-2.1-0.3-3.9-1.3-5.3-2.9c-3.6-4-4.9-9-4.1-15.2c0.3-2.9,1.4-5.7,3.1-8
	c1.5-2.2,3.8-3.6,6.5-4c2.9-0.3,5.8,0.9,7.7,3.2c2.9,3.3,4.2,7.3,4,12.8c0,3.5-1.1,6.9-3.1,9.8C182.8,169.2,179.9,170.8,176.8,170.9
	z M176.9,141.4c-0.3,0-0.6,0-1,0c-2.4,0.3-4.6,1.7-6,3.7c-1.7,2.2-2.7,4.9-3,7.7c-0.8,6,0.5,10.8,3.9,14.7c1.2,1.5,2.9,2.4,4.8,2.7
	c3.3,0.4,6.5-1.2,8.2-4c2-2.7,3-6,3-9.3l0,0c0.1-5.3-1.1-9.2-3.9-12.4C181.5,142.6,179.3,141.5,176.9,141.4L176.9,141.4z
	 M176.8,164.2c-1.6-0.1-3-0.8-4-2.1c-1.5-1.9-2.2-4.4-2-6.8l0,0c0-2.6,1-5.1,3-6.8c2-1.5,4.8-1.4,6.6,0.3c3.4,3.3,3.1,9.4,1.3,12.3
	c-0.7,1.2-1.8,2.2-3.1,2.8C178,164.1,177.4,164.2,176.8,164.2L176.8,164.2z M171.5,155.4c-0.2,2.3,0.5,4.5,1.9,6.4
	c1.1,1.6,3.2,2.2,5,1.5c1.2-0.5,2.1-1.4,2.7-2.5c1.6-2.7,1.9-8.4-1.2-11.5c-1.6-1.4-3.9-1.5-5.6-0.3
	C172.4,150.6,171.4,152.9,171.5,155.4L171.5,155.4z"/>
<path class="st8" d="M131.6,155c-0.1-2.5,0.5-5.1,1.6-7.4c1.1-2.5,3-4.5,5.3-5.7c1.7-0.9,3.7-1.1,5.6-0.6c3.4,1.1,6,3.7,7.1,7.1
	c2.1,5.1,1.9,10.8-0.5,15.8c-1.9,4-5,6.7-9.3,6.3c-2.5-0.2-4.7-1.6-6.2-3.6C132.5,163.8,131.5,160.2,131.6,155z M147.8,156.7
	c0-4-1-6.3-2.8-7.8c-1.8-1.7-4.7-1.6-6.4,0.2c-0.1,0.1-0.2,0.2-0.2,0.3c-1.2,1.4-1.9,3.1-2,4.9c-0.5,2.8,0.3,5.6,2,7.8
	c1.5,2,4.3,2.3,6.3,0.8c0.2-0.1,0.3-0.3,0.5-0.4C146.8,161,147.7,158.9,147.8,156.7z"/>
<path class="st1" d="M141.9,170.9h-0.7c-2.6-0.2-4.9-1.6-6.4-3.7c-2.7-3.3-3.7-6.9-3.6-12.1c0-2.6,0.5-5.2,1.7-7.5
	c1.1-2.5,2.9-4.6,5.3-5.9c1.8-0.9,3.9-1.2,5.8-0.6c3.4,1,5.8,3.4,7.3,7.3c2.1,5.2,2,11-0.5,16C148.9,168.7,145.8,170.9,141.9,170.9z
	 M141.9,141.4c-1.2,0-2.3,0.3-3.4,0.8c-2.3,1.2-4.1,3.2-5.1,5.6c-1.1,2.3-1.6,4.7-1.6,7.2l0,0c-0.1,5,0.9,8.5,3.4,11.7
	c1.4,2,3.5,3.2,5.9,3.5h0.7c4.5,0,7-3.3,8.4-6.1c2.4-4.9,2.5-10.5,0.5-15.5c-1.5-3.7-3.7-6-6.9-6.9
	C143.2,141.5,142.6,141.4,141.9,141.4L141.9,141.4z M141.9,164.3h-0.2c-1.4-0.1-2.7-0.8-3.6-1.9c-1.8-2.3-2.6-5.2-2.1-8.1
	c0.1-1.9,0.9-3.6,2.1-5.1c1.7-2.1,4.8-2.5,6.9-0.8c0.1,0.1,0.2,0.1,0.2,0.2c1.9,1.7,2.9,4.2,2.9,8l0,0c0,2.3-1,4.5-2.7,6.1
	C144.5,163.7,143.2,164.2,141.9,164.3L141.9,164.3z M141.9,148.1h-0.3c-1.2,0.1-2.2,0.7-3,1.6c-1.1,1.3-1.8,3-1.9,4.7
	c-0.5,2.7,0.2,5.4,1.9,7.6c0.8,0.9,1.9,1.5,3.1,1.6c1.2,0,2.4-0.5,3.2-1.3c1.5-1.5,2.4-3.5,2.5-5.6c0-3.7-0.9-6-2.7-7.5
	C144,148.5,142.9,148.1,141.9,148.1L141.9,148.1z"/>
<path class="st8" d="M244.1,144.4c0.2,1.5-0.8,2.9-2.2,3.3c-0.8,0.2-1.4,0.9-1.3,1.8c0,4,0,7.9,0,11.9c0.1,2.1-0.3,4.1-1.3,6
	c-0.6,1.3-1.7,2.3-3,2.9c-2.5,1-3.7-0.3-4-2.5c0-0.9,0.2-1.8,0.5-2.7c0.3-0.7,0.9-1.1,1.6-1.1c0.7,0,1.3-0.6,1.3-1.3
	c0,0,0-0.1,0-0.1c0-1.8,0-3.6,0.1-5.3c0-3.1,0-6.2,0.1-9.3c0.1-2.3,1.3-4.4,3.1-5.8c1.4-1.1,3.1-1.3,4.1-0.2
	c0.5,0.8,0.9,1.6,1.1,2.5L244.1,144.4z"/>
<path class="st1" d="M234.7,170.9c-0.5,0-0.9-0.1-1.3-0.3c-0.9-0.7-1.5-1.7-1.5-2.8c0-0.8,0.1-1.7,0.4-2.5l0.1-0.3
	c0.3-0.8,1.1-1.3,1.9-1.3c0.6,0,1-0.5,1-1c0,0,0-0.1,0-0.1c0-0.9,0-1.7,0-2.6c0-0.9,0-1.9,0-2.8s0-2,0-2.9c0-2.1,0-4.3,0.1-6.4
	c0.1-2.4,1.3-4.6,3.2-6c1.7-1.3,3.5-1.3,4.6-0.1c0.4,0.5,0.7,1.2,0.9,1.8c0.1,0.3,0.2,0.5,0.3,0.8l0.1,0.3l-0.3,0.1
	c0.1,1.6-0.9,3-2.5,3.4c-0.7,0.1-1.2,0.7-1.1,1.4c0,2.7,0,5.5,0,8.2c0,1.2,0,2.5,0,3.7c0.1,2.1-0.3,4.2-1.3,6.1
	c-0.7,1.3-1.8,2.4-3.2,3C235.7,170.7,235.2,170.9,234.7,170.9z M241.3,141.4c-0.8,0-1.6,0.3-2.2,0.9c-1.8,1.3-2.9,3.3-3,5.5
	c-0.1,2.1-0.1,4.3-0.1,6.4c0,1,0,1.9,0,2.9c0,1,0,1.9,0,2.8c0,0.9,0,1.7,0,2.6c0,0.9-0.7,1.7-1.6,1.8c-0.8,0.1-1.2,0.4-1.3,0.9
	l-0.1,0.4c-0.3,0.7-0.4,1.4-0.4,2.2c0,0.9,0.4,1.7,1.1,2.3c0.8,0.3,1.6,0.3,2.3-0.1c1.2-0.6,2.2-1.5,2.8-2.7
	c0.9-1.8,1.4-3.8,1.2-5.8c0-1.2,0-2.5,0-3.7c0-2.7,0-5.4,0-8.2c-0.1-1,0.6-1.9,1.6-2.1c1.3-0.3,2.2-1.6,2-2.9v-0.2h0.1l-0.2-0.5
	c-0.2-0.6-0.4-1.1-0.8-1.6C242.6,141.6,242,141.4,241.3,141.4L241.3,141.4z"/>
</svg>
