<?xml version="1.0" encoding="utf-8"?>
<!-- Generator: Adobe Illustrator 21.1.0, SVG Export Plug-In . SVG Version: 6.00 Build 0)  -->
<svg version="1.1" id="Layer_1" xmlns="http://www.w3.org/2000/svg" xmlns:xlink="http://www.w3.org/1999/xlink" x="0px" y="0px"
	 viewBox="0 0 250 250" style="enable-background:new 0 0 250 250;" xml:space="preserve">
<style type="text/css">
	.st0{fill:#EF3B39;}
</style>
<title>Grocery</title>
<path class="st0" d="M118.5,162.7c0.2-1.1,0.4-2.2,0.6-3.2l4.2-21.2l3.8-19.2l3.8-19.3c0.8-4.1,1.6-8.3,2.4-12.4
	c0.1-0.4,0.2-0.5,0.6-0.5H157h0.4v28.1h0.1c0.1-0.2,0.2-0.4,0.3-0.6c3.7-8.9,7.4-17.9,11.1-26.8c0.1-0.5,0.6-0.8,1.2-0.8
	c8,0,16,0,24,0h0.8l-14.6,75.9h-18.2l5.6-28.5h-0.1c-0.1,0.2-0.2,0.4-0.3,0.6c-3.2,9.1-6.5,18.1-9.7,27.3c-0.1,0.5-0.5,0.8-1,0.7
	c-3.5,0-7,0-10.5,0h-0.7v-28.6h-0.2c-0.2,0.9-0.4,1.8-0.6,2.7c-1.9,8.5-3.9,17-5.8,25.5c-0.1,0.4-0.2,0.5-0.6,0.5h-19.4L118.5,162.7
	z"/>
<path class="st0" d="M63.8,88.3v74.4H43.6V162c0-3,0-6.1,0-9.1c0-0.6-0.1-0.8-0.7-0.8c-4.4,0-8.9,0-13.3,0c-0.4-0.1-0.8,0.2-0.9,0.6
	c-1.2,3.2-2.4,6.3-3.6,9.5c-0.1,0.4-0.4,0.6-0.8,0.5h-19H4.6c0.4-1.2,0.8-2.2,1.2-3.3c8.7-23.5,17.3-46.9,26-70.4
	c0.1-0.5,0.6-0.8,1-0.7c10.1,0,20.1,0,30.2,0L63.8,88.3z M36.2,130.1c0.1,0,0.3,0.1,0.4,0.1h6.4c0.5,0,0.5-0.2,0.5-0.6
	c0-5,0-10,0-14.9c0-0.1,0-0.3,0-0.4h-0.1L36.2,130.1z"/>
<path class="st0" d="M244.6,86.9c-0.2,1.4-0.5,2.7-0.7,4.1l-2.4,14.3c-0.2,1-0.3,1.9-0.5,2.9c0,0.3-0.2,0.5-0.5,0.4h-0.6
	c-6.3,0-12.6,0-18.8,0c-0.6,0-0.9,0.2-1,0.8c-0.5,1.9-1,3.9-1.5,5.9h20.6c-0.3,1.5-0.6,2.9-0.8,4.3c-0.7,3.7-1.5,7.5-2.2,11.2
	c-0.1,0.5-0.3,0.7-0.9,0.7h-18.7c-0.6,0-0.8,0.2-0.9,0.7c-0.5,2.2-1.1,4.4-1.7,6.6c0,0.1,0,0.3-0.1,0.6h20.4l-3.7,23.4H190
	c0.2-1.1,0.4-2.1,0.6-3.2l3-16.8l2.9-16.2l2.7-15.4c1-5.3,1.9-10.7,2.9-16c0.5-2.6,1-5.2,1.4-7.8c0.1-0.4,0.2-0.5,0.6-0.5H244
	L244.6,86.9z"/>
<path class="st0" d="M114.1,141.1l-3.1,21.7h-0.7c-9.9,0-19.7,0-29.6,0c-3,0.1-5.9-1.3-7.7-3.8c-1.5-1.9-2.4-4.2-2.9-6.6
	c0-0.7,0-1.4,0.2-2.1c1.1-7.1,2.1-14.2,3.2-21.3c0.9-6.1,1.8-12.2,2.7-18.3c0.5-3.4,1-6.8,1.8-10.1c1.2-5.8,5.1-10.7,10.5-13
	c1.3-0.6,2.7-0.9,4.1-0.8c10.2,0,20.4,0,30.5,0h0.8c-0.2,1-0.3,2-0.5,3c-0.8,4.8-1.6,9.7-2.4,14.5c-0.3,1.9-0.7,3.9-1,5.8
	c0,0.4-0.3,0.4-0.6,0.4c-5.9-0.1-11.8-0.2-17.7-0.3c-1.1,0-2.2,0.2-3.2,0.6c-1.3,0.5-2.3,1.7-2.5,3.1c-0.8,4.5-1.6,9-2.4,13.5
	c-0.5,3-1.1,5.9-1.6,8.9c-0.2,1.1,0.1,2.1,0.9,2.9c0.9,1,2.1,1.6,3.5,1.6c5.6,0,11.1,0.1,16.7,0.2
	C113.4,141,113.7,141.1,114.1,141.1z"/>
</svg>
