<?xml version="1.0" encoding="utf-8"?>
<!-- Generator: Adobe Illustrator 21.1.0, SVG Export Plug-In . SVG Version: 6.00 Build 0)  -->
<svg version="1.1" id="Layer_1" xmlns="http://www.w3.org/2000/svg" xmlns:xlink="http://www.w3.org/1999/xlink" x="0px" y="0px"
	 viewBox="0 0 250 250" style="enable-background:new 0 0 250 250;" xml:space="preserve">
<style type="text/css">
	.st0{fill:#FE3F55;}
	.st1{fill:#027F56;}
</style>
<g>
	<title>Grocery</title>
	<path class="st0" d="M226.7,135l-2.2,0.8c-1.7,0.6-3.3,1.2-5,1.8l-3.3,1c-1.4,0.4-2.9,0.8-4.4,1.2c-1.5,0.4-2.9,0.7-4.3,1.1
		c-1.9,0.5-3.8,0.7-5.7,0.6H46.3c0.1-0.4,0.3-0.7,0.6-0.9c0.9-1.1,1.9-2.1,2.9-3.2c0.6-0.7,1.1-1.3,1.7-2c0.3-0.4,0.7-0.6,1.1-0.6
		h174.1L226.7,135z"/>
	<path class="st1" d="M213.5,178.7c0.4,0.2,0.9,0.4,1.3,0.4c2.2,0.1,4.5-0.4,6.5-1.3c1.6-0.7,3.1-1.5,4.6-2.5
		c0.8-0.5,1.5-1.1,2.2-1.7c1.3-1.1,2.6-2.4,3.8-3.6c0.5-0.5,0.8-1.1,1.1-1.7c0.5-1,1-2.1,1.5-3.2h-2.5c-0.6,0-0.7,0-0.8-0.7
		c0-0.5,0.1-1,0.3-1.5c0.2-0.5,0.8-0.8,1.3-0.8c0.9,0,1.9,0,2.8,0c0.3,0,0.3,0,0.4-0.3c0.6-2.2,1.6-4.4,2.9-6.3
		c0.6-0.9,1.6-1.6,2.7-1.8c0.6-0.1,1.2,0.2,1.4,0.7c0.2,0.6,0.2,1.2,0,1.8c-0.7,1.8-1.5,3.5-2.4,5.2c-0.1,0.2-0.2,0.4-0.3,0.6h2.1
		c0.7,0,0.8,0.2,0.8,0.8c0.1,0.7-0.1,1.3-0.6,1.8c-0.2,0.2-0.5,0.3-0.8,0.3c-0.7,0.1-1.4,0.1-2,0c-0.5-0.1-1,0.2-1.2,0.7l-1.2,2.3
		c-1.2,2.4-2.5,4.7-3.6,7.1c-0.4,0.8-0.8,1.5-1.1,2.3c-0.1,0.3-0.3,0.7,0,1c0.3,0.3,0.7,0.1,1,0c0.9-0.4,1.8-0.9,2.7-1.5
		c1-0.7,2.1-1.3,3.1-2c0.4-0.3,0.7-0.1,0.8,0.3c0.2,0.8,0.2,1.7-0.1,2.5c-0.2,0.3-0.4,0.5-0.7,0.7c-1.7,1.1-3.5,2-5.3,2.7
		c-1.2,0.6-2.5,0.9-3.9,1c-0.8,0.1-1.6,0-2.3-0.3c-0.7-0.2-1-1-0.8-1.6c0.4-1.1,0.8-2.2,1.3-3.3c0,0,0-0.1,0.1-0.1
		c0-0.1,0.3-0.3,0.1-0.4s-0.3,0-0.5,0.1c-1.3,0.9-2.7,1.9-4,2.8c-1,0.6-2.1,1.2-3.3,1.6c-0.9,0.4-1.8,0.7-2.7,0.9
		c-1.7,0.4-3.4,0.5-5.1,0.3c-1.2-0.1-2.4-0.4-3.4-1.1c-0.4-0.3-0.6-0.7-1.1-0.4c-0.3,0.1-0.5,0.2-0.8,0.3c-1.6,0.7-3.3,1.1-5,1.3
		c-1.3,0.1-2.6,0.1-3.8,0c-2.6-0.1-4.9-1.3-6.6-3.3c-0.2-0.2-0.4-0.5-0.5-0.8c-0.3-0.5-0.4-0.5-0.8-0.1c-0.8,0.9-1.6,1.7-2.4,2.7
		c-0.7,0.7-1.5,1.2-2.5,1.3c-0.7,0.1-1.4-0.2-1.8-0.7c-0.2-0.4-0.2-0.9,0-1.3c0.4-1,0.8-2,1.3-2.9c-0.2-0.2-0.3,0-0.4,0
		c-1.2,0.9-2.4,1.7-3.6,2.4c-1,0.6-2.1,1.2-3.2,1.7c-1.3,0.7-2.8,0.9-4.3,0.7c-1,0-1.8-0.8-1.9-1.8c0-0.6,0.1-1.1,0.4-1.7
		c1-2.1,2.3-4,3.4-5.9c0.3-0.5,0.7-1.1,1-1.6c0.1-0.2,0.4-0.5-0.2-0.6c-1-0.3-2,0.2-2.5,1.1c-0.3,0.4-0.6,0.7-1,1
		c-1.3,1.2-2.7,2.3-4.1,3.4c-1.5,1.1-2.7,1.9-4,2.8c-1.3,0.8-2.7,1.5-4.1,2.1c-1.2,0.6-2.4,1-3.7,1.2c-0.4,0-0.9,0-1.3,0
		c-0.6-0.1-1.1-0.7-1.1-1.3c0-0.2,0-0.4-0.1-0.5c-0.1-0.1-0.3,0.1-0.5,0.2c-0.9,0.7-1.9,1.2-2.9,1.5c-0.9,0.2-1.8,0.2-2.7,0.1
		c-2-0.1-3.8-1.4-4.5-3.3c-0.3-0.9-0.4-1.9-0.2-2.9c0.3-1.9,1.2-3.7,2.7-5c1.6-1.4,3.5-2.5,5.5-3c2.9-0.9,6-1.2,9.1-1
		c0.7,0,1.3,0.2,2,0.3c0.7,0.1,1.1,0.7,1.2,1.3c0,0.6,0,1.3-0.6,1.5c-1,0.3-1.2,1.2-1.6,1.9c-0.8,1.3-1.5,2.7-2.3,4
		c-0.3,0.5-0.6,1.1-0.9,1.6c-0.1,0.2-0.2,0.4,0,0.5c0.1,0.2,0.4,0.3,0.6,0.2c0.7-0.3,1.4-0.6,2-1c1-0.6,2.1-1.2,3.1-1.9
		c1-0.7,1.8-1.3,2.7-2c0.9-0.8,1.8-1.6,2.7-2.5c0.6-0.7,1.2-1.3,1.7-2.1c0.1-0.1,0.1-0.2,0-0.3c-0.8-1.1-0.6-2.7,0.5-3.5
		c0.3-0.3,0.7-0.4,1.1-0.5c0.9-0.2,1.9,0,2.7,0.6c0.5,0.3,0.7,0.8,0.7,1.3c0,0.3,0.1,0.5,0.2,0.7c0.1,0.3,0.4,0.5,0.7,0.4
		c0,0,0,0,0,0c1.2-0.3,2.5-0.3,3.7,0c1.1,0.3,1.8,1.5,1.4,2.6c0,0.1-0.1,0.2-0.1,0.2c-0.7,1.5-1.5,3-2.5,4.3
		c-0.5,0.9-1.1,1.8-1.7,2.7c-0.1,0.1-0.2,0.3-0.1,0.4c0.1,0.2,0.3,0.2,0.5,0.1c0.9-0.4,1.7-0.8,2.5-1.4c1.8-1.3,3.5-2.6,5.3-3.9
		c0.9-0.6,1.7-1.3,2.5-1.9c0.7-0.8,1.4-1.7,1.8-2.7c1.3-2.3,2.5-4.7,3.7-7.1c0.7-1.4,1.3-2.8,2.1-4.2c0.6-1.2,1.4-2.4,2.2-3.6
		c0.7-1,2-1.4,3.2-1.1c0.8,0.1,1.4,0.9,1.2,1.7c0,0.1,0,0.1,0,0.2c-0.3,1.4-0.8,2.7-1.5,3.9c-0.7,1.3-1.5,2.7-2.3,4
		c-0.6,1-1.3,2-1.9,3c-0.9,1.4-1.7,2.8-2.6,4.3c-0.1,0.2-0.2,0.5-0.3,0.7c0,0.1-0.3,0.2-0.1,0.4c0.2,0.1,0.2,0,0.3-0.1
		c0.8-0.6,1.6-1.2,2.4-1.7c1.4-0.9,2.9-1.4,4.5-1.5c0.9-0.1,1.9-0.1,2.8,0.1c1.7,0.3,2.8,1.9,2.5,3.5c-0.1,0.4-0.2,0.8-0.4,1.1
		c-0.6,1.3-1.6,2.4-2.8,3.2c-1.1,0.7-2.3,1.3-3.6,1.7c-1.2,0.4-2.5,0.7-3.7,1c-0.2,0-0.5,0-0.5,0.3c0,0.3,0.2,0.3,0.4,0.4
		c1,0.5,2,0.8,3.1,1c1.3,0.2,2.6,0.2,3.9,0.1c1.5-0.2,3-0.6,4.4-1.2c0.2,0,0.1-0.1,0.1-0.3c-0.5-2.5,0.3-5.1,2.1-6.9
		c1.8-1.8,4.1-3,6.6-3.5c1.1-0.3,2.2-0.4,3.3-0.3c1.3,0,2.6,0.3,3.7,1c0.8,0.6,1.2,1.6,1,2.5c-0.2,1.3-1,2.4-2,3.1
		c-1.3,1-2.6,1.8-4.1,2.5C217,177.3,215.3,178,213.5,178.7z M160.1,169.9c-1.1,0-2.3,0-3.4,0.2c-1.9,0.2-3.7,0.7-5.3,1.6
		c-1.7,0.8-2.9,2.5-3.1,4.3c-0.3,1.1,0.4,2.3,1.5,2.6c0.3,0.1,0.6,0.1,0.9,0c0.6-0.1,1.2-0.3,1.7-0.7c1.9-1.4,3.7-3,5.2-4.9
		C158.5,172.2,159.3,171.1,160.1,169.9L160.1,169.9z M212.3,176.2c2.6-1,4.9-2.3,7.1-4c0.2-0.2,0.4-0.4,0.5-0.6
		c0.3-0.4,0.2-1-0.2-1.4c-0.1-0.1-0.3-0.1-0.4-0.2c-0.5-0.1-1-0.1-1.5,0.1c-1.6,0.5-2.9,1.4-4,2.7
		C212.9,173.8,212.4,175,212.3,176.2L212.3,176.2z M193.9,175.7c2.5-0.5,4.8-1.3,7.1-2.5c0.7-0.3,1.4-0.8,1.9-1.4
		c0.3-0.3,0.4-0.6,0.2-1c-0.2-0.4-0.6-0.6-1-0.5c-0.4,0-0.7,0.1-1.1,0.2c-1.5,0.6-2.8,1.4-4,2.4
		C195.9,173.7,194.9,174.7,193.9,175.7z"/>
	<path class="st1" d="M51.3,179.1c1.1,0.4,2.2,0.4,3.3,0c2.3-0.6,4.5-1.5,6.4-2.8c1.4-0.9,2.8-1.9,4.1-3.1c1.7-1.4,3.4-2.7,5-4.3
		c0.4-0.4,0.6-1,0.7-1.6c0.2-1.2,0.8-2.9,2.3-3.2c1.2-0.2,2.2-0.2,2.7,0.9c0.4,0.8,0.3,1.7-0.2,2.3c-0.5,0.6-0.8,1.5-0.7,2.3
		c0.2,2.1,0,4.3-0.5,6.3c-0.2,0.8-0.6,1.6-1.1,2.3c0.8-0.2,1.5-0.5,2.2-1c2-1.1,3.8-2.5,5.6-3.9c0.8-0.6,1.6-1.3,2.4-1.9
		c1-1,1.8-2.2,2.2-3.6c0.7-1.3,1.3-2.7,1.9-4.1c0.9-1.9,1.8-3.8,2.8-5.7c0.8-1.4,1.7-2.8,2.7-4c0.6-0.7,1.5-1.1,2.4-0.9
		c0.7,0,1.3,0.6,1.3,1.4c0,0.1,0,0.2,0,0.3c-0.2,1.1-0.5,2.1-0.9,3.1c-0.9,2-1.9,3.9-3,5.8c-0.9,1.5-1.9,2.9-2.9,4.4
		c-1.2,2-2.2,4-3.1,6.1l-0.4,0.9c0.5-0.1,0.9-0.4,1.3-0.7c2.4-1.4,4.6-3.1,6.9-4.6c1.1-0.7,2.2-1.3,3.4-1.7c0.8-0.2,1.6-0.3,2.3-0.1
		c0.7,0.2,1.2,0.9,1,1.6c0,0,0,0.1,0,0.1c-0.4,1.3-1,2.6-1.8,3.7c-0.8,1.3-1.7,2.7-2.6,4.1c-0.1,0.2-0.4,0.5-0.2,0.8s0.5,0,0.8,0
		c1.2-0.5,2.3-1.1,3.3-1.8c0.7-0.4,1.3-0.8,2-1.3c0.3-0.2,0.5-0.1,0.6,0.2c0.7,1.3,0.2,2.9-1.2,3.6c0,0,0,0,0,0
		c-1.5,0.9-3.1,1.7-4.7,2.4c-1.4,0.6-2.9,0.9-4.5,0.9c-1.4-0.1-2.3-1.1-1.6-2.6c0.9-2,2.1-3.8,3.2-5.7c0.1-0.2,0.4-0.5,0.3-0.7
		c-0.1-0.2-0.5,0-0.7,0.2c-1.2,0.7-2.3,1.5-3.5,2.2s-2.4,1.7-3.6,2.5c-1.6,1.2-3.2,2.4-4.9,3.5c-0.5,0.4-1,0.6-1.6,0.7
		c-0.8,0.1-1.5-0.4-1.6-1.2c0-0.3,0-0.5,0.1-0.8c0.3-0.8,0.6-1.6,1-2.4c0-0.1,0.3-0.3,0.1-0.4c-0.2-0.1-0.3,0-0.4,0.1
		c-1.7,1.2-3.5,2.3-5.4,3.1c-1.4,0.6-3,0.9-4.6,0.9c-0.9,0-1.8,0.1-2.7,0.4c-0.7,0.1-1.3,0.1-2-0.1c-0.8-0.1-1.4-0.5-1.9-1.1
		c-0.3-0.3-0.4-0.8-0.3-1.2c0.1-0.5,0.5-0.6,1-0.6c0.7,0,1.4,0,2.1,0.2c0.6,0.2,1.3,0.1,1.9-0.2c0.6-0.5,1.1-1.2,1.4-2
		c0.3-0.9,0.6-1.9,0.7-2.9c0-0.2,0-0.4,0-0.7c-0.1-0.8-0.1-0.8-0.7-0.3c-1.3,1.1-2.7,2.2-4,3.3c-1.1,0.9-2.3,1.8-3.4,2.6
		c-1.6,1.1-3.4,1.9-5.3,2.6c-1,0.3-2.1,0.5-3.1,0.7c-1.1,0.1-2.2,0.2-3.3,0.1c-1.2,0-2.4-0.5-3.4-1.3c-0.2-0.2-0.5-0.2-0.7-0.2
		c-1.4,0.4-2.9,0.7-4.3,1c-1.4,0.3-2.7,0.4-4.1,0.5c-1.1,0.1-2.2,0.1-3.3-0.3c-0.9-0.3-1.4-1.3-1-2.2c0,0,0-0.1,0-0.1
		c0.5-1.3,1.1-2.5,1.9-3.7c0.8-1.3,1.6-2.6,2.4-3.9c0.1-0.2,0.3-0.4,0.2-0.6s-0.4-0.1-0.6-0.2c-1.1-0.2-1.7,0.7-2.3,1.3
		c-1.1,1-2.3,2-3.4,3c-1.4,1.2-3,2.3-4.6,3.3c-0.9,0.6-1.9,1.1-3,1.2c-0.7,0-1.5-0.2-2.1-0.7c-1-0.6-1-0.8,0-1.3
		c1.8-0.9,3.5-2,5.1-3.1c0.7-0.5,1.3-1,1.9-1.5c1-0.8,1.9-1.8,2.8-2.7c0.3-0.2,0.4-0.6,0.7-0.8c0.1-0.1,0.1-0.4,0-0.5c0,0,0,0,0,0
		c-0.8-1-0.6-2.4,0.4-3.2c0.1,0,0.1-0.1,0.2-0.1c1.3-0.8,3-0.6,4,0.6c0.2,0.4,0.3,0.8,0.3,1.2c0.1,0.5,0.3,0.7,0.9,0.6
		c0.7-0.1,1.4-0.2,2.2-0.2c0.7,0,1.4,0.3,2,0.7c0.7,0.6,0.9,1.7,0.4,2.5c-0.7,1.6-1.6,3.1-2.5,4.5c-0.4,0.7-0.8,1.3-1.2,2
		c-0.1,0.2-0.3,0.5-0.2,0.7s0.4,0.2,0.7,0.2c1-0.2,2-0.3,3.1-0.5c0.7-0.1,1.4-0.3,2.1-0.5c0.3-0.1,0.4-0.2,0.3-0.5
		c-0.2-2,0.5-3.9,1.8-5.4c2-2.5,4.8-3.4,7.8-4.1c1.2-0.3,2.3-0.3,3.5-0.2c1.1,0,2.1,0.5,2.8,1.4c0.8,1.2,0.7,2.7-0.3,3.7
		c-1,1.3-2.3,2.4-3.8,3.1c-1.7,1-3.4,1.9-5.2,2.6C51.6,178.9,51.4,179,51.3,179.1z M57,171.8c0-0.5-0.4-1-0.9-1
		c-0.3-0.1-0.6-0.1-1,0c-1.6,0.4-3,1.2-4.1,2.5c-0.8,0.8-1.3,1.7-1.5,2.8c0,0.4,0,0.5,0.4,0.3c1.5-0.6,3-1.3,4.5-2.2
		c0.8-0.4,1.6-1,2.2-1.7C56.9,172.3,57,172,57,171.8L57,171.8z"/>
	<path class="st0" d="M199.9,142.5c-0.5,0.2-1,0.3-1.5,0.4c-1.2,0.3-2.4,0.4-3.7,0.7c-1.4,0.3-2.9,0.5-4.3,0.7
		c-1.4,0.2-2.8,0.5-4.3,0.7c-1.4,0.2-2.7,0.4-3.9,0.5c-1.2,0.2-2.8,0.3-4.1,0.6c-1,0.2-2,0.2-2.9,0.3c-1.3,0.2-2.7,0.3-4,0.5
		c-0.8,0.1-1.6,0.1-2.3,0.2c-1.3,0.1-2.7,0.2-4,0.4c-0.9,0.1-1.9,0.1-2.9,0.2s-2.2,0.1-3.2,0.3c-0.5,0.1-1.1,0-1.6,0.1
		c-1.3,0.1-2.7,0.1-4,0.2c-3.1,0.2-6.3,0.3-9.5,0.4c-2.1,0.1-4.2,0.1-6.3,0.2c-6,0.2-12,0.2-18,0.1c-3,0-6-0.1-9-0.2
		s-6.3-0.3-9.4-0.4c-1.5-0.1-3.1-0.1-4.6-0.2c-1.5-0.1-3-0.1-4.5-0.3c-1.2-0.1-2.4-0.2-3.6-0.3c-1.2-0.1-2.7-0.3-4-0.4
		c-0.9-0.1-1.7-0.1-2.5-0.2c-1.1-0.1-2.2-0.3-3.4-0.4l-2.1-0.2l-3.1-0.4c-0.9-0.1-1.8-0.2-2.7-0.3s-1.7-0.3-2.5-0.4
		c-0.8-0.1-1.6-0.2-2.5-0.3l-4.3-0.7l-4-0.7c-1.3-0.2-2.7-0.5-4-0.7l-1.9-0.4c-0.1,0-0.3-0.1-0.3-0.2L199.9,142.5z"/>
	<path class="st1" d="M127.7,172.9c0.8-0.9,1.5-1.7,2.3-2.5c1-1.1,2.1-2.2,3.1-3.3c1.8-1.9,3.6-3.7,5.5-5.6c1.1-1.1,2.3-2.1,3.5-3.2
		c1.6-1.4,3.2-2.8,5-4c1.3-1,3-1.3,4.6-1c1.6,0.3,2.1,1.4,1.5,3c-0.5,1.1-1.1,2.1-1.8,3.1c-1.5,2.2-3,4.4-4.5,6.7
		c-0.9,1.5-1.9,2.9-2.7,4.4c-0.7,1.2-1.3,2.4-1.9,3.6c-0.8,1.7-1.4,3.4-1.8,5.2c-0.2,0.7-0.2,1.3-0.2,2c0,0.4-0.1,0.6-0.5,0.6
		c-1.1,0.2-2.2,0.2-3.4,0.3c-0.8,0-0.9-0.3-0.9-1.1c0.1-1.5,0.4-3.1,0.9-4.5c1-2.7,2.3-5.4,3.8-7.9c1.4-2.4,3-4.7,4.5-7
		c0,0,0,0,0-0.1c-0.2,0-0.4,0.1-0.5,0.2c-0.8,0.9-1.7,1.7-2.6,2.5c-1.5,1.3-2.9,2.8-4.2,4.2c-1.4,1.4-2.7,2.8-4,4.2
		c-1.6,1.7-3.2,3.4-4.7,5.1c-0.9,1.2-2,2.2-3.1,3.2c-0.9,0.8-2.2,1.1-3.4,0.8c-0.6-0.3-0.9-0.8-1-1.5c0-1,0.2-2.1,0.4-3.1
		c0.3-1.3,0.7-2.7,1.1-4c0.5-1.5,0.9-3.1,1.4-4.6c0.5-1.5,1.1-3.4,1.6-5.1c0.3-1,0.7-1.9,0.9-2.9c-0.4,0.7-0.8,1.3-1.2,2.1
		c-0.4,0.8-1,1.8-1.5,2.7c-0.7,1.3-1.5,2.7-2.3,3.9c-0.8,1.2-1.7,2.6-2.5,3.9c-1,1.5-2,3.1-3.2,4.5c-1.2,1.6-2.6,3.2-4,4.6
		c-0.1,0.2-0.3,0.3-0.5,0.3h-5.6c-0.1,0-0.2,0-0.3,0c1.6-1.4,3.1-2.8,4.6-4.4c1.1-1.2,2.2-2.5,3.2-3.8c1-1.3,2.1-2.9,3.2-4.4
		c2.2-3.1,4.1-6.4,6.2-9.6c1.1-1.8,2.2-3.6,3.4-5.3c0.8-1.3,2.3-1.9,3.8-1.6c0.7,0,1.3,0.3,1.8,0.8c0.5,0.6,0.7,1.4,0.5,2.1
		c-0.2,1.5-0.6,3-1,4.5c-0.8,2.8-1.6,5.5-2.5,8.2c-0.3,1.1-0.7,2.3-1,3.4C127.7,172.7,127.7,172.8,127.7,172.9z"/>
	<path class="st0" d="M227,103.1h-97.8c1.1-0.2,2.2-0.4,3.3-0.6c1.7-0.3,3.3-0.8,5-1.3c1.6-0.5,3.1-1.2,4.5-2c1.1-0.6,2.2-1.3,3.2-2
		c0.3-0.2,0.6-0.3,0.9-0.3h60c1.1,0.1,2.3,0.3,3.4,0.7c3.1,0.7,6.1,1.6,9.2,2.6C221.5,101,224.3,102,227,103.1z"/>
	<path class="st0" d="M119.3,103.1H23.5c0.6-0.3,1.3-0.6,1.9-0.8c3.4-1.3,6.8-2.4,10.3-3.4c2.7-0.8,5.3-1.4,8-2.1c0.2,0,0.4,0,0.6,0
		h58.1c0.5,0.1,1,0.3,1.3,0.7c1.9,1.4,4,2.5,6.3,3.3c2.2,0.8,4.5,1.5,6.8,1.9C117.6,102.9,118.5,103,119.3,103.1L119.3,103.1z"/>
	<path class="st0" d="M208.2,126.3h-32.6c-0.7,0-0.7,0-0.5-0.7c0.2-0.7,0.5-1.7,0.7-2.5c0.1-0.4,0.2-0.4,0.5-0.4h5.9
		c3.7,0,7.5,0,11.3,0c0.4,0,0.6-0.2,0.7-0.5c0.2-0.7,0.4-1.4,0.6-2.1c0-0.3,0.3-0.5,0.6-0.5c0,0,0,0,0,0h49.6c0.4,0,0.5,0.1,0.4,0.5
		c-0.5,2.2-1.7,4.3-3.3,5.9c-0.2,0.2-0.6,0.4-0.9,0.3L208.2,126.3z"/>
	<path class="st0" d="M195.1,118.7l0.9-3.3c-0.2,0-0.4,0-0.6,0h-17.1c-0.6,0-0.7,0-0.5-0.6c0.2-0.6,0.5-1.5,0.8-2.3
		c0.1-0.4,0.3-0.5,0.7-0.4h4.9c19,0,38,0,57,0c0.9,0,1.2,0.5,1.6,1c1,1.2,1.8,2.6,2.2,4.1c0,0.1,0.1,0.2,0.1,0.3
		c0.2,1.3,0.2,1.3-1.1,1.3h-49V118.7z"/>
	<path class="st0" d="M65.6,104.1c-0.9,0.9-1.8,1.8-2.6,2.8c-0.9,1.1-1.9,2.1-2.8,3.2c-0.5,0.7-1.3,1-2.2,0.9c-15.9,0-31.9,0-47.8,0
		c-0.2,0-0.5,0.1-0.5-0.1c-0.1-0.2,0.2-0.3,0.4-0.4c1.3-1,2.7-2,4.2-2.9c2.1-1.3,4.3-2.4,6.5-3.4c0.2-0.1,0.4-0.1,0.6-0.1
		L65.6,104.1L65.6,104.1z"/>
	<path class="st0" d="M58.6,112l-3.1,3.6c-0.8,0.9-1.7,1.9-2.5,2.8c-0.1,0.2-0.3,0.2-0.5,0.2H6c-0.8,0-0.7,0-0.6-0.7
		c0.2-1.4,0.7-2.7,1.5-3.8c0.5-0.7,1-1.4,1.6-2c0.1-0.1,0.2-0.1,0.3-0.1c0.2,0,0.3,0,0.5,0L58.6,112L58.6,112z"/>
	<path class="st0" d="M126.3,67.4c3.2,0.2,6.3,0.7,9.3,1.7c2.6,0.8,5.1,2,7.4,3.4c0.4,0.3,0.3,0.4,0,0.6c-2.4,1.7-4.7,3.5-7,5.3
		c-1.1,0.7-2.4,1.1-3.7,1.3c-1.8,0.3-3.5,1.1-4.8,2.4c-0.9,1-1.6,2.2-1.9,3.5c-0.1,0.4-0.2,0.7-0.4,1c-0.4,0.6-1,0.7-1.3,0
		s-0.7-1.2-1-1.8c-0.8-1.6-1.9-3-3.3-4.1c-1.1-0.8-2.3-1.3-3.6-1.3c-1.7-0.2-3.3-0.9-4.5-2c-1.1-0.9-2.4-1.7-3.5-2.7
		c-0.8-0.6-1.5-1.2-2.3-1.8c-0.3-0.2-0.3-0.3,0-0.5c0.9-0.5,1.7-1.1,2.7-1.5c1.7-0.8,3.4-1.5,5.2-2c1.8-0.5,3.6-0.9,5.5-1.1
		c1.4-0.2,2.8-0.3,4.3-0.3c0.3,0,0.4,0,0.4,0.4c-0.2,1.8-0.7,3.6-1.6,5.1c-0.9,1.7-1.3,3.6-1.1,5.5c0.2,1.4,0.7,2.8,1.4,4
		c0.4,0.7,0.9,1.4,1.4,2.1c0.5,0.6,0.7,0.6,1.2,0.1c1-1.2,1.8-2.5,2.3-4c0.5-1.2,0.8-2.6,0.7-3.9c0-1.2-0.3-2.3-0.8-3.4
		c-0.6-1.2-1.1-2.4-1.4-3.6c-0.1-0.7-0.2-1.4-0.2-2.1c0-0.3,0.1-0.3,0.3-0.3L126.3,67.4z"/>
	<path class="st0" d="M240.4,127.2c-0.2,0.5-0.7,0.7-1,0.9c-1.2,0.9-2.4,1.7-3.7,2.5c-1.5,0.8-2.9,1.7-4.4,2.4c-1,0.6-2.2,0.9-3.3,1
		c-11.8,0-23.6,0-35.4,0c-0.7,0-0.6,0-0.5-0.7c0.3-1,0.5-2.1,0.7-3.1c0.2-1,0.4-1.8,0.6-2.7c0-0.1,0.1-0.3,0.3-0.3
		c0.1,0,0.2,0,0.3,0H240.4L240.4,127.2z"/>
	<path class="st0" d="M52.1,119.7l-2.7,3.1c-1,1.1-1.9,2.2-2.9,3.4c-0.1,0.1-0.2,0.2-0.4,0.2H9.5c-0.4,0-0.7-0.1-0.9-0.4
		c-1.1-1.1-2-2.4-2.7-3.8c-0.3-0.7-0.5-1.4-0.6-2.1c0-0.3,0-0.4,0.4-0.4L52.1,119.7L52.1,119.7z"/>
	<path class="st0" d="M241,111.1h-43.4c-0.7,0-0.7,0-0.6-0.7c0.4-1.9,0.9-3.9,1.3-5.9c0.1-0.4,0.3-0.4,0.6-0.4h10.7
		c6.4,0,12.8,0,19.2,0c0.6,0,1.2,0.2,1.8,0.5c2.6,1.2,5.1,2.6,7.5,4.2C239.2,109.5,240.1,110.2,241,111.1z"/>
	<path class="st1" d="M13.6,170.7l2-2.3c0.4-0.4,0.7-0.8,1.1-1.3c0.3-0.4,1-0.5,1.6-0.6c0.4,0,0.9,0,1.3,0.1c0.5,0.1,1-0.2,1.2-0.7
		c1.3-1.9,2.6-3.8,4-5.7c0.5-0.6,0.9-1.3,1.3-2h-3.9c0.3-0.5,0.7-1,1.1-1.4c0.5-0.6,1-1.2,1.5-1.8c0.5-0.6,1.2-0.9,2-0.8
		c1.8-0.1,3.6-0.2,5.3-0.3c1.7-0.1,3.2-0.2,4.8-0.3l4.8-0.3l4.4-0.4c0.5,0,1.1-0.1,1.7-0.1c-0.7,1.1-1.4,2-2.1,3
		c-1,1.2-2.5,1.9-4,1.7c-1,0-1.9,0-2.9,0.1c-2.5,0.1-5.1,0.2-7.6,0.2c-0.2,0-0.4,0.1-0.5,0.2c-1.9,2.7-3.7,5.5-5.6,8.3H31
		c-0.4,0.7-0.8,1.3-1.3,1.9c-0.4,0.5-0.8,1.1-1.3,1.5c-0.4,0.5-1,0.8-1.6,0.8c-1.5,0-3,0-4.5,0c-0.2,0-0.5,0.1-0.6,0.3
		c-1,1.3-2,2.7-3,3.9c-1,1.2-2,2.4-3.1,3.6c-1.1,1.2-2.3,2.4-3.6,3.5c-0.2,0.2-0.6,0.3-0.9,0.3c-1.7,0-3.4,0-5.1,0
		c4.2-3.3,8.1-7.2,11.4-11.4h-4L13.6,170.7z"/>
	<path class="st0" d="M116.1,88.2c-1.7,0.1-3.5-0.2-5.1-0.9c-0.9-0.4-1.6-1-2.4-1.4c-1.3-0.6-2.6-1.3-3.8-2.1l-5.6-3
		c-0.5-0.3-0.5-0.5-0.2-1.1c0.6-1.2,1.3-2.3,2.1-3.3c0.7-0.8,1.4-1.6,2.3-2.3c0.1-0.1,0.3-0.1,0.4,0c0,0,0,0,0,0l5.3,4
		c0.7,0.5,1.3,1,2,1.4c0.7,0.5,1.3,1.2,1.7,2c0.6,1.2,1.3,2.4,2.1,3.6c0.8,1.1,2.1,1.9,3.5,2.1c1.9,0.3,3.5,1.3,4.7,2.8
		c0.2,0.3,0.5,0.5,0.8,0.7c0.5,0.5,1.3,0.5,1.8,0c0,0,0.1-0.1,0.1-0.2c0.3-0.3,0.5-0.7,0.8-1c1.2-1.4,3-2.3,4.8-2.5
		c1.7-0.2,3.2-1.4,3.9-3c0.4-1,0.9-1.9,1.5-2.8c0.8-0.9,1.7-1.7,2.7-2.4c1.4-1.2,2.9-2.3,4.3-3.4c0.4-0.3,0.8-0.7,1.2-1
		c0.2-0.2,0.5-0.2,0.7-0.1c0,0,0.1,0,0.1,0.1c1.9,1.6,3.4,3.6,4.3,5.9c0.1,0.4,0.1,0.6-0.3,0.8c-0.7,0.4-1.5,0.7-2.2,1.1l-2.9,1.5
		l-5,2.7c-0.4,0.2-0.8,0.5-1.3,0.8c-1.1,0.6-2.2,0.9-3.4,1.1c-1.3,0.2-2.7,0-4,0.2c-1.6,0-3.2,0.8-4.2,2.1c-0.4,0.6-0.8,1.3-1.1,1.9
		c-0.2,0.5-0.8,0.8-1.4,0.6c-0.3-0.1-0.5-0.3-0.6-0.6c-0.3-0.6-0.6-1.2-1-1.8c-0.9-1.3-2.3-2.1-3.9-2.2
		C117.7,88.2,116.9,88.2,116.1,88.2z"/>
	<path class="st0" d="M201.8,95.8c-0.2,0-0.4,0-0.5,0h-53.9c-0.1,0-0.3,0.1-0.4-0.1c-0.1-0.2,0.1-0.2,0.2-0.3l0.9-0.9
		c1.4-1.4,2.5-3.1,3.3-4.9c0.1-0.2,0.2-0.2,0.3-0.2l2.5,0.2c0.6,0,1.2,0,1.8,0.1c1.2,0.1,2.4,0.1,3.6,0.2c1.4,0.1,2.9,0.3,4.3,0.4
		c0.9,0.1,1.8,0.1,2.8,0.2c1.2,0.1,2.4,0.3,3.6,0.4l2.3,0.2l3.2,0.4l2.8,0.3l3.4,0.4l3.2,0.5c1.5,0.2,2.9,0.5,4.4,0.7s3,0.5,4.5,0.7
		c2.7,0.5,5.2,1,7.9,1.5C201.8,95.7,201.8,95.8,201.8,95.8z"/>
	<path class="st0" d="M48.7,95.7c1.5-0.3,3.1-0.6,4.7-0.9c2.4-0.4,4.8-0.9,7.2-1.3c1.7-0.3,3.3-0.5,5-0.8c1.7-0.3,3.1-0.5,4.7-0.7
		c1.1-0.2,2.3-0.3,3.5-0.4c1.3-0.2,2.7-0.3,4.1-0.5c1.1-0.1,2.2-0.2,3.3-0.3l3.6-0.4c0.9-0.1,1.8-0.1,2.7-0.2l4.7-0.4
		c1.2-0.1,2.3-0.1,3.5-0.2c0.3,0,0.6,0,0.9-0.1c0.3-0.1,0.6,0,0.7,0.3c0,0,0,0,0,0.1c0.8,1.7,1.8,3.3,3.2,4.7
		c0.4,0.4,0.8,0.7,1.2,1.2L48.7,95.7L48.7,95.7z"/>
	<path class="st0" d="M122.8,98.3c0,0.8,0,1.6,0,2.4c0,0.5-0.1,0.6-0.6,0.6c-2.2-0.1-4.3-0.3-6.4-0.8c-2.3-0.5-4.6-1.2-6.8-2.2
		c-2.2-1-4.2-2.3-6-3.8c-2.1-1.7-3.6-4-4.5-6.5c-0.5-1.4-0.7-3-0.5-4.5c0-0.2,0-0.5,0-0.7c0-0.5,0.3-0.4,0.5-0.2l6,3.4
		c1.6,0.9,3.3,1.9,4.9,2.7c1.2,0.7,2.1,1.7,2.8,2.9c0.6,1.3,1.5,2.3,2.7,3.2c1.5,0.9,3.1,1.5,4.9,1.7c0.8,0,1.7-0.2,2.4-0.7
		c0.6-0.3,0.6-0.3,0.6,0.4S122.8,97.5,122.8,98.3z"/>
	<path class="st0" d="M10.1,127.2h35.4c-0.4,0.4-0.7,0.8-1,1.2l-3.6,4.1c-0.1,0.1-0.2,0.2-0.3,0.4c-0.5,0.7-1.3,1.1-2.2,1
		c-5.3,0-10.7,0-16.1,0c-0.6,0-1.2-0.1-1.7-0.4c-3.1-1.3-6-3-8.7-4.9C11.2,128.3,10.6,127.8,10.1,127.2z"/>
	<path class="st0" d="M150.2,82.3c0.3,1.1,0.3,2.3,0.1,3.5c-0.2,1.6-0.8,3.1-1.6,4.5c-0.8,1.4-1.8,2.6-3,3.7c-1.2,1.1-2.5,2-3.8,2.8
		c-1.3,0.8-2.7,1.5-4.2,2c-1.5,0.5-3,1-4.5,1.3c-1.5,0.3-3,0.6-4.5,0.8c-0.8,0.1-1.7,0.1-2.5,0.2c-0.2,0-0.4,0-0.4-0.3
		c0-1.9,0-3.7,0-5.7c0.6,0.3,1.2,0.6,1.8,0.8c1,0.2,2.1,0.1,3.1-0.2c1.3-0.3,2.6-0.9,3.6-1.7c0.7-0.6,1.2-1.3,1.6-2.1
		c0.3-0.6,0.7-1.2,1.1-1.8c0.6-0.8,1.4-1.5,2.3-1.9c2.8-1.5,5.6-3,8.3-4.6C148.5,83.2,149.4,82.8,150.2,82.3z"/>
	<path class="st0" d="M109.8,126.3H99c-0.3,0-0.5,0-0.4-0.4c0.5-1.7,0.8-3.5,1.3-5.2c0.3-1.1,0.3-1.1,1.5-1.1h20.8
		c0.6,0,0.6,0,0.5,0.6c-0.5,1.9-1,3.7-1.3,5.6c-0.1,0.4-0.3,0.5-0.7,0.5H109.8z"/>
	<path class="st0" d="M100.4,118.7l1.2-4.9c0.1-0.4,0.2-0.7,0.3-1.1c0-0.5,0.3-0.6,0.8-0.6h21.4c0.6,0,0.6,0,0.5,0.6l-1.2,5
		c0,0.3-0.1,0.5-0.2,0.8s-0.2,0.2-0.4,0.2L100.4,118.7L100.4,118.7z"/>
	<path class="st0" d="M52.9,133.9c0.3-0.5,0.7-0.9,1.1-1.3c0.9-1.1,1.9-2.1,2.8-3.2c0.3-0.3,0.6-0.7,0.9-1c0.2-0.4,0.6-0.6,1-0.5H74
		c0.3,0,0.5,0,0.6,0.5c0.1,1.2,0.3,2.4,0.4,3.5c0,0.5,0.1,1,0.2,1.5c0.1,0.5-0.1,0.5-0.4,0.5c-1.8,0-3.7,0-5.5,0L52.9,133.9
		L52.9,133.9z"/>
	<path class="st0" d="M94.7,104.1c-0.8,0.9-1.3,2.1-1.5,3.3c-0.3,1.1-0.6,2.3-0.9,3.4c0,0.2-0.2,0.3-0.4,0.3h-7.8
		c-0.3,0-0.3-0.2-0.3-0.3c-0.1-0.9-0.2-1.8-0.2-2.7c-0.2-1.2-0.7-2.3-1.5-3.2c-0.2-0.2-0.4-0.4-0.8-0.7L94.7,104.1z"/>
	<path class="st0" d="M143.2,117.1c-0.2-1.2-0.3-2.3-0.5-3.5c-0.2-1.4-0.4-2.8-0.6-4.2c-0.1-1.1-0.2-2.1-0.5-3.1
		c-0.3-0.7-0.7-1.3-1.3-1.8c-0.1-0.1-0.3-0.1-0.2-0.3c0.1-0.2,0.2-0.1,0.4-0.1h12c0.1,0,0.3,0,0.4,0c-1,0.4-1.8,1.1-2.5,1.9
		c-0.5,0.7-1,1.5-1.5,2.2l-2.2,3.4l-2.2,3.3L143.2,117.1z"/>
	<path class="st0" d="M141.9,133.9l10.7-15.6h0.1c-0.2,0.7-0.3,1.5-0.5,2.2c-1.1,4.3-2.2,8.6-3.2,12.9c0,0.2-0.1,0.3-0.3,0.3
		L141.9,133.9z"/>
	<path class="st0" d="M129.2,133.9l4.1-16.2h0.1c0.1,1.1,0.2,2.2,0.3,3.3c0.1,1.1,0.3,2.5,0.4,3.7c0.1,0.9,0.1,1.7,0.2,2.6
		c0.1,1.2,0.3,2.4,0.4,3.6c0.1,0.9,0.1,1.8,0.2,2.7c0,0.3-0.1,0.4-0.4,0.4L129.2,133.9z"/>
	<path class="st0" d="M87.8,112c1.2,0,2.3,0,3.5,0c0.4,0,0.5,0,0.4,0.5c-0.5,1.9-1,3.9-1.5,5.8c-0.1,0.3-0.2,0.3-0.4,0.3h-5.1
		c-0.4,0-0.5-0.1-0.5-0.5c-0.1-1.8-0.3-3.6-0.4-5.4c0-0.7,0-0.8,0.7-0.8L87.8,112z"/>
	<path class="st0" d="M73,110.6c0.2,0.6,0.3,1.3,0.3,1.9c0.2,1.5,0.2,2.9,0.3,4.4c0,0.6,0.1,1.3,0.2,1.9c0,0.3,0,0.4-0.3,0.4h-7.8
		h-0.2L73,110.6z"/>
	<path class="st0" d="M119.4,104.1h0.5c2.2,0,4.3,0,6.5,0c0.4,0,0.5,0.2,0.4,0.5c-0.6,2-1.1,4.1-1.6,6.1c-0.1,0.3-0.2,0.4-0.5,0.4
		h-4.1c-0.1,0-0.3,0-0.4-0.1c-0.1-0.1,0.1-0.2,0.2-0.3c0.8-1.3,1.1-2.9,0.7-4.3C120.8,105.5,120.2,104.7,119.4,104.1z"/>
	<path class="st0" d="M167.4,133.9h-8c-0.4,0-0.5-0.1-0.4-0.5c0.4-1.3,0.7-2.7,1.1-4.1c0.2-0.6,0.4-1.2,0.5-1.7
		c0-0.3,0.1-0.3,0.4-0.3h3.1c0.2,0,0.3,0,0.3,0.3c-0.2,1.6,0.1,3.3,1,4.7c0.4,0.6,1,1.1,1.7,1.5L167.4,133.9z"/>
	<path class="st0" d="M38.9,134.9l-3.3,3.8c-0.2,0.2-0.4,0.1-0.6,0c-2.2-0.6-4.4-1.3-6.7-2.1c-1.5-0.5-3-1.1-4.5-1.8L38.9,134.9z"/>
	<path class="st0" d="M87.1,119.7h2.5c0.2,0,0.3,0,0.2,0.3c-0.5,2-1.1,4-1.6,6.1c0,0.2-0.1,0.3-0.4,0.3h-2.9c-0.2,0-0.2,0-0.3-0.2
		c-0.1-1.3-0.2-2.7-0.3-4c0-0.7-0.1-1.3-0.2-2c0-0.3,0-0.4,0.3-0.4L87.1,119.7z"/>
	<path class="st0" d="M120.9,127.2c-0.4,1.5-0.7,3-1.1,4.5c-0.2,0.7-0.3,1.3-0.5,2c0,0.1,0,0.3-0.3,0.3c-1.4,0-2.9,0-4.4,0
		c0.3-0.8,0.5-1.6,0.7-2.4c0.3-1.1,0.7-2.1,1.1-3.2c0.1-0.3,0.2-0.5,0.2-0.8c0-0.1,0.1-0.3,0.4-0.3L120.9,127.2z"/>
	<path class="st0" d="M161,126.3l1.2-4.3c0.2-0.7,0.4-1.5,0.6-2.2c0-0.2,0.1-0.2,0.3-0.2h3c0.4,0,0.3,0.2,0.2,0.4
		c-0.3,1.2-0.6,2.4-0.9,3.6c-0.2,0.8-0.5,1.6-0.7,2.4c0,0.2-0.2,0.3-0.4,0.3L161,126.3z"/>
	<path class="st0" d="M163.1,118.7c0.6-2.1,1.2-4.2,1.7-6.3c0.1-0.3,0.2-0.4,0.5-0.4c0.9,0,1.7,0,2.6,0c0.3,0,0.4,0.2,0.3,0.4
		c-0.5,2-1,4-1.5,5.9c0,0.2-0.1,0.3-0.3,0.3C165.3,118.7,164.2,118.7,163.1,118.7z"/>
	<path class="st0" d="M90.8,133.9h-5c-0.3,0-0.3-0.1-0.4-0.4c-0.2-1.2-0.2-2.4-0.3-3.6c0-0.7-0.1-1.4-0.2-2.1
		c-0.1-0.7,0-0.6,0.5-0.6s1.4,0,2.1,0c0.3,0,0.4,0.1,0.4,0.4c-0.4,2.1,0.2,4.2,1.8,5.6C90.1,133.5,90.4,133.7,90.8,133.9z"/>
	<path class="st0" d="M166.9,111.1h-1.3c-0.3,0-0.3,0-0.3-0.4c0.4-1.3,0.8-2.6,1.1-3.9c0.2-0.7,0.4-1.5,0.6-2.2
		c0-0.3,0.2-0.5,0.4-0.5c0,0,0.1,0,0.1,0c0.8,0,1.5,0,2.3,0c0.3,0,0.4,0.1,0.3,0.4c-0.4,1.6-0.8,3.3-1.2,4.9
		c-0.1,0.5-0.3,0.9-0.4,1.4c0,0.2-0.2,0.2-0.4,0.2H166.9z"/>
</g>
</svg>
