<?xml version="1.0" encoding="utf-8"?>
<!-- Generator: Adobe Illustrator 21.1.0, SVG Export Plug-In . SVG Version: 6.00 Build 0)  -->
<svg version="1.1" id="Layer_1" xmlns="http://www.w3.org/2000/svg" xmlns:xlink="http://www.w3.org/1999/xlink" x="0px" y="0px"
	 viewBox="0 0 250 250" style="enable-background:new 0 0 250 250;" xml:space="preserve">
<style type="text/css">
	.st0{fill:#167BBC;}
	.st1{opacity:0.5;fill:#FDFEFE;}
	.st2{fill:#EB0D0D;}
	.st3{fill:#FDFEFE;}
</style>
<title>CR</title>
<g>
	<path class="st0" d="M65.9,75.7c17.2-1.7,34.4-3.4,51.5-5.3c6.3-0.7,12.4,0.1,18.6,0.6c26,1.9,52,4,78,6c9.3,0.7,18.7,1.5,28.1,2.1
		c2,0.1,2.9,0.7,2.9,2.9c-0.1,5.3-0.3,10.6-0.7,15.9c-0.3,4.1,0.1,8.3-0.1,12.5c-0.3,4.9,0,9.9-0.5,14.7c-0.7,6.1,0.1,12.2-0.6,18.2
		c-0.7,6-0.2,12.3-0.5,18.5c-0.1,2.3-1,3.1-3,3.3c-37.7,4.4-75.3,9.9-113,14.8c-6.1,0.8-12.2-0.5-18.3-1
		C74.8,175.9,41.4,173,8,170.3c-2.3-0.2-3-0.7-3-3.2c0.4-24.5,0.7-49.1,1-73.6c0-3.4,0.2-6.8,0.1-10.2c0-1.3,0.4-1.8,1.8-1.9
		C27.3,79.5,46.6,77.6,65.9,75.7z M10.5,126L10.5,126c-0.2,12.1-0.3,24.2-0.6,36.4c0,1.5,0.3,2.3,2,2.4c3.1,0.1,6.2,0.5,9.3,0.8
		l100,8.5c1.7,0.1,3.5,0.1,5.2-0.2c15-2,30-4,45-6c21.4-2.9,42.9-5.7,64.3-8.5c1.9-0.2,2.4-1,2.4-2.7c0.2-9.1,0.6-18.2,0.9-27.3
		c0.4-14,0.9-28.1,1.3-42.1c0.1-1.9-0.6-2.6-2.5-2.7c-3.5-0.1-7-0.5-10.4-0.8c-29.2-2.2-58.4-4.5-87.6-6.6c-6.7-0.5-13.5-1.7-20.3-1
		c-13.2,1.3-26.4,2.7-39.6,4.1c-22,2.2-44,4.4-66,6.6c-2.3,0.2-3,1.1-3,3.4C10.9,102.1,10.7,114.1,10.5,126L10.5,126z"/>
	<path class="st1" d="M10.5,126c0.1-11.9,0.3-23.9,0.4-35.8c0-2.3,0.7-3.2,3-3.4c22-2.1,44-4.3,66-6.6c13.2-1.3,26.4-2.8,39.6-4.1
		c6.8-0.7,13.5,0.5,20.3,1c29.2,2.1,58.4,4.4,87.6,6.6c3.5,0.3,7,0.6,10.4,0.8c1.9,0.1,2.5,0.7,2.5,2.7c-0.5,14-0.9,28.1-1.3,42.1
		c-0.3,9.1-0.6,18.2-0.9,27.3c0,1.8-0.5,2.5-2.4,2.7c-21.4,2.8-42.9,5.7-64.3,8.5c-15,2-30,4-45,6c-1.7,0.2-3.5,0.3-5.2,0.2
		l-100-8.5c-3.1-0.3-6.2-0.6-9.3-0.8c-1.7-0.1-2.1-0.8-2-2.4C10.2,150.3,10.3,138.1,10.5,126L10.5,126z M37.2,152.2v0.2
		c1.7,0,3.5-0.2,5.2-0.2c1.7,0,2.1-0.9,2.1-2.4c-0.1-1.5,0.1-3.5-1.8-3.3c-1.9,0.2-2-0.9-2.2-2c-1.6-9.1-3.3-18.1-4.9-27.2
		c-0.3-1.6-1.3-4,2.2-3.2c0.3,0,0.6-0.1,0.7-0.3c0.5-1.6,0.7-3.2,0.4-4.8c-0.1-1.3-1.2-1.8-2.4-2.1c-4.8-1.3-9.6-2.7-14.5-4.1
		c-4.8-1.4-4.8-1.5-4.7,3.7c0,1.5-0.3,3.5,1.6,3.9c2.4,0.6,2.2,1.9,1.8,3.7c-0.3,1.2-0.3,2.5-0.5,3.7c-1.4,8.8-2.8,17.6-4.3,26.4
		c-0.2,1-0.1,2.4-1.6,2.4c-3-0.1-2.3,1.9-2.3,3.6c0,2.3,1.7,2.3,3.3,2.3c3.1,0,6.2,0,9.3-0.1c1,0,2.4,0.4,2.7-1.1
		c0.3-1.5,0.6-3.7-0.6-4c-3.6-1-2.1-3.4-1.9-5.4c0.3-3.8,1.5-4.6,5.2-3.7c0.9,0.1,1.5,0.9,1.4,1.8c-0.1,2.2,1.4,4.3,0.3,6.5
		c0,0.1-0.4,0.2-0.5,0.1c-3.1-0.2-2.1,2.1-2.1,3.6c0,2.1,1.6,2.3,3.3,2.3C34.3,152.3,35.7,152.3,37.2,152.2L37.2,152.2z
		 M210.3,143.5h-0.2c0.1,1.3,0.1,2.5,0.1,3.8c-0.3,2.9,1,3.7,3.8,3.7c2,0,3.9-1.1,6-0.3c3.5,1.5,7.6,0.7,10.3-2
		c3.1-2.9,3.6-6.6,2.6-10.5c-1.1-3.8-3.1-7.3-5.8-10.3c-2.3-2.7-5.1-5.1-7-8.1c-1.7-2.3-2-5.4-0.8-8c0.6-1.5,2.2-2.4,3.8-2
		c1.7,0.4,1.7,2.1,1.4,3.4c-0.2,1.3,0.3,2.5,0,3.7c-0.3,1.5,0.3,2.8,1.8,2.6c2-0.3,5.1,1.1,5.6-2c0.9-5.4,1.1-11,1.5-16.5
		c0-0.9-0.3-2.3-1.6-1.8c-2,0.7-4.5,0.4-6.1,2.4c-0.6,0.7-1.1,0.5-1.8,0.3c-3.4-1.1-6.1,0.4-8.5,2.5c-5.9,5.5-8,16-0.8,23.1
		c2.4,2.4,4.7,4.9,7,7.3c1.9,1.8,3,4.4,3,7c0.1,1.9-1.4,3.5-3.3,3.6c-0.1,0-0.1,0-0.2,0c-2.2,0.2-3.4-1.1-3.5-3.3
		c-0.1-1.2-0.2-2.3-0.2-3.5c0.1-2.3-0.9-3.1-3.2-3c-4.3,0.1-4.3,0-4.3,4.4C210.2,141.2,210.2,142.3,210.3,143.5z M135,132.8h-0.7
		c0.1,3.1,0.3,6.2,0.3,9.3c0,1.8,0.4,3.5,1.3,5c2.7,4.1,9.7,6,15.6,4.2c5.1-1.5,7.2-4.6,7.2-10.6c0-6.4-0.1-12.8-0.2-19.2
		c0-1.5,0.1-2.8,2-2.8s2-1.3,1.9-2.7c-0.1-1.8-1.3-1.9-2.7-1.7c-3.1,0.4-6.2,0.7-9.2,1.1c-0.9,0.1-2.1-0.1-2.2,1.3
		c-0.1,1.1-0.1,2.2,1.2,2.7c0.9,0.3,1.5,0.7,1.5,1.8c0,7.1,0.5,14.2,0,21.2c-0.2,2.7-1.7,3.6-4.3,3.7c-2.5,0-3.7-1.3-3.7-3.8
		c-0.1-6.7-0.1-13.4-0.2-20.1c0-1,0-2.1,1.3-2.2c1.7-0.2,1.7-1.3,1.5-2.6c-0.3-1.5-1.4-1.6-2.7-1.5c-3.4,0.3-6.8,0.4-10.2,0.7
		c-1.1,0.1-2.4-0.1-2.4,1.7c-0.2,1.1,0.6,2.1,1.7,2.2c0.1,0,0.3,0,0.4,0c2.1,0,2,1.2,2,2.7C134.7,126.4,134.8,129.6,135,132.8
		L135,132.8z M174.5,151v0.3c1.9-0.1,3.9-0.2,5.8-0.2c1.5,0,2.3-0.3,2.2-2.1c-0.1-2.1-0.1-4-3-3.8c-0.5,0-1.1-0.1-1.2-0.6
		c-0.5-2.6-0.6-5.2-0.1-7.8c0.4-2,2.7-0.9,4-1.3c6.7-1.9,10.7-3.1,12-9.6c1.2-5.6-0.7-11.1-4.9-13.4c-2.9-1.5-6-1.4-9.1-1
		c-4.3,0.6-8.6,1.3-12.9,2c-1.3,0.2-3.1,0.1-2.9,2.3c0.2,2.3,1.6,2.5,3.2,2.3c1.6-0.2,1.9,0.5,1.9,1.9c0,7.7,0,15.5,0,23.3
		c0,1.6-0.5,2.3-2.1,2.1c-2-0.2-2.5,0.8-2.4,2.6c0.1,1.8,0.5,3.3,2.7,3.2L174.5,151z M58.8,132.2h0.4c0.1-4.2,0.2-8.3,0.3-12.5
		c0-1.3,0.2-2.4,1.9-2.1c1.4,0.2,2.4,0.1,2.5-1.7s0-3.2-2-3.6c-4.2-0.8-8.4-1.6-12.6-2.3c-0.7-0.1-1.5-0.5-2,0.5
		c-1,1.8-0.3,4.1,1.5,5.1c0.2,0.1,0.4,0.2,0.6,0.3c1.3,0.3,1.5,0.9,1.5,2c-0.1,8.9-0.1,17.8-0.2,26.7c0,1.2-0.3,1.9-1.6,1.8
		c-2.7-0.2-2.2,1.7-2.3,3.3c0,1.8,0.9,2.7,2.7,2.6c6.9,0,13.8-0.1,20.7-0.1c2,0,2.5-0.8,2.5-2.7c-0.1-3.6-0.1-7.2-0.1-10.8
		c-0.1-5.1-0.2-5.1-5.3-5c-1.7,0-2.2,0.7-2.1,2.3c0.1,2.7,0,5.4,0.1,8.1c0.2,2.2-1.2,2.2-2.8,2.2s-3.1,0.3-3.1-2.2
		C59.2,140.1,59,136.2,58.8,132.2z M104.1,144.4H104c0,1.1,0.1,2.1,0.1,3.2c0.1,4.1,0.2,4.1,4.3,4.2c1.7,0.1,3.2-1.2,5-0.3
		c4.3,2,8,0.5,11-2.5c2.8-2.7,3-6.1,1.9-9.7c-1-3-2.9-5.7-5.4-7.8c-2.6-2.2-5.3-4.3-7.8-6.5c-1-0.9-2-2-1.1-3.5
		c0.8-1.3,2.1-1.1,3.4-1c1.6,0.2,2.1,1.2,2.1,2.7c0,2,0.9,2.7,2.9,2.8c4.5,0.1,4.5,0.1,4.6-4.5c0-0.6,0-1.2,0-1.7
		c0-1.9-0.8-2.8-2.8-2.7c-3,0.1-6,0.1-9-0.1c-3.4-0.2-7.4-0.5-9.1,3.4c-1.9,4.1,0.8,7,3.6,9.6c2.7,2.6,5.5,4.7,8.1,7.1
		c1.9,1.6,2.9,4,2.7,6.5c-0.1,1.7-1.6,3-3.3,3c0,0-0.1,0-0.1,0c-1.9,0.1-3.2-0.6-3.4-2.7c-0.2-1.2-0.2-2.3-0.3-3.5
		c0-2.4-1-3.2-3.4-3.1c-4,0.2-4,0-4,4.2C104,142.3,104.1,143.3,104.1,144.4L104.1,144.4z M88,151.7v0.5c3.4-0.1,6.8-0.3,10.2-0.3
		c1.7,0,2.2-0.6,2.2-2.2c0-3.6,0-7.2-0.1-10.8c0-5.1-0.1-5.1-5.2-5.1c-1.8,0-2.4,0.7-2.3,2.4c0.1,2.4-0.1,4.9,0.1,7.3
		c0.2,2.4-0.9,2.7-2.9,2.7c-1.8,0-3.2,0.1-3.1-2.5c0.2-7.4,0.2-14.7,0.2-22.1c0-1.5,0.7-1.6,1.7-1.5c1.3,0,2.7,0.3,2.7-1.6
		c0-2-0.9-2.5-2.7-2.7c-3.7-0.3-7.3-0.7-11-1c-1-0.1-2.5-0.9-2.8,1.1c-0.2,1.5-0.1,3.1,1.9,3.3c1.5,0.2,1.9,0.9,1.8,2.3
		c-0.3,7.7-0.5,15.3-0.3,23c0,1.1-0.2,2.1-1.5,1.9c-3-0.3-2.4,1.7-2.4,3.4c0,2.1,1.4,2.5,3.2,2.4C81.2,151.9,84.6,151.8,88,151.7z
		 M116.5,95.5c-0.7,0-2.1,0.1-3.6,0.3c-0.5,0.1-2,0.1-0.3,0.9c-0.3,0.4-1.3,0.3-0.3,1.3c1,1.1,2.6,1.6,4.1,1.3
		c2.4-0.3,3.1,0.7,3,2.9c-0.2,2.3,0.2,4.6,2.5,4.6c2.3,0,2.8-2.5,2.6-4.7c-0.3-2.2,0.5-3.3,2.8-2.9c0.6,0.1,1.2,0,1.7,0
		c1.5,0.1,1.9-1.1,2.4-2c0.5-0.9-0.4-1.6-1.1-2.4c-1.2-1.3-2.5-0.5-3.7-0.7c-1.2-0.2-2.4,0.1-2.2-1.5c0.7-2.7-0.9-5.3-3.5-6.1
		c0,1.2-1.6,1.5-1.6,2.9c0,1.4,0.7,3.1-0.3,4.2c-1,1.1-3,0.2-4.4,0.6c-0.2,0-0.4,0.3-0.7,0.6C114.6,95.6,115.6,95.8,116.5,95.5
		L116.5,95.5z M205.5,111.6c0.1-1.1,0.1-2.1,0.1-3.2c0-0.9-0.3-1.9-1.4-1.8c-2.2,0-4.4,0.6-6.4,1.7c-1.2,0.8-0.6,2.7-0.7,4.1
		s-0.7,3.2,1.2,3.8c1.9,0.5,1.3,1.6,1,2.8c-0.5,1.3-1.3,2.4-2.5,3.1c-0.9,0.7-1.1,1.9-0.5,2.9c0.5,1.1,1.5,0.9,2.5,0.6
		c2.9-1,5.1-3.4,5.9-6.4C205.3,116.6,205.6,114.1,205.5,111.6L205.5,111.6z"/>
	<path class="st2" d="M37.2,152.2c-1.5,0-3.1,0.1-4.7,0.2c-1.6,0.1-3.3-0.1-3.3-2.3c0-1.5-1-3.8,2.1-3.6c0.2,0,0.5,0,0.5-0.1
		c1.1-2.2-0.4-4.3-0.3-6.5c0.1-0.9-0.5-1.7-1.4-1.8c0,0,0,0-0.1,0c-3.7-0.9-4.9,0-5.2,3.7c-0.1,2-1.7,4.4,1.9,5.4
		c1.2,0.3,0.8,2.7,0.6,4c-0.2,1.3-1.6,1.1-2.7,1.1c-3.1,0.1-6.2,0.1-9.3,0.1c-1.6,0-3.3,0-3.3-2.3c0-1.6-0.7-3.7,2.3-3.6
		c1.5,0,1.4-1.4,1.6-2.4c1.5-8.8,2.9-17.6,4.3-26.4c0.2-1.2,0.3-2.5,0.5-3.7c0.4-1.7,0.6-3.1-1.8-3.7c-1.9-0.5-1.6-2.4-1.6-3.9
		c-0.1-5.2-0.1-5.2,4.7-3.7c4.8,1.4,9.6,2.8,14.5,4.1c1.2,0.3,2.3,0.8,2.4,2.1c0.3,1.6,0.2,3.3-0.4,4.8c-0.2,0.2-0.5,0.3-0.7,0.3
		c-3.5-0.8-2.5,1.6-2.2,3.2c1.6,9.1,3.2,18.1,4.9,27.2c0.2,1.2,0.1,2.2,2.2,2c2-0.2,1.7,1.9,1.8,3.3c0.1,1.5-0.3,2.4-2.1,2.4
		c-1.7,0-3.5,0.1-5.2,0.2L37.2,152.2z M28.6,114.9l-1,0.1c-0.5,5.2-1.1,10.4-1.4,15.6c-0.1,1.6,1.6,1,2.5,1.1c0.9,0.1,1.8,0,1.6-1.3
		C29.8,125.1,29.2,120,28.6,114.9L28.6,114.9z"/>
	<path class="st2" d="M210.3,143.5c0-1.2-0.1-2.3-0.1-3.5c-0.1-4.3,0-4.2,4.3-4.4c2.2,0,3.3,0.7,3.2,3c0,1.2,0.1,2.3,0.2,3.5
		c0.1,2.2,1.3,3.5,3.5,3.3c1.9,0,3.4-1.6,3.4-3.5c0-0.1,0-0.1,0-0.2c0-2.7-1.1-5.2-3-7c-2.3-2.5-4.6-5-7-7.3
		c-7.1-7.1-5.1-17.7,0.8-23.1c2.4-2.2,5.1-3.6,8.5-2.5c0.7,0.2,1.2,0.4,1.8-0.3c1.5-2,4-1.6,6.1-2.4c1.3-0.5,1.7,0.9,1.6,1.8
		c-0.4,5.5-0.6,11.1-1.5,16.5c-0.5,3-3.7,1.7-5.6,2c-1.5,0.2-2.1-1.1-1.8-2.6c0.2-1.2-0.3-2.4,0-3.7c0.3-1.3,0.3-3-1.4-3.4
		c-1.6-0.4-3.2,0.5-3.8,2c-1.2,2.6-0.9,5.7,0.8,8c1.9,3.1,4.6,5.4,7,8.1c2.7,2.9,4.7,6.5,5.8,10.3c1,3.9,0.5,7.6-2.6,10.5
		c-2.7,2.7-6.8,3.5-10.3,2c-2.1-0.8-4,0.3-6,0.3c-2.7,0-4-0.8-3.8-3.7c0-1.3,0-2.5-0.1-3.8L210.3,143.5z"/>
	<path class="st2" d="M134.9,132.8c-0.1-3.2-0.3-6.4-0.3-9.6c0-1.4,0-2.7-2-2.7c-1.1,0.1-2-0.7-2.1-1.8c0-0.1,0-0.3,0-0.4
		c0-1.8,1.3-1.6,2.4-1.7c3.4-0.2,6.8-0.4,10.2-0.7c1.3-0.1,2.4,0,2.7,1.5c0.2,1.2,0.2,2.3-1.5,2.6c-1.3,0.2-1.3,1.2-1.3,2.2
		c0.1,6.7,0.1,13.4,0.2,20.1c0,2.4,1.1,3.8,3.7,3.8c2.6,0,4.1-1,4.3-3.7c0.4-7.1,0-14.2,0-21.2c0-1.1-0.6-1.5-1.5-1.8
		c-1.3-0.4-1.3-1.5-1.2-2.7c0.1-1.5,1.3-1.2,2.2-1.3c3.1-0.4,6.2-0.7,9.2-1.1c1.4-0.2,2.5,0,2.7,1.7c0.1,1.5,0.1,2.8-1.9,2.7
		s-2.1,1.3-2,2.8c0,6.4,0.1,12.8,0.2,19.2c0,5.9-2.1,9.1-7.2,10.6c-5.9,1.8-12.9-0.1-15.6-4.2c-0.9-1.5-1.4-3.2-1.3-5
		c0-3.1-0.2-6.2-0.3-9.3L134.9,132.8z"/>
	<path class="st2" d="M174.4,151l-6.7,0.2c-2.3,0.1-2.7-1.3-2.7-3.2s0.5-2.8,2.4-2.6c1.6,0.2,2.1-0.5,2.1-2.1
		c-0.1-7.7,0-15.5,0-23.3c0-1.4-0.2-2.2-1.9-1.9s-3-0.2-3.2-2.3c-0.2-2.1,1.6-2.1,2.9-2.3c4.3-0.7,8.6-1.4,12.9-2
		c3.1-0.4,6.2-0.5,9.1,1c4.3,2.3,6.1,7.8,4.9,13.4c-1.3,6.5-5.3,7.7-12,9.6c-1.3,0.4-3.6-0.6-4,1.3c-0.5,2.6-0.4,5.2,0.1,7.8
		c0.1,0.5,0.7,0.7,1.2,0.6c2.9-0.2,2.8,1.7,3,3.8c0.1,1.8-0.7,2.1-2.2,2.1c-1.9,0-3.9,0.1-5.8,0.2L174.4,151z M178.1,123.9h-0.3
		c0.1,1.3,0.2,2.5,0.1,3.8c-0.2,2.1,0.7,2.4,2.5,2.1c4.2-0.7,6.5-5.5,4.7-10.1c-1-2.7-3.3-2.7-5.5-2.6c-2.6,0.1-1.5,2.2-1.6,3.6
		C178,121.8,178,122.9,178.1,123.9L178.1,123.9z"/>
	<path class="st2" d="M58.8,132.2c0.1,4,0.4,8,0.4,11.9c0,2.5,1.6,2.2,3.1,2.2c1.6,0,2.9,0,2.8-2.2c-0.1-2.7,0-5.4-0.1-8.1
		c0-1.5,0.4-2.2,2.1-2.3c5.1-0.1,5.2-0.1,5.3,5c0,3.6,0,7.2,0.1,10.8c0.1,1.8-0.5,2.7-2.5,2.7c-6.9,0-13.8,0-20.7,0.1
		c-1.8,0-2.7-0.8-2.7-2.6c0-1.6-0.5-3.5,2.3-3.3c1.3,0.1,1.6-0.6,1.6-1.8c0-8.9,0.1-17.8,0.2-26.7c0-1.1-0.2-1.7-1.5-2
		c-2-0.7-3-2.8-2.3-4.7c0.1-0.2,0.2-0.4,0.3-0.6c0.5-1,1.3-0.6,2-0.5c4.2,0.7,8.4,1.5,12.6,2.3c2,0.4,2.1,1.9,2,3.6
		c-0.1,1.7-1.1,2-2.5,1.7c-1.7-0.3-1.9,0.8-1.9,2.1c-0.1,4.2-0.2,8.3-0.3,12.5L58.8,132.2z"/>
	<path class="st2" d="M104.1,144.4c0-1.1-0.1-2.1-0.1-3.2c-0.1-4.1,0-4,4-4.2c2.4-0.1,3.4,0.7,3.4,3.1c0,1.2,0.1,2.4,0.2,3.5
		c0.2,2.1,1.6,2.8,3.4,2.7c1.7,0.1,3.2-1.1,3.4-2.9c0,0,0-0.1,0-0.1c0.2-2.5-0.8-4.9-2.7-6.5c-2.7-2.4-5.5-4.6-8.1-7.1
		c-2.6-2.4-5.5-5.5-3.6-9.6c1.8-3.9,5.7-3.6,9.1-3.4c3,0.2,6,0.2,9,0.1c2,0,2.9,0.8,2.8,2.7c0,0.6,0,1.2,0,1.7c0,4.6,0,4.6-4.6,4.5
		c-1.9,0-2.9-0.8-2.9-2.8c0-1.4-0.5-2.5-2.1-2.7c-1.3-0.1-2.7-0.3-3.4,1c-0.9,1.5,0,2.7,1.1,3.5c2.5,2.2,5.3,4.3,7.8,6.5
		c2.5,2,4.3,4.7,5.3,7.7c1.1,3.6,0.9,7-1.9,9.7c-3.1,3-6.8,4.5-11,2.5c-1.9-0.9-3.3,0.4-5,0.3c-4.1-0.2-4.2-0.1-4.3-4.2
		c0-1.1-0.1-2.1-0.1-3.2H104.1z"/>
	<path class="st2" d="M88,151.7c-3.4,0.1-6.8,0.2-10.2,0.4c-1.7,0.1-3.1-0.3-3.2-2.4c0-1.7-0.6-3.7,2.4-3.4c1.3,0.1,1.6-0.8,1.5-1.9
		c-0.2-7.7-0.1-15.3,0.3-23c0-1.3-0.3-2.1-1.8-2.3c-2-0.2-2.1-1.7-1.9-3.3c0.3-1.9,1.8-1.1,2.8-1.1c3.7,0.3,7.3,0.7,11,1
		c1.7,0.1,2.7,0.8,2.7,2.7c-0.1,1.8-1.4,1.7-2.7,1.6c-1,0-1.7,0-1.7,1.5c0,7.4,0,14.7-0.2,22.1c-0.1,2.6,1.3,2.4,3.1,2.5
		c2,0.1,3.1-0.3,2.9-2.7c-0.2-2.4,0-4.9-0.1-7.3c-0.1-1.7,0.5-2.4,2.3-2.4c5.1,0,5.2,0,5.2,5.1c0,3.6,0,7.2,0.1,10.8
		c0,1.6-0.5,2.2-2.2,2.2c-3.4,0-6.8,0.2-10.2,0.3L88,151.7z"/>
	<path class="st2" d="M116.5,95.5c-0.9,0.3-1.9,0.1-2.7-0.5c0.3-0.3,0.5-0.5,0.7-0.6c1.5-0.4,3.3,0.6,4.4-0.6
		c1.1-1.2,0.3-2.8,0.3-4.2c0-1.4,1.7-1.8,1.6-2.9c2.6,0.8,4.2,3.5,3.5,6.1c-0.2,1.6,1.1,1.3,2.2,1.5c1.1,0.2,2.6-0.7,3.7,0.7
		c0.6,0.8,1.6,1.5,1.1,2.4c-0.5,0.9-0.9,2.1-2.4,2c-0.6,0-1.2,0.1-1.7,0c-2.4-0.3-3.1,0.7-2.8,2.9s-0.3,4.7-2.6,4.7
		s-2.7-2.5-2.5-4.6c0.2-2.1-0.6-3.2-3-2.9c-1.5,0.3-3-0.2-4.1-1.3c-1.1-1.1,0-1,0.3-1.3c-1.8-0.8-0.3-0.9,0.3-0.9
		C114.3,95.6,115.8,95.5,116.5,95.5z M121.8,94c-1.8,0.2-2.7,1.2-2.7,2.9c-0.1,1.4,0.9,2.7,2.3,2.8c0.2,0,0.4,0,0.6,0
		c1.5,0,2.7-1.2,2.7-2.6c0-0.2,0-0.4,0-0.5c-0.1-1.5-1.3-2.6-2.8-2.6C122,94,121.9,94,121.8,94L121.8,94z"/>
	<path class="st2" d="M205.5,111.6c0,2.5-0.2,5-0.8,7.5c-0.8,3-3,5.4-5.9,6.4c-1,0.3-2,0.5-2.5-0.6c-0.6-0.9-0.4-2.2,0.5-2.9
		c1.2-0.7,2.1-1.8,2.5-3.1c0.4-1.2,1-2.3-1-2.8s-1.2-2.4-1.2-3.8c0-1.3-0.6-3.3,0.7-4.1c2-1.1,4.2-1.6,6.4-1.7
		c1.1-0.1,1.3,1,1.4,1.8C205.7,109.5,205.6,110.5,205.5,111.6z"/>
	<path class="st3" d="M28.6,114.9c0.6,5.1,1.2,10.2,1.8,15.3c0.2,1.3-0.7,1.4-1.6,1.3c-0.9-0.1-2.7,0.5-2.5-1.1
		c0.3-5.2,0.9-10.4,1.4-15.6L28.6,114.9z"/>
	<path class="st3" d="M178.1,123.9c-0.1-1.1-0.1-2.1-0.1-3.2c0.2-1.3-0.9-3.5,1.6-3.6c2.2-0.1,4.5-0.2,5.5,2.6
		c1.7,4.6-0.5,9.3-4.7,10.1c-1.8,0.3-2.8,0-2.5-2.1c0.1-1.3,0-2.5-0.1-3.8L178.1,123.9z"/>
	<path class="st3" d="M121.8,94c1.5-0.1,2.8,1,2.9,2.4c0,0,0,0.1,0,0.1c0.3,1.4-0.7,2.8-2.1,3.1c-0.2,0-0.3,0-0.5,0
		c-1.4,0.2-2.7-0.8-2.9-2.2c0-0.2,0-0.4,0-0.6C119.1,95.1,120,94.2,121.8,94z"/>
</g>
</svg>
