<?xml version="1.0" encoding="utf-8"?>
<!-- Generator: Adobe Illustrator 21.1.0, SVG Export Plug-In . SVG Version: 6.00 Build 0)  -->
<svg version="1.1" id="Layer_1" xmlns="http://www.w3.org/2000/svg" xmlns:xlink="http://www.w3.org/1999/xlink" x="0px" y="0px"
	 viewBox="0 0 250 250" style="enable-background:new 0 0 250 250;" xml:space="preserve">
<style type="text/css">
	.st0{fill:#FBCC1B;}
	.st1{fill:#F37B36;}
	.st2{fill:#F06036;}
	.st3{fill:#596CB0;}
</style>
<title>CR</title>
<polygon class="st0" points="20.4,110.7 20.4,110.7 20.4,110.7 "/>
<polygon class="st1" points="20.4,110.7 20.4,110.7 20.4,110.7 "/>
<path class="st1" d="M228.5,109.8c-3.8-2.9-7.7-5.7-11.7-8.3c-1.9-1.2-3.8-2.4-5.8-3.5l0,0l-0.2-0.2l-0.2-0.1l0,0l0,0l-0.2-0.1
	c-0.7-0.4-1.4-0.9-2.1-1.3c-3.2-1.8-6.3-3.6-9.6-5.1c-1-0.5-1.9-1-2.9-1.4c-2.7-1.3-5.4-2.5-8.1-3.6c-3.2-1.4-6.6-2.6-9.9-3.7
	c-0.2-0.1-0.4-0.2-0.7-0.2h-0.1c-0.2-0.2-0.5-0.3-0.7-0.4c0,0-0.1,0-0.1,0c-0.9-0.3-1.8-0.6-2.7-0.9c-2.4-0.7-4.7-1.5-7.1-2
	c-0.1-0.1-0.2-0.1-0.3-0.1c-0.2-0.1-0.4-0.2-0.6-0.1c-1.5-0.5-3.1-0.8-4.7-1.1c-0.1,0-0.2-0.1-0.2-0.1c-3.7-0.8-7.4-1.5-11.1-2.1
	c-2.7-0.4-5.3-0.8-8-1c-2.7-0.4-5.4-0.4-8-0.6c-1.4-0.1-2.7-0.1-4.1-0.2c-3.9-0.1-7.8-0.1-11.7,0.1c-1.2,0-2.4,0.1-3.6,0.2H113h-0.4
	l-1.1,0.1h-0.3c-0.1-0.1-0.2-0.1-0.3,0h-0.3c-0.6,0-1.2,0-1.8,0.1c-6,0.6-12.1,1.6-18,2.8c-3.9,0.9-7.7,1.9-11.4,3.2
	c-0.1,0-0.3,0-0.4,0.1h-0.2c-0.1,0-0.3,0-0.4,0.1l0,0c-0.1,0-0.3,0-0.4,0c-7.5,2.3-14.8,5.1-21.9,8.4c-8.7,4-17,8.7-24.9,14
	c-3.7,2.5-7.4,5.1-10.9,8c0.1,0,0.3-0.1,0.4-0.1c5.1-2.8,10.4-5.3,15.7-7.7c6.4-2.8,13-5.4,19.7-7.6c2.6-0.8,5.2-1.6,7.7-2.4
	c5.4-1.6,10.8-2.9,16.2-4c0.2,0,0.4,0,0.4-0.3c0.4,0,0.7,0,1.1,0c4.8-1,9.7-1.7,14.6-2.4c2.3-0.3,4.6-0.6,6.8-0.8
	c2.8-0.3,5.7-0.4,8.5-0.6l0,0c1.1,0,2.2-0.2,3.3-0.2c5.9-0.2,11.8-0.3,17.7,0c3,0.1,5.9,0.3,8.9,0.4c0-0.8,0-1.6,0-2.3
	c0,0.8,0,1.6,0,2.3h0.3c4.1,0.3,8.1,0.7,12.2,1.3l6.3,0.9h0.2h0.4c0.8,0.2,1.5,0.3,2.3,0.4h0.3c0.6,0.2,1.2,0.3,1.8,0.3l4,0.8
	l6.8,1.5c0.2,0.1,0.4,0.1,0.5,0.1c0.2,0.1,0.4,0.2,0.6,0.1l9.6,2.6l3.8,1.2l6.7,2.1c1,0.5,2,0.8,3.1,1.2l7.4,2.8
	c0.3,0.2,0.7,0.3,1.1,0.4c0,0.1,0.2,0.1,0.3,0.1l3.5,1.6c4.9,2.1,9.7,4.4,14.5,6.9l1.7,0.9C229,110.2,228.8,109.9,228.5,109.8z"/>
<path class="st2" d="M50.6,116.1c-8.2,0-16.5,0-24.7,0c-4.8,0-9.5,1.8-13.1,4.9l0,0c-1.9,1.6-3.6,3.5-4.8,5.6l-0.2,0.3
	c-0.1,0.1-0.2,0.3-0.2,0.4c-0.1,0.2-0.3,0.4-0.4,0.6c-1.3,2.6-2,5.4-2.2,8.2c-0.2,0.8-0.2,1.7,0,2.6c0.2,2.1,0.8,4.1,1.8,6L7,145
	l0,0l0.1,0.2l0,0c1.8,3.9,5.5,6.5,9.8,6.8c3.6,0.2,7-1.4,9.2-4.3c-1.9-0.1-3.5-1.4-4-3.2c0-0.4,0-0.9,0.1-1.3c0.4-2,0.8-4.1,1.2-6.2
	c0.7-2.8,1.2-5.7,1.7-8.5c0.1-0.4,0.2-0.8,0.3-1.2c0.3-1.8,0.6-3.5,0.9-5.3c0.2-0.1,0.2-0.4,0.3-0.6c0.9-2.1,3-3.3,5.2-3
	c2.1,0.2,3.6,2.1,3.4,4.3l0,0c-0.3,1.3-0.6,2.7-0.8,4c-0.3,1.3-0.6,3-0.8,4.5v0.3c-0.1,0.1-0.2,0.3-0.1,0.5
	c-0.6,2.5-1.1,5.1-1.6,7.7l0,0c-0.1,0.1-0.1,0.3-0.1,0.4c-0.4,1.9-0.8,3.8-1.1,5.8l-1,4.8h14.2c0.2,0,0.5,0.2,0.6-0.3
	c0.3-1.4,0.5-2.8,0.8-4.2V146c0,0,0-0.1,0-0.1l0,0c0.1-0.2,0.2-0.4,0.1-0.6c0-0.2,0.1-0.3,0.1-0.5c0.2-1.2,0.5-2.5,0.7-3.7
	c0.2-0.2,0.1-0.4,0.1-0.6c0.1-0.1,0.1-0.3,0.1-0.4l1.7-8.7l1.7-8.8c0.4-2,0.8-4,1.2-6C51.3,116.1,51.1,116.1,50.6,116.1z"/>
<path class="st2" d="M121.8,123.5c0.2-1.2,0.1-2.5-0.3-3.7c-0.7-1.9-2.3-3.3-4.2-3.9c-2.5-0.9-5.3-1-7.9-0.3
	c-3.5,0.9-6.7,2.4-9.8,4.3c-0.5,0.3-0.8,0.4-1.2-0.2c-2.4-3.6-6.8-5.4-11.1-4.4c-3.5,0.7-6.9,2-9.9,3.9l-2.1,1.1
	c0.3-1.3,0.5-2.5,0.7-3.7c0.1-0.4,0-0.5-0.4-0.5H62c-0.3,0-0.5,0-0.5,0.4c-0.4,2.3-0.9,4.5-1.3,6.8l0,0h0.2h-0.2l0,0
	c-0.2,0.5-0.3,1.1-0.4,1.6c-0.4,2.1-0.8,4.1-1.2,6.2v0.3c-0.1,0.2-0.2,0.5-0.2,0.8c-0.6,2.8-1.2,5.7-1.6,8.5
	c-0.6,3.2-1.3,6.4-1.9,9.5c-0.1,0.4,0.2,0.4,0.5,0.4H69c0.4,0,0.5-0.1,0.6-0.5c0.1-0.8,0.3-1.6,0.5-2.4c0.4-2.3,1-4.6,1.3-6.9
	c0.2-0.7,0.4-1.5,0.5-2.3c0.4-2,0.9-4.1,1.2-6.2c0.1-0.4,0.2-0.7,0.3-1.1c0.5-2.6,1-5.1,1.5-7.7c0.2-0.3,0.3-0.6,0.5-1
	c1-1.5,2.7-2.4,4.5-2.1c1.8,0.1,3.2,1.4,3.5,3.2c0.1,0.6,0.1,1.2-0.1,1.8c-0.3,1.4-0.5,2.8-0.8,4.2l0,0v0.2l-0.1,0.2
	c-0.4,2-0.8,3.9-1.2,5.9c-0.3,2-0.9,4.1-1.2,6.2c0,0.1-0.1,0.1-0.1,0.2c-0.5,2.6-1,5.2-1.6,7.9c-0.1,0.5,0,0.6,0.5,0.6
	c4.3,0,8.6,0,12.9,0c1.2,0,1.2,0,1.4-1.1c0.5-2.5,0.9-4.9,1.4-7.4l0,0c0.5-2.1,0.9-4.2,1.3-6.4l-0.2-0.1l0.2,0.1
	c0.1-0.1,0.1-0.3,0.1-0.4l1-5.2V130v-0.4c0.4-1.6,0.8-3.4,1-5.1c0.2-0.2,0.1-0.4,0.1-0.6c0.1-0.2,0.2-0.3,0.2-0.5l0.2-0.3
	c0.9-1.8,2.8-2.9,4.8-2.7c1.8,0.1,3.3,1.3,3.7,3.1v1.2l0,0v0.1c-0.5,1.9-0.8,3.7-1.1,5.6l0,0c-0.6,2.9-1.2,5.8-1.8,8.6
	c0,0.1,0,0.2,0.1,0.3c-0.2,0.2-0.3,0.5-0.4,0.8c-0.5,2.3-0.3,4.7,0.7,6.8c0.9,2.3,2.9,3.9,5.3,4.1c1.3,0.1,2.5,0,3.8-0.2
	c2.6-0.3,5-1.3,7-3c0.2-0.2,0.4-0.4,0.5-0.7c-2.3-0.2-3.1-1.1-3.1-3.4c0-0.4,0-0.7,0-1.1c0.1-1.2,0.3-2.5,0.6-3.7
	c0.6-2.6,1.1-5.2,1.6-7.8c0.7-3.9,0,0,0,0l0,0v-0.2l0.2-0.8l0,0l0.1-0.4C121.1,127.8,121.5,125.7,121.8,123.5z M60.6,123.4
	L60.6,123.4z M83.2,129.4L83.2,129.4z M106.2,130.6L106.2,130.6h0.2H106.2L106.2,130.6H106H106.2z"/>
<path class="st3" d="M175.8,139.8c-1.7-7.2-8.1-12.2-15.5-12c-7.2,0-14.4,0-21.7,0c-0.6,0-0.9,0.2-1,0.8c-0.4,2.1-0.8,4.2-1.2,6.3
	l0,0c-0.2,0.9-0.4,1.7-0.5,2.6l-1.6,8.5c0,0.2-0.1,0.4-0.1,0.5l-1.7,8.8l0,0l0,0l-0.1,0.4v0.3l0,0c-0.2,0.6-0.3,1.2-0.3,1.9l0,0
	c-0.2,0.2-0.1,0.5-0.2,0.7c0,0,0,0.1,0,0.1c-0.4,1.4-0.6,2.8-0.8,4.3c0,0,0,0.1,0,0.1c-0.8,4.2-1.6,8.5-2.5,12.7
	c-0.1,0.5,0,0.6,0.5,0.6c4.5,0,9,0,13.5,0c0.4,0,0.6-0.1,0.7-0.6c0.5-2.8,1.1-5.5,1.6-8.3c0.4-2,0.8-4,1.1-6.1l0,0
	c0.1-0.1,0.1-0.3,0.1-0.5c0.2-0.9,0.4-1.7,0.5-2.6c0.4-2.1,0.8-4.2,1.2-6.3c0.3-1.8,0.8-3.5,1-5.3c0.1-0.1,0.1-0.2,0.1-0.3v-0.3
	c0-0.1,0.1-0.2,0.1-0.3c0.4-2.1,0.8-4.2,1.2-6.4c0.3-1.5,0.7-3,0.8-4.5c0.1-0.4,0.2-0.7,0.3-1.1c0.4-2.6,2.9-4.3,5.5-4
	c2.1,0.2,3.6,2,3.4,4.1c0,0,0,0.1,0,0.1c-0.3,1.9-0.7,3.9-1.1,5.8c-0.4,2.2-0.9,4.4-1.3,6.6c-0.3,1.6-0.7,3.3-0.9,5
	c-0.4,1.2-0.6,2.5-0.8,3.8c-0.4,2-2,3.6-4,3.8c-0.9,0.1-1.8,0-2.7-0.3c0.4,0.8,1,1.5,1.6,2.1c3.1,3.3,7.8,4.3,12,2.7
	c4.1-1.4,7.7-4.3,9.9-8c0.1-0.2,0.2-0.4,0.3-0.7c0.3-0.1,0.5-0.4,0.5-0.7c0.3-0.4,0.5-0.9,0.7-1.4c0.2-0.2,0.3-0.5,0.4-0.8
	c0,0,0-0.1,0-0.1c1.6-3.4,2-7.2,1.3-10.9C176,140.7,175.9,140.2,175.8,139.8z"/>
<path class="st3" d="M241.7,152.4c0.6-2.7,1.1-5.4,1.6-8.2c0.3-1.5,0.4-3,0.8-4.5c0.4-1.3,0.6-2.7,0.8-4.1c0.2-1.5,0.1-3.1-0.4-4.5
	c-0.8-1.8-2.4-3.1-4.3-3.6c-3-1-6.2-0.9-9.2,0.2c-3,1-5.8,2.3-8.4,4c-0.5,0.3-0.7,0.3-1-0.2c-2.4-3.6-6.7-5.5-11-4.6
	c-3.3,0.6-6.4,1.8-9.3,3.5c-0.9,0.5-1.9,1-2.9,1.6c0.3-1.3,0.4-2.5,0.7-3.7c0.1-0.4,0-0.6-0.4-0.6H185c-0.3,0-0.5,0.1-0.6,0.4
	c0,0,0,0,0,0.1c-0.6,3.1-1.2,6.1-1.7,9.2c0.4,0.2,0.9,0.3,1.3,0.2c-0.5,0-0.9-0.1-1.3-0.2c-0.4,1.9-0.8,3.9-1.2,5.8
	c-0.4,1.9-0.8,3.4-1,5.2l0,0c-0.1,0.1-0.1,0.2-0.1,0.3v0.3v0.1c-0.8,4.2-1.6,8.4-2.5,12.6c-0.1,0.5,0.1,0.5,0.5,0.5H192
	c0.4,0,0.6-0.1,0.7-0.5c0.4-2,0.8-4,1.2-6c0.3-1.2,0.3-2.5,0.7-3.7l0,0c0,0,0-0.1,0-0.1v-0.3l0,0l0.1-0.7v-0.5v-0.2v-0.5
	c0.1-0.2,0.2-0.5,0.2-0.8l0,0l0.1-0.2v-0.3c0.4-1.2,0.5-2.4,0.8-3.6c0.4-2.1,0.9-4.1,1.2-6.3c0.1-0.1,0.2-0.3,0.1-0.4v-0.2v-0.2
	v-0.3c0.1-0.2,0.2-0.4,0.1-0.6v-0.3l0,0c0,0,0-0.1,0-0.1l0.1-0.3V136c0.2-0.9,0.6-1.8,1.3-2.5c1.5-1.4,3.7-1.8,5.5-0.9
	c1.7,0.9,2.3,2.4,1.9,4.8c-0.2,1-0.4,2-0.6,3.1v0.2c-0.1,0.1-0.1,0.2-0.1,0.4c-0.4,1.8-0.7,3.5-1.1,5.3c-0.4,2.3-1,4.5-1.3,6.8
	c-0.1,0.1-0.1,0.2-0.1,0.3v0.3c0,0,0,0.1,0,0.1c-0.1,0.2-0.1,0.4-0.1,0.6c-0.3,0.4-0.2,0.8-0.2,1.2c-0.5,2.1-0.8,4.2-1.3,6.4
	c0,0.4,0,0.5,0.4,0.5h13.7c0.3,0,0.6-0.1,0.6-0.4c0.1-1.2,0.3-2.4,0.6-3.5c0.2-1.1,0.4-2.2,0.7-3.3c0.1-0.1,0.2-0.3,0.1-0.5v-0.3
	c0.1-0.2,0.1-0.5,0.1-0.7c0.1-0.2,0.1-0.4,0.1-0.5c0.1-0.1,0.1-0.3,0.1-0.4c0.4-2.1,0.8-4.3,1.3-6.5c0.3-1.7,0.8-3.4,1-5.1
	c0.1-0.2,0.2-0.4,0.1-0.6l0,0c0.1-0.1,0.1-0.2,0.1-0.3v-0.3c0.1-0.1,0.1-0.3,0.1-0.4v-0.2c0.2-0.9,0.4-1.9,0.6-2.8
	c0.2-1.4,0.9-2.6,2-3.4c0,0,0,0,0.1,0l0,0l1-0.5c0.5,0,0.9-0.2,1.4-0.2c2.1-0.3,4.1,1.3,4.3,3.4c0.1,0.4,0,0.9-0.1,1.3
	c-0.2,0.6-0.3,1.3-0.3,2c-0.2,1-0.4,2-0.6,3c-0.6,3.1-1.2,6.2-1.8,9.3v0.5c-0.1,0.1-0.1,0.3-0.1,0.5l0,0c-0.1,0.1-0.1,0.3-0.1,0.5
	c-0.1,0.4-0.2,0.9-0.1,1.4v0.1c-0.1,0.4-0.1,0.8,0,1.2c0,0,0,0.1,0,0.1c0,0.3,0,0.7,0.1,1c0,0.1,0,0.3,0.1,0.4
	c0,0.6,0.1,1.1,0.4,1.6c0.7,2.5,2.9,4.3,5.4,4.6c0.9,0.1,1.8,0.1,2.7,0c2.9-0.1,5.7-1.1,8-2.9c0.3-0.2,0.6-0.5,0.8-0.8
	c-1.8-0.2-3-0.8-3.1-2.8v-0.3c0,0-0.1,0.1-0.1,0.1l0,0l0,0c0,0,0.1-0.1,0.1-0.1v-1v-0.8c0.2-0.2,0.1-0.5,0.1-0.8
	C241.3,153.4,241.5,152.9,241.7,152.4z M197.6,136.6L197.6,136.6L197.6,136.6C197.6,136.6,197.6,136.6,197.6,136.6L197.6,136.6z"/>
</svg>
