<?xml version="1.0" encoding="utf-8"?>
<!-- Generator: Adobe Illustrator 21.1.0, SVG Export Plug-In . SVG Version: 6.00 Build 0)  -->
<svg version="1.1" id="Layer_1" xmlns="http://www.w3.org/2000/svg" xmlns:xlink="http://www.w3.org/1999/xlink" x="0px" y="0px"
	 viewBox="0 0 250 250" style="enable-background:new 0 0 250 250;" xml:space="preserve">
<style type="text/css">
	.st0{fill:#EDB216;}
	.st1{fill:#FFFFFF;}
</style>
<path class="st0" d="M98.8,120.7c0,0,5.8,11.2,20.8,11.2s84.3-1.3,84.3-1.3l25.5-7.8l12.5-14l-11.2-10.2c0,0-21.5-11-31-9
	s-32.8-3.8-41.3-2s-36.3,1.8-40.3,3.3s-18.7,2.7-19.3,6.7c-0.7,4-10.3,11.2-6,16.7C97.2,119.7,98.8,120.7,98.8,120.7z"/>
<title>Mass</title>
<path d="M5,169.4V80.5h240c0,0.2,0,0.5,0,0.7c0,29.2,0,58.4,0,87.6v0.6H5.9C5.6,169.5,5.3,169.4,5,169.4z M68.4,123.5v-0.2l-0.9-0.5
	c-1.2-0.5-2-1.8-1.9-3.1c0-0.4,0-0.8,0-1.2c0-3.3,0-6.7,0-10c0-3.4-2.3-6.4-5.7-7.1c-3.5-0.8-7.2,0.5-9.5,3.2l-0.6,0.6
	c0-0.3,0-0.5,0-0.7c0-4.4,0-8.7,0-13.1c0-1.1,0-1.1-1.2-1.1c-5.9,0.2-11.7,0.3-17.5,0.5c-4,0.1-8,0-12,0c-1,0-1.9-0.1-2.9-0.2
	c-0.6,0-0.8,0-0.8,0.6c-0.1,2.1-0.2,4.3-0.2,6.4c0,0.1,0,0.3,0.1,0.4h0.2c0.2-0.5,0.5-1,0.7-1.5c0.7-1.6,2.1-2.7,3.9-3.1
	c1.4-0.2,2.7-0.3,4.1-0.3c0.4,0,0.6,0.3,0.6,0.7c0,8.6,0,17.3,0,25.9c0,0.7-0.3,1.4-0.8,1.9c-0.6,0.4-1.3,0.9-1.9,1.2l-0.5,0.3v0.1
	h15.9v-0.1c-0.2-0.1-0.3-0.2-0.5-0.3c-0.5-0.3-1.1-0.5-1.6-0.8c-0.9-0.5-1.4-1.5-1.4-2.5c0-5.7,0-11.3,0-17c0-2.9,0-5.8,0-8.8
	c0-0.4,0.1-0.7,0.5-0.7c1.3,0,2.5,0,3.7,0c0.6,0,1.2,0.2,1.8,0.4c0.7,0.2,1.2,0.9,1.1,1.6c0,1.5,0,2.9,0,4.3c0,5.6,0,11.2,0,16.9
	c0,1.2,0,2.3,0,3.5c0.1,1.4-0.8,2.6-2.1,3c-0.1,0-0.3,0.1-0.4,0.2v0.1c0.2,0,0.4,0.1,0.5,0.1h12.8c0.2,0,0.4,0,0.5-0.1v-0.2
	c-0.2-0.1-0.4-0.2-0.6-0.3c-1.2-0.4-2-1.6-2-2.9c0-3.8,0-7.6,0-11.4c0.1-2,1.7-3.6,3.7-3.5c1.7-0.1,3.2,1.1,3.3,2.8
	c0,0.1,0,0.3,0,0.4s0,0.2,0,0.3c0,3.9,0,7.7,0,11.6c0.1,1.2-0.7,2.3-1.8,2.8c-0.1,0-0.2,0.1-0.4,0.2c-0.1,0.1-0.1,0.2-0.2,0.3
	c0.1,0.1,0.2,0.1,0.3,0.1s0.2,0,0.3,0h12.9C68.1,123.5,68.2,123.5,68.4,123.5z M56.2,140.9L56.2,140.9c-0.1-0.2-0.2-0.4-0.2-0.6
	c0-0.7,0-1.5,0-2.2s0-0.8-0.8-0.7c-2.1,0.1-4.3,0.2-6.4,0.4c-1,0-2,0.2-2.9,0.3c-0.2,0-0.4,0.2-0.6,0.3c0.1,0.1,0.3,0.4,0.4,0.4
	c0.5,0.2,0.9,0.6,1,1.1c0.3,0.9,0.4,1.8,0.5,2.7c0,4.3,0,8.7,0,13.1c0,0.4,0,0.8,0,1.2c-0.2,1.2-1.1,1.6-2.1,0.8
	c-0.6-0.5-1.1-1.2-1.3-2c-1-2.8-2-5.7-3-8.5c-2.3-6.4-4.6-12.8-6.9-19.3c-0.2-0.5-0.4-0.8-1-0.8c-1.7,0-3.5,0-5.3,0
	c-0.9,0-0.9,0-1.2,0.8c-1.4,4.1-2.9,8.3-4.3,12.4c-1.7,5.1-3.5,10.2-5.2,15.3c-0.4,1.6-1.5,2.8-3,3.4c-0.1,0-0.1,0.1-0.2,0.2
	c3.1,0.3,6.1,0.3,9.2,0l-0.7-0.3c-1.7-0.4-2.7-2-2.3-3.7c0.1-0.3,0.1-0.7,0.3-1c0.6-1.7,1.2-3.5,1.8-5.2c0.1-0.3,0.4-0.6,0.7-0.5
	c2.7,0,5.4,0,8.1,0c0.4-0.1,0.7,0.2,0.7,0.5c0.7,2.2,1.5,4.3,2.3,6.5c0.5,1.1,0.1,2.4-1,2.9c0,0-0.1,0-0.1,0.1
	c-0.4,0.2-0.8,0.3-1.2,0.5l-0.4,0.1v0.2c0.3,0.1,0.5,0.1,0.8,0.1h26.3c0.2,0,0.4,0,0.5-0.1v-0.2c-0.2-0.1-0.5-0.2-0.7-0.3
	c-1.2-0.4-2-1.6-2-2.8c0-3.8,0-7.7,0-11.5c0-1.6,1.1-3,2.7-3.3c1.6-0.7,3.5,0.1,4.1,1.8c0.1,0.4,0.2,0.8,0.2,1.1s0,0.5,0,0.7
	c0,3.7,0,7.3,0,11c0.1,1.4-0.7,2.6-2,3.1c-0.1,0-0.2,0.2-0.3,0.3c0.1,0,0.3,0.2,0.4,0.2H74c0.2,0,0.3-0.1,0.5-0.1v-0.1l-0.9-0.5
	c-1.2-0.5-2-1.7-1.9-3.1c0-0.6,0-1.3,0-1.9c0-3.1,0-6.2,0-9.3c0-3.7-2.7-6.8-6.3-7.3c-3.2-0.5-6.5,0.7-8.6,3.1L56.2,140.9z
	 M204.6,159.1v0.2c0.2,0,0.4,0.1,0.6,0.1c4,0,8.1,0,12.2,0c0.6,0,1.2-0.1,1.7-0.3c0.7-0.3,1.5-0.3,2.3-0.1c1.1,0.3,2.3,0.6,3.5,0.8
	c2.2,0.5,4.5,0.2,6.4-0.9c1.7-0.8,3-2.3,3.5-4.1c0.3-1.2,0.3-2.5,0.1-3.7c-0.2-2.2-1.5-4.1-3.5-5.1c-1-0.5-2-0.9-3-1.4
	c-1.2-0.5-2.3-1.2-3.3-1.9c-1-0.6-1.3-1.9-0.7-2.9c0.3-0.5,0.8-0.8,1.3-0.9c1.6-0.6,3.5-0.2,4.7,1c1.1,1.1,2.1,2.3,2.8,3.7
	c0.1,0.2,0.3,0.3,0.5,0.4c0.1-0.2,0.2-0.4,0.2-0.5c0-1.8,0-3.6,0.1-5.5c0-0.9-0.2-1-0.9-0.5c-0.5,0.3-1.2,0.5-1.8,0.3
	c-0.9-0.2-1.8-0.4-2.7-0.5c-2.6-0.6-5.3-0.3-7.7,0.8c-2.5,1.2-4,3.9-3.5,6.7c0.3,2.2,1.8,4.1,3.8,5c1.2,0.6,2.5,1.1,3.7,1.7
	c1.1,0.5,2.1,1.3,2.9,2.2c0.7,0.9,0.8,2.2,0.2,3.2c-0.7,1.5-2.6,2.2-4.1,1.4c-0.1-0.1-0.3-0.1-0.4-0.2c-1.1-0.6-2-1.5-2.7-2.5
	c-0.8-1.1-1.4-2.4-2.2-3.5c-0.2-0.2-0.4-0.4-0.6-0.5c-0.1,0.2-0.2,0.4-0.3,0.7c0,1.1,0,2.2,0,3.3c0,0.8,0,1.6,0,2.4
	s-0.4,0.8-0.9,0.4c-0.8-0.5-1.3-1.4-1.3-2.3c0-0.9,0-1.9,0-2.8c0-3,0-5.9,0-8.9c-0.1-3.3-2.4-6.2-5.6-7c-3.5-0.8-7.2,0.5-9.6,3.3
	l-0.5,0.5c0-0.3-0.1-0.5-0.1-0.7c0-0.7,0-1.5,0-2.3c0-0.7,0-0.8-0.8-0.8c-1.6,0.1-3.2,0.1-4.8,0.3s-3,0.2-4.4,0.4
	c-0.2,0-0.4,0.2-0.5,0.3l0.4,0.4c0.3,0.3,0.7,0.5,0.9,0.9c0.3,0.8,0.5,1.6,0.6,2.4c0.1,4.7,0.1,9.3,0,14c0.1,1.3-0.6,2.4-1.7,3
	l-0.3,0.1l0.1,0.1c0.1,0,0.2,0.1,0.3,0.1H202c0.2,0,0.3-0.1,0.5-0.1v-0.1l-0.6-0.3c-1.2-0.4-2-1.5-2-2.8c0-3.8,0-7.6,0-11.4
	c0-1.8,1.3-3.4,3.1-3.6c1.6-0.5,3.4,0.5,3.8,2.2c0.1,0.2,0.1,0.5,0.1,0.7c0,0.4,0.1,0.8,0.1,1.1c0,3.6,0,7.1,0,10.6
	c0,0.2,0,0.5,0,0.7c0,1.2-0.8,2.2-1.9,2.6C205,159,204.8,159.1,204.6,159.1L204.6,159.1z M86.8,124.7v0.2l0.6,0.2
	c0.7,0.2,1.5,0.4,2.2,0.6c0.6,0.2,1,0.9,0.9,1.5c0,0.6,0,1.1,0,1.7c0,3,0,6,0,9.1c0,0.2,0,0.4-0.1,0.6c-0.3-0.1-0.5-0.3-0.7-0.4
	c-3.4-1.6-7.4-1.6-10.8,0.2c-5.5,2.6-7.8,9.1-5.2,14.5c1.4,3.1,4.2,5.3,7.6,6c1.5,0.3,3,0.5,4.6,0.4h15.7c0.2,0,0.4-0.1,0.6-0.1
	c-0.1-0.1-0.1-0.2-0.1-0.2l-0.5-0.3c-1.4-0.5-2.3-1.9-2.2-3.4c0-9.9,0-19.8,0-29.7c0-0.5,0-0.9,0-1.3s-0.2-0.7-0.8-0.7l-2.9,0.2
	l-8.1,0.7C87.2,124.6,87,124.7,86.8,124.7z M236.1,110C236.1,109.9,236.1,109.9,236.1,110l-0.2-0.1c-2.9-0.3-5.7-1.3-8.2-2.8
	c-2.1-1.3-4.1-2.7-6.1-4c-4.2-3-9.6-3.5-14.4-1.5c-2,0.9-3.8,2.1-5.5,3.5c-2,1.6-4.1,3.1-6.2,4.6L195,110c1.2,0.8,2.3,1.6,3.5,2.4
	c2,1.5,4,3.1,6.1,4.6c2.5,1.7,5.5,2.7,8.5,2.7c2.8,0.1,5.5-0.7,7.8-2.3c1.8-1.1,3.5-2.3,5.3-3.5c2.9-2,6.2-3.3,9.6-3.7
	C235.9,110.1,236.1,110.1,236.1,110L236.1,110z M176.4,136.3c-3.4-0.1-6.7,1-9.5,2.9c-2.6,1.7-4.3,4.4-4.8,7.5
	c-0.6,4.2,1.2,8.3,4.7,10.7c2.9,2.1,6.4,3.2,9.9,2.9c3.6-0.1,7.1-1.4,9.7-3.8c4.5-3.8,5.1-10.5,1.3-15c-0.3-0.4-0.7-0.7-1-1.1
	C184,137.7,180.3,136.3,176.4,136.3L176.4,136.3z M147.2,108.5L147.2,108.5l15.4,0.1c0.9,0,1.9,0,2.8-0.1c2.7-0.3,5.2-1.3,7.3-3
	c4.6-3.9,9.1-7.8,13.7-11.7c0.1-0.1,0.2-0.2,0.3-0.4c-0.2,0-0.2,0-0.3,0c0,0-0.2,0.1-0.3,0.2c-1,0.5-1.9,0.9-2.9,1.2
	c-2.4,0.5-4.8,0.6-7.2,0.2c-1.9-0.2-3.7-0.5-5.6-0.6c-2.7-0.2-5.3,0.3-7.8,1.2c-2.3,1-4.4,2.4-6.1,4.3c-2,2.1-4,4.2-6,6.2
	C149.6,107.3,148.5,108.1,147.2,108.5L147.2,108.5z M95.9,108.5L95.9,108.5l15.4,0.1c0.9,0,1.9,0,2.8-0.1c2.6-0.2,5.1-1.3,7.2-2.9
	c4.6-3.9,9.2-7.9,13.8-11.8c0.1-0.1,0.2-0.2,0.2-0.3c-0.1-0.1-0.3-0.1-0.4,0c-1.5,1-3.3,1.6-5.1,1.7c-2.3,0.1-4.6,0-6.8-0.4
	c-3-0.5-6-0.5-9,0c-2.6,0.4-4.9,1.6-6.9,3.3c-2.3,2.2-4.4,4.5-6.7,6.7C99.1,106.3,98,107.9,95.9,108.5L95.9,108.5z M172.8,108.5
	L172.8,108.5l0.5,0.1c5.2,0,10.4,0,15.6,0c1,0,2.1-0.1,3.1-0.3c2.6-0.5,5.1-1.7,7.1-3.5c4.3-3.7,8.6-7.4,12.9-11.1
	c0.1-0.1,0.2-0.2,0.3-0.3c-0.1-0.1-0.3-0.1-0.4,0c-1.5,1-3.3,1.6-5.2,1.7c-2.3,0.1-4.6,0-6.8-0.4c-2.3-0.4-4.7-0.4-7.1-0.3
	c-3.8,0.3-7.4,2-10.1,4.8c-2.1,2.2-4.2,4.3-6.3,6.5C175.6,107,174.3,108,172.8,108.5L172.8,108.5z M161,93.5l-0.1-0.1
	c-0.1,0-0.2,0.1-0.3,0.1c-1.9,1.2-4.1,1.8-6.3,1.7c-2.4-0.1-4.7-0.4-7.1-0.6c-2.4-0.3-4.8-0.3-7.1,0.1c-3,0.5-5.8,1.9-8,4
	c-1.7,1.7-3.4,3.5-5.2,5.3c-1.7,1.7-3,3.7-5.3,4.6h15.3c0.9,0,1.9,0,2.8-0.1c2.8-0.3,5.4-1.4,7.6-3.2l13.5-11.5
	C160.9,93.7,161,93.6,161,93.5L161,93.5z M212.2,126.3l0.1-0.1l-0.4-0.4l-7.3-6.2c-2.1-1.8-4.2-3.7-6.4-5.5c-2.6-2-5.8-3.1-9.2-3
	c-5.2,0-10.4,0-15.6,0h-0.8c0.6,0.3,1.2,0.6,1.7,0.9c0.5,0.4,1,0.8,1.4,1.3c2.1,2.2,4.2,4.3,6.3,6.5c1.3,1.4,2.8,2.6,4.4,3.5
	c3.9,1.9,8.3,2.5,12.6,1.7c2.3-0.3,4.6-0.5,6.9-0.5c2-0.1,4.1,0.5,5.8,1.7C212,126.3,212.1,126.3,212.2,126.3z M186.6,126.3l0.1-0.1
	c-0.1-0.1-0.2-0.2-0.3-0.3L173,114.4c-2.5-2.1-5.6-3.3-8.9-3.3c-5.5-0.1-11.1,0-16.6,0c-0.1,0-0.2,0-0.3,0c1.5,0.6,2.8,1.6,3.8,2.9
	c1.9,1.9,3.7,3.8,5.5,5.7c1.3,1.4,2.8,2.6,4.4,3.5c3.9,1.9,8.3,2.5,12.6,1.7c2.3-0.3,4.6-0.5,6.9-0.5c2-0.1,4.1,0.5,5.8,1.6
	C186.3,126.2,186.5,126.3,186.6,126.3z M161,126.3l0.1-0.1c-0.1-0.1-0.2-0.2-0.3-0.3c-4.2-3.6-8.5-7.2-12.7-10.9
	c-2.7-2.4-6.1-3.8-9.7-3.9c-5.5-0.1-11.1,0-16.6,0c0,0-0.1,0-0.3,0.1c1.2,0.3,2.2,0.9,3,1.9l7.4,7.5c1.5,1.6,3.3,2.8,5.3,3.5
	c3.5,1.2,7.2,1.5,10.8,0.9c2.3-0.3,4.5-0.5,6.8-0.5c1.8-0.1,3.6,0.4,5.2,1.2C160.3,125.9,160.6,126.1,161,126.3z M96,111.1v0.2
	c1.3,0.4,2.4,1.2,3.2,2.2c2.2,2.2,4.3,4.4,6.5,6.7c1.4,1.5,3.1,2.7,4.9,3.6c3.7,1.5,7.8,2,11.8,1.3c2.3-0.3,4.5-0.5,6.8-0.5
	c2.1-0.1,4.1,0.5,5.8,1.6c0.1,0.1,0.3,0.2,0.4,0.2l0.1-0.1c-0.1-0.1-0.2-0.2-0.3-0.3c-4.3-3.6-8.5-7.2-12.7-10.9
	c-2.8-2.5-6.3-3.9-10.1-3.9c-5.1,0-10.2,0-15.3,0L96,111.1z M116.5,146.7h7.2c0.6,0,0.7-0.1,0.6-0.7c-0.4-1.9-1.2-3.7-2.5-5.1
	c-4.1-4.5-10.7-5.4-15.8-2.2c-3.9,2.2-6.1,6.5-5.5,11c0.7,5.8,5.4,10.2,11.2,10.5c3.7,0.2,7.3-1.2,9.9-3.8c1-0.9,1.8-2,2.2-3.3
	c0-0.3,0-0.5,0-0.8c-0.2,0.1-0.5,0.3-0.7,0.5c-0.8,1.2-1.8,2.1-3,2.8c-3.6,2-9.6,1.1-10.8-4.8c-0.2-1.2-0.3-2.3-0.4-3.5
	c0-0.4,0.1-0.6,0.5-0.6C111.7,146.7,114.1,146.7,116.5,146.7L116.5,146.7z M82.9,111.1H90c0.7,0,0.8-0.1,0.6-0.8
	c-0.3-1.6-1-3.2-2.1-4.5c-4.1-5-11.4-6.1-16.8-2.5c-5.2,3.5-6.7,10.5-3.2,15.8c0.2,0.3,0.4,0.6,0.7,0.9c3.6,4.3,9.6,5.6,14.7,3.2
	c2-0.8,3.7-2.2,5-3.8c0.5-0.8,0.9-1.6,1.2-2.4c0-0.1,0-0.3,0-0.4c-0.2,0-0.3,0.1-0.4,0.1c-0.1,0.2-0.3,0.3-0.4,0.5
	c-1.5,2.4-4.2,3.7-7.1,3.5c-3.2,0-5.9-2.2-6.5-5.3c-0.3-1.3-0.3-2.6-0.5-3.9c0-0.5,0.1-0.6,0.5-0.6
	C78.1,111.1,80.5,111.1,82.9,111.1L82.9,111.1z M136.7,159.1c-0.3-0.1-0.5-0.3-0.7-0.3c-1.2-0.4-2-1.6-2-2.9c0-3.1,0-6.1,0-9.2
	c-0.1-1.1,0.3-2.1,1.1-2.9c1.4-1.3,3.4-1.3,4.9-0.2c0.6,0.4,1.1,0.9,1.7,1.4c0.6,0.5,0.6,0.2,0.7-0.3c0.4-2.1,0.8-4.2,1.2-6.3
	c0.1-0.4,0-0.7-0.4-0.9c-0.9-0.4-1.9-0.7-2.8-0.9c-0.8-0.1-1.5,0-2.1,0.5c-0.5,0.4-1,0.8-1.4,1.3c-0.8,1.1-1.5,2.2-2.3,3.3
	c-0.1,0.2-0.3,0.3-0.5,0.6c0-0.4-0.1-0.6-0.1-0.8c0-1.2,0-2.4,0-3.5c0-0.7-0.1-0.8-0.7-0.7c-2.2,0.1-4.3,0.2-6.5,0.4
	c-1,0-2,0.2-2.9,0.3c-0.2,0-0.3,0.2-0.5,0.3c0.1,0.1,0.2,0.4,0.3,0.4c0.5,0.2,1,0.6,1.1,1.2c0.3,0.8,0.4,1.6,0.5,2.4
	c0,4.4,0,8.9,0,13.5c0.1,1.4-0.6,2.7-1.8,3.3c0,0-0.1,0.1-0.1,0.2C127.8,159.5,132.2,159.5,136.7,159.1L136.7,159.1z M144.3,155.6
	L144.3,155.6c0,1.1,0,2.2,0,3.3c0,0.2,0,0.5,0.2,0.6s0.4,0,0.6-0.1c0.6-0.5,1.5-0.6,2.2-0.5c1.3,0.3,2.7,0.6,4,0.9
	c2.2,0.5,4.4,0.2,6.4-0.8c1.7-0.8,3-2.2,3.6-4c0.3-1.3,0.4-2.6,0.1-3.9c-0.2-2.1-1.5-3.9-3.3-4.9c-0.9-0.5-1.9-0.9-2.8-1.3
	c-1.3-0.6-2.5-1.3-3.7-2c-1-0.6-1.3-1.9-0.7-2.9c0.3-0.5,0.7-0.8,1.3-0.9c1.5-0.6,3.2-0.3,4.5,0.8c1.1,0.9,2,2,2.7,3.3
	c0.2,0.3,0.3,0.6,0.5,0.8c0.1,0.1,0.2,0.2,0.4,0.2c0.1,0,0.2-0.2,0.2-0.3s0-0.2,0-0.3c0-1.8,0-3.6,0-5.3c0-0.8-0.2-0.9-0.9-0.5
	c-0.6,0.4-1.3,0.5-2,0.3c-0.8-0.2-1.7-0.4-2.5-0.5c-2.5-0.5-5.1-0.3-7.5,0.8c-3.2,1.4-4.6,5.2-3.2,8.4c0.5,1.1,1.3,2,2.2,2.7
	c1.2,0.7,2.5,1.4,3.9,2s2.7,1.5,3.7,2.7c1,1.4,0.7,3.3-0.7,4.3c-0.6,0.5-1.4,0.7-2.2,0.6c-1.2-0.2-2.2-0.9-3-1.8
	c-1.2-1.3-2.1-2.7-2.9-4.3c-0.1-0.3-0.3-0.5-0.4-0.8c-0.1-0.1-0.3-0.2-0.4-0.2c-0.1,0.1-0.2,0.2-0.3,0.4c0,0.1,0,0.3,0,0.4
	C144.3,153.4,144.3,154.5,144.3,155.6L144.3,155.6z"/>
<path class="st1" d="M68.4,123.5c-0.1,0-0.3,0-0.4,0H55.1c-0.1,0-0.2,0-0.3,0s-0.2-0.1-0.3-0.1c0-0.1,0.1-0.2,0.2-0.3
	c0.1-0.1,0.2-0.1,0.4-0.2c1.1-0.4,1.9-1.6,1.8-2.8c0-3.9,0-7.7,0-11.6c0-0.1,0-0.2,0-0.3c0.1-1.7-1.2-3.2-2.9-3.2
	c-0.1,0-0.3,0-0.4,0c-2,0-3.7,1.5-3.7,3.5c0,3.8,0,7.6,0,11.4c0,1.3,0.8,2.5,2,2.9c0.2,0.1,0.4,0.2,0.6,0.3v0.2
	c-0.2,0-0.4,0.1-0.5,0.1H39.1c-0.2,0-0.4,0-0.5-0.1v-0.1c0.1,0,0.3-0.1,0.4-0.2c1.3-0.4,2.2-1.7,2.1-3c0-1.2,0-2.3,0-3.5
	c0-5.6,0-11.2,0-16.9c0-1.5,0-2.9,0-4.3c0.1-0.7-0.4-1.4-1.1-1.6c-0.6-0.2-1.2-0.3-1.8-0.4c-1.2-0.1-2.5,0-3.7,0
	C34,93.3,34,93.6,34,94c0,2.9,0,5.8,0,8.8c0,5.7,0,11.3,0,17c-0.1,1.1,0.4,2.1,1.4,2.7c0.5,0.3,1.1,0.5,1.6,0.8
	c0.2,0.1,0.3,0.2,0.5,0.3v0.1h-16v-0.1l0.5-0.3c0.7-0.4,1.3-0.8,1.9-1.2c0.6-0.5,0.9-1.2,0.8-1.9c0-8.6,0-17.3,0-25.9
	c0-0.4-0.1-0.7-0.6-0.7c-1.4,0-2.7,0.1-4.1,0.3c-1.7,0.3-3.1,1.5-3.9,3.1c-0.3,0.5-0.5,1-0.7,1.5h-0.2c0-0.1-0.1-0.3-0.1-0.4
	c0.1-2.1,0.1-4.3,0.2-6.4c0-0.6,0.2-0.7,0.8-0.6c1,0.1,1.9,0.2,2.9,0.2c4,0,8,0,12,0c5.9-0.1,11.7-0.3,17.5-0.5c1.2,0,1.2,0,1.2,1.1
	c0,4.4,0,8.7,0,13.1c0,0.2,0,0.4,0,0.7l0.6-0.6c2.3-2.7,6-4,9.5-3.2c3.3,0.8,5.7,3.7,5.7,7.1c0,3.3,0,6.7,0,10c0,0.4,0,0.8,0,1.2
	c-0.1,1.3,0.6,2.6,1.9,3.1L68.4,123.5L68.4,123.5z"/>
<path class="st1" d="M56.2,140.9l0.6-0.7c2.2-2.4,5.4-3.6,8.6-3.1c3.7,0.5,6.4,3.6,6.3,7.3c0,3.1,0,6.2,0,9.3c0,0.6,0,1.3,0,1.9
	c-0.1,1.3,0.7,2.5,1.9,3.1l0.9,0.5v0.1c-0.2,0.1-0.3,0.1-0.5,0.1H61.1c-0.1,0-0.3-0.1-0.4-0.2c0.1-0.1,0.2-0.3,0.3-0.3
	c1.3-0.5,2.1-1.8,2-3.1c0-3.7,0-7.3,0-11c0-0.3,0-0.5,0-0.7c0-1.8-1.5-3.2-3.2-3.1c-0.4,0-0.8,0.1-1.1,0.2c-1.6,0.3-2.7,1.7-2.7,3.3
	c0,3.8,0,7.7,0,11.5c0,1.3,0.8,2.4,2,2.8c0.2,0.1,0.5,0.2,0.7,0.3v0.2c-0.2,0-0.4,0.1-0.5,0.1H31.8c-0.3,0-0.5-0.1-0.8-0.1v-0.2
	l0.4-0.1c0.4-0.1,0.8-0.3,1.2-0.5c1.1-0.5,1.7-1.7,1.2-2.8c0,0,0-0.1-0.1-0.1c-0.8-2.2-1.5-4.3-2.3-6.5c-0.1-0.4-0.4-0.6-0.7-0.5
	c-2.7,0-5.4,0-8.1,0c-0.3-0.1-0.7,0.2-0.7,0.5c-0.6,1.7-1.2,3.5-1.8,5.2c-0.1,0.3-0.2,0.7-0.3,1c-0.4,1.7,0.7,3.3,2.3,3.7l0.7,0.3
	c-3.1,0.3-6.1,0.3-9.2,0c0.1,0,0.1-0.1,0.2-0.2c1.5-0.6,2.6-1.9,3-3.4c1.8-5.1,3.5-10.2,5.2-15.3c1.4-4.1,2.9-8.3,4.3-12.4
	c0.3-0.8,0.3-0.8,1.2-0.8c1.7,0,3.5,0,5.3,0c0.6,0,0.8,0.3,1,0.8c2.3,6.4,4.6,12.8,6.9,19.3c1,2.8,2,5.7,3,8.5
	c0.2,0.8,0.7,1.5,1.3,2c1,0.8,1.9,0.4,2.1-0.8c0-0.4,0-0.8,0-1.2c0-4.3,0-8.7,0-13.1c-0.1-0.9-0.2-1.8-0.5-2.7
	c-0.1-0.5-0.5-0.9-1-1.1c-0.2,0-0.3-0.3-0.4-0.4c0.2-0.1,0.4-0.3,0.6-0.3c1-0.1,2-0.2,2.9-0.3c2.1-0.1,4.3-0.3,6.4-0.4
	c0.7,0,0.8,0,0.8,0.7s0,1.5,0,2.2c0,0.2,0,0.4,0.1,0.6L56.2,140.9z M23.1,145.8h7.2l-3.6-9.9h-0.2L23.1,145.8z"/>
<path class="st1" d="M204.6,159.1c0.2-0.1,0.3-0.2,0.5-0.3c1.1-0.4,1.8-1.4,1.9-2.6c0-0.2,0-0.5,0-0.7c0-3.6,0-7.1,0-10.6
	c0-0.4,0-0.8-0.1-1.1c-0.1-1.7-1.5-3-3.2-3c-0.2,0-0.5,0-0.7,0.1c-1.8,0.3-3.1,1.8-3.1,3.6c0,3.8,0,7.6,0,11.4c0,1.3,0.8,2.4,2,2.8
	l0.6,0.3v0.1c-0.1,0.1-0.3,0.1-0.5,0.1h-12.5c-0.1,0-0.2,0-0.3-0.1l-0.1-0.1l0.3-0.1c1.1-0.6,1.8-1.8,1.7-3c0.1-4.7,0.1-9.3,0-14
	c-0.1-0.8-0.3-1.6-0.6-2.4c-0.1-0.4-0.6-0.6-0.9-0.9l-0.4-0.4c0.2-0.1,0.4-0.3,0.5-0.3c1.5-0.1,3-0.3,4.4-0.4
	c1.5-0.1,3.2-0.2,4.8-0.3c0.8,0,0.8,0,0.8,0.8s0,1.5,0,2.3c0,0.2,0,0.3,0.1,0.7l0.5-0.5c2.3-2.8,6-4,9.6-3.3c3.3,0.8,5.6,3.6,5.6,7
	c0,3,0,5.9,0,8.9c0,0.9,0,1.9,0,2.8c0,1,0.5,1.8,1.3,2.3c0.5,0.4,0.9,0.2,0.9-0.4s0-1.6,0-2.4c0-1.1,0-2.2,0-3.3
	c0.1-0.2,0.1-0.5,0.3-0.7c0.2,0.1,0.4,0.3,0.6,0.5c0.7,1.2,1.4,2.4,2.2,3.5c0.7,1,1.6,1.9,2.7,2.5c1.4,1,3.3,0.6,4.3-0.8
	c0.1-0.1,0.2-0.3,0.2-0.4c0.5-1,0.5-2.2-0.2-3.2c-0.8-0.9-1.8-1.7-2.9-2.2c-1.2-0.6-2.5-1.1-3.7-1.7c-2-0.9-3.5-2.8-3.8-5
	c-0.5-2.8,0.9-5.5,3.5-6.7c2.4-1.1,5.1-1.4,7.7-0.8c0.9,0.2,1.8,0.3,2.7,0.5c0.6,0.1,1.2,0,1.8-0.3c0.7-0.4,0.9-0.3,0.9,0.5
	c0,1.8,0,3.6-0.1,5.5c0,0.2-0.1,0.4-0.2,0.5c-0.2-0.1-0.4-0.2-0.5-0.4c-0.7-1.4-1.6-2.7-2.8-3.7c-1.2-1.2-3.1-1.6-4.7-1
	c-1.1,0.3-1.8,1.4-1.5,2.6c0.1,0.5,0.5,1,0.9,1.3c1.1,0.7,2.2,1.3,3.3,1.9c1,0.5,2,0.9,3,1.4c2,1,3.3,2.9,3.5,5.1
	c0.2,1.2,0.1,2.5-0.1,3.7c-0.6,1.8-1.8,3.3-3.5,4.1c-2,1.1-4.2,1.4-6.4,0.9c-1.2-0.2-2.3-0.5-3.5-0.8c-0.8-0.2-1.6-0.2-2.3,0.1
	c-0.6,0.2-1.1,0.3-1.7,0.3c-4,0-8.1,0-12.2,0c-0.2,0-0.4,0-0.6-0.1V159.1z"/>
<path class="st1" d="M86.8,124.7c0.2-0.1,0.4-0.1,0.6-0.2l8.1-0.7l2.9-0.2c0.6,0,0.7,0.1,0.8,0.7s0,0.9,0,1.3c0,9.9,0,19.8,0,29.7
	c-0.1,1.5,0.8,2.9,2.2,3.4l0.5,0.3c0,0,0,0.1,0.1,0.2c-0.2,0.1-0.4,0.1-0.6,0.1H85.8c-1.5,0.1-3.1-0.1-4.6-0.4
	c-5.9-1.3-9.6-7.1-8.3-13c0.7-3.3,2.9-6.1,6-7.6c3.4-1.7,7.4-1.8,10.8-0.2c0.2,0.1,0.4,0.2,0.7,0.4c0-0.2,0.1-0.4,0.1-0.6
	c0-3,0-6,0-9.1c0-0.6,0-1.1,0-1.7c0.1-0.7-0.3-1.3-0.9-1.5c-0.7-0.3-1.4-0.5-2.2-0.6L86.8,124.7L86.8,124.7z M90.5,149.3
	c0-2.2,0-4.4,0-6.7c0-0.6-0.2-1.3-0.6-1.7c-1.4-1.9-4.1-2.4-6-1c-0.7,0.5-1.2,1.2-1.5,2c-0.7,1.9-1,3.8-0.9,5.8
	c0,2.6,0.7,5.1,2.1,7.3c1,1.7,2.7,2.7,4.6,2.8c1.1,0.3,2.1-0.4,2.4-1.5c0.1-0.2,0.1-0.5,0-0.7C90.5,153.5,90.5,151.4,90.5,149.3
	L90.5,149.3z"/>
<path class="st1" d="M176.5,136.3c3.9,0,7.6,1.4,10.4,4.1c4.4,3.9,4.8,10.7,0.8,15.1c-0.3,0.4-0.7,0.7-1.1,1
	c-2.7,2.4-6.1,3.8-9.7,3.8c-3.5,0.2-7.1-0.8-9.9-2.9c-3.5-2.3-5.4-6.5-4.7-10.7c0.5-3,2.2-5.7,4.8-7.5
	C169.7,137.3,173.1,136.2,176.5,136.3z M170.9,148.1c0,1.9,0.3,3.7,0.9,5.5c0.4,1.3,1.2,2.6,2.3,3.5c1.2,1.2,3.2,1.2,4.4-0.1l0,0
	c0.7-0.6,1.3-1.4,1.7-2.3c1.8-4,1.9-8.6,0.1-12.6c-0.4-1.1-1.1-2-2-2.7c-1.2-1-2.9-1-4.1,0c-0.6,0.5-1,1-1.4,1.6
	C171.5,143.2,170.9,145.7,170.9,148.1z"/>
<path class="st1" d="M116.4,146.7c-2.4,0-4.7,0-7.1,0c-0.4,0-0.6,0.1-0.5,0.6c0.1,1.2,0.2,2.4,0.4,3.5c1.2,5.9,7.2,6.8,10.8,4.8
	c1.2-0.7,2.2-1.6,3-2.8c0.2-0.2,0.4-0.4,0.7-0.5c0,0.3,0,0.5,0,0.8c-0.4,1.3-1.2,2.4-2.2,3.2c-2.6,2.6-6.2,4-9.9,3.8
	c-5.8-0.3-10.5-4.7-11.2-10.5c-0.6-4.4,1.6-8.8,5.5-11c5.1-3.2,11.8-2.2,15.8,2.2c1.3,1.4,2.1,3.2,2.5,5.1c0.1,0.6,0,0.7-0.6,0.7
	L116.4,146.7z M112.4,145h3.3c0.2,0,0.4,0,0.4-0.3c0.1-1.6-0.4-3.2-1.3-4.5c-0.8-1.4-2.5-1.8-3.9-1c-0.4,0.3-0.8,0.6-1,1
	c-0.9,1.3-1.4,2.9-1.3,4.5c0,0.3,0.1,0.4,0.4,0.4L112.4,145z"/>
<path class="st1" d="M82.9,111.1c-2.4,0-4.7,0-7.1,0c-0.5,0-0.6,0.1-0.5,0.6c0.2,1.3,0.2,2.7,0.5,3.9c0.6,3.1,3.4,5.3,6.5,5.3
	c2.8,0.2,5.5-1.2,7-3.5c0.1-0.2,0.2-0.4,0.4-0.5c0.1-0.1,0.3-0.1,0.4-0.1c0,0.1,0.1,0.3,0,0.4c-0.3,0.8-0.7,1.6-1.2,2.4
	c-1.3,1.7-3,3-5,3.9c-5.1,2.4-11.1,1.1-14.7-3.2c-4-4.9-3.3-12,1.6-16c0.3-0.2,0.6-0.5,0.9-0.7c5.4-3.6,12.6-2.6,16.8,2.5
	c1,1.3,1.8,2.9,2.1,4.6c0.1,0.7,0,0.8-0.6,0.8L82.9,111.1z M79,109.4h3.3c0.3,0,0.4-0.1,0.4-0.4c0-1.3-0.2-2.5-0.7-3.6
	c-0.3-0.9-1-1.6-1.8-2c-1.3-0.6-2.8-0.2-3.6,1c-1,1.4-1.4,3-1.3,4.7c0,0.3,0.2,0.3,0.4,0.3H79z"/>
<path class="st1" d="M136.6,159.1c-4.4,0.3-8.9,0.4-13.3,0.2c0-0.1,0.1-0.1,0.1-0.2c1.2-0.6,1.9-1.9,1.8-3.3c0-4.4,0-8.9,0-13.5
	c-0.1-0.8-0.2-1.7-0.5-2.4c-0.1-0.6-0.5-1-1.1-1.2c-0.1,0-0.2-0.3-0.3-0.4c0.2-0.1,0.3-0.3,0.5-0.3c1-0.1,2-0.2,2.9-0.3
	c2.2-0.1,4.3-0.3,6.5-0.4c0.7,0,0.7,0,0.7,0.7c0,1.2,0,2.4,0,3.5c0,0.2,0,0.4,0.1,0.8c0.2-0.3,0.4-0.4,0.5-0.6
	c0.8-1.1,1.5-2.2,2.3-3.3c0.4-0.5,0.9-1,1.4-1.3c0.6-0.5,1.4-0.7,2.1-0.5c1,0.3,1.9,0.6,2.8,0.9c0.4,0.1,0.5,0.4,0.4,0.9
	c-0.4,2.1-0.8,4.2-1.2,6.3c-0.1,0.5-0.3,0.6-0.7,0.3s-1.1-1-1.7-1.4c-1.5-1.1-3.6-1-4.9,0.2c-0.8,0.7-1.2,1.8-1.1,2.9
	c0,3.1,0,6.1,0,9.2c0,1.3,0.8,2.4,2,2.9C136.1,158.9,136.3,159,136.6,159.1z"/>
<path class="st1" d="M144.3,155.6c0-1.1,0-2.2,0-3.3c0-0.1,0-0.3,0-0.4c0-0.2,0.1-0.3,0.3-0.4c0.1,0,0.3,0.1,0.4,0.2
	c0.2,0.2,0.3,0.5,0.5,0.7c0.8,1.6,1.8,3,2.9,4.3c0.8,0.9,1.8,1.5,3,1.8c1.7,0.2,3.2-1,3.4-2.7c0.1-0.8-0.1-1.6-0.6-2.2
	c-1-1.2-2.3-2.1-3.7-2.7c-1.3-0.6-2.6-1.2-3.9-2c-2.9-2-3.7-5.9-1.7-8.8c0.7-1,1.6-1.8,2.7-2.2c2.4-1,5-1.3,7.5-0.8
	c0.9,0.2,1.7,0.3,2.5,0.5c0.7,0.2,1.4,0.1,2-0.3c0.7-0.4,0.9-0.3,0.9,0.5c0,1.8,0,3.6,0,5.3c0,0.1,0,0.2,0,0.3s-0.1,0.3-0.2,0.3
	c-0.2,0-0.3-0.1-0.4-0.2c-0.2-0.3-0.3-0.6-0.5-0.8c-0.7-1.3-1.6-2.4-2.7-3.3c-1.2-1.1-2.9-1.4-4.5-0.8c-1.1,0.3-1.8,1.4-1.5,2.6
	c0.1,0.5,0.5,1,0.9,1.3c1.2,0.8,2.4,1.4,3.7,2c0.9,0.5,1.9,0.9,2.8,1.3c1.9,0.9,3.1,2.8,3.3,4.9c0.2,1.3,0.2,2.6-0.1,3.9
	c-0.6,1.8-1.9,3.2-3.6,4c-2,1-4.2,1.3-6.4,0.8c-1.3-0.2-2.7-0.6-4-0.9c-0.8-0.2-1.6,0-2.2,0.5c-0.2,0.1-0.5,0.2-0.6,0.1
	s-0.2-0.4-0.2-0.6c0-1.1,0-2.2,0-3.3L144.3,155.6z"/>
<path d="M23.1,145.8l3.5-9.9h0.1l3.6,9.9H23.1z"/>
<path d="M90.5,149.3c0,2.1,0,4.2,0,6.3c0.2,1.1-0.6,2.1-1.7,2.3c-0.3,0-0.5,0-0.8,0c-1.9-0.1-3.7-1.2-4.6-2.8
	c-1.3-2.2-2-4.7-2.1-7.3c-0.1-2,0.2-4,0.9-5.8c0.8-2.2,3.3-3.4,5.5-2.6c0.8,0.3,1.5,0.8,2,1.5c0.4,0.5,0.6,1.1,0.6,1.7
	C90.5,144.8,90.5,147,90.5,149.3z"/>
<path d="M170.9,148.1c0-2.5,0.6-4.9,1.8-7.1c0.4-0.6,0.9-1.2,1.4-1.6c1.2-1,2.9-1,4.1,0c0.9,0.7,1.6,1.7,2,2.7
	c1.7,4,1.7,8.6-0.1,12.6c-0.4,0.9-1,1.6-1.7,2.3c-1.2,1.2-3.2,1.3-4.4,0.1l0,0c-1.1-0.9-1.8-2.1-2.3-3.5
	C171.2,151.9,170.9,150,170.9,148.1z"/>
<path d="M112.5,145h-3.3c-0.3,0-0.4,0-0.4-0.4c-0.1-1.6,0.4-3.2,1.3-4.5c0.8-1.4,2.5-1.8,3.9-1c0.4,0.3,0.8,0.6,1,1
	c0.9,1.3,1.3,2.9,1.3,4.5c0,0.3-0.2,0.3-0.4,0.3L112.5,145z"/>
<path d="M79,109.4h-3.3c-0.2,0-0.4,0-0.4-0.3c-0.1-1.7,0.4-3.3,1.3-4.7c0.7-1.2,2.3-1.7,3.6-1c0.8,0.4,1.5,1.2,1.8,2
	c0.5,1.1,0.8,2.4,0.7,3.6c0,0.3-0.1,0.4-0.4,0.4H79z"/>
</svg>
