<?xml version="1.0" encoding="utf-8"?>
<!-- Generator: Adobe Illustrator 21.1.0, SVG Export Plug-In . SVG Version: 6.00 Build 0)  -->
<svg version="1.1" id="Layer_1" xmlns="http://www.w3.org/2000/svg" xmlns:xlink="http://www.w3.org/1999/xlink" x="0px" y="0px"
	 viewBox="0 0 250 250" style="enable-background:new 0 0 250 250;" xml:space="preserve">
<style type="text/css">
	.st0{fill:#7BA444;}
	.st1{fill:#242122;}
	.st2{fill:#7B4B21;}
	.st3{fill:#282526;}
	.st4{fill:#FDFDFD;}
</style>
<title>Grocery</title>
<path class="st0" d="M121.2,86.3c-0.7-0.1-1.4,0-2.1-0.1s-0.9-0.4-0.4-1c0.2-0.3,0.4-0.7,0.6-1c-0.7,0-0.6,0.6-1,0.8
	c-0.3-1.3,0.4-2.6,1.7-2.9c0.1,0,0.2,0,0.3-0.1c1-0.2,2.1-0.2,3.1-0.2c0.5,0,1.1,0.1,1.5-0.5h0.2c-0.5,1.9-1.6,3.5-3.2,4.6
	C121.5,86,121.2,85.9,121.2,86.3L121.2,86.3z M119.3,84.1l1.2-0.7C120,83.3,119.5,83.4,119.3,84.1z"/>
<path class="st1" d="M20.4,124c2.7,0,5.3,0,8,0c0.7,0,1.1,0.1,1,1c-0.1,1-0.1,2.1,0,3.1c0,0.5-0.2,0.7-0.7,0.7h-0.2
	c-0.9,0.1-2.1-0.4-2.6,0.2s0.3,1.6,0.6,2.5c1.5,4.8,3.1,9.7,4.6,14.5c0.1,0.8,0.8,1.3,1.6,1.2c0,0,0.1,0,0.1,0c2.1-0.1,2.1,0,2.1,2
	c0,2.7,0,2.7-2.7,2.7c-3.4,0-6.7,0-10.1,0c-0.8,0-1.1-0.2-1-1c0-0.3,0-0.6,0-1c0-0.9-0.3-2,0.2-2.6c0.4-0.6,1.6-0.2,2.5-0.2
	c0.6,0,0.9-0.1,0.7-0.8c-0.3-1.1-0.6-2.1-0.9-3.2c0-0.4-0.4-0.8-0.9-0.7c0,0,0,0,0,0c-1.9,0-3.8,0-5.8,0c-0.5-0.1-0.9,0.2-1,0.7
	c0,0,0,0,0,0.1c-0.3,1.1-0.6,2.2-1,3.2c-0.3,0.7,0,0.8,0.6,0.8c0.9,0,2.1-0.4,2.7,0.2c0.5,0.6,0.1,1.8,0.2,2.8c0,0.3,0,0.6,0,0.8
	c0.1,0.7-0.2,0.9-0.9,0.9c-3.5,0-7,0-10.4,0c-0.8,0-1.1-0.2-1-1c0-0.2,0-0.4,0-0.6c0-1-0.3-2.1,0.1-2.8c0.4-0.7,1.8-0.2,2.7-0.3
	c0.4,0,0.8-0.3,0.8-0.7c1.7-5.7,3.3-11.3,5-17c0.2-0.6,0-0.8-0.6-0.7h-0.2c-2.7,0-2.7,0-2.7-2.8c0-2,0-2,1.9-2L20.4,124z M20,130
	c-0.8,2.7-1.5,5.1-2.3,7.5c-0.2,0.5-0.1,0.8,0.5,0.8c1.1,0,2.2,0,3.4,0c0.4,0,0.7,0,0.5-0.6C21.4,135.3,20.7,132.8,20,130L20,130z"
	/>
<path class="st1" d="M74.3,134.5c0-1.9,0-3.7,0-5.3c0-0.7-0.3-0.7-0.8-0.7c-2.2-0.1-2.2-0.1-2.2-2.4s0-2.2,2.1-2.2s4,0,6,0
	c0.9,0,1.2,0.2,1.2,1.2c0,7,0,14,0,21c0,1,0.3,1.3,1.3,1.2c1.9-0.1,1.9,0,1.9,1.9c0,2.5,0,2.5-2.5,2.5c-1.8,0-3.7,0-5.5,0
	c-1.1,0-1.5-0.2-1.3-1.3c0-0.3,0-0.6,0-0.9c-0.5,0.4-0.8,0.7-1.1,0.9c-3.1,2.4-7.5,2-10.1-0.9c-3.5-4.2-3.7-10.3-0.4-14.7
	c2.5-3.3,7.3-4,10.6-1.4C73.7,133.9,74,134.2,74.3,134.5z M74.3,142c0-0.8-0.1-1.6-0.3-2.4c-0.5-1.5-1.8-2.6-3.4-2.7
	c-1.5-0.1-2.9,0.9-3.4,2.4c-0.7,1.8-0.7,3.9,0.1,5.7c0.5,1.4,1.8,2.3,3.3,2.2c1.5,0,2.8-1,3.3-2.3C74.3,144,74.4,143,74.3,142
	L74.3,142z"/>
<path class="st1" d="M129.1,132.5h2.3c1,0.4,2.1,0.4,3.1,0h0.5c0.6,0.5,1.3,0.1,1.9,0.3v1.3c1.4-0.9,2.9-1.5,4.5-1.9
	c3.7-0.6,6.3,1.2,6.9,4.9c0.3,3,0.3,6.1,0.2,9.1c0,0.9,0.3,1.2,1.1,1.1c0.4,0,0.8,0,1.2,0c0.4,0,0.7,0.2,0.6,0.6c0,0,0,0.1,0,0.1
	c0,1.2,0.4,2.7-0.2,3.5c-0.6,0.8-2.2,0.2-3.3,0.2c-1.5,0-3,0-4.6,0c-0.8,0-1.1-0.2-1.1-1c0-3.4,0-6.8,0-10.2c0-0.5,0-1,0-1.4
	c-0.1-1.3-0.7-1.8-2.1-1.8c-0.4,0-0.8,0.1-1.2,0.2c-1.9,0.6-2,0.8-2,2.7c0,2,0,4,0,6c0,0.8,0.2,1,1,1c2,0,2,0,2,2
	c0,2.5,0,2.5-2.5,2.5c-2.8,0-5.7,0-8.5,0c-1,0-1.2-0.3-1.1-1.2c0.1-0.8,0.1-1.6,0-2.4c0-0.8,0.2-0.9,0.9-0.9c2,0,2,0,2-2.1
	c0-2.4,0-4.9,0-7.3c0-0.8-0.2-1-1-1c-2,0-2,0-2-2c0-0.7,0-1.4,0-2.2C128.1,132.7,128.7,133,129.1,132.5z"/>
<path class="st1" d="M39.8,147.3c0-3,0-6,0-8.9c0-1-0.2-1.6-1.3-1.3c-0.4,0-0.9,0-1.3,0c0-1,0-2.1,0-3.1c0-0.7,0.2-1,1-1
	c1.7,0,3.4,0,5.2,0c1.1,0,2.3-0.4,2.7,1.2c1.3-0.8,2.8-1.4,4.3-1.8c4-0.7,6.7,1.3,7.1,5.3c0.2,2.9,0.2,5.8,0.1,8.6
	c0,1,0.3,1.3,1.2,1.2c0.3,0,0.7,0,1.1,0c0.4,0,0.7,0.2,0.7,0.7c0,1,0,2.1,0,3.1c0,0.5-0.2,0.7-0.7,0.7c-2.6,0-5.1,0-7.7,0
	c-0.8,0-0.7-0.5-0.7-1c0-3.5,0-7,0-10.4c0-3.2-1.3-3.6-4-2.5c-0.9,0.2-1.5,1.1-1.3,2.1c0.1,2.2,0.1,4.3,0,6.5c0,0.7,0.2,0.9,0.9,0.9
	c2,0,2,0,2,2.1c0,2.4,0,2.4-2.4,2.4h-9.3c0-1,0-2.1,0-3.1c0-0.8,0.3-1,1-1C38.7,147.6,39.5,148.2,39.8,147.3z"/>
<path class="st1" d="M199.2,152.3c-5.6,0-10.2-4.5-10.2-10.1c0-5.6,4.5-10.2,10.1-10.2c5.6,0,10.2,4.5,10.2,10.1
	c0.3,5.3-3.8,9.9-9.1,10.2C199.8,152.3,199.5,152.3,199.2,152.3z M195.3,142.3c-0.1,1.1,0.2,2.3,0.7,3.3c0.8,1.7,2.9,2.4,4.6,1.6
	c0.6-0.3,1.1-0.8,1.5-1.3c1.3-2.3,1.3-5.1,0-7.4c-0.6-1.2-1.9-1.8-3.3-1.6c-1.4,0-2.5,0.9-3,2.2
	C195.4,140.1,195.3,141.2,195.3,142.3z"/>
<path class="st1" d="M104.3,142.2c0-5.6,4.5-10.2,10.1-10.2c5.6,0,10.2,4.5,10.2,10.1c0,5.6-4.5,10.2-10.1,10.2
	c-5.3,0.3-9.9-3.8-10.2-9.1C104.3,142.9,104.3,142.5,104.3,142.2z M110.6,142.1c-0.1,1.2,0.2,2.3,0.6,3.4c0.8,1.8,2.9,2.5,4.6,1.7
	c0.7-0.3,1.3-0.9,1.7-1.6c1-2.1,1-4.5,0-6.7c-0.6-1.3-1.9-2.2-3.4-2c-1.5,0-2.8,1-3.2,2.5C110.8,140.2,110.6,141.2,110.6,142.1z"/>
<path class="st2" d="M123.1,132.9c-5.4-3.1-10.9-3.1-16.7-0.3c0.5-0.7,1.1-1.3,1.9-1.7c1.6-0.8,2.6-2.4,2.7-4.1
	c0.2-1.2,0.6-2.4,1-3.6c1-2.7,1.1-5.7,0.4-8.5c-0.2-1.3-1.3-2.3-2.6-2.4c-1.9-0.4-3.9-0.4-5.8-0.7c-4.7-0.6-6.7-1.3-10.6-4.6
	c1,0,1.9,0.3,2.7,0.8c3.6,1.7,7.4,1.6,11.3,1.2c0.9-0.2,1.8-0.2,2.7-0.1c0.6,0.1,0.9,0,0.9-0.7c0-3,1.2-5.9,3.3-8.1
	c1.2-1.4,2-3.3,2-5.2c0-0.7,0-1.3,0-2.1c0.6,0.2,1.1,0.8,1.1,1.5c0.5,1.7,0.4,3.5-0.4,5.1c-0.7,1.3-1.5,2.7-2.1,4
	c-0.9,1.7-1.2,3.7-0.8,5.6c0.5,0.1,0.8-0.3,1.1-0.4c1.5-0.8,3.2-1.1,4.9-0.8c2.3,0.4,4.7,0.5,7.1,0.3c2.1-0.2,4-1.3,5.9-1.9
	c0.4-0.2,0.8-0.3,1.2-0.3c-2.1,2.2-4.9,3.7-7.8,4.3c-2.6,0.5-5.2,0.5-7.7,0.9c-1,0.2-1.9,0.5-2.8,1c-0.4,0.3-0.5,0.5-0.2,0.9
	c2,3.8,3,8,3.1,12.3c-0.1,2.5,1.1,4.8,3.1,6.3C122.4,131.8,123,132.1,123.1,132.9L123.1,132.9z M116.7,117.4l1,7.2
	C118.1,122.1,117.8,119.6,116.7,117.4z M113.4,121.1c-0.2,1.3-0.6,2.5-1.1,3.7c-0.8,1.6-0.9,2.8-0.4,3.7
	C111.5,125.7,113.9,123.9,113.4,121.1L113.4,121.1z M112,105.6c-0.4,1-0.5,2-0.4,3.1c0,0.3,0.2,0.5,0.5,0.4c0.3-0.1,0.2-0.3,0.1-0.5
	C111.9,107.7,112.2,106.8,112,105.6L112,105.6z"/>
<path class="st1" d="M220.9,148.5c0-0.9,0-1.8,0-2.7c0-0.5,0.2-0.7,0.7-0.7c0.5,0,1.2,0,1.8,0c1.1,0,2-0.2,2.6,1.3
	c0.7,1.9,4.8,2.3,6.3,1c0.6-0.4,0.7-1.3,0.3-1.9c-0.2-0.2-0.4-0.4-0.7-0.5c-1.2-0.4-2.4-0.7-3.7-0.9c-1.4-0.2-2.8-0.6-4.1-1.2
	c-2.7-1.2-4-3.1-3.8-5.6c0.4-2.6,2.4-4.6,5-5c2-0.4,4-0.3,5.9,0.3c0.4,0.1,0.9,0.1,1.3-0.1c1.3-0.2,2.6-0.3,3.9-0.1
	c0.4,0,0.3,0.4,0.3,0.7c0,1.4,0,2.9,0,4.3c0,0.5-0.2,0.7-0.7,0.7c-1,0-2.1,0-3.1,0c-0.4,0-0.7-0.2-0.9-0.5c-1.6-1.5-3.9-2-5.9-1.2
	c-0.5,0.2-0.7,0.7-0.7,1.1c0,0.5,0.4,0.9,0.9,1c1.6,0.4,3.2,0.7,4.8,1c0.9,0.2,1.8,0.4,2.7,0.7c2.3,0.6,4,2.6,4.2,5
	c0.3,2.6-1,5-3.3,6.1c-2.7,1.3-5.9,1.3-8.6,0c-0.3-0.1-0.6-0.5-0.6,0.2c0,0.1-0.1,0.2-0.2,0.2c-1.3,0-2.7,0-4.1,0
	c-0.4,0-0.3-0.4-0.3-0.7C220.9,150.3,220.9,149.4,220.9,148.5z"/>
<path class="st1" d="M186.3,140.3c-0.4,0-0.9,0-1.3,0c-1.5,0.4-3.1-0.3-3.9-1.7c-1.1-1.5-3.1-2-4.9-1.3c-1.6,0.4-2.8,1.9-3,3.5
	c-0.2,1.2-0.1,2.4,0.2,3.6c0.7,2.2,3.1,3.5,5.3,2.8c0.1,0,0.2-0.1,0.3-0.1c1.1-0.4,2.1-1.1,2.7-2.1c0.5-0.7,0.9-0.7,1.5-0.4
	c0.9,0.5,1.9,0.9,2.9,1.3c0.9,0.3,1,0.6,0.5,1.4c-1.4,2.5-3.8,4.3-6.7,4.7c-2.1,0.4-4.3,0.2-6.4-0.4c-6.9-2.2-7.9-8.8-6.2-13.6
	c1.9-5.1,8.3-7.5,13.4-5c0.5,0.2,0.9,0.5,1.3,0.7c0.3-0.3,0.1-0.7,0.2-1.1c0.9,0,1.7,0,2.7,0s1.3,0.2,1.2,1.2
	C186.2,136.1,186.3,138.2,186.3,140.3z"/>
<path class="st1" d="M94.8,132.6c0.5,1.3,0,2.7,0.3,4c0.4-0.1,0.4-0.5,0.6-0.8c1.3-2.3,3.7-3.6,6.2-3.6c0.6,0,0.9,0,0.9,0.8
	c0,1.5,0,3,0,4.4c0,0.6-0.2,0.7-0.7,0.8c-4.6,0.4-6.5,2.4-6.5,7.1c0,2.2,0,2.2,2.2,2.2c0.2,0,0.4,0,0.6,0c0.8-0.1,1.1,0.2,1.1,1
	c-0.1,1.1,0.3,2.6-0.2,3.2c-0.6,0.7-2.1,0.2-3.2,0.2c-3.3,0-6.6,0-9.8,0c0-1,0-2,0-3c0-1,0.2-1.1,1.1-1.1c0.9,0,1.5,0.4,2.1-0.4
	c0-3.2,0-6.4,0-9.6c0-0.6-0.2-0.9-0.8-0.8c-0.7,0-1.4,0-2.1,0c0-1,0-2.1,0-3.1c0-0.7,0.3-1,1-1c2.1,0,4.2,0,6.2,0
	C94,132.9,94.5,133,94.8,132.6z"/>
<path class="st1" d="M162.6,140c0,2.1,0,4.2,0,6.4c0,0.8,0.2,1.1,1.1,1.1c1.8,0,1.8,0,1.8,1.8c0,2.7,0,2.7-2.7,2.7s-5.6,0-8.4,0
	c-0.8,0-1.1-0.3-1-1c0-0.4,0-0.7,0-1.1c0-2.3,0-2.3,2.2-2.4c0.5,0,0.8-0.2,0.8-0.8c0-3,0-5.9,0-8.9c0-0.6-0.2-0.8-0.8-0.8
	c-2.1,0-2.1-0.1-2.1-2.2c0-2.1,0-2.3,2.3-2.3c1.9,0,3.8,0,5.8,0c0.8,0,1.1,0.2,1.1,1C162.5,135.7,162.6,137.8,162.6,140z"/>
<path class="st3" d="M218.2,124.1c0.2,0,0.3,0.2,0.3,0.3c0.1,3,0,6-0.2,9c-0.3,2.9-2.9,5-5.8,4.8c-0.6,0-0.8-0.2-0.7-0.8
	c0-0.3,0-0.6,0-0.8c-0.1-0.9,0-1.5,1.1-1.8c1.4-0.5,2.4-2,2.2-3.5c0-0.6-0.4-0.5-0.7-0.5c-0.9-0.1-2,0.4-2.5-0.3
	c-0.5-0.7-0.1-1.7-0.1-2.6c0-1.2,0-2.3,0-3.5c0.2-0.1,0.4-0.2,0.4-0.4h5.8l0.2,0.2L218.2,124.1z"/>
<path class="st0" d="M111.9,92.5c1.9,1.7,2.6,4.4,1.7,6.8c-0.4-0.5,0.1-1.2-0.3-1.5c-0.5-0.2-1-0.3-1.5-0.3c-1.8-0.4-3.2-1.6-4-3.2
	c-1.1-2.2-1.6-4.6-1.6-7c2,1.7,4.6,2,6.7,3.2c2.4,1.3,3.1,3.6,1.7,6.3c-0.2-1.9-0.7-3.5-2.5-4.4c-0.2-0.2-0.5-0.3-0.7-0.1
	c0,0,0,0,0,0L111.9,92.5z"/>
<path class="st0" d="M99.1,92.5c0.8,2.6,0.8,5.4,0.2,8c-0.4,1.6-1.5,3-2.9,3.8c-1.3,0.7-1.3,0.7-1,2.4c-0.6-0.7-1-1.5-1.1-2.5
	c-0.3-0.9-0.3-1.8,0-2.7c0.3-0.8,0.6-1.6,0.8-2.4c-1.5,1.2-2.1,3.1-1.6,4.9c-1.7-1.4-2-3.9-0.6-5.6c0.1-0.1,0.2-0.2,0.3-0.3
	c1-1,2-1.8,3.2-2.6C97.5,94.8,98.5,93.8,99.1,92.5z"/>
<path class="st0" d="M144.1,116.6c-2.6-0.1-5.1-0.7-7.4-2c-1.6-0.8-2.6-2.3-2.9-4c-0.1-1.2-0.5-1.8-1.8-1.5c2.2-1,4.8-0.5,7.1,2.1
	c-0.6-2.2-2.4-2.9-4.5-3.3c2.8-1.3,5-0.6,6.2,2.1c0.5,1.1,1,2.3,1.3,3.5C142.6,114.6,143.2,115.7,144.1,116.6z"/>
<path class="st0" d="M80.5,95.3c1,0.4,2,0.5,3.1,0.4c1.3-0.1,2.7-0.1,4,0.1c2.9,0.4,4.2,2,4.1,5.2c-1.1-2-2.5-3.4-5.1-3.2
	c2.8,0.9,4.6,2.5,4.9,5.4c-0.5-1-1.2-0.7-2-0.6c-1.6,0.4-3.3-0.1-4.6-1.2c-2-1.6-3.6-3.7-4.4-6.1L80.5,95.3z"/>
<path class="st0" d="M79.7,110.9c1.6-1.6,4-2.3,6.2-1.7c0.2,0,0.3,0.1,0.5,0.1c0,0,0.1,0.1,0.3,0.4c-1.6-0.5-1.7,0.4-2,1.5
	c-0.4,1.5-1.4,2.8-2.8,3.5c-2.4,1.2-5.1,1.8-7.8,1.6c2-1.8,2.4-4.3,3.6-6.3c1-2.2,3.5-3.1,5.7-2.1c0.1,0.1,0.2,0.1,0.3,0.2
	c0.2,0.1,0.4,0.2,0.5,0.4c-1.9-0.2-3.7,0.7-4.7,2.3l-0.2,0.2l-0.3,0.3c0.2,0.1,0.3,0,0.5-0.1L79.7,110.9z"/>
<path class="st0" d="M128.2,91.4c0.5,1.1,1.3,2,2.3,2.7c1.2,0.8,2.3,1.7,3.4,2.7c1.7,1.5,1.9,4.1,0.3,5.9c-0.2,0.2-0.3,0.3-0.5,0.5
	c0.6-1.8,0-3.7-1.5-4.9c1.3,2.2,1.2,4.9-0.2,7.1c0.6-1.3-0.1-1.7-1.1-2.2c-1.4-0.6-2.4-1.9-2.8-3.4C127.3,97,127.4,94.1,128.2,91.4z
	 M132.2,98c-0.1,0-0.2-0.1-0.3-0.1c0,0-0.1,0.1-0.1,0.1l0.3,0.2L132.2,98z"/>
<path class="st0" d="M92.6,108.9c-2.3,0.4-3.8,1.1-4.4,3.2c2.1-2.1,4.2-3.1,7-2.1c-1.5-0.3-1.6,0.5-1.8,1.7c-0.4,2-1.7,3.6-3.5,4.4
	c-2.1,1-4.4,1.5-6.7,1.6c1.8-2,2-4.5,3.1-6.7C87.6,108.4,89.8,107.7,92.6,108.9z M88.3,112.1c0,0-0.1-0.1-0.1-0.1
	c-0.1,0-0.2,0-0.2,0.1c0,0.1,0,0.2,0.2,0.2C88.2,112.2,88.2,112.1,88.3,112.1z"/>
<path class="st0" d="M143.3,107.1c2.9-1.4,5-0.8,6.4,1.9c0.5,0.9,1,1.9,1.3,2.9c0.4,1.2,1,2.3,1.9,3.1c-2.9,0.3-5.8-0.4-8.2-1.9
	c-1.1-0.7-2-1.8-2.2-3.2c-0.2-1.2-0.5-1.9-2.1-1.3c1.8-1.3,3.9-1,7.2,1.1C147.5,108.4,146.5,107.8,143.3,107.1z"/>
<path class="st0" d="M121.2,86.3c2.2-0.2,4.4-1,6.3-2.1c-0.6,3.3-1.3,6.4-4,8.6c-0.8,0.7-1.8,1.1-2.9,1.1c-1.2,0-1.8,0.3-1.5,1.9
	c-0.9-2.5,0-5.4,2.3-6.8c0.3-0.2,0.6-0.2,0.7-0.6c-0.4,0-0.7,0.1-1,0.4c-1.7,0.7-2.9,2.3-3,4.2c-0.4-1.1-0.6-2.2-0.5-3.4l0,0
	C118.4,88,119.7,86.9,121.2,86.3L121.2,86.3z"/>
<path class="st0" d="M135.9,102.7c-0.1-2.7,1.6-4.9,5-5.9c-1.8-0.3-2.7,0.2-5.2,3c-0.5-2.3,1-4.5,3.3-4.9c0.3-0.1,0.5-0.1,0.8-0.1
	c1.2-0.1,2.3,0,3.5,0c1.2,0.1,2.4,0,3.5-0.5c-0.5,4.4-5.6,8.2-9.6,7.3C136,101.2,136.4,102.3,135.9,102.7z"/>
<path class="st1" d="M156.2,126.8c0.1-1.9,1.6-3.3,3.5-3.3c1.9,0.1,3.3,1.6,3.3,3.5c-0.1,1.8-1.6,3.3-3.4,3.3
	C157.6,130.3,156.1,128.8,156.2,126.8C156.2,126.9,156.2,126.9,156.2,126.8z"/>
<path class="st0" d="M153.3,101.4c-1.5,1.4-3.2,2.4-5.2,3c-2,0.5-3.6-0.5-5.1-1.5c0.9-1.4,2.7-1.8,4.7-1.8c-1.4-0.7-3-0.5-4.2,0.5
	c0.3-1.6,1.8-2.7,3.5-2.4c0.1,0,0.2,0,0.2,0c1.2,0.3,2.3,0.8,3.4,1.4C151.5,101.3,152.4,101.5,153.3,101.4z M148.2,101.2l-0.2,0.1
	c0,0,0.1,0.1,0.2,0.1c0.1,0,0.2-0.1,0.3-0.1L148.2,101.2z"/>
<path class="st0" d="M104.5,82.5c2,0.6,3.8,0.1,5.5,0.2c1.8-0.1,3.3,1.3,3.4,3.1c0,0.2,0,0.4,0,0.6c-2-2.1-2-2.1-3.6-1.9
	c1.3,0.3,2.3,1.2,3,2.3c0.4,0.7,0.3,0.9-0.5,1.1c-1.5,0.5-3.3,0.2-4.5-0.9C106.4,85.7,105.2,84.2,104.5,82.5z"/>
<path class="st0" d="M74,102.7c2.1-0.2,3.6-1.5,5.3-2.1c1.6-0.7,3.5,0.1,4.2,1.7c0.1,0.2,0.1,0.3,0.2,0.5c-0.7-0.5-1.5-0.8-2.3-1
	c-0.8,0-1.6,0.1-2.4,0.4c2.1,0,4.2,0.1,5.3,2.4c-0.4-0.2-0.7-0.5-1.2-0.1c-1.4,1.2-3.4,1.5-5.1,0.7C76.7,104.6,75.3,103.8,74,102.7z
	"/>
<path class="st0" d="M97.6,105.9c-0.4-1.1,0.2-2.4,1.3-2.8c0,0,0.1,0,0.1,0c0.6-0.2,1.3-0.2,1.9-0.2c1.2,0.1,2.4,0.1,3.6-0.1
	c-0.7,1.5-1.7,2.8-3.1,3.8c-1.1,0.7-2.5,0.8-3.7,0.3c-0.9-0.3,0-0.6,0-0.9l0.2-0.3c0.1-0.2,0.5-0.3,0.2-0.5
	c-0.3-0.2-0.3,0.2-0.4,0.3L97.6,105.9z M98.7,104.6c-0.2,0.1-0.5,0.2-0.3,0.4c0.2,0.3,0.4,0,0.5-0.2c0.2-0.2,0.2-0.2,0.2-0.2
	C99.1,104.6,98.9,104.5,98.7,104.6L98.7,104.6z M99.5,104.6l0.2-0.1c-0.1,0-0.1-0.1-0.2-0.1c-0.1,0-0.2,0-0.2,0.1
	S99.5,104.5,99.5,104.6L99.5,104.6z"/>
<path class="st0" d="M122.8,101.7c1.5,0.2,3.1,0.3,4.6,0.2c1.3,0,2.3,0.9,2.5,2.1c0.2,0.7-0.6,1.3-0.1,2c0.1,0.2-0.2,0-0.3,0
	c-1.2,0.4-2.6,0.2-3.7-0.5C124.5,104.5,123.5,103.2,122.8,101.7z M129.3,104.6c0.1,0,0.2,0.2,0.2,0.2s0-0.3,0-0.4
	c0-0.1-0.2-0.4-0.4-0.3C128.9,104.2,129.1,104.5,129.3,104.6z M128.7,103.8c-0.3-0.5-0.6-0.5-1.1-0.4
	C128.1,103.7,128.3,103.9,128.7,103.8L128.7,103.8z"/>
<path class="st0" d="M92,93.9c-0.5,0.6-0.8,1.3-0.7,2.1c-0.9-1-0.8-2.4,0.1-3.3c0.1-0.1,0.2-0.2,0.4-0.3c0.9-0.6,1.8-1,2.7-1.5
	c0.4-0.2,0.9-0.5,1.3-0.8c0.8,2.7-0.7,5.6-3.3,6.5c-0.5,0.2-0.3,0.6-0.5,0.9c-0.5-1.1-0.4-2.4,0.2-3.4v-0.3L92,93.9z"/>
<path class="st0" d="M111.3,99.3c0.3,0.4,0.9,0.5,1,1c-3.1,2.3-5.5,0.9-8.1-1.2c1.5-0.4,2.9-1,4.3-1.6c1.3-0.5,2.7,0.1,3.3,1.3
	c0.1,0.3,0,0.4-0.3,0.3l-0.3-0.2c-0.8-0.5-1.7-0.6-2.5-0.3l2.3,0.5L111.3,99.3z"/>
<path class="st0" d="M144.4,105.6c-1,0.5-2.1,0.9-3.3,1.2c-1.8,0.4-3.6-0.3-4.6-1.8c-0.3-0.4,0-0.5,0.2-0.6c0.9-0.4,1.8-0.6,2.8-0.5
	c-0.8-0.7-1.6-0.3-2.5-0.2c0.5-1.1,1.8-1.7,3-1.2c0.1,0.1,0.3,0.1,0.4,0.2c0.8,0.5,1.6,1.1,2.4,1.8
	C143.3,105,143.8,105.4,144.4,105.6z"/>
<path class="st0" d="M134.9,92.9c0.4,0.7,0.6,1.5,0.6,2.3c0,0.5-0.1,0.6-0.7,0.5c-2.4-0.6-3.2-2.3-3.5-4.5c-0.1-0.7-0.1-1.5-0.1-2.4
	c1.3,1.2,2.8,1.5,4,2.4c1.2,0.7,1.7,2.2,1,3.4c-0.1,0.1-0.1,0.2-0.2,0.3c-0.2-0.8-0.2-1.7-0.9-2.2l-0.3-0.2
	c-0.1-0.2-0.2-0.3-0.4-0.1l0.3,0.3L134.9,92.9z"/>
<path class="st0" d="M132.4,118c-1.3-1-2.3-2.4-2.9-3.9c-0.4-1.3-0.2-2.7,0.6-3.8c0.3-0.5,0.6-0.1,0.8,0.1c0.9,1,1.3,2.4,1.1,3.7
	c0.6-1.3,0.4-2.7-0.6-3.8c1.2,0,2.2,1.1,2.1,2.3c0,0.1,0,0.2,0,0.3c-0.2,0.9-0.4,1.9-0.8,2.7C132.4,116.5,132.3,117.2,132.4,118z"/>
<path class="st0" d="M118.9,99.8c0.2-1.4,1.1-2.5,2.4-3.1c-1.1,0-2,0.7-2.4,1.8c-0.4-1.2,0.2-2.5,1.4-2.9c0.2-0.1,0.4-0.1,0.6-0.1
	c1.5-0.1,3-0.3,4.4-0.6c-0.4,1.5-1.2,2.8-2.3,3.9C121.9,100,120.4,99.7,118.9,99.8z"/>
<path class="st0" d="M82.8,106.7c1.6-0.6,2.5-1.8,3.7-2.6c1-0.9,2.5-0.7,3.4,0.3c0.1,0.1,0.2,0.2,0.2,0.3c-2.1,0-2.1,0-2.9,0.5
	c0.9-0.1,1.8-0.1,2.7,0.1c1,0.3,1,0.5,0.4,1.3c-1.1,1.3-2.9,1.8-4.6,1.3C84.7,107.6,83.7,107.2,82.8,106.7z"/>
<path class="st0" d="M144.2,93.7c0.3-0.5,0.1-1,0.2-1.7c-2.1,1.4-4.1,2.7-6.4,0.6c0-0.3,0.7-0.3,0.6-0.8l0,0
	c0.9-0.2,1.8-0.3,2.7-0.3c-0.8-0.5-1.8-0.5-2.7,0l-0.1-0.1c0.8-1.2,1.5-1.5,2.8-1c1.1,0.4,2.1,0.9,3.2,1.4c0.1,0,0.2,0.2,0.3,0.1
	c0.5-0.3,1.2-0.3,1.7-0.1c0.6,0.2,1.1,0.4,1.7,0.6c-0.7,1.3-2.3,1.8-3.6,1.2C144.5,93.6,144.4,93.6,144.2,93.7L144.2,93.7z"/>
<path class="st0" d="M95.7,111.5c-0.9,1.3-0.9,1.4-0.7,3.5c0.1-1.1,0.4-2.2,0.9-3.1c0.6-0.8,0.9-0.7,1.3,0c0.6,1,0.7,2.2,0.3,3.2
	c-0.6,1.5-1.5,2.8-2.7,3.8c-0.2-1.4-0.6-2.9-1.1-4.2c-0.5-1.3,0.1-2.8,1.4-3.3c0.1,0,0.2-0.1,0.3-0.1L95.7,111.5z"/>
<path class="st0" d="M105.8,91.9c0.8,0.8,0.5,1.2-0.4,1.6c-1,0.5-2.2,0.5-3.3,0c-1.4-0.6-2.6-1.6-3.6-2.8c1.4-0.1,2.8-0.4,4.1-0.9
	c1.2-0.5,2.5-0.1,3.2,1C106,91,106.4,91.4,105.8,91.9c-0.8-1.4-2.1-1-3.3-0.9C103.6,91,104.7,91.3,105.8,91.9z"/>
<path class="st0" d="M157.6,112.4c-2.9,0.8-4.4,0.2-6.1-2.3c0.6-0.5,1.3-0.1,2.1-0.3c-0.4-0.4-0.9-0.2-1.3-0.3
	c0.7-0.8,1.9-0.9,2.7-0.2c0.1,0.1,0.2,0.2,0.3,0.3c0.4,0.5,0.7,0.9,1.1,1.4C156.6,111.6,157.1,112.1,157.6,112.4z M153.9,109.9
	c0,0-0.1,0.1,0,0.2c0,0.1,0.1,0.1,0.1,0.2l0.1-0.3L153.9,109.9z"/>
<path class="st0" d="M154.5,108.1c-2.7,0.8-4.2,0.2-5.9-2.3c0.6-0.6,1.3-0.1,2-0.4c-0.3-0.4-0.8-0.1-1.2-0.3
	c0.7-0.8,1.8-0.9,2.6-0.2c0.1,0.1,0.2,0.2,0.3,0.4C153.2,106.2,153.8,107.1,154.5,108.1z M151.2,105.7c0,0,0-0.2-0.1-0.2
	c-0.1,0-0.2,0-0.1,0.1c0,0.1,0.1,0.1,0.1,0.2L151.2,105.7z"/>
<path class="st0" d="M73.2,104.1c0.6-0.1,1.2,0,1.8,0.2c-1,2.9-3.4,2.8-6,2.5c0.9-1.1,1.6-2.2,2.4-3.1c0.9-0.9,1.8-0.8,2.9,0L73,104
	c-0.1,0.1-0.4,0-0.3,0.3S73.1,104.2,73.2,104.1z M72.3,104.5L72.3,104.5L72.3,104.5L72.3,104.5L72.3,104.5z"/>
<path class="st0" d="M75.8,106.9c2.2-0.4,2.2-0.4,3.2,0c-1,0.5-1.3,2-2.7,2.3c-1.2,0.3-2.4,0.3-3.6,0c0.7-1,1.4-2,2.2-2.9
	c0.8-0.9,1.7-1,2.9-0.2C77,106.2,76.2,106.1,75.8,106.9c-0.1,0-0.3,0-0.1,0.1L75.8,106.9z"/>
<path class="st0" d="M72.9,111.2c0.9-0.3,1.9-0.4,2.8-0.2c-0.6,2.4-2.9,3.2-6,2.5c0.8-0.9,1.6-1.8,2.2-2.8c0.6-0.9,1.7-1.2,2.6-0.6
	c0.2,0.1,0.3,0.2,0.4,0.3C74.2,110.6,73.4,110.5,72.9,111.2l-0.1,0.1L72.9,111.2L72.9,111.2z"/>
<path class="st0" d="M158.2,105.6c-2.3,0.8-4.7,0.1-5.5-1.5c-0.5-1-0.4-1.1,0.7-1.1c0.4,0,0.9,0.1,1.3,0.2c-0.4-0.7-1.1-0.4-1.6-0.7
	c0.8-0.7,2-0.6,2.7,0.2c0.1,0.1,0.1,0.1,0.2,0.2C156.7,103.9,157.4,104.8,158.2,105.6z M155.2,103.5
	C155.2,103.5,155.2,103.4,155.2,103.5c-0.1-0.1-0.1-0.1-0.1-0.1S155.1,103.4,155.2,103.5C155.2,103.5,155.2,103.5,155.2,103.5z"/>
<path class="st0" d="M149.6,96.6c-0.9-0.4-1.9-0.4-2.8,0.2c0.2-1,1.2-1.7,2.3-1.5c0.2,0,0.3,0.1,0.5,0.2c1,0.5,2.1,0.9,3.2,1.3
	c-1.4,2-4.2,2.5-6.2,1.1c-0.1,0-0.1-0.1-0.2-0.1C147.2,96.7,148.4,96.3,149.6,96.6z"/>
<path class="st0" d="M86.1,92.5c0.4,0,0.8,0,1.2,0.1c0.7,0.2,1.7,0.4,1.6,1.1c0,0.5-1,0.9-1.7,1c-1.2,0.1-2.4-0.2-3.4-0.9
	c-0.3-0.2-0.5-0.7-1.1-0.5l0,0c0.8-1.8,4.8-2.3,5.9-0.9l-0.2,0.2C87.7,92.2,86.8,92.2,86.1,92.5l-0.4,0.1L86.1,92.5z"/>
<path class="st0" d="M80.3,97.8c-0.8-0.5-1.9-0.5-2.7,0c0.8-0.1,1.6,0,2.3,0.3c0.9,0.5,0.9,0.8,0.1,1.3c-0.9,0.6-1.9,0.7-2.9,0.3
	c-1.1-0.3-2-0.9-2.8-1.7c1.2-0.4,2.4-0.8,3.5-1.3c0.9-0.4,1.9,0,2.3,0.9C80.3,97.6,80.3,97.7,80.3,97.8z"/>
<path class="st0" d="M133.5,86.1c1.1,0.4,2.1,0.7,3.2,1.1c1,0.4,1.6,1.2,1.2,2c-0.2,0.4-0.3,1.2-0.8,1.3c-0.8,0.1-1.5-0.2-2.1-0.7
	C134,88.8,133.5,87.5,133.5,86.1z M136.5,88.4v-0.2h-0.1L136.5,88.4l0.3,0.2l0.3,0.5c0,0,0.1-0.1,0.1-0.1c0-0.2-0.1-0.4-0.3-0.4
	C136.8,88.5,136.7,88.3,136.5,88.4L136.5,88.4z"/>
<path class="st0" d="M90,90l-0.4,0.8c-0.4-1.3-0.1-2.1,1.1-2.7c0.5-0.2,1-0.4,1.5-0.5c0.5-0.1,1-0.3,1.4-0.7c0.4,2-0.9,4-2.8,4.6
	c-0.9,0.2-1.1-0.1-0.7-0.9c0.1-0.2,0.1-0.4,0.2-0.6l0.3-0.4l0.1-0.2c-0.1-0.1-0.2,0-0.2,0.1L90,90z M91,89.3L91,89.3L91,89.3
	L91,89.3z"/>
<path class="st0" d="M100.5,86.3c0.9-0.2,1.8-0.4,2.8-0.5c1.3-0.2,1.9,0.6,1.9,1.9c0,0.5-0.1,0.5-0.5,0.7
	C103.1,89,101.6,88.3,100.5,86.3z"/>
<path class="st0" d="M117.3,81.6c0.2,2.2,0.1,4.1-2.3,4.9c-1.3-2.5-1.3-2.5,1.2-4C116.5,82.2,116.8,81.9,117.3,81.6z M114.8,84.7
	c0,0.1-0.1,0.2-0.1,0.3c0,0.1,0,0.1,0.1,0.2c0.2,0,0.2-0.2,0.2-0.3C114.9,84.7,114.8,84.8,114.8,84.7L114.8,84.7z"/>
<path class="st0" d="M117.6,89.4c-0.3,0-0.3,0.3-0.4,0.4c-0.3,0.7-1.1,0.9-1.5,1.5c-0.3-0.6-0.4-1.3-0.3-2c-0.5,0.4-0.1,0.9-0.3,1.2
	c-1.1-1.3-1-1.4,2.2-4.3C117.6,87.2,117.7,88.3,117.6,89.4L117.6,89.4z"/>
<path class="st0" d="M108.1,96.3c-1.8,1.3-3.1,1.2-5.2-0.5c1-0.5,2.1-1,3.1-1.3C107.6,94,107.6,95.5,108.1,96.3z"/>
<path class="st0" d="M138,117.9c-1.6-0.1-3-0.1-3.6-1.8c0-0.2-0.4-0.2,0-0.4c1.3-0.9,1.9-0.8,2.7,0.6
	C137.3,116.8,137.6,117.3,138,117.9z"/>
<path class="st3" d="M45.9,134.1c-0.3-1.6-1.6-1.2-2.7-1.2c-1.7,0-3.4,0-5.2,0c-0.7,0-1,0.2-1,1c0,1,0,2.1,0,3.1
	c-0.5,0-0.4-0.3-0.4-0.6c0-1,0-2.1,0-3.1c0-0.7,0.2-0.8,0.8-0.8c2.3,0,4.5,0,6.8,0C46,132.5,46,132.5,45.9,134.1z"/>
<path class="st0" d="M82.8,116.3c-0.6,1.7-2,2.1-3.6,2C80.2,115.5,80.9,115.1,82.8,116.3z"/>
<path class="st0" d="M148.2,117.2c-1,0.2-2.1,0-2.9-0.7c-0.4-0.4-1.1-0.8-0.4-1.5s1.5-0.7,2.1,0S147.7,116.4,148.2,117.2z"/>
<path class="st0" d="M155.2,100.3c-1.4,0.8-3.2,0.4-4.1-0.9C152.7,97.7,152.7,97.7,155.2,100.3z"/>
<path class="st0" d="M72.3,101.5c0.4-0.6,0.8-1.1,1.3-1.7c0.6-0.6,1.6-0.5,2.1,0.1c0.2,0.2,0.3,0.4,0.3,0.6c0.1,0.3-0.1,0.2-0.2,0.2
	C75.1,101.9,73.5,102.2,72.3,101.5z"/>
<path class="st0" d="M89.4,118.9c0.4-0.7,0.7-1.4,1.2-2c0.5-0.7,1.5-0.8,2.2-0.3c0.1,0.1,0.2,0.2,0.3,0.3c0.2,0.2-0.1,0.2-0.1,0.4
	C92.4,118.6,91.4,119.1,89.4,118.9z"/>
<path class="st0" d="M82.8,93.2c-0.3,0.5,0.5,1.1-0.2,1.5c-0.8,0.4-1.8,0.3-2.5-0.2c-0.4-0.3-0.8-0.6-1.2-1
	C80.2,93.3,81.5,92.2,82.8,93.2L82.8,93.2z"/>
<path class="st3" d="M94.8,132.6c-0.3,0.4-0.8,0.3-1.2,0.3c-2.1,0-4.2,0-6.2,0c-0.7,0-1,0.2-1,1c0,1,0,2.1,0,3.1
	c-0.3,0-0.4-0.1-0.4-0.4c0-1.1,0-2.3,0-3.5c0-0.5,0.2-0.6,0.7-0.6C89.3,132.5,92,132.4,94.8,132.6z"/>
<path class="st3" d="M186.3,140.3c0-2.1,0-4.2,0-6.3c0-1-0.3-1.2-1.2-1.2s-1.7,0-2.7,0c0-0.6,0.5-0.4,0.8-0.4c1.1,0,2.5-0.5,3.2,0.2
	s0.2,2,0.2,3.1c0,1.3,0,2.7,0,3.9C186.6,140,186.8,140.4,186.3,140.3z"/>
<path class="st3" d="M89.3,147.4c-0.6,0.8-1.3,0.4-2.1,0.4c-0.7,0-1.1,0.3-1.1,1.1c0,0.8,0,2,0,3c-0.3,0-0.4-0.1-0.4-0.4
	c0-1.1,0-2.2,0-3.3c0-0.6,0.3-0.7,0.8-0.7C87.4,147.4,88.3,147.4,89.3,147.4z"/>
<path class="st1" d="M39.8,147.3c-0.3,0.9-1.1,0.5-1.6,0.5c-0.7,0-1.1,0.2-1,1c0,1,0,2.1,0,3.1c-0.1,0-0.3,0-0.3-0.1
	c0-0.2,0-0.3,0-0.5c-0.2-1.1-0.1-2.2,0.1-3.3C37.3,146.6,38.8,147.8,39.8,147.3z"/>
<path class="st0" d="M138.7,91.8c-0.2,0-0.3-0.1-0.1-0.3l0.1,0.1C138.7,91.7,138.7,91.7,138.7,91.8L138.7,91.8z"/>
<path class="st2" d="M123,133h0.1H123L123,133z"/>
<path class="st1" d="M212.2,124.1c0,0.2-0.2,0.4-0.4,0.4C211.8,124.2,211.9,124,212.2,124.1z"/>
<path class="st1" d="M218.2,124.1l-0.1,0.2l-0.2-0.2H218.2z"/>
<path class="st0" d="M136,105.2L136,105.2v-0.1V105.2L136,105.2z"/>
<path class="st0" d="M80.3,95.4l-0.1-0.1h0.3L80.3,95.4z"/>
<polygon class="st0" points="144.2,93.7 144.2,93.8 144.2,93.7 "/>
<path class="st0" d="M88.7,92.4v0.3l-0.3-0.1L88.7,92.4z"/>
<path class="st0" d="M95.6,111.4h0.3l-0.1,0.2L95.6,111.4z"/>
<path class="st0" d="M130,106.6L130,106.6C129.9,106.6,129.9,106.6,130,106.6C129.9,106.5,129.9,106.5,130,106.6L130,106.6z"/>
<path class="st4" d="M119.3,84.1c0.1-0.7,0.6-0.8,1.2-0.7L119.3,84.1z"/>
<path class="st4" d="M116.7,117.4c1.1,2.2,1.4,4.7,1,7.2L116.7,117.4z"/>
<path class="st4" d="M113.4,121.1c0.5,2.8-1.9,4.6-1.5,7.3c-0.5-0.8-0.4-2.1,0.4-3.7C112.8,123.6,113.2,122.3,113.4,121.1z"/>
<path class="st4" d="M112,105.6c0.2,1.2-0.1,2.1,0.2,3c0,0.2,0.2,0.4-0.1,0.5c-0.3,0.1-0.5-0.1-0.5-0.4
	C111.5,107.7,111.6,106.6,112,105.6z"/>
<path class="st4" d="M111.9,92.5l-0.4-0.3c0.2-0.2,0.5-0.1,0.7,0.1c0,0,0,0,0,0L111.9,92.5z"/>
<path class="st4" d="M79.5,111.1c-0.1,0.1-0.3,0.2-0.5,0.1l0.3-0.3L79.5,111.1z"/>
<path class="st4" d="M79.3,110.9l0.2-0.2l0.3,0.2l-0.2,0.2L79.3,110.9z"/>
<path class="st4" d="M132.2,97.9l-0.1,0.2l-0.3-0.2c0,0,0.1-0.1,0.1-0.1C132,97.9,132.1,97.9,132.2,97.9z"/>
<path class="st4" d="M88.3,112.1c-0.1,0.1-0.1,0.1-0.2,0.1c-0.1,0-0.2,0-0.2-0.2c0-0.1,0.1-0.1,0.2-0.1
	C88.2,111.9,88.2,112,88.3,112.1z"/>
<path class="st4" d="M121.1,88.6c0.2-0.3,0.6-0.4,1-0.4c-0.1,0.4-0.5,0.5-0.7,0.6L121.1,88.6z"/>
<path class="st4" d="M148.1,101.2l0.2,0.1c-0.1,0-0.2,0.1-0.3,0.1c0,0-0.1,0-0.2-0.1L148.1,101.2z"/>
<path class="st4" d="M97.7,105.6c0.1-0.2,0.2-0.5,0.4-0.3c0.2,0.1,0,0.4-0.2,0.5L97.7,105.6z"/>
<path class="st4" d="M98.9,104.9c-0.2,0.1-0.3,0.4-0.5,0.2c-0.2-0.2,0.1-0.3,0.3-0.4L98.9,104.9z"/>
<path class="st4" d="M99.5,104.5c0,0-0.2,0-0.2-0.1s0.1-0.2,0.2-0.1c0.1,0,0.1,0.1,0.2,0.1L99.5,104.5z"/>
<path class="st4" d="M97.9,105.8l-0.2,0.3l-0.2-0.2l0.1-0.3L97.9,105.8z"/>
<path class="st4" d="M98.7,104.6c0.1-0.1,0.3-0.2,0.4,0s-0.1,0.2-0.2,0.2L98.7,104.6z"/>
<path class="st4" d="M128.7,103.8c-0.5,0.1-0.7-0.1-1.1-0.4C128.2,103.3,128.5,103.3,128.7,103.8z"/>
<path class="st4" d="M129.3,104.6c-0.1-0.2-0.5-0.3-0.2-0.5c0.3-0.2,0.3,0.2,0.4,0.3L129.3,104.6z"/>
<path class="st4" d="M129.5,104.4c0.1,0.1,0.2,0.3,0,0.4s-0.1-0.1-0.2-0.2L129.5,104.4z"/>
<path class="st4" d="M92,93.9l0.3-0.1v0.3L92,93.9z"/>
<path class="st4" d="M111,99.2l-2.3-0.5c0.8-0.3,1.8-0.2,2.5,0.3L111,99.2z"/>
<path class="st4" d="M111.3,99.3l-0.3-0.2l0.2-0.2l0.3,0.2L111.3,99.3z"/>
<path class="st4" d="M134.7,92.6l-0.3-0.3c0.2-0.1,0.3-0.1,0.4,0.1L134.7,92.6z"/>
<path class="st4" d="M134.9,92.9l-0.2-0.3l0.2-0.1l0.3,0.2L134.9,92.9z"/>
<path class="st4" d="M138.7,91.8c0-0.1,0-0.2,0-0.2c0.8-0.5,1.8-0.5,2.7,0C140.5,91.5,139.6,91.6,138.7,91.8z"/>
<path class="st4" d="M105.8,91.9c-1-0.5-2.1-0.9-3.3-0.9C103.7,90.9,105,90.5,105.8,91.9L105.8,91.9z"/>
<path class="st4" d="M153.9,109.9l0.2,0.1l-0.1,0.3c0-0.1-0.1-0.1-0.1-0.2C153.8,110,153.8,109.9,153.9,109.9z"/>
<path class="st4" d="M151.1,105.7l-0.1,0.2c0-0.1-0.1-0.1-0.1-0.2c-0.1-0.2,0-0.2,0.1-0.1C151.2,105.6,151.1,105.7,151.1,105.7z"/>
<path class="st4" d="M73.2,104.1c-0.1,0.1-0.4,0.3-0.5,0.1c-0.1-0.2,0.2-0.2,0.3-0.3L73.2,104.1z"/>
<path class="st4" d="M72.3,104.5L72.3,104.5L72.3,104.5L72.3,104.5L72.3,104.5z"/>
<path class="st4" d="M75.8,106.9v0.2C75.6,107,75.8,107,75.8,106.9L75.8,106.9z"/>
<path class="st4" d="M72.9,111.2v0.2h-0.1L72.9,111.2L72.9,111.2z"/>
<path class="st4" d="M155.2,103.5C155.2,103.5,155.2,103.5,155.2,103.5c-0.2,0-0.1,0-0.1-0.1S155.1,103.4,155.2,103.5
	C155.2,103.4,155.2,103.4,155.2,103.5z"/>
<path class="st4" d="M86.1,92.5l-0.3,0.1L86.1,92.5L86.1,92.5z"/>
<path class="st4" d="M136.9,88.6c0.2,0.1,0.3,0.2,0.3,0.4c0,0-0.1,0.1-0.1,0.1l-0.3-0.5L136.9,88.6z"/>
<path class="st4" d="M136.8,88.7l-0.2-0.3l0,0c0.2-0.1,0.3,0,0.4,0.1L136.8,88.7z"/>
<path class="st4" d="M136.6,88.4l-0.2-0.1h0.1L136.6,88.4L136.6,88.4z"/>
<path class="st4" d="M90.5,89.7l-0.3,0.4L90.1,90l0.4-0.4L90.5,89.7z"/>
<path class="st4" d="M90.4,89.6c0-0.1,0.1-0.2,0.2-0.1l-0.1,0.2L90.4,89.6z"/>
<polygon class="st4" points="91,89.3 91,89.3 91.1,89.3 "/>
<path class="st4" d="M114.8,84.7c0,0.1,0.1,0.1,0.1,0.2c0,0.1,0,0.3-0.2,0.3c0-0.1-0.1-0.1-0.1-0.2
	C114.7,84.9,114.7,84.8,114.8,84.7z"/>
<rect x="127.6" y="132.2" class="st1" width="9.2" height="3"/>
<path class="st1" d="M24.8,168.7c-2.9-1.3-4-2.8-3.9-5.5c0.1-2.8,2.5-5,5.2-4.9c2.1,0.1,4,1.5,4.6,3.5c0.8,2.5-0.3,5.2-2.7,6.3
	c-0.4,0.2-0.8,0.3-1.2,0.5L24.8,168.7z M29.2,163.6c0.2-1.9-1.2-3.5-3-3.7c-0.1,0-0.1,0-0.2,0c-2-0.3-3.9,1.2-4.2,3.2
	c-0.3,2,1.2,3.9,3.2,4.2s3.9-1.2,4.2-3.2C29.2,163.9,29.2,163.8,29.2,163.6z"/>
<path class="st1" d="M94.4,168.7l-5.7-6.4l-0.3,0.1v6h-1.7v-10.3l6.4,6.7v-6.2h1.8v10.1L94.4,168.7z"/>
<path class="st1" d="M74.5,168.7c-2.2-0.7-2.9-2.4-2.8-4.5c0.1-1.8,0-3.7,0-5.6h1.7c0,2,0,4,0,6c0,1.6,0.6,2.3,1.9,2.5
	c1.1,0.3,2.3-0.4,2.6-1.5c0.1-0.2,0.1-0.4,0.1-0.6c0.1-1.7,0-3.3,0-5c0-0.4,0-0.9,0-1.3h1.6c0,2.5,0.1,4.9,0,7.3
	c-0.1,1.5-1.3,2.2-2.7,2.8L74.5,168.7z"/>
<path class="st1" d="M6.1,162.5l0.5-1.1c1.4-2.7,4.7-3.9,7.4-2.5c0.2,0.1,0.5,0.3,0.7,0.4l-0.5,1.3c-2.1-0.7-4.3-1.3-5.8,1
	c-0.8,1.4-0.7,3.1,0.3,4.3c1.6,1.8,3.5,1.3,5.5,0.5l0.6,1.3l-2,1h-2.7c-2-0.6-3.5-2.2-4.1-4.1V162.5z"/>
<path class="st1" d="M233.7,168.7l-2.1-0.9l0.5-1.3c0.8,0.3,1.6,0.5,2.4,0.7c0.8,0.1,1.6-0.1,1.7-1c-0.1-0.6-0.4-1.2-0.8-1.6
	c-0.6-0.4-1.2-0.7-1.8-0.9c-1.1-0.5-1.7-1.8-1.5-3c0.3-1.2,1.3-2.1,2.6-2.1c1.1,0,2.2,0.2,3.3,0.4l-0.6,1.6
	c-0.6-0.3-1.2-0.5-1.9-0.5c-0.6,0.1-1.2,0.4-1.6,0.9c-0.1,0.3,0.4,1.1,0.8,1.5c0.5,0.4,1.1,0.7,1.7,0.9c1,0.4,1.7,1.4,1.7,2.5
	c0,1.1-0.7,2.2-1.7,2.7c-0.2,0.1-0.3,0.2-0.5,0.3L233.7,168.7z"/>
<path class="st1" d="M56.4,163v5.5h-1.7l0.4-9.9l0.3-0.1l4.4,6.7l4.3-6.6h0.3l0.4,9.9h-1.7V163l-0.3-0.1l-3.1,4.5l-3-4.5L56.4,163z"
	/>
<path class="st1" d="M47.8,168.5h-1.7V163l-0.3-0.1l-3.1,4.5l-3.1-4.5h-0.2v5.5h-1.8l0.4-9.9l0.3-0.1l4.4,6.6l4.3-6.6l0.3,0.1
	L47.8,168.5z"/>
<path class="st1" d="M156.2,158.5l0.4,9.9h-1.7V163h-0.3l-3,4.5l-3-4.5h-0.3v5.5h-1.7l0.4-9.9l0.3-0.1l4.4,6.7l4.3-6.6L156.2,158.5z
	"/>
<path class="st1" d="M182.8,164.6l2.4,3.8c-1.2,0.3-2.1,0.2-2.7-1.1c-0.2-0.5-0.6-0.9-0.8-1.3c-0.2-0.8-1-1.3-1.8-1
	c-0.1,0-0.2,0.1-0.3,0.1v3.4H178v-10c1,0,2.1,0,3.1,0c1.5-0.1,2.9,0.8,3.4,2.3C185,162.3,184.5,163.4,182.8,164.6z M179.7,160.1v3.3
	c1.1,0.1,2.2,0.3,2.8-0.7c0.3-0.6,0.3-1.3,0-1.9C182,159.8,180.8,160,179.7,160.1L179.7,160.1z"/>
<path class="st1" d="M191.6,168.5v-9.8h1.6v4.5l3.1-3.5c1-1.2,1-1.2,2.8-0.8l-4.2,4.7l4.4,5c-1,0.4-2.1,0.1-2.8-0.7
	c-0.9-1.3-2-2.4-3.2-3.8v4.7L191.6,168.5z"/>
<path class="st1" d="M205.7,158.6h5.9v1.4h-4.2v2.7h3.9l0.1,1.5h-3.9v2.8h4.2v1.5h-6V158.6z"/>
<path class="st1" d="M171.9,168.4c-1.3,0.4-2,0-2.3-1.1c-0.1-0.6-0.6-1.1-1.3-1c-0.1,0-0.1,0-0.2,0c-0.4,0.1-0.8,0.1-1.2,0
	c-0.9-0.3-1.9,0.2-2.3,1.1c0,0.1-0.1,0.3-0.1,0.4c-0.3,1.1-1.1,0.7-2.1,0.8l4.7-10.4L171.9,168.4z M165.8,164.9h2.8l-1.4-3.3
	L165.8,164.9z"/>
<path class="st1" d="M226,158.7v1.4h-3.1v8.4h-1.7v-8.4H218l-0.1-1.5L226,158.7z"/>
<path class="st1" d="M128.1,162.8c0.6-1,1.2-2,1.7-3.1c0.5-1.2,1.3-1.3,2.5-1.1c-0.8,1.3-1.5,2.7-2.4,3.9c-0.8,1.1-1.2,2.5-1.1,3.9
	c0,0.6,0,1.3,0,2h-1.5c-0.5-1.6,0.4-3.5-0.8-5.1c-1.2-1.6-1.9-3-2.8-4.6c1.2-0.3,2-0.2,2.5,1C126.9,160.8,127.5,161.7,128.1,162.8z"
	/>
<path class="st1" d="M113.4,160.1h-3.1v-1.5h7.9v1.4h-3v8.4h-1.7V160.1z"/>
<path class="st1" d="M102.1,158.6h1.6v9.8h-1.6V158.6z"/>
<path class="st3" d="M242.7,138.9c-1.8,0-3.2-1.5-3.2-3.2c0-1.8,1.5-3.2,3.2-3.2c1.7,0,3.1,1.4,3.2,3.1
	C246,137.4,244.6,138.9,242.7,138.9C242.8,138.9,242.8,138.9,242.7,138.9z M242.7,133.3c-1.4,0-2.5,1.1-2.5,2.5
	c0,1.4,1.1,2.5,2.5,2.5c1.4,0,2.5-1.1,2.5-2.5l0,0C245.2,134.4,244.1,133.3,242.7,133.3z"/>
<path class="st3" d="M241.3,137.3v-3.1h1.3c0.2,0,0.5,0,0.7,0.1c0.2,0.1,0.3,0.2,0.4,0.3c0.1,0.1,0.1,0.3,0.1,0.5
	c0,0.2-0.1,0.4-0.2,0.6c-0.2,0.2-0.4,0.3-0.6,0.3c0.1,0.1,0.2,0.2,0.3,0.3c0.1,0.2,0.3,0.3,0.4,0.5l0.4,0.6h-0.8l-0.5-0.7
	c-0.1-0.2-0.2-0.3-0.3-0.5c-0.1-0.1-0.1-0.1-0.2-0.1c-0.1,0-0.2,0-0.3,0H242v1.3L241.3,137.3z M241.9,135.5h0.5c0.2,0,0.4,0,0.6,0
	c0.1,0,0.1-0.1,0.2-0.1c0-0.1,0-0.2,0-0.2c0-0.1,0-0.2-0.1-0.3c-0.1-0.1-0.1-0.1-0.2-0.1H242L241.9,135.5z"/>
</svg>
