<svg id="Layer_1" data-name="Layer 1" xmlns="http://www.w3.org/2000/svg" viewBox="0 0 250 250"><defs><style>.cls-1{fill:#22428d;}.cls-2{fill:#fdfdfe;}.cls-3{fill:#ea1d25;}</style></defs><title>Updated</title><path class="cls-1" d="M125,152.38H40.33A5.2,5.2,0,0,1,35,147.31q0-.12,0-.23.06-22.07,0-44.13a5.2,5.2,0,0,1,5.06-5.34h.26q84.72.07,169.44,0a5.15,5.15,0,0,1,5.24,5.06q0,.09,0,.17v44.31a5.14,5.14,0,0,1-5,5.25h-.19Q167.39,152.33,125,152.38Zm-.06-.78h84.68c2.89,0,4.56-1.66,4.57-4.54V102.93a4.14,4.14,0,0,0-4.52-4.5H40.33a4.14,4.14,0,0,0-4.52,4.49v44.22a4.13,4.13,0,0,0,4.47,4.45Z"/><path class="cls-2" d="M125,151.59H40.28a4.13,4.13,0,0,1-4.47-4.45V102.92a4.14,4.14,0,0,1,4.52-4.49H209.69a4.14,4.14,0,0,1,4.52,4.5v44.13c0,2.88-1.67,4.54-4.57,4.54Zm0-50.6H43.1c-2.9,0-4.61,1.72-4.61,4.64v38.75c0,2.92,1.71,4.64,4.61,4.64H206.9c2.9,0,4.61-1.72,4.61-4.64V105.63c0-2.92-1.71-4.64-4.61-4.64Z"/><path class="cls-2" d="M120.16,124.84a12.27,12.27,0,0,1,4.49-9.54,10.4,10.4,0,0,1,15.25,2.38,13.13,13.13,0,0,1,.64,14.11,10,10,0,0,1-9.91,5.67c-4.35-.21-7.34-2.56-9.21-6.4A14.14,14.14,0,0,1,120.16,124.84Zm17.13.31a8.91,8.91,0,0,0-1.61-5.22,5.39,5.39,0,0,0-8.86-.18,9.57,9.57,0,0,0,.07,11.12,5.31,5.31,0,0,0,8.72-.17,9,9,0,0,0,1.68-5.55Z"/><path class="cls-2" d="M90.05,126.87c3.24,1.06,3.28,3.77,3.52,6.37.11,1.16.17,2.32.33,3.48.08.57-.14.66-.62.65H90.59c-.9,0-1.34-.36-1.44-1.36-.13-1.37-.23-2.74-.37-4.1-.22-2.22-1.28-3.17-3.51-3.17H81.59c-.68,0-.92.13-.9.87.05,2.33,0,4.66,0,7,0,.6-.17.77-.76.75-1.1,0-2.21-.06-3.32,0-.69,0-.83-.19-.83-.85V115c0-.65.19-.78.8-.77H87.34a6.12,6.12,0,0,1,6.13,4.06,6.87,6.87,0,0,1-2.2,7.74C90.92,126.3,90.54,126.54,90.05,126.87Zm-9.33-5.33v2.59c0,.3,0,.52.41.52,1.79,0,3.59.07,5.36-.08a3.1,3.1,0,0,0,2.81-3.17c0-1.64-.79-2.61-2.65-2.89a44.43,44.43,0,0,0-5.53-.11c-.4,0-.4.26-.4.54Z"/><path class="cls-2" d="M73.55,137.36H68.72c-.43,0-.46-.32-.55-.58-.39-1.13-.77-2.26-1.12-3.4a.76.76,0,0,0-.85-.65h0q-3.68.05-7.36,0a.83.83,0,0,0-.92.71c-.34,1.11-.74,2.21-1.06,3.33a.7.7,0,0,1-.78.61h-4c-.48,0-.7,0-.49-.62q3.8-11,7.55-22a.62.62,0,0,1,.69-.51h5.29c.63,0,.64.42.77.79q2.74,8,5.46,15.91Zm-8.06-8.64-3-9-3,9Z"/><path class="cls-2" d="M114.94,122c-1.35.39-2.22-.28-3.1-1.76-2.16-3.61-6.7-3.64-9.16-.23a9.55,9.55,0,0,0,.3,10.9,5.32,5.32,0,0,0,8.77-.42,1.78,1.78,0,0,1,1.81-.92c1.1.08,2.21,0,3.32,0,.53,0,.69.1.46.66-1.71,4.14-4.62,6.81-9.2,7.2a10.12,10.12,0,0,1-10.06-5.24A13.51,13.51,0,0,1,99.86,116a10.55,10.55,0,0,1,16.83,2.83,15,15,0,0,1,1.05,2.66c.11.38,0,.48-.35.47C116.67,122,116,122,114.94,122Z"/><path class="cls-1" d="M137.29,125.15a9,9,0,0,1-1.68,5.55,5.31,5.31,0,0,1-8.72.17,9.57,9.57,0,0,1-.07-11.12,5.39,5.39,0,0,1,8.86.18A8.91,8.91,0,0,1,137.29,125.15Z"/><path class="cls-1" d="M80.72,121.54v-2.59c0-.28,0-.55.4-.54a44.43,44.43,0,0,1,5.53.11c1.86.29,2.68,1.26,2.65,2.89a3.1,3.1,0,0,1-2.81,3.17c-1.78.15-3.57.05-5.36.08-.4,0-.42-.22-.41-.52Z"/><path class="cls-1" d="M65.49,128.72h-6l3-9Z"/><path class="cls-1" d="M206.9,101H43.1c-2.9,0-4.61,1.72-4.61,4.64V144.4c0,2.92,1.71,4.64,4.61,4.64H206.9c2.9,0,4.61-1.72,4.61-4.64V105.65C211.51,102.73,209.8,101,206.9,101ZM68.72,137.33c-.43,0-.46-.32-.55-.58-.39-1.13-.77-2.26-1.12-3.4v0a.76.76,0,0,0-.87-.63q-3.68.06-7.36,0c-.57,0-.77.23-.92.71-.34,1.12-.73,2.21-1.06,3.33v0a.7.7,0,0,1-.81.56h-4c-.49,0-.7,0-.49-.62q3.8-11,7.55-22a.62.62,0,0,1,.69-.51h5.29c.63,0,.64.42.77.79q2.73,7.91,5.46,15.91l2.2,6.43v0C71.87,137.36,70.3,137.35,68.72,137.33Zm24.59,0H90.62c-1,0-1.34-.31-1.43-1.31-.13-1.36-.23-2.73-.37-4.1-.23-2.23-1.28-3.17-3.51-3.17-1.23,0-2.46,0-3.68,0-.67,0-.9.13-.9.87v7c0,.6-.18.75-.76.75-1.11,0-2.22-.06-3.32,0-.69,0-.83-.19-.83-.85V115c0-.65.19-.77.8-.77H87.38a6.12,6.12,0,0,1,6.13,4.06A6.87,6.87,0,0,1,91.26,126c-.35.26-.73.49-1.22.83v0c3.24,1.07,3.28,3.77,3.55,6.34.11,1.16.18,2.33.33,3.48C94,137.26,93.79,137.34,93.31,137.34ZM117.39,122h-2.45c-1.35.37-2.22-.3-3.1-1.79-2.16-3.62-6.7-3.64-9.16-.23a9.55,9.55,0,0,0,.3,10.9,5.32,5.32,0,0,0,8.77-.42,1.78,1.78,0,0,1,1.81-.92c1.1.06,2.21,0,3.32,0,.53,0,.69.1.46.66-1.71,4.14-4.63,6.81-9.2,7.2a10.12,10.12,0,0,1-10.06-5.24A13.51,13.51,0,0,1,99.86,116a10.55,10.55,0,0,1,16.83,2.87,15,15,0,0,1,1,2.66C117.85,121.91,117.75,122,117.39,122Zm23.14,9.79a10,10,0,0,1-9.91,5.67c-4.35-.21-7.34-2.56-9.21-6.4a14.14,14.14,0,0,1-1.26-6.22h0a12.27,12.27,0,0,1,4.48-9.53,10.4,10.4,0,0,1,15.25,2.38A13.13,13.13,0,0,1,140.53,131.8Z"/><path class="cls-3" d="M188.23,140.18a1.27,1.27,0,1,1,1.27-1.27A1.27,1.27,0,0,1,188.23,140.18Zm0-2.34a1.08,1.08,0,1,0,1.08,1.08A1.08,1.08,0,0,0,188.23,137.84Z"/><path class="cls-3" d="M187.68,138.11a2.24,2.24,0,0,1,.41,0,.68.68,0,0,1,.48.14.42.42,0,0,1,.13.32.44.44,0,0,1-.31.43h0a.42.42,0,0,1,.25.34,2.65,2.65,0,0,0,.13.46h-.22a2.14,2.14,0,0,1-.11-.4c0-.23-.14-.32-.33-.32h-.2v.72h-.22Zm.22.76h.22c.23,0,.38-.13.38-.32s-.16-.31-.38-.31l-.21,0Z"/><path class="cls-3" d="M167.12,123.73l14.63-14.19-.12-.23v1.85c0,2.48.06,5-.08,7.43-.19,3.42-1.66,5.08-5.07,5.24-3,.14-6,0-9.05,0A1.18,1.18,0,0,1,167.12,123.73Z"/><path class="cls-3" d="M181.64,140l-14.58-14.48h5.48a34.32,34.32,0,0,1,4.74.12c2.45.38,3.81,1.54,4.14,4C181.89,133.17,181.56,136.66,181.64,140Z"/><path class="cls-3" d="M198.13,123.88c-3.66-.1-7.09.19-10.5-.16a4.36,4.36,0,0,1-4.09-4.55c-.13-3.27,0-6.56,0-9.77Z"/><path class="cls-3" d="M198,125.58c-.68.9-12.75,13.12-14.37,14.57-.3-.14-.15-.41-.16-.62q0-4.08,0-8.15a9.45,9.45,0,0,1,.08-1.43c.44-2.83,2-4.23,5-4.34S194.77,125.58,198,125.58Z"/></svg>