<svg id="Layer_1" data-name="Layer 1" xmlns="http://www.w3.org/2000/svg" viewBox="0 0 250 250"><defs><style>.cls-1{fill:#fff;}.cls-2,.cls-3,.cls-4,.cls-5,.cls-6{stroke:#000;}.cls-2,.cls-3{stroke-width:0.25px;}.cls-3,.cls-4{fill:#c8a94d;}.cls-4,.cls-6{stroke-width:0.24px;}.cls-5,.cls-6{fill:none;}.cls-5{stroke-width:0.13px;}</style></defs><title>Logos</title><circle class="cls-1" cx="124.89" cy="125.04" r="76.56" transform="translate(-9.73 239.54) rotate(-85.42)"/><path d="M125.1,202.3c-2,0-4.19,0-6.18-.2a77.21,77.21,0,0,1-44.06-136A76.39,76.39,0,0,1,131.28,48,77.27,77.27,0,0,1,125.1,202.3Zm-.2-153.11a75.35,75.35,0,0,0-49,18.14A74.51,74.51,0,0,0,49.34,119a75.9,75.9,0,1,0,81.74-69.58C128.89,49.19,126.89,49.19,124.9,49.19Z"/><path d="M108.15,186.15l3.19.8-2.59,4.59h0ZM108,184l-.4-3-2.79-.6,1.59,15,2,.6,8.57-12.36-2.79-.6-1.79,2.59Z"/><path d="M94.4,186.95a2.21,2.21,0,0,0,1.4,1.79,1.68,1.68,0,0,0,2.19-.8c1-2.19-4.39-3.39-2.59-7.78,1.2-2.59,3.59-3.59,6-2.39a4.84,4.84,0,0,1,2.79,4.19l-2.19.8a2.83,2.83,0,0,0-1.4-2.79,1.93,1.93,0,0,0-2.39,1c-.6,1.4.4,2.19,1.2,3,1.4,1.4,2.19,2.79,1.2,4.78a3.7,3.7,0,0,1-5.18,2.39,5.81,5.81,0,0,1-2.79-3Z"/><path d="M85.23,181.37a2.19,2.19,0,0,0,1.2,2c.8.4,1.79.4,2.19-.4,1.2-2-3.79-4.19-1.4-8,1.59-2.39,4-3,6.38-1.4a4.61,4.61,0,0,1,2,4.59l-2.39.4a2.86,2.86,0,0,0-1-3,1.8,1.8,0,0,0-2.59.8c-.8,1.2.2,2.19.8,3.19,1,1.59,1.59,3,.6,4.78a3.77,3.77,0,0,1-5.58,1.2A5.94,5.94,0,0,1,83,182.16Z"/><path d="M76.46,175a4.34,4.34,0,0,1,.2-6c1.4-1.4,4.59-2.19,6.18-.6s1,4.78-.4,6.18C80.84,176.18,78.05,176.78,76.46,175Zm8.17-8.37c-2.79-2.79-7.18-2.39-10,.4-2.59,2.79-3,7.18-.2,10s7.18,2.39,10-.4S87.62,169.4,84.63,166.61Z"/><path d="M65.69,159.44a4.08,4.08,0,0,0,.6,3.39c1.4,2.19,4.19,2,6.18.6s3-3.79,1.59-6a4.27,4.27,0,0,0-3-1.79l2.59-1.79A6.34,6.34,0,0,1,76.06,156c2.19,3.19,1,7.38-2.19,9.57a7.23,7.23,0,0,1-10-1.4,5.37,5.37,0,0,1-1-3Z"/><path d="M72.47,150.07l1.2,2.39L61.3,158.64l-1.2-2.39Z"/><path d="M64.49,144.08l1,3-5.18.2h0Zm1.79-1.59,2.39-2-1-2.79-11.76,9.57.6,2,15.15.4-.6-2.39-3.19-.2Z"/><path d="M67.28,133.12l.4,2.59-11.36,2,.4,2.79-2.39.4-1.4-8.17,2.59-.4.4,2.79Z"/><path d="M66.69,127.14l.2,2.59-13.76.8-.2-2.59Z"/><path d="M55.32,118.37c.2-2.39,2.59-3.79,4.78-3.59,2,.2,4.59,2.19,4.39,4.39-.2,2.39-3,3.79-5,3.59C57.32,122.55,55.12,120.76,55.32,118.37Zm12,1A6.83,6.83,0,0,0,60.71,112a7,7,0,0,0-7.78,6.18,6.83,6.83,0,0,0,6.58,7.38A7,7,0,0,0,67.28,119.36Z"/><path d="M54.33,107.6l.6-1.79L66.29,102h0l-8.77-3,.8-2.59,13.36,4.39-.6,1.79-11.36,3.79h0l9,3-.8,2.59Z"/><path d="M68.68,83.28a4.17,4.17,0,0,1,6-.6c1.59,1.2,2.79,4.19,1.4,6s-4.59,1.59-6.18.4A4.15,4.15,0,0,1,68.68,83.28Zm9.57,7.18c2.39-3.19,1.4-7.38-1.79-9.77-3.19-2.19-7.58-2-10,1.2a6.86,6.86,0,0,0,1.79,9.77C71.47,93.85,75.86,93.65,78.25,90.46Z"/><path d="M76.85,74.11l2,2.19,2.79-2.59,1.59,1.79L80.44,78.1l4.19,4.39-2,1.79-9.37-10,5-4.78,1.59,1.79Z"/><path d="M97.39,73.11,95,74.51l-5.78-10-2.39,1.4-1.2-2,7.18-4.19,1.2,2-2.39,1.4Z"/><path d="M104.37,61l-1.79-5.18,2.59-1,4.78,13-2.59,1.2-2.19-5.78-4.59,1.79,2.19,5.78-2.59.8-4.78-13,2.59-1,1.79,5.18Z"/><path d="M111.94,56l.6,3,4.19-.8.4,2.39-4.19.8.6,3.59,4.39-.8.4,2.39-7,1.2L109,54.17l7-1.2.4,2.39Z"/><path d="M131.28,52.38l2.59.4-1.2,7.58c-.2,1.59-.4,4,1.79,4.39s2.79-2,3-3.59l1.2-7.58,2.59.4-1.2,8.17c-.6,3.39-2.39,5.58-6,5s-4.59-3.39-4.19-6.58Z"/><path d="M145.43,54.57l1.79.8,3.39,11.56h0L154,58.16l2.59,1-5,13.16-1.79-.6-3.39-11.56h0L143,68.92l-2.59-1Z"/><path d="M155.2,74.31l-2.39-1.4,6.78-12,2.39,1.4Z"/><path d="M160.19,77.7,158,76.1l6.58-9.37-2.19-1.59,1.4-2,6.78,4.78-1.4,2L167,68.33Z"/><path d="M172.75,73.31l-2,2.19,3.19,3-1.59,1.79-3.19-3-2.59,2.79,3.19,3-1.59,1.79-5.18-5,9.37-10,5.18,5-1.59,1.79Z"/><path d="M179.73,80.69l.2.4c1.79,2.39,1.59,4.59-.8,6.38-2.19,1.59-4.39,1.79-6.38-1l-.2-.4ZM169,85.47l2.39,3c2.39,3.19,6.38,3.59,9.57,1.2s4-6.38,1.59-9.57l-2.39-3Z"/><path d="M191.69,104.81a3.26,3.26,0,0,0,.4-2.39,1.49,1.49,0,0,0-2-1c-2.19.8.6,5.58-3.79,7.18a4.3,4.3,0,0,1-6-2.79c-.6-1.79,0-3.39,1.2-5l2.19,1a2.86,2.86,0,0,0-1,3,1.76,1.76,0,0,0,2.39,1c1.4-.4,1.4-1.79,1.4-3,.2-2,.6-3.39,2.59-4.19a3.91,3.91,0,0,1,5.18,2.39,5.47,5.47,0,0,1-.2,4Z"/><path d="M183.11,115.18l-.4-2.59,11.16-2.19-.6-2.79,2.39-.4,1.4,8.17-2.39.4-.6-2.79Z"/><path d="M188.9,125.15V122l5,1.4h0Zm-2.19.8-2.79,1.2v2.79l14.15-5.58v-2l-14.35-5.18V120l3,1Z"/><path d="M182.91,134.71l.4-2.59,11.36,1.59.4-2.79,2.39.4-1.2,8.17-2.39-.4.4-2.79Z"/><path d="M192.68,143.69l-3-.8-1.2,4.19-2.19-.6,1.2-4.19-3.59-1-1.2,4.19-2.19-.6,2-6.78,13.16,3.79-2,6.78-2.19-.6Z"/><path d="M186.9,156.45a2.88,2.88,0,0,0,2-1.4,1.52,1.52,0,0,0-.8-2.19c-2.19-1-3.59,4.39-7.78,2.39-2.59-1.2-3.59-3.59-2.39-6.18a4.84,4.84,0,0,1,4.19-2.79l.8,2.39a2.54,2.54,0,0,0-2.79,1.4,1.76,1.76,0,0,0,1,2.39c1.2.6,2.19-.4,3-1.2,1.4-1.4,2.79-2.19,4.78-1.2a4,4,0,0,1,2,5.38,5.81,5.81,0,0,1-3,2.79Z"/><path d="M171.15,169l2.19-2.39,2.59,4.59h0ZM169,168l-2.79-1.2-2,2.19,14,5.78,1.4-1.59-6.78-13.56-2,2.19,1.4,2.79Z"/><path d="M168.76,180l-.2.2c-1.2.8-2.19,1.2-3.19-.2s-.4-2.39.8-3.19l.2-.2ZM163,177a3.89,3.89,0,0,0,0,4.78c1.79,2.39,4,2.19,6.18.6l3-2.19-8.37-11-2.19,1.59,3.39,4.39h0l-6-2.39-2.59,2Z"/><path d="M150.62,186.95h0l-.8-9.17.8-.4L157,184h0l-2.59-8.17,2.39-1.2,4,13.76-1.59.8-7-6.78,1,9.57-1.79.8-8-12,2.39-1.2Z"/><path d="M147.43,193.93l-3,.8L141,190.54l-1.4,5.18-3,.8,2.59-8.17-1.4-6.18,2.59-.6,1.4,6.18Z"/><circle cx="124.68" cy="189.33" r="1.59" transform="translate(-73.99 298.52) rotate(-85.43)"/><path class="cls-2" d="M85,90.26s-11.56-9.77,1.2-11.76c3.19-4.39,8.37-4.78,15.55-4.19,2-4,9-2.79,9.17-1.2-1.79.4-1,3.59-.2,4.39s9.17,10.57,9.17,10.57l11.76-23.52s1.4-2.39,6.78-2.39c5.78,0,11.56,12.76,13.36,14.35,1.79,1.79,40.47,55.22,40.47,55.22l-12.56,2L154.21,119l-11.16.6,27.31,36.88L145.83,158s-.2,5.58-1.79,5.38c.2,3.79-.6,5.58,0,6.18a21.58,21.58,0,0,0,3.59,1.4l.2,2.19L145.24,175l-6-3c-2.59,3.19-10.77-1-13.36,2.19,1.2-4.78-.8-5,7.78-5.78a32.11,32.11,0,0,1-2.59-2.79c-4,3.59-9.77-2.39-11.76-.6,1.4-4,2.39-4.19,6.58-4.39-1.4-1.4-3-5.18-7.78-1.79,0,0-.6,7-4.39,10.57-5,4.78-12.76,8.77-12.76,8.77L95.39,175l-11-7.38s-5.58-2.19-5.58-13.16c0-12.56.4-20.53.4-20.53H83c-.6,0,0-.8-2.19-1.59,4.19-1.4,6.58.6,8.17,1.79h6.38L93,131.72s-6.58.2-9.37-3.59c-2.59-3.79-4.39-6.58-5.18-6.78,4.39-.8,7.58.6,8.77.6-3.59-4.39-4-12-2.19-17.34,6.58,5,6.58,8.37,6.18,15.15.4-4,2.19-5.58,3-7,.8,2.79,4.78,9.17,2,17.15A20.41,20.41,0,0,1,98,132.72c-.8-4.59,3-7,3.39-8.37,1.2,4.78,1.59,8.77.2,9.77h4c-1.2-6.38,2-6,6.58-5.78-3-6.78-10.77-21.73-10.77-21.73L98.58,104l-8-15.95C91,88.26,84.23,87.86,85,90.26Zm50,73.56,5,3.59s-2.79-2.79-2.39-8.57C136.66,160.43,137.26,162.82,135.07,163.82Zm-16.75-19.54.6,3.19,1.59,2.79.8-2.79C121.11,147.47,119.92,144.08,118.32,144.28Z"/><path class="cls-3" d="M85.23,133.92a3.16,3.16,0,0,0-2-2.59c3-.2,5.38,1,6,2.79C86.82,133.92,85.23,133.92,85.23,133.92Z"/><path class="cls-3" d="M98.19,134.12s-2-4.39,2.39-9.17c1,3.19,1.59,6.38,1.2,7.58-.8,2.39-1,1.59-1,1.59Z"/><path class="cls-3" d="M138.86,66.93l26.52,37.48s16.55,23.72,15,23.92c-1.79.2-7.58.2-7.58.2L134.87,77.9l11.56,17.54s20.73,31.5,17.15,29.51c-5.18-2.79-13.16-7.58-13.16-7.58L130.28,91.85l7.38,10.77s7.58,12.36,5,12.56c-2.79,0-8.57.2-8.57.2l-6.38-8,17.94,26.91S157,151.86,156.2,153.26c-3,.2-14.35.4-14.35.4l-3.59-3.59-16.15-.2-.8-30.3-1,6s-.4,4.39-3.59,5.18a6.34,6.34,0,0,1-1.2,6.18c-.6-8.57-9.57-4.78-8.37-2.39a2.11,2.11,0,0,1-1.2,0s-3.19-7,6-6.18c-5.38-11-10.37-21.33-10.37-21.33l5.18-3-.2-2.19,4.78-2.39.2-2,3.79-2-.2-1.4,3.19-2.59,12.76-26.91"/><path class="cls-3" d="M95.39,175.19l-11.16-7.58s-6-3.39-5.58-12.76c0-2.39.4-21.13.4-21.13l16.75.2H96l16.95.2s-.4,18.94-.4,21.33c0,10-5.58,12.56-5.58,12.56l-11.56,7.18"/><path class="cls-4" d="M91.81,145.68s-8.17-2.59-1.4-6.58c-.6-2,3.79-3.59,5.58-2.79.8-1.59,3.19-.8,4-.2-1.59.2-1.4.2-2,1.4.2.4.6,1.4,1.4,1.59s2-.8,2.39-2c1.79,1.4,1.2,2.59,1,3a2.16,2.16,0,0,1,.2,3.39c-.6.6-2,1.59-2,2.19"/><path class="cls-3" d="M81.44,86.27s-4.78-6.58,4.78-8c3-5.78,14.15-3.79,15.75-4,.2-1.4,2.59-2.79,3-2.19-1.2-.6-1.79,3.59-.4,5.58,1.4,1.79,3.39,3.79,4.19,5s6,8.77,6,8.77l-1.79,2.19s-3.59-5.58-5.18-7.58c-.4-.4-3.59-5-3.59-5l3,5.78s4.59,7.18,3.79,8c-.8,1-1.79,3-2,2.19-.2-.6-6-11.16-7-12.16,1,2.19,3,6.18,3,6.18s2.79,4.78,2.79,6.58c0,1.4-3.79,3.59-3.79,3.59l-7-13,3,7s2.79,6,2.39,6.18c-.8,1-3.19,3.79-4.19,2s-8-17.34-8-17.34S87.62,80.89,81.44,86.27Z"/><path class="cls-3" d="M118.32,91.65s12.36-26.52,12.76-27.11c3.79-5.18,7.78,2.19,7.78,2.19"/><path class="cls-3" d="M139.85,167.41a10.31,10.31,0,0,1-.6-12.36C143.64,160.23,142.24,166.41,139.85,167.41Z"/><path class="cls-3" d="M130.88,163l6.78,5.18c-6.18-.8-11.16-2-12.56,4.59,1-.8,1.4-1.79,4.59-1.4,3.59.4,7.78,1,9.37-1.79,1.59.8,6,3.39,6,3.39a4.71,4.71,0,0,0,2.59-2c-1.79-.4-5.18-2.19-7.78-3.59-1.59-1-3.39-2.39-7.58-5.58,3.39-2.79-.4-8.57,0-11.36-4.39,5.58-1,9.57-1.4,10-2-2.39-3.59-3.79-4.39-4.78a70.17,70.17,0,0,1-6.18-6.58c1.59-7.18-.2-5.18-.6-11.36-1.79,2.79-3,3.79-.2,10.77a7.8,7.8,0,0,1-1.4-1.79,17.54,17.54,0,0,0,.2,2.79c0,.8,3.19,3,2.19,3.19a3.56,3.56,0,0,0-2.39,1.4,27.08,27.08,0,0,1-.2,3,5.51,5.51,0,0,1,3.79-3c1.59.4,7.58,7.18,7.58,7.18s-7.38-3-10.37,2.19c1.4-.4,1.79-.4,5.38,1.2,3.79,1.4,4.78-.6,5.78-1Z"/><path class="cls-3" d="M132.28,157.44c2.79,0,7-.6,7,1.79,2.79-4.19-2.39-3.59-6.18-3.79v-5.78h-1.4l-.2,5.78c-3.59,0-9-.8-6.18,3.59,0-2.19,4.19-1.59,7-1.59"/><path class="cls-4" d="M101.18,147.08a.86.86,0,0,0,.8-.8h0a.86.86,0,0,0-.8-.8l-10-.2a.86.86,0,0,0-.8.8h0a.86.86,0,0,0,.8.8Z"/><path class="cls-4" d="M101.18,150.26a.86.86,0,0,0,.8-.8h0a.86.86,0,0,0-.8-.8l-10-.2a.86.86,0,0,0-.8.8h0a.86.86,0,0,0,.8.8Z"/><path class="cls-3" d="M101.38,148.67a.86.86,0,0,0,.8-.8h0a.86.86,0,0,0-.8-.8L91,146.88a.86.86,0,0,0-.8.8h0a.86.86,0,0,0,.8.8Z"/><path class="cls-3" d="M91.21,150.07l1.59,2.79.6,1.59,1,14.75h0a1.52,1.52,0,0,0-.4,1,1.59,1.59,0,1,0,3.19,0,1.2,1.2,0,0,0-.2-.8h.2l1.4-14.75.6-1.59,1.79-3Z"/><path class="cls-3" d="M99.18,154.85a.86.86,0,0,0,.8-.8h0a.86.86,0,0,0-.8-.8H93a.86.86,0,0,0-.8.8h0a.86.86,0,0,0,.8.8Z"/><path class="cls-3" d="M97.39,168.61a.53.53,0,0,0,.6-.6h0a.53.53,0,0,0-.6-.6H94a.53.53,0,0,0-.6.6h0a.53.53,0,0,0,.6.6Z"/><path class="cls-3" d="M97.39,170a.53.53,0,0,0,.6-.6h0a.53.53,0,0,0-.6-.6H94a.53.53,0,0,0-.6.6h0a.53.53,0,0,0,.6.6Z"/><path class="cls-5" d="M92,145.28a.86.86,0,0,0-.2,1.59c-1.2.4-1.4,1-.2,1.59a.81.81,0,0,0,.2,1.59c1,1.79,1.79,3.19,1.79,3.19s-2,.4,0,1.4"/><path class="cls-5" d="M94,154.65c.2,1,.8,13,.8,13"/><path class="cls-5" d="M100.38,145.68s1.79.8-.2,1.4c1.79.2,1,1.59-.2,1.59,1.4.6,1,1.2.2,1.4l-1.79,3s1.59,1.2-.4,1.59c-.2,1.79-1.2,12.36-1.2,12.36s1.2.8,0,1.59c1,.6,0,1.4,0,1.4"/><path class="cls-5" d="M100.18,145.88s1,.8-.2,1.2"/><path class="cls-5" d="M100.58,147.27s1,.4-.4,1.2c0,0,1,1.4-.4,1.4-1,1.79-1.79,3.19-1.79,3.19s1,1.2-.4,1.59c0,2.59-1,12.56-1,12.56s1,1.2,0,1.59c.8,1.2.2,1,0,1.2"/><path class="cls-5" d="M94.8,167.21s-1.2.4-.2,1.4c0,0-1,.8,0,1.4"/><path class="cls-6" d="M90.21,139.3a1.56,1.56,0,0,1,1,0c-.8.8-2.39,3.59.2,5.58"/><path class="cls-6" d="M91,138.9a4.11,4.11,0,0,1,3.39-1.2c-1,1.4-3,3.39-1,6.78"/><path class="cls-6" d="M91,139.5s0-.8,2.59-.8"/><path class="cls-6" d="M96,136.31a3.06,3.06,0,0,1,2,1.2"/><path class="cls-6" d="M98.58,138.5s-6.58.8-3,7"/><path class="cls-6" d="M100.18,138.9s-4.39,1.4-2.79,5.18"/><path class="cls-6" d="M102.77,140.1a16.22,16.22,0,0,1-2.59,2.39c-1,.4-1,2.59-.8,3"/><path class="cls-3" d="M94.4,133.92,92,130.53s-6.58,0-8.17-3.59-3.79-5.78-5-6.38c3.39-2,9.37,3.19,9.37,3.19s-5-5.38-4.59-9.57c.4-4.59.6-6.78.6-8,1.59,2.19,4,3.59,5,6,1.4,3.59.4,9.37,2,12.16.2-.8-1.4-2.79,2-11,.8,2.59,2.79,8,3,10.57a16.67,16.67,0,0,1-1.2,6.78l2.19,3.59Z"/></svg>