<?xml version="1.0" encoding="utf-8"?>
<!-- Generator: Adobe Illustrator 21.1.0, SVG Export Plug-In . SVG Version: 6.00 Build 0)  -->
<svg version="1.1" id="Layer_1" xmlns="http://www.w3.org/2000/svg" xmlns:xlink="http://www.w3.org/1999/xlink" x="0px" y="0px"
	 viewBox="0 0 250 250" style="enable-background:new 0 0 250 250;" xml:space="preserve">
<style type="text/css">
	.st0{fill:#242122;}
	.st1{fill:#F79A23;}
</style>
<title>Grocery</title>
<path class="st0" d="M6.3,147.7c2.1,0.2,4.3-0.1,6.3-0.9c3.3-1.3,6-3.6,8-6.5c2.2-3.2,4-6.7,5.3-10.4c1.6-4,3-8,4.8-12
	c0.9-2.2,2.1-4.2,3.5-6c0.8-1,1.8-1.9,2.9-2.5l0.1-0.1c0.2-0.1,0.4-0.2,0.3-0.5c-0.1-0.2-0.3-0.2-0.5-0.1c-0.5,0.1-1.1,0.3-1.5,0.6
	c-3.4,1.9-6.2,4.6-8.2,7.9c-2,3.4-3.7,7-5.1,10.7c-1.3,3.3-2.7,6.7-4.4,10c-0.8,1.7-1.8,3.3-2.9,4.8c-1.5,2.2-3.9,3.6-6.5,3.8
	l-0.6,0.1H7.7c0-0.1,0.1-0.1,0.1-0.1c0.7-0.3,1.2-1.1,1.3-1.9c0.1-0.4,0.1-0.9,0.1-1.3c0-6.4,0-12.8,0-19.1c0-0.2,0-0.3,0-0.5
	c0.2,0,0.2,0.2,0.2,0.3c1,1.5,2.6,2.5,4.4,2.7c2.9,0.5,5.8-0.5,7.8-2.6c0.3-0.3,0.6-0.6,0.7-1c0-0.1,0.1-0.2,0-0.3s-0.2,0-0.3,0
	c-0.3,0.1-0.5,0.3-0.7,0.5c-1.9,1.5-4.4,1.9-6.7,1c-1.9-0.7-3.2-2.4-3.2-4.4c-0.1-2.2,0.5-4.3,1.9-6c1.6-2.3,3.7-4.1,6.1-5.5
	c4.2-2.4,8.9-3.7,13.7-3.9c2.3-0.2,4.7,0.2,6.9,1.1c2.6,0.9,4.5,3,5.3,5.6c1,3.1,0.1,6.5-2.1,8.8c-1.8,2-4.3,3.3-6.9,3.9
	c-1.9,0.5-3.8,0.7-5.7,1.1c-0.2,0-0.5,0.1-0.7,0.3c-0.1,0.1-0.2,0.1-0.1,0.3c0,0.1,0.2,0.2,0.3,0.2h0.3c1.8-0.4,3.7,0.3,4.9,1.7
	c1.3,1.5,2.1,3.5,2.2,5.5c0.5,4.6-1.1,9.2-4.4,12.4c-1.8,1.9-4.4,3-7,2.9c-2.4,0.1-4.7-1.2-5.9-3.3c-0.1-0.2-0.3-0.5-0.5-0.7
	c-0.1-0.1-0.2-0.2-0.3-0.2c-0.2,0-0.2,0.2-0.2,0.3c0,0.1,0,0.2,0,0.3c0.6,2.2,2.3,4,4.5,4.6c0.1,0,0.3,0,0.2,0.2H6.5
	c-0.3,0-0.4,0-0.3-0.4C6.2,148.3,6.3,148,6.3,147.7z"/>
<path class="st0" d="M29.7,101c0.5,0.1,1,0.2,1.5,0.2c2.7,0.2,5.4,0.8,8,1.8c1.2,0.5,2.3,1.1,3.2,2c0.1,0.1,0.1,0.1,0.2,0.4
	c-2.3-1.3-4.8-2-7.4-2.1c-8.1-0.5-16.1,2.3-22.2,7.7c-1.7,1.4-3,3.1-3.9,5H9c0-0.8,0-1.7,0-2.5c0-2.9,0-5.8,0-8.7
	c0.2-1.2-0.7-2.4-2-2.5c-0.2,0-0.3,0-0.5,0H6.3c0-0.4,0-0.8,0-1.2c0-0.1,0-0.2,0.2-0.2L29.7,101L29.7,101z"/>
<path class="st0" d="M31.2,149c0-0.1,0.1-0.1,0.2-0.2c3.5-0.7,6.5-2.9,8.2-6c2.2-3.5,2.8-7.8,1.6-11.7c-1-3.4-3.8-5.8-7.3-6.4
	c-0.2,0-0.4-0.1-0.6-0.1c1.1,0,2.1,0.1,3.2,0.3c2.5,0.4,4.8,1.5,6.8,3.1c4,3.5,4.9,9.3,2.1,13.8c-1.7,2.7-4.2,4.8-7.3,5.8
	c-1.9,0.7-3.9,1.2-6,1.3c-0.1,0-0.1,0-0.2,0.1L31.2,149z"/>
<path class="st0" d="M67.7,125c0.4,0.1,0.7,0.1,0.9,0.2c2,0.6,3.3,2.5,3.2,4.6c0.2,3.1-2.1,5.9-5.3,6.2c-0.7,0.1-1.4,0.2-2.1,0.1
	h-6.1c-0.3,0-0.4-0.1-0.4-0.4c0-6.8,0-13.6,0-20.4c0-0.2,0-0.4,0.3-0.3c2.3,0,4.6-0.1,6.9,0.1c2.9,0,5.3,2.5,5.2,5.4
	c0,1.3-0.5,2.6-1.4,3.5C68.6,124.5,68.2,124.8,67.7,125z M60.7,130.1c0,1,0,2,0,3c0,0.3,0.1,0.4,0.4,0.4c1.1,0,2.2,0,3.3,0
	c0.6,0,1.2,0,1.8-0.1c1.6-0.3,2.7-1.7,2.7-3.3c0.1-1.5-0.9-2.8-2.3-3.1c-0.3-0.1-0.6-0.2-1-0.2c-1.6-0.2-3.1,0-4.7-0.1
	c-0.3,0-0.2,0.1-0.2,0.3C60.7,128,60.7,129,60.7,130.1L60.7,130.1z M60.7,121c0,0.9,0,1.9,0,2.8c0,0.3,0,0.3,0.3,0.3c1,0,2,0,3,0
	c1,0,2-0.3,2.7-1.1c0.8-0.9,1.1-2.2,0.6-3.4c-0.4-1.1-1.4-1.8-2.6-1.9c-1.3-0.1-2.6-0.1-3.9-0.1c-0.3,0-0.3,0.1-0.3,0.3
	C60.7,119,60.7,119.9,60.7,121L60.7,121z"/>
<path class="st0" d="M117.1,125.6c0-3.4,0-6.7,0-10.1c0-0.4,0.1-0.5,0.5-0.4c1.9,0,3.7,0,5.6,0.1c4.6,0.3,8.4,3.8,9,8.4
	c0.5,2.5,0.1,5.1-1.1,7.4c-1.6,3.1-4.8,5.1-8.3,5.2c-1.8,0.1-3.5,0-5.3,0.1c-0.4,0-0.3-0.2-0.3-0.4
	C117.1,132.3,117.1,129,117.1,125.6z M120,125.6c0,2.4,0,4.9,0,7.3c0,0.3,0,0.4,0.4,0.4c0.8,0,1.6,0,2.3,0c1.6-0.1,3.2-0.7,4.3-1.8
	c2.1-2,3-5,2.2-7.8c-0.5-2.5-2.3-4.6-4.8-5.3c-1.3-0.3-2.7-0.5-4.1-0.4c-0.3,0-0.4,0.1-0.4,0.4C120,120.7,120,123.1,120,125.6
	L120,125.6z"/>
<path class="st0" d="M154.4,123.1c0,1.9,0.1,4.3,0,6.7c-0.2,3.7-3.4,6.6-7.1,6.6c-2,0.1-3.9-0.7-5.3-2.1c-1.3-1.4-2.1-3.2-2-5.1
	c0-4.6,0-9.2,0-13.8c0-0.3,0.1-0.4,0.4-0.4c0.7,0,1.3,0,2.1,0c0.4,0,0.5,0.1,0.5,0.5c0,4,0,8,0,12c0,0.9,0,1.8,0.1,2.7
	c0.4,2.3,2.5,3.8,4.8,3.5c2.2-0.2,3.9-2.1,3.9-4.3c0-2.7,0-5.3,0-8c0-2,0-4,0-5.9c0-0.3,0.1-0.4,0.4-0.4c0.7,0,1.4,0,2.1,0
	c0.4,0,0.4,0.1,0.4,0.4C154.4,117.9,154.4,120.3,154.4,123.1z"/>
<path class="st0" d="M228.5,136.4c-3.4,0.3-6.4-2-7-5.3c-0.1-0.6-0.1-0.6,0.5-0.8s1.3-0.3,1.9-0.5c0.3-0.1,0.4,0,0.4,0.3
	c0.1,0.6,0.3,1.3,0.7,1.8c0.7,1.3,2.3,1.9,3.7,1.5c1.4-0.2,2.5-1.4,2.7-2.9c0.2-1.3-0.4-2.5-1.5-3.1c-1.3-0.8-2.6-1.4-4-2
	c-1.7-0.7-2.9-2.2-3.4-4c-0.7-3,1.1-6,4.1-6.7c0.2,0,0.4-0.1,0.6-0.1c2.6-0.5,5.2,0.9,6.3,3.3c0.1,0.3,0.1,0.4-0.1,0.5
	c-0.6,0.4-1.1,0.7-1.7,1.1c-0.2,0.2-0.3,0.2-0.5-0.1c-0.4-0.9-1.1-1.6-2.1-1.9c-0.8-0.3-1.8-0.2-2.5,0.3c-1.3,0.8-1.7,2.4-0.9,3.7
	c0.1,0.2,0.3,0.4,0.5,0.6c0.5,0.4,1,0.7,1.6,1c1.2,0.5,2.3,1.1,3.4,1.7c2.9,1.4,4.1,4.9,2.7,7.8c-0.2,0.5-0.5,0.9-0.9,1.3
	C232,135.3,230.3,136.3,228.5,136.4z"/>
<path class="st0" d="M85.2,114.3l2.7,6.2l6.5,15.2c0.2,0.5,0.2,0.5-0.4,0.5H92c-0.2,0-0.4-0.1-0.5-0.3c-0.7-1.8-1.5-3.6-2.3-5.3
	c-0.1-0.2-0.3-0.4-0.5-0.3c-2.4,0-4.8,0-7.2,0c-0.2,0-0.5,0.1-0.5,0.4c-0.7,1.8-1.4,3.5-2.1,5.3c-0.1,0.2-0.3,0.4-0.5,0.4
	c-0.7,0-1.5,0-2.2,0c-0.4,0-0.4-0.1-0.2-0.4c1.4-3.2,2.8-6.4,4.2-9.6c1.7-3.9,3.3-7.7,5-11.6L85.2,114.3z M85,120.7l-2.8,6.9H88
	L85,120.7z"/>
<path class="st0" d="M178.3,120.2l-0.4-0.4c-1.9-1.8-4.6-2.6-7.2-2.1c-3,0.5-5.3,2.8-5.9,5.8c-0.9,3.1,0.1,6.5,2.7,8.5
	c2.3,2,5.6,2.3,8.3,0.7c0.9-0.5,1.8-1.2,2.6-1.9v2.4c0,1.4,0,1.4-1.3,2.1c-5.1,2.7-11.5,0.8-14.2-4.4c-0.6-1.2-1-2.5-1.2-3.9
	c-0.7-5.5,2.8-10.6,8.1-12c2.8-0.8,5.8-0.3,8.2,1.3c0.2,0.1,0.4,0.4,0.3,0.7c0,0.9,0,1.8,0,2.7C178.4,119.8,178.3,120,178.3,120.2z"
	/>
<path class="st0" d="M200.3,130.7c0,1.3,0,2.4,0,3.6c0,0.2-0.1,0.3-0.2,0.3c-4.8,3.3-11.4,2-14.6-2.8c-0.8-1.2-1.4-2.7-1.7-4.1
	c-1.1-5.4,2-10.7,7.1-12.5c3-1.1,6.4-0.7,9.1,1.2c0.2,0.1,0.3,0.3,0.3,0.6c0,1,0,2.1,0,3.1c-0.2,0-0.2-0.1-0.3-0.2
	c-2.1-2.1-5.2-2.9-8-2c-3.2,1-5.3,3.9-5.4,7.3c-0.2,2.5,0.8,4.9,2.7,6.5c2.6,2.4,6.5,2.6,9.3,0.5
	C199.2,131.7,199.7,131.2,200.3,130.7z"/>
<path class="st0" d="M100.6,125.6c0-3.4,0-6.7,0-10.1c0-0.3,0-0.5,0.4-0.4c0.7,0,1.3,0,2.1,0c0.3,0,0.4,0.1,0.4,0.4
	c0,3.4,0,6.7,0,10.1c0,2.4,0,4.8,0,7.2c0,0.6,0,0.6,0.6,0.6h5.9c0.3,0,0.4,0,0.4,0.4c0,0.7,0,1.5,0,2.2c0,0.2,0,0.4-0.3,0.4
	c-3.1,0-6.1,0-9.2,0c-0.3,0-0.3-0.2-0.3-0.4C100.5,132.4,100.6,129,100.6,125.6z"/>
<path class="st0" d="M207.9,125.6c0-3.4,0-6.7,0-10.1c0-0.4,0.1-0.5,0.5-0.5c0.7,0,1.3,0,2,0c0.3,0,0.4,0.1,0.4,0.4
	c0,5.5,0,10.9,0,16.4c0,1.3,0,2.7,0,3.9c0,0.3-0.1,0.4-0.4,0.4c-0.7,0-1.3,0-2.1,0c-0.3,0-0.4-0.1-0.4-0.4
	C207.9,132.4,207.9,129,207.9,125.6z"/>
<path class="st0" d="M216,113.1c0-0.3,0-0.6,0.1-0.9c0.1-0.4,0.6-0.7,1-0.6c0.4,0,0.8,0.3,0.8,0.7c0.1,0.5,0.1,1,0,1.5
	c-0.1,1.3-0.3,2.8-0.4,4.1c0,0.3,0,0.7-0.4,0.7s-0.4-0.4-0.4-0.7C216.4,116.3,216.2,114.7,216,113.1z"/>
<path class="st1" d="M58,142.1h3.1v0.6h-2.5v1.9H61v0.6h-2.5v3H58V142.1z"/>
<path class="st1" d="M69.6,141.9c0.9,0,1.7,0.3,2.3,0.9c1.3,1.3,1.3,3.3,0,4.6c-0.6,0.6-1.4,0.9-2.3,0.9c-0.9,0-1.7-0.3-2.3-0.9
	c-0.6-0.6-1-1.4-0.9-2.3c0-0.6,0.1-1.1,0.4-1.7C67.4,142.5,68.5,141.9,69.6,141.9L69.6,141.9z M69.6,142.5c-0.9,0-1.8,0.5-2.3,1.3
	c-0.2,0.4-0.3,0.9-0.3,1.3c0,1.4,1.1,2.6,2.5,2.7c0,0,0.1,0,0.1,0c0.5,0,0.9-0.1,1.3-0.3c0.4-0.2,0.7-0.6,1-1
	c0.2-0.4,0.3-0.9,0.3-1.3c0-0.5-0.1-0.9-0.3-1.3c-0.2-0.4-0.6-0.7-1-0.9C70.6,142.7,70.1,142.5,69.6,142.5L69.6,142.5z"/>
<path class="st1" d="M81.7,141.9c0.9,0,1.7,0.3,2.3,0.9c1.3,1.3,1.3,3.3,0,4.6c-0.6,0.6-1.4,0.9-2.3,0.9c-0.9,0-1.7-0.3-2.3-0.9
	c-0.6-0.6-1-1.4-0.9-2.3c0-0.6,0.1-1.1,0.4-1.7C79.5,142.5,80.5,141.9,81.7,141.9L81.7,141.9z M81.7,142.5c-0.9,0-1.8,0.5-2.3,1.3
	c-0.2,0.4-0.3,0.9-0.3,1.3c0,1.4,1.1,2.6,2.5,2.7c0,0,0.1,0,0.1,0c0.5,0,0.9-0.1,1.3-0.3c0.4-0.2,0.7-0.6,1-1
	c0.2-0.4,0.3-0.9,0.3-1.3c0-0.5-0.1-0.9-0.3-1.3c-0.2-0.4-0.6-0.7-1-0.9C82.7,142.7,82.2,142.5,81.7,142.5L81.7,142.5z"/>
<path class="st1" d="M90.8,148.2v-6.2h1.3c0.7,0,1.4,0,2,0.2c0.6,0.2,1.1,0.6,1.4,1.1c0.3,0.6,0.5,1.2,0.5,1.9
	c0,0.6-0.1,1.1-0.4,1.6c-0.2,0.4-0.6,0.8-1,1c-0.6,0.3-1.2,0.4-1.8,0.3H90.8z M91.4,147.7h0.7c0.6,0,1.2,0,1.8-0.2
	c0.4-0.1,0.8-0.4,1.1-0.8c0.3-0.4,0.4-0.9,0.4-1.4c0-0.5-0.1-1.1-0.4-1.5c-0.3-0.4-0.7-0.7-1.2-0.9c-0.6-0.1-1.3-0.2-1.9-0.2h-0.4
	L91.4,147.7z"/>
<path class="st1" d="M108.8,142.1h0.6v5.6h2.4v0.6h-3L108.8,142.1z"/>
<path class="st1" d="M120.5,141.9c0.9,0,1.7,0.3,2.3,0.9c1.3,1.3,1.3,3.3,0,4.6c-0.6,0.6-1.4,0.9-2.3,0.9c-0.9,0-1.7-0.3-2.3-0.9
	c-0.6-0.6-1-1.4-0.9-2.3c0-0.6,0.1-1.1,0.4-1.7C118.3,142.5,119.4,141.9,120.5,141.9L120.5,141.9z M120.5,142.5
	c-0.9,0-1.8,0.5-2.3,1.3c-0.2,0.4-0.3,0.9-0.3,1.3c0,1.4,1.1,2.6,2.5,2.7c0,0,0.1,0,0.1,0c0.5,0,0.9-0.1,1.3-0.3
	c0.4-0.2,0.7-0.6,1-1c0.2-0.4,0.3-0.9,0.3-1.3c0-0.5-0.1-0.9-0.3-1.3c-0.2-0.4-0.6-0.7-1-0.9C121.5,142.7,121.1,142.5,120.5,142.5
	L120.5,142.5z"/>
<path class="st1" d="M129.5,142.1h0.7l2.1,4.8l2.1-4.8h0.7l-2.7,6.2h-0.1L129.5,142.1z"/>
<path class="st1" d="M140.8,142.1h3.5v0.6h-2.9v1.9h2.9v0.6h-2.9v2.5h2.9v0.6h-3.5L140.8,142.1z"/>
<path class="st1" d="M150.3,142.1h1.2c0.4,0,0.9,0,1.3,0.1c0.4,0.1,0.7,0.3,0.9,0.5c0.2,0.3,0.4,0.6,0.3,1c0,0.3-0.1,0.6-0.2,0.9
	c-0.2,0.3-0.4,0.5-0.7,0.6c-0.4,0.1-0.8,0.2-1.2,0.2l2.2,2.9h-0.8l-2.2-2.9h-0.3v2.9h-0.6V142.1z M150.9,142.7v2.1h1.1
	c0.3,0,0.6,0,0.9-0.1c0.2-0.1,0.4-0.2,0.5-0.4c0.1-0.2,0.2-0.4,0.2-0.6c0-0.2-0.1-0.4-0.2-0.6c-0.1-0.2-0.3-0.3-0.4-0.4
	c-0.3-0.1-0.6-0.1-0.9-0.1L150.9,142.7z"/>
<path class="st1" d="M163,147.1l0.5-0.3c0.4,0.7,0.8,1,1.3,1c0.2,0,0.4,0,0.6-0.1c0.2-0.1,0.3-0.2,0.4-0.4c0.1-0.2,0.1-0.3,0.1-0.5
	c0-0.2-0.1-0.4-0.2-0.6c-0.3-0.4-0.7-0.7-1.1-1c-0.4-0.2-0.7-0.5-1-0.8c-0.2-0.3-0.3-0.6-0.3-0.9c0-0.3,0.1-0.5,0.2-0.7
	c0.1-0.2,0.3-0.4,0.5-0.5c0.2-0.1,0.5-0.2,0.8-0.2c0.3,0,0.6,0.1,0.8,0.2c0.3,0.2,0.6,0.5,0.8,0.8l-0.5,0.4
	c-0.2-0.2-0.4-0.4-0.6-0.6c-0.2-0.1-0.3-0.1-0.5-0.1c-0.2,0-0.4,0.1-0.6,0.2c-0.2,0.1-0.2,0.3-0.2,0.6c0,0.1,0,0.3,0.1,0.4
	c0.1,0.2,0.2,0.3,0.3,0.4c0.1,0.1,0.3,0.3,0.8,0.6c0.4,0.3,0.8,0.6,1.1,1.1c0.2,0.3,0.3,0.6,0.3,0.9c0,0.4-0.2,0.9-0.5,1.2
	c-0.3,0.3-0.8,0.5-1.2,0.5c-0.4,0-0.7-0.1-1-0.3C163.5,147.8,163.2,147.5,163,147.1z"/>
<path class="st1" d="M180.8,148.2l0.9-6.2h0.1l2.5,5.1l2.5-5.1h0.1l0.9,6.2h-0.6l-0.6-4.4l-2.2,4.4h-0.2l-2.2-4.5l-0.6,4.5H180.8z"
	/>
<path class="st1" d="M195.3,142.1l2.9,6.2h-0.7l-1-2h-2.7l-1,2h-0.7l2.9-6.2H195.3z M195.2,143.4l-1.1,2.2h2.1L195.2,143.4z"/>
<path class="st1" d="M202.9,142.1h1.2c0.4,0,0.9,0,1.3,0.1c0.4,0.1,0.7,0.3,0.9,0.5c0.2,0.3,0.4,0.6,0.3,1c0,0.3-0.1,0.6-0.2,0.9
	c-0.2,0.3-0.4,0.5-0.7,0.6c-0.4,0.1-0.8,0.2-1.2,0.2l2.2,2.9h-0.8l-2.2-2.9h-0.3v2.9h-0.6L202.9,142.1z M203.5,142.7v2.1h1.1
	c0.3,0,0.6,0,0.9-0.1c0.2-0.1,0.4-0.2,0.5-0.4c0.1-0.2,0.2-0.4,0.2-0.6c0-0.2-0.1-0.4-0.2-0.6c-0.1-0.2-0.3-0.3-0.4-0.4
	c-0.3-0.1-0.6-0.1-0.9-0.1L203.5,142.7z"/>
<path class="st1" d="M211.9,142.1h0.6v2.3l2.5-2.3h0.8l-3,2.8l3.2,3.4h-0.8l-2.7-2.9v2.9H212L211.9,142.1z"/>
<path class="st1" d="M220.7,142.1h3.5v0.6h-2.9v1.9h2.9v0.6h-2.9v2.5h2.9v0.6h-3.5V142.1z"/>
<path class="st1" d="M228.5,142.7v-0.6h3.4v0.6h-1.3v5.6h-0.6v-5.6H228.5z"/>
<path class="st1" d="M158.1,141.4c0-0.1,0-0.1,0-0.2c0-0.1,0.1-0.2,0.2-0.1c0.1,0,0.2,0.1,0.2,0.2c0,0.1,0,0.2,0,0.3
	c0,0.3,0,0.6-0.1,0.9c0,0,0,0.2-0.1,0.2c-0.1,0-0.1-0.1-0.1-0.2C158.2,142.2,158.1,141.8,158.1,141.4z"/>
<path class="st0" d="M243.4,136.3c-1.5,0-2.7-1.2-2.7-2.7c0-1.5,1.2-2.7,2.7-2.7c1.5,0,2.7,1.2,2.7,2.7
	C246.1,135.1,244.9,136.3,243.4,136.3z M243.4,131.2c-1.3,0-2.4,1.1-2.4,2.4c0,1.3,1.1,2.4,2.4,2.4c1.3,0,2.4-1.1,2.4-2.4v0
	C245.8,132.3,244.7,131.2,243.4,131.2L243.4,131.2z"/>
<path class="st0" d="M242.1,135.1v-3.1h1.3c0.2,0,0.5,0,0.7,0.1c0.2,0.1,0.3,0.2,0.4,0.3c0.1,0.1,0.1,0.3,0.1,0.5
	c0,0.2-0.1,0.4-0.2,0.6c-0.2,0.2-0.4,0.3-0.6,0.3c0.1,0.1,0.2,0.2,0.3,0.3c0.1,0.2,0.2,0.3,0.3,0.5l0.4,0.6h-0.7l-0.4-0.7
	c-0.1-0.2-0.2-0.3-0.3-0.5c-0.1-0.1-0.1-0.1-0.2-0.1c-0.1,0-0.2,0-0.3,0h-0.1v1.3L242.1,135.1z M242.7,133.4h0.5c0.2,0,0.4,0,0.5,0
	c0.1,0,0.1-0.1,0.2-0.1c0-0.1,0-0.2,0-0.2c0-0.1,0-0.2-0.1-0.3c-0.1-0.1-0.1-0.1-0.2-0.1h-0.9L242.7,133.4z"/>
<path class="st0" d="M241.3,144.9v-2.5h-0.9v-0.3h2.2v0.3h-0.9v2.5H241.3z"/>
<path class="st0" d="M243.1,144.9v-2.8h0.6l0.7,2l0.1,0.4l0.1-0.5l0.7-2h0.5v2.8h-0.4v-2.4l-0.8,2.4h-0.3l-0.8-2.4v2.4L243.1,144.9z
	"/>
</svg>
