<?xml version="1.0" encoding="utf-8"?>
<!-- Generator: Adobe Illustrator 21.1.0, SVG Export Plug-In . SVG Version: 6.00 Build 0)  -->
<svg version="1.1" id="Layer_1" xmlns="http://www.w3.org/2000/svg" xmlns:xlink="http://www.w3.org/1999/xlink" x="0px" y="0px"
	 viewBox="0 0 250 250" style="enable-background:new 0 0 250 250;" xml:space="preserve">
<style type="text/css">
	.st0{fill:#E2393E;}
	.st1{fill:#FFFFFF;}
</style>
<title>Drug Logos</title>
<path class="st0" d="M5,87.7h238.4c1.6,0,1.6,0,1.6,1.6c0,23.8,0,47.7,0,71.5c0,1.7,0.2,1.3-1.4,1.3H6.2c-1.3,0-1.2,0.1-1.2-1.2
	c0-23.9,0-47.7,0-71.6C5,88.9,5,88.4,5,87.7z M125.2,125h115.7c1.5,0,1.5,0,1.5-1.5c0-10.6,0-21.2,0-31.7c0-0.6,0-1-0.8-0.9
	c-1,0.1-2,0-3,0H9.1c-1,0-1,0-1,1c0,10.7,0,21.4,0,32.1c0,0.8,0.2,1,1,1L125.2,125z M42.8,155.8l0.1,0.2h1c6.1,0,12.3,0,18.4,0
	c1.3,0,2.7-0.1,4-0.4c4.5-0.9,7.8-3.3,9.3-7.8c0.8-2.5,1-5.1,0.6-7.7c-1-7.2-7.5-10.5-12.3-10.6c-6.7-0.1-13.5,0-20.2,0
	c-0.3,0-0.6,0-1,0c1.3,1.3,2.7,2.7,3.9,3.9c0.5,0.4,0.7,1.1,0.7,1.7c0,4.7-0.1,9.5,0,14.2c0.2,1.5-0.5,2.9-1.7,3.8
	C44.6,154,43.7,154.9,42.8,155.8z M110.5,156l0.1-0.2l-0.7-0.5c-1.2-0.8-2.4-1.7-3.6-2.5c-1.1-0.6-1.9-1.7-2.2-3
	c-0.3-1.7-1.4-3.1-2.9-3.7c0,0,0-0.1,0-0.2c2.1-0.6,3.8-2,4.6-4c0.6-1.6,0.8-3.3,0.6-5c-0.4-4.2-3.9-7.4-8.1-7.4H78
	c-0.2,0-0.5,0-0.9,0c0.3,0.3,0.4,0.5,0.6,0.6c1.2,1.2,2.4,2.3,3.6,3.5c0.3,0.3,0.4,0.7,0.5,1.1c0,5.5,0,11,0,16.5
	c0,0.4-0.2,0.7-0.5,1c-1.1,1-2.3,2-3.5,3c-0.2,0.2-0.4,0.4-0.6,0.6h16.8c-0.7-0.8-1.5-1.5-2.3-2.1c-1.7-1-2.6-3-2.2-5
	c0.1-0.8,0.1-1.6,0-2.5c1.6,0,3,0,4.5,0c0.2,0,0.5,0.1,0.6,0.3c0.5,0.8,0.9,1.6,1.1,2.4c0.5,1.9,1.5,3.7,2.9,5
	c1.3,1.5,3.4,2.2,5.3,1.9c0.2,0,0.4,0,0.6,0L110.5,156z M174.8,129c-0.9,0.7-1.7,1.3-2.5,2c-0.3,0.2-0.6,0.2-0.9,0.1
	c-4.5-2.3-9.7-2.8-14.5-1.5c-3.7,0.8-6.9,3-8.9,6.1c-3.9,6-2.3,14,3.7,17.9c0.2,0.1,0.4,0.2,0.6,0.3c5.6,3.2,11.3,3.9,17.1,0.4
	c0.6-0.3,1.1-0.7,1.7-1c0.2-0.3,0.7-0.3,0.9,0c0,0,0,0,0,0c0.9,0.9,1.9,1.7,2.8,2.5c0.2,0.2,0.5,0.4,0.9,0.7c0-0.5,0-0.9,0-1.2
	c0-2.8,0-5.6,0-8.4c0-0.4,0.1-0.7,0.4-1c1.1-1.2,2.3-2.3,3.4-3.4c0.1-0.1,0.3-0.3,0.5-0.6h-17l-0.2,0.2c0.7,0.7,1.3,1.3,2.1,1.9
	c1.7,1.2,2.6,3.3,2.2,5.4c0,0.7-0.4,1.3-1.1,1.5c-1.7,0.7-3.6,0.6-5.3-0.1c-4-1.8-6.1-6.3-5.1-10.5c0.7-4.1,4.2-7,8.4-7
	c4.1-0.2,7.4,1.6,10.1,4.5c0.2,0.3,0.5,0.5,0.8,0.9L174.8,129z M184.1,157.1c0.3-0.2,0.6-0.3,0.8-0.5c1-0.7,1.9-1.3,2.9-2
	c0.3-0.2,0.7-0.2,1.1-0.1c3.6,1.5,7.4,2.2,11.3,2.1c2.8,0,5.6-0.8,8-2.3c1.6-1,2.7-2.6,3-4.4c0.8-3.8-1.3-7.5-4.9-8.9
	c-2-0.7-4.1-1.2-6.3-1.3c-2.1-0.1-4.1-0.7-6-1.6c-0.9-0.3-1.5-1.2-1.5-2.2c0.1-1,0.8-1.8,1.7-2c2.6-0.9,5.4-0.9,8,0.1
	c2.1,0.8,4,2,5.7,3.5c0.2,0.2,0.4,0.3,0.6,0.4v-9.3c-0.1,0-0.2,0-0.2,0.1c-0.8,0.8-1.5,1.5-2.3,2.3c-0.2,0.3-0.6,0.4-0.9,0.2
	c0,0,0,0,0,0c-0.7-0.4-1.5-0.7-2.3-1c-4.5-1.9-9.5-1.8-14,0.1c-2.8,1-4.8,3.6-5,6.7c-0.3,3.1,1.3,6.1,4,7.6c1.7,0.9,3.6,1.4,5.5,1.5
	c2.5,0.3,4.9,0.5,7.4,0.8c0.9,0.1,1.7,0.2,2,1.2c0.5,1.1,0.1,2.4-1,2.9c-0.1,0-0.1,0.1-0.2,0.1c-1.2,0.5-2.4,0.8-3.6,0.8
	c-4.8,0-9.5-1.7-13.1-4.8l-0.7-0.6L184.1,157.1z M130.6,129.5c0.4,0.4,0.6,0.7,0.8,0.9c1.1,1.1,2.2,2.2,3.2,3.3
	c0.2,0.3,0.4,0.6,0.4,1c0,3.8,0,7.6,0,11.4c0,2-1.4,3.7-3.2,4.2c-2.4,0.7-5,0.4-7.2-0.7c-1.6-0.7-2.6-2.3-2.5-4c0-3.6,0-7.2,0-10.8
	c0-0.4,0.2-0.7,0.4-1c1.1-1.2,2.3-2.3,3.4-3.4c0.2-0.2,0.4-0.5,0.7-0.8h-17.6c0.2,0.2,0.3,0.4,0.5,0.5c1.1,1.2,2.3,2.3,3.3,3.5
	c0.3,0.4,0.5,0.8,0.5,1.3c0,3.4,0,6.9,0,10.3c-0.2,4,2.1,7.7,5.8,9.4c3.2,1.6,6.8,2.2,10.4,1.8c6.8-0.3,9.9-5.7,9.9-10.6
	c0-3.6,0-7.3,0-10.9c0-0.5,0.2-1,0.6-1.3c1.1-1.1,2.2-2.2,3.3-3.4c0.2-0.2,0.3-0.4,0.6-0.7L130.6,129.5z"/>
<path class="st1" d="M125.2,125H9c-0.8,0-1-0.2-1-1c0-10.7,0-21.4,0-32.1c0-1,0-1,1-1h229.5c1,0,2,0,3,0c0.8,0,0.8,0.3,0.8,0.9
	c0,10.6,0,21.2,0,31.7c0,1.5,0,1.5-1.5,1.5L125.2,125L125.2,125z M21,120.9c0.4,0,0.6,0.1,0.8,0.1c6.3,0,12.7,0,19,0
	c1.9,0,3.7-0.5,5.3-1.4c4-2.1,4.9-8.5,0.5-11.2l-0.7-0.5c0.6-0.6,1.2-1.3,1.6-2.1c1.3-2.6,1-5.7-0.7-8c-1.6-2.1-4.1-3.2-6.7-3.1
	c-6.1,0-12.1,0-18.1,0h-1c0.3,0.4,0.4,0.6,0.6,0.8c1,1.2,2,2.3,2.9,3.5c0.3,0.4,0.5,0.8,0.5,1.3c0,5.3,0,10.5,0,15.8
	c0,0.6-0.2,1.1-0.7,1.5C23.2,118.7,22.1,119.7,21,120.9z M101.4,120.9l0.1-0.2c-1.2-1.1-2.5-2.2-3.7-3.4c-0.3-0.2-0.4-0.6-0.5-0.9
	c0-1.5,0-2.9,0-4.4c0-0.5,0.2-0.7,0.7-0.7c1.1,0,2.2,0,3.3,0c0.9-0.1,1.8,0.5,2.1,1.3c0.2,0.4,0.3,0.8,0.4,1.2
	c0.4,1.9,1.3,3.6,2.7,5c1.1,1.4,2.9,2.2,4.7,2.1c2.1-0.1,4.2,0,6.3,0c0.3,0,0.6,0,0.9,0c-1-0.9-2-1.7-3.2-2.4c-1.7-1-3-2.6-3.4-4.6
	c-0.3-0.7-0.7-1.4-1.3-1.9c-0.4-0.4-0.9-0.7-1.5-0.9c0.9-0.4,1.8-0.9,2.6-1.4c2.3-1.8,2.9-4.3,2.8-7.1c0-4.5-3.7-8-8.2-8
	c-0.1,0-0.1,0-0.2,0H86.2c-0.3,0-0.5,0-0.7,0c1.2,1.3,2.4,2.6,3.7,3.9c0.4,0.4,0.7,0.9,0.7,1.5c0,4.8-0.1,9.6,0,14.4
	c0.2,1.7-0.6,3.4-2,4.3c-0.9,0.7-1.8,1.4-2.6,2.2L101.4,120.9z M83.5,120.9c-0.6-0.7-1.1-1.2-1.5-1.7c-0.8-0.8-1.5-1.7-2.1-2.7
	c-3.3-7-6.4-14-9.6-21c-0.2-0.6-0.7-1-1.3-0.9c-1.8,0-3.6,0-5.3,0c-0.6-0.1-1.2,0.3-1.3,0.8c-2.9,7-5.9,14.1-8.8,21.1
	c-0.1,0.3-0.3,0.6-0.5,0.8c-0.9,0.9-1.9,1.8-2.8,2.8c-0.2,0.2-0.4,0.4-0.7,0.7H63l-2.5-2.2c-1.8-1.6-1.8-1.6-1-3.9
	c0.1-0.4,0.5-0.7,1-0.6c2.5,0,5,0,7.5,0c2.5,0,2.5,0,3.4,2.3c0.2,0.4,0.1,0.8-0.2,1c-0.9,0.9-1.7,1.8-2.6,2.7
	c-0.1,0.2-0.3,0.3-0.5,0.6L83.5,120.9z M166.3,101.8c-1.1,1.1-2.2,2.2-3.2,3.2c-0.3,0.2-0.6,0.4-0.9,0.4c-1,0-2.1,0-3.1,0
	c-0.6,0-0.8-0.2-0.7-0.8c0-1.7,0-3.5,0-5.2c0-0.2,0-0.4,0.1-0.7c0.1,0,0.2-0.1,0.3-0.1c3.3,0,6.6,0,9.9,0c0.3,0,0.6,0.2,0.8,0.4
	c0.8,0.8,1.7,1.7,2.5,2.5c0.5,0.5,0.9,1,1.5,1.6v-8.7h-25.4c0.2,0.3,0.3,0.4,0.5,0.5c1,1,2,2,3,3.1c0.3,0.3,0.4,0.7,0.5,1.1
	c0,5.5,0,11,0,16.5c0,0.4-0.2,0.8-0.5,1.2c-0.9,1.1-1.9,2.1-2.9,3.1c-0.2,0.2-0.3,0.4-0.6,0.7h25.5v-8.3c-1.3,1.3-2.6,2.5-3.8,3.6
	c-0.3,0.3-0.8,0.5-1.2,0.5c-3,0-6,0-9,0c-0.3,0-0.6,0-0.9,0c0-2.1,0-4.2,0-6.2c0-0.4,0.2-0.5,0.6-0.5c1.1,0,2.1,0,3.1,0
	c0.4,0,0.8,0.2,1.2,0.4c1,0.8,2,1.6,3.1,2.5L166.3,101.8z M123.1,120.9h15.3c-0.1-0.2-0.2-0.3-0.3-0.4c-1.1-1-2.1-2-3.2-3
	c-0.4-0.3-0.7-0.9-0.6-1.4c0-5.3,0-10.7,0-16c0-0.3,0-0.6,0-1c1.6,0,3.2,0,4.7,0c0.6,0,1.1,0.2,1.5,0.7c1.1,1.3,2.2,2.5,3.5,3.8
	c0-0.4,0-0.6,0-0.8c0-2.4,0-4.9,0-7.3c0-0.7-0.2-0.8-0.8-0.8H119c-0.3,0-0.5,0-0.8,0v8.6l0.2,0.2c0.1-0.2,0.2-0.4,0.3-0.6
	c1-1.2,2-2.3,3-3.4c0.2-0.2,0.4-0.3,0.6-0.4c1.7,0,3.4,0,5.2,0c0,0.4,0,0.7,0,1.1c0,4.7-0.1,9.3,0,14.1c0.3,1.7-0.5,3.5-2,4.4
	C124.8,119.3,124,120.1,123.1,120.9L123.1,120.9z M177,120.9h24v-8.1c-1.3,1.3-2.7,2.5-4,3.6c-0.3,0.3-0.7,0.4-1.1,0.5
	c-2.2,0-4.5,0-6.7,0c-0.7,0-0.9-0.2-0.9-0.9c0-4.7,0.1-9.3,0-14.1c-0.2-1.9,0.5-3.7,2-4.9c0.8-0.7,1.6-1.5,2.3-2.3h-15.5
	c0.2,0.3,0.4,0.5,0.5,0.6c1.1,1.1,2.1,2.1,3.2,3.3c0.3,0.3,0.5,0.7,0.5,1.2c0,5.5,0,11,0,16.5c0,0.6-0.2,1.1-0.7,1.5
	C179.4,118.7,178.3,119.8,177,120.9L177,120.9z M219.3,94.7h-15.5c1.3,1.3,2.6,2.6,3.8,3.9c0.3,0.3,0.4,0.7,0.5,1.1
	c0,5.6,0,11.3,0,16.9c0,0.3-0.2,0.6-0.4,0.9c-1,1-2.1,1.9-3.1,2.8c-0.2,0.2-0.4,0.4-0.7,0.7h2.7c6.8,0,13.6,0,20.4,0
	c0.8,0,1-0.2,1-1c0-2.1,0-4.3,0-6.4c0-0.2,0-0.4-0.1-0.8c-1.3,1.3-2.7,2.5-4,3.6c-0.3,0.3-0.7,0.4-1.1,0.4c-2.2,0-4.5,0-6.7,0
	c-0.8,0-0.9-0.3-0.9-0.9c0-5.3,0-10.7,0-16.1c0-0.5,0.2-1,0.6-1.3C216.9,97.3,218.1,96.1,219.3,94.7L219.3,94.7z"/>
<path class="st1" d="M42.8,155.8c0.9-0.9,1.8-1.8,2.8-2.6c1.2-0.9,1.9-2.3,1.7-3.8c-0.1-4.7,0-9.5,0-14.2c0-0.6-0.2-1.3-0.7-1.7
	c-1.3-1.2-2.5-2.5-3.9-3.9c0.4,0,0.7,0,1,0c6.7,0,13.5-0.1,20.2,0c4.9,0.1,11.3,3.4,12.3,10.6c0.4,2.6,0.2,5.2-0.6,7.7
	c-1.5,4.5-4.9,6.9-9.3,7.8c-1.3,0.3-2.7,0.4-4,0.4c-6.1,0-12.3,0-18.4,0h-1L42.8,155.8z M56.1,151.5c1.6,0.1,3.2,0.1,4.8,0
	c2.8-0.1,5.2-1.9,6.2-4.5c0.9-2.3,1-4.7,0.4-7.1c-0.3-1.3-0.9-2.4-1.8-3.4c-2.7-2.8-6.1-2.7-9.7-2.6V151.5z"/>
<path class="st1" d="M110.5,156h-6c-0.2,0-0.4,0-0.6,0c-2,0.3-4-0.4-5.3-1.9c-1.4-1.4-2.4-3.1-2.9-5c-0.3-0.9-0.7-1.7-1.1-2.4
	c-0.1-0.2-0.4-0.3-0.6-0.3c-1.4,0-2.9,0-4.5,0c0.1,0.8,0.1,1.6,0,2.5c-0.4,2,0.4,4,2.2,5c0.8,0.6,1.6,1.3,2.3,2.1H77.2
	c0.3-0.3,0.5-0.5,0.6-0.6c1.2-1,2.4-2,3.5-3c0.3-0.3,0.4-0.6,0.5-1c0-5.5,0-11,0-16.5c0-0.4-0.2-0.8-0.5-1.1
	c-1.2-1.2-2.4-2.3-3.6-3.5c-0.2-0.2-0.3-0.3-0.6-0.6c0.4,0,0.6,0,0.9,0h20.3c4.2,0,7.8,3.2,8.1,7.4c0.2,1.7,0,3.4-0.6,5
	c-0.9,2-2.6,3.4-4.6,4c0,0.1,0,0.1,0,0.2c1.6,0.6,2.7,2,2.9,3.7c0.3,1.2,1.1,2.3,2.2,3c1.2,0.8,2.4,1.7,3.6,2.5l0.7,0.5L110.5,156z
	 M89.5,134.4v7.1c2,0,3.9,0,5.9,0c0.5,0,0.9-0.1,1.3-0.3c1.2-0.3,2.1-1.2,2.4-2.4c0.4-1.9-0.7-3.8-2.7-4.3c-0.3-0.1-0.5-0.1-0.8-0.1
	C93.7,134.3,91.7,134.4,89.5,134.4z"/>
<path class="st1" d="M174.8,129v9.7c-0.4-0.4-0.6-0.7-0.8-0.9c-2.8-2.9-6-4.7-10.1-4.5c-4.1,0-7.7,3-8.4,7
	c-1.1,4.3,1.1,8.7,5.1,10.5c1.7,0.7,3.6,0.8,5.3,0.1c0.7-0.2,1.1-0.8,1.1-1.5c0.4-2.1-0.5-4.2-2.2-5.4c-0.7-0.6-1.4-1.2-2.1-1.9
	l0.2-0.2h17.1c-0.2,0.3-0.3,0.4-0.5,0.6c-1.1,1.1-2.3,2.2-3.4,3.4c-0.2,0.3-0.4,0.6-0.4,1c0,2.8,0,5.6,0,8.4c0,0.3,0,0.7,0,1.2
	c-0.4-0.3-0.6-0.5-0.9-0.7c-0.9-0.8-1.9-1.7-2.8-2.5c-0.2-0.3-0.7-0.3-0.9,0c0,0,0,0,0,0c-0.5,0.4-1.1,0.7-1.7,1
	c-5.8,3.4-11.5,2.8-17.1-0.4c-6.2-3.6-8.2-11.5-4.6-17.7c0.1-0.2,0.2-0.4,0.3-0.6c2.1-3.1,5.3-5.3,8.9-6.1c4.8-1.4,10-0.8,14.5,1.5
	c0.3,0.1,0.6,0.1,0.9-0.1C173,130.3,173.8,129.7,174.8,129z"/>
<path class="st1" d="M184.1,157.1v-10.7l0.7,0.6c3.6,3.1,8.3,4.9,13.1,4.8c1.2-0.1,2.5-0.3,3.6-0.8c1.1-0.4,1.7-1.7,1.2-2.8
	c0-0.1-0.1-0.1-0.1-0.2c-0.4-0.9-1.2-1.1-2-1.2c-2.5-0.2-4.9-0.4-7.4-0.8c-1.9-0.1-3.8-0.6-5.5-1.5c-2.7-1.5-4.3-4.5-4-7.6
	c0.2-3,2.1-5.6,5-6.7c4.4-2,9.5-2,14-0.1c0.8,0.3,1.5,0.6,2.3,1c0.3,0.2,0.7,0.1,0.9-0.2c0,0,0,0,0,0c0.7-0.8,1.5-1.5,2.3-2.3
	c0,0,0.1,0,0.2-0.1v9.3c-0.2-0.1-0.4-0.3-0.6-0.4c-1.7-1.5-3.6-2.7-5.7-3.5c-2.6-1-5.4-1-8-0.1c-1,0.2-1.7,1-1.7,2
	c0,1,0.6,1.8,1.5,2.2c1.9,0.9,3.9,1.4,6,1.6c2.1,0.2,4.2,0.6,6.3,1.3c3.6,1.3,5.7,5.1,4.9,8.9c-0.3,1.8-1.4,3.4-3,4.4
	c-2.4,1.5-5.2,2.3-8,2.3c-3.9,0.1-7.7-0.6-11.3-2.1c-0.4-0.1-0.7-0.1-1.1,0.1c-1,0.6-1.9,1.3-2.9,2
	C184.7,156.8,184.5,156.9,184.1,157.1z"/>
<path class="st1" d="M130.6,129.5H144c-0.3,0.3-0.4,0.5-0.6,0.7c-1.1,1.1-2.2,2.3-3.3,3.4c-0.4,0.3-0.6,0.8-0.6,1.3
	c0,3.6,0,7.3,0,10.9c-0.1,4.9-3.2,10.2-9.9,10.6c-3.6,0.3-7.2-0.3-10.4-1.8c-3.7-1.7-6-5.4-5.8-9.4c0-3.4,0-6.9,0-10.3
	c0-0.5-0.2-1-0.5-1.3c-1.1-1.2-2.2-2.4-3.3-3.5c-0.1-0.1-0.3-0.3-0.5-0.5h17.6c-0.3,0.3-0.5,0.6-0.7,0.8c-1.1,1.1-2.3,2.3-3.4,3.4
	c-0.3,0.3-0.4,0.6-0.4,1c0,3.6,0,7.2,0,10.8c-0.1,1.7,0.9,3.3,2.5,4c2.2,1.1,4.8,1.4,7.2,0.7c1.9-0.5,3.2-2.2,3.2-4.2
	c0-3.8,0-7.6,0-11.4c0-0.4-0.2-0.7-0.4-1c-1-1.1-2.1-2.2-3.2-3.3C131.2,130.2,131,129.9,130.6,129.5z"/>
<path class="st0" d="M21,120.9c1.2-1.1,2.3-2.2,3.3-3.1c0.4-0.4,0.7-0.9,0.7-1.5c0-5.3,0-10.5,0-15.8c0-0.5-0.2-0.9-0.5-1.3
	c-0.9-1.2-1.9-2.3-2.9-3.5c-0.2-0.2-0.4-0.5-0.6-0.8h1c6.1,0,12.1,0,18.1,0c2.6-0.1,5.1,1.1,6.7,3.1c1.7,2.3,2,5.4,0.7,8
	c-0.4,0.8-1,1.4-1.6,2.1l0.7,0.5c4.4,2.7,3.4,9.1-0.5,11.2c-1.6,0.9-3.5,1.4-5.3,1.4c-6.3,0-12.7,0-19,0
	C21.5,121,21.4,120.9,21,120.9z M33.2,110.1v6.8h0.5c1.6,0,3.3,0,4.9,0c1.7-0.1,3.1-1.6,3-3.3c0,0,0,0,0-0.1c0.2-1.7-1-3.2-2.7-3.5
	C36.9,110,35.1,110.1,33.2,110.1L33.2,110.1z M33,102.5c0,0.9,0,1.8,0,2.7c0,0.5,0.1,0.7,0.6,0.7c1.3,0,2.6,0,3.8,0
	c0.5,0,1.1-0.2,1.5-0.5c1.2-1.1,1.6-2.9,1-4.4c-0.4-1.2-1.4-1.9-2.7-1.9c-1.2,0-2.5,0-3.7,0c-0.5,0-0.7,0.2-0.7,0.7
	C33.1,100.7,33,101.6,33,102.5z"/>
<path class="st0" d="M101.3,120.9H85.2c0.8-0.8,1.7-1.5,2.6-2.2c1.5-0.9,2.3-2.6,2-4.4c-0.1-4.8,0-9.6,0-14.4c0-0.6-0.2-1.1-0.7-1.5
	c-1.3-1.3-2.4-2.6-3.7-3.9c0.2,0,0.4,0,0.7,0h19.7c4.5-0.1,8.2,3.4,8.3,7.8c0,0.1,0,0.1,0,0.2c0.1,2.8-0.5,5.3-2.8,7.1
	c-0.8,0.5-1.7,1-2.6,1.4c0.5,0.2,1,0.6,1.5,0.9c0.6,0.5,1.1,1.1,1.3,1.9c0.4,1.9,1.7,3.6,3.4,4.6c1.1,0.7,2.2,1.5,3.2,2.4
	c-0.3,0-0.6,0-0.9,0c-2.1,0-4.2-0.1-6.3,0c-1.8,0.1-3.6-0.7-4.7-2.1c-1.4-1.3-2.3-3.1-2.7-5c-0.1-0.4-0.2-0.8-0.4-1.2
	c-0.3-0.9-1.1-1.4-2.1-1.3c-1.1,0.1-2.2,0-3.3,0c-0.5,0-0.7,0.2-0.7,0.7c0,1.5,0,2.9,0,4.4c0,0.4,0.2,0.7,0.5,0.9
	c1.2,1.1,2.5,2.3,3.7,3.4L101.3,120.9z M97.2,103L97.2,103c0,1,0,2.1,0,3.1c0,0.2,0.3,0.6,0.5,0.6c2,0,4,0,6-0.1
	c1.4,0,2.6-0.9,3.1-2.1c0.7-1.9-0.2-4.1-2.1-4.8c-0.5-0.2-1-0.3-1.5-0.2c-1.8-0.1-3.6,0-5.4,0c-0.5,0-0.6,0.2-0.6,0.6
	C97.2,101,97.2,102,97.2,103L97.2,103z"/>
<path class="st0" d="M83.4,120.9H68c0.2-0.3,0.3-0.5,0.5-0.6c0.9-0.9,1.7-1.8,2.6-2.7c0.3-0.3,0.4-0.7,0.2-1
	c-0.9-2.3-0.9-2.3-3.4-2.3s-5,0-7.5,0c-0.4-0.1-0.9,0.2-1,0.6c-0.8,2.3-0.8,2.3,1,3.9l2.5,2.2H49.5c0.3-0.3,0.5-0.5,0.7-0.7
	c0.9-0.9,1.9-1.8,2.8-2.8c0.2-0.2,0.4-0.5,0.5-0.8c3-7,5.9-14,8.8-21.1c0.2-0.6,0.7-1,1.3-0.8c1.8,0,3.6,0,5.3,0
	c0.6-0.1,1.2,0.3,1.3,0.9c3.2,7,6.3,14,9.6,21c0.6,1,1.3,1.9,2.1,2.7C82.3,119.7,82.8,120.2,83.4,120.9z M68.5,109.7l-3.7-8.6h-0.2
	l-3.2,8.5L68.5,109.7z"/>
<path class="st0" d="M166.3,101.8v11.1c-1.1-0.9-2.1-1.8-3.1-2.5c-0.3-0.3-0.8-0.4-1.2-0.4c-1,0-2.1,0-3.1,0c-0.4,0-0.6,0-0.6,0.5
	c0,2,0,4.1,0,6.2c0.3,0,0.6,0,0.9,0c3,0,6,0,9,0c0.5,0,0.9-0.2,1.2-0.5c1.3-1.1,2.5-2.3,3.8-3.6v8.3h-25.5c0.2-0.3,0.4-0.5,0.6-0.7
	c1-1,2-2,2.9-3.1c0.3-0.3,0.4-0.7,0.5-1.2c0-5.5,0-11,0-16.5c0-0.4-0.2-0.8-0.5-1.1c-1-1.1-2-2.1-3-3.1c-0.1-0.1-0.3-0.3-0.5-0.5
	h25.5v8.7c-0.6-0.7-1-1.1-1.5-1.6c-0.8-0.9-1.6-1.7-2.5-2.5c-0.2-0.2-0.5-0.4-0.8-0.4c-3.3,0-6.6,0-9.9,0c-0.1,0-0.2,0-0.3,0.1
	c0,0.2-0.1,0.4-0.1,0.7c0,1.7,0,3.5,0,5.2c0,0.6,0.1,0.8,0.7,0.8c1,0,2.1,0,3.1,0c0.4,0,0.7-0.2,0.9-0.4
	C164.2,104,165.3,103,166.3,101.8z"/>
<path class="st0" d="M123.2,120.9c0.8-0.8,1.7-1.6,2.6-2.3c1.5-1,2.3-2.7,2-4.4c-0.1-4.7,0-9.3,0-14.1c0-0.3,0-0.7,0-1.1
	c-1.8,0-3.5,0-5.2,0c-0.2,0.1-0.5,0.2-0.6,0.4c-1,1.1-2,2.3-3,3.4c-0.1,0.2-0.2,0.4-0.3,0.6l-0.2-0.2v-8.6c0.3,0,0.5,0,0.8,0h24.3
	c0.6,0,0.8,0.1,0.8,0.8c0,2.4,0,4.9,0,7.3c0,0.2,0,0.4,0,0.8c-1.2-1.3-2.4-2.6-3.5-3.8c-0.4-0.5-0.9-0.7-1.5-0.7c-1.5,0-3.1,0-4.7,0
	c0,0.4,0,0.7,0,1c0,5.3,0,10.7,0,16c0,0.5,0.2,1.1,0.6,1.4c1.1,1,2.1,2,3.2,3c0.1,0.1,0.2,0.3,0.3,0.4L123.2,120.9z"/>
<path class="st0" d="M177,120.9c1.3-1.1,2.4-2.2,3.6-3.2c0.5-0.3,0.7-0.9,0.7-1.5c0-5.5,0-11,0-16.5c0-0.4-0.2-0.8-0.5-1.2
	c-1-1.1-2.1-2.2-3.2-3.3c-0.2-0.2-0.3-0.3-0.5-0.6h15.5c-0.7,0.8-1.4,1.6-2.2,2.3c-1.5,1.2-2.3,3-2,4.9c0.1,4.7,0,9.3,0,14.1
	c0,0.7,0.2,0.9,0.9,0.9c2.2,0,4.5,0,6.7,0c0.4,0,0.8-0.2,1.1-0.5c1.3-1.1,2.5-2.3,4-3.6v8.1L177,120.9z"/>
<path class="st0" d="M219.4,94.7c-1.3,1.3-2.5,2.6-3.7,3.8c-0.4,0.3-0.6,0.8-0.6,1.3c0,5.3,0,10.7,0,16.1c0,0.7,0.1,1,0.9,0.9
	c2.2,0,4.5,0,6.7,0c0.4,0,0.8-0.2,1.1-0.4c1.3-1.1,2.6-2.4,4-3.6c0,0.3,0.1,0.6,0.1,0.8c0,2.1,0,4.3,0,6.4c0,0.7-0.2,1-1,1
	c-6.8,0-13.6,0-20.4,0h-2.7c0.3-0.3,0.5-0.5,0.7-0.7c1.1-0.9,2.1-1.9,3.1-2.8c0.2-0.2,0.4-0.5,0.4-0.9c0-5.6,0-11.3,0-16.9
	c0-0.4-0.2-0.8-0.5-1.1c-1.2-1.3-2.4-2.5-3.8-3.9L219.4,94.7z"/>
<path class="st0" d="M56.1,151.5V134c3.5-0.1,7-0.3,9.7,2.6c0.9,0.9,1.5,2.1,1.8,3.4c0.6,2.4,0.4,4.8-0.4,7.1
	c-1,2.6-3.4,4.4-6.2,4.5C59.3,151.6,57.7,151.6,56.1,151.5z"/>
<path class="st0" d="M89.5,134.4c2.1,0,4.2-0.1,6.2,0c2,0.1,3.5,1.7,3.5,3.7c0,0.2,0,0.5-0.1,0.7c-0.3,1.2-1.2,2.1-2.4,2.4
	c-0.4,0.2-0.9,0.3-1.3,0.3c-1.9,0-3.9,0-5.9,0L89.5,134.4z"/>
<path class="st1" d="M33.1,110.1c1.9,0,3.8-0.1,5.6,0c1.7,0.2,2.9,1.8,2.7,3.5c0.1,1.7-1.2,3.2-2.9,3.3c0,0,0,0-0.1,0
	c-1.6,0.1-3.2,0-4.9,0h-0.5V110.1z"/>
<path class="st1" d="M33,102.5c0-0.9,0-1.8,0-2.7c0-0.5,0.1-0.7,0.7-0.7c1.2,0,2.5,0,3.7,0c1.2-0.1,2.3,0.7,2.7,1.9
	c0.6,1.5,0.2,3.3-1,4.4c-0.4,0.3-1,0.5-1.5,0.5c-1.3,0.1-2.6,0-3.8,0c-0.5,0-0.7-0.2-0.6-0.7C33.1,104.4,33,103.4,33,102.5z"/>
<path class="st1" d="M97.2,103c0-1,0-2,0-3c0-0.5,0.1-0.6,0.6-0.6c1.8,0,3.6,0,5.4,0c2.1-0.1,3.8,1.5,3.9,3.6c0,0.5-0.1,1-0.2,1.5
	c-0.5,1.3-1.8,2.1-3.1,2.1c-2,0.2-4,0.1-6,0.1c-0.2,0-0.5-0.4-0.5-0.6C97.2,105,97.2,104,97.2,103L97.2,103z"/>
<path class="st1" d="M68.5,109.7h-7.1l3.2-8.5h0.2L68.5,109.7z"/>
</svg>
