<?xml version="1.0" encoding="utf-8"?>
<!-- Generator: Adobe Illustrator 21.1.0, SVG Export Plug-In . SVG Version: 6.00 Build 0)  -->
<svg version="1.1" id="Layer_1" xmlns="http://www.w3.org/2000/svg" xmlns:xlink="http://www.w3.org/1999/xlink" x="0px" y="0px"
	 viewBox="0 0 250 250" style="enable-background:new 0 0 250 250;" xml:space="preserve">
<style type="text/css">
	.st0{fill:#58601C;}
	.st1{fill:#738C38;}
	.st2{fill:#5B5825;}
	.st3{fill:#673366;stroke:#5D2A5E;stroke-width:0.25;stroke-miterlimit:10;}
	.st4{opacity:0.76;fill:#FFFFFF;enable-background:new    ;}
	.st5{fill:#673366;}
	.st6{fill:#FFFFFF;}
	.st7{fill:#2D0F2D;}
	.st8{fill:#FF9900;}
	.st9{fill:#5D5D27;}
</style>
<title>Grocery</title>
<path class="st0" d="M52.8,126.7c0,0-6.2-11.2-15-14.3c0,0-2.1,0.8-0.2,2.9c0,0,9.7,5.4,13.5,14.1l3,2.2L52.8,126.7z"/>
<path class="st1" d="M48.1,154.6c0,0-4.3,11-36.2,17.3c0,0-6.3,2.7,0.6,5.6c0,0,15.2,2.7,36.7-17.2l5.2-8.9L48.1,154.6z"/>
<path class="st2" d="M49.1,157.7c0,0-16.5,18.2-36.5,16.5c0,0-6.9-1.7-0.8,3.6c0,0,20.7,4,38.3-18.2l1.7-4.7L49.1,157.7z"/>
<path class="st1" d="M47.5,149.7c0,0-9.4,7.1-40-4.2c0,0-6.8-1-2.4,5.1c0,0,11.5,10.3,40.3,4.5l9.2-4.9L47.5,149.7z"/>
<path class="st2" d="M46.7,153c0,0-23.6,6.9-39.7-5.1c0,0-5-5.1-2.6,2.7c0,0,15.6,14.2,42.1,4.5l3.9-3.1L46.7,153z"/>
<path class="st1" d="M49.6,148.6c0,0-7.7,1.7-23-13.8c0,0-3.8-2.5-2.9,2.5c0,0,4.1,9.6,23.2,14.1l6.9-0.4L49.6,148.6z"/>
<path class="st2" d="M48.3,150.3c0,0-16.2-2.4-22.7-14.3c0,0-1.6-4.5-2.3,0.9c0,0,5.5,13.1,24.3,14.7l3.2-0.8L48.3,150.3z"/>
<path class="st1" d="M49.5,157.1c0,0,2.7,7.6-9.8,25.1c0,0-1.8,4.2,2.7,2.7c0,0,8.3-5.3,10.1-25.3l-1.3-7L49.5,157.1z"/>
<path class="st2" d="M51.3,158.3c0,0-0.1,16.8-10.3,24.8c0,0-4,2.2,1.2,2.2c0,0,11.4-7.2,10.4-26.5l-1.2-3.2L51.3,158.3z"/>
<path class="st1" d="M51.6,156.4c0,0,4.2,3.5,4.5,17.2c0,0,0.6,2.9,2.3,0.7c0,0,2.2-5.6-4.4-17.4l-3.3-3.6L51.6,156.4z"/>
<path class="st2" d="M53,156.5c0,0,6.2,9.6,4.2,17.2c0,0-1.2,2.4,1.4,0.9c0,0,3-7.5-4.7-18.2L52,155L53,156.5z"/>
<ellipse transform="matrix(0.8215 -0.5701 0.5701 0.8215 -67.7211 61.2208)" class="st3" cx="63.9" cy="138.8" rx="24.5" ry="18"/>
<ellipse transform="matrix(0.291 -0.9567 0.9567 0.291 -96.3005 194.6748)" class="st4" cx="83.2" cy="162.3" rx="19.9" ry="24.5"/>
<path class="st5" d="M107,170.2c-3.2,10.6-16.4,16-29.4,12c-13-4-21-15.8-17.7-26.4s16.4-16,29.4-12
	C102.3,147.9,110.2,159.7,107,170.2z"/>
<path class="st6" d="M74.9,145.9c5.3-3.2,12.1-2.9,17.1,0.7C86.8,143.9,80.5,143.6,74.9,145.9z"/>
<path class="st6" d="M45.7,139.8c0,0,2.7-13.9,16.9-16.4C54.8,126.1,48.6,132.1,45.7,139.8z"/>
<ellipse transform="matrix(0.7597 -0.6502 0.6502 0.7597 -61.5698 82.5698)" class="st7" cx="80.9" cy="124.6" rx="2" ry="3.3"/>
<ellipse transform="matrix(0.2912 -0.9567 0.9567 0.2912 -90.4032 221.3318)" class="st7" cx="104.2" cy="171.7" rx="3.3" ry="2"/>
<path class="st8" d="M75.5,87.7c4.1,1,7,2.3,8.7,3.7c2.4,2,3.7,5,3.6,8.1c0.1,3.4-1.4,6.6-4,8.7c-3.2,2.8-7.9,4.2-14,4.2h-22v-1.3
	c1.4,0.1,2.8-0.1,4.1-0.6c0.6-0.3,1.2-0.8,1.5-1.5c0.4-1.5,0.5-3.2,0.4-4.7V74c0.1-1.6,0-3.2-0.4-4.8c-0.3-0.7-0.9-1.2-1.5-1.5
	c-1.3-0.5-2.6-0.7-4-0.6v-1.3h20.7c5,0,8.5,0.5,10.6,1.4c4,1.9,6.6,5.9,6.7,10.3c0,2.2-0.8,4.3-2.3,6C82,85.3,79.3,86.7,75.5,87.7z
	 M63.9,89.4v15v1.7c-0.1,1,0.2,2,0.9,2.8c0.7,0.7,1.7,1,2.7,0.9c1.7,0,3.3-0.4,4.7-1.2c1.4-0.8,2.6-2.1,3.3-3.5
	c0.8-1.6,1.2-3.4,1.1-5.2c0-2-0.5-4.1-1.4-5.9c-0.8-1.6-2.2-2.9-3.9-3.6C68.9,89.6,66.4,89.3,63.9,89.4L63.9,89.4z M63.9,86.8
	c2.3,0.1,4.6-0.2,6.7-1.1c1.4-0.7,2.5-1.8,3.3-3.1c1.5-3.2,1.5-7,0-10.2c-0.7-1.3-1.9-2.4-3.2-3c-2.2-0.8-4.5-1.2-6.8-1L63.9,86.8z"
	/>
<path class="st8" d="M117.6,95.2h-16.4c0,3.6,1.1,7.2,3.2,10.1c1.2,1.8,3.2,2.8,5.3,2.9c1.3,0,2.5-0.4,3.5-1.1
	c1.4-1.2,2.5-2.6,3.4-4.1l1.1,0.8c-1.1,2.9-3,5.5-5.3,7.5c-2,1.5-4.4,2.3-6.8,2.2c-4.1,0.2-8-1.9-10.1-5.5c-1.9-3.3-2.9-7.2-2.7-11
	c0-5.3,1.3-9.6,4-12.8c2.3-3,5.8-4.7,9.5-4.8c3.1,0,6,1.5,7.9,4C116.2,86,117.4,90,117.6,95.2z M109.7,92.9c0.1-2.5-0.1-5.1-0.6-7.6
	c-0.3-1.2-0.9-2.3-1.7-3.1c-0.5-0.4-1.1-0.6-1.8-0.6c-1.1,0.1-2.2,0.7-2.7,1.8c-1.4,2.6-2,5.5-1.9,8.4v1.2L109.7,92.9z"/>
<path class="st8" d="M133,65.8v40c-0.2,1.5,0.1,3,0.7,4.3c0.8,0.7,1.8,1.1,2.9,1.1v1.2h-16.1v-1.2c1.1,0,2.2-0.4,2.9-1.2
	c0.4-0.5,0.6-1.9,0.6-4.2V72.4c0.2-1.5-0.1-3-0.7-4.3c-0.8-0.7-1.8-1.1-2.9-1.1v-1.3L133,65.8z"/>
<path class="st8" d="M177.3,99.1H162l-1.8,4.5c-0.5,1.2-0.8,2.5-0.9,3.7c-0.1,1.2,0.5,2.3,1.5,2.9c1.4,0.5,2.8,0.8,4.3,0.8v1.3
	h-14.4v-1.3c1.5-0.2,2.8-1,3.8-2.1c1.6-2.2,2.8-4.5,3.7-7l15.5-37.2h0.6l15.6,38.3c1.5,3.6,2.7,5.9,3.7,6.9c0.8,0.8,1.9,1.2,3.1,1.2
	v1.3h-21v-1.3h0.9c1.2,0.1,2.5-0.2,3.5-0.8c0.5-0.4,0.7-1,0.7-1.6c0-0.5-0.1-0.9-0.2-1.3c0-0.2-0.3-1.1-1-2.6L177.3,99.1z
	 M176.2,96.6l-6.5-16.1l-6.7,16.1H176.2z"/>
<path class="st8" d="M211.2,80.3v25.5c-0.2,1.5,0.1,3,0.7,4.3c0.8,0.7,1.8,1.1,2.9,1.1v1.2h-16.1v-1.2c1.1,0,2.2-0.4,2.9-1.2
	c0.4-0.5,0.6-1.9,0.6-4.2V87c0.2-1.5-0.1-3-0.7-4.3c-0.8-0.7-1.8-1.1-2.9-1.1v-1.3L211.2,80.3z M206.8,64.7c1.3,0,2.6,0.6,3.5,1.6
	c1,1,1.5,2.4,1.4,3.8c0,1.4-0.5,2.7-1.5,3.7c-0.9,1-2.2,1.6-3.5,1.6c-1.3,0-2.6-0.6-3.5-1.5c-0.9-1-1.5-2.4-1.4-3.7
	c0-1.4,0.5-2.8,1.4-3.8C204.2,65.2,205.4,64.7,206.8,64.7z"/>
<path class="st8" d="M230.2,80.3v7.3c1.3-2.5,3.1-4.8,5.2-6.7c1.2-1,2.7-1.6,4.3-1.6c1.1,0,2.1,0.4,2.9,1.2c0.8,0.9,1.1,2.1,1.1,3.4
	c0.1,1.3-0.3,2.5-1,3.6c-0.6,0.8-1.5,1.3-2.5,1.3c-1.1,0-2.2-0.4-2.9-1.2c-0.5-0.5-1-0.9-1.5-1.3c-0.2-0.1-0.5-0.2-0.7-0.2
	c-0.7,0-1.3,0.3-1.8,0.8c-1,0.9-1.6,2.1-2,3.3c-0.7,2.4-1.1,4.9-1,7.4v7.4v1.9c0,0.8,0,1.7,0.2,2.5c0.2,0.6,0.6,1,1.1,1.3
	c0.8,0.4,1.7,0.5,2.5,0.5v1.2H218v-1.2c1,0,2-0.4,2.7-1.1c0.5-0.7,0.7-2.4,0.7-5.2V87.1c0.1-1.2,0-2.4-0.3-3.5
	c-0.2-0.6-0.5-1.1-0.9-1.4c-0.7-0.4-1.4-0.6-2.1-0.6v-1.3L230.2,80.3z"/>
<path class="st9" d="M125.7,140v18.9c-0.1,1.2,0.1,2.4,0.6,3.4c0.9,0.8,2.1,1.2,3.3,1v1.1h-15.5v-1.1c0.9,0,1.7-0.1,2.5-0.4
	c0.5-0.2,0.8-0.6,1-1.1c0.2-0.9,0.3-1.9,0.3-2.9V140h-3.8v-2.9h3.8v-2v-1.3c-0.1-2.6,1-5.2,3-7c2.2-1.9,5.1-2.9,8-2.8
	c1.8-0.1,3.6,0.3,5.1,1.3c1,0.7,1.6,1.8,1.7,3c0,0.9-0.4,1.7-1,2.3c-0.8,0.7-1.7,1-2.8,1c-0.8,0-1.7-0.2-2.3-0.8
	c-0.5-0.4-0.8-1.1-0.9-1.7c0-0.4,0.1-0.7,0.2-1.1c0.1-0.3,0.1-0.6,0.1-0.9c0-0.3-0.1-0.7-0.3-0.9c-0.3-0.3-0.7-0.4-1.1-0.4
	c-0.5,0-1,0.3-1.3,0.7c-0.4,0.7-0.6,1.5-0.5,2.2v5.1v3.5h3.9v2.9L125.7,140z"/>
<path class="st9" d="M145.8,136.4c2.3,0,4.5,0.6,6.4,1.8c2,1.2,3.6,3.1,4.5,5.2c1,2.3,1.6,4.9,1.5,7.4c0.1,3.5-0.9,6.9-2.8,9.7
	c-2.2,3.1-5.7,4.9-9.5,4.7c-3.6,0.2-7-1.4-9.1-4.3c-2.1-2.9-3.3-6.4-3.2-10c-0.1-3.7,1.1-7.3,3.3-10.2
	C138.9,137.9,142.2,136.2,145.8,136.4z M145.9,138.4c-0.9,0-1.8,0.4-2.5,1.1c-0.9,1.3-1.3,2.9-1.3,4.4c-0.2,2.2-0.3,5.3-0.3,9.2
	c0,1.9,0.1,3.9,0.4,5.8c0.1,1.2,0.6,2.3,1.3,3.1c1.1,1.3,3.1,1.4,4.4,0.3c0.8-0.7,1.3-1.7,1.5-2.8c0.5-3.7,0.7-7.4,0.6-11.2
	c0.1-2.3-0.1-4.6-0.5-6.8c-0.2-1-0.8-2-1.6-2.7C147.3,138.6,146.6,138.4,145.9,138.4L145.9,138.4z"/>
<path class="st9" d="M174.6,136.4c2.3,0,4.5,0.6,6.4,1.8c2,1.2,3.6,3.1,4.5,5.2c1,2.3,1.6,4.9,1.5,7.4c0.1,3.5-0.9,6.9-2.8,9.7
	c-2.2,3.1-5.7,4.9-9.5,4.7c-3.6,0.2-7-1.4-9.1-4.3c-2.1-2.9-3.3-6.4-3.2-10c-0.1-3.7,1.1-7.3,3.3-10.2
	C167.7,137.9,171.1,136.2,174.6,136.4z M174.7,138.4c-0.9,0-1.8,0.4-2.5,1.1c-0.9,1.3-1.3,2.9-1.3,4.4c-0.2,2.2-0.3,5.3-0.3,9.2
	c0,1.9,0.1,3.9,0.4,5.8c0.1,1.2,0.6,2.3,1.3,3.1c1.1,1.3,3.1,1.4,4.4,0.3c0.8-0.7,1.3-1.7,1.5-2.8c0.5-3.7,0.7-7.4,0.6-11.2
	c0.1-2.3-0.1-4.6-0.5-6.8c-0.2-1-0.8-2-1.6-2.7C176.1,138.6,175.5,138.4,174.7,138.4L174.7,138.4z"/>
<path class="st9" d="M216.6,124.9v31.3c0,1.3,0,2.5,0.2,3.8c0.1,0.6,0.4,1.1,0.9,1.4c0.7,0.4,1.4,0.6,2.2,0.6v1l-11.1,2.2v-4.3
	c-1,1.3-2.2,2.5-3.6,3.4c-1.1,0.6-2.3,0.9-3.5,0.9c-3.3,0-6.4-1.7-8-4.7c-1.7-2.8-2.5-6.1-2.4-9.3c0-2.7,0.5-5.4,1.5-7.9
	c0.8-2.1,2.2-3.9,4-5.3c1.6-1.1,3.5-1.8,5.5-1.8c1.2,0,2.3,0.2,3.3,0.8c1.2,0.7,2.3,1.6,3.1,2.7v-8.2c0.1-1.3,0-2.5-0.3-3.8
	c-0.2-0.5-0.5-1-1-1.3c-0.8-0.3-1.7-0.5-2.5-0.4v-1.2L216.6,124.9z M208.7,143.4c-1.4-2.8-3.1-4.1-5.1-4.1c-0.6,0-1.2,0.2-1.7,0.6
	c-0.8,0.9-1.4,2-1.7,3.2c-0.5,2.3-0.7,4.6-0.7,7c-0.1,2.6,0.2,5.1,0.7,7.6c0.3,1.4,1,2.6,2,3.6c0.5,0.4,1.1,0.6,1.8,0.6
	c1.7,0,3.2-1.3,4.7-4V143.4z"/>
<path class="st9" d="M239.7,136.4l0.4,9.3h-1c-0.7-2.1-2-4.1-3.6-5.7c-1-0.9-2.3-1.5-3.7-1.5c-0.7,0-1.5,0.3-2,0.8
	c-0.5,0.5-0.8,1.1-0.8,1.9c0,0.6,0.2,1.1,0.6,1.5c1.5,1.6,3.2,2.9,5,4.1c2.1,1.3,3.9,3,5.5,4.9c0.9,1.3,1.3,2.9,1.3,4.5
	c0,1.5-0.4,3.1-1.1,4.5c-0.7,1.4-1.8,2.6-3.1,3.3c-1.3,0.8-2.9,1.2-4.4,1.2c-1.7-0.1-3.4-0.5-5-1.2c-0.4-0.2-0.7-0.3-1.1-0.4
	c-0.6,0-1.1,0.5-1.5,1.5h-0.9l-0.5-9.8h1c0.6,2.2,1.8,4.2,3.5,5.8c1.1,1.1,2.6,1.8,4.2,1.9c0.8,0,1.6-0.3,2.2-0.9
	c0.6-0.5,0.9-1.3,0.9-2.1c0-0.9-0.3-1.7-0.8-2.4c-1.1-1.2-2.4-2.2-3.8-3.1c-2-1.3-3.9-2.9-5.6-4.7c-1.2-1.5-1.9-3.4-1.9-5.3
	c0-2.1,0.7-4.1,2.1-5.7c1.5-1.7,3.8-2.7,6.1-2.5c1.5,0,2.9,0.4,4.1,1.1c0.4,0.2,0.8,0.4,1.2,0.4c0.3,0,0.6-0.1,0.8-0.2
	c0.4-0.4,0.7-0.8,1-1.2L239.7,136.4z"/>
</svg>
