<?xml version="1.0" encoding="utf-8"?>
<!-- Generator: Adobe Illustrator 21.1.0, SVG Export Plug-In . SVG Version: 6.00 Build 0)  -->
<svg version="1.1" id="Layer_1" xmlns="http://www.w3.org/2000/svg" xmlns:xlink="http://www.w3.org/1999/xlink" x="0px" y="0px"
	 viewBox="0 0 250 250" style="enable-background:new 0 0 250 250;" xml:space="preserve">
<style type="text/css">
	.st0{fill:#ED1B34;}
</style>
<title>Mass</title>
<path class="st0" d="M115,119.9l-1.9,4.2c-3,6.7-6,13.5-9,20.2c-0.1,0.3-0.4,0.6-0.8,0.5c-2.9,0-5.9,0-8.8,0c-0.4,0-0.5-0.1-0.6-0.5
	c-0.2-5.1-0.4-10.2-0.6-15.3c-0.1-2.8-0.2-5.5-0.3-8.3c0-0.3-0.1-0.6-0.2-0.8l-1.1,5.4c-1.3,6.3-2.5,12.6-3.8,18.9
	c-0.1,0.5-0.2,0.6-0.7,0.6c-2.9,0-5.8,0-8.7,0c-0.5,0-0.5-0.1-0.5-0.6c1.3-6.7,2.7-13.3,4-20c1.2-6.2,2.4-12.3,3.7-18.5
	c0.1-0.4,0.3-0.5,0.7-0.5c4.4,0,8.8,0,13.1,0c0.4,0,0.6,0.1,0.6,0.5c0.2,3.1,0.3,6.2,0.5,9.3c0.2,3.9,0.4,7.9,0.7,11.8
	c0.1,1.6,0.2,3.2,0.3,4.8c0,0.1,0,0.3,0,0.4c0.3-0.1,0.3-0.4,0.4-0.5c3.8-8.6,7.7-17.2,11.5-25.8c0.1-0.4,0.5-0.7,1-0.6
	c4.3,0,8.6,0,12.9,0c0.5,0,0.7,0.1,0.5,0.6c-1.6,8.2-3.3,16.3-4.9,24.5c-0.9,4.6-1.8,9.2-2.7,13.8c-0.1,0.5-0.3,0.7-0.8,0.7
	c-2.9,0-5.8,0-8.7,0c-0.5,0-0.5-0.1-0.5-0.6c1.5-7.6,3.1-15.3,4.6-22.9c0.1-0.5,0.2-0.9,0.3-1.4L115,119.9z"/>
<path class="st0" d="M5,144.8c0.4-2,0.8-4,1.2-6l4.3-21.5c0.8-3.9,1.5-7.8,2.3-11.7c0.1-0.4,0.2-0.5,0.6-0.5c6.9,0,13.8,0,20.8,0
	c2,0,3.9,0.3,5.8,0.9c4.3,1.3,6.8,5.8,5.6,10.1c-0.5,3-2.4,5.6-5,7.1c-0.3,0.2-0.3,0.3,0,0.5c2.7,1.8,3.5,4.4,3.2,7.5
	c-0.5,6.6-6.6,12-12.5,12.9c-2.2,0.4-4.4,0.5-6.7,0.5c-6.3,0-12.6,0-18.9,0L5,144.8z M24.2,128.2h-5.3c-0.3,0-0.5,0.1-0.6,0.4
	c-0.5,2.5-1,5-1.5,7.5c-0.1,0.4,0,0.5,0.4,0.5c3.5,0,7,0.1,10.5-0.1c2.8,0,5.2-2.1,5.6-4.9c0.3-1.1-0.2-2.4-1.3-2.8
	c-0.8-0.4-1.7-0.6-2.7-0.6L24.2,128.2z M25.1,120c1.5,0,2.9,0,4.4,0c1.2,0,2.4-0.2,3.5-0.7c1.2-0.5,2.1-1.5,2.4-2.8
	c0.4-1-0.1-2.2-1.1-2.6c-0.2-0.1-0.4-0.1-0.5-0.1c-0.7-0.2-1.4-0.3-2.2-0.3h-9.7c-0.4,0-0.5,0.1-0.6,0.5c-0.3,1.8-0.7,3.7-1.1,5.5
	c-0.1,0.5,0,0.6,0.5,0.6C22.1,120,23.7,120,25.1,120z"/>
<path class="st0" d="M199.5,125.9c1.5,0.9,2.5,2.5,2.6,4.2c0.1,1.2,0,2.4-0.2,3.5c-0.5,2.1-0.7,4.2-0.8,6.3c0,1.5,0.3,3,0.9,4.4
	c0.1,0.1,0.1,0.3,0.1,0.4h-11c-0.4,0-0.6-0.1-0.6-0.5c-0.2-2.1-0.2-4.2,0.2-6.3c0.3-1.6,0.7-3.2,0.8-4.8c0-0.4,0-0.8,0-1.2
	c0-0.8-0.6-1.4-1.3-1.6c-1-0.3-2-0.4-3.1-0.4c-2.7,0-5.5,0-8.3,0c-0.4,0-0.6,0.1-0.6,0.5c-0.9,4.5-1.8,9.1-2.7,13.6
	c-0.1,0.5-0.2,0.7-0.8,0.7c-3,0-6,0-9,0c-0.4,0-0.6,0-0.5-0.6c1.7-8.2,3.3-16.3,4.9-24.5c0.9-4.6,1.8-9.2,2.7-13.8
	c0.1-0.5,0.3-0.7,0.8-0.7c7,0,14.1,0,21.1,0c2.6-0.1,5.1,0.4,7.4,1.6c2.8,1.4,4.5,4.3,4.5,7.4c0.3,4.7-2.2,9.1-6.3,11.3L199.5,125.9
	z M187.7,113.5c-1.7,0-3.5,0-5.2,0c-0.4,0-0.5,0.1-0.6,0.5c-0.5,2.4-1,4.9-1.5,7.3c-0.1,0.5,0,0.6,0.5,0.6c2.9,0,5.8,0,8.7,0
	c0.8,0,1.6-0.1,2.4-0.2c1.8-0.2,3.3-1.3,4-3c0.2-0.6,0.4-1.3,0.5-1.9c0.2-1.2-0.5-2.3-1.5-2.8c-0.8-0.3-1.6-0.5-2.4-0.5L187.7,113.5
	z"/>
<path class="st0" d="M163.4,144.8h-1.3c-3.1,0-6.2,0-9.3,0c-0.5,0-0.6-0.1-0.7-0.6c-0.3-2.3-0.6-4.5-0.9-6.8c0-0.3-0.2-0.5-0.5-0.5
	c-4.4,0-8.9,0-13.3,0c-0.3,0-0.6,0.2-0.7,0.4l-4,6.9c-0.1,0.3-0.3,0.5-0.6,0.5h-10.5h-0.2c0-0.2,0.1-0.3,0.2-0.5l22.8-38.7
	c0.1-0.3,0.4-0.5,0.7-0.4c3.4,0,6.8,0,10.2,0c0.5,0,0.6,0.2,0.7,0.6c0.8,4.4,1.6,8.8,2.5,13.2l3.1,16.4c0.6,3.1,1.2,6.1,1.7,9.2
	C163.4,144.6,163.4,144.7,163.4,144.8z M148,117.2c-0.1,0.2-0.2,0.3-0.3,0.4c-2,3.6-3.9,7.1-5.9,10.7c-0.2,0.4-0.1,0.5,0.3,0.5
	c2.3,0,4.7,0,7,0c0.5,0,0.5-0.2,0.5-0.6c-0.3-2-0.6-4-0.9-6.1C148.5,120.5,148.3,118.9,148,117.2L148,117.2z"/>
<path class="st0" d="M227.3,105.2c5.7,0,11.4,0,17.1,0c0.6,0,0.6,0.2,0.5,0.7c-0.5,2.4-1,4.8-1.4,7.2c-0.1,0.5-0.3,0.6-0.8,0.6
	c-3.7,0-7.5,0-11.2,0c-0.5,0-0.7,0.1-0.8,0.7c-2,10-4,20-5.9,30c-0.1,0.4-0.2,0.5-0.6,0.5c-3.1,0-6.3,0-9.4,0c-0.4,0-0.5,0-0.4-0.5
	c1.8-9.2,3.7-18.4,5.5-27.5c0.2-0.8,0.3-1.7,0.5-2.5c0.1-0.5,0-0.6-0.5-0.6c-3.7,0-7.5,0-11.2,0c-0.7,0-0.7,0-0.6-0.7
	c0.5-2.4,0.9-4.8,1.4-7.2c0.1-0.4,0.3-0.6,0.7-0.6C215.8,105.2,221.5,105.2,227.3,105.2z"/>
<path class="st0" d="M48.6,144.8c-1.5,0-3.1,0-4.7,0c-0.4,0-0.6-0.1-0.5-0.5c1.8-9,3.6-18,5.3-27c0.8-3.8,1.5-7.6,2.2-11.4
	c0.1-0.5,0.3-0.7,0.8-0.7c3.1,0,6.1,0,9.2,0c0.5,0,0.6,0.1,0.5,0.6c-2.1,10.4-4.2,20.9-6.2,31.3c-0.5,2.3-0.9,4.7-1.3,7.1
	c-0.1,0.4-0.2,0.6-0.7,0.6C51.7,144.8,50.2,144.8,48.6,144.8z"/>
<path class="st0" d="M71,120.6c1.6,0,3.2,0,4.8,0c0.4,0,0.5,0.1,0.4,0.5c-0.7,3.2-1.3,6.5-1.9,9.7c-0.1,0.4-0.2,0.4-0.5,0.4h-9.5
	c-0.4,0-0.5-0.1-0.4-0.5c0.7-3.3,1.3-6.5,1.9-9.8c0.1-0.4,0.2-0.4,0.5-0.4L71,120.6z"/>
</svg>
