<?xml version="1.0" encoding="utf-8"?>
<!-- Generator: Adobe Illustrator 21.1.0, SVG Export Plug-In . SVG Version: 6.00 Build 0)  -->
<svg version="1.1" id="Layer_1" xmlns="http://www.w3.org/2000/svg" xmlns:xlink="http://www.w3.org/1999/xlink" x="0px" y="0px"
	 viewBox="0 0 250 250" style="enable-background:new 0 0 250 250;" xml:space="preserve">
<style type="text/css">
	.st0{fill:#C11304;}
</style>
<title>Grocery</title>
<g>
	<path class="st0" d="M131.5,105.5c0,0-0.2-1.1-0.3-1.1c-0.1-0.4-0.8-0.4-0.8-0.4c-4.9-0.1-9.8,0-14.6,0h-0.6l0,0l-0.4,0l-1.6,0.1
		c0,0-0.2,0.2-0.2,0.2c-0.2,0.2-0.2,0.3-0.2,0.8v0.1c0,0,0,0,0,0.1c-0.1,0.6-0.2,1.2-0.1,1.8c0,0.6,0,1.2-0.1,1.8l-0.1,1.1v0.1
		c0.2,0.5,0.3,1,0.2,1.5c-0.4-1.1-1-2.1-1.4-3.2c-0.1-0.2-0.1-0.4-0.2-0.6c0-0.2-0.1-0.3-0.1-0.5c-1.2-1.9-3.1-3.3-5.3-3.8
		c-3.3-0.8-6.7-1.1-10.1-0.7c-6.4,0.6-10.6,4.1-12.6,10.3c-1.4,5.2-1.8,10.7-1.1,16c0.3,4,1.8,7.9,4.1,11.2l0.1,0.1
		c0,0,7.5,4.7,16.5,3.2c4.4-0.6,8.2-3.5,9.8-7.6c0.1-0.1,0.1-0.3,0.2-0.4c0,1.2,0,2.3-0.1,3.5v0.6c0.2,3.3-1.5,5.5-5.3,6.5
		c-4.2,0.8-8.5,1-12.8,0.5c-2.8-0.2-5.6-0.7-8.4-1.3H86c-0.2-0.1-0.5-0.1-0.8,0c-0.5,0.2-0.7,0.7-0.5,1.2c0.4,2.7,0.8,5.5,1.1,8.3
		c0.1,0.6,0.4,1.1,0.9,1.5l0.1,0.1h0.1c1.5-0.1,3,0,4.5,0.3c1,0.2,2,0.3,3,0.4l2.7,0.2c2.9,0.2,6,0.4,9,0.4c2.7,0,5.3-0.3,7.8-0.7
		c3.3-0.4,6.5-1.4,9.5-2.9c1.2-0.7,2.2-1.5,3.1-2.4c0.2-0.2,0.3-0.4,0.5-0.6c0.1-0.1,0.1-0.1,0.2-0.2c2-2.3,3.2-5.1,3.8-8.3
		c0.4-3.1,0.5-6.3,0.3-9.5c0-8.8,0-17.6,0-26.4C131.4,106.4,131.5,105.9,131.5,105.5z M101.9,120.6c0.8-1.6,3.7-2.6,6.3-2
		c2.1,0.5,2.9,1.3,3.3,3.2c1.2,2.6,1,5.7-0.6,8.1c-0.8,1-1.9,1.6-3.2,1.7c-1.6,0.3-3.3-0.1-4.7-1.1l-0.1-0.1l-0.2-0.1
		c-0.4,0-0.6-0.2-0.8-0.7v-0.1C100.5,126.7,100.5,123.4,101.9,120.6z"/>
	<path class="st0" d="M51.7,110.1l-0.8-2c0,0-2.1-3.2-6-4.2c-3.8-1.1-7.7-1.3-11.5-0.6c-3.4,0.6-6.5,2.7-8.3,5.7l-0.7,2.1
		c0-0.6,0-1.2,0-1.8c-0.2-4.5-0.3-9.1,0-13.7v-0.1v-0.1c0-0.2-0.1-0.3-0.1-0.5v-0.1c0-0.7-0.7-1.3-1.4-1.2c-5.5,0.1-11.1,0-16.5,0
		c-0.4,0-0.8,0.1-1.1,0.4c-0.2,0.3-0.4,0.8-0.3,1.2c0,1.5,0,3.1,0,4.6v9.4c0,12.2,0,24.4,0,36.6c0,0.1,0,0.3,0,0.4
		c-0.1,0.6-0.2,1.6,1.1,1.9h4.4l11.1-0.1c1,0,1.6,0,2-0.4c0.4-0.4,0.4-1,0.4-2c0-1.6,0-3.2,0.1-4.9c0.5,0.8,0.9,1.6,1.1,2.5
		c0,0,0.6,1.3,1.7,2.3c0.2,0.2,0.3,0.4,0.5,0.6c2.1,2.4,5,2.8,7.8,3.1h0.1c0.8,0,1.6,0.1,2.4,0.1c2.3,0.1,4.5-0.3,6.5-0.9
		c4.1-1.4,6.8-4.5,8.2-9.4c1.5-6.3,2-12.8,1.4-19.2C53.6,116.4,52.9,113.2,51.7,110.1z M29.1,120.7h0.5c1.2-0.1,2.4,0.3,3.2,1.1
		c0.5,0.4,0.7,1,0.6,1.6v0.1v0.1c1.2,2.8,1.1,6.1-0.3,8.8c-0.6,0.8-1.4,1.4-2.4,1.5c-1.7,0.3-3.4-0.2-4.7-1.3
		c-2.1-1.9-1.9-4.3-1.6-7v-0.2c0.1-1.1,0.4-2.1,1-3C26.4,121.4,27.7,120.8,29.1,120.7z"/>
	<path class="st0" d="M244.2,127.5c0,0-0.2-0.6-0.2-0.6l-0.3-0.5c-1.9-2.7-4.9-4.3-8.2-4.4c-2-0.2-4.1-0.2-6.1-0.2
		c-1.2,0-2.3,0-3.5,0h-0.4c-0.6,0-1.2-0.1-1.8-0.4h-0.1h-0.1c-0.8,0.1-0.9-0.3-1.1-1.4c-0.2-1.1,0-1.7,0.7-2
		c0.9-0.5,1.8-0.7,2.7-0.7c1.4,0,2.9,0,4.2,0c3.8-0.2,7.5,0,11.3,0.5c0.4,0.1,0.8,0,1.2-0.2c0.3-0.3,0.5-0.8,0.4-1.3v-0.1
		c0-1.5,0-3.1,0-4.6c0-1.4,0-2.8,0-4.2c0-0.4,0-0.8,0-1.2v-0.5c0-0.4-0.1-0.7-0.2-0.9c0-0.1-0.1-0.1-0.1-0.2
		c-0.3-0.3-0.7-0.6-1.3-0.7c-5.7-0.7-11.6-1.2-17.4-1.3c-4-0.2-8.1,0.1-12.1,0.9c-5.2,1.2-8.4,4.5-9.2,9.5c-0.9,6.2-0.4,10.9,1.9,15
		c0,0,3.2,4.1,12.9,4c2.1,0,4.1,0.1,6.1,0.3c0.5,0,1,0.2,1.3,0.6c0.2,0.4,0.3,0.9,0.1,1.3v0.1c0.1,0.3,0.1,0.7-0.1,1
		c-0.4,0.4-0.9,0.7-1.5,0.7c-1.4,0.3-2.9,0.4-4.3,0.4c-4.2,0-8.5-0.3-12.6-0.6h-0.6c-0.4-0.1-0.9,0-1.3,0.3
		c-0.2,0.3-0.4,0.7-0.3,1.1c0,3,0,6.1,0,9.1v0.3c-0.1,0.7,0.4,1.4,1.1,1.5l3.6,0.3c2.7,0.3,5.6,0.5,8.4,0.7c2.1,0.2,4.3,0.3,6.7,0.3
		c2.5-0.1,4.9-0.3,7.2-0.7c3.2-0.5,6.3-1,9-3.2c0.3-0.3,0.7-0.6,1-0.9c2-2,3.3-4.6,3.5-7.4C245,134,244.8,130.7,244.2,127.5z
		 M204.5,146.8C204.5,146.8,204.5,146.7,204.5,146.8c0,0.1,0,0.2,0,0.3c0,0,0,0,0,0V146.8z"/>
	<path class="st0" d="M76.4,104.5c-5.3,0.2-10.6,0.2-15.7,0c-0.6-0.1-1.1,0.1-1.6,0.4c-0.3,0.4-0.5,1-0.4,1.5c0,6.3,0,12.8,0,19.1
		c0,2.4,0,4.7,0,7.1v5.5c0,2.8,0,5.5,0,8.3v0.2c0,0.6,0,1.5,1.2,1.5l-0.1-0.1h4.4c3.8,0,7.8,0,11.6,0c0.7,0.1,1.3-0.1,1.8-0.5
		c0.4-0.5,0.6-1.1,0.5-1.7c0-8.4,0-16.9,0-25.1c0-3.9,0-7.8,0-11.7c0-0.9,0.1-1.8,0.3-2.7c0.1-0.5,0-1-0.3-1.4
		C77.6,104.6,77,104.4,76.4,104.5z"/>
	<path class="st0" d="M205.3,99.1l0.1-0.2c0.1-0.4,0.3-0.7,0.6-0.9l0.1-0.1v-0.1c0.2-0.5,0.2-1-0.1-1.5c-0.3-0.4-0.7-0.5-1.5-0.5
		c-4.1,0.1-8.3,0-12.3,0h-0.5c-1.1,0-1.7,0.2-2,1.5c-1.4,7.3-2.8,13.7-4.1,19.6c-0.2,0.4-0.1,0.9,0.1,1.3c0.3,0.3,0.7,0.4,1.1,0.4
		l2.5,0.1c1.8,0,3.6,0,5.4,0c0.2,0,0.5,0,0.7,0c1.2,0.1,2.3-0.7,2.6-1.8c1.6-4.2,3.4-8.5,5.1-12.6L205.3,99.1z"/>
	<path class="st0" d="M59.9,101.7L59.9,101.7c2.4,0.2,4.6,0.3,6.9,0.3l2.6-0.1c1.5,0,3,0,4.5,0c0.8,0,1.6-0.1,2.3-0.4
		c1.2-0.3,2-1.4,1.9-2.6c0-1.1,0-2.2,0-3.2c0-0.4,0-0.8,0-1.3c-0.4-1.3-1.6-2.1-3-2.1c-4.8,0-9.1,0-13.1,0c-1.5-0.1-2.9,1-3.1,2.5
		c-0.3,2.4-0.5,4.7,0.9,6.8L59.9,101.7z"/>
	<path class="st0" d="M182.5,105.5c0,0-0.2-1.1-0.3-1.1c-0.1-0.4-0.8-0.4-0.8-0.4c-4.9-0.1-9.8,0-14.6,0h-0.6l0,0l-0.4,0l-1.6,0.1
		c0,0-0.2,0.2-0.2,0.2c-0.2,0.2-0.2,0.3-0.2,0.8v0.1c0,0,0,0,0,0.1c-0.1,0.6-0.2,1.2-0.1,1.8c0,0.6,0,1.2-0.1,1.8l-0.1,1.1v0.1
		c0.2,0.5,0.3,1,0.2,1.5c-0.4-1.1-1-2.1-1.4-3.2c-0.1-0.2-0.1-0.4-0.2-0.6c0-0.2-0.1-0.3-0.1-0.5c-1.2-1.9-3.1-3.3-5.3-3.8
		c-3.3-0.8-6.7-1.1-10.1-0.7c-6.4,0.6-10.6,4.1-12.6,10.3c-1.4,5.2-1.8,10.7-1.1,16c0.3,4,1.8,7.9,4.1,11.2l0.1,0.1
		c0,0,7.5,4.7,16.5,3.2c4.4-0.6,8.2-3.5,9.8-7.6c0.1-0.1,0.1-0.3,0.2-0.4c0,1.2,0,2.3-0.1,3.5v0.6c0.2,3.3-1.5,5.5-5.3,6.5
		c-4.2,0.8-8.5,1-12.8,0.5c-2.8-0.2-5.6-0.7-8.4-1.3H137c-0.2-0.1-0.5-0.1-0.8,0c-0.5,0.2-0.7,0.7-0.5,1.2c0.4,2.7,0.8,5.5,1.1,8.3
		c0.1,0.6,0.4,1.1,0.9,1.5l0.1,0.1h0.1c1.5-0.1,3,0,4.5,0.3c1,0.2,2,0.3,3,0.4l2.7,0.2c2.9,0.2,6,0.4,9,0.4c2.7,0,5.3-0.3,7.8-0.7
		c3.3-0.4,6.5-1.4,9.5-2.9c1.2-0.7,2.2-1.5,3.1-2.4c0.2-0.2,0.3-0.4,0.5-0.6c0.1-0.1,0.1-0.1,0.2-0.2c2-2.3,3.2-5.1,3.8-8.3
		c0.4-3.1,0.5-6.3,0.3-9.5c0-8.8,0-17.6,0-26.4C182.4,106.4,182.5,105.9,182.5,105.5z M152.9,120.6c0.8-1.6,3.7-2.6,6.3-2
		c2.1,0.5,2.9,1.3,3.3,3.2c1.2,2.6,1,5.7-0.6,8.1c-0.8,1-1.9,1.6-3.2,1.7c-1.6,0.3-3.3-0.1-4.7-1.1l-0.1-0.1l-0.2-0.1
		c-0.4,0-0.6-0.2-0.8-0.7v-0.1C151.5,126.7,151.5,123.4,152.9,120.6z"/>
</g>
</svg>
