<?xml version="1.0" encoding="utf-8"?>
<!-- Generator: Adobe Illustrator 21.1.0, SVG Export Plug-In . SVG Version: 6.00 Build 0)  -->
<svg version="1.1" id="Layer_1" xmlns="http://www.w3.org/2000/svg" xmlns:xlink="http://www.w3.org/1999/xlink" x="0px" y="0px"
	 viewBox="0 0 250 250" style="enable-background:new 0 0 250 250;" xml:space="preserve">
<style type="text/css">
	.st0{fill:#45280D;}
	.st1{fill:#703819;}
	.st2{fill:#F15926;}
</style>
<title>Midscale</title>
<path class="st0" d="M199.1,171c-1.3-0.8-2.4-1.8-3.3-2.9c-0.5-0.6-0.9-1.2-1.3-1.8c-0.2-0.3-0.4-0.7-0.6-1l-0.3-0.5
	c-0.1-0.3-0.4-0.3-0.7-0.3c-3-0.8-5.8-2.4-8-4.6c-4.5-4.9-6.1-11.7-4.3-18.1c1.8-6.1,6.7-10.8,12.9-12.2c6.3-1.6,13,0.1,17.7,4.5
	c4.6,4.6,6.4,11.3,4.8,17.6c-1.5,6.3-6.2,11.2-12.4,12.9c1.1,2.6,3.4,4.5,6.2,4.9c0.7,0.1,1.5,0.2,2.2,0.2h1.2c0.3,0,0.7,0,1,0
	c0.9,0.2,0.6,1.5,0.6,2.1c0.1,0.4-0.2,0.8-0.6,0.9c-0.8,0.2-1.6,0.4-2.4,0.5c-1.4,0.3-2.9,0.4-4.3,0.4c-3,0-5.9-0.8-8.5-2.3
	 M190.2,147c-0.1,3.1,0.3,6.1,1.2,9.1c0.9,2.5,2.4,4.9,5.2,5.5c1.3,0.3,2.7,0.2,4-0.2c0.6-0.2,1.1-0.5,1.5-0.8
	c0.5-0.4,0.9-0.8,1.3-1.3c1.6-2.5,2.6-5.3,2.7-8.3c0.3-3,0.2-6.1-0.1-9.1c-0.2-2.1-0.8-4.2-1.8-6.1c-1.1-2.1-3.2-3.4-5.6-3.5
	c-2.8,0-5.3,1.6-6.4,4.2C190.5,139.6,190.2,143.5,190.2,147 M81.7,163.5c-0.6-0.6-1.1-1.3-1.3-2c-2.3,1.9-5.5,3.8-8.6,3
	c-2.7-0.8-4.3-3.6-3.6-6.3c0.6-2.3,2.2-4.2,4.2-5.3c2.4-1.5,4.8-2.8,7.4-3.9c0.2-0.1,0.4-0.1,0.4-0.3v-1.2c0-0.5,0-1.1,0-1.6
	c0-0.6,0-1.3-0.2-1.9c-0.6-1.4-2.6-1.4-3.8-0.9c-0.2,0.1-0.9,0.4-0.8,0.7c0.1,0.4,0.7,1,1,1.4c0.8,1.2,0.8,2.7,0,3.8
	c-0.8,1.1-2.2,1.8-3.6,1.7c-1.4,0-2.8-0.7-3.6-1.9c-0.7-1.2-0.8-2.7-0.2-4c1.2-2.8,4.1-4.3,7-5c2.8-0.7,6.3-0.8,9,0.7
	c1.8,1,3.1,2.7,3.4,4.7c0.2,1.6,0.2,3.1,0.2,4.7c0,2.7,0,5.4,0,8.1c0,0.2-0.2,1.9,0.3,2c0.4,0.1,0.6-0.6,0.9-0.8
	c0.5-0.3,0.9,0.1,1.3,0.4c0.4,0.3,0.7,0.6,0.5,1.1c-0.4,0.7-0.9,1.4-1.5,1.9c-1,1.1-2.4,1.7-3.9,1.9
	C84.4,164.9,82.9,164.5,81.7,163.5 M76.1,157.2c0,1,0.7,1.8,1.7,1.9c0.1,0,0.1,0,0.2,0c0.5-0.1,1-0.3,1.4-0.6
	c0.1-0.1,0.6-0.4,0.6-0.5v-5.8c-1.2,0.8-2.2,1.7-3.1,2.8C76.4,155.6,76.2,156.4,76.1,157.2 M129.5,164.4c-0.6,0-0.7-0.5-0.7-0.9
	c0-0.5-0.1-0.9,0.2-1.2c0.3-0.3,1.4-0.2,1.9-0.3c0.4,0,0.8-0.1,1.2-0.2c1.6-0.5,1.4-2.6,1.4-3.9v-16.7c0-2.2,0.1-4.3,0-6.5
	c0-0.6-0.1-1.2-0.4-1.7c-0.6-0.6-1.4-0.9-2.3-0.8c-0.6,0-1.5,0.2-1.9-0.4c-0.2-0.4-0.2-0.8-0.1-1.2c0-0.5,0.3-0.8,0.8-0.9
	c0.1,0,0.1,0,0.2,0h15.7c2.5-0.1,5,0.1,7.5,0.7c2.7,0.8,4.8,2.7,5.9,5.3c0.9,2,0.8,4.3-0.2,6.3c-1.2,1.9-3,3.3-5.1,4
	c2.6,0.8,5.1,2,6.5,4.4c1.3,2.4,1.4,5.3,0.2,7.7c-2.4,5-8.8,6.1-13.8,6.1L129.5,164.4 M143.1,160.6c0.7,0.7,1.9,0.5,2.8,0.3
	c1-0.2,1.9-0.6,2.7-1.2c1.6-1.4,2.4-3.5,2.1-5.6c0-2-0.9-3.8-2.5-5c-1.7-0.8-3.6-1.2-5.5-1.1c0,2.3,0,4.7,0,7v2.8
	C142.6,158.6,142.4,159.9,143.1,160.6 M142.7,144.7c1.8,0.1,3.5-0.3,5-1.2c1.4-1.1,2.2-2.9,2.1-4.7c0.1-1.8-0.6-3.5-2.1-4.7
	c-1.5-0.9-3.3-1.3-5-1.1C142.7,136.9,142.7,140.8,142.7,144.7 M93.5,164.3c-0.6,0-0.7-0.5-0.7-0.9s-0.1-0.9,0.2-1.2
	c0.5-0.6,1.7-0.1,2-1c0.3-1.2,0.4-2.5,0.3-3.7v-9.5c0-1,0-2,0-3c0.1-0.7-0.1-1.5-0.4-2.1c-0.6-0.7-2.1-0.1-2.1-1.3
	c0-0.6-0.1-1.6,0.8-1.6h9c0.4-0.1,0.8,0.3,0.9,0.7c0,0,0,0,0,0.1v2.8c1.7-2.3,4.3-4.7,7.4-4.2c2.9,0.5,3.6,4.2,2.3,6.5
	c-0.7,1.2-2.1,1.8-3.5,1.6c-1.1-0.3-2.1-0.9-2.9-1.8c-0.3-0.2-0.7,0-0.9,0.2c-0.5,0.4-0.9,0.9-1.2,1.5c-0.6,1.5-1,3-1,4.6
	c-0.1,1.7,0,3.5,0,5.2v1.6c-0.1,0.8-0.1,1.6,0.1,2.3c0.1,0.3,0.4,0.6,0.8,0.7c0.5,0.2,1.3,0,1.8,0.3c0.4,0.3,0.5,2.1-0.3,2.2
	c-0.3,0-0.5,0-0.8,0L93.5,164.3 M34,164.3c-0.6,0-0.7-0.5-0.7-0.9c0-0.5-0.1-0.9,0.2-1.2c0.3-0.3,1.4-0.2,1.9-0.3
	c0.4,0,0.8-0.1,1.2-0.2c1.6-0.5,1.4-2.6,1.4-3.9v-16.6c0-2.2,0.1-4.3,0-6.5c0-0.6-0.1-1.2-0.4-1.7c-0.6-0.6-1.4-0.9-2.3-0.8
	c-0.6,0-1.5,0.2-1.9-0.4c-0.2-0.4-0.2-0.8-0.1-1.2c0-0.5,0.3-0.8,0.8-0.9c0.1,0,0.1,0,0.2,0h15.7c2.5-0.1,5,0.1,7.5,0.7
	c2.7,0.8,4.8,2.7,5.9,5.3c0.9,2,0.8,4.3-0.2,6.3c-1.2,1.9-3,3.3-5.1,4c2.6,0.8,5.1,2,6.5,4.4c1.3,2.4,1.4,5.3,0.2,7.7
	c-2.4,5-8.8,6.1-13.8,6.1L34,164.3 M47.5,160.6c0.7,0.7,1.9,0.5,2.8,0.3c1-0.2,1.9-0.6,2.7-1.2c1.6-1.4,2.4-3.5,2.1-5.6
	c0-2-0.9-3.8-2.5-5c-1.7-0.8-3.6-1.2-5.5-1.1c0,2.3,0,4.7,0,7v2.8C47.1,158.6,46.9,159.9,47.5,160.6 M47.2,144.7
	c1.8,0.1,3.5-0.3,5-1.2c1.4-1.1,2.2-2.9,2.1-4.7c0.1-1.8-0.6-3.5-2.1-4.7c-1.5-0.9-3.3-1.3-5-1.1C47.2,136.9,47.2,140.8,47.2,144.7
	 M163.3,155.3c-0.8,0-0.7-0.9-0.7-1.5v-4.3c0-0.6,0.5-0.8,1-0.8h14.1c0.6,0,0.8,0.5,0.8,1v4.5c0,0.5-0.2,1-0.8,1H163.3 M113.2,155.3
	c-0.8,0-0.7-0.9-0.7-1.5v-4.3c0-0.6,0.5-0.8,1-0.8h14c0.6,0,0.8,0.5,0.8,1v4.5c0,0.5-0.2,1-0.8,1H113.2 M140.5,123.6
	c-1.7-2-1.9-4.7-1.5-7.2c0.4-2.8,1.4-5.6,2.9-8c2.8-4.8,6.6-8.7,10-13c-1.9,1.5-3.8,3.1-5.5,4.8c-2.2,2.2-4.4,4.4-6.5,6.7
	c-4.2,4.6-8,9.5-11.9,14.4c-0.7,1-1.5,1.8-2.4,2.5c-1.2,0.8-2.4,0.1-3-1.1c-0.7-1.5-1.1-3.1-1.1-4.8c0-1.3,0.5-2.6,1.2-3.7
	c1.4-2.4,3.2-4.6,4.8-6.8c1.6-2.2,3.4-4.6,4.9-7.1c1.1-1.8,2.2-3.5,3.2-5.3c0.8-1.4,2-3.1,1.8-4.7c-1.1,0.5-2,1.2-2.8,2
	c-1,0.9-1.9,1.8-2.8,2.7c-2,2.2-3.9,4.5-5.8,6.9c-4.1,5.3-8,10.7-11.5,16.4c-0.7,1.1-1.3,2.1-2,3.1c-0.6,1.1-1.8,1.7-3,1.5
	c-1.4-0.4-2-2.1-2.4-3.3c-0.6-1.2-0.8-2.6-0.8-3.9c0.2-0.7,0.5-1.4,1-1.9l1.6-2.2c0.9-1.2,1.8-2.5,2.7-3.8c1.8-2.5,3.6-5.1,5.2-7.7
	c1.7-2.5,3.2-5.2,4.5-8c0.6-1.2,1-2.4,1.2-3.7c0-0.4,0-0.9-0.5-0.9c-0.2,0-0.5,0.1-0.7,0.1c-1.1,0.4-2.2,0.9-3.2,1.5
	c-1.2,0.7-2.5,1.4-3.7,2.1c-2.6,1.5-5.1,3.1-7.8,4.5c-1.5,0.8-5.5,2.7-5.7-0.4c0-0.6,0.1-1.2,0.2-1.8c0.2-1.4,0.5-2.8,0.9-4.2
	c0.7-2.3,2.6-3.7,4.5-5.1c0.8-0.7,1.7-1.4,2.7-1.9c1.1-0.5,1.7,0.9,1,1.7c2.9-1.6,5.9-2.9,8.9-4.1c1.1-0.4,2.3-0.8,3.5-1
	c1-0.3,2-0.1,2.8,0.6c1,1.1,1.8,2.5,2.2,4c0.4,0.9,0.5,1.8,0.5,2.7c-0.2,1.5-0.6,3-1.2,4.4c-0.6,1.5-1.2,2.9-1.9,4.4l-0.8,1.6
	c4.2-5.1,8.5-10.1,14-13.8c1.1-0.8,2.2-1.4,3.4-1.9c0.7-0.3,1.5-0.3,2.2,0c2,1.1,3,3.5,2.3,5.7c-0.8,2.3-1.9,4.5-3.1,6.6
	c-1.4,2.6-2.9,5.2-4.5,7.8c2.3-2.4,4.6-4.8,6.9-7.2c1.7-1.9,3.6-3.6,5.6-5.2c1.7-1.3,3.3-2.7,4.8-4.1c0.5-0.5,1.1-1,1.6-1.4
	c1-0.8,2.3-2,3.7-1.8c1.4,0.2,2.1,1.5,2.6,2.4c0.6,0.7,1,1.6,1.2,2.5c0,1-0.4,2-1.2,2.7c-0.9,1-1.8,2-2.7,2.9
	c-4.7,4.8-8.6,10.4-11.6,16.3c-0.7,1.4-1.3,2.8-1.7,4.3c-0.4,1.1-0.6,2.3-0.7,3.6c0,1,0.2,1.9,1.2,2c1.5-0.1,3-0.7,4.1-1.7
	c1.4-0.9,2.8-1.8,4.2-2.7l1.7-1.2l0.8-0.6c0.1-0.5,0.2-0.9,0.3-1.4c0.4-1.2,1-2.4,1.7-3.5c0.8-1.4,1.8-2.6,2.8-3.8
	c1.8-2.1,4.3-4.4,7.2-3.8c1.2,0.2,2,1.2,1.8,2.4c-0.2,1.3-0.7,2.5-1.5,3.6c-0.6,1.1-1.4,2.2-2.3,3.1c-1,1-2,1.9-3,3
	c-0.9,0.8-1.4,1.9-1.3,3.1c0.4,1.4,2.1,1.7,3.3,1.4c1.3-0.4,2.6-1.1,3.6-2c0.6-0.4,1.2-0.9,1.8-1.4c0.2-0.1,0.3-0.2,0.4-0.4
	s0-0.3,0.1-0.5c0.1-0.4,0.1-0.8,0.2-1.2c0.7-3.3,1.8-6.5,3.3-9.6c1.5-3.2,3.2-6.2,5.1-9.1c1.7-2.7,3.8-5.1,6.3-7.2
	c0.9-0.9,2-1.5,3.2-1.9c1.3-0.2,2,0.7,2.2,1.9c0.2,3.1-0.4,6.2-1.7,9c-2.9,6.2-6.8,11.8-11.6,16.7l-0.4,0.5c0,0.2,0,0.4-0.1,0.6
	c0,0.3-0.1,0.7-0.1,1c-0.1,0.7,0,1.4,0.1,2.1c0.3,1.2,1.1,2.4,2.4,2.4c0.6-0.1,1.3-0.4,1.7-0.8c0.6-0.4,1.2-0.9,1.7-1.4l1.2-1.2
	l0.8-0.7c0.3-0.3,0.9-0.6,0.9-1c0.5-3.2,1.4-6.4,2.8-9.4c1.4-3.2,3-6.3,4.8-9.2c1.7-2.8,3.7-5.3,5.9-7.6c1.1-1.1,5-4.7,6.2-2
	c0.4,1.2,0.5,2.6,0.3,3.8c-0.2,1.6-0.5,3.2-1,4.7c-1.2,3.1-2.7,6-4.6,8.8c-1.9,2.8-4,5.5-6.3,8.1c-0.6,0.6-1.1,1.3-1.7,1.9
	c-0.1,0.7-0.2,1.4-0.3,2.1c-0.1,1.3,0.3,2.6,1.2,3.5c1.2,1,2.4,0.3,3.5-0.5c1.1-0.8,1.9-1.6,2.8-2.4l1.7-1.5c0.3-0.3,0.5-0.6,0.5-1
	c0.1-0.4,0.3-0.8,0.4-1.2c0.6-1.3,1.3-2.5,2.2-3.6c2.1-2.6,4.6-4.8,7.5-6.4c2.3-1.3,6-2.7,8.5-1.1c2.4,1.6,1.1,5.6-0.4,7.6
	c-2,2.3-4.4,4.1-7.2,5.4c-1,0.5-2,1-3,1.4l-1.5,0.7c-0.3,0.1-0.2,0.1-0.2,0.4c0,0.3,0,0.6,0.1,0.9c0.1,0.8,0.5,1.6,1.2,2.1
	c0.9,0.4,2,0.5,2.9,0.1c2-0.6,3.9-1.7,5.5-3.1c0.9-0.7,1.7-1.4,2.5-2.1c0.8-0.8,1.6-1.7,2.2-2.7c-3.5-1.8-0.5-6.5,1.2-8.6
	c1-1.4,2.4-2.6,4-3.2c0.7-0.3,1.6-0.1,2,0.6c0.2,0.6,0.1,1.3-0.2,1.9c2.3-0.4,4.6-0.7,7-0.8c1.1-0.1,2.1,0.5,2.5,1.5
	c0.7,1.4,0.8,3,0.1,4.4c-0.8,1.1-1.6,2.1-2.6,3c-1.1,1.2-2,2.5-2.8,4c-0.5,0.8-0.8,1.7-0.9,2.6c0,0.9,1.2,0.8,1.8,0.6
	c1.2-0.4,2.3-1.1,3.3-1.9c0.6-0.4,1.2-0.9,1.8-1.4s1.4-1.2,1.8-0.2c0,0.3,0,0.6,0,0.8v1.2c0,0.4-0.1,0.7-0.4,1l-1.8,1.8
	c-2,2-4.2,4.3-6.8,5.6c-1.3,0.8-2.9,0.7-4.2-0.1c-1-0.9-1.7-2.1-1.8-3.4c-0.6-4.3,2.2-8.3,4.7-11.6c-1.3,0.3-2.7,0.5-4,0.7
	c-0.7,1.3-1.5,2.6-2.5,3.8c-1,1.2-2.1,2.4-3.3,3.4c-0.6,0.6-1.2,1.2-1.7,1.8c-0.6,0.6-1.2,1.2-1.8,1.8c-2.1,2.3-4.7,3.9-7.7,4.8
	c-2.6,0.8-5.5,0-7.2-2.1c-1-1.3-1.6-2.9-1.8-4.6c-1.3,1.7-2.8,3.2-4.4,4.6c-1.1,1-2.4,1.7-3.8,2.2c-1.6,0.5-3.3,0.1-4.5-0.9
	c-1.4-1.6-2.3-3.6-2.4-5.7c-1.3,1.6-2.8,3.2-4.4,4.5c-1.1,1-2.4,1.7-3.8,2.2c-1.5,0.5-3.2,0.1-4.5-0.9c-1.4-1.5-2.2-3.5-2.4-5.5
	c-1.2,1.4-2.6,2.7-4,3.9c-1.3,1.1-2.9,1.9-4.5,2.2c-4.1,0.6-5.9-3.7-6.5-7.1c-2.9,2.8-6.1,5.3-9.5,7.4c-1.4,1-3.1,1.6-4.8,1.8
	C143.4,125.7,141.7,124.9,140.5,123.6 M152.9,94.8L152.9,94.8 M185.2,97.2c-1.1,2.1-2,4.2-2.7,6.4c1.7-2.1,3.2-4.3,4.5-6.6
	c0.6-1.1,1.2-2.3,1.6-3.4c0.4-0.8,0.7-1.7,0.8-2.6c-0.8,0.6-1.5,1.4-2,2.3C186.7,94.5,185.9,95.8,185.2,97.2 M200.3,97.1
	c-1.1,2.1-2,4.2-2.7,6.4c1.7-2.1,3.2-4.3,4.5-6.6c0.6-1.1,1.2-2.2,1.7-3.3c0.4-0.8,0.7-1.7,0.8-2.6c-0.8,0.6-1.5,1.4-2,2.3
	C201.8,94.5,201,95.8,200.3,97.1 M217.8,103.9c-2.6,1.4-4.6,3.6-5.7,6.3c1.9-0.9,3.6-2.1,5-3.6c0.6-0.7,1.2-1.4,1.6-2.2
	c0.2-0.4,0.4-0.8,0.5-1.2C218.7,103.3,218.2,103.5,217.8,103.9 M12.9,123.9c-2-0.4-3.8-1.4-5.1-2.8c-1.1-1.4-1.7-3.2-1.5-5
	c0.3-2,1.1-4,2.2-5.7c1.2-1.9,2.5-3.8,3.9-5.5c-1.4,0-2.7-0.6-3.6-1.6c-0.8-1-0.7-2.5,0.2-3.4c1.1-0.6,2.3-1,3.5-1
	c1.3-0.2,2.6-0.3,3.9-0.5l1.2-0.1c0.3,0,0.4,0,0.6-0.2l0.4-0.5c0.6-0.7,1.1-1.3,1.7-2c1-1.1,2-2.1,3.1-3c2.1-2,4.8-3.2,7.7-3.4
	c0.9,0,1.5,0.7,1,1.5c-0.5,0.7-1.1,1.4-1.7,2L26.7,97c3.1-0.4,6.1-1,9-1.9c1.3-0.4,2.6-0.9,3.9-1.7c1.2-0.6,2-1.7,2.2-3
	c0-2.7-3.4-3.1-5.4-3.3c-3.3-0.2-6.5,0.1-9.7,0.7c-2.9,0.5-5.8,1.2-8.6,2.3c0.4,0.2,0.8,0.5,1,0.9c0.2,0.6-0.3,1-0.7,1.3
	c-1.2,0.6-2.4,1-3.6,1.4c-2.4,0.9-4.9,1.5-7.4,1.8c-1,0.2-2-0.5-2.2-1.5c0-0.2,0-0.4,0-0.6c0-0.5,0.2-1,0.4-1.4c0.5-1,1-2,1.7-3
	c0.9-1.4,1.9-2.6,2.9-3.8c0.8-0.9,1.7-1.6,2.7-2.1c1-0.4,2-0.7,3-1c3.2-0.9,6.5-1.7,9.9-2.3c3.2-0.7,6.5-1,9.8-1
	c3.1-0.1,6.2,0.6,8.9,2.1c2.3,1.4,3.7,3.9,3.6,6.6c-0.3,3-2,5.7-4.5,7.3c-4.8,3.6-11.2,5.1-17.1,6l-2.2,0.3l-1.2,0.2l-0.6,0.6
	c3.3,0.4,6.5,1,9.6,2c2.6,0.8,5.6,2.1,6.9,4.8c1.4,2.9,0,5.9-2.1,8c-2.3,2.2-5.1,3.9-8,5C23.8,123.8,18.2,125.1,12.9,123.9
	 M16.7,108.9c0,0.2-0.5,0.6-0.7,0.8c-0.1,0.1-0.4,0.5-0.6,0.8c-0.4,0.5-0.8,1.1-0.9,1.8c-0.1,1.3,0.6,2.5,1.8,3
	c1.3,0.6,2.7,0.8,4.1,0.7c1.7-0.1,3.3-0.4,4.9-0.9c1.5-0.4,3-1.1,4.3-1.9c1.1-0.7,2.5-1.6,2.8-2.9c0.2-1-0.6-1.7-1.4-2.1
	c-1.2-0.6-2.5-1-3.8-1.2c-1.8-0.4-3.7-0.7-5.6-1l-1.6-0.2c-0.3,0-0.6-0.2-0.8,0.1l-0.5,0.7L16.7,108.9 M17.1,90.7L17.1,90.7
	 M73.6,123.4c-1.9-1.3-2.7-3.9-3-6.1c-1.3,1.6-2.8,3.2-4.4,4.5c-1.1,1-2.4,1.7-3.8,2.2c-1.5,0.5-3.2,0.1-4.5-0.9
	c-1.4-1.5-2.2-3.5-2.4-5.5c-2,2.3-4.3,4.7-7.2,5.8c-1.2,0.5-2.5,0.5-3.8,0.1c-1.4-0.5-2.5-1.6-3-3c-2.2-4.2-1.9-9.3,0.8-13.2
	c0.8-1.4,1.8-2.6,2.8-3.8c1.8-2,4.3-4.4,7.2-3.8c1.2,0.2,2,1.2,1.8,2.4c-0.2,1.3-0.7,2.5-1.5,3.6c-0.6,1.1-1.4,2.2-2.3,3.1
	c-1,1-2,1.9-3,3c-0.8,0.7-1.3,1.7-1.3,2.8c0.1,1.5,1.8,1.9,3,1.7c1.4-0.3,2.6-1,3.7-1.8c0.6-0.4,1.2-0.9,1.8-1.3l0.5-0.4
	c0.2-0.2,0.2-0.2,0.2-0.5s0.1-0.8,0.2-1.2c0.6-3.3,1.7-6.5,3.1-9.5c1.5-3.2,3.2-6.3,5.2-9.2c1.7-2.7,3.7-5.1,6-7.2
	c0.9-0.9,2-1.6,3.2-2c0.9-0.3,2,0.1,2.3,1c0.1,0.2,0.1,0.3,0.1,0.5c0.5,3-0.4,6.2-1.6,9c-2.8,6.2-6.7,11.9-11.4,16.7
	c-0.3,0.3-0.7,0.6-0.8,1c-0.1,0.4-0.1,0.7-0.2,1.1c-0.1,0.7-0.1,1.4,0,2.1c0.2,1.2,0.8,2.6,2.2,2.7c1.4,0.1,2.7-1.2,3.6-2.1l3-2.7
	c0.3-0.2,0.2-0.7,0.3-1c0.1-0.3,0.1-0.7,0.2-1.1c0.2-0.8,0.4-1.7,0.6-2.4c0.5-1.6,1.1-3.3,1.7-4.8c1.3-3.2,3-6.4,4.8-9.4
	c1.7-2.8,3.7-5.4,5.9-7.7c1.1-1.1,4.8-4.7,6.3-2.2c0.5,1.2,0.6,2.4,0.4,3.7c-0.2,1.6-0.5,3.2-1.1,4.7c-1.2,3.1-2.7,6-4.5,8.8
	c-1.9,2.8-4,5.5-6.3,8.1c-0.6,0.6-1.1,1.3-1.7,1.9c-0.4,0.4-0.4,1.6-0.4,2.2c-0.2,1.4,0.3,2.7,1.2,3.7c1.2,0.9,2.5,0.1,3.5-0.7
	c0.7-0.5,1.3-1.1,1.9-1.7L86,112c0.4-0.4,1.1-1,1.6-0.3c0.1,0.3,0.2,0.6,0.1,0.9v1.7c0,0.3-0.1,0.5-0.3,0.8
	c-0.4,0.6-0.8,1.1-1.3,1.6c-1.3,1.7-2.8,3.2-4.3,4.7C79.6,123.3,76.3,125.4,73.6,123.4 M66.3,97.2c-1.1,2.1-2,4.2-2.7,6.4
	c1.7-2.1,3.3-4.3,4.6-6.7c0.6-1.1,1.2-2.2,1.6-3.3c0.4-0.8,0.7-1.7,0.8-2.6c-0.8,0.6-1.5,1.4-2,2.3C67.8,94.5,67,95.8,66.3,97.2
	 M81.5,97.1c-1.1,2.1-2,4.2-2.7,6.4c1.7-2.1,3.2-4.3,4.5-6.6c0.6-1.1,1.2-2.2,1.7-3.3c0.4-0.8,0.7-1.7,0.8-2.6
	c-0.8,0.6-1.5,1.4-2,2.3C82.9,94.5,82.2,95.8,81.5,97.1 M171.5,98c-1.9-1.6-0.7-4.2,0.5-5.7s3.5-2.9,5.4-1.3
	c1.8,1.5,0.8,4.2-0.3,5.7S173.4,99.6,171.5,98 M52.6,98c-1.8-1.5-0.8-4,0.4-5.6c1.2-1.6,3.6-3.1,5.5-1.5s0.8,4.2-0.3,5.7
	S54.6,99.6,52.6,98"/>
<path class="st1" d="M199.1,168.8c-1.3-0.8-2.4-1.8-3.3-2.9c-0.5-0.6-0.9-1.2-1.3-1.8c-0.2-0.3-0.4-0.7-0.6-1l-0.3-0.5
	c-0.1-0.3-0.4-0.3-0.7-0.3c-3-0.8-5.8-2.4-8-4.6c-4.5-4.9-6.1-11.7-4.3-18.1c1.8-6.1,6.7-10.8,12.9-12.2c6.3-1.6,13,0.1,17.7,4.5
	c4.6,4.6,6.4,11.3,4.8,17.6c-1.5,6.3-6.2,11.2-12.4,12.9c1.1,2.6,3.4,4.5,6.2,4.9c0.7,0.1,1.5,0.2,2.2,0.2h1.2c0.3,0,0.7,0,1,0
	c0.9,0.2,0.6,1.5,0.6,2.1c0.1,0.4-0.2,0.8-0.6,0.9c-0.8,0.2-1.6,0.4-2.4,0.5c-1.4,0.3-2.9,0.4-4.3,0.4c-3,0-5.9-0.8-8.5-2.3
	 M190.2,144.8c-0.1,3.1,0.3,6.1,1.2,9.1c0.9,2.5,2.4,4.9,5.2,5.5c1.3,0.3,2.7,0.2,4-0.2c0.6-0.2,1.1-0.5,1.5-0.8
	c0.5-0.4,0.9-0.8,1.3-1.3c1.6-2.5,2.6-5.3,2.7-8.3c0.3-3,0.2-6.1-0.1-9.1c-0.2-2.1-0.8-4.2-1.8-6.1c-1.1-2.1-3.2-3.4-5.6-3.5
	c-2.8,0-5.3,1.6-6.4,4.2C190.5,137.4,190.2,141.3,190.2,144.8 M81.7,161.2c-0.6-0.6-1.1-1.3-1.3-2c-2.3,1.9-5.5,3.8-8.6,3
	c-2.7-0.8-4.3-3.6-3.6-6.3c0.6-2.3,2.2-4.2,4.2-5.3c2.4-1.5,4.8-2.8,7.4-3.9c0.2-0.1,0.4-0.1,0.4-0.3v-1.2c0-0.5,0-1.1,0-1.6
	c0-0.6,0-1.3-0.2-1.9c-0.6-1.4-2.6-1.4-3.8-0.9c-0.2,0.1-0.9,0.4-0.8,0.7s0.7,1,1,1.4c0.8,1.2,0.8,2.7,0,3.8
	c-0.8,1.1-2.2,1.8-3.6,1.7c-1.4,0-2.8-0.7-3.6-1.9c-0.7-1.2-0.8-2.7-0.2-4c1.2-2.8,4.1-4.3,7-5c2.8-0.7,6.3-0.8,9,0.7
	c1.8,1,3.1,2.7,3.4,4.7c0.2,1.6,0.2,3.1,0.2,4.7c0,2.7,0,5.4,0,8.1c0,0.2-0.2,1.9,0.3,2c0.4,0.1,0.6-0.6,0.9-0.8
	c0.5-0.3,0.9,0.1,1.3,0.4c0.4,0.3,0.7,0.6,0.5,1.1c-0.4,0.7-0.9,1.4-1.5,1.9c-1,1.1-2.4,1.7-3.9,1.9
	C84.4,162.6,82.9,162.2,81.7,161.2 M76.1,154.9c0,1,0.7,1.8,1.7,1.9c0.1,0,0.1,0,0.2,0c0.5-0.1,1-0.3,1.4-0.6
	c0.1-0.1,0.6-0.4,0.6-0.5v-5.8c-1.2,0.8-2.2,1.7-3.1,2.9C76.5,153.4,76.2,154.2,76.1,154.9 M129.5,162.2c-0.6,0-0.7-0.5-0.7-0.9
	s-0.1-0.9,0.2-1.2c0.3-0.3,1.4-0.2,1.9-0.3c0.4,0,0.8-0.1,1.2-0.2c1.6-0.5,1.4-2.6,1.4-3.9v-16.7c0-2.2,0.1-4.3,0-6.5
	c0-0.6-0.1-1.2-0.4-1.7c-0.6-0.6-1.4-0.9-2.3-0.8c-0.6,0-1.5,0.2-1.9-0.4c-0.2-0.4-0.2-0.8-0.1-1.2c0-0.5,0.3-0.8,0.8-0.9
	c0.1,0,0.1,0,0.2,0h15.7c2.5-0.1,5,0.1,7.5,0.7c2.7,0.8,4.8,2.7,5.9,5.3c0.9,2,0.8,4.3-0.2,6.3c-1.2,1.9-3,3.3-5.1,4
	c2.6,0.8,5.1,2,6.5,4.4c1.3,2.4,1.4,5.3,0.2,7.7c-2.4,5-8.8,6.1-13.8,6.1L129.5,162.2 M143.1,158.4c0.7,0.7,1.9,0.5,2.8,0.3
	c1-0.2,1.9-0.6,2.7-1.2c1.6-1.4,2.4-3.5,2.1-5.6c0-2-0.9-3.8-2.5-5c-1.7-0.8-3.6-1.2-5.5-1.1c0,2.3,0,4.7,0,7v2.8
	C142.6,156.5,142.4,157.7,143.1,158.4 M142.7,142.5c1.8,0.1,3.5-0.3,5-1.2c1.4-1.1,2.2-2.9,2.1-4.7c0.1-1.8-0.6-3.5-2.1-4.7
	c-1.5-0.9-3.3-1.3-5-1.1C142.7,134.7,142.7,138.6,142.7,142.5 M93.5,162.1c-0.6,0-0.7-0.5-0.7-0.9s-0.1-0.9,0.2-1.2
	c0.5-0.6,1.7-0.1,2-1c0.3-1.2,0.4-2.5,0.3-3.7v-9.5c0-1,0-2,0-3c0.1-0.7-0.1-1.5-0.5-2.1c-0.6-0.7-2.1-0.1-2.1-1.3
	c0-0.6-0.1-1.6,0.8-1.6h9c0.4-0.1,0.8,0.3,0.9,0.7c0,0,0,0,0,0.1v2.8c1.7-2.3,4.3-4.7,7.4-4.2c2.9,0.5,3.6,4.2,2.3,6.5
	c-0.7,1.2-2.1,1.8-3.5,1.6c-1.1-0.3-2.1-0.9-2.9-1.8c-0.3-0.2-0.7,0-0.9,0.2c-0.5,0.4-0.9,0.9-1.2,1.5c-0.6,1.5-1,3-1,4.6
	c-0.1,1.7,0,3.5,0,5.2v1.6c-0.1,0.8-0.1,1.6,0.1,2.3c0.1,0.3,0.4,0.6,0.8,0.7c0.5,0.2,1.3,0,1.8,0.3c0.4,0.3,0.5,2.1-0.3,2.2
	c-0.3,0-0.5,0-0.8,0L93.5,162.1 M34,162.1c-0.6,0-0.7-0.5-0.7-0.9c0-0.5-0.1-0.9,0.2-1.2c0.3-0.3,1.4-0.2,1.9-0.3
	c0.4,0,0.8-0.1,1.2-0.2c1.6-0.5,1.4-2.6,1.4-3.9v-16.7c0-2.2,0.1-4.3,0-6.5c0-0.6-0.1-1.2-0.4-1.7c-0.6-0.6-1.4-0.9-2.3-0.8
	c-0.6,0-1.5,0.2-1.9-0.4c-0.2-0.4-0.2-0.8-0.1-1.2c0-0.5,0.3-0.8,0.8-0.9c0.1,0,0.1,0,0.2,0h15.7c2.5-0.1,5,0.1,7.5,0.7
	c2.7,0.8,4.8,2.7,5.9,5.3c0.9,2,0.8,4.3-0.2,6.3c-1.2,1.9-3,3.3-5.1,4c2.6,0.8,5.1,2,6.5,4.4c1.3,2.4,1.4,5.3,0.2,7.7
	c-2.4,5-8.8,6.1-13.8,6.1L34,162.1 M47.5,158.4c0.7,0.7,1.9,0.5,2.8,0.3c1-0.2,1.9-0.6,2.7-1.2c1.6-1.4,2.4-3.5,2.1-5.6
	c0-2-0.9-3.8-2.5-5c-1.7-0.8-3.6-1.2-5.5-1.1c0,2.3,0,4.7,0,7v2.8C47.1,156.5,46.9,157.7,47.5,158.4 M47.2,142.5
	c1.8,0.1,3.5-0.3,5-1.2c1.4-1.1,2.2-2.9,2.1-4.7c0.1-1.8-0.6-3.5-2.1-4.7c-1.5-0.9-3.3-1.3-5-1.1C47.2,134.7,47.2,138.6,47.2,142.5
	 M163.3,153.1c-0.8,0-0.7-0.9-0.7-1.5v-4.3c0-0.6,0.5-0.8,1-0.8h14.1c0.6,0,0.8,0.5,0.8,1v4.5c0,0.5-0.2,1-0.8,1H163.3 M113.2,153.1
	c-0.8,0-0.7-0.9-0.7-1.5v-4.3c0-0.6,0.5-0.8,1-0.8h14c0.6,0,0.8,0.5,0.8,1v4.5c0,0.5-0.2,1-0.8,1H113.2 M140.5,121.4
	c-1.7-2-1.9-4.7-1.5-7.2c0.5-2.8,1.5-5.6,3-8c2.8-4.8,6.6-8.7,10-13c-1.9,1.5-3.8,3.1-5.5,4.8c-2.2,2.2-4.4,4.4-6.5,6.7
	c-4.2,4.6-8,9.5-11.9,14.4c-0.7,1-1.5,1.8-2.4,2.5c-1.2,0.8-2.4,0.1-3-1.1c-0.7-1.5-1.1-3.1-1.1-4.8c0-1.3,0.5-2.6,1.2-3.7
	c1.4-2.4,3.2-4.6,4.8-6.8c1.6-2.2,3.4-4.6,4.9-7.1c1.1-1.8,2.2-3.5,3.2-5.3c0.8-1.4,2-3.1,1.8-4.7c-1.1,0.5-2.1,1.2-2.9,2.1
	c-1,0.9-1.9,1.8-2.8,2.7c-2,2.2-3.9,4.5-5.8,6.9c-4.1,5.3-8,10.7-11.5,16.4c-0.7,1.1-1.3,2.1-2,3.1c-0.6,1.1-1.8,1.7-3,1.5
	c-1.4-0.4-2-2.1-2.4-3.3c-0.6-1.2-0.8-2.6-0.8-3.9c0.2-0.7,0.5-1.4,1-1.9l1.6-2.2c0.9-1.2,1.8-2.5,2.7-3.8c1.8-2.5,3.6-5.1,5.2-7.7
	c1.7-2.5,3.2-5.2,4.5-8c0.6-1.2,0.9-2.4,1.1-3.7c0-0.4,0-0.9-0.5-0.9c-0.2,0-0.5,0.1-0.7,0.1c-1.1,0.4-2.2,0.9-3.2,1.5
	c-1.2,0.7-2.5,1.4-3.7,2.1c-2.6,1.5-5.1,3.1-7.8,4.5c-1.5,0.8-5.5,2.7-5.7-0.4c0-0.6,0.1-1.2,0.2-1.8c0.2-1.4,0.5-2.8,0.9-4.2
	c0.7-2.3,2.6-3.7,4.5-5.1c0.9-0.8,1.8-1.4,2.9-2c1.1-0.5,1.7,0.9,1,1.7c2.9-1.6,5.9-2.9,8.9-4.1c1.1-0.4,2.3-0.8,3.5-1
	c1-0.3,2-0.1,2.8,0.6c1,1.1,1.8,2.5,2.2,4c0.4,0.9,0.5,1.8,0.5,2.7c-0.2,1.5-0.6,3-1.2,4.4c-0.6,1.5-1.2,2.9-1.9,4.4l-0.8,1.6
	c4.2-5.1,8.5-10.1,14-13.8c1.1-0.8,2.2-1.4,3.4-1.9c0.7-0.3,1.5-0.3,2.2,0c2,1.1,3,3.5,2.3,5.7c-0.8,2.3-1.9,4.5-3.1,6.6
	c-1.4,2.6-2.9,5.2-4.5,7.8c2.3-2.4,4.6-4.8,6.9-7.2c1.7-1.9,3.6-3.6,5.6-5.2c1.7-1.3,3.3-2.7,4.8-4.1c0.5-0.5,1.1-1,1.6-1.4
	c1-0.8,2.3-2,3.7-1.8c1.4,0.2,2.1,1.5,2.6,2.4c0.6,0.7,1,1.6,1.2,2.5c0,1-0.4,2-1.2,2.7c-0.9,1-1.8,2-2.7,2.9
	c-4.7,4.8-8.6,10.4-11.6,16.3c-0.7,1.4-1.2,2.8-1.7,4.3c-0.4,1.1-0.6,2.3-0.7,3.6c0,1,0.2,1.9,1.2,2c1.5-0.1,3-0.7,4.1-1.7
	c1.4-0.9,2.8-1.8,4.2-2.7l1.7-1.2l0.8-0.6c0.1-0.5,0.2-0.9,0.3-1.4c0.4-1.2,1-2.4,1.7-3.5c0.8-1.4,1.8-2.6,2.8-3.8
	c1.8-2.1,4.3-4.4,7.2-3.8c1.2,0.2,2,1.2,1.8,2.4c-0.2,1.3-0.7,2.5-1.5,3.6c-0.6,1.1-1.4,2.2-2.3,3.1c-1,1-2,1.9-3,3
	c-0.9,0.8-1.4,1.9-1.3,3.1c0.4,1.4,2.1,1.7,3.3,1.4c1.3-0.4,2.6-1.1,3.6-2c0.6-0.4,1.2-0.9,1.8-1.4c0.2-0.1,0.3-0.2,0.4-0.4
	s0-0.3,0.1-0.5c0-0.4,0.1-0.8,0.2-1.2c0.7-3.3,1.8-6.5,3.3-9.6c1.5-3.2,3.2-6.2,5.1-9.1c1.7-2.7,3.8-5.1,6.2-7.2
	c0.9-0.9,2-1.5,3.2-1.9c1.3-0.2,2,0.7,2.2,1.9c0.2,3.1-0.4,6.2-1.7,9c-2.9,6.2-6.8,11.8-11.6,16.7l-0.4,0.5c0,0.2,0,0.4-0.1,0.6
	c0,0.3-0.1,0.7-0.1,1c-0.1,0.7,0,1.4,0.1,2.1c0.3,1.2,1.1,2.4,2.4,2.4c0.6-0.1,1.3-0.4,1.7-0.8c0.6-0.4,1.2-0.9,1.7-1.4l1.2-1.2
	l0.8-0.7c0.3-0.3,0.9-0.6,0.9-1c0.5-3.2,1.4-6.4,2.8-9.4c1.4-3.2,3-6.3,4.8-9.2c1.7-2.8,3.7-5.3,5.9-7.6c1.1-1.1,5-4.7,6.2-2
	c0.4,1.2,0.5,2.6,0.3,3.8c-0.2,1.6-0.6,3.2-1.2,4.7c-1.2,3.1-2.7,6-4.6,8.8c-1.9,2.8-4,5.5-6.3,8.1c-0.6,0.6-1.1,1.3-1.7,1.9
	c-0.1,0.7-0.2,1.4-0.3,2.1c-0.1,1.3,0.3,2.6,1.2,3.5c1.2,1,2.4,0.3,3.5-0.5c1.1-0.8,1.9-1.6,2.8-2.4l1.7-1.5c0.3-0.3,0.5-0.6,0.5-1
	c0.1-0.4,0.3-0.8,0.4-1.2c0.6-1.3,1.3-2.5,2.2-3.6c2.1-2.6,4.6-4.8,7.5-6.4c2.3-1.3,6-2.7,8.5-1.1s1.1,5.6-0.4,7.6
	c-2,2.3-4.4,4.1-7.2,5.4c-1,0.5-2,1-3,1.4l-1.5,0.7c-0.3,0.1-0.2,0.1-0.2,0.4c0,0.3,0,0.6,0.1,0.9c0.1,0.8,0.5,1.6,1.2,2.1
	c0.9,0.4,2,0.5,2.9,0.1c2-0.6,3.9-1.7,5.5-3.1c0.9-0.7,1.7-1.4,2.5-2.1c0.8-0.8,1.6-1.7,2.2-2.7c-3.5-1.8-0.5-6.5,1.2-8.6
	c1-1.4,2.4-2.6,4-3.2c0.7-0.3,1.6-0.1,2,0.6c0.2,0.6,0.1,1.3-0.2,1.9c2.3-0.4,4.6-0.7,7-0.8c1.1-0.1,2.1,0.5,2.5,1.5
	c0.7,1.4,0.8,3,0.1,4.4c-0.8,1.1-1.6,2.1-2.6,3c-1.1,1.2-2,2.5-2.8,4c-0.5,0.8-0.8,1.7-0.9,2.6c0,0.9,1.2,0.8,1.8,0.6
	c1.2-0.4,2.3-1.1,3.3-1.9c0.6-0.4,1.2-0.9,1.8-1.4c0.6-0.5,1.4-1.2,1.8-0.2c0,0.3,0,0.6,0,0.8v1.3c0,0.4-0.1,0.7-0.4,1l-1.8,1.8
	c-2,2-4.2,4.3-6.8,5.6c-1.3,0.8-2.9,0.7-4.2-0.1c-1-0.9-1.7-2.1-1.8-3.4c-0.6-4.3,2.2-8.3,4.7-11.6c-1.3,0.3-2.7,0.5-4,0.7
	c-0.7,1.3-1.5,2.6-2.5,3.8c-1,1.2-2.1,2.4-3.3,3.4c-0.6,0.6-1.2,1.2-1.7,1.8c-0.6,0.6-1.2,1.2-1.8,1.8c-2.1,2.3-4.7,3.9-7.7,4.8
	c-2.6,0.8-5.5,0-7.2-2.1c-1-1.3-1.6-2.9-1.8-4.6c-1.3,1.7-2.8,3.2-4.4,4.6c-1.1,1-2.4,1.7-3.8,2.2c-1.6,0.5-3.3,0.1-4.5-0.9
	c-1.4-1.6-2.3-3.6-2.4-5.7c-1.3,1.6-2.8,3.2-4.4,4.5c-1.1,1-2.4,1.7-3.8,2.2c-1.5,0.5-3.2,0.1-4.5-0.9c-1.4-1.5-2.2-3.5-2.4-5.5
	c-1.2,1.4-2.6,2.7-4,3.9c-1.3,1.1-2.9,1.9-4.5,2.2c-4.1,0.6-5.9-3.7-6.5-7.1c-2.9,2.8-6.1,5.3-9.5,7.4c-1.4,1-3.1,1.6-4.8,1.8
	c-1.7,0-3.4-0.7-4.5-2 M152.9,92.7L152.9,92.7 M185.1,95.1c-1.1,2.1-2,4.2-2.7,6.4c1.7-2.1,3.2-4.3,4.5-6.6c0.6-1.1,1.2-2.2,1.7-3.3
	c0.4-0.8,0.7-1.7,0.8-2.6c-0.8,0.6-1.5,1.4-2,2.3C186.6,92.5,185.8,93.8,185.1,95.1 M200.3,95.1c-1.1,2.1-2,4.2-2.7,6.4
	c1.7-2.1,3.2-4.3,4.5-6.6c0.6-1.1,1.2-2.2,1.7-3.3c0.4-0.8,0.7-1.7,0.8-2.6c-0.8,0.6-1.5,1.4-2,2.3
	C201.7,92.5,200.9,93.8,200.3,95.1 M217.7,101.9c-2.6,1.4-4.6,3.6-5.7,6.3c1.9-0.9,3.6-2.1,5-3.6c0.6-0.7,1.2-1.4,1.6-2.2
	c0.2-0.4,0.4-0.8,0.5-1.2C218.6,101.3,218.2,101.5,217.7,101.9 M12.9,121.7c-2-0.4-3.8-1.4-5.1-2.9c-1.1-1.4-1.7-3.2-1.5-5
	c0.3-2,1.1-4,2.2-5.7c1.2-1.9,2.5-3.8,3.9-5.5c-1.4,0-2.7-0.6-3.6-1.6c-0.8-1-0.7-2.5,0.2-3.4c1.1-0.6,2.3-1,3.5-1
	c1.3-0.2,2.6-0.3,3.9-0.5l1.2-0.1c0.3,0,0.4,0,0.6-0.2l0.4-0.5c0.6-0.7,1.1-1.3,1.7-2c1-1.1,2-2.1,3.1-3c2.1-2,4.8-3.2,7.7-3.4
	c0.9,0,1.5,0.7,1,1.5c-0.5,0.7-1.1,1.4-1.7,2l-3.9,4.3c3.1-0.4,6.1-1,9-1.9c1.3-0.4,2.6-0.9,3.9-1.7c1.2-0.6,2-1.7,2.2-3
	c0-2.7-3.4-3.1-5.4-3.3c-3.3-0.2-6.5,0.1-9.7,0.7C23.6,86.2,20.8,87,18,88c0.4,0.2,0.8,0.5,1,0.9c0.2,0.6-0.3,1-0.7,1.3
	c-1.2,0.6-2.4,1-3.6,1.4c-2.4,0.9-4.9,1.5-7.4,1.8c-1,0.2-2-0.6-2.1-1.6c0-0.1,0-0.3,0-0.4c0-0.5,0.2-1,0.4-1.4c0.5-1,1-2,1.7-3
	c0.9-1.4,1.9-2.6,2.9-3.8c0.8-0.9,1.7-1.6,2.7-2.1c1-0.4,2-0.7,3-1c3.2-0.9,6.5-1.7,9.9-2.3c3.2-0.7,6.5-1,9.8-1
	c3.1-0.1,6.2,0.6,8.9,2.1c2.3,1.4,3.7,3.9,3.6,6.6c-0.3,3-2,5.7-4.5,7.3c-4.8,3.6-11.2,5.1-17.1,6l-2.2,0.3l-1.2,0.2l-0.5,0.6
	c3.3,0.4,6.5,1,9.6,2c2.6,0.8,5.6,2.1,6.9,4.8c1.4,2.9,0,5.9-2.1,8c-2.3,2.2-5.1,3.9-8,5C23.9,121.7,18.2,123,12.9,121.7
	 M16.7,106.8c0,0.2-0.5,0.6-0.7,0.8c-0.1,0.1-0.4,0.5-0.6,0.8c-0.4,0.5-0.8,1.1-0.9,1.8c-0.1,1.3,0.6,2.5,1.8,3
	c1.3,0.6,2.7,0.8,4.1,0.7c1.7-0.1,3.3-0.4,4.9-0.9c1.5-0.4,3-1.1,4.3-1.9c1.1-0.7,2.5-1.6,2.8-2.9c0.2-1-0.6-1.7-1.4-2.1
	c-1.2-0.6-2.5-1-3.8-1.2c-1.8-0.4-3.7-0.7-5.6-1l-1.6-0.2c-0.3,0-0.6-0.2-0.8,0.1l-0.5,0.7L16.7,106.8 M17.2,88.6L17.2,88.6
	 M73.7,121.3c-1.9-1.3-2.7-3.9-3-6.1c-1.3,1.6-2.8,3.2-4.4,4.5c-1.1,1-2.4,1.7-3.8,2.2c-1.5,0.5-3.2,0.1-4.5-0.9
	c-1.4-1.5-2.2-3.5-2.4-5.5c-2,2.3-4.3,4.7-7.2,5.8c-1.2,0.5-2.5,0.5-3.8,0.1c-1.4-0.5-2.5-1.6-3.1-3c-2.2-4.2-1.9-9.3,0.8-13.2
	c0.8-1.4,1.8-2.6,2.8-3.8c1.8-2,4.3-4.4,7.2-3.8c1.2,0.2,2,1.2,1.8,2.4c-0.2,1.3-0.7,2.5-1.5,3.6c-0.6,1.1-1.4,2.2-2.3,3.1
	c-1,1-2,1.9-3,3c-0.8,0.7-1.3,1.7-1.3,2.8c0.1,1.5,1.8,1.9,3,1.7c1.4-0.3,2.6-1,3.7-1.8c0.6-0.4,1.2-0.9,1.8-1.3l0.5-0.4
	c0.2-0.2,0.2-0.2,0.2-0.5s0.1-0.8,0.2-1.2c0.6-3.3,1.7-6.5,3.1-9.5c1.4-3.2,3.1-6.3,5.1-9.2c1.7-2.7,3.7-5.1,6-7.2
	c0.9-0.9,2-1.6,3.2-2c0.9-0.3,2,0.1,2.3,1c0.1,0.2,0.1,0.3,0.1,0.5c0.5,3-0.4,6.2-1.6,9c-2.8,6.2-6.6,11.8-11.4,16.7
	c-0.3,0.3-0.7,0.6-0.8,1c-0.1,0.4-0.1,0.7-0.2,1.1c-0.1,0.7-0.1,1.4,0,2.1c0.2,1.2,0.8,2.6,2.2,2.7c1.4,0.1,2.7-1.2,3.6-2.1l3-2.7
	c0.3-0.2,0.2-0.7,0.3-1c0.1-0.3,0.1-0.7,0.2-1.1c0.2-0.8,0.4-1.7,0.6-2.4c0.5-1.6,1.1-3.3,1.7-4.8c1.3-3.2,3-6.4,4.8-9.4
	c1.7-2.8,3.7-5.4,5.9-7.7c1.1-1.1,4.9-4.7,6.3-2.3c0.5,1.2,0.6,2.5,0.3,3.8c-0.2,1.6-0.5,3.2-1.1,4.7c-1.2,3.1-2.7,6-4.5,8.8
	c-1.9,2.9-4,5.6-6.3,8.2c-0.6,0.6-1.1,1.3-1.7,1.9c-0.4,0.4-0.4,1.6-0.4,2.2c-0.2,1.4,0.3,2.7,1.2,3.7c1.2,0.9,2.5,0.1,3.5-0.7
	c0.7-0.5,1.3-1.1,1.9-1.7l2.7-2.4c0.4-0.4,1.1-1,1.6-0.3c0.1,0.3,0.2,0.6,0.1,0.9v1.7c0,0.3-0.1,0.5-0.3,0.8
	c-0.4,0.6-0.8,1.1-1.3,1.6c-1.3,1.7-2.8,3.2-4.3,4.7c-2.1,1.9-5.5,4-8.2,2 M66.3,95c-1.1,2.1-2,4.2-2.7,6.4c1.7-2.1,3.3-4.3,4.6-6.7
	c0.6-1.1,1.2-2.2,1.7-3.3c0.4-0.8,0.6-1.7,0.8-2.6c-0.8,0.6-1.5,1.4-2,2.3C67.8,92.3,67,93.6,66.3,95 M81.5,94.9
	c-1.1,2.1-2,4.2-2.7,6.4c1.7-2.1,3.2-4.3,4.5-6.6c0.6-1.1,1.2-2.2,1.7-3.3c0.4-0.8,0.7-1.7,0.8-2.6c-0.8,0.6-1.5,1.4-2,2.3
	C82.9,92.3,82.2,93.6,81.5,94.9 M171.5,95.8c-1.9-1.6-0.7-4.2,0.5-5.7s3.5-2.9,5.4-1.3s0.8,4.2-0.3,5.7S173.4,97.4,171.5,95.8
	 M52.6,95.8c-1.8-1.5-0.8-4,0.4-5.6c1.2-1.6,3.6-3.1,5.5-1.5s0.8,4.2-0.3,5.7S54.6,97.4,52.6,95.8"/>
<path class="st2" d="M45.8,89.3c-1.5,2-3.5,3.7-5.9,4.7c-2.4,1.2-4.9,2.1-7.5,2.7c-2.7,0.7-5.3,1.2-8.1,1.5l-1,0.1
	c-0.2,0-0.8,0-0.9,0.1L22,99.1l-1.1,1.3c3.2,0.3,6.4,0.9,9.5,1.7c2.6,0.7,5.5,1.7,7.2,3.9c1.5,2,1.4,4.8-0.3,6.8
	c-2.1,2.4-4.7,4.3-7.6,5.5c-3.1,1.5-6.3,2.4-9.7,2.9c-2.9,0.5-5.9,0.2-8.7-0.9c-2.4-0.8-4.1-3.1-4.2-5.6c-0.1-2.7,1.5-5.2,2.9-7.4
	c1.2-1.8,2.5-3.6,3.9-5.3c-1.3,0-2.6-0.2-3.7-0.8c-1-0.6-1.6-2.3-0.4-3.1c1.1-0.5,2.4-0.8,3.6-0.8l4.3-0.5l0.6-0.1
	c0.3,0,0.3-0.1,0.5-0.4l0.8-1c0.5-0.6,1.1-1.3,1.7-1.9c0.9-1,1.9-2,3-2.9c1.1-1,2.4-1.7,3.8-2.3c0.7-0.3,1.4-0.4,2.1-0.6
	c0.2,0,1.8-0.3,1.6,0.1c-0.3,0.5-0.7,1-1.1,1.4l-1.8,2l-4.1,4.5c3-0.4,6-0.9,9-1.6c2.6-0.6,5.5-1.4,7.5-3.3c1-0.8,1.4-2.1,1.2-3.4
	c-0.3-1.1-1.1-2-2.2-2.4c-2.6-0.9-5.4-1.1-8.1-0.8c-3.3,0.2-6.5,0.8-9.7,1.6c-1.6,0.4-3.1,0.9-4.6,1.4c-0.4,0.1-0.9,0.3-1.2,0.6
	c-0.2,0.3,1,0.7,1.2,0.8c0.7,0.4,0.5,0.7-0.1,1c-1,0.5-2.1,0.9-3.2,1.2c-1.5,0.5-3,0.9-4.6,1.3C8.9,92.5,8,92.7,7,92.7
	c-2.7,0-0.2-3.9,0.3-4.8c1.4-2.2,3.2-4.8,5.6-6.1c1-0.5,2.1-0.8,3.1-1.1c1.6-0.5,3.1-0.9,4.7-1.2c3.4-0.8,6.8-1.4,10.3-1.8
	c3.9-0.4,8.5-0.5,12.1,1.4c1.7,0.8,3,2.3,3.6,4C47.4,85.2,47.1,87.5,45.8,89.3z M16.1,106.3c-1,1-1.8,2.2-2.3,3.5
	c-0.3,1.3,0.2,2.7,1.3,3.5c2.2,1.8,5.7,1.5,8.3,1c3.1-0.5,6-1.8,8.5-3.8c1-0.7,1.5-2,1.3-3.2c-0.5-1.1-1.5-1.9-2.7-2.2
	c-2.4-0.8-4.8-1.4-7.3-1.7L21,103l-1-0.1l-0.6-0.1c-0.3,0-0.3,0.1-0.5,0.3L16.1,106.3z M57.4,94.2c-1.1,1.3-2.9,2.3-4.4,1.1
	s-0.3-3.5,0.6-4.7c1-1.2,2.9-2.5,4.4-1.1C59.6,90.8,58.4,92.9,57.4,94.2L57.4,94.2z M53.7,99.6c-0.1,1-0.5,2-1.1,2.9
	c-0.6,1.2-1.4,2.3-2.2,3.3c-0.9,1-1.9,1.8-2.8,2.8c-0.7,0.6-1.3,1.4-1.8,2.3c-0.5,1.2-0.2,2.6,0.7,3.4c1.1,0.7,2.4,0.9,3.6,0.4
	c1.2-0.4,2.3-1,3.3-1.8c1.2-0.8,2.3-1.7,3.4-2.6v2c0,0.5-0.2,0.6-0.5,1c-0.5,0.7-1.1,1.3-1.7,2c-1.9,2.1-4.1,4.3-6.8,5.2
	c-1.1,0.4-2.3,0.3-3.4-0.2c-1.1-0.7-1.9-1.8-2.3-3c-1.3-3-1.4-6.3-0.3-9.4c0.7-1.6,1.6-3.1,2.7-4.5c0.9-1.4,2.1-2.7,3.3-3.8
	c0.9-0.8,2-1.3,3.1-1.6C52.1,97.9,53.7,98.1,53.7,99.6z M71.2,95.2c-1.5,2.7-3.3,5.3-5.2,7.7c-1.1,1.3-2.2,2.7-3.3,3.9l-0.9,0.9
	c-0.3,0.3-0.7,0.6-0.8,1c-0.1,0.7-0.2,1.4-0.3,2.1c-0.1,1.4,0.3,2.7,1.1,3.9c0.9,1,2.3,1.3,3.5,0.7c1.1-0.7,2.2-1.5,3.1-2.4l2.8-2.6
	l0.6-0.6v2c0,0.5-0.2,0.7-0.5,1c-0.5,0.7-1.1,1.4-1.6,2.1c-1.6,2-3.5,3.8-5.6,5.2c-1.5,0.9-3.5,1.6-5.2,0.5c-2.3-1.5-2.8-5-2.9-7.5
	c0-3.1,0.5-6.2,1.6-9c1.1-3.3,2.6-6.4,4.3-9.4c1.6-2.9,3.4-5.6,5.4-8.1c1-1.2,2.1-2.3,3.3-3.4c0.5-0.4,0.9-0.7,1.4-1.1
	c0.5-0.4,1.1-0.6,1.7-0.7c1.2,0,1.1,1.8,1.1,2.6c0,1.1-0.2,2.2-0.4,3.2C73.8,90.1,72.7,92.7,71.2,95.2L71.2,95.2z M70.9,87.9
	c-0.5,0-1,0.6-1.3,0.9c-0.4,0.4-0.8,0.8-1.1,1.3c-0.9,1.2-1.7,2.6-2.4,3.9c-1.7,3.1-3,6.5-3.8,10c2.5-2.5,4.6-5.4,6.3-8.5
	c0.8-1.4,1.5-2.8,2.1-4.3C70.9,90.9,72.1,87.9,70.9,87.9L70.9,87.9z M86.3,95.2c-1.5,2.7-3.3,5.3-5.2,7.7c-1.1,1.3-2.2,2.7-3.3,3.9
	l-0.9,0.9c-0.3,0.3-0.7,0.6-0.8,1c-0.1,0.7-0.2,1.4-0.3,2.1c-0.1,1.4,0.3,2.7,1.1,3.9c0.9,1,2.3,1.3,3.5,0.7
	c1.1-0.7,2.2-1.5,3.1-2.4l2.8-2.6l0.6-0.6v2c0,0.5-0.2,0.7-0.5,1c-0.5,0.7-1.1,1.4-1.6,2.1c-1.6,2-3.4,3.8-5.5,5.2
	c-1.5,0.9-3.5,1.6-5.2,0.5c-2.3-1.5-2.8-5-2.9-7.5c0-3.1,0.5-6.2,1.6-9c1.1-3.3,2.6-6.4,4.3-9.4c1.6-2.9,3.4-5.6,5.4-8.1
	c1-1.2,2-2.3,3.2-3.3c0.5-0.4,0.9-0.7,1.4-1.1c0.5-0.4,1.1-0.6,1.7-0.7c1.2,0,1.1,1.8,1.1,2.6c0,1.1-0.1,2.2-0.4,3.2
	C88.9,90.1,87.8,92.7,86.3,95.2L86.3,95.2z M86,87.9c-0.5,0-1,0.6-1.3,0.9c-0.4,0.4-0.8,0.8-1.1,1.3c-0.9,1.2-1.7,2.6-2.4,3.9
	c-1.7,3.1-3,6.5-3.8,10c2.5-2.5,4.6-5.4,6.3-8.5c0.8-1.4,1.5-2.8,2.2-4.3C86,90.9,87.2,87.9,86,87.9L86,87.9z M163.8,86.2
	c-1.8,2.2-3.8,4.2-5.7,6.3c-2.2,2.6-4.2,5.3-6,8.1c-1.7,2.6-3.2,5.4-4.3,8.3c-0.5,1.3-1,2.7-1.2,4c-0.2,1.1-0.3,2.6,0.5,3.4
	c0.8,0.8,2.3,0.6,3.3,0.2c1.2-0.6,2.4-1.3,3.5-2.1c1.2-0.8,2.4-1.6,3.6-2.4c0.9-0.7,1.8-1.4,2.8-2v2c0,0.5-0.6,0.8-0.9,1.1l-1.8,1.6
	c-2.3,2.1-4.8,4-7.4,5.7c-2.3,1.4-5,3-7.7,1.6c-2.6-1.4-3.2-4.6-2.9-7.4c0.7-6.5,5.2-12,9.2-16.8c1.1-1.2,2.2-2.5,3.2-3.8
	c0.3-0.4,0.6-0.7,0.9-1.1c0.2-0.2,0.3-0.4,0.4-0.6c0-0.3-0.2-0.5-0.5-0.6c-0.1,0-0.1,0-0.2,0c-0.3,0.1-0.7,0.3-0.9,0.6
	c-1.1,0.8-2.1,1.6-3.1,2.5c-4.4,4-8.5,8.3-12.3,12.8c-2.1,2.4-4.1,4.9-6.1,7.4c-0.8,1-1.5,2-2.3,2.9c-0.7,1-1.5,1.9-2.3,2.7
	c-2.6,2-3.3-4.6-3.1-5.9c0.3-1.1,0.7-2.2,1.4-3.2c0.7-1.1,1.5-2.2,2.3-3.3c3.8-5,7.3-10.2,10.4-15.6c0.7-1.2,1.3-2.4,1.6-3.8
	c0.1-0.5,0.2-1.2-0.2-1.6s-0.7-0.1-1,0c-1,0.5-1.9,1.1-2.7,1.9c-1,0.9-1.9,1.8-2.8,2.8c-4.1,4.5-7.9,9.3-11.3,14.4
	c-2,2.8-3.9,5.7-5.8,8.6c-0.7,1.2-1.5,2.4-2.2,3.5c-0.5,0.8-1.4,1.9-2.5,1.4c-1.1-0.5-1.7-2.2-2-3.3c-0.4-1.1-1-2.7-0.3-3.8
	c0.5-0.7,1-1.4,1.5-2l1.5-2.1c0.9-1.2,1.8-2.4,2.6-3.6c1.8-2.6,3.6-5.2,5.3-8c1.7-2.5,3.1-5.2,4.3-7.9c0.6-1.2,0.9-2.5,0.7-3.8
	c-0.3-1.1-1.5-0.9-2.3-0.6c-1.3,0.5-2.5,1.1-3.6,1.8c-1.3,0.7-2.6,1.5-3.9,2.3c-2.5,1.5-5.1,3.1-7.7,4.4c-0.9,0.4-2.4,1.2-3.4,0.8
	c-1-0.4-0.5-1.9-0.4-2.6c0.2-1.5,0.5-2.9,0.9-4.3c0.3-0.9,0.9-1.8,1.7-2.4c1.1-1,2.4-2,3.6-2.9c0.2-0.1,1.6-1.4,1.8-0.9
	c0.1,0.3-0.4,0.6-0.6,0.7c-0.4,0.3-0.7,0.6-1.1,0.9c-0.7,0.5-1.3,1.2-1.5,2.1c2.8-1.7,5.6-3.2,8.6-4.6c2.4-1.2,5-2.1,7.6-2.6
	c0.4-0.1,0.8-0.1,1.2,0c0.7,0.3,1.2,0.8,1.5,1.4c0.8,1.3,1.3,2.6,1.7,4.1c0.2,1.3,0,2.6-0.5,3.8c-0.5,1.5-1.1,2.9-1.8,4.3
	c-1.4,3-2.9,6-4.3,9c2.1-2.7,4.3-5.4,6.6-8.1c2.2-2.6,4.5-5.1,7-7.4c1.2-1.1,2.5-2.1,3.9-3c1.1-0.8,2.3-1.5,3.6-2.1
	c2.4-0.9,4.1,2.5,3.5,4.5c-0.5,1.6-1.1,3.1-1.9,4.6c-0.9,1.8-1.9,3.6-2.9,5.3c-2,3.4-4,6.9-6,10.3c4.3-4.6,8.6-9.2,13.1-13.6
	c1-1,2-1.9,3-2.8c1.1-0.9,2.5-2,3.7-3c1.2-1,2.2-1.9,3.3-2.9c0.8-0.7,2.3-2.2,3.6-1.8c0.5,0.2,0.9,0.6,1.2,1c0.5,0.6,0.9,1.3,1.3,2
	c0.3,0.4,0.5,0.8,0.6,1.3C164.5,85.1,164.3,85.7,163.8,86.2L163.8,86.2z M176.3,94.2c-1.1,1.3-2.9,2.3-4.4,1.1s-0.3-3.5,0.6-4.7
	c1-1.2,2.9-2.5,4.4-1.1C178.5,90.8,177.2,92.9,176.3,94.2L176.3,94.2z M172.5,99.6c-0.1,1-0.5,2-1.1,2.9c-0.6,1.2-1.4,2.3-2.2,3.3
	c-0.9,1-1.9,1.8-2.8,2.8c-0.7,0.6-1.3,1.4-1.8,2.3c-0.5,1.2-0.2,2.6,0.7,3.4c1.1,0.7,2.4,0.9,3.6,0.4c1.2-0.4,2.3-1,3.3-1.8
	c1.2-0.8,2.3-1.7,3.4-2.6v2c0,0.5-0.2,0.6-0.5,1c-0.5,0.7-1.1,1.3-1.7,2c-1.9,2.1-4.1,4.3-6.8,5.2c-1.1,0.4-2.3,0.3-3.4-0.2
	c-1.1-0.7-1.9-1.8-2.3-3c-1.3-3-1.4-6.3-0.3-9.4c0.7-1.6,1.6-3.1,2.7-4.5c1-1.4,2.1-2.6,3.3-3.7c0.9-0.8,2-1.3,3.1-1.6
	C171,97.9,172.5,98.1,172.5,99.6L172.5,99.6z M190.1,95.2c-1.5,2.7-3.3,5.3-5.2,7.7c-1.1,1.3-2.2,2.7-3.3,3.9l-0.9,0.9
	c-0.3,0.3-0.7,0.6-0.8,1c-0.1,0.7-0.2,1.4-0.3,2.1c-0.1,1.4,0.3,2.7,1.1,3.9c0.9,1,2.3,1.3,3.5,0.7c1.1-0.7,2.2-1.5,3.1-2.4l2.8-2.6
	l0.6-0.6v2c0,0.5-0.2,0.7-0.5,1c-0.5,0.7-1.1,1.4-1.6,2.1c-1.6,2-3.5,3.7-5.6,5.1c-1.5,0.9-3.5,1.6-5.2,0.5c-2.3-1.5-2.8-5-2.9-7.5
	c0-3.1,0.5-6.2,1.6-9c1.1-3.3,2.6-6.4,4.3-9.4c1.6-2.9,3.4-5.6,5.4-8.1c1-1.2,2-2.3,3.2-3.3c0.5-0.4,0.9-0.7,1.4-1.1
	c0.5-0.4,1.1-0.6,1.8-0.7c1.2,0,1.1,1.8,1.1,2.6c0,1.1-0.2,2.2-0.4,3.2C192.6,90.1,191.5,92.7,190.1,95.2L190.1,95.2z M189.8,88
	c-0.5,0-1,0.6-1.3,0.9c-0.4,0.4-0.8,0.8-1.1,1.3c-0.9,1.2-1.7,2.6-2.4,3.9c-1.7,3.1-3,6.5-3.8,10c2.5-2.5,4.6-5.4,6.3-8.5
	c0.8-1.4,1.5-2.8,2.2-4.3C189.7,90.9,191,87.9,189.8,88L189.8,88z M205.2,95.2c-1.5,2.7-3.3,5.3-5.2,7.7c-1.1,1.3-2.2,2.7-3.3,3.9
	l-0.9,0.9c-0.3,0.3-0.7,0.6-0.8,1c-0.1,0.7-0.2,1.4-0.3,2.1c-0.1,1.4,0.3,2.7,1.1,3.9c0.9,1,2.3,1.3,3.5,0.7
	c1.1-0.7,2.2-1.5,3.1-2.4l2.8-2.6l0.6-0.6v2c0,0.5-0.2,0.7-0.5,1c-0.5,0.7-1.1,1.4-1.6,2.1c-1.6,2-3.5,3.7-5.6,5.1
	c-1.5,0.9-3.5,1.6-5.2,0.5c-2.3-1.5-2.8-5-2.9-7.5c0-3.1,0.5-6.2,1.6-9c1.1-3.3,2.6-6.4,4.3-9.4c1.6-2.9,3.4-5.6,5.4-8.1
	c1-1.2,2-2.3,3.2-3.3c0.5-0.4,0.9-0.7,1.4-1.1c0.5-0.4,1.1-0.6,1.7-0.7c1.2,0,1.1,1.8,1.1,2.6c0,1.1-0.1,2.2-0.4,3.2
	C207.7,90.1,206.6,92.7,205.2,95.2L205.2,95.2z M204.9,88c-0.5,0-1,0.6-1.3,0.9c-0.4,0.4-0.8,0.8-1.1,1.3c-0.9,1.2-1.7,2.6-2.4,3.9
	c-1.7,3.1-3,6.5-3.8,10c2.5-2.5,4.6-5.4,6.3-8.5c0.8-1.4,1.5-2.8,2.2-4.3C204.8,90.9,206.1,87.9,204.9,88L204.9,88z M211.7,115.1
	c1.8,2,5,0.8,6.9-0.3c2.2-1.3,4.3-2.9,6.2-4.6v1.9c0,0.2-0.3,0.4-0.4,0.6l-0.8,1c-0.6,0.6-1.2,1.3-1.8,1.9c-2,2.3-4.5,4.1-7.2,5.2
	c-2.7,0.9-5.7,0.7-7.5-1.7c-1.6-2.4-2.1-5.4-1.5-8.2c0.6-2.9,2-5.6,4.2-7.6c2.2-2.5,5-4.4,8-5.7c2.1-0.8,6.6-1.6,6.8,1.8
	c0.1,3-2.3,5.5-4.6,7.2c-2.1,1.5-4.4,2.8-6.8,3.9c-0.6,0.3-1.3,0.6-1.9,0.8c-0.2,0.1-0.4,0.1-0.4,0.3v0.6
	C210.7,113.2,211,114.2,211.7,115.1L211.7,115.1z M216,106.5c1.4-1.1,2.6-2.5,3.5-4c0.3-0.5,0.7-1.2,0.4-1.8c-0.2-0.6-1.2-0.3-1.7,0
	c-3.4,1.5-6.6,4.8-7.2,8.6C212.8,108.6,214.5,107.7,216,106.5L216,106.5z M237.3,114.1c1-0.1,1.9-0.4,2.7-1c1.5-0.9,2.9-1.9,4.3-3.1
	v2c0,0.4-0.7,0.9-1,1.2l-1.7,1.7c-1,1-2,2-3.1,2.9c-1.1,1-2.4,1.8-3.8,2.2c-3.1,0.7-4.1-3-3.9-5.4c0.3-3.2,2.4-6,4.3-8.6
	c0.5-0.7,1-1.3,1.6-2c-1.3,0.3-2.7,0.5-4,0.8l-2,0.4c-0.3,0.1-0.4,0.1-0.5,0.4c-0.2,0.3-0.3,0.6-0.5,0.9c-1.4,2.3-3.1,4.3-5.2,6
	v-2.1c0-0.2,0.4-0.5,0.5-0.7c0.3-0.3,0.6-0.7,0.8-1.1c0.4-0.6,0.9-1.2,1.3-1.8c-0.7-0.2-1.3-0.6-1.7-1.2c-0.3-0.6-0.3-1.3-0.1-2
	c0.5-1.7,1.4-3.4,2.6-4.7c0.9-1.4,2.2-2.4,3.7-2.9c1.9-0.4,0.3,2.2,0,2.8c2.4-0.4,4.9-0.8,7.4-1c0.7,0,1.7-0.3,2.3,0.3
	c0.4,0.5,0.7,1.2,0.8,1.9c0.2,0.7,0.2,1.4,0,2.1c-0.6,1.1-1.4,2.1-2.4,2.9c-1.1,1.1-2,2.4-2.8,3.7C236,110.3,234,114.1,237.3,114.1z
	 M55.3,143.9c2.5,0.6,5.3,1.3,7.2,3.1c2,1.9,2.7,4.8,2,7.4c-1.5,5.6-8.3,7-13.3,7c-5.4,0-10.9,0-16.2,0h-0.8c-0.1,0,0-0.2,0-0.3
	v-0.5c0-0.1,0.8-0.1,1-0.1c1.2,0.1,2.4-0.3,3.2-1.2c0.5-1,0.6-2.1,0.5-3.2c0-2,0-4,0-6c0-5.5,0.1-11.1,0-16.6
	c0.1-1.1-0.1-2.2-0.6-3.2c-0.9-0.8-2.1-1.2-3.3-1.1c-0.1,0-0.8,0-0.8-0.1v-0.5c0-0.1-0.1-0.3,0.1-0.3h10.5c2.8,0,5.6-0.1,8.4,0.1
	c2.5,0,4.9,0.6,6.9,2c2.5,1.7,3.7,4.7,3.2,7.7C62.3,141.6,58.5,143.1,55.3,143.9z M46.4,155.7c-0.1,0.8,0,1.7,0.2,2.5
	c0.5,1.4,2.1,1.5,3.4,1.3c3-0.3,5.4-2.6,5.8-5.5c0.5-2.8-0.3-6.3-2.9-7.8c-1.1-0.6-2.2-0.9-3.4-1c-0.7-0.1-1.4-0.1-2.1-0.1
	c-0.2,0-1-0.2-1,0.1C46.4,148.6,46.4,152.1,46.4,155.7L46.4,155.7z M54.2,132.9c-1.5-2.4-4.3-2.8-6.9-2.9c-0.2,0-0.8-0.1-0.8,0.1
	v0.4c0,0.5,0,1.1,0,1.6l0,9.8v1.3c2.6,0,5.5-0.2,7.2-2.4C55.4,138.5,55.5,135.4,54.2,132.9z M88.2,160.9c-1.5,0.9-3.3,1.1-5,0.5
	c-1.4-0.6-2.3-2-2.3-3.5c-2,1.8-4.5,3.6-7.2,3.8c-2.5,0.2-4.7-1.7-4.9-4.1c0-0.3,0-0.7,0-1c0.3-2.4,2.1-4.1,4-5.4
	c2.3-1.5,4.8-2.8,7.3-3.9c0.1,0,0.8-0.3,0.8-0.4v-1.6c0-1,0-2-0.1-3c-0.1-1.1-0.9-2.1-2-2.4c-1.4-0.4-2.9-0.1-4,0.9
	c-0.3,0.5-0.3,1.1,0.1,1.5c0.5,0.6,0.9,1.3,1.2,2c0.2,1.4-0.6,2.7-1.9,3.1c-1.3,0.5-2.8,0.2-3.9-0.7c-1.1-1-1.3-2.5-0.7-3.8
	c1.1-2.9,4.3-4.2,7.1-4.8c2.8-0.5,6.2-0.5,8.5,1.3c1.1,0.7,1.8,1.8,2.2,3c0.2,1.1,0.3,2.3,0.3,3.4c0,1.2,0,2.5,0,3.8v5.4
	c0,0.6,0,1.3,0,1.9c0,0.6,0.1,1.2,0.6,1.4c0.7,0.4,1.3-0.3,1.7-0.8l0.5,0.4l0.2,0.2c-0.1,0.2-0.3,0.5-0.4,0.7
	C89.6,159.7,88.9,160.3,88.2,160.9z M80.9,148.6c-2.2,1.3-5.6,3.6-5.4,6.5c0.1,1.4,1.2,2.4,2.5,2.4c0.5,0,1.1-0.2,1.5-0.5
	c0.3-0.1,1.3-0.7,1.3-1.1C80.9,153.5,80.9,151.1,80.9,148.6L80.9,148.6z M112.3,143.6c-0.9,1-2.5,1.2-3.6,0.4c-1-0.7-1.6-1.9-3-1.2
	c-1.2,0.8-2,2.1-2.3,3.5c-0.4,1.4-0.5,2.9-0.5,4.3c0,1.4,0,2.9,0,4.3c0,0.4,0,0.8,0,1.2c-0.1,0.9,0,1.9,0.2,2.8
	c0.2,0.6,0.6,1,1.2,1.2c0.3,0.1,0.6,0.1,0.9,0.2c0.2,0,0.8-0.1,0.8,0.2c0,0.1,0,0.8,0,0.8H93.5c0-0.2,0-0.4,0-0.6
	c0-0.2-0.1-0.3,0.2-0.3c0.4,0,0.7-0.1,1.1-0.3c1-0.4,1.1-1.4,1.1-2.4c0.1-1.2,0.1-2.4,0.1-3.6v-9.7c0.1-1.3,0.1-2.6-0.3-3.8
	c-0.2-0.6-0.6-1-1.2-1.1c-0.3-0.1-0.7-0.2-1.1-0.2c0-0.1,0-0.4,0-0.5s-0.1-0.4,0.1-0.4h9.1c0.2,0,0.1,2,0.1,2.2c0,1,0,2,0,3
	c1.5-2.4,3.4-5.2,6.4-5.8c1.4-0.4,2.8,0.2,3.5,1.5c0.7,1.4,0.5,3.1-0.5,4.3L112.3,143.6z M113.3,152.4v-4.1c0-0.3,0-0.7,0-1h14
	c0.3,0,0.3,0,0.3,0.2v4.5c0,0.3,0.1,0.3-0.2,0.3h-14.2H113.3z M150.9,143.9c2.5,0.6,5.3,1.3,7.2,3.1c2,1.9,2.7,4.8,2,7.4
	c-1.5,5.6-8.3,7-13.3,7c-5.4,0-10.9,0-16.2,0h-0.8c-0.1,0,0-0.2,0-0.3v-0.5c0-0.1,0.8-0.1,1-0.1c1.2,0.1,2.4-0.3,3.2-1.2
	c0.5-1,0.6-2.1,0.5-3.2c0-2,0-4,0-6c0-5.5,0.1-11.1,0-16.6c0.1-1.1-0.1-2.2-0.6-3.2c-0.9-0.8-2.1-1.2-3.3-1.1c-0.1,0-0.8,0-0.8-0.1
	v-0.5c0-0.1-0.1-0.3,0.1-0.3h10.5c2.8,0,5.6-0.1,8.4,0.1c2.5,0,4.9,0.6,6.9,2c2.5,1.7,3.7,4.7,3.2,7.7c-1,3.6-4.7,5.1-8,5.9
	L150.9,143.9z M141.9,155.7c-0.1,0.8,0,1.7,0.2,2.5c0.5,1.4,2.1,1.5,3.4,1.3c3-0.3,5.4-2.6,5.9-5.5c0.5-2.8-0.3-6.3-2.9-7.8
	c-1.1-0.6-2.2-0.9-3.4-1c-0.7-0.1-1.4-0.1-2.1-0.1c-0.2,0-1-0.2-1,0.1C141.9,148.6,141.9,152.1,141.9,155.7z M149.7,132.9
	c-1.5-2.4-4.3-2.8-6.9-2.9c-0.2,0-0.8-0.1-0.8,0.1v0.4c0,0.5,0,1.1,0,1.6v9.8v1.3c2.6,0,5.5-0.2,7.2-2.4
	C150.9,138.5,151.1,135.4,149.7,132.9L149.7,132.9z M163.3,152.4v-4.1c0-0.3,0-0.7,0-1h14c0.3,0,0.3,0,0.3,0.2v4.5
	c0,0.3,0.1,0.3-0.2,0.3H163.3L163.3,152.4z M212,156c-2.3,3-5.7,5-9.4,5.7c0.7,2.2,2.2,4.1,4.2,5.2c2.3,1.1,4.9,1.5,7.4,1.1v1.4
	c0,0.2-0.7,0.2-0.8,0.3c-1.6,0.4-3.1,0.6-4.7,0.7c-3,0.2-6.1-0.4-8.7-1.9c-2.4-1.4-4.4-3.6-5.6-6.1l-0.2-0.5
	c-0.1-0.2-0.2-0.2-0.4-0.2l-1-0.3c-0.7-0.2-1.4-0.4-2.1-0.7c-1.3-0.5-2.4-1.3-3.5-2.1c-4.5-3.7-6.9-9.5-6.3-15.3
	c0.4-5.6,3.6-10.6,8.5-13.4c5.1-2.7,11.1-3,16.5-0.9c5.1,2.2,8.9,6.8,9.9,12.2C216.7,146.4,215.3,151.8,212,156L212,156z
	 M205.2,133.8c-1-2.3-3.1-3.9-5.6-4.4c-2.4-0.4-4.9,0.4-6.5,2.2c-1.6,2-2.7,4.3-3.1,6.9c-0.5,3.1-0.7,6.3-0.4,9.5
	c0.3,4.6,1.7,11.1,7,12.2c2.6,0.6,5.3-0.3,7.1-2.3c1.5-1.9,2.4-4.2,2.8-6.6c0.6-3.3,0.7-6.7,0.4-10
	C206.9,138.7,206.3,136.1,205.2,133.8L205.2,133.8z"/>
</svg>
