<?xml version="1.0" encoding="utf-8"?>
<!-- Generator: Adobe Illustrator 21.1.0, SVG Export Plug-In . SVG Version: 6.00 Build 0)  -->
<svg version="1.1" id="Layer_1" xmlns="http://www.w3.org/2000/svg" xmlns:xlink="http://www.w3.org/1999/xlink" x="0px" y="0px"
	 viewBox="0 0 250 250" style="enable-background:new 0 0 250 250;" xml:space="preserve">
<style type="text/css">
	.st0{fill:#221F1F;}
</style>
<title>Grocery</title>
<path class="st0" d="M24.5,106.1c0.2,1,0.3,2.1,0.3,3.1c0,5.3-3,10.2-8.8,10.2c-4.3,0-6.8-3.1-6.8-7.4c0-9.5,12.4-16.2,21.6-16.2
	c3.5-0.1,6.9,0.6,10,2c2.1-1.1,4.4-1.8,6.8-2l0.1,0.2c-2.1,0.2-4.2,1.1-5.9,2.3c2.2,1.2,3.5,3.5,3.5,5.9c0,5-5.3,6.9-9.2,7.5v0.1
	c3.5,0.4,6.9,0.9,6.9,5.5c0,6.4-5.8,10.4-11.5,10.4c-2.3,0-5.1-1.2-5.1-3.9c0-1.5,1.1-2.7,2.6-2.8c0.8,0,1.6,0.3,2.2,0.9
	c-1.1,0.6-1.7,1.8-1.7,3c-0.1,1.1,0.7,2.1,1.8,2.3c0.1,0,0.3,0,0.5,0c4.4,0,7.2-5.6,7.2-9.6c0-3.8-2-5.5-5.9-5.5v-0.3
	c4.1-0.3,8.4-2.6,8.4-7.7c0.1-1.6-0.6-3.2-1.7-4.3c-8.4,6.9-10.7,28-27.3,28c-3.6,0-7.2-2.1-7.2-5.6c-0.2-1.5,0.8-2.8,2.2-3
	c0.1,0,0.3,0,0.4,0c1.1-0.1,2.1,0.8,2.1,1.9c0,0.1,0,0.1,0,0.2c0,0.9-0.6,1.8-1.5,2c0,0.2,0,0.3,0,0.5c0,2.3,1.6,3.5,4.4,3.5
	c11.5,0,13.2-21.4,25.8-28.4c-2.4-1.8-5.3-2.7-8.2-2.7c-8,0-17.9,6-17.9,15.9c0,2.8,1.5,6.4,4.6,6.4c4.4,0,7-4.4,7-9.2
	c0-1.1-0.1-2.2-0.3-3.2H24.5L24.5,106.1z"/>
<path class="st0" d="M44.2,126.1c1.8-0.3,2.9-0.7,2.9-2.6v-10.1c0-1.7-1.3-2-2.8-2V111l6-0.9v2.5c1.3-0.9,3.5-3.3,5.3-3.3
	c2.1,0,3.2,1.3,3.3,3.5l-3.3,1.9c0.2-0.5,0.3-1,0.3-1.5c0-0.9-0.6-1.6-1.5-1.7c-1.6,0-3.1,2-4.1,3v9.2c0,1.9,1,2.2,3.1,2.6v0.6
	c-1.8-0.1-3.6-0.2-5.5-0.2c-1.2,0-2.4,0-3.6,0.2L44.2,126.1L44.2,126.1z"/>
<path class="st0" d="M62.7,115.7c0-2.7-0.2-4.2-3-4.5v-0.6l6.2-0.5v12.7c0,2.9,0.8,3.2,3.2,3.3v0.6c-2-0.1-3.9-0.2-5.8-0.2
	c-1.2,0-2.5,0.1-3.7,0.2v-0.6c2.2,0,3-0.5,3-3.3L62.7,115.7L62.7,115.7z M66,99.7c-0.1,1.2-1.2,2.1-2.3,2c-1.2-0.1-2.1-1.2-2-2.3
	c0.1-1.1,1-2,2.1-2C65.1,97.4,66,98.4,66,99.7z"/>
<path class="st0" d="M69.5,121H70c1.5,2.4,3.9,4.9,6.8,4.9c1.5,0,3.1-0.6,3.1-2.3c0-4.3-10.1-3.2-10.1-8.9c-0.2-2.5,1.7-4.7,4.3-4.9
	c0.2,0,0.4,0,0.6,0c2.1,0,3.9,0.9,6,1l0.2,4.6h-0.5c-1.2-2.2-3.3-4.3-5.8-4.3c-1.3,0-2.7,0.6-2.7,2.2c0,3.6,10.1,3,10.1,8.8
	c0,4-2.7,5.1-6,5.1c-2.5,0-4.9-1-6.3-1.2L69.5,121z"/>
<path class="st0" d="M82.3,111.9v-0.7c3.5-0.1,4.9-3.9,5.9-6.9h0.6v6.3h5.6v1.3h-5.6V122c0,1.5,0.2,3,1.8,3c1.5-0.1,2.8-0.8,3.7-2
	l0.3,0.4c-1.8,1.8-3.4,3.7-6,3.7c-2.3,0-3-1.7-3-3.7v-11.6L82.3,111.9z"/>
<path class="st0" d="M112.9,118.5c0,4.8-3.9,8.8-8.7,8.8c-4.8,0-8.8-3.9-8.8-8.7c0-4.8,3.9-8.8,8.7-8.8c0,0,0,0,0.1,0
	c4.6-0.3,8.5,3.2,8.8,7.8C112.9,117.9,112.9,118.2,112.9,118.5z M98.9,118c0,3.7,1.9,8,5.9,8c3.1,0,4.5-3.6,4.5-6.9
	c0-3.6-2-7.9-5.9-7.9C100.3,111.2,98.9,114.7,98.9,118L98.9,118z"/>
<path class="st0" d="M112.5,126.1c2.8-0.2,3.1-1.1,3.1-4.4V99.9c0-2.2-0.4-3-2.9-3v-0.5l6-0.8v26.1c0,3.4,0.3,4.3,3.2,4.4v0.6
	c-1.6-0.1-3.2-0.2-4.9-0.2c-1.6,0-3.1,0-4.6,0.2L112.5,126.1L112.5,126.1z"/>
<path class="st0" d="M153.9,113v-0.5h2.1c3.2-6.5,7.6-11.2,14.9-12.7l0,0c-3.6,0-7.3-0.2-11-0.2c-8,0-21.3,1.6-21.3,9
	c0,3.4,4,4.7,6.8,4.7c5.8,0,9.9-3.1,9.9-8.6v-1.2h0.5v1.3c-0.1,5.8-4.8,10.5-10.6,10.6c-3.5,0-7.2-2.2-7.2-6.2c0-2.9,1.6-5.5,4-7
	c6.8-4.9,15.7-5.6,23.4-5.6c4.6,0,10.2,0.5,12.5,0.6c1.5,0,2.1,0.5,2.1,1.6c0,0.9-1,1.6-3.4,1.6c-1.7,0-3.5-0.2-5.2-0.2
	c-5.2,0-9.2,8.3-11.2,12.4c2.1-0.2,5,0,5.9-2.5c1.5-0.1,3.1-0.2,4.6-0.2c-3.7,2.9-7.7,6.1-9.5,10.7h-0.4c0.9-2.8,2.1-5.5,3.6-8
	c-1.5,0.2-3,0.4-4.5,0.4c-4.6,7.5-9.1,14.6-18.9,14.6c-3.4,0-8.5-1.6-8.5-5.9c-0.1-1.6,1-2.9,2.6-3.1c1.1-0.1,2.1,0.7,2.2,1.9
	c0,0.1,0,0.1,0,0.2c0.1,0.9-0.6,1.8-1.6,1.9c0.2,3.3,2.6,4.5,5.4,4.5c7.5,0,11.1-8.4,14.5-14.1L153.9,113z"/>
<path class="st0" d="M170.7,113.8c0.8-3.6,3.1-4,6.1-4s5.8,1.2,5.8,4.9v8c0,1.1,0.6,2.1,1.7,2.1c1-0.2,2-0.7,2.7-1.5l0.4,0.5
	c-1.1,1.1-2.9,3.4-4.6,3.4c-1.2,0-2.4-1.7-3.2-2.5c-1.7,1.4-3.9,2.3-6.1,2.5c-2.3,0.1-4.3-1.8-4.4-4.1c0-0.1,0-0.1,0-0.2
	c0-4.7,5.4-5.3,10.5-5.5v-3.3c0.1-1.7-1.1-3.2-2.8-3.3c-0.2,0-0.3,0-0.5,0c-1.3,0-2.2,1.7-2.2,3.7L170.7,113.8L170.7,113.8z
	 M179.6,119.1c-0.9-0.3-1.8-0.4-2.7-0.4c-2.1,0-4.3,1-4.3,3.5c0,1.5,1.1,2.7,2.6,2.7c0.1,0,0.3,0,0.4,0c1.5-0.1,2.9-0.6,4-1.5
	L179.6,119.1L179.6,119.1z"/>
<path class="st0" d="M186.1,126.1c1.8-0.3,2.9-0.7,2.9-2.6v-10.1c0-1.7-1.3-2-2.7-2V111l5.9-0.9v2.5c1.3-0.9,3.5-3.3,5.3-3.3
	c2.1,0,3.2,1.3,3.2,3.5l-3.2,1.8c0.2-0.5,0.2-1,0.2-1.5c0-0.9-0.6-1.6-1.5-1.7c-1.5,0-3.1,2-4.1,3v9.2c0,1.9,1.1,2.2,3.1,2.6v0.6
	c-1.8-0.1-3.7-0.2-5.5-0.2c-1.2,0-2.4,0-3.6,0.2L186.1,126.1L186.1,126.1z"/>
<path class="st0" d="M207.1,123.5c0,1.9,1.1,2.2,2.9,2.6v0.6c-1.6-0.1-3.4-0.2-5.3-0.2c-1.2,0-2.4,0-3.7,0.2v-0.6c2-0.3,3-0.7,3-2.6
	v-8.9c0-2.7-0.7-3.1-2.7-3.2V111l5.9-0.9v2.2c1.5-1.4,3.5-2.3,5.6-2.5c1.8,0,3.5,0.9,4.5,2.4c1.5-1.3,3.4-2.1,5.3-2.4
	c3.4,0,5.5,2,5.5,6v7.7c0,1.9,1.1,2.2,3,2.6v0.6c-1.7-0.1-3.6-0.2-5.4-0.2c-1.1,0-2.2,0.1-3.4,0.2v-0.6c1.6-0.3,2.6-0.7,2.6-2.6
	v-7.3c0-2.8-1.5-4.3-3.3-4.3c-1.5-0.1-2.9,0.4-4,1.3v10.2c0,1.9,1,2.2,2.8,2.6v0.6c-1.6-0.1-3.4-0.2-5.2-0.2c-1.1,0-2.3,0.1-3.4,0.2
	v-0.6c1.6-0.3,2.7-0.7,2.7-2.6v-7.3c0-2.8-0.6-4.5-3.3-4.5c-1.6,0-2.4,0.6-4,2.1L207.1,123.5L207.1,123.5z"/>
<path class="st0" d="M232,121h0.6c1.5,2.4,3.9,4.9,6.8,4.9c1.3,0,3.1-0.6,3.1-2.3c0-4.3-10.1-3.2-10.1-8.9c-0.2-2.5,1.7-4.7,4.2-4.9
	c0.2,0,0.4,0,0.6,0c2.1,0,4,0.9,6,1l0.3,4.6h-0.6c-1.1-2.2-3.3-4.3-5.8-4.3c-1.3,0-2.7,0.6-2.7,2.2c0,3.6,10.1,3,10.1,8.8
	c0,4-2.7,5.1-5.9,5.1c-2.6,0-4.9-1-6.3-1.2L232,121L232,121z"/>
<path class="st0" d="M114.9,140.1c-0.1,0.1-0.1,0.2-0.2,0.3c-1,0.9-1.9,2.1-2.6,3.3c-0.1,0.3-0.3,0.6-0.3,0.9
	c-0.1,0.6,0,0.9,0.7,0.8c0.5,0,0.9-0.2,1.3-0.3c1.8-0.7,3.5-1.6,5.1-2.5c0.4-0.2,0.8-0.6,1.1-1c0.3-0.5,0.6-0.9,0.9-1.3
	c0.4-0.5,1-0.6,1.6-0.3l-0.5,0.8c-0.9,1.3-1.8,2.7-2.7,4c-0.1,0.3-0.2,0.5-0.3,0.8c0,0.2,0,0.3,0,0.5l0.8-0.5c1-0.8,2.1-1.6,3.1-2.3
	c0.4-0.2,0.7-0.4,1.1-0.6c0.2-0.1,0.3-0.1,0.5,0c0.6,0.2,0.7,0.5,0.4,1.1c-0.2,0.3-0.5,0.7-0.7,1c-0.1,0.2-0.2,0.4-0.2,0.7
	c0,0.4,0.1,0.6,0.6,0.5c0.4-0.1,0.8-0.2,1.2-0.4c1.7-0.8,3.3-1.5,4.9-2.3c0.2-0.1,0.4-0.3,0.6-0.5c0.7-0.6,1.4-1.1,2.1-1.7
	c0.2-0.1,0.4-0.2,0.6-0.3c0.7-0.3,1.5,0,1.8,0.7c0,0,0,0.1,0,0.1c0,0.1,0.1,0.3,0.1,0.4c-0.1,0-0.3-0.1-0.4-0.1
	c-0.4-0.2-0.9-0.2-1.3,0c-1,0.5-1.9,1.2-2.7,2c-0.5,0.5-1,1.1-1.4,1.6c-0.1,0.1,0,0.3-0.1,0.4c-0.1,0.1,0.3,0,0.4,0
	c0.8-0.4,1.5-0.8,2.3-1.3c0.8-0.4,1.5-1,2-1.7c0.3-0.3,0.8-0.3,1.1,0c0.1,0.1,0.1,0.3,0,0.4c-0.2,0.3-0.5,0.7-0.7,1
	c-0.2,0.2-0.3,0.5-0.4,0.8c-0.1,0.4,0,0.5,0.4,0.5c0.3-0.1,0.7-0.2,1-0.3c1.8-0.8,3.6-1.6,5.3-2.4c0.1-0.1,0.2-0.2,0.3-0.3
	c0.4-0.8,0.7-1.6,0.8-2.5c0-0.3,0.1-0.3,0.4-0.2c0.4,0.1,0.7,0.6,0.6,1c0,0,0,0,0,0.1c-0.1,0.3-0.2,0.7-0.4,1.1
	c1.7-1.5,3.8-2.5,6.1-2.7c-0.1,0.1-0.2,0.1-0.3,0.2c-1.7,0.8-3.3,1.7-4.8,2.9c-1.7,1.3-3.1,2.8-4.1,4.6c-0.1,0.2-0.3,0.2-0.4,0
	c-0.1-0.3-0.1-0.6,0-0.9c0.3-0.6,0.7-1.2,1-1.8l0.3-0.4l-0.3,0.1c-1.6,0.7-3.1,1.4-4.7,2.1c-0.3,0.1-0.6,0.2-0.9,0.2
	c-0.4,0.1-0.9-0.2-1-0.6c0,0,0-0.1,0-0.1c0-0.3-0.1-0.6-0.1-0.9l-0.2,0.1c-0.9,0.6-1.8,1.3-2.7,1.9c-0.3,0.2-0.6,0.3-1,0.4
	c-0.5,0.1-0.9-0.3-1-0.7c0-0.2,0-0.3,0.1-0.5c0.2-0.4,0.4-0.8,0.6-1.2c-0.6,0.3-1.2,0.6-1.9,0.9c-0.7,0.3-1.4,0.6-2.2,0.9
	c-0.4,0.1-0.9,0.1-1.3,0c-0.7-0.2-1.2-0.9-1-1.6c0-0.1,0-0.1,0-0.2c0-0.2,0.1-0.3,0.1-0.5l-0.1-0.1c-0.2,0.1-0.5,0.2-0.7,0.3
	c-0.8,0.6-1.5,1.1-2.3,1.7c-0.5,0.4-0.9,0.7-1.4,1.1c-0.2,0.1-0.4,0.1-0.6,0.1c-0.1,0-0.2-0.3-0.2-0.5c0.1-0.9,0.3-1.8,0.7-2.6
	l0.2-0.4c-1.2,0.6-2.3,1.2-3.4,1.8c-0.8,0.4-1.6,0.7-2.4,1c-0.7,0.3-1.6,0-2-0.7c-0.1-0.3-0.2-0.7-0.3-1l-0.3,0.2
	c-1.7,1-3.5,1.8-5.3,2.4c-1,0.3-1.3,0-1.3-1c0.1-0.6,0.2-1.3,0.3-1.9c0-0.1,0-0.2,0.1-0.4l-1,0.8c-0.7,0.6-1.6,1.2-2.5,1.5
	c-0.3,0.1-0.7,0.3-1,0c-0.3-0.2-0.4-0.6-0.3-1c0.1-0.7,0.4-1.3,0.9-1.9c0.8-1.1,1.8-2,2.9-2.7c0.7-0.4,1.3,0,1.3,0.8
	c-0.9,0-1.7,0.4-2.3,1.1c-0.6,0.6-1.2,1.3-1.8,2c-0.2,0.2-0.3,0.5-0.5,0.7v0.1c0.1,0,0.3,0,0.4-0.1c1.1-0.4,2-1,2.9-1.7
	c1.4-1.1,2.5-2.5,3.4-4c1.1-1.6,2.2-3.3,3.3-4.9c0.1-0.2,0.2-0.6,0.6-0.4c0.4,0.2,0.5,0.7,0.2,1.1l-1.8,2.5c-1.5,1.9-2.8,3.9-4,6
	c-0.2,0.4-0.4,0.8-0.5,1.2c-0.2,0.6,0.1,1,0.7,0.8c0.6-0.1,1.3-0.3,1.9-0.6c1.2-0.5,2.4-1.1,3.6-1.7c0.2-0.1,0.3-0.2,0.4-0.4
	c0.5-0.8,1.1-1.7,1.6-2.5c0.4-0.5,1-0.5,1.6-0.5c0,0,0.1,0,0.1,0L114.9,140.1z"/>
<path class="st0" d="M219.4,136.2l1.5-0.2c0.8-0.1,1.7-0.2,2.5-0.3c0.2,0,0.6-0.1,0.6,0.3c0,0.4-0.4,0.9-0.7,0.8
	c-1.3-0.2-2.7-0.1-4,0.2c-0.3,0-0.6,0.2-0.7,0.5c-1.6,2.3-3.1,4.7-4.3,7.3c-0.3,0.6-0.5,1.2-0.7,1.8c0,0.1,0,0.3,0,0.5
	c0,0.3,0.2,0.5,0.5,0.4c0.5-0.1,0.9-0.2,1.3-0.4c1.5-0.8,3-1.7,4.4-2.7l2-1.1c0.1-0.1,0.3-0.2,0.3-0.3c0.6-0.7,1.2-1.5,1.8-2.2
	c0.5-0.4,1.3-0.3,1.7,0.2c0,0,0.1,0.1,0.1,0.1c-0.1,0-0.2,0.1-0.3,0.1c-0.5,0-0.9,0.2-1.2,0.6c-0.6,0.7-1.2,1.4-1.7,2.2
	c-0.2,0.3-0.3,0.7-0.4,1.1c-0.1,0.4,0.1,0.5,0.4,0.4c0.7-0.2,1.3-0.6,1.7-1.3c-0.4-0.5-0.4-0.6,0-1.1c0.3-0.3,0.6-0.6,0.9-0.8
	c0.1-0.1,0.2-0.1,0.3-0.1c0.2,0,0.5,0,0.5,0.1c0.1,0.1,0,0.4,0,0.6c-0.1,0.2-0.2,0.4-0.3,0.5v0.1c0.4,0,0.8,0,1.2-0.1
	c1.1-0.3,2.1-0.6,3.2-1c0.1-0.1,0.3-0.2,0.3-0.3c0.5-0.8,0.7-1.6,0.8-2.5c0-0.2,0.1-0.3,0.3-0.2c0.5,0.1,0.8,0.5,0.7,1
	c0,0.1,0,0.1-0.1,0.2c-0.1,0.3-0.2,0.6-0.3,0.9c1.7-1.5,3.8-2.4,6.1-2.6c-0.1,0.1-0.2,0.2-0.3,0.2c-1.7,0.8-3.4,1.7-4.8,2.9
	c-1.6,1.3-3,2.8-4.1,4.6c0,0.1-0.1,0.2-0.2,0.2c-0.1,0-0.2-0.1-0.2-0.2c-0.2-0.3-0.2-0.7,0-1c0.4-0.7,0.8-1.3,1.2-2l0.2-0.3
	c-0.9,0.2-1.7,0.5-2.6,0.7c-0.6,0.1-1.3,0.2-1.9,0.3c-0.2,0-0.4,0.1-0.5,0.3c-0.5,0.5-0.9,1-1.3,1.3c-0.3,0.3-0.7,0.4-1.1,0.5
	c-0.4,0.2-0.8,0-1-0.4c0-0.1-0.1-0.2-0.1-0.3c0-0.4,0-0.8,0-1.1c0-0.1,0-0.2,0-0.3l-1.1,0.7c-1.3,0.9-2.8,1.8-4.2,2.7
	c-0.7,0.4-1.4,0.7-2.1,0.9c-0.9,0.3-1.3-0.1-1.3-1c-0.1-1.4,0.2-2.8,0.9-4c0.9-1.6,1.9-3.2,2.9-4.7c0.3-0.5,0.6-1,0.9-1.5h-0.5
	c-0.9,0.2-1.9,0.2-2.9,0c-0.6-0.1-1.1-0.5-1.4-1.1c-0.1-0.2-0.1-0.4-0.1-0.6l0.1-0.1c0.2,0,0.4,0.1,0.6,0.2c1,0.7,2.2,0.9,3.3,0.7
	c1.3-0.1,1.3,0,2.1-1.2c0.4-0.6,0.7-1.3,1.1-1.9c0.3-0.4,0.8-0.5,1.2-0.3c0.1,0.1,0.2,0.2,0.2,0.3c0,0.2-0.1,0.3-0.2,0.5l-1.3,2.1
	C219.6,135.9,219.5,136,219.4,136.2z"/>
<path class="st0" d="M179.7,144.1c-0.4-0.4-0.4-0.6-0.1-1c0.3-0.3,0.6-0.6,0.9-0.9c0.1-0.1,0.2-0.1,0.3-0.1c0.2,0,0.5,0,0.6,0
	c0.1,0,0,0.4,0,0.6c-0.1,0.2-0.2,0.4-0.3,0.5l0.1,0.1c0.6-0.1,1.3-0.2,1.9-0.3s1.1-0.3,1.7-0.5c0.5-0.2,1-0.4,1.3-0.8
	c0.6-0.5,1.2-0.9,1.8-1.3c0.6-0.4,1.1-0.1,1.3,0.6c0,0.2,0,0.2-0.2,0.2c-0.3,0-0.5,0-0.8,0.1c-1.4,0.8-2.6,2-3.4,3.5
	c0,0,0,0.1,0,0.1c0,0,0,0.1,0,0.1c0.2,0,0.3-0.1,0.5-0.1c1-0.4,1.9-1,2.7-1.7c1.4-1.2,2.6-2.7,3.5-4.3c1-1.6,2.1-3.1,3.2-4.7
	c0.4-0.5,0.5-0.5,0.8,0c0.2,0.3,0.1,0.6-0.1,0.8c-1.4,2-2.8,3.9-4.2,5.9c-0.7,0.9-1.2,2-1.7,3c-0.2,0.3-0.3,0.6-0.3,1
	c-0.1,0.4,0.1,0.6,0.5,0.6c0.4,0,0.7-0.1,1.1-0.2c1.8-0.6,3.5-1.4,5.1-2.4l0.4-0.2c0.1,0.4-0.1,0.7-0.4,0.9
	c-1.1,0.8-2.2,1.4-3.5,1.9c-0.9,0.4-1.9,0.7-2.8,1h-0.2c-0.8,0.1-1.1-0.1-1.1-0.9c0-0.6,0.1-1.2,0.3-1.8c0.1-0.2,0.1-0.4,0.2-0.7
	l-1,0.9c-0.7,0.6-1.6,1.1-2.4,1.5c-0.2,0.1-0.3,0.1-0.5,0.2c-0.3,0.1-0.6,0-0.7-0.3c0,0,0-0.1,0-0.1c-0.1-0.6-0.1-1.1,0.2-1.6
	c0.1-0.2,0.2-0.4,0.4-0.7c-0.7,0.2-1.4,0.4-2.1,0.6c-0.6,0.1-1.2,0.2-1.8,0.3c-0.2,0-0.4,0.1-0.6,0.3c-0.4,0.5-0.9,0.9-1.3,1.3
	c-0.3,0.3-0.7,0.5-1.1,0.6c-0.5,0.2-0.9-0.1-1-0.6c-0.1-0.6,0-1.3,0.2-1.9c0.1-0.2,0.2-0.3,0.3-0.6c-0.5,0.1-0.9,0.3-1.3,0.4
	c-0.9,0.2-1.8,0.3-2.8,0.5c-0.2,0-0.3,0.1-0.4,0.2c-0.5,0.5-1,1-1.5,1.5c-0.3,0.2-0.5,0.4-0.9,0.4c-0.8,0.2-1.2-0.1-1.2-0.9
	c0-0.6,0.1-1.2,0.4-1.7c0.5-1.1,1.2-2,2.1-2.9c0.5-0.5,1.3-0.5,1.8,0c0.1,0.1,0.1,0.2,0.1,0.2c0,0-0.1,0.1-0.2,0.1
	c-0.5,0-0.9,0.2-1.2,0.6c-0.6,0.7-1.2,1.5-1.7,2.3c-0.2,0.3-0.3,0.7-0.3,1.1c0,0.2,0.1,0.3,0.3,0.3c0.7-0.2,1.4-0.7,1.7-1.3
	c-0.3-0.5-0.4-0.7,0-1.1c0.2-0.3,0.5-0.5,0.8-0.7c0.1-0.1,0.2-0.1,0.3-0.1c0.2,0,0.4,0,0.6,0c0,0.2,0,0.4,0,0.6
	c-0.1,0.2-0.2,0.3-0.3,0.5l0.1,0.1c0.5-0.1,1.1-0.1,1.6-0.2c0.5-0.1,1.2-0.3,1.8-0.5c0.5-0.1,1-0.4,1.3-0.9c0.3-0.4,0.6-0.8,1-1.1
	c0.6-0.4,1.3-0.2,1.7,0.3c0,0,0,0,0,0.1c0,0-0.1,0-0.1,0c-0.6,0-1.2,0.3-1.6,0.9c-0.5,0.6-1,1.3-1.4,2c-0.2,0.3-0.3,0.7-0.3,1
	c-0.1,0.3,0.1,0.5,0.4,0.4C178.8,144.9,179.3,144.6,179.7,144.1z"/>
<path class="st0" d="M15.7,137.1c-0.2,0.2-0.4,0.4-0.6,0.5c-0.9,1-1.7,1.9-2.6,2.9c-1,1.2-2.2,2.4-3.4,3.3c-0.3,0.2-0.7,0.4-1,0.5
	c-0.4,0.2-1,0-1.2-0.5c0,0,0,0,0,0c-0.3-0.6-0.4-1.3-0.3-1.9c0.2-1.3,0.6-2.6,1.2-3.8c0.8-1.9,1.9-3.7,3.2-5.4
	c0.5-0.8,1.5-1.3,2.5-1.2c0.1,0,0.2,0.1,0.4,0.1c0,0.1-0.1,0.3-0.2,0.4c-2.4,2.5-4.4,5.5-5.6,8.8c-0.2,0.6-0.4,1.3-0.5,1.9
	c0,0.2,0,0.3,0,0.5c0,0.2,0.1,0.3,0.3,0.2c0.3-0.1,0.7-0.3,1-0.5c1.6-1.4,3.1-2.8,4.4-4.4c1-1.3,2.2-2.4,3.5-3.4
	c0.5-0.4,1-0.6,1.6-0.7c0.2,0,0.4,0,0.5,0.1c0.1,0.1,0,0.4-0.1,0.5c-2.3,4-4.4,8.1-7,11.9c-1.2,1.8-2.6,3.5-4.2,5.1
	c-0.5,0.5-1,0.9-1.6,1.3c-0.2,0.1-0.4,0.1-0.6,0.1c0-0.2,0-0.5,0.1-0.6c0.4-0.6,0.8-1.1,1.3-1.5c1.8-1.6,3.3-3.5,4.5-5.6
	c1.6-2.6,3-5.2,4.3-7.9l0.2-0.4C15.7,137.3,15.7,137.3,15.7,137.1L15.7,137.1z"/>
<path class="st0" d="M96.5,139.2c0.8,0.2,1.1,0.6,0.8,1.3c-0.1,0.3-0.2,0.5-0.3,0.8c1.7-1.5,3.8-2.4,6-2.7v0.1
	c-0.1,0.1-0.2,0.1-0.3,0.2c-1.7,0.7-3.3,1.7-4.7,2.9c-1.7,1.3-3.1,2.9-4.2,4.7c-0.1,0.2-0.3,0.2-0.4,0c-0.1-0.3-0.1-0.6,0-0.9
	c0.3-0.6,0.6-1.2,1-1.7l0.4-0.7c-0.8,0.2-1.6,0.5-2.3,0.7s-1.4,0.2-2.1,0.3c-0.2,0-0.4,0.1-0.5,0.3c-0.4,0.4-0.8,0.9-1.3,1.3
	c-0.4,0.3-0.8,0.5-1.2,0.6c-0.5,0.2-0.8-0.1-1-0.6c-0.1-0.6-0.1-1.2,0.2-1.8l0.2-0.4c-0.6,0.3-1.2,0.6-1.8,0.9
	c-1.1,0.5-2.1,0.9-3.2,1.3c-1.1,0.4-1.6,0-1.6-1.2c0-0.1,0-0.2,0-0.3l-0.3,0.2c-0.9,0.6-1.7,1.3-2.7,1.9c-0.3,0.2-0.7,0.3-1.1,0.4
	c-0.5,0.1-1.2-0.7-0.9-1.1c0.2-0.5,0.5-0.9,0.8-1.3c0.9-1.1,2-2.1,3.1-3c0.5-0.4,1.1-0.7,1.7-0.9c0.7,0,1.3,0.6,1.3,1.3
	c-0.1,0-0.2,0-0.3-0.1c-0.5-0.3-1.1-0.3-1.6,0c-0.9,0.5-1.8,1.2-2.5,2c-0.5,0.5-0.9,1-1.3,1.6c-0.1,0.1-0.1,0.3-0.1,0.4s0.3,0,0.4,0
	c0.7-0.4,1.5-0.8,2.2-1.2c0.8-0.4,1.5-1,2.1-1.7c0.3-0.3,0.8-0.3,1.1,0c0.1,0.1,0.1,0.2,0,0.4c-0.2,0.3-0.5,0.6-0.7,0.9
	c-0.2,0.3-0.4,0.6-0.5,0.9c-0.1,0.4,0,0.5,0.4,0.5c0.3-0.1,0.7-0.2,1-0.3c1.6-0.7,3.3-1.5,4.9-2.2c0.1-0.1,0.2-0.2,0.3-0.3
	c0.5-0.5,0.9-1,1.3-1.5c0.5-0.4,1.3-0.3,1.7,0.2c0.1,0.1,0.1,0.3-0.1,0.3c-0.6,0-1.1,0.3-1.5,0.8c-0.5,0.7-1.1,1.4-1.6,2.2
	c-0.1,0.3-0.2,0.6-0.3,0.9c0,0.3,0.1,0.4,0.4,0.3c0.7-0.2,1.3-0.7,1.7-1.3c-0.4-0.5-0.4-0.7,0-1.1c0.3-0.3,0.7-0.6,1.1-0.8
	c0.2-0.1,0.4,0,0.7,0c0,0.2,0,0.5-0.1,0.7c-0.1,0.2-0.2,0.3-0.3,0.4v0.1c0.4,0,0.8,0,1.2-0.1c1.1-0.3,2.2-0.6,3.2-1
	c0.1-0.1,0.3-0.2,0.3-0.3c0.4-0.8,0.7-1.6,0.8-2.5C96.3,139.4,96.4,139.3,96.5,139.2z"/>
<path class="st0" d="M72.9,141.4c1.7-1.5,3.8-2.4,6.1-2.7v0.1c-0.1,0.1-0.2,0.1-0.3,0.2c-1.8,0.8-3.5,1.8-5,3.1
	c-1.6,1.2-2.9,2.7-3.9,4.4c0,0.1-0.2,0.2-0.2,0.2c-0.1,0-0.2-0.1-0.2-0.2c-0.1-0.3-0.1-0.6,0-0.8c0.2-0.5,0.5-1,0.8-1.5l-0.5,0.3
	c-1.6,1.1-3.3,2.2-4.9,3.2c-0.6,0.4-1.3,0.7-2,1c-1,0.3-1.4,0-1.5-1.1c-0.1-1.6,0.4-3.1,1.2-4.5c0.8-1.5,1.8-2.9,2.7-4.3
	c0.3-0.5,0.6-0.9,0.9-1.5c-0.7,0.1-1.3,0.1-2,0.2c-0.8,0.1-1.7-0.1-2.4-0.6c-0.4-0.3-0.6-0.7-0.6-1.2c0.1,0,0.3,0,0.4,0
	c0.1,0,0.2,0.1,0.3,0.2c1.4,1,3,0.7,4.5,0.6c0.1,0,0.2-0.1,0.3-0.2c0.5-0.9,1.1-1.8,1.6-2.8c0.3-0.4,0.8-0.6,1.3-0.4
	c0.3,0.2,0.2,0.4,0,0.6c-0.3,0.4-0.5,0.8-0.8,1.2l-0.6,1c0,0.1-0.1,0.2-0.2,0.4c0.7-0.1,1.3-0.2,1.9-0.3c0.5-0.1,1.4-0.2,2.1-0.2
	c0.2,0,0.6-0.1,0.6,0.3c0,0.4-0.3,0.9-0.7,0.8c-1.3-0.2-2.7-0.1-4,0.2c-0.3,0-0.5,0.2-0.7,0.4c-1.8,2.4-3.3,5-4.6,7.7
	c-0.2,0.5-0.4,1-0.5,1.5c-0.2,0.7,0.1,1,0.8,0.8c0.7-0.3,1.4-0.6,2.1-1c1.3-0.8,2.7-1.7,4-2.5c0.5-0.3,1-0.6,1.6-0.8
	c0.2-0.1,0.5-0.3,0.6-0.5c0.6-1,1-2.1,1.2-3.2c0-0.1,0.1-0.1,0.2-0.2c0.5,0,0.8,0.4,0.8,0.9c0,0.1,0,0.1,0,0.2
	C73.2,140.6,73.1,141,72.9,141.4z"/>
<path class="st0" d="M49.4,138.3c0.7,0,1.3-0.1,2-0.1c0.9,0,1.7,0,2.7,0c0.1,0,0.4,0.1,0.4,0.2c0,0.1,0,0.3-0.1,0.4
	c-0.2,0.2-0.5,0.4-0.8,0.3c-0.9,0-1.8,0-2.7,0.1c-0.6,0-1.2,0.1-1.7,0.3c-0.2,0-0.3,0.1-0.4,0.3c-1,1.7-2,3.6-2.8,5.4
	c-0.1,0.3-0.2,0.5-0.3,0.8c-0.1,0.4,0,0.5,0.4,0.5c1.1,0,2.3-0.1,3.4-0.2c0.8,0,1.7,0,2.5,0c0.3,0,0.6,0.2,0.7,0.5
	c0.2,0.3,0,0.5-0.4,0.5c-0.6,0-1.1,0-1.7,0c-2,0.2-4,0.4-6,0.6H44c-0.5,0-0.7-0.2-0.5-0.7c0.1-0.2,0.2-0.4,0.3-0.5
	c0.3-0.3,0.5-0.8,0.7-1.2c0.8-1.7,1.6-3.5,2.4-5.2l0.2-0.4v-0.1l-0.9,0.2l-0.5,0.1c0-0.2,0.1-0.4,0.1-0.6c0.3-0.6,0.9-1.1,1.6-1
	c0.4,0,0.7-0.3,0.9-0.6c0.7-1.2,1.5-2.4,2.2-3.6l0.2-0.4h-0.7c-0.3,0-0.3-0.1-0.2-0.4c0.3-0.5,0.8-0.8,1.3-0.8
	c2.2-0.2,4.4-0.2,6.7,0c0.3,0,0.5,0.1,0.8,0.1c0.2,0,0.3,0.3,0.1,0.4c-0.2,0.2-0.4,0.3-0.7,0.3c-1.5,0-3.1,0.1-4.7,0.1
	c-0.5,0-1.1,0.3-1.3,0.7c-0.7,1.1-1.5,2.2-2.3,3.3C49.6,137.8,49.6,138,49.4,138.3z"/>
<path class="st0" d="M200.9,150.3c-0.4,0-0.5-0.1-0.3-0.3c0.2-0.4,0.6-0.7,1-0.8c1.3-0.4,2.6-0.9,3.8-1.7c1-0.6,1.9-1.3,2.7-2.2
	c0.2-0.3,0.4-0.6,0.6-0.9c0.1-0.2,0.1-0.5-0.1-0.7c0,0,0,0,0,0c-0.3-0.3-0.7-0.5-1.1-0.7c-1.2-0.5-2.5-0.9-3.8-1.3
	c-1.3-0.4-1.6-1.3-0.7-2.4c0.7-0.9,1.6-1.6,2.5-2.3c2.3-1.7,4.9-3,7.5-4.1c0.5-0.2,1-0.3,1.5-0.3c0.5,0.1,0.9,0.4,1.1,0.8
	c0.2,0.3,0.1,0.5-0.2,0.5c-0.9,0-1.9,0.2-2.7,0.5c-2.9,0.9-5.7,2.5-8,4.5c-0.9,0.8-0.8,1.2,0.3,1.6c1.1,0.5,2.5,0.9,3.7,1.4
	c0.4,0.2,0.9,0.4,1.3,0.6c0.6,0.3,0.9,1,0.6,1.5c0,0.1-0.1,0.1-0.1,0.2c-0.3,0.6-0.7,1.1-1.2,1.6c-2.2,2-4.7,3.4-7.6,4.2
	C201.3,150.2,201.1,150.3,200.9,150.3z"/>
<path class="st0" d="M171.7,139.1c-0.6,0-1.2,0-1.8,0c-0.9,0.1-1.7,0.2-2.7,0.3c-0.2,0-0.3,0.1-0.4,0.2c-1.6,2.2-2.9,4.6-4,7.1
	c-0.3,0.8-0.5,1.7-0.6,2.5c0,0.1-0.1,0.2-0.2,0.3c-0.1,0.1-0.3-0.1-0.3-0.2c-0.4-0.7-0.5-1.5-0.3-2.3c0.3-0.9,0.6-1.7,1.1-2.5
	l2.5-4.5c0.1-0.1,0.1-0.3,0.2-0.4v-0.1l-1.1,0.2c-0.2,0-0.4,0-0.7,0.1c0-0.2,0.1-0.5,0.2-0.7c0.3-0.5,0.9-0.8,1.5-0.8
	c0.6,0,1.2-0.3,1.5-0.9c0.7-1.1,1.4-2.2,2.1-3.3c0.1-0.1,0.1-0.2,0.2-0.4h-1.8c0-0.1,0.1-0.2,0.1-0.4c0.3-0.4,0.7-0.6,1.1-0.6
	c0.2,0,0.4,0,0.6,0c0.5,0.1,1-0.1,1.3-0.4c0.3-0.2,0.6-0.3,0.9-0.3c0.5-0.1,0.5,0,0.4,0.5h0.4h3.6c0.3,0,0.5,0,0.8,0.1
	c0.3,0.1,0.5,0.4,0.4,0.7c0,0,0,0.1-0.1,0.1c-0.1,0.1-0.2,0.1-0.2,0.1c-1-0.1-2.1-0.1-3.2,0c-0.8,0-1.5,0-2.3,0.1
	c-0.2,0-0.4,0.1-0.5,0.2c-0.9,1.3-1.8,2.5-2.7,3.8c0,0.1-0.1,0.2-0.1,0.3c0.1,0,0.2,0,0.3,0c0.9,0,1.7,0,2.6,0
	C171.8,138.1,171.9,138.5,171.7,139.1z"/>
<path class="st0" d="M19.5,144.1c-0.3-0.4-0.4-0.6-0.1-0.9c0.3-0.3,0.6-0.6,0.9-0.9c0.1-0.1,0.2-0.1,0.3-0.1c0.2,0,0.5,0,0.5,0
	c0.1,0.2,0.1,0.4,0,0.6c-0.1,0.2-0.2,0.5-0.4,0.7c0.4,0,0.9,0,1.3-0.1c0.9-0.2,1.9-0.5,2.8-0.8c0.1-0.1,0.3-0.2,0.3-0.3
	c0.6-0.8,1.1-1.5,1.7-2.3c0.2-0.3,0.5-0.3,0.9,0c0.2,0.2,0.3,0.5,0.1,0.7c0,0-0.1,0.1-0.1,0.1c-1.3,1.2-2.3,2.7-2.8,4.3
	c0,0.1,0,0.3,0,0.4c0.1,0,0.3,0,0.4,0c1.2-0.4,2.3-1.1,3.2-1.9c0.5-0.4,0.9-0.9,1.3-1.3c0.4-0.4,0.9-0.6,1.4-0.4
	c0.2,0,0.3,0.2,0.1,0.4l-0.2,0.2l-2.1,3.2c-0.1,0.1-0.1,0.1-0.2,0.2c0-0.1-0.2-0.1-0.2-0.2c0-0.3,0-0.7,0-1c0-0.2,0.1-0.3,0.1-0.5
	l-0.7,0.5l-2.3,1.8c-0.1,0.1-0.3,0.2-0.5,0.3c-0.8,0.4-1.3,0.1-1.4-0.8c-0.1-0.7,0-1.4,0.3-2l0.2-0.5h-0.3c-1.3,0.4-2.6,0.7-3.9,0.8
	c-0.2,0-0.3,0.1-0.4,0.2c-0.5,0.5-1,1-1.5,1.5c-0.3,0.2-0.6,0.4-0.9,0.4c-0.7,0.2-1.1-0.1-1.2-0.9c0-0.6,0.1-1.2,0.3-1.7
	c0.5-1.1,1.2-2.1,2.1-3c0.5-0.5,1.3-0.5,1.8,0c0,0,0.1,0.2,0.1,0.2c-0.1,0.1-0.1,0.1-0.2,0.1c-0.4,0-0.9,0.2-1.2,0.5
	c-0.7,0.7-1.3,1.5-1.8,2.4c-0.1,0.4-0.2,0.7-0.3,1.1c0,0.2,0.1,0.3,0.3,0.2C18.5,145.2,19.1,144.7,19.5,144.1z"/>
<path class="st0" d="M151.8,144.2c-0.2,0.2-0.4,0.4-0.7,0.5l-2.2,1.4l-0.2,0.1c-1,0.4-1.4,0-1.5-1.1c0-0.8,0.2-1.5,0.6-2.2
	c0.6-1.3,1.5-2.6,2.5-3.7c0.4-0.5,1-0.6,1.5-0.3c0.3,0.1,0.3,0.2,0,0.4c-1.5,1.3-2.8,3-3.6,4.8c-0.1,0.3-0.2,0.6-0.2,0.9
	c0,0.2,0.1,0.3,0.3,0.3c0.3,0,0.6-0.1,0.9-0.3c1.3-0.6,2.4-1.4,3.4-2.3c0.3-0.3,0.5-0.6,0.7-0.9c0.4-0.5,1-0.6,1.5-0.4
	c0.2,0.1,0.2,0.3,0,0.4c-0.6,0.8-1.3,1.7-1.8,2.5c-1.9,3.1-3.7,6.3-5.5,9.5c-0.1,0.2-0.2,0.5-0.5,0.5c-0.3-0.1-0.2-0.4-0.1-0.6
	c0-0.7,0.2-1.3,0.7-1.8c0.1-0.1,0.2-0.3,0.3-0.5l3.7-6.8L151.8,144.2L151.8,144.2z"/>
<path class="st0" d="M245.2,142.8c0.1,0.4,0,0.9-0.4,1.1c-0.8,0.5-1.6,0.9-2.4,1.3c-1.4,0.7-2.9,1.3-4.4,1.8
	c-0.2,0.1-0.5,0.1-0.8,0.1c-0.8,0.1-1.6-0.5-1.7-1.3c0-0.1,0-0.1,0-0.2c-0.1-0.5,0-1,0.1-1.5c0.6-1.7,1.7-3.2,3.2-4.2l0.4-0.2
	c0.4-0.2,0.9-0.5,1.3-0.1c0.5,0.4,0.7,1,0.5,1.6c-0.3,0.7-0.7,1.2-1.3,1.6c-0.8,0.6-1.8,1.1-2.8,1.3c-0.3,0.1-0.5,0.3-0.6,0.6
	c-0.1,0.2-0.1,0.5-0.2,0.7c-0.1,0.5,0.1,0.8,0.6,0.7c0.5,0,1-0.1,1.5-0.3c1.9-0.7,3.8-1.5,5.6-2.6L245.2,142.8z M237.2,143.3
	l0.1,0.1c0.2-0.1,0.4-0.1,0.6-0.2c0.5-0.3,1-0.6,1.4-1c0.3-0.3,0.7-0.7,0.9-1.1c0.1-0.2,0-0.4,0.1-0.7c-0.2,0-0.4,0.1-0.6,0.1
	C238.7,141.3,237.8,142.2,237.2,143.3L237.2,143.3z"/>
<path class="st0" d="M59,146.5c-0.3,0.3-0.7,0.4-1.1,0.3c-0.2-0.1-0.3-0.3-0.3-0.5c-0.1-0.9-0.2-1.7-0.2-2.6c0-0.1,0-0.3,0-0.5
	c-0.1,0-0.2,0.1-0.4,0.2l-2.4,2c0,0-0.1,0.1-0.1,0.1l-0.6,0.3c0-0.2,0-0.5,0-0.7c0.1-0.5,0.4-0.9,0.9-1.2c0.7-0.5,1.5-1.1,2.2-1.6
	c0.3-0.1,0.5-0.5,0.4-0.8c-0.1-0.3-0.1-0.7-0.2-1.1c0-0.2-0.1-0.4-0.3-0.5c-0.2-0.2-0.2-0.3,0-0.4c0.1-0.1,0.3-0.2,0.4-0.3
	c0.6-0.3,0.8-0.2,0.9,0.5s0.1,1,0.1,1.5c1.9-1.2,3.6-2.6,5.8-3l0.1,0.1c-0.1,0.1-0.2,0.2-0.3,0.2c-1.9,0.9-3.7,2.1-5.3,3.5
	c-0.1,0.1-0.2,0.2-0.2,0.3c0,1,0.1,1.9,0.2,2.9C58.7,145.8,58.8,146.2,59,146.5z"/>
<path class="st0" d="M35,141.3c1.7-1.5,3.8-2.4,6.1-2.6c-0.1,0.1-0.2,0.2-0.3,0.2c-1.9,0.8-3.6,1.9-5.2,3.2
	c-1.5,1.2-2.8,2.7-3.8,4.3c0,0.1-0.2,0.2-0.2,0.2c-0.1,0-0.2-0.1-0.2-0.2c-0.1-0.3-0.1-0.5,0-0.8c0.2-0.5,0.5-1,0.8-1.5
	c0.5-0.9,1.1-1.7,1.6-2.7c0.3-0.7,0.5-1.4,0.6-2.1c0-0.2,0.1-0.3,0.3-0.2c0.5,0.1,0.8,0.5,0.7,1c0,0,0,0.1,0,0.1
	c0,0.2-0.1,0.3-0.2,0.5C35.2,141,35,141.1,35,141.3L35,141.3z"/>
<path class="st0" d="M116.6,136.9c-0.1,0.4-0.4,0.7-0.7,0.8l-0.7,0.2c-0.3,0.1-0.5-0.1-0.4-0.3c0-0.2,0.1-0.4,0.3-0.5
	c0.3-0.2,0.6-0.4,0.9-0.5C116.4,136.2,116.6,136.4,116.6,136.9z"/>
</svg>
