<?xml version="1.0" encoding="utf-8"?>
<!-- Generator: Adobe Illustrator 21.1.0, SVG Export Plug-In . SVG Version: 6.00 Build 0)  -->
<svg version="1.1" id="Layer_1" xmlns="http://www.w3.org/2000/svg" xmlns:xlink="http://www.w3.org/1999/xlink" x="0px" y="0px"
	 viewBox="0 0 250 250" style="enable-background:new 0 0 250 250;" xml:space="preserve">
<style type="text/css">
	.st0{fill:#AF1842;}
</style>
<title>Coke_Dine</title>
<path class="st0" d="M61.5,91.7c0,0.3,0.3,0.2,0.4,0.2c3.8,0.4,7.4,1.9,10.5,4.2c3.2,2.3,5.3,5.8,5.9,9.7c0.3,2.3,0,4.7-0.8,6.9
	c-1,3-2.8,5.6-5.2,7.6c-1.6,1.2-3.4,2.2-5.2,3c-0.8,0.4-1.6,0.7-2.5,1.1c-0.2,0.1-0.3,0.2-0.3,0.4c0,0.2,0.1,0.4,0.3,0.5
	c1.2,0.6,2.3,1.2,3.4,2.1c2.7,2.2,4.4,5.3,4.8,8.8c0.5,3.5-0.2,7.1-1.8,10.2c-1.7,3.6-4.3,6.7-7.7,8.8c-2.7,1.7-5.9,2.3-9,1.8
	c-2.4-0.3-4.8-1.2-6.9-2.4c-0.4-0.2-0.5-0.2-0.7,0.3c-0.1,0.5-0.3,0.9-0.5,1.4c-0.4,0.7-1.2,1.1-2.1,1c-0.3,0-0.1-0.3-0.1-0.4
	c0.3-1.6,0.7-3.1,1.2-4.7c1.4-4.7,3.1-9.4,4.6-14c0.5-1.6,1-3.1,1.6-4.6c0.2-0.5,0.6-0.3,0.9-0.3s0.2,0.3,0.2,0.5
	c-0.1,1.4-0.1,2.8,0,4.2c0.1,1.5,0.9,2.9,2.1,3.8c1.6,1.1,3.6,1.3,5.3,0.4c1.9-0.8,3.3-2.4,3.7-4.4c0.7-2.3,0.6-4.8-0.4-7.1
	c-1.3-2.9-4.8-4.3-7.8-3c-0.7,0.3-1.3,0.6-1.9,0.9c-0.1,0-0.2,0.2-0.4,0.1c-0.1-0.1,0-0.2,0-0.4c0.3-1.8,0.7-3.5,1.4-5.1
	c0.1-0.3,0.2-0.2,0.4-0.2c4.5,1.4,9.3-1.1,10.7-5.6c0.2-0.6,0.3-1.1,0.4-1.7c0.5-2.7-0.7-5.4-3-6.9c-0.7-0.5-1.5-0.9-2.3-1.2
	c-2-0.8-4.2-1-6.3-0.7c-5.8,0.8-11.3,3.2-15.7,7.1c-1.3,1.2-2.5,2.6-3.4,4.1l-1.1,1.9c-0.4,0.6-1,0.9-1.6,1c-0.3,0-0.4,0-0.4-0.4
	c0.1-1,0.4-2,0.6-3c1.4-4.8,3-9.4,4.6-14.1c0.6-1.9,1.4-3.8,2-5.6c0.3-0.8,0.9-1.5,1.6-1.9c2.3-1.1,4.7-2,7.2-2.6
	c2.4-0.6,4.8-1,7.3-1.3c0.1,0,0.3,0,0.3-0.2L61.5,91.7z"/>
<path class="st0" d="M5,138.7c0.2,0,0.2-0.2,0.2-0.3c1.2-6.7,6.3-12,13-13.5c4.5-1.3,9.2-0.9,13.5,1c3.6,1.4,6.5,4.3,8,7.8
	c0.4,0.7,0.5,1.5,0.3,2.3c-0.1,0.3-0.2,0.4-0.5,0.2c-0.8-0.7-1.5-1.5-2.1-2.3c-0.9-1.1-2.1-2-3.4-2.6c-3.1-1.2-6.6-1-9.6,0.5
	c-1.5,0.7-2.8,1.9-3.4,3.4c-1.1,2.7-0.4,5.8,1.8,7.8c1.3,1,2.8,1.6,4.4,1.7c4.3,0.6,7.8-1.2,10.9-3.9c1.4-1.3,2.6-2.8,3.4-4.5
	c2.4-5.1,4.4-10.4,6.1-15.7c0.2-0.8,0.4-1.7,0.6-2.6c0.3-0.9-0.2-1.9-1.1-2.3c-0.7-0.4-0.7-0.4-0.2-1.1c1.2-1.8,2.9-3.3,4.8-4.3
	c2.8-1.6,6.3-1.4,8.8,0.6c0.2,0.1,0.4,0.2,0,0.4c-3.7,2-5.6,5.4-6.9,9.2c-1.1,3.4-2,6.9-3.1,10.2c-1.4,4.4-3.2,8.6-5.5,12.6
	c-2.1,3.8-4.9,7.1-8.4,9.6c-2.7,1.9-5.9,3.2-9.2,3.7c-2.9,0.5-5.8,0.4-8.7-0.1c-4.2-0.7-8.1-2.9-10.6-6.4c-1.5-2-2.4-4.3-2.8-6.8
	c0-0.2,0-0.4-0.2-0.4V138.7z"/>
<path class="st0" d="M222.7,158.3c-0.1-0.3-0.3-0.2-0.5-0.2c-2.4-0.2-4.7-0.9-6.7-2c-2.3-1.2-3.8-3.5-4.1-6.1
	c-0.3-1.8-0.1-3.6,0.4-5.3c0.6-2.7,2.9-4.6,5.7-4.8c1.8-0.2,3.5,0,5.2,0.6c1.6,0.6,3,1.8,3.6,3.4c0.2,0.3,0.3,0.7,0.4,1.1
	c-0.8-0.1-1.4-0.4-2.2-0.5c-0.7-0.1-1.4-0.1-2.1,0c-0.6,0.2-1,0.6-1.2,1.2c-0.3,1.2,0.2,2.5,1.2,3.1c0.8,0.5,1.8,0.7,2.7,0.7
	c1.6,0.1,3.3-0.4,4.6-1.4c2.1-1.8,2.4-5.1,0.6-7.2c-0.7-0.8-1.6-1.6-2.5-2.2c-1.6-1.1-3.4-2.1-4.9-3.3c-1.7-1.2-2.8-2.9-3.2-4.9
	c-0.5-3.3,0.6-6.6,3.1-8.8c0.9-0.8,1.9-1.5,3-2c4.4-2.1,9.6-2.2,14-0.1c2.6,1,4.4,3.2,4.9,6c0,0.1,0,0.3,0.2,0.3v2.9
	c-0.3,0-0.2,0.2-0.2,0.3c-0.2,0.9-0.7,1.7-1.3,2.4c-1.8,1.9-4.4,2.8-7,2.3c-1.9-0.4-3.7-1.3-5-2.7c-0.2-0.2-0.4-0.4-0.6-0.6
	c-0.2-0.3-0.1-0.5,0.2-0.5c0.2,0,0.5,0,0.7,0c0.7,0.2,1.3,0.2,2,0c0.7-0.1,1.1-0.8,0.9-1.4c0,0,0,0,0-0.1c-0.3-1-1.1-1.8-2.1-1.9
	c-1.5-0.2-3.1,0.4-4.1,1.6c-0.8,1-0.7,2.4,0.1,3.3c0.8,1.1,1.8,2,3,2.7c1.4,0.9,2.9,1.7,4.3,2.7c2.1,1.4,3.4,3.6,3.7,6.1
	c0.3,1.8,0.2,3.7-0.1,5.5c-0.5,3.4-2.5,6.3-5.5,8c-1.8,1-3.8,1.6-5.9,1.9c-0.1,0-0.4-0.1-0.4,0.2L222.7,158.3z"/>
<path class="st0" d="M150.6,155.5c0,0.5,0,1,0,1.5s-0.2,0.2-0.3,0.2c-0.9,0-1.8-0.2-2.7-0.2c-2.6-0.1-5.2,0-7.9-0.1
	c-0.7,0-1.5-0.1-2.2-0.2c-0.3,0-0.2-0.2-0.1-0.4c0.4-0.6,0.8-1.2,1.2-1.9c2.3-4.1,4.2-8.4,5.9-12.8c0.9-2.4,2-4.7,2.9-7
	c0.4-1,0.7-2,0.9-3.1c0.1-0.8,0.1-1.6,0-2.3c0-0.3-0.2-0.5-0.3-0.7c-0.2-0.4-0.7-0.5-1-0.3c0,0-0.1,0-0.1,0.1
	c-0.6,0.4-1,0.8-1.4,1.4c-0.7,1.1-1.4,2.2-2,3.4c-0.2,0.4-0.5,0.7-0.9,0.7c-0.3,0.1-0.6-0.1-0.7-0.4c0-0.1,0-0.1,0-0.2
	c0-0.2,0-0.3,0-0.5c1.3-4,3.2-7.8,5.6-11.2c1.3-1.9,3.5-3,5.8-3c1.3-0.1,2.7,0.1,4,0.5c1.4,0.6,2.3,1.8,2.4,3.3
	c0.1,1.3,0,2.6-0.1,3.9c0,0.3-0.1,0.7,0.2,0.7s0.4-0.4,0.5-0.6c1.2-2.5,2.9-4.7,5.1-6.4c1.2-1,2.7-1.5,4.3-1.7
	c1.4-0.1,2.8,0.4,3.9,1.2c1.7,1,2.8,3,2.6,5c0,2.4-0.5,4.8-1.4,7c-1.2,3.4-2.9,6.7-4.3,10c-0.7,1.3-1,2.8-1,4.3c0,0.5,0.2,1,0.4,1.4
	c0.4,0.6,1,0.6,1.6,0c0.9-0.9,1.6-1.9,2.2-3c0.3-0.4,0.5-0.9,0.7-1.4c0.1-0.4,0.5-0.6,0.8-0.5c0.9,0.1,0.9,0.1,0.5,0.9
	c-0.9,2.1-2,4.1-3,6.3c-0.8,1.7-1.7,3.4-2.7,5c-1.1,1.7-2.8,2.9-4.8,3.2c-2,0.5-4.1-0.1-5.6-1.6c-0.6-0.6-0.9-1.4-1-2.2
	c-0.2-2.1,0.1-4.3,0.9-6.2c1-2.9,2.1-5.7,3.4-8.4c1.1-2.4,2-4.8,2.7-7.3c0.2-0.8,0.2-1.6,0.2-2.5c0-0.7-0.5-1.2-1.1-1.2
	c-0.6-0.1-1.3-0.2-2-0.1c-0.6,0.1-1.2,0.4-1.7,0.9c-1.2,1.1-2.2,2.4-3,3.8c-2.1,3.4-3.7,6.9-5,10.7c-0.9,2.5-1.6,5.1-2.1,7.8
	C150.6,152.5,150.5,154,150.6,155.5z"/>
<path class="st0" d="M144.3,118.9c-0.8,0.8-1.5,1.6-2.1,2.5c-1.2,1.9-2.2,3.9-2.9,6.1c-1.6,4.6-3.3,9.1-5.1,13.5
	c-0.7,1.5-1,3.1-1,4.8c0,0.6,0,1.2,0.6,1.6c0.6,0.2,1.2,0.1,1.7-0.3c0.9-0.5,1.6-1.3,2.1-2.2l0.5-1c0.1-0.3,0.3-0.5,0.6-0.6
	c0.2-0.2,0.6-0.4,0.8-0.2c0.2,0.2,0,0.5-0.1,0.7c-0.9,3.1-2.2,6.1-3.9,8.9c-1,1.8-2.5,3.3-4.2,4.4c-1.4,0.9-3.1,1.1-4.7,0.7
	c-1.9-0.6-3.3-2.2-3.7-4.1c-0.3-1.4-0.3-2.9,0-4.4c0-0.3,0.2-0.7-0.1-0.8s-0.5,0.2-0.7,0.5c-0.8,1-1.4,2.2-2,3.3
	c-1.8,3.1-5,5.2-8.6,5.7c-2.8,0.5-5.5-1.4-5.9-4.2c-0.1-0.3-0.1-0.7-0.1-1c0-2.5,0.5-5,1.4-7.4c1.1-3.5,2.6-6.9,3.9-10.3
	c0.6-1.5,1.1-3,1.4-4.6c0.2-0.7,0-1.5-0.7-2c-0.5-0.4-1.2-0.3-1.6,0.1c-0.6,0.5-1.1,1.1-1.4,1.8c-0.4,0.9-0.8,1.7-1.3,2.6
	c-0.2,0.3-0.3,0.6-0.8,0.5c-0.7,0-0.9-0.3-0.7-1c0.4-1.4,1-2.8,1.6-4.1c1.1-2.6,2.6-5.1,4.5-7.2c1.3-1.5,3.1-2.5,5.1-2.7
	c2.3-0.2,5.3,1.1,6,3.7c0.3,1.4,0.3,2.9,0,4.3c-0.7,2.8-1.6,5.6-2.9,8.2c-1.1,2.6-2.3,5.1-3.2,7.8c-0.4,1.1-0.6,2.2-0.5,3.3
	c-0.1,1,0.7,1.9,1.7,2c0.2,0,0.4,0,0.6-0.1c1.2-0.1,2.3-0.7,3-1.7c1.3-1.8,2.4-3.7,3.4-5.7c2.3-4.6,4-9.3,5.3-14.3
	c0.6-2,0.6-4.2,0.2-6.2c-0.2-0.6-0.1-0.6,0.5-0.6c1.6,0,3.1,0.3,4.7,0.5c1.9,0.2,3.8,0.1,5.7-0.2C142.3,119.1,143.2,119,144.3,118.9
	z"/>
<path class="st0" d="M190.3,135.6c-0.2-2.3,0.2-4.6,1.2-6.7c1.3-2.6,3.1-4.8,5.3-6.6c0.8-0.7,1.6-1.5,2.3-2.3c0.7-1,2.1-1.4,3.3-1
	c3.9,1,6.9,4.1,7.6,8c0.5,2.5,0.5,5.1,0.3,7.7c-0.6,6.8-3.5,13.2-8.4,18c-2.2,2.3-5,4-8.1,4.8c-2.8,0.8-5.8,0.6-8.5-0.5
	c-3.4-1.5-5.9-4.4-6.9-8c-0.9-2.8-1.1-5.8-0.7-8.7c0.6-5.6,3.1-10.8,7-14.8c2.7-3,6.3-5.1,10.2-6.1c0.9-0.2,1.7-0.3,2.6-0.4
	c0.3,0,0.7,0,1,0.2c0,0.2-0.2,0.3-0.3,0.4c-2.7,2.1-5.2,4.6-7.3,7.4c-1.9,2.4-3.2,5.1-3.8,8.1c-0.7,3.1-0.2,6.3,1.4,9
	c1.2,2.2,3.7,3.5,6.1,3c1.4-0.2,2.8-0.8,3.9-1.8c2.6-2,4.4-4.8,4.9-8c0.2-1.2,0.2-2.4-0.2-3.5c-0.8-2.7-2.6-4.1-5.8-4
	c-2.2,0-4.2,1.2-5.3,3.1c-0.5,0.8-1,1.6-1.4,2.5L190.3,135.6z"/>
<path class="st0" d="M92.4,126.6c0.3-0.3,0.6-0.7,0.8-1.1c1-1.6,2-3.3,3.2-4.9c0.8-1.3,2.1-2.3,3.6-2.7c1.6-0.4,3.3-0.2,4.8,0.7
	c1,0.7,1.6,1.8,1.8,3c0.2,0.8,0.2,1.6,0.4,2.3c0.1,0.7,0,1.4-0.3,2.1c-1.1,5.6-6.4,9.3-12,8.4c-0.1,0-0.2,0-0.3-0.1
	c0.4-0.4,0.8-0.8,1.3-1.1c0.4-0.4,0.8-0.8,1.2-1.2c0.5-0.8,0.5-1.8-0.2-2.5c-0.5-0.8-1.5-1-2.3-0.7c-0.6,0.3-1.1,0.7-1.5,1.2
	c-1.2,1.5-2.2,3.1-2.9,4.9c-2,4.6-3.5,9.3-4.4,14.2c-0.6,2.5-0.3,5.1,0.9,7.3c0.2,0.4,0,0.4-0.3,0.4c-1.9,0.2-3.8,0.2-5.7,0.2h-9.9
	c-0.5,0-0.5,0-0.3-0.5c0.2-0.4,0.5-0.8,0.9-1.2c2.8-2.5,4.8-5.8,5.8-9.4c1.1-3.6,2.4-7,3.9-10.5c0.5-1.1,0.8-2.3,1-3.5
	c0.1-0.7,0.1-1.3-0.1-2c-0.2-0.8-1.1-1.3-1.9-1.1c-0.2,0.1-0.4,0.2-0.6,0.3c-0.5,0.4-0.9,0.8-1.2,1.4c-0.4,0.8-0.8,1.7-1.2,2.6
	c-0.2,0.5-0.4,0.9-0.6,1.4c-0.2,0.7-0.9,1.1-1.6,0.9c-0.3,0-0.4-0.1-0.3-0.4c0.3-1.3,0.7-2.6,1.2-3.9c1.2-3.6,3-6.9,5.2-9.9
	c0.8-1.1,1.9-2.1,3-2.9c1.6-1.1,3.5-1.3,5.3-0.7c1.7,0.5,3,2,3.2,3.8c0.3,1.4,0.3,2.8,0.2,4.2c0,0.2,0,0.4,0,0.5
	C92.4,126.5,92.4,126.6,92.4,126.6z"/>
<path class="st0" d="M210,121.8c0.5-1,1.1-1.9,1.8-2.9c1.2-1.7,2.1-3.5,2.7-5.5c0.1-0.4,0.1-0.6-0.3-0.8c-2.4-0.9-3.7-3.6-3-6.1
	c0.6-3,3.5-5,6.5-4.5c0,0,0,0,0,0c1.5,0.4,2.8,1.4,3.5,2.9c1,2,1,4.4,0,6.4c-1.1,2.2-2.6,4.2-4.4,5.9c-1.6,1.5-3.4,2.9-5.2,4.2
	C211.1,121.8,210.5,121.9,210,121.8z"/>
</svg>
