<?xml version="1.0" encoding="utf-8"?>
<!-- Generator: Adobe Illustrator 21.1.0, SVG Export Plug-In . SVG Version: 6.00 Build 0)  -->
<svg version="1.1" id="Layer_1" xmlns="http://www.w3.org/2000/svg" xmlns:xlink="http://www.w3.org/1999/xlink" x="0px" y="0px"
	 viewBox="0 0 250 250" style="enable-background:new 0 0 250 250;" xml:space="preserve">
<style type="text/css">
	.st0{fill:#C31231;}
	.st1{fill:#F5C300;}
	.st2{fill:#C30E2E;}
	.st3{font-family:'Roboto-Black';}
	.st4{font-size:6.5192px;}
	.st5{font-size:6.5041px;}
	.st6{font-size:6.5027px;}
	.st7{font-size:6.5115px;}
	.st8{font-size:6.5148px;}
	.st9{font-size:6.4951px;}
	.st10{font-size:6.4953px;}
	.st11{font-size:6.5216px;}
	.st12{font-size:6.5161px;}
	.st13{font-family:'Roboto-Medium';}
	.st14{font-size:7.1005px;}
	.st15{font-size:7.0966px;}
	.st16{font-size:7.0891px;}
	.st17{font-size:7.0954px;}
	.st18{font-size:7.0813px;}
	.st19{font-size:7.0631px;}
	.st20{font-size:7.0981px;}
	.st21{font-size:7.0858px;}
</style>
<title>Grocery</title>
<g>
	<path class="st0" d="M5.4,121.4c0-21.4,17.7-38.7,39.5-38.7c20.9-0.1,37.8,16.8,37.9,37.6c0,0,0,0,0,0c-0.4,21.6-18,38.8-39.6,38.7
		C22.4,159.1,5.5,142.3,5.4,121.4C5.4,121.5,5.4,121.5,5.4,121.4z M43.4,156.1c20,0.1,36.3-16,36.4-35.9c0,0,0,0,0,0
		C79.7,101,64.1,85.6,44.9,85.7c-20-0.2-36.3,15.8-36.5,35.8c0,0,0,0,0,0.1c0,19.1,15.5,34.6,34.6,34.5
		C43.2,156.1,43.3,156.1,43.4,156.1z"/>
	<path class="st0" d="M241.4,99.5c2.8,1.1,3.3,3.3,3.2,6c-0.1,3.1-0.1,6.1,0,9.2c0,1.7-0.6,2.1-2.2,2.1c-7.3,0.1-7.3,0.2-7.3-7
		c0-1.9,0-3.8,0-5.7c0.2-1.1-0.6-2.2-1.7-2.3c-0.2,0-0.4,0-0.6,0c-2,0-1.2,1.4-1.2,2.4c-0.1,3.5-0.1,7,0,10.6c0,1.7-0.5,2.3-2.2,2.1
		c-2.4-0.2-5.5,1-7.1-0.4c-1.6-1.4-0.5-4.6-0.5-7c-0.1-7.7,0-15.3,0-23c0-1.9,0.3-2.7,2.4-2.6c4.4,0.2,8.8,0,13.3,0.1
		c4.4,0.1,6.4,1.6,7.3,5.1C246.2,93.9,245.2,97.1,241.4,99.5z M235.8,92.8c0.1-2.1-1.1-3.2-3-2.9c-2.6,0.4-0.8,2.6-1.2,3.9
		c-0.4,1.3,0,2.2,1.7,2.1C235.6,95.8,235.8,94.4,235.8,92.8L235.8,92.8z"/>
	<path class="st0" d="M108.1,98.3c4.9,2.9,4.8,6.6,3.7,12c-0.8,4.1-3.4,6-8.6,6.3c-4.2,0.2-8.5,0-12.7,0.1c-1.4,0-1.7-0.6-1.6-1.8
		c0-9.8,0-19.7,0-29.5c0-1.2,0.3-1.8,1.6-1.7c4.5,0.1,9-0.2,13.5,0.1c6.5,0.4,8.5,3.6,7.6,10.4C111.4,95.9,110.5,96.6,108.1,98.3z
		 M98.2,105.9c-0.1,0.8-0.1,1.6,0,2.4c0.1,0.8-0.7,2.2,0.9,2.4c1.6,0.2,3.1-0.1,3.5-1.8c0.5-2,0.5-4.1-0.1-6.1
		c-0.5-1.6-2-1.7-3.3-1.6c-1.7,0.1-0.9,1.4-1,2.3C98.1,104.3,98.1,105.1,98.2,105.9z M98.2,92.3c0,0.6,0,1.3,0,1.9s-0.3,1.6,0.7,1.8
		c1,0.3,2,0.1,2.8-0.6c0.7-0.7,0.9-5.2,0.2-6c-0.8-0.7-1.8-0.9-2.8-0.7c-1.1,0.1-0.8,1-0.9,1.7S98.2,91.7,98.2,92.3z"/>
	<path class="st0" d="M218.8,100c0,2.5,0,5.1,0,7.6c-0.1,4.9-2.4,7.8-7.2,8.9c-3.4,0.8-7.1,0.7-10.4-0.3c-3.5-1-6-4.2-5.9-7.9
		c-0.1-5.5,0-11,0-16.5c-0.2-3.3,1.9-6.3,5.1-7.3c4.3-1.7,9.2-1.7,13.5,0c3,1,5,3.9,4.9,7.1C218.7,94.4,218.7,97.2,218.8,100
		L218.8,100z M209.2,100.3L209.2,100.3c0-2.6,0-5.2,0-7.8c0-1.4-0.6-2.6-2.2-2.6c-1.2-0.1-2.3,0.8-2.3,2c0,0.1,0,0.3,0,0.4
		c0,5.2,0,10.3,0,15.4c0,1.3,0.6,2.6,2.2,2.6c1.9,0,2.2-1.3,2.3-2.7C209.3,105.2,209.2,102.8,209.2,100.3L209.2,100.3z"/>
	<path class="st0" d="M138.3,97c0,3.6,0,7.2,0,10.8c0,4.9-2.4,7.8-7.2,8.8c-3.2,0.7-6.5,0.6-9.7-0.2c-4.1-1.1-6.3-3.6-6.4-7.7
		c-0.1-7.8,0-15.5-0.1-23.3c0-1.3,0.5-1.6,1.7-1.7c7.6-0.4,7.6-0.4,7.6,7.2c0,5.5,0,11,0,16.5c0,1.3,0,2.6,1.5,3.2
		c1.8,0.7,3.1-0.5,3.1-3.1c0-7,0.1-13.9,0-20.9c0-2.2,0.4-2.9,2.8-2.9c6.6,0.2,6.6,0,6.6,6.5C138.3,92.5,138.3,94.7,138.3,97z"/>
	<path class="st0" d="M173.7,100c0-4.8,0-9.6,0-14.3c0-1.5,0.5-2,2-2c5.1,0.1,10.1,0.1,15.2,0c1.4,0,2.3,0.3,2,1.9
		c-0.1,0.4-0.1,0.9,0,1.3c0.4,2.5-0.4,3.7-3.1,3.3c-1.1-0.2-2.4,0.1-3.5,0c-2.5-0.4-3,0.7-2.9,3c0.1,1.6,0.4,2.4,2.1,2.2
		c1.2-0.1,2.6,0.1,3.8,0c2.6-0.4,3.3,0.6,3.3,3.2c0.1,2.9-0.9,3.4-3.5,3.3c-5.7-0.2-5.7,0-5.7,5.7c0,2.4,0,4.9,0,7.3
		c0,1.4-0.3,1.9-1.8,1.9c-7.9,0.4-7.9,0.4-7.9-7.5C173.7,106.2,173.7,103.1,173.7,100z"/>
	<path class="st0" d="M140,83.7c3,0,5.7,0,8.4,0c1.1,0,1.3,0.5,1.5,1.4c0.6,2.9,1.5,5.8,2.5,8.6c0.6-2.7,1.3-5.4,1.9-8
		c0.3-1.4,0.8-2.2,2.5-2.1c1.8,0.2,3.6,0.2,5.5,0.1c1.9-0.2,2.1,0.5,1.4,2.1c-1.4,3.9-2.6,7.9-4.1,11.8c-2.3,5.2-3.2,10.9-2.7,16.6
		c0.2,2.1-0.6,2.6-2.6,2.5c-6.6,0-6.6,0-6.5-6.6c0.1-2.9-0.4-5.8-1.4-8.5C144.1,95.8,142.1,89.9,140,83.7z"/>
	<path class="st0" d="M70.1,132.1c0,3.9-2.6,8.4-6.7,12c-0.9,0.8-2.2,1.4-1,3c0.3,0.3,0.2,0.8-0.1,1.1c-0.1,0.1-0.3,0.2-0.4,0.2
		c-2,0.4-3.5,4.2-6,0.6c-0.5-0.7-1.5,0-2.3,0.2c-5.9,1.6-12.2,0.8-17.5-2.2c-0.8-0.5-1.5-1-2.2-1.6c-5.2-4.3-5-5.3,0.9-8
		c0.6-0.3,1.2-0.5,1.7-0.8c2-1.1,3.5-1.7,5.7,0.5c4,4,12.9,2,15.6-3c1.6-2.7,0.7-6.1-2-7.7c-0.1-0.1-0.3-0.1-0.4-0.2
		c-3-1.6-6.5-1.8-9.7-0.5c-4.4,1.7-9.2,2.1-13.9,1.2c-6.8-1.4-12.1-5.2-13.7-12.3s1.3-12.8,6.6-17.5c1.2-1,3.3-1.4,2.8-3.9
		c-0.2-0.9,1.9-1.3,3-1.9s2.3-1.1,3.1,0.6c0.5,1,1.4,0.3,2.2,0.2c5.5-0.7,10.8-0.5,15.8,2.5c2.2,1.4,4.2,3.2,5.6,5.4
		c0.6,1,0.5,1.6-0.6,2.1c-2.6,1.2-5.2,2.5-7.8,3.8c-1,0.5-1.5,0.1-2.3-0.6c-4.6-4.1-11.7-3.7-15.8,1c-0.1,0.1-0.2,0.2-0.3,0.4
		c-2,2.3-1.8,5.9,0.6,7.9c0.3,0.3,0.7,0.5,1,0.7c3.3,2.1,6.7,1.7,10.2,0.6c5-1.9,10.5-2.1,15.7-0.6C65.3,117.5,70,123.5,70.1,132.1z
		"/>
	<path class="st0" d="M58.6,99c7.2,4,10.7,10.4,11.8,18.3c0.1,2.1,0.1,4.1,0,6.2c-1.2-1-1.9-2.5-1.9-4.1c-0.2-6.4-3.1-12.4-7.9-16.7
		C59.4,101.8,58.6,100.4,58.6,99L58.6,99z"/>
	<path class="st0" d="M28.7,142.5c-7.9-5.9-11.3-13.5-11.2-23.4c1.2,0.8,2,2.1,2.1,3.5c0.3,6.1,3,11.9,7.5,16.1
		C28.2,139.7,28.3,140.1,28.7,142.5z"/>
	<path class="st0" d="M58.6,98.9h-0.4v-0.2l0.3,0.3L58.6,98.9z"/>
	<polygon class="st1" points="88.1,124.3 88.1,157.4 108,157.4 108,150.5 98.1,150.5 98.1,124.3 	"/>
	<polygon class="st1" points="129.7,124.3 110.2,124.3 110.2,157.4 129.7,157.4 129.7,150.9 119.9,150.9 119.9,143.3 129.7,143.3 
		129.7,137 119.9,137 119.9,130.6 129.7,130.6 	"/>
	<path class="st1" d="M146.3,133.8h10c0,0,0.8-8.8-8.4-9.5v-1.8H141v1.8c0,0-7.4,0.2-8.4,7.4c0,0-0.4,5.7,6.1,9.1
		c0,0,6.5,3.1,8.1,7.2c0,0,0.3,3.1-2.4,3.1c-1.2-0.1-2.1-1.1-2.1-2.3V145h-9.3v5.5c0,0,0.5,6.5,8.1,6.9v1.7h6.6v-1.7
		c4.2,0.4,7.9-2.6,8.5-6.7c0,0,0.8-4.7-0.4-6.8c0,0-1.4-3.1-8.4-7c-1.7-1.1-3.3-2.4-4.8-3.7c0,0-0.9-2.7,1.8-2.5
		c1.3,0.3,2.1,1.7,1.8,3C146.3,133.7,146.3,133.7,146.3,133.8z"/>
	<path class="st1" d="M172.2,133.8h10c0,0,0.8-8.8-8.4-9.5v-1.8h-6.9v1.8c0,0-7.4,0.2-8.4,7.4c0,0-0.4,5.7,6.1,9.1
		c0,0,6.5,3.1,8.1,7.2c0,0,0.3,3.1-2.4,3.1c-1.2-0.1-2.1-1.1-2.1-2.3V145H159v5.5c0,0,0.5,6.5,8.1,6.9v1.7h6.5v-1.7
		c4.2,0.4,7.9-2.6,8.5-6.7c0,0,0.8-4.7-0.4-6.8c0,0-1.4-3.1-8.4-7c-1.7-1.1-3.3-2.4-4.8-3.7c0,0-0.9-2.7,1.8-2.5
		c1.3,0.3,2.2,1.6,1.9,2.9C172.2,133.7,172.2,133.7,172.2,133.8z"/>
	<path class="st2" d="M181.6,159.2v-3.5h-1.3v-0.7h3.3v0.7h-1.3v3.5H181.6z"/>
	<path class="st2" d="M184.3,159.2v-4.3h1.3l0.8,2.9l0.8-2.9h1.3v4.3h-0.8v-3.4l-0.8,3.4H186l-0.8-3.4v3.4H184.3z"/>
	<text transform="matrix(0.8421 0.3661 -0.4027 0.9153 54.4902 93.3874)" class="st0 st3 st4">L</text>
	<text transform="matrix(0.7965 0.4552 -0.4962 0.8682 56.8854 94.3776)" class="st0 st3 st5">O</text>
	<text transform="matrix(0.7391 0.5435 -0.5924 0.8056 59.8857 96.0579)" class="st0 st3 st5">C</text>
	<text transform="matrix(0.679 0.624 -0.679 0.7341 62.4108 97.8661)" class="st0 st3 st6">A</text>
	<text transform="matrix(0.6048 0.6873 -0.7514 0.6598 64.7505 99.989)" class="st0 st3 st7">L</text>
	<text transform="matrix(0.5182 0.7571 -0.8252 0.5648 67.0738 102.6292)" class="st0 st3 st5">L</text>
	<text transform="matrix(0.4305 0.806 -0.8793 0.4763 68.5949 104.7507)" class="st0 st3 st8">O</text>
	<text transform="matrix(0.3124 0.8636 -0.9371 0.3491 70.3046 107.724)" class="st0 st3 st9">W</text>
	<text transform="matrix(0.1745 0.9003 -0.983 0.1837 72.1243 112.8872)" class="st0 st3 st10">P</text>
	<text transform="matrix(7.319761e-02 0.915 -0.9973 7.319762e-02 72.7387 115.9865)" class="st0 st3 st11">R</text>
	<text transform="matrix(1.120849e-03 0.9174 -1 1.221725e-03 72.9702 119.1145)" class="st0 st3 st5">I</text>
	<text transform="matrix(-6.894745e-02 0.9148 -0.9972 -7.515272e-02 73.0298 120.264)" class="st0 st3 st5">C</text>
	<text transform="matrix(-0.1629 0.9028 -0.9841 -0.1776 72.8133 123.4058)" class="st0 st3 st5">E</text>
	<text transform="matrix(-0.2564 0.8791 -0.9615 -0.2747 72.3814 126.0167)" class="st0 st3 st12">S</text>
	<text transform="matrix(-0.7793 -0.4859 0.5226 -0.8526 30.5425 145.7477)" class="st0 st13 st14">F</text>
	<text transform="matrix(-0.7246 -0.5595 0.6146 -0.7889 28.2318 144.3975)" class="st0 st13 st15">A</text>
	<text transform="matrix(-0.6336 -0.6611 0.7162 -0.6979 25.5069 142.4188)" class="st0 st13 st16">M</text>
	<text transform="matrix(-0.5638 -0.7237 0.7889 -0.6146 22.1195 138.8315)" class="st0 st13 st17">I</text>
	<text transform="matrix(-0.51 -0.7626 0.8313 -0.5559 21.3459 137.9278)" class="st0 st13 st17">L</text>
	<text transform="matrix(-0.4504 -0.7997 0.8733 -0.4872 20.1672 136.2909)" class="st0 st13 st18">Y</text>
	<text transform="matrix(-0.3134 -0.8663 0.9401 -0.341 18.0572 132.4873)" class="st0 st13 st19">O</text>
	<text transform="matrix(-0.1834 -0.8987 0.9813 -0.1926 16.6967 129.0414)" class="st0 st13 st20">W</text>
	<text transform="matrix(-4.257720e-02 -0.9164 0.9989 -4.640914e-02 15.7198 124.2816)" class="st0 st13 st17">N</text>
	<text transform="matrix(6.591345e-02 -0.9151 0.9974 7.184566e-02 15.5335 120.4214)" class="st0 st13 st17">E</text>
	<text transform="matrix(0.1745 -0.9003 0.983 0.1837 15.664 117.5653)" class="st0 st13 st21">D</text>
</g>
</svg>
