<?xml version="1.0" encoding="utf-8"?>
<!-- Generator: Adobe Illustrator 21.1.0, SVG Export Plug-In . SVG Version: 6.00 Build 0)  -->
<svg version="1.1" id="Layer_1" xmlns="http://www.w3.org/2000/svg" xmlns:xlink="http://www.w3.org/1999/xlink" x="0px" y="0px"
	 viewBox="0 0 250 250" style="enable-background:new 0 0 250 250;" xml:space="preserve">
<style type="text/css">
	.st0{fill:#FEE800;}
	.st1{fill:#BF0D0D;}
	.st2{fill:#FDFCFC;}
</style>
<title>Grocery</title>
<path class="st0" d="M43.8,90.5c15.5,0.7,27.1,7.7,34.4,21.6c0.5,0.9,0.4,1.2-0.6,1.5c-7.3,2-14.6,4-21.9,6c-0.7,0.2-1.4,0-1.8-0.6
	c-4-4-10-5.1-15.2-2.9c-6.8,3-10,10.9-7,17.8c1.6,3.6,4.6,6.3,8.3,7.5c7.1,2.2,14.6-1.8,16.8-8.9c0,0,0,0,0-0.1
	c0.2-1.1,1.1-1.9,2.1-2.1c7.2-1.9,14.3-3.9,21.5-6c1.2-0.3,1.5,0,1.6,1.1c0.8,10.6-1.9,20-8.8,28c-10.2,11.7-23.2,16.2-38.2,12.6
	c-15.6-3.7-25.3-13.8-28.7-29.3c-4.5-20.5,8.5-40.8,29-45.3c2.2-0.5,4.4-0.8,6.6-0.9L43.8,90.5z"/>
<path d="M44.8,167.5c-3.3,0-6.7-0.4-9.9-1.2c-15.4-3.6-25.3-13.8-28.7-29.5c-2.4-10.9,0.1-22.4,6.9-31.3C20,96.5,30.6,91,42,90.5
	l1.2-0.1h0.6l0,0c7.2,0.2,14.2,2.2,20.4,5.9c6,3.9,10.9,9.3,14.2,15.8c0.2,0.3,0.3,0.7,0.2,1.1c-0.1,0.3-0.4,0.4-1,0.6
	c-6.6,1.8-13.5,3.7-21.9,6c-0.7,0.2-1.5,0-1.9-0.6c-3.9-4-9.9-5.1-15-2.9c-6.8,2.9-9.9,10.7-7.1,17.5c1.5,3.6,4.6,6.4,8.3,7.5
	c3.3,1.1,6.9,0.8,10-0.9c3.2-1.7,5.6-4.5,6.7-8c0.2-1.1,1.1-2,2.2-2.2c6.8-1.8,13.8-3.8,21.4-6c0.4-0.2,0.9-0.2,1.3,0
	c0.3,0.2,0.4,0.6,0.5,1.2c0.9,10.9-2.1,20.4-8.9,28.2c-4.6,5.5-10.6,9.7-17.3,12.1C52.3,166.9,48.6,167.5,44.8,167.5z M43.8,90.6
	h-0.6L42,90.6c-11.3,0.5-21.8,6-28.7,15c-6.8,8.8-9.3,20.2-6.9,31c3.5,15.5,13.3,25.7,28.5,29.3c3.2,0.8,6.4,1.2,9.7,1.2
	c10.8,0,20.5-4.7,28.4-13.7c6.7-7.7,9.6-17.1,8.8-28c0-0.6-0.1-0.9-0.3-1c-0.2-0.1-0.5-0.1-1.1,0c-7.6,2.2-14.7,4.1-21.5,6
	c-1.1,0.2-1.9,1.1-2.1,2.2c-1.1,3.5-3.5,6.4-6.8,8.1c-3.1,1.7-6.8,2-10.2,0.9c-7.2-2.4-11-10.2-8.6-17.4c2.4-7.2,10.2-11,17.4-8.6
	c2,0.7,3.8,1.8,5.3,3.3c0.4,0.5,1.1,0.7,1.7,0.5c8.4-2.3,15.3-4.2,21.9-6c0.5-0.1,0.7-0.3,0.8-0.4s0-0.4-0.2-0.9
	C70.9,98.6,59.4,91.4,43.8,90.6L43.8,90.6z"/>
<path class="st1" d="M176.4,110.4c-0.3,4-0.7,8.1-0.9,12.2c0,0.9-0.2,1.3-1.2,1.5c-3.2,0.5-6.4,1.1-9.6,1.8
	c-0.7,0.1-1.1,0.1-1.4-0.6c-0.3-0.7-0.7-1.4-1.1-2.1l-12.9-25.5c3.4-0.7,6.8-1.3,10.2-1.9c0.8-0.2,0.9,0.5,1.1,0.9
	c1.7,3.3,3.4,6.7,5.1,10.1c0.2,0.4,0.2,0.9,0.9,1.2c0.4-4.2,0.8-8.2,1.2-12.3c0.1-1.1,0.4-1.5,1.5-1.7c3-0.5,6-1.1,9-1.7
	c0.8-0.2,1.1,0.1,1.3,0.7c1.9,3.8,3.8,7.6,5.9,11.8c0.1-2.2,0.2-4,0.3-5.8c0.1-2.4,0.2-4.7,0.3-7.1c0-0.8,0.2-1.1,1-1.3
	c2.8-0.5,5.6-1,8.4-1.6c0.8-0.2,1,0,1,0.9c-0.7,9.8-1.5,19.6-2.1,29.5c0,0.7-0.3,1-1,1.2c-3.1,0.5-6.2,1.1-9.3,1.7
	c-0.9,0.2-1.3-0.1-1.7-0.9c-1.5-3.2-3.1-6.4-4.7-9.6c-0.2-0.5-0.5-1-0.8-1.5L176.4,110.4z"/>
<path d="M164.2,126c-0.5,0-0.9-0.3-1-0.8c-0.2-0.5-0.4-0.9-0.7-1.3l-0.4-0.7L152,103.4l-3-5.8L152,97l7.4-1.4c0.8-0.2,1,0.4,1.2,0.8
	l0.1,0.2c0.9,1.8,1.8,3.7,2.8,5.5l2.3,4.6c0,0.1,0.1,0.2,0.1,0.3c0.1,0.3,0.3,0.5,0.5,0.7c0.1-1.1,0.2-2.1,0.3-3.2
	c0.3-2.9,0.6-5.9,0.8-8.9c-0.1-0.9,0.6-1.7,1.5-1.8c0,0,0.1,0,0.1,0c3.2-0.5,6.4-1.2,9-1.7c0.6-0.2,1.3,0.1,1.5,0.7c0,0,0,0.1,0,0.1
	c1.3,2.8,2.8,5.7,4.3,8.7l1.3,2.7l0.1-1.5c0.1-1.3,0.1-2.6,0.2-3.8v-0.6c0.1-2.1,0.2-4.3,0.2-6.5c0-0.8,0.2-1.3,1.2-1.4
	c2.7-0.4,5.3-1,8.4-1.6c0.5-0.1,0.7,0,0.9,0.1c0.2,0.1,0.2,0.4,0.2,0.9c-0.7,9.5-1.4,19.4-2.1,29.5c0,0.8-0.3,1.2-1.1,1.3
	c-3,0.5-6.1,1.1-9.3,1.7c-0.7,0.3-1.5-0.1-1.8-0.8c0,0,0-0.1,0-0.1c-1.2-2.5-2.4-5-3.6-7.4l-1.1-2.2c-0.2-0.3-0.3-0.7-0.5-1
	l-0.2-0.4h-0.1l-0.3,3.1c-0.2,2.9-0.5,6-0.7,9c0,0.9-0.3,1.4-1.3,1.6c-3.3,0.5-6.5,1.2-9.6,1.8C164.5,126,164.3,126,164.2,126z
	 M149.5,97.8l2.8,5.5l10,19.8l0.4,0.7c0.3,0.5,0.5,0.9,0.7,1.4c0.3,0.6,0.6,0.7,1.3,0.5c3-0.6,6.3-1.2,9.6-1.8
	c0.9-0.1,1-0.5,1.1-1.3c0.2-3,0.5-6.1,0.7-9l0.3-3.2v-0.1l0.5-0.2v0.1l0.2,0.5c0.2,0.3,0.3,0.7,0.5,1l1.1,2.2
	c1.2,2.4,2.4,4.9,3.6,7.4c0.3,0.7,0.6,1,1.5,0.8c3.2-0.7,6.3-1.2,9.3-1.7c0.7-0.1,0.9-0.3,0.9-1c0.7-10.1,1.4-20,2.1-29.5
	c0-0.4,0-0.6-0.1-0.7c-0.1-0.1-0.3-0.1-0.7,0c-3,0.6-5.6,1.1-8.4,1.6c-0.8,0.1-0.9,0.4-0.9,1.1c0,2.2-0.1,4.4-0.2,6.5V99
	c0,1.2-0.1,2.5-0.2,3.8l-0.1,2v0.5l-0.2-0.5l-1.6-3.2c-1.5-3-2.9-5.8-4.3-8.7c-0.3-0.6-0.5-0.8-1.2-0.6c-2.7,0.6-5.8,1.2-9,1.7
	c-1,0.2-1.3,0.5-1.3,1.5c-0.2,3-0.5,6-0.8,8.9c-0.1,1.1-0.2,2.3-0.3,3.4v0.2l-0.2-0.1c-0.4-0.2-0.7-0.5-0.8-1c0-0.1-0.1-0.2-0.1-0.3
	l-2.3-4.6c-0.9-1.8-1.8-3.7-2.8-5.5l-0.1-0.3c-0.2-0.5-0.3-0.7-0.9-0.6l-7.4,1.4L149.5,97.8z"/>
<path class="st2" d="M172.9,142.5c0.4-4.1,0.8-8.3,1.2-12.5c0.1-0.8,0.2-1.3,1.1-1.4c3.1-0.5,6.2-1.1,9.3-1.8
	c0.9-0.2,1.2,0.1,1.6,0.8c1.7,3.5,3.5,7,5.2,10.5c0.1,0.3,0.2,0.6,0.7,0.8c0.1-2.4,0.2-4.8,0.3-7.2c0.1-1.8,0.2-3.6,0.2-5.4
	c0-0.7,0.2-1,1-1.2c2.8-0.5,5.6-1,8.4-1.6c1-0.2,1.1,0.2,1,1c-0.4,5.3-0.8,10.7-1.2,16.1c-0.3,4.3-0.7,8.7-0.9,13.1
	c0,0.9-0.3,1.3-1.2,1.4c-3.2,0.5-6.3,1.1-9.4,1.8c-0.8,0.2-1-0.3-1.3-0.9c-1.7-3.6-3.5-7.1-5.2-10.7c-0.1-0.2-0.2-0.4-0.5-0.9
	c-0.2,2.9-0.5,5.5-0.7,8c-0.1,1.6-0.3,3.1-0.3,4.7c0,0.9-0.3,1.2-1.2,1.3c-3.2,0.5-6.3,1.1-9.4,1.7c-0.7,0.3-1.5-0.1-1.7-0.8
	c-2.5-5.1-5.1-10.1-7.7-15.1l-6.2-12.2c3.5-0.7,6.9-1.3,10.3-1.9c0.7-0.1,0.7,0.4,0.9,0.8c1.7,3.4,3.4,6.8,5.1,10.2
	c0.2,0.4,0.4,0.8,0.6,1.2L172.9,142.5z"/>
<path d="M170.7,160.6c-0.6,0-0.9-0.3-1.3-0.9c-2-4-4-8-6-11.8l-1.7-3.3l-4.1-8.1l-2.2-4.2l2.9-0.5l7.5-1.4c0.7-0.1,0.9,0.3,1,0.7
	l0.1,0.2l3.5,6.9l1.6,3.3l0.4,0.8l0.1,0.3h0.1l0.3-3.1c0.3-3,0.6-6.1,0.9-9.2c0.1-0.8,0.2-1.3,1.2-1.5c3-0.5,6.1-1.1,9.3-1.8
	c0.7-0.2,1.5,0.1,1.7,0.8c0,0,0,0.1,0,0.1c1.3,2.9,2.8,5.8,4.2,8.6l1,1.9l0.1,0.2c0.1,0.2,0.2,0.4,0.3,0.5l0.1-2.1
	c0.1-1.7,0.1-3.3,0.2-4.9v-1.2c0-1.3,0.1-2.8,0.1-4.2c-0.1-0.6,0.3-1.2,0.9-1.3c0.1,0,0.2,0,0.2,0c3-0.5,5.7-1,8.3-1.6
	c0.5-0.1,0.8-0.1,1,0.1c0.2,0.2,0.2,0.6,0.2,1c-0.3,3.8-0.6,7.6-0.8,11.3l-0.3,4.8c-0.1,1.3-0.2,2.5-0.3,3.8c-0.2,3-0.5,6.2-0.7,9.3
	c0,1-0.4,1.3-1.3,1.5c-2.9,0.5-6,1.1-9.4,1.8c-0.9,0.2-1.2-0.4-1.4-0.9l0,0c-1.7-3.6-3.5-7.1-5.2-10.7c-0.1-0.1-0.2-0.3-0.2-0.4
	l-0.1-0.1l-0.2,2.1c-0.2,1.9-0.3,3.7-0.5,5.5c0,0.4,0,0.8-0.1,1.2c-0.1,1.2-0.2,2.4-0.2,3.5c0,0.9-0.4,1.3-1.3,1.5
	c-3,0.5-6.2,1.1-9.4,1.7C171.1,160.7,170.9,160.7,170.7,160.6z M155.9,132.4l2,3.9l4.1,8.1l1.7,3.3c2,3.9,4,7.9,6,11.8
	c0.2,0.6,0.8,1,1.4,0.8c0.1,0,0.1,0,0.2-0.1c3.2-0.7,6.4-1.2,9.4-1.7c0.8-0.1,1.1-0.4,1.1-1.2c0-1.2,0.1-2.4,0.2-3.6
	c0-0.4,0.1-0.8,0.1-1.2c0.1-1.8,0.3-3.6,0.5-5.5l0.3-2.9l0.2,0.4l0.3,0.5c0.1,0.1,0.2,0.3,0.3,0.4c1.8,3.6,3.5,7.1,5.2,10.7l0,0
	c0.3,0.5,0.4,0.9,1.1,0.7c3.5-0.7,6.5-1.3,9.4-1.8c0.8-0.1,1.1-0.4,1.1-1.3c0.2-3.1,0.4-6.2,0.7-9.3c0.1-1.3,0.2-2.5,0.3-3.8
	c0.1-1.6,0.2-3.2,0.3-4.8c0.3-3.7,0.5-7.5,0.8-11.3c0-0.4,0-0.7-0.1-0.8s-0.3-0.1-0.7,0c-2.6,0.5-5.3,1.1-8.4,1.6
	c-0.7,0.1-0.9,0.3-0.9,1c0,1.4-0.1,2.8-0.1,4.2c0,0.4,0,0.8,0,1.2c-0.1,1.6-0.1,3.3-0.2,4.9l-0.1,2.5l-0.2-0.1
	c-0.3-0.1-0.6-0.4-0.7-0.7l-0.1-0.2l-1-1.9c-1.3-2.8-2.9-5.7-4.2-8.6c-0.4-0.7-0.7-0.9-1.4-0.7c-3.2,0.7-6.3,1.3-9.3,1.8
	c-0.8,0.1-0.9,0.5-1,1.3c-0.3,3.1-0.6,6.2-0.9,9.2l-0.3,3.2v0.1l-0.5,0.1l-0.3-0.5l-0.4-0.8l-1.7-3.3l-3.5-6.9l-0.1-0.2
	c-0.1-0.3-0.2-0.6-0.7-0.5l-7.5,1.4L155.9,132.4z"/>
<path class="st1" d="M222.1,97.2c-0.7-3.8-1.3-7.7-2.1-11.5c-0.2-1.1,0-1.4,1.1-1.6c2.5-0.4,4.9-0.9,7.4-1.3c0.7-0.1,1,0,1.1,0.7
	c1.7,9.4,3.5,18.8,5.3,28.2c0.1,0.7,0,1-0.7,1.1c-3.7,0.7-7.5,1.3-11.2,2.1c-0.8,0.1-1.1-0.2-1.5-0.7l-8.7-10
	c-0.2-0.3-0.5-0.5-0.9-0.6c0.6,2.8,1.1,5.6,1.7,8.3c0.2,1,0.4,1.9,0.6,2.9c0.4,1.3,0.2,1.9-1.3,2.1c-2.8,0.4-5.5,0.9-8.2,1.5
	c-0.9,0.2-1.1,0-1.3-0.9c-1.7-9.3-3.5-18.6-5.2-27.9c-0.2-0.9,0-1.2,0.9-1.3c4.2-0.7,8.4-1.5,12.6-2.4c0.7-0.2,1.5,0.1,1.9,0.7
	c2.7,3.6,5.5,7.1,8.3,10.7L222.1,97.2z"/>
<path d="M204.2,118.6c-0.2,0-0.3,0-0.5-0.1c-0.3-0.2-0.4-0.6-0.4-0.9c-1.7-9.1-3.4-18.5-5.2-27.9c-0.3-0.5,0-1.2,0.5-1.4
	c0.2-0.1,0.3-0.1,0.5-0.1c4-0.7,8.3-1.5,12.6-2.4c0.8-0.2,1.6,0.1,2,0.8c2,2.7,4.1,5.3,6.2,7.9l2.1,2.7h0.1l-0.5-3
	c-0.5-2.7-1-5.5-1.6-8.3c-0.1-0.4-0.1-0.9,0.1-1.2c0.2-0.3,0.5-0.4,1.1-0.5c2.4-0.4,4.9-0.9,7.2-1.3h0.1c0.4-0.2,1-0.1,1.2,0.3
	c0.1,0.2,0.1,0.3,0.1,0.5c1.6,8.9,3.4,18.2,5.2,28.2c0.1,0.3,0.1,0.6-0.1,0.9c-0.2,0.2-0.5,0.4-0.8,0.4c-4.2,0.7-7.9,1.4-11.2,2.1
	c-0.6,0.1-1.3-0.2-1.6-0.7L214,106l-1.3-1.6c-0.2-0.2-0.3-0.4-0.6-0.5l0.4,2.2l1.2,5.9c0,0.3,0.1,0.5,0.1,0.8
	c0.1,0.7,0.3,1.4,0.5,2.1c0.5,0.7,0.3,1.6-0.4,2c-0.3,0.2-0.7,0.3-1,0.2c-2.7,0.4-5.5,0.9-8.1,1.5h-0.1
	C204.5,118.6,204.3,118.6,204.2,118.6z M212.2,86c-0.2,0-0.3,0-0.5,0c-4.3,0.9-8.5,1.6-12.6,2.4c-0.4-0.1-0.9,0.3-0.9,0.7
	c0,0.2,0,0.3,0.1,0.5c1.8,9.5,3.6,18.8,5.2,27.9c0.1,0.4,0.2,0.6,0.3,0.7c0.2,0.1,0.5,0.1,0.8,0h0.1c2.7-0.6,5.4-1.1,8.2-1.5
	c0.7-0.1,1.1-0.3,1.2-0.5c0.2-0.3,0.2-0.7,0-1.3c-0.2-0.7-0.4-1.4-0.5-2.1c0-0.3-0.1-0.5-0.1-0.8l-1.2-5.9l-0.5-2.7l0.2,0.1
	c0.4,0.1,0.7,0.3,0.9,0.7l1.3,1.6l7.3,8.4c0.4,0.4,0.7,0.8,1.3,0.7c3.3-0.7,7-1.3,11.2-2.1c0.2,0,0.4-0.1,0.6-0.3
	c0.1-0.2,0.1-0.5,0-0.7c-1.9-10-3.6-19.2-5.3-28.2c0-0.3-0.1-0.5-0.3-0.6c-0.2-0.1-0.5-0.1-0.7,0h-0.1c-2.4,0.5-4.8,1-7.3,1.3
	c-0.5,0.1-0.8,0.2-1,0.4s-0.1,0.5,0,1c0.6,2.8,1.1,5.6,1.6,8.3l0.6,3.2v0.1l-0.5,0.1v-0.1l-2.1-2.7c-2-2.6-4.1-5.2-6.2-7.9
	C213.2,86.3,212.7,86,212.2,86L212.2,86z"/>
<path class="st2" d="M218.3,138.3c0.8,3.9,1.5,7.7,2.4,11.6c0.2,1,0,1.3-1,1.5c-2.8,0.5-5.7,1-8.5,1.6c-0.9,0.2-1.2,0-1.3-0.9
	c-1.7-9.3-3.4-18.5-5.2-27.8c-0.2-1,0.1-1.2,1-1.4c4.2-0.7,8.3-1.5,12.4-2.4c0.7-0.2,1.5,0.1,1.9,0.7c2.5,3.2,5,6.4,7.5,9.7
	c0.3,0.3,0.4,0.8,1.1,1l-1.6-8.8c-0.2-1.1-0.3-2.1-0.6-3.1c-0.2-0.8,0.1-1,0.8-1.1c2.6-0.5,5.1-0.9,7.7-1.4c0.8-0.2,1.1,0,1.3,0.9
	c1.5,8.4,3.1,16.8,4.7,25.2c0.2,1,0.3,1.9,0.5,2.9c0.2,0.7-0.1,1-0.8,1.1c-3.7,0.7-7.5,1.3-11.2,2.1c-0.7,0.1-1-0.2-1.3-0.6
	l-8.8-10.1l-0.6-0.7L218.3,138.3z"/>
<path d="M210.6,153.2c-0.2,0-0.4,0-0.5-0.1c-0.3-0.2-0.5-0.6-0.5-1c-1.7-9.1-3.4-18.4-5.2-27.8c-0.1-0.4-0.1-0.8,0.1-1.1
	c0.3-0.3,0.6-0.5,1-0.5c4.5-0.8,9-1.7,12.4-2.4c0.8-0.2,1.6,0.1,2,0.8c2.2,2.9,4.5,5.9,6.8,8.7l0.7,0.9l0.2,0.2
	c0.1,0.3,0.4,0.5,0.6,0.6l-0.4-2.2l-1.2-6.3c0-0.3-0.1-0.6-0.1-0.9c-0.1-0.7-0.3-1.5-0.5-2.3c-0.1-0.3-0.1-0.6,0-0.9
	c0.2-0.2,0.5-0.4,0.8-0.4c2.5-0.4,5.1-0.9,7.7-1.4c0.5-0.2,1.1,0,1.3,0.5c0.1,0.2,0.1,0.3,0.1,0.5c1.2,6.5,2.4,13.2,3.6,19.6
	l1.1,5.6l0.1,0.9c0.1,0.7,0.2,1.3,0.4,2c0.1,0.3,0.1,0.6,0,0.9c-0.2,0.3-0.5,0.4-0.8,0.4c-4.2,0.7-7.6,1.3-11.2,2.1
	c-0.6,0.1-1.2-0.1-1.5-0.6l0,0l-8.3-9.6l-0.5-0.6l-0.4-0.5l-0.1-0.1l0,0l0.6,3.1c0.6,2.8,1.1,5.6,1.7,8.4c0.3,0.6,0.1,1.3-0.5,1.6
	c-0.2,0.1-0.4,0.1-0.6,0.1c-2.5,0.4-5.3,0.9-8.5,1.6C211.1,153.2,210.9,153.2,210.6,153.2z M218.6,120.6c-0.2,0-0.3,0-0.5,0
	c-3.4,0.7-7.9,1.6-12.4,2.4c-0.5,0.1-0.7,0.2-0.9,0.4c-0.1,0.3-0.1,0.6,0,0.9c1.8,9.3,3.5,18.7,5.2,27.8c0.1,0.4,0.2,0.7,0.3,0.8
	c0.3,0.1,0.6,0.1,0.8,0c3.2-0.7,5.9-1.2,8.5-1.6c0.5-0.1,0.8-0.2,0.9-0.4c0.1-0.3,0.1-0.7,0-1c-0.6-2.8-1.2-5.7-1.7-8.4l-0.6-3.1
	v-0.1l0.4-0.3l0.3,0.3l0.4,0.5l0.5,0.6l8.2,9.5l0,0c0.3,0.4,0.6,0.7,1.2,0.5c3.6-0.7,7.1-1.3,11.2-2.1c0.4,0,0.6-0.2,0.7-0.3
	c0.1-0.2,0.1-0.4,0-0.6c-0.2-0.7-0.3-1.3-0.4-2l-0.1-0.9l-1.1-5.6c-1.2-6.4-2.4-13-3.6-19.6c0-0.3-0.1-0.5-0.3-0.7
	c-0.3-0.1-0.5-0.1-0.8,0c-2.6,0.5-5.2,1-7.7,1.4c-0.4,0-0.6,0.1-0.6,0.3c-0.1,0.2-0.1,0.4,0,0.6c0.2,0.7,0.3,1.5,0.5,2.3
	c0,0.3,0.1,0.6,0.1,0.9l1.2,6.3l0.5,2.7h-0.2c-0.4-0.1-0.8-0.4-1-0.8l-0.2-0.2l-0.7-0.9c-2.2-2.8-4.6-5.8-6.8-8.7
	C219.5,120.9,219,120.7,218.6,120.6L218.6,120.6z"/>
<path class="st1" d="M154.4,116.5c-0.1,9.4-7.8,16.9-17.1,16.8c-9.4-0.1-16.9-7.8-16.8-17.1s7.8-16.9,17.1-16.8c0.1,0,0.2,0,0.3,0
	C147.2,99.6,154.5,107.2,154.4,116.5z M130.2,116c0.1,4,3.3,7.1,7.2,7.2c4,0,7.2-3.3,7.2-7.2c0-4-3.3-7.2-7.2-7.2l0,0
	C133.4,108.9,130.2,112.1,130.2,116z"/>
<path d="M137.5,133.4h-0.2c-9.4-0.4-16.8-8.3-16.4-17.8c0.4-9.1,7.8-16.4,17-16.5h0.2c9.4,0.3,16.9,8.2,16.6,17.6
	c-0.1,4.4-2,8.6-5.1,11.7C146.2,131.7,141.9,133.4,137.5,133.4z M137.8,99.5c-9.3-0.2-17,7.2-17.2,16.5s7.2,17,16.5,17.2
	c9.3,0.2,17-7.2,17.2-16.5c0-0.1,0-0.1,0-0.2l0,0c0.1-9.2-7.1-16.7-16.3-17L137.8,99.5z M137.5,123.3c-4.1,0-7.4-3.3-7.4-7.3
	c0-4.1,3.3-7.4,7.3-7.4l0,0c2,0,3.9,0.8,5.3,2.2c1.4,1.4,2.2,3.2,2.2,5.2C144.8,120,141.6,123.3,137.5,123.3L137.5,123.3z
	 M130.4,116c0,3.9,3.2,7,7.1,7l0,0c3.9,0,7-3.1,7.1-7c0-1.9-0.8-3.7-2.1-5c-1.3-1.3-3.1-2.1-5-2.1l0,0
	C133.6,109,130.4,112.1,130.4,116L130.4,116z"/>
<path class="st2" d="M160.8,151c-0.1,9.4-7.7,16.9-17,16.8c-9.4-0.1-16.9-7.7-16.8-17c0.1-9.3,7.6-16.8,17-16.8
	c9.3-0.1,16.9,7.4,16.9,16.7C160.8,150.8,160.8,150.9,160.8,151z M143.9,143.5c-4,0-7.2,3.2-7.2,7.2s3.2,7.2,7.2,7.2
	c4,0.2,7.3-2.9,7.5-6.9c0.2-4-2.9-7.3-6.9-7.5C144.3,143.4,144.1,143.4,143.9,143.5z"/>
<path d="M143.8,168L143.8,168c-4.5,0-8.8-1.8-11.9-5c-6.7-6.7-6.7-17.5,0-24.2c3.2-3.2,7.5-5,12.1-5h0.2c4.4,0,8.7,1.8,11.8,4.9
	c3.3,3.3,5.1,7.7,5.1,12.3c0,4.5-1.8,8.8-5,12C152.8,166.3,148.4,168.1,143.8,168z M144.1,134.1h-0.2c-9.3,0-16.8,7.6-16.8,16.9
	c0,4.4,1.8,8.7,4.9,11.9c3.1,3.1,7.3,4.9,11.7,4.9c4.5,0,8.8-1.7,12-4.8c3.2-3.1,5-7.4,4.9-11.9l0,0c0-4.5-1.8-8.9-5-12.1
	C152.6,135.8,148.4,134.1,144.1,134.1L144.1,134.1z M143.9,158L143.9,158c-4.1,0-7.3-3.3-7.3-7.3c0-4.1,3.3-7.3,7.3-7.3l0,0l0,0
	c2,0,3.9,0.8,5.2,2.2c1.4,1.4,2.2,3.2,2.2,5.2C151.3,154.7,148,158,143.9,158L143.9,158z M143.9,143.6c-3.9,0-7,3.2-7,7
	c0,3.9,3.1,7,7,7l0,0c3.9,0,7.1-3.1,7.1-7c0-1.9-0.8-3.7-2.1-5C147.6,144.4,145.8,143.6,143.9,143.6L143.9,143.6z"/>
<path class="st1" d="M120,113.9c0.2,0.9-0.3,0.9-0.8,1c-3.4,0.6-6.8,1.3-10.3,1.9c-1,0.2-1.3,0.4-1,1.5c1.1,5.5,2.1,10.9,3.1,16.4
	c0.2,0.9-0.1,1.2-1,1.3c-2.7,0.4-5.3,0.9-7.9,1.5c-1.3,0.3-1.6,0-1.9-1.2c-0.9-5.3-2-10.8-3-16.2c-0.2-1-0.5-1.1-1.4-0.9
	c-3.4,0.7-6.7,1.3-10.1,1.9c-0.8,0.2-1.1,0-1.3-0.8c-0.5-3.1-1-6.2-1.7-9.3c-0.2-1.1,0.5-1,1.1-1.1c6-1.1,12-2.3,18-3.4
	c5-0.9,9.9-1.8,14.9-2.8c0.9-0.2,1.3,0,1.4,1C118.8,107.9,119.4,111,120,113.9z"/>
<path d="M101.3,137.8c-0.2,0-0.4,0-0.6-0.2c-0.3-0.2-0.5-0.6-0.6-1.3c-0.5-2.7-1-5.5-1.5-8.2c-0.5-2.7-1-5.3-1.5-8
	c-0.1-0.5-0.2-0.7-0.3-0.8s-0.4-0.1-0.9,0c-1.8,0.4-3.6,0.7-5.3,1c-1.5,0.3-3.1,0.6-4.7,0.9c-0.3,0.1-0.7,0.1-1-0.1
	c-0.3-0.2-0.4-0.5-0.4-0.9c-0.5-3-1-6.1-1.7-9.3c-0.1-0.3-0.1-0.6,0.1-0.9c0.2-0.2,0.5-0.3,0.8-0.3h0.3l13.8-2.7l4.2-0.8l3.7-0.7
	c3.7-0.7,7.5-1.3,11.2-2.1c0.4-0.1,0.8-0.1,1.1,0.1c0.3,0.2,0.5,0.6,0.5,1c0.4,2.3,0.8,4.6,1.2,6.8l0.4,2.4c0.1,0.3,0.1,0.6,0,0.8
	c-0.2,0.2-0.4,0.3-0.7,0.3h-0.1l-3,0.6c-2.4,0.5-4.8,0.9-7.2,1.3c-0.5,0.1-0.8,0.2-0.9,0.4c-0.1,0.2-0.1,0.5,0,1
	c0.6,3,1.2,6.1,1.7,9.2c0.4,2.4,0.9,4.8,1.3,7.2c0.1,0.3,0.1,0.7-0.1,1c-0.3,0.3-0.6,0.4-1,0.5l-0.7,0.1c-2.4,0.4-4.8,0.8-7.2,1.3
	C101.9,137.7,101.6,137.8,101.3,137.8z M96.5,119.1c0.2,0,0.4,0,0.5,0.1c0.2,0.2,0.4,0.4,0.5,1c0.5,2.7,1,5.3,1.5,8
	c0.5,2.7,1,5.5,1.5,8.2c0.1,0.6,0.3,0.9,0.5,1.1c0.4,0.2,0.8,0.2,1.2,0c2.4-0.6,4.9-1,7.2-1.3l0.7-0.1c0.5-0.1,0.7-0.2,0.8-0.3
	c0.1-0.3,0.1-0.6,0-0.8c-0.5-2.4-0.9-4.9-1.3-7.2c-0.6-3-1.1-6.1-1.7-9.2c-0.1-0.4-0.1-0.8,0.1-1.2c0.3-0.3,0.7-0.5,1.1-0.5
	c2.4-0.4,4.9-0.9,7.2-1.3l3-0.6h0.1c0.2,0,0.4-0.1,0.5-0.2c0.1-0.2,0.1-0.4,0-0.6l0,0l-0.5-2.4c-0.4-2.2-0.8-4.5-1.2-6.8
	c0-0.3-0.1-0.6-0.4-0.8c-0.3-0.1-0.6-0.1-0.9,0c-3.7,0.7-7.5,1.4-11.2,2.1l-3.7,0.7l-4.2,0.8l-13.8,2.7h-0.3c-0.3,0-0.5,0-0.7,0.2
	c-0.1,0.2-0.1,0.5,0,0.7c0.6,3.2,1.2,6.3,1.7,9.3c0,0.4,0.2,0.6,0.3,0.7c0.1,0.1,0.4,0.1,0.8,0c1.6-0.3,3.2-0.6,4.7-0.9
	c1.8-0.3,3.6-0.7,5.3-1C96,119.2,96.2,119.1,96.5,119.1z"/>
<path class="st2" d="M111.7,168.5c-1.5,0-3,0-4.5,0c-0.7,0-1-0.2-1.2-1c-0.7-4.1-1.5-8.1-2.3-12.2c-0.4-2,0.1-1.7-2.1-1.3
	c-3.1,0.6-6.3,1.2-9.4,1.8c-0.9,0.2-1.3,0-1.4-1c-0.5-2.9-1-5.9-1.6-8.8c-0.2-1,0-1.3,1-1.5c7.1-1.3,14.2-2.7,21.3-4
	c3.9-0.7,7.7-1.5,11.6-2.2c0.8-0.1,1.3-0.2,1.4,0.8c0.5,3.1,1.1,6.2,1.7,9.3c0.2,1-0.5,1-1.1,1.2c-3.3,0.6-6.7,1.3-10,1.8
	c-1,0.2-1.3,0.4-1,1.5c1,4.9,1.8,9.8,2.8,14.7c0.2,0.9-0.1,0.9-0.8,0.9c-1.5,0-3.1,0-4.6,0L111.7,168.5z"/>
<path d="M116.4,168.7h-0.1c-1.1,0-2.2,0-3.3,0h-2.7c-1,0-2.1,0-3.1,0c-0.8,0-1.2-0.3-1.3-1.1c-0.7-4-1.5-8.1-2.3-12.2
	c0-0.3-0.1-0.6-0.1-0.8c0-0.2-0.1-0.6-0.2-0.7c-0.1-0.1-0.4,0-0.8,0.1l-0.8,0.1c-3.1,0.5-6.3,1.1-9.4,1.8c-0.4,0.1-0.8,0.1-1.1-0.1
	c-0.3-0.3-0.5-0.6-0.5-1c-0.5-3.4-1-6.2-1.6-8.8c-0.2-0.4-0.2-0.8,0-1.2c0.2-0.3,0.5-0.4,1.1-0.5c5.9-1.1,11.8-2.2,17.6-3.3l3.8-0.7
	c3.7-0.7,7.7-1.4,11.6-2.2c0.4-0.2,0.8-0.2,1.2,0c0.3,0.2,0.4,0.5,0.4,0.9c0.5,3.2,1.1,6.3,1.7,9.3c0.1,0.3,0.1,0.6-0.1,0.9
	c-0.2,0.3-0.6,0.4-0.9,0.4l-0.4,0.1c-3.2,0.6-6.5,1.2-9.8,1.8c-0.4,0.1-0.7,0.2-0.9,0.4c-0.1,0.3-0.1,0.7,0,1
	c0.6,2.7,1.1,5.6,1.6,8.3c0.4,2.1,0.8,4.2,1.2,6.3c0.1,0.4,0,0.7-0.1,0.9C116.9,168.6,116.7,168.7,116.4,168.7z M114.4,168.4h1.9
	c0.3,0,0.6,0,0.7-0.1c0.1-0.1,0.1-0.3,0-0.6c-0.4-2.1-0.8-4.3-1.2-6.3c-0.5-2.7-1-5.5-1.6-8.3c-0.3-0.6-0.1-1.3,0.5-1.5
	c0.2-0.1,0.4-0.1,0.7-0.1c3.3-0.6,6.6-1.2,9.8-1.8h0.2h0.2c0.3,0,0.6-0.1,0.7-0.3c0.1-0.2,0.1-0.5,0-0.7c-0.6-3-1.2-6.1-1.7-9.3
	c0-0.3-0.1-0.5-0.3-0.7c-0.3-0.1-0.7-0.1-1,0c-3.9,0.8-7.9,1.5-11.6,2.2l-3.8,0.7c-5.7,1.1-11.7,2.2-17.6,3.3
	c-0.5,0.1-0.7,0.2-0.9,0.4s-0.1,0.5,0,1c0.5,2.6,1,5.3,1.6,8.8c0.1,0.4,0.2,0.7,0.3,0.8c0.2,0.1,0.5,0.1,0.9,0
	c3.1-0.7,6.3-1.3,9.4-1.8l0.8-0.1c0.6-0.1,0.8-0.2,1,0s0.2,0.4,0.3,0.9c0,0.2,0.1,0.5,0.1,0.8c0.8,4.1,1.6,8.2,2.3,12.2
	c0.1,0.7,0.3,0.9,1,0.9c1.1,0,2.1,0,3.2,0L114.4,168.4L114.4,168.4z"/>
<path class="st1" d="M235.2,167.3c-0.7-3.7-1.3-7.5-2.1-11.2c-0.3-1.2-0.1-1.8,1.3-2c2.4-0.3,4.7-0.8,7.1-1.3
	c0.8-0.2,1.1,0.1,1.2,0.8c0.8,4.5,1.6,9,2.5,13.5c0.2,0.9-0.2,1-0.9,1c-10.1,0-20.2,0-30.3,0.1c-0.9,0-1.2-0.3-1.3-1.1
	c-0.4-2.4-0.9-4.8-1.3-7.2c-0.2-1-0.1-1.4,1-1.6c4.2-0.7,8.3-1.5,12.4-2.3c0.7-0.2,1.4,0.1,1.8,0.7c2.5,3.3,5.1,6.5,7.6,9.8
	c0.3,0.4,0.6,0.7,0.9,1.1L235.2,167.3z"/>
<path d="M213.9,168.4c-0.9,0-1.3-0.3-1.5-1.2c-0.4-2.3-0.8-4.7-1.3-7.2c-0.2-0.4-0.2-0.9,0-1.3c0.3-0.3,0.7-0.5,1.1-0.5
	c3.6-0.6,7.2-1.3,10.8-2l1.7-0.3c0.7-0.2,1.5,0.1,1.9,0.7c1.9,2.5,3.9,5,5.8,7.5l1.8,2.3l0.6,0.7l0.2,0.3l0,0l-0.6-3
	c-0.5-2.7-1-5.3-1.5-8c-0.2-0.5-0.2-1.1,0.1-1.6c0.3-0.4,0.8-0.6,1.3-0.6c2.1-0.3,4.3-0.7,6.3-1.2l0.8-0.2c0.3-0.1,0.6-0.1,0.9,0.1
	c0.3,0.2,0.4,0.5,0.4,0.9c0.8,4.3,1.6,8.9,2.5,13.5c0.1,0.3,0.1,0.6-0.1,0.9c-0.3,0.2-0.6,0.3-0.9,0.3
	C232.5,168.3,222.8,168.3,213.9,168.4L213.9,168.4z M225.2,156c-0.2,0-0.3,0-0.5,0l-1.7,0.3c-3.5,0.7-7.2,1.4-10.8,2
	c-0.3,0-0.7,0.2-0.9,0.4c-0.1,0.2-0.1,0.6,0,1.1c0.5,2.6,1,4.9,1.3,7.2c0.1,0.8,0.4,1,1.2,1c9,0,18.7-0.1,30.3-0.1
	c0.4,0,0.6,0,0.7-0.1c0.1-0.1,0.1-0.3,0-0.7c-0.9-4.6-1.7-9.2-2.5-13.5c0-0.3-0.1-0.5-0.3-0.7c-0.2-0.1-0.5-0.1-0.7,0l-0.8,0.2
	c-2.1,0.4-4.2,0.9-6.3,1.2c-0.4,0-0.8,0.2-1.1,0.5c-0.2,0.4-0.2,0.9,0,1.3c0.6,2.7,1.1,5.3,1.5,8c0.2,1,0.4,2.1,0.6,3.1v0.1
	l-0.4,0.2l-0.3-0.4l-0.6-0.7l-1.8-2.3c-1.9-2.4-3.9-5-5.8-7.5C226.1,156.2,225.6,156,225.2,156z"/>
<path class="st1" d="M203.7,168.3c-1.3,0-2.7,0-4,0c-0.7,0-1-0.2-0.9-0.9c0.1-1.9,0.2-3.8,0.2-5.7c0-0.7,0.3-1,0.9-1.1
	c2.9-0.5,5.7-1,8.6-1.6c0.7-0.1,0.9,0,0.8,0.8c-0.2,2.4-0.4,4.9-0.5,7.3c0,0.9-0.3,1.2-1.2,1.1C206.3,168.2,205.1,168.3,203.7,168.3
	L203.7,168.3z"/>
<path d="M199.6,168.4c-0.3,0-0.5-0.1-0.7-0.2c-0.2-0.3-0.3-0.6-0.2-0.9c0.1-2,0.2-4,0.2-5.7c-0.1-0.6,0.3-1.1,0.9-1.2
	c0,0,0.1,0,0.1,0c3-0.5,5.9-1.1,8.6-1.6c0.4-0.1,0.7,0,0.8,0.1s0.2,0.4,0.2,0.8c-0.2,2.5-0.4,4.9-0.5,7.3c0,0.4-0.1,0.8-0.4,1
	c-0.3,0.2-0.7,0.3-1,0.2c-0.9,0-1.8,0-2.7,0h-1l0,0h-1.3c-0.9,0-1.9,0-2.8,0L199.6,168.4z M208.9,159.1h-0.3
	c-2.7,0.5-5.6,1.1-8.6,1.6c-0.6,0.1-0.8,0.3-0.8,0.9c0,1.7-0.1,3.7-0.2,5.7c-0.1,0.2,0,0.5,0.1,0.7c0.1,0.1,0.3,0.1,0.6,0.1
	c0.9,0,1.9,0,2.8,0h1l0,0h1.3c0.9,0,1.8,0,2.7,0c0.3,0.1,0.6,0,0.8-0.2c0.2-0.2,0.3-0.5,0.3-0.9c0.1-2.4,0.3-4.9,0.5-7.3
	c0-0.3,0-0.5-0.1-0.6C209.1,159.1,209,159.1,208.9,159.1L208.9,159.1z"/>
<path class="st1" d="M187.8,168.4c-2,0-4.1,0-6.1,0c-0.9,0-1.2-0.1-1.1-1.1c0.3-3,0.2-3,3.1-3.6c2.5-0.5,5-0.9,7.5-1.5
	c0.7-0.2,1.1,0,1.3,0.7c0.7,1.5,1.4,3,2.2,4.5c0.5,0.9,0.2,1-0.7,1C191.9,168.3,189.8,168.3,187.8,168.4L187.8,168.4z"/>
<path d="M181.5,168.5c-0.3,0-0.7-0.1-0.9-0.3c-0.2-0.3-0.3-0.7-0.2-1v-0.1c0.2-2.9,0.3-3,3.3-3.5l1-0.2c2.1-0.4,4.3-0.8,6.5-1.3
	c0.6-0.2,1.3,0,1.5,0.6c0,0,0,0.1,0,0.1c0.7,1.6,1.5,3.1,2.2,4.5c0.3,0.5,0.3,0.7,0.2,0.9c-0.1,0.2-0.5,0.3-1,0.3
	c-1.5,0-3.1,0-4.6,0h-1.7l0,0H186c-1.4,0-2.9,0-4.3,0L181.5,168.5z M191.6,162.3c-0.1,0-0.3,0-0.4,0c-2.1,0.5-4.3,0.9-6.5,1.3
	l-1,0.2c-2.8,0.5-2.8,0.5-3,3.3v0.1c-0.1,0.3,0,0.6,0.1,0.8c0.1,0.2,0.5,0.2,0.9,0.2c1.5,0,2.9,0,4.3,0h1.6l0,0h2c1.5,0,3,0,4.6,0
	c0.2,0,0.6,0,0.7-0.1s0-0.2-0.2-0.7c-0.8-1.4-1.5-2.9-2.2-4.5C192.2,162.5,192,162.3,191.6,162.3L191.6,162.3z"/>
<path class="st1" d="M174.4,168.4h-11.1c-0.4,0-0.8,0-0.8-0.5c0-0.5,0.5-0.3,0.8-0.4c2.8-0.5,5.6-1,8.3-1.6c1.3-0.3,1.9,0,2.3,1.2
	C174,167.6,174.2,168,174.4,168.4z"/>
<path d="M169.4,168.5h-6.2c-0.3,0-0.6,0-0.8-0.2c-0.1-0.1-0.2-0.3-0.1-0.5c0-0.5,0.4-0.5,0.7-0.5h0.2l2.7-0.5
	c1.8-0.3,3.7-0.7,5.6-1.1c1.3-0.3,2.1,0.1,2.4,1.3c0.1,0.3,0.2,0.5,0.3,0.8l0.2,0.5l0.1,0.2L169.4,168.5L169.4,168.5z M172.3,165.9
	c-0.2,0-0.5,0-0.7,0.1c-1.9,0.4-3.7,0.8-5.6,1.1l-2.7,0.5H163c-0.3,0-0.4,0-0.4,0.2c0,0.1,0,0.2,0.1,0.2c0.1,0.1,0.4,0.1,0.6,0.1
	h10.9l-0.1-0.3c-0.1-0.3-0.3-0.5-0.3-0.8C173.4,166.3,173,165.9,172.3,165.9L172.3,165.9z"/>
</svg>
