<?xml version="1.0" encoding="utf-8"?>
<!-- Generator: Adobe Illustrator 21.1.0, SVG Export Plug-In . SVG Version: 6.00 Build 0)  -->
<svg version="1.1" id="Layer_1" xmlns="http://www.w3.org/2000/svg" xmlns:xlink="http://www.w3.org/1999/xlink" x="0px" y="0px"
	 viewBox="0 0 250 250" style="enable-background:new 0 0 250 250;" xml:space="preserve">
<style type="text/css">
	.st0{fill:#AF0C26;}
	.st1{fill:#CAA261;}
</style>
<title>Grocery</title>
<path class="st0" d="M125.7,106.4c0-3.4,0.1-6.7,0-10.1c-0.1-1.1-0.7-2.1-1.7-2.7c-0.9-0.6-0.8-1.1-0.4-2c0.4-0.8,1-0.5,1.6-0.4
	c5,1.5,10.1,1.3,15.2,1.5c2.3,0.2,4.6-0.1,6.8-0.9c1.4-0.5,1.8,0.8,1.7,1.6c-0.1,3,0.1,6.1,0.7,9.1c0.1,0.7-0.1,1.4-0.7,1.8
	c-0.7,0.5-1.1-0.3-1.5-0.6c-3.7-3.3-8.1-4-12.8-3.4c-0.6,0.1-1.1,0.1-1.1,0.9c0,1.2,0,2.4,0,3.7c0,0.2,0.1,0.5,0.3,0.6
	c0.5,0.4,4.9,0.1,5.3-0.4c0.3-0.4,0.8-0.6,1.3-0.4c0.5,0.2,0.4,0.7,0.4,1.1c0,2.6,0,5.1,0,7.7c0,0.9-0.2,1.5-1.2,0.8
	c-1.8-1.2-3.8-0.4-5.7-0.5c-0.4,0-0.6,0.4-0.6,0.8c0,1.3,0,2.7,0,4c0,0.7,0.5,0.8,1,0.7c2,0,3.9,0.3,5.7,0.9
	c1.5,0.6,3.3,0.1,4.2-1.3c1.2-1.8,3.3-3.5,1.7-6.2c-0.5-0.9,0.9-2.2,2-1.9c1.8,0.5,3.6,1.1,5.4,1.7c0.9,0.3,1.2,0.1,1.2-0.9
	c-0.1-4.6-0.2-9.3-0.3-13.9c0.1-0.6-0.2-1.2-0.6-1.7c-1.1-1,0-1.8,0.2-2.6c0.2-0.8,1.1-0.4,1.7-0.3c2.5,0.5,5.1,0.7,7.6,0.7
	c1,0,1.6,0.3,1.3,1.3c-0.2,1.2,0.1,2.5,0.8,3.5c2,3.1,4,6.1,6.3,9.5c0.5-2.7,0.7-5.4,0.7-8.1c0-0.7-0.3-1.4-0.9-1.9
	c-0.4-0.4-0.6-1-0.5-1.5c0.2-0.6,0.9-0.5,1.5-0.5c1.7,0.1,3.4,0.4,5,0.9c1,0.3,2.1,0.2,3-0.2c0.4-0.2,0.8-1.1,1.3-0.2
	c0.4,0.6,1,1.2,0.5,2c-1.9,2.5-1.8,5.5-1.7,8.4c0,5.2,0,10.3,0,15.5c0,0.4,0,0.7,0,1.1c0,0.6-0.1,1.5,0.8,1.6
	c0.9,0.1,0.9-0.7,1.1-1.2c0.5-1.3,1.1-2.6,1.6-3.9c1.8-4.4,3.6-8.8,5.3-13.2c0.6-1.6,1.3-3.3-0.6-4.6c-0.1-0.1-0.1-0.2-0.2-0.3
	c-0.9-2.8,2.9-6.7,5.8-6c1.9,0.6,3.7,1.6,5.2,2.9c1.5,1.1,3.1,2,5,0.7c0.3-0.2,0.6-0.3,0.7,0.1c0.2,0.6,1,1.3,0.4,2
	c-2,2.3-1.3,4.8-0.6,7.4c1.4,4.7,2.7,9.3,4,14c0.1,0.7,0.4,1.4,0.9,1.9c0.9-1.8,1.6-3.5,2.5-5.3c0.3-0.6,0.4-1.5,1.5-1.3
	c0.8,0.1,1.4,0.7,1.5,1.5c1.3,5.3,5.5,7.5,10.1,9c1.9,0.6,3-0.8,2.4-2.8c-0.5-1.4-1.5-2.6-2.8-3.3c-2.8-1.7-5.2-3.8-7.3-6.3
	c-4.6-6-2-12.5,1.5-15.9c2.7-2.7,5.9-2.6,9.2-1.5c1.3,0.4,2.6,1,4,0c0.6-0.4,1.7,0.8,1.3,1.7c-1.1,3.1-2,6.3-2.7,9.5
	c-0.1,0.4-0.5,0.8-0.9,0.8c-0.6,0.2-0.7-0.3-0.9-0.6c-0.6-1-1.4-1.9-2.4-2.4c-0.7-0.4-1.5-0.7-2.2,0c-0.6,0.6-0.6,1.5-0.1,2.2
	c0.7,1.2,1.6,2.3,2.8,3.1c1.9,1.6,3.9,3.2,5.8,4.7c4.7,3.9,5.1,12.4,2.4,16.7c-1.8,3.2-5.3,5.1-9,4.9c-5.1-0.1-10-2.3-13.5-6
	c-0.4-0.4-0.7-1.3-1.4-0.8c-0.7,0.5-0.2,1.1,0.1,1.7c0.4,0.8,0.9,1.6,1.5,2.3c0.4,0.5,0.4,1.2,0,1.7c-0.4,0.6-0.9,0.1-1.3,0
	c-2.7-0.8-5.6-1.3-8.4-1.3c-1.5,0-1.9-0.7-1.1-2c0.6-0.9,0.2-1.7,0.1-2.7c-0.4-3.5-2.4-5-5.7-5.1c-0.7-0.1-1.4-0.2-2.2-0.3
	c-2.7-0.4-4.3,1.3-3.8,4c0.1,0.3,0.1,0.6,0.2,0.9c0.9,3,0.6,3.3-2.4,2.7c-4.8-1.1-9.7-1.9-14.7-2.3c-1.7-0.1-2.2-0.9-1.9-2.5
	c0.3-2-0.1-4.1-1.3-5.7c-2-2.8-4.2-5.5-6.5-8c0.3,4.5-1.2,9.2,1,13.5c0.4,0.6,0.4,1.4,0.1,2.1c-0.5,0.8-1.2,0.1-1.8,0
	c-3-0.7-5.9-2-9.1-1.1c-0.8,0.2-1-0.5-1.3-0.9c-0.4-0.4-0.4-1,0-1.4c1.5-2.1,1.6-4.6,1.3-7.2c-0.8,0.2-0.9,0.9-1.2,1.3
	c-4.1,6.4-8.4,8.2-15.8,6.6c-1.6-0.4-3.2-0.7-4.8-1.2c-3.1-0.9-6.5-0.5-9.3,1.2c-0.4,0.2-0.9,0.9-1.3,0c-0.3-0.6-0.9-1.5,0-1.9
	c3.3-1.6,3.7-4.4,3.5-7.5c0-0.6,0-1.2,0-1.9c-0.3,0.1-0.5,0.2-0.5,0.3c-2.1,5.8-6.7,8.8-12.2,10.5c-3.7,1.2-7.7,1.5-11.5,0.9
	c-3.3-0.7-6.7-0.2-9.8,1.3c-2.5,1.2-4.3,3.4-5,6c-0.1,0.6-0.1,1.4-1,1c-0.8-0.4-2.3-0.1-2-1.6c1.1-6.4-1.9-11.6-4.9-16.8
	c-0.3-0.6-0.7-1-1.4-0.9c-0.7,0.2-0.6,0.9-0.6,1.5c0,1.8,0,3.5,0,5.3c0,1.8,0.3,3.8,2.1,4.9c0.7,0.5,0.5,1.2,0.4,1.8
	c-0.1,0.6-0.9,0.5-1.3,0.4c-2.8-0.3-5.7-0.6-8.5-0.9c-3.5-0.4-7-0.2-10.3,0.7c-0.7,0.3-1.5,0.2-2-0.3c-0.7-0.7-0.2-1.2,0-1.8
	c0.1-0.3,0.2-0.7,0.3-1.1c0.6-3,0.1-3.6-3-3.6h-3.2c-3.8,0-5.7,2.8-4.3,6.4c0.2,0.5,1.2,1,0.4,1.7c-0.7,0.7-1.7,1-2.7,0.8
	c-2.4-0.5-4.9,0.2-6.7,1.9c-2,1.9-2.8,5.5-0.6,7.9c1.1,1.2,1.1,3.1-0.1,4.2c0,0,0,0,0,0c-4.9,5.5-10.9,7.9-18.2,6.3
	c-7.5-1.7-11.9-6.9-13.3-14.2C2.5,123.8,6.1,109.4,19.2,98c3.2-3,7.1-5.1,11.3-6.3c0.8-0.2,1.5-0.5,2.3-0.8c2.5-0.9,3.7-0.5,5.1,1.7
	c0.5,0.9,0,1.5-0.3,2.2c-2,4.5-2.6,9.5-1.7,14.3c0.1,0.4,0.2,0.8,0.3,1.2c0.4,1.7-0.3,3.5-1.7,4.6c-0.6,0.3-0.7-0.2-1-0.5
	c-3.4-4.2-8.3-4.2-11.6,0.1c-2.7,3.5-4,7.9-3.6,12.3c0.3,4.4,4.1,7.6,8.5,7.3c1.3-0.1,2.5-0.5,3.6-1.2c2.5-1.5,4.4-3.7,5.5-6.4
	c3.2-7.6,5.5-15.5,8-23.3c0.4-1.2,0.3-2.2-1.1-2.7c-0.8-0.3-0.7-0.9-0.7-1.5c0.3-3.6,3.5-6.3,7.1-6c0.2,0,0.4,0,0.6,0.1
	c1.5,0.4,2.9,1,4.2,1.8c1.6,1.1,3.7,0.9,5-0.4c0.6-0.5,1.3-1.2,1.9-0.1c0.5,0.9,1.9,1.6,0.4,2.9c-1.3,1-1.8,2.8-1.2,4.3
	c1.9,6,3.8,12.1,6.1,18c0.2,0.5,0.4,1,0.7,1.5c0.2,0.3,0.3,0.7,0.8,0.6c0.4-0.1,0.4-0.5,0.4-0.9c-0.1-7.1,0.2-14.1-0.2-21.2
	c-0.1-1.4-0.6-2.8-1.4-3.9c-0.5-0.7-0.3-1.3,0.2-1.8c0.5-0.5,0.9-1.6,2-1.2c3.5,1.3,7.1,0.7,10.7,0.5c2.7-0.1,5.5-0.4,8,0.9
	c3,1.4,5.1,4.1,5.7,7.3c0.5,2.8,0.3,5.6-0.7,8.3c-0.5,1.7-1.8,3-3.5,3.5c-1.8,0.6-2.1,1.3-1.3,3c1,2.4,2.3,4.7,3.9,6.8
	c1.6,2.1,3.4,1.7,4.3-0.7c0.1-0.3,0.2-0.7,0.2-1.1c-0.2-7.1,0.4-14.2-0.3-21.3c-0.2-2.1-0.8-4.2-1.6-6.1c-0.3-0.6-0.3-1.3,0-1.9
	c0.4-1.2,0.9-1.6,2.2-1c1.6,0.8,3.4,1.1,5.2,1c1.8,0,3.5-0.2,5.3-0.3c8.7-0.5,15.4,4.2,17.9,12.6l0.7,2.2L125.7,106.4z M105.2,109.6
	c0,2.5,0,5,0,7.5c0,0.7-0.1,1.7,0.9,1.7c2.8,0,5.7,0.4,8.1-1.8c2.9-2.7,3.6-7.2,1.7-11.6c-1.3-3.7-5.2-5.9-9-5.1
	c-1.1,0.2-1.7,0.6-1.7,1.9C105.2,104.6,105.2,107,105.2,109.6L105.2,109.6z M52.6,117.6c0.9,0,1.7,0,2.6,0c1.3,0,1.9-0.5,1.5-1.9
	c-1.2-3.5-2.3-6.9-3.5-10.4c-0.1-0.4-0.2-0.9-0.7-0.9c-0.5,0-0.6,0.5-0.7,0.9c-1,3.3-2,6.5-2.9,9.8c-0.5,1.9-0.1,2.4,1.9,2.4
	L52.6,117.6z M76.8,104.4c0,0.9,0,1.8,0,2.7c0,0.7,0.2,1.3,1,1.3c1.7,0.2,3.5,0.1,5.2-0.2c1.6-0.3,2.7-1.8,2.7-3.4
	c0.1-3.3-1-4.3-4.9-4.4C76.6,100.4,76.8,99.5,76.8,104.4L76.8,104.4z M201.3,119.4c0-0.2-0.2-0.6-0.3-0.9c-1-3.3-2-6.5-3-9.8
	c-0.1-0.4-0.1-1.1-0.8-1c-0.7,0.1-0.5,0.6-0.6,1c-0.8,3-1.6,6-2.5,9c-0.3,1.1,0,1.6,1.1,1.8c1.6,0.3,3.2,0.7,4.8,1
	C201,120.6,201.4,120.4,201.3,119.4z"/>
<path class="st1" d="M147.9,142.3c-0.1-0.7,0.5-0.9,0.9-1.1c6.2-3.7,13.3-5.3,20.5-4.6c8.7,0.6,16.7,3.7,24.7,6.8
	c6.9,2.7,13.8,4.7,21.3,4c5.3-0.5,10.5-1.3,15.6-2.5c1.7-0.4,3.4-0.7,4.8,0.6s1.5,2.2,0.5,3.8c-1,1.4-2.3,2.5-3.8,3.3
	c-7,4-15.4,4.7-22.9,1.8c-7-2.5-13.6-5.9-20.3-9.1c-5.9-2.7-11.8-5.7-18.3-6.5c-7.6-1-15.3,0.2-22.2,3.5
	C148.5,142.3,148.2,142.5,147.9,142.3z"/>
<path class="st1" d="M106.2,144.4c-0.2,1-1,1.1-1.7,1.3c-7.7,3-16.2,3.3-24,0.8c-4.8-1.6-9.8-2.6-14.8-2.8c-3.4-0.2-6.8,0.6-9.7,2.4
	c-2.4,1.6-5.2,2.8-8,3.5c-2.3,0.6-4.1,0.2-5-1.1c-1.1-1.9-0.6-4.3,1.1-5.6c4.6-4.3,10.8-6.5,17-6c6.7,0.5,12.8,3.3,19,5.6
	c4.2,1.7,8.5,3,12.9,3.8c3.8,0.4,7.7-0.1,11.3-1.5C105,144.6,105.5,144.2,106.2,144.4z"/>
<path class="st1" d="M105.1,149.6c-0.8,1.1-2,1.9-3.3,2.3c-6,2.7-12.1,2.7-18.4,1.3c-4-0.8-8-1.1-11.9,0.9c-1.2,0.7-2.2,1.5-3.1,2.5
	c-1.2,1.4-2.6,2.5-4.3,3.3c-2.2,0.9-3.4,0.1-3.5-2.3c0.1-5.2,4.2-9.3,9.4-9.5c4.7,0,9.5,0.8,14,2.3c6.3,2.1,13.1,1.8,19.3-0.6
	c0.2-0.1,0.5-0.1,0.7-0.2L105.1,149.6z"/>
<path class="st1" d="M149.6,146.3c0.7-1.4,2-2.4,3.5-2.7c6.4-2.1,12.6-0.9,18.7,1.5c2,0.7,3.9,1.6,5.8,2.7c3.1,1.8,6.7,2.7,10.3,2.7
	h0.5c2.5,0.2,3.6,0.9,3.5,2.5c-0.1,2.1-1.8,3.8-3.9,3.9c-2.1,0-4.2-0.5-6.1-1.5c-4.2-1.9-7.9-4.8-11.8-7.2c-3.1-2.1-6.7-3.5-10.5-4
	C156.1,143.8,152.6,144.5,149.6,146.3z"/>
<path class="st1" d="M150.2,149c3.6-1.6,10.5-0.3,13.6,3.1c1.7,1.9,3.4,3.7,3.5,6.4c0,0.9,0.1,1.9-0.9,2.4c-0.9,0.5-2.1,0.4-2.9-0.1
	c-1.3-0.7-2.2-2-2.5-3.4C159.6,151.8,156,149.3,150.2,149z"/>
<path class="st0" d="M124.1,145.5c-2.3,1.4-4.9,2.3-7.5,2.5c-2.3,0.1-4.3-1.3-5-3.5c-0.6-1.3-0.1-2.9,1.2-3.6
	c0.2-0.1,0.4-0.2,0.6-0.2c1.8-0.6,3.7-0.3,5.1,0.9C120.2,142.9,121.7,144.6,124.1,145.5z"/>
<path class="st1" d="M108,140.5c-2.7,1.8-6,2.5-9.1,1.8c-2.2-0.1-4.3-1.1-5.8-2.8c-0.5-0.7-1.1-1.3-0.8-2.3c0.4-0.8,1.3-1.4,2.2-1.3
	c1.8-0.3,3.7,0.2,5.2,1.2C102,139.2,104.9,140.3,108,140.5z"/>
<path class="st0" d="M133.2,146.1c1.8-1.2,3.8-2,5.8-2.3c2.3-0.6,4.8,0.4,6,2.5c1,1.3,0.7,3.2-0.6,4.1c-0.5,0.4-1.1,0.6-1.7,0.6
	c-1.5,0.2-3.1-0.2-4.3-1.2C136.9,148.3,135.1,147.1,133.2,146.1z"/>
<path class="st0" d="M131.9,142.8c1.5-1.9,1.9-4,3-5.7c0.7-1.1,1.7-2,2.8-2.5c1.3-0.8,2.9-0.5,3.8,0.7c1.1,1.3,0.4,2.4-0.4,3.4
	C138.9,141.5,135.8,142.3,131.9,142.8z"/>
<path class="st0" d="M125.3,148.8c-0.9,1.8-1.6,3.4-2.4,5c-0.7,1.4-1.8,2.5-3.2,3.2c-1.2,0.7-2.8,0.4-3.7-0.6
	c-1-1.2-0.4-2.3,0.3-3.3c1.2-1.6,3-2.8,4.9-3.3C122.6,149.4,123.9,149.1,125.3,148.8z"/>
<path class="st0" d="M127,136.9c0-2.7,0.4-4.5,2-5.9c0.8-0.8,2-1.1,3-0.6c1.1,0.5,1.2,1.5,1.1,2.7c-0.1,1.1-0.6,2.2-1.3,3.1
	c-1.1,1.4-1.9,2.9-2.4,4.6c0,0.3,0,0.7-0.4,0.7c-0.3-0.1-0.5-0.3-0.7-0.5C127.5,139.7,127,138.3,127,136.9z"/>
<path class="st0" d="M125.6,141.6c0,0.7,0,1.3-0.9,0.7c-1.9-1.1-3.8-2.1-5.6-3.3c-1.8-1.2-2.1-2.5-1.3-3.8c0.9-1.3,2.8-1.6,4.1-0.7
	c0,0,0,0,0.1,0C124.6,136.1,125.3,138.8,125.6,141.6z"/>
<path class="st0" d="M132.1,149.7c2.3,1.3,4.6,2.5,6.8,4c1.2,0.6,1.6,2.1,1,3.3c0,0.1-0.1,0.1-0.1,0.2c-0.8,1.3-2.4,1.7-3.7,1
	C133.3,157.1,131.5,153.5,132.1,149.7z"/>
<path class="st0" d="M132.3,145.6c0.2,1.6-0.9,3.1-2.6,3.3c-0.1,0-0.2,0-0.3,0c-2.2,0-4.4-1.8-4.4-3.6c0.3-1.6,1.6-2.9,3.3-3.1
	C130.3,142.1,132.1,143.6,132.3,145.6z"/>
<path class="st0" d="M128,150.3c2.1,2.5,2.4,6.2,0.6,9c-0.6,1.2-2.1,1.6-3.3,1c-1.3-0.7-1.1-2-0.6-3.2c0.4-0.8,0.9-1.6,1.4-2.3
	C127,153.4,127.7,151.9,128,150.3z"/>
<path class="st0" d="M241.9,103.1c-1.6,0-2.8-1.3-2.8-2.8c0-1.6,1.3-2.8,2.8-2.8c1.6,0,2.8,1.3,2.8,2.8l0,0
	C244.7,101.9,243.4,103.1,241.9,103.1z M241.9,98.2c-1.2,0-2.1,0.9-2.1,2.1c0,1.2,0.9,2.1,2.1,2.1c1.2,0,2.1-0.9,2.1-2.1
	C244,99.1,243,98.2,241.9,98.2L241.9,98.2z"/>
<path class="st0" d="M240.7,101.6v-2.7h1.1c0.2,0,0.4,0,0.6,0.1c0.1,0,0.2,0.1,0.3,0.3c0.1,0.1,0.1,0.3,0.1,0.4
	c0,0.2-0.1,0.3-0.2,0.5c-0.1,0.1-0.3,0.2-0.5,0.2c0.1,0.1,0.2,0.1,0.3,0.2c0.1,0.1,0.2,0.3,0.3,0.4l0.3,0.5h-0.6L242,101
	c-0.1-0.1-0.2-0.3-0.3-0.4c0,0-0.1-0.1-0.2-0.1c-0.1,0-0.2,0-0.3,0h-0.2v1.1L240.7,101.6z M241.2,100.1h0.4c0.2,0,0.3,0,0.5,0
	c0.1,0,0.1-0.1,0.1-0.1c0-0.1,0-0.1,0-0.2c0-0.1,0-0.2-0.1-0.2c-0.1-0.1-0.1-0.1-0.2-0.1h-0.8L241.2,100.1z"/>
</svg>
