<?xml version="1.0" encoding="utf-8"?>
<!-- Generator: Adobe Illustrator 21.1.0, SVG Export Plug-In . SVG Version: 6.00 Build 0)  -->
<svg version="1.1" id="Layer_1" xmlns="http://www.w3.org/2000/svg" xmlns:xlink="http://www.w3.org/1999/xlink" x="0px" y="0px"
	 viewBox="0 0 250 250" style="enable-background:new 0 0 250 250;" xml:space="preserve">
<title>Grocery</title>
<path d="M161,125.7c-1.4,1.1-2.7,2.2-4.2,3.1c-6.7,4.1-15.2,3.7-21.4-1c-4.3-3.1-7.3-7.8-8.1-13.1c-0.6-4.1,0.1-8.3,1.9-12
	c2.8-5.9,7.3-10,13.7-11.4c7-1.8,14.4,0.4,19.3,5.6c0.2,0.2,0.3,0.4,0.5,0.6c0.1,0.1,0.1,0.1,0.1,0.2l-6.4,6.5
	c-0.5-0.5-1-0.9-1.5-1.4c-0.1-0.2-0.1-0.3,0-0.5c1-2.2,0.4-4.7-1.5-6.2c-2-1.8-4.5-2.7-7.2-2.5c-4.7-0.1-9,2.5-11.1,6.7
	c-3.4,5.6-3.5,12.6-0.5,18.5c2.6,5.1,7.8,8.4,13.5,8.5c4.1,0.2,8.2-1.4,11.2-4.3c0.7-0.6,1.1-1.4,1.2-2.2c0.4-3.5,2.8-6.4,6.1-7.7
	c2.9-1.3,6.2-1.6,9.3-0.8l0.5,0.1c0.6-2.6-1-5.3-3.6-5.9c-0.7-0.2-1.5-0.2-2.3,0c-2.5,0.4-4.6,2-5.6,4.3l-0.3,0.6l-2.4-0.8l2.5-6.4
	c0.4,0.1,0.8,0.1,1.2,0.1c0.8,0,1.7-0.1,2.5-0.3c3.1-0.9,6.3-0.8,9.3,0.1c2.4,0.7,4,2.9,4.1,5.3c0.1,1.4,0.2,2.9,0.2,4.3
	c0.1,4.2,0.1,8.3,0.2,12.5c-0.1,1.4,0.8,2.6,2.1,3.1c1.1,0.5,2.4,0.1,2.9-1c0.1-0.2,0.2-0.4,0.2-0.6c0.1-0.9,0.2-1.8,0.2-2.7
	c0-3.8,0-7.6-0.1-11.4c0-0.6-0.2-1.3-0.3-1.9c-0.1-0.2-0.3-0.4-0.5-0.5c-0.1,0-0.4,0.3-0.5,0.4s-0.2,0.5-0.4,0.5
	c-0.3,0.1-0.5,0.1-0.8,0c-0.5-0.4-1-0.8-1.4-1.3l4.6-6.7c1.2,0.8,2.1,1.9,2.7,3.2c0.1,0.2,0.2,0.3,0.4,0.5c0.2-0.1,0.3-0.3,0.5-0.5
	c0.2-0.4,0.3-0.9,0.5-1.3c0.3-0.8,0.9-1.4,1.7-1.5c2-0.4,4.1-0.4,6.1-0.2c0.2,0,0.5,0.1,0.7,0.2l-2.8,6.1c-0.6-0.4-1-0.7-1.5-1
	c-0.8-0.6-2-0.5-2.6,0.3c-0.2,0.2-0.3,0.5-0.4,0.7c-0.2,0.6-0.4,1.3-0.4,1.9c0,4.5,0,9.1,0,13.6c0,0.7,0.1,1.3,0.1,2
	c0,0.6,0.4,1.1,1,1.2c0.6,0.2,1.2,0.3,1.9,0.4v1.6h-1.2c-3.2,0-6.3,0-9.5,0c-1.1,0-2.2-0.1-3.4-0.1c-0.5,0-1.1,0.1-1.7,0.1
	c-0.2,0-0.4-0.1-0.6-0.3c-0.7-0.9-1.3-1.9-2.1-3c0,0.1-0.1,0.2-0.1,0.3c-2,2.8-4.8,3.5-8,3.1c-1.9-0.2-3.8-0.9-5.3-2
	C162.7,128.6,161.6,127.3,161,125.7z M176.8,120.6h-0.2c0-1.3,0-2.7,0-4c0-1-0.2-1.3-1.2-1.7c-1-0.3-2.1-0.4-3.1-0.2
	c-1.8,0-3.5,0.9-4.7,2.3c-1.7,2.2-2,5.1-0.9,7.5c1.1,2.7,4,4.3,6.9,3.8c2-0.3,3.4-2.1,3.2-4.1C176.8,123.1,176.8,121.8,176.8,120.6z
	"/>
<path d="M40.9,97.7l-6.4,6.6c-0.5-0.5-1-0.9-1.5-1.3c-0.1-0.2-0.1-0.4,0-0.5c0.9-2.1,0.4-4.5-1.3-6c-2-1.9-4.7-2.8-7.4-2.7
	c-4.6-0.1-8.9,2.5-11,6.6c-3.4,5.6-3.6,12.6-0.5,18.5c2.6,5.2,7.8,8.5,13.5,8.6c3.9,0.1,7.8-1.3,10.7-3.9c0.9-0.6,1.5-1.6,1.7-2.7
	c0.7-4.2,3.4-6.7,7.3-8c2.6-0.9,5.4-1,8-0.3l0.5,0.1c0.6-2.6-1.1-5.2-3.7-5.8c-0.3-0.1-0.7-0.1-1-0.1c-3.3-0.1-5.3,1.6-6.8,4.3
	c-0.1,0.2-0.2,0.4-0.3,0.6l-0.1,0.1l-2.7-0.8l1.7-4.1c0.3-0.7,0.5-1.3,0.8-1.9c0.1-0.2,0.3-0.3,0.5-0.3c1.3,0.2,2.5,0,3.7-0.3
	c3-0.8,6.2-0.7,9.1,0.3c2.1,0.8,3.6,2.8,3.7,5.1c0.1,1.2,0.2,2.4,0.2,3.5c0.1,4.4,0.1,8.8,0.2,13.2c-0.3,1.6,0.8,3.1,2.4,3.4
	c0.6,0.2,0.7,0.5,0.7,1c0,0.3,0,0.7,0,1c-0.9,0-1.8-0.1-2.7-0.1s-1.6,0.1-2.5,0.1c-0.2,0-0.4-0.1-0.5-0.3c-0.5-0.8-0.9-1.6-1.4-2.3
	c-0.1-0.2-0.2-0.3-0.4-0.6c-2.3,3.3-5.5,3.8-9,3.2c-3.5-0.3-6.4-2.7-7.6-6c-0.1,0.1-0.2,0.2-0.3,0.3c-7.5,7.6-19.7,7.7-27.3,0.3
	c-0.8-0.8-1.5-1.6-2.1-2.4c-2.8-3.4-4.2-7.8-4-12.2c0.6-8.8,4.5-15.5,12.8-19.2c7.8-3.3,16.9-1.4,22.7,4.9L40.9,97.7z M54.7,120.5
	h-0.2c0-1.3,0-2.7,0-4c0.1-0.7-0.4-1.3-1-1.5c-0.3-0.1-0.6-0.2-1-0.3c-1.5-0.2-3-0.1-4.4,0.4c-1.2,0.3-2.2,1-2.9,1.9
	c-1.9,2.7-1.9,6.3,0,8.9c1.3,2,3.7,2.9,6,2.4c2.1-0.3,3.6-2.3,3.5-4.4C54.7,122.8,54.7,121.7,54.7,120.5z"/>
<path d="M219.7,131.6l1.4,0.6c1.1,0.6,2.4,0.7,3.6,0.5c1-0.3,1.8-1,2.3-1.9c0.1-0.2,0.1-0.4,0-0.6c-2.6-6.4-5.1-12.8-7.7-19.2
	c-0.6-1.5-1.4-1.7-3.1-0.9l-1-1.8l-1.3,2.5c-0.5-0.4-1-0.7-1.5-1c-0.8-0.6-2-0.5-2.6,0.3c-0.2,0.2-0.3,0.5-0.3,0.7
	c-0.3,0.6-0.4,1.3-0.4,2c0,4.5,0,9,0,13.5c0,0.7,0.1,1.3,0.1,2c0,0.5,0.3,0.9,0.7,1.1c0.7,0.2,1.3,0.4,2.1,0.6v1.5h-11.1
	c0-0.4,0-0.9,0-1.3c0-0.1,0.3-0.3,0.4-0.4c0.5-0.2,1-0.3,1.4-0.4c0.5-0.1,0.8-0.5,0.8-1c0-0.8,0.2-1.6,0.2-2.4c0-4.1,0-8.2,0-12.3
	c0-0.6-0.1-1.2-0.3-1.7c-0.1-0.3-0.3-0.5-0.6-0.6c-0.2,0-0.5,0.2-0.6,0.5c-0.6,0.9-0.9,1-1.7,0.2l-1-0.9l5-6.9l3,3.7
	c0.1-0.1,0.2-0.2,0.2-0.3c0.1-0.2,0.2-0.4,0.2-0.6c0.3-1.7,2-2.9,3.7-2.7c1.3,0,2.7,0,4,0c0.4,0,0.9,0.1,1.3,0.2l-1.3,2.7l0.1,0.1
	l6.2-3.3l2.5,6.1c0.5-0.8,0.9-1.6,1.3-2.5c0.7-2.1,2.8-3.3,5-3.1c2.3,0,4.7,0.1,7,0.1c1.5,0,2.9-0.1,4.4-0.1l-2.1,4.8
	c-3.4,7.7-6.7,15.3-10.1,23c-1,2.7-3.3,4.6-6.1,5.1c-1.6,0.3-3.2,0.1-4.7-0.4c-0.2,0-0.4-0.3-0.4-0.5
	C219,134.9,219.3,133.3,219.7,131.6z M236.3,108.8h-0.7c-1.6,0-3.2,0.1-4.8,0.1c-1.3,0-2.6,0.5-3.4,1.5c-0.6,0.7-1.1,1.5-1.5,2.3
	c-0.1,0.3-0.1,0.7,0,1c1.3,3.2,2.6,6.4,3.9,9.6c0.1,0.2,0.2,0.4,0.3,0.7L236.3,108.8z"/>
<path d="M87.7,90.8c-0.4,5.6-0.6,11.2-0.5,16.8l0.5-0.3c2.1-1.9,4.7-3.2,7.5-3.5c1.3-0.1,2.6,0,3.8,0.5c2,0.7,3.4,2.6,3.6,4.8
	c0.2,1,0.3,2,0.3,3c0,4.8,0,9.6,0,14.3c0,2,0.1,2.1,2.1,2.5l0.9,0.2c0,0.7,0,1.5,0,2.2c0,0.1,0,0.2,0,0.3H95l-0.3-2.4
	c0.7-0.1,1.3-0.2,1.9-0.3c0.5,0,0.9-0.5,0.9-1c0,0,0,0,0,0c0-4.9,0.1-9.8,0-14.7c0-0.9-0.2-1.9-0.5-2.7c-0.3-1.2-1.3-2.1-2.5-2.3
	c-2.5-0.5-5.2,0.4-6.9,2.3c-0.3,0.3-0.4,0.7-0.4,1.1c0,4.9,0,9.8,0.1,14.8c0,0.6,0.1,1.2,0.2,1.9c0,0.5,0.4,0.9,0.9,0.9
	c0.6,0.1,1.1,0.1,1.7,0.2v2.6H79.1v-2.2c0.6-0.2,1.2-0.4,1.9-0.6c0.7-0.2,1.2-0.8,1.1-1.5c0-0.9,0.1-1.7,0.1-2.7
	c0-5.2-0.1-10.4-0.1-15.6c0-3.4,0-6.8-0.1-10.2c0-0.6-0.1-1.1-0.1-1.7s-0.2-0.6-0.6-0.6l-1.7,0.1c0-0.8,0-1.6,0-2.4
	c0-0.2,0.1-0.3,0.3-0.3L87.7,90.8z"/>
<path d="M121.5,129.1c-0.7,0.4-1.3,0.9-2.1,1.3c-2.8,1.7-6.2,1.9-9.2,0.7c-2.8-1-4.8-3.6-4.9-6.6c-0.4-3.2,1.1-6.4,3.9-8.2
	c0.7-0.4,1.5-0.8,2.2-1.2c-0.5-0.8-1-1.7-1.6-2.5c-1.5-2.3-1-5.3,1.3-6.9c0.1,0,0.1-0.1,0.2-0.1c3.6-2.4,8.3-2.1,11.6,0.7
	c0.2,0.2,0.4,0.3,0.6,0.4c0.7,0.2,1.1,0.8,1,1.5l-3.6,1.8c-0.4-0.7-0.8-1.4-1.2-2.1c-0.8-1.3-2.2-2.1-3.7-2.1
	c-1.8,0-3.2,1.5-3.2,3.3c0,0.2,0,0.4,0.1,0.6c0.2,1,0.6,1.9,1.2,2.7c2.5,3.2,4.8,6.5,7.3,9.7c0.3,0.4,0.6,0.8,0.9,1.2
	c0.8-0.7,1.2-3.7,0.8-5.2l-2.7-0.1v-1.9h5.2c0,1.1-0.1,2.2-0.2,3.3c-0.1,2.1-0.6,4.1-1.4,6c-0.1,0.2-0.1,0.3,0,0.5
	c1.5,2.8,3.7,5,6.5,6.4c1.5,0.6,3.1,1,4.8,1c0,1.2,0,2.3,0,3.5c0,0.1-0.4,0.3-0.6,0.3c-2.4,0-4.8-0.6-6.9-1.9
	c-2.3-1.4-4.3-3.3-5.8-5.6l-0.3-0.5L121.5,129.1z M112.5,116.6c-2.9,1.2-4.4,4.5-3.4,7.5c1.1,3.2,4.4,5.1,7.7,4.5
	c1.2-0.1,2.4-0.5,3.3-1.3L112.5,116.6z"/>
<path d="M25.1,160.4V145h5.3l0.1,1.6c2.9-2.8,5.5-2.7,8,0c0.9-1.5,2.6-2.3,4.3-2c1.7,0,3.1,1.3,3.2,3c0.1,0.4,0.1,0.9,0.1,1.3
	c0,3.6,0,7.2,0,10.8v0.7h-5.5v-0.7c0-3.1,0-6.1,0-9.2c0-0.3,0-0.6,0-0.9c0-0.4-0.1-0.9-0.7-0.9c-0.5-0.2-1.1,0.1-1.3,0.6
	c-0.2,0.4-0.2,0.7-0.2,1.1c0,3.1,0,6.1,0,9.2v0.7H33c0-0.2,0-0.5,0-0.7c0-3,0-6.1,0-9.1c0-0.4,0-0.7-0.1-1.1
	c-0.1-0.5-0.6-0.9-1.1-0.8c-0.5,0-0.9,0.3-1,0.8c0,0,0,0,0,0c0,0.3-0.1,0.7-0.1,1.1c0,3,0,6,0,9c0,0.2,0,0.5,0,0.8L25.1,160.4z"/>
<path d="M60.7,128.1l3.4-5c0.5,0.7,0.9,1.3,1.4,1.9c0.9,1.2,2,2.2,3.4,2.9c1.5,0.7,3.2,0.8,4.7,0.2c1.7-0.6,2.8-3.7,1-5.3
	c-1.7-1.4-3.6-2.5-5.7-3.3c-0.9-0.3-1.8-0.7-2.7-1.1c-4.5-2.1-4.7-7.8-2.5-10.7c2.8-3.5,7.5-4.7,11.6-3c1,0.6,2.1,1,3.2,1.2
	c0.5,0,0.9,0.7,1.3,1.1l-3.2,4.7c-0.5-0.6-0.9-1.2-1.4-1.7c-1.3-1.7-3.4-2.7-5.5-2.7c-2.3,0.1-3.7,1.7-3.1,3.8
	c0.2,0.7,0.6,1.3,1.2,1.8c1,0.7,2.1,1.2,3.2,1.7c1.6,0.7,3.2,1.3,4.8,2c0.5,0.2,1,0.5,1.5,0.9c2.9,1.8,3.9,5.6,2.2,8.6
	c-2.4,5-8.2,7.3-13.3,5.3C64.3,130.7,62.4,129.5,60.7,128.1z"/>
<path d="M7.3,136.9V135h117.2c0.3,0,0.7,0.1,1,0.3c0.9,0.5,1.7,1,2.5,1.6H7.3z"/>
<path d="M142.9,146.7v-6.7h5.4v20.3H143V159c-0.5,0.9-1.4,1.6-2.4,1.8c-2.3,0.6-4.7-0.7-5.3-3c-0.5-2-0.7-4.1-0.5-6.2
	c0-1.4,0.2-2.7,0.6-4c0.5-2.1,2.5-3.4,4.6-2.9c0.3,0.1,0.5,0.1,0.8,0.3c0.8,0.3,1.4,0.8,1.8,1.5c0.1,0.1,0.1,0.2,0.2,0.3
	C142.7,146.7,142.7,146.7,142.9,146.7z M143,152.7c-0.1-1-0.2-2.1-0.3-3.1c-0.1-0.8-0.5-1-1.1-1c-0.5,0-1,0.4-1,0.9c0,0,0,0.1,0,0.1
	c-0.1,1.9-0.1,3.9,0,5.8c0,0.6,0.4,1,0.9,1.1c0,0,0.1,0,0.1,0c0.6,0,0.9-0.3,1.1-1C142.8,154.7,142.9,153.7,143,152.7L143,152.7z"/>
<path d="M9,154.4h5.6c0,0.5,0,1.1,0.1,1.6c0,0.6,0.5,1.1,1.1,1.1c0.7,0.1,1.3-0.3,1.5-1c0.5-1.2-0.1-2.5-1.3-3
	c-1.1-0.6-2.2-1.1-3.3-1.7c-0.5-0.2-0.9-0.5-1.3-0.7c-1.2-0.7-1.9-1.9-2-3.3c-0.1-1.3,0-2.6,0.3-3.9c0.5-1.9,2.1-3.4,4.1-3.6
	c1.7-0.4,3.5-0.4,5.3,0c2.7,0.6,4.4,3.2,3.8,5.9h-5.3c0-0.4,0-0.8,0-1.2c-0.1-0.8-0.5-1.2-1.1-1.3c-0.7-0.1-1.4,0.4-1.5,1.1
	c0,0,0,0,0,0.1c-0.2,0.9,0.1,1.8,0.9,2.2c0.6,0.4,1.2,0.7,1.9,1c0.7,0.3,1.3,0.6,2.1,0.9c2.7,0.9,4.3,3.7,3.8,6.5
	c0,0.5-0.1,1.1-0.3,1.6c-0.4,2-2,3.5-4,3.8c-1.9,0.4-3.8,0.4-5.7,0c-2.4-0.3-4.3-2.3-4.3-4.8C9,155.4,9,154.9,9,154.4z"/>
<path d="M97.6,160.4h-5.2H92v-20.4h12.3v4.5h-6.6v3.2h6v4.5h-6.1L97.6,160.4z"/>
<path d="M118.7,152.7c-0.1,1.2-0.2,2.4-0.4,3.5c-0.2,2.5-2.3,4.3-4.7,4.5c-1.3,0.1-2.7,0.1-4-0.1c-2.1-0.3-3.8-1.9-4.2-4.1
	c-0.5-2.4-0.5-4.8-0.1-7.2c0.3-2.5,2.4-4.5,4.9-4.6c1.2-0.2,2.5-0.2,3.7,0c2.3,0.3,4.1,2.1,4.4,4.4
	C118.5,150.3,118.6,151.5,118.7,152.7z M113.3,153c0-1.2-0.1-2.1-0.2-3c0-0.4-0.1-0.8-0.3-1.1c-0.2-0.3-0.5-0.5-0.9-0.6
	c-0.5-0.1-0.8,0.2-0.9,0.7c-0.1,0.3-0.2,0.5-0.2,0.8c0,1.8-0.1,3.6-0.1,5.4c0,0.5,0.1,1,0.2,1.5c0.1,0.5,0.6,0.8,1.2,0.7
	c0.4-0.1,0.6-0.4,0.7-0.7c0.1-0.2,0.1-0.3,0.1-0.5C113.1,154.9,113.2,153.8,113.3,153L113.3,153z"/>
<path d="M119.8,152.5c0.1-1.1,0.2-2.3,0.4-3.5c0.3-2.3,2.2-4.1,4.5-4.2c1.3-0.2,2.6-0.2,3.9,0c2.7,0.4,4.1,1.9,4.6,4.7
	c0.4,2.3,0.4,4.6-0.1,6.9c-0.3,2.2-2.1,3.9-4.2,4.2c-1.5,0.3-2.9,0.3-4.4,0c-2.4-0.4-4.3-2.4-4.4-4.9
	C120,154.7,119.9,153.7,119.8,152.5z M127.8,152.7c0-1.1-0.1-2-0.2-2.8c0-0.4-0.1-0.7-0.2-1c-0.2-0.3-0.5-0.5-0.9-0.7
	c-0.4-0.1-0.9,0.2-0.9,0.6c0,0,0,0,0,0c-0.1,0.3-0.2,0.6-0.2,0.9c0,1.7-0.1,3.4-0.1,5c0,0.6,0.1,1.3,0.3,1.9
	c0.2,0.3,0.5,0.5,0.8,0.6c0.4,0.1,0.8-0.2,0.9-0.6c0.1-0.2,0.2-0.4,0.2-0.7C127.7,154.8,127.8,153.6,127.8,152.7L127.8,152.7z"/>
<path d="M53.2,149.7h-4.7c-0.3-1.9,0.7-3.7,2.4-4.4c2.4-1,5.2-1,7.6-0.1c1.5,0.6,2.4,2.1,2.2,3.7c0,2.2,0,4.4,0,6.5
	c-0.2,1.7,0,3.3,0.5,4.9h-0.9c-1.2,0-2.3,0-3.5,0c-0.7,0-0.9-0.2-1-0.8c0-0.2,0-0.4,0-0.6c-0.2,0.3-0.4,0.5-0.7,0.8
	c-1.3,1.1-3.2,1.5-4.8,0.8c-1.4-0.4-2.3-1.7-2.3-3.1c-0.1-0.8-0.1-1.6,0-2.4c0.2-1.9,1.8-3.4,3.7-3.6c1-0.2,2-0.4,2.9-0.7
	c0.7-0.1,1.2-0.8,1.1-1.5c0,0,0,0,0,0c0-0.5-0.3-1-0.8-1.2c-0.6-0.1-1.2,0.2-1.5,0.7C53.3,149.1,53.2,149.4,53.2,149.7z M55.7,153
	c-0.6,0.2-1.1,0.4-1.7,0.7c-0.3,0.2-0.6,0.5-0.7,0.9c-0.1,0.5-0.1,1.1,0,1.6c0,0.5,0.3,0.9,0.8,0.9c0.5,0.1,1.1-0.1,1.3-0.6
	c0.2-0.3,0.3-0.6,0.3-0.9C55.8,154.7,55.7,153.9,55.7,153z"/>
<path d="M231.3,153.6c0,1,0,1.9,0,2.9c0,0.3,0.1,0.6,0.4,0.9c0.3,0.2,0.7,0.3,1.1,0.2c0.3-0.2,0.5-0.4,0.6-0.8
	c0.1-0.6,0.2-1.1,0.2-1.7h5c0.3,2.2-0.9,4.3-3,5.2c-2.1,0.8-4.4,0.8-6.5,0c-1.7-0.6-2.9-2-3.2-3.8c-0.5-2.4-0.5-4.9,0-7.3
	c0.3-2.5,2.3-4.4,4.8-4.5c1.4-0.1,2.8-0.1,4.1,0.1c1.8,0.2,3.2,1.6,3.6,3.4c0.4,1.7,0.6,3.5,0.4,5.3L231.3,153.6z M231.3,150.7h0.5
	c1.9,0,1.9,0,1.6-1.9c-0.1-0.5-0.3-0.9-0.9-1c-0.6,0-1.1,0.2-1.2,0.9C231.3,149.3,231.3,150,231.3,150.7L231.3,150.7z"/>
<path d="M176.7,155c-0.2,1-0.4,2.1-0.7,3.1c-0.5,1.3-1.7,2.2-3.1,2.4c-1.6,0.4-3.2,0.4-4.8,0.1c-2.1-0.3-3.7-2-4-4.2
	c-0.4-2.4-0.4-4.9,0-7.3c0.2-2.4,2.2-4.4,4.6-4.4c1.4-0.1,2.9-0.1,4.3,0.1c1.9,0.2,3.3,1.7,3.5,3.5c0.3,1.7,0.3,3.4,0.5,5.2h-8
	c0,1.1,0.1,2.2,0.2,3.3c0.1,0.6,0.6,0.8,1.1,0.8c0.5,0.1,1-0.3,1.1-0.8c0.1-0.4,0.1-0.9,0.1-1.3c0-0.1,0.2-0.4,0.3-0.4
	C173.5,155,175,155,176.7,155z M171.7,150.7c0-0.7-0.1-1.3-0.2-2c-0.1-0.6-0.5-1-1.1-0.9c0,0,0,0,0,0c-0.6,0-1.1,0.4-1.1,1
	c-0.1,0.5-0.1,1-0.1,1.5c0,0.2,0.2,0.3,0.3,0.4C170.1,150.7,170.8,150.7,171.7,150.7z"/>
<path d="M217.4,135.1c0,0.5-0.1,1-0.2,1.5c-0.1,0.1-0.2,0.2-0.3,0.3c-0.2,0-0.4,0-0.6,0h-79.6v-1.8L217.4,135.1z"/>
<path d="M224.7,151.1h-5.2c0-0.5,0-1.1-0.1-1.6c0-0.4-0.2-0.7-0.4-1c-0.4-0.4-1.1-0.4-1.5,0c-0.1,0.1-0.2,0.2-0.2,0.4
	c-0.1,0.2-0.1,0.4-0.1,0.6c0,2.2,0,4.4,0,6.6c0,0.9,0.4,1.3,1.1,1.3c0.7,0.1,1.2-0.3,1.3-1.3c0.1-0.7,0.1-1.3,0.2-2.1h4.9
	c0.2,1.7-0.2,3.5-1,5c-0.6,0.8-1.4,1.3-2.3,1.5c-1.8,0.5-3.7,0.5-5.5,0.1c-1.8-0.3-3.3-1.7-3.7-3.5c-0.7-2.8-0.7-5.6,0-8.4
	c0.4-2.1,2.2-3.7,4.4-3.9c1.6-0.3,3.2-0.2,4.8,0.1c1.6,0.2,2.9,1.5,3.2,3.1C224.5,148.9,224.5,150,224.7,151.1z"/>
<path d="M149.9,155.5h4.8c0,0.3,0,0.7,0.1,1c0.1,0.7,0.7,1.2,1.3,1.2c0.5,0.1,1-0.3,1.1-0.7c0.2-0.8,0-1.3-0.7-1.7
	c-1-0.5-2.1-0.8-3.1-1.2l-0.9-0.4c-2.1-1-3.2-2.4-2.4-5.5c0.4-1.6,1.8-2.8,3.4-3.1c1.9-0.5,3.9-0.5,5.7,0.1c1.9,0.5,3.2,2.3,2.9,4.3
	h-4.6c0-0.2,0-0.4-0.1-0.6c-0.1-0.1-0.5-0.8-0.8-0.8c-0.5-0.1-0.9,0-1.3,0.2c-0.4,0.3-0.4,0.9-0.1,1.3c0.1,0.1,0.1,0.1,0.2,0.2
	c0.5,0.3,1,0.5,1.5,0.7c0.8,0.3,1.5,0.6,2.3,0.9c2,0.4,3.4,2.3,3.2,4.4c0.2,2.1-1.2,4.1-3.2,4.7c-2.2,0.7-4.6,0.7-6.7,0
	c-1.5-0.5-2.6-2-2.6-3.6C149.9,156.3,149.9,155.9,149.9,155.5z"/>
<path d="M199.1,160.4h-6.4L189,145h5.7l1.2,10.2h0.1l1.4-10.2h5.4L199.1,160.4z"/>
<path d="M75.3,148.6h-1.7v-3.6h1.7v-4.5H81v4.5h1.9v3.6h-1.8c-0.1,0.1-0.1,0.1-0.1,0.2c0,2.5,0,4.9,0,7.3c-0.1,0.4,0.2,0.8,0.7,0.9
	c0.1,0,0.1,0,0.2,0c0.3,0,0.7,0,1,0v3.6c-1.9,0.3-3.7,0.3-5.6,0c-1-0.2-1.7-1-1.9-1.9c-0.1-0.5-0.1-1.1-0.1-1.6c0-2.5,0-5.1,0-7.6
	C75.3,149.1,75.3,148.9,75.3,148.6z"/>
<path d="M68.4,145v2.2l0.2,0.1c0.8-1.8,2-3.1,4.3-2.7v4.9c-0.7,0-1.3,0-2,0c-1.2,0-1.9,0.6-2,1.8c-0.1,1.9-0.1,3.8-0.1,5.7
	c0,1.1,0,2.2,0,3.3H63V145H68.4z"/>
<path d="M178.3,160.4V145h5.3v1.9c0.5-0.6,1.1-1.2,1.7-1.8c0.7-0.5,1.6-0.6,2.4-0.4v5c-0.6,0-1.3,0-1.9,0c-1.5,0-2.2,0.7-2.2,2.2
	c0,2.6,0,5.1,0,7.7c0,0.3,0,0.5,0,0.8L178.3,160.4z"/>
<path d="M204.3,145h5.3v15.4h-5.3V145z"/>
<path d="M209.7,143.6h-5.3v-3.8h5.3V143.6z"/>
<path d="M239.4,135v1.8h-11c0.9-0.8,1.3-1.9,2.8-1.8c2.5,0.1,5,0,7.5,0L239.4,135z"/>
<path d="M241.3,147.7v-2.5h1.1c0.2,0,0.4,0,0.6,0.1c0.1,0,0.2,0.1,0.3,0.2c0.1,0.1,0.1,0.3,0.1,0.4c0,0.2,0,0.3-0.2,0.5
	c-0.1,0.1-0.3,0.2-0.5,0.2c0.1,0.1,0.2,0.1,0.3,0.2c0.1,0.1,0.2,0.3,0.3,0.4l0.3,0.5H243l-0.4-0.5c-0.1-0.1-0.2-0.3-0.3-0.4
	c0,0-0.1-0.1-0.1-0.1H242h-0.1v1L241.3,147.7z M241.9,146.2h0.4c0.2,0,0.3,0,0.5,0c0.1,0,0.1-0.1,0.1-0.1c0-0.1,0-0.1,0-0.2
	c0-0.1,0-0.1-0.1-0.2c0-0.1-0.1-0.1-0.2-0.1h-0.8L241.9,146.2z"/>
<path d="M242.5,149c-1.4,0-2.5-1.1-2.5-2.5c0-1.4,1.1-2.5,2.5-2.5c1.4,0,2.5,1.1,2.5,2.5v0C245,147.8,243.9,149,242.5,149z
	 M242.5,144.4c-1.1,0-2,0.9-2,2c0,1.1,0.9,2,2,2c1.1,0,2-0.9,2-2C244.5,145.3,243.6,144.4,242.5,144.4
	C242.5,144.4,242.5,144.4,242.5,144.4z"/>
</svg>
