<?xml version="1.0" encoding="utf-8"?>
<!-- Generator: Adobe Illustrator 21.1.0, SVG Export Plug-In . SVG Version: 6.00 Build 0)  -->
<svg version="1.1" id="Layer_1" xmlns="http://www.w3.org/2000/svg" xmlns:xlink="http://www.w3.org/1999/xlink" x="0px" y="0px"
	 viewBox="0 0 250 250" style="enable-background:new 0 0 250 250;" xml:space="preserve">
<style type="text/css">
	.st0{fill:#006A3C;}
</style>
<title>Grocery</title>
<path class="st0" d="M49.6,145H47v-8.2h3.7c2.3,0,3.5,1.1,3.5,2.7c0,1.1-0.6,2-1.6,2.4l2,3.1h-2.8l-1.5-2.5h-0.7L49.6,145z
	 M50.4,140.8c0.8-0.1,1.1-0.4,1.1-1.1s-0.4-0.9-1.3-0.9h-0.7v2L50.4,140.8z"/>
<path class="st0" d="M56.9,145v-8.2h6.4v2h-3.9v1.1h3.1v2h-3.1v1.1h3.9v2H56.9z"/>
<path class="st0" d="M74,145h-2.6l-0.5-1.5h-2.8l-0.5,1.5h-2.5l2.8-8.2h3.3L74,145z M69.6,138.7l-0.9,2.9h1.8L69.6,138.7z"/>
<path class="st0" d="M76.1,145v-8.2h2.6v6.1h3.1v2.1H76.1z"/>
<path class="st0" d="M84.4,145v-8.2H87v6.1h3.2v2.1H84.4z"/>
<path class="st0" d="M96,142v3h-2.5v-3l-2.9-5.1h2.7l1.4,2.9l1.3-2.9h2.7L96,142z"/>
<path class="st0" d="M104.8,145v-8.2h2.6v8.2H104.8z"/>
<path class="st0" d="M115.9,136.8h2.3v8.3h-2.7l-2.9-4.7v4.6h-2.4v-8.2h2.8l2.9,4.7L115.9,136.8L115.9,136.8z"/>
<path class="st0" d="M125.7,138.9v6.1h-2.6v-6.1h-2.5v-2.1h7.5v2.1H125.7z"/>
<path class="st0" d="M134.5,145.2c-2.2,0.2-4.1-1.4-4.4-3.6c0-0.2,0-0.4,0-0.7c-0.1-2.3,1.7-4.2,4-4.3c0.1,0,0.2,0,0.4,0
	c2.2-0.2,4.1,1.4,4.4,3.6c0,0.2,0,0.4,0,0.6c0.1,2.3-1.7,4.2-4,4.3C134.8,145.2,134.7,145.2,134.5,145.2z M134.5,138.7
	c-1.2,0-1.8,0.9-1.8,2.2s0.6,2.3,1.8,2.3c1.2,0,1.8-0.9,1.8-2.2S135.7,138.7,134.5,138.7L134.5,138.7z"/>
<path class="st0" d="M145.2,136.8h6.3v2.1h-3.7v1.2h2.9v2h-2.9v2.9h-2.5V136.8L145.2,136.8z"/>
<path class="st0" d="M157.8,145.2c-2.2,0.2-4.1-1.4-4.4-3.6c0-0.2,0-0.4,0-0.7c-0.1-2.3,1.7-4.2,4-4.3c0.1,0,0.2,0,0.4,0
	c2.2-0.2,4.1,1.4,4.4,3.6c0,0.2,0,0.4,0,0.6c0.1,2.3-1.7,4.2-4,4.3C158,145.2,157.9,145.2,157.8,145.2z M157.8,138.7
	c-1.2,0-1.8,0.9-1.8,2.2s0.6,2.3,1.8,2.3s1.8-0.9,1.8-2.2S159,138.7,157.8,138.7L157.8,138.7z"/>
<path class="st0" d="M168.8,145.2c-2.2,0.2-4.1-1.4-4.4-3.6c0-0.2,0-0.4,0-0.7c-0.1-2.3,1.7-4.2,4-4.3c0.1,0,0.2,0,0.4,0
	c2.2-0.2,4.1,1.4,4.4,3.6c0,0.2,0,0.4,0,0.6c0.1,2.3-1.7,4.2-4,4.3C169,145.2,168.9,145.2,168.8,145.2z M168.8,138.7
	c-1.2,0-1.8,0.9-1.8,2.2s0.6,2.3,1.8,2.3s1.8-0.9,1.8-2.2S169.9,138.7,168.8,138.7L168.8,138.7z"/>
<path class="st0" d="M178.9,145h-3.2v-8.2h3.4c3,0,4.6,1.6,4.6,4S182,145,178.9,145z M178.9,138.8h-0.7v4.2h0.8
	c1,0.1,1.9-0.6,2.1-1.6c0-0.2,0-0.3,0-0.5C181.1,139.4,180.4,138.8,178.9,138.8L178.9,138.8z"/>
<path class="st0" d="M207.5,134.3h1.4v-1.2h-1.4V134.3z M214,132.1h-3l0.1,3h2.7c0.4,0.1,0.7-0.2,0.8-0.6c0-0.1,0-0.1,0-0.2
	c0,0,0-0.5-0.4-0.6c0.4-0.1,0.7-0.4,0.6-0.8C214.7,132.5,214.5,132.1,214,132.1 M212.9,134.5h-0.4v-0.6h0.4c0.1,0,0.3,0.1,0.3,0.2
	C213.2,134.4,213,134.4,212.9,134.5 M213.3,133.2L213.3,133.2c0,0.1-0.3,0.2-0.3,0.2h-0.6v-0.6h0.6
	C213.1,132.8,213.3,132.9,213.3,133.2C213.3,133.1,213.3,133.1,213.3,133.2 M198.6,134.2h1.4v-1.2h-1.4V134.2z M202.1,135h3.4v-0.5
	h-2.1V134h1.5v-0.6h-1.5v-0.5h2.2v-0.8H202L202.1,135z M195.3,133.3h-0.9V132h-1.5l0.2,3h1.2v-1h1v1h1.2l0.1-3h-1.5L195.3,133.3z
	 M245.2,114.9l-0.1-0.4H245h-0.8c-0.6-0.1-1.2-0.1-1.7,0c-0.4,0-0.9,0-1.3,0.1c-0.6,0.2-1.2,0.2-1.8,0l0,0l-0.6,0.1
	c-1.4,0.4-2.9,0.6-4.3,0.6l-1.5,0.1c-0.9,0-1.6,0.2-2.2,0.3c-1,0.2-2.1,0.2-3.1,0c-0.2,0-0.3,0.1-0.5,0.2c0,0-0.2,0.1-0.2,0.1
	c0,0,0,0-0.1-0.2v-0.1h-0.1c-0.8,0.4-1.8,0.5-2.7,0.4h-0.7c0.1-0.8,0.5-1.6,1-2.2c0.4-0.4,0.7-0.8,0.9-1.3l0,0l-0.3-1l-0.5,0.5
	c-0.5,0.2-0.9,0.6-1.2,1c-0.4,0.6-1,1-1.6,1.2h-0.1v0.1c-0.4,0.8-1.1,1.3-1.9,1.5c-0.4,0.1-0.7,0.3-1.1,0.5
	c-0.8,0.2-1.5,0.3-2.3,0.3c-0.8,0-1.6,0.1-2.3,0.4l0,0c-0.4,0.2-0.8,0.3-1.2,0.2c-0.5,0-1.1,0-1.3,0.5v0.1l0.1,0.1
	c1,0.3,2.1,0.4,3.1,0.2c0.6-0.1,1.3-0.1,1.9,0l-0.7,0.4c-1,0.7-2.1,1.1-3.3,1.5l0,0c-0.3,0.1-1.1,0.6-1.9,1
	c-0.8,0.4-1.3,0.7-1.6,0.8H209l-0.7,0.2c-0.5,0.1-0.9,0.2-1.3,0.4l-2,0.7c-1.3,0.6-2.7,1-4.2,1.2c-0.9,0.3-1.9,0.3-2.8-0.1
	c0.4-0.3,0.9-0.6,1.4-0.7c1-0.2,1.9-0.8,2.4-1.8l0,0c0.1-0.7,0.4-0.7,0.9-0.7s1.1,0.1,1.2-1l0,0c0.1-0.8-0.3-1.6-1-2l-0.4-0.3
	c0.1-0.2,0.1-0.3,0.2-0.3c0.1,0,0.2,0,0.3,0c0.2,0.1,0.4,0.1,0.6,0.1l0,0c0.4-0.3,1-0.5,1.5-0.5c0.3,0,0.6-0.1,0.9-0.2h0.1v-0.1
	c0.1-0.3,0.3-0.3,0.6-0.3c0.4,0.1,0.8-0.1,1-0.4l0,0l0,0c0.1-0.7,0-1.3-0.2-2v-0.1h-0.1c-2,0.1-3.9,0.7-5.6,1.7
	c-0.8,0.2-1.5,0.5-2.1,0.9l-0.9,0.5l0.1,0.1l0.8,1.4l0,0c0.3,0.1,0.6,0.2,0.8,0.4c0.2,0.2,0.5,0.3,0.7,0.4c-0.5,0.7-1.2,1.1-2,1.3
	c-0.4,0.1-0.8,0.3-1.1,0.5l-0.9,0.6c-0.3,0.1-0.4,0.4-0.4,0.6c0,0.2-0.1,0.3-0.2,0.4c-1.1,0-2.3,0.2-3.4,0.6
	c-2.5,0.6-5.3,1.3-6.7-0.1l-0.1-0.2c-0.1-0.2-0.2-0.4-0.3-0.6c0-0.1,0-0.2,0.1-0.3c2.2-0.2,4.3-1,6.3-2.1l0,0
	c0.4-0.5,0.7-1.2,0.7-1.9c0-0.1,0-0.1,0-0.2c0.1-0.5-0.1-1-0.4-1.3c-0.3-0.2-0.7-0.3-1.1-0.2c-0.2,0.1-0.5,0-0.7-0.1l-0.1-0.1
	l-0.1,0.1c-0.6,0.4-1.3,0.7-2,0.9c-0.9,0.1-1.7,0.6-2.4,1.2c-0.4-0.1-0.8,0.3-1.2,0.6c-0.4,0.4-0.6,0.6-0.8,0.5c0,0-0.1,0-0.1-0.1
	c0.8-0.7,1.4-1.6,2-2.4c0.7-1.1,1.6-2,2.6-2.8h0.1c0,0-0.1-0.2-0.1-0.3l0.3-0.4c0.4-0.5,1.6-2,1.9-1.9h0.2v-0.2
	c0.1-0.6,0.4-1.2,0.9-1.5c0.4-0.3,0.7-0.7,0.8-1.1v-0.1c-0.1-0.2-0.1-0.4-0.1-0.7c0-0.4,0-0.8-0.2-0.9c-0.1-0.1-0.2-0.1-0.3,0l0,0
	l-0.3,0.2c-0.9,0.6-1.8,1.3-1.8,1.8c-0.5,0.6-1.1,1.2-1.5,1.9c-1,1.3-2.1,2.8-2.9,3.1l0,0l-1.6,1.6c-0.9,0.7-1.8,1.3-2.7,2.1
	c-1,0.9-2.1,1.7-3.3,2.4l0,0l0,0c-0.5,0.7-1.2,1.3-2,1.7l-0.9,0.5c-0.2,0-0.3,0-0.4,0.1c-0.1,0.1-0.2,0.3-0.2,0.5
	c0,0.3-0.1,0.5-0.4,0.5l0,0c-0.2,0.1-0.4,0.2-0.6,0.2c-0.3,0.1-0.5,0.2-0.8,0.3l0,0c-0.4,0.5-1.1,0.7-1.7,0.6h-0.4v-0.4
	c0.2-0.7,0.7-1.3,1.3-1.7c0.5-0.4,0.8-1,0.8-1.6c0-0.5-0.1-0.9-0.3-1.3l0,0c-0.1-0.2-0.2-0.4-0.3-0.6c-0.2-0.4-0.3-0.8-0.8-0.8
	c-0.3-0.3-0.7-0.5-1-0.7c-0.5-0.2-0.9-0.5-1.2-0.9c0-0.1,0-0.2-0.1-0.3c-0.1,0-0.3-0.1-0.5,0.1c-0.6,0.4-0.9,1-1,1.6l0,0
	c-1.1,0.9-2,1.8-2.9,2.9c-1,1.2-2.1,2.2-3.4,3l-0.8,0.4c-0.5,0.3-1,0.5-1.6,0.5c-0.4-0.3-0.6-0.8-0.6-1.3c0-0.1,0-0.2,0-0.2
	c0.4-1,0.9-1.9,1.5-2.7l0.4-0.5l0,0c-0.1-0.7-0.2-0.8-0.4-0.9c-0.2-0.1-0.1,0-0.3-0.3c0.4-0.2,0.6-0.5,0.8-1.1v-0.1l-0.1-0.1
	l-0.4-0.4c-0.3-0.3-0.6-0.6-1-0.6c-0.2,0.1-0.4,0.2-0.5,0.4l-0.9,0.1c-1.4-0.1-2.7,0.4-3.8,1.3c-2.4,1.4-4.4,3.5-5.6,6l0,0l0.2,1
	l0.3,0.3c0.4,0.4,0.9,0.9,1.5,0.9c0.2,0,0.4-0.2,0.6-0.3c0.6,0.2,1.3,0,1.7-0.5c0.2-0.2,0.5-0.3,0.8-0.5l0,0l0,0
	c0.2-0.3,0.3-0.3,0.5-0.2c0.2,0.1,0.3,0.1,0.5,0c0.2-0.2,0.3-0.4,0.3-0.7c0.4,0.1,0.8-0.3,1.1-0.7c0.2-0.3,0.4-0.5,0.7-0.6
	c0.3-0.2,0.4-0.1,0.4-0.1c0,0.1,0,0.1,0,0.2c0,0.2,0,0.4-0.1,0.7c-0.1,0.3-0.1,0.7-0.1,1c-0.1,0.8,0.6,1.6,1.4,1.6
	c0.1,0,0.1,0,0.2,0c0.6,0.5,1.5,0.6,2.2,0.3c0.5-0.1,1-0.4,1.3-0.8c1.6-0.3,3-1.2,3.9-2.5c0.9,0.2,1.3-0.9,1.7-1.9
	c0.4-1,0.7-1.7,1.2-1.6h0.1v-0.1c0.1-0.4,0.3-0.5,0.3-0.5s0.3,0.1,0.4,0.3c0.1,0.2,0.3,0.3,0.5,0.3l0.3,0.2c0.2,0.1,0.2,0.1,0.4,0.7
	v0.2c-0.9,1.1-1.5,2.4-1.8,3.8l0,0c0.1,0.3,0.2,0.6,0.4,0.9c0.1,0.2,0.2,0.4,0.3,0.6l0,0l0,0c0.5,0.6,1.3,0.9,2.1,0.8
	c0.7-0.1,1.4-0.5,1.7-1.1c0.3,0.1,0.6-0.1,0.7-0.4c0.1-0.2,0.1-0.2,0.5,0l0.1,0.1l0.1-0.1c0.2-0.6,0.7-1,1.3-1.2
	c0.5-0.1,0.9-0.3,1.2-0.7l0,0l0,0c0.3-0.9,0.6-0.9,0.9-0.9c0.5,0,1-0.3,1.2-0.7c0.1-0.2,0.4-0.4,0.6-0.4c0.5-0.1,0.8-0.3,0.9-1.4
	c0.4-0.2,0.8-0.5,1.2-0.9l0.3-0.3l0.5-0.5c0.1-0.1,0.1-0.2,0.2-0.2c0,0.1,0,0.2,0,0.3l-0.3,0.6c-0.1,0.4-0.1,0.4-0.5,0.6H182
	l0.1,0.3l-1.5,2.2c-0.2,0.3-0.4,0.7-0.7,1c-0.8,0.9-1.3,1.9-1.7,3.1l0,0l0,0l0.2,0.5c0.1,0.4,0.3,0.8,0.7,0.8c0.1,0,0.2,0,0.3,0
	c0.3-0.2,0.4-0.7,0.5-1.3c0.6-0.6,1.2-1.4,1.7-2.1c0.9-1.3,2-2.8,2.7-2.8l0,0c-0.1,0.2-0.2,0.4-0.2,0.7l0,0c0.6,2.7,1.8,4,3.8,4.7
	l0,0c2-0.2,4-0.7,5.8-1.5c0.6,0.1,1.1,0.1,1.7,0.1l0.1,0.1l0,0c0.1,0.4,0.3,0.7,0.5,0.9c0.4,0.4,1,0.8,1.3,0.6l0,0l0,0
	c0.4-0.5,0.9-0.3,1.4-0.2c0.3,0.1,0.6,0.2,0.9,0.2l0,0l0,0c0.7-0.6,1.6-1.1,2.5-1.2c0.5-0.1,0.9-0.3,1.3-0.4
	c0.5,0.5,1.1,0.1,1.5-0.2c0.5-0.3,0.7-0.5,1-0.4c0.3,0.1,0.5-0.2,0.7-0.5c0.2-0.3,0.3-0.3,0.4-0.3c0.1,0,0.1,0,0.2,0.3v0.1h0.1
	c0.5,0.1,1.2-0.5,1.5-0.9c0.2,0,0.4-0.1,0.6-0.1c0.3,0,0.5,0,0.8-0.1l0,0c1-0.7,2-1.4,3.2-1.9c0.9-0.4,1.8-0.9,2.7-1.5
	c0.1,0.1,0.3,0.2,0.5,0.1c0,0,0,0,0.1-0.1c-0.4,0.7-0.8,1.4-1.3,2.2c-0.4,0.8-0.8,1.6-1.2,2.1c-0.3,0.4-0.6,0.9-0.8,1.3
	c-0.3,0.7-0.7,1.3-1.3,1.8l0,0l0,0c-0.1,0.2-0.2,0.3-0.2,0.5c0,0.3,0.2,0.6,0.3,0.9c0.1,0.2,0.3,0.5,0.3,0.7v0.1h0.1
	c1.2-0.7,2-1.8,2.3-3.2c0.2-0.3,0.3-0.5,0.5-0.7c0.5-0.5,0.8-1.1,1-1.8l0.2-0.4c0.3-0.6,0.7-1,1.2-1.4l0,0l0,0
	c1.2-2.2,3.2-4.6,4.9-4.1l0,0c0.6,0,1.1,0,1.7-0.1c0.3-0.1,0.7-0.1,1,0c0.3,0,0.6,0,0.9-0.1c0.5-0.2,1-0.1,1.4,0.3l0.1,0.1l0.1-0.2
	c0.3-0.6,0.6-0.5,1.2-0.2c0.3,0.2,0.6,0.2,0.9,0.2l0,0c0.7-0.8,1.9-1.1,2.9-0.8l0,0l0,0c0.1-0.1,0.1-0.1,0.3,0
	c0.3,0.1,0.5,0.1,0.8,0.2h0.1v-0.1c0.3-0.3,0.5-0.3,0.8-0.2c0.2,0.5,0.7,0.7,1.2,0.5c0.3-0.1,0.5-0.4,0.5-0.6l0,0v0.2l2.1-0.1h0.4
	c0.5,0.2,1,0,1.3-0.3c0.2,0,0.3,0,0.5,0c0.3-0.1,0.7,0,0.9,0.3l0.1,0.1l0.1-0.1c0.3-0.3,0.5-0.2,0.8,0c0.3,0.2,0.4,0.3,0.7,0.2
	l0.7-0.5l0.6-0.5l0,0C245.4,115.7,245.3,115.3,245.2,114.9 M157.2,119.8c-1.4,0.7-2.8,1.6-4.1,2.5c-0.9,0.6-1.9,1.2-2.8,1.8
	l-0.1-0.2c1.6-2,3.5-3.8,5.7-5.2c0.1,0.1,0.2,0.2,0.3,0.3c0.2,0,0.3-0.1,0.5-0.2s0.2-0.2,0.2-0.1l0,0l0,0h0.6c0.2-0.1,0.5-0.1,0.8,0
	C157.8,119,157.5,119.4,157.2,119.8 M185.4,120c0.4-0.3,0.9-0.5,1.4-0.7c0.7-0.2,1.3-0.6,1.9-1c0.7,0,1.3-0.1,2-0.3
	c-0.1,0.3-0.4,0.5-0.7,0.7c-0.3,0.1-0.5,0.3-0.7,0.5c-0.1,0-0.3,0-0.4,0c-0.4,0-0.7,0.1-1,0.4c-0.7-0.1-1.4,0.1-1.9,0.4L185.4,120
	 M217.5,119.1c0.1-0.2,0.2-0.3,0.3-0.4l0,0L217.5,119.1 M179,127.4L179,127.4z M113.6,120L113.6,120L113.6,120
	c0-1.3,0.4-1.5,0.8-1.8c0.4-0.2,0.7-0.5,0.8-0.9c0.7-0.1,1.2-0.9,1.7-1.6l0.5-0.7l0,0c0,0,0-0.1,0-0.1h0.1c0.1,0,0.3,0,0.4-0.1v-0.1
	l-0.2-0.3c0.2-0.1,0.4-0.3,0.5-0.5c0.3-0.4,0.6-0.7,1.1-0.6h0.1V113c0.2-0.5,0.6-0.9,1.1-1.2c0.9-0.5,1.5-1.4,1.5-2.5v-0.1
	c-0.1-0.3-0.2-0.7-0.2-1c0-0.4-0.1-0.8-0.2-1.2V107h-0.1c-0.8-0.2-1.2,0.6-1.6,1.3c-0.4,0.7-0.5,1-0.9,1.1l0,0l0,0
	c-0.2,0.4-0.6,0.8-0.9,1.1c-0.5,0.3-0.8,0.7-1.1,1.2c-1,0.8-2,1.8-2.9,2.8c-1.1,1.4-2.5,2.6-4.1,3.5c-1.1,0.6-2.1,1.2-3.1,2
	c-1.4,1.1-3,1.9-4.6,2.5l0,0l0,0c-0.9,1-2.2,1.5-3.5,1.5c-0.2-0.1-0.4-0.5-0.4-1c0-0.1,0-0.2,0-0.3c0.2-0.4,0.5-0.7,0.9-0.9
	c0.3-0.2,0.5-0.4,0.7-0.7c0.3-0.2,0.5-0.6,0.6-1c0-0.3-0.1-0.6-0.3-0.8l-0.1-0.3c0.4-0.2,0.5-0.5,0.7-1v-0.1l-0.1-0.1l-0.4-0.3
	c-0.5-0.3-1.2-0.8-1.7-0.6c-0.2,0.1-0.3,0.2-0.4,0.3h0.1c-1.5,0.1-3,0.7-4.1,1.7c-0.9,0.4-1.6,1.1-2.1,1.9c-0.4,0.8-1,1.5-1.9,1.9
	c-0.8,0.2-1.5,0.5-2.2,0.9c-0.6,0.4-1.2,0.6-1.9,0.8l0,0l0,0c-0.3,0.5-1.2,0.2-1.9,0c-0.3-0.1-0.6-0.2-0.9-0.2l0.1-0.8
	c0.4-0.4,0.8-0.8,1.3-1.1l0.4-0.3l0,0c0.1-0.3,0.2-0.6,0.2-0.9c0-0.5-0.1-1-0.3-1.5l0,0l0,0c-0.1-0.7-1.3-1.5-2.1-1.7l-0.5-0.3
	c-1-0.6-1-0.6-1-0.7c0-0.2-0.1-0.3-0.2-0.5v-0.1h-0.4c-0.5,0.2-1,0.6-1.1,1.2c-0.1,0.3-0.3,0.6-0.5,0.9l-1.1,1.1
	c-1.4,1.7-3.1,3.2-4.9,4.4c-1.1,0.6-2.7,1.3-3.7-0.2c-0.1-0.4-0.2-0.8-0.2-1.2c0-0.4,0-0.7,0.1-1.1c0,0,0.1-0.8,0.1-0.9
	c0.2-0.3,0.3-0.6,0.4-0.9c0.1-0.3,0.2-0.5,0.3-0.7l0,0l0,0c0.3-1.1,1-2.1,2-2.7c0.4-0.3,0.9-0.4,1.3-0.3h0.1
	c0.6-0.1,1.3-0.2,1.9-0.2c1.2,0.1,2.4-0.2,3.5-0.8h1.5c0,0.1,0.1,0.1,0.2,0.1c0.1,0,0.2-0.1,0.3-0.3l0.1-0.1l0.1,0.1v0.1h0.1
	c1.9-0.3,3.9-0.6,5.9-0.7l2.4-0.2l0,0c0.3-0.1,0.6-0.1,0.9,0c0.5,0.1,1.1,0.2,1.5-0.4v-0.1l-0.4-0.5h-0.1c-0.4,0.1-0.8,0.2-1.1,0.1
	l-0.2-0.1v0.2c0,0.2-0.1,0.2-0.3,0.2c-0.1,0-0.2,0-0.3,0l-1.3-0.2l0,0c-0.7,0.1-1.4,0.1-2.1,0c-0.8-0.1-1.6-0.1-2.5,0l0,0l0,0
	c-0.4,0.2-0.9,0.3-1.3,0.1c-0.6-0.1-1.2-0.1-1.7,0.2c-1.1-0.3-2.2-0.3-3.3,0c-0.8,0.1-1.7,0.2-2.5,0.1c0.3-0.3,0.6-0.7,0.8-1.1l0,0
	c-0.2-0.6-0.5-1.1-0.8-1.6c-0.2-0.1-0.5-0.2-0.8-0.1c-0.2,0-0.3,0.2-0.3,0.3c-0.4,0.8-0.9,1.6-1.6,2.1l-0.6,0.6h-0.1
	c-0.9,0.5-2,0.6-2.9,0.3h-0.1h-0.1c-0.4,0.3-0.9,0.4-1.4,0.3c-0.7-0.1-1.4,0.2-1.8,0.8v0.1l0.1,0.1c0.7,0.7,1.7,1,2.7,0.8h0.5
	c-1.2,1.2-2.6,2.3-4,3.3l0,0l0,0c-0.2,0.4-0.6,0.7-1,0.9c-0.4,0.2-0.8,0.5-1.1,0.8c-0.5,0.4-1,0.8-1.5,1.3c-1.1,1.1-2.3,2.3-3.8,1.9
	l0,0c0-0.1,0-0.3,0-0.4c0-0.2,0-0.4,0-0.6c0-0.2,0-0.3-0.1-0.5c0.1-0.4,0.2-0.8,0.5-1.1l0,0l0,0c0,0,0-0.1,0-0.1
	c0-0.5,0.2-0.9,0.5-1.2c0.3-0.4,0.5-0.9,0.5-1.4c0,0,0-0.1,0-0.2c0.1,0,0.2-0.1,0.3-0.2c0-0.1,0.1-0.1,0.1-0.2l0,0v-0.1
	c0,0,0-0.1,0-0.1c-0.1-0.6-0.3-1.1-0.7-1.5l-0.1-0.2h-0.1l-0.2,0.2c-0.2,0.2-0.3,0.2-0.6-0.1l-0.1-0.1l-4.3,3.4l-2.1,1.6
	c-0.3,0-0.5,0.1-0.7,0.3c-0.1,0.1-0.3,0.2-0.3,0.2c-0.1,0-0.2-0.1-0.3-0.2c0.5-1.4,1.2-2.8,2-4.1l0.2-0.2l-0.2-0.1
	c-0.2,0-0.3-0.3-0.4-0.6c-0.1-0.2-0.2-0.5-0.3-0.7l-0.1-0.1h-0.1c-2.6,1.2-5,2.8-7.2,4.8c-1,0.3-2,0.8-2.9,1.3
	c-0.9,0.6-1.9,1-2.9,1.3l-0.4,0.2c-0.6,0.4-1.3,0.5-2,0.3c0.3-0.4,0.8-0.7,1.3-0.9c1-0.3,1.8-1.1,2.1-2.1l0,0l0,0v-0.1
	c0-0.2,0-0.4,0.1-0.5c0.2-0.1,0.4-0.2,0.6-0.1c0.3,0,0.6-0.1,0.8-0.3c0.2-0.2,0.2-0.5,0.2-0.8c0,0,0-0.1,0-0.2c0-0.9-0.6-1.6-1.3-2
	l-0.5-0.3c0-0.3,0.1-0.4,0.1-0.4s0.2,0,0.3,0c0.2,0.1,0.4,0.1,0.6,0l0,0l0,0c0.4-0.4,0.8-0.6,1.3-0.7c0.3-0.1,0.5-0.2,0.8-0.3h0.1
	v-0.1c0-0.3,0.2-0.3,0.5-0.3c0.4,0,0.7-0.2,0.9-0.6l0,0l0,0c0-0.6-0.2-1.2-0.4-1.8v-0.1h-0.1c-1.8,0.4-3.5,1.3-4.8,2.6
	c-1,0.4-2,1-2.8,1.7l-0.1,0.1l1.1,1.4l0,0c0.3,0.1,0.6,0.2,0.9,0.3c0.2,0.1,0.5,0.2,0.8,0.3c-0.3,0.7-0.9,1.3-1.6,1.6
	c-0.3,0.2-0.7,0.4-1,0.7l0,0v0.5l-0.5,0.4c-0.6,0.3-1,0.8-1.3,1.3l0,0c0,0.2-0.1,0.4-0.2,0.5c-0.1,0.3-0.2,0.6-0.3,0.9
	c0,0.4,0.2,0.8,0.5,1.1l0,0c0.2,0.1,0.3,0.3,0.5,0.4c0.3,0.3,0.7,0.7,1.2,0.4l0,0l0,0c0.3-0.5,0.7-0.5,1.2-0.4c0.3,0,0.5,0,0.8,0
	l0,0l0,0c0.6-0.7,1.5-1.3,2.4-1.5c0.5-0.2,1.1-0.4,1.5-0.7c0.6,0.4,1.1,0,1.5-0.4c0.4-0.4,0.6-0.6,0.9-0.5c0.3,0.1,0.5-0.3,0.6-0.5
	s0.2-0.3,0.2-0.3s0.1,0,0.2,0.3v0.1H44c0.5,0,1,0,1.3-0.5v-0.1c0-0.6,0.8-0.8,1.5-1l0,0c-0.1,0.5-0.2,0.9-0.3,1.3
	c-0.3,0.8-0.4,1.6-0.5,2.5c0,0.2,0,0.5,0.1,0.7c0.5,0.8,1.1,1.5,1.7,1.2H48v-0.1c0.1-0.7,0.6-1.4,1.2-1.7c0.5-0.3,0.9-0.8,1.2-1.3
	c0.1,0,0.2-0.1,0.4-0.1c0.2,0,0.4-0.1,0.6-0.2c0.1-0.1,0.1-0.3,0.1-0.4l0,0c0.3-0.1,0.5-0.2,0.8-0.4c0.3-0.2,0.6-0.4,0.9-0.3h0.2
	v-0.2c0-0.1,0.1-0.2,0.3-0.2c0.2,0,0.3-0.1,0.4-0.2c0.1-0.1,0.1-0.2,0.1-0.3c0-0.1,0-0.1,0-0.2c0.2-0.2,0.5-0.3,0.7-0.6
	c0.3-0.3,0.9-0.9,1.1-0.8c0,0.5-0.1,1-0.3,1.5c-0.6,1-1,2.2-1.2,3.3c0,0.1,0,0.3,0.1,0.4c0.7,0.9,1.7,1.5,2.7,1.8l0,0l0,0
	c0.4-0.3,0.9-0.4,1.3-0.3l0.9,0.1v-0.1c0,0,0.1-0.4,0.2-0.7v0.1c0,0.1,0.1,0.2,0.2,0.3c0.1,0,0.2-0.1,0.3-0.2l0,0
	c0.2-0.6,0.7-1,1.3-1.3c0.9-0.4,1.6-1.1,1.8-2c1.2-0.2,2.3-0.8,2.9-1.8c0.2,0.1,0.4,0.1,0.6,0.1c0.3-0.1,0.5-0.5,0.7-0.8
	c0.2-0.3,0.4-0.7,0.7-0.8l-0.5,1.8v0.9c0,0.8,0,1.6,0.1,2.4l0,0l0,0c0.4,0.9,1.1,1.7,2.1,2c0.4,0.4,1,0.5,1.5,0.1
	c0.4-0.2,0.6-0.4,1.1,0l0,0h0.1c0.7-0.2,1.3-0.7,1.7-1.3c1.5-0.3,2.9-1.4,3.5-2.8c0.2,0.1,0.4,0.1,0.6,0c0.5-0.2,0.8-1,1.1-1.7
	s0.6-1.5,1.1-1.4h0.1v-0.2c0.1-0.5,0.2-0.7,0.3-0.7c0.1,0,0.2,0,0.3,0.1c0.1,0.1,0.3,0.1,0.4,0.1l0.6,0.3c0.5,0.2,0.9,0.5,1.1,1
	c0,0.6-0.4,0.9-0.9,1.3c-0.8,0.5-1.2,1.2-1.3,2.1l0,0l0,0c0,0,0,0.1,0,0.1c0,0.2-0.1,0.4-0.1,0.5c-0.1,0.2-0.1,0.3-0.1,0.5
	c0,0,0,0.1,0,0.1l0,0l0,0c1,1,2.4,1.5,3.7,1.5c0.4-0.1,0.8-0.3,1-0.6c0.3,0,0.6-0.1,0.8-0.3c0.2-0.2,0.4-0.3,0.5-0.2l0,0
	c0.7,0.1,1.3-0.1,1.8-0.6c0.2-0.2,0.4-0.3,0.6-0.4c0.2,0.8,0.8,2.2,1.4,2.4c0.2,0,0.4,0,0.5-0.2c0.5,0.1,1,0,1.3-0.3
	c0.2-0.2,0.4-0.3,0.7-0.5l0,0l0,0c0.1-0.2,0.4-0.4,0.7-0.4c0.5,0,0.9-0.4,1-0.9c0.4,0.1,0.6-0.3,0.8-0.6c0.2-0.3,0.3-0.5,0.6-0.6
	c0.2-0.1,0.4-0.1,0.4-0.1s0,0.4,0,0.6c-0.1,0.5,0,1,0.2,1.5l0.2,0.2c0.4,0.5,0.9,1,1.4,1l0,0l0,0c1.3-1,2.7-1.7,4.3-2.2
	c0.5-0.2,0.9-0.5,1.3-0.9c0.6-0.6,1.4-0.9,2.2-1h0.1v-0.1c0-0.3,0.1-0.3,0.3-0.3l0.3-0.1c0.1-0.1,0.4-0.3,0.7-0.5l0.8-0.6
	c0.6-0.5,1.2-1,1.9-1.3h0.1c-0.8,1-1.6,2-2.5,2.9l-0.1,0.1c-0.4,0.5-0.7,1-1,1.5l-0.6,1c-0.2,0.2-0.3,0.3-0.5,0.5
	c-0.3,0.2-0.5,0.3-0.5,0.5l0,0c0,0.1,0,0.2,0.1,0.2c0.2,0.2,0.3,0.5,0.3,0.7c0,0.3,0.1,0.5,0.3,0.7c0.2,0.1,0.5,0.2,0.8,0.1l0,0
	l0.3-0.3c0.5-0.4,0.9-0.7,1.5-1h0.1v-0.1c0-0.1,0-0.1,0-0.2c0-0.4,0.3-0.5,0.6-0.6s0.6-0.2,0.7-0.6l0,0l0,0c0-0.1,0-0.2,0-0.2
	c0-0.4,0.5-1,1-1.5c0.5-0.5,1.1-1.2,1.1-1.8c0,0,0-0.1,0-0.1c0-0.5,0.4-0.7,0.8-0.9c0.2-0.1,0.5-0.3,0.6-0.5 M94.3,122.9
	c-0.9,0.8-1.9,1.5-3,2.2l-0.5-0.7c1.6-2,3.6-3.6,5.8-4.9c0.1,0.1,0.2,0.2,0.3,0.2c0.2,0,0.4-0.1,0.5-0.2c0.2-0.1,0.2-0.1,0.2-0.1
	l0,0l0,0l0.6-0.1c0.2-0.1,0.5-0.1,0.7,0c-0.4,0.3-0.7,0.7-1.1,1.1C96.5,121,95.3,121.9,94.3,122.9 M34.3,120.2h0.1
	c0,0,0.3,0,0.3-0.2c0.1-0.2,0-0.3-0.2-0.4l-0.1-0.1h-0.1c-2.4,1.2-4.8,2.5-7.3,3.5c-0.6,0.2-1.3,0.4-1.9,0.7c-1.1,0.5-2.3,0.8-3.5,1
	l0,0c-2.5,1-5,1.8-7.7,2.5c-0.5,0-1,0.1-1.5,0.1c-1.3,0.4-2.8,0-3.7-1l0,0l0,0l0,0c-0.1-0.3-0.4-0.5-0.6-0.6
	c-0.2-0.1-0.3-0.2-0.3-0.3v-0.7c0,0,0-0.1,0-0.1c0-0.1,0-0.3,0-0.4c0-0.1,0-0.3,0-0.4c0,0,0-0.1,0-0.1h0.2L8,123.3
	c-0.1-0.2-0.2-0.4-0.2-0.6l0,0l0,0c0.2-0.1,0.3-0.3,0.4-0.5c0.3-1,0.9-2,1.7-2.7l0,0l0,0c0.2-0.2,0.3-0.4,0.5-0.6
	c0.3-0.3,0.6-0.7,0.7-1.1l0.6-0.3c1.6-0.9,3.1-1.8,3.4-2.7c0.5-0.7,1-1.1,1.9-0.9h0.1v-0.1c0.1-0.2,0.3-0.3,0.6-0.4l0.3-0.1v-0.1
	c0-0.5,0.4-0.5,1-0.7c0.3,0,0.6-0.1,0.8-0.3l0,0L20,112c0.1-0.4,0.3-0.8,0.5-0.8c0.3,0.2,0.6,0.3,1,0.2c0.6-0.1,1.1-0.8,1.4-1.3
	c0.4,0.5,1.2,0.7,1.7,0.3c0.1-0.1,0.2-0.2,0.3-0.4c0.4-0.3,0.8-0.5,1.4-0.2h0.1h0.1c1.2-0.5,2.4-0.7,3.7-0.6h0.3
	c-0.1,0.5-0.4,0.9-0.8,1.1l-0.5,0.5l0,0H29l0,0c-0.2,0.1-0.4,0.2-0.5,0.4c-0.2,0.3-0.3,0.4-0.5,0.4h0v0.1c-0.3,0.4-0.8,0.8-1.3,0.9
	c-0.1,0-0.3,0.1-0.4,0.2c-0.5,0.4-1,0.7-1.5,0.9c-0.4,0.2-0.8,0.4-1.2,0.6c-0.1,0.1-0.2,0.2-0.1,0.3c0,0.2,0.2,0.3,0.3,0.4
	c0.1,0.1,0.2,0.1,0.3,0.2v0.1h0.1c1-0.2,1.9-0.5,2.8-0.9c2.3-0.9,4.4-2.3,6.2-4.1l0,0l0,0c0.1-0.3,0.2-0.5,0.4-0.7
	c0.2-0.2,0.4-0.4,0.4-0.7l0,0l0,0c-0.2-0.4-0.5-0.7-0.9-0.9c-0.4-0.2-0.6-0.5-0.8-0.9l0,0l0,0c-0.7-0.5-1.6-0.6-2.4-0.3
	c-0.3,0.1-0.6,0.1-0.9,0.1h-0.1c-0.7,0.2-1.4,0.4-2.2,0.5c-1.1,0.1-2.1,0.5-3.1,1c-1.8,0.5-3.6,1.2-5.2,2.2h-0.1
	c-0.9,0.2-1.7,0.7-2.3,1.5c-3.2,1.6-6,3.7-8.3,6.3l-0.4,0.4c-0.4,0.3-0.7,0.7-0.7,1.2c0,0,0,0,0,0.1c-0.6,0.3-0.8,1.1-0.9,1.8
	l-0.2,0.8c-0.2,0.3-0.3,0.6-0.3,0.9c0,0.5,0.1,0.9,0.2,1.3c0.1,0.5,0.2,1,0.2,1.5v0.1l0,0c2,2.5,3.6,3.6,4.8,3.1
	c0.8,0.4,1.9,0.4,2.7-0.1c1,0,1.9-0.2,2.8-0.7c0.8-0.5,1.8-0.7,2.7-0.5l0,0l0,0c0.7-0.4,1.5-0.6,2.3-0.8c1-0.2,1.9-0.6,2.7-1.1
	c0.6-0.1,1.1-0.3,1.6-0.6c0.4-0.2,0.7-0.4,1.1-0.5l0.2-0.1c0.4-0.2,0.7-0.3,0.8-0.7c0.1,0,0.2-0.1,0.3-0.1c0.3,0,0.6-0.1,0.7-0.5
	c0.5,0,0.9-0.2,1.2-0.5c0.2-0.2,0.4-0.3,0.6-0.4c0.5-0.3,1-0.5,1.5-0.6c1.2-0.2,2.3-1,2.8-2.1 M147.7,128c-0.3,0.1-0.7,0.2-1,0.3
	c0-0.1,0-0.1-0.1-0.2c-0.1-0.1-0.3,0-0.5,0.1l0,0c-0.1,0-0.3,0-1,0.1H145c-0.6,0.2-1.3,0.3-2,0.2l0,0c0-0.2,0-0.5-0.1-0.7
	c0-0.2-0.1-0.4-0.1-0.7c0-0.1,0-0.3,0.1-0.4l0,0l0,0c0-0.3,0.1-0.6,0.2-0.8c0.2-0.4,0.4-0.8,0.4-1.2c0-0.1,0-0.2,0-0.2
	c0,0-0.1-0.1-0.1-0.1l0.2-0.1c0.3,0,0.4-0.5,0.5-1.2l0.1-0.5l0.2-0.5c0.1-0.1,0.1-0.2,0.1-0.3l0.1-0.1c0.5-0.7,0.9-1.4,1.1-2.3
	l0.1-0.5c0-0.2,0.1-0.5,0.2-0.5l0,0l0.1,0.1l0.1-0.1l0.3-0.4c0.3-0.3,0.5-0.6,0.5-1l0.4-0.5c0.5-0.6,0.8-1.3,1.1-2l0,0
	c0-0.1,0-0.1,0-0.2c0-0.2,0.1-0.5,0.3-0.7c0.2-0.2,0.3-0.5,0.3-0.8c0,0,0.1,0,0.1,0c0.2-0.1,0.3-0.5,0.3-1c0.1-0.5,0.1-0.9,0.3-0.9
	l-0.1-0.3l0,0c-0.1-0.1-0.2-0.2-0.3-0.3c-0.2-0.3-0.4-0.5-0.7-0.6l-0.3,0.1l0,0c0,0,0,0.1,0,0.1c0,0-0.2,0-0.3,0
	c-0.1,0-0.4-0.1-0.6,0c-0.1,0.1-0.1,0.2-0.1,0.3c-0.5,0.1-1,0.3-1.4,0.7c-0.2,0.2-0.5,0.4-0.7,0.6c-0.2,0.1-0.4,0.3-0.5,0.5
	c-0.3,0.3-0.5,0.5-0.7,0.4h-0.1H144c-0.5,0.4-1,0.8-1.6,1.1c-0.8,0.4-1.5,1-2.1,1.7c-0.7,0.3-1.3,0.8-1.8,1.3l-0.8,0.7
	c-0.5,0.1-1,0.4-1.3,0.8c-0.6,0.5-1.1,1-1.8,0.6c-0.4-0.3-0.6-0.8-0.5-1.3c0-0.1,0-0.3,0-0.4c0-0.1,0-0.3,0-0.4s0-0.3,0-0.5
	c0.2-0.1,0.3-0.5,0.3-0.8c0-0.3,0-0.6,0.2-0.6h0.1v-0.2c0.1-0.5,0.2-1.1,0.2-1.7c0-0.2,0-0.5-0.1-0.7l0.3-0.8v-0.1
	c-0.2-1-0.4-2-0.4-3c0-0.1,0-0.3,0-0.4v-0.1v-0.1c-0.4-0.6-0.8-0.7-1.1-0.6c-0.9,0.2-1.9,1.8-2,2.7c-0.3,0.5-0.7,1-1.3,1.3
	c-0.5,0.3-0.9,0.7-1.2,1.2c-1.1,0.8-2,1.9-2.7,3c-0.7,1.1-1.5,2-2.5,2.9c-0.9,0.4-1.5,1.1-1.8,2c-0.3,0.9-0.9,1.6-1.8,2
	c-0.5,0.2-0.8,0.7-1,1.1c-0.3,0.6-0.5,0.9-0.9,0.8h-0.1l0,0c-0.5,0.5-0.9,1.1-1.3,1.7c-0.4,0.6-0.8,1.2-1.2,1.7
	c-0.3,0.1-0.5,0.2-0.6,0.3c0,0.1,0,0.1,0,0.2c0,0.1,0,0.1,0,0.2c0,0.1,0,0.1,0,0.2c0,0.1-0.1,0.2-0.2,0.3c-0.4-0.1-0.7,0.3-1,0.7
	c-0.2,0.4-0.5,0.7-0.9,1l-0.1,0.1v0.1c0.2,0.5,0.5,0.9,0.9,1.2c0.8,0.5,1.3-0.1,1.9-0.6l0.2-0.2c0.4-0.3,0.7-0.7,0.9-1.2
	c0.1-0.4,0.4-0.7,0.7-0.9l0,0c0.7-1,1.2-1.5,1.3-1.5h0.1v-0.1c0.1-0.3,0.3-0.6,0.6-0.8c0.2-0.1,0.4-0.3,0.6-0.5l0,0
	c0.2-0.5,0.5-1,1-1.2h0.1l0,0c0.1-0.3,0.2-0.5,0.5-0.6c0.4-0.2,0.7-0.6,0.8-1c0.4-0.1,0.7-0.4,0.9-0.8c0.1-0.2,0.3-0.4,0.5-0.5
	c0.3-0.1,0.6-0.4,0.6-0.8c0-0.3,0.2-0.6,0.5-0.6c0.3-0.1,0.6-0.4,0.7-0.7c0.1-0.2,0.3-0.4,0.5-0.5l0,0l0.3-0.4
	c0.1-0.1,0.3-0.3,0.3-0.5c0.4-0.2,0.7-0.5,0.8-0.8c0.2-0.4,0.3-0.5,0.5-0.4h0.1l0,0c0.5-0.3,0.9-0.8,1.1-1.3c0.3-0.5,0.5-0.9,1-0.9
	h0.1l0.4-0.7c0.3-0.6,0.6-1.1,1-1.7c-0.1,0.7-0.1,1.4-0.1,2.1c0,0.5,0,1,0,1.4l0,0l0,0c0,0.1,0.1,0.2,0.1,0.2c0,0.2-0.1,0.4-0.2,0.6
	c-0.1,0.2-0.2,0.5-0.2,0.8c0,0.1,0,0.2,0,0.3l0,0l0,0c0.2,1.4,0.7,2.7,1.5,3.9l0,0l0,0c0.6,0,2.1-0.2,2.5-1.2l0.4,0.2l0.1-0.1
	c0.2-0.4,0.6-0.6,1-0.6c0.3,0,0.6-0.1,0.9-0.3l0,0l0,0c0.1-0.3,0.4-0.6,0.8-0.6c0.3,0,0.6-0.2,0.8-0.4l0.5-0.7
	c0.4-0.7,0.7-1.1,1.2-1h0.1v-0.1c1.1-1.3,2.4-2.4,4-3.1l0.5-0.2c-0.6,1.1-1.2,2.1-1.8,3.2c-0.6,0.9-1.2,1.9-1.7,2.9
	c-0.1,0.3-0.2,0.6-0.4,0.9c-0.1,0.2-0.2,0.4-0.3,0.7c0,0,0,0.1,0,0.1l0.1,0.1c0,0.1,0,0.1,0,0.2c0,0.1,0,0.1,0,0.2l0,0
	c-0.1,0-0.2,0-0.3,0c-0.2,0.2-0.2,0.5-0.2,0.7v0.3l-0.2,0.3c-0.2,0.3-0.3,0.6-0.4,0.9c0,0.1,0,0.2,0.1,0.3c0,0.1,0.1,0.3,0.1,0.4
	c0,0,0,0.1,0,0.1c-0.1,0-0.2,0-0.2,0.1c-0.3,0.5-0.4,1.1-0.3,1.7c0,0.2,0,0.3,0,0.5l-0.1,1.7l0,0c0,1.1,1.3,1.7,1.9,1.8l0,0l0,0l0,0
	c0.9,0.2,1.8,0.1,2.7-0.3l0,0c0.2-0.1,1.5-1,3.1-1.9c0.1-0.1,0.1-0.2,0.1-0.2c0,0-0.2-0.1-0.8,0.1 M218.7,125.2
	c-0.8,0-1.4,0.7-1.4,1.4c0,0.8,0.7,1.4,1.4,1.4c0.8,0,1.4-0.6,1.4-1.4C220.2,125.8,219.5,125.2,218.7,125.2
	C218.7,125.2,218.7,125.2,218.7,125.2 M218.7,127.9c-0.7,0-1.2-0.5-1.2-1.2c0-0.7,0.5-1.2,1.2-1.2c0.7,0,1.2,0.5,1.2,1.2
	c0,0,0,0,0,0C219.9,127.3,219.4,127.8,218.7,127.9C218.8,127.9,218.7,127.9,218.7,127.9 M219.4,126.3c0-0.3-0.2-0.5-0.6-0.5h-0.6
	v1.5h0.3v-0.7h0.3l0.4,0.7h0.3l-0.5-0.7c0.2,0,0.4-0.2,0.4-0.4c0,0,0,0,0,0 M218.4,126.4v-0.5h1.2c0.2,0,0.4,0,0.4,0.2
	c0,0.2-0.2,0.3-0.4,0.3h-0.3L218.4,126.4z"/>
</svg>
