<?xml version="1.0" encoding="utf-8"?>
<!-- Generator: Adobe Illustrator 21.1.0, SVG Export Plug-In . SVG Version: 6.00 Build 0)  -->
<svg version="1.1" id="Layer_1" xmlns="http://www.w3.org/2000/svg" xmlns:xlink="http://www.w3.org/1999/xlink" x="0px" y="0px"
	 viewBox="0 0 250 250" style="enable-background:new 0 0 250 250;" xml:space="preserve">
<style type="text/css">
	.st0{fill:#FFFFFF;}
	.st1{fill:#EE3124;}
</style>
<title>Grocery</title>
<path class="st0" d="M166.6,142.3l1.3,1.2H199c1.2-0.4,2.4-0.8,3.5-1.3c0,0-1.2,1.4,0.2,1.3h17.3c0.7,0-0.1-0.9-0.2-1.3
	c-1-2.9-0.9-6.1,0.3-8.9l6.5-13.4h9.4c2.2-5,4.8-10.2,7.2-15.4h-10c0,0-0.3,0.6,4.2-8.3H221c-1.3,2.8-2.7,5.5-4,8.3h-8.6
	c-4.7,10.8-3,7.3-4.5,10.4c-2.8-0.1-5.5,0.8-7.7,2.5c-0.3-0.5-0.9-1.5-1.1-1.9l-4.2,2.1c0,0,7.1-15,9.7-21h-15.8
	c-3.5,6.8-6.1,13.7-9.6,20.4c-0.8-1-1.5-2-2.1-3.1l-2.3,0.1c1-3.2,1.6-9.8-4.7-9.3c-8.7,0.5-10.3,5.6-12.2,11.1
	c-3.2,0.3-6.7-0.2-9.8,0.5c-2.5-0.9-5.2-0.7-7.6,0.6l9.3-20.2h-19.2c-3,3.9-3.7,4.9-5.7,7.8c0.6-2.6,1.1-5.2,1.4-7.9h-16.5
	c-3.5,6.1-6.1,12.7-9.3,18.9H79.4l4.1-10.4h-7.4l3.3-8.4H63.5c-0.8,2.6-4.8,10.8-4.8,10.8H48.3c3-6.6-6.4-17.8-24.1-8
	c-5.8,3.2-22.3,15.2-17.6,35.5c2.7,11.5,13.8,15.6,28.5,7.3c1.8,3.1,7.7,3.2,11.1,1.1l0.6,0.6h19.5l-5.5,12.4l16.9,0.1l5.9-12.4
	h39.1c0.6-1.4,1.3-2.8,2.2-4.1c0.9,1.7,2.3,3.1,4.1,4c2.7,0.6,5.5,0.9,8-0.7c4,2.8,10.5,2,14.1-0.4c1.7-1.3,3.3-2.9,4.9-4.4
	c0.3,1.5,0,2.7,1.6,4c2.1,1.7,5.9,1.9,9.1,0.4L166.6,142.3z"/>
<path d="M78.3,157l-18.9-0.1l5.5-12.4H46.4l-0.4-0.3c-2.4,1.2-5.1,1.5-7.8,0.9c-1.3-0.3-2.5-0.9-3.5-1.9c-7.8,4.3-15,5.2-20.6,2.8
	c-4.4-1.9-7.3-5.8-8.6-11.1c-2.2-8.7-0.3-17.8,5-25c3.5-4.7,8-8.7,13.1-11.6c13.5-7.5,20.9-2.3,22.8-0.6c2.4,2.1,3.6,5.3,3,8.4h8.5
	c0.9-1.9,3.8-8,4.5-10.2l0.2-0.7h17.9l-3.3,8.4h7.5l-4.1,10.4H96c1.2-2.4,2.3-4.8,3.4-7.1c1.7-3.7,3.5-7.6,5.6-11.3l0.3-0.5h18.1
	l-0.1,1c-0.1,1.2-0.3,2.4-0.5,3.5c0.8-1.1,1.7-2.3,3.1-4.1l0.3-0.4h21.2l-9,19.5c1.9-0.5,3.9-0.5,5.8,0.2c1.8-0.3,3.7-0.4,5.6-0.3
	c1.1,0,2.3,0,3.4,0c1.8-5.3,3.7-10.7,12.8-11.2c1.9-0.3,3.8,0.4,5,1.9c1.5,1.9,1.5,4.9,1,7.5l1.7-0.1l0.2,0.6
	c0.3,0.6,0.6,1.2,1.1,1.7c1.5-2.9,2.8-5.9,4.1-8.8c1.5-3.4,3.1-6.9,4.9-10.3l0.3-0.5h17.8l-0.5,1.3c-1.9,4.5-6.4,14.1-8.5,18.7
	l2.6-1.3l0.4,0.9c0.1,0.2,0.3,0.6,0.5,1c2-1.3,4.4-2,6.8-2.1c0.3-0.5,0.5-1.1,0.7-1.6c0.3-0.8,1-2.5,3.5-8.2l0.3-0.6h8.6
	c1-2.3,2.2-4.5,3.2-6.7l0.8-1.5h18.7l-0.7,1.3l-3.5,6.9h9.9l-0.6,1.3c-1,2.1-2,4.3-3,6.3c-1.5,3.1-2.9,6.1-4.2,9.1l-0.2,0.6h-9.5
	l-6.3,12.8c-1.1,2.6-1.2,5.6-0.3,8.3l0.1,0.2c0.4,0.5,0.5,1.1,0.3,1.7c-0.2,0.4-0.6,0.6-1,0.6h-17.3c-0.6,0.1-1.2-0.2-1.5-0.7
	c-0.6,0.3-1.3,0.5-2,0.7h-0.1h-31.7l-1.1-0.9c-3.4,1.3-7.2,1.1-9.5-0.8c-0.9-0.7-1.5-1.7-1.7-2.8l-0.1,0.1c-1.1,1.1-2.3,2.1-3.5,3.1
	l0,0c-3.7,2.5-10.2,3.4-14.7,0.7c-2.6,1.2-5.5,1.4-8.2,0.5h-0.2c-1.4-0.7-2.7-1.7-3.7-3c-0.5,0.9-0.9,1.7-1.3,2.7l-0.3,0.6H84.2
	L78.3,157z M62.3,155l14.9,0.1l5.9-12.4h39.1c0.4-1,0.9-1.9,1.5-2.8l0.5-0.8l0.9-1.5l0.8,1.5c0.8,1.5,2.1,2.7,3.5,3.5
	c2.4,0.8,5,0.6,7.2-0.6l0.5-0.3l0.5,0.4c3.6,2.5,9.6,1.8,13-0.4c1.1-0.9,2.2-1.9,3.4-3l1.5-1.3l1.3-1.2l0.3,1.7c0,0.3,0.1,0.7,0.1,1
	c-0.1,0.9,0.4,1.8,1.1,2.4c1.8,1.5,5.3,1.6,8.1,0.3l0.6-0.3l1.5,1.3H199c0.8-0.2,1.6-0.5,2.3-0.9c0.3-0.2,0.7-0.3,1-0.4l3.2-1.1
	l-2,2.4h15.6v-0.1c-1.1-3.1-0.9-6.6,0.4-9.6l6.7-14h9.4c1.2-2.8,2.6-5.6,4-8.6c0.8-1.6,1.6-3.3,2.3-5h-8.3c-0.2,0-0.4,0-0.6-0.1
	l-0.8-0.4l0.6-1.3l0,0c0.4-0.7,1.2-2.3,3.3-6.4h-14.5l-0.2,0.5c-1.2,2.3-2.4,4.8-3.5,7.2l-0.3,0.6H209c-2.3,5.2-2.9,6.8-3.3,7.6
	c-0.3,0.8-0.7,1.5-1.1,2.3l-0.3,0.6h-0.6c-2.6-0.1-5.1,0.7-7.1,2.3l-0.8,0.6l-0.5-0.9c-0.2-0.3-0.5-0.8-0.7-1.2l-5.7,2.7l1.2-2.5
	c0-0.1,6.2-13.1,9.1-19.7h-13.8c-1.6,3.2-3.1,6.5-4.5,9.7s-3.1,6.9-4.8,10.3l-0.8,1.5l-0.9-1.4c-0.2-0.3-0.5-0.7-0.8-1.1
	c-0.4-0.5-0.8-1-1.1-1.6l-3,0.1l0.4-1.3c0.7-2.2,1-5.3-0.3-7c-0.9-0.9-2.2-1.4-3.4-1.2c-7.9,0.5-9.3,4.7-11.2,10.1l-0.3,0.9H154
	c-1.4,0.1-2.8,0.2-4.2,0.1c-1.8-0.1-3.7,0-5.5,0.3H144l-0.3-0.1c-2.2-0.8-4.7-0.6-6.7,0.5l-2.5,1.3l9.9-21.4h-17.3
	c-2.7,3.5-3.5,4.6-5.3,7.4l-1.7-0.7c0.4-1.9,0.9-4.3,1.3-6.7h-14.9c-1.9,3.5-3.7,7.1-5.3,10.7c-1.2,2.5-2.4,5.2-3.7,7.7l-0.3,0.5H78
	l4.1-10.4h-7.4l3.3-8.4H64.2c-1.2,3.1-4.5,10-4.6,10.3l-0.3,0.5H46.8l0.6-1.3c1-2.8,0.1-5.8-2.2-7.7c-1.7-1.6-8.2-6.1-20.6,0.8
	c-3.7,2.1-22,13.4-17.1,34.5c1.1,4.8,3.7,8.2,7.5,9.8c5.1,2.3,12.1,1.1,19.6-3.1l0.8-0.5l0.5,0.8c0.7,0.9,1.7,1.6,2.8,1.8
	c2.4,0.5,4.8,0.1,6.9-1.1l0.6-0.4l0.9,0.8h20.5L62.3,155z"/>
<path d="M226.7,137.1c1.6,0,3-1.3,3-2.9c0-1.6-1.3-3-2.9-3c-1.6,0-3,1.3-3,2.9c0,0,0,0,0,0c0,1.6,1.2,2.9,2.8,3
	C226.6,137.1,226.6,137.1,226.7,137.1L226.7,137.1z M226.7,136.7c-1.4,0.1-2.7-0.9-2.8-2.3c-0.1-1.4,0.9-2.7,2.3-2.8
	c1.4-0.1,2.7,0.9,2.8,2.3c0,0.1,0,0.2,0,0.3C229,135.5,228,136.6,226.7,136.7C226.7,136.7,226.7,136.7,226.7,136.7z M225.3,132.7
	c0.4,0,0.4,0,0.4,0.4v2.1c0,0.3,0,0.3-0.4,0.4v0.1h1.4v-0.1c-0.4,0-0.4,0-0.4-0.4v-0.9h0.3c0.4,0.7,0.7,1.4,0.9,1.4h0.7v-0.1
	c-0.2-0.2-0.4-0.5-0.6-0.7l-0.5-0.7c0.4-0.1,0.7-0.5,0.7-0.9c0-0.6-0.5-0.8-1-0.8h-1.6V132.7L225.3,132.7z M226.3,132.7h0.3
	c0.3,0,0.5,0.2,0.5,0.7s-0.1,0.7-0.5,0.7h-0.2L226.3,132.7L226.3,132.7z"/>
<path class="st1" d="M138,139.7c0,0-6.2,4-10.1-1.1c-5.5-7.3,5.6-17.8,11.7-19.6c4.9-1.3,5.2-0.7,6.7,1.9l1.1-1.9h7.2
	c0,0-3.8,9.1-7.3,16.8c3.9-2.4,8.4-13.2,8.9-17.8c0.6-4.6,1.3-8.5,5.6-10.2c2.3-0.9,4.2-1.5,6.2-0.2c3.3,2.2-2.8,9.9-2.8,9.9
	c2-0.2,4.1-1.7,5.9-0.2c1.3,1.1,2.2,2.5,1.5,4c-2.1,4.8-7.1,9.7-5.2,10.8c4.4,2.7,20-33,20-33c8.9,0,0-0.1,8.6,0l-11,24.1
	c3.4-1.2,6.4-2.7,9.1-3.8c1.6,3,1.3,2.7,1.6,2.5c3.3-2.7,7.7-4.6,11.7-3.7c2.6,0.5,3.2,3.1,3.6,5.7c0.9,5.7-11.6,9-11.8,8.8
	c-0.3,1,4.3,5.3,8.1,1.9c0.9-0.8,1.3-1.5,8.7-18.3c-8.7,0,0.4,0-8.4,0l3.6-8.6l8.9,0.3c4.2-8.8-0.4,0.8,4-8.7h8.2
	c0,0,0.2-0.4-4.1,8.8h9.3c-1.4,2.9-2.1,5.5-3.5,8.2h-9.3c-7.6,16.7-6.4,15.6-9.5,22.2c-0.2,0.5,0.5,1.3,0.5,1.3h-9.7
	c-0.3-0.5-0.9-0.8-0.4-1.7c-4.5,2.7-5.7,3.4-9,2.8c-2.6-0.9-4.7-2.9-5.6-5.5c-0.8-2.3-0.8-4.8,0.1-7.1l-4.2,1.8
	c1.1,3.6,3,6.9,5.5,9.8h-7.8c-2.4-1.7-3.2-4.6-4.5-7.1c-1,1.6-2.6,3.7-1.6,5.9c0.1,0.3,0.5,0.6,0.4,1.1h-8.8c-0.7-1.1-0.4-2.8-0.5-4
	c-3.1,4.5-6,5.3-9.9,3.9c-5.8-2.1,1.4-12.6,3.6-15.4c-1.1,0-2.3,0-3.4,0.1c-2.9,5.2-4.7,10.7-9.8,14.4c-3.5,2.5-9.5,4-12.9,1
	L138,139.7L138,139.7z"/>
<path class="st1" d="M42.3,113.9h-6.7c0.1-1.5,5.8-8.2,2.8-7.7c-5.3,0.9-14.7,15.3-14.7,23.4c0,5.1,5.4,5.2,6.3,4.7
	c3-0.6,7.1-3.4,7.5-4.4c6.3-13.4,5.4-11.2,5.4-11.2h8.4c0,0-6,11.9-7.2,15.8c-0.2,0.7,0.8,1,1.1,1.2c1.3,0.3,2.2-0.4,3.3-1.2
	c3.1-5.6,5.7-11.7,8.5-17.4h-3.2l3.2-7.9c4.8,0-0.3,0,4.1,0l4.8-9.8h8.4c-3.6,9-0.6,0.6-4.2,9.8c7.7,0,0.7,0,8.2,0
	c-3.6,8.2,0.4-0.7-3.1,7.6c-8.4,0-5.7,0-8.3,0.1l-9.6,20.6c-0.2,1.1,0.1,2.3,0.8,3.2l-9.3,0.1c-0.6-0.6-0.5-1.5-0.7-2.2
	c-2.7,2.4-8.3,4.8-10.7,1.3c-0.6-1.1-0.9-2.3-0.9-3.6c-2.8,3.4-6.8,5.6-11.2,6.3c-6.5,0.6-12.8-0.8-14.9-7.5
	c-3.5-11.2,1.3-23.1,11.6-30.7c5.8-4.2,10.3-6.5,17.3-5.9C50.5,99.6,42.2,113.9,42.3,113.9L42.3,113.9z"/>
<path class="st1" d="M114.1,120.7c3.4-4.4,15.2-21.1,15.2-21.1h11.3l-5.8,12.9L121.6,140h-9.3c3.1-7-0.1,0.2,3-6.9
	c0,0-3.7,4.7-5.6,6.9h-8c0-2.7,0.7-5.7,0.8-8.5c-1.7,2.7-3,5.7-4.7,8.5h-9l19.4-40.6h10.4C118.6,99.5,115.4,114.1,114.1,120.7
	L114.1,120.7z"/>
<path class="st1" d="M54.4,109.4c-3.4,8.4,0.7-1.2-3,7.5h-8l3.1-7.7L54.4,109.4L54.4,109.4z"/>
<path class="st1" d="M78.2,118.2l-5.9,13.2c0,0.6,0,1.2,0.6,1.4c1.6,0.4,2.1-1,2.8-2l5.9-12.5h10.3l-16.2,34.1l-0.3,0.2h-9.6
	c-0.7-0.7,0.2-1.3,0.3-2c1.8-3.6,3.5-7.2,5-10.9c-0.9,0.8-3.8,2.7-8.2,0.6c-2.2-1.4-1.9-6.2-1.3-8l6.7-14.1L78.2,118.2L78.2,118.2z"
	/>
<path class="st0" d="M135.6,133c0.2-3.4,4.5-7.6,7.5-9.1c1.1-0.6,1.7-0.4,1.5,0.6c-0.1,0.5-0.3,1-0.5,1.5c-0.3,0.6-0.6,1.3-0.9,2
	l-1.9,3.5c0,0.2-0.1,0.3-0.2,0.5c-0.1,0.2-0.3,0.6-0.7,1.3C138.1,137.8,135.5,135.7,135.6,133L135.6,133z"/>
<path class="st0" d="M200,127.2c-0.5-0.7,0.1-3.5,2.2-4.6c0.4-0.2,0.9-0.3,1.3-0.4c0.7-0.1,1.3,0.3,1.5,1
	C206.1,125.4,201.2,127.8,200,127.2L200,127.2z"/>
</svg>
