<svg id="Layer_1" data-name="Layer 1" xmlns="http://www.w3.org/2000/svg" width="250" height="250" viewBox="0 0 250 250"><defs><style>.cls-1{fill:#f9e8a0;}.cls-2{fill:red;}.cls-3{fill:#414042;}</style></defs><title>iShop</title><polygon class="cls-1" points="51.44 173.81 51.44 85.96 40.29 85.96 40.29 74.8 48.66 74.8 52.14 64.34 197.16 64.34 199.95 73.41 209.01 73.41 209.01 85.26 197.16 85.26 197.16 104.78 209.01 122.91 209.01 129.88 202.04 134.06 197.16 131.97 197.16 175.2 51.44 173.81"/><rect class="cls-2" x="50.75" y="123.61" width="43.92" height="5.58"/><rect class="cls-2" x="40.99" y="175.9" width="167.33" height="11.85"/><rect class="cls-2" x="40.99" y="74.1" width="167.33" height="11.85"/><polygon class="cls-2" points="110.01 131.28 100.95 134.06 96.07 131.28 96.07 123.61 109.31 102.69 195.07 102.69 208.32 122.91 208.32 129.88 202.04 133.37 195.77 129.88 184.61 134.76 177.64 130.58 169.27 133.37 160.91 130.58 151.15 134.06 144.87 131.28 135.11 134.06 127.44 130.58 118.38 134.06 110.01 131.28"/><path class="cls-3" d="M37.5,189.14v-16H48.66V88H37.5V72h9.06l2.79-11.16h149.9L202,72h9.06V88H200v16.73h0v.7l11.85,16V132l-8.37,4.18-2.09-1.39h0v38.35H212.5v16Zm168.73-4.88V178H42.38v6.27Zm-11.85-11.16V133.37l-9.06,2.79V164H121.17V134.76l-3.49,1.39-5.58-2.09v39Zm-87.15,0v-39l-7,2.09-2.09-1.39h0v38.35Zm-13.94,0V133.37H67.48v39.74Zm-30.68,0V133.37H53.54v39.74Zm117.83-13.94v-24.4l-2.79-.7-9.06,2.79-7.67-2.79-9.06,2.79-7.67-2.79-9.06,2.09-8.37-2.79v25.8Zm-11.85-28.59,6.27-2.09V125.7l-7.67-20.22h-7L163,125v3.49Zm-16.73,0,6.27-2.09V125l-2.79-20.22h-7L145.57,125v3.49Zm33.47,0,6.27-2.09V125.7l-10.46-20.92h-9.06l7,19.52v4.18Zm-50.2,0,6.27-2.09V125l2.79-19.52h-7l-7.67,20.22v3.49Zm-16.73,0,6.27-2.09V124.3l7-19.52h-9.06L112.1,125v3.49Zm83.67,0,3.49-1.39v-5.58L193,105.48l-5.58-.7h-.7l9.76,19.52v4.18Zm-100.4,0,6.27-1.39V124.3l9.76-19.52H111.4L98.85,125.7v3.49Zm-8.37-2.09V125H53.54v3.49Zm2.79-8.37,9.76-14.64H53.54v14.64ZM194.37,99.9V88H53.54V99.9Zm11.16-16.73V76.89H42.38v6.27ZM196.46,72l-1.39-6.27H52.84L51.44,72Z"/></svg>