<?xml version="1.0" encoding="utf-8"?>
<!-- Generator: Adobe Illustrator 21.1.0, SVG Export Plug-In . SVG Version: 6.00 Build 0)  -->
<svg version="1.1" id="Layer_1" xmlns="http://www.w3.org/2000/svg" xmlns:xlink="http://www.w3.org/1999/xlink" x="0px" y="0px"
	 viewBox="0 0 250 250" style="enable-background:new 0 0 250 250;" xml:space="preserve">
<style type="text/css">
	.st0{fill:#231F20;}
	.st1{fill:#FCE32C;}
	.st2{fill:#209E5C;}
	.st3{fill:#FFFFFF;}
	.st4{fill:#DA283D;}
</style>
<title>Grocery</title>
<path class="st0" d="M154.9,93.4h48.9c1.7,0,3,1.3,3,3v20.2c0,1.6-1.3,3-3,3l0,0h-48.9c-1.6,0-3-1.3-3-3l0,0V96.4
	C151.9,94.7,153.3,93.4,154.9,93.4C154.9,93.4,154.9,93.4,154.9,93.4z"/>
<path class="st0" d="M42.5,93.4h48.9c1.6,0,3,1.3,3,3v20.2c0,1.7-1.3,3-3,3H42.5c-1.7,0-3-1.3-3-3V96.4
	C39.5,94.7,40.8,93.4,42.5,93.4C42.5,93.4,42.5,93.4,42.5,93.4z"/>
<path class="st1" d="M203.1,100.5c-0.1-2.7-6.1-4.9-31.1-4.4h-1.7H169c-13.8,0.5-15.3,3.7-15.3,5.3c0,1.7,0.6,2.4,3.3,3.2
	c0.1,5,0.6,13.5,0.6,13.5l22.1,0.1h2.5l18.2,0.1l-0.7-14.1v-0.4C199.7,103.9,203.2,103.2,203.1,100.5z"/>
<path class="st0" d="M98.7,93.4h48.9c1.6,0,3,1.3,3,3v20.2c0,1.6-1.3,3-3,3H98.7c-1.6,0-3-1.3-3-3V96.4
	C95.7,94.7,97.1,93.4,98.7,93.4z"/>
<path class="st0" d="M35.4,142.3c-2.8-0.4-5.7-0.6-8.5-0.6c-4.5,0-7.2,0.9-7.2,4.3c0,3.4,3,4,7.1,4c2.9-0.1,5.7-0.3,8.6-0.8v7.2
	c-3.9,0.8-8,1.3-12,1.3c-12.3,0-17.1-4.1-17.1-12.8c0-7.8,4.5-12.2,16.8-12.2c4.1,0.1,8.2,0.7,12.2,1.6L35.4,142.3z"/>
<path class="st0" d="M52.5,132.9c12.3,0,17.2,2.9,17.2,11.7s-4.5,13.3-17.2,13.3s-17.2-4.5-17.2-13.3S40.2,132.9,52.5,132.9z
	 M57.6,145.9c0-2.9-0.7-4.9-5.1-4.9s-5.1,2-5.1,4.9c0,3.5,1.7,5.1,5.1,5.1S57.6,149.4,57.6,145.9L57.6,145.9z"/>
<path class="st0" d="M69.9,133.5h24.2c5.3,0,9.1,1,9.1,6c0,3.9-3.2,5.3-8.8,5.8v0.1c5.9,0,9.1,1.3,9.1,5.7c0,5-4.3,6.2-12.5,6.2
	H69.9V133.5z M81.9,143.3h6.4c1.9,0,3.2-0.8,3.2-1.9c0-1.3-1.2-1.9-3.3-1.9H82L81.9,143.3z M81.9,151.8h5.7c2.9,0,4.1-0.4,4.1-1.9
	c0-1.2-0.8-1.9-3.4-1.9H82L81.9,151.8z"/>
<path class="st0" d="M120.3,132.9c12.3,0,17.2,2.9,17.2,11.7s-4.5,13.3-17.2,13.3s-17.2-4.5-17.2-13.3S107.9,132.9,120.3,132.9z
	 M125.4,145.9c0-2.9-0.7-4.9-5.1-4.9s-5.1,2-5.1,4.9c0,3.5,1.7,5.1,5.1,5.1C123.7,151,125.4,149.4,125.4,145.9L125.4,145.9z"/>
<path class="st0" d="M137.7,133.5h21.9c6.5,0,11.9,1,11.9,6.9c0,4.5-2.9,6.7-9.3,6.8l10.6,10.1h-14.7l-7.6-8.3h-0.1v8.3h-12.7
	L137.7,133.5z M150.4,144.7h4c2.5,0,4.5-0.3,4.5-2.7c0-1.5-1-2.3-3.8-2.3h-4.6L150.4,144.7z"/>
<path class="st0" d="M171.7,133.5h14.4l7.4,13.2h0.1l-0.8-13.2h11.8v23.8h-13.2l-8.6-14.6h-0.1l0.8,14.6h-11.8V133.5z"/>
<path class="st0" d="M209,133.5h7.6l-3.8,10.2h-7.5L209,133.5z"/>
<path class="st0" d="M217.3,151.1c3.8,0.4,7.6,0.6,11.5,0.5c2.7,0,3.9-0.3,3.9-1.6c0-1.3-0.6-1.6-3.3-1.6h-2.9
	c-6,0-10.4-0.8-10.4-7.8c0-6.8,7.2-7.7,14.6-7.7c4.9,0,10.5,0.5,13.3,0.8v7.1c-3.1-0.2-6.5-0.5-10.7-0.5c-3.8,0-4.9,0.4-4.9,1.7
	c0,0.9,0.6,1.4,3.5,1.4c10,0,13.2,0.9,13.2,6.8c0,6.8-5.7,7.7-13.9,7.7c-4.6,0-9.3-0.3-13.9-0.7L217.3,151.1z"/>
<rect x="5" y="123.3" class="st0" width="238.7" height="7"/>
<path class="st2" d="M68.8,100.6c-2.8-1.9-6-2.9-9.3-2.9c-5.6,0-9.2,3.7-9.2,7.2s7.3,13.4,13.7,13.4c1.4,0,2.8-0.8,3.6-1.9
	c1.8,1.2,4,1.8,6.2,1.8c3.1,0,5.8-2.2,8.3-4.7s4.1-5,4.1-7.9c0-6.1-6.4-7.3-10.2-7.3c-2.2,0-4.3,0.7-6,2c0,0-1.9-4.1-4.5-5.3
	c-0.3,0.1-0.7,0.3-1,0.5C64.4,95.5,68.1,97.5,68.8,100.6z"/>
<path class="st3" d="M99.7,100.3l4-4.8c0,0,9.8,1.7,14.5,2.9c4.8,1.3,14,6.7,14,12.3c0.1,3.5-2.7,6.5-6.3,6.6c-1,0-8.2-0.1-11.2-0.1
	c-3,0-5.3,0.1-6.3,0.1c-1.7,0.1-3.2-1.2-3.3-2.9c0,0,0-0.1,0-0.1c0-2.4,2.7-6,2.7-8.8C108,102.8,102.3,100.8,99.7,100.3z"/>
<path class="st4" d="M102,99.9c1-1.2,2.1-2.2,3.2-3.2c12.9,3,20.1,4.9,20.1,7.8c0,0.7-1,1.1-1,1.5c0,0.4,6.4,1.1,6.4,5.1
	c0.1,2.5-1.8,4.7-4.3,4.8c-0.1,0-0.2,0-0.2,0c-1.5-0.2-2.9-1.2-3.5-2.6c-0.5-1.2-1.3-2.3-2.4-2.9c-0.9-0.3-1.8-0.3-2.7,0.1
	c-0.3,0.2-0.3,0.4,0.2,0.4c0.5,0,3.7,1.3,3.7,3.1c0,1.7-1.5,2.8-3.5,2.8s-2.5-0.7-2.9-1.2c-0.4-0.5-0.5-0.2-0.8,0
	c-0.9,0.6-1.9,0.9-3,0.8c-1.8,0-4-1.4-4-3.1c0.2-1.9,1.6-3.5,3.4-4c2.1-0.9,2.8-1.1,0.7-1.6c-2.1-0.5-2-1.7-1.5-2.1
	c0.5-0.5,0.3-1.9-0.9-2.8C106.7,101.4,104.4,100.5,102,99.9z"/>
<path class="st4" d="M130.3,117.4h13.1c2.2,0,4.2-3.6,4.2-7c0-3.4-2.7-9.3-13.5-14.8h-23.5c0,0,10.9,1.8,17,6.1
	S137.2,112.2,130.3,117.4z"/>
<circle class="st0" cx="80.3" cy="112.7" r="0.2"/>
<circle class="st0" cx="80.2" cy="111" r="0.2"/>
<circle class="st0" cx="82.4" cy="110.3" r="0.2"/>
<circle class="st0" cx="80.2" cy="109.3" r="0.2"/>
<circle class="st0" cx="81.2" cy="107.3" r="0.2"/>
<circle class="st0" cx="78.8" cy="106.9" r="0.2"/>
<circle class="st0" cx="83.1" cy="107.3" r="0.2"/>
<circle class="st0" cx="84.4" cy="106.6" r="0.2"/>
<circle class="st0" cx="82.6" cy="103.9" r="0.2"/>
<circle class="st0" cx="78.8" cy="102.3" r="0.2"/>
<circle class="st0" cx="81.7" cy="105.3" r="0.2"/>
<circle class="st0" cx="81.6" cy="102.9" r="0.2"/>
<circle class="st0" cx="80.1" cy="105.9" r="0.3"/>
<circle class="st0" cx="80.2" cy="104.5" r="0.2"/>
<circle class="st0" cx="82.1" cy="108.7" r="0.1"/>
<circle class="st0" cx="84" cy="105.2" r="0.1"/>
<circle class="st0" cx="81.6" cy="101.5" r="0.1"/>
<circle class="st0" cx="80.3" cy="100.2" r="0.1"/>
<circle class="st0" cx="79.8" cy="108.3" r="0.2"/>
<ellipse transform="matrix(0.8495 -0.5275 0.5275 0.8495 -37.8975 93.4456)" class="st0" cx="144.9" cy="113.2" rx="0.2" ry="0.2"/>
<ellipse transform="matrix(0.8501 -0.5267 0.5267 0.8501 -37.2404 92.4449)" class="st0" cx="143.8" cy="111.6" rx="0.2" ry="0.2"/>
<ellipse transform="matrix(0.8492 -0.528 0.528 0.8492 -36.3998 93.1523)" class="st0" cx="144.9" cy="110.3" rx="0.2" ry="0.2"/>
<ellipse transform="matrix(0.8517 -0.524 0.524 0.8517 -36.5006 91.1648)" class="st0" cx="142.8" cy="110.1" rx="0.2" ry="0.2"/>
<ellipse transform="matrix(0.8496 -0.5274 0.5274 0.8496 -35.3999 91.4063)" class="st0" cx="142.6" cy="107.8" rx="0.2" ry="0.2"/>
<ellipse transform="matrix(0.8531 -0.5218 0.5218 0.8531 -35.8792 89.0705)" class="st0" cx="140.2" cy="108.3" rx="0.2" ry="0.2"/>
<ellipse transform="matrix(0.8518 -0.5238 0.5238 0.8518 -34.9441 91.3358)" class="st0" cx="144" cy="107.4" rx="0.2" ry="0.2"/>
<ellipse transform="matrix(0.8518 -0.5238 0.5238 0.8518 -33.6053 91.6285)" class="st0" cx="145.2" cy="105.2" rx="0.2" ry="0.2"/>
<ellipse transform="matrix(0.8523 -0.5231 0.5231 0.8523 -33.6539 89.723)" class="st0" cx="142" cy="104.4" rx="0.2" ry="0.2"/>
<ellipse transform="matrix(0.8494 -0.5277 0.5277 0.8494 -34.101 88.3611)" class="st0" cx="137.8" cy="103.9" rx="0.2" ry="0.2"/>
<ellipse transform="matrix(0.8498 -0.5271 0.5271 0.8498 -34.5829 90.5262)" class="st0" cx="141.6" cy="105.9" rx="0.2" ry="0.2"/>
<ellipse transform="matrix(0.8484 -0.5293 0.5293 0.8484 -33.7568 89.8873)" class="st0" cx="140.1" cy="103.9" rx="0.2" ry="0.2"/>
<ellipse transform="matrix(0.8536 -0.521 0.521 0.8536 -35.1133 89.0299)" class="st0" cx="140.8" cy="107" rx="0.3" ry="0.3"/>
<ellipse transform="matrix(0.8511 -0.525 0.525 0.8511 -34.6323 89.3146)" class="st0" cx="140.1" cy="105.7" rx="0.2" ry="0.2"/>
<ellipse transform="matrix(0.8486 -0.5291 0.5291 0.8486 -35.8363 92.6963)" class="st0" cx="144" cy="109" rx="0.1" ry="0.1"/>
<ellipse transform="matrix(0.851 -0.5252 0.5252 0.851 -34.7608 90.9043)" class="st0" cx="142.8" cy="106.7" rx="0.1" ry="0.1"/>
<ellipse transform="matrix(0.8508 -0.5255 0.5255 0.8508 -33.8655 91.1244)" class="st0" cx="143.5" cy="105.2" rx="0.1" ry="0.1"/>
<ellipse transform="matrix(0.8483 -0.5295 0.5295 0.8483 -34.3895 92.8819)" class="st0" cx="144.9" cy="106.5" rx="0.1" ry="0.1"/>
<ellipse transform="matrix(0.8508 -0.5255 0.5255 0.8508 -32.8469 88.643)" class="st0" cx="139.7" cy="102.2" rx="0.1" ry="0.1"/>
<ellipse transform="matrix(0.8494 -0.5277 0.5277 0.8494 -32.9402 87.993)" class="st0" cx="137.7" cy="101.7" rx="0.1" ry="0.1"/>
<ellipse transform="matrix(0.8515 -0.5243 0.5243 0.8515 -35.1627 92.402)" class="st0" cx="145.6" cy="108.3" rx="0.1" ry="0.1"/>
<ellipse transform="matrix(0.8494 -0.5277 0.5277 0.8494 -31.6847 87.1389)" class="st0" cx="136.9" cy="99.1" rx="0.1" ry="0.1"/>
<ellipse transform="matrix(0.8504 -0.5261 0.5261 0.8504 -36.2911 90.6704)" class="st0" cx="141.3" cy="109.2" rx="0.2" ry="0.2"/>
<path class="st0" d="M203.5,100.5c0-2.1-2.7-4.9-24.8-4.9c-2.5,0-5.1,0-8,0.1h-0.5l0.1,0.3c2.2,0,4.3,0.1,6.5,0.3h1.9
	c19.7,0,24,2.3,24,4.1c0.1,2.3-3.2,3-3.2,3l-2.3,0.4h2.4v0.4l0,0C201,104,203.7,102.9,203.5,100.5z"/>
<path class="st0" d="M200.8,118.8l-0.9-15.3h-17.5l-0.6,0.4v0.4h17.3l0.8,13.7l-17.7,0l0,0v0.4h-2.5l2.5,0.4L200.8,118.8z"/>
<path class="st0" d="M182.6,118.6l-25.3-0.1v-0.4c0-0.1-0.4-8.2-0.6-13.2c-2.5-0.9-3.3-1.7-3.3-3.5c0-2.4,2.7-5.3,15.7-5.7
	c9.3-0.3,15.5,1.3,16.3,4.1c0.3,1-0.1,2.5-3.1,4.2L182.6,118.6z M158,117.8l23.9,0.1l-0.4-14.2l0.2-0.1c2.1-1.2,3.2-2.4,2.9-3.5
	c-0.5-1.8-4.8-3.6-13.4-3.6h-2.1c-13,0.4-15,3.3-15,4.9c0,1.5,0.4,2,3,2.9l0.3,0.1v0.3C157.5,109,157.9,116.1,158,117.8z"/>
<ellipse transform="matrix(0.8498 -0.5271 0.5271 0.8498 -34.906 104.8187)" class="st0" cx="166.5" cy="113.7" rx="0.2" ry="0.2"/>
<ellipse transform="matrix(0.8501 -0.5267 0.5267 0.8501 -34.2796 103.9101)" class="st0" cx="165.4" cy="112.2" rx="0.2" ry="0.2"/>
<ellipse transform="matrix(0.8507 -0.5256 0.5256 0.8507 -33.3825 104.3274)" class="st0" cx="167" cy="110.9" rx="0.2" ry="0.2"/>
<ellipse transform="matrix(0.8493 -0.5278 0.5278 0.8493 -33.5518 103.0309)" class="st0" cx="163.7" cy="110.3" rx="0.2" ry="0.2"/>
<ellipse transform="matrix(0.8533 -0.5215 0.5215 0.8533 -32.5019 101.7871)" class="st0" cx="164.6" cy="108.7" rx="0.2" ry="0.2"/>
<ellipse transform="matrix(0.8531 -0.5218 0.5218 0.8531 -32.8201 100.6389)" class="st0" cx="162.3" cy="108.6" rx="0.2" ry="0.2"/>
<ellipse transform="matrix(0.8518 -0.5238 0.5238 0.8518 -31.9587 102.9606)" class="st0" cx="166" cy="108" rx="0.2" ry="0.2"/>
<ellipse transform="matrix(0.8506 -0.5258 0.5258 0.8506 -30.6753 103.4763)" class="st0" cx="166.8" cy="105.7" rx="0.2" ry="0.2"/>
<ellipse transform="matrix(0.8533 -0.5215 0.5215 0.8533 -31.7577 101.6383)" class="st0" cx="164.7" cy="107.3" rx="0.2" ry="0.2"/>
<ellipse transform="matrix(0.8509 -0.5253 0.5253 0.8509 -31.7463 104.0831)" class="st0" cx="167.5" cy="108" rx="0.2" ry="0.2"/>
<ellipse transform="matrix(0.851 -0.5252 0.5252 0.851 -32.1355 101.2415)" class="st0" cx="162.3" cy="107.3" rx="0.2" ry="0.2"/>
<ellipse transform="matrix(0.8497 -0.5273 0.5273 0.8497 -31.104 103.2583)" class="st0" cx="165.6" cy="106.2" rx="0.2" ry="0.2"/>
<ellipse transform="matrix(0.8502 -0.5265 0.5265 0.8502 -32.4288 102.2648)" class="st0" cx="163.5" cy="108.1" rx="0.3" ry="0.3"/>
<ellipse transform="matrix(0.8521 -0.5234 0.5234 0.8521 -31.2004 101.0641)" class="st0" cx="163.2" cy="105.7" rx="0.2" ry="0.2"/>
<ellipse transform="matrix(0.8532 -0.5216 0.5216 0.8532 -33.0569 102.5399)" class="st0" cx="165.6" cy="110" rx="0.1" ry="0.1"/>
<ellipse transform="matrix(0.8488 -0.5287 0.5287 0.8488 -29.7755 103.1449)" class="st0" cx="165.4" cy="103.6" rx="0.1" ry="0.1"/>
<ellipse transform="matrix(0.8508 -0.5255 0.5255 0.8508 -31.2438 103.7059)" class="st0" cx="167" cy="106.9" rx="0.1" ry="0.1"/>
<ellipse transform="matrix(0.8472 -0.5313 0.5313 0.8472 -32.5573 105.3937)" class="st0" cx="167" cy="109.3" rx="0.1" ry="0.1"/>
<ellipse transform="matrix(0.8491 -0.5283 0.5283 0.8491 -34.1184 101.9659)" class="st0" cx="161.4" cy="110.7" rx="0.2" ry="0.2"/>
<path class="st0" d="M159.9,117.2c-0.2,0-0.8-0.1-0.8-1.3c0-0.4-0.3-8-0.5-12.3c-1,0-1.9-0.4-2.7-1c-0.3-0.3-0.5-0.8-0.5-1.2
	c0.1-2.3,5.2-3.8,13.6-4h1c4.9,0,12.2,0.9,13.2,2.3c0.3,0.4,0.4,0.9,0.2,1.4c-0.3,0.8-1.3,1.4-3.3,2c0.1,4.1,0.2,7.6,0.3,10.7
	l0.1,3.4h-0.4h-18.7L159.9,117.2z M170.1,98.1h-1c-8.8,0.2-12.8,1.8-12.9,3.3c0,0.3,0.1,0.5,0.3,0.7c0.7,0.5,1.6,0.8,2.5,0.8h0.4
	v0.4c0,0.5,0.5,12.2,0.5,12.7c0,0.2,0,0.4,0.1,0.5h1.3h18.4v-2.7c0-3.1-0.1-6.7-0.3-10.9v-0.3l0.3-0.1c2.3-0.6,3-1.2,3.1-1.6
	c0.1-0.3,0-0.5-0.1-0.7C182.1,99.2,176.1,98.1,170.1,98.1z"/>
</svg>
