<?xml version="1.0" encoding="utf-8"?>
<!-- Generator: Adobe Illustrator 21.1.0, SVG Export Plug-In . SVG Version: 6.00 Build 0)  -->
<svg version="1.1" id="Layer_1" xmlns="http://www.w3.org/2000/svg" xmlns:xlink="http://www.w3.org/1999/xlink" x="0px" y="0px"
	 viewBox="0 0 250 250" style="enable-background:new 0 0 250 250;" xml:space="preserve">
<style type="text/css">
	.st0{fill:#ED192D;}
</style>
<title>CR</title>
<path class="st0" d="M125,160.1c-28.5,0-57,0.1-85.5,0C20.1,159.7,4.7,143.8,5,124.4c0.3-16.1,11.4-29.9,27-33.5
	c2.9-0.6,5.8-1,8.7-0.9c56.2,0,112.3,0,168.5,0c15.2,0,26.3,7.2,32.7,21c7.4,16,0.9,35.5-14.4,44.3c-5.4,3.2-11.6,4.8-17.9,4.8
	C181.5,160.1,153.2,160.1,125,160.1L125,160.1z M125,98H41c-1.9,0-3.8,0.1-5.7,0.4c-14.7,2.7-24.3,16.8-21.6,31.5
	C16,142.7,27.2,152,40.3,152h169.3c2,0,4-0.2,5.9-0.6c14.6-3.1,23.8-17.5,20.7-32c-0.5-2.2-1.2-4.3-2.2-6.3
	c-5.1-9.9-13.5-14.9-24.6-14.9C181.2,98,153.1,98,125,98z"/>
<path class="st0" d="M142.2,139.5c-4.8,0-8.6-0.7-11.7-3.1c-4.4-3.1-6.5-8.6-5.3-13.9c0.8-5.3,4.7-9.6,9.9-10.9
	c4.3-1.3,9-1.2,13.2,0.3c7.3,2.7,11,10.8,8.2,18.1c-1.6,4.2-5.1,7.4-9.4,8.6C145.5,139.2,143.9,139.5,142.2,139.5z M141.1,118.8
	c-0.9,0-1.8,0-2.7,0.2c-3,0.4-5.3,2.8-5.5,5.8c-0.2,2.8,1.5,5.4,4.2,6.2c2.6,0.9,5.4,0.9,8,0c3.2-1.1,5-4.6,3.9-7.9
	c-0.6-1.7-1.9-3.1-3.7-3.8C144,118.9,142.6,118.7,141.1,118.8L141.1,118.8z"/>
<path class="st0" d="M207.9,139.5c-4.8,0-8.5-0.7-11.6-3.1c-4.3-3.1-6.4-8.3-5.4-13.5c0.6-5.4,4.5-9.9,9.7-11.3
	c4.4-1.4,9.2-1.3,13.5,0.3c7.3,2.7,11,10.8,8.2,18.1c-1.6,4.2-5.1,7.4-9.5,8.6C211.3,139.2,209.6,139.5,207.9,139.5z M206.9,118.7
	c-0.9,0-1.8,0-2.7,0.2c-2.9,0.3-5.1,2.6-5.4,5.4c-0.4,2.9,1.2,5.6,4,6.6c2.7,1,5.8,1,8.5,0c2.4-0.8,3.9-3.1,3.9-5.6
	c0.1-2.5-1.4-4.9-3.7-5.8C210,118.9,208.4,118.7,206.9,118.7L206.9,118.7z"/>
<path class="st0" d="M72.1,110.8c3.6-0.2,7.1,0.7,10.2,2.5c4.8,3.1,7.2,8.7,6.2,14.3c-0.8,5.7-5.1,10.2-10.7,11.3
	c-5.1,1.2-10.1,1.1-14.8-1.6c-6.7-4-8.8-12.7-4.8-19.4c1.5-2.5,3.8-4.5,6.5-5.6C67.1,111.2,69.6,110.8,72.1,110.8z M72.4,118.8
	c-0.9,0-1.8,0-2.7,0.2c-3,0.3-5.3,2.8-5.5,5.8c-0.2,2.8,1.5,5.4,4.1,6.3c2.6,0.9,5.4,0.9,8,0c3.2-1.1,4.9-4.6,3.8-7.9
	c-0.6-1.7-1.9-3.1-3.6-3.8C75.2,118.9,73.8,118.7,72.4,118.8L72.4,118.8z"/>
<path class="st0" d="M121.3,131.5c0,2.4,0,4.8,0,7.2c0,0.6-0.1,0.9-0.8,0.9c-2.1,0-4.3,0-6.4,0c-0.7,0-0.9-0.2-0.9-0.9
	c0-4.2,0-8.4,0-12.6c0-0.8-0.1-1.7-0.3-2.5c-0.8-3-3.8-4.9-6.8-4.5c-2.9,0.3-5.2,2.8-5.3,5.7c-0.1,4.5-0.1,9-0.1,13.6
	c0,1.5,0,1.3-1.3,1.3h-6.1c-0.4,0-0.7,0-0.7-0.6c0.1-5.1-0.3-10.3,0.2-15.4c0.7-6.7,6-11.9,12.7-12.6c7.4-0.8,14.2,4.2,15.6,11.5
	c0.3,2.1,0.4,4.3,0.3,6.5C121.3,129.8,121.3,130.7,121.3,131.5L121.3,131.5z"/>
<path class="st0" d="M45.6,139.5c-2.7,0.1-5.3,0-8-0.4c-7.7-1.9-12.5-9.6-10.6-17.3c1.3-5.4,5.5-9.5,10.9-10.7c1-0.2,2-0.3,3.1-0.3
	c3.6,0,7.2,0,10.8,0c0.7,0,0.9,0.2,0.9,0.8c0,2.2,0,4.3,0,6.5c0,0.7-0.2,0.8-0.9,0.8c-3.6,0-7.2-0.1-10.7-0.1
	c-3.5-0.1-6.4,2.7-6.5,6.3c0,0,0,0,0,0c-0.1,3.5,2.7,6.3,6.2,6.3c0,0,0,0,0.1,0c3.6,0,7.3,0,10.9,0c0.8,0,1,0.2,1,1
	c0,2.1,0,4.1,0,6.2c0,0.6-0.2,0.9-0.8,0.9C49.9,139.4,48,139.5,45.6,139.5z"/>
<path class="st0" d="M180.6,139.5c-2.6,0.1-5.2,0-7.8-0.4c-7.7-1.8-12.5-9.5-10.7-17.2c1.3-5.4,5.5-9.6,11-10.8
	c1.4-0.2,2.8-0.4,4.2-0.3c3.2,0,6.4,0,9.6,0c0.7,0,0.9,0.1,0.9,0.9c0,2.1,0,4.3,0,6.4c0,0.7-0.2,0.9-0.9,0.9
	c-3.5,0-7.1-0.1-10.7-0.1c-3.5-0.1-6.4,2.6-6.6,6.1c-0.2,3.5,2.5,6.4,6,6.6c0.1,0,0.2,0,0.3,0c3.6,0,7.2,0,10.8,0c0.8,0,1,0.2,1,1
	c0,2,0,4.1,0,6.1c0,0.8-0.3,1-1,1C184.8,139.4,182.9,139.5,180.6,139.5z"/>
</svg>
