<svg id="Layer_1" data-name="Layer 1" xmlns="http://www.w3.org/2000/svg" width="250" height="250" viewBox="0 0 250 250"><defs><style>.cls-1{fill:#f9e8a0;}.cls-2{fill:red;}.cls-3{fill:#414042;}</style></defs><title>iShop</title><path class="cls-1" d="M127.28,53.86a81.57,81.57,0,0,0-38.8,9.89H99.89a13.33,13.33,0,0,1,12.93,12.93c-.76,4.57-3,9.13-6.85,11.41.76.76,1.52.76,2.28,1.52a12.6,12.6,0,0,1,3.8,9.13c0,4.57-3,9.13-6.85,11.41,3.8,2.28,6.85,6.09,6.85,11.41,0,4.57-2.28,9.13-6.09,10.65a12.14,12.14,0,0,1,6.09,10.65c0,4.57-2.28,9.13-6.09,10.65l2.28,2.28a12.6,12.6,0,0,1,3.8,9.13c0,4.57-3,9.13-6.85,11.41,3.8,2.28,6.85,6.09,6.85,11.41a13.33,13.33,0,0,1-12.93,12.93H82.39c12.93,9.13,28.15,13.7,44.89,13.7a79.88,79.88,0,0,0,79.89-79.89C207.17,90.38,171.41,53.86,127.28,53.86Z"/><polygon class="cls-2" points="144.02 35.6 110.54 35.6 110.54 43.21 120.44 43.21 120.44 53.1 133.37 53.1 133.37 43.21 144.02 43.21 144.02 35.6"/><polygon class="cls-2" points="191.96 63.75 198.8 70.6 207.17 62.23 200.33 54.62 191.96 63.75"/><path class="cls-2" d="M122,139.08s-1.52-3,2.28-6.85,36.52-25.11,36.52-25.11l-28.15,39.57S123.48,148.21,122,139.08Z"/><path class="cls-3" d="M129.57,149.73a10.51,10.51,0,0,0,8.37-4.57l28.91-40.33c1.52-1.52.76-3,0-4.57-1.52-.76-3-.76-3.8,0l-40.33,28.91a11.16,11.16,0,0,0-3,15.22A10.85,10.85,0,0,0,128.8,149Zm-5.33-11.41a4.18,4.18,0,0,1,2.28-3.8L150.87,117l-17.5,24.35a5,5,0,0,1-6.85,1.52c-1.52-.76-2.28-3-2.28-4.57Z"/><path class="cls-3" d="M199.57,92.66h0a72.36,72.36,0,0,0-11.41-15.22L195,70.6l4.57,4.57L212.5,62.23l-13.7-13.7-13.7,13.7,4.57,4.57-6.85,6.85c-4.57-4.57-9.89-7.61-15.22-11.41h0a93.23,93.23,0,0,0-32-10.65v-3.8h4.57a7.62,7.62,0,0,0,7.61-7.61,8.18,8.18,0,0,0-7.61-7.61H113.59A7.62,7.62,0,0,0,106,40.16a8.18,8.18,0,0,0,7.61,7.61h4.57v3.8a44.53,44.53,0,0,0-9.89,1.52c-2.28.76-3,2.28-2.28,3.8,0,1.52,1.52,3,3,2.28,3-.76,5.33-.76,8.37-1.52h6.85V63a3,3,0,1,0,6.09,0V56.9A84.43,84.43,0,0,1,163,66l-3,4.57c-.76,1.52,0,3,.76,4.57.76,0,.76.76,1.52.76a5.77,5.77,0,0,0,3-1.52l3-5.33a74.47,74.47,0,0,1,24.35,24.35l-5.33,3a3.66,3.66,0,0,0-1.52,4.57,4,4,0,0,0,3,1.52,2.66,2.66,0,0,1,.76-1.52L195,98a80.92,80.92,0,0,1,9.13,32.72H198a3,3,0,1,0,0,6.09h6.09A80.92,80.92,0,0,1,195,169.51l-5.33-2.28c-1.52-.76-3,0-4.57.76-.76,1.52,0,3,.76,4.57h0l5.33,3a74.47,74.47,0,0,1-24.35,24.35l-3-5.33a3.27,3.27,0,0,0-5.33,3.8l3,5.33a80.92,80.92,0,0,1-32.72,9.13v-6.09a3,3,0,1,0-6.09,0h0v6.09a84.27,84.27,0,0,1-14.46-1.52c-.76-2.28-2.28-1.52-2.28,0-.76,2.28,0,3.8,2.28,3.8a76.65,76.65,0,0,0,19,2.28H128A79.77,79.77,0,0,0,169.13,206h0c12.17-7.61,22.83-17.5,30.43-30.43h0c13.7-25.11,13.7-57.07,0-82.93Zm0-35,4.57,4.57-4.57,4.57L195,62.23Zm-75.33-6.85V41.68H113.59a1.52,1.52,0,0,1,0-3h28.15a1.52,1.52,0,0,1,0,3H131.09v9.13ZM99.13,75.92H83.91a3,3,0,0,0,0,6.09H99.13a3.27,3.27,0,0,0,3-3C102.17,76.68,101.41,75.92,99.13,75.92Zm0,21.3H68.7a3,3,0,1,0,0,6.09h31.2a3.27,3.27,0,0,0,3-3c-.76-1.52-1.52-3-3.8-3Zm0,22.07H52.72a3,3,0,1,0,0,6.09H99.13a3.27,3.27,0,0,0,3-3A2.79,2.79,0,0,0,99.13,119.29Zm0,21.3H40.54a3,3,0,0,0,0,6.09H99.13a3.27,3.27,0,0,0,3-3A2.79,2.79,0,0,0,99.13,140.6Zm0,22.07H58.8a3,3,0,1,0,0,6.09H99.13a3.27,3.27,0,0,0,3-3c0-2.28-.76-3-3-3Zm0,21.3H77.83a3,3,0,1,0,0,6.09h21.3a3.27,3.27,0,0,0,3-3A2.79,2.79,0,0,0,99.13,184Z"/></svg>