<?xml version="1.0" encoding="utf-8"?>
<!-- Generator: Adobe Illustrator 21.1.0, SVG Export Plug-In . SVG Version: 6.00 Build 0)  -->
<svg version="1.1" id="Layer_1" xmlns="http://www.w3.org/2000/svg" xmlns:xlink="http://www.w3.org/1999/xlink" x="0px" y="0px"
	 viewBox="0 0 250 250" style="enable-background:new 0 0 250 250;" xml:space="preserve">
<style type="text/css">
	.st0{fill:url(#SVGID_1_);}
	.st1{fill:url(#SVGID_2_);}
	.st2{fill:url(#SVGID_3_);}
	.st3{fill:#E6C31D;}
</style>
<title>CR</title>
<linearGradient id="SVGID_1_" gradientUnits="userSpaceOnUse" x1="142.721" y1="125.072" x2="142.721" y2="146.1784" gradientTransform="matrix(1 0 0 -1 0 252)">
	<stop  offset="0" style="stop-color:#A21D21"/>
	<stop  offset="0.67" style="stop-color:#E41E26"/>
</linearGradient>
<path class="st0" d="M184.8,106.7c-2.9-1.6-6.5-1.2-9.1,0.9c-0.5-0.6-1.2-1.1-1.8-1.4c-1.4-0.6-3,0.1-3.6,1.5
	c-0.1,0.4-0.2,0.7-0.2,1.1c0,1.3,0,2.7,0,3.9c-1.7-3.8-4.3-6.4-8.5-6.9c-4.2-0.5-7.3,1.2-9.8,4.9c0.2-0.5,0.3-0.8,0.3-1.1
	c0.5-1.4-0.2-2.9-1.5-3.4c-0.3-0.1-0.6-0.2-0.9-0.2c-1.4-0.2-2.6,0.7-2.9,2.1c-1.1,3.1-2.1,6.2-3.1,9.3c-0.1,0.3-0.2,0.6-0.4,1.1
	l-0.3-0.9c-1.1-3.2-2.1-6.4-3.2-9.6c-0.3-1.4-1.8-2.3-3.2-2c-0.5,0.1-1,0.4-1.4,0.8c-0.5,0.7-0.9,1.5-1.1,2.4
	c-1.2-2-3.3-3.2-5.6-3.3c-2.3-0.5-4.6,0.2-6.3,1.8c-0.5-0.5-1-1-1.6-1.3c-1.4-0.7-3-0.1-3.7,1.2c-0.2,0.4-0.3,0.8-0.3,1.2
	c-0.1,1.1,0,2.2,0,3.3h-0.2l-0.4-0.8c-2.1-4.1-6.8-6.2-11.2-5.1c-6.3,1.5-10.1,9.7-5.8,16.3c3,4.6,9.1,5.9,13.7,2.9
	c1.5-1,2.7-2.4,3.5-4c0.1-0.1,0.2-0.3,0.3-0.4c0.2,1.1,0.1,2.1,0.2,3.2c0,1.5,1.2,2.7,2.6,2.7c0.2,0,0.4,0,0.6-0.1
	c1.5-0.2,2.6-1.6,2.4-3.1c0-3.1,0-6.3,0-9.4c-0.1-1.7,1-3.2,2.7-3.6c1.8-0.6,3.8,0.4,4.3,2.2c0.1,0.4,0.2,0.8,0.2,1.2
	c0,3.2,0,6.3,0,9.5c-0.2,1.6,0.9,3,2.5,3.2c1.6,0.2,3-0.9,3.2-2.5c0-0.2,0-0.5,0-0.7c0-3.5,0-6.9,0-10.4c0-0.5-0.1-1.1-0.1-1.6
	c0.2,0.3,0.4,0.6,0.5,0.9c1.6,4,3.2,8,4.8,12c0.3,1.3,1.5,2.2,2.8,2.2c1.4,0.2,2.8-0.7,3.2-2.1c1.3-3.2,2.6-6.4,3.9-9.6
	c0.1-0.3,0.2-0.5,0.4-0.8c-0.3,1.9-0.1,3.8,0.4,5.6c1.6,5,6.7,8,11.9,6.9c2.3-0.2,4.5-1.2,6.3-2.7c1-0.7,1.2-2.1,0.5-3c0,0,0,0,0,0
	c-0.7-1.1-2.1-1.4-3.1-0.7c-0.9,0.4-1.7,0.9-2.6,1.3c-1.9,0.9-4,0.7-5.8-0.3c-1.1-0.6-1.8-1.7-1.9-3c3.7,0,7.2,0,10.7,0
	c1.1-0.1,2.2-0.2,3.2-0.4c0,1.8,0,3.8,0,5.8c-0.1,1.5,1,2.9,2.5,3c0.1,0,0.2,0,0.4,0c1.5,0,2.7-1.3,2.7-2.8c0-0.1,0-0.1,0-0.2
	c0-3.1,0-6.3,0-9.4c-0.2-1.9,1.2-3.6,3-3.8c0.3,0,0.6,0,0.9,0c2,0.1,3.2,1.5,3.2,3.9c0,3.1,0,6.2,0,9.3c-0.1,1.5,0.9,2.8,2.4,2.9
	c0.1,0,0.2,0,0.4,0c1.5,0.1,2.8-1.1,2.9-2.6c0-0.1,0-0.2,0-0.3c0-3.7,0.1-7.4,0-11C188.5,110.3,187.1,107.9,184.8,106.7z
	 M110.5,120.1c-1.2,1.8-3.7,2.3-5.5,1.1c-0.4-0.3-0.8-0.7-1.1-1.1c-0.6-1.1-1-2.3-1.3-3.6c0.3-1.3,0.8-2.5,1.3-3.7
	c1.2-1.8,3.6-2.4,5.4-1.2c0.5,0.3,0.9,0.7,1.2,1.2C111.8,115,111.8,117.8,110.5,120.1L110.5,120.1z M156.1,114.5c0.1-2.3,2-4,4.3-4
	c2.3-0.1,4.2,1.7,4.3,4c0,0,0,0,0,0H156.1z"/>
<linearGradient id="SVGID_2_" gradientUnits="userSpaceOnUse" x1="217.1748" y1="125.1387" x2="217.1748" y2="151.8983" gradientTransform="matrix(1 0 0 -1 0 252)">
	<stop  offset="0" style="stop-color:#A21D21"/>
	<stop  offset="0.67" style="stop-color:#E41E26"/>
</linearGradient>
<path class="st1" d="M242.5,106.3c-0.6,0-1.1,0-1.7,0c0-1.1,0-2.1,0-3.1c0-2-1.1-3.2-2.8-3.2c-1.7,0-2.8,1.2-2.8,3.2c0,1,0,2,0,3.1
	c-1.7,0-3.3,0.1-3.7,2.1c-4-3.3-8.3-3.5-11.4-0.7c-0.5-0.5-1.1-1-1.7-1.4c-1.4-0.6-3,0-3.7,1.4c-0.2,0.4-0.2,0.8-0.2,1.2
	c0,1.3,0,2.7,0,4c-1.8-4.1-4.6-6.8-9.2-7.1c-5-0.3-8.2,2.4-10.2,6.8c-0.1-1.2,0-2.4-0.1-3.5c0.1-1.3-0.7-2.5-1.9-2.9
	c-1.4-0.5-3,0.2-3.6,1.6c-0.1,0.4-0.2,0.8-0.2,1.2c0,4.9,0,9.7,0,14.6c0,0.3,0,0.6,0.1,0.9c0.3,1.3,1.4,2.1,2.7,2.1
	c1.3,0,2.4-0.9,2.7-2.1c0.1-0.9,0.2-1.8,0.1-2.7c0-0.5,0-1.1,0-1.6c1.8,4.6,6.6,7.4,11.5,6.6c2.4-0.2,4.8-1,6.7-2.6
	c1.1-0.6,1.4-2,0.8-3.1c0-0.1-0.1-0.1-0.1-0.2c-0.7-1.1-2.1-1.4-3.2-0.7c0,0,0,0-0.1,0c-0.9,0.5-1.9,0.9-2.9,1.3
	c-1.8,0.7-3.8,0.5-5.4-0.5c-1-0.6-1.7-1.7-1.8-2.8c0.1,0,0.2-0.1,0.3-0.1c3.7,0,7.4,0,11,0c0.9-0.1,1.8-0.2,2.7-0.4c0,1.9,0,4,0,6
	c0,1.6,1.3,2.8,2.9,2.8s2.8-1.3,2.8-2.9c0-3.2,0-6.3,0-9.5c-0.1-1.9,1.3-3.6,3.3-3.7c0.6,0,1.2,0.1,1.7,0.3c1.5,0.6,2.4,2,2.2,3.6
	c0,3.1,0,6.3,0,9.4c-0.2,1.5,0.9,2.8,2.4,2.9c0.2,0,0.3,0,0.5,0c1.5,0,2.8-1.3,2.8-2.8c0-0.1,0-0.1,0-0.2c0-1.3,0-2.6,0-3.8
	c0-2.9,0-5.9,0-8.7l2.2,0.2c0,0.4,0,0.7,0,1.1c0,3.8,0,7.5,0,11.3c-0.2,1.6,1,2.9,2.5,3.1c1.6,0.2,2.9-1,3.1-2.5c0-0.2,0-0.4,0-0.5
	c0-3.8,0-7.5,0-11.3c0-0.3,0-0.7,0-1.1c0.6,0,1.2,0,1.7,0c1.6-0.1,2.5-0.9,2.5-2.4S244.1,106.4,242.5,106.3z M200.4,114.5
	c0.1-2.4,2.2-4.2,4.6-4.1c2.2,0.1,4,1.9,4.1,4.1H200.4z"/>
<linearGradient id="SVGID_3_" gradientUnits="userSpaceOnUse" x1="87.1354" y1="120.6611" x2="87.1354" y2="152.0473" gradientTransform="matrix(1 0 0 -1 0 252)">
	<stop  offset="0" style="stop-color:#A21D21"/>
	<stop  offset="0.67" style="stop-color:#E41E26"/>
</linearGradient>
<path class="st2" d="M95.3,123.7c-0.9,0.3-1.8,0.8-2.8,1.1c-4.1,1.6-8.8-0.5-10.3-4.6c-0.2-0.5-0.4-1.1-0.4-1.6
	c-0.4-1.8-0.4-3.7,0-5.5c1.1-4.9,4.7-7.4,9.6-6.7c1.4,0.3,2.7,0.7,4,1.2c1.2,0.5,2.6,0,3.3-1c0.8-1.1,0.7-2.6-0.2-3.7
	c-0.6-0.7-1.3-1.2-2.1-1.5c-1.2-0.5-2.5-0.9-3.9-1.1c-6.6-1.3-13.4,2-16.3,8.2c-1.3,2.9-1.8,6.1-1.5,9.3c0.7,8.1,7.7,14.1,15.8,13.6
	c0.6-0.1,1.8-0.1,3-0.3c1.9-0.2,3.7-1,5.2-2.3c1.3-1.3,1.2-2.4,0.3-4.1C98.2,123.3,96.6,122.9,95.3,123.7z"/>
<path class="st3" d="M199.8,133.3c-0.6,2.1-1.3,4.1-1.9,6.2c-0.2,0.8-0.9,1.3-1.7,1.1c-0.6-0.1-1-0.6-1.1-1.1
	c-0.5-1.8-1-3.5-1.6-5.3c-0.1-0.3-0.3-0.6-0.5-0.9c-0.1,0.6-0.2,1.3-0.3,1.9c-0.2,1.3-0.4,2.8-0.6,4.2c-0.2,1-0.6,1.4-1.5,1.3
	c-0.9-0.1-1.1-0.8-0.9-1.6c0.5-2.9,1-5.9,1.5-8.8c0.1-0.8,0.7-1.4,1.5-1.4c0.8-0.1,1.6,0.4,1.8,1.3c0.6,1.9,1.2,3.8,1.8,5.7l0.2,0.6
	c0.1-0.2,0.2-0.4,0.3-0.7c0.6-1.8,1.1-3.6,1.7-5.3c0.2-0.9,0.9-1.5,1.8-1.5c0.9,0,1.4,0.6,1.6,1.7c0.5,2.8,1,5.5,1.4,8.3
	c0.1,0.6,0.2,1.3-0.5,1.7c-0.6,0.4-1.4,0.2-1.7-0.4c-0.1-0.2-0.2-0.4-0.2-0.6c-0.3-1.7-0.5-3.5-0.8-5.2c0-0.3-0.1-0.7-0.2-1
	L199.8,133.3z"/>
<path class="st3" d="M138.8,134.6c-0.1-3.1,2.3-5.8,5.5-5.9c0.2,0,0.3,0,0.5,0c3.2,0,5.8,2.7,5.7,5.9c0,0.1,0,0.2,0,0.3
	c-0.1,3.2-2.7,5.8-5.9,5.7C141.3,140.5,138.7,137.9,138.8,134.6z M141.5,134.8c0,2.1,1.1,3.6,2.8,3.8c1.7,0.2,3.3-1,3.6-2.7
	c0,0,0-0.1,0-0.1c0.6-1.9-0.4-4-2.3-4.7h-0.3C143,130.6,141.4,132.2,141.5,134.8L141.5,134.8z"/>
<path class="st3" d="M165.3,134.7c0.2,3.1-2.2,5.8-5.4,6c-0.2,0-0.3,0-0.5,0c-3.3,0.1-6.1-2.5-6.2-5.8c-0.1-3.3,2.5-6.1,5.8-6.2
	c3.3-0.1,6.1,2.5,6.2,5.8C165.3,134.6,165.3,134.7,165.3,134.7z M156.2,134.7c-0.2,1.8,0.9,3.4,2.7,3.8c1.7,0.3,3.4-0.8,3.7-2.5
	c0-0.1,0-0.2,0-0.3c0.4-2.4-0.7-4.3-2.5-4.7C157.9,130.6,156.2,132.2,156.2,134.7L156.2,134.7z"/>
<path class="st3" d="M169,134.7c0-1.4,0-2.9,0-4.3c0-1.1,0.4-1.5,1.4-1.5c1.5,0,3,0,4.5,0.2c1.9,0.3,3.4,1.7,3.8,3.6
	c0.3,1.2,0.3,2.5,0.1,3.7c-0.3,2-1.8,3.6-3.9,3.9c-1.6,0.2-3.2,0.3-4.9,0.2c-0.7,0-1.1-0.5-1.1-1.3C169,137.7,169,136.2,169,134.7z
	 M171.5,134.7c0,1,0,1.9,0,2.9c0,0.3,0.1,0.6,0.3,0.7c1.7,0.6,3.6-0.2,4.4-1.9c0.9-1.8,0.2-4.1-1.6-5c-0.7-0.4-1.6-0.5-2.4-0.3
	c-0.5,0-0.7,0.2-0.7,0.8C171.4,132.8,171.4,133.7,171.5,134.7L171.5,134.7z"/>
<path class="st3" d="M225.9,135.8l2.4,2.5c0.9,0.9,1,1.5,0.4,2.1s-1.4,0.3-2.2-0.6l-3.1-3.6c-0.1-0.1-0.3-0.2-0.4-0.2
	c0,0.7,0,1.3,0,2c0,0.5,0,1.1,0,1.6c0,0.6-0.6,1.1-1.2,1c-0.1,0-0.1,0-0.2,0c-0.6,0.1-1.1-0.4-1.1-0.9c0,0,0-0.1,0-0.1
	c0-3.2,0-6.4,0-9.6c0-0.5,0.4-1,0.9-1.1c0,0,0.1,0,0.1,0c1.5-0.1,3.1,0,4.6,0.1c1.8,0.3,3,2,2.8,3.8c-0.2,1.3-1.1,2.3-2.3,2.7
	L225.9,135.8z M223,132.6c0,1.5,0,1.5,1.3,1.5s2.1-0.5,2.1-1.5s-0.7-1.5-2.4-1.6C222.7,131,223.1,131.9,223,132.6L223,132.6z"/>
<path class="st3" d="M217.1,139.8c-0.2,0.2-0.4,0.7-0.7,0.7c-0.5,0-0.9-0.1-1.3-0.3c-0.1,0-0.2-0.3-0.3-0.5
	c-0.6-1.5-0.6-1.5-2.2-1.5c-0.3,0-0.6,0-1,0c-1.3-0.1-2.4,0-2.7,1.7c-0.1,0.8-0.9,0.9-1.6,0.7c-0.6-0.1-0.9-0.7-0.8-1.2
	c0-0.1,0-0.2,0.1-0.2c1.2-3.1,2.3-6.1,3.5-9.2c0.2-0.7,0.9-1.2,1.7-1.2c0.8,0,1.5,0.4,1.7,1.2c1.2,3,2.3,6.1,3.4,9.2
	C217.1,139.3,217.1,139.6,217.1,139.8z M212,131.5h-0.3l-1.5,4.5h3.3L212,131.5z"/>
<path class="st3" d="M129.2,134.8c0-1.5,0-2.9,0-4.4c0-1.1,0.4-1.5,1.4-1.5c1.3,0,2.7,0,4,0c0.8,0,1.2,0.3,1.2,1.1
	c0,0.8-0.5,1-1.2,1H133c-1.3,0-1.3,0-1.3,1.4c0,0.1,0,0.3,0,0.4c0,0.1,0.4,0.6,0.7,0.6c0.6,0,1.3,0,1.9,0c0.7,0,1.2,0.3,1.2,1.1
	c0,0.8-0.5,1.1-1.2,1.1c-0.7,0-1.1,0-1.7,0s-0.9,0.3-0.9,0.9c0,0.9,0,1.8,0,2.7c0.1,0.6-0.3,1.2-0.9,1.3c-0.1,0-0.2,0-0.3,0
	c-0.8,0-1.2-0.4-1.3-1.3C129.2,137.8,129.2,136.3,129.2,134.8z"/>
<path class="st3" d="M236.7,135.7c0,1.2,0,2.5,0,3.7c0,0.8-0.4,1.3-1.2,1.3c-0.8,0-1.2-0.5-1.2-1.3c0-2.4,0-4.8,0-7.2
	c0-0.9-0.3-1.2-1.2-1.1c-0.3,0-0.6,0-0.9,0c-0.5,0-1-0.3-1-0.8c0,0,0-0.1,0-0.1c0-0.6,0.2-1.1,0.9-1.2c2.2,0,4.5,0,6.7,0
	c0.3,0,0.7,0.7,0.8,1.1c0.1,0.4-0.3,0.9-0.9,1h-0.1c-2,0.2-2,0.2-2,2.3C236.6,134.1,236.6,134.9,236.7,135.7L236.7,135.7z"/>
<path class="st3" d="M242.9,132.8c-1.1,0-2.1-0.9-2.1-2.1c0-1.1,0.9-2.1,2.1-2.1s2.1,0.9,2.1,2.1C245,131.9,244.1,132.8,242.9,132.8
	L242.9,132.8z M242.9,129.1c-0.9,0-1.7,0.7-1.7,1.7s0.7,1.7,1.7,1.7s1.7-0.7,1.7-1.7C244.6,129.9,243.8,129.1,242.9,129.1
	L242.9,129.1z"/>
<path class="st3" d="M242.2,129.6c0.2,0,0.4,0,0.6,0c0.3,0,0.5,0,0.7,0.2c0.1,0.1,0.2,0.3,0.2,0.5c0,0.3-0.2,0.6-0.5,0.6l0,0
	c0.2,0.1,0.3,0.3,0.4,0.5c0,0.2,0.1,0.5,0.2,0.7h-0.3c-0.1-0.2-0.1-0.4-0.2-0.6c-0.1-0.3-0.2-0.5-0.5-0.5h-0.3v1.1h-0.3L242.2,129.6
	z M242.6,130.7h0.3c0.3,0,0.6-0.2,0.6-0.5s-0.2-0.5-0.6-0.5c-0.1,0-0.2,0-0.3,0L242.6,130.7z"/>
<path class="st3" d="M78.7,100H59.2c0,0-13.7,43.7,26.4,50.1v-17.6c0,0-9.6,0.2-13.1-11.1C69,110.2,78.7,100,78.7,100z"/>
<path class="st3" d="M52.7,100H33.2c0,0-13.7,43.7,26.4,50.1v-17.6c0,0-9.6,0.2-13.1-11.1S52.7,100,52.7,100z"/>
<path class="st3" d="M26.8,100H7.3c0,0-13.7,43.7,26.4,50.1v-17.6c0,0-9.6,0.2-13.1-11.1S26.8,100,26.8,100z"/>
</svg>
