<?xml version="1.0" encoding="utf-8"?>
<!-- Generator: Adobe Illustrator 21.1.0, SVG Export Plug-In . SVG Version: 6.00 Build 0)  -->
<svg version="1.1" id="Layer_1" xmlns="http://www.w3.org/2000/svg" xmlns:xlink="http://www.w3.org/1999/xlink" x="0px" y="0px"
	 viewBox="0 0 250 250" style="enable-background:new 0 0 250 250;" xml:space="preserve">
<style type="text/css">
	.st0{fill:#ED1C24;}
</style>
<title>Grocery</title>
<path class="st0" d="M153.3,118.8c-4.6-6.7-13.1,2.4-13.1,2.4s-9.1,7-11.3,11c-7,1.3-56.3,10.2-93.3,4s-28.1-18.7-1.9-28.7
	c26-9.9,42.7-12.1,68.1-13.1c0,0,22.7,1.1,26,4c1.1,1,1.6,2.5,1.3,3.9c10.3-9,4.6-18.2-38.7-15.2c-43.8,3.2-81.8,14-85,33.3
	s21.5,29.7,69.2,28.2s48.3-5.1,52-4.8c1.3-1.3,2.5-2.8,3.6-4.3c2.7,2.9,7,7.5,15,1.6C153.3,135.2,159.2,127.4,153.3,118.8
	L153.3,118.8z M142.3,135.7c0,0-5.3,3.4-5.9,1.1c-1.6-7.5,5.6-10.2,7.5-11c0.3-2.1,2.2-3.7,4.3-3.5
	C155.5,122.3,147.1,131.9,142.3,135.7L142.3,135.7z M221.7,124.8c9.3-0.9,13.5,0.4,14.9,0.7c-0.3-2.7,2.7-6.1-9.5-5.9
	c-15,0.3-15.8,2.9-15.8,2.9c-6.6,6.4,0.9,10.4,6.4,10.2c6-0.3,7.3,1.9,7.3,1.9c-4.8,0.5-15.3,0-17.4,0.8c-2.1,0.8-12.1,5.9,2.9,6.4
	c16.1,0.6,32.1-1.9,19.6-12.1l-11.8-2.9C218.3,126.8,212.9,125.7,221.7,124.8L221.7,124.8z"/>
<path class="st0" d="M178.9,135.2c-4.5,3.1-11,5.7-16.9,7.7c0,0-0.3,2.7-0.5,8.6s2.9,15.3-3,12.9l-3.8-3.8
	c-1.3-14.7,0.8-29,2.7-38.4c1.8-8.9-0.5-6.7,5.6-7c3.8-0.2,2.9,2.7,2.4,4.8c2.1-0.8,11.3-3.1,16.6,2.9c0.8,0.9,1.4,1.9,1.8,3.1
	c0.5,1.8,0.2,3.7-0.9,5.1c-0.8,1.1-1.8,2.1-2.9,3C179.8,134.6,179.3,134.9,178.9,135.2L178.9,135.2L178.9,135.2L178.9,135.2z
	 M171.1,123.6c0,0-6.7,0.8-7.5,1.9c0,2.9-1.3,10.3,0,9.9C172.2,133,189,122.3,171.1,123.6z"/>
<path class="st0" d="M184.2,133.5c0,0,0.2-0.9,0.4-2.3l0.9-5.1c0.6-3.3,1.1-6.8,1.3-8.7c7.3-3.5,6.4,0,6.4,2.9
	c9.7-2.4,12.1,1.6,12.1,1.6c9.3,7.8-8,16.5-14.8,18.7c0,0-0.1,2-0.4,11.1c-0.3,9.5,4,12.7-5.2,9.7c-3.5-1.2-1.6-18.2-1.6-22
	c-2.7-2.1-3.3-3.4-3-4.2l0,0c0.3-0.5,0.8-0.8,1.3-1C182.4,134,183.3,133.8,184.2,133.5L184.2,133.5z M191.7,133.5
	c7.8-1.9,18-11.4,9.3-9.9c-8.9,1.5-9.3,3.2-9.3,3.2C191.6,129.1,191.6,131.3,191.7,133.5L191.7,133.5z M240.1,114v0.7h-1.3v3.3H238
	v-3.3h-1.3V114H240.1L240.1,114z M244.4,118l-0.1-2.3c0-0.3,0-0.7,0-1.1l0,0c-0.1,0.3-0.2,0.8-0.3,1.2l-0.7,2.2h-0.9l-0.7-2.3
	l-0.3-1.1l0,0c0,0.4,0,0.8,0,1.1l-0.1,2.3h-0.8l0.3-4h1.2l0.7,1.9c0.1,0.3,0.2,0.7,0.3,1l0,0c0.1-0.3,0.2-0.7,0.3-1l0.7-2h1.2l0.3,4
	L244.4,118L244.4,118z"/>
</svg>
