<?xml version="1.0" encoding="utf-8"?>
<!-- Generator: Adobe Illustrator 21.1.0, SVG Export Plug-In . SVG Version: 6.00 Build 0)  -->
<svg version="1.1" id="Layer_1" xmlns="http://www.w3.org/2000/svg" xmlns:xlink="http://www.w3.org/1999/xlink" x="0px" y="0px"
	 viewBox="0 0 250 250" style="enable-background:new 0 0 250 250;" xml:space="preserve">
<style type="text/css">
	.st0{fill:#FAB933;}
	.st1{fill:#FAFDFA;}
	.st2{fill:url(#SVGID_1_);}
	.st3{fill:#0C83C9;}
	.st4{fill:#E53631;}
	.st5{fill:#FDFEFD;}
</style>
<title>CR</title>
<path class="st0" d="M29.7,93.4h193.9c0,0,27.3-1.3,20.1,18.5c-7.5,20.4-16.7,43.9-16.7,43.9c-0.3,0.6-0.9,0.9-1.6,0.9H22.6
	c0,0-25,1.3-15.5-20.7s17.3-39.8,17.3-39.8C25.6,94.3,27.6,93.3,29.7,93.4z"/>
<path class="st1" d="M152.2,111.2c1.3-1.5,2.1-3.4,2.3-5.5c0.2-1.5,0.9-1.6,2.1-1.6c4.2,0,8.5,0,12.7,0c19.1,0,38.2,0.1,57.2,0
	c5.7,0,10.1,5,7.6,10.9c-1,2.4-1.7,5-3.9,6.7c-0.7,0.7-1.6,1.1-2.6,1.3c-1.1,0.2-1.4,0.8-0.9,1.9c1.2,2.3,2.3,4.6,3.4,6.9
	c0.6,0.9,0.6,2.1,0,3c-1.3,1.4-1.3,3.3-2,5c-1.5,3.5-2.7,7.1-4,10.7c-0.3,1-1.2,1.6-2.2,1.5c-8.7,0-17.3,0-26.1,0
	c-1.3,0-2.7,0.2-2.9-1.8c-0.1-0.9-1.2-1.8-2-2.5c-1.5-1.2-3.5-0.2-3.8,2.3c-0.2,2.1-1.2,2.1-2.8,2.1c-8.5,0-17,0-25.5,0
	c-0.9,0.1-1.7,0-2.6-0.3c-2.5-1.1-3.7-5-2.3-7.8c0.4-0.8,1.3-1.8,0.2-2.3c-1.2-0.5-2.7-0.7-3.3,0.9c-1.1,2.6-2.2,5.2-3.1,7.8
	c-0.4,1.1-0.9,1.6-2.1,1.6c-2.3,0-4.6,0-6.9,0c-1.3,0-1.6-0.5-1-1.7c1.1-2.3,1.7-4.9,3-7.1c0.3-0.5,0.6-1.1,0.1-1.5
	c-0.5-0.4-1.3-0.2-2-0.2c-0.7,0-0.7,0.5-0.8,1c-0.5,1.7-1.1,3.5-1.8,5.2c-1.1,2.7-3.7,4.5-6.7,4.3c-6.6,0.1-13.2,0-19.8,0.1
	c-1.5,0-1.8-0.6-1.3-1.8c0.9-2,1.6-4.2,2-6.3c0-0.2,0.1-0.4,0.2-0.5c1.3-1.7,1.2-1.7,1.8-4.4c0.5-1.7,1.1-3.3,2-4.8
	c0.2-0.5,0.6-0.9,0.5-1.3c-0.8-2-1.5-4-2.5-5.9c-0.4-0.8-2-0.2-2.4,0.9c-0.6,1.9-1.8,3.5-2.2,5.4c-0.2,0.8-0.8,0.8-1.4,0.8
	c-4.7,0-9.3,0-14,0c-0.6,0-1.5,0.3-0.9-1c0.3-0.6-0.6-0.5-0.9-0.4c-7,2.4-14.2,1.8-21.3,1.6c-2.7,0-5.5,0.2-7.9-1.3
	c-0.2-0.1-0.5-0.1-0.7,0.1c-1.2,1.5-2.8,1-4.3,1c-6.5,0-12.9,0.1-19.4-0.2c-3.6-0.2-7.1-1.1-9.7-4.2c-1.1-1.5-1.8-3.2-2-5.1
	c-0.3-2.8,0.3-5.6,1.6-8c2-5.1,5.5-9.5,9.9-12.7c4.5-3,9.8-4.9,15.2-5.3c5-0.4,10-0.2,15.1-0.3c1.8,0,3.5,0.5,5.3,0
	c1-0.3,1.7,0.1,0.9,1.4c-0.7,1.2-1.2,2.4-1.6,3.7c-0.3,0.7-0.5,1.7,0.9,1.3c4.2-1,8.5-0.7,12.7-0.8c3.1-0.1,6.2,0.1,9.3,0.5
	c1.7,0.2,3.7,0.3,4.8,2.2c0.7,1.2,2.1,0.9,2.5-0.7c0.4-1.6,1.2-1.8,2.7-1.8c7.9,0,15.8,0,23.7,0.1c2.4,0,4.7,0.4,6.4,2.6
	c0.7,0.9,1.5-0.1,1.6-0.7c0.3-2.1,1.7-2,3.3-2c2.7,0,5.3,0.1,8,0c1.3-0.3,2.5,0.6,2.8,1.8c0,0,0,0.1,0,0.1
	C150.6,107.7,151.9,109,152.2,111.2z M137.8,138.3c1.9,0,3.9,0,5.8-0.1c1.3-0.1,1.3,0.4,0.9,1.5c-1.1,2.6-2.1,5.2-3,7.8
	c-0.1,0.3-0.6,0.7-0.1,1.2c0.8,0.6,3.8,0,4.2-1c1-2.5,2-4.9,2.9-7.5c0.5-1.5,1.2-2.2,2.9-2c1.7,0.2,3.5,0,5.2,0
	c1.2,0,1.5-0.9,1.6-1.7c0.1-1.1-0.9-0.7-1.5-0.7c-5.6,0-11.2,0-16.8,0C137.9,135.8,137.7,136.2,137.8,138.3c-1.1,0.3-2.3-0.1-2.9-1
	c-0.2-0.3-0.6-0.5-1-0.4c-2,1.1-4.4,0.4-6.4,1.9c0.9,0.3,2,0.3,2.9-0.1c1.5-0.9,3.3-0.8,4.7,0.2
	C136.3,140.2,137.1,139.7,137.8,138.3z M225.6,138.2c0.6-0.5,1.1-1.2,0.9-1.9c-0.2-0.7-1.2-0.4-1.8-0.4c-3.9,0-7.8,0-11.7,0
	c-4.5,0-4.5,0-6.2,4.2c-0.9,2.3-1.8,4.7-2.9,6.9c-0.6,1.2-0.4,2,1.2,1.9c1.3-0.1,2.7,0,4.1,0c3.7,0,7.5-0.1,11.2,0
	c1,0.2,1.9-0.4,2.1-1.4c0-0.2,0-0.4,0-0.5c0-1.1-1.2-0.5-1.8-0.5c-3.3,0-6.6,0-9.9,0c-0.7,0-1.7,0.3-1.9-0.4
	c-0.1-0.9,0.2-1.7,0.9-2.4c0.5-0.6,1.3-0.4,1.9-0.4c3.7,0,7.5,0,11.2,0c1.3,0,1.5-0.8,1.6-1.6c0.1-1.2-0.9-0.7-1.5-0.7
	c-3.6,0-7.2-0.1-10.8,0c-1.2,0-1.4-0.4-1-1.5c0.2-0.5,0.4-1,1.1-1.2C216.6,138.3,221.1,138.5,225.6,138.2L225.6,138.2z M166.3,109
	c0.6-1,0.6-1.6-0.8-1.5c-2.6,0.1-5.2,0.1-7.8,0.1c-0.3-0.1-0.4,0-0.5,0.3c-1.4,3.8-2.9,7.7-4.4,11.5c-0.4-0.1-0.7-0.4-0.8-0.7
	c-0.9-3.4-2.7-6.4-4-9.6c-0.3-1.2-1.5-1.9-2.7-1.6c-1.7,0.1-3.4,0.1-5,0c-0.8-0.1-1.6,0.4-1.8,1.3c-2.7,6.8-5.4,13.6-8.1,20.4
	c-0.4,1-0.3,1.3,0.8,1.3c2.3,0,4.6,0,6.9,0c1.1,0,1.5-0.5,1.9-1.3c1.3-3.3,2.6-6.6,3.9-9.9c0.2-0.4,0.1-1,0.9-1.1
	c0.8,2.4,1.8,4.7,3,6.9c0.8,1.8,1.2,4.3,2.7,5.2s4,0.3,6,0.3h0.2c0.8,0.2,1.6-0.4,1.8-1.2C161.1,122.6,163.7,115.8,166.3,109z
	 M73.5,130.8c4,0.1,8.1-0.1,12.1-0.6c2.9-0.4,5.7-1.2,7.1-4.1c2.1-4.4,3.9-9,5.4-13.6c0.8-2.3,0-3.5-2.3-4.3
	c-0.7-0.2-1.4-0.4-2.2-0.4c-6.6-0.7-13.3-0.7-19.9,0c-3.8,0.1-7.2,2.7-8.3,6.4c-1.1,3-2.5,5.9-3.7,8.9c-1.6,4.1-1.7,6.4,3.4,7.2
	C67.9,130.6,70.7,130.8,73.5,130.8z M215.4,107.5h-8.2c-4.4,0-4.4,0-6.1,4.1c-2.3,5.8-4.6,11.7-6.9,17.5c-0.3,0.9-0.3,1.4,0.9,1.3
	c2.2,0,4.5-0.1,6.7,0c1.1,0.2,2.1-0.6,2.3-1.7c0,0,0,0,0,0c0.8-2.6,2.1-5,2.7-7.6c0.6-2.7,2.5-5.1,3.1-8c0.1-0.9,0.9-1.6,1.8-1.7
	c2.7,0,5.5-0.1,8.2,0c0.9-0.1,1.7,0.6,1.7,1.5c0,0.1,0,0.2,0,0.3c-0.1,2-1.8,3.6-3.8,3.6c-2.2,0-4.5,0-6.7,0c-1,0-1.2,0.3-0.8,1.2
	c1.6,3.6,3.1,7.3,4.6,11c0.2,0.9,1.1,1.5,1.9,1.3c2.4-0.1,4.7,0,7.1,0c2,0,2,0,1-1.9c-1.1-2.2-2.2-4.5-3.4-6.7
	c-0.8-1.4-0.4-1.9,1.1-1.8c0.4,0,0.7,0,1.1,0c3.1-0.2,5.5-1.3,6.5-4.6c0.2-0.8,0.6-1.5,0.9-2.3c1.1-3.2-0.5-5.3-3.9-5.6
	C223.2,107.4,218.9,107.7,215.4,107.5z M122.3,120.4c1.5-0.1,2.7-0.2,3.9-0.3c2.3,0,4.4-1.3,5.3-3.4c0.5-1.2,1-2.4,1.4-3.6
	c0.8-2.5,0-4.1-2.5-4.9c-0.6-0.2-1.3-0.3-2-0.4c-7.7-0.5-15.4-0.1-23.1-0.2c-0.7,0-1.3,0.4-1.5,1.1c-2.7,6.8-5.3,13.6-8,20.5
	c-0.4,1.1-0.1,1.4,1,1.3c2.2,0,4.3-0.1,6.5,0c1,0.2,2-0.5,2.2-1.5c1.9-5.1,3.9-10.2,5.9-15.3c0.4-0.9,0.7-2.1,1.9-2.1
	c2.8-0.1,5.6-0.1,8.4,0c0.8,0,1.5,0.6,1.6,1.5c0,0.1,0,0.2,0,0.3c-0.1,2.1-1.9,3.7-4,3.7c-2.1,0-4.2,0-6.3,0c-1,0-1.4,0.2-0.9,1.3
	c1.6,3.7,3.1,7.4,4.7,11.2c0.2,0.6,0.7,1,1.3,1c2.8,0,5.6,0,8.4,0c0.8,0,1-0.3,0.7-1C125.7,126.6,124.4,123.5,122.3,120.4z
	 M59.2,125.6c-0.7-0.4-1.6-0.6-2.5-0.5c-5-0.2-10.1,0.4-15.1-0.4c-2.1-0.4-3-1.5-2.5-3.7c1.2-6.1,4.1-11,10.1-13.8
	c3.3-1.5,6.8-1.2,10.3-1.3s3.5-0.5,2.1,3.1c-0.2,0.6-0.6,1.2-0.1,1.7s3.6,0,4-0.9c0.9-2.2,1.8-4.5,2.8-6.7c0.5-1.1,0.1-1.3-1-1.3
	c-4,0-8.1,0-12.1,0c-4.7,0-9.4,1-13.7,3.1c-6.6,3.3-11.4,9.4-13,16.6c-0.9,3.6,0.4,6.3,3.5,7.5c2.4,0.9,4.9,1.4,7.4,1.5
	c4.2,0.2,8.4,0,12.7,0C57.3,130.5,57.3,130.5,59.2,125.6L59.2,125.6z M173.5,126.6c0.5-0.9,0.8-1.9,1.1-2.9c0.4-2.4,1.9-3,4-2.8
	c0.8,0.1,1.6,0,2.4,0h10.7c1.6-0.2,2.7-1.5,2.7-3.1c-0.1-1.5-1.5-0.7-2.2-0.7c-4.4-0.1-8.9-0.1-13.2,0c-1.5,0-1.8-0.4-1.1-1.7
	c0.3-0.4,0.4-0.9,0.6-1.3c0.4-2,1.6-2.6,3.6-2.5c4,0.1,8.1,0,12.1,0c2.9,0,2.9,0,3.7-2.7c0.3-1,0.3-1.4-0.9-1.3
	c-8.1,0-16.3,0-24.4,0c-0.8-0.1-1.5,0.4-1.6,1.1c-1,2.7-2,5.3-3.1,8l-5.5,13.8h25.5c1.6-0.4,2.8-1.8,2.8-3.4c0-0.3-0.2-0.5-0.5-0.5
	c-0.8-0.2-1.5-0.4-2.3-0.4C183.2,127,178.6,126.3,173.5,126.6L173.5,126.6z M121,148.9h6.1c4.8,0,5.9-0.8,7.4-5.3
	c1-2.9,0.5-3.7-2.7-3.8c-3.6-0.1-7.2,0-10.8,0c-2.3,0-2.3-0.2-1.3-2.3c0.4-1,1.1-0.9,1.8-0.9c4.7,0,9.3,0,14,0
	c1.5,0,1.6-0.9,1.7-1.9c0.1-1.2-0.9-0.9-1.5-0.9c-4.5,0-9.1,0-13.6,0c-4.6,0-5.3,0.6-7,4.8c-1.1,2.9-0.4,3.9,2.7,3.9h11.4
	c0.5,0,1.1-0.2,1.3,0.4c0.4,0.8-1.3,3-2.3,3h-8.5c-2,0-4,0.1-6,0c-1.7-0.1-1.7,1.3-1.9,2.2c-0.2,1.3,1.1,0.6,1.6,0.7
	C116,148.9,118.5,148.9,121,148.9z M166,148.9L166,148.9c2.7,0,5.3,0,8,0c1.7,0.1,3.2-0.9,3.8-2.4c1.1-2.5,2.1-5,3.1-7.5
	c0.7-1.8,0.1-2.8-1.8-2.9c-5.5-0.1-10.9,0-16.4,0c-1.8,0-3.4,1.2-3.9,2.9c-0.9,2.1-1.7,4.3-2.7,6.4c-0.9,2.1-0.4,3.4,2.1,3.5
	C160.7,149,163.5,148.8,166,148.9L166,148.9z M197.5,144c3.5,0.4,4.7-1.8,5.7-4.5c1-2.7,0.6-3.5-2.4-3.5c-4.8,0-9.5,0-14.3,0
	c-0.7-0.1-1.5,0.3-1.7,1c-1.3,3.5-2.8,7-4.2,10.5c-0.2,0.5-0.4,1.2,0.5,1.4c2.2,0.5,3.3,0,4-2.1c0.2-0.6,0.5-1.3,0.7-1.9
	c0.2-0.4,0.3-0.8,0.9-0.8c2.5,0,5.2-0.7,6.7,2.5c0.4,0.9,1,2.2,2.4,2.3c1.6,0.1,3.3,0,5,0C200.2,146.8,198.3,145.9,197.5,144
	L197.5,144z M118.9,131.2c-0.7,0-2-0.4-1.6,0.2s-0.8,1.5,0.1,1.7C118.8,133.4,118.2,131.7,118.9,131.2L118.9,131.2z"/>
<linearGradient id="SVGID_1_" gradientUnits="userSpaceOnUse" x1="15.2159" y1="124.7583" x2="101.0312" y2="124.7583" gradientTransform="matrix(1 0 0 -1 0 252)">
	<stop  offset="0" style="stop-color:#FFFFFF"/>
	<stop  offset="1" style="stop-color:#FFFFFF;stop-opacity:0.2"/>
</linearGradient>
<path class="st2" d="M97.9,138.3c-0.5,0.9-1.2,0.7-1.7,0.7c-10.1,0.1-20.3,0.1-30.4,0.2c-2.9,0-5.7,0.2-8.6,0.3
	c-0.5,0-1.5-0.3-1.4,0.6c0,0.7,0.9,0.4,1.4,0.4c10.7,0.1,21.3,0,32,0.2c3.9,0,7.7,0.9,11.6,0.9c-3.1,0.6-6.7-0.2-9.3,2.1v0.6h5.6
	c-0.3,0.9-0.7,0.7-1,0.7c-8.7,0.8-17.5,0.7-26.2,0.7c-14.3,0-28.7,0.2-43.1,0c-5.5-0.1-9.5-2.3-11.2-7.7c-0.7-2.7-0.8-5.6-0.1-8.3
	c1.5-7.7,5.7-14.1,10.4-20.1c0.4-0.6,0.9-1.4,2-1c-2.3,3.1-4.1,6.6-5.5,10.2c-1.6,4.6-2.1,9.3,0.2,13.9c1.9,3.8,5.3,5.2,9.4,5.2
	c9.1,0.1,18.3-0.1,27.4,0.2c8.2,0.3,16.4,0.2,24.6,0.2C88.8,138.3,93.4,138.3,97.9,138.3z"/>
<path class="st3" d="M73.5,130.8c-2.8,0-5.6-0.2-8.4-0.5c-5.1-0.7-5-3.1-3.4-7.2c1.2-3,2.7-5.9,3.7-8.9c1.1-3.7,4.4-6.3,8.3-6.4
	c6.6-0.7,13.3-0.7,19.9,0c0.7,0.1,1.5,0.2,2.2,0.4c2.3,0.8,3.1,2,2.3,4.3c-1.5,4.7-3.3,9.2-5.4,13.6c-1.5,2.9-4.2,3.7-7.1,4.1
	C81.6,130.8,77.5,131,73.5,130.8z M82.5,111.6c-1.5,0-3,0-4.5,0c-1.1-0.1-2.1,0.5-2.5,1.5c-1.5,4-3.1,7.9-4.7,11.9
	c-0.4,1.1,0,1.5,1,1.5h9.9c0.9,0,1.7-0.6,1.9-1.5c1.5-4,3.1-8,4.6-12c0.4-1,0.1-1.5-1-1.5C85.7,111.6,84.1,111.6,82.5,111.6z"/>
<path class="st3" d="M215.4,107.5c3.5,0.1,7.7-0.1,12,0.2c3.4,0.3,5,2.4,3.9,5.6c-0.3,0.8-0.7,1.5-0.9,2.3c-1,3.2-3.4,4.4-6.5,4.6
	c-0.4,0-0.7,0-1.1,0c-1.5-0.1-1.9,0.3-1.1,1.8c1.2,2.2,2.3,4.4,3.4,6.7c1,1.9,1,1.9-1,1.9c-2.4,0-4.7,0-7.1,0
	c-0.9,0.1-1.7-0.5-1.9-1.3c-1.5-3.7-3-7.3-4.6-11c-0.4-0.9-0.2-1.2,0.8-1.2c2.2,0,4.5,0,6.7,0c2-0.1,3.6-1.6,3.8-3.6
	c0.1-0.9-0.5-1.7-1.4-1.8c-0.1,0-0.2,0-0.3,0c-2.7-0.1-5.5-0.1-8.2,0c-0.9,0.1-1.7,0.7-1.8,1.7c-0.6,2.9-2.5,5.2-3.1,8
	c-0.7,2.8-1.9,5-2.7,7.6c-0.2,1.1-1.2,1.8-2.3,1.7c0,0,0,0,0,0c-2.2-0.1-4.5,0-6.7,0c-1.2,0-1.3-0.5-0.9-1.3
	c2.3-5.8,4.6-11.7,6.9-17.5c1.6-4.1,1.7-4.1,6.1-4.1L215.4,107.5z"/>
<path class="st3" d="M122.3,120.4c2,3.1,3.3,6.2,4.9,9.1c0.4,0.7,0.2,1-0.7,1c-2.8,0-5.6,0-8.4,0c-0.6,0-1.2-0.4-1.3-1
	c-1.5-3.7-3.1-7.5-4.7-11.2c-0.5-1.1,0-1.3,0.9-1.3c2.1,0,4.2,0,6.3,0c2.1,0,3.9-1.6,4-3.7c0.1-0.8-0.4-1.6-1.3-1.7
	c-0.1,0-0.2,0-0.3,0c-2.8-0.1-5.6-0.1-8.4,0c-1.2,0-1.5,1.2-1.9,2.1c-2,5.1-4,10.2-5.9,15.3c-0.2,1-1.2,1.6-2.2,1.5
	c-2.2-0.1-4.3,0-6.5,0c-1.1,0-1.5-0.3-1-1.3c2.7-6.8,5.3-13.6,8-20.5c0.1-0.7,0.8-1.2,1.5-1.1c7.7,0.1,15.4-0.3,23.1,0.2
	c0.7,0,1.4,0.2,2,0.4c2.5,0.8,3.3,2.4,2.5,4.9c-0.4,1.2-0.9,2.4-1.4,3.6c-1,2.1-3,3.4-5.3,3.4C125.1,120.3,123.9,120.3,122.3,120.4z
	"/>
<path class="st3" d="M59.2,125.6c-1.9,5-1.9,5-7.2,5c-4.2,0-8.4,0.2-12.7,0c-2.5-0.1-5-0.6-7.4-1.5c-3-1.2-4.4-4-3.5-7.5
	c1.6-7.2,6.3-13.3,13-16.6c4.3-2.1,8.9-3.1,13.7-3.1c4-0.1,8.1,0,12.1,0c1.1,0,1.5,0.2,1,1.3c-0.9,2.2-1.8,4.5-2.8,6.7
	c-0.4,1-3.4,1.6-4,0.9c-0.6-0.7-0.1-1.1,0.1-1.7c1.3-3.6,1.3-3.1-2.1-3.1c-3.4,0-6.9-0.3-10.3,1.3c-5.9,2.7-8.8,7.7-10.1,13.8
	c-0.4,2.2,0.4,3.3,2.5,3.7c5,0.9,10,0.3,15.1,0.4C57.6,124.9,58.5,125.1,59.2,125.6z"/>
<path class="st3" d="M173.5,126.6c5-0.4,9.7,0.4,14.4-0.4c0.8,0,1.6,0.1,2.3,0.4c0.3,0,0.4,0.2,0.5,0.5c-0.1,1.7-1.2,3.1-2.8,3.4
	h-25.6l5.5-13.9c1-2.7,2.1-5.3,3.1-8c0.2-0.7,0.9-1.2,1.6-1.1c8.1,0,16.3,0,24.4,0c1.3,0,1.3,0.4,0.9,1.3c-0.9,2.7-0.9,2.7-3.7,2.7
	c-4,0-8.1,0.1-12.1,0c-2,0-3.2,0.5-3.6,2.5c-0.1,0.5-0.3,0.9-0.6,1.3c-0.7,1.3-0.4,1.7,1.1,1.7c4.4-0.1,8.9-0.1,13.2,0
	c0.7,0,2.1-0.8,2.2,0.7c0.1,1.6-1.1,2.9-2.7,3.1H181c-0.8,0-1.6,0.1-2.4,0c-2.1-0.2-3.6,0.4-4,2.8
	C174.3,124.7,174,125.7,173.5,126.6z"/>
<path class="st4" d="M121,148.9c-2.5,0-5.1,0-7.6,0c-0.5,0-1.8,0.7-1.6-0.7c0.1-0.9,0.1-2.3,1.9-2.2c2,0.1,4,0,6,0h8.6
	c1,0,2.7-2.1,2.3-3c-0.3-0.6-0.9-0.4-1.3-0.4h-11.4c-3.1,0-3.8-1-2.7-3.9c1.7-4.3,2.4-4.8,7-4.8c4.6,0,9.1,0,13.6,0
	c0.6,0,1.6-0.4,1.5,0.9c-0.1,1-0.1,1.9-1.7,1.9c-4.7-0.1-9.3,0-14,0c-0.7,0-1.3-0.1-1.8,0.9c-0.9,2.1-0.9,2.3,1.3,2.3
	c3.6,0,7.2-0.1,10.8,0c3.1,0.1,3.6,0.9,2.7,3.8c-1.5,4.6-2.5,5.3-7.4,5.3L121,148.9L121,148.9z"/>
<path class="st4" d="M166,148.8c-2.7,0-5.2,0-7.8,0s-3.1-1.3-2.1-3.5c1-2.2,1.8-4.3,2.7-6.4c0.5-1.7,2.1-2.9,3.9-2.9
	c5.5,0,10.9-0.1,16.4,0c1.9,0,2.5,1.1,1.8,2.9c-1,2.5-2,5-3.1,7.5c-0.6,1.5-2.2,2.5-3.8,2.4C171.3,148.8,168.7,148.8,166,148.8
	L166,148.8z M167,146.3L167,146.3c1.8,0,3.6,0,5.4,0c0.8,0.1,1.5-0.3,1.7-1c0.7-1.8,1.3-3.6,2.1-5.3c0.5-1.1,0.4-1.6-1-1.6
	c-3.6,0-7.2,0-10.8,0c-0.8-0.1-1.5,0.3-1.7,1.1c-0.7,1.9-1.4,3.8-2.3,5.7c-0.5,1,0,1.2,0.9,1.2L167,146.3z"/>
<path class="st4" d="M197.6,144c0.7,2,2.7,2.9,3.4,4.9c-1.8,0-3.4,0-5,0c-1.3-0.1-2-1.4-2.4-2.3c-1.4-3.2-4.1-2.5-6.7-2.5
	c-0.6,0-0.7,0.4-0.9,0.8c-0.3,0.6-0.5,1.3-0.7,1.9c-0.8,2.1-1.9,2.7-4,2.1c-0.9-0.2-0.7-0.9-0.5-1.4c1.3-3.5,2.8-7,4.2-10.5
	c0.2-0.7,1-1.2,1.7-1c4.8,0,9.5,0,14.3,0c2.9,0,3.3,0.8,2.4,3.5C202.3,142.2,201,144.3,197.6,144z M193.7,138.2h-3.4
	c-1.6,0.1-2.8,1.3-2.8,2.9c0,0.5,0.3,0.6,0.7,0.6c2.8,0,5.6,0,8.4-0.1c0.5,0,0.9-0.2,1.3-0.5c0.7-0.5,1.1-1.4,1-2.3
	c-0.1-0.9-1.1-0.6-1.7-0.6C196.1,138.2,194.9,138.2,193.7,138.2L193.7,138.2z"/>
<path class="st4" d="M137.8,138.3c-0.1-2.2,0.1-2.5,2.1-2.5c5.6,0,11.2,0,16.8,0c0.5,0,1.6-0.5,1.5,0.7c-0.1,0.8-0.3,1.8-1.6,1.7
	c-1.7,0-3.5,0.1-5.2,0c-1.7-0.1-2.4,0.5-2.9,2c-0.9,2.5-1.9,5-2.9,7.5c-0.4,0.9-3.4,1.6-4.2,1c-0.5-0.4,0-0.8,0.1-1.2
	c1-2.7,2-5.2,3-7.8c0.4-1.1,0.5-1.6-0.9-1.5C141.6,138.4,139.7,138.3,137.8,138.3L137.8,138.3z"/>
<path class="st5" d="M137.8,138.3c-0.7,1.3-1.4,1.8-2.8,0.7c-1.4-1-3.2-1.1-4.7-0.2c-0.9,0.4-1.9,0.4-2.9,0.1c2-1.5,4.5-0.8,6.4-1.9
	c0.4-0.1,0.8,0,1,0.4C135.5,138.2,136.7,138.6,137.8,138.3L137.8,138.3z"/>
<path class="st4" d="M226.4,136.3c-0.3-0.8-1.2-0.4-1.8-0.4c-3.9,0-7.8,0-11.7,0c-4.5,0-4.5,0-6.2,4.2c-0.9,2.3-1.8,4.7-2.9,6.9
	c-0.6,1.2-0.4,2,1.2,1.9c1.3-0.1,2.7,0,4.1,0c3.7,0,7.5-0.1,11.2,0c1,0.2,1.9-0.4,2.1-1.4c0-0.2,0-0.4,0-0.5c0-1.1-1.2-0.5-1.8-0.5
	c-3.3,0-6.6,0-9.9,0c-0.7,0-1.7,0.3-1.9-0.4c-0.1-0.9,0.2-1.7,0.9-2.4c0.5-0.6,1.3-0.4,1.9-0.4c3.7,0,7.5,0,11.2,0
	c1.3,0,1.5-0.8,1.6-1.6c0.1-1.2-0.9-0.7-1.5-0.7c-3.6,0-7.2-0.1-10.8,0c-1.2,0-1.4-0.4-1-1.5c0.2-0.5,0.4-1,1.1-1.2
	c4.5,0,9,0.2,13.5-0.1C226.2,137.7,226.7,137,226.4,136.3z"/>
<path class="st3" d="M165.5,107.5c-2.6,0.1-5.2,0.1-7.8,0.1c-0.3-0.1-0.4,0-0.5,0.3c-1.4,3.8-2.9,7.7-4.4,11.5
	c-0.4-0.1-0.7-0.4-0.8-0.7c-0.9-3.4-2.7-6.4-4-9.6c-0.3-1.2-1.5-1.9-2.7-1.6c-1.7,0.1-3.4,0.1-5,0c-0.8-0.1-1.6,0.4-1.8,1.3
	c-2.7,6.8-5.4,13.6-8.1,20.4c-0.4,1-0.3,1.3,0.8,1.3c2.3,0,4.6,0,6.9,0c1.1,0,1.5-0.5,1.9-1.3c1.3-3.3,2.6-6.6,3.9-9.9
	c0.2-0.4,0.1-1,0.9-1.1c0.8,2.4,1.8,4.7,3,6.9c0.8,1.8,1.2,4.3,2.7,5.2c1.5,0.9,4,0.3,6,0.3h0.2c0.8,0.2,1.6-0.4,1.8-1.2
	c2.6-6.8,5.2-13.5,7.9-20.3C167,108.1,167,107.5,165.5,107.5z"/>
<path class="st5" d="M118.9,131.2c-0.7,0.5-0.1,2.2-1.5,1.9c-0.9-0.2,0.3-0.9-0.1-1.7C116.8,130.7,118.2,131.1,118.9,131.2z"/>
<path class="st1" d="M82.5,111.6c1.6,0,3.2,0,4.8,0c1.2,0,1.4,0.5,1,1.5c-1.5,4-3.1,8-4.6,12c-0.2,0.9-1,1.5-1.9,1.4h-9.9
	c-1.1,0-1.5-0.4-1-1.5c1.6-4,3.1-7.9,4.7-11.9c0.3-1,1.4-1.7,2.5-1.5C79.5,111.7,81,111.6,82.5,111.6z"/>
<path class="st1" d="M167,146.3h-5.6c-0.8,0-1.3-0.1-0.9-1.2c0.8-1.9,1.6-3.8,2.3-5.7c0.2-0.7,0.9-1.2,1.7-1.1c3.6,0,7.2,0,10.8,0
	c1.3,0,1.5,0.5,1,1.6c-0.8,1.8-1.5,3.5-2.1,5.3c-0.2,0.7-1,1.2-1.7,1C170.6,146.3,168.8,146.3,167,146.3L167,146.3z"/>
<path class="st1" d="M193.7,138.2c1.2,0,2.4,0,3.5,0c0.6,0,1.6-0.3,1.7,0.6c0.1,0.9-0.2,1.8-1,2.3c-0.4,0.3-0.9,0.4-1.3,0.5
	c-2.8,0.1-5.6,0.1-8.4,0.1c-0.4,0-0.7,0-0.7-0.6c0-1.5,1.2-2.8,2.7-2.9H193.7L193.7,138.2z"/>
<path class="st0" d="M233.1,148.1h-0.9v-0.3h2.1v0.3h-0.9l-0.5,2.7h-0.4L233.1,148.1z"/>
<path class="st0" d="M236.7,150.7l0.2-1.6c0-0.3,0.1-0.7,0.2-1l0,0c-0.1,0.3-0.3,0.7-0.5,1l-0.9,1.7h-0.3l-0.2-1.6
	c0-0.3-0.1-0.7-0.1-1l0,0c-0.1,0.3-0.2,0.7-0.2,1l-0.4,1.6h-0.3l0.8-3h0.5l0.2,1.7c0,0.3,0.1,0.5,0.1,0.7l0,0
	c0.1-0.2,0.2-0.5,0.3-0.7l0.9-1.7h0.5l-0.5,3H236.7z"/>
</svg>
