<?xml version="1.0" encoding="utf-8"?>
<!-- Generator: Adobe Illustrator 21.1.0, SVG Export Plug-In . SVG Version: 6.00 Build 0)  -->
<svg version="1.1" id="Layer_1" xmlns="http://www.w3.org/2000/svg" xmlns:xlink="http://www.w3.org/1999/xlink" x="0px" y="0px"
	 viewBox="0 0 250 250" style="enable-background:new 0 0 250 250;" xml:space="preserve">
<style type="text/css">
	.st0{fill:#02533D;}
	.st1{fill:#E74538;}
</style>
<title>Grocery</title>
<path class="st0" d="M192,102.1c0.1,0.1,0.3,0.2,0.4,0.3c0.2,0.1,0.2,0.2,0.2,0.4c-0.1,0.8-0.2,1.7-0.3,2.5c-0.1,1.3-0.3,2.7-0.3,4
	c0,0.2,0,0.3,0.2,0.3l3.8,0.3l1.9,0.2c0.3,0,0.3,0,0.3,0.4s0,0.6,0,0.9c0,0.3,0,0.3-0.2,0.3c-1.1,0.1-2.2,0.3-3.3,0.3l-2.3,0.1
	c-0.4,0-0.3,0-0.3,0.3c0,2.7,0,5.3,0,7.9c0,1.5,0,3.1,0,4.6c0,1.4,0.1,2.8,0.3,4.1c0.1,0.7,0.3,1.3,0.6,2c0.6,1.2,1.7,2,3,2.1
	c1.2,0.2,2.4,0.1,3.6-0.3c0.4-0.1,0.4-0.1,0.5,0.3c0.1,0.4,0.2,0.6,0.2,0.9c0.1,0.1,0,0.3-0.1,0.3c0,0,0,0,0,0
	c-1.7,0.9-3.5,1.6-5.4,1.9c-1.1,0.2-2.3,0.3-3.4,0.3c-0.8,0-1.6-0.2-2.3-0.5c-1.3-0.5-2.4-1.5-2.9-2.8c-0.4-0.9-0.6-1.8-0.7-2.8
	c-0.1-1.1-0.2-2.2-0.2-3.3c0-4.9,0-9.7,0-14.5c0-0.1,0-0.2,0-0.3c0-0.2,0-0.3-0.2-0.3c-1.6-0.3-3.3-0.4-4.9-0.5
	c-0.9,0-1.9,0.1-2.8,0.2c-0.9,0.1-1.9,0.2-2.8,0.3c-0.3,0-0.3,0-0.3,0.3c0,4.3,0,8.6,0,12.9c0,1.4,0.1,2.8,0.4,4.2
	c0.1,0.6,0.3,1.1,0.6,1.7c0.6,1.1,1.7,1.9,2.9,2c1.2,0.2,2.5,0.1,3.7-0.3c0.3-0.1,0.3-0.1,0.4,0.2s0.2,0.6,0.3,0.9
	c0.1,0.3,0,0.3-0.2,0.3c-1.6,0.8-3.3,1.5-5.1,1.9c-1.3,0.3-2.5,0.4-3.8,0.3c-1,0-2-0.3-2.9-0.7c-1.1-0.6-2-1.6-2.5-2.8
	c-0.4-1-0.7-2.2-0.7-3.3c-0.1-0.9-0.1-1.9-0.1-2.8c0-4.8,0-9.7,0-14.5c0-0.5,0-0.5-0.5-0.5c-1.2-0.1-2.4-0.2-3.6-0.4
	c-0.2,0-0.3-0.1-0.3-0.3c0-0.2,0-0.6,0-0.9c0-0.3,0-0.3,0.3-0.4l2-0.3c0.6-0.1,1.2-0.2,1.8-0.2c0.2,0,0.3-0.1,0.3-0.3
	c0-0.6,0-1.2,0-1.8c0-0.2,0.1-0.5,0.3-0.6c2-1.7,4.1-3.2,6.3-4.5c0.1,0,0.2-0.1,0.2-0.2h0.2c0.1,0.1,0.2,0.2,0.3,0.2
	c0.3,0.1,0.3,0.3,0.3,0.5c-0.3,2.1-0.5,4.1-0.6,6.2c0,0.5,0,0.5,0.5,0.6c1,0.1,2,0.3,3,0.4c0.8,0.1,1.7,0.2,2.5,0.1
	c0.9,0,1.7-0.1,2.5-0.2s1.5-0.2,2.2-0.3c0.2,0,0.3-0.1,0.3-0.3c0,0,0,0,0,0c0-0.6,0-1.3,0-1.9c0-0.2,0.1-0.4,0.2-0.5
	c2-1.7,4.1-3.2,6.3-4.5c0.1,0,0.3-0.1,0.3-0.2L192,102.1z"/>
<path class="st0" d="M4.7,120.5c0.1-0.3,0.2-0.6,0.2-0.9c0.4-6.7,4.6-12.7,10.8-15.3c2.2-1,4.6-1.6,7-1.9c1.8-0.2,3.6-0.2,5.3-0.1
	c2.9,0.1,5.8,0.8,8.5,1.9c0.4,0.1,0.7,0.3,1,0.5c0.3,0.3,0.2,0.7,0.3,1.1c0.3,1.5,0.5,3,0.6,4.5c0.1,1.1,0.1,2.2,0.1,3.3
	c0,0.3,0,0.3-0.3,0.4l-1.4,0.2c-0.2,0-0.3,0-0.3-0.2c-0.2-0.9-0.4-1.8-0.7-2.7c-0.5-1.5-1.3-2.8-2.3-3.9c-1.3-1.4-3-2.3-4.9-2.7
	c-2.3-0.5-4.7-0.4-7,0.4c-2.6,0.9-4.7,2.7-6.1,5.1c-1,1.7-1.7,3.6-2.1,5.6c-0.9,4.9-0.5,10,1.1,14.7c0.6,1.7,1.5,3.3,2.7,4.7
	c1.6,1.9,3.8,3.2,6.3,3.6c2,0.4,4,0.3,5.9-0.3c2.5-0.7,4.7-2.4,6.1-4.6c1-1.6,1.8-3.3,2.1-5.2c0.1-0.3,0.1-0.3,0.4-0.3
	c0.3,0.1,1,0.2,1.5,0.3c0.1,0,0.2,0.1,0.2,0.2c-0.2,2.5-0.6,4.9-1.3,7.3c-0.2,0.8-0.5,1.5-0.8,2.3c-0.1,0.2-0.2,0.3-0.4,0.4
	c-2.4,1-4.9,1.6-7.4,1.9c-2.2,0.2-4.4,0.3-6.7,0.1c-2.9-0.2-5.8-0.8-8.5-2c-3.5-1.5-6.3-4.2-8-7.6c-0.9-1.8-1.4-3.7-1.7-5.7
	c-0.1-0.8-0.2-1.5-0.2-2.3c0-0.2-0.1-0.3-0.1-0.5L4.7,120.5z"/>
<path class="st0" d="M101.3,102.1c0,0,0.1,0.1,0.1,0.1c0.5,0.2,0.5,0.5,0.4,0.9c-0.3,2-0.5,4-0.6,6.1c0,0.3,0,0.3,0.3,0.4l5.5,0.5
	l0,0c0.4,0,0.4,0,0.4,0.5c0,0.5,0,0.5,0,0.8s0,0.3-0.3,0.3l-2.4,0.3c-1.1,0.1-2.2,0.2-3.3,0.2c-0.3,0-0.3,0-0.3,0.4
	c0,2.8,0,5.7,0,8.5c0,1.9,0,3.8,0,5.7c0,1.1,0.2,2.3,0.5,3.4c0.1,0.2,0.2,0.5,0.3,0.7c0.5,1.4,1.8,2.3,3.2,2.4
	c1.2,0.2,2.4,0.1,3.6-0.3c0.3-0.1,0.3-0.1,0.4,0.2l0.3,0.9c0.1,0.1,0,0.3-0.1,0.3c0,0,0,0,0,0c-2.3,1.3-4.9,2-7.6,2.2
	c-1.1,0.1-2.1,0-3.2-0.3c-1.6-0.4-2.9-1.6-3.5-3.2c-0.3-0.9-0.6-1.8-0.7-2.7c-0.1-1.1-0.2-2.2-0.2-3.3c0-4.8,0-9.6,0-14.5
	c0-7.2,0-0.1,0-0.2c0-0.4,0-0.4-0.4-0.4c-1.2-0.1-2.5-0.2-3.7-0.4c-0.3,0-0.3,0-0.3-0.4c0-0.4,0-0.6,0-0.9s0-0.3,0.3-0.4l2-0.3
	c0.6-0.1,1.2-0.2,1.8-0.2c0.2,0,0.3-0.1,0.3-0.3c0-0.6,0-1.2,0-1.8c0-0.3,0.1-0.5,0.3-0.6c2-1.7,4.1-3.2,6.4-4.6l0.2-0.1
	L101.3,102.1z"/>
<path class="st0" d="M244.7,111.5c-0.6,1.5-1.7,2.9-3.1,3.8c-0.2,0.2-0.4,0.2-0.7,0.1l-3.3-1.2c-0.3-0.1-0.6-0.2-0.9-0.3
	c-1-0.2-2,0.1-2.7,0.9c-0.1,0.1-0.1,0.3-0.1,0.5c0,1.5,0,3,0,4.4c0,3.4,0,6.9,0,10.4c0,0.8,0,1.5,0.1,2.3c0.1,0.8,0.7,1.4,1.5,1.5
	c0.6,0.1,1.1,0.2,1.7,0.3l1.2,0.1c0.1,0,0.2,0,0.2,0.2c0,0.4,0,0.8,0,1.1c0,0.2,0,0.2-0.2,0.2h-14.8c-0.2,0-0.3,0-0.3-0.2
	s0-0.7,0-1.1c0-0.3,0-0.2,0.2-0.2l1.4-0.1l0.5-0.1c0.6-0.1,1.1-0.6,1.2-1.2c0.2-0.7,0.2-1.4,0.2-2.1c0-4.9,0-9.7,0-14.6
	c0-0.8-0.1-1.5-0.2-2.3c-0.1-0.3-0.2-0.6-0.3-0.9c-0.2-0.4-0.7-0.7-1.2-0.7c-0.5,0-0.9,0.1-1.3,0.2c-0.1,0.1-0.3,0.1-0.4,0.1
	c0-0.4,0-0.9,0-1.3c0-0.2,0.2-0.2,0.3-0.3c1.2-0.4,2.4-0.8,3.6-1.1c1.8-0.5,3.7-0.9,5.6-1.2c0.2,0,0.2,0.1,0.3,0.2
	c0.2,1.1,0.6,2.1,0.7,3.2c0,0,0,0.1,0,0.1c0.2,0,0.2-0.2,0.3-0.3c0.7-0.8,1.5-1.5,2.4-2.1c0.8-0.6,1.7-1,2.7-1.1
	c1.2-0.2,2.4,0.1,3.5,0.7c0.6,0.4,1.1,0.8,1.6,1.3c0.1,0.1,0.2,0.2,0.3,0.3L244.7,111.5z"/>
<path class="st0" d="M150,112.5c0-0.5,0-1,0-1.4c0-0.2,0.1-0.3,0.3-0.3c1.1-0.3,2.1-0.7,3.2-0.9c2.2-0.5,4.4-0.9,6.7-1.1h0.2
	c0.1,0,0.1,0,0.1,0.1c0,0,0,0,0,0c0,0.1,0,0.2,0,0.3c0,6,0,11.9,0,17.9c0,1,0,2,0.1,3c0,0.6,0.1,1.1,0.3,1.7
	c0.2,0.7,0.8,1.2,1.6,1.1c0.4,0,0.9,0,1.3,0c0.2,0,0.3,0,0.3,0.3s0,0.5,0,0.8c0,0.5,0.1,0.4-0.3,0.5c-1.4,0.5-2.8,0.9-4.3,1.3
	c-1.2,0.3-2.5,0.6-3.7,0.9c-0.3,0.1-0.3,0.1-0.5-0.2l-1.2-2.3c-0.1-0.1-0.1-0.3-0.2-0.4l-0.8,0.5c-1.1,0.7-2.2,1.3-3.4,1.7
	c-1.8,0.6-3.7,0.9-5.6,0.7c-1.1,0-2.1-0.2-3.1-0.5c-2.3-0.6-4.1-2.5-4.6-4.8c-0.3-1-0.4-2-0.5-3c-0.1-1.1-0.1-2.2-0.1-3.3
	c0-3.2,0-6.3,0-9.5c0-0.7-0.1-1.4-0.2-2.1c-0.1-0.3-0.2-0.6-0.3-0.8c-0.2-0.4-0.7-0.6-1.1-0.6c-0.5,0-0.9,0.1-1.3,0.2
	c-0.2,0.1-0.3,0.1-0.5,0.1c0-0.5,0-1,0-1.5c0-0.2,0.1-0.2,0.3-0.3c1.5-0.5,3.1-0.9,4.7-1.3c1.7-0.3,3.4-0.6,5.2-0.7h0.1
	c0.1,0,0.2,0,0.2,0.2c0,0.2,0,0.2,0,0.3c0,5.3,0,10.6,0,15.9c0,1.4,0.1,2.8,0.5,4.1c0.3,1.4,1.3,2.7,2.6,3.4
	c0.6,0.3,1.2,0.5,1.9,0.6c1.2,0.2,2.4,0.2,3.6-0.2c0.7-0.3,1.5-0.6,2.1-1c0.1,0,0.1-0.1,0.1-0.2c0-0.1,0-0.2,0-0.3
	c0-4.9,0-9.8,0-14.7c0-0.9,0-1.7-0.1-2.6c0-0.4-0.2-0.8-0.3-1.2c-0.2-0.5-0.8-0.9-1.3-0.8c-0.4,0-0.8,0.1-1.2,0.2L150,112.5z"/>
<path class="st0" d="M55,136.8c-2.3,0-4.6-0.4-6.7-1.3c-3.8-1.5-6.5-4.9-7.2-8.9c-0.6-2.7-0.5-5.6,0.3-8.2c1.1-4.1,4.3-7.4,8.3-8.7
	c2.3-0.8,4.7-1.1,7.1-0.9c1.8,0.1,3.6,0.5,5.3,1.2c4,1.5,6.9,5.2,7.5,9.4c0.5,2.8,0.3,5.7-0.7,8.4c-1.3,3.7-4.2,6.6-7.9,7.9
	C59.1,136.4,57.1,136.8,55,136.8z M62.4,123.1c0-0.3,0-0.8,0-1.2c0-1.4-0.2-2.9-0.6-4.3c-0.3-1.4-0.9-2.7-1.7-3.9
	c-1.2-1.8-3.2-2.8-5.3-2.7c-1.6,0-3.1,0.7-4.2,2c-0.8,1.1-1.4,2.3-1.8,3.6c-0.5,1.7-0.7,3.4-0.7,5.1c0,2.2,0.2,4.4,0.8,6.5
	c0.4,1.5,1.1,2.9,2,4.1c1,1.2,2.4,2,3.9,2.2c1.8,0.3,3.7-0.4,4.9-1.8c0.8-0.9,1.3-2,1.7-3.1C62.2,127.5,62.5,125.3,62.4,123.1z"/>
<path class="st1" d="M132.2,141.8c-0.8,1.1-1.7,2.1-2.7,2.9c-2,1.8-4.5,3-7.1,3.5c-2.9,0.6-5.9,0.9-8.9,0.7
	c-2.1-0.1-4.1-0.3-6.1-0.7c-2.9-0.5-5.8-1.1-8.6-1.8c-2.1-0.6-4.2-1.2-6.4-1.8c-3.7-1-7.4-1.9-11.1-2.5c-2.1-0.4-4.2-0.6-6.3-0.9
	c-3.2-0.3-6.3-0.5-9.5-0.5c-1.4,0-2.8,0-4.3,0c-1.4,0.1-2.7,0.2-4.1,0.4c-4.8,0.7-9.5,1.7-14.2,2.7c-2.7,0.5-5.4,1.1-8.1,1.5
	c-2.3,0.4-4.5,0.7-6.8,0.9c-1.8,0.1-3.7,0.1-5.5,0c-3-0.2-5.9-1-8.6-2.3c-0.8-0.4-1.6-0.9-2.3-1.4l0,0c0.1,0,0.2,0,0.3,0.1
	c1,0.5,2,1,3,1.3c1.8,0.6,3.6,1,5.5,1.3c2.2,0.2,4.4,0.3,6.7,0.1c3.5-0.2,7-0.7,10.4-1.3c3.6-0.7,7.3-1.5,10.9-2.3
	c3.6-0.8,7.6-1.6,11.5-2.3c2.5-0.4,5.1-0.8,7.6-1.1c1.9-0.2,3.8-0.4,5.7-0.5c3.2-0.2,6.4-0.3,9.5-0.3c2,0,4,0.2,6.1,0.4
	c3.4,0.3,6.7,1,10.1,1.5c4.5,0.8,9,1.9,13.4,3.2c2.1,0.6,4.3,1.2,6.5,1.6c1.8,0.4,3.6,0.5,5.5,0.5c2.8,0,5.5-1,7.6-3l0,0
	L132.2,141.8z"/>
<path class="st0" d="M211.9,136.8c-2.6,0.1-5.2-0.6-7.4-1.9c-2.9-1.6-4.9-4.4-5.6-7.6c-1-3.6-0.7-7.5,0.9-10.9
	c1.7-3.8,5.1-6.5,9.2-7.3c1.3-0.3,2.6-0.3,3.9-0.2c1.3,0.1,2.6,0.3,3.9,0.8c2.6,0.9,4.6,3,5.5,5.7c0.3,0.9,0.5,1.8,0.7,2.7
	c0,0.2,0,0.3-0.2,0.4c-1.1,0.5-2.3,1-3.5,1.4c-3.8,1.4-7.6,2.6-11.6,3.5l-1.8,0.4c-0.2,0-0.3,0.1-0.2,0.3c0.3,1.7,0.9,3.3,1.7,4.8
	c1.3,2.4,3.8,4.1,6.5,4.5c2.7,0.4,5.5-0.1,8-1.3c0.4-0.2,0.4-0.2,0.6,0.2c0.2,0.4,0.2,0.5,0.3,0.7c0.1,0.2,0,0.3-0.1,0.4
	c-1,0.8-2.1,1.4-3.2,1.9c-1.8,0.8-3.7,1.3-5.7,1.5C213,136.7,212.4,136.7,211.9,136.8z M205.2,120c0,0.3,0,0.6,0,0.9s0,0.2,0.2,0.2
	h0.2c2-0.3,4-0.7,6-1.2c1.3-0.3,2.7-0.7,4-1.1c0.3-0.1,0.3-0.1,0.3-0.4c-0.1-0.7-0.2-1.4-0.4-2c-0.3-1.2-0.8-2.3-1.5-3.3
	c-0.7-0.9-1.7-1.6-2.8-1.8c-1.6-0.4-3.3,0.2-4.2,1.6c-0.4,0.6-0.7,1.3-1,1.9C205.6,116.4,205.3,118.1,205.2,120L205.2,120z"/>
<path class="st0" d="M88.8,115.7c0,0.5,0,1.1,0,1.6c0,0.2,0,0.2-0.2,0.2h-1.8c-0.2,0-0.3-0.1-0.3-0.3c-0.1-1.1-0.5-2.3-1-3.3
	c-0.5-1-1.2-1.8-2.2-2.4c-0.9-0.5-1.9-0.8-2.9-0.6c-1.3,0.2-2.4,1.2-2.7,2.5c-0.4,1.2-0.1,2.6,0.8,3.6c0.4,0.5,0.9,0.9,1.4,1.2
	c0.9,0.5,1.7,1,2.7,1.5c1.3,0.6,2.5,1.2,3.7,1.9c1,0.6,1.8,1.3,2.6,2.1c1,1.2,1.6,2.6,1.6,4.1c0.1,1.7-0.4,3.5-1.3,4.9
	c-1,1.4-2.3,2.4-3.9,3c-1.2,0.4-2.4,0.7-3.7,0.8c-1.1,0.1-2.2,0.1-3.3,0c-2.2-0.1-4.4-0.7-6.4-1.6c-0.2-0.1-0.3-0.2-0.3-0.4
	c-0.4-1.7-0.7-3.4-0.9-5.1c0-0.8-0.1-1.7-0.1-2.5c0-0.3,0-0.3,0.3-0.3h1.7c0.2,0,0.3,0,0.3,0.3c0.2,1.5,0.8,2.9,1.6,4.1
	c0.7,1.1,1.6,1.9,2.7,2.6c1.1,0.7,2.5,1,3.9,0.8c1.7-0.3,2.9-1.7,3-3.3c0.1-1.3-0.4-2.7-1.3-3.6c-0.8-0.7-1.6-1.3-2.6-1.8
	c-1.2-0.6-2.4-1.2-3.6-1.8c-1-0.5-1.9-1.1-2.8-1.8c-1.8-1.4-2.8-3.5-2.7-5.8c0-2.3,1.2-4.5,3.2-5.8c1.2-0.8,2.6-1.3,4-1.5
	c1.6-0.3,3.2-0.3,4.7-0.2c1.7,0.2,3.4,0.6,4.9,1.3c0.2,0.1,0.4,0.3,0.4,0.5c0.3,1.3,0.4,2.7,0.5,4c0,0.3,0,0.6,0,0.9L88.8,115.7z"/>
<path class="st0" d="M131.4,132.4l0.5,1.2c0,0.2-0.1,0.2-0.2,0.3c-0.7,0.5-1.5,1-2.3,1.3c-1.5,0.7-3.2,1.1-4.8,1.3
	c-1.4,0.2-2.7,0.2-4.1,0.1c-4-0.2-7.8-2.2-10.2-5.4c-1.2-1.7-2-3.7-2.2-5.7c-0.4-2.9,0.1-5.8,1.3-8.5c1.5-3.1,4-5.5,7.1-6.9
	c2.5-1.2,5.4-1.7,8.1-1.4c1.4,0.1,2.8,0.3,4.1,0.7c0.6,0.2,1.3,0.5,1.8,0.9c0.2,0.1,0.3,0.4,0.3,0.6c-0.2,1.2-0.7,2.2-1.3,3.2
	c-0.2,0.3-0.5,0.6-0.7,0.9c-0.2,0.2-0.5,0.3-0.7,0.1c-0.1,0-0.1-0.1-0.1-0.1c-0.5-0.6-1-1.1-1.5-1.6c-1-0.9-2.2-1.5-3.4-1.8
	c-2.3-0.6-4.7,0.3-5.9,2.3c-0.7,1.1-1.2,2.3-1.4,3.5c-0.6,2.9-0.4,5.8,0.5,8.6c0.6,2.2,2,4.1,3.9,5.3c1.4,0.9,3,1.5,4.7,1.7
	c2.1,0.2,4.2-0.1,6.2-0.8l0.3-0.1H131.4z"/>
<path class="st0" d="M137.6,144.3c0-1.4,0-2.8,0-4.2c0-0.4,0-0.4,0.4-0.4h4c0.5,0,0.9,0.1,1.3,0.3c1.2,0.5,1.8,1.7,1.7,3
	c0,0.5-0.2,0.9-0.4,1.3c-0.4,0.7-1.2,1.2-2,1.3c-0.7,0-1.3,0-2,0c-0.2,0-0.4,0-0.7,0c-0.2,0-0.3,0-0.3,0.3c0,0.8,0,1.7,0,2.5
	c0,0.6,0.1,0.5-0.5,0.5h-1.1c-0.4,0-0.4,0-0.4-0.4C137.6,147.1,137.6,145.7,137.6,144.3z M139.6,142.6c0,0.4,0,0.8,0,1.2
	c0,0.1,0,0.2,0.2,0.2c0.7,0,1.3,0,2,0c0.4,0,0.7-0.2,0.9-0.5c0.5-0.6,0.4-1.4-0.1-1.9c-0.2-0.2-0.5-0.3-0.7-0.3c-0.7,0-1.4,0-2.1,0
	c-0.1,0-0.2,0.1-0.2,0.2C139.6,141.9,139.6,142.3,139.6,142.6L139.6,142.6z"/>
<path class="st0" d="M194.7,142.9c0.5-0.5,1.2-0.8,2-0.9c0.9-0.1,1.8,0.4,2.3,1.2c0.3,0.5,0.5,1,0.5,1.6c0.1,0.8,0,1.6-0.2,2.3
	c-0.3,1-1.1,1.7-2.1,1.9c-1,0.2-2-0.2-2.6-0.9c0,0.3,0,0.4,0,0.6c0,0.2,0,0.2-0.2,0.2h-1.4c-0.1,0-0.2,0-0.2-0.2s0-0.2,0-0.2
	c0-2.8,0-5.6,0-8.4c0-4.2,0-0.1,0-0.1c0-0.3,0-0.3,0.3-0.3h1.2c0.3,0,0.3,0,0.3,0.3c0,0.9,0,1.7,0,2.6
	C194.7,142.7,194.7,142.8,194.7,142.9z M197.8,145.6c0-0.4-0.1-0.9-0.3-1.3c-0.2-0.5-0.7-0.9-1.3-0.9c-0.6,0-1.1,0.3-1.3,0.9
	c-0.4,0.8-0.4,1.7,0,2.6c0.2,0.6,0.7,0.9,1.3,0.9c0.6,0,1.1-0.3,1.3-0.9C197.7,146.5,197.8,146,197.8,145.6L197.8,145.6z"/>
<path class="st0" d="M171,142.9c0-0.9,0-1.8,0-2.8c0-0.1,0-0.2,0-0.3s0-0.2,0.2-0.2h1.5c0.1,0,0.1,0,0.1,0.1s0,0.2,0,0.3
	c0,2.8,0,5.6,0,8.4c0,0.5,0,0.4-0.4,0.4h-1.1c-0.2,0-0.2-0.1-0.2-0.2c0-0.2,0-0.3,0-0.5h-0.1c-1,1.1-2.7,1.2-3.8,0.3
	c0,0-0.1-0.1-0.1-0.1c-0.3-0.2-0.6-0.5-0.7-0.9c-0.5-1.1-0.6-2.4-0.1-3.6c0.5-1.4,1.9-2.1,3.3-1.7c0.5,0.1,0.9,0.4,1.2,0.8
	L171,142.9z M171.1,145.7c0-0.5-0.1-0.9-0.2-1.3c-0.2-0.5-0.7-0.8-1.2-0.8c-0.5,0-1.1,0.3-1.3,0.7c-0.1,0.2-0.2,0.5-0.3,0.8
	c-0.1,0.7,0,1.4,0.3,2c0.3,0.5,0.8,0.8,1.3,0.7c0.6,0,1.1-0.3,1.3-0.9C171.1,146.5,171.2,146.1,171.1,145.7z"/>
<path class="st0" d="M235.7,148.9H234c-0.1,0-0.2-0.1-0.3-0.2c0,0,0,0,0,0c0-0.1,0-0.3-0.1-0.4c-0.6,0.5-1.5,0.8-2.3,0.7
	c-0.4,0-0.8-0.1-1.2-0.3c-0.5-0.3-0.9-0.8-0.9-1.4c0-0.1,0-0.3,0-0.4c0-0.8,0.5-1.5,1.2-1.7c0.5-0.2,1.1-0.3,1.7-0.3
	c0.3,0,0.7-0.1,1-0.2c0.4-0.1,0.5-0.3,0.5-0.7c0-0.4-0.2-0.7-0.6-0.8c-0.3-0.1-0.6-0.1-0.9,0c-0.4,0-0.7,0.3-0.8,0.7
	c0,0.2-0.1,0.3-0.3,0.3h-1.6c0-0.7,0.4-1.4,1-1.8c0.4-0.2,0.9-0.4,1.3-0.4c0.8-0.1,1.5-0.1,2.3,0.1c0.7,0.1,1.2,0.7,1.3,1.3
	c0,0.2,0,0.3,0,0.5c0,0.8,0,1.6,0,2.4C235.4,147.3,235.5,148.1,235.7,148.9z M233.6,145.7c-0.5,0.2-0.9,0.3-1.4,0.3
	c-0.3,0-0.5,0.1-0.7,0.2c-0.3,0.2-0.5,0.5-0.4,0.9c0,0.3,0.3,0.6,0.7,0.7h0.4c0.7,0.1,1.4-0.4,1.5-1.2c0,0,0,0,0,0
	C233.6,146.4,233.6,146,233.6,145.7L233.6,145.7z"/>
<path class="st0" d="M202.3,146.1c0,0.2,0,0.4,0.1,0.7c0.2,0.7,0.9,1.1,1.7,1c0.5,0,1-0.3,1.2-0.7c0-0.1,0.1-0.1,0.2-0.1h1.5
	c-0.3,1.1-1.1,1.9-2.2,2.2c-0.7,0.2-1.4,0.1-2.1-0.1c-1.1-0.4-1.9-1.3-2.1-2.5c-0.2-0.9-0.1-1.8,0.3-2.6c0.9-1.7,2.9-2.3,4.6-1.4
	c0.2,0.1,0.3,0.2,0.5,0.3c0.7,0.6,1.1,1.4,1.2,2.3c0,0.2,0,0.5,0,0.7c0,0.3-0.1,0.3-0.3,0.3h-4C202.7,146.1,202.5,146.1,202.3,146.1
	z M203.8,144.9h1.3c0.2,0,0.3,0,0.2-0.3c-0.1-0.7-0.7-1.2-1.3-1.1c-0.7-0.1-1.4,0.4-1.5,1.1c0,0.2,0,0.3,0.2,0.3H203.8z"/>
<path class="st0" d="M185.5,149.1c-0.6,0-1.2-0.1-1.7-0.3c-1-0.5-1.7-1.4-1.8-2.5c-0.1-0.6-0.1-1.2,0-1.7c0.3-1.4,1.5-2.4,3-2.5
	c0.4,0,0.9,0,1.3,0.1c1.2,0.3,2.1,1.2,2.3,2.3c0.2,0.8,0.2,1.7-0.1,2.5c-0.4,1.1-1.3,1.9-2.5,2.1
	C185.9,149.1,185.7,149.1,185.5,149.1z M187,145.6c0-0.4-0.1-0.8-0.2-1.2c-0.2-0.6-0.8-0.9-1.4-0.9c-0.6,0-1.1,0.3-1.3,0.9
	c-0.3,0.8-0.3,1.7,0,2.5c0.2,0.6,0.7,0.9,1.3,0.9c0.6,0,1.1-0.3,1.3-0.9C186.9,146.5,187,146,187,145.6L187,145.6z"/>
<path class="st0" d="M163.2,148.1l-0.1,0.1c-0.7,0.8-1.8,1.2-2.8,0.9c-0.8-0.2-1.4-0.9-1.5-1.7c0-0.3-0.1-0.5-0.1-0.8
	c0-1.3,0-2.7,0-4c0-0.3,0-0.3,0.3-0.3h1.2c0.3,0,0.3,0,0.3,0.3c0,1.1,0,2.2,0,3.3c0,0.3,0,0.6,0.1,0.9c0.1,0.5,0.5,0.9,1.1,0.9
	c0.7,0.1,1.3-0.4,1.3-1.1c0,0,0,0,0,0c0-0.3,0.1-0.6,0.1-0.9c0-1,0-2.1,0-3.1c0-0.4,0-0.3,0.4-0.3c0.4,0,0.8,0,1.2,0
	c0.4,0,0.3,0.1,0.3,0.3c0,0.7,0,1.3,0,2c0,1.4,0,2.7,0,4.1c0,0.3,0,0.3-0.3,0.3h-1.2c-0.2,0-0.2,0-0.2-0.2
	C163.2,148.5,163.2,148.3,163.2,148.1z"/>
<path class="st0" d="M213.9,145.6c-0.1-0.8,0.2-1.7,0.7-2.3c0.6-0.7,1.4-1.1,2.3-1.2c0.5-0.1,1-0.1,1.5,0.1c1.4,0.3,2.4,1.6,2.4,3
	c0.1,0.6,0,1.2-0.2,1.8c-0.4,1.1-1.3,1.9-2.4,2.1c-0.6,0.1-1.2,0.1-1.8,0c-1.4-0.3-2.4-1.5-2.5-2.9
	C213.9,145.9,213.9,145.8,213.9,145.6z M219,145.6c0-0.4,0-0.8-0.2-1.1c-0.2-0.6-0.8-1-1.4-1c-0.7-0.1-1.3,0.4-1.4,1
	c-0.3,0.7-0.3,1.6,0,2.3c0.2,0.6,0.8,1,1.4,1c0.6,0,1.2-0.4,1.4-1C219,146.4,219,146,219,145.6L219,145.6z"/>
<path class="st0" d="M150.9,145.6c-0.1-1.8,1.2-3.4,3-3.5c0,0,0,0,0,0c0.5,0,1,0,1.5,0.1c1,0.3,1.9,1.1,2.2,2.1
	c0.3,0.8,0.3,1.7,0,2.5c-0.3,1.2-1.3,2-2.5,2.2c-0.6,0.1-1.2,0.1-1.8,0c-1.4-0.3-2.4-1.5-2.5-2.9
	C150.9,145.9,150.9,145.8,150.9,145.6z M155.9,145.6c0-0.2,0-0.5,0-0.7c0-0.2-0.1-0.3-0.1-0.5c-0.2-0.6-0.8-1-1.5-1
	c-0.6,0-1.2,0.4-1.3,1c-0.3,0.7-0.3,1.6,0,2.3c0.2,0.6,0.8,1,1.4,1c0.7,0,1.3-0.4,1.5-1C155.9,146.3,156,146,155.9,145.6
	L155.9,145.6z"/>
<path class="st0" d="M228.4,146.4c-0.1,1.2-0.9,2.2-2,2.6c-0.8,0.3-1.6,0.3-2.4,0c-1.2-0.4-2.1-1.5-2.2-2.9c-0.1-0.6,0-1.3,0.2-1.9
	c0.4-1.2,1.5-2.1,2.8-2.1c0.5-0.1,1.1,0,1.6,0.2c1.1,0.3,1.9,1.2,1.9,2.3c-0.1,0.1-0.2,0-0.3,0c-0.3,0-0.6,0-0.9,0
	c-0.3,0-0.6,0-0.7-0.4c-0.3-0.7-1.1-1-1.8-0.6c-0.2,0.1-0.4,0.2-0.5,0.4c-0.2,0.3-0.4,0.6-0.4,1c-0.1,0.6-0.1,1.3,0.2,1.9
	c0.2,0.7,1,1.1,1.7,0.8c0.5-0.1,0.9-0.5,1-1c0.1-0.3,0.1-0.3,0.4-0.3L228.4,146.4z"/>
<path class="st0" d="M178.1,140.2h1.7c0.1,0,0.2,0.1,0.2,0.2c0,0.4,0,0.9,0,1.3c0,0.1,0,0.2,0,0.3c0,0.1,0,0.2,0.2,0.2h0.9
	c0.1,0,0.2,0,0.2,0.2c0,0.2,0,0.6,0,0.9c0,0.3,0,0.2-0.2,0.2h-0.9c-0.2,0-0.3,0-0.3,0.2c0,1.1,0,2.2,0,3.3c0,0.4,0.1,0.5,0.5,0.6
	h0.4h0.4c0,0.4,0,0.9,0,1.3c0,0.1,0,0.1-0.1,0.2c0,0,0,0,0,0c-0.6,0.1-1.2,0.1-1.9,0c-0.7-0.1-1.3-0.7-1.2-1.5c0-1.2,0-2.4,0-3.5
	c0-0.5,0-0.5-0.5-0.5s-0.7,0-0.7-0.7c0-0.7,0-0.6,0.6-0.6s0.5,0,0.5-0.5L178.1,140.2z"/>
<path class="st0" d="M212.7,144.4c0,1.4,0,2.8,0,4.2c0,0.4,0,0.4-0.4,0.4h-1.2c-0.2,0-0.3,0-0.3-0.3c0-0.8,0-1.5,0-2.3
	c0-2.1,0-4.1,0-6.2c0-0.1,0-0.2,0-0.3c0-0.1,0-0.2,0.2-0.2h1.5c0.1,0,0.2,0.1,0.2,0.2c0,0.1,0,0.2,0,0.3
	C212.7,141.6,212.7,143,212.7,144.4z"/>
<path class="st0" d="M238.5,144.3c0,1.4,0,2.9,0,4.3c0,0.3,0,0.3-0.3,0.3h-1.3c-0.1,0-0.2,0-0.2-0.2c0-0.2,0-0.2,0-0.2
	c0-2.8,0-5.5,0-8.3c0-4.2,0-0.1,0-0.2c0-0.3,0-0.3,0.3-0.3h1.2c0.3,0,0.3,0,0.3,0.3C238.5,141.4,238.5,142.8,238.5,144.3z"/>
<path class="st0" d="M147.8,143.3c0.4-0.6,1-1,1.7-1.2h0.2c0.6-0.1,0.7,0,0.7,0.6c0,0.4,0,0.8,0,1.2c-0.3,0-0.7,0-1,0
	c-0.7,0.1-1.2,0.6-1.3,1.2c-0.1,0.3-0.1,0.6-0.1,0.9c0,0.9,0,1.8,0,2.7c0,0.4,0,0.4-0.3,0.4h-1.2c-0.3,0-0.3,0-0.3-0.3
	c0-1.8,0-3.6,0-5.3c0-0.3,0-0.5,0-0.8s0-0.2,0.2-0.2h1.3c0.2,0,0.3,0.1,0.2,0.3C147.8,142.8,147.8,143,147.8,143.3z"/>
<path class="st1" d="M11.6,142.4L11.6,142.4L11.6,142.4L11.6,142.4L11.6,142.4z"/>
<path class="st1" d="M132.2,141.6c0,0,0-0.1,0.1,0c0.1,0.1,0,0.1,0,0.1L132.2,141.6z"/>
<path class="st1" d="M11.6,142.4L11.6,142.4L11.6,142.4L11.6,142.4z"/>
<path class="st1" d="M11.6,142.5C11.6,142.5,11.7,142.5,11.6,142.5L11.6,142.5L11.6,142.5z"/>
<path class="st1" d="M132.1,141.7L132.1,141.7h0.2v0.1L132.1,141.7z"/>
</svg>
