<?xml version="1.0" encoding="utf-8"?>
<!-- Generator: Adobe Illustrator 21.1.0, SVG Export Plug-In . SVG Version: 6.00 Build 0)  -->
<svg version="1.1" id="Layer_1" xmlns="http://www.w3.org/2000/svg" xmlns:xlink="http://www.w3.org/1999/xlink" x="0px" y="0px"
	 viewBox="0 0 250 250" style="enable-background:new 0 0 250 250;" xml:space="preserve">
<style type="text/css">
	.st0{fill:#FFFFFF;}
	.st1{fill:#E21837;}
	.st2{fill:#025EAA;}
</style>
<title>Club</title>
<path class="st0" d="M12.8,140.9h65.9c3.7,0,6.7,3,6.7,6.7v4.1c0,3.7-3,6.7-6.7,6.7H12.8c-3.7,0-6.7-3-6.7-6.7v-4.1
	C6.2,143.9,9.2,140.9,12.8,140.9z"/>
<ellipse transform="matrix(0.9373 -0.3486 0.3486 0.9373 -32.2367 91.0352)" class="st0" cx="236.9" cy="135.1" rx="3.5" ry="2.7"/>
<path class="st1" d="M97,114.6c0.7-4.8,3.5-8,7.4-10.4c4.7-2.7,10-4,15.4-3.8c4,0,8,1,11.6,2.8c0.5,0.2,0.6,0.4,0.2,0.9
	c-1.8,2.7-3.6,5.4-5.4,8.2c-0.3,0.4-0.5,0.4-0.9,0.2c-2.6-1.6-5.6-2.5-8.6-2.4c-0.7,0-1.4,0.2-2,0.4c-0.3,0.1-0.6,0.3-0.9,0.5
	c-0.6,0.4-0.7,1.1-0.4,1.7c0.2,0.3,0.5,0.5,0.8,0.5c1.2,0.3,2.3,0.6,3.5,0.8c2.4,0.3,4.8,1,7.1,2c3.3,1.6,4.9,4.1,4.6,7.4
	c-0.1,1.9-0.7,3.7-1.7,5.3c-1.9,2.9-4.7,5.2-7.9,6.4c-4.7,2-9.8,2.8-14.9,2.3c-4.2-0.3-8.4-1.2-12.3-2.7c-1.1-0.4-1.1-0.4-0.4-1.4
	c1.9-2.9,3.9-5.8,5.8-8.6c0.3-0.4,0.5-0.5,0.9-0.2c2.3,1.8,5.1,3,8,3.4c1.4,0.2,2.8,0.1,4.1-0.3c0.6-0.2,1.1-0.5,1.5-1
	c0.5-0.5,0.6-1.3,0.1-1.9c-0.2-0.2-0.4-0.3-0.6-0.4c-0.9-0.3-1.9-0.5-2.8-0.6c-2.1-0.2-4.2-0.7-6.3-1.3c-0.8-0.3-1.5-0.6-2.3-1
	c-2-1-3.3-2.9-3.7-5.1c-0.1,2.5-0.7,4.9-1.8,7.2c-2.2,4.5-5.9,8.2-10.4,10.4c-5.4,2.7-11.5,4-17.5,3.7c-4.3,0-8.4-1.1-12.2-3.1
	c-3.5-1.8-6.1-5.1-7-9c-0.7-3.5-0.3-7.2,1.3-10.4c2.2-4.7,6-8.4,10.7-10.7c5.9-3,12.5-4.3,19.1-3.6c3.9,0.2,7.6,1.4,11,3.5
	c3.7,2.2,6.1,5.9,6.7,10.2c0,0.1,0,0.2,0,0.3C96.8,114.6,97,114.5,97,114.6z M73.6,112.2c-0.7,0-1.4,0.1-2.1,0.2
	c-3,0.5-5.6,2.5-6.9,5.3c-1.6,3.8,0.1,7.2,4.1,8.1c1.6,0.4,3.3,0.4,4.9,0c3.1-0.5,5.6-2.7,6.7-5.7c1.2-2.8-0.2-6.1-3-7.2
	c-0.1-0.1-0.3-0.1-0.4-0.1C75.8,112.4,74.7,112.2,73.6,112.2L73.6,112.2z"/>
<path class="st0" d="M107.9,138c-0.9,0-1.9,0-2.9-0.1c-4.3-0.3-8.5-1.2-12.5-2.8c-0.7-0.3-1.1-0.4-1.3-0.9c-0.2-0.5,0.1-0.9,0.5-1.5
	l1.5-2.2c1.4-2.1,2.9-4.3,4.3-6.4c0.2-0.3,0.5-0.5,0.8-0.6c0.4,0,0.7,0.1,1,0.3c2.2,1.8,4.9,2.9,7.7,3.2c1.3,0.2,2.6,0.1,3.8-0.3
	c0.5-0.1,0.9-0.4,1.2-0.8c0.2-0.2,0.3-0.5,0.3-0.7c-0.1-0.2-0.3-0.4-0.6-0.5c-0.7-0.2-1.3-0.4-2-0.4l-0.7-0.1L108,124
	c-1.8-0.2-3.6-0.6-5.3-1.2c-0.8-0.3-1.6-0.7-2.4-1.1c-1.3-0.7-2.3-1.7-3.1-2.9c-0.3,1.6-0.8,3.2-1.5,4.7c-2.2,4.7-6,8.4-10.7,10.7
	c-5.5,2.8-11.7,4.1-17.8,3.7c-4.4,0-8.7-1.1-12.5-3.2c-3.7-1.9-6.4-5.4-7.3-9.4c-0.7-3.7-0.2-7.5,1.4-10.8c2.3-4.8,6.1-8.7,11-11
	c6-3.1,12.7-4.4,19.4-3.7c4,0.3,7.8,1.5,11.2,3.6c2.8,1.6,4.9,4.1,6.1,7.1l0,0c0.1,0.4,0.3,0.7,0.4,1.1c1.3-3.5,3.8-6.4,7.1-8.1
	c4.8-2.8,10.2-4.2,15.8-3.9c4.1,0,8.2,1,11.9,2.9c0.4,0.1,0.6,0.4,0.8,0.8c0.1,0.4,0,0.8-0.3,1.1c-1.7,2.6-3.5,5.2-5.3,8.1
	c-0.3,0.6-0.9,0.8-1.5,0.5c-0.1,0-0.2-0.1-0.2-0.2c-2.5-1.6-5.3-2.4-8.2-2.3c-0.6,0-1.2,0.1-1.8,0.4c-0.3,0.1-0.5,0.2-0.7,0.4
	c-0.2,0.2-0.3,0.4-0.3,0.7c0,0.2,0.2,0.3,0.5,0.5c0.8,0.3,1.6,0.5,2.5,0.6l1,0.2h0.3c2.4,0.4,4.7,1,7,2c3.2,1.3,5.2,4.5,5,8
	c-0.1,2-0.8,3.9-1.8,5.5c-2,3-4.8,5.4-8.2,6.7C116.4,137.2,112.2,138.1,107.9,138z M92.7,133.8l0.3,0.1c3.9,1.5,8,2.4,12.1,2.7
	c5,0.4,10-0.3,14.5-2.3c3.1-1.2,5.8-3.4,7.6-6.2c0.9-1.5,1.5-3.2,1.6-5c0.2-2.9-1.5-5.6-4.3-6.7c-2.1-0.9-4.4-1.5-6.7-1.9h-0.3
	l-0.9-0.2c-0.9-0.1-1.8-0.3-2.7-0.6c-0.7-0.2-1.2-0.8-1.3-1.4c-0.1-0.7,0.2-1.4,0.7-1.9c0.3-0.3,0.7-0.5,1.1-0.7
	c0.7-0.3,1.4-0.4,2.2-0.4c3.2-0.1,6.3,0.8,8.9,2.5c1.9-2.9,3.6-5.5,5.3-8.1c-3.5-1.7-7.4-2.6-11.3-2.7c-5.3-0.3-10.5,1-15,3.7
	c-4.2,2.5-6.5,5.8-7.1,10l-0.1,0.8l0.1,0.5c0.4,2,1.6,3.7,3.4,4.6c0.7,0.4,1.4,0.7,2.2,1c1.6,0.5,3.3,0.9,5,1.1l1.1,0.2l0.6,0.1
	c0.8,0.1,1.6,0.3,2.3,0.5c0.6,0.2,1.1,0.7,1.3,1.3c0.2,0.7,0,1.4-0.5,1.9c-0.5,0.6-1.1,1-1.8,1.2c-1.4,0.5-2.9,0.6-4.4,0.4
	c-3-0.4-5.9-1.6-8.3-3.5c-1.4,2.1-2.9,4.3-4.3,6.4l-1.5,2.2L92.7,133.8z M75.8,101c-5.3,0-10.6,1.2-15.4,3.7
	c-4.5,2.2-8.2,5.8-10.4,10.3c-1.6,3.1-2,6.6-1.3,10c0.8,3.7,3.3,6.9,6.7,8.6c3.7,2,7.7,3,11.9,3.1c5.9,0.3,11.9-0.9,17.2-3.6
	c4.4-2.1,8-5.6,10.1-10c1-2.2,1.6-4.5,1.7-6.9v-1.2c-0.1-0.1-0.1-0.2-0.1-0.3l0,0c0-0.1,0-0.2,0-0.3c-0.5-4.1-2.9-7.6-6.4-9.7
	c-3.2-2-6.9-3.1-10.7-3.4C78,101.1,76.9,101,75.8,101z M97.6,114.3L97.6,114.3z M71.1,126.7c-0.8,0-1.7-0.1-2.5-0.3
	c-3.4-0.5-5.7-3.6-5.3-7c0.1-0.7,0.3-1.4,0.7-2c1.3-3,4.1-5.2,7.3-5.7c0.6-0.1,1.2-0.2,1.7-0.2h0.5h0.1c1.2,0,2.4,0.2,3.5,0.6
	c3.2,1,5,4.5,4,7.8c-0.1,0.2-0.1,0.3-0.2,0.5c-1.1,3.2-3.8,5.5-7.1,6.1C72.9,126.7,72,126.7,71.1,126.7L71.1,126.7z M73.6,112.8
	h-0.5c-0.5,0-1,0.1-1.5,0.2c-2.8,0.4-5.3,2.3-6.4,4.9c-0.7,1.4-0.7,3.1-0.1,4.6c0.8,1.4,2.2,2.4,3.8,2.7c1.5,0.4,3.1,0.4,4.6,0
	c2.9-0.5,5.3-2.5,6.2-5.3c1.1-2.5-0.1-5.4-2.6-6.4c-0.1-0.1-0.3-0.1-0.4-0.1C75.7,113,74.7,112.8,73.6,112.8L73.6,112.8z"/>
<path class="st1" d="M49.5,110.3c-1-0.9-2.1-1.7-3.3-2.3c-5.4-3.2-12.4-2.6-17.1,1.6c-1.2,1-2.1,2.3-2.7,3.8c-1,2.6-0.2,5.6,2.1,7.2
	c2.1,1.6,4.8,2.4,7.4,2.2c4-0.1,7.8-1.4,11.2-3.6l0.6-0.4c-0.5,2-0.9,3.9-1.3,5.8c-0.8,3.3-1.6,6.5-2.3,9.8
	c-0.1,0.4-0.3,0.7-0.7,0.8c-2.3,0.6-4.6,1-7,1.1c-3.1,0.3-6.2,0.4-9.2,0.3c-5.2-0.2-10.3-1.9-14.6-4.9c-6-4.3-8.4-12-6-18.9
	c1.5-4.6,4.2-8.7,8-11.8c5.2-4.4,11.5-7.4,18.2-8.4c6.2-1,12.6-0.6,18.7,1c0.5,0.1,0.7,0.3,0.6,0.8c-0.7,4.4-1.5,8.8-2.2,13.1
	L49.5,110.3z"/>
<path class="st0" d="M29.8,137.4c-0.9,0-1.8,0-2.7-0.1c-5.4-0.2-10.6-1.9-14.9-5.1c-6.2-4.4-8.8-12.4-6.2-19.6
	c1.5-4.8,4.4-9,8.2-12.2c5.3-4.5,11.7-7.5,18.5-8.6c6.3-1,12.8-0.6,19,1.1c0.7,0.1,1.2,0.7,1.1,1.4c0,0.1,0,0.1,0,0.2
	c-0.6,3.3-1.1,6.7-1.7,10l-0.5,3.1l-0.2,1.8l-0.3,2l-0.9-0.7c-1-0.8-2.1-1.6-3.2-2.3c-5.2-3.1-11.8-2.5-16.4,1.5
	c-1.1,1-1.9,2.2-2.4,3.5c-0.9,2.3-0.1,5,1.9,6.5c2,1.5,4.5,2.3,7,2.1c3.9-0.1,7.6-1.3,10.8-3.5l0.4-0.2l1.6-1l-0.8,3.4l-0.9,4
	l-0.8,2.9c-0.5,2.2-1.1,4.6-1.6,6.8c-0.1,0.6-0.6,1.1-1.2,1.3c-2.3,0.6-4.7,1-7.1,1.2C34.4,137.2,32.1,137.4,29.8,137.4z M39.6,92.7
	c-2.2,0-4.5,0.2-6.7,0.5c-6.6,1-12.8,3.9-17.9,8.3c-3.6,3-6.3,7-7.8,11.5c-2.3,6.7,0.1,14.1,5.8,18.2c4.2,3,9.1,4.7,14.2,4.8
	c3.1,0.1,6.1,0,9.1-0.3c2.3-0.2,4.6-0.6,6.9-1.1c0.2,0,0.2-0.1,0.3-0.3c0.5-2.3,1.1-4.6,1.6-6.9l0.7-3l0.9-4l0.1-0.3
	c-3.2,2-7,3.2-10.8,3.3c-2.8,0.2-5.6-0.7-7.9-2.4c-2.5-1.9-3.4-5.1-2.3-8c0.6-1.6,1.5-3,2.8-4.1c5-4.4,12.2-5.1,17.9-1.7
	c0.9,0.5,1.7,1.1,2.4,1.7l0.3-1.6l0.5-3.1c0.5-3.3,1.1-6.7,1.7-10l0,0h-0.1C47.6,93.2,43.6,92.7,39.6,92.7L39.6,92.7z"/>
<path class="st1" d="M216.1,137.4c-4.4,0.1-8.8-0.8-12.8-2.7c-4.1-2-7-5.1-8-9.7c-0.7-3.9,0-7.9,1.9-11.3c2.4-4.3,6-7.7,10.5-9.7
	c7.5-3.8,16.2-4.7,24.4-2.3c3,0.8,5.8,2.3,8,4.5c3.6,3.4,5,8.5,3.7,13.3c-1.3,5.6-4.8,10.4-9.8,13.2c-4.4,2.6-9.3,4.2-14.4,4.6
	C218.4,137.3,217.3,137.4,216.1,137.4z M220.9,112.2c-0.4,0-0.9,0-1.3,0.1c-3.3,0.2-6.3,2.3-7.7,5.3c-1.7,3.9,0,7.3,4.1,8.2
	c1.3,0.3,2.7,0.3,4.1,0.1c3.1-0.3,5.8-2.3,7.1-5.1c1.5-2.7,0.5-6.2-2.2-7.7c-0.6-0.3-1.2-0.5-1.8-0.6
	C222.5,112.2,221.7,112.2,220.9,112.2z"/>
<path class="st0" d="M216.1,138L216.1,138c-4.5,0.1-9-0.8-13.1-2.8c-4.6-2.3-7.4-5.7-8.3-10.1c-0.8-4,0-8.2,2-11.8
	c2.4-4.4,6.2-7.9,10.8-10c7.7-3.9,16.5-4.7,24.8-2.4c3.1,0.8,6,2.4,8.3,4.7c3.7,3.6,5.2,8.9,3.9,13.9c-1.3,5.8-5,10.7-10.1,13.6
	c-4.5,2.7-9.6,4.3-14.8,4.7c-1.1,0.1-2.1,0.1-3.2,0.1L216.1,138z M223,101c-5.2,0-10.3,1.2-14.9,3.6c-4.3,2-7.9,5.3-10.2,9.4
	c-1.9,3.3-2.6,7.2-1.9,10.9c0.8,4,3.3,7.1,7.6,9.2c3.9,1.9,8.2,2.8,12.5,2.7h0.3c1,0,2.1,0,3.1-0.1c5-0.4,9.9-1.9,14.2-4.5
	c4.8-2.7,8.3-7.4,9.5-12.8c1.2-4.5-0.1-9.4-3.5-12.7c-2.1-2.1-4.8-3.6-7.7-4.3C229.1,101.5,226,101,223,101z M218.3,126.7
	c-0.8,0-1.6-0.1-2.4-0.3c-2-0.3-3.8-1.6-4.7-3.4c-0.8-1.8-0.8-3.9,0.1-5.7c1.5-3.3,4.7-5.5,8.3-5.7c0.3,0,0.7,0,1-0.1h0.4h0.3
	c0.8,0,1.6,0.1,2.3,0.3c2,0.4,3.6,1.7,4.6,3.4c0.8,1.9,0.8,4-0.1,5.8c-1.4,3-4.3,5.1-7.6,5.5C219.7,126.7,219,126.8,218.3,126.7z
	 M220.9,112.8h-0.4c-0.3,0-0.6,0-0.9,0.1c-3.1,0.2-5.9,2.1-7.2,5c-0.7,1.4-0.8,3.1-0.1,4.6c0.8,1.4,2.2,2.4,3.8,2.7
	c1.3,0.3,2.6,0.3,3.9,0.1c2.9-0.3,5.4-2.1,6.7-4.7c0.8-1.5,0.8-3.2,0.1-4.7c-0.8-1.4-2.1-2.4-3.7-2.7c-0.7-0.1-1.4-0.2-2.1-0.2
	L220.9,112.8z"/>
<path class="st1" d="M195.5,115.5c-1.4-1.2-2.9-2.2-4.7-2.9c-4.5-1.7-9.6-0.3-12.7,3.4c-1.1,1.3-1.6,3.1-1.3,4.8
	c0.5,2.2,2.2,4,4.4,4.5c2.9,0.8,6,0.6,8.8-0.6c1.4-0.6,2.8-1.3,4.1-2.2c-0.3,1.2-0.5,2.2-0.7,3.3c-0.7,3.2-1.5,6.4-2.2,9.6
	c0,0.4-0.3,0.7-0.7,0.7c-4.7,1.1-9.4,1.4-14.2,1.1c-4.9-0.6-9.3-2.3-12.6-6.1c-3.2-3.6-4.2-8.7-2.7-13.2c1.5-5,4.7-9.3,9.1-12.1
	c5.4-3.8,11.9-5.7,18.5-5.3c2.9,0.1,5.8,0.6,8.5,1.3c0.4,0.1,0.5,0.2,0.5,0.6c-0.7,4.3-1.4,8.6-2.1,12.9
	C195.6,115.3,195.6,115.4,195.5,115.5z"/>
<path class="st0" d="M179.6,138.1c-1.1,0-2.2-0.1-3.3-0.2c-5.7-0.7-10-2.8-13-6.3c-3.3-3.8-4.4-9.1-2.8-13.8
	c1.5-5.2,4.8-9.6,9.3-12.5c5.5-3.9,12.2-5.8,18.9-5.5c2.9,0.1,5.9,0.6,8.7,1.3c0.6,0.1,1,0.6,0.9,1.2c0,0,0,0.1,0,0.1
	c-0.5,3.1-1,6.2-1.5,9.3l-0.6,3.6c0,0.1,0,0.2-0.1,0.3v0.1l-0.3,0.9l-0.7-0.6c-1.3-1.2-2.8-2.1-4.5-2.7c-4.3-1.6-9-0.3-11.9,3.2
	c-1,1.2-1.4,2.7-1.2,4.3c0.4,2,2,3.6,4,4c2.8,0.8,5.7,0.6,8.4-0.6c1.4-0.6,2.8-1.3,4-2.2l1.3-0.9l-0.4,1.6l-0.3,1.1
	c-0.2,0.8-0.3,1.5-0.5,2.2l-0.6,2.8c-0.5,2.2-1.1,4.5-1.5,6.8c-0.1,0.6-0.6,1.1-1.2,1.2c-2.2,0.6-4.5,0.9-6.8,1.1
	C182.5,138,181.1,138.1,179.6,138.1z M187.5,101c-6.1,0-12,1.8-16.9,5.3c-4.3,2.7-7.4,6.9-8.8,11.8c-1.4,4.4-0.5,9.2,2.5,12.6
	c2.9,3.3,6.7,5.2,12.2,5.9c2.4,0.2,4.9,0.2,7.3,0c2.2-0.1,4.5-0.5,6.7-1c0.2,0,0.2,0,0.2-0.2c0.5-2.3,1-4.6,1.5-6.8l0.6-2.8l0.4-1.7
	c-0.9,0.5-1.9,1-3,1.3c-2.9,1.3-6.2,1.5-9.2,0.6c-2.5-0.6-4.4-2.6-4.9-5.1c-0.3-1.9,0.2-3.8,1.4-5.3c1.5-2,3.6-3.4,6-4
	c2.4-0.7,5-0.6,7.4,0.3c1.4,0.5,2.8,1.3,4,2.3l0.4-2.8c0.5-3,1-6.1,1.5-9.2c-2.7-0.7-5.5-1.2-8.4-1.3L187.5,101z"/>
<path class="st1" d="M131.1,136.8l3.1-10.1l4.1-13.7c0.2-0.7,0.2-0.7-0.5-0.7c-2.5,0.1-5.1,0.2-7.6,0.3c-0.4,0-0.5,0-0.4-0.5
	c1.1-3.6,2.2-7.1,3.3-10.7c0.1-0.5,0.5-0.4,0.8-0.4h30.9c0.6-0.1,1.3,0,1.9,0.1c-0.2,0.6-0.3,1.2-0.5,1.8c-0.9,3.1-1.9,6.1-2.8,9.2
	c-0.1,0.4-0.3,0.6-0.8,0.6c-2.5-0.1-5-0.2-7.5-0.3c-0.4,0-0.6,0.1-0.7,0.5c-2.4,7.8-4.7,15.6-7.1,23.4c-0.1,0.5-0.3,0.7-0.8,0.7
	c-4.9,0-9.8,0-14.7,0L131.1,136.8z"/>
<path class="st0" d="M146.4,137.5L146.4,137.5c-3.8,0-7.6,0-11.3,0h-4.9l1.1-3.8l2.2-7.2l4.1-13.5h-1.5l-5.9,0.2
	c-0.5,0.1-1-0.2-1.1-0.7c0-0.2,0-0.4,0.1-0.6c1.2-3.8,2.2-7.2,3.2-10.7c0.2-0.6,0.7-1,1.3-0.9h31.5c0.5,0,1.1,0,1.6,0.1l0.6,0.2
	l-0.2,0.6l-0.1,0.5c-0.1,0.4-0.2,0.8-0.3,1.2l-0.9,3.1c-0.6,2-1.2,4.1-1.8,6.1c-0.1,0.7-0.8,1.1-1.5,1.1c-1.3-0.1-2.8-0.1-4.2-0.2
	L155,113l0,0v0.1l-3.4,10.8c-1.3,4.1-2.5,8.4-3.8,12.6C147.7,137.1,147.1,137.6,146.4,137.5z M138.3,136.2h8.2c0-0.1,0-0.1,0-0.2
	c1.3-4.2,2.5-8.4,3.8-12.6l3.3-10.8c0.1-0.6,0.7-1.1,1.3-1l3.3,0.1c1.3,0,2.8,0.1,4.2,0.2h0.1v-0.1c0.6-2,1.2-4.1,1.8-6.1l0.9-3.1
	c0.1-0.3,0.2-0.7,0.3-1h-32c-1,3.4-2,6.7-3.1,10.3l5.6-0.2h1.7c0.5,0,0.9,0,1.1,0.3s0.2,0.7,0,1.2l-4.2,13.7l-2.2,7.2l-0.6,2.1
	H138.3L138.3,136.2z"/>
<path class="st2" d="M79.1,146h-0.8c-23.4,0-46.8,0-70.3,0c-0.7,0-0.9-0.2-0.8-0.8c0-1,0-2,0-3c0-0.5,0.1-0.6,0.6-0.6h69.5
	c0.6,0,0.9,0.1,1,0.8C78.5,143.6,78.8,144.8,79.1,146z"/>
<path class="st2" d="M43.8,151.9H8c-0.6,0-0.8-0.1-0.8-0.7c0-1,0-1.9,0-2.9c0-0.4,0.1-0.6,0.6-0.5c0.1,0,0.2,0,0.3,0h70.6
	c0.6,0,0.9,0.1,1,0.8c0.1,1,0.4,2,0.7,2.9c0.1,0.3,0,0.5-0.3,0.5c-0.1,0-0.3,0-0.5,0L43.8,151.9z"/>
<path class="st2" d="M44.4,157.7c-12.1,0-24.3,0-36.4,0c-0.6,0-0.8-0.1-0.8-0.8c0.1-0.9,0.1-1.8,0-2.7c0-0.6,0.2-0.7,0.7-0.7H8
	c24,0,48,0,72,0c0.6,0,0.9,0.2,1,0.8c0.2,1,0.4,1.9,0.7,2.9c0.1,0.3,0,0.5-0.4,0.5c-0.2,0-0.3,0-0.5,0L44.4,157.7z"/>
<path class="st1" d="M236.7,137.3c-1,0.1-2-0.4-2.5-1.3c-0.3-0.9,0.1-1.9,0.9-2.4c0.9-0.8,2.1-1,3.2-0.6c1,0.2,1.6,1.2,1.3,2.2
	c-0.1,0.3-0.2,0.5-0.3,0.7C238.7,136.8,237.7,137.3,236.7,137.3z M237.9,136.3c0.6-0.2,1.1-0.9,1-1.5c0-0.6-0.5-1.1-1.1-1.3
	c-0.7-0.2-1.4-0.1-2,0.2c-0.7,0.3-1.1,1-1.1,1.7c0,0.5,0.3,1,0.8,1.1C236.4,136.9,237.3,136.8,237.9,136.3L237.9,136.3z"/>
<path class="st2" d="M159.2,152.5c-1.5,0-3.1,0-4.6,0c-0.8,0-0.8,0-0.6-0.8c0.6-3.2,1.2-6.4,1.9-9.7c0.1-0.4,0-0.6-0.4-0.6
	c-2,0-4,0-6,0c-0.4,0-0.6,0.1-0.6,0.5c-0.4,2.1-0.8,4.2-1.2,6.4c0-0.1-0.1-0.2-0.1-0.2c-0.1-2.9-2-5.4-4.8-6.1c-2.8-1-5.9-1-8.7-0.1
	c-3.2,0.7-6,2.9-7.4,5.8c0,0.1-0.1,0.2-0.2,0.2c-0.1,0,0-0.1,0-0.1c0.5-1.9,0.7-3.8,1.1-5.7c0.1-0.4,0-0.6-0.5-0.6
	c-1.9,0-3.8,0-5.6,0c-0.5,0-0.6,0.2-0.7,0.6c-0.3,1.4-0.5,2.9-0.8,4.3c-0.1,0.5-0.3,0.6-0.7,0.5c-1,0-2,0-3,0
	c-0.7,0-0.7-0.2-0.6-0.8c0.3-1.4,0.5-2.8,0.8-4.3c0.1-0.4,0-0.5-0.4-0.5h-12.7c-0.3,0-0.5,0.1-0.6,0.4c-1.5,2.9-2.8,5.9-4,9
	c0,0.1-0.1,0.2-0.2,0.2c0-0.1,0-0.2,0-0.3c-0.3-2.9-0.5-5.8-0.7-8.8c0-0.4-0.1-0.5-0.5-0.5c-1.5,0-3,0-4.5,0c-0.3,0-0.6,0.2-0.7,0.5
	c-0.7,1.4-1.3,2.8-2.1,4.2c-0.9,1.6-1.7,3.2-2.3,5c-0.2-0.2-0.2-0.4-0.2-0.6c-0.2-2.8-0.4-5.7-0.5-8.5c0-0.4-0.1-0.5-0.5-0.5
	c-2.1,0-4.2,0-6.2,0c-0.5,0-0.5,0.2-0.4,0.6c1.2,5,2.3,10,3.5,15.1c0.1,0.4,0.2,0.5,0.6,0.5c1.7,0,3.4,0,5.1,0
	c0.3,0,0.6-0.2,0.7-0.5c0.4-0.9,0.9-1.8,1.3-2.7c1-1.7,1.8-3.5,2.4-5.3c0-0.1,0.1-0.2,0.3-0.2c0.2,0,0,0.3,0,0.4
	c0.2,2.5,0.3,5,0.5,7.5c0,0.6,0.2,0.7,0.8,0.7c1.6,0,3.2,0,4.7,0c0.4,0.1,0.8-0.2,1-0.6c2.7-4.5,5.5-9,8.3-13.5
	c0.1-0.2,0.2-0.4,0.5-0.6c0,0.2,0,0.4-0.1,0.5c-0.9,4.5-1.7,9-2.6,13.5c-0.1,0.4,0,0.6,0.4,0.5c1.9,0,3.9,0,5.8,0
	c0.4,0,0.5-0.1,0.6-0.5c0.3-1.5,0.6-3.1,0.9-4.6c0.1-0.4,0.2-0.6,0.7-0.6c1,0,2.1,0,3.1,0c0.6,0,0.7,0.2,0.6,0.7
	c-0.3,1.5-0.6,3-0.9,4.4c-0.1,0.4,0,0.5,0.4,0.5c1.9,0,3.9,0,5.8,0c0.4,0,0.5-0.2,0.6-0.6c0.3-1.9,0.7-3.7,1.1-5.6
	c0.1,0.1,0.2,0.1,0.2,0.3c0.4,3,2.3,4.6,5,5.5c2.3,0.7,4.8,0.9,7.2,0.3c3.8-0.8,7-2.5,8.8-6.2c0.1-0.1,0.2-0.2,0.2-0.3l-1.2,6.5
	h12.6c0.4,0,0.4-0.2,0.4-0.5c0.3-1.3,0.5-2.8,0.8-4.2C159.8,152.6,159.7,152.5,159.2,152.5z M140.2,149.9c-0.5,1.9-2.3,3.1-4.2,2.9
	c-2,0-3.3-1.2-3-2.8c0.1-0.9,0.5-1.7,1.2-2.3c1.2-1,2.8-1.4,4.3-1c1.3,0.3,2.1,1.6,1.8,2.9C140.3,149.8,140.2,149.9,140.2,149.9
	L140.2,149.9z"/>
<path class="st0" d="M135,158.7c-1.5,0-3-0.2-4.4-0.7c-2.1-0.5-3.9-1.9-4.9-3.9c-0.2,1.1-0.4,2.1-0.6,3.2c0,0.6-0.6,1.1-1.2,1.1
	c0,0,0,0,0,0l0,0c-1.9,0-3.7,0-5.8,0c-0.5,0.1-1-0.2-1.1-0.8c0-0.2,0-0.4,0.1-0.6c0.1-0.7,0.3-1.3,0.4-2.1c0.1-0.7,0.3-1.5,0.4-2.2
	c-0.9,0-1.9,0-3,0l0,0c-0.1,0.8-0.3,1.7-0.5,2.5c-0.1,0.8-0.3,1.4-0.4,2.1c0,0.6-0.6,1.1-1.2,1c0,0,0,0,0,0l0,0c-2,0-3.9,0-5.8,0
	c-0.5,0.1-1-0.3-1.1-0.8c0-0.2,0-0.4,0.1-0.5c0.7-3.6,1.3-7.3,2.1-10.8c-2.3,3.7-4.6,7.5-6.9,11.3c-0.3,0.6-0.9,0.9-1.6,0.9
	c-1.7,0-3.2,0-4.7,0c-0.7,0.1-1.3-0.3-1.5-1c0-0.1,0-0.2,0-0.3c-0.1-1.8-0.2-3.6-0.3-5.3c-0.3,0.6-0.6,1.3-0.9,1.9
	c-0.3,0.6-0.4,0.9-0.6,1.3l-0.6,1.2c-0.2,0.5-0.5,1-0.7,1.5c-0.2,0.5-0.8,0.9-1.3,0.8l0,0c-1.7,0-3.4,0-5,0l0,0
	c-0.6,0-1.1-0.4-1.2-1c-1.1-4.9-2.2-9.7-3.5-15.1c-0.2-0.5,0.1-1.1,0.6-1.3c0.2-0.1,0.3-0.1,0.5-0.1c2.2,0,4.4,0,6.2,0l0,0
	c0.6-0.1,1.1,0.4,1.2,0.9c0,0.1,0,0.1,0,0.2c0.1,2.1,0.3,4.3,0.4,6.4c0.4-0.8,0.7-1.5,1.1-2.3l0.1-0.2c0.6-1.3,1.3-2.7,2.1-4.2
	c0.2-0.5,0.8-0.9,1.3-0.8c1.5,0,3,0,4.4,0l0,0c0.6-0.1,1.1,0.4,1.2,1c0,0.1,0,0.1,0,0.2c0.2,2.1,0.4,4.3,0.5,6.4
	c0.5-1.3,1.1-2.5,1.7-3.7c0.5-1,1-2,1.5-3.1c0.2-0.5,0.7-0.8,1.2-0.8H116c0.5-0.1,1,0.2,1.1,0.7c0,0.2,0,0.4-0.1,0.6
	c-0.2,0.8-0.3,1.5-0.5,2.3c-0.1,0.7-0.2,1.3-0.4,1.9c1,0,2,0,3,0l0,0c0.1-0.8,0.3-1.7,0.5-2.5c0.1-0.6,0.2-1.2,0.3-1.8
	c0-0.7,0.6-1.2,1.3-1.2c0,0,0,0,0,0c1.6,0,3.4,0,5.6,0c0.4,0,0.7,0.1,1,0.4c0.2,0.3,0.3,0.7,0.2,1c-0.2,0.8-0.3,1.6-0.5,2.4
	l-0.1,0.4c1.7-1.9,3.9-3.2,6.3-3.8c3-0.9,6.2-0.9,9.1,0.2c2,0.6,3.7,2,4.6,3.9c0.2-1.1,0.4-2.3,0.6-3.4c0-0.6,0.6-1.1,1.2-1.1
	c0,0,0.1,0,0.1,0l0,0c2.3,0,4.2,0,6,0c0.3,0,0.7,0.1,0.9,0.3c0.2,0.3,0.3,0.7,0.2,1c-0.5,2.3-0.9,4.7-1.3,7l-0.5,2.6h4.6
	c0.5-0.1,1.1,0.2,1.2,0.8c0,0.2,0,0.4-0.1,0.6c-0.2,1-0.4,2.1-0.6,3.1l-0.2,1l0,0c0,0.5-0.5,1-1,0.9c0,0,0,0,0,0H145l0.8-4.1
	c-2,2.2-4.7,3.6-7.6,4.1C137.1,158.6,136.1,158.7,135,158.7z M125.1,150.5l0.8,0.5c0.3,0.1,0.5,0.4,0.5,0.7c0.3,2.5,1.8,4,4.6,5
	c2.2,0.7,4.6,0.8,6.9,0.3c4.2-0.8,6.8-2.7,8.3-5.9c0.1-0.1,0.1-0.2,0.2-0.3l0.1-0.1l0.8-0.9l-0.4-1.2v-0.1c0-0.1-0.1-0.2-0.1-0.3
	c-0.1-2.6-1.8-4.9-4.4-5.6c-2.7-0.9-5.6-1-8.3-0.1c-3.1,0.7-5.6,2.7-7,5.5l0,0c-0.1,0.4-0.5,0.6-0.9,0.5h-0.3l-0.1-0.2
	c-0.1-0.2-0.2-0.4-0.1-0.6c0.3-1.1,0.5-2.2,0.7-3.3c0.1-0.7,0.3-1.5,0.4-2.2c-2.1,0-3.9,0-5.4,0l0,0v0c-0.1,0.6-0.2,1.3-0.3,1.9
	s-0.3,1.6-0.5,2.5c-0.1,0.7-0.6,1.2-1.3,1.1c0,0,0,0,0,0c-1,0-2,0-3,0c-0.4,0.1-0.8-0.1-1.1-0.3c-0.2-0.3-0.3-0.8-0.2-1.2
	c0.1-0.6,0.3-1.3,0.4-1.9c0.1-0.6,0.3-1.3,0.4-2h-5.5l-0.2,1v0.2c0,0.1,0,0.2,0,0.3l-0.5,2.5c-0.7,3.5-1.3,7.2-2.1,10.8
	c1.8,0,3.6,0,5.5,0c0.1-0.7,0.3-1.4,0.4-2.1c0.1-0.7,0.3-1.6,0.5-2.4c0-0.7,0.6-1.2,1.3-1.1c0,0,0,0,0.1,0c1.2,0,2.1,0,3,0
	c0.6-0.1,1.2,0.3,1.3,0.8c0,0.2,0,0.4-0.1,0.6c-0.2,0.8-0.3,1.6-0.5,2.3c-0.1,0.8-0.2,1.2-0.4,1.8c1.9,0,3.7,0,5.5,0l0,0
	c0.3-1.3,0.5-2.8,0.8-4.2l0.3-1.5L125.1,150.5z M94.7,157.1h0.1c1.5,0,3.1,0,4.8,0c0.3,0,0.3,0,0.5-0.3c2.3-3.8,4.7-7.6,7-11.4
	l1.3-2.1v-0.1c0.1-0.3,0.4-0.5,0.7-0.7l0.6-0.3h-6.4c-0.5,1.1-1,2.1-1.5,3.1c-1,1.9-1.8,3.8-2.5,5.8c-0.1,0.4-0.4,0.6-0.8,0.6h-0.6
	l-0.1-0.6v-0.1c0-0.1,0-0.2,0-0.3l-0.2-1.8c-0.2-2.3-0.4-4.6-0.6-6.9c-1.4,0-2.9,0-4.3,0l0,0v0.1c-0.7,1.5-1.5,3-2.1,4.2l-0.1,0.2
	c-0.8,1.5-1.5,3-2,4.6l-0.3,1l-0.8-0.8c-0.3-0.3-0.4-0.6-0.4-1l0,0l-0.1-1.4c-0.1-2.3-0.3-4.7-0.4-7c-1.7,0-3.8,0-5.9,0
	c1.2,5.3,2.3,10,3.4,14.8c1.7,0,3.3,0,5,0l0,0V157c0.2-0.5,0.5-1,0.7-1.5l0.6-1.2c0.2-0.4,0.4-0.9,0.7-1.3c0.7-1.3,1.3-2.6,1.7-4
	c0-0.2,0.2-0.4,0.4-0.6c0.2-0.1,0.4-0.1,0.7-0.1l0.4,0.1v0.4v0.1c0,0.1,0,0.2,0,0.4c0,0.6,0,1.3,0.1,1.9c0.1,1.9,0.3,3.8,0.3,5.7
	C94.7,157,94.7,157,94.7,157.1L94.7,157.1z M151.1,157.1h7.1l0.2-0.9c0.2-1,0.4-1.9,0.6-2.9h-4.4c-0.5,0-0.9,0-1.2-0.3
	c-0.3-0.3-0.2-0.7-0.1-1.2l0.5-2.7c0.4-2.2,0.9-4.5,1.3-6.8c-1.7,0-3.5,0-5.7,0c-0.3,1.6-0.6,3.1-0.9,4.7l-0.3,1.7l-0.5,2.7
	l-1.1,5.7h4.5L151.1,157.1z M114.8,152.8L114.8,152.8z M118.2,152.8L118.2,152.8z M119.1,146.5L119.1,146.5z M136,153.6L136,153.6
	c-1.1,0.1-2.2-0.4-3-1.2c-0.6-0.7-0.8-1.5-0.7-2.4c0.1-1,0.6-2,1.4-2.7c1.3-1.2,3.2-1.6,4.9-1.1c1.7,0.4,2.7,2.1,2.3,3.8
	c0,0.1,0,0.1,0,0.2C140.2,152.3,138.2,153.7,136,153.6L136,153.6z M137.1,147.4c-0.9,0-1.8,0.3-2.5,1c-0.5,0.5-0.9,1.1-1,1.9
	c-0.1,0.5,0,1,0.4,1.3c0.5,0.5,1.3,0.8,2,0.7l0,0c1.6,0.1,3.1-0.9,3.5-2.4l0,0c0.3-0.9-0.2-2-1.1-2.3c-0.1,0-0.1,0-0.2,0
	C137.8,147.4,137.5,147.3,137.1,147.4L137.1,147.4z"/>
<path class="st2" d="M221.2,152.5c-1.5,0-3.1,0-4.6,0c-0.6,0-0.7-0.1-0.6-0.7c0.7-3.3,1.3-6.5,1.9-9.8c0.1-0.4,0-0.5-0.5-0.5
	c-2,0-4,0-6,0c-0.5,0-0.6,0.2-0.7,0.6c-0.9,4.6-1.8,9.3-2.7,13.9c-0.1-0.2-0.2-0.4-0.2-0.6c-1.1-4.4-2.1-8.8-3.1-13.2
	c-0.1-0.6-0.4-0.8-1-0.8c-2.1,0-4.3,0-6.4,0c-0.4,0-0.8,0.2-0.9,0.5c-2,3.3-4,6.6-6,9.9c-0.1,0.2-0.2,0.5-0.5,0.5c0-0.3,0-0.5,0-0.7
	c0.2-1.3-0.5-2.7-1.7-3.3c-0.5-0.3-1.1-0.5-1.6-0.7l-3.1-0.7c-0.3-0.1-0.7-0.2-0.7-0.6c0-0.3,0.3-0.6,0.6-0.7
	c0.5-0.2,1.1-0.3,1.6-0.2c1,0.1,2,0.4,2.9,1c0.3,0.2,0.5,0.2,0.7-0.2c0.7-1.1,1.3-2.1,2.1-3.2c0.3-0.5,0.2-0.6-0.2-0.8
	c-3.8-1.8-8.3-1.5-11.9,0.8c-1.5,0.9-2.6,2.3-2.9,4c-0.3,1.3,0.2,2.6,1.3,3.3c0.8,0.5,1.7,0.9,2.7,1l2.3,0.4c0.3,0,0.6,0.2,0.7,0.5
	c0,0.3-0.2,0.7-0.5,0.8c-0.4,0.2-0.9,0.4-1.3,0.4c-1.4,0.1-2.9-0.4-4-1.3c-0.6-0.4-0.8-0.3-1.1,0.2c-0.7,1.1-1.4,2.1-2.1,3.1
	l-0.1-0.1c0.1-0.6,0.2-1.2,0.3-1.8c0.1-0.6,0-0.6-0.5-0.6c-1.6,0-3.3,0-4.9,0c-0.2,0-0.5,0.1-0.5-0.1c0-0.5,0.1-0.9,0.2-1.3
	c0.1-0.3,0.4-0.1,0.6-0.1c1.4,0,2.8,0,4.2,0c0.4,0,0.6,0,0.7-0.5c0.1-1,0.4-2.1,0.6-3.1c0.1-0.5,0-0.6-0.5-0.6c-1.4,0-2.8,0-4.2,0
	c-0.2,0-0.4,0.1-0.5-0.1c-0.2-0.4,0.1-0.8,0.1-1.2c0-0.4,0.3-0.3,0.5-0.3c1.6,0,3.3,0,4.9,0c0.5,0,0.6-0.2,0.7-0.6
	c0.2-1.1,0.4-2.2,0.6-3.3c0.1-0.6,0-0.6-0.5-0.6c-3.9,0-7.8,0-11.8,0c-0.5,0-0.7,0.2-0.8,0.7c-0.9,5-1.8,9.9-2.8,14.9
	c-0.1,0.5,0,0.6,0.5,0.6c4,0,7.9,0,11.9,0c0.5,0,0.9,0,0.9-0.7c0-0.4,0.2-0.5,0.5-0.3c0.5,0.2,1,0.4,1.5,0.5
	c4.5,1.1,8.8,1.2,12.7-1.8c0,0,0-0.1,0.1-0.1c0.1,0.1,0,0.1,0,0.2l-1.3,2.2c2,0,3.8-0.1,5.7,0c1.3,0.1,2.1-0.3,2.5-1.6
	c0.1-0.4,0.4-0.5,0.7-0.5c1.1,0,2.2,0,3.3,0c0.5,0,1.1-0.1,1.4,0.1s0.2,0.9,0.3,1.3s0.2,0.6,0.6,0.6c6.2,0,12.4,0,18.7,0
	c0.4,0,0.6-0.1,0.7-0.6c0.2-1.3,0.5-2.7,0.8-4C221.8,152.7,221.7,152.5,221.2,152.5z M200.2,151.9h-2.1c-0.2,0-0.4,0-0.2-0.3
	l2.1-4.6c0,0,0.1,0,0.2-0.1c0,1.5,0.1,3.1,0.3,4.6C200.6,151.8,200.5,151.9,200.2,151.9L200.2,151.9z"/>
<path class="st0" d="M180.6,158.6c-1.8,0-3.5-0.3-5.3-0.7c-0.5-0.1-0.9-0.2-1.3-0.4c0,0.2-0.1,0.4-0.3,0.5c-0.3,0.3-0.8,0.4-1.2,0.4
	c-4.3,0-8.2,0-11.9,0c-0.6,0.1-1.1-0.3-1.2-0.8c0-0.2,0-0.4,0.1-0.6c0.9-4.8,1.9-9.8,2.8-14.9c0.1-0.7,0.7-1.3,1.4-1.2
	c4.3,0,8.5,0,11.7,0c0.4,0,0.8,0.1,1,0.4c0.2,0.3,0.3,0.7,0.1,1.1c-0.2,0.7-0.3,1.5-0.5,2.3c0.6-0.8,1.3-1.5,2.2-2
	c3.8-2.4,8.4-2.7,12.5-0.8c0.6,0.1,0.9,0.7,0.8,1.3c0,0.2-0.1,0.4-0.3,0.5c-0.6,0.9-1.3,1.9-2.1,3.2c-0.2,0.5-0.9,0.8-1.4,0.5
	c-0.1,0-0.1-0.1-0.2-0.1c-0.8-0.5-1.7-0.8-2.7-0.9c-0.4-0.1-0.9,0-1.3,0.1h-0.1h0.1l1.6,0.3l1.5,0.3c0.6,0.1,1.3,0.4,1.8,0.7
	c1,0.5,1.7,1.4,1.9,2.5c1.7-2.9,3.5-5.8,5.3-8.7c0.3-0.5,0.9-0.9,1.5-0.8l0,0c2.4,0,4.3,0,6.3,0c0.8-0.1,1.5,0.5,1.6,1.3
	c0,0,0,0,0,0.1c0.7,3.2,1.5,6.4,2.3,9.6l0.3,1.4V153c0.7-3.6,1.4-7.3,2.1-11c0-0.7,0.6-1.2,1.3-1.1c0,0,0,0,0.1,0l0,0
	c1.7,0,3.6,0,6,0c0.5-0.1,1,0.3,1.1,0.8c0,0.2,0,0.4-0.1,0.5c-0.3,1.5-0.6,3.1-0.9,4.6c-0.3,1.5-0.7,3.4-1,5.1h2.2
	c0.7,0,1.5,0,2.3,0l0,0c0.4,0,0.7,0.1,1,0.4c0.2,0.3,0.3,0.7,0.2,1.1c-0.3,1.3-0.5,2.8-0.7,4c0,0.7-0.6,1.1-1.3,1.1c0,0,0,0-0.1,0
	l0,0c-6.3,0-12.6,0-18.7,0l0,0c-0.6,0.1-1.2-0.4-1.3-1c0,0,0-0.1,0-0.1c0-0.2,0-0.4,0-0.5c0-0.1,0-0.2,0-0.4c-0.2,0-0.4,0-0.5,0
	h-0.5h-3.4c-0.3,1.4-1.7,2.3-3.1,2c-1.3-0.1-2.5-0.1-3.9,0h-2.8l0.6-1.1C184.7,158.2,182.7,158.7,180.6,158.6z M174.3,156.2
	c0.4,0.2,0.9,0.3,1.3,0.5c5.1,1.3,8.8,0.8,12-1.6c0.1-0.1,0.2-0.2,0.4-0.3c0.2-0.1,0.5,0,0.7,0.1c0.2,0.2,0.3,0.5,0.2,0.8l0,0v0.1
	l-0.7,1.3h0.6c1.3,0,2.7,0,4,0c1.3,0,1.6-0.3,1.8-1.1c0.1-0.6,0.7-1,1.3-1h3.8c0.5-0.1,0.9,0,1.3,0.2c0.4,0.3,0.7,0.9,0.6,1.5
	c0,0.1,0,0.2,0,0.3h6.7l-0.5-0.5c-0.2-0.2-0.4-0.5-0.4-0.8v-0.1l-0.9-3.6c-0.7-3.1-1.5-6.4-2.3-9.6c0-0.1,0-0.2-0.1-0.2
	c-0.1,0-0.2,0-0.3,0c-2,0-4,0-6.4,0c-0.2,0-0.3,0-0.4,0.2c-1.9,3.2-4,6.5-5.9,9.7l-0.1,0.2v0.1c-0.1,0.4-0.5,0.6-0.9,0.7l-0.9,0.2
	l0.1-0.9v-0.2c0-0.2,0-0.3,0-0.5c0.2-1.1-0.4-2.2-1.3-2.7c-0.4-0.3-0.9-0.5-1.4-0.6l-1.5-0.3l-1.6-0.3c-0.3-0.1-1.2-0.3-1.2-1.2
	c0-0.6,0.4-1.1,1-1.3c0.6-0.3,1.3-0.3,1.9-0.3c1.1,0.1,2.1,0.4,3.1,1c0.7-1.2,1.3-2.1,1.9-3c-3.6-1.6-7.8-1.3-11.2,0.8
	c-1.4,0.8-2.3,2.1-2.7,3.6c-0.3,1,0.1,2.1,1.1,2.7c0.7,0.5,1.6,0.8,2.4,0.9l0.8,0.1l1.5,0.3c0.6,0,1.1,0.5,1.2,1.1
	c0.1,0.6-0.2,1.2-0.8,1.5c-0.5,0.3-1.1,0.4-1.6,0.5c-1.6,0.1-3.1-0.4-4.4-1.3h-0.1l-0.1,0.1c-0.5,0.8-1,1.5-1.5,2.3L174.3,156.2
	L174.3,156.2z M210.9,157.1h9.3c0.2-1.2,0.4-2.5,0.7-3.9h-2.1c-0.7,0-1.5,0-2.3,0c-0.4,0-0.8-0.1-1.1-0.4c-0.2-0.3-0.3-0.7-0.2-1.1
	c0.3-1.7,0.7-3.5,1-5.2c0.3-1.4,0.5-2.9,0.8-4.3c-2.3,0-4,0-5.7,0l0,0c-0.7,3.7-1.4,7.4-2.1,11l-0.7,3.8L210.9,157.1z M163.6,142.2
	v0.1c-0.9,5-1.9,10-2.8,14.7c3.6,0,7.4,0,11.7,0h0.2c0-0.4,0.1-0.7,0.4-0.9l0,0l-0.2-0.2v-0.4l0.1-0.5c0-0.4,0.1-0.7,0.2-1.1
	c-1.3,0-2.7,0-4,0h-0.8c-0.3,0-0.6,0-0.8-0.2c-0.2-0.1-0.3-0.3-0.3-0.6c0-0.5,0.1-1,0.3-1.5c0.1-0.3,0.4-0.7,1.2-0.6h0.2
	c1.3,0,2.7,0,4.2,0l0,0c0.1-1,0.3-1.9,0.5-2.9c-1,0-2.1,0-3.1,0h-1c-0.4,0.1-0.9-0.1-1-0.5c-0.1-0.4-0.1-0.8,0-1.2
	c0-0.1,0.1-0.2,0.1-0.3c0-0.5,0.4-0.9,1-0.9c0,0,0.1,0,0.1,0h1.2c1.2,0,2.5,0,3.8,0l0,0l0.1-0.4c0.1-0.9,0.3-1.8,0.5-2.7
	c-3.2,0-7.4,0-11.6,0L163.6,142.2z M173.7,153.9L173.7,153.9z M173.6,152.6c0.4,0,0.7,0.1,0.9,0.4c0.1,0.1,0.1,0.2,0.2,0.3l0.7-1.1
	c0.2-0.4,0.5-0.7,0.9-0.8c0.4,0,0.8,0.1,1.1,0.4c1,0.8,2.3,1.2,3.6,1.2c0.4,0,0.7-0.1,1-0.3l0.1-0.1H182l-1.5-0.3l-0.8-0.1
	c-1.1-0.1-2.1-0.5-2.9-1.1c-1-0.6-1.6-1.7-1.7-2.9l0,0c-0.2,1-0.4,2-0.6,3.1c0,0.7-0.6,1.1-1.3,1.1c0,0,0,0-0.1,0
	c-1.5,0-2.9,0-4.2,0h-0.1c0,0.1,0,0.2,0,0.3h0.6C170.7,152.6,172.2,152.6,173.6,152.6L173.6,152.6z M173.9,146.9
	c0.3,0,0.7,0.1,0.9,0.4c0.1,0.1,0.2,0.3,0.2,0.4c0-0.2,0-0.4,0.1-0.5c0-0.2,0-0.3,0.1-0.5c-0.2,0.1-0.4,0.1-0.5,0.1
	c-1.3,0-2.5,0-3.8,0h-1.1v0.2l0,0h0.8C171.7,146.9,172.8,146.9,173.9,146.9L173.9,146.9z M200.2,152.5h-2.1c-0.3,0-0.6-0.1-0.8-0.4
	c-0.2-0.3-0.2-0.6,0-0.9l0.9-2l1.2-2.6c0.1-0.2,0.3-0.3,0.5-0.4h0.1l0.9-0.3v0.9c0,1.5,0.1,3,0.3,4.5c0,0.3,0,0.6-0.2,0.8
	C200.8,152.4,200.5,152.5,200.2,152.5L200.2,152.5z M199.3,151.2h0.6c-0.1-0.7-0.1-1.3-0.2-1.9l-0.3,0.6l-0.6,1.3L199.3,151.2z"/>
<path class="st2" d="M237.5,141.6c-3.9,0-7.8,0-11.7,0c-0.6,0-0.7,0.2-0.8,0.7c-0.9,5-1.8,9.9-2.8,14.9c-0.1,0.5,0,0.6,0.5,0.6
	c2,0,4,0,6,0c2,0,4.1,0,6.1,0c0.4,0,0.6-0.1,0.6-0.5c0.2-1.1,0.4-2.2,0.6-3.3c0.1-0.5,0-0.6-0.5-0.6c-1.6,0-3.3,0-4.9,0
	c-0.2,0-0.5,0.1-0.5-0.1c0-0.5,0-0.9,0.2-1.3c0.1-0.3,0.4-0.2,0.6-0.2c1.4,0,2.8,0,4.2,0c0.5,0,0.6-0.1,0.7-0.6c0.2-1,0.3-2,0.6-3
	c0.1-0.5,0-0.7-0.5-0.7c-1.3,0-2.8,0-4.2,0c-0.2,0-0.4,0.1-0.5-0.1c-0.1-0.5,0-0.9,0.2-1.3c0.1-0.3,0.4-0.2,0.6-0.2
	c1.6,0,3.1,0,4.7,0c0.5,0,0.7-0.1,0.8-0.7c0.2-1.1,0.3-2.1,0.6-3.2C238.3,141.7,238,141.6,237.5,141.6z"/>
<path class="st0" d="M222.6,158.3c-0.3,0-0.7-0.1-0.9-0.3c-0.2-0.3-0.3-0.7-0.2-1c1.1-5.4,2.1-10.8,2.8-14.9c0-0.7,0.7-1.3,1.4-1.2
	c0,0,0,0,0,0l0,0c4,0,8,0,11.7,0l0,0c0.4,0,0.8,0.1,1.1,0.4c0.2,0.3,0.3,0.7,0.1,1.1c-0.2,0.9-0.4,1.9-0.6,3.1
	c-0.1,0.7-0.7,1.3-1.4,1.2c0,0,0,0,0,0c-1.3,0-2.7,0-4,0h-0.8v0.2h0.8c1.1,0,2.1,0,3.2,0c0.6-0.1,1.1,0.2,1.3,0.8
	c0,0.2,0,0.4-0.1,0.6c-0.2,1-0.4,2-0.6,2.9c0,0.7-0.6,1.2-1.3,1.1c0,0,0,0,0,0c-1.2,0-2.4,0-3.6,0h-0.7c0,0.1,0,0.2,0,0.3h0.4
	c1.4,0,2.9,0,4.4,0c0.5-0.1,1.1,0.2,1.2,0.8c0,0.2,0,0.4,0,0.6c-0.2,1-0.5,2.1-0.6,3.3c0,0.6-0.6,1.1-1.2,1.1c0,0-0.1,0-0.1,0
	L222.6,158.3L222.6,158.3z M231.9,157h2.9c0.2-1.1,0.4-2.1,0.6-3.1c-1.3,0-2.8,0-4.2,0h-0.6c-0.3,0-0.6,0-0.8-0.2
	c-0.2-0.1-0.2-0.3-0.3-0.5c0-0.5,0.1-1,0.2-1.5c0.1-0.3,0.4-0.7,1.2-0.6h0.7c1.2,0,2.4,0,3.6,0l0,0l0,0c0.1-0.9,0.3-1.9,0.5-2.9
	c-1,0-2.1,0-3.1,0h-1c-0.8,0.1-1-0.3-1.1-0.6c-0.1-0.4-0.1-0.9,0.1-1.3l0.1-0.3c0.1-0.5,0.6-0.8,1.1-0.7c0,0,0,0,0,0h0.8
	c1.3,0,2.7,0,4,0h0.1v-0.1c0.2-1.1,0.4-2.1,0.6-3.1c-3.7,0-7.6,0-11.6,0h-0.1c0,0.1,0,0.1,0,0.2c-0.7,4-1.7,9.3-2.8,14.7L231.9,157
	L231.9,157z"/>
<path class="st1" d="M237.9,136.3c-0.4,0.1-0.8-0.1-0.9-0.5c0,0,0-0.1,0-0.1c0-0.2-0.1-0.4-0.4-0.4c-0.3,0-0.2,0.3-0.3,0.5
	c-0.1,0.2,0,0.3-0.1,0.4c-0.1,0.1-0.3,0.2-0.5,0.1c-0.2,0-0.1-0.2-0.1-0.3c0-0.1,0.1-0.5,0.1-0.7c0.3-1.5,0.3-1.5,1.8-1.3
	c0.2,0,0.5,0,0.6,0.3c0.1,0.3,0.1,0.6-0.2,0.8c-0.6,0.3-0.4,0.6-0.2,1C237.8,136.1,237.8,136.2,237.9,136.3L237.9,136.3z M237,134.3
	c-0.2,0.1-0.5-0.2-0.6,0.3s0.3,0.2,0.4,0.2c0.2,0,0.7,0.1,0.7-0.3C237.6,134.2,237.3,134.3,237,134.3L237,134.3z"/>
</svg>
