<?xml version="1.0" encoding="utf-8"?>
<!-- Generator: Adobe Illustrator 21.1.0, SVG Export Plug-In . SVG Version: 6.00 Build 0)  -->
<svg version="1.1" id="Layer_1" xmlns="http://www.w3.org/2000/svg" xmlns:xlink="http://www.w3.org/1999/xlink" x="0px" y="0px"
	 viewBox="0 0 250 250" style="enable-background:new 0 0 250 250;" xml:space="preserve">
<style type="text/css">
	.st0{fill:#F60000;}
	.st1{fill:#FFFFFF;}
</style>
<title>Grocery</title>
<path class="st0" d="M222.1,150.6h-14.7c0,0-1.7-0.3-1.1,1.7s3.1,8,11.5,9c1.5,0.1,3-0.2,4.4-0.9c2.1-1.1,2.2,1.3,0.3,2.8
	c-3.4,2.8-7.5,4.4-11.9,4.6c-5.6,0-16.1-3.5-16.1-14.8c0-10.5,9.3-14.7,16.6-14.7c6.2,0,12.6,4.6,12.8,10.1
	C224,149.7,223.5,150.6,222.1,150.6z"/>
<path class="st0" d="M177.4,157.6c-0.3-0.4-1.4-1.5-1.4,0.4v5.9c0,0,0.1,2.2,2,2.3s1.7,0.3,1.7,0.7c0,0.4-0.2,0.8-1.8,0.8h-16.8
	c0,0-0.9,0.1-0.9-0.6s0.5-0.7,1.4-1.1c0.9-0.4,1.9-1.1,1.9-3.4V141c0.1-1.3-0.4-2.5-1.4-3.3c-1.6-1.1-2.9-2-2.9-2s-1.3-0.9,0.5-1.4
	c1.8-0.5,12.2-4.4,13.8-5c1.6-0.6,2.3-0.6,2.3,1.8v19.7c0,0-0.3,2.7,1.7,1.1c2-1.6,6.9-5.5,6.2-7.7c-0.7-2.1-2.2-1.9-2.2-1.9
	s-0.7-0.3-0.7-0.8s0.4-0.8,1.3-0.8h13.8c0,0,1.1,0,1.1,0.7s-0.5,1-1.4,1c-0.9,0-5.5,0.7-9.7,5.6c0,0-1.1,0.6-0.1,1.9l7.5,11.4
	c0,0,2.4,4.2,5.2,4.9c0,0,1.5,0.2,1.5,0.9s-0.8,0.7-1.6,0.7h-14.3c-0.4-0.2-0.7-0.5-1-0.8L177.4,157.6L177.4,157.6z"/>
<path class="st0" d="M153.1,166c0,0,1.1,0,1.1,0.7s-0.1,0.7-1.3,0.7h-18.2c0,0-0.9,0-0.9-0.8c0-0.8,0.4-0.8,1.3-1
	c0.9-0.2,3.1-0.1,3.1-4.5v-10.2c0,0,0-2.9-1.3-3.8c-0.8-0.6-1.6-1.2-2.5-1.7c-0.6-0.3-1.8-1.2,0.3-1.8c2.1-0.6,11.8-4,13.6-4.7
	c0,0,1.2-0.8,1.3,0.9c0,0.7,0.1,1.5,0.3,2.2c0,0,0.3,1.2,1.4,0c1.4-1.8,3.6-2.8,5.9-2.7c2.5-0.2,4.7,1.6,4.9,4.1c0,0.1,0,0.2,0,0.3
	c-0.1,2.1-1.8,3.8-3.9,3.7c-0.1,0-0.1,0-0.2,0c-1.6,0-3-0.7-4-1.9c-0.5-0.4-3.5-1.3-3.5,2.8v13.5C150.5,161.7,150.1,165.3,153.1,166
	L153.1,166z M117.5,162.8c-2.4,2.7-5.8,4.3-9.4,4.3c-6,0-9-2.4-9-6.9s4-6.7,6.1-7.7s9.7-3.7,10.5-3.9s1.7-0.6,1.7-1.8V144
	c0-1.9-1.6-3.4-3.5-3.4c-3.4,0-3.9,1.8-3.9,3.9s-0.3,5.9-4.2,5.9s-4.4-2.3-4.4-3.7s0.6-8.1,13.1-8.1s15.2,4.5,15.2,11.3v8.2
	c0,0-0.4,4.4,1.9,4.7c2.3,0.3,1.3,1.8,0.4,2.7C131.1,166.4,122.2,170.3,117.5,162.8L117.5,162.8z"/>
<path class="st0" d="M57.4,165.5c0,0,1.1,0,1.1,0.6s-0.1,0.8-1.4,0.8H46.7c0,0-1.1,0.1-1.1-0.7c0-0.8,0.5-0.8,1.2-0.9s4-0.6,4.6-8
	c0,0,1.7-19.9,1.8-21.6s0.6-5.2-2.6-6.1c0,0-1.2-0.2-1.2-0.9s0.6-0.8,1.3-0.8h15.7c0.9,0,1.6,0.6,1.8,1.4l4.4,13.9
	c0,0,0.8,2.6,1.8-0.4l4.4-12.7c0,0,0.2-2,2.8-2h14.5c0,0,1.6-0.1,1.6,1c0,1.1-1.1,1.1-1.8,1.1c-0.7,0.1-2.7,0.7-2.5,4.5
	s1.5,25.6,1.5,25.6s-0.1,4.3,3.7,4.9c0,0,1.6-0.1,1.6,0.7s-0.6,1-1.6,1H77.3c0,0-1,0-1-0.6s0.4-0.7,1.3-0.9c1-0.1,3.4-0.6,3.3-4.3
	L79.3,142c0,0-0.4-2.9-1.4,0.1L69,166.4c0,0-0.6,1.5-1.3-0.4L57,140c0,0-1.2-2.7-1.5,0.4l-1.5,18.3
	C54.1,158.8,53.6,165.2,57.4,165.5L57.4,165.5z M188.6,102c-0.8-1.2-2-2-3.3-2.2c-1.5-0.1-1.7-0.5-1.7-1s0.1-0.8,1.5-0.8h18.9
	c0,0,1.5-0.1,1.5,0.6s-1,0.8-1.6,1.1c-0.7,0.3-1,2,0,3.5l4.5,7.4l3.5-6.7c0,0,1.1-3.2-0.4-4.2c-1.4-1-2.3-0.1-2.3-1.2
	c0-1.1,1.3-0.8,2.2-0.8h8.3c0,0,1.3-0.3,1.3,0.6c0,0.9-0.9,0.7-1.4,0.7s-2.6,0.2-4.6,4.2l-12.9,24.1c0,0-4.7,7.9-12.3,7.9
	s-8.7-4.1-7.6-6.7c1.1-2.3,3.9-3.3,6.3-2.2c3.7,1.4,6.1,4.9,8.3,3c2.2-1.9,5.4-5.5,2-10.9L188.5,102L188.6,102z M224.8,142h-1.8
	c0,0-1.1-0.2-0.2-0.9s12.2-10.6,13.3-11.6c1.1-1,1.3-0.5,1.3,0.4v9c-0.1,0.5,0.3,0.9,0.7,0.9c0.1,0,0.1,0,0.2,0h5.2
	c0,0,1.3-0.3,1.3,0.8s-0.9,1.4-2.5,1.4h-3.5c0,0-1,0-1,1.3v13.3c0,0-0.2,4.2,1.6,5.8c1.2,1.1,2.8,1.7,4.4,1.5c1.1,0,1.3,0.7,0.3,1.5
	c-2.5,1.9-5.6,2.9-8.8,2.8c-4.6,0-9.3-1.2-9.3-9.7v-15c0.1-0.7-0.3-1.4-1.1-1.6C225,142,224.9,142,224.8,142L224.8,142z"/>
<path class="st0" d="M162.4,99.9h-1.8c0,0-1.1-0.2-0.2-0.9c0.9-0.7,12.2-10.7,13.3-11.6c1.1-0.9,1.3-0.5,1.3,0.4v8.9
	c-0.1,0.5,0.3,0.9,0.7,1c0.1,0,0.1,0,0.2,0h5.1c0,0,1.3-0.3,1.3,0.8c0,1.1-0.9,1.4-2.5,1.4h-3.6c0,0-1,0-1,1.3v13.3
	c0,0-0.2,4.2,1.6,5.8c1.2,1.1,2.8,1.7,4.4,1.5c1.1,0,1.3,0.7,0.3,1.5c-2.5,1.9-5.6,2.9-8.8,2.8c-4.7,0-9.3-1.3-9.3-9.7v-15.1
	c0.1-0.7-0.4-1.4-1.1-1.5C162.5,99.9,162.4,99.9,162.4,99.9L162.4,99.9z M143.7,124.4c0,0,0.8,0,0.8,0.6c0,0.6,0.1,0.7-0.6,0.7
	h-18.3c0,0-0.9,0.1-0.9-0.7c0-0.7,0.4-0.9,1.1-0.9c0.7,0,3-0.2,3-4.5v-8.6c0,0-0.1-3.4-1.7-4.4l-2.4-1.6c0,0-1.6-1.1,0.1-1.7
	c1.7-0.6,10.3-4,13.2-5.4c0,0,2-1,2,0.6l0.1,1.3c0,0,0.1,1.6,1.6,0.3c1.4-1.4,4-2.7,8.3-2.7s10.2,2.5,10.2,9.8v13.5
	c0,0-0.2,3.5,1.9,3.5s2.1,0.6,2.1,0.8c0,0.3,0.1,1-1.3,1h-13.3c0,0-1.4,0.1-1.4-1.6v-18.4c0,0,0.1-4.2-3.2-4.2s-4,2.5-4,5.2v13
	C140.9,120.1,140.6,123.6,143.7,124.4z M84.8,105.1c0,0-2-0.8-0.1-1.6c1.9-0.8,12-4.7,14-5.6c2-0.9,1.7,0.9,1.7,1.8v17.5
	c0,0-0.3,4.9,3.1,4.9c3.4,0,4-3.2,4-5v-7.8c0.1-1.1-0.3-2.2-1-3l-2.7-2.1c0,0-1.5-0.8,0.4-1.5c1.9-0.7,11.7-4.4,13.2-5.2
	c1.5-0.8,2.1-0.2,2.1,2.1v19.8c0,0-0.7,4.8,2.5,4.8c0,0,1-0.2,1,0.5c0,0.7,0.2,0.9-1.1,0.9h-11.2c-1.9,0-2.5-0.3-2.5-1.8
	s-1.2-0.7-1.8-0.2c-2.3,2.1-5.3,3.2-8.4,3c-5.3,0-9.3-1.7-9.3-11.1v-5.5C88.7,110.1,89.1,107.5,84.8,105.1L84.8,105.1z M65.7,95.9
	c10,0,18.1,6.7,18.1,14.9s-8.1,14.9-18.1,14.9s-18.1-6.7-18.1-14.9S52.7,95.9,65.7,95.9z M20.2,105.3c0,0-1,17.8,9.8,17.8
	c11.4,0,13.8-12.1,13.8-12.1s0-1.9,1.8-1.3c1.8,0.5,1.1,1.8,1,2.7S46,118,46.1,122c-5.1,2.1-10.6,3.2-16.1,3.2
	c-8.9,0-25-5.6-25-19.7s12.3-22.5,26.6-22.5c4.6-0.1,9.2,1.1,13.3,3.3c0,0,0.9,0,0.8,2.2c-0.1,2.2-0.1,8.7-0.1,8.7s-0.2,1.3-1.1,1.2
	c-0.9-0.1-1-1.1-1.3-2.3c-0.3-1.2-3.8-10.8-11.9-10.8S20.2,91.3,20.2,105.3L20.2,105.3z"/>
<path class="st1" d="M209.4,148.5h-2.5c0,0-1.1,0.1-1.1-1.5c0-1.6,0.3-6.3,4.4-6.3s4,4.1,4,4.5C214.3,146,214.3,148.6,209.4,148.5
	L209.4,148.5z M117.3,152.5v4.8c0,0,0.1,4.8-2.9,4.8c-3,0-2.7-3.4-2.7-3.9s0.3-5.3,3.7-6.8C116.4,150.8,117.3,151,117.3,152.5z
	 M65.6,97.7c5.3,0,4.8,5.9,4.8,13.1c0,7.2,0.2,13.1-4.8,13.1s-4.8-5.9-4.8-13.1C60.8,103.6,60.3,97.7,65.6,97.7z"/>
</svg>
