<?xml version="1.0" encoding="utf-8"?>
<!-- Generator: Adobe Illustrator 21.1.0, SVG Export Plug-In . SVG Version: 6.00 Build 0)  -->
<svg version="1.1" id="Layer_1" xmlns="http://www.w3.org/2000/svg" xmlns:xlink="http://www.w3.org/1999/xlink" x="0px" y="0px"
	 viewBox="0 0 250 250" style="enable-background:new 0 0 250 250;" xml:space="preserve">
<style type="text/css">
	.st0{fill:#D71631;}
	.st1{fill:#17A04E;}
	.st2{fill:#D7112D;}
</style>
<title>Grocery</title>
<path class="st0" d="M75.3,138.2c2.6-1.4,3.6-3.8,4.1-6.7c1.8-10.4,3.8-20.8,2.9-31.5c-0.2-2.7,1.1-3.8,3.6-3.8
	c8.1,0,16.2-0.3,24.3,0.2c9.3,0.5,12.9,8.6,7.5,16.1c-2.2,3.3-4.9,6.3-8.1,8.7c-2.4,1.7-2.3,3.2-0.5,5.4c2.6,3,4.9,6.3,7.4,9.4
	c0.7,0.9,1.3,2.5,2.8,1.9c1.7-0.6,2.9-2.1,3.1-4c1.2-7.6,2.8-15.1,4-22.7c0.5-3.3,2.1-6.5-1.1-10c-1.7-1.8,0.6-4.7,3.3-4.8
	c10.2-0.2,20.3-0.1,30.5,0c1.8,0,3.8,0.9,3.6,3.2c-0.2,3,0.7,6.6-3,8.4c-2.4,1.2-3.8-0.3-5.2-2.1c-1.4-1.7-11.6-2.9-12.9-1.4
	c-1.9,2.3-1.8,5.5-1.7,8.2c0,2.2,2.6,1,4.1,1.2c2.5,0.2,4.9-0.2,7.2-1.2c3.1-1.4,5,0,5,3.5c0,6.4-2.9,8.4-8.5,6.1
	c-2.9-1.2-6-0.4-9-0.4c-0.8,0-1.1,0.8-1.2,1.4c-0.5,3.4-0.9,6.8-1.4,10.2c-0.2,1.4,0.6,1.6,1.7,1.6c5.2,0,10.5,0.7,14.8-3.4
	c1.2-1.3,3-1.6,4.6-0.8c1.7,0.9,1.5,2.6,1.3,4c-0.5,3.5,0.1,7.8-5.4,8c-0.9,0-1,1.2-1.4,1.9c-0.7,1.5-1.3,3-2,4.5
	c-5.2,11.1-14.7,14.6-25.8,9.1c-10.6-5.2-17.7-14.1-24.4-23.4c-1.9-2.6-3.5-5.5-5.7-8.2c-0.8,3.4-2.5,6.6-0.4,10.3
	c1.9,3.3,0.2,6-3.6,6.1c-3.2,0.1-6.3-0.1-9.5,0c-3.8,0.2-5.5-1.3-4.8-5.1L75.3,138.2z M122.1,143.2c1.9,2.8,4.4,5.1,7.4,6.7
	c4.2,2.2,9.4,0.7,11.8-3.4c1.3-2.1,1.7-3.4-1.7-3.3C134,143.3,128.4,143.2,122.1,143.2L122.1,143.2z M95.7,112.7
	c-0.2,3.4,0.2,3.8,2.6,3.3c3-0.6,5.5-2.7,6.8-5.5c0.9-1.9,1.4-4-0.2-5.7s-3.5-1.4-5.4-1.1c-2.3,0.4-2.9,2.1-3.1,4.3
	S95.9,111.7,95.7,112.7L95.7,112.7z"/>
<path class="st0" d="M75.3,138.2c-5.3,8.8-12.7,14.8-22.9,17c-22.4,4.9-43.7-6.1-46.8-32.9c-2-16.9,3.6-30.8,17.5-40.6
	c14.5-10.2,30.3-10,46.3-3.4c0.9,0.4,1.7,0.9,2.5,1.4c8.9,5.2,10.7,11.8,5.8,21.1c-1.2,2.2-2.5,4.4-5.6,3.9s-4.1-2.7-4.6-5.5
	c-1.8-10-8.9-16-17.2-14.5c-5.1,0.9-9.6,3.7-12.7,7.8c-9.7,12-12,25.8-7.5,40.4c2.9,9.1,12.9,13.2,22.7,10c4.3-1.6,8.1-4.2,11.1-7.6
	c2-2.1,3.8-4.5,7.3-3.7c3.4,0.8,3.4,4.1,4.1,6.8L75.3,138.2z"/>
<path class="st0" d="M197.3,107.3c0,1.6,0.3,4.3-3.1,4.4c-3.1,0.2-4.3-1.7-4.4-4.7c-0.1-2.9-2.3-4-4.7-4.3c-2.9-0.4-5.7,0-7.3,2.7
	c-1.1,1.9,0,3.4,1.6,4.6c2.3,1.8,5.1,2.5,7.9,3.5c5,1.7,9.5,4,10.2,10c1,6.2-1.7,12.3-7,15.6c-8.9,6.1-19.4,5.7-27.1-0.9
	c-3-2.5-4.4-5.5-2.9-9.5c0.8-1.9,1.8-3.5,4.1-3.4c1.9,0,3.7,1.2,4.3,3.1c2.9,6.5,5.3,7.9,10,6.6c2.6-0.8,5.1-2,5.3-5
	s-2.5-3.7-4.6-4.5c-1.9-0.7-3.9-1.3-5.9-1.7c-6-1.7-9.2-5.7-10-11.8c-1-5.8,1.9-11.5,7.2-14.1C176,95,182.1,94,188,95.3
	C195.2,96.8,197.2,99.2,197.3,107.3z"/>
<path class="st0" d="M221.6,95.4c6.1,0,12.1,0,18.1,0c1.7,0,4-0.4,4.6,1.7c0.8,2.9,1.6,6-0.1,8.8c-0.9,1.6-2.4,0.8-3.6,0
	c-3-1.9-6.5-3-10.1-3.1c-2.3,0-3.4,0.7-3.7,3.2c-1.1,9.1-2.5,18.2-3.8,27.3c-0.2,1.5,0.2,3,1.1,4.1c1.8,2.6,0.6,5.4-2.6,5.5
	c-4.3,0.2-8.6,0-12.8,0c-1.4,0.1-2.7-0.9-3.1-2.2c-0.5-1.4,0.1-2.9,1.4-3.5c2.1-1.2,2.4-3,2.7-5.2c1-8.6,2.2-17.2,3.4-25.8
	c0.4-2.9-0.4-3.7-3.2-3.7s-5.5,0-7.9,1.8c-2.4,1.8-3.4,0.9-3.8-1.8c-0.8-5.6,0.7-7.4,6.3-7.4L221.6,95.4z"/>
<path class="st0" d="M153.6,153.3h80.7v0.9h-80.7L153.6,153.3z"/>
<path class="st0" d="M108.9,154.4H64.6v-0.8h44.3V154.4z"/>
<path class="st1" d="M17.4,177.5v-14.9h9.1v2.3h-6.8v3.7h6.2v2.3h-6.2v6.6L17.4,177.5z"/>
<path class="st1" d="M40.1,171.5h-2.6v6h-2.3v-14.9h5.6c0.6,0,1.2,0.1,1.7,0.4c1,0.5,1.9,1.3,2.3,2.4c0.2,0.5,0.4,1.1,0.3,1.7
	c0,0.9-0.2,1.7-0.7,2.4c-0.5,0.7-1.1,1.3-1.8,1.6l3.3,6.4h-2.5L40.1,171.5z M37.4,169.2h3.3c0.3,0,0.6-0.1,0.8-0.2
	c0.2-0.1,0.5-0.3,0.7-0.4c0.2-0.2,0.4-0.4,0.5-0.7c0.1-0.3,0.2-0.6,0.2-0.8c0-0.6-0.2-1.1-0.6-1.5c-0.4-0.4-0.9-0.6-1.4-0.6h-3.4
	V169.2z"/>
<path class="st1" d="M54.6,177.5v-14.9h9.1v2.3h-6.8v3.7h6.2v2.3h-6.2v4.3h6.9v2.3L54.6,177.5z"/>
<path class="st1" d="M81.2,166.2c-0.3-0.4-0.8-0.8-1.3-1c-0.5-0.2-1.1-0.3-1.7-0.3c-0.7,0-1.3,0.1-1.9,0.5c-0.4,0.2-0.7,0.7-0.7,1.2
	c0,0.3,0.1,0.6,0.3,0.8c0.2,0.2,0.5,0.4,0.8,0.6c0.3,0.2,0.7,0.4,1.1,0.5l1.1,0.4l0,0c0.4,0.1,0.9,0.3,1.4,0.6
	c0.5,0.2,1,0.5,1.4,0.9c0.5,0.4,0.8,0.8,1.2,1.3c0.3,0.5,0.5,1.1,0.5,1.8c0,0.7-0.1,1.3-0.4,1.9c-0.3,0.6-0.6,1-1.1,1.4
	c-0.5,0.4-1.1,0.7-1.7,0.8c-0.7,0.2-1.4,0.3-2.1,0.3c-1,0-2-0.2-2.9-0.7c-1.1-0.6-2-1.3-2.7-2.2l1.9-1.5c0.4,0.7,1,1.2,1.7,1.6
	c0.7,0.3,1.4,0.5,2.1,0.5c0.4,0,0.8,0,1.2-0.1c0.3-0.1,0.6-0.2,0.9-0.4c0.2-0.1,0.5-0.3,0.6-0.6c0.1-0.2,0.2-0.5,0.2-0.7
	c0-0.3-0.1-0.7-0.3-0.9c-0.2-0.3-0.5-0.5-0.8-0.7c-0.3-0.2-0.7-0.4-1.1-0.5l-1.2-0.4l-0.5-0.2c-0.5-0.2-1-0.4-1.4-0.5
	c-0.4-0.2-0.9-0.4-1.2-0.7c-0.4-0.3-0.7-0.7-0.9-1.1c-0.2-0.5-0.4-1.1-0.3-1.7c0-0.5,0.1-1,0.3-1.5c0.2-0.5,0.5-1,0.9-1.3
	c0.4-0.4,1-0.7,1.5-0.9c0.7-0.2,1.5-0.4,2.2-0.3c0.5,0,1,0,1.4,0.1c0.5,0.1,0.9,0.2,1.3,0.4c0.5,0.2,0.9,0.5,1.3,0.8
	c0.5,0.4,0.9,0.8,1.2,1.2l-2,1.6L81.2,166.2z"/>
<path class="st1" d="M100.6,177.5v-6.6h-6.1v6.6h-2.3v-14.9h2.3v6h6.1v-6h2.3v14.9L100.6,177.5z"/>
<path class="st2" d="M125.1,177.5v-10.1l-4.8,7.2l-4.9-7v10h-2.4v-14.9h1.9l5.4,7.8l5.4-7.8h1.9v14.9L125.1,177.5z"/>
<path class="st2" d="M146.8,173.2h-5.1l-1.7,4.3h-2.9l5.8-14.9h2.4l5.8,14.9h-2.9L146.8,173.2z M142.5,171h3.3l-0.4-1.1l-0.4-1
	l-0.4-1l-0.5-1.2L142.5,171z"/>
<path class="st2" d="M166.3,171.5h-2.9v6h-2.5v-14.9h6.2c0.6,0,1.3,0.1,1.9,0.4c0.6,0.2,1.1,0.5,1.5,1c0.4,0.4,0.8,0.9,1,1.4
	c0.6,1.4,0.5,2.9-0.4,4.1c-0.5,0.7-1.2,1.3-2,1.6l3.7,6.4h-2.9L166.3,171.5z M163.4,169.2h3.7c0.3,0,0.6,0,0.9-0.2
	c0.3-0.1,0.5-0.3,0.7-0.4c0.2-0.2,0.4-0.4,0.5-0.7c0.1-0.3,0.2-0.6,0.2-0.8c0-0.6-0.2-1.1-0.7-1.5c-0.5-0.4-1-0.6-1.7-0.6h-3.7
	V169.2z"/>
<path class="st2" d="M182.3,177.5v-14.9h2.5v6.3l6.9-6.3h3.4l-8,7.2l1.9,1.9l2,2l2,2l1.9,1.8h-3.5l-6.7-6.6v6.6H182.3z"/>
<path class="st2" d="M204.7,177.5v-14.9h10v2.3h-7.6v3.7h6.9v2.3h-6.9v4.3h7.6v2.3L204.7,177.5z"/>
<path class="st2" d="M230.8,164.9v12.6h-2.5v-12.6h-3.9v-2.3h10.2v2.3H230.8z"/>
</svg>
