<?xml version="1.0" encoding="utf-8"?>
<!-- Generator: Adobe Illustrator 21.1.0, SVG Export Plug-In . SVG Version: 6.00 Build 0)  -->
<svg version="1.1" id="Layer_1" xmlns="http://www.w3.org/2000/svg" xmlns:xlink="http://www.w3.org/1999/xlink" x="0px" y="0px"
	 viewBox="0 0 250 250" style="enable-background:new 0 0 250 250;" xml:space="preserve">
<style type="text/css">
	.st0{fill:#EE3A43;}
</style>
<title>Grocery</title>
<path class="st0" d="M49,56.5c1.4,0.2,2.7,0.3,4,0.5c6.6,0.9,12.7,4,17.4,8.7l0.7,0.7c0-1,0.1-2,0.2-3c0.6-3.5,3.6-6,7.1-6.2
	c1.5-0.1,3,0,4.4,0.3c3.6,0.9,6.1,4.2,6,7.9c0,3.2-0.4,6.3-0.7,9.5c-0.4,3-0.4,6.1,0,9.1c0.9-0.2,1.8-0.5,2.7-0.7
	c3-0.6,6.1-0.5,9.1,0.3c3.3,0.9,6.8,0.9,10.1,0c1.8-0.4,3.6-0.6,5.4-0.6c1.5-0.1,2.8,1.1,2.8,2.6c0,0.1,0,0.1,0,0.2
	c0.1,1.3,0,2.6,0,3.8c0,12.3,0,24.6,0,36.9c0,2.3,0.3,4.5,1,6.7c1.4,3.8,5.2,6.2,9.2,6c5.8-0.4,9.9-4.3,11.8-10.2
	c0.8-2.8,1.2-5.7,1.1-8.6c0-4.7,0-9.4,0-14.1c-0.1-1.4-0.2-2.9-0.5-4.3c-0.1-0.3-0.2-0.6-0.3-0.9c-0.3-1.1-1.4-1.8-2.5-1.6
	c-0.1,0-0.3,0.1-0.4,0.1c-0.9,0.3-1.8,0.5-2.7,0.7c-3,0.7-6-1.2-6.6-4.2c0-0.1-0.1-0.3-0.1-0.4c-0.5-2.1-0.5-4.2,0-6.3
	c0.8-3.7,3.6-5.5,7-6.2c2.7-0.6,5.4-0.6,8.1,0.1c3.8,1,7.8,1,11.6,0c1.7-0.3,3.3-0.5,5-0.4c1.7-0.1,3.1,1.3,3.2,3c0,0.1,0,0.1,0,0.2
	c0.1,1.5,0,3,0,4.4c0,13.4,0,26.8,0,40.2c0,2.1,0.2,4.1,0.4,6.2c0.1,0.5,0.3,1,0.5,1.5c0.4,0.9,1.4,1.4,2.4,1c0.2,0,0.4-0.1,0.6-0.1
	c1.8-0.8,3.8-1,5.7-0.4c0-0.5,0-0.9,0-1.2c0-17.3,0-34.7,0-52c0-2.2,0-4.4-0.2-6.7c-0.1-0.9-0.3-1.8-0.7-2.7c-0.3-1-1.4-1.6-2.4-1.3
	c-0.1,0-0.1,0-0.2,0.1c-0.5,0.1-1.1,0.3-1.6,0.5c-2.9,1.3-6.3,0-7.6-2.9c-0.3-0.6-0.4-1.2-0.5-1.8c-0.6-2.7-0.4-5.6,0.7-8.2
	c1.1-2.8,3.9-4.6,6.9-4.4c3.9-0.1,7.8,0.3,11.6,1.3c2.2,0.4,4.4,0.3,6.5-0.3c2.1-0.5,4.1-0.8,6.2-1c2.1-0.1,4,1.5,4.3,3.6
	c0.1,0.9,0.2,1.7,0.2,2.6c0,8.2,0,16.4,0,24.7c0,0.2,0,0.4,0,0.7c0.2-0.1,0.3-0.2,0.5-0.4c4-5.1,10-8.2,16.4-8.7
	c7.2-1,14.4,1.3,19.6,6.4c3.4,3.4,6,7.6,7.5,12.2c1.9,5.4,3,11,3.1,16.7c0.5,8.8-1.2,17.6-5,25.6c-2.4,5.2-6.3,9.6-11.2,12.6
	c-3.7,2.2-7.8,3.5-12.1,3.7c-4.6,0.5-9.3-0.1-13.6-1.8c-4.8-1.9-8.8-5.4-11.3-9.9c-0.1-0.3-0.3-0.5-0.6-0.6c0,0.9,0.1,1.8,0.2,2.7
	c0.5,2.8-1.1,5.5-3.6,6.5c-2.6,1.2-8.5,1.2-11.1-1.4c-0.1,0.1-0.2,0.2-0.3,0.2c-1.8,2.1-4.7,3.1-7.4,2.5c-2-0.3-4-0.7-6.1-1.1
	c-2.7-0.4-5.4-0.2-8,0.6c-1.6,0.5-3.2,0.7-4.9,0.5c-1.9-0.2-3.4-1.8-3.6-3.8c-0.1-0.8-0.2-1.6-0.2-2.4c0-1.2,0-2.4,0-3.9
	c-0.3,0.3-0.5,0.5-0.6,0.6c-8.7,10.2-22.8,13.9-35.3,9.2c-6.7-2.3-11.4-8.3-12-15.3c-0.3-2.4-0.5-4.7-0.5-7.1c0-9.2,0-18.4,0-27.6
	c0-1.3-0.2-2.7-0.5-3.9c-0.6-2.3-1.5-2.8-3.7-2.1c-1.2,0.5-2.5,0.7-3.8,0.6c-0.9-0.2-1.9-0.5-2.7-1c-0.4-0.3-0.9-0.3-1.3,0
	c-3.9,2.1-8.5,2.5-12.6,1c-3.1-1-5.1-3.9-5.1-7.1c-0.1-1.6,0-3.2,0-4.8c0.3-4.7-2.5-9.1-7-10.7c-3.5-1.4-7.3-1.7-11-1.1
	c-4.4,0.5-8.3,2.9-10.9,6.5c-1.5,2.1-2.6,4.4-3.3,6.9c-1.1,3.6-1.7,7.3-1.8,11c-0.1,3.9-0.2,7.9-0.1,11.8c0,5,0.9,10,2.8,14.7
	c2.3,5.8,7.6,9.8,13.9,10.3c3.5,0.6,7,0.3,10.4-0.7c4.2-1.2,7.2-5,7.4-9.3c0.2-2.2,0-4.4,0.2-6.7c0-4.4,3.2-8.2,7.6-8.9
	c3.7-0.9,7.6-0.1,10.7,2c2.7,2,4.5,5.1,4.9,8.5c1.9,11.2-3.3,22.5-13,28.4c-5.2,3.2-11,5.3-17.1,6.2c-4.4,0.7-8.9,0.9-13.4,0.5
	c-9.5-0.5-18.6-4-25.9-10.1c-5-4.4-8.8-9.9-11-16.2c-2.2-5.7-3.5-11.7-4-17.8c-0.1-1.2-0.2-2.4-0.4-3.6c0-1.7,0-3.3,0-5
	c0.1-1.3,0.2-2.7,0.4-4c0.4-5.4,1.4-10.8,2.9-16c3.7-15.2,16.5-26.6,32-28.5c1.5-0.2,3-0.4,4.5-0.5L49,56.5z M220.4,119.6
	c-0.2-2.3-0.4-4.7-0.7-7.1c-0.4-3.4-1.8-6.6-4-9.2c-3-4-8.7-4.7-12.7-1.7c-0.6,0.5-1.2,1.1-1.7,1.7c-1.6,2-2.8,4.2-3.6,6.7
	c-1.6,5.1-2,10.6-1.1,15.9c0.4,2.9,1.3,5.7,2.8,8.2c3,5,9.5,6.6,14.4,3.6c0.1-0.1,0.2-0.1,0.3-0.2c1.8-1.4,3.2-3.3,4-5.5
	C219.6,128.1,220.4,123.9,220.4,119.6z"/>
<path class="st0" d="M130.4,176.7c-3.1,0.8-4.8-0.9-4.4-4.2c0-0.6,0.1-1.2,0.2-1.8c0-0.9-0.4-1.6-1.2-1.6c-2.3-0.1-4.6,0-6.9,0
	c-0.6,0-1.1,0.4-1.1,1c0,0,0,0,0,0.1c0,1.3-0.1,2.6-0.1,3.9c0,0.7,0.6,0.9,1.3,0.9c0.7,0,1.5,0,1.6-1c0-0.5,0-1.1,0-1.6
	c-0.1-0.9,0.5-1.6,1.3-1.8c0.1,0,0.1,0,0.2,0c1.4-0.1,2.3,0.4,2.6,1.4c0,0.3,0,0.7,0,1c0,2.2,0,4.4,0.1,6.7c0,0.8,0.2,1.6,0.2,2.4
	c0.1,1.2-0.7,2.3-1.9,2.4c-0.3,0-0.7,0-1-0.1c-0.8-0.2-1.4-0.9-1.4-1.8c0-0.5,0-1.1,0-1.6c0-0.5-0.6-1.1-1.7-1.1
	c-0.7,0-1.3,0.2-1.3,1c0,1.6,0,3.2,0.1,4.8c0,1,0.6,1.4,1.6,1.1c1-0.2,2.2-0.3,2.8,0.8c0.7,1.3,0.6,2.8-0.2,3.9
	c-0.5,0.6-1.2,0.9-2,0.9c-1.2,0-2.4-0.2-3.7-0.2c-2.4,0-4.8,0.1-7.2,0.2h-0.7c-1.7,0.2-3.2-1-3.3-2.7c-0.1-0.6,0-1.2,0.3-1.7
	c0.3-1.1,1.4-1.7,2.5-1.4c1.8,0.3,2.2,0,2.3-1.8c0-1.4,0-2.8,0-4.2c0-3,0-6,0-9c0-0.2,0-0.4,0-0.7c-0.1-1.9-0.5-2.2-2.3-1.8
	c-1,0.3-2.1-0.3-2.5-1.3c-0.8-1.5-0.2-3.3,1.2-4.1c0.4-0.2,0.9-0.4,1.4-0.4c1.5,0,3,0.2,4.5,0.2c3.2,0,6.4,0,9.6,0
	c2.9,0,5.8-0.2,8.7-0.2c1.6,0,2.1,0.5,2.1,2.1c0,1.2-0.2,2.4-0.2,3.7c0,0.3,0,0.5,0,1c0.2-0.3,0.3-0.5,0.4-0.6
	c1.6-3.6,4.9-6,8.8-6.6c2.7-0.5,5.6-0.3,8.2,0.6c3.6,1.4,6.3,4.5,7.1,8.2c1.5,4.7,1.2,9.7-0.7,14.2c-1.6,3.9-5.3,6.5-9.4,6.9
	c-2.5,0.4-5.1,0.2-7.6-0.7c-3.9-1.4-6.8-4.8-7.4-8.9C130.8,181.4,130.7,179,130.4,176.7z M149.6,178.7c-0.2-2-0.3-3.6-0.6-5.1
	c-0.2-2.1-1.6-3.9-3.6-4.5c-2.6-0.9-5.4,0.4-6.3,3c0,0.1-0.1,0.2-0.1,0.2c-0.4,1.4-0.7,2.9-0.8,4.3c-0.3,2.4,0,4.8,0.7,7.1
	c0.6,2.2,2.6,3.6,4.8,3.6c2.3,0.1,4.3-1.4,4.8-3.6C149.1,182.1,149.4,180.4,149.6,178.7z"/>
<path class="st0" d="M187.8,178.2c0-2.2,0-4.3,0-6.4c0-0.4-0.1-0.9-0.1-1.3c-0.2-1.1-0.6-1.4-1.6-1.1c-2.5,0.9-3.6-1.4-3.2-3.6
	c0.1-1.3,1.3-2.3,2.6-2.2c1.4,0,2.9,0.2,4.3,0.2c2.1,0,4.3,0,6.4-0.1c1.8-0.1,3.6-0.1,5.3,0c2.8,0.4,5.4,1.9,6.9,4.3
	c4,6,4,13.9,0,19.9c-2.2,3.2-6,5-10,4.6c-2.2-0.1-4.3-0.3-6.5-0.3c-1.8,0-3.4,0.2-5.2,0.3h-1.1c-1.7,0.1-3.1-1.1-3.2-2.8
	c0-0.6,0.1-1.1,0.3-1.6c0.3-1.1,1.4-1.7,2.5-1.4c0,0,0,0,0,0c1.8,0.3,2.2,0,2.3-1.8c0-2.3,0-4.7,0-7L187.8,178.2z M195.3,178.4
	c0,2.3,0,4.7,0,7c0,0.7,0,1.5,1,1.8c0.6,0.2,1.3,0.2,2,0.2c2.1-0.3,3.8-1.7,4.5-3.7c1.4-3.1,1.6-6.7,0.4-9.9
	c-0.6-2.3-2.4-4.1-4.7-4.6c-2.2-0.5-3.1,0.2-3.1,2.5C195.2,174,195.3,176.1,195.3,178.4L195.3,178.4z"/>
<path class="st0" d="M184.6,178.2c0,2.7-0.5,5.4-1.5,8c-1.6,4-5.3,6.7-9.5,7.1c-2.2,0.3-4.5,0.2-6.7-0.4c-3.6-0.9-6.4-3.5-7.6-7
	c-1.8-4.9-1.8-10.3,0-15.2c1.4-4,5-6.9,9.3-7.4c2.4-0.4,4.9-0.3,7.3,0.4c3.9,1.1,6.9,4.3,7.9,8.3c0.5,2.1,0.9,4.2,1.2,6.3
	L184.6,178.2z M176.9,178.8c-0.2-2-0.3-3.6-0.6-5c-0.1-2.1-1.6-3.9-3.6-4.6c-2.5-0.9-5.4,0.4-6.3,2.9c0,0.1-0.1,0.2-0.1,0.2
	c-1.1,3.8-1.1,7.8,0,11.6c0.4,1.5,1.5,2.7,3,3.2c2.5,1.1,5.3-0.1,6.4-2.6c0.1-0.2,0.1-0.4,0.2-0.5
	C176.4,182.3,176.7,180.6,176.9,178.8L176.9,178.8z"/>
<path class="st0" d="M216.7,190.8c-0.7,2-1.6,2.6-3.3,2.2c-1.2-0.1-2-1.2-1.9-2.4c0-0.9,0.1-1.8,0.1-2.6c0-1.5-0.1-3-0.1-4.5
	c-0.1-1.2,0.6-2.2,1.8-2.4c0.7-0.2,1.5-0.3,2.2-0.2c1.5,0.2,2.3,1,2.4,2.8c-0.1,2,1.4,3.6,3.4,3.7c0,0,0.1,0,0.1,0
	c1.1,0.1,2.3,0.1,3.4-0.2c1.3-0.3,2.1-1.5,2.1-2.8c0.1-1.2-0.7-2.3-1.9-2.6c-2-0.6-4-1.1-6-1.7c-2.5-0.5-4.6-2.1-5.9-4.3
	c-2.1-4.3-0.4-9.5,4-11.7c0.8-0.4,1.6-0.6,2.4-0.8c2.1-0.5,4.4-0.2,6.4,0.7c0.9,0.5,1.8,1.1,2.7,1.8c0-0.1,0-0.1,0-0.2
	c0.1-1.9,1.3-2.1,2.5-2.1c1.7,0,2.5,0.8,2.4,2.4c0,1-0.2,1.9-0.2,2.9c0,1,0.1,2.2,0.1,3.3c0,1.3-0.9,2.3-2.2,2.4
	c-1.4,0.4-2.9-0.3-3.5-1.7c-0.1-0.4-0.2-0.8-0.3-1.2c-0.1-1.1-0.9-2.1-2-2.4c-1.2-0.5-2.5-0.7-3.8-0.4c-1.2,0.2-2.1,1.1-2.3,2.3
	c-0.2,1.3,0.7,2.4,1.9,2.6c1.6,0.5,3.3,0.7,4.9,1.2c1.3,0.4,2.6,0.9,3.8,1.5c2.9,1.5,4.5,4.7,4,7.9c-0.3,4.4-3.6,8.1-7.9,8.8
	c-3,0.7-6.2,0-8.7-1.8L216.7,190.8z"/>
<path class="st0" d="M240.9,157.2c-2.5,0-4.5-2-4.5-4.5c0-2.5,2-4.5,4.5-4.5c2.5,0,4.5,2,4.5,4.5c0,0,0,0,0,0
	C245.4,155.2,243.4,157.2,240.9,157.2z M240.9,148.8c-2.2,0-4,1.8-4,4c0,2.2,1.8,4,4,4c2.2,0,4-1.8,4-4c0,0,0,0,0,0
	C244.8,150.5,243.1,148.8,240.9,148.8L240.9,148.8z"/>
<path class="st0" d="M239.4,149.9c0.4-0.1,0.9-0.1,1.3-0.1c0.5-0.1,1.1,0.1,1.5,0.4c0.3,0.3,0.4,0.6,0.4,1c0,0.6-0.4,1.1-1,1.3l0,0
	c0.4,0.2,0.7,0.6,0.8,1c0.1,0.5,0.2,1,0.4,1.4h-0.7c-0.2-0.4-0.3-0.8-0.3-1.2c-0.2-0.7-0.4-1-1-1h-0.6v2.2h-0.7L239.4,149.9z
	 M240.1,152.2h0.7c0.7,0,1.2-0.4,1.2-1c0-0.6-0.5-1-1.2-1c-0.2,0-0.4,0-0.7,0L240.1,152.2z"/>
</svg>
