<?xml version="1.0" encoding="utf-8"?>
<!-- Generator: Adobe Illustrator 21.1.0, SVG Export Plug-In . SVG Version: 6.00 Build 0)  -->
<svg version="1.1" id="Layer_1" xmlns="http://www.w3.org/2000/svg" xmlns:xlink="http://www.w3.org/1999/xlink" x="0px" y="0px"
	 viewBox="0 0 250 250" style="enable-background:new 0 0 250 250;" xml:space="preserve">
<style type="text/css">
	.st0{fill:#80BD00;}
	.st1{fill:#004A87;}
	.st2{fill:#FFFFFF;}
</style>
<title>CR</title>
<path class="st0" d="M199.4,181.3c-0.6-0.1-1.2-0.2-1.9-0.3c-1.1-0.2-2.2-0.6-3.1-1.3l1.7-1.5c1,0.4,2.1,0.7,3.1,1
	c0.7,0,1.4-0.1,2.1-0.3c0.5-0.2,0.9-0.7,0.8-1.2c0-0.5-0.4-0.9-0.8-1.1c-0.9-0.3-1.8-0.5-2.7-0.8c-0.7-0.2-1.4-0.5-2.1-0.8
	c-1.1-0.5-1.8-1.6-1.7-2.8c0-1.2,0.7-2.3,1.8-2.7c1.5-0.6,3.1-0.8,4.7-0.6c1.4,0.1,2.6,0.6,3.7,1.5c-0.6,0.4-1.2,0.9-1.8,1.2
	c-0.2,0.1-0.5,0-0.8-0.2c-1-0.6-2.3-0.7-3.4-0.4c-0.6,0.1-1.1,0.6-1.1,1.2c0,0.6,0.5,1,1,1.1c1.2,0.3,2.4,0.7,3.6,1
	c1,0.3,1.8,0.8,2.4,1.6c0.9,1.3,0.6,3.1-0.7,4.1c-0.9,0.6-1.9,1-3,1.1c-0.2,0-0.5,0.1-0.7,0.2L199.4,181.3z"/>
<path class="st0" d="M169,171.8c-0.2,0.3-0.4,0.6-0.5,0.8c-1.2,2.5-2.4,5.1-3.5,7.6c-0.3,0.6-0.6,0.9-1.2,0.8c-0.2,0-0.4,0-0.7,0
	c-0.5,0.1-0.7-0.2-0.9-0.6c-1.2-2.6-2.5-5.2-3.7-7.7c-0.1-0.3-0.3-0.5-0.5-0.6c-0.1,0.6-0.3,1.3-0.4,1.9c-0.4,2.1-0.8,4.3-1.1,6.4
	c-0.1,0.6-0.3,0.7-0.9,0.7c-0.5,0-1.1,0-1.6,0c-0.5,0-0.7,0-0.5-0.6c0.7-3.1,1.3-6.1,2.1-9.2c0.1-0.5,0.3-1,0.3-1.5
	c0.1-0.5,0.3-0.7,0.8-0.7c0.7,0,1.4,0,2.1,0c0.4,0,0.7,0.2,0.9,0.5c1.2,2.5,2.3,4.9,3.5,7.3c0.1,0.3,0.3,0.5,0.4,0.9
	c0.2-0.3,0.3-0.4,0.3-0.6c1.2-2.5,2.4-5,3.6-7.5c0.1-0.4,0.6-0.7,1-0.6c0.7,0,1.4,0,2,0c0.5,0,0.7,0.3,0.8,0.7
	c0.6,2.7,1.2,5.3,1.8,8c0.2,0.9,0.4,1.8,0.6,2.7c0.1,0.4,0,0.6-0.5,0.6c-0.5,0-1.3,0-1.9,0c-0.4,0-0.6-0.1-0.7-0.5
	c-0.5-2.6-0.9-5.1-1.4-7.7C169.1,172.5,169.1,172.2,169,171.8z"/>
<path class="st0" d="M125.9,176.2l6.4,4.8c-1.5,0-3,0-4.4,0c-0.3-0.1-0.5-0.2-0.7-0.4l-5.3-4.3c-0.2-0.2-0.5-0.3-0.7-0.4
	c0,0.4,0,0.6,0,0.9c0,1.2,0,2.5,0,3.7c0,0.4-0.1,0.6-0.5,0.6c-0.9,0-1.7,0-2.6,0c-0.4,0-0.5-0.2-0.5-0.5c0-3.7,0-7.3,0-11
	c0-0.2,0.3-0.5,0.4-0.5c3.1,0,6.2,0,9.3,0.1c0.7,0.1,1.3,0.3,1.9,0.6c1.1,0.4,1.8,1.5,1.7,2.7c0,1.2-0.7,2.2-1.8,2.7
	c-0.8,0.3-1.6,0.5-2.4,0.7l-0.6,0.1L125.9,176.2z M121.1,170.9c0,1,0,2,0,3c0,0.4,0.1,0.5,0.5,0.5c1.3,0,2.6,0,3.9-0.2
	c1.3-0.2,1.7-0.7,1.8-1.4c0.1-0.9-0.5-1.7-1.3-1.8c-0.1,0-0.2,0-0.3,0C124.2,170.8,122.7,170.9,121.1,170.9L121.1,170.9z"/>
<path class="st0" d="M95.1,181c-1.1,0-2,0-3,0c-0.2,0-0.4-0.2-0.6-0.4c-0.1-0.2-0.3-0.5-0.3-0.8c-0.6-1.2-0.2-1.2-1.8-1.2
	c-1.6,0-3.4,0-5.1,0c-0.4,0-0.8,0.2-0.9,0.6c-0.7,1.7-0.7,1.7-2.7,1.7h-1.5c0.4-0.9,0.8-1.6,1.2-2.4l1.8-3.6
	c0.9-1.8,1.8-3.6,2.7-5.3c0.2-0.4,0.6-0.7,1.1-0.7c0.9,0,1.8,0,2.8,0c0.3,0,0.5,0.1,0.7,0.4c1.9,3.7,3.8,7.5,5.7,11.3
	C95.1,180.8,95.1,180.9,95.1,181z M84.4,176.8h5.5l-2.7-6H87L84.4,176.8z"/>
<path class="st0" d="M52.3,169c1.9,0,3.7,0,5.6,0c0.5,0,0.7,0.2,0.7,0.7c0,1.5,0.2,1.3-1.3,1.3c-2.4,0-4.7,0-7.1,0
	c-0.6,0-0.8,0.2-0.8,0.8c0,0.5,0,1,0,1.6c0,0.6,0.2,0.8,0.8,0.7c2.3,0,4.5,0,6.8,0c1.3,0,1.1-0.1,1.1,1.2c0,0.1,0,0.1,0,0.2
	c0,0.5-0.2,0.6-0.6,0.6c-2.1,0-4.3,0-6.4,0c-1.6,0-1.6,0-1.6,1.6c0,0.9-0.1,1.8,0,2.8c0,0.5-0.2,0.5-0.6,0.5c-0.7,0-1.5,0-2.2,0
	s-0.7-0.1-0.7-0.7c0-2.4,0-4.7,0-7.1c0-1.2,0-2.4,0-3.5c0-0.5,0.2-0.7,0.7-0.7C48.5,169,50.3,169,52.3,169z"/>
<path class="st0" d="M129,68.7c0.8,0.2,1.6,0.7,2.2,1.3c1.2,1.4,1,3.4-0.4,4.6c-1.4,1.2-3.4,1-4.6-0.4c-0.1-0.2-0.2-0.3-0.3-0.5
	c-0.9-1.5-0.5-3.5,1-4.4c0,0,0.1,0,0.1-0.1c0.4-0.2,0.9-0.4,1.3-0.6L129,68.7z"/>
<path class="st0" d="M137.1,81.6c0.3,1.3,0.7,2.5,0.9,3.7c0.6,4.3-0.3,8.7-2.7,12.3c-1.3,2.1-2.9,4.1-4.7,5.8l-0.6,0.5
	c-1.4-4.4-1.3-9.1,0.1-13.5C131.4,86.7,133.9,83.6,137.1,81.6z"/>
<path class="st0" d="M128.4,113.2c0.4-1.7,1-3.3,1.7-4.9c0.9-1.9,2.2-3.6,3.8-5c2.2-2,5-3.4,8-3.8c0.7-0.1,0.8,0,0.7,0.7
	c-0.4,2.5-1.5,4.9-3.3,6.8c-2,2.2-4.5,3.9-7.2,4.9c-1.1,0.4-2.2,0.8-3.3,1.1C128.7,113.2,128.5,113.2,128.4,113.2z"/>
<path class="st0" d="M139.8,123.7c-2.6,0-4.7-2.1-4.7-4.7c0-2.6,2.1-4.7,4.7-4.7c2.5,0,4.6,2.1,4.7,4.6
	C144.6,121.6,142.4,123.7,139.8,123.7C139.8,123.7,139.8,123.7,139.8,123.7z"/>
<path class="st0" d="M114.2,97.8c5.9-0.3,10.8,1.2,14.2,6.2c0.2,0.3,0.3,0.5,0.4,0.8c0.5,1,0.5,1.1-0.6,1.2
	c-3.6,0.4-7.3-0.9-9.9-3.4c-1.5-1.3-2.8-2.8-3.9-4.4L114.2,97.8z"/>
<path class="st0" d="M149.4,108.1c2.4,0,4.4,1.9,4.5,4.3c0,0.1,0,0.2,0,0.3c0,2.4-2,4.3-4.4,4.3c0,0-0.1,0-0.1,0
	c-2.5,0-4.5-2-4.5-4.5C144.9,110.1,146.9,108.1,149.4,108.1L149.4,108.1z"/>
<path class="st0" d="M159.4,102.6c0,2.3-1.9,4.2-4.3,4.2c-2.3,0-4.2-1.9-4.2-4.3c0-2.3,1.9-4.2,4.2-4.2
	C157.5,98.3,159.4,100.2,159.4,102.6z"/>
<path class="st0" d="M151.1,91.4c0-2.2,1.8-4,4-4s4,1.8,4,4s-1.8,4-4,4S151.1,93.6,151.1,91.4z"/>
<path class="st0" d="M150.3,85c-2.1,0-3.8-1.7-3.8-3.8c0-2.1,1.7-3.8,3.8-3.8c2.1,0,3.8,1.7,3.8,3.8C154.1,83.3,152.4,85,150.3,85
	C150.3,85,150.3,85,150.3,85z"/>
<path class="st0" d="M127,99.7c-3.9-1.4-7.2-9.2-5.3-12.2C125.4,88.7,128.4,95.7,127,99.7z"/>
<path class="st0" d="M141.1,70.8c2,0,3.6,1.6,3.6,3.5c-0.1,1.9-1.6,3.5-3.5,3.5c-1.9,0-3.5-1.6-3.5-3.5
	C137.6,72.4,139.2,70.8,141.1,70.8L141.1,70.8z"/>
<path class="st0" d="M118.3,73c1.7,0,3,1.4,3,3.1c0,0,0,0,0,0c-0.1,1.7-1.5,2.9-3.1,3c-1.7,0-3-1.4-3-3.1c0,0,0-0.1,0-0.1
	C115.3,74.3,116.6,73,118.3,73C118.3,73,118.3,73,118.3,73z"/>
<path class="st0" d="M109.7,81.3c1.5,0,2.7,1.1,2.7,2.6c0,0.1,0,0.2,0,0.2c0,1.5-1.2,2.8-2.8,2.7c0,0,0,0-0.1,0
	c-1.5,0.1-2.8-1.1-2.9-2.6s1.1-2.8,2.6-2.9C109.5,81.3,109.6,81.3,109.7,81.3z"/>
<path class="st0" d="M104.7,97.2c-1.4,0-2.5-1.1-2.5-2.5s1.1-2.5,2.5-2.5c1.4,0,2.5,1.1,2.6,2.5c0,1.4-1.1,2.5-2.4,2.6
	C104.8,97.2,104.7,97.2,104.7,97.2z"/>
<path class="st0" d="M108.3,106c0,1.3-1,2.3-2.3,2.3c0,0,0,0,0,0c-1.3,0-2.3-1-2.3-2.3c0,0,0,0,0,0c0.1-1.3,1.1-2.3,2.3-2.3
	C107.2,103.7,108.3,104.7,108.3,106C108.3,106,108.3,106,108.3,106z"/>
<path class="st0" d="M129.3,107.2c-0.1,0.2-0.2,0.4-0.3,0.6c-1.4,1.5-2.5,3.2-3.3,5.1c-1.2,2.8-1.3,6-0.3,8.8c0.1,0.4,0.5,0.9-0.3,1
	c-0.4,0.2-0.9,0-1-0.4c0-0.1-0.1-0.2-0.1-0.3c-0.6-2.6-0.5-5.3,0.3-7.9c0.9-2.2,2.2-4.2,3.8-6c0.3-0.4,0.6-0.7,0.9-1.1L129.3,107.2z
	"/>
<path class="st0" d="M112.3,114.3c0.7,0,1.3,0.6,1.3,1.3c0,0.8-0.6,1.4-1.3,1.5c-0.7,0-1.4-0.6-1.4-1.3
	C110.9,115,111.5,114.4,112.3,114.3z"/>
<path class="st1" d="M5,140.8c0.1-1.1,0.2-2.2,0.4-3.3c1.1-6.1,3.5-11.5,8.4-15.5c3.5-2.9,7.9-4.3,12.4-3.9c1.7,0,3.4,0.3,4.9,0.9
	c0.2,0.1,0.5,0.4,0.5,0.6c0,2.5,0,5,0,7.7l-1-0.9c-1.8-1.7-4-2.7-6.4-3.1c-2.9-0.3-5.7,0.9-7.5,3.2c-1.6,2.2-2.7,4.7-3.1,7.4
	c-1,4.8-0.8,9.7,0.6,14.3c0.4,1.3,1.1,2.6,1.9,3.8c2.6,4.2,8.1,5.6,12.3,3c0.4-0.2,0.8-0.5,1.1-0.8c0.5-0.4,1-0.8,1.4-1.2l2.6,2.7
	c-0.3,0.3-0.6,0.8-1,1.2c-2.2,2.5-5.1,4.2-8.3,4.9c-3.5,0.7-7.1,0-10.1-1.9c-4.6-2.7-7.8-7.3-8.7-12.6c-0.3-1.3-0.4-2.5-0.6-3.8
	V140.8z"/>
<path class="st1" d="M94.2,161.1c-0.1,0-0.3,0-0.4,0h-6.5c0-1.3,0-2.7,0-3.9c0-5.7,0-11.5,0-17.2c0-0.5-0.1-1-0.2-1.4
	c-0.2-1.7-1.8-2.9-3.5-2.6c-0.2,0-0.4,0.1-0.6,0.1c-1.7,0.5-3.1,1.6-4,3.1c-0.1,0.2-0.1,0.4-0.1,0.6c0,5.1,0,10.3,0,15.4
	c0,1.8,0.2,3.5,0.2,5.3c0,0.2,0,0.4,0,0.6h-7c0-0.5,0-1.1,0-1.6c0.1-6.1,0.2-12.1,0.2-18.2c0-0.8-0.1-1.6-0.2-2.4
	c-0.4-2.3-1.6-3.1-3.9-2.8c-1.1,0.1-2.2,0.6-3,1.4c-0.9,0.8-1.4,1.9-1.3,3.1c0.1,4.7,0,9.4,0,14.1c0,2,0.1,4,0.2,6
	c0,0.1,0,0.2,0,0.4h-7c0.5-9.9,0.3-19.9-0.6-29.8h2.7c1,0,2,0,3,0c0.4-0.1,0.8,0.2,0.9,0.6c0,0,0,0.1,0,0.1c0.2,0.9,0.3,1.7,0.5,2.7
	l0.6-0.6c1.2-1.5,2.9-2.7,4.7-3.3c3.2-0.9,6.7,0.4,8.5,3.3l0.5,0.7l0.8-0.9c1.8-2,4.4-3.3,7.1-3.4c3.7-0.4,7,2.1,7.5,5.8
	c0.3,1.5,0.5,3,0.5,4.5c0.1,5.2,0.1,10.5,0.2,15.7c0,1.3,0.1,2.7,0.1,4C94.2,160.7,94.2,160.9,94.2,161.1z"/>
<path class="st1" d="M99.7,159.2c-0.8,0.8-1.5,1.6-2.3,2.4c-0.2,0.3-0.5,0.4-0.8,0.2c0,0-0.1-0.1-0.1-0.1c-0.3-0.2-0.5-0.4-0.9-0.5
	c-0.7-0.3-0.8-0.8-0.8-1.5c0.2-4,0.4-8.1,0.4-12.2c0-4.8,0-9.7-0.1-14.5c0-4.1-0.2-8.1-0.3-12.2c0-0.7,0-1.5-0.1-2.3h7v14.2l1.1-0.6
	c1.5-0.9,3.2-1.5,4.9-1.6c3.3-0.1,6.4,1.6,8,4.5c1.3,2.1,2.1,4.5,2.3,7c0.5,4.1,0,8.2-1.6,12c-0.8,2.2-2.2,4.1-3.9,5.7
	c-2.9,2.7-7.2,3.1-10.6,1.1C101.4,160.3,100.6,159.8,99.7,159.2z M101.8,146.4h0.1c0,2.8,0,5.6,0,8.4c0,0.4,0.1,0.7,0.4,1
	c1.3,1.2,3.3,1.6,5,0.8c1.6-0.8,2.7-2.2,3.2-3.9c1.1-3.3,1.2-6.8,0.5-10.2c-0.3-2.1-1.3-4-2.8-5.4c-1.6-1.6-4.2-1.6-5.8,0
	c0,0,0,0,0,0c-0.3,0.3-0.4,0.6-0.5,1C101.8,140.8,101.9,143.6,101.8,146.4L101.8,146.4z"/>
<path class="st1" d="M237.1,161.1h-4.8c-1.6,0-1.6,0-1.9-1.6c0-0.2-0.1-0.5-0.2-0.8l-1.4,1.1c-1.5,1.3-3.4,2-5.3,2.1
	c-3.4,0.1-6.5-1.8-8-4.9c-1.3-2.4-2-5.1-1.9-7.9c-0.2-5.3,1.5-10.5,4.9-14.7c2.1-2.6,5.2-4.1,8.5-4.1c1,0,2.1,0.2,3.1,0.3l-0.4-12.3
	h7c0,0.6-0.1,1.2-0.1,1.8c0,11.5,0,23.1,0,34.7C236.6,156.9,237,159,237.1,161.1z M229.9,145L229.9,145c0-2.8,0-5.7,0-8.5
	c0.1-0.5-0.3-1-0.8-1.1c-0.8-0.2-1.6-0.2-2.4-0.1c-1.7,0.3-3.2,1.4-4,2.9c-2.6,4.3-3.2,9.6-1.6,14.4c0.1,0.2,0.2,0.5,0.3,0.7
	c0.9,2.4,3.6,3.7,6.1,2.8c0.7-0.3,1.4-0.7,1.9-1.3c0.4-0.3,0.6-0.8,0.5-1.3C229.9,150.6,229.9,147.8,229.9,145z"/>
<path class="st1" d="M213.7,161.1h-7.1c0-0.7,0.1-1.3,0.1-2c0-5.8,0-11.7,0-17.5c0-0.8-0.1-1.7-0.3-2.5c-0.2-1.8-1.9-3-3.7-2.8
	c-0.6,0.1-1.2,0.3-1.6,0.7c-0.7,0.6-1.4,1.3-2,2.1c-0.1,0.2-0.2,0.4-0.1,0.6c0.1,6.4,0.1,12.8,0.2,19.2c0,0.7,0.1,1.3,0.1,2h-7
	c0.1-9.9,0.5-19.9-0.6-29.9h2.6c1,0,2,0,3,0c0.5,0,0.7,0.1,0.8,0.6c0.1,0.8,0.3,1.5,0.5,2.4l0.5-0.6c1.8-2.2,4.5-3.5,7.4-3.2
	c2.3,0.1,4.3,1.4,5.4,3.4c1,2,1.5,4.3,1.5,6.5c0.1,4.8,0.1,9.6,0.2,14.4c0,1.9,0.2,3.9,0.3,5.8C213.7,160.7,213.7,160.9,213.7,161.1
	z"/>
<path class="st1" d="M191.2,161.2h-1.3c-1.5,0-2.9,0-4.4,0c-0.3,0-0.6-0.2-0.8-0.4c-0.4-0.6-0.7-1.2-1-1.8l-1.2,0.9
	c-1.7,1.4-3.8,2.2-6,2.2c-4,0.1-7.4-2.7-8.1-6.7c-0.9-4.4,0.8-8.2,4.9-10.9c2.8-1.7,5.7-2.9,8.9-3.7c1.2-0.4,1.2-0.4,0.9-1.6
	c-0.8-2.9-3.3-4.3-6.6-3.8c-1.6,0.3-3.1,0.8-4.5,1.6l-0.9,0.5c0-0.4,0-0.7,0-0.9c0-1.8,0-3.6,0-5.5c0-0.4,0.1-0.6,0.5-0.6
	c3.6-0.4,7.2-0.2,10.7,0.8c2.4,0.6,4.5,2,6,4c1.2,1.9,1.8,4.1,1.7,6.3c0,3.8,0,7.5,0,11.3c0.1,2.7,0.4,5.3,1.1,7.9
	C191.1,160.8,191.2,161,191.2,161.2z M183.4,145.4c-2.3,0.2-4.6,1.1-6.4,2.5c-1,0.9-1.7,2.1-1.9,3.4c-0.6,2.2,0.7,4.4,2.8,5.1
	c1.8,0.6,3.8,0.1,5.1-1.3c0.3-0.3,0.5-0.7,0.5-1.1c0-2.7,0-5.3,0-8C183.5,145.9,183.4,145.7,183.4,145.4L183.4,145.4z"/>
<path class="st1" d="M139.3,154.1l2.4,2.7c-1.8,2.4-4.4,4.2-7.3,4.9c-5.5,1.3-11.1-1.5-13.4-6.7c-1.5-3.2-2.1-6.7-1.7-10.2
	c0.3-3.5,1.5-6.9,3.6-9.7c1.5-2.3,3.9-3.9,6.7-4.5c4.1-0.9,8.2,1.2,9.9,5.1c1.3,2.8,1.9,5.9,1.9,9c0,0.2-0.3,0.4-0.5,0.5l-13.2,4.5
	c-1.1,0.4-0.9,0.3-0.7,1.3c0.3,1.6,1.1,3,2.3,4.1c1.9,1.7,4.6,2.1,6.9,0.9C137.2,155.5,138.2,154.8,139.3,154.1z M126,144.9
	c1.3-0.5,2.7-0.8,3.9-1.3c1.2-0.4,2.3-0.8,3.4-1.2c1-0.3,1.6-1.3,1.6-2.3c0.1-1.7-0.5-3.3-1.7-4.4c-0.9-0.9-2.3-1.1-3.5-0.6
	c-0.9,0.4-1.6,1.1-2.1,2C126.4,139.6,125.9,142.2,126,144.9z"/>
<path class="st1" d="M34.9,134.6h19.5c0,1,0,1.9,0,2.8c0,0.1-0.3,0.4-0.5,0.4c-0.5,0-0.8,0.4-0.8,0.9c0,0,0,0,0,0
	c-0.4,4.7-0.8,9.4-1.2,14.1c-0.2,2.6-0.4,5.1-0.6,7.7c0,0.5-0.3,0.7-0.7,0.7H38.7c-0.7,0-0.9-0.5-0.9-1.1c-0.1-1.3-0.2-2.7-0.3-3.9
	c-0.3-3.6-0.6-7.1-0.9-10.7c-0.2-2.1-0.4-4.1-0.5-6.2c0-0.5-0.3-1-0.8-1c-0.2-0.1-0.3-0.2-0.4-0.4C34.8,136.8,34.9,135.7,34.9,134.6
	z M46,142.6c-1.5,0.6-2.3,3.4-1.5,5C46,146.5,46.9,144,46,142.6L46,142.6z M47.3,146.6c-1.7,0.1-3.1,1.4-3.2,3.1
	C45.7,149.5,47,148.3,47.3,146.6L47.3,146.6z M46.6,152.1c0.6,0,1.1-0.5,1.1-1.1c0,0,0,0,0,0c0-0.6-0.5-1.1-1.1-1.1
	c-0.6,0-1.1,0.5-1.1,1.1c0,0,0,0,0,0C45.4,151.6,45.9,152.1,46.6,152.1C46.6,152.2,46.6,152.2,46.6,152.1L46.6,152.1z M44.2,148.1
	c-0.5-1.4-2-2.1-3.4-1.7C41.4,147.6,42.8,148.4,44.2,148.1L44.2,148.1z M49.9,149.6c0-0.6-0.5-1.1-1-1.1c0,0,0,0,0,0
	c-0.6,0-1.1,0.4-1.1,1c0,0.6,0.4,1.1,1,1.1C49.3,150.6,49.8,150.2,49.9,149.6L49.9,149.6z M50.1,146.3c-0.6,0-1,0.5-1,1
	c0,0.6,0.5,1,1,1s1-0.5,1-1C51.1,146.8,50.6,146.3,50.1,146.3z M50.1,145.7c0.5,0,0.9-0.4,0.9-1c0-0.5-0.5-0.9-1-0.9
	c-0.5,0-0.9,0.5-0.9,1C49.1,145.3,49.5,145.8,50.1,145.7C50,145.8,50,145.8,50.1,145.7L50.1,145.7z M49.9,142.5
	c0-0.5-0.4-0.9-0.9-0.9c-0.5,0-0.9,0.4-0.9,0.9s0.4,0.9,0.9,0.9C49.5,143.4,49.8,143,49.9,142.5L49.9,142.5z M43.7,146.7
	c0.4-1.1-0.2-2.3-1.2-2.7C42.1,145,42.6,146.2,43.7,146.7z M47.7,140.9c0-0.4-0.4-0.8-0.8-0.7c-0.4,0-0.8,0.3-0.9,0.7
	c0,0,0,0.1,0,0.1c0,0.4,0.3,0.8,0.7,0.9c0,0,0,0,0.1,0c0.5,0.1,0.9-0.3,0.9-0.8C47.7,141,47.7,140.9,47.7,140.9L47.7,140.9z
	 M44.8,140.5c0-0.4-0.4-0.8-0.8-0.8c-0.4,0-0.8,0.4-0.8,0.8c0,0.4,0.3,0.8,0.7,0.8c0,0,0.1,0,0.1,0c0.4,0.1,0.8-0.2,0.9-0.6
	C44.9,140.6,44.9,140.5,44.8,140.5L44.8,140.5z M41.9,142.1c0.1-0.2,0.5-0.5,0.5-0.8s-0.3-0.7-0.7-0.7c-0.4,0-0.7,0.3-0.7,0.6
	c0,0,0,0,0,0.1C41,141.8,41.3,142,41.9,142.1L41.9,142.1z M39.7,144H40c0.2-0.3,0.5-0.5,0.5-0.8c0-0.4-0.3-0.7-0.7-0.7
	s-0.7,0.3-0.7,0.7l0,0C39.2,143.4,39.5,143.7,39.7,144z M38.7,146.5c0.3-0.4,0.6-0.7,0.6-0.9c0-0.2-0.4-0.5-0.6-0.7
	c-0.2,0.2-0.5,0.4-0.5,0.7S38.3,146,38.7,146.5L38.7,146.5z M44.3,148.4c-1,0.8-1.5,2.1-1.2,3.3c0,0.1,0.2,0.2,0.4,0.3
	c-0.1-0.6-0.1-1.3,0-1.9C43.6,149.4,43.9,148.9,44.3,148.4L44.3,148.4z M39,147.3c-0.3,0.4-0.6,0.6-0.6,0.8c0,0.2,0.3,0.4,0.5,0.6
	c0.2-0.2,0.5-0.4,0.6-0.6S39.2,147.7,39,147.3L39,147.3z M40.4,150.8c0.2-0.2,0.4-0.4,0.4-0.5c0-0.1-0.2-0.3-0.4-0.3
	c-0.2-0.1-0.3,0.2-0.3,0.3C40.1,150.4,40.2,150.6,40.4,150.8L40.4,150.8z"/>
<path class="st1" d="M167.1,161.1H160c0.3-14.2,0.5-28.4,0-42.7h7C166.8,132.7,166.7,146.9,167.1,161.1z"/>
<path class="st1" d="M150.1,161.1h-7.3c0-1.1,0.1-2.2,0.2-3.2c0.1-4.3,0.3-8.6,0.2-12.9c0-3.1-0.3-6.3-0.5-9.3
	c-0.2-1.4-0.5-2.9-0.8-4.3c0.2,0,0.3,0,0.5,0c1.9,0,3.9,0,5.9,0c0.4,0,0.6,0.1,0.7,0.5c0.2,1.2,0.4,2.4,0.6,3.7
	c0.2-0.3,0.5-0.5,0.7-0.8c1.3-1.2,2.7-2.5,4-3.5c1.2-0.9,2.7-1.2,4.2-0.8c0.2,0,0.5,0.3,0.5,0.4c0,1.8,0,3.5,0,5.3
	c0,0.1,0,0.2-0.1,0.2c-0.4,0-0.7,0-1.1-0.1c-2.9-0.6-5.7,1.1-6.7,3.9c-0.7,1.8-1.1,3.7-1.1,5.6c-0.2,5-0.2,9.9,0.2,14.9
	C150.1,160.8,150.1,161,150.1,161.1z"/>
<path class="st1" d="M34.9,133.9c-0.1-0.6,0-1,0.6-1c0.5,0,0.6-0.3,0.7-0.7l0.8-2.9l3.7,0.5l10.1,1.3c1.1,0.1,1.1,0.1,1.2,1.1
	c0,0.5,0.3,0.8,0.9,0.8h0.6c0.5,0,0.9,0.3,0.7,0.9L34.9,133.9z"/>
<path class="st1" d="M55.9,123.7c-1.2,1.8-3.4,2.7-5.5,2.3c-1.2-0.2-2.4-0.4-3.6-0.6c-2.2-0.4-4.4,0.3-5.9,1.9
	c-0.4,0.5-0.9,0.9-1.5,1.4c0-0.3-0.1-0.4,0-0.5c1-2,2.8-3.5,5-3.9c1.5-0.1,2.9,0.1,4.3,0.5c1.3,0.5,2.8,0.6,4.2,0.3
	C54,124.8,55,124.3,55.9,123.7z"/>
<path class="st1" d="M42.4,129c0.2-0.4,0.5-0.8,0.8-1.2c0.7-0.7,1.8-1.1,2.8-1.1c1.3,0,2.6,0.2,3.8,0.5c2.5,0.6,4.8,0.7,6.8-1.5
	c-0.6,1.3-1.7,2.3-3.1,2.6c-1.2,0.2-2.5,0.1-3.7-0.2c-1.6-0.5-3.2-0.6-4.8-0.2c-0.8,0.3-1.6,0.7-2.3,1.2L42.4,129z"/>
<path class="st1" d="M242.1,118.6h0.8l0.6,2.2h0.2l0.5-2.2h0.8c0,1,0,1.9,0,2.8c0,0.1-0.2,0.2-0.4,0.3l-0.2-0.1v-2.2h-0.1
	c-0.1,0.6-0.3,1.2-0.4,1.8c0,0.2-0.2,0.3-0.4,0.4c-0.1-0.1-0.3-0.3-0.4-0.4c-0.1-0.6-0.3-1.2-0.6-1.8v2.2l-0.2,0.1
	c-0.1-0.1-0.3-0.2-0.3-0.3C242.1,120.4,242.1,119.5,242.1,118.6z"/>
<path class="st1" d="M241.6,118.5c0,0.8-0.6,0.3-0.9,0.6c0,0.6,0,1.3,0,2c0,0.2-0.2,0.3-0.3,0.5l-0.2-0.1V119c-0.2,0-0.4,0-0.6-0.1
	c-0.1-0.1-0.2-0.1-0.3-0.2c0.1-0.1,0.2-0.2,0.3-0.2C240.2,118.5,240.9,118.5,241.6,118.5z"/>
<path class="st2" d="M46,142.6c0.9,1.3,0,3.9-1.5,5C43.7,146,44.4,143.2,46,142.6z"/>
<path class="st2" d="M47.3,146.7c-0.3,1.6-1.6,2.9-3.2,3.1C44.2,148,45.6,146.7,47.3,146.7z"/>
<path class="st2" d="M46.6,152.2c-0.6,0-1.1-0.5-1.1-1.1c0-0.6,0.5-1.1,1.1-1.1c0.6,0,1.1,0.5,1.1,1.1c0,0,0,0,0,0
	C47.7,151.7,47.2,152.2,46.6,152.2C46.6,152.2,46.6,152.2,46.6,152.2z"/>
<path class="st2" d="M44.2,148.1c-1.4,0.3-2.8-0.5-3.4-1.8C42.3,146,43.7,146.7,44.2,148.1z"/>
<path class="st2" d="M49.8,149.6c0,0.6-0.5,1-1.1,1c-0.6,0-1-0.6-1-1.1c0-0.6,0.5-1,1.1-1C49.4,148.5,49.9,149,49.8,149.6
	C49.8,149.6,49.8,149.6,49.8,149.6z"/>
<path class="st2" d="M50,146.3c0.6,0,1,0.5,1,1c0,0.6-0.5,1-1,1s-1-0.5-1-1C49,146.8,49.5,146.3,50,146.3L50,146.3z"/>
<path class="st2" d="M50.1,145.8c-0.5,0-1-0.4-1-0.9c0,0,0,0,0-0.1c0-0.5,0.4-1,0.9-1c0.5,0,1,0.4,1,0.9
	C51,145.3,50.6,145.7,50.1,145.8z"/>
<path class="st2" d="M49.9,142.6c0,0.5-0.4,0.9-0.9,0.9c0,0,0,0,0,0c-0.5,0-0.9-0.4-0.9-0.9s0.4-0.9,0.9-0.9
	C49.4,141.6,49.9,142,49.9,142.6C49.9,142.5,49.9,142.6,49.9,142.6z"/>
<path class="st2" d="M43.7,146.7c-1-0.5-1.6-1.7-1.2-2.7C43.5,144.4,44,145.6,43.7,146.7z"/>
<path class="st2" d="M47.7,140.9c0,0.5-0.3,0.9-0.8,0.9c0,0-0.1,0-0.1,0c-0.4,0-0.8-0.3-0.8-0.8c0,0,0,0,0-0.1
	c0-0.4,0.3-0.8,0.8-0.8c0,0,0.1,0,0.1,0C47.4,140.1,47.7,140.4,47.7,140.9C47.7,140.9,47.7,140.9,47.7,140.9z"/>
<path class="st2" d="M44.9,140.5c0,0.4-0.3,0.8-0.7,0.8c0,0,0,0-0.1,0c-0.4,0-0.8-0.3-0.8-0.7c0,0,0-0.1,0-0.1
	c0-0.4,0.4-0.8,0.8-0.8C44.5,139.7,44.9,140,44.9,140.5C44.9,140.5,44.9,140.5,44.9,140.5L44.9,140.5z"/>
<path class="st2" d="M41.9,142.1c-0.7-0.1-1-0.3-0.9-0.8c0-0.4,0.3-0.7,0.7-0.7c0,0,0,0,0.1,0c0.5,0,0.8,0.3,0.7,0.7
	C42.4,141.8,42.1,141.9,41.9,142.1z"/>
<path class="st2" d="M39.7,144c-0.2-0.3-0.5-0.6-0.4-0.8c0-0.4,0.3-0.7,0.7-0.7s0.7,0.3,0.7,0.7c0,0.3-0.3,0.5-0.5,0.8L39.7,144z"/>
<path class="st2" d="M38.7,146.5c-0.3-0.4-0.6-0.7-0.6-0.9s0.4-0.4,0.5-0.7c0.2,0.2,0.6,0.4,0.6,0.7C39.3,145.8,39,146,38.7,146.5z"
	/>
<path class="st2" d="M44.2,148.4c-0.3,0.5-0.6,1.1-0.8,1.7c-0.1,0.6-0.1,1.3,0,1.9c-0.1-0.1-0.3-0.1-0.4-0.3
	C42.7,150.4,43.2,149.1,44.2,148.4z"/>
<path class="st2" d="M39,147.3c0.3,0.4,0.5,0.6,0.5,0.8c0,0.2-0.4,0.4-0.6,0.6c-0.2-0.2-0.5-0.4-0.5-0.6
	C38.4,147.9,38.7,147.7,39,147.3z"/>
<path class="st2" d="M40.4,150.8c-0.1-0.3-0.3-0.4-0.3-0.6c0-0.1,0.2-0.3,0.3-0.3c0.1,0,0.3,0.2,0.4,0.3
	C40.8,150.4,40.6,150.6,40.4,150.8z"/>
</svg>
