<?xml version="1.0" encoding="utf-8"?>
<!-- Generator: Adobe Illustrator 21.1.0, SVG Export Plug-In . SVG Version: 6.00 Build 0)  -->
<svg version="1.1" id="Layer_1" xmlns="http://www.w3.org/2000/svg" xmlns:xlink="http://www.w3.org/1999/xlink" x="0px" y="0px"
	 viewBox="0 0 250 250" style="enable-background:new 0 0 250 250;" xml:space="preserve">
<style type="text/css">
	.st0{fill:#231F20;}
	.st1{fill:#FFFFFF;}
	.st2{fill:#C50C46;}
</style>
<title>Grocery</title>
<path class="st0" d="M228.7,60.7H22.8c-6.5,0-11.7,5.3-11.8,11.8V179c0,6.5,5.3,11.7,11.8,11.7h205.9c6.5,0,11.7-5.3,11.8-11.8V72.5
	C240.5,66,235.2,60.7,228.7,60.7z M236.8,179c0,4.5-3.6,8.1-8.1,8.1H22.8c-4.5,0-8.1-3.6-8.1-8.1V72.5c0-4.5,3.6-8.1,8.1-8.1h205.9
	c4.5,0,8.1,3.6,8.1,8.1V179z"/>
<path class="st0" d="M230.3,174.3c0,3.4-3.2,6.2-7.1,6.2H28.4c-3.9,0-7.1-2.8-7.1-6.2V77.6c0-3.4,3.2-6.2,7.1-6.2h194.8
	c3.9,0,7.1,2.8,7.1,6.2V174.3z"/>
<path class="st1" d="M28.4,71c-4.1,0-7.5,2.9-7.5,6.6v96.7c0,3.6,3.4,6.6,7.5,6.6h194.8c4.1,0,7.5-2.9,7.5-6.6V77.6
	c0-3.6-3.4-6.6-7.5-6.6H28.4z M21.6,174.2V77.6c0-3.2,3-5.9,6.8-5.9h194.8c3.7,0,6.8,2.6,6.8,5.9v96.7c0,3.2-3,5.9-6.8,5.9H28.4
	C24.7,180.1,21.6,177.5,21.6,174.2L21.6,174.2z"/>
<path class="st1" d="M119.2,94.1c-0.4-1.7-1.1-3.3-2.2-4.7c-1.2-1.2-2.6-1.6-5.7-1.6h-2.7c-1.9,0-2.1,0.1-2.1,1.9v12.1h4.5
	c4.9,0,5.4-0.5,6-4h2v10.9h-2c-0.6-3.7-1.1-4.2-6-4.2h-4.5v8.7c0,5.1,0.4,5.5,5.2,5.9v1.9H94.5v-1.9c4-0.4,4.5-0.7,4.5-5.9V93
	c0-4.9-0.5-5.3-4.5-5.7v-1.9h26c0,0.9,0.3,5.1,0.6,8.4L119.2,94.1z"/>
<path class="st1" d="M133.7,102c2-3.5,4.1-5.8,6.2-5.8c1.9-0.1,3.6,1.4,3.7,3.4c0,0,0,0.1,0,0.1c0,1.8-1.1,3.3-2.7,4
	c-0.6,0.3-1.3,0.2-1.7-0.3c-0.7-0.7-1.6-1-2.5-1.1c-1,0-2.1,0.7-3.1,2.9v10.2c0,3.4,0.3,3.6,4.5,4v1.8h-15v-1.8c3-0.3,3.5-0.6,3.5-4
	v-12c0-2.7-0.4-3-3-3.6v-1.5c3.4-0.4,6.7-1.1,10-2.1v5.9L133.7,102z"/>
<path class="st1" d="M166.2,115.7c-3.3,4.9-7.6,6.1-9.9,6.1c-7.4,0-11.4-5.4-11.4-11.8c0-3.7,1.4-7.3,4.1-9.9
	c2.2-2.4,5.2-3.8,8.4-3.9l0,0c4.9,0.1,8.8,4,8.9,8.8c0,1.1-0.4,1.8-1.6,2c-1,0.2-7.7,0.7-13.1,0.9c0.2,5.9,3.5,8.8,7.4,8.8
	c2.3,0,4.5-0.8,6.1-2.4L166.2,115.7z M156.3,98.4c-2.1,0-4,2.5-4.4,6.9l6.6-0.2c0.8,0,1.1-0.2,1.1-1.1
	C159.6,101.2,158.4,98.4,156.3,98.4L156.3,98.4z"/>
<path class="st1" d="M184.1,103.9c-1.5-3.4-3.2-5.6-5.8-5.6c-1.6,0-2.8,1.4-2.8,3c0,0,0,0,0,0c0,1.7,1.3,3,4.1,4.2
	c4.4,1.9,7.4,3.8,7.4,8.1c0,5.4-5.2,8.1-9.8,8.1c-2.4,0-4.8-0.6-6.9-1.9c-0.5-2.4-0.8-4.9-0.8-7.4l1.6-0.1c1.2,3.5,3.8,7.2,7.1,7.2
	c1.6,0.1,2.9-1.2,3-2.8c0-0.1,0-0.1,0-0.2c0-1.6-0.8-3-4.1-4.6c-2.5-1.2-7-3.4-7-8.1c0-4.3,3.5-7.7,9.2-7.8c1.8-0.1,3.6,0.3,5.3,1
	c0.6,2,1,4.1,1.3,6.3L184.1,103.9z"/>
<path class="st1" d="M204.3,121.1v-1.8c2.6-0.4,2.8-0.8,2.8-3.8v-9.7c0-4.2-1.8-5.7-4-5.7c-1.5,0-2.9,0.5-4,1.5v13.8
	c0,3.1,0.2,3.5,2.5,3.8v1.8h-13v-1.7c3.1-0.3,3.5-0.5,3.5-4V89.8c0-3.4-0.2-3.4-3.1-3.7v-1.7c3.4-0.5,6.8-1.1,10.1-2v17.2
	c1.9-2.1,4.5-3.3,7.3-3.5c4.8,0,7.6,3.1,7.6,9.1v10c0,3.5,0.3,3.6,3.1,4v1.8L204.3,121.1z"/>
<path class="st1" d="M82.6,166.5v-1.9c4.1-0.4,4.4-0.8,4.3-5.9l-0.1-21.2h-0.2l-12.2,28.5h-1.5l-11.3-28h-0.2l-0.7,14.3
	c-0.3,3-0.3,6,0,8.9c0.2,2.4,1.3,2.9,4.9,3.2v1.9H52.5v-1.9c3.1-0.3,4.1-1.2,4.5-3.2c0.6-3.4,1-6.9,1.2-10.4l0.9-10.9
	c0.4-6.2,0-7-4.7-7.4v-1.9h11.4l10.6,24.1l10.8-24h11v1.9c-4.4,0.4-4.6,0.9-4.5,5.4l0.5,20.5c0.1,5.1,0.4,5.4,4.7,5.9v1.9
	L82.6,166.5z"/>
<path class="st1" d="M119.4,167.2c-1.2,0-2.4-0.4-3.4-1.1c-0.6-0.5-1.1-1.2-1.4-2c-2.1,1.4-4.7,3.1-5.8,3.1c-4,0.1-7.3-3-7.4-7
	c0,0,0,0,0-0.1c0-2.9,1.3-4.2,4.2-5.3c3.2-1.2,7.5-2.5,8.7-3.6v-1.6c0-3.5-1.3-5.4-3.3-5.4c-0.7,0-1.4,0.4-1.9,1
	c-0.8,1.2-1.3,2.5-1.5,3.8c-0.1,1.1-1.2,2-2.3,1.9c-1.5,0-3.5-1.3-3.5-2.7c0-1,0.7-1.7,1.9-2.6c2.8-1.9,5.9-3.2,9.1-3.9
	c1.9-0.1,3.8,0.5,5.4,1.6c2.4,1.8,2.9,4.2,2.9,7.2v9.1c0,2.5,0.8,3.2,1.8,3.2c0.6,0,1.3-0.2,1.9-0.4l0.5,1.8L119.4,167.2z
	 M114.4,153.4c-1,0.5-1.9,1.1-3,1.7c-1.6,0.6-2.6,2.1-2.5,3.8c0,3,2,4.2,3.3,4.2c0.9,0,1.7-0.3,2.3-0.9L114.4,153.4z"/>
<path class="st1" d="M137.3,147.4c2-3.5,4.1-5.8,6.2-5.8c1.9-0.1,3.6,1.4,3.7,3.4c0,0,0,0,0,0.1c0,1.8-1.1,3.3-2.7,4
	c-0.6,0.3-1.2,0.2-1.7-0.3c-0.7-0.7-1.6-1-2.5-1.1c-1,0-2.1,0.7-3.1,2.9v10.2c0,3.4,0.3,3.6,4.5,4v1.8h-15v-1.8c3-0.3,3.5-0.6,3.5-4
	v-12c0-2.7-0.4-3-3-3.6v-1.5c3.4-0.4,6.7-1.1,10-2.1v5.9L137.3,147.4z"/>
<path class="st1" d="M167.1,166.6c-1.6-2-4.7-6.9-7.1-10.8c-0.5-0.7-0.8-0.9-1.1-1c-0.2,0-0.4,0-0.5,0v5.9c0,3.6,0.4,3.7,3.6,4.1
	v1.8h-14.1v-1.8c3.3-0.4,3.6-0.5,3.6-4.1v-25.5c0-3-0.4-3.4-3.3-3.7v-1.6c3.4-0.4,6.9-1.1,10.2-2v25.2c1.3-0.4,2.4-1.1,3.2-2.1
	c1.2-1.5,2.3-3,3.2-4.7c0.6-1.2,0.4-1.9-1.7-2.2v-1.6l11.9-0.5v1.6c-3.4,0.6-5.3,1.3-6.9,2.9c-1.4,1.4-2.7,2.9-3.9,4.5
	c1.5,2.4,6.3,8.9,8,11c1.1,1.6,2.7,2.6,4.6,2.8v1.8L167.1,166.6z"/>
<path class="st1" d="M198.4,161.1c-3.3,4.9-7.6,6.1-9.9,6.1c-7.4,0-11.4-5.4-11.4-11.8c0-3.7,1.4-7.3,4.1-9.9
	c2.2-2.4,5.2-3.8,8.4-3.9l0,0c4.9,0.1,8.8,4,8.9,8.8c0,1.1-0.4,1.8-1.6,2c-1,0.2-7.7,0.7-13.1,0.9c0.2,5.9,3.5,8.8,7.4,8.8
	c2.3,0,4.5-0.8,6.1-2.4L198.4,161.1z M188.5,143.8c-2.1,0-4,2.5-4.4,6.9l6.6-0.2c0.8,0,1.1-0.2,1.1-1.1
	C191.9,146.7,190.7,143.8,188.5,143.8L188.5,143.8z"/>
<path class="st1" d="M213.2,166.6c-0.7,0.3-1.4,0.5-2.2,0.6c-4.2,0-6.8-2-6.8-6.9v-15.4h-3.5l-0.3-0.7l1.5-2h2.2v-4l6.3-4.3l0.8,0.4
	v7.9h5.4c0.6,0.8,0.5,2-0.3,2.6c0,0,0,0-0.1,0h-5.1v13.6c0,4.3,2,4.8,3.1,4.8c1,0,1.9-0.2,2.8-0.7l0.5,1.9L213.2,166.6z"/>
<path class="st2" d="M54.7,66.8c7.3-5.4,17.2-5.9,25-1.2c8.6,4.7,12.6,14.3,11.5,23.9c-1.3,10.6-7.4,20-16.6,25.5
	c-6.7,3.7-14.1,6.3-19.6,12.4c-1.6-0.8-2.7-2.5-4.2-3.4c-7.9-5.6-17.8-7.4-24.1-15.5c-5.7-6.2-8.8-14.3-8.6-22.7
	c0.3-9.2,5.7-18.4,14.4-21.9c6-2,12.6-1.7,18.4,0.9L54.7,66.8z"/>
<path class="st2" d="M54.9,71.1c2.2-1.6,4.6-3,7.2-4.1c7-2.2,14.7-0.4,19.9,4.8c7.4,6.6,6.7,17.8,3.5,26.1
	c-3.1,6.1-8.3,12.2-14.6,15.3c-5.5,2.8-11,4.9-15.7,9.4c-6.6-6.2-15.4-7.4-22.1-13.4c-8.6-6.8-13.1-18.3-10.1-29
	c1.8-7,8.1-13.1,15.3-13.9c4.2-0.4,8.5,0.3,12.4,2.1L54.9,71.1z"/>
<path class="st1" d="M38.1,65.9c-7.1,0.8-13.7,6.8-15.7,14.3c-2.9,10.5,1.3,22.4,10.2,29.5c3.3,2.7,7,5,11,6.6
	c4,1.7,7.8,3.9,11.1,6.8l0.3,0.3l0.3-0.3c3.8-3.6,8-5.6,12.5-7.8l3.2-1.5c5.7-2.8,11.3-8.6,14.8-15.5c3.3-8.5,4-19.8-3.6-26.6
	c-5.3-5.3-13.1-7.2-20.3-4.9c-2.2,0.9-4.3,2-6.2,3.4l-0.9,0.6L50.7,68C46.8,66.2,42.4,65.4,38.1,65.9z M44,115.4
	c-3.9-1.6-7.5-3.8-10.8-6.5c-6.8-5.3-10.8-13.4-10.9-22c0-2.2,0.3-4.5,0.9-6.6c1.9-7.2,8.2-12.9,15-13.6c4.2-0.4,8.4,0.3,12.1,2
	l4.5,2.9l1.3-0.9c1.9-1.3,3.9-2.4,6-3.3c6.9-2.2,14.3-0.4,19.5,4.7c4.1,3.7,5.7,8.8,5.7,14c-0.1,4-0.8,7.9-2.3,11.6
	c-3.5,6.7-8.8,12.3-14.4,15.1l-3.2,1.6c-4.4,2.1-8.6,4.2-12.4,7.6C51.7,119.3,48,117.1,44,115.4L44,115.4z"/>
<path class="st1" d="M31.8,82.6c0-0.8-0.2-1.2-0.9-1.3h-1.2c-0.4,0-0.6-0.2-0.6-0.5c0-0.5,0.4-0.7,1.6-0.9c2.4-0.4,4.8-0.6,7.3-0.4
	c3.8,0.1,6.6,1.2,8.5,3.2c2.2,2.4,3.2,5.5,3,8.7c-0.2,6.6-3.4,11.6-10.4,11.5c-1.7,0-3.9-0.3-5.7-0.3c-1.5,0-2.9,0.1-4,0
	c-0.4,0-0.7-0.2-0.7-0.7c0-0.4,0.3-0.7,1.2-0.7c1.1-0.1,1.4-0.5,1.5-2.1L31.8,82.6z M36.6,99.1c0,1.4,0.3,2.3,1.9,2.3
	c1.6,0,2.9-0.8,3.8-3.1c0.9-2.2,1.3-4.5,1.3-6.9c0.2-7.6-2-10.5-4.9-10.6c-1.3,0-1.6,0.3-1.6,1.6L36.6,99.1z"/>
<path class="st1" d="M51.3,92.6c0.1-1.5,1.4-2.6,2.8-2.5c0,0,0.1,0,0.1,0c1.4,0,2.5,0.9,2.5,2.1s-0.9,1.7-1.7,2.1
	c-0.2,0.2-0.3,0.2-0.4,0.3s0.1,0.2,0.2,0.3c0.4,0.5,0.8,1.3,1.2,1.9c0.1,0.1,0.2,0.3,0.3,0.3c0.1,0,0.7-1.1,0.7-1.4
	c0-0.2-0.1-0.4-0.3-0.4c-0.2,0-0.4-0.2-0.4-0.3c0-0.2,0.2-0.3,0.4-0.3c0.3,0,0.7,0.1,1.1,0.1c0.4,0,0.9,0,1.2,0s0.4,0.1,0.4,0.3
	c0,0.2-0.3,0.3-0.6,0.3c-0.4,0.1-0.7,0.3-0.9,0.6c-0.3,0.4-0.6,0.9-0.8,1.3c-0.1,0.2-0.3,0.4-0.3,0.6c0,0.1,0.1,0.3,0.2,0.4
	c0.3,0.5,0.6,1,0.9,1.5c0.3,0.5,0.7,0.9,1,1s0.6,0.2,0.6,0.4c0,0.3-0.2,0.3-0.4,0.3c-0.5,0-1-0.1-1.7-0.1c-0.7,0-1.3,0-1.6,0
	c-0.4,0-0.3,0-0.4-0.3c0-0.1,0-0.2,0.1-0.3c0.1,0,0.2-0.1,0.2-0.3c0-0.2-0.3-0.7-0.4-0.7s-0.2,0.2-0.5,0.4c-0.6,0.7-1.5,1.1-2.4,1.1
	c-1.5,0-2.8-1.1-2.8-2.7c0-0.1,0-0.2,0-0.3c0.1-1.2,0.8-2.2,1.9-2.5c0.5-0.2,1-0.4,1-0.5S51.3,94.1,51.3,92.6L51.3,92.6z M51.7,97.7
	c0,1,0.6,2.4,1.8,2.4c0.6,0,1.1-0.3,1.3-0.8c0-0.2-1.3-2.1-1.7-2.8c-0.2-0.3-0.3-0.4-0.3-0.4C52.1,96.3,51.6,96.9,51.7,97.7
	L51.7,97.7z M54.5,90.8c-0.6,0-1,0.5-1,1.1c0,0,0,0.1,0,0.1c0,0.8,0.4,1.5,0.9,2c0.7-0.3,1.1-1,1.2-1.7
	C55.6,91.5,55.3,90.9,54.5,90.8L54.5,90.8z"/>
<path class="st1" d="M64.9,103c-0.2,0.5-0.3,0.8-1.2,0.8s-1-0.4-1.2-0.9l-6.5-19.7c-0.3-1.1-0.9-1.6-1.5-1.7c-0.6-0.1-1-0.2-1-0.7
	c0-0.5,0.5-0.6,0.9-0.6c1.3,0,2.5,0.2,3.8,0.3c1.3,0,2.3-0.1,3.4,0c0.4,0,0.8,0.2,0.8,0.6c0,0.3-0.2,0.6-0.6,0.6
	c-0.4,0-0.7,0.4-0.6,0.8c0.1,0.7,0.2,1.4,0.5,2l3.3,10c0.3,1.1,0.6,1.9,0.8,1.9c0.2,0,0.4-0.4,0.6-0.9l0.9-1.8
	c0.2-0.3,0.3-0.7,0.3-1c-0.1-0.6-0.3-1.2-0.5-1.8l-2.4-7.6c-0.1-0.5-0.5-1-0.9-1.3c-0.3-0.1-0.5-0.2-0.5-0.6c0-0.5,0.5-0.8,1.1-0.7
	c1.5,0,2.9,0.2,4.5,0.3c1.8,0,3.7,0,5.3,0c1,0,1.3,0.2,1.3,0.7s-0.3,0.6-0.7,0.6c-0.8,0.1-1,0.8-1.4,1.5l-1.3,2.9
	c-0.3,0.4-0.5,0.9-0.6,1.4c0.1,0.3,0.1,0.7,0.3,1l1.9,5.4c0.1,0.6,0.4,1.2,0.7,1.8c0.2,0,0.4-0.6,0.7-1.7l3.1-9.3
	c0.2-0.7,0.4-1.4,0.5-2.1c0-0.4-0.3-0.8-0.8-0.8c-0.5-0.1-0.8-0.3-0.8-0.6s0.3-0.7,0.8-0.6s1.3,0.2,1.9,0.2c0.7,0,1.3-0.1,1.9-0.1
	c0.6,0,0.8,0.2,0.8,0.6s-0.3,0.5-0.8,0.6c-0.5,0.1-1,0.5-1.3,1.4l-6.9,19.6c-0.2,0.5-0.3,0.8-1.2,0.8c-0.9,0-0.9-0.3-1.1-0.8
	l-2.6-8.5h-0.1L64.9,103z M70.1,85.1c0.2,0.6,0.3,1,0.5,1c0.2,0,0.3-0.5,0.6-1.1c0.3-0.8,0.6-1.6,0.7-2.4c0-0.5-0.3-0.6-1.3-0.6
	c-1,0-1.3,0.1-1.3,0.5C69.6,83.5,69.8,84.4,70.1,85.1L70.1,85.1z"/>
</svg>
