<?xml version="1.0" encoding="utf-8"?>
<!-- Generator: Adobe Illustrator 21.1.0, SVG Export Plug-In . SVG Version: 6.00 Build 0)  -->
<svg version="1.1" id="Layer_1" xmlns="http://www.w3.org/2000/svg" xmlns:xlink="http://www.w3.org/1999/xlink" x="0px" y="0px"
	 viewBox="0 0 250 250" style="enable-background:new 0 0 250 250;" xml:space="preserve">
<style type="text/css">
	.st0{fill:#752124;}
	.st1{fill:#E35E2E;}
</style>
<title>Grocery</title>
<path class="st0" d="M35.9,140.7c-3.5,3-7.1,5.5-11.6,5.9c-8,0.8-14.1-1.3-17.6-7.7c-2.2-4-2-8.2-0.9-12.3
	c2.4-9.1,7.2-16.5,15.5-21.2c7.5-4.2,15.1-3.9,22.5,0.5c0.4,0.2,0.7,0.5,1.1,0.7l1.3,0.9c0.3-2.4,0.8-4.5,0.9-6.6
	c0.4-7.8,0.3-15.5-3-22.9c-0.7-1.6,0-2.9,1.7-2.9c2.4,0.1,4.8,0.5,7.1,1.1c0.7,0.2,1.3,1.3,1.7,2.2c2,5.2,2.6,10.8,1.6,16.3
	c-0.8,5.6-2.3,11.1-3.5,16.7c-0.1,0.8,0,1.6,0.3,2.4c0.3,0.8,0.6,1.6,0.9,2.4c0.4,3.1-0.8,4-3.8,2.7c-2.1,4-3.8,8.2-4.8,12.5
	c-0.5,2.8-1.2,5.6-1.8,8.4c-0.3,1.6-1,2.9-2.9,2.8C38.8,142.8,36.8,143.2,35.9,140.7z M21.8,141.3c3.3,0.2,6.6-1,9-3.3
	c2-1.8,3.7-4,5.1-6.3c2.8-5.6,5.3-11.3,7.8-17.1c0.2-0.4,0.2-0.9,0-1.3c-2.7-5-8.9-7-14-4.4c-9.3,5.2-14.3,13.3-15.5,23.8
	c-0.5,4.2,2.6,8,6.8,8.5C21.3,141.3,21.6,141.3,21.8,141.3L21.8,141.3z"/>
<path class="st0" d="M101,122.9c0.4-0.7,0.9-1.5,1.3-2.2c1.4-3,2.7-6.1,4.2-9c0.5-0.9,1.2-1.6,1.9-2.2c2-1.8,5-1.6,6.8,0.4
	c0.7,0.8,1.1,1.7,1.2,2.7c0.6,3.3-0.1,6.6-0.7,9.8c-0.3,1.6-0.5,3.2-0.6,4.8c0,2.1,1.2,2.9,3.1,2c1.1-0.6,2.2-1.4,3.2-2.3
	c0.4-0.3,0.6-1,1.1-1.3c0.5-0.3,1.1-0.5,1.7-0.3c0.4,0.4,0.6,1,0.5,1.5c-0.5,1.4-1.2,2.8-2,4c-2.1,2.6-5.3,4.1-8.6,4
	c-2.5,0.1-4.5-1.8-4.6-4.3c0-2.3,0.3-4.7,0.7-6.9c0.3-1.9,0.7-3.8,0.9-5.8c0.1-0.6,0-1.2-0.2-1.8c-0.4-1.3-1.3-1.6-2.1-0.4
	c-1,1.4-1.8,2.9-2.4,4.5c-1.3,4-2.5,8.1-3.7,12.1c-0.7,2.5-2,3.6-4.1,3.6c-2,0-3.6-1.6-3.6-3.6c0-0.5,0-1.1,0-1.9l-1.3,1.3
	c-2.4,2.6-5.8,4.2-9.3,4.1c-2.8,0.1-5.3-1.6-6.4-4.2c-0.3-0.7-0.6-1.4-1-2.3c-1,1.2-2,2.3-3,3.4c-3.4,4-8,6.8-13.1,8.1
	c-7.4,1.8-11.8-2.4-9.6-9.9c0.9-3,2.4-5.7,4.5-8c5.3-5.9,11.8-10,20-10.4c1.1,0.2,2.2,0.4,3.3,0.8c0.8,0.2,1.7,0.2,2.5,0.1
	c1.9-0.2,2.6,0.3,2.4,2.3s-0.7,4-1,5.9c-0.5,2.9,0,5.9,1.6,8.4c1.5,2.4,3.4,2.8,5.7,1.1c0.6-0.4,1.1-0.9,1.5-1.5
	c3.4-4.4,4.7-10.1,3.5-15.5c-0.2-0.9-0.6-1.7-1-2.5c-0.6-1.3-0.2-2.1,1.1-2.1c4.3-0.2,6.7,2.3,6.3,6.7c-0.2,2.1-0.7,4.3-1,6.4
	L101,122.9z M74.8,117.3c-1.7-0.2-3.4-0.2-5.1,0c-7.6,1.4-11.3,9.1-11.7,15.3c-0.2,4.4,1.7,5.7,5.6,3.8l0.4-0.2
	c3.6-1.9,6.6-4.5,9-7.8c1.3-1.6,1.9-3.7,1.7-5.8C74.7,120.8,74.7,119.1,74.8,117.3L74.8,117.3z"/>
<path class="st1" d="M97.5,144.3c-5.3,1.3-9.4,3.1-12.2,7.1c-2.5,3.3-2.1,7.9,0.9,10.8c4.2,4.4,10.7,5.3,17.3,2.6
	c5-2,8.8-5.6,12.8-9.1c8-7,16-14.1,24.5-20.7c8.5-6.5,18.6-9.7,28.7-12.7c12.6-3.6,25.6-6.1,38.7-7.3c8.7-0.9,17.6-0.8,26.4-1
	c2.6,0,5.2,0.1,7.7,0.6c2.9,0.5,3.8,3.2,1.5,5c-1.9,1.6-4.2,2.6-6.7,2.8c-4.8,0-9.6-1.1-14.5-1.2c-8.8-0.2-17.6-0.3-26.4,0
	c-11.1,0.4-22.1,2.9-32.2,7.3c-7.7,3.4-14.6,8.1-20.6,13.9c-7.7,7.4-15.3,15-22.9,22.5c-4,3.9-7.9,7.8-13.3,9.6
	c-8.7,2.8-17.2,2.2-24.8-3.3c-9.4-6.9-8.1-20.6,2.5-26.4c5.6-3,12-4.3,18.3-3.8c1.7,0.2,3.3,0.7,4.8,1.5c3.7,1.9,4.7,5.3,2.8,9.1
	c-3.1,5.7-9.2,9.1-15.6,8.8c-3.6-0.3-5.7-2.6-4.9-5.4c0.6-2.3,2.2-2.8,4-1.3c0.4,0.4,0.8,0.8,1.2,1.2c2.5,2.4,4,2.5,7.2,0.8
	c2.8-1.6,4.4-4.1,3.4-6.7c-0.6-1.6-1.9-2.9-3.4-3.7C101.1,144.6,99.3,144.3,97.5,144.3z"/>
<path class="st0" d="M138.1,101.7c2.6-0.4,5.3,0,7.6,1.2c3.1,1.6,4.4,5.4,2.8,8.6c-1,2-3.4,2.9-5.5,2c-1.3-0.4-2.1-1.8-1.8-3.1
	c0.1-1.2,1.1-2,2.2-1.9c0.1,0,0.1,0,0.2,0c1.2,0.1,1.3-0.6,1.3-1.3c0-1.3-1-2.5-2.3-2.6c-2.3-0.7-4.7,0-6.3,1.8
	c-1.6,1.9-2,4.5-1,6.8c0.6,1.8,1.9,3.2,3.6,4.1c3.1,1.8,6.2,3.5,9.2,5.4c4.9,3.1,7.8,7.4,7.7,13.4c-0.1,6.8-4.6,12.1-11.6,13.9
	c-4.5,1.4-9.4,0.8-13.5-1.6c-4.1-2.4-5.6-7.6-3.3-11.7c1.1-2.5,3.8-4,6.6-3.6c1.3,0.2,2.4,1.2,2.7,2.5c0.3,1.4-0.3,2.2-1.7,2.4
	c-2.4,0.3-3.3,1.7-2.7,4c0.9,3.5,4.4,5.1,8.1,3.8c3.7-1.3,6.3-5.6,6.2-10.5c0-3.4-1.9-6.4-4.8-8c-2.2-1.3-4.5-2.2-6.7-3.5
	c-4.8-2.9-7.5-7-6.8-12.8c0.3-4.5,3.7-8.2,8.1-8.8C137,101.8,137.6,101.8,138.1,101.7z"/>
<path class="st0" d="M122.6,101.1c0.2,1.6,0.2,3.2,0.2,4.8c-0.1,0.7-0.6,1.3-1.2,1.6c-0.7,0-1.3-0.4-1.6-1.1c-1-4.7-4-8-7.4-11.1
	c-0.9-0.8-1-2.1-0.2-3.1c0,0,0.1-0.1,0.1-0.1c0.8-1.2,2.4-1.6,3.6-0.8c1.5,1,2.8,2.3,3.8,3.7C120.9,97,121.8,99,122.6,101.1z"/>
<path class="st0" d="M204.8,106.2c-0.8,1.5-1.2,2.5-1.7,3.5c-0.7,1.3-1.5,1.4-2.2,0c-0.5-1.1-0.9-2.2-1.6-3.9
	c-0.4,2.1-0.7,3.6-1,5.1c-0.1,0.3-0.5,0.5-0.8,0.8c-0.2-0.3-0.6-0.6-0.5-0.8c0.5-2.7,1.2-5.3,1.8-7.9l0.9-0.1l2.7,5.6l3.1-6.7l1,0.1
	l0.3,10.5C205.2,111.6,205.2,111.6,204.8,106.2z"/>
<path class="st0" d="M163.5,111c-2.3,1.6-5.4,2.7-4.2,6.6l3.2-1.9l0.5,0.4c-0.6,0.7-1,1.6-1.7,2c-2.1,1.1-2.7,2.5-1.8,4.7
	c0.1,0.3,0,0.7-0.1,1l-0.7,0.2c-0.4-0.8-0.7-1.7-0.9-2.6c-0.3-1.3-0.3-2.7-0.5-4C156.7,113.5,159.3,110.6,163.5,111z"/>
<path class="st0" d="M234.2,112.2c-1.8,0.3-3.7,0.5-5.5,0.6c-1.5,0-1.4-1.3-1.1-2.3c0.6-1.9,4.2-4.2,6.1-3.9c0.5,0.1,1.5,0.7,1.4,1
	c-0.1,0.7-0.5,1.7-1,1.9c-1.6,0.6-3.4,0.9-5.2,1.8l5.3,0.2L234.2,112.2z"/>
<path class="st0" d="M228.9,105l-4.9,4.6l2.9,1.1v0.4l-5.5,0.9c0.4-3.4,2-6.7,3.1-10l0.9,0.2l-1,4.4l3.7-2.4L228.9,105z"/>
<path class="st0" d="M186.1,108.5c2.8-0.1,3.6,2,4.4,4c0.1,0.4-0.1,0.9-0.2,1.3c-0.5-0.2-0.9-0.5-1.3-0.8c-0.7-0.8-1.2-1.7-1.8-2.6
	l-0.7,0.3l-1.2,5c-1.3-3-0.9-11.3,0.5-12.7L186.1,108.5z"/>
<path class="st0" d="M171.5,117.3c0.7-0.3,1.4-0.5,2.1-0.8c0.7-0.3,1.4-0.7,2.3-1.2c-0.5,1.7-3,3.8-4.3,3.5
	c-0.7-0.4-1.2-1.1-1.3-1.9c0-2.2,1.2-4.3,3.1-5.3c0.5-0.3,1.3,0,2,0c0,0.7,0.2,1.8-0.2,2.2c-1.2,1.1-2.4,2.1-3.7,3L171.5,117.3z"/>
<path class="st0" d="M214,105.2l0.3,6.8l-0.6,0.2l-1.3-2.5c-0.4,0.3-0.8,0.5-1.2,0.7c-0.8,0.3-2.1,0.8-2.3,0.5
	c-0.6-0.7-0.8-1.7-0.7-2.6C208.6,105,211.4,103.6,214,105.2z M213.3,105.6c-2.9,0.1-3.9,1.3-3.3,4.1L213.3,105.6z"/>
<path class="st0" d="M236.2,113.8l2.6-5.3l-2.9-0.9l-0.1-0.6c0.5-0.2,1.1-0.7,1.5-0.5c1.9,0.8,2.9-0.2,3.7-1.7
	c0.1-0.3,0.5-0.4,1.2-0.4l-0.7,2.7l2.5,0.9v0.6c-0.7,0.2-1.4,0.3-2.1,0.2c-1.3-0.4-1.8,0.2-2.4,1.3c-0.7,1.5-1.7,2.8-2.5,4.3
	L236.2,113.8z"/>
<path class="st0" d="M176.9,116.4l3.4-2.7c-0.9-0.8-2.7-1.7-2.5-2.4c0.3-2.1,2-3.3,3.9-4l0.6,0.5l-3,3.1c0.1,0.2,0.2,0.4,0.3,0.4
	l2.8,1.3c-0.6,1-1.2,1.9-2,2.8c-0.9,0.7-1.8,1.2-2.8,1.7L176.9,116.4z"/>
<path class="st0" d="M222.2,105.6c-4.6-0.2-4.7,3.4-5.5,6.5c-0.9-1.2-0.6-5.9,0.3-6.8C217.5,104.6,220.6,104.6,222.2,105.6z"/>
<path class="st0" d="M164.6,114.2l4.3-1.3l0.7,0.8c-4.3,1-3.5,4-3.2,6.9C165,119.9,164.5,117.9,164.6,114.2z"/>
</svg>
