<?xml version="1.0" encoding="utf-8"?>
<!-- Generator: Adobe Illustrator 21.1.0, SVG Export Plug-In . SVG Version: 6.00 Build 0)  -->
<svg version="1.1" id="Layer_1" xmlns="http://www.w3.org/2000/svg" xmlns:xlink="http://www.w3.org/1999/xlink" x="0px" y="0px"
	 viewBox="0 0 250 250" style="enable-background:new 0 0 250 250;" xml:space="preserve">
<style type="text/css">
	.st0{fill:#231F20;}
	.st1{fill:url(#SVGID_1_);}
	.st2{fill:#FFFFFF;}
	.st3{fill:url(#SVGID_2_);}
	.st4{fill:#DA7349;}
	.st5{opacity:0.5;fill:#F7A547;enable-background:new    ;}
	.st6{fill:#F7F7F7;}
	.st7{fill:#AA2431;}
	.st8{fill:#FDFDFD;}
	.st9{fill:#EA5622;}
	.st10{fill:#F6A11C;}
</style>
<title>Casual dining</title>
<path class="st0" d="M186.6,174.1c0,0.3,0,0.5,0.1,0.8c0,0.3,0,0.3-0.2,0.3s-0.3,0-0.3-0.2c-0.1-0.7-0.2-1.3-0.3-1.9
	c0-0.1-0.1-0.3,0.1-0.4c0.2-0.1,0.4,0,0.4,0.1c0.3,0.4,0.5,0.8,0.8,1.2c0.1-0.5,0.3-0.9,0.3-1.3c0.1-0.2,0.2-0.4,0.4-0.4
	s0.2,0.2,0.2,0.4c0.1,0.6,0.2,1.2,0.3,1.9c0,0.2,0.1,0.3-0.2,0.4c-0.3,0-0.3-0.1-0.3-0.3c0-0.2-0.1-0.5-0.1-0.7
	c-0.3,0.2-0.1,0.7-0.5,0.8C187,174.8,186.9,174.2,186.6,174.1z"/>
<path class="st0" d="M185,175.3c0,0.1-0.1,0.1-0.3,0.2c-0.2,0-0.3-0.1-0.3-0.3c-0.1-0.5-0.2-0.9-0.2-1.4c0-0.3-0.1-0.4-0.4-0.3
	c-0.3,0.1-0.4,0.1-0.5-0.2c0-0.3,0.2-0.3,0.4-0.3l1.3-0.2c0.2,0,0.3-0.1,0.4,0.2c0,0.3-0.1,0.3-0.3,0.3c-0.4,0-0.4,0.2-0.3,0.5
	C184.8,174.2,184.9,174.7,185,175.3z"/>
<linearGradient id="SVGID_1_" gradientUnits="userSpaceOnUse" x1="84.8467" y1="69.6541" x2="165.1533" y2="184.3459" gradientTransform="matrix(1 0 0 -1 0 252)">
	<stop  offset="0" style="stop-color:#174074"/>
	<stop  offset="9.000000e-02" style="stop-color:#174377"/>
	<stop  offset="1" style="stop-color:#2395CA"/>
</linearGradient>
<circle class="st1" cx="125" cy="125" r="70"/>
<circle class="st2" cx="125" cy="125" r="60.7"/>
<radialGradient id="SVGID_2_" cx="125" cy="127" r="56.0093" gradientTransform="matrix(1 0 0 -1 0 252)" gradientUnits="userSpaceOnUse">
	<stop  offset="0" style="stop-color:#F8A61B"/>
	<stop  offset="1" style="stop-color:#B22118"/>
</radialGradient>
<circle class="st3" cx="125" cy="125" r="56"/>
<path class="st4" d="M123.2,176.9c3.9-0.1,7.7-0.6,11.5-1.5c1.9-0.4,3.6-0.9,5.4-1.4c2.9-0.9,5.8-1.9,8.5-3.2
	c3.6-1.7,7-3.6,10.3-5.7c1.8-1.2,3.5-2.4,5.2-3.7c0.1-0.1,0.3-0.2,0.4-0.2l0,0c-0.3,0.5-0.8,1-1.2,1.4c-1.4,1.5-3,2.9-4.7,4.2
	c-2.5,2-5.2,3.7-8,5.2c-3.7,2-7.7,3.5-11.8,4.7c-2.4,0.6-4.8,1.2-7.2,1.5c-1.6,0.2-3.2,0.4-4.8,0.5c-1.9,0.1-3.7,0.1-5.5,0.1
	c-5.6-0.2-11.2-1.2-16.5-3.1c0.6,0,1.1,0.1,1.7,0.2c1.3,0.2,2.6,0.3,3.8,0.5c4,0.5,8.1,0.6,12.1,0.5
	C122.9,177,123.1,177.1,123.2,176.9z"/>
<ellipse transform="matrix(0.9531 -0.3025 0.3025 0.9531 -21.8817 40.0531)" class="st5" cx="118.3" cy="90.7" rx="24.8" ry="20.2"/>
<path class="st6" d="M173.2,129.4c0.3,0.9,0.6,1.9,0.7,2.9c0.2,1.5,0.2,3.1,0,4.6c-0.1,1.8-1,3.6-2.3,4.8l-0.2,0.1l-0.1,0.1
	l-0.2,0.1c-2,1.1-3.7,0.5-4.4-1.7c-0.4-1.2-0.5-2.5-0.5-3.7c0.1-0.2,0.3-0.3,0.5-0.4l1.7-0.7c0.6-0.2,0.7-0.2,0.7,0.5
	c0,0.5,0.1,1.1,0.2,1.6c0.1,0.4,0.3,0.7,0.8,0.7c0.8-0.1,1.4-0.8,1.4-1.7c0-0.8,0-1.7-0.1-2.5c0-1.1-0.9-2.1-2-2.2
	c-0.3-0.1-0.6-0.2-0.8-0.3c-1.4-0.3-2.5-1.3-3-2.7c-1.2-3.3-1.9-6.6-0.5-10.1l0,0c0.1,0,0.1-0.1,0.1-0.1l0,0l0.1-0.2
	c0.9-1.5,2.9-1.9,4.3-1c0,0,0.1,0,0.1,0.1c0.9,0.7,1.5,1.6,2,2.6c0.4,1.1,0.7,2.3,0.9,3.5c0,0.2-0.1,0.5-0.3,0.6l-1.5,0.5
	c-0.6,0.2-0.6,0.1-0.7-0.5c-0.1-0.7-0.3-1.4-0.6-2c-0.3-0.6-0.7-0.8-1.2-0.6c-0.5,0.1-0.9,0.6-0.8,1.2c-0.1,1.1,0.1,2.2,0.4,3.3
	c0.1,0.4,0.4,0.7,0.8,0.8l1.2,0.4C171.3,127.5,172.6,128,173.2,129.4z"/>
<path class="st7" d="M93,162.9c-1.4,0.2-2.8,0.3-4.2,0.3h-1.7c-0.2,0-0.4-0.1-0.4-0.3c-0.9-2-1.7-4-2.4-6c-0.7-1.9-1.4-3.7-2-5.7
	c-0.4-1.3-0.8-2.6-1.1-3.8s-0.8-2.7-1.1-4.1c-0.2-0.9-0.4-1.9-0.7-2.9c-0.1-0.3-0.2-0.7,0.1-1c0.4-0.5,0.8-0.9,1.2-1.3
	c0,0.2,0,0.5,0.1,0.7c1.1,4.7,2.4,9.4,4,14c1,2.8,2,5.6,3.2,8.3c0.1,0.3,0.3,0.6,0.7,0.6c2.3-0.1,4.7,0.1,6.9-0.6
	C95,162,94.1,162.6,93,162.9z"/>
<path class="st7" d="M166.1,136.5c0,1.3,0.2,2.5,0.5,3.7c0.7,2.2,2.4,2.8,4.4,1.7l0.2-0.1c0,0.4-0.4,0.6-0.6,0.9
	c-0.2,0-0.3,0.2-0.5,0.3c-0.9,0.7-2.1,0.8-3.1,0.4c-0.1,0-0.1,0-0.2,0c-0.3-0.3-0.7-0.6-0.9-1c-0.8-1.4-1.2-2.9-1.1-4.5
	c0-0.1,0-0.2,0.1-0.3C165.3,137.5,165.6,136.9,166.1,136.5z"/>
<path class="st7" d="M171.4,141.8l0.2-0.1C171.6,141.8,171.5,141.8,171.4,141.8z"/>
<path class="st4" d="M164.3,160.8L164.3,160.8L164.3,160.8L164.3,160.8z"/>
<path class="st4" d="M164.4,160.8l-0.1,0.1l0,0L164.4,160.8L164.4,160.8z"/>
<path class="st7" d="M170.2,138.2c0.1-1.2,0-2.4-0.2-3.5c-0.1-0.7-0.6-1.3-1.3-1.4c-0.9-0.2-1.7-0.5-2.4-0.9c-0.1,0-0.1,0-0.2,0
	c-1.2-1.1-2.1-2.5-2.5-4.1c-0.3-1.5-0.5-3.1-0.6-4.7l0,0c0.1,0,0.1-0.1,0.1-0.2c0.3-0.5,0.4-1.1,0.2-1.7c0.1-0.3,0.3-0.7,0.4-1
	c0.3-0.7,0.8-1.3,1.5-1.7c-1.4,3.4-0.8,6.8,0.5,10.1c0.5,1.3,1.6,2.3,3,2.7c0.3,0.1,0.6,0.2,0.8,0.3c1.1,0.1,2,1.1,2,2.2
	c0.1,0.8,0.2,1.7,0.1,2.5C171.6,137.4,171,138.1,170.2,138.2z"/>
<path class="st7" d="M172.5,124.2c-0.7,1.1-1.9,1.8-3.2,2c-0.3,0.1-0.4-0.2-0.4-0.5c0-0.7-0.2-1.4-0.4-2.1c-0.1-0.4-0.4-0.8-0.8-0.9
	c0-0.5,0.3-1,0.8-1.2c0.5-0.1,0.9,0.1,1.2,0.6c0.3,0.6,0.5,1.3,0.6,2c0.1,0.6,0.2,0.6,0.7,0.5L172.5,124.2z"/>
<path class="st7" d="M165.3,118.8c0-0.1,0-0.2,0.1-0.2L165.3,118.8z"/>
<path class="st7" d="M165.2,118.9l0.1-0.1C165.3,118.8,165.3,118.9,165.2,118.9z"/>
<path class="st8" d="M97,159.6c-0.3,0.6-0.8,1.2-1.3,1.6c-2.2,0.8-4.6,0.5-6.9,0.6c-0.4,0-0.6-0.3-0.7-0.6c-1.2-2.7-2.2-5.5-3.2-8.3
	c-1.6-4.6-2.9-9.3-4-14c-0.1-0.2-0.1-0.5-0.1-0.7c0-0.2,0.2-0.2,0.3-0.2c1.2-0.3,2.5-0.6,3.7-1c1.5-0.6,3.2-0.4,4.5,0.4
	c0.6,0.5,1.2,1.1,1.7,1.7c0.5,0.7,0.9,1.5,1.2,2.3c0.3,0.9,0.6,2,0.8,2.9c0.3,1.4,0.6,2.8-0.1,4.1c-0.1,0.2,0.1,0.3,0.2,0.4
	c0.7,0.5,1.3,1.1,1.7,1.8c1,1.6,1.7,3.3,2.1,5.1C97.4,157,97.4,158.3,97,159.6z M85.2,142.4c0.3,1.3,0.7,2.5,1,3.8
	c0.4,1.3,0.4,1.4,1.8,0.9c1-0.1,1.5-0.6,1.5-1.5c-0.1-1.1-0.3-2.2-0.8-3.2c-0.3-1.1-1.4-1.8-2.5-1.5c-0.1,0-0.2,0.1-0.3,0.1
	C84.8,141.2,84.8,141.2,85.2,142.4L85.2,142.4z M91.6,157.7c1.4,0,1.7-0.5,1.4-1.9c-0.3-1.1-0.6-2.1-1.1-3.2c-0.7-1.5-1.4-1.9-3-1.7
	c-1.1,0.1-1.1,0.1-0.7,1.2c0,0.1,0.1,0.2,0.1,0.2c0.4,1.4,0.9,2.8,1.5,4.2C90.3,157.9,90.2,157.9,91.6,157.7z"/>
<path class="st8" d="M164.4,113.5C164.4,113.4,164.4,113.5,164.4,113.5C164.3,113.5,164.3,113.5,164.4,113.5
	c-0.1,0.1-0.2,0.1-0.2,0.2l0,0c-0.1,0-0.1,0.1-0.2,0.1c-1.9,1.8-4.7,2.3-7.1,1.2c-3.7-1.4-6.5-5.8-6.6-9.9c0-1.3,0.2-2.5,0.7-3.7
	l0,0c0.1,0,0.1-0.1,0.1-0.2c0.1-0.1,0.2-0.3,0.2-0.4c0.3-0.4,0.5-0.9,0.8-1.3c0.3-0.4,0.2-0.4-0.1-0.7c-1.2-1-2.3-2-3.3-3.2
	c-1.5-1.9-2.9-3.8-2.4-6.4l0,0c0.1,0,0.1-0.1,0.1-0.2c0.3-0.5,0.6-0.9,0.9-1.3c0.6-0.3,1.3-0.6,2-0.7c2.2-0.3,4.4,0.2,6.3,1.4
	c3.5,2.3,4.8,6,3.3,9.7c-0.2,0.5-0.7,0.9-0.5,1.3c0.1,0.4,0.7,0.7,1,1.1l3.4,3.4c0.2,0.3,0.5,0.6,0.8,0.7l0.7-3.2
	c0.2-0.4,0.4-0.4,0.8-0.2c0.4,0.2,0.6,0.3,0.8,0.5c0.5,0.3,0.9,0.7,1.5,0.9c0.4,0.2,0.7,0.7,0.5,1.2c-0.2,0.8-0.4,1.5-0.6,2.3
	c-0.1,0.5-0.3,1.1-0.5,1.6c-0.1,0.3-0.1,0.5,0.1,0.7c1.2,1.4,2.4,2.9,3.6,4.3c0.2,0.2,0.4,0.5,0.1,0.8c-0.9,0.2-1.9,0.3-2.9,0.5
	c-0.5,0.1-0.9,0-1.2-0.4c-0.4-0.5-0.8-1-1.3-1.5C165.1,112.4,164.8,113,164.4,113.5z M151.6,91.9c0,0.2,0.1,0.4,0.2,0.6
	c0.7,1.2,1.6,2.2,2.7,3.1c0.2,0.3,0.4,0.4,0.5,0c0.1-0.2,0.2-0.5,0.3-0.7c0.7-1.8-0.2-3.7-2-4.4c-0.1,0-0.3-0.1-0.4-0.1
	c-0.4-0.2-0.9,0-1.2,0.3C151.4,91,151.4,91.5,151.6,91.9z M161.3,110.1c0.4-0.3,0.7-0.7,0.9-1.1c0.1-0.2,0.1-0.4-0.1-0.6
	c0,0,0,0,0,0c-1.8-1.9-3.6-3.7-5.4-5.4c-0.1-0.1-0.3-0.2-0.4,0c-0.3,0.5-0.4,1.1-0.5,1.7c-0.1,0.5-0.1,1,0,1.5
	c0.2,1.8,1.4,3.4,3.1,4.2C159.7,110.8,160.6,110.6,161.3,110.1z"/>
<path class="st7" d="M164.4,113.5c0.4-0.5,0.7-1,1-1.5c0.4,0.5,0.9,1,1.3,1.5c0.3,0.4,0.8,0.6,1.2,0.4c0.9-0.2,1.9-0.3,2.9-0.5
	l-1.1,1.5c-1.1,0.2-2.2,0.4-3.3,0.6c-0.2,0-0.4-0.2-0.6-0.4C165.3,114.6,164.9,114,164.4,113.5z"/>
<path class="st6" d="M155.1,140.7c0.2,1.4,0.4,2.8,0.6,4.3c0.1,0.9,0.2,1.9,0.4,2.9c0.1,0.3-0.1,0.7-0.4,0.8c-0.1,0-0.1,0-0.1,0.1
	l0,0c-0.9,0.2-1.8,0.6-2.6,0.9c-0.5,0.2-0.7,0.1-0.8-0.5c-0.2-1.7-0.5-3.5-0.7-5.2c-1.1-7.1-2.5-14.2-4.2-21.2
	c-0.1-0.3-0.1-0.5-0.1-0.8c0.1-0.1,0.3-0.2,0.4-0.3c1.9-0.4,3.7-0.9,5.6-1.2c1.8-0.4,3.7,0.4,4.8,1.9c0.6,0.8,1.1,1.7,1.5,2.7
	l0.7,2.4c0.1,0.7,0.2,1.4,0.3,2.1c0.2,1.8-0.2,3.7-1.2,5.3c-0.1,0.1-0.1,0.4-0.1,0.5c0.9,2.1,1.9,4.2,2.8,6.4c0.4,1,0.8,2.1,1.2,3.1
	c0.2,0.3,0.1,0.7-0.3,0.9c0,0-0.1,0-0.1,0c-0.8,0.3-1.6,0.7-2.4,1c-0.4,0.2-0.5,0.1-0.7-0.3c-0.1-0.4-0.3-0.9-0.5-1.4
	c-1-2.5-2.1-5-3.2-7.5c-0.2-0.4-0.3-0.4-0.7-0.3c-0.1,0.1-0.3,0.1-0.4,0.1c-0.2,0-0.3,0.1-0.2,0.3
	C154.8,138.8,154.9,139.8,155.1,140.7z M155.4,132.7c0.7-0.1,1.2-0.7,1.2-1.4c0.1-1.8-0.2-3.5-0.9-5.1c-0.3-0.7-1-1-1.7-0.9
	c-0.2,0-0.5,0.1-0.7,0.1c-1,0.3-1,0.3-0.7,1.3c0.3,1.6,0.7,3.3,1,4.9c0.1,0.5,0,1.2,0.4,1.4S154.9,132.9,155.4,132.7
	C155.4,132.8,155.4,132.7,155.4,132.7L155.4,132.7z"/>
<path class="st7" d="M108.6,160.3c-0.4,0.7-1,1.2-1.7,1.5c-0.7,0.3-1.5,0.5-2.3,0.4c-1.2,0-2.4-0.3-3.5-0.8c0-0.1-0.1-0.2-0.2-0.2
	c-1.5-0.9-2.6-2.3-3.1-3.9c-1.4-3.7-2.6-7.6-3.7-11.5c-0.4-1.4-0.7-2.9-1.2-4.3c0-0.1,0-0.2,0-0.3c-0.3-1.4-0.6-2.8-0.9-4.2
	c-0.1-0.3-0.1-0.6,0.1-0.8l1.2-1.1c0,0.2,0,0.3,0.1,0.5c1.5,6.8,3.5,13.4,5.8,20c0.4,1.4,1.2,2.6,2.3,3.6
	C103.3,161,106.2,161.4,108.6,160.3z"/>
<path class="st7" d="M155.1,140.7c-0.2-0.9-0.3-1.9-0.5-2.8c0-0.2,0-0.3,0.2-0.3c0.1,0,0.3-0.1,0.4-0.1c0.3-0.2,0.5-0.1,0.7,0.3
	c1.1,2.5,2.2,5,3.2,7.5c0.2,0.4,0.4,0.9,0.5,1.4s0.3,0.4,0.7,0.3c0.8-0.4,1.6-0.7,2.4-1c-0.3,0.7-0.9,1.3-1.7,1.7
	c-0.7,0.3-1.3,0.6-2,0.8s-0.7,0.2-0.9-0.4c0-0.1-0.1-0.3-0.2-0.4c-0.3-1.1-0.8-2.2-1.3-3.3C156.2,143.2,155.7,141.9,155.1,140.7z"/>
<path class="st6" d="M163,123.5c-0.4,0.7-0.7,1.4-1.1,2.1c-0.1,0.2-0.2,0.4-0.4,0.5c-0.4,0-0.4-0.4-0.5-0.6
	c-0.1-0.6-0.3-1.2-0.4-1.9c-0.4-1.6-0.7-3.1-1.1-4.7c0.1-0.3,0.5-0.3,0.7-0.4c0.5-0.1,1-0.2,1.5-0.3c0.5-0.1,0.7,0.1,0.8,0.5
	c0.2,0.9,0.5,1.9,0.7,2.9c0.2,0.6,0.1,1.2-0.2,1.7C163,123.4,163,123.5,163,123.5L163,123.5z"/>
<path class="st9" d="M163,123.5c0-0.1,0-0.2,0.1-0.2C163.1,123.4,163.1,123.5,163,123.5z"/>
<path class="st7" d="M160.2,116.8c-2.2,0.6-4.6,0.1-6.4-1.4c-2.5-1.8-4.1-4.6-4.5-7.6c-0.3-2.2,0.3-4.5,1.6-6.3c0,0,0.1,0,0.1-0.1
	c-0.4,1.2-0.6,2.5-0.7,3.7c0.1,4.1,2.9,8.5,6.6,9.9c2.4,1,5.2,0.6,7.1-1.2c0.1,0,0.1-0.1,0.2-0.1c-0.3,0.8-0.8,1.4-1.4,1.9
	C162,116.2,161.1,116.6,160.2,116.8z"/>
<path class="st7" d="M164.2,113.7c0-0.1,0-0.1,0.1-0.2L164.2,113.7z"/>
<path class="st7" d="M88.3,152.4c0-0.1-0.1-0.1-0.1-0.2c-0.4-1.1-0.4-1.1,0.7-1.2c1.6-0.2,2.3,0.2,3,1.7c0.5,1,0.8,2.1,1.1,3.2
	c0.3,1.3-0.1,1.8-1.4,1.9c-0.2-1.4-0.6-2.7-1.3-3.9C89.9,153.1,89.1,152.5,88.3,152.4z"/>
<path class="st7" d="M85.2,142.4L85.2,142.4c-0.3-1.1-0.3-1.1,0.8-1.3c1-0.4,2.2,0,2.7,1.1c0,0.1,0.1,0.2,0.1,0.3
	c0.5,1,0.7,2.1,0.8,3.2c0,1-0.4,1.5-1.5,1.5c0-1.4-0.4-2.7-1.1-3.9C86.6,142.7,86,142.3,85.2,142.4z"/>
<path class="st8" d="M92.6,124c-0.1,1.2-0.3,2.5-0.6,3.6c-0.5,1.3-1.2,2.4-2.2,3.3l-0.1,0.1l0,0l-0.1,0.1l0,0
	c-0.9,0.7-1.9,1.2-2.9,1.5l-6.2,1.9c-0.5,0.1-0.7,0-0.8-0.5c-0.1-0.8-0.3-1.6-0.4-2.3c-0.8-4.8-1.3-9.6-1.6-14.4
	c-0.2-3.7-0.2-7.3,0-11c0.2-0.3,0.4-0.5,0.7-0.7l4.4-2.5c0.9-0.5,1.8-0.9,2.8-1.2c2.6-0.7,4,0.2,4.9,2.7c0,0.1,0.1,0.2,0.1,0.2
	c0.1,0.8,0.3,1.6,0.3,2.4c0.2,2.9,0.5,5.8,0.9,8.8C92.2,118.7,92.5,121.3,92.6,124z M85.7,126.5c0.7-0.2,1.2-0.8,1.4-1.5
	c0.2-0.7,0.2-1.4,0.1-2.1c-0.6-4.2-1-8.5-1.3-12.7c0-0.6-0.1-1.2-0.2-1.7c-0.1-0.5-0.6-0.9-1.1-0.8c-0.1,0-0.2,0-0.3,0.1
	c-0.4,0.1-0.8,0.3-1.2,0.5c-1.1,0.5-1.1,0.6-0.9,1.9c0,0.2,0,0.3,0,0.5c0.1,3.9,0.4,7.7,0.9,11.6c0.2,1.6,0.4,3.2,0.6,4.8
	c0,0.2,0.1,0.4,0.3,0.2C84.7,127,85.2,126.7,85.7,126.5L85.7,126.5z"/>
<path class="st7" d="M77.6,106.3c-0.2,3.7-0.2,7.3,0.1,11c0.2,4.8,0.8,9.6,1.6,14.3c0.1,0.8,0.3,1.6,0.4,2.3
	c0.1,0.5,0.3,0.6,0.8,0.5l6.2-1.9c1.1-0.3,2-0.9,2.9-1.5c-0.3,0.6-0.7,1.1-1.2,1.5c-0.4,0.4-0.9,0.7-1.4,1.1
	c-2.6,1.2-5.4,1.8-8.1,2.6c-0.4,0.1-0.6,0-0.7-0.4c-0.3-1.6-0.6-3.3-0.8-4.9c-0.2-1.5-0.4-2.9-0.6-4.4c-0.1-1.2-0.3-2.3-0.3-3.5
	c-0.1-2-0.3-4.1-0.4-6.1c-0.1-1.1,0-2.3,0-3.4c0-1.5,0-2.9,0-4.4c-0.1-0.6,0.1-1.3,0.6-1.7C77,107.1,77.3,106.7,77.6,106.3z"/>
<path class="st7" d="M151.4,100.7c0-0.4-0.4-0.5-0.6-0.7c-1.7-1.4-3.2-3.1-4.4-4.9c-0.6-0.9-1-1.9-1.1-3c-0.1-1.1,0.3-2.3,1.1-3
	c-0.5,2.6,0.9,4.6,2.4,6.4c1,1.2,2.1,2.3,3.3,3.3c0.3,0.2,0.3,0.4,0.1,0.7C152,99.7,151.6,100.3,151.4,100.7z"/>
<path class="st7" d="M155.8,104.6c0.1-0.6,0.2-1.2,0.5-1.7c0.1-0.3,0.2-0.2,0.4,0c1.9,1.8,3.7,3.6,5.4,5.4c0.2,0.1,0.2,0.4,0.1,0.6
	c0,0,0,0,0,0c-0.2,0.4-0.5,0.8-0.9,1.1C159.5,108.2,157.7,106.4,155.8,104.6z"/>
<path class="st7" d="M151.6,91.9c-0.2-0.4-0.2-0.9,0.1-1.3c0.3-0.3,0.8-0.5,1.2-0.3c1.8,0.4,2.9,2.3,2.5,4.1c0,0.1-0.1,0.3-0.1,0.4
	c-0.1,0.2-0.2,0.5-0.3,0.7c-0.1,0.4-0.3,0.4-0.5,0c0-0.2,0-0.4,0-0.7C154.4,93.3,153.2,92,151.6,91.9z"/>
<path class="st7" d="M162.9,103.7c0.2-0.9,0.8-1.8,1.5-2.4l-0.7,3.2C163.4,104.3,163.1,104,162.9,103.7z"/>
<path class="st7" d="M151,101.4c0-0.1,0-0.2,0.1-0.2c0,0,0,0,0,0C151.1,101.3,151.1,101.4,151,101.4z"/>
<path class="st7" d="M146.4,89.1c0-0.1,0-0.2,0.1-0.2C146.5,89,146.5,89.1,146.4,89.1z"/>
<path class="st8" d="M105.3,102.4c0.8,2,1.5,4,2.3,6c2.1,5.2,4.2,10.4,6.5,15.6c0.2,0.5,0.3,0.9-0.2,1.3c-0.1,0-0.1,0-0.1,0.1l0,0
	c-0.2,0-0.3,0-0.5,0.1l-3.6,0.9c-0.7,0.2-1,0.1-1.3-0.6c-0.6-1.5-1.2-2.9-1.7-4.4c-0.1-0.3-0.2-0.4-0.5-0.3c-1.8,0.5-3.5,1-5.3,1.5
	c-0.5,0.1-0.7,0.3-0.6,0.9c0,0.3,0,0.6,0,0.9c0.1,1.2,0.1,2.4,0.2,3.6c0,0.4-0.2,0.8-0.5,0.9l-3.6,0.9c-0.6,0.2-0.9,0-0.9-0.7
	c-0.1-1.6-0.1-3.1-0.2-4.7c-0.1-4.2,0-8.4,0.2-12.7c0.1-2.9,0.3-5.8,0.6-8.7c0.2-2,0.4-4,0.7-6c0.1-0.3,0.4-0.5,0.7-0.6
	c1.5-0.5,2.9-1.1,4.4-1.6c0.5-0.2,0.7-0.1,0.9,0.4c0.8,2.1,1.6,4.3,2.4,6.4C105.1,102,105.2,102.2,105.3,102.4z M100.2,109.3
	c-0.2,2.6-0.1,5.2-0.1,7.8c0,0.3,0.1,0.3,0.3,0.2l2.3-0.7c0.5-0.1,0.9-0.3,1.4-0.4c0.5-0.1,0.4-0.2,0.3-0.5
	c-1.4-3.8-2.6-7.6-3.8-11.5c0-0.1,0-0.3-0.2-0.3C100.3,105.7,100.1,107.5,100.2,109.3z"/>
<path class="st8" d="M123.8,92.9c0,1.8,0.2,3.5,0.4,5.3c0.1,2.1,0.3,4.3,0.5,6.4c0.3,3.7,0.5,7.5,0.8,11.3c0.1,1.9,0.2,3.7,0.4,5.6
	c0,0.4-0.1,0.7-0.4,0.9c0,0-0.1,0-0.1,0.1l0,0c-0.2,0-0.3,0-0.5,0.1l-5.1,1.2c-0.8,0.2-1,0.1-1.3-0.6c-2.9-6.8-5.8-13.7-8.6-20.6
	c-1.2-2.9-2.3-5.7-3.5-8.6c0-0.3,0.3-0.6,0.6-0.6l4.2-1.2c0.3-0.2,0.7,0,0.9,0.3c0,0.1,0,0.1,0.1,0.2c0.7,1.9,1.5,3.7,2.2,5.5
	c0,0.2,0.1,0.3,0.2,0.5c0.9,2.6,2,5.2,3.1,7.8l2.2,5.8c-0.1-2.1-0.3-4.2-0.5-6.2c-0.3-3.5-0.6-6.9-0.9-10.4l-0.4-4.7
	c0.1-0.3,0.4-0.5,0.7-0.6c1.3-0.2,2.5-0.5,3.8-0.8c0.7-0.1,0.9,0,1,0.7c0,0.2,0,0.3,0.1,0.5C123.6,91.5,123.7,92.2,123.8,92.9z"/>
<path class="st8" d="M142.8,112.4l3.3-0.6c0.4-0.1,0.8,0.1,0.9,0.5c0,0,0,0,0,0.1c0.4,1.4,0.8,2.8,1.2,4.2c0.1,0.3,0,0.7-0.3,0.9
	c-0.1,0-0.1,0-0.1,0.1l0,0c-0.2,0-0.4,0-0.6,0.1c-4.2,0.9-8.5,1.8-12.7,2.7c-0.7,0.1-0.9-0.1-1.1-0.7c-0.2-0.9-0.5-1.9-0.7-2.8
	c-2.4-9.2-5-18.4-8-27.4c0.1-0.3,0.4-0.5,0.7-0.5c3-0.5,5.9-0.9,8.9-1.2l2.8-0.3c0.8-0.1,1,0,1.3,0.8c0.3,0.8,0.7,1.7,1.1,2.6
	c0.1,0.3,0.2,0.5-0.1,0.7c-2.1,0.2-4.2,0.4-6.2,0.7c-0.5,0.1-1.2-0.1-1.4,0.3c-0.2,0.4,0.3,0.9,0.4,1.4l0,0l1.9,5.5
	c0,0.1,0.1,0.3,0.3,0.3l3.1-0.5l2.9-0.4c0.7-0.1,0.9,0.1,1.2,0.7c0.4,1.1,0.8,2.2,1.2,3.3c0.1,0.3,0.2,0.6-0.2,0.9
	c-2.1,0.3-4.2,0.6-6.3,0.9c-0.4,0.1-0.4,0.2-0.3,0.5s0.3,0.7,0.4,1.1c0.1,0.4,0.1,0.5,0.2,0.7c0.6,1.9,1.1,3.8,1.7,5.8
	c0,0.2,0,0.4,0.4,0.4C140.1,113,141.5,112.7,142.8,112.4z"/>
<path class="st7" d="M124.7,89.5c3,9,5.6,18.2,8,27.4c0.2,0.9,0.5,1.9,0.7,2.8c0.2,0.7,0.5,0.9,1.1,0.7c4.2-0.9,8.5-1.9,12.7-2.7
	c0.2-0.1,0.4-0.1,0.6-0.1c-0.5,0.7-0.9,1.6-1.9,1.9c-1.6,0.3-3.2,0.6-4.9,1c-2.7,0.6-5.4,1.2-8.1,1.8c-0.4,0.1-0.8-0.1-0.9-0.5
	c0,0,0-0.1,0-0.1c-0.6-2.1-1.1-4.1-1.6-6.2c-1.5-5.5-3-11-4.7-16.5c-0.6-1.8-1.1-3.6-1.7-5.4c-0.1-0.2-0.1-0.3-0.2-0.5
	c-0.1-0.7-0.2-1.4-0.2-2.1L124.7,89.5z"/>
<path class="st7" d="M106.4,94c1.2,2.9,2.3,5.7,3.5,8.6c2.8,6.9,5.7,13.8,8.6,20.6c0.3,0.7,0.5,0.8,1.3,0.6l5.1-1.2
	c0.2,0,0.3,0,0.5-0.1l-1.2,1.5c-0.1,0.1-0.3,0.2-0.5,0.3l-5.4,1.3c-0.4,0.2-0.9-0.1-1.1-0.5c0,0,0,0,0-0.1c-1.3-3.1-2.6-6.2-3.9-9.3
	c-0.8-1.9-1.6-3.7-2.4-5.6c-1.1-2.8-2.3-5.6-3.4-8.4c0-0.1-0.1-0.2-0.1-0.3c-0.7-1.7-1.4-3.5-2.1-5.2c-0.2-0.4-0.2-0.9,0.1-1.2
	C105.8,94.8,105.9,94.3,106.4,94z"/>
<path class="st7" d="M96.7,97.2c-0.2,2-0.4,4-0.7,6c-0.3,2.9-0.5,5.8-0.6,8.7c-0.2,4.2-0.2,8.4-0.2,12.7c0,1.6,0.1,3.1,0.2,4.7
	c0,0.6,0.3,0.8,0.9,0.7l3.6-0.9c-0.1,0.5-0.6,0.8-0.9,1.3c-0.3,0.3-0.7,0.6-1.2,0.7c-1.1,0.3-2.2,0.6-3.3,0.9
	c-0.5,0.1-0.8,0-0.9-0.5c-0.1-0.8-0.1-1.6-0.1-2.4c-0.1-1.4-0.1-2.7-0.1-4.1c0-0.1,0-0.3-0.1-0.4c0-0.8,0-1.6,0-2.4
	c0-4.3,0.2-8.7,0.5-13c0.1-1.4,0.2-2.8,0.4-4.1c0.1-1.2,0.2-2.4,0.3-3.7c0.1-0.4,0.1-0.8,0.2-1.2c0-0.8,0.4-1.6,1.1-2.1
	C96.1,97.8,96.4,97.5,96.7,97.2z"/>
<path class="st7" d="M118,90.9l0.4,4.7c0.3,3.5,0.6,6.9,0.9,10.4c0.2,2.1,0.4,4.1,0.5,6.2l-2.2-5.8c0,0,0-0.1,0-0.1
	c-0.2-2.7-0.5-5.4-0.7-8.2c-0.1-1.5-0.3-2.9-0.4-4.4c-0.2-0.6,0-1.3,0.4-1.7C117.3,91.7,117.6,91.2,118,90.9z"/>
<path class="st7" d="M139.2,92c-0.1,0.1-0.2,0.2-0.3,0.3c-0.4,0.8-1.3,1.3-2.2,1.2c-1.4,0.1-2.8,0.3-4.2,0.4l0,0
	c-0.2-0.5-0.6-1-0.4-1.4c0.1-0.4,0.9-0.3,1.4-0.3c2.1-0.3,4.1-0.5,6.2-0.7L139.2,92z"/>
<path class="st6" d="M134.1,125.1c0.2-0.2,0.4-0.4,0.7-0.4c3-0.7,6.1-1.4,9.1-2.1c0.4-0.1,0.8-0.3,1.1,0.1c0.3,1.3,0.6,2.6,0.9,3.9
	c0.1,0.3,0,0.6-0.2,0.8l-5,1.2c-1.1,0.3-1.1,0.3-0.7,1.3c0.4,1.9,0.8,3.8,1.2,5.7c0.1,0.4,0.3,0.3,0.5,0.3l4.2-1.1
	c0.6-0.2,0.8-0.1,0.9,0.6c0.2,1.1,0.4,2.2,0.6,3.3c0.1,0.3,0.1,0.7-0.3,0.9c-0.1,0-0.1,0-0.1,0.1l0,0l-3.9,1.1c-1,0.3-1,0.3-0.7,1.3
	l0.9,4.7c0.1,1.3,0.1,1.3,1.4,0.9c1.4-0.4,2.8-0.9,4.2-1.4c0.5-0.2,0.6,0,0.7,0.4c0.2,1.1,0.3,2.2,0.5,3.4c0.1,0.3-0.1,0.6-0.4,0.8
	l-0.3,0.1c-2.9,0.9-5.7,1.9-8.6,2.7c-0.6,0.2-0.7,0.1-0.8-0.5c-1.5-8-3.2-16-5.1-23.9C134.7,127.8,134.3,126.5,134.1,125.1z"/>
<path class="st7" d="M147.1,122c0,0.3,0,0.6,0.1,0.8c1.7,7,3.2,14.1,4.2,21.2c0.3,1.7,0.5,3.5,0.7,5.2c0.1,0.6,0.2,0.7,0.8,0.5
	c0.9-0.3,1.7-0.7,2.6-0.9c-0.4,0.8-1.2,1.4-2.1,1.7c-0.7,0.2-1.5,0.5-2.2,0.8c-0.4,0.1-0.6-0.1-0.6-0.4c-0.2-1.1-0.3-2.2-0.4-3.4
	c-0.2-1.1-0.3-2.4-0.6-3.6c-0.2-1.7-0.5-3.4-0.8-5.1c-0.7-4.3-1.6-8.5-2.6-12.7c-0.2-0.7-0.3-1.3-0.5-2c-0.1-0.3,0-0.7,0.3-0.9
	C146.3,122.8,146.7,122.4,147.1,122z"/>
<path class="st7" d="M159.5,118.9c0.4,1.6,0.7,3.1,1.1,4.7c0.1,0.6,0.3,1.3,0.4,1.9c0.1,0.3,0.1,0.6,0.5,0.6l-0.9,1.1
	c-0.1,0.2-0.3,0.2-0.5,0.2l-0.7-2.4c-0.1-0.8-0.2-1.5-0.4-2.2c-0.1-0.7-0.3-1.4-0.5-2.1c-0.1-0.2,0-0.4,0.1-0.6
	C158.8,119.7,159.2,119.3,159.5,118.9z"/>
<path class="st7" d="M142,104.9c-0.4,0.8-1.1,0.9-1.9,0.9c-1.2,0.1-2.4,0.4-3.7,0.5c-0.1-0.4-0.2-0.7-0.4-1.1
	c-0.1-0.4-0.1-0.4,0.3-0.5c2.1-0.3,4.2-0.7,6.3-0.9L142,104.9z"/>
<path class="st7" d="M140,129.9c-0.3-1.1-0.3-1.1,0.7-1.3l5-1.2c-0.4,0.5-0.9,0.9-1.3,1.4c-0.1,0.1-0.2,0.1-0.3,0.2
	C142.7,129.3,141.4,129.7,140,129.9z"/>
<path class="st7" d="M142.6,142c-0.3-1.1-0.3-1.1,0.7-1.3l3.9-1.1c-0.4,0.7-1,1.3-1.8,1.6L142.6,142z"/>
<path class="st7" d="M147.2,139.6c0-0.1,0.1-0.1,0.1-0.1L147.2,139.6z"/>
<path class="st7" d="M147.9,117.6c0-0.1,0.1-0.1,0.1-0.1L147.9,117.6z"/>
<path class="st6" d="M101.7,132.8l2.2-0.5c0.6-0.1,0.8,0,0.9,0.6l0.2,0.8c1,4.3,2.1,8.6,3.3,12.9c0.5,1.9,1.1,3.8,1.7,5.6
	c0.2,0.9,0.6,1.9,0.8,2.8c0.4,1.9-0.4,4-2,5.1c-0.1,0-0.1,0-0.1,0.1l0,0c-0.1,0-0.1,0-0.1,0.1c-2.4,1.1-5.3,0.7-7.3-1.1
	c-1.1-1-1.9-2.2-2.3-3.6c-2.3-6.5-4.2-13.2-5.8-20c0-0.2,0-0.3-0.1-0.5c0.1-0.2,0.3-0.3,0.6-0.4l2.6-0.7c0.6-0.1,0.7,0,0.8,0.5
	c0.4,1.4,0.7,2.9,1,4.3c0.8,3.2,1.7,6.4,2.7,9.5c0.7,2.2,1.3,4.4,2.1,6.5c0.1,0.3,0.3,0.6,0.5,0.8c0.3,0.4,0.8,0.6,1.3,0.6
	c1.1,0,1.6-0.5,1.4-1.5c0-0.3-0.1-0.6-0.2-0.9c-2-6-3.7-12.1-5.1-18.2c-0.3-0.8-0.4-1.6-0.5-2.4c0.1-0.3,0.5-0.3,0.7-0.4
	L101.7,132.8z"/>
<path class="st6" d="M109.5,131.9c1.8-2.5,5.2-3,7.7-1.3c0.2,0.2,0.5,0.4,0.7,0.6l0.7,0.7l0,0l0.1,0.1c0.6,0.9,1.1,1.8,1.5,2.8
	c0.2,0.9,0.4,1.8,0.7,2.7c0.1,0.4,0,0.7-0.4,0.8l-2.6,0.6c-0.8,0.2-0.9,0.1-1.2-0.7c-0.2-0.9-0.5-1.7-0.9-2.4
	c-0.3-0.6-1-0.9-1.6-0.8c-0.7,0.1-1.2,0.6-1.3,1.3c-0.1,1.1,0,2.3,0.5,3.3c0.3,0.9,1.1,1.5,2,1.7c0.9,0.2,2,0.5,2.9,0.7
	c2.5,0.5,4.5,2.2,5.4,4.6c0.7,1.7,1.1,3.4,1.4,5.1c0.2,1,0.1,2.1-0.1,3.1c-0.2,1-0.8,1.9-1.5,2.6c-0.1,0.1-0.2,0.1-0.3,0.3
	c-0.1,0-0.2,0-0.2,0.1l0,0l-0.4,0.2c-1.5,0.8-3.3,1-5,0.6c-3-0.9-4.7-3.7-5.3-6.9c0.1-0.2,0.3-0.3,0.6-0.3c1-0.2,2-0.3,2.9-0.5
	c0.3-0.1,0.7,0,0.8,0.4c0,0,0,0.1,0,0.1c0.1,0.4,0.3,0.8,0.4,1.2c0.4,1.4,1.2,1.9,2.5,1.6c1.1-0.2,1.5-0.7,1.4-1.7
	c-0.1-1.2-0.5-2.4-1-3.5c-0.3-0.7-1-1.3-1.8-1.4l-2.6-0.6c-2.9-0.5-5.2-2.7-6-5.5c-0.3-0.8-0.5-1.6-0.7-2.4
	C108.3,136.6,108.1,134.1,109.5,131.9z"/>
<path class="st6" d="M119.8,128.5c0.1-0.2,0.4-0.4,0.6-0.4l11.4-2.7c0.6-0.1,0.8,0.1,1,0.8c0.3,1.1,0.5,2.2,0.8,3.3
	c0.1,0.4,0.2,0.7-0.2,1c0,0-0.1,0-0.1,0L131,131c-1.1,0.3-1.1,0.3-0.8,1.4c0,0.2,0.1,0.3,0.1,0.5c0.6,2.5,1.1,4.9,1.7,7.4
	c0.7,3.1,1.4,6.2,2.1,9.3c0.3,1.5,0.7,3.1,1,4.6c0.1,0.4,0.1,0.9-0.4,1.1c-0.2,0-0.3,0-0.5,0.1l-2.9,0.7c-0.6,0.1-0.8,0-0.9-0.5
	c-1.1-4.6-2.2-9.3-3.3-13.9c-0.7-2.9-1.4-5.9-2.1-8.8c-0.1-0.3-0.2-0.4-0.5-0.3c-0.9,0.3-1.9,0.5-2.8,0.7c-0.6,0.1-0.8,0-1-0.6
	l-0.8-3.4C119.8,128.9,119.8,128.7,119.8,128.5z"/>
<path class="st7" d="M137.5,148.8c-0.3-1.8-0.7-3.6-1.1-5.4c-0.9-4.2-1.8-8.4-2.8-12.6c0-0.1-0.1-0.3-0.1-0.4c0.4-0.3,0.3-0.6,0.2-1
	c-0.3-1.1-0.5-2.2-0.8-3.3c0.4-0.3,0.7-0.8,1.2-1.1c0.2,1.4,0.6,2.7,0.9,4.1c1.9,7.9,3.6,15.9,5.1,23.9c0.1,0.6,0.3,0.7,0.8,0.5
	c2.9-0.9,5.8-1.8,8.6-2.7l0.3-0.1c-0.6,0.9-1.5,1.5-2.5,1.9c-2.7,0.8-5.3,1.7-8,2.5c-0.5,0.1-0.7,0-0.8-0.4l-1.1-5.7
	C137.5,148.9,137.5,148.9,137.5,148.8z"/>
<path class="st7" d="M127.5,151.3c-0.4-1.9-0.9-3.9-1.4-5.8c-0.9-3.6-1.7-7.2-2.6-10.9c-0.2-0.7-0.1-0.7-0.8-0.5l-2.6,0.6
	c-0.4-1-0.9-1.9-1.5-2.8c0-0.1,0-0.1-0.1-0.1l0,0c0-0.5-0.1-0.9-0.3-1.4c-0.1-0.3,0-0.6,0.2-0.8c0.4-0.4,0.9-0.8,1.3-1.2
	c0,0.2,0,0.5,0,0.7l0.8,3.4c0.2,0.6,0.3,0.8,1,0.6c0.9-0.2,1.9-0.4,2.8-0.7c0.4-0.1,0.4,0,0.5,0.3c0.7,2.9,1.4,5.9,2.1,8.8
	c1.1,4.6,2.2,9.3,3.3,13.9c0.1,0.6,0.3,0.7,0.9,0.5l2.9-0.7c0.2-0.1,0.3-0.1,0.5-0.1c-0.6,0.9-1.6,1.5-2.7,1.7
	c-0.7,0.1-1.4,0.3-2.1,0.5c-0.7,0.2-0.9,0-1-0.6c-0.4-1.8-0.8-3.6-1.3-5.4C127.6,151.5,127.6,151.4,127.5,151.3z"/>
<path class="st7" d="M111.7,152.3l0.6-0.5c0.6,3.1,2.2,5.9,5.3,6.9c1.7,0.5,3.5,0.3,5-0.6l0.4-0.2c-0.3,0.6-0.8,1.2-1.5,1.5
	c-3.2,1.9-7.4,0.9-9.4-2.4c-0.3-0.5-0.5-1.1-0.7-1.6c-0.1-0.2-0.1-0.5-0.2-0.7C110.7,153.8,110.9,152.8,111.7,152.3
	C111.7,152.3,111.7,152.3,111.7,152.3z"/>
<path class="st7" d="M123,157.9c0-0.1,0.1-0.1,0.2-0.1C123.1,157.8,123.1,157.9,123,157.9z"/>
<path class="st7" d="M155.5,148.8c0-0.1,0.1-0.1,0.1-0.1L155.5,148.8z"/>
<path class="st7" d="M108.7,160.2c0-0.1,0.1-0.1,0.1-0.1L108.7,160.2z"/>
<path class="st7" d="M108.6,160.3c0-0.1,0-0.1,0.1-0.1L108.6,160.3z"/>
<path class="st7" d="M152.5,126.8c-0.3-1-0.3-1,0.7-1.3c0.2-0.1,0.5-0.1,0.7-0.1c0.7-0.2,1.4,0.2,1.7,0.9c0.7,1.6,1.1,3.4,0.9,5.1
	c-0.1,0.7-0.6,1.2-1.2,1.4c0-0.6,0-1.2-0.1-1.8c-0.1-1.2-0.4-2.4-0.9-3.6c-0.3-0.5-0.8-0.8-1.3-0.7L152.5,126.8z"/>
<path class="st7" d="M100.4,133.3c0,0.8,0.2,1.6,0.5,2.4c1.5,6.1,3.2,12.2,5.1,18.2c0.1,0.3,0.2,0.6,0.2,0.9c0.1,1-0.4,1.6-1.4,1.5
	c0-0.5-0.1-0.9-0.3-1.4l-1.9-5.7c-0.9-3.2-1.7-6.3-2.6-9.5c-0.4-1.5-0.7-3-1.1-4.5c-0.1-0.2,0-0.5,0.2-0.7L100.4,133.3z"/>
<path class="st7" d="M89.6,131.1l0.1-0.1C89.7,131.1,89.7,131.1,89.6,131.1C89.6,131.1,89.6,131.1,89.6,131.1z"/>
<path class="st7" d="M89.7,131l0.1-0.1L89.7,131z"/>
<path class="st7" d="M85.8,126.5c-0.1-1.5-0.2-3-0.5-4.5c-0.1-1.4-0.3-2.9-0.5-4.3c-0.2-2.2-0.4-4.5-0.5-6.8c0-0.1,0-0.3-0.1-0.4
	c-0.2-0.7-0.5-0.9-1.2-0.6c-0.2,0.1-0.5,0.2-0.8,0.3c-0.2-1.3-0.2-1.3,0.9-1.9c0.4-0.2,0.8-0.4,1.2-0.5c0.5-0.2,1,0,1.3,0.4
	c0,0.1,0.1,0.2,0.1,0.3c0.2,0.6,0.2,1.1,0.2,1.7c0.2,4.3,0.7,8.5,1.3,12.7c0.1,0.7,0.1,1.4-0.1,2.1
	C86.9,125.6,86.4,126.2,85.8,126.5z"/>
<path class="st7" d="M119.1,152.4c-0.1-0.7-0.3-1.4-0.6-2c-0.3-0.7-1-1.3-1.7-1.4c-1.3-0.3-2.5-0.6-3.7-1c-1.9-0.7-3.5-2.1-4.4-3.8
	c-0.9-1.7-1.4-3.6-1.6-5.5c-0.2-1.4-0.1-2.8,0.4-4.2c0.4-0.9,1-1.8,1.8-2.4c0.1-0.1,0.2-0.2,0.3-0.2c-1.4,2.3-1.2,4.7-0.7,7.1
	c0.2,0.8,0.4,1.6,0.7,2.4c0.8,2.8,3.1,5,6,5.5l2.6,0.6c0.8,0.2,1.5,0.7,1.8,1.4c0.5,1.1,0.9,2.3,1,3.5c0.1,0.9-0.3,1.4-1.4,1.7
	C119.4,153.6,119.3,153,119.1,152.4z"/>
<path class="st7" d="M100.2,124.4c0-0.3,0-0.6,0-0.9c-0.1-0.5,0.1-0.7,0.6-0.9c1.8-0.5,3.6-1,5.3-1.5c0.3-0.1,0.4,0,0.5,0.3
	c0.6,1.5,1.1,2.9,1.7,4.4c0.3,0.7,0.6,0.8,1.3,0.6l3.6-0.9c0.2-0.1,0.3-0.1,0.5-0.1c-0.6,0.9-1.1,1.8-2.3,2
	c-1.1,0.2-2.1,0.5-3.1,0.8c-0.8,0.2-1.1,0.1-1.4-0.7c-0.5-1.3-1.1-2.7-1.6-4c-0.1-0.4-0.3-0.5-0.7-0.3
	C103.3,123.6,101.8,124,100.2,124.4z"/>
<path class="st7" d="M125.4,122.6C125.4,122.5,125.4,122.5,125.4,122.6L125.4,122.6z"/>
<path class="st7" d="M113.8,125.4c0-0.1,0.1-0.1,0.1-0.1L113.8,125.4z"/>
<path class="st7" d="M100.2,109.3c-0.1-1.8,0.1-3.6,0.1-5.4c0.2,0,0.2,0.2,0.2,0.3c1.2,3.8,2.5,7.7,3.8,11.5
	c0.1,0.3,0.1,0.5-0.3,0.5s-0.9,0.3-1.4,0.4c-0.6-1.7-1.2-3.5-1.8-5.2C100.7,110.7,100.5,110,100.2,109.3z"/>
<path class="st7" d="M120.5,138.3c-0.5,0.8-1.3,1.4-2.2,1.6c-0.7,0.1-1.4,0.3-2.1,0.5c-0.5,0.1-0.7-0.1-0.8-0.5
	c-0.2-0.9-0.4-1.7-0.8-2.5c-0.3-0.7-0.9-1.1-1.7-1.1c0.1-0.7,0.6-1.2,1.3-1.3c0.7-0.1,1.3,0.2,1.6,0.8c0.5,0.7,0.8,1.6,0.9,2.4
	c0.2,0.8,0.3,0.9,1.2,0.7L120.5,138.3z"/>
<path class="st10" d="M118.6,131.9c0.1,0,0.1,0.1,0.1,0.1L118.6,131.9z"/>
<path class="st7" d="M133.4,130.4c-0.6,0.8-1.2,1.7-2.4,1.8c-0.3,0-0.5,0.1-0.8,0.2c-0.4-1.1-0.4-1.1,0.8-1.4L133.4,130.4z"/>
</svg>
