<?xml version="1.0" encoding="utf-8"?>
<!-- Generator: Adobe Illustrator 21.1.0, SVG Export Plug-In . SVG Version: 6.00 Build 0)  -->
<svg version="1.1" id="Layer_1" xmlns="http://www.w3.org/2000/svg" xmlns:xlink="http://www.w3.org/1999/xlink" x="0px" y="0px"
	 viewBox="0 0 250 250" style="enable-background:new 0 0 250 250;" xml:space="preserve">
<title>Coke_Dine</title>
<g>
	<path d="M142.1,134.5c-1.9,1.3-4.6,0.8-5.9-1.1c-0.1-0.1-0.1-0.2-0.2-0.3c-0.4-0.6-0.5-1.4-0.1-2.1c0.7-1.4,1.7-2.6,2.9-3.5
		c0.9-0.8,1.9-1.6,3.3-0.2c0-1.8,0-3.1,0-4.5s0-2.8,0-4.2c-3.8,1.9-7,4.9-9.3,8.5c-1.1-1.8-2.7-3.3-4.7-4.1c0.4-0.2,0.7-0.4,1-0.5
		c3.9-1.7,4-7.8,1.6-10.3c-4.1-4.2-13.4-4.2-17.4,0c-2.4,2.5-2.4,6.6,0.2,9c0.1,0.1,0.3,0.3,0.4,0.4c0.2,0.1,0.7,0.2,0.6,0.7
		c-0.7,0.4-1.4,0.7-2.1,1.2c-4.4,2.8-5.7,8.7-2.9,13.1c1.1,1.7,2.7,3,4.5,3.7c3.1,1.1,6.4,1.5,9.7,1.1c2.6-0.2,5.1-1.3,6.9-3.2
		c0.4-0.4,0.6-0.9,1.1-1.1c0.2,0.1,0.3,0.2,0.5,0.3c2.4,2.3,5.6,3.5,8.9,3.6c0.7,0,1.2,0,1.1-0.9
		C142.1,138.2,142.1,136.4,142.1,134.5z M119.5,113.5c1.6-0.5,3.3-0.5,4.9,0c1.7,0.3,2.8,1.9,2.5,3.6c0.1,1.7-1.2,3.1-2.8,3.3
		c-0.8,0.1-1.5,0.2-2.3,0.2c-0.7,0-1.4-0.1-2.1-0.2c-1.6-0.3-2.8-1.7-2.8-3.4C116.7,115.3,117.9,113.8,119.5,113.5L119.5,113.5z
		 M126.3,135.2c-1.7,0.8-3.6,1.3-5.5,1.3c-1.4,0-2.7-0.3-3.9-0.9c-1.8-0.9-2.9-2.7-2.8-4.7c-0.1-2,1-3.8,2.8-4.7
		c4-2,8.8-0.4,10.8,3.6c0.2,0.4,0.4,0.9,0.5,1.4c0.6,1.6-0.2,3.4-1.7,4C126.4,135.2,126.3,135.2,126.3,135.2L126.3,135.2z"/>
	<g>
		<path d="M69.9,67.1c-1.6-0.6-3.3-1-5.1-1.1c-7,0-14,0-21,0c-0.1,0-0.2,0.1-0.4,0.1c1,1.1,1,1.1,1,2.9c0,8.5,0,17,0,25.4
			c0.2,1.1-0.2,2.3-1.1,3.1c0.4,0,0.7,0,1,0c6.4,0,12.7,0,19.2,0c1.3,0,2.5-0.1,3.8-0.4c4.7-0.8,8.6-4.2,9.9-8.8
			c1.4-4.4,1.4-9.2,0-13.6C76.3,71.1,73.5,68.2,69.9,67.1z M71.8,85.7c-0.6,3.9-4,6.8-8,6.7c-1.9,0-3.9,0-5.8,0h-5.6
			c-1.6,0-1.6,0-1.5-1.5c0-2.9,0-5.7,0-8.6c0-3.3,0-6.7,0-10c0-1.4,0-1.5,1.4-1.5H62c0.7,0,1.4,0.1,2.1,0.2c3.9,0.2,7.1,3.2,7.6,7.1
			C72.3,80.6,72.3,83.2,71.8,85.7L71.8,85.7z"/>
		<path d="M206.6,66h-8c0.8,0.6,1.3,1.6,1.1,2.7c0,5.7,0,11.5,0,17.2c0,0.4,0.3,0.9-0.4,1.3c-6-6.4-12.1-12.8-18.1-19.2
			c-0.8-0.8-0.7-0.9,0.4-2.1h-4.7h-4.4c1.1,0.9,0.9,1.9,0.9,2.9c0,8.5,0,17,0,25.6c0.2,1.1-0.1,2.2-0.9,3h7.2c-1.1-0.7-1-1.8-1-2.8
			c0-6.1,0-12.3,0-18.4c0-0.4-0.2-0.9,0.2-1.3c0.1,0,0.3,0,0.4,0c6.4,6.9,12.8,13.8,19.3,20.6c0.7,0.8,0,1.2-0.1,1.8h7.7
			c-1.2-0.7-1.1-1.8-1.1-2.9c0-8.5,0-16.9,0-25.2C205.1,68.1,205,66.8,206.6,66z"/>
		<path d="M115.4,92.4h-5.2c-4.6,0-9.2,0-13.8,0c-1,0-1.3-0.3-1.3-1.3c0-2,0-4,0-6c0-1.4,0-1.4,1.5-1.4c3.8,0,7.6,0,11.4,0
			c1-0.1,2,0.2,2.7,1v-7.5c-0.7,1-1.3,1.5-2.2,1.5c-4.1,0-8.1,0-12.2,0c-0.9,0-1.1-0.4-1.1-1.2c0-1.6,0-3.2,0-4.8s0-1.9,1.8-1.9
			h17.8c1.2,0,2.4-0.1,3.2,1.3v-7.5c-0.8,1-2.1,1.5-3.3,1.3H89.9c-0.7-0.1-1.5,0-2.1,0.3c1.4,0.6,1.2,1.7,1.2,2.7
			c0,8.5,0,16.9,0,25.2c0.2,1.2-0.1,2.4-0.9,3.3c0.6,0.2,1.3,0.2,1.9,0.1h25.2c1.1,0,2.2-0.2,3.2,1.1v-7.1
			C117.6,92.4,116.5,92.7,115.4,92.4z"/>
		<path d="M149.5,69.4c-0.5-1.1-1.3-2.1,0-3.3h-9.5c1.5,0.8,0.8,1.7,0.4,2.6l-11,24.3c-0.5,1.7-1.5,3.3-2.9,4.5h8
			c-0.3-0.8-0.7-1.3-0.2-2.1c0.9-1.7,1.7-3.5,2.4-5.3c0.2-0.6,0.8-0.9,1.4-0.9c4.2,0,8.5,0,12.7,0c0.7-0.1,1.3,0.3,1.5,1
			c0.7,1.7,1.5,3.4,2.3,5.1c0.3,0.7,0.6,1.4-0.2,2.1h8.6c-0.6-0.6-1.1-1.3-1.5-2C157.7,86.7,153.6,78.1,149.5,69.4z M139.3,84.2
			l5.1-11.4l5.3,11.4L139.3,84.2z"/>
	</g>
	<g>
		<path d="M30.5,153.3c-1.9-0.5-3.8-0.8-5.7-0.8H6.1c-0.3,0-0.8-0.2-1,0.4c1.1,0.4,1.1,1.3,1.1,2.3c0,8.7,0,17.5,0,26.2
			c0,1,0,1.9-1.2,2.3l0.2,0.3c7.2,0,14.4,0.3,21.5,0c6.3,0.1,11.8-4.5,12.7-10.8c0.8-3.6,0.7-7.3-0.2-10.9
			C38.3,158,34.9,154.4,30.5,153.3z M33.2,173.1c-0.7,3.3-3.6,5.8-7,5.8c-4.2,0.2-8.7,0-13,0.1c-0.9,0-0.9-0.6-0.9-1.2
			c0-3.2,0-6.4,0-9.6c0-3.1,0-6.4,0-9.4c0-1.1,0.3-1.4,1.4-1.4c3.4,0,6.8,0,10.2,0c0.5,0,1.1,0.1,1.6,0.1c4.4,0.2,8,3.7,8.2,8.1
			C34,168.2,33.8,170.7,33.2,173.1z"/>
		<path d="M78.8,178c-0.4,0.7-1.2,1.1-1.9,1.1c-6.7,0-13.3,0-20,0c-0.9,0-1.2-0.3-1.1-1.2c0-1.9,0-3.7,0-5.6s0-1.9,1.8-1.9h10.3
			c1.2,0,2.4-0.2,3.4,1.2v-7.2c-0.6,0.6-1.3,0.9-2.1,0.9c-4.2,0-8.3,0-12.4,0c-0.8,0-1-0.3-1-1.1c0-1.6,0-3.2,0-4.8c0-2.1,0-2,1.9-2
			c5.3,0,10.6,0,15.8,0c1.8,0,3.6-0.5,5.3,1.2c0-1.5,0-2.6,0-3.8c0.1-1.2,0-2.4-0.3-3.5c-0.8,0.9-1.9,1.3-3.1,1.1H50.6
			c-0.7,0-1.4,0-2.1,0c1.1,0.8,1,1.8,1,2.8c0,8.3,0,16.5,0,24.8c0.3,1.4-0.2,2.9-1.2,3.9h27c1.4-0.3,2.8,0.1,3.8,1
			c0-1.5,0-2.6,0-3.8C79.2,180.2,79.1,179.1,78.8,178z"/>
		<path d="M151,152.8c1.4,0.4,1.2,1.4,1.2,2.4c0,5.7,0,11.5,0,17.2c0,0.7,0,1.4-0.1,2.1c-0.1,1.9-1.4,3.4-3.1,4
			c-4.2,1.2-8.6,1.2-12.7,0c-1.8-0.5-3-2.1-3.2-4c-0.2-1.1-0.2-2.1-0.2-3.2c0-5.3,0-10.6,0-15.8c-0.2-1.2,0.3-2.3,1.2-3h-8.5
			c1.2,0.8,1,1.9,1,3c0,5.9,0,11.7,0,17.6c0,5.9,3.3,9.3,8.5,10.6c3.6,0.8,7.3,1.1,10.9,0.7c2.5-0.1,5-0.8,7.3-1.9
			c2.7-1.3,4.6-3.8,5.1-6.7c0.2-1,0.3-2.1,0.3-3.2c0-5.7,0-11.3,0-17c0-1.1-0.2-2.3,1.2-3.1C156.9,152.5,153.9,152.5,151,152.8z"/>
		<path d="M236.5,184h8.5c-0.9-1.1-1.7-2.3-2.1-3.7l-11.6-24.8c-0.5-1-1.1-2,0.1-2.9h-9.5c1.2,0.7,0.8,1.5,0.4,2.4
			c-3.4,7.8-6.8,15.6-10.3,23.3c-0.6,2.1-1.8,4-3.4,5.6h7.9c-0.6-0.7-0.6-1.8,0-2.5c0.7-1.5,1.4-3,2.1-4.6c0.3-0.8,1.1-1.4,1.9-1.2
			c4.1,0,8.1,0,12.2,0c0.8-0.1,1.6,0.4,1.8,1.1c0.7,1.7,1.4,3.3,2.1,4.9C237.1,182.6,237.4,183.3,236.5,184z M221.3,170.9l5-11.4
			l5.2,11.4H221.3z"/>
		<path d="M197.5,176.9c-0.8,0.6-1.7,1-2.6,1.4c-3.5,1.3-7.2,1.6-10.8,0.8c-5.9-1.1-10.4-5.6-8.9-13.6c0.3-1.9,1.3-3.5,2.7-4.8
			c1.9-1.8,4.4-2.9,7-3.3c3.7-0.3,7.3,0.2,10.8,1.4c1.8,0.3,3.2,1.7,3.5,3.6l4.4-7c-1.7,0.5-2.9-0.4-4.1-0.9
			c-5.1-2.2-10.8-2.8-16.3-1.8c-3.8,0.6-7.3,2.3-10.1,4.9c-6,6-6.1,15.8-0.1,21.8c1.2,1.3,2.7,2.3,4.3,3c7.5,3.6,16.2,3.2,23.3-1.1
			l3.5-2.1l-4.2-5.8C199.6,174.8,198.8,176.1,197.5,176.9z"/>
		<path d="M116.3,179.1c-5.7,0-11.5,0-17.2,0c-1.7,0-1.5,0-1.5-1.5c0-7.5,0-14.9,0-22.4c-0.1-1,0.3-2,1.2-2.5h-8.2
			c1,0.8,0.8,1.8,0.8,2.8c0,8.5,0,17,0,25.6c0.2,1.1-0.1,2.3-0.8,3.1h25.7c1.2,0,2.4-0.2,3.4,1.1v-7.5
			C118.9,178.8,117.6,179.3,116.3,179.1z"/>
	</g>
</g>
</svg>
