<?xml version="1.0" encoding="utf-8"?>
<!-- Generator: Adobe Illustrator 21.1.0, SVG Export Plug-In . SVG Version: 6.00 Build 0)  -->
<svg version="1.1" id="Layer_1" xmlns="http://www.w3.org/2000/svg" xmlns:xlink="http://www.w3.org/1999/xlink" x="0px" y="0px"
	 viewBox="0 0 250 250" style="enable-background:new 0 0 250 250;" xml:space="preserve">
<style type="text/css">
	.st0{fill:#EC2224;}
	.st1{fill:#DBA80E;}
	.st2{fill:#E7473D;}
	.st3{fill:#FFFFFF;}
	.st4{fill:#290000;}
</style>
<title>Grocery</title>
<ellipse class="st0" cx="124.7" cy="125.7" rx="119.1" ry="42.9"/>
<path class="st1" d="M124.7,169.5c-15.6,0-31.1-1.1-46.5-3.4c-7.1-1.1-13.9-2.4-20.3-4c-6-1.4-11.9-3.2-17.7-5.3
	c-5-1.8-9.9-3.9-14.7-6.4c-4-2.1-7.7-4.5-11.1-7.4c-2.8-2.3-5.3-5.1-7.1-8.3c-3.4-5.6-3.4-12.6,0-18.1c1.9-3.2,4.3-6,7.1-8.3
	c3.4-2.9,7.2-5.3,11.1-7.4c4.7-2.5,9.6-4.6,14.7-6.4c5.8-2.1,11.7-3.8,17.7-5.3c6.4-1.6,13.2-2.9,20.3-4c30.8-4.5,62.2-4.5,93,0
	c7.1,1.1,13.9,2.4,20.3,4c6,1.4,11.9,3.2,17.7,5.3c5,1.8,9.9,3.9,14.7,6.4c4,2.1,7.7,4.5,11.1,7.4c2.8,2.3,5.3,5.1,7.1,8.3
	c3.4,5.6,3.4,12.6,0,18.1c-1.9,3.2-4.3,6-7.1,8.3c-3.4,2.9-7.2,5.3-11.1,7.4c-4.7,2.5-9.6,4.6-14.7,6.4c-5.8,2.1-11.7,3.8-17.7,5.3
	c-6.4,1.6-13.2,2.9-20.3,4C155.8,168.4,140.2,169.5,124.7,169.5z M124.7,83.7c-31.7,0-61.5,4.4-84,12.5
	c-10.8,3.9-19.3,8.4-25.3,13.5c-5.9,5-9.1,10.5-9.1,16c0,5.5,3.1,10.9,9.1,16c6,5.1,14.4,9.6,25.3,13.5c22.4,8,52.2,12.5,84,12.5
	s61.5-4.4,84-12.5c10.8-3.9,19.3-8.4,25.3-13.5c5.9-5,9.1-10.5,9.1-16c0-5.5-3.1-10.9-9.1-16c-6-5.1-14.4-9.6-25.3-13.5
	C186.2,88.2,156.4,83.7,124.7,83.7z"/>
<path class="st2" d="M76,111.1L76,111.1C76,111,76,111,76,111.1L76,111.1c-0.1-0.2-0.1-0.2-0.2-0.2l-0.1-0.1
	c-0.7-0.9-1.5-1.7-2.3-2.4c-0.4-0.3-0.8-0.7-1.2-1c-0.1-0.1-0.1-0.2,0-0.3c0.5-0.1,0.9-0.4,1.4-0.4c0.1,0,0.2,0,0.3,0
	c0.6-0.2,1.1-0.4,1.7-0.5c0.5-0.1,0.9-0.2,1.3-0.4c0.1,0,0.2,0,0.3,0c0.1,0,0.3,0,0.3-0.1s0.3-0.2,0.5-0.2h0.6c0.2,0,0.3,0,0.4-0.2
	s0.2-0.1,0.3-0.1h0.5c0.2,0,0.4,0,0.5-0.2s0.2-0.1,0.3-0.1h0.8c0.1,0,0.2,0,0.3-0.1s0.3-0.2,0.5-0.2h0.6c0.1,0,0.2,0,0.2-0.1
	c0-0.1,0.2-0.2,0.4-0.2h0.7c0.1,0,0.3,0,0.3-0.2c0-0.2,0.2-0.2,0.3-0.2h1.3c0.2,0,0.3,0,0.4-0.2s0.2-0.1,0.3-0.1h0.6
	c0.2,0,0.5,0,0.6-0.3c0-0.1,0.1-0.1,0.2-0.1h0.4c0.2,0,0.5,0,0.7-0.2c0.2-0.2,0.5-0.2,0.7-0.2c0.2,0,0.4,0,0.6-0.1
	c0.1-0.1,0.2-0.1,0.3-0.1c0.6-0.1,1.2-0.4,1.9-0.4c0.3,0,0.4-0.2,0.7-0.3c0.7-0.1,1.3-0.3,2-0.5c0.1,0,0.3-0.1,0.4-0.1
	c0.3-0.1,0.7-0.2,1-0.2l1.7-0.4l0.6-0.2c0.3,0,0.6-0.1,0.8-0.2c0.2-0.1,0.4-0.2,0.6-0.1c0.3,0,0.6-0.1,0.8-0.3
	c0.1-0.1,0.3-0.2,0.4-0.1h0.4c0.2,0,0.4,0,0.6-0.2c0.1-0.1,0.2-0.2,0.4-0.1h0.8c0.2,0,0.3,0,0.5-0.1c0.2-0.2,0.4-0.2,0.7-0.2
	c0.3,0,0.5,0,0.8-0.2c0.2-0.1,0.5-0.2,0.8-0.2c0.3,0,0.5,0,0.7-0.2c0.2-0.1,0.4-0.2,0.6-0.2c0.5,0,0.9-0.1,1.3-0.3
	c0.4-0.1,0.9-0.1,1.3-0.3c0.3-0.1,0.6-0.2,0.9-0.1c0.2,0,0.4,0,0.6-0.1c0.1-0.1,0.3-0.1,0.5-0.1c0.5-0.1,1-0.2,1.5-0.4
	c0.4-0.2,0.9-0.4,1.3-0.4c0.3,0,0.5-0.3,0.6-0.5c0-0.2-0.3-0.3-0.4-0.4c-0.1-0.1-0.1-0.1-0.2-0.1c-0.9-0.2-1.7-0.3-2.6-0.4
	c-0.3,0-0.6,0-0.9-0.1c-0.2-0.1-0.4-0.1-0.6,0c-0.1,0-0.2,0-0.3,0c-0.8-0.1-1.6-0.1-2.4-0.1c-1.3-0.1-2.6,0-3.9,0s-2.6,0-3.9,0
	c-0.1,0-0.3,0-0.4,0c-0.7,0.1-1.4,0.2-2.1,0.2c-1.1,0-2.1,0.1-3.1,0.1c-0.2,0-0.4,0-0.5,0.1c-0.3,0.1-0.6,0.1-1,0.1
	c-0.7,0.1-1.3,0-2,0.1c-0.1,0-0.2,0-0.3,0c-0.4,0.2-0.9,0.2-1.3,0.2c-0.1,0-0.3,0-0.4,0c-0.7,0-1.3,0.1-2,0.3l0,0
	c-0.8,0.1-1.6,0.1-2.4,0.1c-0.3-0.1-0.7,0-1,0.2c-0.1,0-0.1,0-0.2,0c-0.5,0-0.9,0.1-1.3,0.1c-0.2,0-0.4,0-0.6,0.2
	c-0.1,0.2-0.2,0.1-0.4,0.1h-1.2c-0.1,0-0.3,0-0.3,0.1c0,0.1-0.2,0.2-0.3,0.2h-1.2c-0.1,0-0.3,0-0.3,0.1s-0.2,0.2-0.4,0.2h-1.3
	c-0.1,0-0.3,0-0.3,0.1c0,0.1-0.2,0.2-0.4,0.2H75c-0.1,0-0.3,0-0.3,0.1s-0.2,0.2-0.4,0.2h-1.2c-0.1,0-0.3,0-0.3,0.1
	c0,0.1-0.2,0.2-0.3,0.2h-1c-0.1,0-0.3,0-0.3,0.1s-0.2,0.2-0.3,0.2h-1c-0.1,0-0.3,0-0.3,0.1c0,0.1-0.2,0.2-0.3,0.2h-0.7
	c-0.2,0-0.3,0-0.4,0.2c0,0.2-0.1,0.1-0.2,0.1H67c-0.1,0-0.3,0-0.3,0.1c-0.1,0.1-0.3,0.2-0.5,0.2c-0.3,0-0.6,0-0.8,0.2
	c-0.2,0.1-0.4,0.2-0.6,0.2c-0.3,0-0.5,0-0.8,0.2c-0.2,0.1-0.4,0.2-0.7,0.2c-0.3,0-0.6,0-0.8,0.2c-0.2,0.1-0.4,0.2-0.6,0.2
	c-0.3,0-0.6,0.1-0.8,0.3c-0.1,0.1-0.2,0.1-0.3,0.1c-0.1,0-0.2,0-0.3,0c-0.6,0.2-1.2,0.3-1.8,0.5c-0.2,0.3-0.6,0.2-0.9,0.3
	c-0.4,0.2-0.9,0.3-1.3,0.4c-0.2,0-0.3,0.1-0.5,0.1c-0.6,0-1.2,0-1.7,0.1c-1.9,0.2-3.8,0.6-5.7,1.2c-2.1,0.6-4.1,1.5-6,2.6
	c-1.8,1-3.3,2.3-4.5,4c0,0.1-0.1,0.2-0.2,0.2s-0.3,0.4-0.6,0.4c-0.2,0.4-0.7,0.7-1,1.1c-0.3,0.3-0.5,0.7-0.7,1
	c-0.1,0.2-0.2,0.4-0.2,0.6c0,0.1,0,0.3,0,0.4c-0.1,0.5,0.1,1.1,0.4,1.5c0.3,0.4,0.7,0.6,1.2,0.8c0.2,0.1,0.3,0.2,0.4,0.4
	c0.6,1.8,1.9,3.4,3.5,4.4c0,0-0.1,0.1,0,0.1l0,0c0,0,0,0.1,0,0.1c0.4,0.6,0.8,1.1,1.3,1.5c0.6,0.5,1.3,1,2,1.3
	c2.3,1.1,4.8,1.5,7.4,1.3l-3.4,6c-0.1,0.2-0.2,0.2-0.4,0.2l-0.3-0.1l-8.2-2.3c-0.5-0.1-0.4-0.1-0.6,0.3l-2.3,4.1l-0.4,0.7l0.8,0.5
	c0.7,0.4,1.5,0.8,2.3,1.1c-0.1,0.3-0.3,0.5-0.4,0.8c-0.1,0.3-0.1,0.3,0.1,0.3l1,0.5c2.3,1.2,4.8,2.1,7.3,2.8
	c2.3,0.6,4.6,1.1,6.9,1.4c1.1,0.2,2.3,0.3,3.4,0.4c2.2,0.1,4.4,0,6.6-0.4c2.2-0.3,4.3-0.9,6.4-1.7c1.4-0.6,2.7-1.2,4-2.1
	c0.2,0,0.3,0,0.5,0h3.4l-1.3,2.5c0.1,0.1,0.1,0.1,0.2,0.1h6.8c0.2,0,0.4-0.1,0.5-0.3c0.5-1.1,1.1-2.1,1.6-3.2l3-5.6
	c0.1,1,0.3,1.9,0.7,2.8c0.6,1.2,1.5,2.2,2.7,2.8c0,0,0,0.1,0.1,0.1l0,0c0,0.2,0.1,0.3,0.2,0.4c0.7,1.2,1.9,2.1,3.2,2.5
	c2,0.6,4,0.6,6,0.1c0.8-0.2,1.5-0.5,2.1-0.9c0.5-0.3,0.9-0.8,1.1-1.3h1.9l-1.3,2.6h0.2h6.9c0.2,0,0.3-0.1,0.4-0.3l1.3-2.7
	c1.7-3.3,3.3-6.5,4.9-9.8c0.6-1.3,1.9-2.1,3.3-2l-0.1,0.2l-2.7,5.3c-0.1,0.2-0.2,0.3-0.2,0.5c-0.2,0.8-0.4,1.6-0.3,2.4
	c-0.1,1.8,1.1,3.5,2.9,4c0,0.2,0,0.3,0.1,0.5c0.4,0.9,1.1,1.6,2,2c0.7,0.3,1.5,0.5,2.3,0.5c1.6,0.1,3.1-0.2,4.6-0.8
	c2.9-1.2,5.5-2.9,7.7-5c1-1,2-2,2.8-3.2c0.1,0.8,0.3,1.6,0.7,2.3c0.6,1.2,1.5,2.2,2.7,2.8c0,0,0,0.1,0.1,0.1l0,0
	c-0.1,0.2,0.1,0.3,0.2,0.5c0.9,1.4,2.4,2.4,4.1,2.7c1.5,0.3,3,0.3,4.5,0c0.8-0.1,1.7-0.4,2.4-0.9c0.6-0.3,1.1-0.9,1.3-1.5
	c0.7,0,1.4,0,2.1,0l-1.3,2.6h0.5c2.2,0,4.3,0,6.5,0c0.3,0,0.6-0.1,0.7-0.4c0.8-1.6,1.6-3.3,2.5-4.9l3.7-7.4c0.3-0.6,0.7-1.1,1.2-1.5
	c0.1-0.1,0.2-0.2,0.4-0.2s0,0.2-0.1,0.3c-0.3,0.5-0.6,1-0.9,1.6c-0.8,1.5-1.1,3.2-0.8,4.9c0.2,1.6,1.3,2.9,2.8,3.3
	c0,0.2,0.1,0.4,0.2,0.5c0.4,0.8,0.9,1.4,1.7,1.8c-0.7,0.3-1.4,0.6-2.1,0.7c-1.7,0.3-3.4,0.5-5.1,0.3c-0.4,0-0.6,0.1-0.7,0.5
	c0,0.1-0.1,0.2-0.1,0.3c-0.5,0.9-1,1.8-1.5,2.7c-0.3,0.6-0.7,1.2-1.1,1.8c-0.1,0.2-0.1,0.3,0.1,0.3l0.2,0.1c1,0.4,2.1,0.6,3.2,0.7
	l-0.8,1.5c-0.1,0.2-0.1,0.3,0.1,0.4c0.4,0.2,0.9,0.4,1.3,0.5c1,0.2,2,0.4,3.1,0.3c1.2,0,2.3-0.1,3.4-0.2c1.4-0.2,2.8-0.6,4.1-1.3
	c1.6-0.9,3.1-2,4.3-3.4c0.9-0.9,1.6-1.9,2.5-2.8c1-1.1,1.9-2.4,2.7-3.7c0.2-0.2,0.3-0.5,0.4-0.8l2.4-0.8c0,0.1-0.1,0.2-0.1,0.3
	l-1.8,3.1c0,0.1-0.2,0.2-0.1,0.3h0.1c2.1-0.3,4.1-1,6-1.9c1.2-0.6,2.4-1.3,3.6-2c-0.1,0.5-0.2,0.9-0.3,1.3c0,0.2,0,0.2,0.2,0.2h0.2
	c0.9,0,1.8,0,2.7-0.1c-0.1,0.8-0.4,1.5-0.5,2.3c-0.1,0.4-0.1,0.5,0.4,0.5h1.3c1.3,0,2.7-0.2,4-0.5c1.3-0.2,2.5-0.7,3.7-1.3
	c1.5-0.9,2.5-2.3,3-4c0.3-1,0.5-2,0.7-3c0.2-1.4,0.2-2.8,0.1-4.3c-0.2-1.5-0.6-3.1-1.1-4.5c-0.3-0.8-0.5-1.6-0.6-2.4
	c0-0.2-0.1-0.4-0.2-0.6c-0.2-0.7-1-1.2-1.8-0.9l-0.4,0.1c-0.1-0.3-0.2-0.6-0.2-0.9c0-0.4-0.1-0.8-0.3-1.1c-0.3-0.6-0.9-0.8-1.5-0.7
	l-0.4,0.1c-0.8,0.1-1.6-0.1-2.3-0.5c-0.2-0.1-0.3,0-0.3,0.1s-0.2,0.7-0.3,1c-0.4,1-0.8,2-1.3,2.9c-1.5,2.7-3.5,5.1-5.9,6.9
	c-1.6,1.3-3.3,2.4-5.1,3.2v-0.1c1.3-2.6,2.5-5.2,3.6-7.8c0.1-0.2,0.3-0.5,0.3-0.7c0.2-0.6,0-1.2-0.5-1.5c-0.2-0.1-0.4-0.2-0.6-0.3
	c-0.6-0.2-1.1-0.3-1.7-0.3l0.2-0.3c0.4-0.6,0.2-1.3-0.4-1.7c-0.1-0.1-0.2-0.1-0.3-0.1c-0.4-0.2-0.8-0.3-1.2-0.3
	c-3.3-0.4-6.6,0.1-9.7,1.5c-1.4,0.6-2.7,1.4-4,2.2c-0.3-0.3-0.7-0.5-1.1-0.6c-0.7-0.2-1.4-0.3-2.1-0.3c0.2-0.5,0.4-0.9,0.7-1.4
	c0.1-0.1,0.1-0.3,0-0.4c-0.2-0.2-0.5-0.3-0.7-0.4c-0.8-0.3-1.7-0.4-2.5-0.4c-0.9,0-1.7,0.4-2.3,1c-0.2,0.2-0.4,0.4-0.7,0.5
	c-0.4,0.2-0.9-0.1-1.1-0.5c0,0,0-0.1,0-0.1c0-0.2-0.1-0.4-0.1-0.6c-0.1-0.4-0.1-0.4-0.5-0.3l-2.4,0.6l-2.4,0.6c-0.1,0-0.3,0-0.3,0.3
	c0.1,1,0,2-0.3,2.9c-0.4,1.2-1,2.5-1.7,3.6c0-0.1,0-0.2,0-0.3c0-0.9-0.2-1.8-0.5-2.6c-0.4-1-1.3-1.7-2.3-2c-0.2-0.5-0.5-1-0.8-1.5
	c-0.8-0.9-2-1.4-3.2-1.4c-1.3-0.1-2.5,0.1-3.7,0.6c-2.2,0.8-4.1,2-5.8,3.6c-0.6,0.6-1.1,1.2-1.7,1.8l-0.1-0.4
	c-0.3-1.2-1.1-2.2-2.2-2.7c-0.1-0.1-0.3-0.1-0.5-0.1l-0.1-0.2c-0.4-1.1-1.3-2-2.4-2.4c-0.3-0.1-0.6-0.2-0.9-0.3l3.1-6.1H138l1.3-2.5
	c-0.1,0-0.2,0-0.2,0h-6.7c-0.3,0-0.3,0.1-0.4,0.3l-3.5,6.9l-2,4c-0.6-0.2-1.3-0.2-1.9-0.2l0.5-1c0.3-0.7,0.3-0.7-0.4-1.1l-0.2-0.1
	c-0.8-0.3-1.7-0.4-2.5-0.4c-0.9,0-1.7,0.4-2.3,1c-0.2,0.2-0.4,0.4-0.7,0.5c-0.4,0.2-0.9,0-1-0.4c0-0.1,0-0.1,0-0.2l-0.1-0.6
	c-0.1-0.4-0.1-0.4-0.5-0.3l-2.4,0.6l-2.4,0.6c-0.2,0-0.3,0.1-0.2,0.3c0.1,0.5,0.1,1,0,1.4c-0.3,1.6-0.9,3.1-1.7,4.4l-0.1-0.6
	c-0.1-0.6-0.3-1.2-0.6-1.8c-0.5-0.9-1.3-1.6-2.3-1.9l-0.1-0.2c-0.5-1.3-1.6-2.3-3-2.6c-1.3-0.3-2.6-0.2-3.8,0.2
	c-1.9,0.5-3.6,1.5-5.2,2.7c-0.1-0.1-0.3,0-0.5,0h-3.4c0.2-0.5,0.5-1,0.7-1.4l0.1,0.1c0.4,0.4,0.3,0.3,0.7,0.1l5.3-2.5
	c0.1,0,0.3-0.1,0.4-0.2c0-0.1-0.1-0.1-0.1-0.2l-2.3-2.3c-0.1-0.1-0.1-0.1-0.2-0.1c-0.1-0.1-0.1-0.2-0.2-0.3l-3.6-3.7
	c-0.3-0.3-0.3-0.3-0.6-0.1l-5.3,2.6c-0.1,0-0.2,0-0.3,0.2l0.2,0.2l3.7,3.7c0.1,0.1,0.1,0.2,0.3,0.2c0.1,0.1,0.1,0.2,0.3,0.3l0.7,0.7
	h-0.4c-1.6,0-3.1,0-4.7,0c-0.3,0-0.6,0.1-0.7,0.4c-1.1,2.2-2.3,4.4-3.4,6.7c0-1-0.1-2-0.3-2.9c-0.6-3.7-2.5-7.2-5.3-9.7
	c-0.1-0.1-0.2-0.2-0.3-0.2l0,0C76.1,111.1,76.1,111.1,76,111.1z"/>
<path class="st3" d="M39.5,135.8c-0.8-0.4-1.6-0.7-2.3-1.1l-0.8-0.5l0.4-0.7l2.3-4.1c0.2-0.4,0.1-0.4,0.6-0.3l8.2,2.3H48
	c0.2,0.1,0.3,0,0.4-0.2l3.4-5.9c0.3-0.5,0.6-1,0.9-1.6l2.4-4.2l0.3-0.5c1-1.8,2-3.6,3-5.3c0.1-0.2,0.3-0.4,0.6-0.3H66
	c0.1,0,0.2,0,0.3,0l-1.2,2.6c-0.1,0.1-0.2,0.2-0.2,0.4l-7.5,15.2l-0.5,0.9c1.4,0,2.7-0.1,4.1-0.4c0.6-0.1,1.3-0.2,1.9-0.4
	c1.8-0.4,3.6-1.2,5.2-2.2c2.5-1.6,4-4.3,4-7.3c0.1-2-0.4-4.1-1.3-5.9c-0.3-0.6-0.7-1.2-1-1.7c0-0.1-0.1-0.1-0.1-0.1l0,0
	c0-0.2-0.1-0.3-0.2-0.4c-0.9-1-1.9-1.9-3-2.6c-2.7-1.6-5.7-2.6-8.8-2.7c-2.8-0.2-5.7,0.1-8.4,0.8c-1.3,0.3-2.5,0.9-3.5,1.6
	c-0.5,0.3-0.9,0.8-1.2,1.3c-0.6,0.9-0.4,2,0.4,2.7c0.4,0.4,0.9,0.7,1.5,0.8c0.1,0,0.2,0.1,0.4,0.1c1,0.4,2,0.6,3.1,0.7
	c1.1,0.1,2.2,0.2,3.4,0.2c0.5,0,0.9,0,1.5,0l-1.2,2.4c-0.2,0.3-0.4,0.7-0.6,1.1c-0.3,0.7-0.8,1.2-1.5,1.5c-1.1,0.6-2.3,0.8-3.5,0.7
	c-0.7,0-1.3-0.1-2-0.2c-1.6-0.2-3.1-0.7-4.5-1.5c-0.1,0-0.2-0.1-0.3-0.1l0,0c0,0,0-0.1,0-0.1c0,0,0,0,0,0c-1.7-1-3-2.5-3.5-4.4
	c0-0.2-0.2-0.4-0.4-0.4c-0.5-0.2-0.9-0.5-1.2-0.8c-0.4-0.4-0.5-1-0.4-1.5c0-0.1,0-0.3,0-0.4c0-0.2,0.1-0.4,0.2-0.6
	c0.2-0.3,0.5-0.7,0.7-1c0.3-0.4,0.7-0.7,1-1.1c0.3,0,0.4-0.4,0.6-0.4c0.3-0.1,0.2-0.1,0.2-0.2c1.2-1.6,2.7-3,4.5-3.9
	c1.9-1.1,3.9-1.9,6-2.5c1.9-0.6,3.8-1,5.7-1.2c0.6-0.1,1.1-0.1,1.7-0.1c0.2,0,0.3-0.1,0.5-0.1c0.5-0.1,0.9-0.2,1.3-0.4
	c0.3-0.1,0.7,0,0.9-0.3c0.6-0.1,1.2-0.3,1.8-0.5c0.1,0,0.2,0,0.3,0c0.1,0,0.2,0,0.3-0.1c0.2-0.2,0.5-0.3,0.8-0.3
	c0.2,0,0.4,0,0.6-0.2c0.3-0.1,0.5-0.2,0.8-0.2c0.2,0,0.5-0.1,0.7-0.2c0.2-0.1,0.5-0.2,0.8-0.2c0.2,0,0.4,0,0.6-0.2
	c0.2-0.2,0.5-0.2,0.8-0.2c0.2,0,0.4,0,0.5-0.2s0.2-0.1,0.3-0.1h0.9c0.1,0,0.2,0,0.2-0.1c0-0.1,0.2-0.2,0.4-0.2h0.7
	c0.1,0,0.3,0,0.3-0.2s0.2-0.1,0.3-0.1h1c0.1,0,0.3,0,0.3-0.2s0.2-0.1,0.3-0.1h1c0.1,0,0.3,0,0.3-0.2S73,98,73.1,98h1.1
	c0.2,0,0.3,0,0.4-0.2c0.1-0.2,0.2-0.1,0.3-0.1h1.3c0.2,0,0.3,0,0.4-0.2s0.2-0.1,0.3-0.1h1.3c0.2,0,0.3,0,0.4-0.2s0.2-0.1,0.3-0.1
	h1.2c0.1,0,0.3,0,0.3-0.2c0-0.2,0.2-0.1,0.3-0.1h1.2c0.1,0,0.3,0,0.4-0.1c0.1-0.1,0.3-0.2,0.6-0.2c0.5,0,0.9-0.1,1.3-0.1
	c0.1,0,0.1,0,0.2,0c0.3-0.2,0.6-0.3,1-0.2c0.8,0,1.6,0,2.4-0.1l0,0c0.6-0.2,1.3-0.3,2-0.3c0.1,0,0.3,0,0.4,0c0.5,0,0.9,0,1.3-0.2
	c0.1,0,0.2,0,0.3,0c0.7,0,1.3,0,2-0.1c0.3,0,0.7-0.1,1-0.1c0.2-0.1,0.4-0.1,0.5-0.1c1.1,0,2.1-0.1,3.1-0.1c0.7,0,1.4,0,2.1-0.2
	c0.1,0,0.3,0,0.4,0c1.3,0,2.6,0,3.9,0c1.3,0,2.7,0,3.9,0c0.8,0,1.6,0,2.4,0.1c0.1,0,0.2,0,0.3,0c0.2-0.1,0.4-0.1,0.6,0
	c0.3,0.1,0.6,0.1,0.9,0.1c0.9,0.1,1.7,0.2,2.6,0.4c0.1,0,0.2,0.1,0.2,0.1c0.2,0.1,0.5,0.2,0.4,0.4c-0.1,0.3-0.3,0.5-0.6,0.5
	c-0.5,0.1-0.9,0.2-1.3,0.4c-0.5,0.2-1,0.3-1.5,0.4c-0.2,0-0.3,0.1-0.5,0.1c-0.2,0.1-0.4,0.1-0.6,0.1c-0.3,0-0.6,0-0.9,0.1
	c-0.4,0.2-0.9,0.1-1.3,0.3c-0.4,0.2-0.9,0.3-1.3,0.3c-0.2,0-0.4,0.1-0.6,0.2c-0.2,0.1-0.5,0.2-0.7,0.2c-0.3,0-0.5,0-0.8,0.2
	s-0.5,0.2-0.8,0.2c-0.2,0-0.5,0-0.7,0.2c-0.1,0.1-0.3,0.2-0.5,0.1H103c-0.1,0-0.3,0-0.4,0.1c-0.1,0.2-0.4,0.3-0.6,0.2h-0.4
	c-0.2,0-0.3,0-0.4,0.1c-0.2,0.2-0.5,0.3-0.8,0.3c-0.2,0-0.4,0-0.6,0.1c-0.3,0.1-0.5,0.2-0.8,0.2l-0.6,0.2l-1.7,0.4
	c-0.3,0.1-0.7,0.1-1,0.2c-0.1,0.1-0.3,0.1-0.4,0.1c-0.6,0.2-1.3,0.3-2,0.5c-0.2,0-0.4,0.2-0.7,0.3c-0.7,0-1.2,0.3-1.9,0.4
	c-0.1,0-0.2,0.1-0.3,0.1c-0.2,0.1-0.4,0.2-0.6,0.1c-0.3,0-0.5,0.1-0.7,0.2c-0.2,0.2-0.4,0.2-0.7,0.2H88c-0.1,0-0.2,0-0.2,0.1
	c-0.1,0.3-0.3,0.2-0.6,0.3h-0.5c-0.1,0-0.3,0-0.3,0.1s-0.2,0.2-0.4,0.2h-1.3c-0.1,0-0.3,0-0.3,0.2c0,0.2-0.2,0.2-0.3,0.2h-0.7
	c-0.2,0-0.4,0-0.4,0.2s-0.1,0.1-0.2,0.1h-0.6c-0.2,0-0.4,0-0.5,0.2s-0.2,0.1-0.3,0.1h-0.8c-0.1,0-0.2,0-0.3,0.1s-0.3,0.2-0.5,0.2
	h-0.5c-0.1,0-0.2,0-0.3,0.1c0,0.1-0.2,0.2-0.4,0.2h-0.6c-0.2,0-0.4,0-0.5,0.2s-0.2,0.1-0.3,0.1c-0.1,0-0.2,0-0.3,0
	c-0.4,0.2-0.9,0.3-1.3,0.4c-0.6,0.1-1.2,0.3-1.7,0.5c-0.1,0-0.2,0-0.3,0c-0.5,0-0.9,0.3-1.4,0.4c-0.2,0-0.2,0.1,0,0.3
	c0.4,0.3,0.8,0.7,1.2,1c0.8,0.7,1.6,1.6,2.3,2.4l0.1,0.1c0,0,0,0.1,0.1,0.1l0,0c0,0.1,0,0.1,0.1,0.1l0,0c0,0.1,0,0.1,0.1,0.1l0,0
	c-0.1,0.2,0.1,0.2,0.1,0.3c0.6,0.9,1.2,1.9,1.6,2.9c1,2.3,1.5,4.8,1.5,7.3c0,1.5-0.1,3.1-0.5,4.5c-0.8,3.3-2.8,6.2-5.5,8.2
	c-2.3,1.6-4.9,2.8-7.7,3.5c-2.3,0.7-4.6,1.1-7,1.2c-1.5,0.1-3.1,0.1-4.6,0c-1.3-0.1-2.7-0.3-4-0.6c-2.5-0.4-4.9-1-7.4-1.8
	C41.6,136.6,40.5,136.2,39.5,135.8z"/>
<path class="st3" d="M180.7,119.9c1.3-0.9,2.6-1.6,4-2.2c3-1.3,6.4-1.9,9.7-1.5c0.4,0.1,0.8,0.2,1.2,0.3c0.6,0.2,1,0.9,0.8,1.5
	c0,0.1-0.1,0.2-0.1,0.3l-0.2,0.3c0,0.1-0.1,0.3-0.2,0.4c-1.8,4.1-3.7,8.1-5.8,12c-0.9,1.7-1.8,3.3-2.9,4.9c-1.5,2-3.1,4-4.9,5.7
	c-1,1.1-2.3,2-3.6,2.7c-1.9,0.9-3.9,1.4-6,1.4c-0.8,0-1.6,0-2.4,0H170c-1.1-0.1-2.2-0.3-3.2-0.7l-0.2-0.1c-0.2,0-0.2-0.2-0.1-0.3
	c0.4-0.6,0.7-1.1,1.1-1.8c0.5-0.9,1-1.8,1.5-2.7c0.1-0.1,0.1-0.2,0.1-0.3c0.1-0.4,0.3-0.5,0.7-0.5c1.7,0.1,3.4,0,5.1-0.3
	c0.7-0.1,1.4-0.4,2.1-0.7c0.9-0.4,1.7-1,2.3-1.7c0.7-0.9,1.3-1.7,1.9-2.7c0.3-0.4,0.6-0.9,0.8-1.3c0.6-0.9,1.2-1.9,1.7-2.8
	c0,0,0-0.1,0-0.1l0,0c0.1,0,0.1,0,0.1-0.1c0-0.1,0.1-0.2,0.2-0.3c1.1-1.9,2.2-3.8,3.2-5.7c0.1-0.1,0.1-0.2,0.1-0.3
	c-0.1,0-0.2,0-0.3,0.1c-1.5,0.8-3,1.6-4.5,2.5c-0.9,0.5-1.7,1.2-2.4,1.9c-0.4,0.4-0.7,0.8-0.9,1.3c-0.2,0.5-0.1,1.1,0.4,1.5
	c0.3,0.2,0.7,0.4,1.1,0.6c0.2,0,0.3,0,0.5,0.2c0,0,0,0.1,0,0.1l-2.9,4.5c-0.1,0.1-0.2,0.2-0.4,0.2c-1,0.1-1.9,0.1-2.9-0.2
	c-1.5-0.5-2.6-1.8-2.8-3.3c-0.2-1.7,0-3.4,0.8-4.9c0.3-0.5,0.6-1.1,0.9-1.6c0-0.1,0.2-0.2,0.1-0.3l0,0c0.1,0,0.1,0,0.2-0.1l0.2-0.2
	c1.1-1.5,2.3-2.8,3.7-4C179.1,121,179.9,120.5,180.7,119.9z"/>
<path class="st3" d="M138.8,116.6c0.3,0.1,0.6,0.2,0.9,0.3c1.1,0.4,2,1.3,2.4,2.4l0.1,0.2c0,0.3,0.1,0.5,0.1,0.8
	c0.1,0.6,0.1,1.3,0,1.9c0,0.6-0.1,1.2-0.2,1.8c-0.4,1.6-1.1,3.2-2,4.6c-1.5,2.3-3.5,4.4-5.7,6.1c-1.9,1.5-4,2.6-6.3,3.3
	c-1.7,0.6-3.6,0.6-5.3,0.1c-1.8-0.5-2.9-2.2-2.9-4c0-0.8,0.1-1.6,0.3-2.3c0.1-0.2,0.1-0.4,0.2-0.5l2.7-5.3l0.1-0.2
	c0.7-1.3,1.4-2.8,2.1-4.1c0.4-0.8,0.8-1.5,1.1-2.3l2.1-4.1l3.5-6.9c0.1-0.2,0.2-0.3,0.4-0.3h6.7c0.1,0,0.2,0,0.2,0l-1.3,2.5
	l-1.5,2.9l-8.8,17.3c-0.1,0.1-0.1,0.3-0.2,0.4c0.5,0,0.9,0,1.3-0.2c1.5-0.6,2.9-1.5,4-2.7c0,0,0.1,0,0.1-0.2l0,0
	c0.1,0,0.1-0.1,0.2-0.1c0.5-0.5,1-1.1,1.5-1.7c0.3-0.4,0.5-0.8,0.7-1.2c0.2-0.5,0.2-1.1-0.1-1.5c-0.1-0.2-0.4-0.4-0.6-0.4l-0.5-0.1
	c-0.2,0-0.4-0.2-0.3-0.4c0-0.1,0-0.3,0-0.4c0.1-0.7,0.3-1.4,0.7-2c0.7-1.3,1.6-2.4,2.7-3.5c0.1-0.1,0.3-0.2,0.4-0.2
	C138,116.5,138.4,116.5,138.8,116.6z"/>
<path class="st3" d="M194.9,129.4c1.8-0.9,3.5-2,5.1-3.2c2.4-1.9,4.5-4.3,5.9-6.9c0.5-0.9,1-1.9,1.3-2.9c0.1-0.3,0.2-0.6,0.3-1
	c0.1-0.3,0.1-0.3,0.3-0.1c0.7,0.4,1.5,0.5,2.3,0.5l0.4-0.1c0.6-0.2,1.2,0.1,1.5,0.7c0.2,0.3,0.3,0.7,0.3,1.1c0,0.3,0.1,0.6,0.2,0.9
	c0.2,0.8,0.4,1.5,0.7,2.2c1.2,3.6,1.2,7.4,0,10.9c-0.4,1.3-1.1,2.5-2.1,3.3c-0.9,0.7-1.8,1.2-2.9,1.5c-1.4,0.4-2.8,0.7-4.2,0.8
	c-0.9,0-1.8,0.1-2.7,0.1h-0.2c-0.2,0-0.2,0-0.2-0.2c0.1-0.4,0.2-0.9,0.3-1.3c0.2-0.9,0.4-1.9,0.6-2.8c0.1-0.5,0.1-0.5,0.6-0.5h0.1
	c1.1-0.1,2.1-0.3,3.1-0.8c1.4-0.6,2.5-1.8,2.9-3.3c0.3-0.9,0.3-1.9,0.2-2.9c0-0.3-0.1-0.6-0.2-0.8c-4.1,4.8-9.3,8.6-15,11.1
	l-2.4,0.8h-0.3c-0.6,0.2-1.3,0.3-1.9,0.4l0.1-0.2l3.3-5.8c0.1-0.2,0.2-0.3,0.4-0.3C193.5,130.1,194.2,129.8,194.9,129.4z"/>
<path class="st3" d="M145.5,137.1c-1.2-0.6-2.1-1.6-2.7-2.8c-0.3-0.7-0.6-1.5-0.7-2.3c0-0.3,0-0.5-0.1-0.8c-0.1-2.2,0.4-4.4,1.4-6.3
	c0.4-0.8,0.9-1.5,1.4-2.3c0.5-0.6,1.1-1.3,1.7-1.8c1.6-1.6,3.6-2.8,5.8-3.6c1.2-0.4,2.5-0.6,3.7-0.6c1.2,0,2.4,0.5,3.2,1.4
	c0.4,0.4,0.6,0.9,0.8,1.5c0.2,0.9,0.3,1.9,0.3,2.8c0,1.5-0.5,3-1.5,4.2c-1,1.2-2.2,2.2-3.6,2.8c-1,0.5-2,0.8-3.1,1.1
	c-0.7,0.1-1.5,0.3-2.2,0.4c-0.3,0-0.7,0-1,0c0,0,0-0.1,0-0.1c0.3-1.5,0.6-2.9,1-4.3c0-0.2,0.1-0.2,0.3-0.2c0.6-0.1,1.2-0.3,1.8-0.6
	c1.2-0.7,2.2-1.9,2.8-3.2c0.1-0.2,0.2-0.4,0.2-0.6c0.1-0.5,0-0.6-0.5-0.5c-0.5,0.1-1,0.3-1.4,0.5c-2.1,1.2-3.9,3-5.1,5.2
	c-0.6,1-0.7,2.1-0.5,3.3c0.2,1.3,1.3,2.4,2.6,2.5c0.7,0.1,1.3,0.2,2,0.1c1.8-0.1,3.6-0.5,5.3-1.1l-0.3,0.5l-1.6,3.1
	c-0.7,1.1-1.8,2-3.1,2.2c-0.6,0.2-1.2,0.3-1.9,0.3c-1.2,0.1-2.3,0-3.5-0.2c-0.5-0.1-1-0.3-1.5-0.5l0,0
	C145.7,137.1,145.6,137.1,145.5,137.1z"/>
<path class="st3" d="M95.4,119.4c1.5-1.2,3.3-2.1,5.2-2.7c1.2-0.4,2.5-0.4,3.8-0.2c1.4,0.3,2.5,1.3,3,2.6l0.1,0.2c0.3,1,0.4,2,0.3,3
	c-0.1,1.6-0.6,3-1.6,4.2c-1.1,1.3-2.5,2.2-4,2.8c-0.8,0.4-1.7,0.6-2.5,0.9c-0.8,0.3-1.5,0.3-2.2,0.4c-0.3,0-0.7,0-1,0l1-4.5
	c0-0.1,0.1-0.3,0.3-0.3c0,0,0,0,0,0c0.5,0,1.1-0.2,1.6-0.5c1.4-0.8,2.5-2,3.1-3.4c0.1-0.2,0.1-0.4,0.2-0.6c0-0.4-0.1-0.5-0.5-0.5
	c-0.6,0.1-1.1,0.3-1.6,0.6c-2,1.2-3.7,2.9-4.9,4.9c-0.6,0.9-0.8,2-0.6,3.1c0.1,1.5,1.2,2.7,2.7,2.8c0.7,0.1,1.4,0.2,2.1,0.1
	c1.8-0.1,3.5-0.5,5.2-1.1c0,0.2-0.1,0.3-0.1,0.4l0,0c-0.1,0-0.1,0-0.1,0.1c0,0.1-0.2,0.4-0.3,0.6c-0.4,0.8-0.9,1.6-1.3,2.5
	c-0.7,1.2-1.9,2-3.2,2.3c-1.3,0.3-2.6,0.4-3.9,0.3c-0.9-0.1-1.8-0.3-2.7-0.7c-0.1,0-0.1,0-0.2,0l0,0c0-0.1,0-0.1-0.1-0.1
	c-1.2-0.6-2.2-1.6-2.7-2.8c-0.4-0.9-0.6-1.8-0.7-2.8c-0.1-1,0-2.1,0.2-3.1c0.4-1.8,1.1-3.5,2.2-5C92.8,121.8,94,120.5,95.4,119.4z"
	/>
<path class="st3" d="M160.2,137.9c-0.7,0-1.4,0-2.1,0h-1.7l1.4-2.9l1.9-3.7c0-0.1,0.1-0.1,0-0.2l0,0c0.1,0,0.1,0,0.1-0.1
	c0.1-0.1,0.2-0.2,0.2-0.4l2.4-4.8l0.6-1.2c0.7-1.1,1.2-2.4,1.7-3.6c0.3-0.9,0.5-1.9,0.3-2.9c0-0.2,0.1-0.2,0.3-0.3l2.4-0.6l2.4-0.6
	c0.4-0.1,0.4-0.1,0.5,0.3c0.1,0.2,0.1,0.4,0.1,0.6c0.1,0.4,0.5,0.7,1,0.6c0,0,0.1,0,0.1,0c0.3-0.1,0.5-0.2,0.7-0.5
	c0.6-0.7,1.4-1,2.3-1c0.9-0.1,1.7,0.1,2.5,0.4c0.3,0.1,0.5,0.3,0.7,0.4c0.1,0.1,0.1,0.3,0,0.4c-0.2,0.5-0.5,0.9-0.7,1.4
	c-0.1,0.2-0.2,0.3-0.3,0.5l-1.7,3.6c-0.1,0.3-0.2,0.3-0.5,0.2c-0.7-0.3-1.5-0.3-2.2-0.2c-1.1,0.2-2.1,1-2.5,2
	c-2.1,4.1-4.2,8.2-6.2,12.4c-0.1,0.3-0.4,0.4-0.7,0.4C162.3,137.9,161.2,137.9,160.2,137.9z"/>
<path class="st3" d="M107.3,137.9h-3.9l1.4-2.9l1.1-2.2c0.3-0.6,0.6-1.2,0.8-1.7c0-0.1,0.1-0.2,0.2-0.3c0.9-1.7,1.7-3.4,2.5-5.1
	c0.3-0.6,0.6-1.2,0.9-1.8c0.8-1.3,1.4-2.8,1.7-4.4c0.1-0.5,0.1-1,0-1.4c0-0.2,0-0.3,0.2-0.3l2.4-0.6l2.4-0.6
	c0.4-0.1,0.4-0.1,0.5,0.3l0.1,0.6c0.1,0.4,0.5,0.7,0.9,0.6c0.1,0,0.1,0,0.2,0c0.3-0.1,0.5-0.2,0.7-0.5c0.6-0.7,1.4-1,2.3-1
	c0.9-0.1,1.7,0.1,2.5,0.4l0.2,0.1c0.7,0.3,0.7,0.4,0.4,1.1l-0.5,1l-2.2,4.4l-0.3-0.1c-0.8-0.3-1.7-0.3-2.5-0.1c-1,0.3-1.8,1-2.2,1.9
	c-2.1,4.1-4.2,8.3-6.2,12.4c-0.1,0.2-0.3,0.4-0.6,0.4C109.3,137.9,108.3,137.9,107.3,137.9z"/>
<path class="st3" d="M78.7,137.9h-3.4c-0.2,0-0.3,0-0.5,0c0.1-0.1,0.2-0.3,0.3-0.5l4.5-8.9l2.3-4.6c1.1-2.2,2.3-4.4,3.4-6.7
	c0.1-0.3,0.4-0.5,0.7-0.4c1.6,0,3.1,0,4.7,0h0.4c0.6,0.1,1.1,0,1.7,0.1c-0.1,0.4-0.4,0.7-0.5,1.1c-0.3,0.5-0.5,0.9-0.7,1.4l-0.2,0.3
	c-3,5.9-6.1,11.9-9.1,17.8c-0.1,0.2-0.3,0.4-0.6,0.4C80.7,137.9,79.7,137.9,78.7,137.9z"/>
<path class="st4" d="M81.9,123.9l-2.3,4.6l-4.5,8.9c-0.1,0.1-0.2,0.3-0.3,0.5c-1.3,0.8-2.6,1.5-4,2.1c-2.1,0.8-4.2,1.4-6.4,1.7
	c-2.2,0.4-4.4,0.5-6.6,0.4c-1.2-0.1-2.3-0.2-3.4-0.4c-2.3-0.3-4.7-0.8-6.9-1.4c-2.5-0.6-5-1.6-7.3-2.8l-1-0.5
	c-0.2-0.1-0.2-0.2-0.1-0.3c0.1-0.1,0.3-0.5,0.4-0.8c1.1,0.4,2.1,0.8,3.2,1.2c2.4,0.8,4.9,1.4,7.4,1.8c1.3,0.2,2.7,0.4,4,0.6
	c1.5,0.1,3.1,0.1,4.6,0c2.4-0.2,4.7-0.6,7-1.2c2.7-0.7,5.3-2,7.6-3.7c2.7-2,4.7-4.9,5.5-8.2c0.4-1.5,0.5-3,0.5-4.5
	c0-2.5-0.5-5-1.5-7.3c-0.4-1-1-2-1.6-2.9c0-0.1-0.2-0.2-0.1-0.3c0.1-0.2,0.2,0.1,0.3,0.2c2.8,2.5,4.6,5.9,5.3,9.6
	C81.8,121.9,81.9,122.9,81.9,123.9z"/>
<path class="st4" d="M194.9,129.4c-0.7,0.4-1.5,0.7-2.2,1c-0.2,0.1-0.3,0.2-0.4,0.3l-3.3,5.8l-0.1,0.2c0.6-0.1,1.3-0.2,1.9-0.4h0.3
	c-0.1,0.3-0.2,0.5-0.4,0.8c-0.8,1.3-1.7,2.5-2.7,3.7c-0.8,0.9-1.6,1.9-2.5,2.8c-1.2,1.4-2.7,2.5-4.3,3.4c-1.3,0.6-2.7,1.1-4.1,1.3
	c-1.1,0.2-2.3,0.3-3.4,0.2c-1,0-2.1-0.1-3.1-0.3c-0.5-0.1-0.9-0.3-1.3-0.5c-0.3-0.1-0.3-0.1-0.1-0.4l0.8-1.5h0.2
	c0.8,0.1,1.6,0.1,2.4,0c2.1-0.1,4.1-0.5,6-1.4c1.4-0.7,2.6-1.6,3.6-2.7c1.8-1.8,3.4-3.7,4.9-5.7c1.1-1.6,2-3.2,2.9-4.9
	c2.1-4,4-8,5.8-12c0-0.1,0.1-0.3,0.2-0.4c0.6,0,1.1,0.1,1.7,0.3c0.2,0.1,0.4,0.2,0.6,0.3c0.5,0.3,0.8,0.9,0.5,1.5
	c-0.1,0.3-0.2,0.5-0.3,0.7C197.3,124.2,196.1,126.8,194.9,129.4L194.9,129.4z"/>
<path class="st4" d="M107.3,137.9c1,0,2.1,0,3.1,0c0.3,0,0.5-0.1,0.6-0.4c2.1-4.1,4.2-8.3,6.2-12.4c0.4-0.9,1.2-1.6,2.2-1.9
	c0.8-0.2,1.7-0.2,2.5,0.1l0.3,0.1l2.2-4.4c0.7,0,1.3,0,1.9,0.2c-0.3,0.8-0.8,1.5-1.1,2.3c-0.7,1.3-1.4,2.8-2.1,4.1
	c-1.4-0.1-2.7,0.7-3.3,2c-1.7,3.3-3.3,6.5-4.9,9.8l-1.3,2.7c-0.1,0.2-0.2,0.3-0.4,0.3h-6.9H106L107.3,137.9z"/>
<path class="st4" d="M160.2,137.9c1,0,2,0,3.1,0c0.3,0,0.6-0.1,0.7-0.4c2.1-4.1,4.1-8.2,6.2-12.4c0.5-1,1.4-1.8,2.5-2
	c0.7-0.1,1.5-0.1,2.2,0.2c0.3,0.1,0.3,0.1,0.5-0.2l1.7-3.6c0.1-0.2,0.2-0.4,0.3-0.5c0.7,0,1.4,0.1,2.1,0.3c0.4,0.1,0.8,0.3,1.1,0.6
	c-0.8,0.6-1.5,1.1-2.3,1.8c-1.4,1.2-2.6,2.5-3.7,4l-0.2,0.2c-0.1,0-0.2,0-0.2,0.1l0,0c-0.2-0.1-0.3,0.1-0.4,0.2
	c-0.5,0.4-0.9,0.9-1.2,1.5l-3.7,7.4c-0.8,1.6-1.7,3.3-2.5,4.9c-0.1,0.3-0.4,0.4-0.7,0.4c-2.2,0-4.3,0-6.5,0h-0.5L160.2,137.9z"/>
<path class="st4" d="M144.9,122.6c-0.5,0.7-1,1.5-1.4,2.3c-1.1,1.9-1.5,4.1-1.4,6.3c0,0.3,0,0.5,0.1,0.8c-0.8,1.1-1.8,2.2-2.8,3.2
	c-2.2,2.2-4.8,3.9-7.7,5c-1.5,0.6-3,0.9-4.6,0.8c-0.8,0-1.5-0.2-2.3-0.5c-0.9-0.4-1.6-1.1-2-2c-0.1-0.1-0.1-0.3-0.1-0.5
	c1.8,0.5,3.6,0.4,5.3-0.1c2.3-0.7,4.4-1.9,6.3-3.3c2.3-1.7,4.2-3.7,5.7-6.1c0.9-1.4,1.6-3,2-4.6c0.1-0.6,0.2-1.2,0.2-1.8
	c0.1-0.6,0.1-1.3,0-1.9c0-0.3-0.1-0.5-0.1-0.8c0.2,0,0.3,0,0.5,0.1c1.1,0.5,1.9,1.5,2.2,2.7L144.9,122.6z"/>
<path class="st4" d="M204,137c1.4-0.1,2.8-0.4,4.2-0.8c1.1-0.3,2-0.8,2.9-1.5c1-0.9,1.8-2,2.1-3.3c1.2-3.6,1.2-7.4,0-10.9
	c-0.2-0.7-0.5-1.5-0.7-2.2l0.4-0.1c0.7-0.2,1.5,0.2,1.8,0.9c0.1,0.2,0.1,0.4,0.2,0.6c0.1,0.8,0.3,1.6,0.6,2.4c0.5,1.5,0.8,3,1.1,4.5
	c0.2,1.4,0.2,2.9-0.1,4.3c-0.1,1-0.4,2-0.7,3c-0.4,1.7-1.5,3.1-3,4c-1.1,0.7-2.4,1.1-3.7,1.3c-1.3,0.3-2.7,0.4-4,0.5h-1.3
	c-0.5,0-0.5,0-0.4-0.5C203.6,138.5,203.9,137.8,204,137z"/>
<path class="st4" d="M78.7,137.9c1,0,2.1,0,3.1,0c0.3,0,0.5-0.1,0.6-0.4c3-5.9,6.1-11.9,9.1-17.8l0.2-0.3h3.3c0.1,0,0.3,0,0.5,0
	c-1.4,1.1-2.6,2.3-3.6,3.7c-1.1,1.5-1.9,3.3-2.3,5.2c-0.2,1-0.3,2.1-0.2,3.1l-2.9,5.6c-0.5,1.1-1.1,2.1-1.6,3.2
	c-0.1,0.2-0.3,0.3-0.5,0.3h-6.8c-0.1,0-0.2,0-0.2-0.1L78.7,137.9z"/>
<path class="st4" d="M138.8,116.6c-0.4,0-0.9-0.1-1.3-0.1c-0.2,0-0.3,0.1-0.4,0.2c-1,1-1.9,2.2-2.7,3.5c-0.4,0.6-0.6,1.3-0.7,2
	c0,0.1,0,0.3,0,0.4c0,0.2,0.1,0.4,0.3,0.4l0.5,0.1c0.3,0.1,0.5,0.2,0.6,0.4l-0.1,0.3l-1.9,3.9c-0.1,0.1-0.2,0.3-0.2,0.4l0,0
	c-0.1,0-0.1,0.1-0.1,0.2c-1.1,1.2-2.5,2.1-4,2.7c-0.4,0.2-0.9,0.2-1.3,0.2c0-0.1,0.1-0.3,0.2-0.4l8.8-17.3l1.5-2.9h3.9L138.8,116.6z
	"/>
<path class="st4" d="M193.5,135.6c5.8-2.6,10.9-6.4,15-11.1c0.1,0.3,0.2,0.5,0.2,0.8c0.1,1,0.1,1.9-0.2,2.9
	c-0.4,1.5-1.5,2.7-2.9,3.3c-1,0.5-2,0.7-3.1,0.8h-0.1c-0.5,0-0.5,0-0.6,0.5c-0.2,0.9-0.4,1.9-0.6,2.8c-1.2,0.7-2.4,1.4-3.6,2
	c-1.9,0.9-3.9,1.5-6,1.9h-0.1c0-0.1,0-0.2,0.1-0.3l1.8-3.1C193.4,135.8,193.5,135.7,193.5,135.6z"/>
<path class="st4" d="M163,124.4l-0.6,1.2l-2.4,4.8c0,0.1-0.1,0.3-0.2,0.4c0,0-0.1,0-0.1,0.1l0,0c-0.2,0-0.3,0.1-0.4,0.2
	c-0.7,0.4-1.4,0.8-2.2,1.1l0.3-0.5c-1.7,0.6-3.5,1-5.3,1.1c-0.1,0-0.2,0-0.3-0.1l0.5-2.3c1.1-0.3,2.1-0.7,3.1-1.1
	c1.4-0.6,2.6-1.6,3.6-2.8c0.9-1.2,1.4-2.7,1.5-4.2c0.1-1,0-1.9-0.3-2.8c1,0.3,1.9,1,2.3,2c0.4,0.8,0.6,1.7,0.5,2.6
	C163,124.2,163,124.3,163,124.4z"/>
<path class="st4" d="M110.4,123.8c-0.2,0.6-0.6,1.2-0.9,1.8c-0.8,1.7-1.7,3.4-2.5,5.1c0,0.1-0.1,0.2-0.2,0.3
	c-0.6,0.3-1.2,0.7-1.8,0.9c-0.1,0-0.3,0.2-0.4,0.1c-0.2-0.1,0.1-0.2,0.1-0.4c-1.7,0.6-3.4,0.9-5.2,1.1c-0.4,0-0.4,0-0.3-0.4
	c0.1-0.7,0.3-1.3,0.4-2c0.8-0.3,1.7-0.5,2.5-0.9c1.5-0.6,2.9-1.6,4-2.8c1-1.2,1.6-2.7,1.6-4.2c0.1-1,0-2.1-0.3-3
	c1,0.3,1.8,1,2.3,1.9c0.3,0.6,0.5,1.2,0.6,1.8L110.4,123.8z"/>
<path class="st4" d="M182.1,132.9c-0.2,0.5-0.5,0.9-0.8,1.3c-0.6,0.9-1.2,1.8-1.9,2.7c-0.6,0.8-1.4,1.4-2.3,1.7
	c-0.7-0.4-1.3-1-1.7-1.8c-0.1-0.2-0.1-0.3-0.2-0.5c0.9,0.3,1.9,0.3,2.9,0.2c0.2,0,0.3-0.1,0.4-0.2l2.9-4.5c0,0,0-0.1,0-0.1
	c-0.1-0.1-0.3-0.1-0.5-0.2c-0.4-0.1-0.7-0.3-1.1-0.6c-0.5-0.3-0.6-0.9-0.4-1.5c0.2-0.5,0.5-1,0.9-1.3c0.7-0.7,1.5-1.4,2.4-1.9
	c1.4-0.9,2.9-1.8,4.5-2.5c0.1,0,0.2-0.1,0.3-0.1c0,0.1,0,0.2-0.1,0.3c-1,1.9-2.1,3.8-3.2,5.7c0,0.1-0.1,0.2-0.2,0.3s-0.1,0-0.1,0.1
	l0,0c-0.8,0.5-1.4,1.2-1.7,2C182,132.2,182,132.6,182.1,132.9z"/>
<path class="st3" d="M90.2,115.8c-0.1,0-0.2-0.1-0.3-0.2l-3.7-3.7l-0.2-0.2c0-0.1,0.2-0.1,0.3-0.2l5.3-2.6c0.3-0.2,0.3-0.2,0.6,0.1
	l3.6,3.7c0.1,0.1,0.2,0.2,0.2,0.3l-0.4,0.2L90.2,115.8z"/>
<path class="st4" d="M157.8,134.9l-1.4,2.9h1.7c-0.3,0.6-0.7,1.1-1.3,1.5c-0.7,0.5-1.5,0.8-2.4,0.9c-1.5,0.3-3,0.3-4.5,0
	c-1.7-0.3-3.2-1.2-4.1-2.7c-0.1-0.1-0.2-0.3-0.2-0.5c0.5,0.1,1,0.4,1.5,0.5c1.1,0.2,2.3,0.3,3.5,0.2c0.6,0,1.3-0.1,1.9-0.3
	c1.3-0.3,2.4-1.1,3.1-2.2c0.4,0,0.7-0.1,1.1-0.1C157,135,157.4,135,157.8,134.9z"/>
<path class="st4" d="M104.8,135l-1.4,2.9h2c-0.2,0.5-0.6,1-1.1,1.3c-0.6,0.5-1.3,0.8-2.1,0.9c-2,0.5-4,0.5-6-0.1
	c-1.3-0.4-2.5-1.3-3.2-2.5c-0.1-0.1-0.2-0.2-0.2-0.4c0.1,0,0.1,0,0.2,0c0.8,0.4,1.7,0.6,2.7,0.7c1.3,0.1,2.6,0,3.9-0.3
	c1.4-0.3,2.5-1.1,3.2-2.3c0.2,0,0.3,0,0.5,0C103.8,135.1,104.3,135.1,104.8,135z"/>
<path class="st4" d="M41,121c0.1,0,0.2,0,0.3,0.1c1.4,0.7,2.9,1.3,4.5,1.5c0.7,0.1,1.3,0.2,2,0.2c1.2,0.1,2.5-0.2,3.5-0.7
	c0.6-0.3,1.2-0.9,1.5-1.5c0.2-0.4,0.3-0.7,0.6-1.1l1.6,0.1l-2.4,4.2c-0.3,0.5-0.6,1.1-0.9,1.6c-2.5,0.2-5.1-0.3-7.4-1.3
	c-0.7-0.4-1.4-0.8-2-1.3c-0.5-0.4-1-1-1.3-1.5C41,121.1,41,121,41,121z"/>
<path class="st4" d="M90.2,115.8l5.6-2.7l0.4-0.2c0.1,0,0.2,0.1,0.2,0.1l2.3,2.3c0,0.1,0.1,0.1,0.1,0.2c-0.1,0.1-0.2,0.2-0.4,0.2
	l-5.3,2.5c-0.5,0.2-0.3,0.2-0.7-0.1l-0.1-0.1c0.1-0.4,0.4-0.7,0.5-1.1c-0.6-0.1-1.1,0-1.7-0.1l-0.7-0.7
	C90.3,116,90.3,115.9,90.2,115.8z"/>
<path class="st4" d="M75.9,111c-0.1,0-0.1,0-0.1-0.1C75.8,110.9,75.9,111,75.9,111z"/>
<path class="st4" d="M76,111.1C75.9,111.1,75.9,111.1,76,111.1C75.9,110.9,76,111.1,76,111.1z"/>
<path class="st4" d="M41,120.9C41,120.9,41,120.9,41,120.9c0,0.1,0,0.1,0,0.1C40.9,121,41,120.9,41,120.9z"/>
<path class="st4" d="M76.1,111.2C76,111.2,76,111.2,76.1,111.2C76,111,76.1,111.1,76.1,111.2z"/>
<path class="st4" d="M92.8,137.1C92.8,137.1,92.9,137.1,92.8,137.1C92.9,137.3,92.8,137.1,92.8,137.1z"/>
<path class="st4" d="M145.5,137.1C145.5,137.1,145.6,137.1,145.5,137.1C145.6,137.2,145.5,137.1,145.5,137.1z"/>
<path class="st2" d="M55,119.5l-1.6-0.1l1.2-2.4c-0.5,0-1,0-1.5,0c-1.1,0-2.2-0.1-3.4-0.2c-1.1-0.1-2.1-0.3-3.1-0.7
	c0-0.6,0.3-1.1,0.7-1.5c0.5,0,0.9,0,1.3-0.2c0.6-0.1,1.2-0.3,1.9-0.5c0.1,0,0.1,0,0.2,0c0.6-0.2,1.2-0.3,1.8-0.5
	c0.6-0.2,1.1-0.3,1.7-0.5s1-0.3,1.5-0.5c0.6-0.2,1.3-0.5,1.9-0.6c0.2,0,0.3-0.1,0.3-0.3h0.2c2.1,0,4.1,0.2,6.1,0.8
	c1.8,0.5,3.4,1.2,5,2.2c0.1,0,0.2,0.2,0.3,0.1l0,0c0,0.1,0.1,0.1,0.1,0.1c0.4,0.6,0.7,1.1,1,1.7c0.9,1.8,1.4,3.8,1.3,5.9
	c0,3-1.5,5.7-4,7.3c-1.6,1-3.3,1.8-5.2,2.2c-0.6,0.2-1.3,0.3-1.9,0.4l1.4-3.1l6.3-12.9c0-0.1,0.1-0.2,0-0.3h-3.7l1.2-2.5
	c-0.1,0-0.2,0-0.3,0h-7.1c-0.2,0-0.5,0.1-0.6,0.3c-1,1.8-2,3.6-3,5.3L55,119.5z"/>
<path class="st4" d="M69.6,114.5c-0.1,0-0.2-0.1-0.3-0.1c-1.5-1-3.2-1.7-5-2.2c-2-0.6-4.1-0.8-6.1-0.8H58c-1.3,0-2.7,0.1-4,0.4
	c-1.5,0.2-2.9,0.6-4.3,1.2c-0.9,0.3-1.8,0.9-2.4,1.6c-0.4,0.4-0.7,0.9-0.7,1.5c-0.1,0-0.3,0-0.4-0.1c-0.5-0.2-1.1-0.5-1.5-0.8
	c-0.8-0.6-1-1.8-0.4-2.7c0.3-0.5,0.7-0.9,1.2-1.3c1.1-0.7,2.3-1.2,3.6-1.5c2.7-0.8,5.6-1.1,8.4-0.8c3.1,0.2,6.1,1.1,8.8,2.7
	c1.1,0.7,2.2,1.5,3,2.5C69.5,114.2,69.6,114.3,69.6,114.5z"/>
<path class="st4" d="M65.1,116h3.7c0.1,0.1,0,0.2,0,0.3l-6.4,12.9l-1.4,2.9c-1.3,0.2-2.7,0.4-4.1,0.4l0.5-0.9l7.5-15.2
	C64.9,116.2,65,116.1,65.1,116z"/>
<path class="st4" d="M69.7,114.6c0,0-0.1,0-0.1-0.1C69.6,114.5,69.7,114.5,69.7,114.6z"/>
<path class="st2" d="M182.1,132.9c-0.2-0.3-0.2-0.7,0-1c0.4-0.8,1-1.5,1.7-2c0,0,0,0.1,0,0.1C183.3,131,182.8,132,182.1,132.9z"/>
<path class="st2" d="M172.6,145.8c-0.8,0.1-1.6,0.1-2.4,0C171.1,145.9,171.8,145.8,172.6,145.8z"/>
<path class="st2" d="M174.4,126.1c0-0.1,0.1-0.1,0.2-0.1S174.5,126.1,174.4,126.1z"/>
<path class="st2" d="M183.9,129.9c0-0.1,0-0.1,0.1-0.1C184.1,129.8,184,129.9,183.9,129.9z"/>
<path class="st2" d="M133,128.2c0-0.2,0.1-0.3,0.2-0.4l2-3.9l0.1-0.3c0.3,0.5,0.3,1,0.1,1.5c-0.2,0.4-0.4,0.9-0.7,1.2
	c-0.4,0.6-0.9,1.2-1.5,1.7C133.2,128,133.1,128.2,133,128.2z"/>
<path class="st2" d="M132.9,128.3c0-0.1,0-0.1,0.1-0.2C133.1,128.2,132.9,128.3,132.9,128.3z"/>
<path class="st4" d="M150.1,132.7c-1.3-0.2-2.4-1.2-2.6-2.6c-0.2-1.1-0.1-2.3,0.5-3.3c1.2-2.1,3-3.9,5.1-5.2
	c0.4-0.3,0.9-0.4,1.4-0.5c0.5,0,0.6,0.1,0.5,0.5c0,0.2-0.1,0.4-0.2,0.6c-0.6,1.3-1.6,2.4-2.8,3.2c-0.5,0.3-1.2,0.5-1.8,0.6
	c-0.1,0-0.2,0-0.3,0.2c-0.3,1.5-0.6,2.9-1,4.3c0,0,0,0.1,0,0.1c0.3,0,0.7,0,1,0c0,0.3,0,0.6,0,1C150,132.1,150.1,132.4,150.1,132.7z
	"/>
<path class="st2" d="M157.8,134.9c-0.4,0-0.8,0.1-1.2,0.2c-0.4,0.1-0.7,0.1-1.1,0.1l1.6-3.1c0.8-0.3,1.5-0.6,2.2-1.1
	c0.1-0.1,0.2-0.2,0.4-0.2s0,0.2,0,0.2L157.8,134.9z"/>
<path class="st2" d="M150.1,132.7c0-0.3,0-0.6-0.1-0.9c0-0.3,0-0.6,0-1c0.7-0.1,1.5-0.3,2.2-0.4l-0.5,2.4c0.1,0.1,0.2,0,0.3,0.1
	C151.4,132.9,150.8,132.8,150.1,132.7z"/>
<path class="st4" d="M97.4,132.7c-1.5-0.2-2.6-1.4-2.7-2.8c-0.2-1.1,0.1-2.2,0.6-3.1c1.2-2,2.9-3.7,4.9-4.9c0.5-0.3,1-0.5,1.6-0.6
	c0.4,0,0.5,0.1,0.5,0.5c0,0.2-0.1,0.4-0.2,0.6c-0.6,1.5-1.7,2.7-3.1,3.4c-0.5,0.3-1,0.4-1.6,0.5c-0.1,0-0.3,0.1-0.3,0.3c0,0,0,0,0,0
	l-1,4.5c0.3,0,0.7,0,1,0C97.3,131.5,97.3,132.1,97.4,132.7z"/>
<path class="st2" d="M104.8,135c-0.5,0-1,0.1-1.4,0.2c-0.2,0-0.3,0-0.5,0c0.4-0.9,0.9-1.7,1.3-2.5c0.1-0.2,0.2-0.4,0.3-0.6
	s0.1,0,0.1-0.1l0,0c0.2,0.1,0.3,0,0.4-0.1c0.6-0.3,1.2-0.6,1.8-0.9c-0.3,0.6-0.5,1.2-0.8,1.7L104.8,135z"/>
<path class="st2" d="M97.4,132.7c-0.1-0.6-0.1-1.2,0-1.9c0.7-0.1,1.5-0.3,2.2-0.4c-0.1,0.7-0.3,1.3-0.4,2c-0.1,0.4-0.1,0.4,0.3,0.4
	C98.8,132.8,98.1,132.8,97.4,132.7z"/>
<path class="st4" d="M104.6,132.1C104.6,132.1,104.6,132.2,104.6,132.1C104.4,132.2,104.5,132.1,104.6,132.1z"/>
<path class="st2" d="M159.8,130.9c0-0.1,0-0.1,0.1-0.1C160,130.8,159.8,131,159.8,130.9z"/>
<path class="st0" d="M72.8,107.9c0,0-4.3-3.6-12.8-5.3c-2.5-0.5-5.4,0.1-8.6-0.9l52.9-11.8l25,3.4c0,0-2.9,6.2-3.3,6.3
	c-0.4,0.1-34.4,5.9-35.6,6.2C89.1,106.2,72.8,107.9,72.8,107.9z"/>
</svg>
