<?xml version="1.0" encoding="utf-8"?>
<!-- Generator: Adobe Illustrator 21.1.0, SVG Export Plug-In . SVG Version: 6.00 Build 0)  -->
<svg version="1.1" id="Layer_1" xmlns="http://www.w3.org/2000/svg" xmlns:xlink="http://www.w3.org/1999/xlink" x="0px" y="0px"
	 viewBox="0 0 250 250" style="enable-background:new 0 0 250 250;" xml:space="preserve">
<style type="text/css">
	.st0{fill:#ED1C2E;}
	.st1{clip-path:url(#SVGID_2_);}
	.st2{fill:#BC1322;}
	.st3{clip-path:url(#SVGID_4_);}
	.st4{clip-path:url(#SVGID_6_);}
	.st5{fill:#DB192A;}
	.st6{clip-path:url(#SVGID_8_);}
	.st7{clip-path:url(#SVGID_10_);}
	.st8{clip-path:url(#SVGID_12_);}
	.st9{fill:#F58D76;}
	.st10{clip-path:url(#SVGID_14_);}
	.st11{fill:#FCCDBE;}
	.st12{clip-path:url(#SVGID_16_);}
	.st13{clip-path:url(#SVGID_18_);}
	.st14{clip-path:url(#SVGID_20_);}
	.st15{clip-path:url(#SVGID_22_);}
	.st16{clip-path:url(#SVGID_24_);}
	.st17{clip-path:url(#SVGID_26_);}
	.st18{fill:#BD1322;}
	.st19{clip-path:url(#SVGID_28_);}
	.st20{clip-path:url(#SVGID_30_);}
	.st21{clip-path:url(#SVGID_32_);}
	.st22{clip-path:url(#SVGID_34_);}
	.st23{clip-path:url(#SVGID_36_);}
	.st24{clip-path:url(#SVGID_38_);}
	.st25{clip-path:url(#SVGID_40_);}
	.st26{clip-path:url(#SVGID_42_);}
	.st27{clip-path:url(#SVGID_44_);}
	.st28{clip-path:url(#SVGID_46_);}
	.st29{clip-path:url(#SVGID_48_);}
	.st30{clip-path:url(#SVGID_50_);}
	.st31{clip-path:url(#SVGID_52_);}
	.st32{clip-path:url(#SVGID_54_);}
	.st33{clip-path:url(#SVGID_56_);}
	.st34{clip-path:url(#SVGID_58_);}
	.st35{clip-path:url(#SVGID_60_);}
	.st36{clip-path:url(#SVGID_62_);}
	.st37{clip-path:url(#SVGID_64_);}
	.st38{clip-path:url(#SVGID_66_);}
	.st39{clip-path:url(#SVGID_68_);}
	.st40{clip-path:url(#SVGID_70_);}
	.st41{clip-path:url(#SVGID_72_);}
	.st42{clip-path:url(#SVGID_74_);}
	.st43{clip-path:url(#SVGID_76_);}
	.st44{clip-path:url(#SVGID_78_);}
	.st45{clip-path:url(#SVGID_80_);}
	.st46{clip-path:url(#SVGID_82_);}
	.st47{clip-path:url(#SVGID_84_);}
	.st48{clip-path:url(#SVGID_86_);}
	.st49{clip-path:url(#SVGID_88_);}
	.st50{clip-path:url(#SVGID_90_);}
	.st51{clip-path:url(#SVGID_92_);}
	.st52{clip-path:url(#SVGID_94_);}
	.st53{clip-path:url(#SVGID_96_);}
	.st54{fill:url(#SVGID_97_);}
	.st55{clip-path:url(#SVGID_99_);}
	.st56{fill:#CC1626;}
	.st57{fill:#AD0E1D;}
	.st58{clip-path:url(#SVGID_101_);}
	.st59{clip-path:url(#SVGID_103_);}
	.st60{clip-path:url(#SVGID_105_);}
	.st61{clip-path:url(#SVGID_107_);}
	.st62{clip-path:url(#SVGID_109_);}
	.st63{clip-path:url(#SVGID_111_);}
	.st64{clip-path:url(#SVGID_113_);}
	.st65{clip-path:url(#SVGID_115_);}
	.st66{clip-path:url(#SVGID_117_);}
	.st67{fill:#CB1626;}
	.st68{clip-path:url(#SVGID_119_);}
	.st69{clip-path:url(#SVGID_121_);}
	.st70{clip-path:url(#SVGID_123_);}
	.st71{clip-path:url(#SVGID_125_);}
	.st72{clip-path:url(#SVGID_127_);}
	.st73{clip-path:url(#SVGID_129_);}
	.st74{clip-path:url(#SVGID_131_);}
	.st75{clip-path:url(#SVGID_133_);}
	.st76{clip-path:url(#SVGID_135_);}
	.st77{clip-path:url(#SVGID_137_);}
	.st78{clip-path:url(#SVGID_139_);}
	.st79{clip-path:url(#SVGID_141_);}
	.st80{clip-path:url(#SVGID_143_);}
	.st81{clip-path:url(#SVGID_145_);}
	.st82{clip-path:url(#SVGID_147_);}
	.st83{clip-path:url(#SVGID_149_);}
	.st84{clip-path:url(#SVGID_151_);}
	.st85{clip-path:url(#SVGID_153_);}
	.st86{clip-path:url(#SVGID_155_);}
	.st87{clip-path:url(#SVGID_157_);}
	.st88{clip-path:url(#SVGID_159_);}
	.st89{clip-path:url(#SVGID_161_);}
	.st90{clip-path:url(#SVGID_163_);}
</style>
<title>Grocery</title>
<path class="st0" d="M220,136.8c0.3-0.1,0.6-0.2,0.9-0.3l-1,0.5L220,136.8z"/>
<g>
	<defs>
		<path id="SVGID_1_" d="M220,136.8c0.3-0.1,0.6-0.2,0.9-0.3l-1,0.5L220,136.8z"/>
	</defs>
	<clipPath id="SVGID_2_">
		<use xlink:href="#SVGID_1_"  style="overflow:visible;"/>
	</clipPath>
	<g class="st1">
		<path class="st2" d="M220.3,136.6l0.2-0.1l0.2-0.1l0.1-0.1l-1,0.5l0.1-0.2l0,0h0.2h0.2l0,0"/>
	</g>
</g>
<path class="st0" d="M64,102.5c-0.5,0.3-0.7,0.4-1.2,0.7h-0.1L64,102.5z"/>
<g>
	<defs>
		<path id="SVGID_3_" d="M64,102.5c-0.5,0.3-0.7,0.4-1.2,0.7h-0.1L64,102.5z"/>
	</defs>
	<clipPath id="SVGID_4_">
		<use xlink:href="#SVGID_3_"  style="overflow:visible;"/>
	</clipPath>
	<g class="st3">
		<path class="st2" d="M64,102.5c-0.5,0.3-0.7,0.4-1.2,0.7h-0.1L64,102.5"/>
		<path class="st2" d="M64,102.5l-0.5,0.3l-0.2,0.1l-0.4,0.2l0,0c0.5-0.3,0.5-0.3,1-0.6l0,0h0.1"/>
	</g>
</g>
<path class="st0" d="M209.9,111.4c0.4,0,0.9-0.1,1.3-0.2l-1.3,0.4C209.8,111.4,209.9,111.4,209.9,111.4z"/>
<g>
	<defs>
		<path id="SVGID_5_" d="M209.9,111.4c0.4,0,0.9-0.1,1.3-0.2l-1.3,0.4C209.8,111.4,209.9,111.4,209.9,111.4z"/>
	</defs>
	<clipPath id="SVGID_6_">
		<use xlink:href="#SVGID_5_"  style="overflow:visible;"/>
	</clipPath>
	<g class="st4">
		<path class="st5" d="M209.9,111.4c0.4,0,0.9-0.1,1.3-0.2l-1.3,0.4C209.9,111.5,210,111.4,209.9,111.4"/>
		<path class="st5" d="M211.1,111.2L211.1,111.2"/>
		<path class="st5" d="M210.1,111.4h0.4h0.2h0.2h0.1h0.1l0,0l-0.5,0.1l-0.7,0.2c0.1-0.1,0.1-0.2,0.1-0.2h0.2"/>
		<path class="st2" d="M211,111.2L211,111.2"/>
		<path class="st2" d="M210.1,111.4h0.4h0.2h0.2l0,0c-0.3,0.1-0.6,0.1-1,0.1L210.1,111.4"/>
	</g>
</g>
<path class="st0" d="M90.7,136.3c-0.3,0.3-0.5,0.7-0.6,1.1l-0.2-1.1C90.3,136.4,90.6,136.5,90.7,136.3z"/>
<g>
	<defs>
		<path id="SVGID_7_" d="M90.7,136.3c-0.3,0.3-0.5,0.7-0.6,1.1l-0.2-1.1C90.3,136.4,90.6,136.5,90.7,136.3z"/>
	</defs>
	<clipPath id="SVGID_8_">
		<use xlink:href="#SVGID_7_"  style="overflow:visible;"/>
	</clipPath>
	<g class="st6">
		<path class="st2" d="M90.7,136.3c-0.3,0.3-0.5,0.7-0.6,1.1l-0.2-1.1C90.4,136.4,90.6,136.5,90.7,136.3"/>
		<path class="st2" d="M90.2,137.4L90.2,137.4L90.2,137.4"/>
		<path class="st2" d="M90.6,136.4L90.6,136.4L90.6,136.4"/>
		<path class="st5" d="M90.5,136.5c-0.1,0.2-0.3,0.4-0.3,0.6v0.1c0,0,0,0.1,0,0.1l0,0c0-0.3,0-0.3,0-0.4
			C90.3,136.8,90.5,136.6,90.5,136.5L90.5,136.5"/>
	</g>
</g>
<path class="st0" d="M62.7,103.1c0.7-0.3,1.1-0.6,2-1L62.7,103.1L62.7,103.1z"/>
<g>
	<defs>
		<path id="SVGID_9_" d="M62.7,103.1c0.7-0.3,1.1-0.6,2-1L62.7,103.1L62.7,103.1z"/>
	</defs>
	<clipPath id="SVGID_10_">
		<use xlink:href="#SVGID_9_"  style="overflow:visible;"/>
	</clipPath>
	<g class="st7">
		<path class="st5" d="M62.7,103.1c0.7-0.3,1.1-0.6,2-1L62.7,103.1L62.7,103.1"/>
		<path class="st5" d="M64.7,102.1L64.7,102.1L64.7,102.1L64.7,102.1"/>
		<path class="st5" d="M63.1,102.9l0.5-0.3l0.3-0.1l0.3-0.1l0,0h-0.1l-0.5,0.3l-1.1,0.6v-0.1l0,0l0.4-0.2"/>
		<path class="st2" d="M64.7,102.1L64.7,102.1"/>
		<path class="st2" d="M63.1,102.9l0.4-0.2l0,0l-0.8,0.4L63.1,102.9L63.1,102.9"/>
	</g>
</g>
<path class="st0" d="M90.2,137.7c0-0.3-0.1-0.8-0.3-1.5l0,0L90.2,137.7z"/>
<g>
	<defs>
		<path id="SVGID_11_" d="M90.2,137.7c0-0.3-0.1-0.8-0.3-1.5l0,0L90.2,137.7z"/>
	</defs>
	<clipPath id="SVGID_12_">
		<use xlink:href="#SVGID_11_"  style="overflow:visible;"/>
	</clipPath>
	<g class="st8">
		<path class="st9" d="M90.2,137.7c0-0.3-0.1-0.8-0.3-1.5l0,0L90.2,137.7"/>
		<path class="st9" d="M90.2,137.7L90.2,137.7L90.2,137.7L90.2,137.7"/>
		<path class="st9" d="M90.2,137.4v0.3v-0.1V137.4v-0.2v-0.1v-0.1v-0.1v-0.2v-0.2v-0.2l0,0l0.2,1.2"/>
		<polyline class="st5" points="90.2,137.7 90.2,137.7 90.2,137.7 90.2,137.7 		"/>
		<path class="st5" d="M90.1,136.8c0,0.3,0,0.5,0.1,0.6v-0.1l0,0v-0.1v-0.1L90.1,136.8l0.1-0.1v-0.2v-0.2l0,0l0.1,0.6"/>
		<path class="st2" d="M90,136.4L90,136.4L90,136.4L90,136.4L90,136.4L90,136.4"/>
		<path class="st2" d="M90.1,137v0.1V137v-0.1l0,0C90.1,136.8,90.1,136.9,90.1,137"/>
	</g>
</g>
<path class="st0" d="M194.1,131.2c0.4-0.4,0.7-0.9,0.9-1.5c-0.1,0.2,0,0.4,0.1,0.5L194.1,131.2z"/>
<g>
	<defs>
		<path id="SVGID_13_" d="M194.1,131.2c0.4-0.4,0.7-0.9,0.9-1.5c-0.1,0.2,0,0.4,0.1,0.5L194.1,131.2z"/>
	</defs>
	<clipPath id="SVGID_14_">
		<use xlink:href="#SVGID_13_"  style="overflow:visible;"/>
	</clipPath>
	<g class="st10">
		<path class="st11" d="M194.1,131.2c0.4-0.4,0.7-0.9,0.9-1.5c-0.1,0.2,0,0.4,0.1,0.5L194.1,131.2"/>
		<path class="st11" d="M194.3,130.9l-0.1,0.1l-0.2,0.2l0,0l0.1-0.1L194.3,130.9L194.3,130.9l0.1-0.2l0.1-0.1l0.1-0.1l0.1-0.1
			l0.1-0.1l0.1-0.2l0.1-0.2l0.1-0.2c-0.1,0.2,0,0.4,0.1,0.5L194.3,130.9"/>
		<path class="st9" d="M194.5,130.8c-0.1,0.1-0.2,0.2-0.3,0.3l-0.1,0.1l0,0l0.1-0.1l0.1-0.1l0.1-0.1L194.5,130.8l0-0.2l0.1-0.1
			l0.1-0.1l0.1-0.1l0.1-0.2l0.1-0.2l0.1-0.2c-0.1,0.2,0,0.4,0.1,0.5L194.5,130.8"/>
		<path class="st5" d="M194.1,131.2L194.1,131.2L194.1,131.2"/>
		<path class="st5" d="M194.7,130.6c-0.1,0.1-0.2,0.1-0.2,0.2c-0.1,0.1-0.2,0.3-0.4,0.4v-0.1l0,0l0.1-0.1l0.1-0.1l0.1-0.1l0.1-0.1
			l0.1-0.1l0.1-0.1l0.1-0.1l0.1-0.2l0.1-0.2l0.1-0.2c-0.1,0.2,0,0.4,0.1,0.5L194.7,130.6"/>
		<path class="st2" d="M194.3,130.9l0.2-0.2l0.1-0.1l0.1-0.1l0.1-0.1l0.1-0.2l0.1-0.2l0.1-0.2l0,0
			C194.9,130.1,194.7,130.5,194.3,130.9L194.3,130.9L194.3,130.9L194.3,130.9l0-0.1"/>
	</g>
</g>
<path class="st0" d="M131.6,117.7c-1.2,1.2-2.3,2.5-3.5,3.7l-1.2-1.5c0.9,0.5,2.9-0.7,5.4-2.8C131.9,117.3,131.8,117.5,131.6,117.7z
	"/>
<g>
	<defs>
		<path id="SVGID_15_" d="M131.6,117.7c-1.2,1.2-2.3,2.5-3.5,3.7l-1.2-1.5c0.9,0.5,2.9-0.7,5.4-2.8
			C131.9,117.3,131.8,117.5,131.6,117.7z"/>
	</defs>
	<clipPath id="SVGID_16_">
		<use xlink:href="#SVGID_15_"  style="overflow:visible;"/>
	</clipPath>
	<g class="st12">
		<path class="st2" d="M131.6,117.7l-0.3,0.3c-3.1,3.3-3.2,3.4-3.2,3.4l-1.2-1.5c0.9,0.5,2.9-0.7,5.4-2.8
			C131.9,117.3,131.8,117.4,131.6,117.7"/>
		<path class="st2" d="M132,117.2l-0.5,0.4l0.6-0.5l0,0L132,117.2"/>
		<path class="st5" d="M131.3,117.9l-0.8,0.9l-0.9,1c-0.9,0.9-1,1.1-1.4,1.5l0,0c-0.2-0.2-0.5-0.6-0.3-0.8c0.1-0.1,0.3-0.2,0.4-0.4
			c0.3-0.2,0.6-0.4,0.9-0.6c0.8-0.6,1.5-1.2,2.3-1.7L131.3,117.9"/>
		<path class="st2" d="M127.3,120.1c0.2,0.5,0.4,0.9,0.8,1.2l0,0l-1.2-1.5c0.1,0.1,0.2,0.1,0.4,0.1l0,0
			C127.2,120,127.3,120.1,127.3,120.1"/>
		<path class="st9" d="M129.3,119.7l-0.1,0.1l-0.3,0.4c-0.1,0.2-0.3,0.3-0.4,0.5c-0.1,0.1-0.3,0.3-0.5,0.3c-0.2-0.1,0,0,0,0
			c0.1-0.2,0.2-0.4,0.4-0.5l0.2-0.2l0.4-0.3C129.2,119.7,129.3,119.7,129.3,119.7L129.3,119.7"/>
	</g>
</g>
<path class="st0" d="M157.2,115.6c-1.2,1.1-2.2,2.3-3.4,3.4l-1.2-1.5c0.9,0.5,2.9-0.5,5.3-2.4C157.6,115.2,157.4,115.4,157.2,115.6z
	"/>
<g>
	<defs>
		<path id="SVGID_17_" d="M157.2,115.6c-1.2,1.1-2.2,2.3-3.4,3.4l-1.2-1.5c0.9,0.5,2.9-0.5,5.3-2.4
			C157.6,115.2,157.4,115.4,157.2,115.6z"/>
	</defs>
	<clipPath id="SVGID_18_">
		<use xlink:href="#SVGID_17_"  style="overflow:visible;"/>
	</clipPath>
	<g class="st13">
		<path class="st2" d="M157.2,115.6l-0.3,0.3c-2.9,3-3.1,3-3.1,3l-1.2-1.5c0.9,0.5,2.9-0.5,5.3-2.4
			C157.6,115.2,157.5,115.4,157.2,115.6"/>
		<path class="st2" d="M157.7,115.2l-0.5,0.4l0.7-0.5l0,0L157.7,115.2"/>
		<path class="st5" d="M157,115.7c-0.1,0.1-0.9,0.9-0.9,0.9l-0.9,0.9c-0.9,0.9-1,1-1.3,1.3l0,0c-0.2-0.2-0.5-0.6-0.3-0.8
			c0.1-0.1,0.3-0.2,0.4-0.3c0.3-0.2,0.6-0.3,0.9-0.5c0.6-0.4,0.6-0.4,2.3-1.6L157,115.7"/>
		<path class="st2" d="M153,117.7c0.1,0.5,0.4,0.9,0.7,1.2l0,0l-1.2-1.5c0.1,0.1,0.2,0.1,0.4,0.1l0.1,0.1V117.7"/>
		<path class="st9" d="M155.7,116.9l-0.4,0.3l-0.8,0.9c-0.5,0.6-0.7,0.6-0.7,0.6c-0.1-0.1-0.1-0.1-0.1-0.2c0.1-0.2,0.2-0.3,0.4-0.5
			c0.1-0.1,0.3-0.2,0.5-0.3l1-0.7c0.1-0.1,0.2-0.1,0.3-0.2l0,0C155.8,116.8,155.7,116.8,155.7,116.9"/>
	</g>
</g>
<path class="st0" d="M70,171.1c-1,0.6-2,1.3-2.9,2l3.2-2.5C70.3,170.8,70.1,171,70,171.1z"/>
<g>
	<defs>
		<path id="SVGID_19_" d="M70,171.1c-1,0.6-2,1.3-2.9,2l3.2-2.5C70.3,170.8,70.1,171,70,171.1z"/>
	</defs>
	<clipPath id="SVGID_20_">
		<use xlink:href="#SVGID_19_"  style="overflow:visible;"/>
	</clipPath>
	<g class="st14">
		<path class="st2" d="M70,171.1c-1,0.6-2,1.3-2.9,2l3.2-2.5C70.2,170.8,70.1,171,70,171.1"/>
		<path class="st2" d="M69.8,171.3l-0.5,0.3l-0.3,0.2l-0.3,0.2l-0.2,0.2l-0.2,0.2l-0.2,0.2l-0.2,0.2l-0.2,0.2l-0.2,0.1l-0.2,0.1
			l-0.2,0.1l2-1.5l0.9-0.4L69.8,171.3"/>
	</g>
</g>
<path class="st0" d="M5.1,109.1c0.7-0.4,1.2-1,1.5-1.8c-0.3,0.6-0.2,1.3,0.3,1.7L5.1,109.1z"/>
<g>
	<defs>
		<path id="SVGID_21_" d="M5.1,109.1c0.7-0.4,1.2-1,1.5-1.8c-0.3,0.6-0.2,1.3,0.3,1.7L5.1,109.1z"/>
	</defs>
	<clipPath id="SVGID_22_">
		<use xlink:href="#SVGID_21_"  style="overflow:visible;"/>
	</clipPath>
	<g class="st15">
		<path class="st2" d="M5.1,109.1c0.7-0.4,1.2-1,1.5-1.8c-0.3,0.6-0.2,1.3,0.3,1.7L5.1,109.1"/>
		<path class="st2" d="M5.6,108.8l0.2-0.1l0.1-0.1l0.1-0.1l0.1-0.1l0.1-0.1l0.1-0.1l0.1-0.1l0.1-0.1l0.1-0.1l0.1-0.1l0.1-0.1
			l0.1-0.1l0,0l-0.1,0.2l0,0c-0.1,0.3-0.2,0.6-0.4,0.9c-0.1,0.1-0.1,0.2-0.2,0.3c-0.1,0.1-0.2,0.2-0.3,0.2c-0.1,0-0.3,0-0.5,0.1
			l0.1-0.1L5.6,108.8"/>
	</g>
</g>
<path class="st0" d="M30,162.7c-0.2-0.7-0.5-1.2-1-1.7c0,0,0.1-0.2,0.4-0.7L30,162.7z"/>
<g>
	<defs>
		<path id="SVGID_23_" d="M30,162.7c-0.2-0.7-0.5-1.2-1-1.7c0,0,0.1-0.2,0.4-0.7L30,162.7z"/>
	</defs>
	<clipPath id="SVGID_24_">
		<use xlink:href="#SVGID_23_"  style="overflow:visible;"/>
	</clipPath>
	<g class="st16">
		<path class="st9" d="M30,162.7c-0.2-0.7-0.5-1.2-1-1.7c0,0,0.1-0.2,0.4-0.7L30,162.7"/>
		<path class="st9" d="M29.8,161.7c0,0.1,0,0.1,0.1,0.6l0.1,0.4l0,0v-0.1v-0.1v-0.1v-0.1v-0.1v-0.1V162v-0.1l-0.1-0.1l-0.1-0.1
			l-0.1-0.1l-0.1-0.1l-0.1-0.1l-0.1-0.1l-0.1-0.1c0,0,0.1-0.2,0.4-0.7l0.3,1.4"/>
		<path class="st5" d="M29.7,162L29.7,162L29.7,162l0.1,0.2L29.7,162L29.7,162"/>
		<path class="st5" d="M29.9,162.6v-0.2v-0.1v-0.1l0,0c0.1,0.2,0.1,0.3,0.2,0.5v-0.1"/>
		<path class="st5" d="M30,162.7L30,162.7L30,162.7"/>
		<path class="st5" d="M29.6,161.1l-0.2,0.3c0,0,0,0,0.3,0.5v-0.1l0,0l-0.1-0.1l-0.1-0.1l-0.1-0.1l-0.1-0.1l-0.1-0.1l-0.1-0.1
			c0,0,0.1-0.2,0.4-0.7L29.6,161.1"/>
		<path class="st2" d="M29.1,161.2L29.1,161.2l-0.1-0.1L29,161l0,0L29.1,161.2"/>
		<path class="st2" d="M29.4,161.5l-0.2-0.2l0,0L29.4,161.5"/>
		<path class="st2" d="M29.6,161.7L29.6,161.7L29.6,161.7L29.6,161.7L29.6,161.7"/>
		<polyline class="st2" points="30,162.7 30,162.7 30,162.7 30,162.7 		"/>
	</g>
</g>
<path class="st0" d="M205,109.1l-0.8-2.4l8,4.3l-2.5,0.7L205,109.1z"/>
<g>
	<defs>
		<polygon id="SVGID_25_" points="205,109.1 204.2,106.6 212.2,110.9 209.7,111.6 		"/>
	</defs>
	<clipPath id="SVGID_26_">
		<use xlink:href="#SVGID_25_"  style="overflow:visible;"/>
	</clipPath>
	<g class="st17">
		<path class="st5" d="M209.8,111.6l-4.8-2.5l-0.3-1l6.1,3.3L209.8,111.6"/>
		<path class="st9" d="M210.8,111.3l-6.1-3.3l-0.4-1.2l7.7,4.1L210.8,111.3"/>
		<path class="st5" d="M212,111l-7.7-4.1l-0.1-0.2l8,4.3L212,111"/>
	</g>
</g>
<path class="st18" d="M204.3,106.6l8,4.3L204.3,106.6z"/>
<path class="st0" d="M219.3,140.9c-80.4,1.7-144.5,30.3-152.8,32.6C74.8,171.3,138.9,142.6,219.3,140.9z"/>
<g>
	<defs>
		<path id="SVGID_27_" d="M219.3,140.9c-80.4,1.7-144.5,30.3-152.8,32.6C74.8,171.3,138.9,142.6,219.3,140.9z"/>
	</defs>
	<clipPath id="SVGID_28_">
		<use xlink:href="#SVGID_27_"  style="overflow:visible;"/>
	</clipPath>
	<g class="st19">
		<path class="st2" d="M219.3,140.9c-80.4,1.7-144.5,30.3-152.8,32.6C74.8,171.3,138.9,142.6,219.3,140.9"/>
	</g>
</g>
<path class="st0" d="M154,119.3c-0.4,0,20.6-21.8,18.4-29.2C174.5,97.5,153.5,119.3,154,119.3z"/>
<g>
	<defs>
		<path id="SVGID_29_" d="M154,119.3c-0.4,0,20.6-21.8,18.4-29.2C174.5,97.5,153.5,119.3,154,119.3z"/>
	</defs>
	<clipPath id="SVGID_30_">
		<use xlink:href="#SVGID_29_"  style="overflow:visible;"/>
	</clipPath>
	<g class="st20">
		<path class="st2" d="M154,119.3C154,119.3,154,119.3,154,119.3C154,119.1,154,119.3,154,119.3"/>
		<path class="st5" d="M154,119.2L154,119.2c0.9-1.3,18.6-20,18.5-27.9l0,0C172.5,99.3,154.9,117.8,154,119.2"/>
		<path class="st2" d="M172.5,91.3L172.5,91.3c0-0.4-0.1-0.8-0.2-1.2C172.4,90.5,172.5,90.9,172.5,91.3"/>
	</g>
</g>
<path class="st0" d="M117.7,126.4L117.7,126.4c0-13.5,9.5-43.8,31.8-47.6C127.3,82.7,117.7,112.9,117.7,126.4z"/>
<g>
	<defs>
		<path id="SVGID_31_" d="M117.7,126.4L117.7,126.4c0-13.5,9.5-43.8,31.8-47.6C127.3,82.7,117.7,112.9,117.7,126.4z"/>
	</defs>
	<clipPath id="SVGID_32_">
		<use xlink:href="#SVGID_31_"  style="overflow:visible;"/>
	</clipPath>
	<g class="st21">
		<path class="st5" d="M117.7,126.4L117.7,126.4c0-13.5,9.5-43.8,31.8-47.6C127.3,82.7,117.7,112.9,117.7,126.4"/>
	</g>
</g>
<path class="st0" d="M147.5,91.4L147.5,91.4c0,8.5-19.7,30.2-19.3,30.2C127.9,121.7,147.5,100,147.5,91.4z"/>
<g>
	<defs>
		<path id="SVGID_33_" d="M147.5,91.4L147.5,91.4c0,8.5-19.7,30.2-19.3,30.2C127.9,121.7,147.5,100,147.5,91.4z"/>
	</defs>
	<clipPath id="SVGID_34_">
		<use xlink:href="#SVGID_33_"  style="overflow:visible;"/>
	</clipPath>
	<g class="st22">
		<path class="st2" d="M128.3,121.7C128.3,121.7,128.3,121.7,128.3,121.7C128.3,121.5,128.3,121.7,128.3,121.7"/>
		<path class="st5" d="M128.3,121.6L128.3,121.6c1-1.5,19.2-21.9,19.2-30.1l0,0C147.5,99.7,129.3,120.1,128.3,121.6"/>
	</g>
</g>
<path class="st0" d="M163.2,125.6L163.2,125.6c0-20.8,25.9-25.9,27.5-9C189.1,99.6,163.2,104.8,163.2,125.6z"/>
<g>
	<defs>
		<path id="SVGID_35_" d="M163.2,125.6L163.2,125.6c0-20.8,25.9-25.9,27.5-9C189.1,99.6,163.2,104.8,163.2,125.6z"/>
	</defs>
	<clipPath id="SVGID_36_">
		<use xlink:href="#SVGID_35_"  style="overflow:visible;"/>
	</clipPath>
	<g class="st23">
		<path class="st5" d="M163.2,125.6L163.2,125.6c0-15.5,14.3-22.3,22.3-17.8l0,0C177.5,103.3,163.2,110.1,163.2,125.6"/>
		<path class="st2" d="M185.5,107.8L185.5,107.8c3.1,1.9,5.1,5.2,5.2,8.8C190.6,113,188.6,109.6,185.5,107.8"/>
	</g>
</g>
<path class="st0" d="M229.8,121.8L229.8,121.8c-2.8,0-5.7,4.2-3.2,7.1C224.1,125.9,227,121.8,229.8,121.8z"/>
<g>
	<defs>
		<path id="SVGID_37_" d="M229.8,121.8L229.8,121.8c-2.8,0-5.7,4.2-3.2,7.1C224.1,125.9,227,121.8,229.8,121.8z"/>
	</defs>
	<clipPath id="SVGID_38_">
		<use xlink:href="#SVGID_37_"  style="overflow:visible;"/>
	</clipPath>
	<g class="st24">
		<path class="st2" d="M226.6,128.9c-0.6-0.7-1-1.6-1-2.5C225.7,127.3,226,128.2,226.6,128.9"/>
		<path class="st5" d="M225.7,126.4L225.7,126.4c0-2.4,1.8-4.3,4.2-4.6l0,0C227.5,122,225.7,124,225.7,126.4"/>
	</g>
</g>
<path class="st0" d="M31.2,145.9l9.2-9.6c0.7-0.5,13.6-10.8,19-6.3c5,4.1,4,9.7,10.1,9.1c3.6-0.4,8.3-6.8,13.8-14.1
	c3.6-4.7,12.7-19.2,0.9-30.2l1.2-1.3c13,12,3.1,27.6-0.6,32.6c-5.5,7.4-10.4,14.2-15,14.8c-8.1,0.7-7-5.7-11.4-9.5
	C54.4,127.8,42.2,137.2,31.2,145.9z"/>
<g>
	<defs>
		<path id="SVGID_39_" d="M31.2,145.9l9.2-9.6c0.7-0.5,13.6-10.8,19-6.3c5,4.1,4,9.7,10.1,9.1c3.6-0.4,8.3-6.8,13.8-14.1
			c3.6-4.7,12.7-19.2,0.9-30.2l1.2-1.3c13,12,3.1,27.6-0.6,32.6c-5.5,7.4-10.4,14.2-15,14.8c-8.1,0.7-7-5.7-11.4-9.5
			C54.4,127.8,42.2,137.2,31.2,145.9z"/>
	</defs>
	<clipPath id="SVGID_40_">
		<use xlink:href="#SVGID_39_"  style="overflow:visible;"/>
	</clipPath>
	<g class="st25">
		<path class="st9" d="M31.2,145.9l9.2-9.6c0.7-0.5,13.6-10.8,19-6.3c5,4.1,4,9.7,10.1,9.1c3.6-0.4,8.3-6.8,13.8-14.1
			c3.6-4.7,12.7-19.2,0.9-30.2l1.2-1.3c13,12,3.1,27.6-0.6,32.6c-5.5,7.4-10.4,14.2-15,14.8c-8.1,0.7-7-5.7-11.4-9.5
			C54.4,127.8,42.3,137.2,31.2,145.9"/>
		<path class="st9" d="M85.4,93.4c13,12,3.1,27.6-0.6,32.6c-5.6,7.3-10.5,14.2-15,14.8c-8.1,0.7-7-5.7-11.4-9.5
			c-3.9-3.5-16.1,5.9-27.1,14.7l5.1-5.3l0,0c12.5-10.2,17.3-11,21.6-10.8c-0.5-0.9-5.9-2.7-19.6,8.8l2.2-2.3
			c0.7-0.5,13.6-10.8,19-6.3c5,4.1,4,9.7,10.1,9.1c3.6-0.4,8.3-6.8,13.8-14.1c3.6-4.7,12.7-19.2,0.9-30.2L85.4,93.4"/>
		<path class="st5" d="M85.4,93.4c13,12,3.1,27.6-0.6,32.6c-5.6,7.3-10.5,14.2-15,14.8c-8.1,0.7-7-5.7-11.4-9.5
			c-3.9-3.5-16.1,5.9-27.1,14.7l2.6-2.7l0,0c7.5-6,18.7-15,24.6-12.9c0.2,0.1,0.6,0.4,0.7,0.2c0.2-0.2-0.4-1.9-3.6-1.7
			c-6,0.3-14.1,6.7-15.1,7.5c0.7-0.6,13.6-10.9,19-6.4c5,4.1,4,9.7,10.1,9.1c3.6-0.4,8.3-6.8,13.8-14.1c3.6-4.7,12.7-19.2,0.9-30.2
			L85.4,93.4"/>
		<path class="st5" d="M88,98c1.7,1.5,9.7,10.1-6.1,30.9l-1,1.3c-2.2,2.9-5.9,7.7-8.8,9.3c-4,2.2-7-0.3-6.9-0.7
			c0-0.1,0.1-0.2,0.2-0.2c0.4,0,0.8,0.1,1.1,0.2c3.6,1.1,5.4-0.6,7.2-2.2c4.9-5.2,9.2-10.8,12.9-16.9c6.1-11,2.7-18.1,1.1-21.6
			C87.8,98.1,87.9,98,88,98"/>
		<path class="st9" d="M89.5,101.1c0.8,0.9,3.7,8.1-1.8,18.3c-0.1,0.2-12.4,21.1-19.3,20.6c-1.7-0.1-2.1-0.7-2.1-0.7s0-0.1,1,0
			c6.2,0.8,13.3-8.8,18.3-16.9c5.9-9.8,4.9-15.4,3.7-21.3C89.4,101,89.5,101,89.5,101.1"/>
		<path class="st2" d="M65.6,138.1c-3-2.3-3.5-6.7-6.9-8.7c0.3,0.1,0.5,0.3,0.7,0.5c3.8,3.1,4.1,7.1,6.7,8.5l0,0
			C66,138.4,65.7,138.2,65.6,138.1"/>
		<path class="st11" d="M56.6,129.5c-1,0.1-2,0.2-2.9,0.4c-1,0.2-2,0.6-3,0.9l-1.3,0.5c0,0,0-0.1,0-0.1c1.4-0.8,2.8-1.4,4.4-1.8
			c1-0.4,2.2-0.4,3.2-0.1c0,0,0,0.1,0,0.1C56.9,129.5,56.7,129.5,56.6,129.5"/>
		<path class="st11" d="M90.4,104.3c0.8,3.9,0.3,8-1.4,11.6c0.7-2.1,1.1-4.2,1.3-6.3c0.1-0.7,0.1-1.4,0.1-2.1c0-1.2-0.2-2.4-0.2-3.6
			C90.2,104,90.4,104.2,90.4,104.3"/>
		<path class="st11" d="M71.1,139.2c-1.1,0.6-2.5,0.7-3.7,0.3c0,0,0,0,0-0.1s0.1,0,0.1,0c0.7-0.1,1.5,0,2.3-0.1
			c0.4-0.1,0.7-0.1,1.1-0.2l0.5-0.1h0.1C71.4,139,71.3,139.1,71.1,139.2"/>
		<path class="st2" d="M84.4,94.5c2.8,3.1,5.7,7,5.7,12.9c0-4.9-2.2-9.5-5.9-12.7L84.4,94.5"/>
	</g>
</g>
<path class="st0" d="M192.6,125.9l-1.7-0.5l3.3-4.8l5.3-4.6L192.6,125.9z"/>
<g>
	<defs>
		<polygon id="SVGID_41_" points="192.6,125.9 190.9,125.3 194.2,120.5 199.6,115.9 		"/>
	</defs>
	<clipPath id="SVGID_42_">
		<use xlink:href="#SVGID_41_"  style="overflow:visible;"/>
	</clipPath>
	<g class="st26">
		<path class="st5" d="M199.6,115.9l-7,10l-0.5-0.2l5.9-8.5L199.6,115.9"/>
		<path class="st9" d="M198,117.3l-5.9,8.5l-0.5-0.2l4.8-6.9L198,117.3"/>
		<path class="st11" d="M196.4,118.6l-4.8,6.9l-0.3-0.1l4.3-6.1L196.4,118.6"/>
		<path class="st9" d="M195.6,119.4l-4.3,6.1l-0.4-0.1l3.4-4.9L195.6,119.4"/>
		<path class="st5" d="M194.3,120.5l-3.4,4.9l0,0L194.3,120.5L194.3,120.5"/>
	</g>
</g>
<path class="st0" d="M195.1,130.2l-1.3,1.3c-0.7-0.8-4-2.8-3-6.1l1.7,0.5C191.9,127.8,194.3,129.3,195.1,130.2z"/>
<g>
	<defs>
		<path id="SVGID_43_" d="M195.1,130.2l-1.3,1.3c-0.7-0.8-4-2.8-3-6.1l1.7,0.5C191.9,127.8,194.3,129.3,195.1,130.2z"/>
	</defs>
	<clipPath id="SVGID_44_">
		<use xlink:href="#SVGID_43_"  style="overflow:visible;"/>
	</clipPath>
	<g class="st27">
		<path class="st11" d="M195.1,130.2l-1.3,1.3c-0.7-0.8-4-2.8-3-6.1l1.7,0.5C191.9,127.8,194.4,129.3,195.1,130.2"/>
		<path class="st11" d="M191.3,125.5c-0.5,1.3,0,1.9,0,1.9c0,0,0,0,0.2-1.8l1.1,0.3c-0.7,1.9,1.8,3.4,2.5,4.3l-1.3,1.3
			c-0.7-0.8-4-2.8-3-6.1L191.3,125.5"/>
		<path class="st9" d="M191.2,125.4c-0.5,1.7,0.2,2.5,0.3,2.5c0.1,0,0.1-0.2,0.1-0.7c0-0.5,0-1.1,0.1-1.6l0.9,0.3
			c-0.7,1.9,1.8,3.4,2.5,4.3l-1.3,1.3c-0.7-0.8-4-2.8-3-6.1L191.2,125.4"/>
		<path class="st5" d="M190.9,125.3c-0.6,2.2,0.9,3.4,1,3.3c0.1-0.1,0-0.4,0-0.6c-0.2-0.8-0.1-1.5,0.1-2.3l0.5,0.2
			c-0.7,1.9,1.8,3.4,2.5,4.3l-1.3,1.3C193.2,130.6,189.9,128.7,190.9,125.3L190.9,125.3"/>
		<path class="st2" d="M190.7,126.8c0.1,1.1,0.6,2.1,1.4,2.8c0.5,0.4,1,0.7,1.5,1.1c0.2,0.2,0.2,0.2,0.3,0.6l0,0
			c-0.6-0.7-3.1-2.3-3.2-4.8l0,0C190.7,126.6,190.7,126.7,190.7,126.8"/>
	</g>
</g>
<path class="st0" d="M13.6,92.8l-1.7-0.7C16,87.4,37.3,79.2,58.2,78c20.9-1.1,41.3,4.8,43.7,28.7c0.7,7-2,14.1-7.2,21.3
	c-2.5,3.4,7.6-2.2,12.5-11.7l0.9,2.2c-4.5,8.7-17.5,14.9-14.9,8.5c5-6.9,7.5-13.7,6.8-20.2c-2.2-22.4-21.5-28.1-41.8-27
	C37.8,80.9,16.9,89.1,13.6,92.8z"/>
<g>
	<defs>
		<path id="SVGID_45_" d="M13.6,92.8l-1.7-0.7C16,87.4,37.3,79.2,58.2,78c20.9-1.1,41.3,4.8,43.7,28.7c0.7,7-2,14.1-7.2,21.3
			c-2.5,3.4,7.6-2.2,12.5-11.7l0.9,2.2c-4.5,8.7-17.5,14.9-14.9,8.5c5-6.9,7.5-13.7,6.8-20.2c-2.2-22.4-21.5-28.1-41.8-27
			C37.8,80.9,16.9,89.1,13.6,92.8z"/>
	</defs>
	<clipPath id="SVGID_46_">
		<use xlink:href="#SVGID_45_"  style="overflow:visible;"/>
	</clipPath>
	<g class="st28">
		<path class="st9" d="M13.6,92.8l-1.7-0.7C16,87.4,37.3,79.2,58.2,78c20.9-1.1,41.3,4.8,43.7,28.7c0.7,7-2,14.1-7.2,21.3
			c-2.5,3.4,7.6-2.2,12.5-11.7l0.9,2.2c-4.5,8.7-17.5,14.9-14.9,8.5c5-6.9,7.5-13.7,6.8-20.2c-2.2-22.4-21.5-28.1-41.8-27
			C37.8,80.9,16.9,89.1,13.6,92.8"/>
		<path class="st9" d="M107.4,116.8c-6,11.2-13.2,12.6-13.3,12.6c4,0.5,10.9-7.6,13.5-12l0.5,1.2c-4.5,8.7-17.5,14.9-14.9,8.5
			c5-6.9,7.5-13.7,6.8-20.2c-2.2-22.5-21.5-28.2-41.8-27.1c-20.5,1.1-41.4,9.3-44.7,13l-1-0.4l0,0c3.8-2.9,36.7-19.9,70.2-10.7
			c-17.7-9.9-64,2.2-70.3,10.6L12,92.1C16,87.4,37.3,79.2,58.2,78c20.9-1.1,41.3,4.8,43.7,28.7c0.7,7-2,14.1-7.2,21.3
			c-2.5,3.4,7.6-2.2,12.5-11.7L107.4,116.8"/>
		<path class="st5" d="M107.3,116.3c-4.5,8.1-11.1,13-13.6,12.8c0.1,0.1,0.2,0.3,0.3,0.4c1.7,0.7,9.7-3.8,13.9-11.7l0.3,0.7
			c-4.5,8.7-17.5,14.9-14.9,8.5c5-6.9,7.5-13.7,6.8-20.2c-2.2-22.5-21.5-28.2-41.8-27.1c-20.5,1.1-41.4,9.3-44.7,13l-0.5-0.2l0,0
			c0.3-0.3,38.5-25,77-6.8c-3-5.2-26.6-13.7-62.1-1.8c-1,0.3-2,0.7-2.9,1c-2.8,1.1-10.4,4-13.1,7.1c4-4.7,25.3-12.9,46.3-14.1
			s41.3,4.8,43.7,28.7c0.7,7-2,14.1-7.2,21.3C92.3,131.4,102.4,125.8,107.3,116.3L107.3,116.3"/>
		<path class="st2" d="M94.5,129c-0.8-0.3-1.2-0.4-0.9-1.2c1.1-2.7,3-4.7,4.3-7.2c1.6-3.2,2.7-6.6,3.1-10.1
			c0.5-4.3,0.8-19.1-13.6-27.3c7.8,4.4,13.3,11.8,14.5,23.5c0.7,7-2,14.1-7.2,21.3C94.3,128.6,94.3,128.9,94.5,129L94.5,129"/>
		<path class="st11" d="M74.1,79.4c-22.9-1.5-32.5,0.6-55.9,9.2c11.9-6.4,38.1-13.2,56.4-9.2H74.1"/>
		<path class="st11" d="M96.2,128.9c-0.6,0.3-1.2,0.5-1.9,0.5c0.8-0.1,1.5-0.3,2.3-0.7L96.2,128.9"/>
	</g>
</g>
<path class="st0" d="M108.1,118.5l-0.9-2.2l10.5,3.8l-2.3,1.1L108.1,118.5z"/>
<g>
	<defs>
		<polygon id="SVGID_47_" points="108.1,118.5 107.3,116.3 117.8,120.1 115.5,121.2 		"/>
	</defs>
	<clipPath id="SVGID_48_">
		<use xlink:href="#SVGID_47_"  style="overflow:visible;"/>
	</clipPath>
	<g class="st29">
		<path class="st5" d="M115.5,121.2l-7.4-2.7l-0.3-0.8l8.5,3.1L115.5,121.2"/>
		<path class="st9" d="M116.3,120.8l-8.5-3.1l-0.2-0.6l9.3,3.3L116.3,120.8"/>
		<path class="st11" d="M116.9,120.5l-9.3-3.3l-0.1-0.3l9.7,3.5L116.9,120.5"/>
		<path class="st9" d="M117.2,120.4l-9.7-3.5l-0.2-0.5l10.5,3.8L117.2,120.4"/>
		<path class="st5" d="M117.7,120.1l-10.5-3.8l0,0L117.7,120.1L117.7,120.1"/>
	</g>
</g>
<path class="st0" d="M115.5,121.2l2.3-1.1c-0.8,2.2-10.4,10.4-9.3,14.9c0.5,2,6.7-3.4,9.4-5.9l1.9,0.7c-3.5,3.2-11,9.8-13.1,5.6
	C105.5,129.6,115.6,121.2,115.5,121.2z"/>
<g>
	<defs>
		<path id="SVGID_49_" d="M115.5,121.2l2.3-1.1c-0.8,2.2-10.4,10.4-9.3,14.9c0.5,2,6.7-3.4,9.4-5.9l1.9,0.7
			c-3.5,3.2-11,9.8-13.1,5.6C105.5,129.6,115.6,121.2,115.5,121.2z"/>
	</defs>
	<clipPath id="SVGID_50_">
		<use xlink:href="#SVGID_49_"  style="overflow:visible;"/>
	</clipPath>
	<g class="st30">
		<path class="st9" d="M115.5,121.2l2.3-1.1c-0.8,2.2-10.4,10.4-9.3,14.9c0.5,2,6.7-3.4,9.4-5.9l1.9,0.7c-3.5,3.2-11,9.8-13.1,5.6
			C105.6,129.6,115.6,121.2,115.5,121.2"/>
		<path class="st9" d="M118.3,129.3c-7,6.3-8.9,6.4-9.7,6.5c-0.1,0-0.3,0-0.3,0.1c0,0,0,0.1,0,0.1c0.2,0.3,1.2,0.6,3.3-0.8
			c2.5-1.8,4.9-3.7,7.1-5.8l1.1,0.4c-3.5,3.2-11,9.8-13.1,5.6c-1.2-5.8,8.9-14.2,8.8-14.2l2.3-1.1c-0.8,2.2-10.4,10.4-9.3,14.9
			c0.5,2,6.7-3.4,9.4-5.9L118.3,129.3"/>
		<path class="st5" d="M117.9,129.1c-6.4,5.7-8.2,6.4-9,6.4c-1.2,0-1.2,0.9,0,1c2.4,0.1,6.8-3.6,10.3-6.8l0.5,0.2
			c-3.5,3.2-11,9.8-13.1,5.6c-1.2-5.8,8.9-14.2,8.8-14.2l2.3-1.1c-0.8,2.2-10.4,10.4-9.3,14.9C108.9,137,115.1,131.6,117.9,129.1
			L117.9,129.1"/>
		<path class="st2" d="M108.7,135.3c-1.2-0.7-1.2-0.7-1.3-1.6c0.1-1.1,0.4-2.2,0.9-3.1c2.2-3.7,4.9-7,8.1-9.9l1.4-0.7
			c-0.8,2.2-10.4,10.4-9.3,14.9C108.5,135.1,108.6,135.3,108.7,135.3L108.7,135.3"/>
		<path class="st11" d="M110.7,135.5c-1.1,0.7-2.1,0.7-2,0.4c0.1-0.2,0.1,0,0.1-0.1c0.3-0.1,0.6-0.1,0.9-0.1
			c0.3-0.1,0.6-0.2,0.9-0.3c0.3-0.1,0.3-0.2,0.4-0.1l0,0C110.9,135.4,110.7,135.4,110.7,135.5"/>
	</g>
</g>
<path class="st0" d="M119.7,129.8l-1.9-0.7c-1.5-11.7,7.8-46.1,31.7-50.2l0.3,1.7C127.3,84.4,118.2,117.8,119.7,129.8z"/>
<g>
	<defs>
		<path id="SVGID_51_" d="M119.7,129.8l-1.9-0.7c-1.5-11.7,7.8-46.1,31.7-50.2l0.3,1.7C127.3,84.4,118.2,117.8,119.7,129.8z"/>
	</defs>
	<clipPath id="SVGID_52_">
		<use xlink:href="#SVGID_51_"  style="overflow:visible;"/>
	</clipPath>
	<g class="st31">
		<path class="st11" d="M119.7,129.8l-1.9-0.7c-1.5-11.7,7.8-46.1,31.7-50.2l0.3,1.7C127.2,84.4,118.2,117.7,119.7,129.8"/>
		<path class="st11" d="M149.6,79.2c-0.3,0.5-1.3,0.3-2,0.4c-1.9,0.5-3.7,1.2-5.4,2.2c2.6-0.4,4.9-1.7,7.5-2.2l0.2,1
			c-22.7,3.8-31.6,37.1-30.1,49.2l-1.2-0.4l0,0c-0.8-8.7,2.2-17.8,3.8-22.8c-1.6,3.2-5.3,15-4.2,22.7l-0.4-0.1
			c-1.5-11.7,7.8-46.1,31.7-50.2L149.6,79.2"/>
		<path class="st9" d="M149.6,79.1c-0.4,0.6-1.5,0.3-2.2,0.5c-10.4,2.2-18.2,13.5-20.3,16.9c-6.1,9.7-9.9,23.8-8.9,32.7l-0.3-0.1
			c-1.5-11.7,7.8-46.1,31.7-50.2L149.6,79.1"/>
		<path class="st9" d="M149.9,80.6c-22.7,3.8-31.6,37.1-30.1,49.2l-1-0.4l0,0c-0.5-5.5,2.6-43.6,30.9-49.6L149.9,80.6"/>
		<path class="st5" d="M149.9,80.6c-22.7,3.8-31.6,37.1-30.1,49.2l-0.7-0.3l0,0c-0.8-8.9,4.7-43.8,30.7-49.3L149.9,80.6"/>
		<path class="st5" d="M149.6,78.9c-25.8,5.5-32.9,40.4-31.5,50.3C116.4,117.4,125.7,82.9,149.6,78.9L149.6,78.9"/>
		<path class="st2" d="M117.8,127.9l0.1,1.2c-0.1-0.8-0.1-1.6-0.1-2.4C117.7,127,117.7,127.5,117.8,127.9"/>
	</g>
</g>
<path class="st0" d="M149.9,80.6l-0.3-1.7c5.6-0.7,7.1,2.2,7.6,4.3l-1.7,0.4C155,82,154.1,80.1,149.9,80.6z"/>
<g>
	<defs>
		<path id="SVGID_53_" d="M149.9,80.6l-0.3-1.7c5.6-0.7,7.1,2.2,7.6,4.3l-1.7,0.4C155,82,154.1,80.1,149.9,80.6z"/>
	</defs>
	<clipPath id="SVGID_54_">
		<use xlink:href="#SVGID_53_"  style="overflow:visible;"/>
	</clipPath>
	<g class="st32">
		<path class="st11" d="M149.9,80.6l-0.3-1.7c5.6-0.7,7.1,2.2,7.6,4.3l-1.7,0.4C155.1,82,154.1,80.1,149.9,80.6"/>
		<path class="st11" d="M155.4,83.5c-0.4-1.5-1.3-3.4-5.6-2.9l-0.2-1l0,0c0.7-0.1,1.4-0.1,2.1-0.1c0.3,0,0.6,0,0.9,0l0,0
			c0,0-0.5-0.5-3.1-0.2v-0.3c5.6-0.7,7.1,2.2,7.6,4.3L155.4,83.5"/>
		<path class="st9" d="M155.4,83.5c-0.4-1.5-1.3-3.4-5.6-2.9l-0.1-0.8l0,0c1.1-0.1,2.1-0.1,3.2,0c0.6,0,1.1,0.1,0.8-0.2
			s-1.1-0.8-4.1-0.5v-0.3c5.6-0.7,7.1,2.2,7.6,4.3L155.4,83.5"/>
		<path class="st5" d="M155.4,83.5c-0.4-1.5-1.3-3.4-5.6-2.9l-0.1-0.5l0,0c1.3-0.2,2.7-0.2,4,0.2c0.3,0.1,0.6,0.1,0.9,0.1
			c0.5-0.1-0.1-0.9-0.3-1c-0.5-0.4-1.8-0.9-4.8-0.6c5.6-0.7,7.1,2.1,7.6,4.3L155.4,83.5"/>
		<path class="st2" d="M156.5,83.3c-0.1-1.8-0.2-2.7-1.9-3.8c1.3,0.8,2.2,2.1,2.5,3.6L156.5,83.3"/>
	</g>
</g>
<path class="st0" d="M155.4,83.5l1.7-0.4c1,4.2-2.2,11.6-2,11.4l1.5,1C153.5,96.8,156.3,87.1,155.4,83.5z"/>
<g>
	<defs>
		<path id="SVGID_55_" d="M155.4,83.5l1.7-0.4c1,4.2-2.2,11.6-2,11.4l1.5,1C153.5,96.8,156.3,87.1,155.4,83.5z"/>
	</defs>
	<clipPath id="SVGID_56_">
		<use xlink:href="#SVGID_55_"  style="overflow:visible;"/>
	</clipPath>
	<g class="st33">
		<path class="st9" d="M155.4,83.5l1.7-0.4c1,4.2-2.2,11.6-2,11.4l1.5,1C153.5,96.8,156.3,87.1,155.4,83.5"/>
		<path class="st9" d="M155.5,94.7c0.1,0.2,0,0.4,0.3,0.5c0.3,0.1,0.2-0.1,0.2-0.2l0.6,0.4c-3.1,1.3-0.3-8.4-1.2-11.9l1.7-0.4
			c1,4.2-2.2,11.6-2,11.4L155.5,94.7"/>
		<path class="st5" d="M155.1,94.5c0.3,0.2,0.3,0.6,0.6,0.8c0.3,0.2,0.3,0,0.5-0.1l0.3,0.2c-3.1,1.3-0.3-8.4-1.2-11.9l1.7-0.4
			C158.1,87.3,154.9,94.7,155.1,94.5L155.1,94.5"/>
		<path class="st2" d="M155.1,94.5c0,0.2,0.3,0.3,0.4,0.5c-0.6-0.4,0-3.4,0.3-5.3c0.4-2.1,0.7-4.3,0.7-6.4l0.6-0.2
			C158.1,87.3,155,94.6,155.1,94.5L155.1,94.5"/>
		<path class="st11" d="M155.7,94.9c0,0,0,0.1,0,0.1c-0.1,0-0.1-0.1-0.2-0.2C155.6,94.9,155.6,94.9,155.7,94.9"/>
	</g>
</g>
<path class="st0" d="M156.6,95.4l-1.5-1c4.3-5.7,8.3-12.1,16.5-15l0.6,1.7C164.6,83.8,160.8,89.9,156.6,95.4z"/>
<g>
	<defs>
		<path id="SVGID_57_" d="M156.6,95.4l-1.5-1c4.3-5.7,8.3-12.1,16.5-15l0.6,1.7C164.6,83.8,160.8,89.9,156.6,95.4z"/>
	</defs>
	<clipPath id="SVGID_58_">
		<use xlink:href="#SVGID_57_"  style="overflow:visible;"/>
	</clipPath>
	<g class="st34">
		<path class="st11" d="M156.6,95.4l-1.5-1c4.3-5.7,8.3-12.1,16.5-15l0.6,1.7C164.6,83.8,160.9,89.9,156.6,95.4"/>
		<path class="st11" d="M171.8,79.8c-1,0.3-1.9,0.7-2.7,1.3c1-0.2,1.9-0.6,2.9-1l0.3,1c-7.6,2.7-11.4,8.7-15.6,14.3l-1.5-1
			c4.3-5.7,8.3-12.2,16.5-15L171.8,79.8"/>
		<path class="st9" d="M171.7,79.7c-5.7,2.1-8.7,4.9-16.2,15l-0.4-0.3c4.4-5.7,8.3-12.2,16.6-15.1V79.7"/>
		<path class="st9" d="M172.2,81.1c-7.6,2.7-11.4,8.7-15.6,14.3l-0.9-0.6l0.4-0.5c5.8-7.8,8.5-11.4,15.8-14L172.2,81.1"/>
		<path class="st5" d="M172.2,81.1c-7.6,2.7-11.4,8.7-15.6,14.3l-0.4-0.3l0,0c6-8,8.4-11.3,14.5-13.9l0.7-0.3l0.7-0.3L172.2,81.1"/>
		<path class="st5" d="M171.7,79.4c-7.2,2.7-9.9,6.3-16.5,15C159.4,88.8,163.4,82.3,171.7,79.4L171.7,79.4"/>
	</g>
</g>
<path class="st0" d="M172.2,81.1l-0.6-1.7c2.6-0.9,5.3-1.1,7.2,0.7l-1.3,1.3C176.5,80.3,174.4,80.4,172.2,81.1z"/>
<g>
	<defs>
		<path id="SVGID_59_" d="M172.2,81.1l-0.6-1.7c2.6-0.9,5.3-1.1,7.2,0.7l-1.3,1.3C176.5,80.3,174.4,80.4,172.2,81.1z"/>
	</defs>
	<clipPath id="SVGID_60_">
		<use xlink:href="#SVGID_59_"  style="overflow:visible;"/>
	</clipPath>
	<g class="st35">
		<path class="st11" d="M172.2,81.1l-0.6-1.7c2.6-0.9,5.3-1.1,7.2,0.7l-1.3,1.3C176.5,80.2,174.5,80.3,172.2,81.1"/>
		<path class="st11" d="M177.6,81.4c-1.1-1.2-3.2-1.1-5.3-0.3l-0.3-1l0,0c1.2-0.4,2.5-0.6,3.8-0.7c0.3,0,0.6,0,0.6-0.1l0,0
			c0,0-1.2-0.8-4.5,0.5l-0.1-0.5c2.6-0.9,5.3-1.1,7.2,0.7L177.6,81.4"/>
		<path class="st9" d="M177.6,81.4c-1.1-1.2-3.2-1.1-5.3-0.3l-0.3-0.8l0,0c1.4-0.5,2.8-0.7,4.3-0.6c0.4,0,1.5,0.1,0.5-0.4
			c-0.4-0.2-1.9-0.8-5,0.4l-0.1-0.3c2.6-0.9,5.3-1.1,7.2,0.7L177.6,81.4"/>
		<path class="st5" d="M177.6,81.4c-1.1-1.2-3.2-1.1-5.3-0.3l-0.2-0.5l0,0c1.5-0.6,3.2-0.8,4.8-0.5c0.7,0.1,1,0.2,1.1,0
			c0-0.4-0.3-0.8-0.7-1c-0.8-0.4-2.5-0.8-5.6,0.3c2.6-0.9,5.3-1.1,7.2,0.7L177.6,81.4"/>
		<path class="st2" d="M178.8,80.2c-0.3-0.3-0.6-0.6-1-0.8C178.2,79.6,178.5,79.9,178.8,80.2L178.8,80.2"/>
	</g>
</g>
<path class="st0" d="M177.6,81.4l1.3-1.3c8.5,10.5-16.9,40.9-23.8,45.9l-1.8-0.9C160.6,119.9,185,90.2,177.6,81.4z"/>
<g>
	<defs>
		<path id="SVGID_61_" d="M177.6,81.4l1.3-1.3c8.5,10.5-16.9,40.9-23.8,45.9l-1.8-0.9C160.6,119.9,185,90.2,177.6,81.4z"/>
	</defs>
	<clipPath id="SVGID_62_">
		<use xlink:href="#SVGID_61_"  style="overflow:visible;"/>
	</clipPath>
	<g class="st36">
		<path class="st2" d="M177.6,81.4l1.3-1.3c8.5,10.5-16.9,40.9-23.8,45.9l-1.8-0.9C160.6,119.9,185,90.2,177.6,81.4"/>
		<path class="st2" d="M153.8,125.4c11.1-8.4,30.9-37.1,25-45.2c8.6,10.5-16.9,40.9-23.7,45.9L153.8,125.4"/>
	</g>
</g>
<path class="st0" d="M153.3,125.2l1.8,0.9c0,1,0.2,1.9,0.8,2.7l-1.3,1.3C153.3,128.5,153.3,126.2,153.3,125.2z"/>
<g>
	<defs>
		<path id="SVGID_63_" d="M153.3,125.2l1.8,0.9c0,1,0.2,1.9,0.8,2.7l-1.3,1.3C153.3,128.5,153.3,126.2,153.3,125.2z"/>
	</defs>
	<clipPath id="SVGID_64_">
		<use xlink:href="#SVGID_63_"  style="overflow:visible;"/>
	</clipPath>
	<g class="st37">
		<path class="st2" d="M153.3,125.2l1.8,0.9c0,1,0.2,1.9,0.8,2.7l-1.3,1.3c-1.3-1.4-1.3-3.8-1.3-4.8"/>
		<path class="st2" d="M155.9,128.8c-0.3-0.2-0.6-0.4-0.9-0.7c-0.1-0.1-0.2-0.3-0.3-0.4c-0.3-0.6-0.5-1.3-0.5-2l0.9,0.5
			C155,127,155.3,128,155.9,128.8L155.9,128.8"/>
	</g>
</g>
<path class="st0" d="M154.6,130l1.3-1.3c3.5,1.8,7.2-2.1,7.3-2.3l1.8,0.7C164.3,127.8,159.9,132.6,154.6,130z"/>
<g>
	<defs>
		<path id="SVGID_65_" d="M154.6,130l1.3-1.3c3.5,1.8,7.2-2.1,7.3-2.3l1.8,0.7C164.3,127.8,159.9,132.6,154.6,130z"/>
	</defs>
	<clipPath id="SVGID_66_">
		<use xlink:href="#SVGID_65_"  style="overflow:visible;"/>
	</clipPath>
	<g class="st38">
		<path class="st9" d="M154.6,130l1.3-1.3c3.5,1.8,7.2-2.1,7.3-2.3l1.8,0.7C164.3,127.8,160,132.6,154.6,130"/>
		<path class="st9" d="M163.8,126.6c-1.9,2-4.5,3-7.3,2.8c-0.4,0-0.6-0.1-0.6,0s1.3,1.1,3.3,0.6c2-0.5,3.2-1.7,4.7-3.3l1.1,0.4
			c-0.7,0.8-5.1,5.6-10.4,2.9l1.3-1.3c3.5,1.8,7.2-2.1,7.3-2.3L163.8,126.6"/>
		<path class="st5" d="M165,127.1c-0.7,0.8-5.1,5.6-10.4,2.9l0.5-0.5l0,0c2.7,1.8,6.3,0.7,9.3-2.7L165,127.1"/>
		<path class="st5" d="M163.2,126.4c-0.8,0.8-1.7,1.5-2.7,2.1l-0.3,0.1c-1.4,0.7-3,0.8-4.5,0.2l0.1-0.1
			C159.4,130.5,163,126.6,163.2,126.4L163.2,126.4"/>
		<path class="st11" d="M160.8,129c-0.6,0.4-1.2,0.7-2,0.9c-1.3,0.2-2-0.1-2-0.2c0-0.1,0.2,0,0.5,0c0.5,0,0.9,0,1.4-0.1
			C159.5,129.4,160.1,129.1,160.8,129L160.8,129L160.8,129"/>
	</g>
</g>
<path class="st0" d="M165,127.1l-1.8-0.7c-0.7-21.5,25.8-26.9,27.5-9.7l-1.6,1.7C187.9,101.7,164.3,106.7,165,127.1z"/>
<g>
	<defs>
		<path id="SVGID_67_" d="M165,127.1l-1.8-0.7c-0.7-21.5,25.8-26.9,27.5-9.7l-1.6,1.7C187.9,101.7,164.3,106.7,165,127.1z"/>
	</defs>
	<clipPath id="SVGID_68_">
		<use xlink:href="#SVGID_67_"  style="overflow:visible;"/>
	</clipPath>
	<g class="st39">
		<path class="st11" d="M165,127.1l-1.8-0.7c-0.7-21.5,25.8-26.9,27.5-9.7l-1.6,1.7C187.9,101.7,164.3,106.7,165,127.1"/>
		<path class="st11" d="M189.1,118.3c-1.2-16.7-24.8-11.6-24.1,8.7l-1.1-0.4l0,0c-0.1-2.9,0.2-5.8,1.1-8.6c-0.6,0.8-1.5,2.9-1.5,8.4
			l-0.4-0.1c-0.7-21.5,25.8-26.9,27.5-9.7L189.1,118.3"/>
		<path class="st9" d="M189.1,118.3c-1.2-16.7-24.8-11.6-24.1,8.7l-0.9-0.3l0,0c0-2.5,0-10,5.3-15c2-1.8,4.3-3,6.8-3.8
			c2.2-0.6,4.6-0.7,6.9-0.3c0.7,0.1,0.7,0.1,0.9,0.1c-1.7-2.4-17.7-0.9-20.2,13.8c-0.3,1.6-0.4,3.3-0.3,5l-0.3-0.1
			c-0.7-21.5,25.8-26.9,27.5-9.7L189.1,118.3"/>
		<path class="st5" d="M189.1,118.3c-1.2-16.7-24.8-11.6-24.1,8.7l-0.6-0.2c0-0.6,0-1.3,0-1.9c1.2-13.7,11.7-19.4,20.8-16.1
			c0.5,0.2,0.9,0.3,1,0.2c0.3-0.8-4.6-4.1-11.4-1.5c-5.9,2.3-12,8.5-11.5,19c-0.8-21.5,25.7-27,27.4-9.8L189.1,118.3"/>
		<path class="st2" d="M189.9,117.5c0-4-0.4-7.3-4.5-9.7c3.1,1.9,5.1,5.2,5.2,8.8L189.9,117.5"/>
		<path class="st11" d="M182,107.2c-0.2,0-0.3,0-0.5,0c-1.3,0-2.7,0.1-4,0.3c-1.2,0.2-2.4,0.6-3.5,1c-0.2,0.1-0.3,0.1-0.5,0.1
			c0.5-1.1,7.3-2.6,8.6-1.5L182,107.2"/>
		<path class="st2" d="M163.2,126.4c0-0.2,0-0.4,0-0.5l0,0V126.4"/>
	</g>
</g>
<path class="st0" d="M189.1,118.3l1.6-1.7c3.2,0.1,12-6.9,13.6-10l0.8,2.4C204.1,111,194.7,118.5,189.1,118.3z"/>
<g>
	<defs>
		<path id="SVGID_69_" d="M189.1,118.3l1.6-1.7c3.2,0.1,12-6.9,13.6-10l0.8,2.4C204.1,111,194.7,118.5,189.1,118.3z"/>
	</defs>
	<clipPath id="SVGID_70_">
		<use xlink:href="#SVGID_69_"  style="overflow:visible;"/>
	</clipPath>
	<g class="st40">
		<path class="st11" d="M189.1,118.3l1.6-1.7c3.2,0.1,12-6.9,13.6-10l0.8,2.4C204.1,111,194.7,118.5,189.1,118.3"/>
		<path class="st11" d="M205,109.1c-1,1.9-10.3,9.4-16,9.3l0.9-1l0,0c1.5,0.4,4.1-1.1,4.3-1.3c-0.8,0.2-1.5,0.6-2.4,0.8
			c-0.5,0.2-1.1,0.2-1.6,0.1l0.3-0.4c3.2,0.1,12-6.9,13.6-10L205,109.1"/>
		<path class="st9" d="M204.4,107.1c-2,4.1-11.2,10.2-13.9,9.8l0.3-0.3c3.2,0.1,12-6.9,13.6-10L204.4,107.1"/>
		<path class="st9" d="M205,109.1c-1,1.9-10.3,9.4-16,9.3l0.8-0.8l0,0c0.8,0.2,2.8,0,6.8-2.7c1.4-0.9,2.7-2,4-3.1
			c1.3-1.3,2.5-2.8,4-4L205,109.1"/>
		<path class="st5" d="M205,109.1c-1,1.9-10.3,9.4-16,9.3l0.5-0.5l0,0c4.1,0.5,12.4-5.6,15.3-9.5L205,109.1"/>
		<path class="st5" d="M204.3,106.7c-1.6,3-10.1,9.9-13.6,10C193.9,116.8,202.7,109.7,204.3,106.7L204.3,106.7"/>
	</g>
</g>
<path class="st0" d="M208.6,127.1l-1.8,0.1c0-2.1,2.3-4.7,2.7-5.4l2.7-1.1C210.5,123.6,208.5,125.9,208.6,127.1z"/>
<g>
	<defs>
		<path id="SVGID_71_" d="M208.6,127.1l-1.8,0.1c0-2.1,2.3-4.7,2.7-5.4l2.7-1.1C210.5,123.6,208.5,125.9,208.6,127.1z"/>
	</defs>
	<clipPath id="SVGID_72_">
		<use xlink:href="#SVGID_71_"  style="overflow:visible;"/>
	</clipPath>
	<g class="st41">
		<path class="st11" d="M208.6,127.1l-1.8,0.1c0-2.1,2.3-4.7,2.7-5.4l2.7-1.1C210.4,123.6,208.4,125.9,208.6,127.1"/>
		<path class="st11" d="M212.2,120.8c-1.7,2.9-3.7,5.1-3.6,6.4l-1.1,0.1l0,0c0.1-1.3,0.1-1.3,0.1-1.3c-0.3,0.4-0.5,0.8-0.4,1.3h-0.3
			c0-2.1,2.3-4.7,2.7-5.4L212.2,120.8"/>
		<path class="st9" d="M210.1,121.6c0,0.3-0.3,0.6-1.1,1.8c-1.2,1.6-1.9,2.7-1.9,3.8h-0.3c0-2.1,2.3-4.7,2.7-5.4L210.1,121.6"/>
		<path class="st9" d="M212.2,120.8c-1.7,2.9-3.7,5.1-3.6,6.4h-0.9l0,0c0.1-0.8,0.3-1.6,0.7-2.3c0.6-1.2,1.6-2.3,2.3-3.5
			L212.2,120.8"/>
		<path class="st5" d="M212.2,120.8c-1.7,2.9-3.7,5.1-3.6,6.4h-0.6l0,0c0.4-1.5,1.1-2.8,2.1-4c0.5-0.7,0.9-1.4,1.3-2.1L212.2,120.8"
			/>
		<path class="st5" d="M209.5,121.8c-0.7,1-1.4,2.1-2.1,3.2c-0.4,0.7-0.6,1.5-0.5,2.2h-0.1C206.8,125.1,209.1,122.6,209.5,121.8
			L209.5,121.8"/>
	</g>
</g>
<path class="st0" d="M203.9,121.9l4.5-5.5c0.6-0.5,12.4-9.1,16.1-5.9l-1.2,1.3C221.2,109.6,210.1,117.3,203.9,121.9z"/>
<g>
	<defs>
		<path id="SVGID_73_" d="M203.9,121.9l4.5-5.5c0.6-0.5,12.4-9.1,16.1-5.9l-1.2,1.3C221.2,109.6,210.1,117.3,203.9,121.9z"/>
	</defs>
	<clipPath id="SVGID_74_">
		<use xlink:href="#SVGID_73_"  style="overflow:visible;"/>
	</clipPath>
	<g class="st42">
		<path class="st9" d="M203.9,121.9l4.5-5.5c0.6-0.5,12.4-9.1,16.1-5.9l-1.2,1.3C221.2,109.5,210.1,117.3,203.9,121.9"/>
		<path class="st9" d="M223.5,111.8c-2.3-2.3-13.3,5.5-19.5,10.1l2.4-3l0,0c4-3.1,11.6-8.2,16.4-8.3c0.3,0,0.7,0,0.8-0.1
			c0.1-0.1-0.9-0.9-3.7-0.1c-3.2,0.9-8,3.7-12.5,7.2l1-1.2c0.6-0.5,12.4-9.1,16.1-5.9L223.5,111.8"/>
		<path class="st5" d="M223.5,111.8c-2.3-2.3-13.3,5.5-19.5,10.1l1.2-1.5l0,0c2.4-1.8,3.8-2.8,5.8-4.2l0.7-0.5c5.5-3.5,9-5,11.4-4.8
			c1.9,0.2,0.7-1,0.2-1.1c-4.4-1.1-13.8,5.7-14.9,6.5c0.6-0.5,12.4-9.1,16.2-5.9L223.5,111.8"/>
		<path class="st11" d="M222.9,110.4c-0.2,0-0.4,0.1-0.6,0.1c-1,0.1-2,0.3-3,0.6c-1.1,0.3-2,0.9-3.1,1.1
			C218,110.8,222.9,109.5,222.9,110.4C223,110.3,223,110.3,222.9,110.4"/>
		<path class="st2" d="M224.6,110.5c-0.1-0.1-0.3-0.2-0.4-0.3C224.3,110.2,224.5,110.4,224.6,110.5L224.6,110.5"/>
	</g>
</g>
<path class="st0" d="M223.5,111.8l1.2-1.3c2.4,1.7-1.2,5-5.8,11.7l-3.9,2.5C222,114.4,224.5,111.9,223.5,111.8z"/>
<g>
	<defs>
		<path id="SVGID_75_" d="M223.5,111.8l1.2-1.3c2.4,1.7-1.2,5-5.8,11.7l-3.9,2.5C222,114.4,224.5,111.9,223.5,111.8z"/>
	</defs>
	<clipPath id="SVGID_76_">
		<use xlink:href="#SVGID_75_"  style="overflow:visible;"/>
	</clipPath>
	<g class="st43">
		<path class="st5" d="M223.5,111.8l1.2-1.3c2.4,1.7-1.2,5-5.8,11.7l-3.9,2.5C222,114.5,224.5,111.9,223.5,111.8"/>
		<path class="st5" d="M214.9,124.7c7.1-10.2,9.6-12.7,8.5-12.8l0.4-0.5l0,0c0.5-0.2,0.6-0.4,0.5-0.6l0.2-0.3
			c2.4,1.7-1.2,5-5.8,11.7L214.9,124.7"/>
		<path class="st2" d="M216.2,123.9c2.3-3.4,5-6.6,7.2-10.1c0.4-0.6,0.7-1.3,1.1-1.9c0.2-0.3,0.5-0.4,0.6-0.7s-0.3-0.6-0.4-0.7
			c2.4,1.7-1.2,5-5.8,11.7L216.2,123.9"/>
	</g>
</g>
<path class="st0" d="M214.9,124.7l3.9-2.5c2.4-0.4,11.2-7.6,13.3-10.1l1.8,0.6C231.3,115.8,222.1,123.3,214.9,124.7z"/>
<g>
	<defs>
		<path id="SVGID_77_" d="M214.9,124.7l3.9-2.5c2.4-0.4,11.2-7.6,13.3-10.1l1.8,0.6C231.3,115.8,222.1,123.3,214.9,124.7z"/>
	</defs>
	<clipPath id="SVGID_78_">
		<use xlink:href="#SVGID_77_"  style="overflow:visible;"/>
	</clipPath>
	<g class="st44">
		<path class="st11" d="M214.9,124.7l3.9-2.5c2.4-0.4,11.2-7.6,13.3-10.1l1.8,0.6C231.3,115.8,222.1,123.3,214.9,124.7"/>
		<path class="st11" d="M233.9,112.7c-2.6,3.1-11.7,10.6-18.9,12l2.2-1.4l0,0c1.1-0.1,2.2-0.5,3.1-1.1c-2.1,0.6-2.1,0.6-2.2,0.5
			l0.8-0.5c2.4-0.4,11.2-7.6,13.3-10.1L233.9,112.7"/>
		<path class="st9" d="M232.6,112.2c-1.4,2-12,10.7-14.3,10.3l0.6-0.4c2.4-0.4,11.2-7.6,13.3-10.1L232.6,112.2"/>
		<path class="st9" d="M233.9,112.7c-2.6,3.1-11.7,10.6-18.9,12l1.8-1.1l0,0c3.3,0.2,12.8-7.2,16-11.2L233.9,112.7"/>
		<path class="st5" d="M233.9,112.7c-2.6,3.1-11.7,10.6-18.9,12l1.1-0.7l0,0c5-0.5,14.5-8,17.3-11.5L233.9,112.7"/>
		<path class="st5" d="M232.1,112.1c-2.2,2.5-10.6,9.4-13.3,10.1C221.1,121.7,230,114.5,232.1,112.1L232.1,112.1"/>
	</g>
</g>
<path class="st0" d="M233.9,112.7l-1.8-0.6c0-1.4-2.7-7.9,6.8-11.2l0.6,1.7C231.7,105.3,233.9,110.4,233.9,112.7z"/>
<g>
	<defs>
		<path id="SVGID_79_" d="M233.9,112.7l-1.8-0.6c0-1.4-2.7-7.9,6.8-11.2l0.6,1.7C231.7,105.3,233.9,110.4,233.9,112.7z"/>
	</defs>
	<clipPath id="SVGID_80_">
		<use xlink:href="#SVGID_79_"  style="overflow:visible;"/>
	</clipPath>
	<g class="st45">
		<path class="st11" d="M233.9,112.7l-1.8-0.6c0-1.4-2.7-7.9,6.8-11.2l0.6,1.7C231.6,105.3,233.9,110.4,233.9,112.7"/>
		<path class="st11" d="M239,101.2c-0.7,0.2-1.4,0.6-2,1c0.7-0.1,1.4-0.4,2.1-0.7l0.3,1c-7.8,2.8-5.6,7.8-5.6,10.2l-1.1-0.4l0,0
			c0-1-0.3-2-0.4-3c0.2-0.9,0.2-1.9,0.2-2.8c0,0-1,1-0.4,4.4c0.1,0.4,0.2,0.9,0.1,1.3l-0.3-0.1c0-1.4-2.7-7.9,6.8-11.2L239,101.2"/>
		<path class="st9" d="M238.9,101.1c-1.2,0.4-2.4,1-3.5,1.8c0,0-2.5,2.5-2.7,2.8c-0.9,1.6-1.1,3.4-0.6,5.1c0.1,0.4,0.2,0.9,0.1,1.3
			l-0.3-0.1c0-1.4-2.7-7.9,6.8-11.2L238.9,101.1"/>
		<path class="st9" d="M239.4,102.5c-7.8,2.8-5.6,7.8-5.6,10.2l-0.9-0.3l0,0c0-1-0.3-2-0.3-3c0-0.1,0-0.2,0-0.4
			c0.1-3.9,1.5-5.3,6.5-7.2L239.4,102.5"/>
		<path class="st5" d="M239.4,102.5c-7.8,2.8-5.6,7.8-5.6,10.2l-0.6-0.2v-0.2c-0.5-4.4-0.8-7.6,6-10.2L239.4,102.5"/>
		<path class="st5" d="M238.8,100.9c-1.3,0.5-4.6,1.7-6,4.2c-1,1.7-1.3,3.8-0.7,5.7c0.2,0.9,0.2,1.1,0.1,1.3h-0.1
			C232.1,110.8,229.4,104.3,238.8,100.9L238.8,100.9"/>
		<path class="st2" d="M231.7,109.1c0,0.7,0.1,1.4,0.3,2.2c0,0.2,0.1,0.5,0.1,0.7c-0.2-1-0.3-2-0.4-3.1l0,0
			C231.7,109,231.7,109.1,231.7,109.1"/>
	</g>
</g>
<path class="st0" d="M184.2,112.5l-2.9,2.7c-6.7,1.8-9.9,8-7.5,11.3l-1.5,1C169.1,122.8,173.1,115.4,184.2,112.5z"/>
<g>
	<defs>
		<path id="SVGID_81_" d="M184.2,112.5l-2.9,2.7c-6.7,1.8-9.9,8-7.5,11.3l-1.5,1C169.1,122.8,173.1,115.4,184.2,112.5z"/>
	</defs>
	<clipPath id="SVGID_82_">
		<use xlink:href="#SVGID_81_"  style="overflow:visible;"/>
	</clipPath>
	<g class="st46">
		<path class="st2" d="M184.2,112.5l-2.9,2.7c-6.7,1.8-9.9,8-7.5,11.3l-1.5,1C169.1,122.8,173.1,115.5,184.2,112.5"/>
		<path class="st2" d="M173.7,126.5c-1.5-0.9-2.1-2.7-1.6-4.4c0.6-2.1,1.8-4,3.6-5.2c2.2-1.7,4.8-2.9,7.5-3.5l-2,1.8
			C174.6,117,171.3,123.1,173.7,126.5L173.7,126.5"/>
	</g>
</g>
<path class="st0" d="M187.8,119.1l-4,2.8c-1,0.3-4.2-2.7-2.6-6.9l2.9-2.7C181.8,118.7,183.9,120.3,187.8,119.1z"/>
<g>
	<defs>
		<path id="SVGID_83_" d="M187.8,119.1l-4,2.8c-1,0.3-4.2-2.7-2.6-6.9l2.9-2.7C181.8,118.7,183.9,120.3,187.8,119.1z"/>
	</defs>
	<clipPath id="SVGID_84_">
		<use xlink:href="#SVGID_83_"  style="overflow:visible;"/>
	</clipPath>
	<g class="st47">
		<path class="st9" d="M187.8,119.1l-4,2.8c-1,0.3-4.2-2.7-2.6-6.9l2.9-2.7C181.8,118.7,183.9,120.3,187.8,119.1"/>
		<path class="st9" d="M181.7,114.7c-1.5,2.9-0.2,4.7-0.1,4.6c0.1-0.1,0.1-0.4,0.1-0.9c-0.1-1.6,0.2-3.1,0.9-4.5l1.5-1.3
			c-2.4,6.2-0.3,7.8,3.6,6.7l-4,2.8c-1,0.3-4.2-2.7-2.6-6.9L181.7,114.7"/>
		<path class="st5" d="M181.3,115.1c-1.2,3.3,0.5,5.1,0.7,5s0.1-0.4,0.1-1.6c0-1.8,0.4-3.5,1.2-5.1l0.9-0.8
			c-2.4,6.2-0.3,7.8,3.6,6.7l-4,2.8C182.8,122.2,179.6,119.3,181.3,115.1L181.3,115.1"/>
		<path class="st2" d="M180.8,117.7c0,1.4,0.6,2.7,1.7,3.5c0.2,0.1,0.7,0.3,4.1-1.2l-2.8,2c-0.8,0.2-3-1.6-3-4.5l0,0
			C180.8,117.5,180.8,117.6,180.8,117.7"/>
		<path class="st11" d="M182,114.6c-0.1,0.5-0.3,0.9-0.4,1.3c-0.1,0.4-0.1,0.8-0.2,1.2c-0.1,1.3-0.1,1.3-0.1,1.3l0,0
			c-0.4-0.2-0.5-2.7,0.7-4.2C182.1,114.4,182.1,114.5,182,114.6"/>
	</g>
</g>
<path class="st0" d="M172.3,127.4l1.5-1c3.7,3.3,8.3-1.9,10-4.5l4-2.8C183.3,125.9,177.9,132.2,172.3,127.4z"/>
<g>
	<defs>
		<path id="SVGID_85_" d="M172.3,127.4l1.5-1c3.7,3.3,8.3-1.9,10-4.5l4-2.8C183.3,125.9,177.9,132.2,172.3,127.4z"/>
	</defs>
	<clipPath id="SVGID_86_">
		<use xlink:href="#SVGID_85_"  style="overflow:visible;"/>
	</clipPath>
	<g class="st48">
		<path class="st9" d="M172.3,127.4l1.5-1c3.7,3.3,8.3-1.9,10-4.5l4-2.8C183.3,125.7,177.9,132.2,172.3,127.4"/>
		<path class="st9" d="M184.7,121.3c-2.4,4.4-5.9,6.8-9.3,6.5c-0.3,0-0.6,0-0.6,0c0,0,0.7,0.8,2.2,0.7c3.6-0.4,7.4-5.9,8.5-7.6
			l2.4-1.7c-4.5,6.7-9.9,13.1-15.5,8.4l1.5-1c3.7,3.3,8.3-1.9,10-4.5L184.7,121.3"/>
		<path class="st5" d="M183.8,122c-1.3,2.1-3.2,3.9-5.3,5.1l-0.4,0.1c-1.3,0.5-2.8,0.5-4.1,0c-0.1,0-0.3,0-0.4,0
			c-0.3,0.2,0.7,1.2,2,1.5c3.2,0.7,6.9-2.2,11.1-8.6l1.2-0.8c-4.5,6.7-9.9,13.1-15.5,8.4l1.5-1C177.5,129.8,182.1,124.7,183.8,122
			L183.8,122"/>
		<path class="st11" d="M178.9,127.4c-0.5,0.4-1.2,0.7-1.9,0.8c-0.5,0.1-0.9,0-1.3-0.2l0,0c0,0,0.1,0,0.6-0.1c0.4,0,0.8-0.1,1.2-0.1
			C177.9,127.7,178.4,127.5,178.9,127.4C178.9,127.4,178.9,127.4,178.9,127.4C179,127.4,179,127.4,178.9,127.4"/>
		<path class="st2" d="M174.5,127c-0.3-0.2-0.5-0.3-0.7-0.5l0,0C174,126.7,174.3,126.9,174.5,127L174.5,127L174.5,127"/>
	</g>
</g>
<path class="st0" d="M145.7,127.7l-1.9-0.8c-0.4-2.1-0.4-6.7,3.3-17.6l6.9-14.4C145,120.5,145.2,124.8,145.7,127.7z"/>
<g>
	<defs>
		<path id="SVGID_87_" d="M145.7,127.7l-1.9-0.8c-0.4-2.1-0.4-6.7,3.3-17.6l6.9-14.4C145,120.5,145.2,124.8,145.7,127.7z"/>
	</defs>
	<clipPath id="SVGID_88_">
		<use xlink:href="#SVGID_87_"  style="overflow:visible;"/>
	</clipPath>
	<g class="st49">
		<path class="st11" d="M145.7,127.7l-1.9-0.8c-0.4-2.1-0.4-6.7,3.3-17.6l6.9-14.4C145.1,120.5,145.2,124.8,145.7,127.7"/>
		<path class="st11" d="M153.9,94.9c-8.8,25.6-8.7,29.9-8.2,32.8l-1.2-0.5l0,0c-0.8-5.8,1.9-14.4,5-22.9L153.9,94.9"/>
		<path class="st11" d="M148.7,105.8c-2.1,5.7-5.9,16.2-4.6,21.3l-0.4-0.2c-0.4-2.1-0.4-6.7,3.3-17.6L148.7,105.8"/>
		<path class="st9" d="M153.9,94.9c-8.8,25.6-8.7,29.9-8.2,32.8l-1-0.4l0,0c-0.8-5.1,1.6-13.3,5.7-24.9L153.9,94.9"/>
		<path class="st9" d="M148.1,107.1c-1.5,4-5.3,14.5-4,20l-0.3-0.1c-0.4-2.1-0.4-6.7,3.3-17.6L148.1,107.1"/>
		<path class="st5" d="M153.9,94.9c-8.8,25.6-8.7,29.9-8.2,32.8l-0.7-0.3l0,0c-0.7-4.5,1-11.5,6.8-28L153.9,94.9"/>
		<path class="st5" d="M147.1,109.1c-3.9,11.3-3.8,15.5-3.2,17.9l-0.2-0.1c-0.4-2.1-0.4-6.7,3.3-17.6L147.1,109.1"/>
		<path class="st2" d="M143.6,125.2c0,0.6,0.1,1.2,0.2,1.8c-0.1-0.7-0.2-1.3-0.2-2l0,0C143.5,125,143.5,125.1,143.6,125.2"/>
	</g>
</g>
<path class="st0" d="M153.9,94.9l-6.9,14.4c-5.8,9.3-17.3,19-18,19.5l-2-0.7C128.5,126.9,139.9,117.5,153.9,94.9z"/>
<g>
	<defs>
		<path id="SVGID_89_" d="M153.9,94.9l-6.9,14.4c-5.8,9.3-17.3,19-18,19.5l-2-0.7C128.5,126.9,139.9,117.5,153.9,94.9z"/>
	</defs>
	<clipPath id="SVGID_90_">
		<use xlink:href="#SVGID_89_"  style="overflow:visible;"/>
	</clipPath>
	<g class="st50">
		<path class="st2" d="M153.9,94.9l-6.9,14.4c-5.8,9.3-17.3,19-18,19.5l-2-0.7C128.5,126.9,139.9,117.5,153.9,94.9"/>
		<path class="st2" d="M127.7,128.3c9.6-8.1,17.7-17.9,24-28.7l-4.6,9.7c-5.8,9.3-17.3,19-18,19.5L127.7,128.3"/>
	</g>
</g>
<path class="st0" d="M127.1,128.1l1.9,0.6c1.7,8,14-1.3,14.7-1.9l1.9,0.8C144.1,128.9,130.3,139.3,127.1,128.1z"/>
<g>
	<defs>
		<path id="SVGID_91_" d="M127.1,128.1l1.9,0.6c1.7,8,14-1.3,14.7-1.9l1.9,0.8C144.1,128.9,130.3,139.3,127.1,128.1z"/>
	</defs>
	<clipPath id="SVGID_92_">
		<use xlink:href="#SVGID_91_"  style="overflow:visible;"/>
	</clipPath>
	<g class="st51">
		<path class="st9" d="M127.1,128.1l1.9,0.6c1.7,8,14-1.3,14.7-1.9l1.9,0.8C144.1,128.8,130.2,139.3,127.1,128.1"/>
		<path class="st9" d="M144.2,127.1c-2.3,1.7-4.7,3.2-7.3,4.3c-1,0.4-2,0.7-3,0.9c-0.9,0.1-1.9-0.1-2.8,0c0.7,1.3,6.7,0.8,13.6-4.9
			l1.1,0.4c-1.5,1.2-15.4,11.6-18.6,0.4l1.9,0.6c1.7,8,14-1.3,14.7-1.9L144.2,127.1"/>
		<path class="st5" d="M143.7,126.9c-0.5,0.4-0.9,0.7-1.4,1l-0.4,0.3c-6,4-8.8,4-10.6,3.6c0,0-1.3-0.2-1.3-0.1s2.7,3.7,11.7-1.9
			c1.2-0.7,2.4-1.6,3.5-2.4l0.5,0.2c-1.5,1.2-15.4,11.6-18.6,0.4l2,0.7C130.8,136.7,143.1,127.4,143.7,126.9L143.7,126.9"/>
		<path class="st11" d="M139,130.7c-1.3,0.8-2.7,1.4-4.2,1.8c-0.9,0.3-1.9,0.3-2.9,0c0,0,0.1,0,0.4,0c0.6,0,1.3,0,1.9-0.2
			C135.8,131.9,137.4,131.3,139,130.7L139,130.7"/>
		<path class="st2" d="M130.7,131.5c-1.1-0.7-1.9-1.8-2.4-3l0.7,0.3c0.2,1.2,0.8,2.2,1.8,2.8L130.7,131.5"/>
	</g>
</g>
<path class="st0" d="M126.8,119.9l1.2,1.5l0.2,0.3c-0.4,0,21.5-24.2,19.1-31.5c-1-3-15.4,11.5-19.1,31.5l-0.2-0.3L126.8,119.9
	c3.5-19.1,19.2-35.2,22.2-30.3c2,6.5-9.3,21.2-16.8,27.5C129.7,119.2,127.7,120.3,126.8,119.9z"/>
<g>
	<defs>
		<path id="SVGID_93_" d="M126.8,119.9l1.2,1.5l0.2,0.3c-0.4,0,21.5-24.2,19.1-31.5c-1-3-15.4,11.5-19.1,31.5l-0.2-0.3L126.8,119.9
			c3.5-19.1,19.2-35.2,22.2-30.3c2,6.5-9.3,21.2-16.8,27.5C129.7,119.2,127.7,120.3,126.8,119.9z"/>
	</defs>
	<clipPath id="SVGID_94_">
		<use xlink:href="#SVGID_93_"  style="overflow:visible;"/>
	</clipPath>
	<g class="st52">
		<path class="st2" d="M126.8,119.9l1.2,1.5l0.2,0.3c-0.4,0,21.5-24.2,19.1-31.5c-1-3-15.4,11.5-19.1,31.5l-0.2-0.3L126.8,119.9
			c3.5-19.1,19.2-35.2,22.2-30.3c2,6.5-9.3,21.2-16.8,27.5C129.7,119.2,127.7,120.3,126.8,119.9"/>
		<path class="st2" d="M128,121.4l-0.6-0.8l0,0c4.7-22.9,18.5-33.2,20.2-31.5c0,0.1,0.1,0.1,0.1,0.2c0,0.7-0.1,1.4-0.1,2.1
			c0-0.4-0.1-0.8-0.2-1.3c-1-3-15.4,11.5-19.1,31.5L128,121.4"/>
		<path class="st5" d="M147.7,89.8c1-0.2,2.4,3.3-3.4,12.5c-4.8,7.7-10.8,13.9-12.3,14.9c0.1-0.3,0.1-0.3,1.3-1.7
			c3.9-4.8,7.5-9.8,10.8-15.1c3.3-5.7,3.7-8.7,3.5-10.1c0-0.1,0-0.2,0-0.3C147.5,89.8,147.6,89.8,147.7,89.8"/>
		<path class="st2" d="M126.9,119.9c0.2,0.2,0.3,0.4,0.4,0.7l0.6,0.8l0.2,0.3c0,0,0,0,0-0.1c0.2-0.3,2.4-3.1,3.3-4l0.5-0.4
			C129.7,119.1,127.9,120.2,126.9,119.9"/>
		<path class="st9" d="M147.9,90.1c3.3,1.6-7.5,18.3-10.7,21.3c5.1-7.2,6.5-9.2,8.3-12.9c1.9-3.7,2.3-5.9,2.3-7.9c0-0.1,0-0.3,0-0.4
			c0,0,0.1,0,0.1,0"/>
		<path class="st11" d="M148,90.8c0.1,0.1,0.6,1.7-0.9,4.7l0,0c0,0,0-0.1,0-0.1l0.4-1.5v-0.1c0.1-0.8,0.2-1.7,0.3-2.5
			C147.9,91.1,147.9,90.9,148,90.8C148,90.8,147.9,90.8,148,90.8"/>
	</g>
</g>
<path class="st0" d="M152.5,117.5l1.2,1.5l0.2,0.3c-0.4,0,20.6-21.8,18.4-29.2c-0.9-3-13.9,9.3-18.4,29.2l-0.2-0.3L152.5,117.5
	c4.2-18.9,18.7-32.9,21.5-27.8c1.8,6.5-9.1,19.8-16.2,25.3C155.4,116.9,153.4,117.9,152.5,117.5z"/>
<g>
	<defs>
		<path id="SVGID_95_" d="M152.5,117.5l1.2,1.5l0.2,0.3c-0.4,0,20.6-21.8,18.4-29.2c-0.9-3-13.9,9.3-18.4,29.2l-0.2-0.3L152.5,117.5
			c4.2-18.9,18.7-32.9,21.5-27.8c1.8,6.5-9.1,19.8-16.2,25.3C155.4,116.9,153.4,117.9,152.5,117.5z"/>
	</defs>
	<clipPath id="SVGID_96_">
		<use xlink:href="#SVGID_95_"  style="overflow:visible;"/>
	</clipPath>
	<g class="st53">
		<path class="st2" d="M152.5,117.5l1.2,1.5l0.2,0.3c-0.4,0,20.6-21.8,18.4-29.2c-0.9-3-13.9,9.3-18.4,29.2l-0.2-0.3L152.5,117.5
			c4.2-18.9,18.7-32.9,21.5-27.8c1.8,6.5-9.1,19.8-16.2,25.3C155.4,116.9,153.4,117.9,152.5,117.5"/>
		<path class="st2" d="M153.7,119l-0.6-0.8l0,0c5.7-23.1,18.7-31.2,19.5-29.1c0.1,0.4-0.3,0.5-0.3,0.9c0,0.3,0.2,0.9,0.2,1.3
			c0-0.4-0.1-0.8-0.2-1.1c-0.9-3-13.9,9.3-18.4,29.2L153.7,119"/>
		<path class="st5" d="M172.8,89.7c1.7-0.1,1.8,6.9-9,19.4c-1.8,2.3-3.9,4.3-6.2,6.1c0,0,0-0.1,0-0.1c0,0,0.2-0.2,1-1.3
			c4.3-4.8,8.1-10,11.4-15.6c2.4-4.2,2.7-6.7,2.5-8.1C172.6,90,172.6,89.7,172.8,89.7"/>
		<path class="st2" d="M152.7,117.5c0.2,0.2,0.3,0.4,0.4,0.7l0.6,0.8l0.2,0.3l0,0c1-1.3,2.1-2.6,3.3-3.7l0.4-0.3
			C155.4,116.9,153.6,117.9,152.7,117.5"/>
		<path class="st9" d="M172.9,90c0.6,0.2,1.1,2.4-1.1,6.7c-2.4,4.3-5.1,8.4-8.3,12.2c4.1-5.7,5.7-7.9,7.2-11
			c1.6-3.1,2.1-5.1,2.1-7.4c0-0.1,0-0.3,0-0.4C172.8,90,172.9,90,172.9,90"/>
		<path class="st11" d="M173,90.7c0.3,0.3,0.1,1.6,0.1,1.6c-0.1,0.9-0.4,1.8-0.9,2.7l0,0c-0.2-0.4,0.2-0.9,0.3-1.3
			c0.1-0.4,0.2-0.9,0.3-1.3s0.1-0.9,0.1-1.2C172.9,90.7,173,90.6,173,90.7C173,90.6,173,90.6,173,90.7"/>
	</g>
</g>
<linearGradient id="SVGID_97_" gradientUnits="userSpaceOnUse" x1="46.4796" y1="2454.418" x2="181.7032" y2="2589.6284" gradientTransform="matrix(1 0 0 1 6 -2403)">
	<stop  offset="0" style="stop-color:#FFFFFF"/>
	<stop  offset="8.000000e-02" style="stop-color:#CB1626"/>
	<stop  offset="0.2" style="stop-color:#FFFFFF"/>
	<stop  offset="0.24" style="stop-color:#CB1626"/>
	<stop  offset="0.92" style="stop-color:#CB1626"/>
	<stop  offset="0.96" style="stop-color:#FFFFFF"/>
	<stop  offset="0.99" style="stop-color:#CB1626"/>
</linearGradient>
<path class="st54" d="M208.6,127.1c0-1.2,1.9-3.5,3.6-6.4c-4.7-1-19,8.7-17.1,9.5c-0.7-0.9-3.2-2.4-2.5-4.3c0.9-1.1,2-2.7,7-10
	c-6.3,3.1-9.6,4.7-11.5,5c-1.6,8-15.7,17.2-22.4,7.9c-17.7,10.5-18.3,4.1-18.8,1.3c-2.9,1.7-17.1,9.9-22.9,7.5
	c-1.7-0.7-2.7-3.2-3.5-5.7c-2.7,2.3-17.3,14.5-22.7,10c-2.4-2.1-1.2-6.4-1.1-6.6c-1-3.5-7.3,1.3-6.7,0.9c1.2,0.7,1-0.7,0.9-5.7
	c-17.3,21.8-29.5,21.3-31,15.5c-2.8-11.5-10.5-9.7-16.9-4.2c-6,5-11.7,13.3-12.9,16.6c-0.7,2-1.6,3.4-0.6,1.8
	c-3.4-1.8-7-3.3-10.7-4.5l28.9-55.2c9,1.9,16.2,2.7,14.9,2.7c1.2-1.7-17.3,23.5-31.4,42.7c11-8.8,23.2-18.1,27.1-14.7
	c4.5,3.7,3.4,10.1,11.4,9.5c4.6-0.6,9.5-7.5,15-14.8c3.7-4.9,13.6-20.5,0.6-32.6C65.2,77.5,31.9,91.7,18,98.9
	c-4.8,2.5-13.7,7.8-11.1,9.9C6.8,109,11.4,98,13.5,92.6c3.3-3.7,24.1-11.8,44.7-13c20.3-1.1,39.6,4.6,41.8,27.1
	c0.6,6.5-1.9,13.2-6.8,20.2c-2.7,6.4,10.4,0.2,14.9-8.5l7.4,2.7c0,0-10,8.4-8.8,14.2c2.1,4.2,9.5-2.4,13.1-5.6
	c-1.5-12,7.5-45.3,30.1-49.2c4.2-0.5,5.2,1.3,5.6,2.9c0.8,3.5-1.9,13.3,1.2,11.9c4.2-5.6,8-11.7,15.6-14.3c2.2-0.8,4.2-0.9,5.3,0.3
	c7.4,8.8-17,38.5-24.3,43.7c0,1,0,3.4,1.3,4.8c5.3,2.7,9.7-2.1,10.4-2.9c-0.7-20.4,22.9-25.3,24.1-8.7c5.6,0.2,15-7.3,16-9.3
	l4.7,2.5c0.6-1-1.7,1.4-5.8,10.3c6.2-4.6,17.2-12.3,19.5-10.1c1.1,0.1-1.5,2.7-8.5,12.8c7.2-1.3,16.3-8.8,18.9-12
	c0-2.3-2.2-7.4,5.6-10.2c0.9-0.3,1.9-0.3,2-0.1c1.1,1.3-1.3,3.7-2.9,7.2c3.7,6.2,8.4,15.7-0.4,19.6c-5.3,2.5-8,0.7-10.2-1.6
	c-1.7-1.8,1-4.9,2.4-4c0.3,0,0.1,1.3,2.3,2.5c2.6,1.3,4.7-0.8,5.6-2c0.9-1.8,1-3.9,0.3-5.7c0-0.8-1.8-3.4-3.4-6.3
	C226.3,123.3,208.1,133.1,208.6,127.1z M126.8,119.9c3.6,1.8,24.9-21.6,22.2-30.3C146,84.7,130.3,100.8,126.8,119.9 M152.5,117.5
	c3.5,1.9,23.9-19.1,21.5-27.8C171.3,84.6,156.7,98.5,152.5,117.5 M153.9,94.9c-14,22.6-25.4,32-26.8,33.2c3.2,11.2,17,0.8,18.6-0.4
	C145.1,124.8,145,120.5,153.9,94.9 M172.3,127.4c5.6,4.7,11.1-1.6,15.5-8.4c-4,1.1-6.1-0.4-3.6-6.7
	C173.1,115.4,169.1,122.7,172.3,127.4"/>
<path class="st0" d="M239.4,102.5l-0.6-1.7c1.3-0.4,3.1-0.5,4,0.4l-1.3,1.1C241.3,102.2,240.3,102.2,239.4,102.5z"/>
<g>
	<defs>
		<path id="SVGID_98_" d="M239.4,102.5l-0.6-1.7c1.3-0.4,3.1-0.5,4,0.4l-1.3,1.1C241.3,102.2,240.3,102.2,239.4,102.5z"/>
	</defs>
	<clipPath id="SVGID_99_">
		<use xlink:href="#SVGID_98_"  style="overflow:visible;"/>
	</clipPath>
	<g class="st55">
		<path class="st5" d="M239.4,102.5l-0.6-1.7c1.3-0.4,3.1-0.5,4,0.4l-1.3,1.1C241.4,102.2,240.4,102.2,239.4,102.5"/>
		<path class="st5" d="M241.4,102.4c-0.1-0.2-1.1-0.2-2,0.1l-0.2-0.6l0,0c0.6-0.2,1.2-0.3,1.9-0.4c0.2,0,0.4-0.1,0.6-0.1
			c0.5-0.2,0.6-0.4,0.2-0.7c-1-0.3-2.1-0.3-3.1,0.1c1.3-0.4,3.1-0.5,4,0.4L241.4,102.4"/>
		<path class="st56" d="M241.4,102.4c-0.1-0.2-1.1-0.2-2,0.1l0,0l0,0c0.6-0.2,1.3-0.3,1.9-0.2c0.1,0,0.1,0,0.2,0
			c0.4-0.2,0.7-0.6,1-0.9c0.1-0.2-0.2-0.5-0.3-0.5c-0.4-0.2-0.8-0.3-1.2-0.3c0.7,0,1.3,0.3,1.8,0.8L241.4,102.4"/>
		<path class="st2" d="M242.8,101.3c-0.1-0.2-0.3-0.4-0.5-0.5C242.5,101,242.7,101.1,242.8,101.3L242.8,101.3"/>
		<path class="st57" d="M242.8,101.3L242.8,101.3L242.8,101.3L242.8,101.3"/>
	</g>
</g>
<path class="st0" d="M121.2,101.2l1.5,1c-3.7,5.3-7.3,6.8-10.8,4.3c-3.5-2.5-3.5-7.4,1.3-14c4.5-6.2,8.3-7.1,12.1-4.2
	c3.3,2.5,1,8.5-2.7,13.8L121.2,101.2c3.5-5.1,5.2-10,3.1-11.4c-2.9-2.2-5.5-1.6-9.6,3.8c-4.3,6-4.1,9.9-1.7,11.5
	C115.3,106.7,118.8,105,121.2,101.2z"/>
<g>
	<defs>
		<path id="SVGID_100_" d="M121.2,101.2l1.5,1c-3.7,5.3-7.3,6.8-10.8,4.3c-3.5-2.5-3.5-7.4,1.3-14c4.5-6.2,8.3-7.1,12.1-4.2
			c3.3,2.5,1,8.5-2.7,13.8L121.2,101.2c3.5-5.1,5.2-10,3.1-11.4c-2.9-2.2-5.5-1.6-9.6,3.8c-4.3,6-4.1,9.9-1.7,11.5
			C115.3,106.7,118.8,105,121.2,101.2z"/>
	</defs>
	<clipPath id="SVGID_101_">
		<use xlink:href="#SVGID_100_"  style="overflow:visible;"/>
	</clipPath>
	<g class="st58">
		<path class="st2" d="M121.2,101.2l1.5,1c-3.7,5.3-7.3,6.8-10.8,4.3c-3.5-2.5-3.5-7.4,1.3-14c4.5-6.2,8.3-7.1,12.1-4.2
			c3.3,2.5,1,8.5-2.7,13.8L121.2,101.2c3.5-5.1,5.2-10,3.1-11.4c-2.9-2.2-5.5-1.6-9.6,3.8c-4.3,6-4.1,9.9-1.7,11.5
			C115.3,106.7,118.9,105.1,121.2,101.2"/>
		<path class="st5" d="M124.7,88.8c-0.3,0-0.6-0.1-0.8-0.2c-1.6-0.5-4.4-1.5-8.3,2.9c-6.1,7.1-5.1,11.3-4.8,12.7
			c0,0.1,0.1,0.5,0,0.6c-0.1,0.1-2-1.5-1.1-5.4c0.9-3.9,5-9.3,7.3-11c4.9-3.5,7.5,0.1,7.6,0.1C124.7,88.5,124.7,88.6,124.7,88.8
			L124.7,88.8"/>
		<path class="st2" d="M109.5,101.8c0.2,4,2.5,4.4,3.8,4.7c2.5,0.4,4.5-0.4,6.7-2.8c0.6-0.7,1.2-1.4,1.7-2.2l1,0.7
			c-3.7,5.3-7.3,6.8-10.8,4.3C110.3,105.4,109.4,103.6,109.5,101.8L109.5,101.8C109.4,101.7,109.4,101.7,109.5,101.8"/>
		<path class="st2" d="M121.7,101.5c2-2.7,3.5-5.8,4.3-9.2c0.5-3,0.6-3.4-1.8-4.7c0.4,0.2,0.8,0.5,1.2,0.8c3.3,2.5,1,8.5-2.7,13.8
			L121.7,101.5"/>
		<path class="st9" d="M123.1,87.8c0,0-0.2,0-0.6,0c-1.1-0.1-4.4-0.4-7.9,4c-1.5,1.9-4.9,6.7-4.3,11.1c0.1,1,0.1,1,0,1
			s-2.2-2.6,1.4-8.6c1.8-2.8,4-5.3,6.6-7.5C120.7,86.3,123,87.3,123.1,87.8C123.1,87.7,123.1,87.8,123.1,87.8"/>
		<path class="st11" d="M110.7,98.2v0.3c-0.2,1.1-0.4,2.1-0.5,3.2c0,0.4,0,0.9,0,1.3c-0.6-0.9-0.3-3.6,0.6-5L110.7,98.2"/>
		<path class="st11" d="M122,87.4c-0.1,0-0.2,0-0.4,0c-0.4,0-0.9,0.1-1.3,0.1c0,0-0.5,0.1-0.8,0.2c-0.6,0.2-0.6,0.2-0.7,0.1
			c0.9-0.8,2.2-1,3.3-0.5L122,87.4"/>
	</g>
</g>
<path class="st0" d="M241.4,102.4l1.3-1.1c2,2.8-1.1,5.8-2.2,8.3l-2,0.1C240.2,106.1,242.5,103.7,241.4,102.4z"/>
<g>
	<defs>
		<path id="SVGID_102_" d="M241.4,102.4l1.3-1.1c2,2.8-1.1,5.8-2.2,8.3l-2,0.1C240.2,106.1,242.5,103.7,241.4,102.4z"/>
	</defs>
	<clipPath id="SVGID_103_">
		<use xlink:href="#SVGID_102_"  style="overflow:visible;"/>
	</clipPath>
	<g class="st59">
		<path class="st2" d="M241.4,102.4l1.3-1.1c2,2.8-1.1,5.8-2.2,8.3l-2,0.1C240.1,106.1,242.5,103.7,241.4,102.4"/>
		<path class="st2" d="M239.3,109.6c0.8-1.8,2.1-3.3,2.8-5.2c1-2.4,0.9-2.7,0.7-3.1l0,0c2,2.8-1.1,5.8-2.2,8.3L239.3,109.6"/>
		<path class="st57" d="M239.9,109.6c0.8-2,2.3-3.6,3.1-5.7c0.5-0.8,0.4-1.8-0.1-2.6c2,2.8-1.1,5.8-2.2,8.2L239.9,109.6"/>
	</g>
</g>
<path class="st0" d="M238.6,109.6l2-0.1c3.4,5.6,8.8,16.4-1.7,21.3l-0.8-1.6C246.9,125.3,242.3,115.8,238.6,109.6z"/>
<g>
	<defs>
		<path id="SVGID_104_" d="M238.6,109.6l2-0.1c3.4,5.6,8.8,16.4-1.7,21.3l-0.8-1.6C246.9,125.3,242.3,115.8,238.6,109.6z"/>
	</defs>
	<clipPath id="SVGID_105_">
		<use xlink:href="#SVGID_104_"  style="overflow:visible;"/>
	</clipPath>
	<g class="st60">
		<path class="st2" d="M238.6,109.6l2-0.1c3.4,5.6,8.8,16.4-1.7,21.3l-0.8-1.6C246.9,125.3,242.3,115.8,238.6,109.6"/>
		<path class="st2" d="M238.3,129.7c6.9-3.7,7.6-10.5,2-20.2h0.1c3.4,5.6,8.8,16.4-1.7,21.3L238.3,129.7"/>
		<path class="st57" d="M238.6,130.2c9.4-5.1,6.3-13.3,1.9-20.7c3.4,5.6,8.8,16.4-1.7,21.3L238.6,130.2"/>
	</g>
</g>
<path class="st0" d="M238.1,129.2l0.8,1.6c-6.2,3-9.6,0.7-12.3-1.9l1.3-1.2C230.2,130,232.8,131.7,238.1,129.2z"/>
<g>
	<defs>
		<path id="SVGID_106_" d="M238.1,129.2l0.8,1.6c-6.2,3-9.6,0.7-12.3-1.9l1.3-1.2C230.2,130,232.8,131.7,238.1,129.2z"/>
	</defs>
	<clipPath id="SVGID_107_">
		<use xlink:href="#SVGID_106_"  style="overflow:visible;"/>
	</clipPath>
	<g class="st61">
		<path class="st2" d="M238.1,129.2l0.8,1.6c-6.2,3-9.6,0.7-12.3-1.9l1.3-1.2C230.3,130,232.9,131.7,238.1,129.2"/>
		<path class="st2" d="M226.8,128.8C226.8,128.8,226.8,128.8,226.8,128.8c3.2,2.7,7.1,3.1,11.6,0.9l0.5,1.1c-6.2,3-9.6,0.7-12.3-1.9
			L226.8,128.8"/>
	</g>
</g>
<path class="st0" d="M227.9,127.7l-1.3,1.2c-2.9-3.4,1.3-8.4,4.5-6.8c1.2,0.6,0.9,1.8,2.3,2.5l-0.8,1.6c-2.2-1.2-2-2.4-2.3-2.5
	C229,122.8,226.2,125.8,227.9,127.7z"/>
<g>
	<defs>
		<path id="SVGID_108_" d="M227.9,127.7l-1.3,1.2c-2.9-3.4,1.3-8.4,4.5-6.8c1.2,0.6,0.9,1.8,2.3,2.5l-0.8,1.6
			c-2.2-1.2-2-2.4-2.3-2.5C229,122.8,226.2,125.8,227.9,127.7z"/>
	</defs>
	<clipPath id="SVGID_109_">
		<use xlink:href="#SVGID_108_"  style="overflow:visible;"/>
	</clipPath>
	<g class="st62">
		<path class="st5" d="M227.9,127.7l-1.3,1.2c-2.9-3.4,1.3-8.4,4.5-6.8c1.2,0.6,0.9,1.8,2.3,2.5l-0.8,1.6c-2.2-1.2-2-2.4-2.3-2.5
			C228.9,122.8,226.1,125.8,227.9,127.7"/>
		<path class="st5" d="M233.4,124.6c0,0-1.3-0.1-0.6,0.7c0,0.1,0.2,0.1,0.2,0.2l-0.3,0.7c-2.2-1.2-2-2.4-2.3-2.5
			c-1.3-0.9-4.1,2.2-2.4,4l-1.3,1.2c-2.9-3.4,1.3-8.4,4.5-6.8C232.2,122.7,232,123.9,233.4,124.6L233.4,124.6"/>
		<path class="st5" d="M231,122.8c0,0-0.3,0.3-0.4,0.2c-1.2-0.1-2.3,0.4-3,1.3c-0.7,0.9-0.9,2-0.7,3.1c0,0.4,0,0.6-0.1,0.7
			c-0.1,0.1-0.9-0.7-1-2c-0.2-2.9,3.7-5.3,5.3-4C231.2,122.4,231.2,122.6,231,122.8"/>
		<path class="st9" d="M230.6,122.6c-0.2,0.1-0.4,0.1-0.5,0.1c-1.1,0-2.1,0.5-2.8,1.2c-0.6,1-0.9,2.2-0.7,3.3c0,0.1,0,0.3-0.1,0.3
			s-0.7-0.8-0.5-2c0.1-0.4,0.3-0.9,0.5-1.2c0.1-0.1,0.1-0.2,0.2-0.2l0.1-0.1l0.1-0.1c0,0,0.2-0.1,0.2-0.2c0.3-0.4,0.7-0.9,1.2-1.2
			c1-0.7,2.1-0.5,2.3-0.1C230.7,122.4,230.7,122.5,230.6,122.6"/>
		<path class="st2" d="M233.2,124.5c-0.7-0.3-1.2-0.9-1.4-1.6c-0.1-0.3-0.3-0.6-0.6-0.7C232.2,122.7,232.1,123.8,233.2,124.5
			L233.2,124.5"/>
		<path class="st11" d="M230.1,122.4c-0.1,0.1-0.2,0.1-0.4,0.1l0,0l-1,0.2c-0.2,0-0.2,0-0.3,0c0,0,1-0.8,1.6-0.4
			C230.3,122.4,230.2,122.4,230.1,122.4"/>
		<path class="st11" d="M226.5,125.1c0,0,0,0.1,0,0.1v0.4c0,0.4,0,0.4-0.1,1c0,0.3,0,0.3,0,0.4l0,0c-0.1,0-0.3-0.5-0.2-1
			c0-0.4,0.1-0.8,0.4-1.1l0,0C226.6,125,226.6,125.1,226.5,125.1"/>
		<path class="st2" d="M225.7,126.5c0,0.9,0.4,1.7,1,2.3l0,0c-0.6-0.7-1-1.6-1-2.5C225.7,126.3,225.7,126.4,225.7,126.5"/>
	</g>
</g>
<path class="st0" d="M232.6,126.1l0.8-1.6c1.3,0.7,2.7-0.5,3.3-1.4l1.5,1C237.3,125.4,235.2,127.4,232.6,126.1z"/>
<g>
	<defs>
		<path id="SVGID_110_" d="M232.6,126.1l0.8-1.6c1.3,0.7,2.7-0.5,3.3-1.4l1.5,1C237.3,125.4,235.2,127.4,232.6,126.1z"/>
	</defs>
	<clipPath id="SVGID_111_">
		<use xlink:href="#SVGID_110_"  style="overflow:visible;"/>
	</clipPath>
	<g class="st63">
		<path class="st5" d="M232.6,126.1l0.8-1.6c1.3,0.7,2.7-0.5,3.3-1.4l1.5,1C237.3,125.3,235.2,127.4,232.6,126.1"/>
		<path class="st5" d="M238.2,124.1c-0.8,1.2-3,3.3-5.6,2l0.6-1.2l0,0c0.4,1.3,2.9,1.2,4.5-1.2L238.2,124.1"/>
		<path class="st5" d="M236.7,123.1c-0.4,0.6-1,1.1-1.7,1.4c-0.5,0.2-1,0.3-1.5,0.1c-0.1,0-0.2,0-0.3,0v-0.1
			C234.7,125.3,236,124,236.7,123.1L236.7,123.1"/>
		<path class="st56" d="M238.2,124.1c-0.8,1.2-3,3.3-5.6,2v-0.1l0,0c1.3,0.7,2.9,0.5,4-0.4l0.2-0.2
			C237.3,125.1,237.8,124.6,238.2,124.1L238.2,124.1"/>
		<path class="st56" d="M234,124.8c-0.2,0-0.4-0.1-0.6-0.2l0,0c0.2,0.1,0.5,0.2,0.7,0.2L234,124.8"/>
		<path class="st56" d="M236.7,123.1c-0.1,0.2-0.3,0.4-0.5,0.6C236.4,123.5,236.6,123.3,236.7,123.1L236.7,123.1"/>
	</g>
</g>
<path class="st0" d="M238.2,124.1l-1.5-1c0.6-1.3,0.6-2.7,0-4l1.7-0.7C239,119.9,239.4,122.5,238.2,124.1z"/>
<g>
	<defs>
		<path id="SVGID_112_" d="M238.2,124.1l-1.5-1c0.6-1.3,0.6-2.7,0-4l1.7-0.7C239,119.9,239.4,122.5,238.2,124.1z"/>
	</defs>
	<clipPath id="SVGID_113_">
		<use xlink:href="#SVGID_112_"  style="overflow:visible;"/>
	</clipPath>
	<g class="st64">
		<path class="st5" d="M238.2,124.1l-1.5-1c0.6-1.3,0.6-2.7,0-4l1.7-0.7C239,119.9,239.3,122.5,238.2,124.1"/>
		<path class="st5" d="M238.5,118.4c0.8,1.9,0.7,3.9-0.3,5.7l-0.5-0.4l0,0c0.6-1,0.5-2.2-0.2-3.1c0,0-0.1,0.1-0.1,0.1
			c-0.1,0.4-0.1,0.9-0.2,1.3c-0.1,0.4-0.2,0.7-0.4,1c0.6-1.3,0.6-2.7,0-4l1.7-0.7"/>
		<path class="st56" d="M236.9,119c0.2,1.1,0.6,2.9-0.2,4.1c0.6-1.3,0.6-2.7,0-4L236.9,119"/>
		<path class="st56" d="M238.5,118.4c0.8,1.9,0.7,3.9-0.3,5.7l0,0l0,0c0.9-1.8,0.9-3.8,0.1-5.6L238.5,118.4"/>
		<path class="st2" d="M236.8,119.1c0.3,0.7,0.4,1.5,0.4,2.2C237.2,120.5,237,119.8,236.8,119.1L236.8,119.1"/>
	</g>
</g>
<path class="st0" d="M238.5,118.4l-1.7,0.7c-0.5-1.3-1.2-2.6-2-3.7l0.3-3.2C236.7,115,238.5,117.6,238.5,118.4z"/>
<g>
	<defs>
		<path id="SVGID_114_" d="M238.5,118.4l-1.7,0.7c-0.5-1.3-1.2-2.6-2-3.7l0.3-3.2C236.7,115,238.5,117.6,238.5,118.4z"/>
	</defs>
	<clipPath id="SVGID_115_">
		<use xlink:href="#SVGID_114_"  style="overflow:visible;"/>
	</clipPath>
	<g class="st65">
		<path class="st5" d="M238.5,118.4l-1.7,0.7c-0.5-1.3-1.2-2.6-2-3.7l0.3-3.2C236.6,115,238.5,117.6,238.5,118.4"/>
		<path class="st5" d="M235.1,112.1c1.6,2.9,3.4,5.4,3.4,6.3l-1,0.4l0,0c-0.3,0-0.5,0.1-0.6,0.2h-0.1c-0.5-1.3-1.2-2.6-2-3.7
			L235.1,112.1"/>
		<path class="st56" d="M234.9,114.3c0.5-0.3,0.5-0.3,0.1-1.4v-0.7c1.6,2.9,3.4,5.4,3.4,6.3l0,0l0,0c-0.2-0.7-1.3-2.1-1.6-1.6
			c-0.3,0.7,0.1,1.5,0,2.2c-0.5-1.3-1.2-2.6-2-3.7L234.9,114.3"/>
		<path class="st2" d="M234.8,115.3c1.5,2.4,1.9,3.1,2,3.7C236.3,117.8,235.6,116.5,234.8,115.3L234.8,115.3"/>
	</g>
</g>
<path class="st0" d="M235.1,112.1l-0.3,3.2c-7.4,9.5-27.4,20.2-28,11.9l1.8-0.1C208.1,133.1,226.3,123.3,235.1,112.1z"/>
<g>
	<defs>
		<path id="SVGID_116_" d="M235.1,112.1l-0.3,3.2c-7.4,9.5-27.4,20.2-28,11.9l1.8-0.1C208.1,133.1,226.3,123.3,235.1,112.1z"/>
	</defs>
	<clipPath id="SVGID_117_">
		<use xlink:href="#SVGID_116_"  style="overflow:visible;"/>
	</clipPath>
	<g class="st66">
		<path class="st11" d="M235.1,112.1l-0.3,3.2c-7.4,9.5-27.4,20.2-28,11.9l1.8-0.1C208.1,133.1,226.3,123.3,235.1,112.1"/>
		<path class="st11" d="M207.1,127.2c0,0.2,0.1,0.5,0.2,0.6c0.1-0.2,0.1-0.2,0.1-0.7l1.1-0.1c-0.5,6,17.8-3.8,26.5-15l-0.3,3.2
			c-7.4,9.5-27.4,20.2-28,11.9L207.1,127.2"/>
		<path class="st9" d="M207.1,127.2c0.2,1.2,0.5,1.1,0.5,1.1s0,0,0.1-1.1h0.9c-0.5,6,17.8-3.8,26.5-15l-0.3,3.2
			c-7.4,9.5-27.4,20.2-28,11.9L207.1,127.2"/>
		<path class="st5" d="M206.9,127.2c0.4,1.6,0.9,1.5,0.9,1.5c0.1,0,0.1,0,0.1-1.6h0.6c-0.5,6,17.8-3.8,26.5-15l-0.3,3.2
			c-7.4,9.5-27.4,20.2-28,11.9L206.9,127.2"/>
		<path class="st2" d="M206.8,127.2c0.2,1.8,0.8,2.1,1.8,2c4-0.2,4.9-0.3,9.7-2.7c6.4-3.3,12.1-7.9,16.7-13.5l-0.2,2.2
			C227.4,124.8,207.4,135.5,206.8,127.2L206.8,127.2"/>
	</g>
</g>
<path class="st67" d="M121.2,101.2c-2.4,3.9-5.9,5.6-8.3,3.9s-2.7-5.5,1.7-11.5c4.1-5.4,6.7-6,9.6-3.8
	C126.3,91.2,124.7,96.1,121.2,101.2z"/>
<path class="st0" d="M218.3,139.2l1,1.8c-80.4,1.7-144.5,30.3-152.8,32.6l3.8-2.9C74.1,169.6,138.5,140.8,218.3,139.2z"/>
<g>
	<defs>
		<path id="SVGID_118_" d="M218.3,139.2l1,1.8c-80.4,1.7-144.5,30.3-152.8,32.6l3.8-2.9C74.1,169.6,138.5,140.8,218.3,139.2z"/>
	</defs>
	<clipPath id="SVGID_119_">
		<use xlink:href="#SVGID_118_"  style="overflow:visible;"/>
	</clipPath>
	<g class="st68">
		<path class="st2" d="M218.3,139.2l1,1.8c-80.4,1.7-144.5,30.3-152.8,32.6l3.8-2.9C74.1,169.6,138.5,140.8,218.3,139.2"/>
		<path class="st2" d="M69.1,171.6c47.6-19.4,98.2-30.1,149.5-31.7l0.6,1.1c-80.4,1.7-144.5,30.3-152.8,32.6L69.1,171.6"/>
	</g>
</g>
<path class="st0" d="M74.6,160.8l-1.3-1.5c27.5-8.5,75.2-24.1,149.9-24.2l-3.3,1.8C148.8,137,101.3,152.5,74.6,160.8z"/>
<g>
	<defs>
		<path id="SVGID_120_" d="M74.6,160.8l-1.3-1.5c27.5-8.5,75.2-24.1,149.9-24.2l-3.3,1.8C148.8,137,101.3,152.5,74.6,160.8z"/>
	</defs>
	<clipPath id="SVGID_121_">
		<use xlink:href="#SVGID_120_"  style="overflow:visible;"/>
	</clipPath>
	<g class="st69">
		<path class="st11" d="M74.6,160.8l-1.3-1.5c27.5-8.5,75.2-24.1,149.9-24.2l-3.3,1.8C148.7,136.9,101.2,152.5,74.6,160.8"/>
		<path class="st11" d="M222.5,135.5c-67.7,0.6-107.5,11.3-148.9,24.1c27.2-8.8,75-24.4,149.6-24.5L222.5,135.5"/>
		<path class="st11" d="M219.8,136.9c-71,0-118.6,15.6-145.3,23.8l-0.7-0.8l0,0c39.5-12.3,80.5-23.4,147.9-24L219.8,136.9"/>
		<path class="st9" d="M222.7,135.4c-68,0.5-107.8,11.2-149.2,24.1c27.3-8.7,75-24.3,149.7-24.4L222.7,135.4"/>
		<path class="st9" d="M219.8,136.9c-71,0-118.6,15.6-145.3,23.8l-0.6-0.7l0,0c41.1-12.7,80.5-23.3,147.4-24L219.8,136.9"/>
		<path class="st5" d="M219.8,136.9c-71,0-118.6,15.6-145.3,23.8l-0.3-0.4c41.1-12.7,80.5-23.3,146.6-24L219.8,136.9"/>
		<path class="st5" d="M223.1,135.2c-2,0.5-4.8,0-6.9,0c-66.8,0.5-114.5,15.3-142.9,24.1C100.8,150.7,148.5,135.1,223.1,135.2
			L223.1,135.2"/>
	</g>
</g>
<path class="st67" d="M74.6,160.8c26.7-8.3,74.2-23.8,145.3-23.8l-1.5,2.3c-79.8,1.6-144.2,30.4-148,31.4
	C68.5,173.8,74.6,160.8,74.6,160.8z"/>
<path class="st0" d="M120.5,132l-0.8,3c-0.8,0.7-16.2,13.8-23,8.3l1.1-1.3C103.1,146.5,117.7,134.3,120.5,132z"/>
<g>
	<defs>
		<path id="SVGID_122_" d="M120.5,132l-0.8,3c-0.8,0.7-16.2,13.8-23,8.3l1.1-1.3C103.1,146.5,117.7,134.3,120.5,132z"/>
	</defs>
	<clipPath id="SVGID_123_">
		<use xlink:href="#SVGID_122_"  style="overflow:visible;"/>
	</clipPath>
	<g class="st70">
		<path class="st2" d="M120.5,132l-0.8,3c-0.8,0.7-16.2,13.8-23,8.3l1.1-1.3C103.1,146.5,117.7,134.3,120.5,132"/>
		<path class="st2" d="M97,143c5.6,2.4,13.6-3,16.7-5.1l0.8-0.5c1.1-0.8,3.3-2.3,5.8-4.5l-0.5,2.1c-0.8,0.7-16.2,13.8-23,8.3L97,143
			"/>
	</g>
</g>
<path class="st0" d="M97.8,141.9l-1.1,1.3c-3.3-2.9-1.8-8.2-1.7-8.5l1.7,0.5C96.6,135.6,95.5,139.9,97.8,141.9z"/>
<g>
	<defs>
		<path id="SVGID_124_" d="M97.8,141.9l-1.1,1.3c-3.3-2.9-1.8-8.2-1.7-8.5l1.7,0.5C96.6,135.6,95.5,139.9,97.8,141.9z"/>
	</defs>
	<clipPath id="SVGID_125_">
		<use xlink:href="#SVGID_124_"  style="overflow:visible;"/>
	</clipPath>
	<g class="st71">
		<path class="st11" d="M97.8,141.9l-1.1,1.3c-3.3-2.9-1.8-8.2-1.7-8.5l1.7,0.5C96.7,135.5,95.5,139.8,97.8,141.9"/>
		<path class="st11" d="M95.3,135c-0.7,2.1-0.3,4.9,0,5l0,0c0-0.2,0-0.4,0-0.7c-0.1-0.8-0.1-1.6,0-2.3c0-0.6,0.2-1.3,0.3-1.9
			l1.1,0.3c0,0.2-1.2,4.5,1.1,6.6l-1.1,1.3c-3.3-2.9-1.8-8.2-1.7-8.5L95.3,135"/>
		<path class="st9" d="M95.2,134.9c-0.9,3.1,0.1,6.1,0.5,6c0.1,0,0-0.4,0-0.7c-0.1-0.7-0.2-1.4-0.2-2.1c0-1,0.1-2,0.4-2.9l0.9,0.2
			c0,0.2-1.2,4.5,1.1,6.6l-1.1,1.3c-3.3-2.9-1.8-8.2-1.7-8.5L95.2,134.9"/>
		<path class="st5" d="M95,134.9c-1.1,4.3,0.9,7.1,1.2,6.9c0.1,0,0.1-0.2-0.1-1.1c-0.2-0.7-0.3-1.4-0.3-2.1c0-1.1,0.1-2.3,0.4-3.4
			l0.5,0.1c0,0.2-1.2,4.5,1.1,6.6l-1.1,1.3C93.4,140.3,94.9,135.1,95,134.9L95,134.9"/>
		<path class="st2" d="M94.6,138.1c0,0.9,0.3,4,2.3,5l-0.2,0.2c-1.4-1.4-2.2-3.3-2.1-5.3l0,0C94.6,138,94.6,138.1,94.6,138.1"/>
	</g>
</g>
<path class="st0" d="M124,137.7l-0.7,1.7c-2.5-1-3.6-4.2-3.7-4.4l0.8-3C121.4,134.5,122.3,137,124,137.7z"/>
<g>
	<defs>
		<path id="SVGID_126_" d="M124,137.7l-0.7,1.7c-2.5-1-3.6-4.2-3.7-4.4l0.8-3C121.4,134.5,122.3,137,124,137.7z"/>
	</defs>
	<clipPath id="SVGID_127_">
		<use xlink:href="#SVGID_126_"  style="overflow:visible;"/>
	</clipPath>
	<g class="st72">
		<path class="st9" d="M124,137.7l-0.7,1.7c-2.5-1-3.6-4.2-3.7-4.4l0.8-3C121.4,134.5,122.4,137,124,137.7"/>
		<path class="st9" d="M119.9,134.3c0.2,0.4,0.3,0.5,0.3,0.5s0.1,0-0.2-1l0.5-1.9c0.9,2.5,1.9,5.1,3.5,5.7l-0.7,1.7
			c-2.5-1-3.6-4.2-3.7-4.4L119.9,134.3"/>
		<path class="st5" d="M119.8,134.5c0.4,1.1,1.3,2.3,1.5,2.1c0.2-0.1,0.1,0-1.1-3.4l0.3-1.3c0.9,2.5,1.9,5.1,3.5,5.7l-0.7,1.7
			c-2.5-1-3.6-4.2-3.7-4.4L119.8,134.5"/>
		<path class="st2" d="M119.7,135c1.3,3.5,3.1,3.5,4,3.6l-0.3,0.8C120.9,138.3,119.7,135.2,119.7,135L119.7,135"/>
	</g>
</g>
<path class="st0" d="M146.9,130.2l-1.3,2.8c-0.8,0.5-15.4,9.1-22.3,6.4l0.7-1.7C129.8,140.1,144,131.9,146.9,130.2z"/>
<g>
	<defs>
		<path id="SVGID_128_" d="M146.9,130.2l-1.3,2.8c-0.8,0.5-15.4,9.1-22.3,6.4l0.7-1.7C129.8,140.1,144,131.9,146.9,130.2z"/>
	</defs>
	<clipPath id="SVGID_129_">
		<use xlink:href="#SVGID_128_"  style="overflow:visible;"/>
	</clipPath>
	<g class="st73">
		<path class="st2" d="M146.9,130.2l-1.3,2.8c-0.8,0.5-15.4,9.1-22.3,6.4l0.7-1.7C129.7,140.1,143.9,131.9,146.9,130.2"/>
		<path class="st2" d="M123.7,138.5c3.4,0.7,7.6-0.2,13.8-2.9l0.8-0.4c2.8-1.3,5.5-2.7,8.2-4.3l-0.9,1.9c-0.8,0.5-15.4,9.1-22.3,6.4
			L123.7,138.5"/>
	</g>
</g>
<path class="st0" d="M90.9,130.5l-1.6,4.9c-14.7,18.8-28.9,18.7-31.1,11.1l1.7-0.5C61.3,151.8,73.6,152.3,90.9,130.5z"/>
<g>
	<defs>
		<path id="SVGID_130_" d="M90.9,130.5l-1.6,4.9c-14.7,18.8-28.9,18.7-31.1,11.1l1.7-0.5C61.3,151.8,73.6,152.3,90.9,130.5z"/>
	</defs>
	<clipPath id="SVGID_131_">
		<use xlink:href="#SVGID_130_"  style="overflow:visible;"/>
	</clipPath>
	<g class="st74">
		<path class="st9" d="M90.9,130.5l-1.6,4.9c-14.7,18.8-28.9,18.7-31.1,11.1l1.7-0.5C61.3,151.8,73.6,152.3,90.9,130.5"/>
		<path class="st9" d="M58.5,146.5c0.3,0.1,0.2,0.4,0.4,0.6c0.1-0.2,0.1-0.5,0-0.7l1-0.3c1.5,5.7,13.8,6.3,31-15.5l-1.6,4.9
			c-14.7,18.8-28.9,18.7-31.1,11.1L58.5,146.5"/>
		<path class="st5" d="M58.3,146.5c0.7,1.6,1.1,1.5,1.1,1.5c0,0,0,0-0.3-1.7l0.7-0.2c1.5,5.7,13.8,6.3,31-15.5l-1.6,4.9
			c-14.7,18.8-28.9,18.7-31.1,11.1L58.3,146.5"/>
		<path class="st2" d="M58.1,146.6c0.1,0,0.1,0.3,0.1,0.4c0.6,1.9,1.7,2.6,4.6,3c2.9,0.4,5.9-0.1,8.5-1.3
			c8.1-3.7,14.4-10.8,18.9-16.6l-1.1,3.3C74.5,154.3,60.4,154.1,58.1,146.6L58.1,146.6"/>
	</g>
</g>
<path class="st0" d="M165.7,128.8l-0.5,2.3c-17.9,10.7-19.5,2.3-19.6,1.9l1.3-2.8C147.4,132.8,148,139.3,165.7,128.8z"/>
<g>
	<defs>
		<path id="SVGID_132_" d="M165.7,128.8l-0.5,2.3c-17.9,10.7-19.5,2.3-19.6,1.9l1.3-2.8C147.4,132.8,148,139.3,165.7,128.8z"/>
	</defs>
	<clipPath id="SVGID_133_">
		<use xlink:href="#SVGID_132_"  style="overflow:visible;"/>
	</clipPath>
	<g class="st75">
		<path class="st11" d="M165.7,128.8l-0.5,2.3c-17.9,10.7-19.5,2.3-19.6,1.9l1.3-2.8C147.5,132.8,148,139.3,165.7,128.8"/>
		<path class="st11" d="M145.9,132.3v0.2c0.1-0.1,0.1-0.1,0.1-0.5l0.8-1.8c0.5,2.7,1.1,9.1,18.8-1.3l-0.5,2.3
			c-17.9,10.7-19.5,2.3-19.6,1.9L145.9,132.3"/>
		<path class="st9" d="M145.8,132.5c0.1,0.8,0.4,0.8,0.4,0.8s0-1.6,0-1.6l0.7-1.5c0.5,2.7,1.1,9.1,18.8-1.3l-0.5,2.3
			c-17.9,10.7-19.5,2.3-19.6,1.9L145.8,132.5"/>
		<path class="st5" d="M145.8,132.7c0.2,1.1,0.8,1.4,0.9,1.3c0.1-0.1-0.2-2.8-0.2-2.8l0.5-1.1c0.5,2.7,1.1,9.1,18.8-1.3l-0.5,2.3
			c-17.9,10.7-19.5,2.3-19.6,1.9L145.8,132.7"/>
		<path class="st2" d="M145.6,133c0.7,3.3,5,2.5,6.9,2.2c4.2-0.7,8.8-3.2,13.1-5.7l-0.3,1.6C147.3,141.8,145.7,133.4,145.6,133
			L145.6,133"/>
	</g>
</g>
<path class="st0" d="M29.4,160.3l0.6,2.6c-4.3-2.6-9-4.6-13.8-6.1l2.5-1C22.5,157,26,158.5,29.4,160.3z"/>
<g>
	<defs>
		<path id="SVGID_134_" d="M29.4,160.3l0.6,2.6c-4.3-2.6-9-4.6-13.8-6.1l2.5-1C22.5,157,26,158.5,29.4,160.3z"/>
	</defs>
	<clipPath id="SVGID_135_">
		<use xlink:href="#SVGID_134_"  style="overflow:visible;"/>
	</clipPath>
	<g class="st76">
		<path class="st2" d="M29.4,160.3l0.6,2.6c-4.3-2.6-9-4.6-13.8-6.1l2.5-1C22.5,156.9,26,158.5,29.4,160.3"/>
		<path class="st2" d="M17.6,156.3c5.8,2.1,10.4,4.3,12.3,5.9l0.2,0.7c-4.3-2.6-9-4.6-13.8-6.1L17.6,156.3"/>
	</g>
</g>
<path class="st0" d="M18.8,155.7l-2.5,1l30.5-58.3l0.9,2L18.8,155.7z"/>
<g>
	<defs>
		<polygon id="SVGID_136_" points="18.8,155.7 16.2,156.8 46.8,98.5 47.7,100.5 		"/>
	</defs>
	<clipPath id="SVGID_137_">
		<use xlink:href="#SVGID_136_"  style="overflow:visible;"/>
	</clipPath>
	<g class="st77">
		<path class="st5" d="M47.7,100.5l-28.9,55.2l-0.8,0.3l29.4-56.1L47.7,100.5"/>
		<path class="st9" d="M47.5,99.9L18,156.1l-0.6,0.3l29.8-56.9L47.5,99.9"/>
		<path class="st11" d="M47.2,99.4l-29.8,56.9l-0.7,0.3L47,98.9L47.2,99.4"/>
		<path class="st9" d="M47,98.9l-30.2,57.7l-0.5,0.2l30.5-58.2L47,98.9"/>
		<path class="st5" d="M46.8,98.5l-30.5,58.2l0,0L46.8,98.5L46.8,98.5"/>
	</g>
</g>
<path class="st0" d="M188.1,120.9l1.5,1.6c-1.6,7.9-17.2,18.2-24.4,8.7l0.5-2.3C172.4,138.1,186.5,129,188.1,120.9z"/>
<g>
	<defs>
		<path id="SVGID_138_" d="M188.1,120.9l1.5,1.6c-1.6,7.9-17.2,18.2-24.4,8.7l0.5-2.3C172.4,138.1,186.5,129,188.1,120.9z"/>
	</defs>
	<clipPath id="SVGID_139_">
		<use xlink:href="#SVGID_138_"  style="overflow:visible;"/>
	</clipPath>
	<g class="st78">
		<path class="st2" d="M188.1,120.9l1.5,1.6c-1.6,7.9-17.2,18.2-24.4,8.7l0.5-2.3C172.4,138.1,186.5,129,188.1,120.9"/>
		<path class="st2" d="M165.2,131.1c5.5,6.5,20.8,0.3,23.4-9.5l0.9,0.9C188,130.4,172.4,140.7,165.2,131.1L165.2,131.1"/>
	</g>
</g>
<path class="st0" d="M199.6,115.9l-5.3,4.6c-1.5,0.8-3,1.4-4.6,1.9l-1.5-1.6C190,120.6,193.3,119,199.6,115.9z"/>
<g>
	<defs>
		<path id="SVGID_140_" d="M199.6,115.9l-5.3,4.6c-1.5,0.8-3,1.4-4.6,1.9l-1.5-1.6C190,120.6,193.3,119,199.6,115.9z"/>
	</defs>
	<clipPath id="SVGID_141_">
		<use xlink:href="#SVGID_140_"  style="overflow:visible;"/>
	</clipPath>
	<g class="st79">
		<path class="st2" d="M199.6,115.9l-5.3,4.6c-1.5,0.8-3,1.4-4.6,1.9l-1.5-1.6C190.1,120.6,193.3,119,199.6,115.9"/>
		<path class="st2" d="M188.6,121.4c1.5-0.3,4.3-1.6,9.3-4.1l-3.7,3.2c-1.5,0.8-3,1.4-4.6,1.9L188.6,121.4"/>
	</g>
</g>
<path class="st0" d="M7,109H6.5H5c0.2-0.6,4.8-11.6,6.9-17l1.7,0.7C11.5,98.1,6.9,109.2,7,109z"/>
<g>
	<defs>
		<path id="SVGID_142_" d="M7,109H6.5H5c0.2-0.6,4.8-11.6,6.9-17l1.7,0.7C11.5,98.1,6.9,109.2,7,109z"/>
	</defs>
	<clipPath id="SVGID_143_">
		<use xlink:href="#SVGID_142_"  style="overflow:visible;"/>
	</clipPath>
	<g class="st80">
		<path class="st5" d="M7,109H6.5H5c0.2-0.6,4.8-11.6,6.9-17l1.7,0.7C11.5,98,6.9,109.1,7,109"/>
		<path class="st5" d="M13.6,92.8c-2.1,5.3-6.7,16.4-6.7,16.2H6.2c0-0.1,0-0.1,0.3-0.7c4.5-10.7,5.9-14.5,6.5-15.9L13.6,92.8"/>
		<path class="st5" d="M12,92.1c-2.3,6-7,16.9-7,16.9C5.2,108.5,9.8,97.5,12,92.1L12,92.1"/>
		<path class="st56" d="M11.9,92.1c-2.4,6-6.5,15.9-6.9,17C5.2,108.5,9.8,97.5,11.9,92.1L11.9,92.1"/>
		<path class="st56" d="M13.6,92.8c-2.1,5.3-6.7,16.4-6.7,16.2H6.5c0.2-0.1,0.3-0.2,0.5-0.3l0.1-0.3l0.2-0.4l0.2-0.5l0.3-0.7
			l0.3-0.7l0.3-0.8l0.4-0.9C11.1,98.9,12.4,95.7,13.6,92.8L13.6,92.8"/>
		<path class="st2" d="M7,109H6.6h0.1C6.8,109,6.9,108.9,7,109"/>
		<path class="st57" d="M7,109L7,109"/>
	</g>
</g>
<path class="st0" d="M90.2,137.7c-0.1-0.5-0.1-0.9-0.3-1.5c0,0,5.7-4.3,6.7-0.9l-1.7-0.5c0.1-0.6-4.4,3.2-4.7,3.4L90.2,137.7z"/>
<g>
	<defs>
		<path id="SVGID_144_" d="M90.2,137.7c-0.1-0.5-0.1-0.9-0.3-1.5c0,0,5.7-4.3,6.7-0.9l-1.7-0.5c0.1-0.6-4.4,3.2-4.7,3.4L90.2,137.7z
			"/>
	</defs>
	<clipPath id="SVGID_145_">
		<use xlink:href="#SVGID_144_"  style="overflow:visible;"/>
	</clipPath>
	<g class="st81">
		<path class="st11" d="M90.2,137.7c-0.1-0.5-0.1-0.9-0.3-1.5c0,0,5.7-4.3,6.7-0.9l-1.7-0.5c0.1-0.6-4.4,3.2-4.7,3.4L90.2,137.7"/>
		<path class="st11" d="M90.2,137.7v-0.3v-0.1v-0.1v-0.1v-0.1v-0.1v-0.2v-0.2v-0.2c0,0,5.7-4.3,6.7-0.9l-1-0.3l0,0
			c-0.1-0.1-0.2-0.1-0.3-0.1l-0.4-0.1c0.1-0.6-4.4,3.2-4.7,3.4l-0.1-0.6"/>
		<path class="st9" d="M90.2,137.7v-0.3v-0.1v-0.1v-0.1v-0.1v-0.1v-0.2v-0.2v-0.2c0,0,5.7-4.3,6.7-0.9l-0.9-0.2l0,0
			c-0.1-0.2-0.4-0.2-0.6-0.2l-0.3-0.1c0.1-0.6-4.4,3.2-4.7,3.4l-0.1-0.6"/>
		<path class="st5" d="M90.2,137.7v-0.3v-0.1v-0.1v-0.1v-0.1v-0.1v-0.2v-0.2v-0.2c0,0,5.7-4.3,6.7-0.9l-0.6-0.2l0,0
			c-0.1-0.2-0.1-0.3-0.3-0.3c-0.2-0.1-0.5,0.1-0.7,0h-0.1c0.1-0.6-4.4,3.2-4.7,3.4l-0.1-0.6"/>
		<path class="st2" d="M90.2,137.7v-0.3v-0.1v-0.1v-0.1v-0.1v-0.1v-0.2v-0.2v-0.2l0,0l0.1,0.6c1.1-0.9,2.3-1.6,3.5-2.2
			c1.5-0.6,2-0.2,2-0.1s-0.4,0.1-0.6,0.3l0,0c0-0.5-4.4,3.3-4.7,3.5l-0.1-0.6"/>
	</g>
</g>
<path class="st0" d="M64,102.5c-0.5,0.3-0.7,0.4-1.2,0.7c0.2-0.1-6.7-0.9-15.1-2.7l-0.9-2c10.2,2.1,17.3,2.8,19.5,2.7L64,102.5z"/>
<g>
	<defs>
		<path id="SVGID_146_" d="M64,102.5c-0.5,0.3-0.7,0.4-1.2,0.7c0.2-0.1-6.7-0.9-15.1-2.7l-0.9-2c10.2,2.1,17.3,2.8,19.5,2.7
			L64,102.5z"/>
	</defs>
	<clipPath id="SVGID_147_">
		<use xlink:href="#SVGID_146_"  style="overflow:visible;"/>
	</clipPath>
	<g class="st82">
		<path class="st11" d="M64,102.5c-0.5,0.3-0.7,0.4-1.2,0.7c0.2-0.1-6.7-0.9-15.1-2.7l-0.9-2c10.2,2.1,17.3,2.8,19.5,2.7L64,102.5"
			/>
		<path class="st11" d="M65.5,101.7h-0.1c-2-0.3-4-0.3-6-0.5c-3.1-0.4-6.2-1.3-9.4-1.3c4.6,1,9.2,1.7,13.8,2.1c0.3,0,0.6,0,0.9,0.1
			c0,0,0,0.1,0,0.1l0,0l-0.7,0.4l0,0l-0.7,0.4l-0.2,0.1l-0.3,0.2c0.2-0.1-6.6-0.9-15-2.7l-0.9-2c10.2,2.1,17.3,2.8,19.5,2.7
			L65.5,101.7"/>
		<path class="st9" d="M65.7,101.6c-2.6-0.3-5.2-0.4-7.8-0.8c-4.9-0.7-8.9-1.5-11-1.9l-0.2-0.4c10.2,2.1,17.3,2.8,19.5,2.7
			L65.7,101.6"/>
		<path class="st9" d="M64,102.5l-0.7,0.4L63,103l-0.3,0.2c0.2-0.1-6.6-0.9-15-2.7l-0.5-1l0,0c5.5,1.2,11,2.1,16.6,2.7h0.5
			c0,0,0,0.1,0,0.1l0,0L64,102.5"/>
		<path class="st5" d="M64,102.5l-0.7,0.4L63,103l-0.3,0.2c0.2-0.1-6.6-0.9-15-2.7l-0.3-0.6l0,0C52.9,101.1,58.3,102,64,102.5
			C63.9,102.5,64,102.5,64,102.5L64,102.5L64,102.5"/>
		<path class="st5" d="M66.3,101.3c-0.5,0-5.7,0.1-19.5-2.7C57,100.6,64,101.4,66.3,101.3L66.3,101.3"/>
		<path class="st2" d="M64,102.5l-0.7,0.4L63,103l-0.3,0.2l0,0C63.2,103,63.6,102.7,64,102.5L64,102.5"/>
	</g>
</g>
<path class="st0" d="M30,162.7c-0.2-0.6-0.5-1.2-1-1.7c0,0,0.5-1.1,1-2.5c1.2-3.3,6.9-11.6,12.9-16.6c6.4-5.5,14.1-7.3,16.9,4.2
	l-1.7,0.5c-2.2-9.8-8.3-8.2-14.1-3.3c-5.8,4.8-11.3,12.9-12.4,15.9c-0.5,1.3-1,2.5-1.7,3.7L30,162.7z"/>
<g>
	<defs>
		<path id="SVGID_148_" d="M30,162.7c-0.2-0.6-0.5-1.2-1-1.7c0,0,0.5-1.1,1-2.5c1.2-3.3,6.9-11.6,12.9-16.6
			c6.4-5.5,14.1-7.3,16.9,4.2l-1.7,0.5c-2.2-9.8-8.3-8.2-14.1-3.3c-5.8,4.8-11.3,12.9-12.4,15.9c-0.5,1.3-1,2.5-1.7,3.7L30,162.7z"
			/>
	</defs>
	<clipPath id="SVGID_149_">
		<use xlink:href="#SVGID_148_"  style="overflow:visible;"/>
	</clipPath>
	<g class="st83">
		<path class="st11" d="M30,162.7c-0.2-0.6-0.5-1.2-1-1.7c0,0,0.5-1.1,1-2.5c1.2-3.3,6.9-11.6,12.9-16.6c6.4-5.5,14.1-7.3,16.9,4.2
			l-1.7,0.5c-2.2-9.8-8.3-8.2-14.1-3.3c-5.8,4.8-11.3,12.9-12.4,15.9c-0.5,1.3-1,2.5-1.7,3.7L30,162.7"/>
		<path class="st11" d="M30,162.7v-0.2v-0.1v-0.1v-0.1v-0.1v-0.1v-0.1v-0.1l-0.1-0.1l-0.1-0.1l-0.1-0.1l-0.1-0.1l-0.1-0.1l-0.1-0.1
			l-0.1-0.1c0,0,0.5-1.1,1.1-2.5c1.2-3.3,6.9-11.6,12.9-16.6c6.4-5.5,14.1-7.3,16.9,4.2l-1.1,0.3l0,0l-0.1-0.3v0.3l-0.5,0.1
			c-2.2-9.8-8.3-8.2-14.1-3.3c-5.8,4.8-11.3,12.9-12.4,15.9c-0.5,1.3-1,2.5-1.7,3.7v-0.1"/>
		<path class="st9" d="M30,162.7v-0.2v-0.1v-0.1v-0.1v-0.1v-0.1v-0.1v-0.1l-0.1-0.1l-0.1-0.1l-0.1-0.1l-0.1-0.1l-0.1-0.1l-0.1-0.1
			l-0.1-0.1c0,0,0.5-1.1,1.1-2.5c1.2-3.3,6.9-11.6,12.9-16.6c6.4-5.5,14.1-7.3,16.9,4.2l-0.9,0.3l0,0c-0.2-1-0.6-1.9-1.1-2.8
			c0.1,1,0.3,2,0.6,3l-0.3,0.1c-2.2-9.8-8.3-8.2-14.1-3.3c-5.8,4.8-11.3,12.9-12.4,15.9c-0.5,1.3-1,2.5-1.7,3.7v-0.1"/>
		<path class="st5" d="M30,162.7v-0.2v-0.1v-0.1v-0.1v-0.1v-0.1v-0.1v-0.1l-0.1-0.1l-0.1-0.1l-0.1-0.1l-0.1-0.1l-0.1-0.1l-0.1-0.1
			l-0.1-0.1c0,0,0.5-1.1,1.1-2.5c1.2-3.3,6.9-11.6,12.9-16.6c6.4-5.5,14.1-7.3,16.9,4.2l-0.7,0.2l0,0c-1.1-4.2-2.3-4.7-2.3-4.7
			s-0.1,0.1-0.1,0.1s0.1,0.4,0.2,0.6c0.6,1.4,1,2.8,1.3,4.2h-0.2c-2.2-9.8-8.3-8.2-14.1-3.3c-5.8,4.8-11.3,12.9-12.4,15.9
			c-0.5,1.3-1,2.5-1.7,3.7v-0.1"/>
		<path class="st2" d="M30,162.7v-0.2v-0.1v-0.1v-0.1v-0.1v-0.1v-0.1v-0.1l-0.1-0.1l-0.1-0.1l-0.1-0.1l-0.1-0.1l-0.1-0.1l-0.1-0.1
			l-0.1-0.1l0,0c0.1,0.1,0.2,0.3,0.3,0.3c0.5-0.8,1-1.7,1.3-2.7c2.3-6,22.5-34.1,27.5-12.1c-2.2-9.8-8.3-8.2-14.1-3.3
			c-5.8,4.8-11.3,12.9-12.4,15.9c-0.5,1.3-1,2.5-1.7,3.7v-0.1"/>
	</g>
</g>
<path class="st0" d="M194.1,131.2c0.4-0.4,0.7-0.9,0.9-1.5c0.9-2.1,13-9.9,17.2-9l-2.7,1.1c-1.1-0.3-15.3,9.9-15.6,9.6L194.1,131.2z
	"/>
<g>
	<defs>
		<path id="SVGID_150_" d="M194.1,131.2c0.4-0.4,0.7-0.9,0.9-1.5c0.9-2.1,13-9.9,17.2-9l-2.7,1.1c-1.1-0.3-15.3,9.9-15.6,9.6
			L194.1,131.2z"/>
	</defs>
	<clipPath id="SVGID_151_">
		<use xlink:href="#SVGID_150_"  style="overflow:visible;"/>
	</clipPath>
	<g class="st84">
		<path class="st5" d="M194.1,131.2c0.4-0.4,0.7-0.9,0.9-1.5c0.9-2.1,13-9.9,17.2-9l-2.7,1.1c-1.1-0.3-15.3,9.9-15.6,9.6
			L194.1,131.2"/>
		<path class="st5" d="M194,131.3L194,131.3L194,131.3l0.1-0.2l0.1-0.1l0.1-0.1l0.1-0.1l0.1-0.1l0.1-0.1l0.1-0.1l0.1-0.1l0.1-0.2
			l0.1-0.2l0.1-0.2c0.9-2.1,13-9.9,17.2-9l-2.7,1.1c-1.1-0.3-15.3,9.9-15.6,9.6L194,131.3"/>
		<path class="st2" d="M193.9,131.4c0.1-0.1,0.1-0.1,0.2-0.2v-0.1l0.1-0.1l0.1-0.1l0.1-0.1l0.1-0.1l0.1-0.1l0.1-0.1l0.1-0.1l0.1-0.1
			l0.1-0.2l0.1-0.2l0.1-0.2v-0.1l0,0c3.4-2.1,6.4-4.6,9.9-6.5c5.2-2.8,6.1-2.1,6.1-2.1c0,0,0,0.1,0,0.1c0,0,0,0,0,0.1l-1.6,0.6
			c-1.1-0.3-15.3,9.9-15.6,9.6l0,0"/>
	</g>
</g>
<path class="st0" d="M5.1,109.1c0.7-0.4,1.2-1.1,1.5-1.8c1.2-2.5,7.6-6.3,11.4-8.2c13.9-7.2,47.2-21.4,67.4-5.7l-1.2,1.3
	c-19.1-15-51.6-1.2-65.3,5.9c-4.7,2.4-13.8,8.6-13.9,8.4L5.1,109.1z"/>
<g>
	<defs>
		<path id="SVGID_152_" d="M5.1,109.1c0.7-0.4,1.2-1.1,1.5-1.8c1.2-2.5,7.6-6.3,11.4-8.2c13.9-7.2,47.2-21.4,67.4-5.7l-1.2,1.3
			c-19.1-15-51.6-1.2-65.3,5.9c-4.7,2.4-13.8,8.6-13.9,8.4L5.1,109.1z"/>
	</defs>
	<clipPath id="SVGID_153_">
		<use xlink:href="#SVGID_152_"  style="overflow:visible;"/>
	</clipPath>
	<g class="st85">
		<path class="st5" d="M5.1,109.1c0.7-0.4,1.2-1.1,1.5-1.8c1.2-2.5,7.6-6.3,11.4-8.2c13.9-7.2,47.2-21.4,67.4-5.7l-1.2,1.3
			c-19.1-15-51.6-1.2-65.3,5.9c-4.7,2.4-13.8,8.6-13.9,8.4L5.1,109.1"/>
		<path class="st5" d="M5.1,109.1L5.1,109.1l0.5-0.3h0.1l0.1-0.1l0.1-0.1l0.1-0.1l0.1-0.1l0.1-0.1l0.1-0.1l0.1-0.1l0.1-0.1l0.1-0.1
			l0.1-0.1l0.1-0.1l0.1-0.1l0.1-0.1c1.2-2.5,7.6-6.3,11.4-8.2c13.9-7.2,47.2-21.4,67.4-5.7l-1.2,1.3c-19.1-15-51.6-1.2-65.3,5.9
			C14.2,103.1,5.1,109.3,5.1,109.1L5.1,109.1"/>
		<path class="st2" d="M5,109.1h0.1h0.1l0.3-0.2h0.1l0.1-0.1l0.1-0.1l0.1-0.1l0.1-0.1l0.1-0.1l0.1-0.1l0.1-0.1l0.1-0.1l0.1-0.1
			l0.1-0.1l0.1-0.1l0.1-0.1v-0.1l0,0c2.8-4,53.3-34.3,77.8-12.8l-0.3,0.3c-19.1-15-51.6-1.2-65.3,5.9c-4.7,2.4-13.8,8.6-13.9,8.4
			l0,0"/>
	</g>
</g>
<path class="st0" d="M220,136.8c0.3-0.1,0.6-0.2,0.9-0.3l2.3-1.2l-3.9,5.8l-1-1.8L220,136.8z"/>
<g>
	<defs>
		<path id="SVGID_154_" d="M220,136.8c0.3-0.1,0.6-0.2,0.9-0.3l2.3-1.2l-3.9,5.8l-1-1.8L220,136.8z"/>
	</defs>
	<clipPath id="SVGID_155_">
		<use xlink:href="#SVGID_154_"  style="overflow:visible;"/>
	</clipPath>
	<g class="st86">
		<path class="st5" d="M218.3,139.2l1.6-2.5l0,0h0.2h0.2h0.1l0.2-0.1l0.2-0.1h0.1h0.1l-2.3,3.4l-0.3-0.6"/>
		<path class="st2" d="M218.6,139.8l2.3-3.4l2.3-1.2l-3.9,5.8L218.6,139.8"/>
	</g>
</g>
<path class="st0" d="M90.7,136.3c-0.3,0.3-0.5,0.7-0.6,1.1l0.1,0.9c-1-0.4-1-2.7-1-2.8l1.6-5C91,134.1,91.1,135.8,90.7,136.3z"/>
<g>
	<defs>
		<path id="SVGID_156_" d="M90.7,136.3c-0.3,0.3-0.5,0.7-0.6,1.1l0.1,0.9c-1-0.4-1-2.7-1-2.8l1.6-5C91,134.1,91.1,135.8,90.7,136.3z
			"/>
	</defs>
	<clipPath id="SVGID_157_">
		<use xlink:href="#SVGID_156_"  style="overflow:visible;"/>
	</clipPath>
	<g class="st87">
		<path class="st11" d="M90.7,136.3c-0.3,0.3-0.5,0.7-0.6,1.1l0.1,0.9c-1-0.4-1-2.7-1-2.8l1.6-5C91,134.1,91.1,135.9,90.7,136.3"/>
		<path class="st11" d="M89.6,134.5c0,2.6,0.5,2.7,0.5,2.7l0.2-0.4l0,0c0,0-0.2,0-0.3-0.7c-0.1-0.8-0.1-1.6-0.1-2.5l1-3
			c0.1,3.5,0.2,5.3-0.1,5.7l0,0l-0.2,0.3l-0.1,0.1l-0.1,0.2v0.1l-0.1,0.2v0.1c0,0,0,0.1,0,0.1l0.1,0.9c-1-0.4-1-2.7-1-2.8l0.3-1"/>
		<path class="st9" d="M89.5,134.7c0,2.3,0.6,2.7,0.6,2.7c0.1,0,0-0.1,0-0.1c0.1-0.2,0.2-0.5,0.4-0.7c-0.2,0-0.4-0.2-0.5-3.5
			l0.8-2.5c0.1,3.5,0.2,5.3-0.1,5.7l0,0l-0.2,0.3l-0.1,0.1l-0.1,0.2v0.1l-0.1,0.2v0.1c0,0,0,0.1,0,0.1l0.1,0.9c-1-0.4-1-2.7-1-2.8
			L89.5,134.7"/>
		<path class="st5" d="M89.4,135.1c0,1.4,0.5,2.5,0.7,2.4c0.2-0.1,0.1-0.4,0.2-0.6c0.1-0.2,0.2-0.3,0.3-0.5c0,0,0.1,0,0.1-0.1
			c-0.3-0.9-0.3-0.9-0.4-4.1l0.6-1.7c0.1,3.5,0.2,5.3-0.1,5.7l0,0l-0.2,0.3l-0.1,0.1l-0.1,0.2v0.1l-0.1,0.2v0.1c0,0,0,0.1,0,0.1
			l0.1,0.9c-1-0.4-1-2.7-1-2.8l0.1-0.4"/>
		<path class="st2" d="M90.7,136.3L90.7,136.3L90.7,136.3L90.7,136.3"/>
		<path class="st2" d="M89.3,135.4c0,1.6,0.6,2.7,0.8,2.4c0.3-0.2,0-0.5,0.1-0.7v0.1c0,0,0,0.1,0,0.1l0.1,0.9
			C89.4,137.8,89.3,135.6,89.3,135.4L89.3,135.4"/>
	</g>
</g>
<path class="st0" d="M62.7,103.1c0.6-0.3,1.1-0.5,1.9-0.9l1.7-0.9c-1,1.3-19.6,26.5-25.8,35l-9.2,9.6
	C44.8,127.3,62.7,103.1,62.7,103.1z"/>
<g>
	<defs>
		<path id="SVGID_158_" d="M62.7,103.1c0.6-0.3,1.1-0.5,1.9-0.9l1.7-0.9c-1,1.3-19.6,26.5-25.8,35l-9.2,9.6
			C44.8,127.3,62.7,103.1,62.7,103.1z"/>
	</defs>
	<clipPath id="SVGID_159_">
		<use xlink:href="#SVGID_158_"  style="overflow:visible;"/>
	</clipPath>
	<g class="st88">
		<path class="st2" d="M62.7,103.1c0.6-0.3,1.1-0.5,1.9-0.9l1.7-0.9c-1,1.3-19.6,26.5-25.8,35l-9.2,9.6
			C44.8,127.3,62.7,103.1,62.7,103.1"/>
		<path class="st2" d="M62.7,103.1h0.1l0,0H62.7L62.7,103.1"/>
		<path class="st2" d="M34.2,142.9l7.1-9.6l1.3-1.7c4.3-5.9,9.7-13.3,19.8-26.8l0.5-0.7l0.9-1.3c-0.3,0-0.5,0.1-0.8,0.3l0.3-0.1h0.1
			l0.3-0.1l0.3-0.1l0.3-0.1l0.3-0.1l0.2-0.1h0.1l1.6-0.9c-1,1.3-19.6,26.5-25.8,35L34.2,142.9"/>
	</g>
</g>
<path class="st0" d="M209.9,111.4c0.4,0,0.9-0.1,1.3-0.2l1.1-0.3c-1.4,1.7-2.7,3.5-3.8,5.4l-4.5,5.5
	C207.5,114.2,209.7,111.4,209.9,111.4z"/>
<g>
	<defs>
		<path id="SVGID_160_" d="M209.9,111.4c0.4,0,0.9-0.1,1.3-0.2l1.1-0.3c-1.4,1.7-2.7,3.5-3.8,5.4l-4.5,5.5
			C207.5,114.2,209.7,111.4,209.9,111.4z"/>
	</defs>
	<clipPath id="SVGID_161_">
		<use xlink:href="#SVGID_160_"  style="overflow:visible;"/>
	</clipPath>
	<g class="st89">
		<path class="st2" d="M209.9,111.4c0.4,0,0.9-0.1,1.3-0.2l1.1-0.3c-1.4,1.7-2.7,3.5-3.8,5.4l-4.5,5.5
			C207.5,114.3,209.7,111.4,209.9,111.4"/>
		<path class="st2" d="M205.5,120c1.2-2.9,2.7-5.6,4.6-8.1c0.3-0.3,0.3-0.4,0.3-0.5c0,0-0.3,0-0.5,0h0.5h0.2h0.2h0.2h0.1h0.1
			l1.1-0.3c-1.4,1.7-2.7,3.5-3.8,5.4l-3,3.7"/>
	</g>
</g>
<path class="st0" d="M70,171.1c-1,0.6-2,1.3-2.9,2l-0.6,0.4c0.3-0.5,6.4-13.5,6.8-14.2l1.2,1.4l0,0C74.5,160.7,69.6,171.4,70,171.1z
	"/>
<g>
	<defs>
		<path id="SVGID_162_" d="M70,171.1c-1,0.6-2,1.3-2.9,2l-0.6,0.4c0.3-0.5,6.4-13.5,6.8-14.2l1.2,1.4l0,0
			C74.5,160.7,69.6,171.4,70,171.1z"/>
	</defs>
	<clipPath id="SVGID_163_">
		<use xlink:href="#SVGID_162_"  style="overflow:visible;"/>
	</clipPath>
	<g class="st90">
		<path class="st9" d="M70,171.1c-1,0.6-2,1.3-2.9,2l-0.6,0.4c0.3-0.5,6.4-13.5,6.8-14.2l1.2,1.4l0,0
			C74.5,160.7,69.5,171.4,70,171.1"/>
		<path class="st9" d="M73.5,159.6c-6.1,12.9-6.1,12.9-6.4,13.4c0.1,0,0.2,0,0.2-0.1h0.1c0.4-0.2,0.7-0.6,0.8-1
			c2-3.9,3.7-8,5.6-11.9l0.6,0.7c0,0-4.9,10.7-4.5,10.4l0,0l-0.5,0.3l-0.3,0.2l-0.3,0.2l-0.2,0.2l-0.2,0.2l-0.2,0.2l-0.2,0.2
			l-0.2,0.2l-0.2,0.2l-0.2,0.1l-0.2,0.1l-0.2,0.1l0,0l-0.6,0.4c0.3-0.5,6.4-13.5,6.8-14.2L73.5,159.6"/>
		<path class="st5" d="M74.5,160.8L74.5,160.8c0,0-5,10.7-4.5,10.3l0,0l-0.5,0.3l-0.3,0.2l-0.3,0.2l-0.2,0.2l-0.2,0.2l-0.2,0.2
			l-0.2,0.2l-0.2,0.2l-0.2,0.2l-0.2,0.1l-0.2,0.1l-0.2,0.1l0,0l0,0l0.3-0.2h0.1c1.3-0.9,1.3-1,1.5-1.3c0.5-0.9,5.2-11.1,5.3-11.2
			l0.3,0.4"/>
		<path class="st5" d="M73.3,159.3c0,0.1-6.1,13.1-6.7,14.2C66.9,173,73,160,73.3,159.3L73.3,159.3"/>
		<path class="st2" d="M67.2,173l0.1-0.1h0.1l0,0l-0.3,0.2l0,0L67.2,173"/>
		<path class="st2" d="M70,171.1l-0.5,0.3l-0.3,0.2l-0.3,0.2l-0.2,0.2l-0.2,0.2l-0.2,0.2l-0.2,0.2l-0.2,0.1l0,0
			C68.6,172,69.1,171.7,70,171.1L70,171.1"/>
		<path class="st2" d="M74.5,160.8L74.5,160.8L74.5,160.8C74.5,160.7,74.5,160.7,74.5,160.8L74.5,160.8"/>
	</g>
</g>
<path d="M161,159.7c-0.1,0.5,0,1.1,0.3,1.6h-1.6c0.2-0.5,0.3-1,0.3-1.6v-4.5c0.1-0.5,0-1.1-0.2-1.5h3.7c0.3,0,0.5,0,0.5,0.1v0.9l0,0
	c-0.3-0.5-1.1-0.6-1.6-0.6H161v3.1c0.9,0,1.9,0,2.8-0.1c-0.4,0.7-1.8,0.7-2.5,0.7H161V159.7L161,159.7z"/>
<path d="M170.9,157.7c0,1.7-0.7,3.3-2.4,3.3c-1.9,0-2.4-2.1-2.4-3.6s0.7-3.3,2.4-3.3C170.4,154.1,170.9,156.1,170.9,157.7z
	 M172.2,157.4c0.2-1.9-1.1-3.6-3-3.8c-0.2,0-0.4,0-0.6,0c-2.1,0-3.8,1.6-3.8,3.7c0,0.1,0,0.3,0,0.4c-0.2,1.9,1.1,3.6,3,3.8
	c0.2,0,0.4,0,0.6,0c2.1,0,3.8-1.6,3.8-3.7C172.2,157.6,172.2,157.5,172.2,157.4L172.2,157.4z"/>
<path d="M179.1,157.7c0,1.7-0.7,3.3-2.4,3.3c-1.9,0-2.4-2.1-2.4-3.6s0.7-3.3,2.4-3.3C178.6,154.1,179.1,156.1,179.1,157.7z
	 M180.3,157.4c0.2-1.9-1.1-3.6-3-3.8c-0.2,0-0.4,0-0.6,0c-2.1,0-3.8,1.6-3.8,3.7c0,0.1,0,0.3,0,0.4c-0.2,1.9,1.1,3.6,3,3.8
	c0.2,0,0.4,0,0.6,0c2.1,0,3.8-1.6,3.8-3.7C180.3,157.6,180.3,157.5,180.3,157.4z"/>
<path d="M182.4,154.7c0-0.2,0-0.4,0-0.6c0.4-0.1,0.8-0.1,1.1-0.1c1.7-0.1,3.1,1.1,3.3,2.8c0,0.2,0,0.4,0,0.6c0,1.9-0.7,3.5-2.9,3.5
	c-1.3,0-1.5,0-1.5-0.9V154.7z M181.4,159.8c0.1,0.5,0,1.1-0.3,1.5c0.8,0,1.7,0,2.9,0c2.1,0.1,4-1.5,4.1-3.6c0-0.2,0-0.3,0-0.5
	c0.2-1.8-1.2-3.4-3-3.6c-0.1,0-0.2,0-0.3,0c-1.2,0-2.4,0.1-3.6,0.1c0.2,0.5,0.3,1,0.3,1.5V159.8L181.4,159.8z"/>
<path d="M192.2,159.8c0.4,0.8,1.2,1.2,2.1,1.2c0.8,0.1,1.5-0.5,1.6-1.3c0-0.1,0-0.1,0-0.2c0-2-3.4-1.7-3.4-4c0-1.2,1-2.1,2.2-2.1
	c0.1,0,0.1,0,0.2,0c0.6,0,1.2,0.1,1.8,0.1v1.1c-0.4-0.5-1-0.8-1.6-0.7c-0.7-0.1-1.4,0.5-1.4,1.2c0,0,0,0.1,0,0.1
	c0,1.8,3.4,1.6,3.4,3.9c-0.1,1.4-1.4,2.4-2.8,2.3c0,0,0,0,0,0c-0.7,0-1.4-0.2-2-0.4L192.2,159.8z"/>
<path d="M199.9,161.3c0.2-0.5,0.3-1,0.3-1.6v-5.4h-1.6c-0.3,0-0.6,0.1-0.8,0.3l0.2-0.9h6c-0.2,0.5-0.9,0.6-1.4,0.6h-1.3v5.4
	c-0.1,0.5,0,1.1,0.3,1.6L199.9,161.3L199.9,161.3z"/>
<path d="M210.1,157.7c0,1.7-0.7,3.3-2.4,3.3c-1.9,0-2.4-2.1-2.4-3.6s0.7-3.3,2.4-3.3C209.6,154.1,210.1,156.1,210.1,157.7z
	 M211.3,157.4c0.2-1.9-1.1-3.6-3-3.8c-0.2,0-0.4,0-0.6,0c-2.1,0-3.8,1.6-3.8,3.7c0,0.1,0,0.3,0,0.4c-0.2,1.9,1.1,3.6,3,3.8
	c0.2,0,0.4,0,0.6,0c2.1,0,3.8-1.6,3.8-3.7C211.4,157.6,211.3,157.5,211.3,157.4z"/>
<path d="M213.7,154.7c0-0.2,0-0.4,0-0.6h0.6c1.1,0,1.7,0.2,1.7,1.3c0.1,0.9-0.5,1.7-1.4,1.8c-0.1,0-0.2,0-0.4,0h-0.5L213.7,154.7z
	 M215.3,157.3c1-0.3,1.7-1.1,1.8-2.2c0-0.9-0.6-1.6-1.8-1.6c-0.9,0-1.9,0.1-2.9,0.1c0.2,0.5,0.3,1,0.3,1.6v4.4
	c0.1,0.6-0.1,1.1-0.3,1.6h1.7c-0.2-0.5-0.3-1-0.3-1.5v-2.1c0.7,0,0.8,0.3,1.3,1l1.5,2.1c0.2,0.4,0.6,0.6,1,0.7h0.9
	c-0.4-0.3-0.7-0.7-1-1.1L215.3,157.3z"/>
<path d="M220.1,160.8h1.3c0.7,0,1.5-0.2,2.1-0.7l-0.2,1.1c-0.3,0-0.7,0-1.1,0h-3.4c0.2-0.5,0.3-1,0.3-1.5v-4.5
	c0.1-0.5,0-1.1-0.3-1.5h4.1v0.9c-0.5-0.3-1.1-0.5-1.8-0.4H220v2.9c0.9,0,1.9,0,2.8-0.1c-0.4,0.7-1.8,0.7-2.5,0.7H220L220.1,160.8
	L220.1,160.8z"/>
<path d="M224.1,159.8c0.4,0.8,1.2,1.2,2.1,1.2c0.8,0.1,1.5-0.5,1.6-1.3c0-0.1,0-0.1,0-0.2c0-2-3.4-1.7-3.4-4c0-1.2,1-2.1,2.2-2.1
	c0.1,0,0.1,0,0.2,0c0.6,0,1.2,0.1,1.8,0.1v1.1c-0.4-0.5-1-0.8-1.6-0.7c-0.7-0.1-1.4,0.5-1.4,1.2c0,0,0,0.1,0,0.1
	c0,1.8,3.4,1.6,3.4,3.9c-0.1,1.4-1.4,2.4-2.8,2.3c0,0,0,0,0,0c-0.7,0-1.4-0.2-2-0.4L224.1,159.8L224.1,159.8z"/>
<path d="M231.4,155.3c0.1-1.2,1.2-2.2,2.4-2.1c1.2,0.1,2.2,1.2,2.1,2.4c-0.1,1.2-1.1,2.1-2.2,2.1
	C232.3,157.6,231.3,156.5,231.4,155.3z M230.9,155.3c0,1.5,1.2,2.7,2.7,2.7c1.5,0,2.7-1.2,2.7-2.7c0-1.5-1.2-2.7-2.7-2.7
	C232.1,152.6,230.9,153.8,230.9,155.3z M232.7,156.2c0,0.3,0,0.3-0.4,0.4v0.1h1.3v-0.1c-0.4,0-0.4,0-0.4-0.4v-0.7h0.4
	c0.5,0.7,0.7,1.3,1,1.3h0.5v-0.1c-0.2-0.2-0.4-0.4-0.6-0.7l-0.5-0.6c0.4-0.1,0.6-0.4,0.6-0.8c0-0.5-0.5-0.7-0.9-0.7h-1.4v0.1
	c0.4,0,0.4,0,0.4,0.4v1.9L232.7,156.2z M233.2,153.9h0.3c0.4,0,0.6,0.2,0.6,0.6c0,0.4-0.1,0.7-0.5,0.7h-0.3V153.9z"/>
</svg>
