<svg id="Layer_1" data-name="Layer 1" xmlns="http://www.w3.org/2000/svg" width="250" height="250" viewBox="0 0 250 250"><defs><style>.cls-1{fill:#f9e8a0;}.cls-2{fill:red;}.cls-3{fill:#414042;}</style></defs><title>iShop</title><circle class="cls-1" cx="124.22" cy="124.61" r="83.59"/><rect class="cls-2" x="107.81" y="98.83" width="11.72" height="23.44"/><rect class="cls-2" x="128.91" y="127.73" width="11.72" height="23.44"/><path class="cls-3" d="M185.94,63.67a86.9,86.9,0,0,0-61.72-25.78c-23.44,0-44.53,9.38-60.94,25.78S37.5,101.17,37.5,124.61a87.5,87.5,0,0,0,175,0c0-23.44-10.16-44.53-26.56-60.94ZM124.22,202.73a78.13,78.13,0,1,1,78.13-78.13,78.35,78.35,0,0,1-78.13,78.13Z"/><path class="cls-3" d="M140.63,101.17a4.69,4.69,0,1,0,0-9.37H128.91V83.2a4.69,4.69,0,0,0-9.38,0v9.37h-2.34c-9.37-.78-18,7.81-18,18A19,19,0,0,0,118,129.3h13.28a9.37,9.37,0,1,1,0,18.75H107.81a4.69,4.69,0,1,0,0,9.38h12.5v9.38a4.69,4.69,0,1,0,9.38,0v-9.37h1.56c10.16,0,18-8.59,18-18.75a19,19,0,0,0-18.75-18.75H117.19a9.38,9.38,0,0,1,0-18.75"/></svg>