<?xml version="1.0" encoding="utf-8"?>
<!-- Generator: Adobe Illustrator 21.1.0, SVG Export Plug-In . SVG Version: 6.00 Build 0)  -->
<svg version="1.1" id="Layer_1" xmlns="http://www.w3.org/2000/svg" xmlns:xlink="http://www.w3.org/1999/xlink" x="0px" y="0px"
	 viewBox="0 0 250 250" style="enable-background:new 0 0 250 250;" xml:space="preserve">
<style type="text/css">
	.st0{fill:#6CC049;}
	.st1{fill:#231F20;}
	.st2{fill:#01973A;}
	.st3{fill:#009639;}
</style>
<title>Dollar</title>
<path class="st0" d="M90.2,134c-0.3-0.5-0.7-0.9-1-1.3c-1.1-1.6-2.1-3.3-2.9-5c-0.2-0.2-0.1-0.5,0.1-0.6c0,0,0,0,0,0
	c0.1-0.1,0.1-0.1,0.2-0.2L142.5,71c0.7-0.7,0.4-0.7,1.3-0.2c1.9,1,3.7,2.1,5.5,3.3c0.4,0.3,0.4,0.3,0.1,0.7l-0.3,0.3l-58.2,58.3
	L90.2,134z"/>
<path class="st1" d="M117,150.3c0.5-0.2,1-0.4,1.4-0.7c0.6-0.4,1.1-0.9,1.5-1.5c0.1-0.2,0.1-0.4,0.1-0.6c0.2-1.8,0.2-3.6,0.2-5.3
	c0-9,0-18,0-26.9c0-1,0-2-0.2-2.9c-0.1-1.3-1.3-2.2-2.6-2.1c-0.1,0-0.2,0-0.3,0.1l-0.4,0.1c0.2-0.4,14.1-14.2,14.7-14.5
	c0,0.3,0,0.5,0,0.7c0,15,0,29.9,0,44.9c0,1.9,0,3.8,0,5.6c0,0.7,0.3,1.4,0.9,1.9c0.4,0.5,1,0.9,1.6,1.2c0.1,0,0.1,0.1,0.1,0.2
	c0,0,0,0,0,0c0,0.1-0.1,0.1-0.2,0.1h-16.4C117.3,150.4,117.2,150.4,117,150.3z"/>
<path class="st0" d="M141,69.5l-55.7,55.7c-0.2-0.2-0.3-0.5-0.4-0.8c-0.9-2.2-1.5-4.4-2.1-6.7c-0.1-0.4,0-0.7,0.3-1
	C99.6,100.4,116,84,132.5,67.5c0.3-0.3,0.7-0.4,1.1-0.3c2.2,0.5,4.4,1.2,6.5,2L141,69.5z"/>
<path class="st0" d="M82.3,114.7c0-0.4-0.1-0.8-0.2-1.2c-0.2-2.3-0.3-4.5-0.2-6.8c0-0.6,0-1.3,0.1-1.9c0-0.2,0.1-0.5,0.3-0.6
	l0.2-0.2l37.1-37.1c0.3-0.3,0.7-0.5,1.1-0.5c3.1-0.3,6.2-0.2,9.2,0.2c0.1,0,0.3,0,0.4,0.1L82.3,114.7z"/>
<path class="st2" d="M5,183.1l0.5-2.7l3.8-18.4c0.1-0.6,0.3-1.1,0.3-1.7c0-0.3,0.2-0.4,0.5-0.4c3.7,0,7.4,0,11,0
	c1.4,0,2.7,0.4,4,0.9c2.4,1,4.1,3.3,4.3,5.9c0.5,4.7-1.1,9.4-4.4,12.9c-2,1.9-4.5,3.1-7.2,3.4c-0.7,0.1-1.4,0.1-2,0.1H5.5
	C5.3,183.2,5.2,183.2,5,183.1z M13.7,177.6c0.8,0,1.5,0,2.2,0c1.5-0.1,2.9-0.7,3.9-1.8c1.7-1.8,2.5-4.1,2.4-6.5c0-2-1.5-3.6-3.5-3.6
	c-0.1,0-0.2,0-0.3,0h-1.6c-0.6,0-0.6,0-0.7,0.6l-1.5,7.3C14.2,174.9,14,176.2,13.7,177.6z"/>
<path class="st2" d="M195.5,171.7c0.6,0.4,1.1,0.9,1.4,1.6c0.4,0.8,0.5,1.6,0.4,2.5c-0.1,1.2-0.2,2.4-0.3,3.7c0,1,0,2,0.3,3
	c0.1,0.7,0.1,0.7-0.6,0.7h-6.3c-0.6,0-0.5,0.1-0.7-0.6c-0.2-1.1-0.2-2.2-0.1-3.3c0.1-1,0.2-2.1,0.3-3.1s-0.2-1.3-1.1-1.3
	s-1.8,0-2.7,0c-0.3,0-0.3,0.2-0.3,0.4c-0.3,1.3-0.5,2.7-0.8,4c-0.3,1.3-0.5,2.4-0.7,3.6c0,0.3-0.1,0.5-0.5,0.4c-2.3,0-4.6,0-6.9,0
	h-0.2c0.1-0.8,0.3-1.6,0.5-2.3c1.4-6.7,2.8-13.5,4.2-20.2c0-0.1,0.1-0.2,0.1-0.3c0-0.2,0.1-0.3,0.3-0.3H193c1.1,0,2.2,0.1,3.2,0.3
	c2.3,0.5,3.8,2.6,3.6,5c-0.1,2.7-1.6,5-4,6.2L195.5,171.7z M186.8,169.2c1.1,0,2.2,0,3.2,0c1.1-0.1,2-0.9,2.2-1.9
	c0.1-0.5,0-1-0.3-1.3c-0.3-0.3-0.7-0.4-1.1-0.4H188c-0.3,0-0.4,0.1-0.5,0.4C187.3,167,187.1,168.1,186.8,169.2L186.8,169.2z"/>
<path class="st2" d="M140,171.7c1.4,1,2.1,2.7,1.9,4.4c0,0.8-0.1,1.6-0.2,2.4c-0.1,1.4-0.1,2.9,0.2,4.3c0,0.1,0,0.2,0,0.3
	c-0.2,0-0.4,0-0.5,0h-6.7c-0.5,0-0.5,0-0.7-0.5c-0.2-0.8-0.3-1.7-0.2-2.5c0.1-1.2,0.2-2.3,0.3-3.5c0-0.2,0-0.4,0-0.5
	c0-0.9-0.3-1.3-1.2-1.3c-0.9-0.1-1.7,0-2.5,0c-0.3,0-0.4,0.1-0.5,0.4c-0.4,2-0.8,3.9-1.2,5.9c-0.1,0.6-0.3,1.2-0.4,1.8
	c0,0.3-0.1,0.4-0.4,0.4h-6.6c-0.4,0-0.4,0-0.3-0.4l2-9.6l2.7-12.6c0.1-0.5,0.1-0.5,0.5-0.5H138c0.8,0,1.6,0.1,2.4,0.2
	c2.6,0.4,4.4,2.8,4,5.3c-0.1,2-1.1,3.8-2.7,5C141.2,170.9,140.7,171.3,140,171.7z M131.5,169.2h2.6h0.6c0.2,0,0.3,0,0.5-0.1
	c1.1-0.3,1.8-1.3,1.8-2.5c0-0.5-0.4-1-0.9-1c-0.2,0-0.4,0-0.5,0c-1,0-1.9,0-2.9,0c-0.3,0-0.4,0.1-0.5,0.4c-0.1,0.7-0.3,1.3-0.4,2.1
	C131.5,168.5,131.5,168.8,131.5,169.2L131.5,169.2z"/>
<path class="st2" d="M40.3,183.8c-1.4,0.1-2.7-0.2-4-0.6c-2.7-0.9-4.7-3.2-5.2-6c-0.4-2.3-0.3-4.7,0.4-6.9c0.7-2.8,2.2-5.4,4.4-7.4
	c2-1.8,4.5-2.9,7.1-3.2c1.8-0.3,3.6-0.2,5.3,0.2c3.2,0.8,5.6,3.5,6,6.9c0.5,4-0.6,8.1-3,11.4c-1.7,2.6-4.3,4.4-7.3,5.2
	C42.9,183.7,41.6,183.8,40.3,183.8z M47,169.1c0-0.7-0.1-1.5-0.3-2.2c-0.3-1-1.2-1.6-2.2-1.6c-1.1-0.1-2.2,0.4-3.1,1.1
	c-0.7,0.6-1.2,1.4-1.6,2.3c-0.7,1.6-1.2,3.3-1.3,5c-0.1,0.9,0,1.8,0.2,2.7c0.3,0.8,1,1.5,1.8,1.6c1.1,0.2,2.1,0,3-0.6
	c0.7-0.5,1.2-1,1.6-1.7c1.2-2,1.9-4.3,1.9-6.7L47,169.1z"/>
<path class="st2" d="M92.6,183.2c0-0.2,0.1-0.4,0.3-0.6l13.5-22.1c0.1-0.3,0.5-0.5,0.8-0.5c2.3,0,4.6,0,6.8,0c0.5,0,0.5,0,0.6,0.5
	l3.2,17.1c0.3,1.6,0.6,3.2,0.9,4.8c0,0.2,0.1,0.4,0.1,0.6c0,0.2-0.3,0.1-0.4,0.1h-6.9c-0.5,0-0.5,0-0.6-0.5
	c-0.2-1.2-0.4-2.4-0.6-3.5c0-0.3-0.2-0.4-0.5-0.4c-2.3,0-4.6,0-6.9,0c-0.3,0-0.5,0.1-0.7,0.4c-0.7,1.2-1.3,2.4-2,3.6
	c-0.1,0.3-0.5,0.5-0.8,0.5c-2.1,0-4.2,0-6.4,0L92.6,183.2z M109.4,173.2l-0.6-5.3c-1,1.8-2,3.5-3,5.3H109.4z"/>
<path class="st2" d="M221.9,160c-0.4,1.8-0.7,3.5-1.1,5.2c0,0.2-0.1,0.4-0.4,0.3h-8.7c-0.5,0-0.6,0-0.7,0.5
	c-0.2,0.8-0.3,1.7-0.5,2.6h8.9c0,0.5-0.1,0.9-0.2,1.3c-0.3,1.3-0.5,2.5-0.8,3.8c-0.1,0.5-0.1,0.5-0.6,0.5h-7.9c-0.6,0-0.6,0-0.7,0.6
	c-0.2,0.9-0.4,1.9-0.6,2.9c1.7,0,3.3,0,4.9,0h5c-0.1,0.6-0.2,1.2-0.3,1.7c-0.2,1.2-0.5,2.3-0.7,3.5c0,0.3-0.2,0.4-0.4,0.3h-16.5
	c-0.2,0-0.4,0-0.6-0.1l0.4-1.8l4.3-20.8c0.1-0.5,0.1-0.5,0.6-0.5h16.3L221.9,160z"/>
<path class="st2" d="M242.7,160.1c0,0.4-0.1,0.8-0.2,1.2c-0.2,1.3-0.5,2.5-0.8,3.8c-0.1,0.5-0.1,0.5-0.6,0.5h-8.9
	c-0.2,0-0.3,0.1-0.3,0.3c-0.2,0.9-0.4,1.8-0.6,2.8h8.9c0,0.5-0.1,1.1-0.3,1.6c-0.2,1.1-0.5,2.3-0.7,3.4c-0.1,0.7,0,0.6-0.7,0.6h-7.7
	c-0.6,0-0.6,0-0.7,0.6c-0.2,0.9-0.4,1.8-0.6,2.8h9.9c0,0.5-0.1,1-0.3,1.5c-0.2,1.2-0.5,2.3-0.7,3.5c-0.1,0.6-0.1,0.5-0.6,0.5h-16.6
	c-0.2,0-0.3,0-0.4-0.1c0.2-1.2,0.5-2.4,0.7-3.6l3.9-18.9c0.1-0.5,0.1-0.5,0.6-0.5h16.3C242.5,160,242.6,160,242.7,160.1z"/>
<path class="st2" d="M159.4,133.3l-26.1-26.1c0-0.1,0.1-0.2,0.2-0.3l4.5-4.5c0.3-0.3,0.3-0.3,0.7,0l0.2,0.2l23.8,23.8
	c0.1,0.1,0.2,0.2,0.3,0.3c0.2,0.1,0.2,0.3,0.1,0.5c0,0,0,0,0,0c-1,2.1-2.1,4-3.4,5.9C159.5,133.2,159.5,133.3,159.4,133.3z"/>
<path class="st2" d="M159.9,183.1l3.5-17c-0.2-0.1-0.4-0.1-0.7-0.1H157c-0.6,0-0.6,0-0.4-0.6l0.5-2.2c0.2-0.9,0.4-1.9,0.6-2.8
	c0-0.3,0.2-0.4,0.5-0.4h20.9c0.1,0.2,0,0.3,0,0.5c-0.3,1.7-0.7,3.3-1,5c-0.1,0.5-0.1,0.5-0.6,0.5h-5.9c-0.5,0-0.5,0-0.7,0.5
	l-3.4,16.2c-0.1,0.5-0.1,0.5-0.6,0.5h-6.5C160.1,183.2,160,183.1,159.9,183.1z"/>
<path class="st0" d="M118.6,116.8c0,0.6,0,1.2,0,1.7c0,0.4-0.1,0.7-0.4,1c-2.8,2.7-5.5,5.5-8.2,8.2l-12.8,12.8
	c-0.5,0.5-0.5,0.5-0.9,0c-1.6-1.4-3.1-3-4.5-4.6c-0.3-0.4-0.3-0.4,0-0.8l7.8-7.8l14.7-14.7c0.3-0.3,0.7-0.5,1.1-0.6
	c0.7-0.1,1.4,0,2,0.3c0.6,0.3,1,0.8,1,1.5C118.5,114.9,118.5,115.9,118.6,116.8z"/>
<path class="st0" d="M82.8,100.8c0-0.4,0-0.8,0.2-1.2c3.4-15.5,15-27.8,30.3-32c1-0.3,2.1-0.5,3.1-0.7c0.1,0,0.2,0,0.3,0
	c-0.1,0.2-0.3,0.4-0.4,0.5L86.9,96.8l-3.7,3.7C83.1,100.6,83,100.8,82.8,100.8L82.8,100.8z"/>
<path class="st3" d="M139.9,100.7l5.2-5.2l0.3,0.3l20.6,20.6c0.3,0.2,0.4,0.6,0.3,0.9c-0.5,2.4-1.2,4.7-2.1,7c0,0.2-0.1,0.3-0.2,0.5
	L139.9,100.7z"/>
<path class="st3" d="M133.3,110.5c0.2,0.1,0.3,0.2,0.4,0.4l23.6,23.6c0.5,0.5,0.5,0.4,0,0.9c-1.3,1.6-2.8,3.2-4.4,4.6
	c-0.5,0.5-0.4,0.4-0.8,0l-16-16l-2.6-2.6c-0.2-0.2-0.3-0.4-0.3-0.7c0-3.3,0-6.6,0-9.9C133.3,110.7,133.2,110.6,133.3,110.5z"/>
<path class="st2" d="M91.7,177.3l-0.7,3.3c-0.1,0.7-0.3,1.4-0.4,2.1c-0.1,0.7-0.1,0.5-0.7,0.5H73.7c0-0.4,0-0.7,0.1-1.1
	c1.5-7.1,2.9-14.2,4.4-21.3c0.2-0.7,0.1-0.7,0.9-0.7h6.1c0.2,0,0.4,0,0.7,0l-3.5,17.2H91.7z"/>
<path class="st2" d="M63.3,177.3h9.3l-0.4,2.1c-0.2,1.1-0.5,2.3-0.7,3.4c0,0.3-0.2,0.5-0.5,0.5c-0.4,0-0.8,0-1.3,0H54.6
	c0.2-0.9,0.4-1.8,0.5-2.7l4-19.5l0.2-0.8c0-0.2,0.1-0.3,0.3-0.3h7.3L63.3,177.3z"/>
<path class="st0" d="M133.3,104.3v-1.6c0-2.8,0-5.6,0-8.4c0-0.4,0.1-0.7,0.4-1l17.2-17.1c0.1-0.1,0.1-0.1,0.2-0.2
	c0.2-0.2,0.3-0.2,0.5,0c1.6,1.3,3.1,2.7,4.5,4.3c0.2,0.2,0.6,0.4,0.6,0.7s-0.4,0.5-0.6,0.7l-22.2,22.2
	C133.7,104,133.5,104.2,133.3,104.3z"/>
<path class="st3" d="M151.8,88.7c0.2,0.1,0.3,0.2,0.5,0.4l14.4,14.4c0.2,0.2,0.4,0.5,0.4,0.8c0.3,3,0.3,6,0,8.9c0,0.3-0.1,0.7-0.1,1
	c-0.2-0.1-0.4-0.2-0.5-0.4l-19.5-19.4l-0.2-0.2c-0.2-0.1-0.2-0.3,0-0.4L151.8,88.7z"/>
<path class="st3" d="M166.3,100.4l-0.5-0.4l-12.2-12.3c-0.1-0.1-0.1-0.1-0.2-0.2c-0.2-0.2-0.1-0.3,0-0.4s0.3-0.3,0.5-0.5l3.6-3.6
	c0.1-0.2,0.3-0.3,0.5-0.4C162.2,87.7,165.1,93.8,166.3,100.4z"/>
<path class="st2" d="M239.8,180.6c0-1.4,1.1-2.6,2.5-2.6c0,0,0,0,0,0c1.4,0,2.6,1.1,2.7,2.5c0,1.4-1.1,2.6-2.5,2.7
	C241.1,183.2,239.9,182.1,239.8,180.6C239.8,180.6,239.8,180.6,239.8,180.6z M242.4,178.4c-1.2,0-2.2,1-2.2,2.2c0,0,0,0,0,0
	c0,1.2,1,2.2,2.2,2.2c1.2,0,2.2-1,2.2-2.2C244.6,179.4,243.6,178.4,242.4,178.4z"/>
<path class="st0" d="M82.8,100.9L82.8,100.9C82.8,100.9,82.8,100.9,82.8,100.9L82.8,100.9z"/>
<path class="st2" d="M243.1,180.7l0.5,1.2c-0.6,0.2-0.6,0.2-0.8-0.3l-0.3-0.7c-0.1-0.2-0.2-0.1-0.4-0.1s-0.1,0.2-0.1,0.3
	c0,0.1,0,0.4,0,0.7s-0.1,0.3-0.3,0.3c-0.2,0-0.3,0-0.3-0.3c0-0.8,0-1.6,0-2.4c0-0.2,0.1-0.3,0.3-0.2c0.2,0,0.7,0,1.1,0
	c0.4,0,0.8,0.1,1,0.6C243.8,180.1,243.7,180.3,243.1,180.7z M242,179.9c0,0.4,0,0.5,0.3,0.5s0.7-0.1,0.7-0.5s-0.3-0.5-0.7-0.5
	C241.9,179.5,242,179.5,242,179.9L242,179.9z"/>
</svg>
