<?xml version="1.0" encoding="utf-8"?>
<!-- Generator: Adobe Illustrator 21.1.0, SVG Export Plug-In . SVG Version: 6.00 Build 0)  -->
<svg version="1.1" id="Layer_1" xmlns="http://www.w3.org/2000/svg" xmlns:xlink="http://www.w3.org/1999/xlink" x="0px" y="0px"
	 viewBox="0 0 250 250" style="enable-background:new 0 0 250 250;" xml:space="preserve">
<style type="text/css">
	.st0{fill:#C7C8C7;}
	.st1{fill:#FDF001;}
	.st2{fill:#DDD760;}
	.st3{fill:#25201F;}
	.st4{fill:#FBEF03;}
</style>
<title>Dollar</title>
<path class="st0" d="M5,124.9c0-16.1,0-32.1,0-48.2c-0.1-4.6,3.5-8.5,8.2-8.6c0.2,0,0.3,0,0.5,0c5.4,0.2,10.9,0.6,16.3,0.8
	c1.6,0.1,3.1,0.1,4.7,0.2c2.7,0.2,5.4,0.2,8.2,0.3c6.1,0.3,12.2,0.5,18.3,0.7c4.8,0.1,9.6,0.3,14.4,0.5c3.6,0.1,7.2,0,10.7,0.2
	c3.5,0.2,7.5,0.1,11.2,0.2c16.7,0.4,33.3,0.2,50.1,0.1c4.8,0,9.7,0,14.5-0.2c3.2-0.2,6.5,0,9.7-0.2c5.3-0.2,10.6-0.3,15.9-0.5
	c4-0.1,8.1-0.3,12.2-0.4c5.2-0.2,10.4-0.4,15.6-0.7c4.4-0.2,8.9-0.5,13.3-0.7c2.5-0.1,5-0.3,7.6-0.4c4.8,0,8.8,3.8,8.9,8.7
	c0,0,0,0,0,0.1c-0.1,32.1-0.1,64.2,0,96.3c0.2,4.6-3.4,8.5-8.1,8.7c-0.2,0-0.5,0-0.7,0c-5.3-0.1-10.7-0.6-16-0.8
	c-1.7-0.1-3.3-0.1-5-0.2c-4.5-0.3-9.1-0.3-13.6-0.5c-4-0.2-8-0.3-12-0.5c-5.2-0.2-10.4-0.3-15.6-0.5c-3.4-0.1-6.9,0-10.3-0.2
	c-4.6-0.3-9.3-0.1-13.9-0.2c-15.6-0.4-31.2-0.2-46.8-0.1c-4.9,0-9.8,0-14.7,0.2c-3.3,0.2-6.6,0-9.8,0.2c-5.3,0.2-10.7,0.3-16,0.5
	l-12,0.4c-5.2,0.2-10.4,0.4-15.6,0.7c-3.1,0.2-6.2,0.3-9.3,0.5c-4,0.2-8,0.5-12,0.6C9,182,5.1,178.3,5,173.6c0,0,0-0.1,0-0.1
	C5,157.3,5,141.1,5,124.9z M97,175.9c0.5,0,1,0,1.5,0h44.2h10c6.1,0.2,12.2-0.2,18.4,0.4c5.2,0.5,10.5-0.1,15.8,0.5
	c4.2,0.5,8.5,0.2,12.8,0.4c5.2,0.3,10.4,0.6,15.6,0.6c1.5,0,2.9,0.1,4.4,0.3c3.1,0.5,6.2,0,9.3,0.5c2.5,0.2,5,0.3,7.5,0.2
	c0.6,0.1,1.2,0,1.8-0.1c2.4-0.7,3.9-3,3.7-5.5c0-31.4,0-62.8,0-94.2c0-0.9,0-1.8,0-2.7c-0.1-2.2-2.2-4.7-4.5-4.7
	c-3.2-0.1-6.4,0-9.6,0.3c-2.8,0.5-5.7,0-8.5,0.4c-3.3,0.5-6.7,0-10.1,0.5c-3.4,0.5-7.1,0-10.7,0.4c-4.2,0.5-8.5,0-12.8,0.5
	c-5.3,0.5-10.6,0.1-15.9,0.4c-9.1,0.5-18.2,0.2-27.4,0.4c-12.4,0.3-24.9,0.4-37.3-0.2c-8.5-0.4-16.9-0.1-25.4-0.2
	c-0.1,0-0.1,0-0.1-0.1c0-0.1,0.4,0.1,0.5-0.2c-5.7-0.4-11.5,0.2-17.3-0.5c-4-0.5-8.1,0.1-12.2-0.4c-3.5-0.5-7,0.1-10.5-0.4
	c-3.5-0.5-6.8,0-10.2-0.5c-2.8-0.4-5.8,0-8.7-0.4c-2.8-0.2-5.5-0.3-8.3-0.1c-2.4,0.2-4.3,2.1-4.5,4.5c-0.7,0.2-0.4,0.8-0.4,1.2
	c0,31.5,0,63,0,94.5c0,0.7,0,1.3,0,2c0,0.4-0.1,0.8,0.4,0.9c0.1,1.8,2.7,4.2,4.4,4.1c3.2-0.2,6.4,0,9.7-0.4s6.4,0,9.6-0.5
	c2.8-0.4,5.6,0,8.5-0.4c3.9-0.5,7.8,0,11.7-0.5c3.9-0.5,7.7,0,11.6-0.4c5.9-0.5,11.8-0.1,17.7-0.5C86.6,175.7,91.8,175.9,97,175.9
	L97,175.9z M14,71.1h-0.5C13.6,71.3,13.8,71.3,14,71.1z"/>
<path class="st1" d="M8.3,75.9c0.2-2.4,2.1-4.3,4.5-4.5c2.8-0.2,5.5-0.1,8.3,0.1c2.9,0.4,5.8,0,8.7,0.4c3.4,0.5,6.8,0,10.2,0.5
	c3.3,0.5,7.1,0,10.5,0.4c4.1,0.6,8.2,0,12.2,0.4c5.8,0.7,11.5,0.1,17.3,0.5c-0.1,0.2-0.4,0-0.5,0.2s0,0.1,0.1,0.1
	c8.5,0,17-0.2,25.4,0.2c12.4,0.5,24.9,0.4,37.3,0.2c9.1-0.2,18.3,0.1,27.4-0.4c5.3-0.3,10.7,0.1,15.9-0.4c4.3-0.4,8.6,0,12.8-0.5
	c3.6-0.4,7.1,0,10.7-0.4c3.5-0.4,6.8,0,10.1-0.5c2.9-0.4,5.7,0,8.5-0.4c3.2-0.4,6.4-0.5,9.6-0.3c2.3,0,4.4,2.5,4.5,4.7
	c0,0.9,0,1.8,0,2.7c0,31.4,0,62.8,0,94.2c0.2,2.5-1.3,4.7-3.7,5.5c-0.6,0.2-1.2,0.2-1.8,0.1c-2.5,0.1-5,0.1-7.5-0.2
	c-3.1-0.5-6.2,0-9.3-0.5c-1.5-0.2-2.9-0.3-4.4-0.3c-5.2-0.1-10.4-0.4-15.6-0.6c-4.3-0.2-8.5,0.1-12.8-0.4c-5.3-0.6-10.6,0-15.8-0.5
	c-6.1-0.6-12.3-0.1-18.4-0.4c0-0.1,0.5-0.4,0-0.4c-0.9,0-1.8,0-2.7,0H98.2c-0.4,0-0.9-0.2-1.1,0.4c-5.2,0-10.5-0.2-15.7,0.2
	c-5.9,0.4-11.8,0-17.7,0.5c-3.9,0.3-7.7-0.1-11.6,0.4c-3.8,0.5-7.8,0-11.7,0.5c-2.8,0.4-5.7,0-8.5,0.4c-3.2,0.5-6.5,0.1-9.6,0.5
	s-6.5,0.2-9.7,0.4c-1.6,0.1-4.3-2.3-4.4-4.1c0-0.1,0-0.3,0-0.4c0-31.6,0-63.1,0-94.7C8.4,78.2,8.3,77.1,8.3,75.9z M124.5,120.2
	c0.4-1.3,0.5-2.7,0.4-4c0.1-0.9-0.2-1.2-1.2-1.2c-4,0-7.9,0-11.8,0c0-0.4,0-0.8,0-1.2c0-7.4,0-14.7,0-22.1c0-1-0.3-1.2-1.3-1.2
	c-2.1,0.1-4.1,0.1-6.2,0c-0.9,0-1.2,0.2-1.2,1.2c0,9.5,0,19,0,28.6c0,0.8,0.2,1.1,1,1.1c6.3,0,12.7,0,19,0
	C124.3,121.2,124.5,121,124.5,120.2z M148.7,117.5c0.5-0.6,0.5-1.4,0.1-2.1l-0.3-0.2c-0.3-0.4-0.7-0.2-1-0.2c-3.4,0-6.7,0-10.1,0
	c-1.1,0-1.6-0.2-1.4-1.3c0.1-1.1,0.1-2.2,0-3.2c0-6.3,0-12.6,0-18.9c0-0.9-0.3-1.2-1.2-1.2c-1.3,0.1-2.5,0-3.8,0
	c-1.2-0.1-2.4-0.1-3.5,0.2l-0.2,0.2h-0.2c0,0,0,0.1,0,0.1c0,0.2,0,0.4,0,0.6c0,9.7,0,19.4,0,29.1c0,0.3-0.1,0.6,0.2,0.8
	c6.9,0.2,13.7,0,20.6,0.1c0.5,0,0.6-0.3,0.6-0.7C148.6,119.5,148.7,118.5,148.7,117.5L148.7,117.5z M79.9,134.9
	c0.2-1.7,0-3.4,0.1-5.1c0-0.7-0.2-0.9-0.9-0.9c-6.3,0-12.6,0-18.9,0c-0.8,0-0.9,0.2-0.9,0.9c0,9.6,0,19.3,0,28.9
	c0,0.7,0.2,1,0.9,0.9c3.1,0,6.1,0,9.2,0h10.4c0.5,0,0.9,0.1,0.9-0.6c0-1.5,0.1-2.9,0.3-4.4c0.1-0.9-0.2-1.1-1.1-1.1
	c-3.7,0-7.4,0-11.1,0c-0.7,0-1-0.2-0.9-0.9c0-1.8,0-3.6,0-5.3h8.8c0.3,0,0.7,0.2,1-0.2c0-1.7,0-3.3,0-5c0-0.8-0.2-1-1-1
	c-2.7,0-5.3,0-8,0c-0.6,0-0.9-0.1-0.9-0.8c0.1-1.7,0-3.3,0-5c3.6,0,7.3,0,10.9,0C79.2,135.1,79.7,135.3,79.9,134.9L79.9,134.9z
	 M135,134.9c0.2-1.7,0-3.4,0.1-5.1c0-0.7-0.2-0.9-0.9-0.9c-6.3,0-12.6,0-18.9,0c-0.7,0-0.9,0.2-0.9,0.9c0,9.7,0,19.3,0,29
	c0,0.8,0.3,0.9,1,0.9c6.5,0,12.9,0,19.4,0c0.7,0,1.1-0.1,1.1-1c0-1.3,0.1-2.5,0.2-3.8c0.2-1.2-0.3-1.3-1.3-1.3c-3.6,0-7.2,0-10.9,0
	c-0.7,0-1-0.2-0.9-0.9c0-1.8,0-3.6,0-5.3c2.9,0,5.8,0,8.7,0c0.4,0,0.8,0.2,1.1-0.2c0-1.7,0-3.3,0-5c0-0.8-0.2-1-1-1
	c-2.7,0-5.3,0-8,0c-0.6,0-0.9-0.1-0.9-0.8c0.1-1.7,0-3.3,0-5c3.6,0,7.3,0,10.9,0C134.3,135.1,134.8,135.3,135,134.9L135,134.9z
	 M160,115.8h10.2c0.5,1.6,1.1,3.2,1.6,4.8c0.1,0.3,0.2,0.6,0.6,0.6c2.8,0,5.6,0,8.4,0c0-0.2,0-0.3-0.1-0.5
	c-3.6-9.8-7.1-19.7-10.7-29.5c-0.1-0.5-0.6-0.8-1.1-0.7c-2.8,0-5.7,0-8.5,0c-0.7,0-1,0.3-1.1,0.9c-0.3,1.3-0.7,2.8-1.1,4.1
	c-1.7,5.2-3.3,10.3-5,15.5l-3.3,10.2c2.7,0,5.3,0,7.9,0c0.6,0,0.5-0.4,0.7-0.7L160,115.8z M43.9,148.7c0.7,0.5,1.5,0.2,2.2,0.2
	c0.7,0,0.9,0.2,0.8,0.8c0,1,0,2.1,0,3.1c-0.4,0.2-0.9,0.3-1.3,0.5c-4.4,1.1-7.7-1.1-8.6-5.5c-0.5-2.2-0.5-4.5-0.2-6.8
	c0.2-1.6,0.7-3.1,1.5-4.5c0.8-1.3,2.3-2,3.8-1.9c1.6,0.1,2.9,1.2,3.3,2.7c0.2,0.4,0.3,0.8,0.4,1.2c0.1,0.5,0.2,0.6,0.7,0.5
	c2.6-0.5,5.1-0.9,7.7-1.3c0.5-0.1,0.6-0.2,0.5-0.7c-0.7-3.7-3.3-6.7-6.8-8c-4-1.4-8.3-1.4-12.3,0.2c-2.3,0.8-4.2,2.4-5.5,4.4
	c-3.4,5.3-3.4,11.1-1.9,17c0.8,3.9,3.6,7,7.3,8.4c4.2,1.6,8.8,1.4,12.8-0.6c0.7-0.3,1.2-0.5,1.5,0.4c0.1,0.4,0.5,0.7,0.9,0.6
	c1.3,0,2.5,0,3.8,0c0.5,0,0.7-0.1,0.7-0.7c0-4.8,0-9.6,0-14.4c0-0.5-0.1-0.7-0.7-0.7c-3.5,0-6.9,0-10.4,0c-0.4,0-0.7,0.1-0.6,0.6
	C43.9,145.7,43.7,147.2,43.9,148.7z M99.9,109.7c0.5-0.2,0.4-0.7,0.4-1.1c0-1.3,0-2.7,0-3.9c0-0.6,0.2-1.3-0.2-1.8v-0.4
	c0-0.2,0.1-0.3-0.1-0.4c-1.3-7.4-5.7-11.7-13.2-12.2c-3.5-0.3-7.1,0.7-9.9,2.9c-2.8,2.3-4.7,5.7-5.1,9.3c-0.5,3.1-0.4,6.2,0.4,9.2
	c0.6,3.2,2.5,6.1,5.1,8c4.1,2.7,9.2,3.4,13.8,1.7C96.4,119.2,98.9,115,99.9,109.7L99.9,109.7z M91.5,144c0.8,1,1.6,2,2.4,3
	c3.2,3.7,6.4,7.4,9.5,11.3c0.6,1,1.8,1.5,2.9,1.3c1-0.1,1.9-0.1,2.9,0c0.6,0,0.8-0.1,0.8-0.8c0-9.8,0-19.5,0-29.2
	c0-0.6-0.2-0.8-0.7-0.7c-1.7,0-3.4,0.1-5,0c-0.9,0-1.3,0.2-1.2,1.2c0,4.7,0,9.5,0,14.2c0,0.3,0,0.6,0,0.9l-13.3-15.6
	c-0.3-0.3-0.4-0.7-0.9-0.7c-1.6,0.1-3.3-0.1-4.9,0.1c-0.3,0.1-0.2,0.4-0.2,0.7c0,9.8,0,19.6,0,29.3c0,0.1-0.3,0.5,0.2,0.5l0.2,0.2
	c2,0.2,4,0.2,6,0.2c1,0.1,1.2-0.3,1.2-1.2c0-4.4,0-8.9,0-13.3C91.3,144.8,91.1,144.3,91.5,144L91.5,144z M211,115.1l-0.7,0.3
	c-1.6,0.9-3.6,0.3-4.5-1.3c0-0.1-0.1-0.2-0.1-0.2c-0.7-1-1.3-2-1.9-3c-0.4-0.6-0.5-0.9,0.3-1.3c5.9-3,5.8-11.3,3.3-14.7
	c-1.9-2.4-4.7-3.9-7.8-4c-5.1-0.6-10.3-0.2-15.4-0.3c-0.7,0-0.8,0.2-0.8,0.8c0,9.7,0,19.4,0,29.1c0,0.6,0.2,0.8,0.8,0.8
	c2.3,0,4.5,0,6.8,0c0.8,0,0.9-0.2,0.9-0.9c0-2.7,0-5.3,0-8c0-0.3-0.2-0.7,0.3-0.9c1-0.3,2,0,2.7,0.8c1.2,1.9,2.3,3.7,3.5,5.6
	c0.7,1.2,1.7,2.2,2.9,3c2.7,1.4,5.9,1.5,8.6,0.3c0.4-0.1,0.6-0.4,0.7-0.8C210.7,118.5,210.9,116.9,211,115.1L211,115.1z
	 M166.7,153.5l-0.5,0.2c-2.3,0.9-3.6,0.5-4.8-1.5c-0.7-1-1.3-2.1-2-3.1c-0.4-0.5-0.3-0.7,0.3-1c2.3-1.1,4-3.2,4.6-5.6
	c0.4-1.5,0.5-3.1,0.3-4.6c-0.1-3.3-2.1-6.2-5.1-7.5c-2.1-0.9-4.4-1.4-6.7-1.3c-4.3-0.1-8.5,0-12.8,0c-0.7,0-0.9,0.2-0.9,0.9
	c0,9.7,0,19.3,0,29c0,0.7,0.2,0.9,0.9,0.9c2.2,0,4.4,0,6.7,0c0.8,0,1.1-0.2,1.1-1.1c0-2.7,0-5.5,0-8.2c0-0.3-0.2-0.7,0.2-0.9
	c0.9-0.3,1.8,0,2.5,0.7c1,1.7,2.1,3.4,3.1,5c0.7,1.2,1.6,2.3,2.7,3.3c2.9,2.2,6.1,2.1,9.3,0.9c0.4-0.1,0.7-0.5,0.7-0.9
	C166.3,156.8,166.5,155.2,166.7,153.5L166.7,153.5z M42,108.9c0,3.7,0,7.5,0,11.2c0,0.9,0.2,1.2,1.1,1.2c2-0.1,4,0,6,0
	c3-0.1,6,0.3,9.1-0.4c5.1-1.2,9.1-3.6,10.5-9c1.2-4.3,1-8.8-0.3-13c-0.9-3.1-3.3-5.6-6.3-6.8c-1.2-0.5-2.5-0.9-3.8-1.1
	c-6.3-0.9-12.6-0.4-18.9-0.5c-0.5,0-0.6,0.3-0.6,0.7c0,1.1,0,2.2,0,3.2c0,2.1,0,2.1,2.1,2.1c0.8,0,1.1,0.2,1.1,1
	C42,101.3,42,105.1,42,108.9z M167.9,159.5h7.8c0.5,0,0.6-0.2,0.7-0.7c0.4-1.4,0.9-2.9,1.3-4.3c0.1-0.5,0.4-0.7,0.9-0.7
	c2.9,0,5.8,0,8.7,0c0.6,0,0.8,0.2,1,0.8c0.4,1.3,0.9,2.7,1.3,4c0.1,0.6,0.6,0.9,1.2,0.9c0,0,0,0,0,0c2.4,0,4.8,0,7.2,0
	c0.7,0,0.9-0.1,0.6-0.9c-3.6-9.7-7.1-19.5-10.5-29.2c-0.1-0.4-0.5-0.8-0.9-0.7c-2.9,0-5.8,0-8.7,0c-0.5-0.1-0.9,0.2-1,0.7
	c0,0,0,0,0,0.1c-0.4,1.4-0.7,2.9-1.2,4.3c-1.8,5.6-3.6,11.2-5.4,16.8C169.9,153.6,168.9,156.5,167.9,159.5L167.9,159.5z M201,144.1
	c0,4.8,0,9.6,0,14.4c0,0.5-0.2,1,0.7,1c6.5,0,13.1,0,19.6,0c0.6,0,0.8-0.2,0.8-0.8c0-1.3,0.2-2.5,0.2-3.8c0.1-1.7,0.3-1.5-1.5-1.5
	c-3.4,0-6.7,0-10.1,0c-1.1,0-1.3-0.3-1.3-1.3c0-7.4,0-14.9,0-22.3c0-1-0.3-1.2-1.2-1.1c-2.1,0.1-4.2,0-6.3,0c-0.9,0-1.1,0.2-1.1,1.1
	C201,134.6,201,139.4,201,144.1z M215.7,135.1c1.7,0.1,3.2-1.2,3.4-2.9c0.1-1.7-1.2-3.2-2.9-3.4c-0.1,0-0.3,0-0.4,0
	c-1.7-0.1-3.1,1.3-3.1,2.9c0,0,0,0.1,0,0.1c-0.1,1.7,1.2,3.2,2.9,3.2C215.6,135.1,215.7,135.1,215.7,135.1L215.7,135.1z"/>
<path class="st2" d="M8.3,75.9c0,1.2,0,2.3,0,3.5c0,31.6,0,63.1,0,94.7c0,0.1,0,0.3,0,0.4c-0.5-0.1-0.4-0.5-0.4-0.9c0-0.7,0-1.3,0-2
	c0-31.5,0-63,0-94.5C7.9,76.7,7.7,76.2,8.3,75.9z"/>
<path class="st2" d="M97.1,175.9c0.2-0.6,0.7-0.4,1.1-0.4h51.7c0.9,0,1.8,0,2.7,0c0.5,0,0,0.3,0,0.4h-10H98.4
	C98,175.9,97.5,175.9,97.1,175.9z"/>
<path class="st1" d="M14,71.1c-0.2,0.1-0.4,0.2-0.5,0H14z"/>
<path class="st3" d="M211,115.1c-0.2,1.7-0.3,3.4-0.4,5c0,0.4-0.3,0.7-0.7,0.8c-2.8,1.2-6,1.1-8.6-0.3c-1.2-0.7-2.2-1.8-2.9-3
	c-1.2-1.9-2.3-3.7-3.5-5.6c-0.7-0.8-1.7-1.1-2.7-0.8c-0.4,0.2-0.2,0.6-0.3,0.9c0,2.7,0,5.3,0,8c0,0.7-0.2,1-0.9,0.9
	c-2.3,0-4.5,0-6.8,0c-0.7,0-0.8-0.2-0.8-0.8c0-9.7,0-19.4,0-29.1c0-0.6,0.2-0.9,0.8-0.8c5.1,0.1,10.3-0.3,15.4,0.3
	c3.1,0.1,5.9,1.6,7.8,4.1c2.5,3.5,2.6,11.8-3.3,14.7c-0.8,0.4-0.7,0.7-0.3,1.3c0.7,1,1.3,2,1.9,3c0.7,1.7,2.7,2.4,4.3,1.6
	c0.1,0,0.2-0.1,0.2-0.1L211,115.1z M194.7,96.5c-0.6,0-1.2,0-1.7,0c-0.8-0.1-1,0.2-1,1c0,1.5,0,2.9,0,4.4c0,1.3-0.6,3,0.3,3.6
	s2.7,0.3,4.1,0.2c1.8,0.1,3.4-1.2,3.6-3c0.2-1,0.2-2.1,0-3.1c-0.2-1.4-1.3-2.5-2.7-2.8C196.5,96.6,195.6,96.5,194.7,96.5L194.7,96.5
	z"/>
<path class="st3" d="M166.7,153.5c-0.2,1.7-0.3,3.3-0.4,5c0,0.4-0.3,0.8-0.7,0.9c-3.3,1.2-6.4,1.3-9.3-0.9c-1.1-0.9-2-2-2.7-3.3
	c-1.1-1.7-2.1-3.4-3.1-5c-0.6-0.7-1.6-0.9-2.5-0.7c-0.4,0.2-0.2,0.6-0.2,0.9c0,2.7,0,5.5,0,8.2c0,0.8-0.2,1.1-1.1,1.1
	c-2.2,0-4.4,0-6.7,0c-0.7,0-0.9-0.2-0.9-0.9c0-9.7,0-19.3,0-29c0-0.7,0.2-0.9,0.9-0.9c4.3,0,8.5-0.1,12.8,0c2.3,0,4.6,0.4,6.7,1.3
	c3,1.3,5,4.2,5.1,7.5c0.2,1.5,0,3.1-0.3,4.6c-0.6,2.5-2.3,4.5-4.6,5.6c-0.6,0.3-0.7,0.5-0.3,1c0.7,1,1.3,2.1,2,3.1
	c1.3,2,2.6,2.4,4.8,1.5L166.7,153.5z M147.7,143.9c1.7,0.3,3.3,0.3,5,0c1.2-0.1,2.2-0.8,2.7-1.9c0.6-1.5,0.6-3.1,0.2-4.6
	c-0.3-1.2-1.4-2.1-2.7-2.2c-1.6-0.3-3.2-0.4-4.8-0.3c-0.5,0-0.4,0.4-0.4,0.7c0,1.2,0,2.4,0,3.6C147.4,140.7,147.5,142.3,147.7,143.9
	z"/>
<path class="st3" d="M42,108.9c0-3.8,0-7.5,0-11.3c0-0.9-0.2-1.1-1.1-1c-2.1,0-2.1,0-2.1-2.1c0-1.1,0-2.2,0-3.2c0-0.4,0-0.7,0.6-0.7
	c6.3,0.1,12.6-0.4,18.9,0.5c1.3,0.2,2.6,0.6,3.8,1.1c3.1,1.1,5.4,3.6,6.3,6.8c1.4,4.2,1.5,8.7,0.3,13c-1.4,5.3-5.3,7.8-10.5,9
	c-3,0.7-6,0.3-9.1,0.4c-2,0.1-4,0-6,0c-1,0-1.1-0.3-1.1-1.2C42,116.3,42,112.6,42,108.9z M55.7,114.9c2.1-0.3,3.9-1.9,4.3-4
	c0.8-3.1,0.9-6.4,0.2-9.5c-0.4-2.6-2.5-4.6-5.1-4.8c-1.4-0.2-2.9-0.2-4.3-0.1c-0.3,0.3-0.1,0.7-0.1,1.1c0,2.7,0,5.4,0,8.2
	c0,2.7,0,5.7,0,8.5c0,0.4-0.2,1,0.6,0.9C52.7,115.4,54.2,115.3,55.7,114.9z"/>
<path class="st3" d="M84.1,159.6l-0.2-0.2c0-10.2,0-20.3,0-30.5c1.6-0.2,3.3,0,4.9-0.1c0.5,0,0.7,0.4,0.9,0.7l13.3,15.6
	c0-0.3,0-0.6,0-0.9c0-4.7,0-9.5,0-14.2c0-1,0.3-1.2,1.2-1.2c1.7,0.1,3.4,0,5,0c0.6,0,0.8,0.2,0.7,0.7c0,9.8,0,19.5,0,29.2
	c0,0.7-0.2,0.8-0.8,0.8c-1-0.1-1.9-0.1-2.9,0c-1.2,0.2-2.3-0.3-2.9-1.3c-3-3.9-6.3-7.5-9.5-11.3c-0.8-1-1.6-2-2.4-3
	c-0.1-0.3-0.3-0.5-0.5-0.7c0,5.1,0,10,0,15c0,0.9-0.2,1.3-1.2,1.3C87.9,159.5,86,159.6,84.1,159.6z"/>
<path class="st3" d="M99.9,102.5v0.4c0.2,2.3,0.1,4.5-0.2,6.8c-0.9,5.3-3.4,9.5-8.8,11.3c-4.6,1.7-9.8,1.1-13.9-1.7
	c-2.6-1.9-4.4-4.8-5.1-8c-0.8-3-0.9-6.1-0.4-9.2c0.4-3.7,2.3-7,5.1-9.3c2.8-2.2,6.3-3.2,9.9-2.9c7.5,0.5,11.9,4.8,13.2,12.2
	L99.9,102.5z M84.3,115c1,0.5,2.1,0.5,3.1,0c0.2,0,0.4-0.1,0.6-0.2c2-1.3,2.6-3.3,2.8-5.5c0.4-2.2,0.4-4.4,0-6.5
	c-0.1-1.2-0.4-2.4-0.9-3.5c-0.4-0.9-1-1.7-1.9-2.2c-2.2-1.2-4.9-0.5-6.1,1.7c-0.2,0.3-0.3,0.6-0.4,1c-1.3,4-1.3,8.3,0,12.3
	C81.8,113.4,82.9,114.6,84.3,115z"/>
<path class="st3" d="M43.9,148.7c-0.2-1.5,0-3-0.1-4.5c0-0.5,0.2-0.6,0.6-0.6c3.5,0,6.9,0,10.4,0c0.6,0,0.7,0.2,0.7,0.7
	c0,4.8,0,9.6,0,14.4c0,0.5-0.2,0.7-0.7,0.7c-1.3,0-2.5,0-3.8,0c-0.4,0.1-0.8-0.2-0.9-0.6c-0.3-0.9-0.8-0.8-1.5-0.4
	c-4,2-8.6,2.2-12.8,0.6c-3.7-1.3-6.4-4.5-7.3-8.3c-1.5-5.9-1.5-11.7,1.9-17c1.3-2,3.2-3.6,5.5-4.4c3.9-1.6,8.3-1.7,12.3-0.2
	c3.5,1.3,6.1,4.3,6.8,8c0.1,0.5,0,0.6-0.5,0.7c-2.6,0.4-5.1,0.9-7.7,1.3c-0.5,0.1-0.7-0.1-0.7-0.5c-0.1-0.4-0.2-0.8-0.4-1.2
	c-0.4-1.5-1.8-2.6-3.3-2.7c-1.5-0.2-3,0.5-3.9,1.8c-0.9,1.3-1.4,2.9-1.6,4.5c-0.3,2.3-0.3,4.6,0.2,6.8c0.9,4.4,4.2,6.6,8.6,5.5
	c0.5-0.1,0.9-0.3,1.3-0.5c0.3-0.3,0.2-0.6,0.2-0.9c0-1,0.3-2.4-0.2-3C46.3,148.4,45,148.8,43.9,148.7z"/>
<path class="st3" d="M167.9,159.6c1-3.1,2-6,2.9-8.9c1.8-5.6,3.6-11.2,5.4-16.8c0.5-1.4,0.8-2.8,1.2-4.3c0-0.5,0.5-0.8,0.9-0.8
	c0,0,0,0,0.1,0c2.9,0,5.8,0,8.7,0c0.5-0.1,0.9,0.2,0.9,0.7c3.5,9.8,7,19.5,10.5,29.2c0.3,0.8,0.1,0.9-0.6,0.9c-2.4,0-4.8,0-7.2,0
	c-0.6,0.1-1.1-0.3-1.2-0.9c0,0,0,0,0,0c-0.4-1.3-0.9-2.7-1.3-4c-0.2-0.5-0.4-0.8-1-0.8c-2.9,0-5.8,0-8.7,0c-0.5,0-0.8,0.2-0.9,0.7
	c-0.4,1.4-0.9,2.9-1.3,4.3c-0.1,0.4-0.2,0.7-0.7,0.7L167.9,159.6z M182.6,148.2c1.1,0,1.9,0,2.8,0c0.7,0,0.7-0.2,0.5-0.8
	c-1-3-1.9-6.1-2.9-9.1c0-0.2-0.1-0.5-0.4-0.5c-0.3,0-0.3,0.3-0.4,0.5c-0.5,2.3-1.3,4.5-1.9,6.8l-0.8,3
	C180.6,148.2,181.6,148.3,182.6,148.2L182.6,148.2z"/>
<path class="st3" d="M160,115.8l-1.4,4.7c-0.1,0.3-0.1,0.7-0.7,0.7c-2.7,0-5.2,0-7.9,0l3.3-10.2c1.7-5.2,3.4-10.3,5-15.5
	c0.4-1.3,0.8-2.7,1.1-4.1c0.2-0.6,0.4-0.9,1.1-0.9c2.8,0,5.7,0,8.5,0c0.5-0.1,1,0.2,1.1,0.7c3.6,9.8,7.1,19.7,10.7,29.5
	c0,0.2,0.1,0.3,0.1,0.5c-2.8,0-5.6,0-8.4,0c-0.5,0-0.5-0.3-0.6-0.6c-0.5-1.6-1.1-3.2-1.6-4.8c-0.2-0.3-0.5-0.2-0.8-0.2h-8.7
	C160.5,115.6,160.2,115.5,160,115.8z M165.1,100c0-0.6-0.2-1.1-0.5-1.7l-0.2,1.7c-0.9,3-1.7,6-2.6,9c-0.2,0.7,0,0.9,0.7,0.9
	c1.2,0,2.4,0,3.6,0c2.2,0,2.2,0,1.5-2.1C166.8,105.2,165.9,102.6,165.1,100z"/>
<path class="st3" d="M123.1,147.2c0,1.8,0,3.6,0,5.3c0,0.7,0.2,0.9,0.9,0.9c3.6,0,7.2,0,10.9,0c1.1,0,1.5,0.1,1.3,1.3
	c-0.2,1.3-0.3,2.5-0.2,3.8c0,0.8-0.3,1-1.1,1c-6.5,0-12.9,0-19.4,0c-0.7,0-1-0.1-1-0.9c0-9.7,0-19.3,0-29c0-0.7,0.2-0.9,0.9-0.9
	c6.3,0,12.6,0,18.9,0c0.7,0,0.9,0.2,0.9,0.9c-0.1,1.7,0.1,3.4-0.1,5.1c-3.7,0-7.3,0-11,0c-0.3,0-0.8-0.2-0.9,0.3c0,1.7,0,3.3,0,5
	c0,0.7,0.3,0.8,0.9,0.8c2.7,0,5.3,0,8,0c0.8,0,1,0.2,1,1c-0.1,1.7,0,3.3,0,5c-2.9,0-5.9,0-8.8,0C123.7,147,123.3,146.7,123.1,147.2z
	"/>
<path class="st3" d="M68,135.1c0,1.7,0,3.3,0,5c0,0.7,0.3,0.8,0.9,0.8c2.7,0,5.3,0,8,0c0.8,0,1,0.3,1,1c-0.1,1.7,0,3.3,0,5
	c-2.9,0-5.9,0-8.9,0c-0.3,0-0.8-0.3-1,0.3c0,1.8,0,3.6,0,5.3c0,0.7,0.2,0.9,0.9,0.9c3.7,0,7.4,0,11.1,0c0.9,0,1.2,0.2,1.1,1.1
	c-0.2,1.4-0.3,2.9-0.3,4.3c0,0.7-0.4,0.6-0.9,0.6H69.5c-3.1,0-6.1,0-9.2,0c-0.7,0-0.9-0.2-0.9-0.9c0-9.6,0-19.3,0-28.9
	c0-0.7,0.2-0.9,0.9-0.9c6.3,0,12.6,0,18.9,0c0.7,0,0.9,0.2,0.9,0.9c-0.1,1.7,0.1,3.4-0.1,5.1c-3.7,0-7.4,0-11,0
	C68.6,134.8,68.1,134.6,68,135.1z"/>
<path class="st3" d="M127.3,90.6l0.2-0.2c2.5,0,5,0,7.5,0c0.7,0,0.9,0.2,0.9,0.9c0,2.8,0,5.6,0,8.4c0,4.8,0,9.6,0,14.4
	c0,0.5-0.2,1.1,0.7,1.1c4,0,8,0,12,0l0.3,0.2l-0.1,2.1c0,1-0.1,2-0.2,3c0,0.4-0.1,0.7-0.6,0.7c-6.9,0-13.7,0.1-20.6-0.1
	c0-6.6,0-13.3,0-19.9C127.4,97.7,127.4,94.2,127.3,90.6z"/>
<path class="st3" d="M201,144.1c0-4.7,0-9.5,0-14.2c0-0.9,0.3-1.1,1.1-1.1c2.1,0,4.2,0.1,6.3,0c0.9,0,1.2,0.2,1.2,1.1
	c0,7.4,0,14.9,0,22.3c0,1,0.2,1.3,1.3,1.3c3.4-0.1,6.7,0,10.1,0c1.9,0,1.6-0.2,1.5,1.5c0,1.3-0.2,2.5-0.2,3.8c0,0.6-0.2,0.8-0.8,0.8
	c-6.5,0-13.1,0-19.6,0c-0.9,0-0.7-0.5-0.7-1C201,153.7,201,148.9,201,144.1z"/>
<path class="st3" d="M124.5,120.2c0,0.8-0.2,1.1-1.1,1.1c-6.3-0.1-12.7-0.1-19,0c-0.9,0-1-0.2-1-1.1c0-9.5,0-19,0-28.6
	c0-0.9,0.2-1.2,1.2-1.2c2.1,0.1,4.1,0.1,6.2,0c0.9,0,1.3,0.2,1.3,1.2c0,7.4,0,14.7,0,22.1c0,0.4,0,0.8,0,1.2c0.2,0.5,0.7,0.3,1,0.3
	c3.6,0,7.2,0,10.9,0c0.7,0,1,0.2,0.9,1C124.6,117.5,124.6,118.9,124.5,120.2z"/>
<path class="st3" d="M215.7,135.1c-1.7,0-3.1-1.4-3.1-3.1c0-0.1,0-0.1,0-0.2c0-1.7,1.3-3,3-3.1c0,0,0.1,0,0.1,0
	c1.7-0.1,3.2,1.2,3.4,2.9c0.1,1.7-1.2,3.2-2.9,3.4C216.1,135.1,215.9,135.1,215.7,135.1L215.7,135.1z M213.3,131.9
	c0,1.4,1,2.6,2.4,2.7c1.4-0.1,2.5-1.2,2.5-2.6c0-1.4-1.1-2.6-2.5-2.7C214.4,129.4,213.3,130.6,213.3,131.9L213.3,131.9z"/>
<path class="st2" d="M148.6,115.2c-4,0-8,0-12,0c-0.9,0-0.7-0.6-0.7-1.1c0-4.8,0-9.6,0-14.4c0-2.8,0-5.6,0-8.4
	c0-0.7-0.2-0.9-0.9-0.9c-2.5,0-5,0-7.5,0c1.2-0.2,2.4-0.3,3.5-0.2c1.3,0,2.5,0,3.8,0c0.9,0,1.2,0.3,1.2,1.2c0,6.3,0,12.6,0,18.9
	c0.1,1.1,0.1,2.2,0,3.2c-0.1,1.2,0.4,1.4,1.4,1.3c3.3,0,6.7,0,10.1,0C147.9,114.9,148.3,114.8,148.6,115.2z"/>
<path class="st2" d="M124.5,120.2c0-1.3,0.1-2.7,0.2-4c0.1-0.7-0.2-1-0.9-1c-3.6,0-7.2,0-10.9,0c-0.3,0-0.8,0.3-1-0.3
	c4,0,7.9,0,11.8,0c1,0,1.3,0.3,1.2,1.2C125,117.5,124.9,118.9,124.5,120.2z"/>
<path class="st2" d="M127.3,90.6c0,3.5,0,7.1,0,10.7c0,6.6,0,13.3,0,19.9c-0.4-0.2-0.2-0.5-0.2-0.8c0-9.7,0-19.4,0-29.1
	c0-0.2,0-0.4,0-0.6c0,0,0-0.1,0-0.1L127.3,90.6z"/>
<path class="st2" d="M83.9,128.9c0,10.2,0,20.3,0,30.5c-0.5,0-0.2-0.3-0.2-0.5c0-9.8,0-19.6,0-29.3C83.7,129.4,83.5,129,83.9,128.9z
	"/>
<path class="st2" d="M84.1,159.6c1.9,0,3.8-0.1,5.7,0c1,0,1.2-0.3,1.2-1.3c0-5,0-9.9,0-15c0.3,0.1,0.5,0.4,0.5,0.7
	c-0.4,0.3-0.3,0.8-0.3,1.3c0,4.4,0,8.9,0,13.3c0,0.9-0.2,1.3-1.2,1.2C88.1,159.8,86.1,159.8,84.1,159.6z"/>
<path class="st2" d="M68,135.1c0.2-0.5,0.6-0.3,0.9-0.3c3.7,0,7.4,0,11,0c-0.3,0.5-0.7,0.2-1.1,0.2C75.2,135.1,71.6,135.1,68,135.1z
	"/>
<path class="st2" d="M123.1,135.1c0.2-0.5,0.6-0.3,0.9-0.3c3.7,0,7.3,0,11,0c-0.3,0.5-0.7,0.2-1.1,0.2
	C130.3,135.1,126.7,135.1,123.1,135.1z"/>
<path class="st2" d="M160,115.8c0.2-0.3,0.5-0.2,0.7-0.2h8.7c0.3,0,0.6-0.1,0.8,0.2L160,115.8z"/>
<path class="st2" d="M68,147.2c0.2-0.5,0.6-0.3,1-0.3c2.9,0,5.9,0,8.9,0c-0.3,0.4-0.7,0.2-1,0.2L68,147.2z"/>
<path class="st2" d="M123.1,147.2c0.2-0.5,0.6-0.3,1-0.3c2.9,0,5.9,0,8.8,0c-0.3,0.4-0.7,0.2-1.1,0.2
	C128.9,147.2,126,147.2,123.1,147.2z"/>
<path class="st2" d="M99.8,109.7c0.3-2.3,0.3-4.5,0.2-6.8c0.4,0.6,0.2,1.2,0.2,1.8c0,1.3,0,2.7,0,3.9
	C100.2,109,100.4,109.4,99.8,109.7z"/>
<path class="st2" d="M43.9,148.7c1.1,0,2.5-0.5,3.1,0.2s0.2,2,0.2,3c0,0.3,0.1,0.7-0.2,0.9c0-1,0-2.1,0-3.1c0-0.6-0.2-0.8-0.8-0.8
	S44.6,149.3,43.9,148.7z"/>
<path class="st2" d="M148.7,117.5l0.1-2.1C149.2,116.1,149.2,116.9,148.7,117.5z"/>
<path class="st2" d="M99.9,102.5l-0.1-0.4C100,102.2,100,102.3,99.9,102.5z"/>
<path class="st4" d="M194.7,96.5c0.9,0,1.8,0.1,2.7,0.2c1.4,0.3,2.5,1.4,2.7,2.8c0.2,1,0.2,2.1,0,3.1c-0.2,1.8-1.8,3.1-3.6,3
	c-1.4,0.1-3.1,0.6-4.1-0.2c-1-0.7-0.2-2.4-0.3-3.6c0-1.5,0-2.9,0-4.4c0-0.8,0.2-1.1,1-1C193.6,96.6,194.1,96.6,194.7,96.5z"/>
<path class="st4" d="M152.8,135.1c1.3,0.1,2.4,1,2.7,2.2c0.5,1.5,0.4,3.1-0.2,4.6c-0.4,1.1-1.5,1.9-2.7,1.9c-1.7,0.3-3.3,0.3-5,0
	c0-2.5,0-5.1,0-7.6c0-0.9,0.2-1.3,1.2-1.2C150.2,135.1,151.5,135.1,152.8,135.1z"/>
<path class="st2" d="M152.8,135.1c-1.3,0-2.7,0-3.9,0c-1,0-1.2,0.3-1.2,1.2c0,2.5,0,5.1,0,7.6c-0.2-1.6-0.2-3.2-0.1-4.8
	c0-1.2,0-2.4,0-3.6c0-0.3-0.1-0.7,0.4-0.7C149.6,134.7,151.2,134.8,152.8,135.1z"/>
<path class="st4" d="M50.7,96.6c1.4-0.2,2.9-0.1,4.3,0.1c2.6,0.2,4.7,2.2,5.1,4.8c0.7,3.1,0.6,6.4-0.2,9.5c-0.4,2.1-2.1,3.7-4.3,4
	c-1.2,0-2.5,0-3.7,0c-1,0-1.3-0.2-1.3-1.3C50.7,108,50.7,102.3,50.7,96.6z"/>
<path class="st2" d="M50.7,96.6c0,5.7,0,11.4,0,17.1c0,1,0.3,1.3,1.3,1.3c1.2-0.1,2.5,0,3.7,0c-1.5,0.3-3,0.5-4.5,0.3
	c-0.7,0-0.6-0.5-0.6-0.9c0-2.8,0-5.7,0-8.5c0-2.8,0-5.4,0-8.2C50.5,97.3,50.3,96.9,50.7,96.6z"/>
<path class="st4" d="M90.8,109.2c-0.3,2.2-0.8,4.2-2.8,5.5c-0.2,0.1-0.4,0.2-0.6,0.2h-3.1c-1.4-0.4-2.5-1.6-2.9-3
	c-1.3-4-1.3-8.3,0-12.3c0.7-2.4,3.2-3.8,5.6-3.1c0.3,0.1,0.7,0.2,1,0.4c0.9,0.5,1.6,1.3,1.9,2.2c0.5,1.1,0.8,2.3,0.9,3.5
	C90.8,104.9,90.8,107,90.8,109.2z"/>
<path class="st2" d="M90.8,109.2c0-2.2,0-4.4,0-6.5C91.2,104.9,91.2,107.1,90.8,109.2z"/>
<path class="st2" d="M84.3,115h3.1C86.4,115.4,85.3,115.4,84.3,115z"/>
<path class="st4" d="M182.6,148.2c-1,0.1-2,0-3-0.1l0.8-3c0.6-2.3,1.3-4.5,1.9-6.8c0-0.2,0.1-0.5,0.4-0.5c0.3,0,0.3,0.3,0.4,0.5
	c1,3,1.9,6.1,2.9,9.1c0.2,0.6,0.1,0.8-0.5,0.8C184.5,148.2,183.7,148.2,182.6,148.2z"/>
<path class="st4" d="M165.1,100c0.8,2.6,1.7,5.2,2.5,7.8c0.7,2.1,0.7,2.1-1.5,2.1c-1.2,0-2.4,0-3.6,0c-0.7,0-0.9-0.1-0.7-0.9
	c0.9-3,1.7-6,2.6-9C164.6,100.2,164.9,100.2,165.1,100z"/>
<path class="st2" d="M165.1,100c-0.2,0.1-0.5,0.1-0.7,0l0.2-1.7C164.9,98.9,165.1,99.5,165.1,100z"/>
<path class="st4" d="M213.3,131.9c0-1.4,1-2.5,2.4-2.6c1.4,0.1,2.5,1.2,2.5,2.7c0,1.4-1.1,2.5-2.5,2.6
	C214.3,134.5,213.3,133.3,213.3,131.9z M215.5,130.2c-0.7-0.1-1,0.2-0.9,1c0.1,0.8,0,1.2,0,1.8c0,0.3-0.2,0.8,0.3,0.8
	c0.5,0,0.2-0.5,0.3-0.7c0-0.3,0-0.7,0.4-0.7c0.3-0.1,0.6,0.2,0.7,0.5c0,0,0,0,0,0.1c0,0.2,0.1,0.4,0.1,0.5c0,0.2,0.2,0.4,0.4,0.3
	c0,0,0.1,0,0.1,0c0.4-0.1,0.1-0.3,0.1-0.5c0.1-0.5-0.5-0.8-0.3-1.3C217.2,130.6,216.9,130.2,215.5,130.2L215.5,130.2z"/>
<path class="st3" d="M215.5,130.2c1.4,0,1.7,0.4,1.3,1.7c-0.2,0.5,0.3,0.9,0.3,1.3c0,0.2,0.3,0.4-0.1,0.5c-0.2,0.1-0.4,0-0.5-0.2
	c0,0,0-0.1,0-0.1c-0.1-0.2-0.1-0.4-0.1-0.5c0-0.3-0.3-0.6-0.6-0.6c0,0,0,0-0.1,0c-0.4,0-0.3,0.4-0.4,0.7c-0.1,0.3,0.2,0.7-0.3,0.7
	c-0.5,0-0.3-0.5-0.3-0.8c0-0.6,0-1.2,0-1.8C214.6,130.6,214.8,130,215.5,130.2z M215.7,130.7c-0.5,0-0.5,0.3-0.5,0.6
	c0,0.3,0.2,0.5,0.5,0.5c0.4,0,0.7-0.1,0.6-0.6C216.3,130.8,216,130.7,215.7,130.7L215.7,130.7z"/>
<path class="st2" d="M215.7,130.7c0.3,0,0.6,0.1,0.7,0.5c0,0.4-0.3,0.6-0.6,0.6s-0.5-0.1-0.5-0.5S215.2,130.6,215.7,130.7z"/>
</svg>
