<?xml version="1.0" encoding="utf-8"?>
<!-- Generator: Adobe Illustrator 21.1.0, SVG Export Plug-In . SVG Version: 6.00 Build 0)  -->
<svg version="1.1" id="Layer_1" xmlns="http://www.w3.org/2000/svg" xmlns:xlink="http://www.w3.org/1999/xlink" x="0px" y="0px"
	 viewBox="0 0 250 250" style="enable-background:new 0 0 250 250;" xml:space="preserve">
<style type="text/css">
	.st0{fill:#C7C8C8;}
	.st1{fill:#070000;}
	.st2{fill:#FCF001;}
</style>
<title>Grocery</title>
<path class="st0" d="M245.2,149.5c-0.1,0-0.2,0-0.2,0.1c0,0.5-0.1,0.9-0.3,1.3c-0.5,1.4-1.5,2.5-2.8,3.1c-0.1,0-0.2,0-0.2,0.2h-4
	c-0.2-0.2-0.5-0.2-0.7-0.2c-0.6,0-1.2,0-1.7,0c-1-0.1-2-0.2-3-0.3c-0.5,0-1,0-1.6,0c-2-0.4-4-0.3-6-0.5c-1.5-0.2-3.1-0.2-4.6-0.3
	c-1.8-0.1-3.6-0.2-5.4-0.4c-1.3-0.1-2.7-0.1-4-0.2c-1.9-0.2-3.9-0.2-5.9-0.4c-2-0.1-4.3-0.2-6.4-0.3s-4,0-6.1-0.3
	c-0.7-0.1-1.5-0.1-2.2-0.1c-2,0-4-0.3-6-0.3c-1,0-2,0-3-0.1c-2.4,0-4.8-0.3-7.2-0.3c-1.1,0-2.1,0-3.2-0.1c-1.8-0.1-3.6-0.1-5.3-0.3
	c-2.3-0.1-4.7,0.1-7.1-0.1c-1-0.1-2,0-3.1-0.1c-1.5-0.1-3-0.1-4.5-0.1c-4.6-0.1-9.2,0.1-13.8-0.1c-2.1-0.1-4.1,0-6.2-0.1
	c-3.9,0-7.8-0.1-11.8,0c-2.3,0.1-4.7,0-7,0.1c-4.5,0.1-8.9-0.1-13.4,0.1c-1.3,0.1-2.6,0-3.9,0.1c-1.3,0.1-2.3,0-3.4,0.1
	c-3,0.1-6.1,0-9.1,0.3c-1,0.1-1.9,0-2.9,0.1c-2.7,0.1-5.3,0-8,0.3c-0.8,0.1-1.6,0.1-2.5,0.1c-2.4,0-4.8,0.2-7.2,0.3
	c-0.7,0-1.3,0.1-2,0.1c-1.8,0-3.6,0.3-5.5,0.3c-1.8-0.1-3.3,0.2-5,0.3c-2,0-4,0.2-6,0.3h-0.6c-1.8,0.1-3.7,0.3-5.5,0.3
	c-0.4,0-0.9,0-1.3,0c-1.3,0.3-2.7,0.4-4,0.3c-1.2-0.1-2.3,0.3-3.5,0.3c-1.7,0-3.3,0.3-5,0.3c-0.7,0-1.4,0-2.1,0.1
	c-1.7,0.3-3.5,0.1-5.2,0.4c-0.8,0.1-1.7,0.2-2.6,0.1c-0.2,0-0.4,0.1-0.5,0.2h-4c0-0.1,0-0.2-0.1-0.2c-1.6-0.7-2.8-2.1-3.1-3.8
	c0-0.1,0-0.3-0.2-0.2v-0.2h0.1l-0.1-0.1v-48.2l0.1-0.1H5.2v-0.2c0.2-0.1,0.2-0.1,0.2-0.2c0.4-1.3,1.2-2.5,2.3-3.3
	c0.3-0.2,0.7-0.2,0.8-0.6h4.9c0,0.4,0.3,0.2,0.4,0.2c0.8,0,1.6,0,2.4,0.1c1.9,0.3,3.8,0.2,5.7,0.5c1.5,0.2,3,0.2,4.5,0.3
	c1.5,0.2,3.4,0.3,5.1,0.3l5.8,0.4c1.3,0.1,2.6,0.1,3.8,0.2c1.8,0.1,3.6,0.2,5.4,0.3c2.4,0.1,4.8,0.2,7.1,0.4
	c1.3,0.1,2.6-0.1,3.9,0.1c1.3,0.2,2.7,0.1,3.9,0.2c1.7,0.1,3.4,0,5.1,0.2c1.1,0.1,2.2,0.1,3.3,0.1c2.6,0,5.1,0.4,7.7,0.3
	c0.9,0,1.8,0.1,2.7,0.1c1.9,0,3.9,0.1,5.8,0.2c2.5,0.1,5-0.1,7.5,0.1c1.2,0.1,2.3,0,3.5,0.1c1.4,0.1,2.9,0.1,4.3,0.1
	c6.1,0.1,12.2,0,18.2,0.1c4,0.1,8,0,12,0c6-0.2,12,0.1,18.1-0.1c1.3,0,2.7,0,4.1-0.1s2.4-0.1,3.6-0.1c3.5-0.1,6.9,0,10.4-0.3
	c1.1-0.1,2.2,0,3.3-0.1c2.3-0.1,4.5,0,6.7-0.3c1.1-0.1,2.2-0.1,3.2-0.1c1.9,0,3.8-0.2,5.7-0.3c0.8,0,1.7-0.1,2.5-0.1
	c1.9,0,3.8-0.4,5.6-0.3c1,0,2.1,0,3.1-0.1l1.8-0.1l6.7-0.3c0.1,0,0.2,0,0.3,0c1.3-0.2,2.8-0.2,4.2-0.3c0.7-0.1,1.4,0,2.1,0
	c1.7-0.2,3.5-0.3,5.2-0.3c1.1,0,2.1-0.2,3.2-0.2c1.4,0,2.8-0.3,4.2-0.3c0.9,0,1.8,0,2.7-0.2c1.8-0.2,3.6-0.1,5.3-0.4
	c0.9-0.1,1.7-0.1,2.6-0.1c0.2,0,0.3-0.1,0.6-0.1h4.4c0.2,0.1,0.3,0.1,0.5,0.2c0.7,0.3,1.4,0.8,1.8,1.4c0.7,0.8,1.2,1.8,1.3,2.9
	 M243.3,125.9L243.3,125.9c0-6.7,0-13.3,0-20c0.1-1.1,0-2.3-0.2-3.4c-0.4-1.6-1.3-2.9-3-2.8c-2.2,0.1-4.3,0.3-6.5,0.5
	c-2.7,0.2-5.5,0.5-8.2,0.7c-2.3,0.2-4.6,0.4-6.9,0.5c-1.6,0-3.1,0.5-4.7,0.4s-3.1,0.3-4.6,0.2c-1,0-2,0.1-3,0.3
	c-1.3,0-2.7,0.1-3.9,0.1c-0.9,0-1.8,0.3-2.8,0.3c-2-0.1-3.9,0.1-5.9,0.2c-2.9,0.1-5.8,0.3-8.7,0.4l-5.1,0.2
	c-3.4,0.1-6.8,0.2-10.2,0.3c-4.1,0.2-8.2,0.3-12.3,0.3c-4.7,0.1-9.3,0.1-13.9,0.3c-4.4,0.1-8.8,0-13.2,0.1c-3.8,0-7.6,0-11.4,0
	c-6.5-0.1-12.9,0-19.4-0.2c-4.1-0.1-8.3-0.1-12.4-0.2c-4.9-0.1-9.8-0.3-14.7-0.5c-3-0.1-6-0.2-9-0.3l-10.2-0.5l-4.5-0.4l-10-0.6
	l-4.2-0.3l-9.8-0.7l-6.8-0.5c-2.4-0.2-4.8-0.4-7.2-0.6c-1.4-0.2-2.7,0.6-3.1,1.9c-0.4,1-0.6,2-0.5,3.1c0,14.2,0,28.4,0,42.5
	c0,0.7,0.1,1.4,0.2,2.1c0.3,1.5,1.6,2.6,3.2,2.6c1,0,2-0.1,3-0.2c3.3-0.3,6.5-0.5,9.8-0.8l8.4-0.6c4-0.3,8-0.5,12-0.7
	c3.2-0.2,6.3-0.3,9.5-0.5c1.9-0.1,3.7-0.1,5.6-0.3c2.5-0.1,5-0.2,7.4-0.3c2.9-0.1,5.8-0.2,8.6-0.3c3.7-0.2,7.4-0.2,11-0.3
	c4.7-0.1,9.3-0.2,14-0.3c3.4-0.1,6.8-0.1,10.2-0.1c10.5,0,21-0.2,31.5,0c3.4,0.1,6.8,0,10.2,0.1c3.1,0.1,6.2,0.2,9.2,0.2
	c3.5,0,7.1,0.2,10.7,0.3c1.8,0,3.6,0.1,5.4,0.2c4,0.2,8,0.3,11.9,0.5c2,0.1,4,0.2,6,0.3l9.8,0.5l6.7,0.4l8.8,0.6l3.9,0.2l9.4,0.7
	c2,0.1,4,0.3,5.9,0.4c0.7,0.2,1.4,0.1,2.1-0.3c1.2-0.8,2-2.2,1.9-3.7C243.4,140.5,243.4,133.2,243.3,125.9L243.3,125.9z"/>
<path class="st1" d="M5.3,101.5L5.3,101.5v0.1V101.5z"/>
<path class="st1" d="M5.3,149.7l0.1,0.1H5.3C5.3,149.8,5.3,149.8,5.3,149.7z"/>
<path class="st2" d="M243.4,125.8c0,7.3,0,14.7,0,22c0.1,1.5-0.7,2.9-1.9,3.7c-0.6,0.3-1.4,0.4-2.1,0.3c-2-0.1-4-0.3-5.9-0.4
	l-9.4-0.7l-3.9-0.2l-8.8-0.6l-6.7-0.4l-9.8-0.5c-2-0.1-4-0.2-6-0.3c-4-0.2-8-0.3-11.9-0.5c-1.8-0.1-3.6-0.1-5.4-0.2
	c-3.5-0.1-7.1-0.2-10.7-0.3c-3.1,0-6.2-0.1-9.2-0.2c-3.4-0.1-6.8,0-10.2-0.1c-10.5-0.2-21-0.1-31.5,0c-3.4,0-6.8,0-10.2,0.1
	c-4.7,0.1-9.3,0.2-14,0.3c-3.7,0.1-7.4,0.1-11,0.3c-2.9,0.1-5.8,0.2-8.6,0.3c-2.5,0.1-5,0.2-7.4,0.3c-1.9,0.1-3.7,0.1-5.6,0.3
	c-3.2,0.2-6.3,0.4-9.5,0.5c-4,0.2-8,0.4-12,0.7l-8.4,0.6c-3.3,0.2-6.5,0.5-9.8,0.8c-1,0.1-2,0.1-3,0.2c-1.6,0-2.9-1.1-3.2-2.6
	c-0.2-0.7-0.2-1.4-0.2-2.1c0-14.2,0-28.4,0-42.5c-0.1-1,0.1-2.1,0.5-3.1c0.5-1.3,1.8-2.1,3.1-1.9c2.4,0.2,4.8,0.4,7.2,0.6l6.8,0.5
	l9.8,0.7l4.2,0.3l10,0.6l4.6,0.2l10.2,0.5c3,0.1,6,0.3,9,0.3c4.9,0.1,9.8,0.3,14.7,0.5c4.1,0.1,8.3,0.1,12.4,0.2
	c6.5,0.2,12.9,0.2,19.4,0.2c3.8,0,7.6,0.1,11.4,0c4.4,0,8.8,0,13.2-0.1c4.7-0.1,9.3-0.2,13.9-0.3c4.1-0.1,8.2-0.2,12.3-0.3
	c3.4-0.1,6.8-0.2,10.2-0.3l5.1-0.2c2.9-0.1,5.8-0.3,8.7-0.4c1.9,0,3.9-0.3,5.9-0.2c0.9,0,1.8-0.3,2.8-0.3c1.3,0,2.7-0.1,3.9-0.1
	c1-0.1,2-0.2,3-0.3c1.5,0.1,3.1-0.3,4.6-0.2s3.1-0.3,4.7-0.4c2.3-0.1,4.6-0.3,6.9-0.5c2.7-0.2,5.5-0.4,8.2-0.7
	c2.2-0.2,4.3-0.3,6.5-0.5c1.7-0.1,2.7,1.2,3,2.8c0.2,1.1,0.3,2.3,0.2,3.4C243.3,112.5,243.3,119.2,243.4,125.8L243.4,125.8z
	 M227.6,117.8L227.6,117.8c-0.1,0.1-0.1,0.3,0,0.5c0.4,0.6,1.2,0.8,1.8,0.4c0.1-0.1,0.2-0.2,0.3-0.3c0.9-0.9,1-2.2,0.4-3.3
	c-0.2-0.6-0.8-1-1.4-1c-0.6,0-1.1,0.4-1.4,1c-0.3,0.8-0.4,1.7-0.2,2.5C227.2,117.7,227.3,117.8,227.6,117.8L227.6,117.8z M19.6,128
	L19.6,128c0,2.9,0,5.7,0,8.6c0,0.5,0.1,0.8,0.6,0.7c2.5,0.1,5,0,7.5-0.2c2-0.2,3.9-1.2,5.1-2.8c1.3-1.7,2-3.7,2.1-5.8
	c0.4-3.2,0.1-6.4-0.9-9.5c-0.5-1.5-1.4-2.7-2.7-3.6c-1.4-0.8-3.1-1.3-4.7-1.3c-2.8-0.2-5.5,0-8.3-0.1c-0.4,0-0.5,0.3-0.5,0.6
	c0,1,0,2.1,0,3.1c0,0.9,0,0.9,0.9,0.9c0.9,0,0.8,0,0.8,0.8C19.7,122.3,19.6,125.2,19.6,128z M99.3,125.7c0,3.6,0,7.3,0,10.9
	c0,0.7,0,0.8,0.8,0.8h3.3c0.7,0,0.8,0,0.8-0.8c0-2.1,0-4.1,0-6.2c0-0.3-0.1-0.7,0.4-0.8c0.4-0.1,0.9,0.1,1.1,0.5
	c0.7,1.6,1.4,3.1,2.2,4.7c1.2,2.4,3,3.6,5.6,2.7c0.5-0.2,1-0.2,1.1-0.9c0.2-1.1,0.2-2.2,0.2-3.4c0-0.3,0-0.4-0.4-0.3
	c-1.2,0.4-1.8,0.2-2.3-0.8c-0.5-1-0.9-1.9-1.3-2.9c-0.1-0.3,0-0.6,0.2-0.8c0,0,0,0,0,0c1.4-1,2.3-2.6,2.5-4.2c0.5-2,0.4-4-0.3-6
	c-0.4-1.2-1.1-2.3-2.2-3.1c-1.5-0.8-3.1-1.2-4.8-1.1c-2,0-4.1,0-6.1,0c-0.9,0-0.9,0-0.9,0.9C99.3,118.5,99.3,122.1,99.3,125.7
	L99.3,125.7z M185.6,125.7L185.6,125.7c0,3.7,0,7.3,0,11c0,0.5,0.2,0.7,0.7,0.7c1.1,0,2.3,0,3.4,0c0.7,0,0.8,0,0.8-0.8
	c0-2.1,0-4.1,0-6.2c0-0.3-0.1-0.7,0.5-0.8c0.4-0.1,0.9,0.1,1.1,0.5c0.7,1.6,1.4,3.2,2.2,4.8c1.2,2.3,2.9,3.4,5.6,2.6
	c0.4-0.1,1-0.2,1.1-0.8c0.2-1.1,0.3-2.3,0.3-3.4c0-0.3,0-0.5-0.5-0.3c-0.9,0.4-1.7,0.3-2.2-0.7c-0.5-1-1-2-1.4-3
	c-0.1-0.3,0-0.6,0.2-0.8c0,0,0,0,0,0c1.4-1.1,2.3-2.7,2.5-4.4c0.3-1.6,0.3-3.2,0-4.7c-0.2-1.5-1-2.9-2.2-3.9
	c-1.2-0.9-2.6-1.3-4.1-1.3c-2.4-0.2-4.8,0-7.1-0.1c-0.8,0-0.8,0-0.8,0.8C185.6,118.5,185.6,122.1,185.6,125.7L185.6,125.7z
	 M36.3,125.9c-0.1,2.5,0.4,5,1.3,7.3c0.8,2.2,2.7,3.8,4.9,4.4c2.3,0.7,4.8,0.1,6.5-1.6c1.9-2,3-4.6,3.2-7.3c0.3-2,0.3-4,0-6
	c-0.2-2.2-1-4.4-2.2-6.2c-2-2.7-5.6-3.6-8.6-2.2c-2.2,1.1-3.8,3.1-4.3,5.5C36.5,121.7,36.2,123.8,36.3,125.9L36.3,125.9z
	 M158.8,125.3c0.1,0.2,0.2,0.4,0.3,0.5c2.2,3.5,4.4,7.1,6.7,10.7c0.3,0.6,1,1,1.6,0.9c0.4,0,0.8,0,1.2,0c0.8,0,0.9,0,0.9-0.9
	c0-4.6,0-9.2,0-13.8c0-2.6,0-5.2,0-7.8c0-0.7,0-0.8-0.8-0.8h-2.5c-0.8,0-0.8,0-0.8,0.8c0,3.4,0,6.7,0,10.1c0,0.2,0,0.5,0,0.7
	s0,0.3-0.1,0.3c-0.1,0-0.2-0.1-0.3-0.3l-7-11.2c-0.2-0.4-0.6-0.6-0.9-0.5c-0.6,0-1.1,0-1.7,0c-0.5,0-0.7,0.2-0.7,0.7
	c0,7.3,0,14.6,0,21.9c0,0.5,0.2,0.7,0.7,0.7h2.5c0.8,0,0.8,0,0.8-0.8c0-3.4,0-6.8,0-10.2C158.5,126,158.5,125.6,158.8,125.3
	L158.8,125.3z M138.6,131.3L138.6,131.3c0-1.8,0-3.5,0-5.3c0-0.4,0-0.6-0.5-0.6h-5.6c-0.4,0-0.5,0.2-0.5,0.6c0,0.4,0,1.1,0,1.7
	c0,1.4,0,1.4,1.3,1.5c0.3,0,0.5,0.1,0.5,0.5c0,0.8,0,1.5,0,2.3c0,0.2-0.1,0.4-0.3,0.5c-1.4,0.8-3.2,0.4-4.2-0.8
	c-0.6-0.9-1-1.9-1.1-3c-0.3-2.1-0.3-4.2,0-6.3c0.1-1.1,0.5-2.2,1.2-3c0.6-0.8,1.8-1,2.6-0.4c0.3,0.2,0.5,0.5,0.6,0.8
	c0.2,0.5,0.4,1,0.5,1.5c0.2,0.7,0.3,0.8,1,0.6c1.2-0.3,2.4-0.6,3.6-0.8c0.5-0.1,0.6-0.3,0.5-0.7s-0.3-1.2-0.5-1.7
	c-1.4-4.4-5.4-5.7-9.2-4.4c-2.4,0.9-4.2,3-4.8,5.5c-0.4,1.4-0.7,2.8-0.8,4.3c-0.4,3.4,0.1,6.8,1.4,9.9c1,2.4,3.3,4,5.9,4.1
	c1.6,0.1,3.1-0.3,4.4-1.2c0.3-0.2,0.6-0.3,0.8,0.2c0.1,0.4,0.5,0.6,0.9,0.6c0.5,0,0.9,0,1.3,0c0.8,0,0.8,0,0.8-0.8
	C138.6,134.7,138.6,133,138.6,131.3L138.6,131.3z M216.8,137.3h1.9c0.4,0,0.6-0.2,0.5-0.6c-0.1-0.4-0.3-0.9-0.4-1.3
	c-0.4-1.3-0.8-2.8-1.1-4.2c-0.5-1.8-0.9-3.5-1.4-5.3c-0.5-1.8-1-3.5-1.4-5.3c-0.5-2-1.1-4.1-1.6-6.1c0-0.3-0.3-0.4-0.6-0.4h-4.8
	c-0.3,0-0.6,0.2-0.6,0.5c-0.2,1.1-0.5,2.1-0.7,3.2c-0.3,1.6-0.7,3.1-1.1,4.7c-0.3,1.6-0.8,3.2-1.2,4.8l-1.1,4.5
	c-0.4,1.7-0.8,3.3-1.2,5c-0.1,0.5,0,0.7,0.5,0.7h3c1,0,1.1-0.1,1.3-1.1s0.4-1.8,0.6-2.7c0.1-0.4,0.3-0.5,0.7-0.5c1.5,0,2.9,0,4.4,0
	c0.4-0.1,0.9,0.2,0.9,0.7c0,0,0,0.1,0,0.1c0.2,1,0.5,1.9,0.7,2.9c0,0.4,0.3,0.6,0.7,0.6c0,0,0,0,0.1,0L216.8,137.3z M88.8,114.1
	L88.8,114.1c-0.6,0-1.3,0-1.9,0s-1,0.1-1.1,0.8c-0.1,0.4-0.1,0.8-0.2,1.1c-0.3,1.3-0.5,2.5-0.8,3.7c-0.3,1.2-0.7,2.8-1,4.2
	c-0.3,1.2-0.6,2.4-0.9,3.5l-1.1,4.4c-0.4,1.6-0.8,3.2-1.2,4.8c-0.1,0.4-0.1,0.7,0.4,0.7h3.6c0.3,0.1,0.6-0.1,0.6-0.4
	c0,0,0-0.1,0-0.1c0.2-1,0.4-2,0.7-3.1c0.1-0.4,0.2-0.7,0.7-0.7c1.5,0,3.1,0,4.6,0c0.3-0.1,0.6,0.2,0.7,0.5c0,0,0,0,0,0
	c0.3,1.1,0.6,2.2,0.8,3.3c0,0.3,0.3,0.5,0.6,0.4h4c0.4,0,0.6-0.1,0.4-0.6c-0.5-1.7-0.9-3.4-1.3-5.1c-0.4-1.7-0.9-3.5-1.3-5.3
	s-1-3.5-1.5-5.3c-0.6-2.1-1.1-4.3-1.7-6.4c0-0.4-0.4-0.6-0.7-0.6C90.3,114.1,89.6,114.1,88.8,114.1z M140.8,125.7c0,3.7,0,7.3,0,11
	c0,0.4,0,0.7,0.6,0.7h10.9c0.5,0,0.7-0.2,0.7-0.7c0-1.1,0-2.2,0.1-3.3c0-0.5-0.1-0.7-0.6-0.7c-2,0-4,0-5.9,0c-0.8,0-0.8,0-0.8-0.8
	c0-1.1,0-2.3,0-3.4c0-0.6,0.2-0.7,0.8-0.7c1.3,0,2.8,0,4.2,0c0.5,0,0.7-0.1,0.7-0.6c0-1.1,0-2.2,0-3.3c0-0.5-0.2-0.7-0.7-0.7
	c-1.4,0-2.8,0-4.2,0c-0.5,0-0.7-0.1-0.7-0.7c0-1.1,0-2.1,0-3.2c0-0.5,0.2-0.7,0.7-0.7c1.8,0,3.6,0,5.5,0c0.5,0,0.6-0.2,0.6-0.6
	c0-1.1,0-2.3,0-3.4c0-0.5-0.2-0.7-0.7-0.7c-3.4,0-6.8,0-10.2,0c-0.7,0-0.8,0-0.8,0.8C140.7,118.4,140.7,122,140.8,125.7L140.8,125.7
	z M171.8,125.7c0,3.6,0,7.3,0,10.9c0,0.5,0,0.8,0.6,0.8h10.7c0.5,0,0.7-0.2,0.7-0.7c0-1.1,0.1-2.2,0.2-3.3c0-0.5-0.1-0.7-0.7-0.7
	c-2,0-4,0-6.1,0c-0.5,0-0.7-0.2-0.7-0.7c0-1.2,0-2.4,0-3.6c0-0.5,0.2-0.7,0.7-0.7c1.3,0,2.8,0,4.2,0c0.4,0,0.7-0.1,0.6-0.6
	c0-1.1,0-2.3,0-3.4c0-0.4-0.2-0.6-0.6-0.6c-1.3,0-2.8,0-4.2,0c-0.5,0-0.7-0.1-0.7-0.7c0-1.1,0-2.1,0-3.2c0-0.5,0.2-0.7,0.7-0.7
	c1.8,0,3.6,0,5.4,0c0.5,0,0.7-0.2,0.6-0.7c0-1.1,0-2.1,0-3.2c0-0.8,0-0.8-0.8-0.8h-9.9c-0.9,0-0.9,0-0.9,0.9
	C171.7,118.5,171.7,122.1,171.8,125.7L171.8,125.7z M220.5,125.7c0,3.7,0,7.3,0,11c0,0.5,0.2,0.7,0.7,0.7c3.5,0,6.9,0,10.4,0
	c0.6,0,0.8-0.2,0.8-0.7c0-1,0.1-2,0.1-3c0-1,0-0.9-0.8-0.9h-5.6c-0.8,0-0.8,0-0.8-0.8c0-3.4,0-6.9,0-10.4c0-2.3,0-4.6,0-6.9
	c0-0.5-0.1-0.7-0.7-0.7c-1.1,0-2.2,0-3.3,0c-0.8,0-0.8,0-0.8,0.9C220.5,118.5,220.4,122,220.5,125.7L220.5,125.7z M67.8,125.7
	L67.8,125.7c0,3.6,0,7.3,0,10.9c0,0.4,0,0.7,0.6,0.7c3.6,0,7.1,0,10.7,0c0.4,0,0.6-0.1,0.6-0.5c0-1.1,0.1-2.2,0.2-3.3
	c0-0.6-0.2-0.7-0.7-0.7c-2,0-3.9,0-5.9,0c-0.5,0-0.7-0.2-0.7-0.7c0-2.6,0-5.2,0-7.7c0-3.1,0-6.3,0-9.4c0-0.9,0-0.9-0.9-0.9h-3.2
	c-0.8,0-0.8,0-0.8,0.8C67.8,118.5,67.8,122.1,67.8,125.7L67.8,125.7z M54.2,125.7c0,3.6,0,7.3,0,10.9c0,0.5,0.2,0.7,0.7,0.7
	c3.5,0,7,0,10.5,0c0.5,0,0.8-0.2,0.8-0.7c0-1,0.1-2,0.1-3c0-1,0-0.8-0.8-0.8h-5.8c-0.5,0-0.7-0.1-0.7-0.7c0-0.2,0-0.3,0-0.5
	c0-5.6,0-11.2,0-16.7c0-0.8,0-0.8-0.8-0.8H55c-0.8,0-0.8,0-0.8,0.9C54.2,118.5,54.2,122.1,54.2,125.7L54.2,125.7z"/>
<path class="st1" d="M19.6,128c0-2.8,0-5.7,0-8.5c0-0.8,0-0.8-0.8-0.8s-0.9,0-0.9-0.9s0-2.1,0-3.1c0-0.3,0-0.6,0.5-0.6
	c2.8,0,5.5-0.1,8.3,0.1c1.7,0,3.3,0.5,4.7,1.3c1.3,0.9,2.2,2.1,2.7,3.6c1,3.1,1.3,6.3,0.9,9.5c-0.1,2.1-0.8,4.2-2,5.9
	c-1.3,1.6-3.1,2.6-5.1,2.8c-2.5,0.2-5,0.3-7.5,0.2c-0.5,0-0.6-0.3-0.6-0.7C19.7,133.7,19.7,130.8,19.6,128L19.6,128z M24.5,125.7
	c0,1.8,0,3.7,0,5.5s-0.2,1.5,1.6,1.6c1.9,0.1,3.5-1.3,3.7-3.2c0.3-1.7,0.4-3.4,0.3-5.1c0-1-0.1-2-0.4-3c-0.2-1.2-1-2.2-2.1-2.7
	c-0.8-0.2-1.6-0.3-2.3-0.3c-0.6,0-0.7,0.2-0.7,0.7C24.5,121.5,24.5,123.6,24.5,125.7L24.5,125.7z"/>
<path class="st1" d="M99.3,125.7c0-3.6,0-7.1,0-10.8c0-0.9,0-0.9,0.9-0.9c2,0,4.1,0,6.1,0c1.7-0.1,3.3,0.3,4.8,1.2
	c1,0.7,1.8,1.8,2.2,3.1c0.6,1.9,0.7,4,0.3,6c-0.2,1.7-1.1,3.2-2.5,4.2c-0.3,0.1-0.4,0.5-0.3,0.8c0,0,0,0,0,0c0.4,1,0.9,1.9,1.3,2.9
	c0.5,0.9,1.1,1.2,2.3,0.8c0.4-0.1,0.4,0,0.4,0.3c0,1.1-0.1,2.2-0.2,3.4c-0.1,0.6-0.7,0.7-1.1,0.9c-2.7,0.9-4.5-0.3-5.6-2.7
	c-0.8-1.5-1.5-3.1-2.2-4.7c-0.2-0.4-0.6-0.7-1.1-0.5c-0.5,0-0.4,0.5-0.4,0.8c0,2.1,0,4.1,0,6.2c0,0.7,0,0.8-0.8,0.8H100
	c-0.7,0-0.8,0-0.8-0.8C99.2,132.9,99.3,129.3,99.3,125.7z M104.1,122.1c0,0.6,0,1.2,0,1.7c0,2-0.3,1.8,1.9,1.7
	c1,0.1,1.9-0.4,2.4-1.3c0.5-1.2,0.6-2.5,0.2-3.8c-0.1-0.8-0.6-1.4-1.3-1.7c-0.9-0.2-1.8-0.3-2.8-0.1c-0.3,0-0.3,0.3-0.3,0.6
	C104.1,120.2,104.1,121.2,104.1,122.1L104.1,122.1z"/>
<path class="st1" d="M185.6,125.7c0-3.6,0-7.2,0-10.8c0-0.8,0-0.8,0.8-0.8c2.4,0,4.8-0.1,7.1,0.1c1.5,0,2.9,0.5,4.1,1.3
	c1.2,1,1.9,2.4,2.2,3.9c0.3,1.6,0.3,3.2,0,4.7c-0.2,1.7-1.1,3.3-2.5,4.4c-0.3,0.1-0.4,0.5-0.3,0.8c0,0,0,0,0,0c0.5,1,0.9,2,1.4,3
	c0.5,1,1.3,1,2.2,0.7c0.4-0.2,0.5,0,0.5,0.3c0,1.1-0.1,2.3-0.3,3.4c-0.1,0.6-0.7,0.7-1.1,0.8c-2.7,0.9-4.4-0.3-5.6-2.6
	c-0.8-1.5-1.5-3.2-2.2-4.8c-0.2-0.4-0.6-0.7-1.1-0.5c-0.5,0-0.5,0.5-0.5,0.8c0,2.1,0,4.1,0,6.2c0,0.8,0,0.8-0.8,0.8
	c-1.1,0-2.3,0-3.4,0c-0.5,0-0.7-0.2-0.7-0.7C185.6,132.9,185.6,129.3,185.6,125.7L185.6,125.7z M190.4,122.1L190.4,122.1
	c0,1,0,1.9,0,2.9c0,0.4,0.2,0.6,0.6,0.6s0.9,0,1.3,0c1,0.1,1.9-0.5,2.3-1.3c0.5-1.1,0.5-2.4,0.3-3.5c-0.1-0.8-0.6-1.5-1.3-1.9
	c-1-0.3-2-0.4-3-0.2c-0.3,0-0.3,0.3-0.3,0.6C190.4,120.2,190.4,121.1,190.4,122.1L190.4,122.1z"/>
<path class="st1" d="M36.2,125.9c-0.1-2.1,0.2-4.2,0.8-6.2c0.6-2.4,2.2-4.4,4.3-5.5c3-1.4,6.6-0.5,8.6,2.2c1.3,1.8,2,4,2.2,6.2
	c0.3,2,0.3,4,0,6c-0.2,2.7-1.3,5.3-3.2,7.3c-1.7,1.7-4.2,2.3-6.5,1.6c-2.3-0.6-4.1-2.2-4.9-4.4C36.6,130.9,36.2,128.4,36.2,125.9z
	 M47.2,125.6c0.1-1.8-0.1-3.6-0.7-5.3c-0.2-0.9-1-1.6-1.9-1.7c-1-0.1-1.9,0.4-2.3,1.3c-0.3,0.5-0.4,1-0.6,1.6
	c-0.3,1.9-0.5,3.8-0.3,5.7c0,1.3,0.2,2.6,0.7,3.8c0.2,0.8,0.9,1.5,1.7,1.7c0.9,0.2,1.8-0.1,2.3-0.8c0.3-0.5,0.6-1.1,0.7-1.7
	C47.2,128.7,47.3,127.2,47.2,125.6z"/>
<path class="st1" d="M158.7,125.3c-0.2,0.3-0.2,0.6-0.2,1c0,3.4,0,6.8,0,10.2c0,0.8,0,0.8-0.8,0.8h-2.5c-0.5,0-0.7-0.2-0.7-0.7
	c0-7.3,0-14.6,0-21.9c0-0.5,0.2-0.7,0.7-0.7c0.6,0,1.1,0,1.7,0c0.4,0,0.8,0.2,0.9,0.5l7,11.2c0.1,0.1,0.1,0.3,0.3,0.3
	c0.2-0.1,0.1-0.2,0.1-0.3c0-0.1,0-0.5,0-0.7c0-3.4,0-6.7,0-10.1c0-0.8,0-0.8,0.8-0.8h2.4c0.7,0,0.8,0,0.8,0.8c0,2.6,0,5.2,0,7.8
	c0,4.6,0,9.2,0,13.8c0,0.8,0,0.9-0.9,0.9c-0.4,0-0.8,0-1.2,0c-0.7,0.1-1.4-0.2-1.6-0.9c-2.2-3.5-4.4-7.1-6.7-10.7
	C158.9,125.7,158.8,125.6,158.7,125.3z"/>
<path class="st1" d="M138.6,131.3c0,1.7,0,3.4,0,5.2c0,0.8,0,0.8-0.8,0.8c-0.5,0-0.9,0-1.3,0c-0.4,0.1-0.8-0.2-0.9-0.6
	c-0.2-0.5-0.5-0.4-0.8-0.2c-1.3,0.9-2.8,1.3-4.4,1.2c-2.6-0.1-4.9-1.7-5.9-4.1c-1.3-3.1-1.8-6.5-1.4-9.9c0.1-1.4,0.3-2.9,0.8-4.3
	c0.6-2.5,2.4-4.5,4.8-5.5c3.8-1.3,7.8,0,9.2,4.4c0.2,0.6,0.3,1.2,0.5,1.7c0.2,0.6,0,0.6-0.5,0.7c-1.2,0.3-2.4,0.5-3.6,0.8
	c-0.7,0.2-0.8,0.1-1-0.6c-0.1-0.5-0.3-1-0.5-1.5c-0.4-1-1.5-1.4-2.4-1c-0.3,0.1-0.6,0.4-0.8,0.6c-0.7,0.9-1.1,1.9-1.2,3
	c-0.3,2.1-0.3,4.2,0,6.3c0.1,1.1,0.5,2.1,1.1,3c1,1.3,2.8,1.6,4.2,0.8c0.2-0.1,0.3-0.3,0.3-0.5c0-0.8,0-1.5,0-2.3
	c0-0.4-0.2-0.5-0.5-0.5c-1.3,0-1.3-0.1-1.3-1.5c0-0.6,0-1.1,0-1.7s0.1-0.6,0.5-0.6h5.6c0.5,0,0.5,0.3,0.5,0.6c0,1.8,0,3.5,0,5.3
	L138.6,131.3z"/>
<path class="st1" d="M216.7,137.3h-1.9c-0.4,0.1-0.7-0.2-0.7-0.6c0,0,0,0,0-0.1c-0.2-1-0.5-1.9-0.7-2.9c0-0.4-0.4-0.8-0.9-0.8
	c0,0-0.1,0-0.1,0c-1.5,0-2.9,0-4.4,0c-0.4,0-0.6,0.1-0.7,0.5c-0.2,0.9-0.4,1.8-0.6,2.7c-0.2,0.9-0.3,1.1-1.3,1.1h-3
	c-0.5,0-0.7-0.2-0.5-0.7c0.4-1.7,0.8-3.3,1.2-5l1.1-4.5c0.4-1.6,0.8-3.2,1.2-4.8c0.3-1.6,0.8-3.1,1.1-4.7c0.2-1.1,0.4-2.1,0.7-3.2
	c0-0.3,0.3-0.5,0.6-0.5h4.8c0.3,0,0.5,0.1,0.6,0.4c0.5,2,1.1,4.1,1.6,6.1c0.5,1.8,1,3.5,1.4,5.3c0.5,1.8,0.9,3.5,1.4,5.3
	c0.4,1.3,0.8,2.8,1.1,4.2c0.1,0.5,0.3,0.9,0.4,1.3c0.1,0.4,0,0.6-0.5,0.6L216.7,137.3z M210.1,120.7c-0.1,0.6-0.3,1.2-0.4,1.7
	c-0.4,1.9-0.8,3.8-1.2,5.7c-0.1,0.5,0,0.7,0.5,0.7h2.2c0.7,0,0.8,0,0.7-0.8c-0.5-2-0.9-4.1-1.4-6.1
	C210.4,121.4,210.3,121,210.1,120.7L210.1,120.7z"/>
<path class="st1" d="M88.8,114.1c0.8,0,1.5,0,2.3,0c0.4,0,0.7,0.2,0.7,0.6c0.6,2.1,1.1,4.3,1.7,6.4c0.5,1.8,1,3.5,1.5,5.3
	c0.5,1.8,0.9,3.5,1.3,5.3s0.9,3.4,1.3,5.1c0.1,0.5,0,0.6-0.4,0.6h-4c-0.3,0-0.5-0.2-0.6-0.4c-0.3-1.1-0.6-2.2-0.8-3.3
	c0-0.3-0.3-0.6-0.6-0.5c0,0,0,0,0,0c-1.5,0-3.1,0-4.6,0c-0.5,0-0.7,0.3-0.7,0.7c-0.2,1-0.5,2-0.7,3.1c0,0.3-0.3,0.5-0.6,0.5
	c0,0-0.1,0-0.1,0h-3.6c-0.5,0-0.5-0.3-0.4-0.7c0.4-1.6,0.8-3.2,1.2-4.8l1.1-4.4c0.3-1.2,0.6-2.4,0.9-3.5c0.3-1.4,0.7-2.8,1-4.2
	c0.3-1.4,0.6-2.5,0.8-3.7c0.1-0.4,0.2-0.8,0.2-1.1c0-0.7,0.4-0.9,1.1-0.8c0.6,0.1,1.3,0,1.9,0L88.8,114.1z M88.9,120.7
	c-0.3,0.3-0.4,0.7-0.4,1.1c-0.1,0.9-0.4,1.8-0.6,2.7c-0.3,1.2-0.5,2.4-0.7,3.6c-0.1,0.5,0.1,0.6,0.5,0.6c0.8,0,1.6,0,2.4,0
	c0.4,0,0.6-0.2,0.5-0.6c-0.1-0.4-0.1-0.4-0.1-0.6l-0.8-3.3C89.4,123,89.1,121.9,88.9,120.7L88.9,120.7z"/>
<path class="st1" d="M140.7,125.6c0-3.6,0-7.2,0-10.8c0-0.8,0-0.8,0.8-0.8c3.4,0,6.8,0,10.2,0c0.5,0,0.7,0.2,0.7,0.7
	c0,1.1,0,2.3,0,3.4c0,0.4-0.2,0.6-0.6,0.6c-1.8,0-3.6,0-5.5,0c-0.5,0-0.7,0.1-0.7,0.7c0,1.1,0,2.1,0,3.2c0,0.6,0.2,0.7,0.7,0.7
	c1.4,0,2.8,0,4.2,0c0.5,0,0.7,0.2,0.7,0.7c0,1.1,0,2.2,0,3.3c0,0.5-0.2,0.6-0.7,0.6c-1.3,0-2.8,0-4.2,0c-0.5,0-0.8,0.1-0.8,0.7
	c0,1.1,0,2.3,0,3.4c0,0.7,0,0.8,0.8,0.8c2,0,4,0,5.9,0c0.5,0,0.7,0.2,0.6,0.7c0,1.1-0.1,2.2-0.1,3.3c0,0.5-0.2,0.7-0.7,0.7h-10.9
	c-0.6,0-0.6-0.3-0.6-0.7C140.7,133,140.7,129.3,140.7,125.6z"/>
<path class="st1" d="M171.7,125.6c0-3.6,0-7.1,0-10.7c0-0.9,0-0.9,0.9-0.9h9.9c0.8,0,0.8,0,0.8,0.8c0,1.1,0,2.1,0,3.2
	c0,0.5-0.2,0.7-0.6,0.7c-1.8,0-3.6,0-5.4,0c-0.5,0-0.7,0.2-0.7,0.7c0,1.1,0,2.1,0,3.2c0,0.6,0.2,0.7,0.7,0.7c1.3,0,2.8,0,4.2,0
	c0.5,0,0.6,0.2,0.6,0.6c0,1.1,0,2.3,0,3.4c0,0.5-0.2,0.6-0.6,0.6c-1.3,0-2.8,0-4.2,0c-0.5,0-0.7,0.2-0.7,0.7c0,1.2,0,2.4,0,3.6
	c0,0.5,0.2,0.7,0.7,0.7c2,0,4,0,6.1,0c0.5,0,0.7,0.2,0.7,0.7c-0.1,1.1-0.1,2.2-0.2,3.3c0,0.5-0.2,0.7-0.7,0.7h-10.7
	c-0.6,0-0.7-0.3-0.6-0.8C171.8,132.9,171.7,129.3,171.7,125.6z"/>
<path class="st1" d="M220.4,125.6c0-3.6,0-7.1,0-10.8c0-0.8,0-0.9,0.8-0.9c1.1,0,2.2,0,3.3,0c0.5,0,0.7,0.2,0.7,0.7
	c0,2.3,0,4.6,0,6.9c0,3.4,0,6.9,0,10.4c0,0.8,0,0.8,0.8,0.8h5.6c0.9,0,0.9,0,0.8,0.9c0,0.9-0.1,2-0.1,3c0,0.5-0.2,0.7-0.8,0.7
	c-3.5,0-6.9,0-10.4,0c-0.6,0-0.7-0.2-0.7-0.7C220.4,133,220.4,129.3,220.4,125.6z"/>
<path class="st1" d="M67.8,125.7c0-3.6,0-7.2,0-10.8c0-0.8,0-0.8,0.8-0.8h3c0.9,0,0.9,0,0.9,0.9c0,3.1,0,6.3,0,9.4
	c0,2.6,0,5.2,0,7.7c0,0.5,0.1,0.7,0.7,0.7c2,0,3.9,0,5.9,0c0.6,0,0.8,0.2,0.7,0.7c-0.1,1.1-0.2,2.2-0.2,3.3c0,0.4-0.2,0.5-0.6,0.5
	c-3.6,0-7.1,0-10.7,0c-0.5,0-0.6-0.3-0.6-0.7C67.7,133,67.7,129.4,67.8,125.7L67.8,125.7z"/>
<path class="st1" d="M54.2,125.7c0-3.6,0-7.2,0-10.8c0-0.8,0-0.9,0.8-0.9h3.1c0.8,0,0.8,0,0.8,0.8c0,5.6,0,11.2,0,16.7
	c0,0.2,0,0.3,0,0.5c-0.1,0.5,0.2,0.7,0.7,0.7h5.8c0.8,0,0.9,0,0.8,0.8s-0.1,2-0.1,3c0,0.5-0.2,0.7-0.8,0.7c-3.5,0-7,0-10.5,0
	c-0.5,0-0.7-0.2-0.7-0.7C54.2,133,54.2,129.3,54.2,125.7z"/>
<path class="st2" d="M24.5,125.7c0-2.1,0-4.2,0-6.3c0-0.6,0.2-0.8,0.7-0.7c0.8,0,1.6,0.1,2.3,0.3c1.1,0.5,1.9,1.5,2.1,2.7
	c0.3,1,0.4,2,0.4,3c0.1,1.7,0,3.4-0.3,5.1c-0.2,1.8-1.8,3.2-3.7,3.1c-1.8,0-1.6,0.3-1.6-1.6S24.5,127.5,24.5,125.7z"/>
<path class="st2" d="M104.1,122.1c0-0.9,0-1.9,0-2.8c0-0.3,0-0.6,0.3-0.6c0.9-0.1,1.9-0.1,2.8,0.1c0.7,0.3,1.2,1,1.3,1.7
	c0.3,1.2,0.2,2.6-0.2,3.8c-0.4,0.9-1.4,1.4-2.4,1.3c-2.1,0-1.9,0.3-1.9-1.7C104.1,123.3,104.1,122.7,104.1,122.1z"/>
<path class="st2" d="M190.4,122.1c0-0.9,0-1.8,0-2.8c0-0.2,0-0.5,0.3-0.6c1-0.2,2-0.1,3,0.2c0.7,0.3,1.3,1.1,1.3,1.9
	c0.3,1.2,0.2,2.4-0.3,3.5c-0.4,0.9-1.3,1.4-2.3,1.3c-0.4,0-0.9,0-1.3,0s-0.6-0.2-0.6-0.6C190.4,124.1,190.4,123.1,190.4,122.1
	L190.4,122.1z"/>
<path class="st2" d="M47.2,125.6c0.1,1.5-0.1,3.1-0.4,4.6c-0.1,0.6-0.4,1.2-0.7,1.7c-0.5,0.7-1.4,1.1-2.3,0.8
	c-0.8-0.2-1.5-0.9-1.7-1.7c-0.5-1.2-0.7-2.5-0.7-3.8c-0.1-1.9,0-3.8,0.3-5.7c0.1-0.5,0.3-1.1,0.6-1.6c0.4-0.9,1.3-1.5,2.3-1.3
	c0.9,0.1,1.7,0.8,1.9,1.7C47.1,122,47.4,123.8,47.2,125.6z"/>
<path class="st2" d="M210.1,120.7c0.2,0.4,0.3,0.8,0.3,1.2c0.5,2,1,4,1.4,6.1c0.2,0.7,0,0.8-0.7,0.8H209c-0.6,0-0.6-0.1-0.5-0.7
	c0.4-1.9,0.8-3.8,1.2-5.7C209.8,121.8,210,121.3,210.1,120.7z"/>
<path class="st2" d="M88.9,120.6c0.2,1.2,0.5,2.4,0.8,3.6l0.8,3.3c0,0.2,0.1,0.4,0.1,0.6c0,0.2-0.1,0.6-0.5,0.6c-0.8,0-1.6,0-2.4,0
	c-0.5,0-0.6-0.2-0.5-0.6c0.3-1.2,0.5-2.4,0.7-3.6c0.2-0.9,0.5-1.8,0.6-2.7C88.5,121.4,88.7,120.9,88.9,120.6z"/>
<ellipse class="st2" cx="229.1" cy="116.7" rx="2.5" ry="3.2"/>
<path class="st1" d="M230.2,119.1c-1.3,0.2-2.5-0.7-2.7-2c-0.2-1.3,0.7-2.5,2-2.7c1.3-0.2,2.5,0.7,2.7,2c0,0.1,0,0.2,0,0.3
	C232.3,118,231.4,119,230.2,119.1C230.2,119.1,230.2,119.1,230.2,119.1z M230.2,114.8c-1.1-0.2-2.1,0.6-2.3,1.7s0.6,2.1,1.7,2.3
	c1.1,0.2,2.1-0.6,2.3-1.7c0-0.1,0-0.2,0-0.3C232,115.8,231.2,114.9,230.2,114.8L230.2,114.8z"/>
<path d="M229.4,115.4c0.2,0,0.5,0,0.7,0c0.3,0,0.6,0.1,0.8,0.2c0.1,0.1,0.2,0.3,0.2,0.5c0,0.3-0.2,0.6-0.5,0.7l0,0
	c0.2,0.1,0.4,0.3,0.4,0.6c0,0.3,0.1,0.5,0.2,0.8h-0.4c-0.1-0.2-0.1-0.4-0.2-0.7c-0.1-0.4-0.2-0.5-0.6-0.5h-0.3v1.1h-0.4L229.4,115.4
	z M229.7,116.8h0.4c0.4,0,0.6-0.2,0.6-0.5s-0.3-0.5-0.7-0.5c-0.1,0-0.2,0-0.4,0L229.7,116.8z"/>
</svg>
