<?xml version="1.0" encoding="utf-8"?>
<!-- Generator: Adobe Illustrator 21.1.0, SVG Export Plug-In . SVG Version: 6.00 Build 0)  -->
<svg version="1.1" id="Layer_1" xmlns="http://www.w3.org/2000/svg" xmlns:xlink="http://www.w3.org/1999/xlink" x="0px" y="0px"
	 viewBox="0 0 250 250" style="enable-background:new 0 0 250 250;" xml:space="preserve">
<style type="text/css">
	.st0{fill:#FFFDFD;}
	.st1{fill:#DF3B3F;}
	.st2{fill:#02A677;}
</style>
<title>Grocery</title>
<path class="st0" d="M180.2,142.5v5.2L194,144c0,0,2.7-0.2,2.1,1.9c0,0-2.3,3.4-0.1,4.1c0,0,1,0.6,5.4-0.9l32.9-7.8v-5.3l-19.7,3.9
	l-14.8,4.1c0,0-2.2,0-1.5-1.9c0,0,1.7-2.1,1.5-3.2c0,0-0.5-0.8-3.9-0.1C192.4,139.4,180.2,142.5,180.2,142.5z"/>
<path class="st1" d="M4.9,95h0.2c5.3,0,10.5-0.1,15.8,0c2.7,0,5.3,0.6,7.7,1.9c4,2.1,6.8,5.9,7.7,10.3c1.3,4.9,0.3,10.1-2.7,14.1
	c-2.3,3.2-5.9,5.4-9.8,5.8c-1.9,0.3-3.9,0.4-5.8,0.3H5v-0.2c0.2-0.1,0.4-0.2,0.6-0.4c1-1,1.5-2.3,1.5-3.7c0-6.7,0-13.4,0-20.1
	c0-1.6,0-3.2-0.1-4.7C6.9,97,6.2,95.7,4.9,95L4.9,95z M16.2,111.3c0,3.4,0,6.9,0,10.3c0,0.4,0,0.6,0.5,0.7c4.3,0.8,7.6-0.3,9.5-4.4
	c1.7-4.5,1.6-9.6-0.4-14c-0.9-1.9-2.7-3.2-4.8-3.6c-1.4-0.2-2.8-0.1-4.2,0.1c-0.4,0-0.5,0.2-0.5,0.7
	C16.2,104.5,16.2,107.9,16.2,111.3L16.2,111.3z"/>
<path class="st1" d="M194.4,94.1v20.4l2.1-2.4c0.8-0.9,1.5-1.8,2.3-2.7c1.5-1.7,1.3-3.1-0.6-4.4l-0.3-0.2h11.4
	c0,0.3-0.2,0.4-0.3,0.5c-2.3,2.6-4.6,5.1-7,7.7c-0.3,0.2-0.3,0.5-0.1,0.8c0,0,0,0,0,0.1c1.8,2.8,3.6,5.7,5.5,8.5
	c1.2,1.8,2.2,3.8,4.1,5c0,0.1-0.1,0.2-0.2,0.2c0,0,0,0,0,0c-2.7,0.1-5.3,0.1-7.9,0.3c-1.5,0.1-3-0.6-3.7-1.9
	c-1.5-2.4-2.9-4.7-4.3-7.1c-0.3-0.5-0.6-1-1-1.5c0,2.5-0.2,5,0.1,7.5c0.1,0.9,0.5,1.7,1.1,2.3l0.5,0.5h-12c0,0,0-0.1,0-0.2
	c1.1-1,1.7-2.4,1.6-3.9c0.1-3.7,0-7.4,0-11.2c0-4.5,0.1-9,0-13.6c0-1.3-0.5-2.5-1.5-3.4c-0.1-0.1-0.1-0.1-0.2-0.2c0,0,0,0,0-0.1
	c0.2-0.1,0.4-0.1,0.6,0c2.4,0,4.7,0.1,7.1-0.1c0.8,0,1.6-0.3,2.3-0.7L194.4,94.1z"/>
<path class="st1" d="M193.5,155.8c-1.3-0.5-2-1.9-1.5-3.3c0.1-0.2,0.2-0.4,0.3-0.6c0.2-0.4,0.5-0.7,0.7-1.1c0.3-0.7,0.1-1.1-0.7-1.2
	c-0.9,0-1.8,0.1-2.7,0.5l-8.8,2.8c-0.6,0.2-0.6,0.2-0.6-0.5c0-1.6,0-3.2,0-4.8c0-0.3,0-0.5,0.4-0.6c3.6-1.1,7.2-2.3,10.9-3.4
	c1-0.3,2.2-0.5,3.3-0.4c0.7,0,1.3,0.3,1.8,0.7c0.7,0.6,1,1.6,0.6,2.4c-0.2,0.4-0.4,0.8-0.5,1.2c-0.3,0.9,0,1.3,1,1.3
	c0.8-0.1,1.7-0.3,2.5-0.6c6.3-1.8,12.7-3.7,19.1-5.2c4.9-1.1,9.9-2.1,14.9-2.8c0.4,0,0.5,0,0.4,0.4c0,1.7,0,3.4,0,5
	c0,0.5-0.3,0.6-0.6,0.6c-2.2,0.3-4.3,0.6-6.5,1c-6.8,1.2-13.5,2.8-20.2,4.7c-3.4,1-6.8,2.1-10.2,3.2l-2.1,0.6L193.5,155.8z"/>
<path class="st1" d="M64.7,127.4c0-0.1,0-0.2,0.1-0.2c1.1-1,1.7-2.5,1.5-4c0-4.8,0-9.5,0-14.3c0.1-1.5-0.5-3-1.6-4
	c0,0,0-0.1-0.1-0.2c0.2-0.1,0.4-0.1,0.6-0.1c1.7,0,3.4,0,5.2,0c1.5,0.1,3-0.1,4.4-0.8v2.8c0.2,0.1,0.3-0.1,0.3-0.2
	c2.9-3.1,7.7-3.3,10.8-0.5c0,0,0.1,0.1,0.1,0.1c0.2,0.2,0.5,0.6,0.7,0.7c0.3,0,0.5-0.4,0.8-0.6c1.5-1.2,3.3-1.9,5.2-2.1
	c1.8-0.2,3.7,0,5.4,0.7c2.7,1,4.5,3.6,4.4,6.5c0,3.7,0,7.5,0,11.2c0,0.6,0,1.2,0.1,1.8c0.1,1,0.6,2,1.3,2.7c0.1,0.1,0.3,0.2,0.3,0.5
	H92.4c0-0.1,0.1-0.2,0.1-0.2c1.1-1,1.7-2.4,1.5-3.9c0-3.6,0-7.1,0-10.7c0-0.6-0.1-1.2-0.2-1.7c-0.2-1-1-1.7-2-1.7
	c-1.1-0.2-2.2,0.3-2.7,1.3c-0.2,0.5-0.3,1.1-0.3,1.6c0,3.8,0,7.7,0,11.5c0,1.3,0.5,2.5,1.5,3.3c0.1,0.1,0.2,0.1,0.2,0.3H78.6
	c-0.1-0.1-0.1-0.2,0-0.2c0,0,0,0,0,0c1.1-0.9,1.6-2.3,1.5-3.7c0-3.5,0-7,0-10.5c0-0.7-0.1-1.4-0.3-2.1c-0.3-1.1-1.4-1.7-2.5-1.6
	c-1.1-0.1-2,0.6-2.3,1.7c-0.2,0.7-0.3,1.3-0.3,2c0,3.1,0,6.2,0,9.2c0,1.9,0,3.8,1.9,5.3L64.7,127.4z"/>
<path class="st1" d="M146.6,127.4h-12c0-0.1,0-0.2,0.1-0.2c1.2-1,1.8-2.5,1.6-4c0-3.4,0-6.8,0-10.1c0-0.4,0-0.9-0.1-1.3
	c-0.3-1.6-1.7-2.7-3.3-2.6c-1.5,0.2-2.7,1.5-2.7,3c0,0.9,0,1.9,0,2.8c0,2.8,0,5.6,0,8.3c-0.1,1.5,0.5,2.9,1.6,3.9
	c0,0,0.1,0.1,0.1,0.1c0,0,0,0,0,0.1H120c-0.1-0.2,0.2-0.3,0.3-0.4c0.9-0.8,1.3-1.9,1.3-3c0-5.2,0-10.4,0-15.5c0-1.3-0.5-2.5-1.5-3.4
	c-0.1-0.1-0.2-0.1-0.1-0.3h0.5c2,0,3.9,0,5.9,0c1.1,0,2.2-0.2,3.3-0.6c0.5-0.2,0.6,0,0.5,0.4c0,0.7,0,1.3,0,2c0,0,0.1,0,0.1,0
	c1.2-1.4,2.9-2.2,4.7-2.4c2.5-0.4,5.1,0.2,7.1,1.7c1.7,1.2,2.7,3.1,2.7,5.2c0.2,3.7,0,7.5,0.1,11.2c0,0.5,0,1.1,0,1.6
	c0,1.2,0.5,2.4,1.4,3.2l0.2,0.2C146.6,127.3,146.6,127.4,146.6,127.4z"/>
<path class="st1" d="M64.2,115.3c0,4-1.1,7.1-3.6,9.4c-1.9,1.8-4.3,2.9-6.9,3.2c-2.8,0.5-5.6,0.2-8.2-0.9c-4.1-1.6-6.8-5.5-6.9-9.8
	c-0.2-2.1,0.1-4.2,1-6.2c1.2-2.9,3.6-5.1,6.5-6.1c3.8-1.5,8-1.3,11.7,0.4C61.6,107.2,64.1,111.1,64.2,115.3z M55.9,117
	c0.1-1.7-0.2-3.5-0.7-5.1c-0.4-1.3-1.4-2.4-2.7-2.8c-2.1-0.7-4.4,0.4-5.1,2.5c-0.1,0.2-0.1,0.4-0.1,0.5c-0.3,1.3-0.4,2.7-0.3,4
	c0,1.7,0.3,3.3,0.9,4.9c0.6,1.6,2.3,2.6,4,2.5c1.7,0,3.2-1.2,3.5-2.9C55.7,119.4,55.9,118.2,55.9,117z"/>
<path class="st2" d="M180.2,141.3c0-0.9,0-1.8,0-2.7c0-0.3,0.1-0.5,0.4-0.5c5.8-1.8,11.6-3.7,17.5-5.5c1.2-0.4,2.4-0.6,3.6-0.4
	c1.3,0.1,2.2,1.1,2.2,2.4c0,0.4-0.1,0.7-0.3,1l-0.4,1c-0.2,0.3-0.1,0.7,0.1,1c0.3,0.2,0.6,0.3,0.9,0.1c2.2-0.7,4.5-1.1,6.7-1.7
	c7.2-1.7,14.4-3.4,21.7-4.6l1.5-0.2c0.3,0,0.4,0,0.4,0.3c0,1.8,0,3.6,0,5.3c0,0.4-0.3,0.4-0.6,0.4c-2.4,0.3-4.8,0.7-7.2,1.2
	c-7.2,1.3-14.4,3.1-21.4,5.3c-1.6,0.5-3.3,0.9-4.9,1.2c-0.3,0-0.7,0-1,0c-0.7,0-1.3-0.5-1.5-1.2c-0.2-0.8-0.2-1.7,0.3-2.5
	c0.2-0.4,0.4-0.7,0.6-1.1c0.2-0.3,0.2-0.8,0-1.1c-0.3-0.4-0.7-0.3-1.1-0.2c-0.7,0.1-1.5,0.3-2.2,0.6l-14.8,4.7
	c-0.5,0.1-0.5,0-0.5-0.4C180.2,143,180.2,142.2,180.2,141.3z"/>
<path class="st1" d="M233.6,110c-1.1-0.7-2.4-1.3-3.7-1.6c-1.4-0.4-2.8-0.4-4.2-0.1c-0.6,0.2-1.2,0.5-1.3,1.2
	c-0.1,0.7,0.3,1.5,1,1.8c1.1,0.5,2.2,0.9,3.3,1.1c2.1,0.6,4,1.6,5.6,3c2.6,2.5,2.8,6.6,0.3,9.2c-0.3,0.4-0.7,0.7-1.1,1
	c-1.7,1.1-3.6,1.8-5.7,2.1c-4,0.5-8.1,0.3-12-0.7c-0.2,0-0.4-0.1-0.4-0.3c-0.3-1.8-0.7-3.6-1-5.4c1.6,1,3.4,1.8,5.2,2.3
	c1.7,0.5,3.4,0.6,5.1,0.3c0.9-0.1,1.6-0.7,1.9-1.5c0.2-0.7-0.1-1.5-0.8-1.9c-1.1-0.7-2.2-1.3-3.5-1.7c-1.6-0.6-3.1-1.4-4.6-2.3
	c-4.4-2.8-3.2-7.9-0.3-10.1c1.9-1.3,4-2.1,6.3-2.2c3.2-0.2,6.3,0,9.4,0.7c0.4,0.1,0.6,0.2,0.5,0.7
	C233.5,106.9,233.6,108.4,233.6,110z"/>
<path class="st1" d="M183.9,120.8c-0.5,1.6-0.9,3.1-1.3,4.5c-0.1,0.6-0.6,1.1-1.2,1.3c-4.1,1.8-8.7,1.9-12.9,0.5
	c-3.9-1.3-6.8-4.7-7.3-8.8c-1.2-6.1,2.6-12,8.6-13.5c2.6-0.7,5.4-0.9,8.1-0.5c0.9,0.1,1.7,0.2,2.6,0.3c0.3,0,0.4,0.1,0.4,0.4
	c0,1.6,0,3.3,0,4.9c0,0.6-0.3,0.3-0.5,0.2c-1.3-0.8-2.7-1.3-4.2-1.3c-2.6-0.3-5,1.5-5.3,4.1c0,0,0,0.1,0,0.1
	c-0.5,2.2-0.3,4.4,0.6,6.5c1.2,2.9,3.3,4.1,6.7,3.8c2-0.2,3.9-0.9,5.5-2.1L183.9,120.8z"/>
<path class="st1" d="M118.1,127.5h-11.9c0-0.2,0-0.2,0.1-0.3c1.1-0.9,1.6-2.3,1.5-3.7c0-4.9,0-9.8,0-14.8c0.1-1.5-0.5-2.9-1.7-3.9
	c0.2-0.2,0.5-0.1,0.7-0.1h6.4c1,0,2-0.2,2.8-0.6c0.3-0.2,0.4,0,0.4,0.2c0,0.6,0,1.2,0,1.7c0,5.5,0,11,0,16.6c0,0.5,0,1,0,1.4
	c0,1.1,0.5,2.1,1.3,2.8C117.9,127.1,118,127.2,118.1,127.5C118.3,127.5,118.1,127.4,118.1,127.5z"/>
<path class="st1" d="M160.3,127.4c-0.5,0.1-11.4,0.1-12,0c0-0.1,0.1-0.2,0.2-0.3c1-0.9,1.6-2.2,1.5-3.6c0-5,0-9.9,0-14.9
	c0.1-1.5-0.5-2.9-1.7-3.8c0.2-0.3,0.5-0.1,0.7-0.1h6.5c1,0,1.9-0.2,2.8-0.6c0.3-0.2,0.4,0,0.4,0.3c0,0.3,0,0.9,0,1.3
	c0,5.9,0,11.7,0,17.6c-0.1,1.5,0.5,3,1.6,4C160.1,127.3,160.3,127.4,160.3,127.4z"/>
<path class="st1" d="M158.4,98.7c0,2.5-2,4.5-4.5,4.5c0,0-0.1,0-0.1,0c-2.3-0.1-4.2-2-4.3-4.3c-0.1-2.5,1.9-4.6,4.5-4.6
	c0,0,0,0,0.1,0C156.5,94.3,158.5,96.3,158.4,98.7C158.4,98.7,158.4,98.7,158.4,98.7z"/>
<path class="st1" d="M116.3,98.8c0,2.5-2.1,4.5-4.6,4.5c0,0-0.1,0-0.1,0c-2.3-0.1-4.2-2.1-4.2-4.4c0-2.5,2-4.5,4.5-4.6
	c0,0,0.1,0,0.1,0C114.4,94.4,116.3,96.3,116.3,98.8z"/>
<path class="st1" d="M209.5,107.8c1.5-1.1,2.9-2.4,4-3.8c-0.4-0.1-0.8-0.1-1.1-0.2c-1.2-0.3-2.2-1.4-2.3-2.7
	c-0.3-1.4,0.4-2.8,1.7-3.5c1.2-0.8,2.7-0.7,3.8,0.1c1.6,1.1,2.2,3.2,1.5,5c-0.8,2.1-2.3,4-4.3,5.2
	C211.7,108.6,210.6,108.2,209.5,107.8z"/>
<path class="st1" d="M242,127.8c-1.6,0-3-1.3-3-3c0-1.6,1.3-3,3-3s3,1.3,3,3l0,0C244.9,126.5,243.6,127.8,242,127.8z M242,122.3
	c-1.5,0-2.7,1.2-2.7,2.7s1.2,2.7,2.7,2.7s2.7-1.2,2.7-2.7C244.6,123.5,243.4,122.3,242,122.3L242,122.3z"/>
<path class="st1" d="M240.8,123.5c0.3,0,0.6,0,0.9,0c0.4,0,0.7,0.1,1,0.2c0.2,0.1,0.3,0.3,0.3,0.5c0,0.4-0.3,0.7-0.7,0.7l0,0
	c0.3,0.1,0.5,0.3,0.5,0.6c0.1,0.3,0.2,0.5,0.3,0.8h-0.5c-0.1-0.2-0.2-0.4-0.2-0.7c0-0.3-0.3-0.6-0.7-0.6c0,0,0,0,0,0h-0.4v1.2h-0.4
	L240.8,123.5z M241.3,124.8h0.5c0.5,0,0.8-0.2,0.8-0.5c0-0.3-0.3-0.5-0.8-0.5c-0.1,0-0.3,0-0.4,0L241.3,124.8z"/>
</svg>
