<svg id="Layer_1" data-name="Layer 1" xmlns="http://www.w3.org/2000/svg" width="250" height="250" viewBox="0 0 250 250"><defs><style>.cls-1{fill:#f9e8a0;}.cls-2{fill:red;}.cls-3{fill:#414042;}</style></defs><title>iShop</title><rect class="cls-1" x="67.18" y="40.35" width="113.48" height="32.81"/><rect class="cls-2" x="78.12" y="72.48" width="93.65" height="8.89"/><polygon class="cls-1" points="74.01 211.25 69.23 211.25 69.23 200.31 77.43 200.31 77.43 93.67 69.23 93.67 69.23 82.73 179.97 82.73 179.97 93.67 171.77 93.67 171.77 198.94 180.66 198.94 180.66 211.25 74.01 211.25"/><polygon class="cls-2" points="149.21 139.47 132.8 139.47 132.8 121.7 117.08 121.7 117.08 139.47 98.62 139.47 98.62 154.51 117.08 154.51 117.08 173.65 132.8 173.65 132.8 154.51 149.21 154.51 149.21 139.47"/><path class="cls-3" d="M183.39,76.58V38.3H65.81V76.58H74.7v2.73H70.6a4.67,4.67,0,0,0-4.79,4.79v7.52a4.67,4.67,0,0,0,4.79,4.79h4.1v99.8H70.6A4.67,4.67,0,0,0,65.81,201v7.52a4.67,4.67,0,0,0,4.79,4.79h108a4.67,4.67,0,0,0,4.79-4.79V201a4.67,4.67,0,0,0-4.79-4.79h-4.1V97.09h4.1a4.67,4.67,0,0,0,4.79-4.79V84.1a4.67,4.67,0,0,0-4.79-4.79h-4.1V76.58ZM72,70.43v-26h8.89V50.6h5.47V44.45h6.15V50.6h6.15V44.45h6.15V50.6h6.15V44.45h6.15V50.6h6.15V44.45h4.1V50.6h6.15V44.45h6.15V50.6h6.15V44.45h6.15V50.6h6.15V44.45h6.15V50.6h4.1V44.45h8.89V71.11h-8.89V65H162.2v6.15H156V65h-6.15v6.15h-6.15V65h-6.15v6.15h-4.1V65h-6.15v6.15h-5.47V65h-6.15v6.15h-6.15V65h-5.47v6.15H97.94V65H92.47v6.15H86.32V65H80.17v6.15H72ZM173.82,203h4.1v6.15H72V203h4.1a4.67,4.67,0,0,0,4.79-4.79v-6.84h87.5v6.84c0,2.73,2.73,4.79,5.47,4.79Zm-93-17.77V108.71h87.5v76.56Zm96.39-99.8v6.15h-4.1a4.67,4.67,0,0,0-4.79,4.79v6.84H80.17V96.41a4.67,4.67,0,0,0-4.79-4.79H72V85.47Zm-8.89-6.15H80.17V76.58h88.18Z"/><path class="cls-3" d="M136.22,117.6H113v17.77H95.21v23.24H113v17.77h23.24V158.61H154V135.37H136.22Zm11.62,23.24v11.62H130.75v17.77h-12.3V152.46H101.36V140.84h17.77V123.07h11.62v17.77Z"/><rect class="cls-3" x="86.32" y="90.94" width="17.77" height="6.15"/><rect class="cls-3" x="112.98" y="90.94" width="35.55" height="6.15"/><rect class="cls-3" x="156.73" y="90.94" width="6.15" height="6.15"/><rect class="cls-3" x="86.32" y="196.89" width="17.77" height="6.15"/><rect class="cls-3" x="112.98" y="196.89" width="35.55" height="6.15"/><rect class="cls-3" x="156.73" y="196.89" width="6.15" height="6.15"/></svg>