<?xml version="1.0" encoding="utf-8"?>
<!-- Generator: Adobe Illustrator 21.1.0, SVG Export Plug-In . SVG Version: 6.00 Build 0)  -->
<svg version="1.1" id="Layer_1" xmlns="http://www.w3.org/2000/svg" xmlns:xlink="http://www.w3.org/1999/xlink" x="0px" y="0px"
	 viewBox="0 0 250 250" style="enable-background:new 0 0 250 250;" xml:space="preserve">
<title>Drug Logos</title>
<path d="M118,55h5.7c0.2,0.1,0.5,0.1,0.7,0.1c3.3,0.2,6.5,0.6,9.7,1.3c13.4,2.9,25.4,10.3,33.9,21c11.5,14.3,15.5,30.7,12,48.7
	c-1.3,6.5-3.7,12.7-7.1,18.3c-0.3,0.5-0.2,0.7,0.3,0.9c1,0.2,2,0.2,3,0c0.5-0.1,0.8-0.2,0.4-0.8c-0.6-0.8-0.5-2,0.1-2.8
	c0.5-0.9,1.5-1.3,2.5-1.1c1,0.1,1.8,0.9,2,1.9c0.3,1.2-0.1,2.4-1.1,3.2c-0.6,0.5-1.4,0.9-2.2,1.1c-2.1,0.6-4.2,0.8-6.4,0.6
	c-0.4-0.1-0.8,0.1-1,0.5c-1.3,1.9-2.7,3.7-4.2,5.4c-9.6,10.9-22.7,18-37.1,19.9c-8,1.2-16.2,0.7-24-1.4c-13.2-3.4-24.8-11.2-33-22
	c-1.9-2.5-3.6-5.2-5.1-7.9V86.9c0.3-0.3,0.5-0.7,0.7-1.1c9.9-17.4,27.7-28.8,47.7-30.5C116.3,55.2,117.2,55.2,118,55z M72.2,145.8
	c0.2,0.3,0.2,0.4,0.3,0.6c5,7.3,11.6,13.3,19.3,17.6c25.9,14.6,58.7,7.6,76.3-16.4c0.3-0.5,0.3-0.6-0.2-0.7
	c-2.1-0.6-4.1-1.8-5.6-3.4c-2.3-2.5-3.9-5.6-4.7-8.9c-0.9-3.5-1.6-7-2.1-10.6c-0.2-1.9-0.7-3.7-1.5-5.4c-0.7-1.7-2.2-2.9-4-3.2
	c-0.9-0.2-1.9-0.3-2.8-0.4c-4.2-0.3-8.4-0.4-12.6-0.3c-0.7,0-0.8,0.2-0.8,0.9c0,7.5,0,15,0,22.5c0,1.5,0,2.9,0,4.4
	c0,0.9,0.2,1.1,1,1.2c1.2,0.2,2.4,0.3,3.6,0.3c1.2,0,2.3,0,3.5,0.1c1,0.1,1.4,0.6,1.4,1.3c0,0.7-0.5,1.3-1.6,1.4c-0.6,0-1.2,0-1.8,0
	c-7.5,0.1-14.9-0.2-22.4,0.1c-1,0-1.5-0.4-1.6-1.1c-0.1-0.7,0.3-1.4,1.3-1.6c0.5-0.1,1.1-0.2,1.6-0.1c1.6,0,3.2-0.1,4.8-0.4
	c0.6-0.1,1-0.3,1-1.1c0-0.7,0.1-1.2,0.1-1.8c0-6.5,0-13,0-19.5c0-0.2,0-0.4,0-0.7c-0.3,1.2-0.5,2.5-0.8,3.7
	c-2.2,8.6-7.2,14.8-15.3,18.4c-5,2.1-10.4,3.2-15.9,3.2c-6.5,0.1-13,0-19.5,0L72.2,145.8z M170.9,143.3c0.1-0.2,0.2-0.3,0.2-0.4
	c13.6-23.1,9.1-52.5-10.8-70.4c-24-21.8-61.2-20-83,4c-0.9,1-1.8,2.1-2.7,3.2c-0.8,1-1.6,2-2.2,3.1h18.3c3.9-0.1,7.8,0.3,11.6,1.1
	c10.2,2.4,17,8.6,20.9,18.3c0.7,1.9,1.2,3.8,1.5,5.8c0-0.1,0.1-0.2,0.1-0.3c0-6.2,0-12.4,0-18.6c0-0.7-0.1-1.3-0.2-2
	c-0.1-0.8-0.7-1.4-1.5-1.5c-1.4-0.3-2.9-0.4-4.3-0.4c-0.6,0-1.1-0.1-1.7-0.2c-0.7-0.2-1.1-0.9-1-1.5c0,0,0-0.1,0-0.1
	c0.1-0.6,0.8-1.1,1.4-1c0.9,0,1.7,0.1,2.6,0.1c9.4,0,18.7-0.1,28.1-0.1c4.3-0.1,8.6,1,12.3,3.2c3.9,2.2,6.3,6.3,6.5,10.7
	c0.2,4-0.7,7.7-3.6,10.6c-2,1.9-4.5,3.3-7.2,4.1c-2.1,0.7-4.3,1.2-6.5,1.4c1.4,0.2,2.8,0.4,4.2,0.8c5.5,1,9.9,5,11.5,10.3
	c0.7,2.1,1.2,4.2,1.6,6.3c0.5,2.7,0.8,5.5,1.5,8.1C169.1,140,169.9,141.7,170.9,143.3L170.9,143.3z M82.5,114.4c0,5.7,0,11.3,0,17
	c0,0.5,0.1,0.7,0.7,0.7c3,0,6,0,9,0c1.8,0,3.7-0.2,5.5-0.5c5.1-1.1,8.9-4,10.6-9.1c1.9-5.5,1.8-11.5-0.5-16.8c-1.3-3.3-3.8-6-7-7.4
	c-2.4-1-4.9-1.5-7.5-1.5c-3.3-0.1-6.7,0-10,0c-0.6,0-0.7,0.1-0.7,0.7C82.5,103.1,82.5,108.7,82.5,114.4z M134,99.3
	c0,3.7,0,7.5,0,11.2c0,0.7,0.1,0.9,0.8,0.9c1.6,0,3.1,0,4.6,0c3.2,0.1,6.4-0.3,9.5-1.1c3.2-0.9,5.8-2.5,7.1-5.8
	c1.2-3.3,1.5-6.8,0.9-10.2c-0.5-4.3-3.6-7.7-7.8-8.6c-4.5-1.1-9-0.7-13.5-0.2c-0.7,0.1-1.3,0.7-1.5,1.4c-0.1,0.5-0.2,1-0.2,1.6
	C134,92.1,134,95.7,134,99.3z"/>
<path d="M67.1,183.4c2.2-0.2,4.4-0.1,6.5,0.1c2.7,0.4,4.7,2.7,4.6,5.4c0,3-1.6,5.1-4.5,5.6c-2.2,0.3-4.4,0.3-6.6,0.2L67.1,183.4z
	 M70.4,188.9c0,0.5,0,1,0,1.4c0,2,0,2,2.1,1.8c1-0.1,1.9-0.8,2.2-1.7c0.9-2.5-0.5-4.5-3.2-4.5c-0.1,0-0.3,0-0.4,0
	c-0.5-0.1-0.8,0.1-0.7,0.7C70.5,187.3,70.4,188.1,70.4,188.9z"/>
<path d="M163.5,195c-1.1-0.4-2.2-1.1-3-1.9c-2.1-2.7-1.7-6.6,0.9-8.7c0.4-0.3,0.8-0.6,1.3-0.8c1.7-0.7,3.2-0.4,4.9,1.1
	c0-1.2,0-2.3,0-3.5c0-0.8,0-1.6,0-2.4c0-0.4-0.1-0.6-0.6-0.6s-0.6,0-1,0s-0.4,0-0.4-0.3s0.1-0.4,0.4-0.4c1.2,0,2.4,0,3.6,0
	c0.5,0,0.4,0.3,0.4,0.5c0,1.5,0,3.1,0,4.6c0,3.5,0,7.1,0,10.6c0,0.5,0.1,0.8,0.7,0.7c0.2,0,0.5,0,0.7,0s0.5,0.1,0.5,0.5
	c0,0.4-0.2,0.5-0.5,0.5c-1.1,0-2.1,0-3.1,0c-0.6,0-0.8-0.2-0.7-0.7c0-0.2,0-0.5,0-0.7c-0.5,0.7-1.1,1.2-1.9,1.6L163.5,195z
	 M167.8,188.9c0-0.9,0-1.7-0.2-2.5c-0.2-1.4-1.4-2.4-2.8-2.4c-1.5,0-2.3,0.7-2.6,2.3c-0.1,0.6-0.2,1.2-0.2,1.8
	c-0.2,1.6,0,3.3,0.4,4.9c0.2,0.7,0.7,1.2,1.4,1.3c1.5,0.5,3-0.3,3.5-1.8c0-0.1,0.1-0.3,0.1-0.4C167.7,191,167.8,189.9,167.8,188.9
	L167.8,188.9z"/>
<path d="M104.7,188c-0.2,0.2-0.1,0.4-0.1,0.7c0,1.8,0,3.7,0,5.5c0,0.4-0.1,0.6-0.6,0.6c-0.7,0-1.4,0-2.2,0c-0.3,0-0.4-0.1-0.4-0.4
	c0-3.5,0-7.1,0-10.6c0-0.3,0.1-0.5,0.4-0.4h0.1c1.5-0.4,3,0.4,3.6,1.8c1,1.6,2,3.1,3.1,4.6c0.1,0.2,0.3,0.4,0.5,0.6
	c0-0.3,0-0.6,0-0.8c0-1.9,0-3.8,0-5.7c0-0.4,0.1-0.6,0.6-0.6c0.6,0,1.3,0,1.9,0c0.4,0,0.6,0.1,0.6,0.5c0,3.5,0,7,0,10.5
	c0,0.3-0.1,0.5-0.5,0.5c-0.7,0-1.3,0-2,0c-0.4,0-0.5-0.2-0.7-0.5l-4.1-5.8C105,188.3,104.9,188.1,104.7,188z"/>
<path d="M85.6,187.4c0-1.2,0-2.3,0-3.5c0-0.4,0.1-0.5,0.5-0.5c0.8,0,1.6,0,2.3,0c0.3,0,0.4,0,0.4,0.4c0,2.4,0.1,4.9-0.1,7.3
	c0,2-1.5,3.6-3.5,3.8c-1.2,0.2-2.4,0.1-3.5-0.3c-1.5-0.4-2.6-1.8-2.6-3.4c-0.1-2.4,0-4.9-0.1-7.3c0-0.3,0.1-0.4,0.4-0.4
	c0.8,0,1.6,0,2.3,0c0.5,0,0.6,0.2,0.6,0.6c0,2,0,4,0,5.9c0,0.3,0,0.7,0,1c0,0.8,0.7,1.5,1.5,1.5c0,0,0.1,0,0.1,0
	c0.8,0.1,1.5-0.5,1.5-1.3c0-0.1,0-0.2,0-0.3C85.6,189.7,85.6,188.5,85.6,187.4L85.6,187.4z"/>
<path d="M114,189c0-1.7,0-3.4,0-5.1c0-0.5,0.2-0.6,0.6-0.6c2.4,0,4.8,0,7.2,0c0.4,0,0.6,0.1,0.6,0.6c0,0.5,0,0.9,0,1.4
	c0,0.5-0.2,0.6-0.6,0.6c-1.4,0-2.7,0-4.1,0c-0.5,0-0.7,0.2-0.6,0.7c0,1.1,0,1.1,1.1,1.1c1.1,0,2.3,0,3.5,0c0.5,0,0.7,0.2,0.6,0.7
	c0,0.5,0,1,0,1.4c0,0.4-0.1,0.5-0.5,0.5c-1.4,0-2.7,0-4.1,0c-0.5,0-0.6,0.1-0.6,0.6c0,1.4,0,1.4,1.4,1.4c1.1,0,2.3,0,3.4,0
	c0.4,0,0.5,0.1,0.6,0.5c0.1,2.1,0.1,2.1-2,2.1s-3.9,0-5.9,0c-0.5,0-0.6-0.2-0.6-0.6C114,192.4,114,190.7,114,189z"/>
<path d="M94.8,193.1c-0.2,0-0.4,0-0.6,0c-1.1-0.2-1.9,0.1-2.1,1.3c-0.1,0.3-0.3,0.4-0.6,0.4c-0.8,0-1.6,0-2.4,0
	c-0.5,0-0.7-0.1-0.4-0.6c1.4-3.1,2.9-6.3,4.2-9.5c0.2-1,1.2-1.6,2.2-1.4c0.7-0.1,1.4,0.4,1.6,1.1c1.4,3.2,2.8,6.5,4.3,9.7
	c0.3,0.7,0.3,0.7-0.4,0.7s-1.5,0-2.3,0c-0.4,0.1-0.7-0.2-0.8-0.5c-0.4-1.2-0.5-1.2-1.7-1.2L94.8,193.1z M94.9,187l-0.1-0.1
	c-0.2,0.6-0.4,1.2-0.6,1.9c-0.3,0.6-0.4,1.3-0.5,1.9h2h0.1c0.3,0,0.3-0.1,0.3-0.4C95.7,189.3,95.3,188.1,94.9,187z"/>
<path d="M154.7,193.3c-1.6,1.6-3.9,2-5.9,1.2c-0.8-0.3-1.4-1.1-1.4-2c-0.1-1,0.3-1.9,1.2-2.5c0.7-0.4,1.4-0.6,2.2-0.8
	c1-0.3,1.9-0.6,2.9-0.9c0.6-0.2,1-0.7,1.1-1.4c0.1-0.5,0.1-1.1,0-1.6c0-0.6-0.5-1.1-1.1-1.2c-0.3,0-0.7,0-1,0
	c-1.4,0.2-1.7,0.5-1.5,1.9c0.1,1-0.2,1.5-1.1,1.5c-1.2,0.1-1.7-0.3-1.7-1.4c0-1.1,0.7-2,1.7-2.3c1.7-0.8,3.7-0.9,5.5-0.2
	c1.2,0.5,2,1.7,2,3c0,2,0,4,0,6c0,1.3,0.5,1.6,1.7,1.1c0.4-0.2,0.5-0.1,0.7,0.2c0.2,0.3-0.2,0.4-0.3,0.5c-1,0.6-2.2,0.7-3.3,0.3
	C155.4,194.5,154.9,194,154.7,193.3z M154.3,189l-2.4,0.8c-0.5,0.1-0.9,0.4-1.3,0.7c-0.9,0.8-0.9,2.1-0.2,2.9
	c0.1,0.1,0.2,0.2,0.3,0.3c1.2,0.6,2.6,0.1,3.2-1.1c0-0.1,0.1-0.2,0.1-0.3C154.3,191.3,154.4,190.1,154.3,189z"/>
<path d="M142.4,188.3c-1.1,0-2.2,0-3.3,0c-0.5,0-0.6,0.1-0.6,0.6c0.1,0.7,0,1.5,0.1,2.3c0.3,1.7,1.1,2.6,2.4,2.8
	c2.1,0.2,3.4-0.5,4-2.2c0.1-0.3,0.2-0.6,0.7-0.5c0.3,0.1,0.3,0.2,0.2,0.5c-0.5,1.6-1.9,2.8-3.6,3c-3,0.6-6-1.2-6.8-4.2
	c-0.7-3.3,1.4-6.6,4.7-7.3c0.2,0,0.4-0.1,0.5-0.1c2.6-0.4,5.1,1.3,5.5,3.9c0,0.2,0.1,0.4,0.1,0.6c0,0.4-0.1,0.5-0.5,0.5
	C144.7,188.3,143.5,188.3,142.4,188.3z M140.7,187.8h2c0.3,0,0.4-0.1,0.4-0.4c0.1-0.7,0-1.3-0.1-2c-0.1-0.6-0.6-1.1-1.2-1.3
	c-1.2-0.4-2.6,0.3-3,1.5c0,0.1,0,0.1-0.1,0.2c-0.1,0.4-0.2,0.9-0.3,1.3c-0.1,0.4,0,0.7,0.6,0.7C139.6,187.7,140.2,187.8,140.7,187.8
	L140.7,187.8z"/>
<path d="M178.9,188.3c-1.1,0-2.2,0-3.3,0c-0.4,0-0.6,0.1-0.6,0.6c0.1,0.8,0,1.5,0.1,2.3c0.4,3,3,3.2,4.9,2.4c0.8-0.3,1.4-1,1.6-1.9
	c0.1-0.4,0.3-0.6,0.7-0.4c0.4,0.2,0.1,0.5,0.1,0.7c-0.7,1.8-2.4,2.9-4.3,2.8c-3.2,0-5.7-1.9-6.1-4.7c-0.5-3.1,1.6-6.1,4.6-6.8
	c2-0.6,4.2,0.2,5.4,1.9c0.5,0.7,0.8,1.6,0.8,2.4c0,0.5-0.1,0.6-0.6,0.6C181.2,188.3,180,188.3,178.9,188.3z M177.4,187.8h1.1
	c1.4,0,1.4,0,1.4-1.5c-0.1-1.7-0.9-2.4-2.5-2.2c-0.9,0.1-1.6,0.8-1.8,1.6c-0.1,0.5-0.2,1-0.3,1.5c-0.1,0.4,0,0.6,0.4,0.5
	C176,187.7,176.8,187.8,177.4,187.8L177.4,187.8z"/>
<path d="M129,184.8c0.3-0.1,0.4-0.4,0.6-0.5c1.1-1.2,2.8-1.5,4.2-0.8c1,0.5,1.5,1.5,1.2,2.6c-0.1,0.5-0.6,0.8-1.1,0.9
	c-0.6,0.1-1.3,0.2-1.7-0.4c-0.2-0.3-0.2-0.7,0-1.1c0.2-0.4,0.4-0.8,0.1-1.1s-0.8-0.2-1.2,0c-1.1,0.6-1.8,1.6-1.9,2.8
	c-0.2,2.1-0.2,4.2-0.1,6.3c0,0.3,0.2,0.4,0.4,0.4c0.5,0,1,0,1.5,0c0.3,0,0.5,0.1,0.5,0.5s-0.1,0.5-0.5,0.5c-1.9,0-3.9,0-5.8,0
	c-0.4,0-0.4-0.2-0.5-0.5s0.1-0.5,0.5-0.5c1.2,0,1.2,0,1.2-1.2c0-2.6,0-5.1,0-7.7c0-0.6-0.2-0.9-0.8-0.8c-0.2,0-0.4,0-0.6,0
	c-0.3,0-0.3-0.2-0.3-0.4c0-0.2,0-0.4,0.3-0.4h3.7c0.3,0,0.3,0.2,0.3,0.4S129,184.5,129,184.8z"/>
<path d="M175.3,153.9c0,0.8,0,1.6,0,2.4c0,0.3,0,0.5-0.4,0.5c-0.4,0-0.4-0.2-0.4-0.5c0-1.1,0-2.2,0-3.3c0-0.2-0.1-0.5,0.3-0.5
	c0.4,0,0.7-0.2,0.9,0.3c0.3,0.9,0.7,1.8,1.1,2.9c0.4-1.1,0.7-1.9,1-2.7c0.2-0.5,0.5-0.6,0.9-0.5c0.4,0,0.3,0.5,0.3,0.7
	c0,1.1,0,2.1,0,3.1c0,0.3-0.1,0.5-0.5,0.5c-0.4,0-0.3-0.3-0.3-0.5c0-0.8,0-1.6-0.1-2.4l-0.8,2.4c-0.1,0.3-0.1,0.6-0.5,0.6
	c-0.4,0-0.4-0.3-0.5-0.6c-0.3-0.8-0.5-1.5-0.8-2.3L175.3,153.9z"/>
<path d="M172,155c0-0.2,0-0.5,0-0.7c0-1,0-1-1-1.1c-0.2,0-0.4-0.1-0.4-0.4c0-0.3,0.1-0.4,0.3-0.4h2.8c0.3,0,0.3,0.2,0.3,0.4
	c0,0.2-0.1,0.3-0.4,0.4c-1,0.1-1,0.1-1,1.1c0,0.7,0,1.4,0,2.2c0,0.3,0,0.4-0.4,0.4s-0.4-0.1-0.4-0.4C172.1,156.1,172,155.5,172,155z
	"/>
</svg>
