<?xml version="1.0" encoding="utf-8"?>
<!-- Generator: Adobe Illustrator 21.1.0, SVG Export Plug-In . SVG Version: 6.00 Build 0)  -->
<svg version="1.1" id="Layer_1" xmlns="http://www.w3.org/2000/svg" xmlns:xlink="http://www.w3.org/1999/xlink" x="0px" y="0px"
	 viewBox="0 0 250 250" style="enable-background:new 0 0 250 250;" xml:space="preserve">
<style type="text/css">
	.st0{fill:#016239;}
	.st1{fill:#EE3135;}
</style>
<title>Grocery</title>
<path class="st0" d="M131.1,110c0.8,3.6-1.5,5.2-4.1,6.7c3.7-0.8,7.5,0,10.5,2.3c2.4,1.8,4,4.4,4.6,7.3c1.5,6.7-2.8,13.4-9.6,14.8
	c-5.1,1.1-10.3-1.1-13.1-5.4c-3.7-5.9-2-13.6,3.8-17.4c-2.5-0.3-4.9-0.8-6.1-3.2c-0.5-1.1-0.7-2.3-0.5-3.5c0.7,1.5,2.2,1.3,3.4,1.5
	c1.4,0.1,2.8,0.6,3.8,1.5C125.1,111.1,128.2,110.7,131.1,110z"/>
<path class="st0" d="M218.1,113.4h4.7c0,0.4,0,0.8,0,1.2c0,5.2,0,10.5,0,15.7c0.1,5-3.3,9.5-8.2,10.7c-5.8,1.2-11.4-2.4-12.7-8.2
	c-1.2-5.8,2.4-11.4,8.2-12.7c0.7-0.1,1.4-0.2,2.1-0.2c1.8,0,3.6,0.5,5.2,1.5l0.8,0.4L218.1,113.4z M212.1,136.8
	c3.3,0.3,6.3-2.1,6.6-5.4c0.3-3.3-2.1-6.3-5.4-6.6c-0.4,0-0.8,0-1.1,0c-3.3,0.3-5.7,3.3-5.4,6.6
	C206.9,134.2,209.2,136.5,212.1,136.8z"/>
<path class="st0" d="M26.5,133.6c-1.7,5.7-7.7,9-13.4,7.4c-0.9-0.3-1.8-0.6-2.6-1.1c-3.5-2-5.5-5.8-5.2-9.8c0.4-6,5.6-10.4,11.6-10
	c6,0.4,10.4,5.6,10,11.6l0,0c0,0.5-0.2,0.8-0.8,0.8c-4.7,0-9.3,0-14,0c-0.6,0-0.9-0.2-0.9-0.8c0-0.7,0-1.4,0-2.1
	c0-0.5,0.3-0.8,0.9-0.8c3,0,6,0,9,0h0.9c-0.5-1.8-1.8-3.2-3.6-3.9c-3-1.1-6.3,0.2-7.7,3c-1.4,3-0.1,6.7,2.9,8.1
	c2.7,1.2,5.8,0.4,7.5-1.9c0.2-0.4,0.7-0.6,1.1-0.6C23.6,133.6,25,133.6,26.5,133.6z"/>
<path class="st0" d="M177.1,130.6c0,6-4.8,10.8-10.8,10.8s-10.8-4.8-10.8-10.8c0-6,4.8-10.8,10.8-10.8c0,0,0,0,0,0
	C172.2,119.9,177.1,124.7,177.1,130.6z M166.3,136.8c3.4,0,6.1-2.8,6.1-6.1c0-3.4-2.8-6.1-6.1-6.1c-3.3,0-6,2.7-6.1,6
	c0,3.4,2.6,6.1,6,6.2C166.2,136.8,166.2,136.8,166.3,136.8z"/>
<path class="st0" d="M61.8,119.9c5.9,0,10.7,4.9,10.7,10.8c0,5.9-4.9,10.7-10.8,10.7c-5.9,0-10.7-4.9-10.7-10.8c0,0,0-0.1,0-0.1
	C51.2,124.6,56,119.9,61.8,119.9z M61.8,136.7c3.4,0,6.1-2.8,6-6.1c0-3.4-2.8-6.1-6.1-6c-3.3,0-6,2.8-6,6.1
	C55.7,134,58.4,136.7,61.8,136.7C61.8,136.8,61.8,136.8,61.8,136.7L61.8,136.7z"/>
<path class="st0" d="M105.1,119.9c5.9,0,10.7,4.9,10.7,10.8c0,5.9-4.9,10.7-10.8,10.7c-5.9,0-10.7-4.9-10.7-10.8
	C94.3,124.7,99.2,119.9,105.1,119.9z M105.1,136.7c3.4,0.2,6.2-2.4,6.4-5.8c0.2-3.4-2.4-6.2-5.8-6.4c-0.2,0-0.4,0-0.6,0
	c-3.4-0.2-6.2,2.4-6.4,5.8c-0.2,3.4,2.4,6.2,5.8,6.4C104.7,136.7,104.9,136.7,105.1,136.7z"/>
<path class="st0" d="M200.1,130.7c0,6-4.8,10.8-10.8,10.8c-6,0-10.8-4.8-10.8-10.8c0-6,4.8-10.8,10.8-10.8
	C195.2,119.8,200.1,124.6,200.1,130.7C200.1,130.6,200.1,130.6,200.1,130.7z M189.3,136.8c3.4,0,6.1-2.7,6.1-6.1
	c0-3.4-2.7-6.1-6.1-6.1c-3.4,0-6.1,2.7-6.1,6.1c0,0,0,0,0,0C183.2,134,185.9,136.7,189.3,136.8z"/>
<path class="st0" d="M49.3,133.6c-1.4,5.1-6.5,8.4-11.7,7.7c-5.9-0.8-10-6.2-9.2-12.1c0.8-5.9,6.2-10,12.1-9.2
	c4.9,0.7,8.7,4.6,9.2,9.5c-0.8,0-1.5,0-2.3,0c-1.3,0.4-2.7-0.4-3.1-1.7c0,0,0,0,0,0c-1.2-2.5-4.1-3.7-6.7-2.9
	c-2.7,0.7-4.6,3.2-4.5,6c0,3.3,2.8,6,6.1,6c1.9,0,3.8-1,4.9-2.6c0.2-0.4,0.6-0.6,1-0.5C46.4,133.6,47.8,133.6,49.3,133.6z"/>
<path class="st0" d="M87.9,140.8c0-0.4,0-0.7,0-1c0-3.6,0-7.1,0-10.7c0-2.5-2-4.5-4.5-4.5c-0.9,0-1.8,0.3-2.5,0.8
	c-1.2,0.8-1.9,2.1-1.9,3.5c0,3.7,0,7.4,0,11c0,0.7-0.1,0.9-0.9,0.9c-1.3,0-2.5,0-3.8,0c0-0.3,0-0.6,0-0.8c0-3.6,0-7.2,0-10.8
	c0.1-5,4.2-9.1,9.3-9c4.3,0.1,7.9,3.1,8.8,7.2c0.1,0.4,0.1,0.9,0.1,1.3c0,3.7,0,7.4,0,11.2c0,0.2,0,0.4,0,0.7L87.9,140.8z"/>
<path class="st0" d="M224.7,134.8c1.5,0,2.9,0,4.2,0c0.2,0,0.4,0.3,0.5,0.5c0.8,1.4,2.5,2,4,1.4c0.8-0.3,1.3-1,1.3-1.8
	c0-0.9-0.6-1.3-1.3-1.5c-1-0.3-2-0.5-3-0.8c-1-0.3-2-0.8-3-1.3c-2.7-1.8-3.4-5.4-1.6-8.1c0.1-0.2,0.2-0.3,0.4-0.5
	c1.8-2.4,4.8-3.5,7.7-2.7c2.8,0.5,5,2.6,5.6,5.3c0.1,0.3,0.1,0.6,0.2,1c-1.5,0-2.9,0-4.3,0c-0.2,0-0.4-0.3-0.5-0.5
	c-0.8-1.5-2.7-2-4.2-1.2c-0.1,0.1-0.2,0.1-0.4,0.2c-0.8,0.5-1,1.5-0.5,2.3c0.2,0.3,0.5,0.5,0.8,0.6c0.9,0.4,1.9,0.7,2.8,0.9
	c0.6,0.2,1.2,0.3,1.8,0.5c3,0.8,4.9,3.8,4.1,6.9c-0.1,0.5-0.3,1-0.6,1.4c-1.5,2.9-4.7,4.4-7.9,3.9c-3.1-0.4-5.6-2.7-6.2-5.7
	C224.7,135.3,224.7,135.1,224.7,134.8z"/>
<path class="st0" d="M144.4,120.6h2.3c-0.3-2.6,0.9-5.1,3.1-6.5c1.5-1,3.4-1.4,5.2-0.9v4.4c-1.1-0.1-2.2,0.4-2.9,1.3
	c-0.3,0.6-0.6,1.2-0.8,1.8h3v4.7h-2.9v15.5h-4.6v-15.5h-2.3L144.4,120.6z"/>
<path class="st0" d="M242.3,119.8c-1.6,0-2.9-1.3-2.9-2.9c0-1.6,1.3-2.9,2.9-2.9c1.6,0,2.9,1.3,2.9,2.9c0,0,0,0,0,0
	C245.2,118.5,243.9,119.8,242.3,119.8C242.3,119.8,242.3,119.8,242.3,119.8z M242.2,119.5c1.5,0,2.7-1.1,2.7-2.6c0,0,0,0,0,0
	c0-1.5-1.1-2.7-2.6-2.7c-1.5,0-2.7,1.1-2.7,2.6C239.5,118.2,240.7,119.5,242.2,119.5C242.2,119.5,242.2,119.5,242.2,119.5
	L242.2,119.5z"/>
<path d="M242.3,119.8c-1.7,0-3-1.3-3-3s1.3-3,3-3s3,1.3,3,3S243.9,119.8,242.3,119.8z M242.3,114.2c-1.5,0-2.7,1.2-2.7,2.7
	c0,1.5,1.2,2.7,2.7,2.7s2.7-1.2,2.7-2.7C244.9,115.4,243.7,114.2,242.3,114.2z"/>
<path d="M240.7,118.6v-3.5h1.5c0.3,0,0.5,0,0.8,0.1c0.2,0.1,0.3,0.2,0.4,0.3c0.1,0.2,0.2,0.4,0.1,0.5c0,0.2-0.1,0.5-0.2,0.6
	c-0.2,0.2-0.4,0.3-0.7,0.3c0.1,0.1,0.3,0.2,0.4,0.3c0.1,0.2,0.3,0.4,0.4,0.6l0.4,0.7h-0.8l-0.5-0.8c-0.1-0.2-0.2-0.3-0.4-0.5
	c-0.1-0.1-0.1-0.1-0.2-0.1c-0.1,0-0.2,0-0.3,0h-0.1v1.5L240.7,118.6z M241.5,116.6h0.5c0.2,0,0.4,0,0.6,0c0.1,0,0.2-0.1,0.2-0.1
	c0-0.1,0.1-0.2,0.1-0.3c0-0.1,0-0.2-0.1-0.3c-0.1-0.1-0.2-0.1-0.3-0.1h-1.1V116.6z"/>
<circle class="st1" cx="130" cy="129" r="12.4"/>
</svg>
