<?xml version="1.0" encoding="utf-8"?>
<!-- Generator: Adobe Illustrator 21.1.0, SVG Export Plug-In . SVG Version: 6.00 Build 0)  -->
<svg version="1.1" id="Layer_1" xmlns="http://www.w3.org/2000/svg" xmlns:xlink="http://www.w3.org/1999/xlink" x="0px" y="0px"
	 viewBox="0 0 250 250" style="enable-background:new 0 0 250 250;" xml:space="preserve">
<style type="text/css">
	.st0{fill:#014B8D;}
	.st1{fill:#F47D2F;}
</style>
<title>Grocery</title>
<path class="st0" d="M201.1,176.4l-1-0.2c-3.7-0.8-6.2-4.2-6.1-8c0.1-1.9,0.8-3.7,2.1-5l0.2-0.3c-0.4,0-0.8,0-1.2-0.1
	c-4.5-0.7-7.6-4.9-6.9-9.4c0.3-2.1,1.5-4,3.2-5.3c1.2-0.9,2.7-1.4,4.3-1.3h27.1h12.3l4.3-33.8h-0.7h-16.4h-27.5h-7.1
	c-0.2,0-0.4-0.1-0.6-0.2l-11.4-8.9l-2.5-1.9c-0.6-0.3-0.8-1.1-0.5-1.7c0,0,0.1-0.1,0.1-0.1c0.4-0.6,0.8-1.1,1.3-1.5
	c0.6-0.4,1.4-0.3,1.9,0.2l2.5,2l9.6,7.4c0.2,0.1,0.4,0.2,0.6,0.2h20.1h9.7h23.1c1.2-0.1,2.2,0.7,2.3,1.9c0,0,0,0,0,0
	c0.2,1.1,0.2,2.1,0,3.2c-0.3,2-0.5,4-0.8,5.9c-0.3,2.3-0.6,4.6-0.9,6.9c-0.2,1.9-0.5,3.8-0.7,5.8l-0.8,6.4c-0.3,2.2-0.5,4.3-0.9,6.5
	c-0.1,1.4-0.3,2.9-0.8,4.2c-0.3,0.6-0.6,1.1-1,1.6c-0.2,0.3-0.6,0.4-0.9,0.4h-14.4h-25c-0.7,0-1.3,0-2,0.1c-1.9,0.2-3.3,2-3.1,3.9
	c0,0.1,0,0.2,0,0.3c0,1.4,0.9,2.7,2.2,3.3c0.4,0.2,0.9,0.3,1.3,0.3c1.2,0,2.4,0,3.5,0h21.9h3.7H243c0.9-0.1,1.6,0.6,1.8,1.4v1
	c-0.2,0.5-0.4,0.9-0.6,1.3c-0.1,0.2-0.4,0.4-0.6,0.3c-0.9,0-1.8,0-2.7,0h-1.3l0.3,0.4c2.9,3.3,2.5,8.2-0.7,11.1
	c-0.7,0.6-1.5,1.1-2.4,1.4c-0.7,0.2-1.4,0.4-2.1,0.5h-1.3l-0.6-0.1c-4.3-0.7-7.2-4.8-6.5-9.1c0.2-1.5,0.9-2.8,1.9-3.9l0.3-0.3h-20.9
	l0.4,0.4c2.8,3.3,2.5,8.2-0.8,11.1c-0.8,0.7-1.7,1.2-2.8,1.5c-0.5,0.2-1.1,0.3-1.7,0.4L201.1,176.4z M197.6,168.5
	c0,2.3,1.8,4.2,4.1,4.2c0,0,0,0,0,0c2.3,0,4.2-1.9,4.2-4.2c0-2.3-1.9-4.2-4.2-4.2C199.5,164.3,197.6,166.2,197.6,168.5
	C197.6,168.5,197.6,168.5,197.6,168.5L197.6,168.5z M229.6,168.5c0,2.3,1.9,4.2,4.2,4.2c2.3,0,4.2-1.9,4.2-4.2
	c0-2.3-1.9-4.2-4.2-4.2c0,0,0,0,0,0C231.5,164.3,229.6,166.2,229.6,168.5L229.6,168.5z"/>
<path class="st1" d="M210.7,75.8c0.3,0.1,0.5,0.3,0.8,0.3c0.4,0,0.7,0.3,0.9,0.6c0.1,0.2,0.4,0.2,0.5,0.4c0.9,1.1,0.9,2.6,0.2,3.7
	c-0.3,0.4-0.7,0.8-1.1,1.1c-0.6,0.4-1.4,0.6-2.1,0.4c-0.3-0.1-0.6-0.1-0.9-0.2c0-0.1,0.1-0.5-0.3-0.3c0,0-0.2,0-0.3-0.1
	c-1.1-0.8-1.6-2.3-1.1-3.6c0.3-1.1,1.3-2,2.4-2.1c0.1,0,0.2-0.1,0.3-0.2H210.7z"/>
<path class="st1" d="M4.8,143.5c0.1-0.9,0.3-1.8,0.4-2.7c0.1-0.9,0.3-1.4,0.4-2.1l0.6-3c0.1-0.6,0.2-1.2,0.3-1.8s0.2-1.6,0.4-2.3
	c0.2-1.2,0.4-2.4,0.6-3.6l0.6-3.6l0.8-4.3c0.1-0.7,0.3-1.3,0.4-2.1l0,0c0.5-0.8,0.3-1.7,0.5-2.5c0.2-1.1,0.4-2.1,0.6-3.2
	c0.1-0.7,0.2-1.5,0.4-2.2c0-0.2,0.1-0.4,0.1-0.6c0.1-0.1,0.2-0.2,0.4-0.3c0.1,0,0.2,0,0.3,0h27.9c-0.1,0.8-0.2,1.5-0.3,2.2
	c-0.2,1.3-0.5,2.8-0.8,4.2c-0.1,0.5-0.2,0.9-0.3,1.3c0,0.2-0.1,0.4-0.4,0.3H21.5c-0.8,0-0.8,0-0.9,0.8c-0.1,0.8-0.3,1.8-0.5,2.8
	c0,0.1-0.1,0.2-0.1,0.2c0,0.7-0.2,0.7,0.6,0.7h12.9c0.3,0,0.6,0.1,0.8,0.2c0.1,0,0,0.5,0,0.7c-0.2,1.1-0.4,2.2-0.6,3.4l-0.3,1.8
	l-0.4,2.1h-14c-0.5,0-0.6,0.1-0.6,0.6c-0.1,0.7-0.3,1.5-0.4,2.2c-0.1,0.7-0.2,1.4-0.4,2.1c0,0.2-0.1,0.3-0.1,0.5c0.1,0,0.2,0,0.3,0
	c0.9,0,1.7,0,2.6,0h14.6c0.5,0,0.6,0,0.5,0.6c-0.2,1-0.4,2.1-0.6,3.1c-0.1,0.8-0.3,1.6-0.4,2.5c-0.1,0.6-0.2,1.2-0.3,1.7
	c0,0.1-0.1,0.2-0.2,0.2c-0.1,0-0.2,0-0.4,0H5.2L4.8,143.5z"/>
<path class="st1" d="M103.5,119.4c-0.4,0-0.8,0.1-1.2,0.1h-9.1c-0.7,0-0.7,0-0.9-0.7c-0.1-0.5-0.4-1-0.8-1.2c-0.5-0.2-1-0.4-1.5-0.5
	c-1.6-0.4-3.3-0.3-4.9,0.3c-0.2,0-0.3,0-0.5,0c-0.1,0.2-0.2,0.3-0.3,0.5c-0.2,0.4-0.4,0.8-0.5,1.3c0,0.1,0,0.2,0.1,0.3
	c0.4,0.7,1,1.2,1.7,1.4c0.6,0.2,1.1,0.4,1.7,0.6c0.6,0.2,0.8,0.2,1.2,0.3c0.1,0,0.1,0,0.2,0c1,0.4,2.1,0.4,3.1,0.8
	c0.7,0.3,1.4,0.2,2.1,0.5c1.1,0.4,2.2,0.8,3.3,1.1c0.3,0.1,0.6,0.2,0.9,0.3c0.5,0.2,0.9,0.5,1.3,0.8c0.1,0.1,0.2,0.2,0.3,0.4
	c0.1,0.1,0.1,0.2,0.2,0.2c0.8,0.2,1.1,0.9,1.5,1.4c0.7,1,1,2.2,0.9,3.4c0,0.7-0.1,1.4-0.4,2.1c-0.3,0.7-0.4,1.5-0.7,2.2
	c-0.4,1-0.9,1.9-1.6,2.7c-0.7,0.8-1.4,1.5-2.1,2.2c-1.5,1.2-3.1,2.1-4.9,2.7c-1.4,0.5-2.7,0.8-4.1,1.1c-1.3,0.2-2.5,0.3-3.8,0.4
	c-1.3,0.1-2.6,0.1-3.9,0c-1.2-0.1-2.4-0.3-3.6-0.7c-1-0.3-2-0.7-2.9-1.2c-0.5-0.3-1-0.6-1.4-1c-0.3-0.2-0.6-0.4-0.9-0.7
	c-1.2-1.1-2-2.5-2.5-4c-0.3-1-0.4-2.1-0.4-3.2c0-0.2,0-0.5,0-0.7c0-0.1,0.1-0.2,0.2-0.2c0.2,0,0.3,0,0.5,0h9.9
	c0.7,0,0.9,0.1,0.9,0.9c0.1,0.7,0.5,1.3,1.1,1.7c0.8,0.6,1.7,1,2.6,1.1c1,0.1,1.9,0.1,2.9-0.1c0.9-0.1,1.7-0.4,2.5-0.8
	c0.7-0.4,1.2-1.1,1.2-1.9c0-0.5-0.2-0.9-0.5-1.2c-0.8-0.6-1.8-1.1-2.8-1.3l-4-0.9c-0.5-0.1-1.1-0.2-1.6-0.4
	c-0.9-0.3-1.8-0.4-2.7-0.7c-0.5-0.1-0.9-0.3-1.3-0.5c-0.6-0.3-1.2-0.4-1.7-0.8c-0.5-0.4-1.1-0.7-1.7-1.1c-0.9-0.7-1.5-1.6-1.9-2.7
	c-0.1-0.2-0.1-0.5-0.1-0.7c0-0.1-0.1-0.3-0.1-0.4c-0.1-0.7-0.1-1.4-0.1-2.2c0.1-1.2,0.5-2.4,1-3.5c0.9-1.9,2.3-3.5,4-4.6
	c0.3-0.2,0.7-0.2,0.9-0.5c0.7-0.6,1.5-1.1,2.4-1.3c1.5-0.7,3.1-1.1,4.8-1.3c1.7-0.2,3.3-0.4,5-0.4c1.8,0,3.5,0.2,5.2,0.6
	c0.7,0.2,1.3,0.6,1.9,0.7c0.9,0.3,1.8,0.7,2.6,1.3c1.4,1,2.5,2.5,3,4.2c0.4,1,0.6,2.1,0.5,3.3C103.6,118.9,103.6,119.2,103.5,119.4z
	"/>
<path class="st1" d="M150.2,140.8c-0.2,0.9-0.3,1.7-0.5,2.6c-0.2,0.8-0.3,1.3-0.4,2.1c-0.1,0.4-0.1,0.8-0.2,1.1
	c-0.2,1.2-0.4,2.3-0.6,3.5c-0.1,0.5-0.2,1-0.3,1.5c0,0.1-0.2,0.3-0.4,0.3c-0.2,0-0.3,0-0.5,0h-9.1h-0.4l0.4-1.8
	c0.1-0.5,0.2-1,0.3-1.5c0.1-0.5,0.2-1.2,0.3-1.8c0.1-0.8,0.3-1.6,0.5-2.4c0.2-1.2,0.4-2.3,0.6-3.5c0.3-1.5,0.6-3.1,0.9-4.6
	c0.1-0.9,0.3-1.8,0.5-2.7c0.1-0.6,0.2-1.1,0.3-1.7c0.3-1.5,0.6-3.1,0.9-4.6c0.3-1.5,0.5-2.7,0.7-4c0.1-0.7,0.3-1.3,0.5-2
	c0.1-0.4,0.1-0.7,0.2-1.1c0.1-0.2,0.2-0.4,0.3-0.6c0-0.1,0.1-0.2-0.1-0.3c-0.2-0.1,0.1-0.5,0.4-0.5h8.6c0.3,0,0.4,0.1,0.3,0.4
	c-0.2,1.2-0.5,2.3-0.7,3.5c0,0.1,0,0.2,0.1,0.2c0.1,0,0.1-0.1,0.2-0.1c0.4-0.5,0.9-1,1.3-1.5c0.4-0.4,0.8-0.7,1.3-0.9
	c0.3-0.1,0.5-0.3,0.7-0.5c0.2-0.1,0.3-0.2,0.5-0.3c0.4-0.2,0.9-0.5,1.3-0.7c1-0.4,2.1-0.6,3.3-0.6c0.6,0,1.2-0.1,1.8,0
	c2.3,0.1,4.5,1.2,6,2.9c0.4,0.4,0.7,0.9,0.9,1.3c0.3,0.5,0.5,1.1,0.7,1.6c0.2,0.6,0.3,1.1,0.4,1.7c0.1,1.3,0.2,2.5,0.1,3.8
	c-0.1,1.4-0.5,2.9-1,4.2c-0.1,0.3-0.2,0.6-0.3,0.9c-0.1,0.2-0.3,0.4-0.4,0.5c0.2,0.5-0.2,0.8-0.4,1.2c-0.1,0.2-0.2,0.4-0.4,0.7
	c-0.3,0.5-0.6,0.9-1,1.4c-0.5,0.7-0.1,0-0.1,0c-0.1,0.2-0.3,0.5-0.5,0.7c-0.4,0.4-0.8,0.8-1.2,1.1c-1.1,0.9-2.3,1.6-3.6,2.3
	c-0.8,0.4-1.5,0.6-2.3,0.8c-1.4,0.4-2.9,0.6-4.3,0.5c-1.4-0.1-2.8-0.6-3.9-1.5c-0.5-0.5-0.9-1-1.3-1.5L150.2,140.8z M154.3,126.5
	c0,0.1-0.1,0.2-0.1,0.3c-0.7,0.5-1.3,1.3-1.7,2.1c-0.3,0.6-0.5,1.2-0.7,1.9c-0.1,0.7-0.2,1.4-0.1,2.1c0,1,0.3,2,1.1,2.7
	c0.3,0.3,0.6,0.5,1,0.7c1.4,0.5,2.9,0.3,4.2-0.5c0.8-0.5,1.5-1.2,2-2.1c0.4-0.7,0.7-1.4,0.8-2.2c0.2-1,0.2-2.1,0-3.2
	c-0.1-0.8-0.6-1.4-1.3-1.8c-0.6-0.3-1.3-0.5-1.9-0.6c-0.4,0-0.8,0-1.3-0.1c0,0-0.1,0-0.1,0L154.3,126.5z"/>
<path class="st1" d="M124.8,140.5c-0.5-0.2-0.6-0.1-0.7,0.4c0,0.1-0.1,0.2-0.1,0.2c-0.9,0.9-1.9,1.7-3,2.2c-1,0.5-2,0.8-3.1,0.8
	c-0.6,0-1.3,0.1-1.9,0.1c-1.2-0.1-2.4-0.2-3.6-0.4c-0.6-0.1-1.2-0.3-1.8-0.5c-0.7-0.3-1.3-0.7-1.8-1.3c-0.5-0.5-1-1.2-1.3-1.9
	c-0.4-0.9-0.6-2-0.6-3c0-0.6,0-1.1,0-1.7c0-0.3,0.1-0.5,0.2-0.8c0-0.1,0-0.2,0-0.3c0-0.4,0-0.7,0.1-1.1c0.1-0.4,0.2-1.1,0.3-1.7
	c0.3-1.3,0.5-2.7,0.8-4c0.2-0.9,0.3-1.9,0.5-2.9c0.2-1.3,0.5-2.6,0.8-3.9c0.1-0.4,0.1-0.8,0.2-1.3c0.1-0.8,0.2-0.8,1-0.9
	s1.4,0,2.1,0h6.7c0.6,0,0.7,0,0.6,0.6c-0.2,1.1-0.3,2.2-0.5,3.3c0,0.1-0.1,0.2-0.2,0.3c-0.1,0.1-0.1,0.1-0.1,0.2
	c0.2,0.5,0,1-0.1,1.5c-0.2,1.2-0.5,2.4-0.7,3.6l-0.3,1.7c-0.1,0.6-0.2,1.1-0.3,1.7c-0.2,0.9-0.2,1.8-0.2,2.7
	c0.1,1.2,1.1,2.1,2.2,2.2c0.9,0.1,1.8,0,2.7-0.2c0.5-0.2,1-0.5,1.3-0.8c0.9-0.9,1.6-2,1.8-3.3c0.3-1.2,0.5-2.4,0.8-3.6
	c0.1-0.7,0.2-1.5,0.4-2.2c0.1-1,0.3-2,0.5-3c0.2-0.6,0.1-1.1,0.3-1.7c0.3-0.8,0.3-1.7,0.4-2.5c0-0.3,0.3-0.6,0.6-0.5h9.4h0.3
	c-0.1,0.7-0.2,1.4-0.3,2.1c-0.1,0.7-0.3,1.5-0.4,2.2c-0.2,1-0.4,2.1-0.6,3.1c-0.1,0.5-0.2,1.1-0.3,1.6s-0.3,1.2-0.4,1.8
	c-0.2,1.2-0.4,2.5-0.6,3.7c-0.2,1.2-0.4,2.1-0.6,3.2c-0.1,0.7-0.2,1.3-0.3,2.1c-0.1,0.7-0.2,1.1-0.3,1.7s-0.2,1-0.3,1.5
	c-0.1,0.5-0.2,1-0.3,1.6c0,0.2-0.2,0.3-0.4,0.3h-8.8c-0.3,0-0.4-0.1-0.3-0.3c0.1-0.7,0.2-1.4,0.4-2.1
	C124.6,140.9,124.7,140.7,124.8,140.5z"/>
<path class="st1" d="M194,136.1c0.2,0.1,0.4,0.1,0.6,0.1h8.5c0.2,0,0.5,0,0.7,0.1c-0.5,0.8-1,1.6-1.7,2.3c-0.5,0.4-0.9,0.9-1.3,1.3
	c-0.1,0.1-0.2,0.2-0.4,0.2c-0.2,0-0.4,0-0.4,0.3c0,0-0.1,0.1-0.1,0.1c-1.5,1.1-3.2,1.9-5,2.4c-0.5,0.2-1.1,0.4-1.7,0.5
	c-0.6,0-1.2,0.2-1.8,0.3c-1.2,0.1-2.4,0.2-3.6,0.3c-0.8,0-1.6-0.1-2.3-0.2c-0.6,0-1.2-0.2-1.8-0.3l0.3-0.1c-0.1,0-0.2-0.1-0.2-0.1
	c-0.6,0-1.1-0.1-1.6-0.4c-0.3-0.2-0.7-0.2-1-0.3c-0.7-0.3-1.4-0.7-2-1.1c-0.7-0.5-1.4-1.1-1.9-1.8c-0.5-0.6-0.9-1.3-1.2-2.1
	c-0.4-0.9-0.7-1.9-0.8-2.8c-0.1-0.8-0.1-1.7,0-2.5c0.1-1,0.3-1.9,0.6-2.8c0.3-1,0.7-1.9,1.2-2.8c0.7-1.1,1.4-2.1,2.3-3.1
	c0.7-0.7,1.5-1.4,2.3-2c0.8-0.6,1.6-1.1,2.5-1.6c0.7-0.3,1.4-0.6,2.2-0.9c0.7-0.3,1.3-0.5,2.1-0.7c0.4-0.1,0.7-0.2,1.1-0.2
	c0.8-0.1,1.6-0.2,2.4-0.2c0.8,0,1.5,0,2.3,0c0.9,0,1.8,0.2,2.7,0.4c1,0.2,2,0.5,3,1c1.1,0.5,2.1,1.2,2.9,2.1
	c0.5,0.6,0.9,1.1,1.3,1.7c0.2,0.4,0.4,0.8,0.6,1.3c0.1,0.2,0.2,0.3,0.3,0.5c0.4,1,0.7,2,0.7,3.1c0,1.1,0,2.3,0,3.4
	c0,0.4-0.1,0.8-0.2,1.2c-0.1,0.1-0.2,0.3-0.3,0.3c-0.2,0-0.4,0-0.6,0h-18.7c-0.1,0-0.3,0-0.4,0c-0.1,0-0.2,0.1-0.2,0.2
	c-0.2,1.3,0.3,2.6,1.2,3.5c0.5,0.5,1.1,0.9,1.8,1c0.5,0,1.1,0.2,1.6,0.3c0.5,0,0.9-0.1,1.3-0.3c0.5-0.1,1-0.3,1.4-0.6
	c0.5-0.3,0.9-0.7,1.3-1.1L194,136.1z M189.3,124.6l-0.7,0.4c-0.9,0.5-1.6,1.3-2.1,2.3c-0.3,0.5-0.1,0.9,0.5,0.9h8.5
	c0.1,0,0.2,0,0.4,0c0.1,0,0.2-0.1,0.2-0.2c0-0.4,0-0.8-0.1-1.2c-0.2-0.8-0.8-1.4-1.5-1.8c-0.7-0.4-1.5-0.6-2.3-0.6
	c-0.8,0-1.5,0.2-2.3,0.3L189.3,124.6z"/>
<path class="st1" d="M50.6,109.3h4.5c0.5,0,0.5,0,0.5,0.5c-0.2,1-0.4,2.1-0.6,3.1c-0.1,0.7-0.2,1.5-0.4,2.2c-0.2,1.3-0.5,2.7-0.7,4
	c0,0.3-0.1,0.6-0.2,0.9c-0.2,1-0.3,2.1-0.5,3.1c-0.2,1-0.4,2-0.6,3.1c-0.1,0.7-0.2,1.5-0.3,2.2c-0.1,0.7-0.3,1.9-0.5,2.8
	c0,0.1-0.1,0.2-0.1,0.3c0,0.1-0.1,0.2-0.1,0.3c0,0.7-0.1,1.5-0.3,2.2c-0.1,0.3-0.1,0.7-0.2,1.1c-0.1,0.8-0.2,1.5-0.4,2.3
	c0,0.4-0.1,0.8-0.2,1.2c-0.2,0.4-0.1,0.7-0.2,1.1s-0.1,0.9-0.2,1.3c-0.1,0.5-0.3,1.2-0.4,1.9c0,0,0,0.1,0,0.1
	c-0.1,0.6-0.1,0.6-0.7,0.6h-8.8c-0.6,0-0.6,0-0.5-0.7c0.2-0.7,0.2-1.3,0.4-1.9c0.2-1.2,0.4-2.4,0.7-3.7c0.2-0.9,0.3-1.8,0.5-2.7
	c0.2-1.3,0.5-2.5,0.7-3.7c0.1-0.5,0.1-1.1,0.3-1.7c0.1-0.5,0.3-1.3,0.4-2s0.1-1,0.2-1.5c0.1-0.8,0.3-1.6,0.4-2.4l0.4-2.3
	c0.2-1.1,0.4-2.1,0.6-3.1c0.1-0.3,0.2-0.6,0.3-0.8c0,0,0-0.1,0-0.1c-0.3-0.9,0.2-1.6,0.3-2.5c0.1-0.8,0.3-1.6,0.4-2.3
	c0.1-0.8,0.3-1.6,0.5-2.4c0-0.2,0.1-0.3,0.3-0.3L50.6,109.3L50.6,109.3z"/>
<path class="st1" d="M232.2,118.2c0,0.4-0.1,0.8-0.2,1.2c-0.2,0.9-0.4,1.8-0.6,2.8c-0.1,0.5-0.1,1-0.2,1.5c-0.2,1-0.4,2-0.6,3
	c-0.1,0.4-0.2,0.8-0.2,1.2c-0.1,0.4-0.1,0.3-0.4,0.2c-0.6-0.2-1.2-0.3-1.8-0.4c-0.4,0-0.8,0.1-1.2,0.2l-1.6,0.2
	c-0.1,0-0.2,0-0.3,0.1c-0.5,0.2-1.1,0.5-1.6,0.8c-0.3,0.2-0.6,0.6-0.9,0.8c-0.5,0.5-0.9,1.1-1.2,1.8c-0.6,1.3-1,2.7-1.1,4.1
	c-0.3,1.5-0.6,3-0.9,4.5c-0.1,0.4-0.1,0.8-0.2,1.2c-0.1,0.4-0.2,1.1-0.3,1.7c0,0.3-0.3,0.3-0.5,0.3h-9.4c-0.3,0-0.5-0.1-0.4-0.4
	c0.1-0.3,0.2-1,0.3-1.5s0.2-1.1,0.3-1.6s0.3-1.2,0.4-1.8c0.1-0.4,0.1-0.8,0.1-1.2c0.1-0.7,0.2-1.3,0.3-2l0.5-3l0.3-1.8
	c0.1-0.6,0.2-1.1,0.3-1.7c0.2-1.3,0.5-2.5,0.7-3.8c0.1-0.3,0.1-0.7,0.2-1.1c0.1-0.7,0.2-1.5,0.4-2.2c0-0.2,0.1-0.3,0.2-0.4
	c0-0.3,0-0.6,0.1-1c0.1-0.4,0.1-0.6,0.2-0.9c0.1-0.3,0.4-0.5,1-0.5c2,0,4,0,6.1,0c0.5,0,1.1,0.1,1.6,0.1c0.1,0,0.3,0,0.4-0.1
	c0.2,0,0.4,0,0.3,0.3c-0.3,1.3-0.5,2.7-0.8,4.1c0,0.2,0,0.3,0.1,0.5c0.9-1.9,2.4-3.5,4.2-4.6C228,118,230.1,117.7,232.2,118.2z"/>
<path class="st1" d="M207.9,105.8c0.6-0.5,1.2-1,1.7-1.5c1.1-1.1,2.2-2.2,3.3-3.4l2.1-2.2c0.2-0.2,0.6-0.2,0.6-0.6
	c0,0,0.2-0.1,0.3-0.1c1.5,0,3.1,0,4.6,0c0.2,0,0.4,0.1,0.5,0.2c1.2,1.2,2.3,2.3,3.5,3.5l3.5,3.5c0.1,0.1,0.2,0.2,0.3,0.2l-0.1,0.2
	h-0.7c-0.6,0-1.3,0-1.9,0c-0.5,0-1-0.2-1.3-0.6l-2.2-2.2l-3.3-3.3c-0.5-0.5-0.5-0.5-1,0c-2.1,2-4.1,4.1-6.2,6.1
	c-0.1,0.1-0.3,0.2-0.5,0.2c-0.9,0-1.9,0-2.8,0h-0.2L207.9,105.8z"/>
<path class="st1" d="M211.8,95.9c-0.8,0.8-1.5,1.6-2.3,2.4c-0.8,0.8-1.9,1.8-2.8,2.8c-0.9,0.9-1.5,1.5-2.3,2.3
	c-0.8,0.7-1.3,1.2-1.9,1.8c-0.3,0.3-0.5,0.6-0.8,0.9c-0.1,0.1-0.2,0.1-0.4,0.1h-2.9c-0.3,0-0.5,0-0.8,0c0-0.1,0-0.2,0-0.2
	c0.1-0.1,0.2-0.2,0.3-0.3c0.6-0.6,1.2-1.1,1.8-1.7c0.3-0.3,0.5-0.6,0.8-0.9s0.7-0.7,1-1l1-1c0.2-0.2,0.4-0.4,0.5-0.6
	c0.2-0.2,0.7-0.6,1.1-1c0.3-0.3,0.6-0.7,1-1l1.6-1.5c0.3-0.3,0.5-0.5,0.8-0.8c0.1-0.1,0.2-0.2,0.3-0.2L211.8,95.9
	C211.7,95.9,211.7,95.9,211.8,95.9z"/>
<path class="st1" d="M227.3,95.4c0.3,0,0.6,0,0.8,0c0.1,0,0.2,0.1,0.3,0.3c0.1,0.3,0.1,0.7,0.2,1c0.2,0.6,0.3,1.2,0.5,1.8
	c0,0.1,0,0.3,0.1,0.4c0.1,0.3,0.3,0.4,0.6,0.4c0,0,0,0,0,0c0.3,0,0.5-0.1,0.8-0.1h5.9c0.3,0,0.7,0,1,0c0.1,0,0.3,0.2,0.3,0.3
	c0,1.1,0,2.3,0,3.4c0,0.3-0.2,0.3-0.4,0.3c-1.9,0-3.9,0-5.8,0c-0.9,0-1.8-0.4-2.4-1.2c-0.6-0.7-1-1.6-1.1-2.5
	c-0.3-1.2-0.5-2.4-0.8-3.7C227.3,95.6,227.3,95.5,227.3,95.4z"/>
<path class="st1" d="M216,87.7c0.5,0.5,0.8,0.9,1.3,1.3c1,1,2,2,3,2.9c0.2,0.2,0.3,0.4,0.3,0.7c0,1.2,0,2.4,0,3.7
	c0,0.6-0.1,0.7-0.7,0.7h-7V97l0.9-1c0.6-0.7,1.2-1.3,1.9-1.8c0.6-0.5,0.5-1.1,0.4-1.7c0-0.1,0-0.2,0-0.3c0-1.4,0-2.8,0-4.2
	C216.1,87.9,216,87.8,216,87.7z"/>
<path class="st1" d="M208,85c0.9,0.9,1.8,1.9,2.7,2.8c0.4,0.5,0.9,0.9,1.3,1.3c0.2,0.2,0.4,0.4,0.6,0.6c0.1,0.1,0.2,0.3,0.2,0.5
	c0,1.3,0,2.7,0,4c0,0.2-0.1,0.3-0.3,0.3h-3.4c-0.2,0-0.5,0-0.7,0c-0.2,0-0.3-0.2-0.4-0.3c0-0.2,0-0.4,0-0.5c0-2.8,0-5.5,0-8.3
	C208,85.3,208,85.2,208,85L208,85z"/>
<path class="st1" d="M218.3,85.7c-0.5-0.1-0.9-0.2-1.3-0.3c-0.6-0.2-1-0.7-1.3-1.2l0,0c-0.1-0.4-0.2-0.8-0.3-1.1
	c-0.1-0.3-0.1-0.6,0-0.9c0.1-0.6,0.4-1.1,0.8-1.4c0.3-0.1,0.4-0.5,0.7-0.6c0.9-0.5,2.1-0.5,3,0.1c0.9,0.5,1.4,1.5,1.3,2.6
	c0,0.8-0.4,1.6-1,2.2C219.6,85.3,219,85.6,218.3,85.7z"/>
<path class="st1" d="M216.2,86.3c0.7,0,1.5,0,2.2,0c0.8-0.1,1.5,0.2,2,0.8c1.8,1.8,3.6,3.6,5.3,5.5l0.5,0.5h-0.4c-0.7,0-1.3,0-1.9,0
	c-0.6,0.1-1.2-0.2-1.6-0.7c-0.6-0.7-1.3-1.3-1.9-1.9l-4.1-4C216.3,86.4,216.3,86.4,216.2,86.3z"/>
<path class="st1" d="M197.7,87.9c0-1.4,1.1-2.6,2.6-2.7c1.5,0,2.8,1.2,2.8,2.7c0.1,1.5-1.1,2.7-2.5,2.8c0,0-0.1,0-0.1,0
	c-1.5,0-2.7-1.2-2.7-2.6C197.6,88,197.6,87.9,197.7,87.9z"/>
<path class="st1" d="M204,97.3l-5.3-5.5h0.5c0.9,0,1.9,0,2.8,0c0.2,0,0.4,0.1,0.6,0.2c1.1,1.1,2.1,2.1,3.2,3.2
	c0.2,0.2,0.2,0.3,0,0.5L204,97.3z"/>
<path class="st1" d="M198.3,93.4l1.8,1.8c0.1,0.1,0.2,0.1,0.3,0.2l1.3,1.2c0.1,0.1,0.1,0.1,0.1,0.2c0,0.8,0,1.6,0,2.5h-1.7
	c-0.5,0-1.1,0-1.6,0c-0.3,0-0.4-0.1-0.4-0.3c0-1,0-1.9,0-2.9c0-1,0-1.7,0-2.7L198.3,93.4z"/>
<path class="st1" d="M208.5,83.5c1,0,1.9,0,2.8,0c0.3,0,0.7,0.1,0.8,0.4c0.3,0.3,0.6,0.6,0.9,0.9c0.3,0.3,0.6,0.6,0.9,1
	c0,0,0.1,0.1,0.1,0.2l0.7,0.6c0,0.1,0,0.1,0,0.2c0,1,0,2,0,3h-0.1L208.5,83.5z"/>
<path class="st1" d="M200.7,100.8l-2.5,2.5c-0.8,0.8-1.6,1.6-2.5,2.4c-0.2,0.2-0.4,0.3-0.7,0.3c-0.6,0-1.2,0-1.9-0.1
	c-0.2,0-0.3,0-0.5,0c0.3-0.3,0.7-0.7,1-1l2.9-2.8c0.2-0.1,0.5-0.2,0.5-0.4c0.1-0.5,0.7-0.5,0.9-0.9c0,0,0.1-0.1,0.2-0.1h2.3
	C200.6,100.7,200.6,100.7,200.7,100.8z"/>
<path class="st1" d="M231.2,96.8c-0.9,0.1-1.7-0.6-1.7-1.5c0-0.1,0-0.2,0-0.3c0-1,0.8-1.8,1.8-1.8c1,0,1.8,0.8,1.8,1.8
	C233.1,96,232.3,96.8,231.2,96.8C231.2,96.8,231.2,96.8,231.2,96.8z"/>
<path class="st1" d="M230.9,104.6C230.9,104.6,230.9,104.4,230.9,104.6c0.1-0.4,0.1,0.1,0.1,0.1S230.9,104.7,230.9,104.6
	c0-0.1,0.1-0.2,0.2-0.2c0.2-0.1,0.5-0.1,0.7,0c0.3,0.2,0.4,0.6,0.2,1c-0.2,0.3-0.7,0.4-1.1,0.2C230.7,105.4,230.6,105.1,230.9,104.6
	z"/>
<path class="st1" d="M236.6,105.8c-0.5,0-0.8-0.3-0.8-0.6c0-0.5,0.3-0.8,0.8-0.8c0.3,0,0.6,0.3,0.7,0.6
	C237.3,105.5,237.1,105.8,236.6,105.8z"/>
<path class="st1" d="M224.7,95.1c0-0.5,0.2-0.7,0.7-0.7c0.4,0,0.6,0.4,0.6,0.7c0,0.4-0.3,0.7-0.7,0.7
	C225,95.8,224.7,95.5,224.7,95.1L224.7,95.1z"/>
<path class="st1" d="M201.8,169.7c-0.6,0-1.2-0.5-1.2-1.2c0-0.6,0.5-1.2,1.2-1.2c0.6,0,1.2,0.5,1.2,1.2
	C203,169.2,202.5,169.7,201.8,169.7z"/>
<path class="st1" d="M235,168.5c0,0.6-0.5,1.2-1.1,1.2c-0.6,0-1.2-0.5-1.2-1.1c0-0.6,0.5-1.2,1.1-1.2c0,0,0,0,0,0
	C234.4,167.4,235,167.9,235,168.5z"/>
</svg>
