<svg id="Layer_1" data-name="Layer 1" xmlns="http://www.w3.org/2000/svg" width="250" height="250" viewBox="0 0 250 250"><defs><style>.cls-1{fill:red;}.cls-2{fill:#f9e8a0;}.cls-3{fill:#414042;}</style></defs><title>iShop</title><circle class="cls-1" cx="92.24" cy="192.26" r="15.91"/><circle class="cls-1" cx="177.4" cy="192.26" r="15.91"/><path class="cls-2" d="M164.3,134.24c5.61,0,12.17-2.81,14-8.42l29.95-56.15a7,7,0,0,0,0-8.42,7.88,7.88,0,0,0-6.55-3.74H76.33L69.78,41.59H41.7V58.44H58.55L89.43,123,77.26,143.6c-.94,2.81-.94,5.61-1.87,7.49a16.77,16.77,0,0,0,16.84,16.84h102V151.09H96a2,2,0,0,1-1.87-1.87v-.94l7.49-14Z"/><path class="cls-3" d="M177.4,173.55a19.77,19.77,0,0,0-19.65,19.65,19.65,19.65,0,1,0,39.3,0h0A19.77,19.77,0,0,0,177.4,173.55Zm14,19.65a15,15,0,1,1-15-15,14.78,14.78,0,0,1,15,15Z"/><path class="cls-3" d="M210.15,60.31a9.83,9.83,0,0,0-8.42-4.68H78.2L71.65,39.72c-.94-.94-1.87-1.87-2.81-1.87H40.77c-.94,0-1.87.94-1.87,2.81V57.5a3,3,0,0,0,2.81,2.81h15l29,61.76L74.46,141.73a33.25,33.25,0,0,0-1.87,9.36,19.77,19.77,0,0,0,19.65,19.65h102a2,2,0,0,0,1.87-1.87V152a3,3,0,0,0-2.81-2.81H96L102.53,137H164.3c6.55,0,13.1-3.74,15.91-9.36l29.95-56.15Q213,64.52,210.15,60.31Zm-3.74,7.49-29.95,56.15c-1.87,4.68-7.49,7.49-12.17,7.49H101.6a3.27,3.27,0,0,0-1.87.94l-7.49,14v1.87A4,4,0,0,0,96,152h96.39v12.17H92.24a14.78,14.78,0,0,1-15-15c0-2.81.94-4.68.94-7.49l12.17-20.59v-1.87L60.42,56.57c0-.94-.94-.94-1.87-.94h-15V43.46H67.91l6.55,15.91a2,2,0,0,0,1.87,1.87h125.4c1.87,0,3.74.94,3.74,2.81C207.34,64.05,207.34,65.92,206.41,67.8Z"/><path class="cls-3" d="M92.24,173.55A19.77,19.77,0,0,0,72.58,193.2a19.19,19.19,0,0,0,19.65,19.65,19.77,19.77,0,0,0,19.65-19.65h0A19.19,19.19,0,0,0,92.24,173.55Zm15,19.65a15,15,0,1,1-29.95,0c0-8.42,7.49-15,15-15a14.78,14.78,0,0,1,15,15Z"/><path class="cls-3" d="M161.49,78.09H89.43a2.81,2.81,0,1,1,0-5.61h73a3,3,0,0,1,2.81,2.81c-.94,1.87-1.87,2.81-3.74,2.81Zm-13.1,16.84h-59c-1.87,0-2.81-.94-2.81-1.87a3,3,0,0,1,2.81-2.81h59.89a3,3,0,0,1,2.81,2.81,4.86,4.86,0,0,1-3.74,1.87Zm-14,16.84H89.43a2.81,2.81,0,0,1,0-5.61h45.86a3,3,0,0,1,2.81,2.81c-.94,1.87-1.87,2.81-3.74,2.81Z"/><path class="cls-3" d="M177.4,173.55a19.77,19.77,0,0,0-19.65,19.65,19.65,19.65,0,1,0,39.3,0h0A19.77,19.77,0,0,0,177.4,173.55Zm14,19.65a15,15,0,1,1-15-15,14.78,14.78,0,0,1,15,15Z"/><path class="cls-3" d="M210.15,60.31a9.83,9.83,0,0,0-8.42-4.68H78.2L71.65,39.72c-.94-.94-1.87-1.87-2.81-1.87H40.77c-.94,0-1.87.94-1.87,2.81V57.5a3,3,0,0,0,2.81,2.81h15l29,61.76L74.46,141.73a33.25,33.25,0,0,0-1.87,9.36,19.77,19.77,0,0,0,19.65,19.65h102a2,2,0,0,0,1.87-1.87V152a3,3,0,0,0-2.81-2.81H96L102.53,137H164.3c6.55,0,13.1-3.74,15.91-9.36l29.95-56.15Q213,64.52,210.15,60.31Zm-3.74,7.49-29.95,56.15c-1.87,4.68-7.49,7.49-12.17,7.49H101.6a3.27,3.27,0,0,0-1.87.94l-7.49,14v1.87A4,4,0,0,0,96,152h96.39v12.17H92.24a14.78,14.78,0,0,1-15-15c0-2.81.94-4.68.94-7.49l12.17-20.59v-1.87L60.42,56.57c0-.94-.94-.94-1.87-.94h-15V43.46H67.91l6.55,15.91a2,2,0,0,0,1.87,1.87h125.4c1.87,0,3.74.94,3.74,2.81C207.34,64.05,207.34,65.92,206.41,67.8Z"/><path class="cls-3" d="M92.24,173.55A19.77,19.77,0,0,0,72.58,193.2a19.19,19.19,0,0,0,19.65,19.65,19.77,19.77,0,0,0,19.65-19.65h0A19.19,19.19,0,0,0,92.24,173.55Zm15,19.65a15,15,0,1,1-29.95,0c0-8.42,7.49-15,15-15a14.78,14.78,0,0,1,15,15Z"/><path class="cls-3" d="M161.49,78.09H89.43a2.81,2.81,0,1,1,0-5.61h73a3,3,0,0,1,2.81,2.81c-.94,1.87-1.87,2.81-3.74,2.81Zm-13.1,16.84h-59c-1.87,0-2.81-.94-2.81-1.87a3,3,0,0,1,2.81-2.81h59.89a3,3,0,0,1,2.81,2.81,4.86,4.86,0,0,1-3.74,1.87Zm-14,16.84H89.43a2.81,2.81,0,0,1,0-5.61h45.86a3,3,0,0,1,2.81,2.81c-.94,1.87-1.87,2.81-3.74,2.81Z"/></svg>