<?xml version="1.0" encoding="utf-8"?>
<!-- Generator: Adobe Illustrator 21.1.0, SVG Export Plug-In . SVG Version: 6.00 Build 0)  -->
<svg version="1.1" id="Layer_1" xmlns="http://www.w3.org/2000/svg" xmlns:xlink="http://www.w3.org/1999/xlink" x="0px" y="0px"
	 viewBox="0 0 250 250" style="enable-background:new 0 0 250 250;" xml:space="preserve">
<style type="text/css">
	.st0{fill:#ED2124;}
	.st1{fill:#F8981D;}
	.st2{clip-path:url(#SVGID_2_);}
	.st3{clip-path:url(#SVGID_4_);}
	.st4{fill:#FFFFFF;}
	.st5{clip-path:url(#SVGID_6_);}
	.st6{clip-path:url(#SVGID_8_);}
	.st7{fill:#EB222C;}
</style>
<title>Dollar</title>
<circle class="st0" cx="40.1" cy="122" r="35.1"/>
<circle class="st1" cx="52.8" cy="109.4" r="12.6"/>
<g>
	<defs>
		<circle id="SVGID_1_" cx="40.1" cy="122" r="35.1"/>
	</defs>
	<clipPath id="SVGID_2_">
		<use xlink:href="#SVGID_1_"  style="overflow:visible;"/>
	</clipPath>
	<g class="st2">
		<path class="st1" d="M60.4,119.4c0,0,7.2,3.3,7.4,20.5l-3.7,23l-16.3-2.2l-8.6-2.9c0,0-5.1-33.5,6.7-37.8
			C45.9,120,52.6,112.9,60.4,119.4z"/>
	</g>
</g>
<g>
	<defs>
		<path id="SVGID_3_" d="M26.4,123.3L26.4,123.3c4.3-3,5.4-8.9,2.4-13.2c-3-4.3-8.9-5.4-13.2-2.4c-4.3,3-5.4,8.9-2.4,13.2
			c0.5,0.7,1.1,1.4,1.8,2l0,0c0,0-5.5,2.1-5.3,18.1c0,0-0.5,13.5,18.9,15.1C28.6,156,37.8,137,26.4,123.3z"/>
	</defs>
	<clipPath id="SVGID_4_">
		<use xlink:href="#SVGID_3_"  style="overflow:visible;"/>
	</clipPath>
	<g class="st3">
		<circle class="st4" cx="35.9" cy="120.8" r="35.1"/>
	</g>
</g>
<g>
	<defs>
		<path id="SVGID_5_" d="M43.9,138.9L43.9,138.9c2.3-1.2,3.8-3.6,3.8-6.3c-0.2-4.2-3.7-7.4-7.8-7.2c-3.9,0.2-7,3.3-7.2,7.2
			c0,2.8,1.8,5.4,4.4,6.5l0,0c-1.9,0.7-3.4,2.1-4.3,3.9v15.3c0.7,2.7,14.9-0.8,14.9-0.8v-14.1C47.5,141.2,43.9,138.9,43.9,138.9z"/>
	</defs>
	<clipPath id="SVGID_6_">
		<use xlink:href="#SVGID_5_"  style="overflow:visible;"/>
	</clipPath>
	<g class="st5">
		<circle class="st4" cx="38.4" cy="122.8" r="35.1"/>
	</g>
</g>
<g>
	<defs>
		<path id="SVGID_7_" d="M32.2,144.6L32.2,144.6c1.8-1.8,1.9-4.7,0.1-6.5c-1.8-1.8-4.7-1.9-6.5-0.1c-1.8,1.7-1.9,4.5-0.2,6.4l0,0
			c0,0-3.7,6.5-3.6,11c0,0,5.2,3.9,14.8,2.2C36.8,152.8,35.2,148.2,32.2,144.6z"/>
	</defs>
	<clipPath id="SVGID_8_">
		<use xlink:href="#SVGID_7_"  style="overflow:visible;"/>
	</clipPath>
	<g class="st6">
		<circle class="st1" cx="36.7" cy="122" r="35.1"/>
	</g>
</g>
<path class="st1" d="M70.5,155.9c-1.8,0-3.2-1.4-3.2-3.2c0-1.8,1.4-3.2,3.2-3.2c1.8,0,3.2,1.4,3.2,3.2l0,0
	C73.8,154.4,72.3,155.9,70.5,155.9z M70.5,149.9c-1.5,0-2.7,1.2-2.7,2.7s1.2,2.7,2.7,2.7c1.5,0,2.7-1.2,2.7-2.7
	C73.2,151.1,72,149.9,70.5,149.9L70.5,149.9z"/>
<path class="st1" d="M69.4,151.1c0.3,0,0.6,0,0.8,0c0.3,0,0.7,0.1,1,0.3c0.2,0.2,0.3,0.4,0.3,0.6c0,0.4-0.3,0.7-0.6,0.8l0,0
	c0.3,0.1,0.5,0.4,0.5,0.6c0.1,0.3,0.1,0.6,0.3,0.9h-0.4c-0.1-0.2-0.2-0.5-0.2-0.8c-0.1-0.4-0.3-0.6-0.7-0.6h-0.4v1.3h-0.4
	L69.4,151.1z M69.9,152.6h0.5c0.5,0,0.8-0.2,0.8-0.6s-0.3-0.6-0.8-0.6c-0.1,0-0.3,0-0.4,0L69.9,152.6z"/>
<polygon class="st7" points="80.5,122.5 80.5,84.1 99.2,84.1 99.2,94.3 92.2,94.3 92.2,97.3 100.5,97.3 100.5,108.8 92.7,108.8 
	92.7,122.5 "/>
<polygon class="st7" points="98.5,122.5 110.3,122.5 117,101.4 118.7,101.4 120.5,106.4 117.9,106.4 115.5,112 115.5,116.1 
	123.3,116.1 126.8,122.5 138.4,122.5 124.7,84.1 111.3,84.1 98.5,119.5 "/>
<polygon class="st7" points="134.9,107.4 141,122.5 144.6,122.5 146.6,104.9 148.4,104.9 155,117.7 156.6,117.6 163.4,104.9 
	164.9,104.9 166.8,122.5 177.7,122.5 173,84.1 161.8,84.1 156.8,93.9 154.8,93.9 148.7,84.1 138.7,84.1 "/>
<polygon class="st7" points="178.9,84.1 178.9,122.5 191.3,122.3 191.3,84.1 "/>
<polygon class="st7" points="193.6,84.1 193.6,122.3 214.4,122.3 214.4,111.1 205.8,111.1 205.8,84.1 "/>
<polygon class="st7" points="207.5,84.1 220.4,84.1 223.7,89.6 225.3,89.6 228.2,84.1 241.4,84.1 231.3,101.4 231.4,122.3 
	217.7,122.3 217.7,101.5 207.5,85.9 "/>
<path class="st1" d="M80.5,163.4v-31.7c0,0,0.3-2.3,4.9-2.3h13.7c0,0,12.1,0.9,12.4,16.3c0.3,15.4-11.9,18.1-11.9,18.1h-5l-0.1-12.1
	c0,0,5.1,0.3,5.1-6c0-6.3-7-4.8-7-4.8l-0.1,22.9H81.2C81.2,163.7,80.5,163.8,80.5,163.4z"/>
<path class="st1" d="M107.6,131.4l6.7,8.3c0,0,10.7-3,11.4,6.3c0.7,9.3-8.7,9.4-11,7l-7,9.1c0,0,8.8,7.7,22.1,0.9
	s13.6-34.3-9.2-35.6C120.5,127.5,112.1,126.8,107.6,131.4z"/>
<polygon class="st1" points="141.1,129.4 141.1,163.7 161,163.7 161,152.5 153.3,152.5 153.4,129.4 "/>
<polygon class="st1" points="163,129.4 163,163.7 182.8,163.7 182.8,152.5 175.1,152.5 175.3,129.4 "/>
<polygon class="st1" points="179.5,150.3 184.3,150.3 184.3,163.7 185.9,163.7 192.1,144.8 193.6,144.8 195.3,149 192.8,149 
	190.8,154.6 190.7,157.8 197.6,157.7 201,163.7 211.3,163.7 199,129.4 187,129.4 "/>
<path class="st1" d="M209,153.8l4.1,10h7.4v-24.3c0,0,0-0.7,1.9-0.7c1.9,0,2,1.7,1.6,2.9c-0.4,1.2-1.9,0.8-1.9,0.8l-0.1,7.1
	c0,0,3.2-0.3,3.3,1.3c0.1,1.6,0,12.8,0,12.8h11.9v-16.1c0,0,0.2-2.8-4-3.7c1.7-1.7,2.6-4,2.6-6.4c0-4-2.7-8.9-10.4-9
	c-7.7-0.2-14.7-0.2-16.4,3.8L209,153.8z"/>
<path class="st1" d="M241.8,163.7c-1.8,0-3.2-1.4-3.2-3.2s1.4-3.2,3.2-3.2s3.2,1.4,3.2,3.2l0,0C245,162.3,243.6,163.7,241.8,163.7z
	 M241.8,157.8c-1.5,0-2.7,1.2-2.7,2.7s1.2,2.7,2.7,2.7c1.5,0,2.7-1.2,2.7-2.7C244.4,159,243.2,157.8,241.8,157.8L241.8,157.8z"/>
<path class="st1" d="M240.7,159c0.3,0,0.6,0,0.8,0c0.3,0,0.7,0.1,1,0.3c0.2,0.2,0.3,0.4,0.3,0.6c0,0.4-0.3,0.7-0.6,0.8l0,0
	c0.3,0.1,0.5,0.4,0.5,0.6c0.1,0.3,0.1,0.6,0.3,0.9h-0.4c-0.1-0.2-0.2-0.5-0.2-0.8c-0.1-0.4-0.3-0.6-0.7-0.6h-0.4v1.3h-0.4L240.7,159
	z M241.1,160.4h0.4c0.5,0,0.8-0.2,0.8-0.6c0-0.4-0.3-0.6-0.8-0.6c-0.1,0-0.3,0-0.4,0V160.4z"/>
</svg>
