<?xml version="1.0" encoding="utf-8"?>
<!-- Generator: Adobe Illustrator 21.1.0, SVG Export Plug-In . SVG Version: 6.00 Build 0)  -->
<svg version="1.1" id="Layer_1" xmlns="http://www.w3.org/2000/svg" xmlns:xlink="http://www.w3.org/1999/xlink" x="0px" y="0px"
	 viewBox="0 0 250 250" style="enable-background:new 0 0 250 250;" xml:space="preserve">
<style type="text/css">
	.st0{fill:#EB1038;}
	.st1{fill:#2DB342;}
	.st2{fill:#F8C81E;}
	.st3{fill:#FFFFFF;}
	.st4{fill:#020102;}
</style>
<title>Grocery</title>
<path class="st0" d="M33.6,93.8c0.1,1-0.2,2-0.9,2.7c-0.6,0.9-1.3,1.8-1.9,2.8c-0.2,0.4-0.4,0.9-0.5,1.3l4.1,0.3
	c5.9,0.4,11.9,0.7,17.9,1.1c2.9,0.2,5.7,0.7,8.6,1c3.9,0.5,7.7,1,11.6-0.1c1-0.3,2-0.7,3-1.1l0.2,0.3c-0.8,0.9-1.7,1.7-2.6,2.4
	c-3,1.9-6.4,3.2-9.9,3.8c-7,1.3-14.2,2-21.3,2c-3.7,0.1-7.5,0.1-11.2,0.1c-0.6,0-0.8,0.2-0.7,0.8c0.7,4.7,2.3,9.2,4.6,13.3
	c0.3,0.4,0.7,0.6,1.1,0.6c3,0.2,6,0.3,8.9,0.4c1.9,0.1,3.7,0.4,5.7,0.6c-0.5,1.1-1.4,1.9-2.5,2.3c-1.4,0.5-2.8,0.8-4.2,1
	c-1.9,0.2-3.8,0.3-6,0.4c0.3,0.5,0.4,0.9,0.6,1.3c2.6,4.5,3.8,9.6,3.5,14.8c-0.4,3.6-1.7,7-3.9,9.9c-3.2,4.4-7.3,8.1-12,10.9
	c-0.7,0.5-0.9,0-1.2-0.5l-4-9.1l-4.4-10c-0.1-0.3-0.2-0.6-0.3-1c0.4,0,0.7,0,0.9,0c3.1,0.3,6-1.6,7-4.5c0.9-2.3,1.3-4.7,1.1-7.2
	c0-1-0.1-1.9-0.2-2.9c-0.2-1.5-0.3-1.6-1.8-1.4c-2.9,0.3-5.9,0.2-8.8-0.4c-2.9-0.5-5.5-1.9-7.4-4.2c1.5-0.1,2.9-0.2,4.2-0.2
	c3.9-0.1,7.8-0.2,11.7-0.2c1,0,1.2-0.3,1-1.3c-0.8-4.2-1.1-8.5-1-12.7c0-0.9-0.2-1.3-1.2-1.3c-4.9-0.5-9.7-1.5-14.4-3.1
	c-0.6-0.3-1.1-0.7-1.6-1.1c0.4-0.4,0.9-0.8,1.4-1.2c3.4-1.7,7.2-2.8,11-3.1c2.3-0.3,4.7-0.3,7-0.6c0.5-0.1,1-0.5,1.3-0.9
	c1.5-2.4,3.6-4.3,6.2-5.6c0.3-0.1,0.5-0.2,0.8-0.3C33.2,93.9,33.4,93.9,33.6,93.8z"/>
<path class="st0" d="M176.1,148.3l-6.3,8c-0.7,0.9-1.4,1.8-2.1,2.7c-0.3,0.6-1,0.8-1.7,0.6c-1.8-0.4-3.4-1.5-4.4-3.1
	c-0.2-0.3-0.4-0.7-0.7-1.1l-0.8,0.9c-2.9,3.3-6.5,5.1-10.9,4.2c-4.4-0.9-6.5-4-7.3-8c-1.4-4.9,0.6-10.2,4.9-13c3.4-2.4,7-4.6,10.4-7
	c1.3-0.9,2.4-1.9,3.5-3.1c1.3-1.3,1.8-3.2,1.2-5c-0.3-1.1-1.3-2-2.5-2.1c-1.1-0.1-2.2,0.5-2.7,1.6c-0.7,1.5-1.2,3.1-1.7,4.7
	c-0.5,2.9-3.3,4.8-6.2,4.3c-0.6-0.1-1.2-0.3-1.8-0.7c-2-1.2-3.1-3.6-2.5-5.9c0.9-4.9,4-7.8,8.5-9.4c3.4-1.4,7.3-1.2,10.5,0.6
	c2.9,1.6,4.8,4.6,5,7.9c0.4,3.6,0.7,7.2,1,10.8c0.1,3.3,1,6.6,2.7,9.4C173.1,147.1,174.5,148,176.1,148.3z M159.5,137.3
	c-0.3,0-0.5,0-0.7,0.1c-2.3,1.7-4.6,3.3-6.8,5.1c-0.6,0.6-1.1,1.4-1.3,2.3c-0.5,1.5,0.3,3.1,1.7,3.6c1.9,0.5,3.9-0.3,4.9-2.1
	C159.2,143.7,159.1,140.5,159.5,137.3z"/>
<path class="st0" d="M132,99c0.9,0.9,1.4,2,1.5,3.3c0,1.3-0.1,2.7-0.3,4c-0.2,1.4-0.1,1.6,1.4,1.7c4.7,0.1,9.3,0.7,13.9,1.6
	c1.2,0.3,2.3,0.6,3.5,0.9v0.4c-1.1,0.4-2.2,0.7-3.3,1c-4.6,0.9-9.2,1.3-13.8,1.3c-0.4,0-0.7,0-1.1,0c-2.4,0.2-2.4,0.2-2.9,2.5
	c-1.5,6.1-2.2,12.3-2,18.5c0,2.5,0.4,5,1.3,7.4c0.9,2.1,2.1,3,4,2.9c1.3-0.1,2.4-0.8,3.1-2c0.8-1.5,1.5-3.1,2.1-4.7
	c0.1-0.3,0.2-0.6,0.3-1h0.3c0.2,0.8,0.4,1.6,0.5,2.4c0.2,3,0,6-0.7,9c-0.5,2.9-1.6,5.7-3.1,8.2c-1.2,2.2-3.2,3.8-5.6,4.4
	c-1.8,0.4-3.8-0.3-4.9-1.8c-2-2.5-3.3-5.5-3.7-8.6c-1-6.3-1-12.6-0.1-18.9c0.6-5.8,1.7-11.5,3.1-17.1c0.3-1.2,0.2-1.3-1.1-1.3
	c-4.7,0-9.4,0-14.1-0.2c-3.4,0-6.8-0.5-10.1-1.6c-0.7-0.3-1.3-0.6-2-1l0.1-0.4c0.8-0.2,1.6-0.4,2.3-0.5c6.6-1,13.3-1.6,20-1.7
	c2,0,4-0.1,5.9-0.1c0.7,0,1.3-0.4,1.5-1.1c0.9-2.1,2-4.2,3-6.3C131.4,99.7,131.6,99.3,132,99z"/>
<path class="st0" d="M100.1,140c0.9,1.5,1.6,2.9,2.5,4.1c0.5,0.7,1.1,1.4,1.9,1.9c0.7,0.6,1.8,0.5,2.3-0.2c0.3-0.3,0.4-0.8,0.4-1.2
	c0-1.1-0.4-2.2-1-3.1c-1.3-1.8-2.9-3.3-4.3-5c-1.9-2.2-3.8-4.5-4.4-7.5c-1-4.9,2.1-9.8,7-10.9c4.9-1.2,10,0.3,13.5,3.9
	c1.9,1.8,2.9,4.3,2.7,6.8c-0.1,1.8-1.5,3.3-3.3,3.6c-2.8,0.7-5.6-0.9-6.3-3.6c-0.1-0.5-0.2-1.1-0.2-1.6c0.1-1.6-0.4-3.1-1.3-4.3
	c-1.1-1.4-3-1.8-4.5-0.9c-1.6,0.9-2.2,2.8-1.3,4.4c0.7,1.2,1.6,2.2,2.6,3.1c3.1,2.9,6.5,5.5,9.5,8.6c2.8,2.8,4.2,6.8,3.6,10.8
	c-0.8,6.6-6,12-13.6,11.1c-5-0.6-8.7-3.4-11.9-7c-0.2-0.3-0.3-0.7-0.2-1.1C95.7,147.9,97.8,144,100.1,140z"/>
<path class="st0" d="M82.7,142.6c4,3.4,8,3.4,12.6,1.3c-0.7,1.4-1.3,2.5-1.9,3.7c-2.2,3.9-4.4,7.9-6.5,11.8
	c-0.3,0.6-0.6,0.9-1.3,0.7c-6-2-11.1-5.3-14.1-10.9c-2.1-3.8-2.9-8.2-2.3-12.5c0.5-5.4,2.9-10.4,6.7-14.2c2.8-3,6.8-4.5,10.9-4.3
	c4.6-0.1,8.4,3.7,8.5,8.3c0,0.5,0,0.9-0.1,1.4c-0.7,6.8-4.7,11.1-10.5,14C84.1,142,83.5,142.2,82.7,142.6z M79.1,132.4
	c0.2,1.2,0.3,2.5,0.5,3.7c0.2,1.2,0.6,1.2,1.5,0.5c0.6-0.4,1.1-0.9,1.6-1.3c2.1-1.9,3.7-4.4,4.4-7.1c0.6-1.5-0.2-3.3-1.7-3.8
	c-0.5-0.2-1-0.2-1.5-0.2c-1.1,0.1-2.1,0.7-2.8,1.7C79.8,127.7,79,130,79.1,132.4L79.1,132.4z"/>
<path class="st0" d="M58.7,160.3c-0.3-0.4-0.5-0.6-0.7-0.9c-4.8-6.8-7.6-14.7-8.3-22.9c-0.2-2.3,0-4.5,0.7-6.7
	c1.6-4.4,5.5-6,9.5-5.4c4.7,0.6,7.1,3.3,7.8,8c0.3,3.7,0,7.5-1,11.1c-1.3,5.7-3.7,11.1-7,15.8C59.3,159.6,59,159.9,58.7,160.3z"/>
<path class="st0" d="M58.4,121.8c-2.3,0.1-4.6-0.6-6.5-2c-1.4-0.9-1.8-2.7-1-4.1c0.2-0.4,0.5-0.7,0.9-0.9c1.1-0.8,2.3-1.4,3.7-1.8
	c3.1-0.9,6.5-0.5,9.3,1.2c2.7,1.7,2.7,4.2,0.1,6C63,121.4,60.7,122,58.4,121.8z"/>
<path d="M198.3,117.7c-0.4-0.2-0.8-0.5-1.1-0.9c-1.1-1.1-0.9-2.1,0.6-2.6c1.5-0.5,2.6-1.6,3.1-3.1c0.6-1.9,0.9-4,1.3-6
	c0-0.4,0-0.8,0-1.1c0.7,0.2,1.3,0.4,1.8,0.6c0.2,0.1,0.5,0.4,0.5,0.6c-0.2,3-0.4,6-2.5,8.4c-0.7,0.6-1.4,1.2-2.2,1.7
	c0.6,0.2,1.1,0.3,1.7,0.3c2.6,0,5-1.2,6.6-3.2c1.7-2,2.8-4.5,3.1-7.1c0-0.5,0.1-0.9,0.2-1.3l0.3-0.1c0.9,1.3,1.7,2.7,2.5,4.1
	c1.3,2.9,0.3,6.1-2.4,8.5l-11.7,1.9c-0.4,0.1-1.5,0.3-2.1-0.1c-0.7-0.6-1.4-1.3-1.9-2c-0.7-1.2-0.3-2.1,1-2.4
	c1.2-0.3,2.2-1.1,2.8-2.2c1.2-2.3,1.7-5,1.6-7.6c0-0.2-0.1-0.5-0.3-0.6c-1.4-0.9-2.9-1.7-4.4-2.4c-2.6-1-4.2,0-4.8,2.8
	c-0.2,1-0.2,2.1-1.5,2.3c-1,0.2-1.7-0.4-2.3-1.9c-1.7-4.6-2.2-9.3,0-13.8c2.2-4.5,6-6.6,10.7-7.4c2.9-0.6,5.9-0.2,8.7,1
	c0.5,0.2,1,0.2,1.4,0.1c7.4-2.1,16.3,3.4,17.4,11.1c0.5,4-0.3,8.1-2.2,11.7c-2.2,4.1-6.1,6.7-10.8,8.1"/>
<path class="st0" d="M198.5,99.5c0-8.7,6.5-15.7,14.6-15.7c8,0,14.6,7,14.6,15.7s-6.5,15.7-14.6,15.7"/>
<path d="M213.1,115.2V115c8,0,14.4-7,14.4-15.6s-6.5-15.6-14.4-15.6c-8,0-14.4,7-14.4,15.6h-0.2c0-8.7,6.6-15.8,14.7-15.8
	s14.7,7.1,14.7,15.8S221.2,115.2,213.1,115.2z"/>
<path class="st1" d="M211.5,116.9c-0.4,0.5-0.1,2.5-0.2,3.4c0.4-0.1,0.6-0.1,0.8-0.3c2.3-2.2,5.2-2.7,8.3-2.7c2.7,0,5.3-0.9,7.5-2.5
	c0.7-0.5,0.9-0.9,0.3-1.7c-1.2-1.5-1.9-3.4-1.8-5.3c0.1-0.7,0.3-1.3,0.5-1.9c0.1-0.3,0.5-0.5,0.8-0.7c0.2,0.3,0.4,0.5,0.6,0.8
	c0.7,0.9,1.3,1.8,2,2.7c0.1,0.1,0.4,0.2,0.7,0.4c0.2-0.5,0.3-1,0.3-1.5c-0.3-1.9-0.7-3.7-1.1-5.6c-0.9-2.6-0.9-5.4-0.1-8
	c0.6-1.7,1.8-3.1,3.4-3.9c0.6-0.3,1.2-0.7,1.8-1.2c2.2-1.9,5.2-2.6,8-1.8c0.4,0.1,0.9,0.4,1.2,0.7c0.9,0.7,0.8,1.6-0.3,2
	c-5.7,2.4-8.4,7.1-8.9,13c-0.2,3.5-0.2,7,0,10.4c0.3,3.7-0.4,7.4-2,10.8c-0.6,1.5-1.8,2.8-3.2,3.6c-0.3,0.1-0.5,0.2-0.8,0.3l0.3,0.4
	h1.6c0,0.4,0,0.8-0.2,1.1c-1.2,1.6-3,2.6-4.9,2.7l-1.9,0.2c0.3,0.7,1,1.7,0.8,1.8c-0.6,0.5-1.2,0.9-2,1c-1.7,0.4-3.5,0.3-5.1-0.2
	c-0.4-0.1-0.8-0.1-1.5-0.2c0.2,0.3,0.4,0.7,0.6,1c1.6,1.6,3.2,3.2,4.9,4.7c0.5,0.4,0.9,0.3,1.3-0.2c3.7-5.1,9.1-6.5,15.1-6.7
	c0.1,0,0.2,0,0.3,0c0,0,0.1,0.1,0.3,0.2c-2.5,3.7-6.2,6.4-10.5,7.5c3.1-0.1,6.2,0.9,8.7,2.7c-3.2,1.6-6.4,1.3-9.7,0.8
	c1.8,1.2,3.3,2.9,4.3,4.9c-1.9,0-3.7-0.8-5-2.2c-1-1-1.7-2.2-2.7-3.2c-0.3-0.3-0.6-0.5-1-0.7c-0.2,0.4-0.7,0.9-0.7,1.3
	c0.2,2.1-0.4,4.2-1.7,5.9c-0.8,1-0.6,2.4,0.3,3.2c0.3,0.2,0.6,0.4,0.9,0.4c2.1,0.8,4.1,1.9,6.1,2.8c0.3,0.2,0.6,0.4,0.8,0.7
	c0.5,0.5,0.5,1.4,0,1.9c0,0-0.1,0.1-0.1,0.1c-0.5,0.3-1.1,0.4-1.6,0.2c-0.9-0.4-1.7-0.8-2.6-1.3l0.2,0.8l-2.5-2.4l0.2-0.2
	c0.3,0.2,0.5,0.4,0.8,0.6c1.3,0.8,2.7,1.6,4.2,2.2c0.4,0.1,0.8,0,1.1-0.2c0.2-0.4,0.2-0.8,0.1-1.2c-0.2-0.4-0.5-0.6-0.8-0.8
	c-2.1-1-4.2-1.9-6.3-2.8c-0.4-0.1-0.9,0-1.5,0.1l-0.1-3.3l-2.4-0.2l-0.2,2.5c-1.7,0-3.2,0-4.7,0c-0.6,0-1.2,0.5-1.2,1.1
	c0,0.1,0,0.1,0,0.2c0.1,0.4,0.6,0.8,1,1.2c0.2,0.1,0.5,0.2,0.7,0.2c2.4,0.5,4.7,1.5,6.8,2.9c1.5,1.1,2.8,2.3,4.3,3.4
	c0.4,0.3,1,0.4,1.5,0.3c0.6-0.4,0.4-1,0.1-1.6s-0.6-1.2-0.9-1.8c0.6,0.7,1.1,1.4,1.5,2.2c0.1,0.5,0,1.1-0.3,1.5
	c-0.4,0.3-1,0.3-1.4,0.1c-0.9-0.6-1.7-1.2-2.5-1.9c-2.7-2.3-5.9-4-9.3-4.8c-2-0.5-2.4-1.5-1.2-3.5c-1.3,0.3-2.7,0.5-4,0.8
	c-2.2,0.6-4.2,1.7-5.8,3.1c-0.4,0.4-0.9,0.7-1.5,0.9c-1.3,0.5-2.2-0.2-1.9-1.5c0.3-0.7,0.6-1.4,1.1-1.9c0.3-0.4,0.6-0.8,0.7-1.3
	c-0.7,0.1-1.4,0.3-2.2,0.4c-0.4,0.1-0.9,0.1-1.3,0c-0.4-0.2-0.9-0.6-1-0.9c-0.1-0.5,0.1-1,0.5-1.4c0.7-0.5,1.5-0.9,2.4-1.1
	c1.9-0.5,4-0.8,6-1.1c0.2-0.8,0-1.6-0.5-2.2c-1.2-1.4-1.8-3.1-1.8-5c0.1-1.5-0.5-2.9-1.6-3.9c-1-0.9-1.9-1.8-2.7-2.9
	c-0.4-0.4-0.9-0.6-1.5-0.4c-1.3,0.2-2.5,0.4-3.8,0.4c-0.4,0-1-0.2-1.1-0.5c0-0.2,0.2-0.8,0.4-1.3c0.2-0.2,0.3-0.4,0.3-0.7
	c-0.3,0.1-0.5,0.1-0.8,0.1c-1.2,0-2.5,0.2-3.7,0.1c-0.4-0.1-0.8-0.3-1.1-0.7c-0.1-0.2,0.3-0.7,0.6-1c0.2-0.2,0.4-0.4,0.5-0.6
	c-1.1,0.2-2.2,0.3-3.3,0.4c-1.9-0.2-3.6-1.2-4.6-2.8c-1.3-1.8-2.5-3.8-3.6-5.7c-1.6-3-4.1-5.5-7.2-7.1c-0.9-0.4-0.8-0.9-0.3-1.5
	c0.6-0.7,1.5-1.1,2.4-0.9c1.3,0.2,2.5,0.9,3.3,1.9c0.5,0.8,1.1,1.6,1.7,2.3c0-0.4-0.1-0.8-0.2-1.1c-0.5-1.1-1-2.2-1.5-3.3
	c-0.4-0.9-0.1-1.6,0.8-1.4c1,0.2,2,0.5,2.9,1c0.5,0.3,0.8,0.5,1.3,0.1c0.3-0.2,0.7-0.3,1-0.3c1,0,1.2,0.3,1.1,1.3
	c-0.1,1.1-0.1,2.2,0.1,3.3c0.1,0.5,0.6,1,1,1.4c0.3,0.5,0.6,0.5,0.7,0.8c0.3,1.2,1.2,1.3,2.1,1.6c2.2,0.5,4.5,0.4,6.7-0.2
	c2.3-0.6,8.5-2.2,8.5-2.2 M195,127.1c0.2,0.9,0.3,2,0.6,3c1.4,5.1,5.1,8.2,9.4,10.7c0.5,0.2,1,0.2,1.6,0.2c-0.1-0.5-0.3-1-0.5-1.4
	c-3-4.5-3.1-7.2-0.1-11.7c0.2-0.2,0.3-0.4,0.4-0.6c0.4-0.7,0.7-1.5,1-2.3c0.6-1.6,0-3.4-1.5-4.3c-2.1-1.3-4.8-1.4-7-0.2
	c-2.4,1.3-3.9,3.9-3.9,6.7L195,127.1z M201.9,152.4c-0.5,0.7-1.6,1.8-2.5,3c-0.5,0.6-1.2,1.3-0.5,2.1c0.7,0.8,1.5,0.1,2.2-0.4h0.1
	c3-2.6,6.7-4.1,10.7-4.3c0.6,0,1.4,0,1.3-0.8c-0.1-0.6-0.5-1.1-1.1-1.3c-1.4-0.4-2.9-0.6-4.4-0.9l-0.2-1.9h-2.7v2.7h-0.2l-0.2-0.9
	c-2.4,0-4.7,0.5-7,1.3c-0.7,0.3-1.8,0.6-1.5,1.7c0.3,1.1,1.3,0.8,2.2,0.7c1.5-0.3,3-0.7,3.7-0.9L201.9,152.4z M213.5,153.2
	c0.6,0,1.1,0,1.6,0.1c1.6,0,2.2-0.7,1.7-2.3c-0.1-0.3-0.2-0.5-0.4-0.7c-0.4-0.5-0.8-1-1.1-1.6c-0.6-1.7-2.3-2.9-4.2-2.8
	c-2.1-0.1-2.3-0.1-3,1.8c-0.5,1.2-0.1,1.9,1.2,2c0.8,0.1,1.6,0.3,2.4,0.5C213.6,150.7,213.9,151.2,213.5,153.2L213.5,153.2z"/>
<path d="M225,164c-0.3,0-0.5,0-0.8-0.2c-0.9-0.6-1.7-1.2-2.5-2c-2.6-2.3-5.8-3.9-9.2-4.7c-1.1-0.3-1.8-0.7-2-1.3
	c-0.2-0.7-0.1-1.4,0.3-2l-0.6,0.1c-0.9,0.2-1.8,0.3-2.7,0.6c-2.1,0.6-4.1,1.6-5.7,3.1c-0.5,0.4-1,0.7-1.5,1
	c-0.6,0.3-1.3,0.2-1.9-0.2c-0.5-0.5-0.6-1.1-0.4-1.7c0.2-0.6,0.5-1.1,0.9-1.6l0.3-0.4l0.2-0.3l0.2-0.3l0,0c-0.5,0.1-1,0.2-1.5,0.3
	H198c-0.5,0.1-0.9,0.1-1.4,0c-0.6-0.2-1-0.6-1.2-1.2c-0.1-0.6,0.1-1.3,0.6-1.7c0.7-0.6,1.6-1,2.5-1.2c1.3-0.3,2.8-0.6,4.2-0.8
	l1.6-0.3c0.1-0.6-0.1-1.3-0.5-1.7c-1.2-1.5-1.9-3.3-1.9-5.2c0.1-1.4-0.4-2.7-1.5-3.6c-0.8-0.7-1.5-1.4-2.2-2.2l-0.6-0.7
	c-0.3-0.4-0.6-0.4-1.2-0.3c-1.3,0.2-2.6,0.4-3.9,0.4c-0.4,0-1.3-0.2-1.4-0.7c0-0.4,0.1-0.8,0.3-1.2l0.1-0.2v-0.1h-0.3h-0.8
	c-1,0-1.9,0.1-2.9,0.1c-0.6-0.1-1.1-0.4-1.3-0.9c-0.2-0.3,0.1-0.7,0.4-1.1l0.2-0.2h-0.2c-0.7,0.1-1.5,0.2-2.3,0.2
	c-2-0.2-3.7-1.2-4.8-2.9c-1.4-1.9-2.7-4-3.7-5.7c-1.6-3-4-5.4-7-6.9c-0.4-0.1-0.7-0.5-0.8-0.9c-0.1-0.4,0.1-0.9,0.4-1.2
	c0.6-0.8,1.7-1.2,2.7-1c1.4,0.2,2.6,0.9,3.5,2.1c0.2,0.3,0.4,0.5,0.5,0.8l0.2,0.3c-0.4-1-0.9-2-1.3-2.9c-0.3-0.5-0.3-1,0-1.5
	c0.3-0.3,0.7-0.5,1.2-0.4c1,0.2,2,0.6,3,1.1h0.1c0.5,0.2,0.6,0.3,0.9,0.1c0.4-0.2,0.8-0.3,1.2-0.4c0.4-0.1,0.8,0.1,1.1,0.3
	c0.3,0.4,0.4,0.9,0.3,1.3c-0.1,1.1,0,2.1,0.1,3.2c0.1,0.3,0.3,0.6,0.6,0.9c0.1,0.1,0.2,0.3,0.3,0.4c0.1,0.1,0.2,0.2,0.2,0.3
	c0.2,0.2,0.4,0.4,0.5,0.7c0.2,0.9,0.9,1.1,1.9,1.4c2.2,0.5,4.4,0.4,6.6-0.2c2.3-0.6,8.5-2.2,8.5-2.2l0.2,0.6c0,0-6.2,1.6-8.5,2.2
	c-2.2,0.6-4.6,0.7-6.9,0.2c-1-0.2-2-0.5-2.4-1.9c-0.1-0.1-0.2-0.3-0.3-0.4c-0.1-0.1-0.2-0.2-0.3-0.3l-0.3-0.4
	c-0.3-0.3-0.6-0.7-0.7-1.2c-0.2-1.1-0.2-2.2-0.1-3.4c0-0.5,0-0.7-0.1-0.8c-0.2-0.1-0.4-0.2-0.6-0.1c-0.3,0-0.6,0.1-0.8,0.3
	c-0.5,0.3-1.1,0.3-1.6,0h-0.1c-0.9-0.5-1.8-0.8-2.7-1c-0.2,0-0.4,0-0.6,0.1c-0.1,0.3-0.1,0.6,0.1,0.8c0.5,1.1,1,2.2,1.5,3.3
	c0.1,0.3,0.2,0.6,0.2,0.9c0,0.1,0,0.2,0,0.3l0.2,1.1l-0.8-0.8c-0.4-0.5-0.8-1-1.2-1.6l-0.5-0.7c-0.7-1-1.8-1.6-3-1.8
	c-0.8-0.1-1.6,0.2-2.1,0.8c-0.2,0.3-0.3,0.5-0.3,0.6c0,0.1,0.3,0.3,0.5,0.4c3.1,1.6,5.7,4.1,7.3,7.2c1,1.7,2.2,3.8,3.6,5.7
	c0.9,1.5,2.5,2.5,4.3,2.7c0.7,0,1.4-0.1,2.1-0.2l1.1-0.2l0.9-0.1l-0.6,0.7l-0.2,0.2c-0.1,0.1-0.2,0.2-0.3,0.3l-0.2,0.3
	c-0.1,0.1-0.2,0.3-0.3,0.5c0.2,0.2,0.4,0.4,0.7,0.5c0.9,0,1.9,0,2.9-0.1h0.8c0.2,0,0.3,0,0.5-0.1h0.3l0.4-0.1l-0.1,0.4
	c0,0.2-0.1,0.5-0.3,0.6l-0.1,0.1l-0.1,0.3c-0.1,0.2-0.2,0.5-0.2,0.8c0.2,0.1,0.5,0.2,0.7,0.2c1.3,0,2.5-0.1,3.8-0.3
	c0.3-0.1,0.6-0.1,0.9,0c-0.8-1.3-1.4-2.7-1.9-4.1c-0.2-0.8-0.3-1.5-0.5-2.2c0-0.3-0.1-0.6-0.1-0.8v-0.1c0-2.8,1.5-5.4,3.9-6.8
	c2.2-1.3,4.5-1.2,7.3,0.2c1.6,0.9,2.3,2.9,1.7,4.6c-0.2,0.6-0.4,1.2-0.7,1.8l-0.3,0.6c-0.1,0.2-0.2,0.3-0.3,0.5l-0.1,0.2
	c-2.9,4.4-2.8,6.9,0.1,11.3c0.2,0.3,0.3,0.7,0.4,1.1c0,0.2,0.1,0.3,0.1,0.4l0.2,0.5h-0.5H206c-0.4,0-0.8,0-1.2-0.2
	c-1-0.6-1.9-1.2-2.9-1.9c0.4,0.8,0.5,1.8,0.5,2.7c0,1.7,0.6,3.4,1.8,4.8c0.2,0.3,0.4,0.6,0.6,0.9h3v-0.1c0.8-2,1.1-2.1,3.4-2
	c2-0.1,3.8,1.1,4.4,3c0.2,0.4,0.4,0.7,0.6,1c0.1,0.2,0.3,0.4,0.4,0.6l0.1,0.1c0.2,0.2,0.3,0.5,0.4,0.7l0,0l3,0.2
	c0.1-0.2,0.2-0.4,0.3-0.6c1.2-1.6,1.8-3.6,1.6-5.7c0-0.4,0.2-0.8,0.5-1.1c0.1-0.1,0.2-0.3,0.2-0.4l0.2-0.3l0.3,0.2l0.3,0.2
	c0.3,0.1,0.5,0.3,0.8,0.6c0.3,0.4,0.7,0.9,1,1.3c0.5,0.7,1,1.3,1.6,1.9c1.1,1.2,2.6,1.9,4.2,2.1c-0.9-1.5-2-2.8-3.4-3.8l-0.6-0.5
	l-0.9-0.8l1.2,0.2c3,0.8,6.1,0.6,9-0.5c-2.4-1.5-5.2-2.3-8.1-2.3l-1.8-0.1l1.7-0.5c4.1-1.1,7.7-3.6,10.2-7.1h-0.1
	c-7.1,0.1-11.7,2.1-14.8,6.5c-0.2,0.3-0.5,0.5-0.9,0.6c-0.3,0-0.6-0.1-0.8-0.3c-1.7-1.6-3.3-3.2-4.9-4.7c-0.2-0.2-0.3-0.4-0.4-0.6
	l-0.3-0.5l-0.4-0.6l0.7,0.1l0.7,0.1c0.3,0,0.6,0.1,0.9,0.1c1.6,0.5,3.3,0.5,5,0.2c0.6-0.2,1.2-0.5,1.7-0.9c-0.1-0.3-0.3-0.5-0.4-0.8
	c-0.1-0.3-0.3-0.5-0.4-0.8l-0.2-0.4l1-0.1l1.3-0.1c1.9-0.1,3.6-1,4.7-2.5c0.1-0.2,0.1-0.4,0.1-0.6l0,0h-1.3l-0.7-0.8l0.4-0.2
	l0.3-0.1l0.5-0.2c1.4-0.8,2.5-2,3.1-3.5c1.5-3.3,2.2-7,1.9-10.7c0-0.6,0-1.2,0-1.8c-0.2-2.9-0.2-5.8,0-8.7
	c0.6-6.5,3.7-10.9,9.1-13.2c0.4-0.2,0.6-0.4,0.6-0.6c0-0.3-0.2-0.7-0.5-0.9c-0.3-0.3-0.7-0.5-1.1-0.6c-2.7-0.8-5.7-0.2-7.8,1.7
	c-0.6,0.5-1.2,0.9-1.8,1.2c-1.5,0.7-2.7,2.1-3.3,3.7c-0.7,2.5-0.7,5.3,0.1,7.8c0.4,1.6,0.7,3.3,1.1,5.6c0,0.4,0,0.7-0.1,1.1
	c0,0.2-0.1,0.3-0.1,0.5l-0.1,0.4l-0.4-0.2l-0.3-0.2c-0.2-0.1-0.4-0.2-0.5-0.3c-0.5-0.6-0.9-1.2-1.3-1.8l-0.7-0.9l-0.4-0.5l0,0l0,0
	c-0.2,0.1-0.3,0.2-0.4,0.4c-0.3,0.6-0.4,1.2-0.5,1.9c-0.1,1.8,0.6,3.7,1.7,5.1c0.5,0.5,0.5,1.4,0,1.9c-0.1,0.1-0.3,0.2-0.4,0.3
	c-2.2,1.6-4.9,2.5-7.6,2.5c-2.8,0-5.7,0.4-8.1,2.7c-0.2,0.1-0.4,0.2-0.6,0.3l-0.3,0.1l-0.5,0.2v-0.5c0-0.3,0-0.7,0-1.1
	c-0.1-0.8,0-1.6,0.3-2.4l0.5,0.4c-0.2,0.6-0.2,1.3-0.1,2c0,0.3,0,0.5,0,0.8c0.1,0,0.2,0,0.2-0.1c2.5-2.4,5.6-2.7,8.5-2.8
	c2.6-0.1,5.1-0.9,7.3-2.4c0.6-0.4,0.7-0.6,0.3-1.3c-1.3-1.6-1.9-3.5-1.8-5.5c0.1-0.7,0.3-1.4,0.6-2c0.2-0.3,0.4-0.5,0.7-0.6l0.3-0.2
	l0.3-0.2l0.2,0.3l0.2,0.3l0.4,0.6l0.7,0.9c0.4,0.6,0.9,1.2,1.3,1.8c0.1,0,0.2,0.1,0.3,0.1l0,0v-0.2c0.1-0.3,0.1-0.5,0.1-0.8
	c-0.4-2.2-0.7-4-1.1-5.5c-0.9-2.6-0.9-5.5-0.1-8.1c0.6-1.7,1.9-3.2,3.6-4c0.6-0.3,1.2-0.7,1.7-1.2c2.3-2,5.4-2.7,8.4-1.8
	c0.5,0.2,0.9,0.4,1.3,0.7c0.5,0.3,0.7,0.9,0.7,1.4c-0.1,0.5-0.5,1-1,1.1c-5.2,2.2-8.1,6.5-8.7,12.7c-0.2,2.9-0.2,5.7,0,8.6
	c0,0.6,0,1.2,0,1.8c0.3,3.8-0.4,7.5-2,10.9c-0.7,1.6-1.9,2.9-3.4,3.7l-0.2,0.1h1.5v0.4c0,0.1,0,0.2,0,0.3c0,0.3,0,0.6-0.2,0.9
	c-1.2,1.7-3.1,2.7-5.2,2.8l-1.4,0.1l0,0l0.2,0.3c0.4,0.8,0.7,1.2,0.4,1.5c-0.6,0.5-1.3,0.9-2.1,1.1c-1.8,0.4-3.6,0.4-5.3-0.2
	c-0.3-0.1-0.6-0.1-0.8-0.1l0,0c0.1,0.1,0.1,0.2,0.2,0.3c1.5,1.5,3.2,3.1,4.9,4.7c0.1,0.1,0.2,0.2,0.3,0.2c0.2-0.1,0.3-0.2,0.4-0.3
	c4.2-5.8,10.4-6.7,15.3-6.7c0.1,0,0.3,0,0.4,0.1c0.1,0,0.2,0.1,0.2,0.2l0.1,0.1l0.2,0.2l-0.1,0.2c-2.2,3.3-5.4,5.9-9.2,7.1
	c2.6,0.2,5.2,1.1,7.3,2.7l0.4,0.3l-0.5,0.2c-2.7,1.3-5.8,1.6-8.7,1c1.5,1.1,2.7,2.5,3.5,4.2l0.2,0.5h-0.6c-2,0-3.8-0.8-5.2-2.3
	c-0.6-0.6-1.2-1.3-1.7-2c-0.3-0.4-0.6-0.8-1-1.2c-0.2-0.2-0.4-0.3-0.6-0.4H223l-0.1,0.1c-0.2,0.2-0.3,0.4-0.3,0.7
	c0.2,2.2-0.4,4.3-1.7,6.1c-0.4,0.5-0.5,1.2-0.4,1.8c0.3,0.6,0.8,1.1,1.4,1.3c1.6,0.6,3.3,1.4,4.8,2.2l1.3,0.7
	c0.4,0.2,0.7,0.5,0.9,0.8c0.6,0.7,0.5,1.8-0.2,2.4c-0.6,0.4-1.3,0.5-1.9,0.3c-0.6-0.2-1.2-0.5-1.8-0.8l-0.2-0.1v0.1l0.4,0.5
	c0.4,0.5,0.8,1.1,1.1,1.6c0.2,0.6,0,1.3-0.4,1.9C225.7,164,225.4,164.1,225,164z M214.4,154.1c-0.6,0-1.3,0-1.9,0
	c-0.3,0-0.6,0.1-0.8,0.3c-0.1,0.1-0.2,0.3-0.1,0.5c0,0.2,0.4,0.5,0.7,0.8l0.2,0.2c0.1,0.1,0.3,0.1,0.4,0.1h0.2
	c2.5,0.5,4.8,1.5,6.9,3c0.8,0.6,1.5,1.2,2.3,1.8s1.3,1.1,2.1,1.6c0.3,0.2,0.7,0.3,1.1,0.3c0.1,0,0.2-0.1,0.2-0.3
	c0-0.1,0-0.4-0.3-0.9c-0.3-0.5-0.5-0.9-0.7-1.3l-0.3-0.5l0,0l-2.7-2.6l0.6-0.7l0.2,0.2l0.3,0.2c0.2,0.1,0.4,0.3,0.5,0.4l0.8,0.4
	c1.1,0.6,2.2,1.3,3.4,1.8c0.2,0,0.5,0,0.7-0.1c0.1-0.3,0.1-0.6,0-0.9c-0.1-0.3-0.4-0.5-0.7-0.6c-1.7-0.8-4-1.9-6.3-2.8
	c-0.2-0.1-0.5-0.1-0.7,0l-0.6,0.1h-0.3l-0.1-3.4l-1.8-0.1l-0.2,2.5h-3.1L214.4,154.1z M223.7,158.2l0.4,0.4v-0.2l-0.3-0.1
	L223.7,158.2z M202.7,151.9l-0.7,0.8l-0.5,0.6c-0.5,0.6-1.3,1.5-2,2.4l-0.1,0.1c-0.6,0.7-0.8,1.1-0.4,1.5s1,0.2,1.7-0.3l0.1-0.1l0,0
	c2.7-2.5,6.1-3.8,10.9-4.3h0.2c0.8-0.1,0.9-0.2,0.9-0.5c-0.1-0.5-0.5-0.8-0.9-1c-1-0.3-2-0.5-3.1-0.6l-1.3-0.2h-0.2l-0.2-1.9h-2v2.7
	h-0.8l-0.2-0.9c-2.3,0-4.5,0.5-6.7,1.3h-0.2c-0.9,0.4-1.3,0.6-1.1,1.2c0.2,0.6,0.7,0.7,1.7,0.5h0.1c1.1-0.2,2.1-0.5,2.9-0.7l0.7-0.2
	L202.7,151.9z M220.2,153.5v1h0.3c0.2,0,0.4,0,0.6,0C220.6,154.2,220.3,153.9,220.2,153.5L220.2,153.5z M211.9,153.2l-0.1,0.2
	l-0.2,0.3c0.3-0.2,0.6-0.3,0.9-0.3h0.6v-0.3v-0.3C212.7,153.1,212.4,153.2,211.9,153.2L211.9,153.2z M200.6,153.1l-0.1,0.4l0,0
	l0.4-0.5L200.6,153.1z M216.2,153.5h0.6V153C216.7,153.2,216.4,153.4,216.2,153.5L216.2,153.5z M213.8,152.9h0.2h1
	c0.5,0.1,1-0.1,1.3-0.4c0.2-0.5,0.2-1,0-1.5c-0.1-0.2-0.2-0.4-0.3-0.5l-0.1-0.1c-0.1-0.2-0.2-0.3-0.4-0.5c-0.3-0.4-0.5-0.7-0.7-1.2
	c-0.6-1.6-2.2-2.6-3.9-2.6c-2.1-0.1-2.1-0.1-2.7,1.6c-0.3,0.4-0.3,1,0.2,1.4c0.2,0.2,0.5,0.2,0.8,0.2c0.8,0.1,1.7,0.2,2.5,0.5
	C213.7,150.4,214.2,151,213.8,152.9L213.8,152.9z M208,149.6h0.2l-0.2-0.2L208,149.6z M195.3,127.2c0,0.3,0.1,0.5,0.1,0.8
	c0.1,0.7,0.3,1.4,0.5,2.2c1.5,5.3,5.5,8.3,9.3,10.5c0.3,0.1,0.6,0.2,0.9,0.1h0.1l0,0c-0.1-0.3-0.2-0.6-0.3-0.9
	c-3.1-4.6-3.2-7.4-0.1-12l0.2-0.2c0.1-0.1,0.2-0.2,0.2-0.4l0.3-0.6c0.3-0.5,0.5-1.1,0.7-1.7c0.6-1.5,0-3.1-1.3-3.9
	c-2-1.2-4.6-1.3-6.7-0.2C196.7,122.3,195.3,124.6,195.3,127.2L195.3,127.2z"/>
<path class="st2" d="M224.7,159.7c0.3,0.6,0.6,1.2,0.9,1.8c0.3,0.6,0.6,1.3-0.1,1.6c-0.5,0.1-1.1,0-1.5-0.3
	c-1.5-1.1-2.8-2.3-4.3-3.4c-2-1.4-4.3-2.4-6.8-2.9c-0.3,0-0.5-0.1-0.7-0.2c-0.4-0.4-0.9-0.7-1-1.2c-0.1-0.6,0.4-1.2,1-1.2
	c0.1,0,0.1,0,0.2,0c1.5-0.1,3,0,4.7,0l0.2-2.5l2.4,0.2l0.1,3.3c0.6,0,1.1-0.2,1.5-0.1c2.1,0.9,4.2,1.9,6.3,2.8
	c0.4,0.2,0.7,0.4,0.8,0.8c0.1,0.4,0.1,0.8-0.1,1.2c-0.3,0.3-0.7,0.4-1.1,0.2c-1.4-0.7-2.8-1.5-4.2-2.2c-0.3-0.2-0.6-0.4-0.8-0.6
	l-0.2,0.2L224.7,159.7C224.7,159.6,224.7,159.6,224.7,159.7z"/>
<path class="st3" d="M195,127.2c0-2.7,1.4-5.2,3.8-6.5c2.2-1.2,4.9-1.1,7,0.2c1.5,0.9,2.2,2.7,1.5,4.3c-0.3,0.8-0.6,1.5-1,2.3
	c-0.1,0.2-0.3,0.4-0.4,0.6c-2.9,4.5-2.9,7.2,0.1,11.7c0.2,0.4,0.4,0.9,0.5,1.4c-0.5,0-1.1,0-1.6-0.2c-4.3-2.6-8-5.7-9.4-10.7
	C195.3,129.2,195.1,128.1,195,127.2z"/>
<path class="st3" d="M215.9,110.9c-0.7-4.1-3.7-7-5.3-10.5c-1.7-3.2-1.8-7-0.2-10.3c0.9-1.9,3.2-2.7,5.1-1.7c0.5,0.3,1,0.6,1.4,1.1
	c0.5,0.7,0,0.9-0.3,1.3c-1.9,1.9-2.6,4.6-2,7.2c0.4,1.1,0.9,2.2,1.4,3.2l-0.8,0.5c1.6,0,3.4,0,5.2,0c0.9,0,1.2,0.3,1.1,1.2
	c-0.5,3.1-2.1,5.8-4.6,7.7C216.5,110.7,216.2,110.8,215.9,110.9z"/>
<path class="st2" d="M201.8,152.4c-0.7,0.2-2.2,0.6-3.6,0.9c-0.8,0.2-1.9,0.5-2.2-0.7s0.8-1.3,1.5-1.7c2.2-0.9,4.6-1.3,7-1.3
	l0.2,0.9h0.2V148h2.7l0.2,1.9c1.6,0.3,3,0.5,4.4,0.9c0.6,0.2,1,0.7,1.1,1.3c0,0.8-0.8,0.8-1.3,0.8c-3.9,0.2-7.7,1.7-10.7,4.3h-0.1
	c-0.7,0.5-1.5,1.1-2.2,0.4s0-1.5,0.5-2.1C200.2,154.2,201.3,153.1,201.8,152.4z"/>
<path class="st3" d="M213.5,153.2c0.4-2,0.2-2.5-1.7-3.1c-0.8-0.2-1.6-0.4-2.4-0.5c-1.3-0.2-1.7-0.8-1.2-2c0.7-1.9,0.9-1.9,3-1.8
	c1.8-0.1,3.5,1.1,4.2,2.8c0.3,0.6,0.7,1.1,1.1,1.6c0.2,0.2,0.3,0.5,0.4,0.7c0.4,1.6-0.1,2.3-1.7,2.3
	C214.5,153.3,214,153.2,213.5,153.2z"/>
<ellipse transform="matrix(0.5 -0.866 0.866 0.5 25.3563 236.9326)" cx="217.9" cy="96.5" rx="7" ry="5.3"/>
<path class="st3" d="M219,100.7c0.9-0.9,1.4-2.1,1.2-3.4l-1.9,1.3c0.2-1.1,0.4-2,0.5-2.8c0.2-0.8-0.2-1.1-1-1.1
	c-1.6,0-2.3,1.1-2.9,2.5c-0.1-0.2-0.1-0.5-0.1-0.7c0.2-1,0.4-1.9,0.8-2.8c0.7-1.7,2.5-2.6,4.3-2.1c1.6,0.6,2.7,2.3,2.5,4
	C222.4,97.9,221,99.9,219,100.7z"/>
<path d="M202.4,104.7c0,0-0.5-4,1.3-4.7s8.8,1.1,8.3,5.2c-0.5,4.2-4,10.1-4,10.1l-7.2,2.7l-2.4-3.4c0,0,3.3-2.8,4-4.8
	C202.8,108.1,202.8,106.4,202.4,104.7z"/>
<path class="st2" d="M212,103.8c0.9,1.3,1.7,2.7,2.5,4.1c1.3,2.9,0.3,6.1-2.4,8.5c-3.8,3.2-9.3,3.7-13.6,1.1
	c-0.4-0.2-0.8-0.5-1.1-0.9c-1.1-1.1-0.9-2.1,0.6-2.6c1.5-0.5,2.6-1.6,3.1-3.1c0.6-1.9,0.9-4,1.3-6c0-0.4,0-0.8,0-1.1
	c0.7,0.2,1.3,0.4,1.8,0.6c0.2,0.1,0.5,0.4,0.5,0.6c-0.2,3-0.4,6-2.5,8.4c-0.7,0.6-1.4,1.2-2.2,1.7c0.6,0.2,1.1,0.3,1.7,0.3
	c2.6,0,5-1.2,6.6-3.2c1.7-2,2.8-4.5,3.1-7.1c0-0.5,0.1-0.9,0.2-1.3L212,103.8z"/>
<ellipse cx="202.9" cy="102.3" rx="2.5" ry="1.3"/>
<path class="st2" d="M211.5,86.8c-4,5.2-4.2,9-0.8,15.4c-1.1,1.3-2.7,1.9-4.4,1.7c-2-0.3-3.9-1-5.6-2c-1.3-0.7-2.7-1.3-4.2-1.7
	c-2-0.7-4.2,0.3-4.9,2.3c-0.2,0.4-0.2,0.9-0.2,1.3c0,0.1,0,0.2,0,0.3c-0.2,0.4-0.4,0.9-0.7,1c-0.3,0.1-0.9-0.2-1-0.5
	c-0.6-1-1-2.1-1.3-3.3c-1.1-4.7-0.8-9.3,2.4-13.3c3-3.7,7-4.9,11.6-4.7c3,0.3,5.9,1.2,8.5,2.8C211.1,86.4,211.3,86.6,211.5,86.8z"/>
<path class="st4" d="M190.5,105.3c-0.4,0-0.8-0.3-1-0.6l-0.1-0.1c-0.6-1-1-2-1.3-3.1c-1.2-5.4-0.5-9.8,2.4-13.3s6.7-5,11.7-4.7
	c3,0.3,6,1.3,8.6,2.8c0.2,0.1,0.3,0.2,0.5,0.3l0.3,0.2h0.1v0.1c-4,5.2-4.1,8.9-0.8,15.3l0,0l0,0c-1.1,1.3-2.8,2-4.5,1.8
	c-1.8-0.2-3.6-0.8-5.1-1.8l-0.5-0.3c-1.3-0.7-2.7-1.3-4.1-1.7c-1.1-0.4-2.4-0.2-3.4,0.4c-1,0.7-1.6,1.9-1.6,3.1c0,0,0,0.1,0,0.1
	c0,0.1,0,0.2,0,0.3l-0.2,0.3c-0.2,0.3-0.3,0.7-0.6,0.8L190.5,105.3z M201,83.5c-4-0.2-7.8,1.5-10.3,4.7c-2.8,3.5-3.6,7.8-2.4,13.2
	c0.3,1.1,0.8,2.1,1.3,3.1l0.1,0.1c0.2,0.3,0.5,0.5,0.9,0.5c0.2-0.1,0.4-0.4,0.5-0.7l0.2-0.3c0,0,0-0.1,0-0.1c0,0,0-0.1,0-0.1
	c0.1-1.3,0.7-2.5,1.7-3.3c1.1-0.7,2.4-0.8,3.5-0.4c1.4,0.4,2.8,1,4.2,1.7l0.5,0.3c1.6,0.9,3.3,1.5,5.1,1.7c1.6,0.2,3.2-0.4,4.2-1.6
	c-3.3-6.4-3.1-10.2,0.8-15.4l-0.2-0.1c-0.1-0.1-0.3-0.2-0.5-0.3c-2.6-1.6-5.6-2.5-8.6-2.8L201,83.5z"/>
<path d="M176.8,164.9c-2.5,0-4.5-2-4.5-4.5c0-2.5,2-4.5,4.5-4.5c2.5,0,4.5,2,4.5,4.5v0C181.3,162.9,179.3,164.9,176.8,164.9z
	 M176.8,156.4c-2.2,0-4,1.8-4,4s1.8,4,4,4s4-1.8,4-4C180.8,158.2,179,156.4,176.8,156.4C176.8,156.4,176.8,156.4,176.8,156.4
	L176.8,156.4z"/>
<path d="M175.1,158.2c0.4-0.1,0.9-0.1,1.3-0.1c0.5,0,1.1,0.1,1.5,0.4c0.3,0.2,0.4,0.5,0.4,0.8c0,0.6-0.4,1-1,1.1l0,0
	c0.4,0.1,0.7,0.5,0.8,0.9c0.1,0.4,0.2,0.8,0.4,1.2h-0.7c-0.2-0.3-0.3-0.7-0.3-1c-0.1-0.5-0.5-0.9-1.1-0.9h-0.6v1.9h-0.7L175.1,158.2
	z M175.8,160.2h0.7c0.7,0,1.2-0.3,1.2-0.8c0-0.5-0.5-0.8-1.2-0.8c-0.2,0-0.5,0-0.7,0L175.8,160.2z"/>
</svg>
