<?xml version="1.0" encoding="utf-8"?>
<!-- Generator: Adobe Illustrator 21.1.0, SVG Export Plug-In . SVG Version: 6.00 Build 0)  -->
<svg version="1.1" id="Layer_1" xmlns="http://www.w3.org/2000/svg" xmlns:xlink="http://www.w3.org/1999/xlink" x="0px" y="0px"
	 viewBox="0 0 250 250" style="enable-background:new 0 0 250 250;" xml:space="preserve">
<style type="text/css">
	.st0{fill:#BDA10D;}
</style>
<title>CR</title>
<g>
	<path class="st0" d="M146,60.9c0.1,1.4,0,2.8-0.2,4.1c-0.5,5.8-1.5,11.5-3,17c-1.3,4.4-2.6,8.7-4,13.1c-1.6,5.1-3.2,10.1-4.8,15.1
		c-0.2,0.7,0,0.9,0.6,1.2c5,1.8,9.9,3.5,14.9,5.3l14,5c0.2,0.1,0.4,0.2,0.5,0.4h-1.5c-10.5,0-21,0-31.4,0c-0.6-0.1-1.2,0.3-1.3,1
		c-3.9,10.9-7.9,21.8-11.8,32.6c-0.9,2.6-2.4,5.1-4.3,7.2c-1.7,1.9-4.2,3-6.7,3.1c-4.3,0.4-8.7,0-12.9-1.2
		c-5.1-1.4-8.9-5.6-9.7-10.8c-0.6-2.7-0.5-5.5,0.2-8.1c0.2-0.5,0-0.8-0.6-0.8c-0.4,0-0.8-0.1-1.2-0.1c-1.4,0.2-1.9-0.7-2.5-1.8
		c-2.4-4.9-3.8-10.3-4.2-15.8c-0.4-3.9-0.3-7.9,0.2-11.8c0.7-4.6,2.1-9.1,4.2-13.3c3.9-8.3,10.2-15.2,18.1-19.8
		c8.4-4.9,18.1-7.2,27.7-6.6c2.9,0.2,5.9,0.6,8.8,1.2c0.5,0.2,1.2,0,1.4-0.6c0,0,0,0,0-0.1c2.7-5.2,5.7-10.3,8.9-15.2
		C145.7,61.2,145.8,61.1,146,60.9z M100.8,159c1.9-2.1,3.3-4.5,4.2-7.2c3.8-9.5,7.5-19,11.2-28.5c0.4-1,0.4-1-0.7-1H83.3
		c0.9-0.5,1.9-0.9,2.9-1.3c11.7-4.1,23.5-8.3,35.3-12.4c0.6-0.2,1-0.6,1.2-1.2c2-4.6,4-9.2,6-13.7c1.9-4.4,3.7-8.8,5.9-13
		c0.2-0.5,0.2-0.7-0.4-0.7c-1.1,0-2.2-0.4-3.3-0.4c-6.2-0.6-12.4,0.1-18.3,2.1c-7.9,2.6-14.9,7.5-20,14.2c-2.9,3.6-5.2,7.7-6.9,12
		c-2.8,7.6-3.6,15.7-2.5,23.8c0.5,3.2,1.4,6.4,2.7,9.4c0.1,0.3,0.2,0.5,0.6,0.4c3.3-0.8,6.6-0.4,9.9-0.4c1.2,0,2.3,0.2,3.4,0.5
		c0.5,0.2,0.7,0.3,0.5,0.9c-0.7,3.2-1.5,6.3-1.3,9.6C99.2,154.4,99.7,156.8,100.8,159z"/>
	<path class="st0" d="M110.1,169.3c0.8-0.9,1.5-1.7,2.2-2.5c0.3-0.3,0.7-0.2,1.1-0.2c3.4,0.6,6.8,0.8,10.3,0.7
		c7.4-0.4,14.5-1.7,21-5.3c6.6-3.6,12-9,15.5-15.5c2.9-5.2,4.9-10.7,6-16.5c0.6-3.4,0.7-6.8,0.5-10.2c-0.2-3.9-1-7.7-2.2-11.4
		c-2.4-7.2-6.7-13.7-12.4-18.7c-2-1.9-4.3-3.6-6.7-4.8c-0.5-0.2-0.6-0.5-0.4-1.1c0.7-2.1,0.7-2,2.9-1.8c2.4,0.2,4.1,1.7,5.9,2.9
		c4.8,3.3,9,7.4,12.2,12.3c4,6.1,6.6,13,7.5,20.3c1.1,8.7-0.1,17.6-3.7,25.7c-2.2,4.9-5.2,9.4-8.9,13.3c-6.8,7.3-15.7,12.2-25.4,14
		c-3.1,0.5-6.3,0.7-9.5,0.6C120.6,171,115.3,170.4,110.1,169.3z"/>
	<path d="M168.8,190.9c-1.4-0.4-2.5-1.7-2.6-3.2c-0.1-1.6,1-3.1,2.6-3.5c1.7-0.4,3.4,0.6,3.9,2.2c0.5,1.6-0.3,3.4-1.8,4.1l-0.6,0.3
		H168.8z M172.2,187.6c0.1-1.5-1-2.8-2.5-2.9c0,0-0.1,0-0.1,0c-1.5,0.1-2.6,1.3-2.7,2.8c-0.1,1.5,1.1,2.8,2.7,2.9c0,0,0,0,0.1,0
		C171.1,190.3,172.3,189.1,172.2,187.6C172.2,187.6,172.2,187.6,172.2,187.6z"/>
	<path d="M145.1,188.9c-0.4,0.3-0.8,0.7-1.3,1c-3,1.9-6.9,0.9-8.8-2.1c-0.5-0.8-0.8-1.8-0.9-2.8c-0.3-2.5,0.2-5,1.6-7.1
		c1-1.8,2.9-3,5-3.3c2.5-0.3,4.9-0.2,6.8,1.8c0.7,0.9,1.1,2,1.2,3.1c0,0.5-0.2,0.6-0.6,0.5c-0.3,0-0.6,0-0.9,0
		c-1.1,0.1-1.8,0-2.1-1.3c-0.4-1.3-2.3-1.9-4-1.4c-0.9,0.3-1.7,0.8-2.2,1.6c-1.3,1.9-1.7,4.2-1.2,6.5c0.4,1.6,1.9,2.8,3.5,2.6
		c1.7,0,3.2-1,3.8-2.6c0.2-0.5,0.1-0.7-0.5-0.7c-0.9,0-1.8,0-2.7,0c-0.4,0-0.5-0.1-0.5-0.6c0.3-2,0.3-2,2.3-2c1.5,0,2.9,0,4.4,0
		c0.7,0,0.8,0.2,0.7,0.8c-0.4,2.1-0.7,4.2-1,6.3c-0.2,1-0.2,1-1.7,1c-0.9,0-0.6-0.6-0.7-1C145.2,189.2,145.3,189.1,145.1,188.9z"/>
	<path d="M122.4,180c-0.5,3.2-1,6.3-1.5,9.4c-0.1,0.8-0.3,1.2-1.2,1.1c-0.9-0.1-1.6,0.3-2.1-0.2c-0.4-0.4,0.1-1.3,0.2-1.9
		c0.7-4.2,1.4-8.3,2-12.5c0.1-0.7,0.3-0.9,1.1-0.9c2.4,0,2.4,0,3.3,2.2l3.3,7.9c0,0.1,0.1,0.2,0.3,0.3l1.2-6.8
		c0.2-1,0.4-2.1,0.5-3.1c0-0.4,0.2-0.6,0.6-0.5c0.5,0,1,0,1.5,0c0.9-0.1,1.1,0.2,0.9,1c-0.8,4.6-1.5,9.2-2.3,13.8
		c-0.1,0.5-0.2,0.6-0.7,0.6c-2.7,0.1-2.7,0.1-3.7-2.4c-1-2.5-2.1-5.1-3.1-7.6C122.8,180.2,122.7,180,122.4,180z"/>
	<path d="M76.9,190.5c0.9-5.1,1.7-10.1,2.5-15c0-0.3,0.3-0.6,0.6-0.6c0,0,0.1,0,0.1,0c2.8,0,5.5,0,8.3,0c0.5,0,0.5,0.2,0.5,0.6
		c-0.3,2.2-0.3,2.2-2.6,2.2c-1.1,0-2.2,0-3.3,0c-0.5,0-0.7,0.1-0.7,0.6c-0.1,0.8-0.2,1.6-0.4,2.4c-0.1,0.6,0.1,0.7,0.6,0.7
		c1.4,0,2.9,0,4.3,0c0.5,0,0.7,0.1,0.6,0.7c-0.2,2.1-0.2,2.1-2.3,2.1c-1,0-2.1,0-3.1,0c-0.5,0-0.7,0.1-0.7,0.6
		c-0.2,1.7-0.6,3.3-0.8,5c-0.1,0.6-0.3,0.8-0.9,0.8C78.6,190.5,77.8,190.5,76.9,190.5z"/>
	<path d="M98.6,174.9c1.1,0,2,0,3,0c0.6,0,0.6,0.5,0.7,0.8c0.7,1.8,1.4,3.5,2.2,5.5c0.7-1.2,1.2-2.2,1.8-3.2
		c0.5-0.8,0.9-1.7,1.3-2.5c0.1-0.4,0.5-0.6,1-0.6c0.9,0,1.8,0,2.8,0c-0.8,1.4-1.5,2.6-2.2,3.9c-1.1,1.8-2.2,3.6-3.2,5.5
		c-0.6,1.1-0.4,2.4-0.7,3.5c-0.1,0.7-0.2,1.3-0.3,2c0,0.5-0.3,0.6-0.7,0.6c-0.8,0-1.8,0.3-2.4-0.1c-0.5-0.4,0-1.5,0.1-2.2
		c0.1-0.8,0.2-1.6,0.4-2.4c0.2-0.9,0-1.8-0.4-2.7c-1.1-2.5-2.1-4.9-3.1-7.4C98.7,175.5,98.7,175.2,98.6,174.9z"/>
	<path d="M159.9,190.8c-2.2,0-3.5-0.8-4-2.4c-0.3-1-0.3-2.1,0-3.2c0.1-0.3,0.2-0.4,0.5-0.4c0.7,0,1.3,0,2,0c0.4,0,0.5,0.2,0.4,0.5
		c-0.1,0.4-0.1,0.8-0.1,1.2c0,0.8,0.2,1.4,1,1.5c0.8,0.2,1.5-0.3,1.7-1c0,0,0,0,0,0c0.4-1.5,0.7-3,0.8-4.6c0.4-2.4,0.7-4.6,1.1-6.9
		c0.1-0.4,0.2-0.7,0.8-0.7c0.7,0.1,1.3,0.1,2,0c0.6,0,0.7,0.2,0.6,0.7c-0.6,3.5-1.2,7.1-1.8,10.6c-0.4,2.1-1,4-3.5,4.5
		C160.9,190.7,160.4,190.7,159.9,190.8z"/>
	<path d="M94.4,190.5h-4.7c-0.5,0-0.7-0.1-0.6-0.7c0.8-4.6,1.5-9.2,2.2-13.8c0.1-0.7,0.3-1.2,1.2-1.1c0.7,0.1,1.7-0.3,2.1,0.2
		s-0.1,1.3-0.2,2c-0.5,3.3-1.1,6.6-1.6,9.9c-0.1,0.7,0.1,0.8,0.7,0.8c1.9-0.1,3.8,0,5.6-0.1c0.7,0,0.9,0.2,0.8,0.9
		c-0.4,1.9-0.4,1.9-2.4,1.9L94.4,190.5L94.4,190.5z"/>
	<path d="M112.5,190.4c-1.6,0-1.7,0-1.4-1.5c0.7-4.3,1.5-8.7,2.2-13c0.1-0.7,0.3-1.1,1.1-0.9c0.8,0.1,1.7-0.3,2.1,0.2
		c0.4,0.5-0.1,1.4-0.2,2.1c-0.6,3.9-1.3,7.9-2,11.8C114.1,190.4,114.1,190.4,112.5,190.4z"/>
	<path d="M168.3,187.6c0-0.2,0-0.4,0-0.6c0.1-0.4-0.3-1,0.2-1.2c0.7-0.2,1.4-0.2,2,0.2c0.3,0.2,0.4,0.7,0.3,0.9
		c-0.6,0.7-0.1,1.3,0,2c0,0.2,0.4,0.5,0,0.7c-0.4,0.1-0.4-0.2-0.5-0.5c0-0.2-0.1-0.5-0.2-0.7c-0.2-0.3-0.5-0.5-0.8-0.4
		c-0.4,0.1-0.2,0.4-0.3,0.6s0,0.4,0,0.5s0,0.4-0.2,0.4s-0.3-0.2-0.3-0.4C168.4,188.6,168.4,188.1,168.3,187.6L168.3,187.6z
		 M168.9,186.8c0,0.3,0,0.7,0.5,0.6c0.5-0.1,0.9-0.1,0.9-0.7s-0.4-0.6-0.8-0.7C169,186.1,168.9,186.4,168.9,186.8L168.9,186.8z"/>
</g>
</svg>
