<?xml version="1.0" encoding="utf-8"?>
<!-- Generator: Adobe Illustrator 21.1.0, SVG Export Plug-In . SVG Version: 6.00 Build 0)  -->
<svg version="1.1" id="Layer_1" xmlns="http://www.w3.org/2000/svg" xmlns:xlink="http://www.w3.org/1999/xlink" x="0px" y="0px"
	 viewBox="0 0 250 250" style="enable-background:new 0 0 250 250;" xml:space="preserve">
<title>Grocery</title>
<path d="M157.4,137.4c-0.1,1.2-0.4,2.3-0.8,3.5c-2.8,4.9-7.3,7.5-12.6,9c-4.9,1.5-10.1,1.7-15.1,0.5c-5.5-1.2-10.6-3.9-14.6-7.9
	c-4.4-4.6-4.3-9.9,0.4-14.1c2.3-2.1,5.3-3.4,8-5c0.7-0.4,1.4-0.7,2.1-0.9l-2.1-1c-3.7-1.8-6.5-4.3-7-8.7c-0.1-2,0.8-4,2.5-5.1
	c4.4-3.8,10-6.1,15.9-6.4c3.7-0.2,7.3-0.2,11,0c3,0.1,5.8,1.5,7.6,3.8c0.4,0.4,0.9,0.7,1.5,0.9c0.6,0.2,1.1,0.6,1.6,1
	c0.6,0.7,0.5,1.3-0.6,1.5c-2.5,0.3-4,2.2-5.7,3.8c-1,1-2.3,1.7-3.7,1.9c-1.4,0.2-2.4-1-3-2.4c-0.3-0.8-0.3-1.7,0.8-1.6
	c3.4,0.3,5.2-1.9,7.2-4c-0.9-1.6-2.7-2.7-4.5-2.8c-5.2-0.7-10.5-0.2-15.6,1.5c-4,1.1-7.8,3.1-11,5.8c-1.1,0.9-1.5,2.5-0.9,3.9
	c1.3,4,7.1,7.2,11.2,6.3c4.3-0.9,8.6-1.9,13.1-1.3c1,0.1,2,0.4,2.9,0.7c0.6,0.3,1.1,0.8,1.3,1.5c0.1,0.4-0.6,1.2-1.1,1.5
	c-0.9,0.5-1.9,0.8-2.8,1c-4.9,0.9-9.9,0.8-14.8-0.3c-0.6-0.2-1.2-0.2-1.8-0.1c-3,1.2-5.8,2.7-8.5,4.4c-4,2.8-4.4,6.9-1.5,10.9
	c1.9,2.5,4.5,4.5,7.5,5.6c6.8,2.9,14.4,3.5,21.6,1.6c4.4-0.9,8.1-3.7,10.1-7.7C156.2,138.2,156.9,137.9,157.4,137.4L157.4,137.4z
	 M144.3,122.2c-1.9-1.5-9.3-1.2-11.3,0.4C136.9,122.7,140.5,123.6,144.3,122.2L144.3,122.2z"/>
<path d="M38.5,102.3c3.5,2.7,7.3,1.7,11,1c8.4-1.7,16.8-3.1,25.3-2.2c1.7,0.2,3.5,0.5,5.1,0.9c2,0.6,3.8,1.9,4.7,3.8
	c0.2,0.4,0,1,0,1.5c-0.4,0-1,0.1-1.2-0.1c-2.7-2.4-5.9-2.7-9.2-2.9c-7-0.3-13.7,1.3-20.3,3.3c-0.6,0.3-1,0.9-1.1,1.5
	c0,2.9,0.1,5.9,0.1,8.8c0,1.3,0.8,1.5,1.9,1.5c3.9,0,7.8-0.1,11.7,0c1.2,0.2,2.3,0.6,3.4,1.1v0.7c-0.6,0.2-1.3,0.3-1.9,0.5
	c-4.3,0.4-8.5,0.8-12.8,1.2c-1.5,0.1-2.1,0.7-2,2.3c0.3,7.2,0.5,14.3,0.7,21.5c0,0.6-0.1,1.5-0.4,1.6c-0.6,0.1-1.3,0-1.8-0.3
	c-1.7-0.8-2.7-2.6-2.6-4.5c0.3-5.9,0.5-11.7,0.7-17.6c0.1-2.1,0-2.1-2-1.8c-2.4,0.5-3.3-0.1-3.3-2.2c0.2-0.7,0.6-1.4,1.1-1.9
	c0.3-0.3,0.8-0.3,1.3-0.4c3.4-0.5,3.3-0.5,3.6-4c0.1-1.9,0.3-3.7,0.5-5.6c0.2-1.3-0.2-1.8-1.6-1.6c-2.6,0.3-5.2,0.4-7.8,0.3
	C37.6,108.8,36.3,105.8,38.5,102.3z"/>
<path d="M221.4,131.3c-1.5,1.3-3.1,2.7-4.7,4.1c-1,0.9-1.8,1.1-2.7-0.2c-0.2-0.3-1.1-0.4-1.6-0.3c-0.8,0.2-1.5,0.8-2.3,1.1
	c-0.8,0.3-1.8,0.6-2.3,0.3c-1.7-1.2-3.1-0.7-4.8,0c-0.8,0.1-1.6-0.1-2.2-0.7c-0.4-0.7-1.4-0.9-2-0.4c-0.1,0-0.1,0.1-0.2,0.1
	c-0.3,0.2-0.6,0.4-0.9,0.5c-0.9,0.2-1.8,0.3-2.7,0.4c-0.1-0.9-0.1-1.8-0.1-2.7c0.2-1.8,0.6-3.5,0.8-5.3c0.1-1.3-0.3-2.6-1.9-2.8
	c-1.6,0-2.9,1.1-3.1,2.7c-0.3,3.7-2.3,7-5.3,9c-1,1-2.7,1-3.7-0.1c-0.3-0.3-0.5-0.7-0.6-1.1c-1.5-3.1,0.5-10.2,3.3-12.1
	c1.2-0.9,2.9-0.8,4,0.1c0.5,0.3,0.9,0.7,1.4,1.1l0.4-0.3c-0.4-0.5-0.7-1.1-1-1.7c-0.3-0.7-0.7-1.9-0.4-2.2c0.7-0.6,1.6-1,2.5-1
	c3,0.1,7.4,4.1,7.3,7.8c0,1.9,0,3.8,0,5.8c1.3-0.1,2.1-0.6,2.3-1.9c0.1-1.3,0.3-2.7,0.5-4c0-0.7,0.3-1.3,0.7-1.9
	c0.4-0.5,1.1-0.8,1.8-0.8c0.6,0.3,1,1,1,1.6c-0.1,1.7-0.6,3.3-0.8,5c0,0.7,0.2,1.5,0.4,2.1c0.6-0.5,1.5-0.8,1.9-1.4
	c1-1.8,1.5-3.8,2.5-5.5c0.7-1.2,1.7-2.2,2.7-3.1c0.5-0.2,1.2-0.2,1.7,0.1c0.3,0.2,0.3,1.1,0,1.5c-0.7,1.2-1.5,2.4-2.2,3.6
	c-0.6,1.1-1.1,2.2-1.4,3.4c-0.2,1.2,0.6,1.8,1.6,1.2c1-0.5,1.8-1.3,2.4-2.2c1-1.8,1.7-3.8,2.6-5.7c0.2-0.4,0.9-0.6,1.3-0.9
	c0.2,0.5,0.7,1.1,0.6,1.5c-0.4,1.3-1.1,2.5-1.4,3.8c-0.1,0.8-0.1,1.6,0.1,2.3c0.6-0.3,1.2-0.6,1.8-1c1.4-1.3,2.7-2.9,4.1-4.2
	c0.8-0.5,1.6-0.8,2.5-1c0,0.8,0.1,1.6,0.2,2.4c0,0.4,0,0.8-0.1,1.3l0.6,0.4c0.4-0.6,0.8-1.2,1.3-1.8c1.5-1.5,2.3-1.5,3.8,0.1
	c0.4,0.2,0.9,0.2,1.3,0c0.7-0.4,1.3-1.1,2-1.5c1.1-0.6,2-0.1,1.9,1.1c-0.1,1.6-0.4,3.1-0.8,4.7c-1,3.7,0.7,5.6,4.5,5.1
	c1.7-0.2,3.4-0.3,5.1-0.4l0.1,0.7c-1,0.2-1.9,0.5-2.9,0.7c-1.5,0.3-3,0.5-4.5,0.6c-3.2,0-5-1.6-5.6-4.8c-0.1-0.5-0.3-0.9-0.6-1.3
	c-0.4,0.3-0.8,0.6-1.2,0.8l-2.8,1.7l-0.8-3.1l-1.7,1.2c-0.5,0.4-1.1,0.8-1.7,1.1c-1.2,0.5-1.9,0.1-1.9-1.2c0-0.7,0.1-1.4,0.2-2.1
	L221.4,131.3z M188.6,128.4c0-1.6-1.5-2.8-2.7-2.2c-2.1,1-3.5,5.9-2.3,7.8c0.2,0.3,1.1,0.6,1.3,0.5
	C187.1,133.1,188.5,130.8,188.6,128.4L188.6,128.4z"/>
<path d="M92,134.3c-3.1,1.2-5.3,4.8-8.9,1.4c-0.3,0.6-0.6,1.2-1,1.7c-1.6,1.9-4.2,2.5-6.4,1.3c-1.5-1-1.9-3.8-1-5.9
	c0.8-1.7,1.6-3.4,2.2-5.2c0.4-1.2,0-2.3-1.5-2.4c-2.7-0.1-2.8,0.5-2,2.4c1.9,5-2.8,10.1-6.7,10.9c-1.7,0.6-3.6-0.4-4.2-2.1
	c-0.3-0.8-0.2-1.7,0.2-2.5c1-2.3,2.3-4.5,3.8-6.5c0.5-0.7,1.2-1.2,0.8-2.3c-0.1-0.3,0.7-1.4,1.1-1.5c3.4-0.4,6.7-0.6,10.1-0.7
	c0.4,0,0.8,0.9,1.3,1.3c0.4,0.4,0.8,1.1,1.1,1.1c1.3-0.2,1.8,0.6,2.2,1.6c0.4,1,0.8,1.8,1.2,2.8c0.4-0.2,0.6-0.3,0.7-0.4
	c1.7-2.6,4.3-4.5,7.3-5.4c0.5-0.1,0.9-1.5,1-2.3c0.1-2.2,1.5-4,3.5-4.7c1.5-0.6,2-0.2,1.8,1.3c-0.1,0.8-0.3,1.5-0.5,2.3
	c-0.7,3.3-1.7,6.7-2.2,10.1c-0.2,2.4-0.1,4.8,0.2,7.3c0.2,1.6-0.9,3.2-2.4,3.7c-1.1,0.5-1.7,0.2-1.7-1.1c0-1.5,0-3,0-4.6
	C92.1,135.6,92,135.1,92,134.3z M82.9,131.5c-0.4-1-0.9-2-1.5-3c-0.5-0.3-1.1-0.3-1.6-0.1c-1.1,2-2.1,4.1-3,6.3
	c-0.2,0.5,0.5,1.8,1.2,2.1c0.8,0.2,1.6,0,2.2-0.6C81.2,134.6,82.1,133.1,82.9,131.5L82.9,131.5z M93.1,129.1c0-1.6-1.2-2.7-2.2-2.2
	c-2.4,1.2-4.3,3.3-5.3,5.9c-0.4,1.1,0.5,2.2,1.4,1.9c2.3-1,4.8-1.7,5.9-4.4C92.9,129.8,93,129.4,93.1,129.1L93.1,129.1z M71,130.9
	c0-0.5-0.1-1-0.3-1.5c-0.2-0.6-0.7-1.1-1.2-1.4c-0.3-0.1-1.1,0.5-1.3,0.9c-0.9,1.2-1.7,2.5-2.5,3.8c-0.7,0.9-0.6,2.1,0.2,2.9
	c0,0,0,0,0,0c0.8,0.9,2.2,0.9,3.1,0.1C70.3,134.4,71.1,132.7,71,130.9z"/>
<path d="M157.4,137.5c-0.3-1.6-0.7-3.1-0.8-4.7c-0.1-1.6,0.1-3.4,0-5.1c0-0.6-0.5-1.1-0.8-1.7c-0.5,0.4-0.8,0.8-1.2,1.3
	c-1.1,2.3-2,4.7-3.1,6.9c-0.5,0.8-1,1.5-1.7,2.1l-0.5-0.2c-0.2-0.5-0.2-1-0.3-1.5c0.1-3,0.3-6,0.5-8.9c0-0.3,0.1-0.7,0.4-0.9
	c0.5-0.4,1.3-1.1,1.6-1c0.7,0.8,1.4,1.7,1.9,2.7c0.1-0.5,0.2-0.9,0.4-1.3c0.4-0.8,0.9-1.4,1.5-2c0.6-0.5,1.5-1.1,2.1-0.9
	s1,1.2,1.2,2c0.1,0.7,0.2,1.4,0.3,2.2c0.2,0.5,0.4,0.9,0.6,1.3c0.4-0.3,0.7-0.6,1-0.9c0.6-0.8,1.2-1.5,1.9-2.1
	c0.5-0.3,1.1-0.4,1.7-0.3c0.3,0.1,0.4,1,0.3,1.6c0,1.3-0.3,2.7-0.3,4c0.1,0.6,0.4,1.2,1,1.6c0.4,0.1,1.3-0.4,1.6-0.8
	c1.1-1.6,1.9-3.3,2.9-4.9c0.6-1,1.2-2.2,2.7-1.1c0.3,0.2,1-0.2,1.5-0.4c2.4-1.1,4.2-0.5,5.3,2c1.2,2.5,1.1,5.5-0.1,8
	c-0.8,1.8-2.9,2.6-4.7,1.9c-0.4-0.2-0.6-0.6-0.9-0.9c0.3-0.3,0.6-0.7,0.9-0.8c1.3-0.5,2.5-1.2,2.7-2.7c0.3-1.8-0.4-3.7-1.8-4.9
	c-0.9-0.7-2.4-0.1-3.2,1.2c-1,1.4-1.5,3.1-1.3,4.9c0.4,4.8,0.6,9.6,0.7,14.4c0,1.3-0.3,2.7-0.8,3.9c-0.5,0.6-1.2,1-2,1
	c-0.3,0-1-1.2-1-1.8c0-3,0.2-6.1,0.3-9.1c0.1-2.4,0.2-4.7,0.2-7.1c0-1.4-0.4-1.7-1.7-1.1c-0.6,0.3-1.1,0.6-1.6,0.9
	c-1,0.6-2.3,0.4-3-0.6c-0.8-1.1-1.6-0.8-2.3,0.5S158.1,136.3,157.4,137.5L157.4,137.5z"/>
<path d="M22.5,102l-1.3,11.4l0.6,0.2c0.3-0.5,0.6-1.1,1-1.5c0.4-0.7,0.9-1.3,1.5-1.8c0.5-0.2,1-0.2,1.5,0c0.3,0.4,0.4,0.9,0.3,1.4
	c-0.3,1.9-0.7,3.7-1,5.6c0,0.4,0.3,1.2,0.6,1.2c0.5,0.1,1.1-0.1,1.4-0.5c0.6-0.9,0.9-1.8,1-2.8c0.1-3,0.8-4.3,3.2-5.1
	c0.6-0.2,1.3-0.1,1.8,0.3c0.4,0.5,0.5,1.1,0.3,1.7c-0.5,1.1-1.1,2.2-1.9,3.1c-0.8,0.9-1.1,1.5-0.2,2.4c0.6,0.8,1.7,0.9,2.5,0.3
	c0.1-0.1,0.2-0.2,0.3-0.3c0.4-0.4,0.6-1.1,1-1.6c0.2-0.2,0.5-0.3,0.8-0.4c0.1,0.3,0.4,0.7,0.3,1c-0.4,2.3-2.6,3.8-4.8,3.4
	c-0.7-0.1-1.3-0.4-1.8-0.8c-0.5-0.3-1.2-0.3-1.7,0c-2.7,2.3-4.5,0.7-4.5-2.1c0-0.5-0.1-1-0.2-1.5l-0.5-0.1c-0.4,1-0.7,2.1-1.1,3.1
	c-0.2,0.4-0.5,0.9-0.9,1.3c-0.5-0.4-0.9-0.8-1.3-1.3c-0.1-0.4-0.2-0.9-0.1-1.3c0.3-4.9,0.7-9.9,1-15.2c-1.3,0.1-2.5,0.3-3.8,0.5
	c-0.3,0.1-0.6,1-0.6,1.6c0,4.9,0.1,9.8,0.1,14.7c0,0.5,0,1,0,1.7c-1.9-0.6-2-1.9-1.9-3.2c0.2-4,0.4-8,0.7-12
	c0.1-2.3,0.2-2.2-2.1-1.8c-1.8,0.3-3.7,0.5-5.5,0.4c-1.1,0.1-2-0.8-2-1.8c0-0.1,0-0.3,0-0.4c0.1-1.1,0.4-1.6,1.7-1
	c1.2,0.4,2.5,0.5,3.8,0.3c3.9-0.5,7.7-1.3,11.6-0.3c1.1,0.3,2.2,0.8,3.3,1.3c0.2,0.1,0.2,0.7,0.3,1.1c-0.4,0.1-0.7,0.1-1.1,0
	C24.1,102.7,23.4,102.4,22.5,102z M32.4,110.6c-1.9,0.7-1.8,2.1-2.1,3.7C31.9,113.4,32.2,112.3,32.4,110.6z"/>
<path d="M206.6,119.4c0,1.5-1.3,3.2-2.5,3.2c-1.3-0.1-2.3-1.2-2.2-2.5c-0.1-1.4,1-2.5,2.4-2.6c0.1,0,0.1,0,0.2,0
	c1.1-0.1,2,0.7,2.1,1.8C206.6,119.3,206.6,119.3,206.6,119.4z"/>
</svg>
