<?xml version="1.0" encoding="utf-8"?>
<!-- Generator: Adobe Illustrator 21.1.0, SVG Export Plug-In . SVG Version: 6.00 Build 0)  -->
<svg version="1.1" id="Layer_1" xmlns="http://www.w3.org/2000/svg" xmlns:xlink="http://www.w3.org/1999/xlink" x="0px" y="0px"
	 viewBox="0 0 250 250" style="enable-background:new 0 0 250 250;" xml:space="preserve">
<style type="text/css">
	.st0{fill:#ECD93D;}
	.st1{fill:#2479BD;}
	.st2{fill:#FFFFFF;}
</style>
<title>Grocery</title>
<path class="st0" d="M166.4,143.8c-1.3,0-2.7-0.1-4-0.5c-0.2-0.1-0.4,0-0.5,0.1c-0.3,0.3-0.7,0.5-1.1,0.5l-7.5,0.8l-8.3,0.9
	l-6.8,0.7l-6.9,0.8l-6.9,0.7c-1.7,0.2-3.5,0.4-5.2,0.6c-1.7,0.2-3.4-0.3-4.7-1.3c-0.5-0.4-0.5-0.4-0.8,0.1c-0.7,1-1.7,1.7-2.7,2.3
	c-2.9,1.8-6.5,2-9.6,0.5c-0.4-0.2-0.9-0.4-1.2-0.7c-0.3-0.3-0.5-0.2-0.8,0c-0.5,0.4-1,0.8-1.5,1.2c-1.8,1.5-4.1,2.2-6.4,2.1
	c-4-0.1-7.5-2.5-9.1-6.1c-0.4-0.8-0.4-0.9-1.2-0.5c-1.9,0.8-3.9,1.4-6,1.7c-1.7,0.3-3.5,0.4-5.3,0.4c-3,0-5.9-0.7-8.5-2.2
	c-0.2-0.1-0.3-0.2-0.5,0c-1.6,1.3-3.5,2.3-5.4,3c-3.6,1.6-7.6,2.3-11.5,2.1c-3.6-0.1-7.1-1.4-9.9-3.7c-0.3-0.2-0.3-0.1-0.4,0.1
	c-0.4,1.6-0.7,3.3-1,5c-0.2,1.3-0.7,2.5-1.3,3.6c-1,1.5-2.5,2.5-4.2,3c-1,0.3-2,0.4-2.9,0.5c-2.2,0.3-4.5,0.5-6.7,0.7
	c-1.7,0.2-3.3,0.4-5,0.5c-3.1,0.3-5.9-2-6.2-5.1c0-0.1,0-0.3,0-0.4c0-1.3,0.2-2.5,0.5-3.7c0.9-4.5,1.9-8.9,2.9-13.4
	c0.1-0.4,0.1-0.4-0.4-0.4c-0.8,0.1-1.6,0.2-2.5,0.3c-0.8,0.1-1.2-0.2-1-1.1c0.5-2.6,1.1-5.1,1.7-7.7c0.8-3.8,1.6-7.7,2.4-11.5
	c0.2-1,0.9-1.9,1.9-2.2c0.5-0.2,1.1-0.4,1.6-0.5c0.8-0.2,1.4-0.8,1.5-1.6c0.6-3.1,1.7-6,3.5-8.6c2.6-3.8,6.6-6.6,11.1-7.7
	c2.4-0.7,4.9-1,7.4-1c2.5,0.1,5,0.5,7.3,1.3c2.8,0.9,5.4,2,8,3.4c0.2,0.1,0.4,0.2,0.6,0.4c0.9,0.6,1.4,1.6,1.1,2.7
	c-0.2,1.2-0.5,2.4-0.8,3.6c0,0.2,0,0.3,0.2,0.3c2.5-0.2,4.9,0.2,7.2,1.2c0.8,0.3,1.6,0.7,2.3,1.1c0.2,0.1,0.4,0.1,0.5,0
	c3.3-2.5,7.1-4.2,11.2-4.7c3-0.5,6.1-0.4,9.1,0.3c1,0.2,1.9,0.6,2.9,1c0.2,0.1,0.5,0.1,0.7,0c2.3-1.8,5.1-3,8-3.5
	c1-0.2,2.1-0.3,3.1-0.4c0.7,0,0.9-0.2,1.1-0.9c0.4-1.9,1.1-3.8,2.3-5.3c1.9-2.5,4.7-4,7.7-4.3l8-0.9l7.7-0.8c1-0.2,2-0.2,2.9-0.1
	c2.1,0.1,3.7,1.8,3.6,3.9c0,0.3-0.1,0.6-0.1,0.9c-0.6,3.6-1.3,7.2-1.9,10.8c0,0.3,0,0.4,0.3,0.3c2.7-0.6,5.4-1.1,8.1-1.5
	c1.5-0.2,3-0.2,4.5,0.1c0.5,0.1,1,0,1.5-0.2c1.3-0.4,2.7-0.9,4.2-1.1c3-0.6,6.1-0.5,9,0.2c0.9,0.2,1.8,0.6,2.6,1.2
	c0.5,0.4,1.2,0.4,1.7,0c1.4-1,2.9-1.9,4.5-2.7c1.3-0.6,2.6-0.9,4-1c3-0.2,6-0.3,8.9-0.6c3.4-0.3,6.8-0.7,10.1-1.1l9.7-1.1L209,97
	l9.5-1.1l9.3-1.2c3-0.4,6-0.8,9-1.1c1.5-0.2,3.1-0.2,4.6,0.1c1,0.2,2,0.8,2.7,1.6c1.7,1.8,2.1,4.5,1.1,6.8c-0.8,1.7-1.7,3.3-2.8,4.9
	c-2,3-3.9,6-5.8,9c-0.1,0.2-0.1,0.5,0,0.7c1.3,2.8,2.7,5.7,3.9,8.5c0.6,1.3,1,2.7,1,4.1c0,2.5-1.5,4.7-3.9,5.5
	c-1.4,0.5-2.9,0.8-4.4,0.9l-8.1,0.9l-7,0.8l-7.7,0.9l-7.1,0.8l-7.1,0.8l-6.3,0.7l-7.3,0.9c-2.1,0.3-4.2,0.5-6.3,0.7
	c-1.6,0.2-3.2,0.5-4.7,0.9C169.8,143.7,168.1,143.8,166.4,143.8z M110.9,137.6c1-0.2,1.8-1,2-2c0.1-0.1,0.1-0.3,0.1-0.5
	c0.9-4.2,1.9-8.5,2.8-12.7c1.1-4.8,2.1-9.6,3.2-14.4c0-0.3,0.1-0.4,0.4-0.4c0.8-0.1,1.6-0.2,2.4-0.3c0.9-0.1,1.7-0.3,2.6-0.6
	c0.5-0.2,0.9-0.7,1-1.2c0.5-2.7,0.9-5.3,1.3-8c0.2-0.7,0.3-1.4,0.3-2.1c0-0.8-0.4-1.3-1.2-1.2l-2.4,0.3l-7.2,0.8
	c-2.2,0.2-4.4,0.5-6.5,0.8c-2.6,0.3-4.8,2-5.6,4.5c-0.1,0.3-0.2,0.7-0.4,1c-0.5,1.5-0.7,3.1-1.1,4.6c0,0.3-0.2,0.4-0.4,0.4h-0.5
	c-2.1-0.1-4.1,0.1-6.1,0.5c-3.2,0.5-6,2.3-7.8,4.9c-0.2,0.3-0.3,0.1-0.4,0c-1.2-1.1-2.7-1.9-4.3-2.3c-2.6-0.7-5.2-0.8-7.8-0.2
	c-4.6,0.9-8.8,2.6-12,6.3c-2.3-2.6-5.7-4-9.2-3.8c-2.1,0-4.1,0.2-6.1,0.7c-0.5,0.1-0.5,0.1-0.3-0.3c0.5-2.1,1-4.3,1.5-6.4
	c0.1-0.4,0.2-0.8,0.1-1.1c-0.1-0.8-0.7-1.2-1.3-1.5c-1.6-0.7-3.2-1.4-4.9-1.9c-3.9-1.3-8-1.5-12-0.6c-6.1,1.5-10.3,5.1-11.9,11.4
	c-0.4,1.5-0.7,3.1-1,4.7c-0.1,0.5-0.4,0.9-0.9,1c-0.8,0.3-1.5,0.6-2.3,0.8c-0.8,0.3-1.4,0.9-1.5,1.7c-0.5,2.3-1,4.6-1.5,6.9
	c-0.4,1.7-0.7,3.4-1.1,5.1c-0.1,0.7,0.1,0.9,0.8,0.8c0.9-0.1,1.9-0.2,2.8-0.3c0.3,0,0.3,0,0.3,0.3c-1.3,6.1-2.6,12.2-3.9,18.3
	c-0.3,1.2-0.5,2.5-0.4,3.8c0,0.7,0.6,1.3,1.3,1.3c0.1,0,0.1,0,0.2,0c0.7,0,1.4-0.1,2.1-0.2l10.9-1.2c1.6,0,3-1.2,3.3-2.8
	c0.1-0.5,0.2-1.1,0.4-1.6l3.3-16c0.2-1.2,0.5-2.3,0.7-3.5c0-0.3,0.3-0.3,0.4-0.3c0.2,0,0.1,0.2,0,0.3c-0.4,2.3-0.4,4.6,0.1,6.9
	c0.7,4.2,3.9,7.5,8.1,8.2c2.8,0.6,5.8,0.6,8.6-0.1c4.2-0.7,8-2.9,10.8-6.1l0.1-0.1c1.4,1.6,3.2,2.8,5.2,3.3c2.5,0.7,5.2,0.8,7.8,0.3
	c4.7-0.5,9.1-2.8,12.2-6.5c0.1-0.1,0.2-0.2,0.3,0c0.2,0.2,0.4,0.4,0.6,0.6c0.1,0.1,0.1,0.2,0,0.3c-0.4,0.6-0.8,1.2-1,1.9
	c-1.2,3.2,0.4,6.7,3.5,7.9s6.7-0.4,7.9-3.5c0.1-0.1,0.1-0.3,0.1-0.4c0.1-0.4,0.3-0.8,0.5-1.1c0.4-0.5,1.1-0.6,1.6-0.2
	c0,0,0.1,0.1,0.1,0.1c0.2,0.2,0.4,0.4,0.5,0.6c0.2,0.3,0.4,0.7,0.7,1c1.6,2,4.3,2.9,6.7,2.1c2.5-0.9,4.2-3.2,4.3-5.8
	C111.9,139.6,111.6,138.5,110.9,137.6z M160.9,110.8c-0.7-1-1.7-1.8-2.7-2.5c-1.6-0.9-3.5-1.3-5.3-1.3c-3,0-6.1,0.6-8.9,1.9
	c-0.1,0.1-0.3,0.1-0.5,0.1c-2.4-0.7-5-0.7-7.5,0c-2.7,0.8-5.6,1.2-8.4,1.3c-1.4,0-2.7,0.2-4,0.5c-1,0.2-1.9,1-2.3,1.9
	c-0.9,2.3-1.6,4.7-1.9,7.2c-0.3,2.1-0.6,4.2-1,6.3c-0.9,4.4-1.8,8.9-2.8,13.2c-0.2,0.7-0.2,1.5,0,2.2c0.3,1.8,1.9,3,3.7,2.7
	c0,0,0.1,0,0.1,0c1.3-0.2,2.6-0.3,3.9-0.4l6.8-0.7l7.6-0.8l6.9-0.8c2.5-0.3,5-0.5,7.5-0.8c1.4-0.2,2.9-0.2,4.3-0.5
	c1.3-0.1,2.4-1,2.7-2.3c0-0.3,0.1-0.5,0.1-0.9l0.4,0.4c1.2,0.9,2.5,1.6,4,1.9c2.2,0.4,4.4,0.3,6.6-0.1c2-0.3,4-0.8,6-1.1
	c1.8-0.2,3.5-0.4,5.3-0.6l7.9-0.9l7.1-0.8l7.7-0.9l7.1-0.8l7.8-0.9l7.1-0.8l8-1c0.7,0,1.5-0.2,2.2-0.4c0.9-0.3,1.4-1.1,1.3-2
	c0-0.5-0.2-0.9-0.4-1.3c-1.7-3.7-3.4-7.4-5.1-11.2c-0.2-0.3-0.1-0.6,0.1-0.9c3.1-4.7,6.2-9.3,9.1-14.1c0.2-0.3,0.3-0.6,0.5-1
	c0.5-1,0-2.3-1.1-2.7c-0.3-0.1-0.7-0.2-1-0.2c-0.6,0-1.2,0.1-1.8,0.2l-7.3,0.8l-7.6,0.9l-7.6,0.9l-8.3,1l-7.6,0.9l-7.7,0.9l-7.6,0.9
	c-1.9,0.2-3.9,0.5-5.8,0.6c-2.4,0.2-4.9,0.2-7.3,0.6c-2.3,0.3-4.5,1.1-6.5,2.3C163.2,108.5,162,109.6,160.9,110.8z"/>
<path class="st1" d="M110.9,137.6c0.6,0.9,0.9,2,0.9,3.1c-0.1,2.6-1.8,4.9-4.3,5.8c-2.5,0.8-5.1,0-6.7-2.1c-0.2-0.3-0.4-0.6-0.7-1
	c-0.1-0.2-0.3-0.4-0.5-0.6c-0.5-0.4-1.2-0.4-1.6,0c0,0-0.1,0.1-0.1,0.1c-0.3,0.3-0.4,0.7-0.5,1.1c-1,3.2-4.4,5-7.6,4.1
	c-3.2-1-5-4.4-4.1-7.6c0-0.1,0.1-0.3,0.1-0.4c0.2-0.7,0.6-1.4,1-1.9c0.1-0.1,0.1-0.2,0-0.3c-0.2-0.2-0.4-0.4-0.6-0.6
	c-0.1-0.2-0.2-0.1-0.3,0c-3.1,3.6-7.4,5.9-12.2,6.5c-2.6,0.4-5.2,0.3-7.8-0.3c-2.1-0.5-3.9-1.7-5.3-3.3l-0.1,0.1
	c-2.7,3.2-6.4,5.3-10.5,6.1c-2.8,0.7-5.8,0.7-8.6,0.1c-4.2-0.7-7.4-4-8.1-8.2c-0.4-2.3-0.5-4.6-0.1-6.9c0-0.1,0.2-0.3,0-0.3
	c-0.2,0-0.4,0-0.4,0.3c-0.2,1.2-0.5,2.3-0.7,3.5l-3.3,16c-0.1,0.5-0.2,1.1-0.4,1.6c-0.3,1.6-1.6,2.8-3.3,2.8l-10.9,1.2
	c-0.7,0.1-1.4,0.1-2.1,0.2c-0.7,0.1-1.4-0.4-1.5-1.1c0-0.1,0-0.1,0-0.2c-0.1-1.3,0-2.6,0.4-3.8c1.3-6.1,2.6-12.2,3.9-18.3
	c0-0.3,0-0.3-0.3-0.3c-0.9,0.1-1.9,0.2-2.8,0.3c-0.7,0.1-0.9-0.1-0.8-0.8c0.3-1.7,0.7-3.4,1.1-5.1c0.5-2.3,0.9-4.6,1.5-6.9
	c0.1-0.8,0.7-1.5,1.5-1.7c0.8-0.3,1.5-0.6,2.3-0.8c0.5-0.1,0.9-0.5,0.9-1c0.3-1.6,0.6-3.1,1-4.7c1.6-6.3,5.8-9.8,11.9-11.4
	c4-0.9,8.1-0.7,12,0.6c1.7,0.5,3.3,1.2,4.9,1.9c0.7,0.3,1.3,0.7,1.3,1.5c0,0.4,0,0.8-0.1,1.1c-0.5,2.1-1,4.3-1.5,6.4
	c-0.1,0.4-0.1,0.4,0.3,0.3c2-0.5,4.1-0.8,6.1-0.7c3.5-0.1,6.8,1.3,9.2,3.8c3.1-3.7,7.3-5.4,12-6.3c2.6-0.5,5.3-0.5,7.8,0.2
	c1.6,0.4,3.1,1.2,4.3,2.3c0.1,0.1,0.2,0.3,0.4,0c1.9-2.6,4.7-4.4,7.8-4.9c2-0.4,4.1-0.5,6.1-0.5h0.5c0.3,0,0.4-0.1,0.4-0.4
	c0.3-1.5,0.6-3.1,1.1-4.6c0.1-0.3,0.2-0.7,0.4-1c0.8-2.5,3-4.2,5.6-4.5c2.2-0.3,4.4-0.5,6.5-0.8l7.2-0.8l2.4-0.3
	c0.8-0.1,1.2,0.4,1.2,1.2c-0.1,0.7-0.2,1.4-0.3,2.1c-0.5,2.7-0.9,5.3-1.3,8c-0.1,0.6-0.5,1-1,1.2c-0.8,0.3-1.7,0.5-2.6,0.6
	c-0.8,0.1-1.6,0.2-2.4,0.3c-0.3,0-0.4,0.2-0.4,0.4c-1,4.8-2.1,9.6-3.2,14.4c-0.9,4.2-1.8,8.5-2.8,12.7c0,0.2-0.1,0.3-0.1,0.5
	C112.9,136.7,112,137.5,110.9,137.6z M95.5,136.2c1.1,0,2.2-0.1,3.3-0.3c3.1-0.4,6.1-1,9.2-1.5c0.3,0,0.5-0.2,0.5-0.5
	c0.3-1.6,0.7-3.1,1-4.7l3.6-17.1c0.6-2.8,1.2-5.6,1.8-8.4c0-0.2,0.2-0.4,0.4-0.3l5.3-0.6c0.2,0,0.3-0.1,0.3-0.3
	c0.1-0.7,0.3-1.5,0.4-2.2c0.1-0.5,0.1-0.5-0.4-0.4l-9.1,1c-1.7,0-3.2,1.2-3.4,2.9c-0.5,2.2-1,4.4-1.5,6.7l-4,17.9
	c0,0.1,0,0.3-0.2,0.4c-1.5,0.8-3.1,1.2-4.8,1.2c-1.2,0.1-2.2-0.7-2.3-1.9c-0.1-0.4-0.1-0.9-0.1-1.3c0.1-1.3,0.4-2.6,0.7-3.9
	c0.2-1.1,0.4-2.1,0.7-3.1c0.2-0.9,0.9-1.6,1.7-1.9c1.1-0.4,2.2-0.5,3.4-0.3c0.3,0,0.4,0,0.5-0.3c0.3-1.5,0.7-3,1-4.4
	c0.2-0.7,0.2-0.7-0.5-0.8c-2.8-0.6-5.7-0.4-8.4,0.7c-1.3,0.5-2.4,1.5-3.1,2.7c-0.4,0.8-0.8,1.6-1,2.5c-0.8,2.4-1.2,4.9-1.8,7.4
	c-0.5,1.9-0.5,3.8-0.2,5.7c0.2,1.9,1.3,3.6,3,4.5C92.8,136,94.2,136.3,95.5,136.2z M42.1,113.7c0.5-2.3,1-4.5,1.6-6.7
	c0.1-0.4,0-0.5-0.3-0.7c-3.5-1.4-7.4-1.7-11.1-0.8c-4.1,0.8-7.3,4-8.1,8.1c-0.6,2.3-1,4.7-1.5,7c0,0.2-0.2,0.4-0.4,0.5l-3.7,1.5
	c-0.2,0.1-0.4,0.2-0.4,0.4c-0.3,1.3-0.5,2.7-0.9,4c-0.1,0.3,0,0.4,0.3,0.3l3.4-0.4c0.3,0,0.4,0,0.3,0.3c-0.5,2.4-1,4.8-1.5,7.2
	c-1.1,5.3-2.3,10.7-3.4,16.1c0,0.3,0,0.3,0.3,0.3l2.2-0.2l4.7-0.5c0.2,0,0.4,0,0.5-0.4c1.1-5.3,2.2-10.6,3.3-15.9l1.6-7.4
	c0-0.2,0-0.3,0.3-0.4c2.3-0.3,4.7-0.5,7-0.8c0.3,0,0.5-0.2,0.5-0.4c0.4-1.8,0.8-3.7,1.2-5.5c0-0.3,0-0.3-0.3-0.3l-3.2,0.4l-3.8,0.4
	c-0.2,0-0.4,0-0.3-0.3c0.4-1.7,0.7-3.4,1.1-5.1c0.3-1.4,1.3-2.5,2.7-2.8c1.6-0.4,3.3-0.4,4.9,0C40,112.2,41.2,112.8,42.1,113.7z
	 M61.1,124c0-0.9-0.1-1.7-0.2-2.6c-0.3-1.6-1.2-3-2.7-3.8c-1.1-0.5-2.2-0.8-3.4-0.8c-1.7-0.1-3.5,0.1-5.2,0.5
	c-3.4,0.7-6.3,2.7-8.1,5.7c-2.3,3.9-3.5,8.4-3.3,13c0,1.3,0.4,2.5,1.1,3.5c1.1,1.4,2.8,2.2,4.6,2.3c2,0.2,4,0,5.9-0.5
	c3.7-0.7,6.8-3,8.6-6.3C60,131.6,61,127.8,61.1,124L61.1,124z M86.1,121.2c0-1-0.1-1.9-0.3-2.9c-0.6-2.5-2.7-4.2-5.2-4.3
	c-1.9-0.2-3.9,0-5.8,0.4c-3.5,0.7-6.6,2.8-8.5,5.9c-0.9,1.6-1.6,3.3-2.1,5c-0.8,2.6-1.1,5.4-0.9,8.1c0.1,1.2,0.5,2.4,1.2,3.3
	c1.1,1.4,2.8,2.1,4.6,2.2c1.8,0.1,3.6,0,5.3-0.4c4.3-0.7,7.9-3.6,9.6-7.7C85.3,127.8,86,124.5,86.1,121.2z M107.8,140.7
	c0-1.2-0.9-2.2-2.1-2.2c0,0,0,0,0,0c-1.2,0-2.2,0.9-2.2,2.1c0,0,0,0,0,0.1c0,1.2,0.9,2.2,2.1,2.3c0,0,0,0,0,0
	C106.8,142.9,107.8,141.9,107.8,140.7C107.8,140.7,107.8,140.7,107.8,140.7L107.8,140.7z M93.7,142.2c0-1.2-1-2.2-2.2-2.2
	c0,0,0,0,0,0c-1.2,0-2.2,1-2.1,2.2c0,0,0,0,0,0c0,1.2,1,2.2,2.2,2.2c0,0,0,0,0,0C92.8,144.4,93.8,143.4,93.7,142.2
	C93.7,142.2,93.7,142.2,93.7,142.2z"/>
<path class="st1" d="M160.9,110.8c1-1.3,2.1-2.4,3.5-3.2c2-1.2,4.2-2,6.5-2.3c2.4-0.4,4.8-0.5,7.3-0.6c1.9-0.1,3.9-0.4,5.8-0.6
	l7.6-0.9l7.7-0.9l7.6-0.9l8.3-1l7.6-0.9l7.6-0.9l7.3-0.8c0.6-0.1,1.2-0.1,1.8-0.2c1.1-0.1,2.1,0.7,2.3,1.9c0,0.4,0,0.7-0.2,1
	c-0.1,0.3-0.3,0.7-0.5,1c-2.8,4.8-6,9.4-9.1,14.1c-0.2,0.3-0.2,0.6-0.1,0.9c1.7,3.7,3.4,7.4,5.1,11.2c0.2,0.4,0.3,0.9,0.4,1.3
	c0.1,0.9-0.5,1.8-1.3,2c-0.7,0.2-1.4,0.4-2.2,0.4l-8,1l-7.1,0.8L211,134l-7.1,0.8l-7.7,0.9l-7.1,0.8l-7.9,0.9
	c-1.8,0.2-3.5,0.4-5.3,0.6c-2,0.3-4,0.8-6,1.1c-2.2,0.5-4.4,0.5-6.6,0.1c-1.5-0.3-2.8-0.9-4-1.9l-0.4-0.4c0,0.3-0.1,0.6-0.1,0.9
	c-0.3,1.3-1.4,2.2-2.7,2.3c-1.4,0.3-2.9,0.3-4.3,0.5c-2.5,0.3-5,0.6-7.5,0.8l-6.9,0.8l-7.6,0.8l-6.8,0.7c-1.3,0.1-2.6,0.2-3.9,0.4
	c-1.8,0.3-3.5-0.8-3.8-2.6c0,0,0-0.1,0-0.1c-0.2-0.7-0.2-1.5,0-2.2c0.9-4.4,1.9-8.9,2.8-13.2c0.4-2.1,0.7-4.2,1-6.3
	c0.4-2.5,1-4.9,1.9-7.2c0.4-1,1.3-1.7,2.3-1.9c1.3-0.3,2.7-0.5,4-0.5c2.8-0.1,5.7-0.6,8.4-1.3c2.4-0.7,5-0.7,7.5,0
	c0.2,0,0.3,0,0.5-0.1c2.8-1.2,5.8-1.8,8.9-1.9c1.9,0,3.7,0.4,5.3,1.3C159.1,108.9,160.1,109.8,160.9,110.8z M133.8,137.7h0.3
	c2.3-0.3,4.5-0.5,6.8-0.8c0.3,0,0.5-0.2,0.5-0.5c0,0,0,0,0,0c1.1-5.4,2.1-10.8,3.2-16.1c0-0.2,0.1-0.4,0.3-0.5
	c1.1-0.8,2.4-1.3,3.7-1.5c1.1-0.1,1.7,0.5,1.5,1.6c-0.4,1.9-0.8,3.8-1.1,5.8l-2,10.1c0,0.2-0.1,0.4,0.3,0.4c2.2-0.3,4.5-0.5,6.7-0.8
	c0.2,0,0.5-0.2,0.5-0.4c0,0,0,0,0,0c0.9-4.9,1.9-9.8,2.9-14.7c0.3-1.4,0.5-2.8,0.4-4.2c0-1.9-1.4-3.6-3.3-3.9
	c-1.4-0.2-2.8-0.2-4.2,0.1c-2.2,0.3-4.3,1.1-6.3,2.3c-0.3,0.2-0.5,0.3-0.7-0.1c-0.1-0.2-0.3-0.4-0.5-0.5c-0.6-0.4-1.4-0.5-2.1-0.5
	c-2.1-0.1-4.2,0.3-6.1,1.2c-1.3,0.5-2.6,1.2-3.7,2.1c-0.1-0.4-0.3-0.8-0.4-1.2c-0.1-0.4-0.2-0.3-0.4-0.3l-3.8,0.4
	c-0.2,0-0.4,0.1-0.4,0.3c-1.6,7.6-3.2,15.1-4.8,22.7c-0.1,0.4-0.1,0.5,0.3,0.4c2.2-0.2,4.4-0.5,6.6-0.7c0.3,0,0.6-0.2,0.6-0.6
	c0,0,0,0,0,0c1.1-5.2,2.1-10.4,3.2-15.6c0.1-0.5,0.4-0.9,0.8-1.1c1.1-0.7,2.4-1.2,3.8-1.2c0.5-0.1,1,0.3,1.1,0.9c0,0.1,0,0.2,0,0.3
	c0,0.2,0,0.3,0,0.5l-1.8,8L133.8,137.7z M160.6,127.9c0,0.9,0.1,1.8,0.3,2.7c0.2,1.7,1.4,3.1,3,3.7c1.2,0.4,2.5,0.5,3.8,0.4
	c2.9-0.2,5.7-1.3,8-3.2c0.2-0.1,0.3-0.1,0.3,0.1c0.2,0.4,0.5,0.8,0.7,1.3c0.1,0.2,0.2,0.2,0.4,0.2c1.3-0.2,2.6-0.3,3.9-0.4
	c0.3,0,0.4-0.1,0.4-0.4c0.2-1.1,0.4-2.2,0.6-3.3l2.4-13.1c0.4-2.1,0.8-4.2,1.1-6.3c0-0.3,0-0.4-0.4-0.4c-1.2,0.2-2.5,0.3-3.7,0.4
	c-0.2,0-0.4,0.1-0.5,0.3c-0.4,0.5-0.8,1-1.2,1.5c-0.2,0.2-0.3,0.3-0.5,0c-0.6-0.5-1.4-1-2.2-1.2c-1.8-0.5-3.8-0.5-5.6-0.1
	c-3.4,0.6-6.4,2.8-7.9,6C161.7,119.6,160.7,123.7,160.6,127.9L160.6,127.9z M196.9,123.7c0.8,2.2,1.5,4.3,2.3,6.4
	c0.1,0.3,0.2,0.3,0.5,0.3c2.5-0.3,5-0.6,7.5-0.8c0.4,0,0.4-0.1,0.2-0.5c-1.5-3.5-3-7-4.5-10.5c-0.1-0.2-0.1-0.5,0-0.7
	c2.6-3.8,5.2-7.6,7.8-11.4c0.1-0.1,0.2-0.2,0.2-0.3c0-0.1-0.2,0-0.2,0l-7.4,0.8c-0.2,0-0.4,0.2-0.5,0.4l-4,6.4
	c0,0.1-0.1,0.2-0.2,0.3l-0.1-0.3l-1.8-5.7c0-0.2-0.1-0.3-0.4-0.3c-2.4,0.3-4.9,0.6-7.3,0.8c-0.4,0-0.4,0.1-0.3,0.5
	c1.3,3.3,2.7,6.7,4,9.9c0.1,0.2,0.1,0.5-0.1,0.7c-2.8,4-5.7,8.1-8.5,12.1c-0.1,0.1-0.2,0.2-0.2,0.4h0.2l7.6-0.8
	c0.2,0,0.4-0.1,0.5-0.3c0.9-1.3,1.7-2.7,2.7-4.1L196.9,123.7z M211.7,105.9l0.2,0.5c1.4,3.3,2.8,6.5,4.2,9.8
	c0.1,0.2,0.1,0.5-0.1,0.7l-8.2,12.2c-0.1,0.1-0.2,0.2-0.2,0.4h0.1l7.7-1c0.2,0,0.4-0.1,0.5-0.3c1.4-2.3,2.8-4.6,4.2-6.9
	c0.1-0.1,0.1-0.3,0.3-0.3l0.1,0.3l2.3,6c0,0.2,0.1,0.3,0.3,0.3l7.6-0.9c0.3,0,0.4-0.1,0.2-0.4c-1.6-3.5-3.2-6.9-4.8-10.4
	c-0.2-0.3-0.2-0.6,0-0.9c2.5-3.8,5-7.6,7.4-11.4c0.1-0.1,0.2-0.2,0.2-0.4h-0.2c-2.4,0.3-4.8,0.6-7.2,0.9c-0.3,0-0.6,0.2-0.7,0.5
	c-1.2,2.1-2.4,4.2-3.7,6.3c-0.1,0.1-0.1,0.3-0.3,0.3l-0.1-0.4l-1.8-5.3c-0.2-0.6-0.2-0.6-0.8-0.5l-4.2,0.5L211.7,105.9z"/>
<path class="st2" d="M95.5,136.2c-1.3,0.1-2.6-0.2-3.8-0.8c-1.6-1-2.7-2.6-3-4.5c-0.3-1.9-0.2-3.9,0.2-5.7c0.5-2.5,1-5,1.8-7.4
	c0.3-0.9,0.6-1.7,1-2.5c0.6-1.3,1.7-2.2,3.1-2.7c2.7-1,5.6-1.3,8.4-0.7c0.7,0.1,0.7,0.1,0.5,0.8c-0.3,1.5-0.7,2.9-1,4.4
	c-0.1,0.3-0.2,0.4-0.5,0.3c-1.1-0.2-2.3-0.1-3.4,0.3c-0.8,0.3-1.5,1-1.7,1.9c-0.3,1-0.6,2.1-0.7,3.1c-0.3,1.3-0.5,2.6-0.7,3.9
	c0,0.4,0,0.9,0.1,1.3c0.2,1.1,1.2,2,2.3,1.9c1.7,0,3.3-0.4,4.8-1.2c0.2-0.1,0.2-0.2,0.2-0.4l4-17.9c0.5-2.2,1-4.5,1.5-6.7
	c0.2-1.7,1.7-2.9,3.4-2.9l9.1-1c0.5,0,0.5,0,0.4,0.4c-0.1,0.7-0.3,1.5-0.4,2.2c0,0.2-0.1,0.3-0.3,0.3l-5.3,0.6
	c-0.2,0-0.4,0.1-0.4,0.3c-0.6,2.8-1.2,5.6-1.8,8.4l-3.6,17.1c-0.3,1.6-0.7,3.1-1,4.7c0,0.3-0.2,0.5-0.5,0.5
	c-3.1,0.5-6.1,1.1-9.2,1.5C97.8,136.1,96.6,136.2,95.5,136.2z"/>
<path class="st2" d="M42.1,113.7c-0.9-0.9-2-1.5-3.2-1.8c-1.6-0.4-3.3-0.4-4.9,0c-1.4,0.3-2.4,1.4-2.7,2.8c-0.4,1.7-0.7,3.4-1.1,5.1
	c-0.1,0.3,0.1,0.3,0.3,0.3l3.8-0.4l3.2-0.4c0.3,0,0.3,0,0.3,0.3c-0.4,1.8-0.8,3.7-1.2,5.5c0,0.3-0.2,0.4-0.5,0.4
	c-2.3,0.3-4.7,0.5-7,0.8c-0.2,0-0.3,0.2-0.3,0.4l-1.6,7.5c-1.1,5.3-2.2,10.6-3.3,15.9c0,0.3-0.2,0.3-0.5,0.4l-4.7,0.5l-2.2,0.2
	c-0.3,0-0.3,0-0.3-0.3c1.2-5.3,2.3-10.7,3.4-16.1c0.5-2.4,1-4.8,1.5-7.2c0.1-0.3,0-0.4-0.3-0.3l-3.4,0.4c-0.3,0-0.4,0-0.3-0.3
	c0.3-1.3,0.6-2.7,0.9-4c0-0.2,0.2-0.4,0.4-0.4l3.7-1.5c0.2-0.1,0.4-0.3,0.4-0.5c0.5-2.3,0.9-4.7,1.5-7c0.8-4.1,4-7.3,8.1-8.1
	c3.7-0.9,7.6-0.6,11.1,0.8c0.3,0.1,0.4,0.3,0.3,0.7C43.1,109.2,42.6,111.4,42.1,113.7z"/>
<path class="st2" d="M61.1,124c-0.1,3.8-1.1,7.6-2.8,11c-1.8,3.3-4.9,5.6-8.6,6.3c-1.9,0.5-3.9,0.7-5.9,0.5c-1.8,0-3.5-0.8-4.6-2.2
	c-0.7-1-1.1-2.3-1.1-3.5c-0.2-4.5,1-9,3.3-12.9c1.8-2.9,4.8-5,8.1-5.7c1.7-0.4,3.4-0.6,5.2-0.5c1.2,0,2.4,0.3,3.4,0.8
	c1.4,0.8,2.4,2.2,2.7,3.8C61,122.3,61.1,123.1,61.1,124z M53.5,125.7c0-0.5,0-1-0.2-1.5c-0.1-0.7-0.7-1.3-1.5-1.3
	c-0.6-0.1-1.2,0-1.8,0.2c-1.3,0.4-2.4,1.4-2.9,2.8c-0.9,2.2-1.4,4.6-1.5,6.9c-0.1,0.6,0,1.2,0.2,1.8c0.2,0.6,0.7,1,1.3,1.1
	c1.6,0.3,3.2-0.3,4.1-1.6c0.3-0.4,0.6-0.9,0.8-1.3C52.9,130.4,53.4,128.1,53.5,125.7L53.5,125.7z"/>
<path class="st2" d="M86.1,121.2c-0.1,3.3-0.8,6.6-2,9.7c-1.6,4-5.3,6.9-9.6,7.7c-1.7,0.4-3.5,0.5-5.3,0.4c-1.8,0-3.4-0.8-4.6-2.2
	c-0.7-1-1.1-2.1-1.2-3.3c-0.2-2.7,0.1-5.5,0.9-8.1c0.4-1.8,1.1-3.5,2.1-5c1.9-3.1,4.9-5.2,8.5-5.9c1.9-0.4,3.8-0.6,5.8-0.4
	c2.5,0.1,4.7,1.8,5.2,4.3C86,119.3,86.1,120.2,86.1,121.2z M78.5,123c0-0.3,0-0.6,0-0.9c-0.1-1.2-0.7-1.9-1.7-2
	c-1.4-0.2-2.7,0.3-3.6,1.4c-0.5,0.6-0.9,1.3-1.1,2.1c-0.6,1.9-1,3.8-1.2,5.7c-0.1,0.7,0,1.5,0.2,2.2c0.2,0.7,0.7,1.2,1.4,1.3
	c1.7,0.3,3.4-0.4,4.3-1.9c0.2-0.4,0.4-0.8,0.6-1.2C78.1,127.5,78.5,125.3,78.5,123L78.5,123z"/>
<path class="st2" d="M107.8,140.7c0,1.2-1,2.2-2.1,2.2c0,0,0,0,0,0c-1.2,0-2.2-1-2.2-2.2c0,0,0,0,0,0c0-1.2,0.9-2.2,2.1-2.2
	c0,0,0,0,0.1,0C106.9,138.5,107.9,139.5,107.8,140.7C107.8,140.7,107.8,140.7,107.8,140.7z"/>
<path class="st2" d="M93.7,142.2c0,1.2-1,2.2-2.2,2.2c0,0,0,0,0,0c-1.2,0-2.2-1-2.2-2.2c0-1.2,0.9-2.2,2.1-2.2c0,0,0,0,0,0
	C92.8,140,93.7,141,93.7,142.2z"/>
<path class="st2" d="M133.8,137.7l1.7-8.2l1.6-7.9c0-0.2,0-0.3,0-0.5c0.1-0.5-0.2-1.1-0.8-1.2c-0.1,0-0.2,0-0.3,0
	c-1.3,0-2.6,0.4-3.8,1.2c-0.4,0.2-0.7,0.6-0.8,1.1c-1.1,5.2-2.1,10.4-3.2,15.6c0,0.3-0.3,0.6-0.6,0.6c0,0,0,0,0,0
	c-2.2,0.2-4.4,0.5-6.6,0.7c-0.4,0-0.4,0-0.3-0.4c1.6-7.6,3.2-15.1,4.8-22.7c0-0.2,0.2-0.3,0.4-0.3l3.8-0.4c0.3,0,0.4,0,0.4,0.3
	s0.3,0.8,0.4,1.2c1.1-0.9,2.4-1.5,3.7-2.1c1.9-0.8,4-1.2,6.1-1.2c0.7,0,1.5,0.2,2.1,0.5c0.2,0.1,0.4,0.3,0.5,0.5
	c0.2,0.4,0.4,0.3,0.7,0.1c1.9-1.2,4-2,6.3-2.3c1.4-0.3,2.8-0.3,4.2-0.1c1.9,0.3,3.3,1.9,3.3,3.9c0,1.4-0.1,2.8-0.4,4.2
	c-1,4.9-1.9,9.8-2.9,14.7c0,0.3-0.2,0.4-0.5,0.4c0,0,0,0,0,0c-2.2,0.2-4.5,0.5-6.7,0.8c-0.4,0-0.3-0.1-0.3-0.4l2-10.1
	c0.4-1.9,0.8-3.8,1.1-5.8c0.2-1.1-0.3-1.7-1.5-1.6c-1.3,0.2-2.6,0.7-3.7,1.5c-0.2,0.1-0.3,0.3-0.3,0.5c-1.1,5.4-2.1,10.8-3.2,16.1
	c0,0.3-0.2,0.5-0.5,0.5c0,0,0,0,0,0c-2.3,0.2-4.6,0.5-6.8,0.8L133.8,137.7z"/>
<path class="st2" d="M160.6,127.9c0.1-4.2,1.1-8.3,3-12c1.5-3.1,4.4-5.4,7.9-6c1.9-0.4,3.8-0.4,5.6,0.1c0.8,0.2,1.5,0.6,2.2,1.2
	c0.2,0.2,0.3,0.2,0.5,0c0.4-0.5,0.8-1,1.2-1.5c0.1-0.2,0.3-0.2,0.5-0.3c1.2-0.1,2.5-0.3,3.7-0.4c0.4,0,0.4,0,0.4,0.4
	c-0.4,2.1-0.8,4.2-1.1,6.3l-2.4,13.2c-0.2,1.1-0.4,2.2-0.6,3.3c0,0.3-0.1,0.3-0.4,0.4c-1.3,0.1-2.6,0.3-3.9,0.4
	c-0.2,0-0.3,0-0.4-0.2c-0.2-0.4-0.5-0.8-0.7-1.3c-0.1-0.2-0.2-0.2-0.3-0.1c-2.3,1.9-5.1,3-8,3.2c-1.3,0.2-2.6,0.1-3.8-0.4
	c-1.6-0.6-2.7-2.1-3-3.7C160.6,129.7,160.5,128.8,160.6,127.9z M168.1,125.2c0,0.2,0,0.3,0,0.5c-0.1,1.3,0.8,2.4,2.1,2.6
	c0.2,0,0.4,0,0.6,0c1.3-0.1,2.7-0.5,3.8-1.2c0.2-0.1,0.3-0.3,0.4-0.6c0.6-3.3,1.2-6.5,1.8-9.8c0.1-0.3,0-0.6-0.3-0.7
	c0,0-0.1,0-0.1,0c-2.7-1.1-5.8,0.1-7,2.8C168.6,120.9,168.2,123,168.1,125.2L168.1,125.2z"/>
<path class="st2" d="M196.9,123.7l-2,3.2c-0.9,1.3-1.8,2.7-2.7,4.1c-0.1,0.2-0.3,0.3-0.5,0.3l-7.6,0.8h-0.2c0-0.2,0.1-0.3,0.2-0.4
	c2.8-4,5.7-8.1,8.5-12.1c0.2-0.2,0.2-0.5,0.1-0.7c-1.3-3.3-2.7-6.7-4-9.9c-0.1-0.3-0.1-0.4,0.3-0.5c2.4-0.3,4.9-0.5,7.3-0.8
	c0.3,0,0.3,0.1,0.4,0.3l1.8,5.7l0.1,0.3c0.1,0,0.2-0.2,0.2-0.3l4-6.4c0.1-0.2,0.3-0.3,0.5-0.4l7.4-0.8c0.1,0,0.2,0,0.2,0
	s-0.1,0.2-0.2,0.3c-2.6,3.8-5.2,7.6-7.8,11.4c-0.1,0.2-0.1,0.5,0,0.7c1.5,3.5,3,7,4.5,10.5c0.1,0.3,0.2,0.4-0.2,0.5
	c-2.5,0.3-5,0.5-7.5,0.8c-0.3,0-0.4,0-0.5-0.3C198.4,128,197.6,125.9,196.9,123.7z"/>
<path class="st2" d="M211.7,105.9l3.1-0.4l4.2-0.5c0.6-0.1,0.6-0.1,0.8,0.5l1.8,5.3l0.1,0.4c0.2,0,0.2-0.2,0.3-0.3
	c1.2-2.1,2.5-4.2,3.7-6.3c0.1-0.3,0.4-0.5,0.7-0.5c2.4-0.3,4.8-0.6,7.2-0.9h0.2c0,0.2-0.1,0.3-0.2,0.4c-2.5,3.8-4.9,7.6-7.4,11.4
	c-0.2,0.3-0.2,0.6,0,0.9c1.6,3.5,3.2,6.9,4.8,10.4c0.1,0.3,0.1,0.4-0.2,0.4l-7.6,0.9c-0.3,0-0.3-0.1-0.3-0.3l-2.3-6l-0.1-0.3
	c-0.2,0-0.2,0.2-0.3,0.3c-1.4,2.3-2.8,4.6-4.2,6.9c-0.1,0.2-0.3,0.3-0.5,0.3l-7.7,1h-0.1c0-0.2,0.1-0.3,0.2-0.4l8.2-12.2
	c0.2-0.2,0.2-0.5,0.1-0.7c-1.4-3.3-2.8-6.5-4.2-9.8L211.7,105.9z"/>
<path class="st1" d="M53.5,125.7c-0.1,2.4-0.6,4.7-1.5,7c-0.2,0.5-0.5,0.9-0.8,1.3c-0.9,1.3-2.5,1.9-4.1,1.6
	c-0.6-0.1-1.1-0.5-1.3-1.1c-0.2-0.6-0.3-1.2-0.2-1.8c0.1-2.4,0.6-4.7,1.5-6.9c0.5-1.3,1.6-2.3,2.9-2.7c0.6-0.2,1.2-0.2,1.8-0.2
	c0.7,0.1,1.3,0.6,1.5,1.3C53.5,124.7,53.5,125.2,53.5,125.7z"/>
<path class="st1" d="M78.5,123c-0.1,2.3-0.5,4.5-1.3,6.7c-0.2,0.4-0.3,0.8-0.6,1.2c-0.8,1.5-2.5,2.3-4.2,2c-0.7-0.1-1.3-0.6-1.5-1.3
	c-0.2-0.7-0.3-1.5-0.1-2.3c0.2-2,0.6-3.9,1.2-5.7c0.2-0.8,0.6-1.5,1.1-2.1c0.9-1,2.2-1.5,3.6-1.3c1.1,0.1,1.6,0.8,1.7,2
	C78.5,122.4,78.5,122.7,78.5,123z"/>
<path class="st1" d="M168.1,125.2c0.1-2.2,0.5-4.3,1.3-6.4c1.1-2.7,4.3-4,7-2.8c0.3,0.1,0.5,0.4,0.4,0.6c0,0,0,0.1,0,0.1
	c-0.6,3.3-1.2,6.5-1.8,9.8c0,0.2-0.2,0.4-0.4,0.6c-1.1,0.7-2.5,1.1-3.8,1.2c-1.3,0.2-2.5-0.7-2.7-2c0-0.2,0-0.4,0-0.6
	C168.1,125.5,168.1,125.4,168.1,125.2z"/>
</svg>
