<?xml version="1.0" encoding="utf-8"?>
<!-- Generator: Adobe Illustrator 21.1.0, SVG Export Plug-In . SVG Version: 6.00 Build 0)  -->
<svg version="1.1" id="Layer_1" xmlns="http://www.w3.org/2000/svg" xmlns:xlink="http://www.w3.org/1999/xlink" x="0px" y="0px"
	 viewBox="0 0 250 250" style="enable-background:new 0 0 250 250;" xml:space="preserve">
<style type="text/css">
	.st0{fill:#009A7B;}
	.st1{fill:#ED3E33;}
	.st2{fill:#FFFFFF;}
</style>
<title>Grocery</title>
<polygon points="68,92.7 62.9,92.7 62.4,95.4 65.9,95.4 64.5,100.8 61,100.8 59.7,107.3 53.5,107.6 58.1,87 68,87 68,92.7 "/>
<path d="M86.4,99.7c-1,2.4-2.6,4.4-4.6,5.9c-1.9,1.4-4.2,2.1-6.5,2.2c-0.7,0-1.5,0-2.2-0.3c-2-0.3-3.7-1.5-4.6-3.2
	c-1.1-2.2-1.3-4.7-0.5-7c0.5-3,2-5.6,4.3-7.6c2-2,4.7-3.2,7.6-3.2c0.8,0,1.3,0.3,1.9,0.3c1.7,0.3,3.3,1.2,4.3,2.7
	c1.1,1.6,1.7,3.5,1.6,5.4c-0.1,0.8-0.3,1.6-0.5,2.4C87.2,98.1,86.9,99,86.4,99.7L86.4,99.7z M81.6,96.2c0.3-1.8-1-3.5-2.8-3.8
	c-0.1,0-0.1,0-0.2,0c-1.5,0-3,0.9-3.8,2.2c-0.5,0.8-0.9,1.7-1.1,2.7c-0.3,1.1-0.2,2.2,0.3,3.2c0.5,0.8,1.4,1.3,2.4,1.3
	c1.5,0,3-0.9,3.8-2.2c0.7-0.7,1.1-1.7,1.1-2.7c0.1,0,0.3-0.1,0.3-0.3L81.6,96.2L81.6,96.2z"/>
<path d="M86.4,99.7c-1,2.4-2.6,4.4-4.6,5.9c-1.9,1.4-4.2,2.1-6.5,2.2c-0.7,0-1.5,0-2.2-0.3c-2-0.3-3.7-1.5-4.6-3.2
	c-1.1-2.2-1.3-4.7-0.5-7c0.5-3,2-5.6,4.3-7.6c2-2,4.7-3.2,7.6-3.2c0.8,0,1.3,0.3,1.9,0.3c1.7,0.3,3.3,1.2,4.3,2.7
	c1.1,1.6,1.7,3.5,1.6,5.4c-0.1,0.8-0.3,1.6-0.5,2.4C87.2,98.1,86.9,99,86.4,99.7L86.4,99.7z"/>
<path d="M81.6,96.2c0.3-1.8-1-3.5-2.8-3.8c-0.1,0-0.1,0-0.2,0c-1.5,0-3,0.9-3.8,2.2c-0.5,0.8-0.9,1.7-1.1,2.7
	c-0.3,1.1-0.2,2.2,0.3,3.2c0.5,0.8,1.4,1.3,2.4,1.3c1.5,0,3-0.9,3.8-2.2c0.7-0.7,1.1-1.7,1.1-2.7c0.1,0,0.3-0.1,0.3-0.3L81.6,96.2
	L81.6,96.2z"/>
<path d="M107.5,99.7c-1,2.4-2.6,4.4-4.6,5.9c-1.9,1.4-4.2,2.1-6.5,2.2c-0.7,0-1.4-0.1-2.1-0.3c-2-0.3-3.7-1.5-4.6-3.2
	c-1.1-2.2-1.3-4.7-0.5-7c0.5-3,2-5.6,4.3-7.6c2-2,4.7-3.1,7.5-3.2c0.8,0,1.3,0.3,1.9,0.3c1.7,0.3,3.3,1.2,4.3,2.7
	c1.1,1.6,1.7,3.5,1.6,5.4c-0.1,0.8-0.3,1.6-0.5,2.4C108.3,98.1,108,99,107.5,99.7L107.5,99.7z M102.7,96.2c0.3-1.8-1-3.5-2.8-3.8
	c-0.1,0-0.1,0-0.2,0c-1.5,0-3,0.9-3.8,2.2c-0.5,0.8-0.9,1.7-1.1,2.7c-0.3,1.1-0.2,2.2,0.3,3.2c0.5,0.8,1.4,1.3,2.4,1.3
	c1.5-0.1,2.9-0.9,3.8-2.2c0.7-0.7,1.1-1.7,1.1-2.7c0.1,0,0.3-0.1,0.3-0.3L102.7,96.2L102.7,96.2z"/>
<path d="M126.7,95.7v0.8c0,0.3-0.3,0.5-0.3,0.8c-0.6,3-2.2,5.7-4.6,7.6c-1,0.7-2.1,1.4-3.2,1.9c-1.1,0.3-2.3,0.5-3.5,0.5h-7
	l4.6-20.3h7.3c1.6,0.2,3,0.7,4.3,1.6c1.2,0.9,2,2.3,2.2,3.8C126.8,93.5,126.9,94.6,126.7,95.7L126.7,95.7z M120.5,95.7
	c-0.1-1.3-0.9-2.3-2.2-2.7h-1.1l-1.9,8.7h1.1c0.6-0.2,1.1-0.5,1.6-0.8c0.7-0.4,1.2-1,1.6-1.6c0.3-0.5,0.5-1.3,0.8-1.9L120.5,95.7
	L120.5,95.7z"/>
<path d="M54.5,122.2v1.3c-0.2,0.6-0.4,1.3-0.5,1.9c-1.3,5.9-4.3,11.2-8.6,15.4c-2.2,1.9-4.6,3.5-7.3,4.6c-2.9,0.9-5.9,1.4-8.9,1.3
	h-1.3l-1.1-0.3l-4,17.6l-17.7,1l13.8-61.1h21.7c0.8,0,1.3,0,1.6,0.3c0.8,0,1.6,0.1,2.4,0.3c4,1.1,6.8,3,8.4,5.9
	C54.5,113.2,55.1,117,54.5,122.2L54.5,122.2z M38.9,126.8c0.1-0.4,0.2-0.9,0.3-1.3c0.2-0.4,0.3-0.9,0.3-1.3c0.1-1.2-0.2-2.5-0.8-3.5
	c-0.7-1-1.8-1.6-3-1.6h-2.7l-3,13.2h1.9C35.4,132.3,37.5,130.4,38.9,126.8L38.9,126.8z"/>
<path d="M82.9,147.5H71l0.8-3.8l-0.8,0.8c-2.6,2.2-5.8,3.4-9.2,3.5c-0.8,0-1.6,0-2.4-0.3c-4.6-1.1-6.8-3.8-6.5-7.8c-0.1-1,0-2,0.3-3
	c0.9-3.8,3.5-6.9,7-8.4c1.7-0.8,3.5-1.3,5.4-1.3c1.1,0.1,2.2,0.2,3.2,0.5c1.3,0.3,2.5,0.9,3.5,1.6l0.8,0.8l0.5-1.9v-0.3
	c0.2-0.6,0.1-1.2-0.3-1.6c-0.5-1.6-2.4-2.4-5.9-2.4l-1.3,0.3h-1.1c-1.6,0.2-3.1,0.4-4.6,0.8l-1.3,0.3l3.8-8.1l3-0.3
	c2.7-0.5,5.4-0.8,8.1-0.8c5.4,0,9.2,1.1,11.4,3.2c2.2,2.2,2.7,5.1,1.9,8.9L82.9,147.5z M71.6,139.2c0.3-0.3,0.5-0.5,0.5-0.8
	c0.3-0.3,0.3-0.8,0.5-1.1v-0.8c0-0.3-0.3-0.5-0.3-0.8c-0.6-1.1-1.7-1.7-3-1.6c-0.3,0-0.5,0.3-0.8,0.3c-1,0-2,0.5-2.7,1.3
	c-0.5,0.5-0.8,1-1.1,1.6c-0.1,0.6,0,1.3,0.3,1.9c0.7,0.9,1.8,1.4,3,1.3h0.8C69.9,140.2,70.8,139.7,71.6,139.2L71.6,139.2z"/>
<polygon points="122.9,118.1 107.8,147.6 93.2,147.6 91,118.1 102.9,116.8 102.7,138.4 111.8,116.8 122.9,118.1 "/>
<polygon points="130.8,147 118.1,148.1 124.8,117.9 137.5,117 130.8,147 "/>
<polygon points="140.2,108.7 131.3,115.7 125.6,108.7 134.5,101.9 140.2,108.7 "/>
<polygon points="148.3,147.3 135.6,148.1 145.1,106.2 157.8,105.4 148.3,147.3 "/>
<polygon points="165.9,147 153.2,148.1 159.9,117.9 172.6,117 165.9,147 "/>
<polygon points="175.4,108.7 166.7,115.7 160.8,108.7 169.7,101.9 175.4,108.7 "/>
<path d="M207.2,132.7c-1,3.9-3,7.5-5.9,10.3c-3,2.8-6.8,4.6-10.8,5.1c-1.2,0.3-2.5,0.5-3.8,0.5c-4.9,0-8.7-1.6-11.1-4.6
	c-2.5-3.2-3.3-7.4-2.2-11.4c1.3-5.9,4.9-10.3,10.5-13.5c3-1.7,6.5-2.6,10-2.7c4.9,0,8.7,1.6,11.1,4.6
	C207.5,124.1,208.3,127.9,207.2,132.7L207.2,132.7z M195.1,133.8c0-0.3,0.3-0.8,0.3-1.1c0.4-1.2,0.3-2.4-0.3-3.5
	c-0.4-1.1-1.5-1.7-2.7-1.6c-0.2-0.2-0.5-0.3-0.8-0.3c-0.5,0-0.8,0-0.8,0.3c-1.4-0.1-2.7,0.5-3.5,1.6c-1.1,0.9-1.8,2.1-1.9,3.5
	c-0.3,1.1-0.2,2.2,0.3,3.2c0.5,1,1.5,1.8,2.7,1.9h1.9C192.4,137.5,194.3,136,195.1,133.8L195.1,133.8z"/>
<path d="M238.6,147.3l-12.7,0.8l3.5-16l0.3-1.6l0.3-0.5v-0.8c0.3-1.6-0.3-2.2-1.6-2.2h-0.8c-1.7,0.3-3,1.8-3,3.5l-0.5,2.2l-3.2,14
	L208,148l6.8-30.3l11.9-0.8l-1.1,4.3l0.8-0.8c2.2-2.3,5.2-3.7,8.4-4c3.8,0,6.2,1.1,7.6,2.7s1.6,4.6,0.5,8.7L238.6,147.3L238.6,147.3
	z"/>
<path class="st0" d="M149.5,101.5c-2.2,1.1,1.9-15.1,2.2-15.1c0,0,22.7,0,24.3,1.6c0.5,0.5,0.3,3.8,0,5.4c12.7-3,26,2.4,24.9,2.4
	c-5.1-0.4-10.2,0.4-14.8,2.4c-7.8,2.2-8.4,2.4-4.9-1.9C183,93.9,159.2,95.5,149.5,101.5L149.5,101.5z"/>
<polygon class="st1" points="69.5,91.8 64.3,91.8 63.8,94.5 67.3,94.5 66,99.9 62.4,99.9 61.1,106.4 54.9,106.6 59.5,86.1 
	69.5,86.1 69.5,91.8 "/>
<path class="st1" d="M87.8,98.8c-1,2.4-2.6,4.4-4.6,5.9c-1.9,1.4-4.2,2.1-6.5,2.2c-0.7,0-1.5,0-2.2-0.3c-2-0.3-3.7-1.5-4.6-3.2
	c-1.1-2.2-1.3-4.7-0.5-7c0.5-3,2-5.6,4.3-7.6c2-2,4.7-3.2,7.6-3.2c0.8,0,1.3,0.3,1.9,0.3c1.7,0.3,3.3,1.2,4.3,2.7
	c1.1,1.6,1.7,3.5,1.6,5.4c-0.1,0.8-0.3,1.6-0.5,2.4C88.6,97.2,88.3,98,87.8,98.8L87.8,98.8z M83,95.3c0.2-1.8-1-3.5-2.9-3.7
	c0,0-0.1,0-0.1,0c-1.5,0-3,0.9-3.8,2.2c-0.5,0.8-0.9,1.7-1.1,2.7c-0.3,1.1-0.2,2.2,0.3,3.2c0.5,0.8,1.4,1.3,2.4,1.3
	c1.5,0,3-0.9,3.8-2.2c0.7-0.7,1.1-1.7,1.1-2.7c0.1,0,0.3-0.1,0.3-0.3L83,95.3L83,95.3z"/>
<path class="st1" d="M87.8,98.8c-1,2.4-2.6,4.4-4.6,5.9c-1.9,1.4-4.2,2.1-6.5,2.2c-0.7,0-1.5,0-2.2-0.3c-2-0.3-3.7-1.5-4.6-3.2
	c-1.1-2.2-1.3-4.7-0.5-7c0.5-3,2-5.6,4.3-7.6c2-2,4.7-3.2,7.6-3.2c0.8,0,1.3,0.3,1.9,0.3c1.7,0.3,3.3,1.2,4.3,2.7
	c1.1,1.6,1.7,3.5,1.6,5.4c-0.1,0.8-0.3,1.6-0.5,2.4C88.6,97.2,88.3,98,87.8,98.8L87.8,98.8z"/>
<path class="st2" d="M83,95.3c0.2-1.8-1-3.5-2.8-3.7c0,0-0.1,0-0.1,0c-1.5,0-3,0.9-3.8,2.2c-0.5,0.8-0.9,1.7-1.1,2.7
	c-0.3,1.1-0.2,2.2,0.3,3.2c0.5,0.8,1.4,1.3,2.4,1.3c1.5,0,3-0.9,3.8-2.2c0.7-0.7,1.1-1.7,1.1-2.7c0.1,0,0.3-0.1,0.3-0.3L83,95.3
	L83,95.3z"/>
<path class="st1" d="M108.9,98.8c-1,2.4-2.6,4.4-4.6,5.9c-1.9,1.4-4.2,2.1-6.5,2.2c-0.7,0-1.5,0-2.2-0.3c-2-0.3-3.7-1.5-4.6-3.2
	c-1.1-2.2-1.3-4.7-0.5-7c0.5-3,2-5.6,4.3-7.6c2-2,4.7-3.2,7.6-3.2c0.8,0,1.3,0.3,1.9,0.3c1.7,0.3,3.3,1.2,4.3,2.7
	c1.1,1.6,1.7,3.5,1.6,5.4c-0.1,0.8-0.3,1.6-0.5,2.4C109.7,97.2,109.4,98,108.9,98.8L108.9,98.8z M104.1,95.3c0.3-1.8-1-3.5-2.8-3.8
	c-0.1,0-0.1,0-0.2,0c-1.5,0-3,0.9-3.8,2.2c-0.5,0.8-0.9,1.7-1.1,2.7c-0.3,1.1-0.2,2.2,0.3,3.2c0.5,0.8,1.4,1.3,2.4,1.3
	c1.5-0.1,2.9-0.9,3.8-2.2c0.7-0.7,1.1-1.7,1.1-2.7c0.1,0,0.3-0.1,0.3-0.3L104.1,95.3L104.1,95.3z"/>
<path class="st1" d="M128.1,94.7v0.8c0,0.3-0.3,0.5-0.3,0.8c-0.6,3-2.2,5.7-4.6,7.6c-1,0.7-2.1,1.4-3.2,1.9
	c-1.1,0.3-2.3,0.5-3.5,0.5h-7l4.6-20.3h7.3c1.6,0.2,3,0.7,4.3,1.6c1.2,0.9,2,2.3,2.2,3.8C128.2,92.5,128.3,93.7,128.1,94.7
	L128.1,94.7z M121.9,94.7c-0.1-1.3-0.9-2.3-2.2-2.7h-1.1l-1.9,8.7h1.1c0.6-0.2,1.1-0.5,1.6-0.8c0.7-0.4,1.2-1,1.6-1.6
	c0.3-0.5,0.5-1.3,0.8-1.9L121.9,94.7L121.9,94.7z"/>
<path class="st1" d="M56,121.2v1.3c-0.2,0.6-0.4,1.3-0.5,1.9c-1.3,5.9-4.4,11.2-8.7,15.4c-2.2,1.9-4.6,3.5-7.3,4.6
	c-2.9,0.9-5.9,1.4-8.9,1.3h-1.3l-1.1-0.3l-4,17.6l-17.6,1.1l13.8-61.1h21.5c0.8,0,1.3,0,1.6,0.3c0.8,0,1.6,0.1,2.4,0.3
	c4,1.1,6.8,3,8.4,5.9C56,112.2,56.5,116.1,56,121.2L56,121.2z M40.3,125.8c0.1-0.4,0.2-0.9,0.3-1.3c0.2-0.4,0.3-0.9,0.3-1.3
	c0.1-1.2-0.2-2.5-0.8-3.5c-0.7-1-1.8-1.6-3-1.7h-2.7l-3,13.2h1.9C36.8,131.2,38.9,129.3,40.3,125.8L40.3,125.8z"/>
<path class="st1" d="M84.3,146.6H72.4l0.8-3.8l-0.8,0.8c-2.6,2.2-5.8,3.4-9.2,3.5c-0.8,0-1.6,0-2.4-0.3c-4.6-1.1-6.8-3.8-6.5-7.8
	c-0.1-1,0-2,0.3-3c0.9-3.8,3.5-6.9,7-8.4c1.7-0.8,3.5-1.3,5.4-1.3c1.1,0.1,2.2,0.2,3.2,0.5c1.3,0.3,2.5,0.9,3.5,1.6l0.8,0.8l0.5-1.9
	v-0.3c0.2-0.6,0.1-1.2-0.3-1.6c-0.5-1.6-2.4-2.4-5.9-2.4l-1.3,0.3h-1.1c-1.6,0.2-3.1,0.4-4.6,0.8l-1.3,0.3l3.8-8.1l3-0.3
	c2.7-0.5,5.4-0.8,8.1-0.8c5.4,0,9.2,1.1,11.4,3.2c2.2,2.2,2.7,5.1,1.9,8.9L84.3,146.6L84.3,146.6z M73,138.2
	c0.3-0.3,0.5-0.5,0.5-0.8c0.3-0.3,0.3-0.8,0.5-1.1v-0.8c0-0.3-0.3-0.5-0.3-0.8c-0.6-1.1-1.7-1.7-3-1.6c-0.3,0-0.5,0.3-0.8,0.3
	c-1,0-2,0.5-2.7,1.3c-0.5,0.5-0.8,1-1.1,1.6c-0.1,0.6,0,1.3,0.3,1.9c0.7,0.9,1.8,1.4,3,1.3h0.8C71.3,139.3,72.2,138.8,73,138.2
	L73,138.2z"/>
<polygon class="st1" points="124.3,117.2 109.2,146.6 94.6,146.6 92.4,117.2 104.3,115.8 104.1,137.5 113.2,115.8 124.3,117.2 "/>
<polygon class="st1" points="132.2,146.1 119.5,147.2 126.2,116.9 138.9,116.1 132.2,146.1 "/>
<polygon class="st1" points="141.6,107.7 132.7,114.7 127,107.7 135.9,101 141.6,107.7 "/>
<polygon class="st1" points="149.7,146.4 137,147.2 146.5,105.3 159.2,104.5 149.7,146.4 "/>
<polygon class="st1" points="167.3,146.1 154.6,147.2 161.4,116.9 174.1,116.1 167.3,146.1 "/>
<polygon class="st1" points="176.8,107.7 168.1,114.7 162.2,107.7 171.1,101 176.8,107.7 "/>
<path class="st1" d="M208.7,131.8c-1,3.9-3,7.5-5.9,10.3c-3,2.8-6.8,4.6-10.8,5.1c-1.2,0.3-2.5,0.5-3.8,0.5c-4.9,0-8.7-1.6-11.1-4.6
	c-2.5-3.2-3.3-7.4-2.2-11.4c1.3-5.9,4.9-10.3,10.5-13.5c3-1.7,6.5-2.6,10-2.7c4.9,0,8.7,1.6,11.1,4.6
	C208.9,123.2,209.7,126.9,208.7,131.8L208.7,131.8z M196.5,132.9c0-0.3,0.3-0.8,0.3-1.1c0.4-1.2,0.3-2.4-0.3-3.5
	c-0.4-1.1-1.5-1.7-2.7-1.6c-0.2-0.2-0.5-0.3-0.8-0.3c-0.5,0-0.8,0-0.8,0.3c-1.4-0.1-2.7,0.5-3.5,1.6c-1.1,0.9-1.8,2.1-1.9,3.5
	c-0.3,1.1-0.2,2.2,0.3,3.2c0.5,1,1.5,1.8,2.7,1.9h1.9C193.9,136.5,195.7,135,196.5,132.9L196.5,132.9z"/>
<path class="st1" d="M240,146.4l-12.7,0.8l3.5-16l0.3-1.6l0.3-0.5v-0.8c0.3-1.6-0.3-2.2-1.6-2.2H229c-1.7,0.3-3,1.8-3,3.5l-0.5,2.2
	l-3.2,14l-12.7,1.3l6.7-30.2l11.9-0.8l-1.1,4.3l0.8-0.8c2.2-2.3,5.2-3.7,8.4-4c3.8,0,6.2,1.1,7.6,2.7s1.6,4.6,0.5,8.7L240,146.4
	L240,146.4z"/>
<polygon class="st0" points="32.3,149.7 27.4,162.5 235.2,162.5 239.7,149.7 "/>
</svg>
