<?xml version="1.0" encoding="utf-8"?>
<!-- Generator: Adobe Illustrator 21.1.0, SVG Export Plug-In . SVG Version: 6.00 Build 0)  -->
<svg version="1.1" id="Layer_1" xmlns="http://www.w3.org/2000/svg" xmlns:xlink="http://www.w3.org/1999/xlink" x="0px" y="0px"
	 viewBox="0 0 250 250" style="enable-background:new 0 0 250 250;" xml:space="preserve">
<style type="text/css">
	.st0{fill:#F9E800;}
	.st1{fill:#020102;}
</style>
<title>Grocery</title>
<path d="M4.4,149c0.4-1.6,0.8-3.1,1.2-4.7c3-12.2,5.9-24.4,8.9-36.6c0-0.1,0.1-0.3,0.1-0.4H40c0,0.2,0,0.3,0,0.5
	c-0.6,2.4-1.2,4.8-1.7,7.2c-0.1,0.4-0.3,0.5-0.7,0.5c-4.4,0-8.9,0-13.3,0c-0.5,0-0.7,0.1-0.8,0.6c-0.5,2.1-1,4.1-1.5,6.2
	c0,0.2-0.1,0.3-0.1,0.6h13.4l-2.1,8.4H19.8l-4.4,18h-11V149z"/>
<path d="M143.4,96.6c0.1,0.2,0.2,0.3,0.3,0.5c1.5,1.5,3,3,4.5,4.5c0.3,0.2,0.4,0.6,0.3,0.9c-0.7,5.4-1.3,10.9-2,16.3
	c-0.3,2.7-0.7,5.5-1,8.2c0,0.3,0.1,0.6,0.3,0.8c1.3,1.3,2.6,2.6,3.8,3.9c0.2,0.2,0.3,0.5,0.3,0.8c-0.3,3-0.7,6.1-1.1,9.1
	c0,0.1,0,0.2-0.1,0.2h-5.1c0,0.9-0.1,1.7-0.1,2.4c0,0.2,0.1,0.4,0.3,0.5c1,1.1,2.1,2.1,3.1,3.1c0.2,0.2,0.3,0.4,0.3,0.6
	c-0.2,1.6-0.4,3.2-0.6,4.8H121c-0.4,0-0.7-0.1-1-0.4c-1.5-1.5-2.9-2.9-4.4-4.4c-0.3-0.2-0.4-0.6-0.3-1c0.2-1.4,0.3-2.9,0.6-4.3
	c0-0.3-0.1-0.6-0.4-0.7c-2.7-1.9-5.2-3.8-7.9-5.7c-0.3-0.2-0.5-0.6-0.5-1c0-2.5,0-5,0-7.4c0-0.4,0.1-0.8,0.4-1.1
	c7.8-10.2,15.5-20.5,23.3-30.7L143.4,96.6z M142.2,97.7c-0.2,0-0.3,0-0.5,0c-3.3,0-6.7,0-10,0c-0.3,0-0.5,0.2-0.7,0.4
	c-7.5,9.8-15.1,19.7-22.6,29.6c-0.2,0.3-0.3,0.6-0.3,0.9c0,2.2,0,4.4,0,6.6c0,0.1,0,0.2,0,0.3h17c-0.3,1.4-0.5,2.7-0.8,4
	c-0.4,2.3-2.4,3.9-4.7,4.1c-1,0.1-1.9,0.2-2.9,0.3l-0.4,3.3h23.5c0.1,0,0.3,0,0.4,0c0.2-0.1,0.4-0.2,0.4-0.3c0.1-1,0.2-2,0.4-3
	c-0.1,0-0.2-0.1-0.3-0.1c-2.3-0.3-3.3-1.6-3.3-4.1c0-1.1,0.2-2.3,0.2-3.4c0-0.6,0.3-0.8,0.8-0.7c1.4,0,2.9,0,4.3,0l1-7.9h-5.1
	L142.2,97.7z"/>
<path d="M150.8,149.3l10.2-41.9h11l-8.1,33.3h13.2c0,0.1,0,0.3,0,0.4c-0.6,2.7-1.3,5.2-1.9,7.8c-0.1,0.3-0.2,0.4-0.6,0.4h-23.6
	L150.8,149.3z"/>
<path d="M41.2,150c-1.3-0.1-2.6-0.3-3.9-0.6c-3.1-0.7-5.1-3.7-4.4-6.8c0-0.1,0-0.1,0-0.2c0.4-2.5,1.1-4.9,1.6-7.3
	c0.6-2.7,1.3-5.3,2-8c0.7-3.8,3.5-6.7,7.3-7.7c2.9-0.9,5.9-1,8.8-0.3c2.2,0.4,4,2.1,4.6,4.3c0.3,1.3,0.3,2.7-0.1,4
	c-1.1,4.6-2.3,9.3-3.4,13.9c-0.2,0.7-0.4,1.3-0.6,1.9c-1.3,3.5-4.5,6-8.2,6.4C43.7,149.8,42.7,149.9,41.2,150z M42.9,144.4
	c1.2,0.1,2.4-0.7,2.8-1.8c0.2-0.4,0.3-0.9,0.4-1.3c0.8-3.4,1.7-6.8,2.5-10.2c0.3-1.3,0.7-2.5,0.9-3.9c0.3-1.2-0.4-2.4-1.6-2.7
	c-0.5-0.1-0.9-0.1-1.4,0.1c-1.2,0.3-2.2,1.2-2.4,2.5c-1,3.9-1.9,7.8-2.9,11.7c-0.3,1.1-0.5,2.2-0.6,3.3
	C40.5,143.6,41.2,144.4,42.9,144.4L42.9,144.4z"/>
<path d="M65,150c-1.3-0.1-2.7-0.4-4-0.7c-3-0.6-4.9-3.5-4.3-6.5c0.3-2.1,0.9-4.3,1.3-6.4c0.7-3.2,1.6-6.3,2.3-9.5
	c0.7-3.7,3.5-6.6,7.1-7.6c2.9-1,6-1.1,8.9-0.3c2.2,0.4,4,2.1,4.6,4.3c0.3,1.3,0.3,2.6,0,3.9c-1.2,4.7-2.3,9.5-3.5,14.3
	c-0.2,0.8-0.4,1.5-0.8,2.2c-1.4,3.3-4.5,5.6-8.1,5.9C67.6,149.8,66.5,149.9,65,150z M66.7,144.4c1.2,0.1,2.4-0.7,2.8-1.9
	c0.2-0.5,0.4-0.9,0.5-1.4c1.1-4.4,2.1-8.8,3.2-13.1c0.1-0.4,0.2-0.9,0.2-1.3c0.1-1.2-0.9-2.2-2.1-2.3c-0.2,0-0.4,0-0.6,0.1
	c-1.4,0.2-2.5,1.2-2.8,2.6c-0.9,3.6-1.8,7.3-2.7,10.9c-0.4,1.4-0.6,2.8-0.8,4.2C64.2,143.7,65.1,144.4,66.7,144.4z"/>
<path d="M79.2,149.3l1.6-6.5c1.9-7.7,3.7-15.4,5.6-23.1c0.1-0.4,0.2-0.5,0.6-0.5c3.9,0,7.8,0,11.6,0c0.7,0,1.4,0.1,2.1,0.3
	c2.7,0.4,4.6,3,4.2,5.7c0,0,0,0.1,0,0.1c-0.2,2-0.6,3.9-1.1,5.8c-1,4.1-2,8.1-3,12.2c-0.5,3.3-3.3,5.7-6.7,5.8
	c-1.3,0.1-2.7,0.2-4,0.2c-3.4,0-6.8,0-10.3,0L79.2,149.3z M87.8,143.6c1.3,0,2.5,0,3.8,0c0.7,0.1,1.3-0.3,1.6-0.9
	c0.5-0.9,0.8-1.8,1.1-2.8c0.9-3.6,1.8-7.1,2.7-10.7c0.3-1.1,0.5-2.1,0.6-3.2c0.1-1.2-0.6-1.9-1.8-1.9c-0.8,0-1.7,0-2.5,0
	c-0.5,0-0.7,0.2-0.8,0.7c-1.2,5-2.4,10-3.7,15.1C88.4,141,88.2,142.3,87.8,143.6L87.8,143.6z"/>
<path d="M196.7,143l-1.5,6.2h-17.7l7.3-30.1h16.6l-0.7,2.7c-0.2,0.9-0.5,1.9-0.7,2.9c-0.1,0.4-0.3,0.5-0.6,0.5c-2.7,0-5.3,0-8,0
	c-0.5,0-0.7,0.1-0.8,0.6c-0.4,1.6-0.8,3.3-1.2,4.9h9.1c-0.3,1.5-0.7,2.8-1,4.2c-0.1,0.5-0.1,1.3-0.5,1.5s-1.1,0.1-1.7,0.1h-7.5
	l-1.5,6.3H196.7z"/>
<path d="M221.3,128.2h-6.9c0.1-0.7,0.1-1.3,0.2-1.9c0.1-1.7-0.7-2.5-2.4-2.3c-1.1,0.1-2,0.8-2.4,1.8c-0.5,1-0.2,2.1,0.5,2.8
	c0.6,0.6,1.2,1.1,1.9,1.6c1.3,0.9,2.6,1.7,3.8,2.7c1.6,1.1,2.6,2.8,2.7,4.7c0.1,2.2-0.4,4.5-1.4,6.5c-1.7,3.3-5,5.5-8.7,5.7
	c-2.1,0.3-4.2,0-6.2-0.7c-2.3-0.7-3.8-3-3.4-5.3c0.1-0.9,0.2-1.7,0.4-2.5c0.1-0.6,0.2-1.1,0.4-1.7c0.1-0.2,0.2-0.3,0.4-0.4
	c2.1,0,4.2,0,6.2,0c0.1,0,0.1,0,0.2,0c-0.2,0.9-0.4,1.7-0.5,2.5c-0.3,0.9,0,1.9,0.7,2.5c0.9,0.6,2,0.6,2.9,0
	c1.4-0.9,2.1-2.7,1.7-4.3c-0.2-0.5-0.5-0.9-0.9-1.2c-1.3-1.1-2.7-2.1-4-3.2l-0.5-0.4c-5.9-4.5-3.1-12.9,2-15.2
	c3.1-1.5,6.6-1.7,9.8-0.5c2.4,0.9,3.9,3.3,3.8,5.8C221.5,126.1,221.4,127.1,221.3,128.2z"/>
<path d="M227.3,139c-0.2,0.7-0.3,1.3-0.5,2c-0.1,0.5-0.1,1-0.1,1.5c0,1,0.8,1.9,1.8,1.9c0,0,0,0,0.1,0c1.2,0.2,2.4-0.4,2.9-1.5
	c0.3-0.6,0.6-1.2,0.7-1.9c0.2-0.9-0.1-1.9-0.8-2.4c-1.1-0.9-2.3-1.8-3.4-2.7c-0.8-0.7-1.6-1.3-2.4-2.1c-1.7-1.7-2.5-4.2-2.1-6.6
	c0.5-4.7,4.5-8.4,9.2-8.6c1.7-0.2,3.4-0.1,5.1,0.4c2.8,0.8,4.6,3.4,4.4,6.2c0,1-0.2,1.9-0.3,2.9h-6.9l0.2-1.3c0-0.1,0-0.3,0-0.4
	c0.2-2-1-3-3-2.4c-1.5,0.4-2.3,1.9-1.9,3.4c0.1,0.4,0.3,0.7,0.6,1.1c0.6,0.6,1.2,1.2,2,1.7c1.2,0.9,2.5,1.7,3.7,2.5
	c2.1,1.5,3.2,4.2,2.7,6.7c-0.3,2.7-1.5,5.2-3.4,7.2c-1.7,1.7-4,2.8-6.4,3c-2.1,0.3-4.3,0.1-6.4-0.6c-2.7-0.7-4.3-3.4-3.6-6
	c0.2-1.2,0.4-2.4,0.7-3.5c0-0.2,0.3-0.4,0.4-0.4C223,139,225.1,139,227.3,139z"/>
<path class="st0" d="M142.2,97.6l-3.7,30h5.1l-1,7.9c-1.5,0-2.9,0-4.3,0c-0.6,0-0.8,0.1-0.8,0.7c0,1.1-0.2,2.3-0.2,3.4
	c0,2.5,1.1,3.8,3.3,4.1c0.1,0,0.2,0.1,0.3,0.1c-0.1,1-0.2,2-0.4,3c0,0.1-0.2,0.3-0.4,0.3c-0.1,0-0.3,0-0.4,0h-23.5l0.4-3.3
	c1-0.1,2-0.2,2.9-0.3c2.3-0.1,4.2-1.8,4.7-4.1c0.3-1.3,0.5-2.7,0.8-4h-17c0-0.1,0-0.2,0-0.3c0-2.2,0-4.4,0-6.6
	c0-0.3,0.1-0.6,0.3-0.9c7.5-9.9,15-19.8,22.6-29.7c0.2-0.2,0.4-0.4,0.7-0.4c3.3,0,6.7,0,10,0C141.9,97.6,142.1,97.6,142.2,97.6z
	 M127.7,115.5l-0.2-0.1l-8.5,11.3h0.7c1.9,0,3.8,0,5.7,0c0.6,0,0.8-0.2,0.8-0.8c0.3-2.4,0.6-4.8,0.9-7.2
	C127.5,117.8,127.6,116.7,127.7,115.5z"/>
<path d="M127.7,115.5c-0.1,1.1-0.3,2.2-0.4,3.3c-0.3,2.4-0.6,4.8-0.9,7.2c0,0.6-0.2,0.8-0.8,0.8c-1.9,0-3.8,0-5.7,0h-0.8l8.5-11.3
	L127.7,115.5z"/>
<path d="M241.7,149.4c-1.4,0-2.5-1.1-2.5-2.5c0-1.4,1.1-2.5,2.5-2.5c1.4,0,2.5,1.1,2.5,2.5l0,0C244.2,148.3,243.1,149.4,241.7,149.4
	z M241.7,144.7c-1.2,0-2.2,1-2.2,2.2c0,1.2,1,2.2,2.2,2.2c1.2,0,2.2-1,2.2-2.2S242.9,144.7,241.7,144.7L241.7,144.7z"/>
<path class="st1" d="M241.7,149.5c-1.5,0-2.7-1.2-2.7-2.7s1.2-2.7,2.7-2.7s2.7,1.2,2.7,2.7S243.2,149.5,241.7,149.5z M241.7,144.5
	c-1.3,0-2.4,1.1-2.4,2.4c0,1.3,1.1,2.4,2.4,2.4c1.3,0,2.4-1.1,2.4-2.4S243,144.5,241.7,144.5L241.7,144.5z M241.7,149.2
	c-1.3,0-2.3-1-2.3-2.3s1-2.3,2.3-2.3s2.3,1,2.3,2.3C244,148.2,243,149.2,241.7,149.2L241.7,149.2z M241.7,144.8c-1.2,0-2.1,1-2,2.1
	c0,1.2,1,2.1,2.1,2c1.1,0,2-1,2-2.1C243.9,145.7,242.9,144.8,241.7,144.8C241.7,144.8,241.7,144.8,241.7,144.8z"/>
<path d="M240.7,145.7c0.2,0,0.5,0,0.7,0c0.3,0,0.6,0,0.9,0.2c0.1,0.1,0.2,0.3,0.2,0.5c0,0.3-0.2,0.6-0.5,0.6l0,0
	c0.2,0.1,0.4,0.3,0.4,0.5c0.1,0.2,0.1,0.5,0.2,0.7h-0.4c-0.1-0.2-0.2-0.4-0.2-0.6c0-0.3-0.3-0.5-0.6-0.5h-0.4v1.1h-0.4V145.7z
	 M241.1,146.8h0.4c0.4,0,0.7-0.2,0.7-0.5s-0.3-0.5-0.7-0.5c-0.1,0-0.2,0-0.4,0V146.8z"/>
<path class="st1" d="M242.8,148.2h-0.7l0,0c-0.1-0.2-0.2-0.4-0.2-0.6c0-0.2-0.2-0.4-0.5-0.4c0,0,0,0,0,0h-0.3v1.1h-0.6v-2.7h0.1
	c0.2,0,0.5,0,0.7,0c0.3,0,0.6,0.1,0.9,0.2c0.2,0.1,0.3,0.3,0.3,0.6c0,0.3-0.2,0.5-0.4,0.6c0.1,0.1,0.2,0.3,0.3,0.5
	c0.1,0.2,0.1,0.4,0.2,0.6L242.8,148.2z M242.3,148h0.1c0-0.1-0.1-0.3-0.2-0.5c0-0.2-0.2-0.4-0.3-0.4l0,0c0.1,0.1,0.2,0.3,0.3,0.5
	C242.2,147.7,242.3,147.8,242.3,148L242.3,148z M240.8,148h0.1v-2.2h0.1h0.4c0.7,0,0.8,0.4,0.8,0.6c0,0.2-0.1,0.3-0.2,0.4
	c0.2-0.1,0.4-0.3,0.4-0.5c0-0.1-0.1-0.3-0.2-0.4c-0.2-0.1-0.5-0.2-0.8-0.2h-0.6L240.8,148z M241.5,146.9c0.1,0,0.2,0,0.4,0.1v-0.1
	C241.7,146.9,241.6,146.9,241.5,146.9L241.5,146.9z M241.2,146.7h0.3c0.3,0,0.5-0.1,0.5-0.3c0-0.2-0.2-0.3-0.6-0.3h-0.3L241.2,146.7
	z"/>
</svg>
