<?xml version="1.0" encoding="utf-8"?>
<!-- Generator: Adobe Illustrator 21.1.0, SVG Export Plug-In . SVG Version: 6.00 Build 0)  -->
<svg version="1.1" id="Layer_1" xmlns="http://www.w3.org/2000/svg" xmlns:xlink="http://www.w3.org/1999/xlink" x="0px" y="0px"
	 viewBox="0 0 250 250" style="enable-background:new 0 0 250 250;" xml:space="preserve">
<style type="text/css">
	.st0{fill:#B32128;}
	.st1{fill:#FFFFFF;}
</style>
<title>Grocery</title>
<path class="st0" d="M109.9,109.1v29.6h15.8c6.7-0.8,11.6-6.6,11.2-13.3c0-12.8-5.6-16.2-11.2-16.3
	C120.6,109.1,109.9,109.1,109.9,109.1L109.9,109.1z"/>
<path class="st0" d="M217.6,109.1v29.6h15.8c6.7-0.8,11.6-6.6,11.2-13.3c0-12.8-5.6-16.2-11.2-16.3
	C228.3,109.1,217.6,109.1,217.6,109.1L217.6,109.1z"/>
<path class="st0" d="M63.1,139.9c8.4,0,14.7-2.7,14.8-15.4c0.1-14.4-6.4-15.8-14.8-15.8s-14.7,4-14.7,15.8S54.6,139.9,63.1,139.9z"
	/>
<path class="st1" d="M63.2,132.9c2.8,0,3.9-3.8,3.9-8.5s-1-8.5-3.9-8.5c-2.9,0-3.9,3.8-3.9,8.5S60,132.8,63.2,132.9z"/>
<path class="st0" d="M93.5,139.9c8.4,0,14.7-2.7,14.8-15.4c0.1-14.4-6.4-15.8-14.8-15.8s-14.7,4-14.7,15.8S85.1,139.9,93.5,139.9z"
	/>
<path class="st1" d="M93.6,132.9c2.8,0,3.9-3.8,3.9-8.5s-1-8.5-3.9-8.5c-2.9,0-3.9,3.8-3.9,8.5S90.4,132.8,93.6,132.9z"/>
<polygon class="st0" points="138.2,109.1 138.2,138.7 156,138.7 156,132.1 149.3,132.1 149.3,109.1 138.2,109.1 "/>
<polygon class="st0" points="176.9,138.7 187.8,138.7 178.5,109.1 166.2,109.1 156.9,138.7 168.1,138.7 169.4,133.1 175.8,133.1 
	176.9,138.7 "/>
<polygon class="st1" points="170.8,126.9 172.9,118.3 174.6,126.9 170.8,126.9 "/>
<polygon class="st0" points="188.4,138.7 188.4,109 200,109 205.2,122.6 205.2,109 215.3,109 215.3,138.7 204.2,138.7 199.4,127.2 
	199.4,138.7 188.4,138.7 "/>
<path class="st1" d="M120.1,116.1v14.7c0,0,5.9,0.7,5.9-7.3S120.1,116.1,120.1,116.1L120.1,116.1z"/>
<path class="st1" d="M227.8,116.1v14.7c0,0,5.9,0.7,5.9-7.3S227.8,116.1,227.8,116.1z"/>
<path class="st0" d="M29.5,140.9c-2.2-0.8-4-2.3-5.2-4.3c-1.1-3.1-1.5-4-1.5-4c-1-1.4-1.5-3.1-1.7-4.8c-1.1-0.4-2.2-0.6-3.4-0.5
	c-1.5-0.1-3,0.2-4.4,0.9c-0.9,11.2-7.2,12.6-7.5,12.8c-0.3,0.2-1.2,0.4-1.2,1.1s1.1,1,1.1,1h24c0.9,0,1-0.4,1-1
	S29.6,140.9,29.5,140.9L29.5,140.9z"/>
<path class="st0" d="M44,109.8c0-2.3-1.2-2.1-1.2-2.1H6.2c0,0-0.9,0-0.9,0.8c0,1,1.7,1.8,1.7,1.8c4,2.9,6.4,7.4,6.5,12.3
	c1.2,0.6,2.6,0.8,3.9,0.7c1.3,0.1,2.6-0.1,3.9-0.6c0.9-5.7,4.1-13.7,11.1-13.7c8.2,0,9.8,10.7,9.9,12.4c0.1,1.7,0.6,2.7,1.6,2.7
	c0.9,0,0.9-1.3,0.9-1.3S44.1,112.2,44,109.8L44,109.8z"/>
<path class="st0" d="M27.8,121.6c0,0-0.6-3.7,2.3-5.4s5.3,0.4,4.4,2.7C33.6,121.1,31.4,122.1,27.8,121.6L27.8,121.6z"/>
<path class="st0" d="M30.8,125.2c0,0,1.9-3.3,5.3-2.7c3.4,0.6,3.8,3.7,1.7,4.9C35.7,128.7,33.3,128,30.8,125.2z"/>
<path class="st0" d="M27.7,129.2c0,0,3.6-1.3,5.7,1.3c2.2,2.7,0.5,5.3-1.9,4.8C29.2,134.9,27.8,132.9,27.7,129.2z"/>
<path class="st0" d="M26.4,125.4c0,0.2,0.1,2-1,2c-1.1,0-2.7-2-2.7-2s1.5-2,2.7-2C26.6,123.4,26.4,125.2,26.4,125.4z"/>
</svg>
