<?xml version="1.0" encoding="utf-8"?>
<!-- Generator: Adobe Illustrator 21.1.0, SVG Export Plug-In . SVG Version: 6.00 Build 0)  -->
<svg version="1.1" id="Layer_1" xmlns="http://www.w3.org/2000/svg" xmlns:xlink="http://www.w3.org/1999/xlink" x="0px" y="0px"
	 viewBox="0 0 250 250" style="enable-background:new 0 0 250 250;" xml:space="preserve">
<style type="text/css">
	.st0{fill:#0687CD;}
	.st1{fill:#EB1C30;}
	.st2{fill:#FEFEFE;}
</style>
<title>Grocery</title>
<path class="st0" d="M105.9,125c0-10.7,0-21.6,0-32.2c0-0.9,0-0.9,0.9-0.9c17.7,0,35.8,0,53.5,0c0.9,0,0.8,0.1,0.8,0.9
	c0,18.2,0,36.7,0,54.9c0,3.2,0,6.6,0,9.7c0,0.8,0,0.8-0.8,0.8c-17.7,0-36,0-53.7,0c-0.7,0-0.7-0.3-0.7-0.9
	C105.9,146.5,105.9,135.7,105.9,125L105.9,125z M139.1,136.3c-2-2.7-3.1-5.9-3.3-9.2c-0.4-4.4,0-8.7,2.7-12.5c0.1-0.2,0.4-0.4,0-0.6
	c-0.3-0.1-0.6,0-0.7,0.2c-0.5,0.8-1.1,1.6-1.6,2.3c-1.6,2.5-3.9,4.5-6.5,5.8c-0.4,0.2-1,0.6-0.9-0.4c0.2-3.3,1.3-6.5,3.1-9.3
	c4.4-6.3,12.3-6.4,16.7-0.3c1.3,2,2.3,4.3,2.8,6.7c0.1,0.5-0.1,1.5,0.5,1.3c0.6-0.1,0.2-1,0.2-1.6c-0.3-3.9-0.3-7.8-0.1-11.7
	c0-3.7,0.6-7.3,1.7-10.8c-13.8,4.2-27.3,3.6-40.9-0.6c1.1,1.8,2,3.8,2.8,5.7c3,6.7,4.6,13.9,4.8,21.2c0.2,5.8-0.4,11.5-1.9,17.1
	c-0.7,2.6-1.6,5.2-2.7,7.7c-0.3,0.9,0,1,0.7,1c4.7,0.2,9.4,0.9,14,2.2c2.7,0.7,5.3,1.8,7.8,3.2c-0.5-1.2-1.1-2.4-1.8-3.5
	c-2.3-4.6-4.3-9.3-5.9-14.1c-0.6-2.1-1.1-4.3-1.5-6.5c-0.2-1,0.2-1.1,1-0.7c0.9,0.4,1.8,0.9,2.7,1.5c1.9,1.5,3.5,3.3,4.8,5.3
	C138,136.2,138.3,136.6,139.1,136.3L139.1,136.3z M148.4,130c-0.4,0.5-0.6,0.7-0.8,0.9c-0.7,0.9-2,1.1-3,0.4
	c-0.3-0.2-0.5-0.4-0.6-0.7c-1.9-3.1-2.1-7-0.4-10.2c1-2.2,2.8-2.3,4.4-0.5c0.1,0.1,0.2,0.3,0.4,0.1c0-1.7,0-3.4,0-5.1
	c0-0.3-0.1-0.7-0.3-0.9c-1.3-1.5-3.5-2-5.3-1.1c-1.4,0.7-2.6,1.9-3.3,3.4c-2.2,4.3-2.7,9.2-1.6,13.8c0.4,2.5,1.6,4.9,3.5,6.7
	c1.9,1.8,4.8,1.7,6.7-0.1c0.3-0.2,0.4-0.5,0.4-0.9C148.5,133.9,148.5,132.1,148.4,130L148.4,130z"/>
<path class="st1" d="M49.9,121.3c-0.1,5.4-1.7,10.7-4.7,15.2c-3.5,5.2-8.9,6.1-14,3.5c-2.4-1.2-3.6-3.6-4.5-6
	c-1.3-3.9-0.9-7.8-0.2-11.7c0.5-3.8,2-7.5,4.2-10.7c3.7-4.8,10.6-5.8,15.5-2.2c2.2,1.6,2.8,4,3.3,6.4
	C49.8,117.6,49.9,119.5,49.9,121.3z M41,120.5c0-1,0-1.9,0-2.9c0.1-1-0.6-2-1.6-2.3c-1.2-0.3-1.8,0.6-2.3,1.4
	c-2.1,4.3-2.8,9.1-2.2,13.8c0,1,0.7,1.8,1.6,2c1,0.2,1.6-0.4,2.1-1.1c0.2-0.3,0.4-0.7,0.6-1.1C40.5,127.3,41.1,123.9,41,120.5
	L41,120.5z"/>
<path class="st1" d="M76.1,120.5c-0.2,6.3-1.6,12.1-5.5,17.1c-3.5,4.4-10,5.2-14.4,1.6c0,0,0,0-0.1,0c-2.3-2.1-3.7-5-3.9-8.2
	c-0.6-6.1,0.6-12.2,3.5-17.6c2.9-5.5,9.7-7.7,15.2-4.8c0.5,0.2,0.9,0.5,1.4,0.8c1.4,1,2.3,2.4,2.7,4c0.3,1.1,0.6,2.3,0.8,3.5
	C76.1,118,76.1,119.3,76.1,120.5z M61,127.2c0.1,1.1,0.1,2.3,0.2,3.5c0,0.9,0.7,1.7,1.6,1.9c0.8,0.2,1.7-0.2,2.1-1
	c0.3-0.4,0.6-0.9,0.8-1.3c1-2.6,1.6-5.4,1.7-8.3c0.2-1.6,0.1-3.3-0.2-4.9c-0.1-0.9-0.7-1.6-1.6-1.8c-1-0.2-1.6,0.5-2.1,1.2
	c-0.2,0.3-0.4,0.7-0.6,1.1C61.7,120.6,61,123.9,61,127.2L61,127.2z"/>
<path class="st1" d="M82.4,140.4c-1.5,0-3,0-4.5,0c-0.7,0-0.9-0.2-0.8-0.9c0.9-6,1.8-11.9,2.7-17.9c0.6-4.1,1.3-8.2,1.9-12.4
	c0.1-0.5,0.1-0.9,0.8-0.9c3.1-0.1,6.2-0.1,9.3,0.2c4.6,0.4,8.2,3.9,8.8,8.5c1,5.5,0.3,11.3-2.1,16.3c-1.7,3.6-5.1,6.1-9,6.6
	C87.1,140.3,84.8,140.5,82.4,140.4z M92,122.3c0-0.5,0-1,0-1.6c0-1.3-0.7-2.5-1.8-3.1c-0.5-0.2-0.8-0.3-0.9,0.4
	c-0.7,4.6-1.4,9.2-2.1,13.8c-0.1,0.9,0.3,1,0.9,0.8c1.3-0.4,2.3-1.4,2.7-2.7C91.6,127.4,92,124.9,92,122.3L92,122.3z"/>
<path class="st1" d="M233.3,116.4c0.9-2.3,1.9-4.5,2.8-6.8c0.2-0.6,0.8-1.1,1.5-1c2.7,0,5.3,0,8.2,0l-4,7.5c-1.7,3.1-3.3,6.2-5,9.2
	c-0.4,0.8-0.7,1.6-0.8,2.5c-0.6,3.9-1.3,7.7-1.9,11.6c-0.1,0.6-0.3,0.8-0.9,0.8c-2.5,0-4.9,0-7.4,0c-0.8,0-1-0.2-0.9-1
	c0.6-4,1.1-8.1,1.7-12.2c0.1-1.5-0.1-2.9-0.6-4.3c-0.9-4.3-1.9-8.6-2.9-13c-0.3-1.3-0.3-1.3,1-1.3c2.5,0,4.9,0,7.4,0
	c0.7,0,0.9,0.2,0.9,0.8c0.2,2.3,0.5,4.7,0.7,7L233.3,116.4z"/>
<path class="st1" d="M21.2,116.2c-0.6,0-1.9-0.4-2.7,0.1s-0.5,1.9-0.6,3c-0.3,1.4-0.2,1.5,1.2,1.4c1.2,0,2.3,0,3.5,0
	c0.8,0,0.9,0.3,0.8,1c-0.4,2-0.8,4-1.1,6c-0.1,0.6-0.3,0.8-0.9,0.8c-1.3,0-2.7,0-4,0c-0.7,0-1,0.2-1.1,0.9c-0.5,3.2-1.1,6.5-1.6,9.7
	c-0.1,0.8-0.4,1.1-1.3,1.1c-2.2-0.1-4.4-0.1-6.6,0c-1.1,0-1.2-0.4-1.1-1.3c0.7-4.2,1.3-8.5,2-12.7c0.9-5.6,1.7-11.2,2.6-16.8
	c0.1-0.9,0.4-1.2,1.3-1.2c4.4,0.1,8.9,0.1,13.3,0c0.9,0,1.1,0.3,0.9,1.1c-0.3,2.1-0.6,4.1-0.9,6.2c-0.1,0.6-0.3,0.7-0.9,0.7
	C23.3,116.2,22.4,116.2,21.2,116.2z"/>
<path class="st1" d="M210.9,108.5c2.8,0,5.6,0,8.4,0c0.8,0,1,0.2,0.8,0.9c-0.3,2.2-0.6,4.3-0.9,6.5c0,0.5-0.3,0.6-0.7,0.6
	c-1.1,0-2.2,0-3.2,0c-0.6,0-0.9,0.1-1,0.8c-1.2,7.3-2.4,14.7-3.5,22c-0.1,0.6-0.3,0.9-1,0.9c-2.5,0-4.9,0-7.4,0
	c-0.7,0-0.8-0.2-0.7-0.8c1-6.4,2.1-12.7,3.1-19.1c0.2-1,0.3-2.1,0.5-3.1c0.1-0.7-0.1-0.9-0.7-0.9c-1.1,0-2.2,0-3.4,0
	c-0.7,0-1,0-0.8-0.9c0.4-2,0.7-4.1,1-6.2c0.1-0.7,0.5-0.8,1.1-0.8C205.2,108.5,208.1,108.5,210.9,108.5L210.9,108.5z"/>
<path class="st1" d="M174.8,127.2c0,0.9,0.1,1.9,0.3,2.8c0.4,1.5,1.7,2.5,3.2,2.5c0.7,0.1,1.5,0.1,2.2,0c0.8-0.1,0.9,0.2,0.8,0.9
	c-0.3,1.9-0.5,3.8-0.7,5.8c0,0.7-0.5,1.2-1.1,1.3c-2.8,0.9-5.8,0.7-8.4-0.5c-2.5-1.4-4.2-3.8-4.7-6.7c-1.7-7.1-0.3-14.7,3.9-20.7
	c1.6-2.4,4.1-4.1,7-4.7c2.2-0.6,4.6-0.6,6.8,0c0.7,0.2,1.1,0.5,0.9,1.4c-0.3,1.9-0.5,3.8-0.8,5.8c0,0.3,0.1,0.8-0.6,0.6
	c-4.6-1.4-6.4,1.5-7.8,4.8C175,122.6,174.7,124.9,174.8,127.2z"/>
<path class="st1" d="M188.6,140.2c-1.2,0-2.4,0-3.6,0c-0.7,0-1-0.2-0.8-0.9c0.7-4.6,1.3-9.2,2.1-13.8c0.8-5.3,1.6-10.8,2.4-16.1
	c0.1-0.5,0.1-0.9,0.8-0.9c2.5,0,5.1,0,7.6,0c0.6,0,0.8,0.1,0.7,0.8c-1.2,8-2.4,16-3.6,23.9c-0.3,2.1-0.7,4.1-0.9,6.2
	c-0.1,0.8-0.4,1-1.1,0.9C191,140.2,189.8,140.2,188.6,140.2L188.6,140.2z"/>
<path class="st2" d="M139.1,136.3c-0.8,0.3-1.1-0.2-1.4-0.6c-1.4-2-3-3.8-4.8-5.3c-0.8-0.6-1.7-1.1-2.7-1.5c-0.8-0.3-1.2-0.3-1,0.7
	c0.4,2.2,0.9,4.4,1.5,6.5c1.6,4.9,3.6,9.6,5.9,14.1c0.7,1.1,1.3,2.2,1.8,3.5c-2.4-1.4-5-2.4-7.8-3.2c-4.6-1.3-9.2-2-14-2.2
	c-0.7,0-1.1-0.1-0.7-1c1.1-2.5,1.9-5.1,2.7-7.7c1.5-5.5,2.2-11.3,2-17c-0.2-7.3-1.9-14.5-4.8-21.2c-0.8-2-1.8-3.9-2.8-5.7
	c13.6,4.2,27.2,4.7,40.9,0.6c-1.1,3.5-1.7,7.1-1.7,10.8c-0.2,3.9-0.2,7.8,0.1,11.7c0,0.5,0.5,1.5-0.2,1.6c-0.7,0.1-0.4-0.9-0.5-1.3
	c-0.5-2.4-1.5-4.6-2.8-6.7c-4.5-6.1-12.3-5.9-16.7,0.3c-1.8,2.8-2.9,6-3.1,9.3c-0.1,1,0.5,0.5,0.9,0.4c2.6-1.3,4.9-3.3,6.5-5.8
	c0.6-0.8,1.1-1.6,1.6-2.3c0.1-0.2,0.4-0.3,0.7-0.2c0.4,0.2,0.1,0.5,0,0.6c-2.7,3.8-3.1,8-2.7,12.5
	C136,130.5,137.1,133.7,139.1,136.3z"/>
<path class="st2" d="M148.5,130c0,2.1,0,3.9,0,5.7c0,0.3-0.1,0.7-0.4,0.9c-1.8,1.8-4.8,1.9-6.7,0.1c-1.8-1.8-3-4.1-3.5-6.7
	c-1.2-4.6-0.6-9.5,1.5-13.8c0.7-1.5,1.8-2.6,3.3-3.4c1.8-0.8,4-0.4,5.3,1.1c0.2,0.3,0.3,0.6,0.3,0.9c0,1.7,0,3.4,0,5.1
	c-0.2,0.1-0.3,0-0.4-0.1c-1.6-1.8-3.4-1.7-4.4,0.5c-1.7,3.2-1.5,7.1,0.4,10.2c0.5,1,1.8,1.5,2.8,0.9c0.3-0.1,0.5-0.4,0.7-0.6
	C147.8,130.7,148.1,130.5,148.5,130z"/>
</svg>
