<?xml version="1.0" encoding="utf-8"?>
<!-- Generator: Adobe Illustrator 21.1.0, SVG Export Plug-In . SVG Version: 6.00 Build 0)  -->
<svg version="1.1" id="Layer_1" xmlns="http://www.w3.org/2000/svg" xmlns:xlink="http://www.w3.org/1999/xlink" x="0px" y="0px"
	 viewBox="0 0 250 250" style="enable-background:new 0 0 250 250;" xml:space="preserve">
<style type="text/css">
	.st0{fill:#089C6B;}
	.st1{font-family:'MyriadPro-Bold';}
	.st2{font-size:14.0532px;}
</style>
<title>Grocery</title>
<path class="st0" d="M136.9,113.5c3.9-1.3,8.1-1.7,12-2.8c1.5-0.4,1.9,0.3,2.1,1.7c1.8,8.7,3.7,17.5,5.6,26.2
	c0.4,1.8,0.4,3.8,2.9,4.1c0.6,0.1,1,0.7,0.9,1.3c0,0,0,0,0,0c0,0.7-0.5,1.2-1.2,1.3c-4.7,1-9.3,2-14.1,3c-0.6,0.1-1.2-0.2-1.4-0.7
	c-0.4-0.6-0.3-1.4,0.3-1.8c2.1-1.1,1.3-2.9,1-4.5c-1.6-7.5-3.3-15.1-4.8-22.7c-0.4-1.8-1.1-3-3-3s-2.5,1.5-3,2.9
	c-0.4,1.3-0.4,2.6,0,3.9c1.2,5.4,2.4,10.8,3.5,16.3c0.9,4.7,0.1,8.8-3.9,11.9c-0.8,0.6-1.9,1.9-2.9,0.7c-0.9-1.2-0.6-2.4,0.9-3.3
	c1-0.5,1.8-1.4,2.1-2.5l0,0l0.3-0.5c0.4-0.5,0.6-1.3,0.4-1.9c0.6-1.1,0.6-2.4,0-3.4l-0.2-0.9c0.1-0.5,0-1.1-0.4-1.5l-0.2-1.3
	c0.1-0.5,0-1.1-0.3-1.4l-0.2-0.8c0.2-0.8,0-1.6-0.5-2.3l-0.1-1.1c0.1-0.5,0-1-0.4-1.3l-0.2-1.5c-0.3-1.3-0.5-2.7-0.8-4.1
	c-0.2-2-1.3-3.8-2.9-4.9c-0.9-0.6-2.5-0.3-2.4-1.9s1.7-1.2,2.6-1.8l1.3-0.3c0.5,0.2,1.1,0,1.5-0.3l3.7-0.5
	C135.9,114,136.5,114.5,136.9,113.5L136.9,113.5z"/>
<path class="st0" d="M52.6,131.5c1-0.5,2-1,3-1.4c0.7-0.2,1.6-1.2,2.2,0c0.6,0.9,0.6,2-0.2,2.8c-3,3.6-2.2,6,2.2,7.4
	c1.6,0.5,3.3,0.8,4.9,1c12.9,2,15.1,13.2,9.1,20.6l0,0l-0.7,0.7l-1.3,1c-1.8,1.1-3.7,1.9-5.7,2.4l0,0c-0.2-1.3-1.3-2.6,0.5-3.7
	c1.7-0.8,2.6-2.6,2.2-4.5c-0.5-2-2.1-2.7-3.9-3.2c-1.1-0.4-2.2-0.5-3.3-0.5l0,0c-0.7-0.5-1.5-0.7-2.3-0.5l-0.8-0.1l-0.9-0.3
	l-0.9-0.2c-3.2-1.3-6.2-3-8-6.2l0,0c0-0.6-0.2-1.2-0.7-1.7l0,0l-0.2-1.1l-0.1-1.1l0.2-5.1c0.1-0.1,0.2-0.3,0.1-0.4
	c0.4-0.3,0.6-0.8,0.5-1.3l1.8-2.7l0.6-0.6l1.1-0.9l0.4-0.3L52.6,131.5z"/>
<path class="st0" d="M16.4,95.4c2.2-0.5,3,0.4,3.4,2.6c1.3,6.9,3,13.7,4.5,20.6l0.1,1.1c-0.1,0.4,0.1,0.9,0.4,1.2l0.1,1l0.5,3
	c0.2,1.3,0.6,2.4,2.2,2.1c0,0.1,0.2,0.2,0.3,0.1c0,0,0,0,0.1,0c1.6,1.6,1,2.7-0.9,3.2c-1.6,0.2-3.1,0.6-4.6,1.2
	c-2.5,0.5-5,0.9-7.5,1.4c-1,0.2-2.1,0.5-2.8-0.6c-0.7-1.1,0.2-1.8,0.9-2.3c0.8-0.6,1-1.6,0.6-2.5c-1.7-8.1-3.5-16.2-5.2-24.2
	c-0.3-1.3-0.6-2.3-2.1-2.5c-0.8,0-1.4-0.7-1.3-1.5c0,0,0,0,0,0c0-1.1,0.9-1.3,1.7-1.6C10.1,96.9,13.2,96.1,16.4,95.4z"/>
<path class="st0" d="M124.4,145.2c-0.1,1.6,0.7,3.2,2.2,3.9c1.3,0.7,2.6,1.3,2.3,2.9c-0.3,1.6-2.1,0.6-3,1.4h-6.1l-0.9-0.3l-2.1-0.7
	l-1.3-0.6l0,0l-0.6-0.4c0-0.1-0.2-0.2-0.3-0.2c0,0,0,0,0,0l-1.8-2.3c0.1-0.1,0.1-0.2,0-0.3c0,0,0,0-0.1,0c0.1-0.8-0.1-1.6-0.6-2.3
	l-0.2-1.2l-0.4-1.2l-0.1-1c0.1-0.8-0.1-1.6-0.5-2.2c0.1-0.6,0-1.3-0.4-1.8c0,0,0.1-0.1,0.1-0.2c-0.1-0.1-0.1-0.2-0.2-0.3l-0.2-1.7
	l-0.3-0.7l-0.1-1c0.1-0.6,0-1.2-0.5-1.7l-0.2-1.7c0-1.1-0.3-2.2-0.8-3.2l-0.2-1.3l-0.2-1.2l-0.3-1.1c0.1-1.7-1-1.8-2.2-1.7l-1.1-1.1
	l0.1-1.1l0.4-0.6l3.2-1l0.8-0.1c0.7,0.1,1.4,0,1.9-0.4l0.9-0.2c0.7,0.1,1.4,0,2-0.4h0.2l0.1-0.1c1.7-0.3,3.5-0.6,5.2-0.9
	c0.7-0.2,1.6,0.1,2,0.7c0.4,0.6,0.3,1.4-0.3,1.9c-0.1,0-0.1,0.1-0.2,0.1c-1.5,0.9-1.3,2.1-0.8,3.5l0.4,1.6c-0.1,0.5,0,1.1,0.4,1.4
	l0.1,0.8c0,1.2,0.2,2.4,0.7,3.5l0.5,2.2c-0.1,0.7,0,1.3,0.4,1.9l0.2,1.5c0.2,1.5,0.5,3.1,1.1,4.5c-0.1,0.8,0.1,1.6,0.5,2.3l0.1,0.6
	l0.1,1.2C124.1,144.8,124.2,145.1,124.4,145.2C124.4,145.2,124.4,145.2,124.4,145.2L124.4,145.2z"/>
<path class="st0" d="M104.1,76.8c0.8,0.1,1.6-0.1,2.3-0.5c0.9-0.1,1.9-0.2,2.8-0.4c2.1-0.7,3.1-0.4,3.6,2.1
	c1.8,9.3,3.9,18.6,5.9,27.8c1,4.7,1,4.7-3.8,5.8c-0.6,0.1-1.2,0.4-1.9,0.6l-1,0.2c-0.5-0.1-1.1,0-1.4,0.4l-1.3,0.2
	c-0.5-0.1-1,0-1.3,0.4c-0.9-0.1-1.9,0.2-2.7-0.5l-0.2-1.7c0.2-0.1,0.3-0.3,0.3-0.5l0.8-0.6c0.1,0,0.2,0,0.2-0.1c0,0,0,0,0-0.1
	c0.3,0,0.5-0.1,0.4-0.5l0.1-1.1c0-1-0.2-1.9-0.6-2.8l-0.5-2.3c0.1-0.6,0-1.3-0.4-1.8l-0.7-3.8c0-0.8-0.1-1.6-0.5-2.2
	c0.1-1-0.1-2-0.6-2.8c-0.1-1.6-0.4-3.1-1-4.5l-0.3-1.7c-0.1-1.1-0.3-2.2-0.8-3.2c0.2-1.7-0.9-2.1-2.3-2.1l-0.6-0.4l0,0l-0.3-1.7
	l0.3-0.6l0.7-0.5l3.8-0.8C103.4,77.2,103.9,77.1,104.1,76.8z"/>
<path class="st0" d="M199.4,100c0.1,0,0.3,0,0.3-0.1c3.6-0.7,7.2-1.4,10.8-2.2c1.7-0.4,2.5-0.1,2.8,1.8c1.8,9.1,3.8,18.2,5.7,27.3
	c1.1,5.4,1.2,5.3-3.8,6.9c-0.1,0-0.2,0.1-0.2,0.1l-1.1,0.1c-2.1,0.2-4.1,0.7-6,1.4l-1.3-0.1c-1.2-1-1.2-2.1,0.1-3
	c0.8-0.5,1.2-1.6,0.8-2.5c-0.9-3.6-1.3-7.4-2.6-10.9c0.1-0.1,0.1-0.2,0.1-0.3c0,0,0,0-0.1-0.1c-0.8-4.1-1.6-8.2-2.4-12.3
	c-0.3-1.6-0.4-3.4-2.7-3.6c-1-0.1-1.1-1.1-1-2l0,0L199.4,100z"/>
<path class="st0" d="M177.1,135.6c0.5,4.3-2.2,7.6-6.8,8.4c-4.3,0.7-7.3-1.1-8.5-5.4c-0.5-1.8-0.8-3.7-1.3-5.5
	c-0.2-1.5-1.2-2.8-2.7-3.3c-1.7-0.5-1.9-1.9-0.7-3.2c0.3-0.3,0.8-0.6,1-0.9c1.3-2-1.2-11.3-3.4-12.3c-1.8-0.8-2.4-1.9-1.3-3.7
	c3.7-0.5,7.3-1.2,10.9,0.1l0.9,0.5l0,0c2.7,2,4.1,5.2,4,8.5c-0.1,3.6-2.7,5.7-5.4,7.8c8-0.8,8.6,5,9.8,10.9c1.1-1.7,2.3-2.1,3.7-1.9
	L177.1,135.6z"/>
<path class="st0" d="M183.5,139.4c-2.3-1.1-4.4-2.4-6.5-3.9l0,0c-5.3-7.5-7-15.5-4-24.4c0.1,0,0.2-0.2,0.1-0.3c0,0,0,0,0,0l4-5.3
	l0,0l0.8-0.6l0.9-0.6c0.7-0.3,1.3-0.6,2.1-0.9c0.9-0.2,2-1.4,2.7-0.4s0.5,2.2-0.6,3.3c-1.6,1.6-1.1,3.6-0.4,5.5
	c0,1.3,0.3,2.6,0.7,3.8c-0.1,0.5,0,1,0.4,1.4l0.1,0.8c0.2,2.5,0.8,5.1,1.6,7.5l0.2,1.6c0.3,1.7,0.6,3.5,1,5.2c0.3,1.5,0.8,3,2.2,3.7
	c1.2,0.5,2.3,1,2.2,2.5c-0.1,1.9-2.1,0.6-2.8,1.5l-2.5-0.1c-0.6-0.4-1.3-0.6-2-0.4c0-0.1-0.2-0.2-0.3-0.1
	C183.6,139.3,183.6,139.3,183.5,139.4z"/>
<path class="st0" d="M101.1,158.1l-1.5,0.7c-0.4-0.1-0.9,0.1-1.1,0.5l0,0c-1.9-0.6-1.4-2-1.1-3.4l0,0l0.6-0.6l0,0
	c0.4-0.2,0.7-0.7,0.5-1.2c0.2-0.6,0.2-1.2-0.1-1.7c0.1-0.5,0-1-0.4-1.4l-0.2-1.4c0.1-0.5,0-1-0.4-1.3l-0.2-0.9c0.1-0.7,0-1.4-0.4-2
	l-0.8-4.3c0.1-0.5-0.1-0.8-0.4-1.1l-0.2-1.7c0-1.1-0.3-2.2-0.8-3.2l-0.1-0.8c0.2-0.7,0-1.4-0.5-2l-0.1-0.9c-0.3-2,0.1-4.4-2.1-5.5
	c-1.4-0.5-2.3-2.1-1.9-3.6l1.2-0.1h1.7l4.8,0.8l2.5,1.3l2.2,1.6l1.5,1.5l1.3,1.8l1.7,3.1c1.3,3.7,2.1,7.6,2.3,11.5l-0.2,1.7
	l-0.3,2.5l-0.9,2.6l-1.3,2.6l-2.2,2.5l-0.6,0.5l-0.8,0.7l-0.9,0.6L101.1,158.1z"/>
<path class="st0" d="M85,157.8c-7.3-5.5-9.1-13.2-8.7-21.8l0.1-1.1c0.6-1.1,0.9-2.2,1.1-3.4c0.1,0,0.2-0.1,0.1-0.2c0,0,0,0,0,0
	l0.4-0.8c0.1,0,0.2-0.2,0.2-0.3c0,0,0,0,0,0l1-1.5l0.7-0.8c2-1.9,4.3-3.5,6.9-4.6h1c0.3,1.3,0.9,2.8-0.5,4l0,0
	c-0.3,0-0.5,0.2-0.4,0.5l-0.1,1.1c-0.2,0.8,0,1.6,0.4,2.3c0.2,2.3,0.7,4.6,1.3,6.8l0.3,0.9c0,1.2,0.3,2.5,0.7,3.6
	c-0.1,0.7,0,1.4,0.4,1.9l0.1,0.9l0.1,0.5l0.4,1.7l0.1,1.1l0.5,2.3c-0.1,0.5,0,1,0.4,1.3l0.2,0.9c0,1.6,0.3,3.1,2.2,3.5l0.6,0.2
	c1.3,3.1,1.3,3.1-2,3.2c-0.3,0-0.6,0-0.8,0l-1.7-0.1c-0.7-0.4-1.4-0.6-2.2-0.6l0,0c-0.3-0.4-0.7-0.6-1.2-0.5L85,157.8z"/>
<path class="st0" d="M68.3,95.5l0.2-1.9c0.5-0.8,0.7-1.7,0.7-2.7l0,0c1.3-2.8,3.2-5.4,5.5-7.5l1.1-0.7l0.9-0.5l0.9-0.3l0.5-0.4
	l0.6-0.1c2,0.4,2.1,1.8,1.1,3c-1,1.2-1.3,2.9-0.8,4.4c1.6,7.3,3.2,14.7,4.7,22c0.4,1.8,0.8,3.4,2.8,4.2c1.1,0.4,1.1,1.6,1,2.4
	c-0.1,0.8-1.2,0.7-1.9,0.7c-1.1,0-2.2-0.2-3.4-0.3l-2.8-0.7c-0.4-0.6-1.2-0.6-1.8-0.9c0-0.2-0.2-0.3-0.4-0.3l-3.5-2.9l0,0
	C69.9,108.2,68,101.9,68.3,95.5z"/>
<path class="st0" d="M90.4,81.9l1.1,0.6c4,2.7,7,6.7,8.5,11.3l0.2,1.1l0.7,3.9l0.2,1.2l-0.5,6.8l-1.7,4.3l-1.7,2.5l0,0l-2.3,2
	l-0.4,0.3l-0.9,0.5l-0.9,0.5c-1.1,0-2.3,1.6-3.2,0.3c-1-1.3-0.1-2.4,0.8-3.5c0.9-1.1,0.3-2.2,0.1-3.3c-1.6-7.8-3.3-15.5-5-23.3
	c-0.3-1.2-0.6-2.3-1.8-2.7c-2.1-0.6-1.9-2-1.5-3.5l2.7-0.1h0.6l1.1,0.2L90.4,81.9z"/>
<path class="st0" d="M58.9,124.2c-0.7-0.4-1.7,1.3-2.3-0.3c-0.4-1-0.7-1.9,0.3-2.8c0.9-0.9,1.2-2.2,0.8-3.4c-1.7-8-3.4-15.9-5-23.9
	c-0.1-1.3-1.1-2.5-2.3-2.9c-1.3-0.4-1.1-1.4-1.2-2.3c-0.1-1.4,1.3-0.6,1.9-1h1.7l2.3,0.2l0.1,0.1h0.1c5.6,1.9,9.8,6.4,11.5,12
	c1.2,3.9,1.6,8.1,1.3,12.2c-0.1,0.1-0.1,0.3,0,0.5l-1.8,5c-0.6,0.4-1,0.9-1.1,1.6l-0.9,0.9c-0.2,0-0.3,0.2-0.3,0.3l-0.6,0.7l0,0
	l-0.7,0.7c-0.2,0-0.3,0.1-0.4,0.3l-0.5,0.3l-0.7,0.4l-1.1,0.7L58.9,124.2z"/>
<path class="st0" d="M36.2,111.8c-0.7-4.4-1.3-8.7,0-13.1c1.3-4.3,4.4-7.8,8.6-9.5c0.6-0.3,1.5-1,2-0.2c0.7,0.8,0.7,1.9,0,2.7
	c-1.1,1.2-1.5,2.9-0.9,4.5c1.7,7.7,3.3,15.4,5,23.1c0.3,1.2,0.6,2.3,1.7,2.7c1.4,0.5,2.1,1.5,1.7,2.8c-0.4,1.3-1.7,0.5-2.7,0.7
	c-0.3,0.1-0.6,0.1-0.8,0.1l-0.7,0.1l0,0l-0.2-0.1h-0.2c-0.6-0.5-1.3-0.7-2.1-0.6l-0.8-0.3l-3.2-1.6l-0.7-0.5c-2.9-2.7-5.1-6-6.4-9.7
	L36.2,111.8z"/>
<path class="st0" d="M116,74.4l4.8,0.1l4.9,2.1l2.1,1.8c3.5,3.9,5.1,8.7,6.3,13.7c0,1.7,0,3.5,0,5.2c-0.4,0.4-0.5,0.9-0.4,1.5
	l-0.7,2.3l-1.8,3.4l-0.4,0.4l-3.7,3.4h-0.1l-0.1,0.1l-1.1,0.6l0,0c-0.4,0.2-0.9,0.3-1.3,0.4c-0.9,0.1-1.8,1.4-2.7,0
	c-0.7-0.8-0.5-2.1,0.4-2.7c0.1-0.1,0.2-0.1,0.3-0.2c1.3-1.1,1.2-2.7,0.9-4.2c-1.4-6.8-2.9-13.6-4.4-20.4c-0.4-1.8-0.9-3.8-3.1-4.3
	c-1.1-0.2-1.2-1.1-1.3-1.9C114.3,74.6,115.2,74.6,116,74.4z"/>
<path class="st0" d="M52,162.7l-0.3-1.2l-0.2-1.1l-0.6-3.4v-0.5l0.4-1.6c1.8-0.5,2.8,0.3,3.5,1.9c1.1,2.8,3.4,5.1,6.2,6.1l0,0
	l0.7,0.2l1.5,0.2c0.7,1.2,1.9,2.5-0.3,3.4l-4.4-0.5c-1-0.4-2.1,0.1-2.5,1c0,0,0,0,0,0.1c-0.7,1.2-1.7,0.9-2.7,0.4l0,0l-0.5-1.3
	l-0.4-2.1L52,162.7z"/>
<path class="st0" d="M225.2,131.6c-1-0.5-2.2,1.2-3-0.3c-0.8-1.5-0.3-2.2,1.1-2.9c2.6-1.3,4.3-3.8,4.7-6.7c0.3-1.2,0.1-2.7,1.8-2.7
	s1.4,1.7,1.7,2.8c0.1,0.3,0.2,0.5,0.4,0.7l0.1,0.6c0.3,1.6,0.5,3.3,0.9,4.9c0.2,1,0.3,1.8-0.9,2.2l-1.7,0.4c-0.5-0.1-1,0-1.3,0.4
	C227.7,130.9,226.4,131.2,225.2,131.6z"/>
<path class="st0" d="M219.6,95.5c1.9,0.3,4.2-1.8,5.6-0.3c1.2,1.2,1.3,3.6,1.5,5.5c0.1,1.5,1.9,3.5-0.1,4.6
	c-2.2,1.2-2.5-1.7-3.5-2.7c-1.5-1.6-3.5-2.6-5.6-2.9c-1.1-0.1-2.2,0.1-2.5-1.5s1.2-1.5,2-2.1l1.4-0.2
	C218.8,96.1,219.3,95.9,219.6,95.5z"/>
<path class="st0" d="M29.5,117.4c-0.4-1.8-1.7-3.2-3.4-3.9c-1.1-0.3-1.7-1.4-1.4-2.5c0.1-0.3,0.2-0.6,0.4-0.8
	c1.1-1.4,1.8-3.1,1.9-4.9c0.1-0.8,0.3-1.5,1.3-1.6c1-0.1,1.4,0.7,1.6,1.6c0.8,3.5,1.6,6.9,2.4,10.4C32.4,118,31.6,118.7,29.5,117.4z
	"/>
<path class="st0" d="M62.8,128.7l1.7,0.1c1.5,0.6,3,1.2,3.5-1.2c0.6-0.5,1.3-0.6,2-0.5l0.8,1.1c-0.1,0.8,0.1,1.5,0.5,2.2
	c0,1.7,0.4,3.3,1,4.8l-0.1,0.1l0.1,0.1c0,0.2,0,0.4,0,0.6c0,1.2,0.9,2.8-0.9,3.4s-2.1-1.1-2.7-2.2c-1.3-2.6-3.6-4.4-6.4-5.1
	c-1.2-0.3-2.5-0.5-2.4-2.2C60.1,127.8,61.9,129.2,62.8,128.7z"/>
<path class="st0" d="M33.8,102.2c0,0.6-0.4,1.1-1,1.2c-0.6,0.3-1.4,0-1.7-0.6c-2-3.2-4.6-5.3-8.7-5.3c-1,0-0.9-1.1-1-1.8
	c-0.1-0.6,0.2-1.2,0.8-1.3c0.1,0,0.1,0,0.2,0l8-1.7c0.9-0.2,1.5,0,1.7,1C32.7,96.4,33.2,99.1,33.8,102.2z"/>
<path class="st0" d="M225.8,118.2c0,0.9,0,1.7-0.8,2s-1.5-0.3-1.8-0.9c-0.8-1.7-2.2-3-3.9-3.8c-1-0.6-1.3-1.9-0.7-2.9
	c0.1-0.1,0.2-0.2,0.3-0.3c1.2-1.4,1.8-3.1,1.9-4.9c0-0.8,0.6-1.4,1.3-1.5c0.8-0.1,1.2,0.5,1.3,1.2
	C224.2,110.7,225,114.5,225.8,118.2z"/>
<path class="st0" d="M230.7,99.9c-2.7,0.4-2.4-2.2-3.2-3.6c-0.4-0.7,0.9-2,1.7-1.7c1.5,0.7,4,0.2,3.9,2.9
	C233.1,98.9,232.6,100,230.7,99.9z"/>
<path class="st0" d="M197.7,131.7c0.4-0.2,0.6-0.6,0.5-1c0.4-0.5,0.7-1.2,0.6-1.9l0,0c0.1-0.5,0.3-1.1,0.4-1.6
	c0.3-0.7,0.7-1.3,1.6-1.3c0.9,0,1.2,0.7,1.3,1.5c0.9,3.7-4,10.8-7.8,11.3c-0.7,0.1-1.1-0.1-1.2-0.7c-0.2-0.9-0.5-1.8,0.6-2.4
	C195.5,134.7,196.8,133.4,197.7,131.7z"/>
<path class="st0" d="M187.8,102.2c1,0.1,2,0.3,3,0.5c1.2,0.2,2.5,0.3,3-1.3c0.2-0.7,1-1.2,1.7-1c0,0,0,0,0.1,0
	c0.7,0.2,1.1,0.7,1.2,1.4c0.8,3.6,1.5,7.1,2.3,10.7c0.3,0.8-0.1,1.8-0.9,2.1c0,0,0,0,0,0c-0.9,0.4-1.9,0-2.3-1c0,0,0,0,0,0
	c-0.7-1.4-1.5-2.8-2.4-4.1c-1.4-2.1-3.6-3.6-6.1-4.2c-1.5-0.3-1.5-1.5-1.5-2.3C185.8,101.6,187,102.4,187.8,102.2z"/>
<path class="st0" d="M241.6,100.1c-2,0-3.6-1.6-3.6-3.6c0-2,1.6-3.6,3.6-3.6c2,0,3.6,1.6,3.6,3.6l0,0
	C245.2,98.5,243.6,100.1,241.6,100.1z M241.6,93.5c-1.7,0-3.1,1.4-3.1,3.1c0,1.7,1.4,3.1,3.1,3.1c1.7,0,3.1-1.4,3.1-3.1c0,0,0,0,0,0
	C244.7,94.9,243.3,93.5,241.6,93.5C241.6,93.4,241.6,93.4,241.6,93.5L241.6,93.5z"/>
<path class="st0" d="M240.4,98.6l-0.6-4l1.3-0.2c0.3-0.1,0.5-0.1,0.8,0c0.2,0.1,0.3,0.2,0.4,0.3c0.1,0.2,0.2,0.4,0.3,0.6
	c0.1,0.3,0,0.5-0.1,0.8c-0.1,0.2-0.3,0.4-0.6,0.5c0.1,0.1,0.3,0.2,0.4,0.3c0.2,0.2,0.3,0.4,0.5,0.6l0.5,0.7l-0.8,0.1l-0.6-0.8
	c-0.1-0.2-0.3-0.4-0.4-0.5c-0.1-0.1-0.1-0.1-0.2-0.1c-0.1,0-0.2,0-0.3,0h-0.1l0.3,1.7L240.4,98.6z M240.7,96.2l0.5-0.1
	c0.2,0,0.4-0.1,0.6-0.1c0.1,0,0.1-0.1,0.2-0.2c0-0.1,0-0.2,0-0.3c0-0.1-0.1-0.2-0.1-0.3c-0.1-0.1-0.1-0.1-0.2-0.1
	c-0.2,0-0.4,0-0.5,0l-0.5,0.1L240.7,96.2z"/>
<text transform="matrix(0.6299 -0.13 0.2 0.9798 104.1373 172.8356)" class="st1 st2">GRE</text>
<text transform="matrix(0.6299 -0.13 0.2 0.9798 119.681 169.6282)" class="st1 st2">A</text>
<text transform="matrix(0.6299 -0.13 0.2 0.9798 124.6132 168.6105)" class="st1 st2">T PRICES </text>
<text transform="matrix(0.6299 -0.13 0.2 0.9798 159.7594 161.3581)" class="st1 st2">E</text>
<text transform="matrix(0.6299 -0.13 0.2 0.9798 164.4057 160.3993)" class="st1 st2">VE</text>
<text transform="matrix(0.6299 -0.13 0.2 0.9798 174.3208 158.3533)" class="st1 st2">R</text>
<text transform="matrix(0.6299 -0.13 0.2 0.9798 179.2444 157.3374)" class="st1 st2">Y </text>
<text transform="matrix(0.6299 -0.13 0.2 0.9798 186.2014 155.9018)" class="st1 st2">D</text>
<text transform="matrix(0.6299 -0.13 0.2 0.9798 192.1331 154.6778)" class="st1 st2">A</text>
<text transform="matrix(0.6299 -0.13 0.2 0.9798 196.9983 153.6739)" class="st1 st2">Y</text>
</svg>
