<?xml version="1.0" encoding="utf-8"?>
<!-- Generator: Adobe Illustrator 21.1.0, SVG Export Plug-In . SVG Version: 6.00 Build 0)  -->
<svg version="1.1" id="Layer_1" xmlns="http://www.w3.org/2000/svg" xmlns:xlink="http://www.w3.org/1999/xlink" x="0px" y="0px"
	 viewBox="0 0 250 250" style="enable-background:new 0 0 250 250;" xml:space="preserve">
<style type="text/css">
	.st0{fill:#EC2D35;}
	.st1{fill:#292627;}
	.st2{fill:#FFFFFF;stroke:#000000;stroke-width:0.25;stroke-miterlimit:10;}
	.st3{fill:#FFFFFF;stroke:#000000;stroke-miterlimit:10;}
</style>
<title>Grocery</title>
<path class="st0" d="M31,112.2l-1.6-0.4c-2.9-1.8-6.1-1-9.2-1.2c-0.8,0-1.7,0.1-1.6,1.2c0.4,3.5-1,6.6-1.6,10
	c-0.4,2.4,0.8,2.4,2.5,1.6c3.1,1,6.5-1.3,9.5,0.6c-0.9,3-3.1,4-6,4.1c-7.8,0.3-7.8,0.3-9.2,8c-0.4,1.2-0.6,2.6-0.6,3.9
	c0.8,3.9-1.2,4.8-4.4,4.9c-1-0.3-2.3-0.3-3.1-1v-6.4c3.1-7.8,5.2-16,6.3-24.3c0.1-0.4,0.1-0.8,0-1.2c-1.8-4.8-1.6-5.2,3.7-5.5
	c4.8-0.3,9.5-0.4,14.3-0.6c1.5-0.2,2.9,0.1,4.1,1C33.6,109,32.6,110.8,31,112.2z"/>
<path class="st0" d="M6.7,135.5c0,0-3.7,8,0,9l2.1-0.5l2.3-7.1L6.7,135.5z"/>
<path class="st0" d="M103.6,144.5c-2.3-0.2-3.3-1.7-4-3.6c0-1.2,0-2.4,0-4.6c-3.4,4.3-6.4,7.6-11,8.7c-4.4-1.6-5.6-3.4-5.8-9
	c1.3-1.5,0.8-3.6,1.7-5.2c1.2-2.2,2.5-4.3,4-6.3c3.4-4.4,7.4-7.7,13.5-5.9c1.4,0.4,2-0.2,2.2-1.4c0.2-1.6,0.4-3.2,0.6-4.7
	c0.1-1.3-0.8-3,1.4-3.5c2-0.4,4.1-1.8,5.5,0.9c0.6,4.6-1.3,8.7-2.2,13c-1,4.6-2.7,9.1-2.8,13.8c0,0.8-0.4,2,0.9,2.3
	c0.8,0.1,1.3-0.7,1.7-1.3c1.3,0.2,2-4.1,3.8-0.6h0.1c-0.6-0.2-0.6,0.4-0.7,0.7C110.4,141.1,107.9,143.9,103.6,144.5z M93.3,138.8
	c4.4-3.3,6.2-8.3,8.6-12.9c0.7-1.4,0-2.5-1.4-3.2c-1.8-1.8-3.5-0.9-4.8,0.5c-3.6,3.9-5.4,9.1-5,14.5
	C90.8,139.3,91.7,140.1,93.3,138.8z"/>
<path class="st0" d="M41.2,145c-3.1,1.3-8.3-0.9-10.2-4.3c-2.5-4.4-1.1-11.8,3.2-17c4-4.9,10-7,15.2-5.3c1.2,0.5,2.3,1.2,3.3,2
	c1.9,3.2,2.3,7.1,1.2,10.6C52.2,137.9,47.7,142.4,41.2,145z M46.1,122.5c-2.2-2.5-3.9-0.8-5.1,0.8c-2.9,4.1-4.4,9.1-4,14.1
	c0.1,1.8,0.6,3.8,3.2,3.6C45.7,139.4,49.1,128.6,46.1,122.5L46.1,122.5z"/>
<path class="st0" d="M68.2,145c-3.6,1.3-9.2-1.5-10.6-5.4c-3.5-9.5,5.6-22.1,15.7-21.7c2.7,0.1,5.3,1.3,7.3,3.2
	c0.1,2.2,1.1,4.2,0.9,6.5C80.8,136.3,76.1,141.8,68.2,145z M73.1,122.5c-2.4-2.7-4.1-0.6-5.3,1.1c-2.8,4-4.1,8.8-3.7,13.7
	c0.1,1.7,0.3,3.9,3.1,3.6c0.9,0.2,1.9-0.1,2.5-0.8C73.5,136.9,75.4,127.3,73.1,122.5z"/>
<path class="st1" d="M8.8,145.2c3.2-0.1,5.2-1,4.4-4.9c0-1.3,0.1-2.6,0.6-3.9c1.3-7.6,1.3-7.7,9.2-8c2.9-0.1,5.1-1.1,6-4.1
	c0.8,0.2,2.4-0.8,2.2,1.1c0,1.8-1.3,3.3-3.1,3.6c-2.5,0.4-5,0.6-7.4,0.6c-1.8,0-2.9,0.4-3.2,2.5c-0.4,3-1.3,5.9-1.6,8.9
	C15.4,146.1,13.9,147.1,8.8,145.2z"/>
<path class="st1" d="M109.2,137.6c-0.4,0.7-0.9,1.5-1.7,1.3c-1.3-0.2-0.9-1.4-0.9-2.3c0.2-4.8,1.9-9.2,2.8-13.8
	c0.9-4.3,2.8-8.4,2.2-13c3.5-0.4,3.2,2,2.7,4.1c-1.2,5.4-2.7,10.8-3.9,16.2C109.6,132.5,109.2,135.1,109.2,137.6z"/>
<path class="st1" d="M68.2,145c7.8-3.2,12.6-8.7,13.3-17.4c0.2-2.3-0.8-4.3-0.9-6.5c3.6,1,3.5,4,3.5,6.8c0,1.1-0.9,2.2,0.4,3
	c-0.9,1.6-0.4,3.7-1.7,5.2c-3.2,3.8-5.9,8.4-11.4,9.4C70.1,145.6,69.2,146.3,68.2,145z"/>
<path class="st1" d="M41.2,145c6.5-2.7,11-7,12.7-13.9c1.1-3.6,0.6-7.4-1.2-10.6c3.6,0.5,4,3.5,4.3,6.2c0.9,8.2-5.5,17.2-13.5,19.1
	C42.6,145.9,41.7,146,41.2,145z"/>
<path class="st1" d="M19.4,123.7c-1.7,0.7-2.9,0.8-2.5-1.6c0.6-3.3,2-6.5,1.6-10c-0.1-1.1,0.8-1.3,1.6-1.2c3.1,0.2,6.3-0.7,9.2,1.2
	c-2.5,0.1-5.7-0.8-7.2,0.5c-1.5,1.2-1.2,4.6-1.8,7C20.1,120.9,19.7,122.3,19.4,123.7z"/>
<path class="st1" d="M103.6,144.5c4.2-0.6,6.6-3.5,8.8-6.8l0.7-0.7H113c0.7,0.2,2.1-2,2,0.6C114.8,142.3,108,146.4,103.6,144.5z"/>
<path class="st1" d="M88.6,145c4.6-1,7.6-4.3,11-8.7c0,2.2,0,3.4,0,4.6c-2.2,1.7-4.1,4-7,4.7C91.2,145.9,89.8,146.2,88.6,145z"/>
<path class="st1" d="M31,112.4c1.5-1.4,2.6-3.2,3-5.2c1.9,0.2,3.1,0.9,1.9,3S33.9,114.5,31,112.4z"/>
<path class="st1" d="M100.5,122.8c-6,3.7-7.2,9.6-7.2,16.1c-1.6,1.3-2.5,0.5-2.7-1.2c-0.4-5.3,1.4-10.6,5.1-14.5
	C97,121.9,98.7,121,100.5,122.8z"/>
<path class="st0" d="M113.1,137l-0.7,0.7C112.6,137.4,112.5,136.8,113.1,137z"/>
<path class="st1" d="M46,122.5c-5,3.1-7.5,11-5.9,18.5c-2.7,0.2-3.1-1.8-3.2-3.6c-0.4-5,1-10,4-14.1C42.2,121.7,43.9,120,46,122.5z"
	/>
<path class="st1" d="M73.1,122.5c-5,2.9-7.5,10.6-5.9,18.4c-2.7,0.3-3-1.9-3.1-3.6c-0.4-4.9,0.9-9.7,3.7-13.7
	C69.2,122,70.8,119.8,73.1,122.5z"/>
<path d="M133.8,125h12.6v20.5h-3.4l-1-4.4c-1.7,3.2-5.1,5.1-8.8,5c-4,0.1-7.7-1.9-9.8-5.2c-2.4-3.4-3.6-8.1-3.6-13.9
	c0-6.3,1.2-11.3,3.6-15c2.3-3.6,6.3-5.8,10.6-5.5c7.4,0,11.6,4.4,12.5,13.2l-7.2,1.2c-0.5-5-2.2-7.6-5.2-7.6c-1.8,0-3.5,1.1-4.3,2.8
	c-1.1,1.9-1.6,5.4-1.6,10.6c0,4.6,0.5,7.8,1.6,9.7c0.8,1.7,2.6,2.8,4.5,2.8c3.2,0,4.9-2.5,4.9-7.6h-5.4L133.8,125z"/>
<path d="M152,117.1h7.5v28.5H152V117.1z M160.8,110.8c0,2.6-2.1,4.8-4.8,4.8s-4.8-2.1-4.8-4.8c0-2.6,2.1-4.8,4.8-4.8l0,0
	C158.6,106,160.8,108.1,160.8,110.8L160.8,110.8z"/>
<rect x="141.7" y="138.6" width="4.8" height="7.2"/>
<rect x="149.6" y="143.4" width="11.9" height="2.4"/>
<path d="M174.4,107.5h8l10.4,38.4h-8.2l-1.8-8h-10.2l-1.8,8h-7.3L174.4,107.5z M181.3,131.4l-3.7-15.8l-3.5,15.8H181.3z"/>
<path d="M195.6,107.5h8.9l9.3,23.9v-23.9h6.2v38.4h-7.1l-11.1-27.8v27.8h-6.2L195.6,107.5z"/>
<path d="M222.4,107.5H245v7.2h-7.4v31.2h-8v-31.2h-7.2L222.4,107.5z"/>
<polygon class="st2" points="157.5,121.3 161.7,121.3 162.9,119.5 162.9,123.7 158.7,123.7 157.5,123.7 "/>
<polygon class="st3" points="157.2,132.9 162,132.9 163.1,122.8 157.7,122.8 157.2,122.8 "/>
</svg>
