<?xml version="1.0" encoding="utf-8"?>
<!-- Generator: Adobe Illustrator 21.1.0, SVG Export Plug-In . SVG Version: 6.00 Build 0)  -->
<svg version="1.1" id="Layer_1" xmlns="http://www.w3.org/2000/svg" xmlns:xlink="http://www.w3.org/1999/xlink" x="0px" y="0px"
	 viewBox="0 0 250 250" style="enable-background:new 0 0 250 250;" xml:space="preserve">
<style type="text/css">
	.st0{fill:#009D57;}
	.st1{fill:#EF3E42;}
</style>
<title>Grocery</title>
<path class="st0" d="M74.8,135.6c-3.1,8.8-5.3,10.4-17,10.4c-10.7,0-12.9-2.1-9.7-10.4l4.4-13.1c2.9-8,7.5-9.2,16.2-9.1
	c12.6,0,12.7,2.9,10.6,9.1L74.8,135.6z M67.7,123.6c0.6-1.8,1.7-3.9-1.1-3.9c-2.8,0-2.8,2.1-3.4,3.9l-3.8,11.8
	c-0.5,1.7-1.5,3.9,0.8,4.1c2.7,0.2,2.7-1.9,3.7-4.1L67.7,123.6z"/>
<path class="st0" d="M102.8,135.7c-3.1,8.8-5.3,10.4-17,10.4c-10.7,0-12.9-2.1-9.7-10.4l4.4-13.1c2.9-8,7.5-9.2,16.2-9.1
	c12.6,0,12.6,2.9,10.6,9.1L102.8,135.7z M95.7,123.7c0.6-1.8,1.7-3.9-1.1-3.9c-2.8,0-2.8,2.1-3.4,3.9l-3.8,11.9
	c-0.5,1.7-1.5,3.9,0.8,4.1c2.7,0.2,2.7-1.9,3.7-4.1L95.7,123.7z"/>
<path class="st0" d="M100.6,145.5l10.5-31.3h9.4c3.6,0,7.8,0.1,10.5,1.5c3.2,1.7,2.8,4.8,1.8,7.8l-4.2,13.9
	c-1.1,3.6-2.7,6.1-6.6,7.4c-3.1,1.1-6.2,0.7-9.3,0.7L100.6,145.5z M112.8,140c4.9,0.4,5-1.7,6.2-6l3.3-10.6c1.1-3.8,0.6-4-3-4.1
	L112.8,140z"/>
<path class="st0" d="M141.6,134.7l-0.9,1.9c-0.5,1.8-0.6,2.8,1.2,2.8c2.2,0,2.2-1.1,2.9-2.7c1.2-2.7-0.9-3.2-2.9-4.4
	c-2.4-1.3-4.8-1.6-5.9-3.2c-1.5-2.2-2-5-1.3-7.5c2-5.9,4.5-8.6,17.8-8.6c8.3,0,10.3,5.6,7.3,11.5h-10c0.7-1.9,2-3.6-0.5-4.4
	c-1.4-0.5-2.9,0.2-3.4,1.5c0,0,0,0.1,0,0.1c-0.7,1.9-0.1,1.9,1.3,2.9c2.8,1.8,5.4,2.9,7,4.5c1.5,1.6,2.8,3.6,2,7.8
	c-1.3,6.5-4.9,9.1-17.3,9.1c-8.8,0-11.8-3.8-9.9-7.9l1.5-3.4L141.6,134.7z"/>
<path class="st0" d="M233,135.3c-3.1,8.8-5.3,10.4-17,10.4c-10.7,0-12.9-2.1-9.7-10.4l4.4-13.1c2.9-8,7.5-9.2,16.2-9.1
	c12.6,0,12.6,2.9,10.6,9.1L233,135.3z M225.9,123.3c0.6-1.8,1.7-3.9-1.1-3.9s-2.8,2.1-3.4,3.9l-3.8,11.8c-0.5,1.7-1.5,3.9,0.8,4.1
	c2.7,0.2,2.7-1.9,3.7-4.1L225.9,123.3z"/>
<rect x="5" y="147.3" class="st1" width="224.1" height="2"/>
<path class="st0" d="M5.5,145.3l2-5.6h3.4c1.5-0.1,2.7-1.1,3.1-2.5l9.2-25.7c0.6-1.6,0.1-2.5-1.3-2.5h-3.4l2-5.6l37.4,0.2l-5.7,16.1
	h-5.2c3.3-9.1,0.6-10.5-6.7-10.6h-5.6l-4.3,11.9h1.7c2.8,0.2,5.3-1.6,6-4.2l0.9-2.5h4.7l-6.8,19.1h-4.7L33,131
	c0.9-2.7,0.3-4.3-2.9-4.3h-1.7l-3.8,10.7c-0.6,1.6-0.1,2.5,1.3,2.5h3.5l-2,5.6L5.5,145.3z"/>
<path class="st0" d="M211.3,102.2h5.1l-6.1,17.2H205c2.3-6.5,1.1-12-5.2-12.1c-6.4-0.1-11.4,5-15.5,16.3c-3.6,10-3.7,16.4,4.2,16.4
	c5.9,0,11-5.5,13.1-11.3h5.2c-4.3,11.6-12.5,17.2-22.9,17.2c-11.7-0.1-17.2-7.6-11.9-22.4c4.8-13.4,16.1-22.2,27.1-22.1
	c2.8,0,8.2,1.6,9.7,4.3L211.3,102.2z"/>
<path d="M241,145.2c-2.3,0.1-4.2-1.7-4.3-4c-0.1-2.3,1.7-4.2,4-4.3c2.3-0.1,4.2,1.7,4.3,4c0,0.1,0,0.1,0,0.2
	c0.1,2.2-1.6,4.1-3.8,4.2C241.1,145.2,241.1,145.2,241,145.2z M241,137.6c-1.9-0.1-3.5,1.3-3.7,3.2c-0.1,1.9,1.3,3.5,3.2,3.7
	c1.9,0.1,3.5-1.3,3.7-3.2c0-0.1,0-0.2,0-0.3c0.1-1.8-1.2-3.3-3-3.4C241.1,137.6,241,137.6,241,137.6L241,137.6z M240.2,143.4h-0.8
	v-4.6h1.7c1.1,0,1.7,0.4,1.7,1.3c0,0.6-0.4,1.2-1.1,1.3c0,0-0.1,0-0.1,0l1.3,2h-0.9l-1.2-2h-0.7L240.2,143.4z M241,140.7
	c0.6,0,1.1,0,1.1-0.7c0-0.7-0.5-0.6-1-0.6h-0.9v1.3L241,140.7z"/>
</svg>
