<?xml version="1.0" encoding="utf-8"?>
<!-- Generator: Adobe Illustrator 21.1.0, SVG Export Plug-In . SVG Version: 6.00 Build 0)  -->
<svg version="1.1" id="Layer_1" xmlns="http://www.w3.org/2000/svg" xmlns:xlink="http://www.w3.org/1999/xlink" x="0px" y="0px"
	 viewBox="0 0 250 250" style="enable-background:new 0 0 250 250;" xml:space="preserve">
<style type="text/css">
	.st0{fill:#478545;}
	.st1{fill:#A1CF6B;}
	.st2{fill:#FFFFFF;}
</style>
<title>Grocery</title>
<path class="st0" d="M96.1,138.7c-3.4,6-6.7,10.6-13.3,9.5c-4.4-0.7-5.3-4.4-6.3-9.2c-3.8,5.7-8,9.3-14.5,9.3
	c-6.7,0-10.7-3.3-12.6-9.6c-1.8,0.2-1.9,1.9-2.6,2.9c-3.6,5.5-10.4,8-16.7,6.2c-5.2-1.3-8.5-6-8.6-12.9c-0.1-2.6,0.1-4.4-3.6-4.4
	s-4.2,1.6-4.2,4.6c0,3.2-0.4,6.3-0.3,9.5c0.1,4-2.8,3-5,3.2c-2.5,0.3-3.5-0.6-3.3-3.3c0.7-10.4,1.2-20.8,1.7-31.3
	c0.1-2.8,1-3.7,3.7-3.5c4.7,0.3,9.4,0.3,14.1,0c4.3-0.4,5.4,1.3,4.4,5.1c-0.1,0.5-0.3,1.1-0.5,2.2c4.6-1.3,8.8-2.3,13.2-1
	c4.7,1.5,6.7,5.3,8.2,9.6c5.5-8.8,10.5-11.5,17.9-10.1c5.4,1.1,8.4,4.5,9.9,12.4c4.3-9,9.7-14.9,20.5-11.6c0-2.7,0.1-4.9,0-7.1
	c-0.3-3.5,0.9-4.7,4.6-4.7s4.5,1.2,4.3,4.7c-0.8,11.6-1.4,23.3-1.7,34.9c-0.1,4.6-3,3.5-5.5,3.7c-3.2,0.3-4-1.1-3.6-4
	C96.3,142.2,96.2,140.4,96.1,138.7z M57.9,133.3c-0.1,1.2-0.1,2.4,0,3.6c0.5,2.4,1,4.9,4.1,5.2s4.7-1.7,5.5-4.3
	c1.4-4,1.6-8.4,0.5-12.5c-0.5-1.8-1.5-3.3-3.6-3.5c-2-0.3-3.9,0.8-4.7,2.7C58.3,127.2,57.7,130.2,57.9,133.3L57.9,133.3z
	 M40.8,130.9c0-1.2,0.1-2.4,0-3.6c-0.2-2.5-0.7-5-3.7-5.5c-3.4-0.6-4.9,1.7-5.8,4.5c-1.1,3.9-1.3,8.1-0.6,12.1
	c0.2,1.9,1.6,3.4,3.5,3.6c2,0.4,4-0.6,4.9-2.4C40.4,137,41,133.9,40.8,130.9z M95,121.3c-3.9,0-6.2,1.5-7.8,4.2
	c-1.8,3.3-2.6,7.2-2.2,10.9c0,1.3,0,2.9,1.6,3.5c1.6,0.5,2.6-0.5,3.5-1.6c3.3-4.1,5.7-8.9,6.9-14.1C97.7,121.8,96.2,121.4,95,121.3z
	 M29.5,116.2c-5,0-8.9,0-12.7,0c-0.8,0-1.7,0.1-1.8,0.9c-0.4,2.4-1.8,6,0.3,7c2.1,1,6.1,1.9,8.2-0.9
	C25.1,121.2,26.9,119.2,29.5,116.2z"/>
<path class="st1" d="M158.6,139.3c-8.9,11.5-14.7,12.3-19.5,2.8c-6.4,8-15.3,5.5-23.6,5.9c-1.8,0.1-2.3-1-2.2-2.7
	c0.6-11,1.2-22,1.8-33c0.1-2.1,1.3-2.4,3-2.4c4.1,0,8.2,0,12.2,0.1s7.8,1.6,9.1,6c1.3,4.4,0,7.5-4.7,10.6c-0.4,0.3-0.8,0.7-1.2,1
	c1.9,1.3,4,2.1,5.6,4c1.3-3,2.2-5.9,3.5-8.5c3.3-6.2,8.7-8.7,15.5-7.3c0.9,0.3,1.8,0.4,2.7,0.4c8.1-0.5,8.2-0.5,7.9,7.3
	c-0.3,6.9-0.8,13.9-1,20.8c-0.1,4.9-3.7,3.2-6.2,3.5c-3.3,0.4-3.3-1.6-2.9-4C158.7,142.4,158.7,140.8,158.6,139.3z M157.3,121.4
	c-4,0.2-6.4,1.7-7.9,4.7c-1.5,3.3-2.1,7-1.7,10.6c0,1.2-0.2,2.7,1.2,3.2c1.4,0.5,2.6-0.5,3.5-1.5c3.3-3.8,5.3-8.4,7.3-13
	C161,122,159.2,121.4,157.3,121.4L157.3,121.4z M121.8,138.2c-0.5,2.7,0.2,3.8,2.7,3.8c4.1,0,6.7-2,6.9-5.4c0.2-3.5-2.1-5.7-6-5.6
	C119.1,131,123.8,136.5,121.8,138.2L121.8,138.2z M122.6,121.7c-0.1,2.1-0.4,3.9,2.3,3.7c3.1-0.3,5.7-1.1,5.9-4.9
	c0.2-3.4-1.9-4.6-4.7-4.7C121,115.5,124.2,120.2,122.6,121.7L122.6,121.7z"/>
<path class="st1" d="M224.9,122.4c4.4-7.3,10.2-7.6,16.5-6.3c2.2,0.2,3.8,2.2,3.6,4.4c0,0.2,0,0.3-0.1,0.5c-0.2,2.5-1,3.4-3.4,2
	c-0.8-0.5-1.6-0.8-2.5-0.9c-2.3-0.1-5.3-1.3-6.4,1.5c-1,2.7,2.2,3.1,3.9,4.2c3.7,2.5,8,4.6,7.8,10.2s-3.8,9.9-9.3,10.3
	c-3.6,0.2-7.3,0.7-10.7-1.2c-1.3-0.8-2.3,0-3.4,0.4c-3.7,1-7.5,1.3-11.2,0.7c-2.5-0.3-4.6-1.7-5.9-3.8c-4.6-7.3-3-14.7,0.6-21.5
	c2.8-5.5,8.3-7.6,14.7-7.2C222.7,115.7,225.8,116.4,224.9,122.4z M210.2,133.1c-0.1,6.8,2.9,10.3,8.2,8.4c4-1.4,7.3-1.7,11.2,0
	c2.1,0.9,5.6,1.7,6.8-1.3c1.2-3-2.7-3.1-4-4.6c-0.2-0.2-0.5-0.3-0.8-0.4c-4-2.2-7.4-4.8-6.7-10.1c0.2-1.5-0.7-1.9-1.9-2.5
	C215.8,119.6,210.5,124,210.2,133.1L210.2,133.1z"/>
<path class="st1" d="M177.2,148.3c-2.2,0.1-4.3-0.2-6.4-0.9c-3.1-1.4-2.3-4.2-1.7-6.3c0.8-2.7,2.7-0.4,4-0.1
	c0.7,0.2,1.3,0.7,2.1,0.8c2.4,0.1,5.7,1.6,6.9-1.3c1.2-2.9-2.4-3.3-4.1-4.5c-3.8-2.5-7.8-4.6-7.5-10.3c0.2-4.2,1.9-7.4,5.7-9
	c4.2-1.9,9-1.7,13.1,0.4c2.1,1.1,1.4,3.5,0.7,5.3c-0.8,2-2.4,1.2-3.7,0.4c-0.5-0.3-1-0.6-1.6-0.7c-2.3-0.3-5.3-1.4-6.5,1.3
	c-1.1,2.8,2.1,3,3.6,4.2c3,2.4,7.2,3.4,7.9,8C191,143.6,186.4,148.3,177.2,148.3z"/>
<path class="st1" d="M200.3,123.3c-0.3,6.8-0.6,13.5-0.9,20.3c-0.2,4-3.4,5.9-7.1,4.3c-1-0.4-1.6-1.5-1.3-2.5c1-8,0.6-15.9,0.7-23.9
	c0-2.7,0.4-5.3,4.4-5.2C200.7,116.5,200.7,116.3,200.3,123.3z"/>
<path class="st1" d="M201.4,109.1c0.8,4.1-1.7,4.7-5.6,4.7c-3.3,0-3.6-1.6-3.5-4.2c0.2-3.7,0.9-6.2,5.7-6.1
	C202.2,103.6,201.4,106.1,201.4,109.1z"/>
<polyline class="st1" points="123.3,115.5 122.4,141.9 117.8,143.7 120.6,128.2 122.4,115.5 "/>
<polygon class="st2" points="28.8,115.5 28.6,116.2 27.9,116.4 27.9,117.3 28.6,117.2 29.7,116.4 "/>
</svg>
