<?xml version="1.0" encoding="utf-8"?>
<!-- Generator: Adobe Illustrator 21.1.0, SVG Export Plug-In . SVG Version: 6.00 Build 0)  -->
<svg version="1.1" id="Layer_1" xmlns="http://www.w3.org/2000/svg" xmlns:xlink="http://www.w3.org/1999/xlink" x="0px" y="0px"
	 viewBox="0 0 250 250" style="enable-background:new 0 0 250 250;" xml:space="preserve">
<style type="text/css">
	.st0{fill:#ED1C24;}
</style>
<title>Supercenters</title>
<path class="st0" d="M5,138.3c0.3-1,0.4-2,0.6-3.1c0.7-4.4,1.4-8.9,2.1-13.3l2-12.5c0.3-2.1,0.7-4.3,1-6.5c0.1-0.4,0.2-0.5,0.6-0.5
	c8.1,0,16.2,0,24.2,0h0.6l-1,6.4c-0.1,0.5-0.2,1.1-0.3,1.6c0,0.5-0.2,0.4-0.5,0.4h-6c-2.6,0-5.2,0-7.8,0c-0.5,0-0.6,0.2-0.7,0.6
	c-0.3,1.8-0.6,3.7-0.9,5.5c-0.1,0.4,0,0.5,0.4,0.5c3.5,0,7,0,10.5,0c0.5,0,0.6,0.1,0.6,0.6c-0.4,2.4-0.8,4.8-1.1,7.2
	c-0.1,0.5-0.3,0.7-0.8,0.7c-3.5,0-6.9,0-10.4,0c-0.5,0-0.7,0.1-0.8,0.6c-0.6,3.9-1.2,7.7-1.8,11.6c-0.1,0.4-0.2,0.6-0.7,0.6
	c-3.4,0-6.7,0-10.1,0V138.3z"/>
<path class="st0" d="M245,112c-0.3,1-0.4,2-0.6,3.1c-0.4,2.2-0.7,4.4-1,6.6c-0.1,0.4-0.2,0.5-0.6,0.4c-1.1-0.3-2.2-0.3-3.2,0
	c-1.8,0.4-3.3,1.7-4,3.4c-0.7,1.8-1.2,3.7-1.4,5.6c-0.4,2.4-0.8,4.8-1.2,7.2c0,0.3-0.2,0.4-0.5,0.4c-2.8,0-5.7,0-8.5,0
	c-0.4,0-0.5-0.1-0.4-0.5c0.6-3.9,1.3-7.9,1.9-11.8c0.6-3.9,1.3-7.9,1.9-11.9c0.1-0.6,0.2-1.2,0.3-1.9c0-0.3,0.1-0.4,0.4-0.4
	c2.6,0,5.2,0,7.7,0c0.5,0,0.4,0.3,0.4,0.6c-0.2,1.5-0.5,2.9-0.7,4.4c0,0.1-0.1,0.2,0.1,0.3l0.4-0.7c0.7-1.5,1.9-2.9,3.2-3.9
	c1.7-1.2,3.8-1.7,5.8-1.2L245,112z"/>
<path class="st0" d="M128.3,124.8l2-4.8c2.4-5.7,4.7-11.4,7-17.1c0.1-0.4,0.4-0.6,0.8-0.6c3.9,0,7.9,0,11.8,0c0.4,0,0.5,0.1,0.5,0.5
	c-0.7,4.2-1.4,8.5-2,12.7l-2,12.6c-0.5,3.3-1.1,6.6-1.6,10c0,0.4-0.2,0.5-0.5,0.5c-2.9,0-5.7,0-8.6,0c-0.5,0-0.5-0.1-0.4-0.6
	c0.7-4.5,1.4-8.9,2.2-13.4c0.5-3,1.3-6,2-9c0-0.1,0-0.2,0-0.3c-0.2,0.1-0.3,0.4-0.3,0.6c-3,7.3-6.1,14.7-9.1,22
	c-0.1,0.4-0.5,0.7-0.9,0.6c-2.1,0-4.2,0-6.2,0c-0.4,0-0.6-0.1-0.6-0.6c-0.4-4.4-0.8-8.9-1.3-13.3l-0.9-9.1c0-0.1,0-0.1-0.1-0.2
	c-0.2,0.9-0.3,1.7-0.3,2.6c-0.3,3.8-0.8,7.6-1.4,11.4c-0.5,2.8-0.9,5.7-1.4,8.5c-0.1,0.4-0.2,0.6-0.6,0.6c-2.8,0-5.7,0-8.5,0
	c-0.4,0-0.6-0.1-0.5-0.5c0.6-3.9,1.3-7.9,1.9-11.8l2-12.7c0.6-3.6,1.2-7.2,1.7-10.8c0-0.3,0.1-0.4,0.4-0.4h12.1
	c0.3,0,0.4,0.1,0.4,0.4c0.2,1.7,0.3,3.4,0.5,5.2c0.3,2.8,0.6,5.7,0.8,8.6c0.2,2.4,0.5,4.8,0.7,7.3c0,0.3,0.1,0.6,0.1,1L128.3,124.8z
	"/>
<path class="st0" d="M95.8,114.8c0.1-0.8,0.3-1.6,0.4-2.4c0.5-3.2,1-6.4,1.5-9.6c0-0.3,0.2-0.4,0.5-0.4c2.8,0,5.7,0,8.5,0
	c0.4,0,0.4,0.2,0.4,0.5c-0.4,2.4-0.8,4.8-1.2,7.2c-0.6,3.7-1.2,7.4-1.8,11.1l-2.2,14.1c-0.2,1-0.3,1.9-0.4,2.9
	c0,0.3-0.1,0.4-0.4,0.4h-7.7c-0.3,0-0.3,0-0.3-0.3c0.2-0.9,0.3-1.7,0.4-2.6c0-0.1,0-0.3,0-0.4c-0.4,0.4-0.9,0.8-1.3,1.2
	c-2.4,2.6-6.1,3.5-9.5,2.4c-3.3-0.9-5-3.3-5.7-6.6c-0.7-4.2-0.1-8.6,1.7-12.5c1-2.6,2.8-4.8,5-6.5c2.3-1.7,5.1-2.3,7.9-1.7
	c1.6,0.3,2.9,1.3,3.8,2.6l0.3,0.4C95.6,114.6,95.7,114.7,95.8,114.8z M86.1,127.9c0,0.5,0,0.9,0.1,1.4c0.1,1.5,1.4,2.6,2.9,2.5
	c0.1,0,0.2,0,0.3,0c1.6-0.1,3-1,3.7-2.5c1.2-2.1,1.6-4.5,1.3-6.9c-0.2-1.8-1.7-3.1-3.5-2.9c-0.6,0.1-1.2,0.3-1.6,0.6
	c-0.7,0.5-1.3,1.1-1.7,1.9C86.6,123.9,86.1,125.9,86.1,127.9L86.1,127.9z"/>
<path class="st0" d="M185.6,128.3c0.3-0.6,0.5-1.3,0.8-1.9c1.9-4.5,3.7-9.1,5.6-13.6c0.1-0.3,0.4-0.5,0.7-0.5c2.7,0,5.3,0,8,0
	c0.5,0,0.5,0.1,0.3,0.5c-4.1,8.8-8.2,17.5-12.3,26.3c-0.7,1.5-1.5,3-2.4,4.4c-1.5,2.2-3.9,3.7-6.6,3.9c-2.4,0.3-4.9,0.3-7.3,0
	c-0.3,0-0.3-0.1-0.3-0.4c0.4-2.2,0.7-4.3,1-6.5c0-0.3,0.2-0.4,0.5-0.4c1,0.1,1.9,0.1,2.9-0.1c1.2,0,2.1-1,2.1-2.2c0-0.1,0-0.1,0-0.2
	c-0.1-1.2-0.3-2.5-0.5-3.7c-0.7-4.5-1.5-9-2.2-13.4c-0.4-2.5-0.8-5-1.2-7.5c-0.1-0.8-0.1-0.7,0.6-0.7c2.7,0,5.4,0,8.1,0
	c0.4,0,0.6,0,0.6,0.5c0.2,2.4,0.5,4.9,0.7,7.4L185.6,128.3L185.6,128.3z"/>
<path class="st0" d="M66.9,127.8c-2.8,0-5.6,0-8.4,0c-0.5,0-0.7,0.2-0.6,0.6c0,0.6,0,1.2,0.2,1.7c0.6,2.1,2.9,3.4,5,2.7
	c0.6-0.2,1.2-0.5,1.7-1c0.2-0.2,0.4-0.4,0.6-0.6c0.3-0.6,0.8-0.6,1.3-0.6c2.5,0,5,0,7.5,0c0.6,0,0.6,0,0.3,0.6
	c-1.9,4-5.6,6.9-10,7.7c-2.6,0.6-5.3,0.6-7.9,0c-4.2-0.8-7.3-4.2-7.8-8.4c-0.8-5.9,1.8-13.6,8.4-17.1c3.3-1.9,7.2-2.4,10.9-1.4
	c4.4,1.1,6.8,4.1,7.8,8.4c0.4,2.3,0.5,4.6,0.1,6.9c0,0.4-0.2,0.5-0.6,0.5C72.6,127.8,69.7,127.8,66.9,127.8z M63.1,122.5h3.8
	c0.2,0,0.5,0,0.5-0.3c0.3-2-1-3.9-3-4.3c-2.7-0.4-5.2,1.4-5.6,4.1c0,0,0,0,0,0c-0.1,0.4,0.1,0.4,0.4,0.4L63.1,122.5z"/>
<path class="st0" d="M215.2,127.8c-2.8,0-5.6,0-8.4,0c-0.5,0-0.6,0.1-0.6,0.6c-0.1,2.4,1.1,4.2,3.3,4.6c1.6,0.3,3.3-0.4,4.2-1.8
	c0.2-0.3,0.6-0.5,1-0.5c2.6,0,5.2,0,7.8,0c0.4,0,0.5,0.1,0.3,0.5c-1.1,2.6-3,4.7-5.5,6c-4.1,2.3-9.1,2.9-13.6,1.4
	c-3.9-1.2-6.5-4.7-6.7-8.7c-0.5-4.9,1.1-9.7,4.4-13.3c3.2-3.6,7.9-5.5,12.7-5.1c5.3,0.1,9.7,4.2,10.3,9.5c0.3,2,0.3,4.1,0,6.1
	c-0.1,0.5-0.2,0.6-0.7,0.6C220.8,127.8,218,127.8,215.2,127.8z M211.3,122.5h3.8c0.2,0,0.5,0,0.5-0.3c0.3-1.9-0.9-3.7-2.8-4.2
	c-2.7-0.5-5.3,1.4-5.7,4.1c0,0,0,0,0,0.1c0,0.4,0.1,0.4,0.4,0.4L211.3,122.5z"/>
<path class="st0" d="M165.8,127.8c-2.8,0-5.6,0-8.4,0c-0.6,0-0.7,0.2-0.7,0.7c-0.1,1.4,0.4,2.7,1.4,3.6c1.8,1.5,4.5,1.2,5.9-0.7
	c0.1-0.1,0.1-0.2,0.2-0.2c0.2-0.3,0.6-0.5,1-0.5c2.6,0,5.2,0,7.7,0c0.6,0,0.6,0,0.4,0.5c-1.8,3.9-5.3,6.7-9.5,7.6
	c-3,0.8-6.2,0.8-9.2-0.1c-4-1.1-6.9-4.7-7-8.9c-0.5-5.2,1.4-10.3,5.1-13.9c3.9-4.1,9.9-5.6,15.3-3.7c3.7,1.2,5.8,3.9,6.7,7.6
	c0.6,2.5,0.6,5,0.2,7.5c0,0.4-0.2,0.5-0.6,0.5C171.5,127.8,168.7,127.8,165.8,127.8z M162,122.5h3.8c0.2,0,0.5,0,0.5-0.3
	c0.3-1.9-1-3.8-2.9-4.2c-2.7-0.5-5.2,1.3-5.7,4c0,0.1,0,0.1,0,0.2c-0.1,0.4,0.1,0.4,0.4,0.4L162,122.5z"/>
<path class="st0" d="M41.3,117.5c0.3-0.5,0.5-1,0.8-1.4c1-1.9,2.7-3.4,4.8-4.2c1-0.3,2.1-0.4,3.2-0.3c0.5,0,0.5,0.3,0.5,0.7
	c-0.3,1.9-0.6,3.8-0.9,5.7c-0.2,1.2-0.4,2.5-0.6,3.7c0,0.4-0.2,0.5-0.6,0.4c-1.1-0.3-2.2-0.3-3.3,0c-2,0.5-3.6,2.1-4.2,4.1
	c-0.6,1.7-1,3.5-1.2,5.3c-0.4,2.3-0.7,4.6-1.1,6.9c0,0.3-0.2,0.4-0.5,0.4c-2.9,0-5.7,0-8.6,0c-0.4,0-0.4-0.1-0.4-0.5
	c0.3-1.9,0.6-3.9,0.9-5.8l1.9-12c0.4-2.5,0.8-5.1,1.2-7.6c0-0.4,0.2-0.5,0.6-0.5c2.5,0,5,0,7.5,0c0.4,0,0.5,0,0.4,0.5
	c-0.3,1.6-0.5,3.1-0.7,4.7L41.3,117.5z"/>
<path class="st0" d="M240.4,132.3c1.9,0,3.5,1.5,3.5,3.4s-1.5,3.5-3.4,3.5s-3.5-1.5-3.5-3.4c0,0,0,0,0-0.1
	C237,133.8,238.5,132.3,240.4,132.3C240.4,132.3,240.4,132.3,240.4,132.3z M237.6,135.7c0.1,1.5,1.3,2.7,2.9,2.7
	c1.5-0.1,2.7-1.3,2.7-2.9c-0.1-1.5-1.2-2.6-2.7-2.7C238.9,132.8,237.6,134.1,237.6,135.7C237.6,135.7,237.6,135.7,237.6,135.7
	L237.6,135.7z"/>
<path class="st0" d="M241.1,135.8c0.3,0.2,0.5,0.5,0.5,0.9c0,0.3,0.1,0.6,0.2,0.9c-0.6,0.1-0.6,0.1-0.8-0.7s-0.4-0.9-1-0.9
	c-0.3,0-0.4,0.1-0.3,0.4c0,0.3,0,0.6,0,1s0,0.3-0.3,0.3s-0.3-0.1-0.3-0.3c0-1.1,0-2.1,0-3.2c0-0.2,0.1-0.3,0.2-0.3c0,0,0,0,0.1,0
	c0.4,0,0.7,0,1.1,0c0.5,0,1,0.1,1.2,0.7C241.9,135.1,241.6,135.6,241.1,135.8z M239.7,135c0,0.3-0.1,0.7,0.5,0.6
	c0.6,0,0.9-0.3,1-0.7c0-0.4-0.4-0.7-0.9-0.7C239.6,134.2,239.7,134.6,239.7,135L239.7,135z"/>
</svg>
