<?xml version="1.0" encoding="utf-8"?>
<!-- Generator: Adobe Illustrator 21.1.0, SVG Export Plug-In . SVG Version: 6.00 Build 0)  -->
<svg version="1.1" id="Layer_1" xmlns="http://www.w3.org/2000/svg" xmlns:xlink="http://www.w3.org/1999/xlink" x="0px" y="0px"
	 viewBox="0 0 250 250" style="enable-background:new 0 0 250 250;" xml:space="preserve">
<style type="text/css">
	.st0{fill:#E70D2F;}
</style>
<title>Midscale</title>
<path class="st0" d="M188.4,155c-0.2,0.3-0.4,0.7-0.7,1c-0.6,0.9-0.7,2-0.2,3c0.4,1.1,1.3,1.9,2.4,2.3c1.2,0.4,2.6,0.4,3.8-0.2
	c1.2-0.5,2.2-1.2,2.9-2.2c0.8-1,1.5-2.1,2.1-3.2c1.5-2.7,2.8-5.5,4.1-8.3c0.1-0.2,0.1-0.4,0.1-0.7c-0.2,0.1-0.3,0.1-0.5,0.2
	c-0.9,0.5-1.8,1.1-2.7,1.6c-1,0.6-2.2,0.9-3.4,1c-0.4,0-0.7-0.1-1.1-0.1c-1.3-0.2-2.4-1.2-2.7-2.6c-0.1-0.5-0.2-1-0.3-1.5
	c0-0.2,0-0.4-0.1-0.6c-0.3,0-0.6,0.1-0.9,0.3c-0.9,0.7-1.8,1.3-2.7,2c-1.4,1-3,1.8-4.6,2.2c-1.3,0.3-2.6,0.2-3.9-0.3
	c-0.8-0.3-1.5-0.9-2-1.6c-0.4-0.5-0.7-1-1.1-1.6l-0.7,0.3c-1.2,0.7-2.5,1.4-3.7,2.1c-1.7,1-3.6,1.5-5.6,1.4c-1.7,0-3.1-1.2-3.5-2.9
	c-0.1-0.4-0.2-0.7-0.4-1.2l-0.6,0.5c-1,0.8-2,1.6-3.1,2.4c-1.3,0.9-2.9,1.4-4.5,1.4c-1.7,0-3.4-0.8-4.2-2.3c-0.3-0.5-0.6-1.1-1-1.7
	c-0.3,0.1-0.5,0.3-0.7,0.4c-1.1,0.7-2.1,1.4-3.2,2.1c-0.8,0.5-1.7,1-2.7,1.3c-1.5,0.7-3.3,0.6-4.7-0.3c-0.8-0.5-1.4-1.3-1.6-2.2
	c-0.2-1-0.1-2,0.2-2.9c0.6-1.9,1.4-3.8,2.4-5.6c0.8-1.5,1.7-3.1,2.6-4.6c0.5-0.9,0.9-1.8,1.2-2.6c0.1-0.2,0.2-0.5,0.1-0.8
	c-0.1-0.7-0.4-0.9-1-0.9c-0.7,0-1.3,0.2-1.8,0.6c-0.6,0.5-1.2,1.1-1.8,1.8c-1.5,1.9-2.8,4-3.9,6.1c-1.8,3.3-3.4,6.7-4.9,10.2
	c-0.1,0.2-0.1,0.3-0.2,0.5c-0.3,0.7-0.1,0.7-1,0.7h-3.3h-2h-0.7l2.4-5.1c-0.3,0.1-0.4,0.2-0.6,0.3c-1.5,0.9-2.9,1.9-4.4,2.8
	c-1.6,1.1-3.4,1.9-5.2,2.3c-0.9,0.2-1.9,0.3-2.9,0.3c-1.1,0-2.2-0.4-3-1.1c-0.7-0.6-1.3-1.4-1.7-2.3c-0.1-0.2-0.2-0.4-0.4-0.7
	c-0.2,0.1-0.4,0.3-0.6,0.4c-1.2,0.8-2.3,1.6-3.5,2.4c-1,0.7-2.1,1.2-3.3,1.4c-0.9,0.2-1.9,0.2-2.8,0c-0.7-0.2-1.3-0.6-1.7-1.1
	c-0.5-0.7-0.8-1.4-1-2.2c-0.1-0.3-0.2-0.5-0.3-0.8l-0.7,0.5c-1.3,0.9-2.6,1.8-4,2.6c-0.9,0.5-1.8,0.9-2.8,1.2
	c-2,0.7-4.1-0.4-4.8-2.4c-0.1-0.3-0.2-0.7-0.2-1c-0.1-1,0.1-1.9,0.4-2.9c0.1-0.4,0.3-0.7,0.4-1.1c1.1-2.8,2.5-5.5,4.2-8.1
	c0.2-0.3,0.3-0.7,0.5-1.1c0.6-1,1.2-2,1.8-3.1c0.3-0.5,0.6-1,0.9-1.6c-0.2,0-0.3-0.1-0.5-0.1c-0.3,0-0.7,0.1-1,0.2
	c-0.9,0.2-1.8,0.2-2.7,0c-0.8-0.2-1,0-1.3,0.8c-0.1,0.3-0.2,0.5-0.3,0.8c-2.3,4.6-4.6,9.1-6.9,13.7c-0.8,1.5-1.5,3.1-2.2,4.7
	l-0.3,0.7l-8.3,0.1c0.2-0.3,0.3-0.6,0.5-0.8c2.8-4.4,5.5-8.8,8.1-13.3c2.8-4.9,5.2-9.9,7.5-15c0.1-0.5,0.6-0.8,1-0.7
	c1.5,0,2.9,0,4.4,0c0.2,0,0.5,0.1,0.7,0.1c-0.1,0.3-0.2,0.6-0.3,0.9c-0.1,0.4-0.2,0.7-0.3,1.1c-0.1,0.6,0.3,1.3,0.9,1.4
	c0.1,0,0.2,0,0.3,0c0.6,0,1.1-0.1,1.7-0.3c0.9-0.3,1.7-0.6,2.6-0.9c0.6-0.2,1.2-0.3,1.8-0.4c1.4,0,2.6,1,2.7,2.5
	c0.1,1.4-0.3,2.7-1,3.9c-1.1,1.9-2.2,3.8-3.3,5.7c-1.3,2-2.3,4.2-3.1,6.4c-0.1,0.3-0.2,0.6-0.2,1c0,0.8,0.4,1.2,1.2,1
	c0.9-0.1,1.8-0.5,2.6-1c0.7-0.5,1.3-1.1,1.7-1.9c2.7-5.5,5.4-11.1,8-16.6c0.1-0.4,0.5-0.6,0.9-0.6c1.8,0,3.7,0,5.5,0h0.7l-0.4,0.8
	c-2.1,4.4-4.3,8.9-6.4,13.3c-0.7,1.3-1.2,2.6-1.5,4c-0.1,0.5-0.1,1-0.1,1.5c0.1,0.7,0.6,1.1,1.3,1.1c0.1,0,0.1,0,0.2,0h0.3
	c1-0.3,1.9-0.8,2.6-1.6c0.2-0.3,0.4-0.7,0.4-1c1-5.9,4-11.3,8.7-15.1c1.5-1.3,3.3-2.3,5.1-3c1.4-0.5,3-0.7,4.5-0.5
	c2.4,0.3,4.1,2.3,4.2,4.7c0.1,1.2-0.1,2.3-0.5,3.4c-0.9,2.2-2.2,4.1-3.9,5.6c-2.7,2.4-5.8,4.2-9.2,5.4c-0.2,0.1-0.5,0.2-0.7,0.3
	c-0.4,0.1-0.6,0.4-0.5,0.8c0,0.1,0,0.1,0.1,0.2c0.1,0.4,0.4,0.7,0.8,0.9c0.8,0.4,1.7,0.5,2.5,0.3c0.4-0.1,0.8-0.2,1.2-0.3
	c4.1-1.6,7.8-4.4,10.5-7.9c0.2-0.3,0.4-0.6,0.5-0.9c1.8-3.7,3.6-7.5,5.4-11.3c0.2-0.4,0.6-0.7,1.1-0.7c1.6,0,3.2,0,4.8,0h0.8
	c-0.2,1.1-1.1,1.9-1.3,2.9c0.3,0.2,0.5,0,0.6-0.1c0.7-0.5,1.4-1,2.1-1.5c1.2-0.9,2.5-1.6,4-1.8c0.8-0.2,1.6-0.1,2.4,0.2
	c1.6,0.5,2.5,2.1,2.3,3.7c0,0.9-0.3,1.8-0.7,2.7c-0.7,1.4-1.4,2.7-2.1,4.1c-0.9,1.6-1.9,3.1-2.8,4.7c-0.7,1.3-1.3,2.6-1.7,4
	c-0.2,0.6,0.1,1.3,0.8,1.5c0.2,0.1,0.4,0.1,0.6,0c1.4-0.3,2.6-1.1,3.4-2.1c0.1-0.2,0.2-0.4,0.2-0.6c1.2-6,4.3-11.5,8.9-15.6
	c1-0.9,2.1-1.7,3.3-2.2c1.4-0.6,3-0.8,4.5-0.4c0.7,0.2,1.4,0.6,1.9,1.2c0.3,0.4,0.6,0.7,0.9,1.1c0.4-0.3,0.7-0.7,0.9-1.1
	c2.3-5,4.6-10,6.9-14.9c0.5-1,0.2-0.9,1.4-0.9h6c0.1,0.4,0,0.9-0.3,1.2c-1.5,2.9-3.1,5.7-4.6,8.7c-3.6,7.3-6.9,14.8-9.6,22.5
	c-0.2,0.7-0.4,1.4-0.4,2.1c0,1,0.6,1.5,1.6,1.2c0.6-0.1,1.1-0.3,1.7-0.6c0.9-0.4,1.7-1,2.4-1.7c0.4-0.4,0.7-0.9,0.7-1.5
	c0.2-2,0.5-4,0.9-6c1.4-6,3.8-11.7,7.2-16.9c1.4-2.3,3.1-4.5,5-6.4c1.2-1.2,2.5-2.3,4-3.2c1.1-0.6,2.3-1,3.5-0.9
	c2.5,0,4.6,1.9,4.9,4.4c0.2,1.3,0,2.7-0.4,3.9c-1,3.4-2.4,6.6-4.1,9.6c-3.5,5.9-7.7,11.3-12.6,16.1l-0.5,0.5
	c-0.4,0.4-0.4,0.6-0.1,1.1c0.3,0.5,0.8,0.8,1.4,0.9c0.8,0.2,1.6,0.1,2.3-0.2c0.5-0.2,1-0.5,1.5-0.8c1.4-1,2.8-2.2,4-3.4
	c1.2-1.3,2.2-2.8,3-4.4c1.8-3.6,3.6-7.2,5.4-10.8l0.3-0.6h7.3c-0.1,0.3-0.3,0.6-0.4,0.8c-1.7,3.3-3.5,6.5-5.2,9.8
	c-1.1,2.2-2.1,4.4-3.2,6.6c-0.3,0.5-0.4,1.1-0.3,1.7c0,0.7,0.5,1.3,1.2,1.3c0.1,0,0.1,0,0.2,0c0.5,0,0.9-0.2,1.3-0.4
	c1.3-0.7,2.4-1.6,3.2-2.7c0.9-1.2,1.7-2.5,2.4-3.8c2.2-4.1,4.2-8.2,6-12.5c0.1-0.3,0.2-0.5,0.4-0.8h7.6c-0.1,0.2-0.1,0.3-0.2,0.5
	c-4.2,7.2-7.7,14.7-11.2,22.3l-5.1,10.9c-0.3,0.7-0.6,1.5-1,2.2c-1.6,3.4-4.2,6.3-7.5,8.2c-3.6,2.1-7.9,2.4-11.7,0.9
	c-1.7-0.6-3.1-1.7-4.1-3.2c-1.9-2.8-1.2-6.6,1.6-8.5c1.2-0.8,2.6-1.2,4.1-1C187.6,154.4,188.1,154.6,188.4,155z M166.1,130
	c0-0.3,0-0.6,0-0.9c0-0.7-0.6-1.3-1.3-1.3c-0.2,0-0.4,0-0.5,0.1c-0.6,0.2-1.1,0.6-1.6,1c-0.6,0.5-1.1,1.1-1.5,1.8
	c-1.5,2.3-2.7,4.8-3.6,7.4c-0.4,1-0.5,2.1-0.4,3.2c0,0.9,0.7,1.6,1.6,1.6c0.3,0,0.5-0.1,0.7-0.2c0.7-0.3,1.4-0.7,1.8-1.4
	c0.5-0.6,0.9-1.2,1.3-1.9c0.9-1.8,1.8-3.7,2.7-5.6C165.7,132.7,166,131.4,166.1,130L166.1,130z M183.8,133.9l0.2,0.1
	c1-1.2,2-2.3,2.9-3.5c2.2-2.9,4.1-5.9,5.8-9.1c1-1.8,1.9-3.7,2.8-5.6c0.4-0.8,0.6-1.7,0.6-2.6c0-0.8-0.5-1.2-1.3-1
	c-0.5,0.2-1,0.5-1.3,0.9c-1.2,1.4-2.2,2.9-3.2,4.4c-1.9,3.3-3.6,6.8-4.9,10.5c-0.5,1.4-0.9,2.8-1.3,4.2
	C184,132.9,183.9,133.4,183.8,133.9z M115.4,136.1c0.2,0,0.4-0.1,0.6-0.2c2.3-1.1,4.3-2.6,6-4.4c0.6-0.7,1-1.5,1.2-2.4
	c0.2-0.6-0.1-1.3-0.8-1.5c-0.3-0.1-0.5-0.1-0.8,0c-0.5,0.1-0.9,0.4-1.3,0.6c-1,0.7-1.8,1.6-2.5,2.6c-1,1.3-1.8,2.8-2.3,4.4
	C115.5,135.5,115.5,135.8,115.4,136.1L115.4,136.1z"/>
<path class="st0" d="M60.4,126h-9c0-0.2,0.1-0.4,0.1-0.6c0.6-1.6,1.3-3.1,1.9-4.7c0.1-0.4,0.4-0.6,0.8-0.5c2.7,0,5.4,0,8.1,0
	c0.6,0.1,1.1-0.3,1.3-0.8c2.3-4.3,4.5-8.6,6.8-12.9c0.4-0.8,0.8-1.6,1.2-2.5c-0.1-0.1-0.2-0.2-0.3-0.3l-8.8-6
	c-2.5-1.8-5.2-3.3-8.1-4.6c-1.8-0.9-3.7-1.4-5.7-1.7c-4.4-0.5-8.4,0.5-11.3,4.1c-2.2,2.5-2.7,6.1-1.3,9.1c0.7,1.7,2.1,3,3.9,3.4
	c1.3,0.4,2.7,0.2,3.9-0.4c1.6-0.7,2.4-2.5,1.8-4.2c0-0.1-0.1-0.2-0.2-0.3c-0.2-0.5-0.1-0.7,0.4-0.8c2.6-0.6,5.2,0.9,5.8,3.5
	c0.1,0.3,0.1,0.6,0.1,0.8c0.2,2.4-0.8,4.7-2.7,6.2c-2,1.8-4.5,2.8-7.2,2.8c-5.3,0.2-10.2-2.5-12.8-7.1c-2-3.2-2.8-7-2.3-10.8
	c1-8.1,7.3-14.5,15.4-15.6c3.9-0.5,7.8,0,11.4,1.4c2.8,1.1,5.4,2.5,7.8,4.2c2.5,1.8,4.9,3.6,7.4,5.4c2.1,1.5,4.2,3,6.3,4.5
	c0.6,0.5,0.8,0.4,1.3-0.1c0.2-0.2,0.3-0.3,0.5-0.5c1.7-2,4.1-3.4,6.7-3.9c2.1-0.5,4.2-0.4,6.2,0.1c2.6,0.6,4.8,2.5,5.8,4.9
	c0.9,2.2,0.8,4.7-0.2,6.8c-1.3,2.8-3.9,4.8-7,5.2c-2.4,0.4-4.8,0.1-7-0.9c-0.9-0.3-1.7-0.7-2.5-1.1c-0.6-0.2-0.7-0.2-1,0.3
	c-0.1,0.1-0.1,0.2-0.2,0.4c-1.8,3.4-3.3,6.9-4.8,10.5c-0.1,0.2-0.1,0.3-0.2,0.6c0.8,0,1.5,0,2.3,0h4.6c-0.5,2-1.3,4-2.4,5.8h-7.2
	c-0.2,0.3-0.3,0.6-0.4,0.9c-1.9,4.2-3.9,8.5-5.8,12.8c-2,4.4-4.4,8.6-7.2,12.6c-2.6,3.7-5.7,6.9-9.3,9.5c-3.5,2.5-7.4,4.2-11.6,5.1
	c-6.2,1.3-12.6,0.4-18.1-2.6c-6.5-3.4-11.1-9.8-12.2-17c-0.7-3.8-0.5-7.7,0.7-11.3c1.9-6.1,6.3-11.2,12.1-14
	c1.8-0.8,3.8-1.4,5.8-1.7c2.8-0.5,5.7-0.5,8.6,0.1c3.2,0.5,6.1,2.1,8.3,4.5c1.9,2,2.7,4.8,2.1,7.6c-0.4,2.3-2,4.2-4.2,5
	c-1.4,0.5-2.9,0.5-4.2,0c-0.2-0.1-0.5-0.2-0.7-0.3c0.1-0.4,0.3-0.7,0.4-1c0.2-0.6,0.4-1.2,0.6-1.8c0.2-1.2-0.1-2.5-0.8-3.5
	c-1.1-1.6-2.9-2.5-4.8-2.5c-4.9-0.2-9.3,2.7-11,7.3c-2.3,5.8-0.4,12.3,4.6,16c2.1,1.6,4.6,2.6,7.2,2.9c4.2,0.5,8.5-0.5,12-2.8
	c2.7-1.8,5.2-4,7.2-6.6c2.6-3.2,4.8-6.7,6.8-10.3c1.4-2.6,2.8-5.2,4.2-7.8C60.2,126.5,60.3,126.3,60.4,126z M82,102.5
	c1.6,1.5,3.8,2.3,6,2.1c0.8-0.1,1.5-0.6,1.9-1.2c0.9-1.1,0.8-2.7-0.2-3.6c-0.3-0.3-0.7-0.5-1.1-0.6c-1.1-0.3-2.3-0.3-3.3,0.1
	c-1.3,0.5-2.3,1.4-3,2.6C82.3,102.1,82.2,102.2,82,102.5L82,102.5z"/>
<path class="st0" d="M230.4,141c-0.2,0.1-0.5,0.1-0.7,0.2c-0.4,0.1-0.8,0.3-1.2,0.5c-0.8,0.5-1.1,1.5-0.7,2.3
	c0.2,0.3,0.4,0.5,0.7,0.7c2.3,1.3,5.2,0.4,6.4-1.8c0,0,0-0.1,0.1-0.1c0.1-0.1,0.1-0.3,0.1-0.4c0.3-1.2-0.1-2.5-1.1-3.3
	c-0.6-0.5-1.2-1-1.9-1.5c-1.1-0.9-2.2-1.7-3.3-2.7c-0.5-0.4-0.9-0.9-1.3-1.5c-1.1-1.5-1.4-3.4-0.8-5.1c0.5-1.7,1.6-3.2,3-4.3
	c2.9-2.4,6.9-3.2,10.5-2.1c1.8,0.4,3.4,1.7,4.2,3.4c0.7,1.3,0.6,2.9-0.2,4.2c-0.7,1.3-2.1,2-3.6,1.8c-0.5-0.1-1.1-0.2-1.6-0.4
	c-1.3-0.4-1.9-1.8-1.5-3c0.2-0.5,0.5-0.9,0.9-1.2c0.1-0.1,0.3-0.2,0.4-0.3c0.4-0.4,0.4-0.6-0.1-0.9c-0.8-0.3-1.6-0.4-2.4-0.2
	c-0.8,0.2-1.5,0.6-2,1.1c-1,1-1.1,2.7-0.2,3.8c0.3,0.3,0.6,0.6,0.9,0.9c1,0.8,2,1.6,3,2.4c0.7,0.6,1.4,1.2,2.1,1.8
	c1.7,1.6,2.4,4.1,1.7,6.4c-0.6,2.4-2.1,4.4-4.2,5.6c-1.8,1.1-3.9,1.8-6.1,1.9c-2.2,0.2-4.4-0.1-6.5-0.9c-1.3-0.5-2.4-1.4-3.2-2.5
	c-1.5-2.4-0.8-5.6,1.6-7.1c0.1-0.1,0.2-0.1,0.4-0.2c2-0.9,4.3-0.6,6,0.8c0.3,0.3,0.5,0.7,0.6,1C230.4,140.6,230.4,140.8,230.4,141z"
	/>
<path class="st0" d="M223,126.9c-0.2-0.6-0.3-1.1,0.2-1.6c0.7-0.7,1.4-1.5,2.1-2.3c0.4-0.5,0.8-1.1,1.1-1.7c0.2-0.4,0.2-0.5-0.2-0.8
	c-0.2-0.1-0.5-0.2-0.8-0.3c-1.4-0.5-2.2-1.9-2.1-3.4c0.1-1,0.5-2,1-2.9c0.8-1.2,2.1-2,3.6-2c1.8-0.1,3.3,1.3,3.4,3
	c0.1,1-0.1,2-0.5,3c-0.4,1.1-1,2.1-1.7,3c-1.6,2.1-3.5,4-5.6,5.6C223.3,126.7,223.2,126.8,223,126.9z"/>
<path class="st0" d="M109.4,120c-0.6-0.1-1.3-0.3-1.9-0.4c-1.5-0.5-2.3-2.2-1.8-3.8c0-0.1,0.1-0.3,0.2-0.4c0.7-1.5,2.2-2.5,3.9-2.6
	c0.6,0,1.2,0,1.8,0.1c1.6,0.2,2.7,1.7,2.4,3.3c0,0.2-0.1,0.4-0.2,0.6C113.3,118.7,111.5,120,109.4,120z"/>
<path class="st0" d="M214.5,149.2c1.6,0,2.9,1.3,2.9,2.9c0,0,0,0,0,0c-0.1,1.6-1.5,2.8-3.1,2.7c-1.5-0.1-2.6-1.3-2.7-2.7
	c0-1.6,1.2-2.9,2.8-2.9C214.4,149.2,214.5,149.2,214.5,149.2z M212,152.1c0,1.4,1.1,2.5,2.5,2.5c1.4,0,2.6-1.1,2.6-2.5
	c0-1.4-1.1-2.5-2.5-2.6c0,0,0,0,0,0C213.2,149.6,212.1,150.7,212,152.1C212,152.1,212,152.1,212,152.1z"/>
<path class="st0" d="M214,152.4l-0.1,1.2h-0.6v-3.1c0.6,0,1.1,0,1.6,0c0.4,0,0.8,0.2,0.9,0.6c0.1,0.4-0.1,0.8-0.5,1l-0.2,0.1
	l0.6,1.3c-0.6,0.1-0.6,0.1-0.8-0.3c-0.1-0.2-0.2-0.4-0.3-0.7C214.6,152.3,214.4,152.2,214,152.4z M214,150.8v1c0.3,0,0.5,0,0.8,0
	c0.3,0,0.5-0.2,0.5-0.5c0,0,0,0,0,0c0-0.3-0.2-0.5-0.5-0.5c0,0,0,0,0,0C214.6,150.8,214.3,150.8,214,150.8L214,150.8z"/>
</svg>
