<?xml version="1.0" encoding="utf-8"?>
<!-- Generator: Adobe Illustrator 21.1.0, SVG Export Plug-In . SVG Version: 6.00 Build 0)  -->
<svg version="1.1" id="Layer_1" xmlns="http://www.w3.org/2000/svg" xmlns:xlink="http://www.w3.org/1999/xlink" x="0px" y="0px"
	 viewBox="0 0 250 250" style="enable-background:new 0 0 250 250;" xml:space="preserve">
<style type="text/css">
	.st0{fill:#F6CE56;}
	.st1{fill:#44A3D6;}
	.st2{fill:#434243;}
	.st3{fill:#EF5F2E;}
</style>
<title>ICON_1-9</title>
<g>
	<g>
		<path class="st0" d="M157.1,116.4l-10.5,74.2c-0.3,1.9-1.9,3.3-3.9,3.3H108c-2,0-3.6-1.4-3.9-3.4l-10-74.2H157.1z"/>
	</g>
	<g>
		<path class="st1" d="M160,115.4H90c-0.8,0-1.4-0.6-1.4-1.4v-10.5c0-0.8,0.6-1.4,1.4-1.4h70c0.8,0,1.4,0.6,1.4,1.4V114
			C161.4,114.7,160.8,115.4,160,115.4z"/>
		<path class="st2" d="M157.5,116.4h-65c-2.7,0-5-2.2-5-5V106c0-2.7,2.2-5,5-5h65c2.7,0,5,2.2,5,5v5.4
			C162.4,114.2,160.2,116.4,157.5,116.4z M92.5,103.1c-1.6,0-2.9,1.3-2.9,2.9v5.4c0,1.6,1.3,2.9,2.9,2.9h65c1.6,0,2.9-1.3,2.9-2.9
			V106c0-1.6-1.3-2.9-2.9-2.9H92.5z"/>
	</g>
	<g>
		<path class="st2" d="M157.5,116.4h-65c-2.7,0-5-2.2-5-5V106c0-2.7,2.2-5,5-5h65c2.7,0,5,2.2,5,5v5.4
			C162.4,114.2,160.2,116.4,157.5,116.4z M92.5,103.1c-1.6,0-2.9,1.3-2.9,2.9v5.4c0,1.6,1.3,2.9,2.9,2.9h65c1.6,0,2.9-1.3,2.9-2.9
			V106c0-1.6-1.3-2.9-2.9-2.9H92.5z"/>
	</g>
	<g>
		<path class="st3" d="M156.7,101.4c0,0-3-30.4-31.4-30.4c-29.8,0-32.4,30.1-32.4,30.1L156.7,101.4z"/>
	</g>
	<g>
		<path class="st2" d="M156.7,102.5c-0.5,0-1-0.4-1-0.9c-0.1-1.2-3.3-29.4-30.3-29.4c-28.5,0-31.3,27.9-31.4,29.1
			c-0.1,0.6-0.6,1-1.1,1c-0.6,0-1-0.6-1-1.1c0-0.3,3-31,33.5-31c29,0,32.4,31,32.4,31.3c0.1,0.6-0.4,1.1-0.9,1.1
			C156.7,102.5,156.7,102.5,156.7,102.5z"/>
	</g>
	<g>
		<path class="st2" d="M142.7,195H108c-2.5,0-4.6-1.8-4.9-4.3l-10-74.2c-0.1-0.6,0.3-1.1,0.9-1.2c0.6-0.1,1.1,0.3,1.2,0.9l10,74.2
			c0.2,1.4,1.4,2.5,2.8,2.5h34.7c1.4,0,2.6-1.1,2.8-2.4l10.5-74.2c0.1-0.6,0.6-1,1.2-0.9c0.6,0.1,1,0.6,0.9,1.2l-10.5,74.2
			C147.2,193.2,145.1,195,142.7,195z"/>
	</g>
	<g>
		<path class="st2" d="M153.1,144.5H97.5c-0.6,0-1-0.5-1-1s0.5-1,1-1h55.6c0.6,0,1,0.5,1,1S153.7,144.5,153.1,144.5z"/>
	</g>
	<g>
		<path class="st2" d="M121.3,144.7C121.3,144.7,121.3,144.7,121.3,144.7c-0.7-0.1-1.1-0.6-1-1.1l7.5-83.1c0.3-3,2.8-5.3,5.8-5.3
			L160,55c0,0,0,0,0,0c0.6,0,1,0.5,1,1c0,0.6-0.5,1.1-1,1.1l-26.5,0.2c-2,0-3.6,1.5-3.7,3.4l-7.5,83.1
			C122.3,144.3,121.9,144.7,121.3,144.7z"/>
	</g>
	<g>
		<g>
			<path class="st2" d="M138.4,175.5l-2.9-1.7l2.5-1.5c0.4-0.2,0.5-0.7,0.3-1.1c-0.2-0.4-0.7-0.5-1.1-0.3l-3.3,1.9l-5.2-3.1l5.2-3
				l3.3,1.9c0.1,0.1,0.2,0.1,0.4,0.1c0.3,0,0.5-0.1,0.7-0.4c0.2-0.4,0.1-0.9-0.3-1.1l-2.5-1.5l2.9-1.7c0.4-0.2,0.5-0.7,0.3-1.1
				c-0.2-0.4-0.7-0.5-1.1-0.3l-2.9,1.7l0-2.9c0-0.5-0.4-0.8-0.8-0.8c-0.5,0-0.8,0.4-0.8,0.8l0,3.9l-5.2,3v-6.1l3.3-1.9
				c0.4-0.2,0.6-0.7,0.3-1.1c-0.2-0.4-0.7-0.5-1.1-0.3l-2.5,1.4v-3.3c0-0.5-0.4-0.8-0.8-0.8s-0.8,0.4-0.8,0.8v3.4l-2.6-1.4
				c-0.4-0.2-0.9-0.1-1.1,0.3c-0.2,0.4-0.1,0.9,0.3,1.1l3.4,1.9v6.1l-5.3-3.1l0-3.8c0-0.4-0.3-0.8-0.8-0.8h0c-0.4,0-0.8,0.4-0.8,0.8
				l0,2.9l-2.9-1.6c-0.4-0.2-0.9-0.1-1.1,0.3c-0.2,0.4-0.1,0.9,0.3,1.1l2.9,1.7l-2.5,1.5c-0.4,0.2-0.5,0.7-0.3,1.1
				c0.2,0.3,0.4,0.4,0.7,0.4c0.2,0,0.3,0,0.4-0.1l3.3-2l5.3,3l-5.3,3.1l-3.3-2c-0.4-0.2-0.9-0.1-1.1,0.3c-0.2,0.4-0.1,0.9,0.3,1.1
				l2.5,1.5l-2.9,1.7c-0.4,0.2-0.5,0.7-0.3,1.1c0.2,0.3,0.4,0.4,0.7,0.4c0.1,0,0.2,0,0.4-0.1l2.9-1.6l0,2.9c0,0.5,0.4,0.8,0.8,0.8h0
				c0.5,0,0.8-0.4,0.8-0.8l0-3.8l5.3-3v6l-3.4,1.9c-0.4,0.2-0.5,0.7-0.3,1.1c0.2,0.3,0.4,0.4,0.7,0.4c0.1,0,0.3,0,0.4-0.1l2.6-1.5
				v3.4c0,0.5,0.4,0.8,0.8,0.8s0.8-0.4,0.8-0.8v-3.4l2.5,1.4c0.1,0.1,0.3,0.1,0.4,0.1c0.3,0,0.6-0.1,0.7-0.4
				c0.2-0.4,0.1-0.9-0.3-1.1l-3.3-1.8v-6.1l5.2,3l0,3.9c0,0.5,0.4,0.8,0.8,0.8s0.8-0.4,0.8-0.8l0-3l2.9,1.7c0.1,0.1,0.3,0.1,0.4,0.1
				c0.3,0,0.5-0.1,0.7-0.4C138.9,176.3,138.8,175.7,138.4,175.5z"/>
		</g>
	</g>
</g>
</svg>
