<?xml version="1.0" encoding="utf-8"?>
<!-- Generator: Adobe Illustrator 21.1.0, SVG Export Plug-In . SVG Version: 6.00 Build 0)  -->
<svg version="1.1" id="Layer_1" xmlns="http://www.w3.org/2000/svg" xmlns:xlink="http://www.w3.org/1999/xlink" x="0px" y="0px"
	 viewBox="0 0 250 250" style="enable-background:new 0 0 250 250;" xml:space="preserve">
<style type="text/css">
	.st0{fill:#281F1A;}
	.st1{fill:#E91D25;}
	.st2{fill:#F7F0EF;}
</style>
<title>Grocery</title>
<path class="st0" d="M7.1,121.5c1.4-2,2.5-4.1,3.7-6.2c2-3.4,4-6.9,6-10.3c0.2-0.5,0.7-0.7,1.3-0.6c5.4,0,10.8,0,16.3,0
	c0.9,0,1.2-0.3,1.3-1.2c0.4-6.7,2.2-13.2,5.1-19.2c3.1-6.1,8.2-10.9,14.4-13.5c5.4-2.4,11.3-3.4,17.2-2.8c3.5,0.4,6.9,1.7,9.9,3.7
	c3.3,1.9,5.8,4.8,7.3,8.3c1.7,4.3,0.7,10.5-2.5,13.3c-1.9,1.7-4.3,2.7-6.9,3c-3.2,0.4-6.3,0.2-9.1-1.9c-2.2-1.7-3.6-4.2-3.9-7
	c-0.1-1-0.3-2-0.4-3c0-0.2,0.1-0.5-0.2-0.6c-0.3-0.1-0.4,0.2-0.6,0.3c-1.8,1.6-3.1,3.7-3.7,6c-1.3,4.6-1.2,9.3-1.1,14
	c0,0.7,0.5,0.7,1,0.7c6.2,0,12.5,0,18.7,0h61.6h57.9h38.9c1.3,0,1.3,0.1,0.7,1.2c-1.5,2.6-3,5.2-4.5,7.8c-1.3,2.3-2.7,4.7-3.9,7
	c-0.4,1-1.4,1.7-2.5,1.6c-40.3,0-80.6,0-120.9,0H63c-0.2,0-0.4,0-0.6,0c-0.9-0.1-1.1,0.3-1.1,1.2c0,16.1,0.1,32.2,0.1,48.3
	c0,1.6,0,1.6-1.7,1.6H39.8c-1,0-2.1-0.1-3.1-0.1c-1,0-1.2-0.3-1.2-1.2c0-15.3,0-30.5,0-45.8c0-1-0.1-1.9,0-2.9s-0.3-1-1-1
	c-6.9,0-13.7,0-20.6,0c-2.3,0.1-4.5,0-6.8-0.2L7.1,121.5z M194.5,113.1c0.7-0.3,1.2-0.4,1.7-0.6c1.2-0.4,2-1.5,1.9-2.7
	c0-1.2-0.8-2.2-1.9-2.7c-0.8-0.3-1.6-0.5-2.4-0.5c-2.9,0-5.9,0-8.8,0c-0.3,0-0.9-0.2-0.9,0.5c0,0.7,0.5,0.5,0.9,0.5
	c0.9,0,1.2,0.3,1.2,1.2c0,2.7,0,5.4,0,8.1c0,1.5,0,1.5-1.5,1.7c-0.4,0-0.6,0.1-0.6,0.5c0,0.4,0.2,0.5,0.5,0.5h6.8
	c0.3,0,0.5-0.1,0.5-0.5c0-0.4-0.1-0.5-0.5-0.5s-0.6,0-0.9,0c-0.4,0-0.7-0.2-0.7-0.6c0-0.1,0-0.1,0-0.2c0-1.3,0-2.7,0-3.9
	c0-0.2,0-0.4,0.2-0.5c1.3-0.4,2.7,0.3,3.1,1.5c0.2,0.8,0.2,1.7,0.3,2.5c0.1,1.5,1.4,2.6,2.9,2.4c0,0,0,0,0,0c2,0,3.2-0.8,3.5-2.3
	c0-0.3,0.3-0.8-0.3-0.9s-0.7,0.2-0.7,0.6c-0.1,0.4-0.1,1.1-0.8,1.1c-0.6,0-0.7-0.6-0.8-1.1C196.9,115.6,196.5,113.9,194.5,113.1
	L194.5,113.1z M120.2,106.6L120.2,106.6h-4.5c-0.3,0-0.8-0.1-0.8,0.5s0.5,0.5,0.8,0.5c0.9-0.1,1.2,0.4,1.2,1.3c0,2.7,0,5.5,0,8.2
	c0,1.1-0.3,1.7-1.4,1.5c-0.3,0-0.6,0-0.6,0.5c0,0.5,0.3,0.6,0.7,0.6c3,0,6,0.1,8.9-0.1c3.6-0.3,5.8-2.9,5.8-6.7
	c0.1-3.3-2.5-6-5.8-6.1c-0.1,0-0.1,0-0.2,0C122.9,106.6,121.5,106.6,120.2,106.6L120.2,106.6z M206.9,119.6h2.9c1,0,2,0,3,0
	c0.7,0,1-0.2,1-0.9c0-1,0.1-2.1,0.1-3.1c0-0.3,0.1-0.8-0.4-0.9c-0.6-0.1-0.7,0.3-0.8,0.6c-1,2.8-3,3.4-5.7,3.2c-0.7,0-1.1-0.4-1-1.1
	c0-0.7,0-1.7,0-2.6c0-0.5-0.3-1.2,0.2-1.4c0.6-0.1,1.3,0,1.7,0.5c0.6,0.3,0.9,0.9,1,1.6c0,0.5,0.2,0.7,0.7,0.6s0.5-0.3,0.5-0.7
	c0-1.6,0-3.2,0-4.7c0-0.3,0.1-0.8-0.5-0.9c-0.6-0.1-0.7,0.3-0.8,0.7c-0.2,1-1,1.7-2,1.8c-0.6,0.1-0.9,0-0.9-0.7c0-0.9,0-1.9,0-2.8
	c0-0.9,0.5-1.3,1.3-1.3c3-0.1,4.4,0.7,5.3,3.2c0.1,0.4,0.4,0.6,0.8,0.5c0,0,0,0,0.1,0c0.5,0,0.4-0.4,0.4-0.7c0-1-0.1-2.1-0.1-3.1
	c0-0.7-0.3-0.9-1-0.9c-3.8,0-7.7,0-11.5,0c-0.4,0-0.9-0.2-0.9,0.5s0.6,0.5,0.9,0.5c0.9,0,1.2,0.4,1.2,1.3c0,2.8,0,5.6,0,8.4
	c0,1-0.3,1.4-1.3,1.3c-0.3,0-0.8-0.1-0.8,0.5s0.5,0.5,0.9,0.5L206.9,119.6z M89.8,119.9c0.3,0,0.6,0,1,0c3.8-0.3,6.6-3.5,6.3-7.3
	c0-0.6-0.2-1.2-0.4-1.8c-1.5-3.2-5-5-8.5-4.3c-2.9,0.4-5.3,2.6-5.9,5.5C81.7,116.3,85,119.9,89.8,119.9L89.8,119.9z M175.5,119.9
	h0.9c3.8-0.2,6.6-3.4,6.4-7.2c0-0.8-0.2-1.5-0.5-2.2c-1.6-3.2-5.4-4.9-8.9-3.9c-3.1,0.6-5.4,3.2-5.5,6.3
	C167.9,116.8,171.1,119.9,175.5,119.9L175.5,119.9z M106.2,119.9h0.9c3.1-0.2,5.6-2.4,6.4-5.3c0.6-2.6-0.4-5.4-2.7-6.9
	c-3-2-7-1.8-9.8,0.5c-1.7,1.4-2.5,3.5-2.2,5.7C99.2,117.5,102.5,120.2,106.2,119.9L106.2,119.9z M215.8,117.2h0.1c0,0.5,0,1,0,1.5
	s-0.2,0.8,0.3,1c0.4,0.2,0.9,0,1.2-0.4c0.5-0.6,1-0.5,1.6-0.2c1.8,1,4,1,5.9,0.2c1.5-0.6,2.5-2,2.5-3.7c0.1-1.6-0.8-3-2.3-3.6
	c-0.5-0.2-1-0.4-1.5-0.5c-1.3-0.3-2.8-0.6-4.2-1c-0.8-0.1-1.4-0.8-1.3-1.5c0-0.8,0.6-1.4,1.3-1.6c0.8-0.3,1.6-0.3,2.3-0.1
	c1.6,0.4,2.9,1.6,3.6,3.1c0.2,0.4,0.5,0.7,0.9,0.6s0.3-0.6,0.3-0.9c0-1-0.1-1.9-0.2-2.9c0-0.3,0.1-0.7-0.3-0.9c-0.4-0.1-0.8,0-1,0.3
	c-0.5,0.5-0.9,0.4-1.5,0.1c-1.8-0.8-3.7-0.8-5.5,0c-1.9,0.7-2.9,2.9-2.2,4.8c0.2,0.4,0.4,0.8,0.7,1.2c0.9,0.9,2.1,1.6,3.4,1.7
	c1.1,0.2,2.2,0.4,3.3,0.7c0.9,0.1,1.5,0.9,1.5,1.7c0,0.9-0.6,1.6-1.5,1.8c-1.6,0.5-3.4,0.1-4.6-1c-0.8-0.6-1.4-1.4-1.8-2.3
	c-0.2-0.4-0.4-0.8-0.9-0.7c-0.5,0.1-0.4,0.7-0.4,1S215.9,116.7,215.8,117.2L215.8,117.2z M140.8,117.2L140.8,117.2c0,0.5,0,1,0,1.5
	s-0.2,0.8,0.3,1c0.4,0.2,0.9,0,1.2-0.4c0.5-0.6,0.9-0.5,1.6-0.2c1.7,0.9,3.8,1,5.6,0.3c1.7-0.5,2.8-2,2.8-3.8c0.1-1.7-1-3.2-2.6-3.7
	c-0.9-0.4-1.9-0.6-2.9-0.8c-0.8-0.1-1.7-0.3-2.5-0.6c-0.8-0.1-1.3-0.8-1.3-1.5c0-0.8,0.6-1.5,1.5-1.6c1.2-0.4,2.6-0.2,3.6,0.5
	c0.9,0.6,1.7,1.5,2.1,2.5c0.2,0.4,0.4,0.8,1,0.6s0.3-0.6,0.3-0.9c0-0.9,0-1.9-0.1-2.8c0-0.3,0.1-0.7-0.3-0.9
	c-0.4-0.2-0.9-0.1-1.1,0.3c-0.4,0.5-0.8,0.4-1.3,0.1c-1.7-0.8-3.7-0.8-5.5-0.1c-1.3,0.4-2.2,1.6-2.4,2.9c-0.3,1.4,0.3,2.7,1.4,3.5
	c0.9,0.6,1.9,1.1,3,1.3c1,0.2,2.1,0.4,3.1,0.6c0.9,0.1,1.5,0.8,1.5,1.7c0,0.9-0.6,1.7-1.5,1.8c-1.6,0.5-3.3,0.1-4.5-1
	c-0.8-0.6-1.4-1.4-1.8-2.3c-0.2-0.4-0.4-0.8-0.9-0.7s-0.4,0.6-0.4,0.9c0.2,0.5,0.2,1.1,0.2,1.6L140.8,117.2z M74.3,106.6h-5.7
	c-0.3,0-0.8-0.1-0.8,0.5s0.4,0.5,0.8,0.5c0.9,0,1.3,0.4,1.2,1.3c0,2.7,0,5.3,0,7.9c0,1.6,0,1.6-1.5,1.8c-0.3,0-0.5,0.1-0.5,0.5
	s0.1,0.5,0.5,0.5h7.1c0.2,0,0.4-0.2,0.4-0.4c0,0,0,0,0-0.1c0-0.3-0.1-0.5-0.4-0.6l-1-0.1c-0.6,0-0.9-0.3-0.9-0.9c0-1.2,0-2.4,0-3.6
	c0-0.6,0.3-0.7,0.8-0.6c1.1,0.1,1.9,0.9,2.1,2c0.1,0.5,0.2,0.9,0.8,0.8c0.6-0.1,0.4-0.6,0.4-1c0-1.4,0-2.8,0-4.2
	c0-0.4,0.3-0.9-0.4-1.1c-0.7-0.1-0.7,0.4-0.9,0.8c-0.3,0.9-1,1.6-2,1.7c-0.5,0.1-0.9,0-0.8-0.7c0-1,0-2,0-3c0-0.7,0.4-1,1-1.1
	c2.3-0.6,4.7,0.8,5.3,3.2c0.2,0.4,0.3,0.7,0.8,0.6c0.5-0.1,0.4-0.5,0.4-0.8c0-1-0.1-2.1,0-3.1c0-0.7-0.3-0.9-1-0.9
	C78,106.6,76.2,106.6,74.3,106.6L74.3,106.6z M160.1,106.6h-5.8c-0.4,0-0.8,0-0.8,0.5c0,1.3-0.2,2.5-0.3,3.8c0,0.2,0,0.5,0.3,0.6
	s0.6,0.1,0.8-0.3s0.1-0.5,0.2-0.7c0.3-1.2,1.1-2.3,2.2-2.8c1.1-0.5,1.6-0.1,1.6,1c0,2.7,0,5.3,0,8c0,1.6,0,1.6-1.6,1.9
	c-0.3,0-0.6,0.1-0.6,0.5c0,0.4,0.3,0.5,0.6,0.5h6.9c0.3,0,0.6,0,0.6-0.5c0-0.5-0.3-0.6-0.7-0.5h-0.2c-1.3-0.1-1.3-0.1-1.3-1.4
	c0-2.7,0-5.5,0-8.2c0-1.5,0.6-1.8,2-1.1c0.6,0.3,1,0.8,1.3,1.3c0.3,0.6,0.6,1.2,0.7,1.8c0.1,0.4,0.3,0.6,0.7,0.6
	c0.4-0.1,0.4-0.5,0.4-0.8c0-1.1-0.2-2.2-0.2-3.3c0-0.7-0.3-0.9-0.9-0.9C164,106.6,162,106.6,160.1,106.6L160.1,106.6z"/>
<path class="st0" d="M173,153.5c0,8.2,0,16.3,0,24.5c0,1.1-0.4,1.3-1.3,1.6c-2.6,0.6-5.2,1.3-7.7,1.9s-5.1,1.2-7.7,1.8
	c-1.5,0.3-2.9,0.6-4.4,1c-0.6,0.2-0.8,0-0.8-0.6c0-4.9,0-9.9,0-14.8c0-0.3,0.2-0.7-0.2-0.8c-0.3-0.1-0.4,0.4-0.6,0.6
	c-1.5,1.9-3.5,3.3-5.8,4.2c-2.2,0.9-4.6,1.4-7,1.5c-5.1,0.1-8.9-2.3-11.8-6.3c-1.9-2.8-3-5.9-3.4-9.2c-1.1-8-0.7-16.1-0.7-24.1
	c0-1.9,0-3.8,0-5.8c0-0.8,0.2-1.2,1.1-1.2c6.6,0,13.2,0,19.9,0c0.8,0,1.1,0.3,1.1,1.1c0.2,8.3,0.1,16.7,0,25c0,1.4,0.1,2.8,1.6,3.5
	c1.6,0.8,3.5,0.6,4.9-0.5c0.8-0.8,1.1-1.8,1-2.9c0-7.7,0-15.4,0-23.1c0-0.7,0-1.4,0-2.2c0-0.7,0.2-0.8,0.8-0.8c6.7,0,13.4,0,20,0
	c0.9,0,1,0.4,1,1.1C173.1,137,173.1,145.3,173,153.5L173,153.5z"/>
<path class="st0" d="M223.6,124.7c7.1,0,14,1.7,20.3,5c1.4,0.8,1.4,0.8,0.9,2.3c-0.6,1.8-1.2,3.5-1.7,5.3c-0.2,0.8-0.6,0.8-1.2,0.6
	c-3.2-1.4-6.7-2.5-10.2-3c-3.4-0.7-6.9-0.8-10.3-0.2c-0.5,0.1-1,0.3-1.4,0.6c-0.9,0.5-0.8,1.5,0.2,2.2c1.3,0.8,2.8,1.4,4.3,1.8
	c3.2,0.8,6.5,1.1,9.6,2.4c5.1,2.1,9,5.4,10.7,10.8c0.9,3.1,0.6,6.4-0.7,9.3c-2.2,5.1-6.4,9-11.6,10.8c-5,1.8-10.3,2.3-15.5,1.5
	c-6.8-0.8-13.4-3.2-19.1-7c-0.5-0.2-0.8-0.8-0.5-1.4c0,0,0-0.1,0-0.1c1.1-2.6,2.1-5.2,3.1-7.8c0.2-0.6,0.6-0.7,1.1-0.4
	c2.3,1.2,4.7,2.2,7.2,3c4.5,1.4,9.2,2,13.9,1.7c0.4,0,0.9-0.1,1.3-0.2c0.8-0.1,1.4-0.8,1.4-1.7c-0.1-0.6-0.5-1.1-1.1-1.3
	c-1.6-0.6-3.2-0.9-4.9-1.1c-3.3-0.6-6.5-1.3-9.6-2.3c-1.6-0.4-3.1-1-4.6-1.7c-3.5-1.9-6.3-4.4-6.5-8.8c-0.4-4.1,0.8-8.1,3.4-11.3
	c3-3.6,7-6.2,11.5-7.6C216.7,125.1,220.1,124.6,223.6,124.7z"/>
<path class="st0" d="M72.2,150.2c0-7.1,0-14.3,0-21.3c0-0.8,0.2-1.1,1.1-1.1c6.7,0,13.2,0,19.9,0c0.6,0,1.1,0.1,1,0.9
	c0,0.8,0.3,0.8,0.9,0.4c3-2.1,6.4-3.4,10-3.8c3.7-0.3,7.3,0,10.3,2.5c2.7,2.2,4.1,5.6,3.9,9.1c-0.1,5.9-5,10.6-10.9,10.5
	c-3.7-0.1-7.1-2.1-9-5.3c-0.7-1.2-1.2-2.5-1.3-3.9c0-0.4-0.1-1-0.5-1.1c-0.4-0.1-0.8,0.4-1,0.8c-0.9,1.4-1.5,3.1-1.6,4.8
	c-0.8,9.5-0.8,19.1-0.7,28.7c0,1.6,0,1.6-1.6,1.6H73.7c-1.4,0-1.5,0-1.5-1.4C72.2,164.4,72.2,157.4,72.2,150.2L72.2,150.2z"/>
<path class="st0" d="M190.2,145.5l-5.9-10.2l-3.6-6.3c-0.2-0.3-0.5-0.7-0.3-1c0.2-0.3,0.7-0.2,1-0.2h17.8c0.4,0,0.9-0.2,1.1,0.2
	s-0.2,0.7-0.4,1.1c-2.6,4.5-5.2,9-7.8,13.5C191.4,143.4,190.8,144.4,190.2,145.5z"/>
<path class="st0" d="M194.5,113.2c2,0.8,2.4,2.4,2.8,4c0.1,0.4,0.2,1.1,0.8,1.1c0.6,0,0.7-0.6,0.8-1.1c0.1-0.5,0.3-0.7,0.7-0.6
	c0.5,0.1,0.4,0.6,0.3,0.9c-0.3,1.6-1.5,2.4-3.5,2.3c-1.5,0.1-2.8-0.9-2.9-2.4c0,0,0,0,0,0c-0.1-0.9-0.1-1.7-0.3-2.5
	c-0.5-1.3-1.9-1.9-3.1-1.5c-0.2,0.1-0.2,0.3-0.2,0.5c0,1.3,0,2.7,0,3.9c-0.1,0.4,0.2,0.7,0.6,0.8c0.1,0,0.1,0,0.2,0
	c0.3,0,0.6,0,0.9,0s0.5,0.2,0.5,0.5c0,0.3-0.2,0.5-0.5,0.5h-6.8c-0.3,0-0.5-0.1-0.5-0.5c0-0.4,0.2-0.5,0.6-0.5
	c1.5-0.2,1.5-0.2,1.5-1.7c0-2.7,0-5.4,0-8.1c0-0.9-0.3-1.3-1.2-1.2c-0.4,0-0.9,0.2-0.9-0.5c0-0.7,0.6-0.5,0.9-0.5c2.9,0,5.9,0,8.8,0
	c0.8,0,1.6,0.1,2.4,0.5c1.1,0.4,1.8,1.5,1.9,2.7c0,1.2-0.7,2.4-1.9,2.7C195.7,112.8,195.2,113,194.5,113.2z M189.8,110.1
	c0,2.4,0.4,2.7,2.8,2l0.5-0.2c0.6-0.2,1-0.7,1.2-1.3c0.3-0.9,0.1-1.9-0.5-2.6c-1.1-0.6-2.3-0.8-3.5-0.5c-0.8,0.5-0.3,1.3-0.5,2.1
	C189.8,109.8,189.8,110,189.8,110.1L189.8,110.1z"/>
<path class="st0" d="M120.2,106.6c1.3,0,2.7,0,4,0c3.3,0,6,2.6,6,5.9c0,0.1,0,0.1,0,0.2c0,3.8-2.2,6.4-5.8,6.7c-3,0.2-6,0-8.9,0.1
	c-0.4,0-0.7-0.1-0.7-0.6s0.3-0.5,0.6-0.5c1.2,0.1,1.4-0.5,1.4-1.5c0-2.7,0-5.5,0-8.2c0-0.9-0.3-1.3-1.2-1.3c-0.3,0-0.8,0.1-0.8-0.5
	s0.5-0.5,0.8-0.5h4.5L120.2,106.6z M120.4,113c0,1.5,0,2.9,0,4.4c0,0.5,0,0.9,0.7,1.1c1.9,0.5,3.9-0.5,4.6-2.4
	c0.5-1.7,0.6-3.6,0.3-5.3c-0.2-2-2-3.5-4-3.3c-0.1,0-0.2,0-0.3,0c-0.8,0-1.3,0.4-1.2,1.3C120.5,110.2,120.4,111.6,120.4,113
	L120.4,113z"/>
<path class="st0" d="M206.9,119.6H201c-0.4,0-0.9,0.2-0.9-0.5c0-0.7,0.5-0.5,0.8-0.5c1,0,1.3-0.4,1.3-1.3c0-2.8,0-5.6,0-8.4
	c0-0.9-0.3-1.3-1.2-1.3c-0.3,0-0.9,0.2-0.9-0.5s0.5-0.5,0.9-0.5c3.8,0,7.7,0,11.5,0c0.7,0,1,0.2,1,0.9c0,1,0,2.1,0.1,3.1
	c0,0.3,0.1,0.6-0.4,0.7c-0.4,0.1-0.7-0.1-0.8-0.4c0,0,0,0,0-0.1c-0.9-2.6-2.3-3.3-5.3-3.2c-0.9,0-1.3,0.4-1.3,1.3s0,1.9,0,2.8
	c0,0.7,0.3,0.8,0.9,0.7c1-0.1,1.8-0.9,2-1.8c0.1-0.4,0.2-0.8,0.8-0.7s0.4,0.5,0.5,0.9c0,1.6,0,3.2,0,4.7c0,0.4,0,0.7-0.5,0.7
	c-0.5,0-0.7-0.2-0.7-0.6c-0.1-0.7-0.4-1.3-1-1.6c-0.5-0.4-1.1-0.6-1.7-0.5c-0.5,0.2-0.2,0.9-0.2,1.4c0,0.9,0,1.7,0,2.6
	c0,0.9,0.3,1.1,1,1.1c2.7,0.2,4.7-0.4,5.7-3.2c0.1-0.4,0.3-0.7,0.8-0.6s0.5,0.5,0.4,0.9c0,1-0.1,2.1-0.1,3.1c0,0.7-0.3,1-1,0.9
	c-1,0-2,0-3,0L206.9,119.6L206.9,119.6z"/>
<path class="st0" d="M89.8,119.9c-4.8,0-8.1-3.5-7.4-8c0.6-2.9,3-5.1,5.9-5.5c3.5-0.7,7,1,8.5,4.3c1.3,3.6-0.6,7.5-4.1,8.7
	c-0.6,0.2-1.2,0.3-1.8,0.4C90.5,119.9,90.1,119.9,89.8,119.9z M93.2,113.1c0.1-1.2-0.1-2.4-0.5-3.5c-0.3-1.3-1.6-2.3-3-2.2
	c-1.4-0.1-2.7,0.8-3,2.2c-0.8,2.5-0.8,5.1,0.2,7.5c0.5,1.3,1.9,2.1,3.3,1.9c1.3,0,2.3-1,2.5-2.2C93.1,115.6,93.3,114.3,93.2,113.1
	L93.2,113.1z"/>
<path class="st0" d="M175.6,119.9c-4.4,0-7.7-3.1-7.5-7.1c0.2-3.1,2.5-5.7,5.5-6.3c3.5-1,7.2,0.7,8.9,3.9c1.4,3.5-0.2,7.5-3.7,8.9
	c-0.7,0.3-1.5,0.5-2.2,0.5L175.6,119.9z M179,113.1c0-1.3-0.2-2.5-0.6-3.7c-0.4-1.2-1.5-2-2.8-2c-1.3-0.1-2.6,0.7-3,2
	c-0.6,1.6-0.7,3.4-0.5,5.1c0,1.1,0.4,2.2,0.9,3.2c0.7,1,1.9,1.5,3.1,1.3c1.1-0.1,2-0.9,2.3-1.9C178.9,115.7,179.1,114.4,179,113.1z"
	/>
<path class="st0" d="M106.2,119.9c-3.7,0.3-7-2.4-7.4-6.1c-0.3-2.2,0.5-4.3,2.2-5.7c2.8-2.2,6.8-2.4,9.8-0.5
	c2.2,1.5,3.3,4.3,2.7,6.9c-0.7,3-3.3,5.1-6.4,5.3L106.2,119.9z M109.7,113c0-1.2-0.1-2.4-0.5-3.6c-0.4-1.2-1.5-2.1-2.9-2.1
	c-1.3-0.1-2.5,0.7-3,1.9c-1,2.6-0.9,5.4,0.1,7.9c0.6,1.3,1.9,2,3.3,1.8c1.2-0.1,2.2-1,2.5-2.3C109.6,115.5,109.8,114.2,109.7,113
	L109.7,113z"/>
<path class="st0" d="M215.9,117.2c0-0.5,0-1,0-1.5c0-0.5-0.2-0.9,0.4-1c0.6-0.1,0.7,0.3,0.9,0.7c0.4,0.9,1,1.7,1.8,2.3
	c1.2,1.1,3,1.5,4.6,1c0.8-0.2,1.4-0.9,1.5-1.8c0-0.9-0.6-1.6-1.5-1.7c-1.1-0.3-2.2-0.4-3.3-0.7c-1.3-0.2-2.5-0.8-3.4-1.7
	c-1.4-1.5-1.2-3.9,0.4-5.2c0.3-0.3,0.7-0.5,1.2-0.7c1.8-0.8,3.7-0.8,5.5,0c0.6,0.3,1,0.4,1.5-0.1c0.3-0.3,0.7-0.4,1-0.3
	c0.4,0.2,0.3,0.6,0.3,0.9c0.1,1,0.1,1.9,0.2,2.9c0,0.3,0.2,0.8-0.3,0.9c-0.6,0.1-0.7-0.2-0.9-0.6c-0.6-1.5-2-2.7-3.6-3.1
	c-0.8-0.2-1.6-0.2-2.3,0.1c-0.8,0.2-1.3,0.8-1.3,1.6c0,0.8,0.6,1.4,1.3,1.5c1.3,0.4,2.8,0.6,4.2,1c0.5,0.1,1,0.3,1.5,0.5
	c1.4,0.6,2.4,2,2.3,3.6c0,1.6-1,3.1-2.5,3.7c-1.9,0.8-4,0.8-5.9-0.2c-0.6-0.3-1.1-0.4-1.6,0.2c-0.2,0.4-0.7,0.6-1.2,0.4
	c-0.4-0.2-0.2-0.7-0.3-1c0-0.4,0-1,0-1.5L215.9,117.2z"/>
<path class="st0" d="M140.9,117.2c0-0.5,0-1.1,0-1.6c0-0.3-0.2-0.8,0.4-0.9s0.7,0.3,0.9,0.7c0.4,0.9,1,1.7,1.8,2.3
	c1.2,1.1,2.9,1.5,4.5,1c0.9-0.2,1.5-0.9,1.5-1.8c0-0.9-0.6-1.6-1.5-1.7c-1-0.2-2.1-0.4-3.1-0.6c-1.1-0.2-2.1-0.6-3-1.3
	c-1.1-0.8-1.7-2.2-1.4-3.5c0.2-1.4,1.1-2.5,2.4-2.9c1.8-0.8,3.8-0.7,5.5,0.1c0.5,0.3,0.9,0.3,1.3-0.1c0.3-0.3,0.7-0.4,1.1-0.3
	c0.4,0.2,0.2,0.6,0.3,0.9c0,0.9,0.1,1.9,0.1,2.8c0,0.3,0.3,0.8-0.3,0.9c-0.6,0.2-0.8-0.2-1-0.6c-0.5-1-1.2-1.9-2.1-2.5
	c-1.1-0.7-2.4-0.9-3.6-0.5c-0.8,0.1-1.4,0.8-1.5,1.6c0,0.8,0.6,1.4,1.3,1.5c0.8,0.2,1.7,0.4,2.5,0.6c1,0.2,1.9,0.4,2.9,0.8
	c1.6,0.5,2.6,2,2.6,3.7c0,1.7-1.2,3.3-2.8,3.8c-1.8,0.7-3.9,0.6-5.6-0.3c-0.6-0.3-1.1-0.4-1.6,0.2c-0.2,0.4-0.7,0.6-1.2,0.4
	c-0.5-0.2-0.2-0.7-0.3-1C141,118.4,141,117.7,140.9,117.2L140.9,117.2z"/>
<path class="st0" d="M74.3,106.6c1.9,0,3.7,0,5.5,0c0.7,0,1,0.2,1,0.9c0,1,0,2.1,0,3.1c0,0.3,0.1,0.7-0.4,0.8
	c-0.5,0.1-0.7-0.2-0.8-0.6c-0.6-2.3-3-3.7-5.3-3.2c-0.7,0.1-1.1,0.4-1,1.1c0,1,0,2,0,3c0,0.6,0.3,0.8,0.8,0.7c1-0.1,1.7-0.8,2-1.7
	c0.1-0.4,0.2-0.9,0.9-0.8c0.6,0.1,0.4,0.7,0.4,1.1c0,1.4,0,2.8,0,4.2c0,0.4,0.2,0.9-0.4,1c-0.7,0.1-0.7-0.3-0.8-0.8
	c-0.2-1-1.1-1.8-2.1-2c-0.5-0.1-0.8,0-0.8,0.6c0,1.2,0,2.4,0,3.6c0,0.6,0.3,0.9,0.9,0.9l1,0.1c0.4,0,0.5,0.3,0.4,0.6
	c0,0.2-0.1,0.4-0.4,0.5c0,0,0,0-0.1,0h-7c-0.3,0-0.5-0.2-0.5-0.5s0.2-0.4,0.5-0.5c1.5-0.2,1.5-0.3,1.5-1.8c0-2.7,0-5.3,0-7.9
	c0-0.9-0.3-1.3-1.2-1.3c-0.4,0-0.8,0.1-0.8-0.5s0.5-0.5,0.8-0.5L74.3,106.6L74.3,106.6z"/>
<path class="st0" d="M160.1,106.6c1.9,0,3.8,0,5.8,0c0.6,0,0.9,0.2,0.9,0.9c0,1.1,0.1,2.2,0.2,3.3c0,0.3,0.1,0.7-0.4,0.8
	c-0.5,0.1-0.6-0.2-0.7-0.6c-0.1-0.6-0.4-1.2-0.7-1.8c-0.3-0.6-0.8-1-1.3-1.3c-1.3-0.7-2-0.4-2,1.1c0,2.7,0,5.5,0,8.2
	c0,1.3,0,1.3,1.3,1.4h0.2c0.4,0,0.7,0,0.7,0.5c0,0.5-0.3,0.5-0.6,0.5h-6.8c-0.3,0-0.6-0.1-0.6-0.5c0-0.4,0.3-0.5,0.6-0.5
	c1.6-0.2,1.6-0.2,1.6-1.9c0-2.7,0-5.3,0-8c0-1.2-0.5-1.5-1.6-1c-1.1,0.5-1.9,1.6-2.2,2.8c-0.1,0.2-0.1,0.5-0.2,0.7s-0.5,0.4-0.8,0.3
	c-0.3-0.1-0.3-0.3-0.3-0.6c0.1-1.3,0.2-2.5,0.3-3.8c0-0.6,0.4-0.5,0.8-0.5L160.1,106.6z"/>
<path class="st0" d="M189.8,110.1c0-0.1,0-0.3,0-0.4c0.1-0.7-0.4-1.6,0.5-2.1c1.2-0.3,2.4-0.2,3.5,0.4c0.6,0.7,0.8,1.7,0.5,2.6
	c-0.1,0.6-0.6,1.1-1.2,1.3l-0.5,0.2C190.2,112.8,189.8,112.5,189.8,110.1z"/>
<path class="st0" d="M120.4,113c0-1.4,0-2.8,0-4.2c0-0.9,0.4-1.2,1.2-1.3c2-0.4,3.9,0.9,4.3,2.9c0,0.1,0,0.2,0,0.3
	c0.4,1.8,0.3,3.6-0.3,5.3c-0.7,1.9-2.7,2.9-4.6,2.4c-0.6-0.2-0.7-0.6-0.7-1.1C120.4,115.9,120.4,114.5,120.4,113z"/>
<path class="st0" d="M93.3,113.1c0,1.2-0.1,2.5-0.5,3.7c-0.2,1.2-1.3,2.1-2.5,2.2c-1.4,0.2-2.7-0.6-3.2-1.9c-1-2.4-1-5.1-0.2-7.5
	c0.3-1.4,1.6-2.3,3-2.2c1.4,0,2.6,0.9,3,2.2C93.2,110.7,93.3,111.9,93.3,113.1z"/>
<path class="st0" d="M179,113.1c0,1.3-0.2,2.7-0.6,3.9c-0.3,1.1-1.2,1.8-2.3,1.9c-1.2,0.2-2.4-0.3-3.1-1.3c-0.6-1-0.9-2.1-0.9-3.2
	c-0.2-1.7,0-3.4,0.5-5.1c0.4-1.3,1.7-2.1,3-2c1.3,0,2.4,0.8,2.8,2C178.9,110.5,179.1,111.8,179,113.1z"/>
<path class="st0" d="M109.7,113c0,1.2-0.2,2.5-0.5,3.7c-0.2,1.2-1.2,2.1-2.5,2.3c-1.4,0.2-2.7-0.5-3.3-1.8c-1.1-2.5-1.1-5.4-0.1-7.9
	c0.4-1.3,1.7-2,3-1.9c1.3,0,2.5,0.8,2.9,2.1C109.6,110.5,109.8,111.7,109.7,113z"/>
<path class="st1" d="M5.3,119.9c1.4-2,2.5-4.1,3.7-6.2c2-3.4,4-6.9,6-10.3c0.2-0.5,0.7-0.7,1.3-0.6c5.4,0,10.8,0,16.3,0
	c0.9,0,1.2-0.3,1.3-1.2c0.4-6.7,2.1-13.2,5.1-19.2c3.1-6.1,8.2-10.9,14.4-13.5c5.4-2.4,11.3-3.3,17.2-2.7c3.5,0.4,7,1.6,9.9,3.6
	c3.3,1.9,5.8,4.8,7.3,8.3c1.7,4.3,0.7,10.5-2.5,13.3c-1.9,1.7-4.3,2.8-6.9,3c-3.2,0.4-6.3,0.2-9.1-1.9c-2.2-1.7-3.6-4.2-3.9-7
	c-0.1-1-0.3-2-0.4-3c0-0.2,0.1-0.5-0.2-0.6c-0.3-0.1-0.4,0.2-0.6,0.3c-1.8,1.6-3.1,3.7-3.7,6c-1.3,4.6-1.2,9.3-1.1,14
	c0,0.7,0.5,0.7,1,0.7c6.2,0,12.5,0,18.7,0h61.6h57.9h38.9c1.3,0,1.3,0.1,0.7,1.2c-1.5,2.6-3,5.2-4.5,7.8c-1.3,2.3-2.7,4.7-3.9,7
	c-0.4,1-1.4,1.7-2.5,1.6c-40.3,0-80.6,0-120.9,0H61.2c-0.2,0-0.4,0-0.6,0c-0.9-0.1-1.1,0.3-1.1,1.2c0,16.1,0.1,32.2,0.1,48.3
	c0,1.6,0,1.6-1.7,1.6H38c-1,0-2.1-0.1-3.1-0.1c-1,0-1.2-0.3-1.2-1.3c0-15.3,0-30.5,0-45.8c0-1-0.1-1.9,0-2.9c0.1-1-0.3-1-1-1
	c-6.9,0-13.7,0-20.6,0c-2.3,0.1-4.5,0-6.8-0.2L5.3,119.9z M192.6,111.5c0.7-0.3,1.2-0.4,1.7-0.6c1.2-0.4,2-1.5,1.9-2.7
	c0-1.2-0.8-2.2-1.9-2.7c-0.8-0.3-1.6-0.5-2.4-0.5c-2.9,0-5.9,0-8.8,0c-0.3,0-0.9-0.2-0.9,0.5c0,0.7,0.5,0.5,0.9,0.5
	c0.9,0,1.2,0.3,1.2,1.2c0,2.7,0,5.4,0,8.1c0,1.5,0,1.5-1.5,1.7c-0.4,0-0.6,0.1-0.6,0.5s0.2,0.5,0.5,0.5h6.8c0.3,0,0.5-0.1,0.5-0.5
	c0-0.4-0.1-0.5-0.5-0.5s-0.6,0-0.9,0c-0.4,0-0.7-0.2-0.7-0.6c0-0.1,0-0.1,0-0.2c0-1.3,0-2.7,0-3.9c0-0.2,0-0.4,0.2-0.5
	c1.3-0.4,2.7,0.3,3.1,1.5c0.2,0.8,0.2,1.7,0.3,2.5c0.1,1.5,1.4,2.6,2.9,2.4c0,0,0,0,0,0c2,0,3.2-0.8,3.5-2.3c0-0.3,0.3-0.8-0.3-0.9
	c-0.6-0.1-0.7,0.2-0.7,0.6c-0.1,0.4-0.1,1.1-0.8,1.1c-0.6,0-0.7-0.6-0.8-1.1C195,113.9,194.6,112.3,192.6,111.5L192.6,111.5z
	 M118.3,105L118.3,105h-4.5c-0.3,0-0.8-0.1-0.8,0.5s0.5,0.5,0.8,0.5c0.9-0.1,1.2,0.4,1.2,1.3c0,2.7,0,5.5,0,8.2
	c0,1.1-0.3,1.7-1.4,1.5c-0.3,0-0.6,0-0.6,0.5c0,0.5,0.3,0.6,0.7,0.6c3,0,6,0.1,8.9-0.1c3.6-0.3,5.8-2.9,5.8-6.7
	c0.1-3.3-2.5-6-5.8-6.1c-0.1,0-0.1,0-0.2,0C121,105,119.7,105,118.3,105z M205,117.9h2.9c1,0,2,0,3,0c0.7,0,1-0.2,1-0.9
	c0-1,0.1-2.1,0.1-3.1c0-0.3,0.1-0.8-0.4-0.9s-0.7,0.3-0.8,0.6c-1,2.8-3,3.4-5.7,3.2c-0.7,0-1.1-0.4-1-1.1c0-0.7,0-1.7,0-2.6
	c0-0.5-0.3-1.2,0.2-1.4c0.6-0.1,1.3,0,1.7,0.5c0.6,0.3,0.9,0.9,1,1.6c0,0.5,0.2,0.7,0.7,0.6c0.5,0,0.5-0.3,0.5-0.7
	c0-1.6,0-3.2,0-4.7c0-0.3,0.1-0.8-0.5-0.9s-0.7,0.3-0.8,0.7c-0.2,1-1,1.7-1.9,1.9c-0.6,0.1-0.9,0-0.9-0.7c0-0.9,0-1.9,0-2.8
	s0.5-1.3,1.3-1.3c3-0.1,4.4,0.7,5.3,3.2c0.1,0.4,0.4,0.6,0.8,0.5c0,0,0,0,0.1,0c0.5,0,0.4-0.4,0.4-0.7c0-1-0.1-2.1-0.1-3.1
	c0-0.7-0.3-0.9-1-0.9c-3.8,0-7.7,0-11.5,0c-0.4,0-0.9-0.2-0.9,0.5s0.6,0.5,0.9,0.5c0.9,0,1.2,0.4,1.2,1.3c0,2.8,0,5.6,0,8.4
	c0,1-0.3,1.4-1.3,1.3c-0.3,0-0.8-0.1-0.8,0.5c0,0.6,0.5,0.5,0.9,0.5L205,117.9z M87.9,118.2c0.3,0,0.6,0,1,0
	c3.8-0.3,6.6-3.5,6.3-7.3c0-0.6-0.2-1.2-0.4-1.8c-1.5-3.2-5-5-8.5-4.3c-2.9,0.4-5.3,2.6-5.9,5.5C79.9,114.7,83.1,118.3,87.9,118.2
	L87.9,118.2z M173.7,118.2h0.9c3.8-0.2,6.6-3.4,6.4-7.2c0-0.8-0.2-1.5-0.5-2.2c-1.6-3.2-5.4-4.9-8.9-3.9c-3.1,0.6-5.4,3.2-5.5,6.3
	C166.1,115.2,169.3,118.3,173.7,118.2L173.7,118.2z M104.3,118.2h0.9c3.1-0.2,5.6-2.4,6.4-5.3c0.6-2.6-0.4-5.4-2.7-6.9
	c-3-2-7-1.8-9.8,0.5c-1.7,1.4-2.5,3.5-2.2,5.7C97.4,115.8,100.7,118.5,104.3,118.2L104.3,118.2z M214,115.5h0.1c0,0.5,0,1,0,1.5
	c0,0.5-0.2,0.8,0.3,1c0.4,0.2,0.9,0,1.2-0.4c0.5-0.6,1-0.5,1.6-0.2c1.8,1,4,1,5.9,0.2c1.5-0.6,2.5-2,2.5-3.7c0.1-1.6-0.8-3-2.3-3.6
	c-0.5-0.2-1-0.4-1.5-0.5c-1.3-0.3-2.8-0.6-4.2-1c-0.8-0.1-1.4-0.8-1.3-1.5c0-0.8,0.6-1.4,1.3-1.6c0.8-0.3,1.6-0.3,2.3-0.1
	c1.7,0.4,3,1.6,3.7,3.2c0.2,0.4,0.5,0.7,0.9,0.6c0.5-0.1,0.3-0.6,0.3-0.9c0-1-0.1-1.9-0.2-2.9c0-0.3,0.1-0.7-0.3-0.9
	c-0.4-0.1-0.8,0-1,0.3c-0.5,0.5-0.9,0.4-1.5,0.1c-1.8-0.8-3.7-0.8-5.5,0c-1.9,0.7-2.9,2.9-2.2,4.8c0.2,0.4,0.4,0.8,0.7,1.2
	c0.9,0.9,2.1,1.6,3.4,1.7c1.1,0.2,2.2,0.4,3.3,0.7c0.9,0.1,1.5,0.9,1.5,1.7c0,0.9-0.6,1.6-1.5,1.8c-1.6,0.5-3.4,0.1-4.6-1
	c-0.8-0.6-1.4-1.4-1.8-2.3c-0.2-0.4-0.4-0.8-0.9-0.7c-0.5,0.1-0.4,0.7-0.4,1S214,115,214,115.5L214,115.5z M138.9,115.5L138.9,115.5
	c0,0.5,0,1,0,1.5c0,0.5-0.2,0.8,0.3,1c0.4,0.2,0.9,0,1.2-0.4c0.5-0.6,0.9-0.5,1.6-0.2c1.7,0.9,3.8,1,5.6,0.3c1.7-0.5,2.8-2,2.8-3.8
	c0.1-1.7-0.9-3.2-2.4-3.7c-0.9-0.4-1.9-0.6-2.9-0.8c-0.8-0.1-1.7-0.3-2.5-0.6c-0.8-0.1-1.3-0.8-1.3-1.5c0-0.8,0.6-1.5,1.5-1.6
	c1.2-0.4,2.6-0.2,3.6,0.5c0.9,0.6,1.7,1.5,2.1,2.5c0.2,0.4,0.4,0.8,1,0.6c0.6-0.2,0.3-0.6,0.3-0.9c0-0.9,0-1.9-0.1-2.8
	c0-0.3,0.1-0.7-0.3-0.9c-0.4-0.2-0.9-0.1-1.1,0.3c-0.4,0.5-0.8,0.4-1.3,0.1c-1.7-0.8-3.7-0.8-5.5-0.1c-1.3,0.4-2.2,1.6-2.4,2.9
	c-0.3,1.4,0.3,2.7,1.4,3.5c0.9,0.6,1.9,1.1,3,1.3c1,0.2,2.1,0.4,3.1,0.6c0.9,0.1,1.5,0.8,1.5,1.7c0,0.9-0.6,1.7-1.5,1.8
	c-1.6,0.5-3.3,0.1-4.5-1c-0.8-0.6-1.4-1.4-1.8-2.3c-0.2-0.4-0.4-0.8-0.9-0.7c-0.5,0.1-0.4,0.6-0.4,0.9
	C139,114.4,139,115,138.9,115.5L138.9,115.5z M72.5,105h-5.8c-0.3,0-0.8-0.1-0.8,0.5c0,0.6,0.4,0.5,0.8,0.5c0.9,0,1.3,0.4,1.2,1.3
	c0,2.7,0,5.3,0,7.9c0,1.6,0,1.6-1.5,1.8c-0.3,0-0.5,0.1-0.5,0.5s0.1,0.5,0.5,0.5h7.1c0.2,0,0.4-0.2,0.4-0.4c0,0,0,0,0-0.1
	c0-0.3-0.1-0.5-0.4-0.6l-1-0.1c-0.6,0-0.9-0.3-0.9-0.9c0-1.2,0-2.4,0-3.6c0-0.6,0.3-0.7,0.8-0.6c1.1,0.1,1.9,0.9,2.1,2
	c0.1,0.5,0.2,0.9,0.8,0.8c0.6-0.1,0.4-0.6,0.4-1c0-1.4,0-2.8,0-4.2c0-0.4,0.3-0.9-0.4-1.1s-0.7,0.4-0.9,0.8c-0.3,0.9-1,1.6-2,1.7
	c-0.5,0.1-0.9,0-0.8-0.7c0-1,0-2,0-3c0-0.7,0.4-1,1-1.1c2.3-0.6,4.7,0.8,5.3,3.2c0.2,0.4,0.3,0.7,0.8,0.6c0.5-0.1,0.4-0.5,0.4-0.8
	c0-1-0.1-2.1,0-3.1c0-0.7-0.3-0.9-1-0.9C76.2,105,74.3,105,72.5,105z M158.2,105h-5.7c-0.4,0-0.8,0-0.8,0.5c0,1.3-0.2,2.5-0.3,3.8
	c0,0.2,0,0.5,0.3,0.6c0.3,0.1,0.6,0.1,0.8-0.3c0.1-0.4,0.1-0.5,0.2-0.7c0.3-1.2,1.1-2.3,2.2-2.8c1.1-0.5,1.6-0.1,1.6,1
	c0,2.7,0,5.3,0,8c0,1.6,0,1.6-1.6,1.9c-0.3,0-0.6,0.1-0.6,0.5s0.3,0.5,0.6,0.5h6.8c0.3,0,0.6,0,0.6-0.5c0-0.5-0.3-0.6-0.7-0.5h-0.2
	c-1.3-0.1-1.3-0.1-1.3-1.4c0-2.7,0-5.5,0-8.2c0-1.5,0.6-1.8,2-1.1c0.6,0.3,1,0.8,1.3,1.3c0.3,0.6,0.6,1.2,0.7,1.8
	c0.1,0.4,0.3,0.6,0.7,0.6c0.4-0.1,0.4-0.5,0.4-0.8c0-1.1-0.2-2.2-0.2-3.3c0-0.7-0.3-0.9-0.9-0.9C162.1,105,160.2,105,158.2,105z"/>
<path class="st1" d="M171.2,151.9c0,8.2,0,16.3,0,24.5c0,1.1-0.4,1.3-1.3,1.6c-2.6,0.6-5.2,1.3-7.7,1.9s-5.1,1.2-7.7,1.8
	c-1.5,0.3-2.9,0.6-4.4,1c-0.6,0.2-0.8,0-0.8-0.6c0-4.9,0-9.9,0-14.8c0-0.3,0.2-0.7-0.2-0.8c-0.3-0.1-0.4,0.4-0.6,0.6
	c-1.5,1.9-3.5,3.3-5.8,4.2c-2.2,0.9-4.6,1.4-7,1.5c-5.1,0.1-8.9-2.3-11.8-6.3c-1.9-2.8-3-5.9-3.4-9.2c-1.1-8-0.7-16.1-0.7-24.1
	c0-1.9,0-3.8,0-5.8c0-0.8,0.2-1.2,1.1-1.2c6.6,0,13.2,0,19.9,0c0.8,0,1.1,0.3,1.1,1.1c0.2,8.3,0.1,16.7,0,25c0,1.4,0.1,2.8,1.6,3.5
	c1.6,0.8,3.5,0.6,4.9-0.5c0.8-0.8,1.1-1.8,1-2.9c0-7.7,0-15.4,0-23.1c0-0.7,0-1.4,0-2.2c0-0.7,0.2-0.8,0.8-0.8c6.7,0,13.4,0,20,0
	c0.9,0,1,0.4,1,1.1C171.2,135.4,171.2,143.6,171.2,151.9L171.2,151.9z"/>
<path class="st1" d="M221.7,123c7.1,0,14,1.7,20.3,5c1.4,0.8,1.4,0.8,0.9,2.3c-0.6,1.8-1.2,3.5-1.7,5.3c-0.2,0.8-0.6,0.8-1.2,0.6
	c-3.2-1.4-6.7-2.5-10.2-3c-3.4-0.7-6.9-0.8-10.3-0.2c-0.5,0.1-1,0.3-1.4,0.6c-0.9,0.5-0.8,1.5,0.2,2.2c1.3,0.8,2.8,1.4,4.3,1.8
	c3.2,0.8,6.5,1.1,9.6,2.4c5.1,2.1,9,5.4,10.7,10.8c0.9,3.1,0.6,6.4-0.7,9.3c-2.2,5.1-6.4,9-11.6,10.8c-5,1.8-10.3,2.3-15.5,1.5
	c-6.8-0.8-13.4-3.2-19.1-7c-0.5-0.2-0.8-0.8-0.5-1.4c0,0,0-0.1,0-0.1c1.1-2.6,2.1-5.2,3.1-7.8c0.2-0.6,0.6-0.7,1.1-0.4
	c2.3,1.2,4.7,2.2,7.2,3c4.5,1.4,9.2,2,13.9,1.7c0.4,0,0.9-0.1,1.3-0.2c0.8-0.1,1.4-0.8,1.4-1.7c-0.1-0.6-0.5-1.1-1.1-1.3
	c-1.6-0.6-3.2-0.9-4.9-1.1c-3.3-0.6-6.5-1.3-9.6-2.3c-1.6-0.4-3.1-1-4.6-1.7c-3.5-1.9-6.3-4.4-6.5-8.8c-0.4-4.1,0.8-8.1,3.4-11.3
	c3-3.6,7-6.2,11.5-7.6C214.9,123.4,218.3,122.9,221.7,123z"/>
<path class="st1" d="M70.3,148.6c0-7.1,0-14.3,0-21.3c0-0.8,0.2-1.1,1.1-1.1c6.7,0,13.2,0,19.9,0c0.6,0,1.1,0.1,1,0.9
	s0.3,0.8,0.9,0.4c3-2.1,6.4-3.4,10-3.8c3.7-0.3,7.3,0,10.3,2.5c2.7,2.2,4.1,5.6,3.9,9.1c-0.1,5.9-5,10.6-10.9,10.5
	c-3.7-0.1-7.1-2.1-9-5.3c-0.7-1.2-1.2-2.5-1.3-3.9c0-0.4-0.1-1-0.5-1.1c-0.4-0.1-0.8,0.4-1,0.8c-0.9,1.4-1.5,3.1-1.6,4.8
	c-0.8,9.5-0.8,19.1-0.7,28.7c0,1.6,0,1.6-1.6,1.6H71.9c-1.4,0-1.5,0-1.5-1.4C70.4,162.8,70.4,155.7,70.3,148.6L70.3,148.6z"/>
<path class="st1" d="M188.3,143.8l-5.9-10.2l-3.6-6.3c-0.2-0.3-0.5-0.7-0.3-1s0.7-0.2,1-0.2h17.8c0.4,0,0.9-0.2,1.1,0.2
	s-0.2,0.7-0.4,1.1c-2.6,4.5-5.2,9-7.8,13.5C189.6,141.8,188.9,142.7,188.3,143.8z"/>
<path class="st2" d="M192.6,111.5c2,0.8,2.4,2.4,2.8,4c0.1,0.4,0.2,1.1,0.8,1.1c0.6,0,0.7-0.6,0.8-1.1s0.3-0.7,0.7-0.6
	c0.5,0.1,0.4,0.6,0.3,0.9c-0.3,1.6-1.5,2.4-3.5,2.3c-1.5,0.1-2.8-0.9-2.9-2.4c0,0,0,0,0,0c-0.1-0.9-0.1-1.7-0.3-2.5
	c-0.5-1.3-1.9-1.9-3.1-1.5c-0.2,0.1-0.2,0.3-0.2,0.5c0,1.3,0,2.7,0,3.9c-0.1,0.4,0.2,0.7,0.6,0.8c0.1,0,0.1,0,0.2,0
	c0.3,0,0.6,0,0.9,0s0.5,0.2,0.5,0.5s-0.2,0.5-0.5,0.5h-6.8c-0.3,0-0.5-0.1-0.5-0.5c0-0.4,0.2-0.5,0.6-0.5c1.5-0.2,1.5-0.2,1.5-1.7
	c0-2.7,0-5.4,0-8.1c0-0.9-0.3-1.3-1.2-1.2c-0.4,0-0.9,0.2-0.9-0.5c0-0.7,0.6-0.5,0.9-0.5c2.9,0,5.9,0,8.8,0c0.8,0,1.6,0.1,2.4,0.5
	c1.1,0.4,1.8,1.5,1.9,2.7c0,1.2-0.7,2.4-1.9,2.7C193.9,111.1,193.4,111.3,192.6,111.5z M187.9,108.5c0,2.4,0.4,2.7,2.8,2l0.5-0.2
	c0.6-0.2,1-0.7,1.2-1.3c0.3-0.9,0.1-1.9-0.5-2.6c-1-0.6-2.3-0.7-3.5-0.4c-0.8,0.5-0.3,1.3-0.5,2.1C188,108.2,188,108.3,187.9,108.5
	L187.9,108.5z"/>
<path class="st2" d="M118.3,105c1.3,0,2.7,0,4,0c3.3,0,6,2.6,6,5.9c0,0.1,0,0.1,0,0.2c0,3.8-2.2,6.4-5.8,6.7c-3,0.2-6,0-8.9,0.1
	c-0.4,0-0.7-0.1-0.7-0.6c0-0.5,0.3-0.5,0.6-0.5c1.2,0.1,1.4-0.5,1.4-1.5c0-2.7,0-5.5,0-8.2c0-0.9-0.3-1.3-1.2-1.3
	c-0.3,0-0.8,0.1-0.8-0.5s0.5-0.5,0.8-0.5h4.5L118.3,105z M118.6,111.3c0,1.5,0,2.9,0,4.4c0,0.5,0,0.9,0.7,1.1
	c1.9,0.5,3.9-0.5,4.6-2.4c0.5-1.7,0.6-3.6,0.3-5.3c-0.2-2-2-3.5-4-3.3c-0.1,0-0.2,0-0.3,0c-0.8,0-1.3,0.4-1.2,1.3
	C118.6,108.6,118.6,110,118.6,111.3L118.6,111.3z"/>
<path class="st2" d="M205.1,118h-5.9c-0.4,0-0.9,0.2-0.9-0.5s0.5-0.5,0.8-0.5c1,0,1.3-0.4,1.3-1.3c0-2.8,0-5.6,0-8.4
	c0-0.9-0.3-1.3-1.2-1.3c-0.3,0-0.9,0.2-0.9-0.5c0-0.7,0.5-0.5,0.9-0.5c3.8,0,7.7,0,11.5,0c0.7,0,1,0.2,1,0.9c0,1,0,2.1,0.1,3.1
	c0,0.3,0.1,0.6-0.4,0.7c-0.4,0.1-0.7-0.1-0.8-0.4c0,0,0,0,0-0.1c-0.9-2.6-2.3-3.3-5.3-3.2c-0.9,0-1.3,0.4-1.3,1.3s0,1.9,0,2.8
	c0,0.7,0.3,0.8,0.9,0.7c1-0.1,1.8-0.9,2-1.8c0.1-0.4,0.2-0.8,0.8-0.7c0.6,0.1,0.4,0.5,0.5,0.9c0,1.6,0,3.2,0,4.7
	c0,0.4,0,0.7-0.5,0.7s-0.7-0.2-0.7-0.6c-0.1-0.7-0.4-1.3-1-1.6c-0.5-0.4-1.1-0.6-1.7-0.5c-0.5,0.2-0.2,0.9-0.2,1.4
	c0,0.9,0,1.7,0,2.6s0.3,1.1,1,1.1c2.7,0.2,4.7-0.4,5.7-3.2c0.1-0.4,0.3-0.7,0.8-0.6c0.5,0.1,0.5,0.5,0.4,0.9c0,1-0.1,2.1-0.1,3.1
	c0,0.7-0.3,1-1,0.9c-1,0-2,0-3,0L205.1,118L205.1,118z"/>
<path class="st2" d="M88,118.2c-4.8,0-8.1-3.5-7.4-8c0.6-2.9,3-5.1,5.9-5.5c3.5-0.7,7,1,8.5,4.3c1.3,3.6-0.6,7.5-4.1,8.7
	c-0.6,0.2-1.2,0.3-1.8,0.4C88.6,118.2,88.2,118.2,88,118.2z M91.4,111.4c0.1-1.2-0.1-2.4-0.5-3.5c-0.3-1.3-1.6-2.3-3-2.2
	c-1.4-0.1-2.7,0.8-3,2.2c-0.8,2.5-0.8,5.1,0.2,7.5c0.5,1.3,1.8,2.1,3.2,1.9c1.3,0,2.3-1,2.5-2.2C91.2,113.9,91.4,112.7,91.4,111.4
	L91.4,111.4z"/>
<path class="st2" d="M173.7,118.2c-4.4,0-7.7-3.1-7.5-7.1c0.2-3.1,2.5-5.7,5.5-6.3c3.5-1,7.2,0.7,8.9,3.9c1.4,3.5-0.2,7.5-3.7,8.9
	c-0.7,0.3-1.5,0.5-2.2,0.5L173.7,118.2z M177.2,111.4c0-1.3-0.2-2.5-0.6-3.7c-0.4-1.2-1.5-2-2.8-2c-1.3-0.1-2.6,0.7-3,2
	c-0.6,1.6-0.7,3.4-0.5,5.1c0,1.1,0.4,2.2,0.9,3.2c0.7,1,1.9,1.5,3.1,1.3c1.1-0.1,2-0.9,2.3-1.9C177,114.1,177.2,112.7,177.2,111.4z"
	/>
<path class="st2" d="M104.4,118.2c-3.7,0.3-7-2.4-7.4-6.1c-0.3-2.2,0.5-4.3,2.2-5.7c2.8-2.2,6.8-2.4,9.8-0.5
	c2.2,1.5,3.3,4.3,2.7,6.9c-0.7,3-3.3,5.1-6.4,5.3L104.4,118.2z M107.9,111.4c0-1.2-0.1-2.4-0.5-3.6c-0.4-1.2-1.5-2.1-2.9-2.1
	c-1.3-0.1-2.5,0.7-3,1.9c-1,2.6-0.9,5.4,0.1,7.9c0.6,1.3,1.9,2,3.3,1.8c1.2-0.1,2.2-1,2.5-2.3C107.7,113.8,107.9,112.6,107.9,111.4
	L107.9,111.4z"/>
<path class="st2" d="M214,115.5c0-0.5,0-1,0-1.5c0-0.5-0.2-0.9,0.4-1c0.6-0.1,0.7,0.3,0.9,0.7c0.4,0.9,1,1.7,1.8,2.3
	c1.2,1.1,3,1.5,4.6,1c0.8-0.2,1.4-0.9,1.5-1.8c0-0.9-0.6-1.6-1.5-1.7c-1.1-0.3-2.2-0.4-3.3-0.7c-1.3-0.2-2.5-0.8-3.4-1.7
	c-1.4-1.5-1.2-3.9,0.4-5.2c0.3-0.3,0.7-0.5,1.2-0.7c1.8-0.8,3.7-0.8,5.5,0c0.6,0.3,1,0.4,1.5-0.1c0.3-0.3,0.7-0.4,1-0.3
	c0.4,0.2,0.3,0.6,0.3,0.9c0.1,1,0.1,1.9,0.2,2.9c0,0.3,0.2,0.8-0.3,0.9c-0.6,0.1-0.7-0.2-0.9-0.6c-0.6-1.5-2-2.7-3.6-3.1
	c-0.8-0.2-1.6-0.2-2.3,0.1c-0.8,0.2-1.3,0.8-1.3,1.6c0,0.8,0.6,1.4,1.3,1.5c1.3,0.4,2.8,0.6,4.2,1c0.5,0.1,1,0.3,1.5,0.5
	c1.4,0.6,2.4,2,2.3,3.6c0,1.6-1,3.1-2.5,3.7c-1.9,0.8-4,0.8-5.9-0.2c-0.6-0.3-1.1-0.4-1.6,0.2c-0.2,0.4-0.7,0.6-1.2,0.4
	c-0.4-0.2-0.2-0.7-0.3-1c0-0.4,0-1,0-1.5L214,115.5z"/>
<path class="st2" d="M139,115.5c0-0.5,0-1.1,0-1.6c0-0.3-0.2-0.8,0.4-0.9s0.7,0.3,0.9,0.7c0.4,0.9,1,1.7,1.8,2.3
	c1.2,1.1,2.9,1.5,4.5,1c0.9-0.2,1.5-0.9,1.5-1.8c0-0.9-0.6-1.6-1.5-1.7c-1-0.2-2.1-0.4-3.1-0.6c-1.1-0.2-2.1-0.6-3-1.3
	c-1.1-0.8-1.7-2.2-1.4-3.5c0.2-1.4,1.1-2.5,2.4-2.9c1.8-0.8,3.8-0.7,5.5,0.1c0.5,0.3,0.9,0.3,1.3-0.1c0.3-0.3,0.7-0.4,1.1-0.3
	c0.4,0.2,0.2,0.6,0.3,0.9c0,0.9,0.1,1.9,0.1,2.8c0,0.3,0.3,0.8-0.3,0.9c-0.6,0.2-0.8-0.2-1-0.6c-0.5-1-1.2-1.9-2.1-2.5
	c-1.1-0.7-2.4-0.9-3.6-0.5c-0.8,0.1-1.4,0.8-1.5,1.6c0,0.8,0.6,1.4,1.3,1.5c0.8,0.2,1.7,0.4,2.5,0.6c1,0.2,1.9,0.4,2.9,0.8
	c1.6,0.5,2.6,2,2.6,3.7c0,1.7-1.2,3.3-2.8,3.8c-1.8,0.7-3.9,0.6-5.6-0.3c-0.6-0.3-1.1-0.4-1.6,0.2c-0.2,0.4-0.7,0.6-1.2,0.4
	c-0.5-0.2-0.2-0.7-0.3-1C139.1,116.8,139.1,116.1,139,115.5L139,115.5z"/>
<path class="st2" d="M72.5,105c1.9,0,3.7,0,5.5,0c0.7,0,1,0.2,1,0.9c0,1,0,2.1,0,3.1c0,0.3,0.1,0.7-0.4,0.8
	c-0.5,0.1-0.7-0.2-0.8-0.6c-0.6-2.3-3-3.7-5.3-3.2c-0.7,0.1-1.1,0.4-1,1.1c0,1,0,2,0,3c0,0.6,0.3,0.8,0.8,0.7c1-0.1,1.7-0.8,2-1.7
	c0.1-0.4,0.2-0.9,0.9-0.8s0.4,0.7,0.4,1.1c0,1.4,0,2.8,0,4.2c0,0.4,0.2,0.9-0.4,1c-0.7,0.1-0.7-0.3-0.8-0.8c-0.2-1-1.1-1.8-2.1-2
	c-0.5-0.1-0.8,0-0.8,0.6c0,1.2,0,2.4,0,3.6c0,0.6,0.3,0.9,0.9,0.9l1,0.1c0.4,0,0.5,0.3,0.4,0.6c0,0.2-0.1,0.4-0.4,0.5c0,0,0,0-0.1,0
	h-7.1c-0.3,0-0.5-0.2-0.5-0.5s0.2-0.4,0.5-0.5c1.5-0.2,1.5-0.3,1.5-1.8c0-2.7,0-5.3,0-7.9c0-0.9-0.3-1.3-1.2-1.3
	c-0.4,0-0.8,0.1-0.8-0.5s0.5-0.5,0.8-0.5L72.5,105L72.5,105z"/>
<path class="st2" d="M158.2,105c1.9,0,3.8,0,5.8,0c0.6,0,0.9,0.2,0.9,0.9c0,1.1,0.1,2.2,0.2,3.3c0,0.3,0.1,0.7-0.4,0.8
	c-0.5,0.1-0.6-0.2-0.7-0.6c-0.1-0.6-0.4-1.2-0.7-1.8c-0.3-0.6-0.8-1-1.3-1.3c-1.3-0.7-2-0.4-2,1.1c0,2.7,0,5.5,0,8.2
	c0,1.3,0,1.3,1.3,1.4h0.2c0.4,0,0.7,0,0.7,0.5c0,0.5-0.3,0.5-0.6,0.5h-6.8c-0.3,0-0.6-0.1-0.6-0.5c0-0.4,0.3-0.5,0.6-0.5
	c1.6-0.2,1.6-0.2,1.6-1.9c0-2.7,0-5.3,0-8c0-1.2-0.5-1.5-1.6-1c-1.1,0.5-1.9,1.6-2.2,2.8c-0.1,0.2-0.1,0.5-0.2,0.7s-0.5,0.4-0.8,0.3
	c-0.3-0.1-0.3-0.3-0.3-0.6c0.1-1.3,0.2-2.5,0.3-3.8c0-0.6,0.4-0.5,0.8-0.5L158.2,105z"/>
<path class="st1" d="M188,108.5c0-0.1,0-0.3,0-0.4c0.1-0.7-0.4-1.6,0.5-2.1c1.2-0.3,2.4-0.2,3.5,0.4c0.6,0.7,0.8,1.7,0.5,2.6
	c-0.1,0.6-0.6,1.1-1.2,1.3l-0.5,0.2C188.4,111.2,187.9,110.9,188,108.5z"/>
<path class="st1" d="M118.6,111.4c0-1.4,0-2.8,0-4.2c0-0.9,0.4-1.2,1.2-1.3c2-0.4,3.9,0.9,4.3,2.9c0,0.1,0,0.2,0,0.3
	c0.4,1.8,0.3,3.6-0.3,5.3c-0.7,1.9-2.7,2.9-4.6,2.4c-0.6-0.2-0.7-0.6-0.7-1.1C118.6,114.3,118.6,112.8,118.6,111.4z"/>
<path class="st1" d="M91.4,111.4c0,1.2-0.1,2.5-0.5,3.7c-0.2,1.2-1.3,2.2-2.5,2.2c-1.4,0.2-2.7-0.6-3.2-1.9c-1-2.4-1-5.1-0.2-7.5
	c0.3-1.4,1.6-2.3,3-2.2c1.4,0,2.6,0.9,3,2.2C91.3,109,91.5,110.2,91.4,111.4z"/>
<path class="st1" d="M177.2,111.4c0,1.3-0.2,2.7-0.6,3.9c-0.3,1.1-1.2,1.8-2.3,1.9c-1.2,0.2-2.4-0.3-3.1-1.3c-0.6-1-0.9-2.1-0.9-3.2
	c-0.2-1.7,0-3.4,0.5-5.1c0.4-1.3,1.7-2.1,3-2c1.3,0,2.4,0.8,2.8,2C177,108.9,177.2,110.2,177.2,111.4z"/>
<path class="st1" d="M107.9,111.3c0,1.2-0.2,2.5-0.5,3.7c-0.2,1.2-1.2,2.1-2.5,2.3c-1.4,0.2-2.7-0.5-3.3-1.8
	c-1.1-2.5-1.1-5.4-0.1-7.9c0.4-1.3,1.7-2,3-1.9c1.3,0,2.5,0.8,2.9,2.1C107.7,108.9,107.9,110.1,107.9,111.3z"/>
</svg>
