<?xml version="1.0" encoding="utf-8"?>
<!-- Generator: Adobe Illustrator 21.1.0, SVG Export Plug-In . SVG Version: 6.00 Build 0)  -->
<svg version="1.1" id="Layer_1" xmlns="http://www.w3.org/2000/svg" xmlns:xlink="http://www.w3.org/1999/xlink" x="0px" y="0px"
	 viewBox="0 0 250 250" style="enable-background:new 0 0 250 250;" xml:space="preserve">
<style type="text/css">
	.st0{fill:#0051A0;}
	.st1{fill:#EE3A43;}
	.st2{fill:#FFFFFF;}
</style>
<title>CR</title>
<polygon class="st0" points="8.2,166.7 5,184.5 223,184.5 226.2,166.7 8.2,166.7 "/>
<polygon class="st1" points="12.1,141.3 8.9,159 226.8,159 230,141.3 12.1,141.3 "/>
<path class="st0" d="M76.5,109.4h-0.2c-1.2,3-4.1,4.9-7.4,4.9H49.7c-11.2,0-14.1-6.2-12.2-15.2l3.9-18.5c1.9-8.9,7.4-15.2,18.6-15.2
	h19.3c4.8,0,6.3,1.4,6.6,5.2h0.2l2.3-5.2H113c-1.2,2-3.7,4.6-5.5,13l-7.6,35.8c-2.9,13.8-8.7,18.5-20.3,18.5H28.8l2.7-9.6h35.8
	c5.3,0,6.5-1.4,7.8-7.3L76.5,109.4L76.5,109.4z"/>
<path class="st2" d="M82.9,79c0.6-2.8,0-3.9-2.7-3.9h-9.6c-2.7,0-3.8,1.1-4.4,3.9l-4.6,21.9c-0.6,2.8,0,3.9,2.7,3.9h9.6
	c2.7,0,3.8-1.1,4.4-3.9L82.9,79z"/>
<path class="st0" d="M162.3,65.5c11.7,0,15.3,5,12.5,18.4l-4.5,21.3c-1.1,5-2,7.2-0.9,9.1h-25.7l-0.1-5.5h-0.2
	c-2.2,4.4-4.5,5.5-11.1,5.5h-11.8c-11,0-16.2-4.6-14.1-14.7l0.8-3.5c2.1-10.2,6.2-14.8,17.2-14.8h22.3c3.4,0,4.3-0.8,4.8-3.1
	c0.5-2.3-0.1-3.1-3.5-3.1h-34.3l2.6-9.6L162.3,65.5z"/>
<path class="st0" d="M226.2,80.1c11.2,0,11.8,5.7,10.8,11.6l-2.1,9.8c-1.4,6.2-6.5,12.9-17.4,12.9h-46.8l3.3-8.9h34
	c2.5,0,3.3-0.6,3.8-2.6l0.2-1c0.4-2-0.2-2.6-2.7-2.6h-19.7c-11.2,0-11.8-5.7-10.8-11.7l2-9.5c1.6-7.5,7.2-12.5,16.6-12.5H245l-2,8.9
	h-33.7c-2.4,0-3.5,0.6-3.7,1.8l-0.4,2.1c-0.2,1.1,0.6,1.8,2.9,1.8L226.2,80.1z"/>
<polygon class="st2" points="136.6,99.2 147.1,93.1 136.2,93.1 135.5,83.5 128.6,93.1 118.3,93.1 124.4,98.9 115.2,111.6 
	129.1,103.5 137.5,111.6 136.6,99.2 "/>
<path class="st0" d="M113.3,132.2H110l0.1-1.5c-1.3,1.3-3.2,2-5,1.9c-4,0-7.1-2.6-6.1-8c0.6-4.8,4.7-8.4,9.6-8.4
	c3.7,0,6.4,1.9,6.4,5.8H110c0-1.1-1-2-2.1-2c0,0-0.1,0-0.1,0c-2,0-3.3,1.8-3.8,4.5c-0.4,2.2,0,4.2,2.5,4.2c1.2,0,2.3-0.7,2.9-1.8
	h-2.1l0.6-3.4h7L113.3,132.2L113.3,132.2z"/>
<path class="st0" d="M122.4,132.1v-1.2c-1.3,1.1-2.9,1.6-4.5,1.5c-2.1,0-3.9-1.1-3.4-3.4c0.9-5.1,8.5-2.8,8.9-4.9
	c0.2-0.8-0.8-0.9-1.4-0.9c-0.8-0.1-1.5,0.4-1.8,1.1h-4.3c0.4-2.4,2.4-3.8,6.8-3.8c5.4,0,5.3,2,4.8,4.7l-0.9,5.3
	c-0.1,0.6-0.2,1,0.4,1.4v0.2L122.4,132.1z"/>
<path class="st2" d="M122.8,127.1c-1.6,0.7-3.5,0.4-3.7,1.8c-0.1,0.6,0.4,1,1.3,1C121.9,129.9,122.7,128.7,122.8,127.1L122.8,127.1z
	"/>
<path class="st0" d="M132,128.6c-0.1,0.4,0,0.8,0.3,1c0.3,0.2,0.7,0.4,1,0.3c0.7,0,1.5-0.2,1.6-1c0.3-1.8-6.8-0.4-6.1-4.8
	c0.5-2.9,3.7-3.7,6-3.7c2.3,0,5.3,0.6,5,3.6h-4.1c0-0.3-0.1-0.6-0.3-0.8c-0.2-0.2-0.5-0.3-0.9-0.3c-0.8,0-1.4,0.2-1.4,0.8
	c-0.3,1.6,7,0.5,6.3,4.8c-0.4,2.3-2.6,3.9-6.8,3.9c-2.6,0-5.3-0.8-5-3.8L132,128.6z"/>
<polygon class="st0" points="138.6,132.1 146.9,116.6 152.1,116.6 154.9,132.1 149.8,132.1 149.6,130.1 144.5,130.1 143.6,132.1 
	138.6,132.1 "/>
<polygon class="st2" points="148.6,121.3 146,126.8 149.3,126.8 148.6,121.3 "/>
<path class="st0" d="M157.2,120.8h4.1l-0.3,1.7c1-1.2,2.4-1.9,3.9-2c2,0,3,0.9,3.3,2.1c1-1.3,2.6-2.1,4.3-2.1c3.3,0,4,1.9,3.5,4.9
	l-1.2,6.7h-4.5l1.1-5.8c0.3-1.7,0.1-2.3-1.1-2.3c-1.2,0-1.8,1.1-2,2.5l-1,5.6h-4.5l1-5.8c0.3-1.7,0.1-2.3-1.1-2.3s-1.8,1.1-2,2.5
	l-1,5.6h-4.5L157.2,120.8L157.2,120.8z"/>
<path class="st0" d="M181.3,127.5c-0.2,1,0.3,1.9,1.3,2.2c0.2,0,0.4,0.1,0.5,0.1c0.7,0,1.4-0.4,1.9-1h4.3c-1.3,2.8-4.3,3.7-6.9,3.7
	c-3.6,0-6.1-2.1-5.5-5.9c0.7-3.6,3.8-6.2,7.5-6.1c4.2,0,6.2,2.9,5.5,7L181.3,127.5z"/>
<path class="st2" d="M185.8,125.2c0.2-0.9-0.4-1.8-1.3-1.9c-0.1,0-0.2,0-0.3,0c-1.2-0.1-2.3,0.8-2.4,2H185.8z"/>
<path class="st0" d="M191.8,120.8h4.1l-0.4,2.3l0,0c0.7-1.6,2.2-2.6,3.9-2.6c0.2,0,0.4,0,0.6,0l-0.8,4.5c-0.3-0.1-0.6-0.1-0.9-0.1
	c-1.8,0-2.9,0.9-3.3,3.3l-0.7,3.9h-4.5L191.8,120.8L191.8,120.8z"/>
<polygon class="st0" points="198.6,132.1 200.6,120.8 205.1,120.8 203.1,132.1 198.6,132.1 "/>
<polygon class="st0" points="201.4,116.2 205.9,116.2 205.3,119.4 200.8,119.4 201.4,116.2 "/>
<path class="st0" d="M213.4,125.2c0.1-0.4,0-0.8-0.3-1.2c-0.3-0.3-0.7-0.5-1.1-0.5c-1.7,0-2.3,1.7-2.5,3.1c-0.3,1.7,0.2,2.8,1.5,2.8
	c1,0,1.8-0.7,2-1.7h4.5c-1,3.4-4,4.7-7.1,4.7c-3.6,0-6.1-2-5.5-5.9c0.6-3.6,3.8-6.3,7.5-6.1c3,0,5.6,1.3,5.4,4.6L213.4,125.2z"/>
<path class="st0" d="M225.8,132.1v-1.2c-1.3,1.1-2.9,1.6-4.5,1.5c-2.1,0-3.9-1.1-3.4-3.4c0.9-5.1,8.5-2.8,8.9-4.9
	c0.2-0.8-0.8-0.9-1.4-0.9c-0.8-0.1-1.5,0.4-1.8,1.1h-4.2c0.4-2.4,2.4-3.8,6.8-3.8c5.4,0,5.3,2,4.8,4.7l-0.9,5.3
	c-0.1,0.6-0.2,1,0.4,1.4v0.2L225.8,132.1z"/>
<path class="st2" d="M226.2,127.1c-1.6,0.7-3.5,0.4-3.7,1.8c-0.1,0.6,0.4,1,1.3,1C225.3,129.9,226.1,128.7,226.2,127.1L226.2,127.1z
	"/>
</svg>
