<?xml version="1.0" encoding="utf-8"?>
<!-- Generator: Adobe Illustrator 21.1.0, SVG Export Plug-In . SVG Version: 6.00 Build 0)  -->
<svg version="1.1" id="Layer_1" xmlns="http://www.w3.org/2000/svg" xmlns:xlink="http://www.w3.org/1999/xlink" x="0px" y="0px"
	 viewBox="0 0 250 250" style="enable-background:new 0 0 250 250;" xml:space="preserve">
<style type="text/css">
	.st0{fill:#E03A3E;}
	.st1{fill:#00A677;}
	.st2{fill:#E7E7E7;}
	.st3{font-family:'MyriadPro-Regular';}
	.st4{font-size:4.8424px;}
</style>
<title>Coke_Dine</title>
<path class="st0" d="M236.3,107.7h-16.8c3.4,1.2,6.4,3.1,8.9,5.6c0.3,0.1,0.5,0.3,0.6,0.6l0,0c0.1,0,0.2,0.1,0.1,0.2
	c-0.1,0.1-0.3,0-0.3-0.1c-0.1-0.1-0.5-0.2-0.6-0.4H228c-4.1-1.9-8.7-2.4-13.2-1.4c-1.2,0.2-2.3,0.7-3.5,1c-0.1,0.3-0.4,0.2-0.6,0.3
	c-1,0.5-2,1.1-2.9,1.7c-5.5,3.9-7.8,10.9-5.7,17.3c2.8,8.9,14.5,12.3,21.9,6.7c2.7-1.8,4.1-5.1,3.6-8.3c-0.3-3.1-2.2-5.9-5-7.2
	c-2.5-1.2-5.3-1.7-8.1-1.4h-1c0.4-0.5,0.9-0.9,1.5-1.1c1.4-0.7,3-1.1,4.5-1.3c7.2-1.1,14,3.9,15.1,11.1c0.2,1.6,0.2,3.3-0.2,4.9
	c-0.8,4.1-3.2,7.8-6.7,10.2l-1,0.7v0.1h8.9c1.2,0,1.1,0.2,1.1-1.1c0-12.3,0-24.7,0-37c0-0.2,0-0.4,0-0.6
	C236.9,107.8,236.7,107.6,236.3,107.7z"/>
<path class="st1" d="M70.3,108.6c0-0.2,0-0.4,0-0.6s-0.1-0.5-0.4-0.5h-3.7c-0.3,0-0.4,0.1-0.4,0.4s0,0.4,0,0.7c0,4.2,0,8.4,0,12.6
	v0.9c-0.2,0-0.4-0.1-0.5-0.3l-3-3.4c-3.1-3.5-6.2-6.9-9.3-10.4c-0.3-0.4-0.8-0.6-1.3-0.6c-0.8,0-1.6,0-2.4,0c-1.3,0-1.1-0.1-1.1,1.1
	c0,7.6,0,15.2,0,22.8c0,0.2,0,0.4,0,0.6c0,0.2,0.1,0.5,0.5,0.5c0.8,0,1.7,0,2.5,0c1.5,0,1.5,0,1.5-1.5c0-4.9,0-9.8,0-14.6
	c-0.1-0.4,0-0.7,0.2-1l0.7,0.7l14.4,15.7c0.3,0.4,0.8,0.7,1.3,0.6c1.2-0.1,1,0.1,1-1C70.3,123.8,70.3,116.2,70.3,108.6z"/>
<path class="st1" d="M28.4,123c0-1.1,0-2.1,0-3.2c0-0.7,0-0.7-0.7-0.7c-2.4,0-4.8,0-7.3,0c-0.4-0.1-0.8,0.2-1,0.5
	c-0.5,0.9-1.1,1.8-1.6,2.7c-0.1,0.2-0.3,0.3-0.2,0.6h0.5h5.1c0.7,0,0.7,0,0.7,0.7c0,1.5,0,3,0,4.5c0,0.5-0.2,0.7-0.7,0.8
	c-2.5,0.5-5.2,0.3-7.6-0.4c-2.5-0.7-4.5-2.7-5.1-5.3c-0.5-1.8-0.5-3.7-0.1-5.5c0.6-3.6,3.4-6.4,7-7c3.4-0.8,7,0,9.7,2.2
	c0-1.4,0-2.7,0-4c0-0.4-0.2-0.8-0.6-0.8c-3.7-1.6-7.9-1.8-11.7-0.6c-5.5,1.3-9.5,6.2-9.7,11.9c-0.2,2.6,0.3,5.1,1.5,7.4
	c1.7,2.9,4.5,5,7.8,5.7c4.5,1.2,9.3,0.8,13.5-1.1c0.4-0.1,0.7-0.6,0.6-1C28.4,127.9,28.4,125.4,28.4,123z"/>
<path class="st1" d="M153.3,108.4c-1.6-0.4-3.2-0.7-4.8-0.7c-2.9-0.2-5.7,0-8.6,0c-0.8,0-0.8,0-0.8,0.8c0,3.8,0,7.7,0,11.5
	c0,3.8,0,7.7,0,11.7c0,0.7,0,0.7,0.7,0.7c2.6,0,5.2,0,7.8,0c1.9,0,3.9-0.3,5.7-0.8c3.3-0.8,5.8-3.3,6.5-6.6c0.8-3.2,0.8-6.4,0-9.6
	C159.3,112,156.7,109.2,153.3,108.4z M155.6,123.3c-0.7,3-2.4,5-6.4,5.5c-1.5,0.2-3.1,0.2-4.6,0.1c-0.9,0-0.9,0.1-0.9-0.9
	c0-1.3,0-2.6,0-4c0-1.3,0-2.6,0-4c0-2.7,0-5.4,0-8.1c0-0.7,0-0.7,0.7-0.8c1.7-0.1,3.5,0,5.2,0.2c2.9,0.2,5.4,2.4,5.9,5.3
	C156.1,118.8,156.1,121.1,155.6,123.3L155.6,123.3z"/>
<path class="st1" d="M93.9,116.5c0-2.5,0-5.1,0-7.7c0-0.2,0-0.4,0-0.6c0-0.2-0.1-0.5-0.5-0.4c-1.3,0-2.5,0-3.8,0
	c-0.3,0-0.5,0.1-0.4,0.5c0,0.3,0,0.5,0,0.8c0,4.9,0,9.8,0,14.6c0.1,2-1.1,3.9-2.9,4.8c-2.1,1.2-4.7,1.2-6.8,0.1
	c-1.4-0.7-2.5-2-2.8-3.5c-0.1-0.5-0.1-1-0.1-1.5c0-4.9,0-9.8,0-14.6c0-1.1,0.2-1-1-1h-2.8c-0.8,0-0.8-0.1-0.8,0.8
	c0,5.3,0,10.5,0,15.8c0,3.9,2.5,7.3,6.1,8.6c2.6,0.9,5.3,1,7.9,0.4c4.6-0.8,8-4.8,7.9-9.5C93.9,121.3,94,118.9,93.9,116.5z"/>
<path class="st1" d="M131.6,121.5c-0.4-0.6-0.4-0.6,0.1-1.1c0.7-0.6,1.3-1.3,1.8-2.1c0.9-1.4,1.3-3.2,0.8-4.9
	c-0.9-3.2-3.7-5.5-7.1-5.6c-2.7,0.1-5.5,0-8.2,0c-1.2,0-1-0.1-1,1c0,7.5,0,15,0,22.5c0,0.2,0,0.4,0,0.6c0,0.4,0.2,0.5,0.6,0.5
	c0.9,0,1.7,0,2.6,0c1.5,0,1.5,0,1.5-1.5c0-2.7,0-5.4,0-8c0-0.7,0-0.7,0.7-0.7s1.7,0,2.5,0c0.4,0,0.8,0.2,1,0.6
	c0.6,1.1,1.3,2.2,2,3.3l3.5,5.8c0.2,0.3,0.3,0.6,0.7,0.6c1.6,0,3.2,0,5,0l-2.2-3.7L131.6,121.5z M129.4,117.2c-0.4,0.6-1,1-1.7,1.2
	c-0.8,0.2-1.6,0.4-2.5,0.3c-0.4,0-0.8,0.1-1,0.5c-0.4,0.6-0.9,1.3-1.4,1.8l-0.2-0.1c0-1.2,0-2.4,0-3.6c0-1.8,0-3.7,0-5.5
	c0-0.5,0.1-0.7,0.6-0.7c1.2,0,2.5,0,3.7,0.2c2,0.3,3.4,2.1,3.1,4.1C130,116.1,129.8,116.7,129.4,117.2L129.4,117.2z"/>
<path class="st1" d="M112.2,132.5c1.5,0,3,0,4.6,0c0-0.3-0.1-0.6-0.3-0.9l-4.3-11.1l-4.8-12.1c-0.3-0.8-0.3-0.8-1.2-0.8
	c-0.8,0-2.1,0-3.1,0c-0.5-0.1-0.9,0.2-1,0.7c-3.1,7.9-6.1,15.7-9.2,23.6c-0.1,0.2-0.2,0.4,0,0.7c1.3,0,2.5,0,3.7,0
	c0.5,0.1,0.9-0.2,1-0.7c0.6-1.5,1.2-3.1,1.8-4.6c0.3-0.7,0.3-0.7,1.1-0.7h7.8c0.8,0,0.8,0,1.1,0.8c0.6,1.5,1.2,3,1.7,4.5
	C111.4,132.2,111.8,132.5,112.2,132.5z M101.1,123l3.6-9.3l3.5,9.3H101.1z"/>
<path class="st1" d="M46.2,128.6H36.1c-0.7,0-0.7,0-0.7-0.7c0-1.6,0-3.2,0-4.8c0-0.6-0.3-1.4,0.1-1.8c0.4-0.4,1.3-0.1,1.9-0.2
	c2,0,3.9,0,5.9,0c0.7,0,0.7,0,0.7-0.6c0-0.8,0-1.7,0-2.5c0-0.5-0.2-0.6-0.7-0.6c-1.8,0-3.6,0-5.4,0c-0.4,0-0.7,0.1-0.9,0.4
	c-0.5,0.5-0.9,1.1-1.5,1.7c0-0.1-0.1-0.3-0.1-0.4c0-2.4,0-4.8,0-7.2c0-0.5,0.2-0.6,0.7-0.6c2.2,0,4.4,0,6.6,0c0.7,0,1.5,0,2.2,0
	c0.4,0,0.6-0.1,0.6-0.6c0-0.7,0-1.4,0-2.1c0-1.2,0-1-1-1H31.8c-1.1,0-1-0.1-1,1.1c0,7.6,0,15.2,0,22.8c0,0.1,0,0.3,0,0.4
	c0,0.7,0,0.7,0.7,0.7h0.2c4.1,0,8.1,0,12.2,0c0.5,0.1,1.1-0.2,1.3-0.7c0.4-0.8,0.9-1.6,1.4-2.4c0.1-0.2,0.4-0.4,0.2-0.7L46.2,128.6z
	"/>
<path class="st0" d="M193.8,132.6c-0.4-2.8-0.4-5.7,0.1-8.5c0.5-3.9,2.3-7.5,4.9-10.3c0.5-0.6,1.1-1.1,1.7-1.7
	c0.2-0.1,0.3-0.4,0.2-0.6c0,0,0-0.1-0.1-0.1c-0.6-1-1-2-1.3-3.1c-0.1-0.5-0.3-0.6-0.8-0.6c-2.1,0-4.3,0-6.4,0c-0.7,0-0.7,0-0.8,0.7
	c0,0.2,0,0.3,0,0.5c0,12.3,0,24.6,0,37c0,0.2,0,0.3,0,0.5c0,0.4,0.1,0.6,0.5,0.6h11.9l0.1-0.2c-1.1-0.7-2.2-1.5-3.2-2.3
	C197.1,141.5,194.6,137.3,193.8,132.6z"/>
<path class="st1" d="M184.6,119.7c-1-0.5-2-1-3-1.4c-0.9-0.4-1.9-0.7-2.8-1.1c-1.3-0.6-2-2.1-1.7-3.5c0.1-1.3,1.1-2.5,2.4-2.7
	c1.2-0.3,2.5-0.3,3.7,0.1c1.3,0.4,2.6,1,3.6,1.9c0-1.4,0-2.5,0-3.7c0-0.3-0.2-0.6-0.5-0.7c-0.6-0.2-1.1-0.5-1.7-0.6
	c-2.9-1-6.1-0.8-8.8,0.6c-2.4,1.1-3.8,3.5-3.6,6.1c0,2.5,1.5,4.8,3.8,5.8c0.4,0.2,0.8,0.3,1.2,0.5c0.8,0.3,1.6,0.6,2.4,0.9
	c0.9,0.3,1.7,0.7,2.4,1.3c1.5,1.1,1.7,3.2,0.6,4.7c-0.3,0.3-0.6,0.6-1,0.9c-0.4,0.2-0.8,0.4-1.3,0.5c-2.2,0.6-4.6,0.2-6.5-1
	c-0.5-0.3-1-0.7-1.6-1.1c0,1.3,0,2.5,0,3.7c0,0.4,0.2,0.8,0.6,0.8c1.7,0.7,3.6,1.1,5.4,1.4c2.3,0.3,4.6-0.2,6.6-1.4
	C189,129,189.4,122.2,184.6,119.7z"/>
<path class="st1" d="M167.2,131.5c0-7.6,0-15.2,0-22.8c0-0.2,0-0.4,0-0.6s-0.1-0.4-0.4-0.4h-4.2c-0.3,0-0.4,0.1-0.4,0.4
	c0,0.3,0,0.4,0,0.7c0,3.7,0,7.5,0,11.2v11.2c0,0.2,0,0.5,0,0.7s0.1,0.5,0.5,0.5c1.3,0,2.7,0,4,0c0.4,0,0.5-0.2,0.5-0.5
	C167.2,131.8,167.2,131.6,167.2,131.5z"/>
<path class="st1" d="M211.3,113.1c0.1-1.4,0.1-2.8-0.2-4.1c-0.4-2.7-2.5-4.9-5.2-5.5c-1.7-0.4-3.5-0.6-5.3-0.7
	c-0.6-0.1-1.1-0.1-1.7-0.1c-0.1,0.2-0.1,0.5,0,0.7c0.6,2.2,1.3,4.3,2.2,6.4c0.8,2.2,2.9,3.7,5.2,3.7c1.3,0.1,2.6,0,3.8-0.2
	C210.6,113.1,211,113,211.3,113.1z"/>
<path class="st1" d="M43.5,140.7c0-0.2,0-0.6-0.4-0.6c-0.4-0.1-0.9-0.1-1.3,0c-0.4,0.1-0.3,0.6-0.5,0.9c-0.4,0.9-0.8,1.9-1.3,2.8
	c-0.4-1-0.7-1.9-1-2.8c-0.4-0.9-0.1-0.9-1.3-0.9h-0.2c-0.5-0.1-0.7,0.1-0.8,0.6c-0.2,1.8-0.5,3.5-0.8,5.3c-0.2,1.2-0.2,1.2,1,1.2
	c0.6,0,0.6,0,0.8-0.7l0.4-3.1c0.2,0.1,0.3,0.4,0.4,0.6c0.3,0.9,0.6,1.7,1,2.6c0.1,0.3,0.1,0.6,0.5,0.6s0.5-0.3,0.6-0.6
	c0.4-0.9,0.7-1.7,1.1-2.5c0.1-0.2,0.2-0.5,0.4-0.6c0.1,0.8,0.2,1.6,0.4,2.3c0.2,1.6,0.3,1.6,1.9,1.4c0.2-0.4-0.1-0.8-0.1-1.3
	C44.1,144.1,43.8,142.4,43.5,140.7z"/>
<path class="st1" d="M101.9,141.2c-0.2-1.1-0.1-1.1-1.3-1.1c-0.5-0.1-0.9,0.2-1,0.7c-0.4,1-0.8,2-1.3,3.1c-0.4-1.2-0.9-2.2-1.3-3.3
	c-0.1-0.4-0.3-0.5-0.7-0.5c-0.2,0-0.5,0-0.7,0c-0.4,0-0.6,0.1-0.6,0.5c-0.2,1.3-0.5,2.7-0.7,4c-0.2,0.8-0.3,1.6-0.4,2.5
	c0.4,0.1,0.8,0.1,1.2,0.1c0.5,0,0.7-0.2,0.7-0.6c0.1-1,0.3-2.1,0.4-3.2c0.3,0.3,0.4,0.6,0.5,1c0.4,0.8,0.7,1.7,1,2.5
	c0.1,0.2,0.3,0.4,0.5,0.4c0.2,0,0.4-0.2,0.5-0.4c0.1-0.2,0.2-0.5,0.3-0.7l1.1-2.9h0.2c0.1,0.9,0.2,1.8,0.3,2.8
	c0.1,1.1,0.1,1.1,1.3,1.1c0.7,0,0.7,0,0.6-0.8C102.4,144.6,102.1,142.9,101.9,141.2z"/>
<path class="st1" d="M146.7,140.1c-0.4,0-0.9,0-1.3,0c-0.6-0.1-1.3,0.2-1.6,0.8c-0.4,0.7-1,1.3-1.5,2c-0.1-0.1-0.1-0.1-0.1-0.2
	c0-0.6,0-1.2,0-1.7c0-0.8,0-0.8-0.8-0.8c-0.1,0-0.3,0-0.4,0c-0.5-0.1-0.7,0.2-0.6,0.6c0,1.8,0,3.5,0,5.3c0,1.2-0.3,1.1,1.2,1.1
	c0.7,0,0.7,0,0.7-0.7s0-1.4,0-2.2c0.7,0.7,1.4,1.5,2.1,2.4c0.2,0.2,0.3,0.4,0.6,0.4h1.8c0-0.4-0.2-0.5-0.3-0.6
	c-0.6-0.8-1.3-1.6-1.9-2.3c-0.6-0.8-0.7-0.5,0-1.4L146.7,140.1z"/>
<path class="st1" d="M131.4,142.6c0.2-1.1-0.5-2.3-1.6-2.5c-0.2,0-0.4-0.1-0.5,0c-0.7,0-1.5,0-2.2,0c-0.7,0-0.7,0-0.7,0.7
	c0,1.7,0,3.5,0,5.2c0,1.3-0.3,1.1,1.2,1.2c0.5,0,0.7-0.1,0.7-0.6c0-0.5,0-1.1,0-1.7c0.5,0.6,1,1.2,1.4,1.9c0.1,0.2,0.3,0.4,0.6,0.4
	h1.9l-2.2-2.9C130.7,144,131.3,143.4,131.4,142.6z M128.9,143.2c-0.5,0-0.4,0.6-0.8,0.9c0-0.8,0-1.5,0-2.1c0-0.3,0.2-0.5,0.5-0.4
	c0.5,0,0.9,0.3,1,0.8C129.7,142.7,129.4,143.1,128.9,143.2C129,143.1,129,143.1,128.9,143.2L128.9,143.2z"/>
<path class="st1" d="M114,140.1c-0.4,0-0.8,0.2-0.9,0.7c-0.4,1.3-0.9,2.5-1.4,3.7l-1,2.7h1.6c0.2,0,0.4-0.1,0.5-0.4c0,0,0,0,0,0
	c0.1-0.9,0.6-1,1.4-0.9c0.3,0,0.6,0,1,0c0.3-0.1,0.6,0.1,0.7,0.4c0,0,0,0,0,0c0.3,0.8,0.3,0.8,1.1,0.8c0.4,0,0.7,0,1.1-0.1l-2.2-5.7
	C115.3,140,115.3,140.1,114,140.1z M113.7,144.4c0.1-0.6,0.3-1.2,0.6-1.8c0.4,0.5,0.6,1.2,0.6,1.8
	C114.5,144.5,114.1,144.5,113.7,144.4z"/>
<path class="st1" d="M24.9,140.1c-0.5-0.1-1.1,0-1.6,0.1c-0.4,0.1-0.4,0.7-0.5,1.1c-0.2,0.4-0.2,0.4-0.3,0.6l-2,5.3H22
	c0.3,0,0.5,0,0.6-0.4c0.1-0.9,0.7-1,1.4-0.9c0.3,0,0.6,0,1,0c0.4,0,0.5,0.1,0.6,0.5c0.3,0.8,0.3,0.8,1.3,0.8c0.3,0,0.6,0.1,1-0.1
	l-2.5-6.5C25.3,140.3,25.2,140.1,24.9,140.1z M23.6,144.4c0.1-0.6,0.3-1.2,0.6-1.8c0.3,0.6,0.5,1.2,0.7,1.8
	C24.5,144.5,24,144.5,23.6,144.4L23.6,144.4z"/>
<path class="st1" d="M157.6,145.6c-0.6,0-0.5-0.3-0.5-0.7c0-0.4,0.1-0.6,0.5-0.6s0.7,0,1.1,0c0.1,0,0.3,0,0.3-0.1
	c0.1-0.4,0.1-0.9,0-1.3c-0.1-0.3-0.4-0.2-0.7-0.2c-0.2,0-0.6,0-0.9,0s-0.4-0.3-0.4-0.6s0-0.6,0.4-0.6c0.4,0,0.8,0,1.3,0
	s0.4-0.1,0.4-0.4s0-0.4,0-0.7c0-0.2-0.1-0.5-0.5-0.5c-1,0-2,0-3,0c-0.3,0-0.4,0.1-0.4,0.5c0,2,0,4.1,0,6.1c0,0.4,0.2,0.5,0.6,0.5
	c0.6,0,1.3,0,1.8,0c1.5,0,1.5,0,2.1-1.6C158.9,145.6,158.2,145.6,157.6,145.6z"/>
<path class="st1" d="M184.5,143.1c-0.4-0.2-0.8-0.3-1.2-0.4c-0.4-0.2-0.7-0.3-0.5-0.8c0.1-0.4,0.5-0.4,0.9-0.4
	c0.4,0.1,0.7,0.2,1.1,0.3l0.6-1.3c-0.9-0.6-2-0.7-3-0.4c-0.9,0.3-1.5,1.3-1.5,2.3c0,1,0.4,1.4,1.5,1.7c0.3,0.1,0.6,0.2,0.9,0.3
	c0.3,0.2,0.6,0.4,0.5,0.8s-0.5,0.5-0.9,0.5c-0.5-0.1-1-0.3-1.4-0.6c-0.2,0.4-0.4,0.7-0.6,1c-0.2,0.3-0.1,0.4,0.1,0.6
	c1.2,0.8,2.8,0.8,4-0.1c0.9-0.7,1.1-2,0.4-2.9C185.1,143.5,184.8,143.2,184.5,143.1z"/>
<path class="st1" d="M11.4,141.6H12c0.9,0,0.9,0,0.8-0.9s0-0.7-0.7-0.7H9.6c-0.7,0-0.7,0-0.7,0.7c0,1.8,0,3.6,0,5.4
	c0,0.9-0.2,1,0.9,1s0.9,0,0.9-0.9c0-0.1,0-0.3,0-0.4c0-0.5-0.2-1.1,0.1-1.4c0.3-0.3,0.9-0.1,1.3-0.1h0.3c0.2,0,0.2-0.1,0.2-0.2
	c0.3-0.9,0-1.3-1-1.3c-0.2,0-0.4,0-0.6,0c-0.2,0-0.4-0.2-0.4-0.5C10.7,141.7,10.8,141.6,11.4,141.6z"/>
<path class="st1" d="M80.1,140.1c-0.4,0-0.8,0.2-0.9,0.5c-0.3,0.5-0.7,0.9-1,1.4c-0.2-0.1-0.4-0.2-0.4-0.4c-0.3-1.1-1.5-1.7-2.6-1.4
	c-0.1,0-0.2,0.1-0.3,0.1c0.7,1,1.3,1.9,2,2.9c0.3,0.4,0.5,1,0.5,1.5c0,0.7,0,1.4,0,2.1c0,0.2,0,0.4,0.3,0.4s0.8,0,1.3,0
	c0.2,0,0.3-0.2,0.3-0.3c0-0.2,0-0.4,0-0.6c-0.3-1.6,0.3-3.3,1.4-4.5c0.4-0.5,0.8-1.1,1.2-1.7C81,140.1,80.5,140.1,80.1,140.1z"/>
<path class="st1" d="M172.3,140.5c0-0.3-0.1-0.4-0.4-0.4h-3.8c-0.2,0-0.4,0-0.4,0.2c-0.1,0.4-0.1,0.8,0,1.1c0.1,0.3,0.5,0.2,0.8,0.2
	c0.5,0,0.6,0.1,0.6,0.6c0,0.7,0,1.4,0,2.1c0,0.7,0,1.1,0,1.6c0,1.3-0.2,1.1,1.3,1.2c0.5,0,0.7-0.2,0.6-0.7c0-1.4,0-2.8,0-4.2
	c0-0.7,0-0.7,0.7-0.7c0.7,0,0.7,0,0.7-0.8C172.3,140.7,172.3,140.6,172.3,140.5z"/>
<path class="st1" d="M66.4,145.6c-0.4,0-0.5-0.2-0.5-0.6c0-1.3,0-2.5,0-3.8c0-1.3,0.2-1.2-1.3-1.2h-0.1c-0.4,0-0.5,0.1-0.5,0.5
	c0,2,0,4.1,0,6.1c0,0.4,0.2,0.5,0.5,0.5h2c1.5,0,1.5,0,2.1-1.6C67.7,145.6,67,145.6,66.4,145.6z"/>
<path class="st1" d="M169.4,113.6c0.5,0.1,1-0.2,1.2-0.7c0.7-1.3,1.5-2.5,2.2-3.8c0.2-0.4,0.5-0.8,0.8-1.4c-0.9,0-1.7,0-2.5,0
	c-0.4-0.1-0.7,0.2-0.8,0.5c-0.5,1.6-1.1,3.1-1.7,4.7c-0.1,0.2-0.3,0.4,0,0.7C168.9,113.6,169.1,113.6,169.4,113.6z"/>
<path class="st1" d="M54.9,143.7c0-0.8,0-1.6,0-2.4c0-1.4,0.2-1.2-1.2-1.2c-0.6,0-0.6,0-0.6,0.7c0,1.9,0,3.7,0,5.6
	c0,0.7,0,0.7,0.7,0.8c0.2,0,0.3,0,0.5,0c0.5,0,0.6-0.1,0.6-0.6C54.9,145.6,54.9,144.6,54.9,143.7z"/>
<path class="st2" d="M211.3,113.1L211.3,113.1L211.3,113.1L211.3,113.1z"/>
<path class="st2" d="M211.4,113.1L211.4,113.1L211.4,113.1z"/>
<path class="st1" d="M242.1,147c-1.6,0-2.8-1.3-2.8-2.8s1.3-2.8,2.8-2.8s2.8,1.3,2.8,2.8S243.7,147,242.1,147L242.1,147z
	 M242.1,141.7c-1.4,0-2.5,1.1-2.5,2.5c0,1.4,1.1,2.5,2.5,2.5c1.4,0,2.5-1.1,2.5-2.5C244.7,142.8,243.5,141.7,242.1,141.7
	C242.1,141.7,242.1,141.7,242.1,141.7L242.1,141.7z"/>
<text transform="matrix(1 0 0 1 240.8223 145.623)" class="st1 st3 st4">R</text>
</svg>
