<?xml version="1.0" encoding="utf-8"?>
<!-- Generator: Adobe Illustrator 21.1.0, SVG Export Plug-In . SVG Version: 6.00 Build 0)  -->
<svg version="1.1" id="Layer_1" xmlns="http://www.w3.org/2000/svg" xmlns:xlink="http://www.w3.org/1999/xlink" x="0px" y="0px"
	 viewBox="0 0 250 250" style="enable-background:new 0 0 250 250;" xml:space="preserve">
<style type="text/css">
	.st0{fill:#505050;}
	.st1{fill:#C80000;}
	.st2{fill:none;}
</style>
<title>Grocery</title>
<path class="st0" d="M238.5,98.8L238.5,98.8c-0.1-1.9,1.3-3.6,3.3-3.8c1.9-0.1,3.6,1.3,3.8,3.3c0,0.1,0,0.3,0,0.4l0,0
	c0,2-1.5,3.6-3.5,3.7C240,102.4,238.4,100.8,238.5,98.8z M245.1,98.8L245.1,98.8c0-1.7-1.4-3.1-3.1-3.1c-1.7,0-3.1,1.4-3.1,3.1
	c0,0,0,0,0,0l0,0c-0.1,1.7,1.3,3.2,3,3.2c0,0,0.1,0,0.1,0C243.7,102,245.1,100.6,245.1,98.8C245.1,98.8,245.1,98.8,245.1,98.8
	L245.1,98.8z M240.5,96.8h1.7c0.9,0,1.5,0.4,1.5,1.3c0,0.5-0.3,1-0.8,1.2l0.9,1.3h-1.1l-0.8-1.2h-0.5v1.3h-0.9L240.5,96.8z
	 M242.2,98.6c0.3,0.1,0.6-0.1,0.7-0.4c0.1-0.3-0.1-0.6-0.4-0.7c-0.1,0-0.2,0-0.2,0h-0.8v1L242.2,98.6L242.2,98.6z"/>
<path class="st0" d="M67.2,146.4h11.9v2.6H70v4.3h8v2.6h-8v6.4h-2.8V146.4z"/>
<path class="st0" d="M80.3,154.3L80.3,154.3c-0.1-4.5,3.5-8.2,8.1-8.3c0.1,0,0.2,0,0.3,0c4.5-0.1,8.2,3.4,8.3,7.9c0,0.1,0,0.2,0,0.3
	v0.1c0,4.5-3.6,8.2-8.1,8.2c-0.1,0-0.2,0-0.3,0c-4.4,0.2-8.1-3.3-8.3-7.7C80.3,154.7,80.3,154.5,80.3,154.3z M94,154.3L94,154.3
	c0.1-3-2.2-5.6-5.3-5.7c0,0-0.1,0-0.1,0c-2.9,0-5.3,2.4-5.3,5.3c0,0.1,0,0.2,0,0.3v0.1c-0.1,3,2.3,5.5,5.3,5.6c0,0,0.1,0,0.1,0
	c2.9,0,5.3-2.4,5.3-5.3C94,154.6,94,154.5,94,154.3z"/>
<path class="st0" d="M99.1,154.3L99.1,154.3c-0.1-4.5,3.5-8.2,8.1-8.3c0.1,0,0.2,0,0.3,0c4.5-0.1,8.2,3.4,8.3,7.9c0,0.1,0,0.2,0,0.3
	v0.1c0,4.5-3.6,8.2-8.1,8.2c-0.1,0-0.2,0-0.3,0c-4.4,0.2-8.1-3.3-8.3-7.7C99.1,154.7,99.1,154.5,99.1,154.3z M112.8,154.3
	L112.8,154.3c0.1-3-2.2-5.6-5.3-5.7c0,0-0.1,0-0.1,0c-2.9,0-5.3,2.4-5.3,5.3c0,0.1,0,0.2,0,0.3v0.1c-0.1,3,2.3,5.5,5.3,5.6
	c0,0,0.1,0,0.1,0c2.9,0,5.3-2.4,5.3-5.3C112.8,154.5,112.8,154.4,112.8,154.3L112.8,154.3z"/>
<path class="st0" d="M118.3,146.4h6c5,0,8.5,3.5,8.5,7.9v0.1c0,4.4-3.6,8-8,8c-0.2,0-0.3,0-0.5,0h-6V146.4z M121.1,148.9v10.8h3.1
	c2.9,0.2,5.4-2,5.6-4.9c0-0.2,0-0.3,0-0.5v-0.1c0.1-2.9-2.2-5.3-5-5.4c-0.2,0-0.3,0-0.5,0H121.1z"/>
<path class="st0" d="M141.8,160l1.6-2c1.3,1.3,3.1,2,5,2c1.7,0,2.8-0.8,2.8-2v-0.1c0-1.2-0.6-1.7-3.6-2.4c-3.4-0.8-5.3-1.8-5.3-4.8
	v0.1c0-2.7,2.3-4.6,5.4-4.6c2.1,0,4.2,0.7,5.8,2l-1.5,2.1c-1.2-1-2.7-1.6-4.3-1.6c-1.6,0-2.6,0.9-2.6,1.9v0.1c0,1.3,0.7,1.8,3.8,2.5
	c3.4,0.8,5.1,2,5.1,4.7l0,0c0,3-2.3,4.8-5.7,4.8C145.9,162.5,143.6,161.6,141.8,160z"/>
<path class="st0" d="M157,146.4h11.9v2.5h-9v4.1h8v2.5h-8v4.3h9v2.5H157V146.4L157,146.4z"/>
<path class="st0" d="M172,146.4h7.1c1.7-0.1,3.3,0.5,4.6,1.6c0.9,0.9,1.4,2.2,1.3,3.5v0.1c0,2.3-1.5,4.3-3.8,4.9l4.3,6h-3.3
	l-3.9-5.6h-3.5v5.5h-2.8L172,146.4L172,146.4z M178.9,154.3c2,0,3.3-1,3.3-2.7v-0.1c0-1.7-1.3-2.7-3.3-2.7h-4.1v5.3L178.9,154.3
	L178.9,154.3z"/>
<path class="st0" d="M186.2,146.4h3.1l4.8,12.2l4.8-12.2h3.1l-6.6,16h-2.5L186.2,146.4z"/>
<path class="st0" d="M204.2,146.4h2.8v15.9h-2.8V146.4z"/>
<path class="st0" d="M209.7,154.3L209.7,154.3c-0.1-4.5,3.4-8.2,7.9-8.3c0.1,0,0.2,0,0.4,0c2.3-0.1,4.6,0.8,6.3,2.5l-1.8,2
	c-1.2-1.2-2.8-1.9-4.5-2c-2.9,0-5.3,2.5-5.3,5.4c0,0.1,0,0.2,0,0.2v0.1c-0.2,2.9,2.1,5.5,5,5.6c0.1,0,0.2,0,0.2,0
	c1.7,0,3.4-0.7,4.5-2l1.8,1.8c-1.6,1.9-4,2.9-6.4,2.8c-4.4,0.1-8.1-3.4-8.1-7.8C209.7,154.6,209.7,154.5,209.7,154.3z"/>
<path class="st0" d="M227.2,146.4H239v2.5h-9v4.1h8v2.5h-8v4.3h9.1v2.5h-11.9L227.2,146.4z"/>
<path class="st1" d="M178.2,98.3c-10.4,0-18.9,8.5-18.9,18.9s8.5,18.9,18.9,18.9c10.4,0,18.9-8.5,18.9-18.9
	C197,106.7,188.6,98.3,178.2,98.3z M178.2,125.7c-4.7,0-8.5-3.8-8.5-8.5c0-4.7,3.8-8.5,8.5-8.5c4.7,0,8.4,3.8,8.5,8.5
	C186.7,121.9,182.9,125.7,178.2,125.7C178.2,125.7,178.2,125.7,178.2,125.7L178.2,125.7z"/>
<path class="st1" d="M220.2,98.3c-10.4,0-18.9,8.5-18.9,18.9v18.1h10.4v-18c0.2-4.7,4.2-8.4,8.9-8.2c4.5,0.2,8,3.7,8.2,8.2v18.1
	h10.4v-18.1C239.2,106.7,230.7,98.3,220.2,98.3z"/>
<path class="st2" d="M72.6,108.5c-4.7,0-8.5,3.8-8.5,8.5c0,4.7,3.8,8.5,8.5,8.5c4.7,0,8.5-3.8,8.5-8.5
	C81.1,112.3,77.3,108.5,72.6,108.5z"/>
<path class="st2" d="M72.6,108.5c-4.7,0-8.5,3.8-8.5,8.5c0,4.7,3.8,8.5,8.5,8.5c4.7,0,8.5-3.8,8.5-8.5
	C81.1,112.3,77.3,108.5,72.6,108.5z"/>
<path class="st1" d="M72.6,98.2c-10.4,0-18.9,8.5-18.8,18.9s8.5,18.9,18.9,18.8c10.4,0,18.8-8.5,18.8-18.9
	C91.5,106.6,83,98.2,72.6,98.2C72.6,98.2,72.6,98.2,72.6,98.2z M72.6,125.6c-4.7,0-8.5-3.8-8.5-8.5s3.8-8.5,8.5-8.5
	c4.7,0,8.5,3.8,8.5,8.5C81.1,121.8,77.3,125.6,72.6,125.6L72.6,125.6z"/>
<path class="st1" d="M114.4,98.3c-10.4,0-18.9,8.4-18.9,18.9c0,0,0,0,0,0.1v18.1h10.4v-18.1c0-4.7,3.8-8.5,8.5-8.5
	c0.6,0,1.3,0,1.9,0.1V98.4C115.7,98.4,115,98.3,114.4,98.3z"/>
<path class="st1" d="M145.1,87.7v12.5c-2.7-1.3-5.6-2-8.5-2c-10.4,0-18.9,8.5-18.9,18.9c0,10.4,8.5,18.9,18.9,18.9
	c10.4,0,18.8-8.4,18.9-18.7l0,0V87.7H145.1z M136.6,125.6c-4.7,0-8.5-3.8-8.5-8.5s3.8-8.5,8.5-8.5c4.7,0,8.5,3.8,8.5,8.5
	C145.1,121.8,141.3,125.6,136.6,125.6L136.6,125.6z"/>
<path class="st1" d="M48.6,117.1c0-3.1,0.6-6.2,1.9-9.1H29v10.4h10.1v5c-2.6,1.6-5.6,2.4-8.7,2.3c-7.5,0.1-13.7-6-13.7-13.5
	c-0.1-7.3,5.7-13.4,13-13.7c4.3-0.2,8.4,1.3,11.6,4.2l0.5,0.5l7.1-8.5l-0.5-0.5C43,89.7,37.7,87.9,30,87.9
	C16.7,87.7,5.7,98.3,5.5,111.6c0,0.2,0,0.4,0,0.6c0,13.9,10.3,24.1,24.7,24.1c7.8-0.2,15.3-3.3,21.1-8.5l0.1-0.1
	C49.6,124.5,48.6,120.8,48.6,117.1z"/>
</svg>
