<?xml version="1.0" encoding="utf-8"?>
<!-- Generator: Adobe Illustrator 21.1.0, SVG Export Plug-In . SVG Version: 6.00 Build 0)  -->
<svg version="1.1" id="Layer_1" xmlns="http://www.w3.org/2000/svg" xmlns:xlink="http://www.w3.org/1999/xlink" x="0px" y="0px"
	 viewBox="0 0 250 250" style="enable-background:new 0 0 250 250;" xml:space="preserve">
<style type="text/css">
	.st0{fill:#ED1C24;}
	.st1{fill:#FFFFFF;}
	.st2{fill:#020102;}
</style>
<title>Grocery</title>
<path class="st0" d="M231.1,123.1c0,10,0,20,0,30.1c-0.1,1.9-0.4,3.8-1,5.6c-1.3,4.7-5.2,8.1-10,8.9c-9.3,1.9-18.8,3.8-28.3,5.3
	c-7.8,1.3-15.6,2.4-23.4,3.3s-16.1,1.7-24.1,2.3c-12.3,1-24.6,1.3-36.9,0.8c-7-0.2-14-0.7-21-1.3c-6.4-0.5-12.8-1.1-19.2-1.9
	c-5.8-0.7-11.7-1.4-17.5-2.2s-11.9-1.7-17.8-2.7c-5.9-0.9-11.6-2.6-17.1-5.1c-5.3-2.5-8.2-6.7-8.3-12.5c-0.1-5.5-0.1-11-0.1-16.4
	c0-11.3-0.1-22.7-0.1-34c0-2.7-0.1-5.2,0.1-7.8c0.4-4.5,2-8.2,6.5-10.2c5.7-2.5,11.7-4.4,17.9-5.4c9.7-1.8,19.3-3.5,29.1-4.9
	c8.8-1.2,17.7-1.9,26.5-2.8c12.8-1.4,25.6-2,38.5-1.7c7.7,0.2,15.5,0.7,23.2,1.3c6.7,0.5,13.4,1.1,20.1,1.9
	c7.1,0.8,14.1,1.8,21.1,2.8c7.3,1.1,14.7,2.5,21.9,3.8c4.5,1,9,2.5,13.2,4.4c1.1,0.5,2.2,1.2,3.3,1.9c2.2,1.5,3.5,4.1,3.4,6.8
	C231.2,103.3,231.2,113.2,231.1,123.1L231.1,123.1z M142.8,108.9l0.3-0.1l1.3,1.2c3.9,3.6,7.7,7.3,11.6,10.9
	c0.4,0.4,0.8,0.6,1.3,0.6c3.7,0,7.3,0,10.9,0c0.2,0,0.4-0.1,0.6-0.1v-31h-11.1v13.8c-0.4-0.4-0.7-0.6-1-0.9
	c-4.4-4-8.8-8.1-13.2-12.1c-0.6-0.5-1.2-0.7-2-0.8c-3.1-0.1-6.2,0-9.3,0c-1.1,0-1.3,0.3-1.3,1.3c0,9.4,0,18.9,0,28.3
	c0,0.4,0,0.9,0,1.2h11.7L142.8,108.9z M55.4,110c0.3,2.7,0.3,2.7-2.2,3.3l-0.4,0.1c-3.7,1.1-8.5-1.6-9.7-5.5
	c-1.7-5.4,1.1-10.2,6.8-11.4c3.7-0.6,7.6-0.2,11.1,1c2.1,0.6,4.2,1.3,6.5,2.1c0-0.5,0-0.9,0-1.3c0-2.3-0.2-4.7-0.2-7
	c0.2-0.7-0.3-1.4-1-1.6c0,0-0.1,0-0.1,0c-7.7-2.3-15.5-3-23.2-0.5s-13.3,7.2-14.2,15.9c-0.6,5.8,0.9,10.8,5.8,14.4
	c2.1,1.5,4.5,2.6,7.1,3.2c6.2,1.3,12.6,0.9,18.6-1.3c2.5-0.6,4.8-1.9,6.7-3.7c0.4-0.5,0.7-1.1,0.7-1.7c0-3.9,0-7.7,0-11.6
	c0-0.4,0-0.7,0-1.1H48.4c0,1.3,0.1,2.7,0,3.9c-0.1,0.9,0.3,1.3,1.2,1.5C51.6,109,53.5,109.5,55.4,110z M140.6,139.7
	c0-2.2,0-4.2,0-6.1c0.1-4,0-4.2-4-4.9c-3-0.5-6-0.9-9.1-1.2c-5.1-0.6-10.2,0.1-14.9,2.1c-4.3,1.7-7.8,4.9-9.8,9
	c-3.3,7.3,0.3,16.9,7.7,20.6c2.9,1.4,6,2.3,9.2,2.5c6.9,0.8,13.9-0.6,20.1-3.9c0.6-0.3,0.9-0.9,0.9-1.5c0-4.1,0-8.2,0-12.3
	c0-0.3,0-0.6-0.1-1h-19.1c0,1.7,0,3.3,0,4.8c0,1.6,0,1.4,1.5,1.4h5.3c0,0.8,0,1.5,0,2.3c-0.1,0.3-0.3,0.6-0.6,0.7
	c-2.3,0.7-4.7,0.7-7,0c-2.8-0.9-4.8-3.4-5.1-6.4c-0.4-3.5,0.3-6.8,3.6-8.9c3.6-2.2,7.5-2.1,11.5-1.3
	C134.2,136.5,137.5,137.8,140.6,139.7z M127.1,121.4c-0.1-0.4-0.2-0.8-0.3-1.1c-3.3-9.6-6.6-19.2-9.9-28.8c-0.2-0.7-0.8-1.2-1.5-1
	c-4.9,0-9.8,0-14.7,0c-0.8-0.1-1.5,0.4-1.7,1.2c-3.6,9.6-7.3,19.2-11,28.7c-0.1,0.3-0.2,0.7-0.4,1.2c3.7,0,7.1,0,10.7,0
	c0.3,0,0.6-0.4,0.8-0.7c0.5-0.9,0.9-1.7,1.2-2.7c0.2-0.8,0.9-1.3,1.7-1.1c1.6,0.1,3.3,0,4.9,0c1.3,0,2.8-0.4,3.7,0.2
	c0.9,0.6,1.3,2.1,1.9,3.2c0.2,0.6,0.8,1,1.5,0.9c2.7,0,5.2,0,7.8,0L127.1,121.4z M102.8,160.3c-0.1-0.4-0.2-0.7-0.3-1
	c-3.4-9.5-6.9-19.1-10.3-28.6c-0.1-0.6-0.7-1-1.3-0.9c-5,0-10,0-15,0c-0.7-0.1-1.4,0.4-1.6,1.1c-3.1,8.3-6.1,16.6-9.2,24.9l-1.8,4.8
	c2.5,0,4.8,0,7.1,0c1.3,0,2.9,0.4,3.8-0.2s1.3-2.1,1.8-3.3c0.2-0.6,0.9-1,1.6-0.9c1.6,0.1,3.3,0.1,4.9,0c2.9-0.4,4.8,0.5,5.7,3.3
	c0.2,0.7,0.8,0.9,1.5,0.9c4,0,8.1,0,12.2,0C102,160.4,102.3,160.3,102.8,160.3L102.8,160.3z M204.3,136.1c0-1.8-0.1-3.3,0-4.9
	c0-1.1-0.3-1.3-1.3-1.3c-8.7,0-17.4,0-26.2,0c-0.4,0-0.8,0-1.2,0v30.5h28.5c0-2,0-4,0-5.9c0-0.9-0.3-1.2-1.2-1.2
	c-4.2,0-8.3,0-12.5,0c-0.4,0-0.9,0-1.2-0.1v-6.7h12v-5h-1.6c-3.2,0-6.5,0-9.7,0c-0.3,0-1-0.3-1-0.5c-0.1-1.6,0-3.2,0-4.9
	L204.3,136.1z M61,130c-0.5,0-0.9,0-1.3,0c-8.6,0-17.2,0-25.8,0c-1.1,0-1.3,0.3-1.3,1.3c0,9.3,0,18.7,0,28.1c0,0.4,0,0.8,0.1,1.2
	h28.3c0-2,0-3.9,0-5.8c0-1-0.3-1.3-1.3-1.3c-4,0-8.1,0-12.2,0c-0.4,0-0.9,0-1.3-0.1v-6.7h12.2c0-1.3,0-2.7,0-3.9
	c0-0.9-0.3-1.1-1.2-1.1c-3.3,0-6.7,0-9.9,0c-0.4,0-0.9,0-1.3-0.1v-5.4H61V130z M171.6,98.8h1.3c2.5,0,5,0,7.5,0
	c1.1,0,1.3,0.3,1.3,1.3c0,6.5,0,13,0,19.6v1.4h14V98.9h10.9v-8.6h-35.1L171.6,98.8z M157.8,130c-0.5,0-0.8-0.1-1.2-0.1
	c-3.7,0-7.4,0-11.1,0c-1.1,0-1.3,0.3-1.3,1.3c0,9.3,0,18.7,0,28c0,0.4,0,0.8,0,1.2h28.4V154h-14.8L157.8,130z M85.7,121.4
	c0-0.4,0-0.6,0-0.9c0-9.6,0-19.2,0-28.9c0-0.9-0.3-1.1-1.1-1.1c-3.8,0-7.5,0-11.3,0c-0.3,0-0.6,0.1-1,0.1v30.7L85.7,121.4z"/>
<path class="st1" d="M142.8,108.9v12.3H131c0-0.3,0-0.8,0-1.2c0-9.4,0-18.9,0-28.3c0-1.1,0.3-1.4,1.3-1.3c3.1,0.1,6.2,0,9.3,0
	c0.7,0,1.4,0.3,2,0.8c4.4,4,8.8,8,13.2,12.1c0.3,0.2,0.5,0.5,1,0.9V90.3h11.1v31c-0.2,0.1-0.4,0.1-0.6,0.1c-3.7,0-7.3,0-10.9,0
	c-0.5-0.1-1-0.3-1.3-0.6c-3.9-3.6-7.7-7.2-11.6-10.9l-1.3-1.2L142.8,108.9z"/>
<path class="st1" d="M55.4,110c-1.9-0.4-3.9-0.9-5.8-1.3c-0.9-0.2-1.3-0.5-1.2-1.5c0.1-1.3,0-2.5,0-3.9h19.2c0,0.4,0,0.7,0,1.1
	c0,3.9,0,7.7,0,11.6c0,0.6-0.3,1.3-0.7,1.7c-1.9,1.8-4.2,3.1-6.7,3.7c-5.9,2.2-12.4,2.6-18.6,1.3c-2.6-0.6-5-1.7-7.1-3.2
	c-4.9-3.6-6.4-8.6-5.8-14.4c0.9-8.7,6.5-13.3,14.2-15.9c7.7-2.5,15.5-1.8,23.2,0.5c0.7,0.1,1.2,0.8,1.1,1.5c0,0,0,0.1,0,0.1
	c0,2.3,0.1,4.7,0.2,7c0,0.4,0,0.8,0,1.3c-2.3-0.7-4.4-1.5-6.5-2.1c-3.5-1.3-7.3-1.6-11-1.1c-5.7,1.1-8.5,5.9-6.8,11.4
	c1.2,3.8,6,6.5,9.7,5.5l0.4-0.1C55.7,112.7,55.7,112.7,55.4,110z"/>
<path class="st1" d="M140.6,139.7c-3-1.8-6.3-3.1-9.7-3.9c-4-0.8-7.9-0.9-11.5,1.3c-3.3,2.1-4,5.3-3.6,8.9c0.3,3,2.3,5.5,5.1,6.4
	c2.3,0.7,4.7,0.7,7,0c0.3-0.1,0.5-0.4,0.6-0.7c0-0.8,0-1.5,0-2.3h-5.3c-1.5,0-1.5,0-1.5-1.4s0-3.2,0-4.8h18.9c0,0.3,0.1,0.7,0.1,1
	c0,4.1,0,8.2,0,12.3c0.1,0.6-0.3,1.2-0.9,1.5c-6.1,3.3-13.1,4.7-20.1,3.9c-3.2-0.3-6.3-1.1-9.2-2.5c-7.4-3.6-11-13.2-7.7-20.6
	c2-4.1,5.5-7.4,9.8-9c4.7-2,9.8-2.7,14.9-2.1c3,0.3,6.1,0.8,9.1,1.2c4,0.6,4.2,0.8,4,4.9C140.5,135.5,140.6,137.5,140.6,139.7z"/>
<path class="st1" d="M127.1,121.4h-5.5c-2.7,0-5.2,0-7.8,0c-0.6,0.1-1.3-0.2-1.5-0.9c-0.5-1.1-0.9-2.7-1.9-3.2
	c-0.9-0.5-2.5-0.2-3.7-0.2c-1.6,0-3.3,0-4.9,0c-0.8-0.1-1.5,0.4-1.7,1.1c-0.3,0.9-0.7,1.8-1.2,2.7c-0.1,0.3-0.5,0.6-0.8,0.7
	c-3.5,0-7,0-10.7,0c0.2-0.5,0.3-0.8,0.4-1.2c3.7-9.6,7.3-19.2,11-28.7c0.2-0.8,0.9-1.3,1.7-1.2c4.9,0,9.8,0,14.7,0
	c0.7-0.1,1.4,0.3,1.5,1c3.3,9.6,6.6,19.2,9.9,28.8C126.9,120.7,126.9,121,127.1,121.4z M108.5,111.7l-3.1-9l-3.7,9H108.5z"/>
<path class="st1" d="M102.7,160.3c-0.4,0-0.7,0-1.1,0c-4,0-8.1,0-12.2,0c-0.8,0-1.3-0.2-1.5-0.9c-0.9-2.8-2.8-3.8-5.7-3.3
	c-1.6,0.1-3.3,0.1-4.9,0c-0.7-0.1-1.3,0.3-1.6,0.9c-0.5,1.1-0.9,2.7-1.8,3.3s-2.5,0.2-3.8,0.2c-2.3,0-4.6,0-7.1,0l1.8-4.8
	c3.1-8.3,6.2-16.6,9.2-24.9c0.1-0.7,0.8-1.2,1.6-1.1c5,0,10,0,15,0c0.6-0.1,1.2,0.3,1.3,0.9c3.4,9.6,6.9,19.1,10.3,28.6
	C102.6,159.6,102.6,159.9,102.7,160.3z M84.2,150.6l-3.3-9l-3.5,9H84.2z"/>
<path class="st1" d="M204.2,136.1h-15.5c0,1.7,0,3.3,0,4.9c0,0.2,0.6,0.5,1,0.5c3.2,0,6.5,0,9.7,0h1.6v5h-12v6.7
	c0.3,0,0.8,0.1,1.2,0.1c4.2,0,8.3,0,12.5,0c0.9,0,1.2,0.3,1.2,1.2c0,1.9,0,3.9,0,5.9h-28.5V130c0.4,0,0.8,0,1.2,0
	c8.7,0,17.4,0,26.2,0c1.1,0,1.4,0.3,1.3,1.3C204.2,132.8,204.2,134.3,204.2,136.1z"/>
<path class="st1" d="M61,130v6.1H45.9v5.4c0.4,0,0.9,0.1,1.3,0.1c3.3,0,6.7,0,9.9,0c0.8,0,1.2,0.2,1.2,1.1c-0.1,1.3,0,2.6,0,3.9
	H46.1v6.7c0.5,0,0.9,0.1,1.3,0.1c4,0,8.1,0,12.2,0c1,0,1.3,0.3,1.3,1.3c-0.1,1.9,0,3.8,0,5.8H32.6c0-0.4-0.1-0.8-0.1-1.2
	c0-9.3,0-18.7,0-28.1c0-1.1,0.3-1.3,1.3-1.3c8.6,0,17.2,0,25.8,0C60,129.9,60.5,130,61,130z"/>
<path class="st1" d="M171.7,98.8v-8.4h35.1v8.6h-10.9v22.2h-14v-1.5c0-6.5,0-13,0-19.6c0-1.1-0.3-1.4-1.3-1.3c-2.5,0.1-5,0-7.5,0
	H171.7z"/>
<path class="st1" d="M157.8,130v24h15v6.5h-28.5c0-0.4,0-0.8,0-1.2c0-9.3,0-18.7,0-28c0-1,0.2-1.3,1.3-1.3c3.7,0,7.4,0,11.1,0
	C157,129.9,157.4,130,157.8,130z"/>
<path class="st1" d="M85.7,121.4H72.4V90.7c0.3-0.1,0.6-0.1,1-0.1c3.8,0,7.5,0,11.3,0c0.8,0,1.1,0.2,1.1,1.1c0,9.6,0,19.2,0,28.9
	C85.8,120.7,85.7,121,85.7,121.4z"/>
<polygon class="st0" points="81,141.6 77.3,150.5 84.1,150.5 "/>
<polygon class="st0" points="105.4,102.8 101.7,111.7 108.5,111.7 "/>
<path d="M238.9,176.8c-3.9,0-7.1-3.2-7.1-7.1s3.2-7.1,7.1-7.1c3.9,0,7.1,3.2,7.1,7.1C246,173.6,242.8,176.8,238.9,176.8z
	 M238.9,163.5c-3.4,0-6.2,2.8-6.2,6.2c0,3.4,2.8,6.2,6.2,6.2s6.2-2.8,6.2-6.2v0C245.1,166.2,242.3,163.5,238.9,163.5z"/>
<path class="st2" d="M238.9,177.1c-4.1,0-7.4-3.3-7.4-7.4c0-4.1,3.3-7.4,7.4-7.4c4.1,0,7.4,3.3,7.4,7.4
	C246.3,173.8,243,177.1,238.9,177.1L238.9,177.1z M238.9,162.9c-3.7,0-6.8,3-6.8,6.8c0,3.7,3,6.8,6.8,6.8c3.7,0,6.8-3,6.8-6.8
	C245.6,166,242.6,162.9,238.9,162.9L238.9,162.9z M238.9,176.3c-3.6,0-6.6-2.9-6.6-6.6c0-3.6,2.9-6.6,6.6-6.6s6.6,2.9,6.6,6.6v0
	C245.5,173.3,242.5,176.3,238.9,176.3L238.9,176.3z M238.9,163.8c-3.3,0-5.9,2.6-5.9,5.9s2.6,5.9,5.9,5.9c3.3,0,5.9-2.6,5.9-5.9l0,0
	C244.8,166.4,242.1,163.8,238.9,163.8L238.9,163.8z"/>
<path d="M236.1,166.3c0.7-0.1,1.4-0.2,2.1-0.1c0.8-0.1,1.7,0.1,2.4,0.6c0.4,0.3,0.7,0.8,0.7,1.3c0,0.9-0.7,1.6-1.6,1.7l0,0
	c0.6,0.2,1.1,0.7,1.2,1.3c0.1,0.6,0.4,1.3,0.6,1.9h-1.1c-0.2-0.5-0.4-1.1-0.5-1.6c-0.1-0.8-0.8-1.4-1.7-1.3h-1v3h-1.1L236.1,166.3z
	 M237.1,169.5h1.1c1.1,0,1.9-0.5,1.9-1.3s-0.8-1.3-1.9-1.3c-0.4,0-0.7,0-1.1,0.1L237.1,169.5z"/>
<path class="st2" d="M242.1,173.5h-1.9l-0.1-0.1c-0.3-0.6-0.5-1.1-0.6-1.7c-0.1-0.7-0.6-1.1-1.3-1.1c0,0,0,0-0.1,0h-0.7v3h-1.7v-7.4
	h0.3c0.7-0.1,1.4-0.2,2.1-0.1c0.9-0.1,1.8,0.1,2.6,0.6c0.5,0.4,0.8,1,0.8,1.6c0,0.8-0.4,1.5-1.1,1.8c0.4,0.3,0.7,0.8,0.8,1.3
	c0.1,0.6,0.3,1.2,0.6,1.8L242.1,173.5z M240.5,172.8h0.4c-0.1-0.3-0.3-0.8-0.4-1.5c-0.1-0.5-0.5-1-1-1.1h-0.2
	c0.4,0.3,0.7,0.8,0.8,1.3C240.2,171.9,240.4,172.4,240.5,172.8L240.5,172.8z M236.4,172.8h0.4v-6.1h0.3c0.4-0.1,0.8-0.1,1.1-0.1
	c2,0,2.2,1.1,2.2,1.6c0,0.5-0.3,1-0.7,1.2c0.6-0.2,1-0.7,1.1-1.3c0-0.4-0.2-0.8-0.5-1c-0.7-0.4-1.4-0.6-2.2-0.5
	c-0.6,0-1.1,0-1.7,0.1L236.4,172.8z M238.2,169.8c0.4,0,0.7,0.1,1,0.3v-0.4C238.9,169.8,238.6,169.8,238.2,169.8L238.2,169.8z
	 M237.5,169.2h0.8c0.9,0,1.5-0.4,1.5-1s-0.5-0.9-1.6-0.9c-0.2,0-0.5,0-0.7,0L237.5,169.2z"/>
</svg>
