<?xml version="1.0" encoding="utf-8"?>
<!-- Generator: Adobe Illustrator 21.1.0, SVG Export Plug-In . SVG Version: 6.00 Build 0)  -->
<svg version="1.1" id="Layer_1" xmlns="http://www.w3.org/2000/svg" xmlns:xlink="http://www.w3.org/1999/xlink" x="0px" y="0px"
	 viewBox="0 0 250 250" style="enable-background:new 0 0 250 250;" xml:space="preserve">
<style type="text/css">
	.st0{fill:#FCB813;}
	.st1{fill:#ED2F24;}
	.st2{fill:#781D7D;}
	.st3{fill:#781F7D;}
	.st4{fill:#8CC540;}
</style>
<title>Grocery</title>
<path class="st0" d="M52.1,143.3c14.7,0,29.3,0,44,0c1.4-0.1,2.6,0.9,2.7,2.3c0,0.5-0.1,1-0.4,1.5c-1.9,3.8-4.3,7.4-7,10.7
	c-4.7,5.5-10.5,9.9-16.9,13.1c-2.9,1.4-5.9,2.5-9,3.3c-5.9,1.5-12,2-18.1,1.5c-2.9-0.2-5.8-0.8-8.7-1.6
	c-13.7-3.7-25.4-12.8-32.2-25.3c-0.3-0.6-0.6-1.2-0.9-1.8c-0.7-1.2-0.2-2.7,0.9-3.4c0.4-0.2,0.9-0.3,1.3-0.3
	C22.7,143.4,37.4,143.3,52.1,143.3z"/>
<path class="st1" d="M52.4,138.9c-21.5-0.2-38.7-17.8-38.5-39.3c0-4.1,0.7-8.1,2-12c0.6-1.8,2-2.1,3.4-0.7l32,32l14.2,14.2
	c0.2,0.2,0.5,0.5,0.7,0.7c0.7,0.7,0.7,1.8,0,2.5c-0.2,0.2-0.5,0.4-0.7,0.4C61.3,138.2,56.9,138.9,52.4,138.9z"/>
<path class="st2" d="M66.8,100.5c0,8.1,0,16.3,0,24.4c0,1.6-0.9,2.2-2.3,1.4c-8.9-4.7-14.2-12-15.6-22c-1.8-12.3,4.5-24.3,15.6-29.9
	c1.5-0.8,2.4-0.3,2.4,1.4C66.8,84.1,66.8,92.3,66.8,100.5z"/>
<path class="st3" d="M136.6,141.2c1.1-1.8,2.1-3.4,3-5c0.2-0.3,0.4-0.3,0.7-0.3h12.4c0.3,0,0.6,0,0.6,0.5
	c-0.1,5.4-0.2,10.8-0.3,16.2c0,0.4-0.2,0.8-0.6,1c-6.5,3.3-14,4.1-21.1,2.4c-7.7-1.7-13.5-8.3-14.2-16.2c-1-6.2,1.1-12.5,5.5-17
	c3.1-3.1,7.2-5.1,11.5-5.7c5.4-0.8,11-0.3,16.1,1.5c0.3,0.1,0.6,0.1,0.6,0.5c0,2.1,0,4.1,0,6.3c-1.4-0.8-2.8-1.5-4.3-2
	c-4.6-1.8-9.7-1.7-14.2,0.3c-4.8,2.2-7.9,6.9-8,12.2c-0.4,4,0.9,8,3.5,11.1c2.9,3.4,7.3,5.1,11.7,4.7c2.1,0,4.1-0.5,6-1.4
	c0.4-0.1,0.6-0.4,0.6-0.8c0-2.5,0-4.9,0.1-7.4c0-0.6-0.2-0.8-0.8-0.8C142.7,141.3,139.7,141.2,136.6,141.2z"/>
<path class="st4" d="M69.4,123c-0.1-9.4,5.9-17.9,14.8-20.9c4.5-1.6,9.4-1.7,14-0.2c1.3,0.5,1.6,1.2,0.5,2.2l-18.2,18.1l-7.8,7.8
	c-1.1,1.1-1.9,1-2.3-0.5C69.6,127.4,69.3,125.2,69.4,123z"/>
<path class="st2" d="M194.5,129.2c2-0.2,4,0,5.9-0.1c0.9,0,0.2,0.8,0.7,1.1c1.2-0.6,2.5-1,3.8-1.3c2.6-0.7,5.4-0.6,8,0.4
	c2.8,1.1,4.6,3.7,4.7,6.7c0.4,6.5,0.1,12.9,0.2,19.4c0,0.5-0.1,0.6-0.6,0.6c-1.7,0-3.5,0-5.2,0c-0.6,0-0.6-0.2-0.6-0.7
	c0-4.3,0-8.6,0-12.9c0-1.5,0-3-0.2-4.6c-0.2-2.6-2.4-4.6-5.1-4.4c-0.1,0-0.2,0-0.3,0c-1.4,0-2.9,0.4-4.1,1.2
	c-0.5,0.2-0.8,0.8-0.8,1.3c0,6.3,0,12.7,0,19c0,0.3,0,0.6,0,0.9c-1.7,0-3.3,0-5,0c-0.9,0-1.5-0.1-1.4-1.1c0-0.2,0-0.3,0-0.5
	c0-7.5,0-14.9,0-22.4c0-0.2,0-0.3,0-0.5C194.6,130.6,194.6,129.9,194.5,129.2z"/>
<path class="st3" d="M183.9,155.4c-1.8,0.5-3.7,0.9-5.5,1.1c-2.6,0.3-5.3-0.3-7.5-1.7c-3.5-2.8-4.1-8-1.3-11.5
	c0.5-0.6,1-1.1,1.6-1.5c2.5-1.6,5.4-2.4,8.3-2.3c1.1,0,2.3,0,3.4,0.1c0.4,0,0.7,0,0.6-0.5c-0.1-0.8-0.1-1.5-0.3-2.3
	c-0.3-2.1-2.1-3.6-4.2-3.6c-2.6-0.1-5.2,0.3-7.7,1.3L170,135c1.1-1.9,2.2-3.7,3.2-5.5c0.1-0.1,0.2-0.2,0.4-0.3c3.4-1,7.1-1,10.6-0.3
	c3.2,0.8,5.5,3.7,5.5,7c0.3,5.3,0.1,10.7,0.1,16c0,1.3,0.1,2.6,0.3,3.9c-1.7,0-3.4,0-5.1,0C184.6,155.9,184.2,155.7,183.9,155.4z
	 M183.6,147.4L183.6,147.4c0-0.3,0-0.7,0-1c0-0.8,0.3-1.9-0.1-2.3c-0.4-0.5-1.6-0.3-2.5-0.3c-1.5-0.1-3,0.2-4.3,0.8
	c-1.5,0.8-2.4,2.4-2.3,4.1c0.1,1.8,1.6,3.2,3.4,3.3c1.9,0.2,3.8-0.1,5.5-1c0.3-0.1,0.4-0.4,0.4-0.7
	C183.6,149.3,183.6,148.4,183.6,147.4L183.6,147.4z"/>
<path class="st3" d="M236.9,151.2l-3.6,4.8c-0.1,0.1-0.3,0.2-0.4,0.3c-1.8,0.5-3.8,0.5-5.6,0c-2.4-0.7-4.1-2.9-4.2-5.4
	c-0.1-4.3,0-8.5,0-12.8c0-1.2,0-2.4,0-3.5c0-0.6-0.1-0.8-0.8-0.8c-0.6,0-1.4,0-2.2,0c-0.4,0-0.6-0.1-0.6-0.5c0-1.2,0-2.4,0-3.5
	c0-0.4,0.1-0.5,0.5-0.5c0.8,0,1.7-0.1,2.5,0c0.5,0,0.6-0.2,0.6-0.6c0-1.3,0-2.6,0-3.9c-0.1-0.3,0.2-0.7,0.5-0.7c0,0,0,0,0,0
	c1.7-0.5,3.5-1.1,5.2-1.6c0.5-0.1,0.7-0.1,0.6,0.5c0,1.8,0,3.6,0,5.4c0,0.7,0.2,0.9,0.9,0.9c1.5,0,2.9,0,4.4,0
	c0.5,0,0.8,0.1,0.7,0.7c0,1.1,0,2.2,0,3.3c0,0.6-0.2,0.7-0.7,0.7c-1.5,0-3.1,0-4.7,0c-0.5,0-0.7,0.1-0.7,0.7c0,4-0.1,7.9-0.1,11.9
	c0,0.8,0,1.6,0.1,2.4c0.1,1.6,1.3,2.9,2.9,3C233.9,152,235.5,151.8,236.9,151.2z"/>
<path class="st3" d="M158.1,155.9c-0.3-0.2-0.1-0.5-0.2-0.8c0-8.4,0-16.8,0-25.2c0-0.7,0.2-0.9,0.9-0.9c1.6,0,3.3,0,4.9,0
	c0.4,0,0.6,0,0.6,0.6c0,8.7,0,17.3,0,26c-1.2,0.2-2.4,0.2-3.7,0.2C159.9,155.7,159,155.7,158.1,155.9z"/>
<path class="st3" d="M161.2,116.9c1.8-0.1,3.3,1.3,3.4,3.1c0,0,0,0.1,0,0.1c0,1.9-1.5,3.4-3.4,3.4c-1.9,0-3.4-1.5-3.4-3.4
	c0-1.8,1.5-3.3,3.3-3.3C161.1,116.9,161.1,116.9,161.2,116.9z"/>
<path class="st3" d="M194.5,154.7c0,1,0.6,1.1,1.4,1.1c1.7,0,3.3,0,5,0c-0.2,0.4-0.5,0.2-0.8,0.2c-1.5,0-3,0-4.5,0
	C194.4,155.9,194.4,155.9,194.5,154.7z"/>
<path class="st2" d="M183.9,155.4c0.3,0.2,0.7,0.4,1.1,0.3c1.7,0,3.4,0,5.1,0c-0.1,0.3-0.3,0.2-0.5,0.2h-5.1
	C184.2,156,183.9,155.9,183.9,155.4z"/>
<path class="st2" d="M158.1,155.9c0.8-0.2,1.7-0.2,2.5-0.1c1.2,0.1,2.5,0,3.7-0.2c0.1,0.4-0.2,0.4-0.4,0.4L158.1,155.9z"/>
<path class="st3" d="M194.5,129.2c0,0.7,0,1.3,0,2C194.4,130.6,194.4,129.9,194.5,129.2z"/>
<path class="st3" d="M241.6,135.2c-2,0-3.6-1.6-3.6-3.6c0-2,1.6-3.6,3.6-3.6c2,0,3.6,1.6,3.6,3.6c0,0,0,0,0,0
	C245.1,133.6,243.6,135.2,241.6,135.2z M241.6,128.5c-1.7,0-3.1,1.4-3.1,3.1s1.4,3.1,3.1,3.1c1.7,0,3.1-1.4,3.1-3.1
	C244.7,129.9,243.4,128.5,241.6,128.5C241.6,128.5,241.6,128.5,241.6,128.5L241.6,128.5z"/>
<path class="st3" d="M241.6,135.4c-2.1,0-3.7-1.7-3.7-3.7c0-2.1,1.7-3.7,3.7-3.7c2.1,0,3.7,1.7,3.7,3.7S243.7,135.4,241.6,135.4
	L241.6,135.4z M241.6,128.3c-1.9,0-3.4,1.5-3.4,3.4s1.5,3.4,3.4,3.4s3.4-1.5,3.4-3.4v0C245,129.8,243.5,128.3,241.6,128.3z
	 M241.6,134.9c-1.8,0-3.3-1.5-3.3-3.3c0-1.8,1.5-3.3,3.3-3.3c1.8,0,3.3,1.5,3.3,3.3c0,0,0,0,0,0
	C244.9,133.5,243.4,134.9,241.6,134.9L241.6,134.9z M241.6,128.7c-1.6,0-3,1.3-3,3s1.3,3,3,3c1.6,0,3-1.3,3-3
	C244.5,130,243.2,128.7,241.6,128.7L241.6,128.7z"/>
<path class="st3" d="M240.2,130c0.3,0,0.7-0.1,1-0.1c0.4,0,0.8,0.1,1.2,0.3c0.2,0.2,0.3,0.4,0.3,0.7c0,0.4-0.4,0.8-0.8,0.9l0,0
	c0.3,0.1,0.6,0.4,0.6,0.7c0.1,0.3,0.2,0.6,0.3,0.9h-0.6c-0.1-0.3-0.2-0.5-0.3-0.8c0-0.4-0.4-0.7-0.8-0.7h-0.5v1.5h-0.5L240.2,130z
	 M240.8,131.6h0.5c0.6,0,0.9-0.3,0.9-0.7c0-0.4-0.4-0.6-1-0.6c-0.2,0-0.4,0-0.5,0L240.8,131.6z"/>
<path class="st3" d="M243.3,133.5h-0.9v-0.1c-0.1-0.3-0.2-0.6-0.3-0.9c0-0.3-0.3-0.6-0.6-0.5c0,0,0,0,0,0h-0.4v1.5H240v-3.7h0.1
	c0.3-0.1,0.7-0.1,1.1-0.1c0.5,0,0.9,0.1,1.3,0.3c0.3,0.2,0.4,0.5,0.4,0.8c0,0.4-0.2,0.7-0.6,0.9c0.2,0.2,0.3,0.4,0.4,0.6
	c0.1,0.3,0.2,0.6,0.3,0.9L243.3,133.5z M242.5,133.2h0.2c0-0.2-0.1-0.4-0.2-0.7c0-0.3-0.2-0.5-0.5-0.6h-0.1c0.2,0.2,0.4,0.4,0.4,0.6
	C242.3,132.8,242.4,133,242.5,133.2z M240.4,133.2h0.2v-3.1h0.1c0.2,0,0.4,0,0.6,0c1,0,1.1,0.6,1.1,0.8c0,0.3-0.1,0.5-0.3,0.6
	c0.3-0.1,0.5-0.4,0.5-0.7c0-0.2-0.1-0.4-0.3-0.5c-0.3-0.2-0.7-0.3-1.1-0.3c-0.3,0-0.6,0-0.9,0L240.4,133.2z M241.3,131.7
	c0.2,0,0.4,0,0.5,0.1v-0.2C241.7,131.7,241.5,131.7,241.3,131.7L241.3,131.7z M240.9,131.4h0.4c0.5,0,0.8-0.2,0.8-0.5
	s-0.3-0.5-0.8-0.5h-0.4L240.9,131.4z"/>
</svg>
