<?xml version="1.0" encoding="utf-8"?>
<!-- Generator: Adobe Illustrator 21.1.0, SVG Export Plug-In . SVG Version: 6.00 Build 0)  -->
<svg version="1.1" id="Layer_1" xmlns="http://www.w3.org/2000/svg" xmlns:xlink="http://www.w3.org/1999/xlink" x="0px" y="0px"
	 viewBox="0 0 250 250" style="enable-background:new 0 0 250 250;" xml:space="preserve">
<style type="text/css">
	.st0{fill:#020101;}
	.st1{fill:#E63137;}
	.st2{fill:#FDFDFD;}
</style>
<title>Grocery</title>
<path class="st0" d="M150.3,150.7c-0.3,0.3,0,0.5,0,0.7c0.1,0.5,0.3,1,0.5,1.5c0.2,0.5,0.1,0.6-0.3,0.5h-32.9c-0.4,0-0.8-0.1-1-0.4
	c-1.7-1.7-3.5-3.5-5.2-5.2c-0.8,1.7-1.5,3.4-2.3,5.1c-0.1,0.4-0.5,0.6-0.8,0.6c-5.4,0-10.8,0-16.3,0c-0.3,0-0.6-0.1-0.8-0.3
	c-1.1-1-2.2-2-3.4-3.1c0,1,0,1.9,0,2.9c0,0.4-0.1,0.5-0.5,0.5h-16c-0.3,0-0.6-0.1-0.7-0.3c-1.9-1.8-3.7-3.7-5.5-5.5
	c-0.3-0.3-0.4-0.6-0.4-1c0-9.4,0-18.8,0-28.2c0-6.7,0-13.2,0-19.8c0-0.6,0.2-0.7,0.7-0.7c5,0,10.1,0,15.1,0c0.4,0,0.8,0.2,1.1,0.5
	c2,2,3.9,4.1,5.9,6.1c0.3,0.3,0.4,0.6,0.4,1c0,11.8,0,23.7,0,35.5c0,0.2,0,0.5,0,0.7c0.2-0.1,0.3-0.3,0.4-0.6
	c4.6-10.4,9.1-20.7,13.8-31c1.1-2.9,2.5-5.7,4-8.4c1.9-3.3,5.5-5.2,9.3-4.9c2.6,0.2,5.1,1.3,6.9,3.3c2.4,2.5,4.7,4.9,7.1,7.4
	c0.3,0.3,0.5,0.7,0.7,1.1l16.4,34.3c0.1,0.2,0.2,0.4,0.4,0.5v-0.6c0-10.5,0-21,0-31.6c-0.1-2,0-4,0.4-6c0.7-3.7,3.4-6.8,6.9-8
	c3.1-1.1,6.5-0.5,9.1,1.4c1.4,1.1,2.8,2.2,4,3.5c1.5,1.5,2.9,3,4.5,4.4c0.2,0.2,0.3,0.4,0.5,0.6l7,10.7l0.4,0.6
	c0.1-0.2,0.1-0.4,0.1-0.7c0-6.3,0-12.7,0-19c0-0.5,0.1-0.6,0.6-0.6c19.3,0,38.7,0,58,0c0.3,0,0.7,0.1,0.9,0.4c1.8,2,3.7,3.9,5.5,5.9
	c0.2,0.2,0.4,0.5,0.3,0.9c0,4.6,0,9.2,0,13.8c0,0.5-0.1,0.6-0.6,0.6c-4.4,0-8.7,0-13.1,0c-0.5,0-0.6,0.1-0.6,0.6
	c0,10.9,0,21.8,0,32.7c0,0.6-0.1,0.7-0.7,0.7c-5,0-10,0-15,0c-0.4,0-0.8-0.1-1-0.4c-1.8-1.8-3.6-3.7-5.3-5.5c-0.3-0.3-0.4-0.6-0.4-1
	c0-8.9,0-17.8,0-26.7c0-0.5-0.1-0.7-0.7-0.7c-2.1,0-4.1,0-6.2,0c-0.5,0-0.6,0.1-0.6,0.6c0,11,0,22,0,33c0,0.7-0.2,0.7-0.8,0.7
	c-5.4,0-10.8,0-16.2,0c-0.4,0-0.8-0.2-1-0.5c-1.7-2.2-3.5-4.3-5.1-6.5c-1.9-2.5-3.5-5.3-5.3-7.9c-1.3-2-2.7-4.1-4-6.1
	c-0.1-0.2-0.2-0.4-0.4-0.5c-0.1,0.2-0.1,0.4-0.1,0.7c0,6.6,0,13.3,0,19.9c0,0.5-0.1,0.6-0.6,0.6c-4.6,0-9.3,0-13.9,0
	c-0.3,0-0.6-0.1-0.9-0.3c-0.7-0.7-1.6-1.3-2.3-2.1l-0.1,0.1l0,0L150.3,150.7z M160.7,119.1l0.6,0.8c5.5,8.4,11.1,16.8,16.6,25.2
	c0.2,0.3,0.5,0.5,0.9,0.5c4.7,0,9.4,0,14.1,0c0.5,0,0.7-0.1,0.7-0.7c0-11,0-21.9,0-32.8c0-0.6,0.2-0.7,0.7-0.7c4.7,0,9.3,0,14,0
	c0.9,0,0.9,0,0.9,0.9c0,10.9,0,21.8,0,32.7c0,0.6,0.1,0.7,0.7,0.7c4.4,0,8.7,0,13.1,0c0.6,0,0.7-0.2,0.7-0.7c0-10.8,0-21.6,0-32.4
	c0-0.5,0.1-0.7,0.7-0.7c4.4,0,8.7,0,13.1,0c0.6,0,0.8-0.1,0.8-0.7c0-3.9,0-7.9,0-11.8c0-0.6-0.2-0.7-0.7-0.7c-18.8,0-37.5,0-56.3,0
	c-0.6,0-0.7,0.1-0.7,0.7c0,8.2,0,16.4,0,24.6c0,0.2,0,0.4-0.1,0.6l-0.1-0.1c-5-7.5-10-15-15-22.5c-0.7-1-1.5-1.9-2.5-2.7
	c-3.7-3-9.1-2.5-12.3,1.1c-1.9,2.2-2.9,5-2.8,7.9c0,12.2,0,24.5,0,36.7c0,0.5,0.2,0.6,0.6,0.6c4,0,8,0,12,0c0.5,0,0.6-0.2,0.6-0.6
	c0-5.2,0-10.5,0-15.7C160.8,126,160.8,122.6,160.7,119.1L160.7,119.1z M114.4,114.4c0.2,0.1,0.2,0.2,0.3,0.3
	c2.5,5.8,5,11.7,7.5,17.5c0.2,0.5,0,0.6-0.4,0.6h-9.2c-0.4,0-0.6,0.1-0.6,0.5c0,4,0,8,0,12c0,0.4,0.1,0.5,0.5,0.5h29.8
	c0.7,0,0.7,0,0.4-0.7c-1.4-3-2.8-6-4.2-9c-5.3-11.2-10.4-22.5-15.8-33.7c-0.3-0.6-0.6-1.1-1-1.5c-3.3-4-9.3-4.5-13.3-1.2
	c-1.4,1.3-2.5,2.9-3.1,4.6c-6.3,13.6-12.2,27.3-18.2,41c-0.2,0.5-0.1,0.6,0.4,0.6c4.6,0,9.2,0,13.8,0c0.3,0,0.7-0.2,0.7-0.5
	c2.8-7.1,5.7-14.2,8.5-21.3L114.4,114.4z M65.3,122.5c0,7.7,0,15.5,0,23.2c0,0.5,0.1,0.6,0.6,0.6c4.5,0,9,0,13.5,0
	c0.5,0,0.7-0.1,0.7-0.7c0-15.4,0-30.9,0-46.3c0-0.5-0.1-0.7-0.7-0.7c-4.4,0-8.9,0-13.4,0c-0.5,0-0.7,0.1-0.7,0.7
	C65.4,107.1,65.4,114.8,65.3,122.5L65.3,122.5z M117.5,131.6h2.7c0.2,0,0.3-0.1,0.2-0.3l-1.5-3L117.5,131.6z"/>
<path class="st0" d="M40.1,98.2h14.7c0.4,0,0.7,0.1,1,0.4c1.8,1.9,3.7,3.7,5.6,5.6c0.2,0.2,0.4,0.5,0.3,0.9c0,4.6,0,9.2,0,13.8
	c0,0.5-0.2,0.6-0.6,0.6c-8.8,0-17.6,0-26.4,0c-1.5,0-2.9,0.5-4,1.4c-3.1,2.4-4.5,6.3-3.7,10.1c0,0.2,0.1,0.4,0.1,0.6
	c0.1,0.6,0.6,0.9,1.2,0.9c3.7,0,7.4,0,11.1,0c0.6,0,0.7-0.2,0.7-0.7c0-3.3,0-6.6,0-9.8c0-0.5,0.1-0.6,0.6-0.6c4.7,0,9.3,0,13.9,0
	c0.3,0,0.7,0.1,0.9,0.4c1.9,1.9,3.8,3.8,5.7,5.7c0.2,0.2,0.4,0.5,0.3,0.9c0,8.2,0,16.3,0,24.5c0,0.5-0.1,0.7-0.6,0.7H33.4
	c-2.1-0.2-4.1-0.7-6.1-1.5c-4.5-1.7-8.5-4.4-11.7-7.9c-3.4-3.2-6.2-7-8.3-11.2c-4.5-9.6-2.4-21,5.1-28.5c2.7-2.8,6.2-4.7,10-5.6
	c1.7-0.3,3.4-0.5,5.2-0.5L40.1,98.2z M39.6,146.1L39.6,146.1h14.1c0.5,0,0.6-0.1,0.6-0.6c0-7.6,0-15.1,0-22.7c0-0.5-0.1-0.6-0.6-0.6
	c-4,0-8.1,0-12.1,0c-0.5,0-0.6,0.1-0.6,0.6c0,3.2,0,6.4,0,9.7c0,0.9,0,0.9-0.9,0.9c-4,0-8.1,0-12.1,0c-1.5,0-3-0.6-4.1-1.7
	c-1.7-1.7-2.9-3.8-3.5-6.1c-0.5-1.3-0.7-2.8-0.5-4.2c0.5-3.1,2.1-5.9,4.6-7.8c1.3-1.1,2.9-1.7,4.6-1.6c8.2,0,16.5,0,24.7,0
	c0.5,0,0.7-0.1,0.7-0.7c0-3.9,0-7.7,0-11.6c0-0.5-0.1-0.7-0.7-0.7c-8.2,0-16.4,0-24.6,0c-1.1,0-2.2,0-3.3,0.1
	c-6,0.4-11.5,3.3-15,8.2c-8.3,10.9-6.1,26.5,4.8,34.8c0.5,0.4,1.1,0.8,1.7,1.2c3,2,6.5,3,10,2.9C31.5,146,35.6,146.1,39.6,146.1z"/>
<path class="st1" d="M160.8,119.1c0,3.5,0,6.8,0,10.1c0,5.2,0,10.5,0,15.7c0,0.5-0.1,0.6-0.6,0.6c-4,0-8,0-12,0
	c-0.4,0-0.6-0.1-0.6-0.6c0-12.2,0-24.5,0-36.7c0-2.9,1-5.7,2.8-7.9c3.2-3.6,8.6-4,12.3-1.1c1,0.7,1.8,1.6,2.5,2.7
	c5,7.5,10,15,15,22.5l0.1,0.1c0.1-0.2,0.1-0.4,0.1-0.6c0-8.2,0-16.4,0-24.6c0-0.6,0.2-0.7,0.7-0.7c18.8,0,37.5,0,56.3,0
	c0.5,0,0.7,0.1,0.7,0.7c0,3.9,0,7.9,0,11.8c0,0.6-0.2,0.7-0.8,0.7c-4.4,0-8.7,0-13.1,0c-0.6,0-0.7,0.2-0.7,0.7c0,10.8,0,21.6,0,32.4
	c0,0.6-0.1,0.8-0.7,0.7c-4.4,0-8.7,0-13.1,0c-0.6,0-0.7-0.1-0.7-0.7c0-10.9,0-21.8,0-32.7c0-0.9,0-0.9-0.9-0.9c-4.7,0-9.3,0-14,0
	c-0.5,0-0.7,0.1-0.7,0.7c0,11,0,21.9,0,32.8c0,0.6-0.2,0.7-0.7,0.7c-4.7,0-9.4,0-14.1,0c-0.4,0-0.8-0.2-0.9-0.5
	c-5.5-8.4-11-16.8-16.6-25.2L160.8,119.1z"/>
<path class="st1" d="M114.5,114.4l-3.8,9.6c-2.9,7.1-5.7,14.2-8.5,21.3c-0.1,0.3-0.4,0.6-0.7,0.5c-4.6,0-9.2,0-13.8,0
	c-0.5,0-0.6-0.1-0.4-0.6c6-13.7,11.9-27.5,18.2-41c0.7-1.8,1.8-3.3,3.1-4.6c4-3.3,9.9-2.8,13.3,1.2c0.4,0.5,0.7,1,1,1.5
	c5.3,11.2,10.5,22.5,15.8,33.7c1.4,3,2.8,6,4.2,9c0.3,0.6,0.3,0.7-0.4,0.7h-29.8c-0.4,0-0.5-0.1-0.5-0.5c0-4,0-8,0-12
	c0-0.5,0.2-0.5,0.6-0.5h9.2c0.5,0,0.7,0,0.4-0.6c-2.5-5.8-5-11.7-7.5-17.5C114.7,114.6,114.7,114.5,114.5,114.4z"/>
<path class="st1" d="M65.4,122.5c0-7.7,0-15.4,0-23.1c0-0.5,0.1-0.7,0.7-0.7c4.4,0,8.9,0,13.4,0c0.5,0,0.7,0.1,0.7,0.7
	c0,15.4,0,30.9,0,46.3c0,0.5-0.1,0.7-0.7,0.7c-4.5,0-9,0-13.5,0c-0.5,0-0.6-0.1-0.6-0.6C65.4,138,65.4,130.2,65.4,122.5z"/>
<path class="st2" d="M150.3,150.7v0.1l0,0V150.7L150.3,150.7z"/>
<path class="st1" d="M39.6,146.1c-4.1,0-8.1,0-12.2,0c-3.6,0.1-7.1-1-10-2.9c-11.6-7.3-15-22.7-7.7-34.3c0.4-0.6,0.8-1.1,1.2-1.7
	c3.6-4.8,9.1-7.8,15-8.2C27,99,28.1,99,29.2,99c8.2,0,16.4,0,24.6,0c0.5,0,0.7,0.1,0.7,0.7c0,3.9,0,7.7,0,11.6
	c0,0.5-0.1,0.7-0.7,0.7c-8.2,0-16.5,0-24.7,0c-1.7,0-3.3,0.5-4.6,1.6c-2.5,1.9-4.1,4.7-4.6,7.8c-0.1,1.4,0,2.9,0.5,4.2
	c0.6,2.3,1.9,4.4,3.5,6.1c1.1,1.1,2.6,1.7,4.1,1.7c4,0,8.1,0,12.1,0c0.9,0,0.9,0,0.9-0.9c0-3.2,0-6.4,0-9.7c0-0.5,0.1-0.6,0.6-0.6
	c4,0,8.1,0,12.1,0c0.5,0,0.6,0.2,0.6,0.6c0,7.6,0,15.1,0,22.7c0,0.5-0.1,0.6-0.6,0.6L39.6,146.1L39.6,146.1z"/>
<path d="M238,152.8c-2.2,0-3.9-1.8-3.9-3.9s1.8-3.9,3.9-3.9c2.2,0,3.9,1.8,3.9,3.9S240.1,152.8,238,152.8L238,152.8z M238,145.4
	c-1.9,0-3.4,1.5-3.4,3.4s1.5,3.4,3.4,3.4s3.4-1.5,3.4-3.4C241.4,147,239.9,145.4,238,145.4L238,145.4z"/>
<path d="M236.5,147c0.4-0.1,0.8-0.1,1.1-0.1c0.5,0,0.9,0.1,1.3,0.3c0.2,0.2,0.4,0.4,0.4,0.7c0,0.5-0.4,0.9-0.9,1l0,0
	c0.3,0.1,0.6,0.4,0.7,0.8c0.1,0.4,0.2,0.7,0.3,1h-0.6c-0.1-0.3-0.2-0.6-0.3-0.9c-0.1-0.5-0.5-0.8-0.9-0.7H237v1.6h-0.6L236.5,147z
	 M237.1,148.8h0.6c0.6,0,1-0.3,1-0.7c0-0.4-0.4-0.7-1.1-0.7c-0.2,0-0.4,0-0.6,0L237.1,148.8z"/>
</svg>
