<?xml version="1.0" encoding="utf-8"?>
<!-- Generator: Adobe Illustrator 21.1.0, SVG Export Plug-In . SVG Version: 6.00 Build 0)  -->
<svg version="1.1" id="Layer_1" xmlns="http://www.w3.org/2000/svg" xmlns:xlink="http://www.w3.org/1999/xlink" x="0px" y="0px"
	 viewBox="0 0 250 250" style="enable-background:new 0 0 250 250;" xml:space="preserve">
<style type="text/css">
	.st0{fill:#CF1544;}
	.st1{fill:#FFB718;}
	.st2{fill:#FFFFFF;}
</style>
<title>Coke_Dine</title>
<path class="st0" d="M49.7,119.8c-1.8-2.1-2.9-4.6-3.2-7.3c-0.6-3.6-0.3-7.4,0.9-10.9c1.6-5.1,6.9-7.9,12-6.3c0.3,0.1,0.7,0.2,1,0.4
	c2.4,1,4.3,3,5.1,5.5c1.8,4.8,1.8,10,0.1,14.8c-1.8,5.1-6.1,7.3-11.4,6.2C52.5,121.8,51,120.9,49.7,119.8z M53.4,108.7h0.1
	c0,0.8,0,1.5,0,2.3c0.1,1.6,0.3,3.1,0.6,4.7c0.2,1.1,1.2,1.9,2.4,1.8c1.1,0.1,2.2-0.7,2.4-1.8c0.2-0.4,0.3-0.9,0.3-1.3
	c0.1-3.3,0.2-6.5,0.2-9.8c0-1-0.2-1.9-0.5-2.8c-0.3-1-1.3-1.7-2.4-1.6c-1.1,0-2,0.7-2.3,1.7c-0.1,0.3-0.2,0.7-0.3,1.1
	C53.7,104.8,53.5,106.8,53.4,108.7z"/>
<path class="st0" d="M41.5,109.3l4.4,12.7c-2.2,0-4.3,0-6.3,0c-0.2,0-0.6-0.5-0.7-0.8c-0.9-3-1.8-6-2.7-9.1
	c-0.5-1.7-0.5-1.7-2.5-1.3c0,0.5,0,1.1,0,1.6c0,2.9,0,5.8,0,8.6c0,0.8-0.2,1.1-1,1c-1.6,0-3.3,0-4.9,0c-0.7,0-0.9-0.2-0.9-0.9
	c0-8.2,0-16.5,0-24.7c0-0.5,0-0.9,0.6-0.9c4.1,0.1,8.3-0.1,12.3,0.4c3.8,0.5,6.4,3.9,6,7.7c-0.1,0.6-0.2,1.2-0.5,1.7
	C44.8,106.9,43.8,107.9,41.5,109.3z M33.8,106.5c1.2-0.1,2.4-0.3,3.6-0.6c1-0.3,1.7-1.2,1.6-2.3c0-1.1-0.2-2.2-1.3-2.5
	c-1.3-0.3-2.5-0.5-3.8-0.6L33.8,106.5z"/>
<path class="st0" d="M122,109.4l2.1,6.2l2.2,6.4c-2.2,0-4.3,0-6.3,0c-0.2,0-0.5-0.5-0.6-0.9c-0.9-3-1.7-6-2.7-9
	c-0.5-1.7-0.5-1.7-2.5-1.4c0,0.4,0,0.8,0,1.1c0,3,0,6.1,0,9.1c0,0.8-0.2,1.1-1,1c-1.7,0-3.3,0-5,0c-0.6,0-0.8-0.2-0.8-0.8
	c0-8.3,0-16.6,0-24.9c0-0.3,0.4-0.8,0.6-0.8c4.1,0,8.2,0,12.3,0.4c2.6,0.2,4.8,2,5.5,4.5c1,2.4,0.5,5.1-1.3,6.9
	C123.8,108.1,123,108.8,122,109.4z M114.3,106.5c1.3-0.2,2.6-0.5,3.9-0.8c1.1-0.3,1.3-1.3,1.3-2.4c0.2-1-0.4-2-1.3-2.3
	c-1.3-0.3-2.5-0.5-3.8-0.6L114.3,106.5z"/>
<path class="st0" d="M18.7,113.4c-0.8,0-1.7,0-2.5,0c-0.5,0-0.7-0.2-0.7-0.7c0-1.1,0-2.1,0-3.2c0.1-0.3,0.4-0.6,0.7-0.7
	c2.7,0,5.2,0,7.8,0c0.2,0,0.7,0.4,0.7,0.6c0,4.3,0,8.5,0,12.7c0,0,0,0.1-0.1,0.1c-2.1,0.7-3.4,0-4-2.3c-2,2-4.8,2.9-7.6,2.3
	c-3-0.3-5.6-2.4-6.6-5.3c-2.1-5.3-2-11.3,0.3-16.5c2.3-4.9,8.2-7,13.1-4.7c0.5,0.3,1.1,0.6,1.6,0.9c2.8,2,3.5,5,3.4,8.3h-6.4
	c-0.1-1-0.2-1.9-0.4-2.9c-0.3-1.3-0.9-2-2.1-2.1c-1.2-0.2-2.4,0.5-2.7,1.7c-0.4,1.3-0.7,2.6-0.8,4c-0.1,2.7,0,5.2,0.1,7.8
	c0.1,0.8,0.3,1.6,0.6,2.3c0.6,1.3,2.1,1.9,3.4,1.4c0.4-0.2,0.8-0.5,1-0.8c0.5-0.9,1-1.8,1.3-2.8L18.7,113.4z"/>
<path class="st0" d="M102.4,111.2h-6.5v5.3c0.3,0,0.7,0,1,0c2.7,0,5.2,0,7.8,0c0.8,0,1,0.2,1,1c0,1.2,0,2.3,0,3.5c0,0.8-0.2,1-1,1
	c-4.9,0-9.8,0-14.8,0c-0.8,0-1-0.2-1-1c0-4,0-8.1,0-12.1c0-4,0-8.2,0-12.3c0-0.6,0-1.1,0.8-1c5.1,0,10.2,0,15.4,0
	c0.2,0,0.3,0,0.5,0.1v5.2h-9.7v5.1h4c2.5,0,2.5,0,2.5,2.5C102.4,109.3,102.4,110.2,102.4,111.2z"/>
<path class="st0" d="M81.3,112.2c1.8,0.2,3.5,0.3,5.2,0.5c0.8,0,0.7,0.6,0.6,1.1c-0.5,6.2-5.1,9.7-11.3,8.6c-3-0.4-5.6-2.4-6.7-5.2
	c-2.4-5.5-2.2-11.8,0.4-17.2c3.2-6.7,13.2-6,16.1-1.2c1,1.7,1.5,3.5,1.6,5.4c0,0.5-0.1,0.8-0.7,0.8c-1.7,0-3.3,0-5,0
	c-0.3,0-0.6-0.4-0.7-0.7c-0.2-0.8-0.3-1.7-0.5-2.4c-0.3-1-1.1-1.7-2.1-1.7c-1-0.1-1.9,0.6-2.3,1.5c-0.4,1-0.7,2.1-0.8,3.2
	c-0.4,3.4-0.3,6.8,0.3,10.2c0.1,1.4,1.4,2.5,2.8,2.5c1.2,0.1,2.3-0.7,2.5-1.9c0.2-0.5,0.3-1.1,0.4-1.7
	C81.2,113.4,81.2,112.9,81.3,112.2z"/>
<path class="st0" d="M145.9,95.5l-3.6,7.8c-1.1,2.4-2.3,4.9-3.4,7.3c-0.2,0.5-0.3,1-0.3,1.5c0,3,0,6,0,8.9c0,0.8-0.2,1-1,0.9
	c-1.6,0-3.3,0-4.9,0c-0.8,0-1-0.3-1-1c0-2.8,0-5.7,0-8.5c0-0.6-0.1-1.1-0.3-1.6c-1.9-4.7-3.8-9.3-5.7-13.9c-0.2-0.4-0.3-0.8-0.5-1.4
	h1.7c1.5,0,3,0,4.5,0c0.5-0.1,1.1,0.3,1.1,0.8c0.9,2.8,1.9,5.6,2.8,8.4c0.1,0.3,0.2,0.5,0.3,0.9c0.2-0.4,0.3-0.7,0.5-1
	c1.1-2.7,2.2-5.5,3.3-8.2c0.1-0.6,0.7-1,1.3-0.9C142.4,95.6,144,95.5,145.9,95.5z"/>
<path class="st0" d="M164.3,108.8c0.1,2.9-0.4,5.8-1.5,8.5c-1.2,3.4-4.4,5.5-8,5.3c-3.6,0.1-6.8-2.1-8-5.5c-1.2-3.1-1.6-6.5-1.3-9.9
	c0-2.6,0.6-5.1,1.7-7.5c1.4-3.2,4.7-5,8.2-4.7c3.4,0,6.3,2.2,7.5,5.3C163.9,103.1,164.4,105.9,164.3,108.8z M148.9,108.7
	c-0.1,2.7,0.3,5.5,1.3,8c0.9,2.5,3.7,3.8,6.2,2.9c1.8-0.6,3.2-2.2,3.5-4.1c1-3.5,1.2-7.2,0.6-10.8c-0.2-1.8-0.8-3.5-1.8-4.9
	c-0.7-1-1.7-1.6-2.9-1.8c-2.4-0.5-4.8,0.8-5.6,3.1C149.3,103.4,148.8,106,148.9,108.7z"/>
<path class="st0" d="M182.7,95.6c0,0.5,0,0.9,0,1.3c0,5.3,0,10.8,0,16.2c0,1.6-0.2,3.2-0.5,4.8c-0.5,2.3-2.3,4-4.6,4.4
	c-2,0.5-4,0.5-6,0c-2.9-0.7-4.7-3-4.9-6.5c-0.1-3-0.1-6.1-0.1-9.1c0-3.6,0-7.2,0-10.8h3.3v1.2c0,5.7,0,11.4,0,17.2
	c0,0.7,0,1.3,0.1,2c0.1,2.1,1.8,3.8,3.9,3.7c0,0,0,0,0.1,0c3.7,0.2,5.3-1.3,5.4-5.1c0-5.9,0-11.8,0-17.7c0-1.3,0-1.3,1.3-1.3
	L182.7,95.6z"/>
<path class="st0" d="M229,122h-1.9c-3.7,0-7.3,0-10.9,0c-0.7,0-1-0.2-1-0.9c0-8.2,0-16.4,0-24.6c0-0.3,0-0.5,0.1-0.8h13.5
	c0,0.6,0,1.2,0,1.7c0,0.6-0.2,1-1,1c-2.7,0-5.3,0-8,0h-1.2v8.5h7.8c0,0.8,0,1.6,0,2.3c0,0.2-0.5,0.4-0.8,0.5c-1.9,0-3.9,0-5.8,0
	c-0.4,0-0.7,0-1.1,0v9.3H229V122z"/>
<path class="st1" d="M194.3,141.3c1.2,0.6,2.5,0.6,3.7,0c0.7-0.3,1.3-0.8,2.1-1.1c0.4-0.1,1-0.2,1.2,0c0.3,0.4,0.4,0.9,0.3,1.3
	c-0.2,0.5-0.5,0.9-0.9,1.1c-2.5,1.5-5.6,1.7-8.3,0.6c-1.3-0.6-2.6-1-4-1.2c-1.1-0.2-2.1-0.7-3-1.3c-0.6-0.4-1-0.4-1.3,0.1
	c-0.5,0.7-1,1.5-1.5,2.3c-0.2,0.3-0.6,0.7-0.8,0.6c-0.5-0.1-0.9-0.4-1.1-0.8c-0.3-0.9-0.5-1.8-0.5-2.7c-0.5-4.7-0.4-9.4,0.3-14.1
	c0.1-0.5,0.2-0.9,0.4-1.3c0.1-0.3,0.5-0.6,0.8-0.6c0.4,0,0.7,0.3,0.9,0.6c0.2,0.7,0.2,1.5,0.2,2.3c-0.1,3.1-0.3,6.2-0.5,9.3
	c0,0.7,0.1,1.3,0.2,2c0.2-0.1,0.4-0.1,0.4-0.2c1.2-2,3.3-3,4.6-4.9c0.1-0.2,0.3-0.4,0.5-0.5c0.4-0.1,0.9-0.1,1.3,0
	c0.3,0.2,0.3,0.8,0.3,1.2c-0.1,0.4-0.2,0.7-0.5,1c-0.6,0.7-1.2,1.5-1.8,2.1c-1.1,1.2-1.1,1.5,0.4,2.3c0.4,0.2,0.7,0.3,1.1,0.4
	c0.7,0.2,1,0,1.1-0.8c0.4-3.4,3.5-5.9,6.9-5.5c0.2,0,0.5,0.1,0.7,0.1c1.3,0.2,2.3,1.4,2.1,2.7c0,0.3-0.1,0.6-0.3,0.8
	c-0.7,1.8-2.2,3.2-4,3.9L194.3,141.3z M192.6,139.3c1.8-0.2,3.4-1.2,4.4-2.7c0.1-0.3,0-0.7-0.2-0.9c-1.4-0.6-4.4,1.2-4.5,2.7
	C192.2,138.7,192.5,139,192.6,139.3z"/>
<path class="st1" d="M141.6,131.8c0.5-0.7,1.1-1.3,1.7-1.9c1-1.1,2.6-1.1,3.7-0.2c0.3,0.3,0.6,0.7,0.7,1.1c0.4,1.1,0.8,2.2,1.1,3.3
	c0.2-0.3,0.4-0.6,0.6-0.9c0.8-1.2,1.7-2.3,2.7-3.3c1.6-1.5,3.3-0.8,3.6,1.3c0.2,1.1,0.2,2.3,0.1,3.4c-0.3,2.4-0.2,4.9,0.3,7.3
	c0.2,0.6,0.3,1.3-0.5,1.6s-1.3-0.3-1.6-1c-0.7-2.4-0.9-4.9-0.6-7.3c0-0.6,0.1-1.2,0.1-1.8c0-0.2-0.1-0.6-0.3-0.7
	c-0.3-0.1-0.5,0-0.7,0.2c-0.7,0.7-1.2,1.4-1.7,2.2c-0.9,2.2-1.6,4.5-2.4,6.7c-0.1,0.3-0.4,0.9-0.6,0.9c-0.5,0-0.9-0.2-1.2-0.6
	c-0.4-0.6-0.6-1.2-0.6-1.9c0-1.7,0.2-3.5,0.3-5.2c0.1-0.7,0.1-1.3,0.1-2c-0.1-0.5-0.3-0.9-0.6-1.3c-0.4,0.2-0.8,0.4-1.2,0.7
	c-1.1,1.4-1.8,3.1-2,5c-0.2,1.9-0.3,3.7-0.4,5.6c-0.1,0.4-0.2,0.7-0.4,1c-0.4-0.1-1-0.2-1.2-0.5c-0.4-0.6-0.7-1.3-0.7-2
	c-0.1-4.2-0.4-8.4-1.2-12.6c-0.1-0.4-0.1-0.7-0.1-1.1c0-0.5-0.1-1.1,0.7-1.2c0.8-0.1,1.3,0.1,1.6,0.9s0.3,1.7,0.5,2.6
	C141.5,130.8,141.5,131.2,141.6,131.8z"/>
<path class="st1" d="M94,140.9c-1.4,1.1-2.8,2.1-4.3,3c-1,0.5-2.1,0.8-3.1,0.8c-1.1,0.1-2.1-0.7-2.4-1.8c-0.4-1.1-0.4-2.3,0.1-3.4
	c1.2-2.7,3.4-4.7,6.1-5.7c1-0.3,2-0.6,3.1-0.8c0.9-0.2,1.5,0.2,1.6,1c0.5,3,1,5.9,1.3,8.9c0.4,3,0.5,6.2-1.1,9
	c-0.8,1.9-2.6,3.1-4.6,3.2c-1.9,0-3.5-1.3-4-3.1c-0.1-0.5,0-1.1,0.3-1.5c0.4-0.7,1.1-0.7,1.6,0c0.1,0.1,0.1,0.3,0.2,0.5
	c0.9,1.8,2,2,3.4,0.6c0.4-0.4,0.7-0.8,1-1.3C95.1,147.3,94.4,144.1,94,140.9z M86.4,141.3c0,0.7,0.4,1,1,0.7c2.2-0.9,4-2.6,5.1-4.7
	c0.4-0.8,0-1.2-0.9-1.1c-1.6,0.2-5.1,3.4-5.3,5L86.4,141.3z"/>
<path class="st0" d="M235.8,98.3c-1.6,0-3.1,0-4.6,0c-0.9,0-1.3-0.2-1.2-1.2c0.1-1.9-0.2-1.6,1.7-1.6H245v2.8h-5.8c0,0.6,0,1,0,1.4
	c0,7,0,13.9,0,20.9c0,1.3,0,1.3-1.3,1.3c-2.1,0-2.1,0-2.1-2.1c0-6.7,0-13.5,0-20.2L235.8,98.3z"/>
<path class="st0" d="M193.3,98.3c0,0.5,0,0.9,0,1.3c0,7.1,0,14.1,0,21.2c0,0.9-0.2,1.2-1.1,1.1c-0.7-0.1-1.3,0-2.2,0V98.5h-5.8v-2.8
	c0.3,0,0.6-0.1,0.9-0.1c4.3,0,8.7,0,13,0c0.7,0,1,0.2,1,0.9c0,2.3,0.1,1.8-1.8,1.9C196.1,98.4,194.7,98.3,193.3,98.3z"/>
<path class="st0" d="M203.9,119.2h2.8c2.1,0,4.2,0,6.3,0c0.7,0,0.9,0.2,0.9,0.9c0,2.4,0.2,2-2,2c-3.3,0-6.7,0-10,0h-1.2V95.7h3.2
	L203.9,119.2z"/>
<path class="st1" d="M108.7,139.8c0.3,0,0.5,0,0.8-0.1c0.8-0.3,1.4-0.2,1.7,0.6c0.3,0.9-0.1,1.9-0.9,2.3c-0.7,0.2-1.5,0.3-2.2,0.5
	c-1.5,0.5-3,1.1-4.6,1.4c-1.2,0.3-2.4,0.3-3.5,0c-1.7-0.3-2.8-1.9-2.4-3.6c0.1-0.7,0.5-1.3,1-1.7c1.9-1.9,4.8-2.5,7.3-1.6l0.6,0.3
	c0.7-1.2,0.7-2.6,0-3.8c-0.3-0.4-0.8-0.6-1.3-0.6c-1.7,0.1-3.3,0.9-4.5,2.2c-0.5,0.5-1,1.3-1.8,0.7c-0.8-0.6-0.5-1.4-0.1-2.2
	c1-2,5-4.1,7.1-3.5c0.9,0.3,1.6,0.9,2.1,1.7c1.1,1.7,1.5,3.8,1.1,5.8C108.9,138.7,108.8,139.2,108.7,139.8z M106.2,140.6
	c-1.6-1.5-4.2-1.4-5.7,0.2c0,0,0,0.1-0.1,0.1c-0.2,0.2-0.3,0.7-0.2,0.8c0.2,0.2,0.5,0.4,0.8,0.4
	C102.9,141.9,104.6,141.4,106.2,140.6L106.2,140.6z"/>
<path class="st1" d="M73.3,139.1c0.3,0,0.5-0.1,0.7-0.2c0.6-0.3,1.2-0.4,1.6,0.3c0.5,0.7,0.4,1.6-0.2,2.1c-0.4,0.3-0.9,0.6-1.4,0.7
	c-1.5,0.5-2.9,0.9-4.4,1.3c-0.5,0.1-1,0.2-1.6,0.3c-1.5,0.4-3-0.4-3.6-1.7c-0.9-1.5-0.6-3.4,0.6-4.7c0.7-0.7,1.4-1.3,2.2-1.9
	c1.7-1.1,2.7-1,4.3,0.4c0.6-0.9,0.8-2,0.5-3.1c-0.3-0.4-0.8-0.7-1.3-0.7c-0.9,0.3-1.8,0.6-2.7,1.1c-0.6,0.3-1.2,0.8-1.8,1.1
	c-0.6,0.3-1.2,0-1.2-0.6c0-0.7,0.1-1.5,0.5-2.1c1.7-1.7,4.2-2.5,6.5-1.9c1.3,0.4,2,1.7,1.9,3c0,1.9-0.4,3.8-0.6,5.7
	C73.4,138.5,73.4,138.7,73.3,139.1z M70.5,139.6c-0.1-0.6-0.2-1.2-0.4-1.8c-0.2-0.3-0.6-0.5-0.9-0.5c-1.3,0.3-2.3,1.3-2.7,2.5
	c-0.2,0.7,0,1.2,0.8,1.1c0.9-0.1,1.8-0.3,2.6-0.6C70.2,140.2,70.4,139.8,70.5,139.6z"/>
<path class="st1" d="M165.6,135.5c0.3-1.8-0.5-2.9-2.2-2.9c-0.8,0-1.6,0.1-2.4,0.3c-0.7,0.1-1.3,0.1-1.7-0.6c-0.3-0.7,0-1.5,0.7-1.8
	c0.1,0,0.2-0.1,0.3-0.1c3.8-1.2,6.8-0.3,7.4,4.4c0.1,1.3,0.1,2.5,0,3.8c0.7,0,1.4,0.5,1.4,1.3c0,0,0,0.1,0,0.1
	c0.1,0.9-0.5,1.7-1.3,1.9c-2.4,0.9-5,1-7.5,0.4c-2-0.5-3.4-2.2-3.4-4.2c0.1-1.9,1.4-3.5,3.3-3.8c1.6-0.6,3.5-0.3,4.8,0.9
	C165.1,135.2,165.3,135.3,165.6,135.5z M162.3,140.2l2.5-0.5c0.6-0.1,0.7-0.4,0.5-0.9c-0.7-1.7-2.6-2.7-4.4-2.3
	c-0.8,0.2-1.4,0.8-1.5,1.7c0,0.8,0.5,1.5,1.3,1.7C161.2,140,161.8,140.2,162.3,140.2z"/>
<path class="st1" d="M120.4,139.7c0.8-1.2,1.4-2.2,2.2-3.2c0.9-1.2,1.9-2.2,3.1-3.1c2.1-1.3,3.6-0.7,4.1,1.8c0.2,1,0.3,2,0.4,3
	c0.2,1.5,0.3,2.9,0.4,4.4c0.2,1.5,0,2-0.8,2.1c-0.8,0.1-1.5-0.4-1.7-1.7c-0.2-1.3-0.2-2.6-0.2-3.9c0-0.9,0-1.7,0-2.7
	s-0.4-1.1-1.2-0.6c-0.8,0.4-1.4,1-1.9,1.7c-1.2,1.9-2.3,3.8-3.5,5.7c-0.3,0.5-0.8,0.9-1.3,1c-0.4,0-1-0.6-1.1-1
	c-0.5-2.1-0.9-4.3-1.2-6.5c-0.1-1-0.2-2-0.1-3c0-0.4,0.2-0.9,0.4-1c0.4-0.1,0.8,0,1.2,0.3c0.4,0.4,0.6,0.8,0.7,1.3
	C120.1,136.1,120.2,137.8,120.4,139.7z"/>
<path class="st1" d="M205.4,131.7c1.6-0.1,3.1-0.1,4.5-0.2c0.7-0.1,1.3,0.3,1.5,0.9c0,0.1,0,0.1,0,0.2c0.1,0.6-0.3,1.3-0.9,1.4
	c-0.1,0-0.3,0-0.4,0c-1.1,0-2.3,0.1-3.4,0.1c-1.1,0-1.4,0.5-1.3,1.5c0.2,1.9,0.3,3.8,0.5,5.7c0.1,0.8,0.1,1.5,0,2.3
	c0,0.4-0.6,1.1-0.7,1.1c-0.5-0.1-1-0.4-1.3-0.8c-0.4-1.2-0.7-2.4-0.9-3.7c-0.1-1.5-0.2-3-0.2-4.5c0-0.7-0.1-1.1-0.9-1.1
	c-0.5,0.1-0.9-0.2-1-0.7c0-0.1,0-0.1,0-0.2c0-0.7,0-1.4,0.7-1.5c1.3-0.1,1.2-1,1.3-1.9c0.2-1.3,0.4-2.7,0.7-4
	c0.2-0.7,0.8-0.9,1.4-0.8c0.6,0.1,0.8,0.7,0.7,1.3C205.9,128.4,205.7,129.9,205.4,131.7z"/>
<path class="st1" d="M79.4,135.1c0.8-0.9,1.5-1.8,2.3-2.5c0.9-1,2.2-1.6,3.6-1.5c0.6,0.1,1.1,0.3,1.6,0.7c0.4,0.3,0.5,0.9,0.2,1.3
	c-0.2,0.2-0.4,0.3-0.7,0.4c-3.8,0.6-6.5,4-6.2,7.8c0,0.9,0,1.8-0.1,2.7c0,0.8-0.5,1-1.2,0.7c-0.8-0.2-1.4-1-1.5-1.8
	c-0.5-3.2-0.6-6.5-0.3-9.7c0.1-0.6,0.3-1.3,1-1.2c0.6,0.2,1,0.6,1.2,1.2C79.5,133.8,79.5,134.5,79.4,135.1z"/>
<path class="st1" d="M172.4,134.2c1.1-1,2.1-1.9,3.2-2.8c0.4-0.3,0.9-0.6,1.4-0.7c0.7-0.3,1.5,0.1,1.7,0.8c0,0.1,0,0.1,0.1,0.2
	c0.2,0.9-0.2,1.3-0.9,1.6c-2.6,0.9-4.4,3.3-4.6,6c-0.1,1.2-0.1,2.3-0.3,3.5c0,0.5-0.2,1-0.8,1c-0.7,0-1.3-0.1-1.5-0.9
	c-0.1-0.4-0.2-0.8-0.3-1.3c-0.2-2.6-0.3-5.2-0.4-7.8c0-0.6,0-1.2,0.2-1.8c0.1-0.4,0.6-1,0.9-1c0.3,0,0.9,0.5,1,0.9
	C172.3,132.8,172.4,133.5,172.4,134.2z"/>
<path class="st1" d="M112.4,138.3c0.2-1.7,0.5-3.4,0.7-5.1c0.1-0.9,0.7-1.1,1.4-1c0.6,0,1.1,0.5,1.1,1.1c0,0.1,0,0.1,0,0.2
	c-0.9,3.1-0.2,6.3-0.1,9.3c0.1,0.4,0.1,0.7,0,1.1c-0.1,0.4-0.5,1-0.7,1c-0.4,0-1.1-0.3-1.2-0.7c-0.4-1.4-0.8-2.9-1.1-4.4
	c-0.1-0.6-0.1-1.1,0-1.7L112.4,138.3z"/>
<path class="st1" d="M112.9,127.5c0-1.1,0.5-1.5,1.4-1.1c1,0.2,1.7,1.1,1.6,2.2c0,0.6-0.5,1-1,1c-0.2,0-0.3,0-0.4-0.1
	C113.6,129.1,113,128.4,112.9,127.5z"/>
<path class="st1" d="M52.8,126.2c0-2.4,0.2-4.9,0.6-7.3c-0.3-2.1-1.8-1.8-1.8-1.8c-1.4,0.3-1.3,2.9-1.3,2.9l-0.3,4.4
	c0,0,0.1,4.9,0.1,5.8l1.3-1.6l1.3-2L52.8,126.2z"/>
<path class="st1" d="M52.8,123.9c-0.1,2-0.1,4.1-0.3,6.1c0,0.8,0.2,1.1,1.1,1.1c1.3-0.1,2.5-0.1,3.8,0c1.2,0.2,2.3,0.5,3.3,1
	c2.1,1.1,3,3.7,2,5.8c-0.3,0.6-0.7,1.1-1.2,1.5c-2,1.7-4.3,3-6.8,3.8c-0.8,0.3-1.6,0.4-1.8,1.5c-0.1,0.6-0.8,1-1.4,0.8
	c-0.1,0-0.2-0.1-0.4-0.2c-0.8-0.6-1.5-0.3-2.2-0.1c-1.3,0.3-1.9-0.1-2.2-1.3c-0.2-1,0.1-1.5,1.2-1.8c1.9-0.6,1.9-0.6,1.7-2.5
	c-0.1-1.6,0-3.2,0-5.1c-1.4,0.6-2.7,1.1-3.7,1.6c-0.5,0.2-1,0.6-1.5,0.7c-0.8,0.3-1.6,0-1.9-0.8c-0.4-0.6-0.3-1.4,0.3-1.9
	c0,0,0.1-0.1,0.1-0.1c1.7-1.2,3.6-2,5.6-2.2c1-0.2,1.4-0.5,1.4-1.7"/>
<path class="st2" d="M52.4,140.9c2.8-1,5.3-1.8,7.3-3.7c1.2-1.2,1-2.2-0.6-2.8c-2-0.7-4.2-0.8-6.2-0.3c-0.3,0.1-0.5,0.3-0.5,0.6
	C52.4,136.6,52.4,138.6,52.4,140.9z"/>
<path class="st1" d="M211.2,129.5c-1.1,0-2.1-0.9-2.1-2.1c0-1.1,0.9-2.1,2.1-2.1c1.1,0,2.1,0.9,2.1,2.1
	C213.2,128.5,212.3,129.5,211.2,129.5L211.2,129.5z M211.2,125.7c-0.9,0-1.7,0.7-1.7,1.7c0,0.9,0.7,1.7,1.7,1.7
	c0.9,0,1.7-0.7,1.7-1.7C212.8,126.5,212.1,125.7,211.2,125.7z"/>
<path class="st1" d="M210.4,128.3v-1.7h0.8c0.1,0,0.2,0,0.3,0c0.1,0,0.1,0.1,0.2,0.2c0,0.1,0.1,0.2,0.1,0.3c0,0.1,0,0.2-0.1,0.3
	c-0.1,0.1-0.2,0.2-0.4,0.2l0.1,0.1c0.1,0.1,0.1,0.1,0.2,0.2l0.3,0.5h-0.3l-0.2-0.4l-0.2-0.2l-0.1-0.1H211h-0.4v0.8L210.4,128.3z
	 M210.6,127.3h0.5c0.1,0,0.2,0,0.2,0c0.1,0,0.1-0.1,0.1-0.1c0-0.1,0-0.1,0-0.2c0-0.1,0-0.2-0.1-0.2c-0.1-0.1-0.2-0.1-0.3-0.1h-0.5
	L210.6,127.3z"/>
</svg>
