<?xml version="1.0" encoding="utf-8"?>
<!-- Generator: Adobe Illustrator 21.1.0, SVG Export Plug-In . SVG Version: 6.00 Build 0)  -->
<svg version="1.1" id="Layer_1" xmlns="http://www.w3.org/2000/svg" xmlns:xlink="http://www.w3.org/1999/xlink" x="0px" y="0px"
	 viewBox="0 0 250 250" style="enable-background:new 0 0 250 250;" xml:space="preserve">
<style type="text/css">
	.st0{fill:#00502F;}
</style>
<title>Grocery</title>
<path class="st0" d="M50.2,147.9L50.2,147.9z"/>
<polygon class="st0" points="50,149.1 50.2,149.1 50.2,149 "/>
<polygon class="st0" points="47.4,143.8 47.5,143.8 47.4,143.8 "/>
<polygon class="st0" points="50.4,150.8 50.3,151 50.3,151.2 50.3,151.3 50.2,151.5 50.3,151.6 50.3,151.8 50.3,152 50.4,152.1 
	50.2,152.2 50.2,152.4 50.1,152.5 50.2,152.6 50.3,152.7 50.4,152.9 50.4,153 50.5,153.2 50.5,153.4 50.5,153.5 50.6,153.7 
	50.6,153.8 50.6,154 50.7,154.2 50.6,154.2 50.4,154.4 50.3,154.5 50.3,154.7 50.4,154.8 50.4,155 50.5,155.2 50.6,155.3 
	50.6,155.5 50.6,155.7 50.8,155.8 50.8,155.9 51,156 51,156.2 51,156.4 50.8,156.5 50.8,156.7 50.9,156.9 51,157 51.1,157.1 
	51.1,157.3 51,157.5 51,157.6 51.2,157.8 51.2,157.9 51.2,158.1 51.2,158.3 51.3,158.4 51.2,158.6 51.3,158.8 51.2,158.9 
	51.1,159.1 50.9,159.1 50.8,159.3 50.6,159.4 50.5,159.5 50.3,159.6 50.4,159.8 50.5,159.9 50.8,160 50.8,159.9 50.6,160 
	50.4,160.1 50.2,160 50,160 49.8,160 49.6,160.1 49.4,160.2 49.2,160.1 49.3,159.9 49.1,159.8 49.2,159.6 49.1,159.4 49.1,159.3 
	49.2,159.2 49.4,159.1 49.5,158.9 49.5,158.8 49.5,158.6 49.4,158.5 49.2,158.4 49,158.3 48.9,158.1 49,158 49,157.8 48.9,157.6 
	48.8,157.5 48.8,157.3 48.9,157.2 48.8,157 48.8,156.8 48.7,156.7 48.7,156.5 48.8,156.3 48.9,156.2 49,156 49,155.9 48.9,155.7 
	48.9,155.5 49,155.4 48.9,155.2 48.8,155.1 48.8,154.9 48.7,154.7 48.7,154.6 48.6,154.4 48.6,154.2 48.5,154.1 48.4,154 
	48.4,153.8 48.4,153.6 48.4,153.5 48.4,153.3 48.4,153.1 48.2,153 48.2,152.8 48.2,152.6 48.1,152.5 48.2,152.3 48.2,152.2 
	48.1,152 48.1,151.8 48,151.7 48.1,151.5 48.1,151.3 48,151.2 47.9,151 48,150.9 48,150.7 47.8,150.5 47.9,150.4 47.8,150.2 
	47.8,150 47.9,149.9 47.8,149.7 47.7,149.6 47.8,149.4 48,149.3 47.9,149.1 47.9,149 47.8,148.9 47.6,148.8 47.7,148.6 47.8,148.5 
	48,148.4 48,148.2 47.9,148.1 47.7,148 47.5,147.9 47.6,147.8 47.5,147.6 47.6,147.5 47.5,147.3 47.5,147.2 47.6,147 47.6,146.8 
	47.5,146.7 47.3,146.6 47.3,146.4 47.4,146.3 47.4,146.1 47.3,146 47.3,145.8 47.2,145.6 47.2,145.5 47.2,145.3 47.1,145.2 
	47.1,145 47.2,144.9 47.3,144.7 47.3,144.6 47.2,144.4 47.1,144.3 46.9,144.2 47.1,144 46.9,143.9 46.9,143.7 46.9,143.5 
	46.9,143.4 46.9,143.2 46.8,143 46.9,142.9 46.8,142.7 46.8,142.6 46.7,142.4 46.8,142.2 46.8,142.1 46.7,141.9 46.7,141.7 
	46.7,141.6 46.6,141.4 46.6,141.2 46.6,141.1 46.5,140.9 46.6,140.8 46.6,140.7 46.8,140.7 47,140.6 47.2,140.6 47.4,140.6 
	47.4,140.8 47.5,140.9 47.7,141 47.9,141.1 48,141.3 48.2,141.3 48.4,141.2 48.5,141.1 48.6,141 48.5,140.8 48.4,140.7 48.3,140.5 
	48.4,140.5 48.6,140.4 48.8,140.5 49,140.5 49.2,140.4 49.4,140.4 49.4,140.6 49.5,140.8 49.6,140.9 49.7,141.1 49.7,141.2 
	49.7,141.4 49.8,141.6 49.7,141.7 49.8,141.9 49.9,142 49.9,142.2 50,142.3 49.9,142.5 50.1,142.7 50.2,142.8 50.2,143 50.4,143 
	50.4,143.2 50.5,143.4 50.5,143.5 50.6,143.7 50.7,143.8 50.8,144 50.8,144.2 50.9,144.3 50.9,144.5 51,144.6 51,144.8 51.1,144.9 
	51.2,145.1 51.2,145.3 51.3,145.4 51.3,145.6 51.3,145.7 51.2,145.8 51.1,146 51.2,146.2 51.1,146.3 51.3,146.4 51.4,146.6 
	51.2,146.7 51.1,146.9 51.2,147 51.3,147.2 51.4,147.3 51.7,147.3 51.8,147.2 51.9,147.3 52,147.5 52.1,147.6 52,147.8 52,147.9 
	52,148.1 52,148.3 52.1,148.4 52.2,148.6 52.2,148.7 52.4,148.8 52.6,148.9 52.6,149.1 52.7,149.2 52.8,149.4 52.8,149.5 
	52.8,149.7 52.9,149.9 53.1,150 53,150.2 53.1,150.3 53.2,150.5 53.2,150.6 53.2,150.8 53.4,151 53.4,151.1 53.4,151.3 53.4,151.4 
	53.6,151.6 53.6,151.7 53.6,151.9 53.6,152.1 53.7,152.2 53.8,152.4 53.8,152.5 53.8,152.7 53.9,152.9 54,153 54,153.2 54.1,153.3 
	54.2,153.5 54.2,153.6 54.2,153.8 54.3,154 54.3,154.1 54.4,154 54.3,153.8 54.3,153.6 54.3,153.5 54.1,153.3 54.2,153.2 54.1,153 
	54.2,152.8 54.2,152.7 54.1,152.5 54.1,152.3 54,152.2 54,152 53.9,151.9 54,151.7 54,151.5 54,151.4 53.8,151.2 53.8,151 
	53.8,150.9 53.8,150.7 53.9,150.5 53.8,150.4 53.8,150.2 53.8,150 53.7,149.9 53.6,149.7 53.7,149.6 53.7,149.4 53.6,149.2 
	53.6,149.1 53.6,148.9 53.5,148.8 53.5,148.6 53.5,148.4 53.4,148.3 53.4,148.1 53.4,147.9 53.4,147.8 53.5,147.6 53.4,147.4 
	53.3,147.3 53.4,147.1 53.4,146.9 53.2,146.8 53.3,146.6 53.2,146.5 53.1,146.3 53.1,146.1 53.2,146 53.2,145.8 53.1,145.6 
	53.2,145.5 53.2,145.3 53.1,145.2 53.1,145 53.2,144.8 53.2,144.7 53,144.6 53,144.4 52.9,144.2 52.9,144.1 52.8,143.9 52.8,143.7 
	52.8,143.6 52.8,143.4 52.8,143.2 52.7,143.1 52.7,142.9 52.6,142.8 52.7,142.6 52.6,142.4 52.7,142.3 52.7,142.1 52.5,142 
	52.5,141.8 52.6,141.6 52.4,141.5 52.5,141.3 52.4,141.1 52.4,141 52.3,140.8 52.4,140.6 52.4,140.5 52.3,140.3 52.4,140.1 
	52.5,140.1 52.7,140.1 52.9,140.1 53.1,140 53.3,140.1 53.5,140 53.7,139.9 53.9,140 54.1,140 54.3,139.9 54.5,139.9 54.4,140.1 
	54.5,140.3 54.6,140.4 54.5,140.6 54.6,140.7 54.7,140.9 54.6,141.1 54.7,141.2 54.6,141.4 54.7,141.6 54.8,141.7 54.8,141.9 
	54.7,142.1 54.7,142.2 54.9,142.4 54.8,142.6 54.9,142.7 54.9,142.9 55,143 54.9,143.2 54.9,143.4 55,143.5 55,143.7 55,143.9 
	55,144 55.1,144.2 55.2,144.3 55.2,144.5 55.1,144.7 55.1,144.8 55.2,145 55.2,145.2 55.3,145.3 55.2,145.5 55.2,145.7 55.2,145.8 
	55.3,146 55.3,146.1 55.4,146.3 55.4,146.5 55.5,146.6 55.5,146.8 55.5,147 55.5,147.1 55.5,147.3 55.5,147.4 55.5,147.6 
	55.7,147.8 55.6,147.9 55.6,148.1 55.7,148.3 55.6,148.4 55.8,148.6 55.8,148.8 55.7,148.9 55.8,149.1 55.8,149.2 55.8,149.4 
	55.9,149.6 55.9,149.7 55.9,149.9 55.9,150.1 55.9,150.2 55.9,150.4 56,150.5 56,150.7 56,150.9 56,151 56.1,151.2 56.1,151.4 
	56.1,151.5 56.1,151.7 56.1,151.9 56.2,151.9 56.2,152.1 56,152.2 55.9,152.4 56,152.5 56,152.7 56.3,152.8 56.2,152.9 56.4,153 
	56.6,153.2 56.4,153.2 56.4,153.2 56.4,153.1 56.4,153.1 56.5,153.1 56.5,153.3 56.4,153.4 56.5,153.6 56.4,153.8 56.4,153.9 
	56.3,154.1 56.4,154.2 56.3,154.4 56.5,154.5 56.5,154.7 56.6,154.8 56.6,155 56.5,155.2 56.6,155.3 56.7,155.5 56.8,155.7 
	56.7,155.8 56.8,156 56.7,156.2 56.8,156.3 56.9,156.5 56.9,156.7 56.9,156.8 57,157 56.8,157.1 57,157.3 57,157.5 56.9,157.6 
	56.9,157.8 56.8,158 57,158 57.1,158.2 57.1,158.4 57.1,158.5 57.1,158.7 57.2,158.9 57.2,159 57.1,159.2 57.2,159.3 57,159.4 
	56.8,159.4 56.6,159.5 56.4,159.4 56.2,159.5 56,159.4 55.8,159.3 55.6,159.3 55.4,159.2 55.3,159.2 55.1,159.3 54.9,159.3 
	54.9,159.5 54.7,159.6 54.5,159.7 54.3,159.6 54.3,159.4 54.2,159.3 54.1,159.1 54.2,159 54.1,158.8 53.9,158.7 54.1,158.5 
	54.1,158.3 54,158.2 54,158 54,157.8 53.8,157.7 53.6,157.6 53.6,157.5 53.4,157.3 53.4,157.2 53.5,157 53.2,156.9 53.3,156.7 
	53.2,156.5 53.1,156.4 53.2,156.2 53.1,156 53,155.9 52.9,155.7 52.8,155.6 52.9,155.4 52.8,155.3 52.7,155.1 52.7,154.9 
	52.6,154.8 52.4,154.6 52.4,154.5 52.3,154.3 52.4,154.1 52.3,154 52.2,153.9 52.2,153.7 52.1,153.5 52,153.4 52,153.2 52,153 
	51.9,152.9 51.8,152.7 51.8,152.6 51.7,152.4 51.6,152.3 51.6,152.1 51.4,152 51.4,151.8 51.4,151.6 51.3,151.5 51.3,151.3 
	51.3,151.2 51.1,151 51.2,150.8 51.1,150.7 51.1,150.5 51,150.4 50.8,150.2 50.9,150.1 50.8,149.9 50.7,149.8 50.7,149.6 
	50.6,149.4 50.5,149.3 50.4,149.1 50.5,149 50.4,148.8 50.2,148.7 50.2,148.5 50.1,148.4 50.1,148.2 50.1,148 50,147.9 50,147.7 
	49.9,147.6 49.8,147.4 49.9,147.2 49.7,147.1 49.8,146.9 49.7,146.7 49.6,146.6 49.7,146.4 49.6,146.3 49.5,146.1 49.4,146 
	49.4,146 49.5,146.1 49.4,146.3 49.6,146.5 49.5,146.6 49.5,146.8 49.6,147 49.6,147.1 49.6,147.3 49.7,147.4 49.7,147.6 
	49.8,147.8 49.7,147.9 49.7,148.1 49.8,148.3 49.8,148.4 49.8,148.6 49.8,148.8 49.8,148.9 49.9,149.1 49.9,149.3 50,149.4 
	49.9,149.6 50,149.7 50,149.9 50,150.1 50,150.2 50.1,150.4 49.8,150.4 49.7,150.5 49.6,150.7 49.6,150.8 49.8,151 50,151 
	50.2,150.9 50.4,150.8 50.5,150.7 50.4,150.7 50.5,150.7 50.5,150.8 50.4,150.8 50.4,150.7 "/>
<polygon class="st0" points="51.4,159.7 51.4,159.9 51.2,159.9 51,160 51,160 51.1,159.9 51.3,159.8 "/>
<polygon class="st0" points="77.9,157.3 77.7,157.3 77.5,157.3 77.3,157.4 77.3,157.2 77.2,157.1 77.1,156.9 77.1,156.9 77.4,156.9 
	77.5,157 77.7,157.1 77.8,157.2 "/>
<path class="st0" d="M63.2,157.9v0.2h0.2l0.2-0.1l0.2-0.1l-0.1-0.2l-0.2-0.1h-0.2l-0.1,0.2L63.2,157.9z M65.9,155.1v0.2h0.2h0.2
	l0.1-0.1V155l-0.1-0.1l-0.2-0.1l-0.2,0.1L65.9,155.1L65.9,155.1z M63.5,142.1l-0.1-0.1l0.1-0.2l-0.1-0.1v-0.2l-0.2-0.1l-0.1-0.1
	l-0.2-0.1h-0.2h-0.2h-0.2l-0.2-0.1l-0.2,0.1h-0.2l-0.1,0.2l-0.1,0.1l-0.1,0.1l-0.2,0.1v0.2v0.2v0.2l0.1,0.2l0.1,0.2l-0.1,0.2v0.2
	l0.2,0.1v0.2l0.1,0.2l-0.1,0.2l0.1,0.2v0.2l0.1,0.2v0.3v0.2v0.2v0.2v0.2v0.2v0.2v0.2v0.2v0.2l0.1,0.2l0.1,0.2l-0.1,0.2v0.2v0.2v0.2
	l0.1,0.2v0.2v0.2l0.1,0.2l-0.1,0.2l0.1,0.2v0.2v0.2l0.1,0.2v0.2l0.1,0.1v0.2v0.2l0.1,0.2v0.2v0.2l-0.1,0.2v0.2l0.1,0.2l0.1,0.2v0.2
	v0.2l0.1,0.1v0.2v0.2v0.2v0.2v0.5l0.1,0.2v0.2v0.2l0.1,0.2l0.1,0.2v0.2v0.2v0.2l0.1,0.2l-0.1,0.2l0.1,0.1v0.2v0.2v0.2v0.2v0.2v0.2
	l0.2,0.1v0.2v0.2l0.1,0.1l-0.1,0.2v0.2l0.1,0.2v0.2l0.2,0.1v0.2v0.2l0.2,0.1l0.2,0.1l0.1,0.1l0.2,0.1h0.2h0.2h0.2h0.2H65l0.1-0.1
	l0.1-0.2l0.2-0.1l0.2-0.1v-0.2v-0.2l-0.2-0.2v-0.2l-0.1-0.2v-0.2l0.1-0.2v-0.2v-0.2l-0.1-0.2l-0.1-0.2l0.1-0.2l-0.1-0.1v-0.2
	l-0.1-0.2v-0.2v-0.3v-0.2v-0.2v-0.7V152l-0.1-0.2v-0.2l-0.1-0.2v-0.2v-0.5v-0.2v-0.2l0.1-0.2l-0.1-0.1L65,150l-0.1-0.2v-0.2v-0.5
	V149v-0.2l-0.1-0.2v-0.2v-0.2l0.1-0.2V148v-0.2v-0.2v-0.1l-0.1-0.1v-0.2v-0.2l-0.1-0.2l0.1-0.2l-0.1-0.2v-0.2l-0.1-0.2v-0.2v-0.2
	v-0.2v-0.2l-0.1-0.2l-0.1-0.2v-0.2v-0.2l-0.1-0.2v-0.2l0.1-0.2v-0.2v-0.2V144l-0.1-0.2v-0.2v-0.2v-0.2v-0.2V143v-0.2v-0.2l-0.1-0.2
	l-0.1-0.2v-0.2L63.5,142.1z M65.6,140.9l-0.2,0.1v0.2v0.2l0.1,0.1l0.2,0.1l-0.1,0.2l0.1,0.1v0.2l-0.1,0.1v0.1l-0.1,0.2l0.2,0.1
	l0.2,0.1l0.1,0.1l0.2,0.1v0.2v0.2v0.4l0.1,0.2v0.2l0.1,0.2v0.2v0.2v0.2v0.2v0.2v0.2v0.2v0.2v0.2l0.1,0.2v0.2v0.2v0.2l0.1,0.2v0.2
	v0.2v0.2v0.2l-0.1,0.2v0.2v0.2v0.2v0.2v0.2v0.2v0.2l0.1,0.2v0.2l0.1,0.1v0.2l-0.1,0.2v0.2v0.2v0.3v0.2v0.2v0.1l0.1,0.2v0.2v0.2v0.2
	l0.1,0.2l-0.1,0.2v0.2v0.2l0.2,0.1l0.1,0.2v0.2v0.2v0.2l0.1,0.2v0.2v0.2v0.2v0.2v0.2v0.2l0.1,0.2v0.2v0.2v0.2v0.2l-0.1,0.2v0.2v0.2
	v0.2l0.1,0.2l-0.1,0.2v0.1l-0.2,0.1l-0.1,0.1l-0.1,0.1v0.2v0.2l-0.1,0.2v0.2l-0.1,0.2v0.2v0.2l0.2,0.1l0.1,0.2l-0.1,0.1l-0.2,0.1
	v-0.2h-0.4l-0.2,0.1v0.2v0.1v0.2l0,0l0.6,0.3h-0.2h-0.2l-0.2,0.1h-0.2h-0.2h-0.2H65h-0.2h-0.2h-0.2l-0.2,0.1h-0.2h-0.2h-0.2h-0.2
	l-0.2-0.1l-0.1-0.1l-0.2-0.1l-0.1-0.1v-0.2l-0.2-0.1h-0.2l-0.1-0.2h-0.2h-0.2h-0.2l-0.2-0.1v-0.2l-0.2-0.1V157l-0.1-0.1v-0.2
	l-0.1-0.1v-0.2l-0.1-0.1v-0.2v-0.2l-0.1-0.1v-0.2l-0.1-0.1v-0.2l-0.1-0.2l0.1-0.2v-0.2l-0.1-0.1v-0.3l-0.1-0.2l0.1-0.2l-0.1-0.2
	v-0.2l-0.1-0.2v-0.2v-0.2l-0.1-0.2l0.1-0.2v-0.2v-0.2v-0.2v-0.2V152v-0.2l-0.1-0.2l0.1-0.2v-0.2l-0.1-0.2V151l-0.1-0.1l-0.1-0.1
	l-0.1-0.2v-0.2l-0.1-0.2v-0.2l0.1-0.2l-0.1-0.2l0.1-0.2l-0.1-0.2v-0.2v-0.2L60,149v-0.1v-0.2l0.1-0.1l-0.1-0.1l-0.1-0.1l-0.1-0.1
	V148v-0.2l-0.1-0.1v-0.2v-0.2v-0.2v-0.2l-0.1-0.2v-0.2l0.1-0.2v-0.2l-0.1-0.2v-0.2V146l0.1-0.2v-0.2v-0.2l-0.1-0.1v-0.2l-0.1-0.2
	v-0.2l-0.1-0.2v-0.2v-0.2V144v-0.2v-0.2l-0.1-0.1v-0.2l0.1-0.2l-0.1-0.2v-0.2l-0.1-0.2v-0.2l0.1-0.2v-0.1l0.1-0.1l0.1-0.2v-0.2v-0.2
	v-0.2l0.1-0.1l0.1-0.2l0.1-0.2v-0.2v-0.2v-0.1l0.1-0.1l0.1-0.1l0.1-0.1l0.1-0.1h0.2l0.1-0.1l0.1-0.1l0.2-0.1h0.2h0.2l0.1-0.1h0.2
	l0.2-0.1h0.2l0.2-0.1h0.2h0.2h0.2l0.2,0.1l0.2-0.1l0.2,0.1h0.2l0.2,0.1h0h0.2l0.2,0.1l0.1,0.1l0.2,0.1l0.1,0.2h0.2v0.2l0.2,0.1
	l0.1,0.1v0.2l0.1,0.1l0.2,0.1l0.2,0.1L65.6,140.9z"/>
<path class="st0" d="M86.9,138.6L86.9,138.6L86.9,138.6l-0.1-0.1l-0.1-0.1h-0.2h-0.2h-0.2v0.2l-0.1,0.1l-0.2,0.1h-0.2h-0.2h-0.2H85
	h-0.2h-0.2l-0.1,0.1v0.2v0.2l0.1,0.2v0.2l0.1,0.2l-0.1,0.2l0.1,0.2v0.1v0.2l-0.1,0.1l-0.1,0.2v0.2l0.2,0.1h0.2v0.2l0.1,0.2v0.2
	l0.1,0.1v0.2v0.2l-0.1,0.4l0.1,0.2v0.2l-0.1,0.1v0.2l-0.1,0.1v0.2v0.2l0.2,0.1l0.1,0.1l0.1,0.2l-0.1,0.2l0.1,0.2v0.2l0.1,0.2v0.3
	v0.2v0.2v0.2v0.2v0.2v0.2v0.2v0.2v0.3v0.2l-0.1,0.2l0.1,0.1v0.1v0.2l0.1,0.2v0.2v0.2l0.2,0.1v0.2l0.1,0.2v0.2v0.2l0.1,0.2v0.2
	l0.1,0.2v0.2v0.2l0.1,0.2v0.2v0.2l-0.2,0.1v0.2v0.2l0.1,0.1l0.1,0.1v0.2l0.1,0.2v0.1v0.1l0.1,0.1v0.2v0.5l0.1,0.2v0.2v0.2l0.1,0.2
	l0.1,0.2v0.2v0.2v0.2l0.1,0.2l-0.2,0.1v0.2v0.3v0.2l0.1,0.2l0.1,0.1v0.1l0.2,0.1v0.2v0.2l0.1,0.2l-0.1,0.2v0.2l0.1,0.2v0.2l0.1,0.1
	l-0.1,0.2v0.3l-0.2,0.1h-0.2h-0.3l-0.2,0.1h-0.2h-0.2h-0.2h-0.2l-0.2,0.1l0,0v-0.1l0.1-0.2l-0.2-0.1l-0.2-0.1h-0.2l-0.1-0.2
	l-0.1-0.2v-0.2l0.1-0.2v-0.2v-0.2l-0.1-0.2l-0.1-0.2l0.1-0.2v-0.2l0.2-0.1v-0.2l0.1-0.1V154l-0.1-0.2l-0.2-0.1l-0.2-0.1v-0.1v-0.7
	v-0.2l-0.1-0.2v-0.2l-0.1-0.2v-0.2v-0.3v-0.2v-0.2v-0.2l0.1-0.2l-0.1-0.2l0.1-0.2l-0.1-0.2v-0.2v-0.2l-0.1-0.1L84,150v-0.2v-0.2
	l-0.1-0.2v-0.2v-0.2L84,149v-0.2v-0.1l0.1-0.1l0.1-0.2l-0.1-0.2v-0.2l-0.2-0.1l-0.2-0.1l0.1-0.2l-0.1-0.2v-0.2l-0.1-0.2v-0.2v-0.2
	v-0.2v-0.1v-0.2v-0.2l0.1-0.1l0.1-0.2l-0.1-0.2l-0.1-0.1l-0.1-0.2h-0.2l-0.1-0.1v-0.2l-0.1-0.2V145v-0.2v-0.2v-0.2v-0.2v-0.2V144
	l-0.1-0.2l-0.1-0.2v-0.2v-0.2l-0.1-0.2V143v-0.2l-0.1-0.2v-0.2v-0.2l0.1-0.2l-0.1-0.1v-0.2v-0.2v-0.2l0.1-0.2l-0.1-0.2v-0.3
	l-0.1-0.1v-0.2v-0.2v-0.3l-0.1-0.2v-0.2v-0.2v-0.2v-0.2h-0.1h-0.2H82h-0.2h-0.2h-0.2h-0.2l-0.2,0.1h-0.2h-0.4l-0.2,0.1l-0.1-0.1
	v-0.2v-0.2l-0.5-0.1v-0.2v-0.2v-0.2v-0.2v-0.2v-0.2v-0.2v-0.2h0.1H80h0.2h0.2l0.2,0.1h0.2H81l0.2,0.1h0.2h0.2h0.2H82l0.1-0.1
	l0.2-0.1h0.2h0.2l0.2-0.1h0.2h0.4l0.2-0.1l0.1,0.1l0.2,0.1l0.2,0.1l0.2-0.1l0.1-0.1l0.1-0.1h0.2h0.2h0.2h0.2h0.2h0.2h0.2h0.2h0.2
	h0.2v0.1v0.2v0.2v0.2l0.1,0.1l-0.1,0.2l0.1,0.1v0.2v0.2v0.2l0.1,0.2l0,0l0,0L86.9,138.6z M82.1,138.6l0.1,0.2l0.2,0.1l0.2-0.1v-0.1
	v-0.1l-0.1-0.1l-0.2-0.1l-0.1,0.1L82.1,138.6z"/>
<path class="st0" d="M74.3,146.6h0.2l0.2-0.1l0.2-0.1h0.2l0.1-0.1l0.1-0.1l0.1-0.1v-0.2l0.1-0.1v-0.2l0.1-0.2v-0.2v-0.2v-0.2v-0.2
	v-0.2v-0.2v-0.2v-0.2l-0.1-0.2v-0.2l-0.1-0.2l0.1-0.2l-0.1-0.2v-0.2l-0.1-0.2v-0.2v-0.2v-0.2l-0.1-0.2v-0.2l0.1-0.2l-0.1-0.2v-0.2
	l-0.1-0.1v-0.2v-0.2l0.1-0.2l-0.1-0.1v-0.2v-0.2l-0.2-0.1l-0.2-0.1v-0.2l-0.2-0.1h-0.2h-0.2H74l-0.2-0.1l-0.2,0.1h-0.2l-0.2,0.1
	h-0.4h-0.2h-0.2v0.1v0.2v0.2v0.2v0.2v0.2v0.2l0.1,0.2l0.1,0.2l-0.1,0.2v0.2v0.2v0.2l0.1,0.1v0.2v0.2l0.1,0.2l-0.1,0.2l0.1,0.2v0.2
	v0.3v0.2v0.2l0.1,0.2v0.2v0.2l0.1,0.2v0.2v0.2l-0.1,0.2v0.2v0.2l0.1,0.2v0.2v0.2l0.1,0.1v0.2v0.2v0.2v0.2v0.1h0.4h0.2h0.2h0.2
	l0.2-0.1L74.3,146.6z M74.4,157.7h-0.2H74l-0.2,0.1l-0.1-0.1h-0.2l-0.1-0.1h-0.2h-0.2l-0.2,0.1l-0.1,0.2v0.1l-0.2,0.1h-0.2h-0.1
	l-0.1-0.2l0.1-0.2v-0.2l-0.1-0.2v-0.2l-0.1-0.1l0.1-0.2v-0.2l-0.1-0.2l-0.1-0.2v-0.2V156l-0.1-0.1v-0.2v-0.2v-0.2l0.1-0.1l0.1-0.2
	V155v-0.1v-0.2l-0.2-0.1v-0.3l-0.1-0.2l0.1-0.2v-0.2v-0.2l0.1-0.2l-0.1-0.2l-0.2-0.1h-0.2l-0.1-0.1l0.1-0.2l-0.1-0.2v-0.2l-0.1-0.2
	v-0.2v-0.3v-0.2v-0.2l0.2-0.1l0.1-0.1v-0.2V151v-0.2l-0.1-0.1v-0.2l-0.1-0.1l-0.1-0.1l-0.1-0.1v-0.2v-0.2v-0.2v-0.2l0.1-0.2
	l-0.1-0.1l0.1-0.2l-0.1-0.2v-0.2v-0.2v-0.2v-0.2V148l0.1-0.1v-0.2v-0.2v-0.2v-0.2l-0.1-0.2l-0.1-0.1l-0.1-0.1v-0.1l-0.1-0.1l0.1-0.2
	v-0.2l-0.1-0.2l0.1-0.2l-0.1-0.2v-0.2l-0.1-0.2v-0.2v-0.3v-0.2v-0.2l-0.1-0.2l-0.1-0.2v-0.2v-0.2l-0.1-0.2v-0.2l0.1-0.2v-0.2v-0.2
	v-0.2l-0.1-0.2v-0.2v-0.2v-0.2v-0.2V142v-0.2v-0.2l-0.1-0.2l-0.1-0.2v-0.2V141l-0.1-0.2v-0.2v-0.2l-0.1-0.2v-0.2V140l0.1-0.2
	l-0.1-0.1v-0.2v-0.2v-0.2l0.1-0.2l-0.1-0.2v-0.2v-0.2v-0.2h0.2h0.2h0.4h0.2H71h0.2h0.2h0.2h0.2H72h0.2h0.2h0.2h0.2H73l0.2-0.1h0.2
	h0.2h0.2H74h0.2h0.2h0.2h0.2l0.2,0.1h0.2h0.2l0.2,0.1h0.2h0.2l0.2,0.1h0.2h0.2l0.2,0.1l0.2,0.1l0.2,0.1v0.2l0.1,0.1l0.1,0.1v0.3v0.2
	v0.2v0.2l0.1,0.1l0.1,0.1l0.1,0.1v0.2l0.2,0.1v0.2v0.2v0.2l0.1,0.1v0.3v0.2v0.2l0.1,0.2v0.2v0.2v0.2v0.2v0.2v0.2l0.1,0.2v0.2v0.2
	v0.2v0.2l-0.1,0.2l0.1,0.1l0,0h-0.2v0.2l-0.2,0.1l0.1,0.2v0.2l0.1,0.1v0.1v0.3v0.2v0.2h-0.2l-0.2,0.1l-0.1,0.1v0.2v0.1l0.1,0.1v0.2
	l-0.2,0.1v0.2l-0.1,0.1l-0.1,0.5v0.2l-0.1,0.1l-0.2,0.1v0.2l0.2,0.1v0.2v0.2l0.1,0.1v0.2v0.2l0.1,0.2v0.2l0.1,0.1v0.2v0.2l0.1,0.1
	v0.2v0.2v0.2l0.2,0.1v0.2l0.1,0.2l0.2,0.1v0.2v0.2l0.1,0.2v0.1l-0.1,0.2l0.1,0.2l0.2,0.1v0.2v0.2l-0.1,0.1v0.2l-0.1,0.1l0.1,0.1
	l0.1,0.1h0.2l0.2,0.1l0.1,0.1v0.2v0.2l0.1,0.1v0.2l0.1,0.1v0.2l0.1,0.1l-0.1,0.2v0.1l0.1,0.2v0.2v0.2l0.1,0.1v0.2l0.2,0.1v0.1v0.3
	l0.1,0.2h0.2v0.2l0.1,0.1v0.2v0.2h-0.1H79l-0.2,0.1l-0.1-0.2l-0.1-0.1l-0.2-0.1l-0.1-0.1l-0.1-0.1l-0.2-0.1h-0.2l-0.1-0.1h-0.2h-0.2
	l-0.1-0.1h-0.2v-0.2l-0.1-0.1l-0.1-0.2l-0.1-0.1v-0.2v-0.2l-0.2-0.1v-0.2l-0.1-0.1v-0.2v-0.2l0.1-0.2l-0.1-0.1l-0.2-0.1v-0.2v-0.2
	l-0.1-0.2v-0.2l-0.1-0.1V153l0.1-0.2v-0.2l-0.1-0.1l-0.1-0.1l-0.1-0.1v-0.3v-0.2l-0.1-0.1v-0.2l-0.1-0.1v-0.2l-0.1-0.1v-0.2v-0.2
	v-0.2v-0.2v-0.2l-0.1-0.1l-0.2-0.1v-0.2v-0.2l-0.1-0.1v-0.2l-0.1-0.1v-0.2v-0.2h-0.1h-0.2h-0.2h-0.2H74h-0.2h-0.2v0.3l0.1,0.2v0.2
	v0.2v0.2v0.2v0.2v0.2l-0.1,0.2v0.2l0.1,0.2v0.2l-0.1,0.2v0.2l0.1,0.2v0.2l0.1,0.2v0.2L74,152v0.2v0.2v0.2v0.2l0.2,0.1v0.2l0.1,0.2
	v0.2l0.1,0.2v0.2v0.2v0.2v0.2l-0.1,0.2l0.1,0.1l-0.1,0.2l0.1,0.1v0.2l-0.1,0.2v0.2l0.1,0.2l-0.2,0.1v0.2v0.2l-0.2,0.1v0.2v0.2v0.2
	v0.2l0.1,0.1v0.2h0.3v0.2v0.2L74.4,157.7L74.4,157.7z"/>
<path class="st0" d="M90.5,137.4v0.2h0.2l0.2-0.1l0.2-0.1l-0.1-0.2l-0.2-0.1h-0.2l-0.1,0.2L90.5,137.4z M97.7,154.6v0.2h0.2h0.2
	l0.1-0.1v-0.1l-0.1-0.1l-0.2-0.1l-0.2,0.1L97.7,154.6L97.7,154.6z M93.3,144.8l0.2-0.1l0.2,0.1l0.2-0.1h0.2h0.2h0.6h0.2h0.2l0.2,0.1
	l0.2-0.1v-0.2l-0.1-0.2v-0.2V144l0.1-0.2l-0.1-0.2v-0.3l-0.1-0.2l-0.1-0.2l0.1-0.2v-0.2l-0.2-0.1v-0.3l-0.1-0.2l0.1-0.2l-0.1-0.2
	v-0.2l-0.1-0.2v-0.3v-0.2v-0.2v-0.2v-0.2v-0.2v-0.2v-0.2v-0.2v-0.2l-0.1-0.2l-0.1-0.2l0.1-0.2v-0.2v-0.2v-0.2l-0.1-0.2v-0.2v-0.2
	l-0.1-0.1l0.1-0.2l-0.1-0.2v-0.2v-0.2v-0.2v-0.2l-0.1-0.1v-0.2v-0.2l-0.1-0.2v-0.2v-0.2H95h0.2l0.2-0.1h0.2h0.2l0.2-0.1h0.2h0.2h0.2
	h0.2H97v0.3l0.1,0.2v0.2v0.2l0.1,0.2l0.1,0.2v0.2v0.2v0.2l0.1,0.2l-0.1,0.2l0.1,0.2v0.2v0.2l-0.1,0.1l-0.1,0.1l-0.1,0.1l-0.1,0.1
	v0.3l0.1,0.1h0.2l0.2,0.1v0.1l0.1,0.2v0.2l0.1,0.1l-0.1,0.2v0.2l0.1,0.2l0.1,0.2v0.2v0.2l0.1,0.1v0.2l-0.1,0.2l-0.1,0.1l-0.2,0.1
	v0.2l0.1,0.2v0.2v0.2h0.2l0.1,0.1l0.1,0.1v0.2l0.1,0.2v0.2l-0.1,0.2v0.2v0.2v0.2l0.1,0.2l-0.1,0.2l0.1,0.1v0.2l0.1,0.2v0.2v0.3v0.2
	v0.2v0.7v0.2l0.1,0.2v0.2l0.1,0.2v0.2v0.5v0.2v0.2l-0.1,0.2l0.1,0.1l-0.1,0.2v0.1l-0.1,0.1v0.1v0.2l0.1,0.1l0.1,0.1l0.1,0.2l0.1,0.1
	v0.2v0.2l-0.1,0.2v0.2v0.2v0.2v0.2l0.1,0.2v0.2l0.1,0.2h0.2v0.2l0.1,0.1v0.2l0.1,0.2v0.2v0.2v0.2v0.2l0.1,0.2l0.1,0.2v0.2v0.2
	l0.1,0.2v0.2l-0.1,0.2v0.2v0.2v0.2v0.2l-0.1,0.1l-0.2,0.1l-0.1,0.1v0.2l-0.1,0.1l-0.1,0.1v0.2v0.2v0.2h-0.2h-0.2h-0.2h-0.2h-0.2
	l-0.2,0.1h-0.2l-0.1-0.2l0.1-0.2l-0.1-0.1v-0.2v-0.2v-0.2l0.1-0.2V154l0.1-0.1v-0.2l-0.1-0.1v-0.2l-0.1-0.1v-0.2V153l-0.1-0.2v-0.2
	l-0.1-0.2v-0.2v-0.2V152v-0.2v-0.2v-0.2v-0.2v-0.2V151l-0.1-0.1v-0.2v-0.2v-0.2l-0.1-0.2V150v-0.2v-0.2l-0.1-0.2v-0.2v-0.2l-0.1-0.2
	v-0.2v-0.2v-0.2v-0.2v-0.2v-0.2v-0.2v-0.2v-0.2l0.1-0.2v-0.2v-0.2v-0.3v-0.2v-0.2l-0.2-0.1l-0.2,0.1h-0.2h-0.2h-0.2l-0.2,0.1h-0.2
	h-1.1h-0.2l-0.2,0.1h-0.4l-0.1,0.1v0.2l0.1,0.2v0.2v0.2v0.2v0.2v0.2v0.2l0.1,0.2v0.2v0.2l0.1,0.2v0.2l-0.1,0.2v0.2v0.2v0.2l0.1,0.1
	l-0.1,0.2l0.1,0.1v0.2v0.2v0.2v0.2v0.2v0.2l0.1,0.2l-0.1,0.2v0.2v0.2l0.1,0.1v0.2v0.2v0.2l-0.1,0.2l0.1,0.2v0.2v0.2l0.1,0.1v0.2
	l-0.1,0.2v0.2l0.1,0.1v0.6l0.1,0.2v0.2v0.2v0.2v0.2v0.2v0.2v0.2l0.1,0.2h-0.6l-0.2,0.1H93l-0.2,0.1h-0.2l-0.2-0.1h-0.2l-0.2,0.1
	h-0.1v-0.2l-0.1-0.1v-0.2v-0.2v-0.2l-0.1-0.1v-0.2v-0.1l0.1-0.1v-0.2l-0.1-0.1l-0.2-0.1v-0.3l-0.1-0.2v-0.2l-0.1-0.2v-0.2l-0.1-0.2
	l0.1-0.2v-0.2l-0.1-0.2v-0.2v-0.1l0.1-0.1l0.2-0.1l-0.1-0.1v-0.2l-0.2-0.1l-0.1-0.2v-0.2l-0.1-0.1l0.1-0.2v-0.1v-0.3v-0.2v-0.2
	l-0.1-0.2l-0.2-0.1l0.1-0.2v-0.2l-0.1-0.2v-0.2V149v-0.2l0.1-0.1l0.2-0.1v-0.2v-0.1l0.1-0.2l-0.2-0.1l-0.1-0.2h-0.2l-0.1-0.2v-0.2
	l0.1-0.2v-0.2l-0.1-0.1v-0.2l-0.1-0.2v-0.2v-0.3l0.1-0.2v-0.2l-0.1-0.1v-0.2v-0.2v-0.2v-0.2l-0.1-0.2v-0.2l0.1-0.2v-0.2v-0.2v-0.2
	V144v-0.2v-0.2v-0.2v-0.2v-0.2V143l0.1-0.2l-0.1-0.1l-0.1-0.1l-0.1-0.1l-0.1-0.1v-0.1v-0.2v-0.2l-0.1-0.1v-0.2v-0.2l-0.1-0.2v-0.2
	l-0.1-0.2v-0.3l-0.1-0.2v-0.2v-0.2v-0.2v-0.2v-0.2v-0.2v-0.3l-0.1-0.2v-0.3l0.1-0.1V138l0.1-0.2l-0.1-0.2l-0.2-0.1l-0.1-0.1v-0.2
	v-0.2l-0.1-0.1v-0.2l-0.1-0.2v-0.1l0.2-0.1h0.2h0.2h0.2H90l0.2-0.1l0.2,0.1h0.2l0.2,0.1h0.9h0.2l0.2,0.1l0.1,0.1v0.2L92,137l0.1,0.2
	l-0.1,0.2l0.1,0.2v0.2l-0.1,0.2v0.2l0.1,0.2l0.1,0.2v0.2l0.1,0.2v0.2v0.2l0.1,0.2v0.2v0.2v0.2l-0.1,0.2l0.2,0.1v0.2v0.2v0.2
	l-0.1,0.1v0.2l-0.1,0.1l-0.1,0.1v0.1l0.2,0.1h0.2v0.2l-0.1,0.2v0.2l0.1,0.2v0.2l0.1,0.2l-0.1,0.2l0.1,0.1v0.3l0.1,0.2l-0.1,0.2v0.2
	l0.1,0.1l-0.1,0.2l0.1,0.1v0.2v0.2v0.2v0.2L93.3,144.8z M96.9,147.3v0.2l0.2,0.1l0.1-0.2l0.2-0.1l-0.1-0.2l-0.2-0.1h-0.2h-0.2
	L96.9,147.3z"/>
<polygon class="st0" points="99.5,154.6 99.5,154.8 99.5,154.9 99.6,155.1 99.5,155.1 99.3,155.2 99.3,155.1 99.3,154.9 99.3,154.7 
	99.4,154.6 "/>
<polygon class="st0" points="111.8,144.8 111.9,144.7 111.8,144.5 111.8,144.4 111.9,144.2 111.8,144 111.8,143.9 111.8,143.7 
	111.7,143.5 111.8,143.4 111.8,143.2 111.8,143 111.8,142.9 111.8,142.7 111.8,142.5 111.8,142.4 111.8,142.2 111.8,142 
	111.8,141.9 111.8,141.7 111.8,141.6 111.8,141.4 111.8,141.2 111.9,141.1 111.8,140.9 111.8,140.7 111.8,140.6 111.8,140.4 
	111.8,140.2 111.9,140.1 111.8,139.9 111.8,139.7 111.9,139.6 111.9,139.4 111.9,139.3 112,139.2 112,139 112,138.9 111.9,138.7 
	111.8,138.7 111.9,138.5 111.9,138.3 111.8,138.2 111.8,138 111.9,137.9 111.9,137.7 111.8,137.5 111.8,137.4 111.8,137.2 
	111.9,137 111.8,136.9 111.9,136.7 111.9,136.5 112,136.4 112.2,136.3 112.3,136.1 112.2,136 112.2,135.8 112.1,135.7 112.1,135.5 
	112,135.4 111.9,135.3 111.9,135.1 111.9,134.9 111.9,134.8 111.8,134.6 111.9,134.5 111.9,134.3 112,134.3 112.2,134.2 
	112.4,134.1 112.6,134.1 112.8,134.2 113,134.1 113.2,134.1 113.4,134 113.6,134.1 113.8,134.1 114,134 114.2,134 114.4,134 
	114.3,134 114.3,133.9 114.2,134.1 114.1,134.2 114,134.3 114,134.5 114,134.6 114.2,134.7 114.3,134.8 114.3,135 114.2,135.1 
	114.3,135.3 114.3,135.5 114.3,135.7 114.3,135.8 114.3,136 114.3,136.1 114.2,136.3 114.2,136.5 114.3,136.6 114.2,136.8 
	114.2,137 114.2,137.1 114.3,137.3 114.1,137.4 113.9,137.5 113.8,137.6 113.8,137.8 113.6,138 113.8,138.1 114,138.1 114.2,138.2 
	114.2,138.3 114.2,138.5 114.2,138.7 114.1,138.8 114.3,139 114.2,139.2 114.2,139.3 114.3,139.5 114.2,139.7 114.1,139.8 
	114.2,140 114.1,140.2 114.3,140.3 114.1,140.5 114.1,140.6 114.2,140.8 114.2,141 114.2,141.2 114.1,141.3 114.2,141.5 
	114.1,141.6 114,141.8 113.8,141.9 113.6,142 113.6,142.2 113.6,142.3 113.5,142.5 113.4,142.6 113.5,142.8 113.5,143 113.7,143.1 
	113.8,143.2 113.9,143.3 114,143.5 114,143.7 114,143.8 114,144 114.1,144.2 114.2,144.3 114,144.5 114.2,144.6 114.1,144.8 
	114.2,145 114.1,145.1 114.1,145.3 114,145.5 114.1,145.6 114.1,145.8 114,146 114,146.1 114,146.3 114,146.5 114,146.6 
	114.1,146.8 114,147 114,147.1 113.9,147.3 113.9,147.4 113.8,147.6 113.8,147.7 113.9,147.9 113.9,148.1 113.9,148.2 114,148.4 
	113.9,148.6 114,148.7 114,148.9 114,149.1 113.9,149.2 113.9,149.4 113.9,149.6 113.9,149.7 114,149.9 114,150 114,150.2 
	113.9,150.4 113.9,150.5 113.9,150.7 113.9,150.9 113.9,151 114,151.2 113.9,151.4 113.9,151.5 114,151.7 113.9,151.8 114,152 
	114,152.2 114,152.3 114,152.5 113.9,152.7 113.9,152.8 113.9,153 114,153.2 114,153.3 113.9,153.5 113.9,153.7 113.9,153.8 
	113.7,153.8 113.4,153.8 113.2,153.8 113,153.8 112.8,153.9 112.6,153.9 112.5,153.9 112.2,153.9 112,153.9 111.8,154 111.7,153.9 
	111.7,153.7 111.6,153.6 111.6,153.4 111.4,153.3 111.4,153.1 111.4,153 111.3,152.8 111.4,152.6 111.3,152.5 111.2,152.3 
	111.1,152.2 111,152 111.1,151.8 111,151.7 110.9,151.5 110.9,151.4 110.8,151.2 110.9,151 110.8,150.9 110.8,150.7 110.7,150.6 
	110.6,150.4 110.6,150.2 110.5,150.1 110.4,149.9 110.4,149.8 110.4,149.6 110.4,149.4 110.3,149.3 110.2,149.1 110.2,149 
	110.1,148.8 110.1,148.7 110.1,148.5 110,148.3 110,148.2 109.9,148 109.9,147.8 109.8,147.7 109.7,147.6 109.7,147.4 109.7,147.2 
	109.6,147.1 109.5,146.9 109.5,146.7 109.5,146.6 109.4,146.4 109.4,146.2 109.4,146.1 109.3,145.9 109.3,145.8 109.2,145.6 
	109.1,145.5 109.1,145.3 109.1,145.1 109,145 108.9,144.8 108.8,144.7 108.8,144.5 108.8,144.3 108.8,144.2 108.7,144 108.6,143.9 
	108.6,143.7 108.5,143.6 108.5,143.4 108.5,143.2 108.4,143.1 108.3,142.9 108.3,142.8 108.3,142.6 108.2,142.4 108.2,142.3 
	108.2,142.1 108.1,142 107.9,141.8 108,141.9 108,142.1 107.9,142.2 108,142.4 108,142.6 108,142.7 108,142.9 108,143 108,143.2 
	108,143.4 108,143.5 108,143.7 108,143.9 108,144 108,144.2 108,144.4 107.9,144.5 107.9,144.7 107.9,144.9 107.9,145 108,145.2 
	107.9,145.4 108,145.5 107.9,145.7 107.9,145.8 107.9,146 107.9,146.2 107.9,146.3 107.8,146.4 107.8,146.6 107.7,146.8 
	107.7,146.9 107.8,147.1 108,147.2 108,147.4 108,147.6 108,147.7 107.9,147.9 107.9,148 107.9,148.2 107.8,148.4 108,148.5 
	108,148.7 107.9,148.9 107.8,149 108,149.2 107.9,149.4 107.9,149.5 108,149.7 108,149.9 107.8,150 107.8,150.2 107.7,150.3 
	107.8,150.5 107.8,150.6 107.7,150.8 107.7,151 107.6,151.1 107.5,151.2 107.4,151.4 107.6,151.5 107.8,151.6 107.8,151.7 
	107.9,151.8 107.9,152 107.8,152.2 107.8,152.3 107.9,152.5 107.8,152.6 107.8,152.8 107.8,153 107.7,153.1 107.5,153.1 
	107.3,153.1 107.3,153.2 107.2,153.3 107.1,153.5 107,153.6 106.9,153.8 106.8,153.9 106.9,154.1 106.8,154.2 106.8,154.4 
	106.7,154.5 106.5,154.5 106.3,154.6 106.1,154.6 105.9,154.6 105.7,154.5 105.6,154.4 105.5,154.3 105.5,154.1 105.5,154 
	105.3,153.8 105.4,153.6 105.2,153.5 105.2,153.3 105.1,153.2 105.1,153 105.1,152.8 105,152.7 105,152.5 105,152.4 104.9,152.2 
	104.9,152.1 104.8,151.9 104.8,151.7 104.9,151.6 104.9,151.4 105,151.3 104.8,151.1 104.6,151.1 104.5,150.9 104.5,150.8 
	104.4,150.6 104.3,150.5 104.3,150.3 104.2,150.2 104.1,150 104.2,149.8 104.1,149.7 104.1,149.5 104,149.3 104.1,149.2 104.1,149 
	104.3,148.9 104.3,148.7 104.1,148.6 103.9,148.5 103.7,148.4 103.6,148.3 103.6,148.1 103.6,147.9 103.6,147.8 103.4,147.6 
	103.4,147.5 103.4,147.3 103.5,147.2 103.5,147 103.3,147 103.2,146.8 103.2,146.6 103.2,146.5 103.1,146.3 103,146.2 102.9,146 
	102.9,145.8 102.9,145.7 102.9,145.5 102.8,145.4 102.8,145.2 102.7,145.1 102.7,144.9 102.5,144.8 102.5,144.6 102.5,144.4 
	102.4,144.3 102.4,144.1 102.4,143.9 102.3,143.8 102.2,143.6 102.1,143.5 102.2,143.3 102.1,143.2 102.1,143 101.9,142.9 
	101.9,142.7 101.9,142.5 101.8,142.4 101.8,142.2 101.7,142 101.6,141.9 101.6,141.7 101.5,141.6 101.5,141.4 101.5,141.2 
	101.5,141.1 101.4,140.9 101.4,140.8 101.4,140.6 101.4,140.4 101.4,140.3 101.3,140.2 101.1,140.1 101.1,139.9 101.1,139.7 
	100.9,139.6 101,139.5 101.2,139.4 101.3,139.2 101.1,139.1 100.9,139 100.9,138.9 100.9,138.7 100.7,138.6 100.6,138.4 
	100.6,138.3 100.6,138.1 100.6,137.9 100.4,137.8 100.4,137.6 100.3,137.5 100.3,137.3 100.2,137.2 100.1,137 100.1,136.8 
	100.1,136.7 100,136.5 100.1,136.3 99.9,136.2 100,136 99.8,135.9 99.8,135.7 99.8,135.5 99.7,135.5 99.9,135.4 100.1,135.3 
	100.3,135.4 100.5,135.3 100.7,135.4 100.9,135.3 101.1,135.3 101.3,135.2 101.5,135.2 101.7,135.2 102,135.3 102.2,135.2 
	102.2,135.4 102.3,135.5 102.3,135.7 102.3,135.9 102.4,136 102.4,136.2 102.5,136.3 102.5,136.5 102.6,136.7 102.6,136.8 
	102.7,137 102.6,137.1 102.6,137.3 102.7,137.5 102.6,137.6 102.7,137.8 102.5,138 102.7,138.1 102.7,138.3 102.8,138.4 103,138.5 
	103,138.7 103.1,138.8 103.3,138.9 103.2,139.1 103.4,139.2 103.4,139.4 103.5,139.5 103.6,139.7 103.5,139.9 103.6,140 
	103.7,140.2 103.6,140.4 103.7,140.5 103.9,140.7 103.8,140.8 103.9,141 103.9,141.2 104,141.3 103.9,141.5 104.1,141.6 
	104.2,141.8 104.2,142 104.2,142.1 104.2,142.3 104.1,142.5 104.3,142.6 104.3,142.7 104.5,142.8 104.6,142.9 104.5,143.1 
	104.6,143.3 104.6,143.4 104.7,143.6 104.8,143.7 104.7,143.9 104.8,144.1 104.9,144.2 104.8,144.4 104.9,144.6 105,144.7 
	105.1,144.9 105.1,145 105,145.2 105.1,145.4 105.3,145.5 105.2,145.7 105.3,145.8 105.4,146 105.3,146.2 105.4,146.3 105.4,146.5 
	105.5,146.6 105.5,146.8 105.6,147 105.6,147.1 105.6,147.3 105.8,147.4 105.8,147.6 105.8,147.8 105.8,147.9 105.8,148.1 
	105.8,148.3 106,148.4 105.9,148.6 106,148.7 106,148.9 106.1,148.8 106,148.6 106.1,148.5 106.1,148.3 106,148.2 106,148 
	106,147.8 106,147.7 106,147.5 106,147.3 106,147.2 105.9,147 106,146.8 105.9,146.7 105.9,146.5 106,146.3 105.9,146.2 106,146 
	105.9,145.8 105.9,145.7 106,145.5 105.9,145.4 106,145.2 105.9,145 105.9,144.9 106,144.7 106,144.5 105.9,144.4 105.9,144.2 
	106,144 105.9,143.9 106,143.7 105.9,143.5 106,143.4 106,143.2 105.9,143 105.9,142.9 105.9,142.7 105.9,142.6 105.9,142.4 
	105.9,142.2 105.9,142.1 106,141.9 105.9,141.7 106,141.6 105.9,141.4 106,141.2 106,141.1 106,140.9 106,140.8 106,140.6 
	106,140.4 105.9,140.3 106,140.1 106.1,139.9 106.2,139.8 106.2,139.6 106.3,139.5 106.2,139.3 106.2,139.1 106.2,139 106.2,138.8 
	106.1,138.7 106.1,138.5 106,138.4 105.9,138.2 106,138 106,137.9 106,137.7 106,137.5 106.1,137.4 106,137.2 106,137.1 106,136.9 
	106,136.7 106.1,136.6 105.9,136.4 106.1,136.2 106,136.1 106.1,135.9 106,135.7 106,135.6 106.1,135.4 105.9,135.2 106,135.1 
	106,134.9 106.1,134.9 106.3,134.7 106.5,134.8 106.7,134.7 106.9,134.7 107.1,134.7 107.3,134.7 107.4,134.8 107.6,134.9 
	107.8,134.9 108,134.9 108.1,135.1 108.1,135.3 108.3,135.4 108.2,135.6 108.3,135.7 108.4,135.9 108.4,136.1 108.5,136.2 
	108.4,136.4 108.6,136.5 108.5,136.7 108.7,136.9 108.6,137 108.8,137.2 108.8,137.3 108.9,137.5 108.9,137.6 108.8,137.8 
	108.8,138 108.8,138.1 108.8,138.3 108.8,138.4 108.8,138.5 109,138.7 109.2,138.7 109.3,138.9 109.3,139 109.5,139.1 109.5,139.2 
	109.3,139.3 109.3,139.4 109.5,139.2 109.6,139.2 109.6,139.2 109.5,139.1 109.6,139.1 109.6,139.3 109.5,139.5 109.5,139.6 
	109.6,139.8 109.6,140 109.6,140.1 109.6,140.3 109.6,140.5 109.7,140.6 109.5,140.7 109.4,140.9 109.5,141.1 109.5,141.2 
	109.6,141.3 109.8,141.4 110,141.4 110,141.6 110,141.8 110.2,141.9 110.1,142.1 110.2,142.2 110.2,142.4 110.4,142.6 110.4,142.7 
	110.4,142.9 110.5,143 110.5,143.2 110.6,143.4 110.7,143.5 110.7,143.7 110.7,143.8 110.8,144 110.8,144.2 110.8,144.3 
	110.8,144.5 111,144.6 111,144.8 111.1,145 111.1,145.1 111.1,145.3 111.2,145.4 111.2,145.6 111.3,145.8 111.3,145.9 111.4,146.1 
	111.3,146.3 111.4,146.4 111.4,146.6 111.4,146.7 111.5,146.9 111.6,147 111.6,147.2 111.7,147.4 111.7,147.5 111.8,147.7 
	111.8,147.9 111.8,148 111.9,148.2 111.9,148.3 111.8,148.2 112,148 111.9,147.9 111.9,147.7 111.9,147.6 111.9,147.4 111.9,147.2 
	111.8,147.1 111.8,146.9 111.8,146.7 111.8,146.6 111.8,146.4 111.9,146.2 111.8,146.1 111.8,145.9 111.9,145.7 111.9,145.6 
	111.7,145.4 111.9,145.2 111.8,145.1 111.8,144.9 "/>
<path class="st0" d="M114.1,142.6v0.2l0,0V142.6v-0.1V142.6z M114.1,142.5L114.1,142.5L114.1,142.5z"/>
<path class="st0" d="M114.1,142.6v0.2l0,0V142.6v-0.1V142.6z M114.1,142.5L114.1,142.5L114.1,142.5z"/>
<polygon class="st0" points="109.3,139.4 109.4,139.3 109.5,139.3 "/>
<polygon class="st0" points="100.3,137.4 100.4,137.2 100.2,137.1 100.2,136.9 100.2,136.8 100.1,136.8 100.2,136.9 100.2,137.1 
	100.4,137.2 100.4,137.4 "/>
<polygon class="st0" points="107.9,153.6 107.8,153.8 107.8,153.9 107.9,154.1 107.8,154.2 107.8,154.4 107.6,154.4 107.4,154.4 
	107.2,154.3 107.3,154.1 107.4,154 107.6,153.9 107.6,153.7 107.8,153.6 "/>
<path class="st0" d="M120.1,153L120.1,153z M120,153L120,153l0.1-0.1H120V153z"/>
<path class="st0" d="M120.1,153.1L120.1,153.1L120.1,153.1L120.1,153.1z M120.1,153.1L120.1,153.1L120.1,153.1z"/>
<polygon class="st0" points="120,153.1 120.1,153.1 120.2,153 120.1,153 "/>
<path class="st0" d="M120.6,151.8v0.2h0.2l0.2-0.1l0.2-0.1l-0.1-0.2l-0.2-0.1h-0.2l-0.1,0.2L120.6,151.8z M120.6,152.9l-0.1-0.1
	l-0.1-0.1l-0.1-0.1l-0.1-0.1H120l-0.1-0.1v-0.2V152v-0.2l-0.2-0.2v-0.2l-0.1-0.2l0.1-0.2l-0.1-0.2v-0.2l-0.1-0.2v-0.2v-0.2v-0.2
	v-0.2v-0.2l0.1-0.2l-0.1-0.1v-0.1l-0.1-0.1V149v-0.2l0.1-0.2l-0.1-0.2v-0.2v-0.2l-0.1-0.2v-0.2l0.1-0.2v-0.2l-0.2-0.1v-0.2l-0.1-0.2
	l0.1-0.2l-0.1-0.2v-0.2l-0.1-0.2V146v-0.2v-0.2v-0.2v-0.2v-0.2V145v-0.2v-0.2v-0.2l-0.1-0.2l-0.1-0.2l0.1-0.2v-0.3v-0.2l-0.1-0.2
	v-0.2l0.2-0.1V143l0.1-0.1l-0.1-0.2v-0.3l-0.1-0.1V142l-0.2-0.1v-0.2v-0.2l-0.1-0.1v-0.2v-0.2l0.1-0.2v-0.2l-0.1-0.2l-0.1-0.2v-0.2
	v-0.2l-0.1-0.1v-0.2v-0.2v-0.2v-0.2v-0.5l-0.1-0.2v-0.2v-0.2l-0.1-0.2l-0.1-0.2v-0.2v-0.2v-0.2l-0.1-0.2l0.1-0.2l-0.1-0.2v-0.2v-0.2
	v-0.2v-0.2v-0.2V136l-0.2-0.1v-0.2v-0.2l-0.1-0.1l0.1-0.2V135l-0.1-0.2v-0.2l-0.1-0.1l0.1-0.2v-0.2l-0.1-0.2l0.1-0.2l0.2-0.1
	l0.1-0.1l0.2-0.1h0.2h0.2h0.2h0.2h0.4l0.2,0.1l0.2,0.1l0.2-0.1h0.2l0.2-0.1h0.2l0.1-0.1l0.1-0.1h0.2h0.2h0.2h0.2l0.2-0.1l0.2,0.1
	l0.2-0.1h0.2l0.2-0.1h0.2h0.4h0.2h0.2v0.7v0.2l0.1,0.2v0.2l0.1,0.2v0.2v0.3v0.1h-0.2h-0.2h-0.2l-0.2,0.1V135h-0.2l-0.2,0.1h-0.2
	h-0.2h-0.2h-0.2h-0.2l-0.2,0.1h-0.2H121h-0.2h-0.2h-0.2l-0.2,0.1v0.3l0.1,0.1v0.2v0.2l0.1,0.2l-0.1,0.2l0.1,0.1v0.2l0.1,0.2v0.2v0.2
	v0.2v0.2l0.1,0.2l0.1,0.2v0.2v0.2l0.1,0.2v0.2l-0.2,0.1l-0.1,0.2v0.2l-0.1,0.1l0.1,0.1l0.1,0.1h0.2v0.1v0.2v0.2v0.2v0.2l0.1,0.2
	l0.1,0.2l-0.1,0.1l-0.1,0.2l0.1,0.1v0.1v0.2l0.1,0.2v0.2v0.2l-0.1,0.2l0.1,0.1h0.1h0.2h0.2l0.2,0.1l0.2-0.1h0.4l0.2-0.1h0.2h0.2
	l0.2,0.1v0.2l0.1,0.2l-0.1,0.1v0.2v0.2l-0.1,0.2l0.1,0.1l0.1,0.1l0.1,0.1v0.1v0.2v0.2v0.1l-0.2,0.1h-0.2l-0.1-0.1h-0.5l-0.1,0.1
	L122,144h-0.2h-0.2l-0.2,0.1h-0.2H121v0.2v0.2v0.2v0.2v0.2v0.2v0.2v0.2v0.2v0.2l-0.1,0.2v0.2v0.2v0.3v0.2v0.2v0.2l0.1,0.2v0.2v0.2
	v0.2l0.1,0.2v0.2v0.2v0.2l0.1,0.1v0.3v0.2v0.2v0.2l-0.1,0.1l-0.1,0.1v0.2v0.2l0.1,0.1l0.2,0.1l0.1,0.2v0.2v0.2l0.1,0.2v0.2v0.1h0.2
	h0.2h0.2l0.2-0.1l0.2,0.1l0.2-0.1h0.2h0.4h0.2h0.2l0.1,0.1h0.2l0.2,0.1l0.2-0.1l0.1-0.1l0.2-0.1h0.2h0.2l0.1,0.2l-0.1,0.2l0.1,0.2
	v0.2v0.2l0.1,0.2v0.2l-0.1,0.2v0.2l0.1,0.1v0.3l-0.2,0.1h-0.2h-0.2h-0.2h-0.2h-0.2h-0.2h-0.2l-0.2,0.1h-0.2h-0.2l-0.1,0.1l-0.2,0.1
	h-0.4l-0.2,0.1h-0.2l-0.2-0.1h-0.2l-0.2,0.1h-0.1l-0.2-0.1l-0.2,0.1l-0.1,0.1h-0.2h-0.2l-0.2,0.1l-0.2-0.1l-0.1-0.1L120.6,152.9z
	 M123.4,152.1l0.1,0.1h0.4l0.1-0.1l-0.1-0.1l-0.1-0.1h-0.2h-0.2L123.4,152.1z"/>
<polygon class="st0" points="120.1,153 120.1,153.2 120.1,153 120.1,153 120,152.9 119.9,152.8 120.1,152.8 120.3,152.7 
	120.1,152.7 120.2,152.8 120.1,152.9 120.1,153 "/>
<polygon class="st0" points="120.1,153 120.1,153.1 120,153.1 120.1,153 120.1,153 120,152.9 119.9,152.9 120.1,152.8 120.1,152.7 
	120.2,152.8 120.2,152.8 120,153 120.1,153 120.1,153 120.1,153 120.1,153 "/>
<polygon class="st0" points="121,151.8 121.2,151.7 121.3,151.6 121.5,151.7 121.5,151.8 121.5,152 121.4,152.1 121.2,152.1 
	121,152 "/>
<path class="st0" d="M135.2,150.7l-0.2,0.1v0.2l-0.1,0.1h-0.2l-0.2,0.1l-0.2,0.1l-0.1,0.1v0.2H134l-0.2,0.1h-0.2h-0.2h-0.2H133h-0.2
	h-0.2h-0.2h-0.2h-0.4l-0.2-0.1h-0.2l-0.1-0.2H131l-0.2-0.1h-0.2l-0.2-0.1l-0.1-0.1l-0.1-0.1l-0.2-0.1l-0.1-0.1v-0.1v-0.2v-0.2
	l-0.2-0.1h-0.1h-0.2V150l-0.1-0.1v-0.2v-0.2l-0.1-0.1l-0.1-0.1l0.1-0.2v-0.2l-0.2-0.1v-0.2l-0.1-0.2l0.1-0.2l-0.1-0.1v-0.2l-0.1-0.2
	v-0.2v-0.2v-0.2v-0.2v-0.2v-0.2v-0.2v-0.2v-0.2v-0.2V146l0.1-0.1h0.2l0.2-0.1l0.2-0.1h0.1l0.2-0.1h0.2h0.2l0.2-0.1h0.2l0.2-0.1h0.2
	v0.2v0.2v0.2l0.1,0.1v0.2v0.2l0.1,0.2v0.2v0.2L131,147v0.2l0.1,0.2l0.1,0.2v0.2v0.2l0.1,0.1v0.2v0.2v0.2v0.2v0.5l0.1,0.1v0.2v0.2
	l0.2,0.1l0.2,0.1l0.1,0.1h0.2h0.2l0.2-0.1h0.2l0.2-0.1l0.2-0.1l0.1-0.1l0.2-0.1v-0.2V149v-0.2l-0.2-0.2v-0.2v-0.2l-0.1-0.1l0.1-0.2
	v-0.2l-0.1-0.2v-0.2l-0.1-0.1l0.1-0.2V147l-0.1-0.2l-0.1-0.2v-0.2v-0.2l-0.1-0.1v0v-0.2v-0.2v-0.2l-0.1-0.1l-0.2-0.1v-0.3l-0.2-0.1
	l-0.1-0.2l-0.2-0.1v-0.2l-0.1-0.1l-0.1-0.1v-0.2l-0.1-0.1l-0.1-0.1l-0.2-0.1l-0.2-0.1v-0.2h-0.2l-0.1-0.2l-0.2-0.1l-0.1-0.1
	l-0.1-0.1l-0.1-0.1l-0.2-0.1l-0.1-0.1l-0.1-0.1v-0.1v-0.2l-0.1-0.2l-0.1-0.1l-0.2-0.1l-0.1-0.1l-0.2-0.1l-0.2-0.1l-0.1-0.1l-0.1-0.1
	l-0.1-0.1l-0.1-0.1l-0.1-0.1v-0.2l-0.2-0.1v-0.2l-0.2-0.1l-0.1-0.1l-0.1-0.2v-0.2v-0.1l0.1-0.1l0.1-0.2l-0.2-0.1h-0.2l-0.1-0.1v-0.2
	v-0.2v-0.2v-0.2v-0.2l-0.1-0.1V138v-0.2l-0.1-0.2l0.1-0.2l-0.1-0.2v-0.2l-0.1-0.2v-0.2v-0.2v-0.2v-0.2l-0.1-0.2V136l0.2-0.1l0.1-0.1
	v-0.3l0.1-0.2l-0.1-0.2l-0.1-0.1v-0.2v-0.2v-0.2l0.1-0.1l0.1-0.2V134l0.1-0.1l0.1-0.1l0.1-0.1l0.1-0.1l0.1-0.2l0.2-0.1l0.2-0.1
	l0.1-0.1h0.2l0.2-0.1l0.2-0.1l0.2-0.1h0.2v0.1l0.2,0.1l0.1,0.1h0.2l0.1-0.1l0.2-0.1v-0.2h0.2h0.2l0.2-0.1h0.2h0.2h0.2l0.2,0.1h0.2
	l0.1,0.1h0.2v0.2v0.2l0.1,0.1l0.1,0.1l0.1,0.2l0.2,0.1l0.2,0.1l0.2,0.1l0.1,0.1l0.2,0.1l0.1,0.2v0.2v0.2l0.1,0.1v0.2v0.2v0.2
	l0.1,0.1v0.2v0.2l0.1,0.1v0.2v0.2v0.2v0.2v0.2v0.2v0.2v0.2l-0.1,0.1l-0.1,0.2l0.2,0.1l0.2,0.1v0.2v0.2v0.2h-0.2h-0.2l-0.2,0.1H133
	h-0.2h-0.2l-0.2,0.1h-0.2l-0.1-0.1l-0.2-0.1h-0.2l-0.2-0.1l-0.1-0.1v-0.1v-0.2l-0.1-0.2v-0.2V137v-0.2v-0.2v-0.2v-0.2l-0.1-0.2V136
	l0.1-0.1v-0.2v-0.2v-0.2l-0.1-0.1v-0.1v-0.2l-0.2-0.1v-0.2l-0.2-0.1l-0.1-0.1l-0.2-0.1h-0.2h-0.2h-0.2h-0.2l-0.1,0.1h-0.2l-0.1,0.2
	v0.2l0.1,0.2v0.3v0.2l-0.1,0.2l0.1,0.2v0.2v0.2l0.1,0.1v0.2l-0.1,0.2v0.3l0.1,0.1v0.3l0.1,0.2v0.2l-0.1,0.2v0.2v0.2l0.1,0.1v0.2v0.1
	l0.2,0.1l0.1,0.1v0.2v0.2l0.2,0.1v0.2v0.2l0.2,0.1l0.1,0.2v0.2v0.1l0.1,0.2l0.1,0.2h0.2l0.2-0.1l0.2,0.1l0.1,0.1l0.1,0.1h0.2
	l0.1,0.1l0.1,0.1l0.1,0.1l0.2,0.1l0.1,0.1l0.1,0.1v0.2l0.1,0.1l0.2,0.1l0.1,0.1h0.2l0.1,0.1h0.2v0.2l0.1,0.1l0.2,0.1l0.1,0.1
	l0.1,0.1l0.2,0.1v0.5l0.2,0.1v0.2l0.1,0.2v0.3l0.2,0.1v0.2l0.1,0.1l0.1,0.1l0.2,0.1v0.1v0.2v0.2l0.1,0.1l-0.1,0.2v0.2l0.1,0.2v0.1
	v0.2v0.2l0.1,0.2v0.2l0.1,0.2v0.2l-0.1,0.2l0.1,0.2l-0.2,0.1v0.2v0.1l0.2,0.1l-0.1,0.2v0.2l0.1,0.2v0.2v0.2v0.2v0.2l-0.2,0.1v0.2
	v0.2l-0.1,0.1l-0.1,0.1l-0.1,0.2v0.2v0.2L135.2,150.7z M132.2,134.6l0.1,0.2h0.2l0.2-0.1v-0.1v-0.2l-0.2-0.1h-0.2l-0.1,0.1
	L132.2,134.6z"/>
<polygon class="st0" points="134.8,151.2 134.7,151.2 134.7,151.2 134.8,151.2 135,151.1 "/>
<path class="st0" d="M143.7,148.3l-0.1,0.2l0.1,0.2v0.2v0.2l0.1,0.2v0.3l0.1,0.1v0.2v0.2v0.2v0.1l-0.1,0.2l-0.1,0.1l-0.1,0.1
	l-0.1,0.1h-0.2h-0.2h-0.2h-0.2h-0.2l-0.2,0.1l-0.2-0.1l-0.2,0.1h-0.2v-0.1v-0.2v-0.2v-0.2l-0.1-0.2v-0.2l0.1-0.2l-0.1-0.2v-0.2
	l-0.1-0.1v-0.2V149l0.1-0.2l-0.1-0.2v-0.3l-0.1-0.2l-0.1-0.2l0.1-0.2v-0.2l-0.2-0.1v-0.2l-0.1-0.2l0.1-0.2l-0.1-0.2v-0.2l-0.1-0.2
	v-0.3V146v-0.2v-0.2v-0.2v-0.2v-0.1l0.1-0.1v-0.2v-0.2v-0.2l-0.1-0.1v-0.2l-0.1-0.1l-0.1-0.1l-0.1-0.1l-0.1-0.2v-0.2v-0.2l-0.1-0.1
	l0.1-0.2v-0.2l0.1-0.1l0.1-0.1v-0.2v-0.2l-0.1-0.2V142v-0.2l-0.1-0.1l-0.1-0.1l-0.1-0.1v-0.2l-0.1-0.1l-0.2-0.1l-0.1-0.1v-0.2v-0.2
	l-0.1-0.2v-0.2V140v-0.2v-0.2v-0.5l-0.1-0.2v-0.2v-0.2l-0.1-0.2l-0.1-0.2v-0.2V138v-0.2l-0.1-0.2l0.1-0.2l-0.1-0.1v-0.2V137v-0.2
	v-0.2v-0.2v-0.2l-0.2-0.1v-0.2v-0.2l-0.1-0.1l0.1-0.2v0l-0.1-0.2v-0.2l-0.1-0.1l0.1-0.2v-0.2l-0.1-0.2l-0.1-0.2v-0.2v-0.2l-0.1-0.1
	v-0.2v-0.2h-0.1h-0.2l-0.2,0.1l-0.2,0.1H138h-0.2l-0.2,0.1h-0.2l-0.2,0.1H137h-0.2h-0.2v-0.2v-0.2v-0.2l-0.1-0.2l-0.1-0.2l0.1-0.2
	l-0.1-0.1v-0.2l-0.1-0.2v-0.2V132h0.1h0.2h0.8h0.2l0.2-0.1h0.2h0.2h0.2h0.6h0.2h0.2l0.2,0.1l0.2-0.1l0.2,0.1l0.2-0.1h0.2h0.5v0.2
	v0.2l0.2,0.1h0.2l0.1-0.1l0.2-0.1l0.1-0.1h0.2h0.2h0.2l0.1-0.2l0.1-0.1h0.2l0.2-0.1l0.2,0.1l0.2-0.1h0.4l0.1,0.2v0.2v-0.4v0.2v0.2
	l0.1,0.2l0.1,0.2v0.2v0.2v0.1l-0.1,0.1h-0.2l-0.1,0.1l-0.1,0.1h-0.2l-0.2,0.1h-0.2h-0.2h-0.2h-0.2h-0.2h-0.2v0.2l0.1,0.2l0.1,0.2
	v0.2v0.2l0.1,0.2v0.2v0.2l0.1,0.2v0.2v0.2l-0.1,0.2l0.1,0.1v0.2v0.2v0.2l-0.1,0.2l0.1,0.2v0.2v0.2l0.1,0.2v0.2v0.2v0.3l0.1,0.1v0.2
	l0.1,0.1l0.1,0.1v0.2l0.1,0.1v0.2v0.2v0.2v0.2v0.2v0.2l0.1,0.2v0.2v0.2v0.2l0.1,0.2v0.2v0.2v0.2l0.1,0.2v0.2v0.2l0.1,0.2v0.2v0.2
	v0.2v0.2v0.2v0.2v0.2v0.2v0.2l-0.1,0.2v0.2v0.2v0.6v0.2v0.2v0.2l0.1,0.2v0.2v0.2v0.2l0.1,0.2v0.2v0.2v0.2l0.1,0.1v0.3v0.2l-0.1,0.1
	v0.1v0.2v0.2v0.2v0.2v0.2v0.2l0.1,0.1v0.3l0.1,0.1l0.1,0.1v0.2L143.7,148.3z M142.3,131.9l0.1,0.2h0.2h0.2l0.1-0.2v-0.2l-0.1-0.2
	h-0.2l-0.2,0.1L142.3,131.9L142.3,131.9z"/>
<path class="st0" d="M156.2,140.6l-0.1,0.2l0.1,0.2v0.2v0.2l0.1,0.2v0.3l0.1,0.1v0.2v0.2v0.2v0.2v0.2v0.2v0.2v0.2v0.2v0.2v0.2
	l0.1,0.2v0.2l0.1,0.2l-0.1,0.2l0.1,0.2v0.2v0.2v0.2l-0.1,0.2v0.2v0.2v0.2l-0.1,0.2l0.1,0.2v0.2l0.2,0.1l0.1,0.1l0.1,0.2l-0.1,0.2
	l0.1,0.2v0.3l0.1,0.1l0.1,0.2l-0.1,0.2v0.2l0.2,0.1v0.2l0.1,0.2l-0.1,0.2l0.1,0.2v0.2l0.1,0.2v0.3v0.2h-0.2H157h-0.2h-0.2h-0.2h-0.2
	H156h-0.2h-0.2l-0.2,0.1l-0.2-0.1h-0.1v-0.2v-0.2l-0.1-0.2v-0.2v-0.2l-0.1-0.1l0.1-0.2l-0.1-0.2v-0.2v-0.2l-0.1-0.2v-0.2l-0.1-0.2
	l0.1-0.1l0.1-0.2l-0.1-0.2v-0.2v-0.2l0.1-0.2v-0.2l-0.1-0.2l-0.1-0.1v-0.2v-0.2l-0.2-0.1l-0.1-0.2v-0.2v-0.2v-0.2v-0.5l-0.1-0.2
	v-0.2V144v-0.2v-0.2v-0.2v-0.2v-0.2l-0.1-0.1v-0.2l-0.2-0.1l-0.1-0.2v-0.2v-0.2v-0.2v-0.2v-0.2l-0.2-0.1v-0.2v-0.2l-0.1-0.1l0.1-0.2
	v0l-0.1-0.2v-0.2l-0.1-0.1l0.1-0.2v-0.2l-0.1-0.2l-0.1-0.2l0.2-0.1l0.2-0.1v-0.2l0.2-0.1l0.1-0.1l0.1-0.1l0.2-0.1l-0.1-0.2H154
	l-0.2-0.1l-0.1-0.2h-0.2l-0.1-0.1l-0.1-0.1v-0.2l-0.1-0.2v-0.2l0.1-0.2v-0.2v-0.2v-0.2l-0.1-0.1v-0.2l-0.1-0.1v-0.2l-0.1-0.2V136
	v-0.5v-0.2v-0.2v-0.7v-0.2l-0.1-0.2v-0.2l-0.1-0.2l0.1-0.1h0.2l0.2-0.1l0.2-0.1v-0.2l-0.1-0.1l-0.1-0.2H153l-0.1-0.2h-0.2l-0.1-0.1
	v-0.3v-0.2v-0.2v-0.2l-0.1-0.2v-0.2v-0.2l0.1-0.2v-0.2v-0.2v-0.2v-0.2l-0.1-0.1v-0.2v-0.2l0.2-0.1l0.2,0.1l0.2-0.1h0.2l0.2-0.1h0.6
	h0.2l0.2-0.1h0.2h0.2h0.2l0.2-0.1h0.2h0.2h0.2h0.2h0.2l0.2-0.1h0.2h0.2h0.2h0.2h0.2h0.2h0.2h0.2l0.2-0.1h0.2v0.2l0.1,0.2v0.2v0.2
	l0.1,0.2v0.2v0.2l-0.1,0.2l0.1,0.1v0.2v0.2v0.2l-0.3-0.2l-0.2,0.1h-0.4l-0.2,0.1h-0.2h-0.2H157l-0.2-0.1l-0.1-0.1v-0.2l-0.2-0.1
	h-0.2h-0.2l-0.1,0.2l-0.1,0.1l-0.2,0.1l-0.1,0.1h-0.2h-0.2h-0.2l-0.1,0.1v0.2v0.2v0.2l0.1,0.2v0.2v0.2v0.2l0.1,0.2v0.2v0.2l0.1,0.2
	l-0.1,0.2v0.3v0.2v0.5v0.1l0.1,0.1l0.1,0.1l0.1,0.1v0.2v0.3v0.2v0.2v0.2l0.1,0.2v0.2v0.2l-0.1,0.1v0.2v0.2l0.1,0.2h0.1l0.1,0.1v0.3
	v0.2v0.2l0.1,0.2l0,0h0.2h0.2h0.2h0.2h0.2h0.2h0.2h0.2h0.2h0.3l-0.1,0.2v0.2v0.2v0.2l0.1,0.1l-0.1,0.2l0.1,0.2v0.2v0.2v0.2v0.2v0.1
	h-0.2l-0.2,0.1l-0.2-0.1h-0.2h-0.2l-0.2,0.1h-0.2h-0.2h-0.2l-0.2-0.1L156.2,140.6z M156.6,130.6l0.1,0.2h0.2l0.1-0.1l0.2-0.1v-0.2
	H157h-0.2l-0.1,0.1L156.6,130.6z"/>
<polygon class="st0" points="153.5,138.8 153.5,139 153.5,139 153.6,138.9 153.5,138.8 "/>
<path class="st0" d="M162,130.1v0.2h0.2l0.2-0.1l0.2-0.1l-0.1-0.2l-0.2-0.1H162L162,130L162,130.1z M163.5,129.8v0.2h0.2h0.2
	l0.1-0.1v-0.1l-0.1-0.1l-0.2-0.1l-0.2,0.1L163.5,129.8L163.5,129.8z M166.6,137.5l0.2-0.1h0.2l0.2-0.1h0.2l0.1-0.1l0.1-0.1l0.1-0.1
	l0.1-0.1v-0.3l0.1-0.2v-0.2V136l-0.1-0.1v-0.2v-0.1l0.1-0.2l-0.1-0.2v-0.3l-0.1-0.1l-0.1-0.2l0.1-0.2v-0.2l-0.2-0.1v-0.2l-0.1-0.2
	l0.1-0.2l-0.1-0.2v-0.2l-0.1-0.2v-0.3v-0.2v-0.2v-0.2v-0.2V132v-0.2l-0.1-0.2l-0.1-0.1l-0.1-0.2l-0.2-0.1h-0.2l-0.1-0.2h-0.2h-0.2
	h-0.2l-0.2,0.1h-0.2h-0.2l-0.2,0.1h-0.2l-0.2,0.1h-0.2h-0.2l-0.1,0.1v0.2l0.1,0.2v0.2v0.2l0.1,0.2v0.2v0.2l-0.1,0.2v0.2l0.1,0.2
	l0.1,0.2v0.2v0.2l0.1,0.1v0.2v0.2v0.2v0.2v0.5l0.1,0.2v0.2v0.2l0.1,0.2l0.1,0.2v0.2v0.2v0.2l0.1,0.2l-0.1,0.2l0.1,0.2v0.2v0.2v0.2
	v0.2v0.2v0.2l0.2,0.1v0.2h0.2l0.2-0.1h0.2h0.2l0.2-0.1h0.2L166.6,137.5z M166.7,148.5h-0.2l-0.2,0.1l-0.2,0.1h-0.2h-0.2l-0.2,0.1
	h-0.2h-0.2H165h-0.2l-0.2,0.1h-0.2v-0.2l0.1-0.2l-0.1-0.2v-0.2l-0.1-0.2v-0.2l-0.1-0.2v-0.2l0.1-0.2v-0.2v-0.2l-0.1-0.2l-0.1-0.2
	l0.1-0.2l-0.1-0.1v-0.2l-0.1-0.2v-0.2v-0.7v-0.2v-0.2v-0.5l-0.1-0.2v-0.2V144v-0.2v-0.5l-0.1-0.2l-0.1-0.1v-0.2l-0.2-0.1v-0.2
	l-0.2-0.1l-0.1-0.1v-0.3v-0.2v-0.2v-0.2l-0.1-0.2v-0.2v-0.2l0.1-0.2v-0.2v-0.2v-0.2v-0.2l-0.1-0.1v-0.2v-0.2l-0.1-0.2l0.1-0.2
	l-0.1-0.2V139l-0.1-0.2v-0.2v-0.2v-0.2v-0.2l-0.1-0.2l-0.1-0.2v-0.2v-0.2l-0.1-0.2v-0.2l0.1-0.2v-0.2v-0.2v-0.2l-0.1-0.2v-0.2
	l0.1-0.2v-0.2v-0.2v-0.2l0.1-0.1v-0.2l-0.2-0.1h-0.2h-0.2v-0.2l-0.1-0.2v-0.2v-0.2l-0.1-0.2v-0.2v-0.2l0.1-0.2l-0.1-0.1v-0.2v-0.2
	v-0.2l0.1-0.2l-0.1-0.2l0.1-0.1l0.1-0.1v-0.2l0.1-0.1v-0.3v-0.2l-0.2-0.1l-0.1-0.2l-0.1-0.2l0.1-0.2l0.1-0.1l-0.1-0.1H162v-0.1v-0.2
	v-0.2v-0.2v-0.2l-0.1-0.1v-0.2v-0.2l0.1-0.1l0.2-0.1h0.2h0.2h0.2l0.2-0.1h0.2h0.2h0.2h0.2h0.2h0.2h0.2l0.2,0.1h0.2h0.2h0.2h0.2
	l0.2,0.1h0.2h0.2h0.4h0.2h0.2h0.2l0.2-0.1h0.2h0.2h0.2h0.2l0.1,0.1l0.1,0.1l0.2,0.1h0.2l0.1,0.1l0.1,0.1l0.1,0.2l0.1,0.1l0.2,0.1
	l0.1,0.2v0.2l0.1,0.1l0.1,0.1l0.1,0.1l0.1,0.1l0.1,0.1v0.2v-0.1l0.1,0.2l0.1,0.2l-0.1,0.2v0.2v0.2v0.2l0.1,0.1l-0.1,0.2l0.1,0.2v0.2
	v0.2v0.2v0.2v0.2v0.2l0.1,0.2l-0.1,0.2v0.2l0.1,0.2l0.2,0.1v0.2v0.2v0.2l-0.2,0.1v0.1l-0.1,0.1v0.2l0.1,0.2v0.2l-0.1,0.2v0.2
	l0.2,0.1v0.2v0.2v0.2l-0.1,0.2l-0.1,0.1v0.2l-0.1,0.1v0.2l-0.1,0.1l-0.2,0.1v0.2l-0.1,0.1l-0.2,0.1l-0.2,0.1l0.1,0.2v0.2v0.2
	l0.1,0.1v0.2v0.2l0.1,0.1v0.1l-0.1,0.1l0.1,0.2l0.2,0.1l0.1,0.1l0.1,0.2v0.2l0.2,0.1v0.2v0.2v0.2l0.1,0.1v0.2l0.1,0.1v0.2v0.2
	l0.1,0.1v0.2l0.1,0.1v0.2l0.1,0.1l-0.1,0.2v0.2l0.2,0.1v0.2v0.2l0.1,0.1v0.2l0.1,0.1v0.2l0.1,0.1v0.2v0.2l0.2,0.1v0.2l0.1,0.1v0.2
	v0.2v0.2v0.2v0.2l0.2,0.1v0.2v0.2l0.1,0.1v0.2v0.2v0.2l0.1,0.1v0.2l0.1,0.1l0.1,0.2h-0.2l-0.2,0.1H171l-0.2,0.1h-0.2h-0.2l-0.2-0.1
	H170l-0.2,0.1h-0.2l-0.2,0.1h-0.2l-0.1-0.2l0.1-0.2l-0.1-0.1l-0.1-0.1v-0.2v-0.2l-0.1-0.2V147l-0.1-0.1v-0.2l0.1-0.2v-0.2l0.2-0.1
	l-0.1-0.1l-0.1-0.1v-0.3v-0.2l-0.1-0.1v-0.2l-0.1-0.1v-0.2l-0.1-0.1v-0.2v-0.2v-0.2V144v-0.2l-0.1-0.1l-0.2-0.1l0.1-0.1h0.2l0.1-0.2
	v-0.2l-0.2-0.1l-0.1-0.2v-0.2l-0.1-0.1l-0.1-0.1H168l-0.1-0.1v-0.2V142v-0.2v-0.2v-0.2l-0.1-0.1v-0.2V141v-0.2l-0.1-0.1l-0.1-0.2
	v-0.2v-0.2l-0.1-0.1l-0.1-0.1v-0.2v-0.2l-0.1-0.2l-0.2,0.1h-0.2l-0.2,0.1h-0.2l-0.2,0.1h-0.2v0.1v0.2v0.2l0.2,0.1v0.2l0.1,0.2v0.2
	l0.1,0.2v0.2v0.2v0.2h-0.2h-0.2l0.1,0.2v0.2l0.2,0.1v0.2v0.2l0.1,0.2l0.1,0.2l0.1,0.2v0.2l0.1,0.1v0.2v0.2l0.1,0.1l0.1,0.1v0.2v0.2
	l-0.1,0.2l0.2,0.1v0.2v0.2v0.3v0.2l0.2,0.1v0.7v0.2v0.2l-0.1,0.2v0.2l0.1,0.2v0.2l0.1,0.2l-0.1,0.2l0.1,0.1v0.3l0.1,0.1l-0.1,0.2
	v0.2l0.1,0.1l-0.1,0.2L166.7,148.5z M165.3,128.9h0.2h0.2h0.2h0.2h0.2l0,0h-0.2L166,129l-0.2-0.1h-0.2L165.3,128.9L165.3,128.9z"/>
<path class="st0" d="M172.7,128.2h0.2l0.2-0.1h0.2h0.2h0.2h0.4l0.2-0.1h0.2h0.2h0.2l-0.1,0.1v0.1l0.1,0.1h0.2l0.2-0.1l0.2-0.1
	l0.1-0.1l0.1-0.1l0.2-0.1h0.2l0.2-0.1l0.2,0.1l0.2-0.1l0.1,0.1h0.2h0.2h0.2h0.2l0.2-0.1h0.2h0.2l0.2-0.1h0.2h0.1v0.2v0.2l-0.1,0.2
	l0.1,0.2v0.5l0.1,0.2l0.1,0.2l-0.1,0.2v0.1v0.2h-0.2h-0.2l-0.2-0.1l-0.2,0.1h-0.2l-0.2,0.1h-0.4h-0.2h-0.2h-0.2h-0.2h-0.2H176h-0.2
	h-0.2h-0.2l-0.1,0.1l0.1,0.2l-0.1,0.2v0.3v0.2l0.1,0.2v0.2v0.2l0.1,0.1l-0.1,0.2l0.1,0.2v0.2v0.2v0.2v0.2l0.1,0.2v0.2v0.2l0.1,0.2
	v0.2v0.2l-0.1,0.2v0.2v0.2l0.1,0.2v0.2v0.2l0.1,0.1v0.2v0.2v0.2v0.2v0.5l0.1,0.2v0.2v0.2l0.1,0.2v0.1h0.2h0.2h0.2l0.2-0.1l0.2,0.1
	l0.2-0.1h0.2h0.2h0.2h0.2l0,0v0.2l0.2,0.1v0.2v0.2l0.1,0.2l-0.1,0.2v0.2l0.1,0.2v0.2v0.2h-0.2l-0.2,0.1l-0.1,0.1l-0.2,0.1h-0.2h-0.2
	l-0.2,0.1H177h-0.2h-0.2l-0.2,0.1v0.1l-0.1,0.1l-0.1,0.1l-0.1,0.2l0.1,0.1v0.2l0.1,0.1v0.1h0.2l0.2,0.1l-0.1,0.2v0.2v0.2l0.1,0.2
	l0.1,0.2l-0.1,0.2l0.1,0.1v0.2l0.1,0.2v0.2v0.3v0.2v0.2v0.7v0.2l0.1,0.2v0.2l0.1,0.2v0.2v0.5v0.2v0.2l-0.1,0.2l0.1,0.1l-0.1,0.2
	l0.1,0.2v0.2v0.2v0.1h0.4h0.2l0.2-0.1h0.2h0.2h0.2h0.2h0.2h0.2h0.2l0.2-0.1h0.2h0.2l0.2-0.1l0.2,0.1l0.2-0.1h0.2l0.1,0.1v0.2v0.2
	v0.2v0.2l0.1,0.2l0.1,0.2v0.2v0.2l0.1,0.2v0.2l-0.1,0.2h-0.1h-0.2h0.4l-0.2,0.1l-0.2-0.1l-0.1-0.1h-0.2l-0.1,0.1h-0.2h-0.2h-0.2
	h-0.2h-0.2H179h-0.2h-0.2h-0.2h-0.2l-0.2,0.1h-0.2h-0.2l-0.2-0.1l-0.2,0.1H177h-0.2l-0.2,0.1l-0.2-0.1l-0.2,0.1l-0.2,0.1h-0.1
	l-0.2,0.1h-0.2v-0.2v-0.3l-0.1-0.2v-0.2l-0.1-0.2v-0.2v-0.2v-0.2v-0.2v-0.2v-0.2v-0.2v-0.2l0.1-0.2l-0.1-0.2v0v-0.2v-0.2l-0.1-0.2
	v-0.2v-0.2v-0.2l-0.1-0.1v-0.2v-0.2l-0.1-0.2v-0.2V143v-0.2v-0.2v-0.2v-0.2v-0.2V142v-0.2l0.1-0.2v-0.2l-0.1-0.2V141v-0.2v-0.2v-0.2
	l-0.1-0.2v-0.2v-0.2v-0.2l-0.1-0.2v-0.2v-0.2v-0.2l-0.1-0.1v-0.3v-0.2v-0.2l-0.1-0.2v-0.2v-0.2v-0.2v-0.2v-0.2v-0.2l-0.1-0.2v-0.2
	v-0.2l-0.1-0.2v-0.2l0.1-0.2v-0.2v-0.2v-0.2l-0.1-0.1l0.1-0.2l-0.1-0.2v-0.2v-0.2v-0.2v-0.2v-0.2l0.2-0.1v-0.2l0.1-0.2v-0.2
	l-0.1-0.2h-0.3v-0.2v-0.2v-0.2l0.1-0.2l-0.1-0.2v-0.2v-0.2l-0.1-0.2v-0.2l0.1-0.2v-0.2l-0.1-0.1v-0.3l-0.1-0.2v-0.2v-0.2v-0.2v-0.2
	l0.1-0.1l0.1-0.1v-0.1H174l-0.1-0.1v-0.2v-0.2l-0.1-0.1v-0.2v-0.2l-0.1-0.1v-0.2l0.1-0.2v-0.2l-0.1-0.2L172.7,128.2z M174.3,131.5
	l0.2,0.1l0.1,0.1h0.2l0.2-0.1l-0.1-0.1v-0.1h-0.2h-0.2v0.2L174.3,131.5z"/>
<path class="st0" d="M187.1,129.9v-0.2l-0.1-0.1l-0.1-0.1v-0.2l-0.2-0.1l-0.1-0.1l-0.2-0.1h-0.2H186h-0.2h-0.2l-0.2,0.1l-0.1,0.1
	l-0.1,0.1v0.2v0.2l-0.1,0.2v0.2v0.2l0.1,0.2v0.2l0.1,0.2l-0.1,0.2l0.1,0.2v0.2l0.1,0.2v0.2v0.2v0.2l0.1,0.2v0.2l-0.1,0.2l0.1,0.2
	v0.2l0.1,0.1v0.2v0.2v0.2l0.1,0.1v0.2v0.2l0.1,0.1l0.1,0.1v0.2l0.1,0.1l0.2,0.1v0.2v0.2l-0.1,0.1l0.1,0.1l0.2,0.1h0.2h0.2h0.2
	l0.1,0.1l0.2,0.1l0.1,0.1l0.1,0.1l0.1,0.2l0.1,0.1l0.1,0.1l0.2,0.1l0.1,0.1l0.2,0.1l0.2,0.1v0.2l0.1,0.1l0.1,0.1l0.2,0.1l0.2,0.1
	l0.1,0.1v0.2l0.2,0.1v0.2l0.2,0.1l0.1,0.2l0.1,0.2l0.1,0.1l0.1,0.2l0.2,0.1v0.2v0.1l0.1,0.2v0.2v0.2l-0.1,0.2v0.2l0.1,0.1l0.1,0.1
	v0.2v0.2l0.2,0.1v0.2l0.1,0.1l0.1,0.2v0.2v0.5l0.1,0.2v0.2v0.2l0.1,0.2l0.1,0.2v0.2v0.2v0.2l0.1,0.2l-0.1,0.2l0.1,0.2v0.2v0.2
	l-0.1,0.2v0.2v0.2v0.2l0.1,0.2l-0.1,0.2l-0.1,0.1v0.2h-0.2h-0.2l-0.1,0.1H190l-0.1,0.2h-0.2h-0.2l-0.1,0.2v0.1v0.2l0.2,0.1l0.2-0.1
	h0.2l0.2-0.1l0,0l-0.2,0.1l-0.1,0.2l-0.1,0.2h-0.2h-0.2l-0.1,0.1h-0.2l-0.2,0.1h-0.2l-0.2,0.1h-0.2l-0.2-0.1h-0.2h-0.2h-0.2h-0.2
	l-0.2-0.1h-0.2l-0.2-0.1h-0.2l-0.2-0.1v-0.1v-0.2l-0.1-0.1l-0.1-0.1V145v-0.2l-0.1-0.2l-0.1-0.1l-0.1-0.1l-0.2-0.1l-0.1-0.1
	l-0.2-0.1l-0.2-0.1h-0.2h-0.1v-0.2l-0.1-0.1l-0.1-0.2v-0.2l-0.2-0.1l0.1-0.2l-0.1-0.1v-0.2v-0.2v-0.2v-0.2v-0.2V142l-0.1-0.2v-0.2
	v-0.2l0.1-0.2v-0.2V141v-0.2v0.1l-0.1-0.1l0.1-0.1v-0.2v-0.2l0.2-0.1V140h0.2l0.2-0.1h0.6h0.2l0.2-0.1h0.2h0.2h0.1l0.1,0.2v0.2
	l-0.1,0.2v0.2v0.2v0.3h-0.1l-0.2-0.1h-0.2l-0.2,0.1v0.2l0.1,0.1l0.1,0.1l0.2,0.1h0.2h0.3v0.2v0.2l0.1,0.2v0.2v0.2l0.1,0.2v0.2v0.2
	l-0.1,0.2l0.1,0.1v0.2v0.2v0.2l-0.1,0.2l0.1,0.1v0.2l0.1,0.2l0.2,0.1l0.1,0.1h0.2h0.2h0.2h0.2h0.2l0.2-0.1l0.1-0.1l0.2-0.1V144v-0.2
	l0.4-0.2v-0.2v-0.2v-0.2v-0.2l-0.1-0.2v-0.2v-0.2v-0.2l-0.1-0.2v-0.2v-0.2v-0.2l-0.1-0.2v-0.2v-0.2l-0.1-0.2v-0.1v-0.2v-0.2v-0.2
	l-0.1-0.2l-0.1-0.1l-0.1-0.1l-0.1-0.1l-0.1-0.1v-0.2l-0.1-0.1l-0.1-0.1l-0.1-0.1V139v-0.2v-0.2v-0.2l-0.2-0.1h-0.2h-0.2l-0.1-0.2
	l-0.2-0.1l-0.1-0.2l-0.1-0.1l-0.1-0.1h-0.2l-0.1-0.1l-0.1-0.1l-0.1-0.2l-0.2-0.1l-0.2-0.1l-0.1-0.1l-0.1-0.1l-0.1-0.1l-0.1-0.1
	l-0.1-0.1l-0.1-0.1l-0.2-0.1l-0.1-0.1v-0.2l-0.1-0.1l-0.1-0.1v-0.2l-0.1-0.1l-0.1-0.1l-0.1-0.1l-0.2-0.1v-0.2l-0.2-0.1v-0.2
	l-0.1-0.1l-0.1-0.1l-0.1-0.1l-0.1-0.1v-0.2l-0.1-0.1l0.1-0.2v-0.2v-0.2l-0.1-0.1v-0.2v-0.2v-0.2l0.1-0.2l-0.1-0.2V132v-0.2l-0.1-0.1
	v-0.2l0.1-0.2v-0.2l-0.1-0.2v-0.2v-0.2l-0.1-0.2v-0.2v-0.2V130v-0.2v-0.2l0.1-0.2l0.1-0.1v-0.2v-0.2l0.1-0.1l0.1-0.1v-0.2l0.1-0.1
	l0.1-0.1v-0.2l0.1-0.1h0.2l0.1-0.1l0.1-0.2h0.2l0.2-0.1l0.1-0.2h0.2h0.2H185l0.2-0.1h0.2h0.2h0.2h0.2h0.2h0.2l0.2,0.1v0.1v0.2
	l-0.1,0.1l0.1,0.1l0.1,0.1h0.2h0.2l0.1-0.1v-0.2l0.1-0.1l0.2,0.1h0.2l0.1,0.2h0.2l0.1,0.1l0.2,0.1l0.1,0.1v0.2l0.2,0.1v0.2l0.1,0.1
	l0.1,0.1l0.1,0.1l0.1,0.1v0.2v0.1l0.1,0.2l-0.1,0.2v0.2l0.1,0.2v0.2v0.2l0.1,0.2h0.2l0.1,0.1l0.1,0.2v0.2l-0.1,0.2l0.1,0.2l-0.1,0.2
	l0.1,0.2v0.2v0.2l-0.1,0.2v0.2l0.1,0.1v0.2l0.1,0.2v0.2h-0.2l-0.2-0.1l0.1-0.1l-0.2-0.1l-0.1-0.1H189h-0.2h-0.2l-0.2,0.1l-0.1,0.1
	l-0.2,0.1l0.1,0.1H188h-0.2h-0.2l-0.1-0.1v-0.3l-0.1-0.2v-0.2l-0.1-0.2V132l-0.1-0.2v-0.2v-0.2v-0.3V131l-0.1-0.2l-0.1-0.1v-0.2
	v-0.2l-0.1-0.2L187.1,129.9z M188.6,146.1v0.1l0.2,0.1l0.2-0.1l0.1-0.1V146l-0.2-0.1h-0.2l-0.1,0.1L188.6,146.1z"/>
<polygon class="st0" points="185.5,145.5 185.5,145.3 185.3,145.2 185.2,145 185.2,145.1 185.4,145.2 185.5,145.3 185.5,145.5 "/>
<path class="st0" d="M196.1,144v-0.2h-0.2l-0.2,0.1l-0.2,0.1v0.2v0.3l0.1,0.1v0.1h0.2h0.2l0.1-0.2v-0.3v-0.2V144z M200.4,144.7v-0.2
	v-0.2l-0.1-0.2V144l-0.1-0.2l0.1-0.2l-0.1-0.2v-0.2l-0.1-0.2V143v-0.2v-0.2l-0.1-0.2v-0.2l0.1-0.2l-0.1-0.2v-0.2l-0.1-0.1v-0.2v-0.2
	l0.1-0.2l-0.1-0.2v-0.3l-0.1-0.1l-0.1-0.2l0.1-0.2v-0.2l-0.2-0.1v-0.2l-0.1-0.2l0.1-0.2l-0.1-0.2v-0.2l-0.1-0.2v-0.2l0.1-0.1h0.2
	l0.1-0.1v-0.1l-0.1-0.1l-0.1-0.1l-0.2-0.1v-0.1v-0.2v-0.2l-0.1-0.2l-0.1-0.2l0.1-0.2V137v-0.2v-0.2l-0.1-0.1v-0.2h-0.1l-0.2,0.1
	h-0.2l-0.2,0.1h-0.2h-0.2H198h-0.2l-0.2,0.1h-0.2h-0.2l-0.2,0.1v0.1v0.2l-0.1,0.2v0.2l0.1,0.2l0.1,0.2v0.2v0.2l0.1,0.1v0.2v0.2v0.2
	v0.2v0.5l0.1,0.2v0.2v0.2l0.1,0.2l0.1,0.2v0.2v0.2v0.2l0.1,0.2l-0.1,0.2l0.1,0.1v0.2v0.2v0.2v0.2v0.2v0.2l0.2,0.1v0v0.2l0.1,0.2
	l-0.1,0.2v0.2l0.1,0.2v0.2l0.1,0.1l-0.1,0.2v0.2l0.1,0.2l0.1,0.2v0.2v0.2l0.1,0.2v0.2v0.2v0.2v0.2h-0.1l-0.1,0.1h-0.2h-0.2l-0.2,0.1
	h-0.2l-0.2,0.1h-0.2h-0.2h-0.2l-0.2-0.1h-0.2l0,0l-0.1-0.2l-0.1-0.2l0.1-0.2l-0.1-0.1v-0.2l-0.1-0.2v-0.2V144v-0.2v-0.2V143v-0.2
	l-0.1-0.2v-0.2l-0.1-0.2v-0.2v-0.5v-0.2v-0.2l0.1-0.2l-0.1-0.1l0.2-0.1v-0.2v-0.2V140v-0.2l-0.1-0.2v-0.2l-0.1-0.2v-0.2l-0.1-0.2
	l-0.1-0.2l-0.1-0.2v-0.2l-0.1-0.1v-0.2V138l-0.1-0.2l0.1-0.2l-0.1-0.2v-0.2l-0.1-0.2V137v-0.2v-0.2v-0.2l-0.1-0.2l-0.1-0.2V136v-0.2
	l-0.1-0.2v-0.2l0.1-0.2v-0.2v-0.2v-0.2l-0.1-0.2v-0.2v-0.2v-0.2h0.1h0.2l0.1-0.1v-0.2v-0.2l-0.1-0.1l-0.1-0.1h-0.3v-0.2v-0.2
	l-0.1-0.2v-0.2v-0.2l0.1-0.2l-0.1-0.1v-0.2v-0.2v-0.2l0.1-0.2l-0.1-0.2v-0.2v-0.2l-0.1-0.2l0.1-0.2l0.1-0.1l0.1-0.1l0.2-0.1l0.1-0.1
	l0.2-0.1v-0.2V130v-0.2l-0.1-0.1l-0.1-0.1l-0.1-0.2l-0.2-0.1l-0.2-0.1l-0.2-0.1l-0.1-0.1H194v-0.2v-0.2v-0.2l-0.1-0.2v-0.2V128v-0.2
	l-0.1-0.2v-0.2v-0.2l-0.1-0.2V127v-0.2v-0.2v-0.2v-0.2v-0.1h0.2h0.2h0.2l0.2,0.1h0.2h0.2h0.4h0.2h0.2h0.2h0.2v0.2v0.2v0.2l0.1,0.2
	v0.2v0.2v0.2l0.1,0.1v0.3v0.2v0.2l0.1,0.2v0.2v0.2v0.2v0.2v0.2v0.2l0.1,0.2v0.2v0.2l0.1,0.2v0.2l-0.1,0.2v0.2v0.2v0.2l0.1,0.1
	l-0.1,0.2l0.1,0.2v0.2v0.2v0.2v0.2v0.2v0.2l0.1,0.2l-0.1,0.2v0.2v0.2l0.1,0.1v0.2v0.2v0.2l-0.1,0.2l0.1,0.2v0.2v0.2l0.1,0.2v0.2
	l-0.1,0.2h0.2l0.2-0.1h0.4l0.2-0.1h0.2h0.2h0.2h0.2h0.2h0.2h0.2v-0.3v-0.2v-0.2v-0.2l-0.1-0.1v-0.2v-0.2l-0.1-0.2v-0.2l0.1-0.2v-0.2
	l-0.1-0.1l0.1-0.2v-0.2l-0.2-0.1v-0.2v-0.2v-0.2l-0.1-0.2v-0.2v-0.2v-0.2l-0.1-0.1v-0.2l-0.1-0.2v-0.2V130l-0.1-0.2v-0.2l-0.1-0.2
	v-0.2v-0.2l0.2-0.1v-0.2l-0.1-0.2v-0.2v-0.2l-0.1-0.1l0.1-0.2l-0.1-0.1v-0.2l-0.1-0.1v-0.2v-0.2l-0.1-0.1l0.1-0.2v-0.2v-0.3v-0.2
	l0.1-0.1V126v-0.2h0.4l0.2-0.1h0.2h0.2h0.2l0.2-0.1h0.2h0.3v0.2l-0.1,0.2l0.1,0.2l-0.1,0.2l0.1,0.2v0.2v0.2l-0.1,0.2v0.2l0.1,0.1
	v0.2l0.1,0.2v0.2v0.2l-0.1,0.2v0.2l0.1,0.2v0.2v0.2v0.2v0.2l0.1,0.2v0.2l-0.1,0.2v0.2l0.1,0.2l0.1,0.2v0.2v0.2v0.3l0.1,0.2v0.2
	l0.1,0.2l-0.1,0.1v0.2v0v0.2v0.2v0.2v0.2l0.1,0.1l0.2,0.1v0.2v0.2l0.1,0.2v0.2l0.1,0.1v0.3l0.1,0.2v0.2v0.2v0.2v0.2v0.2v0.2v0.3
	l0.1,0.2v0.2v0.2l0,0l-0.1-0.1l-0.1-0.1l-0.1-0.1l-0.2-0.1l-0.2,0.1v0.2v0.1v0.2v0.2l0.2,0.1v0.2l0.2,0.1l0.1,0.2h0.2l0.2,0.1v0.2
	v0.3v0.2l0.2,0.1v0.2l0.1,0.2v0.2l0.1,0.2v0.2v0.2l-0.1,0.2v0.2l-0.1,0.2l0.1,0.2l-0.1,0.2l0.1,0.2v0.2v0.2l0.1,0.1l0.1,0.1l0.1,0.1
	v0.2l0.1,0.2v0.2v0.2l0.1,0.2v0.2v0.2v0.2l-0.1,0.2l0.2,0.1v0.2v0.2v0.2v0.2l0.2,0.1v0.2v0.2v0.2v0.2v0.2v0.2l-0.1,0.2v0.2l0.1,0.2
	v0.2l0.1,0.2l-0.1,0.2l0.1,0.1v0.3l0.1,0.2h-0.3h-0.2l-0.2,0.1h-0.2l-0.2,0.1h-0.2h-0.2h-0.2h-0.2l-0.2,0.1v-0.1l0.2,0.1l0.2-0.1
	l-0.1-0.2v-0.2h-0.2h-0.2L200.4,144.7L200.4,144.7z M193.3,128.4l0.1,0.1l0.1,0.1h0.2l0.1-0.1l0.1-0.2h-0.2l-0.2-0.1L193.3,128.4
	l0,0.1L193.3,128.4z M193.5,130.5v-0.2v-0.2l-0.1-0.2l0.1-0.2v-0.2h0.1l0.1,0.1l0.2,0.1l0.1,0.2l-0.1,0.2l-0.1,0.2l-0.2,0.1
	L193.5,130.5z"/>
<polygon class="st0" points="99.5,155.1 99.5,155.1 99.6,155.1 "/>
<path class="st0" d="M57.8,162.4c-0.2,0-0.4-0.1-0.6-0.2c-0.2-0.1-0.2-0.3-0.3-0.5c0,0,0-0.1,0-0.1h-0.1h-0.2l0,0
	c0,0.3-0.3,0.6-0.6,0.6l0,0c0.3,0,0.5,0.1,0.7,0.4l0,0h0.2h0.2h0.2l0.2-0.1h0.2h0.2h0.2c0-0.1,0-0.1,0-0.2L57.8,162.4"/>
<path class="st0" d="M42.2,145.9l-0.1-0.2v-0.1c-0.2,0-0.5-0.1-0.6-0.3c-0.2-0.3-0.1-0.7,0.2-0.9c0,0,0.1-0.1,0.1-0.1h0.1l0,0v-0.2
	v-0.1h-0.1h-0.1c-0.3,0.2-0.6,0.1-0.8-0.1c0,0.1-0.1,0.1-0.2,0.1v0.1l0.1,0.1v0.2v0.2v0.2l0.1,0.2v0.2v0.1l0,0
	c0.4,0,0.8,0.2,0.9,0.7c0,0.1,0,0.2-0.1,0.3l0,0c0.1,0,0.2,0,0.3,0.1c0-0.1,0.1-0.1,0.1-0.2h0.1v-0.1L42.2,145.9z"/>
<path class="st0" d="M65.3,135.7L65.3,135.7l-0.2,0.1l-0.2-0.1h-0.2l-0.2,0.1h-0.3c0,0.2-0.2,0.4-0.5,0.4c-0.2,0-0.4-0.1-0.5-0.3
	h-0.2h-0.2h-0.2h-0.2c-0.1,0.2-0.3,0.3-0.5,0.3c-0.2,0-0.3,0-0.4-0.2h-0.2h-0.2l-0.2,0.1h-0.2h-0.2l-0.2,0.1h-0.2h-0.2h-0.2h-0.2
	l-0.2,0.1h-0.2h-0.2h-0.2h-0.2h-0.2l-0.2,0.1l-0.2-0.1l-0.2,0.1h-0.2h-0.2h-0.2h-0.2h-0.2h-0.2h-0.4l-0.2,0.1h-0.2h-0.4l-0.2,0.1
	l-0.2-0.1h-0.2h-0.2h-0.1c-0.8,0.4-1.6,0.5-2.5,0.3c-0.3,0.4-0.9,0.4-1.2,0.1l0,0l-0.1,0.1l-0.2-0.1l-0.2,0.1h-0.1
	c-0.4,0.2-0.8,0.2-1.3,0.1h-0.3h-0.2h-0.2h-0.2h-0.2l-0.2,0.1h-0.2h-0.3l-0.2,0.1h-0.2h-0.2h-0.2l-0.2,0.1H46h-0.2h-0.2h-0.2h-0.2
	H45h-0.2h-0.2l-0.2,0.1h-0.2H44h-0.2l-0.2,0.1h-0.2l-0.2,0.1l-0.2,0.1h-0.2h-0.2h-0.2l-0.1,0.1l-0.2,0.1l-0.2,0.1l-0.1,0.1l-0.1,0.1
	h-0.2v0.2l-0.1,0.1l-0.1,0.1L41,139l-0.1,0.1v0.4l-0.2,0.1v0.2l-0.1,0.1v0.2l-0.1,0.1v0.2v0.2l-0.1,0.1v0.2v0.2v0.2v0.2v0.2v0.2
	l0.1,0.2v0.2v0.2l0.1,0.2v0.2l0.1,0.2v0.1c0.1,0.1,0.2,0.1,0.3,0.2c0,0.1,0,0.2,0,0.3l0,0l0,0c0-0.2,0.1-0.3,0.2-0.5
	c0.2-0.2,0.4-0.3,0.6-0.2v-0.1v-0.2v-0.2v-0.2V142v-0.1c-0.1,0-0.3,0-0.4,0c-0.2-0.1-0.3-0.3-0.2-0.5c0,0,0-0.1,0-0.1
	c0.1-0.1,0.1-0.1,0.2-0.2l0,0c0-0.1,0.1-0.2,0.3-0.3l0,0v-0.2l0.1-0.1v-0.2l0.1-0.1v-0.2l0.1-0.1l0.1-0.1l0.1-0.1l0.2-0.1l0.2-0.1
	l0.2-0.1l0.1-0.1l0.2-0.1l0.1-0.1l0.2-0.1h0.2l0.2-0.1l0.2-0.1h0.2h0.2l0.2-0.1h0.2h0.2l0.2-0.1h0.2h0.2h0.2h0.2h0.2h0.2h0.2
	l0.2-0.1l0,0c0.1-0.1,0.3-0.1,0.4-0.1l0,0h0.1h0.2h0.2h0.2H48h0.2h0.2h0.2h0.2H49h0.4h0.2l0.2-0.1H50h0.2h0.1c0-0.1,0.1-0.1,0.1-0.1
	c0.2-0.1,0.5-0.1,0.7,0h0.1h0.2h0.2h0.2H52l0.3-0.1c0.7-0.3,1.5-0.4,2.2-0.1h0.1h0.1h0.1c0.2-0.4,0.8-0.6,1.2-0.4
	c0,0,0.1,0.1,0.1,0.1c0.2,0.2,0.9,0,1.2,0c0.1,0,0.3,0,0.4,0.1H58h0.2h0.2l0.2-0.1h0.2H59l0.2-0.1h0.2h0.2h0.2l0.2-0.1h0.2h0.2
	l0.2-0.1h0.2H61h0.2h0.2l0.2-0.1H62h0.2l0.2-0.1h0.2l0.2-0.1h0.4h0.2h0.2l0.2-0.1H64h0.4v-0.1l-0.1-0.1v-0.2l0.2-0.1h0.2h0.2H65
	c-0.1-0.2,0-0.4,0.1-0.5c0,0,0,0,0,0"/>
<path class="st0" d="M67.5,135.6h-0.2h-0.2l-0.2-0.1h-0.2l-0.2,0.1h-0.2l-0.2-0.1l-0.2,0.1l0,0c0.2,0.1,0.2,0.3,0.1,0.5l0,0l0.2-0.1
	l0.2,0.1h0.2h0.2c-0.1-0.2,0-0.6,0.4-0.6C67.3,135.5,67.4,135.5,67.5,135.6h0.1H67.5z"/>
<path class="st0" d="M68.8,136.1L68.8,136.1c-0.1,0-0.3,0-0.4-0.1c0,0.1-0.2,0.2-0.3,0.3h0.2l0.2-0.1l0.2,0.1H69
	C68.9,136.2,68.9,136.1,68.8,136.1"/>
<path class="st0" d="M70.5,135.4v-0.2h-0.3H70h-0.2h-0.2h-0.2l-0.2,0.1h-0.1c0.1,0,0.1,0.1,0.1,0.2l0,0c0.2,0,0.4,0.1,0.5,0.3l0,0
	c0.1,0.1,0.1,0.1,0.1,0.2l0,0H70h0.2l0.1-0.2v-0.1l0.2-0.1L70.5,135.4z"/>
<path class="st0" d="M54.7,162.3h-0.3c-0.3,0-0.6-0.1-0.7-0.3h-0.1l-0.2,0.1h-0.2l-0.2,0.1l-0.2-0.1l-0.2,0.1h-0.2l-0.2,0.1H52h-0.2
	h-0.2l-0.2,0.1H51l-0.2,0.1h-0.2h-0.2h-0.2l-0.2,0.1l-0.2-0.1l-0.2,0.1h-0.2h-0.2H49h-0.2h-0.2l-0.2,0.1h-0.2H48h-0.2h-0.2h-0.4H47
	h-0.2h-0.2l-0.2-0.1l-0.2-0.1H46l-0.2-0.1l-0.1-0.1l-0.1-0.1h-0.2l-0.1-0.1l-0.1-0.2l-0.2-0.1l-0.1-0.2l-0.2-0.1v-0.2v-0.2l-0.1-0.1
	l-0.1-0.2v-0.2v-0.2l0.1-0.2l-0.2-0.1l0.1-0.2l-0.1-0.1v-0.2v-0.2l0,0c-0.1-0.1-0.1-0.2-0.1-0.3v-0.1l0.1-0.2v-0.2l-0.2-0.1v-0.2
	l-0.1-0.1v-0.2V158v-0.2v-0.2v-0.1c-0.4-0.5-0.6-1.1-0.5-1.7l0,0l0,0l0.1-0.2v-0.2v-0.2v-0.2v-0.2l-0.1-0.2v-0.2v-0.2v-0.2v-0.3
	v-0.2v-0.2l-0.1-0.2l0.1-0.2v-0.2v-0.2l-0.2-0.1l0.1-0.2v-0.2l-0.1-0.2v-0.2v-0.2V152l-0.1-0.1v-0.3v-0.2v-0.2l-0.1-0.1v-0.1
	c-0.2-0.2-0.3-0.4-0.2-0.7l0,0l0.1-0.2l0,0c-0.1-0.2-0.2-0.4-0.3-0.6c-0.1-0.3,0-0.6,0.1-0.8l0,0v-0.2v-0.2v-0.2v-0.2l-0.1-0.2v-0.2
	l0.1-0.2l0,0l0,0c0,0.1-0.1,0.1-0.2,0.2c-0.2,0.1-0.3,0.2-0.5,0.2h-0.4l0,0v0.2v0.2v0.2v0.2l0.1,0.2v0.2v0.2v0.2v0.2v0.2v0.2
	l0.1,0.2v0.2l0,0c0.5,0.1,1,0.5,0.6,1c-0.4,0.5-0.2,0.9-0.1,1.4c0,0.2,0,0.3,0,0.5v-0.1v0.2v0.2v0.2v0.2v0.2l0.1,0.1v0.2l-0.3,0.2
	v0.2v0.2l0,0c0.1,0.1,0.1,0.3,0.1,0.4c0,0,0,0.1,0,0.1l0,0v0.2v0.3l-0.1,0.2l0.1,0.2v0.2v0.2v0.2l0.1,0.1l0,0
	c0.6,0.5,0.8,1.5,0.3,2.2v0.9l0.1,0.2v0.2l0.1,0.1v0.2l-0.1,0.2l0.1,0.1v0.2v0.2v0.2v0.2l0.1,0.1l0.2,0.1v0.2l0.2,0.1v0.2l0.1,0.1
	l0.2,0.1v0.2l0.2,0.1l0.2,0.1l0.1,0.1l0.2,0.1l0.2,0.1l0.2,0.1L45,163l0.1,0.1h0.2l0.2,0.1h0.2h0.2l0.4,0.3h0.2h0.6h0.2h0.2l0.2,0.1
	l0.2-0.1h0.2h0.2h0.2l0.2-0.1h0.2h0.2l0.2-0.1h0.2h0.2l0.2-0.1H50c0.1-0.1,0.3-0.1,0.5-0.1h0.8l0,0H52h0.3h0.2h0.2l0,0h0.2H53h0.2
	l0.2-0.1h0.2h0.7h0.1h0.2l0.2,0.1c0.1-0.1,0.2-0.2,0.3-0.2c0-0.1,0.1-0.1,0.1-0.1c-0.2,0-0.4-0.1-0.6-0.3"/>
<path class="st0" d="M64.3,161.5c-0.3,0.1-0.7,0-0.9-0.3c-0.1,0-0.2,0-0.3,0c-0.2,0-0.3,0-0.5-0.1h-0.2h-0.2h-0.1
	c-0.1,0.1-0.2,0.2-0.3,0.2l-0.4,0.1c-0.2,0.1-0.4,0.1-0.6,0.1c-0.2,0-0.3-0.1-0.4-0.2H60h-0.2l-0.2,0.1h-0.2h-0.2h-0.1
	c-0.1,0.1-0.2,0.1-0.3,0.2c0.3,0,0.6,0.1,0.7,0.4h0.1h0.1c0.2,0,0.4,0,0.5,0.1c0.2-0.2,0.4-0.4,0.7-0.4c0.2,0,0.4,0.1,0.6,0.2
	c0.1,0,0.2,0,0.3,0l0.3,0.1h0.1h0.2h0.4H63c0.4-0.1,0.7-0.2,1.1-0.3C64.2,161.6,64.2,161.5,64.3,161.5"/>
<path class="st0" d="M75.6,160.3c-0.5,0-1,0-1.4-0.2l-0.2-0.1h-0.1h-0.2l-0.2,0.1l-0.2-0.1l-0.2,0.1h-0.2l-0.2-0.1h-0.2h-0.2
	l-0.2,0.1h-0.2h-0.3l-0.2,0.1h-0.2H71h-0.6h-0.2l-0.2,0.1l-0.2-0.1h-0.2h-0.2h-0.2H69l-0.2,0.1h-0.1l-0.2,0.1l-0.2-0.1h-0.2h-0.5
	l-0.2,0.1h-0.2H67l-0.2,0.1h-0.2h-0.2l-0.2,0.1H66h-0.2l-0.2,0.1h-0.2l-0.1,0.1c-0.1,0.1-0.3,0.2-0.4,0.3c0.2,0,0.4,0,0.5,0.1h0.1
	c0.3,0,0.6,0.2,0.8,0.5h0.2h0.2h0.2h0.2h0.2h0.2h0.2h0.2l0.2-0.1h0.2h0.2l0,0c0.2-0.2,0.5-0.2,0.8-0.2h0.3h0.2h0.1H70h0.3l0.2-0.1
	h0.2h0.2h0.2h0.2h0.2h0.2h0.2h0.2l0.2-0.1h0.2h0.2h0.2l0.2-0.1h0.2h0.2l0.2-0.1h0.2h0.2h0.4h0.2l0.2-0.1h0.2h0.2h0.2l0,0
	c0-0.1,0-0.2,0-0.3c0-0.1,0-0.2,0.1-0.3"/>
<path class="st0" d="M100.7,157.5c-0.1,0.3-0.4,0.4-0.6,0.3c-0.2,0-0.3-0.2-0.3-0.3h-0.1l-0.2,0.1h-0.2l-0.2,0.1h-0.2h-0.1
	c0,0.1,0,0.1,0,0.2c-0.1,0.2-0.2,0.3-0.4,0.3l0.1,0.2c0,0.1,0,0.2,0,0.3l0,0h0.1h0.2h0.2h0.3h0.1h0.2h0.2l0.2-0.1h0.2l0.2-0.1h0.2
	h0.2h0.1c0.1-0.1,0.2-0.2,0.2-0.4c0-0.1,0-0.1,0-0.2l0,0c0-0.1,0-0.1,0-0.2C100.9,157.6,100.8,157.6,100.7,157.5"/>
<path class="st0" d="M78.4,160.3c-0.3,0-0.7-0.2-0.8-0.5c-0.3,0.1-0.5,0.1-0.8,0.2c0.2,0.1,0.3,0.2,0.4,0.4h0.2h0.2
	c0.2,0,0.4,0,0.5,0.1l0,0h0.2l0,0C78.3,160.4,78.3,160.3,78.4,160.3"/>
<path class="st0" d="M84.1,159.7c-0.1-0.1-0.1-0.1-0.2-0.2l0,0c-0.3,0-0.6-0.1-0.8-0.4l0,0l-0.2,0.1h-0.2l-0.2,0.1l-0.3-0.1
	l-0.2,0.1h-0.2l-0.2,0.1h-0.2h-0.2h-0.2H81l-0.2-0.1l-0.2,0.1l-0.2-0.1l-0.2,0.1c-0.1,0.3-0.4,0.6-0.8,0.5h-0.2l0,0
	c0.2,0.1,0.3,0.3,0.3,0.5c0,0,0,0,0,0c0.3-0.2,0.7-0.3,1.1-0.3h0.3l0,0H81h0.2h0.2h0.2h0.2l0.2-0.1h0.2c0.2-0.1,0.4-0.2,0.6-0.2
	c0.1,0,0.3,0,0.4,0.1l0,0h0.2h0.2h0.2H84h0.2C84.1,159.9,84.1,159.8,84.1,159.7"/>
<path class="st0" d="M94.3,158.3c0-0.1-0.1-0.2-0.1-0.3l-0.2,0.2c-0.2,0.2-0.6,0.2-0.8-0.1c0,0,0,0,0-0.1h-0.1h-0.2h-0.2h-0.2h-0.2
	l-0.2-0.1l-0.2,0.1l-0.2,0.1h-0.2h-0.2h-0.2h-0.2h-0.2l-0.2,0.1h-0.2h-0.1c0,0.2-0.1,0.4-0.5,0.5c-0.2,0-0.5-0.1-0.5-0.4h-0.2h-0.2
	h-0.4l-0.2,0.1h-0.2l-0.2,0.1h-0.2h-0.2h-0.1c0,0.2-0.1,0.5-0.5,0.5c-0.2,0-0.5-0.1-0.5-0.4c0,0,0,0,0,0h-0.1l0,0
	c0.1,0.3-0.1,0.6-0.4,0.8c-0.2,0.1-0.5,0.2-0.7,0.2c0,0.1,0,0.1,0,0.2h0.2h0.2h0.2l0.2-0.1H86h0.2h0.4h0.2H87l0.2-0.1h0.2l0,0
	c0.1-0.1,0.2-0.1,0.4-0.1c0.2,0,0.3,0.1,0.4,0.2l0,0h0.2c0.3-0.3,0.7-0.5,1.1-0.5c0.2,0,0.4,0.1,0.5,0.2c0.2,0,0.4,0,0.6,0l0.2-0.1
	H91h0.2h0.2l0.2-0.1h0.3c0.2-0.2,0.5-0.3,0.8-0.3c0.3-0.1,0.6,0,0.9,0.2h0.1l0.2-0.1H94h0.2h0.1v-0.3c0-0.1,0-0.2,0.1-0.3
	C94.4,158.4,94.3,158.3,94.3,158.3"/>
<path class="st0" d="M114.6,156.2c-0.4,0-0.8,0-1.2,0h-0.1h-0.2h-0.2l-0.2,0.1h-0.2h-0.2h-0.2l-0.2,0.1h-0.2l-0.2-0.1l-0.2,0.1h-0.2
	l-0.2,0.1h-0.2h-0.2l-0.2-0.1l-0.2,0.1h-0.2h-0.2l-0.2,0.1h-0.2H109h-0.2h-0.2h-0.2l-0.2,0.1l-0.2-0.1l-0.2,0.1h-0.2l-0.2,0.1H107
	l-0.2,0.1h-0.2h-0.2H106h-0.2h-0.2h-0.2l-0.2,0.1H105l-0.2,0.1l-0.2-0.1l-0.2,0.1h-0.2l-0.2,0.1h-0.2h-0.2l-0.2,0.1h-0.2H103
	l-0.2,0.1h-0.2h-0.2h-0.2l0,0l-0.2,0.1l-0.3,0.1c0.1,0,0.2,0.1,0.3,0.2c0.1,0,0.2,0,0.3,0.1c0.3,0.2,0.7,0.3,1,0.4h0.1l0.2-0.1h0.2
	h0.2h0.2h0.2h0.2l0.2-0.1l0.2,0.1l0.2-0.1l0.2,0.1l0.2-0.1h0.2h0.2h0.2h0.2h0.3h0.1l0.2-0.1h0.2h0.1c0.9-0.5,1.9-0.7,2.9-0.6
	c0.4,0,0.8,0.1,1.2,0.2h0.3h0.2h0.2h0.2h0.2h0.4h0.2h0.2h0.2l0.2-0.1h0.2h0.2l0.2,0.1h0.2h0.2l0,0c0-0.3,0.1-0.8-0.2-0.8"/>
<path class="st0" d="M117.7,156.7c0.2-0.1,0.4-0.1,0.5-0.2c0.3-0.2,0.6-0.3,1-0.3c0.4,0,0.7,0.2,1.1,0.1c0.4-0.1,1.6-0.7,1-1l0,0
	h-0.2h-0.2l-0.2,0.1h-0.2l-0.2,0.1l-0.2-0.1h-0.2h-0.1c-0.1,0.2-0.3,0.3-0.5,0.2h-0.5h-0.5h-0.2h-0.2h-0.2h-0.2h-0.1l-0.4,0.2
	c0.2,0.3,0.5,0.5,0.8,0.7"/>
<path class="st0" d="M133.7,155.1c0.1-0.1,0.1-0.2,0.2-0.2c0.3-0.2,0.6-0.5,0.9-0.7c-0.1,0-0.1-0.1-0.1-0.1l0,0l-0.2,0.1h-0.2h-0.4
	l-0.2,0.1h-0.2h-0.2H133h-0.2h-0.2l-0.2,0.1l-0.2,0.1H132h-0.2h-0.2h-0.2l-0.2,0.1H131l-0.2,0.1h-0.1l-0.1,0.1
	c0.3,0.2,0.4,0.6,0.2,0.9l0,0l0.2-0.1h0.2h0.2l0.2-0.1h0.2h0.2h0.2h0.2h0.2h0.2h0.2l0.2-0.1h0.2h0.2L133.7,155.1z"/>
<path class="st0" d="M136.8,154.8c0.2-0.3,0-0.5-0.4-0.6c-0.2,0-0.3-0.1-0.4-0.3h-0.2l0,0c0,0.4-0.2,0.7-0.5,0.9l-0.2,0.2l0,0h0.2
	h0.2h0.2l0.2-0.1h0.2h0.2l0.2-0.1L136.8,154.8L136.8,154.8"/>
<path class="st0" d="M112.2,131.3c0,0.1-0.1,0.3-0.2,0.3c0.4,0.1,0.8,0.1,1.2,0.1c-0.2,0-0.4-0.2-0.4-0.4c0-0.2,0.1-0.3,0.3-0.4H113
	l-0.2,0.1h-0.2h-0.2h-0.2l0,0L112.2,131.3z"/>
<path class="st0" d="M111.4,131.7c-0.1-0.1-0.2-0.2-0.2-0.3v-0.1H111h-0.2h-0.2h-0.2h-0.2H110l-0.2,0.1h-0.6H109h-0.2h-0.2
	c0,0.2-0.1,0.4-0.3,0.4c0,0.3-0.3,0.5-0.6,0.4c-0.2,0-0.4-0.2-0.4-0.4l-1.4-0.1h-0.1h-0.2h-0.2h-0.2H105h-0.2h-0.2l-0.2,0.1h-0.2
	H104h-0.2h-0.2h-0.2h-0.2l-0.2,0.1h-0.1c-0.7,0.3-1.4,0.3-2.1,0.2h-0.2h-0.2h-0.2l-0.2,0.1h-0.2h-0.2l-0.2,0.1h-0.2h-0.2l-0.2,0.1
	h-0.2h-0.2h-0.4l-0.2,0.1h-0.2l-0.2,0.1h-0.2h-0.2h-0.2h-0.2h-0.2h-0.2h-0.2h-0.2h-0.4l-0.2,0.1l-0.2,0.1l-0.1,0.2h-0.2l-0.2,0.1
	l-0.2-0.1v-0.2l0,0.1l-0.2,0.1l-0.2-0.1l-0.2,0.1h-0.2l-0.2,0.1l-0.2-0.1h-0.2h-0.2l-0.2,0.1h-0.2h-0.2H92l-0.1,0.1h-0.1h-0.1
	l-0.2-0.1h-0.1h-0.2h-0.2h-0.2l-0.2-0.1l-0.2,0.1h-0.2h-0.2h-0.2h-0.2l-0.2,0.1h-0.2h-0.2l-0.2,0.1h-0.2H88h-0.2h-0.2h-0.4H87
	l-0.2,0.1h-0.2h-0.2l-0.2,0.1h-0.4h-0.2h-0.2h-0.2H85h-0.2h-0.2h-0.2h-0.2l-0.2,0.1h-0.6h-0.2H83l-0.2,0.2h-0.4h-0.2l-0.2,0.1h-0.4
	h-0.2l-0.2,0.1l-0.2,0.2l-0.2-0.1l-0.2,0.1h-0.2h-0.2H80h-0.2h-0.2l-0.2,0.1l-0.2-0.1h-0.2h-0.2l-0.2,0.1h-0.2h-0.4h-0.2l-0.2,0.1
	h-0.1l-0.2,0.1v0.2l-0.1,0.1L77,135h-0.2h-0.2h-0.2l-0.2-0.1v-0.4l0.2-0.1h-0.2l-0.2,0.1h-0.2h-0.2v0.2l-0.2,0.1l-0.1,0.1l-0.2,0.1
	H75l-0.2,0.1h-0.2h-0.2h-0.2H74l-0.2-0.1l-0.2-0.1l-0.2-0.1v-0.2l0,0h-0.6h-0.2h-0.2l0.1,0.1l0.1,0.1v0.2l0.2,0.1h0.2h0.1h0.1
	l0.2,0.1l0.2,0.1h0.2l0.2,0.1v-0.1h0.2h0.2h0.2h0.2l0.2,0.1l0.2-0.1h0.2h0.2h0.2l0.2-0.1h0.2h0.2h0.2h0.2h0.2l0.2-0.1h0.2h0.2h0.2
	h0.2h0.6h0.2l0.2-0.1h0.2l0.2,0.1h0.2l0.2-0.1h0.2h0.2h0.2l0.2-0.1l0.2,0.1l0.2-0.1h0.2h0.2h0.2H82l0.2-0.1h0.2h0.2l0.2-0.1H83h0.2
	h0.2h0.3l0.2-0.1H84h0.2l0.2,0.1h0.2l0.2-0.1H85l0.2,0.1l0.2-0.1h0.2l0.2,0.1H86h0.2l0.2-0.1h0.2h0.2H87h0.2l0.1-0.1h0.2l0.2-0.1
	l0.1-0.1l0.2-0.1h0.2h0.2l0.2-0.1h0.2H89l0.2-0.1h0.2v0.2l-0.1,0.1h0.1h0.2l0.2,0.1l0.2-0.1l0.2,0.1h0.2h0.2l0.2-0.1h0.2h0.2h0.2
	l0.2-0.1h0.2h0.2h0.2h0.2h0.2l0.2,0.1h0.2h0.2h0.2l0.2-0.1h0.4h0.2h0.2l0.2-0.1h0.2l0.2-0.1h0.6H96h0.2h0.2h0.2h0.2H97h0.4h0.2h0.2
	l0.2,0.1h0.2h0.2h0.2h0.2L99,134h0.7h0.2h0.2l0.2-0.1h0.4h0.2l0.2-0.1h0.2l0.2-0.1h0.2h0.4h0.2h0.2h0.2h0.2h0.2
	c0.1-0.1,0.2-0.2,0.4-0.2c0.1,0,0.3,0,0.4,0.1h0.3l0.2-0.1h0.2h0.2h0.2c-0.1-0.2,0-0.5,0.5-0.6c0.5,0,0.5,0.2,0.5,0.5h0.1h0.1
	c0-0.1,0.1-0.1,0.2-0.2c0.3-0.1,0.7-0.2,1.1-0.2h0.2h0.1l0,0l0,0l0,0v0.1h0.1h0.2l0.2-0.1h0.2h0.2l0.2-0.1h0.2h0.2l0.2-0.1l0.2,0.1
	l0.2-0.1h0.1c0-0.2,0.2-0.4,0.5-0.4c0.2,0,0.4,0.1,0.5,0.3h0.2c-0.1-0.2,0-0.4,0.2-0.5"/>
<path class="st0" d="M116.6,131.2c0,0-0.1-0.1-0.1-0.1l-0.2,0.1c-0.1,0.1-0.2,0.2-0.4,0.2c-0.3,0.1-0.5,0.2-0.8,0.2
	c-0.1,0-0.2,0-0.2,0.1c0,0.1,0,0.2,0.1,0.2c0,0,0.1,0,0.1,0h0.2h0.2h0.2l0.2-0.1h0.2h0.2C116.2,131.5,116.3,131.3,116.6,131.2
	C116.5,131.2,116.5,131.2,116.6,131.2"/>
<path class="st0" d="M151.2,127.3L151.2,127.3H151h-0.2h-0.2h-0.2l-0.2,0.1l-0.2-0.1l-0.2,0.1h-0.2h-0.2l-0.2,0.1H149h-0.1
	c0,0.2-0.1,0.5-0.5,0.5c-0.2,0-0.5-0.1-0.5-0.4c0,0,0,0,0,0h-0.3h-0.2l-0.2,0.1H147l-0.2,0.1h-0.2h-0.2h-0.2l-0.2,0.1h-0.2l-0.2-0.1
	h-0.2h-0.2H145h-0.2h-0.2h-0.2h-0.7l-0.2,0.1h-0.2h-0.2h-0.2h-0.2h-0.2h-0.1l-0.2,0.1h-0.4l-0.2,0.1h-0.2h-0.6l-0.2,0.1h-0.4h-0.2
	h-0.2h-0.2l-0.2,0.1h-0.2l-0.2-0.1l-0.2,0.1h-0.2l-0.2,0.1l-0.2-0.1h-0.2l-0.2,0.1h-0.2l-0.2-0.1l-0.2,0.1H137h-0.2h-0.2h-0.2h-0.2
	h-0.2h-0.2h-0.2h-0.2h-0.2l-0.2,0.1h-0.2l-0.2,0.1l-0.2,0.4h-0.2L134,129h-0.2h-0.4l-0.2,0.1H133l-0.2,0.1h-0.4h-0.2h-0.2h-0.3h-0.2
	l-0.2,0.1h-0.2l-0.2,0.1l-0.2-0.1l-0.2,0.1H130c-1.1,0.6-2.3,0.8-3.5,0.6c-0.1,0-0.3-0.1-0.4-0.2l0,0l-0.2-0.1l-0.2,0.1h-0.6h-0.2
	h-0.2h-0.2h-0.2l-0.2,0.1h-0.2h-0.2l-0.2,0.1h-0.2h-0.2h-0.2l-0.2,0.1h-0.2l-0.2,0.1h-0.2h-0.2h-0.4c0.2,0.2,0.1,0.7-0.4,0.7
	s-1,0-1.6,0c-0.1,0.2-0.3,0.3-0.5,0.3c-0.2,0-0.5-0.1-0.5-0.4c0,0,0,0,0-0.1c-0.1,0-0.2-0.1-0.3-0.1l0,0h-0.2h-0.4h-0.2h-0.1
	c0.1,0.1,0.1,0.2,0.1,0.3c0,0.2-0.1,0.4-0.3,0.4c0.1,0.1,0.2,0.2,0.1,0.4h0.1l0.2-0.1h0.2h0.2h0.2h0.2h0.2h0.2h0.2h0.2l0.2-0.1h0.2
	h0.1h0.2l0.2-0.1h0.2h0.2h0.2h0.2h0.2h0.2h0.2h0.2h0.2h0.2h0.2l0.2-0.1h0.2h0.2h0.2h0.2h0.2h0.2l0.2-0.1h0.2l0.2-0.1h0.2h0.2
	l0.2,0.1h0.2l0.2-0.1l0,0c0.1-0.1,0.2-0.2,0.3-0.3c1.1-0.1,2.2-0.1,3.2,0l0,0l0.2-0.1h0.1c0.2,0,0.4-0.1,0.6-0.2
	c0.2-0.1,0.5-0.1,0.6,0.1l0.2-0.1l0,0c0.1,0,0.2-0.1,0.3-0.1h0.6h0.1h0.2h0.2h0.2h0.2l0.2-0.1l0.2,0.1h0.1c-0.1-0.2,0.1-0.5,0.5-0.5
	c0.2,0,0.5,0.1,0.5,0.4c0,0,0,0,0,0h0.1h0.2h0.2l0.2,0.1h0.2l0.2-0.1h0.2h0.2h0.2l0.2,0.1h0.2h0.2h0.2h0.4h0.2h0.2h0.2h0.2h0.2h0.2
	h0.2l0.2-0.1h0.2l0.2,0.1l0.2-0.1h0.2l0.2-0.1h0.4h0.2l0.2-0.1h0.2h0.2h0.2h0.2h0.4h0.2l0.2-0.1l0.2,0.1h0.2h0.2l0.2-0.1h0.2h0.2
	h0.2h0.2h0.6h0.2l0.2-0.1h0.2h0.2l0.2-0.1h0.2h0.4l0.2-0.1l0,0c0-0.2,0.2-0.4,0.5-0.4c1-0.1,2.1,0,3.1,0.1l0,0l0.2-0.1l0.2,0.1h0.2
	l0.2-0.1h0.2h0.1v-0.2c0-0.1,0-0.2,0.1-0.2c-0.1-0.2,0-0.5,0.2-0.6c0.1,0,0.1-0.1,0.2-0.1l0,0l0,0"/>
<path class="st0" d="M156,126.8h-0.2h-0.4h-0.2l-0.2-0.1h-0.2l-0.2,0.1l-0.2-0.1l-0.2,0.1H154h-0.2h-0.2h-0.2h-0.2L153,127h-0.2l0,0
	c0.2,0.1,0.2,0.3,0.1,0.5c0,0-0.1,0.1-0.1,0.1c-0.3,0.2-0.7,0.3-1.1,0.3c0,0,0,0.1,0,0.1v0.1l0.1-0.1l0.2,0.1l0,0l0.2-0.1l0.2,0.1
	h0.2h0.2h0.2h0.2h0.2l0.2-0.1h0.3c-0.1-0.2-0.1-0.4,0.1-0.5c0.1,0,0.1-0.1,0.2-0.1l1.8-0.4c0-0.1,0-0.1,0-0.2L156,126.8z"/>
<path class="st0" d="M157.3,127.6h0.2h0.2h0.1c0-0.2,0.2-0.4,0.5-0.4c0,0,0,0,0,0c0.2,0,0.4,0.1,0.5,0.3h0.2h0.1h0.2
	c0-0.2,0.3-0.4,0.5-0.4c0.2,0,0.4,0.1,0.5,0.3l0,0c0-0.1,0.1-0.1,0.1-0.2c0.1-0.3,0.1-0.6,0-0.8h-0.1h-0.2l-0.2-0.1l-0.2,0.1h-0.1
	c-0.2,0.2-0.6,0.2-0.8,0h-0.1h-0.2h-0.2h-0.2h-0.2l-0.2,0.1l-0.2-0.1l-0.2,0.1c0,0.1-0.1,0.1-0.1,0.1l0,0l0,0v0.1v0.1
	c0.2,0.1,0.2,0.4,0.1,0.5c0,0,0,0.1-0.1,0.1L157.3,127.6z"/>
<path class="st0" d="M161.5,126.7c0.1,0,0.2,0,0.3,0c0.1,0,0.2,0,0.3,0c0.5,0,1.1,0.1,1.6,0.3h0.1h0.2h0.1c0.1-0.1,0.1-0.1,0.2-0.1
	v-0.3c0-0.1,0.1-0.2,0.1-0.3c-0.2,0-0.4-0.1-0.4-0.3l0,0h-0.2h-0.2l-0.2,0.1h-0.2h-0.2l0,0c0,0.2-0.2,0.4-0.4,0.4c0,0,0,0-0.1,0
	c-0.2,0-0.5-0.1-0.5-0.4l0,0l-0.2,0.1h-0.2c0,0.2-0.1,0.3-0.2,0.4v0.1C161.4,126.8,161.5,126.8,161.5,126.7"/>
<path class="st0" d="M165.2,126l0.1-0.1h-0.1H165l-0.2,0.1c0,0.1,0,0.2-0.1,0.2c0.1,0,0.2,0,0.3,0.1
	C165,126.2,165.1,126.1,165.2,126"/>
<path class="st0" d="M207.8,131.9L207.8,131.9c-0.3-0.4-0.5-0.9-0.5-1.3h-0.1l0,0c-0.2,0.1-0.4,0.3-0.5,0.4l-0.2,0.1l0,0v0.3l0,0
	c0.3,0.2,0.6,0.5,0.7,0.8h0.2c0.1,0,0.2,0,0.3,0v-0.1l0.1-0.1l0,0L207.8,131.9z"/>
<path class="st0" d="M207.4,129.2l0.1-0.2l-0.1-0.1v-0.2v-0.2v-0.2v-0.2l-0.1-0.1v-0.2v-0.2v-0.2l-0.2-0.1v-0.2l-0.1-0.2v-0.2
	l-0.1-0.2l0.1-0.2v-0.2v-0.2v-0.2v-0.2v-0.2v-0.2v-0.2l-0.1-0.2v-0.2l0.1-0.2l-0.2-0.1v-0.2v-0.2v-0.2l-0.1-0.1V124l-0.2-0.1v-0.2
	l-0.1-0.1l-0.2-0.1l-0.1-0.1l-0.2-0.1l-0.2-0.1l-0.1-0.2l-0.2-0.1l-0.1-0.1h-0.2l-0.1-0.1h-0.2h-0.2l-0.1-0.2h-0.2l-0.2-0.1
	l-0.2-0.1l-0.2,0.1l-0.2-0.1h-0.2h-0.2l-0.2,0.1h-0.2h-0.2h-0.2l-0.2,0.1h-0.2h-0.2h-0.2H201l-0.2,0.1h-0.6l-0.2,0.1h-0.4h-0.2h-0.2
	H199h-0.2h-0.2l-0.2,0.1h-0.2H198h-0.2l-0.2,0.1h-0.2H197l-0.2,0.1h-0.4l-0.2,0.1H196h-0.3h-0.2h-0.3l0,0c-0.8,0.4-1.7,0.4-2.5,0.2
	h-0.2h-0.2l-0.2,0.1l-0.2-0.1l-0.2,0.1h-0.8l-0.2,0.1h-0.2h-0.2h-0.2h-0.2h-0.2h-0.2l-0.2,0.1l-0.2-0.1h-0.2l-0.2,0.1h-0.2h-0.2
	h-0.1c0,0.2-0.1,0.5-0.5,0.5c-0.1,0-0.2,0-0.3,0c-0.1,0.1-0.3,0.2-0.4,0.2c-0.3,0-0.5-0.2-0.5-0.5h-0.1l-0.2,0.1l-0.2-0.1h-0.2h-0.2
	h-0.2h-0.3c0,0.2-0.1,0.3-0.3,0.3l-0.5,0.2c-0.1,0.1-0.2,0.2-0.4,0.2h-0.2c-0.5,0.1-1.1,0-1.6-0.1c-0.1,0-0.2-0.1-0.2-0.1l-0.1,0.1
	h-0.2h-0.2h-0.2h-0.2h-0.2h-0.2l-0.2,0.1l-0.2-0.1l-0.2,0.1h-0.2h-0.2h-0.1c0.1,0.1,0.1,0.3-0.1,0.4c0,0-0.1,0-0.1,0l-0.7,0.2
	c0.1,0,0.2,0.1,0.2,0.2c0,0,0,0.1,0,0.1l0.2,0.1h0.2h0.2l0.2-0.1h0.2l0.2-0.1h0.4h0.2h0.4h0.2h0.2h0.2h0.2h0.2h0.2h0.2h0.4h0.2h0.2
	h0.2l0.2-0.1h0.4l0.2-0.1h0.2l0.2,0.1l0.2-0.1h0.2h0.6h0.2l0.2-0.1h0.2c0.1-0.1,0.2-0.1,0.3-0.1l0,0h0.1c0.1-0.1,0.3-0.1,0.5-0.1
	c0.2,0,0.3,0.1,0.4,0.2h0.1h0.2h0.4l0.2-0.1h0.2h0.6h0.2l0.2-0.1h0.2h0.2h0.2h0.2l0,0c0.1-0.2,0.3-0.2,0.4-0.2c0.6,0,1.3,0,1.9-0.1
	c0.2,0,0.4,0,0.5,0.1l0.1-0.1h0.2h0.2c0-0.2,0.2-0.4,0.5-0.4c0.2,0,0.4,0.1,0.5,0.2h0.1h0.2h0.2h0.4h0.2h0.2h0.2l0.2-0.1h0.2h0.2
	h0.2h0.2c-0.1-0.2,0-0.5,0.5-0.6c0.5,0,0.5,0.2,0.5,0.5h0.1l0.2,0.1l0.2-0.1h0.2l0,0c-0.1-0.3,0.1-0.7,0.6-0.6
	c0.8,0.1,1.6,0.2,2.4,0.3l0,0h0.2l0.2-0.1h0.2l0.2,0.1h0.2h0.2h0.2h0.2h0.2h0.2l0.2,0.1h0.2l0.1,0.2l0.2,0.1l0.1,0.1h0.2l0.1,0.1
	v0.2l0.2,0.1l0.1,0.1v0.2v0.2l0.1,0.1l0.1,0.2l-0.1,0.2l0.2,0.1v0.2v0.2v0.2v0.2l0.1,0.1v0.2v0.2l0.1,0.2v0.2l0.1,0.2l0,0
	c0.2,0,0.4,0.2,0.4,0.4c0,0.2-0.2,0.4-0.4,0.4l0.1,0.1v0.2v0.2v0.2l0.1,0.2v-0.1v0.1h0.4c0.3-0.1,0.6,0.1,0.6,0.4c0,0,0,0,0,0
	c0.1,0,0.2,0.1,0.3,0.2v-0.1L207.4,129.2z"/>
<path class="st0" d="M167.7,151.2L167.7,151.2l-0.9,0.3c-0.1,0-0.2,0-0.3,0c0.1,0.1,0.1,0.3,0.1,0.4h0.1h0.2h0.5
	c-0.1-0.2-0.1-0.4,0-0.6C167.5,151.3,167.6,151.2,167.7,151.2"/>
<path class="st0" d="M166.3,150.9h-0.2h-0.2h-0.2h-0.2l-0.2,0.1h-0.2h-0.2h-0.2h-0.2h-0.2h-0.2h-0.2h-0.2h-0.2l-0.2,0.1H163
	c0.2,0.2,0.1,0.7-0.4,0.7c-0.2,0-0.5-0.1-0.5-0.4c0,0,0,0,0-0.1l0,0c-0.3,0-0.5,0-0.8,0.1c-0.2,0.1-0.4,0.1-0.6,0
	c0,0.1-0.1,0.2-0.1,0.3c-0.3,0.3-0.7,0.4-1.1,0.5c0,0,0,0.1,0,0.1h0.3l0.2,0.1l0.2-0.1l0.2-0.1h0.4h0.2h0.2h0.2l0.2-0.1l0.2,0.1h0.2
	h0.1c0.1-0.1,0.2-0.2,0.3-0.3c0.8-0.2,1.7-0.2,2.5,0h0.1l0.2,0.1l0.2-0.1h0.2l0,0c-0.2-0.2,0-0.7,0.4-0.7h0.1
	C166.1,151.2,166.1,151,166.3,150.9"/>
<path class="st0" d="M158.6,152.6c-0.6,0-0.7-0.6-0.2-0.8h-0.9h-0.2H157h-0.2h-0.2l-0.2,0.1h-0.2H156h-0.4l-0.2,0.1h-0.2h-0.2
	l-0.2,0.1h-0.2h-0.2h-0.2l-0.2,0.1h-0.2h-0.2h-0.2H153h-0.2h-0.1c-1.7,0.6-3.6,0.8-5.4,0.5h-0.1l-0.2,0.1h-0.2l-0.2-0.1h-0.2h-0.2
	l-0.2,0.1l-0.2-0.1l-0.2,0.1h-0.2H145h-0.2h-0.2h-0.2l-0.2,0.1H144l-0.2,0.1h-0.2l-0.2,0.1h-0.2H143h-0.2l-0.2,0.1h-0.2h-0.2H142
	h-0.2h-0.2h-0.2l-0.2,0.1h-0.2h-0.1c0.3,0.2,0.2,0.7-0.3,0.7c-0.5,0-0.6-0.3-0.5-0.6h-0.2h-0.2l-0.2,0.1h-0.2l-0.2-0.1l-0.2,0.1
	l-0.2-0.1h-0.2h-0.2l-0.2,0.1h-0.2h-0.1c0,0.1-0.1,0.1-0.2,0.2c0.1,0.1,0.1,0.1,0.1,0.2c0,0.1,0,0.1,0,0.2c0.1-0.1,0.2-0.1,0.4-0.1
	c0.2,0,0.4,0.1,0.5,0.3h0.5c0.1,0,0.3,0,0.4,0.1c0-0.2,0.2-0.4,0.5-0.4c0,0,0,0,0,0c0.2,0,0.4,0.1,0.5,0.3l0,0h0.2h0.2h0.8l0.2-0.1
	h0.2h0.2h0.2h0.2h0.2h0.2h0.2l0.2,0.1h0.2h0.2l0.2-0.1h0.2l0.2-0.1h0.2h0.2h0.2h0.2h0.2h0.2l0.2-0.1h0.2l0.2-0.1h0.2h0.2h0.2h0.2
	h0.2h0.4h0.2h0.2h0.2h0.2h0.2l0.2-0.1h0.2l0.2,0.1l0.2-0.1h0.2l0.2-0.1h0.2h0.2h0.2h0.2h0.2h0.4h0.2l0.2-0.1h0.2h0.2h0.2h0.2h0.2
	h0.2h0.2h0.2l0.2-0.1h0.2h0.2l0.2,0.1h0.2h0.2h0.2l0.2-0.1h0.2h0.2l0.2-0.1h0.2h0.6l0.2-0.1h0.2l0.2,0.1l0.2-0.1h0.2l0.2-0.1h0.2
	h0.2h0.2l0.2-0.1l0.2-0.1h0.1c0,0,0,0,0-0.1"/>
<path class="st0" d="M209.7,144.6l0.1-0.2v-0.2v-0.2v-0.2l-0.1-0.2v-0.2l-0.1-0.2v-0.2v-0.5l0.1-0.2l-0.1-0.1v-0.2v-0.2v-0.2
	l0.1-0.2l-0.1-0.2l-0.1-0.2v-0.2v-0.2v-0.2v-0.2l-0.1-0.1v-0.2v-0.2v-0.2l0.1-0.2v-0.2v-0.2l-0.3-0.1v-0.2v-0.2l-0.1-0.2v-0.1v-0.2
	l0,0l0,0c-0.1-0.2-0.1-0.5-0.1-0.7V138v-0.3c0,0,0-0.1,0-0.1v-0.1v-0.1v-0.1v-0.1l-0.1-0.1l0.1-0.2l-0.1-0.1v-0.2v-0.2l-0.1-0.2V136
	v-0.2v-0.2v-0.2l-0.1-0.2v-0.2V135l-0.2-0.1l0.1-0.2v-0.2l0.1-0.2v-0.2l-0.1-0.1v-0.2v-0.2v-0.2l-0.1-0.2v-0.2v-0.2v-0.1
	c-0.1,0-0.1,0-0.2,0c-0.1,0.1-0.3,0.2-0.4,0.2h-0.1c0,0.4-0.1,0.8-0.3,1.2v0.4v0.2l0.1,0.2l-0.1,0.2l0.1,0.2v0.2v0.2l-0.1,0.2v0.2
	v0.2l0.1,0.2v0.5v0.2v0.2v0.1v0.1c0.5,0.9,0.7,1.9,0.6,2.9c0,0,0,0.1,0,0.1l0,0l-0.1,0.2v0.2l0.1,0.1v0.2l-0.1,0.2v0.2l0.1,0.1v0.2
	v0.2l0.1,0.1v0.2v0.1l0.1,0.1v0.2l0.1,0.2l-0.1,0.2v0.2v0.2v0.2v0.2l0.1,0.1v0.2l0.1,0.2v0.2v0.2l-0.1,0.2v0.2v0.2v0.2l-0.1,0.1v0.2
	l-0.1,0.1v0.2l-0.2,0.1l-0.1,0.1l-0.1,0.1l-0.1,0.2l-0.2,0.1l-0.2,0.1l-0.1,0.1l-0.2,0.1l-0.2,0.1l-0.2,0.1h-0.2h-0.2h-0.2h-0.2
	h-0.2l-0.2,0.1h-0.2h-0.2h-0.2h-0.8l-0.2,0.1h-0.2h-0.2l-0.2,0.1h-0.2h-0.2h-0.2h-0.4h-0.2h-0.4h-0.2h-0.2l-0.2,0.1h-0.2h-0.4h-0.2
	h-0.2h-0.2l-0.2,0.1h-0.2h-0.2l-0.2,0.1h-0.2h-0.2h-0.2l-0.2,0.1h-0.2h-0.2h-0.2h-0.4h-0.2h-0.2l-0.2,0.1h-0.2l-0.2,0.1h-0.2h-0.2
	h-0.2h-0.2l-0.2,0.1H195h-0.2h-0.2l-0.2,0.1h-0.2H194l-0.2,0.1h-0.2h-0.2h-0.2l-0.2,0.1h0h-0.2h-0.2h-0.4H192h-0.2l-0.2,0.1h-0.2
	h-0.2l-0.2,0.1h-0.2h-0.2l-0.2,0.1h-0.2H190h-0.2h-0.2h-0.2h-0.2H189h-0.2l-0.2,0.1h-0.2h-0.2l-0.2-0.1h-0.2h-0.2h-0.2l-0.2,0.1H187
	h-0.2h-0.2l-0.2,0.1l-0.2-0.1H186h-0.2l-0.2,0.1h-0.2h-0.2H185h-0.2l-0.2,0.1l-0.2-0.1h-0.2H184l-0.2,0.1h-0.2h-0.2h-0.2h-0.2h-0.2
	l-0.2,0.1l-0.2,0.1l-0.2-0.1h-0.2h-0.2h-0.2l-0.2,0.1h-0.2H181l-0.2,0.1h-0.6H180h-0.2h-0.2h-0.2l-0.2,0.1H179h-0.2h-0.2l-0.2,0.1
	h-0.2H178l-0.2,0.1l-0.2-0.1h-0.2h-0.2l-0.2,0.1h-0.2h-0.2l-0.2,0.1h-0.2H176h-0.2l-0.2,0.1h-0.2h-0.2l-0.2-0.1h-0.2h-0.2h-0.2h-0.2
	H174h-0.2h-0.2h-0.1c0,0.2-0.2,0.3-0.3,0.3c-0.5,0.1-1,0.2-1.5,0.2c-0.2,0-0.4-0.1-0.5-0.2l0,0l-0.2-0.1l0,0
	c0.3,0.2,0.2,0.7-0.3,0.7c-0.5,0-0.6-0.3-0.5-0.5H170c-0.4,0.1-0.9,0.3-1.3,0.4c0.1,0.2,0.1,0.4-0.1,0.6c0,0-0.1,0.1-0.2,0.1l0,0
	c0.8-0.1,1.7-0.2,2.5-0.2h0.2c1.1-0.1,2.1-0.3,3.2-0.3c0,0,0-0.1,0-0.1c0-0.2,0.2-0.4,0.5-0.4c0.2,0,0.3,0.1,0.4,0.2
	c0.1,0,0.2,0,0.2,0c0.3,0,0.5,0.1,0.7,0.3h0.2h0.2h0.3c-0.2-0.2,0-0.6,0.4-0.6c0.2,0,0.4,0.1,0.5,0.3c0.2-0.2,0.6-0.2,0.8,0l0.1,0.1
	h0.1h0.2l0.2-0.1h0.2h0.1c0-0.3,0.2-0.5,0.4-0.5c0.1,0,0.2,0,0.3,0.1c0.2,0.1,0.5,0.2,0.7,0.2l0,0h0.2h0.2h0.4h0.2h0.2h0.2l0.2,0.1
	l0.2-0.1h0.2h0.2h0.2l0.2-0.1l0.2,0.1h0.6l0.2-0.1l0.2,0.1h0.2l0.2-0.1h0.8l0.2-0.1l0.2,0.1l0.2-0.1l0.2,0.1l0.2-0.1h0.2h0.4
	l0.2-0.1h0.2h0.2h0.2h0.2h0.1h0.2h0.1c0.1,0,0.2,0,0.3,0l0,0l0.2-0.1h0.2h0.2h0.2h0.2h0.2h0.2l0.2,0.1h0.1c0-0.2,0.2-0.4,0.4-0.4
	c0,0,0,0,0.1,0c0.2,0,0.4,0.1,0.5,0.3h0.1h0.2l0.2-0.1h0.2h0.3l0.2-0.1h0.2h0.1l0.3-0.1l0,0c0.9-0.3,1.8-0.4,2.8-0.2h0.2l0.2,0.4
	h0.2h0.2h0.2h0.1c0.2-0.2,0.6-0.2,0.8,0c0,0,0,0,0,0h0.1l0.2-0.1l0.2,0.1l0.2-0.1h0.2h0.2h0.1h0.1l0,0c0.1-0.1,0.3-0.2,0.5-0.2
	c0.1,0,0.2,0,0.3,0.1l0,0h0.2l0.2-0.1h0.2l0.2-0.1h0.2h0.2c0.1-0.1,0.2-0.1,0.3-0.1h0.8c0.1,0,0.1-0.1,0.2-0.1
	c0.7-0.1,1.4-0.2,2-0.1l0,0h0.5h0.1h0.2h0.2h0.2h0.4l0.2-0.1h0.2l0.2-0.1h0.2l0.2-0.1l0.2-0.1l0.1-0.1h0.2h0.1l0,0l0,0l0,0
	c0-0.3,0.3-0.4,0.6-0.4l0.1-0.1l0.1-0.2l0.1-0.1l0.2-0.1v-0.2l0.1-0.1l0.1-0.1v-0.2V146l0.1-0.1v-0.9l-0.1-0.2L209.7,144.6z"/>
<path class="st0" d="M176.7,124.9c0.2-0.1,0.5-0.2,0.7-0.3h-0.2H177h-0.2h-0.2l-0.2,0.1l0,0c0.1,0.2,0,0.4-0.2,0.4c0,0,0,0,0,0
	c-0.5,0.2-1,0.4-1.5,0.6h-0.2l0,0h0.2h0.1c0.1,0,0.2,0,0.3,0l0,0h0.2h0.2h0.2h0.2h0.2l0.2-0.1l0.2,0.1h0.2h0.1
	c-0.4,0-0.7-0.6-0.2-0.7"/>
<path class="st0" d="M170.5,126.3h0.2h0.2h0.2h0.2h0.2c0,0,0-0.1,0-0.1c-0.1-0.1-0.3-0.1-0.5,0c-0.2,0-0.3,0-0.5,0
	c-0.1,0.2-0.2,0.3-0.4,0.3l0.2,0.1L170.5,126.3z"/>
<path class="st0" d="M165.5,126.8h0.4l0.2-0.1h0.2l0.2,0.1l0.2-0.1h0.2l0.2-0.1h0.2h0.2h0.1h0.2l0.2-0.1l0.2,0.1l0.2-0.1l0.2-0.1
	l0.2,0.1h0.2h0.2h0.2h0.2h0.2h0.1c-0.6,0-0.7-0.7-0.1-0.8c0-0.1,0.1-0.1,0.1-0.1l0,0h-0.2l-0.2,0.1h-0.2h-0.2H169l0,0
	c0,0,0,0.1,0,0.1c0,0.2-0.2,0.4-0.5,0.4c-0.1,0-0.3,0-0.4-0.1c-0.2,0-0.4-0.1-0.4-0.3h-0.3h-0.2h-0.1c0.1,0.2,0,0.6-0.5,0.6
	c-0.3,0-0.6,0.1-0.8,0.3c-0.2,0.2-0.5,0.2-0.7,0v0.3h0.1L165.5,126.8z"/>
<polygon class="st0" points="73.6,135.7 73.4,135.8 73.2,135.7 73.1,135.8 72.9,135.8 73,135.7 72.9,135.9 72.9,135.8 73,135.8 
	73,135.9 73.1,135.7 73.1,135.6 72.8,135.6 72.7,135.5 72.7,135.3 72.6,135.1 72.5,135 72.7,135 72.9,135 73.1,135 73.3,135 
	73.5,134.9 73.5,135 73.5,135.2 73.6,135.2 73.7,135.1 73.9,135 74.1,135 74.3,135 74.4,135.2 74.4,135.3 74.6,135.4 74.6,135.6 
	74.8,135.7 75,135.7 74.8,135.8 74.6,135.9 74.6,135.7 74.5,135.5 74.5,135.3 74.4,135.2 74.4,135 74.2,135 73.9,134.9 73.8,135.1 
	73.7,135.2 73.7,135.3 73.7,135.5 73.6,135.7 "/>
<polygon class="st0" points="73,135.9 73,135.9 73,135.9 72.9,135.8 73,135.7 73,135.6 72.8,135.5 72.7,135.5 72.6,135.3 
	72.5,135.1 72.6,135.1 72.8,135 73,134.9 73.2,134.9 73.4,135 73.6,134.9 73.6,135 73.6,135.2 73.7,135.3 73.7,135.5 73.6,135.6 
	73.6,135.7 73.4,135.7 73.2,135.6 73.1,135.8 72.9,135.8 73,135.8 "/>
<polygon class="st0" points="71.6,135 71.7,135.2 71.7,135.4 71.8,135.5 71.8,135.7 71.9,135.6 71.7,135.5 71.5,135.4 71.5,135.3 
	71.5,135.1 "/>
<path class="st0" d="M92.3,108.2c0.3,0.3,0.5,0.7,0.5,1.2c0,0.5-2.5,5.2-2.7,6.1c-0.3,1.3,12.1-4.5,16.2-6c2.2-1.5,4.7-2.6,7.3-3.1
	c0.9-0.1,1.8-0.2,2.7-0.1c0.7,0,1.4,0.2,1.9,0.7c0.2,0.2,0.3,0.5,0.3,0.8c0.1,0.4,0.2,0.8,0.3,1.2c0,0.4-0.1,0.5-0.3,0.6
	c-0.2,0.1-0.5,0-0.8-0.1c-1.7-0.6-4.1,0.2-6.1,1.1c-1.6,0.8-3.1,1.9-4.2,3.4c-0.2,0.3-0.1,0.3,0.2,0.3c2.4-0.4,4.7-1.2,6.8-2.3
	c1.3-0.6,5.3-2.7,6.7-3.4c0.4-0.2,0.7-0.5,0.9-0.9c0.2-0.2,0.5-0.4,0.7-0.5c0.3-0.1,0.6,0,0.9,0.1l0.7,0.3c0.3,0.1,0.5,0.4,0.6,0.6
	c0.2,0.3,0.2,0.7,0.2,1c-0.1,0.3-1.8,2.8-2.2,3.5c8.8-3.3,17.3-7.4,23.3-8.4c1.8-0.3,3.5,0.3,3.7,1c0.1,0.7,0.1,1.3,0.1,2
	c0,0.4,0,0.6-0.3,0.7s-1.3-0.3-1.6-0.3c-0.3-0.1-0.7-0.1-1,0c-2.7,0.6-6.5,2.1-7.9,4.6c-0.4,0.7-0.2,1,0.2,0.9
	c4.1-0.6,10.4-4.5,13-6.1c0.3-0.2,0.9-1,1.2-0.9c0.8,0.1,1.5,0.6,1.9,1.3c0.1,0.2,0.1,0.6-0.2,1.5c-0.8,2-1.8,3.8-3,5.6
	c3-0.7,6.5-1.6,9.6-2.3c2.6-5.2,8.6-8,11.1-8.1c5-0.2,4.9,1.8,5.1,2.1c0.3,0.6-0.2,1.3-0.5,1.9c-0.5,0.9-1.3,1.6-2.2,2.1
	c-3.3,1.7-6.7,3.1-10.3,4c-0.2,0.3-0.8,1.9,1.6,1.9c6.9,0,17.2-4.3,24.2-8.4c0.7-0.3,1.4-0.5,2.1-0.5c0.6,0,1.2,0.1,1.7,0.3
	c0.3,0.1,0.7,0.2,1,0.3c0.3,0.2,0.4,0.5,0.4,0.8c-0.4,1.2-0.9,2.3-1.6,3.3c4.5-2.5,9.2-4.6,14.2-6.1c1.1-0.3,2.3-0.4,3.5-0.3
	c0.6,0.1,1,0.5,1.3,0.9c0.3,0.3,0.6,0.7,0.8,1.1c0.2,0.4,0.3,0.9,0.2,1.3c0,0.2-2.2,2.8-2.4,4c-1.7,2.5,22.7-9.4,32.1,0
	c0.3,0.3,0.3,0.5,0.4,0.9c0.4,1.1-0.7,0.8-1,0.5c-4.7-4.7-17.3-3.7-31.8,2.4c-0.4,0.2-0.9,0.2-1.3,0c-0.2-0.2-1.2-0.9-1.4-1.2
	c-0.2-0.2-1.3-1.3-1.2-1.9c0.2-1.3,3.2-4.8,1.6-4.8c-5.4,1.1-13,5.5-18.8,8.3c-0.6,0.3-1.3,0.2-1.7-0.4c-0.4-0.3-0.7-0.6-1-1
	c-0.4-0.6,0.1-1.3,0.4-1.8c0.8-1.2,1.9-2.4,2.1-2.7c-6.9,3.2-16.6,7.8-23.5,8.1c-1.1-0.1-2.2-0.3-3.3-0.7c-1.5-0.5-2.5-2-2.3-3.6
	c-5.3,1.1-9.1,2-11.3,2.7c-4.5,5.3-14.3,15.7-19.7,18.7c-0.8,0.4-3.3,1.2-4.6,0.4c-0.6-0.7-1.2-1.5-1.6-2.3
	c-0.4-0.5-0.5-1.2-0.3-1.8c0.1-0.3,0.2-0.6,0.3-0.9c0.1-0.2,3.7-6.9,13.6-12.2c3.2-1.6,6.5-2.9,9.9-4.1c1-1.3,1.9-2.7,2.7-4.1
	c-1.3,0.8-3.3,1.7-5,2.5c-2.9,1.3-6.5,3.1-8.3,3.3c-0.6,0.1-1.1-0.1-1.6-0.4c-0.6-0.4-1-0.9-1.4-1.5c-0.3-0.4-0.3-1-0.2-1.5
	c0.1-0.8,2.5-3.3,3.4-4.1c-5.6,1.8-11.1,3.9-16.4,6.3c-2.5,3.9-5.4,7.5-8.7,10.7c-2,2-4.4,3.8-6.9,5.2c-1,0.5-3.2,1.2-4,0.9
	c-0.9-0.6-1.6-1.4-2.1-2.3c0-0.7,0.2-1.4,0.6-2c1.8-3.2,4.3-5.9,7.3-7.9c3.3-2.3,6.9-4.2,10.7-5.7c0.2-0.2,1.8-2.8,1.9-3.2
	c-2.2,1.6-4.5,3-7,4.2c-2.7,1.3-6.1,2.5-7.8,2.1c-0.5-0.2-0.8-0.6-1.1-1c-0.3-0.5-1-1.1-1-1.8c0.1-0.9,0.4-1.7,0.8-2.4
	c-3,1.1-11.7,5.3-15.4,6.4c-0.7,0.2-1.9-1.2-2.3-1.5c-0.5-0.4-0.5-1.2-0.1-1.7c0,0,0,0,0,0c0.2-0.3,0.3-0.6,1.2-1.9
	c-3.4,2.3-11.5,5.9-14.3,6.1c-0.5,0.1-1-0.1-1.3-0.6c-0.4-0.5-0.8-0.8-1.2-1.3c-0.3-0.6-0.2-1.3,0.1-1.9c1.3-2.3,3.1-4.2,5.3-5.6
	c2.5-1.8,5.2-3.4,8-4.7c-3.3,0.8-8.9,1.8-15.7,2.9c-4.8,5.7-9.3,11.8-13.3,18.2c-0.8,1.2-1.3,2.9-1.9,3.4c-0.4,0.3-0.9,0.3-1.2-0.1
	c0,0-0.1-0.1-0.1-0.2c-0.4-0.7-1.3-1.3-1.7-1.7c-0.6-0.7-0.4-1.2,0.2-2.1c3.6-5.8,7.6-11.3,12-16.6c-8.2,1.3-11.9,2.1-18.3,2.9
	c-4.8,5.8-10.3,14.7-12.7,18.4c-0.5,0.8-0.7,1-1.4,0.7c-0.9-0.4-1.6-1.1-2.2-1.8c-0.3-0.5,0.1-1.1,0.6-1.9c2.4-4.3,8-12.1,10.2-15
	c-9.8,1.1-20.7,2.4-29.3,2.4c-1.6-0.2-2.9-1.1-3.6-2.5c-0.7-1.2,0-1.1,0.7-1.2c1.4-0.1,2.7-0.2,4.1-0.1c1,0,2,0.2,2.9,0.6
	c1.7,0.3,19.3-1.3,27.5-2.1c4.9-6,15.8-18,16.6-18.9c0.6-0.6,1.7-1.5,2.7-0.9c1.3,0.7,2.5,1.4,2.3,2.1c-0.1,0.4-0.5,0.4-1.1,0.9
	c-1.9,1.5-11.8,12.8-14.7,16.3c5.5-0.7,9.9-1.5,18.3-2.8c5.1-6.4,10.6-12.6,16.4-18.4c0.6-0.7,1.3-1.2,2.2-1.5
	c0.7,0,1.5,0.2,2.1,0.6c0.8,0.5,1.6,1.1,1.3,1.6s-0.9,0.5-1.6,1.2c-5.1,4.8-9.9,10-14.3,15.5c5.8-0.7,12.5-2.2,18.1-3.2
	c1.2-0.2,1.1-0.9,2.2-0.5c1.3,0.5,2.9,1.8,2.2,2.5c-0.9,0.7-1.9,1.2-3,1.6c-0.6,0.1-1.3,0.2-1.9,0.3c-1.8,0.6-14.1,8.2-13.7,9.3
	c0.1,0.3-0.1,0.4,0.2,0.3c4.1-1,10.7-4.2,12.4-5.6c1-0.8,1.7-1.8,2.3-3C89.9,106.4,91.9,107.8,92.3,108.2z M116.6,117.8
	c-3.3,1.7-6.5,3.8-9.3,6.3c-1.9,1.8-3.6,3.7-5.1,5.8c-0.2,0.3-0.2,0.4,0.1,0.3c2.2-0.8,4.2-2,5.9-3.6
	C111.3,124.1,114.1,121.1,116.6,117.8z M145,119.3c-5.5,1.3-12.3,7.3-15.2,10.4c-1,1.1-3.7,4.2-2.9,4.6
	C129.2,135.2,141,123.7,145,119.3z M166.6,111.4c2.8-0.5,8.3-3.3,8.6-4.7C174.6,105.8,168.5,108.5,166.6,111.4L166.6,111.4z"/>
<path class="st0" d="M233.7,116.1c-0.1-1.3,0.9-2.3,2.2-2.4c1.3-0.1,2.3,0.9,2.4,2.2c0.1,1.3-0.9,2.3-2.2,2.4c0,0-0.1,0-0.1,0
	C234.8,118.4,233.7,117.4,233.7,116.1C233.7,116.2,233.7,116.2,233.7,116.1z M236,118.8c1.5-0.1,2.6-1.4,2.5-2.9
	c-0.1-1.5-1.4-2.6-2.9-2.5c-1.4,0.1-2.5,1.3-2.5,2.7c0,1.5,1.2,2.6,2.7,2.6C235.9,118.7,235.9,118.7,236,118.8L236,118.8z
	 M235.4,116.4h0.6l0.9,1.3h0.5l-0.9-1.3c0.5,0,0.8-0.3,0.8-0.8s-0.4-0.9-1.1-0.9h-1.2v3h0.5L235.4,116.4z M235.4,116v-0.9h0.7
	c0.3,0,0.7,0.1,0.7,0.4s-0.4,0.5-0.8,0.5L235.4,116z"/>
</svg>
