<?xml version="1.0" encoding="utf-8"?>
<!-- Generator: Adobe Illustrator 21.1.0, SVG Export Plug-In . SVG Version: 6.00 Build 0)  -->
<svg version="1.1" id="Layer_1" xmlns="http://www.w3.org/2000/svg" xmlns:xlink="http://www.w3.org/1999/xlink" x="0px" y="0px"
	 viewBox="0 0 250 250" style="enable-background:new 0 0 250 250;" xml:space="preserve">
<style type="text/css">
	.st0{fill:#FDFDFD;}
	.st1{fill:#182274;}
	.st2{fill:#D6271E;}
	.st3{fill:#4F4D5F;}
	.st4{fill:#131F7D;}
</style>
<title>CR</title>
<ellipse transform="matrix(0.9866 -0.1633 0.1633 0.9866 -18.5636 21.4918)" class="st0" cx="121.4" cy="123.6" rx="116.1" ry="52.6"/>
<path class="st0" d="M237.3,165.2c-0.9,9.2-11.2,16.5-23.8,16.5c-12.6,0-22.7-7.5-23.7-16.7c0-0.2,8.9-7.5,9.7-7.9
	c0.8-0.4,13.1-5.2,14.8-4.9c3.2,0.7,16.7,6.9,16.8,8.5C232.5,162.2,237.3,165.1,237.3,165.2z"/>
<path class="st1" d="M194.4,159.7c-9.7,4.1-19.6,7.5-29.7,10.3c-15.2,4.1-30.8,6.9-46.5,8.4c-14.5,1.4-29,1.5-43.5,0.3
	c-12.3-0.9-24.4-3.4-36.1-7.3c-8-2.5-15.5-6.5-22.2-11.7c-5.2-4.3-9.2-9.4-10.9-16.1c-0.1-0.4-0.1-0.8-0.6-0.9v-9.6
	c0.4,0,0.5-0.4,0.6-0.7c1.7-7.7,6.1-13.9,11.5-19.5c6.3-6.2,13.4-11.6,21.1-15.9c6.5-3.8,13.3-7.2,20.3-10.2
	c3.7-1.6,7.5-2.9,11.6-4.5c-0.6,2.2-1.2,3.6-3.3,4.5c-12.4,4.8-24,11.6-34.3,20c-6.9,5.8-12.8,12.4-16,21
	c-2.2,5.5-2.3,11.6-0.5,17.2c1.6,4.4,4.3,8.4,7.8,11.5c3.9,3.5,8.2,6.5,12.9,8.8c11,5.6,22.8,8.2,34.9,10.1
	c3.4,0.6,6.8,1.1,10.2,1.3c4.3,0.2,8.6,0.3,12.9,0.3c16.9,0.1,33.8-1.6,50.4-5c19.6-3.8,38.5-10.6,56-20.1c0.3-0.2,0.6-0.3,0.9-0.5
	c1.8-1.1,1.8-1.5,0.1-2.7c-0.9-0.7-1.3-1.9-2.6-2.1c-1.7-2.6-2.6-5.7-4.9-7.9c-0.5-0.5-0.7-1.3-0.7-2c-0.3-1.9,0.5-3.7,0.7-5.5
	c0.2-1.2-0.2-1.9-1.6-1.8c-1.8,0.1-3.5-0.3-5.2-0.9c0.3-0.9,1-1.3,1.5-1.9c0.8-1.1,2.1-2.1,2.4-3.4c1.3-5.3,3.8-10.3,7.2-14.6
	c4.2-5.3,11.4-7.8,17.2-2.6c0.4,0.5,1.2,0.6,1.8,0.2c4-1.9,7.9-2.4,11.5,0.9c0.3,0.2,0.8,0.2,1.2,0.3c0.1,0.5,0.2,0.9,0.5,1.3
	c1.5,1.9,2.5,4.3,2.9,6.7c0.1,0.7,0.4,1.4,0.9,1.9c2.1-6.5,1.3-13.6-2.1-19.5c-4.3-7.5-11-12.4-18.5-16.2c-10.6-5.2-22-8.5-33.7-10
	c-34-4.7-67.3-0.6-99.9,9.8c-2.6,0.8-5.1-0.1-8,0.3c0.5-0.5,1.2-0.8,1.9-1c28.3-9.1,57.8-13.4,87.5-12.7c11.7,0.1,23.3,1.5,34.7,4
	c11.1,2.6,22.1,5.8,31.8,12.1c6.6,4.3,12.1,9.5,15.1,17c0.6,1.5,0.2,3.2,1.4,4.4v8.4c-0.5,0.1-0.5,0.6-0.5,1c-1.4,6-4.3,11.5-8.5,16
	c-1.3,1.5-1.9,3.4-1.7,5.4c0.1,1.3,0,2.6-1.5,3c-0.3,0.1-0.6,0.4-0.6,0.7c-1.6,4.1-4.4,7.6-8.1,10c1.2,1.2,2.3,2.2,3.4,3.3
	c0.6,0.5,0.8,1,0.3,1.7c-0.9,1-0.4,1.5,0.4,2.2c2.8,2.2,5.6,4.5,8.4,6.8c0.4,0.3,1.2,0.5,0.7,1.3s-1.1,0.1-1.6-0.2
	c-2.8-2.2-5.6-4.5-8.4-6.8c-0.9-0.7-1.2-0.6-1.7,0.3c-1.1,1.9-2.3,3.7-3.3,5.7c-0.6,1.1-1,1-1.9,0.3c-1.8-1.6-3.7-3.1-5.9-4.9
	c0,3.4,0,6.3,0,9.2c0,0.6,0.3,1.5-0.8,1.5c-1.1,0-0.6-0.9-0.6-1.4c0-2.9,0-5.8,0-9.2c-2.2,1.8-4.2,3.4-6,5c-0.9,0.8-1.2,0.6-1.7-0.3
	c-1-1.8-2.2-3.6-3.3-5.5c-1.3-2.1-1.4-2.2-3.1-0.4c-2,2.1-4.5,3.8-6.6,5.7c-0.3,0.3-0.7,0.6-1.1,0.9s-0.7,0.6-1.2,0
	s-0.2-0.9,0.3-1.3c1.6-1.3,3.2-2.6,4.7-4c0.3-0.1,0.7-0.3,0.4-0.6C195.3,159.1,194.7,159.5,194.4,159.7z M230.9,113.4l0.2,0.2v-0.2
	L230.9,113.4c-0.6-4.4-4.7-7.5-9.2-7c-0.2,0-0.4,0.1-0.5,0.1c3,0.9,5.6,2.5,7.7,4.8C229.6,112.1,229.9,113.1,230.9,113.4z
	 M232.2,132c0-2.3-0.3-4.5-0.9-6.7c-0.2-0.9-0.8-1.7-1.7-1.9c-3.4-1.3-6.3-3.6-8.3-6.6c-0.9-1.3-1.9-2.6-2.9-3.8
	c-0.8-1-1.5-1.1-2.3,0.1c-1.7,2.8-3.7,5.4-6,7.7c-0.9,0.9-1.5,1.7-0.1,2.6c0.3,0.2,0.8,0.7,0.4,1.2c-0.3,0.5-0.9,0.2-1.2,0
	c-1.3-0.8-2.2-0.4-3.3,0.6c-2.1,2.3-5.1,3.7-8.3,3.9c-1-0.1-1.9,0.7-2,1.8c0,0.1,0,0.3,0,0.4c0.1,4.7,1.6,9.3,4.4,13.1
	c4.1,5.4,9.6,8.1,16.5,7.1C225.3,150.3,232.1,141.8,232.2,132L232.2,132z M233.9,122.1c-2-3.7-4.4-7.2-7.1-10.3
	c-1.3-1.6-3.2-2.7-5.2-3.1c-0.9-0.1-2.1-0.7-2.8,0.3c-0.7,1,0.2,1.9,0.7,2.7c1.9,2.8,4,5.5,6.4,7.9
	C227.9,121.8,231,122.7,233.9,122.1L233.9,122.1z M194.5,125.7c0.8,0.3,1.7,0.2,2.3-0.3c3.6-1.7,6.4-4.6,7.9-8.3
	c1.9-4.2,4.6-7.5,9.7-7.6c-0.2-0.7-0.6-0.7-1-0.8c-5.2-1-10.3,1.8-12.2,6.7C199.6,119.1,198,122.9,194.5,125.7L194.5,125.7z
	 M204.2,151.9c-1.2,0.7-2.3,1.7-3.1,2.9c0,0.2,0.2,0.3,0.3,0.5c1.5,2.4,3,4.9,4.4,7.3c0.3,0.6,0.6,0.8,1.2,0.3
	c1.5-1.3,3.1-2.7,4.7-4c0.3-0.2,0.8-0.5,0.4-0.9c-2.5-2.1-5.1-4-7.6-6C204.3,152,204.3,151.9,204.2,151.9L204.2,151.9z M223.2,151.8
	l-0.9,0.7c-2.1,1.7-4.3,3.4-6.4,5c-0.9,0.6-1,1,0,1.7c1.4,1,2.7,2.1,3.9,3.3c0.9,0.8,1.3,0.9,2-0.3c1.2-2.2,2.5-4.2,3.8-6.3
	c0.3-0.5,1-0.9,0.4-1.5C225.1,153.5,224.1,152.6,223.2,151.8L223.2,151.8z M196.8,127.5c2,0,4-0.6,5.7-1.7c3.3-2.2,6-5.1,8-8.5
	c1-1.7,2.3-3.1,3.8-4.3c0.4-0.3,1.2-0.7,0.9-1.4s-1.1-0.6-1.8-0.3c-3.1,0.8-5.6,3-6.9,5.9C204.4,121.5,201,125.1,196.8,127.5
	L196.8,127.5z M192.9,124c1.2-0.5,2.2-1.3,3-2.3c2-2.4,3.6-5.1,4.8-8c1.6-3.8,5.1-6.5,9.2-7c1-0.1,2.1-0.2,3.1-0.3
	c-0.1-0.5-0.4-0.5-0.7-0.7c-4.3-1.6-8.5-0.1-12,4.3C197,114.2,195.2,119,192.9,124L192.9,124z M208.3,152.5l-0.1,0.5
	c1.5,1.2,3.1,2.4,4.7,3.7c0.4,0.4,0.8,0.6,1.3,0.1c1.7-1.4,3.4-2.7,5.1-4C215.7,153.4,211.9,153.3,208.3,152.5L208.3,152.5z"/>
<path class="st2" d="M230.4,107.6c-0.4-0.1-0.9,0-1.2-0.3c-3.6-3.3-7.5-2.8-11.5-0.9c-0.6,0.4-1.3,0.3-1.8-0.2
	c-5.8-5.2-13.1-2.7-17.2,2.6c-3.4,4.3-5.8,9.3-7.2,14.6c-0.3,1.3-1.5,2.3-2.4,3.4c-0.5,0.6-1.2,1-1.5,1.9c1.6,0.7,3.4,1,5.2,0.9
	c1.4-0.1,1.8,0.5,1.6,1.8c-0.2,1.8-1,3.6-0.7,5.5c0,0.7,0.3,1.4,0.7,2c2.4,2.2,3.2,5.3,4.9,7.9c-2.9,1.9-6,3.5-9.2,4.7
	c-14.5,6.3-29.7,10.9-45.3,13.7c-16.4,3.1-33.1,4.6-49.8,4.2c-14.6-0.1-29.1-2.4-43-6.7c-8-2.7-15.6-6.1-21.8-12.1
	c-8.6-8.4-9.8-18.8-3.2-28.9c4.4-6.8,10.4-11.9,17-16.4c6.3-4.2,13-7.9,20-10.8c0.5-0.2,0.9-0.6,1.7-0.3l-9.2,23.7l10.5,0.5
	c1,0,1.2-0.7,1.5-1.4c1.3-3.7,2.9-7.3,4-11.1c0.1-0.7,0.5-1.3,1.1-1.7c0.6,0.7,0.1,1.4-0.1,1.9c-1.4,3.6-2.8,7.2-4.3,10.7
	c-0.5,1.3-0.3,1.7,1.2,1.7c2.4,0,4.8,0.1,7.2,0.3c1.4,0.4,2.9-0.5,3.3-1.9c0-0.1,0-0.1,0-0.2c3.9-10.4,8.1-20.7,12-31
	c0.3-1.1,1.2-1.9,2.4-2c4.9-0.9,9.7-1.9,14.5-3c8.4-1.7,16.9-2.9,25.4-3.5c20.8-1.6,41.4-1,61.6,4.5c9,2.5,17.5,5.9,24.8,11.9
	c3.8,3,6.7,7,8.3,11.5C230.3,105.9,230.5,106.7,230.4,107.6z M88.1,134.3l-0.5-0.2c1.4-3.6,2.7-7.2,4.2-10.7c0.4-1,0.5-1.5-0.9-1.5
	c-2.7,0-5.5-0.2-8.2-0.4c-1.1-0.3-2.2,0.4-2.5,1.6c0,0,0,0,0,0.1c-1.2,3.3-2.5,6.5-3.7,9.7c-3,7.7-6,15.3-9,23
	c-0.5,1.2-0.5,1.8,1.1,1.8c2.7,0,5.5,0.1,8.2,0.3c1.3,0.1,1.7-0.4,2.1-1.5c1.7-4.6,3.6-9.2,5.4-13.7c0.2-0.5,0.3-1.3,1-1.5
	c0.3,0.4,0,0.7-0.1,1c-1.8,4.7-3.6,9.4-5.5,14.1c-0.6,1.5-0.3,1.8,1.3,1.9c2.6,0,5.2,0.2,7.8,0.4c1,0.2,2.1-0.4,2.3-1.4
	c0,0,0,0,0-0.1c4-10.5,8.1-20.8,12.2-31.2c1.3-3.4,1.3-3.4-2.4-3.6H100c-2.2,0-5.1-1.2-6.6,0c-1.5,1.2-1.9,4.1-2.8,6.3
	C89.9,130.5,89.1,132.4,88.1,134.3z M114,122.8L114,122.8c-1.7,0-3.3,0.1-5,0c-1-0.2-2.1,0.5-2.3,1.5c-1.6,4.5-3.3,8.8-4.9,13.3
	c-1.7,4-3.1,8.1-4.2,12.2c-0.7,3.3,0.9,5.1,4.2,4.8c2-0.2,4.1-0.3,6.2-0.3c0.7,0.1,1.4-0.3,1.6-1.1c3.6-9.8,7.3-19.5,11-29.3
	c0.4-1.1,0-1.2-1-1.2C117.7,122.8,115.9,122.8,114,122.8z M105.9,119L105.9,119c1.7-0.1,3.3-0.1,5,0c1.6,0.2,2.2-0.5,2.7-1.9
	c0.9-2.6,1.5-5.3,2.5-7.8c2.4-5.3,4.4-10.8,5.9-16.4c0.8-3.3-1-5.3-4.3-4.9c-2,0.2-4.1,0.3-6.2,0.2c-1-0.2-2,0.5-2.1,1.5
	c-1,2.9-2.1,5.8-3.1,8.6c-2.3,6.4-4.6,12.7-7,19.1c-0.5,1.2-0.3,1.6,1.1,1.5C102.2,118.9,104,119,105.9,119z M132.4,119.7
	c1.4,0,2.4,0,3.4,0c4.7,0.5,9.1-2.4,10.5-7c1.1-3,2.3-6.1,3.4-9.2c1.8-5.3,4.1-10.4,5.5-15.8c0.9-3.7-0.5-5.7-4.3-6.3
	c-2.3-0.4-4.7,0-7-0.3c-2.1-0.2-2.9,0.6-3.5,2.5c-3.7,10.3-7.5,20.6-11.2,30.9c-0.6,1.6-2.1,3.7-1.4,4.7
	C128.6,120.5,131,119.5,132.4,119.7L132.4,119.7z M136.7,123.5c-3.2-0.2-6.2,0.1-9.2-0.4c-1-0.1-2,0.2-2.8,0.8
	c-1.8,1.2-3.1,3-3.7,5.1c-1.9,5-3.7,10-5.6,15c-1.2,2.5-2,5.2-2.4,7.9c-0.1,1.2,0.5,2.8-1.7,2.2c-0.3-0.1-0.6,0.2-0.7,0.6
	c-0.6,1.3-1.2,2.7-1.7,4c-0.4,0.7-0.1,1.5,0.5,1.9c0.2,0.1,0.3,0.1,0.5,0.2c3.2,0.4,6.5,0.3,9.7-0.2c3.7-0.9,4.9-3.9,6.1-7
	c2.4-6.5,4.8-13,7.2-19.5C134.1,130.6,135.4,127.2,136.7,123.5L136.7,123.5z M168.6,136.6c0.9,0,1.7,0,2.5,0
	c0.7,0.2,1.3-0.3,1.5-0.9c0,0,0,0,0,0c0.6-1.9,1.3-3.8,1.8-5.7c0.6-1.9-0.2-3.9-1.8-4.9c-2.4-1.5-7.5-0.9-9,1.4
	c-2.8,4-4.7,8.4-2.3,13.4c1.1,2.2,0.9,2.3-1.6,2.3c-0.9,0-2.1-0.6-2.5,0.5c-1.2,3.1-2.9,6-2.6,9.5c0,0.9,0.3,1.8,1,2.4
	c2.8,2,7.8,1.5,9.7-1.3C168.7,148.3,171.4,143,168.6,136.6L168.6,136.6z M178.1,89.5c-3.5,0-7.4,2.2-8.2,5c-0.9,3-2.2,6-3.1,9
	c-1.2,3.7-3,7.1-3.6,11c-0.7,2.2,0.6,4.6,2.8,5.2c0.3,0.1,0.5,0.1,0.8,0.2c4.4,1.2,9-1.2,10.5-5.6c2.1-5.7,4.2-11.4,6.2-17.2
	C185.2,92.3,183.1,89.6,178.1,89.5L178.1,89.5z M162.3,89.5c-4.1,0-6.9,1.7-8.6,6.3c-1.8,5.1-3.7,10.1-5.5,15.2
	c-0.6,1.4-0.9,2.8-0.9,4.3c-0.2,2.1,1.2,4,3.2,4.4c4.6,1.6,9.5-0.9,11.1-5.4c0,0,0-0.1,0-0.1c2-5.6,4.1-11.2,6.1-16.9
	C169.5,92.5,167.5,89.6,162.3,89.5L162.3,89.5z M93.1,118.7c0.3,0,0.7,0,1,0c2,0.4,2.9-0.4,3.5-2.4c1.4-4.4,3-8.6,4.6-12.9
	c1-2.9,2.1-5.7,3-8.7c1.1-3.9-0.8-6.3-4.7-6.4c-3.9-0.2-7.5,2.1-8.9,5.8c-0.5,1.2-0.9,2.5-1.4,3.7c-0.3,0.8-0.7,1.5,0.7,1.6
	c1.4,0.1,0.5,0.8,0.1,1.2c-1.1,0.9-2,1.9-2.7,3.1c-1.6,3.3-2.9,6.7-3.8,10.3c-0.7,3.2,1,5.2,4.4,4.9
	C90.3,118.8,91.7,118.7,93.1,118.7L93.1,118.7z M144.7,124.2c-4,0-6.8,2-8.4,6.1c-1.1,2.8-2.2,5.5-3.3,8.4
	c-1.5,3.4-2.8,6.9-3.8,10.5c-0.8,2.2,0.4,4.6,2.6,5.3c0.5,0.2,0.9,0.2,1.4,0.2c4.7,0.5,7.8-1.1,9.6-5.4c2.5-6,4.9-12,7.1-18
	C151.6,126.9,149.5,124.2,144.7,124.2L144.7,124.2z M157.9,123.9c-0.9,0-1.9,0-2.8,0c-0.5-0.1-1.1,0.3-1.2,0.8
	c-0.8,2.7-2.1,5.2-2.7,8.1c-0.4,1.6,1,1.5,1.6,2c0.6,0.5,1.2,1.2,2.2,0.3c2.6-1.8,4.5-4.5,5.5-7.5
	C161.6,123.8,161.9,123.9,157.9,123.9L157.9,123.9z M119.2,106.2c1.4,0.3,2.8,0.3,4.2,0.2c2.2,0,4.8,0.8,6.4-0.4
	c1.6-1.2,1.6-4.1,2.4-6.2c0,0,0-0.1,0-0.2c0.5-1.1,0-1.4-1-1.4c-2.7,0-5.3,0.1-8,0c-0.9-0.1-1.8,0.5-2,1.4c0,0,0,0.1,0,0.1
	C120.7,101.9,120,104,119.2,106.2L119.2,106.2z"/>
<path class="st1" d="M92,84.3c-0.9,2.2-1.8,4.3-2.6,6.3c-2.5,6.3-4.9,12.7-7.3,19c-0.8,2.2-1.8,4.3-2.5,6.5c-0.4,1-0.8,1.5-2,1.4
	c-1.9-0.2-3.9-0.3-5.8-0.2c-1.2,0-1.3-0.4-0.9-1.4c1.8-4.5,3.5-9.1,5.2-13.7c0.2-0.6,1.2-1.6-0.1-1.9c-1-0.2-2.4-0.9-3,0.8
	c-1.3,3.5-2.7,7-4.1,10.5c-0.7,1.7-0.9,4-2.2,5.1c-1.2,1.1-3.5,0.1-5.4,0.1c-0.9,0-1.9-0.1-3.1-0.1c1.3-3.3,2.5-6.4,3.7-9.5
	c2.9-7.5,5.8-15,8.7-22.5c0.5-1.2,1-1.6,2.3-1.5c1.8,0.2,3.6,0.3,5.4,0.3c1.2,0,1.5,0.2,1,1.5c-1.3,3-2.5,6.1-3.6,9.2
	c-0.2,0.5-1.4,1.5-0.1,1.9c1,0.2,2.6,1.1,3.3-0.9c1.1-3,2.4-5.9,3.4-9c0.6-1.9,1.5-2.7,3.5-2.4C88.2,84.1,90,83.9,92,84.3z"/>
<path class="st2" d="M77.2,94.5c0.7-2.1,1.6-4.2,2.6-6.3l0.5,0.2l-2.5,6.3L77.2,94.5z"/>
<path class="st1" d="M227.9,167.9c1.3,0,2.7,0,4,0c1.7,0,3.1,1.2,3.3,2.9c0,0.4,0,0.8-0.5,0.9c-0.5,0.1-0.8,0-0.9-0.5
	c-0.2-1.9-1.6-1.8-3-1.8h-6.4c-1.1,0-2.2,0.1-2.4,1.5c-0.2,1-0.9,1-1.5,0.7c-0.6-0.3-0.5-1.2-0.1-1.6c0.8-1.3,2.1-2.1,3.6-2.2
	L227.9,167.9z"/>
<path class="st1" d="M217.9,164.9c0,0.7-0.3,1.2-1,1.3c-0.6,0.1-1-0.3-1.1-0.9c0-0.1,0-0.1,0-0.2c-0.1-0.5,0.3-1,0.9-1.1
	c0,0,0,0,0,0c0.5-0.1,1.1,0.2,1.2,0.8C217.9,164.8,217.9,164.9,217.9,164.9z"/>
<path class="st0" d="M231.2,125.4c-0.2-0.9-0.8-1.7-1.7-1.9c-3.4-1.3-6.3-3.6-8.3-6.6c-0.9-1.3-1.9-2.6-2.9-3.8
	c-0.8-1-1.5-1.1-2.3,0.1c-1.7,2.8-3.7,5.4-6,7.7c-0.9,0.9-1.5,1.7-0.1,2.6c0.3,0.2,0.8,0.7,0.4,1.2c-0.3,0.5-0.9,0.2-1.2,0
	c-1.3-0.8-2.2-0.4-3.3,0.6c-2.1,2.3-5.1,3.7-8.3,3.9c-1-0.1-1.9,0.7-2,1.8c0,0.1,0,0.3,0,0.4c0.1,4.7,1.6,9.3,4.4,13.1
	c4.1,5.4,9.6,8.1,16.5,7.1c8.7-1.2,15.5-9.7,15.5-19.5C232.1,129.8,231.8,127.5,231.2,125.4z M217,123.7c2.5-2.7,4.6-2.8,6.7,0
	c0.2,0.3,0.4,0.5,0.4,0.7c0.1,0.6-0.1,0.8-0.5,0.7c-0.3,0-0.5-0.2-0.7-0.3c-1.5-1.4-3.8-1.4-5.2,0c-0.3,0.2-0.8,0.7-1.2,0
	C216.2,124.2,216.8,124,217,123.7L217,123.7z M210.8,136.3c0.4-0.3,0.6,0,0.8,0.3c2.1,1.9,2.8,1.9,5.1,0c0.3-0.2,0.5-0.5,0.8-0.2
	c0.3,0.3,0,0.6-0.1,0.9c-0.7,1.2-2,1.9-3.4,1.8c-1.3,0-2.6-0.7-3.3-1.8C210.6,136.9,210.5,136.6,210.8,136.3z M222.3,141.8
	c-4.7,4.3-11.8,4.3-16.5,0c-1.1-0.9-1.9-2.1-3.7-1.8c0.8-1.5,2.4-2.5,4.1-2.4c-1.4,1.6-0.6,2.5,0.5,3.5c4.2,3.6,10.4,3.6,14.6,0.1
	c1.6-1.4,1.7-1.5,0.8-3.7c1.7,0.2,3.3,1.1,4.3,2.5C224.4,139.6,223.4,140.7,222.3,141.8z"/>
<path class="st0" d="M233.9,122.1c-2.9,0.6-6-0.4-8.1-2.5c-2.4-2.4-4.5-5.1-6.4-7.9c-0.5-0.8-1.4-1.8-0.7-2.7
	c0.6-0.9,1.9-0.4,2.8-0.3c2,0.4,3.9,1.5,5.2,3.1C229.5,114.9,231.9,118.4,233.9,122.1z"/>
<path class="st0" d="M194.5,125.7c3.4-2.8,5.1-6.6,6.7-10.3c1.9-4.9,7.1-7.7,12.2-6.7c0.4,0.1,0.8,0.1,1,0.8
	c-5.1,0.2-7.8,3.4-9.7,7.6c-1.5,3.7-4.3,6.7-7.9,8.3C196.2,125.9,195.3,126,194.5,125.7z"/>
<path class="st0" d="M204.2,151.9c0.1,0,0.1,0,0.2,0c2.5,2,5.1,4,7.6,6c0.5,0.4-0.1,0.7-0.4,0.9c-1.5,1.3-3.2,2.6-4.7,4
	c-0.6,0.5-0.9,0.3-1.2-0.3c-1.5-2.5-3-4.9-4.4-7.3c-0.1-0.2-0.3-0.3-0.3-0.5C201.9,153.5,203,152.6,204.2,151.9z"/>
<path class="st0" d="M223.2,151.8c0.9,0.9,1.9,1.7,2.7,2.6c0.6,0.6-0.1,1.1-0.4,1.5c-1.2,2.1-2.6,4.2-3.8,6.3
	c-0.7,1.2-1.1,1.1-2,0.3c-1.3-1.2-2.6-2.3-4-3.3c-0.9-0.7-0.8-1.1,0-1.7c2.2-1.6,4.3-3.3,6.4-5L223.2,151.8z"/>
<path class="st0" d="M196.8,127.5c4.2-2.4,7.6-5.9,9.7-10.3c1.3-2.9,3.8-5.1,6.9-5.9c0.7-0.2,1.5-0.3,1.8,0.3s-0.4,1-0.9,1.4
	c-1.5,1.2-2.8,2.6-3.8,4.3c-2,3.4-4.7,6.3-8,8.5C200.9,126.9,198.9,127.5,196.8,127.5z"/>
<path class="st0" d="M192.9,124c2.3-5,4.1-9.9,7.4-14c3.6-4.4,7.7-5.9,12-4.3c0.3,0.1,0.6,0.2,0.7,0.7c-1.1,0.1-2.1,0.1-3.1,0.3
	c-4.1,0.4-7.7,3.1-9.2,7c-1.1,2.9-2.8,5.6-4.8,8C195,122.7,194,123.5,192.9,124z"/>
<path class="st0" d="M208.3,152.6c3.6,0.8,7.3,0.9,11,0.3c-1.7,1.3-3.4,2.7-5.1,4c-0.6,0.4-0.9,0.3-1.3-0.1
	c-1.5-1.2-3.1-2.5-4.7-3.7L208.3,152.6z"/>
<path class="st0" d="M230.9,113.4c-1-0.3-1.3-1.4-2-2.1c-2.1-2.3-4.7-4-7.7-4.8c4.4-0.9,8.7,2,9.5,6.4
	C230.9,113.1,230.9,113.3,230.9,113.4L230.9,113.4z"/>
<path class="st0" d="M230.9,113.5h0.3v0.2L230.9,113.5L230.9,113.5z"/>
<path class="st0" d="M88.1,134.3c0.9-1.9,1.8-3.8,2.4-5.8c0.9-2.1,1.2-5,2.8-6.3c1.6-1.3,4.3,0,6.6,0h0.8c3.8,0.1,3.8,0.1,2.4,3.6
	c-4.1,10.4-8.2,20.8-12.2,31.2c-0.2,1-1.2,1.7-2.3,1.5c0,0,0,0-0.1,0c-2.6-0.2-5.2-0.4-7.8-0.4c-1.5,0-1.8-0.4-1.3-1.9
	c1.9-4.7,3.7-9.4,5.5-14.1c0.1-0.3,0.3-0.6,0.1-1c-0.7,0.2-0.8,1-1,1.5c-1.8,4.6-3.6,9.1-5.4,13.7c-0.4,1.1-0.9,1.6-2.1,1.5
	c-2.7-0.2-5.5-0.3-8.2-0.3c-1.5,0-1.5-0.7-1.1-1.8c3-7.7,6-15.3,9-23c1.3-3.2,2.6-6.4,3.7-9.7c0.2-1.1,1.3-1.9,2.4-1.6
	c0,0,0,0,0.1,0c2.7,0.2,5.5,0.4,8.2,0.4c1.4,0,1.3,0.5,0.9,1.5c-1.5,3.6-2.8,7.1-4.2,10.7L88.1,134.3z M87.3,140
	c0,0.7-0.2,1.3-0.5,1.9c-1.7,4.3-3.3,8.7-5.1,13c-0.7,1.6-0.1,2.1,1.4,2.1c1.7,0,3.5,0.1,5.2,0.2c0.7,0.2,1.5-0.3,1.6-1
	c4-10.4,8.1-20.8,12.2-31.1c0.3-0.9,0.3-1.3-0.8-1.3c-1.9,0-3.7-0.1-5.6-0.3c-1.3-0.1-1.9,0.3-2.3,1.5c-1.2,3.4-2.6,6.7-3.9,10
	c-0.6,1.7-2.1,1.5-3.1,1.1c-1.1-0.4-0.3-1.5,0-2.2c1.1-3,2.3-6.1,3.6-9.1c0.7-1.6,0.1-1.8-1.2-1.7c-1.6,0-3.2,0-4.8-0.2
	c-1.1-0.3-2.2,0.3-2.6,1.4c0,0.1,0,0.1-0.1,0.2c-1,2.8-2.1,5.6-3.2,8.4c-2.8,7.3-5.7,14.6-8.6,21.9c-0.6,1.4-0.3,1.7,1.1,1.7
	c1.7,0,3.5,0.1,5.2,0.3c1,0.2,2-0.4,2.3-1.4c0,0,0-0.1,0-0.1c1.5-4.2,3.2-8.3,4.8-12.4C84,139.6,84,139.6,87.3,140z"/>
<path class="st0" d="M114,122.8c1.9,0,3.7,0,5.6,0c0.9,0,1.4,0.1,1,1.2c-3.7,9.7-7.4,19.5-11,29.3c-0.2,0.7-0.9,1.2-1.6,1.1
	c-2.1,0-4.1,0.1-6.2,0.3c-3.3,0.3-4.9-1.5-4.2-4.8c1.1-4.2,2.6-8.2,4.2-12.2c1.6-4.5,3.3-8.8,4.9-13.3c0.2-1,1.2-1.7,2.3-1.5
	C110.7,123,112.4,122.8,114,122.8L114,122.8z M112.6,124.8c-0.5,0-0.8,0-1.1,0c-3.1-0.3-3.1-0.3-4.2,2.5c-0.3,0.9-0.7,1.7-1,2.6
	c-2.4,6.6-5.1,13-7.2,19.7c-0.3,1-0.7,2.2,0.3,3c1,0.7,2.3,0.8,3.4,0.1c0.7-0.4,1.6-0.4,2.3,0c1.6,0.8,2.8,0,3.4-1.7l6.6-17.6
	c0.9-2.5,1.9-5,2.8-7.5c0.1-0.4,0.7-0.9,0-1.4c-1.7-0.6-3.5,0.1-4.4,1.6c-2.7,7.1-5.3,14.2-8,21.3c-0.3,0.9-0.6,2.5-1.6,2.2
	c-1-0.4-0.1-1.7,0.2-2.5C107,139.6,109.8,132.3,112.6,124.8L112.6,124.8z"/>
<path class="st0" d="M105.9,119c-1.9,0-3.7,0-5.6,0c-1.4,0-1.5-0.3-1.1-1.5c2.4-6.3,4.7-12.7,7-19.1c1-2.9,2.1-5.7,3.1-8.6
	c0.2-1,1.1-1.7,2.1-1.5c2.1,0.1,4.1,0,6.2-0.2c3.3-0.4,5.2,1.6,4.3,4.9c-1.5,5.6-3.5,11.1-5.8,16.4c-1,2.5-1.7,5.2-2.5,7.8
	c-0.5,1.4-1.1,2.1-2.7,1.9C109.2,119,107.6,119,105.9,119L105.9,119z M100.9,117.4c0.5,0,1.1,0,1.6,0c2.2,0.4,3.2-0.5,3.9-2.6
	c2.2-6.6,4.6-13,7-19.5c0.2-0.7,0.6-1.3,0.9-2c0.2-0.4,0.7-0.5,1-0.3c0.4,0.2,0.2,0.6,0.3,0.9c0.4,1.1-0.6,1.6-0.9,2.4
	c-2.4,6.6-4.7,13.2-7.2,19.8c-0.5,1.3,0,1.3,1.1,1.5c2.3,0.3,3.6-0.4,4-2.8c0.3-1.1,0.7-2.3,1.1-3.3c2.1-6,4.7-12,6.4-18.1
	c0.3-1.1,0.7-2.3-0.4-3.1c-1.1-0.8-2.5-0.8-3.6-0.1c-0.5,0.3-1.2,0.3-1.7,0c-2.3-0.8-3.6,0-4.5,2.2c-1.4,3.8-2.8,7.6-4.2,11.4
	C104.3,108.2,102.7,112.7,100.9,117.4L100.9,117.4z"/>
<path class="st0" d="M132.4,119.7c-1.3-0.2-3.8,0.9-4.7-0.4c-0.7-1,0.8-3.1,1.4-4.7c3.7-10.3,7.5-20.6,11.2-30.9
	c0.6-1.8,1.5-2.7,3.5-2.5c2.3,0.3,4.6-0.1,7,0.3c3.8,0.6,5.2,2.6,4.3,6.3c-1.4,5.4-3.6,10.6-5.5,15.8c-1.1,3-2.2,6.1-3.4,9.2
	c-1.4,4.6-5.8,7.5-10.5,7C134.8,119.7,133.8,119.7,132.4,119.7z M133.6,118.2h1.4c5.9,0,7.9-1.4,10-6.9c1.2-3.1,2.4-6.2,3.4-9.4
	c1.6-4.9,3.9-9.6,5.1-14.7c0.6-2.7-0.3-3.9-3-4.2c-2-0.2-4,0-6-0.2s-2.5,0.6-3.1,2.2c-3.5,9.8-7,19.5-10.5,29.2
	C129.5,118.2,129.5,118.2,133.6,118.2L133.6,118.2z"/>
<path class="st0" d="M136.7,123.5c-1.3,3.7-2.5,7.2-3.8,10.6c-2.4,6.5-4.8,13-7.2,19.5c-1.2,3.1-2.4,6.1-6.1,7
	c-3.2,0.6-6.5,0.7-9.7,0.2c-0.7-0.1-1.3-0.8-1.2-1.5c0-0.2,0.1-0.3,0.2-0.5c0.5-1.4,1.2-2.7,1.7-4c0.1-0.4,0.4-0.6,0.7-0.6
	c2.3,0.5,1.7-1,1.7-2.2c0.4-2.8,1.2-5.5,2.4-8c1.8-5,3.7-10,5.6-15c0.6-2.1,1.9-3.9,3.7-5.1c0.8-0.6,1.8-0.9,2.8-0.8
	C130.4,123.6,133.4,123.3,136.7,123.5z M110.6,159.5c2.3,0,4.5,0.1,6.7,0c2.7,0,5.1-1.7,6-4.3c1.8-4.4,3.3-8.8,5-13.2
	c1.9-5.1,3.8-10.2,5.6-15.3c0.2-0.5,0.8-1.4,0-1.5c-1.2-0.1-2.7-0.8-3.7,0.5c-0.3,0.4-0.4,0.3-0.7,0c-2-1.5-3.9-1.2-5.5,1
	c-1.1,1.8-2,3.7-2.6,5.7c-2,5.5-4.1,11-6,16.6c-1.5,4.5-1,5.2,3.6,5.4c-0.8,1.9-2.5,1.5-3.9,1.5
	C111.6,155.9,111.6,155.8,110.6,159.5L110.6,159.5z"/>
<path class="st0" d="M168.6,136.6c2.7,6.4,0,11.7-3.3,16.8c-1.9,2.8-6.9,3.3-9.7,1.3c-0.7-0.6-1.1-1.5-1-2.4
	c-0.3-3.5,1.4-6.4,2.6-9.5c0.4-1.1,1.7-0.5,2.5-0.5c2.5,0,2.7-0.1,1.6-2.3c-2.4-5-0.6-9.3,2.3-13.4c1.6-2.3,6.7-2.9,9-1.4
	c1.7,1,2.5,3,2,4.9c-0.4,1.9-1.2,3.8-1.8,5.7c-0.1,0.7-0.8,1.1-1.5,0.9c0,0,0,0,0,0C170.3,136.5,169.5,136.6,168.6,136.6z
	 M162.5,143.8h-3.3c-0.5,0-0.9,0-1.1,0.6c-0.9,2.1-1.6,4.4-2,6.6c-0.3,1.4,0.6,2.7,2,3c0.1,0,0.2,0,0.4,0c3,0.3,5.8-1.2,7.2-3.9
	c0.7-1.5,1.2-3.3,1.8-4.8c1.2-2.5,1.1-5.4-0.3-7.8c-1.2-1.8-1.3-4.1-0.3-6c0.4-0.9,0.5-2.7,1.6-2.3c1.1,0.4-0.1,1.8-0.4,2.7
	c-1,3-1,3,2.1,3c0.8,0,1.2-0.2,1.5-1c0.3-1.1,0.8-2.1,1.1-3.2c1-3.8-0.8-5.4-4.7-4.8c-4.5,0.7-7.5,8.8-5.5,12.2
	c2.5,4.3,0.6,8-0.8,11.9c-0.2,0.4-0.5,1-1,0.8c-0.5-0.2-0.3-0.9-0.1-1.3C161,147.7,161.7,146,162.5,143.8z"/>
<path class="st0" d="M178.1,89.5c5.1,0,7.1,2.8,5.5,7.5c-2,5.8-4.1,11.5-6.2,17.2c-1.5,4.4-6.1,6.8-10.5,5.6c-2.3-0.2-4-2.2-3.8-4.6
	c0-0.3,0.1-0.6,0.2-0.8c0.6-3.8,2.4-7.3,3.6-11c1-3,2.2-6,3.1-9C170.7,91.8,174.6,89.5,178.1,89.5z M178,108.1c-1,0.1-1.9,0.1-2.9,0
	c-1.5-0.3-2.3,0.3-2.6,1.8c-0.4,1.3-0.9,2.6-1.4,3.9c-0.3,0.7-0.5,1.7-1.4,1.3c-0.8-0.4-0.3-1.2,0-1.9c0.5-1.5,1-2.9,1.5-4.3
	c1.4-4.1,1.4-4.1,5.7-3.9c0.3,0,0.7,0,1,0c0.6,0.2,1.3-0.2,1.5-0.8c0,0,0-0.1,0-0.1c1-2.9,2.1-5.8,3-8.7c0.7-1.5-0.1-3.3-1.6-3.9
	c-0.2-0.1-0.5-0.2-0.8-0.2c-3.8-1.2-7.3,0.7-8.9,4.9c-1.6,4.3-3,8.4-4.5,12.5c-0.8,1.9-1.4,3.9-1.8,6c-0.4,1.4,0.4,2.8,1.7,3.2
	c3.3,1.3,7,0.1,8.8-3C176.3,112.9,177,110.6,178,108.1L178,108.1z"/>
<path class="st0" d="M162.3,89.5c5.1,0.1,7.1,3,5.4,7.8c-2,5.6-4,11.2-6.1,16.9c-1.5,4.6-6.4,7.1-11,5.6c0,0-0.1,0-0.1,0
	c-2.1-0.4-3.5-2.3-3.2-4.4c0.1-1.5,0.4-2.9,0.9-4.3c1.8-5.1,3.6-10.1,5.5-15.2C155.4,91.2,158.2,89.6,162.3,89.5z M160.4,105
	c0.7-0.6,2.3,1,3-0.5c1.4-3.1,2.5-6.3,3.3-9.6c0.4-2.1-0.4-3-2.5-3.6c-3.6-1.2-7.5,0.9-8.7,4.5c0,0,0,0.1,0,0.1
	c-1.7,4.3-3.2,8.7-4.7,13.1c-0.8,1.9-1.4,3.9-1.7,5.9c-0.3,1.1,0.2,2.3,1.3,2.9c3.1,1.3,6.8,0.4,8.9-2.3c1-1.8,1.8-3.7,2.4-5.6
	c0.8-2.1,0.7-1.9-1.5-2.2c-1.4-0.4-2.8,0.3-3.3,1.7c-0.1,0.2-0.1,0.4-0.1,0.6c-0.4,1.5-0.9,2.9-1.5,4.3c-0.2,0.6-0.5,1.2-1.3,0.9
	s-0.3-0.9-0.1-1.4c0.7-1.9,1.4-3.9,2.1-5.8C156.9,104.9,156.9,104.9,160.4,105z"/>
<path class="st0" d="M93.1,118.7c-1.4,0-2.7,0.1-4.1,0.3c-3.3,0.3-5.1-1.6-4.4-4.9c0.8-3.6,2-7,3.6-10.3c0.7-1.2,1.6-2.3,2.7-3.1
	c0.4-0.4,1.2-1-0.1-1.2c-1.2-0.1-1-0.8-0.7-1.6c0.5-1.2,0.9-2.5,1.4-3.7c1.4-3.7,5-6,8.9-5.8c4,0.2,5.8,2.5,4.7,6.4
	c-0.8,3-1.9,5.8-3,8.7c-1.5,4.3-3.2,8.6-4.6,12.9c-0.6,1.9-1.5,2.7-3.5,2.4C93.8,118.7,93.5,118.7,93.1,118.7z M94,117.2
	c1.2,0.3,1.8-0.5,2.4-2.1c2.1-6,4.3-12,6.4-18c0.4-1.1,0.8-2.3,1-3.4c0.5-1.4-0.2-3-1.7-3.5c-0.3-0.1-0.6-0.2-0.9-0.2
	c-4.4-0.6-8.4,2.5-9,6.9c0,0,0,0.1,0,0.1c-0.1,0.2-0.1,0.4,0,0.6c0.5,0.6,4.2,0,4.5-0.8c0.4-1,0.8-2.1,1.2-3.1
	c0.1-0.4,0.6-0.7,1-0.6c0,0,0.1,0,0.1,0c0.4,0.2,0.3,0.7,0.1,1.1c-0.4,0.9-0.7,1.8-1,2.8c-0.3,1.5-1.3,2.7-2.8,3.2
	c-2.3,0.6-4.3,2-5.6,3.9c-1.7,3.2-2.9,6.7-3.6,10.3c-0.5,2.2,0.7,3.5,2.9,2.9C90.7,117,92.4,117,94,117.2z"/>
<path class="st0" d="M144.7,124.2c4.7,0,6.8,2.7,5.2,7.1c-2.2,6-4.6,12-7.1,18c-1.8,4.3-4.9,5.9-9.6,5.4c-2.3,0-4.2-1.8-4.2-4.1
	c0-0.5,0.1-1,0.2-1.4c1-3.6,2.3-7.1,3.8-10.5c1-2.8,2.2-5.6,3.3-8.4C138,126.2,140.7,124.2,144.7,124.2z M144.7,125.8
	c-2.7-0.3-5.2,1.3-6.2,3.8c-2.8,6.6-5.8,13.1-7.6,20c-0.5,1.9,0.1,2.9,1.9,3.4c3.4,1,7.1-0.7,8.4-4c2.5-6,5-12,7.1-18.1
	C149.6,127,148.3,125.9,144.7,125.8L144.7,125.8z"/>
<path class="st0" d="M158,123.9c3.9,0,3.7,0,2.6,3.8c-1,3-2.9,5.7-5.5,7.5c-1,0.8-1.6,0.1-2.2-0.3c-0.6-0.5-2-0.4-1.6-2
	c0.6-2.8,1.9-5.3,2.7-8.1c0.1-0.5,0.6-0.9,1.2-0.8C156.1,123.9,157,123.9,158,123.9z M159.5,125.6c-4-0.3-4-0.3-5.3,3.3
	c-0.1,0.3-0.2,0.6-0.3,0.9c-0.1,0.2-0.1,0.5,0,0.7c2,0.4,0.5,1.1,0.2,1.6s-1,0.7-0.3,1.3c0.7,0.6,0.9-0.1,1.4-0.4
	C157.6,131.3,158.6,128.6,159.5,125.6z"/>
<path class="st0" d="M119.2,106.2c0.7-2.2,1.5-4.3,2.1-6.5c0.1-0.9,0.9-1.6,1.9-1.5c0,0,0.1,0,0.1,0c2.7,0.1,5.3,0,8,0
	c1,0,1.5,0.3,1,1.4c0,0,0,0.1,0,0.2c-0.8,2.1-0.7,4.9-2.4,6.2c-1.6,1.3-4.2,0.4-6.4,0.4C122.1,106.5,120.6,106.5,119.2,106.2z
	 M121.5,104.7c1.9,0,3.6-0.1,5.3,0c1.2,0.3,2.4-0.4,2.7-1.6c0-0.1,0-0.2,0.1-0.3c0.9-3,1-3-2.1-3C122.8,99.9,122.8,99.9,121.5,104.7
	L121.5,104.7z"/>
<path class="st1" d="M206.2,137.5c-1.4,1.6-0.6,2.5,0.5,3.5c4.2,3.6,10.4,3.6,14.6,0.1c1.6-1.4,1.7-1.5,0.8-3.7
	c1.7,0.2,3.3,1.1,4.3,2.5c-2.1-0.4-3,0.8-4.1,1.8c-4.7,4.3-11.8,4.3-16.5,0c-1.1-0.9-1.9-2.1-3.7-1.8
	C202.8,138.4,204.5,137.4,206.2,137.5z"/>
<path class="st1" d="M224.2,124.3c0.1,0.6-0.1,0.8-0.5,0.7c-0.3,0-0.5-0.2-0.7-0.3c-1.5-1.4-3.8-1.4-5.2,0c-0.3,0.2-0.8,0.7-1.2,0
	c-0.4-0.7,0.2-0.7,0.4-1c2.5-2.7,4.6-2.8,6.7,0C223.9,123.9,224.1,124.2,224.2,124.3z"/>
<path class="st1" d="M214.1,139c-1.3,0-2.6-0.7-3.3-1.8c-0.1-0.3-0.3-0.6,0-0.9s0.6,0,0.8,0.3c2.1,1.9,2.8,1.9,5.1,0
	c0.3-0.2,0.5-0.5,0.8-0.2c0.3,0.3,0,0.6-0.1,0.9C216.7,138.4,215.4,139,214.1,139z"/>
<path class="st1" d="M87.3,140c-3.3-0.4-3.3-0.4-4.5,2.7c-1.6,4.1-3.3,8.2-4.8,12.4c-0.2,1-1.1,1.7-2.2,1.5c0,0-0.1,0-0.1,0
	c-1.7-0.2-3.5-0.3-5.2-0.3c-1.4,0-1.7-0.3-1.1-1.7c2.9-7.3,5.7-14.6,8.6-21.9c1.1-2.8,2.3-5.5,3.2-8.4c0.2-1.1,1.3-1.9,2.4-1.7
	c0.1,0,0.1,0,0.2,0.1c1.6,0.2,3.2,0.3,4.8,0.2c1.4,0,1.9,0.2,1.2,1.7c-1.3,3-2.4,6-3.6,9.1c-0.3,0.7-1.2,1.8,0,2.2
	c1.2,0.4,2.5,0.6,3.1-1.1c1.3-3.4,2.7-6.7,3.9-10c0.4-1.2,1-1.7,2.3-1.5c1.9,0.2,3.7,0.3,5.6,0.3c1.2,0,1.2,0.5,0.8,1.3
	c-4.1,10.4-8.1,20.8-12.2,31.1c-0.2,0.7-0.9,1.2-1.6,1c-1.7-0.1-3.5-0.1-5.2-0.2c-1.5,0-2-0.5-1.4-2.1c1.8-4.3,3.4-8.7,5.1-13
	C87.1,141.3,87.3,140.7,87.3,140z"/>
<path class="st1" d="M112.6,124.8c-2.8,7.5-5.6,14.8-8.3,22.1c-0.3,0.8-1.4,2.1-0.2,2.5c1.2,0.4,1.3-1.3,1.6-2.2
	c2.7-7.1,5.3-14.2,8-21.3c0.9-1.5,2.7-2.2,4.4-1.6c0.7,0.4,0.2,1,0,1.4c-0.9,2.5-1.8,5-2.8,7.5l-6.6,17.6c-0.6,1.7-1.8,2.4-3.4,1.7
	c-0.7-0.4-1.6-0.4-2.3,0c-1,0.7-2.4,0.6-3.4-0.1c-1-0.8-0.6-1.9-0.3-3c2-6.7,4.8-13.1,7.2-19.7c0.3-0.9,0.7-1.7,1-2.6
	c1-2.8,1-2.8,4.2-2.5C111.8,124.9,112.2,124.8,112.6,124.8z"/>
<path class="st1" d="M101,117.4c1.7-4.7,3.4-9.3,5-13.8c1.4-3.8,2.8-7.6,4.2-11.4c0.8-2.2,2.2-3.1,4.5-2.2c0.5,0.3,1.2,0.3,1.7,0
	c1.1-0.7,2.5-0.6,3.6,0.1c1.1,0.9,0.7,2,0.4,3.1c-1.7,6.2-4.3,12-6.4,18.1c-0.5,1.1-0.8,2.2-1.1,3.3c-0.4,2.4-1.7,3.1-4,2.8
	c-1-0.1-1.6,0-1.1-1.5c2.5-6.6,4.8-13.2,7.2-19.8c0.3-0.8,1.3-1.3,0.9-2.4c-0.1-0.3,0.1-0.7-0.3-0.9c-0.4-0.2-0.8,0-1,0.3
	c-0.4,0.6-0.7,1.3-0.9,2c-2.4,6.5-4.8,12.9-7,19.5c-0.7,2.2-1.8,3-3.9,2.6C102.1,117.3,101.6,117.3,101,117.4z"/>
<path class="st1" d="M133.6,118.2c-4.1,0-4.1,0-2.7-3.9c3.5-9.7,7.1-19.5,10.5-29.2c0.6-1.6,1.2-2.4,3.1-2.2c1.8,0.2,4,0,6,0.2
	c2.7,0.3,3.6,1.5,3,4.2c-1.2,5.1-3.4,9.8-5.1,14.7c-1,3.1-2.2,6.3-3.4,9.4c-2.1,5.5-4.2,6.9-10,6.9L133.6,118.2z M136.1,113.7
	c1.8,0.1,2.3-0.9,2.8-2c0.8-2,1.5-4.1,2.3-6.1c2-5.4,4-10.8,6-16.3c0.3-0.7,0.7-1.7-0.4-2.1s-1.2,0.8-1.4,1.5
	C142.3,97,139.3,105.3,136.1,113.7z"/>
<path class="st1" d="M110.6,159.4c1.1-3.6,1.1-3.5,4.5-3.5c1.5,0,3.1,0.4,3.9-1.5c-4.7-0.2-5.2-0.8-3.6-5.4c1.9-5.6,4.1-11.1,6-16.6
	c0.6-2,1.5-3.9,2.6-5.7c1.6-2.2,3.4-2.5,5.5-1c0.3,0.2,0.4,0.3,0.7,0c1-1.2,2.5-0.6,3.7-0.5c0.8,0,0.1,1,0,1.5
	c-1.8,5.1-3.7,10.2-5.6,15.3c-1.6,4.4-3.2,8.8-5,13.2c-0.9,2.6-3.3,4.3-6,4.3C115.1,159.5,112.9,159.4,110.6,159.4z M120.1,149.4
	c0.7-0.1,0.9-0.7,1.2-1.2c0.7-1.7,1.3-3.5,2-5.2c1.6-4.3,3.3-8.7,4.9-13c0.2-0.4,0.7-1,0-1.4c-0.7-0.3-1,0.3-1.3,0.9
	c-0.3,0.6-0.4,0.8-0.6,1.3c-1.3,3.5-2.7,7.1-4,10.6c-0.9,2.3-1.7,4.6-2.5,6.9C119.6,148.7,119.2,149.2,120.1,149.4L120.1,149.4z"/>
<path class="st1" d="M162.5,143.8c-0.8,2.2-1.5,4-2.1,5.8c-0.2,0.5-0.5,1.1,0.1,1.3c0.7,0.3,0.8-0.3,1-0.8c1.5-3.9,3.3-7.6,0.8-11.9
	c-2-3.4,1-11.5,5.5-12.2c3.9-0.6,5.7,1,4.7,4.8c-0.3,1.1-0.8,2.1-1.1,3.2c-0.2,0.8-0.7,1-1.5,1c-3.1,0-3,0.1-2.1-3
	c0.3-0.9,1.5-2.3,0.4-2.7c-1.1-0.4-1.2,1.4-1.6,2.3c-1,1.9-0.9,4.2,0.3,6c1.4,2.4,1.5,5.3,0.3,7.8c-0.7,1.6-1.1,3.3-1.8,4.8
	c-1.3,2.7-4.2,4.2-7.2,3.9c-1.4-0.1-2.5-1.3-2.4-2.7c0-0.1,0-0.2,0-0.4c0.4-2.3,1.1-4.5,2-6.6c0.2-0.6,0.6-0.6,1.1-0.6L162.5,143.8z
	"/>
<path class="st1" d="M178,108.2c-1,2.5-1.6,4.8-2.7,6.9c-1.8,3.1-5.6,4.3-8.8,3c-1.3-0.5-2.1-1.9-1.7-3.2c0.4-2.1,1-4.1,1.8-6
	c1.5-4.2,3-8.4,4.5-12.5s5.1-6.1,8.9-4.9c1.6,0.2,2.8,1.7,2.6,3.4c0,0.3-0.1,0.5-0.2,0.8c-0.9,2.9-2,5.8-3,8.7
	c-0.1,0.6-0.7,1.1-1.4,0.9c0,0-0.1,0-0.1,0c-0.3,0-0.7,0-1,0c-4.3-0.1-4.3-0.1-5.7,3.9c-0.5,1.5-1,2.9-1.5,4.3
	c-0.2,0.7-0.7,1.6,0,1.9c0.7,0.3,1.1-0.6,1.4-1.3c0.5-1.3,1-2.6,1.4-3.9c0.3-1.5,1.1-2.1,2.6-1.8C176,108.2,177,108.2,178,108.2z
	 M174.7,101.8c0.6,0.2,0.8-0.3,1-0.9c0.6-1.8,1.3-3.6,1.9-5.4c0.1-0.4,0.4-0.9-0.2-1.2c-0.4-0.2-0.9,0.1-1.1,0.5c0,0,0,0.1,0,0.1
	c-0.8,2-1.5,4.1-2.3,6.1C173.9,101.6,174.1,101.8,174.7,101.8z"/>
<path class="st1" d="M160.4,105c-3.5-0.1-3.5-0.1-4.6,3c-0.7,1.9-1.4,3.9-2.1,5.8c-0.2,0.5-0.6,1.1,0.1,1.4s1-0.4,1.3-0.9
	c0.6-1.4,1.1-2.9,1.5-4.3c0.1-1.4,1.4-2.5,2.8-2.4c0.2,0,0.4,0,0.5,0.1c2.2,0.3,2.2,0.1,1.5,2.2c-0.6,1.9-1.4,3.8-2.4,5.6
	c-2.1,2.7-5.7,3.6-8.9,2.3c-1-0.6-1.5-1.7-1.3-2.9c0.3-2,0.9-4,1.7-5.9c1.5-4.4,3.1-8.8,4.7-13.1c1.1-3.7,4.9-5.8,8.6-4.7
	c0,0,0.1,0,0.1,0c2.1,0.5,2.9,1.5,2.5,3.6c-0.8,3.3-1.9,6.5-3.3,9.6C162.8,106,161.2,104.5,160.4,105z M162.1,95
	c0.1-0.3,0-0.6-0.3-0.7c-0.1,0-0.1,0-0.2,0c-0.5-0.1-0.9,0.2-1,0.7c-0.7,2-1.5,4-2.2,6c-0.1,0.3-0.2,0.7,0.2,0.8s1,0.2,1.2-0.4
	C160.5,99.3,161.3,97.1,162.1,95z"/>
<path class="st1" d="M94,117.2c-1.6-0.3-3.3-0.2-4.9,0.1c-2.1,0.6-3.3-0.7-2.9-2.9c0.7-3.6,2-7,3.7-10.3c1.3-2,3.3-3.4,5.6-3.9
	c1.5-0.4,2.6-1.7,2.8-3.2c0.3-1,0.6-1.9,1-2.8c0.1-0.4,0.3-0.9-0.1-1.1c-0.4-0.2-0.9,0-1.1,0.4c0,0,0,0.1,0,0.1
	c-0.5,1-0.8,2.1-1.2,3.1c-0.3,0.8-4.1,1.5-4.5,0.8c-0.1-0.2-0.1-0.4,0-0.6c0.5-4.4,4.5-7.5,8.9-7c0,0,0.1,0,0.1,0
	c1.5,0,2.7,1.2,2.8,2.7c0,0.3-0.1,0.6-0.2,0.9c-0.2,1.2-0.6,2.3-1,3.4c-2.1,6-4.4,12-6.4,18C95.8,116.7,95.2,117.5,94,117.2z
	 M96.1,103.1c-1.1,0.6-1.7,1-2,1.7c-1.1,2.7-2.1,5.5-3.1,8.2c-0.1,0.4-0.5,1.1,0.3,1.3c0.6,0.1,0.9-0.4,1.1-0.9L96.1,103.1z"/>
<path class="st1" d="M144.7,125.8c3.6,0,4.9,1.2,3.6,5.1c-2.1,6.1-4.6,12.1-7.1,18.1c-1.4,3.3-5,5-8.4,4c-1.8-0.4-2.4-1.5-1.9-3.4
	c1.8-7,4.8-13.5,7.6-20C139.5,127.1,142,125.5,144.7,125.8z M143.7,129.2c-1.1,0.1-1.2,1.1-1.5,1.8c-0.6,1.7-1.2,3.4-1.8,5.1
	c-1.6,4.4-3.2,8.7-4.8,13.1c-0.2,0.5-0.6,1.1,0,1.4c0.6,0.3,0.8-0.4,1.1-0.9c0.1-0.2,0.4-0.4,0.5-0.6c1.7-6.2,4.3-12.1,6.4-18.2
	C143.8,130.4,144.1,129.8,143.7,129.2z"/>
<path class="st1" d="M159.5,125.6c-0.8,3-1.8,5.7-4.5,7.4c-0.4,0.3-0.8,0.9-1.4,0.4s0.1-0.9,0.3-1.3c0.2-0.4,1.8-1.3-0.2-1.6
	c-0.1-0.2-0.1-0.5,0-0.7c0.1-0.3,0.2-0.6,0.3-0.9C155.5,125.3,155.5,125.3,159.5,125.6z"/>
<path class="st1" d="M121.5,104.8c1.3-4.9,1.3-4.9,6-4.9c3.1,0,3,0,2.1,3c-0.1,1.2-1.2,2.1-2.5,2c-0.1,0-0.2,0-0.3-0.1
	C125.1,104.6,123.4,104.8,121.5,104.8z"/>
<path class="st0" d="M136.1,113.7c3.1-8.5,6.2-16.8,9.3-25c0.2-0.6,0.1-1.9,1.4-1.5c1.3,0.4,0.6,1.3,0.4,2.1c-2,5.4-4,10.8-6,16.3
	c-0.8,2-1.5,4.1-2.3,6.1C138.5,112.8,137.9,113.9,136.1,113.7z"/>
<path class="st0" d="M120.1,149.4c-0.9-0.2-0.5-0.7-0.3-1.2c0.8-2.3,1.7-4.6,2.5-6.9c1.3-3.5,2.7-7.1,4-10.6
	c0.2-0.4,0.4-0.9,0.6-1.3s0.6-1.2,1.3-0.9c0.7,0.3,0.1,1,0,1.4c-1.6,4.3-3.3,8.7-4.9,13c-0.7,1.7-1.3,3.5-2,5.2
	C121.1,148.7,120.8,149.3,120.1,149.4z"/>
<path class="st0" d="M174.7,101.8c-0.6,0-0.8-0.2-0.6-0.7c0.8-2,1.5-4.1,2.3-6.1c0.1-0.5,0.6-0.7,1-0.6c0,0,0.1,0,0.1,0
	c0.6,0.3,0.3,0.8,0.2,1.2c-0.6,1.8-1.3,3.6-1.9,5.4C175.5,101.5,175.3,101.9,174.7,101.8z"/>
<path class="st0" d="M162.1,95c-0.8,2.1-1.5,4.2-2.3,6.3c-0.2,0.6-0.7,0.5-1.2,0.4c-0.4-0.1-0.4-0.4-0.2-0.8c0.7-2,1.5-4,2.2-6
	c0.1-0.5,0.6-0.8,1-0.7c0.3,0,0.5,0.2,0.5,0.5C162.1,94.9,162.1,94.9,162.1,95z"/>
<path class="st0" d="M96.1,103.1l-3.7,10.3c-0.2,0.5-0.5,1-1.1,0.9c-0.8-0.2-0.4-0.9-0.3-1.3c1-2.8,2-5.5,3.1-8.2
	C94.3,104,95,103.7,96.1,103.1z"/>
<path class="st0" d="M143.7,129.2c0.4,0.6,0.1,1.2-0.1,1.7c-2.1,6-4.7,12-6.4,18.2c0,0.2-0.4,0.4-0.5,0.6c-0.2,0.5-0.5,1.2-1.1,0.9
	s-0.2-0.9,0-1.4c1.5-4.4,3.2-8.7,4.8-13.1c0.6-1.7,1.2-3.4,1.8-5.1C142.5,130.3,142.6,129.3,143.7,129.2z"/>
<ellipse class="st3" cx="202.7" cy="131.4" rx="0.4" ry="0.3"/>
<ellipse class="st3" cx="203.3" cy="133.8" rx="0.6" ry="0.4"/>
<ellipse class="st3" cx="205" cy="132.5" rx="0.6" ry="0.4"/>
<ellipse class="st3" cx="207.5" cy="133.6" rx="0.6" ry="0.4"/>
<ellipse class="st3" cx="219.7" cy="133" rx="0.6" ry="0.4"/>
<ellipse class="st3" cx="221.9" cy="133.3" rx="0.6" ry="0.4"/>
<ellipse class="st3" cx="224.6" cy="133" rx="0.5" ry="0.4"/>
<ellipse class="st3" cx="223.4" cy="131.1" rx="0.4" ry="0.2"/>
<ellipse class="st3" cx="220.2" cy="135" rx="0.7" ry="0.4"/>
<ellipse class="st3" cx="205.1" cy="135.2" rx="0.8" ry="0.5"/>
<path class="st4" d="M208.5,130.3c-1.2,0-2.2-1-2.2-2.2s1-2.2,2.2-2.2s2.2,1,2.2,2.2S209.7,130.3,208.5,130.3L208.5,130.3z
	 M208.5,126.3c-1,0-1.8,0.8-1.8,1.8c0,1,0.8,1.8,1.8,1.8c1,0,1.8-0.8,1.8-1.8v0C210.3,127.1,209.5,126.3,208.5,126.3z"/>
<circle class="st4" cx="208.3" cy="127.9" r="0.7"/>
<path class="st4" d="M219.5,130.3c-1.2,0-2.2-1-2.2-2.2s1-2.2,2.2-2.2s2.2,1,2.2,2.2S220.7,130.3,219.5,130.3L219.5,130.3z
	 M219.5,126.3c-1,0-1.8,0.8-1.8,1.8c0,1,0.8,1.8,1.8,1.8c1,0,1.8-0.8,1.8-1.8v0C221.3,127.1,220.5,126.3,219.5,126.3z"/>
<circle class="st4" cx="219.3" cy="127.9" r="0.7"/>
</svg>
