<?xml version="1.0" encoding="utf-8"?>
<!-- Generator: Adobe Illustrator 21.1.0, SVG Export Plug-In . SVG Version: 6.00 Build 0)  -->
<svg version="1.1" id="Layer_1" xmlns="http://www.w3.org/2000/svg" xmlns:xlink="http://www.w3.org/1999/xlink" x="0px" y="0px"
	 viewBox="0 0 250 250" style="enable-background:new 0 0 250 250;" xml:space="preserve">
<style type="text/css">
	.st0{fill:#FF1D1D;}
</style>
<title>Grocery</title>
<path class="st0" d="M27.9,113.7c-0.2,0.7-0.3,1.4-0.3,2.1c0,0.3,0,0.8-0.1,1.5c-0.1,0.7-0.1,1.1-0.1,1.5c0,1.1-0.1,2.6-0.2,4.7
	c-0.1,2.1-0.2,3.7-0.2,4.7c0,0.8,0.1,2,0.2,3.7c0.1,1.6,0.2,2.8,0.2,3.7c0,0.6-0.2,1.2-0.7,1.6c-0.4,0.4-1,0.7-1.6,0.6
	c-0.6,0-1.2-0.2-1.7-0.6c-0.5-0.4-0.7-0.9-0.7-1.5c0-0.8,0-2-0.1-3.7c-0.1-1.6-0.1-2.8-0.1-3.7c0-0.6,0-1.2,0-1.7
	c-2.2,0.1-4.3,0.4-6.5,0.8l-6.4,1.2c0,0.7-0.1,1.9-0.2,3.5c-0.1,1.4-0.1,2.6-0.1,3.5c0,0.6-0.2,1.1-0.7,1.5c-0.4,0.4-1,0.6-1.6,0.6
	c-0.6,0-1.2-0.2-1.6-0.6c-0.4-0.4-0.6-0.9-0.7-1.4c0-1.1,0.1-2.7,0.3-4.9c0.2-2.2,0.3-3.8,0.3-4.9c0-1.4,0-3.5,0.1-6.3
	c0.1-2.8,0.1-4.9,0.1-6.3c0-0.6,0.2-1.1,0.7-1.5c0.4-0.4,1-0.6,1.6-0.6c0.6,0,1.2,0.2,1.6,0.6c0.4,0.4,0.7,1,0.7,1.5
	c0,0.8,0,2.1-0.1,3.8c-0.1,1.7-0.1,3-0.1,3.8c0,0.3,0,0.8-0.1,1.6c-0.1,0.6-0.1,1.1-0.1,1.7l6.4-1.2c2.1-0.4,4.3-0.7,6.5-0.8
	c0-0.8,0.1-2.8,0.2-6.1c0.1-1,0.3-2.1,0.8-3c0.6-1.4,1.3-2.1,2.1-2.1c0.6,0,1.1,0.2,1.6,0.6c0.5,0.4,0.7,1,0.7,1.6
	C28,113.4,28,113.5,27.9,113.7z"/>
<path class="st0" d="M49.8,137.4c-0.9,0-1.8-1-2.7-3.1c-0.6-1.5-1.2-3-1.5-4.5c-0.8,0.1-2.2,0.2-4,0.4c-1.8,0.1-3.2,0.3-4,0.4
	c-0.5,1.2-1.4,3.1-2.7,5.5c-0.4,0.7-1.2,1.2-2,1.2c-0.6,0-1.2-0.2-1.7-0.6c-0.5-0.4-0.7-1-0.7-1.6c0.6-2,1.4-3.9,2.4-5.8
	c-0.1-0.3-0.2-0.6-0.2-1c0-0.5,0.6-1,1.6-1.3c1.6-2.7,3.3-5.6,5.3-8.5c2.8-4.2,4.5-6.3,5.1-6.3c1.2,0,2,0.7,2.5,2.2
	c0.2,1.2,0.6,3,1.1,5.3c0.7,3.2,1.5,6.9,2.5,11c0.2,0.7,0.5,1.5,0.9,2.2c0.3,0.7,0.5,1.4,0.6,2.1c0,0.6-0.3,1.2-0.7,1.6
	C51.1,137.2,50.5,137.4,49.8,137.4z M43.6,120.3c-0.9,1.5-2.1,3.5-3.6,6.1c0.8-0.1,1.6-0.2,2.3-0.3c1.2-0.1,2-0.1,2.3-0.2
	C44.4,124.5,44.1,122.6,43.6,120.3L43.6,120.3z"/>
<path class="st0" d="M80.2,132.8c0,0.9-0.1,1.8-0.3,2.7c0,1.2-1.1,2.2-2.3,2.2c0,0-0.1,0-0.1,0c-1-0.1-2-0.6-2.7-1.3
	c-5.3-5-10.1-10.4-14.5-16.2c-0.1,2.9-0.1,4.7-0.1,5.3c0,0.9,0,2.2,0,4c0,1.8,0,3.1,0,4c0,3.3-0.8,4.9-2.4,4.9
	c-0.7,0-1.4-0.2-1.9-0.7c-0.4-0.4-0.7-1-0.7-1.6c0-0.4,0-1.1,0.1-2c0.1-0.9,0.1-1.6,0.1-2c0-0.7,0-1.6,0.1-2.9c0-1.3,0-2.3,0-2.9
	c0-0.7,0-1.8,0-3.2c0-1.4,0-2.5,0-3.2c0-0.7-0.1-1.7-0.2-3s-0.2-2.3-0.2-3c0-0.7,0.3-1.3,0.9-1.8c0.5-0.5,1.2-0.8,2-0.8
	c0.8,0,1.7,0.7,2.7,2.1c4.4,6.4,9.5,12.2,15.2,17.5c0-0.4,0-1.2,0-2.5c0-5.5-0.1-9.2-0.2-11.1c0-0.3-0.1-0.9-0.2-1.8
	c-0.1-0.6-0.2-1.2-0.2-1.8c0-1.5,0.8-2.3,2.4-2.3c1.8,0,2.7,2.8,2.7,8.4c0,0.1,0,1,0,2.7C80.2,127.9,80.2,131.4,80.2,132.8z"/>
<path class="st0" d="M86.1,137.1c-0.6,0-1.2-0.2-1.7-0.7c-0.4-0.4-0.7-1-0.7-1.6c0-1.1,0.1-2.8,0.2-5s0.2-3.9,0.2-5
	c0-1.2,0-3.1-0.1-5.5c-0.1-2.5-0.1-4.3-0.1-5.5c0-0.7,0.4-1.4,0.9-1.8c0.5-0.5,1.2-0.9,1.9-0.9c1,0.2,1.9,0.6,2.8,1
	c1.7,0.8,2.7,1.3,3.1,1.3c3.1,1,6,2.6,8.3,4.9c2.5,2.2,4,5.4,4.1,8.7c-0.1,3.9-2,7.6-5.3,9.7c-2.4,1.3-5.1,2-7.8,1.8
	c-0.9,0-1.9-0.1-2.8-0.3C88.1,137.9,87.1,137.6,86.1,137.1z M95.5,119.9c-2.2-1.2-4.6-2.3-6.9-3.2v16.5c0.5,0.3,1,0.5,1.5,0.6
	c0.6,0.1,1.2,0.2,1.9,0.2c1.8,0.1,3.6-0.2,5.2-1c1-0.6,1.8-1.5,2.4-2.6c0.6-1,0.9-2.2,0.9-3.4C100.3,124.3,98.7,121.9,95.5,119.9
	L95.5,119.9z"/>
<path class="st0" d="M126.1,116.3c-0.6,1.2-1.7,3.7-3.4,7.6c-1.4,3.2-2.6,5.8-3.6,7.6c-1.7,3.2-2.7,4.9-2.8,5.1
	c-0.5,0.8-1.3,1.4-2.3,1.5c-0.6,0-1.2-0.2-1.6-0.6c-0.5-0.4-0.8-1-0.8-1.7c0-0.5,1.2-2.8,3.5-6.9c-0.9-1.2-2.1-3.1-3.7-5.6
	c-1.2-1.8-3-4.6-5.3-8.3c-0.2-0.4-0.3-0.8-0.3-1.2c0-0.6,0.3-1.2,0.7-1.6c0.4-0.4,1-0.6,1.6-0.6c0.8,0,1.5,0.5,2,1.1l1.3,2l2.9,4.9
	c0.9,1.6,1.9,3.2,3.1,4.7c0.8-1.7,2.1-4.3,3.7-7.7l1.5-3.5c0.3-0.9,1.2-1.5,2.2-1.5c0.6,0,1.2,0.2,1.6,0.6c0.5,0.4,0.8,1,0.8,1.6
	C126.8,114.7,126.5,115.5,126.1,116.3z"/>
<path class="st0" d="M142.3,130.9c-1.5,0.1-4.3,0.2-8.2,0.2c-0.6,0-1.3-0.1-1.8-0.5c-0.8-0.5-1.2-1.5-0.7-2.4
	c0.2-0.3,0.4-0.5,0.7-0.7c0.5-0.3,1.2-0.5,1.8-0.5c0.9,0,2.2,0,4-0.1c1.8-0.1,3.1-0.1,4-0.1c0.6,0,1.3,0.1,1.8,0.4
	c0.6,0.3,1,0.9,1,1.6C144.9,130.1,144,130.8,142.3,130.9z"/>
<path class="st0" d="M168.9,138.6c-0.9,0-1.8-1-2.7-3.1c-0.6-1.5-1.2-3-1.5-4.5c-0.8,0.1-2.2,0.2-4,0.4s-3.2,0.3-4,0.4
	c-0.5,1.2-1.4,3.1-2.7,5.5c-0.4,0.7-1.2,1.2-2,1.2c-0.6,0-1.2-0.2-1.7-0.6c-0.5-0.4-0.7-1-0.7-1.6c0.6-2,1.4-3.9,2.4-5.8
	c-0.1-0.3-0.2-0.6-0.2-1c0-0.5,0.6-1,1.6-1.3c1.6-2.7,3.3-5.6,5.3-8.5c2.8-4.2,4.5-6.3,5.1-6.3c1.2,0,2,0.7,2.5,2.2
	c0.2,1.2,0.6,3,1.1,5.3c0.7,3.2,1.5,6.9,2.5,11c0.2,0.7,0.5,1.5,0.9,2.2c0.3,0.7,0.5,1.4,0.6,2.1c0,0.6-0.3,1.2-0.7,1.6
	C170.1,138.4,169.5,138.6,168.9,138.6z M162.7,121.5c-0.9,1.5-2.1,3.5-3.6,6.1c0.8-0.1,1.6-0.2,2.3-0.3c1.2-0.1,2-0.1,2.3-0.2
	C163.5,125.6,163.1,123.8,162.7,121.5z"/>
<path class="st0" d="M198.8,134c0,0.9-0.1,1.8-0.3,2.7c0,1.2-1.1,2.2-2.3,2.2c0,0-0.1,0-0.1,0c-1-0.1-2-0.6-2.7-1.3
	c-5.3-5-10.1-10.4-14.5-16.2c-0.1,2.9-0.1,4.7-0.1,5.3c0,0.9,0,2.2,0,4s0,3.1,0,4c0,3.3-0.8,4.9-2.4,4.9c-0.7,0-1.4-0.2-1.9-0.7
	c-0.4-0.4-0.7-1-0.7-1.6c0-0.4,0-1.1,0.1-2c0.1-0.9,0.1-1.6,0.1-2c0-0.7,0-1.6,0.1-2.9c0-1.3,0-2.3,0-2.9c0-0.7,0-1.8,0-3.2
	c0-1.4,0-2.5,0-3.2c0-0.7-0.1-1.7-0.2-3c-0.1-1.3-0.2-2.3-0.2-3c0-0.7,0.3-1.3,0.9-1.8c0.5-0.5,1.2-0.8,2-0.8c0.8,0,1.7,0.7,2.7,2.1
	c4.3,6.4,9.4,12.3,14.9,17.6c0-0.4,0-1.2,0-2.5c0-5.5-0.1-9.2-0.2-11.1c0-0.3-0.1-0.9-0.2-1.8c-0.1-0.6-0.2-1.2-0.2-1.8
	c0-1.5,0.8-2.3,2.4-2.3c1.8,0,2.7,2.8,2.7,8.4c0,0.1,0,1,0,2.7C198.8,129.1,198.8,132.6,198.8,134z"/>
<path class="st0" d="M204.4,138.2c-0.6,0-1.2-0.2-1.7-0.7c-0.4-0.4-0.7-1-0.7-1.6c0-1.1,0.1-2.8,0.2-5c0.1-2.2,0.2-3.9,0.2-5
	c0-1.2,0-3.1-0.1-5.5c-0.1-2.5-0.1-4.3-0.1-5.5c0-0.7,0.4-1.4,0.9-1.8c0.5-0.5,1.2-0.9,1.9-0.9c1,0.2,1.9,0.6,2.8,1
	c1.7,0.8,2.7,1.3,3.1,1.3c3.1,1,6,2.6,8.3,4.9c2.5,2.2,4,5.4,4.1,8.7c-0.1,3.9-2,7.6-5.3,9.7c-2.4,1.3-5.1,2-7.8,1.8
	c-0.9,0-1.9-0.1-2.8-0.3C206.3,139.1,205.3,138.8,204.4,138.2z M213.7,121.1c-2.2-1.2-4.6-2.3-6.9-3.2v16.5c0.5,0.3,1,0.5,1.5,0.6
	c0.6,0.1,1.2,0.2,1.9,0.2c1.8,0.1,3.6-0.2,5.2-1c1-0.6,1.8-1.5,2.4-2.6c0.6-1,0.9-2.2,0.9-3.4C218.6,125.5,217,123.1,213.7,121.1
	L213.7,121.1z"/>
<path class="st0" d="M243.9,117.5c-0.6,1.2-1.7,3.7-3.4,7.6c-1.4,3.2-2.6,5.8-3.6,7.6c-1.7,3.2-2.7,4.9-2.8,5.1
	c-0.5,0.8-1.3,1.4-2.3,1.5c-0.6,0-1.2-0.2-1.6-0.6c-0.5-0.4-0.8-1-0.8-1.7c0-0.5,1.2-2.8,3.5-6.9c-0.9-1.2-2.1-3.1-3.7-5.6
	c-1.2-1.8-3-4.6-5.3-8.3c-0.2-0.4-0.3-0.8-0.3-1.2c0-0.6,0.3-1.2,0.7-1.6c0.4-0.4,1-0.6,1.6-0.6c0.8,0,1.5,0.5,2,1.1l1.3,2l2.9,4.9
	c0.9,1.6,1.9,3.2,3.1,4.7c0.8-1.7,2.1-4.3,3.7-7.7l1.5-3.5c0.3-0.9,1.2-1.5,2.2-1.5c0.6,0,1.2,0.2,1.6,0.6c0.5,0.4,0.8,1,0.8,1.6
	C244.6,115.8,244.3,116.7,243.9,117.5z"/>
</svg>
