<?xml version="1.0" encoding="utf-8"?>
<!-- Generator: Adobe Illustrator 21.1.0, SVG Export Plug-In . SVG Version: 6.00 Build 0)  -->
<svg version="1.1" id="Layer_1" xmlns="http://www.w3.org/2000/svg" xmlns:xlink="http://www.w3.org/1999/xlink" x="0px" y="0px"
	 viewBox="0 0 250 250" style="enable-background:new 0 0 250 250;" xml:space="preserve">
<style type="text/css">
	.st0{fill:#262121;}
	.st1{fill:#ED2E26;}
	.st2{fill:#FDF6DB;}
	.st3{fill:#B22018;}
	.st4{fill:#EB2E27;}
	.st5{fill:#71C267;}
	.st6{fill:#FCF8F6;}
	.st7{fill:#FCE094;}
	.st8{fill:#299846;}
	.st9{fill:#FDFCFB;}
	.st10{fill:#E2B33C;}
	.st11{fill:#01843E;}
	.st12{fill:#6F3231;}
	.st13{fill:#69488D;}
	.st14{fill:#9569AC;}
</style>
<title>Grocery</title>
<path class="st0" d="M232.4,99.7c-1.3,1.9-2.5,3.7-3.8,5.6c-3.1,4.6-6.1,9.2-9.1,13.8c-0.2,0.3-0.3,0.8-0.1,1.1
	c2.5,7.8,5.1,15.7,7.6,23.5c0,0.1,0,0.2,0.1,0.4l-4.2-0.6c-3.9-0.5-7.8-1-11.7-1.5c-3.9-0.5-8.1-0.9-12.2-1.3
	c-3.8-0.4-7.6-0.7-11.4-1.1c-2.7-0.2-5.3-0.4-7.9-0.7c-0.2,0-0.5-0.1-0.6,0.1c-0.1,0.2-0.1,0.5,0.1,0.7c0.3,0.3,0,0.5-0.2,0.6
	c-1.4,1.1-3.1,1.9-4.9,2.1c-0.3,0-0.6,0.2-0.8,0.4c-0.2,0.2-0.3,0.4-0.5,0.6c-0.6,0.6-1.1,1.3-1.3,2.1c-0.6,1.4-1.6,2.6-2.9,3.3
	c-0.3,0.1-0.5,0.4-0.4,0.8c0.1,3.5-2.3,6.5-5.7,7.2c-0.5,0.2-1.1,0.2-1.7,0.1c-0.4-0.1-0.9,0.2-1,0.6c-0.6,1.3-1.4,2.5-2.4,3.4
	c-0.2,0.2-0.3,0.5-0.2,0.7c0.2,1.4,0.3,2.9,0.1,4.3c0,0.3-0.1,0.5-0.1,0.8c-0.8,2.2-2.2,4.1-4,5.6c-2.8,2-6.1,3.1-9.6,3.1
	c-0.4,0-0.8,0.1-1.1,0.5c-5.9,6.3-11.8,12.6-17.7,18.9c-0.4,0.5-0.6,0.5-1.1,0c-4-4.3-8-8.6-12-12.9c-0.2-0.3-0.5-0.4-0.9-0.5
	c-2.6-0.4-5-2-6.4-4.3c-0.6-1.1-1-2.4-1-3.7c0-0.3-0.1-0.6-0.3-0.8c-1.3-1.3-2.5-2.7-3.7-4c-0.2-0.2-0.6-0.3-0.9-0.3
	c-4,0.1-7.9-0.8-11.5-2.6c-4.1-2-7.2-5.6-8.5-10c-0.1-0.4-0.3-0.5-0.6-0.4c-0.6,0.1-1.2,0.2-1.8,0.1c-0.7,0-1.4,0.3-1.8,0.9
	c-0.6,0.5-0.9,0.5-1.1-0.2c-0.3-1.2-0.7-2.4-1.2-3.6c-1.1-2.7-0.5-5.2,0-7.9c0.3-1.3,0.6-2.6,1.1-3.9c0-0.1,0.1-0.3,0.1-0.4
	c-0.5-0.5-0.9-1-1.3-1.5c-0.3-0.3-0.6-0.1-0.9-0.1c-4.4,0.4-8.7,0.7-13.1,1.1c-3.7,0.3-7.3,0.7-11,1.1c-4.2,0.5-8.5,1-12.7,1.5
	c-4,0.5-8,1.1-12,1.6c0,0-0.1,0-0.2,0l1.5-4.8c2.1-6.4,4.2-12.8,6.2-19.3c0.1-0.3,0-0.6-0.2-0.8l-9.7-14.5l-3.4-5L28,98
	c0-0.3-0.1-0.4-0.3-0.5c-1.2-1.5-2.4-3-3.6-4.4c-0.3-0.4-0.3-0.6,0.1-0.9c6.3-5.4,13-10.3,20-14.7C62.6,66.3,83,59.1,104.2,56.3
	c4.4-0.6,8.8-1,13.2-1.1c0.1,0,0.3,0.1,0.4-0.1h12.4c0.1,0.2,0.3,0.1,0.4,0.1c3.8,0.1,7.6,0.5,11.4,0.9c18,2.1,35.5,7.4,51.6,15.6
	c10.9,5.6,21.1,12.4,30.4,20.4c0.5,0.4,0.4,0.6,0,1c-1.2,1.4-2.4,2.9-3.5,4.4c-0.2,0.3-0.3,0.5,0.2,0.5c0.7,0.1,1.4,0.2,2.1,0.3
	l9.5,1.3L232.4,99.7z M118.9,160c-0.7,0.7-1,1.7-1.1,2.7C118.3,161.8,118.7,160.9,118.9,160l0.1-0.1l0,0L118.9,160z M93.3,106.9
	c0.5,0.2,1.2,0.2,1.6,0.7c0.6,0.6,1.5,1,2.4,1c0.6,0.1,0.8-0.2,0.7-0.8s-0.3-1.4-0.4-2.1V104c0.2-1.3,0.3-2.7,0.2-4
	c0-0.4,0-0.7,0.3-0.9c0.3-0.2,0.7-0.1,1,0.2c2.1,1.3,4.3,2.3,6.7,2.9c0.9,0.5,1.8,0.9,2.7,1.2c1.2,0.6,2.4,1.4,3.5,2.1
	c0.1,0.1,0.2,0.1,0.4,0.1c1.2-0.2,2.4,0,3.3-1.2c0.8-0.9,1.8-1.6,3-2.1l0.9-0.3c2-0.8,4.2-1,6.3-0.6c0.9,0.2,1.6,0.7,2.5,0.8
	c1.9,0.3,3.8,0.2,5.6-0.4c0.4-0.1,0.7-0.3,0.7-0.8l0.4-1.1c0.5-1.3,1.3-2.4,2.3-3.3c1.1-0.8,2.7-0.8,3.8,0c0.6,0.5,0.9,1.2,1.4,1.7
	c0.7,0.6,1.1,1.5,1,2.4c0,0.5,0.2,0.7,0.6,0.8c1.3,0.3,2.6,0.9,3.6,1.8c0.3,0.3,0.5,0.7,0.6,1.1c0,0.3,0.2,0.3,0.4,0.2l2.4-0.5
	c2.2-0.2,4.5,0.5,6.2,1.8c0.7,0.7,1.3,1.5,1.8,2.3c0.4,0.9,0.7,1.8,0.8,2.7c0,0.3,0.3,0.6,0.6,0.7c2.6,1,5.1,2,7.5,3.2
	c0.5,0.4,1.3,0.4,1.8-0.1c0.7-0.6,0.9-0.5,1.2,0.4c0.1,0.2,0.1,0.5,0.5,0.3c0.4-0.2,1.2-0.7,1.8-1l2.2-0.6h0.3
	c1.2-0.1,1.2-0.1,1.6,1c0,0.7,0.1,1.3,0.2,2c0,0.3,0,0.7,0.1,1c0.1,0.9,0.1,1,1,0.7c0.5-0.1,0.7,0,0.7,0.6c0,0.6,0,1,0,1.5
	c0,0.3,0.1,0.7,0.4,0.8c4,2.6,7.7,5.4,11.3,8.5c0.3,0.3,0.4,0.2,0.7,0c0.5-0.6,0.9-1.2,1.4-1.9l1-1.2l4.2-5.2l9.2-11.4
	c2.5-3.2,5.1-6.3,7.6-9.5c1.3-1.6,2.5-3.2,3.8-4.8c0.4-0.4,0.7-0.8,1-1.2c0.4-0.5,0.8-1.1,1.3-1.5c0.3-0.3,0.2-0.5-0.1-0.7
	c-0.9-0.7-1.8-1.5-2.8-2.3c-5.3-4.3-10.8-8.1-16.6-11.6c-4.9-3-10-5.6-15.2-8c-4.7-2.1-9.5-4-14.4-5.7c-7.2-2.4-14.5-4.3-21.9-5.6
	c-5-0.9-10.1-1.5-15.2-1.9c-4.9-0.3-9.8-0.5-14.7-0.3c-5.3,0.1-10.7,0.5-16,1.2c-4.8,0.6-9.6,1.5-14.4,2.6c-7.6,1.7-15,4.1-22.2,7
	c-7.4,3-14.5,6.5-21.4,10.6c-5.2,3.1-10.2,6.5-15,10.2c-1.6,1.2-3.1,2.5-4.7,3.8c-0.2,0.2-0.6,0.3-0.2,0.7c0.4,0.6,0.8,1.1,1.3,1.6
	c0.3,0.5,0.6,0.9,1,1.3c0,0.1,0.1,0.2,0.1,0.2l7.8,9.6l11.5,14.3l5.4,6.7c0.3,0.5,0.6,0.9,1,1.3l1.5,1.9c0.2,0.2,0.3,0.2,0.5,0
	c0.5-0.5,1.1-0.9,1.6-1.3c3.6-3,7.3-5.7,11.3-8.2c0.2-0.1,0.5-0.2,0.4-0.6c-0.1-1-0.1-1.9,0-2.9c0.2-0.7,0.3-1.4,0.3-2
	c0.5-1.5,0.8-3.1,2.4-4c1.1-0.7,1.9-1.9,3.1-2.5c2.7-1.3,5.6-2,8.6-2.1c1.5,0,3.1,0,4.6,0C90.7,106.5,92,106.6,93.3,106.9
	L93.3,106.9z M163.8,132.1c-0.2,0-0.4,0.1-0.6,0.2c-0.3-0.1-0.7,0.2-0.7,0.5c0,0,0,0,0,0c-0.3,1-0.8,2-1.5,2.8
	c-0.2,0.2-0.2,0.4,0.1,0.5c0.7,0.2,1.4,0.6,2,1.1c0.2,0.2,0.5,0.3,0.8,0.1c1.4-0.7,3-0.8,4.5-0.3c0.3,0.1,0.5,0,0.5-0.3
	c0.1-0.5,0.1-1-0.1-1.5c-0.2-1.9-1.9-3.2-3.8-3.1H164L163.8,132.1z M140.8,132.6c0,0-0.1-0.1-0.1-0.1c-2.4-0.3-4.7,1.1-5.6,3.4
	c-0.1,0.2,0,0.5,0.2,0.7c1.2,0.7,2.4,1.4,3.5,2.2c0.3,0.2,0.4,0.1,0.6-0.1c0.6-0.8,1.4-1.5,2.4-2c0.8-0.5,0.8-0.5,0.3-1.3
	c-0.1-0.7-0.2-1.4-0.1-2.1c0-0.2-0.1-0.4-0.3-0.5L140.8,132.6z M141.1,138.4c-0.5,0.1-0.6,0.6-0.9,0.9c-0.1,0.1-0.1,0.2-0.1,0.3
	c0,0,0,0.1,0.1,0.1c0.6,0.4,0.7,1.1,0.9,1.7c0.3,1.1,1,2.1,2,2.8c0.2,0.1,0.4,0.2,0.6,0c0.9-0.6,1.9-1.1,3-1.3
	c0.4-0.1,0.3-0.2,0.2-0.4c-0.8-1.5-0.8-3.3,0-4.8c0.1-0.2,0.2-0.4-0.1-0.5c-0.9-0.4-1.8-0.5-2.8-0.2
	C142.9,137.1,141.9,137.6,141.1,138.4L141.1,138.4z M146.7,125.3c-1,0.7-1.6,1.8-1.7,3c-0.1,0.5,0.2,0.5,0.5,0.3h0.1
	c2.1-1.3,4.9-1,6.7,0.7c0.2,0.2,0.3,0.2,0.5,0c0.5-0.6,1.2-1.2,1.9-1.6c0.2-0.1,0.3-0.4,0.2-0.7c-0.2-0.8-0.7-1.6-1.4-2
	c-0.4-0.4-0.9-0.7-1.4-0.9c-1.8-0.6-3.9-0.1-5.2,1.2C146.8,125.2,146.8,125.2,146.7,125.3L146.7,125.3z M162.7,125.2
	c-0.8,0.1-1.6,0.4-2.3,0.9c-0.3,0-0.5,0.2-0.7,0.4c-0.2,0.2-0.4,0.5,0.1,0.7c1.6,0.6,2.7,2,2.9,3.7c0.1,0.5,0.3,0.5,0.7,0.4
	c1.1-0.3,2.2-0.3,3.2,0c0.4,0.1,0.6,0,0.8-0.4c0.7-1.7,0.3-3.6-1-4.8C165.4,125.1,164,124.8,162.7,125.2L162.7,125.2z M31.5,102.2
	c-0.3-0.7-1-1.2-1.3-1.9c-0.2-0.4-0.7-0.6-1.1-0.4c-0.9,0.1-1.8,0.2-2.7,0.4l-6.6,0.9c0.5,0.9,1.1,1.7,1.7,2.4
	c0.2,0.5,0.6,1,0.9,1.5L27,112l4.6,6.9c0.2,0.2,0.3,0.5,0.2,0.8c-1.4,4.3-2.8,8.6-4.2,12.8c-0.5,1.7-1,3.3-1.5,5
	c-0.3,0.5-0.5,1.1-0.6,1.7c-0.2,0.6-0.4,1.2-0.6,1.8c-0.2,0.6-0.1,0.7,0.6,0.7c3.8-0.5,7.7-1.1,11.6-1.5c3.9-0.5,8-0.9,12-1.3
	c4-0.4,7.6-0.8,11.5-1.1c2.9-0.3,5.7-0.5,8.6-0.7c0.2,0,0.4,0,0.5-0.2c0.1-0.2-0.1-0.3-0.2-0.4l-1.6-1.7c-0.2-0.2-0.4-0.2-0.7-0.2
	c-0.6,0-1.2-0.1-1.8-0.2c-1.8-0.2-3.6-0.5-5.4-0.5c-0.6-0.2-1.2-0.3-1.8-0.3c-0.9,0-1.8-0.4-2.3-1.2c-0.6-0.9-1.3-1.7-2-2.6
	l-10-12.4l-10.9-13.7C32.4,103.1,32,102.6,31.5,102.2z M166.8,137.8c-0.9-0.3-1.8-0.1-2.6,0.5c-0.2,0.1-0.1,0.2,0,0.4
	c0.7,1.6,0.7,3.5-0.2,5c-0.3,0.5-0.3,0.7,0.4,0.8c1.2,0.2,2.3,1,3,2.1c0.4,0.7,0.5,0.7,1.1,0.2c1.7-1.3,2.5-3.4,2.2-5.5
	c-0.2-1.9-1.6-3.4-3.5-3.6L166.8,137.8z M216.9,102.2c-0.5,0.4-0.9,0.9-1.3,1.5c-0.9,1.1-1.9,2.2-2.8,3.3L201.6,121
	c-3,3.8-6.1,7.6-9.1,11.4c-0.4,0.6-1.1,0.9-1.9,0.9c-0.6,0-1.2,0.1-1.8,0.3c-0.3,0-0.7,0-1,0l-6.3,0.7c-0.2,0-0.4,0-0.5,0.2
	c-0.3,0.6-0.6,1.2-0.8,1.9c-0.1,0.3,0,0.4,0.3,0.4l1.8,0.1l8.7,0.8l4.3,0.4l7.1,0.7l5.2,0.6l5.6,0.7l6.9,0.9l3.2,0.4
	c0.4,0,0.6,0,0.4-0.5c-0.2-0.5-0.4-1.3-0.7-1.9c-0.1-0.6-0.3-1.1-0.5-1.7c-0.2-0.6-0.3-1.2-0.5-1.8c-0.6-2-1.3-4-1.9-5.9
	c-1.1-3.3-2.1-6.7-3.2-9.9c-0.1-0.3-0.1-0.7,0.1-1c2.3-3.5,4.6-6.9,6.9-10.4c0.8-1.1,1.5-2.2,2.1-3.3c0.4-0.4,0.8-1,1-1.5
	c0.5-0.6,1-1.3,1.5-2.1c0.2-0.3,0.1-0.4-0.3-0.5c-1.2-0.1-2.4-0.3-3.5-0.5l-5.7-0.7c-0.2,0-0.5-0.1-0.7,0.1
	C217.9,100.6,217.4,101.4,216.9,102.2z M152.9,134.8c-1.8,0.1-3.5,0.9-4.7,2.3c-0.1,0.1-0.3,0.3-0.3,0.5c-0.1,0.1-0.2,0.1-0.2,0.2
	c-0.8,1.3-0.8,3,0,4.3c0.2,0.4,0.5,0.8,1.1,0.8c0.4,0,0.7,0.1,1,0.3c0.6,0.4,1.4,0.4,2,0c0.1-0.1,0.2-0.1,0.4-0.1
	c0.4-0.1,0.5-0.3,0.5-0.6c0-2.2,1.2-4.2,3-5.3c0.7-0.5,0.8-0.5,0.2-1.2c0-0.1-0.1-0.1-0.2-0.2C154.9,134.9,153.9,134.6,152.9,134.8
	L152.9,134.8z M143.9,131.3c-0.8,1-1,2.2-0.7,3.4c0.3,1,0.5,1.1,1.7,1.1c0.8,0,1.6,0.1,2.3,0.4c0.3,0.2,0.6,0.1,0.8-0.2c0,0,0,0,0,0
	c0.9-0.9,2-1.6,3.2-2c0.4-0.1,0.5-0.3,0.4-0.7c-0.2-0.9-0.1-1.9,0.3-2.8c0.1-0.2,0.2-0.5,0-0.7c-0.5-0.6-1.2-1.1-2-1.2
	C147.6,128.1,145.1,129.2,143.9,131.3z M150.7,145c-0.7,0.4-1.4,1-1.7,1.8c-0.3,0.3-0.2,0.8,0.1,1c0,0,0,0,0,0
	c1.5,1.5,2.9,3.1,4,4.9c0.5,0.8,0.6,0.8,1.5,0.5c2.3-1,3.8-3.3,3.8-5.8c-0.2-1.6-1.3-2.9-2.8-3.4c0,0-0.1,0-0.1,0
	c-0.2-0.3-0.5-0.2-0.7-0.2C153.2,143.6,151.8,144,150.7,145z M158.1,127.7c-2-0.2-4,0.9-5,2.7l-0.1,0.2v0.2
	c-0.6,0.8-0.8,1.9-0.5,2.9c0,0.3,0.3,0.3,0.5,0.3c1.6-0.1,3.1,0.7,4,2c0.1,0.1,0.2,0.4,0.4,0.3c0.7-0.3,1.5-0.1,2.2-0.6
	c1.6-1.2,2.4-3.2,2.1-5.1C161.3,128.8,159.8,127.7,158.1,127.7L158.1,127.7z M115.7,138.5L115.7,138.5c0,0.1,0.1,0.2,0.1,0.3
	c2.6,4.4,3.4,9.6,2,14.5c-0.7,2.9-2.1,5.5-4,7.7c-0.3,0.4-0.3,0.6,0.2,0.7c0.7,0.2,1.4,0.4,2,0.8c0.4,0.3,0.6,0.2,0.7-0.3
	c0.3-1.7,1.3-3.3,2.7-4.4c0.6-0.4,1-1,1.1-1.7c0.4-0.8,0.7-1.6,0.9-2.5l0.3-0.9c0.8-2.5,1.2-5.2,3.5-7.1c-0.4-0.4-1-0.4-1.3-0.9
	c0.9,0.7,2.2,0.6,2.9-0.3c0,0,0,0,0,0c0.3-0.2,0.5-0.6,0.5-0.9l0,0l0.1-0.1c0.4-0.7,0.6-0.8,1.4-0.5c0.5,0.2,1,0.4,1.5,0.7
	c0.6,0.4,1,0.9,0.5,1.6c-0.1,0.2-0.1,0.5-0.1,0.7c-0.1,0.2,0,0.5,0.4,0.5c3.2,0.2,6.4,0.2,9.5-0.2h3.3c-0.7-0.4-1.3-1-1.9-1.5
	c-1.2-0.8-2-2.1-2.3-3.5c-0.1-0.3-0.2-0.5-0.5-0.7c-1.7-1.1-3.4-2.2-4.9-3.5c-1.1-0.8-2.2-1.5-3.5-2c-0.3-0.2-0.7-0.2-1-0.2
	c-1.6-0.1-3.1,0-4.7,0.2c-2,0.3-3.9,0.4-5.9,0.3c-1.7-0.1-3.3-0.4-5-0.4c-0.6,0-1.2-0.3-1.7-0.7l1,0.1c2.3,0.3,4.6,0.4,7,0.2
	l4.6-0.6h3.3v-0.2c-0.5-0.3-1-0.8-1.3-1.2c-0.6-0.7-1.3-1.3-1.5-2.2c0-0.4-0.3-0.8-0.6-1.1c-2.2-1.8-4.6-3.2-6.8-5
	c-1.5-1.1-3.4-1.6-5.3-1.5c-0.3-0.1-0.7-0.1-1,0c-4.7,0.7-9.4,0.7-14,0.2c-1.6-0.1-3.1-0.5-4.6-1.1l0,0c0.2-0.2,0.4,0,0.6,0
	c3.3,0.5,6.6,0.8,9.9,0.7c1.5,0,3.1-0.1,4.6-0.5c1.7-0.2,3.3-0.2,5.1-0.3c-1.1-0.7-1.9-1.7-2.3-2.8c-0.2-0.7-0.7-1.3-1.3-1.6
	c-2.5-1.5-5-3.1-7.5-4.5c-2-1.3-4.1-2.2-6.4-2.9c-0.5,0-1-0.3-1.3-0.8c-0.1-0.1-0.3-0.2-0.4-0.3c-1.5-0.5-3.1-0.7-4.8-0.7
	c-1,0.1-1.9,0.1-2.9,0.1c-2.7,0-5.4,0.5-7.9,1.5c-0.1,0-0.2,0-0.3,0.1l0,0c-1.2,0.5-2.3,1.1-3.3,2c-1.5,1-2.4,2.6-2.7,4.4
	c-0.3,1.7-0.2,3.5,0.1,5.2c1.2,4,3.7,7.4,6,10.9c0.2,0.3,0.6,0.8,1.1,0.5c0.8-0.5,1.6-0.9,2.5-1.2c2.3-0.5,4.7-0.5,7,0.3
	c0.3,0.1,0.5,0,0.7-0.1c1.5-0.3,3-0.6,4.6-0.8c0.5,0,1,0,1.5-0.2c0.4-0.3,0.3-0.9,0.4-1.3c0.2-1,0.6-1.2,1.5-0.8
	c0.7,0.4,1.5,0.8,2.3,1.1c0.3,0,0.3,0.3,0.1,0.5c-0.5,0.7,0,0.7,0.5,0.7c2.6,0.2,5.1,0.8,7.5,1.7c3,1.2,5.6,3.2,7.5,5.8
	C115.6,138.3,115.6,138.4,115.7,138.5L115.7,138.5z M123.1,155.5c-0.4,0.9-0.4,0.9,0.5,0.9c1.4-0.1,2.7,0.3,3.9,0.9
	c0.7,0.4,0.7,0.4,0.8-0.5c1-3.1,0.9-6.4-0.3-9.5c-0.2-0.4-0.4-0.5-0.8-0.2c-1,0.7-1.8,1.6-2.3,2.8
	C124.2,151.7,123.6,153.5,123.1,155.5L123.1,155.5z M158.9,136.6c-0.1-0.1-0.2-0.1-0.3,0c-1.7,0.2-3.1,1.2-4,2.6
	c-0.8,0.9-1.2,2.2-1,3.4c0,0.3,0.2,0.2,0.4,0.3c2-0.1,3.8,1,4.7,2.8c0.2,0.3,0.3,0.4,0.7,0.3c1.9-0.6,3.3-2.1,3.9-4
	c0.7-2.1-0.5-4.4-2.6-5.1c-0.4-0.1-0.7-0.2-1.1-0.2L158.9,136.6z M140.2,97.8c0,0-0.1-0.1-0.2-0.2c-1.1-0.5-1.9-0.1-2.7,1
	c-1.1,1.5-1.9,3.3-2.5,5.1c-0.4,1.7-1.1,3.4-2,4.9c-0.1,0.1-0.1,0.4-0.3,0.4c-0.1-0.3,0.2-0.6,0-0.9c-0.6,0.5-1.3,0.3-2.1,0.6
	c0.6,0.3,1.1,0.7,1.6,1.1c0.2,0.3,0.5,0.1,0.7,0.1c1.1-0.2,2.3-0.3,3.5-0.1c0.8,0.1,1.6,0.4,2.5,0.4c0.3,0.1,0.6,0.1,1,0.1
	c0.2,0,0.4,0,0.4-0.2s0-0.3-0.2-0.5c-0.2-0.2-0.4-0.4-0.6-0.7c-0.8-1.4-1-3-0.7-4.6c0.1-0.9,0.4-1.7,0.8-2.5c0.2,0.5-0.1,0.9,0,1.5
	l0.7-1.2c0.2-0.4,0.6-0.7,1.1-0.6c1.1,0.1,1.1-0.3,1-1.2c-0.1-0.3-0.1-0.5-0.3-0.7C141.6,98.8,141,98.1,140.2,97.8L140.2,97.8z
	 M130.1,163.1l-0.3,0.3c-0.4,0.2-0.9,0.3-1.3,0.4c-1.3,0-2.5-0.8-3-2.1c-0.3-0.3-0.3-0.7-0.2-1.1c0.2,0.2,0.3,0.4,0.4,0.6
	c0.1,0.2,0.2,0.2,0.3,0.1c0.7-0.4,1.5-0.9,1.5-1.9c0.1-0.2,0.2-0.4-0.1-0.6c-1.2-0.9-2.7-1.4-4.1-1.3c-0.7-0.1-1.3,0.4-1.4,1.1
	c-0.5,1.9-1.3,3.8-2.2,5.6c-0.2,0.3,0,0.5,0.3,0.6c1,0.7,1.9,1.5,2.7,2.5c1.1,1.7,1.4,3.8,0.8,5.7c-0.1,0.5,0.2,0.5,0.5,0.6
	c0.7,0.1,1.4,0.1,2.1,0c3-0.5,5.5-2.8,6.2-5.8c0.3-1,0.3-2-0.2-3l-0.1-0.3l-0.1-0.3c-0.2-0.6-0.5-1.2-0.9-1.7
	c-0.3-0.5-0.7-1-1.1-1.3c-0.2-0.2-0.3-0.1-0.3,0.1C129.5,162,129.7,162.6,130.1,163.1L130.1,163.1z M140.7,108.5L140.7,108.5
	L140.7,108.5c0,0.3,0.3,0.4,0.4,0.6s0.4,0.3,0.4,0.6c0,0.6,0.3,0.5,0.6,0.4l3.2-0.7c-0.1,0.2-0.4,0.3-0.6,0.4
	c-0.3,0-0.6,0.1-0.9,0.3c-1.8,0.8-3.7,1.1-5.6,1c-1.6-0.2-3.2-0.2-4.8-0.1c-2.3,0.1-4.2,1.8-4.7,4c0,0.1,0,0.4-0.3,0.4
	c-0.2-0.7-0.2-1.4,0-2.1c0.3-1.1,1.1-2.1,2.1-2.6c0.5-0.3,0.4-0.5,0-0.8c-0.5-0.4-1.1-0.7-1.7-0.9c-1.2-0.5-2.4-1-3.5-1.6
	c-0.3-0.1-0.6-0.4-0.8-0.7c0.9,0.4,1.9,0.7,2.9,0.9l0.6,0.2c0.2,0,0.5,0.3,0.7,0.1c0.6-0.2,1.2-0.4,1.8-0.5c0.5,0,0.9-0.2,1.2-0.5
	c0.8-0.5,1.3-1.3,1.5-2.3c0.1-0.4,0.3-0.7,0.4-1.1c0.1-0.4,0-0.4-0.3-0.3c-1,0.3-2.1,0.5-3.2,0.8c0.3,0.5,0.7,0.9,1.1,1.3
	c0,0.2,0.2,0.4,0.3,0.5c-0.2,0.5-0.4,0-0.5,0c-1.4-1.1-2.9-2-4.6-2.7c-2.1-0.7-4.3-0.5-6.3,0.5c-4,1.5-6.6,5.4-6.5,9.6
	c0,2.7,0.3,5.4,1.1,8c0.1,0.4,0.3,0.4,0.6,0.4c0.6,0,1.2,0.1,1.7,0.3c1.6,1.2,3.1,2.4,4.8,3.5c0.8,0.5,1.5,1,2.3,1.5
	c1.1,0.6,1.9,1.6,2.2,2.8c0.3,0.8,0.7,1.5,1.3,2c0.1-1.3,0.2-2.6,0.3-3.8c0.1-1.2,0.2-2.6,0.3-3.9c0-0.1,0-0.3,0.1-0.3
	c0.1,0,0.2,0.2,0.3,0.3c0.1,0.4,0.2,0.7,0.2,1.1c0.3,2.5,0.3,4.9,0.4,7.4c-0.1,0.6,0.4,1.2,1,1.2c0.1,0,0.1,0,0.2,0
	c0.5,0,1,0.2,1.5,0.5l1.3,0.8c0.2,0.1,0.4,0.2,0.5-0.1c0.1-0.3,0.5-1,0.7-1.4c1-1.1,2.2-1.8,3.6-2.2c1.1-0.2,2.3-0.2,3.5,0.1
	c0.2,0.2,0.4,0.2,0.5,0c0.4-0.9,1.4-1.6,1.3-2.8c0-0.5,0.1-1.1,0.3-1.6c0.9-2.6,3.4-4.4,6.1-4.5c0.4,0,0.8,0,1.2,0.1
	c0.4,0.1,0.5,0,0.5-0.4c0.1-1.5,0.3-2.9,0.8-4.3c0.4-1.2,0.4-1.2,1.2-0.4c0.3,0.3,0.5,0.3,0.7-0.1c0.4-0.8,0.8-1.5,1.2-2.3
	c0.4-0.5,0.8-1.1,1.3-1.6c0.5-0.5,0.8-1.2,1.6-0.2c0-0.9-0.2-1.8-0.4-2.7c-0.3-1.7-1.4-3.2-3-4c-2.1-1.1-4.6-1.3-7-0.7
	c-0.3,0.1-0.5,0.2-0.7-0.1c-0.8-1-1.8-1.8-2.9-2.4c-0.8-0.4-1.5-1-2.5-0.4c-0.2,0.1-0.5,0.1-0.7-0.1c-0.5-0.4-0.9,0-1.1,0.4
	c-0.4,0.9-0.6,1.8-0.6,2.8c0,1,0,1,1,1.3c0.9,0.1,1.7,0.5,2.3,1.2c0.1,0.2,0.2,0.3,0.1,0.5c-0.2,0.2-0.3,0-0.5-0.1
	C142.1,108.9,141.4,108.6,140.7,108.5L140.7,108.5z M173,121.4L173,121.4c-1.5,2.2-2.8,4.4-4.4,6.6c-0.1,0.2-0.1,0.4-0.1,0.6
	c0.1,1,0,2-0.4,2.9c-0.2,0.3-0.1,0.8,0.2,1c0,0,0,0,0,0c1.1,0.9,1.8,2.4,1.8,3.8c0,0.6,0.3,0.7,0.8,0.6c1.2-0.2,2.4-0.4,3.6-0.6
	c0.7-0.2,1.5-0.2,2.2-0.1c-0.1,0.2-0.3,0.3-0.4,0.3c-1.8,0.5-3.7,0.8-5.6,1.1c-0.2,0-0.5-0.1-0.6,0.2c-0.1,0.3-0.1,0.6,0.2,0.9
	c0.5,0.5,0.9,1.1,1.2,1.8c0.1,0.3,0.3,0.4,0.6,0.5c1.7,0.4,3.4,0.1,4.9-0.8c0.4-0.3,0.5-0.4,0-0.6c-0.2-0.1-0.5-0.2-0.1-0.5
	c1.3-1,2.3-2.4,2.8-4c0.1-0.4,0.1-0.4-0.3-0.5c-0.9-0.2-1.7-0.4-2.7-0.5c-0.4-0.1-0.6-0.2-0.4-0.6c0.2-0.4,0-0.6-0.4-0.7
	c-0.9-0.3-2-0.2-2.8,0.3c-0.5,0.3-1.1,0.3-1.6,0c-0.3-0.2-0.4-0.6-0.3-0.9c0.1-0.1,0.2-0.2,0.3-0.3c0.2-0.2,0.5-0.2,0.7-0.2
	c0.6-0.1,1.3-0.1,1.9,0c0.3,0,0.5,0,0.7-0.2c0.7-0.5,1.3-1.1,1.8-1.7c0.4-0.5,0.7-1,0.8-1.7c0.2-0.2,0.1-0.3-0.2-0.4
	c-0.6-0.2-0.6-0.6-0.4-1.1c0.6-1.6,1-3.2,1.1-4.9c0-0.6,0-0.7-0.7-0.6l-0.3,0.1c-0.4,0.2-0.6,0-0.5-0.4c0.1-1.3,0-2.6-0.3-3.9
	c-0.1-0.4-0.2-0.6-0.7-0.4c-1.4,0.4-2.7,0.9-3.9,1.6c-0.7,0.4-0.9,0.4-0.9-0.4c-0.1-0.8-0.3-0.5-0.7-0.3c-0.7,0.5-1.4,1.1-1.9,1.8
	c-0.4,0.6-0.4,0.6-0.8-0.1c-0.1-0.1-0.1-0.2-0.1-0.3c-0.1-0.4-0.4-0.4-0.7-0.2c-1,0.6-1.9,1.3-2.7,2.2c-0.2,0.3-0.3,0.6-0.2,1
	c0.2,0.7,0.1,1.5-0.3,2.1c-0.1,0.2-0.3,0.4-0.6,0.3c-0.2-0.1-0.4-0.3-0.4-0.5c0-0.2,0.1-0.5,0.2-0.7c0.3-1,0.4-2,0.3-3
	c0-0.3-0.1-0.8-0.5-0.5c-0.5,0.3-0.7,0-0.9-0.4c-0.6-1.4-1.6-2.7-2.9-3.6c-0.5-0.3-0.8-0.2-1.1,0.2c-0.8,1.2-1.5,2.5-2,3.9
	c-0.4,1-0.4,1-1.3,0.4c-0.4-0.3-0.5-0.1-0.5,0.3c-0.1,0.7-0.2,1.5-0.3,2.3c-0.2,1,0.3,1.9,1.2,2.3c0.7,0.7,1.2,1.5,1.5,2.4
	c0.1,0.2,0.2,0.3,0.4,0.2c0.4-0.1,0.9-0.2,1.3-0.1c0.3,0,0.4-0.1,0.4-0.4c0-1.8,0.1-3.6,0.3-5.4c0-0.3,0.1-0.6,0.3-0.7
	c0,0.4,0,0.7,0,0.9c0,1.5,0.1,2.9,0.2,4.4c0,0.4,0.2,0.4,0.5,0.2c0.6-0.4,1.1-0.7,1.7-1c1.4-0.5,2.9-0.5,4.3-0.1
	c1.2,0.5,2.1,1.4,2.7,2.5c0.2,0.4,0.3,0.1,0.5,0c0.4-0.5,0.8-1.1,1.2-1.6c1.5-2,2.9-4,4.2-6.1c0.3,0.3,0,0.5-0.1,0.7
	c-0.2,0.4-0.4,0.9-0.7,1.3C173.1,121.1,173,121.2,173,121.4L173,121.4z M112.9,162.6h-0.4c-0.5-0.2-1-0.2-1.5,0.1
	c-1,0.2-1.9,0.6-2.7,1.2c-1.2,0.8-2.1,2-2.6,3.3c-0.7,1.8-1.1,3.8-0.9,5.7c0,2.8,1.8,5.4,4.5,6.3c1.7,0.6,3.5,0.9,5.2,0.6
	c2.6-0.3,4.8-1.8,6.1-4c0.6-1.2,1.1-2.4,1.3-3.7c0.3-1.1,0.2-2.2-0.1-3.2c-0.6-1.3-1.4-2.3-2.6-3.2c-0.3-0.2-0.4-0.1-0.6,0.1
	c-0.5,0.4-0.6,1.1-0.4,1.7c-0.4,0.6,0.4,0.2,0.4,0.5c-0.5,0.5-0.7,0.5-1.8,0.3c-1.5-0.1-2.8-0.9-3.5-2.1c-0.3-0.4-0.4-0.9,0.2-1.3
	c0,0.3,0.1,0.7,0.3,0.9c0.2,0.1,0.4,0.4,0.6,0.2c0.7-0.5,1.5-0.7,2-1.5c0.2-0.3,0.2-0.4-0.1-0.6c-0.6-0.3-1.1-0.6-1.7-0.9
	C114.1,162.6,113.5,162.5,112.9,162.6L112.9,162.6z M155.1,161.7c0-0.6-0.2-1.3-0.4-1.8c-1.1-2.7-2.5-5.4-4-7.9
	c-0.7-1-1.6-1.8-2.3-2.7c-1-1.1-2.5-1.8-4-1.7c-0.4,0-0.8-0.2-1.2-0.1c-1.2,0-2.5,0-3.7,0c-2.7,0.2-5.4,0.2-8.1-0.2
	c-0.5-0.1-0.6,0-0.5,0.5c0.2,0.9,0.3,1.9,0.4,2.8c0.1,2.6-0.2,5.3-0.8,7.8c-0.3,0.6-0.2,1.3,0.3,1.6c0.5,0.5,1,1.1,1.5,1.7
	c2.1,2.4,2.5,5.8,1,8.5c-0.5,1-0.5,1,0.6,1.2h0.3c1.6,0.1,3.2,0.3,4.7,0.7c2.3,0.6,4.8,0.8,7.2,0.4c2-0.4,4-1.2,5.8-2.3
	C154.5,168.4,156,164.9,155.1,161.7L155.1,161.7z M91.6,139.3c-0.3,0.1-0.6,0.3-0.8,0.6c-1.1,0.8-1.9,2-2.3,3.3
	c-0.4,2.5-1.6,4.8-3.4,6.5c-1.5,1.5-3.1,2.7-4.6,4.2c-0.3,0.2-0.4,0.6-0.3,0.9c0,0.2,0.2,0.5,0.3,0.7c0.6,1.8,1.5,3.5,2.7,4.9
	c2.1,2.1,4.7,3.7,7.6,4.5c4.5,1.5,9.3,1.6,13.8,0.3c0.5-0.1,0.9-0.3,1.3-0.6c1.2-1.5,2.9-2.6,4.9-2.9c0.4-0.1,0.7-0.3,0.9-0.5
	c3.2-3.4,5.1-7.8,5.2-12.5c0.1-1.6-0.1-3.3-0.6-4.8c-0.2-0.9-0.5-1.8-1-2.7v-0.1c0-0.1,0-0.1-0.1-0.1c-0.6-1.5-1.5-2.9-2.7-4.1
	c-3.6-3.2-7.9-4.4-12.6-4.7c-0.4,0-0.5,0.2-0.5,0.5c-0.2,1.1-0.2,2.3,0,3.4c0.1,0.7,0.2,1.3,0.3,2c0,0.5,0.2,0.5,0.7,0.4
	c0.6-0.2,1.3-0.5,1.9-0.8c0.2-0.1,0.5-0.4,0.7-0.1c0.2,0.3-0.1,0.5-0.3,0.7c0,0-0.1,0.1-0.2,0.1c-2,1.5-4.6,1.8-6.9,1
	c-0.7-0.2-1.2-0.5-1.7-1.1c-0.3-0.4-0.7-0.8-0.3-1.2s0.9,0,1.3,0.3c0.4,0.3,0.7,0.8,1.1,0.5s0.3-0.8,0.3-1.2c0.3-1,0.4-2,0.3-3.1
	c-1.1,1.3-2.1,2.5-4,2.1C92.8,137,92.4,138.3,91.6,139.3z M76.4,154.4c1.4,0.1,2.7-0.6,3.6-1.7c1-1.1,2-2,3.2-2.9
	c2-1.5,3.5-3.6,4-6.1c0.5-2,1.7-3.7,3.4-4.9c1.2-0.8,1.6-2.3,1.1-3.6c-0.3-0.8-0.4-0.9-1.3-0.8c-0.1,0-0.3,0.1-0.4,0.1
	c-1.5,0.4-2.9,1.2-4,2.2c-1.2,1.1-2.3,2.2-3.3,3.5c-1.6,1.6-2.9,3.4-4,5.3c-0.7,1.3-1.6,2.5-2.6,3.6c-0.7,0.9-1.3,1.8-1.8,2.9
	c-0.4,0.8-0.5,1.6-0.5,2.5c0,0.2,0,0.5,0.4,0.3C74.8,154.3,75.6,154.1,76.4,154.4z M73.5,153.7c0.2-1.2,0.7-2.4,1.3-3.5
	c1.5-2.2,3-4.6,4.3-6.9c0.6-1.3,1.5-2.5,2.5-3.5c1.3-1.2,2.7-2.3,3.9-3.6c1.2-1.2,2.8-2,4.4-2.3c0.3-0.1,0.8,0,0.9-0.2
	s-0.5-0.5-0.8-0.7c-4-2-8.8-1.1-11.9,2.2c-1.2,1.3-2.2,2.7-3,4.1c-1.6,2.6-2.6,5.5-2.8,8.5C72.2,149.9,72.6,151.9,73.5,153.7
	L73.5,153.7z M140,174.9l-4.4-0.8c-0.3,0-0.4,0.2-0.5,0.3c-3.5,3.7-7,7.5-10.5,11.3c-0.4,0.5-0.7,0.5-1.1,0
	c-1.5-1.7-3.1-3.4-4.7-5.1c-0.2-0.2-0.3-0.4-0.6-0.2c-1.2,0.6-2.5,1-3.8,1.1l9.7,10.4L140,174.9z M99.2,101.3l1.3,2.2
	c1.4,2,3.1,3.9,4.9,5.6c1.5,1.5,2.7,3.2,3.6,5.1c0.3,0.9,1,1.7,1.8,2.2c0.5,0.2,0.7,0.7,0.7,1.2c0,0.5,0.3,1,0.7,1.3
	c0-0.1,0-0.2,0-0.4c-0.1-0.9-0.2-1.9-0.3-2.8c-0.3-2.3-0.1-4.7,0.5-6.9c0.1-0.4,0-0.8-0.3-1.1c-1.1-1.1-2.3-2-3.7-2.7
	C105.7,103.5,102.4,102.8,99.2,101.3L99.2,101.3z M74.4,133.3c0.1,0.1,0.2,0.1,0.3,0c0-0.1,0-0.2-0.1-0.3c-0.1-0.1-0.2-0.2-0.3-0.3
	c-2.3-2.5-4.6-4.9-6.8-7.4c-0.2-0.3-0.5-0.4-0.8-0.2c0,0-0.1,0.1-0.1,0.1c-2.6,1.8-5.2,3.7-7.6,5.8c-0.1,0.1-0.4,0.1-0.3,0.4
	s0.3,0.1,0.5,0.2c0.1,0,0.2,0,0.3,0c2.2,0.2,4.3,0.5,6.5,0.8C68.6,132.7,71.5,133,74.4,133.3L74.4,133.3z M190,131.5
	c-0.1-0.2-0.2-0.3-0.4-0.5c-2.6-2-5.2-4-7.8-5.9c-0.2-0.1-0.4-0.2-0.5,0c-0.5,0.7-1.6,1.1-1.5,2.2c0,0,0,0.1-0.1,0.2
	c-0.4,1.3-1.1,2.5-2.2,3.4c-0.4,0.3-0.4,0.5,0.1,0.7c0.3,0.1,0.5,0.3,0.4,0.6c0,0,0,0,0,0c-0.1,0.5,0.2,0.5,0.5,0.5
	c0.7,0,1.3-0.1,2-0.2c1.7-0.2,3.4-0.4,5.1-0.6L190,131.5z M159.4,148.2c0,1-0.2,2-0.7,2.9c-0.1,0.2-0.1,0.6,0,0.8
	c0.5,0.8,0.8,1.7,0.8,2.7c0,0.3,0.2,0.6,0.5,0.6c0,0,0,0,0.1,0c0.6,0.1,1.3,0.1,1.9,0c2.4-0.6,4.1-2.6,4.4-5
	c0.4-2.8-0.5-4.2-3.1-4.7c-0.4-0.1-0.8,0-1.1,0.3c-0.7,0.6-1.5,1.1-2.4,1.3c-0.3,0-0.4,0.3-0.4,0.5c0,0,0,0,0,0
	C159.5,147.8,159.5,148,159.4,148.2L159.4,148.2z M108.2,114.6c0-0.3-0.2-0.6-0.4-0.9c-1.3-2.2-2.9-4.3-4.8-6.1
	c-1.1-1.2-2.1-2.5-2.9-3.9c-0.3-0.5-0.6-1-0.9-1.6c-0.1,1-0.2,1.9-0.2,2.9c0,1.1,0.2,2.2,0.5,3.2c0.2,0.6,0.1,1.3,0.8,1.8
	c1.1,0.6,2.2,1.3,3.4,2C105.2,112.7,106.7,113.6,108.2,114.6L108.2,114.6z M126.5,145.3l-0.5,0.5c-1.5,1.4-2.6,3.2-3.2,5.2
	c-0.8,2.7-1.6,5.3-2.5,8c-1,2.9-2.1,5.7-5,7.3c-0.2,0.1-0.2,0.3,0,0.4c0.5,0.5,1.2,0.7,1.9,0.7c0.3-0.1,0.4-0.2,0.2-0.5
	c-0.2-0.3,0-0.7,0.2-1c1.1-1.3,2-2.8,2.5-4.5c1.3-3.6,2.4-7.2,3.5-10.8c0.4-1.6,1.3-3.1,2.7-4.1C126.9,146.2,127,145.9,126.5,145.3
	L126.5,145.3z M128.4,144.8l0.3-0.1c0.3-0.1,0.9,0,0.9-0.4c0-0.4-0.5-0.7-0.9-0.8c-0.2-0.1-0.4-0.1-0.6-0.2c-0.2,0-0.3,0-0.4,0.2
	c-0.3,0.8-0.2,1.8,0.3,2.5c0.6,0.5,1,1.1,1.2,1.8c0.7,2.3,0.8,4.6,0.3,7c-0.3,1.9-0.8,3.8-1.3,5.6c-0.1,0.4-0.4,0.8-0.7,1
	c-0.5,0.3-0.5,0.5-0.1,0.9c0.3,0.2,0.6,0.3,0.9,0.4c0.5,0.1,0.7-0.1,0.6-0.6c-0.2-0.5-0.2-1,0-1.5c0.4-1.3,0.7-2.7,1.1-4.1
	c0.8-2.9,0.8-5.9,0.2-8.8c-0.1-0.7-0.2-1.3-1.1-1.5c0,0-0.1-0.1-0.2-0.2c0.3,0,0.5-0.1,0.7-0.1c0.2,0,0.3-0.1,0.3-0.3
	c0-0.2-0.2-0.2-0.3-0.2C129.1,145.2,128.7,145,128.4,144.8L128.4,144.8z M97.3,137.5c0,0.2,0,0.4,0,0.6c-0.1,0.6,0.3,0.7,0.7,0.6
	s0.8,0,0.7-0.7c-0.2-2.4-0.6-4.9,0.3-7.3c0.1-0.3,0-0.6-0.3-0.8c-0.2-0.1-0.5-0.3-0.7-0.5c-0.6-0.3-0.9-0.2-1.2,0.4
	c-0.3,0.9-0.8,1.8-1.3,2.6c-0.8,1.2-1.6,2.3-3.2,1.7c-0.1,0-0.3,0-0.3,0.1c0,0.1,0,0.3,0.1,0.3c0.6,0.5,1.4,0.6,2.2,0.3
	c0.5-0.3,1-0.6,1.3-1.1c0.5-0.6,1-1.3,1.3-2c0.1-0.3,0.2-0.7,0.7-0.5c0.4,0.2,0.1,0.6,0,0.8c-0.1,0.2-0.2,0.4-0.1,0.6
	C97.6,134.2,97.5,135.9,97.3,137.5L97.3,137.5z M158.2,154.9c0-0.5-0.1-1.1-0.3-1.6c-0.1-0.4-0.3-0.6-0.7-0.2
	c-0.7,0.8-1.7,1.3-2.7,1.5c-0.4,0.1-0.4,0.3-0.3,0.7c0.3,1.3,1.2,2.3,1.6,3.5c0.1,0.3,0.3,0.2,0.5,0
	C157.4,157.9,158.1,156.5,158.2,154.9L158.2,154.9z M74.2,138.3c0.6-1,1.3-2,2-3l-5.3-0.6L74.2,138.3z M147.4,146.9
	c0.2,0.1,0.3-0.1,0.5-0.4c0.3-0.7,0.8-1.3,1.3-1.8c0.2-0.2,0.5-0.2,0.4-0.5c-0.1-0.3-0.4-0.3-0.6-0.4c-1.7-0.4-3.5,0-4.8,1
	c-0.3,0.2-0.1,0.3,0,0.5C145,146.3,146.2,146.9,147.4,146.9L147.4,146.9z M90.9,132.7c0.6,1.1,1.6,0.8,2.4,0.8
	c0.8,0.1,1.1-0.8,1.6-1.4C93.6,132.2,92.2,132.4,90.9,132.7z M103.4,169.7l0.6-2.2l-2.2,0.5L103.4,169.7z"/>
<path class="st1" d="M89.4,106.5c-1.5,0-3.1,0-4.6,0c-3,0.1-5.9,0.8-8.6,2.1c-1.2,0.6-2,1.8-3.1,2.5c-1.6,0.9-1.9,2.5-2.4,4
	c-5.9,3.4-11.5,7.4-16.6,11.9l-5.4-6.7l-11.5-14.4l-7.8-9.7c0-0.1-0.1-0.1-0.1-0.2c21.5-18.3,47.9-30.1,76-33.7
	c6.2-0.8,12.5-1.2,18.8-1.2c4.9,0,9.8,0.2,14.6,0.7c5.3,0.5,10.6,1.3,15.8,2.4c23.9,5,46.1,16,64.7,31.8c-1.3,1.6-2.5,3.2-3.8,4.8
	c-2.5,3.2-5.1,6.3-7.6,9.5l-9.1,11.5l-4.2,5.2c-3.1-2.7-6.4-5.3-9.8-7.6c-2.2-1.6-4.6-3-7-4.4c-0.3-1.1-0.3-1.1-1.6-1h-0.2
	c-0.2-0.1-0.3-0.3-0.5-0.4c-3.6-1.9-7.3-3.7-11.1-5.2c-2.2-0.9-4.4-1.7-6.7-2.4c-1.8-1.4-4-2-6.2-1.8c-1.1-0.4-2.3-0.6-3.4-0.8
	c-1-0.9-2.3-1.5-3.6-1.8c-0.4-0.1-0.7-0.3-0.6-0.8c0-0.9-0.3-1.8-1-2.4c-0.5-0.5-0.9-1.2-1.4-1.7c-1.1-0.8-2.7-0.8-3.8,0
	c-1,0.9-1.8,2-2.3,3.3l-0.4,1.1c-3-0.3-6-0.5-9.1-0.5c-3.6,0-7.1,0.1-10.7,0.4c-3.1,0.3-6.1,0.7-9.1,1.2c-2.4-0.6-4.6-1.6-6.7-2.9
	c-0.2-0.3-0.6-0.3-1-0.2c-0.4,0.2-0.3,0.5-0.3,0.9c0.1,1.3,0.1,2.7-0.2,4C94.9,104.7,92.1,105.5,89.4,106.5z M43,95.8
	c0.7,0,0.9,0.6,1.3,1.1l10,15.4c0.9,1.3,0.8,1.5-0.4,2.4c-1.3,0.9-1.2,0.9-0.3,2.1c0.1,0.3,0.5,0.4,0.8,0.2c0.1,0,0.1-0.1,0.2-0.2
	c2.7-2.1,5.5-4.1,8.4-5.9c0.2-0.1,0.3-0.4,0.2-0.6c0,0,0-0.1-0.1-0.1c-0.8-1.4-0.9-1.5-2.2-0.6l-0.2,0.1c-0.7,0.5-1,0.4-1.5-0.3
	c-1.5-2.4-3.1-4.8-4.6-7.1c-0.2-0.3-0.2-0.7,0-0.9c0.1,0,0.1-0.1,0.2-0.1l4.5-3c0.3-0.3,0.7-0.2,0.9,0c0.1,0.1,0.1,0.1,0.1,0.2
	c1.3,2.4,2.8,4.9,4.2,7.3c0.5,1,0.5,1.1-0.5,1.7c-1.2,0.8-1.2,0.6-0.4,1.9c0.3,0.5,0.6,0.6,1.1,0.3c2.7-1.7,5.3-3.2,8.2-4.6
	c0.8-0.4,0.8-0.5,0.4-1.3c-0.6-1.1-0.6-1.1-1.7-0.5c-1.5,0.8-1.5,0.8-2.4-0.7l-9.1-15.6c-1-1.7-1-1.7,0.7-2.7s1.2-0.8,0.5-2
	c-0.4-0.7-0.5-0.7-1.2-0.3l-8.3,4.8c-1.4,0.8-1.3,0.6-0.5,2.2c0.1,0.3,0.4,0.4,0.7,0.3c0.1,0,0.1,0,0.1-0.1l1.3-0.8
	c0.3-0.2,0.7-0.2,0.9,0.1c0,0,0.1,0.1,0.1,0.1c0.1,0.2,0.3,0.4,0.4,0.7c1,1.8,2,3.6,3,5.3c0.4,0.7,0.3,0.9-0.3,1.3l-4.2,2.8
	c-0.9,0.6-1.2,0.6-1.8-0.4c-1.1-1.7-2.1-3.4-3.2-5.1c-0.8-1.3-0.8-1.3,0.5-2.2l0.1-0.1c1.4-0.9,1.2-0.8,0.4-2
	c-0.3-0.5-0.6-0.5-1-0.2c-1,0.7-2,1.3-3,2.1c-2,1.3-3.9,2.7-5.9,4.1c-0.5,0.3-0.5,0.6-0.2,1.1c1,1.4,0.6,1.3,2,0.4l0.5-0.3
	C42.2,95.9,42.6,95.8,43,95.8L43,95.8z M200.2,98.5c-0.3-0.7-0.6-1.3-1.1-1.8c-2.4-2.8-6.6-3.3-9.6-1.2c-2.5,1.7-4.4,4-5.5,6.8
	c-1,1.9-1.3,4-1,6.1c0.1,0.9,0.7,1.7,1.5,2.1c1.6,0.9,3.3,1.4,5.1,1.6c0.5,0,0.6,0.2,0.4,0.6c-0.4,0.8,0,1.3,0.7,1.8
	c1.1,0.7,2.1,1.6,3.2,2.4c1.1,0.8,1.1,0.8,1.9-0.3c0.2-0.2,0.2-0.6,0-0.8c0-0.1-0.1-0.1-0.2-0.1c-1-0.8-1-0.9-0.2-1.9
	c4.5-6,8.9-12,13.4-18c0.4-0.5,0.3-0.8-0.2-1.1c-1.7-1.1-3.4-2.2-5-3.3c-1.1-0.7-1.3-0.7-2,0.5c-0.2,0.2-0.1,0.5,0.1,0.7
	c0,0,0,0,0.1,0l1.2,1c0.3,0.2,0.4,0.6,0.2,0.9c0,0,0,0.1-0.1,0.1L200.2,98.5z M122.2,93.2v-0.1h0.5c1.1,0,2.2,0,3.3,0
	c0.6,0,0.8-0.2,0.7-0.7c0-0.2,0-0.3,0-0.5c0.1-0.6-0.1-0.9-0.8-0.8c-1,0-1.1-0.1-1.3-1.1c0-0.2,0-0.4,0-0.6
	c-0.1-3.3-0.2-6.7-0.3-9.9c0-1.6-0.5-3.2-1.4-4.5c-0.6-0.9-1.6-1.4-2.6-1.3c-2.2,0.1-4.3,0.8-6.2,1.9c-0.3,0.2-0.5,0.1-0.6-0.2
	c-0.1-0.3-0.2-0.3-0.3-0.5c-0.1-0.4-0.5-0.7-1-0.6c0,0-0.1,0-0.1,0c-1.8,0.3-3.7,0.6-5.5,0.9c-0.4,0-0.6,0.3-0.5,0.7s0,0.5,0.1,0.8
	c0.1,0.3,0.2,0.6,0.7,0.6h0.4c0.9,0,1.2,0.1,1.3,1c0.2,1.2,0.3,2.4,0.4,3.6c0.3,3.1,0.6,6.1,0.9,9.2c0.1,0.9,0,1-1,1.2
	c-0.3,0-0.6,0-0.7,0.3c-0.1,0.5-0.1,1,0.1,1.5c0.1,0.4,0.6,0.2,0.9,0.2c2.2-0.3,4.4-0.5,6.7-0.7c1.2-0.1,1.3,0.2,1.1-1.3
	c0-0.5-0.3-0.7-0.8-0.7c-0.9,0.1-1.1-0.1-1.2-1c-0.3-3.4-0.6-6.9-0.9-10.3c-0.2-1.9,0-2.1,1.9-2.7h0.2c1-0.5,2.2-0.1,2.7,0.9
	c0.1,0.2,0.2,0.4,0.2,0.6c0.1,0.3,0.2,0.6,0.2,0.9c0.2,3.5,0.3,7,0.4,10.5c0,0.6-0.2,0.9-0.8,0.9c-0.9,0-1,0-0.9,1.1
	c0,0.1,0,0.2,0,0.3c0,0.4,0.2,0.6,0.7,0.6C119.7,93.2,120.9,93.2,122.2,93.2L122.2,93.2z M92.7,82.3c0-0.4,0.2-0.7,0.5-1
	c0.6-0.5,1.4-0.9,2.1-1.2c0.4-0.2,1-0.1,1.3,0.2c0.9,0.7,1.4,1.7,1.6,2.8c0.7,3,1.3,6,1.9,9.1c0.2,1.2,0.2,1.3-0.9,1.5
	c-0.5,0.1-0.6,0.3-0.5,0.8c0.1,0.2,0.1,0.4,0.1,0.6c0.1,0.5,0.3,0.7,0.9,0.6c2.2-0.5,4.4-0.9,6.6-1.2c1.3-0.2,1.3-0.2,1.1-1.4
	c-0.1-0.5-0.3-0.7-0.8-0.6c-1,0.2-1.1,0.1-1.3-0.9c-0.7-3.3-1.3-6.5-2-9.8c-0.2-1.6-0.9-3.2-2-4.4c-0.7-0.9-1.9-1.4-3-1.2
	c-2.1,0.5-4.1,1.4-5.8,2.8c-0.3,0.3-0.5,0.4-0.7-0.1c0-0.1-0.2-0.2-0.3-0.4c-0.3-0.6-0.7-0.6-1.3-0.4c-1.6,0.7-3.3,1.3-5,2
	c-0.6,0.3-0.7,0.5-0.4,1.3c0.3,0.8,0.4,0.9,1.2,0.6s1.1-0.2,1.3,0.6c0.1,0.2,0.2,0.4,0.2,0.6c1.1,3.8,2.2,7.6,3.2,11.5
	c0.3,1.1,0.2,1.2-0.8,1.5c-0.6,0.2-0.7,0.5-0.5,1.1c0,0.1,0,0.2,0.1,0.3c0.3,0.8,0.3,0.8,1.1,0.6c2.1-0.7,4.3-1.3,6.5-1.8
	c1.3-0.3,1.3-0.1,0.9-1.6c-0.1-0.4-0.3-0.5-0.8-0.4c-1,0.2-1.1,0.1-1.4-0.9c-0.7-2.8-1.5-5.6-2.2-8.4L92.7,82.3z M136.6,74.2
	c-2.1,0-4.3,0.2-6.3,0.6c-0.4,0-0.6,0.3-0.7,0.7c-0.3,1.1-0.2,2.2,0.1,3.3c0.4,1.3,1.2,1.6,2.3,1c0.3-0.1,0.5-0.3,0.7-0.5
	c0.6-0.6,1.1-1.3,1.3-2.1c0-0.2,0.1-0.4,0.3-0.5c1-0.6,2.3-0.3,2.9,0.8c0.1,0.2,0.2,0.4,0.2,0.6c0,0.1,0.1,0.3,0.1,0.4
	c0.1,1,0.1,2,0,3.1c0,0.5-0.2,0.6-0.6,0.5c-1.8-0.2-3.7-0.1-5.4,0.5c-3.2,1-5,4.3-4.1,7.5c0.3,0.9,0.7,1.6,1.3,2.3
	c0.6,0.7,1.5,1.1,2.4,1c1.6,0,3.1-0.4,4.5-1c0.5-0.2,0.7-0.2,0.8,0.4c0.1,0.6,0.5,0.9,1.2,1c1.5,0.1,2.9,0.4,4.3,0.6
	c0.9,0.1,0.9,0.1,1.1-0.8c0-0.2,0-0.3,0-0.5c0-0.4-0.1-0.6-0.6-0.7c-1-0.2-1-0.2-0.9-1.2c0.3-2.3,0.6-4.6,0.9-6.9
	c0.3-1.9,0.5-3.8,0.5-5.6c-0.1-2.3-1.9-4.2-4.3-4.4C138,74.2,137.2,74.2,136.6,74.2z M72.9,88.2c0.1-0.3-0.2-0.8,0.1-1.1
	c1.2-1.2,1.7-1.3,3.1-0.3c0.9,0.8,1.6,1.9,1.9,3.1c0.2,0.4,0.1,0.6-0.3,0.8c-1.7,0.7-3.3,1.8-4.6,3.1c-2.3,2.1-2.5,5.8-0.4,8.1
	c0.3,0.3,0.6,0.5,0.9,0.8c1.3,1.1,3.2,1.3,4.6,0.3c1.2-0.7,2.3-1.7,3.3-2.8c0.3-0.4,0.6-0.4,0.9,0c0.3,0.4,0.6,0.6,1.2,0.4
	c1.6-0.6,3.2-1.2,4.8-1.7c0.2,0,0.4-0.1,0.4-0.3c0-0.5-0.2-1-0.5-1.5c-0.2-0.4-0.6-0.1-0.9,0c-0.4,0.2-0.9,0-1.1-0.4
	c0,0,0-0.1-0.1-0.1c-0.1-0.2-0.2-0.5-0.3-0.7c-0.9-2.4-1.9-4.8-2.8-7.2c-0.5-1.4-1.1-2.7-1.9-4c-1.3-2-3.9-2.8-6.1-1.6
	c-0.9,0.5-1.7,0.9-2.6,1.3c-1.4,0.8-2.8,1.9-4,3c-0.3,0.3-0.6,0.5-0.5,1c0.2,1.3,0.9,2.5,1.9,3.3c0.4,0.5,1.2,0.5,1.6,0
	c0.1-0.1,0.1-0.1,0.2-0.2C72.6,90.6,73,89.4,72.9,88.2z M163.4,100c2.1,0.1,4.1-0.7,5.7-2.1c2.2-2.2,3.7-5,4.2-8
	c1.1-3.7-0.9-7.5-4.5-8.7c-4.6-2.1-8.6-0.8-11,3.6c-1.2,2.1-1.9,4.4-2.2,6.8c-0.4,2.1,0.3,4.3,1.9,5.8
	C159.1,98.9,161.2,99.8,163.4,100L163.4,100z M161.5,72.4c0-0.3-0.1-0.5-0.5-0.8c-1.3-0.8-2.9-1.2-4.4-1c-3.2,0.3-5.7,1.7-6.9,4.8
	c-0.3,0.8-0.6,0.8-1.2,0.6c-1.6-0.4-1.3-0.3-1.6,1c-0.2,0.7-0.1,0.8,0.7,1c0.3,0.1,0.6,0.2,0.9,0.2c0.5,0,0.5,0.2,0.4,0.7
	c-0.5,2.4-1,4.8-1.6,7.1l-1.3,6.2c-0.1,0.5-0.3,0.8-0.9,0.7c-0.9-0.2-0.9-0.2-1.1,0.8c0,0.1-0.1,0.3-0.1,0.4c-0.1,0.4,0,0.7,0.5,0.8
	c0.9,0.2,1.8,0.3,2.8,0.5c1.9,0.4,3.9,0.9,5.8,1.3c0.6,0.1,0.9,0,0.9-0.6c0-0.2,0.1-0.4,0.1-0.6c0.1-0.4,0-0.7-0.5-0.7
	s-1.1-0.2-1.7-0.4c-0.5-0.1-0.9-0.4-0.7-1.1c1-4.5,1.9-8.9,2.9-13.4c0.1-0.3,0.2-0.5,0.6-0.4c0.8,0.2,1.6,0.3,2.4,0.5
	c0.6,0.1,1,0.1,1-0.6c0-0.3,0.1-0.5,0.2-0.8c0.1-0.4,0-0.6-0.4-0.7l-1.5-0.3c-1.9-0.4-1.9-0.4-1.3-2.2c0.2-0.7,0.5-1.4,1.1-1.9
	c0.3-0.3,0.6-0.4,0.8,0.2c0.2,0.8,0.7,1.6,1.3,2.1c0.4,0.5,1.1,0.6,1.6,0.1c0.1-0.1,0.2-0.2,0.3-0.3
	C160.9,74.8,161.4,73.6,161.5,72.4z M183.9,88.4c0-0.3-0.1-0.4-0.4-0.5l-5.5-2.3c-0.2-0.1-0.5-0.1-0.7,0.1c-0.8,0.9-0.7,1.5,0.3,2
	l0,0c0.8,0.4,0.9,0.6,0.5,1.3c-0.8,1.6-1.6,3.2-2.4,4.7c-1.1,2.2-2.3,4.5-3.4,6.7c-0.4,0.8-0.6,0.9-1.4,0.5l-0.3-0.1
	c-0.4-0.3-0.7-0.1-0.9,0.3l-0.2,0.5c-0.3,0.7-0.3,0.8,0.4,1.1c2.5,1.1,4.9,2.3,7.3,3.6c1.1,0.6,1.1,0.9,1.8-0.6
	c0.2-0.2,0.1-0.6-0.1-0.7c-0.1,0-0.1-0.1-0.2-0.1c-0.4-0.2-0.8-0.4-1.2-0.6c-1-0.5-1-0.7-0.6-1.6l4.7-9.1c0.2-0.4,0.4-0.8,0.7-1.1
	c0.4-0.3,1-0.4,1.5-0.1c0.5,0.1,0.6,0.5,0.6,0.9c0.1,0.6,0.3,1.1,0.6,1.6c0.6,0.8,1,0.9,1.9,0.5c1.2-0.7,2-1.7,2.5-3
	c0.3-0.5,0.2-1.1-0.3-1.5c-0.1-0.1-0.2-0.1-0.3-0.2c-0.9-0.4-1.8-0.7-2.8-0.7c-0.8,0-1.6,0-2.4,0.1c-0.4,0.1-0.5,0-0.4-0.4
	S183.8,88.7,183.9,88.4L183.9,88.4z"/>
<path class="st1" d="M99.4,135.9c-0.2-1.1-0.2-2.3,0-3.4c0-0.3,0.1-0.5,0.5-0.5c4.7,0.3,9,1.4,12.6,4.7c1.2,1.1,2.1,2.5,2.7,4.1
	l0.1,0.1v0.1c0.1,0.7,0.3,1.3,0.5,1.9c0.6,2.4,0.7,4.8,0.4,7.2c-0.3,2.4-1.3,4.7-2.8,6.5c-1,1.1-2.1,2.1-3.4,2.8
	c-2.6,1.6-5.5,2.5-8.5,2.7c-1.6,0.2-3.1,0.2-4.7,0c-1.2-0.2-2.4-0.3-3.6-0.6c-1.8-0.5-3.5-1.2-5.1-2.1c-2.4-1.3-4.1-3.5-4.8-6.1
	c-0.3-1.1-0.1-1.5,0.9-2.2c2.5-1.5,4.3-4,4.8-6.9c0.2-1.4,0.8-2.7,1.7-3.9c0.4-0.3,0.6-0.7,0.7-1.2c0.9-1,1.2-2.4,1-3.7
	c1.9,0.5,2.9-0.7,4-2.1c0.1,1,0,2.1-0.3,3.1c-0.7-0.1-1.4-0.3-2.2-0.4c-0.5-0.1-0.9,0.1-1.1,0.6c-0.2,0.4-0.2,0.9,0,1.3
	c0.5,0.7,1.1,1.2,1.9,1.5c1.7,0.7,3.6,0.8,5.3,0.3c1.3-0.3,2.5-1,3.4-1.9c0.4-0.3,0.4-0.9,0.1-1.3c-0.5-0.6-1.3-0.9-2-0.9
	C101,135.8,100.2,135.8,99.4,135.9z M104.8,142.7c0.8,0.1,1.6-0.2,2.3-0.6c0.2-0.2,0.6-0.3,0.5-0.7c-0.1-0.4-0.4-0.6-0.8-0.7
	c-0.2,0-0.4,0-0.6,0c-1,0.3-2,0.6-3.1,0.9c-0.2,0.1-0.4,0.2-0.4,0.5s0.3,0.4,0.5,0.4L104.8,142.7z"/>
<path class="st2" d="M124.9,133.8l-4.6,0.6c-2.3,0.2-4.7,0.1-7-0.2l-1-0.1c0.4,0.4,1,0.7,1.7,0.7c1.7,0,3.3,0.3,5,0.4
	c2,0.1,4,0,5.9-0.3c1.6-0.2,3.1-0.3,4.7-0.2c0.3,0.6,0.7,1.1,1.2,1.5c0.9,0.6,1.9,1.2,2.8,1.8c1.2,0.8,2.7,1.5,3.3,2.9
	c-1.6-0.5-3.2-1-4.8-1.4c-3.1-0.8-6.3-0.6-9.3,0.6c-1,0.4-1.9,1.1-2.7,1.9c-0.3,0.2-0.3,0.6-0.1,0.8c0.1,0.1,0.2,0.2,0.3,0.2
	c0.3,0.2,0.6,0.3,1,0.3c0.9,0.4,2,0.6,3,0.4c0.9-0.2,1.8-0.3,2.8-0.3c0,0.4-0.1,0.7-0.5,0.9c-0.7,0.9-2,1-2.9,0.3c0,0,0,0,0,0
	c0.4,0.5,0.9,0.5,1.3,0.9c-2.3,1.8-2.7,4.5-3.5,7.1l-0.3,0.9c-0.5-0.7-1.3-1.1-1.8-1.8c0.1-1.4,0.1-2.9,0-4.4
	c-0.1-2.9-1.1-5.7-2.8-8c-0.3-0.3-0.5-0.8-0.9-0.9l0,0c0-0.1,0-0.2-0.1-0.1c-1.9-2.6-4.5-4.7-7.6-5.9c-2.4-0.9-4.9-1.5-7.5-1.7
	c-0.5,0-1,0-0.5-0.7c0.1-0.2,0.1-0.5-0.1-0.5c-0.8-0.3-1.5-0.7-2.3-1.1c-1-0.3-1.3-0.2-1.5,0.8c-0.1,0.5,0,1.1-0.4,1.3
	c-0.5,0.2-1,0.2-1.5,0.2c-1.5,0.2-3.1,0.4-4.6,0.8c-0.5-0.6-1.2-0.9-1.9-1c-1.1-0.1-1.1-0.3-1.2-1.3c0-0.4-0.3-0.4-0.6-0.5
	c-0.5-0.1-1-0.2-1.5-0.3c-0.6,0-0.9-0.3-1-0.9c0-0.3-0.3-0.6-0.6-0.8c-0.8-0.6-1.7-1.1-2.7-1.4l0.7-0.5c0.8-0.5,0.8-0.8,0.1-1.4
	c-0.6-0.5-1.1-1.1-1.5-1.8c-0.4-0.8-0.8-1.6-1.3-2.3c-0.2-0.2-0.5-0.4-0.5-0.7c-0.1-0.9-0.3-1.8-0.5-2.7c-0.2-0.8,0-1.7,0.4-2.4
	c1.1-1.9,3.1-3.1,5.3-3.3c2.8-0.6,5.8-0.7,8.7-0.3c0.4,0.1,1.1,0,1.2,0.4c0.2,0.7,0.7,0.7,1.2,0.7c2.1-0.1,3.8,1,5.6,1.8
	c1.4,0.6,2.7,1.5,4.1,2.2c1,0.5,1.9,1.1,2.8,1.7c0.2,0.1,0,0.2,0,0.2c-1.6-0.5-3.2-1-4.9-1.4c-3.2-0.9-6.6-0.5-9.5,1.1
	c-1.2,0.6-2.2,1.5-2.8,2.7c-0.3,0.3-0.2,0.8,0.1,1.1c0.1,0,0.1,0.1,0.2,0.1c0.1,0.1,0.2,0.1,0.3,0h0.3c0,0.2,0.1,0.3,0.3,0.3
	c0.5,0.4,0.9,0,1.4,0c1.3,0,2.5-0.7,3.8-0.7s2.7-0.5,4-0.4c0.8,0.1,1.5,0.2,2.3,0.1c0.6-0.1,1.2-0.1,1.8-0.1c1.3,0,2.6,0.4,3.6,1.3
	c0.3,0.2,0.5,0.4,0.8,0.6c-1.5,0.3-3,0.5-4.6,0.5c-3.3,0.1-6.6-0.1-9.9-0.7c-0.2,0-0.4-0.1-0.6,0l0,0l0,0c1.5,0.6,3,1,4.6,1.1
	c4.7,0.5,9.4,0.5,14-0.2c0.3-0.1,0.7-0.1,1,0c0.2,0.2,0.5,0.3,0.8,0.3c1,0.3,1.9,0.8,2.8,1.3c2.1,1.2,4.1,2.5,6,4.1
	c0.1,0.1,0.3,0.2,0.3,0.5l-0.5-0.1h-0.3c-0.4-0.4-0.8-0.6-1.3-0.6c-1-0.2-2-0.4-3-0.6c-2-0.4-4-0.6-6.1-0.4
	c-1.6,0.1-3.2,0.6-4.6,1.5c-0.4,0.3-0.9,0.6-1.1,1.2l0,0c-0.1,0-0.1,0-0.1,0.1l0,0c-0.1,0-0.2,0-0.3,0.2v0.2
	c-0.4,0.3-0.2,0.5,0.1,0.7c0.3,0.2,0.6,0.2,1,0.2c0.8,0.3,1.7,0.4,2.6,0.4l3.3-0.1c2-0.1,4,0,6,0.2c2.1,0.1,4.1,0.6,5.9,1.6
	C124.4,133.5,124.8,133.4,124.9,133.8z"/>
<path class="st3" d="M32.8,103.6l10.9,13.6l10,12.4c0.7,0.8,1.4,1.7,2,2.6c0.5,0.8,1.4,1.2,2.3,1.2c0.6,0,1.3,0.1,1.8,0.3
	c-0.1,0-0.2,0.1-0.2,0.1c-4.4,0.4-8.9,0.8-13.4,1.3c-5,0.5-10,1.1-15,1.8c-1.7,0.2-3.4,0.5-5.1,0.6c0.5-1.7,1-3.3,1.5-5
	c1.4-4.3,2.8-8.5,4.2-12.8c0.1-0.3,0-0.5-0.2-0.7L27,112l-4.6-7l5.6-0.7L32.8,103.6z"/>
<path class="st3" d="M188.9,133.6c0.6-0.2,1.2-0.3,1.8-0.3c0.7,0,1.4-0.4,1.9-0.9c3-3.8,6.1-7.6,9.1-11.4l11.2-13.9
	c0.9-1.1,1.9-2.2,2.8-3.3c1.7,0.2,3.3,0.4,5,0.6c1.9,0.2,3.8,0.5,5.7,0.8c-0.7,1.1-1.4,2.3-2.1,3.3c-2.3,3.5-4.6,6.9-6.9,10.4
	c-0.2,0.3-0.3,0.7-0.1,1c1.1,3.3,2.1,6.6,3.2,9.9c0.6,2,1.3,4,1.9,5.9c0.2,0.6,0.4,1.2,0.5,1.8l-0.9-0.1c-5-0.7-10.1-1.3-15.1-1.9
	c-4.5-0.5-8.9-1-13.4-1.4C191.9,133.9,190.4,133.8,188.9,133.6z M200.4,130.8c0-1.2-0.9-2.1-2.1-2.1c-1.2,0-2.1,1-2.1,2.1
	c0,1.2,0.9,2.1,2.1,2.1C199.5,132.9,200.4,131.9,200.4,130.8L200.4,130.8z"/>
<path class="st4" d="M28.2,94.7c-0.5-0.5-0.9-1-1.3-1.6c-0.3-0.4,0-0.5,0.2-0.7c1.5-1.3,3.1-2.5,4.7-3.8c4.8-3.7,9.7-7.1,14.9-10.2
	c6.8-4.1,14-7.6,21.4-10.6c7.2-2.9,14.6-5.2,22.2-7c4.7-1.1,9.5-1.9,14.4-2.6c5.3-0.7,10.7-1.1,16-1.2c4.9-0.1,9.8,0,14.7,0.3
	c5.1,0.4,10.2,1,15.3,1.9c7.4,1.3,14.8,3.2,21.9,5.6c4.9,1.6,9.7,3.6,14.4,5.7c5.2,2.4,10.3,5.1,15.2,8c5.8,3.5,11.4,7.4,16.6,11.7
	c0.9,0.7,1.8,1.5,2.8,2.3c0.3,0.2,0.3,0.4,0.1,0.7c-0.5,0.5-0.9,1-1.3,1.5c-2.3-2-4.6-3.8-7-5.6C160.6,49.8,88.5,49.6,35.7,88.7
	C33.1,90.6,30.7,92.7,28.2,94.7z"/>
<path class="st5" d="M155.8,115.1c-0.4,0.7-0.8,1.5-1.2,2.3c-0.2,0.4-0.4,0.4-0.7,0.1c-0.9-0.8-0.9-0.8-1.2,0.4
	c-0.5,1.4-0.7,2.9-0.8,4.3c0,0.4-0.1,0.5-0.5,0.4c-0.4-0.1-0.8-0.1-1.2-0.1c-0.1-0.4-0.3-0.9-0.5-1.2c-1-0.9-2.4-1-3.5-0.2
	c-0.9,0.7-1.5,1.6-1.9,2.6c-1.3,2.4-1.3,5.2-2.3,7.8c-1.1-0.3-2.3-0.3-3.5-0.1c-1.4,0.4-2.6,1.1-3.6,2.2c0-0.6-0.1-1.2-0.1-1.8
	c-0.1-1.3-0.3-2.7-0.5-4c-0.6-2.6-1.5-5.2-2.7-7.6c-0.7-1.4-1.1-3-1-4.6c0.1-1.5,1-2.9,2.5-3.4c1.5-0.5,3-0.6,4.5-0.5
	c2,0.1,3.9-0.3,5.8-1.1c0.5-0.2,1.1-0.3,1.4-0.8c0.2-0.1,0.5-0.2,0.6-0.4c0,0,0.1,0,0.1-0.1l0,0c-0.5,0-1.1,0-1.6,0.2
	c0.7-0.8,0.6-1-0.1-1.6c-0.7-0.6-1.6-1-2.5-1.1c-0.6-0.1-0.8-0.4-0.8-1c0-0.3,0.1-0.7,0.2-1c0-0.4,0.4-0.6,0.7-0.6c0,0,0,0,0,0
	c1.8,0.1,3.6,0.8,4.9,2.2c0.4,0.4,0.5,1.1,0.3,1.6c-0.1,0.2-0.3,0.4-0.1,0.6c0.2,0.3,0.5,0.2,0.8,0.1c0.9-0.3,1.8-0.6,2.7-0.7
	c2.6-0.7,5.3,0.9,6,3.5c0.1,0.4,0.2,0.9,0.2,1.3C156,113.6,155.8,114.3,155.8,115.1z M135.7,116.5L135.7,116.5h0.5
	c1.3,0,2.5-0.4,3.5-1.2c0.3-0.2,0.5-0.4,0.4-0.8s-0.4-0.4-0.7-0.4c-0.4,0-0.7,0-1.1,0.2c-0.8,0.4-1.8,0.4-2.7,0.1
	c-0.3-0.1-0.6-0.2-0.9-0.2c-0.7-0.1-1.4,0.3-1.6,0.9c-0.1,0.7,0.2,1.1,1.1,1.3C134.7,116.5,135.2,116.5,135.7,116.5L135.7,116.5z"/>
<path class="st6" d="M28.2,94.7c2.5-2,5-4,7.5-6c52.7-39.2,124.9-39,177.5,0.4c2.4,1.8,4.8,3.7,7,5.6c-0.3,0.5-0.6,0.9-1,1.2
	C192.6,73.4,158.9,61,124,61c-6.3,0-12.6,0.4-18.9,1.2c-28.1,3.6-54.5,15.3-76,33.7C28.8,95.6,28.4,95.1,28.2,94.7z"/>
<path class="st5" d="M126.5,129.8c-0.4-1.2-1.1-2.2-2.2-2.8c-0.8-0.5-1.5-1-2.3-1.5c-1.7-1.1-3.2-2.3-4.8-3.5
	c-0.3-0.6-0.5-1.1-0.8-1.7c-1.3-3.1-1.6-6.5-1-9.8c1-4.3,5-7.3,9.5-6.8c1.4,0.2,2.8,0.8,4,1.6c0.7,0.6,1.6,1,2.6,1.2
	c0.2,0,0.4,0.1,0.5-0.1c0.1-0.2-0.1-0.3-0.3-0.4c-0.2,0-0.3-0.3-0.3-0.5c0.5-0.5,1.2-0.7,1.9-0.7c-0.2,0.9-0.7,1.7-1.5,2.3
	c-0.7,0.1-1.4,0-2.1,0.1c-0.7,0.1-1.3-0.1-1.6,0.7l-0.6-0.2c-1.2-1.2-2.7-1.8-4.4-1.8c-0.4,0-0.4,0.3-0.3,0.5
	c0.2,0.6,0.6,1.1,1.2,1.5c1.1,0.6,2.3,1.1,3.6,1.4c0.8,0.2,1.6,0.6,2.2,1.1c0.3,0.3,0.3,0.4-0.1,0.5c-0.5,0.1-1,0.4-1.4,0.7
	c-1.1,1-1.5,2.6-1.1,4c0.2,1.6,0.4,3.2,0.5,4.8C127.7,123.5,127.4,126.7,126.5,129.8z M125.3,112.3c0.7,0.1,0.9-0.4,1.1-0.9
	c0.2-0.4,0-0.9-0.5-1.1c0,0,0,0-0.1,0c-0.5-0.3-1.1-0.4-1.6-0.4c-0.5,0-1,0.3-1.2,0.8c-0.1,0.2-0.2,0.4,0.1,0.6
	C123.8,111.8,124.5,112.1,125.3,112.3L125.3,112.3z"/>
<path class="st2" d="M130.4,158.3c0.6-2.6,0.9-5.2,0.8-7.8c0-1-0.1-1.9-0.4-2.8c-0.1-0.5,0-0.6,0.5-0.5c2.7,0.3,5.4,0.4,8.1,0.2
	c1.2,0,2.5,0,3.7,0c0.4,0,0.8,0.1,1.2,0.1c0.3,0.7,0.8,1.4,1.3,1.9c1.3,0.9,2.2,2.2,2.7,3.8c0.6,2,0.5,4.1-0.3,6
	c-0.3,0.8-0.9,1.5-1.7,1.9c-0.7,0.4-1.3,0.7-2,1.1c-0.6,0.4-1.3,0.6-2,0.6c-1-0.1-2-0.3-2.9-0.5c-1.3-0.4-2.7-1-4-1.5
	c-0.3-0.1-0.8-0.2-0.9,0c-0.3,0.7-0.8,0.7-1.4,0.7c-0.2-0.2-0.5-0.5-0.6-0.8C131.9,159.8,131.2,159,130.4,158.3z"/>
<path class="st7" d="M106.3,117c0.1,0,0.3,0,0-0.2c-0.9-0.6-1.9-1.2-2.8-1.7c-1.3-0.7-2.7-1.6-4.1-2.2c-1.8-0.8-3.5-1.9-5.6-1.8
	c-0.4,0-1,0-1.2-0.7c-0.1-0.4-0.8-0.3-1.2-0.4c-2.9-0.4-5.8-0.3-8.7,0.3c-2.2,0.2-4.1,1.4-5.3,3.3c-0.4,0.7-0.6,1.6-0.4,2.4
	c0.2,0.9,0.4,1.8,0.5,2.7c0,0.3,0.3,0.5,0.5,0.7c0.5,0.7,1,1.5,1.3,2.3c0.4,0.7,0.9,1.3,1.5,1.8c0.7,0.6,0.7,0.9-0.1,1.4l-0.7,0.5
	c0.9,0.4,1.8,0.8,2.7,1.4c0.3,0.3,0.6,0.5,0.6,0.8c0,0.6,0.4,0.8,1,0.9c0.5,0.1,1,0.2,1.5,0.3c0.3,0,0.5,0.1,0.6,0.5
	c0.1,1.1,0.1,1.2,1.2,1.3c0.8,0.1,1.4,0.5,1.9,1c-0.2,0.2-0.5,0.2-0.7,0.1c-2.3-0.7-4.7-0.8-7-0.3c0-0.2-0.1-0.3-0.2-0.4
	c-1.8-1.9-3.4-3.9-4.8-6.1c-0.2-0.3-0.2-0.5,0.1-0.7s0.3-0.4,0.1-0.7c-0.5-0.8-1-1.6-1.5-2.4c-1-1.2-1.4-2.7-1.3-4.2
	c0-0.1,0-0.3,0-0.4c0-1.7,0.7-3.4,1.9-4.6c0.2-0.1,0.3-0.3,0.4-0.5c0.2-0.5,0.5-0.8,1-1.1c0.2-0.1,0.5-0.1,0.5-0.5l0,0
	c0.1,0,0.2,0,0.3-0.1c2.5-1,5.2-1.6,7.9-1.5c1,0,2,0,2.9-0.1c1.6-0.1,3.2,0.2,4.8,0.7c0.2,0,0.3,0.1,0.4,0.3
	c0.3,0.4,0.8,0.7,1.3,0.8c2.3,0.6,4.4,1.6,6.4,2.9c2.5,1.5,5,3,7.5,4.5c0.6,0.3,1.1,0.9,1.3,1.6c0.5,1.2,1.4,2.2,2.5,2.8
	c-1.8,0.1-3.4,0-5.1,0.3c-0.3-0.2-0.5-0.4-0.8-0.6c-1-0.9-2.3-1.4-3.6-1.3c-0.6,0-1.2,0-1.8,0.1c-0.8,0.1-1.5,0-2.3-0.1
	c-1.3-0.1-2.7,0.4-4,0.4c-1.3,0-2.5,0.6-3.8,0.7c-0.5,0-0.9,0.3-1.4,0c-0.1-0.1-0.2-0.2-0.3-0.3c0.1-0.1,0.2-0.2,0.3-0.4
	c1.4-1.2,3-2.1,4.8-2.4c2.1-0.5,4.3-0.5,6.5-0.1c2.6,0.4,5.1,0.8,7.6,1.5c0,0,0,0,0.1-0.1c-0.2-0.4-0.5-0.8-0.8-1
	C107.9,117.6,107.1,117.2,106.3,117z"/>
<path class="st7" d="M133.2,161.4c0.6,0,1.1,0,1.4-0.7c0.1-0.3,0.6-0.2,0.9,0c1.3,0.5,2.7,1.1,4,1.5c1,0.3,1.9,0.4,2.9,0.5
	c0.7,0,1.4-0.2,2-0.6c0.7-0.4,1.3-0.7,2-1.1c0.7-0.5,1.3-1.1,1.6-1.9c0.8-1.9,0.8-4,0.3-6c-0.4-1.5-1.4-2.8-2.7-3.8
	c-0.6-0.6-1-1.2-1.3-1.9c1.5-0.1,3,0.6,4,1.7c0.7,0.9,1.6,1.7,2.3,2.7c1.5,2.5,2.9,5.2,4,7.9c0.3,0.6,0.4,1.2,0.4,1.8
	c-0.4-0.1-0.4-0.6-0.7-0.9c-0.1,0.2-0.1,0.4-0.1,0.5c0,0.9-0.3,1.8-0.7,2.6c-1,1.7-2.6,3-4.5,3.6c-0.9,0.5-2,0.6-3,0.4
	c-1.5-0.4-3.1-0.7-4.7-0.7c-2.1-0.2-4.2-0.1-6.2-0.4c-0.4,0-0.5-0.2-0.5-0.6c0-0.7-0.1-1.4-0.3-2.1
	C134.1,163.1,133.5,162.4,133.2,161.4z"/>
<path class="st3" d="M91.6,139.3c-0.1,0.5-0.4,0.9-0.7,1.2c-0.9,1.1-1.5,2.5-1.7,3.9c-0.6,2.8-2.2,5.3-4.7,6.8
	c-1,0.7-1.2,1.1-0.9,2.2c0.7,2.6,2.4,4.8,4.8,6.1c1.6,0.9,3.3,1.6,5.1,2.1c1.2,0.3,2.4,0.4,3.6,0.6c1.6,0.2,3.1,0.2,4.7,0
	c3-0.2,5.9-1.1,8.5-2.7c1.3-0.8,2.4-1.7,3.4-2.8c1.5-1.9,2.5-4.1,2.8-6.5c0.3-2.4,0.1-4.9-0.4-7.2c-0.2-0.6-0.4-1.3-0.5-1.9
	c0.5,0.8,0.8,1.7,1,2.7c0.4,1.6,0.6,3.2,0.6,4.8c-0.1,4.7-2,9.1-5.2,12.5c-0.3,0.3-0.6,0.5-0.9,0.5c-1.9,0.4-3.7,1.4-4.9,2.9
	c-0.3,0.3-0.8,0.6-1.3,0.6c-4.5,1.4-9.4,1.3-13.8-0.3c-2.9-0.9-5.5-2.4-7.6-4.5c-1.2-1.5-2.1-3.1-2.7-4.9c-0.1-0.2-0.2-0.4-0.3-0.7
	c-0.1-0.3,0-0.7,0.3-0.9c1.4-1.5,3.1-2.7,4.6-4.2c1.8-1.7,3-4,3.4-6.5c0.3-1.3,1.1-2.5,2.3-3.3C91,139.6,91.3,139.4,91.6,139.3z"/>
<path class="st5" d="M76.4,154.4c-0.8-0.2-1.6,0-2.2,0.4c-0.3,0.3-0.3-0.1-0.4-0.3c-0.1-0.8,0.1-1.7,0.5-2.5c0.4-1.1,1-2,1.8-2.9
	c1-1.1,1.9-2.3,2.6-3.6c1.1-1.9,2.4-3.7,4-5.3c1-1.2,2.1-2.4,3.3-3.5c1.1-1,2.5-1.8,4-2.2c0.1,0,0.3-0.1,0.4-0.1
	c0.9-0.1,1,0,1.3,0.8c0.5,1.3,0,2.8-1.1,3.6c-1.6,1.2-2.8,2.9-3.3,4.9c-0.5,2.4-2,4.6-4,6.1c-1.1,0.9-2.2,1.8-3.2,2.9
	C79.1,153.8,77.8,154.4,76.4,154.4z"/>
<path class="st8" d="M173.2,121c0.2-0.4,0.5-0.9,0.7-1.3c0.1-0.2,0.4-0.4,0.1-0.7c-0.2,0-0.3,0.1-0.5,0.2c-0.7,0.5-1.4,0.9-2.2,1.2
	c-1.6,0.7-2.9,1.8-3.8,3.2c-0.3,0.4-0.5,0.3-0.7,0c-0.1-0.3-0.2-0.6-0.2-0.9c0-0.2-0.2-0.4-0.3-0.2c-0.3,0.6-0.8,1-0.9,1.7
	c-1.4-0.4-2.9-0.3-4.3,0.1c0-0.6-0.2-1.2-0.5-1.7c-0.5-1.3-1.1-2.5-1.9-3.6c-0.1-0.1-0.2-0.4-0.4-0.1c-0.6,1.2-1.8,2.1-2,3.6
	c0,0.4-0.3,0.6-0.6,0.2c-0.3-0.3-0.6-0.5-0.9-0.7c-0.4-0.2-0.6-0.2-0.6,0.3c0,0.5,0.2,1,0.1,1.5c-0.9-0.3-1.4-1.3-1.2-2.3
	c0.1-0.7,0.1-1.5,0.3-2.3c0.1-0.4,0.2-0.5,0.5-0.3c0.8,0.6,0.9,0.5,1.3-0.4c0.5-1.4,1.2-2.7,2-3.9c0.3-0.4,0.6-0.5,1.1-0.2
	c1.3,0.9,2.3,2.2,2.9,3.6c0.2,0.4,0.3,0.7,0.9,0.4c0.6-0.3,0.5,0.2,0.5,0.5c0.1,1,0,2-0.3,3c-0.1,0.2-0.1,0.5-0.2,0.7
	c0,0.3,0.1,0.5,0.4,0.5c0.3,0.1,0.4-0.1,0.6-0.3c0.3-0.6,0.4-1.4,0.3-2.1c-0.1-0.3,0-0.7,0.2-1c0.7-0.9,1.7-1.6,2.7-2.2
	c0.3-0.2,0.6-0.2,0.7,0.2c0,0.1,0.1,0.2,0.1,0.3c0.3,0.7,0.3,0.7,0.8,0.1c0.5-0.7,1.1-1.3,1.9-1.8c0.4-0.2,0.6-0.4,0.7,0.3
	c0.1,0.7,0.2,0.8,0.9,0.4c1.2-0.7,2.5-1.2,3.9-1.6c0.5-0.1,0.6,0,0.7,0.4c0.3,1.3,0.4,2.6,0.3,3.9c0,0.5,0.1,0.6,0.5,0.4l0.3-0.1
	c0.6-0.1,0.7,0,0.7,0.6c-0.1,1.7-0.4,3.3-1.1,4.9c-0.2,0.5-0.2,0.9,0.4,1.1c0.3,0.1,0.3,0.2,0.2,0.4l-0.3,0.2
	c-1.3,1.1-3,1.5-4.6,0.8c1.6-1.3,2.4-3.4,2.1-5.4c-0.4,0.2-0.8,0.4-1.3,0.6c-0.7,0.2-0.9-0.1-0.7-0.7c0.2-0.6,0.3-1.1,0.3-1.7l0,0
	C173.1,121.2,173.2,121.1,173.2,121z"/>
<path class="st8" d="M126.5,129.8c0.9-3.1,1.2-6.3,1-9.5c-0.1-1.6-0.2-3.2-0.5-4.8c-0.3-1.4,0.1-3,1.1-4c0.4-0.3,0.9-0.6,1.4-0.7
	c0.4-0.1,0.4-0.3,0.1-0.5c-0.7-0.5-1.4-0.9-2.2-1.1c-1.2-0.4-2.4-0.9-3.6-1.4c-0.6-0.3-1-0.9-1.2-1.5c-0.1-0.3-0.1-0.5,0.3-0.5
	c1.6,0,3.2,0.7,4.4,1.8c-1-0.2-2-0.5-2.9-0.9c0.2,0.3,0.5,0.5,0.8,0.7c1.1,0.6,2.3,1.2,3.5,1.6c0.6,0.2,1.1,0.5,1.7,0.9
	c0.4,0.3,0.5,0.5,0,0.8c-1.1,0.5-1.8,1.4-2.1,2.6c-0.2,0.7-0.2,1.4,0,2.1c0.3-0.1,0.3-0.3,0.3-0.4c0.5-2.2,2.4-3.9,4.7-4
	c1.6-0.1,3.2-0.1,4.8,0.1c1.9,0.2,3.8-0.2,5.6-1c0.3-0.1,0.6-0.2,0.9-0.3c-0.3,0.5-0.9,0.6-1.4,0.8c-1.8,0.8-3.8,1.2-5.8,1.1
	c-1.5-0.1-3,0.1-4.5,0.5c-1.4,0.6-2.4,1.9-2.4,3.4c0,1.5,0.3,3.1,1,4.5c1.1,2.4,2,5,2.7,7.6c0.2,1.3,0.4,2.7,0.5,4
	c0,0.6,0.1,1.2,0.1,1.8c-0.3,0.5-0.5,0.9-0.7,1.4c-0.2,0.5-0.3,0.2-0.5,0.1l-1.3-0.8c-0.4-0.3-0.9-0.5-1.5-0.5
	c-0.6,0.1-1.2-0.4-1.2-1c0-0.1,0-0.1,0-0.2c0-2.5-0.1-5-0.4-7.4c-0.1-0.4-0.1-0.7-0.2-1.1c0-0.1,0-0.3-0.3-0.3
	c-0.3,0.1-0.1,0.2-0.1,0.3c-0.1,1.3-0.2,2.6-0.3,3.9c-0.1,1.3-0.2,2.5-0.3,3.8C127.4,131.2,126.9,130.6,126.5,129.8z"/>
<path class="st8" d="M73.5,153.7c-0.9-1.8-1.3-3.8-1.1-5.9c0.2-3,1.2-6,2.8-8.5c0.9-1.5,1.9-2.9,3-4.1c3-3.3,7.9-4.1,11.9-2.2
	c0.3,0.2,0.8,0.3,0.8,0.7c-0.1,0.4-0.6,0.1-0.9,0.2c-1.7,0.3-3.2,1.1-4.4,2.3c-1.2,1.3-2.7,2.4-3.9,3.6c-1,1-1.9,2.2-2.5,3.5
	c-1.3,2.4-2.7,4.7-4.3,6.9C74.2,151.3,73.7,152.5,73.5,153.7z"/>
<path class="st9" d="M140,174.9l-15.9,17l-9.7-10.4c1.3-0.1,2.6-0.5,3.8-1.1c0.3-0.2,0.4,0,0.6,0.2c1.6,1.7,3.2,3.4,4.7,5.1
	c0.4,0.5,0.7,0.5,1.1,0c3.5-3.8,7-7.5,10.5-11.3c0.1-0.1,0.3-0.4,0.5-0.3L140,174.9z"/>
<path class="st3" d="M108.4,163.7c0.8-0.6,1.7-1,2.7-1.2c0.5,0.1,1,0,1.5-0.1h0.4c0,0.2,0.2,0.2,0.4,0.3c0.9,0.3,1.7,0.8,2.5,1.3
	c-0.5,0.1-0.8-0.1-1.1-0.1c-0.6-0.7-1.5-0.9-2.4-0.6l1.9,0.6c-0.2,0.3-0.7,0.3-0.7,0.8v0.2l0,0c-0.6,0.3-0.4,0.8-0.2,1.3
	c0.8,1.2,2.1,2,3.5,2.1c1.1,0.2,1.3,0.1,1.8-0.3c0-0.3-0.8,0.2-0.4-0.5c0.2,0,0.4,0,0.5-0.2c0.3-0.6,0.7-0.3,1.1-0.1
	c1.2,0.8,1.7,2.2,1.4,3.6c-0.5,1.7-1.9,2.9-3.7,3.1c-2.4,0.4-5,0-7.2-1.1c-0.8-0.3-1.2-0.1-1.2,0.7c0,0.7,0.1,1.5,0.3,2.2
	c0,0.6-0.3,0.9-0.9,0.6c-0.1-0.1-0.3-0.1-0.4-0.2c-0.6-0.5-1.2-1.2-1.5-1.9c-0.7-1.6-1-3.3-0.6-5.1c0.2-1.3,0.6-2.6,1.3-3.7
	C107.7,164.7,108.2,164.4,108.4,163.7z M112.7,166c-0.1,0.5,0,1,0.3,1.3c1.1,1.8,3.1,3,5.2,3c0.7,0.1,1.4,0,2.1-0.3
	c0.5-0.2,0.8-0.6,0.6-1.1c-0.2-0.5-0.5-0.8-0.9-1.1c-0.4-0.2-0.7-0.2-0.6,0.3c0,0.3-0.1,0.5-0.4,0.6c-0.3,0.2-0.7,0.3-1.1,0.3
	C115.6,169.4,113.5,168.1,112.7,166L112.7,166z"/>
<path class="st10" d="M133.2,161.4c0.3,0.9,0.8,1.6,1,2.5c0.2,0.7,0.3,1.4,0.3,2.1c0,0.4,0.1,0.5,0.5,0.6c2.1,0.3,4.2,0.2,6.2,0.4
	c1.6,0,3.2,0.3,4.7,0.7c1,0.2,2.1,0.1,3-0.4c1.9-0.6,3.5-1.9,4.5-3.6c0.5-0.8,0.7-1.7,0.7-2.6c0-0.2,0-0.3,0.1-0.5
	c0.3,0.2,0.3,0.8,0.7,0.9c0.8,3.3-0.5,6.8-3.4,8.7c-1.8,1.1-3.7,1.9-5.8,2.3c-2.4,0.4-4.8,0.2-7.2-0.4c-1.5-0.4-3.1-0.7-4.7-0.7
	h-0.3c-1.1-0.2-1.1-0.2-0.6-1.2c1.5-2.8,1.1-6.2-1-8.5c-0.4-0.6-0.9-1.1-1.5-1.7c-0.5-0.4-0.7-1.1-0.3-1.6c0.8,0.7,1.6,1.5,2.3,2.4
	C132.8,161,133,161.2,133.2,161.4z M143.9,169c-0.3-0.2-0.5-0.3-0.8-0.4c-0.6-0.2-1.1-0.3-1.7-0.3l-5.2-0.7c-0.1,0-0.3-0.1-0.4,0.1
	c-0.1,0.2,0.1,0.2,0.2,0.3c0.8,0.8,1.8,1.3,3,1.2C140.6,169.3,142.3,169.3,143.9,169z"/>
<path class="st11" d="M173,121.3c0,0.6-0.1,1.2-0.3,1.7c-0.2,0.7,0,0.9,0.7,0.7c0.4-0.2,0.9-0.3,1.3-0.6c0.3,2.1-0.5,4.1-2.1,5.4
	c1.6,0.6,3.4,0.3,4.6-0.8l0.3-0.2c-0.1,0.6-0.4,1.2-0.8,1.7c-0.5,0.7-1.1,1.3-1.8,1.7c-0.2,0.2-0.5,0.3-0.7,0.2
	c-0.6-0.1-1.3-0.1-1.9,0c-0.3,0-0.5,0.1-0.7,0.2c-0.3,0.2-0.4,0.6-0.3,0.9c0.1,0.1,0.2,0.2,0.3,0.3c0.5,0.3,1.1,0.3,1.6,0
	c0.9-0.5,1.9-0.5,2.8-0.3c0.4,0.1,0.6,0.3,0.4,0.7s0,0.6,0.4,0.6c0.9,0.2,1.7,0.4,2.7,0.5c0.3,0,0.4,0.1,0.3,0.5
	c-0.5,1.6-1.5,3-2.8,4c-0.4,0.3-0.1,0.4,0.1,0.5c0.5,0.2,0.4,0.4,0,0.6c-1.4,0.9-3.2,1.2-4.9,0.8c-0.3,0-0.5-0.2-0.6-0.5
	c-0.3-0.7-0.7-1.3-1.2-1.8c-0.2-0.2-0.3-0.6-0.2-0.9c0.1-0.3,0.4-0.2,0.6-0.2c1.9-0.2,3.7-0.6,5.6-1.1c0.2,0,0.4-0.1,0.4-0.3
	c-0.7-0.1-1.5-0.1-2.2,0.1c-1.2,0.2-2.4,0.4-3.6,0.6c-0.5,0-0.8,0-0.8-0.6c0-1.5-0.6-2.9-1.8-3.8c-0.3-0.2-0.4-0.6-0.2-1
	c0,0,0,0,0,0c0.4-0.9,0.5-1.9,0.4-2.9c0-0.2,0-0.4,0.1-0.6C170.2,125.7,171.6,123.5,173,121.3z"/>
<path class="st3" d="M67.6,134.6l1.5,1.7c0.1,0.1,0.3,0.2,0.2,0.4c-0.1,0.2-0.3,0.2-0.5,0.2c-2.9,0.2-5.7,0.4-8.6,0.7
	c-3.8,0.4-7.6,0.7-11.5,1.1c-4,0.4-8,0.9-12,1.3s-7.7,1-11.6,1.5c-0.7,0.1-0.8,0-0.6-0.7c0.2-0.7,0.4-1.2,0.6-1.8l10-1.2
	c5.6-0.7,11.2-1.4,16.9-1.9C57.4,135.5,62.5,135,67.6,134.6z"/>
<path class="st3" d="M223.4,139.2c0.2,0.6,0.4,1.3,0.7,1.9s0,0.5-0.4,0.5l-3.2-0.4l-6.9-0.9l-5.6-0.7l-5.2-0.6l-7.1-0.7l-4.3-0.4
	l-8.7-0.8l-1.8-0.1c-0.3,0-0.4-0.1-0.3-0.4c0.2-0.6,0.4-1.3,0.8-1.9c3.5,0.3,7,0.6,10.5,0.9c4.8,0.5,9.7,0.9,14.5,1.5
	C211.9,137.6,217.6,138.3,223.4,139.2z"/>
<path class="st12" d="M108.4,163.7c-0.2,0.6-0.7,1-1.1,1.5c-0.7,1.1-1.1,2.4-1.3,3.7c-0.3,1.7-0.1,3.5,0.6,5.1
	c0.4,0.7,0.9,1.4,1.5,1.9c0.1,0.1,0.3,0.2,0.4,0.2c0.6,0.3,0.9,0,0.9-0.6c-0.1-0.7-0.2-1.4-0.3-2.2c0.1-0.9,0.4-1.1,1.2-0.7
	c2.2,1.1,4.7,1.5,7.2,1.1c1.7-0.2,3.2-1.4,3.7-3.1c0.3-1.4-0.3-2.8-1.4-3.6c-0.4-0.2-0.7-0.5-1.1,0.1c-0.1,0.2-0.3,0.2-0.5,0.2
	c-0.2-0.6-0.1-1.3,0.4-1.7c0.2-0.2,0.3-0.3,0.6-0.1c1.1,0.8,2,1.9,2.6,3.2c0.4,1,0.4,2.1,0.1,3.2c-0.2,1.3-0.7,2.6-1.3,3.7
	c-1.2,2.3-3.5,3.7-6.1,4c-1.8,0.2-3.6,0-5.2-0.6c-2.7-0.9-4.5-3.5-4.5-6.3c-0.1-2,0.2-3.9,0.9-5.7
	C106.3,165.7,107.2,164.5,108.4,163.7z"/>
<path class="st11" d="M99.2,101.3c3.2,1.5,6.4,2.3,9.3,3.9c1.4,0.7,2.6,1.6,3.7,2.7c0.3,0.3,0.4,0.7,0.3,1.1
	c-0.6,2.3-0.7,4.6-0.5,6.9c0.1,0.9,0.1,1.9,0.3,2.8c0,0.1,0,0.2,0,0.4c-0.4-0.3-0.7-0.8-0.7-1.3c0-0.5-0.3-1-0.7-1.2
	c-0.9-0.5-1.5-1.3-1.8-2.2c-0.9-1.9-2.2-3.6-3.6-5.1c-1.8-1.7-3.5-3.6-4.9-5.6L99.2,101.3z"/>
<path class="st12" d="M74.4,133.3c-2.9-0.3-5.7-0.6-8.6-1c-2.2-0.3-4.3-0.5-6.5-0.8c-0.1,0-0.2,0-0.3,0c-0.1-0.1-0.4,0-0.5-0.2
	c-0.1-0.2,0.2-0.3,0.3-0.4c2.4-2.1,4.9-4,7.5-5.8c0.2-0.2,0.6-0.2,0.8,0c0,0,0.1,0.1,0.1,0.1c2.3,2.5,4.6,4.9,6.8,7.4
	c0.1,0.1,0.2,0.2,0.3,0.3c0.1,0.1,0.1,0.2,0.1,0.3C74.6,133.5,74.5,133.4,74.4,133.3z"/>
<path class="st10" d="M78.1,109.7c0,0.3-0.3,0.3-0.5,0.5c-0.4,0.2-0.8,0.6-1,1.1c-0.1,0.2-0.2,0.4-0.4,0.5c-1.2,1.3-1.9,2.9-1.9,4.6
	c0,0.1,0,0.3,0,0.4c-0.1,1.5,0.4,3,1.3,4.2c0.5,0.8,1,1.6,1.5,2.4c0.2,0.3,0.2,0.5-0.1,0.7c-0.3,0.2-0.3,0.4-0.1,0.7
	c1.4,2.1,3,4.2,4.8,6.1c0.1,0.1,0.2,0.2,0.2,0.4c-0.9,0.3-1.7,0.7-2.5,1.2c-0.5,0.3-0.9-0.1-1.1-0.5c-2.3-3.5-4.8-6.8-6-10.9
	c-0.4-1.7-0.4-3.4-0.1-5.2c0.3-1.8,1.2-3.3,2.7-4.4C75.8,110.9,76.9,110.2,78.1,109.7z"/>
<path class="st6" d="M223.4,139.2c-5.7-0.8-11.5-1.5-17.2-2.1c-4.8-0.5-9.7-1-14.5-1.5c-3.5-0.3-7-0.6-10.5-0.9
	c0-0.3,0.3-0.2,0.5-0.2l6.3-0.7c0.3,0,0.7,0,1,0c1.5,0.2,3,0.3,4.5,0.5c4.5,0.4,8.9,0.9,13.4,1.4c5,0.6,10.1,1.2,15.1,1.9l0.9,0.1
	C223.1,138,223.2,138.6,223.4,139.2z"/>
<path class="st6" d="M67.6,134.6c-5.1,0.5-10.2,0.9-15.4,1.3c-5.6,0.6-11.3,1.2-16.9,1.9l-10,1.2c0.1-0.6,0.3-1.2,0.6-1.7
	c1.7-0.1,3.4-0.4,5.1-0.6c5-0.6,10-1.2,15-1.8c4.4-0.5,8.9-0.9,13.4-1.3c0.1,0,0.2,0,0.2-0.1c1.8,0,3.6,0.4,5.4,0.5
	c0.6,0,1.2,0.1,1.8,0.2C67.2,134.3,67.4,134.3,67.6,134.6z"/>
<path class="st7" d="M136.9,141c-0.7-1.5-2.1-2.1-3.3-2.9c-0.9-0.6-1.8-1.2-2.8-1.8c-0.5-0.4-0.9-0.9-1.2-1.5c0.3,0,0.7,0,1,0.2
	c1.2,0.5,2.4,1.2,3.5,2c1.6,1.3,3.3,2.4,4.9,3.5c0.3,0.2,0.4,0.4,0.5,0.7c0.3,1.4,1.1,2.7,2.3,3.5c0.6,0.4,1.2,1.1,1.9,1.5h-3.3
	c0-0.3-0.2-0.6-0.5-0.8c-0.7-0.5-1.6-0.9-2.5-1.1c-1.9-0.5-3.9-0.3-5.8-0.7c-0.5-0.1-1-0.1-1.5-0.1c-0.5,0-1-0.5-1.5-0.7
	c-0.8-0.3-1-0.2-1.4,0.5l-0.1,0.1l0,0c-0.9,0-1.9,0.1-2.8,0.3c-1,0.2-2.1,0-3-0.4c1.1-1.2,2.7-2,4.3-2.3c2-0.3,4-0.2,5.9,0.2
	c2,0.3,4,0.4,6,0.7h0.2c0.3,0.3,0.7,0.4,1.1,0.3C138.3,141.7,137.6,141.3,136.9,141z"/>
<path class="st7" d="M122,128.7l0.5,0.1c0-0.3-0.1-0.3-0.3-0.5c-1.9-1.5-3.9-2.9-6-4.1c-0.9-0.5-1.8-1-2.8-1.3
	c-0.3,0-0.6-0.2-0.8-0.3c1.9-0.2,3.8,0.4,5.3,1.5c2.2,1.8,4.6,3.2,6.8,5c0.3,0.3,0.6,0.7,0.6,1.1c0.1,1,0.9,1.5,1.5,2.2
	c0.4,0.5,0.8,0.9,1.3,1.2v0.2h-3.3c-0.1-0.4-0.5-0.3-0.8-0.5c-1.8-1-3.8-1.5-5.9-1.6c-2-0.2-4-0.3-6-0.2l-3.3,0.1
	c-0.9,0-1.8-0.1-2.6-0.4c0.5-0.5,1-0.8,1.6-1c2.2-0.6,4.5-0.9,6.8-0.9c1.5-0.1,3,0,4.5,0.2c1.7,0.1,3.3,0.5,4.9,1
	c0.1,0,0.3,0.3,0.5,0c0.1-0.3,0-0.4-0.2-0.5c-0.1-0.1-0.3-0.2-0.4-0.3l-0.3-0.1L122,128.7C122,128.8,122,128.8,122,128.7z"/>
<path class="st12" d="M132.2,164.7c0.4,0.9,0.5,2,0.2,3c-0.7,3-3.2,5.2-6.2,5.8c-0.7,0.1-1.4,0.1-2.1,0c-0.3,0-0.6-0.1-0.5-0.6
	c0.6-1.9,0.3-4-0.8-5.7c0.8,0.1,1.6-0.2,2.1-0.9c0.5-0.8,1.6-1.1,2.4-0.6c0,0,0,0,0.1,0c0.8,0.4,1.8,0.5,2.7,0.4
	C130.9,166.2,131.9,165.6,132.2,164.7z"/>
<path class="st8" d="M155.8,115.1c0-0.8,0.3-1.6,0.3-2.4c0-2.7-2.2-5-4.9-5c-0.4,0-0.9,0-1.3,0.2c-0.9,0.2-1.8,0.4-2.7,0.7
	c-0.3,0.1-0.5,0.2-0.8-0.1s0-0.4,0.1-0.6c0.3-0.5,0.2-1.2-0.3-1.6c-1.3-1.3-3.1-2.1-5-2.1c-0.4-0.1-0.7,0.2-0.8,0.5c0,0,0,0,0,0
	c-0.1,0.3-0.2,0.7-0.2,1c0,0.5,0.2,0.9,0.8,1c0.9,0.2,1.8,0.5,2.5,1.1c0.7,0.6,0.8,0.9,0.1,1.6c0.5-0.2,1.1-0.2,1.6-0.2l0,0
	c0,0.1,0,0.1-0.1,0.1L142,110c-0.3,0.1-0.7,0.2-0.6-0.4c0-0.3-0.2-0.4-0.4-0.6c-0.1-0.2-0.4-0.3-0.4-0.6l0,0c0.7,0,1.4,0.3,2,0.6
	c0.1,0.1,0.3,0.3,0.5,0.1c0.2-0.2,0-0.4-0.1-0.5c-0.6-0.6-1.4-1-2.3-1.2c-0.9-0.3-0.9-0.3-1-1.3c0-1,0.2-1.9,0.6-2.8
	c0.2-0.5,0.5-0.8,1.1-0.4c0.2,0.2,0.5,0.2,0.7,0.1c1-0.6,1.7,0,2.5,0.4c1.2,0.5,2.2,1.3,2.9,2.4c0.2,0.3,0.4,0.2,0.7,0.1
	c2.3-0.7,4.8-0.4,7,0.7c1.6,0.8,2.7,2.3,3,4c0.2,0.9,0.4,1.8,0.4,2.7c-0.8-1-1.2-0.3-1.6,0.2C156.5,113.9,156.2,114.6,155.8,115.1z"
	/>
<path class="st12" d="M190,131.5l-4.3,0.5c-1.7,0.2-3.4,0.4-5.1,0.6c-0.7,0.1-1.3,0.2-2,0.2c-0.3,0-0.6,0-0.5-0.5
	c0.1-0.3-0.1-0.6-0.3-0.7c0,0,0,0,0,0c-0.5-0.1-0.5-0.3-0.1-0.7c1-0.9,1.8-2.1,2.2-3.4c0,0,0.1-0.1,0.1-0.2c-0.1-1.2,1-1.5,1.5-2.2
	c0.1-0.2,0.3-0.1,0.5,0c2.7,1.9,5.3,3.9,7.8,5.9C189.8,131.2,189.9,131.3,190,131.5z"/>
<path class="st3" d="M132.2,164.7c-0.3,1-1.3,1.6-2.3,1.4c-0.9,0.1-1.8,0-2.7-0.4c-0.8-0.5-1.9-0.3-2.4,0.5c0,0,0,0,0,0.1
	c-0.5,0.7-1.3,1-2.1,0.9c-0.8-1-1.7-1.8-2.7-2.5c-0.2-0.1-0.5-0.3-0.3-0.6c0.9-1.8,1.6-3.7,2.2-5.6c0.1-0.7,0.7-1.1,1.4-1.1
	c1.5,0,2.9,0.4,4.1,1.3c0.3,0.2,0.1,0.4,0.1,0.6l-0.5-0.1c-0.8-0.1-1.9,0.2-2.1,0.7c-0.3,0.8-0.2,1.6,0.4,2.2
	c0.2,0.2,0.4,0.5,0.5,0.8c0.8,1.2,2.2,1.8,3.6,1.7c0.6-0.1,0.7-0.3,0.4-0.8c0-0.1,0-0.3,0-0.4l0.3-0.3c0.4-0.1,0.4-0.7,0.9-0.5
	c0.5,0.5,0.8,1,0.9,1.7c0,0.1,0,0.2,0.1,0.3L132.2,164.7z M127.1,164.8c0,0.1,0.1,0.2,0.2,0.3c1.1,0.8,2.6,0.9,3.9,0.3
	c0.5-0.3,0-0.7-0.1-1c-0.1-0.3-0.3-0.4-0.6-0.1c-0.3,0.3-0.6,0.5-1,0.5C128.7,165,127.9,165,127.1,164.8z M124.2,159.7
	c0.3,0,0.7,0,0.8-0.5c0-0.3-0.3-0.6-0.6-0.6c0,0,0,0,0,0c-0.6,0-1.2,0.1-1.7,0.5c-0.1,0.1-0.2,0.2-0.1,0.4c0,0.2,0.2,0.1,0.3,0.2
	L124.2,159.7z"/>
<path class="st4" d="M70.4,117.1c-0.1,1-0.1,1.9,0,2.9c0.1,0.3-0.2,0.4-0.4,0.6c-3.9,2.5-7.7,5.2-11.3,8.2c-0.5,0.5-1.1,0.9-1.6,1.3
	c-0.2,0.2-0.3,0.2-0.5,0l-1.5-1.9c0.1-0.1,0.3-0.3,0.4-0.4c2.5-2.2,5.2-4.3,7.9-6.2C65.7,119.9,68,118.4,70.4,117.1z"/>
<path class="st4" d="M193.3,128.1c-0.5,0.6-1,1.2-1.4,1.9c-0.2,0.3-0.4,0.3-0.7,0c-3.5-3.1-7.3-5.9-11.3-8.5
	c-0.3-0.2-0.5-0.5-0.4-0.8c0-0.5,0-1,0-1.5c0-0.5-0.2-0.7-0.7-0.6c-0.9,0.2-0.9,0.2-1-0.7c-0.1-0.3-0.1-0.7-0.1-1
	c0.2,0.1,0.3,0.1,0.5,0.2C183.5,120.3,188.6,124,193.3,128.1z"/>
<path class="st13" d="M159.4,148.2c0-0.2,0-0.4,0-0.6c-0.1-0.3,0.1-0.5,0.4-0.6c0,0,0,0,0,0c0.9-0.3,1.7-0.7,2.4-1.3
	c0.3-0.3,0.7-0.4,1.1-0.3c2.6,0.5,3.5,1.9,3.1,4.7c-0.3,2.4-2,4.4-4.4,5c-0.6,0.1-1.3,0.1-1.9,0c-0.3,0-0.5-0.2-0.5-0.5
	c0,0,0,0,0-0.1c0-0.9-0.3-1.9-0.8-2.7c-0.1-0.2-0.1-0.6,0-0.8C159.2,150.2,159.4,149.2,159.4,148.2z M164.1,148.2c0-0.3,0-0.7-0.1-1
	c-0.3-0.8-0.8-0.9-1.5-0.4c-0.6,0.6-1.3,1-2.1,1.2c-0.2,0-0.4,0.1-0.3,0.4c0,0.5-0.1,1-0.3,1.5c-0.1,0.6,0.3,1.2,0.9,1.3
	c0.1,0,0.1,0,0.2,0C162.6,151.3,164,150,164.1,148.2L164.1,148.2z"/>
<path class="st5" d="M138.8,110.2c-0.8,0-1.6-0.3-2.5-0.4c-1.2-0.1-2.3-0.1-3.5,0.1c-0.2,0-0.5,0.2-0.7-0.1c1.3-0.2,2.2-1.2,2.4-2.5
	c0.2-2,0.7-3.9,1.5-5.8c0.9-1.9,2-3.6,4.3-3.8c0.7,0.4,1.3,1.1,1.6,1.9c-1.1,0.2-2.1,1-2.7,2c-0.8,1.3-1.3,2.9-1.3,4.4
	C137.7,107.4,138,108.9,138.8,110.2z"/>
<path class="st14" d="M154.7,139.1c0.9-1.4,2.4-2.4,4-2.6h0.3h0.8c0,0.2,0.2,0.2,0.4,0.2c1,0.3,1.7,1.2,2,2.2
	c0.3,1.3-0.1,2.7-1.1,3.7c-1,1-2,1.3-3.3,0.3c-0.4-0.3-0.9-0.5-1.3-0.7C154.4,141.5,154.2,140.8,154.7,139.1z"/>
<path class="st6" d="M105.7,102.3c3-0.5,6.1-0.9,9.1-1.2c3.6-0.3,7.1-0.4,10.7-0.4c3,0,6,0.2,9.1,0.5c0,0.4-0.3,0.6-0.7,0.8
	c-1.8,0.6-3.7,0.7-5.6,0.4c-0.9-0.1-1.6-0.6-2.5-0.8c-2.1-0.4-4.3-0.2-6.3,0.6l-0.9,0.3c-2.1,0-4.1,0.2-6.2,0.5
	c-1.3,0.1-2.6,0.3-3.9,0.6C107.5,103.2,106.6,102.8,105.7,102.3z"/>
<path class="st2" d="M123,155.4c0.5-1.9,1.1-3.8,1.9-5.6c0.5-1.1,1.3-2.1,2.3-2.8c0.4-0.3,0.6-0.2,0.8,0.2c1.2,3,1.3,6.4,0.3,9.5
	C126.7,155.8,124.9,155.3,123,155.4z"/>
<path class="st8" d="M131.7,105.8c0.2,0,0.4,0.1,0.3,0.4s-0.3,0.1-0.5,0.1c-0.9-0.2-1.8-0.6-2.6-1.2c-1.2-0.8-2.6-1.4-4-1.6
	c-4.4-0.5-8.5,2.5-9.5,6.8c-0.6,3.3-0.3,6.7,1,9.8c0.2,0.6,0.5,1.1,0.8,1.7c-0.6-0.2-1.1-0.3-1.7-0.3c-0.3,0-0.5,0-0.6-0.4
	c-0.8-2.6-1.2-5.3-1.1-8c-0.1-4.3,2.6-8.1,6.5-9.6c1.9-1,4.2-1.2,6.3-0.5c1.7,0.6,3.2,1.5,4.6,2.7
	C131.3,105.9,131.5,106.3,131.7,105.8z"/>
<path class="st10" d="M115.7,138.4c0.5,0.1,0.7,0.6,0.9,0.9c1.7,2.4,2.6,5.1,2.8,8c0.1,1.4,0.1,2.9,0,4.4c0,0.1-0.1,0.2-0.1,0.3
	c-0.1,1.4-0.4,2.8-0.9,4.1l-0.5,1.3c0.4-0.2,0.7-0.4,1-0.6c0.4-0.4,0.8-0.6,1.3-0.7c-0.1,0.7-0.5,1.3-1.1,1.7
	c-1.4,1.1-2.4,2.6-2.7,4.4c-0.1,0.5-0.3,0.5-0.7,0.3c-0.6-0.4-1.3-0.7-2-0.8c-0.5-0.1-0.6-0.3-0.2-0.7c2-2.2,3.3-4.9,4-7.7
	c1.4-4.9,0.6-10.2-2-14.5C115.7,138.6,115.7,138.5,115.7,138.4z"/>
<path class="st14" d="M153,130.6v-0.2l0.1-0.2c1-1.8,2.9-2.8,5-2.7c0,0.2,0.2,0.2,0.4,0.3c1.4,0.5,2.2,1.8,2.1,3.2
	c-0.2,1.1-0.9,2.1-1.8,2.7c-1.1,0.7-1.4,0.7-2.3-0.1c-0.7-0.7-1.6-1.1-2.6-1.3c-0.5-0.1-0.9-0.5-0.9-1.1
	C153,131.1,153,130.8,153,130.6z"/>
<path class="st14" d="M155.4,144C155.5,144,155.5,144,155.4,144c0.1,0.3,0.4,0.4,0.5,0.5c0.5,0.5,0.8,1.1,0.9,1.8
	c0.1,1.6-0.8,3-2.1,3.8c-0.8,0.7-2,0.6-2.7-0.2c-0.5-0.6-1-1.1-1.5-1.6c-0.8-0.7-1.1-1.3-0.5-2.3c0.2-0.4,0.4-0.7,0.6-1.1
	c1.1-1,2.6-1.4,4-1.2C154.8,144,155.1,144.1,155.4,144z"/>
<path class="st4" d="M173.6,114.6c-0.6,0.3-1.2,0.6-1.8,1c-0.6,0.3-0.4-0.1-0.5-0.3c-0.3-0.9-0.5-1-1.2-0.4
	c-0.5,0.5-1.3,0.5-1.8,0.1c-2.4-1.2-5-2.3-7.5-3.2c-0.3-0.1-0.6-0.4-0.6-0.7c-0.2-0.9-0.5-1.8-0.8-2.7c0.1,0,0.3,0.1,0.4,0.1
	c1.8,0.6,3.7,1.3,5.5,2.1C168.1,111.8,170.9,113.1,173.6,114.6z"/>
<path class="st14" d="M143.9,131.3c1.2-2.1,3.7-3.2,6-2.6c0,0,0,0.1,0,0.2c1.1,0.9,1.2,2.6,0.2,3.7c0,0,0,0-0.1,0.1
	c-1,1.5-2.7,2.3-4.4,2.1c-0.9,0-1.7-0.7-1.9-1.5C143.5,132.6,143.9,132,143.9,131.3z"/>
<path class="st11" d="M108.2,114.6c-1.5-1-3-1.9-4.5-2.8c-1.1-0.7-2.2-1.3-3.4-2c-0.7-0.4-0.6-1.2-0.8-1.8c-0.3-1-0.5-2.1-0.5-3.2
	c0-1,0.1-1.9,0.2-2.9c0.4,0.6,0.6,1.1,0.9,1.6c0.8,1.4,1.8,2.7,2.9,3.9c1.8,1.8,3.4,3.9,4.8,6.1C108,113.9,108.1,114.3,108.2,114.6z
	"/>
<path class="st6" d="M193.3,128.1c-4.7-4.1-9.8-7.8-15.1-11c-0.1-0.1-0.3-0.1-0.5-0.2c-0.1-0.7-0.2-1.3-0.2-2c2.4,1.3,4.7,2.8,7,4.4
	c3.4,2.3,6.7,4.9,9.8,7.6L193.3,128.1z"/>
<path class="st6" d="M70.4,117.1c-2.4,1.4-4.7,2.9-7,4.5c-2.7,1.9-5.3,4-7.9,6.2c-0.1,0.1-0.3,0.3-0.4,0.4c-0.4-0.4-0.7-0.8-1-1.3
	c5.1-4.5,10.7-8.5,16.6-11.9C70.7,115.7,70.6,116.4,70.4,117.1z"/>
<path class="st14" d="M147.9,137.6c0-0.3,0.2-0.4,0.3-0.5c1.2-1.3,2.9-2.2,4.7-2.3c0.4,0.4,1,0.5,1.3,1c0.3,0.5,0.4,0.8,0,1.1
	c-1.3,1.2-2.2,2.8-2.7,4.5c-0.1,0.4-0.5,0.7-0.9,0.6c0,0-0.1,0-0.1,0c-1.9-0.4-3.1-2.2-2.7-4.1C147.9,137.7,147.9,137.6,147.9,137.6
	z"/>
<path class="st6" d="M173.6,114.6c-2.7-1.5-5.5-2.8-8.4-4c-1.8-0.8-3.6-1.5-5.5-2.1c-0.1,0-0.3-0.1-0.4-0.1
	c-0.5-0.9-1.1-1.6-1.8-2.3c2.3,0.7,4.5,1.5,6.7,2.4c3.8,1.5,7.5,3.3,11.1,5.2c0.2,0.1,0.4,0.2,0.5,0.4L173.6,114.6z"/>
<path class="st3" d="M216.9,102.2c0.5-0.8,1.1-1.5,1.7-2.2c0.2-0.2,0.4-0.1,0.7-0.1l5.7,0.7c1.2,0.1,2.4,0.3,3.5,0.5
	c0.4,0,0.5,0.2,0.3,0.5c-0.4,0.7-0.9,1.4-1.5,2.1l-6-0.8C219.8,102.6,218.3,102.5,216.9,102.2z"/>
<path class="st13" d="M167,137.8c1.9,0.2,3.3,1.7,3.5,3.6c0.3,2.1-0.5,4.2-2.2,5.5c-0.6,0.5-0.7,0.5-1.1-0.2c-0.6-1.1-1.7-1.8-3-2.1
	c-0.6-0.1-0.7-0.3-0.4-0.8c0.9-1.6,1-3.5,0.3-5.1c-0.1-0.2-0.1-0.3,0-0.4c0.7-0.5,1.7-0.7,2.6-0.5c0,0-0.1,0.1-0.2,0.1
	c-0.9,0.1-1.2,0.5-1,1.5c0.1,0.4,0.1,0.8,0.1,1.2c0,0.8-0.2,1.6-0.4,2.4c-0.1,0.2,0,0.5,0.2,0.6c0,0,0,0,0.1,0
	c0.9,0.7,2.1,0.5,2.8-0.3c0.1-0.1,0.2-0.3,0.3-0.4c1-1.3,0.8-3.2-0.5-4.3c-0.1-0.1-0.1-0.1-0.2-0.1
	C167.6,138.1,167.2,138.2,167,137.8z"/>
<path class="st3" d="M21.5,103.5c-0.6-0.8-1.2-1.6-1.7-2.4l6.6-0.9c0.9-0.1,1.8-0.2,2.7-0.4c0.4-0.1,0.9,0,1.1,0.4
	c0.4,0.7,1.1,1.1,1.3,1.9c-0.1,0-0.1,0.1-0.2,0.1L21.5,103.5z"/>
<path class="st13" d="M150.7,145c-0.2,0.4-0.4,0.7-0.6,1.1c-0.6,0.9-0.3,1.6,0.5,2.3c0.6,0.5,1.1,1,1.5,1.6c0.7,0.8,1.9,0.8,2.7,0.2
	c1.4-0.7,2.2-2.2,2.1-3.8c-0.1-0.7-0.4-1.3-0.9-1.8c-0.2-0.2-0.5-0.2-0.4-0.5c1.5,0.5,2.7,1.8,2.8,3.4c0,2.5-1.4,4.8-3.8,5.8
	c-0.9,0.3-1,0.3-1.5-0.5c-1.1-1.8-2.5-3.4-4-4.9c-0.3-0.2-0.4-0.7-0.2-1c0,0,0,0,0,0C149.4,146,150,145.4,150.7,145z"/>
<path class="st11" d="M154.5,124.1c0-0.5-0.2-1-0.1-1.5c0-0.5,0.3-0.5,0.6-0.3c0.3,0.2,0.6,0.4,0.9,0.7c0.3,0.4,0.5,0.2,0.6-0.2
	c0.2-1.5,1.3-2.4,2-3.6c0.1-0.3,0.3,0,0.4,0.1c0.8,1.1,1.4,2.3,1.9,3.6c0.3,0.5,0.4,1.1,0.5,1.7c-0.6,0.3-1.2,0.6-1.7,1
	c-0.3,0.2-0.4,0.2-0.5-0.2c-0.1-1.4-0.2-2.9-0.2-4.4c0-0.3,0-0.6,0-0.9c-0.2,0.2-0.3,0.5-0.3,0.7c-0.2,1.8-0.3,3.6-0.3,5.4
	c0,0.3-0.1,0.4-0.4,0.4c-0.4,0-0.9,0-1.3,0.1c-0.2,0.1-0.3,0-0.4-0.2C155.6,125.6,155.1,124.8,154.5,124.1z"/>
<path class="st13" d="M154.7,139.1c-0.5,1.7-0.3,2.3,1.6,3c0.5,0.2,0.9,0.4,1.3,0.7c1.3,1.1,2.3,0.7,3.3-0.3c1-0.9,1.4-2.3,1.1-3.7
	c-0.2-1-1-1.8-2-2.2c-0.1,0-0.3,0-0.4-0.2c2.2,0.1,4,2,3.9,4.2c0,0.4-0.1,0.8-0.2,1.1c-0.6,1.9-2,3.4-3.9,4c-0.3,0.1-0.5,0-0.7-0.3
	c-0.9-1.8-2.7-2.9-4.7-2.8c-0.2,0-0.4,0-0.4-0.3C153.5,141.3,153.9,140,154.7,139.1z"/>
<path class="st13" d="M162.7,125.2c1.3-0.4,2.6-0.1,3.6,0.9c1.3,1.2,1.8,3.2,1,4.8c-0.2,0.4-0.3,0.5-0.8,0.4c-1.1-0.3-2.2-0.3-3.2,0
	c-0.4,0.1-0.6,0.1-0.7-0.4c-0.2-1.7-1.3-3.1-2.9-3.7c-0.5-0.2-0.4-0.4-0.1-0.7c0.4-0.3,0.4-0.4,0.7-0.4c0,0.4,0.2,0.7,0.5,0.9
	c0.5,0.4,1,0.8,1.4,1.3c0.6,0.6,1.1,0.7,1.7,0.4c0.8-0.4,1.3-1.2,1.2-2.1c-0.3-0.8-1-1.3-1.8-1.3
	C163.2,125.3,162.9,125.4,162.7,125.2z"/>
<path class="st13" d="M153,130.6c0,0.2,0,0.4,0,0.6c0,0.5,0.3,1,0.9,1.1c1,0.2,1.9,0.7,2.6,1.3c0.9,0.8,1.2,0.8,2.3,0.1
	c1-0.6,1.7-1.6,1.8-2.7c0.1-1.4-0.7-2.8-2.1-3.2c-0.2,0-0.4,0-0.4-0.3c1.7,0.1,3.1,1.2,3.6,2.8c0.3,2-0.6,3.9-2.1,5.1
	c-0.7,0.4-1.5,0.3-2.2,0.6c-0.2,0.1-0.3-0.2-0.4-0.3c-0.9-1.3-2.4-2.1-4-2c-0.2,0-0.5,0-0.5-0.3C152.1,132.5,152.3,131.5,153,130.6z
	"/>
<path class="st2" d="M130.1,143.5c0.5,0,1,0,1.5,0.1c1.9,0.4,3.9,0.2,5.8,0.7c0.9,0.2,1.7,0.5,2.5,1.1c0.3,0.2,0.5,0.5,0.5,0.8
	c-3.2,0.4-6.4,0.4-9.5,0.2c-0.4,0-0.5-0.1-0.4-0.5c0.1-0.4,0-0.5,0.1-0.7C131.1,144.4,130.6,143.9,130.1,143.5z"/>
<path class="st14" d="M146.9,125.1c1.4-1.3,3.4-1.8,5.2-1.2c0.5,0.2,1,0.5,1.4,0.9c0,0.1,0,0.3,0,0.4c0.2,0.8,0,1.6-0.5,2.2
	c-0.2,0.3-0.6,0.6-1,0.3c-1.3-0.7-2.9-1-4.4-0.8c-1.3,0-1.3-0.1-0.9-1.3c0-0.1,0-0.2,0-0.3v-0.1L146.9,125.1z"/>
<path class="st8" d="M141.9,131.5c0.9-2.6,0.9-5.3,2.3-7.8c0.4-1,1-1.9,1.9-2.6c1.1-0.8,2.6-0.7,3.5,0.2c0.3,0.4,0.5,0.8,0.5,1.2
	c-2.8,0.1-5.2,1.8-6.1,4.5c-0.2,0.5-0.4,1-0.3,1.6c0.1,1.2-0.9,1.9-1.3,2.8C142.3,131.7,142.1,131.7,141.9,131.5z"/>
<path class="st11" d="M165.4,124.4c0-0.7,0.6-1.1,0.9-1.7c0.1-0.2,0.3,0,0.3,0.2c0,0.3,0.1,0.6,0.2,0.9c0.2,0.3,0.4,0.5,0.7,0
	c0.9-1.4,2.3-2.5,3.8-3.2c0.8-0.3,1.5-0.7,2.2-1.2c0.1-0.1,0.3-0.2,0.5-0.2c-1.3,2.1-2.8,4.1-4.2,6.1c-0.4,0.5-0.8,1.1-1.2,1.6
	c-0.1,0.2-0.3,0.4-0.5,0C167.5,125.7,166.6,124.9,165.4,124.4z"/>
<path class="st13" d="M147.9,137.6c-0.5,1.9,0.6,3.8,2.5,4.2c0.1,0,0.1,0,0.2,0c0.4,0.2,0.8,0,1-0.4c0,0,0-0.1,0-0.1
	c0.5-1.7,1.4-3.3,2.7-4.5c0.4-0.3,0.3-0.7,0-1.1s-0.9-0.6-1.3-1c1-0.2,2,0.1,2.7,0.9c0.1,0.1,0.1,0.1,0.2,0.2
	c0.6,0.7,0.6,0.7-0.2,1.2c-1.8,1.2-3,3.2-3,5.3c0,0.4-0.1,0.6-0.5,0.6c-0.1,0-0.2,0.1-0.4,0.1c-0.6,0.4-1.4,0.4-2,0
	c-0.3-0.2-0.7-0.3-1-0.3c-0.6,0-0.8-0.3-1.1-0.8c-0.8-1.3-0.8-3,0-4.3C147.8,137.7,147.9,137.6,147.9,137.6z"/>
<path class="st10" d="M126.5,145.3c0.5,0.5,0.4,0.8-0.2,1.2c-1.3,1-2.3,2.5-2.7,4.1c-1.1,3.6-2.2,7.2-3.5,10.8
	c-0.6,1.6-1.4,3.1-2.5,4.5c-0.2,0.3-0.5,0.6-0.2,1c0.3,0.4,0,0.4-0.2,0.5c-0.7,0-1.4-0.2-1.9-0.7c-0.1-0.2-0.1-0.3,0-0.4
	c2.9-1.6,4-4.4,5-7.3c0.9-2.7,1.7-5.3,2.5-8c0.5-2,1.6-3.8,3.2-5.2L126.5,145.3z"/>
<path class="st3" d="M99.4,135.9c0.8-0.1,1.6-0.1,2.4-0.1c0.8,0,1.5,0.3,2,0.9c0.3,0.4,0.3,1-0.1,1.3c-1,0.9-2.1,1.6-3.4,1.9
	c-1.8,0.5-3.7,0.4-5.3-0.3c-0.8-0.3-1.4-0.8-1.9-1.5c-0.2-0.4-0.2-0.9,0-1.3c0.2-0.4,0.7-0.7,1.1-0.6c0.7,0.1,1.4,0.3,2.2,0.4
	c0,0.4,0,1-0.3,1.2c-0.3,0.2-0.8-0.3-1.1-0.5c-0.3-0.3-0.8-0.7-1.3-0.3c-0.4,0.4,0,0.8,0.3,1.2c0.4,0.5,1,0.9,1.7,1.1
	c2.3,0.9,4.9,0.5,6.9-1c0.1,0,0.1-0.1,0.2-0.1c0.2-0.2,0.5-0.4,0.3-0.7c-0.2-0.3-0.5,0-0.7,0.1c-0.6,0.3-1.2,0.6-1.9,0.8
	c-0.4,0.1-0.6,0-0.7-0.4C99.6,137.2,99.5,136.6,99.4,135.9z"/>
<path class="st10" d="M128.4,144.8c0.3,0.2,0.7,0.4,1.1,0.4c0.1,0,0.3,0,0.3,0.2s-0.1,0.3-0.3,0.3c-0.2,0-0.4,0.1-0.7,0.1
	c0,0.1,0.1,0.2,0.2,0.2c0.9,0.1,1,0.9,1.1,1.5c0.7,2.9,0.6,6-0.2,8.8c-0.3,1.3-0.7,2.7-1.1,4.1c-0.2,0.5-0.2,1,0,1.5
	c0.2,0.5,0,0.7-0.6,0.6c-0.3,0-0.6-0.2-0.9-0.4c-0.5-0.4-0.4-0.6,0.1-0.9c0.4-0.2,0.7-0.6,0.7-1c0.6-1.8,1-3.7,1.3-5.6
	c0.5-2.3,0.4-4.7-0.3-7c-0.2-0.7-0.6-1.4-1.2-1.8c-0.5-0.7-0.6-1.7-0.3-2.5c0.1-0.1,0.2-0.2,0.4-0.2c0.2,0,0.4,0.1,0.6,0.2
	c0.4,0.2,0.9,0.4,0.9,0.8s-0.6,0.3-0.9,0.4L128.4,144.8z"/>
<path class="st14" d="M167,137.8c0.2,0.4,0.6,0.3,0.9,0.5c1.4,0.9,1.8,2.8,0.8,4.2c0,0.1-0.1,0.1-0.1,0.2c-0.4,1-1.6,1.5-2.6,1
	c-0.2-0.1-0.3-0.2-0.4-0.3c-0.2-0.1-0.4-0.3-0.3-0.5c0,0,0,0,0-0.1c0.3-0.8,0.4-1.6,0.4-2.4c0-0.4-0.1-0.8-0.1-1.2
	c-0.1-0.9,0.1-1.3,1-1.5c0,0,0.1,0,0.2-0.1L167,137.8z"/>
<path class="st13" d="M164.9,132c1.9-0.2,3.6,1.2,3.8,3.1c0.1,0.5,0.2,1,0.1,1.5c-0.1,0.3-0.2,0.5-0.5,0.3c-1.5-0.5-3.1-0.4-4.5,0.3
	c-0.3,0.1-0.6,0.1-0.8-0.1c-0.6-0.5-1.2-0.9-2-1.1c-0.3-0.1-0.3-0.2-0.1-0.5c0.7-0.8,1.3-1.7,1.5-2.8c0-0.4,0.4-0.6,0.7-0.6
	c0,0,0,0,0,0c-0.5,0.7-0.5,1.5-0.9,2.2c-0.1,0.2-0.5,0.5-0.1,0.7c0.3,0.3,0.6,0.6,1.1,0.4c0.6-0.2,1.2-0.4,1.8-0.4
	c0.5,0.1,1-0.2,1.3-0.6c0.2-0.6,0.1-1.3-0.3-1.8C165.8,132.4,165.3,132.4,164.9,132z"/>
<path class="st13" d="M144,137c0.9-0.3,1.9-0.2,2.8,0.2c0.3,0.1,0.2,0.3,0.1,0.5c-0.8,1.5-0.8,3.3,0,4.8c0.1,0.2,0.2,0.4-0.2,0.4
	c-1.1,0.2-2.1,0.7-3,1.3c-0.3,0.2-0.4,0.1-0.6,0c-1-0.7-1.7-1.7-2-2.8c-0.2-0.6-0.3-1.3-0.9-1.7c-0.1-0.1-0.1-0.2-0.1-0.3
	c0,0,0-0.1,0.1-0.1c0.3-0.3,0.5-0.7,0.9-0.9c-0.3,0.5-0.1,1.2,0.4,1.5c0.5,0.4,0.8,0.9,1,1.5c0.1,0.3,0.3,0.5,0.6,0.5
	c0.5,0.1,1,0,1.5-0.1c0.4-0.1,0.7-0.5,0.7-1c-0.1-0.8,0-1.6,0.2-2.3c0.3-1-0.1-1.3-1.1-1.4C144.3,137.1,144.1,137.1,144,137z"/>
<path class="st13" d="M143.9,131.3c0,0.6-0.3,1.2-0.1,1.9c0.3,0.9,1,1.5,1.9,1.5c1.7,0.2,3.4-0.6,4.4-2.1c1-1,0.9-2.7-0.1-3.7
	c0,0,0,0-0.1-0.1c0,0,0-0.1,0-0.2c0.8,0.1,1.5,0.6,2,1.2c0.2,0.2,0.1,0.5,0,0.7c-0.4,0.9-0.5,1.8-0.3,2.8c0.1,0.3,0,0.5-0.4,0.7
	c-1.2,0.4-2.4,1-3.2,2c-0.2,0.3-0.5,0.4-0.8,0.2c0,0,0,0,0,0c-0.7-0.3-1.5-0.5-2.3-0.4c-1.1,0-1.4-0.1-1.7-1.1
	C142.9,133.6,143.2,132.3,143.9,131.3z"/>
<path class="st10" d="M97.3,137.5c0.2-1.6,0.2-3.3,0-4.9c0-0.2,0-0.4,0.1-0.6c0.1-0.3,0.5-0.6,0-0.8c-0.5-0.2-0.5,0.3-0.7,0.5
	c-0.4,0.7-0.8,1.4-1.3,2c-0.4,0.5-0.8,0.9-1.3,1.1c-0.7,0.3-1.5,0.2-2.2-0.3c-0.1-0.1-0.1-0.2-0.1-0.3c0-0.2,0.2-0.2,0.3-0.1
	c1.7,0.6,2.5-0.5,3.2-1.7c0.6-0.8,1-1.6,1.3-2.6c0.2-0.6,0.6-0.7,1.2-0.4c0.2,0.1,0.5,0.3,0.7,0.5c0.3,0.1,0.4,0.5,0.3,0.8
	c-0.9,2.4-0.5,4.9-0.3,7.3c0,0.7-0.3,0.7-0.7,0.7c-0.4,0-0.8,0-0.7-0.6C97.3,137.9,97.3,137.7,97.3,137.5z"/>
<path class="st6" d="M216.9,102.2c1.4,0.3,2.9,0.4,4.4,0.6l6,0.8c-0.2,0.6-0.6,1.1-1,1.5c-1.9-0.3-3.8-0.5-5.7-0.8
	c-1.7-0.2-3.3-0.4-5-0.6C215.9,103.1,216.4,102.6,216.9,102.2z"/>
<path class="st14" d="M140.9,132.6l0.8,0.2c0.2,0,0.4,0.3,0.3,0.5c0,0.7,0,1.4,0.1,2.1c-0.8,0.3-1.6,0.9-2.2,1.5
	c-0.2,0.2-0.3,0.4-0.6,0.1c-0.9-0.7-1.8-1.2-2.8-1.5c-0.3-0.1-0.3-0.2-0.1-0.5c0.5-0.7,1.2-1.4,2-1.8
	C139.1,133,140,132.7,140.9,132.6z"/>
<path class="st4" d="M108.4,103.5c1.3-0.3,2.6-0.5,3.9-0.6c2.1-0.3,4.1-0.4,6.2-0.5c-1.1,0.5-2.1,1.2-3,2.1c-0.9,1.2-2.1,1-3.3,1.2
	c-0.1,0-0.3,0-0.4-0.1C110.8,104.9,109.6,104.1,108.4,103.5z"/>
<path class="st6" d="M21.5,103.5l9.8-1.3c0.1,0,0.1-0.1,0.2-0.1c0.5,0.4,1,0.9,1.3,1.5l-4.7,0.6l-5.6,0.7
	C22.1,104.6,21.8,104.1,21.5,103.5z"/>
<path class="st14" d="M144,137c0.1,0.1,0.3,0.1,0.4,0.1c1,0,1.3,0.4,1.1,1.4c-0.2,0.8-0.3,1.5-0.2,2.3c0.1,0.4-0.2,0.9-0.7,1
	c-0.5,0.1-1,0.2-1.5,0.1c-0.3,0-0.5-0.2-0.6-0.5c-0.2-0.6-0.5-1.1-1-1.5c-0.5-0.3-0.7-1-0.4-1.5C141.9,137.7,142.9,137.2,144,137z"
	/>
<path class="st13" d="M158.2,155c-0.1,1.5-0.8,3-2,3.9c-0.2,0.2-0.4,0.2-0.5,0c-0.4-1.2-1.3-2.2-1.6-3.5c-0.1-0.3-0.1-0.6,0.3-0.7
	c1.1-0.2,2-0.8,2.7-1.5c0.4-0.4,0.6-0.2,0.7,0.2C158.1,154,158.2,154.5,158.2,155z"/>
<path class="st13" d="M140.9,132.6c-0.9,0.2-1.7,0.4-2.6,0.7c-0.8,0.4-1.5,1-2,1.8c-0.2,0.3-0.1,0.4,0.1,0.5c1,0.3,2,0.9,2.8,1.5
	c0.3,0.2,0.5,0,0.6-0.1c0.6-0.7,1.4-1.2,2.2-1.5c0.5,0.8,0.5,0.8-0.3,1.3c-0.9,0.5-1.8,1.1-2.4,2c-0.2,0.2-0.3,0.3-0.6,0.1
	c-1.1-0.8-2.3-1.6-3.5-2.2c-0.2-0.1-0.3-0.4-0.2-0.7c0.9-2.3,3.1-3.6,5.6-3.4C140.7,132.5,140.8,132.5,140.9,132.6z"/>
<path class="st13" d="M146.7,125.3c0,0.1,0,0.2,0,0.3c-0.4,1.2-0.3,1.3,0.9,1.3c1.5-0.2,3,0.1,4.4,0.8c0.4,0.3,0.8,0,1-0.3
	c0.5-0.6,0.7-1.4,0.5-2.2c0-0.1,0-0.3,0-0.4c0.7,0.5,1.2,1.2,1.4,2c0.1,0.2,0,0.5-0.2,0.7c-0.7,0.4-1.4,1-1.9,1.6
	c-0.2,0.2-0.3,0.2-0.5,0c-1.8-1.7-4.5-2-6.7-0.7h-0.1c-0.3,0.2-0.6,0.3-0.5-0.3C145.2,127,145.8,126,146.7,125.3z"/>
<path class="st8" d="M138.8,110.2c-0.8-1.2-1.1-2.7-0.9-4.2c0-1.6,0.5-3.1,1.3-4.4c0.6-1,1.5-1.8,2.7-2c0.1,0.2,0.2,0.5,0.3,0.7
	c0.1,0.9,0.1,1.3-1,1.2c-0.5,0-0.9,0.2-1.1,0.6l-0.7,1.2c-0.1-0.5,0.2-1,0-1.5c-0.4,0.8-0.7,1.6-0.8,2.5c-0.4,1.6-0.1,3.2,0.7,4.6
	c0.2,0.2,0.4,0.5,0.6,0.7c0.1,0.1,0.2,0.3,0.2,0.5s-0.3,0.2-0.4,0.2C139.3,110.3,139,110.3,138.8,110.2z"/>
<path class="st14" d="M162.7,125.2c0.2,0.2,0.5,0.1,0.7,0.1c0.8,0,1.5,0.6,1.8,1.3c0.1,0.9-0.4,1.7-1.2,2.1
	c-0.6,0.3-1.1,0.2-1.7-0.4c-0.4-0.5-0.9-0.9-1.4-1.3c-0.3-0.2-0.5-0.6-0.5-0.9C161.1,125.6,161.9,125.3,162.7,125.2z"/>
<path class="st14" d="M164.9,132c0.4,0.3,0.9,0.4,1.2,0.8c0.4,0.5,0.5,1.2,0.3,1.8c-0.3,0.4-0.8,0.7-1.3,0.6c-0.6,0-1.3,0.1-1.8,0.4
	c-0.6,0.2-0.8-0.2-1.1-0.4s0-0.5,0.1-0.7c0.4-0.7,0.4-1.6,0.9-2.2c0.2-0.1,0.4-0.2,0.6-0.2h0.2L164.9,132z"/>
<path class="st6" d="M89.4,106.5c2.7-1,5.4-1.8,8.1-2.5v1.6c-1.4,0.4-2.9,0.7-4.3,1.2C92,106.7,90.7,106.5,89.4,106.5z"/>
<path class="st8" d="M140.3,97.7c-2.3,0.3-3.5,2-4.3,3.8c-0.8,1.8-1.3,3.8-1.5,5.8c-0.1,1.3-1.1,2.3-2.4,2.5c-0.4-0.5-1-0.8-1.6-1.1
	c0.8-0.3,1.5-0.2,2.1-0.6c0.2,0.3-0.2,0.6,0,0.9c0.2,0,0.2-0.3,0.3-0.4c0.9-1.6,1.5-3.2,2-4.9c0.6-1.8,1.4-3.5,2.5-5.1
	c0.8-1.1,1.6-1.5,2.7-1C140.2,97.5,140.2,97.6,140.3,97.7z"/>
<path class="st6" d="M74.2,138.3l-3.3-3.6l5.3,0.6C75.5,136.3,74.8,137.3,74.2,138.3z"/>
<path class="st7" d="M120.4,156.1c-0.5,0.1-1,0.4-1.3,0.7c-0.3,0.3-0.6,0.5-1,0.6l0.5-1.3c0.5-1.3,0.8-2.7,0.9-4.1
	c0-0.1,0.1-0.2,0.1-0.3c0.5,0.7,1.3,1.1,1.8,1.8C121.1,154.4,120.8,155.3,120.4,156.1z"/>
<path class="st12" d="M129.9,163.3c0,0.1,0,0.3,0,0.4c0.3,0.5,0.2,0.7-0.4,0.8c-1.4,0.1-2.8-0.5-3.6-1.7c-0.2-0.3-0.3-0.6-0.5-0.8
	c-0.5-0.6-0.7-1.5-0.4-2.2c0.2-0.5,1.3-0.8,2.1-0.7l0.5,0.1c0,1-0.7,1.5-1.5,1.9c-0.1,0.1-0.3,0-0.3-0.1c-0.1-0.1-0.3-0.4-0.4-0.6
	c-0.2,0.4-0.1,0.8,0.2,1.1c0.5,1.2,1.7,2,3,2.1C129,163.6,129.5,163.4,129.9,163.3z"/>
<path class="st13" d="M147.4,146.9c-1.2,0-2.4-0.6-3.2-1.6c-0.1-0.1-0.3-0.3,0-0.5c1.4-1.1,3.2-1.5,4.8-1c0.2,0.1,0.6,0.1,0.6,0.4
	s-0.3,0.3-0.4,0.5c-0.5,0.5-1,1.1-1.3,1.8C147.8,146.8,147.6,147,147.4,146.9z M147.4,144c-0.4,0-0.8,0-1.2,0.2
	c-0.2,0.1-0.3,0.2-0.3,0.4c0,0.2,0.1,0.3,0.3,0.4c0.3,0.1,0.5,0.3,0.7,0.5c0.9,0.7,0.9,0.7,1.4-0.3l0.1-0.2c0.3-0.6,0.1-0.9-0.5-1
	C147.7,144,147.5,144,147.4,144L147.4,144z"/>
<path class="st4" d="M93.3,106.9c1.4-0.5,2.8-0.9,4.3-1.2c0.1,0.7,0.2,1.4,0.4,2.1c0.1,0.7,0,0.9-0.7,0.8c-0.9,0-1.8-0.4-2.4-1
	C94.5,107.1,93.8,107.2,93.3,106.9z"/>
<path class="st12" d="M113.5,164.7c0-0.5,0.5-0.5,0.7-0.8h0.5c0.3,0,0.6,0.2,1.1,0.1c-0.7-0.6-1.6-1-2.5-1.3c-0.2,0-0.3,0-0.4-0.3
	c0.5,0,1.1,0.1,1.5,0.4c0.6,0.3,1.1,0.6,1.7,0.9c0.3,0.2,0.3,0.3,0.1,0.6c-0.5,0.8-1.3,1-2,1.5c-0.2,0.1-0.4-0.1-0.6-0.2
	C113.6,165.4,113.5,165.1,113.5,164.7L113.5,164.7C113.7,164.8,113.6,164.7,113.5,164.7z"/>
<path class="st10" d="M123,155.4c1.8-0.1,3.7,0.4,5.2,1.3c-0.1,0.8-0.1,0.8-0.8,0.5c-1.2-0.7-2.6-1-3.9-0.9
	C122.7,156.3,122.7,156.3,123,155.4z"/>
<path class="st8" d="M133.3,104.7c-0.7-0.1-1.4,0.2-1.9,0.7c-0.4-0.4-0.8-0.9-1.1-1.3c1.1-0.2,2.2-0.5,3.2-0.8
	c0.3-0.1,0.4,0,0.3,0.3C133.7,103.8,133.5,104.3,133.3,104.7z"/>
<path class="st4" d="M90.9,132.7c1.3-0.3,2.7-0.5,4-0.6c-0.5,0.6-0.9,1.5-1.6,1.4C92.5,133.5,91.5,133.8,90.9,132.7z"/>
<path class="st6" d="M103.4,169.7l-1.6-1.7l2.2-0.5L103.4,169.7z"/>
<path class="st6" d="M147.9,103.4c1.2,0.2,2.3,0.4,3.4,0.8l-2.4,0.5c-0.2,0-0.4,0.1-0.4-0.2C148.4,104,148.2,103.7,147.9,103.4z"/>
<path class="st8" d="M128.2,107.8c0.3-0.8,1-0.7,1.6-0.7c0.6-0.1,1.4,0,2.1-0.1c-0.3,0.3-0.8,0.5-1.2,0.5c-0.6,0.1-1.2,0.2-1.8,0.5
	C128.6,108,128.4,107.8,128.2,107.8z"/>
<path class="st12" d="M131.1,162.5c-0.5-0.1-0.6,0.4-0.9,0.5c-0.5-0.5-0.7-1.1-0.5-1.8c0-0.3,0.1-0.4,0.3-0.1
	C130.4,161.4,130.8,161.9,131.1,162.5z"/>
<path class="st12" d="M118.9,160c-0.2,0.9-0.6,1.9-1.1,2.7C117.9,161.7,118.2,160.7,118.9,160L118.9,160z"/>
<path class="st12" d="M112.6,162.5c-0.5,0.1-1,0.2-1.5,0.1C111.6,162.3,112.2,162.2,112.6,162.5z"/>
<path class="st13" d="M155.4,144c-0.3,0-0.5,0-0.7-0.2C155,143.8,155.3,143.7,155.4,144z"/>
<path class="st11" d="M173.2,121c0,0.1,0,0.2-0.1,0.3C173,121.1,173.1,121,173.2,121z"/>
<path class="st12" d="M118.9,160v-0.2l0,0V160L118.9,160z"/>
<path class="st10" d="M78.4,109.6c0,0.2-0.1,0.2-0.3,0.1C78,109.7,78.2,109.6,78.4,109.6z"/>
<path class="st10" d="M115.6,138.3c0.2-0.1,0.2,0,0.1,0.1S115.6,138.3,115.6,138.3z"/>
<path class="st12" d="M132.1,164.4c-0.1,0-0.1-0.2-0.1-0.3L132.1,164.4z"/>
<path class="st13" d="M158.9,136.5h-0.3C158.7,136.4,158.8,136.4,158.9,136.5z"/>
<path class="st8" d="M140.7,108.5L140.7,108.5L140.7,108.5z"/>
<path class="st3" d="M115.3,140.9l-0.1-0.1C115.3,140.8,115.4,140.8,115.3,140.9z"/>
<path class="st2" d="M127,143.5l0.1-0.1L127,143.5z"/>
<path class="st13" d="M164,132h-0.2H164z"/>
<path class="st13" d="M146.9,125.1L146.9,125.1C146.8,125.1,146.8,125.1,146.9,125.1z"/>
<path class="st13" d="M153.1,130.3l-0.1,0.2L153.1,130.3z"/>
<path class="st9" d="M43,95.8c-0.4,0-0.8,0.2-1.1,0.4l-0.5,0.3c-1.3,0.9-1,1-2-0.4c-0.3-0.5-0.3-0.8,0.2-1.1c2-1.3,4-2.7,5.9-4.1
	c1-0.7,2-1.3,3-2.1c0.4-0.3,0.7-0.3,1,0.2c0.8,1.2,1.1,1.1-0.4,2l-0.1,0.1c-1.3,0.9-1.3,0.9-0.5,2.2c1.1,1.7,2.1,3.4,3.2,5.1
	c0.6,0.9,0.9,1,1.8,0.4l4.2-2.8c0.7-0.4,0.7-0.6,0.3-1.3c-1-1.8-2-3.6-3-5.3c-0.1-0.2-0.3-0.4-0.4-0.7c-0.2-0.3-0.6-0.5-0.9-0.3
	c0,0-0.1,0-0.1,0.1l-1.3,0.8c-0.2,0.2-0.6,0.1-0.7-0.1c0,0-0.1-0.1-0.1-0.1c-0.9-1.5-0.9-1.3,0.5-2.2l8.3-4.8
	c0.7-0.4,0.8-0.4,1.2,0.3c0.7,1.2,1,1.1-0.5,2s-1.7,1-0.7,2.7l9,15.7c0.9,1.5,0.9,1.5,2.4,0.7c1.1-0.6,1.1-0.6,1.7,0.5
	c0.4,0.8,0.4,0.9-0.4,1.3c-2.8,1.4-5.5,2.9-8.2,4.6c-0.5,0.3-0.8,0.3-1.1-0.3c-0.8-1.3-0.8-1.1,0.4-1.9c0.9-0.6,1-0.7,0.5-1.7
	c-1.3-2.4-2.8-4.9-4.2-7.3c-0.1-0.3-0.5-0.5-0.9-0.4c-0.1,0-0.2,0.1-0.2,0.1l-4.5,3c-0.3,0.1-0.5,0.5-0.3,0.9c0,0.1,0.1,0.1,0.1,0.2
	c1.5,2.4,3.1,4.8,4.6,7.1c0.5,0.7,0.8,0.7,1.5,0.3l0.2-0.1c1.3-0.9,1.4-0.8,2.2,0.6c0.2,0.2,0.1,0.5-0.1,0.7c0,0-0.1,0-0.1,0.1
	c-2.8,1.8-5.6,3.8-8.3,5.8c-0.2,0.2-0.6,0.3-0.8,0c-0.1,0-0.1-0.1-0.1-0.2c-0.9-1.2-0.9-1.2,0.3-2.1c1.2-0.9,1.3-1.1,0.4-2.4
	l-10-15.4C43.9,96.4,43.7,95.8,43,95.8z"/>
<path class="st9" d="M200.2,98.5l2.8-3.8c0.2-0.3,0.2-0.7-0.1-1c0,0-0.1,0-0.1-0.1l-1.2-1c-0.2-0.1-0.3-0.4-0.2-0.7c0,0,0,0,0-0.1
	c0.7-1.2,0.9-1.2,2-0.5c1.7,1.1,3.4,2.2,5,3.3c0.5,0.3,0.5,0.6,0.2,1.1c-4.5,6-8.9,12-13.4,18c-0.7,1-0.7,1.1,0.2,1.9
	c0.3,0.1,0.4,0.5,0.3,0.7c0,0.1-0.1,0.1-0.1,0.2c-0.8,1.1-0.8,1.2-1.9,0.3s-2.1-1.6-3.2-2.4c-0.7-0.5-1-1-0.7-1.8
	c0.2-0.4,0.1-0.5-0.4-0.6c-1.8-0.2-3.5-0.7-5.1-1.6c-0.8-0.4-1.4-1.2-1.5-2.1c-0.3-2.1,0.1-4.2,1.1-6.1c1.1-2.8,3-5.2,5.5-6.9
	c3-2.1,7.2-1.6,9.6,1.2C199.5,97.2,199.9,97.8,200.2,98.5z M188,107.6c0,1.8,0.5,2.3,1.9,2.5c1,0.1,1.9-0.3,2.4-1.1
	c1.1-1.6,2.3-3.1,3.4-4.7c0.8-1,1.5-2.1,2.2-3.2c0.6-1,0.3-2.3-0.7-2.9c-0.2-0.1-0.3-0.2-0.5-0.2c-0.9-0.3-1.9-0.2-2.8,0.3
	c-1.9,1.3-3.5,3.1-4.5,5.1C188.7,104.7,188.2,106.1,188,107.6z"/>
<path class="st9" d="M122.2,93.2c-1.3,0-2.5,0-3.8,0c-0.5,0-0.6-0.2-0.7-0.6c0-0.1,0-0.2,0-0.3c-0.1-1.1,0-1.1,0.9-1.1
	c0.6,0,0.8-0.3,0.8-0.9c-0.1-3.5-0.2-7-0.4-10.5c0-0.3-0.1-0.6-0.2-0.9c-0.1-1.1-1.1-1.8-2.2-1.7c-0.2,0-0.4,0.1-0.6,0.2h-0.2
	c-1.8,0.5-2,0.8-1.9,2.7c0.3,3.4,0.6,6.9,0.9,10.3c0.1,0.9,0.3,1.1,1.2,1c0.5,0,0.7,0.1,0.8,0.7c0.2,1.5,0.1,1.3-1.1,1.3
	c-2.2,0.2-4.4,0.4-6.7,0.7c-0.3,0-0.7,0.2-0.9-0.2c-0.2-0.5-0.3-1-0.1-1.5c0.1-0.3,0.4-0.2,0.7-0.3c0.9-0.1,1.1-0.2,1-1.2
	c-0.3-3.1-0.6-6.1-0.9-9.2c-0.1-1.2-0.2-2.4-0.4-3.6c-0.1-1-0.3-1.1-1.3-1h-0.4c-0.4,0-0.7-0.1-0.7-0.6c0-0.4,0-0.5-0.1-0.8
	c-0.1-0.3,0.1-0.6,0.5-0.7c1.8-0.3,3.7-0.6,5.5-0.9c0.4-0.2,0.9,0.1,1,0.5c0,0,0,0.1,0,0.1c0,0.2,0.2,0.3,0.3,0.5s0.3,0.4,0.6,0.2
	c1.9-1.1,4-1.7,6.2-1.9c1,0,2,0.5,2.6,1.3c1,1.3,1.5,2.9,1.4,4.5c0.1,3.3,0.2,6.7,0.3,9.9c0,0.2,0,0.4,0,0.6c0.1,1,0.3,1.1,1.3,1.1
	c0.6,0,0.9,0.2,0.8,0.8c0,0.2,0,0.3,0,0.5c0.1,0.6-0.2,0.8-0.7,0.7c-1.1,0-2.2,0-3.3,0H122L122.2,93.2z"/>
<path class="st9" d="M92.7,82.3l0.7,2.7c0.7,2.8,1.5,5.6,2.2,8.4c0.3,1,0.4,1.1,1.4,0.9c0.4-0.1,0.7,0,0.8,0.4
	c0.4,1.5,0.5,1.3-0.9,1.6c-2.2,0.5-4.3,1.1-6.5,1.8c-0.8,0.3-0.8,0.3-1.1-0.6c0-0.1,0-0.2-0.1-0.3c-0.2-0.5-0.1-0.9,0.5-1.1
	c1.1-0.3,1.1-0.5,0.8-1.5c-1-3.8-2-7.6-3.1-11.4c-0.1-0.2-0.1-0.4-0.2-0.6C87,81.8,86.8,81.7,86,82c-0.8,0.3-0.8,0.2-1.2-0.6
	c-0.3-0.9-0.2-1,0.4-1.3c1.7-0.7,3.3-1.3,5-2c0.6-0.3,1-0.2,1.3,0.4c0.1,0.1,0.2,0.2,0.3,0.4c0.2,0.4,0.4,0.3,0.7,0.1
	c1.7-1.4,3.7-2.3,5.8-2.8c1.1-0.2,2.3,0.3,3,1.2c1.1,1.2,1.8,2.8,2,4.4c0.7,3.3,1.3,6.5,2,9.8c0.2,1,0.3,1.1,1.3,0.9
	c0.5-0.1,0.7,0.1,0.8,0.6c0.2,1.3,0.2,1.3-1.1,1.4c-2.2,0.3-4.4,0.7-6.6,1.2c-0.6,0.1-0.8-0.1-0.9-0.6c0-0.2-0.1-0.4-0.1-0.6
	c-0.1-0.5,0-0.7,0.5-0.8c1.1-0.3,1.2-0.3,0.9-1.5c-0.6-3-1.3-6-1.9-9.1c-0.2-1.1-0.7-2.1-1.6-2.8c-0.4-0.3-0.9-0.4-1.3-0.2
	c-0.8,0.3-1.5,0.7-2.1,1.2C92.9,81.5,92.7,81.9,92.7,82.3z"/>
<path class="st9" d="M136.6,74.2c0.7,0,1.4,0,2.1,0c2.3,0.2,4.2,2.1,4.3,4.4c0,1.9-0.1,3.8-0.5,5.6c-0.3,2.3-0.6,4.6-0.9,6.9
	c-0.1,1-0.1,1.1,0.9,1.2c0.4,0.1,0.6,0.3,0.6,0.7c0,0.2,0,0.3,0,0.5c-0.1,0.9-0.2,0.9-1.1,0.8c-1.4-0.2-2.9-0.4-4.3-0.6
	c-0.7-0.1-1.1-0.3-1.2-1c-0.1-0.7-0.3-0.6-0.8-0.4c-1.4,0.6-2.9,1-4.5,1c-0.9,0-1.8-0.4-2.4-1c-2.2-2.5-2-6.3,0.5-8.5
	c0.7-0.6,1.5-1,2.3-1.3c1.8-0.5,3.6-0.7,5.4-0.5c0.5,0,0.6,0,0.6-0.5c0.1-1,0.1-2,0-3.1c0-0.1-0.1-0.3-0.1-0.4
	c-0.2-1.2-1.4-1.9-2.5-1.7c-0.2,0-0.4,0.1-0.6,0.2c-0.2,0.1-0.2,0.3-0.3,0.5c-0.3,0.8-0.7,1.5-1.3,2.1c-0.2,0.2-0.4,0.4-0.7,0.5
	c-1.2,0.6-1.9,0.3-2.3-1c-0.4-1.1-0.4-2.2-0.1-3.3c0.1-0.3,0.4-0.6,0.7-0.7C132.3,74.4,134.4,74.2,136.6,74.2z M136.2,84.4
	c-0.7-0.1-1.4,0.1-2.1,0.5c-1.8,1.3-2.1,3.9-0.8,5.6c0,0,0.1,0.1,0.1,0.1c0.2,0.2,0.4,0.2,0.6,0.2c1.3,0.1,2.5-0.9,2.7-2.2
	c0.2-1.2,0.3-2.4,0.5-3.6c0.1-0.6-0.1-0.8-0.6-0.7H136.2z"/>
<path class="st9" d="M72.9,88.2c0.1,1.2-0.3,2.3-1.1,3.2c-0.4,0.5-1.1,0.7-1.6,0.3c-0.1,0-0.1-0.1-0.2-0.1c-1-0.8-1.7-2-1.9-3.2
	c-0.1-0.5,0.3-0.7,0.5-1c1.2-1.2,2.6-2.2,4-3c0.8-0.5,1.7-0.9,2.6-1.3c2.1-1.1,4.8-0.4,6.1,1.6c0.8,1.3,1.4,2.6,1.9,4
	c1,2.4,1.9,4.8,2.8,7.2c0.1,0.2,0.2,0.5,0.3,0.7c0.1,0.4,0.6,0.7,1,0.6c0,0,0.1,0,0.1-0.1c0.3-0.1,0.7-0.4,0.9,0
	c0.3,0.4,0.5,0.9,0.5,1.5c0,0.2-0.2,0.3-0.4,0.3c-1.6,0.6-3.2,1.1-4.8,1.7c-0.6,0.2-0.9-0.1-1.2-0.4s-0.5-0.4-0.9,0
	c-0.9,1.1-2,2.1-3.3,2.8c-1.4,0.9-3.3,0.8-4.6-0.3c-2.6-1.9-3.2-5.5-1.3-8c0.2-0.3,0.5-0.6,0.8-0.9c1.3-1.3,2.9-2.4,4.6-3.1
	c0.4-0.2,0.5-0.3,0.3-0.8c-0.4-1.2-1-2.2-1.9-3.1c-1.3-1.1-1.9-0.9-3.1,0.3C72.7,87.4,73,87.9,72.9,88.2z M76,96.5
	c0.1,1.4,1,2.6,2.2,3.1c0.4,0.2,0.9,0.2,1.2-0.1c1.2-0.7,1.6-2.1,1.1-3.4c-0.3-1-0.7-1.9-1.1-2.9c-0.4-0.9-0.3-0.8-1.1-0.4
	c-0.4,0.2-0.8,0.4-1.1,0.7C76.3,94.3,75.9,95.4,76,96.5z"/>
<path class="st9" d="M163.4,100c-2.2-0.1-4.3-1-6-2.5c-1.6-1.5-2.3-3.7-1.9-5.8c0.3-2.4,1-4.7,2.2-6.8c2.4-4.4,6.4-5.7,11-3.6
	c3.6,1.2,5.6,5.1,4.5,8.7c-0.5,3-2,5.9-4.2,8C167.6,99.4,165.5,100.1,163.4,100z M160.3,94.9c0,0.2,0,0.3,0,0.4
	c-0.1,0.8,0.3,1.6,1,2c0.8,0.4,1.8,0.2,2.4-0.4c0.6-0.5,1.1-1.1,1.5-1.8c1.4-2.4,2.4-4.9,3.1-7.6c0.3-1,0.4-2.1,0.3-3.1
	c-0.2-1.2-1.4-2-2.6-1.8c-0.4,0.1-0.9,0.3-1.2,0.6c-0.4,0.4-0.7,0.8-1,1.3c-1.1,1.9-2,3.9-2.7,6C160.7,92.1,160.4,93.4,160.3,94.9z"
	/>
<path class="st9" d="M161.5,72.4c0,1.3-0.5,2.5-1.3,3.4c-0.3,0.5-1,0.7-1.6,0.4c-0.1-0.1-0.2-0.2-0.3-0.3c-0.7-0.6-1.1-1.3-1.3-2.1
	c-0.2-0.6-0.4-0.5-0.8-0.2c-0.5,0.5-0.9,1.2-1.1,1.9c-0.6,1.8-0.6,1.8,1.3,2.2l1.5,0.3c0.4,0.1,0.5,0.3,0.4,0.7
	c-0.1,0.2-0.1,0.5-0.2,0.8c0,0.7-0.5,0.8-1,0.6c-0.8-0.2-1.6-0.3-2.4-0.5c-0.4-0.1-0.5,0-0.6,0.4c-1,4.5-1.9,8.9-2.9,13.4
	c-0.1,0.7,0,0.9,0.7,1.1c0.7,0.2,1.1,0.3,1.7,0.4c0.6,0.1,0.6,0.3,0.5,0.7c-0.1,0.2-0.1,0.4-0.1,0.6c0,0.6-0.4,0.7-0.9,0.6
	c-1.9-0.5-3.9-0.9-5.8-1.3c-0.9-0.2-1.8-0.4-2.8-0.5c-0.5-0.1-0.6-0.3-0.5-0.8c0-0.1,0.1-0.3,0.1-0.4c0.2-0.9,0.2-1,1.1-0.8
	c0.6,0.1,0.8-0.2,0.9-0.7l1.3-6.2c0.5-2.4,1-4.8,1.6-7.1c0.1-0.4,0-0.6-0.4-0.7c-0.3,0-0.6-0.1-0.9-0.2c-0.8-0.2-0.8-0.3-0.7-1
	c0.3-1.3,0-1.4,1.6-1c0.6,0.2,0.9,0.1,1.2-0.6c1.1-3.2,3.7-4.5,6.9-4.8c1.6-0.2,3.1,0.2,4.4,1C161.3,71.8,161.5,72.1,161.5,72.4z"/>
<path class="st9" d="M183.9,88.3c0,0.4-0.1,0.8-0.2,1.2s0,0.5,0.4,0.4c0.8-0.1,1.6-0.2,2.4-0.1c1,0,2,0.2,2.8,0.7
	c0.6,0.2,0.9,0.7,0.7,1.3c0,0.1-0.1,0.2-0.2,0.3c-0.5,1.2-1.4,2.3-2.5,3c-0.9,0.5-1.3,0.4-1.9-0.5c-0.3-0.5-0.6-1-0.6-1.6
	c0-0.5-0.1-0.8-0.6-0.9c-0.5-0.2-1.1-0.2-1.5,0.1c-0.3,0.3-0.6,0.7-0.7,1.1l-4.7,9.1c-0.5,0.9-0.4,1.1,0.6,1.6
	c0.4,0.2,0.8,0.4,1.2,0.6c0.3,0.1,0.5,0.4,0.4,0.6c0,0.1,0,0.1-0.1,0.2c-0.7,1.5-0.7,1.2-1.8,0.6c-2.4-1.3-4.8-2.5-7.3-3.6
	c-0.7-0.3-0.8-0.4-0.4-1.1l0.2-0.5c0.2-0.4,0.4-0.6,0.9-0.3l0.3,0.1c0.8,0.4,1,0.3,1.4-0.5c1.1-2.2,2.3-4.5,3.4-6.7
	c0.8-1.6,1.6-3.1,2.4-4.7c0.4-0.8,0.3-1-0.5-1.3l0,0c-1.1-0.5-1.2-1.1-0.3-2c0.2-0.2,0.4-0.2,0.7-0.1l5.5,2.3
	C183.8,87.9,184,88.1,183.9,88.3z"/>
<path class="st6" d="M104.7,142.7l-1.6-0.2c-0.2,0-0.5-0.1-0.5-0.4c-0.1-0.3,0.2-0.4,0.4-0.5c1-0.3,2-0.6,3.1-0.9c0.2,0,0.4,0,0.6,0
	c0.4,0.1,0.7,0.3,0.8,0.7c0.1,0.4-0.3,0.5-0.5,0.7C106.3,142.6,105.5,142.8,104.7,142.7z"/>
<path class="st10" d="M106.3,117c0.8,0.2,1.5,0.6,2.2,1c0.4,0.3,0.6,0.6,0.8,1c0,0-0.1,0.1-0.1,0.1c-2.5-0.6-5.1-1.1-7.6-1.5
	c-2.1-0.4-4.4-0.4-6.5,0.1c-1.8,0.3-3.5,1.2-4.8,2.4c-0.1,0.1-0.2,0.2-0.3,0.4h-0.3h-0.3c-0.4-0.2-0.6-0.6-0.4-1
	c0-0.1,0.1-0.1,0.1-0.2c0.7-1.1,1.6-2.1,2.8-2.7c2.9-1.6,6.3-2,9.5-1.1C103.1,116,104.7,116.5,106.3,117z M108.1,118.5L108.1,118.5
	L108.1,118.5L108.1,118.5c-0.2-0.3-0.5-0.4-0.8-0.5c-1.1-0.4-2.2-0.8-3.3-1.2c-3.1-1.2-6.5-1.5-9.7-0.8c-1.8,0.4-3.3,1.5-4.2,3.1
	c-0.2,0.3-0.3,0.6-0.3,1c1.1-1.4,2.7-2.4,4.5-2.9c2.7-0.7,5.5-0.7,8.2-0.1C104.3,117.6,106.2,118,108.1,118.5L108.1,118.5z"/>
<path class="st10" d="M137.5,141.9c-2-0.3-4-0.4-6-0.7c-2-0.4-4-0.5-5.9-0.2c-1.7,0.3-3.2,1.1-4.3,2.3c-0.3,0.1-0.7,0-1-0.3
	c-0.3-0.1-0.4-0.5-0.3-0.8c0-0.1,0.1-0.2,0.2-0.3c0.7-0.8,1.7-1.5,2.7-1.9c2.9-1.3,6.2-1.5,9.3-0.6c1.6,0.4,3.2,0.9,4.8,1.4
	c0.7,0.3,1.4,0.7,1.9,1.3c-0.4,0.2-0.9,0.1-1.1-0.3c0-0.2-0.1-0.1-0.2-0.2c-0.1-0.3-0.4-0.3-0.5-0.4c-0.7-0.3-1.4-0.5-2.1-0.7
	c-2.7-0.9-5.5-1.2-8.4-1c-1.1,0.1-2.2,0.3-3.2,0.7c-0.7,0.3-1.4,0.8-1.8,1.4c0.4-0.1,0.7-0.3,1.1-0.4c0.8-0.3,1.6-0.6,2.4-0.7
	c1.5-0.2,3-0.3,4.5-0.3c2.2,0,4.4,0.3,6.5,0.8c0.5,0.2,1.1,0.4,1.6,0.5L137.5,141.9z"/>
<path class="st0" d="M122,128.9l1.7,0.8v0.1c-0.1,0-0.2,0-0.3,0c-1.9-0.7-3.9-1-5.9-0.9c-2.1-0.1-4.1-0.1-6.2,0.1
	c-2,0.1-4,0.6-5.9,1.3c-0.1,0-0.2,0-0.3-0.1V130c0.1,0,0.2,0,0.3-0.2l0,0c0.1,0,0.1,0,0.1-0.1l0,0c0.9-0.5,1.7-1,2.7-1.3
	c2-0.7,4.2-0.9,6.3-0.7c2.2,0,4.3,0.3,6.4,0.8c0.2,0.1,0.5,0.1,0.7,0.1l0,0C121.8,128.9,121.9,128.9,122,128.9z"/>
<path class="st10" d="M105.3,130.3c0,0.1,0.1,0.1,0.3,0.1c1.9-0.8,3.9-1.2,5.9-1.3c2.1-0.2,4.1-0.2,6.2-0.1c2-0.1,4,0.3,5.9,0.9
	c0.1,0,0.2,0,0.3,0l0,0c0,0.2,0.1,0.1,0.2,0h0.1c0.2,0,0.3,0.2,0.4,0.3c0.1,0.1,0.3,0.3,0.2,0.5s-0.3,0-0.5,0
	c-1.6-0.6-3.2-0.9-4.9-1c-1.5-0.2-3-0.3-4.5-0.2c-2.3,0-4.6,0.3-6.8,0.9c-0.6,0.2-1.2,0.6-1.6,1c-0.3,0.1-0.7,0-1-0.2
	C105,130.8,104.9,130.6,105.3,130.3z"/>
<path class="st10" d="M121.8,128.7c-0.2,0-0.5,0-0.7-0.1c-2.1-0.5-4.3-0.8-6.4-0.8c-2.1-0.2-4.3,0-6.3,0.7c-0.9,0.4-1.8,0.8-2.7,1.3
	c0.1-0.6,0.6-0.9,1.1-1.2c1.3-0.9,2.9-1.5,4.6-1.5c2-0.1,4.1,0,6.1,0.4c1,0.2,2,0.4,3,0.6C120.9,128.2,121.4,128.4,121.8,128.7z"/>
<path class="st7" d="M89.5,120.5h0.3C89.7,120.6,89.6,120.6,89.5,120.5z"/>
<path class="st10" d="M122,128.9c-0.1,0-0.2,0-0.3-0.1h0.3C122,128.8,122,128.8,122,128.9z"/>
<path class="st10" d="M105.6,129.9c0,0.2-0.1,0.2-0.3,0.2C105.2,130.1,105.4,129.9,105.6,129.9z"/>
<path class="st10" d="M105.7,129.8c0,0.1,0,0.1-0.1,0.1C105.4,129.9,105.6,129.8,105.7,129.8z"/>
<polygon class="st0" points="93,121.6 93,121.6 93,121.6 "/>
<path class="st6" d="M200.4,130.8c0,1.2-0.9,2.1-2.1,2.1c-1.2,0-2.1-0.9-2.1-2.1c0-1.2,0.9-2.1,2.1-2.1
	C199.5,128.6,200.4,129.6,200.4,130.8C200.4,130.8,200.4,130.8,200.4,130.8z M198.3,132.4c0.9,0,1.6-0.7,1.6-1.6
	c0-0.9-0.7-1.6-1.6-1.7c-0.9,0-1.6,0.8-1.6,1.6C196.7,131.7,197.4,132.4,198.3,132.4L198.3,132.4z"/>
<path class="st9" d="M135.7,116.5c-0.5,0-1,0-1.4-0.1c-0.9-0.2-1.2-0.6-1.1-1.3c0.2-0.7,0.9-1.1,1.6-0.9c0.3,0,0.6,0.1,0.9,0.2
	c0.9,0.3,1.8,0.3,2.7-0.1c0.3-0.1,0.7-0.2,1.1-0.2c0.3,0,0.6,0.1,0.7,0.4c0.1,0.3-0.1,0.6-0.4,0.8c-1,0.8-2.3,1.2-3.5,1.2
	L135.7,116.5L135.7,116.5z"/>
<path class="st6" d="M125.3,112.3c-0.8-0.2-1.5-0.5-2.2-1c-0.2-0.2-0.2-0.4-0.1-0.6c0.2-0.5,0.7-0.8,1.2-0.8c0.6,0,1.1,0.1,1.6,0.4
	c0.4,0.1,0.7,0.6,0.6,1c0,0,0,0,0,0.1C126.3,111.9,126,112.4,125.3,112.3z"/>
<path class="st6" d="M112.7,166c0.8,2.1,3,3.4,5.2,3.1c0.4,0,0.7-0.1,1.1-0.3c0.2-0.1,0.4-0.3,0.4-0.6c0-0.5,0.2-0.6,0.6-0.3
	c0.4,0.2,0.7,0.6,0.9,1.1c0.2,0.5-0.1,0.9-0.6,1.1c-0.7,0.3-1.4,0.4-2.1,0.3c-2.1,0-4.1-1.1-5.2-3C112.7,167,112.6,166.5,112.7,166z
	"/>
<path class="st2" d="M114.7,163.9h-0.5l-1.9-0.6C113.2,163,114.1,163.2,114.7,163.9z"/>
<path class="st0" d="M113.5,164.7c0,0,0.1,0.1,0,0.2V164.7z"/>
<path class="st7" d="M143.9,169c-1.7,0.2-3.3,0.3-5,0.2c-1.1,0-2.2-0.4-3-1.2c-0.1-0.1-0.2-0.2-0.2-0.3c0.1-0.1,0.3-0.1,0.4-0.1
	l5.2,0.7c0.6,0,1.2,0.1,1.7,0.3C143.4,168.7,143.6,168.9,143.9,169z"/>
<path class="st0" d="M137.5,141.8c0.1,0,0.3-0.1,0.2,0.2h-0.2L137.5,141.8L137.5,141.8z"/>
<path class="st10" d="M123.7,129.8v-0.1l0.3,0.1H124L123.7,129.8L123.7,129.8z"/>
<path class="st6" d="M127.1,164.8c0.8,0.2,1.6,0.2,2.4,0c0.4-0.1,0.7-0.3,1-0.5c0.3-0.3,0.4-0.2,0.6,0.1c0.1,0.3,0.6,0.7,0.1,1
	c-1.3,0.6-2.7,0.5-3.9-0.3C127.2,164.9,127.2,164.9,127.1,164.8z"/>
<path class="st6" d="M124.2,159.7l-1.4-0.1c-0.1,0-0.3,0-0.3-0.2c0-0.1,0-0.3,0.1-0.4c0.5-0.3,1.1-0.5,1.7-0.5
	c0.3,0,0.6,0.3,0.6,0.6c0,0,0,0,0,0C125,159.7,124.5,159.7,124.2,159.7z"/>
<path class="st14" d="M164.1,148.3c-0.1,1.7-1.5,3.1-3.2,3.1c0,0,0,0,0,0c-0.6,0-1.1-0.5-1.1-1.1c0-0.1,0-0.1,0-0.2
	c0.2-0.5,0.3-1,0.3-1.5c0-0.2,0.1-0.3,0.3-0.4c0.8-0.2,1.5-0.6,2.1-1.2c0.6-0.6,1.1-0.4,1.5,0.4C164.1,147.6,164.2,148,164.1,148.3z
	"/>
<path class="st14" d="M147.4,144c0.2,0,0.3,0,0.5,0c0.7,0.1,0.8,0.4,0.5,1l-0.1,0.2c-0.5,0.9-0.5,0.9-1.4,0.3
	c-0.2-0.2-0.5-0.3-0.7-0.5c-0.2-0.1-0.3-0.1-0.3-0.4c0-0.2,0.1-0.3,0.3-0.4C146.5,144,147,144,147.4,144z"/>
<path class="st1" d="M188,107.6c0.2-1.5,0.7-2.9,1.5-4.2c1-2.1,2.6-3.9,4.5-5.1c0.8-0.5,1.8-0.7,2.8-0.3c1.1,0.3,1.8,1.5,1.5,2.7
	c-0.1,0.2-0.1,0.4-0.2,0.5c-0.6,1.1-1.4,2.2-2.2,3.2c-1.1,1.6-2.3,3.1-3.4,4.7c-0.5,0.8-1.5,1.3-2.4,1.1
	C188.5,110,188,109.4,188,107.6z"/>
<path class="st4" d="M136.1,84.4h0.4c0.5-0.1,0.7,0.1,0.6,0.7c-0.2,1.2-0.3,2.4-0.5,3.6c-0.1,1.3-1.3,2.3-2.7,2.2
	c-0.2,0-0.4-0.1-0.6-0.2c-1.4-1.7-1.2-4.2,0.6-5.6c0,0,0.1-0.1,0.1-0.1C134.7,84.5,135.4,84.3,136.1,84.4z"/>
<path class="st4" d="M76,96.5c-0.1-1.1,0.3-2.2,1.2-2.9c0.3-0.3,0.7-0.5,1.1-0.7c0.8-0.4,0.8-0.4,1.1,0.4c0.3,0.8,0.8,1.9,1.1,2.9
	c0.5,1.2,0.1,2.7-1.1,3.4c-0.3,0.3-0.8,0.3-1.2,0.1C76.9,99,76.1,97.8,76,96.5z"/>
<path class="st1" d="M160.3,94.9c0.1-1.4,0.4-2.8,0.9-4.1c0.7-2.1,1.6-4.1,2.7-6c0.3-0.5,0.6-0.9,1-1.3c0.8-0.9,2.2-0.9,3.1,0
	c0.3,0.3,0.5,0.7,0.6,1.2c0.2,1,0.1,2.1-0.3,3.1c-0.7,2.6-1.8,5.2-3.1,7.5c-0.4,0.7-0.9,1.3-1.5,1.8c-0.7,0.6-1.6,0.8-2.4,0.4
	c-0.7-0.4-1.1-1.2-1-2C160.3,95.2,160.3,95.1,160.3,94.9z"/>
<path class="st0" d="M108.1,118.5c-1.9-0.5-3.8-0.9-5.7-1.3c-2.7-0.6-5.5-0.6-8.2,0.1c-1.8,0.4-3.3,1.5-4.5,2.9
	c-0.1-0.4,0-0.7,0.3-1c0.9-1.6,2.5-2.7,4.2-3.1c3.3-0.6,6.6-0.4,9.7,0.8c1.1,0.3,2.2,0.7,3.3,1.2
	C107.5,118.2,107.9,118.2,108.1,118.5L108.1,118.5z"/>
<path class="st0" d="M108,118.5h0.1v0.1L108,118.5L108,118.5z"/>
<path class="st0" d="M137.5,141.8c-0.5-0.1-1.1-0.3-1.6-0.5c-2.1-0.5-4.3-0.8-6.5-0.8c-1.5-0.1-3,0-4.5,0.3
	c-0.8,0.2-1.6,0.4-2.4,0.7c-0.3,0.2-0.7,0.3-1.1,0.4c0.5-0.7,1.1-1.2,1.8-1.4c1-0.4,2.1-0.7,3.2-0.7c2.8-0.3,5.7,0.1,8.4,1
	c0.7,0.2,1.4,0.4,2.1,0.7C137.1,141.5,137.4,141.5,137.5,141.8L137.5,141.8z"/>
<path class="st0" d="M123.7,129.8h0.2C123.9,129.9,123.8,130,123.7,129.8z"/>
<path class="st3" d="M198.3,132.4c-0.9,0-1.6-0.8-1.6-1.6c0-0.9,0.7-1.6,1.6-1.6c0.9,0,1.6,0.8,1.6,1.7
	C199.9,131.7,199.2,132.4,198.3,132.4z M199.3,131.8c-0.3-0.3-0.4-0.9-0.1-1.2c0.1-0.2,0.1-0.5-0.1-0.6c-0.4-0.3-0.9-0.4-1.4-0.2
	c-0.3,0.1-0.1,0.5-0.2,0.7c0,0.3,0,0.6,0,0.9c0,0.2,0,0.4,0.3,0.5c0.3,0,0.3-0.2,0.3-0.4s0-0.3,0.2-0.3s0.2,0.1,0.3,0.3
	c0.1,0.3,0.4,0.5,0.7,0.4C199.2,131.8,199.3,131.8,199.3,131.8L199.3,131.8z"/>
<path class="st2" d="M199.3,131.8c-0.3,0.1-0.6,0.1-0.7-0.2c0,0,0-0.1-0.1-0.1c0-0.1-0.1-0.3-0.3-0.3c-0.2,0-0.2,0.2-0.2,0.3
	c0,0.1,0,0.4-0.3,0.4c-0.3,0-0.3-0.2-0.3-0.5c0-0.3,0-0.6,0-0.9c0-0.3-0.2-0.7,0.2-0.7c0.5-0.2,1-0.1,1.4,0.2
	c0.2,0.1,0.2,0.4,0.1,0.6C198.9,130.9,199,131.4,199.3,131.8z M198.6,130.4c0-0.2-0.2-0.3-0.4-0.3c-0.2,0-0.2,0.2-0.2,0.3
	c0,0.2,0.1,0.3,0.3,0.2C198.5,130.7,198.7,130.6,198.6,130.4C198.7,130.4,198.7,130.4,198.6,130.4L198.6,130.4z"/>
<path class="st4" d="M198.7,130.3c0,0.2-0.1,0.3-0.3,0.3c-0.2,0-0.3,0-0.3-0.2c0-0.2,0-0.3,0.2-0.3
	C198.4,130,198.6,130.2,198.7,130.3z"/>
</svg>
