<?xml version="1.0" encoding="utf-8"?>
<!-- Generator: Adobe Illustrator 21.1.0, SVG Export Plug-In . SVG Version: 6.00 Build 0)  -->
<svg version="1.1" id="Layer_1" xmlns="http://www.w3.org/2000/svg" xmlns:xlink="http://www.w3.org/1999/xlink" x="0px" y="0px"
	 viewBox="0 0 250 250" style="enable-background:new 0 0 250 250;" xml:space="preserve">
<style type="text/css">
	.st0{fill:#D32027;}
	.st1{fill:none;stroke:#000000;stroke-width:6.08;}
	.st2{fill:none;stroke:#FFFFFF;stroke-width:3.04;}
	.st3{fill:#FFFFFF;}
	.st4{fill:#231F20;}
	.st5{font-family:'Arial-ItalicMT';}
	.st6{font-size:24.5055px;}
</style>
<title>Coke_Dine</title>
<path class="st0" d="M180.2,125.6c1.6,3.1,3.2,5.9,4.7,8.9c0.4,0.8,1,2,0.7,2.4c-0.9,1.3-2.3,2-3.9,1.9c-1.1-0.1-2-0.8-2.4-1.8
	c-1.2-2.5-2.5-4.9-3.9-7.2c-1-1.6-2.6-2.7-4.4-3.2c-0.2,0.6-0.4,1.1-0.5,1.6c-0.9,3.1-1.8,6.2-2.7,9.2c-0.2,0.9-0.7,1.2-1.6,1
	c-0.4-0.1-0.9-0.1-1.3-0.2c-2.3-0.6-3.2-2-2.5-4.4c1.7-5.9,3.4-11.8,5.1-17.7c0.4-1.3,0.4-2.2-0.9-2.9c-0.7-0.5-1.2-1.2-1.5-1.9
	c-1.1-2.2-0.6-2.9,1.8-3l16.3-0.5c3.1-0.1,6,2,6.7,5c1.3,4.9-0.7,9-5.4,11.1C183.2,124.5,181.8,125,180.2,125.6z M172.7,120.8
	c3.1,1.2,7.2,0.3,9.1-1.8c2.2-2.3,1.4-6.2-1.4-6.9c-1.5-0.3-3-0.3-4.5-0.1c-0.3,0-0.8,0.5-1,0.9
	C174.1,115.5,173.4,118.1,172.7,120.8L172.7,120.8z"/>
<path class="st0" d="M141.9,127.5c-0.5,1.6-1.1,3.2-1.6,4.8c-0.6,1.9-1.3,3.8-1.8,5.8c-0.3,1-0.8,1.2-1.7,1.1
	c-3.4-0.4-4.4-1.9-3.5-5.2c1.8-5.8,3.6-11.5,5.4-17.3c0.4-0.8,0.1-1.9-0.7-2.3c-1.4-0.9-2.1-2.4-2-4c0.1-0.5,0.5-0.9,1-1
	c6-0.2,12-0.4,18-0.4c2.6,0.1,5,1.8,5.8,4.3c1.6,4.3-0.3,9.1-4.5,11.1c-1.6,0.9-3.4,1.4-5.2,2.2c0.3,0.7,0.6,1.4,1,2.1
	c1.3,2.6,2.6,5.1,4,7.7c0.5,0.8,0.4,1.4-0.4,1.8c-0.9,0.6-1.8,1-2.7,1.3c-1.5,0.4-2.5-0.5-3.1-1.9c-1.1-2.4-2.4-4.8-3.8-7.1
	c-1.1-1.2-2.3-2.3-3.6-3.2L141.9,127.5z M143.7,121.8c3.5,0.5,6.5,0.6,9-1.8c2.1-2,1.9-5.8-0.6-6.7c-1.5-0.6-3.5-0.3-5.2-0.3
	c-0.3,0-0.7,0.4-0.8,0.8C145.3,116.4,144.5,119,143.7,121.8L143.7,121.8z"/>
<path class="st0" d="M95.2,128.6c-3.3,0-6.4,0-9.5,0c-0.3,0-0.9,0.7-1,1.2c-0.9,3.3-1.8,6.6-2.5,9.9c-0.3,1.2-0.8,1.4-1.8,1.3
	c-3.5-0.3-4.6-1.9-3.7-5.3c0.2-0.8,0.4-1.7,0.7-2.5c0.9-2.3,1.4-4.6-0.5-6.7c-0.2-0.3-0.4-0.7-0.4-1.1c-0.7-2.6-0.4-3.1,2.2-3.1
	c0.9,0.2,1.9-0.5,2-1.4c0,0,0-0.1,0-0.1c0.6-2.4,1.3-4.7,2.2-7c1-2.5,3.7-4,6.3-3.5l-1.3,5.8l-1.3,5.9c2,0,3.8,0,5.6,0
	c1.6,0,3.5,0.4,4.5-0.4c1-0.8,1.1-2.8,1.5-4.3c0.3-1,0.6-2.1,0.9-3.1c0.9-3.3,3.1-4.6,6.7-4c-0.1,0.6-0.2,1.2-0.3,1.7
	c-2.3,9-4.7,18-7,26.9c-0.4,1.6-1.6,2.1-3.5,1.7c-1.3-0.2-2.2-1.3-2-2.6c0-0.1,0-0.2,0.1-0.4c0.6-2.6,1.3-5.1,1.9-7.7
	C95.1,129.5,95.2,129,95.2,128.6z"/>
<path class="st0" d="M99.8,93.2c-3.3,0-6.3,0-9.3,0.1c-0.4,0-0.9,0.8-1.1,1.3c-0.8,3-1.6,6-2.3,9.1c-0.3,1.2-0.9,1.5-2,1.3
	c-0.5-0.1-1-0.2-1.4-0.3c-2-0.6-2.7-1.7-2.3-3.7s1.2-3.8,1.5-5.7c0.1-0.8,0-1.7-0.3-2.4c-0.4-1.4-1-2.8-1.5-4.2
	c-0.2-0.7,0.2-1.2,1-1.2c2.9-0.2,2.9-0.3,3.8-3.1c0.5-1.9,1.1-3.8,1.9-5.7c1-2.1,3.4-3.3,5.8-2.7l-2.3,11.2c1.2,0,2,0,3,0
	c1.5,0,3.1-0.1,4.7-0.2c2.7-0.1,2.3,0.4,3-2.5c0.5-1.7,0.9-3.3,1.3-5c0.9-3.3,2.9-4.6,6.5-4.1c-0.1,0.5-0.2,1-0.3,1.5
	c-2.2,8.6-4.4,17.2-6.6,25.8c-0.4,1.6-1.6,2.1-3.5,1.7c-1.2-0.2-2-1.4-1.8-2.6c0-0.1,0.1-0.2,0.1-0.4C98.5,98.8,99.1,96,99.8,93.2z"
	/>
<path class="st0" d="M129.1,125c0,4.4,0,8.9,0,13.3c0,1.2-0.4,1.5-1.5,1.5c-2.5-0.2-4.5-2.3-4.5-4.9c0-2.2,0-2.2-2.2-2.2
	c-2.2,0.1-4.6,0.2-6.9,0.2c-0.8-0.1-1.5,0.4-1.8,1.2c-0.8,1.6-1.7,3.1-2.5,4.6c-0.8,1.5-2.2,1.7-4.1,0.7c-1.3-0.7-2.1-2.4-1.2-3.5
	c1.3-1.5,1.6-3.6,0.6-5.4c0-0.1,0-0.2,0-0.3c-0.3-2.8-0.3-3,2.5-2.9c1.5,0.1,2.9-0.6,3.5-2c2.6-4.2,5.4-8.3,8.1-12.4
	c1.8-2.5,4.7-3.8,7.7-3.5c1.1,0,2,1,2,2.1c0,0.1,0,0.2,0,0.3c-0.1,4.3,0,8.7,0,13L129.1,125z M122.9,116.8l-0.5-0.1l-6,10.3
	c2,0,3.7,0,5.4,0c0.9,0,1.2-0.4,1.2-1.2c-0.1-1.7-0.1-3.5-0.1-5.1C122.9,119.3,122.9,118.1,122.9,116.8L122.9,116.8z"/>
<path class="st0" d="M226.9,123.6c-0.5,0.9-0.9,1.5-1.2,2.1c-0.9,1.7-0.8,3.7,0.3,5.3c1,1.6,2.7,1.6,4.4,1.3
	c1.8-0.3,3.3-1.6,3.6-3.4c0.9-3.5-0.1-5.8-3.3-7.6c-1.3-0.7-2.6-1.5-3.8-2.4c-1.1-0.9-1.6-2.5-1.1-3.9c1.2-4.1,3.5-7.1,7.9-7.9
	c1.4-0.3,2.9-0.4,4.4-0.3c5.1,0.3,7.7,3.8,6.6,8.8c-0.6,2.6-1.3,3-3.9,2.4c-0.9-0.1-1.7-0.9-1.6-1.8c0-0.1,0-0.2,0.1-0.4
	c0-0.1,0-0.2,0.1-0.3c0.6-2.8,0.1-4.1-1.8-4.7c-2.1-0.5-4.3,0.5-5.4,2.3c-0.9,1.9-0.1,4.2,1.8,5.1c1.2,0.7,2.5,1.4,3.6,2.2
	c3.5,2.2,4.8,6.6,3.2,10.4c-2.5,6.1-9.4,9-15.5,6.5c-1-0.4-2-1-2.9-1.7c-3.4-2.9-3.8-8-1.1-11.5c0.3-0.3,0.6-0.6,1.1-0.7
	C223.8,123.6,225.2,123.6,226.9,123.6z"/>
<path class="st0" d="M133.8,89.2c0,4.2,0,8.4,0,12.6c0,1.3-0.5,1.6-1.6,1.5c-2.4-0.2-4.3-2.3-4.3-4.7c0.1-1.5-0.4-2-1.9-1.8
	c-2.3,0.2-4.6,0.2-6.9,0.3c-0.8-0.1-1.6,0.4-2,1.2c-0.7,1.5-1.6,2.9-2.4,4.4c-0.8,1.5-2,1.6-3.8,0.7c-1.3-0.6-2.1-2.2-1.2-3.3
	c1.2-1.4,1.4-3.4,0.6-5c0-0.1-0.1-0.3-0.1-0.4c-0.3-2.6-0.2-2.8,2.4-2.7c1.4,0.2,2.8-0.6,3.4-1.9c2.5-4.1,5.1-8.1,7.7-12.1
	c1.5-2.3,4.2-3.6,6.9-3.5c1.9,0,2.4,0.6,2.4,2.4c0,4.1,0,8.2,0,12.3L133.8,89.2z M127.4,81.6h-0.5l-5.8,10.1c2.2-0.1,4-0.2,5.8-0.3
	c0.3-0.1,0.6-0.4,0.7-0.7C127.6,87.6,127.5,84.6,127.4,81.6L127.4,81.6z"/>
<path class="st0" d="M167.3,73.2l5.6-0.2c3.6-0.2,7.2-0.4,10.8-0.4c3,0,5.6,0.9,7.3,3.6c1.8,3,1.2,5.9-0.8,8.5
	c-3.8,4.8-8.8,7.5-15.1,7.2c-2.5-0.1-2.5-0.1-3,2.4c-0.6,2.5-1.2,5-1.8,7.9c-1.4-0.3-2.7-0.8-4.1-1.3c-1.2-0.5-1.2-1.6-0.9-2.7
	c1.4-6,2.8-12.1,4.4-18.1c0.5-1.9,0.5-3.4-1-4.7C168.1,74.7,167.7,74,167.3,73.2z M177.4,86.6c2.6-0.3,5-1.4,6.9-3.1
	c1.6-1.4,2.1-2.8,1.5-4.2c-0.7-1.7-2.4-2.7-4.2-2.5c-1.2,0.1-2.3,0.2-3.5,0.6c-0.6,0.2-1.1,0.7-1.4,1.2c-0.7,1.8-1.3,3.6-1.9,5.4
	c-0.8,2.3-0.6,2.6,1.9,2.7L177.4,86.6z"/>
<path class="st0" d="M142.5,103.1c-0.4,0-0.7-0.1-1-0.1c-4.1-0.9-4.4-1.4-3.4-5.4c1.5-5.9,3-11.8,4.5-17.6c0.3-0.9,0.1-1.9-0.5-2.6
	c-0.7-0.9-1.4-1.9-2-2.9c0.3-0.1,0.6-0.2,1-0.3c4.9-0.2,9.9-0.6,14.8-0.6c1.8,0,3.7,0.4,5.3,1.3c3.6,2,4.4,6.6,1.8,10.2
	c-3.5,5.2-9.5,8.2-15.7,7.8c-2.6-0.1-2.2-0.6-2.9,2.2C143.9,97.9,143.2,100.5,142.5,103.1z M146.8,87.1c0.4,0.2,0.8,0.3,1.2,0.4
	c3.9,0.7,7.1-0.9,9.7-3.7c1.3-1.3,1.3-3.4,0-4.7c-0.5-0.5-1.1-0.8-1.7-0.9c-1.9-0.1-3.9,0-5.8,0.4c-0.2,0-0.5,0.4-0.6,0.7
	C148.6,81.9,147.8,84.4,146.8,87.1z"/>
<path class="st0" d="M203.2,121.9c0.8-1.1,1.4-1.8,1.9-2.6c2.2-3.2,4.5-6.4,6.7-9.6c1.4-2,4-2.8,6.3-2c1.6,0.5,1.9,1.5,1,2.8
	c-3.7,5.3-7.5,10.6-11.1,16c-0.7,1-1.1,2.1-1.4,3.3c-0.5,2.2-0.9,4.4-1.3,6.6c-0.3,1.6-2.6,2.7-4.6,2.3c-1.6-0.2-2.7-1.7-2.5-3.3
	c0-0.1,0-0.2,0.1-0.3c1.1-3.8,0.8-7.9-0.8-11.5c-1.7-4.1-2.9-8.4-4.3-12.6c-0.6-1.2,0-2.6,1.2-3.2c0,0,0.1,0,0.1-0.1
	c1.5-0.9,3.4-0.5,4.3,1c0.2,0.3,0.3,0.6,0.4,0.9c1.1,3.5,2.3,6.9,3.5,10.4C202.7,120.6,202.9,121.1,203.2,121.9z"/>
<path class="st0" d="M204.4,85.3c0.8-1,1.4-1.8,1.9-2.5c2.2-3,4.3-6.1,6.5-9.1c1.5-2,4.1-2.7,6.4-1.8c1.3,0.5,1.6,1.3,0.7,2.5
	c-3.5,4.9-7,9.8-10.4,14.7c-0.8,1.3-1.4,2.7-1.8,4.2c-0.5,1.7-0.7,3.5-1.1,5.3c-0.4,1.8-2.4,2.7-4.7,2.3c-1.5-0.2-2.5-1.5-2.3-3
	c0-0.2,0.1-0.4,0.1-0.6c0.9-3.4,0.6-7-0.9-10.2c-1.6-3.9-2.9-8-4.4-12c-0.5-1.1-0.1-2.3,1-2.9c1.4-1,3.3-0.8,4.4,0.6
	c0.2,0.3,0.4,0.7,0.5,1c1.1,3.2,2.2,6.4,3.3,9.6C203.9,84,204.1,84.5,204.4,85.3z"/>
<path class="st0" d="M223.9,110.2l1.7-5.3l4.3-0.8l-5.6,6.2L223.9,110.2z"/>
<path d="M7.1,101.6c-0.1-1.8,0.1-3.6,0.6-5.3c0.8-2.2-0.6-5.9,0-7.4c0.6-1.6,2.9-9.4,10.9-14c5.9-3.3,12.8-4,19.3-2
	c3.3,1,6.3,1.7,7.6,3.7c1.2,2,1.8,1.6,4.3,2.2c2.5,0.6,7.8,3.9,8.8,9.5c0,0.1,0.5,8.6,0.5,8.6c-0.1,2.1-0.3,4.2-0.6,6.3
	c0,0.1,0.1,0.1,0.1,0.1c0,0,0.1,0,0.1,0c0.5-0.3,1.3-0.2,1.6,0.4c0.1,0.1,0.1,0.3,0.2,0.4c0,0,1.2,7.5,0.6,9.2
	c-0.6,1.8-2.2,5.4-2.6,6.6c-0.4,1.2-0.8,4-2.9,3.7c-1-0.1-1.9,5.9-4.4,9.5s-9,12.2-17.5,12.8s-12.4-3.4-13.6-4.6
	c-1.2-1.2-7.1-7-8.5-14.2c0,0-0.8-3.2-1.8-3.8c-1.5,0.6-2.3-1.6-2.9-3.8S5,113.8,5,111.4c0-2.4-0.3-7.1,1-8.1
	c0.2-0.2,0.5-0.3,0.8-0.2C6.9,103.1,7.3,103.2,7.1,101.6"/>
<path class="st1" d="M7.1,101.6c-0.1-1.8,0.1-3.6,0.6-5.3c0.8-2.2-0.6-5.9,0-7.4c0.6-1.6,2.9-9.4,10.9-14c5.9-3.3,12.8-4,19.3-2
	c3.3,1,6.3,1.7,7.6,3.7c1.2,2,1.8,1.6,4.3,2.2c2.5,0.6,7.8,3.9,8.8,9.5c0,0.1,0.5,8.6,0.5,8.6c-0.1,2.1-0.3,4.2-0.6,6.3
	c0,0.1,0.1,0.1,0.1,0.1c0,0,0.1,0,0.1,0c0.5-0.3,1.3-0.2,1.6,0.4c0.1,0.1,0.1,0.3,0.2,0.4c0,0,1.2,7.5,0.6,9.2
	c-0.6,1.8-2.2,5.4-2.6,6.6c-0.4,1.2-0.8,4-2.9,3.7c-1-0.1-1.9,5.9-4.4,9.5s-9,12.2-17.5,12.8s-12.4-3.4-13.6-4.6
	c-1.2-1.2-7.1-7-8.5-14.2c0,0-0.8-3.2-1.8-3.8c-1.5,0.6-2.3-1.6-2.9-3.8S5,113.8,5,111.4c0-2.4-0.3-7.1,1-8.1
	c0.2-0.2,0.5-0.3,0.8-0.2C6.9,103.2,7.3,103.3,7.1,101.6z"/>
<path d="M7.1,101.6c-0.1-1.8,0.1-3.6,0.6-5.3c0.8-2.2-0.6-5.9,0-7.4c0.6-1.6,2.9-9.4,10.9-14c5.9-3.3,12.8-4,19.3-2
	c3.3,1,6.3,1.7,7.6,3.7c1.2,2,1.8,1.6,4.3,2.2c2.5,0.6,7.8,3.9,8.8,9.5c0,0.1,0.5,8.6,0.5,8.6c-0.1,2.1-0.3,4.2-0.6,6.3
	c0,0.1,0.1,0.1,0.1,0.1c0,0,0.1,0,0.1,0c0.5-0.3,1.3-0.2,1.6,0.4c0.1,0.1,0.1,0.3,0.2,0.4c0,0,1.2,7.5,0.6,9.2
	c-0.6,1.8-2.2,5.4-2.6,6.6c-0.4,1.2-0.8,4-2.9,3.7c-1-0.1-1.9,5.9-4.4,9.5s-9,12.2-17.5,12.8s-12.4-3.4-13.6-4.6
	c-1.2-1.2-7.1-7-8.5-14.2c0,0-0.8-3.2-1.8-3.8c-1.5,0.6-2.3-1.6-2.9-3.8S5,113.8,5,111.4c0-2.4-0.3-7.1,1-8.1
	c0.2-0.2,0.5-0.3,0.8-0.2C6.9,103.1,7.3,103.2,7.1,101.6"/>
<path class="st2" d="M7.1,101.6c-0.1-1.8,0.1-3.6,0.6-5.3c0.8-2.2-0.6-5.9,0-7.4c0.6-1.6,2.9-9.4,10.9-14c5.9-3.3,12.8-4,19.3-2
	c3.3,1,6.3,1.7,7.6,3.7c1.2,2,1.8,1.6,4.3,2.2c2.5,0.6,7.8,3.9,8.8,9.5c0,0.1,0.5,8.6,0.5,8.6c-0.1,2.1-0.3,4.2-0.6,6.3
	c0,0.1,0.1,0.1,0.1,0.1c0,0,0.1,0,0.1,0c0.5-0.3,1.3-0.2,1.6,0.4c0.1,0.1,0.1,0.3,0.2,0.4c0,0,1.2,7.5,0.6,9.2
	c-0.6,1.8-2.2,5.4-2.6,6.6c-0.4,1.2-0.8,4-2.9,3.7c-1-0.1-1.9,5.9-4.4,9.5s-9,12.2-17.5,12.8s-12.4-3.4-13.6-4.6
	c-1.2-1.2-7.1-7-8.5-14.2c0,0-0.8-3.2-1.8-3.8c-1.5,0.6-2.3-1.6-2.9-3.8S5,113.8,5,111.4c0-2.4-0.3-7.1,1-8.1
	c0.2-0.2,0.5-0.3,0.8-0.2C6.9,103.2,7.3,103.3,7.1,101.6z"/>
<path d="M7.1,101.6c-0.1-1.8,0.1-3.6,0.6-5.3c0.8-2.2-0.6-5.9,0-7.4c0.6-1.6,2.9-9.4,10.9-14c5.9-3.3,12.8-4,19.3-2
	c3.3,1,6.3,1.7,7.6,3.7c1.2,2,1.8,1.6,4.3,2.2c2.5,0.6,7.8,3.9,8.8,9.5c0,0.1,0.5,8.6,0.5,8.6c-0.1,2.1-0.3,4.2-0.6,6.3
	c0,0.1,0.1,0.1,0.1,0.1c0,0,0.1,0,0.1,0c0.5-0.3,1.3-0.2,1.6,0.4c0.1,0.1,0.1,0.3,0.2,0.4c0,0,1.2,7.5,0.6,9.2
	c-0.6,1.8-2.2,5.4-2.6,6.6c-0.4,1.2-0.8,4-2.9,3.7c-1-0.1-1.9,5.9-4.4,9.5s-9,12.2-17.5,12.8s-12.4-3.4-13.6-4.6
	c-1.2-1.2-7.1-7-8.5-14.2c0,0-0.8-3.2-1.8-3.8c-1.5,0.6-2.3-1.6-2.9-3.8S5,113.8,5,111.4c0-2.4-0.3-7.1,1-8.1
	c0.2-0.2,0.5-0.3,0.8-0.2C6.9,103.1,7.3,103.2,7.1,101.6"/>
<path class="st3" d="M16.4,123.4c-0.4-1.2-6.6-2.3-6-7.4c0.6,0.3,1.3,0.1,1.6-0.4c0,0,0.1-0.1,0.1-0.2c-0.3-0.8-0.6-1.5-1-2.2
	c-1.2-1.5-1.2-3.6,0-5.2c0,0,0.6,0.4,0.6,2.6c0,2.2,1,5.2,5.9,5.6c4.9,0.4,8.6,0.6,10.3-1.8c0,0,0.1,1.5,1.3,0.7
	c0.3-0.9,0.6-1.7,0.7-2.7c-0.7-1.1-0.8-2.4-0.4-3.6h4.1c0,0,0.4,2.8,1.4,3.8c1,1,3.1,4.2,5.3,5.4c2.3,1.2,3.5,5.2,4.5,6.6
	c-0.7,0.2-1.5,0.3-2.2,0.3c-0.7,0.1-1.4,0.3-2.1,0.6c0,0-4-0.7-5.5-0.1c-1.8,0.8-3.8,0.8-5.5,0c-1-0.4-2.7,0.2-4.1,0.4
	c-0.9-0.3-1.8-0.6-2.6-1c-1-0.3-1.6-1.4-1.3-2.4c0.1-0.3,0.2-0.5,0.4-0.8c1-1.6,2.9-2.6,2.5-4c-0.4-1.4-2.1,0.6-2.7,1.4
	c-0.6,0.8-3.5,4.6-3.3,5.6c0.2,1-1.4,0.8-1.4,0.8S16.8,124.6,16.4,123.4"/>
<path class="st3" d="M12.6,123.1c0,0,2.4,0.8,3.1,4.5c0.3,1.4,1.7,2.2,1.6,1.4c-0.1-0.8-0.2-2.2-0.2-2.2s0.2-1.2,2.3,0
	c2.1,1.2,3.3,3.9,5.9,4.1c3.1,0.2,8.9,0.2,11.4,0.2c1.9-0.2,3.7-1.1,4.9-2.7c1.5-2.3,2.8-1.7,1.3,0.3c-0.7,0.9-0.2,1.2,0.3,1.3
	c1,0.2,0.5-1.2,1.8-2.5c1.3-1.3,2.8-1.8,2.3-2.7c-1.4-2.2-2.9-4.3-4.6-6.2c-0.8-0.8-0.4-1.1,0.7-1.1s3.8,0.1,4.8-0.8
	c2.2-2,3.4-5,3-8l3.1-0.5c0.3,0.6,0.3,1.3,0.1,1.9c-0.4,0.9-1.3,0.8-1.4,2.2c-0.2,1.4,2.2,2.2,1.7,4.8c-0.6,2.9-1.6,5.7-2.9,8.3
	c-0.8,1.4-1.1,2-0.5,1.5c0.6-0.5,2.2-2.3,1.8-1.2c-0.4,1.2-3.3,6.8-8.8,12.9s-12.1,7.4-20.2,4.1c-4.3-3.8-7.9-8.4-10.5-13.5
	c0,0-1-3.2-1.6-4.5C11.5,123.4,11.4,122.8,12.6,123.1"/>
<path d="M21.2,137.9c2.4,3.8,6.8,5.9,11.3,5.4c8.1-0.5,9.9-5.5,9.9-5.5s0.6-0.8,1.2-0.2c0,0-0.1,0.6-1.3,1.8s-3.5,5.5-10.5,5.5
	s-10-4-11.3-6.5c0,0-0.7-0.8-0.1-1C21,137.1,21.2,137.9,21.2,137.9"/>
<path d="M35.2,133.3c0,0-4.4-0.3-6.1-0.2s-2.3,2.8-0.8,2.3c1.9-0.4,3.9-0.4,5.8,0.1c1,0.5,1.7-1,1.8-1.3
	C35.9,134,35.9,133.3,35.2,133.3"/>
<path d="M28.9,116.3c-0.2-0.2-0.4-0.2-0.6,0.1c-0.9-0.1-1.7,0-2.6,0.2c-0.5,0.2-0.8,0.7-0.7,1.3h2.4c0.1,0.5,0.2,1,0.4,1.5
	c-1.6,0-2.8-0.4-3.2,0.1c-0.3,0.6,0,0.5,0.3,1.5c1.6,0.6,3-0.1,3.8,0.5c0.8,0.6,3.8,2.3,6-0.1l2.9-0.4c0,0,0.8-1,0.4-1.4
	s-1.4-0.2-2.7,0c0,0-0.5-1.3-1.5,0.1c-0.7,0.3-1.5,0.4-2.3,0.4c-1.4,0-2.6-0.2-2.9-1.4C28.6,117.8,28.7,117,28.9,116.3"/>
<path d="M36.4,116.5c0,0-0.2-1.5-1.2-1.5l-0.1,0.2c0.2,0.9,0.1,1.9-0.3,2.7c-0.3,0.6,2.9-0.3,3.6,0.3c0.5,0.4,0.5-1.5-0.7-1.8
	C37.3,116.3,36.9,116.4,36.4,116.5"/>
<path d="M50.3,121.7c-0.6,0.9-1.2,1.7-1.9,2.5c-0.4,0.3-0.3,0.7-0.3,1.8l-0.1,3.3c0,0,0.4,1.1,0.7,0.3c0.3-0.8,0.6-3.9,1.4-5
	s1.2-1.8,1.2-2.7S50.8,121.2,50.3,121.7"/>
<path class="st3" d="M7.3,112.5c0.2-3,1-7.1,1,0.1c-0.4,2.1,0,4.3,1.2,6.2c0,0,1.2,2.7,0.3,2.7c-2.2,0-1.5-2-1.6-3.1
	c0-1.1-0.3-2.2-0.9-3.2c-0.7-1.1-1.7-6.5-0.6-7.5C7.3,107.2,6.4,112.3,7.3,112.5"/>
<path class="st3" d="M6.6,105.4c0,0,0.8,1.2,1.4,1.1c0.5-0.1,0.5-0.5,0-1.2C7.5,104.7,6.8,104.7,6.6,105.4"/>
<path class="st3" d="M56.4,117.2l0.2-5.6c0,0,0.1-0.9,0.6,0.1c0,0,1.2,1.5,0.7,2.2c-0.4,0.7-1,1.3-1,1.6c0,0.3,0.1,0.5,0.7,0.4
	c0,0.4-0.1,0.8-0.3,1.2C56.8,117.8,56.4,118.2,56.4,117.2"/>
<path class="st3" d="M57.9,106.5c0,0,1.5,1.8,1.3,3.1c-0.3,1.8-1.4-1.9-1.5-1.7c-0.4,0.8-0.3,1.6,0.2,2.3c0.6,1.1,0.8,2.3,0.7,3.5
	c-0.2,1.3-0.4,2.6-0.4,3.9c0,0,1.8-3.2,1.8-4.2c-0.2-1.4-0.4-2.9-0.5-4.3c0.2-0.8,0.1-1.6-0.3-2.4C58.9,106.1,58.2,105.7,57.9,106.5
	"/>
<path class="st3" d="M11.4,104h1.2c0.9-0.7,1.9-1.2,3-1.5c1.2-0.1,7.9-0.5,8.8,0c1,0.5,1.8,1.1,2.5,0.7c0.4-0.2,0.7-0.4,1.1-0.6
	c-0.5-0.8-1.3-1.3-2.2-1.5c-3.1-0.2-6.2-0.3-9.2-0.1c-1.3,0.3-2.5,0.7-3.6,1.4c-1,0.8-1.3,0.7-0.8-0.4s1.9-7.2,0.8-10.2
	c0,0,3.3-5.4,6.9-5.2c3.7,0.2,5.7,2.5,10.2,1.7s6.8-3.5,10.4-2.6s5,1.5,6.8,1.4c0,0,1.3,2.2,1.9,3.1c0.8,1.1,1.4,2.3,1.7,3.6
	c0.1,0.9,0.6,6.9,2.3,8.9c0,1,0,2-0.1,2.9c-0.1,0.6-1,0.2-1.5,0c-0.3-1.2-1-2.3-1.9-3.2c-1.3-0.8-1.6-1.2-2.9-1.2
	c-1.6,0.1-3.2,0-4.8-0.2c-0.9-0.3-1.9-0.3-2.8,0c-1,0.4-2.2,0.6-2.8,0.8c-0.6,0.2-1.9,0.9-1,1.5c1,0.6,1,0.4,1,0.4
	c-0.6,0.3-1.3,0.3-1.9,0.2c-2.2-0.3-4.5-0.3-6.8-0.1c-1.1,0.2-1.8,0.5-2.5,0.1c-2.2-0.7-4.5-1-6.8-0.8c-2,0-3.9,0.6-5.6,1.6h-1.5
	C11.4,104.8,10.8,104.5,11.4,104"/>
<path class="st3" d="M49.5,104.5c-1.6-0.5-3.2-0.7-4.8-0.8c-2.7-0.1-4.5-0.2-4.5-0.2s-0.6,0.9,0.7,0.9c1.8-0.2,3.6-0.1,5.3,0.2
	c1.7,0.5,2.9,0.9,2.9,0.9S50.4,105.7,49.5,104.5"/>
<path class="st3" d="M29.2,105.7c0,0,0.2,0.6,0.4,0.9c0.1,0.3-0.4,0.5,1.2,0.5s3-0.1,3-0.1s0.4-1.1-0.1-1.3
	C32.1,105.6,30.6,105.6,29.2,105.7"/>
<path class="st3" d="M12.8,109.3c0,0,1.5,0.2,1.3,1.1c-0.1,0.5-0.3,0.9-0.6,1.2c0,0-0.4,0-0.5-0.6C13,110.3,12.8,109.3,12.8,109.3"
	/>
<path class="st3" d="M15.6,111.8c0.1,0.4-0.1,0.8-0.4,1.1c-0.5,0.3-0.2,0.6,1.3,1.1c1.6,0.5,7.5,1.3,10-0.8c0,0,1.5-2.1,0.7-3.6
	c-0.7,0.4-1.3,0.9-1.9,1.4c-0.4,0.5-1.8,1.1-1.5-0.8c0,0,0.4-0.9-0.8-0.4l-0.6-0.2c-1.6-0.3-5.8-0.9-4.9,2.1
	C16.9,111.9,16.2,112,15.6,111.8"/>
<path class="st3" d="M40,108c1,0.1,1.9,0,2.9-0.1c0.9-0.2,1.6-0.6,2.2-0.2s1.6,0.2,1.3,0.7c-0.2,0.5-0.6,0.5-1,0.6s-0.6,1.5,1.6,1.5
	c0,0,1.7,2.1,1.3,3.3c-0.4,1.2-1,1.8-2.9,1.6c-1.9-0.1-5.1,0.7-7-1.8c-1.9-2.5-2.9-3.3-2.3-5.6c0,0,1.1,1.8,2.2,1.9
	c1.1,0.1,2.4,0.7,2.8,0.1c0.4-0.6-0.1-1.1-1-1.2S38.7,108.1,40,108"/>
<path class="st3" d="M24.1,127.3c0,0,1.4-0.6,1.9-0.1c0,0,1.6-0.7,2.3,0.1c0,0,2.5-0.6,3.2,0.4c0.7-0.5,1.7-0.6,2.5-0.1
	c0,0,1.3-0.6,2,0c0.8,0.3,1.7,0.3,2.5,0c0,0,0.6,0.9-1,0.9c-1.4,0.6-3,0.8-4.5,0.6c-2.5,0.1-4.9,0-7.3-0.3
	C22.8,128.1,24,127.3,24.1,127.3"/>
<path class="st3" d="M22.9,108.8c0.8-0.2,1.5-0.8,0.1-0.8c-1,0.1-1.9,0-2.9-0.1c-0.8-0.2-1.6-0.6-2.2-0.2c-0.6,0.4-1.6,0.2-1.3,0.7
	c0.2,0.4,0.6,0.6,1,0.6c0.5,0.1,1.4,1.2,2.5,1.2C21.2,110.1,22.4,109,22.9,108.8"/>
<text transform="matrix(1 0 0 1 11.6499 170.5127)" class="st4 st5 st6">DISCOUNT DRUGS</text>
</svg>
