<?xml version="1.0" encoding="utf-8"?>
<!-- Generator: Adobe Illustrator 21.1.0, SVG Export Plug-In . SVG Version: 6.00 Build 0)  -->
<svg version="1.1" id="Layer_1" xmlns="http://www.w3.org/2000/svg" xmlns:xlink="http://www.w3.org/1999/xlink" x="0px" y="0px"
	 viewBox="0 0 250 250" style="enable-background:new 0 0 250 250;" xml:space="preserve">
<style type="text/css">
	.st0{fill:#E3332C;}
	.st1{font-family:'TimesNewRomanPSMT';}
	.st2{font-size:13.9291px;}
</style>
<title>Grocery</title>
<path class="st0" d="M96.7,121.2c-0.2,1.2-0.4,2.4-0.6,3.6c-0.6,3.8-1,7.6-2,11.3c-1.1,4.2-3.4,7.6-8.1,8.8c-2.7,0.7-5-0.2-7.2-1.3
	c-1.5-0.8-2.3-0.7-3.3,0.9c-1.3,2.7-4.3,4.3-7.3,3.9c-3.6-0.5-6.7-3.1-7.8-6.6c-1.4-3.6-1.9-7.5-1.3-11.3c0.5-4.6,2-9,4.4-12.9
	c1-1.5,2.1-2.8,3.5-3.9c2.7-2.5,5.9-2.4,9.1-1.1c1.7,0.7,3.7,0.9,5,2.7c0.3,0.5,1.6,0.4,2.4,0.5c2,0.1,2.3,0.5,2.1,2.4
	c-0.9,5.8-1,11.7-0.3,17.5c0.2,1.2,0.5,2.3,0.9,3.4c0.2,0.5,0.8,0.9,1.2,1.3c0.4-0.5,1-0.9,1.1-1.4c0.8-3.1,1.7-6.3,2.3-9.4
	c0.4-2.5,0.6-5.1,0.6-7.6c0.1-0.7-0.2-1.5-0.6-2c-1.9-1.7-2.1-3.8-2.2-6.1c-0.2-3.6-0.2-3.6,3.5-4c3-0.3,5.9-0.7,8.9-1.2
	c5.2-0.9,8.6,2.9,7.2,8.1c-1.6,5.8-1.7,11.9-0.3,17.7c0.4,1.6,1,3.1,1.6,4.6c2-1.1,2.5-2.3,2-4c-2.6-9.4,0.5-19.4,7.8-25.8
	c1.4-1.1,3.3-1.5,5-0.9c3.6,0.9,3.7,0.8,4-2.8c0.3-3.7,0.4-7.6,0.7-11.5c0.1-1.3,0.3-2.5,0.6-3.8c0.6-2.7,1.1-3.3,3.7-3.5
	c1.6-0.2,3.3-0.2,4.9,0c1.6,0.1,2.1,0.9,2,2.7c-0.5,4.4-1.2,8.9-1.3,13.3c-0.3,6.3-0.3,12.7-0.2,19c0.1,3.4,0.8,6.9,1.2,10.3
	c0,0.2,0,0.3,0.1,0.5c0.5,1,1.1,1.9,1.7,2.9c0.6-0.9,1.6-1.8,1.9-2.8c0.5-2.1,0.8-4.3,0.7-6.4c-0.5-5.5-0.2-11.1,0.9-16.5
	c0.2-1.5,1.3-2.7,2.8-2.9c2.1-0.4,4.2-0.6,6.3-0.7c1.7,0,2.3,0.9,2.1,2.7c-0.3,3.1-0.8,6.1-0.8,9.2c0,4.2,0.3,8.5,0.6,12.7
	c0,0.6,0.6,1.1,1,1.6c0.5-0.4,0.9-0.8,1.2-1.3c1-1.9,1.9-3.8,2.8-5.7c1.4-3,0.8-6.1,0.7-9.3c-0.1-2.4-0.1-4.9,0.1-7.3
	c0.2-2.7,0.9-3.2,3.5-3.1c1.7,0.1,3.5,0.3,5.2,0.7c1.1,0.1,2,1.1,1.9,2.2c0,2.3,0,4.6,0,6.9c0,0.5,0.1,1.1,0.2,1.6h0.4
	c0.3-0.5,0.6-1.1,0.8-1.6c0.9-2.2,1.7-4.4,2.7-6.5c2.3-5.2,9-4.7,12-1.2c0.5,0.8,0.8,1.7,0.7,2.7c-0.2,4.4-0.7,8.7-0.8,13.1
	c0,2.4,0.3,4.8,0.7,7.1c0.1,0.5,0.7,0.9,1.1,1.4c0.5-0.4,0.9-0.8,1.2-1.3c1.4-2.6,2-5.5,1.9-8.4c-0.1-2.7,0.1-5.4,0.6-8.1
	c0.5-3.5,2.3-6.7,5-9c1.7-1.5,4.2-1.9,6.3-1.1c1.5,0.5,2.9,1.3,4.4,1.8c0.8,0.1,1.6,0,2.3-0.2c1.7-0.2,3.4-0.5,5.1-0.6
	c0.9-0.1,1.7,0.1,2.5,0.4c0.5,0.3,0.9,0.8,1,1.5c-0.4,3.5-1.1,6.9-1.3,10.4c-0.2,4.6-0.1,9.2-0.1,13.7c0,0.3,0.1,0.6,0.2,0.9
	c1.7-0.5,2.8-2.2,2.5-4c-0.3-0.6-0.4-1.2-0.5-1.8c0.2-0.6,0.5-1.1,0.9-1.5c0.5-0.5,1.3-0.9,1.5-1.5c2.3-6.6,3.5-13.5,3.7-20.5
	c0-1,0.4-1.4,1.4-1.4c2.1,0,4.1,0,6.2,0c1.6-0.1,3.2,0.9,3.8,2.4c2.5,4.7,4.3,9.7,5.3,14.9c0.9,3.8,1,7.7,0.5,11.6
	c-0.8,4.8-4.4,8.5-9.2,9.5c-3.3,0.7-5.7-1-8-3.1c-0.9-0.8-1.8-1.7-2.7-2.6c-0.8-0.9-1.5-0.8-2.2,0.1c-0.3,0.4-0.7,0.8-1.1,1.1
	c-2.2,0.8-2.4,2.5-2.4,4.5c-0.2,7.7,0.1,15.5,1,23.1c0,0.4-0.4,1.2-0.7,1.3c-1.7,0.1-3.5,0.2-5.2,0.1c-1.6-0.1-3-1.3-3.2-2.9
	c-0.6-2.4-1-4.8-1.2-7.2c-0.4-5.9-0.6-11.9-0.9-17.8c0-0.3-0.1-0.5-0.2-1.1c-5.1,2.2-9.8,1.9-13.6-2.8c-0.6,0.8-1,1.3-1.3,1.9
	c-1.7,2.5-4.8,3.8-7.8,3.2c-3.2-0.4-5.9-2.7-6.7-5.9c-0.7-2.8-1-5.6-1.5-8.5c-0.1-0.7-0.2-1.3-0.3-2l-0.4-0.1
	c-0.3,0.4-0.5,0.9-0.7,1.4c-0.9,4.3-1.7,8.7-2.7,13c-0.2,0.7-0.6,1.3-1.3,1.6c-3.2,1.3-6.9-0.2-8.3-3.4c0,0,0,0,0-0.1
	c-0.4-0.7-0.7-1.5-1.1-2.2l-0.5-0.1c-0.7,1.1-1.4,2.1-2,3.2c-2.1,4.2-7.1,5.9-11.3,3.8c-0.4-0.2-0.7-0.4-1-0.6
	c-0.3-0.2-0.5-0.3-0.8-0.5c-1.1-1.1-2.1-0.8-2.9,0.4c-1.3,1.7-3.2,2.9-5.3,3.3c-2.3,0.6-4.7-0.2-6.2-2c-0.2-0.2-0.3-0.4-0.5-0.6
	c-1.7-2-1.7-2-3.2,0.2c-2.7,3.8-5.3,5-9.9,3.3c-3.1-1.2-5.4-1.5-8.5,0.7c-4.7,3.4-10,0.2-11.9-5.3c-1.1-3.2-1.5-6.6-1.2-10
	c0.1-1.7,0-3.5-0.1-5.2L96.7,121.2z M76.7,114.7c-0.9,0.7-1.8,1.6-2.6,2.5c-4.5,6.3-5.7,13.5-5,21.1c0.1,0.7,0.3,1.4,0.7,1.9
	c0.3,0.5,0.9,1.3,1.2,1.2c0.7-0.1,1.2-0.5,1.5-1.1c0.9-1.8,1.5-3.7,2-5.7c1.3-6.1,0.2-12.5,2.9-18.3
	C77.7,116.1,77.1,115.5,76.7,114.7z M210.6,113.3c0-1.2,0-2.3,0-3.5c0-1.2-0.6-1.6-1.5-1.3c-0.9,0.2-1.8,0.7-2.1,1.3
	c-1.1,2.3-2,4.8-2.6,7.3c-0.8,3.7-1.3,7.5-0.1,11.2c0.3,0.9,1,2.2,1.7,2.4c1.3,0.3,1.6-1.2,2.1-2.2
	C210.2,123.7,210.4,118.5,210.6,113.3z M128,118.5L128,118.5c0.1-0.9,0.1-1.8,0.1-2.7c-0.2-0.5-0.4-1.1-0.7-1.5
	c-0.4,0.4-1,0.7-1.3,1.2c-2.2,4.8-3.6,10-4,15.3c-0.1,1.9,0.1,3.9,0.7,5.8c0.4,1.3,1.5,1.3,2.3,0.1c0.6-1,1.2-2,1.8-3
	c1.8-2.8,2.4-6.2,1.8-9.5C128.2,122.3,128.2,120.4,128,118.5L128,118.5z M233.9,131.1c-1-4.8-2-9.6-3-14.3c-0.1-0.4-0.6-0.7-1-1.1
	c-0.3,0.3-0.8,0.6-0.9,1.1c-1.2,3.5-2.4,6.9-3.5,10.4c-0.2,0.8-0.1,1.7,0.4,2.5c1.3,1.4,2.7,2.7,4.3,3.7
	C232.2,134.6,233.8,133.5,233.9,131.1L233.9,131.1z"/>
<path class="st0" d="M33.9,99.4c0.3,6.6,0.6,13.2,0.8,19.8c0,1,0.5,1.5,1.6,1.3c1.3-0.1,2.7-0.2,4-0.2c1.2,0,1.6-0.6,1.6-1.7
	c-0.2-6.6-0.3-13.2-0.5-19.8c-0.1-4.3-0.2-8.5-0.2-12.8c0-1.9,0.5-2.7,2.4-2.7c2.7,0,5.3,0.1,8.1,0.3c1.4,0,2.4,1.2,2.4,2.5
	c0.4,4.9,1,9.8,1.2,14.7c0.4,9.4,0.6,18.8,0.8,28.3c0.1,5.5,0.2,11.1,0.3,16.6c0,2-0.2,3.9-0.2,5.9c0.2,2.4-1.5,4.4-3.9,4.7
	c-1.9,0.3-3.9,0.4-5.9,0.5c-1.1,0.1-2-0.6-2.2-1.7c0-0.1,0-0.1,0-0.2c-0.3-2.6-0.5-5.2-0.7-7.8c-0.3-4.8-0.5-9.6-0.8-14.3
	c-0.2-2.7-0.5-2.9-3.2-2.5c-4.4,0.7-4.6,1.2-4.1,5.6c0.5,5.3,0.7,10.7,1.1,16.1c0.1,1.7,0.2,3.5,0.3,5.3c0.1,1.5-0.4,2.8-2,2.9
	c-2.7,0.4-5.3,0.6-8,0.6c-1.7-0.2-3.1-1.5-3.4-3.2c-0.8-3-1.3-6.1-1.7-9.2c-0.6-4.5-1-9-1.5-13.5c-0.2-2.1-0.3-2.2-2.3-1.8
	c-3.5,0.6-6.9,1.2-10.4,1.8c-2.4,0.4-2.7,0-2.7-2.4c0.1-3.5,1.8-6.5,3.5-9.4c0.4-0.4,1-0.5,1.5-0.4c2.9,1.1,5.5,0,8.2-0.6
	c0.4-0.1,0.7-1.1,0.7-1.7c-0.3-4.8-0.5-9.4-0.7-14.1c-0.2-5.2-0.2-10.4-0.3-15.6c-0.1-1.2,0.7-2.2,1.9-2.5c3.7-1.2,7.5-1.7,11.3-1.5
	c2.3,0.2,2.7,0.6,2.8,2.8c0.1,3.3,0,6.7,0,10L33.9,99.4z"/>
<path class="st0" d="M150.4,100.3c-1.5-0.4-3-1-4.4-1.6c-1.4-0.7-2-2.4-1.3-3.8c0.1-0.2,0.3-0.5,0.5-0.7c1.9-2.4,4.4-4.2,7.2-5.3
	c0.5-0.2,1.4,0.2,2.1,0.5c0.6,0.3,1.3,1,2,1.4c0.4,0.2,0.9,0.4,1.3,0.5c2.1,1,2.6,2.7,1.1,4.5C156.7,98.5,153.7,100.1,150.4,100.3z"
	/>
<path class="st0" d="M223,94.5c0.2-0.7,0.5-1.4,0.6-2.1c0.2-1.2,0-2.1-1.6-2.2c-2.5-0.2-3.7-1.2-3.9-3.2c-0.3-1.9,0.8-3.8,2.7-4.5
	c2-0.4,4.1,0.5,5.2,2.3c1.4,3.1,0.9,6.7-1.3,9.3c-0.4,0.3-0.9,0.6-1.3,0.7L223,94.5z"/>
<text transform="matrix(0.9991 -4.222441e-02 4.222441e-02 0.9991 57.8131 164.084)" class="st1 st2">FRIEND</text>
<text transform="matrix(0.9991 -4.222441e-02 4.222441e-02 0.9991 111.9132 161.7976)" class="st1 st2">L</text>
<text transform="matrix(0.9991 -4.222441e-02 4.222441e-02 0.9991 119.6563 161.4703)" class="st1 st2">Y</text>
<text transform="matrix(0.9991 -4.222441e-02 4.222441e-02 0.9991 129.8396 161.04)" class="st1 st2"> MARKETS</text>
</svg>
