<?xml version="1.0" encoding="utf-8"?>
<!-- Generator: Adobe Illustrator 21.1.0, SVG Export Plug-In . SVG Version: 6.00 Build 0)  -->
<svg version="1.1" id="Layer_1" xmlns="http://www.w3.org/2000/svg" xmlns:xlink="http://www.w3.org/1999/xlink" x="0px" y="0px"
	 viewBox="0 0 250 250" style="enable-background:new 0 0 250 250;" xml:space="preserve">
<style type="text/css">
	.st0{fill:#E9532A;}
	.st1{fill:#140101;}
	.st2{fill:#FDFDFC;}
</style>
<title>Grocery</title>
<path class="st0" d="M5.3,145.4c0.2-1,0.5-1.9,0.9-2.8c1.4-3,4.4-5,7.7-5c0.4,0,0.8,0,1.2,0h220.3c1.5-0.1,3,0.2,4.4,0.7
	c2.7,1.1,4.7,3.5,5.2,6.4c0,0.2,0,0.4,0.2,0.6v2.3c-0.2,0-0.1,0.2-0.1,0.4c-0.5,3.4-3.1,6.2-6.4,7.1c-0.4,0.1-0.8,0.2-1.3,0.3H13.2
	c-0.1,0-0.2-0.1-0.3-0.1c-3.4-0.5-6.2-2.8-7.1-6.1c-0.2-0.6-0.3-1.1-0.4-1.7V145.4z M110.6,151.4c0.7,0,1.3,0,2,0
	c0.4,0,0.7,0,0.6-0.6c0-0.6-0.3-0.5-0.6-0.5h-0.5c-0.4,0-0.6-0.2-0.6-0.6c0-0.8,0-1.5,0-2.3c0-0.3,0.1-0.4,0.4-0.4
	c1.1,0,2.2,0,3.4,0c0.3,0,0.4,0.1,0.4,0.4c0,0.5,0,1.1,0,1.6c0,1.2,0,1.2-1.2,1.2c-0.4,0-0.5,0.1-0.5,0.5c0,0.4,0,0.6,0.5,0.6
	c1.4,0,2.8,0,4.3,0c0.3,0,0.4-0.1,0.5-0.4c0-0.4-0.1-0.7-0.7-0.7c-0.5,0.1-0.9,0.1-0.9-0.6c0-2.1,0-4.1,0-6.2c0-0.3,0.1-0.5,0.4-0.6
	c0,0,0.1,0,0.1,0c0.2,0,0.4,0,0.5,0c0.5,0.1,0.5-0.2,0.5-0.5s0-0.5-0.5-0.5c-1.4,0-2.8,0-4.3,0c-0.5,0-0.5,0.3-0.5,0.6
	c0,0.3,0,0.5,0.5,0.5c0.2,0,0.4,0,0.5,0c0.5,0,0.7,0.2,0.7,0.7s0,1.2,0,1.9c0,0.4-0.1,0.5-0.5,0.5c-0.6,0-1.2,0-1.9,0
	s-1.3,0.3-1.7-0.1c-0.3-0.4-0.1-1.1-0.1-1.6c0-1.1-0.3-1.3,1.2-1.3c0.5,0,0.5-0.2,0.5-0.5s0-0.5-0.5-0.5c-1.4,0-2.8,0-4.3,0
	c-0.4,0-0.5,0.1-0.5,0.5c0,0.4,0.1,0.7,0.6,0.6s0.9-0.1,0.9,0.5c0,2.1,0,4.2,0,6.2c0,0.3-0.2,0.5-0.4,0.5c0,0-0.1,0-0.1,0
	c-0.2,0-0.3,0-0.5,0c-0.4,0-0.5,0.1-0.5,0.5c0,0.4,0.1,0.6,0.6,0.6C109.3,151.3,109.9,151.4,110.6,151.4L110.6,151.4z M69,141.9
	c-0.7,0-1.3,0-2,0c-0.5,0-0.6,0.1-0.6,0.6s0.1,0.6,0.5,0.5c0.1,0,0.3,0,0.4,0c0.5,0,0.7,0.2,0.7,0.7c0,0.5,0,1.3,0,1.9
	c0,0.4-0.1,0.4-0.5,0.4h-2c-0.5,0-1.2,0.2-1.5-0.1s-0.1-1-0.1-1.5c0-1.3,0-1.3,1.3-1.4c0.4,0,0.4-0.3,0.4-0.5s0.1-0.6-0.4-0.6
	c-1.5,0-3,0-4.4,0c-0.3,0-0.4,0.1-0.4,0.4c0,0.5,0.1,0.7,0.7,0.7c0.8,0,0.8,0,0.8,0.8c0,1.8,0,3.6,0,5.5c0,1,0,1-1,1
	c-0.5,0-0.5,0.2-0.5,0.6c0,0.4,0.1,0.5,0.5,0.5c1.3,0,2.8,0,4.1,0c0.5,0,0.5-0.2,0.5-0.6s0-0.6-0.5-0.5c-0.2,0-0.4,0-0.5,0
	c-0.5,0-0.7-0.2-0.7-0.7c0-0.7,0-1.3,0-2.1c0-0.3,0-0.5,0.4-0.5c1.1,0,2.2,0,3.3,0c0.4,0,0.5,0.1,0.4,0.5c0,0.3,0,1,0,1.6
	c0,1.1,0.2,1.3-1.2,1.2c-0.5,0-0.4,0.2-0.5,0.5c0,0.3,0,0.5,0.5,0.5c1.3,0,2.8,0,4.2,0c0.4,0,0.5-0.1,0.5-0.5c0-0.4-0.2-0.6-0.6-0.6
	c-0.4,0-0.9,0.1-0.9-0.5c0-2.1,0-4.2,0-6.2c0-0.3,0.2-0.5,0.5-0.5c0,0,0.1,0,0.1,0c0.2,0,0.4,0,0.5,0c0.4,0,0.5-0.2,0.4-0.5
	c0-0.3,0.1-0.6-0.4-0.6C70.5,141.9,69.7,141.9,69,141.9L69,141.9z M26.6,148.5h-0.1c-1.3-2.1-2.5-4.1-3.8-6.2
	c-0.1-0.3-0.4-0.4-0.7-0.4c-1.1,0-2.2,0-3.2,0c-0.4,0-0.5,0.1-0.6,0.5c0,0.4,0.1,0.6,0.6,0.6c1,0,1,0,1,1c0,1.7,0,3.4,0,5.2
	c0,1.1,0,1.1-1.1,1.1c-0.4,0-0.5,0.1-0.5,0.5c0,0.4,0,0.6,0.5,0.6c1.2,0,2.5,0,3.7,0c0.5,0,0.5-0.2,0.5-0.6s-0.1-0.5-0.5-0.5
	c-1.1,0-1.1,0-1.1-1.1c0-1.1,0-2.2,0-3.4v-2.1l0.3,0.4c1.2,2,2.5,4,3.6,6c0.4,0.9,1.3,1.5,2.3,1.3c0.5,0,0.6-0.2,0.6-0.6
	c0-2.2,0-4.5,0-6.7c0-1,0-1.1,1.1-1c0.4,0,0.5-0.1,0.5-0.5c0-0.4,0-0.6-0.5-0.6c-1.2,0-2.4,0-3.7,0c-0.4,0-0.5,0.2-0.5,0.5
	s0.1,0.6,0.6,0.6c0.5,0,1,0,1,0.6C26.6,145.2,26.6,146.9,26.6,148.5z M180.4,146.6c0.2-0.1,0.4-0.2,0.6-0.2c0.8-0.2,1.5-0.8,1.7-1.6
	c0.4-1.1-0.3-2.3-1.4-2.7c-0.1,0-0.3-0.1-0.5-0.1c-2.3-0.2-4.7-0.2-7-0.1c-0.4,0-0.3,0.3-0.3,0.6c0,0.2-0.1,0.5,0.3,0.5
	c0.3,0,0.5,0,0.8,0c0.2,0,0.5,0.2,0.5,0.4c0,0,0,0.1,0,0.1c0,2.1,0,4.2,0,6.3c0,0.2-0.2,0.5-0.4,0.5c0,0,0,0-0.1,0
	c-0.2,0-0.4,0-0.6,0c-0.4,0-0.5,0.1-0.5,0.5c0,0.4,0,0.6,0.5,0.6c1.3,0,2.8,0,4.2,0c0.4,0,0.5-0.2,0.5-0.6c0-0.4-0.1-0.6-0.5-0.5
	c-0.1,0-0.3,0-0.4,0c-0.5,0-0.7-0.2-0.7-0.7c0-0.5,0-1.1,0-1.7c0-1,0-1,1.1-1c1.3,0,1.8,0.5,1.9,1.8c0,0.4,0,0.8,0.1,1.3
	c0.1,1.1,0.6,1.6,1.5,1.7c0.9,0.2,1.9-0.3,2.1-1.3c0,0,0,0,0-0.1c0.1-0.3,0.1-0.6,0.1-0.9c0-0.3,0.1-0.6-0.4-0.6
	c-0.5,0-0.6,0.1-0.5,0.5c0,0.2,0,0.4,0,0.6c0,0.2-0.1,0.4-0.4,0.4c-0.2,0-0.4-0.1-0.5-0.4c-0.1-0.4-0.2-0.8-0.2-1.2
	C181.9,147.3,181.7,147,180.4,146.6z M225.6,146.6c0.5-0.2,0.8-0.3,1.1-0.4c0.9-0.3,1.4-1.2,1.3-2.1c0-1-0.6-1.8-1.5-2
	c-0.6-0.2-1.2-0.2-1.8-0.2c-1.8,0-3.5,0-5.3,0c-0.5,0-0.6,0.1-0.6,0.6s0.3,0.5,0.7,0.5c0.9,0,0.9,0,0.9,0.9c0,1.8,0,3.6,0,5.3
	c0,1.1,0,1.1-1,1.1c-0.4,0-0.5,0.1-0.5,0.5s0.1,0.6,0.6,0.6c1.3,0,2.7,0,4.1,0c0.5,0,0.5-0.2,0.6-0.6s-0.2-0.5-0.6-0.5
	c-0.1,0-0.3,0-0.4,0c-0.5,0-0.7-0.2-0.6-0.6c0-0.5,0-1,0-1.5c0-1.3,0-1.3,1.3-1.2c0.8-0.1,1.6,0.6,1.6,1.4c0,0,0,0.1,0,0.1
	c0,0.5,0.1,1,0.1,1.5c0,0.5,0.2,1,0.6,1.3c0.9,0.6,2.1,0.4,2.7-0.5c0.1-0.2,0.2-0.4,0.3-0.6c0.1-0.3,0.1-0.6,0.1-0.9
	c0-0.3,0-0.6-0.4-0.6s-0.6,0.1-0.5,0.5c0,0.2,0,0.4,0,0.6c0,0.2-0.1,0.4-0.3,0.4c-0.2,0-0.4-0.1-0.5-0.4c-0.1-0.4-0.2-0.7-0.1-1.1
	C227.3,147.7,227,146.8,225.6,146.6L225.6,146.6z M212.3,151.3L212.3,151.3c1.4,0,2.8,0,4.3,0c0.4,0,0.5-0.1,0.5-0.5c0-1,0-2,0-3.1
	c0-0.3,0-0.5-0.3-0.5c-0.3,0.1-0.7-0.2-0.8,0.4c0,0.4-0.1,0.8-0.2,1.2c-0.1,0.7-0.6,1.2-1.3,1.3c-0.9,0-1.9,0-2.8,0
	c-0.2,0-0.3-0.1-0.3-0.3c0-0.9,0-1.8,0-2.7c0-0.1,0-0.2,0.2-0.3c0.7-0.3,1.5,0.1,1.7,0.8c0,0.1,0,0.1,0,0.2c0,0.2,0,0.4,0,0.6
	c0,0.5,0.3,0.4,0.6,0.4c0.3,0,0.5,0,0.5-0.4c0-1.3,0-2.7,0-4.1c0-0.2,0-0.3-0.3-0.3c-0.7-0.1-0.8,0-0.8,0.7
	c-0.1,0.7-0.8,1.2-1.5,1.1c-0.1,0-0.2,0-0.3-0.1c-0.2-0.1-0.2-0.2-0.2-0.3c0-0.8,0-1.5,0-2.3c0-0.2,0.1-0.3,0.3-0.3
	c0.9,0,1.8,0,2.8,0c0.8,0,1.4,0.6,1.5,1.3c0.1,0.3,0.1,0.6,0.2,0.9c0,0.5,0.4,0.3,0.7,0.4c0.3,0,0.4-0.1,0.4-0.4c0-0.9,0-1.8,0-2.8
	c0-0.5-0.1-0.6-0.6-0.6c-2.7,0-5.5,0-8.2,0c-0.4,0-0.6,0-0.6,0.5s0.2,0.6,0.6,0.5c0.9,0,1,0.1,1,1c0,1.8,0,3.6,0,5.3
	c0,0.9-0.1,1.1-1,1.1c-0.4,0-0.5,0.1-0.5,0.5c0,0.4,0.1,0.5,0.5,0.5C209.5,151.3,210.9,151.4,212.3,151.3L212.3,151.3z M102.9,146.6
	l0.6-0.2c1.2-0.2,2-1.3,1.8-2.5c-0.1-1.1-0.7-1.8-2-2c-0.4-0.1-0.7-0.1-1.1-0.1c-1.8,0-3.7,0-5.5,0c-0.4,0-0.5,0.1-0.6,0.5
	c0,0.4,0.3,0.6,0.7,0.6c0.8,0,0.9,0.1,0.9,0.9c0,1.8,0,3.6,0,5.3c0,1,0,1-1,1c-0.4,0-0.5,0.1-0.5,0.5c0,0.4,0.1,0.6,0.5,0.6
	c1.3,0,2.7,0,4.1,0c0.4,0,0.6,0,0.6-0.5s-0.2-0.6-0.6-0.5c-0.1,0-0.3,0-0.4,0c-0.5,0-0.7-0.2-0.7-0.7s0-1.2,0-1.7c0-1,0-1,1-1
	c1.3,0,1.9,0.5,2,1.9c0,0.5,0,0.9,0.1,1.3c0,0.8,0.6,1.4,1.4,1.4c0.9,0.2,1.8-0.2,2.1-1.1c0.2-0.4,0.2-0.9,0.2-1.3
	c0-0.3,0-0.6-0.4-0.6c-0.4,0-0.6,0.2-0.5,0.6c0,0.2,0,0.3,0,0.5c0,0.3-0.1,0.5-0.4,0.5s-0.4-0.2-0.5-0.4c-0.1-0.4-0.2-0.8-0.2-1.2
	C104.5,147.3,104.2,147,102.9,146.6L102.9,146.6z M35.6,151.4L35.6,151.4c1.3,0,2.8,0,4.2,0c0.4,0,0.5-0.1,0.5-0.5c0-1,0-1.9,0-2.9
	c0-0.5-0.1-0.7-0.6-0.6c-0.5,0-0.5,0.1-0.5,0.5c0,0.4-0.1,0.8-0.2,1.2c-0.2,0.8-0.9,1.3-1.7,1.2h-2.4c-0.3,0-0.4,0-0.4-0.4
	c0-0.9,0-1.7,0-2.6c0-0.3,0.1-0.4,0.4-0.4c1.1,0,1.5,0.3,1.5,1.5c0,0.5,0.3,0.4,0.6,0.4c0.3,0,0.5,0,0.5-0.4c0-1.3,0-2.6,0-3.9
	c0-0.3-0.1-0.5-0.4-0.4c-0.3,0.1-0.6-0.2-0.7,0.4c0,1.1-0.5,1.4-1.5,1.3c-0.3,0-0.4-0.1-0.4-0.4c0-0.7,0-1.4,0-2.2
	c0-0.3,0.1-0.4,0.4-0.4c0.3,0,1,0,1.5,0c2,0,2.7,0.3,2.8,2.3c0,0.5,0.4,0.3,0.7,0.4c0.3,0,0.4-0.2,0.4-0.4c0-0.9,0-1.9,0-2.8
	c0-0.4-0.1-0.5-0.5-0.5c-2.8,0-5.6,0-8.3,0c-0.4,0-0.5,0-0.5,0.5c0,0.5,0.2,0.6,0.6,0.6c0.8,0,0.9,0.1,0.9,0.9c0,1.8,0,3.6,0,5.3
	c0,0.9-0.1,1.1-1.1,1.1c-0.4,0-0.5,0.1-0.5,0.5c0,0.4,0,0.6,0.5,0.6C32.8,151.3,34.3,151.4,35.6,151.4z M80.3,146.4
	c0.1-0.2,0.3-0.2,0.5-0.2c0.8-0.2,1.3-1,1.3-1.8c0.1-0.9-0.4-1.7-1.3-2c-0.3-0.1-0.7-0.2-1.1-0.3c-2.1-0.2-4.2,0-6.2-0.1
	c-0.2,0-0.3,0.1-0.4,0.3c0,0.7,0,0.7,0.7,0.7c0.7,0,0.9,0.1,0.9,0.9c0,1.9,0,3.8,0,5.7c0,0.5-0.2,0.7-0.7,0.7c-0.1,0-0.3,0-0.4,0
	c-0.4-0.1-0.5,0.1-0.5,0.5c0,0.4,0,0.6,0.5,0.6c1.5,0,3,0,4.6,0c0.7,0,1.5,0,2.2-0.1c0.9-0.1,1.7-0.8,1.9-1.7
	C82.7,147.9,82.1,147,80.3,146.4L80.3,146.4z M56.4,146.3h-2.2c-0.3,0-0.4,0-0.4,0.4s0.1,0.7,0.7,0.7c0.3,0,0.7,0,0.9,0.3
	c0.3,0.9,0,1.9-0.7,2.4c-1.3,0.6-2.8,0.1-3.4-1.1c0,0,0-0.1-0.1-0.1c-0.6-1.5-0.6-3.1,0-4.6c0.5-1.2,1.9-1.8,3.1-1.3
	c0.5,0.2,0.8,0.5,1.1,0.9c0.3,0.4,0.6,0.9,0.7,1.4c0.2,0.5,0.6,0.2,0.9,0.2c0.3,0,0.3-0.2,0.3-0.4c0-0.9,0-1.8,0-2.7
	c0-0.2,0.1-0.5-0.2-0.5c-0.3,0-0.8-0.3-1,0.3c-0.2,0.5-0.3,0.4-0.7,0.2c-1.7-1.2-4.1-1-5.5,0.5c-0.9,1-1.4,2.3-1.3,3.7
	c-0.2,1.7,0.6,3.4,2.1,4.4c1.5,0.9,3.3,0.9,4.8,0c0.4-0.2,0.7-0.4,1,0.2c0.2,0.4,0.6,0.2,0.9,0.2s0.2-0.4,0.2-0.6c0-0.7,0-1.5,0-2.2
	c0-1.1,0-1.1,1.1-1.1c0.5,0,0.4-0.3,0.4-0.5s0-0.6-0.4-0.5C57.9,146.3,57.2,146.3,56.4,146.3L56.4,146.3z M147.7,151.4L147.7,151.4
	c0.9,0,1.8,0,2.7,0c2,0.1,3.9-1.2,4.4-3.2c0.2-0.8,0.2-1.6,0.1-2.4c-0.1-2.1-1.8-3.7-3.8-3.8c-2.1-0.2-4.2,0-6.2-0.1
	c-0.2,0-0.3,0.1-0.3,0.3c0,0.7,0,0.7,0.7,0.7c0.7,0,0.9,0.1,0.9,0.9c0,1.8,0,3.6,0,5.3c0,1,0,1.1-1.1,1.1c-0.4,0-0.5,0.2-0.5,0.5
	c0,0.4,0,0.6,0.5,0.6C145.9,151.3,146.8,151.4,147.7,151.4L147.7,151.4z M169.6,146.3c-0.7,0-1.4,0-2.2,0c-0.3,0-0.4,0.1-0.5,0.4
	c0,0.3,0.1,0.7,0.6,0.7c0.5,0,0.8,0,1,0.4c0.3,0.9,0,1.8-0.7,2.3c-1.2,0.7-2.8,0.3-3.5-0.9c-0.1-0.1-0.1-0.2-0.2-0.3
	c-0.5-1.4-0.5-2.9,0-4.3c0.2-0.9,1-1.6,1.9-1.7c1-0.1,1.9,0.3,2.5,1.2c0.3,0.4,0.5,0.8,0.6,1.2c0.2,0.5,0.6,0.3,0.9,0.3
	s0.3-0.3,0.3-0.5c0-0.9,0-1.7,0-2.6c0-0.2,0.2-0.6-0.3-0.6c-0.4,0-0.8-0.2-0.9,0.3c-0.1,0.5-0.3,0.3-0.6,0.1c-1.4-1-3.2-1.1-4.7-0.2
	c-1.4,0.8-2.3,2.3-2.3,4c-0.3,1.8,0.4,3.7,2,4.7c1.5,1,3.4,1,4.9,0.1c0.4-0.2,0.7-0.4,1,0.2c0.2,0.4,0.6,0.2,0.9,0.2
	c0.3,0,0.2-0.4,0.2-0.6c0-0.7,0-1.5,0-2.2c0-1,0-1.2,1.1-1.1c0.5,0,0.4-0.3,0.4-0.6c0-0.3,0-0.5-0.4-0.5
	C171.1,146.3,170.3,146.3,169.6,146.3L169.6,146.3z M190.6,141.6c-2.8,0.1-4.9,2.4-4.8,5.1c0.1,2.8,2.4,4.9,5.1,4.8
	c2.7-0.1,4.8-2.3,4.8-5c0.1-2.7-2.1-4.9-4.8-5C190.9,141.6,190.7,141.6,190.6,141.6L190.6,141.6z M137.8,141.6
	c-2.8,0.1-4.9,2.4-4.8,5.2c0.1,2.8,2.4,4.9,5.2,4.8c2.7-0.1,4.8-2.3,4.8-5c0.1-2.7-2.1-4.9-4.8-5C138,141.6,137.9,141.6,137.8,141.6
	L137.8,141.6z M131,146.6c0.1-2.8-2.1-5.2-5-5.3c-2.8-0.1-5.2,2.1-5.3,5c-0.1,2.8,2.1,5.2,5,5.3c0,0,0.1,0,0.1,0
	c2.7,0.2,5-1.8,5.2-4.5C131,147,131,146.8,131,146.6L131,146.6z M89.3,151.6c2.8-0.1,4.9-2.3,4.9-5.1c-0.1-2.8-2.3-4.9-5.1-4.9
	c-2.7,0.1-4.9,2.3-4.9,5c-0.1,2.7,1.9,4.9,4.6,5C89,151.6,89.2,151.6,89.3,151.6L89.3,151.6z M205.9,143.8c0-0.5,0-1,0-1.6
	c0-0.2,0-0.5-0.3-0.4s-0.7-0.2-0.8,0.2c-0.2,0.7-0.5,0.6-0.9,0.2c-0.1-0.1-0.2-0.1-0.3-0.2c-2.3-1-4.9,0-5.9,2.3
	c0,0.1-0.1,0.2-0.1,0.3c-1.3,3.8,0.8,7.2,4.6,7.1c2,0,3.6-1.5,3.7-3.5c0-0.1,0.1-0.3-0.1-0.4c-0.5-0.2-1,0-1.2,0.5c0,0,0,0,0,0.1
	c-0.2,1.2-1.2,2-2.3,2.1c-1.2,0.1-2.2-0.7-2.5-1.9c-0.4-1.3-0.4-2.8,0.1-4.1c0.3-1,1.2-1.6,2.2-1.6c1.1-0.1,2,0.6,2.4,1.5
	c0.1,0.3,0.2,0.6,0.3,1c0.1,0.5,0.5,0.3,0.8,0.3c0.3,0.1,0.3-0.2,0.3-0.4C206,144.8,206,144.3,205.9,143.8L205.9,143.8z M44.5,151.4
	h2.1c0.2,0,0.3,0,0.4-0.2c0.2-0.6,0-0.8-0.6-0.8c-0.6,0-0.9-0.2-0.9-0.9c0-1.8,0-3.6,0-5.3c0-0.9,0.1-1.1,1-1c0.4,0,0.5-0.1,0.5-0.5
	c0-0.4,0-0.6-0.5-0.6c-1.3,0-2.7,0-4,0c-0.4,0-0.6,0-0.6,0.5c0,0.5,0.2,0.6,0.6,0.5c0.8,0,0.9,0.1,0.9,0.9c0,1.8,0,3.6,0,5.3
	c0,1,0,1.1-1.1,1.1c-0.4,0-0.5,0.2-0.4,0.5c0,0.3,0,0.6,0.4,0.6C43.2,151.3,43.9,151.4,44.5,151.4L44.5,151.4z M229.9,144
	c-0.1,1.2,0.9,2.2,2.1,2.3c0,0,0.1,0,0.1,0c1.2,0,2.3-1,2.3-2.2c0,0,0,0,0-0.1c-0.1-1.2-1.2-2.2-2.4-2.1
	C230.8,142,230,142.9,229.9,144L229.9,144z"/>
<path class="st1" d="M5.3,95.7c0.2,0,0.4,0,0.6,0c5.3,0,10.7,0,16.1,0c0.5,0,0.6,0.1,0.6,0.6c0,1,0,2,0,2.9c0,0.4-0.1,0.5-0.5,0.5
	c-0.8,0.1-1.6,0.2-2.4,0.3c-0.3,0-0.4,0.1-0.4,0.4c0,3.4,0,6.8,0,10.3c0,0.3,0.1,0.4,0.4,0.4h8.8c0.3,0,0.4,0,0.4-0.4
	c0-3.4,0-6.9,0-10.3c0-0.3-0.1-0.4-0.4-0.4c-0.8-0.1-1.6-0.2-2.4-0.3c-0.3,0-0.5-0.1-0.5-0.5c0-1,0-2.1,0-3.1c0-0.3,0.1-0.4,0.4-0.4
	h16.5c0.3,0,0.4,0.1,0.4,0.4c0,1.1,0,2.1,0,3.2c0,0.3-0.1,0.4-0.4,0.5c-0.8,0.1-1.5,0.2-2.3,0.3c-0.4,0-0.5,0.2-0.5,0.6
	c0,4.7,0,9.4,0,14.2c0,4.3,0,8.5,0,12.8c0,0.4,0.1,0.6,0.6,0.6c0.8,0,1.5,0.2,2.3,0.2c0.3,0,0.4,0.1,0.4,0.5c0,1.1,0,2.1,0,3.2
	c0,0.3-0.1,0.4-0.4,0.4H26c-0.3,0-0.5,0-0.4-0.4c0-1.1,0-2.1,0-3.2c0-0.3,0.1-0.4,0.4-0.4c0.8-0.1,1.7-0.2,2.5-0.3
	c0.3,0,0.4-0.1,0.4-0.4c0-4.1,0-8.1,0-12.2c0-0.3-0.1-0.4-0.4-0.4c-2.9,0-5.8,0-8.8,0c-0.4,0-0.4,0.2-0.4,0.4c0,4.1,0,8.1,0,12.2
	c0,0.3,0.1,0.4,0.4,0.4c0.8,0,1.6,0.2,2.4,0.3c0.3,0,0.4,0.1,0.4,0.5c0,1,0,2,0,2.9c0,0.5-0.1,0.6-0.6,0.6c-5.6,0-11.1,0-16.7,0v-4
	c0.9-0.1,1.8-0.3,2.7-0.3c0.6,0,0.6-0.3,0.6-0.7c0-8.9,0-17.8,0-26.7c0-0.1,0-0.2,0-0.3c0-0.3-0.1-0.4-0.4-0.4
	c-1-0.1-1.9-0.2-2.9-0.3L5.3,95.7z"/>
<path class="st1" d="M170.7,95.3c0.8,0.2,1.7,0.3,2.5,0.5c4.3,1.2,7.9,4.2,10,8.1c4.4,7.8,3.3,17.4-2.6,24.1
	c-5.7,6.3-15.5,6.8-21.8,1.1c-0.6-0.6-1.2-1.2-1.8-1.9c-6.4-8-6-19.5,0.9-27c2.4-2.7,5.7-4.4,9.3-4.8c0.1,0,0.2,0,0.2-0.1
	L170.7,95.3z M174.3,113.2c0-2.8-0.2-5.6-0.7-8.4c-0.2-1.5-0.8-2.9-1.7-4.2c-1.3-1.5-3.5-1.8-5.1-0.5c-0.2,0.2-0.4,0.3-0.5,0.5
	c-0.4,0.5-0.7,1.1-1,1.7c-0.6,1.4-0.9,2.9-1.1,4.5c-0.6,5.2-0.5,10.5,0.1,15.7c0.2,1.7,0.6,3.3,1.5,4.7c0.9,1.8,3.1,2.5,4.9,1.6
	c0.7-0.3,1.3-0.9,1.6-1.6c0.6-1,1.1-2.2,1.3-3.4C174.3,120.3,174.5,116.7,174.3,113.2z"/>
<path class="st1" d="M228.6,95.5c-0.8,0.1-1.7,0.3-2.5,0.5c-5.7,1.4-9.2,7.2-7.8,12.9c0.1,0.6,0.3,1.1,0.5,1.6
	c1.1,2.5,3.1,4.6,5.5,5.9c2.3,1.2,4.6,2.3,7,3.1c1.7,0.6,3.2,1.5,4.5,2.7c1.6,1.5,1.6,4.1,0.1,5.7c-0.2,0.2-0.4,0.4-0.7,0.6
	c-1.4,0.9-3.2,1.2-4.8,0.8c-2.2-0.5-4.2-1.7-5.7-3.4c-1.6-1.7-2.9-3.7-3.9-5.7c-0.1-0.3-0.4-0.5-0.7-0.4c0,0,0,0,0,0
	c-0.8,0.2-1.5,0.4-2.3,0.5c-0.4,0.1-0.5,0.2-0.4,0.6c0.5,3,0.9,5.9,1.4,8.9c0.2,1,0.3,2,0.5,3c0.3-0.1,0.5-0.2,0.7-0.3
	c1.7-1,3.7-1.1,5.5-0.4c3,1.2,6.3,1.5,9.4,0.9c5.1-1.1,8.6-4,10-9.2c0-0.4,0.1-0.8,0.3-1.2v-3.2c-0.2-0.4-0.3-0.8-0.3-1.2
	c-0.7-2.7-2.3-5-4.6-6.5c-2.3-1.5-4.7-2.6-7.3-3.5c-1.6-0.5-3.1-1.2-4.6-1.9c-1-0.4-1.7-1.3-2.1-2.2c-0.6-1.8,0.4-3.8,2.2-4.4
	c0.3-0.1,0.5-0.1,0.8-0.2c1.9-0.2,3.9,0.4,5.4,1.6c2.1,1.7,3.9,3.9,5,6.3c0.2,0.4,0.3,0.5,0.8,0.4c0.8-0.3,1.6-0.5,2.5-0.7
	c0.4-0.1,0.4-0.2,0.3-0.6c-0.7-3.4-1.3-6.8-2-10.1c0-0.3-0.1-0.5-0.5-0.3c-1.5,0.9-3.3,1.1-4.9,0.5c-1.5-0.5-3.1-0.8-4.6-0.9
	c-0.7,0-1.3-0.1-2.2-0.1L228.6,95.5z"/>
<path class="st1" d="M133.5,112.9l1.8-5.3c1.2-3.7,2.4-7.3,3.6-11c0.1-0.3,0.2-0.5,0.6-0.5c4.4,0,8.8,0,13.1,0
	c0.4,0,0.5,0.1,0.5,0.5c0,1,0,2,0,3c0,0.4-0.2,0.5-0.5,0.6c-0.7,0.1-1.3,0.2-2.1,0.2c-0.3,0-0.3,0.1-0.3,0.4
	c0.2,5.1,0.3,10.2,0.5,15.2c0.1,3.8,0.3,7.7,0.4,11.5c0,0.5,0.2,0.7,0.7,0.7c0.5,0,1.1,0.2,1.7,0.2s0.5,0.1,0.5,0.5c0,1,0,2,0,3.1
	c0,0.3,0,0.4-0.4,0.4h-15.6c-0.3,0-0.4,0-0.4-0.3c0-1.1,0-2.2,0-3.2c0-0.3,0.1-0.4,0.4-0.4c0.9-0.1,1.8-0.2,2.7-0.3
	c0.3,0,0.4-0.1,0.4-0.4c-0.2-7.9-0.5-15.9-0.7-23.8c0-0.1,0-0.2,0-0.3l-0.8,2.3c-2.2,6.5-4.3,12.9-6.5,19.4
	c-0.1,0.4-0.4,0.6-0.8,0.5c0,0,0,0,0,0c-1.3,0-2.7,0-3.9,0c-0.4,0-0.5-0.1-0.7-0.5c-2.2-6.6-4.4-13.3-6.7-19.9
	c0-0.2-0.1-0.3-0.3-0.5c0,0.5,0,0.9,0,1.4c-0.1,5.7-0.3,11.4-0.4,17.1c0,0.6,0,1.1,0.1,1.7c0.1,1.6,1.4,2.9,3,3c1,0.2,1,0.2,1,1.3
	c0,0.8,0,1.6,0,2.5c0,0.3-0.1,0.4-0.4,0.4h-11.4c-0.3,0-0.4-0.1-0.4-0.4c0-1.1,0-2.1,0-3.2c0-0.2,0-0.4,0.3-0.4
	c2.5-0.3,3.3-1.2,3.5-3.7s0.2-4.9,0.3-7.3c0.2-5.5,0.3-10.9,0.5-16.4c0-0.4-0.1-0.6-0.5-0.7c-0.5,0-1.2-0.2-1.8-0.2
	c-0.3,0-0.4-0.2-0.4-0.5c0-1,0-2.1,0-3.1c0-0.3,0.1-0.4,0.4-0.4c4.2,0,8.4,0,12.7,0c0.4,0,0.5,0.2,0.6,0.5l5.3,16L133.5,112.9z"/>
<path class="st1" d="M80.9,114.2c0-4.4,0-8.8,0-13.2c0-0.4,0-0.7-0.6-0.7c-0.8,0-1.5-0.2-2.3-0.2c-0.3,0-0.4-0.1-0.4-0.5
	c0-1.1,0-2.1,0-3.2c0-0.3,0.1-0.4,0.4-0.4c6.2,0,12.4,0,18.5,0c2.7,0,5.4,0.5,8,1.4c3,1,5.2,3.7,5.6,6.9c0.7,3.3-0.6,6.8-3.3,8.9
	c-1.1,0.9-2.5,1.4-3.9,1.6c-0.4,0.1-0.4,0.2-0.2,0.5c2.1,4.2,4.3,8.3,6.4,12.5c0.1,0.2,0.4,0.4,0.6,0.4c0.6,0.1,1.2,0.2,1.8,0.2
	c0.4,0,0.5,0.2,0.5,0.5c0,1,0,2,0,3c0,0.4-0.2,0.5-0.5,0.5h-6.8c-1.3,0-2.7,0-4,0c-0.4,0.1-0.7-0.2-0.8-0.5
	c-2.2-5.2-4.5-10.3-6.7-15.5c-0.1-0.4-0.5-0.7-0.9-0.6c-1.3,0-1.3,0-1.3,1.3c0,3.5,0,7,0,10.4c0,0.4,0.1,0.6,0.5,0.6
	c0.8,0,1.5,0.2,2.3,0.2c0.4,0,0.5,0.2,0.5,0.6c0,0.9,0,1.9,0,2.8c0,0.5-0.1,0.6-0.6,0.6c-5,0-9.9,0-14.9,0c-1.3,0-1.3,0-1.3-1.3
	c0-0.7,0-1.4,0-2.2c0-0.3,0-0.5,0.4-0.5c0.8,0,1.5-0.2,2.3-0.2c0.4,0,0.5-0.2,0.5-0.6C80.8,123.1,80.9,118.7,80.9,114.2z M91,106.2
	c0,1,0,1.9,0,2.9c0,1,0,2,0,2.9c0,0.3,0,0.5,0.5,0.5c0.8,0,1.5,0,2.3,0c2.5,0,4.7-1.7,5.2-4.1c0.2-1.2,0.2-2.4,0-3.6
	c-0.3-2.4-2.1-4.3-4.5-4.7c-1-0.1-1.9-0.1-2.9,0c-0.4,0-0.6,0.1-0.6,0.6C91,102.4,91,104.3,91,106.2z"/>
<path class="st1" d="M210.5,116.8c0-0.3,0-0.5,0-0.8c0-3.9,0-7.8,0-11.8c0-0.3,0-0.7-0.1-1c0-1.8-1.5-3.3-3.4-3.3
	c-0.4,0-0.5-0.2-0.5-0.6c0-1,0-1.9,0-2.9c0-0.4,0-0.5,0.5-0.5c3.4,0,6.7,0,10.1,0c0.4,0,0.5,0,0.5,0.5c0,1,0,1.9,0,2.9
	c0,0.4-0.1,0.5-0.5,0.5c-1.6,0.1-2.8,1.4-2.7,2.9c0,0,0,0,0,0c-0.1,0.6-0.1,1.3-0.1,1.9c0,9,0,18,0,27c0,0.5-0.1,0.7-0.7,0.6
	c-1.6,0-3.3,0-4.9,0c-0.4,0-0.7-0.2-0.9-0.5c-5.2-8.3-10.4-16.6-15.6-24.9l-0.3-0.5c-0.2,0.1-0.1,0.3-0.1,0.4c0,5.7,0,11.4,0,17.1
	c0,0.6,0.1,1.3,0.3,1.9c0.3,1.5,1.6,2.6,3.1,2.5c0.4,0,0.5,0.1,0.5,0.5c0,1,0,2,0,3c0,0.3-0.1,0.4-0.4,0.4c-3.5,0-6.9,0-10.4,0
	c-0.4,0-0.4-0.1-0.4-0.5c0-1,0-2,0-3.1c0-0.3,0-0.4,0.4-0.5c1.7,0,3.1-1.4,3.1-3.1c0-0.1,0-0.2,0-0.2c0-0.8,0.1-1.6,0.1-2.3
	c0-6.1,0-12.3,0-18.4c0-0.2,0-0.4,0-0.7c0.2-1.8-1.1-3.5-2.9-3.7c0,0-0.1,0-0.1,0c-0.4-0.1-0.5-0.3-0.5-0.6c0-1,0-1.9,0-2.9
	c0-0.3,0-0.5,0.5-0.5c4,0,8,0,12,0c0.3,0,0.5,0.2,0.6,0.4l9.6,15.1l3.1,4.9C210.2,116.6,210.2,116.7,210.5,116.8z"/>
<path class="st1" d="M53.2,96.1l2.1-0.1c2.8-0.1,5.7-0.2,8.5-0.3c0.4-0.1,0.9,0.2,1,0.6c0,0,0,0,0,0.1c3.2,10.4,6.4,20.8,9.7,31.2
	c0.1,0.3,0.4,0.6,0.7,0.6c0.5,0,1.1,0.2,1.6,0.2c0.3,0,0.4,0.1,0.4,0.4c0,1,0,2.1,0,3.1c0,0.3,0,0.4-0.4,0.4H61.8
	c-0.4,0-0.4-0.1-0.4-0.5c0-1,0-2,0-3.1c0-0.3,0.1-0.5,0.4-0.5c0.6,0,1.1-0.2,1.7-0.2c0.3,0,0.4-0.1,0.3-0.4
	c-0.6-1.9-1.2-3.8-1.8-5.8c0-0.2-0.2-0.4-0.5-0.4c0,0,0,0,0,0h-8.7c-0.3,0-0.4,0-0.5,0.3c-0.3,0.8-0.6,1.6-0.8,2.5
	c-0.6,1.5,0.2,3.2,1.7,3.7c0.3,0.1,0.6,0.2,0.9,0.2c0.9,0.2,0.9,0.2,0.9,1s0,1.8,0,2.7c0,0.3-0.1,0.4-0.4,0.4H44.1
	c-0.3,0-0.4-0.1-0.4-0.4c0-1.1,0-2.2,0-3.2c0-0.2,0.1-0.4,0.3-0.4c0,0,0,0,0,0c2-0.5,3.5-2,3.9-4l7.2-23.7c0.1-0.2,0.1-0.5,0-0.8
	c-0.4-1.1-0.9-2.2-1.5-3.2L53.2,96.1z M57.2,106c-0.1,0.1-0.1,0.2-0.1,0.2c-1.1,3.7-2.1,7.4-3.2,11.1c-0.1,0.4,0,0.4,0.3,0.4h6.2
	c0.4,0,0.5-0.1,0.3-0.4C59.5,113.5,58.3,109.7,57.2,106L57.2,106z"/>
<path class="st2" d="M110.6,151.4c-0.7,0-1.3,0-2,0c-0.4,0-0.6-0.1-0.6-0.6c0-0.5,0.1-0.6,0.5-0.5c0.2,0,0.3,0,0.5,0
	c0.3,0,0.5-0.2,0.5-0.4c0,0,0-0.1,0-0.1c0-2.1,0-4.2,0-6.2c0-0.7-0.5-0.6-0.9-0.5c-0.4,0-0.7-0.1-0.6-0.6c0-0.5,0.1-0.5,0.5-0.5
	c1.4,0,2.8,0,4.3,0c0.5,0,0.5,0.2,0.5,0.5s0,0.6-0.5,0.5c-1.5-0.1-1.2,0.2-1.2,1.3c0,0.6-0.2,1.3,0.1,1.6s1.1,0.1,1.7,0.1
	s1.2,0,1.9,0c0.4,0,0.5-0.1,0.5-0.5c0-0.6,0-1.2,0-1.9s-0.2-0.7-0.7-0.7c-0.2,0-0.4,0-0.5,0c-0.4,0-0.5-0.1-0.5-0.5
	c0-0.4,0-0.6,0.5-0.6c1.4,0,2.8,0,4.3,0c0.4,0,0.5,0.2,0.5,0.5s0,0.6-0.5,0.5c-0.2,0-0.4,0-0.5,0c-0.3,0-0.5,0.2-0.5,0.4
	c0,0,0,0.1,0,0.1c0,2.1,0,4.1,0,6.2c0,0.7,0.5,0.6,0.9,0.6s0.7,0.1,0.7,0.7c0,0.5-0.2,0.4-0.5,0.4c-1.4,0-2.8,0-4.3,0
	c-0.5,0-0.5-0.2-0.5-0.6c0-0.3,0.1-0.5,0.5-0.5c1.2,0,1.2,0,1.2-1.2c0-0.5,0-1.1,0-1.6c0-0.3-0.1-0.4-0.4-0.4c-1.1,0-2.2,0-3.4,0
	c-0.3,0-0.4,0.1-0.4,0.4c0,0.8,0,1.5,0,2.3c0,0.4,0.2,0.6,0.6,0.6h0.5c0.4,0,0.6,0,0.6,0.5c0,0.5-0.2,0.6-0.6,0.6
	C111.9,151.3,111.3,151.4,110.6,151.4z"/>
<path class="st2" d="M69,141.9c0.7,0,1.4,0,2.2,0c0.5,0,0.4,0.3,0.4,0.6c0,0.3,0,0.6-0.4,0.5c-0.2,0-0.4,0-0.5,0
	c-0.3,0-0.5,0.2-0.6,0.4c0,0,0,0.1,0,0.1c0,2.1,0,4.2,0,6.2c0,0.7,0.5,0.5,0.9,0.5c0.4,0,0.6,0.1,0.6,0.6c0,0.5-0.1,0.5-0.5,0.5
	c-1.3,0-2.8,0-4.2,0c-0.4,0-0.5-0.2-0.5-0.5c0-0.3,0-0.6,0.5-0.5c1.4,0.1,1.2-0.2,1.2-1.2c0-0.5,0-1,0-1.6c0-0.5-0.1-0.5-0.4-0.5
	c-1.1,0-2.2,0-3.3,0c-0.4,0-0.4,0.1-0.4,0.5c0,0.7,0,1.3,0,2.1c0,0.5,0.2,0.7,0.7,0.7c0.2,0,0.4,0,0.5,0c0.4,0,0.5,0.2,0.5,0.5
	s0,0.6-0.5,0.6c-1.3,0-2.8,0-4.1,0c-0.4,0-0.6-0.1-0.5-0.5s0.1-0.6,0.5-0.6c1,0,1,0,1-1c0-1.8,0-3.6,0-5.5c0-0.8,0-0.9-0.8-0.8
	c-0.6,0-0.7-0.2-0.7-0.7c0-0.3,0.1-0.4,0.4-0.4c1.5,0,3,0,4.4,0c0.5,0,0.3,0.3,0.4,0.6c0,0.3,0,0.5-0.4,0.5
	c-1.3,0.1-1.3,0.1-1.3,1.4c0,0.5-0.2,1.2,0.1,1.5s1,0.1,1.5,0.1h2.1c0.3,0,0.5-0.1,0.5-0.4c0-0.6,0-1.3,0-1.9s-0.2-0.7-0.7-0.7
	c-0.1,0-0.3,0-0.4,0c-0.4,0-0.5-0.1-0.5-0.5s0.1-0.6,0.6-0.6C67.7,141.9,68.3,141.9,69,141.9z"/>
<path class="st2" d="M26.6,148.5c0-1.6,0-3.3,0-4.9c0-0.7-0.6-0.6-1-0.6c-0.5,0-0.6-0.1-0.6-0.6c0-0.5,0.1-0.5,0.5-0.5
	c1.2,0,2.4,0,3.7,0c0.5,0,0.5,0.2,0.5,0.6s-0.1,0.5-0.5,0.5c-1,0-1.1,0.1-1.1,1c0,2.2,0,4.5,0,6.7c0,0.4-0.1,0.6-0.6,0.6
	c-1,0.2-1.9-0.3-2.3-1.3c-1.1-2.1-2.4-4-3.6-6l-0.3-0.4v2.1c0,1.1,0,2.2,0,3.4c0,1.1,0,1.1,1.1,1.1c0.4,0,0.6,0.1,0.5,0.5
	s-0.1,0.6-0.5,0.6c-1.2,0-2.5,0-3.7,0c-0.5,0-0.5-0.2-0.5-0.6c0-0.4,0.1-0.5,0.5-0.5c1.1,0,1.1,0,1.1-1.1c0-1.7,0-3.4,0-5.2
	c0-1,0-1.1-1-1c-0.4,0-0.6-0.1-0.6-0.6c0-0.5,0.1-0.5,0.6-0.5c1.1,0,2.2,0,3.2,0c0.3,0,0.5,0.1,0.7,0.4c1.3,2.1,2.5,4.2,3.8,6.2
	L26.6,148.5z"/>
<path class="st2" d="M180.4,146.6c1.2,0.4,1.5,0.7,1.5,2c0,0.4,0,0.8,0.2,1.2c0.1,0.2,0.2,0.4,0.5,0.4c0.3,0,0.3-0.2,0.4-0.4
	c0-0.2,0-0.4,0-0.6c0-0.4,0.1-0.5,0.5-0.5s0.4,0.3,0.4,0.6c0,0.3,0,0.6-0.1,0.9c-0.2,0.9-1.1,1.5-2.1,1.3c0,0,0,0-0.1,0
	c-1-0.1-1.4-0.6-1.5-1.7c0-0.4,0-0.8-0.1-1.3c-0.1-1.3-0.6-1.7-1.9-1.8c-1.1,0-1.1,0-1.1,1c0,0.6,0,1.1,0,1.7s0.2,0.7,0.7,0.7
	c0.1,0,0.3,0,0.4,0c0.4,0,0.5,0.1,0.5,0.5c0,0.4-0.1,0.6-0.5,0.6c-1.3,0-2.8,0-4.2,0c-0.5,0-0.5-0.2-0.5-0.6c0-0.3,0.1-0.5,0.5-0.5
	c0.2,0,0.4,0,0.6,0c0.2,0,0.5-0.2,0.5-0.4c0,0,0,0,0-0.1c0-2.1,0-4.2,0-6.3c0-0.2-0.1-0.5-0.4-0.5c0,0-0.1,0-0.1,0
	c-0.3,0-0.5,0-0.8,0c-0.4,0-0.3-0.3-0.3-0.5s-0.1-0.6,0.3-0.6c2.3-0.1,4.7,0,7,0.1c1.2,0.1,2,1.1,1.9,2.3c0,0.2,0,0.3-0.1,0.5
	c-0.2,0.8-0.9,1.5-1.7,1.6C180.7,146.4,180.6,146.5,180.4,146.6z M177.2,144.4c0,0.4,0,0.7,0,1.1s0,0.4,0.3,0.4c0.8,0,1.6,0,2.3-0.1
	c0.7-0.3,1.1-1.1,0.9-1.8c-0.1-0.4-0.5-0.7-0.9-0.9c-0.4-0.1-0.8-0.1-1.1-0.1C177.2,143,177.2,143,177.2,144.4z"/>
<path class="st2" d="M225.6,146.6c1.3,0.2,1.7,1.1,1.6,2.1c0,0.4,0,0.8,0.1,1.1c0.1,0.2,0.2,0.4,0.5,0.4s0.3-0.2,0.3-0.4
	c0-0.2,0-0.4,0-0.6c0-0.4,0.1-0.5,0.5-0.5c0.4,0,0.5,0.3,0.4,0.6c0,0.3,0,0.6-0.1,0.9c-0.3,1.1-1.4,1.7-2.4,1.4
	c-0.2-0.1-0.4-0.2-0.6-0.3c-0.4-0.3-0.7-0.8-0.6-1.3c0-0.5,0-1-0.1-1.5c0-0.8-0.7-1.5-1.5-1.6c0,0-0.1,0-0.1,0
	c-1.3-0.1-1.3-0.1-1.3,1.2c0,0.5,0,1,0,1.5c0,0.5,0.2,0.7,0.6,0.6c0.1,0,0.3,0,0.4,0c0.4,0,0.6,0,0.6,0.5s-0.1,0.6-0.6,0.6
	c-1.3,0-2.7,0-4.1,0c-0.4,0-0.6-0.1-0.6-0.6c0-0.5,0.1-0.5,0.5-0.5c1,0,1,0,1-1.1c0-1.8,0-3.6,0-5.3c0-0.9,0-0.9-0.9-0.9
	c-0.3,0-0.7,0.1-0.7-0.5c0-0.6,0.1-0.6,0.6-0.6c1.8,0,3.5,0,5.3,0c0.6,0,1.2,0.1,1.8,0.2c0.9,0.2,1.6,1.1,1.5,2
	c0.1,0.9-0.5,1.8-1.3,2.1C226.4,146.4,226.1,146.5,225.6,146.6z M222.4,144.4c0,0.4,0,0.8,0,1.1c0,0.2,0,0.3,0.2,0.3
	c0.8,0.1,1.7,0,2.5-0.1c0.6-0.2,1-0.7,0.9-1.3c0.1-0.6-0.3-1.1-0.8-1.3c-0.4-0.1-0.9-0.2-1.3-0.1C222.4,143,222.4,143,222.4,144.4
	L222.4,144.4z"/>
<path class="st2" d="M212.3,151.4c-1.3,0-2.8,0-4.1,0c-0.4,0-0.5-0.1-0.5-0.5s0.1-0.6,0.5-0.5c0.9,0,1-0.1,1-1.1c0-1.8,0-3.6,0-5.3
	c0-0.9-0.1-1-1-1c-0.4,0-0.6-0.1-0.6-0.5c0-0.5,0.2-0.5,0.6-0.5c2.7,0,5.5,0,8.2,0c0.5,0,0.6,0.1,0.6,0.6c0,0.9,0,1.8,0,2.8
	c0,0.3-0.1,0.5-0.4,0.4c-0.3,0-0.7,0.2-0.7-0.4c0-0.3-0.1-0.6-0.2-0.9c-0.1-0.8-0.7-1.4-1.5-1.3c-0.9-0.1-1.8,0-2.8,0
	c-0.2,0-0.3,0.1-0.3,0.3c0,0.8,0,1.5,0,2.3c0,0.1,0,0.3,0.2,0.3c0.7,0.3,1.5-0.1,1.7-0.8c0-0.1,0.1-0.2,0.1-0.3
	c0.1-0.7,0.2-0.8,0.8-0.7c0.2,0,0.3,0.1,0.3,0.3c0,1.3,0,2.7,0,4.1c0,0.4-0.2,0.4-0.5,0.4c-0.3,0-0.6,0.1-0.6-0.4c0-0.2,0-0.4,0-0.6
	c-0.2-0.7-0.9-1.2-1.6-1c-0.1,0-0.1,0-0.2,0c-0.1,0-0.2,0.2-0.2,0.3c0,0.9,0,1.8,0,2.7c0,0.2,0.1,0.3,0.3,0.3c0.9,0,1.9,0,2.8,0
	c0.7-0.1,1.2-0.6,1.3-1.3c0.1-0.4,0.2-0.8,0.2-1.2c0-0.6,0.5-0.3,0.8-0.4c0.3,0,0.3,0.2,0.3,0.5c0,1,0,2,0,3.1
	c0,0.4-0.1,0.5-0.5,0.5C215.1,151.3,213.7,151.3,212.3,151.4L212.3,151.4z"/>
<path class="st2" d="M102.9,146.6c1.3,0.4,1.5,0.7,1.6,2c0,0.4,0.1,0.8,0.2,1.2c0.1,0.2,0.2,0.5,0.5,0.4s0.4-0.3,0.4-0.5
	c0-0.2,0-0.3,0-0.5c0-0.4,0.1-0.5,0.5-0.6c0.4,0,0.4,0.3,0.4,0.6c0,0.5-0.1,0.9-0.2,1.3c-0.3,0.8-1.2,1.3-2.1,1.1
	c-0.8,0-1.4-0.7-1.4-1.4c0-0.5,0-0.9-0.1-1.3c-0.1-1.3-0.6-1.8-2-1.9c-1,0-1,0-1,1c0,0.6,0,1.2,0,1.7c0,0.6,0.2,0.7,0.7,0.7
	c0.1,0,0.3,0,0.4,0c0.4,0,0.6,0.1,0.6,0.5s-0.2,0.5-0.6,0.5c-1.3,0-2.7,0-4.1,0c-0.4,0-0.5-0.2-0.5-0.6c0-0.4,0.1-0.5,0.5-0.5
	c1,0,1,0,1-1c0-1.8,0-3.6,0-5.3c0-0.8-0.1-0.9-0.9-0.9c-0.4,0-0.7,0-0.7-0.6s0.1-0.5,0.6-0.5c1.8,0,3.7,0,5.5,0c0.4,0,0.7,0,1.1,0.1
	c1.3,0.2,2,0.9,2,2c0.2,1.2-0.6,2.3-1.8,2.5L102.9,146.6z M99.7,144.4c0,0.4,0,0.8,0,1.1c0,0.2,0,0.3,0.2,0.3c0.8,0.1,1.6,0,2.4-0.1
	c0.6-0.1,1-0.7,1-1.3c0.1-0.6-0.4-1.2-1-1.3c-0.4-0.1-0.8-0.1-1.2-0.1C99.7,142.9,99.7,143,99.7,144.4L99.7,144.4z"/>
<path class="st2" d="M35.6,151.4c-1.3,0-2.8,0-4.2,0c-0.5,0-0.5-0.2-0.5-0.6c0-0.4,0.1-0.5,0.5-0.5c0.9,0,1.1-0.1,1.1-1.1
	c0-1.8,0-3.6,0-5.3c0-0.7-0.1-0.9-0.9-0.9c-0.5,0-0.7-0.1-0.6-0.6c0-0.5,0.2-0.5,0.5-0.5c2.8,0,5.6,0,8.3,0c0.4,0,0.5,0.1,0.5,0.5
	c0,0.9,0,1.9,0,2.8c0,0.3,0,0.5-0.4,0.4c-0.4-0.1-0.7,0.2-0.7-0.4c-0.2-2.1-0.8-2.4-2.8-2.3c-0.5,0-1,0-1.5,0s-0.4,0.1-0.4,0.4
	c0,0.7,0,1.4,0,2.2c0,0.3,0.1,0.4,0.4,0.4c1.1,0,1.5-0.3,1.5-1.3c0-0.6,0.4-0.4,0.7-0.4s0.4,0.1,0.4,0.4c0,1.3,0,2.6,0,3.9
	c0,0.4-0.2,0.4-0.5,0.4c-0.3,0-0.6,0-0.6-0.4c0-1.2-0.4-1.6-1.5-1.5c-0.3,0-0.4,0.1-0.4,0.4c0,0.9,0,1.7,0,2.6
	c0,0.3,0.1,0.4,0.4,0.4h2.4c0.8,0.1,1.5-0.4,1.7-1.2c0.1-0.4,0.2-0.8,0.2-1.2c0-0.3,0.1-0.5,0.5-0.5c0.4,0,0.6,0.1,0.6,0.6
	c0,1,0,1.9,0,2.9c0,0.4-0.1,0.5-0.5,0.5C38.4,151.4,37,151.4,35.6,151.4L35.6,151.4z"/>
<path class="st2" d="M80.3,146.4c1.8,0.6,2.4,1.5,2,3.1c-0.2,0.9-1,1.6-1.9,1.7c-0.7,0.1-1.5,0.2-2.2,0.1c-1.5,0-3,0-4.6,0
	c-0.5,0-0.5-0.2-0.5-0.6c0-0.4,0.1-0.6,0.5-0.5c0.1,0,0.3,0,0.4,0c0.5,0,0.7-0.2,0.7-0.7c0-1.9,0-3.8,0-5.7c0-0.8-0.1-0.9-0.9-0.9
	c-0.9,0-0.7,0-0.7-0.7c0-0.3,0.1-0.3,0.4-0.3c2.1,0,4.2-0.1,6.2,0.1c0.4,0,0.7,0.1,1.1,0.3c0.8,0.3,1.4,1.1,1.3,2
	c0,0.8-0.5,1.6-1.3,1.8C80.6,146.2,80.4,146.2,80.3,146.4z M77.9,150.3c0.4,0,0.8,0,1.2-0.1c0.9-0.2,1.3-0.7,1.3-1.7
	c0.1-0.7-0.4-1.4-1.2-1.5c-0.1,0-0.1,0-0.2,0c-0.6,0-1.2,0-1.9-0.1c-0.4,0-0.5,0.2-0.5,0.5c0,0.3,0,1.1,0,1.6
	C76.7,150.3,76.7,150.3,77.9,150.3L77.9,150.3z M76.7,144.4c0,0.5,0,0.8,0,1.2c0,0.4,0.1,0.4,0.3,0.4c0.7,0,1.4,0,2-0.1
	c0.5-0.1,0.9-0.5,1-1c0.3-0.7-0.1-1.5-0.8-1.7c-0.1-0.1-0.3-0.1-0.4-0.1c-0.6-0.2-1.3-0.2-2,0C76.5,143.2,76.7,144,76.7,144.4z"/>
<path class="st2" d="M56.5,146.3c0.7,0,1.4,0,2.2,0c0.5,0,0.4,0.3,0.4,0.5c0,0.3,0,0.5-0.4,0.5c-1.1,0-1.1,0-1.1,1.1
	c0,0.7,0,1.5,0,2.2c0,0.2,0.2,0.6-0.2,0.6c-0.4,0-0.7,0.2-0.9-0.2c-0.3-0.6-0.6-0.4-1-0.2c-1.5,0.9-3.3,0.9-4.8,0
	c-1.5-1-2.3-2.7-2.1-4.4c-0.1-1.4,0.4-2.7,1.3-3.7c1.5-1.5,3.8-1.7,5.5-0.5c0.4,0.3,0.5,0.2,0.7-0.2c0.1-0.4,0.6-0.3,1-0.3
	c0.3,0,0.2,0.3,0.2,0.5c0,0.9,0,1.8,0,2.7c0,0.2,0,0.5-0.3,0.4c-0.3-0.1-0.7,0.3-0.9-0.2c-0.2-0.5-0.4-1-0.7-1.4
	c-0.7-1.1-2.2-1.4-3.3-0.7c-0.4,0.3-0.7,0.7-0.9,1.1c-0.6,1.5-0.6,3.1,0,4.6c0.6,1.3,2.1,1.8,3.4,1.2c0.1,0,0.1,0,0.1-0.1
	c0.8-0.5,1.1-1.5,0.7-2.4c-0.2-0.4-0.6-0.4-0.9-0.3c-0.6,0-0.7-0.2-0.7-0.7c0-0.5,0.1-0.4,0.4-0.4L56.5,146.3z"/>
<path class="st2" d="M147.7,151.4c-0.9,0-1.8,0-2.8,0c-0.5,0-0.5-0.2-0.5-0.6c0-0.4,0-0.5,0.5-0.5c1.1,0,1.1,0,1.1-1.1
	c0-1.8,0-3.6,0-5.3c0-0.8-0.1-0.9-0.9-0.9c-0.8,0-0.7,0-0.7-0.7c0-0.2,0.1-0.3,0.3-0.3c2.1,0,4.2-0.1,6.2,0.1
	c2.1,0.1,3.7,1.7,3.8,3.8c0.1,0.8,0.1,1.6-0.1,2.4c-0.5,2-2.3,3.3-4.4,3.2C149.5,151.4,148.6,151.4,147.7,151.4L147.7,151.4z
	 M148,146.6c0,1.1,0,2.2,0,3.2c0,0.2,0,0.5,0.3,0.5c0.7,0,1.3,0,2,0c1-0.1,1.9-0.8,2.1-1.8c0.4-1.2,0.4-2.4,0-3.6
	c-0.3-1.1-1.3-1.9-2.5-1.9c-0.5,0-1,0-1.4,0c-0.5,0-0.5,0.1-0.5,0.5C148,144.5,148,145.6,148,146.6L148,146.6z"/>
<path class="st2" d="M169.6,146.3c0.7,0,1.4,0,2.2,0c0.4,0,0.4,0.2,0.4,0.5s0.1,0.6-0.4,0.6c-1.1-0.1-1.1,0.2-1.1,1.1
	c0,0.7,0,1.5,0,2.2c0,0.2,0.2,0.5-0.2,0.6c-0.4,0-0.8,0.2-0.9-0.2c-0.3-0.6-0.6-0.4-1-0.2c-1.5,0.9-3.4,0.9-4.9-0.1
	c-1.5-1.1-2.3-2.9-2-4.7c0-1.7,0.8-3.2,2.3-4c1.5-0.8,3.3-0.8,4.7,0.2c0.3,0.2,0.5,0.3,0.6-0.1c0.1-0.4,0.6-0.4,0.9-0.3
	c0.3,0,0.2,0.4,0.3,0.6c0,0.9,0,1.7,0,2.6c0,0.2,0.1,0.5-0.3,0.5c-0.4,0-0.7,0.2-0.9-0.3c-0.1-0.4-0.3-0.9-0.6-1.2
	c-0.5-0.8-1.5-1.3-2.5-1.2c-0.9,0.1-1.7,0.8-1.9,1.7c-0.5,1.4-0.5,2.9,0,4.3c0.5,1.3,2,1.9,3.3,1.4c0.1,0,0.2-0.1,0.3-0.2
	c0.7-0.5,1-1.5,0.7-2.3c-0.2-0.4-0.6-0.4-1-0.4s-0.6-0.2-0.6-0.7c0-0.5,0.1-0.4,0.5-0.4C168.2,146.3,168.9,146.3,169.6,146.3z"/>
<path class="st2" d="M190.6,141.6c2.8,0.1,4.9,2.4,4.8,5.1c-0.1,2.8-2.4,4.9-5.1,4.8c-2.7-0.1-4.8-2.3-4.8-4.9c-0.1-2.7,2-5,4.7-5
	C190.4,141.6,190.5,141.6,190.6,141.6z M193.5,146.6c0-0.5,0-1-0.1-1.5c-0.2-1.3-1.2-2.2-2.4-2.3c-1.2-0.2-2.4,0.5-2.8,1.6
	c-0.6,1.5-0.6,3.1,0,4.6c0.4,1.1,1.5,1.7,2.7,1.6c1.1,0,2.1-0.7,2.4-1.8C193.4,148,193.6,147.3,193.5,146.6L193.5,146.6z"/>
<path class="st2" d="M137.8,141.6c2.8,0.1,4.9,2.4,4.9,5.1c-0.1,2.8-2.4,4.9-5.1,4.9c-2.7-0.1-4.8-2.2-4.9-4.9
	c-0.1-2.7,2-4.9,4.7-5.1C137.5,141.6,137.7,141.6,137.8,141.6z M135,146.6c0,0.8,0.1,1.6,0.4,2.3c0.4,1.1,1.5,1.7,2.7,1.6
	c1.1,0,2.1-0.7,2.4-1.7c0.4-1.3,0.5-2.6,0.1-3.9c-0.2-1.3-1.4-2.2-2.7-2.1c-1.3-0.1-2.4,0.8-2.7,2.1C135,145.4,134.9,146,135,146.6
	L135,146.6z"/>
<path class="st2" d="M131,146.6c0.1,2.8-2.2,5.2-5,5.2c-2.8,0.1-5.2-2.2-5.2-5c-0.1-2.8,2.2-5.2,5-5.2c0,0,0.1,0,0.1,0
	c2.7-0.2,4.9,1.9,5.1,4.5C131,146.3,131,146.5,131,146.6z M123,146.7c0,0.8,0.1,1.5,0.4,2.2c0.4,1,1.5,1.7,2.6,1.6
	c1.1,0.1,2.1-0.6,2.4-1.7c0.5-1.4,0.5-2.9,0-4.3c-0.3-1-1.3-1.7-2.3-1.7c-1.1-0.2-2.2,0.4-2.7,1.5C123.1,145,123,145.9,123,146.7
	L123,146.7z"/>
<path class="st2" d="M89.4,151.6c-2.8-0.1-4.9-2.4-4.8-5.1c0.1-2.8,2.4-4.9,5.1-4.8c2.7,0.1,4.9,2.3,4.8,5.1
	c0.1,2.7-2.1,4.9-4.7,4.9C89.7,151.6,89.5,151.6,89.4,151.6z M92.3,146.6c0.1-0.9-0.1-1.8-0.5-2.6c-0.7-1.3-2.3-1.8-3.6-1.1
	c-0.4,0.2-0.7,0.5-1,0.9c-1,1.7-1,3.8,0,5.5c0.8,1.2,2.4,1.6,3.7,0.8c0.4-0.3,0.7-0.6,0.9-1C92.2,148.3,92.3,147.5,92.3,146.6z"/>
<path class="st2" d="M206,143.8c0,0.5,0,1,0,1.5c0,0.2,0,0.5-0.3,0.4c-0.3,0-0.7,0.2-0.8-0.3c-0.1-0.3-0.2-0.7-0.3-1
	c-0.4-1-1.4-1.6-2.4-1.5c-1,0-1.9,0.6-2.2,1.6c-0.5,1.3-0.5,2.7-0.1,4.1c0.2,1.2,1.3,1.9,2.5,1.9c1.2,0,2.1-0.9,2.3-2.1
	c0.1-0.5,0.6-0.7,1.1-0.6c0,0,0.1,0,0.1,0c0.2,0.1,0.1,0.2,0.1,0.4c-0.1,2-1.8,3.5-3.7,3.4c-3.8,0.1-5.9-3.2-4.6-7.1
	c0.9-2.3,3.4-3.5,5.7-2.6c0.1,0,0.2,0.1,0.3,0.1c0.1,0,0.2,0.1,0.3,0.2c0.4,0.3,0.7,0.5,0.9-0.2c0.1-0.4,0.5-0.1,0.8-0.2
	s0.3,0.2,0.3,0.4C206,142.7,206,143.2,206,143.8z"/>
<path class="st2" d="M44.6,151.4c-0.7,0-1.4,0-2.1,0c-0.5,0-0.4-0.3-0.4-0.6c0-0.3,0-0.5,0.4-0.5c1.1,0,1.1,0,1.1-1.1
	c0-1.8,0-3.6,0-5.3c0-0.8-0.1-1-0.9-0.9c-0.4,0-0.6,0-0.6-0.5c0-0.5,0.2-0.5,0.6-0.5c1.3,0,2.7,0,4,0c0.5,0,0.5,0.2,0.5,0.6
	s-0.1,0.5-0.5,0.5c-0.9,0-1,0.2-1,1c0,1.8,0,3.6,0,5.3c0,0.8,0.1,0.9,0.9,0.9s0.8,0.3,0.6,0.8c-0.1,0.3-0.2,0.2-0.4,0.2L44.6,151.4z
	"/>
<path class="st2" d="M229.9,144c0.1-1.2,1.2-2.2,2.4-2.1c1.1,0.1,2,1,2.1,2.1c0,1.2-1,2.3-2.2,2.3c0,0,0,0-0.1,0
	C230.9,146.2,229.9,145.3,229.9,144C229.9,144,229.9,144,229.9,144z M230.3,144c0,1,0.7,1.8,1.7,1.8c0,0,0,0,0.1,0
	c1,0,1.8-0.8,1.8-1.8c0,0,0,0,0,0c0-1-0.8-1.8-1.7-1.8c0,0,0,0,0,0c-1,0-1.8,0.7-1.8,1.7C230.3,143.9,230.3,143.9,230.3,144
	L230.3,144z"/>
<path class="st0" d="M177.2,144.4c0-1.5,0-1.5,1.5-1.5c0.4,0,0.8,0,1.1,0.1c0.7,0.3,1.1,1.1,0.9,1.8c-0.1,0.4-0.5,0.7-0.9,0.9
	c-0.8,0.1-1.6,0.1-2.3,0.1c-0.3,0-0.3-0.2-0.3-0.4C177.2,145.2,177.2,144.8,177.2,144.4z"/>
<path class="st0" d="M222.4,144.4c0-1.5,0-1.5,1.4-1.5c0.4,0,0.9,0,1.3,0.1c0.6,0.2,0.9,0.7,0.8,1.3c0.1,0.6-0.3,1.2-0.9,1.3
	c-0.8,0.2-1.7,0.2-2.5,0.1c-0.2,0-0.3-0.1-0.2-0.3C222.4,145.2,222.4,144.8,222.4,144.4z"/>
<path class="st0" d="M99.7,144.4c0-1.4,0-1.4,1.4-1.4c0.4,0,0.8,0,1.2,0.1c0.6,0.1,1,0.7,1,1.3c0.1,0.6-0.3,1.2-1,1.3
	c-0.8,0.1-1.6,0.2-2.4,0.1c-0.2,0-0.2-0.2-0.2-0.3C99.7,145.1,99.7,144.8,99.7,144.4z"/>
<path class="st0" d="M77.9,150.3c-1.2,0-1.2,0-1.2-1.2c0-0.5,0-1.1,0-1.6c0-0.5,0-0.5,0.5-0.5c0.6,0,1.2,0,1.9,0.1
	c0.7,0,1.3,0.6,1.3,1.3c0,0.1,0,0.1,0,0.2c0,1-0.3,1.5-1.3,1.7C78.7,150.3,78.3,150.3,77.9,150.3z"/>
<path class="st0" d="M76.7,144.4c0-0.4-0.2-1.1,0.1-1.3c0.6-0.2,1.3-0.2,2,0c0.7,0,1.3,0.6,1.3,1.3c0,0.1,0,0.3-0.1,0.4
	c-0.1,0.5-0.5,0.9-1,1c-0.7,0.1-1.3,0.1-2,0.1c-0.3,0-0.4-0.1-0.3-0.4C76.7,145.3,76.7,144.8,76.7,144.4z"/>
<path class="st0" d="M148,146.6c0-1,0-2.1,0-3.1c0-0.4,0.1-0.5,0.5-0.5c0.4,0,1,0,1.4,0c1.2-0.1,2.2,0.7,2.5,1.9
	c0.4,1.2,0.4,2.4,0,3.6c-0.3,1-1.1,1.7-2.2,1.8c-0.7,0.1-1.3,0-2,0c-0.3,0-0.3-0.2-0.3-0.5C148,148.7,148,147.7,148,146.6z"/>
<path class="st0" d="M193.5,146.6c0,0.7-0.1,1.5-0.3,2.2c-0.3,1.1-1.3,1.8-2.4,1.8c-1.2,0.1-2.2-0.5-2.7-1.6c-0.6-1.5-0.6-3.1,0-4.6
	c0.4-1.1,1.6-1.8,2.8-1.6c1.3,0.1,2.3,1.1,2.4,2.3C193.5,145.6,193.6,146.1,193.5,146.6z"/>
<path class="st0" d="M135,146.6c0-0.6,0.1-1.2,0.2-1.8c0.2-1.3,1.4-2.1,2.7-2.1c1.3-0.1,2.5,0.9,2.7,2.1c0.4,1.3,0.3,2.6-0.1,3.9
	c-0.3,1-1.3,1.8-2.4,1.7c-1.2,0.1-2.2-0.5-2.7-1.6C135,148.2,134.9,147.4,135,146.6z"/>
<path class="st0" d="M123,146.7c0-0.9,0.1-1.7,0.4-2.5c0.5-1,1.6-1.6,2.7-1.5c1.1,0,2,0.7,2.3,1.7c0.5,1.4,0.5,2.9,0,4.3
	c-0.3,1.1-1.3,1.7-2.4,1.7c-1.1,0.1-2.2-0.5-2.6-1.6C123.2,148.2,123,147.5,123,146.7z"/>
<path class="st0" d="M92.3,146.6c0,0.9-0.1,1.7-0.5,2.5c-0.7,1.3-2.3,1.8-3.6,1.2c-0.4-0.2-0.8-0.5-1-0.9c-1-1.7-1-3.8,0-5.5
	c0.8-1.2,2.4-1.6,3.7-0.8c0.4,0.2,0.7,0.6,0.9,1C92.2,144.9,92.3,145.8,92.3,146.6z"/>
<path class="st0" d="M230.3,144c0-1,0.7-1.8,1.7-1.8c0,0,0.1,0,0.1,0c1,0,1.8,0.8,1.8,1.8c0,0,0,0,0,0c0,1-0.8,1.8-1.8,1.8
	c0,0,0,0,0,0C231.1,145.8,230.3,145,230.3,144C230.3,144,230.3,144,230.3,144z M233.1,145c0-0.2-0.2-0.3-0.3-0.5s-0.2-0.3,0-0.4
	c0.3-0.2,0.4-0.5,0.2-0.8c-0.1-0.3-0.4-0.5-0.8-0.5h-0.7c-0.3,0-0.4,0.1-0.4,0.4s0,1,0,1.5c0,0.2,0,0.3,0.2,0.3s0.2-0.2,0.2-0.3
	s-0.1-0.4,0.1-0.5c0.3-0.1,0.4,0.1,0.5,0.3C232.5,144.8,232.6,145.2,233.1,145L233.1,145z"/>
<path class="st2" d="M233.1,145c-0.5,0.2-0.5-0.2-0.7-0.4c-0.2-0.2-0.3-0.4-0.5-0.3s-0.1,0.3-0.1,0.5s0,0.3-0.2,0.3
	c-0.2,0-0.2-0.2-0.2-0.3c0-0.5,0-1,0-1.5s0.1-0.4,0.4-0.4h0.7c0.3,0,0.6,0.2,0.8,0.5c0.1,0.3,0,0.6-0.2,0.8c-0.2,0.2-0.1,0.3,0,0.4
	C232.9,144.7,233.1,144.8,233.1,145z M231.9,143.9c0.4,0,0.7,0,0.7-0.4s-0.3-0.3-0.6-0.3s-0.4,0.1-0.4,0.4
	C231.6,143.9,231.8,144,231.9,143.9L231.9,143.9z"/>
<path class="st0" d="M231.9,143.9c-0.1,0-0.3,0-0.3-0.3s0.1-0.4,0.4-0.4c0.3,0,0.6,0,0.6,0.3C232.7,143.9,232.4,143.9,231.9,143.9z"
	/>
</svg>
