<?xml version="1.0" encoding="utf-8"?>
<!-- Generator: Adobe Illustrator 21.1.0, SVG Export Plug-In . SVG Version: 6.00 Build 0)  -->
<svg version="1.1" id="Layer_1" xmlns="http://www.w3.org/2000/svg" xmlns:xlink="http://www.w3.org/1999/xlink" x="0px" y="0px"
	 viewBox="0 0 250 250" style="enable-background:new 0 0 250 250;" xml:space="preserve">
<style type="text/css">
	.st0{fill:#EE4C50;}
	.st1{fill:#638BC8;}
	.st2{fill:#079069;}
</style>
<title>Grocery</title>
<path class="st0" d="M127.8,94.9c0-0.5,0.1-0.9,0.1-1.3c0.4-1.4-0.3-2.8-1.6-3.3c-0.9-0.4-1.6-1.2-1.8-2.2c-0.6-1.2-0.1-2.8,1.1-3.4
	c0.2-0.1,0.5-0.2,0.8-0.2c2.8-0.7,5.7-1,8.6-0.9c1.4,0.1,2.5,1.2,2.9,3c0.5,1.2,0,2.7-1.2,3.2c0,0-0.1,0-0.1,0
	c-1.1,0.5-1.8,1.6-1.8,2.8c-0.4,6.7-0.9,13.4-1.3,20.1c-0.3,1.4,0.4,2.7,1.7,3.3c1.2,0.6,1.9,2,1.6,3.3c-0.1,1.3-1.1,1.8-2.2,2.1
	c-2.5,0.7-5.1,1-7.7,0.9c-1.9,0-3.9-2.8-3.3-4.7c0.3-0.8,0.9-1.3,1.7-1.5c1.4-0.3,2.3-1.7,2-3.1c-0.1-0.7-0.1-1.5,0-2.2
	c0.2-0.8-0.3-1.7-1.2-1.9c-0.2-0.1-0.5-0.1-0.7,0c-3.2,0-6.4,0.3-9.6,0.7c-1.9,0.4-2.6,1-2.9,2.6c-0.4,2.5,0,3.7,1.7,4.7
	c1.4,0.5,2.2,2,1.9,3.5c-0.2,1.5-1.3,2.1-2.7,2.3c-2.8,0.6-5.7,0.6-8.4,0c-1.2-0.2-2.3-1.1-2.6-2.3c-0.4-1.6,0-2.4,1.6-2.8
	c1.3-0.3,2.2-1.5,2.1-2.8c0-6.8,0.2-13.7,0.3-20.5c0.1-1.1-0.4-2.2-1.3-2.8c-1.3-0.9-2.7-1.8-2.4-3.7c0.4-1.9,2.2-2.1,3.7-2.5
	c2.2-0.6,4.5-0.8,6.8-0.6c1.2,0,2.3,0.5,3.1,1.3c1.6,1.6,1.5,3.8-0.6,4.7c-1.7,0.6-2.7,2.3-2.5,4c0,2.2-0.3,4.4-0.3,6.5
	c0,1.6,0.3,1.9,1.9,1.9c3.6-0.2,7.2-0.4,10.8-0.6c1.1,0,1.7-0.5,1.7-1.7C127.5,98.9,127.7,96.9,127.8,94.9L127.8,94.9z"/>
<path class="st0" d="M131.5,132.4c0.1,1.7-0.1,3.7-0.2,5.8c-0.1,2-1.8,3.1-3.7,2c-1.2-0.6-2-1.8-2.2-3.1c-0.2-1.1-0.3-2.1-0.6-3.1
	c-0.1-1-0.9-1.7-1.9-1.6c-0.4,0-0.8,0.2-1,0.5c-1,0.7-1.6,1.9-1.5,3.1c-0.2,2-0.3,4.1-0.4,6.1c-0.2,4-0.3,8.1-0.5,12.1
	c0,2.2,0,2.4,2.1,3.2c1.8,0.5,3,2.2,2.9,4.1c0,0.8-0.3,1.5-1.2,1.7c-3.8,0.8-7.7,1.6-11.6,1c-1.6-0.1-3-1.3-3.4-2.9
	c-0.4-1,0.1-2.2,1.1-2.6c0.1,0,0.1,0,0.2-0.1c0.6-0.2,1.2-0.4,1.8-0.6c0.7-0.2,1.2-0.9,1.2-1.7c0.2-7,0.4-14,0.7-21
	c0-1.1,0-2.4-1.5-2.3c-2.3,0.1-3.4,0.3-3.6,2c-0.1,1.4-0.4,2.9-0.8,4.2c-0.5,1.2-1.1,2.2-2.7,2.1c-1.3-0.2-2.3-1.3-2.4-2.7
	c-0.2-3.2,0.1-6.4,0.8-9.5c0.3-1.3,1.5-2.3,2.9-2.3c6.9-0.5,13.9-0.9,20.8-1.3c3.3-0.2,4.7,1.2,4.7,4.5
	C131.5,130.6,131.5,131.3,131.5,132.4z"/>
<path class="st1" d="M50.4,142c-1.6,1.8-3.3,3.7-4.9,5.4c-0.5,0.5-1.2,1.6-2,0.9s-0.3-1.7,0.2-2.5c0.5-0.8,0.9-1.3,1.4-2
	c0.7-0.7,1.2-1.7,1.4-2.7c0.7-0.6,1.1-1.5,1.1-2.4l0.4-1.4c0.3-0.7,0.5-1.4,0.4-2.2l0.4-1.9c0.6-3.9,1.1-7.9,1.2-11.9
	c0.2-2.6,0.6-5.2,1.1-7.7c0.2-0.9,0.3-1.8,1.5-1.9c1.2-0.1,1.5,1,1.7,1.8c0.4,1.3,0.7,2.7,0.9,4.1c0.4,2.8,1.6,5.5,3.6,7.5
	c0.4,0.4,0.7,0.8,1,1.2c0.3,0.4,0.9,0.9,0.6,1.3c-0.3,0.5-1.1,0-1.6-0.2c-2-1.1-3.6-2.7-4.7-4.7c-0.2-0.3-0.3-0.7-0.6-0.7
	s-0.4,0.5-0.5,0.9c-0.9,5.4-2.2,10.8-4.1,16c-0.1,0.1-0.2,0.3,0,0.5c0.2,0.2,0.3,0,0.4-0.2c1.5-1.1,2.9-2.4,4.1-3.7
	c1.1-1,2.3-1.8,3.6-2.5c0.6-0.4,1.4-0.3,1.9,0.2c0.1,0.2,0.2,0.3,0.2,0.5c0.1,0.2,0.2,0.4,0.3,0.6c3.4,8.7,13.3,13,22,9.6
	c1.7-0.7,3.3-1.6,4.7-2.8c3.4-2.8,6.6-5.9,9.5-9.2c1-1,2-2.1,3-3.1c0.5-0.3,0.6-1,0.2-1.5c-2.5-4.2-5.4-8-9.9-10.3
	c-5.1-2.6-10.1-2.1-15,0.3c-4,1.9-7.6,4.6-10.5,7.9c-0.3,0.4-0.7,0.8-1.2,0.9c0.2-1.5,1.3-2.5,1.8-3.9c0.2-0.1,0.3-0.2,0.2-0.4l0,0
	c1.4-1.9,2.9-3.5,4.7-5c1.9-1.4,3.9-2.6,6-3.7c6.8-3.6,15.3-1.9,20.2,4.1c2.4,2.8,4.4,5.9,5.9,9.2c0.4,0.6,0.4,1.5-0.1,2.1
	c-3.4,4.8-6.4,9.9-10.4,14.2c-3.3,3.5-7,6.3-11.9,6.9c-6.3,0.7-11.4-1.8-15.5-6.5c-2.1-2.4-3.8-5.1-4.9-8c-0.3-0.7-0.5-1.1-1.2-0.4
	c-1.9,1.6-3.6,3.4-5.1,5.3L50.4,142z"/>
<path class="st0" d="M160.3,107.5c-0.1,2.8-0.2,5.1-0.4,7.3c-0.1,1.1,0.2,1.8,1.3,2c1.4,0.2,2.4,1.4,2.5,2.9c0.2,1.6-0.9,2.2-2,2.8
	c-1.8,1.1-3.9,1.4-5.9,0.9c-0.7-0.1-1.3-0.5-1.7-1.2c-0.4-1-1.1-0.9-1.9-0.7c-1.8,0.6-3.8,1-5.7,1.2c-2.4,0.2-4.8-0.3-6.8-1.6
	c-2.7-1.8-3.5-5.4-1.7-8.2c0.3-0.5,0.7-0.9,1.1-1.3c3.7-3.2,8.3-5.2,13.2-5.7c1.8-0.3,2.2-0.8,1.9-2.7c-0.2-1.3-1.4-2.2-2.6-2
	c-0.1,0-0.1,0-0.2,0c-1.4,0.3-2.6,0.9-3.8,1.7c-1.1,0.7-2.2,1.6-3.3,2.3c-0.6,0.5-1.2,0.9-1.9,1.2c-1,0.5-2.2,0.9-3.1,0
	c-0.8-0.9-1-2.2-0.5-3.3c0.1-0.4,0.3-0.8,0.5-1.1c3.1-3.6,6.7-6.4,11.6-6.6c3.8-0.2,7.3,2.2,8.4,5.9c0.3,0.8,0.5,1.7,0.7,2.5
	C160.2,105.3,160.3,106.7,160.3,107.5z M146.9,116.8c2.2,0,4.4-0.5,6.3-1.7c0.5-0.3,1-0.8,0.7-1.5c-0.3-0.7-0.9-0.6-1.4-0.5
	c-2,0.3-4,0.9-5.8,1.8c-0.7,0.3-1.8,0.6-1.6,1.4S146.3,116.5,146.9,116.8L146.9,116.8z"/>
<path class="st0" d="M151.7,146.8c0,1.4-0.2,2.9-0.6,4.3c-0.2,1.3-1.4,2.2-2.7,2.2c-4.6,0.3-9.2,1.3-13.8,1.9
	c-0.6,0.1-1.1,0.3-1.2,1c-0.2,0.8,0.1,1.6,0.7,2.1c0.8,0.6,1.8,0.9,2.8,0.8c2.8,0,5.6-0.5,8.1-1.7c1-0.4,1.9-0.9,2.9-1.3
	c2-0.8,3.4,0.2,3.3,2.4c-0.2,1.7-1.2,3.2-2.8,3.9c-2.3,1.2-4.7,2.1-7.3,2.5c-6.6,1.3-13.9-2.8-13.5-12.7c0.3-6.7,6.3-13.1,11.8-14.8
	C145.9,135.5,151.7,139.7,151.7,146.8z M145.6,144.9c0-0.5-0.1-1-0.2-1.4c-0.1-0.7-0.7-1.2-1.4-1.1c-0.1,0-0.2,0-0.3,0.1
	c-3.1,1-5.7,3-7.6,5.6c-0.5,0.7-0.2,1.1,0.6,1c2.2-0.3,4.4-0.6,6.7-1C145.1,147.7,145.5,147,145.6,144.9L145.6,144.9z"/>
<path class="st0" d="M50.4,142l1.6-1.9c3.2,0.9,6,2.8,8,5.3c3.6,4,5.9,9,6.7,14.4c0.1,0.6,0.1,1.3,0.1,1.9c0.1,2.4-1.8,4.4-4.2,4.5
	c0,0-0.1,0-0.1,0c-3,0.4-6-0.1-8.7-1.3c-8-3.5-15.5-8.1-22.2-13.8c-7.6-6.3-14.6-13.3-20.9-20.9C7,126,4.6,121,4.7,115.1
	c0.1-3.6,1.6-5.3,5.2-5.8c1.9-0.3,3.8-0.1,5.7,0.5c4,1.3,7.8,3.3,11.3,5.7c0.4,0.3,0.7,0.6,1,0.9c0.2,0.2,0.4,0.4,0.2,0.7
	c-0.2,0.3-0.5,0.4-0.8,0.3c-0.8-0.3-1.6-0.6-2.3-0.9c-3.4-1.3-6.7-3-10.4-3.6c-0.4-0.1-0.9-0.1-1.3-0.2c-2.6-0.4-5,1.5-5.4,4.1
	c-0.1,0.7,0,1.5,0.2,2.2c0.8,2.9,2.3,5.5,4.2,7.8c5.1,6.7,11.1,12.7,17.7,17.8c7.7,6.3,15.8,12,24.5,17c1,0.6,2.1,1.1,3.3,1.6
	c3.6,1.3,6.3-0.7,6.2-4.6c-0.1-2.2-0.7-4.3-1.7-6.3c-1.7-3.8-4.4-7-7.9-9.2C53.2,142.4,51.8,142,50.4,142z"/>
<path class="st0" d="M152.8,153.1c-0.5-7.8,7.4-15.4,14.2-16.2c4.6-0.5,10.3,4.5,9.7,9.6c-0.2,1.5-0.3,3-0.6,4.4
	c-0.1,1.5-1.4,2.6-2.9,2.4c0,0,0,0,0,0c-4.6,0.3-9.1,1.3-13.6,1.9c-0.6,0.1-1.2,0.4-1.2,1.1c-0.1,0.9,0.3,1.7,1,2.2
	c0.9,0.5,1.8,0.7,2.8,0.6c3.5-0.1,6.9-1,10-2.7c1.1-0.6,2.3-1.3,3.4,0c0.8,1.3,0.8,2.9-0.1,4.2c-0.2,0.4-0.5,0.7-0.8,0.9
	c-3.5,2.7-7.9,3.9-12.3,3.5C156.1,164.3,152.8,159.9,152.8,153.1z M170.5,144.7c0-0.4-0.1-0.8-0.1-1.3c0-0.7-0.6-1.2-1.3-1.1
	c-0.1,0-0.2,0-0.4,0.1c-3.1,1-5.7,2.9-7.6,5.5c-0.5,0.7-0.2,1.2,0.7,1c2.1-0.3,4.2-0.6,6.3-0.9C170.2,147.7,170.4,147.1,170.5,144.7
	z"/>
<path class="st0" d="M198.9,153.1c-0.5-7.9,7.5-15.4,14.2-16.2c4.4-0.6,10.2,4.3,9.8,9.3c-0.1,1.6-0.3,3.2-0.6,4.8
	c-0.2,1.3-1.3,2.4-2.7,2.3c-4.6,0.3-9.2,1.3-13.8,1.9c-0.6,0.1-1.2,0.4-1.3,1.1c-0.1,0.9,0.2,1.7,0.9,2.2c0.8,0.5,1.7,0.7,2.7,0.7
	c2.9,0,5.8-0.6,8.5-1.9c0.6-0.3,1.2-0.6,1.8-0.8c1.1-0.5,2.2-1.2,3.3,0c0.9,1.2,0.9,2.8,0.1,4c-0.3,0.5-0.6,0.9-1.1,1.3
	c-3.6,2.6-8,3.8-12.4,3.4C202.2,164.3,198.9,159.9,198.9,153.1z M216.6,145.1c0-2.8-0.9-3.4-3.4-2.1c-1.6,0.9-3.2,1.9-4.6,3.2
	c-0.6,0.5-1.1,1.1-1.5,1.8c-0.1,0.2-0.3,0.5-0.2,0.8c0.1,0.3,0.6,0.3,0.9,0.2c2.1-0.3,4.2-0.6,6.3-0.9
	C216.3,147.6,216.6,147.1,216.6,145.1L216.6,145.1z"/>
<path class="st0" d="M235.9,122.3c-4.4,0-8.8-1.1-12.7-3.1c-0.6-0.3-1.2-0.7-1.6-1.3c-0.6-0.8-0.6-1.9,0-2.7
	c0.5-0.8,1.4-1.1,2.3-0.8c3.1,0.6,6,1.8,9.1,1.9c0.8,0,2.1,0.5,2.4-0.3c0.2-0.9-1.1-1.1-1.9-1.5c-2.3-1.1-4.7-2.1-6.9-3.3
	c-4.1-2.1-5.1-6.4-2.2-9.9c2.4-2.9,5.2-5.2,9.1-5.7c1.3-0.1,2.7,0.1,3.9,0.7c1.1,0.4,2.1,0.9,3.1-0.3c0.7-0.8,1.7-0.4,2.5,0.3
	c0.9,0.9,1.5,2.1,1.5,3.3c0.3,2.4,0,4.9-0.8,7.1c-0.4,1.1-1.1,2.2-2.4,2.2c-1.3,0-2.1-1.2-2.5-2.3c-0.3-1.2-0.4-2.5-0.4-3.7
	c-0.1-1.7-0.7-2.2-2.3-1.7c-2.1,0.6-4,1.6-5.6,3.1c-1.2,1.1-1.1,1.8,0.4,2.5c1.5,0.7,2.9,1.2,4.4,1.9c2.4,1,4.7,2.3,6.8,3.8
	c2.9,2,3.1,4.1,0.8,6.8C241.3,121.3,238.7,122.4,235.9,122.3z"/>
<path class="st0" d="M182.8,151.7c0-1.2,0.1-2.4,0.2-3.6c0-0.9-0.3-1.3-1.3-1.4c-1.8,0-3.4-1.3-4-3c-0.6-1-0.2-2.4,0.8-2.9
	c0.2-0.1,0.4-0.2,0.6-0.2c0.6-0.2,1.3-0.4,1.9-0.4c1.6,0,2.2-0.7,2.3-2.2c0.1-1.5,0.2-3.2,0.5-4.8c0.3-2.1,1-2.7,2.8-2.5
	c1.8,0,3.3,1.3,3.5,3.1c0,1.1-0.1,2.2-0.2,3.3c-0.1,1.7,0.1,2,1.8,2h1.7c1.8,0,3.4,1.3,3.7,3.1c0.3,1.1-0.4,2.1-1.4,2.4
	c-1.5,0.5-3.1,0.9-4.7,1c-0.9,0-1.6,0.8-1.6,1.7c0,0,0,0,0,0.1c-0.2,2.7-0.6,5.3-0.5,7.9c0.1,2.7,1.2,3.3,3.5,2.1
	c0.9-0.5,1.6-1.1,2.5-1.6c0.9-0.6,2.2-0.4,2.9,0.5c0.3,0.4,0.4,0.8,0.4,1.3c0,0.5-0.1,0.9-0.3,1.3c-1.9,4.1-6.8,5.8-10.8,3.9
	c-0.7-0.3-1.3-0.7-1.9-1.2c-1.1-1.1-1.7-2.5-1.9-4C183,155.7,182.8,153.7,182.8,151.7z"/>
<path class="st0" d="M229.3,163.7c-1.6,0.2-3.2-0.2-4.4-1.2c-1.7-1.6-1.3-3.9,0.9-4.4c1.3-0.2,2.2-1.4,2-2.6c0,0,0,0,0,0
	c0-3.3-0.1-6.6-0.1-9.9c0-0.7-0.4-1.3-1-1.5c-0.2-0.1-0.3-0.2-0.5-0.3c-1.4-0.7-2.2-2.1-2.2-3.6c0.3-1.5,1.7-1.8,3-2.2
	c1.3-0.3,2.6-0.3,3.9-0.1c1.2,0,2.2,0.8,2.5,1.9c0.3,1,0.8,0.9,1.5,0.3c2.5-2,4.3-2.1,6.7-0.7c2.2,1.1,3.3,3.5,2.7,5.9
	c-0.2,1.6-0.8,3.1-1.6,4.4c-0.6,0.9-1.2,1.7-2.5,1.5c-1.2-0.2-1.7-1.2-2-2.2c-0.3-1.3-0.3-2.6-0.1-3.9c0-0.4,0.3-1-0.3-1.2
	c-0.6-0.2-0.9,0.4-1.2,0.8c-0.7,1-1.1,2.1-1.4,3.3c-0.6,2.2-1.1,4.5-1.3,6.8c-0.1,1.3,0,2.7,1.6,3.1c0.4,0.2,0.8,0.5,1.1,0.8
	c1,0.7,1.3,2.1,0.6,3.1c-0.3,0.4-0.8,0.8-1.3,0.9C233.8,163.4,231.5,163.7,229.3,163.7z"/>
<path class="st0" d="M200,104.8c0-0.5,0.1-0.9,0.1-1.3c0-0.4,0.2-0.9-0.3-1.1c-0.5-0.2-0.7,0.3-1,0.6c-0.2,0.3-0.5,0.6-0.6,0.9
	c-1.4,3.3-2.1,6.8-2.2,10.3c-0.1,0.9,0.4,1.8,1.2,2.1c1.3,0.6,2.7,1.3,2.4,3c-0.3,1.7-1.7,2-3.1,2.4c-1.9,0.4-3.8,0.6-5.7,0.7
	c-1.3,0.1-2.5-0.3-3.6-1c-0.9-0.6-1.4-1.7-1.2-2.8c0.1-1,0.9-1.8,1.9-2c1.7-0.3,2-1.3,2-2.7c0-3.3-0.1-6.5-0.1-9.8
	c0.1-0.7-0.4-1.4-1.1-1.6c-0.1,0-0.3-0.1-0.4-0.2c-1.5-0.9-2.6-2.5-2.3-3.7c0.5-1.6,1.9-1.9,3.3-2.2c1.2-0.2,2.5-0.2,3.7,0
	c1,0.1,2,0.8,2.3,1.8c0.3,1.1,0.8,0.9,1.6,0.4c2.7-2,4.4-2.1,6.9-0.4c2,1.1,3,3.4,2.3,5.6c-0.2,1.7-0.8,3.3-1.7,4.7
	c-0.5,0.8-1.2,1.5-2.3,1.3c-1-0.2-1.8-0.9-2-1.9C199.9,106.9,199.8,105.8,200,104.8z"/>
<path class="st0" d="M170.1,122.3c-1.4,0.1-2.8-0.2-4-1c-0.9-0.6-1.4-1.7-1.2-2.8c0.1-1.1,1-1.9,2.1-2c1.1-0.1,1.9-1,1.8-2.1
	c0,0,0-0.1,0-0.1c0-3.4,0-6.8-0.1-10.2c0-0.7-0.4-1.4-1.1-1.6c-0.2-0.1-0.3-0.1-0.5-0.2c-1.2-0.9-2.4-1.9-2.2-3.5s1.7-1.9,3-2.3
	c1.4-0.3,2.8-0.3,4.2,0c0.9,0,1.7,0.6,2.1,1.5c0.4,1.3,0.9,1.3,1.9,0.5c2.8-2.1,5-2,8,0.9c0.6,0.6,1,1.4,1.1,2.2
	c0.2,2.7-0.6,5.4-2.3,7.5c-1,1.3-2.6,1-3.4-0.5c-0.6-1.4-0.8-2.9-0.5-4.4c0-0.4,0.1-0.7,0.1-1.1c0.1-0.3-0.1-0.6-0.3-0.7
	c-0.3-0.1-0.5,0-0.7,0.2c-0.8,0.8-1.3,1.8-1.6,2.9c-0.8,2.6-1.3,5.3-1.6,8c-0.1,1.3,0.1,2.5,1.6,3c0.3,0.1,0.6,0.3,0.8,0.5
	c0.8,0.4,1.3,1.3,1.2,2.2c-0.1,1-0.8,1.8-1.8,2.1C174.5,122,172.3,122.3,170.1,122.3z"/>
<path class="st0" d="M69.1,117c-1.8,1.5-3.4,3.1-4.8,5c0.9-3,1.4-6.2,1.4-9.3c0.1-2.6-0.3-5.2-1.2-7.7c-1.5-3.5-5.7-6.5-10.3-2.5
	c-1.3,1.1-2.4,2.4-3.7,3.6c-1.7,1.6-3.4,1.4-4.6-0.5c-0.6-1-0.9-2.1-0.9-3.2c0-3.1,0.5-6.1,1.5-9c0.3-0.7,0.7-1.4,1.3-2
	c0.4-0.4,1.1-0.5,1.7-0.2c0.7,0.4,0.4,1,0.2,1.5c-1,2.1-1.6,4.4-1.8,6.7c0,0.1,0,0.3,0,0.4c0,0.7-0.2,1.7,0.4,2.1
	c0.6,0.3,1.1-0.6,1.5-1.1c3.1-3.1,6.7-4.9,11.1-4.2c4.5,0.7,6.7,3.8,8,7.7C70.4,108.3,70.4,112.8,69.1,117z"/>
<path class="st0" d="M211.2,110.3c0-0.7,0-1.3,0-2c0.2-1.9,0-3.4-2.3-4.1c-1.2-0.4-2-1.6-1.9-2.9c0-1.3,1.2-1.9,2.3-2.4
	c1.8-0.7,3.7-0.9,5.6-0.6c2.1,0.3,2.8,1.6,2.7,3.7c-0.2,4-0.3,8.1-0.5,12.1c0,0.9,0.5,1.7,1.3,1.9c1.3,0.6,2.1,1.9,2.1,3.3
	c0.1,1-0.5,1.9-1.5,2c-2.9,0.6-5.9,0.7-8.9,0.2c-1.4-0.3-2.4-1.6-2.5-3c-0.1-1.5,0.7-2.1,1.9-2.5c1-0.3,1.6-1.3,1.5-2.3
	c0-1.2,0-2.4,0-3.6L211.2,110.3z"/>
<path class="st0" d="M49,133.2l-0.4,1.9c-3.6-1.7-7.1-1.1-10.7-0.1c-2.7,0.9-5.5,1.3-8.4,1.2c-1.3,0-2.4-0.9-2.8-2.1
	c-0.4-1.3,0.2-2.6,1.3-3.2c2.8-1.7,6.2-2.2,9.4-1.4c0.9,0.2,1.8,0.4,2.7,0.7s1.6,0.5,2-0.3s-0.3-1.4-0.9-1.8c-2-1.5-4.3-2.5-6.8-2.9
	c-4.9-0.5-9.9,0.3-14.4,2.4c-0.9,0.4-1.9,0.5-2.8,0.3c-1.5-0.2-2.5-1.5-2.3-3c0-0.4,0.2-0.7,0.3-1c0.5-1.3,1.4-2.4,2.7-3.1
	c3.2-2.1,7.3-2.7,11-1.6c0.3,0.1,0.6,0.2,0.9,0.3c0.4,0.1,0.6,0.5,0.5,0.9c-0.1,0.5-0.6,0.4-0.9,0.3c-2.9-0.6-5.9-0.2-8.5,1.1
	c-0.9,0.3-1.7,0.9-2.3,1.8c-0.4,0.4-0.4,1.1-0.2,1.6c0.3,0.6,1,0.5,1.5,0.4c0.8-0.2,1.6-0.4,2.4-0.7c4.3-1.7,9-2.3,13.6-1.7
	c3.3,0.6,6.2,2.3,8.3,4.9c0.8,0.7,1,1.9,0.6,2.9c-0.5,1.1-1.5,1.1-2.5,1.1c-2-0.2-4-0.5-5.9-0.9c-1.3-0.4-2.6-0.4-3.9,0
	c-0.8,0.3-1.5,0.8-2,1.6c-0.8,1.3-0.2,2.4,1.3,2.5c1.2,0,2.4-0.2,3.5-0.7c2.7-1.1,5.6-1.8,8.5-2C45.6,132,47.4,132.4,49,133.2z"/>
<path class="st0" d="M45.1,106.1c-1.2-0.8-2.6-1.4-4-1.7c-4.5-0.6-7.3,1.7-7.3,6.2c0,2.8,0.8,5.6,2.3,8.1c0.5,0.9,1.4,2.2,0.5,2.9
	c-0.9,0.7-2-0.5-2.8-1.2c-3.3-2.9-4.9-7.3-4.1-11.7c0.4-4.5,4.3-7.9,8.8-7.6C41.4,101.3,44,103.3,45.1,106.1z"/>
<path class="st2" d="M45.3,94.5c-2.7-0.8-5.7-1-7.8-3.3c-0.1-0.2-0.3-0.4-0.6-0.3c-0.3,0.1-0.2,0.4-0.2,0.6c0,1.2,0.8,2.2,2,2.5
	c0.7,0.1,1.5,0.2,2.2,0.2c1.3,0,2,0.7,2.2,2.2c0.1,1.1-0.7,2.1-1.8,2.2c-2.6,0.7-5.4-0.4-6.9-2.7c-1.1-2.7-0.5-5.8,1.6-7.8
	c0.9-0.8,2-1.1,2.8-0.2C40.9,90.1,43,92.3,45.3,94.5z"/>
<path class="st0" d="M217.9,90c0,2.4-1.4,4.4-3.1,4.4c-2.2-0.2-3.9-1.9-4.1-4c-0.1-2.7,1.3-4.8,3.3-4.8
	C216.2,85.8,218,87.7,217.9,90C217.9,90,217.9,90,217.9,90z"/>
<path class="st0" d="M48.1,137.3l-0.4,1.4c-0.5-0.1-1-0.2-1.5-0.3c-1.2-0.2-2.4,0.4-2.9,1.4c-0.3,0.4-0.3,1,0,1.4
	c0.3,0.5,0.9,0.7,1.5,0.5c0.6-0.2,1.2-0.4,1.8-0.7c-0.2,1-0.7,1.9-1.4,2.7h-0.7c-1.1,0-2.3-0.1-2.8-1.3c-0.4-1.1-0.2-2.4,0.6-3.2
	C43.7,137.5,46,136.7,48.1,137.3z"/>
<path class="st1" d="M88.3,125.6c-0.3-0.1-0.7-0.2-1.2-0.3c-0.4-0.1-0.9-0.4-0.8-0.9c0-0.6,0.4-1.1,1-1.2c0.4-0.2,1,0,1.2,0.4
	c0.2,0.3,0.4,0.7,0.6,1.1C89.6,125.3,89.4,125.7,88.3,125.6z"/>
<path class="st0" d="M64.3,122c0,0.2-0.1,0.3-0.2,0.4C64.1,122.3,64.1,122.1,64.3,122z"/>
<path class="st0" d="M240.8,162.9c-1,0-1.8-0.8-1.8-1.8s0.8-1.8,1.8-1.8c1,0,1.8,0.8,1.8,1.8S241.8,162.9,240.8,162.9L240.8,162.9z
	 M240.8,159.5c-0.9,0-1.6,0.7-1.6,1.6s0.7,1.6,1.6,1.6c0.9,0,1.6-0.7,1.6-1.6C242.4,160.2,241.7,159.5,240.8,159.5
	C240.8,159.5,240.8,159.5,240.8,159.5z"/>
<path class="st0" d="M240.8,163c-1,0-1.9-0.8-1.9-1.9s0.8-1.9,1.9-1.9s1.9,0.8,1.9,1.9l0,0C242.7,162.2,241.8,163,240.8,163z
	 M240.8,159.4c-0.9,0-1.7,0.8-1.7,1.7c0,0.9,0.8,1.7,1.7,1.7c0.9,0,1.7-0.8,1.7-1.7v0C242.5,160.2,241.7,159.4,240.8,159.4z
	 M240.8,162.8c-0.9,0-1.7-0.8-1.7-1.7s0.8-1.7,1.7-1.7s1.7,0.8,1.7,1.7c0,0,0,0,0,0C242.5,162,241.7,162.8,240.8,162.8z
	 M240.8,159.6c-0.8,0-1.5,0.7-1.5,1.5c0,0.8,0.7,1.5,1.5,1.5c0.8,0,1.5-0.7,1.5-1.5C242.3,160.3,241.6,159.7,240.8,159.6
	L240.8,159.6z"/>
<path class="st0" d="M240.1,160.3c0.2,0,0.3,0,0.5,0c0.2,0,0.4,0,0.6,0.1c0.1,0.1,0.2,0.2,0.2,0.3c0,0.2-0.2,0.4-0.4,0.4l0,0
	c0.2,0.1,0.3,0.2,0.3,0.3c0,0.2,0.1,0.3,0.2,0.5h-0.3c-0.1-0.1-0.1-0.3-0.1-0.4c0-0.2-0.2-0.4-0.4-0.3c0,0,0,0,0,0h-0.3v0.8h-0.3
	L240.1,160.3z M240.4,161.1h0.3c0.3,0,0.5-0.1,0.5-0.3c0-0.2-0.2-0.3-0.5-0.3h-0.3L240.4,161.1z"/>
<path class="st0" d="M241.6,162.1h-0.5l0,0c-0.1-0.1-0.1-0.3-0.1-0.4c0-0.2-0.2-0.3-0.3-0.3c0,0,0,0,0,0h-0.2v0.8h-0.4v-1.9h0.1
	c0.2,0,0.4,0,0.5,0c0.2,0,0.5,0,0.7,0.2c0.1,0.1,0.2,0.2,0.2,0.4c0,0.2-0.1,0.4-0.3,0.5c0.1,0.1,0.2,0.2,0.2,0.3
	C241.5,161.7,241.5,161.9,241.6,162.1L241.6,162.1z M241.3,161.9L241.3,161.9c0.1-0.1,0.1-0.2,0-0.4c0-0.1-0.1-0.3-0.3-0.3l0,0
	c0.1,0.1,0.2,0.2,0.2,0.3C241.2,161.7,241.2,161.8,241.3,161.9L241.3,161.9z M240.2,161.9h0.1v-1.5l0,0h0.3c0.5,0,0.6,0.3,0.6,0.4
	c0,0.1-0.1,0.3-0.2,0.3c0.2,0,0.3-0.2,0.3-0.3c0-0.1,0-0.2-0.1-0.3c-0.2-0.1-0.4-0.1-0.6-0.1h-0.4L240.2,161.9z M240.7,161.1
	c0.1,0,0.2,0,0.3,0.1v-0.1C240.8,161.1,240.8,161.1,240.7,161.1L240.7,161.1z M240.5,161h0.2c0.2,0,0.4-0.1,0.4-0.2
	s-0.1-0.2-0.4-0.2h-0.2L240.5,161z"/>
</svg>
