<?xml version="1.0" encoding="utf-8"?>
<!-- Generator: Adobe Illustrator 21.1.0, SVG Export Plug-In . SVG Version: 6.00 Build 0)  -->
<svg version="1.1" id="Layer_1" xmlns="http://www.w3.org/2000/svg" xmlns:xlink="http://www.w3.org/1999/xlink" x="0px" y="0px"
	 viewBox="0 0 250 250" style="enable-background:new 0 0 250 250;" xml:space="preserve">
<style type="text/css">
	.st0{fill:#1C5630;}
	.st1{fill:#F8C255;}
	.st2{fill:#FCFDFC;}
	.st3{fill:#FCFCFC;}
	.st4{fill:#F5F7F6;}
</style>
<title>Grocery</title>
<path class="st0" d="M5.7,173.9V76.8c0.2-0.1,0.1-0.3,0.2-0.5c0.7-3.6,3.3-6.5,6.7-7.5c0.6-0.2,1.3-0.3,2-0.5H237
	c0,0.1,0.1,0.1,0.2,0.1c3.9,0.6,7.1,3.4,8.1,7.2c0,0.5,0.2,0.9,0.3,1.3v97c-0.3,0.2-0.2,0.5-0.2,0.7c-0.8,3.6-3.5,6.5-7.1,7.5
	c-0.5,0.1-0.9,0.2-1.3,0.3H14.1c-0.1-0.2-0.3-0.1-0.4-0.2c-3.7-0.7-6.8-3.5-7.7-7.2C5.9,174.6,5.9,174.2,5.7,173.9z M125.7,74.9
	H21.9c-5.2-0.2-9.5,3.9-9.6,9c0,0.2,0,0.4,0,0.6c0,27.2,0,54.4,0,81.6c-0.2,5.2,3.9,9.5,9,9.6c0.2,0,0.4,0,0.6,0h207.5
	c5.2,0.2,9.5-3.8,9.7-9c0-0.2,0-0.4,0-0.7c0-27.2,0-54.4,0-81.6c0-0.7-0.1-1.5-0.2-2.2c-0.9-4.4-4.8-7.5-9.3-7.5H125.7z"/>
<path class="st1" d="M125.7,74.9h103.8c4.5-0.1,8.4,3,9.3,7.5c0.1,0.7,0.2,1.4,0.2,2.2c0,27.2,0,54.4,0,81.6c0.2,5.2-3.9,9.5-9,9.6
	c-0.2,0-0.4,0-0.7,0H21.9c-5.2,0.2-9.5-3.9-9.6-9c0-0.2,0-0.4,0-0.6c0-27.2,0-54.4,0-81.6c-0.2-5.2,3.9-9.5,9-9.6c0.2,0,0.4,0,0.6,0
	H125.7z M125.7,76.1H21.9c-4.5-0.2-8.3,3.3-8.5,7.8c0,0.2,0,0.4,0,0.6c0,27.3,0,54.5,0,81.8c0,0.7,0.1,1.4,0.2,2
	c0.9,3.8,4.3,6.4,8.1,6.3h207.7c4.5,0.1,8.2-3.4,8.3-7.9c0-0.1,0-0.3,0-0.4c0-3.3,0-6.5,0-9.8c0-23.9,0-47.8,0-71.7
	c0-1-0.1-1.9-0.4-2.8c-1.1-3.5-4.4-5.9-8.1-5.8L125.7,76.1z"/>
<path class="st0" d="M125.7,76.1h103.7c3.7-0.1,7,2.2,8.1,5.8c0.3,0.9,0.4,1.9,0.4,2.8c0,23.9,0,47.8,0,71.7c0,3.3,0,6.5,0,9.8
	c0.1,4.5-3.4,8.2-7.9,8.3c-0.1,0-0.3,0-0.4,0H21.8c-3.9,0.1-7.3-2.5-8.1-6.3c-0.2-0.7-0.2-1.3-0.2-2c0-27.3,0-54.5,0-81.8
	c-0.1-4.5,3.4-8.2,7.9-8.4c0.2,0,0.4,0,0.6,0L125.7,76.1z M115.9,103.5c-0.9,0.3-1.6,0.8-2.5,1.1c-0.6,0-1.3-0.2-1.9-0.4
	c0.3-0.2,0.6-0.3,1-0.3c1.9-0.3,3.7-1,5.2-2.2c1.4-1,2.2-2.7,2-4.5c-0.1-0.8-0.3-1.6-0.7-2.3c0.7-0.2,1,0,1.3,0.8
	c2.6,7.6,5.7,15.1,9.2,22.3c0.1,0.4,0.5,0.7,1,0.6c1.1,0,2.1,0,3.1,0c0.5,0.1,1-0.2,1.2-0.7c0.2-0.5,0.1-0.5-0.3-0.5
	c-0.9,0-1.9,0-2.8,0c-0.4,0-0.8-0.2-0.9-0.6c-0.4-0.9-0.8-1.8-1.3-2.7c-3-6.5-5.7-13.1-8-19.8c-0.1-0.4-0.4-0.7-0.8-0.6
	c0,0,0,0-0.1,0c-0.4,0.1-0.9,0.1-1.3,0c-0.4-0.1-0.7-0.1-1,0.2c-1.2-1-2.7-1.6-4.3-1.9c-1.4-0.3-2.9-0.4-4.4-0.5
	c-3.5,0-7,0.2-10.5,0.6c-1.2,0.1-2.4,0.3-3.7,0.4c-0.9,0-0.6,0.7-0.6,1.1s0.4,0.2,0.7,0.2c0.4,0,0.9-0.1,1.3-0.2
	c0.5-0.1,0.7,0,0.6,0.5c-0.1,1.3-0.1,2.5-0.1,3.8c-0.2,5.6-0.1,11.1,0.1,16.7c0,1.3,0,1.3-1.2,1.2c-0.3-6.7-0.3-13.4,0-20.1
	c0-0.9,0-0.9-0.9-0.8c-0.5,0.2-1.1,0.2-1.7,0.1c-1-0.3-1.3-0.1-1.3,0.9c0,0.3,0.1,0.4,0.4,0.4c0.4-0.1,1.1-0.1,1.6-0.2
	C95,95.8,95,96,95,96.5c-0.3,6.4-0.3,12.8,0,19.2c-0.4,1-0.2,1.3,0.7,1.3c2.3,0,4.5-0.2,6.8-0.3c1-0.1,2.1-0.2,3.1-0.3
	c0.8-0.1,0.4-0.7,0.4-1.1c0-0.4-0.3-0.2-0.5-0.2c-0.5,0-1.1,0.1-1.6,0.2c-0.3,0-0.4,0-0.4-0.3c0.1-2.4,0.2-4.9,0.3-7.3
	c3.9-0.1,5.9,1.9,6.2,5.7c0.1,1.5,0.1,3.1,0,4.6c0,0.4,0,0.6,0.5,0.6c2.8,0.1,5.5,0,8.3-0.2c0.5,0,0.6-0.3,0.6-0.7s-0.4-0.4-0.7-0.4
	c-2.3,0.2-4.6,0.2-6.8,0.1c-0.5,0-0.7-0.1-0.7-0.7c0.2-1.8,0.1-3.6-0.1-5.5c-0.2-2.4-2-4.4-4.5-4.7c-0.9-0.1-1.9-0.1-2.8,0
	c0-1.1,0-1.1,1-1.1c0.7,0,1.4-0.1,2.1-0.1c2.6-0.2,4.9,1.7,5.3,4.3c0.3,2,0.4,4,0.2,6c0,0.5,0.1,0.6,0.5,0.6c2.8,0.1,5.6,0,8.4-0.2
	c0.1,0,0.4,0,0.4-0.2c0.1-0.3,0.1-0.7,0-1.1c-0.1-0.2-0.5,0-0.7,0c-0.2,0-0.7,0-1,0.1c-0.3,0.1-0.5-0.1-0.5-0.5c0-1.1,0-2.3-0.2-3.4
	c-0.2-2.5-1.8-4.7-4.1-5.6l-0.6-0.3c0.5-0.5,1.2-0.7,1.6-1.3l0.1-0.1h-0.1L115.9,103.5z M183.6,117.9c0-2.4-0.1-4.7,0-7.1
	c0-0.4-0.1-0.8-0.3-1.1c-2.5-3.8-4.8-7.7-6.9-11.7c-0.6-1.3-1.3-2.1-2.9-1.9c-0.4,0-0.8,0-1.2-0.1c0-0.8-0.1-1.6-0.1-2.4
	c0-1,0-1-1-1.1c-0.4,0-0.7-0.1-0.5,0.4c0.1,0.3-0.1,0.3-0.3,0.3c-3.4-0.5-6.8-0.9-10.2-1.1c-3.2-0.2-6.4-0.4-9.6-0.4
	c-0.2,0-0.4-0.1-0.5,0.1c-0.2,0.4-0.1,0.8,0.2,1c0.1,0.1,0.3,0.1,0.4,0.1c0.4,0,0.9,0,1.3,0s0.7,0.1,0.6,0.7
	c-0.3,6.8-0.3,13.6,0,20.3c0,1.2,0,1.2-1.2,1.1c-0.1-3.6-0.2-7.1-0.2-10.7c0-3.2,0-6.4,0.2-9.6c0-0.3,0.1-0.7-0.4-0.7
	c-1,0-2,0-2.9-0.1c-0.2,0-0.4-0.1-0.5,0.2c-0.2,0.4-0.1,0.8,0.2,1c0.1,0.1,0.3,0.1,0.4,0.1c0.4,0,0.8,0,1.2,0s0.8,0.1,0.7,0.7
	c-0.1,1.1-0.1,2.1-0.1,3.2c-0.1,5.2-0.1,10.4,0,15.6c-0.4,0.8-0.2,1.3,0.3,1.4l12.5,1c2.5,0.2,5,0.3,7.6,0.5c0.3,0,0.6,0,0.5,0.4
	c-0.1,1,0.7,0.5,1.1,0.6c0.4,0.2,0.5-0.3,0.5-0.5c0.2-2,0.2-4,0.2-5.9c0-0.1,0.1-0.3-0.1-0.4c-0.5-0.2-0.9-0.2-1.4-0.1
	c-0.2,0.1,0,0.5-0.1,0.8c0,0.3,0,0.6,0,0.9c0.1,0.6-0.2,1.2-0.8,1.3c0,0,0,0-0.1,0L170,115c-0.1-0.3,0.1-0.6-0.2-0.8
	c-0.7-0.3-1.1,0-1,0.7c0,0.1,0,0.3,0,0.4c-0.2,0.2-0.5,0.3-0.7,0.3c-3,0.3-6,0.3-9-0.1c-0.3,0-0.4-0.2-0.4-0.5
	c0.1-2.8,0.2-5.7,0.2-8.5c1.4,0,2.7,0.3,4,0.7c1.6,0.5,1.6,0.5,1.6,2.3c0,0.9,0,0.9,0.9,1c0.2,0,0.6,0.1,0.7-0.1s0.2-0.9,0-1
	c-0.5-0.3-0.3-0.7-0.3-1.1c0-1.7,0-1.7-1.6-2.2l-0.5-0.1c-1.6-0.4-3.2-0.6-4.8-0.6c0-0.3,0-0.5,0-0.8s0.1-0.5,0.4-0.4
	c2,0,4.1,0.3,6.1,0.8c1.5,0.5,1.6,0.6,1.6,2.2c0,1,0,0.9,0.9,1.1c0.5,0,0.7-0.1,0.7-0.6c0.1-1.5,0.1-3.1,0-4.6c-0.1-0.9-0.1-0.9-1-1
	c-0.4,0-0.6,0.1-0.5,0.5c0,0.2,0,0.5-0.3,0.4c-2.5-0.2-4.9-0.4-7.4-0.4c-0.3,0-0.4-0.1-0.4-0.4c0-2,0-3.9-0.1-5.9
	c0.6,0,1.1,0.1,1.7,0.1c2.1,0.2,4.2,0.7,6.1,1.5c1.1,0.6,1.9,1.3,1.5,2.7c0,0.1,0,0.2,0,0.3c0,1,0,1,1,1c0.2,0,0.6,0.2,0.6-0.2
	c0.1-0.3,0.2-0.9,0-1c-0.5-0.3-0.3-0.6-0.3-1c0-0.4,0-0.9,0-1.3c0-0.4-0.2-0.7-0.5-0.9c-1-0.8-2.2-1.3-3.4-1.6
	c-2.2-0.5-4.5-0.8-6.8-0.9c0-0.2,0-0.4,0-0.5c-0.1-0.6,0.1-0.8,0.7-0.7c1.3,0.2,2.8,0.2,4.2,0.4c1.8,0.2,3.6,0.6,5.3,1.3
	c1.2,0.4,2,1.7,1.6,2.9c-0.2,1-0.1,1,0.9,1.1h0.2c0.4,0,0.5-0.1,0.5-0.4c0-0.4,0-1.1,0.1-1.6c0.5,0,1,0,1.4,0c0.3,0,0.6,0.2,0.7,0.5
	c2.3,4.6,4.8,9,7.5,13.3c0.2,0.2,0.2,0.5,0.2,0.8c-0.1,1.9-0.1,3.9,0,5.8c-0.6,0.2-0.2,0.6-0.3,1c0,0.3,0.3,0.4,0.6,0.5
	c0.5,0.1,1,0.2,1.5,0.1c3.1,0.5,6.1,0.9,9.2,1.2c0.3,0,0.6,0.1,0.5-0.3c-0.1-0.4,0.4-0.9-0.4-1s-1.3-0.1-1.9-0.1
	c-0.4,0-0.5-0.2-0.5-0.6c0.1-2.7,0.1-5.5,0-8.2c0-0.3,0.1-0.6,0.3-0.9c0.8-0.9,1.6-1.8,2.3-2.7s1.5-2.1,2.4-3.1s1.1-2.3,2.3-3
	c0,0,0-0.1,0-0.2c0-0.5,0.2-1,0.5-1.5c0.5-0.9,0.5-0.9,1.5-0.7c0.1,0,0.3,0.2,0.5,0c0.2-0.5,0-1.1-0.5-1.3c-2-0.5-4.1-0.8-6.2-1
	c-0.3,0-0.7-0.3-0.7,0.3c0,0.6-0.2,0.9,0.6,1c1.7,0.1,1.7,0.1,1.3,1.8c0,0.1,0,0.2-0.1,0.3c-0.6,2.5-1.8,4.8-3.5,6.7
	c-0.3-0.2,0-0.3,0-0.4c0.3-0.6,0.7-1.1,1-1.7c0.8-1.5,1.3-3.1,1.5-4.7c0-0.4,0-0.7-0.5-0.7c-0.8,0-1.6-0.2-2.4-0.2
	c-0.1,0-0.3-0.1-0.4,0.1c-0.2,0.4-0.1,0.8,0.3,1c0.1,0.1,0.3,0.1,0.4,0.1c0.3,0,0.6,0.1,0.9,0.1c0.3,0,0.5,0.2,0.5,0.6
	c-0.1,0.4,0,0.5-0.1,0.7c-0.5,2.3-1.4,4.5-2.8,6.4c-2.2-3.4-4.2-6.9-5.9-10.6c-0.2-0.3-0.3-0.7-0.4-1.1l2,0.3c0.1,0,0.3,0.1,0.4,0
	c0.2-0.5,0-1-0.5-1.2c0,0-0.1,0-0.1,0c-3.5-0.7-7-1.1-10.6-1.3c-0.8,0-0.8-0.1-0.8,0.8c0,0.4,0.1,0.5,0.5,0.5s0.8,0,1.2,0
	c0.3,0,0.6,0.2,0.7,0.5c2.3,4.6,4.9,9,7.7,13.2c0.2,0.2,0.3,0.5,0.2,0.8c-0.1,2.5-0.1,5,0,7.5C184.8,118.2,184.8,118.2,183.6,117.9z
	 M136.8,111.1c1.6-3.4,3-6.9,4-10.5c0.6-2,1-4.1,1.1-6.2c0-0.3,0.2-0.6-0.3-0.7h-2.7c-0.2,0-0.3,0-0.4,0.3c-0.2,0.8,0,1.1,0.8,1h0.4
	c1,0,1,0,0.9,1c-0.3,2.7-0.8,5.3-1.7,7.8c-0.7,2.2-1.5,4.4-2.5,6.5c-1.1-2.4-2.1-4.8-3.1-7.2c-1.3-3.4-2.5-6.8-3.7-10.3
	c-0.2-0.5-0.1-0.6,0.4-0.5c0.5,0,0.8,0,1.2,0s0.7,0.1,0.6-0.4c-0.1-0.5,0.3-0.9-0.5-0.9c-3.5-0.2-7-0.2-10.5,0c-0.1,0-0.4,0-0.4,0.2
	c-0.1,0.4-0.1,0.7,0,1.1c0.1,0.2,0.5,0,0.7,0c1.1-0.1,1.1-0.1,1.4,0.9c2.7,7.6,5.8,15,9.2,22.3c0.1,0.4,0.5,0.6,0.9,0.6
	c1.1,0,2.2,0,3.3,0c0.5,0.1,0.9-0.2,1-0.6c3.8-7,7-14.3,9.5-21.9c0.3-0.9,0.3-0.9,1.3-0.8c0.2,0,0.6,0.3,0.5-0.3
	c-0.1-0.5,0.4-0.9-0.4-1c-2.2-0.2-4.4-0.3-6.7-0.3c-0.4,0-0.5,0.1-0.5,0.5c0,0.9,0,0.8,0.8,0.8c0.3,0,0.5,0,0.8,0s0.5,0.1,0.5,0.5
	c0,0.9-0.1,1.8-0.3,2.7c-0.8,4-2,7.9-3.6,11.6c-0.6,1.5-1.3,3-2.1,4.4L136.8,111.1z M81,117.9c0.2,0.2,0.5,0.1,0.8,0.1l3.4-0.2
	c2.3-0.1,4.6-0.4,6.9-0.7c0.3,0,0.5,0,0.5-0.5c0-0.8,0-0.8-0.8-0.7c-1.1,0.1-1.1,0.1-1.5-0.9c-2.7-7.3-5.9-14.4-9.4-21.3
	c-0.1-0.4-0.5-0.6-0.9-0.5c-1.3,0.2-2.6,0.3-3.9,0.4c-0.4,0-0.7,0.2-0.8,0.6c-3.6,7.8-6.7,15.8-9.4,24c-0.1,0.4-0.5,0.8-0.9,0.7
	c0,0-0.1,0-0.1,0l0.2-0.7c2.4-7.3,5.3-14.4,8.4-21.3c0.1-0.2,0.2-0.4,0.2-0.7c-0.5-0.1-0.7,0.2-0.8,0.5c-2.4,5.5-4.8,11-6.8,16.6
	c-0.8,2.1-1.5,4.2-2.2,6.3c-0.1,0.2-0.3,0.6,0.3,0.5c0,0,0.1,0.1,0.2,0.1c2.2-0.1,4.4-0.4,6.5-0.8c0.2,0,0.2-0.1,0.2-0.3
	c0.2-0.8,0-1.1-0.8-0.9c-0.2,0-0.5,0-0.7,0.1c-0.2,0.1-0.4,0-0.4-0.3c0-1,0.1-2,0.3-3c3-0.4,6.1-0.8,9.2-1c0.4-0.1,0.7,0.1,0.8,0.5
	c0,0,0,0,0,0c0.3,1,0.7,2,1.1,3C80.6,117.7,80.6,118,81,117.9L81,117.9z M209.6,103.4c0.5-0.1,1-0.2,1.5-0.3
	c3.8-0.2,7.5,1.2,10.3,3.8c1.2,0.9,1.8,2.3,1.6,3.8c-0.2,1.8-0.1,1.9,1.8,2.1h0.3c0.1,0,0.2,0,0.2-0.1c0.2-0.6,0-1.2-0.6-1.4
	c-0.5-0.1-0.6-0.3-0.6-0.9c0.1-0.9,0-1.7,0.1-2.6c0-0.3-0.1-0.6-0.3-0.9c-1-1.2-2.3-2.2-3.6-3c-3.1-1.8-6.4-2.8-10-1.6
	c-0.1,0-0.2,0-0.2-0.1c0.2-0.4,0.6-0.8,1.1-0.9c0.9-0.4,1.8-0.7,2.8-0.7c3.7,0,7.2,1.4,9.9,3.9c1.2,0.9,1.8,2.3,1.5,3.8
	c-0.2,1.7-0.1,1.7,1.6,2c0.5,0.1,0.8,0,0.8-0.6c0-2.1,0-4.2-0.1-6.3c-0.1-2.1-0.1-2.1-2.2-2.5h-0.1c-0.1,0.4,0.2,0.8,0,1.3
	c-3.4-2-7.2-3.2-11.1-3.7c-2.5-0.4-5.2-0.3-7.6,0.5c-2.4,0.6-4.3,2.6-4.6,5.1c-0.3,2,0.3,4,1.4,5.7c1.1,1.6,2.5,3,4.1,4.1
	c2.2,1.7,4.6,3.1,6.9,4.6c1.8,1.1,3.4,2.3,4.9,3.7c0.8,0.8,1.5,1.7,1.9,2.8c0.8,1.7,0.2,3.8-1.3,4.9c0.2-0.6,0.3-1.1,0.4-1.7
	c0-1.8-0.8-3.4-2.1-4.6c-1.4-1.3-2.9-2.5-4.5-3.5c-2.5-1.7-5.2-3.2-7.6-5c-1.8-1.2-3.3-2.8-4.4-4.7c-1.3-2.1-1.5-4.7-0.5-7
	c0-0.1,0.1-0.2-0.1-0.3c-0.9,0.8-1.5,1.9-1.6,3.1c-0.4,2.6,0.4,5.2,2.3,7.1c1.5,1.7,3.2,3.1,5.1,4.3c2.2,1.5,4.5,2.9,6.7,4.3
	c1.6,1,3.1,2.3,4.3,3.8c1.1,1.3,1.5,3,1.2,4.6c-1.5,0.6-3.1,0.8-4.7,0.5c-4-0.6-7.6-2.4-10.6-5.1c-1.1-0.8-1.7-2.1-1.5-3.5
	c0.1-1.8,0-1.8-1.8-2c-0.3,0-0.5,0-0.5,0.4c0,2.8,0.1,5.6,0.2,8.4c0,0.7,0.3,1,0.9,1c-0.1,0.5,0.5,1.1-0.4,1.5
	c5.1,2.6,10.7,4,16.3,4.3c2,0.1,3.9-0.3,5.7-1c0.7-0.3,1.4-0.8,2-1.3c-0.1-0.1-0.2-0.1-0.3,0c-1.8,0.9-3.8,1.4-5.9,1.3
	c-4.2-0.1-8.4-0.9-12.3-2.5c-1.5-0.5-2.9-1.2-4.2-2c0.3,0,0.5-0.1,0.4-0.5c-0.1-0.3-0.1-0.7-0.1-1.1l0.5,0.2
	c2.8,1.4,5.8,2.5,8.9,3.4c3.6,1.1,7.4,1.4,11.1,0.9c3.8-0.4,6.6-3.8,6.2-7.6c0-0.2-0.1-0.4-0.1-0.6c-0.4-2.7-1.7-5.2-3.6-7
	c-2-2-4.3-3.7-6.7-5.1c-2.2-1.3-4.3-2.7-6.4-4.3c-0.9-0.7-1.7-1.5-2.3-2.5C209.4,105.2,209.3,104.3,209.6,103.4L209.6,103.4z
	 M36.2,102.7c-0.1-0.9-0.1-1,0.8-1.1l1.4-0.2c1.1-0.2,1.1-0.2,1.1-1.3c0-0.4-0.1-0.5-0.5-0.4c-4.4,0.6-8.8,1.6-13.1,2.9
	c-1.1,0.3-1.1,0.3-1.1,1.5c0,0.5,0.2,0.5,0.6,0.4c0.9-0.3,1.8-0.6,2.7-0.8c0,1.7,0,3.3,0,4.9c-0.3,7.7-0.2,15.5,0.1,23.2
	c0,1.3,0.1,1.3-1.2,1.5c-0.2-5-0.3-9.9-0.3-14.9c0-4.3,0.1-8.6,0.3-12.8c0-0.6-0.1-0.7-0.7-0.5c-0.9,0.3-1.8,0.5-2.7,0.8
	c-0.1-0.8-0.1-0.8-0.3-0.8c-0.7,0-0.9,0.3-0.9,1c-0.1,0.3-0.1,0.6,0,1c0.9-0.3,1.8-0.5,2.7-0.8c0.5-0.2,0.7-0.1,0.7,0.5
	c-0.1,2.4-0.2,4.7-0.2,7.1c-0.1,6.5-0.1,13.1,0.2,19.6c-1,0-1,0.7-1,1.4c0,0.4,0.1,0.5,0.5,0.4c4.3-0.8,8.6-1.7,12.8-2.8
	c1.4-0.4,1.4-0.4,1.3-1.9c0,0,0-0.1,0-0.1c-0.9,0.2-1.9,0.4-2.8,0.7c-0.5,0.2-0.6,0-0.5-0.5c0-1.2,0.1-2.4,0.1-3.6
	c0.1-2.6,0.1-5.1,0.1-7.7l1-0.2c3.5-0.8,7.1-1.4,10.7-2c0.4,0,0.6,0,0.6,0.5c0,3.7,0.1,7.3,0.2,11c-1,0.2-1,0.2-1,1.2
	c0,0.5,0.1,0.6,0.6,0.5c4.3-0.6,8.7-1.2,13-2.2c1.1-0.2,1.1-0.2,1.1-1.3c0,0,0-0.1,0-0.1c0-0.3-0.1-0.4-0.4-0.3
	c-0.7,0.2-1.3,0.3-2.1,0.4c-0.9,0.2-0.9,0.2-0.9-0.7c0.2-5.1,0.3-10.1,0.3-15.2c0-3.7-0.1-7.5-0.2-11.2c0.3-0.1,0.8,0.2,0.8-0.4
	c0.1-0.6,0-0.8-0.9-0.7c-0.2-1-0.2-1,0.8-1.2l1.4-0.2c1-0.1,1-0.1,1-1.1c0,0,0-0.1,0-0.1c0.1-0.5-0.2-0.5-0.6-0.5
	c-4.3,0.4-8.7,1.1-12.9,2.1c-1.2,0.3-1.1,0.3-1.1,1.5c0,0.4,0.1,0.5,0.5,0.4c0.8-0.2,1.6-0.3,2.3-0.5c0.5-0.1,0.5,0,0.5,0.4
	c-0.2,3.9-0.3,7.9-0.3,11.8c0,1,0,1-1,1.1h-0.2c0-2.1,0-4.1,0.1-6.1c0-1.8,0.1-3.7,0.2-5.5c0-0.5-0.1-0.6-0.6-0.5
	c-0.7,0.2-1.4,0.3-2.1,0.5c-0.3,0.1-0.7,0.2-0.7-0.4c0-0.1,0-0.2-0.2-0.2c-0.4-0.1-0.9,0.2-1,0.6c0,0.1,0,0.1,0,0.2
	c0,0.2,0,0.3,0,0.5c0,0.5,0,0.7,0.6,0.5c0.6-0.2,1.3-0.3,1.9-0.5c0.6-0.1,0.8-0.2,0.8,0.6c-0.1,3.5-0.3,7-0.3,10.5
	c-0.1,0-0.2,0.1-0.3,0.1l-10.7,2.1c-1.3,0.3-1.3,0.2-1.3-1.2c0-0.2,0-0.3,0-0.5l-0.1-9.3c0.3-0.1,0.8,0.1,0.9-0.4
	C37.2,102.8,37.2,102.6,36.2,102.7L36.2,102.7z M101.7,134.5c-0.1-2-0.8-3.6-3.2-3.8c-0.5,0-1-0.1-1.5-0.1c-0.8-0.3-1.7,0.2-2,1
	c0,0,0,0,0,0.1c-0.5,1-1.1,2.1-1.6,3.1c-0.1,0.2-0.2,0.5-0.5,0.4c-0.3-0.1-0.3-0.3-0.4-0.6c0-0.3,0-0.5-0.2-0.5s-0.4,0.2-0.5,0.4
	c-0.2,0.4-0.2,0.9,0.2,1.3c0.5,0.4,0.4,0.8,0.1,1.3c-1.1,1.9-2.2,3.8-3.1,5.9c-0.3,0.8,0.1,1.7,0.9,2c0,0,0.1,0,0.1,0
	c0.2,0,0.3-0.1,0.3-0.2l0.8-1.5c0.8-1.7,1.8-3.3,2.8-4.9c0.4-0.7,1.1-1,1.9-1c1.6,0.1,3.1-0.2,4.5-0.7
	C101.3,136.4,101.9,135.5,101.7,134.5L101.7,134.5z M134.2,134.2c0-0.6,0-1.1-0.2-1.7c-0.3-1.3-1.2-1.6-2.3-0.8
	c-0.5,0.4-0.9,0.9-1.3,1.3c-0.3,0.3-0.5,0.3-0.7-0.1c-0.3-0.5-0.7-1-1-1.5c-0.2-0.4-0.8-0.6-1.2-0.4c0,0-0.1,0.1-0.1,0.1
	c-0.5,0.4-0.8,0.2-1-0.3c-0.1-0.3-0.4-0.5-0.7-0.5c-0.3,0-0.5,0.3-0.6,0.5c-0.8,1.9-1.7,3.7-2.7,5.4c-0.4,0.6-0.3,1.3,0.2,1.9
	c0.8,1.1,1.3,1.1,1.9-0.1c0.8-1.6,2-3.1,3.4-4.3c0.4-0.4,0.8-0.3,1,0.3c0.1,0.3,0,0.6-0.2,0.8c-0.4,0.5-0.8,1-1.1,1.5
	c-0.5,0.8-0.3,1.3,0.7,2c0.7,0.5,1,0.4,1.6-0.4c0.4-0.5,0.7-1.1,1-1.7c0.3-0.6,0.6-1.2,1-1.8c0.1-0.2,0.3-0.4,0.5-0.3
	c0.2,0.1,0.2,0.4,0.1,0.5c-0.2,0.7-0.4,1.5-0.6,2.2c-0.2,0.4-0.2,0.9,0,1.3c0.2,0.4,0.5,0.6,0.9,0.6c0.4,0,0.6-0.3,0.7-0.6
	C133.9,136.9,134.2,135.6,134.2,134.2z M165.2,132.5h0.6c0.7,0,0.9-0.3,0.7-1c-0.1-0.8-0.8-1.4-1.7-1.3c-0.5,0-1,0.2-1.5,0.4
	c-0.4,0.2-0.9,0.4-1.3,0.5c-0.7,0.1-0.8,0-0.6-0.7c0.3-0.7,0.6-1.4,0.9-2.1c0.4-0.8,0.3-1.7-0.3-2.3c-0.5-0.6-0.7-0.6-0.9,0.1
	c-0.5,2-1.8,3.6-2.4,5.5c0,0.1-0.1,0.2-0.2,0.3c-1.3,2-2.3,4.3-3.8,6.2c-0.1,0.1-0.1,0.2-0.2,0.4c-0.2,0.7,0.1,1.5,0.7,1.9
	c0.8,0.4,0.9-0.3,1.2-0.8c0.7-1.2,1.3-2.4,2.1-3.6s0.9-1.2,1.7-0.1c0.6,0.8,1.2,1.6,1.8,2.3c0.2,0.3,0.5,0.9,0.9,0.6
	c0.4-0.3,0-0.8-0.1-1.2c-0.6-1.1-1.3-2.1-2.1-3.1c-0.6-0.8-0.5-1,0.5-1h0.5c0.6,0,1.2-0.2,1.7-0.5
	C164,132.6,164.6,132.4,165.2,132.5L165.2,132.5z M135.8,136.9c0,1.1,0.8,2,1.9,2c0.3,0,0.6,0,0.9-0.2c0.7-0.4,1.5-0.8,2.1-1.3
	c0.3-0.2,0.5-0.2,0.6,0.2c0.2,0.6,0.5,1.1,0.9,1.5c0.3,0.4,0.9,0.5,1.3,0.3c0.5-0.3,0.3-0.7,0.2-1.1c-0.3-1.1,0-2.3,0.7-3.2
	c0.3-0.3,0.5-0.7,0.6-1.1c0.2-1.1-0.3-2.2-1.2-2.8c-0.8-0.7-1.9-0.7-2.7,0c-1.6,1.3-3.2,2.6-4.6,4.1
	C136.1,135.7,135.9,136.3,135.8,136.9L135.8,136.9z M80.7,136.6c-0.1,1.2,0.7,2.2,1.9,2.3c0.2,0,0.4,0,0.6,0c0.4,0,0.8-0.1,1.1-0.3
	c2.4-1.1,4.5-2.8,6-5c0.2-0.4,0.4-0.8,0.5-1.2c0.1-0.4,0-0.9-0.3-1.2c-0.4-0.5-0.6-0.5-1,0c-0.4,0.5-0.6,0.9-0.9,1.3
	c-1.4,1.8-3.2,3.2-5.3,4.2c-0.2,0.1-0.4,0.2-0.6,0c-0.2-0.2,0-0.4,0.1-0.6c0.5-0.8,1-1.6,1.5-2.3c0.5-0.7,1-1.5,1.3-2.3
	c0.2-0.6,0.4-1.2-0.3-1.5c-0.6-0.3-1,0.2-1.3,0.6c-0.9,1.2-1.7,2.4-2.5,3.6C81,134.9,80.7,135.7,80.7,136.6L80.7,136.6z M169.8,137
	c-0.7,0.1-1.3-0.1-1.9-0.5c-0.2-0.2-0.3-0.4-0.1-0.7c0.2-0.3,0.4,0,0.5,0.1c0.7,0.4,1.5,0.5,2.2,0.2c1.2-0.4,2.3-1.2,2.9-2.3
	c0.5-0.6,0.5-1.5,0-2.2c-0.5-0.7-1.5-1-2.4-0.7c-1.7,0.7-3.2,1.7-4.3,3.1c-0.3,0.3-0.5,0.7-0.5,1.2c0.3,1.6,1.4,2.9,2.8,3.6
	c1.7,0.3,3.4-0.2,4.6-1.4c0.3-0.2,0.4-0.6,0.2-0.9c-0.2-0.4-0.6-0.2-0.9-0.1C172,136.7,170.9,136.9,169.8,137L169.8,137z M106.8,137
	c-0.7,0.1-1.4-0.1-1.9-0.5c-0.2-0.1-0.2-0.4-0.1-0.6c0.2-0.3,0.4,0,0.5,0.1c0.7,0.4,1.5,0.5,2.2,0.2c1.2-0.4,2.2-1.1,2.9-2.2
	c0.6-0.7,0.6-1.6,0.1-2.3c-0.6-0.7-1.6-1-2.5-0.6c-1.6,0.7-3,1.7-4.1,2.9c-0.3,0.3-0.5,0.8-0.6,1.2c0.2,1.7,1.4,3.1,3,3.7
	c1.6,0.2,3.2-0.3,4.3-1.4c0.3-0.2,0.5-0.6,0.3-1s-0.6-0.2-0.9-0.1C109,136.7,107.9,136.9,106.8,137L106.8,137z M147.5,118
	c-0.1,0.5,0.1,0.7,0.7,0.8c5,0.5,10,0.8,15,1.2l4.8,0.3c0.2,0,0.6,0,0.5,0.3c-0.1,0.8,0.4,0.7,0.8,0.8c0.2,0,0.6,0.2,0.7-0.1
	c0.1-0.4,0.4-0.9-0.2-1.1c-0.1-0.1-0.2-0.2-0.1-0.3c0.1-0.6-0.2-0.6-0.7-0.6l-7-0.4c-4.7-0.3-9.3-0.7-14-1.1
	C147.6,117.3,147.4,117.4,147.5,118L147.5,118z M181.9,132.1c-0.7,0-0.7-0.1-0.4-0.7c0.3-0.6,0.8-1.3,1.2-1.9
	c0.3-0.4,0.5-0.9,0.7-1.4c0.1-0.5,0-1.1-0.5-1.3c-0.5-0.2-0.7,0.4-0.9,0.8c-0.7,1.4-1.8,2.7-2.5,4.1c-0.2,0.5-0.8,0.8-1.3,0.7
	c-0.4,0-0.9-0.1-1.3-0.1c-0.5,0-0.8,0-0.9,0.5c-0.1,0.4,0.2,0.9,0.6,1l0.7,0.2c0.7,0.2,0.8,0.4,0.4,1c-0.6,0.9-1.2,1.8-1.8,2.7
	c-0.3,0.3-0.3,0.8,0,1.1c0,0,0.1,0.1,0.1,0.1c0.3,0.3,0.8,0.3,1.2,0c0.1-0.1,0.1-0.1,0.2-0.2c0.6-0.8,1.1-1.6,1.5-2.5
	c1.1-1.9,1.1-1.9,3.2-2c0.6,0,0.9-0.2,0.9-0.8S182.6,132.1,181.9,132.1L181.9,132.1z M155.3,133.5c0.3,0,0.6-0.2,0.7-0.7
	c0.1-0.4-0.1-0.9-0.5-1c-0.3-0.1-0.6-0.2-0.9-0.2c-1.2-0.1-2.4,0.1-3.5,0.7c-0.2,0.1-0.4,0.2-0.6,0s0-0.4,0-0.6
	c0.1-0.2,0.1-0.5,0.1-0.7c0.1-0.4-0.1-0.8-0.5-0.9c-0.4-0.2-0.9,0-1.1,0.4c-0.2,0.3-0.3,0.6-0.4,0.9c-0.5,1.6-1.2,3.1-2,4.5
	c-0.2,0.4-0.4,0.9-0.6,1.3c-0.3,0.6-0.1,1.2,0.5,1.5c0,0,0,0,0,0c0.7,0.3,1.1,0,1.4-0.5c0.3-0.5,0.7-1.2,1.1-1.8
	C150.7,134.5,152.3,132.9,155.3,133.5L155.3,133.5z M112.8,137.9c0,0.4,0.3,0.7,0.7,0.9c0.4,0.2,0.9,0.1,1.2-0.3
	c0.6-0.7,1-1.6,1.5-2.3c1.5-1.7,3-3.4,5.6-2.7c0.3,0.1,0.7,0,0.8-0.3c0.2-0.3,0.2-0.7,0-1c-0.2-0.3-0.6-0.5-1.1-0.5
	c-1.1-0.2-2.2,0-3.2,0.5c-0.2,0.1-0.5,0.2-0.8,0.3c-0.3,0.1-0.5,0-0.4-0.4c0.1-0.3,0.2-0.7,0.2-1c0.1-0.4-0.2-0.7-0.5-0.8
	c-0.4-0.2-0.8,0-1,0.3c-0.1,0.2-0.3,0.4-0.3,0.7c-0.6,1.8-1.4,3.6-2.3,5.2C113,136.8,112.9,137.4,112.8,137.9L112.8,137.9z
	 M75.3,138.9c0.8,0.1,1.6,0,2.3-0.3c0.7-0.2,1.2-0.9,1-1.6c-0.1-0.3-0.2-0.5-0.4-0.7c-0.5-0.5-1.1-1-1.7-1.5c-0.3-0.3-1-0.5-0.9-1
	s0.8-0.4,1.3-0.5c0.9-0.1,1.9-0.3,2.8-0.5c0.4-0.1,0.8-0.4,0.7-0.9c-0.1-0.5-0.6-0.5-1-0.5c-1.6,0.3-3.2,0.7-4.8,1.2
	c-1.4,0.5-1.5,1.2-0.4,2.1c0.7,0.6,1.4,1.1,2.1,1.6c0.2,0.2,0.5,0.4,0.4,0.7c-0.1,0.3-0.5,0.4-0.7,0.4c-1.7,0.2-3.5,0-5.1-0.7
	l-1.3-0.5c-0.2-0.1-0.3-0.2-0.5,0c-0.1,0.2-0.1,0.4,0.1,0.5c0.3,0.3,0.6,0.6,1,0.7C71.8,138.4,73.6,138.9,75.3,138.9L75.3,138.9z
	 M160.4,162.9c-0.1,1.3-0.7,1.7-2.1,1.3c-0.2,0-0.4-0.2-0.5,0.1c-0.1,0.3,0.2,0.3,0.4,0.4c1.4,0.6,3.1-0.1,3.7-1.6
	c0.1-0.3,0.2-0.6,0.2-1c0-0.3,0-0.6,0-1c0-1.5-1.1-2.7-2.6-2.7c-0.4,0-0.8,0.1-1.2,0.3c-1.2,0.5-1.8,1.8-1.3,3
	c0.4,1.1,1.5,1.7,2.7,1.4C159.9,163.1,160.1,163,160.4,162.9L160.4,162.9z M45.6,131.9c0.2,0.2-0.4,0.9,0.5,0.8
	c4.6-0.6,9.1-1.3,13.7-2.3c0.5-0.1,0.6-0.4,0.5-0.8s-0.5-0.2-0.7-0.1c-3.9,0.8-7.9,1.4-11.9,1.9c-0.3,0-0.8,0.4-0.9-0.3
	c0,0-0.1-0.1-0.2-0.1C45.8,130.8,45.6,131,45.6,131.9z M123.8,164.8c0.6,0,1.3-0.1,1.8-0.4c0.8-0.4,1.2-1.3,0.8-2.1
	c-0.1-0.2-0.3-0.5-0.5-0.6c-0.4-0.3-0.8-0.5-1.2-0.7c-0.5-0.2-1-0.4-1.4-0.7c-0.5-0.3-0.5-0.7-0.2-1.1c0.8-0.6,1.9-0.4,2.5,0.4
	c0.1,0.1,0.2,0.2,0.2,0.4c0,0.1,0,0.2,0.2,0.2c0.2,0,0.2,0,0.2-0.1c0-0.5,0-1,0-1.4c0-0.1-0.2-0.2-0.3-0.1c-0.3,0.4-0.6,0.1-0.9,0
	c-0.7-0.1-1.5-0.1-2.2,0.1c-0.7,0.2-1.2,0.5-1.3,1.3c-0.1,0.7,0.3,1.4,1,1.6c0.6,0.3,1.2,0.6,1.9,0.9c0.6,0.3,0.9,0.5,0.8,1.1
	c-0.1,0.6-0.6,0.8-1.1,0.9c-0.2,0-0.4,0-0.5,0c-0.8-0.2-1.8-0.1-1.9-1.3c0-0.1-0.1-0.2-0.3-0.1c-0.1,0-0.2,0.1-0.2,0.3
	c0,0.4,0,0.8,0,1.2s0.2,0.4,0.3,0.2c0.1-0.2,0.5-0.1,0.7,0C122.7,164.7,123.2,164.8,123.8,164.8z M190.8,122.9
	c0.2,0,0.7,0.2,0.6-0.4c0-0.4,0.2-0.8-0.6-0.9c-0.9,0-1.8-0.2-2.7-0.3c-2.7-0.4-5.4-0.8-8.1-1.1c-0.1,0-0.3-0.1-0.4,0
	c-0.1,0.3-0.1,0.7,0,1c0,0.3,0.2,0.2,0.4,0.3C183.6,122,187.1,122.5,190.8,122.9L190.8,122.9z M100.2,164.4c-0.7,0-0.6-0.4-0.6-0.8
	c0-1.1,0-2.3,0-3.4c0-1.4-0.1-1.5-1.5-1.3c-0.1,0-0.3,0-0.3,0.2s0.1,0.2,0.3,0.2s0.2,0.1,0.3,0.3c0.1,0.8,0,0.8-0.8,0.8H97
	c-0.8,0-1.6,0.5-1.8,1.3c-0.4,0.8-0.2,1.8,0.4,2.4c0.5,0.6,1.4,0.8,2.2,0.6c0.2-0.1,0.5-0.1,0.8,0
	C99.1,164.7,99.7,164.7,100.2,164.4z M22.5,136.7c0,0.9,0,0.9,0.6,0.8c4.6-0.8,9.1-1.8,13.6-3c0.5-0.1,0.5-0.4,0.4-0.7
	c-0.1-0.3-0.5-0.2-0.7-0.1c-4,1-8.1,1.9-12.2,2.7c-0.3,0-0.7,0.3-0.6-0.3c0-0.2-0.2-0.2-0.3-0.2C22.6,135.7,22.5,135.8,22.5,136.7
	L22.5,136.7z M115,164.6c0,1.1-0.5,1.5-1.5,1.3c-0.1,0-0.3-0.1-0.5-0.2c-0.1-0.1-0.2,0-0.3,0.1c0,0,0,0,0,0.1
	c-0.1,0.2,0,0.3,0.2,0.3c0.3,0.1,0.7,0.2,1,0.2c1.5,0.1,2.2-0.5,2.4-2c0.1-1.1,0-2.2,0-3.3c0-0.5,0-0.8-0.6-0.5
	c-0.2,0.1-0.3,0-0.5-0.1c-0.5-0.2-1-0.2-1.5-0.1c-1.2,0.1-2.1,1.2-2,2.4c0,1.2,1,2.1,2.2,2C114.3,164.8,114.7,164.7,115,164.6
	L115,164.6z M165.5,163.6v-0.1c0.4-0.3,0.9-0.6,1.3-1c0.5-0.3,0.8-0.8,1.1-1.3c0.6-0.7,0.4-1.8-0.3-2.3c-0.3-0.2-0.6-0.3-0.9-0.3
	c-0.8-0.2-1.6,0-2.3,0.4c-0.2,0.1-0.8,0.3-0.5,0.7c0.3,0.4,0.5-0.2,0.7-0.3c0.5-0.3,1.1-0.3,1.6,0c0.5,0.4,0.5,1,0.3,1.6
	c-0.2,0.6-0.5,1.1-0.9,1.5c-0.5,0.6-1.1,1.1-1.7,1.5c-0.2,0.1-0.5,0.2-0.4,0.5c0.1,0.3,0.4,0.2,0.6,0.2c1,0.1,2,0.1,3,0
	c0.1,0,0.3-0.1,0.4,0c0.7,0.6,0.6-0.1,0.7-0.5c0-0.2,0-0.5,0-0.7c0-0.1,0.1-0.3-0.1-0.4c-0.2-0.1-0.2,0.1-0.3,0.3s-0.2,0.1-0.4,0.2
	L165.5,163.6z M107.5,164.5c-0.8,0-0.6-0.5-0.6-0.8c0-0.7,0-1.3,0-2c0-0.3,0.1-0.5,0.3-0.6c0.4-0.3,0.9-0.2,1.2,0.1
	c0.1,0.1,0.2,0.3,0.2,0.5c0.1,0.8,0.1,1.6,0,2.4c0,0.2-0.1,0.4,0.1,0.5c0.6,0.1,1.3,0.1,1.8-0.1c-0.6,0-0.6-0.4-0.6-0.8
	c0.1-0.7,0.1-1.4,0-2c0-0.7-0.6-1.3-1.3-1.3c-0.1,0-0.1,0-0.2,0c-0.4,0-0.9,0.1-1.2,0.3c-0.1,0-0.2,0.2-0.4,0c-0.6-0.4-1.4-0.4-2,0
	c0.7,0,0.7,0.3,0.7,0.8s0,1.2,0,1.8s0.2,1.1-0.7,1.2C105.8,164.6,106.6,164.6,107.5,164.5L107.5,164.5z M137.2,164.5
	c-0.8,0.1-0.6-0.4-0.6-0.8c0-0.7,0-1.3,0-2c0-0.7-0.6-1.3-1.3-1.4c-0.1,0-0.2,0-0.2,0c-0.4,0-0.8,0.1-1.2,0.3c-0.1,0-0.2,0.3-0.4,0
	c-0.6-0.5-1.5-0.5-2.1,0c1.1-0.3,0.8,0.3,0.8,0.8c0,0.4,0,1.2,0,1.8s0.3,1.1-0.7,1.2c0.8,0.2,1.6,0.2,2.3,0.1c0.1,0,0.1-0.1,0.1-0.1
	c0,0,0-0.1-0.1-0.1c-0.6,0-0.4-0.4-0.4-0.7c0-0.6,0-1.3,0-1.9c0-0.3,0.1-0.5,0.4-0.7c0.4-0.3,0.9-0.2,1.2,0.2
	c0.1,0.1,0.2,0.3,0.2,0.5c0.1,0.8,0.1,1.6,0,2.4c0,0.2-0.1,0.5,0.2,0.5C136,164.7,136.6,164.6,137.2,164.5L137.2,164.5z
	 M174.4,160.7L174.4,160.7c0-0.4,0-0.9,0-1.3s0.1-0.6-0.2-0.7c-0.4-0.2-0.8-0.1-1.2,0.1c-1.1,1.2-2.1,2.4-3,3.8
	c-0.2,0.3-0.2,0.6,0.3,0.6l2.1,0.1c0.2,0,0.6,0,0.5,0.3s0.3,0.7-0.3,0.7c-0.1,0-0.2,0-0.2,0.2c0,0.2,0.1,0.2,0.3,0.2
	c0.7,0.1,1.5,0.1,2.2,0c0.1,0,0.2,0,0.2-0.1s0-0.2-0.1-0.2c-0.6,0.1-0.4-0.4-0.4-0.7s0.2-0.5,0.6-0.5s0.3-0.1,0.3-0.3s0-0.3-0.2-0.3
	c-0.7,0.2-0.6-0.3-0.6-0.7S174.4,161,174.4,160.7L174.4,160.7z M80.9,164.5c-0.8,0-0.7-0.5-0.7-1c0-1.3,0-2.7,0-4
	c0-0.2-0.1-0.4,0.1-0.5c0.8-0.2,1.6,0.2,1.9,0.9c0,0.1,0,0.2,0.1,0.3c0.1,0,0.2,0,0.2-0.1c0.1-0.5,0.1-1,0-1.5
	c-0.2-0.4-0.4,0.1-0.7,0.1c-1.6-0.1-3.3,0.1-4.9-0.1c-1-0.1-0.7,0.4-0.8,0.8c0,0.1,0,0.3,0,0.4c0,0.2-0.1,0.4,0.2,0.4
	c0.3,0,0.2-0.2,0.2-0.4c0-0.3,0.2-0.5,0.4-0.6c0.4-0.1,0.7-0.2,1.1-0.3c0.4,0,0.5,0.1,0.5,0.5c0,1.5,0,2.9,0,4.4
	c0,0.3,0,0.6-0.5,0.5c-0.1,0-0.2,0-0.2,0.2c0,0.2,0.1,0.1,0.2,0.1C79.2,164.8,80,164.7,80.9,164.5L80.9,164.5z M197.7,127.4h0.1
	c0,0.5,0,1.1,0,1.6c0,0.5,0,1.1,0.1,1.7c0.1,1.7,0.2,1.7,1.9,1.9c0.1,0,0.2,0,0.3,0c0.3-0.2,0-1.3-0.4-1.3s-0.5-0.3-0.6-0.7
	c-0.2-2.4-0.3-4.8-0.2-7.2c0-0.7-0.5-0.5-0.9-0.6c-0.3-0.1-0.3,0.3-0.3,0.6C197.7,124.6,197.7,126,197.7,127.4L197.7,127.4z
	 M79.8,120.4L79.8,120.4l2.5-0.2c2.5-0.2,5-0.4,7.5-0.8c0.6-0.1,0.4-0.5,0.4-0.8c0-0.3-0.3-0.3-0.5-0.2c-1.4,0.1-2.8,0.3-4.3,0.4
	c-2,0.2-4.1,0.3-6.1,0.3c-0.2,0-0.5-0.1-0.6,0.2c-0.2,0.7,0,1.1,0.7,1L79.8,120.4z M95,119.3c2.7-0.2,5.3-0.4,8-0.6
	c0.6,0,0.5-0.4,0.5-0.7s-0.3-0.3-0.6-0.3c-1.7,0.1-3.4,0.3-5,0.4c-1.7,0.2-3.4,0.2-5.1,0c-0.6-0.1-0.5,0.3-0.5,0.7
	c0,0.3,0,0.7,0.5,0.6C93.5,119.3,94.3,119.3,95,119.3z M93.7,164.5c-0.5-0.1-0.6-0.4-0.5-0.8c0-0.4,0-0.9,0-1.3
	c0-1.2-0.9-2.1-2.1-2.2c-0.4,0-0.9,0.1-1.2,0.4c-0.1,0.1-0.2,0.1-0.1,0.3c0,0.1,0.1,0.2,0.2,0.2c0.1,0,0.1-0.1,0.2-0.1
	c0.3-0.2,0.6-0.2,1-0.2c0.3,0,0.6,0.2,0.7,0.6c0.1,0.3,0,0.5-0.4,0.4c-0.6-0.1-1.2,0-1.8,0.3c-0.5,0.2-0.8,0.8-0.8,1.3
	c0,0.6,0.4,1.1,0.9,1.2C91.1,164.7,92.4,164.6,93.7,164.5L93.7,164.5z M146.7,162.8L146.7,162.8l1.4-0.1c0.2,0,0.3,0,0.3-0.3
	c-0.1-1.3-1.2-2.3-2.5-2.1c-1.1,0.1-2,0.9-2.1,2c-0.2,1.1,0.6,2.1,1.7,2.3c0.7,0.2,1.5,0.2,2.2-0.1c0.2-0.1,0.5-0.1,0.5-0.4
	c-0.1-0.3-0.4-0.1-0.6,0c-1.1,0.4-1.9,0.1-2.2-0.9c-0.1-0.3-0.1-0.5,0.3-0.5C146.1,162.8,146.4,162.8,146.7,162.8L146.7,162.8z
	 M153,159.2c0,1.6,0,3.1,0,4.7c0,0.4-0.2,0.4-0.5,0.4s-0.2,0-0.2,0.2s0.1,0.1,0.2,0.2c0.8,0.1,1.6,0.1,2.4,0c0.1,0,0.2,0,0.2-0.1
	c0-0.1-0.1-0.2-0.2-0.2c-0.6,0.1-0.5-0.3-0.5-0.6c0-1.6,0-3.2,0-4.8c0-0.1,0.2-0.5-0.2-0.4s-1.1,0.3-1.7,0.5c-0.1,0-0.1,0.2-0.1,0.3
	c0,0.1,0.1,0.1,0.3,0.1L153,159.2z M83.8,164.4c0.8,0.2,1.7,0.2,2.5,0.1c0.1,0,0.1-0.1,0.1-0.1c0-0.2-0.1-0.1-0.2-0.1
	c-0.1,0-0.5,0.1-0.5-0.3c0-0.7,0-1.4,0.1-2c0.1-0.5,0.4-0.9,0.9-1.1c0,0.3,0,0.7,0.3,0.8c0.3,0.2,0.6,0.2,0.8,0
	c0.2-0.2,0.3-0.4,0.3-0.7c0-0.3-0.3-0.6-0.6-0.6c-0.7-0.1-1.4,0.2-1.8,0.7c-0.2-0.6-0.9-0.9-1.5-0.7c-0.1,0.1-0.2,0.1-0.3,0.2
	c0.5,0.2,0.5,0.2,0.5,0.8c0,0.6,0,1.5,0,2.3C84.5,164.1,84.4,164.4,83.8,164.4L83.8,164.4z M140.9,160.3c-1.3-0.2-2.4,0.7-2.6,2
	c-0.1,0.4,0,0.8,0.1,1.1c0.7,1.3,2.3,1.8,3.6,1.1c0.2-0.1,0.6-0.1,0.4-0.5s-0.4,0-0.5,0.1c-0.6,0.4-1.4,0.2-1.8-0.4
	c-0.1-0.2-0.2-0.4-0.2-0.7c-0.1-0.6,0-1.1,0.1-1.7c0.1-0.5,0.6-0.7,1-0.7c0.2,0,0.4,0,0.2,0.3c-0.2,0.2-0.1,0.6,0.1,0.8
	c0.1,0.1,0.1,0.1,0.2,0.1c0.3,0.2,0.8,0,0.9-0.3c0,0,0,0,0,0c0.2-0.3,0-0.7-0.3-0.9c0,0,0,0,0,0
	C141.7,160.4,141.3,160.3,140.9,160.3L140.9,160.3z M61.7,121.9c0,0.4,0,0.7,0.5,0.7c2-0.2,4-0.5,5.9-0.8c0.5-0.1,0.5-0.5,0.4-0.8
	c-0.1-0.4-0.4-0.2-0.6-0.2c-1.8,0.4-3.7,0.5-5.5,0.5C62.1,121.2,61.5,121.2,61.7,121.9z M103.8,164.4c-0.7,0-0.6-0.4-0.6-0.8
	c0-0.9,0-1.8,0-2.7c0-0.2,0.1-0.4-0.1-0.5c-0.6-0.1-1.2-0.1-1.8,0.2c0.7,0,0.7,0.4,0.6,0.9s0,1.2,0,1.8s0.3,1.1-0.6,1.2
	C102.1,164.7,103,164.7,103.8,164.4z M130.3,164.4c-0.6-0.3-0.6-0.3-0.6-0.9c0-0.9,0-1.8,0-2.7c0-0.1,0-0.3-0.1-0.4
	c-0.6-0.1-1.3,0-1.8,0.3c0.7-0.1,0.7,0.3,0.6,0.7c0,0.4,0,1.2,0,1.8s0.3,1.1-0.6,1.3C128.6,164.7,129.5,164.7,130.3,164.4
	L130.3,164.4z M102.6,159.9c0.4-0.1,0.7-0.2,0.7-0.6c0-0.5-0.4-0.6-0.8-0.6s-0.7,0.2-0.7,0.6C101.8,159.7,102.2,159.9,102.6,159.9
	L102.6,159.9z M129.1,158.6c-0.4,0-0.7,0.1-0.7,0.6c0,0.5,0.3,0.6,0.7,0.6c0.4,0,0.8-0.1,0.8-0.6
	C129.8,158.8,129.5,158.7,129.1,158.6L129.1,158.6z"/>
<path class="st2" d="M36.3,103.7l0.1,9.3c0,0.2,0,0.3,0,0.5c0,1.3,0,1.4,1.3,1.2l10.7-2.1c0.1,0,0.2-0.1,0.3-0.1
	c0.4,0,0.8-0.1,1.2-0.2h0.3c1-0.1,1-0.1,1-1.1c0-4,0.1-7.9,0.3-11.8c0-0.4-0.1-0.6-0.5-0.4c-0.8,0.2-1.6,0.3-2.3,0.5
	c-0.4,0.1-0.5,0.1-0.5-0.4c0-1.2,0-1.2,1.1-1.5c4.3-1.1,8.6-1.8,13-2.2c0.4,0,0.7,0,0.6,0.5c0,0,0,0.1,0,0.1c0,1,0,1-1,1.1l-1.4,0.2
	c-1,0.1-1,0.1-0.8,1.2v1.1c0,3.7,0.1,7.5,0.2,11.2c0,5.1-0.1,10.1-0.3,15.2c0,0.9,0,0.9,0.9,0.7c0.7-0.1,1.3-0.3,2.1-0.4
	c0.3,0,0.4,0,0.4,0.3c0,0,0,0.1,0,0.1c0,1.1,0,1.1-1.1,1.3c-4.3,0.9-8.6,1.6-13,2.2c-0.5,0-0.6,0-0.6-0.5c0-1,0-1,1-1.2
	c0.4,0,0.8-0.1,1.3-0.2c0.5-0.2,1.2,0.3,1.2-0.8c-0.1-4.1-0.2-8.3-0.3-12.4c0-0.6-0.2-0.6-0.7-0.6c-4.5,0.7-8.9,1.6-13.3,2.6
	c-0.7,0.2-0.9,0.5-0.7,1.1v0.9c0,2.6-0.1,5.2-0.1,7.7c0,1.2,0,2.4-0.1,3.6c0,0.4,0,0.6,0.5,0.5c0.9-0.3,1.9-0.5,2.8-0.7
	c0,0,0,0.1,0,0.1c0,1.5,0,1.5-1.3,1.9c-4.2,1.1-8.5,2-12.8,2.8c-0.5,0.1-0.5,0-0.5-0.4c0-0.8,0-1.3,1-1.4c0.4,0,0.9,0,1.3-0.2
	c1.3-0.2,1.2-0.2,1.2-1.5c-0.3-7.7-0.4-15.5-0.1-23.2c0-1.6,0-3.2,0-4.9c-0.9,0.2-1.8,0.4-2.7,0.8c-0.4,0.1-0.6,0.1-0.6-0.4
	c0-1.2,0-1.2,1.1-1.5c4.3-1.3,8.7-2.2,13.1-2.8c0.4,0,0.5,0,0.5,0.4c0,1.2,0,1.2-1.1,1.3l-1.4,0.2c-0.9,0.2-0.9,0.2-0.8,1.1
	C36.2,103,36.2,103.4,36.3,103.7z"/>
<path class="st2" d="M220.1,130c1.5-1.1,2.1-3.1,1.3-4.9c-0.4-1.1-1.1-2-1.9-2.8c-1.5-1.4-3.1-2.6-4.9-3.7c-2.3-1.5-4.7-2.9-6.9-4.6
	c-1.6-1.1-3-2.5-4.1-4.1c-1.2-1.6-1.7-3.7-1.4-5.7c0.3-2.5,2.2-4.5,4.6-5.1c2.5-0.7,5.1-0.9,7.6-0.5c3.9,0.5,7.7,1.8,11.1,3.7
	c0.1-0.5-0.2-0.9,0-1.3h0.1c2,0.4,2.1,0.4,2.2,2.5c0.1,2.1,0.2,4.2,0.1,6.3c0,0.6-0.2,0.7-0.8,0.6c-1.7-0.3-1.8-0.3-1.6-2
	c0.2-1.5-0.4-2.9-1.5-3.8c-2.7-2.5-6.2-3.9-9.9-3.9c-1,0-2,0.2-2.8,0.7c-0.5,0.2-0.9,0.5-1.1,0.9l0,0c-0.1,0-0.1,0-0.2,0.1
	c-0.2,0.3-0.4,0.6-0.4,1c-0.2,0.8-0.1,1.8,0.4,2.5c0.6,1,1.4,1.9,2.3,2.5c2.1,1.5,4.2,3,6.4,4.3c2.4,1.5,4.6,3.2,6.7,5.1
	c2,1.9,3.3,4.3,3.6,7c0.7,3.7-1.7,7.4-5.4,8.1c-0.2,0-0.4,0.1-0.6,0.1c-3.7,0.5-7.5,0.2-11.1-0.9c-3.1-0.8-6.1-1.9-8.9-3.3l-0.5-0.2
	c0,0.4,0,0.7,0.1,1.1s-0.1,0.5-0.4,0.5l0,0c0-0.2-0.2-0.1-0.3-0.1l-0.7-0.1c-0.7,0-0.9-0.3-0.9-1c-0.1-2.8-0.2-5.6-0.2-8.4
	c0-0.4,0.1-0.4,0.5-0.4c1.9,0.2,2,0.2,1.8,2c-0.1,1.3,0.4,2.7,1.5,3.5c2.9,2.7,6.6,4.5,10.6,5.1c1.6,0.3,3.2,0.2,4.7-0.5
	C219.5,130.3,219.9,130.2,220.1,130z"/>
<path class="st3" d="M103.6,107.6c-0.1,2.4-0.2,4.9-0.3,7.3c0,0.3,0.1,0.4,0.4,0.3c0.5-0.1,1.1-0.1,1.6-0.2c0.2,0,0.6-0.3,0.5,0.2
	c0,0.5,0.4,1-0.4,1.1c-1,0.1-2.1,0.2-3.1,0.3c-2.3,0.2-4.5,0.3-6.8,0.3c-1,0-1.2-0.3-0.7-1.3h1.3c1.2,0,1.3,0,1.2-1.2
	c-0.2-5.5-0.3-11.1-0.1-16.7c0-1.3,0-2.5,0.1-3.8c0-0.5-0.2-0.6-0.6-0.5c-0.4,0.1-0.9,0.1-1.3,0.2c-0.2,0-0.7,0.3-0.7-0.2
	c0-0.5-0.3-1,0.6-1.1c1.2-0.1,2.4-0.2,3.7-0.4c3.5-0.4,7-0.6,10.5-0.6c1.5,0,3,0.2,4.4,0.5c1.6,0.3,3,0.9,4.3,1.9l1,1.2
	c0.4,0.7,0.6,1.5,0.7,2.3c0.2,1.7-0.6,3.4-2,4.5c-1.5,1.2-3.3,1.9-5.2,2.2c-0.3,0-0.7,0.1-1,0.3c0.6,0.2,1.2,0.4,1.9,0.4l0.9,0.3
	l0.6,0.3c2.3,0.9,3.9,3.1,4.1,5.6c0.2,1.1,0.2,2.3,0.2,3.4c0,0.4,0.1,0.5,0.5,0.5c0.4-0.1,0.7,0,1-0.1c0.3-0.1,0.6-0.2,0.7,0
	c0.1,0.3,0.1,0.7,0,1.1c0,0.2-0.2,0.2-0.4,0.2c-2.8,0.2-5.6,0.3-8.4,0.2c-0.4,0-0.6-0.1-0.5-0.6c0.2-2,0.1-4-0.2-6
	c-0.4-2.6-2.7-4.5-5.3-4.3c-0.7,0-1.4,0-2.1,0.1c-1,0.1-1,0.1-1,1.1L103.6,107.6z M111.2,102.1L111.2,102.1c0.9-0.7,1.5-1.8,1.6-2.9
	c0.7-2.7-0.8-5.4-3.5-6.1c-0.4-0.1-0.8-0.2-1.1-0.2c-1.4-0.1-2.7-0.1-4.1,0.1c-0.9,0.1-0.9,0.1-0.7,1.2v1.1c0,2.7,0.1,5.3,0.1,8
	c0,0.4,0.2,0.5,0.5,0.4c1.3,0,2.7-0.1,4-0.3c0.7-0.1,1.4-0.3,2.1-0.6c0.4-0.1,0.7-0.3,1-0.6L111.2,102.1z"/>
<path class="st3" d="M151.4,115c1.2,0.2,1.2,0.2,1.2-1.1c-0.2-6.8-0.3-13.6,0-20.3c0-0.5-0.1-0.7-0.6-0.7c-0.5,0-0.9,0-1.3,0
	c-0.4,0-0.8-0.3-0.8-0.7c0-0.2,0-0.3,0.1-0.4c0.1-0.2,0.3-0.1,0.5-0.1c3.2,0,6.4,0.1,9.6,0.4c3.4,0.2,6.8,0.6,10.2,1.1
	c0.3,0,0.4,0,0.3-0.3c-0.1-0.5,0.2-0.5,0.5-0.4c1,0.1,1,0.1,1,1.1c0,0.8,0.1,1.6,0.1,2.4v1.3c0,0.5-0.1,1.1-0.1,1.6
	s-0.1,0.5-0.5,0.4h-0.2c-1-0.1-1.1-0.1-0.9-1.1c0.3-1.3-0.4-2.5-1.6-2.9c-1.7-0.7-3.5-1.2-5.3-1.3c-1.3-0.2-2.8-0.2-4.2-0.4
	c-0.6-0.1-0.8,0.1-0.7,0.7c0,0.2,0,0.4,0,0.5v1.3c0,2,0,3.9,0.1,5.9c0,0.3,0.1,0.4,0.4,0.4c2.5,0,4.9,0.1,7.4,0.4
	c0.4,0,0.4-0.2,0.3-0.4c-0.1-0.4,0.1-0.5,0.5-0.5c0.9,0.1,0.9,0,1,1c0.1,1.5,0.1,3.1,0,4.6c0,0.5-0.2,0.7-0.7,0.6
	c-1-0.1-1-0.1-0.9-1.1c0-1.6,0-1.7-1.6-2.2c-2-0.5-4-0.8-6.1-0.8c-0.3,0-0.4,0.1-0.4,0.4c0,0.3,0,0.5,0,0.8v1.3
	c-0.1,2.8-0.2,5.7-0.2,8.5c0,0.3,0,0.5,0.4,0.5c3,0.4,6,0.5,9,0.1c0.3,0,0.5-0.1,0.7-0.3c0.5,0.1,0.8-0.2,1.2-0.3l0.3-0.1
	c0.6-0.1,1-0.7,0.9-1.3c0,0,0,0,0-0.1c0-0.3,0-0.6,0-0.9c0-0.3-0.2-0.7,0.1-0.8c0.5-0.1,1-0.1,1.4,0.1c0.2,0.1,0.1,0.3,0.1,0.4
	c0,2,0,4-0.2,5.9c0,0.3,0,0.8-0.5,0.5c-0.5-0.2-1.2,0.4-1.1-0.6c0-0.5-0.2-0.4-0.5-0.4c-2.5-0.2-5-0.3-7.6-0.5l-12.5-1
	c-0.6,0-0.7-0.6-0.3-1.4L151.4,115z"/>
<path class="st3" d="M69.4,115c-0.2,1-0.3,2-0.3,3c0,0.3,0.1,0.4,0.4,0.3s0.5-0.1,0.7-0.1c0.8-0.2,1,0,0.8,0.9
	c0,0.1-0.1,0.2-0.2,0.3c-2.2,0.5-4.3,0.7-6.5,0.8c0,0-0.1,0-0.2-0.1c0.1-0.5-0.3-1.3,0.8-1.2c0.4,0.1,0.9-0.1,1-0.6c0,0,0-0.1,0-0.1
	c2.7-8.2,5.8-16.2,9.4-24c0.1-0.3,0.4-0.6,0.8-0.6c1.3-0.1,2.6-0.3,3.9-0.4c0.4-0.1,0.8,0.1,0.9,0.5c3.6,6.9,6.7,14,9.4,21.3
	c0.4,1,0.4,1,1.5,0.9c0.9-0.1,0.8-0.1,0.8,0.7c0,0.5-0.3,0.5-0.5,0.5c-2.3,0.3-4.6,0.6-6.9,0.7l-3.4,0.2c-0.3,0-0.5,0.2-0.8-0.1
	c0-0.6-0.1-1.3,0.8-1.2c0.3,0,0.6,0,1,0s0.6-0.2,0.4-0.6c-0.4-1.3-0.9-2.6-1.3-3.9c-0.1-0.5-0.5-0.8-1-0.7c0,0-0.1,0-0.1,0
	c-3.3,0.3-6.7,0.7-10,1.2c-0.8,0.1-1.3,0.3-1.3,1.2C69.5,114.3,69.4,114.6,69.4,115z M79.3,110c0.6,0,1.1-0.1,1.6-0.2
	c-1.7-4-3.4-7.9-5.4-11.7l-0.8,2l-0.8,2c-1.3,2.9-2.4,6-3.5,9.1l7.3-0.9C78.2,110.2,78.7,110.2,79.3,110L79.3,110z"/>
<path class="st3" d="M136.8,111.1l0.3,0.7c0.8-1.4,1.5-2.9,2.1-4.4c1.6-3.7,2.9-7.6,3.6-11.6c0.1-0.9,0.2-1.8,0.3-2.7
	c0-0.4-0.1-0.6-0.5-0.5c-0.4,0-0.5,0-0.8,0c-0.9,0.1-0.8,0.1-0.8-0.8c0-0.4,0.1-0.5,0.5-0.5c2.2,0,4.5,0.1,6.7,0.3
	c0.8,0.1,0.4,0.7,0.4,1c0.1,0.3-0.3,0.3-0.5,0.3c-1-0.1-1-0.1-1.3,0.8c-2.5,7.6-5.6,14.9-9.5,21.9c-0.2,0.4-0.6,0.7-1,0.6
	c-1.1,0-2.2,0-3.3,0c-0.4,0-0.8-0.2-0.9-0.6c-3.4-7.2-6.5-14.7-9.2-22.2c-0.4-1-0.4-1-1.4-0.9c-0.3,0-0.6,0.2-0.7,0
	c-0.1-0.4-0.1-0.7,0-1.1c0-0.2,0.2-0.2,0.4-0.2c3.5-0.2,7-0.2,10.5,0c0.8,0,0.5,0.5,0.5,0.9c0.1,0.4-0.3,0.4-0.6,0.4s-0.8,0-1.2,0
	c-0.4,0-0.5,0.1-0.4,0.5c1.2,3.4,2.3,6.9,3.7,10.3c1,2.4,1.9,4.9,3.1,7.2L136.8,111.1z"/>
<path class="st3" d="M191.8,106.1c1.7-1.9,2.9-4.2,3.5-6.7c0-0.1,0-0.2,0.1-0.3c0.4-1.7,0.4-1.7-1.3-1.8c-0.8,0-0.6-0.5-0.6-1
	s0.4-0.4,0.7-0.3c2.1,0.2,4.2,0.5,6.2,1c0.5,0.2,0.7,0.8,0.5,1.3c-0.1,0.2-0.3,0-0.5,0c-1-0.2-1-0.2-1.5,0.7
	c-0.3,0.4-0.5,0.9-0.5,1.5c0,0,0,0.2,0,0.2c-1.2,0.7-1.5,2.1-2.3,3c-0.8,1-1.6,2.1-2.4,3.1c-0.8,1-1.5,1.8-2.3,2.7
	c-0.2,0.2-0.3,0.5-0.3,0.9c0.1,2.7,0.1,5.5,0,8.2c0,0.4,0,0.5,0.5,0.6c0.6,0,1.3,0.1,1.9,0.1c0.6,0,0.3,0.6,0.4,1
	c0.1,0.3-0.2,0.3-0.5,0.3c-3.1-0.3-6.1-0.7-9.2-1.2c-0.5,0-1,0-1.5-0.1c-0.3-0.1-0.6-0.1-0.6-0.5c0.1-0.4-0.3-0.8,0.3-1l1.2,0.3
	c1.3,0.3,1.3,0.3,1.2-0.9c-0.1-2.5-0.1-5,0-7.5c0-0.3-0.1-0.6-0.2-0.8c-2.8-4.3-5.4-8.7-7.7-13.2c-0.1-0.3-0.4-0.5-0.7-0.5
	c-0.4,0-0.8-0.1-1.2,0s-0.5-0.1-0.5-0.5c0-0.8,0-0.8,0.8-0.8c3.5,0.2,7.1,0.6,10.6,1.3c0.5,0.1,0.8,0.7,0.6,1.2c0,0,0,0.1,0,0.1
	c-0.1,0.2-0.3,0.1-0.4,0l-2-0.3c0.1,0.4,0.2,0.8,0.4,1.1c1.7,3.7,3.7,7.2,5.9,10.6c0.1,0.3,0.3,0.2,0.4,0c0.1-0.2,0.4-0.5,0.6-0.7
	l0.1-0.2l0,0c0.1,0,0.3-0.1,0.2-0.3l0,0C191.8,106.3,191.8,106.3,191.8,106.1L191.8,106.1c0.1,0,0.1,0,0.1-0.1L191.8,106.1z"/>
<path class="st1" d="M101.8,134.5c0.1,0.9-0.4,1.8-1.3,2.1c-1.4,0.6-3,0.8-4.5,0.7c-0.8-0.1-1.5,0.3-1.9,1c-1.1,1.6-2,3.2-2.8,4.9
	l-0.8,1.5c-0.1,0.1-0.1,0.3-0.3,0.2c-0.8-0.2-1.3-1.1-1-1.9c0,0,0-0.1,0-0.1c0.9-2,2-4,3.1-5.9c0.3-0.5,0.3-0.9-0.1-1.3
	c-0.3-0.3-0.4-0.9-0.2-1.3c0.1-0.2,0.3-0.4,0.5-0.4c0.2,0,0.2,0.3,0.2,0.5c0,0.2,0.1,0.5,0.4,0.6c0.3,0.1,0.4-0.2,0.5-0.4
	c0.6-1,1.1-2,1.6-3.1c0.2-0.8,1.1-1.3,2-1.1c0,0,0,0,0.1,0c0.5,0.1,1,0.1,1.5,0.1C101,131,101.6,132.6,101.8,134.5z M98.1,133
	c-0.9-0.2-1.4,0.5-1.9,1.1c-0.2,0.3-0.7,0.7-0.5,1c0.2,0.4,0.8,0.2,1.2,0.1c1.1-0.1,2.2-0.6,2.9-1.5c0.3-0.4,0.3-0.6-0.3-0.7
	C99.1,133,98.6,133,98.1,133z"/>
<path class="st1" d="M134.2,134.2c0,1.3-0.3,2.7-0.8,3.9c-0.1,0.3-0.3,0.7-0.7,0.6c-0.4,0-0.8-0.3-0.9-0.6c-0.2-0.4-0.2-0.9,0-1.3
	c0.2-0.7,0.4-1.5,0.6-2.2c0-0.2,0.1-0.4-0.1-0.5s-0.4,0.1-0.5,0.3c-0.4,0.6-0.7,1.2-1,1.8c-0.3,0.6-0.6,1.1-1,1.7
	c-0.6,0.8-0.9,0.9-1.6,0.4c-0.9-0.6-1.1-1.2-0.7-2c0.3-0.5,0.7-1,1.1-1.5c0.2-0.2,0.3-0.5,0.2-0.8c-0.1-0.6-0.5-0.7-1-0.3
	c-1.4,1.2-2.5,2.7-3.4,4.3c-0.6,1.2-1.1,1.2-1.9,0.1c-0.5-0.5-0.5-1.3-0.2-1.9c1-1.7,1.9-3.6,2.7-5.4c0.1-0.2,0.2-0.5,0.6-0.5
	c0.3,0,0.6,0.2,0.7,0.5c0.2,0.5,0.4,0.7,1,0.3c0.4-0.3,1-0.2,1.3,0.2c0,0,0.1,0.1,0.1,0.1c0.4,0.5,0.7,1,1,1.5
	c0.2,0.4,0.4,0.4,0.7,0.1c0.4-0.5,0.9-0.9,1.3-1.3c1.1-0.9,1.9-0.6,2.3,0.8C134.2,133.1,134.3,133.6,134.2,134.2z"/>
<path class="st1" d="M220.1,130c-0.3,0.2-0.6,0.4-0.9,0.4c0.3-1.6-0.1-3.3-1.2-4.6c-1.2-1.5-2.7-2.8-4.3-3.8
	c-2.2-1.5-4.5-2.9-6.7-4.3c-1.9-1.2-3.6-2.6-5.1-4.3c-1.8-1.9-2.6-4.5-2.3-7.1c0.2-1.2,0.8-2.3,1.6-3.1c0.2,0.1,0.1,0.2,0.1,0.3
	c-1,2.3-0.8,4.9,0.5,7c1.1,1.9,2.7,3.4,4.4,4.7c2.4,1.8,5.1,3.3,7.6,5c1.6,1,3.1,2.2,4.5,3.5c1.3,1.2,2.1,2.8,2.1,4.6
	C220.5,128.8,220.3,129.4,220.1,130z"/>
<path class="st1" d="M165.2,132.5c-0.6-0.1-1.2,0.1-1.6,0.5c-0.5,0.3-1.1,0.5-1.7,0.5h-0.5c-1,0.1-1.1,0.2-0.5,1
	c0.8,1,1.4,2.1,2.1,3.1c0.2,0.4,0.6,0.9,0.1,1.2c-0.5,0.3-0.7-0.3-0.9-0.6c-0.6-0.8-1.2-1.6-1.8-2.3c-0.9-1.1-1-1.1-1.7,0.1
	c-0.7,1.2-1.3,2.4-2.1,3.6c-0.3,0.4-0.4,1.1-1.2,0.8c-0.6-0.4-0.9-1.2-0.7-1.9c0.1-0.1,0.1-0.2,0.2-0.4c1.4-2,2.4-4.2,3.8-6.2
	c0.1-0.1,0.1-0.2,0.2-0.3c0.6-1.9,1.9-3.5,2.4-5.5c0.2-0.7,0.5-0.7,0.9-0.1c0.6,0.6,0.7,1.6,0.3,2.3c-0.3,0.7-0.6,1.4-0.9,2.1
	c-0.3,0.7-0.1,0.8,0.6,0.7c0.5-0.1,0.9-0.3,1.3-0.5c0.5-0.3,1-0.4,1.5-0.4c0.8-0.1,1.6,0.5,1.7,1.3c0.2,0.7,0,1-0.7,1L165.2,132.5z"
	/>
<path class="st1" d="M119,94.8l-1-1.2c0.3-0.2,0.7-0.3,1-0.2c0.4,0.1,0.9,0.1,1.3,0c0.4-0.1,0.8,0.1,0.9,0.5c0,0,0,0,0,0.1
	c2.3,6.8,5,13.3,8,19.8c0.4,0.9,0.9,1.8,1.3,2.7c0.1,0.4,0.5,0.6,0.9,0.6c0.9,0,1.9,0,2.8,0c0.4,0,0.6,0,0.3,0.5
	c-0.2,0.5-0.7,0.8-1.2,0.7c-1-0.1-2.1-0.1-3.1,0c-0.4,0-0.8-0.2-1-0.6c-3.4-7.3-6.5-14.7-9.1-22.3C120,94.9,119.7,94.7,119,94.8z"/>
<path class="st1" d="M135.8,136.9c0-0.6,0.3-1.2,0.7-1.6c1.4-1.5,3-2.9,4.6-4.1c0.8-0.7,1.9-0.7,2.7,0c0.9,0.6,1.4,1.7,1.2,2.8
	c-0.1,0.4-0.3,0.8-0.6,1.1c-0.7,0.9-1,2.1-0.7,3.2c0,0.4,0.3,0.8-0.2,1.1c-0.5,0.2-1,0.1-1.3-0.3c-0.4-0.4-0.8-0.9-0.9-1.5
	c-0.1-0.4-0.3-0.4-0.6-0.2c-0.7,0.5-1.4,0.9-2.1,1.3c-1,0.4-2.1,0-2.6-1C135.9,137.5,135.8,137.2,135.8,136.9z M138.8,136.2
	c0.2-0.1,0.4-0.1,0.5-0.2c1.1-0.6,2.1-1.4,2.9-2.4c0.1-0.2,0.4-0.4,0.2-0.6c-0.2-0.2-0.4,0-0.6,0c-1.2,0.6-2.2,1.4-3.1,2.3
	c-0.1,0.1-0.2,0.3-0.2,0.4C138.4,136,138.5,136.2,138.8,136.2L138.8,136.2z"/>
<path class="st1" d="M80.7,136.6c0-0.8,0.3-1.7,0.8-2.4c0.8-1.2,1.7-2.4,2.5-3.6c0.3-0.4,0.7-0.9,1.3-0.6c0.7,0.3,0.5,1,0.3,1.5
	c-0.3,0.8-0.7,1.5-1.2,2.2c-0.5,0.8-1,1.6-1.5,2.3c-0.1,0.2-0.3,0.4-0.1,0.6c0.2,0.2,0.4,0,0.6,0c2.1-1,3.9-2.4,5.3-4.2
	c0.3-0.4,0.6-0.9,0.9-1.3s0.6-0.5,1,0c0.3,0.3,0.4,0.8,0.3,1.2c-0.1,0.4-0.2,0.8-0.5,1.2c-1.5,2.2-3.5,4-6,5
	c-0.4,0.1-0.7,0.2-1.1,0.3c-1.1,0.3-2.3-0.5-2.5-1.6C80.7,137.1,80.7,136.8,80.7,136.6z"/>
<path class="st1" d="M183.6,117.9l-1.2-0.3c0-1.9,0-3.9,0-5.8c0-0.3-0.1-0.6-0.2-0.8c-2.8-4.3-5.4-8.7-7.7-13.2
	c-0.1-0.3-0.4-0.5-0.7-0.5c-0.5,0-1,0-1.4,0c0-0.4,0-0.9,0-1.3c0.4,0.1,0.8,0.1,1.2,0.1c1.6-0.3,2.3,0.6,2.9,1.9
	c2.1,4,4.4,8,6.9,11.7c0.2,0.3,0.3,0.7,0.3,1.1C183.4,113.2,183.5,115.6,183.6,117.9z"/>
<path class="st1" d="M27.1,133.1c-0.4,0.1-0.8,0.2-1.3,0.2c-0.2-6.5-0.3-13.1-0.2-19.6c0-2.4,0.1-4.7,0.2-7.1c0-0.6-0.1-0.7-0.7-0.5
	c-0.9,0.3-1.8,0.5-2.7,0.8c-0.1-0.3-0.1-0.6,0-1c0-0.7,0.3-1,0.9-1c0.2,0,0.2,0,0.3,0.8c0.9-0.3,1.8-0.5,2.7-0.8
	c0.6-0.2,0.7-0.1,0.7,0.5c-0.2,4.3-0.3,8.6-0.3,12.8C26.8,123.1,26.9,128.1,27.1,133.1z"/>
<path class="st1" d="M169.8,137c1.1-0.1,2.2-0.3,3.3-0.6c0.3-0.1,0.7-0.2,0.9,0.1c0.2,0.3,0.1,0.7-0.2,0.9c-1.2,1.2-2.9,1.8-4.6,1.4
	c-1.4-0.7-2.5-2-2.8-3.6c0-0.4,0.2-0.9,0.5-1.2c1.2-1.4,2.7-2.4,4.3-3.1c0.9-0.4,1.8-0.1,2.4,0.7c0.5,0.6,0.5,1.5,0,2.2
	c-0.7,1.1-1.7,1.9-2.9,2.3c-0.7,0.3-1.6,0.2-2.2-0.2c-0.2-0.1-0.3-0.3-0.5-0.1c-0.2,0.3,0,0.5,0.1,0.7
	C168.5,136.9,169.2,137.1,169.8,137z M169.3,134.1c1,0,1.9-0.3,2.7-1c0.2-0.2,0.4-0.4,0.2-0.6c-0.2-0.2-0.5-0.1-0.7,0
	C170.9,133.2,170.1,133.7,169.3,134.1L169.3,134.1z"/>
<path class="st1" d="M106.9,137c1.1-0.1,2.2-0.3,3.2-0.6c0.3-0.1,0.7-0.3,0.9,0.1c0.2,0.4,0,0.7-0.3,1c-1.1,1.1-2.7,1.7-4.3,1.4
	c-1.6-0.6-2.7-2.1-3-3.7c0-0.5,0.2-0.9,0.6-1.2c1.1-1.3,2.5-2.2,4.1-2.9c0.9-0.4,1.9-0.2,2.5,0.6c0.5,0.7,0.5,1.7-0.1,2.3
	c-0.7,1-1.7,1.8-2.9,2.2c-0.7,0.3-1.6,0.2-2.2-0.2c-0.2-0.1-0.3-0.3-0.5-0.1c-0.1,0.2-0.1,0.5,0.1,0.6
	C105.5,136.9,106.2,137.1,106.9,137z M106.3,134.1c1,0,1.9-0.3,2.7-1c0.1-0.2,0.4-0.4,0.2-0.6c-0.2-0.2-0.5-0.2-0.7,0
	C107.9,133.2,107.1,133.7,106.3,134.1L106.3,134.1z"/>
<path class="st1" d="M103.6,107.6v-1.2c0.9-0.1,1.9-0.1,2.8,0c2.4,0.3,4.3,2.2,4.5,4.7c0.3,1.8,0.3,3.6,0.1,5.5
	c0,0.5,0.1,0.7,0.7,0.7c2.3,0.1,4.6,0,6.8-0.1c0.3,0,0.7-0.2,0.7,0.4c0,0.6,0,0.7-0.6,0.7c-2.8,0.2-5.5,0.3-8.3,0.2
	c-0.5,0-0.5-0.2-0.5-0.6c0.1-1.5,0.1-3.1,0-4.6C109.5,109.4,107.4,107.4,103.6,107.6z"/>
<path class="st1" d="M201.2,130l0.7,0.1c0,0.1,0.2,0.1,0.3,0.1l0,0c1.3,0.7,2.8,1.4,4.2,1.8c3.9,1.6,8.1,2.4,12.3,2.5
	c2,0.1,4.1-0.4,5.9-1.3c0.1-0.1,0.2-0.1,0.3,0c-0.6,0.6-1.2,1-2,1.3c-1.8,0.8-3.8,1.1-5.7,1c-5.7-0.2-11.3-1.6-16.4-4.1
	C201.8,131.1,201.2,130.5,201.2,130z"/>
<path class="st1" d="M147.6,117.9c-0.1-0.5,0-0.6,0.6-0.6c4.7,0.5,9.3,0.8,14,1.1l7,0.4c0.4,0,0.8,0,0.7,0.6c0,0.1,0,0.3,0.1,0.3
	c0.6,0.3,0.2,0.8,0.2,1.1c-0.1,0.4-0.5,0.2-0.7,0.1c-0.5,0-1,0-0.8-0.8c0-0.3-0.3-0.3-0.5-0.3l-4.8-0.3c-5-0.3-10-0.7-15-1.2
	C147.7,118.6,147.4,118.5,147.6,117.9z"/>
<path class="st1" d="M181.9,132.1c0.6,0,0.9,0.3,1,1c0.1,0.7-0.3,0.8-0.9,0.8c-2.1,0.1-2.1,0.2-3.2,2c-0.5,0.9-1,1.7-1.5,2.5
	c-0.2,0.4-0.7,0.6-1.1,0.4c-0.1,0-0.2-0.1-0.2-0.2c-0.4-0.2-0.5-0.7-0.3-1c0-0.1,0.1-0.1,0.1-0.1c0.6-0.9,1.2-1.8,1.8-2.7
	c0.4-0.6,0.3-0.8-0.4-1l-0.7-0.2c-0.4-0.1-0.7-0.6-0.6-1c0.1-0.5,0.5-0.5,0.9-0.5c0.4,0,0.9,0,1.3,0.1c0.6,0.1,1.1-0.2,1.3-0.7
	c0.7-1.4,1.8-2.7,2.5-4.1c0.2-0.4,0.3-1,0.9-0.8c0.5,0.2,0.6,0.8,0.5,1.3c-0.1,0.5-0.4,1-0.7,1.4c-0.4,0.6-0.8,1.3-1.2,1.9
	C181.1,132,181.2,132.1,181.9,132.1z"/>
<path class="st1" d="M155.3,133.5c-3-0.6-4.6,1.1-6.1,3c-0.4,0.6-0.7,1.2-1.1,1.8c-0.4,0.6-0.8,0.9-1.4,0.5
	c-0.6-0.3-0.8-0.9-0.5-1.5c0,0,0,0,0,0c0.1-0.5,0.3-0.9,0.6-1.3c0.8-1.4,1.5-2.9,2-4.5c0.1-0.3,0.3-0.6,0.4-0.9
	c0.2-0.4,0.7-0.6,1.1-0.4c0.4,0.1,0.6,0.5,0.5,0.9c0,0.2-0.1,0.5-0.1,0.7c0,0.2-0.2,0.4,0,0.6c0.2,0.2,0.4,0,0.6,0
	c1.1-0.6,2.3-0.8,3.5-0.7c0.3,0,0.6,0.1,0.9,0.2c0.4,0.2,0.6,0.6,0.5,1C155.9,133.3,155.6,133.5,155.3,133.5z"/>
<path class="st1" d="M112.9,137.9c0-0.6,0.2-1.1,0.5-1.6c0.9-1.7,1.7-3.4,2.3-5.2c0.1-0.2,0.2-0.5,0.3-0.7c0.2-0.3,0.6-0.5,1-0.3
	c0.4,0.1,0.6,0.5,0.5,0.8c0,0.3-0.1,0.7-0.2,1c-0.1,0.4,0.1,0.5,0.4,0.4c0.3-0.1,0.5-0.1,0.8-0.3c1-0.5,2.1-0.7,3.2-0.5
	c0.4,0,0.8,0.2,1.1,0.5c0.2,0.3,0.2,0.7,0,1c-0.2,0.3-0.5,0.4-0.8,0.3c-2.7-0.6-4.2,1-5.6,2.7c-0.6,0.7-0.9,1.6-1.5,2.3
	c-0.3,0.4-0.8,0.5-1.2,0.3C113.1,138.6,112.8,138.3,112.9,137.9z"/>
<path class="st1" d="M209.5,103.4c0-0.4,0.1-0.7,0.4-1c0.1,0,0.2,0.1,0.2-0.1l0,0c0,0.1,0.1,0.1,0.2,0.1c3.6-1.2,6.9-0.2,10,1.6
	c1.3,0.8,2.6,1.8,3.6,3c0.2,0.2,0.4,0.5,0.3,0.9c0,0.9,0,1.7-0.1,2.6c0,0.5,0.1,0.7,0.6,0.9c0.6,0.2,0.8,0.9,0.6,1.4
	c0,0.1-0.1,0.1-0.2,0.1h-0.3c-1.9-0.3-2-0.3-1.8-2.1c0.2-1.5-0.4-2.9-1.6-3.8c-2.8-2.6-6.5-4-10.3-3.8
	C210.6,103.3,210.1,103.3,209.5,103.4z"/>
<path class="st1" d="M151.4,115l-1.3-0.1c-0.1-5.2-0.2-10.4,0-15.6c0-1.1,0-2.1,0.1-3.2c0-0.6-0.2-0.8-0.7-0.7c-0.6,0.1-0.8,0-1.2,0
	c-0.4,0-0.8-0.3-0.8-0.7c0-0.2,0-0.3,0.1-0.4c0.1-0.2,0.3-0.2,0.5-0.2c1,0.1,1.9,0.1,2.9,0.1c0.5,0,0.4,0.4,0.4,0.7
	c-0.1,3.2-0.2,6.4-0.2,9.6C151.2,107.9,151.3,111.5,151.4,115z"/>
<path class="st1" d="M96.1,115.6h-1.3c-0.2-6.4-0.2-12.8,0-19.2c0-0.5-0.1-0.7-0.6-0.6c-0.5,0.1-1.1,0.1-1.6,0.2
	c-0.5,0.1-0.4,0-0.4-0.4c0-1,0.3-1.2,1.3-0.9c0.6,0.1,1.1,0,1.7-0.1c0.9-0.1,1-0.1,0.9,0.8C95.8,102.1,95.8,108.8,96.1,115.6z"/>
<path class="st1" d="M36.4,119.2v-1h0.3c4.1-1,8.3-1.7,12.4-2.4c0.6-0.1,0.8,0,0.8,0.7c0,4,0.1,7.9,0.3,11.9
	c-0.4,0.1-0.8,0.2-1.3,0.2c-0.1-3.7-0.2-7.3-0.2-11c0-0.6-0.2-0.6-0.6-0.5c-3.6,0.6-7.1,1.2-10.7,2L36.4,119.2z"/>
<path class="st1" d="M75.3,138.9c-1.8,0-3.6-0.5-5.1-1.3c-0.4-0.2-0.7-0.4-1-0.7c-0.1-0.1-0.2-0.3-0.1-0.5c0.1-0.2,0.3-0.1,0.5,0
	l1.3,0.5c1.6,0.6,3.4,0.8,5.1,0.6c0.3,0,0.6,0,0.7-0.4s-0.2-0.5-0.4-0.7c-0.7-0.5-1.4-1.1-2.1-1.6c-1.2-1-1.1-1.6,0.4-2.1
	c1.6-0.5,3.2-0.9,4.8-1.2c0.4-0.1,0.9-0.1,1,0.5s-0.3,0.7-0.7,0.9c-0.9,0.2-1.9,0.4-2.8,0.5c-0.5,0.1-1.1,0-1.3,0.5
	c-0.2,0.5,0.5,0.7,0.9,1c0.6,0.4,1.2,0.9,1.7,1.5c0.6,0.5,0.6,1.3,0.1,1.9c-0.2,0.2-0.4,0.4-0.7,0.4C76.9,138.9,76.1,139,75.3,138.9
	z"/>
<path class="st1" d="M158.8,96.1v-1.3c2.3,0.1,4.5,0.4,6.8,0.9c1.2,0.3,2.4,0.8,3.4,1.6c0.3,0.2,0.5,0.5,0.5,0.9c0,0.4,0,0.9,0,1.3
	c0,0.3-0.2,0.7,0.3,1c0.3,0.1,0.1,0.7,0,1s-0.4,0.2-0.6,0.2c-1,0-1-0.1-1-1c0-0.1,0-0.2,0-0.3c0.3-1.3-0.4-2.1-1.5-2.7
	c-1.9-0.9-4-1.4-6.1-1.5C159.9,96.1,159.3,96.1,158.8,96.1z"/>
<path class="st1" d="M50,112.2c-0.4,0.1-0.8,0.2-1.2,0.2c0-3.5,0.1-7,0.3-10.5c0-0.8,0-0.8-0.8-0.6c-0.8,0.2-1.3,0.3-1.9,0.5
	s-0.7,0-0.6-0.5c0-0.2,0-0.3,0-0.5c0-0.4,0.4-0.8,0.8-0.8c0.1,0,0.1,0,0.2,0c0.1,0,0.2,0.1,0.2,0.2c0,0.6,0.3,0.4,0.7,0.4
	c0.7-0.2,1.4-0.3,2.1-0.5c0.4-0.1,0.6,0,0.6,0.5c-0.1,1.8-0.1,3.7-0.1,5.5C50,108.1,50,110.2,50,112.2z"/>
<path class="st1" d="M136.8,111.1l-0.4-0.8c1-2.1,1.8-4.3,2.5-6.5c0.9-2.5,1.4-5.2,1.7-7.8c0.1-1,0-1-0.9-1h-0.4c-0.8,0-1-0.2-0.8-1
	c0-0.3,0.2-0.3,0.4-0.3h2.7c0.5,0,0.3,0.4,0.3,0.7c-0.1,2.1-0.5,4.2-1.1,6.2C139.7,104.2,138.4,107.7,136.8,111.1z"/>
<path class="st1" d="M64.9,118.8c-1.1-0.1-0.6,0.7-0.8,1.2c-0.6,0-0.3-0.3-0.3-0.6c0.7-2.1,1.4-4.2,2.2-6.3
	c2.1-5.6,4.4-11.1,6.8-16.6c0.2-0.4,0.3-0.7,0.8-0.5c0,0.2-0.1,0.5-0.2,0.7c-3.1,7-6,14.1-8.4,21.3L64.9,118.8z"/>
<path class="st1" d="M69.4,115c0-0.4,0.1-0.7,0.2-1.1l0.9-0.1c3.1-0.5,6.2-0.8,9.3-1.1c0.3-0.1,0.7,0.1,0.8,0.4c0,0,0,0,0,0
	c0.4,1.2,0.8,2.4,1.3,3.5c-0.9,0-0.8,0.6-0.8,1.2c-0.4,0.1-0.4-0.2-0.5-0.5c-0.4-1-0.7-2-1.1-3c-0.1-0.4-0.4-0.6-0.8-0.5
	c0,0,0,0,0,0C75.4,114.2,72.4,114.5,69.4,115z"/>
<path class="st4" d="M160.4,162.9c-0.3,0.1-0.6,0.2-0.9,0.3c-1.1,0.3-2.3-0.3-2.7-1.4c-0.4-1.2,0.2-2.5,1.3-3
	c1.3-0.7,2.9-0.2,3.6,1.2c0.2,0.4,0.3,0.9,0.3,1.3c0,0.3,0,0.6,0,1c0,1.6-1.3,2.8-2.9,2.8c-0.3,0-0.7-0.1-1-0.2
	c-0.2,0-0.5,0-0.4-0.4c0.1-0.4,0.3-0.2,0.5-0.1C159.7,164.6,160.3,164.3,160.4,162.9z M160.6,161.3c0-0.6,0-1.2-0.2-1.7
	c-0.1-0.4-0.5-0.7-0.9-0.7c-0.4,0-0.8,0.3-0.9,0.7c-0.4,0.8-0.4,1.7,0,2.5c0.3,0.6,0.9,0.8,1.5,0.6c0.1,0,0.2-0.1,0.3-0.2
	C160.8,162.1,160.5,161.6,160.6,161.3L160.6,161.3z"/>
<path class="st1" d="M45.6,131.9c0-0.9,0.2-1.1,0.9-0.9c0.1,0,0.2,0,0.2,0.1c0,0.7,0.6,0.4,0.9,0.3c4-0.5,8-1.1,11.9-1.9
	c0.2,0,0.6-0.4,0.7,0.1c0.1,0.5,0,0.7-0.5,0.8c-4.5,0.9-9.1,1.7-13.7,2.3C45.2,132.7,45.8,132.1,45.6,131.9z"/>
<path class="st4" d="M123.8,164.8c-0.5,0-1.1-0.1-1.6-0.2c-0.2,0-0.4-0.2-0.7,0s-0.3,0-0.3-0.2c0-0.2,0-0.8,0-1.2
	c0-0.1,0-0.3,0.2-0.3s0.2,0,0.3,0.1c0.1,1.2,1.1,1.1,1.9,1.3c0.2,0,0.4,0,0.5,0c0.5-0.1,1-0.3,1.1-0.9c0.1-0.6-0.3-0.9-0.8-1.1
	s-1.2-0.6-1.9-0.9c-0.7-0.2-1.1-0.9-1-1.6c0.1-0.8,0.7-1.1,1.3-1.3c0.7-0.2,1.5-0.2,2.2-0.1c0.3,0,0.6,0.3,0.9,0
	c0-0.1,0.3,0,0.3,0.1c0,0.5,0,0.9,0,1.4c0,0-0.1,0.1-0.2,0.1c-0.1,0-0.2-0.1-0.2-0.2c-0.4-0.9-1.4-1.3-2.3-0.9
	c-0.1,0.1-0.2,0.1-0.4,0.2c-0.4,0.3-0.3,0.7,0.2,1.1c0.4,0.3,0.9,0.5,1.4,0.7c0.4,0.2,0.9,0.4,1.2,0.7c0.7,0.5,0.8,1.6,0.3,2.3
	c-0.2,0.2-0.4,0.4-0.6,0.5C125,164.6,124.4,164.8,123.8,164.8z"/>
<path class="st1" d="M190.8,122.9c-3.6-0.3-7.2-0.8-10.7-1.5c-0.2,0-0.4,0-0.4-0.3c-0.1-0.3-0.1-0.7,0-1c0-0.1,0.3,0,0.4,0
	c2.7,0.4,5.4,0.7,8.1,1.1c0.9,0.2,1.8,0.3,2.7,0.3c0.7,0,0.5,0.5,0.6,0.9C191.4,123.1,191,122.8,190.8,122.9z"/>
<path class="st4" d="M100.2,164.4c-0.5,0.2-1.1,0.3-1.7,0.1c-0.2-0.1-0.5-0.1-0.8,0c-0.8,0.3-1.6,0.1-2.2-0.6
	c-0.6-0.7-0.8-1.6-0.4-2.4c0.3-0.8,1-1.3,1.8-1.3h0.5c0.8,0,0.9,0,0.8-0.8c0-0.2,0-0.3-0.3-0.3c-0.3,0-0.3,0-0.3-0.2
	c0-0.2,0.2-0.1,0.3-0.2c1.4-0.2,1.5-0.1,1.5,1.3c0,1.1,0,2.3,0,3.4C99.6,164,99.5,164.4,100.2,164.4z M98.2,162.5L98.2,162.5
	c0-0.3,0-0.7,0-1s0.2-0.6-0.2-0.7c-0.3-0.1-0.7-0.1-1,0.2c-0.7,0.9-0.7,2.2,0,3.1c0.3,0.2,0.7,0.2,1,0.1c0.4-0.1,0.2-0.5,0.2-0.7
	C98.2,163.2,98.2,162.8,98.2,162.5L98.2,162.5z"/>
<path class="st1" d="M22.5,136.7c0-0.9,0.1-1,0.9-1c0.2,0,0.4,0,0.3,0.2c0,0.6,0.3,0.4,0.6,0.3c4.1-0.7,8.2-1.6,12.2-2.7
	c0.2,0,0.5-0.4,0.7,0.1c0.1,0.5,0,0.6-0.4,0.7c-4.5,1.2-9.1,2.2-13.6,3C22.5,137.6,22.5,137.6,22.5,136.7z"/>
<path class="st4" d="M115,164.6c-0.3,0.1-0.7,0.2-1.1,0.1c-1.2,0-2.1-0.9-2.2-2c-0.1-1.2,0.8-2.2,2-2.4c0.5-0.1,1,0,1.5,0.1
	c0.2,0,0.3,0.2,0.5,0.1c0.6-0.3,0.6,0,0.6,0.5c0,1.1,0.1,2.2,0,3.3c-0.2,1.5-0.9,2.1-2.4,2c-0.3,0-0.7-0.1-1-0.2
	c-0.1,0-0.3-0.1-0.2-0.3c0-0.1,0.1-0.2,0.3-0.2c0,0,0,0,0.1,0c0.1,0,0.3,0.1,0.5,0.2C114.5,166.1,115,165.7,115,164.6z M115,162.5
	L115,162.5c0-0.4,0-0.7,0-1.1s0.1-0.6-0.2-0.7c-0.3-0.2-0.7-0.1-1,0.1c-0.7,1-0.7,2.3,0,3.2c0.3,0.2,0.7,0.3,1,0.2
	c0.4-0.1,0.2-0.5,0.3-0.7S115,162.9,115,162.5L115,162.5z"/>
<path class="st4" d="M165.5,163.6l2.1-0.1c0.1,0,0.3,0,0.4-0.2c0.1-0.2,0-0.4,0.3-0.3c0.3,0.1,0.1,0.3,0.1,0.4c0,0.2,0,0.5,0,0.7
	c-0.1,0.3,0.1,1.1-0.7,0.5c-0.1,0-0.3,0-0.4,0c-1,0.1-2,0.1-3,0c-0.2,0-0.5,0.1-0.6-0.2c-0.1-0.3,0.2-0.4,0.4-0.5
	c0.6-0.5,1.2-1,1.7-1.5c0.4-0.4,0.7-1,0.9-1.5c0.1-0.6,0.2-1.2-0.3-1.6c-0.5-0.3-1.1-0.3-1.6,0c-0.2,0.1-0.4,0.7-0.7,0.3
	c-0.3-0.5,0.3-0.5,0.5-0.7c0.7-0.4,1.5-0.6,2.3-0.4c0.9,0.1,1.6,0.9,1.5,1.8c0,0.3-0.1,0.6-0.3,0.9c-0.3,0.5-0.7,0.9-1.1,1.3
	c-0.4,0.3-0.9,0.7-1.3,1L165.5,163.6z"/>
<path class="st4" d="M107.4,164.5c-0.8,0.2-1.7,0.2-2.6,0c0.9-0.1,0.7-0.7,0.7-1.2s0-1.2,0-1.8s0-0.9-0.7-0.8c0.6-0.4,1.4-0.4,2,0
	c0.2,0.2,0.3,0,0.4,0c0.4-0.2,0.8-0.3,1.2-0.3c0.7-0.1,1.4,0.4,1.5,1.2c0,0.1,0,0.1,0,0.2c0.1,0.7,0.1,1.4,0,2c0,0.4,0,0.7,0.6,0.8
	c-0.6,0.2-1.2,0.3-1.8,0.1c-0.2,0-0.1-0.3-0.1-0.5c0.1-0.8,0.1-1.6,0-2.4c0-0.5-0.4-0.8-0.8-0.8c-0.2,0-0.4,0.1-0.5,0.2
	c-0.2,0.1-0.4,0.3-0.3,0.6c0,0.7,0,1.3,0,2C106.9,164,106.8,164.5,107.4,164.5z"/>
<path class="st4" d="M137.2,164.4c-0.6,0.2-1.2,0.3-1.8,0.2c-0.3,0-0.2-0.3-0.2-0.5c0.1-0.8,0.1-1.6,0-2.4c0-0.5-0.4-0.8-0.8-0.9
	c-0.2,0-0.4,0.1-0.5,0.2c-0.3,0.1-0.4,0.4-0.4,0.7c0,0.6,0,1.3,0,1.9c0,0.3-0.2,0.7,0.4,0.7c0,0,0.1,0.1,0.1,0.1
	c0,0.1-0.1,0.1-0.1,0.1c-0.8,0.1-1.6,0-2.3-0.1c0.9-0.1,0.7-0.7,0.7-1.2c0-0.5,0-1.2,0-1.8s0.3-1-0.8-0.8c0.6-0.5,1.5-0.5,2.1,0
	c0.2,0.2,0.3,0,0.4,0c0.4-0.2,0.8-0.3,1.2-0.3c0.7-0.1,1.4,0.4,1.5,1.1c0,0.1,0,0.2,0,0.2c0,0.7,0,1.3,0,2
	C136.6,164,136.4,164.5,137.2,164.4z"/>
<path class="st4" d="M174.4,160.6c0,0.4,0,0.8,0,1.2c0,0.4-0.1,0.9,0.6,0.7c0.2,0,0.2,0.1,0.2,0.3c0,0.2,0,0.3-0.3,0.3
	s-0.6,0.1-0.6,0.5c0.1,0.5-0.2,0.7,0.4,0.7c0.1,0,0.2,0.1,0.1,0.2c0,0.1-0.1,0.1-0.2,0.1c-0.7,0.1-1.5,0.1-2.2,0
	c-0.1,0-0.2,0-0.3-0.2c0-0.2,0.1-0.2,0.2-0.2c0.7,0,0.3-0.5,0.3-0.7c0.1-0.3-0.2-0.3-0.5-0.3l-2.1-0.1c-0.5,0-0.5-0.3-0.3-0.6
	c0.9-1.3,1.9-2.6,3-3.8c0.3-0.3,0.8-0.3,1.2-0.1c0.3,0.1,0.2,0.5,0.2,0.7C174.4,159.6,174.4,160.2,174.4,160.6L174.4,160.6z
	 M172.9,159.6c-0.8,1-1.6,2-2.3,3.1c0.8,0,1.3,0,2,0c0.3,0,0.3-0.2,0.3-0.4C172.9,161.4,172.9,160.6,172.9,159.6L172.9,159.6z"/>
<path class="st4" d="M80.9,164.4c-0.9,0.2-1.8,0.3-2.7,0.2c-0.1,0-0.2,0-0.2-0.1c0-0.1,0.1-0.2,0.2-0.2c0.4,0.1,0.5-0.1,0.5-0.5
	c0-1.5,0-2.9,0-4.4c0-0.4-0.1-0.5-0.5-0.5c-0.4,0-0.8,0.1-1.1,0.3c-0.3,0.1-0.5,0.2-0.4,0.6c0,0.1,0,0.3-0.2,0.4
	c-0.2,0-0.2-0.2-0.2-0.4c0-0.1,0-0.3,0-0.4c0.1-0.4-0.3-0.9,0.8-0.8c1.6,0.2,3.3,0,4.9,0.1c0.3,0,0.5-0.5,0.7-0.1
	c0.1,0.5,0.1,1,0,1.5c0,0.1-0.1,0.1-0.2,0.1c-0.1,0-0.1-0.2-0.1-0.3c-0.4-0.7-1.2-1.1-1.9-0.9c-0.2,0.1-0.1,0.3-0.1,0.5
	c0,1.3,0,2.7,0,4C80.2,164,80.1,164.5,80.9,164.4z"/>
<path class="st1" d="M197.7,127.4c0-1.3,0-2.8,0-4.2c0-0.2-0.2-0.7,0.3-0.6c0.5,0.1,0.9-0.1,0.9,0.6c0,2.4,0.1,4.8,0.2,7.2
	c0,0.4,0,0.7,0.6,0.7c0.6,0,0.6,1.2,0.4,1.3c-0.1,0-0.2,0-0.3,0c-1.7-0.1-1.7-0.1-1.9-1.9c0-0.6-0.1-1.1-0.1-1.7
	S197.8,127.8,197.7,127.4L197.7,127.4z"/>
<path class="st1" d="M158.9,106.4v-1.3c1.6,0.1,3.2,0.3,4.8,0.6l0.5,0.1c1.6,0.5,1.6,0.5,1.6,2.2c0,0.3-0.2,0.8,0.3,1.1
	c0.2,0.1,0.1,0.7,0,1c-0.1,0.3-0.4,0.1-0.7,0.1c-0.9,0-0.9,0-0.9-1c0.1-1.7,0.1-1.7-1.6-2.3C161.6,106.7,160.2,106.5,158.9,106.4z"
	/>
<path class="st1" d="M79.8,120.4h-0.5c-0.7,0-1-0.3-0.7-1c0.1-0.3,0.4-0.2,0.6-0.2c2,0,4.1-0.1,6.1-0.3c1.4-0.1,2.9-0.3,4.3-0.4
	c0.2,0,0.5-0.2,0.5,0.2c0,0.5,0.2,0.7-0.4,0.8c-2.5,0.3-5,0.6-7.5,0.8L79.8,120.4L79.8,120.4z"/>
<path class="st1" d="M95,119.3c-0.8,0-1.5,0-2.3,0c-0.6,0-0.5-0.3-0.5-0.6c0-0.3-0.1-0.8,0.5-0.7c1.7,0.2,3.4,0.2,5.1,0
	c1.7-0.1,3.4-0.3,5-0.4c0.3,0,0.6-0.2,0.6,0.3s0.1,0.7-0.5,0.7C100.4,119,97.7,119.1,95,119.3z"/>
<path class="st4" d="M93.8,164.5c-1.3,0.1-2.7,0.1-4,0c-0.6-0.1-0.9-0.6-0.9-1.2c-0.1-0.6,0.3-1.1,0.8-1.3c0.6-0.3,1.2-0.4,1.8-0.3
	c0.4,0.1,0.5-0.1,0.4-0.4c-0.1-0.3-0.3-0.6-0.7-0.6c-0.3,0-0.7,0-1,0.2c-0.1,0.1-0.2,0.1-0.3,0c0,0,0-0.1-0.1-0.1
	c-0.1-0.2,0-0.2,0.1-0.3c1-0.7,2.3-0.4,2.9,0.6c0.2,0.4,0.4,0.8,0.4,1.2c0,0.4,0,0.9,0,1.3C93.2,164.1,93.2,164.4,93.8,164.5z
	 M91.9,163.3c0-1.2,0-1.2-0.6-1.2c-0.5,0-1,0.4-1.1,0.9c0,0.1,0,0.2,0,0.2c0,0.5,0.4,1,0.9,1c0,0,0,0,0.1,0
	C92,164.2,92,163.7,91.9,163.3z"/>
<path class="st4" d="M146.8,162.8c-0.4,0-0.7,0-1.1,0c-0.4,0-0.4,0.1-0.3,0.5c0.3,1,1.1,1.3,2.2,0.9c0.2-0.1,0.5-0.4,0.6,0
	c0.1,0.4-0.3,0.3-0.5,0.4c-0.7,0.2-1.4,0.3-2.2,0.1c-1.1-0.2-1.8-1.2-1.7-2.3c0.2-1.3,1.3-2.2,2.6-2c1.1,0.1,2,1,2,2.1
	c0,0.3-0.1,0.2-0.3,0.3L146.8,162.8L146.8,162.8z M146.1,162.4c0.3-0.3,0.9,0.4,0.9-0.5c0-0.8-0.3-1.3-0.8-1.3s-1,0.7-1,1.4
	S145.9,162.2,146.1,162.4L146.1,162.4z"/>
<path class="st1" d="M191.2,106.8c-0.2,0.3-0.5,0.4-0.6,0.7c-0.1,0.3-0.3,0.3-0.4,0c1.4-1.9,2.4-4.1,2.8-6.4c0-0.2,0-0.5,0.1-0.7
	s0-0.6-0.5-0.6c-0.5,0-0.6,0-0.9-0.1c-0.4,0-0.8-0.3-0.8-0.7c0-0.1,0-0.3,0.1-0.4c0.1-0.2,0.2-0.2,0.4-0.1c0.8,0.1,1.6,0.2,2.4,0.2
	c0.5,0,0.6,0.3,0.5,0.7c-0.2,1.6-0.8,3.2-1.5,4.7c-0.3,0.6-0.7,1.1-1,1.7c0,0.1-0.3,0.2,0,0.4l0,0c-0.2-0.1-0.1,0-0.1,0.1l0,0
	c-0.1,0-0.1,0-0.1,0.1l0,0c-0.1,0-0.3,0.1-0.2,0.3l0,0C191.2,106.6,191.2,106.7,191.2,106.8z"/>
<path class="st3" d="M153.1,159.2l-0.4,0.1c-0.1,0-0.2,0.1-0.3-0.1c0-0.2,0-0.2,0.1-0.3c0.6-0.2,1.1-0.3,1.7-0.5
	c0.6-0.1,0.2,0.3,0.2,0.4c0,1.6,0,3.2,0,4.8c0,0.3-0.1,0.7,0.5,0.6c0.1,0,0.2,0,0.2,0.2s-0.1,0.1-0.2,0.1c-0.8,0.1-1.6,0.1-2.4,0
	c-0.1,0-0.2,0-0.2-0.2c0-0.2,0.1-0.2,0.2-0.2c0.1,0,0.5,0,0.5-0.4C153.1,162.4,153.1,160.9,153.1,159.2z"/>
<path class="st4" d="M83.8,164.4c0.6,0,0.6-0.3,0.6-0.8c0-0.8,0-1.5,0-2.3c0-0.8,0-0.6-0.5-0.8c0.5-0.4,1.2-0.4,1.7,0.1
	c0.1,0.1,0.2,0.2,0.2,0.3c0.4-0.5,1.1-0.8,1.8-0.7c0.3,0,0.6,0.3,0.6,0.6c0.1,0.3,0,0.6-0.3,0.7c-0.3,0.2-0.6,0.2-0.8,0
	c-0.3-0.2-0.3-0.5-0.3-0.8c-0.5,0.2-0.8,0.6-0.9,1.1c-0.1,0.7-0.1,1.4-0.1,2c0,0.4,0.3,0.3,0.5,0.3c0.2,0,0.2,0,0.2,0.1
	c0,0.1-0.1,0.1-0.1,0.1C85.5,164.7,84.7,164.6,83.8,164.4z"/>
<path class="st4" d="M140.9,160.3c0.4,0,0.9,0.1,1.3,0.3c0.3,0.2,0.5,0.6,0.3,0.9c0,0,0,0,0,0c-0.2,0.4-0.6,0.5-0.9,0.4c0,0,0,0,0,0
	c-0.3-0.1-0.5-0.3-0.4-0.6c0-0.1,0.1-0.2,0.1-0.2c0.2-0.3,0-0.3-0.2-0.3c-0.5,0-0.9,0.3-1,0.7c-0.2,0.5-0.2,1.1-0.1,1.7
	c0,0.7,0.6,1.3,1.4,1.3c0.2,0,0.5-0.1,0.7-0.2c0.2-0.1,0.4-0.4,0.5-0.1s-0.2,0.4-0.4,0.5c-1.3,0.7-2.9,0.2-3.6-1.1
	c-0.5-1.2,0.1-2.5,1.3-3C140.1,160.3,140.5,160.3,140.9,160.3z"/>
<path class="st1" d="M61.7,121.9c-0.2-0.8,0.4-0.7,0.8-0.7c1.9,0.1,3.7-0.1,5.5-0.5c0.2,0,0.5-0.3,0.6,0.2s0.1,0.7-0.4,0.8
	c-2,0.3-4,0.7-5.9,0.8C61.7,122.6,61.7,122.3,61.7,121.9z"/>
<path class="st4" d="M103.8,164.4c-0.8,0.2-1.7,0.2-2.6,0c0.9-0.1,0.6-0.7,0.6-1.2c0-0.5,0-1.2,0-1.8s0-0.9-0.6-0.9
	c0.6-0.2,1.2-0.3,1.8-0.2c0.2,0,0.1,0.3,0.1,0.5c0,0.9,0,1.8,0,2.7C103.2,164,103.1,164.5,103.8,164.4z"/>
<path class="st4" d="M130.3,164.5c-0.8,0.2-1.7,0.2-2.5,0c0.9-0.1,0.6-0.8,0.6-1.3c0-0.5,0-1.2,0-1.8s0-0.8-0.6-0.7
	c0.6-0.3,1.2-0.4,1.8-0.3c0.2,0.1,0.1,0.3,0.1,0.4c0,0.9,0,1.8,0,2.7C129.7,164.2,129.7,164.2,130.3,164.5z"/>
<path class="st4" d="M102.6,159.9c-0.4,0-0.8-0.1-0.8-0.6s0.3-0.6,0.7-0.6c0.4,0,0.7,0.1,0.8,0.6S102.9,159.8,102.6,159.9z"/>
<path class="st4" d="M129.1,158.7c0.4,0,0.8,0.2,0.8,0.6c0,0.5-0.4,0.6-0.8,0.6c-0.4,0-0.7-0.1-0.7-0.6S128.7,158.7,129.1,158.7z"/>
<path class="st1" d="M170,115c-0.4,0.1-0.8,0.4-1.2,0.3c0-0.1,0-0.3,0-0.4c0-0.7,0.4-1,1-0.7C170.1,114.4,169.9,114.8,170,115z"/>
<path class="st1" d="M36.3,103.7c-0.1-0.3-0.1-0.7,0-1c0.9-0.1,1.1,0,0.9,0.6C37.1,104,36.6,103.6,36.3,103.7z"/>
<path class="st1" d="M114.3,104.8l-0.9-0.3c0.9-0.3,1.6-0.8,2.5-1.1l0,0C115.4,104.1,114.8,104.3,114.3,104.8z"/>
<path class="st1" d="M59.4,99.6v-1.1c0.9-0.1,0.9-0.1,0.9,0.7C60.2,99.9,59.7,99.4,59.4,99.6z"/>
<path class="st1" d="M115.9,103.5L115.9,103.5L115.9,103.5L115.9,103.5L115.9,103.5z"/>
<path class="st0" d="M50.2,128.3c-0.1-4-0.3-7.9-0.3-11.9c0-0.7-0.3-0.8-0.8-0.7c-4.2,0.7-8.3,1.5-12.4,2.4h-0.3
	c-0.1-0.6,0-0.9,0.7-1.1c4.4-1,8.9-1.9,13.3-2.6c0.5-0.1,0.7,0,0.7,0.6c0.1,4.1,0.2,8.3,0.3,12.4C51.4,128.6,50.7,128.1,50.2,128.3z
	"/>
<path class="st0" d="M202.2,130.2c-0.1,0-0.2,0-0.3-0.1S202.1,130,202.2,130.2z"/>
<path class="st0" d="M210.1,102.3c0.1,0.2-0.1,0.1-0.2,0.1S210,102.3,210.1,102.3z"/>
<path class="st0" d="M110.1,102.8c-0.6,0.3-1.4,0.6-2.1,0.6c-1.3,0.2-2.7,0.3-4,0.3c-0.3,0-0.5,0-0.5-0.4c0-2.7,0-5.3-0.1-8
	c1-0.1,1.9,0,2.9,0.1c2.3,0.3,4.1,2.2,4.2,4.6C110.5,100.9,110.4,101.9,110.1,102.8z"/>
<path class="st0" d="M103.4,94.2c-0.2-1-0.2-1,0.7-1.2c1.3-0.2,2.7-0.2,4.1-0.1c2.8,0.1,4.9,2.4,4.8,5.2c0,0.4-0.1,0.8-0.2,1.1
	c-0.1,1.1-0.7,2.2-1.6,2.9c-0.2-0.1,0-0.3,0-0.4c0.4-1,0.5-2,0.4-3c0-2-1.4-3.8-3.3-4.3C106.8,94,105.1,93.9,103.4,94.2z"/>
<path class="st1" d="M103.4,94.2c1.7-0.3,3.4-0.2,5,0.3c1.9,0.5,3.3,2.3,3.3,4.3c0.1,1-0.1,2.1-0.4,3c0,0.1-0.2,0.2,0,0.4l0,0
	c-0.2-0.1-0.1,0-0.1,0.1c-0.3,0.3-0.6,0.5-1,0.6c0.3-0.9,0.4-1.9,0.3-2.8c-0.1-2.4-1.8-4.3-4.2-4.6c-0.9-0.2-1.9-0.2-2.9-0.1
	L103.4,94.2z"/>
<path class="st0" d="M111.1,102.2c0-0.1,0-0.2,0.1-0.1L111.1,102.2z"/>
<path class="st0" d="M77.6,110.2l-7.3,0.9c1.1-3.1,2.2-6.1,3.5-9.1C75.2,104.7,76.4,107.5,77.6,110.2z"/>
<path class="st0" d="M81.8,116.7c-0.4-1.2-0.9-2.3-1.3-3.5c-0.1-0.3-0.4-0.5-0.7-0.5c0,0,0,0,0,0c-3.1,0.3-6.3,0.6-9.3,1.1l-0.9,0.1
	c0-0.8,0.5-1.1,1.3-1.2c3.3-0.5,6.7-0.8,10-1.2c0.5-0.1,0.9,0.2,1.1,0.6c0,0,0,0,0,0.1c0.5,1.3,0.9,2.6,1.3,3.9
	c0.2,0.5,0.1,0.7-0.4,0.6C82.2,116.7,82.1,116.7,81.8,116.7z"/>
<path class="st0" d="M74.6,100l0.8-2c2,3.9,3.8,7.8,5.4,11.7c-0.5,0.1-1.1,0.2-1.6,0.2C77.8,106.6,76.3,103.3,74.6,100z"/>
<path class="st1" d="M74.6,100c1.7,3.3,3.2,6.6,4.6,10c-0.5,0.1-1.1,0.2-1.6,0.2c-1.2-2.8-2.4-5.5-3.8-8.2L74.6,100z"/>
<path class="st0" d="M191.4,106.6c-0.1-0.2,0-0.2,0.2-0.3C191.6,106.5,191.4,106.6,191.4,106.6z"/>
<path class="st0" d="M191.7,106.2c0-0.1,0-0.2,0.1-0.1S191.8,106.2,191.7,106.2z"/>
<path class="st0" d="M191.5,106.3c0-0.1,0-0.2,0.1-0.1S191.7,106.4,191.5,106.3z"/>
<path class="st0" d="M191.2,106.8c0-0.1,0-0.2,0.1-0.2L191.2,106.8z"/>
<path class="st0" d="M98.1,133c0.5,0,1,0.1,1.4,0.2c0.5,0.1,0.5,0.3,0.3,0.7c-0.7,0.9-1.8,1.4-2.9,1.5c-0.4,0-0.9,0.3-1.2-0.1
	c-0.2-0.4,0.2-0.7,0.5-1C96.7,133.5,97.2,132.7,98.1,133z"/>
<path class="st0" d="M138.8,136.2c-0.3,0-0.4-0.2-0.3-0.4c0.1-0.2,0.1-0.3,0.2-0.4c0.9-1,1.9-1.7,3.1-2.3c0.2-0.1,0.5-0.2,0.6,0
	s-0.1,0.4-0.2,0.6c-0.8,0.9-1.8,1.8-2.9,2.4C139.2,136.1,139,136.2,138.8,136.2z"/>
<path class="st0" d="M169.3,134.1c0.8-0.4,1.6-0.9,2.2-1.6c0.2-0.2,0.5-0.3,0.7,0s0,0.5-0.2,0.6
	C171.2,133.8,170.3,134.2,169.3,134.1z"/>
<path class="st0" d="M106.3,134.1c0.8-0.4,1.6-1,2.3-1.6c0.2-0.2,0.5-0.3,0.7,0s-0.1,0.4-0.2,0.6
	C108.3,133.8,107.3,134.2,106.3,134.1z"/>
<path class="st0" d="M160.6,161.3c-0.1,0.3,0.2,0.9-0.3,1.2c-0.5,0.4-1.2,0.3-1.6-0.2c-0.1-0.1-0.1-0.2-0.2-0.3
	c-0.4-0.8-0.4-1.7,0-2.5c0.1-0.4,0.5-0.7,0.9-0.7c0.4,0,0.8,0.3,0.9,0.7C160.6,160.1,160.6,160.7,160.6,161.3z"/>
<path class="st0" d="M98.2,162.5c0,0.3,0,0.6,0,0.9c0,0.3,0.1,0.6-0.2,0.7c-0.3,0.1-0.7,0.1-1-0.1c-0.7-0.9-0.7-2.2,0-3.1
	c0.3-0.2,0.7-0.3,1-0.2c0.4,0.1,0.2,0.5,0.2,0.7C98.3,161.7,98.3,162.1,98.2,162.5L98.2,162.5z"/>
<path class="st0" d="M115,162.5c0,0.3,0,0.7,0,1s0.2,0.6-0.3,0.7c-0.4,0.1-0.7,0-1-0.2c-0.7-1-0.7-2.3,0-3.2c0.3-0.2,0.7-0.3,1-0.1
	c0.4,0.1,0.2,0.5,0.2,0.7C115,161.7,115,162.2,115,162.5L115,162.5z"/>
<path class="st0" d="M172.9,159.6c0,1,0,1.8,0,2.7c0,0.2,0,0.5-0.3,0.4c-0.6,0-1.2,0-2,0C171.3,161.6,172.1,160.5,172.9,159.6z"/>
<path class="st0" d="M91.9,163.3c0,0.4,0.1,0.9-0.7,0.9c-0.5,0-0.9-0.4-0.9-0.9c0,0,0,0,0-0.1c-0.1-0.5,0.3-1,0.8-1.1
	c0.1,0,0.2,0,0.2,0C91.9,162.1,91.9,162.1,91.9,163.3z"/>
<path class="st0" d="M146.1,162.4c-0.3-0.2-0.8,0.3-0.8-0.4c0-0.6,0.5-1.5,1-1.4c0.5,0,0.8,0.6,0.8,1.3
	C147.1,162.7,146.4,162.2,146.1,162.4z"/>
</svg>
