<?xml version="1.0" encoding="utf-8"?>
<!-- Generator: Adobe Illustrator 21.1.0, SVG Export Plug-In . SVG Version: 6.00 Build 0)  -->
<svg version="1.1" id="Layer_1" xmlns="http://www.w3.org/2000/svg" xmlns:xlink="http://www.w3.org/1999/xlink" x="0px" y="0px"
	 viewBox="0 0 250 250" style="enable-background:new 0 0 250 250;" xml:space="preserve">
<style type="text/css">
	.st0{fill:#EA2226;}
	.st1{fill:#FFFCFC;}
	.st2{fill:#EC1E25;}
</style>
<title>Grocery</title>
<path class="st0" d="M5.5,127.5v-5c0.1-0.3,0.2-0.6,0.1-0.9c0.3-3.9,1.2-7.7,2.7-11.3c1.7-4.3,4.2-8.3,7.3-11.7
	c4.8-5.4,11-9.3,18-11.2c2.2-0.6,4.4-1,6.7-1.2c0.2,0,0.3,0,0.4-0.2h168c0.1,0.1,0.3,0.2,0.5,0.2c2.5,0.2,4.9,0.6,7.2,1.3
	c3.3,1,6.5,2.4,9.5,4.3c4,2.5,7.4,5.7,10.2,9.5c4,5.4,6.6,11.8,7.5,18.5c0.6,4.4,0.4,8.9-0.5,13.3c-2.3,11.1-9.2,20.6-19,26.2
	c-4.3,2.4-9,3.9-13.9,4.5c-0.7,0-1.3,0.1-2,0.2H41.3c0-0.1-0.1-0.1-0.2-0.1c-1.8-0.1-3.7-0.3-5.5-0.7c-4.8-1-9.3-3-13.3-5.8
	c-5.3-3.7-9.7-8.7-12.6-14.5c-2.1-4.1-3.4-8.6-4-13.2C5.7,128.9,5.6,128.2,5.5,127.5z M124.6,160.4h78.7c1.4,0,2.9-0.1,4.3-0.2
	c2.5-0.3,5-0.8,7.4-1.5c3.9-1.2,7.5-3,10.8-5.4c5.1-3.7,9.2-8.7,11.8-14.5c1.6-3.7,2.6-7.7,2.8-11.7c0.3-4.3-0.3-8.7-1.6-12.8
	c-2-6-5.6-11.4-10.4-15.6c-6.7-5.9-15.4-9.1-24.3-9.2H45.4c-6.7,0-13.2,1.8-18.9,5.2c-2.7,1.6-5.1,3.4-7.3,5.6
	c-3,3-5.5,6.6-7.3,10.5c-3.1,7-3.9,14.8-2.1,22.3c0.6,2.7,1.6,5.3,2.9,7.7c1.9,3.6,4.4,6.9,7.4,9.7c6.9,6.4,15.9,9.9,25.3,9.9
	L124.6,160.4z"/>
<path class="st1" d="M124.6,160.4H45.5c-9.4,0-18.4-3.5-25.3-9.9c-3-2.8-5.5-6-7.4-9.7c-1.3-2.4-2.2-5-2.9-7.7
	c-1.8-7.5-1.1-15.3,2.1-22.3c1.8-3.9,4.2-7.5,7.3-10.5c2.2-2.2,4.6-4.1,7.3-5.6c5.7-3.4,12.3-5.2,18.9-5.2h158.7
	c8.9,0,17.6,3.3,24.3,9.2c4.8,4.2,8.4,9.5,10.4,15.6c1.4,4.1,1.9,8.5,1.6,12.8c-0.2,4-1.2,8-2.8,11.7c-2.6,5.8-6.6,10.8-11.8,14.5
	c-3.3,2.4-6.9,4.2-10.8,5.4c-2.4,0.7-4.9,1.3-7.4,1.5c-1.4,0.1-2.9,0.2-4.3,0.2L124.6,160.4z M125,92.2H48.3c-2,0-3.9,0.2-5.8,0.4
	c-3.9,0.6-7.6,1.7-11.1,3.4c-3.9,1.8-7.4,4.4-10.3,7.5c-2.4,2.5-4.4,5.4-5.9,8.6c-4.3,9.2-3.6,20.1,1.9,28.7c3.6,5.7,8.9,10.2,15,13
	c5.3,2.4,11,3.6,16.8,3.5h152.4c1.5,0,2.9-0.1,4.4-0.2c3.5-0.3,7-1.2,10.3-2.5c5.7-2.2,10.8-5.8,14.7-10.5c4-4.8,6.5-10.7,7-17
	c0.5-5.6-0.6-11.2-3.2-16.1c-1.5-3-3.5-5.7-5.9-8.1c-2.9-2.9-6.4-5.3-10.1-7.1c-5.2-2.4-10.8-3.7-16.5-3.7
	C176.2,92.2,150.6,92.2,125,92.2z"/>
<path class="st2" d="M125,92.2c25.6,0,51.2,0,76.8,0c5.7,0,11.4,1.2,16.5,3.7c3.8,1.8,7.2,4.2,10.1,7.1c2.4,2.4,4.4,5.1,5.9,8.1
	c2.6,5,3.7,10.5,3.2,16.1c-0.5,6.2-2.9,12.2-7,17c-3.9,4.7-9,8.3-14.7,10.5c-3.3,1.3-6.8,2.1-10.3,2.5c-1.5,0.1-2.9,0.2-4.4,0.2
	H48.8c-5.8,0.1-11.5-1.1-16.7-3.5c-6.2-2.8-11.4-7.3-15-13c-5.5-8.6-6.2-19.4-1.9-28.7c1.5-3.2,3.5-6.1,5.9-8.6
	c3-3.1,6.4-5.6,10.3-7.5c3.5-1.7,7.3-2.8,11.1-3.4c1.9-0.3,3.9-0.4,5.8-0.4L125,92.2L125,92.2z M169.2,142.5
	c0.1,0.3,0.4,0.2,0.6,0.2H201c0.7,0,1.3-0.1,2-0.1c1.4,0,2.8-0.4,4-1.1c1.9-1,3.4-2.7,4.1-4.8c0.3-1.1,0.3-2.2,0.2-3.4
	c0-2-1-3.9-2.7-5c-0.8-0.5-1.7-0.9-2.7-1.2c0.6-0.2,1.1-0.4,1.6-0.7c2.4-1.1,4.2-3.2,5-5.7c0.5-1.6,0.6-3.2,0.3-4.8
	c-0.3-2.9-2-5.5-4.4-7c-2.3-1.4-5-2.2-7.7-2.2c-2.1,0-4.1,0-6.2,0h-25.6c-0.4,0-0.5,0.1-0.5,0.5c0,1.5,0,3,0.1,4.5
	c0.1,4.6,0.2,9.3,0.3,13.9c0,3,0.1,5.9,0.2,8.9c0,2.3,0.1,4.6,0.1,6.9L169.2,142.5L169.2,142.5z M36,129.4L36,129.4
	c0,0.4,0,0.8,0,1.3c0.1,4,0.1,8,0.2,12c0,0.3,0.1,0.3,0.4,0.3h15.9c0.3,0,0.4-0.1,0.4-0.4c0-2.4,0.1-4.8,0.1-7.2
	c0-1.5,0-2.9,0.1-4.4c0-0.3,0.1-0.4,0.5-0.4c3,0,6.1,0,9.1,0c0.4,0,0.5,0.1,0.5,0.5c0,3.8,0,7.7,0,11.5c0,0.4,0.1,0.5,0.5,0.5
	c4.9,0,9.9,0,14.8,0c0.5,0,0.6-0.1,0.6-0.6c0.1-3.6,0.3-7.2,0.5-10.8c0.3-6,0.6-12.1,0.8-18.1c0.1-2,0.2-4.1,0.3-6.1
	c0-0.3-0.1-0.4-0.4-0.4h-3.1c-4.5,0-9,0-13.5,0c-0.5,0-0.6,0.2-0.6,0.6c0,4.9,0,9.8,0.1,14.8c0,0.4-0.1,0.5-0.5,0.5c-3,0-6,0-9,0
	c-0.3,0-0.4-0.1-0.4-0.4c0-1.1,0-2.2,0.1-3.3c0.1-3.9,0.1-7.7,0.2-11.6c0-0.4-0.1-0.5-0.5-0.5H35.9c-0.2,0-0.3,0.1-0.3,0.3
	c0.1,2.9,0.1,5.9,0.2,8.8C35.9,120.6,36,125,36,129.4z M124.8,107.1H103c-0.3,0-0.5,0-0.5,0.4c0.1,4.9,0.3,9.7,0.4,14.7
	c0.1,2.3,0.1,4.6,0.2,6.9c0.1,4.4,0.2,8.9,0.3,13.5c0,0.3,0,0.5,0.5,0.5h41.3c0.3,0,0.4-0.1,0.4-0.4c0-1.9,0-3.9,0-5.8
	c0-0.3-0.1-0.4-0.4-0.4h-24.7c-0.6,0-0.6,0-0.6-0.6c0-1.5,0.1-3.1,0.1-4.7c0-0.4,0.1-0.5,0.5-0.5h18c0.4,0,0.5-0.1,0.5-0.5
	c0-2.1,0-4.2,0-6.3c0-0.8,0.1-0.7-0.7-0.7c-5.9,0-11.8,0-17.7,0c-0.4,0-0.5-0.1-0.5-0.5c0-1.4,0.1-2.8,0.1-4.2c0-0.6,0-0.6,0.6-0.6
	h25.3c0.4,0,0.5-0.1,0.6-0.5c0.1-3.2,0.3-6.4,0.5-9.6c0-0.5-0.1-0.5-0.5-0.5L124.8,107.1z M91.5,130.3h5.2c0.3,0,0.4-0.1,0.4-0.4
	c0-2,0-4,0-6c0-0.3,0-0.4-0.4-0.4H86.2c-0.3,0-0.4,0.1-0.4,0.4c0,2,0,4,0,6c0,0.3,0.1,0.4,0.4,0.4C88,130.3,89.8,130.3,91.5,130.3
	L91.5,130.3z M157.4,130.3h5.2c0.2,0,0.4,0,0.4-0.3c0-2,0-4.1,0-6.1c0-0.3-0.1-0.4-0.4-0.4h-10.5c-0.3,0-0.4,0-0.4,0.3c0,2,0,4,0,6
	c0,0.3,0.1,0.4,0.4,0.4H157.4z"/>
<path class="st1" d="M169.2,141.4c0-2.3,0-4.6-0.1-6.9c0-3-0.1-5.9-0.2-8.9c-0.1-4.6-0.2-9.3-0.3-13.9c0-1.5,0-3-0.1-4.5
	c0-0.4,0.1-0.5,0.5-0.5h25.6c2.1,0,4.1,0,6.2,0c2.7,0,5.4,0.8,7.7,2.2c2.5,1.5,4.1,4.1,4.4,7c0.3,1.6,0.2,3.3-0.3,4.8
	c-0.8,2.5-2.6,4.5-5,5.6c-0.5,0.3-1.1,0.5-1.6,0.7c0.9,0.2,1.8,0.6,2.7,1.2c1.7,1.1,2.7,3,2.7,5c0.1,1.1,0.1,2.3-0.2,3.4
	c-0.7,2.1-2.2,3.8-4.1,4.8c-1.2,0.7-2.6,1.1-4,1.1h-0.6c-2.4,0-4.7,0.1-7.1,0.1h-25.7c-0.2,0-0.4,0-0.5-0.1L169.2,141.4L169.2,141.4
	z M186.4,120h-0.2c0,1.1,0,2.2,0,3.3c0,0.4,0.1,0.5,0.5,0.5c2.1,0,4.3,0,6.4,0c2.1,0,3.8-1.6,3.8-3.6c0-0.2,0-0.3,0-0.5
	c-0.3-1.8-1.8-3.2-3.7-3.3c-2.2,0-4.3,0-6.5,0c-0.3,0-0.4,0.1-0.4,0.3C186.4,117.8,186.4,118.9,186.4,120L186.4,120z M189.7,136.2
	h3.3c0.2,0,0.4,0,0.6-0.1c1.6-0.6,2.5-2.4,1.9-4.1c-0.3-1.3-1.5-2.2-2.8-2.2h-6.1c-0.3,0-0.4,0.1-0.4,0.4c0,1.9,0,3.8-0.1,5.6
	c0,0.3,0,0.3,0.3,0.3L189.7,136.2z"/>
<path class="st1" d="M36,129.4c-0.1-4.4-0.2-8.8-0.2-13.2c-0.1-2.9-0.1-5.9-0.2-8.8c0-0.2,0-0.3,0.3-0.3h17.3c0.4,0,0.5,0.1,0.5,0.5
	c-0.1,3.9-0.2,7.7-0.2,11.6c0,1.1,0,2.2-0.1,3.3c0,0.3,0.1,0.4,0.4,0.4c3,0,6,0,9,0c0.4,0,0.5-0.1,0.5-0.5c0-4.9,0-9.8-0.1-14.8
	c0-0.4,0.1-0.6,0.6-0.6c4.5,0,9,0,13.5,0h3.1c0.3,0,0.4,0,0.4,0.4c-0.1,2-0.2,4.1-0.3,6.1c-0.3,6-0.6,12.1-0.8,18.1
	c-0.2,3.6-0.3,7.2-0.5,10.8c0,0.4-0.1,0.6-0.6,0.6c-4.9,0-9.9,0-14.8,0c-0.4,0-0.5-0.1-0.5-0.5c0-3.8,0-7.7,0-11.5
	c0-0.4-0.1-0.5-0.5-0.5c-3,0-6.1,0-9.1,0c-0.4,0-0.5,0.1-0.5,0.4c0,1.5,0,2.9-0.1,4.4c0,2.4-0.1,4.8-0.1,7.2c0,0.3-0.1,0.4-0.4,0.4
	H36.6c-0.3,0-0.4,0-0.4-0.3c-0.1-4-0.1-8-0.2-12C36.1,130.3,36.1,129.9,36,129.4L36,129.4z"/>
<path class="st1" d="M124.8,107.1h21.8c0.4,0,0.6,0.1,0.5,0.5c-0.2,3.2-0.3,6.4-0.5,9.6c0,0.4-0.1,0.5-0.6,0.5h-25.3
	c-0.6,0-0.6,0-0.6,0.6c0,1.4,0,2.8-0.1,4.2c0,0.3,0,0.5,0.5,0.5c5.9,0,11.8,0,17.7,0c0.9,0,0.7,0,0.7,0.7c0,2.1,0,4.2,0,6.3
	c0,0.4-0.1,0.5-0.5,0.5h-18c-0.4,0-0.5,0.1-0.5,0.5c0,1.5,0,3.1-0.1,4.7c0,0.6,0,0.6,0.6,0.6h24.8c0.3,0,0.4,0.1,0.4,0.4
	c0,1.9,0,3.9,0,5.8c0,0.3-0.1,0.4-0.4,0.4h-41.3c-0.4,0-0.4-0.2-0.5-0.5c-0.1-4.4-0.2-8.9-0.3-13.5c-0.1-2.3-0.1-4.6-0.2-6.9
	c-0.1-4.9-0.3-9.7-0.4-14.7c0-0.4,0.1-0.4,0.5-0.4L124.8,107.1z"/>
<path class="st1" d="M91.5,130.3c-1.8,0-3.5,0-5.3,0c-0.3,0-0.4-0.1-0.4-0.4c0-2,0-4,0-6c0-0.3,0.1-0.4,0.4-0.4h10.5
	c0.3,0,0.4,0.1,0.4,0.4c0,2,0,4,0,6c0,0.3-0.1,0.4-0.4,0.4H91.5z"/>
<path class="st1" d="M157.4,130.3h-5.3c-0.3,0-0.4-0.1-0.4-0.4c0-2,0-4,0-6c0-0.3,0.1-0.3,0.4-0.3h10.5c0.3,0,0.4,0.1,0.4,0.4
	c0,2,0,4.1,0,6.1c0,0.3-0.1,0.3-0.4,0.3L157.4,130.3L157.4,130.3z"/>
<path class="st0" d="M169.2,142.5c0.1,0.2,0.3,0.1,0.5,0.1h25.6c2.4,0,4.7-0.1,7.1-0.1h0.6c-0.7,0-1.3,0.1-2,0.1h-31.2
	C169.6,142.7,169.3,142.8,169.2,142.5z"/>
<path class="st0" d="M169.2,141.4L169.2,141.4z"/>
<path class="st0" d="M186.4,120c0-1.1,0-2.2,0-3.3c0-0.3,0.1-0.3,0.4-0.3c2.2,0,4.3,0,6.5,0c1.8,0.2,3.3,1.5,3.6,3.3
	c0.2,2-1.2,3.9-3.3,4.1c-0.2,0-0.4,0-0.5,0c-2.1,0-4.3,0-6.4,0c-0.4,0-0.5-0.1-0.5-0.5c0-1.1,0-2.2,0-3.3L186.4,120z"/>
<path class="st0" d="M189.7,136.2h-3.4c-0.3,0-0.3,0-0.3-0.3c0-1.9,0.1-3.8,0.1-5.6c0-0.3,0.1-0.4,0.4-0.4h6.1
	c1.3,0,2.5,0.9,2.8,2.2c0.6,1.7-0.3,3.5-1.9,4.1c-0.2,0.1-0.4,0.1-0.6,0.1L189.7,136.2L189.7,136.2z"/>
<path class="st0" d="M242.1,154.3c-1.8,0-3.3-1.5-3.3-3.3c0-1.8,1.5-3.3,3.3-3.3c1.8,0,3.3,1.5,3.3,3.3c0,0,0,0,0,0
	C245.4,152.9,243.9,154.3,242.1,154.3z M242.1,148.1c-1.6,0-2.9,1.3-2.9,2.9c0,1.6,1.3,2.9,2.9,2.9s2.9-1.3,2.9-2.9v0
	C245,149.4,243.7,148.1,242.1,148.1C242.1,148.1,242.1,148.1,242.1,148.1L242.1,148.1z"/>
<path class="st0" d="M242.1,154.4c-1.9,0-3.4-1.5-3.4-3.4c0-1.9,1.5-3.4,3.4-3.4c1.9,0,3.4,1.5,3.4,3.4
	C245.5,152.9,244,154.4,242.1,154.4z M242.1,147.7c-1.8,0-3.2,1.4-3.2,3.2c0,1.8,1.4,3.2,3.2,3.2c1.8,0,3.2-1.4,3.2-3.2
	C245.3,149.2,243.9,147.8,242.1,147.7L242.1,147.7z M242.1,154c-1.7,0-3-1.3-3-3c0-1.7,1.3-3,3-3s3,1.3,3,3
	C245.1,152.6,243.8,154,242.1,154C242.1,154,242.1,154,242.1,154L242.1,154z M242.1,148.1c-1.6,0-2.8,1.3-2.8,2.8s1.3,2.8,2.8,2.8
	c1.6,0,2.8-1.3,2.8-2.8C244.9,149.4,243.6,148.2,242.1,148.1L242.1,148.1z"/>
<path class="st0" d="M240.8,149.5c0.3,0,0.6,0,1,0c0.4,0,0.8,0.1,1.1,0.3c0.2,0.1,0.3,0.4,0.3,0.6c0,0.4-0.3,0.7-0.7,0.8l0,0
	c0.3,0.1,0.5,0.3,0.6,0.6c0.1,0.3,0.2,0.6,0.3,0.9h-0.5c-0.1-0.2-0.2-0.5-0.3-0.8c0-0.4-0.4-0.7-0.8-0.6h-0.5v1.3h-0.5V149.5z
	 M241.3,150.9h0.5c0.5,0,0.9-0.2,0.9-0.6s-0.4-0.6-0.9-0.6c-0.2,0-0.3,0-0.5,0L241.3,150.9z"/>
<path class="st0" d="M243.5,152.7h-0.7l0,0c-0.1-0.3-0.2-0.5-0.3-0.8c0-0.3-0.3-0.6-0.7-0.5c0,0,0,0,0,0h-0.4v1.3h-0.7v-3.3h0.1
	c0.3,0,0.6-0.1,1-0.1c0.4,0,0.8,0.1,1.2,0.3c0.2,0.2,0.3,0.4,0.3,0.7c0,0.4-0.2,0.7-0.6,0.8c0.2,0.1,0.4,0.4,0.4,0.6
	c0.1,0.3,0.2,0.6,0.3,0.9L243.5,152.7z M242.9,152.5h0.3c-0.1-0.2-0.1-0.4-0.2-0.8c0-0.3-0.2-0.5-0.5-0.6h-0.1V151h0.1
	c0.4-0.1,0.6-0.4,0.7-0.7c0-0.2-0.1-0.4-0.3-0.5c-0.3-0.2-0.7-0.3-1.1-0.2c-0.3,0-0.6,0-0.9,0v3h0.3v-1.3h0.6c0.4,0,0.8,0.3,0.9,0.7
	C242.7,152.1,242.8,152.3,242.9,152.5L242.9,152.5z M241.8,151h-0.6v-1.3h0.1c0.2,0,0.3,0,0.5,0c0.9,0,1,0.4,1,0.7
	S242.4,151,241.8,151L241.8,151z M241.4,150.8h0.4c0.5,0,0.8-0.2,0.8-0.5c0-0.3-0.4-0.5-0.8-0.5h-0.4L241.4,150.8z"/>
</svg>
