<?xml version="1.0" encoding="utf-8"?>
<!-- Generator: Adobe Illustrator 21.1.0, SVG Export Plug-In . SVG Version: 6.00 Build 0)  -->
<svg version="1.1" id="Layer_1" xmlns="http://www.w3.org/2000/svg" xmlns:xlink="http://www.w3.org/1999/xlink" x="0px" y="0px"
	 viewBox="0 0 250 250" style="enable-background:new 0 0 250 250;" xml:space="preserve">
<style type="text/css">
	.st0{fill:#93A646;}
	.st1{fill:#535432;}
	.st2{fill:#FAFBF6;}
	.st3{fill:#F9FAF4;}
	.st4{fill:#F7F9F2;}
	.st5{fill:#625F4A;}
	.st6{fill:#FFFFFF;}
</style>
<title>Grocery</title>
<path class="st0" d="M19.3,77.4h213.3c7.4,0,13.3,6,13.3,13.3V160c0,7.4-6,13.3-13.3,13.3H19.3C12,173.3,6,167.3,6,160V90.7
	C6,83.4,12,77.4,19.3,77.4z"/>
<path class="st1" d="M209.8,136.1c0.1-0.1,0.2-0.3,0.2-0.5c0.2,0,0.4-0.2,0.5-0.4c0,0,0,0,0-0.1l0,0c0.4,0,0.7-0.3,0.7-0.7h0.2
	c0.2,0,0.5-0.2,0.5-0.4c0,0,0,0,0,0h0.6c0.6-0.4,1.2,0,1.7,0.1c0.3,0.1,0.3,0.5,0.3,0.8c0.1,1.2-0.1,2.5-0.7,3.6
	c-0.5,1-0.4,1.3,0.9,1.6c1.2,0.2,2.5,0.2,3.7,0c0.9-0.2,1.7-0.3,2.6-0.4c0.9-0.1,1.8-0.5,2.5-1.1c0.9-0.7,1.5-1.8,1.3-3
	c0-0.3,0-0.5,0-0.8c0-1.4-0.1-1.5-1.6-1.6c-1.2,0-2.3,0.2-3.4,0.6c-0.4,0.1-0.7,0.3-1,0c-0.2-0.4-0.2-1,0.1-1.3
	c0.3-0.3,0.7-0.4,1.2-0.3c1.3,0,2.7-0.1,4-0.3c0.5,0,0.9-0.4,0.9-0.9c0.3-1.4,0.4-2.8,0.3-4.2c0-0.4,0-0.9,0.4-1.1
	c0.8-0.4,1.4,0,1.3,0.8c-0.1,1.4-0.1,2.8,0,4.2c0,0.9,0.1,1,1.1,1c1.8,0,3.6,0,5.3,0c0.3,0,0.7,0,1,0.2c0.1,0.1,0.2,0.2,0.2,0.4
	c0,0.2-0.2,0.3-0.3,0.3c-0.3,0.1-0.7,0.1-1,0.1c-1.9,0.1-3.8,0.2-5.6,0.5c-0.4,0-0.8,0.3-0.9,0.7c0,0,0,0.1,0,0.1
	c-0.1,0.8,0,1.5,0.2,2.2c0.3,1,0.4,2.1,0.7,3.1c0.4,1.4,0.9,2.9,1.3,4.3c0.1,0.3,0.2,0.6,0.2,0.9c-0.1,0.4-0.3,0.7-0.7,0.8
	s-0.5-0.3-0.6-0.6c-0.4-1-0.8-2-1.1-3.1c-0.2-0.7-0.4-1.4-0.6-2.2c-0.1-0.8-0.6-0.9-1.1-0.3c-1.3,1.2-2.9,2-4.7,2.3
	c-1.6,0.3-3.3,0.4-5,0.4c-0.7,0-1.4-0.1-2-0.3c-0.4-0.1-0.9-0.1-1.3,0c0-0.3-0.3-0.2-0.5-0.2c-0.1-0.3-0.4-0.2-0.7-0.3
	c-0.2,0-0.4-0.1-0.5-0.2c-0.2-0.5-0.6-0.9-0.9-1.3c0.1-0.8-0.3-1.6-0.2-2.5C209.7,136.8,209.8,136.4,209.8,136.1z M212,138.1
	c0.5-0.3,0.9-0.9,1-1.5c0.1-0.3,0.2-0.7-0.1-1c-0.3-0.3-0.7,0-1,0.2c-0.7,0.5-1.1,1.2-1,2.1c0.1,0.3,0.2,0.6,0.6,0.6
	C211.9,138.6,212,138.4,212,138.1z"/>
<path class="st1" d="M166.8,142h-0.6c-0.1-0.4-0.4-0.5-0.7-0.5l0,0c0-0.3-0.2-0.6-0.5-0.7c0-0.2-0.1-0.4-0.2-0.5
	c-0.1-0.2-0.1-0.4-0.3-0.6c-0.3-0.4-0.4-0.1-0.5,0.1h-0.4c-0.2,0-0.5,0.2-0.5,0.4c0,0,0,0,0,0l0,0c-0.1,0-0.2,0.1-0.2,0.2l0,0
	l-0.2,0.2l0,0c-0.1,0-0.2,0.1-0.2,0.2l0,0c-0.7,0.2-1.3,0.6-2,0.3l0,0c0-0.4-0.2-0.7-0.5-0.9c0-0.3,0.1-0.7-0.2-0.9
	c0-0.2,0-0.5-0.2-0.6c-0.2-0.1-0.4,0.1-0.5,0.3c-0.1,0.1-0.1,0.2-0.2,0.3v0.4c-0.2,0-0.4,0.2-0.4,0.4c0,0,0,0,0,0v0.4
	c-0.3,0-0.4,0.2-0.4,0.5v0.4c-0.4,0.1-0.6,0.3-0.7,0.7h-0.4c-0.4,0-0.8-0.1-1.1-0.3c0-1,0-2.1,0-3.1c-0.2-0.2-0.3-0.3-0.5,0
	s-0.5,0.3-0.5,0.7c-0.4,0-0.7,0.3-0.7,0.7l0,0c-0.2,0-0.4,0.2-0.5,0.4c0,0,0,0,0,0.1l0,0c-0.2,0-0.3,0-0.4,0.2
	c0,0.2-0.3,0.4-0.5,0.4c-0.7,0-0.7-0.4-0.5-0.9c0.1-0.3,0.5-0.5,0.5-0.9l0,0c0.2,0,0.4-0.2,0.5-0.4c0,0,0,0,0-0.1l0,0
	c0.2,0,0.4-0.2,0.5-0.4c0,0,0,0,0-0.1l0,0c0.8-0.3,1.4-1,1.6-1.8c0-0.1,0-0.1,0-0.2c0.2-0.1,0.3-0.1,0.5-0.2c1-0.6,0.9-0.6,1.7,0.2
	c0.1,0.1,0.3,0.2,0.5,0.3v0.4c0.3,0.5,0.5,0.5,0.9-0.2l0,0c0.4,0.1,0.7-0.1,0.9-0.5h0.7c0.2,0.3,0.6,0.4,0.9,0.5l0,0
	c0,0.4,0.3,0.7,0.7,0.7v0.4c0,0.2,0.2,0.4,0.4,0.5c0,0,0,0,0,0c0.3,0,0.7-0.1,0.9-0.3c0.9-0.5,1.7-1,2.7-0.3c0,0.5,0.2,0.9,0.5,1.3
	c0,0.2,0.1,0.4,0.4,0.5c0,0,0,0,0.1,0l0,0c0.7,1.1,1.2,1.2,2.1,0.4h0.5c0.5,0,0.5-0.3,0.5-0.6h0.4c0.2,0,0.4-0.1,0.5-0.4
	c0,0,0-0.1,0-0.1l0,0c0.5-0.1,0.6-0.5,0.6-0.9V138c0.4,0,0.5-0.4,0.4-0.7v-0.4c0.3,0,0.5-0.2,0.4-0.5c0,0,0,0,0,0V136
	c0.4-0.1,0.7-0.3,0.6-0.7c0-0.1,0-0.2,0-0.2l0.2-0.2l0,0c0.1,0,0.2-0.1,0.2-0.2l0,0l0.2-0.2h0.2h1.6l0,0c0.1,0.5-0.1,1-0.6,1.1
	c0,0,0,0-0.1,0c-0.5,0.1-0.9,0.5-1.1,0.9c-0.7,1.2-1.1,2.5-1.3,3.9c0,0.3,0,0.7,0,1c0,0.3,0,0.6,0.4,0.7c0.3,0.1,0.6,0,0.8-0.3
	c0.1-0.2,0.4-0.3,0.5-0.5c0.7-0.9,1.2-1.9,1.5-3c0.2-1,0.5-2,0.9-3h0.4c0.5,0.2,0.5,0.6,0.5,1.1c0,0.9,0,1.9,0,2.8
	c-0.1,0.5,0.1,1,0.5,1.3l0,0l0.2,0.2c0.3,0.4,0.7,0.2,1.1,0.2s1.1-0.3,1.3-0.9c0.2,0,0.3-0.1,0.4-0.2c0.3,0,0.6,0,0.7-0.5h0.3
	c0.3,0,0.5-0.2,0.5-0.4c0,0,0,0,0,0c0.1,0,0.1,0,0.2,0c0.2,0,0.5-0.1,0.5-0.4c0,0,0,0,0,0c0.4,0.1,0.6-0.3,0.9-0.5
	c0.2-0.3,0.2-0.2,0.2-0.4l0,0c0.3-0.1,0.5-0.4,0.5-0.7l0,0c0.2,0,0.4-0.2,0.5-0.4c0,0,0,0,0-0.1l0,0c0.3-0.1,0.5-0.4,0.5-0.7
	c0.1,0,0.1,0,0.2,0h0.9c0.3,0,0.4,0.3,0.6,0.5s0,0.7,0.5,0.7v0.4c0,0.1,0,0.3,0.2,0.3c0.2,0,0.3-0.2,0.3-0.3h0.6
	c0.3,0,0.6,0,0.7-0.4h0.3c0.4,0,0.8,0.1,0.9-0.4l0.7-0.1c0.4,0.1,0.8,0,0.9-0.4c0.5,0,0.9-0.1,1.3-0.2c0.4,0,0.7,0,1.1,0
	c0.8,0,0.9-0.1,0.9-0.9c0-0.5,0-1,0-1.6s0.3-0.7,0.2-1.1c0.4-0.1,0.5-0.5,0.4-0.9c0-0.2,0.1-0.4,0.3-0.5c0.1,0,0.2-0.1,0.2-0.2
	c0-0.1,0-0.1,0-0.2c1.1,0,1.1,0,1.1,1.1v0.6c-0.4,0.1-0.5,0.4-0.4,0.7c-0.2,0.3-0.2,0.6-0.2,1c0,2,0,4,0,6.1c0,0.6,0,1.1,0,1.7
	c0,0.4,0.1,0.8,0.3,1.2c0.2,0.4,0.5,0.4,0.9,0.1s0.5-0.5,0.1-0.8c-0.6-0.5-0.9-1.4-0.6-2.1c0.2,0,0.3-0.1,0.4-0.3l0.2-0.2l0,0
	c0.1,0,0.2-0.1,0.2-0.2l0.7-0.7c0.1,0,0.2-0.1,0.2-0.2l0.7-0.7l0.2-0.2l0,0c0.1,0,0.2-0.1,0.2-0.2l0.2-0.2c0.1,0,0.2-0.1,0.2-0.2
	c0.4-0.6,1.1-0.8,1.8-0.7c0,0.2,0.1,0.4,0.2,0.5v0.4c-0.3,0-0.4,0.2-0.4,0.5l-0.5,0.7c-0.3,0-0.5,0.2-0.5,0.4c0,0,0,0,0,0h-0.4
	c-0.1,0-0.2,0.1-0.2,0.2l-0.3,0.3c-0.1,0-0.2,0.1-0.2,0.2l0,0l-0.2,0.2l0,0l-0.3,0.2c-0.3,0.1-0.5,0.3-0.1,0.5l0.1,0.5
	c0.2,0.7,0.7,0.3,1.1,0.4h0.9h1.1h1.3h2.8c0.3,0,0.6,0,0.7-0.4h1.3c0.2,0.3,0.2,0.6,0.2,0.9c0,0.1,0,0.1,0,0.2h-1.5
	c-0.2,0-0.4,0.1-0.5,0.4l-2,0.1h-2.1c-0.5-0.3-0.4,0.1-0.5,0.3c-0.4,0.1-0.9,0.1-1.3,0c-0.7-0.5-1.1-0.5-1.6,0l-1.3,1l-0.2,0.2l0,0
	l-0.2,0.2l-0.3,0.2c-0.9,0.3-1.8,0.3-2.7,0v-0.4c-0.2-1.1-0.3-2.2-0.2-3.3c0-0.9,0-1.8,0-2.7c0.1-0.4,0-0.8-0.3-1.1
	c-0.3-0.3-0.4,0-0.4,0.2h-1.3c-0.5,0-1.1-0.2-1.3,0.4c-0.3,0-0.6,0-0.9,0.2c-0.3,0-0.5,0.2-0.5,0.4c0,0,0,0,0,0h-0.4
	c-0.2,0-0.4,0.1-0.5,0.4c0,0,0,0,0,0.1l0,0c-0.2,0-0.5,0.2-0.5,0.4c0,0,0,0,0,0c-0.2,0-0.4,0.2-0.4,0.4v0c-0.4,0.1-0.7,0.3-0.6,0.7
	v1.3c-0.3,0.5-0.4,1-0.5,1.6h-1.3l-0.2-0.2c0-1.1,0-2.3,0-3.4c0-0.3,0.2-0.7-0.3-0.9c-0.4-0.2-0.8-0.1-0.9,0.4h-0.2
	c-0.6,0.1-1.2,0.5-1.4,1.1h-0.5c-0.3,0-0.7,0-0.7,0.5l0,0c-0.2,0-0.4,0.1-0.5,0.4c0,0,0,0.1,0,0.1l0,0c-0.2,0-0.5,0.2-0.5,0.4
	c0,0,0,0,0,0c-0.2,0-0.3,0.1-0.4,0.2l-1.7,0.5c-0.2,0.1-0.3,0.2-0.4,0.4h-1.5c-0.1-0.4-0.4-0.5-0.7-0.5l-0.4-0.2
	c-0.4-0.6-0.6-0.6-1,0l-0.2,0.2c-0.1,0-0.2,0.1-0.3,0.3l-0.2,0.2c-0.3,0-0.5,0.2-0.5,0.5c0,0,0,0,0,0c-0.2,0-0.4,0.2-0.4,0.4
	c0,0,0,0,0,0.1c-0.3,0-0.5,0.2-0.5,0.4c0,0,0,0,0,0h-0.4c-0.3-0.1-0.6-0.1-0.9,0c-0.2-0.1-0.5,0-0.7-0.3c0-0.1-0.1-0.2-0.2-0.2
	c-0.3-0.2-0.2-0.6-0.3-0.9s0.2-0.9-0.3-1.1s-0.7,0.2-0.8,0.6H169L166.8,142z"/>
<path class="st2" d="M75.3,106.8c0-4.2,0-8.4,0-12.6c0-1.3,0-1.3,1.4-1.3h1.3c1.1,0,1.2,0,1.2,1.1c0,0.8,0,1.7,0,2.5
	c0,3.3,0,6.7,0,10c0,0.2,0,0.3,0,0.5c0,0.3-0.1,0.6,0.3,0.8c0.4,0.1,0.5-0.1,0.7-0.3c1.6-1,3.6-1.1,5.3-0.2c0.8,0.4,1.4,1.2,1.7,2
	c0.3,0.9,0.5,1.8,0.5,2.7c0,2.7,0,5.2,0,7.8c0,1.1,0,1.1-1.1,1.1c-0.7,0-1.3,0-2,0s-0.9,0-0.9-0.9c0-2.2,0-4.5,0-6.7
	c0-0.5,0-0.9,0-1.3c0-1.1-0.8-1.9-1.9-2.1c-1.1,0-2.1,0.8-2.2,1.9c-0.2,1.1-0.3,2.3-0.3,3.4c0,1.6,0,3.2,0,4.8c0,0.9-0.1,1-1,1
	s-1.5,0-2.3,0c-0.3,0-0.7-0.2-0.7-0.5c0-0.1,0-0.1,0-0.2c0-0.3,0-0.5,0-0.8C75.4,115.3,75.4,111.1,75.3,106.8L75.3,106.8z"/>
<path class="st2" d="M131.8,106.8c0-4.2,0-8.3,0-12.5c0-0.3,0-0.5,0-0.8s0.2-0.7,0.7-0.7h2.7c0.3,0,0.7,0.2,0.7,0.6
	c0,0.1,0,0.1,0,0.2c0,0.3,0,0.5,0,0.8c0,4,0,8,0,12c0,0.3,0,0.6,0,0.9s0.3,0.5,0.6,0.3s0.3-0.2,0.5-0.3c1.6-0.9,3.5-0.9,5.1,0
	c0.8,0.5,1.4,1.2,1.7,2.1c0.4,0.8,0.5,1.8,0.6,2.7c0,2.7,0,5.2,0,7.8c0,1,0,1.1-1.1,1.1h-1.9c-1,0-1,0-1-1.1c0-2.2,0-4.5,0-6.7
	c0-0.6,0-1.1-0.2-1.7c-0.2-0.9-1.1-1.6-2-1.6c-1,0.1-1.7,0.9-1.9,1.8c-0.2,1-0.3,2.1-0.2,3.2c0,1.7,0,3.4,0,5.1c0,0.9-0.1,1-1,1
	h-1.8c-1.1,0-1.2,0-1.2-1.1c0-0.7,0-1.4,0-2.2C131.9,114,131.8,110.4,131.8,106.8z"/>
<path class="st3" d="M163.2,114.3c0.1,1.8-0.6,3.6-1.9,4.9c-3.1,2.9-7.9,2.8-10.8-0.3c-0.1-0.1-0.2-0.2-0.3-0.3
	c-0.8-1-1.3-2.2-1.3-3.5c-0.2-1.4,0-2.9,0.5-4.2c0.7-1.7,2.1-3.1,3.8-3.8c1-0.4,2.1-0.6,3.2-0.5c3.1,0,5.8,2.1,6.7,5.2
	C163.2,112.6,163.3,113.5,163.2,114.3z M152.9,114c-0.1,0.8,0.1,1.6,0.6,2.3c0.9,1.4,2.7,1.8,4.1,0.9c0.2-0.1,0.3-0.2,0.5-0.4
	c1.5-1.7,1.5-4.3,0-6c-0.9-0.9-2.3-1-3.4-0.4C153.4,111.3,152.7,112.7,152.9,114z"/>
<path class="st4" d="M100.9,114.7c-1.2,0-2.3,0-3.5,0c-0.8,0-1,0.3-0.8,1.1c0.1,0.5,0.3,1,0.6,1.5c0.8,1.1,2.2,1.3,3.3,0.6
	c0.1-0.1,0.2-0.1,0.3-0.2c0.3-0.2,0.5-0.5,0.7-0.8c0.2-0.4,0.7-0.5,1.1-0.4c0.7,0.3,1.4,0.4,2.1,0.5c0.5,0,0.6,0.3,0.5,0.7
	c-0.1,0.3-0.2,0.6-0.3,0.8c-1.2,1.8-3.2,2.9-5.3,3c-1.4,0.1-2.8-0.2-4-0.9c-1.2-0.7-2.2-1.8-2.7-3.2c-0.8-2.1-0.8-4.5,0-6.7
	c0.6-1.8,2.1-3.1,3.9-3.7c2-0.7,4.2-0.4,5.9,0.7c1.6,1.1,2.6,2.8,2.7,4.7c0.1,0.4,0.1,0.9,0.2,1.3c0,0.7-0.2,0.9-0.9,1
	C103.4,114.7,102.1,114.7,100.9,114.7L100.9,114.7z M99,112.2h1.9c0.5,0,0.7-0.3,0.6-0.7c-0.2-0.9-0.8-1.6-1.6-1.9
	c-1.3-0.4-2.7,0.3-3.2,1.6c0,0.1,0,0.1-0.1,0.2c-0.2,0.5,0,0.8,0.5,0.8C97.8,112.2,98.4,112.2,99,112.2z"/>
<path class="st3" d="M122.4,115.7c0,1.4,0,2.9,0,4.3c0,0.8,0,0.8-0.9,0.8s-1.6,0-2.4,0c-0.6,0-0.8-0.2-0.8-0.8
	c0-0.6-0.1-1.2-0.1-1.8c0-2.1,0-4.2,0-6.3c0-1.1-0.8-2-1.9-2c-0.4,0-0.8,0.1-1.1,0.3c-0.5,0.3-0.9,0.8-1,1.4
	c-0.2,0.7-0.2,1.4-0.2,2.1c0,2,0,3.9,0,5.9c0,1.2,0,1.2-1.2,1.2h-2c-0.3,0.1-0.7-0.2-0.7-0.5c0-0.1,0-0.1,0-0.2c0-0.2,0-0.4,0-0.6
	c0-3.8,0-7.6,0-11.3c0-1.2,0-1.2,1.2-1.2h1.8c0.3,0,0.7,0,0.8,0.2c0.4,0.6,0.7,0.3,1.1,0c2-1.2,4.6-0.9,6.2,0.7
	c0.8,1,1.2,2.2,1.2,3.5C122.4,112.8,122.4,114.2,122.4,115.7L122.4,115.7z"/>
<path class="st4" d="M167.7,112c0-1.3,0-2.7,0-4.1c0-0.9,0-0.9,0.9-0.9c0.9,0,1.6,0,2.4,0c0.5,0,0.8,0.2,0.7,0.7c0,0.3,0,0.5,0,0.8
	c0,2.1,0,4.2,0,6.4c0,0.5,0.1,1.1,0.3,1.5c0.3,1,1.2,1.6,2.2,1.3c0.9,0,1.4-0.5,1.7-1.6c0.2-0.6,0.2-1.2,0.2-1.8c0-2.1,0-4.2,0-6.2
	c0-1.1,0-1.1,1.2-1.1h1.8c0.9,0,1,0.1,1,1c0,2.1,0,4.2,0,6.4c0,0.8-0.1,1.7-0.2,2.5c-0.2,2.4-2.1,4.2-4.5,4.4
	c-1.5,0.3-3,0.2-4.4-0.3c-1.4-0.5-2.5-1.6-3-3c-0.3-0.9-0.5-1.8-0.4-2.8C167.7,114.1,167.7,113.1,167.7,112z"/>
<path class="st1" d="M143,135.4c-0.3,0.8-1,0.7-1.6,0.7c-1.8,0.1-3.5,0.8-4.8,2c-0.6,0.7-1,1.5-1.1,2.4c0,0.3,0,0.5,0,0.8
	c0,0.5,0,0.9-0.7,0.9c-0.7,0-1.3-0.2-1.3-0.9s0-1.7,0-2.5c0-0.4,0.2-0.9-0.3-1.1c-0.5-0.2-0.8,0.2-1.1,0.4c-1.3,1.1-2.7,2-4.2,2.9
	c-1.1,0.6-2.5,0.5-3.5-0.2c-0.7-0.5-1.3-1.2-1.7-2c-0.6,0.3-1,0.7-1.3,1.3c-0.4,0.5-0.8,1-1.3,1.4c-0.3,0.4-0.8,0.6-1.3,0.7
	c-1.3,0.2-1.7,0-2.4-1.2c-0.4-0.8-0.4-0.8-1.1-0.4c-0.8,0.4-1.5,0.9-2.1,1.5c-0.9,0.8-1.9,1.5-3.1,1.8c-1.2,0.4-2.6-0.3-3-1.6
	c-0.1-0.3-0.1-0.5-0.1-0.8c0-0.6,0-1.1,0-1.7c-0.1-1.6,0.8-3.1,2.3-3.8c0.4-0.3,0.8-0.6,1.1-1c0.5-0.6,1.4-0.7,2-0.2
	c0.1,0,0.1,0.1,0.2,0.2c0.9,0.6,1.4,1.7,1.3,2.8c0,0.4,0,0.8,0,1.3c0,0.7,0.3,0.9,0.9,0.6c1.1-0.5,1.2-0.6,1-1.8c-0.1-1,0.1-2,0.5-3
	c0.2-0.5,0.7-0.8,1.2-0.7c0.3,0.1,0.5,0.7,0.2,1.3c-0.4,1-0.5,2.1-0.4,3.2c0,0.7,0.4,1.4,1,1.8c0.3,0.3,0.7,0.3,1,0
	c0,0,0.1-0.1,0.1-0.1c1.3-1.2,2.3-2.7,2.9-4.3c0.1-0.3,0.2-0.5,0.5-0.8c0.2-0.3,0.6-0.4,0.9-0.3c0.3,0.1,0.4,0.4,0.4,0.7
	c0,0.7,0.3,1.3,0.3,2c0,0.3,0.1,0.5,0.2,0.8c0.3,0.8,1,1.3,1.8,1.3c1.5,0.1,2.4-0.9,3.5-1.3c1.3-0.6,2-1.9,3-2.9
	c1-1,1.5-0.8,2.1,0.2c0.1,0.1,0.1,0.3,0.2,0.4c0.2,0.5,0.5,0.6,1.1,0.5c0.5-0.2,1.1-0.4,1.6-0.6c1.1-0.5,2.3-0.8,3.5-1
	C142,134.9,142.6,135,143,135.4z M110,137.7L110,137.7l-0.2,0.2l-0.3,0.9c-0.6,0.1-0.3,0.6-0.4,0.9c-0.1,0.7,0,1.4,0.2,2.1
	c0.4,0.6,0.6,0.6,0.9,0c1.4-0.2,1.8-0.5,2.1-1.9c0.2,0,0.3-0.2,0.3-0.4c0-0.6,0-1.3,0-1.9c0-0.3-0.2-0.5-0.4-0.6
	c0-0.2-0.1-0.4-0.3-0.5c0-0.2-0.1-0.4-0.4-0.4c-0.3,0-0.3,0.2-0.3,0.4h-0.2c-0.2,0-0.4,0.1-0.5,0.3c0,0,0,0.1,0,0.1l-0.2,0.2
	l-0.2,0.2l0,0L110,137.7z"/>
<path class="st4" d="M189.5,121.3c-1.6,0-3.1-0.6-4.2-1.7c-0.6-0.5-0.6-0.7-0.2-1.2c0.4-0.6,0.6-0.8,1-1.3c0.3-0.4,0.7-0.5,1,0
	c0.4,0.4,1,0.7,1.5,0.9c0.5,0.3,1.1,0.2,1.6-0.1c0.6-0.3,0.8-1.1,0.5-1.7c-0.1-0.2-0.3-0.4-0.5-0.5c-0.7-0.4-1.4-0.8-2.1-1
	c-1.8-0.6-3-2.4-2.7-4.3c0.3-2.1,2-3.7,4.1-3.9c1.4-0.1,2.8,0.2,4,0.9c0.7,0.4,0.8,0.6,0.3,1.3c-0.2,0.3-0.5,0.6-0.7,0.9
	c-0.1,0.4-0.6,0.5-0.9,0.4c-0.1,0-0.2-0.1-0.2-0.1c-0.4-0.3-0.8-0.4-1.3-0.5c-0.6-0.1-1.1,0.2-1.3,0.7c-0.2,0.6,0.1,1.1,0.7,1.3
	c0.9,0.4,1.7,0.8,2.6,1.1c1.7,1,2.6,2.9,2.2,4.9C194.2,119.9,192,121.5,189.5,121.3z"/>
<path class="st1" d="M103.3,138.8c-0.6,0.4-1.1,0.8-1.5,1.3c-1,1.1-2.2,0.8-3.4,0.7c-0.6-0.2-1-0.7-0.9-1.3c0-1,0-2,0-3.1
	c0-0.6,0.5-1,0.6-1.6c0.1-0.5,0.5-0.3,0.9-0.3c0.3,0,0.5,0.3,0.5,0.6c0,0,0,0,0,0c0.1,0.3,0,0.6-0.1,0.9c-0.4,1-0.5,2-0.3,3
	c0,0.7,0.4,0.8,1,0.5c0.8-0.5,1.5-1.3,1.8-2.2c0.3-0.8,0.6-0.9,1.6-0.8c0.7,0.1,0.9,0.6,1,1.1c0.3,1.2,0.6,2.3,0.9,3.5
	c0.4,1.1,0.6,2.3,0.7,3.4c0,0.2,0,0.4,0.1,0.6c0.5,1.4,0.6,3,0.3,4.5c-0.2,1.8-0.8,3.5-1.7,4.9l-0.6,0.9c-1.1,1.7-2.8,3.1-4.8,3.7
	c-1.5,0.6-3.2,0.6-4.7-0.2c-1.3-0.6-2.3-1.8-2.5-3.2c-0.3-2.4,0.5-4.7,2.3-6.3c0.9-1.1,2.1-2.1,3.4-2.8c1.3-0.6,2.5-1.3,3.9-1.8
	c0.4-0.1,0.7-0.1,1.1,0c0.2,0,0.4,0.1,0.4,0.3c0.1,0.2,0,0.5-0.2,0.6c-0.4,0.2-0.8,0.4-1.2,0.6c-0.5,0.1-1,0.3-1.5,0.5
	c-1.6,0.4-3,1.3-4.1,2.5c-0.9,0.7-1.7,1.6-2.2,2.7c-0.4,0.8-0.6,1.7-0.7,2.7c0.1,1.1,0.6,2,1.4,2.7c0.5,0.5,1.1,0.8,1.8,0.7
	c0.5-0.1,1.1-0.1,1.6,0c1,0.1,2-0.2,2.7-0.9c1.4-1.1,2.6-2.4,3.4-4c0.4-0.8,0.7-1.7,0.7-2.6c0.1-0.7,0.2-1.3,0.4-2
	c0-1.3-0.2-2.6-0.6-3.8c-0.2-1.1-0.5-2.3-0.8-3.4C103.9,140.5,103.5,139.8,103.3,138.8z"/>
<path class="st5" d="M112.3,140c0-1,0-2,0-2.9c0.2,0.1,0.4,0.3,0.4,0.6c0,0.6,0,1.3,0,1.9C112.7,139.8,112.5,140,112.3,140
	C112.3,140,112.3,140,112.3,140z"/>
<path class="st5" d="M109.5,138.8c0,0.4,0.2,0.8-0.4,0.9C109.1,139.4,108.9,139,109.5,138.8z"/>
<path class="st5" d="M109.3,141.8h0.9C109.9,142.4,109.6,142.4,109.3,141.8z"/>
<path class="st5" d="M112,136.5h-0.7c0-0.2,0.1-0.4,0.3-0.4C111.9,136.1,112,136.3,112,136.5z"/>
<path class="st5" d="M111.1,136.6c0,0.2-0.2,0.4-0.4,0.4c0,0,0,0,0,0c0-0.2,0.1-0.4,0.4-0.4C111.1,136.6,111.1,136.6,111.1,136.6z"
	/>
<path class="st5" d="M110.4,137.2l-0.2,0.2L110.4,137.2z"/>
<path class="st5" d="M110,137.7l-0.2,0.2L110,137.7z"/>
<path class="st5" d="M110.2,137.5c0,0.1-0.1,0.2-0.2,0.2L110.2,137.5z"/>
<path class="st4" d="M207.6,114.6c-1.2,0-2.3,0-3.5,0c-0.8,0-1,0.3-0.8,1.1c0.1,0.5,0.3,1,0.6,1.5c0.8,1.1,2.2,1.3,3.3,0.6
	c0.1-0.1,0.2-0.1,0.3-0.2c0.3-0.2,0.5-0.5,0.7-0.8c0.2-0.4,0.7-0.5,1.1-0.4c0.7,0.2,1.4,0.4,2.1,0.4c0.5,0,0.6,0.3,0.5,0.7
	c-0.1,0.3-0.2,0.6-0.3,0.8c-1.2,1.8-3.2,2.9-5.3,3c-1.4,0.1-2.8-0.2-4-0.9c-1.2-0.7-2.2-1.8-2.7-3.2c-0.8-2.1-0.8-4.5,0-6.7
	c0.6-1.8,2.1-3.1,3.9-3.7c2-0.7,4.2-0.4,5.9,0.7c1.6,1.1,2.6,2.8,2.7,4.7c0.1,0.4,0.1,0.9,0.2,1.3c0,0.7-0.2,0.9-0.9,1
	C210.1,114.5,208.8,114.5,207.6,114.6L207.6,114.6z M205.7,112.1h1.9c0.5,0,0.7-0.3,0.6-0.7c-0.2-0.9-0.8-1.6-1.6-1.9
	c-1.3-0.4-2.7,0.3-3.2,1.6c0,0.1,0,0.1-0.1,0.2c-0.2,0.5,0,0.8,0.5,0.8S205.1,112.1,205.7,112.1z"/>
<path class="st6" d="M52.6,113.2c1.9,10.1-4.7,19.8-14.7,21.7c-1,0.2-2,0.3-3,0.3c-10.2,0-18.4-8.3-17.4-20.6
	c0.7-9.1,10-23.5,17.4-23.5C42.6,91.1,50.8,104,52.6,113.2z"/>
<path class="st0" d="M52.1,115.8c-2.6,0.5-5.1,1.7-7.3,3.3c0,0,0-12.3-7.7-15.5l-0.5-0.9l0.6-1.1l-2,0.5l-1-0.9l-0.7,1.3l-1.1-0.7
	l-0.7,0.9l-1.6,0.1l0.1,2.2l-3.1,4c0,0,3.4,0.1,3.9,1.1c0,0-8.4,15-0.2,23.9l0.6,0.9c0,0,17.7,4.3,21.6-18.9L52.1,115.8z"/>
<path class="st6" d="M52.9,118c-3.1-0.4-6.2,0.3-8.9,1.9c0,0,0-8.3-4.1-11.9c-1.3-1.8-3.3-3.1-5.6-3.4c-2.4,0-4.6,1.3-5.7,3.4
	c0,0,2.5,0.1,3.2,1.8c-0.6,0.8-0.8,1.9-0.5,2.8c0.3,0.5,0.7,0.7,1.3,0.8c0,0-3.6,4.8-3.7,13.9c0,0,0.6,4.5,2.7,6.9
	c0,0,1.3,1.9,8.4,0.1C47.3,132.1,52.4,125.6,52.9,118z"/>
<circle class="st0" cx="32.2" cy="106.5" r="0.4"/>
</svg>
