<?xml version="1.0" encoding="utf-8"?>
<!-- Generator: Adobe Illustrator 21.1.0, SVG Export Plug-In . SVG Version: 6.00 Build 0)  -->
<svg version="1.1" id="Layer_1" xmlns="http://www.w3.org/2000/svg" xmlns:xlink="http://www.w3.org/1999/xlink" x="0px" y="0px"
	 viewBox="0 0 250 250" style="enable-background:new 0 0 250 250;" xml:space="preserve">
<style type="text/css">
	.st0{fill:#142315;}
	.st1{fill:#15981A;}
	.st2{fill:#FAFAFA;}
	.st3{font-family:'Arial-BoldMT';}
	.st4{font-size:5.3154px;}
</style>
<title>Coke_Dine</title>
<path class="st0" d="M90.1,106c0.1,0,0.2,0,0.2-0.1c-0.2-3.9,1.2-4.4,4.9-4.6c2.8-0.2,5.6-0.1,8.4-0.1c3.5-0.1,6.8,1.4,8.9,4.2
	c0.6,0.8,1.3,1.5,2.1,2.6c0.1-1.1,0.1-1.8,0.2-2.5c0.5-3.2,1.3-4.4,4.8-4.5c7.1-0.2,14.2,0,21.2,0c9.8-0.1,19.7,0.5,29.5,0.9
	c0.8,0.1,1.6-0.3,1.8-1.1c1.8-4,4.4-7.3,8.5-9.2c6.1-2.8,18.5-2,23.3,7.1c0.9,1.7,1.4,3.5,1.6,5.4c0.1,0.8,0.2,1.1,1.1,0.8
	c4.2-1.6,8.9-1.7,13.2-0.3c0.7,0.2,1.5,0.2,2.2-0.2c2.2-1.1,4.9-0.7,6.7,1c3.3,2.8,5.4,6.7,5.9,11c0.1,1.2-0.2,2.5-0.8,3.6
	c-0.9,1.7-2.1,3.3-3.6,4.6c-0.9,0.8-1,1.3,0.2,2c3.9,2.1,7.3,4.9,10.1,8.3c2.2,2.5,3.6,5.5,4.2,8.7c0.7,5.8-1.6,10.1-6.5,13.2
	c-4.1,2.5-8.9,3.7-13.8,3.2c-5.9-0.4-12-1.1-17.6-3.4c-1-0.4-1.5,0.3-1.9,1c-1.1,2.1-2.2,4.3-3.1,6.5c-1.7,3.8-4.3,5.2-8.5,4.5
	c-8.5-1.4-17-2.4-25.6-3.3c-10.6-1.1-21.2-1.7-31.9-2c-13.2-0.3-26.3,0.1-39.4,0.8c-13.1,0.6-26.1,2.1-39,4.5
	c-3,0.8-6.2-0.7-7.5-3.6c-1.5-2.7-2.8-5.5-3.9-8.3c-0.6-1.6-1-1.8-2.6-1.1c-6.7,2.8-13.7,4.9-20.9,6.2c-3.2,0.6-6.5,0.6-9.7,0.2
	c-6.2-1.1-9.1-5.4-7.6-11.5c0.4-2,1.3-3.9,2.7-5.4c0.7-0.8,1.2-1.9,1.2-3c0.7-9,1.4-18,2-27c0.1-0.8-0.1-1.5-0.5-2.2
	c-0.2-0.3-0.4-0.7-0.6-1.1c-2.3-4.2-1.4-7.7,2.8-10.1c4.9-2.7,10.6-3.7,16.1-2.9c2.3,0.1,4.5,0.6,6.7,1.4c0.9,0.4,1-0.3,1.3-0.8
	c6.7-10,21.2-13.2,31.5-7c3.4,2,6,4.9,7.6,8.5c0.2,0.7,0.9,1.1,1.6,0.9c0,0,0.1,0,0.1,0c2.6-0.5,5.3-0.4,7.8,0.3
	c1.5,0.5,2.8,1.6,3.6,3C89.6,105.3,89.7,105.9,90.1,106z M90.9,109.6c-0.7-0.9-1.2-1.9-1.6-2.9c-0.7-2-2.4-3.6-4.5-4.2
	c-2.3-0.5-4.7-0.5-6.9,0.1c-0.8,0.4-1.8,0-2.1-0.8c0-0.1-0.1-0.2-0.1-0.3c-2.5-5.8-7.1-9.1-13-10.7c-7-2-13.4-0.3-19.4,3.5
	c-2.3,1.5-4.3,3.5-5.6,5.9c-0.5,0.9-1,1.2-1.9,0.8c-3.7-1.3-7.6-1.8-11.5-1.6c-3.9,0.1-7.6,1.1-11,3c-2.4,1.4-3.9,3.3-3.4,6.3
	c0.2,1.2,0.7,2.2,1.4,3.2c0.7,1.2,1,2.7,0.8,4.1c-0.6,8-1.2,16-1.9,24c-0.2,1.6,0.3,3.6-1,5c-1.5,1.8-2.6,3.9-3,6.2
	c-1,4.4,1.1,8.3,4.9,9.4c4.1,1,8.3,1.1,12.4,0.2c6.9-1.3,13.6-3.4,20.1-6.1c1.9-0.7,2.7-0.4,3.4,1.5c1.2,3.1,2.7,6.2,4.4,9
	c1.1,1.9,3.3,2.9,5.4,2.5c3-0.4,5.9-0.9,8.9-1.4c5.4-1,11-1.6,16.4-2.2c4.8-0.5,9.6-0.7,14.4-1c6.6-0.3,13.1-0.8,19.7-0.9
	c6.2-0.1,12.3-0.1,18.5,0.1c5.9,0.2,11.8,0.4,17.7,0.7c3.2,0.2,6.3,0.4,9.4,0.7c5.6,0.5,11.2,1.1,16.8,1.8c5,0.6,10,1.3,14.9,2.1
	c3.2,0.6,6.7-0.7,7.7-3.8c0.4-1.2,1-2.2,1.5-3.3c0.5-1.5,1.2-2.9,2.2-4.1c0.6-0.6,1.3-1.3,2.2-0.8c3.6,1.4,7.3,2.3,11.1,2.7
	c5.2,0.8,10.5,1.2,15.7-0.5c5.8-1.9,11.5-7.1,10-14.8c-0.6-3.1-2-5.9-4.1-8.3c-2.8-3.3-6.3-5.9-10.2-7.8c-1.6-0.8-1.5-1.2-0.4-2.4
	c0.5-0.6,1.2-1.1,1.7-1.8c1.6-2,3.5-3.9,3-6.7c-0.5-4.1-2.6-7.8-5.9-10.3c-1.3-1-3-1.3-4.6-0.8c-1.7,0.6-3.6,0.6-5.3,0
	c-2.2-0.6-4.4-0.7-6.6-0.4c-2.2,0.2-4.1,1.2-6.2,1.6c-0.1-3.4-1.2-6.7-3.3-9.4c-2-2.3-4.6-3.9-7.6-4.8c-3.3-1.1-6.9-1.3-10.3-0.5
	c-4.7,1.1-8.6,4.5-10.3,9c-0.9,2.1-1.3,2.4-3.6,2.3c-5.4-0.2-10.9-0.6-16.3-0.8c-4.9-0.2-9.9-0.1-14.8-0.1c-4.6,0-9.2,0-13.8,0
	c-2.2-0.2-4.5-0.2-6.7,0.1c-1.1,0.2-2.1,0.7-2.3,1.9c-0.3,1.7-1,3.4-0.5,5.2c0.1,0.3,0,0.5-0.2,0.6c-0.2,0.1-0.4,0-0.5-0.2
	c-0.7-0.8-1.4-1.5-2-2.3c-2.5-3.3-5.5-5.5-10-5.1c-2.4,0.2-4.9,0.1-7.3,0.1c-0.8,0-1.6,0.1-2.4,0.3c-1.1,0.1-1.9,1.1-1.8,2.2
	c0,0,0,0,0,0C91.2,106.3,91.6,107.9,90.9,109.6L90.9,109.6z"/>
<path class="st0" d="M211,103c-2.9,0.5-3.7,0-4.9-2.4c-0.9-1.6-1.5-3.3-2-5.1c-0.8-4.4,1.4-6.9,4.6-8.5c2-0.9,4.1-1.6,6.2-2
	c1.7-0.4,3.4-1,3.7-3.1c0.1-0.5,0.6-0.7,0.9-0.4c0.5,0.7,1.4,0.7,2,1.2c3,2.5,2.7,8.3-0.5,10.5c-1.8,1.1-3.8,2-5.8,2.7
	c-1.4,0.5-2.9,1.1-4.2,1.8c-2.1,1.1-2.3,2.3-0.9,4.2C210.3,102.2,210.6,102.5,211,103z M219.4,82.4c-0.7,1.6-2.2,2.8-3.9,3.2
	c-2.2,0.4-4.3,1.1-6.4,2c-3.1,1.5-5.2,4.2-4.5,7.5c0.5,2.1,1.3,4.2,2.4,6.1c0.2,0.3,0.3,0.9,0.9,0.6c0.5-0.3,0-0.7-0.1-1
	c-1.1-2-0.8-3.3,1.1-4.5c1-0.6,2-1.1,3-1.4c2.4-0.7,4.8-1.7,7-3c1.5-1,2.9-2.4,2.7-4.3C221.3,85.6,220.6,83.8,219.4,82.4L219.4,82.4
	z"/>
<path class="st1" d="M90.9,109.6c0.7-1.7,0.3-3.3,0.3-5c-0.1-1.1,0.7-2.1,1.8-2.2c0,0,0,0,0,0c0.8-0.2,1.6-0.3,2.4-0.3
	c2.4,0,4.9,0.1,7.3-0.1c4.4-0.4,7.4,1.8,10,5.1c0.6,0.8,1.4,1.5,2,2.3c0.1,0.2,0.3,0.3,0.5,0.2c0.2-0.1,0.3-0.4,0.2-0.6
	c-0.4-1.8,0.3-3.6,0.5-5.2c0.2-1.2,1.2-1.7,2.3-1.9c2.2-0.3,4.5-0.3,6.7-0.1c4.6,0.1,9.2,0,13.8,0c4.9,0,9.9-0.1,14.8,0.1
	c5.4,0.2,10.9,0.6,16.3,0.8c2.3,0.1,2.7-0.2,3.6-2.3c1.7-4.6,5.5-8,10.3-9c3.4-0.8,7-0.6,10.3,0.5c2.9,0.8,5.6,2.5,7.6,4.8
	c2.1,2.7,3.3,6,3.3,9.4c2.1-0.4,4.1-1.4,6.2-1.6c2.2-0.3,4.5-0.2,6.6,0.4c1.7,0.6,3.6,0.6,5.3,0c1.6-0.5,3.3-0.2,4.6,0.8
	c3.3,2.5,5.4,6.2,5.9,10.3c0.5,2.8-1.4,4.8-3,6.7c-0.5,0.6-1.2,1.2-1.7,1.8c-1.2,1.3-1.2,1.7,0.4,2.4c3.9,1.9,7.3,4.6,10.2,7.8
	c2.1,2.3,3.5,5.2,4.1,8.3c1.5,7.6-4.2,12.9-10,14.8c-5.2,1.7-10.4,1.3-15.7,0.5c-3.8-0.5-7.5-1.4-11.1-2.7c-1-0.4-1.6,0.2-2.2,0.8
	c-1,1.2-1.7,2.6-2.2,4.1c-0.5,1.1-1.1,2.2-1.5,3.3c-1,3-4.5,4.3-7.7,3.8c-4.9-0.9-9.9-1.5-14.9-2.1c-5.6-0.7-11.2-1.2-16.8-1.8
	c-3.1-0.3-6.3-0.5-9.4-0.7c-5.9-0.3-11.8-0.5-17.7-0.7c-6.2-0.2-12.3-0.2-18.5-0.1c-6.6,0.1-13.1,0.5-19.7,0.9
	c-4.8,0.2-9.7,0.5-14.4,1c-5.5,0.6-11,1.2-16.4,2.2c-2.9,0.5-5.9,1-8.9,1.4c-2.1,0.5-4.3-0.5-5.4-2.4c-1.7-2.9-3.2-5.9-4.4-9
	c-0.7-1.9-1.5-2.2-3.4-1.5c-6.5,2.7-13.2,4.8-20.1,6.1c-4.1,0.9-8.3,0.8-12.4-0.2c-3.9-1.1-5.9-5-4.9-9.4c0.4-2.3,1.5-4.5,3.1-6.2
	c1.3-1.4,0.8-3.3,1-5c0.7-8,1.3-16,1.9-24c0.2-1.4-0.1-2.9-0.8-4.1c-0.7-1-1.1-2.1-1.4-3.2c-0.5-3,1.1-4.9,3.4-6.3
	c3.3-1.9,7.1-2.9,10.9-2.9c3.9-0.3,7.8,0.3,11.5,1.6c1,0.4,1.5,0.1,1.9-0.8c1.3-2.4,3.2-4.5,5.6-5.9c5.9-3.7,12.4-5.4,19.4-3.5
	c5.9,1.6,10.5,5,13,10.7c0.2,0.9,1.1,1.4,1.9,1.2c0.1,0,0.2-0.1,0.3-0.1c2.3-0.6,4.7-0.6,6.9-0.1c2.1,0.5,3.8,2.1,4.5,4.2
	C89.7,107.8,90.2,108.8,90.9,109.6z M179.5,132.1L179.5,132.1l0.3,0.4c0.2,0.3,0.2,0.6,0,0.8c-0.7,0.3-1.4,0.6-2.1,0.8
	c-1.4,0.2-2.3,1.6-1.7,2.7c1,1.8,2.1,3.6,4.5,4c3.7,0.6,7.4,0.5,11,1.5c0.8,0.1,1.6,0.1,2.4,0c1.4-0.1,2.4-1.3,2.3-2.6
	c0-0.2-0.1-0.4-0.1-0.6c-0.5-1.5-1.4-2.7-2.7-3.5c-0.9-0.4-1.6-1.3-1.8-2.3c-0.4-1.3-0.7-2.6-1.1-3.8c-0.5-1.4-0.1-3,1.1-4
	c1.9-1.8,3.7-3.6,5.5-5.5c1.1-1.1,2-2.4,3-3.7c1.3,6.1,4.3,8.6,8.9,11.5c3.2,2,6.1,4.2,9.1,6.4c2.4,1.8,4.5,4.2,7.1,5.8
	c1.5,0.8,2.6,2.2,2.9,3.9v0.9c-1,3.4-3.1,4.6-6.7,3.4c-2.2-0.7-4.3-1.8-6.2-3.1c-1.1-0.7-2-1.7-2.4-3c-0.8-2.4-2-4.6-3.6-6.5
	c-1-1.6-2.8-2.5-4.8-2.4c-1.5,0.1-2.4,1-2.1,2.5c0.4,2.2,0.9,4.4,1.5,6.5c1,3.6,2.2,7,4.9,9.8c1.5,1.5,2.2,2,4.3,1.4
	c0.9-0.3,1.8-0.7,2.8-0.2c2.5,1.4,5.2,2.1,8,2.3c3.2,0.2,6.5,0.6,9.5-0.7c6.5-2.7,8.6-9.5,5.9-15.7c-0.2-0.8-0.9-1.4-1.7-1.7
	c-0.5-0.5-0.8-1.1-1-1.7c-1.2-2.4-3.4-3.9-5.4-5.5c-2.9-2.2-6.3-3.6-9.3-5.7c-2.4-1.7-5.3-2.7-7.6-4.8c-1.3-1-1.6-2.8-0.6-4.1
	c0.2-0.3,0.5-0.5,0.8-0.7c2.3-1.6,7.1-1,8.8,1.2c0.8,1,1.7,2,2.5,3.1c0.8,1.1,2.1,1.7,3.5,1.6c1.3-0.1,2.3-1.2,2.4-2.5
	c-0.1-1.5-0.3-2.9-0.8-4.3c-0.6-1.5-1-3.2-2.7-4l-0.2-0.6c-0.2-0.8,0.3-2.2-1.4-1.7l0,0c-0.4-1-1.6-1.4-2.5-1
	c-0.1,0.1-0.2,0.1-0.3,0.2c-1.3,0.9-2.9,1.1-4.3,0.6c-1.4-0.3-2.8-0.6-4.2-0.8c-4.1-0.5-8.3,0.7-11.6,3.3c-0.3,0.2-0.6,0.4-0.4,0.9
	v0.1c-0.7-0.7-0.9-1.7-0.7-2.7c0.2-3.2-1.3-5.7-3-8.2c-0.2-0.3-0.5-0.8-1.1-0.7l0,0c0.1-0.5-0.1-0.6-0.5-0.7l-0.3-0.3
	c-0.9-2.4-3.1-3-5.1-3.6c-3.5-0.7-7.2-0.6-10.7,0.2c-2.4,0.6-4.3,2.5-4.8,5l0,0c-1.6,0.8-1.8,2.4-2.6,3.8c1.9-0.1,1.9,0,1.7,1.3
	c-0.2,1.1-0.8,1-1.5,0.9c-3.4-0.2-6.8-0.4-10.2-0.3c-1.2,0-2.5-0.4-3.5,0.7c-0.2,0.1-0.4,0.1-0.5,0c-1.7-1-3.6-1-5.5-1.1
	c-6.7-0.5-13.4-0.7-20.1-0.5c-1.8,0.2-3.6,0.1-5.4-0.1c-3.1-0.6-6.5-0.2-9.8-0.1c-0.9-0.1-1.8,0.5-1.9,1.5c-0.1,1-0.6,2.2,0.6,3
	v-0.1c0.3,1.2,1.2,2.3,2.4,2.8c0.5,0.1,0.8,0.6,0.9,1.1c0.2,2.3,0.3,4.6,0.3,6.8c0,0.3,0.1,0.8-0.4,0.9c-0.5,0.1-0.6-0.2-0.9-0.5
	c-0.8-0.7-1.5-1.4-2.3-2.2c-3.5-3.3-7.3-6.3-10.2-10.2c-0.9-1.2-2.2-2-3.7-2.3c-2.9-0.6-5.9-0.2-8.8-0.3c-0.7,0-1.3,0.3-1.8,0.7
	c-0.4,0.2-0.9,0.6-0.4,1.2c0.1,1.2-0.2,2.4,0.9,3.3c-0.1,0.7,0.3,1.4,0.9,1.8c0.4,0.2,0.6,0.5,0.7,1c0,1.5,0.3,2.9,0.2,4.4
	c-0.4,4.4-0.6,8.9-0.6,13.3c0.1,1.8-0.1,2-2.1,1.8c2.4-5.5,2.4-6.1-0.9-8.2l0,0c-0.2-1.4-1.2-1.3-2.2-1.2c-2.2,0.4-3.2,2.2-4.3,3.8
	c-0.2,0.3-0.2,1-0.9,0.9c-0.6-0.1-0.6-0.6-0.8-1c-1-2.2-1.8-4.4-2.8-6.6c-0.6-1.4-1.3-2.8-2.9-3.3c-0.3-0.1-0.5-0.4-0.5-0.7
	c-1-1.1-2.7-1.2-3.8-0.2c-0.3,0.3-0.6,0.7-0.7,1.1c-0.3,0.8-0.4,1.7-0.6,2.5c-0.1,0.3-0.1,0.7-0.5,0.6c-0.4,0-0.3-0.3-0.4-0.6
	c-0.1-1.6-0.2-3.2-0.3-4.9c0-0.6,0.1-1.1,0.8-1.2c1.8-0.4,3.6-0.6,5.4-0.6c1.2,0,2.4,0.5,3.1,1.5c1.2,1.6,2.7,2.9,4.5,3.8
	c1.5,0.6,3.2,0.2,4.3-1c1-1.2,0.3-2.2-0.2-3.2c-0.8-1.7-2.5-2.9-3-4.9c0-0.2-0.4-0.3-0.6-0.4c-0.7-0.3-1.2-0.8-1.5-1.5
	c-0.5-0.9-1.4-1.4-2.4-1.3V106c0-1-0.6-1.2-1.2-0.8c-0.6,0.5-1.3,0.6-2,0.3c-1.2-0.3-2.4-0.3-3.6,0c-2.4,0.3-2.5,0.3-3.1-2.1
	c-0.3-1.5-1-3-1.9-4.2c-1.3-1.6-3-2.9-5-3.7c-5.2-2.5-11.2-2.7-16.6-0.6c-0.9,0.4-2.2,0.6-2.5,1.9l0,0c-0.2-0.2-0.6-0.2-0.8,0
	c-2.4,1.9-4.2,4.6-5.1,7.5c-1,3.4-0.4,6.9-0.8,10.3c0,1.2-0.9,2.3-2.1,2.4c-2.4,0.5-4.8,0.9-7.1,1.4c-0.9,0.2-1.2,0-1.2-0.9
	c0.1-1.7,0.3-3.4,0.2-5c-0.2-1.1,0.4-2.1,1.5-2.3c0.1,0,0.1,0,0.2,0c1.2-0.3,2-1.4,1.7-2.7c-0.1-0.4-0.3-0.8-0.5-1.1
	c-1.6-1.6-3.3-3.1-5.9-3.2c-2.2,0.1-4.3,0.4-6.5,0.9c-1.9,0.2-3.8,0.8-5.4,1.9c-1.2,0.9-1.5,2.6-0.6,3.8c0.3,0.4,0.7,0.7,1.1,0.9
	c0.8,0.2,1.3,1,1.1,1.8c0,0,0,0,0,0c-0.1,0.9-0.1,1.7-0.1,2.6c-0.1,2.9,0,5.8-0.3,8.7c-0.1,1.9-0.2,3.9-0.1,5.9v1.2
	c-0.6,0.9-0.3,1.9-0.4,2.8c-0.3,3.7-0.6,7.5-0.8,11.2c-0.1,2,0.5,4.5-2.4,5.4c-0.2,0-0.3,0.4-0.4,0.6l0,0c-1.1,0.5-1.6,1.7-1.2,2.8
	c0.1,0.3,0.3,0.5,0.5,0.8c1.7,1.6,3.6,2.7,6.2,2.1c2.4-0.8,5-1.5,7.5-2c1.8-0.1,3.5-0.5,5.2-1.1c1-0.3,1.8-1.1,1.9-2.2
	c0.2-1.1-0.4-2.3-1.5-2.8c-0.8-0.4-1.5-1.1-2.3-1.5c-0.5-0.3-0.8-0.8-0.7-1.4c0.1-2.6,0.3-5.3,0.5-7.9c0.2-2.4,0.4-4.6,0.6-7
	c0-0.5,0-1.1,0.7-1.2c3.1-0.5,6-1.5,9.1-1.7c0.8-0.1,1.2,0.2,1.2,1.1c0,3.6,0,7.1,0,10.7c0.1,0.7-0.3,1.3-1,1.6
	c-0.8,0.4-1.6,0.8-2.4,1.3c-1.2,0.6-1.6,2-1,3.2c0.1,0.2,0.2,0.4,0.4,0.6c1.8,1.5,3.7,2.7,6.3,1.9c2.9-0.8,5.9-1.4,9-2
	c1.3-0.3,2.7-0.6,4-0.9c1-0.2,2-0.6,2-1.7c0-1-0.6-1.9-1.5-2.4c-1.6-1.1-3.3-2.2-3.4-4.4c-0.1-4.6-0.3-9.3-0.4-13.9
	c0-1.4,0.1-2.9,0-4.3c-0.4-2.9,0-5.9,1-8.7c2.1-5.6,5.3-7,10.4-7.6c2.3-0.1,4.5,0.6,6.3,1.9c0.6,0.3,1.6,0.4,1.5,1.3
	c-0.1,0.9-1.2,0.1-1.5,0.7H69c-0.5-0.1-1.1-0.2-1.7-0.2c-3.4,0.5-6.9,0.5-10.3,1.2c-2.2,0.3-3.8,2.3-3.6,4.5c0.4,2,2.1,3.4,4.2,3.4
	c0.8,0,1.4,0.1,1.4,1.2c0,0.5,0.2,1.1,0.2,1.7c0,5,0.5,10.1,0.4,15.1c0.1,1-0.4,1.9-1.3,2.3c-0.9,0.3-1.7,1.1-1.9,2
	c-0.2,1.9,0.8,3.8,2.5,4.7c0.9,0.4,1.8,1.2,2.8,0.7c1.2-0.5,2.4-0.6,3.7-0.5c1.3,0.1,2.6,0.1,3.9-0.1c2.1-0.5,4.3-0.7,6.4-0.8
	c3.7-0.4,7.4-0.6,11.1-1c1.5,0,3-0.8,3.9-2c0.9-1.2,1.2-1.2,2.1,0.2c0.5,0.8,1.3,1.3,2.3,1.3c3.2,0,6.3,0.1,9.5,0
	c1.5-0.1,3.2-1.3,2.9-3c-0.4-1.6-1.3-2.9-2.6-4c-0.4-0.4-0.8-0.7-0.8-1.4c0-3.4,0-6.7,0-10.1c0-0.4,0-0.9,0.5-1
	c0.5-0.2,0.6,0.2,0.9,0.5c3,2.8,6.1,5.5,9,8.5c3.4,3.5,7.4,6.2,11.2,9.2c0.4,0.3,0.9,0.6,1.3,0.7c1,0.6,2.3,0.2,2.9-0.9
	c0.2-0.3,0.2-0.6,0.3-0.9c0-0.7,0-1.4,0-2.1c-0.1-6.7-0.2-13.4-0.3-20.2c-0.2-1.2,0.4-2.4,1.5-2.9c1.4-0.5,3-0.2,4.2,0.7v0.9
	c0,0-0.1,0.1-0.1,0.1c0,0.1,0.1,0.1,0.2,0.2l0,0c0,6.1,0,12.3,0,18.4c-0.2,1.3-1.2,1.1-2.1,1c-1.4-0.2-1.8,0.5-1.9,1.7
	c0,0.6,0.1,1.3,0.3,1.9c0.8,0.9,1.3,2.2,2.9,2.2c4,0,7.9,0,11.9,0c1.5,0,2.2-1.1,1.9-2.6c-0.3-1.3-1.1-2.5-2.2-3.2
	c-1.8-1.1-1.2-2.5-1.2-3.9c0-0.5,0.3-1.1,0.3-1.6c0.1-2.2,0.1-2.2,2.2-2.2c0.4,0,0.7,0,1.1,0c1-0.2,2,0.4,2.4,1.3
	c0.6,1.3,1.5,2.4,2.6,3.3c0.3,0.1,0.5,0.5,0.5,0.8c0.4,1.1-0.4,1.5-1.2,1.8c-1.5,0.6-2,1.6-1.2,2.9c1.3,2.2,3,3.7,5.8,3.7
	c2.9-0.2,5.9,0,8.8,0.5c1.2,0.3,2.4,0.1,3.4-0.4c1.1-0.4,1.8-1.6,1.4-2.8c0-0.1-0.1-0.3-0.2-0.4c-0.9-1.4-1.7-3.2-3.5-3.6
	c-2.1-0.5-3.2-2.1-4.3-3.8c-0.8-1.1-1.6-2.2-2.4-3.3s-0.9-1.5,0.4-2.1c0.8-0.4,1.5-0.9,2-1.6c1.7-2.4,1.5-5,0.9-7.6
	c-0.1-0.4-0.5-0.7,0-1.1c0.5-0.4,0.9-0.1,1.3,0c1,0.5,1.9,1.2,2.5,2.1c4.1,3.9,8.2,7.7,11.1,12.6c0,1.3,0.6,2.6,0.3,4
	C179.2,132,179.3,132.1,179.5,132.1z M158.4,148.1c0.2,2.6,0,5.1-0.5,7.6c-1-2.3-1.9-4.3-2.7-6.4c-0.4-1-0.8-2-2.2-1.9
	c-1.4,0-2.4-0.1-3.2,1.6c-0.9,2.2-2.1,4.2-3.5,6.1c-0.1-1.9,0-3.8,0.2-5.7c0.1-0.7,0.5-1.7-0.4-2.1c-1.1-0.5-2.3-0.2-3.5-0.2
	c-0.7,0-0.8,0.7-1.1,1.1c-0.3,0.4-0.8,0.9-1.2,0.1c-0.9-1.7-2.5-1.3-4-1.5c-0.8-0.1-1.1,0.2-1.1,1c0,2.5-0.2,5.1-0.2,7.6
	c0,0.6-0.4,1.7,0.7,1.6c1.1-0.1,2.8,1.1,3.2-1.1c0.1-0.8,0.6-0.7,1.1-0.7c0.5,0.1,1.5-0.4,1.6,0.6c0.1,1,0.8,1.2,1.6,1.2
	c1,0,2,0,3.1,0c1.4-0.1,2.9,0.3,4.3-0.5c0.8-0.5,1.7-0.3,2.4,0.3c0.5,0.6,1.3,0.9,2.1,0.9c1.7,0,3.5,0,5.2,0c1,0.1,2.1-0.4,3-0.2
	c2.9,0.8,5.9,1.3,8.9,1.3c0.5,0,1.1-0.3,1.6-0.2c4.2,0.9,8.5,0.9,12.6,1.7c0.7,0.1,1.1-0.2,1.1-0.9c0.2-1.2,0.1-2.3-0.3-3.4
	c-0.3-0.4-0.2-0.9,0.2-1.3c0,0,0.1-0.1,0.1-0.1c0.8-0.3,1.6-0.2,2.4,0.2c0.7,0.3,0.5,1,0.4,1.5c-0.1,1.1-0.5,2.1-0.5,3.2
	c-0.1,2.3,1.9,1.2,2.9,1.6c0.7,0.3,1.5,0.5,1.7-0.7c0.2-1.2,0.4-2.4,0.5-3.6c0-1,0.4-1.2,1.3-1c0.9,0.2,1.6-0.1,1.5-1.2
	c0-0.5,0.1-0.9,0.2-1.3c0.2-0.9-0.1-1.4-1.2-1.5c-2.2-0.2-4.3-0.6-6.5-0.9c-6.3-1-12.7-1.6-19-2.2c-1.6-0.1-1.7,0.5-1.8,1.7
	c-0.1,2.1-0.3,4.3-0.8,6.3c-1.7-1.9-1.7-1.9-1.1-2.9c1.1-1.7,0.6-4-1.1-5.1c-0.4-0.3-0.9-0.5-1.5-0.5
	C162.9,148,160.6,147.9,158.4,148.1L158.4,148.1z M87.2,157.4c-0.6-0.6-1.2-1.2-1.8-1.7c-0.5-0.4-0.7-1.1-0.3-1.6
	c1.2-2.2-0.6-5.2-3.7-5.2c-1.4,0-2.7,0.2-4.1,0.3c-2,0.1-2,0.1-1.9,2c0.1,1.9,0.4,4,0.6,6.2c-0.3-0.2-0.4-0.3-0.5-0.4
	c-0.9-1.4-1.7-2.7-2.5-4.2c-1.5-2.8-2.4-3.2-4.9-2.5c-0.5,0.1-0.9,0.5-1,0.9c-0.9,2.8-1.8,5.6-2.8,8.4c-0.2,0.7-0.3,1.2,0.8,1
	c1.3-0.3,2.6,0,3.8-1.2c0.8-0.8,2.3,0.1,3.5,0.2c2.2,0,4.4-0.2,6.6-0.6c0.8-0.1,1.7,0.3,2.2-0.9c0.1-0.3,1.3,0.7,2.2,0.6
	c2.5-0.3,4.9-0.5,7.4-0.6c0.6,0,1-0.2,1-0.9c0-0.7,0.4-1,1-0.9s1.7-0.5,1.7,0.8c0,0.5,0.4,0.7,0.8,0.7c1.1-0.1,2.1-0.2,3.2-0.3
	c0.6-0.1,0.6-0.6,0.6-1c-0.1-2.5-0.2-5-0.4-7.5c0-0.5,0-1-0.6-1.3c-1.6-0.4-3.3,0.1-4.5,1.4c-0.6,1-1.1,0.7-1.5-0.1
	c-0.2-0.7-1-1.1-1.7-0.8c0,0,0,0,0,0c-0.7,0.2-1.4,0.2-2.1,0.2c-0.9,0-1.2,0.3-1.2,1.2c0.2,1.9,0.3,3.8,0.5,5.7
	C87.6,155.9,87.8,156.7,87.2,157.4L87.2,157.4z M112.6,147.1h-2.9c-0.5,0-1,0.2-0.9,0.8c0.4,2.7,0.1,5.4,0.2,8.1
	c0,0.5,0.1,0.9,0.7,0.9c1.2,0,2.4,0,3.6,0c0.5,0,0.7-0.9,1.3-0.5c1.7,1,3.6,0.2,5.4,0.4c0.6,0.1,1-0.8,1.8-0.3
	c1.2,0.6,2.5,0.7,3.7,0.4c2.3-0.3,4.6-3.1,2.5-5.5c-0.4-0.4-0.2-0.8,0-1.3c0.7-1.5,0.5-2.3-1.2-2.9c-0.9-0.4-1.8-0.6-2.8-0.6
	c-3.3-0.2-4.9,1.9-4,5.1c0.3,0.6,0.2,1.3-0.3,1.8c-0.3,0.3-0.6,0.9-1.2,0.4c-0.6-0.5-0.5-0.7-0.2-1.3c1.2-2.1,0.5-3.9-1.6-5.1
	C115.4,146.9,114,147.2,112.6,147.1L112.6,147.1z M55.8,153c0.4,2.6,0.8,5.3,1.2,8c0,0.4,0.4,0.8,0.8,0.8c0,0,0.1,0,0.1,0
	c1-0.1,1.9-0.3,2.8-0.5c0.7-0.1,1-0.4,0.8-1.2c-0.2-1,0.1-1.6,1.2-1.6c1.3,0,1.4-0.7,1.2-1.7c-0.1-0.6-0.5-1.3,0-1.9
	c1.1-1.3,0.2-2.5,0-3.7c0-0.3-0.3-0.3-0.6-0.3l-6.9,1.1C55.9,152.1,55.8,152.4,55.8,153L55.8,153z M107.8,150.3c0-2.8-0.2-2.9-2.6-3
	c-1.7,0-3.4,0.5-5.1,0.3c-0.8-0.1-0.6,0.5-0.6,0.9c0.1,2.7,0.2,5.4,0.3,8.1c0,0.7,0.4,1,1.1,0.9c1.9-0.2,3.7-0.3,5.6-0.2
	c1.2,0,1.6-0.3,1.7-1.6C108.2,153.8,107,152,107.8,150.3L107.8,150.3z"/>
<path class="st1" d="M219.4,82.4c1.2,1.4,1.9,3.2,2.1,5.1c0.2,1.9-1.2,3.3-2.7,4.3c-2.2,1.3-4.6,2.3-7,3c-1.1,0.4-2.1,0.8-3,1.4
	c-1.9,1.2-2.2,2.5-1.1,4.5c0.2,0.3,0.7,0.7,0.1,1c-0.5,0.3-0.7-0.3-0.9-0.6c-1.1-1.9-1.9-4-2.4-6.1c-0.7-3.3,1.4-6,4.5-7.5
	c2-0.9,4.2-1.6,6.4-2C217.2,85.2,218.7,84,219.4,82.4z"/>
<path class="st2" d="M179.7,133.3c0.2-0.3,0.2-0.6,0-0.8c0.1-0.2-0.1-0.3-0.3-0.4l0,0l-0.1-0.3c0.3-1.4-0.3-2.6-0.3-4
	c0.2-1.6-0.9-2.7-1.8-3.7c-3.7-4.5-7.8-8.8-12.1-12.7c-1-1-2.4-1.4-3.7-1c1.2,2.1,1.6,4.6,1.2,6.9c-0.6,2.6-2.4,4-5,4.8
	c1.8,2.4,3.4,4.7,5.1,6.9c1.3,1.7,2.4,3.6,4.9,4.1c1.2,0.1,2,1.2,1.9,2.3c0,0.3-0.1,0.6-0.3,0.8c-0.5,0.9-1.5,1.4-2.6,1.2
	c-3.9-0.5-7.7-0.4-11.6-0.7c-0.8,0-1.5-0.3-2.1-0.9c-1.2-1.2-1.1-2.3,0.4-3c0.6-0.3,1.3-0.5,2-0.7c-0.3-0.6-0.5-1.3-1.2-1.5
	c0.1-0.3-0.1-0.7-0.5-0.8c-0.4-1.2-1-2.2-1.8-3.2c-2.4-3.9-2.4-3.9-7-3.8h-0.3c-0.9-0.1-1.1,0.3-1.2,1.2c0,1.9-0.1,3.8-0.2,5.6
	c-0.1,1.5-0.6,3.2,1.9,3.2c0.2,0,0.4,0.1,0.5,0.3c0.8,0.6,1.2,1.6,1,2.6c-0.3,1-1.2,0.9-2,0.9l-12.8-0.1c-0.2-0.6-0.3-1.2-0.3-1.9
	c0-1.2,0.4-1.9,1.9-1.7c0.8,0.2,1.8,0.4,2.1-1c0.7-0.2,0.4-0.9,0.4-1.3c0-5.3,0-10.6-0.1-15.9c0-0.4,0.3-0.9-0.3-1.2l0,0l-0.1-0.3
	v-0.9c0.4-1-0.2-2.1-1.2-2.5c0,0-0.1,0-0.1,0c-3.8-1.3-6.4-0.6-6.3,3.7c0,0.9,0,1.8,0,2.7c0.2,6.1,0.3,12.1,0.2,18.2
	c0,0.7,0.3,1.5-0.5,1.9c-0.9,0.5-2,0.3-2.7-0.3c-2.9-2.4-6.1-4.3-8.8-6.8c-4-3.7-7.9-7.5-11.9-11.2c-0.5-0.5-1-1.3-1.7-1
	c-0.7,0.3-0.4,1.3-0.4,1.9c0,3.9,0,7.8-0.1,11.8c0,0.9,0.2,1.2,1.1,1.4c1.5,0.2,2.5,1.6,2.4,3c-0.2,1.6-1.6,1.5-2.7,1.7
	c-2.9,0.3-5.8,0.4-8.7,0.3c-1.8,0-2.7-0.8-2.6-2.4c0-1.8,1.4-1.7,2.5-1.6c1.5,0.1,1.9-0.8,1.9-2c0-1.3,0-2.5,0.1-3.8
	c0.2-2.6,0.3-5.2,0.5-7.8c0.3-1.9,0.3-3.7,0-5.6c0-0.7,0-1.3,0-2c-0.1-2-0.1-2-2.2-1.8c-1.1-0.9-0.8-2.1-0.9-3.3
	c0.6-0.9,1.7-1.4,2.8-1.3c2.1,0,4.2-0.1,6.2,0c2-0.1,4,0.8,5.2,2.4c3.9,4.9,8.8,9,13.4,13.2c0.3,0.3,0.5,0.5,0.9,0.4
	c0.4-0.1,0.3-0.6,0.4-0.9c0-0.4,0-0.7,0-1.1l0.1-0.1l-0.1-0.1v-1.3c0,0,0.1-0.1,0.1-0.1c0-0.1-0.1-0.1-0.1-0.2v-1l-0.1-1.9
	c0-1.4-0.1-2.8-0.1-4.2c0-0.6-0.2-1-0.8-0.9c-1,0-2.1-0.3-2.9-1v0.1c0-0.2,0-0.4,0-0.6c-0.6-2.7-0.1-3.4,2.6-3.4c2.7,0,5.1,0,7.6,0
	c0.8-0.1,1.6,0.3,2.1,0.9c0.2,0.3,0.4,0.8,0.9,0.4c1.7-1.3,3.8-1.2,5.7-1.2c6.2,0.1,12.3,0.3,18.5,0.6c1.6,0.1,3.4,0.1,4.6,1.5
	c0.2,0.2,0.5,0.4,0.6,0c0.4-1.2,1.6-0.9,2.4-1.3c0.5,0.1,1.1,0.1,1.6,0c2.6,0.3,5.2,0.1,7.8,0.3c2.4,0.2,4.7,0.3,7,0.7
	c1.4,0.2,2.3,1.5,2.2,2.9c0,1.4-1.2,1.3-2,1.6c-0.3,0.1-0.6,0.2-0.9,0.2c-0.9,0-0.7,0.5-0.4,1c2,2.8,4.3,5.5,6.8,7.8
	c0.5,0.5,1.3,0.6,1.9,0.1c1.4-0.9,2.6-2.1,3.4-3.6l0,0c1.4-1.2,2.5-2.8,3.2-4.5c0.6-1.1,0.7-2.4,0.2-3.6l-0.3-1.9
	c-0.3-3.2-2.5-4.9-5.3-5.8c-3.8-1.2-7.5-0.5-11.2,0.9c-0.5,0.2-1,0.7-1.7,0.3l1.2-2.5l0,0c1.3-1.5,2.3-3.3,4.2-4
	c3.3-1.1,6.8-1.4,10.3-0.8c2.1,0.3,4.1,1.4,5.5,3c0.1,0.1,0.3,0.3,0.5,0.2l0.3,0.3c-0.2,0.5,0.2,0.5,0.5,0.7l0,0
	c0.1,0.2,0.2,0.5,0.3,0.7c2.5,3.8,2.6,8.7,0.4,12.6c-0.9,1.6-2,3.2-3.3,4.6c-1.7,2-3.6,3.9-5.6,5.6c-1.6,1.2-2.3,3.4-1.5,5.3
	c0.5,1.3,0.9,2.6,1.2,3.9c0.4,1.8,0.7,3.5,3,3.8c1,0.2,1.7,1.2,1.4,2.3c0,0,0,0.1,0,0.1c-0.2,1.1-1.2,1.8-2.2,1.7
	c-0.6,0.1-1.1,0.1-1.7,0c-3.9-1-8-0.9-11.9-1.6c-1.1-0.2-2-1.1-2.1-2.2c-0.2-1.2,0.8-1.3,1.6-1.6c0.4-0.1,0.8-0.2,1.2-0.3
	C179.9,134.2,179.8,133.8,179.7,133.3z M155.2,113.6c0.4-1-0.4-1.4-1-1.8c-0.9-0.7-2-1-3.2-1c-2,0-4,0-5.9-0.1c-0.9,0-1,0.4-1.1,1.1
	c-0.1,1.8-0.1,3.7,0,5.5c0,0.5,0.2,0.9,0.8,0.9c2.5,0,5.1,0.2,7.6,0.2c1.6,0,2.8-1.2,2.8-2.8c0-0.2,0-0.4-0.1-0.6L155.2,113.6z"/>
<path class="st2" d="M15.6,130.9v-1.2c0.6-0.3,0.4-0.8,0.4-1.2c0-2,0.1-3.9,0.3-5.9c0.3-3.7,0.3-7.3,0.5-11c0-0.6,0-1-0.7-1
	c-0.2,0-0.5-0.1-0.7-0.3c-1.8-1-2-3-0.1-3.9c3.5-1.6,7.3-2.5,11.2-2.6c0.7,0,1.4,0.1,2.1,0.5c1,0.5,1.9,1.2,1.8,2.4
	c-0.1,1.1-1,2-2.2,1.9c-0.9,0.1-1.2,0.6-1.2,1.5c-0.1,2.7-0.2,5.5-0.4,8.2c-0.1,1.2,0.3,1.4,1.4,1.2c3.6-0.7,7.1-1.5,10.8-2.1
	c1.2-0.2,1.6-0.7,1.6-1.9c0-2.4,0.2-4.7,0.2-7c0-4.6,2.2-9,5.9-11.8l0,0c5-3.2,10.3-3.6,16-2.1c4.6,1.2,6.8,4.4,7.7,9
	c-1.2-0.7-2.2-1.3-3.3-1.8c-4.3-2.2-8.6-2.1-12.5,0.8c-3.7,2.7-5,6.7-5.1,11.1c-0.2,8,0.5,16,0.6,24c0,1.2,0.3,1.8,1.6,1.8
	c0.6,0.1,1.1,0.2,1.6,0.5c0.9,0.3,1.5,1.1,1.5,2.1c-0.1,1-1.1,1.1-1.8,1.3c-4.3,1.2-8.8,1.7-13.1,3c-0.8,0.2-1.6,0.2-2.4,0
	c-0.7-0.1-1.3-0.6-1.5-1.3c-0.2-0.7,0.1-1.5,0.8-1.9c0.9-0.7,1.9-1.2,3-1.6c0.7-0.2,1.1-0.8,1-1.5c0-4.6,0-9.3,0-13.9
	c0-1-0.3-1.2-1.3-1c-3.8,0.8-7.7,1.6-11.5,2.4c-0.9,0.2-1.3,0.5-1.4,1.5c-0.2,5.1-0.6,10.2-0.9,15.3c-0.2,0.7-0.2,1.5,0,2.3
	c0.4,1,1.3,0.4,2,0.5c1.2,0.1,2.1,1,2.3,2.1c0.2,1.3-0.7,2-1.7,2.4c-0.8,0.3-1.6,0.5-2.5,0.7c-3,0.4-5.9,1.1-8.8,2
	c-1.1,0.4-2.3,0.6-3.5,0.5c-1.1,0-2-1-1.9-2.1c0-0.3,0.1-0.6,0.3-0.9c0.2-0.3,0.4-0.6,0.5-0.9l0,0c2.9-0.9,2.9-0.9,3.2-3.8
	c0-0.3,0.1-0.6,0.1-0.9C15.4,141.1,15.7,136,15.6,130.9z"/>
<path class="st2" d="M236.5,135.5c0.2,0.7,0.5,1.2,1,1.7c0.1,1.7,0.7,3.2,0.8,4.9c0.3,5.1-3.4,10.1-8.5,10.7
	c-5.1,0.6-10,0.5-14.6-1.9c-0.9-0.5-2.1-0.6-3.1-0.3c-2.9,0.9-3.6,0.6-5.1-2c-2.5-4.1-3-8.8-4.1-13.3c-0.3-1,0.4-1.7,1.6-1.8
	c1.7-0.2,3.3,0.6,4.1,2.1c0.9,1.4,1.6,3,2.2,4.5c0.4,1.3,1.1,2.5,2,3.6c2.5,2.4,5.5,4.1,8.8,5c1,0.3,2.1,0.3,3.2,0.2
	c2.6-0.3,3.6-1.6,3.3-4.2v-0.9c0.3-1,0.1-2.1-0.6-2.9c-0.7-1-1.6-1.9-2.6-2.6c-6.4-5.3-13.1-10.3-20-14.9c-4.7-3-5.2-8.2-1.7-12.4
	v-0.1c1.4-0.8,2.6-1.8,4-2.5c3.9-1.9,7.9-1.5,11.9-0.6c1.3,0.5,2.7,0.4,4-0.2c1-0.8,2.4-0.8,3.5-0.2l0,0c0.3,0.7,0.8,1.3,1.4,1.7
	l0.2,0.6c0.5,2,1.4,3.7,1.6,5.8c0.2,1.3-0.6,2.5-1.8,2.7c-0.3,0.1-0.7,0.1-1,0c-1.3-0.3-2.3-1.3-2.8-2.5c-2-3.3-4.9-4.4-8.6-4
	c-1.7,0.2-3.3,0.7-4,2.5c-0.6,1.7-0.2,3.6,1.2,4.8c1.7,1.6,3.6,2.9,5.7,4c5.1,3.3,10.7,5.9,15.3,10
	C234.6,133.8,235.2,135.1,236.5,135.5z"/>
<path class="st2" d="M69,106.2h0.5c0.1,0.4,0.5,0.3,0.7,0.3c1.9-0.2,3.8-0.4,5.7-0.5c2.1,0,4.2-0.8,6.3,0v0.1
	c2.1,2.2,3.9,4.5,5.4,7.1c0.5,0.9,1,1.7,0,2.6c-1.3,1.1-3.2,1.1-4.5,0.1c-0.8-0.6-1.5-1.4-2-2.3c-1-1.7-2.8-2.7-4.8-2.5
	c-1.7,0.1-3.5,0.2-5.2,0.5c-1.5,0.1-1.8,0.8-1.7,2.1c0.1,2.2,0.3,4.4,0.4,6.5c0,0.7,0.1,1.5,1,1.6c0.9,0.3,1.9-0.2,2.3-1.1
	c0.2-0.7,0.4-1.4,0.5-2.1c0.4-2.1,0.8-2.4,3-2.4c0.5,0,0.9,0.1,1.4,0.2c0,0.3,0.2,0.6,0.5,0.7c0,0.3,0,0.5,0.1,0.7
	c1.4,2.5,2.2,5.3,3.4,7.8c0.2,0.5,0.6,1,0.2,1.6c-1.2,1.4-3.2,1.8-4.8,0.8c-0.8-0.6-1.5-1.4-2-2.3c-0.2-0.5-0.6-0.9-1.1-1
	c-1.5-0.6-3.3,0.1-3.9,1.7c-0.1,0.3-0.2,0.6-0.2,1c-0.1,0.7-0.1,1.4,0,2.1c0,4.3,1.5,5.4,5.7,4.4l0,0c1.5-0.1,3,0.2,4.3-0.9l1.2-0.4
	c1.2-0.1,1.9-1.1,2.6-1.8c1.3-1.6,2.5-3.3,3.6-5c1.4-2,2.7-2.4,4.9-1.3l0,0c0.2,1.2,0.7,2.5,0,3.7c-1.1,1.9-2.1,3.9-2.9,6.1
	c-0.8,2.3-2.9,3.8-5.4,3.8c-5.7,0.4-11.4,1-17,1.5c-2.8,0.2-5.6,0.5-8.3,0.7c-0.9,0.3-1.8-0.1-2.2-0.9c-0.4-0.9-0.3-1.9,0.4-2.6
	c0.5-0.6,1.2-1.1,2-1.4c0.8-0.3,0.9-0.7,1-1.5c0.2-5.7-0.6-11.4-0.6-17.2c0-3.1-1-3.9-4.2-3.9c-1.1,0-1.3-0.5-1.4-1.4
	c-0.1-1.8,1.2-3.3,2.9-3.6c2.8-0.6,5.6-0.9,8.5-1.1C66.6,106.8,67.8,106.6,69,106.2z"/>
<path class="st0" d="M82.2,106c-2.1-0.7-4.2,0-6.3,0c-1.9,0-3.8,0.3-5.7,0.5c-0.3,0-0.6,0.1-0.7-0.3c0.3-0.6,1.4,0.1,1.5-0.7
	c0.1-0.8-0.9-1-1.5-1.3c-1.8-1.3-4-1.9-6.3-1.8c-5.1,0.6-8.3,2-10.4,7.6c-1,2.8-1.4,5.8-1,8.7c0.2,1.4,0,2.9,0,4.3
	c0.1,4.6,0.2,9.3,0.4,13.9c0.1,2.3,1.8,3.3,3.4,4.4c0.9,0.5,1.5,1.4,1.5,2.4c-0.1,1.2-1.1,1.5-2,1.7c-1.3,0.3-2.7,0.6-4,0.9
	c-3,0.7-6,1.2-9,2c-2.6,0.7-4.5-0.4-6.3-1.9c-0.9-0.9-0.9-2.4,0-3.4c0.2-0.2,0.4-0.3,0.6-0.4c0.7-0.5,1.5-1,2.4-1.3
	c0.7-0.2,1.1-0.9,1-1.6c0-3.6,0-7.1,0-10.7c0-0.9-0.4-1.2-1.2-1.1c-3.1,0.2-6.1,1.2-9.1,1.7c-0.7,0.1-0.6,0.7-0.7,1.2
	c-0.2,2.4-0.4,4.6-0.6,7c-0.2,2.6-0.3,5.3-0.5,7.9c-0.1,0.6,0.2,1.1,0.7,1.4c0.8,0.5,1.5,1.1,2.3,1.5c1.1,0.5,1.7,1.6,1.5,2.8
	c-0.1,1-0.9,1.9-1.9,2.2c-1.7,0.6-3.4,1-5.2,1.1c-2.5,0.5-5.1,1.1-7.5,2c-2.6,0.7-4.5-0.5-6.2-2.1c-0.9-0.8-0.9-2.2-0.1-3
	c0.2-0.2,0.5-0.4,0.8-0.5c0,0.4-0.3,0.6-0.5,0.9c-0.6,1-0.2,2.2,0.7,2.7c0.3,0.2,0.6,0.3,0.9,0.3c1.2,0.1,2.4,0,3.5-0.5
	c2.9-1,5.8-1.7,8.8-2.1c0.9-0.1,1.7-0.4,2.5-0.7c1-0.4,1.9-1,1.7-2.4c-0.2-1.1-1.1-2-2.3-2.1c-0.7-0.2-1.6,0.5-2-0.5
	c-0.2-0.7-0.2-1.5,0-2.3c0.3-5.1,0.7-10.2,0.9-15.3c0-1,0.5-1.4,1.4-1.5c3.9-0.7,7.7-1.5,11.5-2.4c0.9-0.2,1.3-0.1,1.3,1
	c0,4.6,0,9.3,0,13.9c0.1,0.7-0.3,1.3-1,1.5c-1.1,0.4-2,0.9-2.9,1.6c-0.6,0.4-1,1.2-0.8,1.9c0.2,0.7,0.8,1.2,1.5,1.4
	c0.8,0.2,1.6,0.2,2.4,0c4.3-1.3,8.8-1.8,13.1-3c0.7-0.2,1.8-0.2,1.8-1.3c0-1-0.6-1.8-1.5-2.1c-0.5-0.3-1-0.5-1.6-0.5
	c-1.3,0-1.6-0.6-1.6-1.8c-0.1-8-0.7-16-0.6-24c0.1-4.4,1.4-8.4,5.1-11.1c4-2.9,8.2-2.9,12.5-0.8c1.1,0.5,2.1,1.2,3.3,1.8
	c-0.8-4.6-3.1-7.7-7.7-9c-5.6-1.5-11-1.2-16,2.1c0.3-1.3,1.5-1.6,2.5-1.9c5.3-2.1,11.3-1.9,16.6,0.5c1.9,0.8,3.6,2.1,5,3.7
	c0.9,1.3,1.6,2.7,1.9,4.2c0.6,2.4,0.7,2.5,3.1,2.1c1.2-0.3,2.4-0.3,3.6,0c0.7,0.3,1.4,0.1,2-0.3C81.6,104.8,82.3,105,82.2,106z"/>
<path class="st0" d="M69,106.2c-1.2,0.4-2.4,0.6-3.6,0.6c-2.8,0.2-5.7,0.5-8.5,1.1c-1.7,0.3-3,1.8-2.9,3.6c0,0.9,0.3,1.4,1.4,1.4
	c3.2,0,4.1,0.7,4.2,3.9c0,5.7,0.8,11.4,0.6,17.2c0,0.8-0.2,1.2-1,1.5c-0.8,0.3-1.4,0.8-1.9,1.4c-0.6,0.7-0.8,1.8-0.4,2.6
	c0.3,0.7,1.1,1.1,1.9,0.9c2.8-0.2,5.6-0.4,8.3-0.7c5.7-0.5,11.4-1,17-1.5c2.4,0,4.6-1.5,5.4-3.8c0.8-2.1,1.7-4.1,2.9-6.1
	c0.8-1.2,0.2-2.4,0-3.7c3.3,2,3.3,2.6,0.9,8.2c2.1,0.2,2.2,0,2.1-1.8c0-4.4,0.2-8.9,0.6-13.3c0.1-1.5-0.3-2.9-0.2-4.4
	c0-0.4-0.3-0.8-0.7-1c-0.7-0.3-1-1-0.9-1.8c2-0.2,2.1-0.2,2.2,1.8c0,0.7,0,1.3,0,2c0,1.9,0,3.7,0,5.6c-0.1,2.6-0.2,5.2-0.5,7.8
	c-0.1,1.3-0.1,2.5-0.1,3.8c0,1.2-0.3,2.1-1.9,2c-1.2-0.1-2.5-0.2-2.5,1.6c0,1.6,0.8,2.4,2.6,2.4c2.9,0.1,5.8,0,8.7-0.3
	c1.1-0.1,2.5-0.1,2.7-1.7c0.1-1.5-0.9-2.8-2.4-3c-0.9-0.2-1.2-0.5-1.1-1.4c0.1-3.9,0-7.8,0.1-11.8c0-0.7-0.3-1.6,0.4-1.9
	c0.7-0.3,1.2,0.6,1.7,1c4,3.7,7.9,7.5,11.9,11.2c2.7,2.5,5.9,4.5,8.8,6.8c0.8,0.6,1.8,0.8,2.7,0.3c0.8-0.4,0.5-1.3,0.5-1.9
	c0.1-6.1,0-12.1-0.2-18.2c0-0.9,0-1.8,0-2.7c-0.1-4.3,2.5-5.1,6.3-3.7c1,0.3,1.6,1.4,1.4,2.4c0,0,0,0.1,0,0.1
	c-1.2-1-2.8-1.2-4.2-0.7c-1.1,0.5-1.7,1.7-1.5,2.9c0.1,6.7,0.2,13.4,0.3,20.2c0,0.7,0,1.4,0,2.1c0,1.2-1,2.1-2.2,2
	c-0.3,0-0.6-0.1-0.9-0.3c-0.5-0.2-0.9-0.4-1.3-0.7c-3.8-3-7.8-5.7-11.2-9.2c-2.9-2.9-5.9-5.6-9-8.5c-0.2-0.2-0.5-0.6-0.9-0.5
	s-0.5,0.6-0.5,1c0,3.4,0,6.7,0,10.1c0,0.7,0.4,1,0.8,1.4c1.3,1,2.2,2.4,2.6,4c0.3,1.7-1.4,2.9-2.9,3c-3.2,0.1-6.3,0-9.5,0
	c-0.9,0-1.8-0.5-2.2-1.3c-0.9-1.4-1.2-1.4-2.1-0.2c-0.9,1.2-2.4,2-3.9,2c-3.7,0.4-7.4,0.6-11.1,1c-2.2,0-4.3,0.3-6.4,0.8
	c-1.3,0.2-2.6,0.2-3.9,0.1c-1.3-0.1-2.5,0.1-3.7,0.5c-1,0.5-2-0.2-2.8-0.7c-1.7-0.9-2.7-2.8-2.5-4.7c0.3-1,1-1.7,1.9-2
	c0.9-0.4,1.4-1.3,1.3-2.3c0.1-5-0.4-10.1-0.4-15.1c0-0.5-0.2-1.1-0.2-1.7c0-1-0.5-1.2-1.4-1.2c-2,0-3.8-1.4-4.2-3.4
	c-0.1-2.2,1.5-4,3.6-4.4c3.4-0.7,6.9-0.7,10.3-1.2C67.9,106,68.4,106,69,106.2z"/>
<path class="st0" d="M158.4,148.1c2.2-0.2,4.5-0.1,6.7,0.4c2,0.3,3.4,2.1,3.1,4.1c-0.1,0.5-0.3,1-0.5,1.5c-0.6,1-0.6,1,1.1,2.9
	c0.5-2.1,0.7-4.2,0.8-6.3c0.1-1.2,0.2-1.8,1.8-1.7c6.4,0.6,12.7,1.2,19,2.2c2.2,0.3,4.3,0.7,6.5,0.9c1.1,0.1,1.3,0.5,1.2,1.5
	c-0.1,0.4-0.2,0.9-0.2,1.3c0,1.2-0.6,1.4-1.5,1.2s-1.3,0-1.3,1c-0.1,1.2-0.3,2.4-0.5,3.6c-0.2,1.2-1,1-1.7,0.7c-1-0.4-3,0.6-2.9-1.6
	c0-1.1,0.4-2.1,0.5-3.2c0-0.5,0.3-1.2-0.4-1.5c-0.7-0.4-1.6-0.4-2.4-0.2c-0.4,0.2-0.6,0.8-0.4,1.2c0,0,0.1,0.1,0.1,0.1
	c0.4,1.1,0.6,2.3,0.3,3.4c0,0.7-0.5,1-1.1,0.9c-4.2-0.8-8.5-0.8-12.6-1.7c-0.5-0.1-1,0.2-1.6,0.2c-3,0-6-0.5-8.9-1.3
	c-0.9-0.2-2,0.2-3,0.2c-1.7-0.1-3.5,0-5.2,0c-0.8,0.1-1.6-0.2-2.1-0.9c-0.6-0.6-1.6-0.8-2.4-0.3c-1.4,0.8-2.9,0.4-4.3,0.5
	c-1,0.1-2,0-3.1,0c-0.8,0-1.5-0.1-1.6-1.2c-0.1-1-1-0.5-1.6-0.6c-0.6-0.1-1-0.1-1.1,0.7c-0.4,2.2-2.1,0.9-3.2,1.1
	c-1.1,0.1-0.7-1-0.7-1.6c0-2.5,0.2-5.1,0.2-7.6c0-0.8,0.3-1.1,1.1-1c1.5,0.1,3.1-0.2,4,1.5c0.4,0.8,0.9,0.5,1.2-0.1
	c0.4-0.6,0.4-1.1,1.1-1.1c1.2,0,2.4-0.3,3.5,0.2c0.8,0.4,0.5,1.4,0.4,2.1c-0.2,1.9-0.3,3.8-0.2,5.7c1.4-1.9,2.6-4,3.5-6.1
	c0.7-1.7,1.8-1.5,3.2-1.6c1.4,0,1.8,0.9,2.2,1.9c0.8,2,1.7,4.1,2.7,6.4C158.4,153.2,158.6,150.6,158.4,148.1z M142.4,153.3
	c0.2,3.1,0.2,3.1,2.3,3.1c0.8,0,1.1-0.2,1.1-1c0-2.2,0.1-4.4,0.1-6.6c0-0.3,0.1-0.7-0.3-0.9c-1.3-0.4-2.7,0-3.6,1
	c-1.1,1.5-1.1,1.5-2,0c-0.8-1.1-2.2-1.7-3.5-1.3c-0.4,0.1-0.4,0.3-0.5,0.7c-0.1,2.4-0.2,4.7-0.2,7c0,0.4,0,0.7,0.5,0.8
	c1.5,0.5,2.1,0,2.2-1.5c0-0.4-0.1-0.9,0.2-1.3C140.3,155.4,141.1,154.9,142.4,153.3z M168.3,157.7l-1.7-2.2
	c-0.3-0.4-0.6-0.7-0.1-1.2c1-0.8,1.3-2.2,0.7-3.3c-0.6-1.2-1.7-1.9-3-1.9c-1.3-0.1-2.5-0.1-3.8-0.3c-1-0.1-1.2,0.3-1.2,1.2
	c0,1.8-0.2,3.6-0.3,5.3c-0.1,2-0.1,2,1.8,2.1c0.9,0.1,1.5,0,1.4-1.2c-0.1-0.5,0.1-1,0.5-1.2C163.6,157.6,165.7,157.9,168.3,157.7
	L168.3,157.7z M178.9,158.9c-0.9-1.4-1.6-2.7-2.4-3.9c-0.4-0.4-0.5-1.1,0-1.6c0,0,0.1-0.1,0.1-0.1c0.8-0.8,1.6-1.8,2.5-2.9
	c-2.2,0-4.3-1.2-5.4,1.6c-0.1-0.2-0.2-0.5-0.1-0.8c0.4-1.8-1-1.3-1.9-1.5c-1.1-0.2-1.4,0.3-1.4,1.3c-0.1,2-0.3,4-0.6,5.9
	c-0.1,0.9,0.2,1.3,1,1.2c0.8-0.1,2,1,2.3-0.7c0-0.2-0.1-0.5,0.3-0.6c0.3-0.1,0.5,0.2,0.6,0.5c0.3,0.5,0.4,1.3,1.3,1.3
	C176.3,158.5,177.5,158.7,178.9,158.9L178.9,158.9z M157.6,157.1c-1.2-3-2.2-5.7-3.4-8.3c-0.3-0.8-2.9-0.8-3.3-0.1
	c-1.3,2.3-2.5,4.6-3.7,7c-0.1,0.2-0.4,0.7,0,0.7c0.8,0.1,1.7,0.5,2.4-0.1c1-1,2.6-1.1,3.7-0.2C154.6,157.4,156,156.6,157.6,157.1z
	 M183.8,156.3c0.3,0,0.6,0,1,0c1.3,0.4,1.9,0,1.7-1.4c-0.1-0.6-0.1-1.1,0.9-1.2c0.8-0.1,0.4-1.2,0.6-1.8s-0.5-0.6-0.9-0.7
	c-1.7-0.2-3.4-0.4-5.1-0.7c-0.5-0.1-0.8,0-0.9,0.7c-0.2,2.3-0.5,4.5-0.8,6.8c-0.1,0.6,0,0.9,0.7,1c1.7,0.2,3.4,0.4,5.1,0.6
	c0.8,0.1,1.1-0.2,1.1-1c0-0.8,0.5-1.5-0.8-1.7C185.4,157,184.5,157.1,183.8,156.3L183.8,156.3z M195.5,155.1c0.1,0,0.3,0,0.4,0.1
	c1.3,0.5,1.3-0.4,1.5-1.3c0.2-1.1-0.3-1.2-1.1-1.3c-1.8-0.2-3.6-0.5-5.4-0.8c-0.9-0.1-1.6-0.4-1.8,1s0.3,1.5,1.3,1.5
	c1,0,1.1,0.5,0.9,1.4c-0.3,1.2-0.3,2.4-0.6,3.6c-0.3,1.2,0.6,1.2,1.2,1.2c0.6,0,1.8,1,2-0.7c0.2-1.3,0.4-2.6,0.6-3.9
	C194.5,155.2,194.8,154.9,195.5,155.1L195.5,155.1z M180,151.3c-2.5,0.7-3.3,2.7-1.9,4.7c0.2,0.3,0.4,0.6,0.5,0.9
	c0,0.3,0.2,0.5,0.5,0.5c0.3,0,0.3-0.3,0.4-0.5C179.9,155.1,180.1,153.2,180,151.3L180,151.3z"/>
<path class="st0" d="M203.1,111c-3.5,4.2-3,9.5,1.7,12.4c6.9,4.6,13.6,9.6,20,14.9c1,0.7,1.9,1.6,2.6,2.6c0.7,0.8,0.9,1.9,0.6,2.9
	c-0.4-1.7-1.5-3.1-2.9-3.9c-2.6-1.6-4.6-4-7.1-5.8c-3-2.2-5.9-4.4-9.1-6.4c-4.6-2.9-7.6-5.4-8.9-11.5c-1,1.3-2,2.5-3,3.7
	c-1.8,1.9-3.6,3.7-5.5,5.5c-1.2,1-1.6,2.6-1.1,4c0.4,1.3,0.7,2.6,1.1,3.8c0.2,1,0.9,1.8,1.8,2.3c1.3,0.8,2.3,2,2.7,3.5
	c0.4,1.3-0.3,2.7-1.6,3.2c-0.2,0.1-0.4,0.1-0.6,0.1c-0.8,0.1-1.6,0.1-2.4,0c-3.6-1-7.3-0.9-11-1.5c-2.4-0.4-3.5-2.2-4.5-4
	c-0.6-1,0.3-2.4,1.7-2.7c0.7-0.2,1.4-0.5,2.1-0.8c0.1,0.5,0.2,0.9-0.5,1c-0.4,0.1-0.8,0.1-1.2,0.3c-0.8,0.3-1.8,0.4-1.6,1.6
	c0.1,1.1,0.9,2.1,2.1,2.2c3.9,0.7,8,0.5,11.9,1.6c0.6,0.1,1.1,0.1,1.7,0c1.1,0.1,2-0.6,2.2-1.7c0.3-1-0.3-2.1-1.3-2.4
	c0,0-0.1,0-0.1,0c-2.4-0.4-2.7-2-3-3.8c-0.3-1.3-0.7-2.7-1.2-3.9c-0.7-1.9-0.1-4.1,1.5-5.3c2-1.7,3.9-3.6,5.6-5.6
	c1.2-1.4,2.3-3,3.3-4.6c2.3-3.9,2.1-8.8-0.4-12.6c-0.1-0.2-0.2-0.5-0.3-0.7c0.6-0.1,0.8,0.3,1.1,0.7c1.7,2.5,3.1,5.1,3,8.2
	C202.1,109.3,202.4,110.3,203.1,111z"/>
<path class="st0" d="M228,144.7c0.3,2.7-0.7,3.9-3.3,4.2c-1.1,0.2-2.1,0.1-3.2-0.2c-3.3-0.9-6.3-2.6-8.8-5c-0.9-1-1.6-2.2-2-3.6
	c-0.6-1.6-1.3-3.1-2.2-4.5c-0.8-1.5-2.4-2.3-4.1-2.1c-1.2,0.1-1.8,0.7-1.6,1.8c1.2,4.5,1.6,9.3,4.1,13.3c1.6,2.6,2.2,2.8,5.1,2
	c1-0.3,2.1-0.2,3.1,0.3c4.6,2.4,9.6,2.5,14.6,1.9c5-0.6,8.8-5.6,8.5-10.7c-0.1-1.7-0.7-3.2-0.8-4.9c0.8,0.3,1.4,0.9,1.7,1.7
	c2.6,6.2,0.5,13.1-5.9,15.7c-3,1.2-6.3,0.9-9.5,0.7c-2.8-0.2-5.5-0.9-8-2.3c-1-0.5-1.9-0.1-2.8,0.2c-2.1,0.6-2.8,0.2-4.3-1.4
	c-2.7-2.8-3.9-6.3-4.9-9.8c-0.6-2.1-1-4.3-1.5-6.5c-0.3-1.5,0.6-2.4,2.1-2.5c1.9-0.2,3.7,0.8,4.8,2.4c1.5,2,2.8,4.2,3.6,6.5
	c0.4,1.2,1.3,2.3,2.4,3c1.9,1.3,4,2.3,6.2,3.1C224.9,149.3,227,148.1,228,144.7z"/>
<path class="st0" d="M177,100l-1.2,2.5c0.7,0.4,1.2-0.1,1.7-0.3c3.6-1.4,7.4-2.1,11.2-0.9c2.8,0.9,5,2.6,5.3,5.8
	c-0.2-0.1-0.4-0.2-0.4-0.4c-0.3-1.9-1.7-2.6-3.2-3.1c-4.3-1.4-8.4-0.6-12.4,1.2c-0.4,0.2-1.2,0.2-1.1,0.9c0.1,0.7,0.8,0.7,1.3,0.6
	c1.9-0.1,3.7,1,4.6,2.7c1.5,2.2,1.2,3.6-1.2,4.8c-0.6,0.3-1.1,0.6-0.5,1.2c1.6,1.6,2.8,3.7,4.8,4.9c0.6,0.5,1.4,0.4,1.9-0.1
	c1.1-0.9,1.7-2.3,3.2-2.7c-0.9,1.4-2,2.7-3.4,3.6c-0.5,0.5-1.4,0.4-1.9-0.1c-2.5-2.4-4.8-5-6.8-7.8c-0.4-0.5-0.5-0.9,0.4-1
	c0.3,0,0.6-0.1,0.9-0.2c0.8-0.3,2-0.2,2-1.6c0-1.4-0.9-2.5-2.3-2.7c-2.3-0.3-4.7-0.5-7-0.7c-2.6-0.2-5.2,0-7.8-0.3
	c-0.5-0.2-1.1-0.2-1.6,0c-0.8,0.4-2,0.1-2.4,1.3c-0.1,0.3-0.4,0.2-0.6,0c-1.2-1.4-3-1.5-4.6-1.5c-6.1-0.3-12.3-0.5-18.5-0.6
	c-1.9,0-4-0.2-5.7,1.2c-0.6,0.4-0.7-0.1-0.9-0.4c-0.5-0.6-1.3-1-2.1-0.9c-2.5,0-5.1,0-7.6,0c-2.5,0-3.2,0.7-2.6,3.4
	c0,0.2,0,0.4,0,0.6c-1.2-0.8-0.7-2-0.6-3c0.1-0.9,1-1.6,1.9-1.5c3.3-0.1,6.6-0.5,9.8,0.1c1.8,0.3,3.6,0.3,5.4,0.1
	c6.7-0.2,13.4,0,20.1,0.5c1.9,0.1,3.8,0.1,5.5,1.1c0.2,0.1,0.4,0.1,0.5,0c1-1.1,2.3-0.7,3.5-0.7c3.4-0.1,6.8,0.1,10.2,0.3
	c0.7,0,1.4,0.2,1.5-0.9c0.2-1.4,0.2-1.5-1.7-1.3C175.2,102.5,175.4,100.8,177,100z"/>
<path class="st0" d="M154.3,130.8c0.7,0.2,0.9,0.9,1.2,1.5c-0.7,0.2-1.4,0.4-2,0.7c-1.5,0.7-1.7,1.8-0.4,3c0.6,0.5,1.3,0.8,2.1,0.9
	c3.9,0.3,7.7,0.2,11.6,0.7c1,0.2,2.1-0.2,2.6-1.2c0.6-1,0.2-2.3-0.8-2.9c-0.3-0.1-0.5-0.2-0.8-0.3c-2.5-0.5-3.6-2.4-4.9-4.1
	c-1.7-2.2-3.3-4.5-5.1-6.9c2.6-0.7,4.4-2.1,5-4.8c0.4-2.4,0-4.8-1.2-6.9c1.3-0.4,2.8,0,3.7,1c4.4,3.9,8.5,8.2,12.2,12.7
	c0.9,1,2,2.1,1.8,3.7c-2.9-4.9-7-8.8-11.1-12.6c-0.7-0.9-1.5-1.6-2.5-2.2c-0.4-0.2-0.8-0.4-1.3,0c-0.4,0.4,0,0.7,0,1.1
	c0.5,2.6,0.8,5.2-0.9,7.6c-0.5,0.7-1.2,1.3-2,1.6c-1.3,0.6-1.1,1.2-0.4,2.1c0.7,0.9,1.7,2.2,2.4,3.3c1.1,1.6,2.2,3.2,4.3,3.8
	c1.8,0.5,2.5,2.2,3.5,3.6c0.6,1,0.3,2.4-0.8,3c-0.1,0.1-0.3,0.1-0.4,0.2c-1.1,0.5-2.3,0.7-3.4,0.4c-2.9-0.5-5.9-0.7-8.8-0.5
	c-2.8,0-4.5-1.5-5.8-3.7c-0.8-1.4-0.3-2.4,1.2-2.9C154,132.3,154.7,132,154.3,130.8z"/>
<path class="st0" d="M87.2,157.5c0.6-0.7,0.3-1.5,0.3-2.2c-0.2-1.9-0.3-3.8-0.5-5.7c-0.1-0.9,0.3-1.2,1.2-1.2c0.7,0,1.4,0,2.1-0.2
	c0.7-0.2,1.5,0.1,1.7,0.8c0,0,0,0,0,0c0.4,0.8,0.8,1.1,1.5,0.1c1.1-1.2,2.8-1.8,4.5-1.4c0.6,0.2,0.6,0.8,0.6,1.3
	c0.2,2.5,0.3,5,0.4,7.5c0,0.5,0.1,1-0.6,1c-1.1,0.1-2.1,0.2-3.2,0.3c-0.5,0-0.8-0.1-0.8-0.7c-0.1-1.3-1.1-0.7-1.7-0.8
	c-0.7-0.1-1.1,0.2-1,0.9c0.1,0.8-0.3,0.8-1,0.9c-2.5,0.2-5,0.3-7.4,0.6c-0.9,0.1-2.1-0.9-2.2-0.6c-0.5,1.2-1.4,0.8-2.2,0.9
	c-2.2,0.4-4.4,0.7-6.6,0.6c-1.2-0.1-2.7-1-3.5-0.2c-1.2,1.2-2.5,0.9-3.8,1.2c-1.1,0.2-1-0.2-0.8-1c0.9-2.8,1.9-5.6,2.8-8.4
	c0.1-0.5,0.5-0.9,1-0.9c2.6-0.7,3.4-0.3,4.9,2.5c0.8,1.4,1.7,2.8,2.5,4.2c0.1,0.1,0.2,0.2,0.5,0.4c-0.2-2.2-0.5-4.2-0.6-6.2
	s0-1.9,1.9-2c1.4-0.1,2.7-0.3,4.1-0.3c3.1,0,4.9,2.9,3.7,5.2c-0.3,0.5-0.2,1.2,0.3,1.6C86,156.3,86.6,156.9,87.2,157.5z M94.7,154
	c0.5,3.2,0.5,3.2,2.6,3c0.8,0,1-0.3,1-1.1c-0.2-1.7-0.2-3.4-0.4-5.2c-0.2-2.4-0.4-2.6-2.8-2.1c-1,0.2-1.1,1-1.4,1.6
	c-0.5,0.8-0.9,1.3-1.5,0.1c-0.7-1.5-1.9-1.5-3.3-1.4c-0.8,0.1-1,0.3-1,1.1c0.2,2.1,0.3,4.3,0.4,6.4c0,0.8,0.2,1,1.1,1
	c1.2,0,2.1-0.2,1.4-1.7c-0.2-0.3-0.1-0.7,0.1-1c0.2-0.1,0.4-0.1,0.5,0C92.8,156.6,93.8,155.6,94.7,154z M86.4,157.6
	c-0.7-0.7-1.4-1.3-2-1.9c-0.4-0.4-0.6-0.6-0.2-1.2c1.4-2.4,0-4.8-2.9-4.8c-1.5,0-2.9,0.3-4.4,0.4c-0.7,0-0.8,0.3-0.8,1
	c0.2,2.2,0.5,4.5,0.7,6.7c0,0.4,0.1,0.7,0.7,0.8c2,0.2,2.6-0.2,2.5-2.2c0-0.1,0.1-0.2,0.3-0.6C81.6,158.3,83.7,158.3,86.4,157.6
	L86.4,157.6z M64.9,160.1c1.1-0.3,2.2,0,2.7-0.6c0.9-1.1,2.4-1.5,3.7-0.8c1.1,0.4,2.2,0.5,3.3,0.2c0.7,0,1-0.2,0.5-1
	c-1.4-2.1-2.7-4.2-4-6.3c-0.5-1-1.3-0.6-2-0.6c-0.7,0.1-1.4,0.1-1.6,1C66.7,154.6,65.8,157.2,64.9,160.1L64.9,160.1z"/>
<path class="st0" d="M46.4,96.8c-3.7,2.8-5.9,7.1-5.9,11.8c0,2.4-0.2,4.7-0.2,7c0,1.2-0.4,1.7-1.6,1.9c-3.6,0.6-7.2,1.3-10.8,2.1
	c-1,0.2-1.5,0.1-1.4-1.2c0.2-2.7,0.3-5.5,0.4-8.2c0-0.9,0.3-1.4,1.2-1.5c1.1,0,2.1-0.8,2.2-1.9c0.1-1.2-0.8-1.9-1.8-2.4
	c-0.6-0.4-1.3-0.5-2.1-0.5c-3.9,0.1-7.7,1-11.2,2.6c-1.8,0.9-1.7,3,0.1,3.9c0.2,0.1,0.5,0.2,0.7,0.3c0.7,0.1,0.8,0.4,0.7,1
	c-0.2,3.7-0.2,7.3-0.5,11c-0.2,2-0.3,3.9-0.3,5.9c0,0.4,0.2,1-0.4,1.2c-0.1-2,0-3.9,0.1-5.9c0.3-2.9,0.1-5.8,0.3-8.7
	c0-0.9,0-1.7,0.1-2.6c0.2-0.8-0.3-1.6-1.1-1.8c0,0,0,0,0,0c-1.4-0.6-2-2.2-1.4-3.6c0.2-0.4,0.5-0.8,0.9-1.1c1.6-1.1,3.5-1.7,5.4-1.9
	c2.1-0.5,4.3-0.8,6.5-0.9c2.6,0,4.3,1.6,5.9,3.2c0.8,0.9,0.8,2.3-0.1,3.2c-0.3,0.3-0.7,0.5-1.1,0.5c-1.1,0.1-1.8,1.1-1.7,2.2
	c0,0.1,0,0.1,0,0.2c0,1.7-0.1,3.4-0.2,5c-0.1,0.9,0.3,1.2,1.2,0.9c2.4-0.5,4.8-0.9,7.1-1.4c1.2-0.1,2.1-1.2,2.1-2.4
	c0.4-3.4-0.2-6.9,0.8-10.3c0.9-3,2.7-5.6,5.1-7.5C45.9,96.7,46.2,96.7,46.4,96.8z"/>
<path class="st0" d="M78.1,116.4c-0.5,0-0.9-0.1-1.4-0.2c-2.1-0.1-2.6,0.3-3,2.4c-0.1,0.7-0.3,1.4-0.5,2.1c-0.4,0.9-1.4,1.4-2.3,1.1
	c-1-0.1-1-0.9-1-1.6c-0.2-2.2-0.3-4.4-0.4-6.5c-0.1-1.2,0.3-2,1.7-2.1c1.7-0.3,3.4-0.4,5.2-0.5c1.9-0.1,3.8,0.9,4.8,2.5
	c0.5,0.9,1.2,1.7,2,2.3c1.4,1,3.2,0.9,4.5-0.1c1-0.9,0.5-1.7,0-2.6c-1.5-2.6-3.3-5-5.4-7.1c1-0.1,1.9,0.5,2.4,1.3
	c0.3,0.7,0.8,1.3,1.6,1.6c0.2,0.1,0.6,0.2,0.6,0.4c0.4,2,2.2,3.2,3,4.9c0.5,1.1,1.2,2.1,0.2,3.2c-1.1,1.2-2.8,1.6-4.3,1
	c-1.8-0.9-3.3-2.2-4.5-3.8c-0.7-1-1.9-1.5-3.1-1.5c-1.8,0-3.7,0.2-5.4,0.6c-0.7,0.1-0.9,0.6-0.8,1.2c0.1,1.6,0.2,3.2,0.3,4.9
	c0,0.3,0.1,0.6,0.4,0.6c0.3,0,0.5-0.3,0.5-0.6c0.2-0.8,0.3-1.7,0.6-2.5c0.5-1.4,2.1-2.1,3.5-1.6C77.5,115.9,77.8,116.1,78.1,116.4z"
	/>
<path class="st0" d="M236.5,135.5c-1.3-0.5-1.9-1.7-2.9-2.6c-4.6-4.1-10.2-6.7-15.3-10c-2.1-1.1-4-2.4-5.7-4
	c-1.4-1.2-1.8-3.1-1.2-4.8c0.7-1.8,2.3-2.4,4-2.5c3.6-0.4,6.6,0.7,8.6,4c0.5,1.2,1.5,2.2,2.8,2.5c1.2,0.3,2.5-0.4,2.8-1.6
	c0.1-0.3,0.1-0.7,0-1c-0.2-2-1.2-3.8-1.6-5.8c1.7,0.8,2.1,2.5,2.7,4c0.5,1.4,0.8,2.9,0.8,4.3c-0.1,1.3-1.1,2.3-2.4,2.5
	c-1.4,0.1-2.7-0.5-3.5-1.6c-0.9-1-1.7-2-2.5-3.1c-1.7-2.1-6.5-2.7-8.8-1.2c-1.4,0.9-1.8,2.7-0.9,4c0.2,0.3,0.4,0.6,0.7,0.8
	c2.3,2,5.1,3,7.6,4.8c3,2.1,6.4,3.6,9.3,5.7C233.2,131.6,235.3,133.1,236.5,135.5z"/>
<path class="st0" d="M76,134c-4.2,1.1-5.7,0-5.7-4.4c0-0.7,0.1-1.4,0.2-2.1c0.1-1.6,1.5-2.9,3.1-2.9c0.3,0,0.7,0.1,1,0.2
	c0.5,0.2,0.9,0.5,1.1,1c0.5,0.9,1.2,1.7,2,2.3c1.6,0.9,3.6,0.6,4.8-0.8c0.4-0.6,0-1.1-0.2-1.6c-1.2-2.6-2-5.4-3.4-7.8
	c-0.1-0.2-0.1-0.5-0.1-0.7c1.6,0.5,2.3,1.9,2.9,3.3c1,2.2,1.8,4.4,2.8,6.6c0.2,0.4,0.2,1,0.8,1s0.6-0.6,0.9-0.9
	c1.1-1.6,2.1-3.4,4.3-3.8c1-0.2,2-0.2,2.2,1.2c-2.1-1-3.6-0.7-4.9,1.3c-1,1.8-2.2,3.5-3.6,5c-0.7,0.8-1.4,1.7-2.6,1.8
	c0.1-0.2,0.3-0.4,0.4-0.6c0.1-0.2,0.9-0.5,0.6-1c-0.3-0.6-0.7-0.1-1.1-0.1c-0.7,0-1.4,0.1-2-0.4c-1.1-1-2.2-1.9-3.3-2.9
	c-0.7-0.7-2-0.7-2.7,0c-0.2,0.2-0.3,0.4-0.4,0.6c-0.5,1.6-0.6,3.3-0.1,5c0.1,0.3,0,0.8,0.6,0.7C74.3,133.7,75.1,134.3,76,134z"/>
<path class="st0" d="M132,136.7l12.8,0.1c0.8,0,1.7,0.1,2-0.9c0.3-1-0.1-2-1-2.6c-0.1-0.1-0.3-0.2-0.5-0.3c-2.5,0-2-1.7-1.9-3.2
	c0.1-1.9,0.2-3.8,0.2-5.6c0-0.8,0.3-1.2,1.2-1.2h0.3c4.6-0.1,4.6-0.1,7,3.8c0.8,0.9,1.4,2,1.8,3.2c-1.1-0.9-1.9-2.1-2.5-3.3
	c-0.4-0.9-1.4-1.5-2.4-1.3c-0.4,0-0.7,0-1.1,0c-2.1,0-2.1,0-2.2,2.2c0,0.5-0.3,1.1-0.3,1.6c0,1.4-0.6,2.9,1.2,3.9
	c1.1,0.7,1.9,1.9,2.2,3.2c0.4,1.5-0.3,2.6-1.9,2.6c-4,0-7.9,0-11.9,0C133.3,138.9,132.8,137.6,132,136.7z"/>
<path class="st0" d="M112.6,147.2c1.4,0,2.7-0.3,4.1,0.4c2.1,1.2,2.8,2.9,1.6,5.1c-0.3,0.6-0.3,0.9,0.2,1.3c0.5,0.4,0.9,0,1.2-0.4
	c0.4-0.5,0.5-1.2,0.3-1.8c-0.9-3.2,0.7-5.4,4-5.1c1,0.1,1.9,0.3,2.8,0.6c1.7,0.7,1.9,1.4,1.2,2.9c-0.2,0.5-0.3,0.8,0,1.3
	c2.1,2.5-0.2,5.2-2.5,5.5c-1.3,0.3-2.6,0.2-3.7-0.4c-0.8-0.5-1.2,0.4-1.8,0.3c-1.8-0.2-3.6,0.6-5.4-0.4c-0.6-0.4-0.8,0.5-1.3,0.5
	c-1.2,0-2.4,0-3.6,0c-0.6,0-0.7-0.4-0.7-0.9c-0.1-2.7,0.2-5.4-0.2-8.1c-0.1-0.6,0.4-0.8,0.9-0.8L112.6,147.2z M119.3,155.9
	c-0.7-0.8-1.3-1.4-1.9-2.1c-0.4-0.4-0.5-0.6-0.1-1.2c2-2.4-0.2-5-2.6-5c-1.3,0-2.6,0.1-4,0c-0.9,0-1.3,0.3-1.2,1.2
	c0.1,1.9,0.2,3.9,0.1,5.8c0,1.3,0.5,1.5,1.7,1.5s1.9-0.3,1.6-1.7c0-0.2-0.2-0.6,0.5-0.8C114.6,156.4,116.7,156.5,119.3,155.9
	L119.3,155.9z M124.4,153.7c-0.8,0.4-1.8,0.3-2.5-0.4c-0.8-0.6-1,0-1.4,0.4c-0.4,0.4-0.2,1,0.3,1.3c1.5,1.2,3.5,1.6,5.3,0.9
	c1.1-0.2,2-1.2,2.1-2.4c0-1.1-0.6-2.1-1.5-2.5c-0.5-0.3-1.1-0.6-1.7-0.9c0.5-0.6,1-0.3,1.3-0.1c0.9,0.5,1-0.2,1.3-0.7
	s0.1-0.9-0.4-1.2c-1.4-0.9-3.1-1.2-4.7-0.8c-1.1,0.2-1.9,1.1-2.1,2.2c-0.2,1.1,0.3,2.2,1.3,2.7C122.5,152.9,123.3,153.2,124.4,153.7
	L124.4,153.7z"/>
<path class="st0" d="M122.4,118.3v1.3h-0.1c0,0.1,0.1,0.1,0.1,0.2c0,0.4,0,0.7,0,1.1c0,0.3,0.1,0.8-0.4,0.9
	c-0.5,0.1-0.6-0.1-0.9-0.4c-4.6-4.2-9.5-8.3-13.4-13.2c-1.3-1.6-3.2-2.4-5.2-2.4c-2.1,0-4.2,0-6.2,0c-1.1-0.1-2.1,0.4-2.7,1.3
	c-0.5-0.6,0-1,0.4-1.2c0.5-0.4,1.2-0.6,1.8-0.7c2.9,0.1,5.9-0.4,8.8,0.3c1.5,0.3,2.8,1.1,3.7,2.3c2.9,3.9,6.7,6.9,10.2,10.2
	c0.8,0.7,1.5,1.4,2.3,2.2c0.3,0.2,0.5,0.6,0.9,0.5c0.4-0.1,0.4-0.6,0.4-0.9c0.1-2.3,0-4.6-0.3-6.8c0-0.5-0.4-0.9-0.9-1.1
	c-1.2-0.5-2-1.6-2.4-2.8c0.8,0.6,1.9,1,2.9,1c0.7,0,0.8,0.3,0.8,0.9c0,1.4,0.1,2.8,0.1,4.2l0.1,1.9v1c0,0-0.1,0.1-0.1,0.1
	C122.3,118.2,122.3,118.3,122.4,118.3z"/>
<path class="st0" d="M55.8,153c-0.1-0.6,0.1-0.9,0.7-1l6.9-1.1c0.3,0,0.6,0,0.6,0.3c0.2,1.2,1.1,2.5,0,3.7c-0.5,0.6-0.2,1.2,0,1.9
	c0.2,1,0.2,1.7-1.2,1.7c-1,0-1.4,0.7-1.2,1.6c0.2,0.7-0.1,1-0.8,1.2c-1,0.1-1.9,0.3-2.8,0.5c-0.4,0.1-0.9-0.2-1-0.6c0,0,0-0.1,0-0.1
	C56.6,158.4,56.2,155.7,55.8,153z M61.4,155.6c-0.5,0-1,0.2-1.1-0.4c-0.1-0.6,0.4-0.5,0.8-0.5c0.6-0.1,1.3-0.2,2-0.3
	c1.1-0.1,0.8-0.8,0.7-1.4c-0.1-0.6-0.1-1.3-1.2-1.2c-1.7,0.3-3.3,0.6-5,0.8c-0.9,0.1-1,0.4-0.8,1.2c0.3,2.1,0.7,4.1,0.9,6.2
	c0.1,1.5,1.1,1,1.8,0.9c0.8-0.1,1.9,0,1.4-1.4c-0.3-1,0-1.5,1-1.5c1.4,0.1,1.5-0.7,1.3-1.8C62.8,154.7,61.8,155.8,61.4,155.6z"/>
<path class="st0" d="M107.8,150.4c-0.9,1.6,0.4,3.4,0.3,5.3c0,1.3-0.4,1.6-1.7,1.6c-1.9-0.1-3.8,0-5.6,0.2c-0.7,0.1-1.1-0.2-1.1-0.9
	c-0.1-2.7-0.2-5.4-0.3-8.1c0-0.4-0.2-1,0.6-0.9c1.7,0.2,3.4-0.3,5.1-0.3C107.6,147.4,107.9,147.6,107.8,150.4z M103.3,150.8
	c1-0.1,1.9-0.2,2.9-0.2c1,0,1-0.5,1-1.2s0.1-1.4-1.1-1.3c-1.7,0.2-3.4,0.2-5,0.2c-0.7,0-1,0.2-0.9,1c0.1,2.2,0.2,4.5,0.3,6.7
	c0,0.6,0.2,0.8,0.8,0.8c1.8-0.1,3.7-0.2,5.5-0.2c0.5,0,0.7-0.2,0.7-0.7c0.2-1.7,0-1.9-1.8-1.9c-0.4,0-0.9,0.2-1.4-0.2
	c0.8-0.5,2.5,0.1,2-1.7C105.8,150.2,104.4,151.8,103.3,150.8z"/>
<path class="st0" d="M197.5,98.5c-0.2,0.1-0.4-0.1-0.5-0.2c-1.4-1.6-3.4-2.7-5.6-3c-3.4-0.6-7-0.4-10.3,0.8c-2,0.7-3,2.5-4.2,4
	c0.5-2.5,2.3-4.4,4.8-5c3.5-0.8,7.2-0.9,10.7-0.2C194.4,95.4,196.6,96.1,197.5,98.5z"/>
<path class="st0" d="M226.5,107.5c-1.1-0.7-2.5-0.6-3.5,0.2c-1.3,0.6-2.7,0.6-4,0.2c-4-0.9-8-1.3-11.9,0.6c-1.4,0.7-2.6,1.7-4,2.5
	c-0.2-0.4,0.2-0.7,0.4-0.9c3.2-2.7,7.4-4,11.6-3.5c1.4,0.2,2.8,0.5,4.2,0.8c1.5,0.5,3.1,0.2,4.3-0.6c0.9-0.6,2.1-0.4,2.7,0.4
	C226.3,107.3,226.4,107.4,226.5,107.5z"/>
<path class="st0" d="M15.6,130.9c0.1,5.1-0.3,10.2-0.7,15.3c0,0.3-0.1,0.6-0.1,0.9c-0.2,2.9-0.2,2.9-3.2,3.8
	c0.1-0.2,0.2-0.5,0.4-0.6c2.9-0.8,2.3-3.4,2.4-5.4c0.2-3.7,0.4-7.5,0.8-11.2C15.4,132.8,15.1,131.8,15.6,130.9z"/>
<path class="st0" d="M135.7,113.8c0.6,0.2,0.3,0.8,0.3,1.2c0,5.3,0.1,10.6,0.1,15.9c0,0.4,0.3,1.1-0.4,1.3
	C135.7,126.1,135.7,119.9,135.7,113.8z"/>
<path class="st0" d="M227.8,109.2c-0.6-0.4-1.1-1-1.4-1.7C228.2,107,227.6,108.4,227.8,109.2z"/>
<path class="st0" d="M198.4,99.4c-0.3-0.2-0.7-0.2-0.5-0.7C198.2,98.8,198.5,99,198.4,99.4z"/>
<path class="st0" d="M179.4,132.1c0.2,0,0.4,0.1,0.3,0.4L179.4,132.1z"/>
<path class="st0" d="M179.3,131.9l0.1,0.3C179.3,132.1,179.2,132,179.3,131.9z"/>
<path class="st0" d="M135.6,113.5l0.1,0.3c-0.1-0.1-0.1-0.1-0.2-0.2C135.5,113.6,135.6,113.5,135.6,113.5z"/>
<path class="st1" d="M190.8,117.2c-1.5,0.4-2.1,1.9-3.2,2.7c-0.5,0.5-1.3,0.6-1.9,0.1c-1.9-1.3-3.1-3.3-4.8-4.9
	c-0.6-0.6,0-1,0.5-1.2c2.5-1.2,2.8-2.5,1.2-4.8c-0.9-1.7-2.7-2.7-4.6-2.7c-0.5,0-1.2-0.1-1.3-0.6c-0.1-0.5,0.6-0.7,1.1-0.9
	c4-1.8,8.1-2.6,12.4-1.2c1.5,0.5,2.9,1.2,3.2,3.1c0,0.1,0.3,0.3,0.4,0.4c0,0.6,0.1,1.3,0.1,1.9c-0.1,2-0.7,3.9-1.9,5.6
	c-0.5,0.8-1.4,1.5-1.5,2.6L190.8,117.2z"/>
<path class="st1" d="M155.2,113.6v1.4c-0.5,2-2.5,3.3-4.6,2.8c0,0-0.1,0-0.1,0c-0.5,0-0.9,0-1.4,0c-3.9-0.1-3.4,0.5-3.4-3.8
	c0-0.8,0.4-1.1,1.1-1.1C149.7,113,152.5,112.6,155.2,113.6z"/>
<path class="st0" d="M155.2,113.6c-2.7-1-5.5-0.6-8.3-0.7c-0.8,0-1.1,0.3-1.1,1.1c0,4.3-0.5,3.7,3.4,3.8c0.5,0,0.9,0,1.4,0
	c2,0.5,4.1-0.7,4.7-2.7c0,0,0-0.1,0-0.1c0.3,1.5-0.7,3-2.2,3.3c-0.2,0-0.4,0.1-0.6,0.1c-2.5,0-5.1-0.1-7.6-0.2
	c-0.6,0-0.7-0.4-0.8-0.9c-0.1-1.8-0.1-3.7,0-5.5c0-0.7,0.2-1.1,1.1-1.1c2,0.1,4,0,5.9,0.1c1.1,0,2.2,0.3,3.2,1
	C154.7,112.2,155.6,112.6,155.2,113.6z"/>
<path class="st0" d="M190.7,117.2c0.1-1.1,1-1.7,1.5-2.6c1.2-1.6,1.9-3.5,1.9-5.6c0.5,1.2,0.4,2.5-0.2,3.6
	C193.3,114.4,192.2,116,190.7,117.2z"/>
<path class="st1" d="M96.5,119.8c0-1.9,0-3.7,0-5.6C96.8,116.1,96.8,117.9,96.5,119.8z"/>
<path class="st1" d="M122.3,117.1l-0.1-1.9L122.3,117.1z"/>
<path class="st1" d="M163.3,106.2c0.5-0.2,1.1-0.2,1.6,0C164.4,106.4,163.9,106.4,163.3,106.2z"/>
<path class="st1" d="M122.4,118.3c0-0.1-0.1-0.1-0.1-0.2c0,0,0,0,0.1-0.1C122.4,118.1,122.4,118.2,122.4,118.3
	C122.4,118.3,122.4,118.3,122.4,118.3z"/>
<path class="st1" d="M122.4,119.9c0,0-0.1-0.1-0.1-0.2h0.1V119.9L122.4,119.9z"/>
<path class="st1" d="M76,134c-0.9,0.3-1.7-0.2-2.5-0.1c-0.5,0.1-0.5-0.4-0.6-0.7c-0.4-1.6-0.4-3.4,0.1-5c0.4-1,1.5-1.4,2.5-1
	c0.2,0.1,0.4,0.2,0.6,0.4c1.1,1,2.2,1.9,3.3,2.9c0.6,0.6,1.3,0.4,2,0.4c0.4,0,0.9-0.4,1.1,0.1c0.2,0.5-0.4,0.7-0.6,1
	c-0.2,0.4-0.3,0.4-0.4,0.6l-1.2,0.4c-1.5-0.4-2.8,0.4-4.2,0.5C76.1,133.6,76,133.8,76,134L76,134z"/>
<path class="st0" d="M76,134c0-0.1,0.1-0.4,0.2-0.4c1.4,0,2.7-0.9,4.2-0.5C79,134.2,77.4,133.8,76,134z"/>
<path class="st2" d="M142.4,153.3c-1.2,1.6-2.1,2.1-3.8,0c-0.3,0.4-0.2,0.9-0.2,1.3c-0.1,1.6-0.7,2-2.2,1.5
	c-0.5-0.1-0.5-0.4-0.5-0.8c0.1-2.4,0.2-4.7,0.2-7c0-0.3,0-0.5,0.5-0.7c1.3-0.3,2.7,0.2,3.5,1.3c0.9,1.5,0.9,1.5,2,0
	c0.9-1,2.3-1.4,3.6-1c0.5,0.2,0.3,0.5,0.3,0.9c0,2.2-0.1,4.4-0.1,6.6c0,0.8-0.3,1-1.1,1C142.6,156.4,142.6,156.4,142.4,153.3z"/>
<path class="st2" d="M168.3,157.7c-2.6,0.2-4.8,0-5.7-2.7c-0.4,0.2-0.7,0.7-0.5,1.2c0.1,1.1-0.5,1.2-1.4,1.2
	c-1.9-0.1-1.9-0.1-1.8-2.1c0.1-1.8,0.3-3.6,0.3-5.3c0-0.9,0.2-1.3,1.2-1.2c1.3,0.2,2.5,0.2,3.8,0.3c1.3,0,2.5,0.8,3,2
	c0.6,1.1,0.3,2.5-0.7,3.3c-0.5,0.5-0.2,0.8,0.1,1.2L168.3,157.7z M164.1,152c-0.3-0.6-0.9-0.6-1.4-0.6c-0.7,0-0.5,0.5-0.4,0.9
	c0,0.3,0.1,0.8,0.7,0.5C163.4,152.6,164.1,152.7,164.1,152L164.1,152z"/>
<path class="st2" d="M178.9,158.8c-1.4-0.1-2.6-0.3-3.8-0.3c-0.9,0-1-0.8-1.3-1.3c-0.1-0.2-0.2-0.6-0.6-0.5
	c-0.4,0.1-0.2,0.4-0.3,0.6c-0.3,1.7-1.5,0.6-2.3,0.7c-0.8,0.1-1.1-0.3-1-1.2c0.3-2,0.5-3.9,0.6-5.9c0.1-1,0.3-1.5,1.4-1.3
	c0.9,0.2,2.2-0.3,1.9,1.5c0,0.3,0,0.5,0.1,0.8c1.2-2.8,3.3-1.6,5.4-1.6c-1,1.2-1.7,2.1-2.5,2.9c-0.5,0.4-0.6,1.1-0.2,1.6
	c0,0,0.1,0.1,0.1,0.1C177.3,156.1,178,157.4,178.9,158.8z"/>
<path class="st2" d="M157.6,157.1c-1.6-0.5-3,0.3-4.4-1c-1.1-0.8-2.7-0.7-3.7,0.2c-0.6,0.6-1.6,0.2-2.4,0.1c-0.4,0-0.1-0.5,0-0.7
	c1.2-2.4,2.4-4.7,3.7-7c0.4-0.8,3-0.7,3.3,0.1C155.4,151.5,156.4,154.1,157.6,157.1z"/>
<path class="st2" d="M183.7,156.4c0.7,0.8,1.7,0.6,2.5,0.7c1.3,0.1,0.8,1,0.8,1.7c0,0.7-0.3,1.1-1.1,1c-1.7-0.2-3.4-0.5-5.1-0.6
	c-0.7-0.1-0.8-0.4-0.7-1c0.3-2.3,0.6-4.5,0.8-6.8c0.1-0.6,0.3-0.7,0.9-0.7c1.7,0.2,3.4,0.4,5.1,0.7c0.4,0,1.1,0,0.9,0.7
	s0.2,1.7-0.6,1.8c-1,0.1-0.9,0.6-0.9,1.2c0.2,1.5-0.4,1.8-1.7,1.4C184.4,156.3,184.1,156.3,183.7,156.4z"/>
<path class="st2" d="M195.4,155.1c-0.6-0.2-0.9,0.1-1,0.8c-0.2,1.3-0.4,2.6-0.6,3.9c-0.2,1.6-1.3,0.6-2,0.7c-0.7,0-1.5,0-1.2-1.2
	c0.3-1.2,0.3-2.4,0.6-3.6c0.2-0.9,0.1-1.4-0.9-1.4c-1,0-1.5-0.3-1.3-1.5s1-1.2,1.8-1c1.8,0.3,3.6,0.6,5.4,0.8
	c0.8,0.1,1.4,0.2,1.1,1.3c-0.2,0.9-0.2,1.8-1.5,1.3C195.7,155.1,195.6,155.1,195.4,155.1z"/>
<path class="st1" d="M180,151.4c0.1,1.9-0.1,3.7-0.5,5.5c0,0.2,0,0.6-0.4,0.5c-0.3,0-0.5-0.2-0.5-0.5c-0.1-0.3-0.3-0.7-0.5-0.9
	C176.6,154.1,177.4,152.1,180,151.4z"/>
<path class="st2" d="M94.7,154c-1,1.6-1.9,2.6-3.4,0.9c-0.2-0.1-0.4-0.1-0.5,0c-0.2,0.3-0.3,0.7-0.1,1c0.7,1.5-0.2,1.7-1.4,1.7
	c-0.8,0-1-0.2-1.1-1c-0.1-2.1-0.2-4.3-0.4-6.4c-0.1-0.8,0.2-1,1-1.1c1.4-0.1,2.6-0.1,3.3,1.4c0.6,1.1,1,0.7,1.5-0.1
	c0.4-0.6,0.5-1.5,1.4-1.6c2.4-0.5,2.6-0.4,2.8,2.1c0.1,1.7,0.2,3.4,0.4,5.2c0.1,0.8-0.2,1-1,1.1C95.3,157.1,95.3,157.2,94.7,154z"/>
<path class="st2" d="M86.3,157.6c-2.6,0.6-4.8,0.7-6.2-1.9c-0.2,0.4-0.3,0.5-0.3,0.6c0,2-0.5,2.4-2.5,2.2c-0.6-0.1-0.6-0.4-0.7-0.8
	c-0.2-2.2-0.4-4.5-0.7-6.7c-0.1-0.6,0.1-0.9,0.8-1c1.5-0.1,2.9-0.4,4.4-0.4c2.9,0,4.3,2.4,2.9,4.8c-0.4,0.6-0.2,0.9,0.2,1.2
	C85,156.3,85.6,156.9,86.3,157.6z M80.3,152c-0.7,0-0.9,0.3-0.8,0.9c0.1,0.5,0,1,0.7,0.8c0.5-0.1,1-0.3,1-0.9S80.7,152.1,80.3,152
	L80.3,152z"/>
<path class="st2" d="M64.9,160.1c1-2.9,1.8-5.5,2.6-8.1c0.3-0.9,1-1,1.6-1c0.7-0.1,1.4-0.4,2,0.6c1.2,2.2,2.6,4.3,4,6.3
	c0.5,0.8,0.2,1-0.5,1c-1.1,0.2-2.3,0.2-3.3-0.2c-1.3-0.6-2.8-0.3-3.7,0.8C67.1,160.2,66,159.8,64.9,160.1z"/>
<path class="st2" d="M119.3,155.9c-2.6,0.5-4.8,0.5-5.8-2.1c-0.7,0.2-0.5,0.5-0.5,0.8c0.2,1.4-0.3,1.7-1.6,1.7s-1.7-0.2-1.7-1.5
	c0.1-1.9,0-3.9-0.1-5.8c0-1,0.3-1.2,1.2-1.2c1.3,0,2.6,0,4,0c2.4,0,4.6,2.7,2.6,5c-0.4,0.5-0.2,0.8,0.1,1.2
	C118.1,154.5,118.6,155.1,119.3,155.9z M113.7,151.7c0.5-0.1,1-0.3,1-0.9s-0.5-0.8-1.1-0.8s-0.7,0.4-0.7,0.9
	C112.9,151.4,113,151.9,113.7,151.7L113.7,151.7z"/>
<path class="st2" d="M124.4,153.7c-1.1-0.5-1.9-0.9-2.7-1.3c-1-0.5-1.6-1.6-1.3-2.7c0.2-1.1,1.1-1.9,2.1-2.2
	c1.6-0.4,3.3-0.1,4.7,0.8c0.5,0.3,0.8,0.6,0.4,1.2s-0.5,1.2-1.3,0.7c-0.4-0.2-0.8-0.5-1.3,0.1c0.6,0.3,1.2,0.6,1.7,0.9
	c1,0.5,1.6,1.5,1.6,2.6c-0.1,1.2-1,2.1-2.1,2.4c-1.8,0.7-3.8,0.3-5.3-0.9c-0.5-0.4-0.8-0.7-0.3-1.3s0.7-1,1.4-0.4
	C122.6,154.1,123.6,154.2,124.4,153.7z"/>
<path class="st2" d="M61.4,155.6c0.5,0.2,1.5-0.9,1.8,0.6c0.2,1.2,0.2,1.9-1.3,1.8c-1,0-1.3,0.5-1,1.5c0.5,1.4-0.6,1.3-1.4,1.4
	c-0.8,0.1-1.7,0.6-1.8-0.9c-0.2-2.1-0.6-4.1-0.9-6.2c-0.1-0.7,0-1.1,0.8-1.2c1.7-0.2,3.3-0.5,5-0.8c1-0.2,1,0.5,1.2,1.2
	c0.1,0.7,0.4,1.4-0.7,1.4c-0.7,0.1-1.3,0.2-2,0.3c-0.3,0.1-0.8,0-0.8,0.5C60.4,155.8,60.8,155.6,61.4,155.6z"/>
<path class="st2" d="M103.3,150.8c1.1,1,2.4-0.5,2.9,1.2c0.5,1.7-1.2,1.2-2,1.7c0.5,0.4,1,0.2,1.4,0.2c1.8,0,1.9,0.2,1.8,1.9
	c0,0.5-0.2,0.7-0.7,0.7c-1.8,0.1-3.7,0.1-5.5,0.2c-0.6,0-0.8-0.2-0.8-0.8c-0.1-2.2-0.2-4.5-0.3-6.7c0-0.8,0.2-1,0.9-1
	c1.7,0,3.4-0.1,5-0.2c1.2-0.1,1,0.6,1.1,1.3c0,0.7,0.1,1.3-1,1.2C105.3,150.6,104.3,150.7,103.3,150.8z"/>
<path class="st0" d="M164.1,152c-0.1,0.7-0.7,0.6-1.1,0.8c-0.6,0.3-0.7-0.1-0.7-0.5s-0.3-0.9,0.4-0.9
	C163.3,151.4,163.8,151.3,164.1,152z"/>
<path class="st0" d="M80.3,152.1c0.4,0,0.9,0.1,1,0.8c0,0.7-0.5,0.8-1,0.9c-0.7,0.2-0.7-0.4-0.7-0.8S79.6,152,80.3,152.1z"/>
<path class="st0" d="M113.7,151.8c-0.7,0.1-0.7-0.3-0.8-0.8c0-0.5,0-0.9,0.7-0.9c0.7,0.1,1.1,0.2,1.1,0.8S114.2,151.7,113.7,151.8z"
	/>
<text transform="matrix(1 0 0 1 231.2813 103.1689)" class="st0 st3 st4">TM</text>
<path class="st0" d="M235.6,134.1c0,0,3.4,3.7,4,5.9l-1.6-0.2c-0.8-1.9-1.8-3.7-3-5.4L235.6,134.1z"/>
<path class="st0" d="M227.7,142.9c0.3,0.8,0.3,1.6,0.1,2.4l0.2,1c0.2-1.3,0.2-2.7,0.1-4L227.7,142.9z"/>
</svg>
