<?xml version="1.0" encoding="utf-8"?>
<!-- Generator: Adobe Illustrator 21.1.0, SVG Export Plug-In . SVG Version: 6.00 Build 0)  -->
<svg version="1.1" id="Layer_1" xmlns="http://www.w3.org/2000/svg" xmlns:xlink="http://www.w3.org/1999/xlink" x="0px" y="0px"
	 viewBox="0 0 250 250" style="enable-background:new 0 0 250 250;" xml:space="preserve">
<style type="text/css">
	.st0{fill:#FB0505;}
	.st1{fill:#271C1D;}
	.st2{fill:#FEFEFE;}
</style>
<title>Grocery</title>
<path class="st0" d="M54.5,169.8c-1-0.2-1.4-0.7-1.1-1.8c0.8-2.3,1.5-4.7,2.2-7.1c0.3-0.6,0.4-1.2,0.4-1.8c0.5-0.5,1.2-1.2,0.1-1.5
	c-0.8-0.3-1.6-0.5-2.4-0.7c-3.8-0.6-7.5-1.9-11.2-2.8c-1.9-0.5-2.1-0.3-2.5,1.6c-0.8,3.3-1.7,6.5-2.5,9.7c-0.1,0.4-0.2,0.6-0.7,0.6
	c-3.2,0.2-6.5-0.6-9.3-2.1c-1-0.5-1.3-1-0.9-2.3c1-3.6,1.9-7.3,3.2-10.8c0.3-0.7,0.4-1.4-0.5-1.7c-2-0.7-3.9-1.6-5.8-2.7
	c-5.5-2.6-10.4-6.2-14.4-10.8l-0.5-0.7c-0.1,0,0.1-0.4-0.3-0.3c-3.5-4.6-3.7-10.9-0.5-15.7c3.1-4.5,7.3-8.1,12.1-10.7
	c6.6-3.7,13.5-6.6,20.7-8.7c7.1-2.2,14.4-4,21.7-5.3c1.3-0.2,2.4-0.8,3.3-1.7c1.3-1.3,3-2.5,4.4-4c1.9-2,4.5-2.1,6.8-2.7
	c4-0.8,8-1,12-0.7c0,0.9-0.9,1-1.2,1.6c-1.7,1.3-3.4,2.7-4.8,4.3c1.2,0.1,2.4-0.1,3.6-0.5l11.3-0.7c2-0.1,4-0.4,6-0.4
	c1.5,0.1,3-0.5,4.1-1.5c5.2-4.3,10.5-8.4,16.1-12.1c1.4-0.7,2.9-1.1,4.4-1.1c4.7-0.4,9.4,0.2,13.9,1.9c0,0.7-0.8,0.6-0.9,1.1
	c-0.6,0.2-1.3,0.5-1.9,0.8c-3.9,2.1-7.7,4.4-11.4,6.8c-1.9,1.1-3.6,2.3-5.2,3.8c1.3-0.1,2.3,0.4,3.4,0c0.5,0.3,1.1,0.3,1.7,0.3
	c8.6,0.1,17.1,0.5,25.7,1.3c14.8,1.2,29.5,3.7,43.9,7.4c2.3,0.5,4.5,1.2,6.7,2c2.3,0.8,4.7,0.9,7,0.3c7.9-1.1,15.7-0.7,23,2.7
	c3.7,1.7,7.1,3.8,9.1,7.7c0,0.2,0,0.4,0.1,0.6c1.6,3.9,0.9,8.4-1.8,11.7c-1.5,1.9-3.5,3.6-2.9,6.5c0,0.1,0,0.2,0,0.3
	c-1.4,4.2-4.1,7.8-7.6,10.5c-4.1,3.2-8.6,5.9-13.5,8c-5.4,2.4-10.9,4.4-16.5,6c-2.7,0.8-5.3,1.5-8.1,2.1c-2.4,0.5-4.7,1.3-7,1.7
	c-2.8,0.5-5.6,1.1-8.4,1.6c-3.3,0.6-6.7,1-10,1.6c-3.3,0.6-6.7,0.8-10.1,1.2c-5.8,0.6-11.7,1-17.5,1.3c-3.6,0.2-7.3,0.1-10.9,0.1
	c-12.4,0.3-24.7-0.1-37.1-1.2c-5.9-0.6-11.8-1.1-17.7-2c-1.5-0.2-3-0.6-4.5-0.7c-0.6,0-1.1-0.1-1.3,0.7c-1.1,3.5-2.2,7.1-3.3,10.7
	c-0.1,0.6-0.6,1-1.2,0.9c0,0,0,0,0,0C60.6,172.2,57.4,171.4,54.5,169.8z M186.1,125c-0.2,3.7-0.8,4.6-3.7,5.9c-1,0.4-2,0.9-2.9,1.5
	c-2.4,1.7-4.9,3.4-6.2,6.3c-0.9,1.6-0.7,3.7,0.5,5.1c1.3,1.3,3.2,1.7,4.9,1.3c3.6-0.7,6.9-2.5,9.5-5.2c1.9-1.9,3.8-4,4.3-6.8
	c0.3-1.2-0.3-2.8,0.7-3.7c1-0.8,2.4-0.6,3.7-0.8c0.3,0,0.7,0,0.7-0.4c0-0.4-0.5-0.5-0.8-0.5c-0.3,0-0.5,0-0.8,0
	c-3.1,0-3.1,0-3.1-3.2c0-0.8,0-1.6,0-2.4c-0.1-1.6,1.1-3.1,2.7-3.4c2-0.4,3.9-1.2,5.5-2.4c0.9-0.5,1.3-1.7,0.9-2.7
	c-0.4-1-1.5-1.5-2.5-1.3c-1.4,0.1-2.8,0.7-3.9,1.7c-9.8,8-19.2,16.3-28.5,24.8c-1.8,1.6-3.4,3.4-5.9,3.9c-0.9,0.2-1.9,0.4-2.4-0.6
	c-0.5-1,0.4-1.5,1-2.1c4.6-4.7,9.6-8.9,14.5-13.2c2.2-1.9,2.1-3.2-0.3-4.7c-1.5-1-1.6-1.6-0.7-3.3c0.7-0.9,1.3-2,1.6-3.1
	c0.1-0.9,0.2-1.8-0.6-2.3c-0.8-0.5-1.9-0.5-2.7,0.1c-0.7,0.5-1.3,1.1-1.9,1.7c-7.1,7-14.5,13.8-22,20.3c-1.6,1.5-3.3,2.9-5.1,4
	c-1.6,0.9-3-0.1-2.9-2c0-0.4,0.1-0.7,0.2-1.1c1-2.9,2.6-5.7,4.6-8c0.3-0.4,0.7-0.6,1.2-0.6c2-0.1,4-0.5,5.9-1.3
	c3.6-1.4,7-3.3,9.2-6.6c0.9-1,0.8-2.6-0.2-3.5c-0.4-0.4-1-0.6-1.6-0.6c-1.7-0.3-3.3,0-4.9,0.7c-9,4.3-17.3,9.5-22.8,18.3
	c-2.1,3.1-5.2,5.4-8.9,6.4c-0.8,0.2-1.6,0.3-2.4,0.2c-0.9,0-1.5-0.7-1.5-1.6c0-0.2,0.1-0.5,0.2-0.7c0.4-1,1-1.9,1.7-2.7
	c6.3-6.4,12.2-13.1,18.6-19.5c4-4,8-8.2,12-12.4c0.3-0.3,0.9-0.6,0.7-1.2c-0.2-0.5-0.8-0.4-1.3-0.4c-2.2-0.3-4.5-0.2-6.7,0.3
	c-0.7,0.2-1.4,0.6-1.9,1.1c-2.2,2.4-4.4,4.8-6.5,7.2c-6.4,7.4-13.2,14.4-20.4,21c-3.1,2.8-6,5.8-9.7,7.7c-1.1,0.5-2.3,1.1-3.2,0
	c-0.9-1.1,0-2.2,0.6-3.2c0.4-0.5,0.7-0.9,1.1-1.3c1.8-2,3.7-4,5.5-6c5.9-6.4,12-12.7,18.4-18.6c2.7-2.4,5.2-4.8,8-7.4
	c-2.6-0.3-5.2-0.2-7.8,0.1c-1.4,0.1-2.7,0.7-3.6,1.7c-1.1,1.2-2.3,2.3-3.5,3.5c-9.5,9.5-18.6,19.3-27.9,29c-1.5,1.5-3.2,3-4.9,4.3
	c-0.8,0.8-2.1,0.9-2.9,0.2c-1-0.8-0.7-1.8-0.3-2.8c0.5-1.1,1.2-2.1,2.1-3c3.7-4,7.4-7.9,11.1-11.9c1.4-1.5,1.3-1.7,0-3.2
	c-1.9-2-3.9-2.3-5.6-0.5c-3.3,3.4-6.7,6.9-9.8,10.5c-2.2,2.7-3.6,5.7-2.7,9.3c1.3,4.8,3.8,6.5,8.6,4.2c2.4-1.3,4.5-3,6.2-5.2
	c1.1-1.2,1.3-1.1,1.7,0.3c0.7,2.3,2.9,3.9,5.3,3.9c3.3,0.2,6-1.5,8.7-3.2c0.9-0.6,1.3-0.7,2,0.4c1,1.7,2.8,2.8,4.8,2.7
	c2.8,0.1,5.5-0.5,8-1.8c1.6-0.8,3.3-1.7,4.9-2.6c1,3.8,2.7,5.1,6.6,4.8c3.2-0.3,6.1-1.6,8.4-3.8c6.2-5.5,12.4-11,18.6-16.5
	c1.1-1,2.6-1.3,4-0.9c1.3,0.2,1.5,0.9,0.5,1.8c-2,1.9-4.1,3.8-6.2,5.8c-2.8,2.7-5.6,5.2-8.3,8c-1.8,1.9-1.4,3.7,0.9,4.9
	c3.6,1.8,7.9,1.5,11.2-0.9c3.7-3.1,7.3-6.4,10.9-9.6C179.7,130.8,182.7,128,186.1,125L186.1,125z M56.2,117.7
	c0.2-0.4,0.3-0.8,0.6-1.1c4.3-5.7,8.7-11.3,13.6-16.5c3.6-3.9,7.4-7.7,11.3-11.2c0.3-0.3,0.9-0.5,0.6-1c-0.3-0.5-0.7-0.2-1-0.1
	c-1.3,0.1-2.7,0.3-4,0.5c-1.7,0.5-3.7,0.4-5.1,1.6c-2.2,1.9-4.4,3.9-6.5,5.9c-8.4,7.9-15.5,17.1-21,27.2c-0.3,0.5-0.7,0.9-1.2,1.1
	c-4.1,1.7-8.3,3-12.5,4.3c-2.3,0.8-4.8,1.1-7.3,0.8c-1.9-0.3-2.5-1.5-1.6-3.1c1.1-1.8,2.6-3.4,4.2-4.7c1.4-0.8,2.6-1.8,3.7-3
	c-2.7-0.2-5.4-0.5-7.4,0.9c-3,1.9-5.4,4.5-7.1,7.6c-1.1,1.8-0.6,4.2,1.2,5.3c0.2,0.1,0.4,0.2,0.6,0.3c2.1,1,4.3,0.7,6.4,0.4
	c4.2-0.7,8.3-1.8,12.3-3.4c1.9-0.8,3.9-1.4,5.9-1.7c-1.8,3.2-3.4,6.5-4.8,9.9c-3.3,7.4-6,15.2-8,23c-0.3,0.7-0.1,1.5,0.6,1.8
	c0.1,0.1,0.3,0.1,0.4,0.1c1.3,0.5,2.6,0.8,4,1c1,0.2,1.5-0.1,1.8-1.2c1.1-4,2.2-8.1,3.4-12.1c2.9-9.3,7-18.1,12.2-26.3
	c0.4-0.6,1-1.1,1.7-1.3c4.6-1.6,9.3-2.5,14.1-2.8c1.5-0.2,3.1,0.2,4.4,1.1c1,0.8,2.4,1,3.6,0.5c1.6-0.7,2.9-1.8,3.8-3.3
	c0.6-0.8,0.3-1.5-0.6-2c-1.3-0.8-2.9-1.2-4.4-1.1c-4,0-7.9,0.4-11.8,1.2C60.4,116.7,58.4,117.2,56.2,117.7L56.2,117.7z M136.3,77.4
	c-1.9-0.6-4-0.8-6-0.6c-1.8,0.2-3.6,0-5.2,1.1c-12,7.9-23,17.3-32.8,27.9c-11.6,12.7-21.6,26.5-28.9,42.1c-2.8,6.2-5.2,12.5-7.1,19
	c-0.2,0.8-0.1,1.2,0.8,1.5c1.3,0.5,2.7,1,4.1,1.3c2,0.4,2,0.4,2.6-1.6c1.4-4.9,3.1-9.7,5-14.5c3.8-9.1,8.4-17.8,13.8-26.1
	C92.7,111.8,105.8,98,121.2,87C126,83.6,131,80.4,136.3,77.4L136.3,77.4z M218,104.1c0.7,0,1.3,0,2.1,0c6.5,0.5,12.6,1.7,17.3,6.8
	c1.6,1.5,2.2,3.8,1.6,5.9c-0.9,3.6-3.5,5.9-6.4,7.8c-5.3,3.6-11.3,5.3-17.3,7.1c-7,1.9-14.1,3.2-21.4,3.7c-0.8,0-1.4,0.5-1.6,1.2
	c-0.3,1-0.4,2.1-0.4,3.2c0,1.8,0.6,2.2,2.3,2c9.6-1,18.9-3.6,27.6-7.7c6.1-2.9,12.2-5.9,16.9-11c2.9-3.2,4.4-6.7,2.9-11.1
	c-1.1-2.9-3.5-4.5-6-5.9c-7.4-4.3-15.5-4.8-23.7-3.7c-8.2,1.1-16,3.8-23.2,7.9c-0.5,0.4-1,0.6-1.6,0.6c-3.8-0.4-6.4,1.7-8.6,4.5
	c-0.5,0.6-0.9,1.2-0.1,1.9c0.5,0.5,0.4,1,0,1.5c-0.6,0.8-1,1.8-1,2.8c-0.1,1.7,0.3,1.9,1.9,1.4c1.3-0.4,2-1.9,3.1-2.1
	c1.9-0.3,2.8-1.5,3.9-2.7c0.2-0.2,0.5-0.5,0.7-0.6c1.5-0.1,2.7-1.5,2.5-3c0-0.1,0-0.1,0-0.2c-0.3-2.6,1.3-3.4,3.2-4
	c0.3-0.1,0.6-0.3,0.9-0.4C201.3,106.7,209.3,104.2,218,104.1L218,104.1z M102.9,113.7c-2.8,0-5.2,1.9-5.8,4.6c-0.4,1,0,2.2,1,2.6
	c0.2,0.1,0.5,0.2,0.7,0.2c3,0.4,5.8-1.8,6.1-4.8c0-0.1,0-0.3,0-0.4C104.9,114.4,104.3,113.8,102.9,113.7L102.9,113.7z"/>
<path class="st1" d="M54.5,169.8c2.9,1.5,6.1,2.4,9.3,2.5c0.6,0.1,1.1-0.3,1.2-0.9c0,0,0,0,0,0c1-3.6,2.2-7.1,3.3-10.7
	c0.2-0.8,0.8-0.7,1.3-0.7c1.5,0.1,3,0.5,4.5,0.7c5.9,0.8,11.8,1.3,17.7,2c12.3,1.1,24.7,1.5,37.1,1.2c3.6,0,7.3,0,10.9-0.1
	c5.8-0.3,11.7-0.7,17.5-1.3c3.4-0.4,6.8-0.6,10.1-1.2s6.7-1,10-1.6c2.8-0.5,5.6-1.1,8.4-1.6c2.4-0.4,4.7-1.2,7-1.7
	c2.7-0.6,5.4-1.3,8.1-2.1c5.6-1.6,11.2-3.6,16.5-6c4.8-2.1,9.3-4.8,13.5-8c3.5-2.7,6.2-6.3,7.6-10.5c0-0.1,0-0.2,0-0.3
	c-0.6-2.9,1.4-4.6,2.9-6.5c2.7-3.3,3.4-7.8,1.8-11.7c0-0.2-0.1-0.4-0.1-0.6c3,3.8,3,9.1,0.2,12.9c-2,2.7-3.4,5.7-4.2,8.9
	c-1.2,4.9-5.1,8.2-9,11c-8.5,6.1-18.1,9.6-28,12.5c-13.5,3.8-27.4,6.5-41.4,7.9c-15.5,1.7-31.2,2.3-46.8,1.9
	c-14.3-0.2-28.5-1.5-42.6-3.8c-0.9-0.3-1.9,0.2-2.2,1.1c0,0.1-0.1,0.2-0.1,0.4c-1,3.2-2,6.4-3,9.6c-0.3,0.8-0.5,1.3-1.6,1.2
	c-3.4-0.3-6.7-1.3-9.7-2.9C54.1,170.9,54.1,170.4,54.5,169.8z"/>
<path class="st1" d="M27.4,163.9c2.9,1.5,6.1,2.2,9.3,2.1c0.5,0,0.6-0.2,0.7-0.6c0.8-3.3,1.8-6.5,2.5-9.7c0.5-1.9,0.7-2,2.5-1.6
	c3.7,0.9,7.4,2.2,11.2,2.8c0.8,0.2,1.6,0.4,2.4,0.7c1.1,0.3,0.4,1-0.1,1.5c-4.4-1-8.8-2.1-13.1-3.5c-0.9-0.3-1.2-0.1-1.5,0.8
	c-0.9,3.5-1.9,7-2.8,10.5c-0.2,0.8-0.5,1.1-1.3,1c-3.3,0.1-6.6-0.8-9.4-2.5C27.5,165.1,26.9,164.8,27.4,163.9z"/>
<path class="st1" d="M126.2,88.8c-1.1,0.4-2.1-0.1-3.4,0c1.6-1.5,3.3-2.7,5.2-3.8c3.7-2.4,7.5-4.7,11.4-6.8c0.6-0.3,1.2-0.5,1.9-0.8
	l2.7,0.7C137.8,81.4,131.9,85,126.2,88.8z"/>
<path class="st1" d="M8.9,135.7c4,4.5,8.9,8.2,14.4,10.8c1.9,1,3.8,1.9,5.8,2.7c0.9,0.3,0.8,1,0.5,1.7c-2.8-1.4-5.6-2.8-8.3-4.3
	c-4.2-2.2-7.9-5.2-11-8.8C9.7,137.2,9.3,136.5,8.9,135.7z"/>
<path class="st1" d="M86.3,90.7c-1.1,0.4-2.4,0.6-3.6,0.5c1.5-1.6,3.1-3,4.8-4.3c0.8,0.2,1.7-0.3,2.7,0.2L86.3,90.7z"/>
<path class="st1" d="M8.2,134.7c0.3-0.1,0.1,0.2,0.3,0.3L8.2,134.7z"/>
<path class="st2" d="M186.1,125c-3.3,3-6.4,5.7-9.5,8.5c-3.6,3.2-7.2,6.5-10.9,9.6c-3.3,2.4-7.6,2.7-11.2,0.9
	c-2.3-1.3-2.7-3.1-0.9-4.9c2.7-2.7,5.5-5.3,8.3-8c2-1.9,4.1-3.8,6.2-5.8c0.9-0.9,0.8-1.6-0.5-1.8c-1.4-0.4-2.9-0.1-4,0.9
	c-6.1,5.6-12.3,11.1-18.6,16.5c-2.3,2.2-5.3,3.5-8.4,3.8c-3.9,0.3-5.6-1-6.6-4.8c-1.7,0.9-3.3,1.7-4.9,2.6c-2.5,1.3-5.2,1.9-8,1.8
	c-2,0.1-3.8-0.9-4.8-2.7c-0.6-1-1-1-2-0.4c-2.7,1.7-5.3,3.3-8.7,3.2c-2.4,0-4.6-1.6-5.3-3.9c-0.5-1.4-0.7-1.5-1.7-0.3
	c-1.7,2.1-3.8,3.9-6.2,5.2c-4.8,2.2-7.4,0.6-8.6-4.2c-0.9-3.6,0.5-6.7,2.7-9.3c3.1-3.6,6.4-7.1,9.8-10.5c1.7-1.8,3.6-1.5,5.6,0.5
	c1.4,1.5,1.5,1.7,0,3.2c-3.7,4-7.4,7.9-11.1,11.9c-0.9,0.9-1.5,2-2,3.1c-0.4,1-0.7,2,0.3,2.8c0.9,0.7,2.2,0.6,2.9-0.2
	c1.7-1.3,3.4-2.8,4.9-4.3c9.3-9.6,18.4-19.5,27.9-29c1.2-1.2,2.4-2.3,3.5-3.5c0.9-1.1,2.2-1.7,3.6-1.7c2.6-0.4,5.2-0.4,7.8-0.1
	c-2.8,2.6-5.3,5-8,7.4c-6.4,5.9-12.5,12.2-18.4,18.6c-1.8,2-3.7,4-5.5,6c-0.4,0.4-0.8,0.9-1.1,1.3c-0.7,1-1.5,2.1-0.6,3.2
	c0.9,1.1,2.1,0.6,3.2,0c3.7-1.9,6.7-4.9,9.7-7.7c7.2-6.6,14-13.6,20.4-21c2.2-2.4,4.4-4.8,6.5-7.2c0.5-0.6,1.1-1,1.9-1.1
	c2.2-0.5,4.4-0.6,6.7-0.3c0.4,0,1.1,0,1.3,0.4s-0.4,0.9-0.7,1.2c-4,4.1-7.9,8.3-12,12.4c-6.4,6.3-12.3,13.1-18.6,19.5
	c-0.8,0.8-1.4,1.7-1.7,2.7c-0.4,0.8-0.1,1.7,0.6,2.1c0.2,0.1,0.4,0.2,0.7,0.2c0.8,0.1,1.6,0.1,2.4-0.2c3.6-1,6.8-3.2,8.9-6.4
	c5.4-8.8,13.7-14.1,22.8-18.3c1.5-0.7,3.2-1,4.9-0.7c1.4,0,2.5,1.1,2.4,2.5c0,0.6-0.2,1.2-0.6,1.6c-2.2,3.3-5.6,5.2-9.2,6.6
	c-1.9,0.8-3.9,1.3-5.9,1.3c-0.5,0-0.9,0.2-1.2,0.6c-2,2.3-3.6,5.1-4.6,8c-0.1,0.4-0.2,0.7-0.2,1.1c-0.1,1.9,1.2,2.8,2.9,2
	c1.9-1.1,3.6-2.5,5.1-4c7.6-6.5,14.9-13.3,22-20.3c0.6-0.6,1.2-1.2,1.9-1.7c0.8-0.6,1.8-0.7,2.7-0.1c0.9,0.5,0.8,1.5,0.6,2.3
	c-0.3,1.1-0.9,2.2-1.6,3.1c-1,1.7-0.9,2.3,0.7,3.3c2.4,1.5,2.5,2.8,0.3,4.7c-4.9,4.3-9.9,8.5-14.5,13.2c-0.6,0.6-1.5,1.1-1,2.1
	c0.6,1,1.5,0.8,2.4,0.6c2.5-0.5,4.2-2.3,5.9-3.9c9.3-8.5,18.7-16.8,28.5-24.8c1.1-1,2.5-1.6,3.9-1.7c1-0.2,2.1,0.4,2.5,1.3
	c0.4,1,0,2.1-0.9,2.7c-1.6,1.2-3.5,2-5.5,2.4c-1.6,0.3-2.7,1.8-2.7,3.4c0,0.8,0,1.6,0,2.4c0,3.1,0,3.1,3.1,3.2c0.3,0,0.5,0,0.8,0
	c0.3,0,0.9,0,0.8,0.5c0,0.5-0.5,0.3-0.7,0.4c-1.3,0.2-2.7,0-3.7,0.8c-0.9,0.8-0.5,2.4-0.7,3.7c-0.6,2.8-2.4,4.8-4.3,6.8
	c-2.6,2.6-5.9,4.4-9.5,5.2c-1.7,0.5-3.6,0-4.9-1.3c-1.3-1.4-1.5-3.4-0.5-5.1c1.3-2.9,3.8-4.6,6.2-6.3c0.9-0.6,1.9-1.1,2.9-1.5
	C185.3,129.6,185.9,128.7,186.1,125z M183.4,132.1c-1.1,0.5-2.2,1-3.2,1.6c-2.1,1-3.8,2.7-4.8,4.7c-0.8,1.3-0.5,3,0.7,3.9
	c1.2,0.8,2.5,0.5,3.8-0.9C182.3,138.8,182.4,135.3,183.4,132.1L183.4,132.1z M148.9,125.4c1.1-0.4,2.3-0.9,3.4-1.3
	c1.9-0.8,3.8-2,5.3-3.4c0.4-0.4,0.9-1,0.4-1.7s-1.1-0.5-1.7-0.2c-0.3,0.1-0.6,0.2-0.9,0.4c-2.5,1.7-4.8,3.5-7,5.4
	c-0.2,0.2-0.5,0.3-0.4,0.6C148.2,125.5,148.6,125.4,148.9,125.4L148.9,125.4z"/>
<path class="st2" d="M56.2,117.7c2.2-0.5,4.2-0.9,6.2-1.4c3.9-0.9,7.8-1.3,11.8-1.2c1.6-0.1,3.1,0.3,4.4,1.1c0.8,0.5,1.1,1.2,0.6,2
	c-0.9,1.5-2.3,2.6-3.8,3.3c-1.2,0.5-2.6,0.4-3.6-0.5c-1.2-0.9-2.8-1.3-4.4-1.1c-4.8,0.3-9.5,1.3-14.1,2.8c-0.7,0.2-1.3,0.7-1.7,1.3
	c-5.3,8.2-9.4,17-12.2,26.3c-1.2,4-2.3,8.1-3.4,12.1c-0.3,1.1-0.8,1.3-1.8,1.2c-1.4-0.2-2.7-0.5-4-1c-0.7-0.1-1.2-0.8-1.1-1.5
	c0-0.1,0.1-0.3,0.1-0.4c2-7.9,4.7-15.6,8-23c1.4-3.4,3-6.7,4.8-9.9c-2,0.3-4,0.9-5.9,1.7c-4,1.5-8.1,2.7-12.3,3.4
	c-2.1,0.3-4.4,0.6-6.4-0.4c-2-0.8-2.9-3-2.2-5c0.1-0.2,0.2-0.4,0.3-0.6c1.7-3.1,4.2-5.7,7.1-7.6c2-1.3,4.7-1,7.4-0.9
	c-1.1,1.2-2.3,2.2-3.7,3c-1.7,1.3-3.1,2.9-4.2,4.7c-0.9,1.7-0.4,2.8,1.6,3.1c2.5,0.3,4.9,0,7.3-0.8c4.2-1.3,8.4-2.7,12.5-4.3
	c0.5-0.2,1-0.6,1.2-1.1c5.6-10.1,12.6-19.2,21-27.2c2.1-2,4.3-4,6.5-5.9c1.5-1.2,3.4-1.1,5.1-1.6c1.3-0.3,2.7-0.5,4-0.5
	c0.4,0,0.8-0.2,1,0.1s-0.3,0.7-0.6,1c-4,3.5-7.7,7.3-11.3,11.2c-4.8,5.2-9.3,10.8-13.6,16.5C56.6,116.9,56.4,117.3,56.2,117.7z"/>
<path class="st2" d="M136.2,77.4c-5.2,2.9-10.2,6.1-15.1,9.5c-15.3,11-28.5,24.8-38.7,40.6c-5.4,8.2-10,17-13.8,26.1
	c-1.9,4.7-3.6,9.6-5,14.5c-0.6,2-0.6,2-2.6,1.6c-1.4-0.4-2.8-0.8-4.1-1.3c-0.9-0.3-1-0.7-0.8-1.5c1.9-6.5,4.3-12.8,7.1-19
	c7.3-15.6,17.3-29.4,28.9-42.1c9.7-10.6,20.8-20,32.8-27.9c1.6-1.1,3.5-0.9,5.2-1.1C132.2,76.6,134.3,76.8,136.2,77.4z"/>
<path class="st2" d="M218,104.2c-8.6,0-16.7,2.5-24.5,5.9c-0.3,0.2-0.6,0.3-0.9,0.4c-1.9,0.6-3.5,1.3-3.2,4c0.2,1.5-0.8,2.9-2.3,3.2
	c-0.1,0-0.1,0-0.2,0c-0.3,0-0.5,0.3-0.7,0.6c-1.1,1.2-2,2.4-3.9,2.7c-1.1,0.2-1.8,1.7-3.1,2.1c-1.6,0.5-2.1,0.3-1.9-1.4
	c0.1-1,0.4-2,1-2.8c0.4-0.6,0.6-1.1,0-1.5c-0.8-0.7-0.4-1.3,0.1-1.9c2.2-2.8,4.8-4.9,8.6-4.5c0.6,0,1.2-0.3,1.6-0.6
	c7.2-4.1,15-6.8,23.2-7.9c8.2-1,16.3-0.6,23.7,3.7c2.5,1.4,4.9,3,6,5.9c1.6,4.4,0,7.9-2.9,11.1c-4.7,5.1-10.8,8.1-16.9,11
	c-8.7,4-18,6.6-27.6,7.7c-1.8,0.2-2.3-0.2-2.3-2c0-1.1,0.2-2.1,0.4-3.2c0.2-0.7,0.8-1.3,1.6-1.2c7.2-0.5,14.4-1.8,21.4-3.7
	c6-1.7,12.1-3.4,17.3-7.1c2.9-2,5.5-4.3,6.4-7.8c0.5-2.1-0.1-4.4-1.6-5.9c-4.6-5.1-10.8-6.3-17.3-6.8
	C219.4,104.1,218.7,104.2,218,104.2z"/>
<path class="st2" d="M102.8,113.8c1.5,0,2.1,0.6,2.1,2.1c-0.2,3-2.7,5.4-5.8,5.2c-0.1,0-0.3,0-0.4,0c-1.1,0-1.9-0.9-1.9-2
	c0-0.3,0.1-0.5,0.2-0.7C97.6,115.7,100,113.8,102.8,113.8z"/>
<path class="st0" d="M183.5,132.1c-1.1,3.2-1.1,6.7-3.5,9.2c-1.3,1.4-2.6,1.7-3.8,0.9c-1.2-0.9-1.5-2.6-0.7-3.9c1-2,2.7-3.7,4.8-4.7
	C181.3,133.1,182.4,132.7,183.5,132.1z"/>
<path class="st0" d="M148.9,125.4c-0.4,0-0.7,0.1-0.8-0.2c-0.1-0.3,0.2-0.5,0.4-0.6c2.2-2,4.6-3.8,7-5.4c0.3-0.2,0.6-0.3,0.9-0.4
	c0.6-0.3,1.2-0.4,1.7,0.2c0.5,0.7,0,1.3-0.4,1.7c-1.6,1.4-3.4,2.6-5.3,3.4C151.2,124.5,150,125,148.9,125.4z"/>
</svg>
