<?xml version="1.0" encoding="utf-8"?>
<!-- Generator: Adobe Illustrator 21.1.0, SVG Export Plug-In . SVG Version: 6.00 Build 0)  -->
<svg version="1.1" id="Layer_1" xmlns="http://www.w3.org/2000/svg" xmlns:xlink="http://www.w3.org/1999/xlink" x="0px" y="0px"
	 viewBox="0 0 250 250" style="enable-background:new 0 0 250 250;" xml:space="preserve">
<style type="text/css">
	.st0{fill:#006EB9;}
</style>
<title>Grocery</title>
<path class="st0" d="M30.5,138.3l-1.6,6.9c-0.1,0.4-0.4,0.6-0.8,0.6c-0.4,0-0.7-0.3-0.5-0.6l0,0c-0.6,0.4-1.3,0.6-2,0.6
	c-1.3,0.1-2.4-0.8-2.5-2c0-0.3,0-0.6,0.1-0.8l0.6-2.4c0.4-1.7,2-2.9,3.8-2.8c0.6,0,1.2,0.2,1.7,0.6l0,0c0-0.3,0.5-0.6,0.8-0.6
	c0.3,0,0.5,0.1,0.6,0.4C30.5,138.3,30.5,138.3,30.5,138.3z M28,143.2l0.7-2.8c0.2-0.9-0.5-1.4-1.5-1.4c-1-0.1-2,0.6-2.2,1.6
	l-0.6,2.4c-0.2,0.7,0.2,1.4,0.9,1.6c0.2,0,0.3,0.1,0.5,0C26.8,144.8,27.7,144.2,28,143.2L28,143.2z"/>
<path class="st0" d="M48.7,138.4c-0.1,0.4-0.4,0.7-0.8,0.7h-2.4l-1.5,6.2c-0.1,0.4-0.4,0.6-0.8,0.6c-0.3,0-0.5-0.2-0.5-0.4
	c0-0.1,0-0.1,0-0.2l1.5-6.2h-1.2c-0.3,0-0.5-0.2-0.5-0.5c0,0,0,0,0,0c0-0.4,0.4-0.7,0.8-0.7h1.2l0.4-1.6c0.2-0.7,0.6-1.4,1.2-1.8
	c0.6-0.5,1.4-0.8,2.2-0.8h0.9c0.3,0,0.5,0.2,0.5,0.5c0,0,0,0,0,0c0,0.4-0.4,0.7-0.8,0.7h-0.9c-0.8,0-1.5,0.6-1.7,1.3l-0.4,1.6h2.4
	c0.3,0,0.5,0.2,0.6,0.4C48.7,138.3,48.7,138.3,48.7,138.4z"/>
<path class="st0" d="M59.8,139.8c-0.1,0.7-1.3,1-1.3,0c0-0.7-0.4-1-1.2-1c-1,0-1.9,0.6-2.2,1.5l-1.1,4.8c-0.1,0.4-0.4,0.6-0.8,0.6
	c-0.3,0-0.5-0.2-0.5-0.4c0-0.1,0-0.1,0-0.2l1.6-6.9c0.1-0.3,0.4-0.6,0.8-0.6c0.3,0,0.5,0.2,0.5,0.5c0,0,0,0.1,0,0.1
	c0,0.1,0,0.2-0.1,0.3c0.5-0.6,1.3-1,2.1-1C59.2,137.7,60,138.6,59.8,139.8z"/>
<path class="st0" d="M71.8,140.6l-0.3,1.2c-0.1,0.3-0.4,0.6-0.8,0.6h-4.3l-0.1,0.6c-0.3,1.2,0.4,1.6,1.4,1.6c0.7,0,1.4-0.3,1.8-0.9
	c0.2-0.3,0.6-0.4,1-0.3c0.3,0.2,0.3,0.5,0.2,0.8c0,0,0,0,0,0.1c-0.8,1-2,1.6-3.2,1.5c-1.3,0.1-2.4-0.8-2.5-2c0-0.3,0-0.5,0.1-0.8
	l0.6-2.4c0.5-1.7,2.1-2.8,3.8-2.8c1.3-0.1,2.4,0.8,2.5,2.1C71.9,140.1,71.9,140.4,71.8,140.6z M66.8,141.2h3.6l0.1-0.6
	c0.2-1-0.1-1.6-1.3-1.6c-1,0-1.9,0.7-2.2,1.6L66.8,141.2z"/>
<path class="st0" d="M76.6,144.2c-0.1-0.3,0.1-0.7,0.4-0.8c0.4-0.1,0.8,0,0.9,0.3c0.3,0.8,1.2,1,1.8,1s1.8-0.1,1.8-1.2
	c0-0.5-0.5-0.8-1.6-1.1c-1.1-0.3-2.4-0.6-2.4-2.1s1.6-2.4,3.4-2.4c1.3,0,2.3,0.6,2.5,1.7c0,0.4-0.2,0.7-0.6,0.8
	c-0.4,0.1-0.7,0-0.8-0.4c-0.1-0.6-0.6-0.9-1.4-0.9s-1.8,0.4-1.8,1.2s1.2,0.9,1.8,1.1c1.2,0.4,2.2,0.9,2.2,2.1c0,1.8-1.9,2.5-3.4,2.5
	C78.3,146.1,77.1,145.4,76.6,144.2z"/>
<path class="st0" d="M96,140.6l-1.1,4.7c-0.1,0.4-0.4,0.6-0.8,0.6c-0.3,0-0.5-0.2-0.5-0.4c0-0.1,0-0.1,0-0.2l1.1-4.7
	c0.3-1.1-0.5-1.6-1.3-1.6c-1-0.1-1.9,0.5-2.1,1.4l-1.2,4.9c-0.1,0.4-0.4,0.6-0.8,0.6c-0.3,0-0.5-0.2-0.5-0.4c0-0.1,0-0.1,0-0.2
	l2.5-11c0.1-0.3,0.4-0.6,0.8-0.6c0.3,0,0.5,0.2,0.5,0.4c0,0,0,0.1,0,0.1l-1,4.1c0.6-0.4,1.3-0.6,2-0.6c1.3-0.1,2.4,0.8,2.5,2.1
	C96.1,140.1,96.1,140.4,96,140.6z"/>
<path class="st0" d="M117.3,140.6l-0.3,1.2c-0.1,0.3-0.4,0.6-0.8,0.6h-4.3l-0.1,0.6c-0.3,1.2,0.4,1.6,1.4,1.6c0.7,0,1.4-0.3,1.8-0.9
	c0.2-0.3,0.6-0.4,1-0.3c0.3,0.2,0.3,0.5,0.2,0.8c0,0,0,0,0,0.1c-0.8,1-2,1.6-3.2,1.5c-1.3,0.1-2.4-0.8-2.5-2c0-0.3,0-0.5,0.1-0.8
	l0.6-2.4c0.5-1.7,2.1-2.8,3.8-2.8c1.3-0.1,2.4,0.8,2.5,2.1C117.4,140.1,117.3,140.4,117.3,140.6z M112.2,141.2h3.6l0.1-0.6
	c0.2-1-0.1-1.6-1.3-1.6c-1,0-1.9,0.7-2.2,1.6L112.2,141.2z"/>
<path class="st0" d="M127.3,145.9c-0.2,0-0.4-0.1-0.5-0.3l-1.3-2.7l-2.6,2.7c-0.2,0.2-0.4,0.3-0.6,0.3c-0.3,0-0.5-0.2-0.5-0.5
	c0-0.2,0.1-0.3,0.2-0.4l3-3.2l-1.5-3c-0.1-0.4,0.1-0.8,0.5-0.9c0.1,0,0.1,0,0.2,0c0.2,0,0.4,0.1,0.5,0.3l1.2,2.6l2.5-2.6
	c0.2-0.2,0.4-0.3,0.6-0.3c0.3,0,0.5,0.2,0.5,0.5c0,0.2-0.1,0.3-0.2,0.4l-2.9,3l1.5,3.2C128.2,145.3,127.8,145.9,127.3,145.9z"/>
<path class="st0" d="M135.7,145.2l-1,4.1c-0.1,0.3-0.4,0.6-0.8,0.6c-0.3,0-0.5-0.2-0.5-0.5c0,0,0-0.1,0-0.1l2.6-11
	c0.1-0.4,0.4-0.6,0.8-0.6c0.3,0,0.5,0.2,0.5,0.5c0,0,0,0.1,0,0.1l0,0c0.6-0.4,1.2-0.6,1.9-0.6c1.3-0.1,2.4,0.8,2.5,2.1
	c0,0.3,0,0.5-0.1,0.8l-0.6,2.4c-0.5,1.7-2.1,2.8-3.8,2.8C136.7,145.8,136.1,145.6,135.7,145.2z M140.4,140.6
	c0.3-1.2-0.4-1.6-1.4-1.6c-1-0.1-1.9,0.5-2.1,1.4l-0.7,2.8c-0.2,0.9,0.5,1.5,1.5,1.5c1,0,1.9-0.7,2.2-1.7L140.4,140.6z"/>
<path class="st0" d="M154.2,140.6l-0.3,1.2c-0.1,0.3-0.4,0.6-0.8,0.6h-4.3l-0.1,0.6c-0.3,1.2,0.4,1.6,1.4,1.6c0.7,0,1.4-0.3,1.8-0.9
	c0.2-0.3,0.6-0.4,1-0.3c0.3,0.2,0.3,0.5,0.2,0.8c0,0,0,0,0,0.1c-0.8,1-2,1.6-3.2,1.5c-1.3,0.1-2.4-0.8-2.5-2c0-0.3,0-0.5,0.1-0.8
	l0.6-2.4c0.5-1.7,2.1-2.8,3.8-2.8c1.3-0.1,2.4,0.8,2.5,2.1C154.3,140.1,154.3,140.4,154.2,140.6z M149.1,141.2h3.6l0.1-0.6
	c0.2-1-0.1-1.6-1.3-1.6c-1,0-1.9,0.7-2.2,1.6L149.1,141.2z"/>
<path class="st0" d="M166.3,139.8c-0.1,0.7-1.3,1-1.3,0c0-0.7-0.4-1-1.2-1c-1,0-1.9,0.6-2.2,1.5l-1.1,4.8c-0.1,0.4-0.4,0.6-0.8,0.6
	c-0.3,0-0.5-0.2-0.5-0.4c0-0.1,0-0.1,0-0.2l1.6-6.9c0.1-0.3,0.4-0.6,0.8-0.6c0.3,0,0.5,0.2,0.5,0.5c0,0,0,0.1,0,0.1
	c0,0.1,0,0.2-0.1,0.3c0.5-0.6,1.3-1,2.1-1C165.6,137.7,166.4,138.6,166.3,139.8z"/>
<path class="st0" d="M174.5,138.4l-1.6,6.9c-0.1,0.4-0.4,0.6-0.8,0.6c-0.3,0-0.5-0.2-0.5-0.4c0-0.1,0-0.1,0-0.2l1.6-6.9
	c0.1-0.4,0.4-0.6,0.8-0.6c0.3,0,0.5,0.2,0.5,0.4C174.5,138.3,174.5,138.3,174.5,138.4z M175.6,135.6c-0.1,0.6-0.7,1.1-1.3,1.1
	c-0.4,0-0.8-0.3-0.8-0.7c0,0,0,0,0-0.1c0.1-0.6,0.6-1.1,1.3-1.1C175.1,134.7,175.5,135.1,175.6,135.6
	C175.5,135.5,175.5,135.6,175.6,135.6L175.6,135.6z"/>
<path class="st0" d="M187.1,140.6l-0.3,1.2c-0.1,0.3-0.4,0.6-0.8,0.6h-4.3l-0.1,0.6c-0.3,1.2,0.4,1.6,1.4,1.6c0.7,0,1.4-0.3,1.8-0.9
	c0.2-0.3,0.6-0.4,1-0.3c0.3,0.2,0.3,0.5,0.2,0.8c0,0,0,0,0,0.1c-0.8,1-2,1.6-3.2,1.5c-1.3,0.1-2.4-0.8-2.5-2c0-0.3,0-0.5,0.1-0.8
	l0.6-2.4c0.5-1.7,2.1-2.8,3.8-2.8c1.3-0.1,2.4,0.8,2.5,2.1C187.1,140.1,187.1,140.4,187.1,140.6z M182,141.2h3.6l0.1-0.6
	c0.2-1-0.1-1.6-1.3-1.6c-1,0-1.9,0.7-2.2,1.6L182,141.2z"/>
<path class="st0" d="M199.5,140.6l-1.1,4.7c-0.1,0.3-0.4,0.6-0.8,0.6c-0.3,0-0.5-0.2-0.5-0.4c0,0,0-0.1,0-0.1l1.1-4.7
	c0.2-0.7-0.3-1.4-1-1.6c-0.1,0-0.3,0-0.4,0c-1-0.1-1.8,0.5-2.1,1.4l-1.2,4.9c-0.1,0.3-0.4,0.6-0.8,0.6c-0.3,0-0.5-0.2-0.5-0.4
	c0,0,0-0.1,0-0.1l1.6-6.9c0.1-0.3,0.4-0.6,0.8-0.6c0.3,0,0.5,0.2,0.5,0.5c0,0,0,0.1,0,0.1l0,0c0.6-0.4,1.3-0.6,2-0.6
	c1.3-0.2,2.4,0.7,2.5,2C199.6,140,199.5,140.3,199.5,140.6z"/>
<path class="st0" d="M205,143l0.6-2.4c0.4-1.7,2-2.9,3.8-2.9c1.8,0,2.5,1,2.5,2.3c0,0.9-1.3,1-1.3,0.1c0-0.9-0.5-1.3-1.5-1.3
	c-1,0-2,0.7-2.2,1.7l-0.6,2.4c-0.3,1.2,0.5,1.7,1.4,1.7c0.9,0,1.7-0.6,2.1-1.5c0.2-0.3,0.5-0.6,0.9-0.5c0.3,0,0.5,0.3,0.4,0.6
	c0,0,0,0.1,0,0.1c-0.6,1.5-2.1,2.4-3.7,2.4c-1.3,0.1-2.4-0.8-2.5-2.1C205,143.5,205,143.2,205,143z"/>
<path class="st0" d="M224,140.6l-0.3,1.2c-0.1,0.3-0.4,0.6-0.8,0.6h-4.3l-0.1,0.6c-0.3,1.2,0.4,1.6,1.4,1.6c0.7,0,1.4-0.3,1.8-0.9
	c0.2-0.3,0.6-0.4,1-0.3c0.3,0.2,0.3,0.5,0.2,0.8c0,0,0,0,0,0.1c-0.8,1-2,1.6-3.2,1.5c-1.3,0.1-2.4-0.8-2.5-2c0-0.3,0-0.5,0.1-0.8
	l0.6-2.4c0.5-1.7,2.1-2.8,3.8-2.8c1.3-0.1,2.4,0.8,2.5,2.1C224.1,140.1,224,140.4,224,140.6z M218.9,141.2h3.6l0.1-0.6
	c0.2-1-0.1-1.6-1.3-1.6c-1,0-1.9,0.7-2.2,1.6L218.9,141.2z"/>
<path class="st0" d="M182.6,129.3c-2.7,0-5.3,0-7.9,0c-0.5-0.1-0.8-0.5-1-0.9c-0.2-0.9-0.3-1.8-0.3-2.8c0-0.8-0.4-1.1-1.1-1.1
	c-2.8,0-5.6,0-8.4,0c-0.4,0-0.8,0.4-1.1,0.7c-0.1,0.1-0.1,0.3-0.2,0.4c-0.6,1.2-1,2.8-1.9,3.4c-1,0.6-2.6,0.2-3.9,0.2h-26.7
	c0.3-1.8,0.6-3.5,0.9-5.3c1.3-7.2,2.7-14.4,4-21.7c0.2-0.9,0.5-1.2,1.3-1.2c2.1,0,4.1,0,6.2,0c1,0,1.1,0.3,0.9,1.2
	c-1.2,6.5-2.4,12.9-3.6,19.4c0,0.1,0,0.3,0,0.7h13.5l-1,5.7l0.3,0.1c0.2-0.3,0.4-0.7,0.6-1c4.7-8.4,9.4-16.7,14.1-25.1
	c0.3-0.8,1.1-1.2,1.9-1.1c2.3,0.1,4.7,0,7,0c0.9,0,1.2,0.3,1.3,1.2c1.6,8.5,3.2,17,4.8,25.5C182.5,128.2,182.6,128.7,182.6,129.3z
	 M166,118.7c2.3,0,4.1,0,5.9,0c0.2,0,0.6-0.5,0.6-0.8c-0.2-2-0.4-4-0.7-6c-0.1-1.1-0.3-2.2-0.4-3.3H171L166,118.7z"/>
<path class="st0" d="M95.6,108.1c-0.2,0.4-0.4,0.7-0.6,1.1c-2.8,6.2-5.6,12.5-8.3,18.7c-0.2,0.9-1.1,1.5-2,1.3c-1.3-0.1-2.7,0-4,0
	c-0.4-0.1-0.7-0.4-0.8-0.8c-0.4-4.6-0.7-9.2-1-13.8c-0.1-2.1-0.3-4.3-0.5-6.4h-0.3c-0.2,1.1-0.5,2.3-0.7,3.4c-1,5.4-2,10.9-3,16.3
	c-0.2,1-0.5,1.4-1.6,1.3c-1.8-0.1-3.5,0-5.5,0c0.4-2.1,0.7-4,1-5.8c1.3-6.8,2.5-13.7,3.8-20.5c0.3-1.8,0.3-1.8,2.1-1.8
	c2.7,0,5.4,0,8.1,0c1.1,0,1.4,0.3,1.5,1.4c0.3,4.9,0.6,9.8,1,14.8c0.1,0.3,0.2,0.7,0.3,1c0.3-0.7,0.6-1.2,0.8-1.6
	c2.1-4.8,4.2-9.5,6.3-14.3c0.2-0.8,1-1.3,1.8-1.2c2.9,0.1,5.7,0,8.6,0c0.4,0,0.8,0,1.3,0.1c-0.4,2.5-0.9,4.8-1.3,7.1
	c-1.2,6.4-2.4,12.8-3.6,19.2c-0.3,1.7-0.3,1.7-2,1.7c-1.3,0-2.6,0-3.9,0c-0.9,0-1.3-0.1-1.1-1.2c1.3-6.4,2.4-12.9,3.6-19.3
	c0-0.2,0-0.4,0-0.6L95.6,108.1z"/>
<path class="st0" d="M195.1,114c-0.3,1.5-0.6,3-0.9,4.4c-0.6,3.2-1.2,6.4-1.7,9.6c-0.2,0.9-0.5,1.3-1.5,1.2c-1.8-0.1-3.6-0.1-5.3,0
	c-1,0-1.3-0.2-1.1-1.3c1.6-8.4,3.2-16.9,4.7-25.3c0.2-1.1,0.6-1.5,1.7-1.5c1.7,0.1,3.4,0.1,5.1,0c0.9-0.1,1.8,0.4,2.1,1.3
	c2,4.3,4.2,8.5,6.3,12.7c0.2,0.5,0.6,1,1,1.3c0.3-1.7,0.7-3.5,1-5.2c0.6-3.1,1.1-6.1,1.7-9.2c0-0.3,0.4-0.9,0.6-0.9
	c2.5,0,4.9,0,7.5,0c-0.5,3-1.1,5.7-1.6,8.5c-1.1,5.9-2.2,11.8-3.3,17.7c-0.3,1.8-0.3,1.8-2.1,1.8c-1.8,0-3.5,0-5.2,0
	c-0.7,0.1-1.4-0.3-1.6-1c-2.1-4.4-4.3-8.8-6.5-13.2c-0.2-0.4-0.4-0.8-0.6-1.2L195.1,114z"/>
<path class="st0" d="M16.2,110.9c0.5,0.1,0.9,0.1,1.4,0.2c2.3,0,4.7,0,7,0c1.1,0,1.5-0.5,1.7-1.5c0.4-2.5,0.9-5,1.4-7.5
	c0-0.3,0.4-0.9,0.6-0.9c2.7,0,5.2,0,8,0c-0.5,2.5-0.9,4.8-1.3,7.1c-1.1,6.4-2.3,12.8-3.5,19.2c-0.3,1.7-0.3,1.7-2,1.7h-6.8l2.1-11.4
	c-0.4-0.1-0.8-0.1-1.2-0.2c-2.5,0-4.9,0-7.4,0c-0.9,0-1.3,0.3-1.5,1.3c-0.5,3.1-1.1,6.1-1.7,9.2c-0.1,0.8-0.5,1.2-1.3,1.1
	c-2.1-0.1-4.1,0-6.2,0c-0.9,0-1.1-0.3-1-1.2c1.6-8.6,3.2-17.3,4.8-25.9c0-0.6,0.5-1,1.1-1c0.1,0,0.1,0,0.2,0c2.1,0,4.2,0,6.3,0
	c0.9,0,1.1,0.4,0.9,1.2C17.3,105.2,16.8,108,16.2,110.9z"/>
<path class="st0" d="M215.8,129.1c0.3-2,0.7-3.9,1-5.8c1.3-6.9,2.6-13.7,3.8-20.6c0.2-1.1,0.5-1.6,1.7-1.5c4.3,0.1,8.7,0,13,0.1
	c5.8,0.1,9.1,3.6,9.1,9.3c0.2,4.4-1,8.7-3.4,12.4c-2.2,3.5-6,5.7-10.1,5.9c-4.9,0.3-9.8,0.2-14.7,0.3
	C216.2,129.2,216,129.2,215.8,129.1z M225.3,123.2c1.6-0.1,3-0.2,4.4-0.3c2.1-0.1,4-1.5,4.7-3.5c1.1-2.6,1.6-5.4,1.5-8.3
	c0.1-1.7-1.1-3.3-2.9-3.5c-1.2-0.2-2.5-0.3-3.7-0.4c-0.8-0.1-1.2,0.3-1.3,1.1c-0.2,1.2-0.4,2.5-0.7,3.7L225.3,123.2z"/>
<path class="st0" d="M54.5,100.6c1.6,0.2,3.3,0.3,4.9,0.7c4.1,0.8,7.2,4.4,7.2,8.6c0.3,5.8-1.1,11-5.2,15.2c-2.6,2.7-6,4.2-9.7,4.4
	c-2.1,0.2-4.3,0.1-6.4-0.2c-5-0.8-8-3.8-8.3-8.8c-0.4-6.4,1.4-12.2,6.7-16.4C46.8,101.7,50.6,100.5,54.5,100.6z M45.4,117.3
	c0,3.8,1.1,5.5,3.5,6c2.9,0.7,5.9-0.7,7.3-3.3c1.3-2.4,1.9-5.1,2-7.8c0.1-3.1-1.5-4.9-4.5-5.1c-2.6-0.3-5.1,1-6.3,3.3
	C46.2,112.4,45.5,114.8,45.4,117.3L45.4,117.3z"/>
<path class="st0" d="M112.7,123.1h15.1c-0.4,2-0.7,3.8-1.1,5.7c0,0.3-0.8,0.5-1.2,0.5c-4.8,0-9.6,0-14.5,0h-8
	c0.3-1.9,0.6-3.6,0.9-5.3c1.3-7.2,2.7-14.4,4-21.7c0.1-0.7,0.3-1.1,1.1-1.1h21.6c0.2,0,0.4,0.1,0.6,0.1c-0.3,1.7-0.6,3.4-0.9,5
	c0,0.3-0.7,0.5-1.1,0.5c-4.1,0-8.2,0-12.3,0c-1.1,0-1.5,0.3-1.6,1.3c-0.1,1-0.4,2.1-0.6,3.4c0.6,0,1,0.1,1.4,0.1c3.6,0,7.2,0,10.8,0
	c1,0,1.4,0.2,1.1,1.3c-0.3,1-0.5,2-0.6,3c-0.1,1-0.5,1.2-1.4,1.2c-3.6,0-7.1,0-10.7,0c-1.7,0-1.7,0-2.1,1.7
	C113.2,120.2,113,121.6,112.7,123.1z"/>
</svg>
