<?xml version="1.0" encoding="utf-8"?>
<!-- Generator: Adobe Illustrator 21.1.0, SVG Export Plug-In . SVG Version: 6.00 Build 0)  -->
<svg version="1.1" id="Layer_1" xmlns="http://www.w3.org/2000/svg" xmlns:xlink="http://www.w3.org/1999/xlink" x="0px" y="0px"
	 viewBox="0 0 250 250" style="enable-background:new 0 0 250 250;" xml:space="preserve">
<style type="text/css">
	.st0{fill:#D0202E;}
	.st1{fill:#FFFFFF;}
</style>
<title>CR</title>
<rect x="5" y="84" class="st0" width="240" height="82.1"/>
<polygon class="st1" points="41.3,121.4 41.3,133.6 30,133.6 30,121.4 21.2,121.4 21.2,153.6 30,153.6 30,141.3 41.3,141.3 
	41.3,153.6 50.1,153.6 50.1,121.4 "/>
<path class="st1" d="M77.3,137.5c0,4.3-3.5,7.9-7.9,7.9c-4.3,0-7.9-3.5-7.9-7.9c0-4.3,3.5-7.9,7.9-7.9c0,0,0,0,0,0
	C73.7,129.6,77.3,133.1,77.3,137.5z M69.4,121.4c-8.9,0-16.1,7.2-16.1,16.1s7.2,16.1,16.1,16.1s16.1-7.2,16.1-16.1
	C85.5,128.6,78.3,121.4,69.4,121.4L69.4,121.4z"/>
<polygon class="st1" points="115.7,121.4 106.6,121.4 97.8,121.4 88.7,121.4 88.7,129.1 97.8,129.1 97.8,153.6 106.6,153.6 
	106.6,129.1 115.7,129.1 "/>
<path class="st1" d="M137,122.5c1.7,0.8,3.3,1.9,4.7,3.2l-4.3,4.3c-1.5-1.7-3.8-2.7-6.1-2.6c-2.6,0-4.3,0.6-5,1.8
	c-0.7,0.9-0.7,2.2,0,3.1c0.7,0.9,2.4,1.5,5,1.9c2.7,0.3,5.3,1.2,7.5,2.7c2.3,1.6,3.6,4.4,3.4,7.2c0,2.7-1.4,5.2-3.6,6.7
	c-2.4,1.9-5.3,2.8-8.4,2.8c-2.6,0.1-5.2-0.4-7.6-1.3c-1.9-0.8-3.7-2-5.2-3.4l4.3-4.3c1.4,1.7,3.9,2.7,7.4,3c2.9,0,4.7-0.6,5.4-1.8
	c0.7-1.1,0.7-2.5,0-3.6c-0.7-1.2-2.5-2-5.4-2.3c-2.5-0.3-5-1.1-7.2-2.4c-2.2-1.3-3.3-3.5-3.3-6.7c0-2.8,1.4-5.4,3.7-6.8
	c2.2-1.6,4.9-2.5,7.6-2.6C132.4,121.3,134.8,121.7,137,122.5z"/>
<path class="st1" d="M192.4,134.1c0,3.4-2.7,6.1-6.1,6.1s-6.1-2.7-6.1-6.1s2.7-6.1,6.1-6.1S192.4,130.8,192.4,134.1L192.4,134.1z
	 M186.3,121.7c-6.9,0-12.5,5.6-12.5,12.5s5.6,12.5,12.5,12.5c6.9,0,12.5-5.6,12.5-12.5C198.8,127.3,193.2,121.7,186.3,121.7
	L186.3,121.7z"/>
<path class="st1" d="M170.5,144.2c1.3,2.9-2.5-6-2.5-9.4c0-10.4,8.4-18.8,18.7-18.8c10.4,0,18.8,8.4,18.8,18.7c0,0,0,0,0,0
	c0-3.1-0.6-6.1-1.9-8.9c-2.2-4.8-4.4-12.6-1.1-17c-1.4,0.1-2.7,0.6-3.7,1.6c0,0,2.7-14.7-3.7-20.8c0,0-0.6,8.1-6.5,12
	c-5.8,3.9-9.3,8.9-9.9,12.2c0,0-2.1-0.1-1.9-3.2c0,0,0,1.5-2.7,4.3S162.1,126.4,170.5,144.2z"/>
<path class="st1" d="M219.7,121.4h-17.9v1.5c1.4,1.9,2.4,4,3,6.2h6.1v24.4h8.8v-24.4h9.1v-7.7L219.7,121.4z"/>
<path class="st1" d="M167.7,135.2c0-2.6,0.5-5.1,1.5-7.5c-1-4.2-4.6-6.3-10.5-6.3h-13.5v32.1h6.2v-13.3h7.3c4.3,0,7.3-1.1,9.1-3.4
	C167.8,136.3,167.7,135.8,167.7,135.2z M160.1,134.3h-8.7v-6.8h8.8c2.5,0.1,3.7,1.2,3.8,3.3C163.9,133.1,162.6,134.3,160.1,134.3
	L160.1,134.3z"/>
</svg>
