<?xml version="1.0" encoding="utf-8"?>
<!-- Generator: Adobe Illustrator 21.1.0, SVG Export Plug-In . SVG Version: 6.00 Build 0)  -->
<svg version="1.1" id="Layer_1" xmlns="http://www.w3.org/2000/svg" xmlns:xlink="http://www.w3.org/1999/xlink" x="0px" y="0px"
	 viewBox="0 0 250 250" style="enable-background:new 0 0 250 250;" xml:space="preserve">
<style type="text/css">
	.st0{fill:#CF001D;}
</style>
<title>Grocery</title>
<path class="st0" d="M31.7,104h-7.5c-0.3,0-0.5,0.1-0.5,0.5s0,0.5,0,0.7c0,14.5,0,29,0,43.5c0,1,0,1-1,1c-4.7,0-9.1-1.8-12.6-5
	c-1.5-1.5-2.5-3.4-2.9-5.4c-0.8-3.4-1.1-6.9-0.9-10.4c0-0.4,0-0.7,0-1.1c0-14.1,0-28.1,0-42.2c0-0.4,0-0.8,0-1.2h0.7
	c5.3,0,10.6,0,15.9,0c0.6,0,0.7,0.2,0.7,0.7c0,4,0,8,0,11.9c0,0.3,0,0.5,0,0.9h7.9V84.5h17.9v1c0,14.1,0,28.2,0,42.3
	c0,2.1,0.1,4.1,0,6.2c-0.1,2.6-0.7,5.2-1.8,7.6c-1.5,3.3-4.4,5.8-7.8,6.9c-2.3,0.8-4.7,1.2-7.2,1.2c-0.4,0-0.8-0.1-1.2-0.1L31.7,104
	z"/>
<path class="st0" d="M121.9,84.5v50.4h0.1c0-0.1,0.1-0.3,0.2-0.4l7.1-21.8c3-9.1,5.9-18.2,8.9-27.3c0.1-0.6,0.7-1,1.3-0.9
	c0,0,0,0,0.1,0c5.9,0,11.8,0,17.7,0h0.9c-0.3,0.9-0.6,1.7-0.9,2.4l-13.9,35.7c-1.5,4-3,8-4.7,12c-1.2,3.2-3,6.2-5.3,8.7
	c-3.3,3.4-7.8,5.4-12.5,5.5c-4.9,0.1-9.8,0.1-14.7,0.2c-0.5,0-0.6-0.1-0.6-0.6c0-6.6,0-13.1,0-19.7c0-0.3,0.2-0.6,0.5-0.8
	c3.6-2.1,4.8-6.7,2.7-10.3c-0.7-1.1-1.6-2.1-2.7-2.7c-0.2-0.2-0.4-0.4-0.4-0.7c0-9.7,0-19.4,0-29c0-0.4,0-0.6,0.5-0.6h15.5
	L121.9,84.5z"/>
<path class="st0" d="M98.3,166.2H81.8v-17.1h-0.9c-3.5,0-7,0.1-10.5,0c-3.9,0-7.6-1.7-10.3-4.6c-1.5-1.8-2.5-3.9-2.9-6.2
	c-0.4-1.7-0.6-3.4-0.6-5.1c0-11.4,0-22.8,0-34.2c0-0.3,0-0.5,0-0.8h17.6c0,0.3,0,0.6,0,0.9c0,12.4,0,24.9,0,37.5
	c0,1.3,0.2,2.6,0.4,3.9c0.2,1.2,1.1,2.2,2.4,2.4c1.6,0.3,3.2,0.4,4.8,0.3v-45h16.6V99c0,5.1,0,10.1,0,15.2c0,0.4-0.2,0.8-0.5,1
	c-3.4,2.3-4.4,6.9-2.1,10.4c0.6,0.8,1.3,1.6,2.1,2.1c0.3,0.2,0.5,0.5,0.5,0.9c0,12.4,0,24.8,0,37.2C98.3,165.8,98.3,166,98.3,166.2z
	"/>
<path class="st0" d="M170.8,134.8c1.7-1,3.1-2.6,3.8-4.5c0.3-0.8,0.4-1.6,0.4-2.5c0-7.1,0-14.2,0-21.3c-0.1-2.1-1.8-3.7-3.9-3.6
	c-0.5,0-1,0.1-1.4,0.3c-1,0.5-1.6,1.5-1.6,2.5c0,0.2,0,0.4,0,0.6c0,9.7,0,19.4,0,29.1c-0.1,1.6,0.3,3.1,1.1,4.4
	c0.8,1.1,2.1,1.8,3.4,1.7c3.1,0,6.2,0,9.2-0.1c0.6,0,0.8,0.2,0.8,0.8c0,2.2,0,4.4,0,6.6c-0.2,0-0.3,0-0.5,0c-4.9,0-9.9,0-14.8,0
	c-2.9-0.1-5.7-1.1-8.1-2.8c-4.1-2.7-6.9-7.1-7.7-12c-0.1-0.7-0.2-1.4-0.2-2.1c0-5.7,0-11.5,0-17.3c0-3.7,1.2-7.3,3.3-10.3
	c2.2-3,5.4-5.1,9-5.8c5.1-1.3,10.5-1.3,15.6-0.2c4.9,1,8.9,4.3,10.9,8.9c0.8,1.8,1.2,3.8,1.1,5.7c0,3.6,0,7.2,0,10.7
	c0.1,2.9-0.9,5.6-2.8,7.8c-1.4,1.7-3.4,2.7-5.6,2.9C178.9,135,174.9,135.1,170.8,134.8z"/>
<path class="st0" d="M215.6,134.7c0.9-0.8,1.8-1.7,2.7-2.7c1-1.3,1.5-2.9,1.5-4.5c0-7,0-13.9,0-20.9c0-2.1-1.6-3.8-3.7-3.9
	c-0.4,0-0.8,0-1.1,0.2c-1.3,0.4-2.2,1.6-2.2,3c0,0.4,0,0.8,0,1.2c0,9.3,0,18.6,0,28c0,1.4,0.2,2.7,0.7,4c0.8,1.6,2.4,2.6,4.2,2.5
	c2.8-0.1,5.5,0,8.3,0h1.4v7.3h-0.9c-4.5,0-9,0-13.5,0c-3.6,0-7.1-1.2-9.9-3.5c-3.5-2.6-5.9-6.5-6.7-10.8c-0.2-1-0.3-1.9-0.3-2.9
	c0-5.7,0-11.3,0-17c0-3.3,0.9-6.5,2.7-9.3c2.4-4,6.1-6.1,10.5-7c4.6-1,9.3-1.1,13.9-0.1c5.9,0.9,10.7,5.2,12.3,10.9
	c0.3,1.3,0.5,2.6,0.5,3.9c0,3.9,0.2,7.7,0,11.6c0,3.9-2.2,7.4-5.7,9.1c-1.5,0.6-3.1,1-4.8,1c-3.2,0.2-6.4,0.1-9.6,0.1
	C215.8,134.8,215.7,134.8,215.6,134.7z"/>
<path class="st0" d="M241.3,148.9c-2.6,0-4.8-2.1-4.8-4.8s2.1-4.8,4.8-4.8c2.6,0,4.8,2.1,4.8,4.8S243.9,148.9,241.3,148.9
	L241.3,148.9z M241.3,139.9c-2.3,0-4.2,1.9-4.2,4.2c0,2.3,1.9,4.2,4.2,4.2c2.3,0,4.2-1.9,4.2-4.2v0
	C245.5,141.8,243.6,139.9,241.3,139.9z"/>
<path class="st0" d="M241.3,149.1c-2.8,0-5-2.2-5-5c0-2.8,2.2-5,5-5c2.8,0,5,2.2,5,5l0,0C246.3,146.9,244,149.1,241.3,149.1z
	 M241.3,139.6c-2.5,0-4.5,2-4.5,4.5c0,2.5,2,4.5,4.5,4.5c2.5,0,4.5-2,4.5-4.5C245.8,141.6,243.8,139.6,241.3,139.6L241.3,139.6z
	 M241.3,148.5c-2.4,0-4.4-2-4.4-4.4c0-2.4,2-4.4,4.4-4.4c2.4,0,4.4,2,4.4,4.4C245.7,146.6,243.7,148.5,241.3,148.5L241.3,148.5z
	 M241.3,140.1c-2.2,0-4,1.8-4,4c0,2.2,1.8,4,4,4c2.2,0,4-1.8,4-4C245.3,141.9,243.5,140.1,241.3,140.1z"/>
<path class="st0" d="M239.5,141.9c0.4-0.1,0.9-0.1,1.3-0.1c0.6,0,1.1,0.1,1.6,0.4c0.3,0.2,0.4,0.5,0.4,0.9c-0.1,0.6-0.5,1.1-1.1,1.2
	l0,0c0.4,0.1,0.7,0.5,0.8,0.9c0.1,0.4,0.2,0.9,0.4,1.3h-0.7c-0.2-0.4-0.3-0.7-0.4-1.1c-0.1-0.6-0.6-1-1.1-0.9h-0.7v2h-0.7
	L239.5,141.9z M240.2,144h0.7c0.8,0,1.3-0.3,1.3-0.9s-0.5-0.9-1.3-0.9c-0.2,0-0.5,0-0.7,0L240.2,144z"/>
<path class="st0" d="M243.5,146.7h-1.3l-0.1-0.1c-0.2-0.4-0.3-0.8-0.4-1.2c0-0.4-0.4-0.8-0.9-0.7c0,0,0,0,0,0h-0.4v2h-1.1v-5h0.2
	c0.5-0.1,0.9-0.1,1.4-0.1c0.6-0.1,1.2,0.1,1.7,0.4c0.3,0.2,0.5,0.6,0.5,1.1c0,0.5-0.3,1-0.8,1.2c0.3,0.2,0.4,0.5,0.5,0.9
	c0.1,0.4,0.2,0.8,0.4,1.2L243.5,146.7z M242.5,146.2h0.3c-0.1-0.2-0.2-0.5-0.3-1c-0.1-0.4-0.3-0.7-0.7-0.8h-0.1
	c0.3,0.2,0.5,0.5,0.5,0.9C242.3,145.6,242.4,145.9,242.5,146.2L242.5,146.2z M239.7,146.2h0.3v-4.1h0.2c0.3,0,0.5,0,0.8,0
	c1.3,0,1.5,0.8,1.5,1.1c0,0.3-0.2,0.7-0.5,0.8c0.4-0.1,0.7-0.5,0.7-0.9c0-0.3-0.1-0.5-0.3-0.7c-0.4-0.3-1-0.4-1.5-0.3
	c-0.4,0-0.8,0-1.1,0L239.7,146.2z M240.9,144.2c0.3,0,0.5,0.1,0.7,0.2v-0.3C241.4,144.2,241.2,144.2,240.9,144.2L240.9,144.2z
	 M240.4,143.7h0.5c0.6,0,1-0.3,1-0.7s-0.4-0.6-1.1-0.6h-0.5L240.4,143.7z"/>
</svg>
