<?xml version="1.0" encoding="utf-8"?>
<!-- Generator: Adobe Illustrator 21.1.0, SVG Export Plug-In . SVG Version: 6.00 Build 0)  -->
<svg version="1.1" id="Layer_1" xmlns="http://www.w3.org/2000/svg" xmlns:xlink="http://www.w3.org/1999/xlink" x="0px" y="0px"
	 viewBox="0 0 250 250" style="enable-background:new 0 0 250 250;" xml:space="preserve">
<style type="text/css">
	.st0{fill:#E72725;}
	.st1{fill:#FFFFFF;}
</style>
<title>Grocery</title>
<path class="st0" d="M244.9,125.9c0-42.5-52.3-78.3-119.8-78.3C60,47.6,4.9,81.2,4.9,125.7c0,43.8,56.9,77.2,120,77.2
	C193.8,202.9,244.9,166.7,244.9,125.9L244.9,125.9z"/>
<path class="st1" d="M133.4,165.4l29.7-76.6c1.8-5,6.3-8,13.1-8h29.9c8.3,0,15,3.1,15,12.6c0,2.1-0.4,4.1-1.1,6.1l-24.3,66h-25.5
	l9.8-26.8h-11.3L158,165.4H133.4z"/>
<path class="st0" d="M181,106.5l-4,10.5h11.4l3.5-8.7c1.8-4.6,1.9-4.6,1.9-5.5c0-2.2-1.7-3.7-4.8-3.7
	C184.4,99.2,182.9,101.6,181,106.5L181,106.5z"/>
<path class="st1" d="M72.7,142.2l16.6-43c5.5-14.4,8-18.3,21.2-18.3h45.4l-8.3,21.6h-27.3c-4.6,0-5.9,0.6-7.2,3.7l-12.7,32.3
	c-0.4,1-0.6,2.1-0.7,3.1c0,2.2,2.4,3.1,6.1,3.1h10.2l3.3-9.4H110l7.2-18.3H143l-18.5,48.4H83c-6.3,0-12.9-4-12.9-12.6
	C70.3,149.2,71.1,145.6,72.7,142.2L72.7,142.2z"/>
<polygon class="st1" points="28.6,165.4 62,80.9 87.8,80.9 54.4,165.4 28.6,165.4 "/>
<path class="st1" d="M213.9,165.4c-3.8,0-6.9-3.1-6.9-6.9s3.1-6.9,6.9-6.9c3.8,0,6.9,3.1,6.9,6.9l0,0
	C220.7,162.3,217.6,165.4,213.9,165.4z M213.9,152c-3.6,0-6.5,2.9-6.5,6.5c0,3.6,2.9,6.5,6.5,6.5c3.6,0,6.5-2.9,6.5-6.5
	C220.4,154.9,217.5,152,213.9,152z"/>
<path class="st1" d="M210.4,162.7v-8.9h3.1c0.6,0,1.2,0,1.7,0.2c0.4,0.2,0.7,0.5,0.8,0.8c0.2,0.4,0.3,0.9,0.3,1.4
	c0,0.6-0.2,1.2-0.5,1.7c-0.4,0.4-0.9,0.7-1.4,0.8c0.3,0.2,0.6,0.5,0.8,0.7c0.3,0.5,0.6,0.9,0.8,1.5l0.9,1.7h-1.8l-1.1-1.9
	c-0.2-0.5-0.5-0.9-0.8-1.3c-0.1-0.2-0.3-0.3-0.4-0.4c-0.2-0.1-0.5-0.1-0.7-0.1h-0.3v3.7L210.4,162.7z M211.8,157.6h1.2
	c0.4,0,0.9,0,1.3-0.1c0.2-0.1,0.3-0.2,0.4-0.4c0.1-0.2,0.2-0.5,0.2-0.7c0-0.2-0.1-0.5-0.2-0.7c-0.1-0.2-0.3-0.3-0.5-0.4
	c-0.4-0.1-0.8-0.1-1.2-0.1H212L211.8,157.6z"/>
</svg>
