<?xml version="1.0" encoding="utf-8"?>
<!-- Generator: Adobe Illustrator 21.1.0, SVG Export Plug-In . SVG Version: 6.00 Build 0)  -->
<svg version="1.1" id="Layer_1" xmlns="http://www.w3.org/2000/svg" xmlns:xlink="http://www.w3.org/1999/xlink" x="0px" y="0px"
	 viewBox="0 0 250 250" style="enable-background:new 0 0 250 250;" xml:space="preserve">
<style type="text/css">
	.st0{fill:#EE3A43;}
</style>
<title>Grocery</title>
<path class="st0" d="M117.5,166.8c0.6-0.5,1.2-1,1.8-1.5c0.7-0.6,1.3-1.3,1.6-2.2c0.4-1,0-2.1-0.8-2.8c-0.8-0.6-1.9-0.9-2.9-0.8
	c-2.3,0-4.6,0.4-6.7,1.3c-2.6,1-5.1,2.1-7.7,3.1c-1.7,0.6-3.4,1-5.2,1.1c-2.6,0.3-5.1,0-7.6-0.7c-1.3-0.5-2.6-1.1-3.7-1.9
	c-2.4-1.4-4.2-3.5-5.3-6c-2.3-5-2.1-10.8,0.8-15.5c0.8-1.5,2-2.7,3.4-3.6c0.4-0.2,0.7-0.5,1-0.8c0.7-0.5,0.8-1.6,0.3-2.3
	c-0.1-0.1-0.1-0.2-0.2-0.2c-2.2-2.4-3.9-5.2-4.9-8.3c-2.3-6.5-0.6-13.6,4.3-18.4c2.8-3,6.3-5.2,10.3-6.3c3-0.8,6.1-1,9.2-0.8
	c2.9,0.2,5.7,0.8,8.5,1.7c0.4,0.1,0.9,0.1,1.3,0c1.2-0.3,2.2-1.2,2.5-2.3c0.2-0.5,0.3-1.1,0.5-1.6c0.6-2,1.9-2.5,3.8-2.1
	c2.2,0.5,3.9,2.3,4.1,4.5c0.1,0.4,0.2,0.8,0.2,1.3c0.1,1.4-0.7,2.8-1.9,3.4c-0.6,0.4-1.2,0.9-1.7,1.3c-0.8,0.8-0.8,2-0.1,2.9
	c1.3,1.6,2.3,3.4,2.8,5.4c0.7,2.3,0.9,4.6,0.7,7c-0.2,3.5-1.5,6.8-3.6,9.6c-3.6,4.7-8.9,7.8-14.8,8.7c-1.7,0.3-3.4,0.5-5.2,0.5
	c-1.1-0.1-2.3-0.2-3.4-0.4c-1.4-0.3-2.8-0.3-4.2,0.1c-1,0.4-1.7,1.1-2.1,2.1c-0.2,0.7-0.1,1.4,0.2,2.1c0.3,0.8,1,1.3,1.8,1.5
	c2,0.6,4.1,0.6,6.1,0c3.3-0.8,6.5-1.7,9.8-2.5c2.9-0.8,5.9-1.1,8.9-1c3.6,0,6.9,1.7,9.1,4.5c1.1,1.5,1.7,3.2,1.9,5
	c0.3,2.2,0.1,4.4-0.6,6.4c-0.8,2.2-2.2,4.1-4,5.6c-1,0.9-2.2,1.6-3.4,2.2c-1.4,0.6-3,0.8-4.5,0.6
	C117.9,166.9,117.7,166.9,117.5,166.8z M107.8,119.5c0-3.2-0.6-6.4-1.9-9.3c-0.3-0.7-0.7-1.3-1.3-1.7c-1.1-0.7-2.5-0.5-3.3,0.4
	c-0.2,0.3-0.4,0.6-0.6,0.9c-1.2,2.5-1.9,5.2-1.9,7.9c-0.1,3.4,0.1,6.9,0.6,10.3c0.2,1.5,0.7,3,1.5,4.2c0.7,1,2.1,1.4,3.3,1
	c1.1-0.6,2-1.7,2.3-2.9C107.4,126.8,107.8,123.1,107.8,119.5z"/>
<path class="st0" d="M52.2,153.8H31v-50.1c6.2,0.4,12.5-1,17.9-4.1c0.3,0.7,0.4,1.5,0.5,2.3c0.1,0.9,0.2,1.7,0.3,2.6
	c0.1,0.4,0.3,0.7,0.6,0.9c0.3,0.4,0.9,0.5,1.3,0.3c1-0.4,2-0.8,3-1.3c1.9-1.2,3.9-2,6.1-2.4c4-0.8,8.1,0.1,11.3,2.7
	c1.9,1.6,3.2,3.9,3.5,6.4c0.1,1,0.1,2,0.1,2.9c0,7.4,0,14.7,0,22.1c0,4.2,0,8.3,0.1,12.5c0.1,0.7,0.3,1.5,0.7,2.1
	c0.4,1.1,1.2,2.1,2.1,2.9H59.6c-0.7,0-1.5,0-2.3,0c-0.3,0-0.5-0.1-0.5-0.4c0-0.2,0-0.3,0-0.5c0-11.4,0-22.9,0-34.3
	c0-1.4-0.3-2.7-0.8-4c-0.2-0.7-0.6-1.3-1.1-1.8c-0.8-0.9-2.3-1-3.2-0.2c-0.2,0.2-0.3,0.3-0.4,0.5c-0.5,0.8-0.8,1.6-1.1,2.5
	c-0.3,0.9-0.5,1.9-0.5,2.8c0,4.8,0,9.6,0,14.3c0,5.2,0,10.4-0.1,15.6c0.1,1.7,0.7,3.3,1.7,4.6C51.7,153.1,51.9,153.4,52.2,153.8z"/>
<path class="st0" d="M200,122.6l-8.5,3.8l-6.4,2.9c-2.6,1.2-5.2,2.3-7.7,3.5c-0.9,0.4-1.4,1.2-1.4,2.2c-0.1,1,0.2,2.1,0.8,3
	c2.1,3.6,5.7,6.1,9.8,6.9c1,0.2,2,0.2,2.9-0.2c1.2-0.3,2-1.4,1.9-2.6c0-0.7,0-1.3,0.1-2c0.2-1.6,1.4-2.8,3-2.9
	c2-0.3,4.1,0.7,5.1,2.4c1.4,1.9,1.7,4.4,0.7,6.6c-0.7,1.6-1.8,3.1-3.1,4.2c-1.8,1.6-3.8,2.8-6.1,3.8c-1.8,0.7-3.6,1.1-5.5,1.3
	c-6.9,0.9-13.8-1-19.3-5.1c-5.5-4.2-9.2-10.3-10.3-17.1c-0.9-5-0.7-10.1,0.7-15c1.1-3.9,3.2-7.5,6-10.5c6.8-7.3,17.7-8.9,26.2-3.9
	c1.5,0.9,2.8,2.1,3.8,3.5c1.6,2.2,2.8,4.5,3.8,7.1c0.7,1.9,1.3,3.7,1.9,5.6c0.2,0.8,0.7,1.5,1.2,2.1
	C199.7,122.1,199.8,122.3,200,122.6z M182.5,118.9c0-0.3,0-0.7-0.1-1c-0.2-1.9-0.7-3.8-1.3-5.6c-0.3-1.3-1-2.4-1.9-3.3
	c-0.9-0.7-2-0.8-3-0.3c-0.9,0.7-1.6,1.7-1.9,2.8c-0.8,3.1-1,6.3-0.8,9.5c0.1,0.8,0.3,1.6,0.7,2.4c0.2,0.7,0.9,1,1.5,0.9
	c0,0,0.1,0,0.1,0c0.8-0.2,1.5-0.4,2.3-0.7c0.8-0.3,1.5-0.6,2.2-0.9c0.5-0.2,0.9-0.4,1.2-0.8C182.3,121,182.6,120,182.5,118.9z"/>
<path class="st0" d="M229,112.9c0.2-0.5,0.5-1,0.7-1.5c0.4-1.1,0-2.4-1-3c-2.1-1.5-4.7-2-7.2-1.3c-1.6,0.3-3.1,1.3-4,2.7
	c-0.8,1.3-0.6,3,0.4,4.2c1.6,1.7,3.7,2.8,6,3.3c2.3,0.6,4.6,1,6.8,1.7c3.4,1,6.6,2.7,9.3,5c2.1,1.8,3.7,4.1,4.5,6.8
	c1,3.5,0.8,7.3-0.6,10.7c-1.2,2.9-3,5.4-5.4,7.4c-2.5,2.1-5.5,3.6-8.6,4.5c-3.6,1.2-7.4,1.6-11.2,1.3c-3.6-0.2-7.1-1.4-10.1-3.3
	c-1.5-1-2.7-2.2-3.8-3.7c-1.6-2.4-1.5-5.5,0.3-7.8c1.2-1.8,3.2-2.9,5.3-2.9c2.7,0,3.7,1.2,3.9,3.6c0,0.8,0.2,1.7,0.3,2.5
	c0.2,1,0.8,1.8,1.6,2.3c1.4,1,3,1.6,4.7,1.8c3.1,0.3,5.8-0.3,7.9-2.9c1.1-1.2,1.3-2.9,0.6-4.3c-0.3-0.8-0.9-1.6-1.6-2.1
	c-2.1-1.5-4.4-2.6-6.9-3.3c-2.5-0.7-5-1.3-7.4-2.3c-4.5-1.7-8.1-5-10.2-9.3c-2.9-6.2-1.2-13.5,4.1-17.8c3.1-2.6,6.7-4.3,10.6-5.2
	c2.7-0.5,5.4-0.7,8.1-0.5c3.5,0.1,7,1.2,10,3c1.2,0.8,2.3,1.7,3.2,2.9c0.6,0.8,1.2,1.7,1.6,2.7c0.4,1.2,0.4,2.4,0,3.6
	c-0.6,2.3-2.7,3.8-5,3.9C233.2,115.6,230.8,114.7,229,112.9z"/>
<path class="st0" d="M132.6,89c3.3,0.2,6.7-0.1,9.9-0.8c3.3-0.7,6.5-2,9.2-4c0.1,0.5,0.2,1,0.2,1.5c0,1.7,0,3.4,0,5.1
	c0,8.1,0,16.2-0.1,24.3c0,8.4,0,16.8-0.1,25.2c0,2.3-0.1,4.7,0,7c0,2.3,0.8,4.4,2.3,6.2l0.2,0.2c0,0,0,0,0,0.1h-18.6
	c-0.8,0-1.5,0-2.3,0c-0.3,0-0.5-0.1-0.5-0.4s0-0.5,0-0.7c0-7.8,0-15.6,0-23.5c0-13.1,0-26.3,0-39.4C132.7,89.5,132.6,89.3,132.6,89z
	"/>
<path class="st0" d="M5.7,105.5c6.7,0.1,13.1-0.6,18.9-4.6c0,0.7,0.2,1.2,0.2,1.7c0,2.7,0,5.2,0,7.9c0,4.4,0,8.7,0,13.1
	c0,8.5,0,17-0.1,25.5c0,1.4,0.6,2.8,1.5,3.8l0.8,1H5.7L5.7,105.5z"/>
<path class="st0" d="M24.2,90.9c0,1.8-0.9,3.5-2.3,4.6c-3.6,3.1-8.5,3.9-12.9,2.2c-1.6-0.7-2.9-2-3.6-3.6c-0.6-1.6-0.4-3.4,0.6-4.7
	c1.3-2.2,3.5-3.7,6-4.3c2.6-0.8,5.5-0.8,8.1,0.2c1.4,0.5,2.6,1.5,3.3,2.8C24,88.9,24.2,89.9,24.2,90.9z"/>
</svg>
