<?xml version="1.0" encoding="utf-8"?>
<!-- Generator: Adobe Illustrator 21.1.0, SVG Export Plug-In . SVG Version: 6.00 Build 0)  -->
<svg version="1.1" id="Layer_1" xmlns="http://www.w3.org/2000/svg" xmlns:xlink="http://www.w3.org/1999/xlink" x="0px" y="0px"
	 viewBox="0 0 250 250" style="enable-background:new 0 0 250 250;" xml:space="preserve">
<style type="text/css">
	.st0{fill:url(#SVGID_1_);}
	.st1{fill:url(#SVGID_2_);}
	.st2{fill:url(#SVGID_3_);}
	.st3{fill:#83302E;stroke:#823434;}
	.st4{fill:#010101;stroke:#010101;}
	.st5{fill:#FFFFFF;}
	.st6{fill:#231F20;}
</style>
<title>Grocery</title>
<linearGradient id="SVGID_1_" gradientUnits="userSpaceOnUse" x1="21.0681" y1="-1244.0651" x2="199.0899" y2="-1244.0651" gradientTransform="matrix(1 0 0 1 0 1350)">
	<stop  offset="0" style="stop-color:#DB2D28"/>
	<stop  offset="1" style="stop-color:#BE292F"/>
</linearGradient>
<path class="st0" d="M169.5,79.5c18.3,1.8,19.3,7.4,21.1,15.1c1.8,7.6,8.5,62.1,8.5,62.1l-134.9-0.3c0,0,6-1.8-7-2.6
	c-13.1-0.8-18.8-12.5-21.3-17.9c-2.5-5.4-14.8-80.6-14.8-80.6S33.3,71,51.4,72.9S151.1,77.7,169.5,79.5z"/>
<linearGradient id="SVGID_2_" gradientUnits="userSpaceOnUse" x1="20.8481" y1="-1244.1925" x2="65.3767" y2="-1244.1925" gradientTransform="matrix(1 0 0 1 0 1350)">
	<stop  offset="0" style="stop-color:#DB2D28"/>
	<stop  offset="1" style="stop-color:#BE292F"/>
</linearGradient>
<path class="st1" d="M65.2,155.9H64c0,0,6-1.8-7-2.5c-13.1-0.8-18.8-12.4-21.4-17.7s-14.8-80-14.8-80s0.8,1,2.2,2.5
	C25.2,63,26.9,68,28,73.2c1.3,7.1,7.1,45.6,9.2,54c2.1,8.4,5,18,13.4,20.9S63.5,149.5,65.2,155.9z"/>
<linearGradient id="SVGID_3_" gradientUnits="userSpaceOnUse" x1="53.9416" y1="-1327.5688" x2="193.1774" y2="-1188.3329" gradientTransform="matrix(1 0 0 1 0 1350)">
	<stop  offset="4.000000e-02" style="stop-color:#F69076"/>
	<stop  offset="8.000000e-02" style="stop-color:#EC2227"/>
	<stop  offset="0.26" style="stop-color:#F79B7D"/>
	<stop  offset="0.66" style="stop-color:#EB2227"/>
	<stop  offset="0.67" style="stop-color:#C61D21"/>
	<stop  offset="0.69" style="stop-color:#9D171A"/>
	<stop  offset="0.71" style="stop-color:#771114"/>
	<stop  offset="0.72" style="stop-color:#570D0E"/>
	<stop  offset="0.74" style="stop-color:#3B090A"/>
	<stop  offset="0.77" style="stop-color:#250506"/>
	<stop  offset="0.79" style="stop-color:#140303"/>
	<stop  offset="0.83" style="stop-color:#090101"/>
	<stop  offset="0.87" style="stop-color:#020000"/>
	<stop  offset="1" style="stop-color:#000000"/>
</linearGradient>
<path class="st2" d="M194.9,155.8h4.2c0,0-6.8-54-8.5-61.6c-1.8-7.6-2.8-13.2-21.1-14.9s-100-4.8-118-6.6
	c-18-1.8-30.3-17.4-30.3-17.4s-0.2,2.5,2.7,5.9c0,0,5.7,12.6,25.1,13.8c27.2,1.7,99.9,6.3,110.4,7.1c10.6,0.8,23.4-1.3,26.8,9.6
	C189.4,102.6,194.9,155.8,194.9,155.8z"/>
<path class="st3" d="M76.8,116.6c5.2,0.5,7.2-4.8,10.3-7.2c1.2-0.9,2.5-1.6,3.8-2.2c3.7-1.7,7.5-3.5,13.7-3c-0.3,1.4-0.8,2.7-1,4.2
	c-5.9-0.1-11.6,1.9-14.7,5.6c-1.4,1.6-2.4,3.6-3,5.6c-0.9,5,2.7,6.5,6,4c3.4-2.4,5.4-9.3,7.6-12.4c1.7-0.3,3.3-0.5,5-0.6
	c-1.9,4.8-5.2,8.1-5.4,14.5c3.4,3.3,7.7-1.4,10.7-2.8c2.2-5.9,4.5-12.3,9.3-15.9c1.4-1,3.1-1.4,4.8-1.2c2,3.7-1.6,7.6-4.2,11
	c-0.9,1.3-1.9,2.6-3,3.8c-1.3,1.3-3.3,1.9-3.6,3.2c-0.5,2,0.9,4.6,2.4,5c3.9,0.9,6.8-3.8,9.7-4.4c3.3-6.1,7.1-11.9,11.3-17.5
	c1.7,0.8,3.2,1.8,4.6,3c-6.8,10-14.3,19.4-18.1,32.3c1.2-0.1,2-1.4,2.6-2.2c5.2-6.4,11.2-12.7,18.5-17.3c2-6.5,5-12.6,9-18.1
	c3.7-5,8.5-10.5,13.9-13s11.9-2,11.1,6.6c-0.7,5.2-2.3,10.2-4.8,14.9c-1.5,2.8-3.2,5.4-5.2,7.8c-1.9,2.1-5.7,3.5-6.2-0.8
	c-0.5-3.9,1.9-7.3,3.2-9.4c3.4,9.2,11.6-9.8,5.8-13.7c-5.5-0.3-7.7,3.5-10.4,7c-2.5,3.4-4.7,7-6.4,10.8c-2.5,5.1-4,10.6-4.4,16.2
	c-0.2,5.2,2.4,11.8,8.5,11c6-0.8,11.7-7,15.1-11c0.9-1,1.7-2.5,3-2.6c-1.5,4.3-6.7,10.2-10.9,13.7c-3,2.5-6.2,5.2-11.5,5.2
	c-2.7-0.1-5.2-1.1-7.2-2.8c-3.9-3.4-4.4-9.8-4.4-16.9c-2.9,1-5.1,3.2-7.4,5.2c-5.4,4.6-9.7,10.7-13.9,16.9c-1.5,0.1-2.1-0.6-3.2-0.8
	c0.6-7.7,3.3-13.2,5.4-19.3c-3,0-6.7,3.8-10.1,2c-2.1-1.1-2.4-3.7-2.8-6.8c-2.4,1.1-8.3,7.3-13.3,5.2c-1.3-0.5-1.3-2.3-2.8-3
	c-2.7,1.6-5.8,4.5-9.5,3.4c-3.5-1-4.1-5.4-3.5-9.8c-5.7-1.5-6.9,2.2-9.3,6.4c-2.8,5.2-6.5,13.1-9.9,17.1c-1.6,1.9-5.4,5.1-8.6,3
	c-1.1-1.7-1-5.1-0.2-7.4c1.4-4,4.6-8.3,7.6-11.8c3.1-3.4,6.5-6.5,10.1-9.3c3.1-5.2,7.2-17.3,7.8-24.7c0-1.8-0.7-3.6-2-4.8
	c-1.6-0.3-3.1,0.2-4.2,1.4c-3.5,3.8-6.2,8.2-7.8,13.1c-1.3,4.2-2.1,8.7,2.2,9.4c-0.7,2.7-3.3,3.6-5.8,4.4c-2.8-0.4-4.3-2.2-5.4-4.2
	c-0.6-3.7-0.2-7.5,1.2-11c2.4-6.2,8.5-13,13.7-17.5c2.8-2.5,5.4-4.9,9.1-5.4c12.9-1.9,6.3,15.1,4,21.3c-0.9,2.5-1.9,4.9-2.8,7.2
	C79.2,110.6,77.7,112.9,76.8,116.6z"/>
<path class="st3" d="M80.6,107.1c0.9-2.3,1.9-4.7,2.8-7.2c2.3-6.1,8.8-23.2-4-21.3c-3.7,0.6-6.2,3-9.1,5.4
	c-5.2,4.5-11.3,11.3-13.7,17.5c-1.4,3.5-1.8,7.3-1.2,11c1.2,2,2.6,3.8,5.4,4.2c2.6-0.9,5.1-1.7,5.8-4.4c-4.3-0.8-3.6-5.2-2.2-9.4
	c1.7-4.8,4.4-9.3,7.8-13c1.1-1.2,2.7-1.7,4.2-1.4c1.3,1.3,2,3,2,4.8c-0.6,7.4-4.8,19.5-7.8,24.7c-3.6,2.8-7,6-10.1,9.4
	c-3,3.5-6.3,7.8-7.6,11.8c-0.8,2.3-0.9,5.8,0.2,7.4c3.2,2.1,7.1-1.2,8.6-3c3.3-4,7-11.9,9.9-17.1c2.3-4.2,3.6-7.9,9.3-6.4
	c-0.6,4.4,0,8.8,3.5,9.8c3.7,1.1,6.8-1.8,9.5-3.4c1.5,0.8,1.5,2.5,2.8,3c5,2.1,10.9-4.2,13.3-5.2c0.4,3.1,0.8,5.8,2.8,6.8
	c3.4,1.8,7.1-2,10.1-2c-2.1,6.1-4.9,11.6-5.4,19.3c1.1,0.3,1.8,0.9,3.2,0.8c4.2-6.1,8.5-12.3,13.9-16.9c2.3-2,4.6-4.3,7.4-5.2
	c0,7.1,0.6,13.5,4.4,16.9c2,1.7,4.6,2.7,7.2,2.8c5.3,0,8.5-2.7,11.5-5.2c4.2-3.5,9.3-9.3,10.9-13.7c-1.3,0.1-2.2,1.6-3,2.6
	c-3.4,4-9.1,10.3-15.1,11c-6,0.8-8.6-5.8-8.5-11c0.4-5.6,1.9-11.1,4.4-16.2c1.8-3.8,3.9-7.5,6.4-10.8c2.8-3.6,4.9-7.3,10.4-7
	c5.7,3.9-2.5,22.8-5.8,13.7c-1.3,2.1-3.7,5.6-3.2,9.4c0.5,4.2,4.3,2.9,6.2,0.8c2-2.4,3.8-5,5.2-7.8c2.5-4.6,4.1-9.6,4.8-14.9
	c0.9-8.7-5.5-9.3-11.1-6.6c-5.6,2.6-10.2,8-13.9,13c-4,5.5-7.1,11.6-9.1,18.1c-7.3,4.5-13.3,10.9-18.5,17.3
	c-0.6,0.8-1.5,2.1-2.6,2.2c3.9-12.9,11.3-22.3,18.1-32.3c-1.4-1.2-2.9-2.2-4.6-3c-4.2,5.5-8,11.3-11.3,17.4
	c-2.9,0.6-5.7,5.3-9.7,4.4c-1.5-0.3-2.9-3-2.4-5c0.3-1.3,2.3-1.9,3.6-3.2c1.1-1.2,2.1-2.5,3-3.8c2.7-3.5,6.3-7.3,4.2-11
	c-1.7-0.2-3.4,0.2-4.8,1.2c-4.8,3.6-7.1,10-9.3,15.9c-2.9,1.4-7.3,6.2-10.7,2.8c0.2-6.4,3.6-9.7,5.4-14.5c-1.7,0.1-3.4,0.3-5,0.6
	c-2.3,3.1-4.2,10-7.6,12.4c-3.4,2.5-6.9,1-6-4c0.6-2.1,1.6-4,3-5.6c3.1-3.7,8.8-5.7,14.7-5.6c0.2-1.5,0.7-2.8,1-4.2
	c-6.2-0.5-10,1.3-13.7,3c-1.3,0.6-2.6,1.3-3.8,2.2c-3.1,2.4-5.1,7.7-10.3,7.2C77.7,112.9,79.2,110.6,80.6,107.1z"/>
<path class="st4" d="M198.1,154.7c0,0,9.9,0.4,15.7,2c7.9,2.2,12.2,4.3,12.7,7.6c0.5,3.3,2.7,31,2.7,31s-6-6.5-11.8-9
	c-3.1-1.3-10-2.8-17.1-3.5c-23.5-2.3-89.1-1.5-123-1.4c-9.7-0.5-12-7.1-12.9-10c-0.9-2.9-2.5-17.1-2.5-17.1s19.8,0.3,44.3,0.3
	C131.9,154.5,130.9,155,198.1,154.7z"/>
<path class="st5" d="M198.6,157.1c10.7,0.6,10.9,0.5,16.6,1.9c7.7,1.9,8.9,4,9.4,6.9c0.5,2.8,2.6,23.8,2.6,23.8s-0.8-1.6-6.2-4.3
	c-5.1-2.6-14.9-3.6-21.9-4.1c-28-2.2-97.1-2.2-120.2-1.3c-9.4,0-11.7-6.1-12.6-8.6c-0.9-2.5-3-16.7-3-16.7s16.6,0.8,61.2,1.2
	C181.4,156.2,188.4,156.5,198.6,157.1z"/>
<path class="st6" d="M73.9,176.5v-18.6l11.7,0.2l-1.8,3.4l-6-0.1v3.4l6,0.1l-1.8,3.4h-4.2v6.8L73.9,176.5z"/>
<path class="st6" d="M88.5,175.2l-2-1.8v-13.6l1.9-1.7l8.8,0.1l2,1.8v13.5l-2,1.7L88.5,175.2z M90.4,171.8l4.9,0.1v-10.2l-4.9-0.1
	V171.8z"/>
<path class="st6" d="M104.1,175.4l-2-1.8V160l1.9-1.7l8.8,0.1l2,1.8v13.5l-2,1.7L104.1,175.4z M106,172l4.9,0.1v-10.2l-4.9-0.1V172z
	"/>
<path class="st6" d="M117.8,175.6v-17l10.6,0.1l2,1.8v13.4l-2.1,1.8L117.8,175.6z M121.7,172.2l4.8,0.1V162l-4.8-0.1V172.2z"/>
<path class="st6" d="M140.9,175.9v-3.5l7.3,0.1v-3.4l-5.8-0.1l-1.5-1.7v-6.8l1.5-1.7l9.6,0.1v3.5l-7.3-0.1v3.3l5.9,0.1l1.4,1.7v6.9
	l-1.5,1.7L140.9,175.9z"/>
<path class="st6" d="M157.1,176.1v-13.6h-3.8V159l11.7,0.2v3.3h-3.9v13.6L157.1,176.1z"/>
<path class="st6" d="M169.3,176.2l-2-1.8v-13.6l1.9-1.7l8.8,0.1l2,1.8v13.5l-2,1.7L169.3,176.2z M171.3,172.8l4.9,0.1v-10.2
	l-4.9-0.1V172.8z"/>
<path class="st6" d="M182.4,176.4v-17l8.7,0.1l2.7,1.8v6.7c0,2-2.3,2.5-2.3,2.5l2.3,6h-3.6l-2.2-4.9l-2.1-0.4v5.3L182.4,176.4z
	 M185.9,167.8h3.7c0.3,0,0.6-0.1,0.7-0.4v-4.1c0,0-0.2-0.5-0.6-0.5h-3.8L185.9,167.8z"/>
<path class="st6" d="M195.5,177.1l0.3-17l8.3,0.3l1.2,0.8l-0.1,3.4l-2-0.8l-4.6-0.1l-0.1,3.4l6.6,0.2l-0.1,3.4l-6.6-0.2l-0.1,3.4
	l6.6,0.2l-1.8,3.4L195.5,177.1z"/>
<path class="st6" d="M206.6,178l0.2-3.4l6.4,0.4l0.2-3.4l-5-0.3l-1.4-1.8l0.4-6.8l1.6-1.6l6.9,0.9l-0.2,3.4l-5.5-0.8l-0.2,3.3l5,0.3
	l1.3,1.7l-0.4,6.9l-1.6,1.6L206.6,178z"/>
<path class="st5" d="M75.1,115.7c5.2,0.5,7.2-4.8,10.3-7.2c1.2-0.9,2.5-1.6,3.8-2.2c3.7-1.7,7.5-3.5,13.7-3c-0.3,1.4-0.8,2.7-1,4.2
	c-5.9-0.1-11.6,1.9-14.7,5.6c-1.4,1.6-2.4,3.6-3,5.6c-0.9,5.1,2.6,6.5,6.1,4c3.5-2.5,5.4-9.3,7.6-12.4c1.7-0.3,3.3-0.5,5-0.6
	c-1.9,4.8-5.2,8.1-5.4,14.5c3.4,3.3,7.7-1.4,10.7-2.8c2.2-5.9,4.5-12.3,9.3-15.9c1.4-1,3.1-1.4,4.8-1.2c2,3.7-1.6,7.6-4.2,11
	c-0.9,1.3-1.9,2.6-3,3.8c-1.3,1.3-3.3,1.9-3.6,3.2c-0.5,2,0.9,4.6,2.4,5c3.9,0.9,6.8-3.8,9.7-4.4c3.3-6.1,7.1-11.9,11.3-17.5
	c1.7,0.8,3.2,1.8,4.6,3c-6.8,10-14.3,19.4-18.1,32.3c1.2-0.1,2-1.4,2.6-2.2c5.2-6.4,11.2-12.7,18.5-17.3c2-6.5,5-12.6,9.1-18.1
	c3.7-5,8.5-10.5,13.9-13c5.4-2.6,11.9-2,11.1,6.6c-0.7,5.2-2.3,10.2-4.8,14.9c-1.5,2.8-3.2,5.4-5.2,7.8c-2,2.1-5.7,3.5-6.2-0.8
	c-0.5-3.9,1.9-7.3,3.2-9.4c3.4,9.2,11.6-9.8,5.8-13.7c-5.5-0.3-7.7,3.5-10.4,7c-2.5,3.4-4.7,7-6.4,10.8c-2.5,5.1-4,10.6-4.4,16.2
	c-0.2,5.2,2.4,11.8,8.5,11c6-0.8,11.7-7,15.1-11c0.9-1,1.7-2.5,3-2.6c-1.5,4.3-6.7,10.2-10.9,13.7c-3,2.5-6.2,5.2-11.5,5.2
	c-2.7-0.1-5.2-1.1-7.2-2.8c-3.9-3.4-4.4-9.8-4.4-16.9c-2.9,1-5.1,3.2-7.4,5.2c-5.4,4.6-9.7,10.7-13.9,16.9c-1.5,0.1-2.1-0.6-3.2-0.8
	c0.6-7.7,3.3-13.2,5.4-19.3c-3,0-6.7,3.8-10.1,2c-2.1-1.1-2.4-3.8-2.8-6.8c-2.4,1.1-8.3,7.3-13.3,5.2c-1.3-0.5-1.3-2.3-2.8-3
	c-2.7,1.6-5.8,4.5-9.5,3.4c-3.5-1-4.1-5.4-3.5-9.8c-5.7-1.5-6.9,2.2-9.3,6.4c-2.8,5.2-6.5,13.1-9.9,17.1c-1.6,1.9-5.4,5.1-8.6,3
	c-1.1-1.7-1-5.1-0.2-7.4c1.4-4,4.6-8.3,7.6-11.8c3.1-3.4,6.4-6.6,10.1-9.4c3.1-5.2,7.2-17.3,7.8-24.7c0-1.8-0.7-3.6-2-4.8
	c-1.6-0.3-3.1,0.3-4.2,1.4c-3.5,3.8-6.2,8.2-7.8,13c-1.3,4.2-2.1,8.7,2.2,9.4c-0.7,2.7-3.3,3.6-5.8,4.4c-2.8-0.4-4.3-2.2-5.4-4.2
	c-0.6-3.7-0.2-7.5,1.2-11c2.4-6.2,8.5-13,13.7-17.5c2.8-2.5,5.4-4.9,9.1-5.4c12.9-1.9,6.3,15.1,4,21.3c-0.9,2.5-1.9,4.9-2.8,7.2
	C77.5,109.8,76.1,112,75.1,115.7z"/>
<path class="st5" d="M78.9,106.3c0.9-2.3,1.9-4.7,2.8-7.2c2.3-6.1,8.8-23.2-4-21.3c-3.7,0.6-6.2,3-9.1,5.4
	c-5.2,4.5-11.3,11.3-13.7,17.5c-1.4,3.5-1.8,7.3-1.2,11c1.2,2,2.6,3.8,5.4,4.2c2.6-0.9,5.1-1.7,5.8-4.4c-4.3-0.8-3.6-5.2-2.2-9.4
	c1.7-4.8,4.4-9.3,7.8-13c1.1-1.2,2.7-1.7,4.2-1.4c1.3,1.3,2,3,2,4.8c-0.6,7.4-4.8,19.5-7.8,24.7c-3.6,2.8-7,6-10.1,9.4
	c-3,3.5-6.3,7.8-7.6,11.8c-0.8,2.3-0.9,5.8,0.2,7.4c3.2,2.1,7.1-1.2,8.6-3c3.3-4,7-11.9,9.9-17.1c2.3-4.2,3.6-7.9,9.3-6.4
	c-0.6,4.4,0,8.8,3.5,9.8c3.7,1.1,6.8-1.8,9.5-3.4c1.5,0.8,1.5,2.5,2.8,3c5,2.1,10.9-4.2,13.3-5.2c0.4,3.1,0.7,5.8,2.8,6.8
	c3.4,1.8,7.1-2,10.1-2c-2.1,6.1-4.9,11.6-5.4,19.3c1.1,0.3,1.8,0.9,3.2,0.8c4.2-6.1,8.5-12.3,13.9-16.9c2.3-2,4.6-4.3,7.4-5.2
	c0,7.1,0.6,13.5,4.4,16.9c2,1.7,4.6,2.7,7.2,2.8c5.3,0,8.5-2.7,11.5-5.2c4.2-3.5,9.3-9.3,10.9-13.7c-1.3,0.1-2.2,1.6-3,2.6
	c-3.4,4-9.1,10.3-15.1,11s-8.6-5.8-8.5-11c0.4-5.6,1.9-11.1,4.4-16.2c1.8-3.8,3.9-7.5,6.4-10.8c2.8-3.6,4.9-7.3,10.4-7
	c5.7,3.9-2.5,22.8-5.8,13.7c-1.3,2.1-3.7,5.6-3.2,9.4c0.5,4.2,4.3,2.9,6.2,0.8c2-2.4,3.8-5,5.2-7.8c2.5-4.6,4.1-9.6,4.8-14.9
	c0.9-8.7-5.5-9.3-11.1-6.6c-5.6,2.6-10.2,8-13.9,13c-4,5.5-7.1,11.5-9.1,18c-7.3,4.5-13.3,10.9-18.5,17.3c-0.6,0.8-1.5,2.1-2.6,2.2
	c3.9-12.9,11.3-22.3,18.1-32.3c-1.4-1.2-2.9-2.2-4.6-3c-4.2,5.5-7.9,11.4-11.3,17.5c-2.9,0.6-5.7,5.3-9.7,4.4c-1.5-0.3-2.9-3-2.4-5
	c0.3-1.3,2.3-1.9,3.6-3.2c1.1-1.2,2.1-2.5,3-3.8c2.7-3.5,6.3-7.3,4.2-11c-1.7-0.2-3.4,0.2-4.8,1.2c-4.8,3.6-7.1,10-9.3,15.9
	c-2.9,1.4-7.3,6.1-10.7,2.8c0.2-6.4,3.6-9.7,5.4-14.5c-1.7,0.1-3.4,0.3-5,0.6c-2.3,3.1-4.2,10-7.6,12.4c-3.4,2.5-6.9,1-6-4
	c0.6-2.1,1.6-4,3-5.6c3.1-3.7,8.8-5.7,14.7-5.6c0.2-1.5,0.7-2.8,1-4.2c-6.2-0.5-10,1.3-13.7,3c-1.3,0.6-2.6,1.3-3.8,2.2
	c-3.1,2.4-5.1,7.7-10.3,7.2C76.1,112,77.5,109.8,78.9,106.3z"/>
</svg>
