<?xml version="1.0" encoding="utf-8"?>
<!-- Generator: Adobe Illustrator 21.1.0, SVG Export Plug-In . SVG Version: 6.00 Build 0)  -->
<svg version="1.1" id="Layer_1" xmlns="http://www.w3.org/2000/svg" xmlns:xlink="http://www.w3.org/1999/xlink" x="0px" y="0px"
	 viewBox="0 0 250 250" style="enable-background:new 0 0 250 250;" xml:space="preserve">
<style type="text/css">
	.st0{fill:#ED3A35;}
</style>
<title>Grocery</title>
<path class="st0" d="M39.8,102.4c-0.8,3.4-1.5,6.9-2.3,10.3c-1.1,4.9-2.3,9.9-3.5,14.8c-0.7,2.4-2.1,4.4-4.2,5.8
	c-2,1.6-4.5,2.4-7,2.5c-5,0.1-9.9,0.2-14.9,0.3H7.5c0.2-0.9,0.3-1.7,0.5-2.5c0.3-1.6,0.7-3.3,1-4.9c0.1-0.4,0.2-0.5,0.6-0.5h0.8h8.9
	c1.5,0.2,2.9-0.8,3.1-2.3c0,0,0,0,0,0c0.7-2.3,1.3-4.5,1.8-6.8c1.3-5.3,2.5-10.7,3.8-16c0-0.2,0-0.3,0-0.5L39.8,102.4z"/>
<path class="st0" d="M123.1,138.9c-0.3,1.3-0.6,2.5-0.9,3.7c-0.5,1.9-1,3.7-1.3,5.5c-0.1,0.5-0.3,0.7-0.9,0.7c-6.9,0-13.7,0-20.6,0
	H4.6c0.3-1.3,0.6-2.5,0.8-3.8c0.4-1.9,0.8-3.7,1.2-5.6c0-0.4,0.3-0.6,0.7-0.6c0,0,0.1,0,0.1,0L123.1,138.9L123.1,138.9z"/>
<path class="st0" d="M136.7,148.8c0.2-0.9,0.3-1.7,0.5-2.4c0.5-2.3,1.1-4.5,1.5-6.7c0.1-0.7,0.4-0.8,1.1-0.8h94.9h2.9
	c-0.2,1-0.4,1.9-0.6,2.8c-0.5,2.2-1,4.3-1.4,6.5c-0.1,0.4-0.3,0.6-0.7,0.6c-2.1,0-4.3,0-6.4,0L136.7,148.8L136.7,148.8z"/>
<path class="st0" d="M172.1,115.9c-0.4,5.9-1.9,11.5-6.2,15.9c-2.7,2.8-6.3,4.5-10.1,5c-2.6,0.4-5.3,0.2-7.8-0.7
	c-3.9-1.2-6.6-4.8-6.7-8.9c-0.4-5.1,0.9-10.2,3.6-14.5c2.6-4.3,7-7.2,12-8c3.3-0.7,6.8-0.3,9.8,1.2c3,1.5,5,4.4,5.3,7.8
	C172,114.4,172,115.1,172.1,115.9z M147.7,124.4c0,0.4,0,0.7,0,1.1c0,3.3,2.6,6,5.9,6c3.5,0.2,6.9-1.5,8.7-4.5c2.2-3.2,3.2-7,3-10.9
	c-0.2-4.6-3.5-6.7-7.6-6.2c-3.2,0.4-6,2.3-7.5,5.1C148.6,117.9,147.7,121.1,147.7,124.4z"/>
<path class="st0" d="M78.4,136.2l-0.2-16h-0.2c-0.1,0.2-0.2,0.4-0.3,0.6c-2.2,4.9-4.3,9.9-6.5,14.8c-0.1,0.4-0.5,0.7-0.9,0.6
	c-1.8,0-3.6,0-5.5,0l-1.5-23.3h6.2v15.9h0.3c0.2-0.4,0.4-0.8,0.6-1.2c2-4.6,3.9-9.3,5.9-13.9c0.1-0.6,0.7-0.9,1.3-0.8
	c1.5,0,3,0,4.5,0h0.8c0,1.2,0,2.3,0,3.5c0,3.9,0,7.7-0.1,11.6c0,0.2,0.1,0.5,0.3,0.7c0.1-0.2,0.2-0.4,0.3-0.5
	c2.1-4.8,4.2-9.6,6.3-14.5c0.1-0.4,0.5-0.7,1-0.7c1.8,0,3.6,0,5.5,0c-0.2,0.4-0.3,0.8-0.5,1.1c-3.5,7.1-7,14.2-10.5,21.3
	c-0.2,0.6-0.8,1-1.4,0.9C81.9,136.2,80.2,136.2,78.4,136.2z"/>
<path class="st0" d="M115,129.7c-0.6,1.3-1.5,2.5-2.5,3.4c-2.4,2.2-5.4,3.6-8.6,4c-3.6,0.4-8.2-1-9.6-5.8c-0.3-1.5-0.3-3.1,0-4.6
	c0.4-2.9,1.4-5.7,2.9-8.2c1.7-3,4.5-5.1,7.8-5.8c2-0.5,4.1-0.4,6.1,0.1c2.9,0.7,5.1,3.2,5.4,6.1c0.4,2.3,0.2,4.8-0.5,7
	c-0.1,0.4-0.4,0.4-0.7,0.4h-12.7c-0.5,0-1,0-1.5,0c-0.7-0.1-0.9,0.2-1,0.8c-0.5,2.4,0.5,4.5,2.7,5c2.2,0.5,4.5-0.3,5.9-2.1
	c0.2-0.3,0.5-0.5,0.9-0.5C111.4,129.7,113.1,129.7,115,129.7z M101.3,122.3h0.5c2.7,0,5.3,0,8,0c0.7,0,0.8-0.2,0.9-0.8
	c0.4-1.8-0.7-3.5-2.5-4c-0.1,0-0.1,0-0.2,0c-3-0.5-5.9,1.4-6.7,4.4C101.4,122,101.4,122.2,101.3,122.3z"/>
<path class="st0" d="M58.1,129.8c-0.3,0.5-0.6,1-0.9,1.5c-2.8,3.7-7.3,5.9-11.9,5.8c-3.7,0.1-7-2.5-7.9-6.1
	c-0.3-1.5-0.2-3.1,0.1-4.6c0.4-2.9,1.5-5.7,3-8.2c1.7-3,4.8-5.1,8.2-5.6c1.7-0.2,3.4-0.2,5.1,0.1c3.2,0.6,5.6,3.2,5.9,6.4
	c0.3,2.3,0.1,4.6-0.5,6.7c-0.1,0.5-0.4,0.5-0.8,0.5c-4.7,0-9.5,0-14.3,0c-0.6,0-0.8,0.2-0.9,0.7c-0.4,1.3-0.2,2.7,0.7,3.8
	c1,1.2,2.7,1.8,4.3,1.3c1.5-0.2,2.9-1,3.8-2.3c0.1-0.1,0.3-0.2,0.4-0.3c1.8,0,3.6,0,5.3,0C57.9,129.8,58,129.8,58.1,129.8z
	 M44.4,122.4h7.7c1.8,0,1.9,0,1.7-1.9c0-1.3-0.9-2.5-2.1-2.8c-1.4-0.4-2.9-0.2-4.2,0.5C45.9,119,44.8,120.5,44.4,122.4z"/>
<path class="st0" d="M244.6,121.5c-0.3,5.8-2.4,10.7-7.7,13.5c-3.4,2-7.6,2.3-11.3,1c-3.1-1.1-5.1-4-5.1-7.3
	c-0.3-4.3,1.2-8.5,4.2-11.7c3.6-4,9.2-5.5,14.3-3.8c3.3,0.9,5.6,3.9,5.6,7.4C244.6,121,244.6,121.2,244.6,121.5z M238.4,122.3
	c0-0.3,0-0.6,0-0.8c0-1.9-1.4-3.4-3.2-3.7c-2.5-0.6-5,0.5-6.4,2.6c-1.5,2.2-2.3,4.9-2.1,7.6c0,1.7,1.2,3.2,2.9,3.6
	c2.5,0.6,5.1-0.4,6.6-2.4C237.6,127.2,238.4,124.8,238.4,122.3L238.4,122.3z"/>
<path class="st0" d="M194.8,120.2H189c0-0.2,0-0.3-0.1-0.5c0-1.2-0.9-2.3-2.2-2.3c-1.2-0.3-2.5-0.2-3.7,0.2
	c-0.6,0.3-1.1,0.7-1.5,1.2c-0.5,0.5-0.5,1.4,0.1,1.9c0.1,0.1,0.3,0.2,0.5,0.3c0.9,0.4,1.8,0.6,2.7,0.9c1.6,0.4,3.2,0.8,4.8,1.2
	c0.4,0.1,0.8,0.3,1.2,0.5c2.3,0.8,3.6,3.4,2.7,5.8c-0.6,2.6-2.3,4.9-4.8,6c-4,2-8.7,2.1-12.8,0.5c-2.6-0.9-4.1-3.7-3.5-6.4
	c0-0.2,0.2-0.4,0.3-0.4c1.9,0,3.8,0,5.8,0c0,0.3,0,0.5,0,0.7c-0.1,1,0.5,1.9,1.4,2.2c1.8,0.8,3.9,0.8,5.7,0c0.3-0.1,0.6-0.3,0.8-0.5
	c1.3-1.1,1.1-2.4-0.4-3c-1.3-0.5-2.7-0.7-4-1.1c-1.3-0.3-2.6-0.7-3.9-1.2c-2.9-1.2-3.8-3.3-2.9-6.4c1-3.5,4-6.1,7.7-6.7
	c2.5-0.5,5-0.4,7.5,0.2c2.2,0.4,3.9,2.2,4.3,4.4C194.8,118.5,194.8,119.3,194.8,120.2z"/>
<path class="st0" d="M217.6,127.9c-0.1,0.3-0.1,0.5-0.2,0.7c-1.6,4.3-5.3,7.3-9.8,8c-2.1,0.4-4.2,0.2-6.2-0.4
	c-2.5-0.8-4.3-3-4.5-5.6c-0.5-4.9,1-9.9,4.1-13.7c1.9-2.3,4.7-3.8,7.7-4.1c2-0.3,4-0.2,5.9,0.5c2.8,0.9,4.7,3.5,4.5,6.4
	c0,1.7,0,1.7-1.7,1.7h-4.3c-0.1-0.5-0.2-1.1-0.3-1.6c-0.3-1.3-1.4-2.2-2.7-2.1c-1.9-0.1-3.8,0.8-4.8,2.5c-1.7,2.5-2.4,5.4-2.2,8.4
	c0.1,2.9,2.7,3.7,4.7,3.1c1.5-0.4,2.8-1.5,3.4-3c0.2-0.6,0.8-0.9,1.4-0.9c1.5,0,3,0,4.5,0C217.1,127.9,217.4,127.9,217.6,127.9z"/>
<path class="st0" d="M117.8,136.2c0.2-1.1,0.4-2.1,0.6-3.1c2-9.3,3.9-18.5,5.9-27.8c0-0.2,0.3-0.5,0.4-0.5c1.9,0,3.8,0,5.7,0
	l-0.9,4.3l-5.5,25.7c-0.3,1.4-0.3,1.4-1.7,1.4L117.8,136.2z"/>
<path class="st0" d="M139,126.7c0,0.4-0.1,0.7-0.2,1c-0.2,0.8-0.4,1.6-0.5,2.4c-0.1,0.5-0.3,0.6-0.8,0.6h-10.5
	c0.3-1.3,0.5-2.5,0.8-3.7c0-0.2,0.4-0.3,0.6-0.3c1.1,0,2.3,0,3.4,0H139L139,126.7z"/>
</svg>
