<?xml version="1.0" encoding="utf-8"?>
<!-- Generator: Adobe Illustrator 21.1.0, SVG Export Plug-In . SVG Version: 6.00 Build 0)  -->
<svg version="1.1" id="Layer_1" xmlns="http://www.w3.org/2000/svg" xmlns:xlink="http://www.w3.org/1999/xlink" x="0px" y="0px"
	 viewBox="0 0 250 250" style="enable-background:new 0 0 250 250;" xml:space="preserve">
<style type="text/css">
	.st0{fill:#FDFDFD;}
	.st1{fill:#F9F6F8;}
	.st2{fill:#CC1042;}
	.st3{fill:#F9B728;}
	.st4{fill:#231F20;}
	.st5{fill:#C81545;}
</style>
<title>CR</title>
<path class="st0" d="M55.4,195c-0.7,0.2-0.8-0.1-0.8-0.8c0-43.5,0-87,0-130.5c0.3,0,0.7,0,1-0.1c-0.3-0.1-0.7-0.2-1-0.1v-0.8
	c0.2,0.1,0.4,0.1,0.6,0s0.9-0.3,1.1,0s0.7,0.3,1,0.3h133.8c0.2,0,0.6,0.1,0.7-0.1c0.5-0.5,1-0.3,1.6-0.3c0.9,0.1,0.9,0,0.9-1
	c-0.1-1.6,0-3.1,0.1-4.7c0.1-0.3,0-0.6-0.1-0.8c-0.2-0.2-0.2,0-0.3,0.1h-1.9c0.1-0.8-0.4-0.8-1-0.8h-134c-0.2,0-0.3-0.1-0.3-0.2
	c0,0,0,0,0,0h138c0.5,0,0.6,0.1,0.6,0.6c0,46.1,0,92.3,0,138.4c0,0.7-0.1,1-0.8,0.8c-0.2,0-0.4,0-0.5,0l0.1-0.3c0-1.9,0-3.8,0-5.7
	c0-0.1,0-0.2-0.1-0.2h-1.2H56.1c-0.2,0-0.5,0-0.7,0c-0.2,0-0.1,0.2-0.1,0.3c0,1.7,0,3.5,0,5.2c0,0.2,0,0.3,0.1,0.4V195z
	 M123.6,182.9c0-0.1-0.1-0.3-0.2-0.3c0,0,0,0-0.1,0l0.1-0.4h0.3c0.5,0.3,1.1,0.4,1.6,0.4c0.2-0.1,0.2-0.3,0.2-0.5
	c0-0.3-0.1-0.7,0.2-1c0.1-0.1-0.1-0.2-0.2-0.2v-0.1c0.3-0.3,0.9-0.3,1.2,0.1c0.1,0.1,0.1,0.2,0.2,0.3c0.1,0.3,0.2,0.3,0.4,0.3
	c0.2,0,0.4,0,0.3-0.3s0.2-0.5,0.6-0.5c1.1,0,2.1,0,3.2,0c0.2,0,0.4,0.1,0.5-0.2c-0.3-0.2-1-0.2-0.6-0.9h0.4c0.1,0.5,0.3,0.7,0.8,0.3
	c0.2-0.1,0.4-0.2,0.6-0.3c0,0.4-0.1,0.7,0.3,0.8c0.1,0,0.3,0,0.3-0.2c0,0,0,0,0-0.1c0-0.4-0.4-0.2-0.6-0.4c0-0.3,0.2-0.4,0.5-0.4
	c0.3,0,0.4,0.1,0.4-0.2c0-0.1-0.1-0.3,0.1-0.3s0.3,0.1,0.3,0.3c0,0.6,0,1.2-0.1,1.8c-0.1,0.4-0.1,0.8,0.1,1.1
	c0.9,0.1,1.8,0.2,2.7,0.1c0.3,0,0.2-0.2,0.3-0.4c0.1-0.6,0.3-1.2,0.4-1.8c0.1-0.3,0.2-0.5,0.5-0.5c1.4,0,2.8,0,4.2,0
	c0.9,0,1.1,0.3,0.9,1.2c-0.1,0.5-0.3,0.9-0.2,1.4c0,0.1-0.1,0.4-0.1,0.3c0.6-0.2,1.1,0.2,1.6,0s0.5-0.1,0.5,0.3
	c0,0.2,0.1,0.3,0.3,0.3c0.2,0,0.3-0.2,0.2-0.3c0,0,0,0,0,0c0-0.1-0.2-0.2-0.1-0.4c0.3-0.1,0.5,0,0.8,0.1c0.3,0.1,0.8,0.4,0.9-0.3
	h0.3c0.2,0.2,0.5,0.1,0.7,0.1c2.5,0,4.9,0,7.4,0c0.4,0,0.7,0.1,0.6,0.6h-8.7c0.7,0.3,8.4,0.2,8.8-0.1c0.3,0,0.3-0.4,0.4-0.3
	c0.8,0.3,0.9-0.3,1.1-0.8c0.1-0.2,0.3-0.3,0.5-0.2c0.2,0,0.2,0.2,0.2,0.4s0,0.5,0,0.8c0,0.3,0,0.5,0.3,0.5c0.3,0,0.3-0.4,0.2-0.5
	c-0.3-0.6,0.2-0.5,0.5-0.5c0.6,0.1,1.3,0.2,1.9,0.2c1.3,0,2.6,0,3.8,0.1c0.6-0.1,1.2,0.4,1.8,0.2c0.1,0,0.2,0.1,0.3,0.2
	c0.2,0.7,0.4,0.2,0.6,0c0.2-0.2,0.1-0.6,0.5-0.5c0.7,0.2,0.9-0.3,1.1-0.8c0.1-0.3,0.2-0.3,0.5-0.3c0.3,0.1,0.4,0.1,0.6,0.1
	c0,0,0,0.1,0,0.1c-0.1,0.4,0.2,0.8,0.2,1.2c0,0.1,0.4,0.5,0.6,0.3c0.8-0.4,1.7-0.3,2.5-0.5h2.3c0,0.2,0.1,0.3,0.3,0.3
	c0.5-0.2,1.1,0,1.6-0.1s1.4-0.4,2,0.3c0.2,0.2,0.3,0,0.4-0.2c0-0.2,0.2-0.5,0.6-0.5c0.4,0.1,0.3-0.1,0.5-0.2
	c0.4-0.3,0.4-0.8,0.5-1.2c0.1,0,0.2,0,0.2-0.1l0,0c-0.2,0-0.1,0.1-0.1,0.2c-0.2-0.1-0.1-0.3-0.2-0.5c0.3-0.8,0.5-1.7,0.6-2.6
	c0.4-0.2,0.4-0.4,0-0.6c0,0,0-0.1,0-0.1c0,0,0,0,0,0c0.2-0.8,0.5-1.5,1-2.1c0.1-0.1,0.1-0.2,0.1-0.3c-0.2-0.7-0.3-1.4-0.2-2.1
	c0-0.4-0.3-0.7-0.7-0.7c0,0,0,0,0,0c-0.5,0-0.9-0.2-1.3-0.4c-0.2-0.1-0.5-0.1-0.6,0c-0.2,0.2-0.6,0.2-0.8,0.2h-3.2
	c-0.2,0-0.5-0.1-0.6,0.1l-0.8,0.1c-0.2-0.3-0.4-0.2-0.6,0h-0.3c-0.4-0.3-0.9,0-1.4-0.1c-0.2,0,0,0.5-0.2,0.6
	c-0.4,0.3-0.5,0.8-0.9,1.1c-0.2,0.2-0.4,0.3-0.6,0.2c-0.2-0.2,0-0.4,0.1-0.5c0.4-0.3,0.5-0.8,0.3-1.2c-0.3,0-0.1,0.4-0.4,0.3
	c0-0.1,0-0.2,0-0.3s0-0.4-0.2-0.4c-0.2,0-0.3,0.1-0.3,0.3c0,0.2-0.1,0.1-0.2,0.2c0,0-0.1,0-0.1,0c-0.1-0.5-0.7-0.9-1.2-0.8
	c0,0-0.1,0-0.1,0c-0.3,0.1-0.5,0.2-0.8,0.2c-1.7,0.1-3.4,0-5.1-0.2c-0.5,0-1-0.2-1.5-0.4c-0.5-0.3-1.1-0.3-1.6-0.1
	c0.2,0.1,0.2,0.9,0.7,0.2c0.2-0.2,0.4,0.1,0.6,0.2c0.2,0.1,0.2,0.2,0.2,0.4c-0.1,0.2-0.3,0.1-0.5,0.1c-0.6,0-1.2-0.3-1.8-0.3
	c-0.2,0-0.4,0.1-0.5-0.2c0.4-0.2,0.4-0.2,0.1-0.6c0.1-0.2,0.5,0,0.5-0.3c-0.5-0.2-0.9,0-1,0.4c0,0.7-0.4,0.6-0.9,0.6
	c-2.5,0-5,0-7.5,0c-0.6,0-1.3-0.1-1.7,0.6c-0.4-0.5-1.2-0.8-0.8-1.8l-0.7,0.5c0.2,0.2,0.4,0.3,0.4,0.5c-0.1,0.2-0.3,0.1-0.5,0.2
	c-0.2,0-0.5-0.1-0.5,0.3h-0.3c-0.2-0.2-0.6-0.3-0.9-0.3c-1.6,0-3.2,0-4.8,0c-1,0.1-1.9-0.1-2.8-0.5c-0.2,0.3-0.1,0.5-0.1,0.8h-0.3
	c0.1-0.4-0.1-0.6-0.8-0.8c0,0.1,0.1,0.3,0.2,0.2c0.1-0.1,0.2-0.2,0.3-0.4c0-0.1-0.1-0.1-0.2-0.1s-0.3,0.1,0,0.5
	c0,0.2-0.4,0.4-0.1,0.7c0,0,0,0.5-0.4,0.6c-0.4,0.1-0.3-0.1-0.3-0.3c-0.1-0.9-1-0.8-1.5-1.1c-0.5-0.3-0.9,0.1-1.2,0.5h-0.5
	c-0.1-0.1-0.2-0.1-0.2,0l0,0h-0.1c-0.1-0.4,0.1-0.8,0.5-1c0,0,0.1,0,0.1,0c-0.5-0.1-1.1-0.4-1.1,0.5c0,0.3-0.3,0.2-0.5,0.2
	c-0.8,0-1.6,0-2.4,0c-1.3-0.1-2.7,0.3-3.9-0.2c-0.1,0-0.2,0-0.2,0.1c-0.3,0.3-0.9,0.3-1.2,0c0,0-0.1-0.1-0.1-0.1
	c-0.2-0.2-0.3-0.3-0.4,0.1c-0.1,0.4-0.3,0.2-0.4,0.3s-0.6-0.1-0.7,0.2h-1.4c-0.2-0.8,0.4-0.8,1-0.9c-0.8-0.6-1.7-0.1-2.6-0.5
	c0.2,0.5,0.5,0.9,0.2,1.1c-0.7,0.4-0.4,0.7-0.2,1.2l-2.8,3c-0.7-1.3-1.3-2.3-1.9-3.3c-0.1-0.3-0.5-0.5-0.8-0.5c-1.1,0-2.1,0-3.2,0
	c-0.4-0.5-0.8-0.3-1.2,0h-0.5c-6.4,0-12.8,0.1-19.3,0.2c-5.8,0.2-11.5,0.2-17.3,0.3c-2,0-4,0-6.1,0c0.2,0.3,0.3,0.3,0.5,0.3
	l22.1,0.4l9.6,0.2c0.2,0,0.5-0.1,0.5,0.2c0,0.3-0.3,0.2-0.5,0.2l-7.3,0.1L74.3,174c-2.6,0.1-5.2,0-7.7,0.2h-1.8c-0.1,0-0.2,0,0,0.1
	h0.1c0,0.1-0.3,0.2,0,0.3c0.3,0.1,0.8-0.1,1.1-0.1c0.7,0.1,1.4,0.1,2.1,0c0.7-0.1,1.4,0.2,2-0.2l0,0c0,0.2,0.1,0.3,0.3,0.3H72
	c0.2,0,0.3-0.1,0.3-0.2c0,0,0,0,0,0h3.2c0.1,0.3,0.3,0.2,0.6,0.2c0.6,0,1.3,0,1.9,0c0.3,0,0.7,0.1,1-0.2h0.3c0.1,0.2,0.3,0.2,0.4,0
	c0.2-0.1,0.5-0.1,0.7,0c1.4,0.4,2.8-0.1,4.1,0.4c0.6,0.2,1.1-0.1,1.7-0.3c0.5-0.1,1.1-0.1,1.6,0c0,0.4-0.2,0.4-0.5,0.4s-0.8,0-1,0.4
	h-0.7c-0.3-0.4-0.6-0.4-1,0h-1.3c-0.4-0.4-0.7-0.4-1.1,0h-1.1c0-0.3-0.2-0.3-0.5-0.3c-1.1,0-2.1,0-3.2,0.2c-0.4,0.1-0.7-0.3-1.1-0.2
	c-0.8,0.4-1.8,0.3-2.5-0.2c-0.2-0.1-0.4-0.2-0.5,0.1c-0.1,0.3-0.4,0.3-0.6,0.3c-0.9,0-1.9-0.1-2.8,0c-0.4,0.1-0.8,0-1.2-0.2
	c-0.3-0.2-0.7-0.1-0.9,0.1c-0.3,0.2-0.7,0.2-1,0c-0.4-0.2-1-0.4-1.3,0.2c0,0.1-0.2,0.2-0.3,0.2c-0.5,0.1-0.9,0.1-1.4,0
	c-0.5-0.2-0.6,0-0.8,0.3h0.6c0.5-0.1,1,0.1,1.2,0.5c0.1,0.1,0.2,0.1,0.3,0c0.4-0.5,1-0.3,1.4-0.5c0.3,0,0.6,0,0.9,0
	c0.2,0,0.6-0.2,0.6,0.2c-0.1,0-0.1,0-0.2,0c-0.1,0,0,0.1,0,0.1c0.1,0,0.1,0,0.2-0.1c0.1-0.5,0.5-0.1,0.7-0.2
	c0.9,0.5,1.9,0.7,2.9,0.5c0.2,0,0.3-0.2,0.3-0.4l0.1,0.1c1.4,0.1,2.7,0.2,4.1,0.1c0.2,0,0.5,0,0.7,0c0.8,0.2,1.6,0.1,2.3,0h0.4
	c0.2,0.3,0.4,0.3,0.6,0h2.2c0.1,0.4,0.4,0.2,0.6,0.2h5.1c0.3,0,0.6,0.1,0.6,0.5c-0.4,0.1-0.7,0.1-1.1,0c-0.1-0.2-0.3-0.4-0.4,0
	c0,0-0.1,0-0.1,0c-1-0.1-2.1-0.1-3.1-0.1c-0.8,0-1.7,0-2.5,0c-0.2,0-0.4,0.1-0.5,0.2c-0.9,0.1-1.7,0.1-2.6,0.1
	c-0.7-0.3-1.4-0.3-2.1,0h-0.8c-0.5-0.4-1.3-0.4-1.8,0h-0.7c0-0.2,0-0.4-0.2-0.4c-0.2,0-0.6,0-0.6,0.4c-0.2,0.1-0.5,0.1-0.7,0
	c0-0.3,0-0.5-0.4-0.4c-0.4,0-0.7,0.3-1,0.3c-1.2-0.1-2.3,0-3.5-0.1c-0.3,0-1-0.2-1-0.1c-0.2,0.5-0.5,0.2-0.8,0.1s-0.3-0.2-0.4,0
	c-0.3,0.3-0.7,0.3-1.1,0.3c-0.5-0.1-1.1,0-1.6,0.2h3.3h1.5c0.1,0,0.3,0.1,0.4,0.1l13.1,0.2l9.7,0.2c0,0.1,0.1,0.1,0.1,0h1.7
	c0.4,0.2,0.8,0.2,1.2,0.2c0.2,0,0.4,0,0.4,0.3c-0.1,0-0.2,0-0.3,0.1l-9.3,0.2L73.6,179l-8.4,0.1h-3.4v0.3c1.2-0.1,2.4,0.2,3.6,0
	c0.8-0.1,1.6-0.1,2.4,0c0.2,0.3,0.5,0.4,0.7,0H69c0.1,0.3,0.4,0.2,0.6,0.2c1,0,2,0,3,0.1c0.2,0,0.5,0.1,0.5-0.3h0.3
	c0,0.2,0.1,0.3,0.3,0.3c0.7-0.2,1.4,0.2,2.1-0.1c0,0.4-0.3,0.8-0.7,0.8c-0.2,0-0.4,0-0.5,0.3h-1.3c0.1-0.2,0-0.5-0.1-0.7
	c-0.1,0.5-0.5,0.4-0.8,0.4c-0.9,0-1.8,0-2.7,0c-0.2,0-0.6-0.2-0.7-0.1c-0.4,0.5-0.9,0.2-1.4,0.2c-0.7-0.1-1.4,0-2,0.4h-1.1
	c0-0.8,0.8-0.1,1-0.5c-0.1-0.2-0.2-0.1-0.4-0.1c-0.5,0-0.9,0-1.4,0s-0.5,0.8-1.1,0.4c-0.3,0.6-0.9,0.2-1.5,0.4
	c0.3,0.1,0.5,0.1,0.7,0.2c0.6,0.1,1.3-0.3,1.8,0.4c0,0,0.2,0,0.3,0c0.3-0.2,0.4-0.3,0.6,0.1c0,0.2,0.2,0,0.3,0
	c0.6-0.2,1.1-0.6,1.8-0.3c-0.3,0.3-0.8,0-1.1,0.4h1.9c0.2,0,0.3,0.1,0.3,0.3s-0.1,0.3-0.3,0.3H67c-0.3,0-0.7,0-1,0
	c-0.2,0-0.4,0.2-0.3,0.4c0,0,0,0,0,0c0,0.2,0.2,0.1,0.4,0.1c0.5,0.1,1,0.1,1.5,0c1.2-0.3,2.4-0.4,3.7-0.5c0.6-0.1,1.2,0,1.9,0
	c0.3,0,0.7,0,1-0.1c-0.1-0.2-0.2-0.2-0.4-0.2h-3.2c-0.2,0-0.4,0.1-0.4-0.2c0-0.2,0.2-0.2,0.4-0.3c0.6-0.1,1.2-0.1,1.9-0.1
	c0.2,0,0.5,0.1,0.6-0.3h0.6c0.2,0.4,0.7,0.7,1.2,0.6c1-0.1,1.9-0.1,2.9-0.1c1.3-0.1,2.6,0,3.8,0.4c0.5,0.2,0.8-0.3,1.1-0.4
	c0.6-0.1,1.3,0.1,2-0.1c0.7-0.2,1.6,0.3,2.5,0c0.5-0.1,0.9,0,1.4,0.2c-0.2,0.3-0.6,0-0.6,0.4h-2.1v0.2c0.6,0.1,1.3,0.1,1.9,0
	c0.1,0,0.2-0.1,0.2-0.2h2.3c-0.4-0.4-0.8-0.1-1.1-0.4c0.3-0.2,0.6-0.1,0.9-0.1c0.3,0,0.6,0.2,0.7-0.2h1.7c0,0.3,0.2,0.4,0.4,0.4
	c1.4-0.1,2.7,0.2,4.1,0.1c2,0,4-0.2,6-0.2c0.8,0.1,1.6,0,2.4-0.2c0.2-0.1,0.5-0.1,0.7,0c-0.1,0.2,0.2,0.4,0.2,0.7H99
	c0.2,0.2,0.3,0.2,0.4,0.2h7.4c0.1,0,0.3,0,0.4-0.1c0.7-0.4,1.5-0.5,2.3-0.5c0.2,0,0.3,0,0.5,0.1c0.5,0.5,1.3,0.6,1.9,0.3
	c-0.4-0.2-0.9,0-1.3-0.2c0.5-0.5,0.5-0.5,1-0.3c0.4,0.2,0.6,0.1,0.6-0.4v-0.5l0.1-0.1c0.6,0.2,1.2-0.4,1.8,0
	c0.2,0.1,0.3-0.2,0.1-0.5c-0.2-0.4,0-0.8,0.4-1c0.1,0,0.2-0.1,0.3-0.1c0.6,0.5,1.2,1,1.7,1.6c0.2,0.2,0.4,0.4,0.2,0.7
	c-0.2,0.4,0.6,0.2,0.5,0.6c0,0.1,0.1,0.1,0.3,0c0.6-0.4,1.3-0.2,1.9-0.4c0.4-0.1,0.8-0.1,1.2,0c0.2,0,0.3,0.1,0.3,0.3
	s-0.1,0.2-0.3,0.2s-0.4,0-0.6,0c-0.4,0-0.8-0.1-1.2,0.2c0.8,0.1,1.6,0.1,2.3,0.1c0.1,0,0.3,0,0.3-0.1c-0.3-0.6,0.2-0.4,0.4-0.4
	c0.4,0,0.9,0,1.3,0c0,0.1,0.1,0.3,0.2,0.3c0,0,0,0,0.1,0c-0.1,0.6,0.1,0.9,0.8,0.8c0.1,0,0.3,0,0.4,0c0.3,0,0.4-0.1,0.4-0.4
	c0-0.3-0.2-0.4-0.4-0.4L123.6,182.9z M136.4,86.4L136.4,86.4L136.4,86.4c-0.5,0.6-1.3,1-1.4,1.9c-1.3,1.2-2.6,2.5-3.9,3.7l-8.6,8
	c-0.2,0-0.3,0-0.5-0.1c0-0.1,0-0.2,0-0.3c1.7-6.3,3.4-12.6,5.1-18.9c0.5-2,1.1-4,1.6-6c0.6-1.8,1-3.8,1.6-5.7H86.6
	c-0.2,0-0.4,0-0.6,0c-0.4,0-0.5,0.1-0.5,0.5c0,1.4,0,2.7,0,4.1c0,0.3,0,0.5,0.4,0.5c0.6,0,1.3,0.1,1.9,0.1c2,0.3,3.9,1,5.6,2
	c3.6,2.2,4.7,4.9,3.6,9c-1.3,4.9-2.7,9.8-4,14.8c-2.1,7.6-4.1,15.3-6.1,23c-0.5,1.8-1,3.5-1.4,5.3c-0.3,1.2-0.9,2.3-1.7,3.2
	c-0.4,0.5-0.7,0.9-1.1,1.4l0,0c-0.1,0.2-0.5,0.3-0.4,0.6c-0.6,0.5-1.1,1.1-1.7,1.6c-0.6,0.5-1.4,1.2-2.2,1.8
	c-2.5,2.2-5.8,3.5-9.2,3.6c-1.2,0.1-2.4-0.1-3.6-0.3c-0.9-0.2-1.8-0.5-2.6-1c-0.9-0.5-1.6-1.4-2-2.4c-0.1-0.2-0.2-0.6-0.6-0.5
	c-0.4,0.1-0.3,0.4-0.2,0.7c0.2,1.3,0.9,2.4,2,3.1c0,0.1,0,0.2,0,0.2c1.4,1.5,3.3,2.6,5.3,3c1.4,0.1,2.8,0.1,4.2-0.2
	c0.3,0,0.3,0.2,0.2,0.5c0,0.2-0.1,0.3,0.2,0.4v2.1c-0.1,0.1-0.1,0.2,0,0.3c0,0,0,0,0,0l0.1,0.1v0.1c0.1,0.4,0.5,0.3,0.7,0.3h12.1
	c0.2,0,0.4,0,0.6,0c0.3-0.1,0.6-0.1,0.6,0.2c0.1,0.3,0.2,0.6-0.2,0.8c0.1-0.3,0-0.7-0.1-0.9c0,0.5-0.5,0.7-0.3,1
	c0.2,0.3,0.3-0.2,0.5-0.1c-0.1,0.3,0.1,0.6,0.3,0.7c0.4,0.2,0.1-0.4,0.4-0.3c0.2,0.3-0.1,0.7,0.1,1l0,0c-0.2,0-0.4,0.4-0.7,0
	c-0.1-0.1-0.2-0.1-0.3,0c0,0,0,0.1-0.1,0.1c-0.1,0.2,0,0.3,0.2,0.4c0.2,0,0.3,0.2,0.3,0.3v0.2c-0.1,0-0.2,0-0.3,0
	c-0.1,0-0.2-0.3-0.4-0.1s0,0.3,0,0.5c0.1,0.5,0.5,0.9,0.6,1.5c0.4-0.6,1-0.4,1.5-0.6l0.8-0.4c1.3-0.6,2.1-2,1.9-3.4
	c0-0.4-0.1-0.8-0.1-1.1h18.8c0.2,0,0.4,0.1,0.5-0.2c0.1-0.1,0.1-0.3,0.2-0.4c0.7-2.7,1.3-5.4,1.9-8.1c0.1-0.4,0.3-0.8,0.6-1.1
	c3.6-3.4,7.2-6.8,10.8-10.2c0.4-0.3,0.5-0.3,0.7,0.1c2.3,4.1,4.5,8.2,6.8,12.3c1.4,2.5,2.8,4.9,4.1,7.4c0.1,0.3,0.4,0.2,0.6,0.2
	h37.6c0.2,0,0.5,0.2,0.6-0.2c0-1.3,0-2.6,0-3.9c0-0.3,0-0.5-0.4-0.5c-1.8,0.1-3.5-0.2-5.2-0.8c0.1-0.5,0.6-0.1,0.8-0.5
	c-0.7,0.1-1.4-0.5-2.1,0h-0.1c0.2-0.2,0.2-0.5,0-0.7c0,0,0,0,0,0c-0.5-0.5-1.3-0.2-1.9-0.6c-0.1,0-0.2-0.1-0.3-0.3
	c0-0.1,0.3-0.1,0.1-0.3c-0.2-0.1-0.4-0.3-0.4-0.6c0-0.3-0.1-0.4-0.4-0.6c-0.4-0.3-1.1-0.6-1.1-1.2c0-0.5-0.2-0.4-0.5-0.4
	c0-0.1-0.1-0.1-0.1-0.2l-9.6-17.8l-5.3-9.7c-0.1-0.2-0.3-0.4,0-0.7l4.1-3.8c0.4,0,1,0.1,1.1-0.5c0-0.1,0.2-0.3,0.4-0.3
	c0.3,0,0.5-0.3,0.5-0.5c0-0.3,0.2-0.5,0.3-0.8c0.5-0.5,1-1,1.5-1.5l25.9-24c1.3-1.4,3.1-2.3,5-2.6c0.4,0,0.9,0,1.3,0
	c0.4,0,0.6-0.2,0.6-0.6c0-1.1-0.1-2.2,0-3.3c0-0.7-0.1-0.8-0.8-0.8c-10.2,0-20.3,0-30.5,0c-0.7-0.1-1.4,0.3-1.8,0.8l-1.5,1.3
	l-4.5,4.1c-0.4-0.2-0.6-0.2-0.9,0.3c-0.3,0.5-0.6,0.9-1,1.3c0,0.2-0.1,0.3-0.2,0.5c-0.4,0.4-0.8,0.8-1.3,1.2l-7.8,7.2
	c-0.2-0.3-0.3-0.8-0.9-0.3c0.4,0.1,0.7,0.3,0.3,0.5C136.9,85.9,136.8,86.3,136.4,86.4L136.4,86.4z M94.1,167.8
	c-1.6-4.8-3.1-9.4-4.7-14.1c-0.1-0.4-0.3-0.4-0.6-0.4c-1.5,0-3,0-4.5,0c-0.3-0.1-0.6,0.2-0.7,0.5c0,0,0,0,0,0
	c-0.9,2.7-1.8,5.4-2.7,8l-1.6,4.7c-1.3-2-2.5-3.9-3.7-5.8c-0.2-0.3,0-0.4,0.1-0.6l1.4-2.4l2.5-4.3c-1.7,0-3.4,0-5,0
	c-0.4,0-0.8,0.2-0.9,0.6c-0.9,1.8-1.8,3.6-2.8,5.5c0-0.3,0-0.4,0-0.6c0-1.6,0-3.3,0-4.9c0-0.5-0.1-0.6-0.6-0.6c-1.3,0-2.5,0-3.8,0
	c-0.4,0-0.5,0.1-0.5,0.5c0,4.5,0,9,0,13.6c0,0.3,0.1,0.5,0.5,0.5s0.5,0,0.8,0c1.2,0,2.3,0,3.5-0.1c0.1-1.2,0-2.3,0.1-3.5
	c0-0.7,0-1.4,0-2.1c0.2,0.2,0.4,0.4,0.5,0.6c0.8,1.5,1.7,3.1,2.5,4.6c0.1,0.3,0.5,0.5,0.8,0.5c2.7,0,5.4,0,8.2,0
	c1.3,0,1.3,0,1.6-1.3c0.1-0.4,0.2-0.5,0.6-0.5c0.6,0,1.2,0,1.8,0c1.4,0,1.4,0,1.7,1.3c0.1,0.2,0.1,0.5,0.4,0.5
	C90.7,167.8,92.4,167.8,94.1,167.8z M103.8,160.3h-0.1c-1.2-2.2-2.4-4.3-3.6-6.5c-0.1-0.4-0.5-0.6-0.9-0.5c-1.2,0-2.4,0-3.7,0
	c-0.4,0-0.6,0.1-0.6,0.6c0,4.5,0,9,0,13.4c0,0.4,0.1,0.5,0.5,0.5c1.3,0,2.5,0,3.8,0c0.4,0,0.5-0.1,0.5-0.5c0-1.1,0-2.3,0-3.4v-3.3
	c0.2,0.3,0.3,0.4,0.4,0.6c1.1,2,2.2,3.9,3.3,5.9c0.2,0.4,0.6,0.7,1,0.6c1.2,0,2.5,0,3.7,0c0.4,0,0.5-0.1,0.5-0.5c0-4.5,0-9,0-13.4
	c0-0.5-0.2-0.5-0.6-0.5c-1.2,0-2.4,0-3.6,0c-0.6,0-0.7,0.2-0.7,0.7C103.8,156.1,103.8,158.2,103.8,160.3z M185.5,160.4
	c0-3.2-2.1-6.1-5.1-7.1c-2.6-0.9-5.4-0.2-7.3,1.7c-1.7,1.7-2.5,4.2-2.2,6.6c0.4,4,3.9,7,7.9,6.6c0.2,0,0.4,0,0.6-0.1
	C183.1,167.4,185.5,164.5,185.5,160.4L185.5,160.4z M161.9,168.2c4,0,7.3-3.2,7.4-7.3c0-0.1,0-0.1,0-0.2c0-4.6-3.1-7.8-7.5-7.8
	c-4.2,0-7.2,3.3-7.2,7.8c-0.1,4,3.1,7.4,7.1,7.5C161.7,168.2,161.8,168.2,161.9,168.2L161.9,168.2z M121.5,159.2c-0.6,0-1.3,0-1.9,0
	c-0.6,0-1.4-0.2-1.7,0.1c-0.4,0.4-0.1,1.2-0.1,1.8c0,1.5,0,1.5,1.5,1.5c0.2,0,0.5-0.1,0.6,0.1c0.1,0.2-0.1,0.5-0.3,0.6
	c-0.2,0.2-0.4,0.3-0.6,0.4c-1.2,0.4-2.5-0.2-2.9-1.3c-0.4-1-0.4-2-0.2-3c0.1-0.9,0.8-1.7,1.7-2c0.9-0.3,1.9,0.1,2.4,0.8
	c0.2,0.3,0.4,0.2,0.6,0.1c1.1-0.4,2.3-0.9,3.4-1.3c0.5-0.2,0.5-0.3,0.2-0.7c-2.2-3.4-6.7-4.4-10.1-2.3c-2.4,1.5-3.7,4.2-3.4,7
	c0,2.7,1.4,5.1,3.8,6.3c2.3,1.3,5.2,1.2,7.4-0.3c2.7-1.7,3.6-4.4,3.4-7.5c0-0.4-0.3-0.3-0.5-0.3L121.5,159.2z M150.4,162
	c1.2-0.2,2.2-1.1,2.4-2.3c0.7-3.1-0.5-6.1-4.6-6.3c-2.1-0.1-4.2,0-6.4,0c-0.4,0-0.6,0.1-0.6,0.5c0,4.5,0,9,0,13.4
	c0,0.4,0.1,0.5,0.5,0.5c1.2,0,2.4,0,3.6,0c0.5,0,0.7-0.1,0.7-0.7c0-1.2,0-2.5,0-3.8c0.2,0.2,0.4,0.4,0.5,0.7l1.7,3.3
	c0.1,0.2,0.2,0.4,0.5,0.4c1.7,0,3.4,0,5.3,0L150.4,162z M132.9,153.3c-0.8,0-1.5,0-2.3,0c-0.3,0-0.6,0.2-0.6,0.5c0,0,0,0,0,0
	c-1.5,4.5-3,9-4.6,13.5c-0.1,0.4,0,0.5,0.4,0.5c1.2,0,2.5,0,3.7,0c1,0,1.1,0,1.2-1c0.1-0.6,0.3-0.9,1-0.8c0.5,0,1,0,1.5,0
	c1.4,0,1.4,0,1.7,1.3c0.1,0.4,0.2,0.5,0.6,0.5c1.4,0,2.8,0,4.2,0c0.4,0,0.6-0.1,0.4-0.5c-1.5-4.5-3-9-4.5-13.5
	c-0.1-0.3-0.3-0.5-0.6-0.5C134.5,153.3,133.7,153.3,132.9,153.3L132.9,153.3z M178.4,146.8h0.2c0-0.5,0-1.1,0-1.6
	c0-0.1,0.1-0.4-0.2-0.4c-0.3,0-0.3,0.1-0.4,0.4c-0.1,0.2-0.1,0.7-0.5,1.1c-0.1-0.4-0.3-0.8-0.4-1.2c0-0.1-0.1-0.2-0.3-0.2
	s-0.3,0-0.3,0.1c0,0.6,0,1.3,0,1.9h0.2c0.2-0.4,0-0.9,0.2-1.3c0.2,0.3,0.3,0.6,0.4,1c0.1,0.1,0.1,0.3,0.3,0.4c0.2,0,0.2-0.2,0.3-0.3
	c0.1-0.4,0.2-0.8,0.4-1.1C178.4,145.9,178.4,146.3,178.4,146.8L178.4,146.8z M81.1,183.6c-2.1-0.2-4.3-0.7-6.5-0.3
	C76.8,183.7,78.9,183.8,81.1,183.6z M175.5,146.9c0.2-0.2,0.3-0.5,0.2-0.7c0-0.5-0.2-1.2,0.8-1.2c-0.5-0.2-1.1-0.2-1.6-0.2
	c-0.1,0-0.2,0.1-0.2,0.1c0,0,0,0,0,0c0,0,0.1,0.1,0.1,0.1c0.7-0.1,0.5,0.4,0.5,0.7C175.3,146.1,175.4,146.5,175.5,146.9L175.5,146.9
	z M176.7,170.7v0.1h4.2v-0.1H176.7z M163.4,170.7v0.1h2v-0.1H163.4z M90,183.6v-0.2c-0.7-0.1-1.4,0-2,0.2H90z M174.5,182.9v0.1h2
	V183L174.5,182.9z M167.8,170.7v0.1h2v-0.1H167.8z M165.4,183.1L165.4,183.1l-2-0.1v0.1L165.4,183.1z M98.8,183.6v-0.1h-2v0.1H98.8z
	 M77,182.7c0.5,0.2,1.1,0.2,1.6,0C78.1,182.5,77.5,182.5,77,182.7z M123.3,183.5c-0.5-0.1-1-0.1-1.5,0.1
	C122.3,183.7,122.8,183.7,123.3,183.5L123.3,183.5z M132.2,181.3c-0.1-0.2-0.1-0.3-0.4-0.4c-0.2,0-0.4,0-0.4,0.3
	c0,0.3,0.2,0.3,0.4,0.3C132,181.5,132.1,181.5,132.2,181.3L132.2,181.3z M125,170.7c0-0.2-0.1-0.3-0.2-0.3c-0.2,0-0.3,0-0.3,0.2
	s0.1,0.3,0.3,0.3C124.9,170.9,125,170.8,125,170.7C125,170.7,125,170.7,125,170.7z M107.9,183.6c0.3,0.1,0.5,0.2,0.9-0.1
	C108.5,183.4,108.2,183.4,107.9,183.6z M67.8,180.5c-0.2-0.1-0.3-0.3-0.6-0.2c0,0-0.1,0.1-0.1,0.2C67.3,180.8,67.6,180.6,67.8,180.5
	L67.8,180.5z M183.1,180.6c0.1-0.2,0.3-0.4,0.1-0.7c0,0-0.1,0-0.2,0C182.8,180.1,182.8,180.3,183.1,180.6L183.1,180.6z M169.1,183.2
	c0-0.1,0-0.2-0.2-0.2c-0.1,0-0.2,0.1-0.2,0.2c0,0.1,0.1,0.2,0.2,0.2C169,183.4,169.1,183.3,169.1,183.2L169.1,183.2z M192.7,63.5
	c-0.1-0.1-0.2-0.1-0.2-0.2c-0.1,0-0.2-0.1-0.2,0c0,0.1,0,0.2,0.1,0.2c0,0,0,0,0.1,0C192.5,63.6,192.7,63.6,192.7,63.5z M110.2,183.5
	c-0.2-0.2-0.5-0.2-0.7,0C109.7,183.7,110,183.7,110.2,183.5z M169.7,182.3c-0.1,0-0.1,0.1-0.1,0.2c0,0.1,0.1,0.3,0.1,0.3
	c0.1,0,0.2-0.1,0.2-0.2C169.9,182.4,169.8,182.4,169.7,182.3L169.7,182.3z M145.5,183.6c0-0.1-0.1-0.1-0.2-0.1c-0.1,0-0.2,0-0.2,0.1
	c0,0.1,0.1,0.1,0.2,0.1C145.3,183.7,145.4,183.7,145.5,183.6L145.5,183.6z M56.6,63.5c-0.1,0-0.2,0-0.2,0.1c0,0.1,0.1,0.2,0.1,0.2
	c0.1,0,0.2,0,0.2-0.1C56.8,63.6,56.7,63.5,56.6,63.5z M167.8,183.5c0,0.1,0.1,0.1,0.2,0.1c0.1,0,0.2,0,0.2-0.1s-0.1-0.1-0.2-0.1
	C167.9,183.4,167.8,183.4,167.8,183.5z M160,183.5c-0.1,0-0.1-0.1-0.2-0.1c0,0-0.1,0-0.2,0.1c0,0.1,0,0.2,0.1,0.1
	S160,183.6,160,183.5L160,183.5z M126.5,181c0,0-0.1,0-0.1,0c0,0,0,0.1,0,0.1s0.1,0,0.1,0C126.4,181.1,126.5,181.1,126.5,181
	L126.5,181z M107.2,183.4c0,0,0,0.1,0,0.1s0.1,0,0.1,0c0,0,0-0.1,0-0.1S107.3,183.5,107.2,183.4L107.2,183.4z M169.9,183.4h-0.1
	c0,0,0,0.1,0,0.1c0,0,0.1,0,0.1,0V183.4z M119.1,171.1c0,0,0-0.1,0-0.1s-0.1,0-0.1,0c0,0,0,0.1,0,0.1
	C119,171.1,119,171.1,119.1,171.1L119.1,171.1z M83.3,175.1C83.3,175.1,83.2,175,83.3,175.1c-0.1-0.1-0.2-0.1-0.2-0.1
	s0.1,0.1,0.1,0.1S83.3,175.2,83.3,175.1L83.3,175.1z M72.9,180.5L72.9,180.5C72.8,180.5,72.8,180.5,72.9,180.5L72.9,180.5
	C72.9,180.5,72.9,180.6,72.9,180.5L72.9,180.5z"/>
<path class="st1" d="M194,56.1c0-0.1,0.1-0.3,0.3-0.1c0.2,0.2,0.2,0.5,0.1,0.8c-0.2,1.6-0.2,3.1-0.1,4.7c0,1,0,1-0.9,1
	c-0.6,0-1.1-0.2-1.6,0.3c-0.1,0.1-0.5,0.1-0.7,0.1H57.3c-0.4,0-0.7,0.1-1-0.3c-0.3-0.4-0.7-0.2-1.1,0c-0.4,0.2-0.4,0.2-0.6,0
	c0-2.3,0-4.6,0-6.9c0-0.5,0.2-0.7,0.6-0.6c0.5,0,1,0,1.6,0c0,0.2,0.1,0.3,0.3,0.3c0,0,0,0,0,0h133.9c0.6,0,1.1,0,1,0.8h-0.8H57.2
	h-1.5c-0.4-0.1-0.4,0.2-0.4,0.5c0,1.5,0,3.1,0,4.6c0,0.7,0.2,0.8,0.9,0.8c45,0,90.1,0,135.1,0c0.8,0,1.6,0,2.4,0
	c0.4,0,0.5-0.1,0.5-0.6c0-1.6,0-3.2,0-4.8C194.2,56.5,194.3,56.3,194,56.1L194,56.1z"/>
<path class="st1" d="M55.4,195v-0.2h0.8H192h2.2l-0.1,0.3L55.4,195z"/>
<path class="st1" d="M54.6,63.4c0.3,0,0.7,0,1,0.1c-0.3,0.1-0.7,0.2-1,0.1V63.4z"/>
<path class="st2" d="M151.5,103.8l-4.1,3.8c-0.3,0.2-0.1,0.5,0,0.7l5.3,9.7l9.7,17.9c0,0.1,0.1,0.1,0.1,0.2c0.5,1.2,1.2,2.2,2.2,3.1
	c0,0.1,0.1,0.2,0.3,0.3c0.6,0.6,1.2,1,1.9,1.3h0.1c0.4,0.3,0.8,0.5,1.2,0.5c1.7,0.6,3.4,0.9,5.2,0.8c0.3,0,0.4,0.2,0.4,0.5
	c0,1.3,0,2.6,0,3.9H135c-1.4-2.5-2.8-4.9-4.1-7.4c-2.3-4.1-4.6-8.2-6.8-12.3c-0.2-0.4-0.4-0.5-0.7-0.1c-3.6,3.4-7.2,6.8-10.8,10.2
	c-0.3,0.3-0.5,0.7-0.6,1.1c-0.7,2.7-1.3,5.4-1.9,8.1c0,0.2-0.1,0.3-0.2,0.4H90.3c-0.5-1.3-0.7-2.6-0.6-4c1-0.4,1.2-0.7,1.1-1.5
	c0.7-0.6,1.4-1.1,2.1-1.6c1.6-1.1,3.3-2.2,5-3.1c1.7-0.9,3.4-1.7,5.1-2.6c1.2-0.5,2.4-1.1,3.5-1.7c0.4-0.4,0.9-0.6,1.5-0.7
	c1-0.1,2-0.3,3-0.6c1.2-0.3,2.2-1.3,2.6-2.5c0.3-1,0.5-2,0.6-3c0.7,1.3,2.1,1.5,3.2,2.1c0.2,0.2,0.5,0.1,0.7-0.1c0,0,0-0.1,0.1-0.1
	c0.2-0.1,0.4-0.2,0.5-0.4c0.3-0.3,0-0.5-0.1-0.8c-0.4-0.6-0.4-1.4,0-2c0.2-0.4,0.7-0.1,1.1-0.1c0.6,0.7,1.6,0.8,2.3,0.2
	c0.1-0.1,0.1-0.1,0.2-0.2c0.8-0.1,1.6-0.3,2.3-0.5c0.3-0.1,0.7-0.3,1,0c0.5,0.5,1.2,0.9,1.4,1.7c0,0.1,0,0.3-0.1,0.4
	c-0.3,0.5-0.1,1.2,0.5,1.5c0.1,0.1,0.2,0.1,0.3,0.1l0.7,0.1c0.5,0.1,1-0.2,1.2-0.7c0.3-0.9,0.1-1.8-0.6-2.4
	c-0.3-0.2-0.6-0.5-0.8-0.8c-0.5-0.6-0.4-0.9,0.3-1.2c0.7-0.3,1.4-0.7,2.1-1.2c1.9-1.5,2.6-3.7,3.5-5.8c0.3-0.9,0.9-1.8,1.7-2.2
	c1.2-0.4,2.6-0.5,3.9-0.1c0.9,0.1,1.8,0.2,2.7,0.1c0.5,0,1-0.2,1.4-0.4c0.7-0.4,0.4-1.1,0.5-1.7c-0.1-0.4,0.3-1-0.5-1.1
	c-0.2-0.1-0.4-0.2-0.7-0.3c-0.8-0.1-1.5-0.5-2-1.1c-0.5-0.7-1.3-1.2-2.2-1.2c-1.9,0-2.1-0.3-1.7-2.2c0-0.1,0.1-0.2,0.1-0.3
	c0.1-0.4,0-0.8,0-1.2c-0.3-1.2-1.2-1.8-2.2-2.5v0.1v0.1c-0.5-0.1-0.7,0.1-0.7,0.7c0,0.5,0,1.1,0,1.6c0,0.2-0.1,0.3-0.3,0.2
	c-0.9-0.4-1.9-0.4-2.7-0.9c-0.3-0.2-0.6-0.5-0.9-0.7s-0.4-0.2-0.5,0.2c-0.1,1.5,0.1,3.6,2.1,4.1v2.5c-0.1,0.2-0.2,0.3-0.4,0.3
	l-0.1,0c0,0,0,0.1-0.1,0.1c-0.3,0.1-0.6,0.2-0.8,0.3c-1.1,0.6-2.4,0.8-3.6,0.6c-1.5-0.3-3-0.8-4.6-1.2c-1.8-0.6-3.5-1.4-5.3-2.1
	c-2.4-0.9-4.7-1.7-7.3-1c-1.4,0.3-2.7,0.7-4,1.2c-0.6,0.3-1.2,0.5-1.8,0.7c-0.4,0-0.5-0.3-0.7-0.5c-0.3,0.3,0.2,0.5,0.1,0.7
	c-0.8-0.2-1,0.4-1.3,0.9c0,0.1-0.1,0.1-0.1,0.1c-3.6,2.1-6.7,5-8.9,8.5c-1.2,1.9-2.3,3.8-3.6,5.6c-1.3,1.8-2.4,3.7-3.7,5.5
	c-0.1,0.1-0.1,0.4-0.3,0.3c-0.2-0.1-0.1-0.2-0.1-0.4c0.3-1.8,0.9-3.5,1.4-5.3c2-7.7,4.1-15.4,6.2-23.1c1.3-4.9,2.7-9.8,4-14.8
	c1.1-4,0-6.8-3.6-9c-1.7-1-3.6-1.7-5.6-2c0-0.2-0.2-0.2-0.4-0.2c-0.4,0-0.8,0-1.2,0c-0.4,0-0.6-0.2-0.6-0.6c0-1,0-2,0-3
	c0-0.6,0.2-0.8,0.8-0.8c14.1,0,28.2,0,42.4,0c0.8,0,0.9,0,0.6,0.8c-0.2,0.6-0.6,1.1-0.6,1.7c0,0-0.1,0.1-0.1,0.2
	c-0.5,0.7-0.6,1.7-0.1,2.4c-0.4,2-1,4-1.6,6c-1.7,6.3-3.4,12.6-5.1,18.9c0,0.1,0,0.2,0,0.3c-0.2,0.2-0.1,0.5-0.2,0.8
	c0.3-0.3,0.6-0.4,0.7-0.7l8.6-8c1.3-1.2,2.6-2.5,3.9-3.7c1-0.9,2-1.8,2.9-2.7l7.8-7.2c0.4-0.4,0.8-0.8,1.3-1.2
	c0.1-0.1,0.3-0.2,0.2-0.5c0.8-0.4,1.4-0.9,1.9-1.6l4.4-4.1l1.5-1.3c0.1,0,0.3,0,0.4,0.1c0.2,0.7,0.7,0.4,1.1,0.4
	c0-0.3-0.5-0.1-0.3-0.4c0.1-0.2,0.3-0.4,0.5-0.3c0.1,0,0.3,0,0.4,0h30.1c0.4,0,0.9,0.7,0.7,1c-0.3,0.6-0.4,1.3-0.2,2
	c0.2,0.8-0.2,0.6-0.6,0.6c-0.6-0.1-1.2,0-1.8,0.1c0.3,0.3,0.8-0.1,0.9,0.4c-1.9,0.3-3.7,1.2-5,2.6l-25.9,24c-0.5,0.5-1,1-1.5,1.5
	C153,102.3,152.2,103.1,151.5,103.8z M111.2,104.8c0.6,0.2,1.2,0.2,1.7,0C112.4,104.7,111.8,104.7,111.2,104.8L111.2,104.8z"/>
<path class="st3" d="M131.8,108.9c0.2,0,0.3-0.2,0.4-0.3c1.3-0.9,1.4-1.7,0.1-2.6c-1.4-0.9-2.1-2.4-1.9-4c0.4,0.5,0.9,0.8,1.5,1
	c1.5,0.3,2.7,1.3,3.2,2.8c0.3,0.6,0.8,1.1,1.5,1.2c0.5,0.1,1,0.2,1.4,0.1c0.8-0.1,1.6,0.3,2.1,1c0.9,1.3,2.2,1.4,3.6,1.3
	c0.8,0,0.4,0.6,0.5,1.1c-0.1,0.2,0,0.5-0.2,0.6c-0.8,0.7-1.8,1.2-2.8,1.2c-1.4,0-2.7-0.2-4.1-0.3c-0.9-0.1-1.7,0.3-2.3,0.9
	c-1.1,1.2-2.1,2.5-2.8,3.9c-0.8,1.7-2,3.2-3.5,4.3c-0.3,0.2-0.6,0.6-0.8,0.4s-0.1-0.6,0-1c0.1-0.1,0.2-0.2,0.2-0.3
	c0-0.2-0.1,0-0.1,0c-0.1,0-0.2,0.2-0.2,0.3c-0.3,0.3-0.4,0.6-0.4,1c0,1.1,0.5,2.1,1.3,2.8c0.9,1,0.6,1.8-0.3,2.6
	c-0.1,0.1-0.2,0.2-0.3,0.1c-0.1-0.1-0.2-0.2-0.1-0.3c0.4-1.1-0.3-1.7-0.9-2.5c-0.6-0.7-1.2-1.4-1.7-2.1c-1-1.4-1-3.2,0.1-4.6
	c0.1-0.1,0.2-0.3,0.2-0.5c-0.5,0.5-0.9,1.1-1.3,1.7c-0.6,0.9-0.6,2,0,2.9c0.1,0.2,0.3,0.5,0.4,0.7c0.2,0.2,0.1,0.4-0.2,0.4
	c-1.7,0.5-3.5,0.7-5.3,0.6c-0.4,0-0.6-0.2-0.5-0.7c0-0.6-0.1-1.2-0.8-1.4c-0.9-0.2-1.3-0.5-1.2-1.5c0-1-1-1.5-1.7-2
	c-0.4-0.3-0.7-0.2-0.8,0.2c-0.5,1.3-0.3,2.8,0.6,3.9c-0.7-1-0.4-2.2-0.4-3.3c0-0.2-0.1-0.4,0.1-0.5c0.2-0.1,0.3,0.1,0.5,0.2
	c0.7,0.5,1.1,1.3,1.3,2.1c0,0.4,0.3,0.7,0.7,0.8c0.6,0.2,1,0.7,1,1.3c0,0.5,0,0.9-0.1,1.4c-0.2,1,0,2.1,0.8,2.8
	c-0.1,0.2-0.3,0.3-0.5,0.4c-0.6-0.1-1.2-0.4-1.5-0.9c-0.1-0.1-0.2-0.1-0.2,0c0,0,0,0,0,0c-0.6,0.4-0.9-0.1-1.2-0.4
	c-0.3-0.3-0.6-0.7-0.8-1.1c-0.1-0.1-0.2-0.2-0.4-0.2c-0.2,0-0.2,0.2-0.2,0.4c-0.1,0.5-0.2,1-0.3,1.4c-0.3,2-1.7,3.7-3.6,4.4
	c-0.4,0.1-0.8,0.1-1.2,0c3.8-2.8,5.9-8.3,3.9-10.4c0,0.1,0,0.2,0,0.3c0.2,2.5-0.5,5-2.1,7c-1.6,2.2-3.7,3.9-6.2,5
	c-3.4,1.6-6.7,3.4-9.9,5.4c-1.7,0.9-3.3,2.1-4.7,3.3c-0.5,0.4-0.7,1.1-0.6,1.8c0.1,1,0.3,1.9,0.4,2.9c0.3,2.2,0.2,4.3-2,5.6
	c0,0,0,0,0,0.1c-1.3-0.1-1.3-0.1-1.1-1.3v-0.2c0.3-0.2,0.5-0.5,0.5-0.9l0,0c0.2,0,0.2-0.2,0.2-0.3c0.6-0.6,0.8-1.4,0.5-2.1
	c-0.3-1.2-0.7-2.3-1.4-3.3c-0.3-0.6-0.6-1.3-0.7-1.9c-0.3-0.8,0.1-1.7,0.9-2.1c0.7-0.4,1.5-0.9,2.3-1.3c2.6-1.2,5-2.7,7.3-4.4
	c1.7-1.2,2.6-3.3,2.4-5.3c-0.2-2-1-3.8-1-5.9c-0.2,0.1-0.2,0.3-0.2,0.5c0.1,0.6-0.2,1.2-0.7,1.6c-1.5,1.2-2.9,2.4-4.3,3.7
	c-2.4,2.3-4.7,4.7-7.2,6.8c-3.8,3.1-7.8,5.7-12.7,6.6c-3.1,0.8-6.5,0.3-9.2-1.5c-0.3-0.2-0.4-0.5-0.8-0.5c-1.1-0.7-1.8-1.8-2-3.1
	c0-0.2,0-0.6,0.2-0.7c0.2-0.1,0.5,0.3,0.6,0.5c0.4,1,1.1,1.9,2,2.4c0.8,0.5,1.7,0.8,2.6,1c1.2,0.3,2.4,0.4,3.6,0.3
	c3.4-0.1,6.6-1.4,9.2-3.6c0.7-0.6,1.5-1.1,2.2-1.8c0.7-0.6,1.1-1.1,1.7-1.6c0.2-0.2,0.6-0.2,0.4-0.6l0,0c0.3,0.1,0.4-0.2,0.5-0.3
	c0.7-0.9,1.4-1.7,2.1-2.6c3.2-4.4,6.1-8.9,9.6-13.1c3.1-3.9,7-7.2,11.4-9.6c3.3-2,7.4-2.2,10.9-0.5c2.4,1,4.7,2,7.1,3
	c1.7,0.7,3.6,0.8,5.3,0.3c0.7-0.1,1.4-0.5,1.9-1c0,0,0.1-0.1,0.1-0.1C131.7,109,131.8,108.9,131.8,108.9z M138.7,109.4
	c0-0.5,0.2-0.9-0.1-1.1c-0.4-0.2-0.9,0-1.3,0.1C137.8,108.6,138.3,108.9,138.7,109.4L138.7,109.4z M117.1,124.2c0-0.3,0.5-0.7,0-0.9
	c-0.2-0.1-0.5,0-0.6,0.1C116.4,123.8,117,123.8,117.1,124.2L117.1,124.2z"/>
<path class="st2" d="M55.4,188.7c0.2,0,0.5,0,0.7,0h136.8h1.2c0,1.5,0,3.1,0,4.6c0,1.3,0.2,1.1-1.1,1.1H57c-0.3,0-0.7,0-1,0
	c-0.3,0-0.6-0.1-0.6-0.6C55.4,192.2,55.4,190.5,55.4,188.7z"/>
<path class="st2" d="M55.7,56.2h1.5h134.1h0.8h1.9l0,0c0,1.7,0,3.3,0,5c0,0.6-0.2,0.8-0.8,0.8H57c-0.3,0-0.6,0-0.8,0
	c-0.6,0.1-0.8-0.2-0.8-0.7C55.5,59.5,55.2,57.8,55.7,56.2z"/>
<path class="st4" d="M94.1,167.8c-1.7,0-3.4,0-5,0c-0.4,0-0.4-0.2-0.4-0.5c-0.3-1.3-0.3-1.3-1.7-1.3c-0.6,0-1.2,0-1.8,0
	c-0.4,0-0.5,0.1-0.6,0.5c-0.3,1.3-0.3,1.3-1.6,1.3c-2.7,0-5.4,0-8.2,0c-0.4,0-0.7-0.2-0.8-0.5c-0.8-1.5-1.7-3.1-2.5-4.6
	c-0.1-0.2-0.3-0.4-0.5-0.6c0,0.7,0,1.4,0,2.1c0,1.2,0.1,2.3-0.1,3.5c-1.2,0.1-2.3,0.1-3.5,0.1c-0.3,0-0.6,0-0.8,0s-0.5-0.1-0.5-0.5
	c0-4.5,0-9,0-13.6c0-0.4,0.1-0.5,0.5-0.5c1.3,0,2.5,0,3.8,0c0.5,0,0.6,0.1,0.6,0.6c0,1.6,0,3.3,0,4.9c0,0.1,0,0.2,0,0.6
	c1-2,1.9-3.7,2.8-5.5c0.1-0.4,0.5-0.6,0.9-0.6c1.6,0,3.3,0,5,0l-2.5,4.3l-1.4,2.4c-0.1,0.2-0.2,0.4-0.1,0.6c1.2,1.9,2.4,3.8,3.7,5.8
	l1.6-4.7c0.9-2.7,1.8-5.4,2.7-8c0.1-0.3,0.4-0.5,0.7-0.5c0,0,0,0,0,0c1.5,0,3,0,4.5,0c0.3,0,0.5,0,0.6,0.4
	C91,158.3,92.5,163,94.1,167.8z M86.5,158.3c-0.2,1.1-0.4,1.9-0.6,2.8c-0.4,1.6-0.4,1.6,1.3,1.5c0.2,0,0.4,0,0.3-0.3
	C87.1,161,86.8,159.7,86.5,158.3L86.5,158.3z"/>
<path class="st5" d="M87.8,177.3c0.4,0.1,0.7,0.1,1.1,0l8.7-0.1c0.2,0,0.5,0.1,0.5-0.2c0-0.3-0.3-0.1-0.5-0.1l-4.2-0.1l-10.7-0.2
	h-2.2h-1c-0.2,0-0.4-0.1-0.6-0.1l-6-0.1c-0.2,0-0.4-0.1-0.6,0.1l-0.1-0.1c-1.1-0.1-2.2-0.2-3.2-0.1c-0.2,0.1-0.6-0.3-0.7,0.2l0,0
	c-0.1-0.4-0.4-0.2-0.6-0.2c-0.3,0-0.6,0-0.9,0c0.1-0.3,0.4-0.2,0.6-0.2c3.7-0.1,7.5-0.1,11.2-0.2c0.9,0,1.8,0,2.7-0.1h1.1
	c0.4,0.1,0.7,0.1,1.1,0h2.9c0.8,0.1,1.6,0,2.4-0.1c0.3,0.1,0.6,0.1,0.8,0h1.2l7.3-0.1c0.2,0,0.4,0.1,0.4-0.2c0-0.3-0.3-0.2-0.4-0.2
	l-8.3-0.1h-1.7h-0.3c-0.5-0.1-1.1-0.1-1.6,0c-2-0.2-3.9-0.1-5.9-0.1c-0.2-0.1-0.5-0.1-0.7,0c-0.1-0.1-0.3-0.1-0.4,0H79
	c-1.2-0.1-2.3-0.1-3.5-0.1h-3.2c-0.7-0.1-1.5-0.1-2.2,0l0,0c-0.2-0.1-0.5-0.1-0.7-0.1l-3-0.1l0,0l0,0c2.6-0.2,5.2-0.2,7.7-0.2
	l16.9-0.3l7.3-0.1c0.2,0,0.5,0.1,0.5-0.2c0-0.3-0.3-0.2-0.5-0.2l-9.6-0.6l-22.1-0.4c-0.1,0-0.2,0-0.5-0.3c2.1,0,4.1,0,6.1,0
	c5.8-0.1,11.5-0.2,17.3-0.3c6.4-0.2,12.8-0.2,19.3-0.2h0.5c0.4,0,0.5,0.1,0.4,0.5c-0.2,0.5-0.3,0.9-0.3,1.4
	c-0.1,0.5-0.3,0.6-0.7,0.6c-2,0-4.1,0-6.1,0c-0.8,0-1,0.2-1.1,1c-0.1,0.5,0,0.5,0.4,0.5c1.6,0,3.2,0,4.8,0c1.9,0,1.9,0,1.4,1.8
	c0,0.3-0.3,0.5-0.6,0.5c0,0,0,0,0,0c-1.9,0-3.9,0-5.8,0c-0.6,0-1,0.1-1.1,0.8c-0.1,0.8-0.2,0.8,0.7,0.8h5.9c0.8,0,0.8,0,0.6,0.8
	c0,0.5-0.2,1-0.4,1.5c-0.3,0.4-1,0-1.5,0.2c-0.2-0.1-0.5-0.1-0.7,0l-12.9-0.1h-1.7c-1.3,0-2.6-0.1-3.9-0.1l-7.3-0.1l-5.9-0.1H73
	c-0.6,0-1.1-0.1-1.7-0.1c-1.8,0-3.6,0-5.4-0.1l0,0l-0.1-0.1c0.4,0,0.8,0,1.2,0c2.1,0,4.2,0,6.3-0.2h1.3l3.5,0h0.2c1.7,0,3.3,0,5-0.1
	c0.7,0.1,1.5,0,2.2-0.1H87H89l7.9-0.1c0.2,0,0.4,0,0.4-0.2c0-0.2-0.3-0.1-0.4-0.1c-1,0-2.1-0.1-3.1-0.1l-6.2-0.1h-0.4
	c-1.4-0.1-2.8-0.2-4.2-0.1l-3.7-0.1c-2-0.1-3.9-0.1-5.9-0.1h-0.3c-1.4-0.1-2.8-0.2-4.2-0.1h-1.2c-0.8-0.1-1.6-0.1-2.4,0l-0.1-0.2
	l8.4-0.1l10.2-0.2l9.3-0.2c0.1,0,0.2,0,0.3-0.1h3.9c0.2,0,0.4,0,0.4-0.2c0-0.2-0.3-0.1-0.4-0.1l-5.5-0.1h-1.7h-0.1l-9.7-0.2
	L67.1,178c-0.1,0-0.3,0-0.4-0.1l0,0c0,0,0-0.1,0-0.1h0.6l4.3-0.1c0.2,0.1,0.5,0.1,0.7,0c0.3,0.1,0.6,0.1,0.8,0h0.7
	c0.6,0.1,1.2,0.1,1.8,0h0.8c0.7,0.1,1.4,0.1,2.1,0c0.9,0,1.7,0,2.6-0.1c1,0,2,0,3,0c1.1,0,2.1,0,3.2-0.1c0,0,0.1,0,0.1,0L87.8,177.3
	z"/>
<path class="st4" d="M103.8,160.3c0-2.1,0-4.2,0-6.3c0-0.5,0.1-0.7,0.7-0.7c1.2,0.1,2.4,0,3.6,0c0.4,0,0.6,0.1,0.6,0.5
	c0,4.5,0,9,0,13.4c0,0.4-0.1,0.6-0.5,0.5c-1.2,0-2.5,0-3.7,0c-0.4,0-0.8-0.2-1-0.6c-1.1-2-2.2-4-3.3-5.9c-0.1-0.2-0.2-0.3-0.4-0.6
	v3.3c0,1.1,0,2.3,0,3.4c0,0.4-0.1,0.5-0.5,0.5c-1.3,0-2.5,0-3.8,0c-0.4,0-0.5-0.1-0.5-0.5c0-4.5,0-9,0-13.4c0-0.5,0.1-0.6,0.6-0.6
	c1.2,0,2.4,0,3.7,0c0.4,0,0.8,0.2,0.9,0.5c1.2,2.2,2.4,4.3,3.6,6.5L103.8,160.3z M99.6,160.6L99.6,160.6L99.6,160.6L99.6,160.6z"/>
<path class="st4" d="M185.5,160.4c0,4.1-2.3,7-6.1,7.7c-4,0.7-7.7-1.9-8.4-5.9c0-0.2-0.1-0.4-0.1-0.6c-0.4-2.4,0.5-4.9,2.2-6.6
	c1.9-1.9,4.7-2.6,7.3-1.7C183.4,154.3,185.5,157.1,185.5,160.4L185.5,160.4z M180.5,160.6c0-1.6-0.9-2.7-2.2-2.8
	c-1.3-0.1-2.3,1-2.4,2.6c-0.1,1.6,0.8,2.8,2.1,2.9C179.4,163.4,180.5,162.3,180.5,160.6L180.5,160.6z"/>
<path class="st4" d="M161.9,168.2c-4,0-7.3-3.2-7.3-7.2c0-0.1,0-0.2,0-0.2c0-4.5,3.1-7.8,7.2-7.8c4.4,0,7.5,3.2,7.5,7.8
	c0.1,4-3.1,7.4-7.2,7.5C162,168.2,161.9,168.2,161.9,168.2z M159.5,160.4c0,0.5,0.1,0.9,0.2,1.3c0.3,0.9,1.1,1.5,2,1.6
	c1,0.1,1.9-0.5,2.2-1.5c0.4-0.9,0.3-1.9-0.1-2.7c-0.5-1.1-1.8-1.6-2.9-1.1c0,0-0.1,0-0.1,0.1C160,158.6,159.5,159.5,159.5,160.4
	L159.5,160.4z"/>
<path class="st4" d="M121.5,159.2h3.3c0.2,0,0.5,0,0.5,0.3c0.2,3.1-0.6,5.8-3.4,7.5c-2.2,1.5-5.1,1.6-7.4,0.3
	c-2.4-1.2-3.9-3.7-3.8-6.3c-0.4-4,2.5-7.6,6.5-8.1c2.8-0.3,5.5,1,7,3.4c0.2,0.4,0.2,0.5-0.2,0.7c-1.1,0.4-2.3,0.9-3.4,1.3
	c-0.2,0.1-0.4,0.2-0.6-0.1c-0.5-0.8-1.5-1.1-2.4-0.8c-0.9,0.3-1.6,1.1-1.7,2c-0.3,1-0.2,2,0.2,3c0.4,1.2,1.7,1.8,2.9,1.3
	c0.2-0.1,0.4-0.2,0.6-0.4c0.2-0.2,0.4-0.4,0.3-0.6c-0.1-0.3-0.4-0.1-0.6-0.1c-1.5,0-1.5,0-1.5-1.5c0-0.6-0.3-1.4,0.1-1.8
	c0.4-0.4,1.1-0.1,1.7-0.1C120.2,159.2,120.9,159.2,121.5,159.2z"/>
<path class="st2" d="M72.3,146v-2.2c-0.1-0.6,0.2-0.8,0.8-0.8c0.6,0,1.2,0,1.8-0.1c2.4-0.2,4.6-0.8,6.2-2.8c0.6-0.7,1-1.5,1.5-2.3
	c0.2-0.3,0.5-0.6,0.8-0.9c0.8-0.6,1.6-1.3,2.4-2c1.9-1.6,3.7-3.3,5.6-5c0.8-0.7,1.7-1.4,2.4-2.1c0.7-0.6,1.4-1.2,2-1.9
	c0.2-0.3,0.6-0.4,0.9-0.3c0.2,0.1,0.3,0.2,0.3,0.4c0.3,0.8,0.5,1.6,0.6,2.4c0.2,0.7,0.2,1.4,0,2.1c-0.7,1.8-2,3.4-3.7,4.3
	c-2.6,1.6-5.5,2.9-8.2,4.4c-0.9,0.4-1.4,1.3-1.3,2.2c0.1,1.1,0.6,2,1.4,2.7c0.6,0.5,0.9,1.2,1,1.9c-0.1,0.5-0.5,0.3-0.7,0.3h-14
	l-0.1-0.1L72.3,146z"/>
<path class="st4" d="M150.4,162l3.6,5.9c-1.8,0-3.5,0-5.3,0c-0.3,0-0.4-0.2-0.5-0.4l-1.7-3.3c-0.1-0.3-0.3-0.5-0.5-0.7
	c0,1.2,0,2.5,0,3.8c0,0.5-0.2,0.7-0.7,0.7c-1.2,0-2.4,0-3.6,0c-0.4,0-0.6-0.1-0.5-0.5c0-4.5,0-9,0-13.4c0-0.4,0.1-0.5,0.6-0.5
	c2.1,0,4.2,0,6.4,0c4.1,0.2,5.4,3.2,4.6,6.3C152.6,160.8,151.6,161.8,150.4,162z M146.1,158.5c0,0.4,0,0.7,0,1.1
	c0,0.2,0,0.3,0.2,0.3c0.6,0,1.3,0.1,1.7-0.5c0.3-0.5,0.4-1.1,0.1-1.6c-0.3-0.7-0.9-0.7-1.5-0.8c-0.6-0.1-0.7,0.1-0.6,0.7
	C146.1,158,146.1,158.2,146.1,158.5L146.1,158.5z"/>
<path class="st4" d="M132.9,153.3c0.8,0,1.5,0,2.3,0c0.4,0,0.5,0.1,0.6,0.5c1.5,4.5,3,9,4.5,13.5c0.2,0.5,0,0.5-0.4,0.5
	c-1.4,0-2.8,0-4.2,0c-0.4,0-0.5-0.1-0.6-0.5c-0.3-1.3-0.3-1.3-1.7-1.3c-0.5,0-1,0-1.5,0c-0.7-0.1-0.9,0.2-1,0.8c-0.2,1-0.2,1-1.2,1
	c-1.2,0-2.5,0-3.7,0c-0.4,0-0.5-0.1-0.4-0.5c1.5-4.5,3-9,4.6-13.5c0-0.3,0.3-0.5,0.6-0.5c0,0,0,0,0,0
	C131.4,153.3,132.2,153.3,132.9,153.3z M132.9,157.9c-0.1,1.1-0.3,2.1-0.6,3.1c-0.4,1.6-0.4,1.6,1.3,1.5c0.3,0,0.4-0.1,0.3-0.4
	C133.4,160.8,133.1,159.4,132.9,157.9L132.9,157.9z"/>
<path class="st5" d="M143.5,182.1c-0.1-0.5,0.1-0.9,0.2-1.4c0.2-0.9,0-1.2-0.9-1.2c-1.4,0-2.8,0-4.2,0c-0.3,0-0.5,0.1-0.5,0.5
	c-0.1,0.6-0.3,1.2-0.4,1.8c0,0.2,0,0.4-0.3,0.4c-0.9,0.1-1.8,0-2.7-0.1c0.8-3.3,1.7-6.6,2.5-9.9c0.1-0.3,0.2-0.3,0.4-0.3h0.3h8.6
	h0.3l0.4,0.1c0.9,0.2,1.2,0.5,1.2,1.4c-0.1,0.8-0.2,1.7-0.4,2.5c0,0-0.1,0.1,0,0.1l-0.6,1.4l-0.2,0.2l-0.1,0.1L146,178
	c0.2,0.2,0.4,0.3,0.6,0.4c0,0,0,0.1,0.1,0.1l0.1,0.2c0,1-0.2,2-0.5,2.9c-0.1,0.4-0.3,0.5-0.6,0.4
	C144.9,182.1,144.2,182.1,143.5,182.1z M141.5,176.9h1.7c1.3,0,1.6-0.3,1.8-1.6c0.1-0.6-0.1-0.9-0.7-0.9c-1,0-2,0-3,0
	c-2.1,0-2.1,0-2.5,2c-0.1,0.4,0,0.5,0.4,0.4C140,176.9,140.7,176.9,141.5,176.9L141.5,176.9z"/>
<path class="st5" d="M170.7,172C170.8,172,170.8,172,170.7,172c0.8,0.8,0.9,1.8,0.5,2.7c-0.1,0.2-0.3,0.3-0.4,0.2h-2.1
	c-0.2,0-0.3,0-0.3-0.2c0.1-0.7-0.4-0.8-0.9-0.8c-0.9,0-1.8,0-2.8,0c-0.4,0-0.8,0-1.2,0.1c-0.4,0.1-0.6,0.5-0.6,0.9
	c0,0.4,0.4,0.5,0.7,0.5c0.5,0,1,0.1,1.5,0.1c1.5,0,2.9,0.1,4.4,0.3c0.7,0.1,1.3,0.7,1.2,1.4c0,1.2-0.3,2.3-0.8,3.3
	c-0.4,0.8-1.1,1.3-1.9,1.4c-0.8,0.2-1.6,0-2.4,0.2c-1.3,0-2.6-0.1-3.8-0.1c-0.6,0-1.3-0.1-1.9-0.2c-0.5-0.3-1-0.5-1-1.2
	c0-0.6,0.1-1.2,0.2-1.7c0.1-0.2,0.2-0.4,0.5-0.4c0.8,0,1.6,0,2.3,0c-0.1,1,0,1.1,1,1.1c1.4,0,2.7,0,4.1,0c0.3,0,0.5-0.1,0.7-0.3
	c0.5-0.8,0.3-1.3-0.7-1.3c-1.9,0-3.7-0.1-5.6-0.3c-0.7,0-1.4-0.6-1.4-1.3c0-0.1,0-0.2,0-0.3c0-1.1,0.3-2.2,0.8-3.1
	c0.4-0.8,1.2-1.4,2.2-1.4c2-0.2,4-0.2,5.9-0.1C169.5,171.6,170.2,171.8,170.7,172z"/>
<path class="st5" d="M183,177.6c-0.1,0.9-0.3,1.7-0.6,2.6c-0.4,1.2-1.5,1.9-2.8,2l-2.9,0.1h-2.3c-0.4-0.1-0.8-0.1-1.2-0.1
	c-0.8,0-1.6-0.3-2.1-0.9c0,0,0-0.1,0-0.1c-0.1-0.7-0.1-1.4,0.1-2.1c0.1-0.3,0.2-0.4,0.5-0.4c0.7,0,1.3,0,2,0c0.2,0,0.4,0,0.3,0.3
	c-0.1,0.6,0.2,0.8,0.7,0.8c1.4,0,2.7,0,4.1,0c0.8,0,1.2-0.4,1.1-1.1c0-0.6-0.7-0.5-1.1-0.6c-1.8-0.1-3.5-0.1-5.3-0.3
	c-0.7-0.1-1.3-0.3-1.4-1.1c-0.3-2.1,0.8-4.1,2.7-5h0.3h0.6l0.8-0.1c1.2,0,2.5,0,3.7,0c0.8,0,1.7,0.1,2.5,0.3
	c0.5,0.1,0.9,0.6,0.9,1.1c0,0.6,0,1.2-0.1,1.7c0,0.3-0.2,0.3-0.4,0.3h-2c-0.2,0-0.4,0-0.4-0.3c0.1-0.7-0.4-0.7-0.9-0.7
	c-1.1,0-2.2,0-3.3,0c-0.3,0-0.5,0.1-0.8,0.1c-0.4,0.1-0.6,0.5-0.6,0.9c0,0.4,0.4,0.4,0.7,0.4c0.7,0.1,1.5,0.1,2.2,0.1h0.8
	c0.7,0,1.3,0.1,2,0.1c0.9,0.1,1.8,0.1,2.2,1.2c0,0,0,0.1,0,0.1c0,0,0,0,0,0L183,177.6z"/>
<path class="st5" d="M147.9,182.2h-0.3c-0.4-0.1-0.3-0.3-0.2-0.6c0.2-0.8,0.4-1.5,0.5-2.3l0,0c0.4-1.2,0.6-2.4,0.9-3.6
	s0.6-2.2,0.8-3.3c0.1-0.5,0.3-0.6,0.8-0.6c2.7,0,5.3,0,8,0c0.6,0,1.4-0.2,1.7,0.1c0.2,0.3-0.2,1.1-0.3,1.7c-0.1,0.6-0.4,0.7-0.9,0.7
	c-2,0-4.1,0-6.2,0c-0.7,0-1,0.3-0.9,1.2c0,0.6,0.5,0.3,0.8,0.3c1.9,0,3.8,0,5.7,0c0.4,0,0.6,0.1,0.4,0.5c-0.1,0.4-0.2,0.8-0.3,1.3
	c-0.1,0.4-0.3,0.5-0.7,0.5c-1.9,0-3.9,0-5.8,0c-0.9,0-1,0.1-1.1,1c-0.1,0.5,0.1,0.6,0.5,0.6c1.8,0,3.5,0,5.3,0
	c0.5,0,1.3-0.2,1.6,0.1s-0.2,1-0.3,1.6s-0.4,0.8-1,0.8C153.9,182.1,150.9,182.2,147.9,182.2z"/>
<path class="st5" d="M132.9,171.8h0.5c0.1,0.1,0.3,0.1,0.5,0.1c0.9,0,1.6,0.8,1.6,1.7c0,0.1,0,0.2,0,0.3c-0.1,0.8-0.3,1.6-0.5,2.4
	c-0.4,1.7-1.3,3-3.2,3.3h-4.9c-1.1,0-1.1,0-1.3,1.2v0.1c-0.4,1.1-0.4,1.1-1.7,1.2h-0.1h-0.3c-0.1,0-0.3,0-0.4,0
	c-0.6,0.1-0.7,0-0.6-0.7c0.8-2.9,1.5-5.8,2.1-8.8c0.2-0.7,0.5-0.9,1.2-0.9c2.3,0,4.5,0,6.8,0h0.1l0,0L132.9,171.8z M129.7,174.4
	h-0.5c-0.7,0-1.5-0.3-1.9,0.1c-0.4,0.4-0.4,1.2-0.6,1.9c-0.2,0.6,0,0.6,0.5,0.6c1.1,0,2.2,0,3.2,0c1.5,0,1.7-0.2,2-1.7
	c0.1-0.6-0.1-0.9-0.7-0.9C131,174.4,130.3,174.4,129.7,174.4z"/>
<path class="st5" d="M110.6,171.7c1.1,0,2.1,0,3.2,0c0.3,0,0.7,0.1,0.8,0.5c0.5,1,1.1,2.1,1.9,3.3l2.8-3c0.5-0.3,0.9-1,1.7-0.8h3.2
	l-0.5,0.5c-1.6,1.4-3.2,2.9-4.9,4.3c-0.3,0.3-0.3,0.4-0.1,0.8c0.7,1,1.4,2,2,3c0.4,0.5,0.8,1.1,1.1,1.7c-1.2,0-2.2,0-3.3,0
	c-0.4,0.1-0.8-0.2-0.9-0.5c-0.5-0.9-1.1-1.9-1.6-2.8c-0.1-0.2-0.2-0.4-0.5-0.1c-1,0.9-1.9,1.8-2.9,2.8l-0.1,0.1
	c-0.3,0.2-0.4,0.5-0.8,0.5c-1.3,0-2.5,0-3.8,0c0-0.1,0-0.2,0.1-0.3c1.7-1.5,3.5-3,5.2-4.4c0.4-0.3,0.6-0.6,0.2-1.1
	c-0.9-1.3-1.7-2.6-2.5-3.9C110.6,172.2,110.3,172,110.6,171.7z"/>
<path class="st1" d="M147.9,182.2c3,0,6,0,9,0c0.7,0,1-0.2,1-0.8s0.5-1.2,0.3-1.6s-1-0.1-1.6-0.1c-1.7,0-3.5,0-5.3,0
	c-0.4,0-0.6-0.1-0.5-0.6c0.1-0.9,0.2-1,1.1-1c1.9,0,3.9,0,5.8,0c0.4,0,0.6-0.1,0.7-0.5c0.1-0.4,0.2-0.9,0.3-1.3
	c0.2-0.5,0-0.5-0.4-0.5c-1.9,0-3.8,0-5.7,0c-0.2,0-0.8,0.3-0.8-0.3c0-0.9,0.2-1.2,0.9-1.2c2.1,0,4.1,0,6.2,0c0.5,0,0.9-0.1,0.9-0.7
	c0.1-0.6,0.6-1.3,0.3-1.7c-0.3-0.4-1.1-0.1-1.7-0.1c-2.7,0-5.3,0-8,0c-0.5,0-0.7,0.1-0.8,0.6c-0.2,1.1-0.5,2.2-0.8,3.3l-0.1-0.1
	c0-0.3-0.2-0.3-0.4-0.1s-0.2,0.3-0.4,0.3c0.2-0.8,0.3-1.6,0.4-2.5c0-0.9-0.3-1.2-1.2-1.4l-0.4-0.1c0-0.3,0.3-0.3,0.5-0.3
	c0.2,0,0.5,0.1,0.5-0.2c0.1-0.3-0.2-0.3-0.4-0.5l0.7-0.5c-0.4,1,0.4,1.3,0.8,1.8c0.3-0.7,1.1-0.6,1.7-0.6c2.5,0,5,0,7.5,0
	c0.4,0,0.8,0.1,0.9-0.6c0-0.4,0.5-0.6,1-0.4c0,0.3-0.4,0.1-0.5,0.3c0.3,0.3,0.3,0.3-0.1,0.6c0.1,0.2,0.3,0.2,0.5,0.2
	c0.6-0.1,1.2,0.3,1.8,0.3c0.2,0,0.4,0.1,0.5-0.1c0.1-0.2,0-0.3-0.2-0.4c-0.2-0.1-0.4-0.4-0.6-0.2c-0.5,0.7-0.5-0.1-0.7-0.2
	c0.5-0.2,1.1-0.1,1.6,0.1c0.5,0.2,1,0.3,1.5,0.4c1.7,0.2,3.4,0.3,5.1,0.2c0.3,0,0.6-0.1,0.8-0.2c0.5-0.2,1.1,0.1,1.2,0.7
	c0,0,0,0.1,0,0.1c-0.6-0.2-1.2-0.3-1.9-0.3c-2-0.1-4-0.1-5.9,0.1c-0.9,0.1-1.7,0.6-2.2,1.4c-0.5,1-0.8,2-0.8,3.1
	c-0.1,0.7,0.4,1.4,1.1,1.5c0.1,0,0.2,0,0.3,0c1.9,0.2,3.7,0.2,5.6,0.3c1,0,1.2,0.5,0.7,1.3c-0.1,0.2-0.4,0.4-0.7,0.3
	c-1.4,0-2.7,0.1-4.1,0c-1,0-1-0.1-1-1.1c-0.8,0-1.6,0-2.3,0c-0.3,0-0.4,0.1-0.5,0.4c-0.1,0.6-0.2,1.1-0.2,1.7c0,0.7,0.5,1,1,1.2
	c-0.3,0-0.8-0.1-0.5,0.5c0.1,0.2,0.1,0.5-0.2,0.5s-0.3-0.2-0.3-0.5s0-0.5,0-0.8s0-0.3-0.2-0.4c-0.2-0.1-0.4,0-0.5,0.2
	c-0.2,0.5-0.3,1.1-1.1,0.8c-0.2-0.1-0.1,0.4-0.4,0.3c0.1-0.5-0.2-0.6-0.6-0.6c-2.5,0-4.9,0-7.4,0
	C148.3,182.3,148.1,182.4,147.9,182.2z"/>
<path class="st1" d="M110.6,171.7c-0.3,0.3,0,0.4,0.1,0.6c0.8,1.3,1.6,2.6,2.5,3.9c0.4,0.5,0.2,0.8-0.2,1.1
	c-1.7,1.5-3.5,2.9-5.2,4.4c-0.1,0.1-0.1,0.2-0.1,0.3c1.2,0,2.5,0,3.8,0c0.3,0,0.5-0.4,0.8-0.5v0.5c0,0.4-0.2,0.5-0.6,0.4
	c-0.5-0.2-0.6-0.2-1,0.3c0.4,0.2,0.9,0,1.3,0.2c-0.6,0.3-1.4,0.2-1.9-0.3c-0.1-0.1-0.3-0.1-0.5-0.1c-0.8-0.1-1.6,0.1-2.3,0.5
	c-0.1,0.1-0.3,0.1-0.4,0.1h-7.4c-0.1,0-0.2,0-0.4-0.2h7.1c0-0.4-0.3-0.5-0.2-0.7c0.5-0.2,1.2,0.2,1.5-0.2c0.2-0.5,0.4-1,0.4-1.5
	c0.2-0.8,0.2-0.8-0.6-0.8h-5.9c-0.9,0-0.8,0-0.7-0.8c0.1-0.7,0.4-0.8,1.1-0.8c1.9,0,3.9,0,5.8,0c0.3,0.1,0.6-0.1,0.7-0.4
	c0,0,0,0,0,0c0.5-1.8,0.5-1.8-1.4-1.8c-1.6,0-3.2,0-4.8,0c-0.4,0-0.5-0.1-0.4-0.5c0.1-0.7,0.4-1,1.1-1c2,0.1,4.1,0,6.1,0
	c0.4,0,0.7-0.1,0.7-0.6c0.1-0.5,0.2-1,0.3-1.4c0.1-0.4,0-0.5-0.4-0.5C109.7,171.5,110.2,171.3,110.6,171.7z"/>
<path class="st4" d="M87,146.2c-0.1-0.7-0.5-1.4-1.1-1.9c-0.8-0.7-1.3-1.7-1.4-2.7c-0.1-0.9,0.4-1.8,1.3-2.2
	c2.7-1.5,5.6-2.8,8.2-4.4c1.7-1,3-2.5,3.7-4.3c0.2-0.7,0.2-1.4,0-2.1c-0.1-0.8-0.4-1.6-0.6-2.4c-0.1-0.4-0.5-0.6-0.8-0.5
	c-0.2,0-0.3,0.2-0.4,0.3c-0.6,0.7-1.3,1.3-2,1.9c-0.8,0.8-1.6,1.4-2.4,2.1c-1.9,1.6-3.7,3.4-5.6,5c-0.8,0.7-1.6,1.4-2.4,2
	c-0.3,0.3-0.6,0.6-0.8,0.9c-0.1-0.4-0.3-0.1-0.5,0c-3.1,2.3-6.6,4.1-10.3,5.1c-1.4,0.2-2.8,0.3-4.2,0.2c-2-0.4-3.9-1.5-5.3-3
	c0,0,0-0.1,0-0.2c0.4,0,0.5,0.3,0.8,0.5c2.7,1.8,6.1,2.3,9.2,1.5c4.9-1,9-3.5,12.7-6.6c2.6-2.1,4.8-4.6,7.2-6.8
	c1.4-1.3,2.8-2.5,4.3-3.7c0.5-0.4,0.8-1,0.7-1.6c-0.1-0.2,0-0.4,0.2-0.5c0,2.1,0.8,3.9,1,5.9c0.2,2.1-0.7,4.1-2.4,5.3
	c-2.3,1.7-4.7,3.2-7.3,4.4c-0.8,0.4-1.5,0.9-2.3,1.3c-0.8,0.4-1.1,1.3-0.9,2.1c0.1,0.7,0.4,1.3,0.7,1.9c0.6,1,1.1,2.1,1.4,3.3
	c0.3,0.7,0.1,1.6-0.5,2.1v-1.1v-0.3c0-0.3,0.1-0.7-0.2-1C87.2,146.5,87.1,146.4,87,146.2z"/>
<path class="st4" d="M131.6,109c-0.5,0.5-1.2,0.9-1.9,1c-1.8,0.5-3.7,0.4-5.3-0.3c-2.4-1-4.8-2-7.1-3c-3.5-1.6-7.6-1.4-10.9,0.5
	c-4.4,2.4-8.3,5.6-11.4,9.6c-3.4,4.2-6.4,8.7-9.6,13.1c-0.6,0.9-1.4,1.7-2.1,2.6c-0.1,0.1-0.2,0.4-0.5,0.3c0.4-0.5,0.7-0.9,1.1-1.4
	c0.8-0.9,1.4-2,1.7-3.2c-0.1,0.1,0,0.3,0.1,0.4c0.1,0.1,0.2-0.1,0.3-0.3c1.2-1.8,2.4-3.7,3.7-5.5c1.2-1.8,2.4-3.7,3.6-5.6
	c2.2-3.5,5.3-6.4,8.9-8.5c0.1,0,0.1-0.1,0.1-0.1c0.7-0.2,1.4-0.6,2-1.1c0.6-0.2,1.2-0.5,1.8-0.7c1.3-0.5,2.6-0.9,4-1.2
	c2.6-0.6,4.9,0.1,7.3,1c1.8,0.7,3.5,1.6,5.3,2.1c1.5,0.5,3,0.9,4.6,1.2c1.2,0.2,2.5,0,3.6-0.6C131.1,109.1,131.4,109.1,131.6,109z"
	/>
<path class="st4" d="M87.6,151.7C87.6,151.7,87.6,151.6,87.6,151.7c2.2-1.4,2.3-3.5,2-5.7c-0.2-1-0.3-1.9-0.4-2.9
	c-0.1-0.7,0.1-1.3,0.6-1.8c1.5-1.3,3.1-2.4,4.8-3.3c3.2-2,6.5-3.8,9.9-5.4c2.5-1.1,4.6-2.8,6.2-5c1.6-2,2.3-4.5,2.1-7
	c0-0.1,0-0.2,0-0.3c2,2,0,7.6-3.9,10.4c0.4,0.1,0.8,0.1,1.2,0c2-0.7,3.4-2.4,3.6-4.4c0.1-0.5,0.2-1,0.3-1.4c0-0.1,0-0.4,0.2-0.4
	c0.2,0,0.3,0.1,0.4,0.2c0.2,0.4,0.4,0.8,0.8,1.1c0.4,0.3,0.7,0.7,1.2,0.4c0.1-0.1,0.2-0.1,0.2,0c0,0,0,0,0,0
	c0.3,0.5,0.9,0.8,1.5,0.9c-0.1,0.2-0.4,0.4-0.7,0.2c0,0-0.1,0-0.1-0.1c-1.1-0.6-2.5-0.7-3.2-2.1c-0.1,1-0.3,2-0.6,3
	c-0.4,1.2-1.4,2.1-2.6,2.5c-1,0.3-2,0.5-3,0.6c-0.5,0.1-1.1,0.3-1.5,0.7c-1.1,0.7-2.3,1.3-3.5,1.8c-1.7,0.9-3.4,1.6-5.1,2.6
	c-1.7,0.9-3.4,2-5,3.1c-0.7,0.5-1.4,1-2.1,1.5c-0.6,0.3-1,0.9-1.1,1.5c-0.1,1.4,0.1,2.7,0.6,4v0.1c0,0.4,0.1,0.8,0.1,1.1
	c0.2,1.4-0.6,2.8-1.9,3.4l-0.8,0.4L87.6,151.7z"/>
<path class="st1" d="M174.8,171.8c-1.9,0.9-3,2.9-2.7,5c0.1,0.8,0.7,1,1.4,1.1c1.8,0.2,3.5,0.2,5.3,0.3c0.4,0,1.1-0.1,1.1,0.6
	c0.1,0.7-0.4,1-1.1,1.1c-1.4,0-2.7,0-4.1,0c-0.5,0-0.8-0.2-0.7-0.8c0.1-0.3-0.1-0.3-0.3-0.3c-0.7,0-1.3,0-2,0
	c-0.3,0-0.4,0.1-0.5,0.4c-0.2,0.7-0.3,1.4-0.1,2.1c-0.2,0-0.4,0-0.6-0.1c-0.2,0-0.4,0-0.5,0.3c-0.2,0.4-0.5,1-1.1,0.8
	c-0.4-0.1-0.3,0.3-0.5,0.5c-0.2,0.1-0.4,0.7-0.6,0c0-0.1-0.1-0.2-0.3-0.2c-0.6,0.2-1.2-0.2-1.8-0.2c0.8-0.2,1.6,0,2.4-0.2
	c0.8-0.1,1.5-0.7,1.9-1.4c0.6-1,0.8-2.2,0.8-3.3c0-0.7-0.5-1.4-1.2-1.4c-1.5-0.2-2.9-0.3-4.4-0.3c-0.5,0-1,0-1.5-0.1
	c-0.3,0-0.7-0.1-0.7-0.5c0-0.4,0.2-0.8,0.6-0.9c0.4-0.1,0.8-0.1,1.2-0.1c0.9,0,1.8,0,2.8,0c0.5,0,1,0,0.9,0.8c0,0.2,0.1,0.2,0.3,0.2
	h2.1c0.2,0,0.4-0.1,0.4-0.2c0.4-0.9,0.3-2-0.4-2.7c0-0.1,0.1-0.1,0.2-0.2c0-0.1,0.1-0.4,0.3-0.3c0.3,0,0.2,0.2,0.2,0.4
	c0,0.2,0,0.2,0,0.3c0.3,0.1,0.1-0.4,0.4-0.3c0.2,0.4,0.1,0.9-0.3,1.2c-0.2,0.1-0.3,0.3-0.1,0.5s0.4,0,0.6-0.2
	c0.4-0.3,0.5-0.8,0.9-1.1c0.2-0.1,0-0.6,0.2-0.6C173.8,171.8,174.3,171.5,174.8,171.8z"/>
<path class="st1" d="M112.4,181.5c1-0.9,1.9-1.8,2.9-2.8c0.3-0.3,0.4-0.1,0.5,0.1c0.5,0.9,1.1,1.9,1.6,2.8c0.2,0.4,0.5,0.6,0.9,0.5
	c1.1,0,2.2,0,3.3,0c-0.3-0.6-0.7-1.2-1.1-1.7c-0.7-1-1.3-2-2-3c-0.2-0.3-0.2-0.5,0.1-0.8c1.6-1.4,3.2-2.9,4.9-4.3l0.5-0.5h-1.9
	c0.1-0.3,0.5,0,0.7-0.2c0.2-0.2,0.4,0,0.4-0.3c0-0.3,0.3-0.2,0.4-0.1c0.3,0.4,0.8,0.5,1.2,0.3c0.1,0,0.1-0.1,0.1-0.1
	c0.1-0.1,0.2-0.1,0.2-0.1c1.3,0.5,2.6,0.1,3.9,0.2c0.8,0.1,1.6,0,2.4,0c0.2,0,0.5,0,0.5-0.2c0-0.9,0.6-0.5,1.1-0.5
	c-0.4,0-0.7,0.4-0.7,0.9c0,0,0,0.1,0,0.1c-2.3,0-4.5,0-6.8,0c-0.7,0-1,0.1-1.2,0.9c-0.7,2.9-1.4,5.9-2.1,8.8c-0.2,0.6,0,0.8,0.6,0.7
	c0.1,0,0.3,0,0.4,0l-0.1,0.4c-0.4,0-0.9,0-1.3,0c-0.2,0-0.7-0.2-0.4,0.4c0,0.1-0.1,0.1-0.3,0.1c-0.8,0-1.5,0-2.3-0.1
	c0.4-0.3,0.8-0.2,1.2-0.2c0.2,0,0.4,0,0.6,0s0.3-0.1,0.3-0.2c0-0.2-0.1-0.3-0.3-0.3c-0.4-0.1-0.8-0.1-1.2,0c-0.6,0.2-1.3,0-1.9,0.4
	c-0.1,0.1-0.3,0.1-0.3,0c0.1-0.4-0.7-0.2-0.5-0.6c0.2-0.4,0-0.5-0.2-0.7c-0.5-0.6-1.1-1.1-1.7-1.5c0.3-0.1,0.3-0.2,0.2-0.5
	c-0.3,0.1-0.1,0.3-0.2,0.5c-0.4,0-0.8,0.4-0.7,0.8c0,0.1,0,0.2,0.1,0.3c0.1,0.3,0,0.6-0.1,0.5C113.6,181.1,113,181.7,112.4,181.5z
	 M120.3,177.3c0.4,0.8,0.5-0.2,0.8-0.2c0,0.4,0.2,0.8-0.1,1c-0.4,0.2-0.4,0.6-0.9,0.7c1.1,0.5,1.1,0.5,1.1-0.1
	c0.5-0.1,0.1-0.5,0.4-0.7c0.3,0.2,0.7,0.2,1,0.1c0.6-0.3,0.6-0.9,0.9-1.3c0.6-0.8-0.5-1.6,0-2.4c0,0,0,0,0-0.1
	c-0.3-0.2-0.8-0.4-1.1-0.1c-0.3,0.3-0.5,0.8-1.1,0.8c0,0.8-0.7,0.9-1.2,1.3c-0.2,0.2-0.2,0.4-0.6,0.3s-0.3,0.2-0.3,0.4
	c0.2,0.6,0.6,1,1.1,1.2C120.2,177.8,119.7,177.5,120.3,177.3L120.3,177.3z"/>
<path class="st5" d="M128.6,74.6c-0.5-0.8-0.4-1.7,0.1-2.4c0,0,0.1-0.1,0.1-0.2c-0.1-0.7,0.4-1.1,0.6-1.7c0.2-0.8,0.2-0.8-0.6-0.8
	c-14.1,0-28.2,0-42.4,0c-0.6,0-0.8,0.1-0.8,0.8c0,1,0,2,0,3c0,0.5,0.1,0.7,0.6,0.6c0.5,0,0.8,0,1.2,0c0.2,0,0.4,0,0.4,0.2
	c-0.6,0-1.3-0.1-1.9-0.1c-0.4,0-0.4-0.2-0.4-0.5c0-1.4,0-2.7,0-4.1c0-0.4,0.1-0.5,0.5-0.5c0.2,0,0.4,0,0.6,0h43.6
	C129.7,70.9,129.2,72.8,128.6,74.6z"/>
<path class="st5" d="M186.3,73.6c-0.1-0.5-0.6-0.1-0.9-0.4c0.6-0.1,1.2-0.2,1.8-0.1c0.4,0,0.8,0.2,0.6-0.6c-0.2-0.7-0.2-1.4,0.2-2
	c0.2-0.3-0.3-0.9-0.7-1h-30.1c-0.1,0-0.3,0-0.4,0c-0.2,0-0.5,0.1-0.5,0.3c-0.1,0.3,0.4,0.1,0.3,0.4c-0.4,0-0.9,0.3-1.1-0.4
	c0-0.1-0.2-0.1-0.4-0.1c0.4-0.6,1.1-0.9,1.8-0.8c10.2,0,20.3,0,30.5,0c0.7,0,0.8,0.2,0.8,0.8c-0.1,1.1,0,2.2,0,3.3
	c0,0.4-0.2,0.6-0.6,0.6S186.7,73.6,186.3,73.6z"/>
<path class="st5" d="M55.4,188.7c0,1.7,0,3.5,0,5.2c0,0.4,0.1,0.6,0.6,0.6c0.5,0,0.7,0,1,0h135.9c1.3,0,1.1,0.2,1.1-1.1
	c0-1.5,0-3.1,0-4.6c0.2,0,0.1,0.1,0.1,0.2c0,1.9,0,3.8,0,5.7H192H56.2h-0.8c-0.2-0.1-0.1-0.3-0.1-0.4c0-1.7,0-3.5,0-5.2
	C55.3,189,55.2,188.8,55.4,188.7z"/>
<path class="st1" d="M71.8,142.9c3.7-1,7.2-2.8,10.3-5.1c0.1-0.1,0.3-0.3,0.5,0c-0.5,0.8-0.9,1.6-1.5,2.3c-1.6,2-3.8,2.6-6.2,2.8
	c-0.6,0.1-1.2,0.1-1.8,0.1c-0.6,0-0.9,0.2-0.8,0.8c-0.2,0-0.2-0.2-0.2-0.4C72.1,143.1,72.2,142.9,71.8,142.9z"/>
<path class="st1" d="M131.8,179.6c1.9-0.2,2.8-1.5,3.2-3.3c0.2-0.8,0.4-1.6,0.5-2.4c0.2-0.9-0.4-1.8-1.2-2c-0.1,0-0.2,0-0.3,0
	c-0.2,0-0.4,0-0.5-0.1c0.3-0.5,0.7-0.8,1.2-0.5c0.5,0.2,1.4,0.1,1.5,1.1c0,0.2,0.1,0.3,0.3,0.3s0.4-0.6,0.4-0.6
	c-0.2-0.3,0.1-0.5,0.1-0.7c0.4,0,0.6,0.1,0.6,0.5c-0.2,0-0.4,0-0.4,0.3c-0.8,3.3-1.6,6.6-2.5,9.9c-0.2-0.3-0.2-0.8-0.1-1.1
	c0.1-0.6,0.1-1.2,0.1-1.8c0-0.2-0.2-0.3-0.3-0.3c-0.1,0-0.2,0.1-0.1,0.3c0,0.3-0.2,0.2-0.4,0.2c-0.2,0-0.5,0.1-0.5,0.4
	c-0.2,0-0.5,0-0.6,0.2C132.1,180.2,131.9,180.1,131.8,179.6z"/>
<path class="st1" d="M65.9,181.5c1.8,0.1,3.6,0.1,5.4,0.1c0.6,0,1.1,0.1,1.7,0.1c-0.1,0.4-0.4,0.3-0.6,0.3c-0.6,0-1.2,0-1.9,0.1
	c-0.2,0-0.4,0-0.4,0.3c0,0.3,0.3,0.2,0.4,0.2h3.2c0.1,0,0.3,0,0.4,0.2c-0.3,0.1-0.7,0.1-1,0.1c-0.6,0-1.2,0-1.9,0
	c-1.2,0.1-2.5,0.2-3.7,0.5c-0.5,0.1-1,0.1-1.5,0c-0.1,0-0.4,0.1-0.4-0.1c0-0.2,0.2-0.4,0.3-0.4c0,0,0,0,0,0c0.3,0,0.7,0,1,0h0.5
	c0.2,0,0.3-0.1,0.3-0.3c0-0.2-0.1-0.3-0.3-0.3h-1.9c0.3-0.5,0.8-0.1,1.1-0.4c-0.7-0.3-1.3,0.1-1.8,0.3c-0.1,0-0.3,0.2-0.3,0
	c-0.1-0.5-0.3-0.3-0.6-0.1c-0.1,0-0.2,0.1-0.3,0c-0.5-0.7-1.2-0.3-1.8-0.4c-0.2,0-0.4-0.1-0.7-0.2c0.5-0.2,1.1,0.2,1.5-0.4
	c0.5,0.4,0.7-0.4,1.1-0.4c0.4,0,0.9,0,1.4,0c0.1,0,0.3,0,0.4,0.1c-0.2,0.4-1-0.2-1,0.5h-0.1c0,0-0.2,0.1,0,0.1
	C64.9,181.4,65.4,181.7,65.9,181.5z"/>
<path class="st1" d="M178,175.6c-0.7,0.1-1.5,0-2.2-0.1c-0.3,0-0.6,0-0.7-0.4c-0.1-0.4,0.2-0.8,0.6-0.9c0.3-0.1,0.5-0.1,0.8-0.1
	c1.1,0,2.2,0,3.3,0c0.5,0,1,0.1,0.9,0.7c0,0.3,0.2,0.3,0.4,0.3h2c0.2,0,0.4-0.1,0.4-0.3c0.1-0.6,0.2-1.1,0.1-1.7
	c0-0.5-0.4-1-0.9-1.1c-0.8-0.2-1.6-0.3-2.5-0.3c-1.2,0-2.5,0-3.7,0c0.2-0.2,0.4-0.1,0.6-0.1h3.2c0.3,0.1,0.6,0,0.8-0.2
	c0.2-0.1,0.5-0.1,0.6,0c0.4,0.3,0.8,0.4,1.3,0.4c0.4,0,0.7,0.3,0.7,0.7c0,0,0,0,0,0c0,0.7,0,1.4,0.2,2.1c0,0.1,0,0.2-0.1,0.3
	c-0.5,0.6-0.8,1.4-1,2.1c-0.4-1-1.3-1.1-2.2-1.2c-0.7-0.1-1.3-0.1-2-0.1c0.2-0.3,0.6-0.5,0.9-0.5c0.2,0,0.3-0.1,0.2-0.3
	c-0.1-0.2-0.1-0.2-0.3-0.1c-0.4,0.3-0.8,0.3-0.9-0.3c0-0.1-0.2-0.1-0.3-0.1H177c-0.2,0-0.3,0-0.4,0.3c0,0.9,0,0.9,0.9,1
	C177.7,175.5,177.8,175.5,178,175.6z"/>
<path class="st1" d="M73.6,181.8l5.9,0.1l7.3,0.1c1.3,0,2.6,0.1,3.9,0.1c-0.1,0.4-0.4,0.2-0.7,0.2s-0.6-0.1-0.9,0.1
	c0.3,0.4,0.7,0,1.1,0.4h-2.3c0-0.4,0.5-0.2,0.6-0.4c-0.4-0.2-0.9-0.3-1.4-0.2c-0.9,0.2-1.7-0.2-2.5,0s-1.4,0-2,0.1
	c-0.4,0.1-0.7,0.5-1.1,0.4c-1.3-0.3-2.6-0.5-3.8-0.4c-1,0-1.9,0.1-2.9,0.1C74.3,182.5,73.8,182.2,73.6,181.8z"/>
<path class="st1" d="M81.2,175.7c-0.9,0.1-1.8,0.1-2.7,0.1c-3.7,0.1-7.5,0.1-11.2,0.2c-0.2,0-0.5-0.1-0.6,0.2
	c-0.5,0.2-1.1,0-1.4,0.5c-0.1,0.1-0.2,0.1-0.3,0c-0.3-0.4-0.8-0.6-1.2-0.5h-0.6c0.2-0.3,0.4-0.5,0.8-0.3c0.5,0.1,0.9,0.1,1.4,0
	c0.1,0,0.2-0.1,0.3-0.2c0.3-0.7,0.8-0.4,1.3-0.2c0.3,0.2,0.7,0.2,1,0c0.3-0.2,0.6-0.2,0.9-0.1c0.4,0.2,0.8,0.3,1.2,0.2
	c0.9-0.1,1.9,0,2.8,0c0.3,0,0.5,0,0.6-0.3c0.1-0.4,0.3-0.2,0.5-0.1c0.8,0.5,1.7,0.6,2.5,0.2c0.3-0.1,0.6,0.2,1.1,0.2
	c1-0.2,2.1-0.2,3.2-0.2C81,175.4,81.2,175.4,81.2,175.7z"/>
<path class="st1" d="M147.9,179.3c-0.2,0.8-0.3,1.5-0.5,2.3c-0.1,0.3-0.1,0.5,0.2,0.6c-0.1,0.7-0.6,0.4-0.9,0.3
	c-0.2-0.1-0.5-0.2-0.8-0.1c-0.1,0.2,0.1,0.2,0.1,0.4c0,0.2,0,0.3-0.2,0.4c0,0,0,0,0,0c-0.2,0.1-0.3-0.1-0.3-0.3
	c0-0.4-0.1-0.5-0.5-0.3c-0.4,0.2-1.1-0.3-1.6,0c-0.1,0,0-0.2,0.1-0.3c0.7,0,1.5,0,2.2,0c0.3,0,0.5-0.1,0.6-0.4
	c0.3-0.9,0.5-1.9,0.5-2.9l-0.1-0.2c0,0-0.1-0.1-0.1-0.1v0c0.5-0.1,0.6,0.4,1,0.5c0.4-0.8,0.1-1.8,0.6-2.6c-0.3,0.1-0.5,0.3-0.5,0.6
	c-0.1,0.3-0.3,0.3-0.6,0.4l0,0l0.6-1.4c0.4,0.2,0.7,0.3,0.9-0.2l0.1,0.1C148.5,177,148.2,178.2,147.9,179.3L147.9,179.3L147.9,179.3
	z"/>
<path class="st1" d="M125.6,180.8c0.1-1.2,0.1-1.2,1.3-1.2h4.5c-0.4,0.7,0.3,0.7,0.6,0.9c-0.1,0.3-0.4,0.2-0.5,0.2
	c-1.1,0-2.1,0-3.2,0c-0.4,0-0.7,0.1-0.6,0.5s-0.1,0.3-0.3,0.3c-0.2,0-0.4,0-0.4-0.3c-0.1-0.4-0.6-0.7-1.1-0.5
	C125.8,180.7,125.7,180.7,125.6,180.8z"/>
<path class="st1" d="M82.7,176.5l10.7,0.2l4.2,0.1c0.2,0,0.4-0.1,0.5,0.1c0,0.2-0.3,0.2-0.5,0.2l-8.7,0.1c0-0.4-0.2-0.5-0.6-0.5
	h-5.1C83.1,176.8,82.8,176.9,82.7,176.5z"/>
<path class="st1" d="M87.3,147.9v1.1c0,0.1-0.1,0.3-0.2,0.3c-0.2-0.3,0.1-0.7-0.1-1c-0.3-0.1-0.1,0.5-0.4,0.3
	c-0.3-0.1-0.4-0.4-0.3-0.7l0,0c0.5-0.1,0.3-0.5,0.2-0.8c-0.1-0.3-0.4-0.3-0.6-0.2c-0.2,0-0.4,0-0.6,0H73c-0.3,0-0.6,0.2-0.7-0.3
	h13.7c0.4,0,0.8,0,1.2,0c0.3,0.3,0.2,0.6,0.2,1c-0.1,0-0.2,0.1-0.2,0.1C87.1,147.8,87.2,147.9,87.3,147.9z"/>
<path class="st5" d="M135,146.5h38.8c-0.1,0.3-0.4,0.2-0.6,0.2h-37.6C135.4,146.7,135.1,146.8,135,146.5z"/>
<path class="st1" d="M92.3,182.1l12.9,0.1c-0.8,0.2-1.6,0.3-2.4,0.2c-2,0-4,0.2-6,0.2c-1.4,0-2.7-0.2-4.1-0.1
	C92.4,182.5,92.3,182.4,92.3,182.1z"/>
<path class="st1" d="M71.6,177.6l-4.3,0.1h-0.6c-0.5,0-1.1,0-1.6,0.2h-3.3c0.5-0.2,1-0.3,1.6-0.2c0.4,0,0.8,0.1,1.1-0.3
	c0.2-0.2,0.3,0,0.4,0s0.5,0.4,0.8-0.1c0-0.1,0.7,0,1,0.1c1.1,0.1,2.3,0,3.5,0.1c0.3,0,0.6-0.2,1-0.3
	C71.6,177.1,71.6,177.4,71.6,177.6z"/>
<path class="st4" d="M178.4,146.8c-0.1-0.5-0.1-1-0.1-1.5c-0.2,0.4-0.3,0.7-0.4,1.1c0,0.1-0.1,0.4-0.3,0.3c-0.2,0-0.2-0.2-0.3-0.4
	c-0.1-0.4-0.2-0.7-0.4-1c-0.2,0.4,0.1,0.9-0.2,1.3h-0.2c0-0.6,0-1.3,0-1.9c0-0.1,0.1-0.1,0.3-0.1s0.2,0.1,0.3,0.2
	c0.1,0.4,0.3,0.8,0.4,1.2c0.3-0.3,0.3-0.7,0.5-1.1s0.1-0.4,0.4-0.4c0.3,0,0.2,0.3,0.2,0.4c0,0.5,0,1.1,0,1.6L178.4,146.8z"/>
<path class="st1" d="M120.8,171.7c-0.8-0.2-1.1,0.5-1.7,0.8c-0.3-0.4-0.6-0.8,0.2-1.2c0.3-0.2,0-0.6-0.2-1.1
	c0.9,0.4,1.8-0.1,2.6,0.5C121.3,171,120.6,171,120.8,171.7z"/>
<path class="st1" d="M176.7,182.3l2.9-0.1c1.2-0.1,2.3-0.8,2.8-2c0,0.2,0,0.4,0.2,0.5l0,0c-0.1,0.4-0.1,0.9-0.5,1.2
	c-0.1,0.1-0.2,0.3-0.5,0.2s-0.6,0.1-0.6,0.5s-0.2,0.4-0.4,0.2c-0.6-0.6-1.3-0.4-2-0.3s-1.1-0.1-1.6,0.1
	C176.8,182.6,176.7,182.5,176.7,182.3z"/>
<path class="st1" d="M78.2,181.1l-3.5,0c0-0.3,0.3-0.2,0.5-0.3c0.4,0,0.7-0.4,0.7-0.8c-0.7,0.3-1.4-0.1-2.1,0.1
	c-0.2,0-0.3-0.1-0.3-0.3c2,0,3.9,0,5.9,0.1c-0.4,0.3-0.9,0.4-1.3,0.2c-0.5-0.2-1-0.2-1.5,0c-0.2,0.1-0.4,0.3-0.3,0.5
	c0,0.3,0.3,0.2,0.4,0.2c0.4,0,0.8,0,1.2,0C78,180.8,78.1,180.9,78.2,181.1z"/>
<path class="st1" d="M146.4,171.8h-8.6c0-0.2-0.1-0.5,0.1-0.8c0.9,0.5,1.8,0.6,2.8,0.5c1.6,0,3.2,0,4.8,0
	C145.8,171.5,146.1,171.5,146.4,171.8z"/>
<path class="st1" d="M73.4,181.2c-2.1,0.2-4.2,0.1-6.3,0.2c-0.4,0-0.8,0-1.2,0l-0.2,0c0.6-0.4,1.3-0.5,2-0.4
	c0.5,0.1,0.9,0.4,1.4-0.2c0.1-0.1,0.5,0.1,0.7,0.1c0.9,0,1.8,0.1,2.7,0c0.3,0,0.7,0,0.8-0.4C73.4,180.7,73.5,180.9,73.4,181.2z"/>
<path class="st5" d="M90.3,146.7v-0.1h19.4c-0.1,0.3-0.4,0.2-0.5,0.2L90.3,146.7z"/>
<path class="st1" d="M156.6,183c-2.9,0.3-5.8,0.3-8.7,0H156.6z"/>
<path class="st1" d="M81.1,183.6c-2.2,0.2-4.3,0.1-6.5-0.3C76.8,182.9,78.9,183.4,81.1,183.6z"/>
<path class="st1" d="M91.7,178.5l5.5,0.1c0.1,0,0.4-0.1,0.4,0.1c0,0.2-0.2,0.2-0.4,0.2h-3.9c0-0.3-0.2-0.3-0.4-0.3
	C92.5,178.7,92.1,178.6,91.7,178.5z"/>
<path class="st5" d="M87.1,146.7c-0.4,0-0.8,0-1.2,0H72.3v-0.1h14c0.3,0,0.6,0.2,0.7-0.3C87.2,146.3,87.2,146.5,87.1,146.7z"/>
<path class="st1" d="M137.9,85.6c-0.9,1-1.9,1.9-2.9,2.7c0.1-0.9,0.9-1.3,1.4-1.9l0,0c0.4-0.1,0.6-0.4,0.9-0.6s0.1-0.5-0.3-0.5
	C137.6,84.8,137.7,85.3,137.9,85.6z"/>
<path class="st1" d="M171,181.3c0.6,0.6,1.3,0.9,2.1,0.9c0.4,0,0.8,0,1.2,0.1c-0.8,0.3-1.7,0.1-2.5,0.5c-0.2,0.1-0.6-0.2-0.6-0.3
	C171.3,182.1,170.9,181.7,171,181.3z"/>
<path class="st1" d="M69,176.2c1.1-0.1,2.2,0,3.2,0.1c0,0.2,0,0.4-0.3,0.4C71,176.9,69.9,176.7,69,176.2z"/>
<path class="st4" d="M175.5,146.9c-0.1-0.4-0.1-0.7-0.1-1.1c0-0.4,0.1-0.8-0.5-0.7c0,0-0.1-0.1-0.1-0.1c0-0.1,0-0.2,0.1-0.2
	c0,0,0,0,0,0c0.5-0.1,1.1,0,1.6,0.2c-1,0-0.8,0.7-0.8,1.2C175.7,146.4,175.7,146.7,175.5,146.9z"/>
<path class="st1" d="M87.6,151.7h0.3c-0.5,0.2-1.1,0-1.5,0.6c0-0.6-0.4-1-0.6-1.5c0-0.2-0.2-0.4,0-0.5c0.2-0.1,0.2,0.1,0.4,0.1
	c0.2,0,0.2,0,0.3,0C86.3,151.6,86.3,151.6,87.6,151.7z"/>
<path class="st1" d="M164.6,139.1c-1-0.8-1.7-1.9-2.2-3.1c0.3,0,0.5-0.1,0.5,0.4c0,0.6,0.6,0.9,1.1,1.2c0.2,0.2,0.4,0.2,0.4,0.6
	c0,0.2,0.1,0.5,0.4,0.6C165,138.9,164.6,139,164.6,139.1z"/>
<path class="st1" d="M151.5,103.8c0.7-0.8,1.5-1.5,2.4-2.2c-0.1,0.3-0.3,0.5-0.3,0.8c0,0.3-0.2,0.5-0.5,0.5c-0.2,0-0.4,0.2-0.4,0.3
	C152.4,104,151.9,103.8,151.5,103.8z"/>
<path class="st1" d="M66.4,174.3l3,0.1c0.2,0,0.5,0,0.7,0.1c-0.6,0.4-1.3,0-2,0.2c-0.7,0.1-1.4,0.1-2.1,0c-0.3,0-0.7,0.3-1.1,0.1
	c-0.4-0.2,0-0.2,0-0.3L66.4,174.3z"/>
<path class="st1" d="M123.6,182.9h1.2c0.3,0,0.4,0.1,0.4,0.4s-0.1,0.5-0.4,0.4c-0.1,0-0.3,0-0.4,0
	C123.7,183.8,123.5,183.5,123.6,182.9L123.6,182.9z"/>
<path class="st1" d="M72.4,176.4c0.1-0.2,0.4-0.1,0.6-0.1l6,0.1c0.2,0,0.4,0,0.6,0.1c-0.8,0.2-1.6,0.2-2.3,0c-0.2,0-0.5,0-0.7,0
	C75.1,176.6,73.7,176.6,72.4,176.4z"/>
<path class="st1" d="M80.4,174.7c2,0,3.9,0,5.9,0.1c-0.6,0.1-1.1,0.5-1.7,0.3C83.1,174.6,81.7,175,80.4,174.7z"/>
<path class="st1" d="M176.7,170.7h4.2v0.1h-4.2V170.7z"/>
<path class="st1" d="M166.9,140.7c-0.7-0.3-1.4-0.8-1.9-1.3c0.6,0.4,1.3,0.1,1.9,0.6C167,140.1,167.1,140.4,166.9,140.7
	C166.9,140.7,166.9,140.7,166.9,140.7z"/>
<path class="st1" d="M69,179.9c1.4-0.1,2.8,0,4.2,0.1c0,0.3-0.3,0.3-0.5,0.3c-1-0.1-2-0.2-3-0.1C69.4,180.1,69.1,180.2,69,179.9z"/>
<path class="st1" d="M149.1,75.2c-0.5,0.7-1.2,1.2-1.9,1.6c0.4-0.4,0.7-0.9,1-1.3C148.5,74.9,148.7,75,149.1,75.2z"/>
<path class="st1" d="M65.2,179.6l0.1,0.2c-1.2,0.2-2.4-0.1-3.6,0v-0.3L65.2,179.6z"/>
<path class="st1" d="M87.3,177.3c-1.1,0.1-2.1,0.1-3.2,0.1c-1,0-2,0-3,0c0.1-0.2,0.3-0.2,0.5-0.2c0.8,0,1.7,0,2.5,0
	C85.2,177.3,86.3,177.3,87.3,177.3z"/>
<path class="st1" d="M123.8,182.2h0.1c1.3-0.1,1.3-0.1,1.7-1.2c0.1,0,0.3,0.1,0.2,0.2c-0.3,0.3-0.2,0.6-0.2,1c0,0.2,0,0.4-0.2,0.5
	C124.8,182.6,124.2,182.5,123.8,182.2z"/>
<path class="st1" d="M75.5,174.6c1.2-0.1,2.3,0,3.5,0.1c-0.3,0.3-0.6,0.1-1,0.2c-0.6,0-1.3,0-1.9,0
	C75.9,174.8,75.6,174.9,75.5,174.6z"/>
<path class="st1" d="M87.8,174.8h0.3c-0.1,0.4,0.3,0.5,0.5,0.7c-0.8,0.1-1.6,0.1-2.4,0.1c0.2-0.4,0.6-0.4,1-0.4
	C87.7,175.2,87.9,175.2,87.8,174.8z"/>
<path class="st1" d="M168.3,141.3c-0.5-0.1-0.9-0.3-1.2-0.5c0.7-0.5,1.3,0.1,2.1,0C168.8,141.2,168.3,140.8,168.3,141.3z"/>
<path class="st1" d="M87.8,182.9c0,0.1-0.1,0.2-0.2,0.2c-0.6,0.1-1.3,0.1-1.9,0v-0.2L87.8,182.9L87.8,182.9z"/>
<path class="st1" d="M163.4,170.7h2v0.1h-2V170.7z"/>
<path class="st1" d="M87,149.3c0,0.4-0.2,0.7-0.5,0.9c0-0.2-0.2-0.3-0.3-0.3c-0.2,0-0.2-0.2-0.2-0.4c0-0.1,0.2-0.2,0.3-0.2
	c0,0,0.1,0,0.1,0.1C86.6,149.7,86.8,149.3,87,149.3z"/>
<path class="st1" d="M90,183.6h-2c0.6-0.2,1.3-0.3,2-0.2V183.6z"/>
<path class="st1" d="M70.1,174.5c0.7-0.1,1.5-0.1,2.2,0c0,0.2-0.1,0.3-0.3,0.3c0,0,0,0,0,0h-1.6C70.2,174.8,70.1,174.7,70.1,174.5z"
	/>
<path class="st1" d="M174.5,183h2v0.1h-2V183z"/>
<path class="st1" d="M167.8,170.7h2v0.1h-2V170.7z"/>
<path class="st1" d="M165.4,183.1h-2V183L165.4,183.1L165.4,183.1z"/>
<path class="st1" d="M98.8,183.6h-2v-0.1h2V183.6z"/>
<path class="st1" d="M78.6,177.5c-0.7,0.1-1.4,0.1-2.1,0C77.1,177.2,77.9,177.2,78.6,177.5z"/>
<path class="st1" d="M77,182.7c0.5-0.2,1.1-0.2,1.6,0C78.1,182.9,77.5,182.9,77,182.7z"/>
<path class="st1" d="M75.7,177.6c-0.6,0.1-1.2,0.1-1.8,0C74.4,177.2,75.1,177.2,75.7,177.6z"/>
<path class="st1" d="M123.2,183.5c-0.5,0.2-1,0.2-1.5,0.1C122.2,183.4,122.8,183.4,123.2,183.5z"/>
<path class="st1" d="M132.2,181.3c0,0.2-0.2,0.2-0.4,0.2c-0.1,0-0.4,0-0.4-0.3c0-0.3,0.2-0.3,0.4-0.3
	C132,180.9,132.1,181.1,132.2,181.3z"/>
<path class="st1" d="M122.5,100c-0.1,0.3-0.4,0.4-0.7,0.7c0.1-0.3,0-0.6,0.2-0.8C122.1,99.9,122.3,100,122.5,100z"/>
<path class="st3" d="M66.4,174.3l-1.6,0h-0.1c-0.2-0.1,0-0.1,0-0.1L66.4,174.3L66.4,174.3L66.4,174.3z"/>
<path class="st1" d="M86.2,147.9c-0.2-0.1-0.3,0.4-0.5,0.1c-0.1-0.3,0.3-0.5,0.3-1C86.2,147.3,86.2,147.6,86.2,147.9L86.2,147.9z"/>
<path class="st1" d="M133.2,179.6c0.2,0.3,0.7,0.1,0.7,0.5c0,0.1-0.1,0.3-0.3,0.3c0,0,0,0-0.1,0C133.1,180.3,133.2,180,133.2,179.6z
	"/>
<path class="st3" d="M65.7,181.3l0.2,0l0.1,0.1l0,0c-0.5,0.1-1-0.1-1.5-0.1c-0.2,0,0-0.1,0-0.1h0.1L65.7,181.3z"/>
<path class="st3" d="M65.1,178c0.5-0.2,1-0.2,1.6-0.2c0,0,0,0.1,0,0.1l0,0L65.1,178z"/>
<path class="st1" d="M125,170.7c0,0.1-0.1,0.2-0.2,0.2c0,0,0,0,0,0c-0.2,0-0.3-0.1-0.3-0.3c0-0.2,0.1-0.2,0.3-0.2
	C124.9,170.4,125,170.5,125,170.7z"/>
<path class="st1" d="M83.4,175.6c-0.4,0.1-0.7,0.1-1.1,0C82.7,175.2,83,175.2,83.4,175.6z"/>
<path class="st1" d="M73.2,177.6c-0.3,0.1-0.6,0.1-0.8,0c0-0.4,0.4-0.4,0.6-0.4C73.2,177.2,73.1,177.4,73.2,177.6z"/>
<path class="st1" d="M107.9,183.6c0.2-0.2,0.6-0.2,0.9-0.1C108.5,183.8,108.2,183.7,107.9,183.6z"/>
<path class="st1" d="M85.6,175.6h-1C85,175.2,85.3,175.2,85.6,175.6z"/>
<path class="st1" d="M67.8,180.5c-0.2,0.1-0.5,0.2-0.7,0c0,0,0-0.1,0.1-0.2C67.5,180.2,67.6,180.4,67.8,180.5z"/>
<path class="st1" d="M136.7,171c0-0.2,0.1-0.3,0.3-0.3s0.2,0,0.2,0.1c0,0.2-0.1,0.3-0.3,0.4C136.8,171.2,136.7,171.1,136.7,171z"/>
<path class="st1" d="M183.1,180.6c-0.3-0.2-0.2-0.4-0.1-0.6c0,0,0.1,0,0.2,0C183.3,180.1,183.2,180.3,183.1,180.6z"/>
<path class="st1" d="M169.1,183.1c0,0.1,0,0.2-0.2,0.2c-0.2,0-0.2-0.1-0.2-0.2c0-0.1,0.1-0.2,0.2-0.2
	C169,182.9,169.1,183,169.1,183.1z"/>
<path class="st4" d="M82.8,132.8c0.1,0.4-0.2,0.4-0.4,0.6C82.3,133.1,82.7,133,82.8,132.8z"/>
<path class="st1" d="M192.7,63.5c-0.1,0.1-0.2,0.2-0.3,0.1c-0.1,0-0.2-0.1-0.1-0.2c0,0,0,0,0-0.1c0-0.1,0.1-0.1,0.2,0
	C192.6,63.4,192.7,63.4,192.7,63.5z"/>
<path class="st1" d="M110.2,183.5c-0.2,0.2-0.5,0.2-0.7,0C109.7,183.4,110,183.4,110.2,183.5z"/>
<path class="st1" d="M67.7,179.8h0.7C68.2,180.3,68,180.1,67.7,179.8z"/>
<path class="st1" d="M169.7,182.3c0.1,0,0.2,0.1,0.2,0.2c0,0.1,0,0.2-0.2,0.2s-0.1-0.2-0.1-0.3S169.6,182.3,169.7,182.3z"/>
<path class="st1" d="M145.5,183.6c0,0.1-0.1,0.1-0.2,0.1c-0.1,0-0.2,0-0.2-0.1c0-0.1,0.1-0.1,0.2-0.1
	C145.4,183.4,145.5,183.5,145.5,183.6z"/>
<path class="st1" d="M183,177.6V177C183.3,177.2,183.3,177.4,183,177.6z"/>
<path class="st1" d="M56.6,63.5c0.1,0,0.2,0.1,0.2,0.2c0,0,0,0,0,0c0,0.1-0.1,0.2-0.2,0.1c-0.1,0-0.1-0.1-0.1-0.2
	C56.4,63.5,56.5,63.5,56.6,63.5z"/>
<path class="st1" d="M167.8,183.5c0-0.1,0.1-0.1,0.2-0.1c0.1,0,0.2,0,0.2,0.1c0,0.1-0.1,0.1-0.2,0.1
	C167.9,183.7,167.8,183.7,167.8,183.5z"/>
<path class="st1" d="M175.6,171.7H175C175.2,171.5,175.4,171.3,175.6,171.7z"/>
<path class="st1" d="M160,183.6c-0.1,0-0.1,0.1-0.2,0.1c0,0-0.2,0-0.1-0.1s0.1-0.1,0.2-0.1C159.9,183.5,160,183.5,160,183.6z"/>
<path class="st1" d="M80,176.5h0.6C80.3,176.8,80.1,176.8,80,176.5z"/>
<path class="st1" d="M87.8,177.3h-0.4C87.6,176.9,87.7,177.1,87.8,177.3z"/>
<path class="st1" d="M123.3,182.6c0.1,0,0.3,0.1,0.3,0.2c0,0,0,0,0,0.1l0,0C123.5,182.9,123.4,182.8,123.3,182.6
	C123.3,182.6,123.3,182.6,123.3,182.6z"/>
<path class="st1" d="M126.5,181c0,0,0,0.1,0,0.1c0,0-0.1,0-0.1,0s0-0.1,0-0.1C126.4,181,126.4,181,126.5,181z"/>
<path class="st1" d="M107.2,183.5c0,0,0.1,0,0.1,0c0,0,0,0.1,0,0.1s-0.1,0-0.1,0C107.2,183.5,107.2,183.5,107.2,183.5z"/>
<path class="st1" d="M169.9,183.5v0.1c0,0-0.1,0-0.1,0c0,0,0-0.1,0-0.1L169.9,183.5z"/>
<path class="st1" d="M119.1,171.2c0,0-0.1,0-0.1,0c0,0,0-0.1,0-0.1s0.1,0,0.1,0C119.1,171.1,119.1,171.1,119.1,171.2z"/>
<path class="st1" d="M79.3,174.7c0.1-0.1,0.3-0.1,0.4,0C79.5,174.9,79.4,174.9,79.3,174.7z"/>
<path class="st1" d="M83.3,175.2c0,0-0.1,0-0.1,0c0,0-0.1,0-0.1-0.1C83.1,175.1,83.2,175.1,83.3,175.2
	C83.2,175.1,83.3,175.2,83.3,175.2z"/>
<path class="st1" d="M72.3,146v0.4C72.2,146.3,72.2,146.2,72.3,146C72.2,146,72.3,146,72.3,146z"/>
<path class="st1" d="M182.5,180.6c0-0.1,0-0.2,0.1-0.2l0,0C182.7,180.6,182.6,180.6,182.5,180.6L182.5,180.6z"/>
<path class="st1" d="M68.2,176.5L68.2,176.5c-0.1,0-0.1,0.1-0.2,0.1c-0.1,0-0.1,0,0-0.1C68.1,176.5,68.2,176.5,68.2,176.5z"/>
<path class="st1" d="M72.9,180.5L72.9,180.5L72.9,180.5C72.8,180.5,72.8,180.5,72.9,180.5L72.9,180.5z"/>
<path class="st1" d="M136.4,86.4L136.4,86.4L136.4,86.4z"/>
<path class="st1" d="M89.9,178.5L89.9,178.5C90,178.5,90,178.5,89.9,178.5z"/>
<path class="st1" d="M132.9,171.8l-0.2,0C132.7,171.7,132.8,171.7,132.9,171.8z"/>
<path class="st5" d="M55.7,56.2c-0.5,1.7-0.2,3.4-0.3,5c0,0.6,0.2,0.8,0.8,0.7c0.3,0,0.5,0,0.8,0h136.2c0.6,0,0.8-0.2,0.8-0.8
	c0-1.7,0-3.3,0-5c0.3,0.1,0.1,0.4,0.1,0.5c0,1.6,0,3.2,0,4.8c0,0.4-0.1,0.6-0.5,0.6c-0.8,0-1.6,0-2.4,0c-45,0-90.1,0-135.1,0
	c-0.7,0-0.9-0.1-0.9-0.8c0.1-1.5,0-3.1,0-4.6C55.3,56.3,55.3,56,55.7,56.2z"/>
<path class="st4" d="M127.8,120.6c-0.1,0.3-0.3,0.8,0,1s0.5-0.2,0.8-0.4c1.5-1.1,2.7-2.6,3.5-4.3c0.7-1.4,1.7-2.8,2.8-3.9
	c0.6-0.6,1.5-0.9,2.3-0.9c1.4,0.1,2.7,0.3,4.1,0.3c1.1-0.1,2.1-0.5,2.8-1.2c0.2-0.2,0.1-0.4,0.2-0.6c-0.1,0.6,0.2,1.3-0.5,1.7
	c-0.4,0.2-0.9,0.4-1.4,0.4c-0.9,0.1-1.8,0-2.7-0.1c-1.3-0.3-2.6-0.3-3.9,0.1c-0.9,0.5-1.5,1.3-1.7,2.2c-0.9,2.1-1.6,4.3-3.5,5.8
	c-0.6,0.5-1.3,0.9-2.1,1.2c-0.7,0.3-0.8,0.6-0.3,1.2c0.2,0.3,0.5,0.6,0.8,0.8c0.7,0.6,0.9,1.6,0.6,2.4c-0.2,0.5-0.7,0.8-1.2,0.7
	l-0.7-0.1c-0.6-0.1-1-0.6-0.9-1.2c0-0.1,0.1-0.2,0.1-0.3c0.1-0.1,0.1-0.3,0.1-0.4c-0.2-0.8-0.9-1.2-1.4-1.7c-0.3-0.3-0.6-0.1-1,0
	c-0.8,0.2-1.5,0.4-2.3,0.5h-2.5c-0.4,0-0.9-0.3-1.1,0.1c-0.4,0.6-0.4,1.4,0,2c0.2,0.3,0.4,0.5,0.1,0.8c-0.7-0.7-1-1.8-0.7-2.8
	c0.1-0.4,0.1-0.9,0.1-1.4c0-0.6-0.4-1.1-1-1.3c-0.4-0.1-0.7-0.4-0.7-0.8c-0.2-0.8-0.7-1.5-1.3-2.1c-0.1-0.1-0.3-0.3-0.5-0.2
	c-0.2,0.1-0.1,0.3-0.1,0.5c0,1.1-0.2,2.2,0.4,3.3c-0.9-1.1-1.1-2.6-0.6-3.9c0.1-0.4,0.4-0.5,0.8-0.2c0.7,0.6,1.7,1,1.7,2
	c0,1,0.3,1.4,1.2,1.5c0.7,0.1,0.8,0.8,0.8,1.4c0,0.4,0.1,0.6,0.5,0.7c1.8,0.1,3.6-0.1,5.3-0.6c0.2-0.1,0.4-0.2,0.2-0.4
	c-0.2-0.2-0.3-0.5-0.4-0.7c-0.6-0.9-0.6-2,0-2.9c0.4-0.6,0.8-1.2,1.3-1.7c0,0.2,0,0.4-0.2,0.5c-1,1.4-1,3.2-0.1,4.6
	c0.5,0.7,1.1,1.4,1.7,2.1c0.5,0.7,1.2,1.4,0.9,2.5c0,0.1,0,0.2,0.1,0.3c0.1,0.1,0.2,0,0.3-0.1c0.9-0.8,1.3-1.7,0.3-2.6
	c-0.8-0.7-1.3-1.7-1.3-2.8C127.4,121.1,127.5,120.7,127.8,120.6L127.8,120.6z"/>
<path class="st4" d="M143.8,109.4c-1.4,0.1-2.7,0-3.6-1.3c-0.5-0.7-1.3-1.1-2.1-1c-0.5,0-1,0-1.4-0.1c-0.7-0.1-1.2-0.6-1.5-1.2
	c-0.5-1.4-1.7-2.5-3.2-2.8c-0.6-0.2-1.1-0.5-1.5-1c-0.2,1.6,0.5,3.1,1.9,4l-0.1,0.1c-2-0.5-2.3-2.6-2.1-4.1c0-0.4,0.2-0.4,0.5-0.2
	s0.5,0.5,0.9,0.7c0.8,0.5,1.9,0.5,2.7,0.9c0.1,0.1,0.3,0,0.3-0.2c0.5,1.3,1.3,2.5,2.2,3.5c0.1-0.4,0.1-0.8,0.1-1.2
	c0.1-1.7-0.2-3.2-1.6-4.3c0,0,0-0.1-0.1-0.2v-0.1v-0.1c0.9,0.7,1.9,1.3,2.2,2.5c0.1,0.4,0.1,0.8,0,1.2c0,0.1-0.1,0.2-0.1,0.3
	c-0.4,1.9-0.3,2.2,1.7,2.2c0.9,0,1.7,0.4,2.2,1.2c0.5,0.6,1.2,1,2,1.1C143.3,109.1,143.6,109.2,143.8,109.4z"/>
<path class="st3" d="M135.1,100.8c0,0.1,0,0.2,0.1,0.2c1.4,1.1,1.7,2.6,1.6,4.3c0,0.4,0,0.8-0.1,1.2c-0.9-1-1.7-2.2-2.2-3.5
	c0-0.5,0-1.1,0-1.6C134.5,100.9,134.6,100.7,135.1,100.8z"/>
<path class="st5" d="M132.2,106.1l0.1-0.1c1.2,0.9,1.2,1.7-0.1,2.6C132.2,107.7,132.2,106.9,132.2,106.1z"/>
<path class="st5" d="M119.7,123.8h2.5c-0.6,0.7-1.6,0.8-2.3,0.2C119.9,124,119.8,123.9,119.7,123.8z"/>
<path class="st5" d="M104.2,107.5c-0.6,0.5-1.3,0.9-2,1.1c0.2-0.6,0.4-1.2,1.3-0.9c0.1-0.2-0.3-0.4-0.1-0.7
	C103.7,107.2,103.9,107.5,104.2,107.5z"/>
<path class="st5" d="M89.8,142.5c0.1-0.6,0.5-1.2,1.1-1.5C91,141.8,90.8,142.1,89.8,142.5z"/>
<path class="st5" d="M111.2,104.8c0.6-0.2,1.2-0.2,1.7,0C112.4,105,111.8,105,111.2,104.8z"/>
<path class="st4" d="M131.8,108.9C131.8,108.9,131.7,108.9,131.8,108.9L131.8,108.9z"/>
<path class="st4" d="M138.7,109.4c-0.4-0.4-0.9-0.8-1.5-1c0.4-0.1,0.9-0.4,1.3-0.1C139,108.5,138.7,108.9,138.7,109.4z"/>
<path class="st4" d="M117.1,124.2c-0.1-0.3-0.7-0.3-0.5-0.8c0.1-0.2,0.4-0.2,0.6-0.1C117.6,123.5,117.2,123.9,117.1,124.2z"/>
<path class="st4" d="M127.8,120.5c0-0.1,0.1-0.2,0.2-0.3c0,0,0.1,0,0.1,0C128,120.2,128,120.5,127.8,120.5L127.8,120.5z"/>
<path class="st1" d="M86.5,158.3c0.3,1.4,0.6,2.7,0.9,3.9c0.1,0.3-0.1,0.3-0.3,0.3c-1.7,0.1-1.7,0.1-1.3-1.5
	C86,160.2,86.2,159.4,86.5,158.3z"/>
<path class="st0" d="M78.2,181.1c0-0.2-0.1-0.3-0.4-0.2c-0.4,0-0.8,0.1-1.2,0c-0.2,0-0.4,0.1-0.4-0.2c0-0.2,0.1-0.5,0.3-0.5
	c0.5-0.2,1-0.2,1.5,0c0.4,0.2,1,0.1,1.3-0.2l3.7,0.1c0.6,0.3,1.3,0.4,1.9,0.2c0.7,0.1,1.5,0.1,2.2-0.1h0.4c0.3,0.3,0.6,0.1,0.9,0.1
	c0.3,0,0.5,0.2,0.5,0.5L87,181c0-0.1-0.1-0.2-0.1-0.2c0,0-0.1,0.1-0.2,0.2h-1.1c-0.3-0.2-0.7-0.2-1-0.1c-0.2,0.1-0.5,0.1-0.7,0
	c-0.4-0.3-0.9-0.2-1.4-0.1c-0.7,0-1.4,0.1-2.1,0.2c-0.7,0.1-1.4-0.1-2,0.2L78.2,181.1z M78.9,180.7c0,0-0.1,0-0.1,0c0,0-0.1,0-0.1,0
	c0,0,0.1,0,0.1,0C78.8,180.8,78.8,180.7,78.9,180.7L78.9,180.7z"/>
<path class="st1" d="M89.8,174.9l8.3,0.1c0.1,0,0.4-0.1,0.4,0.2c0,0.3-0.3,0.2-0.4,0.2l-7.3,0.1h-1.2
	C89.4,175.2,90.1,175.3,89.8,174.9z"/>
<path class="st1" d="M89,180.9c0-0.4-0.1-0.5-0.5-0.5c-0.4,0-0.6,0.1-0.9-0.1l6.2,0.1c1,0,2.1,0,3.1,0.1c0.1,0,0.4-0.1,0.4,0.1
	c0,0.2-0.2,0.2-0.4,0.2L89,180.9z"/>
<path class="st1" d="M78.4,181.1c0.6-0.4,1.3-0.1,2-0.2c0.7-0.1,1.4-0.2,2.1-0.2c0.5,0,0.9-0.2,1.4,0.1c0.2,0.1,0.5,0.1,0.7,0
	c0.3-0.2,0.7-0.1,1,0.1c-0.7,0.1-1.5,0.2-2.2,0.1C81.8,181.1,80.1,181.1,78.4,181.1z"/>
<path class="st1" d="M87.2,180.2c-0.7,0.2-1.5,0.2-2.2,0.1c-0.7,0.1-1.3,0-1.9-0.2C84.4,180.1,85.8,180.1,87.2,180.2z"/>
<path class="st0" d="M89.8,174.9c0.3,0.4-0.4,0.4-0.3,0.7c-0.3,0.1-0.6,0.1-0.8,0c-0.2-0.2-0.6-0.2-0.5-0.7L89.8,174.9z"/>
<path class="st1" d="M86.7,181c0-0.1,0-0.2,0.2-0.2c0.2,0,0.1,0.1,0.1,0.2H86.7z"/>
<path class="st0" d="M99.6,160.6L99.6,160.6L99.6,160.6L99.6,160.6z"/>
<path class="st1" d="M180.5,160.6c0,1.7-1,2.8-2.5,2.7c-1.3-0.1-2.2-1.3-2.1-2.9s1.1-2.6,2.4-2.6C179.6,157.9,180.4,159,180.5,160.6
	z"/>
<path class="st1" d="M159.5,160.4c0-1,0.5-1.8,1.3-2.3c1.1-0.6,2.4-0.2,2.9,0.9c0,0,0,0.1,0.1,0.1c0.4,0.9,0.5,1.9,0.1,2.7
	c-0.3,0.9-1.2,1.6-2.2,1.5c-0.9,0-1.7-0.7-2-1.6C159.6,161.3,159.5,160.9,159.5,160.4z"/>
<path class="st1" d="M146.1,158.4c0-0.3,0-0.5,0-0.8c-0.1-0.5,0.1-0.7,0.6-0.7c0.5,0,1.2,0.1,1.5,0.8c0.2,0.5,0.2,1.1-0.1,1.6
	c-0.4,0.6-1.1,0.5-1.7,0.5c-0.2,0-0.2-0.1-0.2-0.3C146.1,159.2,146.1,158.8,146.1,158.4z"/>
<path class="st1" d="M132.9,158c0.3,1.4,0.6,2.8,1,4.2c0.1,0.3,0,0.3-0.3,0.4c-1.7,0.1-1.7,0.1-1.3-1.5
	C132.5,160.1,132.7,159,132.9,158z"/>
<path class="st1" d="M141.5,176.9c-0.8,0-1.5,0-2.3,0c-0.3,0-0.5,0-0.4-0.4c0.4-2,0.4-2,2.5-2c1,0,2,0,3,0c0.6,0,0.8,0.3,0.7,0.9
	c-0.2,1.3-0.5,1.6-1.8,1.6L141.5,176.9L141.5,176.9z"/>
<path class="st1" d="M146.6,178.5c-0.2-0.1-0.5-0.2-0.6-0.4l0.9-0.4c0,0,0,0.1,0.1,0.1C147.1,178.1,146.5,178.1,146.6,178.5
	L146.6,178.5z"/>
<path class="st0" d="M148.7,175.6c-0.2,0.5-0.5,0.5-0.9,0.2c0,0,0-0.1,0-0.1c0.2,0,0.3-0.2,0.4-0.3
	C148.4,175.4,148.6,175.3,148.7,175.6z"/>
<path class="st1" d="M147,177.5l0.2-0.2l0,0L147,177.5L147,177.5z"/>
<path class="st1" d="M146.8,177.6l0.1-0.1l0.1,0.1l-0.1,0.1C146.9,177.7,146.9,177.7,146.8,177.6z"/>
<path class="st0" d="M146.7,178.6l0.1,0.2L146.7,178.6z"/>
<path class="st0" d="M178,175.6c-0.1-0.1-0.3-0.1-0.4-0.1c-0.9,0-0.9,0-0.9-1c0-0.3,0.2-0.3,0.4-0.3h1.4c0.1,0,0.3,0,0.3,0.1
	c0.2,0.6,0.5,0.6,0.9,0.3c0.2-0.1,0.2,0,0.3,0.1c0.1,0.1,0,0.2-0.2,0.3c-0.4,0.1-0.7,0.2-0.9,0.5h-0.3c0-0.1-0.1-0.1-0.1,0
	L178,175.6z"/>
<path class="st1" d="M178.4,175.6c0-0.1,0.1-0.1,0.1,0H178.4z"/>
<path class="st1" d="M129.7,174.4c0.7,0,1.3,0,2,0c0.7,0,0.8,0.3,0.7,0.9c-0.3,1.5-0.5,1.6-2,1.7c-1.1,0-2.2,0-3.2,0
	c-0.5,0-0.7-0.1-0.5-0.6c0.2-0.5,0.2-1.5,0.6-1.9s1.3-0.1,1.9-0.1L129.7,174.4L129.7,174.4z"/>
<path class="st0" d="M87.3,147.9c-0.1,0-0.2,0-0.2-0.2s0.1-0.1,0.2-0.1V147.9z"/>
<path class="st0" d="M121,178.7c0,0.7,0,0.7-1,0.1c0.5,0,0.6-0.4,0.9-0.7c0.3-0.2,0.2-0.6,0.1-1c-0.3,0-0.3,1-0.7,0.1c0-0.1,0,0,0,0
	s0.1,0,0.1,0l0.1-0.1c0,0-0.1,0-0.2,0.1c-0.6,0.3-0.1,0.6-0.1,1c-0.6-0.2-1-0.6-1.2-1.2c-0.1-0.2,0-0.5,0.3-0.4s0.4-0.2,0.6-0.3
	c0.4-0.4,1.2-0.5,1.2-1.3c0.6,0,0.8-0.5,1.1-0.8c0.3-0.3,0.7-0.1,1.1,0.1c0,0,0,0,0,0.1c-0.4,0.8,0.6,1.6,0,2.4
	c-0.3,0.4-0.3,1.1-0.9,1.3c-0.3,0.1-0.7,0.1-1-0.1C121.2,178.2,121.5,178.6,121,178.7C120.9,178.7,121,178.7,121,178.7
	c0,0,0-0.1,0-0.1l-0.1-0.1C120.8,178.5,120.9,178.6,121,178.7z M120.9,176v0.1c0,0,0.1,0,0.1,0c0,0,0-0.1,0-0.1H120.9z M122,177.1
	c0,0,0,0.1,0,0.1c0,0,0.1,0,0.1,0c0,0,0-0.1,0-0.1S122.1,177.1,122,177.1L122,177.1z"/>
<path class="st0" d="M115,179.8c0-0.2-0.1-0.4,0.2-0.5C115.3,179.6,115.3,179.7,115,179.8z"/>
<path class="st0" d="M146.9,177.7l0.1-0.1l0.2-0.3c0.2,0,0.5,0,0.6-0.4c0.1-0.3,0.3-0.5,0.5-0.6c-0.5,0.8-0.2,1.7-0.6,2.6
	c-0.4-0.2-0.6-0.6-1-0.5C146.5,178.1,147.1,178.1,146.9,177.7z"/>
<path class="st0" d="M147.9,179.3L147.9,179.3L147.9,179.3z"/>
<path class="st1" d="M78.9,180.7c0,0-0.1,0-0.1,0c0,0-0.1,0-0.1,0c0,0,0.1,0,0.1,0S78.8,180.7,78.9,180.7z"/>
<path class="st1" d="M120.9,176h0.1c0,0,0,0.1,0,0.1c0,0-0.1,0-0.1,0L120.9,176z"/>
<path class="st1" d="M120.9,178.6v-0.1l0.1,0.1c0,0,0.1,0.1,0,0.1C121,178.7,120.9,178.6,120.9,178.6z"/>
<path class="st1" d="M122.1,177.1c0,0,0.1,0,0.1,0c0,0,0,0.1,0,0.1s-0.1,0-0.1,0C122,177.2,122,177.1,122.1,177.1z"/>
<path class="st1" d="M120.4,177.1l0.1,0l-0.1,0.1c0,0-0.1,0.1-0.1,0C120.3,177.2,120.3,177.2,120.4,177.1z"/>
</svg>
