<?xml version="1.0" encoding="utf-8"?>
<!-- Generator: Adobe Illustrator 21.1.0, SVG Export Plug-In . SVG Version: 6.00 Build 0)  -->
<svg version="1.1" id="Layer_1" xmlns="http://www.w3.org/2000/svg" xmlns:xlink="http://www.w3.org/1999/xlink" x="0px" y="0px"
	 viewBox="0 0 250 250" style="enable-background:new 0 0 250 250;" xml:space="preserve">
<style type="text/css">
	.st0{fill:#E23940;}
	.st1{fill:#0B74BA;}
	.st2{fill:#FFFFFF;}
	.st3{fill:#097AB0;}
</style>
<title>Grocery</title>
<ellipse cx="125.5" cy="123" rx="119.2" ry="48"/>
<ellipse class="st0" cx="123.9" cy="121.2" rx="119.2" ry="48"/>
<path d="M134.4,116.3c-0.7,2.1-1.3,4.3-2,6.4c-0.2,0.7-0.7,0.8-1.4,0.4c-2-1.2-4.3-0.6-6.4-0.7c-0.8,0-1.3,0.5-1.5,1.2
	c-1.3,3.6-2.5,7.2-3.4,11c0,0.2,0,0.3-0.1,0.5c-0.2,0.9,0.8,2,0,2.7c-0.8,0.7-2,0.3-3,0.3c-2.6-0.1-5.2,0.1-7.7,0.4
	c-0.1-0.4-0.3-0.7-0.2-0.7c2.4-2.3,2.7-5.6,3.6-8.5c2.4-7.4,4.5-14.8,6.8-22.3c0.3-1,0.4-2.1,0.3-3.1c-0.2-1.6-0.1-1.7,1.4-1.7
	l19.9-0.1c0.5,0,1,0,1.6,0c0.9,0.1,1.4,0.5,1.1,1.6c-0.4,1.5-0.8,3-1.1,4.6c-0.2,1-0.6,1.1-1.5,0.7c-3.5-1.1-7.2-1.6-10.8-1.3
	c-2.2,0-2.4,0.2-3,2.1c-0.6,2-1.1,3.9-1.6,5.8c-0.3,1.2,0.2,1.7,1.3,1.6c2.5-0.2,5.1,0.1,7.4-1.3L134.4,116.3z"/>
<path d="M57.5,102.8c1.2-1.2,2.7-0.6,4-0.9c2.4,0.9,5,0,7.5,0.6c0.2,0.2,0.1,0.5-0.1,0.7c0,0,0,0,0,0c-5.8,3.7-10.4,8.7-15.5,13.1
	c-1,0.6-1.3,1.9-0.9,2.9c1.7,5.5,3.4,11,4.9,16.5c0.8,3.9,3.3,7.2,6.8,9.2c0.2,0.1,0.5,0.2,0.7,0.4c0.3,0.2,0.6,0.4,0.5,0.8
	c-0.1,0.4-0.4,0.5-0.8,0.6l-0.5,0.1c-2.5,0.5-5.1,0.2-7.5-0.7c-2.9-1.1-5.3-3.2-6.6-6c-0.8-1.7-1.4-3.4-1.9-5.1
	c-0.8-3.1-1.5-6.3-2.3-9.3c-0.3-1-0.7-2-1-3c-1.2-2.9-0.1-6.2,2.5-7.9c0.1-0.1,0.1-0.3,0.2-0.5c3.7-2.2,6.5-5.5,9.5-8.4
	C57.8,105,58.5,103.9,57.5,102.8z"/>
<path d="M109.5,114.5c-5.1,6-8.9,12.1-13.2,18c-1.7,2.4-3.4,4.8-5.1,7.3c-2.8,4.4-7.7,6.9-12.9,6.4c-2.3-0.1-2.5-0.4-1.7-2.5
	c0.2-0.6,0.5-1.1,0.7-1.7c0.3-0.6,0.7-0.8,1.5-0.5c3.2,1.1,6.8-0.3,8.3-3.3c0.4-0.7,0.5-1.5,0.3-2.3c-1-6.7-1.6-13.3-3.1-19.8
	c-0.2-0.9-0.1-1.4,0.8-1.5c2.7,0,5.2,0,7.8,0c0.8,0,1,0.5,0.7,1.3c-1.3,3.3,0.3,6.5,0.5,9.7c0,0.9,1,0.8,1.3,0.2
	c1.6-2.9,3.8-5.3,5.5-8.2c0.2-0.3,0.3-0.6,0.4-1c-0.2-1.9,0.9-2.1,2.4-2C105.5,114.6,107.3,114.5,109.5,114.5z"/>
<path d="M144.2,136.9c-6,0.1-11.1-3.9-9.4-10.7c1.5-5.8,5.3-9.3,10.8-11.4c2.3-0.9,4.8-1,7.1-0.4c4.3,1,6.9,5.3,5.9,9.6
	c-0.8,3.9-3,7.3-6.2,9.6C150.1,135.6,147.2,136.7,144.2,136.9z M151.6,121.7c0.1-1.5,0-2.4-1-3c-0.9-0.6-2.1-0.6-3,0
	c-0.8,0.5-1.5,1.2-2,2c-1.5,2.9-2.4,6-2.7,9.2c-0.3,2.2,1.5,3.3,3.6,2.5c0.8-0.3,1.5-0.9,1.9-1.7
	C150.5,127.9,150.9,124.5,151.6,121.7L151.6,121.7z"/>
<path d="M167.8,136.9c-3.1-0.1-5.8-1.9-7.1-4.7c-0.4-0.9-0.6-1.8-0.6-2.8c-0.1-6.5,4.3-12.3,10.9-14.6c3-1.2,6.4-1,9.3,0.5
	c2.9,1.5,4.3,5.8,3.7,8.8C182.3,131.7,175.5,137.1,167.8,136.9z M176.2,122.6c0.1-2.7-0.3-3.9-1.3-4.2c-1.3-0.3-2.7,0.1-3.5,1.2
	c-0.4,0.4-0.8,0.9-1.1,1.5c-1.5,2.8-2.3,5.8-2.5,9c-0.2,2.3,1.4,3.3,3.6,2.4c0.8-0.3,1.5-0.9,2-1.6
	C174.8,128.3,175.8,125.5,176.2,122.6L176.2,122.6z"/>
<path d="M36.4,112c0.8-1.8,1.4-3.6,1.9-5.5c0.3-0.8,0.3-1.7,0-2.5c-0.2-1.1,0-1.8,1.4-1.8c1.4,0,2.6-0.1,3.9-0.2
	c1.7,0.6,3.4,0,5.6,0.6c-1.8,2.6-3,5.5-3.7,8.6c-1.8,6.1-3.6,12.3-5.5,18.4c-0.3,1-0.7,2-1,3c-0.5,1.5-1.1,2.9-0.5,4.5
	c0.4,1-0.1,1.4-1.2,1.4c-2.9,0-5.9,0-8.9,0c-1,0-1.2-0.6-0.5-1.3c1.2-1.1,1.9-2.6,2.2-4.2c0.2-0.4,0.4-0.8,0.5-1.2
	c1.3-4.4,2.9-8.7,4-13.2C35.2,116.4,36.5,114.3,36.4,112z"/>
<path d="M74.4,126.5H70c-1.2,0-2.3,0-2.6,1.5c-0.4,1.7,0.4,3.4,1.9,4.2c2.1,0.7,4.4,0.5,6.4-0.4c1-0.4,2.3-1.7,3-0.9
	c0.9,1-1.1,1.9-1.1,3.1c0,0.7-0.7,1.2-1.3,1.5c-3.6,1.7-7.7,2-11.5,0.8c-3.6-1.2-5.1-3.4-5.1-7.3c0.2-7.7,6.1-14.1,13.8-14.9
	c1.6-0.1,3.1,0.1,4.6,0.7c1.8,0.6,3.1,2.1,3.5,3.9c0.3,1,0.4,2,0.5,3.1c0,4.3-0.4,4.8-4.7,4.8L74.4,126.5L74.4,126.5z M71.1,122.5
	L71.1,122.5c0.3,0,0.7,0,1,0c0.9,0.2,1.8-0.3,2-1.1c0.4-1.1,0.2-2.3-0.7-3.1c-0.8-0.5-1.9-0.4-2.7,0.1c-0.8,0.6-1.5,1.4-1.9,2.4
	c-0.5,1.1-0.3,1.6,0.9,1.7C70.2,122.6,70.7,122.5,71.1,122.5L71.1,122.5z"/>
<path class="st1" d="M57.2,101.9c-1.3,0.3-2.7,0.7-4,1"/>
<path class="st1" d="M48.9,101.7c-2.1-0.6-3.9,0-5.6-0.6c0.5-0.6,1.2-1,2-1.2c7.2-2.3,14.6-4.2,22-5.7c8.8-1.7,17.7-2.8,26.7-3.4
	c11.3-0.8,22.6-0.9,34-0.3c11.6,0.5,23.1,1.9,34.4,4.2c8.6,1.6,16.9,4.1,25,7.4c0.9,0.4,1.8,0.9,2.7,1.3c-0.2,0.6-0.4,0.6-0.7,0.5
	c-10.7-3.7-21.7-6.3-33-7.8c-17.5-2.3-35.1-3-52.7-2c-8.4,0.5-16.7,1.3-24.9,2.7c-5.1,0.8-10.1,2-15.1,3"/>
<path class="st1" d="M81.8,157.7c-0.3-1.1-1.7-1-2.7-1.1c-13.2-1.4-26.2-4.6-38.7-9.3c-5.8-2.1-11.2-5.2-16-9.1
	c-1.9-1.6-3.6-3.5-5.1-5.6c-3.6-5.1-3.5-11,0.2-16.3c1.1-1.6,2.3-3,3.8-4.3c4.3-3.8,9.3-6.8,14.7-8.8c0.3,0.8,0.3,1.7,0,2.5
	c-0.5,1.9-1.1,3.7-1.9,5.5c-3.6,2.1-6.5,5.3-8.3,9.1c-1.7,4-0.9,8.6,2,11.8c-0.2,1.6-1,3.2-2.2,4.3c-0.7,0.7-0.5,1.3,0.5,1.3
	c2.9,0,5.9,0,8.9,0"/>
<path d="M173.4,89.9c-9.4-2.2-18.9-3.6-28.5-4.3c0,0-24.8-3.9-69.9,2c-6.2,1.3-12.4,2.2-18.6,3.9c-6.3,1.6-12.4,3.6-18.4,6l0,0
	c0.7-1.6,2.2-1.9,3.5-2.4c4.4-1.6,8.7-3.3,13.2-4.6c5-1.5,10-2.9,15.1-4c11.1-2.3,22.3-3.9,33.6-4.6c12.1-0.8,24.2-0.9,36.3-0.3
	c13.4,0.6,26.7,2.3,39.8,5.2c10.3,2.1,20.4,5.4,30,9.7c7.1,3.3,13.9,7.1,18.9,13.3c3.9,4.8,6.2,10.3,4.6,16.7
	c-0.8,3.1-2.3,5.9-4.3,8.3c-3.2,3.7-6.9,6.9-11.2,9.3c-8.5,4.9-17.5,8.6-26.9,11.2l-2.5,0.7l-1.3,0.4l-0.7,0.2l-1.3,0.4
	c-4.1,0.9-8.3,1.7-12.4,2.5c-0.8,0.1-1.8,0.9-2.5-0.4l2.2-3.5c7.4-1.6,14.7-3.6,21.9-6.1c7-2.7,13.9-5.5,20-10.1
	c3.8-2.6,6.9-6.1,9.1-10.3c1.8-3.5,2-7.7,0.7-11.4c-1.3-3.9-3.8-7.3-7.2-9.7c-0.2-0.1-0.3-0.4-0.4-0.7c-1.9-1.6-2.2-1.5-3,0.7
	c-0.1,0.4-0.2,0.8-0.3,1.3c-1.3,4.5-2.7,9-3.8,13.6c-0.9,3.6-2.7,7-2.5,10.9c0,0.9-0.7,0.9-1.3,0.9c-2.4-0.2-4.9,0.5-7.2-0.6
	c-0.4-0.2-0.9-0.1-1.3,0.1c-2.7,1.3-5.9,1.2-8.5-0.2c-1.7-1-2.7-2.8-2.8-4.8c-0.5-6.4,2.9-12.5,8.6-15.5c2.5-1.5,5.5-1.8,8.3-0.9
	c1.3,0.5,1.9,0,2.2-1.2c0.5-1.5,0.8-3,0.8-4.6c-0.1-1.1,0.4-1.3,1.3-1.3c2.1,0,4.1,0,6.5,0c-0.9-1.5-2.4-2.6-4-3.2
	c-3.4-1.9-6.8-3.6-10.4-5.1c-4.2-1.7-8.4-3.1-12.8-4.2 M195.3,130.4c2.4,0,3.6-1.7,4.3-3.5c0.7-1.9,1.3-3.8,1.7-5.7
	c0.2-0.7,0.5-1.3,0-2c0.5-1.2-0.1-1.8-1.1-2.2c-1.2-0.4-2.5-0.1-3.3,0.9c-2.8,2.9-3.7,6.6-3.8,10.5c-0.1,1,0.7,1.9,1.7,2
	C195,130.4,195.2,130.4,195.3,130.4L195.3,130.4z"/>
<path class="st2" d="M173.4,88.9c-9.4-2.2-18.9-3.6-28.5-4.3c0,0-24.8-3.9-69.9,2c-6.2,1.3-12.4,2.2-18.6,3.9
	c-6.3,1.6-12.4,3.6-18.4,6l0,0c0.7-1.6,2.2-1.9,3.5-2.4c4.4-1.6,8.7-3.3,13.2-4.6c5-1.5,10-2.9,15.1-4c11.1-2.3,22.3-3.9,33.6-4.6
	c12.1-0.8,24.2-0.9,36.3-0.3c13.4,0.6,26.7,2.3,39.8,5.1c10.3,2.1,20.4,5.4,30,9.7c7.1,3.3,13.9,7.1,18.9,13.3
	c3.9,4.8,6.2,10.3,4.6,16.7c-0.8,3.1-2.3,5.9-4.3,8.3c-3.2,3.7-6.9,6.9-11.2,9.3c-8.5,4.9-17.5,8.6-26.9,11.2l-2.5,0.7l-1.3,0.4
	l-0.7,0.2l-1.3,0.4c-4.1,0.9-8.3,1.7-12.4,2.5c-0.8,0.1-1.8,0.9-2.5-0.4l2.2-3.5c7.4-1.6,14.7-3.6,21.9-6.1c7-2.7,13.9-5.5,20-10.1
	c3.8-2.6,6.9-6.1,9.1-10.3c1.8-3.5,2-7.7,0.7-11.4c-1.3-3.9-3.8-7.3-7.2-9.7c-0.2-0.1-0.3-0.4-0.4-0.7c-1.9-1.6-2.2-1.5-3,0.7
	c-0.1,0.4-0.2,0.8-0.3,1.3c-1.3,4.5-2.7,9-3.8,13.6c-0.9,3.6-2.7,7-2.5,10.9c0,0.9-0.7,0.9-1.3,0.9c-2.4-0.2-4.9,0.5-7.2-0.6
	c-0.4-0.2-0.9-0.1-1.3,0.1c-2.7,1.3-5.9,1.2-8.5-0.2c-1.7-1-2.7-2.8-2.8-4.8c-0.5-6.4,2.9-12.5,8.6-15.5c2.5-1.5,5.5-1.8,8.3-0.9
	c1.3,0.5,1.9,0,2.2-1.2c0.5-1.5,0.8-3,0.8-4.6c-0.1-1.1,0.4-1.3,1.3-1.3c2.1,0,4.1,0,6.5,0c-0.9-1.5-2.4-2.6-4-3.2
	c-3.4-1.9-6.8-3.6-10.4-5.1c-4.2-1.7-8.4-3.1-12.8-4.2 M195.3,129.4c2.4,0,3.6-1.7,4.3-3.5c0.7-1.9,1.3-3.8,1.7-5.7
	c0.2-0.7,0.5-1.3,0-2c0.5-1.2-0.1-1.8-1.1-2.2c-1.2-0.4-2.5-0.1-3.3,0.9c-2.8,2.9-3.7,6.6-3.8,10.5c-0.1,1,0.7,1.9,1.7,2
	C195,129.3,195.2,129.3,195.3,129.4L195.3,129.4z"/>
<path class="st1" d="M71.4,98.2c0,0-20.3,3-37.9,14.4l0.6-5.4l16.7-8.4L72,96L71.4,98.2z"/>
<path class="st2" d="M133.7,114.5c-0.7,2.1-1.3,4.3-2,6.4c-0.2,0.7-0.7,0.8-1.4,0.4c-2-1.2-4.3-0.6-6.4-0.7c-0.8,0-1.3,0.5-1.5,1.2
	c-1.3,3.6-2.5,7.2-3.4,11c0,0.2,0,0.3-0.1,0.5c-0.2,0.9,0.8,2,0,2.7s-2,0.3-3,0.3c-2.6-0.1-5.2,0.1-7.7,0.4
	c-0.1-0.4-0.3-0.7-0.2-0.7c2.4-2.3,2.7-5.6,3.6-8.5c2.4-7.4,4.5-14.8,6.8-22.3c0.3-1,0.4-2.1,0.3-3.1c-0.2-1.6-0.1-1.7,1.4-1.7
	l19.9-0.1c0.5,0,1,0,1.6,0c0.9,0.1,1.4,0.5,1.1,1.6c-0.4,1.5-0.8,3-1.1,4.6c-0.2,1-0.6,1.1-1.5,0.7c-3.5-1.1-7.2-1.6-10.8-1.3
	c-2.2,0-2.4,0.2-3,2.1c-0.6,2-1.1,3.9-1.6,5.8c-0.3,1.2,0.2,1.7,1.3,1.6c2.5-0.2,5.1,0.1,7.4-1.3L133.7,114.5z"/>
<path class="st2" d="M56.8,100.9c1.2-1.2,2.7-0.6,4-0.9c2.4,0.9,5,0,7.5,0.6c0.2,0.2,0.1,0.5-0.1,0.7c0,0,0,0,0,0
	c-5.8,3.7-10.4,8.7-15.5,13.1c-1,0.6-1.3,1.9-0.9,2.9c1.7,5.5,3.4,11,4.9,16.5c0.8,3.9,3.3,7.2,6.7,9.2c0.2,0.1,0.5,0.2,0.7,0.4
	c0.3,0.2,0.6,0.4,0.5,0.8c-0.1,0.4-0.4,0.5-0.8,0.6l-0.5,0.1c-2.5,0.5-5.1,0.2-7.5-0.7c-2.8-1.1-5.2-3.2-6.5-5.9
	c-0.8-1.7-1.4-3.4-1.9-5.1c-0.8-3.1-1.5-6.3-2.3-9.3c-0.3-1-0.7-2-1-3c-1.2-2.9-0.1-6.2,2.5-7.9c0.1-0.1,0.1-0.3,0.2-0.5
	c3.7-2.2,6.5-5.5,9.5-8.4C57.1,103.2,57.8,102.1,56.8,100.9z"/>
<path class="st2" d="M108.8,112.7c-5.1,6-8.9,12.1-13.2,18c-1.7,2.4-3.4,4.8-5.1,7.3c-2.8,4.4-7.7,6.9-12.9,6.4
	c-2.3-0.1-2.5-0.4-1.7-2.5c0.2-0.6,0.5-1.1,0.7-1.7c0.3-0.6,0.7-0.8,1.5-0.5c3.2,1.1,6.8-0.3,8.3-3.3c0.4-0.7,0.5-1.5,0.3-2.3
	c-1-6.7-1.6-13.3-3.1-19.8c-0.2-0.9-0.1-1.4,0.8-1.5c2.7,0,5.2,0,7.8,0c0.8,0,1,0.5,0.7,1.3c-1.3,3.3,0.3,6.5,0.5,9.7
	c0,0.9,1,0.8,1.3,0.2c1.6-2.9,3.8-5.3,5.5-8.2c0.2-0.3,0.3-0.6,0.4-1c-0.2-1.9,0.9-2.1,2.4-2C104.8,112.8,106.6,112.7,108.8,112.7z"
	/>
<path class="st2" d="M143.5,135.1c-6,0.1-11.1-3.9-9.4-10.7c1.5-5.8,5.3-9.3,10.8-11.4c2.3-0.9,4.8-1,7.1-0.4c4.3,1,6.9,5.3,5.9,9.6
	c-0.7,3.9-2.9,7.4-6.1,9.7C149.4,133.8,146.5,134.9,143.5,135.1z M150.9,119.9c0.1-1.5,0-2.4-1-3c-0.9-0.6-2.1-0.6-3,0
	c-0.8,0.5-1.5,1.2-2,2c-1.5,2.9-2.4,6-2.7,9.2c-0.3,2.2,1.5,3.3,3.6,2.5c0.8-0.3,1.5-0.9,1.9-1.7
	C149.8,126.1,150.2,122.7,150.9,119.9L150.9,119.9z"/>
<path class="st2" d="M167.1,135.1c-3.1-0.1-5.8-1.9-7.1-4.7c-0.4-0.9-0.6-1.8-0.6-2.8c-0.1-6.5,4.3-12.3,10.9-14.6
	c3-1.2,6.4-1,9.3,0.5c2.9,1.5,4.3,5.8,3.7,8.8C181.6,129.9,174.8,135.3,167.1,135.1z M175.5,120.8c0.1-2.7-0.3-3.9-1.3-4.2
	c-1.3-0.3-2.7,0.1-3.5,1.2c-0.4,0.4-0.8,0.9-1.1,1.5c-1.5,2.8-2.3,5.8-2.5,9c-0.2,2.3,1.4,3.3,3.6,2.4c0.8-0.3,1.5-0.9,2-1.6
	C174.1,126.5,175.1,123.7,175.5,120.8L175.5,120.8z"/>
<path class="st2" d="M35.7,110.2c0.8-1.8,1.4-3.6,1.9-5.5c0.3-0.8,0.3-1.7,0-2.5c-0.2-1.1,0-1.8,1.4-1.8c1.4,0,2.6-0.1,3.9-0.2
	c1.7,0.6,3.4,0,5.6,0.6c-1.8,2.6-3,5.5-3.7,8.6c-1.8,6.1-3.6,12.3-5.5,18.4c-0.3,1-0.7,2-1,3c-0.5,1.5-1.1,2.9-0.5,4.5
	c0.4,1-0.1,1.4-1.2,1.4c-2.9,0-5.9,0-8.9,0c-1,0-1.2-0.6-0.5-1.3c1.2-1.2,1.9-2.7,2.2-4.3c0.2-0.4,0.4-0.8,0.5-1.2
	c1.3-4.4,2.9-8.7,4-13.2C34.6,114.5,35.8,112.5,35.7,110.2z"/>
<path class="st2" d="M73.8,124.7h-4.4c-1.2,0-2.3,0-2.6,1.5c-0.4,1.7,0.4,3.4,1.9,4.2c2.1,0.7,4.4,0.5,6.4-0.4c1-0.4,2.3-1.7,3-0.9
	c0.9,1-1.1,1.9-1.1,3.1c0,0.7-0.7,1.2-1.3,1.5c-3.6,1.7-7.7,2-11.5,0.8c-3.6-1.2-5.1-3.4-5.1-7.3c0.2-7.7,6.1-14.1,13.8-14.9
	c1.6-0.1,3.1,0.1,4.6,0.7c1.8,0.6,3.1,2.1,3.5,3.9c0.3,1,0.4,2,0.5,3.1c0,4.3-0.4,4.8-4.7,4.8L73.8,124.7L73.8,124.7z M70.4,120.7
	L70.4,120.7c0.3,0,0.7,0,1,0c0.9,0.2,1.8-0.3,2-1.1c0.4-1.1,0.2-2.3-0.7-3.1c-0.8-0.5-1.9-0.4-2.7,0.1c-0.8,0.6-1.5,1.4-1.9,2.4
	c-0.5,1.1-0.3,1.6,0.9,1.7C69.5,120.8,70,120.7,70.4,120.7L70.4,120.7z"/>
<path class="st1" d="M53.5,145.2c0,0,20.7,7.2,35.9,9.2l-8.1,2.7c0,0-1.7,0.2-7.4-1.7L53,145.2L53.5,145.2z"/>
<path class="st3" d="M70.8,173.8c1.2-3.7,2.9-7.3,5.1-10.5c4.4-6.7,11.5-11.3,19.5-12.4c0.1,0,12-0.8,24.6-0.8
	c6.1-0.1,12.3,0.2,18.4,0.8c0,0,5.9,0.4,13,0.4c7.6,0,17.7-0.5,23.1-2.7l0.9-0.4l-0.2,1c0,0.2-4.1,16.4-18.3,21.6
	c-0.5,0.2-4.9,2.3-18.3,2.3c-0.4,0-35.5-0.7-40.7-0.7c0,0-1.3,0-3.5,0c-5.9,0-16.8,0.5-23.3,3.5l-1.1,0.5L70.8,173.8z"/>
<path d="M174.6,149.1c0,0-3.9,16-18,21.3c0,0-4.2,2.2-18.1,2.2c0,0-35.4-0.7-40.7-0.7c0,0-1.3,0-3.5,0c-5.7,0-16.9,0.4-23.5,3.5
	l0.4-1.3c0,0,5.4-20.1,24.2-22.6c0,0,11.8-0.8,24.5-0.8c6.1-0.1,12.3,0.2,18.4,0.8c0,0,5.8,0.4,13,0.4c8.1,0,18-0.5,23.3-2.7
	 M176.1,147.5l-1.9,0.8c-4.2,1.7-12.1,2.7-22.9,2.7c-6.9,0-12.5-0.4-12.9-0.4c-6.1-0.6-12.3-0.8-18.5-0.8c-12.6,0-24.5,0.8-24.6,0.8
	h-0.1c-8,1-14.8,5.4-19.8,12.6c-2.3,3.3-4,6.9-5.2,10.7l-0.4,1.3l-0.7,2.1l2.1-1c6.4-3,17.2-3.4,23-3.4c2.1,0,3.5,0,3.5,0l0,0
	c5.2,0,40.3,0.7,40.7,0.7l0,0c13.2,0,17.9-2,18.5-2.3c6.3-2.5,11.6-7.1,14.9-13c1.7-2.8,2.9-5.8,3.8-9l0.5-2L176.1,147.5z"/>
<path class="st2" d="M155.4,156.6c-0.9,3.5-1.8,6.9-2.7,10.2c-0.5,1.9-1.9,0.9-3.1,1.2c-0.3-1.2,0.3-2,0.6-2.9
	c0.6-2.3,0.4-2.7-1.9-2.7c-0.4,0-0.9,0-1.3,0c-1-0.1-2,0.6-2.1,1.6c0,0.1,0,0.1,0,0.2c0,0.3-0.1,0.7-0.2,1c-0.6,2.7-0.6,2.7-3.8,2.5
	c1.3-3.5,2-7,2.9-10.5c0.2-0.8,1.7-1.3,2.7-0.9c1,0.5,0.4,1.2,0.3,1.8c-0.1,0.3-0.3,0.7-0.3,1c-0.5,1.6-0.2,1.9,1.6,1.9h1
	c2.1-0.1,2.3-0.2,2.8-2.3C152.6,156.4,152.6,156.4,155.4,156.6z"/>
<path class="st2" d="M111.9,167.7c-2.9,0.8-3.7,0-4.3-2.6c-0.1-1-0.4-1.9-0.9-2.8c-1.1,0.9-1,2.2-1.3,3.3c-0.8,2.4-0.7,2.4-3.3,2.3
	c-0.6-0.6,0-1.1,0.1-1.7c0.7-2.7,1.5-5.3,2.2-8.1c0.2-0.9,0.6-1.7,1.6-1.7c1.6,0,3.3,0,4.9,0.2c1,0.1,2.1,0.5,2.4,1.7
	c0.2,1.1-0.4,2.1-1.3,2.6c-1.7,1.2-1.7,1.3-1.1,3.3C111.1,165.5,111.5,166.6,111.9,167.7z M106.8,161.7c1.1,0,2.2-0.6,2.7-1.6
	c0.5-0.8,0.7-1.5-0.3-1.9c-0.6-0.4-1.4-0.3-1.9,0.3c-0.1,0.1-0.1,0.2-0.1,0.3C106.7,159.7,106.6,160.7,106.8,161.7z"/>
<path class="st2" d="M130.7,168.1c-0.2,0-1-0.1-1.8-0.2c-0.8-0.1-1.5-0.7-1.2-1.6s1-0.5,1.7-0.3c0.7,0.3,1.5,0.5,2.3,0.6
	c0.8,0.1,1.6-0.1,2.2-0.7c0.8-0.7,0.8-1.5-0.1-2.1c-1-0.6-1.7-0.9-2.5-1.3c-1.7-0.9-2.1-2.3-0.9-3.8c2-2.1,4.9-2.8,7.6-2
	c0.5,0.2,0.9,0.5,0.7,1.2s-0.8,0.8-1.4,0.5c-1-0.8-2.4-0.8-3.4,0c-1.1,0.8-1,1.9,0.2,2.4c0.7,0.3,1.4,0.6,2.1,0.9
	c1.3,0.6,1.9,2.2,1.4,3.5c-0.2,0.4-0.4,0.7-0.7,1C135.2,167.7,132.9,168.4,130.7,168.1z"/>
<path class="st2" d="M124.7,165.8c-0.5,1.8-1.5,2.3-2.9,2.2c-2.1-0.1-4.1,0-6.4,0c1-3.7,1.9-7.3,2.8-10.8c0.1-0.5,0.5-0.8,0.9-0.7
	c1.9,0.2,3.8,0.2,5.7,0c0.7,0,1.3,0.2,1.2,1c-0.1,0.8-0.7,0.8-1.3,0.7c-0.6-0.1-1.3-0.3-2.1-0.3c-0.8-0.1-1.6,0.4-1.8,1.2
	c-0.2,0.6-0.7,1.3-0.1,2c0.5,0.6,1.1,0.4,1.7,0.2c0.2,0,0.3-0.1,0.5-0.1c0.4,0,1-0.1,1,0.5c0,0.5-0.4,1-0.9,1.1c0,0,0,0,0,0
	c-0.3,0-0.7-0.1-1-0.1c-1.6,0-2.9,1.3-2.9,2.9c0,0.2,0,0.3,0,0.5c0.1,0.5,0.6,0.8,1.1,0.7c0,0,0.1,0,0.1,0
	C121.9,166.5,123.3,166.2,124.7,165.8z"/>
<path class="st2" d="M90,167.8c0.9-3.6,1.8-7,2.7-10.5c0.1-0.5,0.6-0.9,1.1-0.9c1.8,0,3.7,0,5.5,0c0.6,0,1.3,0.2,1.2,1
	s-0.7,0.9-1.3,0.7c-0.6-0.2-1.2-0.2-1.8-0.3c-1-0.1-2,0.6-2.1,1.6c0,0.1,0,0.1,0,0.2c-0.1,1,0.2,1.5,1.3,1.4c0.5,0,1-0.5,1.5,0
	c0.1,1-0.3,1.4-1.3,1.3c-2.5-0.2-2.3,0.3-2.9,2.3c-0.1,0.3-0.1,0.5-0.2,0.8C93,168.1,93,168.1,90,167.8z"/>
<path d="M216.7,122.2c-2.1,0-3.8-1.7-3.8-3.8s1.7-3.8,3.8-3.8s3.8,1.7,3.8,3.8C220.5,120.5,218.8,122.2,216.7,122.2z M216.7,114.8
	c-2,0-3.6,1.6-3.6,3.6c0,2,1.6,3.6,3.6,3.6c2,0,3.6-1.6,3.6-3.6l0,0C220.4,116.4,218.8,114.8,216.7,114.8
	C216.7,114.8,216.7,114.8,216.7,114.8L216.7,114.8z"/>
<path d="M214.8,120.8v-5h1.7c0.3,0,0.6,0,0.9,0.1c0.2,0.1,0.4,0.3,0.5,0.5c0.1,0.2,0.2,0.5,0.2,0.8c0,0.3-0.1,0.7-0.3,0.9
	c-0.2,0.2-0.5,0.4-0.8,0.4c0.2,0.1,0.3,0.3,0.4,0.4c0.2,0.3,0.3,0.5,0.5,0.8l0.5,1h-1l-0.6-1.1c-0.1-0.3-0.3-0.5-0.4-0.7
	c-0.1-0.1-0.1-0.2-0.2-0.2c-0.1,0-0.3,0-0.4,0h-0.2v2.1L214.8,120.8z M215.6,117.9h0.6c0.2,0,0.5,0,0.7,0c0.1,0,0.2-0.1,0.3-0.2
	c0.1-0.1,0.1-0.3,0.1-0.4c0-0.1,0-0.3-0.1-0.4c-0.1-0.1-0.1-0.2-0.3-0.2c-0.2,0-0.4,0-0.7,0h-0.6L215.6,117.9z"/>
</svg>
