<?xml version="1.0" encoding="utf-8"?>
<!-- Generator: Adobe Illustrator 21.1.0, SVG Export Plug-In . SVG Version: 6.00 Build 0)  -->
<svg version="1.1" id="Layer_1" xmlns="http://www.w3.org/2000/svg" xmlns:xlink="http://www.w3.org/1999/xlink" x="0px" y="0px"
	 viewBox="0 0 250 250" style="enable-background:new 0 0 250 250;" xml:space="preserve">
<style type="text/css">
	.st0{fill:#FFFFFF;stroke:#FFFFFF;stroke-width:6;stroke-miterlimit:2.613;}
	.st1{fill:#C3242B;}
	.st2{fill:none;stroke:#C3242B;stroke-width:2.352;stroke-miterlimit:2.613;}
	.st3{fill:#FFFFFF;}
	.st4{fill:none;stroke:#C3242B;stroke-width:2.079;stroke-miterlimit:2.613;}
	.st5{fill:#FFF22D;}
</style>
<title>Grocery</title>
<path class="st0" d="M238.4,195.1V56.2H11.6v138.9H238.4z"/>
<path class="st1" d="M11.6,81.9h226.8v10.2H11.6V81.9z M11.6,69h226.8v10.2H11.6V69z M11.6,56.1h226.8v10.2H11.6V56.1z M11.6,94.8
	h226.8V105H11.6V94.8z M11.6,107.7h226.8v10.2H11.6V107.7z M11.6,120.6h226.8v10.2H11.6V120.6z M11.6,133.4h226.8v10.2H11.6V133.4z
	 M11.6,146.3h226.8v10.2H11.6V146.3z M11.6,159.2h226.8v10.2H11.6V159.2z M11.6,172.1h226.8v10.2H11.6V172.1z M11.6,184.9h226.8
	v10.2H11.6V184.9z"/>
<path class="st1" d="M197.2,174.3l5.5-5.6l-0.1,6.1L197.2,174.3z M182.5,160.5l3.3-5h2.2l-2.7,5H182.5z M173.2,156.2l-1.6,3.6
	l2.9,0.1l3.2-4.2L173.2,156.2L173.2,156.2z"/>
<path class="st2" d="M80.8,105.3v20.1c0,0-19.7,0.1-19.7,0V115c0-5.4-9.6-5.4-9.6-0.1v10.7H31.3V71.9h20.3v15.9l11.7-15.9h21.1
	l-16,22.3c6.1-0.7,11.7,3.8,12.3,9.9C80.8,104.5,80.8,104.9,80.8,105.3z"/>
<path class="st3" d="M80.8,105.3v20.1c0,0-19.7,0.1-19.7,0V115c0-5.4-9.6-5.4-9.6-0.1v10.7H31.3V71.9h20.3v15.9l11.7-15.9h21.1
	l-16,22.3c6.1-0.7,11.7,3.8,12.3,9.9C80.8,104.5,80.8,104.9,80.8,105.3z"/>
<path class="st2" d="M87.8,71.9v53.6h19.8V71.9H87.8z"/>
<path class="st3" d="M87.8,71.9v53.6h19.8V71.9H87.8z"/>
<path class="st2" d="M115.4,71.8v53.6h20.2v-16.4l11.4,16.3h18.4V71.8h-21V86l-11.2-14.2H115.4z"/>
<path class="st3" d="M115.4,71.8v53.6h20.2v-16.4l11.4,16.3h18.4V71.8h-21V86l-11.2-14.2H115.4z"/>
<path class="st2" d="M179.2,125.4h31c5.8,0,9.2-3.5,9.2-8.5V97h-19.2v8.2c0,4.3-7.7,4.2-7.7-0.1v-15c0-1,0.9-1.9,1.9-1.9h19.3V71.8
	h-33.4c-4.4-0.1-8.1,3.3-8.2,7.8c0,0.1,0,0.2,0,0.2v37.4c0,4.3,3.2,8.1,7.1,8.1L179.2,125.4z"/>
<path class="st3" d="M179.2,125.4h31c5.8,0,9.2-3.5,9.2-8.5V97h-19.2v8.2c0,4.3-7.7,4.2-7.7-0.1v-15c0-1,0.9-1.9,1.9-1.9h19.3V71.8
	h-33.4c-4.4-0.1-8.1,3.3-8.2,7.8c0,0.1,0,0.2,0,0.2v37.4c0,4.3,3.2,8.1,7.1,8.1L179.2,125.4z"/>
<path class="st4" d="M56,128c19.6-2.3,15.5,11.8,15.5,11.8L67,150.5h-8.8l4-10.2c2.7-7.2-7.7-6.2-15.2,0.3
	c-2.7,2.3-10.1,9.7-1.6,12.9c4,1.3,7.9,3.1,11.4,5.3c7.2,7.4-1.1,16.7-7.7,16.7H25.5l3.6-8.3h19.3c2.4,0,1.9-2.1,0.8-2.7
	c-1.1-0.5-3.2-1.6-7.5-3.5c-12.4-4.9-9.6-13.1-9.6-13.1C35.7,137.3,44.9,129.6,56,128z M193.9,167.5l18.9-20.1H224l-6.4,21.7
	c-3.2,5.9-7.2,6-7.2,6h-7.7l0.1-6.4l-6.5,6.6l-9.7-0.1c-7.4-0.4-4.3-7.5-4.3-7.5l5.9-12.2h-2.4l-13.7,19.8h-16.2
	c-9.4,0-7.4-11-7.4-11h-2.7c-7.2,12.6-15.7,12.3-15.7,12.3l-5.3-4l-6.4,17.4h-8.5l9.8-25.7h-3c-2.7,6-7.2,11.5-14.9,12.3
	c-7.7,0.8-9.5-6.9-9.8-8c-0.2-1.4-0.2-2.9,0-4.3h-3c-2.8,6-7.2,11.5-14.9,12.3c-7.7,0.8-9.5-6.9-9.8-8c-0.8-2.9,0.6-18,13.8-20.4
	c11.7-2.1,12.2,9.7,12.2,9.7h3.5c2.1-5.1,6.6-8.7,12-9.6c11.7-2.1,12.2,9.1,12.2,9.1h4.5l7.2-17.4h8l-4,10.2l5.1-2.1
	c7.6-2.8,8.5,9.3,8.5,9.3h3.5c0.3-0.3,4.5-11,14.1-11c10.7,0,8.5,9.3,8.5,9.3l-3.7,8.4h-10.1c-2.7,0-2.1,4,0.3,4h9.6l9.3-13.1
	c-4.5-1.3-2.1-5.9-2.1-5.9l2.9-6.4h8c-2.1,5.1,0.5,4.8,0.5,4.8h12l-8.2,18C190.2,167.7,192.3,168.7,193.9,167.5z"/>
<path class="st5" d="M56,128c19.6-2.3,15.5,11.8,15.5,11.8L67,150.5h-8.8l4-10.2c2.7-7.2-7.7-6.2-15.2,0.3
	c-2.7,2.3-10.1,9.7-1.6,12.9c4,1.3,7.9,3.1,11.4,5.3c7.2,7.4-1.1,16.7-7.7,16.7H25.5l3.6-8.3h19.3c2.4,0,1.9-2.1,0.8-2.7
	c-1.1-0.5-3.2-1.6-7.5-3.5c-12.4-4.9-9.6-13.1-9.6-13.1C35.7,137.3,44.9,129.6,56,128z M193.9,167.5l18.9-20.1H224l-6.4,21.7
	c-3.2,5.9-7.2,6-7.2,6h-7.7l0.1-6.4l-6.5,6.6l-9.7-0.1c-7.4-0.4-4.3-7.5-4.3-7.5l5.9-12.2h-2.4l-13.7,19.8h-16.2
	c-9.4,0-7.4-11-7.4-11h-2.7c-7.2,12.6-15.7,12.3-15.7,12.3l-5.3-4l-6.4,17.4h-8.5l9.8-25.7h-3c-2.7,6-7.2,11.5-14.9,12.3
	c-7.7,0.8-9.5-6.9-9.8-8c-0.2-1.4-0.2-2.9,0-4.3h-3c-2.8,6-7.2,11.5-14.9,12.3c-7.7,0.8-9.5-6.9-9.8-8c-0.8-2.9,0.6-18,13.8-20.4
	c11.7-2.1,12.2,9.7,12.2,9.7h3.5c2.1-5.1,6.6-8.7,12-9.6c11.7-2.1,12.2,9.1,12.2,9.1h4.5l7.2-17.4h8l-4,10.2l5.1-2.1
	c7.6-2.8,8.5,9.3,8.5,9.3h3.5c0.3-0.3,4.5-11,14.1-11c10.7,0,8.5,9.3,8.5,9.3l-3.7,8.4h-10.1c-2.7,0-2.1,4,0.3,4h9.6l9.3-13.1
	c-4.5-1.3-2.1-5.9-2.1-5.9l2.9-6.4h8c-2.1,5.1,0.5,4.8,0.5,4.8h12l-8.2,18C190.2,167.7,192.3,168.7,193.9,167.5z"/>
<path class="st1" d="M82.3,157.8c0,0-2.3-8.3-8.9,0.3c0,0-4.7,8.2-0.8,11c0,0,4.4,1.9,7.8-4.8h-3.8l2.1-6.4H82.3z M110.1,157.8
	c0,0-1.8-8.3-8.9,0.3c0,0-4.7,8.2-0.8,11c0,0,4.4,1.9,7.8-4.8h-3.8l2.1-6.4H110.1z M137.5,161c-3.1,5.8-11,8.3-11,8.3
	c1.2-4.5,3.6-8.6,7-11.8C136.6,155,139.7,157,137.5,161L137.5,161z M160.2,157.3h4.7c0,0,1.7-2,0-3.5
	C162.9,152,159.9,157.3,160.2,157.3L160.2,157.3z M204.6,166.6l8.8-9.9c0,0-1.6,9.1-5.9,10.2C203.2,167.9,204.6,166.7,204.6,166.6
	L204.6,166.6z"/>
</svg>
