<?xml version="1.0" encoding="utf-8"?>
<!-- Generator: Adobe Illustrator 21.1.0, SVG Export Plug-In . SVG Version: 6.00 Build 0)  -->
<svg version="1.1" id="Layer_1" xmlns="http://www.w3.org/2000/svg" xmlns:xlink="http://www.w3.org/1999/xlink" x="0px" y="0px"
	 viewBox="0 0 250 250" style="enable-background:new 0 0 250 250;" xml:space="preserve">
<style type="text/css">
	.st0{fill:#F69321;}
	.st1{fill:#689149;}
	.st2{fill:#FEFEFE;}
</style>
<title>Grocery</title>
<path class="st0" d="M70.8,174.9c-0.4-0.1-0.9-0.2-1.3-0.2c-0.7,0.1-1.4-0.4-1.5-1.2c0-0.2,0-0.4,0.1-0.6c0.3-2.6,0.7-5.1,0.9-7.7
	c0.3-3.7,0.4-7.5,0.2-11.2c-0.1-2.6-0.3-5.2-0.8-7.8c-0.1-0.5-0.2-1-0.3-1.5c-0.2-0.4,0-0.9,0.5-1.1c0,0,0.1,0,0.1,0
	c0.2-0.1,0.2-0.2,0.2-0.4c-0.6-6.1-1.7-12.1-3.1-18.1c-1.6-7.2-3.5-14.3-5.8-21.3c-0.7-2-1.4-4.1-1.9-6.2c-0.8-3.2-0.8-6.6,0-9.9
	c0.8-3.1,2.9-5.8,5.7-7.5c2.2-1.3,4.3-2.7,6.4-4.1c0.4-0.2,0.9-0.4,1.3-0.5h1.5c1,0.3,2,0.8,2.9,1.5c1.9,1.2,3.8,2.3,5.7,3.6
	c2.2,1.5,3.8,3.6,4.7,6c1,2.8,1.2,5.7,0.8,8.6c-0.4,2.8-1.1,5.5-2.2,8.1c-0.6,1.5-1,3-1.4,4.6s-0.8,2.7-1.2,4.1
	c-0.5,1.9-1.1,3.8-1.6,5.7c-0.9,3.3-1.7,6.7-2.4,10c-0.5,2.3-0.9,4.6-1.3,6.9c-0.2,1.2-0.4,2.4-0.5,3.7c-0.2,1.6-0.4,3.2-0.6,4.8
	c0,0.2,0,0.3,0.2,0.4c0.5,0.2,0.8,0.7,0.6,1.2c0,0,0,0,0,0c-0.4,2-0.7,3.9-0.8,5.9c-0.3,3.7-0.3,7.4-0.2,11.2c0.2,3.7,0.5,7.3,1,11
	c0.1,0.4,0,0.7-0.1,1.1c-0.2,0.4-0.5,0.7-1,0.8c-0.4,0-0.9,0.1-1.3,0.2L70.8,174.9z M60,86c-0.7,1.6-1.1,3.3-1.2,5.1
	c-0.2,2.3,0,4.6,0.4,6.8c0.2,1.2,0.5,2.3,0.9,3.4c0-0.1,0-0.3,0-0.4c-0.3-2-0.5-4.1-0.7-6.2c-0.2-2.3-0.1-4.5,0.2-6.8
	C59.7,87.3,59.9,86.6,60,86L60,86L60,86L60,86z M77.4,123.4c0.2-0.1,0.2-0.3,0.2-0.4c2.4-6.5,4.4-13.1,5.8-19.9
	c1-4.3,1.3-8.7,1.1-13.1c-0.1-1.7-0.5-3.4-1.2-5c-0.9-2.1-2.7-3.7-5-4.2c-0.4-0.1-0.8-0.1-1.1-0.1c0.6,0.2,1.1,0.6,1.6,1
	c1.6,1.4,2.8,3.3,3.3,5.5c0.9,3.5,1.1,7.1,0.6,10.7c-0.4,3.3-1,6.5-1.8,9.8c-1.1,4.5-2.1,9-3.1,13.5
	C77.6,121.8,77.5,122.6,77.4,123.4c-0.1,0-0.1,0.1,0,0.3L77.4,123.4z M74.3,96.1L74.3,96.1c0-0.4,0-0.7,0-1.1c0-3.4,0.1-6.7,0-10.1
	c0-1.3-0.1-2.5-0.2-3.8c0-0.3-0.2-0.5-0.5-0.5c-0.7,0-1.3,0-2.1,0c-1,0-1,0-1,1v0.1c-0.1,1.7-0.1,3.4-0.2,5.1c0,3.2,0,6.3,0.1,9.5
	c0.1,3.5,0.1,7,0.3,10.5c0.1,3.8,0.2,7.5,0.4,11.3s0.3,7.9,0.4,11.8c0.2,4.4,0.4,8.8,0.5,13.3c0,0.2,0,0.4,0.3,0.4s0.3-0.2,0.3-0.4
	c0.2-4.8,0.4-9.6,0.6-14.4c0.2-3.9,0.3-7.8,0.4-11.8c0.1-3.7,0.2-7.3,0.3-11C74.2,102.7,74.3,99.4,74.3,96.1z M74.1,128.1
	c0.5-2.9,1-5.7,1.3-8.6c0.3-2.7,0.7-5.2,1-7.8s0.5-4.9,0.8-7.3c0.3-3.3,0.5-6.7,0.7-10c0.1-2.6,0-5.3-0.2-7.9
	c-0.1-1.3-0.4-2.6-0.9-3.8c-0.2-0.6-0.6-1.1-1.1-1.5c-0.3-0.2-0.4-0.1-0.4,0.2c0,4,0,8-0.1,12.1c0,3.6-0.1,7.1-0.2,10.7
	c-0.1,4.5-0.3,9-0.5,13.5c-0.1,2.1-0.2,4.3-0.3,6.4C74.2,125.5,74.1,126.8,74.1,128.1L74.1,128.1z M70.6,128.1h0.1
	c0-1.5-0.1-2.9-0.2-4.3c-0.1-3.8-0.3-7.7-0.4-11.5c-0.1-3.8-0.3-7.5-0.3-11.3c-0.1-4.3-0.1-8.6-0.2-13c0-2.1,0-4.2,0-6.3
	c0-0.1,0.1-0.3-0.1-0.4c-0.1-0.1-0.3,0-0.4,0.2c-0.5,0.4-0.8,0.9-1,1.5c-0.7,2.1-1.1,4.4-1.1,6.7c-0.1,2.4-0.1,4.9,0.1,7.3
	c0.1,1.7,0.2,3.3,0.3,5c0.2,2.4,0.4,4.9,0.7,7.3c0.2,2.1,0.5,4.2,0.7,6.3c0.3,2.1,0.6,4.5,0.9,6.8C70,124.2,70.3,126.2,70.6,128.1
	L70.6,128.1z M75.7,124c0.1-0.2,0.2-0.5,0.2-0.7c1.2-4.4,2.3-8.9,3.3-13.4c0.7-3.1,1.2-6.3,1.6-9.5c0.3-2.1,0.5-4.3,0.6-6.5
	c0.2-2.5,0-5-0.6-7.5c-0.3-1.4-1-2.8-2-3.8c-0.3-0.3-0.7-0.5-1.1-0.7c0,0.1,0,0.2,0,0.2c0.8,3.1,1.2,6.3,1.2,9.6
	c0.1,3.7,0,7.5-0.3,11.2c-0.2,2.9-0.5,5.9-0.9,8.8C77.1,115.9,76.4,120,75.7,124L75.7,124z M68.9,123.4L68.9,123.4
	c0.1-0.1,0.1-0.3,0.1-0.4c-0.6-3.4-1.2-6.8-1.6-10.2c-0.4-2.8-0.7-5.6-0.9-8.4c-0.2-2.7-0.4-5.3-0.5-7.9c-0.1-2.4,0-4.9,0.1-7.3
	c0.1-2.3,0.5-4.6,1.1-6.9c0-0.1,0.2-0.3,0-0.4c-0.2-0.1-0.3,0-0.4,0.1c-1,0.6-1.8,1.6-2.2,2.7c-0.7,1.9-1.1,4-1.1,6.1
	c-0.1,3.2,0.1,6.5,0.6,9.7c0.4,3.2,1,6.4,1.6,9.6c0.7,3.2,1.5,6.6,2.3,9.8C68.3,121.2,68.6,122.2,68.9,123.4L68.9,123.4z M67.5,80.7
	H67c-2.4,0.3-4.5,1.9-5.5,4.2c-0.8,1.9-1.3,4-1.3,6c-0.1,3.3,0.1,6.5,0.7,9.8c0.5,3.2,1.2,6.3,2.1,9.3c1,3.9,2.3,7.7,3.6,11.5
	c0.2,0.6,0.5,1.3,0.7,1.9c0-0.1,0-0.2,0-0.3c-1-5.1-2.2-10.2-3.4-15.3c-0.9-3.6-1.6-7.2-1.9-10.8c-0.3-2.8-0.2-5.7,0.3-8.5
	C63.1,85.3,64.3,82.4,67.5,80.7z M84.8,101.2c0-0.1,0.1-0.3,0.2-0.5c1-3.3,1.4-6.7,1.1-10.1c-0.1-1.3-0.4-2.5-0.8-3.8
	c-0.1-0.2-0.1-0.2-0.3-0.3C86,91.5,85.5,96.3,84.8,101.2L84.8,101.2z M73.4,77.6c0-0.6-0.5-1.1-1.1-1.1c-0.6,0-1.1,0.5-1.1,1.1
	c0,0,0,0,0,0c0,0.6,0.5,1.1,1.1,1.1c0,0,0,0,0,0C72.8,78.7,73.3,78.2,73.4,77.6C73.4,77.6,73.4,77.6,73.4,77.6z M69,123.7
	C69,123.7,69,123.7,69,123.7c0-0.1,0-0.1,0-0.2C69,123.6,69,123.6,69,123.7C69,123.7,69,123.7,69,123.7z"/>
<path class="st1" d="M4.7,94.3c0.3-0.2,0.6-0.4,1-0.4c2.3,0,4.5,0.1,6.7,0.2c1,0,2,0,3.1-0.1c1.3,0,2.7-0.1,4-0.1c0.2,0,0.4,0,0.7,0
	c0.3,0,0.5,0.3,0.5,0.6c0,0,0,0,0,0c0,0.4-0.3,0.5-0.6,0.5c-0.6,0-1.1,0.1-1.7,0.3c-1,0.2-1.8,1-2,2c-0.3,1.4-0.5,2.7-0.4,4.1
	c-0.1,6.9-0.1,13.8-0.1,20.8c0,0.1-0.1,0.4,0.1,0.4s0.2-0.1,0.3-0.3c4.8-6.1,9.6-12.2,14.4-18.3c1.3-1.6,2.6-3.3,3.7-5
	c0.4-0.5,0.6-1.1,0.8-1.7c0.3-0.9-0.1-1.8-1-2.2c-0.3-0.2-0.5-0.3-0.4-0.7s0.5-0.5,0.8-0.4c1.2,0,2.3,0.1,3.5,0.2
	c1.3,0.1,2.7,0.1,4,0L46,94c0.2,0,0.4,0,0.7,0.1c0.3,0.1,0.4,0.3,0.3,0.6c0,0.2-0.2,0.4-0.5,0.4c0,0,0,0,0,0c-2.7,0.2-5.2,1.5-7,3.5
	c-2.2,2.2-4.1,4.7-6.1,7.1c-3.8,4.5-7.6,9.1-11.2,13.7l-1,1.3c-0.4,0.6-0.4,0.6,0,1.1c1.5,2,3,4,4.6,5.9c4,5,7.9,10.1,11.9,15
	c2.1,2.6,4.4,5.1,6.7,7.6c1.7,1.9,3.8,3.3,6.2,4.1c0.8,0.3,1.7,0.4,2.5,0.4h0.3c0.3,0,0.6,0.1,0.6,0.5c0,0.4-0.3,0.5-0.6,0.6
	c-0.3,0.1-0.6,0.1-0.8,0.1c-2.4,0-4.7,0-7.1-0.1c-2.6-0.1-5.1-1.3-7-3.2c-2.6-2.5-5-5.3-7.2-8.2c-4.4-5.7-8.8-11.5-13-17.3
	c-0.7-0.9-1.3-1.9-2-2.9c-0.1-0.1-0.2-0.3-0.4-0.3c-0.2,0.1-0.1,0.3-0.1,0.4c0,4.7,0,9.5,0,14.2c0,3,0,6,0.2,8.9
	c0,1.4,0.2,2.8,0.4,4.1c0.1,1.5,1.3,2.7,2.9,2.7c0.7,0.1,1.3,0.2,2,0.2c0.3,0,0.6,0.1,0.6,0.5c0,0.3-0.2,0.6-0.5,0.7c0,0,0,0,0,0
	c-0.8,0.1-1.5,0.1-2.3,0c-3.4-0.2-6.9-0.2-10.3,0c-0.6,0-1.3,0-1.9,0c-0.2,0-0.4,0-0.7,0c-0.3,0-0.5-0.3-0.5-0.6c0,0,0,0,0,0
	c0-0.3,0.2-0.5,0.6-0.5c0.6,0,1.1-0.1,1.7-0.3c0.7-0.1,1.3-0.6,1.5-1.3c0.4-1,0.6-2,0.6-3.1c0.3-2.4,0.3-4.9,0.3-7.3
	c0.1-12.3,0-24.7,0-37c0-2.2,0-4.4-0.2-6.7c0-0.4-0.1-0.8-0.2-1.2c-0.2-1.6-1.5-2.8-3.1-2.9c-0.5-0.1-1.1-0.1-1.6-0.2
	c-0.3,0-0.5-0.1-0.7-0.2L4.7,94.3z"/>
<path class="st1" d="M244.6,141.3c-0.1,0.8-0.2,1.6-0.4,2.5c-0.5,3.2-1.9,6.2-4,8.7c-2.2,2.5-5.1,4-8.4,4.5c-2.5,0.4-5,0.3-7.5-0.2
	c-0.9-0.2-1.8-0.5-2.7-0.8c-0.9-0.3-1.7-0.7-2.4-1.3c-0.2-0.2-0.3-0.4-0.3-0.7c-0.1-2.4-0.1-4.7,0-7.1c0.1-1.5,0.1-2.9,0.3-4.3
	c0-0.3,0-0.6,0.5-0.6s0.5,0.3,0.5,0.6c0,0.9,0,1.8,0.1,2.7c0.2,1.9,0.9,3.7,2,5.3c0.7,1,1.7,1.9,2.8,2.5c2,1.1,4.4,1.5,6.7,1.1
	c2.8-0.4,5.2-2.2,6.5-4.7c1.2-2.2,1.7-4.7,1.5-7.1c-0.1-2.2-0.7-4.4-1.7-6.3c-1.1-1.9-2.4-3.7-4-5.3c-0.8-0.8-1.6-1.6-2.4-2.5
	c-1.2-1.3-2.5-2.5-3.7-3.8c-2.1-2.2-4-4.7-5.4-7.4c-0.8-1.5-1.4-3.1-1.7-4.8c-0.5-2.4-0.5-4.9-0.2-7.3c0.2-1.2,0.4-2.3,0.9-3.5
	c0.3-0.8,0.6-1.6,1.1-2.3c1-1.6,2.3-2.9,3.8-4c0.5-0.4,1.1-0.7,1.7-0.9c1.5-0.7,3.1-1.1,4.7-1.2c2.7-0.2,5.4,0.1,8,0.8
	c0.7,0.2,1.4,0.3,2.1,0.3c0.5,0,0.7,0.3,0.6,0.8c-0.1,1.5-0.2,3-0.2,4.5c0,1.5,0,3.1-0.1,4.7c0,0.2,0,0.5-0.1,0.7
	c0,0.3-0.1,0.5-0.4,0.5c-0.3,0-0.4-0.3-0.4-0.5c-0.1-0.6-0.1-1.1-0.2-1.7c-0.1-1.2-0.5-2.4-1-3.5c-1.1-1.7-2.8-3-4.8-3.4
	c-2-0.6-4.1-0.5-6.1,0.1c-2.4,0.9-4.2,2.9-4.8,5.4c-1.2,4-0.3,8.4,2.4,11.6c2.1,2.5,4.3,4.9,6.7,7.2c2.8,2.5,5.2,5.4,7.2,8.6
	c1.7,2.7,2.7,5.8,2.9,9c0,0.1,0,0.2,0.1,0.3L244.6,141.3z"/>
<path class="st1" d="M141.8,144.9c0-1.3,0-2.7,0-4c-0.1-4.1-0.1-8.2-0.2-12.3c-0.1-5.2-0.2-10.5-0.3-15.7c0-1.7,0-3.4-0.1-5.1
	c0-1.8,0-3.6-0.1-5.4c0-1.3-0.1-2.6-0.3-3.8c-0.1-1.9-1.6-3.3-3.5-3.3c-0.7-0.1-1.4-0.2-2.1-0.2c-0.3,0-0.5-0.2-0.6-0.5
	c-0.1-0.3,0.2-0.4,0.3-0.5c0.3-0.1,0.6-0.2,0.9-0.2c2,0,4.1,0.1,6.1,0.2c1.7,0.1,3.4-0.2,5.1-0.2h1.8c0.1,0,0.3,0,0.4,0
	c0.3,0,0.5,0.2,0.5,0.6c0,0.3-0.3,0.5-0.6,0.5c-0.3,0-0.5,0-0.7,0c-2.2,0.4-3,0.9-3.3,3.4c-0.2,1.8-0.2,3.6-0.2,5.3c0,5,0,10,0,15
	c0,8,0,16-0.1,24c0,4,0,8.1-0.1,12.1c0,0.4-0.1,0.9-0.2,1.3c-0.1,0.5-0.4,0.6-0.7,0.3c-0.6-0.5-1.2-1-1.7-1.7c-0.9-1-1.7-2-2.5-3
	c-0.8-1-1.5-1.8-2.2-2.8c-1.1-1.3-2.1-2.7-3.2-4c-0.8-1-1.5-1.9-2.3-2.9c-1.7-2-3.2-4.2-4.9-6.2c-1.2-1.5-2.3-3.1-3.5-4.6
	c-0.8-1-1.5-1.9-2.3-2.9c-0.5-0.7-1.1-1.5-1.6-2.2c-0.7-1.1-1.5-2.1-2.3-3.1c-0.5-0.7-1-1.3-1.5-2l-2.2-3l-8.8-12l-0.4-0.5
	c-0.1,0.5-0.1,1,0,1.5c0,2.7,0.1,5.3,0.2,7.9c0.1,4.1,0.2,8.2,0.3,12.3c0,2.6,0.1,5.1,0.2,7.7c0.1,2.6,0,5.1,0.2,7.6
	c0.2,2.5,0,4.7,0.3,7.1c0.1,0.8,0.3,1.6,0.5,2.4c0.3,1.4,1.5,2.4,2.9,2.5c0.7,0.1,1.4,0.2,2.2,0.2c0.3,0,0.6,0,0.6,0.5
	c0,0.5-0.2,0.6-0.6,0.7c-0.9,0.1-1.9,0.1-2.8,0c-1.8,0-3.6-0.3-5.4-0.2c-1.8,0.1-3.5,0.1-5.2,0.2c-0.4,0-0.8,0-1.2,0
	c-0.5,0-0.5-0.3-0.5-0.6c0-0.3,0.2-0.5,0.5-0.5c0.9,0,1.8-0.2,2.7-0.5c0.6-0.2,1.1-0.8,1.3-1.4c0.4-1.5,0.7-3.1,0.6-4.7
	c0.1-3.2,0.1-6.3,0.1-9.5c0-7.7,0-15.3,0-23c0-5.5,0-10.9,0-16.4c0-1.6,0-3.2,0-4.8c0-0.5,0.1-0.9,0.2-1.3c0.2-0.6,0.5-0.7,1-0.3
	c0.4,0.4,0.8,0.9,1.1,1.3l11.2,15c2.5,3.4,5.1,6.7,7.6,10.1c2.2,2.9,4.3,5.8,6.5,8.6c1.7,2.3,3.3,4.5,5,6.8l5.2,7L141.8,144.9z"/>
<path class="st1" d="M198.5,139.7c0-2.5,0-5.3-0.1-8.2c0-0.9-0.2-1.8-0.4-2.7c-0.2-0.9-0.8-1.6-1.6-1.9c-1-0.4-2-0.6-3.1-0.6
	c-0.6,0-0.8-0.4-0.6-0.9c0.1-0.2,0.4-0.3,0.6-0.3c1.1,0,2.2,0,3.3,0c1.9,0,3.8,0.2,5.7,0.1l4.8-0.2c0.4,0,0.8,0,1.2,0
	c0.3,0,0.5,0.3,0.5,0.6c0,0,0,0,0,0c0,0.3-0.2,0.5-0.4,0.5c0,0,0,0-0.1,0c-0.5,0-1,0.1-1.5,0.2c-1.1,0.1-2.1,1-2.3,2.1
	c-0.3,1.1-0.4,2.2-0.4,3.4c-0.2,5.8,0,11.5-0.1,17.3c0,0.8,0,1.7-0.1,2.5c0,0.7-0.4,1.4-1,1.7c-2.1,1.2-4.3,2.1-6.7,2.7
	c-4.3,1-8.8,1.1-13.2,0.4c-1.1-0.2-2.2-0.4-3.2-0.7c-4.2-1.1-8.1-3.3-11.3-6.2c-1.6-1.5-3-3.2-4.1-5.1c-0.6-0.9-1-1.9-1.5-2.8
	c-0.9-1.9-1.7-4-2.2-6c-0.4-1.3-0.7-2.6-0.9-4c-0.7-4.3-0.8-8.6-0.2-12.9c0.1-0.6,0.1-1.3,0.2-1.9c0.6-2.9,1.4-5.6,2.5-8.4
	c0.5-1.2,1-2.3,1.7-3.4c1.3-2.2,2.8-4.2,4.6-6c0.9-0.9,1.8-1.6,2.9-2.3c1-0.7,2.1-1.3,3.1-1.8c0.9-0.4,1.8-0.8,2.7-1.1
	c1.6-0.5,3.3-0.9,5.1-1.1c4.3-0.6,8.7-0.5,12.9,0.4c2.2,0.4,4.3,1.1,6.7,1.3c0.7,0,1.3,0.1,2,0.2c0.7,0.1,0.7,0.3,0.6,0.8
	c0,0.5-0.1,1.3-0.1,2c-0.1,1.7-0.2,3.4-0.3,5.1c-0.1,1.7,0,3.3,0,5c0,0.3,0,0.5-0.1,0.7c0,0.2-0.2,0.4-0.5,0.4
	c-0.3,0-0.4-0.3-0.4-0.5c-0.1-0.7-0.2-1.5-0.3-2.2c-0.2-1.9-0.9-3.7-2.1-5.2c-1.1-1.3-2.5-2.3-4.1-3.1c-1.2-0.6-2.4-1-3.7-1.3
	c-3.3-0.9-6.7-1.2-10.1-0.8c-1.7,0.1-3.4,0.5-5,1.2c-1.5,0.6-2.9,1.5-4.2,2.4c-2.9,2.3-5.1,5.3-6.3,8.8c-0.6,1.6-1,3.3-1.3,4.9
	c-0.2,1.3-0.4,2.5-0.6,3.8c-0.3,2.7-0.3,5.5-0.1,8.2c0.3,3.4,0.9,6.8,2,10.1c0.9,2.7,2.1,5.3,3.6,7.7c1.1,1.7,2.5,3.2,4,4.6
	c1.6,1.5,3.5,2.8,5.5,3.8c4.1,2,8.7,2.6,13.1,1.8c0.9-0.2,1.8-0.4,2.7-0.8c1.5-0.6,2.4-2,2.3-3.6C198.4,146,198.5,143,198.5,139.7z"
	/>
<path class="st1" d="M91.4,167.7c0,0.8,0,1.6,0,2.4c0,1.3,0,2.7,0,4c0,0.2,0,0.3-0.3,0.3c-1.1,0-1.1,0-1.1-1.1c0-2.5,0-5.1,0-7.6
	c0-0.4,0.1-0.5,0.5-0.5c1-0.2,2,0.4,2.3,1.3c0.7,1.3,1.5,2.5,2.3,3.8c0.4,0.6,0.7,1.2,0.9,1.8c0.1-0.1,0.1-0.2,0.1-0.3
	c0-2,0-4-0.1-6.1c0-0.4,0.1-0.4,0.5-0.4c1,0,1,0,1,1c0,2.6,0,5.1,0,7.7c0,0.4-0.1,0.6-0.5,0.5c-0.1,0-0.3,0-0.4,0
	c-0.6,0.1-1.3-0.2-1.5-0.8c-1.1-2-2.4-3.9-3.4-5.9v-0.1L91.4,167.7z"/>
<path class="st1" d="M172.5,167.6c0.1,2.1,0,4.3,0,6.4c0,0.4-0.1,0.5-0.5,0.5c-1,0-1,0-1-1c0-2.6,0-5.2,0-7.8c0-0.3,0.1-0.4,0.4-0.5
	c1-0.2,2,0.3,2.3,1.2c0.6,1.2,1.3,2.3,2,3.4c0.5,0.7,0.8,1.5,1.2,2.2c0-0.7,0-1.4,0-2.1c0-1.4,0-2.9,0-4.3c0-0.3,0.1-0.4,0.4-0.4
	c1.1,0,1.1,0,1.1,1c0,2.6,0,5.1,0,7.7c0,0.4-0.1,0.4-0.5,0.5c-1,0.2-2-0.4-2.3-1.3C174.8,171.3,173.5,169.6,172.5,167.6z"/>
<path class="st1" d="M167.4,169.7c0.1,1.6-0.6,3.1-1.8,4.1c-0.4,0.3-0.9,0.5-1.3,0.6c-1,0.3-2.2,0.3-3.2-0.1c-0.9-0.4-1.5-1.1-1.9-2
	c-0.6-1.3-0.6-2.8-0.2-4.2c0.6-2.2,2.9-3.5,5.1-2.9c1.8,0.3,3.2,1.9,3.2,3.8C167.4,169.3,167.4,169.5,167.4,169.7z M165.8,169.9
	c0-0.4,0-0.8-0.1-1.2c-0.1-1.2-1.1-2.1-2.2-2.2c-1.3-0.2-2.4,0.6-2.8,1.8c-0.4,1.1-0.4,2.2,0,3.3c0.3,0.9,1.1,1.6,2,1.7
	c1.1,0.2,2.1-0.4,2.6-1.3C165.7,171.4,165.9,170.7,165.8,169.9L165.8,169.9z"/>
<path class="st1" d="M126.5,170.5c0,0.8,0,1.5,0,2.1c0,0.7,0,1,0,1.5c0,0.3-0.1,0.3-0.4,0.3c-1.2,0-1.2,0-1.2-1.1c0-2.6,0-5.1,0-7.7
	c0-0.3,0-0.5,0.4-0.4c1.1-0.1,2.1,0,3.2,0.1c1.1,0.1,2,1,2.1,2.1c0.2,1.2-0.6,2.4-1.8,2.7c-0.7,0.2-0.7,0.2-0.2,0.8l1.3,1.7l1.3,1.8
	h-1.8c-0.1,0-0.2-0.2-0.3-0.3l-2.4-3.3C126.8,170.9,126.7,170.8,126.5,170.5z M126.5,167.9L126.5,167.9c0,0.4,0,0.8,0,1.2
	c0,0.1,0,0.3,0.2,0.3c0.6,0.1,1.3,0,1.8-0.3c0.5-0.3,0.8-1,0.6-1.5c-0.1-0.5-0.5-0.9-1-1c-0.4-0.1-0.9-0.1-1.3-0.1
	c-0.2,0-0.3,0.1-0.3,0.3S126.5,167.6,126.5,167.9L126.5,167.9z"/>
<path class="st1" d="M207,170.7v2.7c0,1.2,0,1.1-1.2,1.1c-0.3,0-0.3-0.1-0.3-0.3c0-1.1,0-2.2,0-3.3c0-1.7,0-3.4,0-5.1
	c0-0.4,0.1-0.5,0.5-0.5c1.2-0.1,2.3,0,3.5,0.2c1.2,0.3,2,1.5,1.7,2.7c-0.2,1.1-1,1.9-2.1,2.1c-0.3,0.1-0.4,0.1-0.2,0.4
	c0.9,1.1,1.7,2.2,2.5,3.3c0.1,0.2,0.3,0.3,0.3,0.5h-1.7c-0.2,0-0.3-0.2-0.3-0.3l-2.4-3.3C207.2,170.8,207.2,170.7,207,170.7z
	 M207,168c0,0.4,0,0.8,0,1.2c0,0.2,0,0.3,0.2,0.3c0.5,0,1,0,1.5-0.2c0.6-0.3,1-0.9,0.9-1.6c-0.1-0.6-0.6-1-1.2-1.1c-0.3,0-0.7,0-1,0
	c-0.3,0-0.4,0.1-0.4,0.4C207.1,167.3,207,167.6,207,168L207,168z"/>
<path class="st1" d="M138.2,165.3c1,0,1,0,1.3,1.1c0.4,1.5,1,2.8,1.5,4.3c0.4,1.2,0.9,2.4,1.3,3.6c0.1,0.3,0.1,0.4-0.2,0.4
	c-1.3,0-1.3,0-1.7-1.2c-0.3-0.8-0.3-0.8-1.2-0.8c-0.9,0-1.7,0-2.5,0c-0.2,0-0.4,0.1-0.4,0.3c0,0,0,0,0,0c-0.1,0.5-0.3,1-0.5,1.5
	c0,0.2-0.2,0.3-0.4,0.3c-0.2,0-0.6,0.1-1,0s-0.3-0.2-0.2-0.4c0.5-1.1,0.8-2.3,1.3-3.5c0.5-1.2,0.9-2.5,1.3-3.8
	c0.1-0.4,0.2-0.8,0.3-1.2c0.1-0.3,0.4-0.5,0.6-0.4c0,0,0,0,0,0L138.2,165.3z M138.2,167.1c-0.4,1.3-0.9,2.7-1.3,3.9
	c-0.1,0.2-0.1,0.4,0.2,0.4c0.7,0,1.5,0,2.2,0c0.2,0,0.3,0,0.2-0.3C139.1,169.7,138.5,168.5,138.2,167.1L138.2,167.1z"/>
<path class="st1" d="M222.2,169.5c0.9-1,1.6-2.1,2.4-3.1c0.3-0.3,0.6-0.7,0.9-1c0.1-0.1,0.2-0.2,0.3-0.2h1.5c0.1,0.2,0,0.2-0.1,0.3
	c-1,1.3-2.1,2.5-3.1,3.8c-0.2,0.3-0.2,0.4,0,0.7c1.2,1.4,2.3,2.9,3.5,4.4h-1.9c-0.2,0-0.2-0.1-0.3-0.3l-2.8-3.8l-0.2-0.3
	c-0.2,0.1-0.1,0.3-0.1,0.4c0,1.2,0,2.4,0,3.5c0,0.3,0,0.4-0.4,0.4c-1.1,0-1.1,0-1.1-1.1c0-2.6,0-5.1,0-7.7c0-0.4,0.1-0.4,0.5-0.4
	c1,0,1,0,1,1.1S222.2,168.4,222.2,169.5z"/>
<path class="st1" d="M110.3,170c0-1.4,0-2.8,0-4.2c0-0.2,0-0.4,0.3-0.4c1.1-0.1,2.2-0.1,3.2,0.1c1.1,0.1,2,1,2.2,2.1
	c0.2,1.2-0.3,2.4-1.3,3.1c-0.8,0.5-1.6,0.7-2.5,0.6c-0.3,0-0.4,0.1-0.4,0.4c0,0.9,0,1.7,0,2.7c0,0.3,0,0.4-0.3,0.4
	c-0.3,0-0.6,0-0.8,0c-0.3,0-0.3-0.1-0.3-0.4C110.3,172.8,110.3,171.4,110.3,170z M111.8,168.2c0,0.5,0,0.9,0,1.3
	c0,0.4,0.1,0.4,0.4,0.4c0.5,0,1.1-0.1,1.5-0.3c0.6-0.3,0.9-1,0.8-1.7c0-0.7-0.5-1.2-1.2-1.3c-0.4-0.1-0.8-0.1-1.2-0.1
	c-0.2,0-0.3,0.1-0.3,0.3C111.8,167.1,111.8,167.7,111.8,168.2z"/>
<path class="st1" d="M230.8,170c0-1.4,0-2.8,0-4.3c0-0.3,0.1-0.4,0.4-0.4c1.4,0,2.7,0,4.1,0c0.3,0,0.4,0,0.4,0.4
	c0,1.1,0.1,0.9-0.9,0.9h-2.2c-0.2,0-0.3,0-0.3,0.3c0,0.7,0,1.3,0,2c0,0.3,0.1,0.2,0.3,0.2c0.8,0,1.6,0,2.4,0c0.3,0,0.5,0.1,0.5,0.4
	c0,0.8,0,0.8-0.8,0.8h-2.1c-0.2,0-0.3,0-0.3,0.3c0,0.8,0,1.5,0,2.3c0,0.3,0.1,0.3,0.4,0.3c0.9,0,1.7,0,2.6,0c0.3,0,0.5,0.1,0.5,0.5
	c0,0.8,0,0.8-0.8,0.8c-1.2,0-2.4,0-3.6,0c-0.4,0-0.5-0.1-0.5-0.5C230.8,172.7,230.8,171.3,230.8,170z"/>
<path class="st1" d="M240.8,174.7c-0.4,0-0.9-0.1-1.3-0.1c-0.2,0-0.3-0.1-0.3-0.3c0-0.2,0-0.8,0.1-1s0.6,0,0.9,0.1
	c0.8,0.2,1.5,0.1,2.2-0.2c0.4-0.3,0.6-0.8,0.5-1.3c0-0.4-0.3-0.7-0.7-0.8c-0.6-0.3-1.2-0.5-1.8-0.8c-1.3-0.6-1.8-2-1.3-3.3
	c0.2-0.4,0.4-0.7,0.7-0.9c0.6-0.4,1.2-0.7,2-0.7c0.6,0,1.3,0,1.9,0.1c0,0,0.1,0,0.1,0c0.3,0.3,0,0.7,0.1,1.1s-0.2,0.2-0.3,0.2
	c-0.5-0.1-1-0.2-1.6-0.2c-0.6,0-1.2,0.3-1.5,0.9c-0.1,0.7,0.3,1.4,1,1.6c0,0,0,0,0,0c0.6,0.2,1.2,0.4,1.8,0.7c0.9,0.6,1.4,1.8,1,2.8
	c-0.4,1.2-1.4,2-2.7,2.1C241.4,174.7,241.1,174.7,240.8,174.7z"/>
<path class="st1" d="M103,174.7c-0.4,0-0.9-0.1-1.3-0.1c-0.1,0-0.3,0-0.3-0.1c0-0.4,0-0.8,0-1.2c0-0.2,0.3,0,0.4,0
	c0.7,0.2,1.5,0.3,2.2,0.1c0.6-0.1,1.1-0.6,1.1-1.2c0-0.5-0.2-0.9-0.6-1.1c-0.6-0.3-1.3-0.6-1.9-0.8c-1-0.4-1.6-1.4-1.5-2.5
	c0.2-1.4,1.3-2.4,2.7-2.4c0.7-0.1,1.4,0,2.2,0.1c0.1,0,0.2,0,0.2,0.1c0,0.4,0,0.7-0.1,1.1c0,0.2-0.2,0.1-0.3,0
	c-0.5-0.1-1.1-0.2-1.6-0.1c-0.4,0-0.7,0.1-1,0.3c-0.5,0.3-0.6,1-0.3,1.5c0.1,0.1,0.1,0.2,0.2,0.2c0.3,0.3,0.7,0.5,1,0.6l1.1,0.5
	c1.3,0.6,1.8,2.1,1.3,3.4c-0.2,0.5-0.5,0.8-1,1.1C104.8,174.5,103.9,174.7,103,174.7z"/>
<path class="st1" d="M189.3,174.7c-0.5,0-1-0.1-1.5-0.1c-0.2,0-0.3-0.1-0.3-0.3c0,0,0,0,0,0c0,0,0-0.1,0-0.1c-0.1-1-0.1-1,0.9-0.8
	c0.6,0.2,1.3,0.2,1.9,0c0.5-0.1,1-0.5,1.1-1.1c0.1-0.6-0.2-1.1-0.8-1.3c-0.5-0.3-1.1-0.5-1.6-0.7c-0.6-0.2-1.1-0.7-1.4-1.2
	c-0.4-0.8-0.3-1.8,0.3-2.6c0.6-0.7,1.4-1.1,2.3-1.1c0.7-0.1,1.4,0,2,0.1c0.2,0,0.3,0.1,0.3,0.3c0,0.2,0,0.7-0.1,0.9
	c-0.1,0.2-0.6,0-0.9-0.1c-0.5-0.1-1.1-0.1-1.6,0.1c-0.5,0.1-0.8,0.5-0.9,1c-0.1,0.4,0.1,0.9,0.5,1.1c0.3,0.2,0.6,0.3,0.9,0.5
	l1.1,0.5c1.3,0.6,1.8,2.1,1.2,3.4c-0.2,0.4-0.5,0.8-0.9,1C191.1,174.5,190.2,174.7,189.3,174.7z"/>
<path class="st1" d="M147.9,170.6c0,1.2,0,2.4,0,3.6c0,0.3-0.1,0.4-0.4,0.4c-1.1,0-1.1,0-1.1-1.1c0-2.1,0-4.2,0-6.3
	c0-0.5-0.1-0.6-0.6-0.5s-1.1,0-1.6,0c-0.2,0-0.3-0.1-0.3-0.3c0-1,0-1,0.9-1c1.7,0,3.5,0,5.2,0c0.3,0,0.4,0.1,0.4,0.4
	c0,0.9,0,0.9-0.8,0.9c-0.4,0-0.8,0-1.2,0s-0.5,0.1-0.5,0.5C148,168.2,147.9,169.4,147.9,170.6z"/>
<path class="st1" d="M198.2,170.6c0-1.2,0-2.4,0-3.6c0-0.4-0.1-0.5-0.5-0.4c-0.6,0-1.2,0-1.8,0c-0.2,0-0.3,0-0.3-0.3
	c0-1-0.1-1,0.9-1h5.2c0.3,0,0.5,0,0.5,0.4c0,0.9,0,0.9-0.9,0.9c-0.4,0-0.8,0-1.2,0s-0.5,0.1-0.5,0.5c0,2.3,0,4.7,0,7
	c0,0.4-0.1,0.5-0.5,0.5c-1,0-1,0-1-1L198.2,170.6z"/>
<path class="st1" d="M84.4,169.9c0-1.4,0-2.8,0-4.3c0-0.3,0.1-0.4,0.4-0.4c1.2,0,1.2,0,1.2,1.1c0,2.6,0,5.1,0,7.7
	c0,0.3-0.1,0.4-0.4,0.4c-1.1,0-1.1,0-1.1-1.1L84.4,169.9L84.4,169.9z"/>
<path class="st1" d="M153.7,170c0-1.4,0-2.8,0-4.2c0-0.4,0.1-0.5,0.5-0.4s0.6,0,0.8,0c0.3,0,0.4,0,0.2,0.3c0,0.1,0,0.3,0,0.4
	c0,2.7,0,5.3,0,8.1c0,0.3-0.1,0.5-0.4,0.5c-1.1,0-1.1,0-1.1-1.1S153.7,171.1,153.7,170z"/>
<path class="st1" d="M120.9,170c0,1.3,0,2.8,0,4.1c0,0.3,0,0.5-0.4,0.5c-1.1,0-1.1,0-1.1-1.1c0-2.5,0-5.1,0-7.6
	c0-0.4,0.1-0.5,0.5-0.5c1,0,1,0,1,1C120.9,167.5,120.9,168.7,120.9,170z"/>
<path class="st1" d="M215.1,169.9c0-1.3,0-2.8,0-4.2c0-0.3,0.1-0.4,0.4-0.4c1.1,0,1.1,0,1.1,1.1c0,2.6,0,5.1,0,7.7
	c0,0.4,0,0.5-0.5,0.5c-1,0-1,0-1-1.1L215.1,169.9L215.1,169.9z"/>
<path class="st1" d="M9.4,172.5c0.4-1.8,0.9-3.5,1.3-5.2c0.1-0.6,0.3-1.1,0.5-1.7c0-0.2,0.2-0.3,0.4-0.3c1.3,0,1.3,0,1.7,1.2
	c0.5,1.9,1.1,3.8,1.6,5.7c0,0,0,0,0.1,0l0.8-3.2c0.3-1.2,0.6-2.3,0.9-3.5c0-0.2,0.2-0.4,0.4-0.4c0,0,0,0,0,0c1.2,0,1.2,0,0.9,1.1
	c-0.7,2.6-1.3,5.2-2,7.7c-0.1,0.3-0.2,0.5-0.5,0.4h-0.2c-0.4,0-1,0.2-1.2-0.1s-0.3-0.8-0.4-1.1c-0.4-1.6-0.9-3.2-1.3-4.7
	c-0.1-0.4-0.2-0.8-0.3-1.2c-0.5,2.3-1.2,4.5-1.8,6.8c-0.1,0.3-0.2,0.5-0.6,0.4c-0.3,0-0.6,0-1,0c-0.2,0-0.4-0.1-0.4-0.3
	c0,0,0,0,0-0.1c-0.7-2.8-1.5-5.7-2.2-8.5c-0.1-0.3,0-0.4,0.3-0.4c1.2,0,1.2,0,1.5,1.2C8.4,168.5,9,170.4,9.4,172.5z"/>
<path class="st1" d="M47.2,170.7c0,0.5,0,0.9,0,1.3c0,0.7,0,1.5,0,2.2c0,0.2-0.1,0.3-0.3,0.3c-1.2,0-1.2,0-1.2-1.2
	c0-2.5,0-5.1,0-7.6c0-0.4,0.1-0.5,0.5-0.5c1-0.1,2.1-0.1,3.1,0c1.2,0.1,2.1,1.1,2.1,2.3c0.1,1.2-0.7,2.4-1.9,2.7l-0.7,0.2l3.1,4.2
	h-1.7c-0.2,0-0.3-0.2-0.4-0.3l-2.3-3.2C47.5,170.9,47.4,170.8,47.2,170.7z M47.2,168L47.2,168c0,0.4,0,0.8,0,1.2
	c0,0.1,0,0.3,0.2,0.3c0.7,0.1,1.4,0,2-0.5c0.4-0.4,0.6-1,0.4-1.5c-0.1-0.5-0.5-0.8-0.9-0.9c-0.4-0.1-0.9-0.1-1.3-0.1
	c-0.2,0-0.3,0.1-0.3,0.3C47.2,167.1,47.2,167.6,47.2,168L47.2,168z"/>
<path class="st1" d="M22.9,169.9c0-1.4,0-2.8,0-4.2c0-0.3,0-0.4,0.4-0.4c1.2,0,1.2,0,1.2,1.1c0,0.8,0,1.5,0,2.3c0,0.3,0,0.4,0.3,0.4
	c1.2,0,2.5,0,3.7,0c0.3,0,0.3-0.1,0.3-0.4c0-1,0-2,0-3.1c0-0.3,0-0.4,0.4-0.4c1.1,0,1.1,0,1.1,1.1c0,2.6,0,5.1,0,7.7
	c0,0.3-0.1,0.5-0.4,0.5c-1.1,0-1.1,0-1.1-1.1c0-1.1,0-1.8,0-2.7c0-0.3,0-0.4-0.4-0.4c-1.2,0-2.4,0-3.6,0c-0.3,0-0.3,0.1-0.3,0.4
	c0,1.1,0,2.3,0,3.4c0,0.3-0.1,0.4-0.4,0.4c-1.1,0-1.1,0-1.1-1.1S22.9,171.1,22.9,169.9z"/>
<path class="st1" d="M35.7,169.9c0-1.4,0-2.8,0-4.2c0-0.3,0.1-0.4,0.4-0.4c1.4,0,2.7,0,4.1,0c0.3,0,0.4,0,0.4,0.4
	c0,0.9,0,0.9-0.9,0.9h-2.1c-0.3,0-0.4,0.1-0.4,0.3c0,0.6,0,1.2,0,1.9c0,0.3,0.1,0.4,0.4,0.4c0.8,0,1.6,0,2.4,0c0.3,0,0.4,0,0.4,0.4
	c0,0.9,0,0.9-0.9,0.9c-0.7,0-1.3,0-2,0c-0.3,0-0.4,0-0.4,0.4c0,0.7,0,1.3,0,2c0,0.3,0.1,0.4,0.4,0.4c0.9,0,1.7,0,2.6,0
	c0.3,0,0.4,0.1,0.4,0.4c0,0.9,0,0.9-0.9,0.9c-1.2,0-2.4,0-3.6,0c-0.3,0-0.4-0.1-0.4-0.4C35.7,172.7,35.7,171.3,35.7,169.9z"/>
<path class="st1" d="M56.6,169.9c0-1.4,0-2.8,0-4.2c0-0.3,0.1-0.4,0.4-0.4c1.4,0,2.8,0,4.1,0c0.3,0,0.4,0.1,0.4,0.4
	c0,0.9,0,0.9-0.9,0.9h-2.1c-0.3,0-0.3,0.1-0.3,0.3c0,0.6,0,1.3,0,1.9c0,0.3,0.1,0.3,0.3,0.3H61c0.3,0,0.4,0.1,0.4,0.4
	c0,0.9,0,0.9-0.9,0.9c-0.6,0-1.3,0-1.9,0c-0.4,0-0.4,0.1-0.4,0.5c0,0.6,0,1.3,0,1.9c0,0.4,0.1,0.5,0.5,0.5c0.8,0,1.7,0,2.5,0
	c0.3,0,0.4,0.1,0.4,0.4c0,0.9,0,0.9-0.9,0.9c-1.2,0-2.3,0-3.5,0c-0.3,0-0.5,0-0.5-0.4C56.6,172.7,56.6,171.3,56.6,169.9z"/>
<path class="st2" d="M77.4,123.4v0.2C77.3,123.6,77.3,123.5,77.4,123.4z"/>
<path class="st2" d="M69,123.7C69,123.7,69,123.7,69,123.7c0-0.1,0-0.1,0-0.2C69,123.6,69,123.6,69,123.7
	C69,123.7,69,123.7,69,123.7z"/>
<path class="st2" d="M60,86L60,86L60,86L60,86L60,86z"/>
</svg>
