<?xml version="1.0" encoding="utf-8"?>
<!-- Generator: Adobe Illustrator 21.1.0, SVG Export Plug-In . SVG Version: 6.00 Build 0)  -->
<svg version="1.1" id="Layer_1" xmlns="http://www.w3.org/2000/svg" xmlns:xlink="http://www.w3.org/1999/xlink" x="0px" y="0px"
	 viewBox="0 0 250 250" style="enable-background:new 0 0 250 250;" xml:space="preserve">
<style type="text/css">
	.st0{fill:#292224;}
	.st1{fill:#EB1C24;}
	.st2{fill:#FDFDFD;}
</style>
<title>Grocery</title>
<path class="st0" d="M38.6,107.6c-0.3-0.2-0.5-0.3-0.6-0.9c-0.2-0.7,0.1-1.4,0.7-1.8c0.6-0.4,1.4-0.3,2,0.1c0.6,0.4,0.8,1.2,0.5,1.9
	c-0.4,0.9,0,1.5,0.5,2.1c0.5,0.6,1,0.4,1.2-0.3c0.2-0.8,0.2-1.5,0.1-2.3c0-0.2-0.1-0.2-0.2-0.3c-0.8-0.5-1-1.6-0.5-2.3
	c0.2-0.3,0.5-0.5,0.8-0.6c0,0,0.1-0.1,0.1-0.1h1.1c0,0.1,0.2,0.1,0.3,0.2c0.8,0.4,1.2,1.4,0.8,2.2c0,0.1-0.1,0.2-0.2,0.3
	c-0.2,0.3-0.3,0.6-0.3,1c-0.1,0.7,0,1.5,0.1,2.2c0.1,0.3,0.2,0.7,0.6,0.8c0.4,0.1,0.6-0.3,0.7-0.6s0.2-0.4,0.3-0.6
	c0.2-0.3,0.2-0.8-0.1-1c-0.5-0.7-0.3-1.7,0.4-2.3c0.7-0.5,1.7-0.4,2.4,0.3c0.6,0.7,0.5,1.7-0.1,2.4c-0.3,0.3-0.5,0.4-0.1,0.8
	c0.1,0.1,0,0.3,0,0.4c-0.5,2.8-1.1,5.6-1.7,8.3c-0.1,0.3-0.2,0.5-0.6,0.5c-1.6,0-3.2,0-4.9,0c-0.8,0-1.4-0.6-1.5-1.3
	c-0.4-2.6-0.9-5.2-1.3-7.8c0-0.2-0.1-0.5-0.4-0.5S38.5,107.9,38.6,107.6c0.4,0.2,0.8,0.2,0.9,0.8c0.4,2.6,0.9,5.2,1.3,7.8
	c0,0.4,0.2,0.5,0.6,0.5c1.7,0,3.3,0,5,0c0.4,0,0.5-0.1,0.6-0.5c0.4-2.6,0.9-5.1,1.3-7.7c0-0.3,0.2-0.6,0.5-0.8
	c0.6-0.4,0.9-1.1,0.7-1.8c-0.2-0.6-0.8-1-1.4-1c-0.6-0.1-1.1,0.2-1.3,0.7c-0.3,0.5-0.2,1.2,0.1,1.7c0.1,0.1,0.3,0.2,0.2,0.5
	c-0.2,0.7-0.5,1.4-1,1.9c-0.5,0.5-1,0.4-1.3-0.2c-0.3-0.7-0.4-1.4-0.4-2.2c0-0.6,0.2-1.2,0.6-1.7c0.5-0.5,0.6-1.3,0.1-1.9
	c-0.2-0.2-0.4-0.3-0.7-0.4c-0.7-0.3-1.4,0-1.9,0.5c-0.4,0.6-0.3,1.5,0.3,2c0.1,0.1,0.4,0.2,0.4,0.5c0.1,1,0.1,2.1-0.2,3.1
	c-0.3,0.8-1,0.9-1.5,0.2c-0.3-0.4-0.6-0.9-0.8-1.4c-0.2-0.3-0.1-0.6,0.1-0.8c0.5-0.6,0.5-1.5-0.1-2.1c-0.4-0.4-1-0.5-1.5-0.3
	c-0.6,0.2-1,0.7-1.1,1.3C38.2,106.7,38.4,107.2,38.6,107.6z"/>
<path class="st0" d="M245.2,142.3c-0.1,0.1-0.2,0.2-0.3,0.2c-0.6-0.2-0.7,0.3-0.8,0.7c-0.1,0.4-0.2,0.9-0.3,1.3
	c-0.2,0.8-0.2,0.8,0.7,0.8c0,0.5-0.1,0.6-0.6,0.6s-0.8-0.3-0.7-0.8c0.1-0.7,0.2-1.5,0.4-2.2c0-0.3,0.2-0.6-0.3-0.5
	c-0.1,0-0.2-0.1-0.2-0.2c0-0.1,0-0.3,0.2-0.3c0.6,0.1,0.6-0.3,0.7-0.7c0.1-0.4,0.3-0.6,0.7-0.5c0.1,0.1,0,0.2,0,0.3
	c-0.2,0.8-0.2,0.8,0.7,0.8L245.2,142.3z"/>
<path class="st0" d="M28.7,122.4c0.1,0.1,0.3,0.2,0.5,0.3c1.9,0.7,3.5,2.2,4.5,4c0.4,0.8,0.8,1.5,1.3,2.3c0.8,1.3,2,2.2,3.4,2.7
	v-0.7c0-4,0-8,0-12c0-0.4,0-0.6,0.5-0.6c3.4,0,6.8,0,10.2,0c0.3,0,0.6,0.1,0.7,0.3c0.9,0.8,1.3,1.9,1.2,3.1c0,5.3,0,10.6,0,15.9
	c0,0.5-0.1,0.6-0.6,0.6c-6.2,0-12.4,0-18.7,0c-2.2,0-4.4-1-5.8-2.7c-1.4-1.6-2.5-3.5-3-5.6c-0.1-0.4-0.2-0.8-0.4-1.2
	c-0.7-1.9-2.3-3.3-4.3-3.5c-0.4-0.1-0.3,0.2-0.3,0.4c0,2.6,0,5.2,0,7.7c0,1.5,0,2.9,0,4.4c0,0.4-0.1,0.5-0.5,0.5c-3.3,0-6.7,0-9.9,0
	c-0.2,0-0.5-0.1-0.6-0.2l0,0c-1.2-0.7-1.8-2-1.6-3.3c0.1-9.1,0-18.2,0-27.3c0-0.5,0.1-0.6,0.6-0.6c3.3,0,6.7,0,10,0
	c0.3,0,0.6,0.1,0.8,0.4c0.9,0.9,1.4,2.1,1.3,3.4c-0.1,2.4,0,4.8,0,7.2c0,0.6,0,0.6,0.6,0.4c2.9-1,5.2-3.4,6.1-6.4
	c0.5-1.5,0.7-3,0.7-4.5c0-0.4,0.1-0.5,0.5-0.5h10.1c0.1,0,0.2,0,0.3,0c0.5,0.5,1,1.1,1.3,1.7c0,2.2-0.5,4.4-1.4,6.5
	c-0.6,1.3-1.3,2.5-2.2,3.5C32.6,120.3,30.8,121.6,28.7,122.4z M26.7,122.1c3.7-1.5,6.6-4.5,8.1-8.2c0.8-2,1.3-4.2,1.3-6.4
	c0-0.3,0-0.5-0.4-0.5c-3.3,0-6.6,0-9.8,0c-0.3,0-0.4,0.1-0.4,0.4c0,1.3-0.2,2.6-0.5,3.8c-0.9,3.9-4,6.9-8,7.6
	c-0.6,0.1-0.6,0.1-0.6-0.6c0-3.6,0-7.1,0-10.7c0-0.4-0.1-0.6-0.5-0.6c-3.3,0-6.5,0-9.8,0c-0.5,0-0.5,0.1-0.5,0.6c0,9.5,0,19,0,28.5
	c0,0.4,0.1,0.5,0.6,0.5c3.2,0,6.5,0,9.7,0c0.5,0,0.7-0.1,0.6-0.6c0-3.9,0-7.8,0-11.7c0-0.5,0.1-0.6,0.6-0.6c2.4,0.1,4.5,1.6,5.3,3.9
	c0.6,1.3,0.8,2.8,1.4,4.2c1.1,3.1,4,5.1,7.2,4.9c6-0.1,12,0,17.9,0c0.5,0,0.6-0.1,0.6-0.6c0-5.6,0-11.1,0-16.7
	c0-0.5-0.1-0.6-0.6-0.6c-3.2,0-6.4,0-9.6,0c-0.5,0-0.6,0.1-0.6,0.6c0,4,0,8,0,12c0,0.5-0.1,0.6-0.5,0.4c-1.3-0.5-2.4-1.4-3.2-2.5
	c-0.4-0.7-0.8-1.4-1.2-2.1c-1-2.1-2.9-3.8-5.2-4.5L26.7,122.1z"/>
<path class="st0" d="M168.1,118.6L168.1,118.6c1.2,0.7,1.8,2,1.6,3.3c-0.1,5.3,0,10.5,0,15.7c0,0.4-0.1,0.6-0.6,0.6h-29.7
	c-1.6,0-3.1-0.6-4.3-1.7c-1.7-1.4-3.1-3.2-3.9-5.2c-0.2-0.5-0.4-1-0.5-1.5c-0.7-2.2-2.3-3.8-4.5-4.5l-0.5-0.2l-0.6-0.1v0.7
	c0,4,0,8,0,12c0,0.4-0.1,0.5-0.5,0.5c-3.6,0-7.3,0-10.9,0c-0.3,0-0.6-0.1-0.8-0.3c-0.3-0.2-0.5-0.5-0.8-0.7
	c-0.5-0.4-0.8-0.9-0.7-1.5c0-9.5,0-18.9,0-28.4c0-0.5,0.1-0.7,0.7-0.7c3.5,0,6.9,0.1,10.4,0c0.8,0,1.5,0.4,2,1
	c0.6,0.6,0.8,1.5,0.7,2.3c0,2.6,0,5.1,0,7.7v0.6c1.5-0.3,2.9-0.9,4.1-1.9l0.1,0.1c-1.5,1.2-3.3,2-5.3,2.2c-0.4,0-0.5,0-0.5-0.5
	c0-3.6,0-7.2,0-10.8c0-0.4-0.1-0.6-0.5-0.5c-3.6,0-7.2,0-10.8,0c-0.4,0-0.5,0.1-0.5,0.5c0,9.5,0,19,0,28.5c0,0.4,0.1,0.6,0.5,0.5
	c3.6,0,7.1,0,10.7,0c0.5,0,0.7-0.1,0.7-0.6c0-3.8,0-7.6,0-11.3c0-1.3,0-1.3,1.3-1.1c1.5,0.2,2.9,0.9,4,2c1.1,1.3,1.9,2.8,2.2,4.5
	c0.4,1.9,1.5,3.7,2.9,5c1,0.9,2.2,1.5,3.6,1.5c5.2,0,10.4,0,15.6,0h14.4c0.4,0,0.6,0,0.6-0.5C168.1,130.2,168.1,124.4,168.1,118.6
	L168.1,118.6z"/>
<path class="st0" d="M90.7,136c-0.9,0.5-2,0.9-3,1.1c-2.4,0.4-4.8-0.3-6.7-1.8c-3.5-2.6-4.9-7.3-3.3-11.4c1.4-3.3,4.6-5.4,8.1-5.5
	h13.8c0.3,0,0.6,0.1,0.8,0.3c1.1,0.9,1.7,2.2,1.5,3.6c-0.1,5.8,0,11.6,0,17.3c0.1,2.3-1.3,4.4-3.4,5.3c-0.9,0.3-1.8,0.5-2.8,0.4
	H80.3c-0.3,0-0.5-0.1-0.7-0.3c-0.6-0.6-1.3-1.1-1.6-1.8c-0.2-0.8-0.2-1.6-0.1-2.3c0-1,0-2,0-2.9c0-0.4,0.1-0.5,0.5-0.5
	c3.3,0,6.7,0,10,0c0.5,0,0.9,0,1.3-0.2C90.3,137.2,90.7,136.6,90.7,136z M100,128.8L100,128.8c0-3.2,0-6.3,0-9.5
	c0-0.5-0.1-0.6-0.6-0.6c-4.7,0-9.3,0-14,0c-0.5,0-1,0.1-1.5,0.2c-4.7,1.1-7.6,5.8-6.5,10.5c0,0.2,0.1,0.3,0.1,0.5
	c0.9,4.3,5.2,7.1,9.5,6.1c0.4-0.1,0.7-0.2,1.1-0.3c0.9-0.3,1.7-0.7,2.4-1.2c0.1-0.1,0.2-0.2,0.4-0.1c0.2,0.1,0.1,0.3,0.1,0.4
	c0,0.1,0,0.6,0,0.9c0.2,1.1-0.6,2.2-1.8,2.4c-0.2,0-0.3,0-0.5,0H78.6c-0.4,0-0.5,0-0.5,0.5c0,1.5,0,3,0,4.5c0,0.3,0.1,0.5,0.4,0.5
	c5.6,0,11.3,0,16.9,0c1.3,0,2.5-0.6,3.3-1.6c0.9-1.1,1.4-2.5,1.3-4C99.9,134.8,99.9,131.8,100,128.8L100,128.8z"/>
<path class="st0" d="M221.1,127.6c0-2.9,0-5.7,0-8.6c0-0.4,0-0.6,0.5-0.6c5.2,0,10.4,0,15.6,0c2.9,0.1,5.5,1.5,7.2,3.8
	c0.5,0.6,0.7,1.3,0.7,2.1c0,4.5,0,9,0,13.5c0,0.4-0.1,0.5-0.5,0.5c-3.1,0-6.2,0-9.3,0c-0.3,0-0.6-0.1-0.8-0.3
	c-0.9-0.7-1.4-1.8-1.3-3c0.1-3.4,0-6.9,0-10.3c0-0.4,0-0.6-0.5-0.5c-0.5,0-0.5,0.1-0.5,0.5c0,4.3,0,8.7,0,13c0,0.5-0.1,0.6-0.6,0.6
	c-2.7,0-5.5,0-8.2,0c-0.3,0-0.7-0.1-0.9-0.4c-1-0.7-1.5-1.9-1.3-3.1C221.2,132.5,221.1,130.1,221.1,127.6z M221.3,127.6
	c0,2.8,0,5.6,0,8.4c0,0.4,0.1,0.5,0.5,0.5c2.8,0,5.6,0,8.3,0c0.5,0,0.5-0.1,0.5-0.6c0-3.3,0-6.6,0-9.8c0-1.1,0-2.1,0-3.2
	c0-0.4,0.1-0.5,0.5-0.5c1.1-0.1,2.1,0.7,2.2,1.8c0,0.1,0,0.3,0,0.4c0,3.8,0,7.5,0,11.3c0,0.5,0.1,0.6,0.6,0.6c2.9,0,5.8,0,8.7,0
	c0.4,0,0.6-0.1,0.6-0.6c0-4.1,0-8.2,0-12.4c0-0.7-0.2-1.3-0.5-1.9c-1.1-1.9-3.1-3.1-5.3-3c-5.2,0-10.3,0-15.5,0
	c-0.4,0-0.5,0.1-0.5,0.5C221.3,122,221.3,124.8,221.3,127.6L221.3,127.6z"/>
<path class="st0" d="M52.1,127.6c0-2.9,0-5.7,0-8.6c0-0.4,0.1-0.5,0.5-0.5h16.9c0.9,0,1.7,0.2,2.4,0.7c1.3,0.7,2.4,1.6,3.4,2.7
	c0.6,0.7,1,1.5,0.9,2.4c0,4.5,0,9,0,13.5c0,0.4-0.1,0.6-0.6,0.6c-3,0-6,0-9,0c-0.3,0-0.5-0.1-0.7-0.3c-1.2-0.7-1.8-2-1.6-3.4
	c0.1-3.1,0-6.3,0-9.4c0-0.4-0.1-0.6-0.5-0.5c-1,0-1,0-1,1c0,4,0,8.1,0,12.1c0,0.4-0.1,0.6-0.5,0.5c-2.7,0-5.3,0-8,0
	c-0.3,0-0.6-0.1-0.8-0.3c-1.2-0.7-1.8-2.1-1.6-3.4C52.2,132.3,52.1,129.9,52.1,127.6z M61.4,118.7c-2.8,0-5.6,0-8.4,0
	c-0.4,0-0.6,0.1-0.6,0.6c0,5.6,0,11.2,0,16.8c0,0.4,0.1,0.5,0.6,0.5c2.7,0,5.5,0,8.2,0c0.4,0,0.5-0.1,0.5-0.6c0-3.8,0-7.7,0-11.5
	c0-1.5,0.1-1.6,1.6-1.3c0.9,0,1.5,0.7,1.5,1.6c0,0.1,0,0.2,0,0.2c0,3.7,0,7.3,0,10.9c0,0.4,0.1,0.6,0.5,0.6c3,0,6,0,9,0
	c0.5,0,0.5-0.1,0.5-0.6c0-4.2,0-8.4,0-12.6c0-0.3,0-0.7-0.1-1c-0.8-2.1-2.7-3.6-4.9-3.8L61.4,118.7z"/>
<path class="st0" d="M182.8,123.2c0,4.8,0,9.6,0,14.4c0,0.5,0,0.6-0.6,0.6c-3.2,0-6.3,0-9.5,0c-0.3,0-0.6-0.1-0.9-0.4
	c-0.9-0.7-1.3-1.7-1.2-2.8c0-9.2,0-18.5,0-27.7c0-0.5,0.1-0.6,0.6-0.6c3.1,0,6.2,0,9.3,0c0.4,0,0.8,0.2,1.1,0.4
	c0.8,0.6,1.2,1.5,1.1,2.5C182.8,114.2,182.8,118.7,182.8,123.2z M170.9,121.8c0,4.7,0,9.5,0,14.2c0,0.4,0.1,0.6,0.6,0.6
	c3,0,6,0,9.1,0c0.5,0,0.5-0.2,0.5-0.6c0-9.5,0-19,0-28.5c0-0.5-0.1-0.5-0.6-0.5c-3,0-6,0-9,0c-0.5,0-0.6,0.1-0.6,0.6
	C170.9,112.3,170.9,117,170.9,121.8z"/>
<path class="st0" d="M195.9,123.2c0,4.8,0,9.6,0,14.5c0,0.5-0.1,0.6-0.6,0.6c-3.2,0-6.3,0-9.5,0c-0.3,0-0.6-0.1-0.9-0.3
	c-0.8-0.7-1.3-1.7-1.2-2.8c0-9.2,0-18.5,0-27.7c0-0.6,0.2-0.7,0.7-0.7c3.1,0,6.1,0,9.2,0c0.5,0,0.9,0.2,1.2,0.5
	c0.7,0.6,1.1,1.5,1,2.4C195.9,114.1,195.9,118.7,195.9,123.2z M184.1,121.7c0,4.8,0,9.5,0,14.3c0,0.4,0.1,0.5,0.5,0.5
	c3,0,6.1,0,9.1,0c0.4,0,0.5-0.1,0.5-0.6c0-9.5,0-19,0-28.5c0-0.4-0.1-0.6-0.5-0.6c-3,0-6,0-9.1,0c-0.5,0-0.6,0.1-0.6,0.6
	C184.1,112.3,184.1,117,184.1,121.7z"/>
<path class="st0" d="M131.5,114c1.2-2.1,1.8-4.4,1.7-6.8c0-0.4,0.1-0.4,0.4-0.4h12.4c0.3,0,0.5,0.1,0.7,0.3c0.2,0.3,0.5,0.5,0.8,0.7
	c0.4,0.3,0.6,0.8,0.5,1.3c-0.3,5.4-3.5,10.2-8.3,12.7c-0.4,0.2-0.7,0.3-1.1,0.5c-0.4,0.1-0.7,0.2-1.1,0.3v0.1c1.9,0.8,3.4,2.4,4,4.4
	c0.9,2.6,3.3,4.4,6,4.8h0.4c-1.2-0.6-1-1.5-1-2.3c0-3.5,0-7,0-10.4c0-0.4,0.1-0.5,0.5-0.5c2.9,0,5.8,0,8.7,0c0.5,0,1,0.2,1.4,0.5
	c0.5,0.4,0.7,1,0.7,1.6c0,3.6,0,7.1,0,10.7c0,0.1,0,0.3,0,0.4c0,0.1,0.1,0.2,0.2,0.2c0,0,0,0,0,0c0.2,0,0.2-0.1,0.2-0.2
	c0-0.1,0-0.3,0-0.4c0-4.1,0-8.1,0-12.2c0-0.5,0.2-0.6,0.6-0.6c2.8,0,5.5,0,8.3,0c0.2,0,0.5-0.1,0.6,0.1l-0.1,0.1c-2.9,0-5.7,0-8.6,0
	c-0.5,0-0.6,0.2-0.6,0.6c0,3,0,6,0,9c0,1.2,0,2.3,0,3.5c0,0.4-0.1,0.5-0.5,0.4c-1.1-0.2-1.5-0.6-1.5-1.7c0-3.8,0-7.5,0-11.3
	c0-0.3,0-0.6-0.4-0.5c-3,0-5.9,0-8.9,0c-0.3,0-0.4,0.1-0.4,0.4c0,3.7,0,7.4,0,11.2c-0.1,0.6,0.2,1.1,0.7,1.3l0.9,0.5
	c-0.7,0.1-1.3,0-2-0.2c-2.6-0.5-4.8-2.4-5.6-5c-0.8-2.3-2.7-4-5-4.5c-0.5-0.1-1-0.2-1.6-0.4c0.8-0.3,1.5-0.5,2.2-0.7
	c5.5-2,9.2-7.1,9.5-12.9c0-1.5,0-1.5-1.4-1.5c-3.6,0-7.3,0-10.9,0c-0.4,0-0.6,0.1-0.5,0.6c0,0.5,0,1-0.1,1.5c-0.2,1.8-0.8,3.5-1.7,5
	L131.5,114z"/>
<path class="st0" d="M210.6,131.1c0.3-0.3,0.5-0.8,0.7-1.2c0.1-0.3,0.2-0.3,0.5-0.3c2.3,0,4.5,0,6.7,0c0.7,0,1.1,0.7,1.6,1.1
	c0.1,0.1,0,0.3-0.1,0.5c-1.2,3.4-4,6-7.6,6.9c-6,1.7-12.3-1.1-15.1-6.7c-2-3.7-1-8.2,2.4-10.8l0.1,0.1c-0.4,0.5-0.9,0.9-1.3,1.4
	c-1.3,1.5-2,3.4-1.9,5.3c0.1,2.2,1,4.4,2.7,5.9c4.2,4.1,10.7,4.7,15.6,1.6c1.7-1.1,3.1-2.7,3.7-4.7c0.1-0.5,0-0.6-0.5-0.6
	c-2,0-4.1,0-6.1,0c-0.3-0.1-0.6,0.1-0.7,0.4C211.2,130.5,210.9,130.9,210.6,131.1L210.6,131.1z"/>
<path class="st0" d="M199.7,120.6c1.7-1.6,3.8-2.6,6-2.9c5-0.9,10.1,1.2,13,5.3c1.1,1.6,1.8,3.4,1.8,5.3c0,0.4-0.1,0.5-0.5,0.5
	c-4.3,0-8.6,0-12.9,0c-0.6,0-0.6,0-0.5,0.6c0.3,1.4,1.7,2.3,3.1,2c0.3-0.1,0.6-0.2,0.8-0.4l0.1,0.1c-0.7,1-2,1.4-3.2,1.1
	c-1.8-0.6-3-2.2-3-4.1c0-0.7,0-0.7,0.7-0.7c4.6,0,9.1,0,13.7,0c0.5,0,0.6-0.1,0.5-0.6c-0.1-1.6-0.7-3.1-1.6-4.4
	c-3-3.9-7.9-5.7-12.7-4.6c-2,0.5-3.8,1.4-5.3,2.7L199.7,120.6z"/>
<path class="st0" d="M154.9,145.9c0.2-0.8,0.3-1.6,0.5-2.5c0-0.3,0.2-0.7-0.2-0.9c-0.4-0.2-0.7,0-1,0.3c-0.3,0.3-0.5,0.7-0.6,1.1
	c-0.1,0.5-0.3,1-0.3,1.5c0,0.6-0.3,0.7-0.9,0.5c0.3-1.2,0.6-2.4,0.8-3.7c0-0.1,0-0.3,0.3-0.3c0.3,0,0.4-0.2,0.4,0.2
	c0,0.4,0.1,0,0.2,0c0.3-0.2,0.6-0.3,1-0.3c0.5-0.1,0.9,0.2,1.1,0.6c0.3-0.3,0.7-0.5,1.1-0.6c0.6-0.2,1.2,0.2,1.3,0.8
	c0,0.2,0,0.3,0,0.5c-0.1,0.9-0.4,1.7-0.5,2.6c-0.1,0.4-0.3,0.2-0.5,0.2c-0.2,0-0.1-0.2-0.1-0.4c0.1-0.8,0.3-1.5,0.5-2.3
	c0.1-0.2,0-0.5-0.2-0.7c-0.2-0.2-0.5-0.2-0.8,0c-0.4,0.2-0.7,0.6-0.8,1.1c-0.1,0.6-0.3,1.2-0.4,1.8
	C155.6,146.1,155.4,146.1,154.9,145.9z"/>
<path class="st0" d="M203.8,146.1c-1.4,0-2.2-0.6-2.4-1.5c-0.1-0.4,0-0.6,0.5-0.5c0.2,0,0.2,0.1,0.3,0.3c0.1,0.7,0.3,0.9,1.1,1
	c0.6,0.2,1.2,0,1.6-0.5c0.2-0.3,0.2-0.8-0.2-1c-0.1,0-0.1-0.1-0.2-0.1c-0.4-0.2-0.9-0.3-1.3-0.5c-0.8-0.3-1.1-0.7-1.1-1.3
	c0-0.7,0.4-1.3,1.1-1.5c0.6-0.3,1.3-0.3,1.9,0c0.5,0.2,0.8,0.6,1,1.1c0,0.2,0.3,0.5-0.1,0.5c-0.4,0.1-0.6,0.2-0.7-0.3
	c-0.1-0.5-0.6-0.7-1.1-0.8c-0.5-0.1-1,0.2-1.3,0.6c-0.2,0.4,0,0.8,0.4,1c0,0,0.1,0,0.1,0c0.5,0.2,0.9,0.3,1.3,0.4
	c0.6,0.1,1,0.6,1.1,1.3c0.1,0.6-0.3,1.2-0.8,1.5C204.6,145.9,204.2,146.1,203.8,146.1z"/>
<path class="st0" d="M223,142.4c0.3-0.3,0.8-0.5,1.2-0.5c0.3,0,0.5,0.1,0.7,0.3c0.2,0.4,0.4,0.3,0.7,0.1c0.3-0.2,0.7-0.4,1-0.3
	c0.6,0,1,0.4,1.1,1c0,0.1,0,0.2,0,0.3c-0.1,0.9-0.4,1.7-0.5,2.5c-0.1,0.4-0.4,0.3-0.6,0.3c-0.2,0-0.1-0.3-0.1-0.4
	c0.1-0.8,0.3-1.5,0.5-2.3c0.1-0.8-0.3-1-0.9-0.7c-0.5,0.2-0.8,0.6-0.9,1.1c-0.2,0.7-0.3,1.3-0.4,2c-0.1,0.5-0.4,0.4-0.6,0.4
	c-0.3-0.1-0.1-0.3,0-0.5c0.1-0.7,0.3-1.3,0.4-2.1c0-0.3,0.2-0.6-0.2-0.8c-0.3-0.2-0.7-0.1-0.9,0.1c-0.4,0.3-0.6,0.7-0.7,1.1
	c-0.1,0.6-0.3,1.2-0.4,1.8c0,0.4-0.3,0.3-0.6,0.3s-0.1-0.3-0.1-0.4c0.2-1.1,0.5-2.2,0.7-3.2c0-0.3,0.2-0.3,0.4-0.3
	C223,142,223,142.1,223,142.4z"/>
<path class="st0" d="M146.8,145.9l3.1-5.3c0.2-0.4,0.6-0.2,0.9-0.2s0.2,0.3,0.3,0.5c0.3,1.6,0.6,3.1,0.8,4.7c0,0.1,0.2,0.4-0.1,0.4
	s-0.6,0.2-0.7-0.3c0-0.5-0.1-0.7-0.1-1s-0.2-0.4-0.5-0.4c-0.5,0-1.1,0-1.7,0c-0.2,0-0.5,0.1-0.6,0.3c-0.1,0.3-0.3,0.5-0.4,0.8
	C147.7,145.7,147.3,146.1,146.8,145.9z M150.3,141c-0.3,0.5-0.6,0.9-0.8,1.3s-0.8,0.9-0.5,1.2c0.2,0.3,0.9,0,1.3,0.1
	c0.4,0.1,0.4-0.1,0.3-0.4C150.6,142.6,150.5,141.9,150.3,141L150.3,141z"/>
<path class="st0" d="M211,145.5c-0.1,0.6-0.3,1.2-0.3,1.7s-0.3,0.3-0.5,0.3c-0.2,0-0.1-0.3-0.1-0.4c0.3-1.6,0.7-3.2,1-4.7
	c0-0.1,0-0.4,0.2-0.4c0.2,0,0.5-0.2,0.5,0.2c0,0.1,0,0.1,0.2,0c0.6-0.5,1.5-0.5,2.1,0c0.5,0.5,0.7,1.2,0.5,1.9
	c-0.1,0.5-0.3,1-0.7,1.3C213.1,146.3,211.8,146.3,211,145.5C211,145.5,211,145.5,211,145.5z M213.8,143.5c0.1-0.6-0.3-1.1-0.9-1.1
	c-0.2,0-0.4,0-0.6,0.1c-0.7,0.4-1.1,1.3-1,2.2c0.1,0.4,0.4,0.7,0.8,0.7c0.9,0,1.7-0.7,1.7-1.6C213.9,143.7,213.9,143.6,213.8,143.5
	L213.8,143.5z"/>
<path class="st0" d="M174,145.5c-0.4,0.4-1,0.7-1.5,0.6c-0.5,0-1-0.4-1.1-0.9c-0.1-0.6,0.2-1.2,0.7-1.3c0.5-0.1,1-0.2,1.5-0.3
	c0.3,0,0.5-0.1,0.7-0.3c0.2-0.2,0.2-0.6-0.1-0.8c0,0,0,0-0.1,0c-0.5-0.2-1.2-0.1-1.5,0.4c-0.1,0.2-0.4,0.3-0.6,0.2c0,0,0,0,0,0
	c-0.3-0.1,0-0.4,0-0.5c0.7-0.9,1.9-1.1,2.8-0.4c0.3,0.3,0.4,0.7,0.2,1.1c-0.1,0.6-0.3,1.2-0.4,1.8c0,0.2-0.1,0.4,0.1,0.4
	c0.5,0,0.3,0.3,0.2,0.5c-0.2,0.2-0.5,0.2-0.7,0C174,145.9,174,145.7,174,145.5z M174.2,144l-1.5,0.3c-0.4,0.1-0.7,0.3-0.6,0.7
	c0.1,0.4,0.4,0.5,0.8,0.5C173.7,145.5,174,145.1,174.2,144L174.2,144z"/>
<path class="st0" d="M161.3,144.2c-0.4,0-0.8,0-1.2,0c-0.4,0-0.4,0.1-0.4,0.4c0,0.4,0.3,0.7,0.7,0.8c0.5,0.2,1,0,1.3-0.3
	c0.1-0.1,0.1-0.2,0.2-0.3c0.2-0.1,0.4-0.1,0.6,0c0.2,0.1,0,0.3,0,0.4c-0.5,0.8-1.4,1.1-2.3,0.9c-0.7-0.2-1.2-1-1.1-1.7
	c-0.1-1.3,0.9-2.4,2.2-2.4c0,0,0.1,0,0.1,0c0.9,0.1,1.6,0.9,1.5,1.8c0,0.1,0,0.2-0.1,0.3c0,0.2-0.2,0.2-0.4,0.2L161.3,144.2z
	 M160.9,143.6c0.3,0,0.5,0,0.8,0c0.3,0,0.4-0.1,0.3-0.5c-0.1-0.3-0.3-0.6-0.7-0.6c-0.5-0.1-1,0.1-1.3,0.6c-0.1,0.1-0.2,0.3-0.2,0.4
	c0.1,0.2,0.3,0.1,0.4,0.1C160.6,143.7,160.7,143.6,160.9,143.6L160.9,143.6z"/>
<path class="st0" d="M185.8,142.8h2.5c0,0.5-0.1,0.7-0.7,0.7c-0.5-0.1-1.1,0-1.7,0c-0.3,0-0.4,0.1-0.4,0.3c-0.1,0.6-0.3,1.3-0.4,1.9
	c-0.1,0.6-0.4,0.3-0.6,0.3s-0.1-0.3-0.1-0.4c0.3-1.5,0.6-3.1,0.9-4.6c0.1-0.3,0.1-0.5,0.6-0.5c1,0,1.9,0,2.9,0
	c0.1,0,0.4-0.2,0.4,0.2s0,0.5-0.4,0.5c-0.7,0-1.5,0-2.2,0c-0.4,0-0.5,0.1-0.6,0.5S185.9,142.3,185.8,142.8z"/>
<path class="st0" d="M242.2,144.8c-0.3,1-1.4,1.6-2.4,1.3c-0.1,0-0.2-0.1-0.3-0.1c-0.3-0.1-0.5-0.4-0.6-0.6
	c-0.5-1.3,0.1-2.7,1.4-3.2c0.2-0.1,0.5-0.1,0.7-0.2c0.9,0,1.6,0.7,1.6,1.6c0,0.2,0,0.3-0.1,0.5c-0.1,0.3-0.2,0.2-0.4,0.2
	c-0.8,0-1.5,0-2.3,0c-0.3,0-0.4,0.1-0.4,0.4c0,0.4,0.2,0.7,0.6,0.8c0.5,0.2,1.1,0.1,1.4-0.3C241.5,144.8,241.9,144.7,242.2,144.8z
	 M239.5,143.6h1.8c0.5,0,0.6-0.1,0.4-0.6c-0.1-0.2-0.3-0.4-0.5-0.5c-0.7-0.2-1.4,0.2-1.7,0.9C239.6,143.5,239.5,143.6,239.5,143.6z"
	/>
<path class="st0" d="M218.5,144.8c-0.2,1-1.2,1.6-2.2,1.3c0,0,0,0,0,0c-0.8-0.1-1.4-0.9-1.3-1.7c0,0,0,0,0,0
	c-0.1-1.3,0.9-2.4,2.2-2.5c0.1,0,0.1,0,0.2,0c0.9,0.1,1.6,0.9,1.5,1.8c0,0.1,0,0.2-0.1,0.3c-0.1,0.2-0.2,0.2-0.4,0.2
	c-0.8,0-1.5,0-2.3,0c-0.4,0-0.5,0.1-0.4,0.5c0,0.4,0.3,0.7,0.7,0.8c0.5,0.2,1,0.1,1.3-0.3C217.8,144.9,218.1,144.7,218.5,144.8z
	 M215.8,143.6h2c0.2,0,0.3-0.1,0.2-0.3c0-0.4-0.4-0.8-0.8-0.8C216.6,142.5,215.9,143,215.8,143.6L215.8,143.6z"/>
<path class="st0" d="M228.6,143.2c0-0.6,0.4-1.1,1-1.2c0.6-0.3,1.4-0.2,1.9,0.2c0.2,0.2,0.3,0.5,0.3,0.8c-0.1,0.7-0.2,1.3-0.4,2
	c0,0.2-0.2,0.5,0.2,0.6c0.2,0,0.1,0.3,0,0.4c-0.2,0.2-0.5,0.2-0.7,0c-0.1-0.1-0.2-0.3-0.3-0.4c-0.3,0.4-0.8,0.6-1.3,0.5
	c-0.7,0-1.1-0.3-1.1-0.9c-0.1-0.6,0.2-1.2,0.8-1.3c0,0,0,0,0,0c0.5-0.1,1-0.2,1.5-0.2c0.4,0,0.7-0.1,0.7-0.6c0-0.5-0.4-0.5-0.8-0.5
	c-0.4-0.1-0.9,0.1-1.1,0.5C229.1,143.4,228.9,143.2,228.6,143.2z M230.9,144l-0.8,0.2l-0.8,0.1c-0.4,0.1-0.7,0.3-0.6,0.7
	c0.1,0.4,0.4,0.5,0.8,0.5C230.2,145.5,230.7,145.1,230.9,144L230.9,144z"/>
<path class="st0" d="M236.5,143.9c-0.6,0.3-1,0.8-1,1.5c0,0.6-0.1,0.6-0.8,0.6l0.8-3.6c0.1-0.5,0.2-1,0.3-1.6
	c0.1-0.5,0.3-0.3,0.6-0.3c0.2,0,0.1,0.3,0.1,0.5c-0.2,0.9-0.4,1.7-0.6,2.7c1.1-0.4,1.5-1.7,2.9-1.5c-0.5,0.4-0.9,0.8-1.3,1.1
	c-0.3,0.1-0.4,0.5-0.3,0.7c0,0,0,0.1,0,0.1c0.3,0.6,0.5,1.3,0.8,2c-0.5,0.1-0.8,0.1-0.9-0.5C237,145,236.8,144.4,236.5,143.9z
	 M236,143.6L236,143.6L236,143.6L236,143.6z"/>
<path class="st0" d="M207.7,142c-0.2,0.9-0.4,1.8-0.5,2.7c-0.1,0.6,0.2,0.9,0.9,0.8c0.6-0.1,1.1-0.7,1.2-1.3
	c0.1-0.6,0.3-1.2,0.3-1.8c0-0.4,0.3-0.4,0.6-0.4c0.3,0,0.1,0.3,0.1,0.4c-0.2,1.1-0.5,2.2-0.7,3.2c0,0.3-0.2,0.4-0.5,0.3
	s-0.1-0.3-0.2-0.5c-0.4,0.3-0.9,0.5-1.4,0.5c-0.5,0-1-0.4-1.1-0.9c0-0.1,0-0.2,0-0.3c0.1-0.9,0.3-1.8,0.5-2.7
	C207.1,141.8,207.4,142.1,207.7,142z"/>
<path class="st0" d="M194.5,146.1c-0.9,0-1.5-0.3-1.6-1c0-0.1-0.2-0.4,0.1-0.4c0.3,0,0.4-0.1,0.5,0.2c0.3,0.6,1,0.8,1.5,0.5
	c0,0,0,0,0,0c0.5-0.2,0.5-0.7,0.1-0.9c-0.3-0.2-0.7-0.4-1-0.5c-0.4-0.2-0.9-0.4-0.8-1c0.1-0.6,0.5-0.8,1-1c0.6-0.2,1.3-0.1,1.8,0.4
	c0.2,0.2,0.4,0.5,0.1,0.8s-0.5,0-0.7-0.3c-0.2-0.3-1.2-0.5-1.5-0.1c-0.2,0.1-0.2,0.4,0,0.5c0,0,0.1,0.1,0.2,0.1
	c0.3,0.1,0.6,0.3,0.9,0.4c0.8,0.3,1.1,0.7,1,1.3c-0.1,0.7-0.6,1-1.3,1.1L194.5,146.1z"/>
<path class="st0" d="M179.6,146.1c-0.9,0-1.4-0.3-1.6-0.9c0-0.1-0.2-0.4,0.1-0.4s0.4-0.1,0.6,0.2c0.3,0.6,1,0.8,1.5,0.5
	c0,0,0.1,0,0.1,0c0.3-0.1,0.4-0.4,0.3-0.6c0-0.1-0.1-0.2-0.2-0.3c-0.3-0.2-0.7-0.4-1-0.5c-0.5-0.2-0.9-0.4-0.9-1.1
	c0.1-0.6,0.4-0.8,1.1-1c0.7-0.3,1.5,0.1,1.9,0.7c0,0.2,0.2,0.4,0,0.5c-0.2,0.1-0.4,0.2-0.6-0.2c-0.3-0.5-0.9-0.7-1.4-0.4
	c0,0-0.1,0-0.1,0.1c-0.2,0.1-0.3,0.3-0.2,0.5c0,0.1,0.1,0.1,0.2,0.2c0.3,0.2,0.6,0.3,0.9,0.4c0.8,0.3,1.1,0.7,1,1.3
	c-0.1,0.6-0.6,0.9-1.3,1L179.6,146.1z"/>
<path class="st0" d="M169.6,141.9c0.6-0.1,1.3,0.3,1.5,0.9c0,0.1,0.3,0.4,0,0.4c-0.3,0-0.5,0.2-0.6-0.2c-0.1-0.5-0.6-0.7-1.1-0.6
	c0,0-0.1,0-0.1,0c-0.9,0.4-1.4,1.5-1.1,2.4c0.3,0.5,1.1,0.7,1.6,0.3c0.1-0.1,0.2-0.1,0.3-0.2c0.1-0.1,0.1-0.2,0.2-0.3
	c0.2-0.1,0.4-0.1,0.6,0c0.1,0.1,0,0.3-0.1,0.4c-0.4,0.8-1.4,1.2-2.3,0.9c-0.8-0.2-1.2-1-1-1.8C167.4,143,168.3,141.9,169.6,141.9z"
	/>
<path class="st0" d="M198.3,145.5c0,0.5-0.3,0.6-0.7,0.6c-0.4,0-0.8-0.3-0.7-0.7c0.1-0.7,0.3-1.4,0.4-2.2c0-0.3,0.2-0.7-0.4-0.6
	c-0.1,0-0.2-0.1-0.1-0.2c0-0.1,0.1-0.3,0.3-0.3c0.5,0.1,0.6-0.2,0.6-0.6c0-0.2,0.1-0.3,0.1-0.5c0.1-0.2,0.3-0.1,0.5-0.1
	s0.1,0.2,0.1,0.3c0,0.1,0,0.3-0.1,0.4c-0.1,0.4-0.1,0.6,0.4,0.5c0.1,0,0.3-0.1,0.3,0.2c0,0.3,0,0.4-0.3,0.4
	c-0.6-0.1-0.7,0.2-0.7,0.7c-0.1,0.4-0.2,0.9-0.3,1.3C197.5,145.4,197.5,145.4,198.3,145.5z"/>
<path class="st0" d="M233.7,142.4c0.3-0.3,0.7-0.5,1.1-0.5c0.1,0,0.3-0.1,0.3,0.1c0,0.2,0.1,0.5-0.3,0.5c-1.2,0-1.5,0.9-1.7,1.8
	c-0.1,0.4-0.2,0.9-0.3,1.3c0,0.4-0.3,0.4-0.5,0.3s-0.2-0.3-0.1-0.5c0.2-1.1,0.4-2.1,0.6-3.1c0-0.2,0.1-0.4,0.4-0.4
	C233.6,142,233.6,142.2,233.7,142.4z M233.7,142.5L233.7,142.5L233.7,142.5L233.7,142.5L233.7,142.5z"/>
<path class="st0" d="M220.5,142.4c0.3-0.3,0.7-0.5,1.1-0.5c0.1,0,0.3-0.1,0.3,0.1c0,0.2,0.1,0.5-0.3,0.5c-1.2,0-1.5,0.8-1.7,1.8
	c-0.1,0.5-0.2,0.9-0.3,1.3c-0.1,0.4-0.3,0.3-0.5,0.3s-0.2-0.3-0.2-0.4c0.2-1.1,0.4-2.2,0.7-3.3c0-0.3,0.2-0.3,0.4-0.3s0.4,0,0.3,0.3
	c-0.1,0.1-0.1,0.2,0,0.3L220.5,142.4z"/>
<path class="st0" d="M191.8,142.4c0.3-0.3,0.7-0.5,1.1-0.5c0.1,0,0.4-0.1,0.3,0.1s0.1,0.5-0.2,0.5c-1.1,0-1.4,0.7-1.6,1.6
	c-0.1,0.4-0.2,0.9-0.3,1.3c0,0.5-0.3,0.6-0.8,0.5c0.3-1.2,0.5-2.5,0.7-3.7c0-0.3,0.3-0.2,0.4-0.3
	C191.9,141.9,191.6,142.3,191.8,142.4z"/>
<path class="st0" d="M164.5,142.4c0.3-0.3,0.7-0.5,1.1-0.5c0.1,0,0.3-0.1,0.3,0.2s0.1,0.5-0.2,0.5c-1.2,0-1.5,0.9-1.7,1.9
	c-0.1,0.4-0.2,0.8-0.3,1.2c-0.1,0.4-0.3,0.3-0.5,0.3c-0.2,0-0.1-0.3-0.1-0.4c0.2-1.1,0.4-2.2,0.6-3.2c0-0.3,0.2-0.3,0.5-0.3
	S164.5,142.2,164.5,142.4z M164.5,142.4L164.5,142.4L164.5,142.4L164.5,142.4L164.5,142.4z"/>
<path class="st0" d="M167.1,142c-0.3,1.2-0.6,2.4-0.8,3.6c-0.1,0.4-0.4,0.3-0.6,0.3c-0.2,0-0.1-0.3-0.1-0.4c0.2-1,0.4-2,0.6-2.9
	C166.4,142.1,166.6,141.9,167.1,142z"/>
<path class="st0" d="M189,146c-0.3,0-0.3,0-0.3-0.3c0.2-1.1,0.5-2.3,0.7-3.4c0.1-0.4,0.3-0.3,0.5-0.3c0.2,0,0.1,0.3,0.1,0.4
	c-0.2,1.1-0.5,2.2-0.7,3.2C189.3,145.9,189.3,146,189,146z"/>
<path class="st0" d="M177.1,140.5c0.5-0.1,0.6,0,0.5,0.4c-0.1,0.4-0.2,1.1-0.7,1.4c-0.1,0-0.3,0.2-0.4,0.1c-0.1-0.1,0-0.3,0.2-0.4
	c0.2-0.1,0.7-0.4,0.1-0.8c-0.2-0.1,0-0.4,0-0.6S177.1,140.5,177.1,140.5z"/>
<path class="st0" d="M166.9,141.2c-0.1,0-0.4,0.1-0.3-0.2c0.1-0.3,0-0.7,0.4-0.6c0.1,0,0.4-0.1,0.3,0.2
	C167.3,140.9,167.4,141.3,166.9,141.2z"/>
<path class="st0" d="M189.6,141.2c0.1-0.3-0.1-0.8,0.5-0.8c0.4,0,0.2,0.3,0.2,0.5C190.3,141.5,189.9,141.1,189.6,141.2z"/>
<path class="st0" d="M129.3,116.5l1.4-1.4l0.1,0.1c-0.4,0.6-0.9,1-1.4,1.4L129.3,116.5z"/>
<path class="st0" d="M131,114.6l0.4-0.7l0.1,0.1c-0.1,0.3-0.2,0.5-0.4,0.7L131,114.6z"/>
<path class="st0" d="M130.7,115l0.3-0.4l0.1,0.1c-0.1,0.2-0.2,0.3-0.3,0.4L130.7,115z"/>
<path class="st1" d="M38.6,107.6c-0.3-0.4-0.4-0.9-0.4-1.3c0-0.6,0.5-1.2,1.1-1.3c0.8-0.3,1.6,0.2,1.9,0.9c0.2,0.5,0.1,1-0.2,1.4
	c-0.2,0.2-0.3,0.6-0.1,0.8c0.2,0.5,0.5,1,0.8,1.4c0.6,0.7,1.2,0.6,1.5-0.2c0.3-1,0.4-2,0.2-3.1c0-0.3-0.3-0.3-0.4-0.5
	c-0.6-0.5-0.7-1.3-0.3-2c0.4-0.6,1.2-0.8,1.9-0.5c0.7,0.2,1.1,0.9,1,1.6c-0.1,0.3-0.2,0.5-0.4,0.7c-0.4,0.4-0.7,1-0.6,1.7
	c0,0.8,0.1,1.5,0.4,2.2c0.3,0.7,0.8,0.7,1.3,0.2c0.5-0.5,0.8-1.2,1-1.9c0.1-0.2-0.1-0.3-0.2-0.5c-0.4-0.5-0.4-1.1-0.1-1.7
	c0.3-0.5,0.8-0.8,1.3-0.7c0.7,0,1.2,0.4,1.4,1c0.2,0.7-0.1,1.5-0.7,1.8c-0.3,0.1-0.5,0.4-0.5,0.8c-0.4,2.6-0.9,5.1-1.3,7.7
	c0,0.4-0.2,0.5-0.6,0.5c-1.7,0-3.3,0-5,0c-0.4,0-0.5-0.2-0.6-0.5c-0.4-2.6-0.9-5.2-1.3-7.8C39.4,107.8,39,107.7,38.6,107.6
	L38.6,107.6z"/>
<path class="st1" d="M26.7,122.1l1.8,0.6c2.3,0.7,4.1,2.3,5.2,4.5c0.4,0.7,0.7,1.4,1.2,2.1c0.8,1.2,1.9,2.1,3.2,2.5
	c0.5,0.2,0.5,0,0.5-0.4c0-4,0-8,0-12c0-0.5,0.1-0.6,0.6-0.6c3.2,0,6.4,0,9.6,0c0.5,0,0.6,0.2,0.6,0.6c0,5.6,0,11.1,0,16.7
	c0,0.5-0.1,0.6-0.6,0.6c-6,0-12-0.1-17.9,0c-3.2,0.2-6.2-1.8-7.2-4.9c-0.6-1.3-0.9-2.8-1.4-4.2c-0.8-2.3-2.9-3.8-5.3-3.8
	c-0.5,0-0.6,0.1-0.6,0.6c0,3.9,0,7.8,0,11.7c0,0.5-0.1,0.6-0.6,0.6c-3.2,0-6.5,0-9.7,0c-0.4,0-0.6-0.1-0.6-0.5c0-9.5,0-19,0-28.5
	c0-0.4,0.1-0.6,0.5-0.6c3.3,0,6.5,0,9.8,0c0.4,0,0.5,0.1,0.5,0.6c0,3.6,0,7.1,0,10.7c0,0.7,0,0.6,0.6,0.6c4-0.7,7.1-3.7,8-7.6
	c0.3-1.2,0.5-2.5,0.5-3.8c0-0.3,0.1-0.4,0.4-0.4c3.3,0,6.6,0,9.8,0c0.4,0,0.4,0.2,0.4,0.5c-0.1,2.2-0.5,4.4-1.3,6.4
	C33.3,117.6,30.4,120.6,26.7,122.1L26.7,122.1z"/>
<path class="st1" d="M130.8,115.2c0.1-0.1,0.3-0.3,0.3-0.4c0.2-0.2,0.3-0.4,0.4-0.7c1-1.5,1.6-3.2,1.7-5c0.1-0.5,0.1-1,0.1-1.5
	c0-0.4,0.1-0.6,0.5-0.6c3.6,0,7.3,0,10.9,0c1.5,0,1.5,0,1.4,1.5c-0.3,5.8-4,10.9-9.5,12.9c-0.7,0.3-1.4,0.5-2.2,0.7
	c0.6,0.1,1.1,0.2,1.6,0.4c2.3,0.5,4.2,2.2,5,4.5c0.8,2.5,3,4.4,5.6,5c0.6,0.2,1.3,0.2,2,0.2l-0.9-0.5c-0.5-0.2-0.8-0.8-0.7-1.3
	c0-3.7,0-7.4,0-11.2c0-0.3,0.1-0.4,0.4-0.4c3,0,5.9,0,8.9,0c0.5,0,0.4,0.2,0.4,0.5c0,3.8,0,7.5,0,11.3c0,1.1,0.4,1.5,1.5,1.7
	c0.4,0.1,0.5,0,0.5-0.4c0-1.2,0-2.3,0-3.5c0-3,0-6,0-9c0-0.5,0.1-0.6,0.6-0.6c2.9,0,5.7,0,8.6,0c0,5.8,0,11.6,0,17.4
	c0,0.5-0.2,0.5-0.6,0.5h-14.4c-5.2,0-10.4,0-15.6,0c-1.3-0.1-2.6-0.6-3.6-1.5c-1.5-1.3-2.5-3.1-2.9-5c-0.4-1.6-1.1-3.2-2.2-4.5
	c-1.1-1.1-2.5-1.8-4-2c-1.3-0.2-1.3-0.2-1.3,1.1c0,3.8,0,7.6,0,11.3c0,0.5-0.2,0.7-0.7,0.6c-3.6,0-7.1,0-10.7,0
	c-0.4,0-0.5-0.1-0.5-0.5c0-9.5,0-19,0-28.5c0-0.4,0.1-0.6,0.5-0.5c3.6,0,7.2,0,10.8,0c0.4,0,0.6,0.1,0.5,0.5c0,3.6,0,7.2,0,10.8
	c0,0.4,0.2,0.6,0.5,0.5c1.9-0.2,3.8-0.9,5.3-2.2C129.9,116.2,130.4,115.7,130.8,115.2z"/>
<path class="st1" d="M99.9,128.7c0,3,0,6,0,9.1c0.1,1.5-0.4,2.9-1.3,4c-0.8,1-2,1.6-3.3,1.6c-5.6,0-11.3,0-16.9,0
	c-0.3,0-0.4-0.1-0.4-0.5c0-1.5,0-3,0-4.5c0-0.4,0.2-0.5,0.5-0.5h10.1c1.2,0.1,2.2-0.8,2.3-1.9c0-0.2,0-0.3,0-0.5c0-0.3,0-0.6,0-0.9
	s0.1-0.3-0.1-0.4c-0.1-0.1-0.3,0.1-0.4,0.1c-0.7,0.5-1.5,0.9-2.4,1.2c-4.1,1.5-8.7-0.6-10.3-4.8c-0.1-0.4-0.2-0.7-0.3-1.1
	c-1.4-4.6,1.2-9.5,5.9-10.8c0.2-0.1,0.3-0.1,0.5-0.1c0.5-0.1,1-0.2,1.5-0.2c4.7,0,9.3,0,14,0c0.5,0,0.6,0.1,0.6,0.6
	C100,122.4,100,125.6,99.9,128.7L99.9,128.7z M90.4,130.6l0.1-0.1l0.2-0.2c0.1-0.2,0.1-0.3,0.1-0.5c0-2,0-4.1,0-6.1
	c0-0.3-0.1-0.5-0.3-0.7c-0.9-0.9-2.3-0.9-3.2,0c-0.1,0.1-0.3,0.3-0.4,0.5c-0.9,1.3-1.2,2.9-0.9,4.5c0.1,0.9,0.5,1.7,1,2.4
	c0.6,0.9,1.8,1.3,2.8,0.8l0.3-0.2l0.2-0.2L90.4,130.6z"/>
<path class="st1" d="M221.3,127.6c0-2.8,0-5.6,0-8.4c0-0.4,0.1-0.5,0.5-0.5c5.2,0,10.4,0,15.5,0c2.2,0,4.2,1.1,5.3,3
	c0.3,0.6,0.5,1.2,0.5,1.9c0,4.1,0,8.2,0,12.4c0,0.5-0.1,0.6-0.6,0.6c-2.9,0-5.8,0-8.7,0c-0.5,0-0.6-0.1-0.6-0.6c0-3.8,0-7.5,0-11.3
	c0.1-1.1-0.7-2.1-1.8-2.2c-0.1,0-0.3,0-0.4,0c-0.4,0-0.5,0.1-0.5,0.5c0,1.1,0,2.1,0,3.2c0,3.3,0,6.6,0,9.8c0,0.4-0.1,0.6-0.5,0.6
	c-2.8,0-5.6,0-8.3,0c-0.4,0-0.5-0.1-0.5-0.5C221.3,133.2,221.3,130.4,221.3,127.6z"/>
<path class="st1" d="M61.4,118.7h8.3c2.2,0.2,4.1,1.7,4.9,3.8c0.1,0.3,0.1,0.7,0.1,1c0,4.2,0,8.4,0,12.6c0,0.4-0.1,0.6-0.5,0.6
	c-3,0-6,0-9,0c-0.5,0-0.5-0.1-0.5-0.6c0-3.7,0-7.3,0-10.9c0.2-0.8-0.4-1.6-1.2-1.8c-0.1,0-0.2,0-0.2,0c-1.5-0.3-1.6-0.2-1.6,1.3
	c0,3.8,0,7.7,0,11.5c0,0.4-0.1,0.6-0.5,0.6c-2.7,0-5.5,0-8.2,0c-0.4,0-0.6-0.1-0.6-0.5c0-5.6,0-11.2,0-16.8c0-0.5,0.1-0.6,0.6-0.6
	C55.7,118.7,58.5,118.7,61.4,118.7z"/>
<path class="st1" d="M170.9,121.8c0-4.7,0-9.5,0-14.2c0-0.5,0.1-0.6,0.6-0.6c3,0,6,0,9,0c0.4,0,0.6,0.1,0.6,0.5c0,9.5,0,19,0,28.5
	c0,0.4-0.1,0.6-0.5,0.6c-3,0-6,0-9.1,0c-0.5,0-0.6-0.2-0.6-0.6C170.9,131.2,170.9,126.5,170.9,121.8z"/>
<path class="st1" d="M184.1,121.7c0-4.7,0-9.5,0-14.2c0-0.5,0.1-0.6,0.6-0.6c3,0,6,0,9.1,0c0.5,0,0.5,0.1,0.5,0.6c0,9.5,0,19,0,28.5
	c0,0.4-0.1,0.6-0.5,0.6c-3,0-6.1,0-9.1,0c-0.4,0-0.5-0.1-0.5-0.5C184.1,131.3,184.1,126.5,184.1,121.7z"/>
<path class="st1" d="M199.8,120.8c1.5-1.3,3.4-2.2,5.3-2.7c4.8-1.1,9.7,0.7,12.7,4.6c0.9,1.3,1.5,2.8,1.6,4.4c0,0.4-0.1,0.6-0.5,0.6
	c-4.6,0-9.1,0-13.7,0c-0.7,0-0.7,0-0.7,0.7c0,1.9,1.2,3.5,3,4.1c1.2,0.3,2.5-0.1,3.2-1.1c0.3-0.3,0.5-0.6,0.6-1
	c0.1-0.3,0.4-0.5,0.7-0.4c2,0,4.1,0,6.1,0c0.5,0,0.6,0.1,0.5,0.6c-0.6,1.9-1.9,3.6-3.7,4.7c-5,3.1-11.4,2.5-15.6-1.6
	c-1.6-1.6-2.6-3.7-2.7-5.9c0-2,0.7-3.9,1.9-5.3C198.9,121.7,199.4,121.2,199.8,120.8z M208.2,125.2c0.9,0,1.9,0,2.8,0
	c0.4,0,0.5-0.1,0.4-0.5c-0.4-1.4-1.7-2.4-3.2-2.5c-1.5,0.1-2.8,1.1-3.2,2.6c-0.1,0.3,0,0.4,0.3,0.4H208.2z"/>
<path class="st2" d="M164.5,142.5L164.5,142.5L164.5,142.5L164.5,142.5L164.5,142.5z"/>
<path class="st0" d="M89.7,131.1c-1,0.5-2.2,0.1-2.8-0.8c-0.5-0.7-0.9-1.5-1-2.4c-0.3-1.5,0-3.2,0.9-4.5c0.6-1.1,2-1.4,3.1-0.8
	c0.2,0.1,0.3,0.2,0.5,0.4c0.2,0.2,0.3,0.4,0.3,0.7c0,2,0,4.1,0,6.1c0,0.2,0,0.4-0.1,0.5l-0.1-0.1c0-1.5,0-3.1,0-4.6
	c0-0.3-0.1-0.6-0.3-0.8c-0.5-0.8-1.6-1-2.4-0.5c-0.3,0.2-0.5,0.4-0.6,0.7c-1,1.5-1,3.4-0.1,5c0.4,1,1.6,1.4,2.6,1L89.7,131.1z"/>
<path class="st0" d="M90.1,130.9l-0.3,0.2l-0.1-0.1L90.1,130.9L90.1,130.9z"/>
<path class="st0" d="M90.3,130.7l-0.2,0.2l-0.1-0.1L90.3,130.7L90.3,130.7z"/>
<path class="st0" d="M90.6,130.3l-0.2,0.2l-0.1-0.1l0.1-0.2L90.6,130.3z"/>
<path class="st0" d="M90.5,130.5l-0.1,0.1l-0.1-0.1L90.5,130.5L90.5,130.5z"/>
<path class="st0" d="M90.4,130.6l-0.1,0.1l-0.1-0.1L90.4,130.6L90.4,130.6z"/>
<path class="st0" d="M208.2,125.2h-2.9c-0.3,0-0.4-0.1-0.3-0.4c0.4-1.5,1.7-2.5,3.2-2.6c1.5,0.1,2.8,1.1,3.2,2.5
	c0.1,0.4,0,0.5-0.4,0.5C210.1,125.2,209.1,125.2,208.2,125.2z M211.1,125c-0.1-1-1-1.8-2-1.7c-1,0-1.9,0.7-2.2,1.7H211.1z"/>
</svg>
