<?xml version="1.0" encoding="utf-8"?>
<!-- Generator: Adobe Illustrator 21.1.0, SVG Export Plug-In . SVG Version: 6.00 Build 0)  -->
<svg version="1.1" id="Layer_1" xmlns="http://www.w3.org/2000/svg" xmlns:xlink="http://www.w3.org/1999/xlink" x="0px" y="0px"
	 viewBox="0 0 250 250" style="enable-background:new 0 0 250 250;" xml:space="preserve">
<style type="text/css">
	.st0{fill:#E82E2C;}
</style>
<title>Mass</title>
<path class="st0" d="M185.9,55c0,0.3-0.2,0.3-0.3,0.5l-51.2,51.2c-0.6,0.6-0.6,0.6,0,1.2l51.1,51l0.5,0.5c-0.2,0.1-0.4,0.1-0.6,0.1
	h-64.1c-0.4,0-0.8-0.2-1.1-0.5c-6.6-6.6-13.3-13.2-19.9-19.8c-0.2-0.2-0.4-0.4-0.7-0.5v0.7c0,6.4,0,12.9,0,19.3
	c0,0.6-0.1,0.8-0.7,0.8c-14.9,0-29.7,0-44.6,0c-0.5,0-0.7-0.1-0.7-0.7c0-34.4,0-68.7,0-103.1c0-0.5,0.1-0.7,0.7-0.7
	c14.9,0,29.8,0,44.7,0c0.6,0,0.7,0.2,0.7,0.7c0,6.5,0,13,0,19.4c0,0.2-0.1,0.5,0.1,0.6s0.4-0.2,0.6-0.4c6.6-6.6,13.3-13.3,19.9-19.9
	c0.3-0.3,0.7-0.5,1.2-0.5c21.4,0,42.7,0,64.1,0H185.9z"/>
<path class="st0" d="M89.7,176.9c0.4-0.5,0.7-1,1.1-1.5c1.6-1.8,3.8-2.8,6.1-2.9c3.4-0.2,5.8,1.3,7.3,4.2c0.3,0.6,0.4,0.3,0.6,0
	c2.6-3.7,7.4-5.2,11.7-3.6c3.1,1.1,4.6,3.5,5,6.7c0.2,1.6,0.2,3.2,0.1,4.8c0,3,0,6.1,0,9.1c0,0.5-0.2,0.7-0.7,0.6c-2,0-4,0-6,0
	c-0.5,0-0.7-0.1-0.7-0.7c0-3.7,0-7.4,0-11.1c0-0.8-0.1-1.6-0.4-2.3c-0.9-2.1-3.3-3-5.4-2.2c-0.5,0.2-1,0.6-1.4,1
	c-1.1,0.9-1.7,2.3-1.7,3.7c0,3.6,0,7.1,0,10.7c0,0.8,0,0.8-0.8,0.8c-1.9,0-3.9,0-5.8,0c-0.6,0-0.7-0.1-0.7-0.7c0-3.6,0-7.3,0-10.9
	c0-0.8-0.1-1.5-0.3-2.3c-0.6-1.9-2.6-3-4.5-2.5c-0.2,0.1-0.5,0.2-0.7,0.3c-1.5,0.8-2.5,2.3-2.8,4.1c-0.1,0.6-0.1,1.2-0.1,1.7
	c0,3.2,0,6.4,0,9.6c0,0.5-0.1,0.7-0.7,0.7c-2.1,0-4.2,0-6.3,0c-0.5,0-0.7-0.1-0.7-0.6c0-6.6,0-13.3,0-19.9c0-0.5,0.2-0.6,0.6-0.6
	c2,0,4.1,0,6.1,0c0.5,0,0.6,0.1,0.6,0.6c0,1,0,2,0,3L89.7,176.9z"/>
<path class="st0" d="M61.1,182.4l0.6-0.6c2.8-2.7,5.6-5.4,8.4-8.1c0.3-0.3,0.7-0.5,1.1-0.5c2.6,0,5.1,0,7.7,0h0.6
	c0,0.3-0.3,0.4-0.4,0.6c-2.8,2.7-5.6,5.4-8.5,8c-0.4,0.3-0.4,0.5-0.1,1c3.3,3.6,6.5,7.2,9.8,10.9l0.4,0.5c-0.2,0.2-0.4,0.1-0.6,0.1
	c-3,0-6.1,0-9.1,0c-0.4,0-0.7-0.1-0.9-0.4c-2.9-3.4-5.8-6.8-8.6-10.2c-0.1-0.1-0.2-0.3-0.4-0.4c-0.2,0.2-0.1,0.4-0.1,0.6
	c0,3.2,0,6.5,0,9.7c0,0.5-0.1,0.6-0.6,0.6c-2.2,0-4.3,0-6.5,0c-0.5,0-0.6-0.1-0.6-0.6c0-9,0-18.1,0-27.1c0-0.5,0.1-0.6,0.6-0.6
	c2.2,0,4.3,0,6.5,0c0.5,0,0.6,0.2,0.6,0.6c0,4.9,0,9.9,0,14.8L61.1,182.4z"/>
<path class="st0" d="M141.6,191.3c-0.8,0.8-1.7,1.5-2.7,2.2c-2,1.2-4.3,1.7-6.6,1.4c-1.4-0.1-2.7-0.3-4-0.8
	c-3.2-1.2-4.3-3.9-3.9-6.9c0.3-2.7,2.1-4.2,4.5-5.1c1.9-0.6,3.8-0.9,5.8-1c2-0.1,4.1-0.1,6.1-0.1c0.5,0,0.6-0.1,0.6-0.6
	c-0.1-2.4-2-3.9-4.5-3.7c-0.8,0-1.6,0.2-2.3,0.6c-0.6,0.3-1,0.8-1.2,1.4c-0.1,0.3-0.3,0.3-0.5,0.3c-2.2,0-4.5,0-6.7,0
	c-0.4,0-0.5-0.2-0.4-0.5c0.3-1.6,1.3-3.1,2.7-3.9c1.5-0.9,3.2-1.6,5-1.8c3.3-0.6,6.7-0.5,9.9,0.4c2.9,0.9,4.9,2.7,5.3,5.8
	c0.1,0.6,0.1,1.1,0.1,1.7c0,4.3,0,8.6,0,12.9c0,0.6-0.2,0.8-0.8,0.8c-2,0-3.9,0-5.9,0c-0.4,0-0.6-0.1-0.6-0.6
	C141.7,193,141.6,192.2,141.6,191.3z M138.6,185.1c-0.7,0-1.3,0-2,0c-1.3,0-2.6,0.3-3.8,0.7c-0.7,0.3-1.3,0.8-1.6,1.5
	c-0.4,1.2,0.2,2.5,1.3,2.9c0.2,0.1,0.4,0.1,0.6,0.1c2.6,0.6,5.2-0.3,7-2.3c0.6-0.6,1-1.4,1.1-2.3c0.1-0.4,0-0.7-0.5-0.7
	C140.1,185.1,139.4,185.1,138.6,185.1L138.6,185.1z"/>
<path class="st0" d="M171.7,177.7c0-4.1,0-7.6,0-11c0-0.5,0.1-0.6,0.6-0.6c2.1,0,4.2,0,6.3,0c0.5,0,0.6,0.2,0.6,0.7
	c0,1.8,0,3.6,0,5.5c0,0.5,0.2,0.6,0.6,0.6c1.7,0,3.4,0,5.1,0c0.4,0,0.6,0.1,0.6,0.6c0,1.8,0,3.7,0,5.5c0,0.5-0.1,0.5-0.6,0.5
	c-1.7,0-3.4,0-5.1,0c-0.5,0-0.7,0.1-0.7,0.6c0,2.2,0,4.4,0,6.6c0,1.9,0.8,2.7,2.7,2.8c1,0,2.1-0.1,3.1-0.3c0.4-0.1,0.5,0,0.5,0.4
	c0,1.3,0,2.6,0,4c0,0.3,0,0.5-0.4,0.5c-2.6,0.6-5.3,0.7-7.9,0.3c-3.1-0.5-5.4-3.1-5.5-6.2C171.5,184.5,171.8,180.7,171.7,177.7z"/>
<path class="st0" d="M159.6,177.5c0.1-0.1,0.1-0.2,0.1-0.2c0.8-2.2,2.7-3.7,5-4.1c1.5-0.3,3.1-0.4,4.7-0.3c0.4,0,0.5,0.2,0.5,0.6
	c0,1.7,0,3.5,0,5.2c0,0.8,0,0.8-0.8,0.7c-1.9-0.2-3.8,0-5.6,0.5c-2.3,0.7-3.9,2.9-3.8,5.4c0,2.8,0,5.5,0,8.3c0,0.6-0.1,0.8-0.7,0.8
	c-2.1,0-4.1,0-6.2,0c-0.4,0-0.6-0.1-0.6-0.6c0-6.6,0-13.3,0-19.9c0-0.5,0.1-0.6,0.6-0.6c2,0,4.1,0,6.1,0c0.4,0,0.6,0.1,0.6,0.6
	c0,1.2,0,2.4,0,3.6L159.6,177.5z"/>
<path class="st0" d="M193.2,191.5c0,0.8,0,1.6,0,2.3c0,0.2,0.1,0.4-0.2,0.4c-0.3,0-0.3-0.3-0.3-0.4c0-0.9,0-1.8,0-2.7
	c0-0.2-0.1-0.5,0.3-0.5c0.4,0,0.6,0,0.7,0.4c0.2,0.7,0.4,1.4,0.6,2.1c0,0.2,0.1,0.3,0.3,0.5c0.3-0.8,0.6-1.6,0.8-2.4
	c0.1-0.5,0.4-0.5,0.8-0.5c0.4,0,0.3,0.4,0.3,0.6c0,0.9,0,1.7,0,2.6c0,0.2,0.1,0.4-0.3,0.4c-0.3,0-0.3-0.2-0.3-0.4
	c0-0.8,0-1.6-0.1-2.4l-0.8,2.3c0,0.1-0.1,0.3-0.2,0.4c-0.3,0.2-0.5,0.1-0.7-0.3c-0.3-0.8-0.5-1.6-0.8-2.5L193.2,191.5z"/>
<path class="st0" d="M190.5,190.5c0.5-0.1,1,0.2,1.3,0.6c0.1,0.1,0.3,0.3,0,0.4c-0.2,0.1-0.4,0.1-0.5-0.1c0,0,0,0,0,0
	c-0.2-0.4-0.7-0.5-1.1-0.4c-0.2,0-0.4,0.2-0.5,0.4c-0.1,0.2,0.1,0.5,0.3,0.5c0.4,0.2,0.8,0.3,1.2,0.4c0.4,0.1,0.7,0.4,0.7,0.8
	c0,0.4-0.2,0.8-0.6,1c-0.7,0.4-1.6,0.3-2.2-0.4c-0.1-0.2-0.3-0.4,0-0.6c0.3-0.2,0.4,0,0.5,0.2c0.1,0.2,0.3,0.4,0.5,0.4
	c0.5,0.1,1,0.2,1.2-0.4c0.2-0.6-0.4-0.7-0.8-0.8c-0.2-0.1-0.5-0.1-0.7-0.2c-0.4-0.1-0.7-0.5-0.7-1c0.1-0.5,0.4-0.8,0.9-0.9
	L190.5,190.5z"/>
</svg>
