<svg id="Layer_1" data-name="Layer 1" xmlns="http://www.w3.org/2000/svg" xmlns:xlink="http://www.w3.org/1999/xlink" viewBox="0 0 250 250"><defs><style>.cls-1{fill:#ed2a2d;}.cls-1,.cls-2,.cls-3,.cls-4{fill-rule:evenodd;}.cls-2{fill:#fff;}.cls-3{fill:url(#linear-gradient);}.cls-4{fill:#231f20;}</style><linearGradient id="linear-gradient" x1="42.18" y1="125" x2="207.98" y2="125" gradientUnits="userSpaceOnUse"><stop offset="0.01" stop-color="#2d2f6f"/><stop offset="0.58" stop-color="#0073ba"/></linearGradient></defs><title>Kroger-v1</title><path class="cls-1" d="M31.46,126.45c0,43.15,41.27,72.26,91.66,72.26,50.1,0,95.43-30.26,95.43-74.72,0-42.14-41.27-72.69-92.1-72.69-52.42,0-95,34-95,75.15Z"/><path class="cls-2" d="M126.88,59.11c46,0,83.84,26.64,83.84,64.73,0,40.11-42.28,67-87.75,67-44.74,0-83.84-25.63-83.84-64.87,0-36.93,39.39-66.9,87.75-66.9Z"/><path class="cls-3" d="M42.18,125.57c0,38.37,37.94,62.41,81.38,62.41,25.05,0,43.88-6.52,58.36-17.52C199,157.43,208,140.2,208,123.69,208,86.91,171.2,62,127.18,62c-46.92,0-85,28.09-85,63.57Z"/><path class="cls-2" d="M62.45,95.44h3.91c2.32,0,2.46.72,2.46,4.05h0v14.19h0c0,2.17.14,3.19,1.3,3.19,4.49,0,7.67-6.08,8.54-10.72,1-5.21.87-9.7,1.88-14.34C83,81.25,89.67,74.73,100.82,74.73c8.25,0,14.48,4.34,17.52,12a37.07,37.07,0,0,1,2.17,11.15c0,9.12,0,9.12-2.75,9.12h-3.48c-1.74,0-2-.58-2-2.32,0-13.18,0-25.05-12.45-25.05-9.12,0-10.72,5.65-12.16,20.13s-2.17,14.77-12.89,20.85c3.33,2,11,6.66,11,22.16,0,1.16-.43,1.3-1.88,1.3H80.69c-3,0-3-.14-4.34-10.28-.43-3.91-3-10.14-6.37-10.14-1,0-1.16,1-1.16,3.33h0l.29,15.49h0c0,1.16-.14,1.59-1.45,1.59H62.88c-1.88,0-2.61-.14-2.61-2.32h0L60,97.32h0c0-1.16.72-1.88,2.46-1.88Z"/><path class="cls-2" d="M152.35,112.24h-2.9c-1.74,0-2.17,0-3.33.87-2.75-1.3-4.05-1.74-5.65-1.74-6.23,0-11,7.82-11,18.68,0,9.27,4.2,14.34,9.85,14.34a12.61,12.61,0,0,0,5.94-1.59A30.74,30.74,0,0,1,146,150c0,13.61-2,22-11.29,22-5.36,0-9.41-3.91-11.15-8.83a23.12,23.12,0,0,1-1.16-7.39c-.29-5.79-.29-5.79-2.61-5.79h-4.2c-1.74,0-2.17.29-2.17,2.61,0,14,8.11,24.47,19.55,24.47,15.93,0,20.85-12.89,20.85-30.12V122.67c0-9,.58-7.24.58-9.41C154.38,112.39,154.09,112.24,152.35,112.24Zm-9.83,25.06c-2.9,0-4.63-3.33-4.63-8.4,0-7.67,2-11.15,4.78-11.15s3.19,2.61,3.19,5.65C145.85,135.57,145.71,137.3,142.52,137.3Z"/><path class="cls-2" d="M116,111.24c-5.21,0-8,2.61-11.29,7.1l-.87-.43V115c0-1.88-.14-2.75-1.16-2.75a11.91,11.91,0,0,0-5.65,1.88c-2-1.88-2.17-1.88-3.62-1.88H91.12c-2.32,0-2.61.29-2.61.72L89,140.35c0,3.48,0,3.76,2.17,3.76h2.61c2.75,0,2.9-.58,2.9-3.33v-9.85c0-9.85,1-10.43,7.39-11.29a41.08,41.08,0,0,0-1.3,10.14c0,9.41,4.92,15.35,12.45,15.35,8.4,0,13.32-7.24,13.32-17.67C128.48,117.9,124.14,111.24,116,111.24ZM115.57,138c-3.19,0-4.34-3.33-4.34-7.82,0-8.11,1.59-11.87,4.34-11.87,3.19,0,4.63,3.76,4.63,9C120.21,134.27,118.47,138,115.57,138Z"/><path class="cls-2" d="M179.29,130.94h-4.34c-3.62,0-1.59,6.81-6.23,6.81-2.61,0-4.34-3.19-4.34-7,0-1.59.58-2.32,2.32-2.32H178c2.61,0,3-.43,3-2,0-9.12-4.2-15.49-12-15.49-8.11,0-13.18,8.11-13.18,16.94,0,9.27,4.2,16.8,13,16.8,5.5,0,12.16-5.21,12.16-12.16C181,131.23,180.59,130.94,179.29,130.94ZM169,117.62c1.45,0,3.76,1.88,3.76,3.76A1.61,1.61,0,0,1,171.2,123h-4.05c-1,0-1.88-.58-1.88-1.45C165.26,119.06,168.3,117.62,169,117.62Z"/><path class="cls-2" d="M184.94,112.24h2.75c1.45,0,2,.14,3.33,2.17,4.05-2.17,4.49-2.46,5.65-2.46,1.45,0,1.88.72,1.88,1.88h0v3h0c0,4.78-3.91.72-6.08,4.78-.58,1.16-1.45,3.48-1.45,8.69h0v11.29h0c0,1.74-.29,2.46-1.88,2.46h-2.75c-1.45,0-2.9-.14-2.9-1.45h0l-.29-29.4h0c0-.72.58-1,1.74-1Z"/><path class="cls-2" d="M161.15,148.08a2.39,2.39,0,1,0,.7,1.68,2.31,2.31,0,0,0-.7-1.68Z"/><path class="cls-4" d="M160.92,148.31a2.06,2.06,0,1,1-2.9,2.91,2,2,0,0,1-.59-1.46,2,2,0,0,1,3.5-1.45Z"/><path class="cls-2" d="M158.5,151.06H159v-1h.36a1.1,1.1,0,0,1,.51.08.64.64,0,0,1,.25.6h0V151h0v.05h.43l0,0h0a.42.42,0,0,1,0-.14q0-.1,0-.19h0v-.19h0a.72.72,0,0,0-.14-.41.64.64,0,0,0-.45-.26,1,1,0,0,0,.38-.13.57.57,0,0,0,.26-.52.65.65,0,0,0-.41-.66,2,2,0,0,0-.71-.09h-.92v2.62Z"/><path class="cls-4" d="M159.82,149.65a1.25,1.25,0,0,1-.44.06H159v-.95h.39a1.2,1.2,0,0,1,.56.1.47.47,0,0,1-.1.79Z"/></svg>