<?xml version="1.0" encoding="utf-8"?>
<!-- Generator: Adobe Illustrator 21.1.0, SVG Export Plug-In . SVG Version: 6.00 Build 0)  -->
<svg version="1.1" id="Layer_1" xmlns="http://www.w3.org/2000/svg" xmlns:xlink="http://www.w3.org/1999/xlink" x="0px" y="0px"
	 viewBox="0 0 250 250" style="enable-background:new 0 0 250 250;" xml:space="preserve">
<style type="text/css">
	.st0{fill:#0468B3;}
	.st1{fill:#FFFFFF;}
	.st2{fill:#FF050C;}
	.st3{fill:#0023D1;}
</style>
<title>CR</title>
<path class="st0" d="M96.4,161.4c-0.8-0.1-1.5-0.1-2.3-0.2c-2.5-0.3-5.1-0.6-7.7-1c-4.5-0.7-8.8-1.9-13.1-3.5
	c-7.2-2.6-13.8-6.5-19.6-11.4c-7.6-6.2-13.2-14.5-16.2-23.8c-1-3.1-1.6-6.2-1.8-9.4c0-0.8-0.2-1.7-0.2-2.5c-0.1-0.8,0-1.6,0-2.4
	s0.2-1.7,0.2-2.6c0.4-5.6,2-11.1,4.5-16.1c4.1-8.3,10.4-15.4,18-20.6c7.7-5.4,16.5-9.1,25.7-11c3.7-0.8,7.4-1.3,11.2-1.5l2.5-0.1
	c0.2,0,0.5-0.1,0.7-0.1h3.4c0.3,0.1,0.5,0.1,0.8,0.1c9.6,0.2,19,2.3,27.8,6.1c8.9,3.8,16.8,9.6,23,17.1c5,5.9,8.5,13,10.2,20.6
	c0.5,2.4,0.8,4.9,0.9,7.3c0,0.3,0.1,0.7,0.1,1v1.9c-0.1,0.9-0.2,1.8-0.2,2.7c-0.4,5.2-1.7,10.4-4,15.1c-3.9,8.4-10,15.6-17.5,21
	c-10.8,7.7-23.6,12.3-36.8,13.2c-0.8,0-1.5,0.2-2.3,0.2L96.4,161.4z M100.2,56.7v0.1L95.6,57c-3.1,0.1-6.3,0.5-9.4,1.1
	c-7.6,1.4-15,4.1-21.7,7.9c-8.1,4.5-15,10.9-20,18.6c-4,6.2-6.4,13.4-6.9,20.8c-0.2,2.8-0.1,5.6,0.3,8.3c0.7,5.5,2.5,10.9,5.3,15.8
	c4.5,7.8,10.8,14.4,18.5,19.1c10.1,6.4,21.7,10.1,33.6,10.7c3,0.2,5.9,0.1,8.9,0c3.3-0.1,6.6-0.5,9.8-1.1c7.8-1.4,15.3-4.1,22.2-8
	c8-4.4,14.7-10.7,19.7-18.4c4.1-6.2,6.5-13.4,7-20.9c0.2-3.5,0-7.1-0.6-10.6c-1.2-6.5-3.9-12.6-7.8-17.9C149,75,141.9,69,133.7,64.9
	c-7.3-3.8-15.1-6.2-23.3-7.2C107,57.3,103.6,57.1,100.2,56.7L100.2,56.7z"/>
<path class="st1" d="M100.2,56.8c3.4,0.3,6.8,0.5,10.2,0.9c8.1,1,16,3.4,23.3,7.2C141.9,69,149,75,154.3,82.5
	c3.9,5.3,6.5,11.5,7.8,17.9c0.7,3.5,0.9,7,0.7,10.6c-0.5,7.4-2.9,14.6-7,20.9c-5,7.7-11.7,14-19.7,18.4c-6.9,3.9-14.4,6.7-22.2,8
	c-3.2,0.6-6.5,1-9.8,1.1c-3,0-6,0.2-8.9,0c-11.9-0.6-23.5-4.3-33.6-10.7c-7.6-4.7-14-11.3-18.5-19.1c-2.8-4.9-4.5-10.3-5.2-15.8
	c-0.4-2.8-0.5-5.5-0.3-8.3c0.5-7.4,2.9-14.5,6.9-20.8c5-7.8,11.9-14.2,20-18.6c6.7-3.8,14.1-6.4,21.7-7.8c3.1-0.6,6.2-1,9.4-1.1
	l4.6-0.2L100.2,56.8z M99.4,60.2l-3.9,0.2c-3.2,0.2-6.4,0.6-9.6,1.2c-7.1,1.4-14,4-20.3,7.6c-6.8,3.9-12.7,9.2-17.2,15.6
	c-4.2,5.9-6.7,12.8-7.4,19.9c-0.3,3.2-0.2,6.4,0.3,9.5c0.9,5.7,3,11.2,6.2,16.1c4.5,6.9,10.6,12.6,17.7,16.6
	c9.8,5.7,20.9,8.8,32.2,9.1c4,0.2,8.1,0,12.1-0.5c4.3-0.5,8.5-1.5,12.6-2.8c10-3,18.9-8.7,26-16.3c6.6-7,10.6-16.1,11.3-25.8
	c0.2-3.3,0-6.6-0.6-9.9c-1.2-6.2-3.8-12-7.5-17c-4.9-6.5-11.1-11.8-18.3-15.6C122.6,62.8,111.1,60,99.4,60.2L99.4,60.2z"/>
<path class="st0" d="M99.4,60.2c11.7-0.2,23.2,2.6,33.5,8c7.2,3.7,13.5,9.1,18.3,15.6c3.8,5,6.3,10.9,7.5,17
	c0.6,3.3,0.8,6.6,0.6,9.9c-0.7,9.6-4.7,18.7-11.3,25.8c-7.1,7.7-16,13.3-26,16.3c-4.1,1.3-8.3,2.3-12.6,2.8c-4,0.5-8,0.7-12.1,0.5
	c-11.3-0.3-22.4-3.4-32.2-9.1c-7.1-4.1-13.1-9.8-17.6-16.7c-3.2-4.9-5.3-10.4-6.2-16.1c-0.5-3.1-0.6-6.3-0.3-9.5
	c0.7-7.2,3.2-14,7.3-19.9c4.5-6.4,10.4-11.7,17.2-15.6c6.3-3.7,13.2-6.2,20.3-7.6c3.2-0.7,6.4-1.1,9.6-1.2L99.4,60.2z M59.8,103.2
	c0-1,0-1.9,0-2.8c0-3.7,0-7.4,0.1-11.1c0-0.5-0.1-0.6-0.6-0.6c-1.5,0-3,0-4.5,0c-0.7,0-0.7,0-0.7,0.7c0,10.9,0,21.8,0,32.7v0.7
	c0.3,0,0.4,0,0.6,0c1.5,0,3.1,0,4.6,0c0.6,0,0.7-0.2,0.7-0.7c0-4.3,0-8.7,0-13c0-0.6,0.1-0.7,0.7-0.6c1.5,0.3,2.7,1.2,3.4,2.4
	c0.8,1.3,1.2,2.7,1.2,4.2c0,2.4,0,4.7,0,7c0,0.4,0.1,0.6,0.6,0.6c1.7,0,3.4,0,5.1,0c0.4,0,0.6-0.1,0.6-0.6c-0.1-2.5-0.1-5-0.3-7.5
	c-0.1-1.8-0.6-3.5-1.4-5.1c-0.7-1.7-2.3-2.9-4.2-3.1c-0.1,0-0.2-0.1-0.3-0.1c2.3-1.4,4.1-3.6,5-6.1c0.7-1.9,1-3.9,1-5.9
	c-0.1-1.8,0.1-3.7,0.3-5.5c0.4-2.4,1.3-4.6,2.7-6.5c2.6-3.3,7.3-3.9,10.6-1.4c0.5,0.4,1,0.9,1.4,1.4c1.2,1.7,2,3.7,2.5,5.7
	c0.6,2.6,0.8,5.3,0.8,8c0,0.4,0.1,0.6,0.6,0.6c1.6,0,3.3,0,4.9,0c0.4,0,0.5-0.1,0.5-0.5c0.1-3.7-0.5-7.4-1.7-11
	c-0.9-2.8-2.5-5.2-4.8-7.1c-3-2.3-6.9-3.2-10.7-2.5c-4.4,0.5-8.3,3.1-10.5,7c-1.4,2.4-2.2,5.1-2.3,7.9c-0.1,1.8-0.1,3.6-0.4,5.4
	c-0.2,2.1-1,4-2.4,5.6C62,102.2,60.9,102.9,59.8,103.2L59.8,103.2z M114.3,122c0,0.3,0,0.5,0,0.7c0.1,2.4,0,4.8-0.3,7.1
	c-0.2,2.2-0.8,4.4-1.7,6.4c-1.7,3.5-4.4,5.5-8.4,5.2c-2.2-0.1-4.3-1.2-5.6-3c-1.3-1.7-2.1-3.8-2.4-5.9c-0.4-2.1-0.6-4.2-0.5-6.3
	c0-0.3,0-0.5-0.4-0.5c-1.7,0-3.4,0-5.1,0c-0.4,0-0.5,0.2-0.5,0.5c0,0.6,0,1.2,0.1,1.8c0.1,2.8,0.7,5.6,1.7,8.3c1,2.9,3,5.5,5.6,7.2
	c3.4,2,7.5,2.6,11.3,1.6c4.5-0.9,8.2-4,9.9-8.3c1.6-3.8,2.4-7.9,2.3-12.1c0-7.7,0-15.4,0-23.2c0-0.5,0-1.1,0-1.6
	c0-0.5-0.1-0.5-0.5-0.5h-5c-0.1,0-0.3,0-0.4,0v1.1c-1.4-1-3.2-1.4-4.9-1c-2.7,0.6-4.9,2.5-5.9,5.1c-0.8,1.8-1.2,3.8-1.2,5.7
	c-0.1,2.4,0.3,4.8,1.1,7.1c1.5,4.1,6.1,6.2,10.2,4.7c0.1,0,0.3-0.1,0.4-0.2C114.1,122,114.2,122,114.3,122L114.3,122z M139,111.4
	c0-0.1,0-0.2,0-0.3c0.1-2.4-0.4-4.7-1.4-6.9c-1.5-3.4-5.2-5.4-8.9-4.6c-2.7,0.4-5,2.2-6,4.8c-1.9,4.1-2,8.8-0.4,12.9
	c1.7,4.6,6,6.2,10.2,5.1c3.6-0.9,6.5-5.1,6.4-9.1h-0.6c-1.4,0-2.7,0-4.1,0c-0.5,0-0.6,0.2-0.8,0.6c-0.2,0.9-0.5,1.8-0.8,2.6
	c-0.7,1.4-2.3,2-3.7,1.3c-0.6-0.3-1-0.7-1.3-1.3c-0.4-0.8-0.7-1.7-0.8-2.6c-0.1-0.8-0.2-1.7-0.3-2.5L139,111.4z M101.1,111
	c0-0.4,0-0.9-0.1-1.5c-0.1-2.2-0.8-4.3-1.9-6.1c-2.4-3.9-7.5-5-11.3-2.6c-1.3,0.8-2.4,2.1-3.1,3.5c-0.8,1.7-1.3,3.5-1.4,5.4
	c-0.2,2.5,0.1,5,0.9,7.4c1.3,4.1,5.5,6.6,9.7,5.6c2.6-0.5,4.8-2.2,5.9-4.6C100.7,115.8,101.2,113.4,101.1,111L101.1,111z M77.6,101
	c-0.1-0.3-0.3-0.6-0.4-0.9c-0.1-0.3-0.4-0.6-0.7-0.5c-1.1,0-2.2,0-3.3,0c-0.5,0-0.6,0.2-0.6,0.6c0,7.4,0,14.7,0,22.1
	c0,0.5,0.2,0.6,0.6,0.6c1.4,0,2.8,0,4.2,0c0.8,0,0.8,0,0.8-0.8c0-4.4,0-8.7,0-13.1c-0.1-1.1,0.5-2.1,1.4-2.7
	c0.6-0.3,1.1-0.6,1.8-0.8c0.7-0.2,1.4-0.3,2.1-0.4c0-1.6,0-3.3,0-4.9c0-0.1-0.2-0.3-0.3-0.3c-0.7-0.1-1.3-0.2-2-0.2
	C79.8,99.7,78.6,100.2,77.6,101z M145.2,101c-0.1-0.3-0.3-0.6-0.3-0.9c-0.1-0.4-0.4-0.6-0.8-0.5c0,0,0,0,0,0c-1.1,0-2.2,0-3.3,0
	c-0.5,0-0.6,0.2-0.6,0.6c0,7.3,0,14.7,0,22c0,0.2,0,0.4,0,0.6h4.7c0.8,0,0.8,0,0.8-0.8c0-4.4,0-8.7,0-13.1c-0.1-1.3,0.7-2.4,1.8-2.9
	c0.4-0.2,0.9-0.4,1.4-0.5c0.7-0.2,1.4-0.3,2.1-0.4c0,0,0,0,0-0.1c0-1.6,0-3.1,0-4.7c0-0.2-0.2-0.3-0.3-0.4c-0.7-0.1-1.4-0.2-2.1-0.2
	C147.4,99.7,146.2,100.2,145.2,101L145.2,101z M123.5,124.1c-1.2,0-2.2,1-2.2,2.2c0,1.2,1,2.2,2.2,2.2c1.2,0,2.2-1,2.2-2.2
	C125.7,125.1,124.7,124.1,123.5,124.1z"/>
<path class="st1" d="M59.8,103.2c1.1-0.3,2.1-0.9,2.8-1.8c1.3-1.6,2.1-3.5,2.4-5.6c0.3-1.8,0.3-3.6,0.4-5.4c0.1-2.8,0.9-5.5,2.3-7.9
	c2.1-3.9,6.1-6.5,10.5-7c3.8-0.7,7.6,0.2,10.7,2.5c2.2,1.9,3.9,4.3,4.8,7.1c1.2,3.5,1.8,7.2,1.7,11c0,0.4-0.1,0.5-0.5,0.5
	c-1.6,0-3.3,0-4.9,0c-0.5,0-0.6-0.2-0.6-0.6c0.1-2.7-0.2-5.4-0.8-8c-0.4-2.1-1.3-4-2.5-5.7c-2.6-3.3-7.3-3.9-10.6-1.4
	c-0.5,0.4-1,0.9-1.4,1.4c-1.4,1.9-2.3,4.2-2.7,6.5c-0.3,1.8-0.4,3.7-0.3,5.5c0,2-0.3,4-1,5.9c-0.9,2.6-2.7,4.8-5,6.1
	c0.1,0.1,0.2,0.1,0.3,0.1c1.9,0.2,3.5,1.4,4.2,3.1c0.8,1.6,1.3,3.3,1.4,5.1c0.2,2.5,0.2,5,0.3,7.5c0,0.4-0.1,0.6-0.6,0.6
	c-1.7,0-3.4,0-5.1,0c-0.5,0-0.6-0.2-0.6-0.6c0-2.4,0-4.7,0-7c0-1.5-0.4-2.9-1.2-4.2c-0.7-1.3-1.9-2.2-3.3-2.6
	c-0.6-0.1-0.7,0-0.7,0.6c0,4.3,0,8.7,0,13c0,0.5-0.1,0.7-0.7,0.7c-1.5,0-3.1,0-4.6,0c-0.2,0-0.4,0-0.6,0v-0.7c0-10.9,0-21.8,0-32.7
	c0-0.7,0-0.7,0.7-0.7c1.5,0,3,0,4.5,0c0.5,0,0.6,0.2,0.6,0.6c0,3.7,0,7.4-0.1,11.1C59.8,101.3,59.8,102.2,59.8,103.2z"/>
<path class="st1" d="M114.3,122c-0.1,0-0.3,0.1-0.4,0.1c-4,1.7-8.7-0.1-10.4-4.1c-0.1-0.1-0.1-0.3-0.2-0.4c-0.9-2.3-1.3-4.7-1.1-7.1
	c0-2,0.4-3.9,1.2-5.7c1-2.6,3.2-4.5,5.9-5.1c1.7-0.4,3.5-0.1,4.9,1v-1.1c0.1,0,0.3,0,0.4,0h5c0.4,0,0.5,0.1,0.5,0.5
	c0,0.4,0,1.1,0,1.6c0,7.7,0,15.4,0,23.2c0.1,4.1-0.7,8.2-2.3,12.1c-1.7,4.3-5.4,7.4-9.9,8.3c-3.8,1-7.9,0.4-11.3-1.6
	c-2.6-1.7-4.6-4.2-5.6-7.2c-1-2.6-1.6-5.4-1.7-8.3c0-0.6,0-1.2-0.1-1.8c0-0.4,0.1-0.5,0.5-0.5c1.7,0,3.4,0,5.1,0
	c0.4,0,0.4,0.2,0.4,0.5c0,2.1,0.1,4.2,0.5,6.3c0.3,2.1,1.2,4.1,2.4,5.9c1.3,1.8,3.4,2.9,5.6,3c4.1,0.3,6.7-1.7,8.4-5.2
	c0.9-2,1.5-4.2,1.7-6.4c0.3-2.4,0.4-4.8,0.3-7.1C114.4,122.5,114.3,122.2,114.3,122z M114.8,111.2c0-0.9-0.1-1.9-0.2-2.8
	c-0.1-1.1-0.5-2.2-1.1-3.1c-0.9-1.3-2.6-1.6-3.9-0.7c-0.3,0.2-0.5,0.4-0.7,0.7c-0.4,0.6-0.7,1.3-0.9,2c-0.5,2.2-0.6,4.6-0.2,6.8
	c0.1,1.1,0.5,2.2,1.3,3.1c0.9,1.2,2.6,1.3,3.8,0.4c0.1-0.1,0.3-0.3,0.4-0.4c0.4-0.5,0.7-1.1,0.9-1.7
	C114.6,114.2,114.8,112.7,114.8,111.2z"/>
<path class="st1" d="M139,111.4h-12.5c0,0.8,0.1,1.7,0.3,2.5c0.2,0.9,0.5,1.8,0.8,2.6c0.7,1.4,2.3,2,3.7,1.3c0.6-0.3,1-0.7,1.3-1.3
	c0.4-0.8,0.6-1.7,0.8-2.6c0.1-0.5,0.3-0.6,0.8-0.6c1.4,0,2.7,0,4.1,0h0.6c0.1,4-2.8,8.2-6.4,9.1c-4.2,1.1-8.5-0.5-10.2-5.1
	c-1.7-4.2-1.5-8.9,0.4-12.9c1-2.5,3.3-4.3,6-4.8c3.7-0.7,7.4,1.2,8.9,4.6c1,2.1,1.5,4.5,1.4,6.9C139,111.2,139,111.3,139,111.4z
	 M132.9,107.5c0.2-1.7-1.1-3.3-2.8-3.4c-1.7-0.2-3.3,1.1-3.4,2.8c0,0.2,0,0.4,0,0.6H132.9z"/>
<path class="st1" d="M101.1,111c0,2.4-0.4,4.8-1.4,7c-1,2.4-3.2,4.2-5.9,4.6c-4.2,1-8.4-1.5-9.7-5.6c-0.8-2.4-1.1-4.9-0.9-7.4
	c0.1-1.9,0.6-3.7,1.4-5.4c1.9-4.1,6.8-5.9,10.9-4c1.4,0.7,2.7,1.7,3.5,3.1c1.1,1.9,1.8,4,1.9,6.1C101,110.1,101.1,110.7,101.1,111z
	 M95.6,111.1c0-0.6,0-1.2,0-1.8c-0.1-1.3-0.4-2.6-1-3.7c-0.7-1.4-2.4-1.9-3.8-1.3c-0.5,0.3-1,0.7-1.3,1.3c-0.2,0.4-0.4,0.9-0.6,1.4
	c-0.6,2.3-0.7,4.7-0.3,7c0.1,1.1,0.5,2.1,1,3c0.9,1.3,2.6,1.6,3.9,0.7c0.3-0.2,0.5-0.4,0.7-0.7c0.3-0.4,0.5-0.9,0.7-1.4
	C95.6,114.1,95.7,112.6,95.6,111.1L95.6,111.1z"/>
<path class="st1" d="M77.6,101c1-0.8,2.2-1.3,3.4-1.4c0.7,0,1.4,0.1,2,0.2c0.1,0,0.3,0.2,0.3,0.3c0,1.6,0,3.3,0,4.9
	c-0.7,0.1-1.4,0.2-2.1,0.4c-0.6,0.2-1.2,0.4-1.8,0.8c-0.9,0.6-1.5,1.6-1.4,2.7c0,4.4,0,8.7,0,13.1c0,0.8,0,0.8-0.8,0.8
	c-1.4,0-2.8,0-4.2,0c-0.4,0-0.6-0.1-0.6-0.6c0-7.4,0-14.7,0-22.1c0-0.5,0.1-0.6,0.6-0.6c1.1,0,2.2,0,3.3,0c0.3-0.1,0.7,0.2,0.7,0.5
	C77.3,100.3,77.4,100.6,77.6,101z"/>
<path class="st1" d="M145.2,101c1-0.8,2.2-1.3,3.4-1.4c0.7,0,1.4,0.1,2.1,0.2c0.2,0.1,0.3,0.2,0.3,0.4c0,1.6,0,3.1,0,4.7
	c0,0,0,0,0,0.1c-0.7,0.1-1.4,0.2-2.1,0.4c-0.5,0.1-1,0.3-1.4,0.5c-1.1,0.5-1.8,1.7-1.8,2.9c0,4.4,0,8.7,0,13.1c0,0.8,0,0.8-0.8,0.8
	h-4.7c0-0.2,0-0.4,0-0.6c0-7.3,0-14.7,0-22c0-0.5,0.1-0.7,0.6-0.6c1.1,0,2.2,0,3.3,0c0.4-0.1,0.7,0.2,0.8,0.5c0,0,0,0,0,0
	C145,100.4,145.1,100.6,145.2,101z"/>
<path class="st0" d="M114.8,111.2c0,1.5-0.2,3-0.6,4.5c-0.2,0.6-0.5,1.2-0.9,1.7c-0.9,1.2-2.6,1.3-3.8,0.4c-0.1-0.1-0.3-0.3-0.4-0.4
	c-0.7-0.9-1.1-2-1.3-3.1c-0.4-2.3-0.3-4.6,0.2-6.8c0.2-0.7,0.5-1.4,0.9-2c0.9-1.3,2.6-1.6,3.9-0.7c0.3,0.2,0.5,0.4,0.7,0.7
	c0.6,0.9,1,2,1.1,3.1C114.7,109.3,114.7,110.2,114.8,111.2z"/>
<path class="st0" d="M133,107.5h-6.2c-0.2-1.7,1.1-3.3,2.8-3.4c1.7-0.2,3.3,1.1,3.4,2.8C133,107.1,133,107.3,133,107.5z"/>
<path class="st0" d="M95.6,111.2c0.1,1.5-0.1,3-0.5,4.5c-0.2,0.5-0.4,1-0.7,1.4c-0.9,1.3-2.6,1.6-3.9,0.7c-0.3-0.2-0.5-0.4-0.7-0.7
	c-0.6-0.9-0.9-1.9-1-3c-0.4-2.3-0.3-4.7,0.3-7c0.1-0.5,0.3-1,0.6-1.4c0.7-1.4,2.4-1.9,3.8-1.3c0.5,0.3,1,0.7,1.3,1.3
	c0.6,1.2,0.9,2.4,1,3.7C95.7,109.9,95.6,110.6,95.6,111.2z"/>
<circle class="st1" cx="123.5" cy="126.4" r="2.3"/>
<circle class="st0" cx="123.5" cy="126.4" r="1.8"/>
<path class="st1" d="M122.5,125.2c0.3,0,0.5,0,0.8,0c0.3,0,0.6,0,0.8,0.2c0.2,0.1,0.2,0.3,0.2,0.5c0,0.3-0.2,0.5-0.4,0.6l0,0
	c0.2,0.1,0.3,0.3,0.3,0.5c0.1,0.3,0.2,0.6,0.2,0.7h-0.6c-0.1-0.2-0.1-0.4-0.2-0.6c0-0.3-0.2-0.4-0.4-0.4h-0.2v1h-0.6L122.5,125.2z
	 M123.1,126.2h0.2c0.3,0,0.4-0.1,0.4-0.4s-0.2-0.3-0.4-0.3h-0.3V126.2z"/>
<path class="st2" d="M134.7,136h11.2c-1.3,5.4-2.7,10.8-4,16.2c-1.9,7.7-3.8,15.4-5.8,23.1c-0.2,0.8-0.8,1.5-1.6,1.9
	c-7.5,1.4-15,2.4-22.7,1.3c-1.5-0.2-3-0.6-4.5-1.1c-5.3-1.9-7.5-5.4-6-10.8c1.1-4,2.6-7.9,4.6-11.6c3-5.4,6.5-10.5,9.8-15.7
	c0.6-1.1,1.9-1.8,3.2-1.6c2.6,0.1,5.2,0,8.1,0c-0.5,0.8-1.1,1.5-1.6,2.4c-3.7,6.2-7.4,12.4-10.8,18.6c-0.9,1.9-1.6,3.9-1.9,5.9
	c-0.6,2.4,0.8,4.8,3.3,5.5c0.1,0,0.2,0,0.3,0.1c3.4,0.8,6.9,0.5,10.1-0.9c0.5-0.2,0.9-1.2,1.1-2c2.3-9.8,4.6-19.5,6.9-29.3
	C134.3,137.4,134.5,136.8,134.7,136z"/>
<path class="st2" d="M181.7,138.7c-5.3,0.3-10.6,0.7-15.8,1c-3.4,0.2-3.4,0.2-4.3,3.6l-1.2,4.9l17.4-0.8c-1.4,2.5-2.5,4.7-3.8,6.7
	c-0.6,0.5-1.3,0.8-2.1,0.8c-3.9,0.3-7.8,0.5-11.7,0.6c-1.1-0.1-2.1,0.7-2.3,1.8c0,0,0,0.1,0,0.1c-0.5,2.4-1.1,4.7-1.8,7.3l21-1.4
	c-1.7,3.2-3.2,6.1-4.7,9c-0.1,0.3-0.7,0.4-1,0.4c-9.1,0.7-18.1,1.4-27.2,2c-0.3,0-0.6-0.1-0.8-0.1c0.4-2,0.8-3.9,1.3-5.8
	c2.5-10.9,5.1-21.9,7.7-32.8c0.3-1.3,0.7-2,2.3-2.2c8.6-1,17.2-2.3,25.8-3.4c0.4,0,0.8,0,1.2,0L181.7,138.7z"/>
<path class="st2" d="M98.4,157.9c-1.3,2.4-2.4,4.6-3.7,6.7c-0.5,0.5-1.1,0.8-1.8,0.8c-3,0.1-5.9,0.3-8.9,0.2c-2,0-2.8,0.7-3.2,2.8
	C80,173.2,79,178,78,182.7c-0.1,0.7-0.5,1.3-1.1,1.7c-4.1,2.3-8.2,4.4-12.3,6.6c-0.3,0-0.5,0-0.8,0c0.6-2.8,1.2-5.6,1.8-8.3
	c2.8-12.6,5.7-25.2,8.6-37.8c0.2-1,0.3-2,1.9-2.1c8.7-0.4,17.3-0.8,26-1.3c0.3,0,0.5,0.1,0.8,0.2c-0.1,1.8-0.3,3.7-0.3,5.6
	c0,1.2-0.9,1.2-1.8,1.3c-4.7,0.3-9.4,0.6-14.1,0.9c-1.5,0.1-2.3,0.5-2.5,2.1c-0.2,2.1-0.7,4.1-1.1,6.3L98.4,157.9z"/>
<path class="st2" d="M200.6,127.9l-7.4,32l17.2-1.6c-1.6,3.2-3,6-4.5,8.8c-0.3,0.4-0.8,0.7-1.3,0.8c-7.7,0.7-15.4,1.4-23.1,2.1
	c-0.3,0-0.6-0.1-0.8-0.2c0.5-2.4,0.9-4.7,1.4-7c2.3-10.6,4.6-21.2,6.8-31.7c0.3-1.7,1-2.4,2.7-2.4
	C194.5,128.5,197.3,128.2,200.6,127.9z"/>
<path class="st3" d="M149.8,139.6c0,0.6-0.1,1.1-0.2,1.7c-3.1,12.4-6.1,24.8-9.1,37.2c-0.1,1.4-1.3,2.5-2.7,2.6
	c-8.1,1.3-16.3,2.4-24.5,0.5c-2-0.6-4-1.5-5.8-2.6c9.2,1.8,18.3,0.8,27.4-0.8c1-0.1,1.9-0.8,2-1.8c3-12.3,6-24.7,9.1-37"/>
<path class="st3" d="M179.6,167.3c0.2,3.3-1.4,5.9-2.9,8.5c-0.3,0.5-1.5,0.7-2.3,0.8c-6.2,0.5-12.3,0.9-18.5,1.4
	c-0.9,0-1.7,0.2-2.8,0.3l1.3,2.8c-1.7,0.5-3.2,1.6-4.5-0.4c-0.3-0.3-0.8-0.5-1.3-0.5c-1.5-0.1-2.8,1-2.9,2.5c-0.6,2.6,0,4.7,1.6,5.3
	c1.3,0.6,2.8,0,3.4-1.3c0.1-0.1,0.1-0.3,0.1-0.4c0.1-0.2,0.2-0.4,0.4-0.6c0.5,0.1,1,0.2,1.5,0.4c0.5,0.2,1.1,0.4,1.7,0.6
	c-0.6,3.3-2.7,4.7-6.5,4.5c-3.8-0.2-6.1-2.2-6.5-5.6c-0.5-4.8,1.2-6.3,5.6-8.5c5.2-2.7,10.7-1.4,15.9-2.4c2.8-0.5,5.6-0.4,8.4-0.8
	c0.9-0.3,1.7-0.8,2.3-1.5c0.5-0.6,0.9-1.3,1.1-2.1C175.5,167.7,177.1,167,179.6,167.3z"/>
<path class="st3" d="M82.2,166.4c3.5,0,6.9-0.1,10.2,0c1.6,0.2,3-0.7,3.6-2.2c1.5-3,1.6-3,5.6-2.5c-1,2.4-2,4.6-3.1,6.7
	c-0.2,0.4-1.1,0.6-1.7,0.6c-3.2,0.1-6.5,0.3-9.7,0.3c-1-0.2-1.9,0.5-2.1,1.5c0,0.1,0,0.2,0,0.3c-0.9,4.9-1.9,9.8-2.8,14.6
	c-0.1,1.2-0.8,2.3-2,2.8c-4.1,2-8.1,4.2-12.4,6.5c0.2-1.3,0.5-2.6,0.9-3.8c0.4-0.9,1-1.8,1.8-2.4c2.2-1.4,4.5-2.4,6.7-3.7
	c0.7-0.5,1.3-1.2,1.5-2.1C79.9,177.7,81,172.3,82.2,166.4z"/>
<path class="st3" d="M130.9,141.3l-1,1.7l1.9-0.4c-0.5,2-0.8,4-1.4,5.9c-0.3,0.7-0.9,1.2-1.6,1.4c-3.8,0.6-5.9,3-7.3,6.3
	c-1.8,4-3.6,8-5.6,12.2c-1.8-0.2-3.1-2.1-2.3-4.7c0.9-2.9,2-5.7,3.4-8.4c2.2-4.1,4.6-8,7.1-12C125.8,140.6,127.3,140.2,130.9,141.3z
	"/>
<path class="st3" d="M185,173.6c-0.2-2.4,0.9-3,3.1-3.1c5.6-0.3,11.2-1,16.8-1.6c0.7-0.2,1.3-0.6,1.7-1.1c0.3-0.3,0.5-0.8,0.7-1.2
	c1-3.3,3.2-5,7-4.1c-1.4,2.8-2.9,5.7-4.5,8.6c-0.2,0.3-0.6,0.5-1,0.5c-7.8,0.7-15.7,1.4-23.5,2.1C185.2,173.7,185.1,173.6,185,173.6
	z"/>
<path class="st3" d="M194.6,158.6c2-8.5,3.9-16.9,5.9-25.2c0.5-2.2,2.5-1,4.3-1.8c-0.8,3.4-1.4,6.4-2.1,9.3
	c-1.1,4.8-2.3,9.7-3.4,14.5C198.5,158.7,198.5,158.7,194.6,158.6z"/>
<path class="st3" d="M182,151.2c-1.2,2.3-2.4,4.5-3.7,6.5c-0.3,0.5-1.2,0.7-1.9,0.7c-4.1,0.3-8.2,0.5-12.3,0.9
	c-0.7,0.1-1.3,0.5-1.7,1.2c-1.2,3.1-1.1,3.1-4.7,2.7c0.5-1.9,0.8-3.8,1.4-5.6c0.3-0.6,0.9-0.9,1.6-1c3.9-0.3,7.9-0.5,11.9-0.8
	c0.9-0.1,2.2-0.6,2.4-1.2C176.2,151.1,178.8,150.9,182,151.2z"/>
<path class="st3" d="M161.7,146.8c0.3-1.7,0.8-3.3,1.3-5c0.4-0.6,1-0.9,1.6-1c5.3-0.4,10.7-0.9,16.1-1.1c1.9-0.1,2.6-0.6,2.1-2.5
	c-0.1-0.9-0.1-1.8,0-2.7l2.8-0.2v8l-12.1,0.9c-1.5,0.1-3,0.3-4.4,0.3c-1.7,0-3,0.3-3.1,2.4c0,0.4-0.7,0.9-1.2,0.9
	C163.8,146.9,162.8,146.9,161.7,146.8z"/>
<path class="st3" d="M84,156.7c0.2-1.7,0.5-3.3,1-4.9c0.4-0.7,1.2-1.3,2-1.4c4.8-0.4,9.6-0.7,14.5-1c1.2,0,1.8-0.3,1.9-1.7
	c0.2-2.9,0.4-3,3.6-2.6c-0.2,1.9-0.3,3.9-0.7,5.9c-0.1,0.5-1.1,1-1.8,1.1c-4.9,0.4-9.8,0.7-14.7,1.2c-0.7,0.1-1.2,0.5-1.6,1.1
	C87.4,157.2,87.4,157.2,84,156.7z"/>
<path class="st3" d="M180,190.8h-3.9c0.1-1.6,0.1-3.3,0-4.9c-0.1-0.8-0.8-1.4-1.3-2.1c-0.5,0.7-1.4,1.4-1.6,2.2
	c-0.1,1.6-0.2,3.3-0.1,4.9h-3.6V181c1.2,0.2,2.7-1,3.3,0.8c1.3-0.5,2.8-0.8,4.2-0.8c1.1,0.3,2,1.1,2.4,2.2
	C179.9,185.6,180,188.2,180,190.8z"/>
<path class="st3" d="M167.4,186.9H160c0.4,1.9,1.3,2.3,2.9,1.8c1.4-0.3,2.9-0.5,4.3-0.6c-1.8,2.8-5.3,3.8-8.3,2.5
	c-2.3-1.2-3.4-3.9-2.5-6.3c0.7-2.6,3.5-3.9,7.1-3.3C166.2,181.4,167.5,183.4,167.4,186.9z M159.8,184.4l0.3,0.4h3.5l0.2-0.6
	c-0.7-0.4-1.4-1.2-2.1-1.1C161.1,183.1,160.4,183.9,159.8,184.4L159.8,184.4z"/>
<path class="st3" d="M201.7,186.9h-7.5c0.5,1.9,1.3,2.4,3,1.8c1.4-0.3,2.9-0.5,4.3-0.6c-1.9,2.7-5.4,3.7-8.4,2.4
	c-2.3-1.2-3.3-4-2.4-6.4c0.8-2.6,3.6-3.9,7.2-3.2C200.5,181.5,201.8,183.4,201.7,186.9z M194.1,184.3l0.3,0.6h3.4l0.3-0.6
	c-0.7-0.5-1.3-1.3-2-1.3C195.4,183.1,194.8,183.8,194.1,184.3L194.1,184.3z"/>
<path class="st3" d="M186.7,177.7l0.2,3.1l1.9,0.3v2.3l-2,0.5c0,1.1-0.1,2.3,0,3.4c0,0.4,0.5,1.2,0.8,1.2c1.7,0.1,1.2,1.2,1.2,2.4
	c-0.7,0-1.4,0.2-2.2,0.2c-2.7,0-3.4-0.7-3.7-3.4c-0.2-1.5,0.9-3.3-1.2-4.5c-0.3-0.5-0.3-1.2,0-1.7
	C183.3,180,183.9,177.7,186.7,177.7z"/>
<path class="st3" d="M211,180.8c-0.1,1.7,0,2.9-1.8,3c-0.6,0-1.4,1.5-1.6,2.4c-0.1,1.5-0.1,3,0,4.5H204v-9.9l3.6,0.4l-0.1,0.3
	L211,180.8z"/>
</svg>
