<svg id="Layer_1" data-name="Layer 1" xmlns="http://www.w3.org/2000/svg" xmlns:xlink="http://www.w3.org/1999/xlink" viewBox="0 0 250 250"><defs><style>.cls-1{fill:url(#linear-gradient);}.cls-2,.cls-6{fill:#fff;}.cls-3{fill:url(#linear-gradient-2);}.cls-10,.cls-11,.cls-12,.cls-13,.cls-4,.cls-5,.cls-6,.cls-7,.cls-8,.cls-9{fill-rule:evenodd;}.cls-4,.cls-5{opacity:0.81;}.cls-4{fill:url(#linear-gradient-3);}.cls-5{fill:url(#linear-gradient-4);}.cls-7{fill:#231f20;}.cls-8{fill:url(#linear-gradient-5);}.cls-9{fill:url(#linear-gradient-6);}.cls-10{fill:url(#linear-gradient-7);}.cls-11{fill:url(#linear-gradient-8);}.cls-12{fill:url(#linear-gradient-9);}.cls-13{fill:url(#linear-gradient-10);}.cls-14{fill:none;}</style><linearGradient id="linear-gradient" x1="81.16" y1="81.09" x2="171.5" y2="171.43" gradientUnits="userSpaceOnUse"><stop offset="0.01" stop-color="#98272b"/><stop offset="0.15" stop-color="#ed272a"/><stop offset="0.23" stop-color="#ed2a2d"/><stop offset="0.29" stop-color="#ee3336"/><stop offset="0.34" stop-color="#ef4345"/><stop offset="0.39" stop-color="#f1595b"/><stop offset="0.44" stop-color="#f47577"/><stop offset="0.48" stop-color="#f6999a"/><stop offset="0.52" stop-color="#fac2c3"/><stop offset="0.56" stop-color="#fef1f1"/><stop offset="0.57" stop-color="#fff"/><stop offset="0.58" stop-color="#fcdfe0"/><stop offset="0.59" stop-color="#f9b4b6"/><stop offset="0.61" stop-color="#f68e90"/><stop offset="0.62" stop-color="#f36e70"/><stop offset="0.64" stop-color="#f15457"/><stop offset="0.66" stop-color="#ef4043"/><stop offset="0.68" stop-color="#ee3235"/><stop offset="0.7" stop-color="#ed292c"/><stop offset="0.75" stop-color="#ed272a"/><stop offset="1" stop-color="#98272b"/></linearGradient><linearGradient id="linear-gradient-2" x1="125.42" y1="75.6" x2="125.42" y2="174.17" gradientUnits="userSpaceOnUse"><stop offset="0.01" stop-color="#2d2f6f"/><stop offset="0.58" stop-color="#0073ba"/></linearGradient><linearGradient id="linear-gradient-3" x1="135.79" y1="106.22" x2="158.29" y2="83.72" gradientUnits="userSpaceOnUse"><stop offset="0.01" stop-color="#2d2f6f"/><stop offset="0.56" stop-color="#0073ba"/><stop offset="0.97" stop-color="#fff"/></linearGradient><linearGradient id="linear-gradient-4" x1="152.46" y1="118.23" x2="172.41" y2="98.29" xlink:href="#linear-gradient-3"/><linearGradient id="linear-gradient-5" x1="119.54" y1="84.81" x2="119.54" y2="162.52" gradientUnits="userSpaceOnUse"><stop offset="0.01" stop-color="#fff"/><stop offset="0.02" stop-color="#f4f7fa"/><stop offset="0.04" stop-color="#e0e8f2"/><stop offset="0.05" stop-color="#d2deec"/><stop offset="0.08" stop-color="#c9d8e8"/><stop offset="0.12" stop-color="#c7d6e7"/><stop offset="0.25" stop-color="#fff"/><stop offset="0.29" stop-color="#f4f5f7"/><stop offset="0.36" stop-color="#ebeef2"/><stop offset="0.46" stop-color="#e9ecf0"/><stop offset="0.8" stop-color="#7d98ce"/></linearGradient><linearGradient id="linear-gradient-6" x1="160.04" y1="84.82" x2="160.04" y2="162.58" xlink:href="#linear-gradient-5"/><linearGradient id="linear-gradient-7" x1="104.18" y1="84.88" x2="104.18" y2="162.47" xlink:href="#linear-gradient-5"/><linearGradient id="linear-gradient-8" x1="133.31" y1="84.67" x2="133.31" y2="162.5" xlink:href="#linear-gradient-5"/><linearGradient id="linear-gradient-9" x1="176.42" y1="84.89" x2="176.42" y2="162.47" xlink:href="#linear-gradient-5"/><linearGradient id="linear-gradient-10" x1="100.07" y1="84.81" x2="100.07" y2="162.56" xlink:href="#linear-gradient-5"/></defs><title>Logos</title><ellipse class="cls-1" cx="125.42" cy="125.35" rx="72.24" ry="58.86"/><ellipse class="cls-2" cx="125.42" cy="125.04" rx="65.13" ry="51.77"/><ellipse class="cls-3" cx="125.42" cy="125.04" rx="62.21" ry="49.45"/><path class="cls-4" d="M137.37,79.63c4.54,0,5,15.18,5.46,18.62.94,6.41,8,9,13.63,12.85a15,15,0,0,0-1-2.21c-.63-7.06-.16-17.82-3.1-24.23-1-2.19-8.27-6.13-14.81-5.78"/><path class="cls-5" d="M156.3,86.59c3.76-.06,9.47,4.16,12.48,6.23s7.5,6,9.62,9.42c2.71,4.36,2.9,8.31,1.56,13.32-1.13,4.2-4.39,10.07-9.34,7-4.63-2.83-10.27-8.07-11.17-13.68a93.66,93.66,0,0,1-.68-11.25,41.78,41.78,0,0,0-1.66-10.27"/><path class="cls-6" d="M167.09,119.63a.69.69,0,0,0-.27-.63,1.33,1.33,0,0,0-.9-.27h-1.08v3.14h.45v-1.43h.63l.63,1.43H167l-.63-1.43c.27,0,.36-.18.54-.27a1.25,1.25,0,0,0,.18-.54Zm-.63.45a1.32,1.32,0,0,1-.63.09h-.54v-1.08h.54a1.35,1.35,0,0,1,.63.09.69.69,0,0,1,.18.45.68.68,0,0,1-.18.45Z"/><path class="cls-6" d="M168.17,119.36a8,8,0,0,0-.54-.9,4.18,4.18,0,0,0-.81-.54,1.92,1.92,0,0,0-1-.18,1.76,1.76,0,0,0-1,.18,2.12,2.12,0,0,0-.81.54,8.3,8.3,0,0,0-.54.9,2.83,2.83,0,0,0,0,2,3,3,0,0,0,.54.9,2.11,2.11,0,0,0,.81.54,1.76,1.76,0,0,0,1,.18,1.61,1.61,0,0,0,.9-.18,1.86,1.86,0,0,0,.9-.54,8,8,0,0,0,.54-.9,2.8,2.8,0,0,0,0-2Zm-.27,1.88a1.93,1.93,0,0,1-.45.72,2.1,2.1,0,0,1-.81.54,2.63,2.63,0,0,1-.81.18,3.2,3.2,0,0,1-.9-.18,1.86,1.86,0,0,1-.72-.54,1.93,1.93,0,0,1-.45-.72,2.33,2.33,0,0,1,0-1.79,1.39,1.39,0,0,1,.54-.72,1.2,1.2,0,0,1,.63-.54,2.64,2.64,0,0,1,.9-.18,2.61,2.61,0,0,1,.81.18,2.12,2.12,0,0,1,.81.54,1.93,1.93,0,0,1,.45.72,3.17,3.17,0,0,1,.18.9,2.65,2.65,0,0,1-.18.9Z"/><path class="cls-7" d="M101,116.81H96.3c.09,1.17.45,3.14.63,4.21v20.62h5.47V127.11c.09-3.67,1.79-6.09,5.38-5.47v-5.38c-3,0-4.12.72-5.47,2-.36-.54-.72-.72-1.26-1.43Z"/><path class="cls-7" d="M86.17,122.45c5.29-1.61,8-4.21,9-13.89,1.26-13.89,3-16.22,9.95-16.31,8.34-.09,9.95,5.83,9.95,19.72h5.92c.27-23.13-9.32-24-15.51-23.93-8.43.18-15.06,4.57-15.6,15.78-.36,7.44-.27,10.13-2.69,13.8-1.43,2.33-6.18,3.94-6.72,2.15v-16H74.88v37.83H80.7V126c1.79-1.25,5.74.72,6.27,4,.45,2.78.9,11,2.15,11.56H94c.27,0,.45-1.07.09-2.78-1-9.59-2.24-13.36-8.16-15.42-.36-.09-.54-.72.27-1Z"/><path class="cls-7" d="M126.86,128.82c0-7.44-2.78-13.44-9.5-13.44s-9.5,6-9.5,13.44,3.23,13.45,9.5,13.45,9.5-6.09,9.5-13.45Zm-13.53,0c0-4.48,1-8.25,3.85-8.43s4,3.5,4,8.34-.9,8.52-3.85,8.52-4-3.95-4-8.43Z"/><path class="cls-7" d="M174.55,118.51a15.75,15.75,0,0,0-1.25-1.52h-4.75c.09,1.16.45,3.14.63,4.21v20.53l5.56-.09V127.29c0-3.67,1.7-6.1,5.29-5.47v-5.38c-3,0-4.12.72-5.47,2.06Z"/><path class="cls-7" d="M142,116.63c-.45.36-.81.36-1,1-.63-.81-2.06-1.61-4.48-1.53a7.28,7.28,0,0,0-6.1,3.94c-1.26,2.06-1.43,5.74-1.61,9.59a15.51,15.51,0,0,0,1.79,8.69c2.24,3.94,7.8,4.93,10.4,2.15v9.68c0,8.07-4.84,12.37-10.49,12.46-4.66.09-9.23-2.69-9.23-11.92v-4h-6c.09,9.05,1.52,13.62,6.27,17.12,4.12,3.14,12.37,3.94,18.19-.09,6.1-4.48,6.46-9.14,6.46-17.48v-8.79L146,121a8.19,8.19,0,0,1,1.07-4.39Zm-1.43,17.21c0,1.07-1.35,3-2.42,3-3,0-3.58-2.33-3.67-7.62.09-7.53,1.52-8.07,4-8.16a2.11,2.11,0,0,1,2.06,2.24,34.86,34.86,0,0,1,0,10.58Z"/><path class="cls-7" d="M158.06,115.64a7.13,7.13,0,0,0-6.36,3c-1.79,2.6-2.69,5.91-2.69,10.22s1,7.8,2.78,10.22c1.61,2.15,3.5,2.87,6.45,2.87a7.32,7.32,0,0,0,5.74-2.33,12.24,12.24,0,0,0,2.69-7.62l-5.11-.09c-.45,4.21-1.79,5.29-3.85,5.29s-3.32-5-3.14-7.71h12.19c.09-4.84,0-8.07-2.06-11.29-2.15-2.33-3.32-2.51-6.63-2.6Zm2.87,10.49h-5.38c-.36,0-.54-1.07-.27-2.33.27-1.52.45-3.23,3-3.41,2.33-.09,2.6,1.79,3,3.41.18,1.25.09,2.33-.36,2.33Z"/><path class="cls-2" d="M101.84,115.14H97.09c.09,1.16.45,3.14.63,4.21V140h5.47V125.45c.09-3.67,1.79-6.1,5.38-5.47v-5.38c-3,0-4.12.72-5.47,2-.36-.54-.72-.72-1.26-1.43Z"/><path class="cls-2" d="M87,120.79c5.29-1.61,8-4.21,9-13.89,1.25-13.89,3-16.22,9.95-16.31,8.34-.09,10,5.83,10,19.72h5.92c.27-23.13-9.32-24-15.51-23.93-8.43.18-15.06,4.57-15.6,15.78-.36,7.44-.27,10.13-2.69,13.8-1.43,2.33-6.18,3.94-6.72,2.15v-16H75.67V140h5.83v-15.6c1.79-1.26,5.74.72,6.27,4,.45,2.78.9,11,2.15,11.56h4.84c.27,0,.45-1.07.09-2.78-1-9.59-2.24-13.36-8.16-15.42-.36-.09-.54-.72.27-1Z"/><path class="cls-2" d="M127.66,127.15c0-7.44-2.78-13.44-9.5-13.44s-9.5,6-9.5,13.44,3.23,13.45,9.5,13.45,9.5-6.1,9.5-13.45Zm-13.53,0c0-4.48,1-8.25,3.85-8.43s4,3.5,4,8.34-.9,8.52-3.85,8.52-4-3.94-4-8.43Z"/><path class="cls-2" d="M175.34,116.85a15.64,15.64,0,0,0-1.25-1.52h-4.75c.09,1.16.45,3.14.63,4.21v20.53l5.56-.09V125.63c0-3.68,1.7-6.1,5.29-5.47v-5.38c-3,0-4.12.72-5.47,2.06Z"/><path class="cls-2" d="M142.8,115c-.45.36-.81.36-1,1-.63-.81-2.06-1.61-4.48-1.52a7.28,7.28,0,0,0-6.1,3.94c-1.26,2.06-1.43,5.74-1.61,9.59a15.51,15.51,0,0,0,1.79,8.69c2.24,3.94,7.8,4.93,10.4,2.15v9.68c0,8.07-4.84,12.37-10.49,12.46-4.66.09-9.23-2.69-9.23-11.92v-4h-6c.09,9.05,1.52,13.63,6.27,17.12,4.12,3.14,12.37,3.95,18.19-.09,6.09-4.48,6.46-9.14,6.46-17.48v-8.79l-.27-16.4a8.2,8.2,0,0,1,1.07-4.39Zm-1.43,17.21c0,1.07-1.34,3-2.42,3-3,0-3.58-2.33-3.68-7.62.09-7.53,1.52-8.07,4-8.16a2.11,2.11,0,0,1,2.06,2.24,34.9,34.9,0,0,1,0,10.58Z"/><path class="cls-2" d="M158.85,114a7.13,7.13,0,0,0-6.36,3c-1.79,2.6-2.69,5.92-2.69,10.22s1,7.8,2.78,10.22c1.61,2.15,3.5,2.87,6.45,2.87a7.31,7.31,0,0,0,5.74-2.33,12.23,12.23,0,0,0,2.69-7.62l-5.11-.09c-.45,4.21-1.79,5.29-3.85,5.29s-3.32-5-3.14-7.71h12.19c.09-4.84,0-8.07-2.06-11.29-2.15-2.33-3.32-2.51-6.63-2.6Zm2.87,10.49h-5.38c-.36,0-.54-1.07-.27-2.33.27-1.52.45-3.23,3-3.41,2.33-.09,2.6,1.79,3,3.41.18,1.25.09,2.33-.36,2.33Z"/><path class="cls-8" d="M116.62,138.83a8.47,8.47,0,0,0,8.48-1.62,13.36,13.36,0,0,0,3.68-7.79c1-6.07-.27-15.91-7.86-16.82h.29a10.94,10.94,0,0,0-3.41,0h.35c-5.82.72-8.15,7-8.15,12.18s.94,11.92,6.61,14.05m-1.14-13c0-2.69.4-9,4.5-8.38,1.88.29,2.53,2.32,3,3.91a24.75,24.75,0,0,1,.4,5.53c-.15,2.49-.47,7.8-4.14,7.44s-3.73-5.93-3.73-8.5"/><path class="cls-9" d="M168.81,121.29c-.18-1.08-.46-2.14-.64-3.22-.23-.59-.53-1.16-.79-1.74s-.66-.9-.91-1.4c-1.94-1.94-4-2.11-6.61-2.17-5.44-.11-8.29,5.57-8.54,10.34a20.2,20.2,0,0,0,.18,7.18,14.6,14.6,0,0,0,2.82,6.48c2.95,3.45,10.16,3.28,12.48-.84a13.86,13.86,0,0,0,1.48-3.18,36.65,36.65,0,0,0,.54-3.64l-3.42-.06-1.6,0c-.13,0-.54,2.5-.69,2.94a3.26,3.26,0,0,1-2.14,2.3,2.23,2.23,0,0,1-2.48-.63c-1.48-1.8-1.76-4.69-1.76-6.94H168.5c.63,0,.49-.34.49-1,0-1.47,0-2.93-.17-4.39m-11.39,1.53c-.44-.88,0-2.27.25-3.17a2.55,2.55,0,0,1,1.92-2,2.7,2.7,0,0,1,3.08.91,6.92,6.92,0,0,1,.83,3.58c0,.55,0,1-.65,1h-2c-.41,0-3.4.33-3.4-.36"/><path class="cls-10" d="M104.9,114.93l-.45.45c-.13-.26-1.14-1.52-1.35-1.52H98.44c0,1.73.63,3.43.63,5.18v18.82c0,.33-.18.92.21.92h5.24s0-1,0-1.13V126.11a32.43,32.43,0,0,1,.2-3.58,4.3,4.3,0,0,1,5.18-3.84v-5.24c0-.09-.9,0-1,0a5.81,5.81,0,0,0-4,1.53"/><path class="cls-11" d="M144.16,113.67c-.43.35-.84.49-1,1.08-2.66-3.19-7.91-1.29-10,1.49s-1.65,6.41-2.2,9.72c0,3.5.14,6.83,2.09,9.85,1.94,3.36,7.26,4.55,10.1,1.71v5.74c0,3,.29,6-.66,8.93a10.55,10.55,0,0,1-8.06,7.39,8.75,8.75,0,0,1-8.46-2.7c-2.46-3-2.55-7-2.55-10.73v-2c0-.34.1-.46-.28-.46h-5.65a15.59,15.59,0,0,0,0,2.93,30.44,30.44,0,0,0,1,6.74,13.67,13.67,0,0,0,6.94,8.61,17.42,17.42,0,0,0,14.68-.11,14.23,14.23,0,0,0,7.61-9.59c.78-3.49.63-7.14.63-10.69v-5.91c0-3.2,0-6.44-.13-9.64-.09-1.61,0-3.23,0-4.84,0-2.62-.23-5.09,1-7.53h-5m-1.07,11.47c0,1.47-.1,2.89-.21,4.35s-.32,3-1.7,4.1-3.29-.28-3.82-1.62a15.12,15.12,0,0,1-.72-5.22c0-2.71-.34-8.34,3.43-8.59,1.42-.09,2.67.52,2.67,2.13s.36,3.22.36,4.84"/><path class="cls-12" d="M177.32,114.93a4.36,4.36,0,0,1-.63.63c-.31-.47-.72-.78-1.05-1.22s-.13-.31-.45-.3l-2.13,0-2,0c-.67,0-.31.69-.23,1.27a23,23,0,0,1,.5,3.26v19c0,.08,0,1.13,0,1.13h5.47a13.16,13.16,0,0,0,.08-2.55v-11.6a6.72,6.72,0,0,1,1.16-4.36c1.08-1.36,2.52-1.42,4.13-1.38v-4.73c0-.1.06-.49,0-.56a12.56,12.56,0,0,0-1.3,0,6.35,6.35,0,0,0-3.54,1.33"/><path class="cls-13" d="M97.37,104.8c.37-3.86.6-8.29,2.4-11.81a6.47,6.47,0,0,1,5.44-3.49c2.86-.32,6.2-.18,8.4,1.92,2.54,2.42,3,6.44,3.3,9.74.21,2.56.27,5.15.27,7.72,0,.4.54.22.89.22h4.41c.88,0,.62-.23.62-1.17a57.26,57.26,0,0,0-.44-7.33c-.79-6.24-3.17-13.31-10-15-5.68-1.4-12.82-.26-16.81,4.25-3.08,3.48-3.71,8-4,12.46s0,9.59-3.14,13a7.48,7.48,0,0,1-3.43,2c-.77.21-2.45.52-2.76-.58a11,11,0,0,1,0-2.76V102a5.51,5.51,0,0,0,0-1.18H77.06c-.07,0,0,21.42,0,23.41V138.7a23.66,23.66,0,0,0,3.31.07h2c.49,0,.51.07.51-.43V123.67c0-.33-.08-.47.24-.65a2.41,2.41,0,0,1,1.53-.22,5.33,5.33,0,0,1,3.26,1.86c1.61,1.94,1.47,4.51,1.78,6.89.15,1.17.23,2.35.41,3.52.16,1,.27,2.84,1.06,3.61.24.24.89.1,1.18.1h2.44c.93,0,1.55.27,1.66-.83a16.85,16.85,0,0,0-.33-3.14c-.09-1-.24-2.08-.37-3.11-.48-4-1.83-8.28-5.55-10.32-.56-.31-2.09-.55-2.4-1.1s1.62-1.07,2-1.24a9.25,9.25,0,0,0,4.64-3.4,15.94,15.94,0,0,0,2.1-5.2,19.06,19.06,0,0,0,.52-3,18.26,18.26,0,0,1,.33-2.67"/><path class="cls-6" d="M157,147.37a.7.7,0,0,0-.27-.63,1.34,1.34,0,0,0-.9-.27h-1.08v3.14h.45v-1.43h.63l.63,1.43h.45l-.63-1.43c.27,0,.36-.18.54-.27a1.26,1.26,0,0,0,.18-.54Zm-.63.45a1.34,1.34,0,0,1-.63.09h-.54v-1.08h.54a1.34,1.34,0,0,1,.63.09.65.65,0,0,1,0,.9Z"/><path class="cls-6" d="M158,147.1a7.85,7.85,0,0,0-.54-.9,4.19,4.19,0,0,0-.81-.54,1.92,1.92,0,0,0-1-.18,1.77,1.77,0,0,0-1,.18,2.13,2.13,0,0,0-.81.54,8.18,8.18,0,0,0-.54.9,2.81,2.81,0,0,0,0,2,3.06,3.06,0,0,0,.54.9,2.12,2.12,0,0,0,.81.54,1.78,1.78,0,0,0,1,.18,1.62,1.62,0,0,0,.9-.18,1.86,1.86,0,0,0,.9-.54,8,8,0,0,0,.54-.9,2.81,2.81,0,0,0,0-2Zm-.27,1.88a1.94,1.94,0,0,1-.45.72,2.1,2.1,0,0,1-.81.54,2.63,2.63,0,0,1-.81.18,3.2,3.2,0,0,1-.9-.18,1.86,1.86,0,0,1-.72-.54,1.92,1.92,0,0,1-.45-.72,2.32,2.32,0,0,1,0-1.79,1.38,1.38,0,0,1,.54-.72,1.2,1.2,0,0,1,.63-.54,2.61,2.61,0,0,1,.9-.18,2.57,2.57,0,0,1,.81.18,2.09,2.09,0,0,1,.81.54,1.94,1.94,0,0,1,.45.72,3.13,3.13,0,0,1,.18.9,2.62,2.62,0,0,1-.18.9Z"/><rect class="cls-14" x="47.5" y="47.5" width="155" height="155"/></svg>