<?xml version="1.0" encoding="utf-8"?>
<!-- Generator: Adobe Illustrator 21.1.0, SVG Export Plug-In . SVG Version: 6.00 Build 0)  -->
<svg version="1.1" id="Layer_1" xmlns="http://www.w3.org/2000/svg" xmlns:xlink="http://www.w3.org/1999/xlink" x="0px" y="0px"
	 viewBox="0 0 250 250" style="enable-background:new 0 0 250 250;" xml:space="preserve">
<style type="text/css">
	.st0{fill:#262223;}
	.st1{fill:#FEFEFE;}
	.st2{fill:#E41937;}
</style>
<title>CR</title>
<path class="st0" d="M124.9,186.3c-21.4,0.2-42.7-2.9-63.1-9.2c-12.7-4-24.7-9.3-35.5-17.3c-6.4-4.4-11.8-10.1-15.9-16.7
	c-7.7-13-7.1-25.9,1.3-38.3c5.5-8.2,13.1-14.2,21.4-19.2c12.6-7.6,26.2-12.5,40.5-16c19.1-4.5,38.7-6.5,58.3-5.8
	c19.8,0.4,39.4,3.6,58.2,9.7c12.9,4.3,25.2,9.9,36,18.5c6.1,4.6,11.2,10.5,14.8,17.2c6.1,11.8,5.3,23.4-1.7,34.5
	c-5.1,8.2-12.3,14.2-20.2,19.3c-12.8,8.2-26.8,13.3-41.3,17c-14,3.4-28.3,5.4-42.7,6C131.6,186.2,128.3,186.3,124.9,186.3z
	 M123.1,68.3c-15.5,0-31,1.7-46.2,5.2c-13.2,2.8-26,7.5-37.9,14c-8.4,4.7-16.1,10.4-21.9,18.3c-8.6,11.8-8.9,25.2-0.8,37.3
	c4.6,6.6,10.6,12.2,17.5,16.4c14.3,9.1,30,14.4,46.4,17.8c15.5,3.2,31.3,4.7,47.1,4.4c15-0.1,30-1.7,44.7-4.9
	c13.8-2.8,27.1-7.7,39.4-14.5c8-4.5,15.3-10,20.9-17.5c8.9-11.8,9.4-25.3,1.3-37.6c-4.6-6.7-10.5-12.3-17.5-16.5
	c-10.9-6.9-22.8-12-35.3-15.3C162.7,70.3,144,68.3,123.1,68.3L123.1,68.3z"/>
<path class="st1" d="M123.1,68.3c20.9,0,39.6,2.1,57.9,7.2c12.5,3.2,24.4,8.4,35.3,15.2c6.9,4.2,12.9,9.8,17.5,16.5
	c8.1,12.3,7.6,25.8-1.3,37.6c-5.6,7.5-12.9,12.9-20.9,17.5c-12.3,6.8-25.6,11.7-39.4,14.5c-14.7,3.2-29.6,4.9-44.7,4.9
	c-15.8,0.2-31.6-1.2-47.1-4.4c-16.4-3.5-32.2-8.7-46.4-17.8c-6.9-4.2-12.9-9.8-17.5-16.4c-8.1-12.1-7.8-25.6,0.8-37.3
	c5.8-7.9,13.4-13.6,21.9-18.3C51,81,63.7,76.3,76.9,73.5C92.1,70,107.6,68.3,123.1,68.3z M124.7,179.2c15.8,0.2,31.6-1.4,47-4.9
	c13.3-2.7,26.2-7.4,38.2-14c7.9-4.4,15.1-9.8,20.6-17.1c8.4-11.2,8.7-23.5,0.9-35.1c-4.1-5.8-9.2-10.7-15.2-14.5
	c-9.1-6-19-10.6-29.5-13.8c-20.5-6.3-41.9-9.4-63.4-9c-15.1,0-30.1,1.6-44.8,4.8c-13,2.7-25.6,7.2-37.3,13.5
	c-8.3,4.5-15.8,10-21.5,17.6c-8.5,11.2-8.8,23.9-0.8,35.4c3.7,5.2,8.3,9.7,13.6,13.3c10.2,7.2,21.5,12,33.3,15.6
	C84.9,176.6,104.7,179.3,124.7,179.2L124.7,179.2z"/>
<path class="st2" d="M124.7,179.2c-19.9,0.2-39.7-2.6-58.8-8.2c-11.9-3.6-23.2-8.4-33.3-15.6c-5.3-3.6-9.9-8.1-13.6-13.3
	c-8-11.5-7.7-24.3,0.8-35.4c5.8-7.6,13.3-13,21.5-17.6c11.7-6.2,24.2-10.8,37.2-13.5c14.7-3.2,29.7-4.9,44.8-4.9
	c21.5-0.4,42.9,2.7,63.4,9c10.4,3.2,20.4,7.8,29.5,13.8c5.9,3.8,11.1,8.7,15.2,14.5c7.8,11.5,7.5,24-0.9,35.1
	c-5.5,7.3-12.7,12.7-20.6,17.1c-11.9,6.6-24.8,11.3-38.1,14.1C156.2,177.7,140.5,179.4,124.7,179.2z M167.3,137.6l-0.1-0.1
	C167.2,137.5,167.2,137.5,167.3,137.6L167.3,137.6l0.4,0.3c0.9,1.1,2.1,1.9,3.4,2.4c-3,0-5.9,0-8.9,0c-5.7,0-11.4,0-17.1,0
	c0.8-0.3,1.6-0.7,2.2-1.3c0.6-0.5,1.2-0.6,1.4,0.3c0.2,0.6,0.6,0.6,1.1,0.6c1.9,0,3.8,0,5.7,0c0.9,0,0.9-0.3,0.6-1
	c-0.7-1.3-1.3-2.6-2-3.8c-0.5-0.5-0.4-1.4,0.1-1.9c0,0,0.1-0.1,0.1-0.1c1.6-1.6,2.8-3.6,3.5-5.8c0.1-0.3,0.3-0.7,0-1.1
	c-0.9-0.4-2-0.1-2.7,0.7c-0.8,1.6-1.8,3.1-3,4.4c-0.4,0.4-0.6,0.9-0.6,1.5c-1.2-1.5-1.2-1.5,0-2.9c1.1-1.3,2-2.7,2.7-4.2
	c1-2.2,1-2.3-1.3-2.5h-0.1c0.3-0.4,0.5-0.8,0.8-1.2c2-3.3,1.3-7.7-1.5-9.6c0,0,0-0.1,0-0.1l0,0l0.1,0.1c0.6,1.6,0.7,3.4,0.4,5.1
	c-0.6,2.5-2.2,4.6-4.5,5.7c-0.6,0.3-1,0.7-0.8,1.4c-1.3-1.5-1.3-1.6,0.3-2.7c1.5-0.9,2.7-2.2,3.5-3.8c1.9-4.2,0.1-8.8-3.9-9.8
	c-3-1-6.3-0.2-8.5,2.1c-2.3,2.3-2.9,5.8-1.6,8.7c0.3,0.9,0.2,1.2-0.6,1.5c-0.2,0.1-0.3,0.1-0.5,0.2c-7.1,3.9-7.5,12.1-0.7,16.4
	c0,0,0,0.1,0,0.1c-0.7,0.4-0.1,0.7,0.1,0.9c1,1,2.2,1.7,3.5,2.2h-14.8l0,0c-0.5,0-1,0.1-1.5,0.1h-7.3c-0.1,0-0.1,0-0.2,0
	c-3.5-0.1-7.1-0.1-10.6,0h-3.1l-6.7-0.2c1.1-4.9,2.1-9.8,3.2-14.8c0.2-1.2,1-2.2,2.1-2.7c0,0.3,0,0.7-0.1,1c-0.8,4-1.6,8.1-2.4,12.1
	c-0.2,0.8-0.1,1.2,0.9,1.1c2-0.1,4.1,0,6.1,0c0.8,0,1.2-0.2,1.3-1.1c0.3-1.7,0.7-3.3,1-5c0.6-2.9,1.2-5.9,1.9-8.8
	c0.2-1.3,1.2-2.4,2.5-2.7c0.9-0.3,1.9,0.1,2.4,0.9c-2.4-0.1-3.5,0.7-4,3.1c-0.9,4.4-1.9,8.9-2.8,13.3c-0.2,0.9-0.5,1.3-1.5,1.2
	c-1.3-0.1-2.5,0-3.8,0c-1,0-1,0.7-1.1,1.3c-0.1,0.7,0.5,0.7,1,0.7c2,0,4-0.1,6,0c0.9,0,1.2-0.3,1.4-1.2c0.9-4.6,1.8-9.1,2.9-13.7
	c0.1-1.2,0.9-2.2,2-2.5c0,0.4,0,0.8-0.1,1.3c-0.8,4.1-1.6,8.2-2.3,12.2c-0.1,0.5-0.2,0.9,0.5,0.9c2.2,0,4.5,0,6.7,0
	c0.7,0,1-0.3,1.1-1c0.4-2.3,0.9-4.5,1.3-6.7c0.6-3.2,1.3-6.4,1.8-9.6c0.6-4.8-2.1-7.8-6.9-7.7c-2.4,0-4.6,1-6.2,2.8
	c-0.3,0.4-0.6,0.8-0.9,1.2c-1.2-2.9-2.9-3.9-6-3.8c-2.5,0.1-4.9,1.3-6.6,3.2c-0.2-0.5-0.2-1,0-1.5c0.3-0.9-0.1-1.1-0.9-1.1
	c-1.2,0-2.5,0-3.7,0c-3.2,0-3.2,0-4,3.1c-0.7-0.1-1.1,0-1.3,0.9c-1.2,6-2.4,11.9-3.7,17.9c-0.2,1.1,0,2.7-0.9,3.3
	c-0.9,0.7-2.4,0.3-3.6,0.3c-2,0-2,0-2,2.1c-1.1,0.1-2.1,0.1-3.2,0c0.8-0.7,2-0.9,2.6-2c-0.7,0-1.3,0.1-1.2-0.9
	c0.9-0.1,1.8-0.1,2.7,0l0,0c0.9-0.2,1.9-0.3,2.9-0.2c0.8,0,1.1-0.3,1.2-1.1c1.5-7.5,3-14.9,4.6-22.4c0.2-0.8,0-1-0.8-0.9
	c-2.1,0-4.2,0-6.2,0c-0.6-0.1-1.1,0.2-1.2,0.8c0,0.1,0,0.1,0,0.2c-0.4,2.2-0.9,4.4-1.3,6.6c-0.4,2.4-1,4.8-1.7,7.1
	c-0.5,1.2-1,2.4-2.6,2.7c0-0.4,0-0.8,0.1-1.1c0.8-4,1.6-8,2.4-12c0.1-0.4,0.7-1.2-0.4-1.2c-0.7,0-1.7-0.6-2,0.8
	c-0.4,2.3-1,4.6-1.4,6.9c-0.3,2.1-1.1,4.2-1,6.4c-0.9-0.6-1.2-1.7-0.9-2.7c0.9-4.5,1.8-8.9,2.7-13.3c0.2-0.8,0-1-0.8-1
	c-2.4-0.1-4.8,0-7.2,0.1c0-0.5,0.4-0.7,0.7-1c2.2-2.2,4.5-4.4,6.7-6.6c0.6-0.5,1.2-1,1.8-1.5l-0.3-0.3c-1.1,0-2.1,0-3.1,0
	c-0.4,0-0.8,0.2-1.1,0.5c-4.6,4.5-9.1,9-13.7,13.5c-0.3,0.4-0.3,0.9,0,1.4c1.1,3,2.3,5.9,3.4,8.9c1.2,3.4,2.7,6.7,3.7,10.1
	c-0.6-0.3-0.8-1-1-1.5c-2.3-6.1-4.6-12.2-6.9-18.3c-0.4-0.7-0.2-1.5,0.4-2c5-4.8,9.9-9.7,14.9-14.7c0.4-0.3,0.8-0.7,1-1.2
	c-3.1,0-6,0-9,0c-0.8,0-1.5,0.3-2,0.8c-2.7,2.7-5.4,5.3-8.3,7.8c0.3-1.5,0.5-3.1,0.8-4.6c0-0.3,0.5-1-0.3-1s-1.7-0.6-1.9,0.5
	c-0.6,2.7-1.1,5.3-1.6,8c-0.4,0.5-0.8,0.8-1.3,1.1l0,0c-0.3-0.5,0-1.1,0.1-1.6c0.6-3.4,1.3-6.7,2-10.1c0.2-0.8,0-1-0.8-1
	c-2.3,0-4.7,0-7,0c-0.8,0-1.1,0.3-1.2,1.1c-0.9,4.5-1.9,9-2.9,13.5c-1.5,6.9-2.9,13.7-4.4,20.6c-0.1,0.7-0.1,1.1,0.8,1.1
	c2.4,0,4.8,0,7.3,0c0.7,0,1-0.2,1.1-0.9c0.3-2.1,0.7-4.1,1.1-6.1c0.2-0.8,0-1.7,0.6-2.3c1-1,2.1-1.9,3.3-3l0.4,1.5
	c-0.6,0.6-1.3,1.2-2,1.8c-0.8,0.6-1.3,1.5-1.3,2.5c-0.3,2.1-0.7,4.2-1.1,6.3c-0.1,0.9-0.4,1.3-1.5,1.3c-1.7,0-3.3,0.1-4.9,0.1
	c-1,0-0.7,0.9-0.9,1.4c-0.2,0.5,0.2,0.6,0.6,0.6c2.6,0,5.2,0.1,7.7-0.1c0.7,0,0.8-0.5,0.9-1c0.3-1.6,0.6-3.2,0.8-4.8
	c0.3-2,0.6-4,2.7-5.1c1.3,3.5,2.5,7,3.9,10.5c2.1,5.7,5.9,8.2,12,8.2h109.6c0.5,0,0.9,0,1.3,0c5.9-0.3,9.3-2.9,11.4-8.5
	c0.7-1.9,1.2-3.9,1.7-5.9c1.3-5.2,2.5-10.5,3.8-15.7c0.2-1,0.1-1.3-1-1.3c-4,0-7.9,0-11.8,0c-0.8,0-1.1,0.2-1.2,1
	c-0.2,1.2-0.4,2.3-0.6,3.5c-0.1,0.8-0.6,1.9-0.3,2.5c0.3,0.6,1.5,0.2,2.4,0.3c0.3,0,0.7-0.1,0.7,0.5c-0.2,2.7-2.4,4.8-5,4.9
	c-0.8-4.4,0.1-9,2.5-12.8c2-3.4,5.7-5.5,9.7-5.3c2.5,0.1,4.9,0,7.4,0c1.2,0,1.9-0.3,2.1-1.7c0.1-1.4,0.5-2.9,0.8-4.4
	c0-0.4,0.6-1.1-0.3-1.2c-0.7,0-1.8-0.6-2,0.8c-0.2,1.1-0.5,2.2-0.6,3.4c-0.1,0.7-0.4,1-1.2,1c-2.7,0-5.3,0.3-8,0.1
	c-3.3-0.2-6.5,1.3-8.6,3.9c-3.6,4.2-4.9,9.9-3.4,15.2c-0.8-0.6-1.3-1.5-1.3-2.5c-0.8-4.7,0.5-9.6,3.5-13.3c2.1-2.8,5.5-4.4,9.1-4.2
	c2.5,0.1,5,0,7.5,0c1,0,1.4-0.3,1.6-1.3c0.2-1.6,0.5-3.2,0.9-4.7c0.2-1,0.1-1.3-1-1.3c-4.1,0.1-8.2,0-12.3,0c-0.9,0-1.9,0.1-2.8,0.4
	c-4.8,1.3-8.9,4.5-11.3,8.9c-3.6,5.9-5.7,12.1-4.5,19.1c1,5.9,5.3,9.3,10.7,8.6c1.5-0.3,3-0.8,4.3-1.5l-0.5,1.7
	c-2.7,1.1-5.8,1.1-8.5,0C167.7,137.7,167.5,137.6,167.3,137.6L167.3,137.6z M191.9,130.2c0.7,3.7,2.6,6.4,6.3,7.3
	c4,1.1,8.2,0.2,11.4-2.5c4.7-3.9,7.1-12.7,5.1-18.5c-0.6-1.9-2-3.5-3.9-4.3c-3.1-1.2-6.6-1.3-9.8-0.2c-3.5,1.3-6.3,4-7.7,7.5
	c-0.9-0.2-1.3,0.1-1.6,1.1c-1.2,5.4-2.6,10.8-3.9,16.2c-0.6,2.9-1.8,5.6-3.6,8c-2.7,3.1-6.2,3.8-10,3.8c-35.3,0-70.5,0-105.8,0
	c-3.8,0-7.6,0.3-11.2-1.8c0,0.3,0,0.4,0,0.4c0.2,0.2,0.3,0.4,0.5,0.6c2.3,2,5.3,3,8.3,2.9c36,0,72,0,108,0c1.5,0,3,0,4.5-0.2
	c4-0.2,7.6-2.6,9.3-6.3c0.6-1.2,1-2.4,1.3-3.7L191.9,130.2z M215.2,116.2c2,4.5,1.3,9-0.3,13.3c-1.9,6.3-8.3,10.2-14.8,9
	c-1.1-0.2-2.1-0.7-3.3-1c0.7,1,1.7,1.8,2.8,2.3c4.5,1.9,9.7,1,13.3-2.2c4.6-4.5,6-10.2,5.2-16.4C218,119.2,216.9,117.4,215.2,116.2
	L215.2,116.2z M123.4,116.3c0.6,2.1,0.7,4.3,0.2,6.4c-0.9,4.8-1.9,9.5-2.8,14.3c-0.2,0.9-0.5,1.1-1.3,1.1c-1.3,0-2.8,0-4.2,0
	c-1,0-0.8,0.8-0.9,1.3c-0.1,0.8,0.5,0.6,0.9,0.6c2.2,0,4.3,0,6.5,0c0.5,0,0.9-0.2,1-0.7c1-5.7,2.7-11.3,3.1-17.1
	C126.3,120,125.3,117.6,123.4,116.3L123.4,116.3z M224,135.3c0-1.8-1.5-3.3-3.3-3.3c-1.8,0-3.3,1.5-3.3,3.3s1.5,3.3,3.3,3.3
	C222.6,138.6,224,137.1,224,135.3z"/>
<path class="st1" d="M46.3,126.2l-0.4-1.4c-1.2,1.1-2.3,2-3.3,3c-0.6,0.6-0.5,1.5-0.6,2.3c-0.4,2-0.7,4.1-1.1,6.1
	c-0.1,0.7-0.4,0.9-1.1,0.9c-2.4,0-4.8,0-7.3,0c-0.9,0-0.9-0.4-0.8-1.1c1.5-6.9,2.9-13.7,4.4-20.6c1-4.5,1.9-9,2.9-13.5
	c0.2-0.8,0.4-1.1,1.2-1.1c2.3,0,4.7,0,7,0c0.8,0,1,0.2,0.8,1c-0.7,3.4-1.3,6.7-2,10.1c-0.1,0.5-0.4,1-0.1,1.6h-0.2v0.1l0.1-0.1
	c0.5-0.3,1-0.7,1.3-1.1c1.1-0.9,2.1-1.8,3-2.9c2.9-2.5,5.6-5.2,8.3-7.8c0.5-0.5,1.3-0.8,2-0.8c2.9,0,5.9,0,9,0
	c-0.2,0.5-0.5,0.9-1,1.2c-5,4.9-9.9,9.8-14.9,14.7c-0.6,0.5-0.8,1.3-0.4,2c2.3,6.1,4.6,12.2,6.9,18.3c0.2,0.6,0.4,1.2,1,1.5
	c0.4,0.6,1.1,1.1,1.8,1.3c0.9,0.5,1.9,0.7,2.9,0.7c2.4,0.2,4.8,0.2,7.1,0c1.1,0.1,2.1,0.1,3.2,0h7.6c0.9,0.2,1.8,0.2,2.7,0h8.1
	l6.7,0.2c-0.1,0-0.3,0.1-0.2-0.1c0-0.2,0,0,0.1,0c1.2,0,2.3,0,3.5,0c0.1,0,0,0.2-0.1,0.2h-0.1c3.5-0.2,7.1-0.1,10.6,0
	c-0.1,0-0.2,0-0.2,0s-0.2,0,0-0.1c0.2-0.1,0.5-0.2,0.6,0.1h-0.2h7.3c0.5,0,1,0,1.5-0.1l0,0h14.8c2,0.1,4.1,0.1,6.1,0
	c5.7,0,11.4,0,17.1,0c3,0,5.9,0,8.9,0c0.7,0,1.3,0.1,2,0.1c2.1,0,2.7-0.5,3.3-2.7l0.5-1.7c-1.4,0.7-2.8,1.2-4.3,1.5
	c-5.5,0.8-9.8-2.7-10.7-8.6c-1.1-7,0.9-13.2,4.5-19.1c2.4-4.4,6.5-7.5,11.3-8.9c0.9-0.2,1.8-0.4,2.8-0.4c4.1,0,8.2,0,12.3,0
	c1.1,0,1.3,0.3,1,1.3c-0.4,1.6-0.7,3.2-0.9,4.7c-0.1,1-0.5,1.3-1.6,1.3c-2.5-0.1-5,0.1-7.5,0c-3.5-0.2-7,1.4-9.1,4.2
	c-3,3.7-4.3,8.6-3.5,13.3c0.1,1,0.5,1.9,1.3,2.5c0.4,0.6,1,0.9,1.7,1c2.7-0.1,4.8-2.3,5-4.9c0-0.6-0.4-0.4-0.7-0.5
	c-0.8-0.1-2,0.4-2.4-0.3c-0.4-0.7,0.1-1.6,0.3-2.5c0.2-1.2,0.4-2.3,0.6-3.5c0.1-0.8,0.5-1,1.2-1c4,0,7.9,0,11.8,0
	c1.1,0,1.2,0.3,1,1.3c-1.3,5.2-2.6,10.4-3.8,15.7c-0.4,2-1,3.9-1.7,5.9c-2,5.6-5.5,8.2-11.4,8.5c-0.5,0-0.9,0-1.3,0H63.2
	c-6.1,0-9.8-2.5-12-8.2c-1.3-3.5-2.6-7-3.9-10.5L46.3,126.2z"/>
<path class="st1" d="M113.7,120.6c-0.5-0.9-1.5-1.2-2.4-0.9c-1.3,0.3-2.3,1.3-2.5,2.7c-0.7,2.9-1.3,5.9-1.9,8.8
	c-0.3,1.7-0.7,3.3-1,5c-0.1,0.9-0.6,1.1-1.3,1.1c-2,0-4.1,0-6.1,0c-1,0-1-0.4-0.9-1.1c0.8-4,1.6-8,2.4-12.1c0-0.3,0.1-0.7,0.1-1
	c0.4-0.7,0.4-1.5,0-2.2c-0.1-0.8-0.7-0.9-1.3-1c-1.8-0.3-3.5,1-3.7,2.8c0,0,0,0,0,0.1c-1,4.5-2,9-2.9,13.5c-0.2,0.9-0.5,1.3-1.5,1.2
	c-2-0.1-4,0-6,0l-1.1-0.1l4.2-21.3c0.8-3.1,0.8-3.1,4-3.1c1.2,0,2.5,0,3.7,0c0.8,0,1.2,0.1,0.9,1.1c-0.2,0.5-0.2,1,0,1.5
	c1.6-2,4-3.1,6.6-3.2c3.1-0.1,4.8,0.9,6,3.8c0.3-0.4,0.6-0.8,0.9-1.2c1.6-1.7,3.9-2.7,6.2-2.8c4.8,0,7.5,2.9,6.9,7.7
	c-0.4,3.2-1.1,6.4-1.8,9.6c-0.4,2.2-0.9,4.5-1.3,6.7c-0.1,0.7-0.3,1-1.1,1c-2.2,0-4.5,0-6.7,0c-0.8,0-0.6-0.4-0.5-0.9
	c0.8-4.1,1.6-8.1,2.3-12.2c0.1-0.4,0.1-0.8,0.1-1.3C114.2,121.9,114.1,121.2,113.7,120.6z"/>
<path class="st1" d="M152.7,123.1h0.1c2.4,0.2,2.4,0.3,1.3,2.5c-0.7,1.5-1.6,3-2.7,4.2c-1.2,1.3-1.2,1.3,0,2.9l0,0
	c0,0.2,0,0.5,0.3,0.5l0,0c-0.1,0.2,0,0.4,0.3,0.5l0,0c0,0.3,0.1,0.7,0.5,0.8l0,0c0,0.8,0.8,1.3,0.7,2.4h-6.4c-0.3-0.1-0.8,0.1-1-0.4
	c-0.5-1.2-0.7-1.3-1.6-0.4c-0.8,0.7-1.8,1.2-2.9,1.3c-2,0.2-4,0.2-6-0.1l0,0c0,0,0-0.1,0-0.1c-6.8-4.3-6.5-12.5,0.7-16.4
	c0.1-0.1,0.3-0.2,0.5-0.2c0.8-0.2,1-0.6,0.6-1.5c-1.3-3-0.7-6.4,1.6-8.7c2.2-2.2,5.5-3,8.5-2.1c4,1,5.8,5.7,3.9,9.8
	c-0.8,1.6-2,2.9-3.5,3.8c-1.6,1-1.6,1.2-0.3,2.7l0,0c-0.1,0.3,0.1,0.5,0.4,0.5c1-2,2.7-2.1,4.6-1.9
	C152.3,123.3,152.5,123.2,152.7,123.1z M140.6,130.8L140.6,130.8c0.7-0.2,1.5-0.4,1.3-1.4c-0.3-0.9-0.7-1.7-1.1-2.5
	c-0.2-0.4-0.2-1.2-0.8-1c-1.2,0.3-2.2,1.1-2.7,2.3c-0.5,1-0.1,2.3,0.9,2.8c0.6,0.4,1.5,0.4,2.1,0C140.5,131,140.6,131,140.6,130.8
	L140.6,130.8z M145.9,114.3c0-0.1,0-0.2,0-0.2c-0.4-0.7-1.3-0.9-2-0.6c-1,0.3-1.6,1.2-1.3,2.2c0.2,0.8,0.1,1.9,1.2,2.2
	c0,0,0.1-0.1,0.2-0.1C145.8,116.7,146.3,115.8,145.9,114.3L145.9,114.3z"/>
<path class="st1" d="M77.3,137.6c-0.9-0.1-1.8-0.1-2.7,0c-0.4-0.3-1,0.2-1.3-0.5c0.2-0.7,0.3-1.3,0.2-2c-3.4,2.9-7,4.1-11.1,1.9
	c-1.7-1.5-2.6-3.8-2.3-6.1c0.2-1.1,0.4-2.2,0.7-3.3c1-4.8,2-9.6,2.9-14.3l0,0c2.4-0.1,4.8-0.2,7.2-0.1c0.8,0,1,0.2,0.8,1
	c-0.9,4.5-1.8,8.9-2.7,13.3c-0.3,1,0,2.1,0.9,2.7c0.6,0.5,1.5,0.6,2.2,0.3c1.5-0.3,2.1-1.5,2.6-2.7c0.8-2.3,1.3-4.7,1.7-7.1
	c0.5-2.2,0.9-4.4,1.3-6.6c0-0.6,0.5-1,1.1-1c0.1,0,0.1,0,0.2,0c2.1,0,4.1,0,6.2,0c0.7,0,0.9,0.2,0.8,0.9c-1.6,7.5-3.1,15-4.7,22.4
	c-0.1,0.7-0.4,1.1-1.2,1.1C79.2,137.3,78.2,137.3,77.3,137.6L77.3,137.6z"/>
<path class="st1" d="M193.2,119.6c1.4-3.5,4.2-6.2,7.7-7.5c3.2-1.1,6.7-1.1,9.8,0.2c1.9,0.8,3.3,2.3,3.9,4.3
	c2.1,5.8-0.4,14.6-5.1,18.5c-3.1,2.6-7.4,3.6-11.4,2.5c-3.8-0.9-5.7-3.6-6.3-7.3C191.3,126.6,191.8,122.9,193.2,119.6z M207,121.5
	c0.1-0.7-0.1-1.4-0.5-2c-0.1-0.7-0.6-0.8-1.2-1c-1.1-0.3-2.3,0.1-2.9,1c-2,2.6-2.9,5.9-2.5,9.1c0,0.7,0.4,1.3,1,1.7
	c0.5,0.4,1.2,0.5,1.9,0.3c1.1-0.2,2.1-1,2.6-2.1C206.6,126.5,207.2,124,207,121.5z"/>
<path class="st0" d="M193.2,119.6c-1.4,3.4-1.9,7.1-1.3,10.7l-2.7,10.5c-0.3,1.3-0.8,2.5-1.3,3.7c-1.7,3.7-5.3,6.1-9.3,6.3
	c-1.5,0.1-3,0.2-4.5,0.2c-36,0-72,0-108,0c-3,0.2-6-0.8-8.3-2.9c-0.2-0.2-0.4-0.4-0.5-0.6c0,0,0-0.1,0-0.4c3.5,2.2,7.4,1.8,11.2,1.8
	c35.3,0,70.5,0,105.8,0c3.8,0,7.4-0.8,10-3.8c1.8-2.4,3-5.1,3.6-8c1.3-5.3,2.7-10.8,3.9-16.2C191.8,119.7,192.3,119.4,193.2,119.6z"
	/>
<path class="st0" d="M174.2,129.2c-0.7-0.1-1.3-0.4-1.7-1c-1.5-5.3-0.2-11,3.4-15.2c2.1-2.6,5.3-4.1,8.6-3.9c2.7,0.1,5.3-0.1,8-0.1
	c0.7,0,1.1-0.3,1.2-1c0.2-1.1,0.5-2.2,0.6-3.4c0.2-1.4,1.3-0.8,2-0.8c0.9,0,0.4,0.7,0.3,1.2c-0.2,1.5-0.6,2.9-0.8,4.4
	c-0.1,1.5-0.9,1.7-2.1,1.7c-2.5,0-4.9,0.1-7.4,0c-4-0.2-7.7,1.9-9.7,5.3C174.3,120.2,173.3,124.8,174.2,129.2z"/>
<path class="st0" d="M60,130.9c-0.3,2.3,0.6,4.6,2.3,6.1l0.8,2.7c-0.7-0.2-1.4-0.7-1.8-1.3c-1-3.5-2.5-6.7-3.7-10.1
	c-1.1-3-2.2-5.9-3.4-8.9c-0.3-0.6-0.2-1.3,0.3-1.7c4.6-4.4,9.1-8.9,13.7-13.5c0.3-0.3,0.7-0.5,1.1-0.5c1.1,0,2.1,0,3.1,0l0.3,0.3
	c-0.6,0.5-1.2,1-1.8,1.5c-2.2,2.2-4.5,4.4-6.7,6.6c-0.3,0.3-0.7,0.5-0.7,1l0,0c-0.1,0-0.2,0-0.2,0c-2.3,2.3-4.7,4.6-7,6.8
	c-0.3,0.2-0.4,0.6-0.2,0.9C57.5,124.2,58.6,127.7,60,130.9z"/>
<path class="st0" d="M215.2,116.2c1.7,1.2,2.7,3,2.9,5c0.8,6.3-0.6,11.9-5.2,16.4c-3.6,3.3-8.8,4.1-13.3,2.2
	c-1.1-0.5-2.1-1.3-2.8-2.3c1.2,0.3,2.2,0.9,3.3,1c6.5,1.2,12.9-2.7,14.8-9C216.4,125.2,217.2,120.8,215.2,116.2z"/>
<path class="st0" d="M145.8,136.6c0.2,0.5,0.7,0.2,1,0.4c0,0.7,0.4,1,1.1,0.9c1.1-0.1,2.2,0,3.3,0s2.5,0.5,2.8-0.2s-0.8-1.9-1.3-2.9
	c0-0.1-0.2-0.1-0.3-0.2l0,0c0-0.4,0-0.7-0.5-0.8l0,0c0.1-0.3,0-0.5-0.3-0.5l0,0c0.1-0.3,0-0.5-0.3-0.5l0,0c0-0.5,0.2-1.1,0.6-1.5
	c1.2-1.3,2.2-2.8,3-4.4c0.7-0.8,1.7-1,2.7-0.7c0.4,0.3,0.1,0.7,0,1.1c-0.7,2.2-1.9,4.2-3.5,5.8c-0.6,0.4-0.7,1.3-0.3,1.9
	c0,0,0.1,0.1,0.1,0.1c0.7,1.3,1.3,2.5,2,3.8c0.3,0.6,0.3,1-0.6,1c-1.9,0-3.8,0-5.7,0c-0.5,0-0.9,0-1.1-0.6c-0.3-0.9-0.9-0.8-1.4-0.3
	c-0.7,0.6-1.4,1-2.2,1.3c-2,0.1-4.1,0.1-6.1,0c-1.3-0.4-2.5-1.2-3.5-2.2c-0.2-0.2-0.8-0.5-0.1-0.9l0,0c0.3,0.4,0.7,0.7,1.2,0.8
	C139.7,138.9,143,139.1,145.8,136.6z"/>
<path class="st0" d="M100.1,120.7c0.4,0.7,0.4,1.5,0,2.2c-1.1,0.5-1.9,1.5-2.1,2.7c-1.1,4.9-2.1,9.8-3.2,14.8h-8.1
	c-0.2-1.9,0-2.1,1.7-2.1c1-0.1,2-0.1,3-0.1c1.2,0.1,1.5-0.4,1.7-1.3c0.9-4.4,1.8-8.9,2.8-13.3c0.2-1.9,1.9-3.2,3.8-2.9
	C99.9,120.7,100,120.7,100.1,120.7z"/>
<path class="st0" d="M123.3,116.3c1.9,1.3,2.9,3.7,2.5,6c-0.5,5.8-2.2,11.4-3.1,17.1c-0.1,0.6-0.4,0.7-1,0.7c-2.2,0-4.3,0-6.5,0
	c-0.4,0-1,0.1-0.9-0.6c0.1-0.6-0.1-1.3,0.9-1.3c1.4,0,2.8,0,4.2,0c0.8,0,1.1-0.3,1.3-1.1c0.9-4.8,1.9-9.5,2.8-14.3
	C124,120.6,124,118.4,123.3,116.3z"/>
<path class="st0" d="M113.7,120.6c0.4,0.7,0.4,1.5,0.1,2.3c-1.1,0.4-1.9,1.3-2,2.5c-1,4.6-1.9,9.1-2.9,13.7
	c-0.2,0.8-0.5,1.2-1.4,1.2c-2-0.1-4,0-6,0c-0.5,0-1.1,0.2-1-0.7s0-1.3,1.1-1.3c1.3,0,2.5,0,3.8,0c1,0.1,1.3-0.3,1.5-1.2
	c0.9-4.4,1.9-8.9,2.8-13.3C110.2,121.3,111.3,120.5,113.7,120.6z"/>
<path class="st0" d="M46.3,126.2l1.1,2.9c-2.1,1.1-2.4,3.1-2.7,5.1c-0.2,1.6-0.5,3.2-0.8,4.8c-0.1,0.5-0.2,0.9-0.9,1
	c-2.6,0.2-5.2,0-7.7,0.1c-0.4,0-0.8-0.1-0.6-0.6c0.2-0.5-0.2-1.4,0.9-1.4c1.7,0,3.3-0.2,4.9-0.1c1,0,1.3-0.4,1.5-1.3
	c0.3-2.1,0.7-4.2,1.1-6.3c0.1-1,0.6-1.9,1.3-2.5C45,127.4,45.7,126.8,46.3,126.2z"/>
<path class="st0" d="M87.8,116l-4.2,21.3l1.1,0.1c-0.2,1-0.4,2.1-0.8,3h-7.6c0-2,0-2,2-2.1c1.2,0,2.7,0.4,3.6-0.3s0.7-2.2,0.9-3.3
	c1.3-6,2.5-11.9,3.7-17.9C86.7,116,87,115.9,87.8,116z"/>
<path class="st0" d="M72,130.4c-0.7,0.3-1.6,0.2-2.2-0.3c-0.1-2.2,0.7-4.2,1-6.4c0.4-2.3,1-4.6,1.4-6.9c0.2-1.5,1.3-0.8,2-0.8
	c1.1,0,0.4,0.8,0.4,1.2c-0.8,4-1.6,8-2.4,12C72.1,129.7,72.1,130,72,130.4z"/>
<path class="st0" d="M152.7,123.1c-0.2,0.1-0.4,0.1-0.6,0.1c-1.9-0.2-3.6-0.1-4.6,1.9c-0.1-0.2-0.1-0.5-0.4-0.5l0,0
	c-0.2-0.7,0.2-1.1,0.8-1.4c2.3-1.1,3.9-3.2,4.5-5.7c0.3-1.7,0.1-3.5-0.4-5.1l0,0c2.8,1.9,3.5,6.3,1.5,9.6
	C153.3,122.3,153,122.7,152.7,123.1z"/>
<path class="st0" d="M224,135.3c0,1.8-1.5,3.3-3.3,3.3c-1.8,0-3.3-1.5-3.3-3.3c0-1.8,1.5-3.3,3.3-3.3
	C222.5,132.1,224,133.5,224,135.3z M222.3,133.8c-0.8-1-1.7-0.9-2.9-0.3L222.3,133.8c0,0.6,0.3,1.3-0.4,1.8
	c-0.5,0.4,0.1,0.9,0.4,1.1c0.3,0.2,0.5-0.3,0.6-0.6C223.3,135.3,223.1,134.3,222.3,133.8z M219.5,137.1c0.7,0.9,1.6,0.5,2.4,0.1
	c-1,0-0.7-1.3-1.5-1.6C220,136.1,220.7,137.2,219.5,137.1c0-1.1,0-2.3-0.2-3.4c-0.9,0.6-1.2,1.8-0.6,2.7
	C218.9,136.7,219.2,136.9,219.5,137.1L219.5,137.1z M220.9,135c0.3,0,0.6,0,0.7-0.4c0-0.4-0.3-0.4-0.5-0.3c-0.3,0-0.6-0.1-0.7,0.3
	S220.5,135,220.9,135L220.9,135z"/>
<path class="st0" d="M73.3,137.1c0.2,0.7,0.9,0.2,1.3,0.5c-0.2,1,0.5,0.8,1.2,0.9c-0.6,1.1-1.8,1.3-2.6,2c-2.4,0.2-4.8,0.2-7.1,0
	c-0.6-0.6-1.5-1-1.8-2C68.2,139.5,69.6,139.3,73.3,137.1z"/>
<path class="st0" d="M50.3,109.4c-0.9,1-2,2-3.1,2.9c0.5-2.7,1-5.3,1.6-8c0.3-1.1,1.3-0.5,1.9-0.5c0.6,0,0.3,0.6,0.3,1
	C50.9,106.3,50.6,107.9,50.3,109.4z"/>
<path class="st0" d="M176.3,137.8c-0.6,2.1-1.2,2.7-3.3,2.7c-0.7,0-1.3,0-2-0.1c-1.3-0.5-2.5-1.3-3.4-2.4l0.2-0.2
	C170.5,139,173.6,139,176.3,137.8z"/>
<path class="st0" d="M104.5,140.6h0.1c0.1,0,0.2-0.2,0.1-0.2c-1.2,0-2.3,0-3.5,0h-0.1c0,0,0.1,0.1,0.2,0.1L104.5,140.6z"/>
<path class="st0" d="M115.3,140.6h0.2c-0.2-0.3-0.4-0.1-0.6-0.1c-0.2,0.1-0.1,0.2,0,0.1s0.1,0,0.2,0
	C115.1,140.6,115.2,140.6,115.3,140.6z"/>
<path class="st0" d="M167.7,138l-0.4-0.4l0,0c0.2-0.1,0.5,0,0.6,0.2L167.7,138z"/>
<path class="st0" d="M152,112.4l-0.1-0.1l0,0c0,0,0,0.1,0,0.1H152z"/>
<path class="st0" d="M77.3,137.6L77.3,137.6z"/>
<path class="st0" d="M167.3,137.6L167.3,137.6C167.2,137.6,167.2,137.6,167.3,137.6L167.3,137.6L167.3,137.6z"/>
<path class="st0" d="M124.1,140.5L124.1,140.5z"/>
<path class="st2" d="M83.9,140.4c0.3-1,0.6-2,0.8-3c2,0,4-0.1,6,0c1,0,1.3-0.4,1.5-1.2c0.9-4.5,1.8-9,2.9-13.5
	c0.2-1.8,1.9-3.1,3.7-2.8c0,0,0,0,0.1,0c0.6,0.1,1.2,0.2,1.3,1c-1.8-0.4-3.6,0.8-4,2.6c0,0.1,0,0.2,0,0.3c-1,4.4-1.9,8.9-2.8,13.3
	c-0.2,1-0.5,1.5-1.7,1.3c-1,0-2,0-3,0.1c-1.7,0-1.9,0.3-1.7,2.1C85.8,140.6,84.9,140.6,83.9,140.4z"/>
<path class="st2" d="M73.3,137.1c-3.6,2.2-5.1,2.4-9.1,1.3c0.3,1,1.2,1.3,1.8,2c-1,0.1-2-0.2-2.9-0.7l-0.8-2.7
	c4.2,2.2,7.8,1,11.1-1.9C73.5,135.8,73.5,136.5,73.3,137.1z"/>
<path class="st2" d="M46,113.4l-0.1,0.1v-0.1H46L46,113.4z"/>
<path class="st0" d="M140.8,126.8c0.5,0.8,0.9,1.6,1.1,2.5c-0.6,0.4-1.3,0.6-1.3,1.4l0,0c-0.2,0-0.2,0.1-0.3,0.2
	c-0.6,0.4-1.5,0.4-2.1,0C137.9,128.8,138.4,127.9,140.8,126.8z"/>
<path class="st2" d="M145.8,136.6c-2.8,2.6-6,2.3-9.3,1.5c-0.5,0-1-0.3-1.2-0.8c2,0.3,4,0.3,6,0.1c1.1-0.2,2.1-0.6,2.9-1.3
	C145.1,135.3,145.3,135.3,145.8,136.6z"/>
<path class="st2" d="M152.5,134.6c0.1,0.1,0.2,0.1,0.3,0.2c0.5,1,1.6,2,1.3,2.9s-1.8,0.2-2.8,0.2c-1,0.1-2.2,0-3.3,0
	c-0.7,0-1.1-0.2-1.1-0.9h6.4C153.3,135.9,152.4,135.4,152.5,134.6z"/>
<path class="st2" d="M140.8,126.8c-2.3,1.1-2.9,2-2.5,4.1c-1-0.6-1.4-1.8-0.9-2.8c0.4-1.2,1.5-2,2.7-2.3
	C140.5,125.6,140.5,126.4,140.8,126.8z"/>
<path class="st2" d="M144,117.8c-0.1,0-0.2,0.1-0.2,0.1c-1.1-0.4-1-1.4-1.2-2.2c-0.2-1,0.4-2,1.3-2.2c0.7-0.4,1.6-0.1,2,0.6
	c0,0.1,0,0.2,0,0.2C143.8,114.6,142.9,116,144,117.8z"/>
<path class="st0" d="M144,117.8c-1-1.8-0.2-3.3,2-3.5C146.3,115.8,145.8,116.7,144,117.8z"/>
<path class="st2" d="M140.6,130.8c0-0.9,0.7-1.1,1.3-1.4C142.1,130.4,141.3,130.5,140.6,130.8z"/>
<path class="st2" d="M152,133.8c0.4,0.1,0.5,0.4,0.5,0.8C152.1,134.4,152,134.1,152,133.8z"/>
<path class="st2" d="M151.5,132.8c0.3,0,0.4,0.3,0.3,0.5C151.5,133.2,151.4,133,151.5,132.8z"/>
<path class="st2" d="M151.7,133.3c0.3,0,0.3,0.3,0.3,0.5C151.8,133.7,151.7,133.5,151.7,133.3z"/>
<path class="st2" d="M147.1,124.6c0.3,0,0.3,0.3,0.4,0.5C147.3,125.1,147,125,147.1,124.6z"/>
<path class="st2" d="M140.3,131c0-0.1,0.1-0.3,0.3-0.2C140.6,131,140.5,131,140.3,131z"/>
<path class="st2" d="M60,130.9c-1.5-3.2-2.5-6.7-3.8-9.9c-0.2-0.3-0.1-0.7,0.2-0.9c2.3-2.3,4.7-4.6,7-6.8c0,0,0.2,0,0.2,0
	c-1,4.8-2,9.6-2.9,14.3C60.5,128.6,60.3,129.7,60,130.9z"/>
<path class="st0" d="M202.8,130.7c-0.6,0.2-1.3,0.1-1.9-0.3c-0.4-2.7,0.1-5.5,1.3-8c0.8-1.8,2-3.3,4.3-2.9c0.4,0.6,0.5,1.3,0.5,2
	c-1,0.3-1.8,1-2.3,1.9C203.5,125.6,202.8,128.1,202.8,130.7z"/>
<path class="st2" d="M202.8,130.7c0-2.6,0.7-5.1,2-7.3c0.5-0.9,1.3-1.6,2.3-1.9c0.2,2.5-0.4,5-1.7,7.1
	C204.8,129.7,203.9,130.5,202.8,130.7z"/>
<path class="st2" d="M206.5,119.5c-2.3-0.4-3.5,1.1-4.3,2.9c-1.2,2.5-1.7,5.3-1.3,8c-0.6-0.3-1-1-1-1.7c-0.4-3.3,0.5-6.5,2.5-9.1
	c0.7-0.9,1.8-1.3,2.9-1C205.9,118.6,206.4,118.8,206.5,119.5z"/>
<path class="st2" d="M219.5,137.1c-1-0.5-1.3-1.7-0.8-2.6c0.2-0.3,0.4-0.6,0.7-0.7C219.4,134.8,219.5,136,219.5,137.1L219.5,137.1z"
	/>
<path class="st2" d="M222.3,133.8c0.8,0.5,1,1.5,0.6,2.3c-0.1,0.3-0.2,0.8-0.6,0.6c-0.4-0.3-0.9-0.7-0.4-1.1
	C222.6,135.1,222.3,134.4,222.3,133.8L222.3,133.8z"/>
<path class="st2" d="M219.5,137.1c1.2,0.1,0.5-1,0.9-1.4c0.8,0.3,0.5,1.5,1.5,1.6C221.1,137.6,220.2,138,219.5,137.1L219.5,137.1z"
	/>
<path class="st2" d="M222.3,133.8l-2.9-0.3C220.6,132.9,221.5,132.8,222.3,133.8L222.3,133.8z"/>
<path class="st2" d="M220.8,135c-0.3,0-0.5,0-0.5-0.4c0-0.4,0.4-0.3,0.7-0.3c0.3,0,0.6,0,0.5,0.3C221.5,135,221.1,135,220.8,135z"/>
</svg>
