<?xml version="1.0" encoding="utf-8"?>
<!-- Generator: Adobe Illustrator 21.1.0, SVG Export Plug-In . SVG Version: 6.00 Build 0)  -->
<svg version="1.1" id="Layer_1" xmlns="http://www.w3.org/2000/svg" xmlns:xlink="http://www.w3.org/1999/xlink" x="0px" y="0px"
	 viewBox="0 0 250 250" style="enable-background:new 0 0 250 250;" xml:space="preserve">
<style type="text/css">
	.st0{fill:#231F20;}
	.st1{fill:#DBC18B;}
	.st2{fill:#F9A51A;}
	.st3{fill:#FFFFFF;}
	.st4{fill:#EC1C24;}
</style>
<title>Grocery</title>
<path class="st0" d="M5.4,172.2v-19.5h12.2v-19.2h12.4c16.7-33.5,54-55.1,95.5-55.1s78.8,21.6,95.5,55.1h12.2v19.2h12.1v19.5
	L5.4,172.2z"/>
<path class="st1" d="M231.1,154.9v-19.2h-11.4c-15.5-32.4-51.8-55.1-94.1-55.1s-78.7,22.7-94.1,55.1H19.8V155H7.7v16.2H11v-12.9
	h12.1v-19.3h11.7c16-33.1,51.4-54.4,90.7-54.4s74.7,21.3,90.7,54.4h11.6v19.3H240v12.9h3.2v-16.2H231.1z"/>
<path class="st2" d="M238.3,171.1v-11.3h-12.1v-19.3h-11c-15-32-49.5-54.4-89.6-54.4s-74.7,22.4-89.6,54.4H24.8v19.3H12.6v11.3
	H238.3z"/>
<path class="st0" d="M58.7,154.8l-0.9,2.1l-22.3-10l4.4-9.3l13.3,6.1l1.1-2.4L44.5,130l6.2-7.9l22.7,10.1l-1.9,2.7
	c-0.5,0.6-1,1.2-1.5,1.9s-1.2,1.6-1.7,2.3l-1.4,1.9l-1.2,1.5c-0.7,0.9-1.3,1.7-2.1,2.7l-0.5,0.7L58.7,154.8z M94.7,101.2
	c0-2.8,1.2-5.5,3.4-7.3c2.9-2.1,6.5-2.9,10-2l0.9,3.9l-0.3-5.4l9.2-0.4l9-0.5l0.3,6.5c1.2-3.8,4.7-6.3,8.6-6.3c0.3,0,0.7,0,1,0
	c2.4,0.2,4.7,1.3,6.2,3.1c1.8,2.3,2.6,5.1,2.5,7.9c0,0.4,0,0.8-0.1,1.2l5.2-9.5l9.7,2.7l-0.7,10.1c0.4-0.7,0.9-1.3,1.4-1.9
	c1.9-2.3,4.8-3.7,7.9-3.8c2.9,0,5.7,1.2,7.8,3.3l1.3,1.3l-4,8.2l7.8-6.8l8.2,5.9l-5.7,12.7l10.7-8.8l11.9,13.8l-10.2,8.4l13.4-2.9
	l4.4,9l-19.8,14.9l-5.2-10.9c-0.5-1.2-1.2-2.5-1.8-3.8l-9.9-11.6c-0.6-0.4-1.3-0.9-1.9-1.4c-0.6-0.5-1.5-1.2-2.3-1.6l-2.1-1.4
	c0,0-3.9-2.8-5.5-4.1c-1.8-0.2-3.6-0.8-5-1.8c-0.8-0.7-1.5-1.4-2.1-2.3l-2.6-0.7c-0.7-0.2-1.5-0.4-2.3-0.6c-0.8-0.2-1.9-0.5-2.8-0.7
	l-1.8-0.5l-0.6-0.2l-1.8-0.6c-1.5-0.5-3.1-0.9-5.1-1.3l-3-0.8l0.1-0.3c-1.1,0.4-2.2,0.6-3.4,0.6c-0.4,0-0.8,0-1.1,0
	c-2.5-0.2-4.7-1.4-6.3-3.3l0.1,2.4l-10.1,0.5V114l-6.3,0.3l-0.2,0.1c-1.6,1.1-3.4,1.7-5.3,1.8h-0.6c-2.2-0.1-4.4-0.9-6.1-2.3
	l1.4,3.5l-9.8,3.4v-0.2l-4.2,2.5l0,0l-3.1,1.8l-0.4,0.2l-2.1,1.2l0,0l-8.1,4.9l-11.2-21.4l18.1-10.7l5.5,7.6l-3.3-8.3l9.7-3.7
	C92.4,94.8,94.8,101.1,94.7,101.2 M106,100.6c-0.2,0-0.9,0-0.9,1.2c0,2.3,0.9,4.3,1.6,4.3c1,0,2.7-2.2,2.7-2.2l-0.1-2.5
	C109.4,101.6,106.3,100.6,106,100.6 M170.6,109.7c-0.3-0.3-0.6-0.4-1.1,0.1c-0.8,0.9-1.4,2-1.8,3.1c-0.4,1-0.3,1.5,0.2,1.7
	c1.3,0.1,2.5,0,3.7-0.2l1.5-1.3C172.4,111.9,171.5,110.8,170.6,109.7"/>
<path class="st3" d="M45.9,129.4L56,141l-0.5-0.2l-1.6,3.6l-13.3-6.1l-3.5,7.6l20.3,9.3l4.8-10.3l0.4-0.6c0.9-1.2,1.7-2.2,2.5-3.2
	l0.8-1l-2-2.1l0.5-0.6l2.5,1.3l0.8-1.1c0.5-0.8,1.1-1.5,1.8-2.3c0.6-0.8,1-1.3,1.4-1.9l1-1.3L51,122.7L45.9,129.4z"/>
<polygon class="st3" points="84,98.6 89.8,113.4 80.2,100 72.4,104.6 73.5,107.4 71.5,105.1 63.6,109.7 73.8,129.4 80.6,125.4 
	80.7,125.4 86.3,122.1 86.3,122.1 91.9,118.7 92,119.1 99.8,116.2 91.7,95.6 "/>
<path class="st3" d="M118.1,90.2L118.1,90.2l-8.4,0.4l0.8,14.6l-0.3-1l-1.7,1.7c-0.5,0.5-1.1,0.7-1.8,0.8c-0.8,0-2.4-1.9-2.4-5.4
	c0-1.7,0.7-2,1.7-2c0.3,0,0.6,0,0.9,0.1l2.3,0.7l-1.9-7.8l-1-0.1c0,0-0.5,0-1.1,0c-2.7-0.1-5.2,0.9-7.2,2.7
	c-1.7,1.9-2.6,4.5-2.4,7.1c0.2,9.5,6.1,12.9,10.1,12.9h0.5c1.8-0.1,3.5-0.7,4.9-1.7l0.3-0.2l7.2-0.4v0.1l8.4-0.5L126,90L118.1,90.2z
	"/>
<path class="st3" d="M209.5,135.2l-16.6,3.6l12.5-10.4l-5-5.9l-1.3,1l0.9-1.3l-5.3-6.1l-12.9,10.7l6.9-15.7l-6.8-4.9l-10.9,9.3
	l0.3-0.7l-2.7,0.2c0,0-0.3,0-0.5,0c-0.5,0-0.9-0.2-1.3-0.5c-0.4-0.5-0.5-1.1-0.3-1.7c0.3-1.5,1-2.9,2-4c0.3-0.5,0.9-0.9,1.5-1
	c0.8,0,1.5,0.9,1.7,1.2l1.3,2l3.6-7.2l-0.7-0.7c-1.8-2.1-4.5-3.2-7.3-3.2c-2.8,0.1-5.4,1.5-7.1,3.7c-1.5,1.7-2.5,3.7-3.2,5.9
	l0.9-14.2l-8.2-2.3l-8,14.7c0.7-1.6,1.1-3.3,1.3-5.1c0.5-3.9-0.2-7.1-1.9-9.3c-1.4-1.8-3.5-2.9-5.7-3c-0.3,0-0.6,0-0.9,0
	c-4.8,0-8.1,3.9-8.9,10.4c-0.5,3.9,0.2,7.1,2,9.3c1.4,1.7,3.4,2.8,5.5,3c0.4,0,0.7,0,1.1,0c2.7,0,5.2-1.3,6.7-3.6l-1.9,3.6l1.8,0.5
	c2.1,0.5,3.7,1,5.1,1.4l1.2,0.4l1.1-2.7l0.8,0.2l-0.4,3l1.3,0.3c0.9,0.2,1.9,0.5,2.8,0.7c0.7,0.2,1.5,0.4,2.3,0.6l1.6,0.4l0.2-3.1
	c0.3,2.3,1.5,4.4,3.4,5.8c1.4,1,3,1.6,4.7,1.7c1.7,1.2,3,2.1,4.3,3l1,0.8l2-2.1l0.7,0.5l-1.3,2.6l1.2,0.8c0.8,0.5,1.6,1.1,2.4,1.7
	c0.8,0.6,1.3,0.9,1.9,1.3h0.1l4.5,5.3l1.2-1l-0.9,1.3l5.2,6l0,0l0,0c0.7,1.3,1.3,2.5,1.8,3.7l0.5,1.2l2.8-0.8l0.3,0.7l-2.4,1.7
	l0.6,1.1c0.4,0.8,0.9,1.7,1.3,2.7s0.7,1.5,1,2.1l0.8,1.5l18.2-13.7L209.5,135.2z"/>
<path class="st4" d="M51.5,124.5l-3.7,4.8l13,15c1.1-1.6,2.2-2.9,3.2-4.3l-2-2.1l2-2.5l2.6,1.3c1-1.3,2.2-2.9,3.2-4.3L51.5,124.5z
	 M60.4,133.6l-1.3,1.7c0,0-4.7-4.7-5-5l0,0C54.4,130.5,60.3,133.6,60.4,133.6"/>
<path class="st4" d="M54.5,146.2l-13.3-6.1l-2.3,5l17.8,8.2c1.1-2.9,2.4-5.8,4-8.5l-4.5-2.1L54.5,146.2z"/>
<polygon class="st4" points="74.4,127.4 65.5,110.3 71.2,106.9 77.9,114.6 74.1,105.2 79.8,101.9 91,117.6 86.7,120.1 79.4,109 
	84.5,121.5 81,123.5 72.1,113.3 78.7,124.9 "/>
<polygon class="st4" points="85.8,99.4 90.9,97.4 98,115.3 92.8,117.2 "/>
<path class="st4" d="M107.2,97.9l-1.1-4.5c0,0-9.3-1.1-9.1,8.2c0.2,9.3,6.5,11.7,9.1,11.5c1.5-0.1,3-0.6,4.3-1.5l-1.1-4.9
	c-0.6,0.8-1.6,1.3-2.7,1.3c-1.8,0-3.8-2.5-3.8-6.9C102.8,96.7,107.3,97.9,107.2,97.9"/>
<path class="st4" d="M172.9,108.3l2.1-4.1c0,0-6.3-6.6-12.2,0.4c-6.1,7.3-2.7,13.2-0.6,14.7c1.3,0.9,2.8,1.5,4.3,1.6l2.3-4.4
	c-1,0.2-2.1-0.1-2.9-0.7c-1.3-1.1-1.3-4.4,1.5-7.7C170.3,104.6,172.9,108.3,172.9,108.3"/>
<path class="st4" d="M120.1,110.8l5.5-0.3l-1-19.1l-5.5,0.3l0.4,6.9l-2.3,0.1l-0.4-6.9l-5.5,0.3l1,19.2l5.5-0.3l-0.4-7.4l2.4-0.1
	L120.1,110.8z"/>
<path class="st4" d="M136.6,91.6c4,0.4,7.3,3.7,6.4,10.8c-0.9,7.1-4.4,9.4-8.5,9s-7.1-3.9-6.2-10.7
	C129.1,93.9,132.6,91.1,136.6,91.6 M133.9,100.8c-0.5,4.8,0.1,5.5,1.1,5.7c1.3,0.2,2.1-0.8,2.4-4.5c0.5-5-0.1-5.6-1.3-5.7
	C134.9,96.2,134.3,97.1,133.9,100.8"/>
<path class="st4" d="M157.8,96.4l-6-1.7l-9.5,17.3c1.9,0.5,3.6,0.9,5.2,1.4l1.2-2.7l3.1,0.9l-0.3,2.9c1.6,0.4,3.5,1,5.1,1.3
	L157.8,96.4z M152.4,107.9l-2.1-0.6c0,0,2.7-5.8,2.8-6.3h0.1C153.1,101.4,152.4,107.9,152.4,107.9"/>
<path class="st4" d="M186.8,111.7l-5.1-3.7l-14.9,12.9c1.6,1.1,3,2.1,4.4,3.1l2-2.1l2.7,1.9l-1.3,2.7c1.4,0.9,2.9,2.1,4.3,3.1
	L186.8,111.7z M177.7,120.6l-1.7-1.3c0,0,4.5-4.6,4.8-4.9l0,0C180.6,114.7,177.7,120.5,177.7,120.6"/>
<path class="st4" d="M211.3,142.3l-2.7-5.5l-19.6,4.2c0.9,1.7,1.6,3.2,2.3,4.8l2.7-0.8l1.3,2.9l-2.4,1.7c0.8,1.5,1.5,3.3,2.3,4.8
	L211.3,142.3z M198.9,145.8l-0.9-2c0,0,6.3-1.8,6.7-2v0.1C204.3,142.2,198.8,145.8,198.9,145.8"/>
<polygon class="st4" points="179.6,130.4 194.5,118.1 198.2,122.2 192.3,130.9 200.1,124.5 203.3,128.2 188.4,140.6 184.8,136.5 
	190.2,128.2 182.9,134.2 "/>
<path class="st0" d="M104.9,160.8c0.2-0.8,0-1.3-0.9-1.3c-0.7,0-1.4,0.5-1.5,1.2c-0.5,2.2,3.3,0.9,2.8,3.7c-0.2,1.4-1.4,2.4-2.8,2.3
	c-1.7,0-2.1-0.9-1.7-2.6h0.9c-0.2,0.9-0.3,1.8,1,1.8c0.8,0,1.4-0.6,1.6-1.3c0.4-2.2-3.3-0.9-2.7-3.7c0.2-1.3,1.4-2.2,2.7-2.1
	c1.4,0,1.9,0.7,1.7,2.1L104.9,160.8z"/>
<polygon class="st0" points="107.5,158.8 108.4,158.8 106.8,166.5 105.9,166.5 "/>
<polygon class="st0" points="109.8,158.8 110.9,158.8 112.1,165.2 112.1,165.2 113.4,158.8 114.4,158.8 112.8,166.5 111.5,166.5 
	110.4,160.3 110.4,160.3 109.1,166.5 108.2,166.5 "/>
<path class="st0" d="M119.1,163.9c-0.4,1.5-1.2,2.8-2.8,2.8c-2.1,0-2-2.1-1.6-4c0.4-1.9,1.2-4,3.2-4c1.5,0,2,0.9,1.7,2.4h-1
	c0.2-0.9,0-1.6-0.9-1.6c-1.3,0-1.7,1.4-2.1,3.2c-0.4,1.8-0.5,3.2,0.8,3.2c1.3,0,1.5-1.1,1.7-2L119.1,163.9z"/>
<polygon class="st0" points="121.2,158.8 125,158.8 124.8,159.7 121.9,159.7 121.4,162.1 124.2,162.1 124,162.9 121.2,162.9 
	120.7,165.7 123.7,165.7 123.6,166.5 119.6,166.5 "/>
<path class="st0" d="M128.7,160.1c0.9,0,1.8-0.2,2.1-1.3h0.6l-1.6,7.6H129l1.2-5.7h-1.6L128.7,160.1z"/>
<path class="st0" d="M133.2,164.8c-0.1,0.6,0.1,1.1,0.7,1.1c1.2,0,1.7-1.9,1.8-2.3l0.1-0.6l0,0c-0.4,0.5-1,0.8-1.6,0.9
	c-1.3,0-1.7-1-1.4-2.4c0.1-1.4,1.2-2.6,2.7-2.7c2.1,0,1.8,2.1,1.5,3.6s-1,4.2-3.1,4.2c-0.8,0.1-1.5-0.5-1.6-1.2c0-0.2,0-0.4,0.1-0.6
	L133.2,164.8z M135.3,159.6c-0.9,0-1.3,1-1.5,1.8c-0.2,0.8-0.2,1.8,0.8,1.8s1.3-1,1.5-1.8C136.3,160.6,136.2,159.6,135.3,159.6"/>
<path class="st0" d="M139.2,162.5c-0.6-0.3-1-1-0.7-1.6c0.2-1.1,1.1-2,2.3-1.9c1.2,0,1.7,0.7,1.5,1.9c-0.1,0.8-0.7,1.4-1.4,1.6
	c0.8,0.3,1.1,0.9,0.9,2c-0.2,1.3-1.3,2.3-2.6,2.3c-1.7,0-1.9-1.3-1.7-2.3C137.6,163.5,138.3,162.7,139.2,162.5 M139.3,165.9
	c0.9,0,1.3-0.7,1.5-1.6c0.2-0.9,0-1.6-0.9-1.6s-1.3,0.7-1.5,1.6S138.4,165.9,139.3,165.9 M139.4,160.9c-0.1,0.7,0,1.2,0.7,1.2
	c0.7,0,1.1-0.5,1.2-1.2c0.1-0.7,0-1.3-0.7-1.3S139.5,160.1,139.4,160.9"/>
<path class="st0" d="M146.7,160.7c0.1-0.6-0.1-1.1-0.7-1.1c-1.2,0-1.7,1.9-1.8,2.3l-0.1,0.6l0,0c0.4-0.5,1-0.8,1.6-0.9
	c1.3,0,1.7,1,1.4,2.4c-0.1,1.4-1.2,2.6-2.7,2.7c-2.1,0-1.8-2-1.5-3.6c0.3-1.6,1-4.2,3.1-4.2c0.8-0.1,1.5,0.5,1.5,1.3
	c0,0.2,0,0.4-0.1,0.6L146.7,160.7z M144.6,166c0.9,0,1.3-1,1.5-1.8c0.2-0.8,0.2-1.8-0.8-1.8s-1.3,1-1.5,1.8
	C143.6,165,143.7,166,144.6,166"/>
<polygon class="st0" points="87,155.8 84.7,155.8 84.7,147.7 82.9,155.8 81,155.8 79.2,147.7 79.2,155.8 76.8,155.8 76.8,144 
	80.4,144 81.9,151.6 83.4,144 87,144 "/>
<polygon class="st0" points="95.4,155.8 88.8,155.8 88.8,144 95.3,144 95.3,146.2 91.3,146.2 91.3,148.6 95,148.6 95,150.8 
	91.3,150.8 91.3,153.6 95.4,153.6 "/>
<path class="st0" d="M105.3,155.8h-2.7l-0.5-2.4h-2.7l-0.5,2.4h-2.7l3-11.8h3L105.3,155.8z M99.9,151.2h1.8l-0.9-4.4L99.9,151.2z"/>
<polygon class="st0" points="109.5,155.8 107,155.8 107,146.2 104.5,146.2 104.5,144 111.9,144 111.9,146.2 109.5,146.2 "/>
<polygon class="st0" points="127.3,155.8 125,155.8 125,147.7 123.2,155.8 121.3,155.8 119.5,147.7 119.5,155.8 117.2,155.8 
	117.2,144 120.8,144 122.3,151.6 123.8,144 127.3,144 "/>
<path class="st0" d="M137.2,155.8h-2.7l-0.5-2.4h-2.7l-0.5,2.4h-2.7l3-11.8h3L137.2,155.8z M131.7,151.2h1.8l-0.9-4.4L131.7,151.2z"
	/>
<path class="st0" d="M145.8,155.8h-2.7l0,0c-0.2-0.4-0.3-0.9-0.3-1.3v-2.2c0-0.9-0.4-1.3-1.2-1.3h-1.1v4.9H138V144h4.2
	c1.6-0.2,2.9,1,3.1,2.5c0,0.2,0,0.4,0,0.6c0.2,1.2-0.4,2.3-1.5,2.8c1.2,0.4,1.4,1.4,1.4,3.5c0,1.2,0.1,1.7,0.4,1.9h0.1L145.8,155.8z
	 M140.4,149h0.8c1.1,0,1.5-0.5,1.5-1.6c0.1-0.7-0.5-1.4-1.2-1.5c-0.1,0-0.1,0-0.2,0h-0.9V149z"/>
<polygon class="st0" points="155,155.8 152.1,155.8 149.9,151.2 149.2,152.3 149.2,155.8 146.7,155.8 146.7,144 149.2,144 
	149.2,148.3 151.9,144 154.6,144 151.5,149.1 "/>
<polygon class="st0" points="162.2,155.8 155.5,155.8 155.5,144 162,144 162,146.2 158.1,146.2 158.1,148.6 161.8,148.6 
	161.8,150.8 158.1,150.8 158.1,153.6 162.2,153.6 "/>
<polygon class="st0" points="167.8,155.8 165.2,155.8 165.2,146.2 162.8,146.2 162.8,144 170.2,144 170.2,146.2 167.8,146.2 "/>
<polygon class="st0" points="173.2,144 173.2,144.4 172.4,144.4 172.4,146.7 171.8,146.7 171.8,144.4 171.1,144.4 171.1,144 "/>
<polygon class="st0" points="173.5,144 174.5,144 174.9,145.9 174.9,145.9 175.4,144 176.4,144 176.4,146.7 175.8,146.7 
	175.8,144.6 175.8,144.6 175.2,146.7 174.7,146.7 174.1,144.6 174.1,144.6 174.1,146.7 173.5,146.7 "/>
<path class="st0" d="M135.4,100.8c-0.4,3.5-0.3,4-0.2,4.2c0.2,0.2,0.5-0.5,0.8-3.2c0.4-3.6,0.3-4.1,0.1-4.2
	C135.9,97.5,135.7,98.2,135.4,100.8"/>
</svg>
