<?xml version="1.0" encoding="utf-8"?>
<!-- Generator: Adobe Illustrator 21.1.0, SVG Export Plug-In . SVG Version: 6.00 Build 0)  -->
<svg version="1.1" id="Layer_1" xmlns="http://www.w3.org/2000/svg" xmlns:xlink="http://www.w3.org/1999/xlink" x="0px" y="0px"
	 viewBox="0 0 250 250" style="enable-background:new 0 0 250 250;" xml:space="preserve">
<style type="text/css">
	.st0{fill:#F6D056;stroke:#414042;stroke-width:3;stroke-miterlimit:10;}
	.st1{fill:none;stroke:#414042;stroke-miterlimit:10;}
	.st2{fill:#45A5DA;stroke:#414042;stroke-width:3;stroke-miterlimit:10;}
	.st3{fill:#FFFFFF;}
	.st4{fill:#FFFFFF;stroke:#414042;stroke-miterlimit:10;}
	.st5{fill:#606060;}
	.st6{fill:#F6D056;}
	.st7{fill:#414042;}
	.st8{fill:#45A5DA;}
	.st9{fill:#FFFFFF;stroke:#414042;stroke-width:0.5;stroke-miterlimit:10;}
	.st10{fill:#45A5DA;stroke:#414042;stroke-width:0.5;stroke-miterlimit:10;}
</style>
<g>
	<polygon class="st0" points="125,69.6 81,116.4 169,116.4 	"/>
	<rect x="54.5" y="110.4" class="st0" width="141" height="69.9"/>
	<line class="st1" x1="54.5" y1="115.1" x2="195.5" y2="115.1"/>
	<polygon class="st2" points="153.6,111 125,80.6 96.3,111.1 96.3,180.4 153.6,180.4 	"/>
	<g>
		<rect x="105.7" y="159.8" class="st3" width="11.3" height="19.1"/>
		<rect x="119.3" y="159.8" class="st3" width="11.3" height="19.1"/>
		<rect x="132.9" y="159.8" class="st3" width="11.3" height="19.1"/>
	</g>
	<g>
		<rect x="62.7" y="150.9" class="st4" width="8.3" height="16.2"/>
		<rect x="72.6" y="150.9" class="st4" width="8.3" height="16.2"/>
		<rect x="82.6" y="150.9" class="st4" width="8.3" height="16.2"/>
	</g>
	<g>
		<rect x="159.1" y="150.9" class="st4" width="8.3" height="16.2"/>
		<rect x="169" y="150.9" class="st4" width="8.3" height="16.2"/>
		<rect x="179" y="150.9" class="st4" width="8.3" height="16.2"/>
	</g>
	<g>
		<path class="st5" d="M144,151.1c-12.8,0-25.5,0-38.3,0c0-1.8,0-3.6,0-5.4c12.7,0,25.4,0,38.3,0C144,147.4,144,149.1,144,151.1z"/>
		<g>
			<path class="st5" d="M121.6,130.8c2.2,0,4.3,0,6.5,0c0,1.8,0,3.6,0,5.5c-2.2,0-4.3,0-6.5,0C121.6,134.5,121.6,132.7,121.6,130.8z
				"/>
			<path class="st5" d="M120.2,136.3c-2.2,0-4.3,0-6.6,0c0-1.8,0-3.6,0-5.4c2.2,0,4.3,0,6.6,0C120.2,132.6,120.2,134.4,120.2,136.3z
				"/>
			<path class="st5" d="M120.2,115.9c-2.2,0-4.3,0-6.5,0c0-1.8,0-3.6,0-5.4c2.1,0,4.3,0,6.5,0C120.2,112.2,120.2,114,120.2,115.9z"
				/>
			<path class="st5" d="M128.2,115.9c-2.2,0-4.3,0-6.5,0c0-1.8,0-3.6,0-5.4c2.1,0,4.3,0,6.5,0C128.2,112.2,128.2,114,128.2,115.9z"
				/>
			<path class="st5" d="M129.5,115.9c0-1.8,0-3.6,0-5.4c2.2,0,4.3,0,6.6,0c0,1.8,0,3.5,0,5.4C134,115.9,131.8,115.9,129.5,115.9z"/>
			<path class="st5" d="M112.3,136.3c-2.2,0-4.3,0-6.5,0c0-1.8,0-3.6,0-5.4c2.1,0,4.3,0,6.5,0C112.3,132.6,112.3,134.4,112.3,136.3z
				"/>
			<path class="st5" d="M112.4,124c0,1.9,0,3.6,0,5.4c-2.2,0-4.3,0-6.6,0c0-1.8,0-3.6,0-5.4C107.9,124,110.1,124,112.4,124z"/>
			<path class="st5" d="M113.6,122.6c0-1.8,0-3.6,0-5.4c2.2,0,4.3,0,6.6,0c0,1.7,0,3.5,0,5.4C118.1,122.6,115.9,122.6,113.6,122.6z"
				/>
			<path class="st5" d="M121.6,122.7c0-1.9,0-3.6,0-5.4c2.2,0,4.3,0,6.6,0c0,1.7,0,3.5,0,5.4C126,122.7,123.9,122.7,121.6,122.7z"/>
			<path class="st5" d="M129.5,122.7c0-1.8,0-3.6,0-5.4c2.2,0,4.3,0,6.6,0c0,1.8,0,3.6,0,5.4C134,122.7,131.8,122.7,129.5,122.7z"/>
			<path class="st5" d="M128.2,129.5c-2.3,0-4.4,0-6.6,0c0-1.8,0-3.6,0-5.4c2.1,0,4.3,0,6.6,0C128.2,125.9,128.2,127.6,128.2,129.5z
				"/>
			<path class="st5" d="M120.2,129.5c-2.2,0-4.3,0-6.6,0c0-1.8,0-3.6,0-5.4c2.2,0,4.3,0,6.6,0C120.2,125.8,120.2,127.6,120.2,129.5z
				"/>
			<path class="st5" d="M136.1,136.3c-2.2,0-4.3,0-6.5,0c0-1.8,0-3.6,0-5.4c2.2,0,4.3,0,6.5,0C136.1,132.6,136.1,134.4,136.1,136.3z
				"/>
			<path class="st5" d="M137.5,136.3c0-1.8,0-3.6,0-5.4c2.2,0,4.4,0,6.6,0c0,1.8,0,3.6,0,5.4C141.9,136.3,139.8,136.3,137.5,136.3z"
				/>
			<path class="st5" d="M112.3,143.1c-2.2,0-4.3,0-6.6,0c0-1.8,0-3.6,0-5.4c2.2,0,4.3,0,6.6,0C112.3,139.4,112.3,141.2,112.3,143.1z
				"/>
			<path class="st5" d="M120.2,143.1c-2.2,0-4.3,0-6.5,0c0-1.8,0-3.6,0-5.4c2.1,0,4.3,0,6.5,0C120.2,139.4,120.2,141.2,120.2,143.1z
				"/>
			<path class="st5" d="M121.6,143.1c0-1.8,0-3.6,0-5.4c2.2,0,4.3,0,6.6,0c0,1.8,0,3.5,0,5.4C126,143.1,123.9,143.1,121.6,143.1z"/>
			<path class="st5" d="M136.1,143.1c-2.2,0-4.3,0-6.5,0c0-1.8,0-3.6,0-5.4c2.1,0,4.3,0,6.5,0C136.1,139.4,136.1,141.2,136.1,143.1z
				"/>
			<path class="st5" d="M144,143.1c-2.2,0-4.4,0-6.6,0c0-1.8,0-3.6,0-5.4c2.2,0,4.3,0,6.6,0C144,139.4,144,141.2,144,143.1z"/>
			<path class="st5" d="M144.1,124.1c0,1.8,0,3.6,0,5.4c-2.2,0-4.4,0-6.6,0c0-1.8,0-3.6,0-5.4C139.6,124.1,141.8,124.1,144.1,124.1z
				"/>
			<path class="st5" d="M136.1,124.1c0,1.9,0,3.6,0,5.4c-2.2,0-4.3,0-6.6,0c0-1.8,0-3.5,0-5.4C131.7,124.1,133.9,124.1,136.1,124.1z
				"/>
			<path class="st5" d="M105.8,122.7c0-1.8,0-3.6,0-5.4c2.2,0,4.3,0,6.5,0c0,1.8,0,3.5,0,5.4C110.2,122.7,108,122.7,105.8,122.7z"/>
			<path class="st5" d="M137.5,117.2c2.2,0,4.2,0,6.5,0c0.1,1.8,0.2,3.6,0.3,5.4c-2.3,0-4.5,0-6.7,0
				C137.5,120.9,137.5,119.1,137.5,117.2z"/>
			<path class="st5" d="M121.6,109.1c0-1.7,0-3.4,0-5.3c2.2,0,4.4,0,6.6,0c0,1.8,0,3.5,0,5.3C126.1,109.1,123.9,109.1,121.6,109.1z"
				/>
			<path class="st5" d="M106,115.9c1.1-1.9,1.9-3.7,3.2-5.1c0.6-0.6,2-0.4,3.2-0.6c0,2.1,0,3.8,0,5.7
				C110.3,115.9,108.4,115.9,106,115.9z"/>
			<path class="st5" d="M137.5,110.4c3.3-0.3,5,1.3,5.9,5.5c-1,0-2,0-2.9,0c-1,0-2,0-3,0C137.5,114.1,137.5,112.3,137.5,110.4z"/>
			<path class="st5" d="M129.5,109.1c0-1.7,0-3.2,0-5.3c2.2,0.9,4.3,1.7,6.2,2.8c0.5,0.3,0.4,1.6,0.6,2.5
				C134,109.1,131.8,109.1,129.5,109.1z"/>
			<path class="st5" d="M120.3,109.1c-2.3,0-4.4,0-6.5,0c-0.4-2.4-0.4-2.5,1.7-3.4c1.5-0.7,3.1-1.2,4.8-1.8
				C120.3,105.8,120.3,107.4,120.3,109.1z"/>
		</g>
		<path class="st6" d="M105.7,153.5c3.7,0,7.3,0,11.1,0c0,1.4,0,2.8,0,4.3c-3.7,0-7.3,0-11.1,0C105.7,156.4,105.7,155,105.7,153.5z"
			/>
		<path class="st6" d="M119.3,157.8c0-1.5,0-2.8,0-4.3c3.7,0,7.4,0,11.1,0c0,1.4,0,2.8,0,4.3C126.8,157.8,123.1,157.8,119.3,157.8z"
			/>
		<path class="st6" d="M144.1,153.5c0,1.5,0,2.8,0,4.3c-3.7,0-7.4,0-11.1,0c0-1.4,0-2.8,0-4.3C136.6,153.5,140.3,153.5,144.1,153.5z
			"/>
	</g>
	<g>
		<path class="st7" d="M153.6,127.3h24.7c0,0,4.2-0.6,6.4,3.8c2.1,4.4,8,17.2,8,17.2h-39.1V127.3z"/>
		<g>
			<path class="st8" d="M156.7,129h20.8c0,0,3.5-0.5,5.3,3.2c1.8,3.7,6.7,14.5,6.7,14.5h-32.9V129z"/>
		</g>
		<g>
			<rect x="159.1" y="128.1" transform="matrix(0.866 -0.5 0.5 0.866 -47.7926 98.628)" class="st7" width="2" height="20.9"/>
		</g>
		<g>
			<rect x="164.3" y="126.8" transform="matrix(0.866 -0.5 0.5 0.866 -46.7944 101.1385)" class="st7" width="2" height="22.2"/>
		</g>
		<g>
			<rect x="169.9" y="126.7" transform="matrix(0.866 -0.5 0.5 0.866 -46.0347 103.9339)" class="st7" width="2" height="22.3"/>
		</g>
		<g>
			<rect x="175.7" y="126.9" transform="matrix(0.866 -0.5 0.5 0.866 -45.3181 106.8224)" class="st7" width="2" height="22.1"/>
		</g>
		<g>
			<rect x="181" y="126.6" transform="matrix(0.866 -0.5 0.5 0.866 -44.4538 109.4542)" class="st7" width="2" height="22.2"/>
		</g>
	</g>
	<g>
		<path class="st7" d="M96.3,127.3H71.6c0,0-4.2-0.6-6.4,3.8c-2.1,4.4-8,17.2-8,17.2h39.1V127.3z"/>
		<g>
			<path class="st8" d="M93.2,129H72.4c0,0-3.5-0.5-5.3,3.2c-1.8,3.7-6.7,14.5-6.7,14.5h32.9V129z"/>
		</g>
		<g>
			<rect x="79.3" y="137.5" transform="matrix(0.5 -0.866 0.866 0.5 -75.0611 146.9828)" class="st7" width="20.9" height="2"/>
		</g>
		<g>
			<rect x="73.5" y="136.9" transform="matrix(0.5 -0.866 0.866 0.5 -77.1269 142.1899)" class="st7" width="22.2" height="2"/>
		</g>
		<g>
			<rect x="67.8" y="136.9" transform="matrix(0.5 -0.866 0.866 0.5 -79.9078 137.3335)" class="st7" width="22.3" height="2"/>
		</g>
		<g>
			<rect x="62.2" y="137" transform="matrix(0.5 -0.866 0.866 0.5 -82.8746 132.4089)" class="st7" width="22.1" height="2"/>
		</g>
		<g>
			<rect x="56.8" y="136.7" transform="matrix(0.5 -0.866 0.866 0.5 -85.2891 127.6331)" class="st7" width="22.2" height="2"/>
		</g>
	</g>
	<rect x="195.5" y="127.3" class="st0" width="21.4" height="53.1"/>
	<rect x="33.1" y="127.3" class="st0" width="21.4" height="53.1"/>
	<g>
		<g>
			<rect x="36.4" y="150.9" class="st9" width="4.3" height="6.8"/>
			<rect x="41.6" y="150.9" class="st9" width="4.3" height="6.8"/>
			<rect x="46.8" y="150.9" class="st9" width="4.3" height="6.8"/>
		</g>
		<g>
			<rect x="36.4" y="148.4" class="st9" width="4.3" height="1.1"/>
			<rect x="41.6" y="148.4" class="st9" width="4.3" height="1.1"/>
			<rect x="46.8" y="148.4" class="st9" width="4.3" height="1.1"/>
		</g>
		<circle class="st10" cx="43.8" cy="139" r="2.9"/>
		<path class="st5" d="M51.8,160.5c-5.4,0-10.7,0-16,0c0-0.4,0-0.9,0-1.3c5.3,0,10.6,0,16,0C51.8,159.6,51.8,160,51.8,160.5z"/>
	</g>
	<g>
		<g>
			<rect x="198.8" y="150.9" class="st9" width="4.3" height="6.8"/>
			<rect x="204" y="150.9" class="st9" width="4.3" height="6.8"/>
			<rect x="209.3" y="150.9" class="st9" width="4.3" height="6.8"/>
		</g>
		<g>
			<rect x="198.8" y="148.4" class="st9" width="4.3" height="1.1"/>
			<rect x="204" y="148.4" class="st9" width="4.3" height="1.1"/>
			<rect x="209.3" y="148.4" class="st9" width="4.3" height="1.1"/>
		</g>
		<circle class="st10" cx="206.2" cy="139" r="2.9"/>
		<path class="st5" d="M214.2,160.5c-5.4,0-10.7,0-16,0c0-0.4,0-0.9,0-1.3c5.3,0,10.6,0,16,0C214.2,159.6,214.2,160,214.2,160.5z"/>
	</g>
</g>
</svg>
