<?xml version="1.0" encoding="utf-8"?>
<!-- Generator: Adobe Illustrator 21.1.0, SVG Export Plug-In . SVG Version: 6.00 Build 0)  -->
<svg version="1.1" id="Layer_1" xmlns="http://www.w3.org/2000/svg" xmlns:xlink="http://www.w3.org/1999/xlink" x="0px" y="0px"
	 viewBox="0 0 250 250" style="enable-background:new 0 0 250 250;" xml:space="preserve">
<style type="text/css">
	.st0{fill:#F6D056;}
	.st1{fill:#414042;}
	.st2{fill:#45A5DA;}
	.st3{fill:#FFFFFF;}
</style>
<g>
	<g>
		<rect x="23.5" y="82.7" class="st0" width="71.6" height="91.6"/>
		<path class="st1" d="M96.4,175.5H22.1V81.4h74.3V175.5z M24.8,173h68.8V84H24.8V173z"/>
	</g>
	<g>
		<rect x="155" y="82.7" class="st0" width="71.6" height="91.6"/>
		<path class="st1" d="M227.9,175.5h-74.3V81.4h74.3V175.5z M156.3,173h68.8V84h-68.8V173z"/>
	</g>
	<g>
		<rect x="75.6" y="110.4" class="st2" width="99.8" height="63.8"/>
		<path class="st1" d="M176.8,175.5H74.3V109h102.5V175.5z M77,172.8h97v-61H77V172.8z"/>
	</g>
	<g>
		<rect x="15.6" y="75.9" class="st0" width="87.3" height="11.2"/>
		<path class="st1" d="M104.2,88.4h-90V74.5h90V88.4z M17,85.7h84.5v-8.5H17V85.7z"/>
	</g>
	<g>
		<rect x="147.1" y="75.9" class="st0" width="87.3" height="11.2"/>
		<path class="st1" d="M235.8,88.4h-90V74.5h90V88.4z M148.5,85.7H233v-8.5h-84.5V85.7z"/>
	</g>
	<g>
		<rect x="67" y="104.8" class="st0" width="116" height="11.2"/>
		<path class="st1" d="M184.4,117.3H65.6v-13.9h118.8V117.3z M68.3,114.6h113.3v-8.5H68.3V114.6z"/>
	</g>
	<g>
		<g>
			<g>
				<rect x="112.9" y="146.8" class="st3" width="12.6" height="27.3"/>
				<path class="st1" d="M126.9,175.5h-15.4v-30.1h15.4V175.5z M114.2,172.8h9.9v-24.6h-9.9V172.8z"/>
			</g>
			<g>
				<rect x="125.5" y="146.8" class="st3" width="12.6" height="27.3"/>
				<path class="st1" d="M139.5,175.5h-15.4v-30.1h15.4V175.5z M126.9,172.8h9.9v-24.6h-9.9V172.8z"/>
			</g>
		</g>
		<g>
			<rect x="108" y="143.8" class="st1" width="35" height="4.2"/>
		</g>
	</g>
	<g>
		<g>
			<rect x="100.7" y="163.2" class="st1" width="5.5" height="5.5"/>
		</g>
		<g>
			<rect x="32.4" y="94.9" class="st1" width="5.5" height="5.5"/>
		</g>
		<g>
			<rect x="43.4" y="94.9" class="st1" width="5.5" height="5.5"/>
		</g>
		<g>
			<rect x="81.6" y="127.7" class="st1" width="5.5" height="5.5"/>
		</g>
		<g>
			<rect x="92.5" y="127.7" class="st1" width="5.5" height="5.5"/>
		</g>
		<g>
			<rect x="81.6" y="138.6" class="st1" width="5.5" height="5.5"/>
		</g>
		<g>
			<rect x="92.5" y="138.6" class="st1" width="5.5" height="5.5"/>
		</g>
		<g>
			<rect x="152.7" y="127.7" class="st1" width="5.5" height="5.5"/>
		</g>
		<g>
			<rect x="163.6" y="127.7" class="st1" width="5.5" height="5.5"/>
		</g>
		<g>
			<rect x="152.7" y="138.6" class="st1" width="5.5" height="5.5"/>
		</g>
		<g>
			<rect x="163.6" y="138.6" class="st1" width="5.5" height="5.5"/>
		</g>
		<g>
			<rect x="32.4" y="111.3" class="st1" width="5.5" height="5.5"/>
		</g>
		<g>
			<rect x="43.4" y="111.3" class="st1" width="5.5" height="5.5"/>
		</g>
		<g>
			<rect x="32.4" y="122.2" class="st1" width="5.5" height="5.5"/>
		</g>
		<g>
			<rect x="43.4" y="122.2" class="st1" width="5.5" height="5.5"/>
		</g>
		<g>
			<rect x="32.4" y="138.6" class="st1" width="5.5" height="5.5"/>
		</g>
		<g>
			<rect x="43.4" y="138.6" class="st1" width="5.5" height="5.5"/>
		</g>
		<g>
			<rect x="32.4" y="149.5" class="st1" width="5.5" height="5.5"/>
		</g>
		<g>
			<rect x="43.4" y="149.5" class="st1" width="5.5" height="5.5"/>
		</g>
		<g>
			<rect x="70.7" y="94.9" class="st1" width="5.5" height="5.5"/>
		</g>
		<g>
			<rect x="81.6" y="94.9" class="st1" width="5.5" height="5.5"/>
		</g>
		<g>
			<rect x="59.8" y="163.2" class="st1" width="5.5" height="5.5"/>
		</g>
		<g>
			<rect x="144.5" y="163.2" class="st1" width="5.5" height="5.5"/>
		</g>
		<g>
			<rect x="213.1" y="94.9" class="st1" width="5.5" height="5.5"/>
		</g>
		<g>
			<rect x="202.2" y="94.9" class="st1" width="5.5" height="5.5"/>
		</g>
		<g>
			<rect x="213.1" y="111.3" class="st1" width="5.5" height="5.5"/>
		</g>
		<g>
			<rect x="202.2" y="111.3" class="st1" width="5.5" height="5.5"/>
		</g>
		<g>
			<rect x="213.1" y="122.2" class="st1" width="5.5" height="5.5"/>
		</g>
		<g>
			<rect x="202.2" y="122.2" class="st1" width="5.5" height="5.5"/>
		</g>
		<g>
			<rect x="213.1" y="138.6" class="st1" width="5.5" height="5.5"/>
		</g>
		<g>
			<rect x="202.2" y="138.6" class="st1" width="5.5" height="5.5"/>
		</g>
		<g>
			<rect x="213.1" y="149.5" class="st1" width="5.5" height="5.5"/>
		</g>
		<g>
			<rect x="202.2" y="149.5" class="st1" width="5.5" height="5.5"/>
		</g>
		<g>
			<rect x="174.9" y="94.9" class="st1" width="5.5" height="5.5"/>
		</g>
		<g>
			<rect x="163.9" y="94.9" class="st1" width="5.5" height="5.5"/>
		</g>
		<g>
			<rect x="185.8" y="163.2" class="st1" width="5.5" height="5.5"/>
		</g>
		<g>
			<rect x="32.4" y="163.2" class="st1" width="21.7" height="5.5"/>
		</g>
		<g>
			<rect x="196.9" y="163.2" class="st1" width="21.7" height="5.5"/>
		</g>
		<g>
			<rect x="152.7" y="163.2" class="st1" width="16.4" height="5.5"/>
		</g>
		<g>
			<rect x="81.6" y="163.2" class="st1" width="16.4" height="5.5"/>
		</g>
	</g>
</g>
</svg>
