<?xml version="1.0" encoding="utf-8"?>
<!-- Generator: Adobe Illustrator 21.1.0, SVG Export Plug-In . SVG Version: 6.00 Build 0)  -->
<svg version="1.1" id="Layer_1" xmlns="http://www.w3.org/2000/svg" xmlns:xlink="http://www.w3.org/1999/xlink" x="0px" y="0px"
	 viewBox="0 0 250 250" style="enable-background:new 0 0 250 250;" xml:space="preserve">
<style type="text/css">
	.st0{fill:#FCFC04;}
	.st1{fill:#020302;}
	.st2{fill:#201004;}
	.st3{fill:#067C07;}
	.st4{fill:#F2F1F1;}
	.st5{fill:#F10405;}
</style>
<title>CR</title>
<path class="st0" d="M245,162c0,7.4,0,14.8,0,22.2c0,1.5-0.3,1.9-1.8,1.9c-51.9-0.1-103.9-0.1-155.8,0h-7.8c2.6-1,4.7-3,6-5.4
	c1.5-2.9,0.6-5.3-1.1-7.5c-1.6-2.1-4.3-3-6.9-2.4c-2.8,0.5-5.1,2.1-7.7,3.1c-0.4,0.2-0.9,0.9-1.3,0.2c-1.2-2.1-3.5-1.9-5.3-2.7
	c0.5-0.7,1.2-0.3,1.9-0.4c0.2,0.2,0.5,0.3,0.8,0.2l1.4,0.5c1,0.6,1.5,2.1,3.2,1.2c2.3-1.5,4.8-2.5,7.5-3c0.6-0.1,1.1-0.2,1-1.1
	c-0.2-1.5,0-3.1-0.3-4.6c-0.4-2.2-0.3-4.6-2.3-6.3c-1-2.5-2.5-4.9-4.4-6.9c-0.9-1.2-1.9-2-1.3-3.9c0.3-0.8,1-1.8,0.4-2.8l1.4-5.1
	c1.3,0.3,2.4,1.4,3.9,1c1.7,0.8,3.4,1.3,5.2,0.1c2.7-0.1,5.2-1.6,6.5-4c2-3,4.9-4.2,7.8-5.7c0.3-0.2,0.7-0.6,1,0
	c0.7,1.1,1.4,0.3,2-0.1c5.4-3.3,10.8-6.6,16.2-9.8c1.2-0.7,1.3-1.3,0.6-2.5c-1.2-2-2.2-4.1-3.3-6.3c1,0,1.1,0.6,1.3,1
	c1,1.7,2,3.3,2.9,5c0.4,0.8,0.8,1,1.7,0.5c3-1.9,6.1-3.7,9.2-5.5c1.1-0.7,1.2-1.3,0.5-2.4c-3.9-6.5-7.8-13.1-11.7-19.6
	c-0.4-0.7-1.3-1.3-0.9-2.4c0.2,0.2,0.5,0.2,0.7,0.1h1.8c0.5,0.2,1,0.2,1.5,0h4.2l0.1,0.1v-0.1c0.2-0.7,0.3-1.4,0.1-2.1
	c0.7-3.7-0.1-7.5,0.6-11.5c1,1.6,1.7,2.9,2.4,4.2c4.3,7.6,8.9,14.9,13,22.7c1.7,3.2,1.7,3.1,4.7,1.3c0.2-0.1,0.4-0.2,0.5-0.3l14.1-9
	c0.6-0.4,1.3-0.6,0.8-1.7c-1.5-2.8-2.8-5.6-4.2-8.4c-0.4-0.8-0.7-0.9-1.5-0.4c-1.5,0.9-3.3,1.6-4.8,2.5c-1.2,0.7-1.7,0.5-2.5-0.7
	c-3.4-5.5-7-10.8-10.5-16.3c-0.7-1.1-1.1-1.2-2.3-0.4c-3.2,2.1-6.6,4-10,6c-0.2-1.8-0.2-3.6,0-5.3c0.1-1.2-0.2-1.8-1.6-1.7
	c-3.6,0.2-7.2,0.2-10.8,0.2c-1.3,0-1.5,0.6-1.2,1.6c1.7,5.5,2.3,11.3,3.8,16.8c0.3,0.9,0,1.9-0.8,2.4c-2.8,2.3-6,4-9,6.1
	c-1.2,0.8-1.6,1.3-0.7,2.7c2.5,4,4.9,8.2,7.3,12.3c-2.2,0.8-4.2,1.9-6.2,3.1c-1.3,0.8-2.1,0.8-3-0.7c-3.3-5.5-6.7-10.8-10.1-16.2
	c-0.7-1.1-1.2-1.3-2.5-0.6c-2.3,1.7-4.7,3.2-7.3,4.3c-0.4,0.2-1.1,0.5-1.2,0c-0.3-1.3-1-0.9-1.8-0.7c-1.7,0.4-3.2,0.5-4.2-1.6
	c-1-2-3.3-2.9-5.3-2.1c-1.1,0.3-1.3-0.1-1.7-0.9c-0.8-2-1.9-3.8-3.3-5.4c-0.9-2-2-3.9-3.2-5.7c-1.1-1.5-1.5-3.7-3.8-4.2
	c-1.2-0.2-2.3-0.8-3.5-1c-2-0.6-4.1,0.2-5.3,1.9l0,0c-1.5,0.2-2.2,1.6-3.2,2.5l-1.5,0.7l-2.9,0.2c1.3-1.6,1.3-1.6-0.8-4.3
	c-1,0.5-1.3,1.9-2.7,2.4l0.7-1.3c1.6-1.2,1.7-2.5,0.7-4.2c-1.9-3.1-3.6-6.4-5.3-9.6c-0.5-0.9-1-1.2-1.9-1c-4.3,1.1-8.3,3-11.9,5.5
	c-4.6,3.5-9,7.4-11.8,12.8C6.9,86,6,89.1,5.8,92.3c0.2,1.4-0.1,2.8-0.7,4c0-10.2,0-20.4,0-30.7c0-1.5,0.3-1.9,1.8-1.9
	c34.9,0.1,69.9,0.1,104.8,0h106.8c0,0.3-0.2,0.6-0.5,0.8c-2.7,1.8-5.3,3.8-8,5.5c-1,0.6-1,1.1-0.4,2c1.4,2.3,2.7,4.7,4.1,7.3l-1-0.3
	c-5.6-1.7-10.7-0.9-14.9,3.4c-1.3,1.3-2.3,2.8-4.5,3.6c-2.7,0.9-5,3-7.5,4.6s-5.5,2.3-5.5,6.5c-1.7-2.5-3.1-4.4-4.4-6.3
	c-0.6-0.9-1.1-1-2.1-0.4c-3,1.8-6.1,3.5-9.1,5.3c-1.1,0.6-1.3,1.3-0.6,2.4c0.8,1,1.5,2,2.1,3.1c1.2,2.6,3.3,4.8,4,7.7
	c-0.5,0.1-0.7-0.1-0.9-0.5c-1-1.7-2-3.3-3.1-4.9c-1-1.5-3.1-2-4.7-1c0,0,0,0,0,0c-4.1,2.4-7.2,6.4-8.5,11
	c-1.7,5.9,1.4,14.4,6.7,17.2c5.8,3.1,11.6,3.4,17.4,0c2.7-1.5,3.3-2.7,2.4-4.4c-1.7-3.1-3.5-6.2-5.2-9.3c-0.5-1-1-1.1-1.8-0.3
	c-0.9,0.8-2,1.3-3.2,1.5c-1.2,0.1-1.7-0.5-2.1-1.4s0-1.5,0.8-2c0.8-0.6,1.7-1.1,2.7-1.3c1.5-0.3,1.3-0.9,0.6-1.9
	c-0.7-1-1.6-1.4-1.1-2.7c1.2,0.3,1.3,1.3,1.8,2.2c3,5.1,5.9,10.2,8.9,15.3c0.3,0.6,0.5,1.6,1.7,0.8c3.3-2.1,6.7-4.1,10-6.2
	c0.9-0.6,1.2-1.2,0.3-2.2c-0.8-1-1.6-2.1-2.3-3.3c0.7-0.2,1.4-0.1,2,0.3c3.5,1.8,6.8,1.7,9.9-0.9c0.3-0.2,0.5-0.4,0.8-0.5
	c3.2-1.7,5.9-4.2,9.3-5.2c5.6-1.6,9-5.1,10.1-10.9c0.2-1.1,0.3-2.2,0.4-3.4c0.1-1.3,0.6-1.1,1.3-0.4c2.7,2.5,5.7,2.7,9,1.3
	c3.3-1.5,6.4-3.3,9.2-5.5c0.6-0.5,1.1-1.4,2.2-1v48.5c-2.1-3.7-5.4-4.5-9.3-4c-0.9,0.1-1.3,0.2-1.3,1.2c0,3.5,0,7.1,0,10.7
	c0,0.6-0.1,1.1,0.8,1.3c4.7,0.8,7.3-0.4,9.8-4.6v15.6c-1.1-1.1-2.5-2-4.1-2.6c-1-0.3-1-1.1-0.4-1.8l0.8-0.3c0.1,1.3,1.2,0.9,1.8,0.8
	c0.8-0.1,1.1-1.1,1.3-1.8c0.3-0.7-0.6-0.8-1-1c-2.4-1.3-5.3-0.6-6.3,1.4c-1.3,2.6-0.5,4.5,2.5,5.9c0.8,0.4,1.7,1,1.3,1.9
	c-0.4,0.7-1.3,1-2,0.7c-0.2-0.1-0.3-0.2-0.4-0.3c-0.4-0.3-1.1-1.2-1.4,0c-0.2,0.8-1.7,1.6,0.1,2.5C239.9,164.7,242.1,164.5,245,162z
	 M200,138.8l0.1-2l2.4-0.1c1.3-0.2,1.5-0.7,0.8-2.7h-0.8h-4.8c-1.1-0.3-1.1,0.5-1.1,1.3c0,3.5,0,6.9,0,10.3c0,0.5-0.2,1.1,0.6,1.2
	c0.8,0.2,1.6,0.2,2.4-0.1l0,0c0.4-1.4,0.5-2.9,0.2-4.3c0.2-0.5,0.7-0.4,1-0.5c2.6,0.2,2.6,0.2,2.3-2.3c0.1-0.7-0.2-0.8-0.8-0.6
	l-2.4-0.1L200,138.8z M230.7,160.8l-0.1-1.5c0.7-0.5,1.6-0.2,2.3-0.4c0.4,0.1,0.8,0.1,0.9-0.4c0.6-2-0.1-2.7-2.5-2.4
	c-1-0.3-0.5-1.3-0.7-1.9l0.6-0.4c0.7,0.2,1.5,0.2,2.2,0c1.6-0.2,0.6-1.4,0.8-2.1c0.1-0.7-0.6-0.7-1.1-0.7c-1.4,0-2.8,0-4.2,0
	c-1.1,0-1.5,0.3-1.5,1.5c0.1,3.4,0.1,6.8,0,10.2c0,1.2,0.5,1.5,1.5,1.4c1.3-0.1,2.5-0.1,3.8,0c1.5,0.1,1.5-0.6,1.6-1.8
	c0.1-1.5-0.7-1.5-1.7-1.4c-0.5,0-1.1,0-1.6,0C230.9,160.7,230.8,160.7,230.7,160.8L230.7,160.8z M216.5,144.9c1.8-2,2.2-4.8,1.1-7.3
	c-1.4-3.3-5.2-5-8.5-3.6c-1.6,0.6-2.9,1.9-3.5,3.4c-1.4,3.2-0.4,7,2.5,9C210.9,148.2,214.6,147.5,216.5,144.9L216.5,144.9z
	 M210.2,163.4c2.5-1.2,4-4,3.7-6.8c-0.4-2.9-3-5.7-5.4-6c-3.8-0.5-7.3,2.2-7.8,5.9c-0.4,3.1,1.3,6,4.1,7.3
	C206.6,164.8,208.7,164.6,210.2,163.4L210.2,163.4z M106.7,79.4c-0.4-0.2-0.7,0-1,0.2l-0.6,0.3l-0.7,0.1c-2.5,0.8-4.7,2.4-6.1,4.7
	c-1.7,2.4-0.6,6,2,6.6c3,0.7,8.6-1.6,10.1-4.3c0.9-1.6,2-3.5,1-5.3C110.7,79.8,108.6,78.8,106.7,79.4L106.7,79.4z M123.8,144.5
	c-0.9,1.1-1.9,2.1-3.1,3c-0.7,0.6-1.7,0.6-2.3-0.1c-0.7-0.6-0.9-1.7-0.3-2.4c0,0,0,0,0.1-0.1c0.9-1.1,2-2,3.2-2.7
	c0.9-0.5,1.1-0.9,0.5-1.8c-1.8-2.8-3.6-5.6-5.3-8.5c-0.6-0.9-1.2-1.1-2.1-0.5c-2.7,2-5.7,3.7-7.7,6.6c-3.1,4.5-4.8,11.2-0.9,17.3
	c2.3,3.6,5.3,6.7,9.3,7.6c5.5,1.3,10.5-0.6,14.6-4.4c1-0.7,1.3-2.1,0.7-3.2C128.3,151.8,126.1,148.3,123.8,144.5L123.8,144.5z
	 M128.4,125.5c-0.4-0.4-0.8-0.2-1.2,0.1c-2.6,1.8-5.1,3.5-7.7,5.2c-0.9,0.6-0.9,1.1-0.4,1.9c4.4,7.5,8.7,15,13,22.5
	c0.6,1.1,1.1,1.4,2.3,0.7c2.9-1.9,5.8-3.7,8.7-5.6c0.8-0.5,1.2-1.1,0.4-2.2c-2.4-3.4-4.6-7-6.6-10.7c-1.3-2.5-0.3-5.2,2.5-5.7
	c1.6-0.3,1.5-0.8,0.8-1.9c-1.7-2.8-3.4-5.6-5-8.4c-0.5-0.8-0.8-0.9-1.5-0.3c-1.4,1-2.7,2.2-3.8,3.5
	C129.6,125.1,129.2,125.9,128.4,125.5L128.4,125.5z M145.7,113.5l-0.9,0.5c-2.7,1.7-5.2,3.4-8,4.9c-1.3,0.7-1.3,1.3-0.6,2.5
	c2.3,4,4.6,8,6.9,12c2.2,3.8,4.3,7.7,6.5,11.4c0.3,0.6,0.6,1.6,1.7,0.8c3.1-2,6.3-4,9.4-5.9c0.7-0.4,0.9-0.8,0.4-1.6
	c-4.9-7.9-9.7-15.9-14.6-23.8C146.4,114.1,146.3,113.6,145.7,113.5L145.7,113.5z M225.8,163.7c-1-1.3-1.8-2.7-2.7-3.8
	c-0.5-0.7-1.1-1.2,0.2-1.9c1.3-0.7,1.6-2.5,1.3-4.1c-0.2-1.6-1.5-2.8-3.1-2.9c-1.4-0.2-2.8-0.1-4.2-0.2c-1.4-0.1-1.5,0.5-1.4,1.5
	c0,3.4,0,6.8,0,10.2c0,1,0.2,1.3,1.3,1.4c1.9,0.2,2.1-0.8,2-2.3c0-0.4-0.2-1.1,0.3-1.2c0.5-0.2,0.8,0.5,1.1,0.9
	C222.3,164.3,222.3,164.3,225.8,163.7L225.8,163.7z M232.5,140.6c0-4.1-2.8-7.2-6.7-7.1c-3.8,0.3-6.7,3.6-6.4,7.5
	c0.3,3.4,3,6.2,6.4,6.4C229.4,147.4,233,144.5,232.5,140.6L232.5,140.6z M185.6,164.2c2,0.1,3.8-1.2,4.4-3.1c0.6-2.7-0.2-4-2.7-5.2
	c-0.1-0.1-0.2-0.1-0.4-0.2c-0.9-0.1-1.5-0.7-1.3-1.6c0.3-1.1,1.2-0.5,1.8-0.3c0.8,0.3,1.4,0.4,1.7-0.6c0.1-0.5,1-1,0.1-1.7
	c-2-1.4-4.7-1.2-6.4,0.5c-1.9,2.3-1.3,6,1.8,6.5c1,0.1,2.1,0.8,1.7,1.9c-0.3,0.9-1.8,0.7-2.5,0.2c-1.9-1.3-1.8,0.7-2.2,1.3
	c-0.6,1.1,0.5,1.5,1.2,1.7C183.7,164,184.7,164.2,185.6,164.2L185.6,164.2z M193.8,158.8c0,1.1,0.1,2.1,0,3.2c-0.1,1.3,0.2,2,1.8,2
	c1.6,0,1.7-0.7,1.7-1.9c-0.1-2.2,0-4.4,0-6.6c0-1,0-1.9,1.4-1.7c1.4,0.2,1-0.9,1-1.6s-0.2-1.3-1.2-1.3c-2,0-4,0.1-6,0
	c-1.2,0-1.1,0.6-1.3,1.5c-0.3,1.1,0.2,1.8,1,1.7c2.2-0.3,1.6,1.2,1.6,2.3C193.8,157.1,193.8,158,193.8,158.8L193.8,158.8z"/>
<path class="st0" d="M70.7,186.1c-21.4,0-42.8,0-64.2,0c-1.3,0-1.5-0.3-1.5-1.5c0-28.1,0-56.1,0-84.2c2.3,0.4,4.2,1.8,6.4,2.4
	c0.2,0.3,0.5,0.5,0.8,0.4l0,0c0.4,0.5,1,0.5,1.6,0.7l0.4,0.1c0.5,0.5,1.3,0.8,2,0.8l0,0c0.4,0.5,1,0.8,1.7,0.7l0,0
	c2.5,1.4,5.1,2.6,7.9,3.6c0.4-0.6,0-1,0-1.5c-0.5-2.7-1.7-5.6,0.1-8.1c2.5-3,3.9-6.8,4.3-10.7c-0.2,0.4,0,1,0.4,1.2
	c-0.3,0.3-0.1,0.7-0.1,1.1l-0.3,2.8L29.6,96l-0.2,0.4l-0.3,0.4l0,0c-0.7,0.6-1.3,1.4-1.7,2.3h0.1h-0.1c-2.2,3.3-1.7,6.7-0.3,10.2
	l0.2,1.2l0.2,0.4c0,0.7,0.3,1.4,0.7,2l0.1,0.3l0.1,0.5l0.2,0.6c0,0.4,0.1,0.7,0.4,0.9c0.2,0.9,0.8,1.7,1.6,2.1
	c2.4,1.8,4.9,3.2,8,2.3c0.9-0.3,1.9-0.3,2.9-0.2l0,0c-0.8,1.4-2,2.6-3.3,3.6c-2.4,2.2-5.2,4-6.7,7c-1.2,1.3-0.9,2.9-0.7,4.5
	c-0.3,1.7,0.8,3.6-0.9,5.1c-0.4,0.4,0.4,1,0.7,1.5c0.9,1.4,2.6,2.3,2.9,4.1c0.4,2.7,1.1,3.7,3.6,4.1c1.6,0.2,1.4,0.8,0.8,1.9
	c-3.5,6.4-7,12.9-10.4,19.3c-0.9,1.7-1.9,3.3-3.2,4.7c-0.9,0.9-0.4,2.9-1.8,3.8c-0.3,0.2-0.1,0.5,0.1,0.8c1.6,1.6,2,1.7,3.5,0.1
	c0.2-0.2,0.4-0.4,0.6-0.5c1.4-0.4,2.3-1.8,2.2-3.2c0.1-0.7,0.4-1.4,0.8-2c3.7-6.4,7.4-12.9,11.1-19.3c1-1.8,2.1-3.6,3.3-5.5
	c0.8,1.5,0.3,2.9,0.7,4.2c0.8,3,1.3,6.3-1.1,9c-1.3,1.6-1,2.5,1.2,2.9c1,0.1,2-0.2,2.8-0.8c0.6-0.4,1.4-1.3,2.1-0.7
	c1.7,1.3,4.5,2,3.9,5c-0.1,1.3,0,2.7,0.3,4c-0.1,0.1-0.1,0.2-0.1,0.3c-0.7,0.8-1.1,1.8-1.1,2.9l-0.2,0.8c-0.9,1.6-0.8,3.6,0.1,5.2
	c0.8,1.4,2.1,2.4,3.6,2.8c0.2,0.2,0.1,0.6,0.5,0.6c0.1,0,0.1-0.3,0.1-0.4l0.5,0.3c0,0.2,0.1,0.4,0.4,0.3h0.8
	c3.5,0.2,6.9-0.9,10.4-0.4l0,0c0.3,0.7,0.7,0.2,1.1,0.2L70.7,186.1z"/>
<path class="st1" d="M11.5,102.8c-2.2-0.5-4.1-2-6.4-2.4v-4c0.6-1.2,0.8-2.6,0.7-4c0.2-3.2,1.1-6.3,2.7-9.1
	c2.8-5.3,7.2-9.2,11.8-12.8c3.6-2.5,7.7-4.3,11.9-5.5c0.9-0.3,1.4,0.1,1.9,1c1.6,3.3,3.4,6.5,5.3,9.6c1,1.7,1,3-0.7,4.2
	c-2.4-0.1-1.4,2.2-2.4,3.2l0,0c-1.1-0.2-2.1,0.5-2.4,1.6c0,0,0,0,0,0l-0.8,0.4c-1.2-0.3-2,0-2.3,1.3l-0.3,0.4
	c-1.6-0.1-2.1,1.2-2.1,2.3c0,3.5-1.1,6.8-3.1,9.6c-0.4,0.8-0.8,1.6-1,2.5c-0.6,1.6,0.3,2.9,0.1,4.3c-0.1,0.8,0.2,1.5-1.3,1
	c-1.5-0.5-3.3-1.5-5.1-1l0,0c-0.2-1-1-0.7-1.7-0.7l0,0c-0.2-1.3-1.3-0.7-2-0.8l-0.4-0.1c-0.2-0.9-1-0.6-1.6-0.7l0,0
	C12.2,102.7,12.1,102.2,11.5,102.8z"/>
<path class="st2" d="M245,89.6c-1.1-0.4-1.6,0.6-2.2,1c-2.9,2.2-6,4-9.2,5.5c-3.3,1.3-6.3,1.2-9-1.3c-0.7-0.7-1.2-0.8-1.3,0.4
	c-0.1,1.1-0.2,2.3-0.4,3.4c-1.1,5.7-4.5,9.2-10.1,10.9c-3.5,1-6.2,3.5-9.3,5.2c-0.3,0.1-0.6,0.3-0.8,0.5c-3.1,2.7-6.3,2.7-9.9,0.9
	c-0.6-0.4-1.3-0.5-2-0.3c0.7,1.1,1.4,2.2,2.3,3.3c0.9,1,0.6,1.6-0.3,2.2c-3.3,2.1-6.7,4.1-10,6.2c-1.2,0.8-1.3-0.2-1.7-0.8
	c-3-5.1-5.9-10.2-8.9-15.3c-0.5-0.8-0.6-1.9-1.8-2.2l0,0c-0.7-2.9-2.7-5.1-4-7.7c-0.6-1.1-1.3-2.1-2.1-3.1c-0.7-1.1-0.5-1.8,0.6-2.4
	c3.1-1.7,6.1-3.4,9.1-5.3c1-0.6,1.5-0.5,2.1,0.4c1.3,1.9,2.7,3.8,4.4,6.3c0-4.2,3.1-5,5.5-6.5c2.4-1.5,4.8-3.7,7.5-4.6
	c2.1-0.7,3.1-2.2,4.5-3.6c4.2-4.3,9.3-5.1,14.9-3.4l1,0.3c-1.5-2.7-2.7-5-4.1-7.3c-0.6-1-0.5-1.3,0.4-2c2.7-1.8,5.3-3.7,8-5.5
	c0.3-0.2,0.5-0.4,0.5-0.8h1.2c0.5,1.4,1.7,2.3,2.5,3.5c0.5,0.7,1,0.7,1.7,0.2c1.1-0.8,2.2-1.5,3.3-2.2c0.5-0.3,0.9-0.8,1.5,0
	c2.2,3.3,4.4,6.6,6.7,9.9c0.5,0.7,0.4,1.1-0.3,1.6c-1.3,0.8-2.4,1.7-3.7,2.4c-1.3,0.7-1.1,1.5-0.5,2.6c0.6,1.1,1.3,1.5,2.6,0.9
	c1.7-0.6,3.2-1.5,4.6-2.7c0.9-0.9,1.3-0.7,1.9,0.3c1.6,2.7,3.3,5.3,5,8L245,89.6z M185.9,112.1c0.4,0,0.7,0,1.1,0.1
	c2.6,0.9,5.2,1.7,7.7,2.7c1.3,0.6,2.7,0.6,4,0c2.6-1.7,5.2-3.3,8-4.7c0.4-0.2,0.7-0.5,0.8-0.9c0.1-0.5-0.5-0.5-0.9-0.6
	c-4.8-1.8-9.7-3.5-14.7-4.9c-1.1-0.3-1.9-1.1-1.7-2.1c0.6-2.7,0.2-5.6,1-8.3c0.2-0.9,0.3-1.8,0.3-2.8c0-0.8,0-1.3-1.1-0.6
	c-1.8,1.2-3.7,2.4-5.6,3.4c-1.9,0.9-3.1,2.8-3,4.9c-0.1,1.3-0.5,2.6-1.3,3.6c-1.7-2.6-3.5-4.9-4.9-7.5c-0.9-1.6-1.8-1.8-3.3-0.9
	c-1.5,0.9-3,1.7-4.5,2.4s-1.8,1.7-0.9,3.2c2.3,3.4,4,7.1,6,10.7c2.7,4.7,5.3,9.3,8,13.9c0.5,0.8,1.2,1.4,2.3,0.7
	c1.8-1.2,3.6-2.3,5.4-3.5c1.3-0.8,1.6-1.5,0.5-2.9C188.3,116.2,186.5,114.5,185.9,112.1z M195.6,93.8c0.1,1.8,0.4,3.6,0.9,5.3
	c0.7,2.8,1.9,5.1,5.1,5.5c1.7,0.4,3.3,0.9,4.8,1.7c4.9,2.4,10.8,0.4,13.2-4.5c0.5-1,0.8-2,0.9-3.1c0.2-1.2,1.3-2.8,0.3-3.5
	c-1.1-0.7-2.2,0.8-3.3,1.3c-1.1,0.5-2.3,0.9-2.7,2.1c-1.1,3.6-2.9,4.6-6.5,3.5c-1.3-0.3-2.3-1.3-2.7-2.5c-0.3-1.2,1.1-1.5,1.9-2
	c3.6-2.4,7.2-4.7,10.8-7.1c0.6-0.4,1.7-0.9,1-1.8c-1.9-2.3-2.7-5.5-5.9-6.9c-2.9-1.5-6.3-1.9-9.5-1C198.7,82.7,195.1,88,195.6,93.8
	L195.6,93.8z M229.9,94.9c1.2-0.1,2.3-0.4,3.4-0.8c3.1-1.3,5.7-3.4,8.5-5.1c0.9-0.5,0.8-1,0.2-1.7c-0.6-0.7-1.2-1.4-1.7-2.2
	c-1.3-2.9-1.8-3-4.5-1.2c-0.2,0.1-0.4,0.3-0.7,0.5c-2.7,1.5-4.9,0.9-6.3-1.8c-0.2-0.6-0.5-1.2-0.8-1.8c-0.6-0.9-0.1-1.5,0.5-2
	c0.8-0.7,1.8-1.3,2.8-1.8c1.5-0.6,1.3-1.5,0.7-2.5c-0.8-1.4-1.7-2.9-2.7-4.2c-1.8-2.5-2.5-2.6-4.7-0.8c-1.9,1.6-2.9,1.5-4.2-0.7
	c-0.9-1.6-2-1.9-3.5-0.9c-1.4,1.1-2.9,2-4.5,2.9c-0.5,0.3-1.2,0.8-0.7,1.8c2.2,3.6,4,7.4,6.5,10.8c1.1,1.4,2.1,2.9,3,4.4
	c1.3,2.2,3,4.2,4.9,5.9C227.4,94.5,228.6,94.9,229.9,94.9L229.9,94.9z M192.5,99.1c0,0.4,0,0.9-0.1,1.3c-0.2,0.6,0,1.2,0.6,1.4
	c0.1,0,0.2,0.1,0.3,0.1c0.6,0.2,1.2,0.7,1.7,0.3c0.5-0.4,0.1-1.3-0.2-1.8s-0.2-1.1-0.4-1.7c-0.5-1-0.1-3.1-1.1-3
	S192.6,97.9,192.5,99.1L192.5,99.1z M212.4,97.4c-1.4,0.7-2.6,1.6-3.7,2.7c1.3,0.8,2.7,1.2,3.8,0.3
	C213.5,99.4,212.8,98.3,212.4,97.4L212.4,97.4z"/>
<path class="st1" d="M56.3,184.9c-1.5-0.4-2.8-1.4-3.6-2.8c0.7-1.7,0.6-3.6-0.1-5.2l0.2-0.8c2-0.3,0.8-1.9,1.1-2.9
	c0-0.1,0-0.2,0.1-0.3c0.7-0.1,1.1-1.6,2-0.3c0.1,0.1,0.3-0.6,0.3-0.9h2c0.8,1.1,1.8,0.7,2.8,0.4c1-0.3,0.8-1,0.7-1.7l0,0
	c1.5-0.7,1.2-1.5,0.2-2.3c-0.6-1.2-1.7,0-2.4-0.5c0.5-0.3,1-0.6,1.5-0.8c0.5-0.3,0.8-0.9,0.6-1.5c-0.1-0.7-0.3-1.3-1.2-1
	c0-0.5,0.4-0.8,0.5-1.2c0.2-1.3,1.1-2.7-0.5-3.8c-0.5-1-1-2-1.5-3c-0.3-0.6-0.3-1.2,0.5-1.3c1.6,0,2.8-1.3,2.8-2.9
	c0-0.1,0-0.2,0-0.3c0-0.4,0.4-0.8,0.6-1.2c1.4-0.7,2.8-1.3,4.3-1.7c1.3-0.3,2.9-0.9,3-2.9c0-0.6,0.6-1,1.1-1.3c0.7,1-0.1,2-0.4,2.8
	c-0.6,1.8,0.4,2.7,1.3,3.9c1.9,2,3.4,4.3,4.4,6.9c0.4,2.1,0.7,4.2,1.3,6.2c0.4,1.3,0.4,2.7,0.1,4.1c-0.4,1.2-1.7,0.4-2.7,0.6
	c-0.5,0.1-0.9,0.3-1.3,0.5c-2.2,0.7-3.8,3.1-6.5,2.4l-1.4-0.5c-0.1-0.6-0.4-0.9-0.8-0.2c-0.6,0.1-1.3-0.3-1.9,0.4
	c1.9,0.7,4.1,0.5,5.3,2.7c0.4,0.7,0.9,0,1.3-0.2c2.6-1,4.9-2.7,7.7-3.1c2.6-0.6,5.2,0.4,6.9,2.4c1.8,2.3,2.7,4.6,1.1,7.5
	c-1.3,2.5-3.4,4.4-6,5.4h-8.8l-0.5-0.6c-0.3-0.4-0.7-0.2-1.1-0.2l0,0c-0.2-0.1-0.4-0.4-0.7-0.4c-2.9,0-5.8,0-8.7,0
	c-0.5,0-0.9,0.2-1,0.7h-0.8l-0.4-0.3L57,185L56.3,184.9z M63.9,163.2l0.7-0.8c0.2,1.1,1.1,1.1,1.8,0.9s0.3-0.9,0.3-1.3
	c-0.2-2-0.6-4-1.1-6c-0.2-0.7-0.5-0.8-1.1-0.7c-0.6,0.1-0.9,0.3-0.7,1.1c0.2,1,0.3,1.9,0.4,2.9h-0.5c-0.2-1-0.6-1.9-1.1-2.7
	c-0.3-0.9-0.9-0.7-1.6-0.5c-1.2,0.3-0.3,1-0.2,1.3c0.8,1.5,1.3,3,1.5,4.7C62.2,163.5,62.9,163.4,63.9,163.2L63.9,163.2z M79.1,178.7
	c-2.1,2-4.8,3.3-7.7,3.6C76.1,185.1,78.8,183.9,79.1,178.7z M72.2,158.8c0.3,0.8,0.7,1.5,0.9,2.2s0.4,1.7,0.7,2.5
	c0.2,0.5,0.5,1.1,1.1,0.9s0.5-0.7,0.6-1.2C75.5,161.1,74.1,159.3,72.2,158.8z"/>
<path class="st0" d="M245,88.4c-1.7-2.7-3.4-5.3-5-8c-0.6-1-1.1-1.1-1.9-0.3c-1.4,1.1-2.9,2-4.6,2.7c-1.2,0.7-1.9,0.2-2.6-0.9
	c-0.7-1.1-0.7-1.9,0.5-2.6c1.2-0.7,2.4-1.6,3.7-2.4c0.7-0.5,0.8-0.8,0.3-1.6c-2.3-3.3-4.5-6.6-6.7-9.9c-0.6-0.8-1-0.4-1.5,0
	c-1.1,0.7-2.2,1.5-3.3,2.2c-0.7,0.5-1.2,0.5-1.7-0.2c-0.8-1.2-2-2.1-2.5-3.5c8,0,16,0,24,0c1,0,1.2,0.2,1.2,1.2
	C245,72.9,245,80.6,245,88.4z"/>
<path class="st2" d="M245,142.4c-2.4,4.2-5,5.3-9.8,4.6c-0.9-0.1-0.8-0.7-0.8-1.3c0-3.5,0-7.1,0-10.7c0-1,0.4-1.1,1.3-1.2
	c3.9-0.4,7.2,0.3,9.3,4L245,142.4z M237.6,140.2c0,0.5,0,1.1,0,1.6c0.1,0.7-0.5,1.8,0.5,2.1c1,0.2,2.1-0.2,2.7-1
	c1.1-1.3,1.1-3.2,0.1-4.5c-0.6-1-1.8-1.5-2.9-1.3c-1,0.3-0.4,1.5-0.5,2.3C237.5,139.6,237.5,139.9,237.6,140.2L237.6,140.2z
	 M237.5,145.3c-1.5-1.1-1.9-2-1.1-3.6c0.8-1.2,0.4-2.9-0.8-3.7c-0.2-0.1-0.4-0.2-0.7-0.3c0,2.2,0.1,4.2,0,6.1
	C234.8,145.5,235.5,145.9,237.5,145.3L237.5,145.3z M242.4,141.5c-0.5,1.7-1.7,3.1-3.3,3.9c1,0.1,2.2,0.7,2.7-0.1
	S243.5,143.3,242.4,141.5L242.4,141.5z M240.4,136.2c0.9,0.8,1.7,1.8,2.3,2.9C243.1,136.9,242.7,136.2,240.4,136.2L240.4,136.2z"/>
<path class="st2" d="M245,162c-2.9,2.4-5,2.7-7.9,1.3c-1.8-0.9-0.3-1.8-0.1-2.5c0.3-1.2,1-0.4,1.4,0c0.6,0.6,1.5,0.7,2.1,0.1
	c0.1-0.1,0.3-0.3,0.3-0.4c0.4-0.9-0.5-1.5-1.3-1.9c-3-1.4-3.8-3.3-2.5-5.9c1-2,3.9-2.7,6.3-1.4c0.4,0.2,1.2,0.3,1,1
	c-0.2,0.7-0.5,1.7-1.3,1.8c-0.5,0.1-1.7,0.5-1.8-0.8c0.3-1,1.5,1,1.5-0.4s-1.2-0.7-1.9-0.8c-0.4-0.1-0.8-0.1-1.2,0
	c-1.3,0.5-2.4,1.3-2.4,2.8c0,1.4,0.9,2.1,2.3,2c0.3,1.3,1.5,1.5,2.4,2c0.2,0.1,0.5,0.2,0.7-0.1c0.1-0.2,0.1-0.5,0-0.7
	c-0.6-1.3-1.8-1.3-3-1.2c-0.2-0.4-0.3-0.7-0.5-1.1c-0.6-1.3-0.6-2.2,1.2-2.1c-0.7,0.8-0.7,1.5,0.4,1.8c1.5,0.5,2.9,1.4,4.1,2.6
	L245,162z M242.7,160.2c-1.3,1.2-2.1,3-4.1,1.6c-0.3-0.2-0.7-0.2-0.9,0.1c-0.3,0.4,0,0.6,0.3,0.8c1.1,0.9,2.6,1,3.9,0.4
	C242.9,162.6,243.2,161.5,242.7,160.2L242.7,160.2z"/>
<path class="st2" d="M60.3,159.2c1.6,1.1,0.7,2.5,0.5,3.8c0,0.4-0.5,0.7-0.5,1.2c-1.3,0.5-2.7,1-4.1,1.3c-2.3,0.4-2.7,1.6-1.1,3.6
	l1.8,1.1c-0.3,0.4-1.9,0.3-0.7,1.4c0,0.3-0.3,1-0.3,0.9c-0.9-1.3-1.3,0.1-2,0.3c-0.3-1.3-0.4-2.7-0.3-4c0.6-3-2.2-3.7-3.9-5
	c-0.7-0.5-1.5,0.3-2.1,0.7c-0.8,0.6-1.8,0.9-2.8,0.8c-2.1-0.4-2.6-1.2-1.2-2.9c2.4-2.8,2-6.1,1.1-9c-0.4-1.3,0.1-2.7-0.7-4.2
	c-1.1,1.9-2.2,3.7-3.3,5.5c-3.7,6.4-7.4,12.9-11.1,19.3c-0.4,0.6-0.7,1.3-0.8,2c0.1,1.5-0.8,2.8-2.2,3.2c-0.2,0.1-0.4,0.3-0.6,0.5
	c-1.5,1.6-1.9,1.5-3.5-0.1c-0.3-0.3-0.5-0.6-0.1-0.8c1.3-0.9,0.9-2.9,1.8-3.8c1.3-1.4,2.3-3,3.2-4.7c3.5-6.5,6.9-12.9,10.4-19.3
	c0.6-1.1,0.8-1.7-0.8-1.9c-2.5-0.4-3.2-1.3-3.6-4.1c-0.3-1.8-2-2.7-2.9-4.1c-0.3-0.5-1.1-1.1-0.7-1.5c1.7-1.5,0.6-3.4,0.9-5.1
	c1.5-1.3,0.4-3,0.7-4.5c1.6-3,4.3-4.8,6.7-7c1.3-1,2.4-2.2,3.3-3.6c0.6,0.6,1.6,0.7,2.3,0.3c1.5-0.8,3.2-1.1,4.9-1
	c-1-2.2-2-4.2-2.9-6.3c-0.5-1.2-1-1.6-2.2-0.5c-1.2,1.2-2.7,2.7-4.9,1.9V112c0.9,0.8,2.3,0.7,3.1-0.2c0,0,0,0,0,0
	c0.7-0.6,1.7-1,2.4-1.6c0.7-0.6,0.9-0.3,1.5,0.2c1,0.9,0.8,2.4,1.8,3.2l0,0c0.5,1.8,1.2,3.5,2.3,5c0.3,0.5,1,0.8,1.5,0.6
	c4.7-0.7,9.6,0.1,14.2-2.3c2.3-1.3,5.4-1.2,6.9-4c0.8,1.2-1.2,1.8-0.7,2.7c1.3,2.7,0.4,5.5,0.7,8.2c0.1,0.9-0.4,1.2-1.3,1
	c1.6-2.5,0.5-5.1,0.1-7.7c0.3,2.6-0.8,5.1-0.1,7.7c0.3,0.5-0.7,1.7,0.4,1.6c1.8-0.1,2.8,1,4,1.7c0,0.4,0,0.9,0,1.3
	c-0.4,1.9-0.8,3.7-1.3,5.6c-0.7,2.5-0.2,3.7,2.3,4.1c3.7,0.7,7.1,0.2,9.9-2.8c1.3-1.3,1.3-2.2-0.3-2.9c-1.9-0.8-3.2-2.5-3.4-4.5
	c-0.1-0.8-0.4-1.5-1.3-0.6c-1.3,1.3-2,0.5-2.6-0.9c-0.6-2-1.9-3.7-3.6-4.8c-0.7,0.4-0.6,1.4-1.4,1.6c-0.2-1-0.4-2-0.4-3
	c0-1.3-0.5-2.8,0.8-3.9c0.9,0.8-0.4,2.2,0.9,3c2.1,1.3,3.9,3.2,5,5.5c0.2,0.5,0.6,1.1,1.2,0.6c1.5-1.2,3.7-1.9,4.3-3.8
	c0.3-1.1,1-2.1,2-2.8c1.9-1.1,1.7-2.4,0.7-4c-1.7-2.9-3.4-5.9-5.2-8.7c-0.6-1-0.9-2.7-2.2-2.5c-1,0.1-1.1,1.8-1.6,2.7
	c-1.2,2.6-2.8,4.9-4.9,6.7c-0.1-1.1-0.9-1.2-1.8-1.2c0-0.7,0.2-1.4,0.5-2.1c1.3-3.3,2.1-6.7,2.4-10.2c0.1-1.6-0.8-3.1-2.2-3.8
	c-1.3-0.7-2.6-0.1-3.9,0.5c-1.8,0.7-2.9,2.3-4.5,3.3c-0.8,0.4-1.3,0.6-1.8-0.3c-1.1-2.2-2.3-4.3-3.4-6.5c-1.7-3.4-1.4-4.8,1.1-7.4
	c-0.3-0.7-1.3-0.7-1.7-1.3c1.1-0.4,2.3,0.2,2.6,1.3c0.1,0.2,0.1,0.5,0.1,0.7l0,0l-0.9,0.6l0.5,0.2c-1.6,0.7-2.3,2.7-1.6,4.3
	c0,0.1,0.1,0.1,0.1,0.2c1,2.3,2.1,4.6,3.5,6.7c0.2,0.3,0.3,0.9,0.9,0.5c0.6-0.4,1.1-0.6,0.8-1.3c-0.1-0.3-0.3-0.6-0.5-0.9
	c-0.7-1-0.9-2.3-0.5-3.4c0.6-1.2,1.7-0.8,2.9-0.9l-2.2-3.4l0.5-0.7c1.4,1.6,2.5,3.4,3.3,5.4c0.4,0.8,0.6,1.2,1.7,0.9
	c2.1-0.7,4.3,0.2,5.3,2.1c1,2.1,2.5,2,4.2,1.6c0.8-0.2,1.5-0.6,1.8,0.7c0.1,0.5,0.7,0.2,1.2,0c2.6-1.1,5.1-2.6,7.3-4.3
	c1.3-0.8,1.8-0.5,2.5,0.6c3.4,5.4,6.8,10.7,10.1,16.2c0.9,1.5,1.6,1.5,3,0.7c1.9-1.3,4-2.3,6.2-3.1c-2.4-4.1-4.7-8.3-7.3-12.3
	c-0.9-1.5-0.5-1.9,0.7-2.7c3-2,6.2-3.8,9-6.1c0.8-0.5,1.1-1.5,0.8-2.4c-1.5-5.5-2.1-11.3-3.8-16.8c-0.3-1,0-1.6,1.2-1.6
	c3.6,0,7.2,0,10.8-0.2c1.3,0,1.7,0.5,1.6,1.7c-0.2,1.8-0.2,3.6,0,5.3c3.4-2,6.7-3.9,10-6c1.1-0.7,1.6-0.7,2.3,0.4
	c3.5,5.5,7,10.8,10.5,16.3c0.7,1.2,1.3,1.3,2.5,0.7c1.5-0.9,3.2-1.6,4.8-2.5c0.8-0.5,1.1-0.4,1.5,0.4c1.3,2.8,2.7,5.6,4.2,8.4
	c0.5,1-0.2,1.3-0.8,1.7l-14.1,9c-0.2,0.1-0.4,0.2-0.5,0.3c-3,1.9-3.1,1.9-4.7-1.3c-4.1-7.7-8.7-15.1-13-22.7
	c-0.7-1.3-1.5-2.5-2.4-4.2c-0.7,4.1,0.1,7.9-0.6,11.5h-2c0.1-5,0.2-10,0.5-14.9c0.1-1.8-0.6-2.2-2.2-2c-1.5,0.1-3.1,0.2-4.6,0.1
	c-1.5-0.1-1.9,0.4-1.9,1.9c0.2,3.7,1.6,7.1,2.2,10.7c0.8,4.6,1.1,4.6,5.9,4.3c-1.5,1.7-3.6,1-5.2,0.6c-2.1-0.6-1.4,0.3-1.2,1.3
	c0,0.1,0,0.2,0,0.3c-0.4,1.1,0.5,1.7,0.9,2.4c3.8,6.6,7.7,13.1,11.7,19.6c0.6,1.1,0.6,1.7-0.5,2.4c-3.1,1.8-6.2,3.7-9.2,5.5
	c-0.9,0.6-1.3,0.3-1.7-0.5c-0.9-1.7-1.9-3.3-2.9-5c-0.3-0.4-0.4-1-1.3-1c1.1,2.2,2.1,4.3,3.3,6.3c0.7,1.2,0.5,1.8-0.6,2.5
	c-5.4,3.2-10.8,6.5-16.2,9.8c-0.6,0.4-1.3,1.2-2,0.1c-0.3-0.5-0.7-0.1-1,0c-2.9,1.5-5.9,2.7-7.8,5.7c-1.3,2.4-3.8,3.9-6.5,4
	c-1.7-0.6-3.5-0.7-5.2-0.1c-1.4,0.4-2.5-0.7-3.9-1l-1.4,5.1c-0.5,0.3-1.1,0.7-1.1,1.3c0,2-1.6,2.7-3,2.9c-1.5,0.5-2.9,1.1-4.3,1.7
	c-0.2-1.5,1.1-1.3,2-1.7s2.7-0.7,2.6-1.8c-0.1-1.1-1.7-1.7-2.9-2.1c-0.9-0.2-1.7-0.2-2.6-0.1c-0.6,0-1.2,0.4-1.3,1
	c-0.7,1.6-2.4,2.6-4.2,2.6c-3,0.2-5.9,0.1-8.9,0.6c-1.5,0.2-1.5,0.8-1.3,1.9c0.9,4,1.8,8-0.7,11.8c-0.2,0.3-0.5,0.7-0.2,1.1
	s0.7,0.3,1.1,0.2c0.8-0.1,1.5-0.7,1.8-1.4c1.1-2.4,1.1-2.4,2.7-0.3c0.1,0.1,0.2,0.2,0.3,0.3c2,2.7,3,2.7,7,1.3
	C60.8,163,60.6,161.2,60.3,159.2z M55.5,128.8c0.5,0,1,0,1.6,0s1.1,0.6,1.6,0c0.1-0.2,0.1-0.4,0-0.5c-0.4-0.5-1.2-0.7-1.8-0.4
	c-0.7,0.3-1.8-0.4-2.1,0.9c-0.5,0.2-1.3-0.2-1.5,0.5s0.6,0.9,1.1,1.2c0.5,0.3,1,0.5,1.6,0.7c-0.3,0.6-1,0.7-1.5,1
	c-0.6,0.3-0.9,1-0.6,1.6c0.1,0.1,0.1,0.2,0.2,0.3c2.9,2.8,2.8,6.3,2.3,9.9c-0.1,0.6-0.5,1.6,0.3,2c1.1,0.4,1.3-0.8,1.9-1.4
	c0.2-0.2,0.1-0.5,0.2-0.8c1.2-3.5,1.5-7.2,0.9-10.8c-0.6-3.2-0.5-3.3-3.3-2.2C56.5,130,55.7,129.6,55.5,128.8z M51.8,127.9
	c-0.6-2.2,0.1-4.7-1-7.2c-0.6,1.5,0,2.6-0.6,3.5c-0.4-0.7,0-1.7-0.7-2.3c0,2.6-0.9,5.2,0.5,7.6c-1.5,0.4-1-0.8-1.1-1.4
	c-0.2-2.1-0.3-4.3-0.4-6.4c0-0.6-0.1-1.3-0.9-1.3c-1.7-0.1-3.4,0.4-4.8,1.3c-2.7,2-5.3,4.2-7.6,6.6c-1.1,1.2-3,2.2-2.9,4.3
	c0,0.6-0.3,1.4,0.4,1.8c0.7,0.3,1.5,0.2,2.1-0.3c1-0.8,2.1-1.4,3.4-1.5c1.8-0.2,3.5-0.6,5.3-0.9c2.1-0.4,2.9,0.2,3.7,2.3
	c0.7,1.7,0.1,3.8,1.1,5.1c1.3,1.6,1.9,3.8,1.6,5.9c-0.1,1.2,0.5,1.5,1.5,1.5c1.7,0,3-1.8,3.3-4.3c0.3-3.4-1.4-5.7-3.8-7.7
	c-1.3-1.2-1.5-1.7,0.1-2.5c0.7-0.3,1.3-0.8,1.9-1.3c-0.6-0.7-1.5-0.6-2.2-1c0-0.5,0.4-0.7,0.9-0.8C52.1,128.7,52.3,128.3,51.8,127.9
	z M74.7,112.1c2.7-3,4.6-6.8,5.3-10.8c0.3-1.3,0.4-2.3-1.5-1.8c-0.5,0.1-1.1,0.1-1.6,0.1c-0.6,0-1,0.2-1,0.9
	c0.2,3.7-1.2,7.2-1.9,10.7c-0.1,0.3-0.8,1,0.3,1.1L74.7,112.1z M97.1,118.8c0-1.2,0.9-1.9,1.5-2.8c0.3-0.4,0.3-1,0-1.5
	c-0.4-0.4-0.8,0-1.2,0c-2,0.1-3,1.6-4.3,2.8c1,0.6,2.4,0.2,2.9,1.5c-1.8-0.8-3.8-0.5-5.3,0.6c-0.2,0.1-0.5,0.1-0.8,0.2
	c-2.1,0.3-3.5,2.3-3.2,4.4c0,0.2,0.1,0.3,0.1,0.5c0.3,1.6,1,3.1,2,4.3c1.1,1.2,2.5,2.9,4.6,2.1c2-1,3.8-2.3,5.3-4
	c0.4-0.4,0.5-1.2,0-1.2c-2,0.2-0.5-0.7-0.5-1.2c-0.1-1.8-0.2-3.6-0.3-5.3C98,119.1,97.5,119,97.1,118.8L97.1,118.8z M134.6,70
	c0,0-0.3,0-0.4,0.2c-1.5,2-3.9,2.7-5.8,4c-1.1,0.8-1,1.5-0.3,2.5c2.3,3.9,4.5,7.9,6.9,11.9s4.7,7.8,7,11.7c0.5,0.8,0.9,1.6,2.1,0.8
	c4.2-2.7,8.4-5.3,12.6-7.9c0.8-0.3,1.2-1.2,0.9-2c0-0.1-0.1-0.2-0.2-0.4c-0.7-1.3-1.3-2.7-2-4.1c-0.4-0.9-1-1.3-2-0.7
	c-1.3,0.7-2.8,1.3-4.1,2.1c-1.6,0.9-2.7,0.6-3.2-1.1c-0.1-0.3-0.3-0.6-0.5-0.8c-3.3-5.1-6.6-10.2-9.8-15.4
	C135.4,70.3,135.3,69.9,134.6,70z M100.4,127.3c4.2-2.5,8-4.9,12-7.1c1.1-0.7,1.3-1.3,0.7-2.4c-0.8-1.5-1.6-3-2.4-4.5
	c-0.5-1-1.2-0.9-2-0.5c-1.2,0.6-2.3,1.3-3.4,2c-1.2,0.9-2.9,0.6-3.7-0.6c-0.2-0.3-0.4-0.6-0.4-1c-0.1-0.3-0.2-0.6-0.3-0.9
	c-3.5-4.3-6-9.3-9.2-13.8c-0.4-0.9-1.4-1.3-2.2-0.9c-0.2,0.1-0.3,0.2-0.4,0.3c-1.8,1.1-3.5,2.2-5.2,3.3c-0.9,0.6-1.3,1.1-0.5,2.3
	c2.4,3.9,4.6,7.9,6.9,11.8c1.2,2,1.2,1.9,3.1,0.3c0.6-0.5,1.2-1,1.9-1.4c1.2-0.9,2.9-1,4.1-0.2c1.1,0.8,0.4,2.2,0,3.3
	c-0.2,0.5-0.6,0.7-0.5,1.3C99.4,121.4,99.9,124.2,100.4,127.3L100.4,127.3z M125.9,111c-0.1-0.2-0.3-0.5-0.5-0.8
	c-1.6-2.8-3.3-5.5-4.9-8.3c-1.8-3.2-3.7-6.4-5.6-9.6c-0.6-1.1-1.3-1.5-2.5-0.5c-1.2,0.9-2.8,1.7-4.1,2.7s-2.3,1.8-0.9,3.6
	c0.7,1,1.4,2.1,1.9,3.2c2.6,4.5,5.3,9,7.9,13.5c0.4,0.7,0.9,1.6,2,0.9c2-1.3,4-2.5,6.1-3.8C125.6,111.8,125.9,111.4,125.9,111
	L125.9,111z M64.5,139.5c0.2,0.7,0.2,1.3,0,2c-0.1,0.5-0.6,1.3,0.2,1.6c0.8,0.2,0.9-0.7,1-1.3c1.2-4.7,2.3-9.4,1.9-14.3
	c-0.2-2-0.8-2.7-2.5-1.6c-0.9,0.5-2.5-0.1-2.8,1.6c-0.1,0.4-0.7,0.1-1-0.4c-0.2-0.4-0.8-0.5-1.1-0.3c0,0-0.1,0-0.1,0.1
	c-0.4,0.3,0,0.7,0.1,1.1c1,4.8,2,9.5,0.5,14.4c-0.1,0.5-0.1,0.7,0.4,0.9c1.6,0.5,2.6,0,2.4-1.7C63.5,140.6,64,140.2,64.5,139.5z
	 M44.1,146.5c1,0,1.8,0,2.6,0c0.5,0.1,1.1-0.3,1.2-0.8c1.1-2.8-2.2-7.5-5.3-7.3c-3.3,0.2-5.1,2.3-6.6,4.9c-0.7,1.2-1.5,2.4-0.3,3.6
	c1.1,1.2,2.9,1.4,4.2,0.6C41.2,146.6,42.6,146.3,44.1,146.5L44.1,146.5z M73.4,128.6c0.2-1-0.4-1.3-1.3-1.3c-0.4,0-0.8-0.1-1.2-0.2
	c-1.7-0.8-2,0-1.9,1.5c0.2,2.9,0,5.7-0.7,8.5c-0.5,1.7-0.9,3.5-1.3,5.2c-0.4,1.5,0.5,2.2,1.6,2.5s1.3-0.8,1.5-1.6
	c0.4-1.7,0.8-3.4,1.2-5C72,134.9,72.7,131.8,73.4,128.6L73.4,128.6z M39.2,134.3c-2.5,0-6.3,2.4-7.2,4.6c-0.5,1.3,0.6,1.9,1.3,2.7
	c0.7,0.8,1.3,0.1,1.6-0.4c1.2-2,2.9-3.6,5-4.5c0.7-0.3,0.7-1.1,0.5-1.7C40.3,134.2,39.7,134.4,39.2,134.3z M35,159.3
	c-0.5,0-0.5,0.6-0.7,1c-1.4,2.7-2.7,5.4-4.2,7.9c-1.5,2.5-2.1,5.9-5,7.6c-0.4,0.2-0.7,0.9-0.2,1.2c0.5,0.3,1.1,1.4,2,0.9
	c0.5-0.3,1-1,0.6-1.5c-0.9-1.1-0.1-1.8,0.4-2.6c2.7-4.3,5.3-8.6,8-12.9C36.7,159.7,35.7,159.7,35,159.3L35,159.3z M85.2,125.9
	c-0.8,0.2-0.9,0.8-0.9,1.4c0.3,2.6,2.2,4.7,4.7,5.3c0.4,0.1,0.8-0.1,1-0.5c0.2-0.5,0-0.7-0.3-1c-1.4-1.3-3.1-2.6-3.8-4.6
	C85.8,126.3,85.5,126.2,85.2,125.9L85.2,125.9z M46.4,137.9c0-1.1-0.1-2.3-0.3-3.4c-0.1-1.1-1.1-1.8-2.2-1.7c0,0-0.1,0-0.1,0
	c-1.5,0.3-1.6,1.7-1.8,3c-0.3,1.5,1,0.8,1.6,1.1C44.5,137.3,45.4,137.7,46.4,137.9L46.4,137.9z M58.8,119.7c0.5,1.9,0.9,3.3,1.2,4.7
	c0.3,1.1,1.3,1.8,2.4,1.5c0.9-0.2,1.6-1,1.6-2c-0.1-1.7-0.5-3.4-1.3-4.9c-0.2,1.6,0.6,3.3-0.9,3.7S60.1,121,58.8,119.7z M58.9,125.5
	c-0.1-2.2-1.2-2.5-3-1.7c-0.6,0.3-1.2,0.5-1.9,0.6c-0.6,0.1-1.1,0.7-1,1.3c0,0.1,0,0.1,0,0.2c0.1,0.9,0.8,0.7,1.3,0.6
	C56,126.2,57.4,125.9,58.9,125.5L58.9,125.5z M67.3,117.2c-0.9,0.5-2.7-0.4-2.9,1.6c0,0.5-0.3,1.8,1.1,1.7c1.4-0.1,3.3-1.3,3.3-2.3
	S68.2,117.2,67.3,117.2L67.3,117.2z M69.3,121c-1.1,0.4-2.1,0.8-3.2,1.2c-1.1,0.4-0.7,1.1-0.6,1.7c0.1,0.6,0.7,0.4,1.1,0.3
	C69.4,124.1,69.4,124.1,69.3,121z M42,148.3c-3.2,1.6-4,3.9-2.3,5.7L42,148.3z M55.1,120.3c-1,0.3-3-0.7-2.1,1.7
	c0.6,1.6,1.6,0.2,2.3,0.1c0.7-0.1,2.3,0,2.3-1C57.4,119.7,55.9,120.6,55.1,120.3z M73.5,134.6c0.5-1.2,0.5-2.5,0-3.7
	C73,132.1,73,133.5,73.5,134.6L73.5,134.6z M37,156.1c-0.4,0.1-0.7,0.4-0.7,0.9c0,0.3,0.3,0.6,0.7,0.7c0.6,0,0.9-0.2,0.9-0.8
	S37.5,156.1,37,156.1z"/>
<path class="st1" d="M61.5,86.8c0-1.1-0.9-2.1-2.1-2.1c-0.2,0-0.5,0-0.7,0.1l0,0c-0.3-1.1-0.9-0.9-1.6-0.4c-1.3-0.2-2.6,0.1-3.6,0.9
	c-1.7,1.2-3.6,2.2-5.6,2.8c-3.4,1.5-6.5,3.4-8,7.3c-2,5.5-3.5,10.9-1.2,16.6v1.7l-0.7-0.1c-0.1,0-0.2-0.2-0.3-0.2c0,0-0.1,0.3,0,0.5
	c1.4,1.7,2.6,3.5,3.8,5.5c-1-0.1-1.9-0.1-2.9,0.2c-3.1,0.9-5.6-0.5-8-2.3c0.2-1.3,0.1-2.4-1.6-2.1c-0.3-0.2-0.4-0.6-0.4-0.9
	l-0.2-0.6l-0.1-0.5c0-0.1,0-0.2-0.1-0.3c-0.4-0.6-0.6-1.3-0.7-2l-0.2-0.4l-0.2-1.2c0.3-0.2,0.5-0.6,0.5-1c0-3,0-6.1-0.1-9.1h0.1
	h-0.1c1.6,0,1.8-1,1.7-2.3l0,0l0.3-0.4l0.2-0.4c1.7-0.3,1.3-1.2,0.5-2.1l0.3-2.8c0.3-0.3,0.3-0.7,0.1-1.1c-0.4-0.2-0.6-0.8-0.4-1.2
	c0.6-0.1,1-0.3,0.9-1c1.5-2.1,3.9-2.7,6.3-3.2c0.6,0.1,0.9-0.8,1.6-0.4c1.3,0.7,2.1,0,2.7-1.1l2.9-0.2c0.7,0.2,1.3,0.4,1.5-0.7
	c1-0.9,1.7-2.3,3.2-2.5c0.1,0.5-0.3,1.2,0.5,1.6c0.6-0.8,0.1-1.2-0.5-1.6c1.1-1.8,3.4-2.7,5.5-2.2c1.2,0.2,2.3,0.8,3.5,1
	c2.3,0.5,2.7,2.7,3.8,4.2c1.2,1.8,2.3,3.8,3.2,5.7l-0.5,0.7c-1.1-0.8-2-1.7-3.5-1.6l-0.5-0.2L61.5,86.8c0.1,0.1,0.2,0.5,0.4,0.2
	L61.5,86.8z M47.6,82.3c-0.3,0-0.6,0-0.6,0.3c0,0.3,0.3,0.4,0.6,0.4c0.3,0,0.5-0.1,0.5-0.2C48.1,82.5,47.8,82.5,47.6,82.3z"/>
<path class="st2" d="M170,109.2c-0.6,1.3,0.5,1.9,1.1,2.7c0.5,0.8,0.9,1.6-0.6,1.9c-1,0.3-1.9,0.7-2.7,1.3c-0.7,0.5-1.2,1.1-0.8,2
	c0.4,0.9,0.9,1.6,2.1,1.4c1.2-0.1,2.3-0.6,3.2-1.5c0.8-0.7,1.3-0.6,1.8,0.3c1.7,3.2,3.5,6.3,5.2,9.3c1,1.7,0.3,2.9-2.4,4.4
	c-5.8,3.4-11.7,3.1-17.4,0c-5.2-2.8-8.3-11.3-6.7-17.2c1.3-4.6,4.3-8.6,8.5-11c1.5-1,3.6-0.6,4.7,0.9c0,0,0,0,0,0
	c1,1.6,2.1,3.2,3.1,4.9C169.4,109.1,169.6,109.3,170,109.2L170,109.2z M168.4,131.7c2.5,0,5-0.7,7.1-2.1c1.1-0.8,2.5-1.3,1.2-3.4
	c-0.9-1.5-1.7-3.1-2.6-4.7c-0.9-1.6-1.5-2.2-3.5-1.5c-3.7,1.2-6-0.9-5.5-4.6c0.2-1.4,1.3-2,2.3-2.6c0.9-0.6,1.2-1.3,0.5-2.3
	c-0.9-1.3-1.7-2.7-2.4-4.1c-1.1-2.1-2.2-2.6-4.2-1.1c-4.5,3.2-7.2,7.9-6.9,13.2C154.7,125.3,161,131.4,168.4,131.7z"/>
<path class="st2" d="M123.8,144.5c2.3,3.7,4.5,7.3,6.7,10.9c0.6,1.1,0.3,2.5-0.7,3.2c-4.1,3.8-9.1,5.7-14.6,4.4c-4-1-7.1-4-9.3-7.6
	c-3.9-6.2-2.3-12.9,0.9-17.3c2.1-2.9,5-4.6,7.7-6.6c0.9-0.6,1.5-0.4,2.1,0.5c1.8,2.9,3.6,5.7,5.3,8.5c0.6,0.9,0.5,1.3-0.5,1.8
	c-1.3,0.6-2.3,1.6-3.2,2.7c-0.6,0.7-0.6,1.8,0.1,2.4c0,0,0,0,0.1,0.1c0.6,0.6,1.6,0.7,2.3,0.1C121.9,146.7,122.9,145.7,123.8,144.5z
	 M119.3,161.3c3.1-0.3,6-1.5,8.4-3.5c0.8-0.5,1.1-1.6,0.6-2.4c0-0.1-0.1-0.2-0.2-0.2c-1.1-1.8-2.3-3.6-3.3-5.4
	c-0.3-0.9-1.3-1.3-2.2-1c-0.2,0.1-0.4,0.2-0.6,0.4c-2.1,1.3-4.2,1-5.3-0.5c-1.3-1.8-1-4.3,0.7-5.7c2.4-2.2,2.4-2.2,0.7-4.9
	c-0.2-0.3-0.4-0.5-0.6-0.8c-2.6-3.9-2.6-3.9-6.1-0.9c-3,2.3-5,5.7-5.6,9.5c-1.1,7.4,4,14.3,11.4,15.4
	C117.9,161.2,118.6,161.3,119.3,161.3L119.3,161.3z"/>
<path class="st2" d="M128.3,125.5c0.9,0.3,1.2-0.4,1.6-0.9c1.1-1.3,2.4-2.5,3.8-3.5c0.7-0.6,1.1-0.5,1.5,0.3c1.6,2.8,3.3,5.6,5,8.4
	c0.7,1.1,0.8,1.6-0.8,1.9c-2.8,0.5-3.9,3.2-2.5,5.7c2,3.7,4.1,7.3,6.6,10.7c0.8,1.1,0.4,1.7-0.4,2.2c-2.9,1.9-5.9,3.7-8.7,5.6
	c-1.2,0.8-1.7,0.4-2.3-0.7c-4.3-7.5-8.6-15-13-22.5c-0.5-0.8-0.5-1.3,0.4-1.9c2.7-1.7,5.2-3.4,7.7-5.2
	C127.6,125.3,127.9,125.1,128.3,125.5z M133.7,153.7c0.2,0,0.4,0,0.6-0.1c2.3-1.3,4.5-2.7,6.7-4.2c0.6-0.4,0.3-0.8,0-1.3
	c-1.8-3.2-4.1-6.1-5.7-9.4c-1.6-3.4-1.6-5.1,1.3-7.9c0.6-0.6,1-1.2,0.7-1.9c-0.6-1.6-1.4-3.1-2.4-4.4c-0.6-0.7-1.1-0.8-2-0.1
	c-1.2,1.1-2,2.5-2.2,4.1c-0.2,1-0.7,1.4-1.4,0.6c-1.3-1.6-2.4-1.1-3.7,0c-0.8,0.7-1.7,1.2-2.7,1.7c-1.7,0.9-1.8,2-0.8,3.5
	c1.6,2.3,3,4.6,4.3,7.1c2,3.9,4.1,7.6,6.4,11.4C133.1,153.1,133.2,153.8,133.7,153.7L133.7,153.7z"/>
<path class="st2" d="M145.7,113.6c0.6,0,0.7,0.5,0.9,0.9c4.9,7.9,9.7,15.8,14.6,23.8c0.5,0.7,0.2,1.2-0.4,1.6
	c-3.2,2-6.3,3.9-9.4,5.9c-1.2,0.8-1.4-0.2-1.7-0.8c-2.2-3.8-4.3-7.6-6.5-11.4c-2.3-4-4.5-8-6.9-12c-0.6-1.1-0.7-1.7,0.6-2.5
	c2.7-1.5,5.3-3.3,8-4.9L145.7,113.6z M159.1,138.3c-0.7-1.1-1.5-2.3-2.3-3.5c-3.7-5.6-7-11.5-10.7-17.3c-0.7-1.1-1.3-1.1-2.2-0.7
	c-1.6,0.9-3.1,2-4.7,2.9c-1,0.6-1.1,1.2-0.4,2.3c1.4,2.3,2.7,4.7,4,7.1c2.4,4.3,4.8,8.5,7.2,12.8c0.7,1.2,1.3,1.4,2.7,0.6
	c2-1.2,3.7-2.8,6-3.4C159,139,159.2,138.8,159.1,138.3z"/>
<path class="st1" d="M105.1,79.9l0.6-0.3l1-0.2c1.9-0.6,3.9,0.4,4.6,2.2c1,1.8-0.1,3.7-1,5.3c-1.5,2.7-7.1,4.9-10.1,4.3
	c-2.6-0.6-3.7-4.2-2-6.6c1.4-2.2,3.6-3.9,6.2-4.7L105.1,79.9z"/>
<path class="st2" d="M210.2,163.4c-1.5,1.2-3.6,1.4-5.3,0.5c-3.5-1.5-5.1-5.6-3.6-9.1c1.2-2.8,4.2-4.5,7.3-4.1c2.5,0.3,5,3.1,5.4,6
	C214.3,159.4,212.8,162.1,210.2,163.4c0-1.3-0.6-1.8-1.9-1.8c-1.4,0-3.4,0.8-4.2-1.3c-0.1-0.2-0.7-0.1-1.1-0.2
	c-0.1-1.5,0.3-3.1-0.5-4.5c0,1.5-1.1,3.1,0.5,4.5c0.6,2.3,2.9,3.7,5.2,3.2C208.8,163.3,209.5,163.3,210.2,163.4z M210.5,157.2
	c-0.1-1.7-1.5-3.1-3.3-3.2c-1.7,0.2-3,1.6-3.1,3.3c-0.1,1.8,1.3,3.4,3.1,3.5C209.1,160.8,210.5,159.2,210.5,157.2
	C210.5,157.2,210.5,157.2,210.5,157.2z M211.6,157.6c0.3,0.7-0.4,2,0.6,2s1.1-1.1,1.1-2c0-1-0.2-2.1-1.1-2.1
	C211,155.7,212,157,211.6,157.6L211.6,157.6z M204.8,152.4c1.6,0.5,3.4,0.5,5,0C208.2,151.9,206.4,151.9,204.8,152.4L204.8,152.4z"
	/>
<path class="st2" d="M225.8,163.8c-3.6,0.5-3.6,0.5-5.3-2.3c-0.3-0.4-0.4-1.1-1.1-0.9c-0.7,0.2-0.3,0.8-0.3,1.2
	c0.1,1.5-0.1,2.4-2,2.3c-1.1-0.1-1.3-0.5-1.3-1.4c0-3.4,0-6.8,0-10.2c0-1.1,0.3-1.6,1.4-1.5s2.8,0,4.2,0.2c1.6,0.1,2.9,1.3,3.1,2.9
	c0.3,1.6,0.2,3.3-1.3,4.1s-0.7,1.2-0.2,1.9C224,161.2,224.9,162.3,225.8,163.8z M222.9,152.8c-0.3,0.5-0.5,1-0.7,1.6
	c-0.1,0.6,0.4,0.9,0.8,1.3c0.4,0.3,0.6,0.2,0.6-0.1C223.6,154.6,224.4,153.4,222.9,152.8c-1-1-4.7-1.2-6.4,0L222.9,152.8z
	 M219.2,155c0.3,0.5-0.5,1.5,0.8,1.5c0.7,0,1.4-0.5,1.4-1.3c0,0,0-0.1,0-0.1c0-1.1-0.6-1.3-1.5-1.5
	C218.7,153.7,219.4,154.6,219.2,155z M217.8,155.9c-0.8,0.8-1.6,1.1-1.2,2.1c0.1,0.3,0.5,0.4,0.8,0.3c0,0,0,0,0,0
	C218.5,157.9,218.1,157.1,217.8,155.9L217.8,155.9z"/>
<path class="st2" d="M232.6,140.6c0.5,3.9-3.2,6.8-6.7,6.8c-3.8-0.3-6.7-3.6-6.4-7.5c0.3-3.4,3-6.2,6.4-6.4
	C229.7,133.4,232.6,136.5,232.6,140.6z M227.6,143.9c0.4,0.6-0.8,1.1-0.2,1.6c0.5,0.4,1.2,0.4,1.7,0c1.5-1,2.5-2.6,2.7-4.4
	c-0.1-2-1-3.8-2.5-5.1c-0.3-0.3-0.8-1-1.3-0.3c-0.5,0.7,0,1,0.5,1.3c0.2,0.2,0.4,0.4,0.6,0.6c1.3,1,1.7,2.7,1.1,4.1
	C229.7,142.6,229.6,144.5,227.6,143.9c0-0.8,0.9-1,1.2-1.5c0.7-1.1,0.7-2.6,0-3.7c-0.6-1.1-1.9-1.8-3.1-1.6
	c-1.3,0.2-2.3,1.2-2.7,2.4C222,142,224.2,144.2,227.6,143.9L227.6,143.9z M224,135.2c-3.3,1.9-4.2,4.2-2.9,7.6
	C222.3,140.1,222.6,137.7,224,135.2L224,135.2z M224.5,144.8c0-1.1-1.2-0.7-1.7-1.3c-0.3-0.4-0.6,0-0.6,0.4c0.1,0.8,0.7,1.5,1.5,1.6
	C224,145.7,224.4,145.4,224.5,144.8L224.5,144.8z"/>
<path class="st2" d="M216.5,144.8c-2,2.7-5.7,3.4-8.5,1.6c-2.9-2-3.9-5.8-2.5-9c1.4-3.3,5.3-4.8,8.6-3.4c1.6,0.7,2.8,2,3.4,3.5
	C218.8,140,218.3,142.9,216.5,144.8c0-1.6,1.2-3,0.8-4.8c-0.1-0.5,0.2-1.2-0.5-1.6c-0.3-0.2-0.7-0.1-0.9,0.2c-0.3,0.5-0.3,1.2,0,1.7
	c1,1.2,0.3,1.9-0.5,2.7c-0.5,0.5-1.2,0.9-1.3,1.7h-2.6c-2.5-0.1-4.5-2.2-4.5-4.7c-0.1-1.4,1.9-3.7,3.5-4.1c0.4-0.1,1.1,0.1,0.9-0.6
	c-0.2-0.5-0.6-0.9-1.4-0.5c-1.7,0.9-3.4,1.9-3.8,3.7c-0.6,2.5,0.3,5.2,2.5,6.7c2.4,1.8,4.2,1.6,5.5-0.5H216.5z M211.4,144
	c2,0.2,3.8-1.1,4-3.1c0.2-2-1.1-3.8-3.1-4c-2-0.2-3.8,1.1-4,3.1c0,0.1,0,0.2,0,0.3C208.2,142.1,209.6,143.8,211.4,144z M215.4,137.8
	c0.4-1.6-0.3-2.2-1.2-2.5c-0.3-0.2-0.7,0-0.8,0.3c0,0.1-0.1,0.2-0.1,0.2C213.3,137.3,214.9,136.6,215.4,137.8L215.4,137.8z"/>
<path class="st2" d="M185.6,164.3c-0.9-0.1-1.8-0.2-2.7-0.5c-0.7-0.3-1.8-0.7-1.2-1.7c0.4-0.7,0.3-2.7,2.2-1.3
	c0.6,0.4,2.1,0.6,2.5-0.2c0.5-1.1-0.7-1.8-1.7-1.9c-3.2-0.5-3.7-4.1-1.8-6.5c1.7-1.7,4.4-1.9,6.4-0.5c0.9,0.7,0,1.2-0.1,1.7
	c-0.3,1-0.9,0.9-1.7,0.6c-0.5-0.2-1.5-0.9-1.8,0.3c-0.2,0.9,0.3,1.5,1.3,1.6c0.1,0,0.2,0.1,0.4,0.2c2.6,1.1,3.3,2.5,2.7,5.2
	C189.5,163.1,187.6,164.4,185.6,164.3z M185,163.2c2.1,0.1,3.9-1.5,4-3.7c0-0.3,0-0.5,0-0.8c-0.1-0.7-0.7-1.1-1.3-1.1
	c0,0-0.1,0-0.1,0c-1,0.3,0,0.8,0,1.2c0.5,1.2,0,2.5-1.2,3c-0.1,0.1-0.3,0.1-0.4,0.1c-0.7,0.2-1.1-0.6-1.8-0.5
	c-0.5,0.1-1.1,0-1.2,0.7c0,0.7,0.5,0.8,1.1,0.9L185,163.2z M185.6,157.7l0.5-0.7l-2.2-1.9c-0.2-0.2-0.5-0.5-0.8-0.3
	c-0.2,0.2-0.2,0.5-0.2,0.7C183,157.3,184.5,157.2,185.6,157.7L185.6,157.7z"/>
<path class="st1" d="M200.9,141.9c-0.4,0.1-0.9,0-1,0.5c-0.2,1.4-0.3,2.9-0.2,4.3l0,0l-2.4,0.1c-0.8,0-0.6-0.7-0.6-1.2
	c0-3.5,0-6.9,0-10.3c0-0.8,0-1.5,1.1-1.3c0.1,0.2,0.3,0.2,0.4,0h0.8c0.3,0.4,0.5,0.4,0.8,0h1.2c0.4,0.4,1.1,0.5,1.5,0.1
	c0,0,0.1-0.1,0.1-0.1h0.8c0.1,1-0.2,1.9-0.8,2.7l-2.4,0.1c-0.6,0.5-0.7,1.3-0.2,1.9c0,0,0.1,0.1,0.1,0.1l0.1,0.1
	c0.7,0.5,1.6,0.5,2.4,0.1c0.5-0.2,0.9-0.1,0.8,0.6C203.3,140.8,202.2,141.9,200.9,141.9z"/>
<path class="st2" d="M193.8,158.9c0-0.9,0-1.7,0-2.6c0-1.1,0.5-2.5-1.6-2.3c-0.7,0.1-1.2-0.6-1-1.7c0.2-0.8,0.1-1.5,1.3-1.5
	c2,0.1,4,0,6,0c1,0,1.3,0.5,1.2,1.3s0.3,1.8-1,1.6c-1.3-0.1-1.4,0.7-1.4,1.7c0,2.2,0,4.4,0,6.6c0,1.3-0.2,1.9-1.7,1.9
	c-1.5,0-1.9-0.6-1.8-2C193.9,161,193.8,159.9,193.8,158.9z M195.6,153.9h-0.7c0,2.9,0,5.7,0,8.6c0,0.6,0.5,0.8,1,0.7
	c0.4-0.1,0.7-0.5,0.6-0.9c0-0.2-0.1-0.3-0.2-0.4c-0.7-0.6-0.8-1.6-0.4-2.4C197.4,157.4,195,155.8,195.6,153.9L195.6,153.9z"/>
<path class="st1" d="M230.6,154.1c0.2,0.7-0.3,1.6,0.7,1.9c0,1.3,2.2,1.2,1.6,2.8c-0.8,0.3-1.6-0.1-2.3,0.4c-0.6,0-1.2,0-1.2,0.8
	c0,0.8,0.7,0.7,1.3,0.7c0.1,0,0.2,0,0.3,0.1c0.1,0.9,0.8,0.7,1.3,0.7c0.5,0,0.9,0.2,0.9,0.8c0,0.6-0.5,0.8-1.1,0.8
	c-0.9,0-1.9,0-2.8,0c-1.3,0.1-1.7-0.5-1.7-1.8c0.1-2.1,0.1-4.1,0-6.2c-0.1-1.8,0.1-3,2.2-3.7c2.7-0.8,3.3-0.6,3.4,2.1
	c-0.7,0.2-1.5,0.2-2.2,0C230.9,153.7,230.6,153.9,230.6,154.1z"/>
<path class="st2" d="M67.3,171.7c2.7,0.6,4.3-1.8,6.5-2.4c0.4-0.2,0.9-0.3,1.3-0.5c0.9-0.2,2.3,0.6,2.7-0.6c0.4-1.3,0.3-2.8-0.1-4.1
	c-0.5-2-0.9-4.1-1.3-6.2c2,1.6,1.9,4,2.3,6.3c0.3,1.5,0.1,3.1,0.3,4.6c0.1,0.9-0.5,1-1,1.1c-2.7,0.5-5.2,1.6-7.5,3
	C68.9,173.9,68.3,172.3,67.3,171.7z"/>
<path class="st2" d="M41.5,83.2c-0.6,1.1-1.3,1.8-2.7,1.1c-0.7-0.4-1,0.5-1.6,0.4c-1,0-0.3-1.2-0.9-1.5c0.9-1,0-3.3,2.4-3.2L38,81.2
	c1.3-0.4,1.7-1.9,2.7-2.4C42.8,81.6,42.8,81.6,41.5,83.2z"/>
<path class="st2" d="M233.3,153.7c0-2.7-0.8-2.9-3.4-2.1c-2.1,0.7-2.3,1.9-2.2,3.7c0.1,2.1,0.1,4.1,0,6.2c0,1.2,0.3,1.9,1.7,1.8
	c0.9-0.1,1.9,0,2.8,0c0.6,0,1.1-0.1,1.1-0.8s-0.4-0.7-0.9-0.8s-1.3,0.1-1.3-0.7c0.5,0,1.1,0,1.6,0c1-0.1,1.8,0,1.7,1.4
	c-0.1,1.2-0.1,1.9-1.6,1.8c-1.3-0.1-2.5-0.1-3.8,0c-1.1,0-1.6-0.3-1.5-1.4c0.1-3.4,0.1-6.8,0-10.2c0-1.1,0.4-1.5,1.5-1.5
	c1.3,0.1,2.8,0,4.2,0c0.5,0,1.3-0.1,1.1,0.7C233.9,152.5,235,153.5,233.3,153.7z"/>
<path class="st1" d="M115.7,88.2c-0.2-1-0.9-1.9,1.2-1.3c1.6,0.5,3.6,1.1,5.2-0.6h2c0.2,0.7,0.1,1.4-0.1,2.1h-0.1v0.1h-4.2
	c-0.4-0.3-1-0.3-1.5,0h-1.8L115.7,88.2z"/>
<path class="st1" d="M240.5,153.6c-1.8-0.1-1.8,0.8-1.2,2.1c0.2,0.3,0.3,0.7,0.5,1.1l0,0c-1.4,0-2.4-0.5-2.3-2
	c0-1.5,1.2-2.3,2.4-2.8c0.4-0.1,0.8-0.1,1.2,0c0.7,0.1,1.9-0.4,1.9,0.8s-1.3-0.6-1.5,0.4L240.5,153.6z"/>
<path class="st1" d="M76.4,140.4c1.7-0.6,3.5-0.5,5.2,0.1C79.8,141.6,78.1,141.2,76.4,140.4z"/>
<path class="st2" d="M233,158.8c0.6-1.6-1.6-1.5-1.6-2.8c2.5-0.2,3.1,0.4,2.5,2.4C233.7,158.9,233.3,159,233,158.8z"/>
<path class="st2" d="M230.7,160.8c-0.6,0-1.2,0.2-1.3-0.7s0.6-0.8,1.2-0.8L230.7,160.8z"/>
<path class="st2" d="M199.6,146.8c-0.1-1.4,0-2.9,0.2-4.3C200.2,143.9,200.1,145.4,199.6,146.8z"/>
<path class="st2" d="M200.9,141.9c1.2-0.1,2.2-1.1,2.3-2.3C203.4,142.1,203.4,142.1,200.9,141.9z"/>
<path class="st2" d="M202.5,136.8c0.6-0.8,0.9-1.7,0.8-2.7C204,136.1,203.8,136.6,202.5,136.8z"/>
<path class="st2" d="M202.4,139c-0.8,0.4-1.7,0.3-2.4-0.1L202.4,139z"/>
<path class="st2" d="M197.2,146.9l2.4-0.1C198.8,147.1,198,147.1,197.2,146.9z"/>
<path class="st2" d="M45.9,82.2c-0.1,1.1-0.8,0.9-1.5,0.7L45.9,82.2z"/>
<path class="st2" d="M200,138.8c-0.5-0.5-0.5-1.4,0-1.9c0,0,0.1-0.1,0.1-0.1L200,138.8z"/>
<path class="st2" d="M202.5,134.1c-0.4,0.4-1.1,0.5-1.5,0.1c0,0-0.1-0.1-0.1-0.1H202.5z"/>
<path class="st2" d="M65.1,171c0.5-0.7,0.7-0.4,0.8,0.2C65.6,171.3,65.3,171.2,65.1,171z"/>
<path class="st3" d="M118.1,88.6c0.4-0.3,1-0.3,1.5,0C119.1,88.8,118.5,88.8,118.1,88.6z"/>
<path class="st2" d="M106.7,79.4l-1,0.2C106,79.4,106.3,79.2,106.7,79.4z"/>
<path class="st2" d="M105.1,79.9l-0.7,0.1L105.1,79.9z"/>
<path class="st2" d="M199.6,134.1c-0.3,0.3-0.5,0.4-0.8,0H199.6z"/>
<path class="st3" d="M115.7,88.2l0.7,0.3c-0.2,0.2-0.5,0.1-0.7-0.1c0,0,0,0,0,0C115.6,88.4,115.6,88.3,115.7,88.2z"/>
<path class="st2" d="M198.1,134.1c-0.1,0.2-0.3,0.2-0.4,0H198.1z"/>
<path class="st2" d="M230.6,154.1c0-0.3,0.3-0.5,0.6-0.4L230.6,154.1z"/>
<polygon class="st3" points="123.7,88.5 123.7,88.4 123.8,88.5 123.8,88.6 "/>
<path class="st4" d="M37.9,113.6l0.7,0.1c2.2,0.8,3.6-0.6,4.9-1.9c1.3-1.3,1.7-0.8,2.2,0.5c0.9,2,1.9,4.1,2.9,6.3
	c-1.7-0.1-3.4,0.2-4.9,1c-0.7,0.4-1.7,0.3-2.3-0.3l0,0c-1.1-1.9-2.4-3.7-3.8-5.5C37.8,113.9,37.9,113.8,37.9,113.6z"/>
<path class="st2" d="M31,87.8c0.1,0.7-0.3,0.9-0.9,1c-0.3,3.9-1.8,7.6-4.3,10.7c-1.8,2.5-0.7,5.3-0.1,8.1c0.1,0.4,0.4,0.8,0,1.5
	c-2.7-1-5.3-2.2-7.9-3.6c1.9-0.4,3.5,0.5,5.1,1s1.1-0.2,1.3-1c0.2-1.5-0.7-2.8-0.1-4.3c0.3-0.9,0.6-1.7,1-2.5c2-2.8,3.2-6.1,3.2-9.6
	c0-1.1,0.4-2.4,2.1-2.3l-0.4,1H31z"/>
<path class="st2" d="M27.3,99c0,3,0,6.1,0.1,9.1c0,0.4-0.1,0.8-0.5,1C25.7,105.8,25.2,102.3,27.3,99z"/>
<path class="st2" d="M58.7,185.6c0.1-0.6,0.5-0.7,1-0.7c2.9,0,5.8,0,8.7,0c0.2,0,0.4,0.2,0.7,0.4C65.6,184.6,62.2,185.8,58.7,185.6z
	"/>
<path class="st2" d="M52.6,176.8c0.7,1.7,0.8,3.5,0.1,5.2C51.8,180.4,51.7,178.5,52.6,176.8z"/>
<path class="st1" d="M31.4,129.9c-0.3,1.5,0.8,3.2-0.7,4.5C30.6,132.8,30.3,131.3,31.4,129.9z"/>
<path class="st2" d="M29,115.2c1.8-0.2,1.8,0.9,1.6,2.1C29.8,116.9,29.2,116.1,29,115.2z"/>
<path class="st2" d="M53.9,173.2c-0.3,1,0.9,2.5-1.1,2.9C52.8,175,53.2,174,53.9,173.2z"/>
<path class="st2" d="M29,96.8c0,1.2-0.1,2.3-1.7,2.3C27.7,98.2,28.3,97.4,29,96.8z"/>
<path class="st2" d="M30.1,93.9c0.8,0.9,1.2,1.7-0.5,2.1L30.1,93.9z"/>
<path class="st2" d="M14.2,104c0.7,0.1,1.8-0.5,2,0.8C15.5,104.8,14.8,104.5,14.2,104z"/>
<path class="st2" d="M16.2,104.8c0.7,0,1.5-0.3,1.7,0.7C17.2,105.6,16.6,105.3,16.2,104.8z"/>
<path class="st2" d="M12.3,103.2c0.6,0,1.3-0.2,1.6,0.7C13.3,103.7,12.7,103.7,12.3,103.2z"/>
<path class="st2" d="M11.5,102.8c0.6-0.5,0.7,0,0.8,0.4C11.9,103.2,11.6,103,11.5,102.8z"/>
<path class="st2" d="M56.3,184.9L57,185c0,0.1-0.1,0.4-0.1,0.4C56.5,185.5,56.5,185,56.3,184.9z"/>
<path class="st2" d="M69.1,185.3c0.4,0,0.8-0.1,1.1,0.2C69.9,185.4,69.4,186,69.1,185.3z"/>
<path class="st2" d="M30.5,90.1c0.2,0.3,0.2,0.8-0.1,1.1C30.4,90.8,30.2,90.3,30.5,90.1z"/>
<path class="st2" d="M28.4,113.6l0.2,0.6L28.4,113.6z"/>
<path class="st2" d="M29.4,96.4l-0.3,0.4L29.4,96.4z"/>
<path class="st2" d="M28.2,112.8c0.1,0.1,0.2,0.2,0.1,0.3L28.2,112.8z"/>
<path class="st2" d="M27.2,110.3l0.2,0.4L27.2,110.3z"/>
<path class="st2" d="M57.5,185.3l0.4,0.3C57.6,185.6,57.5,185.5,57.5,185.3z"/>
<path class="st0" d="M31,87.8h-0.9l0.4-1l0.3-0.4c0.9-0.3,1.7-0.7,2.3-1.3l0.8-0.4c1-0.1,1.9-0.7,2.4-1.6l0,0
	c0.7,0.3-0.1,1.4,0.9,1.5C34.9,85.2,32.5,85.7,31,87.8z"/>
<path class="st2" d="M36.3,83.2c-0.5,0.9-1.4,1.5-2.4,1.6C34.1,83.7,35.1,83,36.3,83.2C36.3,83.2,36.3,83.2,36.3,83.2z"/>
<path class="st2" d="M33.1,85.2c-0.7,0.6-1.5,1-2.3,1.3C31.1,85.2,31.9,84.9,33.1,85.2z"/>
<path class="st5" d="M185.9,112.1c0.6,2.5,2.3,4.1,3.6,5.9c1.1,1.4,0.8,2.1-0.5,2.9c-1.8,1.1-3.7,2.3-5.4,3.5
	c-1.1,0.7-1.8,0.1-2.3-0.7c-2.7-4.6-5.4-9.2-8-13.9c-2-3.5-3.7-7.2-6-10.7c-1-1.4-0.6-2.4,0.9-3.2c1.5-0.7,3.1-1.5,4.5-2.4
	c1.4-0.9,2.3-0.7,3.3,0.9c1.5,2.5,3.2,4.9,4.9,7.5c0.8-1,1.3-2.3,1.3-3.6c-0.1-2.1,1.1-4,3-4.9c1.9-1,3.8-2.2,5.6-3.4
	c1-0.7,1.1-0.2,1.1,0.6c0,0.9-0.1,1.9-0.3,2.8c-0.8,2.7-0.4,5.6-1,8.3c-0.2,1,0.6,1.8,1.7,2.1c4.9,1.4,9.8,3.1,14.7,4.9
	c0.3,0.1,0.9,0.1,0.9,0.6c-0.1,0.4-0.4,0.7-0.8,0.9c-2.8,1.4-5.4,3-8,4.7c-1.3,0.6-2.7,0.6-4,0c-2.6-0.9-5.1-1.8-7.7-2.7
	C186.8,112.1,186.4,112,185.9,112.1z"/>
<path class="st5" d="M195.6,93.8c-0.4-5.7,3.2-11,8.6-12.8c3.2-0.9,6.6-0.5,9.5,1c3.1,1.4,4,4.5,5.9,6.9c0.7,0.9-0.4,1.4-1,1.8
	c-3.6,2.4-7.2,4.7-10.8,7.1c-0.8,0.5-2.2,0.8-1.9,2c0.4,1.3,1.4,2.2,2.7,2.5c3.6,1.1,5.3,0,6.5-3.5c0.4-1.2,1.7-1.6,2.7-2.1
	c1-0.5,2.3-2.1,3.3-1.3c1,0.7-0.1,2.3-0.3,3.5c-0.7,5.4-5.7,9.2-11.1,8.5c-1.1-0.1-2.1-0.5-3.1-0.9c-1.5-0.8-3.2-1.4-4.8-1.7
	c-3.2-0.4-4.4-2.7-5.1-5.5C196,97.4,195.7,95.6,195.6,93.8z M208.4,86.3c-2.8-0.2-5.3,1.9-5.5,4.7c-0.1,1,0.1,2,0.6,2.9
	c0.4,0.9,0.8,1.2,1.8,0.6c1.8-1.2,3.7-2.3,5.5-3.4c1.8-1.2,1.9-2.2,0.2-3.7C210.5,86.6,209.5,86.2,208.4,86.3z"/>
<path class="st5" d="M229.9,94.9c-1.2,0-2.5-0.4-3.4-1.2c-1.9-1.7-3.6-3.7-4.9-5.9c-0.9-1.5-1.9-3-3-4.4c-2.5-3.4-4.4-7.2-6.5-10.8
	c-0.6-1,0.1-1.5,0.7-1.8c1.6-0.8,3.1-1.8,4.5-2.9c1.6-1.1,2.7-0.7,3.5,0.9c1.3,2.1,2.2,2.2,4.2,0.7c2.2-1.8,2.9-1.7,4.7,0.8
	c1,1.3,1.8,2.8,2.7,4.2c0.6,1,0.8,1.9-0.7,2.5c-1,0.5-1.9,1.1-2.8,1.8c-0.7,0.5-1.1,1.1-0.5,2c0.3,0.6,0.5,1.2,0.8,1.8
	c1.4,2.7,3.6,3.3,6.3,1.8c0.2-0.1,0.4-0.3,0.7-0.5c2.7-1.8,3.2-1.7,4.5,1.2c0.4,0.8,1,1.5,1.6,2.2c0.6,0.7,0.7,1.2-0.2,1.7
	c-2.9,1.7-5.4,3.8-8.5,5.1C232.2,94.4,231,94.7,229.9,94.9z"/>
<path class="st0" d="M192.6,99.1c0-1.2-0.5-3.1,0.7-3.2s0.6,1.9,1.1,3c0.3,0.5,0.1,1.1,0.4,1.7c0.3,0.5,0.9,1.3,0.2,1.8
	s-1.1-0.1-1.7-0.3c-0.6-0.1-1-0.6-0.9-1.2c0-0.1,0-0.2,0.1-0.3C192.5,100,192.6,99.6,192.6,99.1z"/>
<path class="st0" d="M212.4,97.4c0.5,1,1.1,2.1,0,2.9c-1.1,0.8-2.5,0.5-3.8-0.3C209.7,98.9,211,98.1,212.4,97.4z"/>
<path class="st5" d="M60.3,159.2c0.2,2,0.4,3.7-2.2,4.6c-4,1.3-5,1.2-7-1.3c-0.1-0.1-0.2-0.2-0.3-0.3c-1.6-2.1-1.6-2.1-2.7,0.3
	c-0.4,0.7-1,1.2-1.9,1.4c-0.4,0.1-0.8,0.2-1.1-0.2c-0.3-0.4,0-0.8,0.2-1.1c2.4-3.8,1.5-7.8,0.7-11.8c-0.3-1.1-0.3-1.7,1.3-1.9
	c3-0.4,6-0.4,8.9-0.6c1.8,0.1,3.4-1,4.2-2.6c0.2-0.6,0.7-1,1.3-1c0.9-0.1,1.7,0,2.6,0.1c1.2,0.4,2.8,0.9,2.9,2.1s-1.6,1.3-2.6,1.8
	c-1,0.5-2.1,0.2-2,1.7c-0.2,0.4-0.7,0.8-0.6,1.2c0.3,1.5-0.8,3-2.3,3.2c-0.1,0-0.3,0-0.4,0c-0.8,0.1-0.8,0.7-0.5,1.3
	C59.3,157.3,59.8,158.3,60.3,159.2z"/>
<path class="st0" d="M56.3,171.7c-1.1-1.1,0.4-1,0.7-1.4l-1.8-1.1c1.2-1.3,2.9-1.2,4.3-1.6c0.7,0.5,1.8-0.7,2.4,0.5
	c-0.3,0.7-0.3,1.5-0.2,2.3l0,0c-0.7,1.6-2.3,1.1-3.5,1.3H56.3z"/>
<path class="st4" d="M59.5,167.6c-1.5,0.4-3.2,0.3-4.3,1.6c-1.5-2-1.2-3.2,1.1-3.6c1.4-0.4,2.8-0.8,4.1-1.3c0.9-0.3,1.1,0.3,1.2,1
	c0.2,0.6-0.1,1.2-0.6,1.5C60.5,167,60,167.3,59.5,167.6z"/>
<path class="st4" d="M79.1,178.7c-0.3,5.2-3,6.4-7.8,3.6C74.3,182,77,180.7,79.1,178.7z"/>
<path class="st4" d="M64.2,159.2c-0.1-1-0.2-2-0.4-2.9c-0.2-0.8,0.2-0.9,0.7-1.1c0.6-0.1,0.9,0,1.1,0.7c0.5,2,0.9,4,1.1,6
	c0,0.5,0.5,1.1-0.3,1.3s-1.6,0.3-1.8-0.9C64.7,161.4,64.6,160.3,64.2,159.2z"/>
<path class="st4" d="M63.9,163.2c-1,0.2-1.7,0.3-1.7-1.2c-0.2-1.6-0.7-3.2-1.5-4.7c-0.1-0.3-1-1,0.2-1.3c0.7-0.2,1.3-0.3,1.6,0.5
	c0.5,0.8,0.9,1.8,1.1,2.7C63.9,160.5,64,161.9,63.9,163.2z"/>
<path class="st4" d="M72.2,158.8c2,0.5,3.3,2.3,3.3,4.4c-0.1,0.5-0.1,1.1-0.6,1.2c-0.5,0.1-0.9-0.4-1.1-0.9
	c-0.3-0.8-0.4-1.7-0.7-2.5C72.8,160.2,72.5,159.6,72.2,158.8z"/>
<path class="st2" d="M58.3,171.7c1.3-0.2,2.8,0.3,3.5-1.3c0.1,0.7,0.3,1.4-0.7,1.7C60.2,172.4,59.1,172.9,58.3,171.7z"/>
<path class="st2" d="M63.9,163.2c0-1.3,0-2.7-0.3-4h0.6c0.4,1,0.5,2.1,0.5,3.2L63.9,163.2z"/>
<path class="st2" d="M61.8,170.3c-0.2-0.8-0.1-1.6,0.2-2.3C63,168.9,63.3,169.7,61.8,170.3z"/>
<path class="st0" d="M237.6,140.2c0-0.3,0-0.7,0-1c0.1-0.8-0.5-2,0.5-2.3c1.2-0.2,2.3,0.3,2.9,1.3c0.9,1.4,0.8,3.2-0.2,4.5
	c-0.6,0.8-1.7,1.2-2.7,1c-1-0.2-0.4-1.3-0.5-2.1C237.5,141.3,237.5,140.8,237.6,140.2z"/>
<path class="st1" d="M237.5,145.3c-2,0.7-2.7,0.2-2.7-1.5c0.1-2,0-3.9,0-6.1c1.4,0.4,2.2,1.9,1.8,3.3c-0.1,0.2-0.2,0.5-0.3,0.7
	C235.5,143.3,236,144.2,237.5,145.3z"/>
<path class="st1" d="M242.4,141.5c1.1,1.8,0,2.9-0.5,3.8c-0.5,0.9-1.8,0.3-2.7,0.1C240.8,144.6,241.9,143.2,242.4,141.5z"/>
<path class="st1" d="M240.3,136.2c2.3,0,2.7,0.6,2.3,2.9C242.1,138.1,241.3,137.1,240.3,136.2z"/>
<path class="st1" d="M242.7,160.2c0.6,1.3,0.2,2.4-0.9,2.8c-1.3,0.6-2.8,0.5-3.9-0.4c-0.2-0.2-0.6-0.4-0.3-0.8
	c0.2-0.2,0.6-0.3,0.9-0.1C240.6,163.2,241.4,161.4,242.7,160.2z"/>
<path class="st1" d="M239.7,156.8c1.2,0,2.4-0.1,3,1.2c0.1,0.2,0.1,0.5,0,0.7c-0.1,0.3-0.4,0.2-0.7,0.1
	C241.2,158.3,239.9,158.2,239.7,156.8L239.7,156.8z"/>
<path class="st3" d="M38.7,112.1c-2.3-5.7-0.8-11.2,1.2-16.6c1.5-3.9,4.6-5.8,8-7.3c2-0.7,3.9-1.6,5.6-2.8c1-0.8,2.3-1.1,3.6-0.9
	c0.4,0.6,1,0.3,1.6,0.4l0,0c0.4,0.6,1.3,0.6,1.7,1.3c-2.6,2.6-2.8,4-1.1,7.4c1.1,2.2,2.3,4.3,3.4,6.5c0.5,0.9,1,0.8,1.8,0.3
	c1.6-0.9,2.7-2.5,4.5-3.3c1.3-0.5,2.7-1.2,3.9-0.5c1.5,0.7,2.4,2.3,2.2,3.9c-0.3,3.5-1.2,6.9-2.4,10.2c-0.3,0.7-0.5,1.4-0.5,2.1l0,0
	c-1.4,2.8-4.5,2.8-6.9,4c-4.5,2.5-9.4,1.7-14.2,2.3c-0.6,0.2-1.2-0.1-1.5-0.6c-1-1.5-1.8-3.2-2.3-5c0.9-2.4,2.3-1.7,4.1-0.9
	c3.5,1.6,7.3,2.1,11.1,1.7c0.3,0,0.8,0,0.8-0.7c-0.5,0-0.9,0-1.4,0c-3.7,0.3-7.4-0.3-10.9-1.8c-1-0.4-2.1-1-1.1-2.5
	c-1.8,0.6-2.9,2.4-2.7,4.3c-1-0.8-0.8-2.3-1.8-3.2c-0.5-0.5-0.8-0.7-1.5-0.2c-0.6,0.5-1.7,1-2.4,1.6C41,112.8,39.6,112.9,38.7,112.1
	C38.7,112.1,38.7,112.1,38.7,112.1z M60.7,104l0.4-0.4l0.4-0.4l0.4-0.4c0.1-0.1,0.5,0.2,0.4-0.3l-0.4,0.3l-0.4,0.4l-0.4,0.4
	L60.7,104l-0.4,0.4c-1.3,0.2-2.6,1.2-4,1.1c1.4,0.8,3.2,0.3,4-1.1L60.7,104z M69.9,106.3l-0.4,0.8c-0.4,0.3-0.4,0.8-0.4,1.2
	c-0.3,0.2-0.4,0.5-0.4,0.8c-1.3,0.3-1.6,1.5-2.1,2.6c1-0.5,1.8-1.4,2.1-2.6l0.4-0.8c0.5-0.3,0.4-0.8,0.4-1.2
	C69.8,107,70,106.7,69.9,106.3l0.4-0.4c0.6-0.7,1.2-1.6,2.2,0c-0.4-2-2.3-3.3-4.3-2.9c-0.3,0.1-0.5,0.1-0.8,0.2
	c1.9,0,3.2,0.5,2.9,2.7L69.9,106.3z M53.4,103.5c0.8-0.9-0.3-1.6-0.3-2.4c0-4-2.2-6.9-5.3-9.2c-1-1-2.5-0.9-3.5,0
	c-0.3,0.3-0.5,0.6-0.6,1c-0.9,1.8-1.2,3.8-1,5.8c0.1,0.5,0.1,1.1,0.7,1.3c-0.1,1.9,0.3,3.7,1.1,5.4c0.5,1.1,1,1.6,1.9,0.5
	c1.1-1.7,3.2-2.4,5.1-1.7C52.1,104.4,53.2,104.8,53.4,103.5z"/>
<path class="st5" d="M134.6,70c0.7-0.1,0.8,0.3,1.1,0.7c3.2,5.1,6.5,10.3,9.8,15.4c0.2,0.3,0.3,0.5,0.5,0.8c0.6,1.7,1.6,2.1,3.2,1.1
	c1.3-0.8,2.7-1.3,4.1-2.1c1-0.6,1.6-0.2,2,0.7c0.7,1.3,1.3,2.8,2,4.1c0.5,0.7,0.4,1.6-0.3,2.1c-0.1,0.1-0.2,0.1-0.4,0.2
	c-4.2,2.7-8.4,5.2-12.6,7.9c-1.3,0.8-1.6,0-2.1-0.8c-2.3-3.9-4.7-7.8-7-11.7c-2.3-3.9-4.5-7.9-6.9-11.9c-0.6-1.1-0.7-1.8,0.3-2.5
	c1.9-1.3,4.3-2,5.8-4C134.3,70,134.5,70,134.6,70z"/>
<path class="st5" d="M100.4,127.3c-0.6-3.1-1-5.9-1.6-8.6c-0.1-0.7,0.3-0.9,0.5-1.3c0.4-1.1,1.1-2.5,0-3.3c-1.3-0.8-2.9-0.8-4.1,0.2
	c-0.6,0.4-1.3,0.9-1.9,1.4c-1.9,1.6-1.9,1.7-3.1-0.3c-2.3-3.9-4.5-7.9-6.9-11.8c-0.7-1.1-0.3-1.7,0.5-2.3c1.7-1.1,3.4-2.3,5.2-3.3
	c0.7-0.6,1.8-0.5,2.4,0.2c0.1,0.1,0.2,0.3,0.3,0.4c3.1,4.6,5.7,9.5,9.2,13.8c0.2,0.3,0.3,0.6,0.3,0.9c0.3,1.4,1.8,2.3,3.2,2
	c0.4-0.1,0.7-0.2,1-0.4c1.1-0.7,2.3-1.3,3.4-2c0.8-0.4,1.5-0.5,2,0.5c0.8,1.5,1.6,3,2.4,4.5c0.6,1.1,0.4,1.7-0.7,2.4
	C108.4,122.4,104.6,124.8,100.4,127.3z"/>
<path class="st5" d="M125.9,110.9c0,0.4-0.2,0.8-0.7,1c-2,1.3-4.1,2.5-6.1,3.8c-1.1,0.7-1.6-0.2-2-0.9c-2.7-4.5-5.3-9-7.9-13.5
	c-0.6-1.1-1.2-2.2-1.9-3.2c-1.4-1.8-0.3-2.7,0.9-3.6c1.2-0.9,2.9-1.7,4.1-2.7s1.9-0.5,2.5,0.5c1.9,3.2,3.8,6.4,5.6,9.6
	c1.6,2.8,3.4,5.5,4.9,8.3C125.6,110.5,125.8,110.7,125.9,110.9z"/>
<path class="st5" d="M50.7,129.6c0.7,0.5,1.6,0.3,2.2,1c-0.5,0.6-1.1,1-1.9,1.3c-1.6,0.8-1.5,1.3-0.1,2.5c2.4,2,4.1,4.3,3.8,7.7
	c-0.2,2.5-1.5,4.2-3.3,4.3c-1.1,0-1.6-0.3-1.5-1.5c0.3-2.1-0.3-4.2-1.6-5.9c-1-1.3-0.4-3.4-1.1-5.1c-0.8-2-1.6-2.7-3.7-2.3
	c-1.8,0.3-3.5,0.7-5.3,0.9c-1.3,0.1-2.4,0.7-3.4,1.5c-0.6,0.5-1.4,0.6-2.1,0.3c-0.7-0.4-0.4-1.2-0.4-1.8c-0.1-2.1,1.7-3.1,2.9-4.3
	c2.3-2.4,4.9-4.6,7.6-6.6c1.4-0.9,3.1-1.3,4.8-1.3c0.8,0,0.9,0.7,0.9,1.3c0.1,2.1,0.2,4.3,0.4,6.4c0,0.6-0.4,1.8,1.1,1.4L50.7,129.6
	z"/>
<path class="st0" d="M74.1,113.9c2.1-1.9,3.7-4.2,4.9-6.7c0.5-1,0.7-2.7,1.6-2.7c1.3-0.2,1.6,1.5,2.2,2.5c1.8,2.9,3.5,5.8,5.2,8.7
	c0.9,1.5,1.2,2.8-0.7,4c-1,0.7-1.7,1.7-2,2.8c-0.7,2-2.8,2.7-4.3,3.8c-0.6,0.5-0.9-0.1-1.2-0.6c-1.1-2.3-2.8-4.2-5-5.5
	c-1.3-0.8,0-2.2-0.9-3l-0.3-1.6c0,0,0.1-0.1,0.1-0.1c-0.1-0.1-0.1-0.2-0.2-0.3C73.5,114.6,73.9,114.3,74.1,113.9z"/>
<path class="st5" d="M73.6,124c0.9-0.2,0.7-1.2,1.4-1.6c1.7,1.2,2.9,2.9,3.6,4.8c0.6,1.3,1.2,2.1,2.6,0.9c0.9-0.9,1.2-0.2,1.3,0.6
	c0.2,2,1.5,3.7,3.4,4.5c1.6,0.7,1.6,1.6,0.3,2.9c-2.8,3-6.1,3.5-9.9,2.8c-2.5-0.5-3.1-1.7-2.3-4.1c0.5-1.8,0.9-3.7,1.3-5.6
	c0-0.4,0-0.9,0-1.3c0.1-1.1,0.5-2.3-1.2-2.5C73.6,125.3,73.5,124.7,73.6,124z"/>
<path class="st5" d="M122,86.3c-4.8,0.3-5.1,0.3-5.9-4.3c-0.7-3.6-2-7-2.2-10.7c-0.1-1.5,0.3-2,1.9-1.9c1.5,0.1,3.1,0.1,4.6-0.1
	c1.6-0.1,2.3,0.2,2.2,2C122.2,76.4,122.1,81.4,122,86.3L122,86.3z"/>
<path class="st4" d="M97.2,118.8c0.3,0.1,0.8,0.3,0.9,0.4c0.2,1.8,0.3,3.6,0.3,5.3c0,0.5-1.5,1.3,0.5,1.2c0.6,0,0.4,0.8,0,1.2
	c-1.5,1.7-3.3,3-5.3,4c-2.1,0.8-3.4-0.9-4.6-2.1c-1-1.2-1.7-2.7-2-4.3c-0.6-2,0.6-4.2,2.6-4.8c0.2,0,0.3-0.1,0.5-0.1
	c0.3,0,0.6,0,0.8-0.2c1.5-1.1,3.6-1.4,5.3-0.6v-0.1c-0.4,0.8,0.5,1.7,0,2.5c-1.6,0.4-3,1.3-5.2,1.1c1.3,1,2.8,1.7,4.4,1.8
	c-1-0.9-1.5-1.6,0-1.9c0.5-0.1,0.6-0.6,0.8-1.1c1.1-0.4,0.9-1.6,1.2-2.4L97.2,118.8z M96.8,126.2c0.2,0.3,0.7,0.4,1,0.2
	c0.1,0,0.1-0.1,0.2-0.2c0-0.1,0-0.2-0.1-0.3C97.5,125.7,97.2,126,96.8,126.2L96.8,126.2z"/>
<path class="st4" d="M64.5,139.5c-0.5,0.7-0.9,1.1-0.9,2c0.1,1.6-0.9,2.2-2.4,1.7c-0.5-0.2-0.6-0.4-0.4-0.9
	c1.5-4.9,0.4-9.6-0.5-14.4c-0.1-0.4-0.5-0.8-0.1-1.1c0.4-0.3,0.9-0.2,1.2,0.1c0,0,0,0.1,0.1,0.1c0.3,0.5,0.9,0.8,1,0.4
	c0.3-1.7,1.9-1.1,2.8-1.6c1.7-1,2.3-0.4,2.5,1.6c0.4,4.9-0.7,9.6-1.9,14.3c-0.1,0.6,0,1.6-1,1.3s-0.2-1-0.2-1.6
	C64.7,140.9,64.7,140.2,64.5,139.5z M64.9,133.9c-1.2,1.7-0.1,3.4-0.3,5.2c0.6-1.6,0.9-3.3,0.9-4.9v-4.3
	C64.6,131.5,65,132.7,64.9,133.9L64.9,133.9z"/>
<path class="st4" d="M44.1,146.4c-1.4-0.1-2.9,0.2-4.1,0.9c-1.4,0.9-3.1,0.6-4.2-0.6c-1.1-1.2-0.4-2.4,0.3-3.6
	c1.5-2.6,3.3-4.7,6.6-4.9c3-0.2,6.4,4.5,5.3,7.3c-0.1,0.5-0.7,0.9-1.2,0.8C45.9,146.4,45,146.4,44.1,146.4z"/>
<path class="st5" d="M73.4,128.6c-0.7,3.2-1.4,6.4-2.1,9.5c-0.4,1.7-0.8,3.4-1.2,5c-0.2,0.8-0.2,2-1.5,1.6c-1.3-0.4-2-1-1.6-2.5
	c0.5-1.7,0.9-3.5,1.3-5.2c0.7-2.8,0.9-5.7,0.7-8.5c0-1.5,0.2-2.3,1.9-1.5c0.4,0.1,0.8,0.2,1.2,0.2C73,127.2,73.6,127.5,73.4,128.6z"
	/>
<path class="st5" d="M56.3,130.9c2.8-1.1,2.7-1,3.3,2.2c0.7,3.6,0.4,7.3-0.8,10.7c-0.1,0.3-0.1,0.6-0.2,0.8
	c-0.5,0.6-0.8,1.8-1.9,1.4c-0.8-0.3-0.4-1.3-0.3-2c0.5-3.6,0.5-7-2.3-9.9c-0.4-0.5-0.4-1.2,0.1-1.7c0.1-0.1,0.2-0.1,0.3-0.2
	c0.5-0.3,1.1-0.4,1.5-1C56.1,131.2,56.3,131.1,56.3,130.9C56.3,130.9,56.3,130.9,56.3,130.9z"/>
<path class="st4" d="M61.1,87.6c1.5-0.1,2.5,0.8,3.5,1.6l2.2,3.4c-1.2,0.1-2.4-0.3-2.9,0.9c-0.4,1.1-0.2,2.4,0.5,3.4
	c0.2,0.3,0.3,0.6,0.5,0.9c0.3,0.7-0.3,1.1-0.8,1.3c-0.5,0.3-0.7-0.2-0.9-0.5c-1.4-2.1-2.6-4.3-3.5-6.7
	C58.9,90.4,59.5,88.4,61.1,87.6C61.1,87.6,61.1,87.6,61.1,87.6z"/>
<path class="st4" d="M74.3,112.4c-1-0.1-0.3-0.8-0.3-1.1c0.7-3.6,2.1-7,1.9-10.7c0-0.7,0.3-0.9,1-0.9c0.5,0,1.1,0,1.6-0.1
	c1.9-0.6,1.8,0.5,1.5,1.8c-0.8,4-2.6,7.7-5.3,10.8C74.4,112,74.3,112.1,74.3,112.4z"/>
<path class="st5" d="M39.2,134.3c0.5,0.1,1.1-0.1,1.3,0.6c0.2,0.7,0.2,1.5-0.5,1.7c-2.1,1-3.8,2.6-5,4.5c-0.4,0.5-0.9,1.1-1.6,0.4
	c-0.7-0.8-1.8-1.3-1.3-2.7C32.9,136.8,36.7,134.3,39.2,134.3z"/>
<path class="st4" d="M35,159.3c0.7,0.4,1.6,0.4,0.8,1.6c-2.7,4.3-5.3,8.6-8,12.9c-0.5,0.8-1.3,1.5-0.4,2.6c0.5,0.5,0,1.2-0.6,1.5
	c-0.9,0.5-1.3-0.5-2-0.9s-0.2-1,0.2-1.2c2.9-1.7,3.3-5,5-7.6c1.6-2.5,2.8-5.3,4.2-7.9C34.5,159.9,34.5,159.4,35,159.3z"/>
<path class="st1" d="M73.6,124c-0.2,0.7,0,1.3,0.7,1.4c1.7,0.3,1.3,1.5,1.2,2.5c-1.3-0.7-2.3-1.9-4-1.7c-1.1,0.1-0.1-1.1-0.4-1.6
	l0,0c0.8,0.2,1.3-0.2,1.3-1c-0.3-2.7,0.7-5.5-0.7-8.2c-0.5-1,1.4-1.6,0.7-2.7l0,0c0.9,0,1.6,0.1,1.8,1.2c-0.2,0.4-0.6,0.7-0.5,1.2
	l0.1,0.4l0.3,1.6c-1.3,1.1-0.8,2.6-0.8,3.9C73.3,122.1,73.4,123.1,73.6,124z"/>
<path class="st5" d="M85.2,126c0.2,0.2,0.6,0.3,0.7,0.6c0.7,2,2.3,3.2,3.8,4.6c0.3,0.3,0.5,0.6,0.3,1c-0.2,0.4-0.6,0.6-1,0.5
	c-2.5-0.6-4.4-2.8-4.7-5.3C84.3,126.8,84.4,126.2,85.2,126z"/>
<path class="st4" d="M46.3,138c-1-0.3-1.9-0.6-2.8-1c-0.5-0.3-1.9,0.4-1.6-1.1c0.2-1.2,0.3-2.7,1.8-3c1.1-0.2,2.1,0.5,2.3,1.6
	c0,0,0,0.1,0,0.1C46.3,135.7,46.3,136.9,46.3,138z"/>
<path class="st4" d="M58.8,119.7c1.3,1.3,1.3,3.4,3,3c1.7-0.4,0.7-2.1,0.9-3.7c0.8,1.5,1.3,3.2,1.3,4.9c0,1.1-0.9,2-2,2
	c-0.9,0-1.8-0.6-2-1.6C59.7,122.9,59.3,121.5,58.8,119.7z"/>
<path class="st4" d="M96,118.8c-0.5-1.3-1.9-0.9-2.9-1.5c1.3-1.2,2.3-2.7,4.3-2.8c0.4,0,0.9-0.4,1.2,0c0.3,0.4,0.3,1,0,1.5
	c-0.5,0.9-1.5,1.6-1.5,2.8l0,0C96.8,118.7,96.3,119.2,96,118.8L96,118.8z"/>
<path class="st4" d="M58.9,125.5c-1.4,0.3-2.9,0.7-4.4,1c-0.6,0.1-1.2,0.3-1.3-0.6c-0.2-0.6,0.2-1.2,0.8-1.4c0.1,0,0.1,0,0.2,0
	c0.6-0.2,1.3-0.4,1.9-0.6C57.7,123.1,58.8,123.3,58.9,125.5z"/>
<path class="st4" d="M67.3,117.2c0.9,0,1.6,0,1.5,1c0,1-1.8,2.2-3.3,2.3c-1.6,0.1-1.1-1.2-1.1-1.7C64.6,116.8,66.5,117.7,67.3,117.2
	z"/>
<path class="st4" d="M69.3,121c0.2,3,0.1,3.1-2.7,3.2c-0.4,0-1,0.4-1.1-0.3s-0.3-1.3,0.6-1.7C67.1,121.8,68.2,121.4,69.3,121z"/>
<path class="st4" d="M42,148.3l-2.3,5.7C38,152.2,38.9,149.9,42,148.3z"/>
<path class="st4" d="M55.1,120.3c0.8,0.3,2.3-0.6,2.4,0.9c0.1,1.1-1.5,0.9-2.3,1c-0.8,0.1-1.7,1.5-2.3-0.1
	C52,119.7,54,120.6,55.1,120.3z"/>
<path class="st1" d="M50.7,129.6h-0.8c-1.3-2.5-0.5-5.1-0.5-7.6c0.8,0.6,0.4,1.6,0.7,2.3c0.1,0.1,0.1,0.2,0,0.3
	c0,0.7-0.1,1.3-0.1,2.1c0,0.9,0.3,1.5,1.3,1.3h0.6c0.5,0.4,0.5,0.7-0.2,0.9S50.7,129,50.7,129.6z"/>
<path class="st5" d="M71.1,124.7c-0.7-2.6,0.5-5.1,0.1-7.7C71.6,119.6,72.6,122.2,71.1,124.7L71.1,124.7z"/>
<path class="st5" d="M50.1,124.5c0.1-0.1,0.1-0.2,0-0.3c0.6-1,0-2.1,0.6-3.5c1.2,2.6,0.4,5,1,7.2h-0.6
	C50.2,127,51.4,125.4,50.1,124.5z"/>
<path class="st1" d="M56.3,130.9c0,0.2-0.2,0.4-0.4,0.4c0,0,0,0,0,0c-0.6-0.2-1.1-0.4-1.6-0.7c-0.4-0.3-1.3-0.5-1.1-1.2
	c0.3-0.7,1-0.3,1.5-0.5l0.7,0.1C55.7,129.6,56.5,130,56.3,130.9z"/>
<path class="st5" d="M55.5,128.8l-0.7-0.1c0.2-1.3,1.3-0.6,2.1-0.9c0.6-0.3,1.3-0.1,1.8,0.4c0.1,0.2,0.1,0.4,0,0.5
	c-0.5,0.7-1.1,0-1.6,0S56,128.8,55.5,128.8z"/>
<path class="st1" d="M73.5,134.7c-0.5-1.2-0.5-2.5,0-3.7C74,132.1,74,133.5,73.5,134.7z"/>
<path class="st1" d="M37,156.1c0.6,0,0.9,0.2,0.9,0.7c0,0.5-0.3,0.8-0.9,0.8c-0.4-0.1-0.7-0.4-0.7-0.9
	C36.4,156.4,36.7,156.1,37,156.1L37,156.1z"/>
<path class="st1" d="M74.3,112.4c0-0.3,0.1-0.4,0.4-0.3L74.3,112.4z"/>
<path class="st2" d="M58.7,84.7c-0.5,0-1.2,0.2-1.6-0.4C57.8,83.8,58.3,83.7,58.7,84.7z"/>
<path class="st2" d="M47.6,82.3c0.3,0,0.6,0.1,0.5,0.5c0,0.1-0.3,0.2-0.5,0.2c-0.2,0-0.6,0-0.6-0.4S47.3,82.3,47.6,82.3z"/>
<path class="st2" d="M49.1,79.7c0.6,0.4,1.1,0.8,0.5,1.6C48.8,80.9,49.2,80.2,49.1,79.7L49.1,79.7z"/>
<path class="st2" d="M61.5,86.8l0.5,0.1C61.7,87.2,61.7,86.9,61.5,86.8L61.5,86.8z"/>
<path class="st2" d="M37.9,113.6c0,0.1-0.1,0.2-0.2,0.3c-0.2-0.2-0.2-0.3,0-0.5C37.9,113.3,37.8,113.6,37.9,113.6z"/>
<path class="st5" d="M168.4,131.7c-7.4-0.2-13.7-6.4-14-13c-0.3-5.3,2.4-10,6.9-13.2c2-1.5,3.1-1,4.2,1.1c0.7,1.4,1.6,2.8,2.4,4.1
	c0.7,1,0.5,1.6-0.5,2.3c-1,0.7-2.1,1.1-2.3,2.6c-0.5,3.7,1.8,5.8,5.5,4.6c2-0.7,2.7,0,3.5,1.5c0.9,1.5,1.6,3.2,2.6,4.7
	c1.3,2-0.1,2.6-1.2,3.4C173.4,130.9,170.9,131.6,168.4,131.7z"/>
<path class="st5" d="M119.3,161.3c-7.5,0.1-13.6-6-13.7-13.5c0-0.7,0-1.4,0.1-2c0.6-3.8,2.6-7.2,5.6-9.5c3.6-3,3.6-3,6.1,0.9
	c0.2,0.3,0.4,0.5,0.6,0.8c1.7,2.7,1.7,2.7-0.7,4.9c-1.7,1.4-2,3.9-0.7,5.7c1.2,1.5,3.3,1.8,5.3,0.5c0.7-0.6,1.8-0.6,2.4,0.1
	c0.2,0.2,0.3,0.4,0.4,0.6c1.1,1.8,2.2,3.6,3.3,5.4c0.6,0.8,0.5,1.9-0.2,2.5c-0.1,0.1-0.2,0.1-0.2,0.2
	C125.3,159.8,122.3,161,119.3,161.3z"/>
<path class="st5" d="M133.7,153.7c-0.5,0.1-0.6-0.6-0.8-1c-2.2-3.7-4.4-7.5-6.4-11.4c-1.3-2.5-2.7-4.8-4.3-7.1
	c-1-1.5-0.9-2.6,0.8-3.5c0.9-0.5,1.8-1,2.7-1.7c1.3-1.1,2.4-1.6,3.7,0c0.7,0.8,1.2,0.4,1.4-0.6c0.2-1.6,0.9-3.1,2.2-4.1
	c0.9-0.7,1.3-0.6,2,0.1c1,1.3,1.8,2.8,2.4,4.4c0.3,0.7-0.1,1.3-0.7,1.9c-2.9,2.8-2.9,4.4-1.3,7.9c1.6,3.5,3.8,6.3,5.7,9.4
	c0.3,0.5,0.7,0.9,0,1.3c-2.2,1.4-4.5,2.8-6.7,4.2C134.1,153.6,133.9,153.7,133.7,153.7z"/>
<path class="st5" d="M159.1,138.3c0,0.5-0.1,0.7-0.4,0.8c-2.3,0.7-4,2.3-6,3.4c-1.3,0.8-2,0.6-2.7-0.6c-2.4-4.3-4.8-8.5-7.2-12.8
	c-1.3-2.4-2.5-4.8-4-7.1c-0.7-1.1-0.6-1.6,0.4-2.3c1.6-1,3.1-2,4.7-2.9c0.8-0.5,1.5-0.5,2.2,0.7c3.6,5.7,6.9,11.6,10.7,17.3
	C157.7,136,158.5,137.2,159.1,138.3z"/>
<path class="st0" d="M210.5,157.2c0.1,1.9-1.3,3.5-3.2,3.7c0,0-0.1,0-0.1,0c-1.8-0.1-3.2-1.7-3.1-3.5c0.1-1.7,1.4-3.1,3.1-3.3
	C208.9,154.1,210.3,155.4,210.5,157.2z"/>
<path class="st1" d="M210.2,163.4c-0.7-0.1-1.4-0.1-2.1-0.1c-2.3,0.4-4.6-1-5.2-3.2l0,0c0.4,0,1.1,0,1.1,0.2
	c0.9,2.2,2.7,1.4,4.2,1.3C209.7,161.5,210.2,162,210.2,163.4L210.2,163.4z"/>
<path class="st1" d="M211.6,157.6c0.4-0.6-0.6-2,0.7-2c0.8,0,1.1,1.1,1.1,2.1c0,0.9-0.3,2.1-1.1,2S211.9,158.3,211.6,157.6z"/>
<path class="st1" d="M204.8,152.4c1.6-0.5,3.4-0.5,5,0C208.2,152.9,206.4,152.9,204.8,152.4z"/>
<path class="st1" d="M202.9,160.1c-1.6-1.3-0.5-3-0.5-4.5C203.2,157,202.7,158.5,202.9,160.1L202.9,160.1z"/>
<path class="st0" d="M219.2,155c0.3-0.4-0.4-1.3,0.7-1.2c0.9,0.1,1.5,0.4,1.5,1.5c0,0.7-0.6,1.3-1.3,1.3c0,0-0.1,0-0.1,0
	C218.7,156.6,219.5,155.5,219.2,155z"/>
<path class="st1" d="M222.9,152.8h-6.4C218.2,151.6,221.9,151.8,222.9,152.8L222.9,152.8z"/>
<path class="st1" d="M222.9,152.8c1.4,0.6,0.7,1.8,0.7,2.7c0,0.3-0.4,0.3-0.6,0.1c-0.2-0.2-0.9-0.7-0.8-1.3
	C222.3,153.8,222.6,153.3,222.9,152.8L222.9,152.8z"/>
<path class="st1" d="M217.9,155.9c0.2,1.2,0.6,2-0.3,2.4c-0.3,0.2-0.7,0-0.8-0.3c0,0,0,0,0,0C216.2,157,217.1,156.7,217.9,155.9z"/>
<path class="st0" d="M227.6,143.9c-3.3,0.3-5.5-1.8-4.6-4.5c0.3-1.3,1.4-2.2,2.7-2.4c1.3-0.2,2.5,0.5,3.1,1.6c0.7,1.1,0.7,2.6,0,3.7
	C228.5,142.9,227.7,143.1,227.6,143.9L227.6,143.9z"/>
<path class="st1" d="M227.6,143.8c2,0.7,2.1-1.2,2.4-2.1c0.7-1.5,0.2-3.2-1.1-4.1c-0.2-0.2-0.4-0.4-0.6-0.6
	c-0.4-0.4-0.8-0.9-0.5-1.3c0.4-0.5,1,0,1.3,0.3c1.5,1.3,2.3,3.1,2.4,5c-0.1,1.8-1.1,3.5-2.7,4.4c-0.5,0.4-1.2,0.4-1.7,0
	c-0.6-0.5,0.6-1,0.2-1.6L227.6,143.8z"/>
<path class="st1" d="M224,135.2c-1.4,2.5-1.8,5-2.9,7.6C219.9,139.4,220.7,137,224,135.2z"/>
<path class="st1" d="M224.5,144.8c-0.1,0.6-0.4,0.8-0.8,0.7c-0.8-0.1-1.4-0.8-1.5-1.6c0-0.3,0.3-0.7,0.6-0.4
	C223.2,144.1,224.5,143.7,224.5,144.8z"/>
<path class="st0" d="M211.4,144c-2-0.3-3.3-2.1-3.1-4c0.2-1.6,1.5-2.8,3.1-3.1c2,0.1,3.5,1.8,3.3,3.8
	C214.6,142.5,213.2,143.9,211.4,144z"/>
<path class="st1" d="M214.1,144.8c-1.3,2-3.1,2.2-5.5,0.5c-2.1-1.5-3.1-4.1-2.5-6.7c0.4-1.9,2.1-2.9,3.8-3.7c0.8-0.4,1.2,0,1.4,0.5
	c0.3,0.8-0.5,0.5-0.9,0.6c-1.6,0.4-3.6,2.7-3.5,4.1c0,2.5,2,4.6,4.5,4.7L214.1,144.8L214.1,144.8z"/>
<path class="st1" d="M214.1,144.8c0.1-0.8,0.8-1.2,1.3-1.7c0.8-0.8,1.5-1.5,0.5-2.7c-0.3-0.5-0.3-1.2,0-1.7c0.2-0.3,0.6-0.4,0.9-0.2
	c0.7,0.3,0.4,1,0.5,1.6c0.5,1.7-0.7,3.1-0.8,4.8L214.1,144.8L214.1,144.8z"/>
<path class="st1" d="M215.5,137.8c-0.5-1.2-2.2-0.5-2.1-2c0-0.3,0.3-0.6,0.7-0.6c0.1,0,0.2,0,0.2,0.1
	C215.2,135.7,215.8,136.2,215.5,137.8z"/>
<path class="st1" d="M185,163.2h-1c-0.6,0-1.1-0.1-1.1-0.9c0.1-0.7,0.7-0.6,1.2-0.7c0.7-0.2,1.1,0.7,1.8,0.5c1.3-0.3,2-1.5,1.8-2.8
	c0-0.1-0.1-0.3-0.1-0.4c-0.1-0.4-1-0.9,0-1.2c0.7-0.1,1.3,0.3,1.4,0.9c0,0,0,0.1,0,0.1c0.3,2.1-1.1,4.1-3.2,4.4
	C185.5,163.2,185.3,163.3,185,163.2z"/>
<path class="st1" d="M185.6,157.7c-1.1-0.5-2.6-0.3-2.7-2.1c0-0.3,0-0.5,0.2-0.7c0.3-0.3,0.6,0,0.8,0.3l2.2,1.9L185.6,157.7z"/>
<path class="st1" d="M195.6,153.9c-0.6,1.9,1.7,3.5,0.2,5.6c-0.4,0.8-0.2,1.8,0.4,2.4c0.3,0.3,0.3,0.7,0.1,1
	c-0.1,0.1-0.2,0.2-0.4,0.2c-0.5,0.2-1-0.1-1-0.7c0-2.9,0-5.7,0-8.6L195.6,153.9z"/>
<path class="st2" d="M208.4,86.3c1-0.1,2,0.3,2.7,1c1.7,1.4,1.6,2.5-0.2,3.7c-1.8,1.2-3.7,2.2-5.5,3.4c-1,0.7-1.3,0.3-1.8-0.6
	c-1.4-2.5-0.5-5.6,2-6.9C206.4,86.5,207.4,86.3,208.4,86.3z M210,89.3c-1.4-1.1-3.5-0.9-4.6,0.6c-0.2,0.2-0.3,0.4-0.4,0.6
	c-0.2,0.5-0.3,1.2,0.1,1.5c0.4,0.3,1-0.1,1.3-0.5C207.3,90.4,208.6,89.7,210,89.3L210,89.3z"/>
<path class="st1" d="M53.4,103.5c-0.3,1.3-1.3,0.9-1.9,0.7c-1.9-0.7-4,0-5.1,1.7c-1,1.1-1.4,0.6-1.9-0.5c-0.8-1.7-1.1-3.5-1.1-5.4
	l0.1-0.5c2.9-2.5,4.2-2.3,4.9,1.6c0.4,2.2,1.8,2,3.2,2.2c0.4,0.4,0.8,0.4,1.1-0.1v-0.1L53.4,103.5z"/>
<path class="st2" d="M53.4,103.5l-0.7-0.4c-0.6-3.9-1.8-7.5-5-10c-1.5-1.2-2.4-1.1-3.3,0.6c-0.8,1.8-1.1,3.8-0.9,5.8l-0.1,0.5
	c-0.6-0.3-0.6-0.8-0.7-1.3c-0.2-2,0.1-4,1-5.8c0.4-1.3,1.8-2,3.1-1.6c0.4,0.1,0.7,0.3,1,0.6c3.1,2.3,5.3,5.2,5.3,9.2
	C53.1,102,54.2,102.6,53.4,103.5z"/>
<path class="st2" d="M47.5,113.6c-0.2-1.9,0.9-3.6,2.7-4.3c-1,1.6,0,2.1,1.1,2.5c3.4,1.5,7.1,2.1,10.9,1.8c0.5,0,0.9,0,1.4,0
	c0,0.6-0.5,0.6-0.8,0.7c-3.8,0.5-7.6-0.1-11-1.6C49.9,111.9,48.5,111.2,47.5,113.6L47.5,113.6z"/>
<path class="st2" d="M70.3,106c0.3-2.1-1-2.7-2.9-2.7c1.9-0.8,4,0,4.8,1.9c0.1,0.3,0.2,0.5,0.2,0.8C71.6,104.5,71,105.4,70.3,106
	L70.3,106z"/>
<path class="st2" d="M60.3,104.4c-0.8,1.4-2.6,1.9-4,1.1C57.8,105.5,59,104.6,60.3,104.4L60.3,104.4z"/>
<path class="st2" d="M68.7,109.2c-0.3,1.1-1.1,2.1-2.1,2.6C67.1,110.7,67.4,109.5,68.7,109.2L68.7,109.2z"/>
<path class="st2" d="M69.1,108.4c0-0.4,0-0.9,0.4-1.2l0,0C69.5,107.6,69.5,108.1,69.1,108.4z"/>
<path class="st2" d="M68.7,109.2c0-0.3,0.1-0.7,0.4-0.8l0,0L68.7,109.2L68.7,109.2z"/>
<path class="st2" d="M69.9,106.3c0,0.3-0.1,0.6-0.4,0.8l0,0L69.9,106.3z"/>
<path class="st2" d="M61.9,102.8l0.4-0.3C62.4,102.9,62,102.7,61.9,102.8L61.9,102.8z"/>
<path class="st2" d="M69.9,106.3l0.4-0.4l0,0L69.9,106.3z"/>
<path class="st2" d="M61.5,103.2l0.4-0.4l0,0L61.5,103.2z"/>
<path class="st2" d="M61.1,103.6l-0.4,0.4l0,0L61.1,103.6z"/>
<path class="st2" d="M61.5,103.2l-0.4,0.4l0,0L61.5,103.2z"/>
<path class="st2" d="M60.7,104l-0.4,0.4l0,0L60.7,104z"/>
<path class="st2" d="M73.7,115.5l-0.1-0.4c0.1,0.1,0.1,0.2,0.2,0.3C73.8,115.4,73.7,115.5,73.7,115.5z"/>
<path class="st2" d="M95.9,121.2c-0.1,0.5-0.3,1-0.8,1.1c-1.5,0.3-1,1,0,1.9c-1.6-0.2-3.1-0.8-4.4-1.8
	C92.9,122.6,94.4,121.7,95.9,121.2L95.9,121.2z"/>
<path class="st2" d="M96,118.8c0.4,0.4,0.8-0.1,1.2,0c-0.4,0.8-0.1,2-1.2,2.4l0,0C96.4,120.4,95.6,119.6,96,118.8z"/>
<path class="st2" d="M96.8,126.2c0.3-0.2,0.7-0.5,1.1-0.3c0.1,0.1,0.1,0.2,0.1,0.3c-0.2,0.3-0.7,0.4-1,0.2
	C96.9,126.3,96.9,126.2,96.8,126.2z"/>
<path class="st2" d="M65.4,134.1c0,1.7-0.3,3.4-0.9,4.9c0.2-1.7-0.9-3.5,0.3-5.2L65.4,134.1z"/>
<path class="st3" d="M65.4,134.1l-0.5-0.2c0.2-1.2-0.3-2.4,0.5-4.1V134.1z"/>
<path class="st2" d="M50.1,124.5c1.3,0.8,0.1,2.5,1.2,3.4c-1.1,0.2-1.3-0.4-1.3-1.3C49.9,125.9,50,125.3,50.1,124.5z"/>
<path class="st0" d="M210,89.3c-1.4,0.4-2.6,1.2-3.6,2.3c-0.3,0.4-0.9,0.9-1.3,0.5s-0.3-1-0.1-1.5c0.8-1.7,2.7-2.4,4.4-1.6
	C209.6,89,209.8,89.2,210,89.3z"/>
<path class="st4" d="M43.5,99.5c-0.3-2,0.1-4,0.9-5.8c0.9-1.7,1.7-1.8,3.3-0.6c3.2,2.5,4.4,6.2,5,10v0.1l-1.1,0.1
	c-1.4-0.2-2.8,0-3.2-2.2C47.7,97.3,46.5,97,43.5,99.5z"/>
<path class="st2" d="M51.5,103.3l1.1-0.1C52.3,103.8,51.9,103.7,51.5,103.3z"/>
</svg>
