<?xml version="1.0" encoding="utf-8"?>
<!-- Generator: Adobe Illustrator 21.1.0, SVG Export Plug-In . SVG Version: 6.00 Build 0)  -->
<svg version="1.1" id="Layer_1" xmlns="http://www.w3.org/2000/svg" xmlns:xlink="http://www.w3.org/1999/xlink" x="0px" y="0px"
	 viewBox="0 0 250 250" style="enable-background:new 0 0 250 250;" xml:space="preserve">
<style type="text/css">
	.st0{fill:#FF0000;}
	.st1{fill:#F9E8A0;}
	.st2{fill:#414042;}
</style>
<title>iShop</title>
<circle class="st0" cx="92.2" cy="192.3" r="15.9"/>
<circle class="st0" cx="177.4" cy="192.3" r="15.9"/>
<path class="st1" d="M164.3,134.2c5.6,0,12.2-2.8,14-8.4l29.9-56.2c1.9-2.5,1.9-5.9,0-8.4c-1.4-2.3-3.9-3.7-6.6-3.7H76.3l-6.6-15.9
	H41.7v16.8h16.8L89.4,123l-12.2,20.6c-0.9,2.8-0.9,5.6-1.9,7.5c0,9.3,7.4,16.8,16.7,16.8c0,0,0.1,0,0.1,0h102v-16.8H96
	c-1-0.1-1.8-0.9-1.9-1.9v-0.9l7.5-14L164.3,134.2z"/>
<path class="st2" d="M177.4,173.6c-10.8,0.1-19.6,8.8-19.6,19.6c0,10.9,8.8,19.6,19.7,19.6c10.9,0,19.6-8.8,19.6-19.6l0,0
	C197,182.4,188.2,173.6,177.4,173.6z M191.4,193.2c0,8.3-6.7,15-15,15s-15-6.7-15-15s6.7-15,15-15c8.2-0.1,14.9,6.4,15,14.6
	C191.4,192.9,191.4,193.1,191.4,193.2z"/>
<path class="st2" d="M210.1,60.3c-1.8-2.9-5-4.7-8.4-4.7H78.2l-6.5-15.9c-0.9-0.9-1.9-1.9-2.8-1.9H40.8c-0.9,0-1.9,0.9-1.9,2.8v16.8
	c0.1,1.5,1.3,2.7,2.8,2.8h15l29,61.8l-11.3,19.7c-1.1,3-1.7,6.2-1.9,9.4c0.1,10.8,8.8,19.6,19.7,19.6h102c1-0.1,1.8-0.9,1.9-1.9V152
	c-0.1-1.5-1.3-2.7-2.8-2.8H96l6.5-12.2h61.8c6.6,0,13.1-3.7,15.9-9.4l29.9-56.2C212.1,66.8,212.1,63.1,210.1,60.3z M206.4,67.8
	L176.5,124c-1.9,4.7-7.5,7.5-12.2,7.5h-62.7c-0.7,0.1-1.4,0.4-1.9,0.9l-7.5,14v1.9c0.1,2,1.7,3.6,3.8,3.8h96.4v12.2H92.2
	c-8.2,0.1-14.9-6.4-15-14.6c0-0.1,0-0.3,0-0.4c0-2.8,0.9-4.7,0.9-7.5l12.2-20.6v-1.9L60.4,56.6c0-0.9-0.9-0.9-1.9-0.9h-15V43.5h24.4
	l6.6,15.9c0.1,1,0.9,1.8,1.9,1.9h125.4C203.6,61.2,210,61.3,206.4,67.8L206.4,67.8z"/>
<path class="st2" d="M92.2,173.6c-10.8,0.1-19.6,8.8-19.7,19.6c-0.3,10.6,8.1,19.4,18.7,19.6c0.3,0,0.6,0,0.9,0
	c10.8-0.1,19.6-8.8,19.7-19.6l0,0c0.3-10.6-8.1-19.4-18.7-19.6C92.9,173.5,92.5,173.5,92.2,173.6z M107.2,193.2
	c0.5,8.3-5.8,15.4-14.1,15.8s-15.4-5.8-15.8-14.1c0-0.6,0-1.2,0-1.7c0-8.4,7.5-15,15-15c8.2-0.1,14.9,6.4,15,14.6
	C107.3,192.9,107.3,193.1,107.2,193.2L107.2,193.2z"/>
<path class="st2" d="M161.5,78.1H89.4c-1.5,0.1-2.9-1.1-3-2.6s1.1-2.9,2.6-3c0.1,0,0.2,0,0.3,0h73c1.5,0.1,2.7,1.3,2.8,2.8
	C164.3,77.2,163.4,78.1,161.5,78.1L161.5,78.1z M148.4,94.9h-59c-1.9,0-2.8-0.9-2.8-1.9c0.1-1.5,1.3-2.7,2.8-2.8h59.9
	c1.5,0.1,2.7,1.3,2.8,2.8C151.2,94.2,149.8,94.9,148.4,94.9L148.4,94.9z M134.4,111.8h-45c-1.5-0.1-2.7-1.4-2.6-3
	c0.1-1.4,1.2-2.6,2.6-2.6h45.9c1.5,0.1,2.7,1.3,2.8,2.8C137.2,110.8,136.2,111.8,134.4,111.8L134.4,111.8z"/>
<path class="st2" d="M177.4,173.6c-10.8,0.1-19.6,8.8-19.6,19.6c0,10.9,8.8,19.6,19.7,19.6c10.9,0,19.6-8.8,19.6-19.6l0,0
	C197,182.4,188.2,173.6,177.4,173.6z M191.4,193.2c0,8.3-6.7,15-15,15s-15-6.7-15-15s6.7-15,15-15c8.2-0.1,14.9,6.4,15,14.6
	C191.4,192.9,191.4,193.1,191.4,193.2z"/>
<path class="st2" d="M210.1,60.3c-1.8-2.9-5-4.7-8.4-4.7H78.2l-6.5-15.9c-0.9-0.9-1.9-1.9-2.8-1.9H40.8c-0.9,0-1.9,0.9-1.9,2.8v16.8
	c0.1,1.5,1.3,2.7,2.8,2.8h15l29,61.8l-11.3,19.7c-1.1,3-1.7,6.2-1.9,9.4c0.1,10.8,8.8,19.6,19.7,19.6h102c1-0.1,1.8-0.9,1.9-1.9V152
	c-0.1-1.5-1.3-2.7-2.8-2.8H96l6.5-12.2h61.8c6.6,0,13.1-3.7,15.9-9.4l29.9-56.2C212.1,66.8,212.1,63.1,210.1,60.3z M206.4,67.8
	L176.5,124c-1.9,4.7-7.5,7.5-12.2,7.5h-62.7c-0.7,0.1-1.4,0.4-1.9,0.9l-7.5,14v1.9c0.1,2,1.7,3.6,3.8,3.8h96.4v12.2H92.2
	c-8.2,0.1-14.9-6.4-15-14.6c0-0.1,0-0.3,0-0.4c0-2.8,0.9-4.7,0.9-7.5l12.2-20.6v-1.9L60.4,56.6c0-0.9-0.9-0.9-1.9-0.9h-15V43.5h24.4
	l6.6,15.9c0.1,1,0.9,1.8,1.9,1.9h125.4C205.6,61.2,209.7,62.6,206.4,67.8L206.4,67.8z"/>
<path class="st2" d="M92.2,173.6c-10.8,0.1-19.6,8.8-19.7,19.6c-0.3,10.6,8.1,19.4,18.7,19.6c0.3,0,0.6,0,0.9,0
	c10.8-0.1,19.6-8.8,19.7-19.6l0,0c0.3-10.6-8.1-19.4-18.7-19.6C92.9,173.5,92.5,173.5,92.2,173.6z M107.2,193.2
	c0.5,8.3-5.8,15.4-14.1,15.8s-15.4-5.8-15.8-14.1c0-0.6,0-1.2,0-1.7c0-8.4,7.5-15,15-15c8.2-0.1,14.9,6.4,15,14.6
	C107.3,192.9,107.3,193.1,107.2,193.2L107.2,193.2z"/>
<path class="st2" d="M161.5,78.1H89.4c-1.5,0.1-2.9-1.1-3-2.6s1.1-2.9,2.6-3c0.1,0,0.2,0,0.3,0h73c1.5,0.1,2.7,1.3,2.8,2.8
	C164.3,77.2,163.4,78.1,161.5,78.1L161.5,78.1z M148.4,94.9h-59c-1.9,0-2.8-0.9-2.8-1.9c0.1-1.5,1.3-2.7,2.8-2.8h59.9
	c1.5,0.1,2.7,1.3,2.8,2.8C151.2,94.2,149.8,94.9,148.4,94.9L148.4,94.9z M134.4,111.8h-45c-1.5-0.1-2.7-1.4-2.6-3
	c0.1-1.4,1.2-2.6,2.6-2.6h45.9c1.5,0.1,2.7,1.3,2.8,2.8C137.2,110.8,136.2,111.8,134.4,111.8L134.4,111.8z"/>
</svg>
