<?xml version="1.0" encoding="utf-8"?>
<!-- Generator: Adobe Illustrator 21.1.0, SVG Export Plug-In . SVG Version: 6.00 Build 0)  -->
<svg version="1.1" id="Layer_1" xmlns="http://www.w3.org/2000/svg" xmlns:xlink="http://www.w3.org/1999/xlink" x="0px" y="0px"
	 viewBox="0 0 250 250" style="enable-background:new 0 0 250 250;" xml:space="preserve">
<style type="text/css">
	.st0{fill:#010101;}
	.st1{fill:#090503;}
	.st2{fill:#FE0005;}
	.st3{fill:#FCE400;}
	.st4{fill:#FC7A00;}
	.st5{fill:#FFFFFF;}
</style>
<title>CR</title>
<path class="st0" d="M116.6,136.7c-0.1,0.7-0.3,1.3-0.4,2c-0.5,2.4-1.9,2.9-4,2.7c-1.2-0.1-2.3-0.7-3.1-1.6c-1-1.1-2.5-1.6-4-1.5
	c-6.7,0.1-13.3,0-20,0c-2.1,0-2.5-0.3-2.5-2.5c0-0.5,0-1,0-1.5c0-0.6,0.2-1.3,0.7-1.7c0.6-0.5,1.2-0.9,1.8-1.2
	c0.5-0.3,0.9-0.6,1.3-0.9c0.5-0.3,0.7-0.8,0.7-1.3c0-8.6,0-17.1,0-25.7c0.1-1.1-0.4-2.1-1.3-2.7c-0.5-0.4-1-0.7-1.5-1.1
	c-0.5-0.3-0.8-0.9-0.7-1.5c0-0.7,0-1.4,0-2.1c0.2-1.5,1.5-2.6,3-2.5c0.7,0,1.4,0,2.1,0h10.8c0.6,0,1.3,0.1,1.9,0.2
	c1.2,0.3,2,1.4,2,2.7c0,0.6,0,1.2,0,1.8c0,0.5-0.2,1-0.7,1.3c-0.5,0.4-1.1,0.8-1.6,1.2c-0.9,0.6-1.4,1.6-1.3,2.6c0,8,0,16.1,0,24.1
	c0,0.5,0.1,0.6,0.6,0.6c3.2,0,6.3,0,9.5-0.1c0.4,0,0.5-0.1,0.4-0.5c-0.9-3.6-0.8-7.4,0.3-10.9c1.5-4.8,5.3-8.6,10.2-9.9
	c4.9-1.5,10.1-1.4,14.9,0.2c5.3,1.7,9.2,6.2,10.1,11.6c0.7,3.4,0.5,6.9-0.6,10.3c-1.2,4.2-4.3,7.6-8.3,9.3c-5.7,2.3-12.1,2.3-17.8,0
	C118.3,137.7,117.5,137.2,116.6,136.7z M121.3,120.5c0,2.9,0.9,5.7,2.5,8.1c1.4,2.2,4,3.4,6.6,3.1c2.2-0.1,4-1.6,4.4-3.7
	c0.9-4.1-0.1-8.3-2.7-11.5c-1.3-1.8-3.5-2.7-5.7-2.5c-2.4,0-4.4,1.7-4.8,4C121.4,118.8,121.3,119.6,121.3,120.5z"/>
<path class="st0" d="M199,125.9c-2.5,0-4.9,0-7.4,0c-0.5,0-0.5,0.2-0.4,0.5c0.1,0.3,0.3,0.7,0.5,0.9c1.9,2.6,5.1,4.1,8.3,3.7
	c2.1-0.3,4.2-0.9,6-1.9l1.4-0.7c0.8-0.4,1.7-0.3,2.3,0.3c1.2,1.1,2.1,2.6,2.4,4.2c0.1,0.6-0.1,1.2-0.6,1.7c-0.8,0.9-1.8,1.7-2.9,2.2
	c-3.8,2.1-8.1,3.1-12.5,2.8c-2.5-0.1-5-0.6-7.3-1.6c-4.3-1.7-7.5-5.3-8.7-9.8c-1.3-4.3-1.1-8.8,0.5-12.9c1.8-5,6.2-8.6,11.4-9.5
	c3.6-0.9,7.3-0.8,10.9,0.2c4.7,1.4,8.3,5.3,9.3,10.1c0.4,1.9,0.3,3.8-0.5,5.5c-1.1,2.5-3.5,4.1-6.3,4.2L199,125.9z M194.8,118.3
	L194.8,118.3c1.2,0,2.5,0,3.7,0c1.4,0,2.7-0.2,4-0.7c1-0.3,1.5-1.4,1.1-2.3c0-0.1,0-0.1-0.1-0.2c-0.2-0.5-0.5-0.9-0.8-1.2
	c-1.1-1-2.5-1.6-4-1.6c-3.6,0-6.9,2.2-8.2,5.6c-0.1,0.4-0.1,0.5,0.3,0.5C192.2,118.3,193.5,118.3,194.8,118.3L194.8,118.3z"/>
<path class="st0" d="M227.5,140.3c-3.7,0-7.5-0.7-11-2c-0.9-0.3-1.6-0.8-2.3-1.4c-0.8-0.7-1.1-1.7-1-2.7c0.2-1.5,0.5-2.9,0.9-4.3
	c0.1-0.5,0.3-1,0.5-1.4c0.3-0.7,1.1-1.1,1.8-1c1.1-0.1,2.2,0.5,2.9,1.4c1,1.5,2.5,2.7,4.3,3.3c1.7,0.6,3.5,0.7,5.3,0.5
	c0.6-0.1,1.1-0.3,1.6-0.7c0.9-0.6,1.1-1.8,0.5-2.7c-0.2-0.2-0.4-0.4-0.6-0.6c-0.9-0.6-1.9-1-3-1.3c-2.3-0.8-4.7-1.3-6.9-2.3
	c-1.1-0.5-2.2-1.1-3.2-1.8c-3-2.2-4.2-6.1-2.9-9.6c1-3.1,3.4-5.6,6.5-6.7c5.1-1.7,10.7-1.7,15.8,0c1,0.3,1.9,0.9,2.7,1.6
	c0.7,0.7,1,1.7,0.8,2.7c-0.4,1.6-0.6,3.3-1,4.9c-0.3,1.1-0.6,1.3-1.7,1.3h-1.8c-0.9,0-1.8-0.4-2.3-1.1c-0.3-0.3-0.5-0.7-0.7-1
	c-0.6-1.3-1.9-2.1-3.3-2.1c-1-0.1-2-0.2-3-0.1c-1,0-1.8,0.8-1.8,1.8c0,0.6,0.3,1.2,0.8,1.5c0.9,0.6,1.9,1.1,3,1.3
	c2.3,0.7,4.6,1.3,6.8,2.2c1.2,0.5,2.3,1.1,3.4,1.9c2,1.5,3.2,3.8,3.3,6.3c0.5,4.4-2,8.7-6.1,10.4c-1.6,0.7-3.4,1.1-5.1,1.3
	C229.7,140.2,228.6,140.3,227.5,140.3z"/>
<path class="st0" d="M163,128.6c1.7-4,3.5-8,5.1-12c0.2-0.5,0.3-1,0.3-1.6c-0.1-0.8-0.4-1.2-1.2-1.3c-0.6,0-1.1-0.2-1.6-0.5
	c-0.7-0.4-1.2-1.1-1.2-2c0-0.6,0-1.3,0-1.9c-0.1-1.3,0.8-2.5,2.1-2.7c0.1,0,0.2,0,0.4,0c4.3-0.1,8.6-0.2,12.9,0
	c1.3-0.1,2.5,1,2.5,2.3c0,0.1,0,0.2,0,0.3c0,0.5,0,1,0,1.5c0.1,1.2-0.7,2.3-1.9,2.4c-1.1,0.2-2,1-2.3,2.1
	c-2.9,7.3-5.8,14.6-8.7,21.8c-0.3,1.3-1.5,2.1-2.8,1.9h-7.3c-1.2,0.2-2.4-0.6-2.7-1.8l-8.7-21.9c-0.1-0.4-0.3-0.7-0.5-1
	c-0.2-0.5-0.7-0.8-1.2-0.9c-0.5-0.1-0.9-0.2-1.3-0.4c-0.7-0.4-1.1-1.1-1.1-1.9c0-0.6,0-1.2,0-1.8c-0.1-1.4,0.9-2.5,2.3-2.7
	c0,0,0.1,0,0.1,0c0.4-0.1,0.9-0.1,1.3-0.1h10.5c0.6,0,1.3,0.1,1.9,0.2c1.1,0.3,1.8,1.3,1.8,2.4c0,0.6,0,1.3,0,1.9
	c0.1,1.2-0.7,2.2-1.9,2.5c-0.3,0.1-0.5,0.1-0.8,0.1c-1.1,0.1-1.6,0.7-1.3,1.9c0.1,0.7,0.4,1.4,0.7,2.1c1.5,3.5,3,7.1,4.5,10.7
	C162.8,128.4,162.8,128.5,163,128.6z"/>
<path class="st1" d="M73.8,98.8c-0.1,4.1-1.6,8.1-4.2,11.2c-4.3,5.2-9.3,10-14.7,14.2c-3.1,2.5-6.2,5-9.3,7.5
	c-4.2,3.5-8.5,6.8-13.1,9.9c-0.4,0.4-1,0.4-1.3,0c-3.9-2.6-7.7-5.5-11.3-8.5c-4.1-3.5-7.9-7.4-11.3-11.7c-1.9-2.4-3.1-5.2-3.5-8.2
	c-0.5-2.7-0.1-5.5,1.2-7.9c1.1-1.8,2.8-3.3,4.7-4.2c0.3-0.2,0.6-0.4,0.9-0.7c1.1-1.4,2.5-2.6,4.2-3.4c0.3-0.2,0.6-0.4,0.8-0.7
	c1.1-1.5,2.6-2.6,4.3-3.4c0.3-0.1,0.5-0.3,0.7-0.5c2.1-2.8,5.4-4.6,8.9-4.8c5.9-0.5,11.7,1.8,15.7,6.2c0.5,0.5,0.7,0.2,0.9-0.1
	c2.6-2.8,6-4.8,9.7-5.7c3.5-0.9,7.2-0.6,10.5,0.9c2.8,1.2,4.9,3.5,5.7,6.4C73.7,96.5,73.8,97.7,73.8,98.8z M15.7,98.3
	c-1.4,0.8-2.6,1.9-3.5,3.2c-1.3,2.4-1.8,5.1-1.2,7.8c0.6,3.4,2.1,6.5,4.4,9.1c6.1,7.1,13.2,13.3,21.1,18.5c0.2,0.2,0.5,0.2,0.7,0
	l3.9-2.7c0.1-0.1,0.3-0.1,0.3-0.4l-0.7-0.5c-6.3-4.2-12.1-9-17.3-14.4c-2.3-2.2-4.3-4.8-6.1-7.5c-2.4-3.9-3-8.6-1.7-13v-0.1
	L15.7,98.3z M10.7,102.3c-2.1,1.1-3.7,3-4.4,5.3c-0.6,2.3-0.6,4.7,0,7c1,3.3,2.7,6.3,5.1,8.8c5.9,6.6,12.7,12.4,20.1,17.3
	c0.2,0.2,0.6,0.2,0.9,0c1.1-0.8,2.3-1.6,3.4-2.4c0.9-0.6,0.9-0.6,0-1.2c-5.4-3.6-10.4-7.6-15.1-12.1c-2.7-2.5-5.2-5.3-7.4-8.3
	C10.3,112.3,9.1,107.6,10.7,102.3C10.8,102.4,10.9,102.3,10.7,102.3C10.7,102.2,10.8,102.3,10.7,102.3L10.7,102.3z M20.9,98.4
	c0,0.8,0,1.7,0.1,2.5c0.5,3.2,1.9,6.1,3.9,8.6c2.8,3.5,6,6.8,9.3,9.8c3.9,3.4,8,6.6,12.3,9.4c0.3,0.2,0.5,0.1,0.8-0.1
	c1.9-1.3,3.9-2.7,5.8-4.1c5.9-4.3,11.3-9.4,15.9-15c2.6-3.1,4.1-7.1,4-11.1c0-3.5-1.9-6.7-5-8.2c-3.2-1.7-7-2.1-10.5-1.1
	c-3.9,0.9-7.4,3-10,6c-0.5,0.5-0.7,0.5-1.1,0c-0.9-1-1.9-1.9-2.9-2.7c-3.6-2.8-8.1-4.1-12.6-3.7c-3.1,0.2-6,1.6-8.1,4
	C21.5,94.3,20.8,96.3,20.9,98.4L20.9,98.4z M20.8,94.1c-2.2,1.1-3.8,3-4.5,5.3c-0.6,2.1-0.6,4.2-0.1,6.3c0.7,3.2,2.3,6.1,4.5,8.6
	c6.1,7.1,13.2,13.2,21,18.3c0.2,0.2,0.5,0.2,0.7,0l3.8-2.7c0.1-0.1,0.3-0.2,0.4-0.4l-2.3-1.6c-5.3-3.6-10.2-7.7-14.7-12.3
	c-2.3-2.2-4.4-4.6-6.3-7.3c-2-2.8-3.1-6-3.2-9.4C20.1,97.5,20.3,95.8,20.8,94.1L20.8,94.1z"/>
<path class="st2" d="M222.2,91.6c-0.1,1.8-0.8,3.4-2,4.7c-1.9,2.4-4.1,4.5-6.5,6.3c-0.2,0.2-0.3,0.3-0.6,0c-2.7-2-5.1-4.4-7.1-7.1
	c-0.9-1.2-1.5-2.7-1.5-4.3c0-2.1,1.6-3.8,3.7-3.9c0.3,0,0.5,0,0.8,0.1c1.4,0.2,2.7,0.8,3.7,1.8c0.7,0.8,0.7,0.8,1.5,0
	c1.1-1.1,2.5-1.8,4.1-1.8c2.1-0.2,3.9,1.4,4,3.4C222.2,91.1,222.2,91.4,222.2,91.6z"/>
<path class="st1" d="M242.9,138.2c1.2,0,2.1,1,2,2.1c0,1.2-1,2.1-2.1,2c-1.1,0-2-1-2-2.1C240.8,139.2,241.7,138.2,242.9,138.2
	C242.9,138.2,242.9,138.2,242.9,138.2z M242.9,138.7c-0.9,0.1-1.6,0.9-1.5,1.8c0.1,0.8,0.7,1.4,1.5,1.5c0.9,0,1.6-0.6,1.6-1.5
	c0,0,0-0.1,0-0.1c0.1-0.9-0.6-1.6-1.5-1.7C243,138.7,242.9,138.7,242.9,138.7L242.9,138.7z"/>
<path class="st2" d="M20.9,98.4c-0.1-2.1,0.6-4.2,1.9-5.8c2-2.4,4.9-3.8,8.1-4c4.5-0.4,9,0.9,12.6,3.7c1.1,0.8,2.1,1.7,2.9,2.7
	c0.5,0.5,0.7,0.5,1.1,0c2.6-3,6.1-5.1,10-6C61.1,88,64.8,88.4,68,90c3.1,1.6,5.1,4.8,5,8.2c0.1,4.1-1.4,8-4,11.1
	c-4.6,5.7-10,10.7-15.9,15.1c-1.9,1.3-3.9,2.8-5.8,4.1c-0.3,0.2-0.5,0.3-0.8,0.1c-4.3-2.9-8.3-6-12.2-9.4c-3.4-3-6.5-6.3-9.3-9.8
	c-2.1-2.5-3.5-5.4-4-8.6C20.9,100.1,20.8,99.3,20.9,98.4z"/>
<path class="st3" d="M20.8,94.2c-0.5,1.6-0.7,3.3-0.7,4.9c0.1,3.4,1.2,6.7,3.2,9.4c1.9,2.6,4,5,6.3,7.3c4.5,4.6,9.4,8.7,14.7,12.3
	l2.3,1.6c0,0.2-0.2,0.3-0.4,0.4l-3.8,2.7c-0.2,0.2-0.5,0.2-0.7,0c-7.8-5.1-14.9-11.3-21-18.3c-2.2-2.4-3.7-5.4-4.5-8.6
	c-0.5-2.1-0.4-4.3,0.1-6.3C17,97.2,18.7,95.3,20.8,94.2z"/>
<path class="st2" d="M10.8,102.3c-1.7,5.2-0.5,9.9,2.5,14.3c2.2,3,4.7,5.8,7.4,8.3c4.6,4.5,9.7,8.6,15,12.2c0.9,0.6,0.9,0.6,0,1.2
	c-1.1,0.8-2.3,1.6-3.4,2.4c-0.2,0.2-0.6,0.2-0.9,0c-7.4-4.9-14.2-10.7-20.1-17.3c-2.3-2.5-4-5.5-5-8.8c-0.6-2.3-0.6-4.7,0-7
	C7.1,105.3,8.7,103.4,10.8,102.3L10.8,102.3z"/>
<path class="st4" d="M15.8,98.3c-1.4,4.3-0.8,9,1.6,12.9c1.7,2.7,3.7,5.2,6.1,7.5c5.2,5.4,11,10.3,17.3,14.4l0.7,0.5
	c0,0.2-0.2,0.3-0.3,0.4l-3.9,2.7c-0.2,0.2-0.5,0.2-0.7,0c-7.8-5.1-14.9-11.3-21.1-18.4c-2.3-2.5-3.8-5.7-4.4-9.1
	c-0.6-2.6-0.2-5.4,1.2-7.8c0.9-1.4,2.1-2.5,3.5-3.2L15.8,98.3z"/>
<path class="st4" d="M15.7,98.3h0.1v0.1L15.7,98.3z"/>
<path class="st2" d="M10.7,102.3C10.7,102.3,10.8,102.3,10.7,102.3c0.1,0.1,0.1,0.1,0.1,0.1L10.7,102.3z"/>
<path class="st1" d="M242.1,140.3L242.1,140.3c0-0.9,0.4-1.2,1.3-0.9c0.3,0.1,0.6,0.4,0.4,0.6c-0.4,0.4,0,0.7,0,1.1
	c0,0.1,0.1,0.3-0.1,0.4c-0.2,0.1-0.4,0-0.4-0.2c-0.1-0.2,0-0.1-0.1-0.2c0-0.2-0.2-0.4-0.4-0.4c0,0,0,0,0,0c-0.3,0-0.2,0.3-0.2,0.4
	c0,0.2,0,0.4-0.3,0.4c-0.3,0-0.2-0.2-0.2-0.4C242.1,140.9,242.1,140.5,242.1,140.3z M242.8,139.6c-0.2,0-0.3,0-0.2,0.3
	s0,0.4,0.2,0.3c0.2,0,0.4,0,0.5-0.3S243.1,139.7,242.8,139.6L242.8,139.6z"/>
<path class="st0" d="M147.7,156.2c-0.6,0-0.8-0.5-0.8-1.6v-5.9h1.2c0.2,0,0.3-0.2,0.3-0.5l0.2-1.3h-1.7v-2.8l0,0l-1-0.3
	c-0.5,1.7-1.7,3-3.4,3.5v1.3h0.9v6.6c0,2.2,0.7,3.2,2.5,3.2c1.2-0.1,2.4-0.7,3.1-1.8l-0.5-0.9C148.3,156.1,148,156.2,147.7,156.2z"
	/>
<path class="st0" d="M156.9,146.9c-0.4-0.2-0.8-0.4-1.3-0.4c-0.8,0-1.2,0.8-2.1,2.3c-0.4-1-1.1-1.9-2.1-2.3l-2.1,3l0.7,0.9l0.4-0.3
	c0.3,0.2,0.3,0.5,0.3,0.9v5.8H150v1.4h5.1v-1.4h-1V152c0-1.1,0.5-1.8,1.2-1.8c0.6,0.1,1.1,0.2,1.6,0.5l1.1-3.9l-1-0.4L156.9,146.9z"
	/>
<polygon class="st0" points="162.6,146.5 162.6,146.5 162.6,146.5 "/>
<path class="st0" d="M140.1,150c0-2.3-1.1-3.5-2.7-3.5c-1.4,0.2-2.6,0.9-3.5,2l0.1-2H134l-4.1,1.3v1.3l0.7-0.1v7.8h-0.7v1.4h4.8
	v-1.4H134v-6.7c0.4-0.5,1-0.9,1.7-0.9c0.7,0,1,0.5,1,1.5v6.1h-0.7v1.4h4.8v-1.4h-0.7L140.1,150z"/>
<path class="st0" d="M100.5,155c-2.3,0-4-3-4-6.9c0-2.3,0.8-3.6,1.8-3.6c0.7,0,1.2,0.7,1.2,1.6c0,0.5-0.1,1-0.5,1.3l0.8,1.1l4.1-4
	l-0.8-1.3l-0.6,0.6c-0.7-1-1.9-1.6-3.1-1.6c-2,0.1-3.8,1.2-4.8,3c-1.2,1.7-1.8,3.7-1.7,5.8c0,4.5,2.5,7.6,5.9,7.6
	c2.3,0,4.2-1.4,5.7-4.3l-1-1.1C102.9,154.3,101.7,154.9,100.5,155z"/>
<path class="st0" d="M127.1,146.5H127l-4,1.3v1.3l0.7-0.2v6c-0.3,0.4-0.9,0.7-1.4,0.8c-0.6,0-1-0.5-1-1.5v-7.8h-0.1l-4,1.3v1.3
	l0.7-0.1v6c0,2.3,1.1,3.5,2.7,3.5c1.2-0.1,2.2-0.8,2.9-1.7l0.4,1.3h3.9v-1.4h-0.7L127.1,146.5z"/>
<path class="st0" d="M110.4,146.5c-3.1,0-5.3,2.5-5.3,6c0,3.5,2.3,6,5.3,6s5.3-2.5,5.3-6C115.7,149,113.4,146.5,110.4,146.5z"/>
<path class="st0" d="M168.2,147.1c-0.7,0-1.3-0.5-2-0.5c-1.1,0-1.7,1-2.7,3c-0.4-1-0.8-2.1-1-3.2l-3.7,2.5l0.4,1l0.6-0.3l3.7,8.3
	l-0.2,0.7c-0.2,0.6-0.7,1-1.3,1c-0.6-0.1-1.1-0.3-1.5-0.6l-0.5,3.1c0.4,0.2,1,0.4,1.5,0.4c1.4,0,2.5-1.3,3.5-3.8l3.6-9.3
	c0.3-0.7,0.6-1.5,1-2.2l-0.4-0.5C168.8,147,168.5,147.1,168.2,147.1z"/>
<path class="st0" d="M229.8,150.5c-1-0.6-1.6-1-1.6-1.6c0-0.3,0.2-0.6,0.5-0.7c0,0,0,0,0.1,0c0.7,0,1.5,0.8,2.6,2.3l1.4-2.7
	c-0.9-0.8-2-1.3-3.3-1.3c-2-0.1-3.6,1.5-3.7,3.5c0,0.1,0,0.3,0,0.4c0,2.1,1.1,2.7,2.9,3.9c1.1,0.7,1.7,1.1,1.7,1.7s-0.2,0.7-0.7,0.7
	c-0.7,0-1.8-0.9-3.2-2.7l-1.6,3c1,1,2.4,1.6,3.8,1.7c2.3,0.1,4.1-1.7,4.2-4c0,0,0-0.1,0-0.1C233.1,152.5,232,151.7,229.8,150.5z"/>
<path class="st0" d="M213.9,146.3l-0.2,0.5c-0.4-0.2-0.8-0.4-1.3-0.4c-0.8,0-1.2,0.8-2.1,2.3c-0.4-1-1.1-1.9-2.1-2.3l-2.1,3l0.7,0.9
	l0.4-0.3c0.3,0.2,0.3,0.5,0.3,0.9v5.8h-0.7v1.4h5.1v-1.4h-1v-4.8c0-1.1,0.5-1.8,1.2-1.8c0.6,0.1,1.1,0.2,1.6,0.5l1.1-3.9l0,0
	L213.9,146.3z"/>
<path class="st0" d="M221.6,155.8c-1.2-0.1-2.2-0.9-2.5-2l3.8-1.8c1.1-0.6,1.6-0.5,1.6-0.7c-0.2-1.1-0.7-2-1.3-2.9
	c-0.7-1.1-2-1.8-3.3-1.8c-2.4,0-4.7,2.5-4.7,6.1s1.9,6,4.5,6c2.1,0,3.9-1.2,4.9-3.1l-0.7-0.9C223.4,155.3,222.5,155.7,221.6,155.8z"
	/>
<path class="st0" d="M199.9,146.5c-3.1,0-5.3,2.5-5.3,6c0,3.5,2.3,6,5.3,6c3,0,5.3-2.5,5.3-6C205.2,149,203,146.5,199.9,146.5z"/>
<path class="st0" d="M181,147.4c-1.5-0.7-2.2-1.2-2.2-2c0-0.6,0.5-1,1-1c0,0,0,0,0,0c0.8,0,2.1,0.9,4,2.9l2.1-4l-1.1-0.8l-0.4,0.7
	c-1-0.7-2.2-1.1-3.4-1.2c-2.8,0.2-5,2.5-5,5.3c0,1.4,0.7,2.8,1.8,3.6c1.3,0.8,2.7,1.5,4.2,2.1c1,0.5,1.5,0.9,1.5,1.5
	c0,0.7-0.6,1.3-1.3,1.3c0,0-0.1,0-0.1,0c-1.3,0-3-1.3-5.1-3.9l-2.2,3.9c1.5,1.6,3.5,2.6,5.7,2.7c3.1-0.1,5.6-2.8,5.5-5.9
	c0-1.1-0.3-2.1-1-2.9C183.8,148.6,182.5,147.9,181,147.4z"/>
<path class="st0" d="M192.6,156.2c-0.6,0-0.8-0.5-0.8-1.6v-5.9h1.2c0.2,0,0.3-0.2,0.3-0.5l0.2-1.3h-1.7v-2.8l-1-0.3
	c-0.5,1.7-1.7,3-3.4,3.5v1.3h0.9v6.6c0,2.2,0.7,3.2,2.5,3.2c1.2-0.1,2.4-0.7,3.1-1.8l-0.5-0.9C193.2,156.1,192.9,156.2,192.6,156.2z
	"/>
<path class="st5" d="M112.2,154c0,1.9-0.4,2.8-1.3,2.8c-1.1,0-2.4-2.4-2.4-5.9c0-1.8,0.5-2.7,1.2-2.7
	C110.8,148.2,112.2,150.6,112.2,154z M166.9,149.6l-1.7,4.5l-1.3-3.4c0.3-0.9,0.8-1.3,1.2-1.3s0.8,0.4,1.4,0.4
	C166.6,149.8,166.8,149.7,166.9,149.6L166.9,149.6z M201.7,154c0,1.9-0.4,2.8-1.3,2.8c-1.1,0-2.4-2.4-2.4-5.9c0-1.8,0.5-2.7,1.2-2.7
	C200.3,148.2,201.7,150.6,201.7,154L201.7,154z M221,150.8l-2.4,1.2c-0.2-0.6-0.3-1.3-0.3-1.9c0-1.1,0.4-1.8,0.9-1.8
	C219.8,148.3,220.6,149.2,221,150.8L221,150.8z"/>
</svg>
