<?xml version="1.0" encoding="utf-8"?>
<!-- Generator: Adobe Illustrator 21.1.0, SVG Export Plug-In . SVG Version: 6.00 Build 0)  -->
<svg version="1.1" id="Layer_1" xmlns="http://www.w3.org/2000/svg" xmlns:xlink="http://www.w3.org/1999/xlink" x="0px" y="0px"
	 viewBox="0 0 250 250" style="enable-background:new 0 0 250 250;" xml:space="preserve">
<style type="text/css">
	.st0{fill:#262223;}
	.st1{fill:#FEFEFE;}
	.st2{fill:#19563E;}
</style>
<title>Grocery</title>
<g>
	<g>
		<path class="st0" d="M5,165.6c0.6,0,1.3,0,1.9,0s0.6,0.1,0.6,0.6c0,4.2,0,8.5,0,12.7c0,1.5,0,3.1,0,4.6c0,0.4,0.1,0.5,0.5,0.5h9
			c0.5,0,0.7,0,0.7,0.6c0,1.3,0,1.3-1.3,1.3H5V165.6z"/>
		<path class="st0" d="M136.1,174.5l0.6,0.2c2.8,0.5,4.7,3.1,4.2,5.9c-0.1,0.4-0.2,0.9-0.4,1.3c-0.8,2-2.6,3.5-4.7,3.8
			c-1.1,0.2-2.3,0.4-3.5,0.3c-1.8,0-3.6,0-5.3,0c-0.4,0-0.6,0-0.6-0.5c0-6.4,0-12.8,0-19.3c0-0.3,0-0.5,0.4-0.5c2.3,0,4.6-0.1,6.9,0
			c0.7,0,1.4,0.1,2.1,0.3c1.8,0.5,3,2,3.2,3.8c0.3,1.9-0.7,3.8-2.5,4.5L136.1,174.5z M129.1,179.9c0,1.3,0,2.5,0,3.8
			c0,0.3,0,0.4,0.4,0.4c1.5,0.1,2.9,0,4.4-0.1c1.4-0.1,2.7-0.7,3.6-1.7c1.3-1.7,1-4.2-0.7-5.5c-0.5-0.4-1-0.6-1.6-0.7
			c-1.9-0.3-3.8-0.4-5.7-0.3c-0.4,0-0.3,0.3-0.3,0.5C129,177.5,129.1,178.7,129.1,179.9L129.1,179.9z M129.1,170.7c0,1,0,2,0,3
			c0,0.3,0,0.5,0.4,0.4c1.3,0,2.5,0,3.8,0c1.6,0,2.9-1.1,3.1-2.6c0.6-1.7-0.4-3.6-2.1-4.1c-0.2-0.1-0.5-0.1-0.7-0.1
			c-1.4-0.1-2.8-0.1-4.1,0c-0.3,0-0.3,0.2-0.3,0.4C129,168.7,129.1,169.7,129.1,170.7L129.1,170.7z"/>
		<path class="st0" d="M66.4,175.7c0-3.2,0-6.4,0-9.5c0-0.5,0.1-0.6,0.6-0.6c2.9-0.1,5.7-0.2,8.6-0.1c1,0,2,0.1,3,0.4
			c2.9,0.9,5.1,3.3,5.6,6.3c1.2,3.9,0.1,8.1-2.8,10.9c-1.5,1.4-3.4,2.3-5.4,2.5c-3.1,0.3-6.1,0.3-9.2,0.3c-0.4,0-0.3-0.3-0.3-0.5
			c0-2.5,0-5,0-7.4L66.4,175.7z M68.9,175.7c0,2.7,0,5.4,0,8c0,0.3,0,0.5,0.4,0.5c1.9,0,3.8,0.1,5.7-0.1c2.4-0.1,4.5-1.5,5.5-3.6
			c1.5-2.8,1.6-6.1,0.5-9c-0.9-2.6-3.2-4.3-5.9-4.5c-1.9-0.1-3.9-0.1-5.9,0c-0.4,0-0.3,0.3-0.3,0.5C68.9,170.3,68.9,173,68.9,175.7
			L68.9,175.7z"/>
		<path class="st0" d="M180.7,175.7c0-3.2,0-6.3,0-9.5c0-0.6,0.2-0.7,0.7-0.6c2.2,0,4.4-0.2,6.6,0c0.6,0,1.2,0,1.8,0.2
			c2.8,0.5,4.7,3.2,4.2,6c0,0.1,0,0.1,0,0.2c-0.3,2-1.7,3.7-3.6,4.4c-0.4,0.2-0.5,0.3-0.3,0.8c1.2,2,2.5,3.9,4,5.7
			c0.9,1.2,2.3,1.9,3.8,1.9c0.3,0,0.3,0.1,0.3,0.3c-0.1,0.2,0.3,0.8-0.3,0.8c-1.8,0.5-3.8,0.1-5.3-1.1c-1.3-1.3-2.5-2.8-3.4-4.4
			c-0.6-0.9-1.1-1.8-1.7-2.8c-0.1-0.3-0.4-0.4-0.7-0.3c-1,0.1-2,0.2-2.9,0.1c-0.4,0-0.4,0.1-0.4,0.5c0,2.5,0,5,0,7.5
			c0,0.5-0.1,0.7-0.6,0.6s-1.4,0.3-1.8-0.1c-0.4-0.4-0.1-1.1-0.1-1.8C180.8,181.2,180.7,178.5,180.7,175.7z M185.6,167.3h-2
			c-0.3,0-0.4,0.1-0.4,0.4c0,2.5,0,5,0,7.4c0,0.4,0.1,0.4,0.4,0.5c1.3,0.1,2.6,0.1,3.9-0.1c1.6-0.1,3-1.2,3.4-2.7
			c0.2-0.8,0.3-1.6,0.1-2.4c-0.1-1.6-1.3-2.9-2.9-3C187.3,167.2,186.5,167.2,185.6,167.3L185.6,167.3z"/>
		<path class="st0" d="M45,169.4c-0.1,0.2-0.1,0.5-0.1,0.7c0,5,0,10.1,0,15.1c0,0.5-0.1,0.7-0.7,0.7c-1.1,0-1.1,0-1.1-1.1
			c0-6.2,0-12.3,0-18.5c0-0.5,0.1-0.6,0.7-0.7c0.8-0.1,1.7,0.3,2.1,1c4.1,4.8,8.2,9.6,12.3,14.4l0.5,0.6v-0.7c0-4.9,0-9.7,0-14.6
			c0-0.5,0.1-0.6,0.6-0.6c1.2,0,1.2,0,1.2,1.2c0,6.1,0,12.2,0,18.3c0,0.3,0.2,0.7-0.1,0.7c-0.3,0.1-1,0.3-1.3-0.2
			c-1.3-1.6-2.7-3.1-4.1-4.7l-9.7-11.2L45,169.4z"/>
		<path class="st0" d="M21,173.3c0-2.4,0-4.8,0-7.2c0-0.4,0.1-0.6,0.5-0.5c0.5,0,1,0,1.6,0c0.3,0,0.4,0.1,0.4,0.4c0,0.7,0,1.5,0,2.2
			c0,3.8,0,7.7,0,11.5c0,0.5,0.1,1,0.2,1.5c0.2,1,0.9,1.8,1.8,2.1c2.2,1,4.8,1,7.1,0c1.4-0.6,2.3-2,2.4-3.5c0.1-1.2,0.2-2.4,0.2-3.6
			c0-3.4,0-6.8,0-10.1c0-0.5,0.1-0.7,0.6-0.6c0.5,0.1,1.2-0.2,1.5,0.1c0.3,0.3,0.1,1,0.1,1.5c0,3.6,0,7.1,0,10.6
			c0,1.1-0.1,2.3-0.4,3.4c-0.4,1.8-1.6,3.2-3.3,3.9c-2.8,1.3-5.9,1.5-8.8,0.6c-2.3-0.6-4-2.8-3.9-5.2c0-0.4,0-0.8,0-1.1
			C21,177.3,21,175.3,21,173.3z"/>
		<path class="st0" d="M162.7,175.7c0-3.2,0-6.4,0-9.5c0-0.4,0-0.6,0.6-0.6c4,0,7.9,0,11.9,0c0.4,0,0.6,0,0.6,0.6
			c0,1.3,0,1.3-1.2,1.3h-8.8c-0.4,0-0.5,0-0.5,0.5c0,1.9,0,3.8,0,5.7c0,0.5,0.2,0.5,0.6,0.5h8.2c0.4,0,0.6,0.1,0.6,0.6
			c0,1.3,0,1.3-1.3,1.3c-2.5,0-5,0-7.5,0c-0.4,0-0.6,0.1-0.6,0.6c0,2.3,0,4.5,0,6.8c0,0.5,0.1,0.6,0.6,0.6h9.5
			c0.4,0,0.6,0.1,0.6,0.6c0,1.3,0,1.3-1.3,1.3h-11.2c-0.4,0-0.6-0.1-0.6-0.6C162.7,182.1,162.7,178.9,162.7,175.7z"/>
		<path class="st0" d="M113.2,177.1c1.4,0.8,2.6,1.9,3.4,3.2c0.2,0.3,0.3,0.3,0.5,0c0.8-1,1.4-2.2,1.8-3.5c0.1-0.4,0.3-0.6,0.7-0.5
			c0.2,0,0.4,0,0.5,0c1,0,1,0,0.6,0.9c-0.7,1.6-1.6,3.1-2.7,4.4c-0.2,0.2-0.2,0.6,0,0.8c0,0,0,0,0,0c0.4,0.5,0.9,1.1,1.3,1.6
			c0.6,0.6,1.3,0.9,2.1,0.8c0.3,0,0.5,0,0.4,0.3c-0.1,0.3,0.2,0.6-0.3,0.7c-1.8,0.5-3.8-0.1-4.9-1.7c-0.3-0.5-0.5-0.5-1-0.1
			c-1.6,1.7-4,2.4-6.3,1.8c-2.2-0.5-3.6-2.7-3.2-4.9c0.1-0.7,0.4-1.3,0.9-1.8c0.5-0.5,1.1-1,1.8-1.4c0.8-0.4,0.8-0.4,0.2-1
			c-1-0.9-1.3-2.3-0.8-3.6c0.3-0.9,0.9-1.6,1.8-2c1.2-0.6,2.7-0.7,4-0.2c1.1,0.3,1.9,1.3,2,2.4c0.2,1.1-0.3,2.3-1.2,3
			C114.3,176.6,113.8,176.9,113.2,177.1z M108.5,181.2c0,1.5,1.1,2.7,2.5,2.9c1.6,0.2,3.1-0.4,4.2-1.6c0.2-0.2,0.1-0.4,0-0.6
			c-1-1.5-2.4-2.7-4-3.6c-0.1,0-0.2,0-0.3,0C109.6,178.7,108.6,179.8,108.5,181.2L108.5,181.2z M113.9,173.9c0.1-1-0.6-1.9-1.6-1.9
			c-0.1,0-0.1,0-0.2,0c-1-0.1-1.9,0.6-2,1.6c0,0.1,0,0.2,0,0.2c0,1.2,0.7,2.2,1.8,2.6c0.1,0,0.2,0,0.3,0c1.1-0.3,1.8-1.3,1.8-2.5
			L113.9,173.9z"/>
		<path class="st0" d="M95.6,165.2c1.2,0,2.4,0.2,3.6,0.4c0.4,0.1,0.4,0.2,0.3,0.6c-0.2,0.4-0.3,0.8-0.5,1.2
			c-0.1,0.4-0.2,0.4-0.6,0.3c-1.5-0.7-3.3-0.9-4.9-0.6c-1.7,0.2-2.9,1.7-2.7,3.4c0.1,1.2,0.9,2.2,2.1,2.6c1.2,0.6,2.5,1.1,3.8,1.7
			c0.9,0.4,1.7,0.8,2.4,1.4c2.3,1.7,2.7,4.9,1,7.2c-0.3,0.4-0.6,0.7-1,1c-1.7,1.3-3.8,1.9-5.9,1.8c-1.6,0-3.1-0.3-4.6-0.6
			c-0.4-0.1-0.5-0.2-0.3-0.6c0.3-0.4,0.5-0.9,0.6-1.4c0.1-0.3,0.2-0.4,0.6-0.3c1.7,0.7,3.5,1,5.4,0.9c0.8-0.1,1.6-0.3,2.3-0.7
			c1.5-0.9,2.1-2.8,1.2-4.3c-0.2-0.4-0.5-0.8-0.9-1c-0.8-0.6-1.7-1.1-2.7-1.4c-1.3-0.5-2.6-1.1-3.9-1.8c-2.3-1.4-3.1-4.4-1.7-6.8
			c0.2-0.3,0.4-0.6,0.7-0.9c1.2-1.1,2.7-1.9,4.3-2C94.6,165.3,95.2,165.2,95.6,165.2z"/>
		<path class="st0" d="M237,186.2c-1.6-0.1-3.1-0.3-4.7-0.7c-0.3,0-0.4-0.2-0.3-0.5c0.1-0.3,0.4-0.9,0.5-1.4
			c0.2-0.5,0.3-0.3,0.6-0.2c1.7,0.7,3.5,1,5.4,0.9c1.4,0,2.8-0.8,3.5-2c0.7-1.3,0.4-2.9-0.8-3.9c-0.9-0.7-1.8-1.2-2.8-1.6
			c-1.1-0.5-2.3-1-3.3-1.5c-1.8-0.8-3-2.6-2.9-4.6c0-2.1,1.3-4,3.3-4.7c2.5-1,5.2-1.1,7.7-0.3c0.2,0,0.3,0.2,0.2,0.4v0.1
			c-0.2,0.5-0.3,1.3-0.6,1.5c-0.4,0.3-1-0.3-1.5-0.4c-1.4-0.4-2.9-0.4-4.3,0c-1.7,0.5-2.6,2.2-2.1,3.9c0,0,0,0,0,0.1
			c0.4,1,1.1,1.7,2.1,2c1.3,0.6,2.6,1.1,3.9,1.8c0.6,0.3,1.2,0.6,1.8,1c2.4,1.5,3.2,4.8,1.6,7.2c-0.5,0.8-1.3,1.5-2.2,1.9
			C240.4,185.9,238.7,186.3,237,186.2z"/>
		<path class="st0" d="M159.2,165.6l-1.3,1.8l-6.5,9.2c-0.2,0.3-0.3,0.6-0.3,0.9c0,2.6,0,5.2,0,7.8c0,0.4,0,0.6-0.6,0.6
			s-1.5,0.3-1.8-0.1c-0.3-0.4-0.1-1.2-0.1-1.8c0-2.1,0-4.1,0-6.2c0-0.4-0.1-0.8-0.3-1.2l-6.3-10.4c-0.1-0.1-0.2-0.3-0.2-0.5h2.6
			c0.3,0,0.4,0.2,0.5,0.4l5,8.5l0.4,0.7l2.6-3.7c1.3-1.8,2.6-3.6,3.8-5.5c0.2-0.3,0.5-0.5,0.9-0.4
			C158.1,165.6,158.6,165.6,159.2,165.6z"/>
		<path class="st0" d="M212.8,165.6h2.6c0.3,0,0.4,0.3,0.5,0.5l5.2,8.8l0.2,0.4l2.2-3.1c1.4-2,2.8-4,4.2-6c0.2-0.3,0.6-0.5,0.9-0.5
			c0.4,0,0.9,0,1.3,0c0,0.3-0.2,0.4-0.3,0.6l-7.2,10.3c-0.2,0.3-0.3,0.6-0.3,1c0,2.6,0,5.2,0,7.8c0,0.4,0,0.6-0.6,0.6
			c-0.5,0-1,0-1.5,0c-0.4,0-0.5-0.1-0.5-0.5c0-2.5,0-5.1,0-7.7c0-0.4-0.1-0.7-0.3-1l-6.3-10.5L212.8,165.6z"/>
		<path class="st0" d="M201.3,175.7c0-3.1,0-6.3,0-9.4c0-0.6,0.2-0.7,0.7-0.7c0.4,0,0.9,0,1.3,0c0.4,0,0.5,0.1,0.5,0.5
			c0,3.4,0,6.8,0,10.1c0,2.4,0,4.7,0,7.1c0,0.5,0.1,0.6,0.6,0.6c3,0,6,0,9,0c0.5,0,0.6,0.1,0.6,0.6c0,1.3,0,1.3-1.3,1.3
			c-3.6,0-7.2,0-10.8,0c-0.6,0-0.7-0.2-0.7-0.7C201.3,182,201.3,178.8,201.3,175.7z"/>
	</g>
	<g>
		<path class="st0" d="M128.8,63.8c1.3,0.3,2.7,0.5,4.1,0.7c13.3,2.4,24.8,10.9,30.9,23c2.8,5.2,4.4,11,4.7,16.9
			c0,0.6,0.2,0.7,0.8,0.7c2.7,0,5.4,0,7.9,0c0.6,0,0.8,0.1,0.8,0.8c-0.1,0.9-0.1,1.8,0,2.7c0,0.7,0,0.9-0.9,0.9c-2.7,0-5.2,0-7.8,0
			c-0.6,0-0.8,0.2-0.8,0.8c-0.6,10-4.7,19.4-11.5,26.7c-6.5,7.3-15.4,12.1-25.2,13.5c-23.9,3.7-46.3-12.6-50-36.5
			c0-0.1,0-0.3-0.1-0.4c-0.2-1-0.2-1.9-0.3-2.9c0-0.9-0.3-1.2-1.2-1.2c-2.5,0-5,0-7.5,0c-0.6,0-0.8,0-0.8-0.7c0-1,0-2.1,0-3.1
			c0-0.6,0.2-0.7,0.7-0.7c2.7,0,5.2,0,7.7,0c0.7,0,0.9-0.1,1-0.9C82,95.4,85.4,86.9,91,80c7-8.8,17.2-14.6,28.4-15.9
			c0.6,0,1.2-0.1,1.7-0.3L128.8,63.8z M171.9,108.3c1.3,0,2.7,0,3.9,0c0.7,0,0.8-0.2,0.8-0.9s0-1-0.9-1c-2.7,0-5.4,0-7.9,0
			c-0.6,0-0.8,0-0.8-0.7c-0.1-2.5-0.4-5-0.9-7.4c-5-22.8-27.4-37.2-50.2-32.2c-18.8,4.1-32.4,20.4-33.2,39.6c0,0.6-0.2,0.8-0.8,0.8
			c-2.7,0-5.2,0-7.8,0c-0.7,0-0.9,0.2-0.8,0.9c0,0.6,0,1,0.9,1c2.5,0,5.1,0,7.7,0c0.7,0,1,0,1,0.9c0.1,2.5,0.4,5,0.9,7.4
			c4.8,22,26.2,36.4,48.4,32.5c13.6-2.1,25.2-10.9,30.9-23.4c2.5-5,3.8-10.4,4.1-16c0-1.4-0.2-1.2,1.3-1.2L171.9,108.3z"/>
		<path class="st1" d="M171.8,108.3h-3.5c-1.5,0-1.2-0.2-1.3,1.2c-0.2,5.6-1.6,11-4.1,16c-5.7,12.5-17.3,21.3-30.9,23.4
			c-22.2,3.9-43.6-10.4-48.4-32.5c-0.6-2.4-0.9-4.9-0.9-7.4c0-0.8-0.3-0.9-1-0.9c-2.5,0-5.1,0-7.7,0c-0.8,0-0.8-0.4-0.9-1
			s0-0.9,0.8-0.9c2.7,0,5.2,0,7.8,0c0.6,0,0.8-0.2,0.8-0.8c0.9-23.3,20.5-41.4,43.8-40.5c19.2,0.8,35.5,14.4,39.6,33.2
			c0.5,2.4,0.9,4.9,0.9,7.4c0,0.6,0.2,0.8,0.8,0.7c2.7,0,5.4,0,7.9,0c0.8,0,0.8,0.3,0.9,1c0,0.6,0,0.9-0.8,0.9
			C174.4,108.3,173.1,108.3,171.8,108.3z M89.5,106.5c1.2,0,2.4,0,3.5,0c0.7,0,0.9,0.2,0.8,0.9c-0.1,0.6,0,1-0.8,1
			c-2.4,0-4.7,0-7.1,0c-0.7,0-0.9,0.2-0.8,0.9c0.1,2.7,0.5,5.3,1.1,7.9c5.3,21.3,26.9,34.2,48.2,28.9c17.1-4.3,29.3-19.2,30.1-36.8
			c0-0.7-0.2-0.9-0.9-0.8c-2.4,0-4.7,0-7.1,0c-0.8,0-0.8-0.4-0.8-0.9s0-0.9,0.8-0.9c2.4,0,4.8,0,7.2,0c0.7,0,0.8-0.2,0.8-0.8
			c-0.2-1.8-0.3-3.7-0.7-5.4c-3.9-20.6-23.2-34.7-44-32c-19.1,2.4-33.7,18.2-34.7,37.5c0,0.7,0,1,0.9,1
			C87,106.6,88.2,106.5,89.5,106.5L89.5,106.5z"/>
		<path class="st2" d="M89.5,106.5c-1.2,0-2.3,0-3.5,0c-1.2,0-0.9-0.2-0.9-1c1-19.2,15.7-34.9,34.7-37.3c20.8-2.7,40.2,11.3,44.1,32
			c0.3,1.8,0.5,3.7,0.7,5.4c0,0.6,0,0.9-0.8,0.8c-2.4,0-4.8,0-7.2,0c-0.8,0-0.8,0.4-0.8,0.9s0,0.9,0.8,0.9c2.4,0,4.7,0,7.1,0
			c0.6,0,0.9,0,0.9,0.8c-0.9,21.9-19.5,38.9-41.4,38c-17.6-0.8-32.6-13-36.8-30.1c-0.6-2.6-1-5.2-1.1-7.9c0-0.7,0.2-0.9,0.8-0.9
			c2.4,0,4.7,0,7.1,0c0.8,0,0.8-0.4,0.8-1c0.1-0.6-0.1-0.9-0.8-0.9C91.9,106.5,90.7,106.5,89.5,106.5z M144.4,105.6
			c1.4-0.5,2.7-1.1,4-1.9c3.1-2,4-6,2-9.1c-0.6-0.9-1.3-1.6-2.2-2.1c-1.6-0.9-3.5-1.4-5.4-1.4c-3.5,0-7.1,0-10.6,0h-3.9
			c-0.4,0-0.7,0-0.7,0.6c0,0.6,0.2,0.7,0.7,0.7h0.4c2.1,0,2.7,0.5,3,2.7c0.3,2.7,0.2,5.7,0.3,8.5c0,4.3,0,8.7,0,13
			c0,2.1-0.1,4.2-0.4,6.2c0,0.4,0,0.6,0.5,0.6c3.8,0,7.5,0,11.3,0c3.2,0,6.3-1.3,8.6-3.6c3.1-3,3.3-8,0.3-11.1c-0.9-0.9-2-1.6-3.2-2
			C147.4,106.1,145.9,105.8,144.4,105.6z M99.3,109.1v8.1c0,1.8,0,3.5,0,5.4c0,0.8,0.2,1,0.9,0.9h0.4c5.8-0.2,11.5-0.2,17.3,0.2
			c0.6,0,0.9,0,0.9-0.7c0-0.7,0-1.5,0.2-2.3c0.2-0.8,0-0.5-0.5-0.4c-4.1,0.8-8.2,1.2-12.4,1c-2.1,0-2.5-0.4-2.7-2.5
			c-0.3-4.8-0.2-9.5-0.2-14.3c0-4.2,0-8.3,0-12.5c0-0.5,0-0.7-0.6-0.6c-1,0-2,0-3,0h-3.9c-0.4,0-0.6,0-0.7,0.5s0.2,0.6,0.6,0.7
			l1.2,0.2c1.1,0,2,0.9,2.1,2.1c0.1,0.4,0.2,0.9,0.2,1.4C99.5,100.3,99.3,104.7,99.3,109.1L99.3,109.1z M114.2,104.9
			c-0.8,0.4-1.5,0.9-2.2,1.5c-1,0.8-1.4,2.1-1.2,3.3c0.5,2.5,2.9,4.1,5.4,3.6c0,0,0,0,0,0c1.6-0.3,3-1.1,4.1-2.3
			c0.1,0.1,0.2,0.2,0.3,0.3c1,1.5,2.8,2.3,4.6,1.9c0.4,0,0.6,0,0.6-0.5c0-0.5,0-0.4-0.4-0.4c-1.5,0-2.4-1.1-3.2-2.1
			c-0.4-0.3-0.4-0.9-0.1-1.2c0,0,0-0.1,0.1-0.1c1.2-1.4,2.1-3,2.7-4.7c-1.6-0.2-1.6-0.2-2.2,1.2c-0.4,0.9-0.8,1.7-1.4,2.5
			c-0.2,0.3-0.4,0.5-0.6,0c-0.9-1.3-2-2.4-3.4-3.1c0.7-0.3,1.3-0.6,1.8-1c1.2-1,1.3-2.8,0.3-4c-0.3-0.3-0.6-0.5-0.9-0.7
			c-1.4-0.7-3.1-0.6-4.4,0.3c-0.9,0.6-1.5,1.6-1.5,2.7C112.7,103,113.2,104.2,114.2,104.9L114.2,104.9z"/>
		<path class="st1" d="M144.4,105.6c1.5,0.1,2.9,0.5,4.4,1c4.1,1.4,6.4,5.8,5,9.9c-0.4,1.2-1.1,2.3-2,3.2c-2.3,2.3-5.3,3.6-8.6,3.6
			c-3.8,0-7.5,0-11.3,0c-0.5,0-0.5-0.2-0.5-0.6c0.3-2.1,0.5-4.2,0.4-6.2c0-4.3,0-8.7,0-13c0-2.8,0-5.7-0.3-8.5
			c-0.2-2.1-0.9-2.6-3-2.7h-0.4c-0.5,0-0.7-0.2-0.7-0.7c0-0.5,0.3-0.6,0.7-0.6h3.9c3.5,0,7.1,0,10.6,0c1.9-0.1,3.8,0.4,5.4,1.4
			c3.1,1.8,4.2,5.9,2.4,9c-0.5,0.9-1.3,1.7-2.1,2.2C147.2,104.3,145.8,105,144.4,105.6z M139,106.9c-0.8,0-1.5,0-2.3,0
			c-0.8,0-0.7,0-0.7,0.6c0,1,0,2.1,0,3.1c0,2.9,0,5.9,0.2,8.8c0,1.3,1,2.3,2.2,2.3c0,0,0,0,0,0c2,0.3,3.9,0.1,5.8-0.4
			c3.2-0.9,5.3-3.9,5-7.1c0.2-3.3-2.1-6.2-5.4-6.7c-1.7-0.4-3.4-0.6-5.1-0.6H139z M136.3,99.5L136.3,99.5c0,1.7,0,3.5,0,5.2
			c0,0.5,0,0.7,0.6,0.7c1.5,0,3,0,4.5,0c2.5,0,4.6-1.6,5.2-4c0.2-0.7,0.3-1.5,0.3-2.2c0.4-2.9-1.5-5.6-4.4-6.2
			c-1.7-0.4-3.4-0.5-5.1-0.3c-0.5,0-1,0.4-1,0.9c0,0,0,0.1,0,0.1c-0.3,2-0.4,3.9-0.4,5.9H136.3z"/>
		<path class="st1" d="M99.3,109.1c0-4.4,0.2-8.8,0-13.3c0-0.5-0.1-0.9-0.2-1.4c-0.1-1.1-1-2-2.1-2.1l-1.2-0.2
			c-0.4,0-0.6-0.2-0.6-0.7c0.1-0.4,0.3-0.5,0.7-0.5h3.9c1,0,2,0,3,0c0.6,0,0.6,0.1,0.6,0.6c0,4.2,0,8.3,0,12.5
			c0,4.8-0.1,9.5,0.2,14.3c0.1,2.1,0.5,2.5,2.7,2.5c4.2,0.2,8.3-0.1,12.4-1c0.4,0,0.5,0,0.5,0.4c-0.1,0.4-0.2,1.5-0.2,2.3
			c0,0.8-0.4,0.8-0.9,0.7c-5.7-0.4-11.5-0.4-17.3-0.2h-0.4c-0.7,0-1,0-0.9-0.9c0-1.8,0-3.5,0-5.4L99.3,109.1z"/>
		<path class="st1" d="M114.2,104.9c-1-0.7-1.5-1.9-1.6-3.1c0-1.1,0.5-2.1,1.5-2.7c1.3-0.9,3-1,4.4-0.3c1.4,0.7,2,2.4,1.4,3.8
			c-0.2,0.4-0.4,0.7-0.7,0.9c-0.6,0.4-1.2,0.8-1.8,1c1.4,0.8,2.5,1.9,3.4,3.2c0.3,0.4,0.5,0.2,0.6,0c0.5-0.8,1-1.6,1.4-2.5
			c0.5-1.4,0.5-1.4,2.2-1.2c-0.6,1.7-1.5,3.3-2.7,4.7c-0.4,0.3-0.4,0.9-0.1,1.2c0,0,0,0.1,0.1,0.1c0.8,1.1,1.6,2.1,3.2,2.1
			c0.3,0,0.4,0,0.4,0.4s-0.2,0.5-0.6,0.5c-1.8,0.4-3.6-0.4-4.6-1.9c-0.1-0.1-0.2-0.2-0.3-0.3c-1.1,1.2-2.6,2-4.1,2.3
			c-2.5,0.5-4.9-1.1-5.4-3.6c0,0,0,0,0,0c-0.2-1.2,0.2-2.5,1.2-3.3C112.7,105.8,113.4,105.3,114.2,104.9z M116.2,111.5
			c1.1-0.1,2.2-0.6,3.1-1.4c0.3-0.2,0.4-0.7,0.2-1c0-0.1-0.1-0.1-0.2-0.2c-1-1.3-2.2-2.4-3.7-3.2c-0.2-0.1-0.4-0.1-0.6,0
			c-1.4,0.5-2.3,1.8-2.2,3.3C113.1,110.7,114.6,111.7,116.2,111.5L116.2,111.5z M116.4,99.7c-1,0-1.8,0.7-1.9,1.7c0,0.1,0,0.2,0,0.2
			c0,0.9,1.2,2.4,1.9,2.4s1.9-1.4,1.9-2.4c0.1-1-0.6-1.9-1.6-1.9C116.6,99.6,116.5,99.6,116.4,99.7L116.4,99.7z"/>
		<path class="st2" d="M138.9,106.9c1.7,0,3.5,0.2,5.1,0.6c3.3,0.5,5.6,3.4,5.4,6.7c0.3,3.4-1.9,6.4-5.2,7.2
			c-1.9,0.5-3.9,0.7-5.8,0.4c-1.3,0-2.3-1-2.2-2.3c0,0,0,0,0,0c-0.3-2.9-0.2-5.9-0.2-8.8c0-1,0-2.1,0-3.1c0-0.5,0.2-0.7,0.7-0.6
			C137.1,106.9,138.1,106.9,138.9,106.9z"/>
		<path class="st2" d="M136.1,99.5c0-2,0-3.9,0-5.9c0-0.5,0.3-1,0.9-1c0,0,0.1,0,0.1,0c1.7-0.2,3.5-0.1,5.1,0.3
			c2.9,0.6,4.8,3.3,4.4,6.2c0,0.8-0.1,1.5-0.3,2.2c-0.6,2.4-2.8,4-5.2,4c-1.5,0-3,0-4.5,0c-0.5,0-0.6-0.2-0.6-0.7c0-1.7,0-3.5,0-5.2
			H136.1z"/>
		<path class="st2" d="M116.2,111.5c-1.6,0.1-3-1-3.3-2.5c-0.1-1.5,0.8-2.8,2.2-3.3c0.2-0.1,0.4-0.1,0.6,0c1.4,0.8,2.7,1.9,3.7,3.2
			c0.3,0.2,0.4,0.7,0.2,1c0,0.1-0.1,0.1-0.2,0.2C118.5,110.9,117.4,111.4,116.2,111.5z"/>
		<path class="st2" d="M116.4,99.6c1-0.1,1.8,0.7,1.9,1.6c0,0.1,0,0.2,0,0.3c0,1-1.1,2.4-1.9,2.4c-0.8,0.1-1.9-1.5-1.9-2.4
			c-0.1-1,0.6-1.9,1.6-2C116.2,99.6,116.3,99.6,116.4,99.6z"/>
	</g>
</g>
</svg>
