<?xml version="1.0" encoding="utf-8"?>
<!-- Generator: Adobe Illustrator 21.1.0, SVG Export Plug-In . SVG Version: 6.00 Build 0)  -->
<svg version="1.1" id="Layer_1" xmlns="http://www.w3.org/2000/svg" xmlns:xlink="http://www.w3.org/1999/xlink" x="0px" y="0px"
	 viewBox="0 0 250 250" style="enable-background:new 0 0 250 250;" xml:space="preserve">
<style type="text/css">
	.st0{fill:#CA282B;}
	.st1{fill:#231F20;}
	.st2{fill:#FDFCFC;}
	.st3{fill:#8EC63F;}
</style>
<title>Drug Logos</title>
<path class="st0" d="M5,146.2c0-0.3,0-0.5,0-0.8c0-21.2,0-42.3,0-63.5c-0.2-3.2,2.2-6,5.5-6.3c0.3,0,0.6,0,0.8,0
	c75.8,0,151.6,0,227.4,0c3.4,0,6.2,2.7,6.2,6.1c0,21.2,0,42.4,0,63.6c0,0.3,0,0.6,0,0.9L5,146.2L5,146.2z M76.5,93
	c0.1,0.3,0.2,0.7,0.1,1c0,12.3,0,24.5,0,36.8c0,2.6,0,5.1,0,7.7c0,0.6,0.2,0.7,0.7,0.7c1.9,0,3.8,0,5.7,0c0.5,0,0.7-0.1,0.7-0.7
	c0-18.1,0-36.2,0-54.4c0-0.5-0.1-0.7-0.7-0.7c-2.9,0-5.9,0-8.8,0c-0.5-0.1-0.9,0.2-1.1,0.7c-4.7,12.7-9.5,25.3-14.3,38l-3,7.9
	c-0.2-0.2-0.3-0.5-0.4-0.7c-5.7-15-11.3-30.1-16.9-45.1c-0.1-0.5-0.6-0.8-1.1-0.7c-2.9,0-5.8,0-8.6,0c-0.6,0-0.8,0.1-0.8,0.8
	c0,6.2,0,12.4,0,18.7c0,11.8,0,23.7,0,35.5c0,0.6,0.2,0.8,0.8,0.8c1.8,0,3.6,0,5.4,0c0.7,0,0.9-0.1,0.9-0.9c0-14.8,0-29.5,0-44.3
	v-0.8c0.2,0.2,0.4,0.5,0.5,0.8l3.8,10.1c4.3,11.4,8.6,22.9,12.9,34.3c0.1,0.5,0.6,0.8,1.1,0.7c1.6,0,3.2,0,4.8,0
	c0.4,0.1,0.9-0.2,1-0.6c4.4-11.9,8.9-23.8,13.3-35.6L76.5,93z M181.1,103.8c-0.3,0-0.3-0.2-0.4-0.3c-1.3-1.6-3-2.9-4.9-3.8
	c-3.7-1.7-7.8-2.3-11.8-1.7c-6.3,0.4-11.8,4.3-14.3,10.1c-2.8,6.3-3.2,13.4-1,19.9c1.5,5.2,5.4,9.3,10.6,11c4.2,1.4,8.8,1.5,13,0.3
	c3.7-1,6.9-3.4,8.9-6.7c1.4-2.3,2.3-4.8,2.8-7.4c0.2-0.8-0.1-0.8-0.7-0.8c-1.7,0-3.3,0-5,0c-0.8,0-1.1,0.2-1.2,1
	c-0.4,2.6-1.7,5-3.8,6.7c-5,3.8-12.1,2.8-15.9-2.2c-0.6-0.8-1.1-1.7-1.5-2.7c-1.6-4.2-1.8-8.9-0.8-13.3c0.4-2.8,1.8-5.3,3.8-7.3
	c2.4-2,5.4-3,8.5-2.8c4.5-0.2,8.5,3,9.5,7.4c0.3,1.2,1,1.6,2.2,1.2c0.4-0.1,0.7-0.3,1.1-0.5c1.3-0.8,2.5-1.6,3.7-2.6
	c0.3-0.3,0.8-0.4,1.3-0.3c1.3,0.3,2.7,0.3,4.1,0c0.7-0.2,0.8,0,0.8,0.7c-0.1,3.3,1.6,6.3,4.4,8c1.5,0.9,3.1,1.6,4.8,2.1
	c3.2,1,6.5,1.5,9.7,2.3c1.8,0.4,3.6,1.1,5.2,2.1c1.8,1.1,2.6,3.3,2,5.3c-0.5,2-2.2,3.6-4.2,4c-3,0.9-6.2,1-9.2,0.3
	c-3.6-0.7-6.7-2.8-6.9-7.1c0-0.3-0.2-0.4-0.5-0.4c-1.9,0-3.8,0-5.7,0c-0.4,0-0.5,0.2-0.5,0.5c0.1,0.6,0.1,1.2,0.2,1.7
	c0.5,4,3,7.5,6.7,9.3c3,1.5,6.4,2.2,9.8,2.1c3.7,0.2,7.4-0.5,10.8-2.1c4-1.7,6.6-5.5,6.7-9.8c0.5-4.3-1.9-8.3-5.9-9.9
	c-1.4-0.7-2.8-1.2-4.2-1.6c-3.3-0.8-6.5-1.5-9.8-2.4c-1.8-0.4-3.5-1.1-4.9-2.3c-1.7-1.5-2-4.1-0.5-5.8c0.1-0.2,0.3-0.3,0.4-0.4
	c0.7-0.6,1.4-1.1,2.3-1.3c2.6-0.8,5.5-1,8.2-0.3c3.3,0.7,5.5,2.5,6,6c0,0.4,0.3,0.4,0.6,0.4h4.5c1.7,0,1.7,0,1.5-1.6
	c-0.3-4.6-3.5-8.5-7.9-9.8c-5.1-1.7-10.6-1.7-15.7,0c-0.2,0-0.3,0.2-0.5,0c0.5-4.9,0.3-9.6-2-14.2l-0.5,0.8
	c-0.7,1.1-1.2,2.2-1.8,3.3c-0.7,1.4-2,2.5-3.5,3c-1.3,0.5-2.6,1.1-3.7,2c-2,1.3-3.5,3.4-4.1,5.7C180.9,101,180.9,102.4,181.1,103.8
	L181.1,103.8z M116.3,134c0,0.6,0.1,1,0.2,1.5c0.1,2,1.4,3.7,3.3,4.3c2.2,0.6,4.5,0.4,6.5-0.5c0.3-0.1,0.5-0.4,0.5-0.8
	c0-1,0-2.1,0-3.1c0-0.5,0.1-1.1-0.1-1.4c-0.3-0.3-0.8,0.1-1.3,0.2c-1.7,0.2-2.4-0.3-2.7-2c0-0.3-0.1-0.6-0.1-0.9
	c0-7.6,0-15.1,0-22.7c0.2-4.3-2.6-8.3-6.8-9.5c-4.9-1.5-10.2-1.6-15.2-0.3c-2.6,0.6-5,1.9-6.8,3.8c-2.1,2.3-3.3,5.2-3.4,8.3
	c0,0.5,0.1,0.5,0.5,0.5c1.8,0,3.6,0,5.4,0c0.5,0,0.7-0.1,0.8-0.7c0.1-3.1,2.3-5.7,5.3-6.4c2.9-0.8,5.9-0.8,8.8-0.1
	c2.5,0.4,4.5,2.5,4.7,5c0.6,2.2-0.7,4.6-2.9,5.2c0,0-0.1,0-0.1,0l-0.6,0.2c-2.4,0.6-4.8,1-7.3,1.3c-3.1,0.4-6.2,1.1-9.1,2.2
	c-2.9,0.9-5.2,3.1-6.3,5.9c-0.7,2-1,4.1-0.7,6.1c0.1,3.7,2.4,7.1,5.9,8.5c4.5,1.9,9.6,2,14.1,0.4C111.8,138,114.3,136.3,116.3,134
	L116.3,134z M135,107.2c0-2.6,0-5.1,0-7.7c0-0.5-0.1-0.7-0.6-0.7c-1.7,0-3.4,0-5.1,0c-0.4,0-0.6,0.1-0.6,0.6c0,13,0,26.1,0,39.1
	c0,0.5,0.2,0.6,0.7,0.6c1.8,0,3.5,0,5.3,0c0.6,0,0.7-0.2,0.7-0.7c0-5.7,0-11.5,0-17.2c0-2.4,0.2-4.8,0.9-7.1c0.9-3.9,3.7-7,7.5-8.3
	c1.8-0.6,3.8-0.9,5.7-0.9c0.3,0,0.6,0,0.6-0.5c0-2.1,0-4.1,0-6.1c0-0.3,0-0.4-0.4-0.5c-4.1-0.3-8.1,1.3-10.9,4.2
	C137.3,103.6,136.1,105.3,135,107.2L135,107.2z"/>
<path class="st1" d="M5,146.2h240c0,1.1,0,2.1,0,3.1c0,6.3,0,12.7,0,19c0.1,3.2-2.4,5.9-5.6,6.1c-0.2,0-0.3,0-0.5,0H11.3
	c-3.2,0.2-6-2.2-6.3-5.5c0-0.3,0-0.6,0-0.8c0-7,0-14.1,0-21.1C5,146.8,5,146.5,5,146.2z M52.1,163c-0.1,0.7,0.4,1.3,1,1.5
	c0.7,0.2,1.4,0.3,2.2,0.3c0.4,0,0.7-0.3,0.7-0.6c0-0.1,0-0.2-0.1-0.3c-0.2-0.4-0.4-0.7-0.7-1c-0.8-0.7-1.5-1.3-2.2-2
	c-0.4-0.3-0.3-0.6,0.1-0.7c0.7-0.2,1.4-0.2,2.1,0c0.3,0,0.7,0.2,0.9-0.1c0.1-0.4,0-0.8-0.3-1c-0.2-0.2-0.5-0.3-0.9-0.3h-2
	c-0.4,0-0.9,0.1-1.3,0.3c-0.7,0.4-0.9,0.7-0.5,1.5c0.3,0.6,0.7,1.1,1.1,1.6C52.7,162.4,52.6,162.7,52.1,163
	c-0.1-0.3-0.2-0.4-0.7-0.3c-1.5,0.5-3,0.8-4.6,1c-0.8,0.1-1.1-0.3-1-1c0.2-1,0.9-1.8,1.8-2.3c-0.2,0.5-0.4,1-0.6,1.4
	c-0.2,0.4,0,1,0.4,1.2c0.1,0,0.1,0.1,0.2,0.1c0.5,0.2,0.8-0.1,0.8-0.6c0-0.2,0.1-0.3,0.2-0.4c0.3-0.5,0.6-1,0.8-1.5
	c0.4-1.1-0.2-1.9-1.3-1.8c-1.6,0.2-2.9,1.3-3.5,2.7c-1,1.8,0,3.4,2,3.4c1.8,0,3.5-0.5,4.9-1.5C51.7,163.1,51.8,162.8,52.1,163
	L52.1,163z M200.3,162.7c0.3,0.5,0.7,1,1.1,1.5c0.6,0.7,1.1,0.7,1.6,0c1.2-1.5,2-3.3,2.4-5.2c0-0.3,0.3-0.7-0.1-0.8
	s-0.7,0.2-0.9,0.5c-0.1,0.1-0.1,0.3-0.2,0.4c-0.4,0.9-0.9,1.8-1.3,2.7c-0.3,0.5-0.6,1.3-1,1.2c-0.5-0.1-0.8-0.9-0.9-1.5
	c-0.1-0.5-0.2-1-0.5-1.4c-0.1-0.3-0.4-0.4-0.7-0.3c-0.3,0.1-0.1,0.4-0.1,0.6c0,0.8,0.4,1.5,0.5,2.4c-1.3-0.1-1.3-0.1-1.3-1.4
	c0-0.4,0-0.7,0.1-1.1c0-0.3,0-0.7-0.2-1c-0.2-0.5-0.5-0.5-0.9-0.5c-0.4,0-0.4,0.4-0.4,0.7c0,0.9,0,1.9,0,2.9c0,0.3-0.1,0.5-0.5,0.5
	c-2.3,0.3-4.6,0.6-6.9,0.8c-1.1,0.2-2.1,0.3-3.2,0.2c-1.8-0.2-2.4-1.1-2.1-2.8c0.4-1.5,1-3,1.8-4.5c0.6-1.5,2-2.4,2.4-4
	c0.2-0.6,0.1-1-0.7-1.3c-0.4-0.3-0.9-0.2-1.2,0.1c-0.1,0.1-0.1,0.2-0.1,0.2c-0.5,1-1.1,1.9-1.7,2.8c-1.2,1.9-2.1,3.9-2.7,6.1
	c-0.4,2.4,0.1,3.6,2.4,4.4c1.7,0.5,3.6,0.6,5.3,0.3c2-0.2,3.9-0.5,5.9-0.9c0.7-0.1,1.3-0.3,2,0.4c0.3,0.3,0.7,0.3,1,0.1
	c0.2-0.1,0.5-0.3,0.3-0.6c-0.2-0.5,0.1-0.7,0.4-1C200.2,163.1,200.4,162.9,200.3,162.7L200.3,162.7z M83.8,151.2
	c-2.2,0.2-4.2,0.9-6.1,2c-0.7,0.3-1.3,0.8-1.9,1.3c-0.5,0.4-0.6,1.1-0.3,1.7c0.4,0.8,1.1,1.5,1.9,1.8c2.1,0.8,4.3,1.3,6.4,1.8
	c0.2,0,0.4,0,0.5,0.2c0.1,0.2-0.2,0.4-0.4,0.5c-1.7,1.3-3.8,2.1-5.9,2.3c-1.8,0.2-3.6,0.5-5-1.1c-0.1-0.1-0.3-0.2-0.4,0
	c-0.3,0.4-0.6,0.8-0.2,1.3c0.6,0.8,1.5,1.3,2.4,1.5c1.6,0.2,3.2,0.1,4.7-0.3c2.7-0.5,5.2-1.7,7.3-3.4c0.5-0.4,0.5-0.8,0-1.2
	c-0.7-0.6-1.5-1.1-2.4-1.3c-2-0.4-4.1-1-6-1.8c-0.9-0.4-1-0.7-0.2-1.3c1.8-1.6,4.2-2.4,6.6-2.2c0.4,0.1,0.9-0.1,1.1-0.5
	c0.2-0.4-0.2-0.7-0.6-1C84.9,151.2,84.3,151.1,83.8,151.2L83.8,151.2z M142.4,151.2c-2,0.2-3.9,0.8-5.6,1.7
	c-0.9,0.4-1.6,0.9-2.3,1.5c-0.6,0.4-0.8,1.3-0.3,1.9c0,0,0.1,0.1,0.1,0.1c0.5,0.8,1.2,1.4,2.1,1.7c2,0.6,4,1.2,6,1.7
	c0.2,0,0.6,0,0.6,0.3s-0.3,0.4-0.5,0.5c-2.2,1.5-4.8,2.3-7.5,2.4c-1.1,0.1-2.2-0.2-3.1-1c-0.5-0.5-0.8-0.4-1.1,0.3
	c-0.1,0.3,0,0.7,0.2,0.9c0.6,0.7,1.4,1.2,2.3,1.3c1.8,0.3,3.7,0.1,5.5-0.4c2.4-0.5,4.7-1.6,6.6-3.2c0.6-0.5,0.6-0.8,0-1.3
	c-0.7-0.6-1.5-1.1-2.4-1.3c-2-0.4-4-1-5.9-1.8c-0.9-0.4-1-0.7-0.2-1.3c1.8-1.6,4.1-2.4,6.5-2.3c0.4,0.1,0.9-0.1,1.1-0.5
	c0.2-0.4-0.2-0.7-0.5-0.9C143.5,151.2,143,151.1,142.4,151.2L142.4,151.2z M147.8,159.6l0.3,0.8c0.3,1.2,0.8,2.3,1.3,3.4
	c0.1,0.2,0.3,0.5,0.6,0.5c0.3,0,0.4-0.3,0.5-0.6c0.3-1.1,0.8-2.2,1.3-3.2c0.5,0.5,0.9,1.1,1.1,1.7c0.5,1,1.3,1.9,2.1,2.7
	c0.3,0.2,0.6,0.5,0.9,0.1c0.9-1,2.2-1.5,3.1-2.5c0.1,0.4,0.2,0.6,0.2,0.8c0.2,0.8,0.7,1.5,1.5,1.8c0.4,0.2,0.9,0.3,1.1,0
	c0.3-0.3-0.1-0.7-0.4-0.9c-0.6-0.6-0.9-1.5-0.7-2.3c0.2-0.8,0.4-1.5,0.6-2.3c0.2-0.8-0.1-1.2-1-1.2c-1,0-1.9,0.3-2.8,0.7
	c-1.4,0.7-2.5,2-2.9,3.5c-0.2-0.4-0.3-0.6-0.5-0.9c-0.3-0.7-0.7-1.4-1.2-2.1c-1-1.4-1.9-1.2-2.6,0.3c-0.1,0.3-0.2,0.6-0.3,0.8
	c-0.1,0.3,0,0.4-0.3,0.5c-0.2-1-0.7-2-1.3-2.9c-0.8-0.9-1.5-0.8-1.9,0.4c-0.1,0.3-0.2,0.6-0.2,0.9c-0.1,1.9,0.2,3.8,0.9,5.5
	c0.2,0.6,0.6,1.2,1.1,1.6c0.2,0.1,0.4,0.3,0.6,0.1c0.2-0.2,0-0.4,0-0.5c-0.4-0.9-0.7-1.7-1-2.7C147.4,162.3,147.4,160.9,147.8,159.6
	L147.8,159.6z M56.2,160.1c0,0.4,0,1,0.1,1.6c0,0.9,0.3,1.7,0.8,2.4c0.6,0.8,1.1,0.8,1.7,0c0.6-0.8,1.3-1.8,2.1-2.7
	c0.5-0.6,1-0.5,1.3,0.3c0.4,0.8,0.6,1.5,1,2.3c0.5,1.1,1.1,2.1,2,3c0.5,0.6,1.3,0.6,1.9,0.1c0.1-0.1,0.1-0.1,0.2-0.2
	c0.4-0.4,0.3-0.5-0.2-0.7c-1-0.4-1.8-1.2-2.1-2.2c-0.2-0.7-0.5-1.5-0.9-2.2c-0.4-0.9-1-1.8-1.7-2.4c-0.5-0.5-1.3-0.6-1.9-0.1
	c0,0-0.1,0.1-0.1,0.1c-0.7,0.7-1.4,1.4-2,2.2c-0.1,0.1-0.2,0.4-0.4,0.3c-0.2-0.1-0.2-0.3-0.2-0.5c0-1.4,0.1-2.8,0.3-4.2
	c0.1-1.4,0.6-2.8,1.5-4c0.3-0.3,0.4-0.6,0.2-1c-0.2-0.5-0.7-0.9-1.3-0.9c-0.5,0-0.5,0.4-0.7,0.7C57,154.6,56.5,157.3,56.2,160.1
	L56.2,160.1z M34.2,151.1c-1.8,0.1-3.5,0.7-5,1.5c-0.4,0.2-0.8,0.4-1.1,0.7c-0.4,0.2-0.5,0.8-0.3,1.1c0,0.1,0.1,0.1,0.2,0.2
	c0.2,0.2,0.3,0.5,0.2,0.7c-0.2,0.9-0.3,1.8-0.5,2.7c0,0.3-0.3,0.5-0.5,0.5c-0.6,0.1-1.3,0.2-1.9,0.4c-0.3,0.1-0.6,0.1-0.7,0.5
	c0,0.4,0.2,0.8,0.6,0.9c0.5,0.2,1.1,0.2,1.5-0.1c0.4-0.3,0.6-0.3,0.6,0.3c0,1.1,0.1,2.2,0.3,3.3c0,0.3,0.1,0.6,0.4,0.7
	c0.3,0.1,0.4-0.3,0.6-0.4s0.3-0.5,0.3-0.8c-0.1-0.7-0.2-1.5-0.3-2.3c-0.1-1.2,0.1-1.6,1.2-1.9c0.4-0.1,0.8-0.2,1.3-0.3
	c0.9-0.2,1.8-0.3,2.7-0.5c0.6-0.2,1.2-0.4,1.9-0.4c0.7,0,1.3-0.1,2-0.2c0.6,0,1.3,0,1.9-0.2c0.1,0,0.4-0.1,0.4-0.3
	c0-0.2-0.2-0.2-0.4-0.2c-1.8-0.2-3.6-0.2-5.4,0.1c-1.5,0.2-3.1,0.4-4.6,0.8c-0.3,0-0.5-0.2-0.8-0.2c-0.3,0-0.1-0.2-0.1-0.3
	c0.1-0.4,0.2,0,0.2,0c0.3,0.1,0.3-0.1,0.3-0.3c0-0.4,0.2-0.7,0.3-1c0.1-0.3,0.5-1.1,0.3-1.3c-0.5-0.8,0.1-1,0.5-1.3
	c0.4-0.3,0.9-0.5,1.3-0.7c1.2-0.6,2.6-0.8,3.9-0.5c0.6,0.1,1.1,0.4,1.2,1.1c0,0.1-0.1,0.4,0.2,0.4c0.3,0,0.2-0.2,0.3-0.3
	c0.2-0.3,0.2-0.6,0.1-0.9C37.2,151.6,36.3,151,34.2,151.1L34.2,151.1z M114,162.9c0,1.6-0.4,3.1-1,4.5c-0.2,0.6-0.7,0.9-1.3,0.9
	c-0.6,0-0.9-0.5-1-1c-0.1-0.2-0.1-0.5-0.4-0.5c-0.3,0-0.6,0.3-0.6,0.6c-0.2,0.9,0.3,1.9,1.2,2.2c1.1,0.4,2.4-0.1,3-1.1
	c0.6-1.6,1.1-3.3,1.3-5.1c0.3-1.2,0.2-2.5-0.2-3.8c-0.2-0.9-1.1-1.5-2-1.3c-1.4,0.2-2.7,1.1-3.4,2.4c-0.7,1.3-0.4,2.7,1.5,2.8h0.2
	C112.3,163.7,113.3,163.4,114,162.9L114,162.9z M219.1,162.9c0,1.5-0.3,3.1-0.9,4.5c-0.2,0.6-0.7,1-1.3,1c-0.7,0-0.9-0.5-1.1-1.1
	c0-0.2-0.1-0.5-0.4-0.4c-0.3,0-0.5,0.2-0.6,0.5c-0.2,0.9,0.2,1.9,1.1,2.3c1.2,0.4,2.4,0,3.1-1.1c0.8-2.1,1.3-4.2,1.5-6.4
	c0.1-0.9,0-1.7-0.4-2.5c-0.2-0.7-0.8-1.1-1.5-1.2c-1.7,0.2-3.2,1.3-4,2.8c-0.4,0.9,0,1.9,0.9,2.2c0.2,0.1,0.3,0.1,0.5,0.1
	C217.1,163.8,218.3,163.6,219.1,162.9L219.1,162.9z M91.5,162.5l0.1,0.7c0.2,0.8,0.8,1.5,1.5,1.9c0.3,0.2,0.8,0.2,1.1,0
	c0.3-0.3,0-0.7-0.3-0.9c-0.7-0.7-0.9-1.8-0.6-2.8c0.2-0.6,0.4-1.3,0.5-1.9c0.1-0.9-0.1-1.2-1-1.1c-2.8,0.2-5.2,1.3-5.9,4.8
	c-0.1,0.5-0.3,1.1,0.2,1.5c0.5,0.3,1.1,0.3,1.6,0c0.2-0.1,0.4-0.2,0.6-0.4L91.5,162.5z M174.1,160.7c0.3-0.1,0.6,0,0.9-0.1
	c0.3-0.1,0.4,0,0.4-0.3c0-0.3-0.2-0.3-0.4-0.4c-0.2-0.1-0.5-0.2-0.7-0.2c-0.9-0.1-1.8-0.2-2.7-0.1c-0.9,0.1-0.9,0.1-1.1-0.8
	c-0.2-1.1-0.4-2.3-0.7-3.4c-0.1-0.3-0.2-0.7-0.7-0.7c-0.5,0.1-0.4,0.5-0.4,0.8c0,1.3,0.3,2.6,0.7,3.8c0.1,0.5,0,0.6-0.4,0.8
	c-0.6,0.2-1.2,0.6-1.7,1c-0.4,0.3-0.5,0.8-0.2,1.2c0.8,1.3,2.1,2.1,3.6,2.4c0.8,0.1,1.3-0.5,1.2-1.3c-0.1-0.7-0.3-1.4-0.6-2.1
	c-0.1-0.4,0-0.5,0.3-0.5C172.5,160.6,173.4,160.6,174.1,160.7L174.1,160.7z M104,162.3c-0.1-0.9-0.1-1.8,0-2.7
	c0-0.3-0.1-0.5-0.2-0.7c-0.2-0.3-0.4-0.5-0.8-0.4c-0.3,0.1-0.4,0.4-0.4,0.7c0,0.6,0,1.2,0,1.8c0,0.9,0,1.8,0.1,2.7
	c0.1,0.4,0.1,0.9,0.6,1c0.5,0.1,0.8-0.2,1-0.5c0.5-0.6,1-1.2,1.3-1.9c0.1-0.3,0.2-0.6,0.5-0.8c0.2,1.2,0.7,2.3,1.4,3.3
	c0.5,0.6,1.3,0.7,2,0.3c0.4-0.2,0.4-0.5,0.3-0.8c0-0.3-0.2-0.4-0.5-0.5c-1.1-0.1-1.3-0.4-1.6-1.3c-0.2-0.9-0.4-1.8-0.9-2.7
	c-0.3-0.6-0.7-0.6-1.2-0.2c-0.2,0.2-0.5,0.4-0.6,0.7C104.7,160.8,104.4,161.5,104,162.3z M211.5,161.3c0.2,0.6,0.3,1,0.3,1.3
	c0.2,0.8,0.6,1.6,1.2,2.1c0.5,0.5,1.4,0.6,2,0.3c0.3-0.2,0.4-0.5,0.3-0.8c0-0.3-0.3-0.5-0.6-0.5c-0.9,0-1.3-0.3-1.5-1.2
	c-0.2-0.6-0.3-1.2-0.5-1.8s-0.3-1.3-1-1.4s-1.1,0.7-1.4,1.2s-0.6,1-0.9,1.7c-0.1-0.9-0.1-1.7,0-2.6c0-0.4-0.1-0.7-0.4-1
	c-0.1-0.2-0.4-0.3-0.7-0.2c-0.2,0.1-0.4,0.3-0.4,0.5c0,0.4,0,0.8,0,1.2c-0.1,1.2,0,2.4,0.2,3.6c0.1,0.3,0.2,0.7,0.6,0.8
	c0.4,0.1,0.6-0.2,0.9-0.4c0.2-0.2,0.3-0.3,0.4-0.4C210.6,163.1,211.1,162.2,211.5,161.3L211.5,161.3z M40.3,162.3
	c-0.1-0.8-0.2-1.6-0.5-2.4c-0.1-0.3-0.4-0.5-0.8-0.4c-0.2,0-0.4,0.2-0.4,0.4c-0.3,1.5-0.1,3.1,0.8,4.4c0.3,0.5,1,0.6,1.4,0.3
	c0.2-0.1,0.3-0.3,0.4-0.5c0.5-1.2,1.1-2.4,1.6-3.6c0.1-0.2,0.1-0.5,0.4-0.4c0.3,0.1,0.7,0,0.8-0.3c0-0.1,0-0.1,0-0.2
	c0.1-0.4-0.1-0.9-0.5-1c-0.7-0.4-1.1-0.3-1.6,0.3C41.2,160,40.7,161.1,40.3,162.3z M163.5,162.3c-0.1-0.8-0.2-1.6-0.5-2.3
	c-0.1-0.3-0.4-0.5-0.7-0.5c-0.2,0-0.4,0.2-0.5,0.4c-0.4,1.5-0.1,3.2,0.8,4.5c0.3,0.5,1,0.5,1.4,0.2c0.1-0.1,0.3-0.2,0.3-0.4
	c0.5-1.2,1.1-2.5,1.6-3.7c0.1-0.2,0.1-0.5,0.4-0.4c0.3,0.1,0.6-0.1,0.7-0.4c0.1-0.3,0-0.7-0.2-0.9c-0.4-0.5-1.1-0.6-1.6-0.2
	c-0.1,0.1-0.2,0.1-0.2,0.2c-0.3,0.4-0.6,0.9-0.8,1.3C164.1,160.8,163.8,161.5,163.5,162.3z M118.8,158.6c-0.8-0.1-1.5,0.1-2.2,0.4
	c-0.5,0.1-0.7,0.6-0.6,1.1c0,0.1,0.1,0.2,0.1,0.2c0.3,0.7,0.8,1.3,1.3,1.8c0.2,0.2,0.4,0.3,0.1,0.7c-0.4,0.4-0.4,1,0,1.4
	c0.1,0.1,0.3,0.2,0.4,0.2c0.8,0.3,1.6,0.5,2.4,0.4c0.4,0,0.7-0.3,0.7-0.6c0-0.1,0-0.2-0.1-0.3c-0.2-0.4-0.4-0.8-0.8-1
	c-0.7-0.6-1.3-1.3-2.1-1.9c-0.5-0.4-0.3-0.6,0.2-0.8c0.7-0.2,1.4-0.2,2.1,0c0.3,0,0.6,0.2,0.8-0.1c0.2-0.3,0-0.6-0.2-0.8
	c-0.2-0.3-0.5-0.5-0.9-0.5L118.8,158.6z M94.3,160.1c0.1,1.5,0.7,2.9,1.7,4c0.6,0.7,1.1,0.7,1.6,0c1.2-1.6,2-3.3,2.4-5.3
	c0-0.3,0.3-0.6-0.1-0.8c-0.4-0.2-0.6,0.2-0.8,0.4c-0.1,0.1-0.2,0.3-0.2,0.5c-0.5,0.9-0.9,1.8-1.3,2.7c-0.3,0.5-0.6,1.3-1.1,1.2
	c-0.5-0.1-0.7-0.9-0.9-1.6c-0.1-0.5-0.2-0.9-0.5-1.3c-0.1-0.3-0.4-0.4-0.7-0.3C94.2,159.7,94.3,159.9,94.3,160.1z M100.2,161
	c0,0.9,0,1.8,0.3,2.7c0.1,0.6,0.7,1.1,1.3,1.1c0.6,0,0.9-0.5,0.7-0.9c-0.6-1.2-0.8-2.5-0.5-3.8c0-0.4-0.1-0.8-0.3-1.1
	c-0.2-0.4-0.5-0.4-0.9-0.4c-0.3,0-0.4,0.3-0.4,0.6C100.3,159.8,100.2,160.4,100.2,161L100.2,161z M207.3,161c0.1-0.7,0-1.4-0.2-2
	c-0.2-0.4-0.5-0.4-0.9-0.4c-0.4,0-0.4,0.3-0.4,0.6c-0.1,0.8-0.1,1.6-0.1,2.3c-0.1,0.8,0,1.6,0.3,2.3c0.2,0.6,0.7,0.9,1.2,1
	c0.6,0,1-0.4,0.7-1C207.4,163,207.1,162,207.3,161L207.3,161z M199.3,152.8c0-0.9-0.3-1.2-1.1-1.2c-0.8-0.1-0.7,0.3-0.8,0.8
	c0,0.6,0.5,1.1,1.1,1.2C199,153.5,199.4,153.3,199.3,152.8L199.3,152.8z M122.6,162.7c-0.4,0-0.8,0.1-0.7,0.7c0,0.6,0.5,1.3,1.1,1.3
	c0.5-0.1,0.9-0.5,0.9-1C123.9,163.2,123.3,162.7,122.6,162.7L122.6,162.7z M207.6,152.8c0-0.9-0.3-1.2-1.1-1.2s-0.7,0.4-0.8,0.8
	c0.1,0.6,0.5,1.1,1.1,1.2C207.3,153.5,207.7,153.3,207.6,152.8L207.6,152.8z M222.2,162.7c-0.4,0-0.7,0.1-0.7,0.7
	c0,0.6,0.5,1.3,1,1.3c0.5-0.1,0.9-0.5,0.9-1C223.4,163.1,222.9,162.7,222.2,162.7L222.2,162.7z M102.2,152.8c0-0.9-0.3-1.2-1.1-1.2
	s-0.7,0.4-0.7,0.8c0.1,0.6,0.5,1.1,1.1,1.2C101.8,153.5,102.2,153.3,102.2,152.8L102.2,152.8z"/>
<path class="st2" d="M76.5,93l-3.7,9.9c-4.4,11.9-8.9,23.8-13.3,35.6c-0.1,0.4-0.5,0.7-1,0.6c-1.6,0-3.2,0-4.8,0
	c-0.5,0.1-1-0.2-1.1-0.7c-4.3-11.5-8.6-22.9-12.9-34.4l-3.8-10.2c-0.1-0.3-0.3-0.6-0.5-0.8v0.8c0,14.8,0,29.5,0,44.3
	c0,0.8-0.2,0.9-0.9,0.9c-1.8,0-3.6,0-5.4,0c-0.6,0-0.8-0.2-0.8-0.8c0-11.8,0-23.7,0-35.5c0-6.2,0-12.4,0-18.7c0-0.6,0.2-0.8,0.8-0.8
	c2.9,0,5.8,0,8.6,0c0.5-0.1,1,0.2,1.1,0.7c5.6,15.1,11.3,30.1,16.9,45.1c0.1,0.3,0.2,0.5,0.4,0.7l3-7.9c4.8-12.6,9.5-25.3,14.3-38
	c0.1-0.5,0.6-0.8,1.1-0.7c2.9,0,5.9,0,8.8,0c0.5,0,0.7,0.1,0.7,0.7c0,18.1,0,36.2,0,54.4c0,0.5-0.2,0.7-0.7,0.7c-1.9,0-3.8,0-5.7,0
	c-0.6,0-0.7-0.1-0.7-0.7c0-2.6,0-5.1,0-7.7c0-12.3,0-24.5,0-36.8C76.7,93.6,76.6,93.3,76.5,93z"/>
<path class="st2" d="M181.1,103.8c-0.2-1.3-0.1-2.7,0.2-4c0.6-2.3,2.1-4.3,4.1-5.7c1.1-0.8,2.4-1.5,3.7-2c1.5-0.6,2.7-1.6,3.5-3
	c0.7-1.1,1.1-2.3,1.8-3.3l0.5-0.8c2.4,4.5,2.5,9.3,2,14.2c0.2,0.1,0.4,0,0.5,0c5.1-1.7,10.6-1.7,15.7,0c4.4,1.3,7.6,5.2,7.9,9.8
	c0.2,1.6,0.2,1.6-1.5,1.6h-4.5c-0.3,0-0.6,0-0.6-0.4c-0.5-3.5-2.7-5.3-6-6c-2.7-0.6-5.5-0.5-8.2,0.3c-0.8,0.3-1.6,0.7-2.3,1.3
	c-1.7,1.5-1.9,4.1-0.3,5.9c0.1,0.1,0.3,0.3,0.4,0.4c1.4,1.1,3.1,1.9,4.9,2.3c3.3,0.8,6.5,1.6,9.8,2.4c1.5,0.4,2.9,0.9,4.2,1.6
	c4,1.6,6.4,5.7,5.9,9.9c-0.1,4.3-2.8,8.2-6.7,9.8c-3.4,1.5-7.1,2.2-10.8,2.1c-3.4,0.1-6.7-0.7-9.8-2.1c-3.6-1.8-6.2-5.3-6.7-9.3
	c-0.1-0.6-0.1-1.2-0.2-1.7c0-0.4,0-0.5,0.5-0.5c1.9,0,3.8,0,5.7,0c0.3,0,0.5,0,0.5,0.4c0.3,4.2,3.4,6.4,6.9,7.1
	c3,0.6,6.2,0.5,9.2-0.3c2.1-0.4,3.7-2,4.2-4c0.6-2-0.3-4.2-2-5.3c-1.6-1-3.3-1.7-5.2-2.1c-3.2-0.8-6.5-1.3-9.7-2.3
	c-1.7-0.5-3.3-1.2-4.8-2.1c-2.8-1.7-4.5-4.7-4.4-8c0-0.6-0.1-0.8-0.8-0.7c-1.3,0.3-2.7,0.3-4.1,0c-0.4-0.1-0.9,0-1.2,0.3
	c-1.2,1-2.4,1.8-3.7,2.6c-0.3,0.2-0.7,0.4-1.1,0.5c-1.2,0.4-1.9,0-2.2-1.2c-0.9-4.4-4.9-7.5-9.5-7.4c-3.1-0.2-6.1,0.8-8.5,2.8
	c-2,1.9-3.4,4.5-3.8,7.3c-1,4.4-0.8,9,0.8,13.3c2.3,5.8,8.9,8.7,14.7,6.4c1-0.4,1.9-0.9,2.7-1.5c2.1-1.7,3.4-4,3.8-6.7
	c0.1-0.8,0.4-1,1.2-1c1.7,0.1,3.3,0,5,0c0.6,0,0.9,0,0.7,0.8c-0.5,2.6-1.4,5.1-2.8,7.4c-2,3.3-5.2,5.7-8.9,6.7
	c-4.3,1.3-8.8,1.2-13-0.3c-5.2-1.7-9.1-5.8-10.6-11c-2.2-6.5-1.8-13.6,1-19.9c2.4-5.8,8-9.7,14.3-10.1c4-0.5,8.1,0.1,11.8,1.7
	c1.9,0.9,3.6,2.1,4.9,3.8C180.8,103.7,180.8,103.8,181.1,103.8z M190.8,100l0.1,0.2c0,0.2-0.2,0.3-0.3,0.5c-2.7,3.3-6,6.1-9.7,8.3
	c-0.9,0.5-1.8,1-2.7,1.5c-0.3,0.1-0.5,0.5-0.4,0.9c0,0,0,0,0,0c0.1,0.4,0.5,0.3,0.8,0.2c0.3-0.1,0.6-0.3,0.9-0.4
	c1.4-0.8,2.6-1.7,3.8-2.7c0.4-0.4,1-0.5,1.5-0.3c1.9,0.4,3.9,0.3,5.7-0.5c2.5-1.2,4.4-3.4,5-6.2c1-3.6,1.1-7.4,0.4-11
	c-0.2-1.2-0.5-2.4-1.1-3.5c-0.5,0.8-0.8,1.6-1.2,2.3c-0.9,1.9-2.6,3.3-4.5,3.9c-1.2,0.4-2.4,1.1-3.4,1.9c-3.3,2.2-4.6,6.3-3.4,10.1
	c0.3,0.9,0.3,0.9,1.1,0.5c1-0.5,1.9-1.2,2.8-1.8C187.8,102.6,189.2,101.2,190.8,100z"/>
<path class="st2" d="M116.3,134c-2,2.3-4.5,4-7.4,5c-4.6,1.7-9.6,1.5-14.1-0.4c-3.5-1.4-5.8-4.8-5.9-8.5c-0.2-2.1,0-4.2,0.7-6.1
	c1.1-2.8,3.5-5,6.3-5.9c3-1.1,6-1.8,9.1-2.2c2.4-0.3,4.9-0.7,7.3-1.3l0.6-0.2c2.3-0.6,3.6-2.9,3-5.1c0,0,0-0.1,0-0.1
	c-0.3-2.5-2.2-4.6-4.7-5c-2.9-0.7-6-0.7-8.8,0.1c-3,0.7-5.2,3.3-5.3,6.4c0,0.6-0.2,0.7-0.8,0.7c-1.8,0-3.6,0-5.4,0
	c-0.4,0-0.6,0-0.5-0.5c0.1-3.1,1.3-6.1,3.4-8.4c1.9-1.9,4.2-3.2,6.8-3.8c5-1.3,10.3-1.2,15.2,0.3c4.2,1.2,7,5.1,6.8,9.5
	c0,7.6,0,15.1,0,22.7c0,0.3,0,0.6,0.1,0.9c0.2,1.7,0.9,2.2,2.7,2c0.5,0,1.1-0.5,1.3-0.2c0.3,0.3,0.1,0.9,0.1,1.4c0,1,0,2.1,0,3.1
	c0.1,0.3-0.1,0.7-0.5,0.8c-2,0.9-4.3,1.1-6.5,0.5c-1.9-0.6-3.2-2.3-3.3-4.3C116.4,135,116.3,134.6,116.3,134z M116,118.3
	c-0.9,0.5-1.9,1-2.9,1.2c-2.3,0.5-4.6,0.9-7,1.1c-2.2,0.2-4.4,0.8-6.5,1.6c-2.7,1.1-4.2,4-3.7,6.8c0.3,2.4,2.1,4.2,5.1,4.7
	c3,0.6,6.2,0.3,9-1c3-1.1,5.2-3.6,5.8-6.8C116.1,123.5,116.1,120.9,116,118.3z"/>
<path class="st2" d="M135,107.2c1-1.8,2.2-3.5,3.6-5.1c2.8-2.9,6.8-4.5,10.9-4.2c0.3,0,0.4,0.2,0.4,0.5c0,2.1,0,4.1,0,6.1
	c0,0.5-0.3,0.5-0.6,0.5c-1.9,0-3.8,0.3-5.7,0.9c-3.8,1.3-6.6,4.4-7.5,8.3c-0.6,2.3-0.9,4.7-0.9,7.1c0,5.7,0,11.5,0,17.2
	c0,0.6-0.1,0.7-0.7,0.7c-1.8,0-3.5,0-5.3,0c-0.5,0-0.7-0.1-0.7-0.6c0-13,0-26.1,0-39.1c0-0.5,0.2-0.6,0.6-0.6c1.7,0,3.4,0,5.1,0
	c0.5,0,0.6,0.2,0.6,0.7C135,102.1,135,104.6,135,107.2z"/>
<path class="st2" d="M83.8,151.2c0.5-0.1,1,0,1.5,0.3c0.3,0.3,0.8,0.6,0.6,1c-0.2,0.4-0.7,0.6-1.1,0.5c-2.4-0.1-4.7,0.7-6.5,2.3
	c-0.8,0.6-0.7,0.9,0.2,1.3c2,0.7,4,1.3,6,1.7c0.9,0.2,1.7,0.7,2.4,1.3c0.5,0.4,0.5,0.8,0,1.2c-2.1,1.7-4.6,2.9-7.2,3.4
	c-1.5,0.4-3.2,0.5-4.7,0.3c-1-0.2-1.9-0.7-2.4-1.5c-0.4-0.5-0.1-1,0.2-1.3c0.1-0.2,0.3-0.1,0.4,0c1.4,1.6,3.2,1.3,5,1.1
	c2.1-0.3,4.2-1.1,5.9-2.3c0.2-0.1,0.4-0.2,0.4-0.5c-0.1-0.3-0.3-0.2-0.5-0.2c-2.1-0.6-4.3-1.1-6.4-1.8c-0.9-0.3-1.5-1-1.9-1.8
	c-0.3-0.5-0.2-1.2,0.3-1.7c0.5-0.6,1.2-1,1.9-1.3C79.6,152.2,81.7,151.5,83.8,151.2z"/>
<path class="st2" d="M142.5,151.2c0.5-0.1,1.1,0,1.5,0.3c0.3,0.3,0.7,0.6,0.5,0.9c-0.2,0.4-0.7,0.6-1.1,0.5
	c-2.4-0.1-4.7,0.7-6.5,2.3c-0.8,0.6-0.7,0.9,0.2,1.3c1.9,0.7,3.9,1.3,5.9,1.8c0.9,0.2,1.7,0.7,2.4,1.3c0.6,0.5,0.6,0.8,0,1.3
	c-1.9,1.6-4.1,2.7-6.6,3.2c-1.8,0.6-3.6,0.7-5.5,0.4c-0.9-0.1-1.7-0.6-2.3-1.3c-0.2-0.2-0.3-0.6-0.2-0.9c0.3-0.7,0.5-0.8,1.1-0.3
	c0.8,0.8,2,1.1,3.1,1c2.7-0.1,5.3-0.9,7.5-2.4c0.2-0.1,0.6-0.2,0.5-0.5c-0.1-0.3-0.4-0.2-0.6-0.3c-2-0.5-4-1-6-1.7
	c-0.9-0.3-1.6-0.9-2.1-1.7c-0.5-0.6-0.4-1.4,0.1-1.9c0,0,0.1-0.1,0.1-0.1c0.7-0.6,1.4-1.2,2.3-1.5
	C138.6,152.1,140.5,151.5,142.5,151.2z"/>
<path class="st2" d="M200.4,162.6c0,0.2-0.1,0.4-0.3,0.5c-0.3,0.2-0.6,0.5-0.4,1c0.1,0.3-0.1,0.5-0.3,0.6c-0.3,0.2-0.8,0.1-1-0.1
	c-0.6-0.7-1.3-0.5-2-0.4c-1.9,0.4-3.9,0.7-5.9,0.9c-1.8,0.3-3.6,0.2-5.3-0.3c-2.3-0.8-2.8-2-2.4-4.4c0.5-2.2,1.4-4.2,2.7-6.1
	c0.5-1,1.1-1.9,1.7-2.8c0.2-0.4,0.6-0.7,1.1-0.5c0.1,0,0.2,0.1,0.2,0.1c0.8,0.4,0.9,0.7,0.7,1.3c-0.4,1.6-1.8,2.5-2.4,4
	c-0.7,1.4-1.3,2.9-1.8,4.5c-0.4,1.8,0.3,2.7,2.1,2.8c1.1,0.1,2.1,0,3.2-0.2c2.3-0.3,4.6-0.6,6.9-0.8c0.4,0,0.5-0.2,0.5-0.5
	c0-0.9,0-1.9,0-2.9c0-0.3,0-0.7,0.4-0.7c0.4-0.1,0.8,0,0.9,0.5c0.2,0.3,0.2,0.6,0.2,1c0,0.4,0,0.7-0.1,1.1c-0.1,1.3-0.1,1.3,1.3,1.4
	l0,0C200.3,162.7,200.3,162.7,200.4,162.6L200.4,162.6z"/>
<path class="st2" d="M147.9,159.6c-0.4,1.3-0.4,2.7,0,4c0.2,0.9,0.6,1.8,1,2.7c0.1,0.2,0.2,0.4,0,0.5s-0.4,0-0.6-0.1
	c-0.5-0.4-0.9-1-1.1-1.6c-0.7-1.8-1-3.6-0.9-5.5c0-0.3,0.1-0.6,0.2-0.9c0.4-1.1,1.1-1.3,1.9-0.4c0.6,0.9,1.1,1.8,1.3,2.9
	c0.3,0,0.2-0.3,0.3-0.5c0.1-0.1,0.2-0.6,0.3-0.8c0.7-1.6,1.5-1.7,2.6-0.3c0.5,0.7,0.9,1.3,1.2,2.1c0.1,0.3,0.3,0.5,0.5,0.9
	c0.4-1.5,1.5-2.8,2.9-3.5c0.9-0.4,1.9-0.6,2.8-0.7c0.9,0,1.2,0.3,1,1.2c-0.2,0.9-0.4,1.6-0.6,2.3c-0.2,0.8,0,1.7,0.7,2.3
	c0.3,0.3,0.6,0.6,0.4,0.9c-0.2,0.3-0.8,0.2-1.1,0c-0.7-0.4-1.3-1-1.5-1.8c0-0.2-0.1-0.5-0.2-0.8c-0.9,1.1-2.2,1.6-3.1,2.5
	c-0.3,0.4-0.6,0.1-0.9-0.1c-0.9-0.7-1.6-1.6-2.1-2.7c-0.2-0.7-0.6-1.2-1.1-1.7c-0.5,1-1,2.1-1.3,3.2c-0.1,0.2-0.1,0.6-0.5,0.6
	c-0.4,0-0.5-0.2-0.6-0.5c-0.6-1.1-1-2.2-1.3-3.4L147.9,159.6z M159.7,159.6c-1.5,0.2-3.6,2-3.5,3.3
	C157.5,162,158.7,160.9,159.7,159.6L159.7,159.6z"/>
<path class="st2" d="M56.3,160.1c0.2-2.8,0.7-5.5,1.5-8.1c0.1-0.3,0.1-0.7,0.7-0.7c0.6,0,1.1,0.4,1.3,0.9c0.2,0.4,0.1,0.7-0.2,1
	c-0.9,1.2-1.4,2.6-1.5,4c-0.2,1.4-0.3,2.8-0.3,4.2c0,0.2,0,0.4,0.2,0.5c0.2,0.1,0.3-0.2,0.4-0.3c0.6-0.8,1.3-1.5,2-2.2
	c0.5-0.5,1.3-0.6,1.9-0.1c0,0,0.1,0.1,0.1,0.1c0.7,0.7,1.3,1.5,1.7,2.4c0.3,0.7,0.6,1.4,0.9,2.2c0.3,1,1.1,1.8,2.1,2.2
	c0.5,0.2,0.6,0.3,0.2,0.7c-0.4,0.6-1.3,0.7-1.9,0.3c-0.1-0.1-0.1-0.1-0.2-0.2c-0.8-0.8-1.5-1.9-2-3c-0.4-0.7-0.7-1.5-1-2.3
	c-0.3-0.8-0.8-0.9-1.3-0.3c-0.7,0.9-1.4,1.7-2.1,2.7s-1.1,0.8-1.7,0c-0.5-0.7-0.8-1.5-0.8-2.4C56.3,161,56.3,160.5,56.3,160.1z"/>
<path class="st2" d="M34.3,151.1c2.1,0,2.9,0.5,3.3,1.7c0.1,0.3,0.1,0.6-0.1,0.9c-0.1,0.1-0.1,0.3-0.3,0.3s-0.2-0.2-0.2-0.4
	c-0.1-0.7-0.7-0.9-1.2-1.1c-1.3-0.2-2.7-0.1-3.9,0.5c-0.5,0.2-0.9,0.4-1.3,0.7c-0.5,0.3-1,0.5-0.5,1.3c0.2,0.3-0.2,0.9-0.3,1.3
	c-0.1,0.4-0.3,0.6-0.3,1c0,0.1,0,0.4-0.3,0.3c0,0-0.1-0.4-0.2,0c0,0.1,0,0.3,0.1,0.3c0.1,0,0.5,0.2,0.8,0.2c1.5-0.3,3-0.6,4.6-0.8
	c1.8-0.3,3.6-0.3,5.4-0.1c0.2,0,0.4,0,0.4,0.2c0,0.2-0.2,0.2-0.4,0.3c-0.6,0.2-1.2,0.3-1.9,0.2c-0.7,0-1.3,0.2-2,0.2
	c-0.6,0.1-1.3,0.2-1.9,0.4c-0.9,0.2-1.8,0.3-2.7,0.5c-0.4,0.1-0.9,0.2-1.3,0.3c-1.2,0.4-1.3,0.7-1.2,1.9c0.1,0.7,0.2,1.5,0.3,2.3
	c0,0.3,0.1,0.6-0.3,0.8s-0.3,0.5-0.6,0.4c-0.3-0.1-0.4-0.4-0.4-0.7c-0.2-1.1-0.4-2.2-0.3-3.3c0-0.6-0.2-0.6-0.6-0.3
	c-0.4,0.3-1,0.4-1.5,0.1c-0.4-0.2-0.6-0.5-0.6-0.9c0-0.5,0.4-0.5,0.7-0.5c0.6-0.2,1.2-0.3,1.9-0.4c0.3,0,0.5-0.2,0.5-0.5
	c0.2-0.9,0.3-1.8,0.5-2.7c0.1-0.3,0-0.5-0.2-0.7c-0.3-0.3-0.4-0.8-0.1-1.2c0.1-0.1,0.1-0.1,0.2-0.2c0.3-0.3,0.7-0.5,1.1-0.7
	C30.8,151.8,32.5,151.2,34.3,151.1z"/>
<path class="st2" d="M114,162.9c-0.7,0.6-1.6,0.8-2.6,0.8h-0.2c-1.9-0.2-2.2-1.5-1.5-2.8c0.7-1.3,2-2.2,3.4-2.4
	c0.9-0.2,1.8,0.4,2,1.3c0.4,1.2,0.4,2.5,0.2,3.8c-0.3,1.7-0.7,3.4-1.3,5.1c-0.6,1-1.9,1.5-3,1.1c-0.9-0.4-1.4-1.3-1.2-2.2
	c0-0.3,0.3-0.6,0.6-0.6c0.3,0,0.3,0.3,0.4,0.5c0.2,0.5,0.4,1,1,1c0.6,0,1.1-0.3,1.3-0.9C113.7,165.9,114,164.4,114,162.9z
	 M112.2,161.9c0.6,0.1,1.1-0.1,1.5-0.6c0.1-0.3,0-0.6-0.2-0.7c-0.5-0.3-1.1-0.3-1.5,0c-0.4,0.2-0.8,0.5-0.7,0.9
	C111.3,161.9,111.9,161.9,112.2,161.9z"/>
<path class="st2" d="M219.2,162.9c-0.9,0.7-2,1-3.1,0.8c-0.9-0.1-1.6-1-1.5-1.9c0-0.2,0.1-0.3,0.1-0.5c0.8-1.6,2.3-2.6,4-2.8
	c0.7,0,1.3,0.5,1.5,1.2c0.3,0.8,0.4,1.7,0.4,2.5c-0.2,2.2-0.7,4.4-1.5,6.4c-0.7,1-1.9,1.5-3.1,1.1c-0.9-0.4-1.4-1.3-1.1-2.3
	c0-0.3,0.3-0.5,0.6-0.5c0.3,0,0.3,0.2,0.4,0.4c0.2,0.6,0.5,1.1,1.1,1.1c0.6,0,1.1-0.4,1.3-1C218.8,165.9,219.1,164.4,219.2,162.9z
	 M217.4,162c0.6,0.1,1.1-0.2,1.4-0.7c0.1-0.3,0-0.6-0.3-0.7c-0.5-0.3-1.1-0.3-1.5,0c-0.4,0.2-0.8,0.5-0.7,0.9
	C216.4,161.9,217,161.9,217.4,162L217.4,162z"/>
<path class="st2" d="M91.6,162.5l-2.1,1.6c-0.2,0.1-0.4,0.3-0.6,0.4c-0.5,0.3-1.1,0.3-1.6,0c-0.5-0.4-0.3-1-0.2-1.5
	c0.8-3.5,3.1-4.6,5.9-4.8c0.9,0,1.1,0.3,1,1.1c-0.1,0.6-0.3,1.3-0.5,1.9c-0.4,1-0.1,2,0.6,2.8c0.3,0.3,0.6,0.6,0.3,0.9
	c-0.3,0.2-0.8,0.2-1.1,0c-0.7-0.4-1.3-1.1-1.5-1.9L91.6,162.5z M88.6,163c1.5-0.8,2.7-2,3.5-3.5C90.4,160,89,161.3,88.6,163z"/>
<path class="st2" d="M174.2,160.7c-0.8-0.1-1.7-0.1-2.5,0.1c-0.4,0-0.5,0.2-0.3,0.5c0.3,0.7,0.5,1.4,0.6,2.1
	c0.1,0.8-0.4,1.5-1.2,1.3c-1.5-0.3-2.8-1.1-3.6-2.4c-0.3-0.4-0.2-0.9,0.2-1.2c0.5-0.5,1-0.8,1.7-1c0.4-0.2,0.5-0.3,0.4-0.8
	c-0.4-1.2-0.6-2.5-0.7-3.8c0-0.3-0.2-0.7,0.4-0.8c0.5-0.1,0.6,0.3,0.7,0.7c0.3,1.1,0.5,2.2,0.7,3.4c0.2,0.9,0.2,1,1.1,0.8
	c0.9-0.1,1.8-0.1,2.7,0.1c0.2,0,0.5,0.1,0.7,0.2c0.2,0.1,0.4,0.2,0.4,0.4c0,0.2-0.3,0.2-0.4,0.3S174.5,160.5,174.2,160.7z
	 M170.6,162.9c-0.1-0.4-0.3-0.9-0.4-1.3c0-0.2-0.1-0.4-0.4-0.3c-0.5,0.1-0.6,0.5-0.8,0.8c-0.2,0.3-0.2,0.3,0,0.4
	c0.4,0.3,0.9,0.5,1.3,0.6C170.4,163.1,170.7,163.2,170.6,162.9z"/>
<path class="st2" d="M52.1,162.9c-0.3-0.2-0.4,0.1-0.6,0.3c-1.5,1-3.2,1.5-4.9,1.5c-2.1,0-3-1.6-2-3.4c0.6-1.5,2-2.5,3.5-2.7
	c1.2-0.1,1.7,0.7,1.3,1.8c-0.2,0.5-0.5,1.1-0.8,1.5c-0.1,0.1-0.2,0.3-0.2,0.4c0,0.5-0.3,0.8-0.8,0.6c-0.5-0.1-0.8-0.6-0.7-1.1
	c0-0.1,0-0.1,0.1-0.2c0.2-0.5,0.5-0.9,0.6-1.4c-0.9,0.5-1.6,1.3-1.8,2.3c-0.1,0.7,0.2,1.1,1,1c1.5-0.2,3.1-0.5,4.6-1
	C51.8,162.5,52,162.6,52.1,162.9L52.1,162.9z"/>
<path class="st2" d="M104,162.3c0.4-0.8,0.8-1.4,1.1-2c0.2-0.3,0.4-0.5,0.6-0.7c0.5-0.4,0.9-0.3,1.2,0.2c0.4,0.8,0.7,1.7,0.9,2.7
	c0.2,1,0.5,1.3,1.6,1.3c0.3,0,0.5,0.2,0.5,0.5c0,0.3,0,0.6-0.3,0.8c-0.7,0.4-1.5,0.3-2-0.3c-0.8-0.9-1.3-2.1-1.4-3.3
	c-0.4,0.1-0.4,0.5-0.5,0.8c-0.3,0.7-0.8,1.4-1.3,1.9c-0.3,0.3-0.5,0.7-1,0.5c-0.5-0.1-0.5-0.6-0.6-1c-0.1-0.9-0.2-1.8-0.1-2.7
	c0-0.6,0-1.2,0-1.8c0-0.3,0.1-0.6,0.4-0.7c0.3-0.1,0.6,0.1,0.8,0.4c0.2,0.2,0.3,0.5,0.2,0.7C103.9,160.5,103.9,161.4,104,162.3z"/>
<path class="st2" d="M211.5,161.3c-0.4,0.9-0.9,1.8-1.5,2.6c-0.1,0.1-0.3,0.3-0.4,0.4c-0.1,0.1-0.5,0.5-0.9,0.4
	c-0.4-0.1-0.5-0.5-0.6-0.8c-0.2-1.2-0.2-2.4-0.2-3.6c0-0.4,0-0.8,0-1.2c0-0.3,0.2-0.5,0.4-0.5c0.2-0.1,0.5,0,0.7,0.2
	c0.3,0.3,0.4,0.6,0.4,1c-0.1,0.9-0.1,1.7,0,2.6c0.4-0.7,0.6-1.2,0.9-1.7c0.3-0.5,0.7-1.3,1.4-1.2s0.8,0.9,1,1.4
	c0.2,0.5,0.3,1.2,0.5,1.8c0.2,0.9,0.6,1.1,1.5,1.2c0.3,0,0.5,0.2,0.6,0.5c0.1,0.3,0,0.6-0.3,0.8c-0.6,0.4-1.5,0.3-2-0.3
	c-0.6-0.6-1-1.3-1.2-2.1C211.8,162.2,211.7,161.8,211.5,161.3z"/>
<path class="st2" d="M40.3,162.3c0.4-1.2,0.9-2.4,1.6-3.4c0.5-0.7,1-0.7,1.6-0.3c0.4,0.2,0.6,0.6,0.5,1c0,0.3-0.3,0.6-0.7,0.5
	c-0.1,0-0.1,0-0.2,0c-0.3-0.1-0.3,0.3-0.4,0.4c-0.5,1.2-1.1,2.4-1.6,3.6c-0.2,0.5-0.8,0.8-1.3,0.6c-0.2-0.1-0.3-0.2-0.5-0.4
	c-0.9-1.3-1.2-2.9-0.8-4.4c0-0.2,0.2-0.4,0.4-0.4c0.3-0.1,0.7,0.1,0.8,0.4C40.1,160.7,40.2,161.5,40.3,162.3z"/>
<path class="st2" d="M163.5,162.3c0.3-0.8,0.6-1.5,0.9-2.2c0.2-0.5,0.5-0.9,0.8-1.3c0.4-0.5,1.1-0.6,1.6-0.2
	c0.1,0.1,0.2,0.1,0.2,0.2c0.3,0.2,0.4,0.6,0.2,0.9c-0.1,0.3-0.3,0.5-0.7,0.4c-0.4-0.1-0.3,0.2-0.4,0.4c-0.5,1.2-1.1,2.4-1.6,3.7
	c-0.2,0.5-0.8,0.8-1.3,0.5c-0.2-0.1-0.3-0.2-0.4-0.3c-0.9-1.3-1.2-2.9-0.8-4.5c0-0.2,0.2-0.4,0.5-0.4c0.3,0,0.6,0.1,0.7,0.5
	C163.3,160.8,163.4,161.5,163.5,162.3z"/>
<path class="st2" d="M118.8,158.5h1.3c0.4,0,0.7,0.2,0.9,0.5c0.1,0.3,0.3,0.5,0.2,0.8c-0.1,0.3-0.5,0.2-0.8,0.1
	c-0.7-0.2-1.4-0.2-2.1,0c-0.5,0.2-0.6,0.4-0.2,0.8c0.7,0.6,1.3,1.3,2.1,1.9c0.3,0.3,0.6,0.6,0.8,1c0.2,0.3,0.1,0.7-0.2,0.9
	c-0.1,0.1-0.2,0.1-0.3,0.1c-0.8,0.1-1.7-0.1-2.4-0.4c-0.5-0.1-0.8-0.7-0.7-1.2c0-0.2,0.1-0.3,0.2-0.4c0.2-0.3,0-0.5-0.1-0.7
	c-0.5-0.5-1-1.1-1.3-1.8c-0.3-0.4-0.2-1,0.2-1.2c0.1-0.1,0.2-0.1,0.2-0.1C117.3,158.6,118.1,158.5,118.8,158.5z"/>
<path class="st2" d="M52.1,163c0.5-0.3,0.6-0.6,0.1-1.1c-0.5-0.5-0.9-1-1.1-1.6c-0.3-0.7-0.2-1.1,0.5-1.5c0.4-0.2,0.8-0.3,1.3-0.3h2
	c0.3,0,0.6,0.1,0.9,0.3c0.3,0.2,0.4,0.6,0.3,1c-0.2,0.3-0.6,0.2-0.9,0.1c-0.7-0.2-1.4-0.2-2.1,0c-0.4,0.2-0.5,0.4-0.1,0.7
	c0.7,0.7,1.5,1.3,2.2,2c0.3,0.3,0.6,0.6,0.7,1c0.2,0.3,0.1,0.7-0.2,0.9c-0.1,0.1-0.2,0.1-0.3,0.1c-0.7,0-1.5-0.1-2.2-0.3
	C52.5,164.2,52,163.6,52.1,163L52.1,163z"/>
<path class="st2" d="M200.2,162.5c0-0.8-0.5-1.5-0.5-2.4c0-0.2-0.2-0.5,0.1-0.6c0.3-0.1,0.6,0,0.7,0.3c0.3,0.4,0.4,0.9,0.5,1.4
	c0.1,0.6,0.3,1.4,0.9,1.5c0.6,0.1,0.8-0.7,1-1.2c0.5-0.9,0.9-1.8,1.3-2.7c0.1-0.1,0.1-0.3,0.2-0.4c0.2-0.3,0.5-0.7,0.9-0.5
	s0.2,0.6,0.1,0.8c-0.4,1.9-1.3,3.6-2.4,5.2c-0.6,0.8-1.1,0.8-1.6,0c-0.4-0.5-0.7-1-1.1-1.5l0,0C200.4,162.5,200.4,162.4,200.2,162.5
	L200.2,162.5z"/>
<path class="st2" d="M94.3,160.1c0-0.2-0.1-0.5,0.2-0.6c0.3-0.1,0.6,0.1,0.7,0.3c0.2,0.4,0.4,0.9,0.5,1.3c0.1,0.6,0.3,1.5,0.9,1.6
	s0.8-0.7,1.1-1.2c0.5-0.9,0.9-1.8,1.3-2.7c0.1-0.2,0.1-0.3,0.2-0.5c0.2-0.2,0.4-0.6,0.8-0.4s0.1,0.5,0.1,0.8
	c-0.4,1.9-1.3,3.7-2.4,5.3c-0.6,0.8-1.1,0.8-1.6,0C95.1,162.9,94.5,161.6,94.3,160.1z"/>
<path class="st2" d="M100.2,161c0-0.6,0-1.2,0.1-1.8c0-0.3,0-0.6,0.4-0.6c0.4,0,0.7,0,0.9,0.4c0.2,0.3,0.3,0.7,0.3,1.1
	c-0.3,1.3-0.1,2.6,0.5,3.8c0.3,0.5-0.1,0.9-0.7,0.9c-0.6,0-1.2-0.4-1.3-1.1C100.2,162.8,100.2,161.9,100.2,161z"/>
<path class="st2" d="M207.3,161c-0.1,1,0.1,2,0.6,2.8c0.3,0.5,0,1-0.7,1c-0.6,0-1.1-0.4-1.2-1c-0.2-0.7-0.3-1.5-0.3-2.3
	c0-0.8,0-1.6,0.1-2.3c0-0.3,0-0.6,0.4-0.6s0.7,0,0.9,0.4C207.3,159.6,207.4,160.3,207.3,161z"/>
<path class="st2" d="M199.3,152.7c0.1,0.5-0.3,0.7-0.8,0.8c-0.6-0.1-1.1-0.6-1.1-1.2c0-0.5,0.2-0.8,0.8-0.8S199.3,151.9,199.3,152.7
	z"/>
<path class="st2" d="M122.6,162.7c0.7,0,1.3,0.5,1.2,1c0,0.5-0.4,1-0.9,1c-0.5,0-1-0.7-1.1-1.3C121.8,162.8,122.2,162.7,122.6,162.7
	z"/>
<path class="st2" d="M207.6,152.7c0.1,0.6-0.3,0.8-0.8,0.8c-0.6-0.1-1-0.6-1.1-1.2c0-0.4,0.1-0.9,0.8-0.8S207.6,151.9,207.6,152.7z"
	/>
<path class="st2" d="M222.2,162.7c0.7,0,1.3,0.5,1.2,1c0,0.5-0.4,1-0.9,1c-0.5,0-1-0.7-1-1.3C221.5,162.8,221.8,162.7,222.2,162.7z"
	/>
<path class="st2" d="M102.1,152.7c0.1,0.6-0.3,0.8-0.8,0.8c-0.6-0.1-1-0.6-1.1-1.2c0-0.4,0.1-0.9,0.7-0.8
	C101.6,151.5,102.1,151.8,102.1,152.7z"/>
<path class="st3" d="M190.8,100c-1.6,1.2-3,2.7-4.6,3.8c-0.9,0.7-1.8,1.3-2.8,1.8c-0.8,0.4-0.8,0.4-1.1-0.5
	c-1.2-3.7,0.2-7.9,3.4-10.1c1-0.8,2.2-1.4,3.4-1.9c2-0.7,3.6-2.1,4.5-3.9c0.4-0.7,0.8-1.5,1.2-2.3c0.5,1.1,0.9,2.3,1.1,3.5
	c0.7,3.6,0.6,7.4-0.4,11c-0.6,2.7-2.4,5-5,6.2c-1.8,0.7-3.8,0.9-5.7,0.5c-0.5-0.1-1.1,0-1.5,0.3c-1.2,1-2.5,1.9-3.8,2.7
	c-0.3,0.2-0.6,0.3-0.9,0.4c-0.3,0.1-0.7,0.3-0.8-0.2c-0.2-0.3,0-0.7,0.3-0.9c0,0,0,0,0,0c0.9-0.5,1.9-1,2.7-1.5
	c3.7-2.1,7-4.9,9.7-8.3c0.1-0.1,0.3-0.3,0.3-0.5c0.1,0,0.1-0.1,0.1-0.2c0-0.1,0.2-0.2,0.1-0.3c-0.1-0.1-0.2,0-0.3,0.2
	C190.9,99.9,190.8,99.9,190.8,100z"/>
<path class="st0" d="M116,118.3c0.1,2.6,0.1,5.2-0.2,7.8c-0.6,3.1-2.8,5.7-5.8,6.8c-2.8,1.2-6,1.6-9,1c-2.9-0.5-4.8-2.3-5.1-4.7
	c-0.5-2.9,1-5.7,3.7-6.8c2.1-0.9,4.3-1.4,6.5-1.6c2.3-0.2,4.7-0.6,7-1.1C114.1,119.3,115.1,118.9,116,118.3z"/>
<path class="st1" d="M200.2,162.5c0.2-0.1,0.1,0.1,0.2,0.2C200.4,162.8,200.2,162.7,200.2,162.5z"/>
<path class="st1" d="M159.7,159.7c-1,1.3-2.2,2.4-3.5,3.3C156.1,161.6,158.2,159.8,159.7,159.7z"/>
<path class="st1" d="M112.2,161.9c-0.3,0-0.9,0-1-0.4c-0.1-0.4,0.4-0.7,0.7-0.9c0.5-0.3,1.1-0.3,1.5,0c0.2,0.2,0.3,0.5,0.2,0.7
	C113.3,161.8,112.8,162,112.2,161.9z"/>
<path class="st1" d="M217.4,161.9c-0.4,0-1,0-1.1-0.4c-0.1-0.4,0.4-0.7,0.7-0.9c0.5-0.3,1.1-0.3,1.5,0c0.2,0.1,0.4,0.4,0.3,0.7
	C218.5,161.8,218,162.1,217.4,161.9z"/>
<path class="st1" d="M88.6,163c0.5-1.7,1.8-3,3.5-3.5C91.3,161,90,162.2,88.6,163z"/>
<path class="st1" d="M170.6,162.9c0,0.3-0.1,0.3-0.3,0.2c-0.5-0.1-0.9-0.3-1.3-0.6c-0.2-0.1-0.1-0.3,0-0.4c0.1-0.2,0.3-0.8,0.8-0.8
	c0.3,0,0.3,0.2,0.4,0.3C170.3,162,170.4,162.4,170.6,162.9z"/>
<path class="st2" d="M190.9,99.9c0-0.1,0.1-0.3,0.3-0.2c0.2,0.1,0,0.2-0.1,0.3L190.9,99.9z"/>
<path class="st2" d="M190.8,100C190.8,99.9,190.9,99.9,190.8,100l0.2,0c0,0.1,0,0.2-0.1,0.2L190.8,100z"/>
</svg>
