<?xml version="1.0" encoding="utf-8"?>
<!-- Generator: Adobe Illustrator 21.1.0, SVG Export Plug-In . SVG Version: 6.00 Build 0)  -->
<svg version="1.1" id="Layer_1" xmlns="http://www.w3.org/2000/svg" xmlns:xlink="http://www.w3.org/1999/xlink" x="0px" y="0px"
	 viewBox="0 0 250 250" style="enable-background:new 0 0 250 250;" xml:space="preserve">
<style type="text/css">
	.st0{fill:#EA2F25;}
	.st1{fill:#EC1E28;}
</style>
<title>Grocery</title>
<path class="st0" d="M32.1,114.5c1.2-1.3,6-2.4,7.4-1.7c0.5,0.3,0.5,2.1-0.1,2.3c-1.6,0.6-1.8,2.1-1.9,3.4
	c-0.5,4.8-0.8,9.6-1.3,14.4c-0.2,1.5,0.9,2.7,1,4c0,1-0.3,1.5-1.5,1.4c-1.9-0.1-3.9-0.1-5.8,0c-1.2,0.1-1.6-0.4-1.7-1.5l0,0
	c0.7-0.1,0.3-0.7,0.4-1l0,0c1-0.1,1.8-0.9,2-1.9c0.3-2.8,0.5-5.6,0.7-8.4l-0.3-0.1l-2.1,4.7c-1.1,2.2-2.2,4.5-3.4,6.7
	c-0.3,0.5-0.3,1.3-1.2,1.2h-0.5c-3.8-0.1-3.8-0.1-3.7-4c0.1-2.9,0.4-5.9,0.5-8.8h-0.2l-2.1,5.1c-1.1,2.5-2.5,4.9-4.2,7
	c-0.5,0-0.8,0.3-1.2,0.5c-2.1,1-4.7,0.7-6.5-0.8c-1.8-1.3-1.8-3.1-1.2-5c0.9-1.3,2.5-1.9,4-1.7c1.3,0.2,2.5,0.5,2.1,2.3
	c-0.1,0.4,0,0.8,0.3,1.1c1.3,0.5,1.7-0.7,2-1.3c2.3-4.7,4.4-9.3,6.7-14.1c0.5-1.1,1.3-2.3-0.5-3.1c-0.2-0.1-0.2-0.6-0.3-0.9
	c-0.1-1,0.2-1.5,1.3-1.3c1.8,0.2,4.2-0.8,5.3,0.4c0.9,0.9,0.3,3.3,0.3,5.1s0,3.7,0,5.6c0,0.9,0,1.8,0,2.7c1.1-1.9,2.1-3.9,3-5.9
	L32.1,114.5z"/>
<path class="st0" d="M134.6,136.3c0-0.7,0.6-1,1-1.3c1.1-0.1,2-0.9,2.1-2c1.3-4.8,2.5-9.7,3.7-14.5c0.5-1.8-0.2-2.4-2-1.8
	c-0.9,0.3-1.5,0.8-0.6,1.7c0.4,0.3,0.6,0.8,0.5,1.3c-0.5,0-0.9,0.4-1.2,0.7c-1.7,0.5-3.5,0.7-4.9-0.7c-1.3-1.4-0.7-2.8-0.2-4.3
	c1.1-1.3,2.7-2,4.3-1.9c4,0.1,8,0.2,12,0.3c1,0,1.9,0.2,2.8,0.5c2.9,0.7,4.6,3.7,3.8,6.5c-0.2,0.7-0.5,1.3-0.9,1.9
	c-0.4,0.7-0.9,1.4-1.5,2c-1.2,0.9-0.9,1.6-0.1,2.7c1.8,2.3,1.8,5.5,0,7.8c-0.3,0.3-0.9,0.6-0.5,1.2l0,0c-0.2-0.1-0.4-0.1-0.5,0
	c-1.3,0.3-2.5,1.2-4,1.3c-4.2,0.5-8.3,0-12.5,0.3C134.7,138.1,134.1,137.8,134.6,136.3z M150.3,119.9c0.4-1.2-0.3-2.5-1.5-2.9
	c-0.1,0-0.2-0.1-0.4-0.1c-1.9-0.3-1.3,1.2-1.6,2.1c-0.3,1.1-0.6,2.2-0.9,3.4c-0.2,0.8,0,1,0.8,0.8c0.4-0.1,0.8-0.3,1.2-0.4
	C147.9,122.7,150,121.4,150.3,119.9L150.3,119.9z M144.2,128.8c-0.3,1.2-0.7,2.3-1,3.5c-0.2,0.8-0.9,2-0.4,2.5
	c0.5,0.5,1.9,0.1,2.9-0.2l0.3-0.1c2.1-1,3.2-3.4,2.7-5.7c-0.4-1.4-1.8-2.3-3.2-2.1C143.9,126.8,144.6,128.1,144.2,128.8z"/>
<path class="st0" d="M71.5,131.3c0.2,1.7,0.1,3.5,2.1,4.3c0.8,0.3,0.2,1,0.4,1.5c0,1-0.5,1.4-1.5,1.3c-0.7-0.1-1.4-0.1-2,0
	c-1.5,0.3-3-0.7-3.2-2.2c0,0,0,0,0,0c-0.4-1.3-0.8-2.6-1.3-3.8c-0.1-0.3-0.3-0.8-0.8-0.7c-0.5,0.1-0.4,0.5-0.5,0.8
	c-0.2,1.3-1.3,2.7,0.2,4c0.2,0.1,0,0.7,0,1c-0.3,0.6-0.5,1.1-1.3,1c-1.7,0-3.5,0-5.3-0.1c-0.5,0-1.1,0.3-1.3-0.3
	c-0.2-0.7-0.1-1.4,0.5-1.8c1.2-0.8,1.3-2,1.7-3.2c0.5-1.8,1-3.7,1.3-5.6c0.5-2.3,1.7-4.5,0-6.7c-0.1-1.1,0.4-1.3,1.5-1.3
	c2.8,0.1,5.5,0,8.3,0c2.1,0,4.1,0.5,5.1,2.6c1,2.1,0.6,4.5-1,6.1c-0.3,0.3-0.5,0.7-0.8,1.1C72.7,129.6,71.3,129.6,71.5,131.3z
	 M67.7,127.8c1.5-0.4,2.5-1.7,2.4-3.3c0.2-1.9-0.4-2.7-2.2-2.7c-1.6,0-1,1.4-1.2,2.3c-0.2,0.8-0.4,1.6-0.6,2.4
	c-0.1,0.5-0.6,1.2-0.1,1.6C66.6,128.3,67.3,128.2,67.7,127.8z"/>
<path class="st0" d="M89.1,127c0.4,1.9,0.8,3.7,1.2,5.6c0.2,1.4,1,2.7,2.2,3.5c0,1.6-0.6,2.5-2.4,2.3c-0.4-0.1-0.8-0.1-1.2,0
	c-2,0.3-2.9-0.7-3.3-2.5s-1-3.2-1.5-5c-0.7,1.5-1.3,3.1-0.7,4.5c0.5,0.9,0.5,2,0.2,3h-1h-7.6l0.1-1.8c0-0.2,0-0.4,0.2-0.5
	c1.2-0.3,2.1-1.2,2.3-2.4c0.9-3.4,1.7-6.7,2.6-10.1c0.2-0.7,0.3-1.5-0.7-1.8c-0.4-0.2-0.6-0.5-0.6-0.9c0.2-1.1,0.7-1.5,1.9-1.4
	c2.1,0.1,4.2,0.1,6.3,0c1.2,0,1.5,0.4,1.3,1.3l-0.7,0.7c-1.2,1.1-2,2.5-2.4,4.1l2-1.7c1.3-0.6,2.5-1.3,2.2-3
	c0.2-1.2,0.9-1.5,2.1-1.4c1.2,0.1,2.4,0.1,3.5,0c1.1-0.1,1.5,0.3,1.3,1.3c-0.4,0.6-1.1,0.6-1.7,1C92.6,123.2,90.8,125,89.1,127z"/>
<path class="st0" d="M173.9,132.1l0.7-1.4c1-0.2,1.8-0.1,2.1,1.1c0.4,2.7,2,4,4.4,3.5c1.1,0,2-0.8,2-1.9c0.2-1.1-0.4-2.3-1.5-2.7
	c-1.1-0.5-2.3-0.9-3.5-1.3c-2.4-0.9-3.3-2.3-3.3-4.9c0-1.1,0.8-2,0.7-3.1c2.9-3.1,7.5-3.7,11.2-1.7c0.4,0.2,0.9,0.4,1.3,0
	c1.1-0.9,1.8-0.3,2.6,0.4c-0.3,0.7-0.5,1.5-0.5,2.3c-0.5,0.8-0.8,1.6-1,2.4c-0.1,0.6-0.4,1.2-1.2,0.9s-1.3-0.5-1.5-1.5
	c-0.3-1.2-1.1-2.2-2.3-2.6c-1.2-0.8-2.9-0.5-3.7,0.7c-0.2,0.3-0.4,0.7-0.4,1.1c0,0.8,0.5,1.4,1.2,1.6c1,0.4,2.1,0.7,3.1,1l3,1.7
	c1.8,2.5,1.7,5.6-1.2,8.5c-0.4,0.1-1,0-0.7,0.8l0,0c-0.2-0.3-0.5-0.1-0.8,0c-2.8,1.1-5.5,1.6-8.3,0c-0.5-0.3-1.2-0.2-1.6,0.2
	c-0.4,0.3-0.9,0.4-1.4,0.4c-0.9,0.1-1.1-0.2-0.8-1C173.2,135.3,173.6,133.7,173.9,132.1z"/>
<path class="st0" d="M37.8,136.6l0.8-1c0.3-0.1,0.9-0.1,0.5-0.7l0,0c1,0.2,1.3-0.6,1.7-1.2c1.2-1.8,2.2-3.7,3.1-5.6
	c1-2.4,3.8-4.3,2-7.5c0-1,0.5-1.5,1.6-1.3c1.9,0.1,3.9,0.1,5.8,0c1,0,1.3,0.3,1.3,1.3c0,4,0,8,0,11.9c-0.2,1.5,0.6,3,1.9,3.7
	c0,1.7-0.7,2.2-2.3,2.1c-1.6-0.1-3,0-4.6,0c-1.2,0-1.7-0.8-1-1.9c0.2-0.3,0.5-0.6,0.8-0.9c0.4-0.4,0.5-1,0.3-1.6
	c-0.2-0.7-0.8-0.4-1.3-0.5c-1-0.1-1.9-0.1-2.9,0c-1.3,0.1-1.9,0.8-1.3,2.2c1,1.5,0.9,2.2-0.6,2.7c-1.3-0.1-2.7-0.1-4,0
	C38.2,138.5,37.7,138,37.8,136.6z M49.7,124.6c-0.9,1.3-1.7,2.6-2.2,4.1c-0.6,1.3-0.1,1.5,1.1,1.5c0.9,0,1.2-0.3,1.2-1.2
	C49.7,127.7,49.8,126.4,49.7,124.6L49.7,124.6z"/>
<path class="st0" d="M106,127.7c-0.4,0.8-0.7,1.7-0.8,2.7c-0.2,0.7-0.4,1.3-1.3,1.2c-0.3,0-0.6-0.1-0.9-0.3
	c-1.5-1.3-1.7-1.3-2.1,0.6c-0.1,0.3-0.1,0.7-0.1,1c-0.4,0.8-1.1,1.9-0.7,2.5c0.4,0.6,1.7,0.2,2.7,0.1h0.2c1.2,0,2.1-1,2.1-2.2
	c0.5-0.5,0.3-1.4,1.3-1.4c1.7,0,1.9,0,1.4,1.7c-0.3,1.3-0.8,2.7-1,4c0,0.6-0.5,1-1.1,0.9c0,0,0,0-0.1,0c-3.8,0-7.6,0-11.4-0.1
	c-0.5,0-1.3,0.3-1.5-0.4c-0.2-0.7,0.1-1.4,0.6-1.8c1.2-0.7,1.3-1.9,1.7-3c0.7-2.4,1.3-4.9,2-7.3c0.4-1.5,1.3-3.1-0.3-4.5
	c-0.1-0.1,0-0.4,0-0.7c0.3-1.1,0.8-1.5,2-1.4c3.8,0.1,7.6,0.1,11.3,0c1.3,0,1.5,0.4,1.1,1.4c-0.3,1.3-0.7,2.7-1,4.1
	c-0.2,1-0.7,1.1-1.6,1s-1.3-0.5-1.2-1.3c0.2-1.7-0.6-2.3-2.2-2.4c-1.6-0.2-1.9,0.9-2,2.1c-0.5,1.1-0.7,2.2-0.7,3.4
	c1.2-0.2,1.5-1.8,2.8-1.3C106.9,126.1,105.8,127.2,106,127.7z"/>
<path class="st0" d="M210.7,120.3c0.2-1.2,0.9-1.5,2.1-1.5c3.7,0.1,7.3,0.1,11,0c1.3,0,1.6,0.4,1.3,1.5s-0.7,2.6-1,3.9
	c-0.2,0.7-0.3,1.6-1.2,1.5c-0.9-0.2-1.8-0.4-1.6-1.8c0.3-1.4-0.7-2.1-2.2-2.3c-1.5-0.1-2.1,0.7-2,2.1c-0.5,1.1-0.8,2.2-0.9,3.3
	c1.3,0,1.6-1.7,3-1.3c1.2,0.2,0.5,1.1,0.6,1.7c-0.3,0.9-0.6,1.9-0.8,2.8c-0.1,0.7-0.5,1.1-1.2,1c-0.3,0-0.7-0.1-1-0.3
	c-1.6-1.3-1.6-1.3-2.2,0.7c-0.1,0.3-0.1,0.7-0.2,1c-1.1,2.7-1.1,2.7,1.7,2.6h0.3c1.3,0,2.3-1.1,2.3-2.3c0.5-0.4,0.2-1.2,1-1.3
	c1.7-0.4,2.2,0,1.7,1.8c-0.3,1.2-0.7,2.5-1,3.7c-0.1,0.8-0.5,1.1-1.2,1h-12.9c0-1,0-1.9,0.6-2.3c0.8-0.5,1.4-1.4,1.5-2.3
	c0.3-0.9,0.6-1.8,0.8-2.8C209.9,127.2,212.8,124,210.7,120.3z"/>
<path class="st0" d="M153.6,136.2l0.8-1c0.3,0,0.4,0,0.4-0.3l0,0c0.9,0.1,1.2-0.5,1.5-1.1c1.6-2.8,3.2-5.6,4.7-8.4
	c0.9-1.5,2.4-3,0.7-4.9c0,0,0-0.1,0-0.2c0.1-1.1,0.7-1.5,1.8-1.3c1.8,0.1,3.6,0.1,5.4,0c1.2-0.1,1.5,0.4,1.5,1.5
	c-0.1,3.7,0,7.5,0,11.2c-0.2,1.3,0.2,2.6,1.2,3.6c0.6,0.5,0.8,1.4,0.5,2.1c-0.4,0.9-1.1,0.6-1.7,0.6c-1.6,0-3.3,0-4.9,0
	c-0.4,0-1,0.2-1.2-0.3c-0.2-0.6-0.1-1.3,0.3-1.7c0.1-0.1,0.3-0.2,0.4-0.3c0.5-0.4,0.8-1.2,0.5-1.9c-0.2-0.8-0.9-0.5-1.3-0.5
	c-1-0.1-1.9-0.1-2.9,0c-1.1,0.2-1.9,0.8-1.2,2.1c1,1.5,0.8,2.3-0.7,2.7c-1.2-0.1-2.3-0.1-3.5,0C154.4,138.2,153.5,137.8,153.6,136.2
	z M165.3,124.7c-0.8,1.2-1.9,2.2-2.2,3.7c0,0.4-0.6,0.7-0.1,1.1c0.5,0.3,1.2,0.4,1.8,0.3c0.7-0.1,0.5-0.6,0.5-1.1
	C165.4,127.5,165.3,126.1,165.3,124.7L165.3,124.7z"/>
<path class="st0" d="M225.4,136.5l0.4-0.8c1.5,0,2-1.1,2.3-2.3c0.7-2.9,1.5-5.8,2.1-8.7c0.2-0.9,1.3-2.1,0-2.7
	c-1.3-0.6-1.5,1.2-2.1,1.9c-0.4,0.6-0.5,1.5-1.3,1.7c-1.6,0.1-1.9-0.5-1.3-2c0.3-1.1,0.6-2.3,0.8-3.5c0.3-1.2,1-1.5,2.2-1.4
	c4.5,0.1,9,0,13.7,0c-0.5,2-1.1,3.9-1.5,5.8c-0.2,0.7-0.7,0.7-1.2,1c-1.3,0-1.7-0.6-1.3-1.9c0.2-0.7,0-1.7-0.9-1.7
	c-0.9,0-1.1,0.8-1.2,1.6c-0.1,0.8,0.2,1.5-0.4,2.1c-1,2.7-1.7,5.6-2.3,8.4c-0.1,0.6,0.1,1.1,0.5,1.5c0.9,1,0.5,1.9-0.8,2.3
	c-2,0-4-0.1-6,0C225.6,138.1,225.3,137.6,225.4,136.5z"/>
<path class="st0" d="M121.6,125c-1.1,3.1-1.7,6.3-2.6,9.3c-0.1,0.6,0.1,1.3,0.5,1.7c0.9,1,0.5,1.9-0.9,2.3c-1.9,0-3.8-0.2-5.7-0.1
	c-1.3,0-2.1-0.2-1.5-1.7c0-0.2,0-0.4,0.3-0.5c1.2-0.4,2-1.4,2.3-2.7c0.6-2.8,1.5-5.5,2.2-8.3c0.2-0.9,1.1-2.2-0.2-2.7
	c-1.3-0.4-1.4,1.1-1.9,1.9c-0.6,0.5-0.5,1.6-1.5,1.7c-1.5,0.2-2-0.4-1.4-1.9c0.4-1.1,0.6-2.4,0.9-3.6c0.3-1.2,0.7-1.4,1.8-1.4
	c4.6,0.1,9.2,0,13.9,0c-0.5,2-1,3.8-1.4,5.7c-0.2,0.8-0.7,0.9-1.3,1.1c-1.2,0-1.5-0.6-1.3-1.8c0.1-0.7,0.4-1.7-0.6-1.9
	c-0.9-0.1-1.2,0.9-1.5,1.7C121.7,124.5,121.6,124.8,121.6,125z"/>
<path class="st0" d="M202.6,126.6c0.4,1.9,0.8,3.7,1.2,5.6c0.2,1.4,1,2.7,2.2,3.5c0,1.6-0.6,2.5-2.4,2.3c-0.4-0.1-0.8-0.1-1.2,0
	c-2,0.3-2.9-0.7-3.3-2.5c-0.5-1.8-1-3.2-1.5-5c-0.7,1.5-1.3,3.1-0.7,4.5c0.5,0.9,0.5,2,0.2,3h-1h-7.6l0.1-1.8c0-0.2,0-0.4,0.2-0.5
	c1.2-0.3,2.1-1.2,2.3-2.4c0.9-3.4,1.7-6.7,2.6-10.1c0.2-0.7,0.3-1.5-0.7-1.8c-0.4-0.2-0.6-0.5-0.6-0.9c0.2-1.1,0.7-1.5,1.9-1.4
	c2.1,0.1,4.2,0.1,6.3,0c1.2,0,1.5,0.4,1.3,1.3l-0.7,0.7c-1.2,1.1-2,2.5-2.4,4.1l2-1.7c1.3-0.6,2.5-1.3,2.2-3
	c0.2-1.2,0.9-1.5,2.1-1.4c1.2,0.1,2.4,0.1,3.5,0c1.1-0.1,1.5,0.3,1.3,1.3c-0.4,0.6-1.1,0.6-1.7,1
	C206.2,122.8,204.3,124.6,202.6,126.6z"/>
<path class="st1" d="M244.8,135c0,1.7-1.3,3.2-3.1,3.2c0,0-0.1,0-0.1,0c-1.8,0-3.3-1.5-3.3-3.3s1.5-3.3,3.3-3.3
	c1.7-0.1,3.2,1.3,3.2,3C244.8,134.8,244.8,134.9,244.8,135z M244.2,135c0-1.4-1.1-2.5-2.5-2.5c-1.4,0-2.5,1.1-2.5,2.5
	c0,1.4,1.1,2.5,2.5,2.5C243.1,137.6,244.2,136.4,244.2,135z"/>
<path class="st1" d="M240.2,136.8v-3.6h1.3c0.2,0,0.4,0,0.6,0.1c0.2,0.1,0.3,0.2,0.3,0.3c0.1,0.2,0.1,0.4,0.1,0.5
	c0,0.2-0.1,0.5-0.2,0.6c-0.2,0.2-0.4,0.3-0.7,0.3c0.1,0,0.2,0.1,0.3,0.2c0.1,0.1,0.3,0.3,0.3,0.5l0.5,1h-0.5l-0.4-0.7
	c-0.1-0.2-0.2-0.4-0.3-0.5c-0.1-0.1-0.1-0.2-0.2-0.2c-0.1,0-0.1-0.1-0.2-0.1h-0.7v1.6H240.2z M240.7,134.8h0.9c0.1,0,0.3,0,0.4-0.1
	c0.1,0,0.2-0.1,0.2-0.2c0.1-0.1,0.1-0.2,0.1-0.3c0-0.2-0.1-0.3-0.2-0.4c-0.1-0.1-0.3-0.2-0.5-0.2h-1L240.7,134.8z"/>
</svg>
