<?xml version="1.0" encoding="utf-8"?>
<!-- Generator: Adobe Illustrator 21.1.0, SVG Export Plug-In . SVG Version: 6.00 Build 0)  -->
<svg version="1.1" id="Layer_1" xmlns="http://www.w3.org/2000/svg" xmlns:xlink="http://www.w3.org/1999/xlink" x="0px" y="0px"
	 viewBox="0 0 250 250" style="enable-background:new 0 0 250 250;" xml:space="preserve">
<style type="text/css">
	.st0{fill:#E3253B;}
	.st1{fill:#858585;}
	.st2{fill:#429438;}
	.st3{fill:#FCC64C;}
</style>
<title>Grocery</title>
<path class="st0" d="M52,148.5H34.7c2-1.6,2.1-3.7,2.1-5.8c0-7.1,0-14.2,0-21.2c0.1-2.1-0.3-4.2-1.3-6c-1.9-3.3-6.2-4.5-9.5-2.6
	c-2.1,1.3-3.9,3.1-5.1,5.3c-0.2,0.4-0.3,0.9-0.3,1.4c0,7.8,0,15.7,0,23.5c-0.2,2,0.5,4,2.1,5.3c-0.7,0-1.2,0.1-1.7,0.1
	c-4,0-8.1,0-12.2,0c-1.2,0-1.3-0.4-1.3-1.4c0-12.2,0-24.4,0-36.6c0.2-1.9-0.5-3.7-1.9-4.9c0.2-0.5,0.6-0.3,0.9-0.3
	c2.5,0,5.1,0,7.6,0c2.9,0,5.2,1.1,6.2,4c0.4,1.1,0.8,0.3,1.1,0c6-6.6,16.2-7.2,22.9-1.2c1.2,1.1,2.2,2.3,3,3.7l0.6,0.9
	c1.6-2.3,3.7-4.4,6.1-5.9c7.3-5,17.4-3.2,22.4,4.1c1.5,2.2,2.5,4.7,2.7,7.4c0.2,1.4,0.2,2.8,0.2,4.2c0,6.7,0,13.3,0,20
	c0,2.2,0,4.3,2.1,6H64.3c2.6-2.2,2-5,2-7.7c0-6.4,0-12.8,0-19.2c0.1-1.9-0.2-3.9-1-5.7c-1.7-3.4-5.7-4.8-9.1-3.2
	c-0.1,0-0.1,0.1-0.2,0.1c-2.4,1.2-4.5,3.1-6.1,5.3c-0.2,0.3-0.2,0.6-0.2,0.9c0.3,7.9,0,15.8,0.1,23.7
	C49.9,144.9,49.9,146.9,52,148.5z"/>
<path class="st0" d="M239.3,148.5h-17.2c2.5-2.1,2.1-4.8,2.1-7.3c0-6.6,0-13.2,0-19.7c0-1.3-0.1-2.7-0.4-4c-0.7-3.7-4.3-6.1-8-5.3
	c-0.8,0.2-1.5,0.4-2.2,0.8c-2.2,1.3-4.1,3.1-5.3,5.3c-0.2,0.4-0.3,0.9-0.3,1.4c0,7.9,0,15.8,0,23.6c-0.2,1.6,0.3,3.3,1.3,4.5
	c0.4,0.4,0.3,0.7-0.3,0.7h-16c2.7-2.4,2-5.3,2-8.1c0-17.2,0-34.3,0-51.5c0-2.3,0.3-4.7-1.9-6.3l0.2-0.2h3.8c3.2,0,6.3,0,9.5,0
	c1.1,0,1.4,0.3,1.4,1.3c0,8.3,0,16.5,0,24.7c0,0.4,0,0.9,0,1.4c0.6-0.3,1.1-0.8,1.5-1.3c6.4-6.3,16.6-6.2,22.9,0.1
	c1,1,1.9,2.2,2.6,3.5c1.6,3.2,2.3,6.7,2.1,10.2c0,7,0,14.1,0,21.1C237,145.4,237.8,147.3,239.3,148.5z"/>
<path class="st0" d="M86.4,118.6c0-3.3,0-6.6,0-9.8c0-0.4,0.3-0.7,0.6-0.8c8.3-4.5,17-5.5,25.9-1.9c5.5,2.2,7.8,6.9,8.6,12.5
	c0.2,1.3,0.3,2.6,0.3,3.9c0,6.9,0,13.9,0,20.8c0,2.1,0.2,4,2.1,5.3c-3.7,0.2-7.4,0.2-11.1-0.1c-1.9-0.3-3.4-1.7-3.8-3.6
	c-0.1-0.4-0.2-0.9-0.3-1.3c-0.6,0.2-0.7,0.7-1,1.1c-4.5,5.3-12,7-18.4,4c-7.9-4-8.6-14.9-1.5-20.9c2.6-1.9,5.5-3.4,8.7-4.2
	c3.6-1.2,7.2-2.5,10.9-3.6c1.1-0.3,1.2-0.9,1.1-1.9c-0.8-4.6-4.8-7.4-9.8-6.7c-4.3,0.6-8.3,2.8-11.1,6.2c-0.3,0.3-0.6,0.7-0.9,1
	C86.8,118.6,86.7,118.6,86.4,118.6z M108.7,131.7c0-1.5,0-3.1,0-4.6c0-0.8-0.2-1.2-1.1-0.9c-2.2,0.7-4.5,1.3-6.7,2.2
	c-2.7,0.9-4.8,3.1-5.4,5.9c-0.8,3,1,6,3.9,6.8c0.2,0.1,0.4,0.1,0.6,0.1c2.9,0.5,5.1-0.8,7.2-2.7c1-0.8,1.6-2,1.4-3.3
	C108.6,134.1,108.6,132.9,108.7,131.7z"/>
<path class="st0" d="M188.3,116.4c-3.3-4.8-9.4-6.8-14.9-4.9c-1.4,0.4-2.5,1.6-2.8,3c-0.4,1.7,0.5,3.5,2.2,4.1c2,1,4.1,1.8,6.2,2.7
	c3.5,1.4,6.6,3.5,9.2,6.2c5.1,5.9,3.4,14.9-3.5,19.1c-5.1,3.1-10.7,3.7-16.5,2.9c-2.8-0.4-5.5-1.3-8.1-2.5c-0.7-0.2-1.2-1-1.1-1.7
	c0-3,0-6,0-9.1c0-0.3-0.1-0.6,0.3-1c2.2,2.1,4.7,3.8,7.5,5.2c2.9,1.3,5.9,2.5,9.2,1.4c1.5-0.2,2.7-1.4,3.1-2.9
	c0.4-1.7-0.3-3.4-1.7-4.4c-1.8-1.1-3.6-2-5.6-2.7c-3.9-1.5-7.4-3.5-9.7-7.2c-4-5.9-2.4-13.9,3.6-17.9c0.8-0.5,1.6-1,2.5-1.3
	c6.5-2.7,13.1-2,19.7,0.1c0.5,0.1,0.8,0.6,0.8,1.1c0,3.1,0,6.2,0,9.3L188.3,116.4z"/>
<path class="st1" d="M71.9,162.6c0-1.5,0-3.1,0-4.6c0-0.7,0.2-1.1,1-1c1.5,0,3,0,4.5,0c1.5,0,2.9,1.1,3.3,2.5c0.5,1.6-0.2,3.2-1.7,4
	c-0.8,0.4-0.7,0.7-0.3,1.3c0.6,0.8,1,1.7,1.6,2.5c0.5,0.8,0.6,1.1-0.5,1.1c-0.8,0.1-1.6-0.4-1.9-1.1c-0.4-0.9-1-1.7-1.5-2.6
	s-1.1-0.7-1.8-0.6c-0.9,0.1-0.5,0.8-0.5,1.3c0,0.6,0,1.2,0,1.8c0,0.7,0.1,1.2-0.9,1.2c-1,0-1.2-0.4-1.2-1.3
	C71.9,165.7,71.9,164.2,71.9,162.6z M75.6,162.4c2.2,0,3.3-0.8,3-2.2c-0.1-0.7-0.7-1.2-1.3-1.3c-1-0.2-2.1-0.2-3.2,0
	c0,0-0.1,0-0.1,0.1c-0.1,1,0,2.1,0.2,3.1C74.2,162.7,75.1,162.3,75.6,162.4z"/>
<path class="st1" d="M196.8,168.7c-3.3,0-6-2.6-6-5.8c0-3.3,2.6-6,5.8-6c3.3,0,5.9,2.6,6,5.8c0.2,3.1-2.2,5.8-5.3,6
	C197.1,168.7,197,168.7,196.8,168.7z M196.8,166.8c2.3,0.2,4.3-1.5,4.5-3.7s-1.5-4.3-3.7-4.5s-4.3,1.5-4.5,3.7c0,0.2,0,0.3,0,0.5
	c-0.2,2,1.4,3.8,3.4,4C196.5,166.8,196.6,166.8,196.8,166.8L196.8,166.8z"/>
<path class="st1" d="M157.8,168.7c-3.3,0-5.9-2.6-6-5.9c0-3.3,2.6-5.9,5.9-6c3.3,0,5.9,2.6,6,5.9c0,0,0,0.1,0,0.1
	c0.1,3.1-2.3,5.8-5.5,5.9C158.1,168.7,157.9,168.7,157.8,168.7z M157.8,166.8c2.3-0.2,4-2.1,3.8-4.4c-0.1-2.1-1.8-3.7-3.9-3.8
	c-2.1,0.1-3.7,1.8-3.7,4c0,0.1,0,0.1,0,0.2c-0.2,2.1,1.4,3.8,3.4,4C157.6,166.8,157.7,166.8,157.8,166.8L157.8,166.8z"/>
<path class="st1" d="M37,168.6c-3.1,0.1-5.7-2.4-5.8-5.5c0-0.1,0-0.3,0-0.4c0-3.2,2.6-5.8,5.8-5.8s5.8,2.6,5.8,5.8
	c0.2,3.1-2.1,5.7-5.2,5.9C37.4,168.6,37.2,168.7,37,168.6z M40.8,162.7c0.1-2.1-1.5-3.9-3.5-4c-2.1-0.1-3.9,1.5-4,3.5
	c0,0.1,0,0.3,0,0.4c-0.2,2.1,1.4,3.9,3.4,4.1c0.1,0,0.3,0,0.4,0c2,0,3.7-1.6,3.7-3.7C40.8,163,40.8,162.9,40.8,162.7z"/>
<path class="st2" d="M141.6,121c0,0-1.6-9.7,4.1-14.2c0,0,3.4-3.7,11.3-2.8l3,0.6c0.9,0.5,1.3,1.5,1,2.4c0,0-0.3,5.8-3.2,7.3
	c0,0-7.5,0.1-10.8,1.9c-2.2,1-4.1,2.7-5.2,4.8L141.6,121z"/>
<path class="st3" d="M142.1,121.6h-1l-0.1-0.5c0-0.4-1.5-10.1,4.3-14.7c0.4-0.4,3.9-3.8,11.7-2.9l0,0l3.1,0.6c1.1,0.6,1.6,1.8,1.3,3
	c0,0.5-0.5,6.1-3.5,7.7h-0.1h-0.1c-0.1,0-7.4,0.1-10.6,1.8h-0.1c-2.1,0.9-3.8,2.5-4.9,4.6L142.1,121.6z M154.7,104.4
	c-5.9,0-8.5,2.7-8.5,2.8l0,0c-4.2,3.3-4.2,9.7-4,12.4c1.2-1.8,2.8-3.2,4.8-4c3.2-1.6,9.8-1.9,10.9-1.9c2.5-1.5,2.8-6.7,2.8-6.8l0,0
	c0.2-0.7-0.1-1.4-0.7-1.8l-2.9-0.6C156.2,104.4,155.4,104.4,154.7,104.4L154.7,104.4z"/>
<path class="st0" d="M141.8,145.2c0.2,1.3,0.9,2.5,2,3.3h-17.2c2.2-1.7,2.1-3.8,2.1-6c0-10.6,0-21.2,0-31.7c0.2-2.1-0.6-4.1-2.3-5.4
	c1.6,0,2.9,0,4.1,0c2.2-0.1,4.3-0.1,6.5,0.2c2.2,0.3,4,1.9,4.6,4c0,2.5,0.1,4.9,0.1,7.4c0,8.8,0,17.7-0.1,26.5
	C141.5,144,141.5,144.6,141.8,145.2z"/>
<path class="st1" d="M18.4,162.8c0-1.6,0-3.1,0-4.7c0-0.8,0.2-1.1,1-1.1s1.2,0.3,1.1,1.2c-0.1,0.9,0,1.7,0,2.6c0,0.9,0.2,1,0.9,1
	c0.4,0,0.7,0,1.1,0c1.2,0,2.7,0.5,3.5-0.2c0.9-0.7,0.2-2.3,0.3-3.5c0-0.8,0.3-1,1-1c0.7,0,1.1,0.1,1.1,1c0,3.2,0,6.4,0,9.6
	c0,0.8-0.4,1-1.1,1c-0.7,0-1.1-0.2-1-1c0-1,0-2.1,0-3.1c0-0.7-0.3-1-0.9-1c-1.3,0-2.7,0-4,0c-0.6,0-0.9,0.3-0.9,0.9c0,1,0,2.1,0,3.1
	c0,1-0.3,1-1.1,1.1c-0.8,0-1.1-0.3-1.1-1.1C18.4,165.9,18.4,164.4,18.4,162.8L18.4,162.8z"/>
<path class="st1" d="M149.2,162.8c0,1.6,0,3.3,0,4.9c0,0.8-0.3,0.9-0.9,0.9c-0.6,0-1.2,0.1-1.2-0.8s0-2.1,0-3.1
	c0-0.7-0.1-1.1-0.9-1.1c-1.3,0-2.7,0-4,0c-0.8,0-0.9,0.3-0.9,1c0,1,0,2.1,0,3.1c0,0.7-0.2,1-0.9,0.9s-1.2-0.1-1.2-1
	c0-3.2,0-6.4,0-9.6c0-0.9,0.5-0.9,1.1-0.9c0.6,0,1,0.1,1,0.9c0,0.7,0,1.9,0,2.8c0,0.7,0.2,1,0.9,0.9c1.3,0,2.7,0,3.9,0
	c0.9,0,1.1-0.3,1-1.1c0-0.8,0-1.5,0-2.3c0-0.8,0.1-1.3,1.2-1.3s0.9,0.7,0.9,1.3C149.2,159.8,149.2,161.2,149.2,162.8L149.2,162.8z"
	/>
<path class="st1" d="M115.1,162.8c0,1.6,0,3.1,0,4.7c0,0.8-0.2,1-1,1c-0.8,0-1.2-0.2-1.1-1.1c0.1-0.9,0-2,0-3c0-0.6-0.1-1-0.9-1
	c-1.3,0-2.8,0-4.2,0c-0.6,0-0.8,0.3-0.8,0.8c0,1.1,0,2.3,0,3.4c0,0.8-0.4,0.9-1,0.8c-0.6,0-1.1,0-1.1-0.8c0-3.3,0-6.6,0-9.9
	c0-0.8,0.4-0.8,1-0.8c0.6,0,1.1,0,1.1,0.8c0,0.8,0,1.9,0,2.8s0.2,1.1,1,1c1.3,0,2.7,0,3.9,0c0.7,0,1-0.3,0.9-0.9s0-1.7,0-2.6
	s0-1.2,1-1.2s1.1,0.3,1.1,1.2C115.1,159.7,115.1,161.2,115.1,162.8z"/>
<path class="st1" d="M83.5,162.8c0-1.6,0-3.1,0-4.7c0-0.7,0.2-1.1,1-1c2,0,4,0,5.9,0c0.7,0,1,0.2,1,0.9s-0.3,0.9-0.9,0.9
	c-1.3,0-2.7,0-3.9,0s-0.9,0.7-0.9,1.3s-0.4,1.6,0.9,1.5c1.3,0,2.7,0,3.9,0c0.6,0,0.9,0.2,0.9,0.8c0,0.7-0.1,1-0.9,1
	c-1.3,0-2.5,0-3.8,0c-0.7,0-1,0.2-1.1,1c0,2.1-0.1,2.1,2,2.1c1,0,2,0,3,0c0.7,0,0.8,0.4,0.8,1c0,0.6-0.1,0.9-0.8,0.9
	c-2.1,0-4.1,0-6.2,0c-0.7,0-0.9-0.3-0.8-0.9C83.5,166,83.5,164.4,83.5,162.8z"/>
<path class="st1" d="M226.8,168.5c-1,0.3-1.3-0.3-1.5-1.1c-0.1-0.7-0.6-1.2-1.3-1.1c-0.1,0-0.1,0-0.2,0c-0.7,0-1.4,0-2-0.1
	c-1.3-0.1-2.3,0.1-2.7,1.7c-0.3,1.1-1.4,0.7-2.1,0.5c-0.7-0.2-0.1-0.8,0.1-1.2c1.2-3.1,2.5-6.2,3.6-9.3c0.1-0.6,0.7-1,1.4-0.9
	c0,0,0,0,0,0c0.7,0.1,1.5-0.3,1.9,0.8c1.2,3.2,2.5,6.4,3.7,9.6C228,168.3,227.9,168.7,226.8,168.5z M222.3,159.1
	c-0.4,1.1-0.8,1.8-1.1,2.7c-1.1,2.9-1.1,2.9,2.1,2.7h0.1c0.7,0,0.8-0.3,0.6-0.8C223.5,162.3,223,160.9,222.3,159.1L222.3,159.1z"/>
<path class="st1" d="M97.9,168.6c-1.4,0.1-2.8-0.4-3.9-1.2c-0.7-0.5-0.4-0.9-0.1-1.4s0.7-0.7,1.3-0.2c1,0.9,2.4,1.2,3.7,0.9
	c0.7,0,1.3-0.6,1.4-1.3c0-0.8-0.5-1.1-1.2-1.3c-1.2-0.4-2.3-0.7-3.5-1.1c-1.2-0.3-2-1.4-1.9-2.7c-0.1-1.3,0.6-2.4,1.8-2.9
	c1.9-0.9,4.2-0.7,5.9,0.5c0.6,0.4,0.7,0.7,0.3,1.3c-0.5,0.6-0.6,0.9-1.3,0.4c-0.9-0.7-2.1-1-3.2-0.7c-0.7,0.1-1.2,0.4-1.3,1.2
	c-0.1,0.8,0.5,1,1.1,1.2c0.9,0.3,1.7,0.5,2.6,0.8c2.3,0.7,3.1,1.9,2.9,3.8c-0.2,1.9-1.6,2.9-3.8,3L97.9,168.6z"/>
<path class="st1" d="M11.6,168.6c-1.5,0.1-3-0.3-4.3-1.2c-0.6-0.4-0.6-0.8-0.2-1.3s0.6-0.9,1.3-0.3c1.1,0.9,2.5,1.2,3.8,0.9
	c0.7-0.1,1.3-0.6,1.3-1.3c0-0.8-0.5-1.1-1.1-1.3c-1-0.3-2.1-0.6-3.1-0.9C8,162.8,7,161.5,7,160.1c0.1-1.4,1.1-2.7,2.5-3
	c1.7-0.5,3.6-0.3,5.1,0.6c0.5,0.3,1,0.6,0.4,1.3c-0.6,0.7-0.7,0.9-1.5,0.3c-0.9-0.7-2.2-1-3.3-0.6c-0.6,0.1-1,0.5-1,1.1
	c0,0.7,0.4,1,0.9,1.2c0.9,0.3,1.8,0.5,2.7,0.8c2.2,0.7,3.1,1.9,2.9,3.6c-0.3,1.9-1.9,3.2-3.8,3.1L11.6,168.6z"/>
<path class="st1" d="M131.9,168.6c-1.4,0-2.7-0.4-3.8-1.2c-0.7-0.5-0.5-0.9-0.1-1.5c0.4-0.5,0.7-0.6,1.3-0.1c1,0.8,2.3,1.2,3.5,0.9
	c0.8,0,1.4-0.6,1.5-1.3c0.1-0.9-0.5-1.2-1.2-1.4c-1-0.3-2-0.5-3-0.9c-1.4-0.3-2.4-1.5-2.4-2.9c0-1.4,0.9-2.7,2.2-3.1
	c1.9-0.7,4-0.4,5.7,0.7c0.5,0.3,0.7,0.6,0.2,1.1c-0.5,0.4-0.5,1.2-1.3,0.5c-0.9-0.7-2.1-1-3.3-0.8c-0.7,0-1.3,0.5-1.3,1.2
	c-0.1,0.8,0.5,1,1.1,1.2c0.9,0.3,1.7,0.5,2.6,0.8c2.3,0.7,3.1,1.8,2.9,3.7c-0.2,1.9-1.6,2.9-3.9,3L131.9,168.6z"/>
<path class="st1" d="M166.3,162.8c0-1.6,0-3.1,0-4.7c0-0.7,0.1-1.1,0.9-1c1.4,0,2.9,0,4.3,0c1.9-0.1,3.4,1.4,3.5,3.2
	c0,0.1,0,0.2,0,0.2c0.1,1.9-1.4,3.6-3.3,3.7c-0.1,0-0.1,0-0.2,0c-1.1,0.1-2.4-0.5-3.1,0.3c-0.7,0.8-0.2,2-0.2,3c0,1-0.4,0.9-1.1,0.9
	c-0.7,0-1-0.3-1-1C166.4,165.9,166.4,164.3,166.3,162.8L166.3,162.8z M168.3,160.6c0.4,0.5-0.5,1.5,0.6,1.7c0.9,0.1,1.9,0.1,2.8-0.1
	c0.9-0.2,1.5-1.1,1.3-2c0-0.1-0.1-0.3-0.2-0.4c-0.4-0.9-2.3-1.4-4-1C167.9,159.1,168.6,160,168.3,160.6z"/>
<path class="st1" d="M45.6,162.7c0-1.5,0-3.1,0-4.6c0-0.8,0.2-1.1,1-1.1c1.3,0,2.8,0,4.2,0c1.9-0.1,3.5,1.4,3.6,3.3
	c0,0.1,0,0.2,0,0.2c0,2-1.6,3.6-3.6,3.6c-1,0.1-2.3-0.5-2.9,0.3c-0.7,0.8-0.2,1.9-0.1,2.9c0,1-0.3,1.1-1.1,1.1c-0.8,0-1.1-0.3-1-1.1
	c0.1-0.8,0-1.6,0-2.4C45.6,164.1,45.6,163.4,45.6,162.7L45.6,162.7z M49.6,158.9c-2.1,0-1.8-0.2-1.9,1.9c-0.1,1.3,0.3,2,1.7,1.7
	c0.4-0.1,0.9,0,1.3,0c0.9-0.1,1.7-0.9,1.6-1.8c0,0,0,0,0,0c0-0.9-0.7-1.6-1.6-1.7C50.3,158.9,49.9,158.8,49.6,158.9L49.6,158.9z"/>
<path class="st1" d="M210.9,168.6c-2.7,0.2-5.1-1.5-5.9-4.1c-0.8-2.6,0.2-5.4,2.5-6.8c2.2-1.4,5.1-1.1,7,0.7
	c0.3,0.3,1.1,0.7,0.5,1.3s-1,0.9-1.9,0.1c-1.3-1.4-3.5-1.5-4.9-0.2c-0.1,0.1-0.2,0.2-0.3,0.3c-1.4,1.7-1.4,4.1,0,5.8
	c1.3,1.4,3.5,1.6,5,0.3c0.1-0.1,0.1-0.1,0.2-0.2c0.8-0.8,1.3-0.2,1.8,0.2s-0.1,0.9-0.4,1.2C213.6,168.1,212.2,168.7,210.9,168.6z"/>
<path class="st1" d="M61.5,162.8c0-1.6,0-3.1,0-4.7c0-0.8,0.2-1.1,1-1.1c1.9,0,3.9,0,5.8,0c0.7,0,1.1,0.1,1.1,1s-0.4,0.9-1,0.9
	c-1.3,0-2.7,0-3.9,0c-1.2,0-0.9,0.9-0.9,1.5c0,0.6-0.2,1.4,0.9,1.3c1.1-0.1,2.7,0,3.9,0c0.8,0,0.9,0.4,0.9,1s-0.3,0.8-0.9,0.8
	c-1.2,0-2.4,0-3.6,0c-0.9,0-1.2,0.2-1.2,1.1s0,2,0,3c0,1-0.6,0.9-1.2,0.9c-0.6,0-0.9-0.2-0.9-1C61.6,166,61.5,164.4,61.5,162.8
	L61.5,162.8z"/>
<path class="st1" d="M230.1,162.7c0-1.6,0-3.1,0-4.7c0-0.8,0.4-0.9,1.1-1c0.7,0,1,0.2,1,1c0,2.5,0,4.9,0,7.4c0,0.9,0.3,1.3,1.2,1.2
	c1-0.1,1.8,0,2.7,0s1.2,0,1.2,1s-0.5,0.9-1.1,0.9c-1.6,0-3.2,0-4.9,0c-1,0-1.2-0.3-1.2-1.2C230.1,165.8,230.1,164.2,230.1,162.7z"/>
<path class="st1" d="M182.2,162.7c0-1.6,0-3.1,0-4.7c0-0.8,0.4-0.9,1.1-1c0.7,0,1.1,0.1,1.1,1c0,2.4,0,4.8,0,7.2
	c0,1.1,0.2,1.7,1.5,1.5c0.9-0.1,1.8,0,2.7,0s0.9,0.3,0.9,1s-0.3,0.9-1,0.9c-1.7,0-3.4,0-5.1,0c-0.8,0-1.1-0.3-1.1-1.1
	C182.3,165.8,182.2,164.3,182.2,162.7z"/>
<path class="st1" d="M119.5,166.2c0.8,0.1,1.2,0.5,1.2,1.2c0,0.7-0.5,1.2-1.2,1.2c-0.7,0-1.2-0.5-1.2-1.2
	C118.3,166.8,118.8,166.2,119.5,166.2z"/>
<path class="st1" d="M241.1,168.6c-0.8-0.1-1.2-0.5-1.2-1.3c0-0.6,0.4-1.1,1-1.1c0.1,0,0.2,0,0.2,0c0.6,0,1.1,0.4,1.1,1
	c0,0.1,0,0.1,0,0.2C242.2,168.3,241.7,168.5,241.1,168.6z"/>
<path class="st0" d="M242.5,143.9c0.2,0,0.4,0,0.7,0c0.3,0,0.6,0,0.8,0.2c0.1,0.1,0.2,0.3,0.2,0.5c0,0.3-0.2,0.6-0.5,0.7l0,0
	c0.2,0.1,0.4,0.3,0.4,0.5c0,0.2,0.1,0.5,0.2,0.7h-0.4c-0.1-0.2-0.1-0.4-0.2-0.6c-0.1-0.4-0.2-0.5-0.5-0.5h-0.3v1.2h-0.3L242.5,143.9
	z M242.8,145.1h0.3c0.4,0,0.6-0.2,0.6-0.5c0-0.3-0.3-0.5-0.6-0.5c-0.1,0-0.2,0-0.3,0L242.8,145.1z"/>
<path class="st0" d="M243.4,147.5c-1.3,0-2.3-1-2.3-2.3s1-2.3,2.3-2.3c1.3,0,2.3,1,2.3,2.3S244.6,147.5,243.4,147.5L243.4,147.5z
	 M243.4,143.5c-1,0-1.7,0.8-1.7,1.7c0,1,0.8,1.7,1.7,1.7c1,0,1.7-0.8,1.7-1.7l0,0C245.1,144.3,244.3,143.5,243.4,143.5z"/>
</svg>
