<svg id="Layer_1" data-name="Layer 1" xmlns="http://www.w3.org/2000/svg" viewBox="0 0 250 250"><defs><style>.cls-1{fill:#f8e79f;}.cls-2{fill:#414042;}.cls-3{fill:red;}</style></defs><title>mass merc-</title><path class="cls-1" d="M174.36,122h0c-.79,0-.79,0-.79-.79v-15.7c0-4.71-1.57-6.28-6.28-6.28H58.17c-.79,0-3.15,0-3.92,1.57a10.5,10.5,0,0,0-.79,3.92V121.2c-.79.79-2.36.79-3.92.79-7.07.79-12.56,4.71-15.7,11.78-2.36,4.71-3.15,10.2-2.36,17.27,1.57,12.56,8.64,20.42,21.19,20.42v13.34c0,2.36,0,3.92,1.57,5.49s3.15,1.57,5.49,1.57H167.28c4.71,0,6.28-1.57,6.28-6.28V172.23c0-.79,0-.79.79-1.57h2.36c7.85-.79,14.13-4.71,17.27-12.56a33.54,33.54,0,0,0,1.57-15.7C194,129.06,186.92,122,174.36,122Zm-56.53,22c-4.71,0-9.42-4.71-9.42-9.42s4.71-9.42,9.42-9.42,9.42,4.71,9.42,9.42C127.22,138.48,122.55,143.19,117.83,144ZM143,168.32c-4.71,0-10.2-4.71-10.2-9.42s4.71-9.42,9.42-9.42,9.42,4.71,9.42,9.42c.78,4.7-3.92,9.45-8.64,9.45Z"/><path class="cls-2" d="M143,148.68c-4.71,0-9.42,4.71-9.42,9.42s4.71,9.42,10.2,9.42c4.71,0,9.42-4.71,9.42-9.42C152.38,154.19,147.67,148.68,143,148.68Zm0,12.56a2.36,2.36,0,1,1,2.36-2.36h0a2.08,2.08,0,0,1-2.36,2.37Z"/><path class="cls-2" d="M117.83,124.36c-4.71,0-9.42,4.71-9.42,9.42s4.71,9.42,9.42,9.42,9.42-4.71,9.42-9.42S122.55,124.36,117.83,124.36Zm0,11.78a2.36,2.36,0,1,1,2.36-2.36h0a2.08,2.08,0,0,1-2.36,2.33Z"/><path class="cls-3" d="M204.19,126.71c11.78-3.92,15.7-10.2,14.13-22A34.12,34.12,0,0,0,212.8,89c-4.71-6.28-10.2-9.42-18.06-7.85H194c-1.57,0-3.15.79-3.15-1.57L190,75.69c-.79-3.15-1.57-7.07-2.36-10.2a6,6,0,0,0-1.53-3.16,3.57,3.57,0,0,0-3.92,0C146.12,70.19,67.6,86.67,66.81,87.46H64.45l2.36,10.2H174.36c3.15,0,3.15,0,3.15,3.92v15.7a2.88,2.88,0,0,0,.79,2.36c.79.79,1.57,1.57,2.36,1.57,7.85,1.57,12.56,6.28,15.7,13.34a4.72,4.72,0,0,1,.79,3.15c0,1.57.79,2.36.79,3.92s.79,3.15.79,4.71a19.5,19.5,0,0,1-.79,6.28l8.64-1.57v-.79c-.79-2.36-1.57-5.49-2.36-7.85l-.79-4.71a27.9,27.9,0,0,1-1.57-7.85C202.62,127.49,202.62,127.49,204.19,126.71Z"/><path class="cls-2" d="M113.89,95.3h58.9c4.71,0,5.49.79,5.49,5.49v14.91c0,1.57,0,2.36,1.57,2.36,11.78,3.15,17.27,11,19.63,22a28.2,28.2,0,0,1-2.36,19.63c-3.15,7.07-8.64,12.56-16.48,14.13a2.08,2.08,0,0,0-2.36,2.36v14.13q0,4.71-4.71,4.71H53.46q-4.71,0-4.71-4.71V176.12c0-1.57,0-2.36-1.57-2.36-11.78-2.36-17.27-10.2-18.89-21.19A35.65,35.65,0,0,1,33,127.46c3.15-4.71,7.85-8.64,14.13-9.42a2.08,2.08,0,0,0,2.36-2.36V100c0-3.92,1.57-4.71,4.71-4.71Zm0,7.07H59q-3.53,0-2.36,2.36v12.56c0,6.28,0,6.28-6.28,7.07-6.28,1.57-11,4.71-13.34,10.2-2.36,4.71-2.36,10.2-1.57,15.7.79,10.2,6.28,17.27,17.27,18.06a3.71,3.71,0,0,1,3.92,3.92V184.8c0,3.92,0,3.92,3.92,3.92H168.09c3.15,0,3.15,0,3.15-3.15V172.25a4.31,4.31,0,0,1,2.36-3.92,4.72,4.72,0,0,1,3.15-.79c7.07-.79,11.78-3.92,14.13-11a29.22,29.22,0,0,0,1.57-14.13c-.79-11.78-7.07-18.06-18.06-18.06a3.71,3.71,0,0,1-3.92-3.92V105.51c0-3.15,0-3.15-3.15-3.15Z"/><path class="cls-2" d="M113.89,95.3h58.9c4.71,0,5.49.79,5.49,5.49v14.91c0,1.57,0,2.36,1.57,2.36,11.78,3.15,17.27,11,19.63,22a28.2,28.2,0,0,1-2.36,19.63c-3.15,7.07-8.64,12.56-16.48,14.13a2.08,2.08,0,0,0-2.36,2.36v14.13q0,4.71-4.71,4.71H53.46q-4.71,0-4.71-4.71V176.12c0-1.57,0-2.36-1.57-2.36-11.78-2.36-17.27-10.2-18.89-21.19A35.65,35.65,0,0,1,33,127.46c3.15-4.71,7.85-8.64,14.13-9.42a2.08,2.08,0,0,0,2.36-2.36V100c0-3.92,1.57-4.71,4.71-4.71Zm0,7.07H59q-3.53,0-2.36,2.36v12.56c0,6.28,0,6.28-6.28,7.07-6.28,1.57-11,4.71-13.34,10.2-2.36,4.71-2.36,10.2-1.57,15.7.79,10.2,6.28,17.27,17.27,18.06a3.71,3.71,0,0,1,3.92,3.92V184.8c0,3.92,0,3.92,3.92,3.92H168.09c3.15,0,3.15,0,3.15-3.15V172.25a4.31,4.31,0,0,1,2.36-3.92,4.72,4.72,0,0,1,3.15-.79c7.07-.79,11.78-3.92,14.13-11a29.22,29.22,0,0,0,1.57-14.13c-.79-11.78-7.07-18.06-18.06-18.06a3.71,3.71,0,0,1-3.92-3.92V105.51c0-3.15,0-3.15-3.15-3.15Z"/><path class="cls-2" d="M222.25,107.86a23.19,23.19,0,0,1-14.13,22c-1.57.79-1.57,1.57-.79,2.36.79,4.71,2.36,9.42,3.15,13.34a2.88,2.88,0,0,0,.79,2.36c0,2.36-.79,3.92-2.36,3.92a3,3,0,0,1-3.89-2.37c-.79-3.15-1.57-7.07-2.36-11-.79-3.15-1.57-6.28-2.36-10.2-.79-2.36.79-3.92,2.36-4.71,10.2-3.92,14.13-9.42,13.34-20.42-.79-5.49-1.57-10.2-4.71-14.13-3.92-5.49-9.42-8.64-16.48-7.07h-2.36c-2.36,0-3.15-.79-3.92-3.15-.79-4.71-2.36-9.42-3.15-14.13-.79-1.57-.79-2.36-3.15-2.36L73.88,88.24c-.79,0-2.36.79-3.15.79-3.15.79-4.71,0-5.49-2.36-1.57-1.57-.79-3.15,2.36-3.92,5.49-1.57,11.78-2.36,17.27-3.92,33-7.85,65.94-15.7,98.13-23.55,4.71-.79,5.49,0,6.28,3.92.79,4.71,2.36,8.64,3.15,13.34a2.08,2.08,0,0,0,2.36,2.36c12.56,0,19.63,7.07,24.34,18.06C221.46,97.66,222.25,101.58,222.25,107.86Z"/><path class="cls-2" d="M222.25,107.86a23.19,23.19,0,0,1-14.13,22c-1.57.79-1.57,1.57-.79,2.36.79,4.71,2.36,9.42,3.15,13.34a2.88,2.88,0,0,0,.79,2.36c0,2.36-.79,3.92-2.36,3.92a3,3,0,0,1-3.89-2.37c-.79-3.15-1.57-7.07-2.36-11-.79-3.15-1.57-6.28-2.36-10.2-.79-2.36.79-3.92,2.36-4.71,10.2-3.92,14.13-9.42,13.34-20.42-.79-5.49-1.57-10.2-4.71-14.13-3.92-5.49-9.42-8.64-16.48-7.07h-2.36c-2.36,0-3.15-.79-3.92-3.15-.79-4.71-2.36-9.42-3.15-14.13-.79-1.57-.79-2.36-3.15-2.36L73.88,88.24c-.79,0-2.36.79-3.15.79-3.15.79-4.71,0-5.49-2.36-1.57-1.57-.79-3.15,2.36-3.92,5.49-1.57,11.78-2.36,17.27-3.92,33-7.85,65.94-15.7,98.13-23.55,4.71-.79,5.49,0,6.28,3.92.79,4.71,2.36,8.64,3.15,13.34a2.08,2.08,0,0,0,2.36,2.36c12.56,0,19.63,7.07,24.34,18.06C221.46,97.66,222.25,101.58,222.25,107.86Z"/><path class="cls-2" d="M148.91,132.4c0,.79-.79,1.57-1.57,2.36l-29,29a4.83,4.83,0,0,1-5.49.79,3.79,3.79,0,0,1-.13-5.36l.13-.13L141.9,130c1.57-1.57,2.36-1.57,4.71-.79C148.13,130,148.91,130.82,148.91,132.4Z"/><path class="cls-2" d="M148.91,132.4c0,.79-.79,1.57-1.57,2.36l-29,29a4.83,4.83,0,0,1-5.49.79,3.79,3.79,0,0,1-.13-5.36l.13-.13L141.9,130c1.57-1.57,2.36-1.57,4.71-.79C148.13,130,148.91,130.82,148.91,132.4Z"/><path class="cls-2" d="M152.79,159.88c0,4.71-4.71,9.42-9.42,9.42s-10.2-4.71-10.2-9.42,4.71-9.42,9.42-9.42C148.13,149.67,152.79,155.16,152.79,159.88Zm-9.42,2.36a2.36,2.36,0,1,0-2.36-2.36h0c-.73,1.57.84,2.36,2.41,2.36Z"/><path class="cls-2" d="M118.33,125.33c4.71,0,9.42,4.71,9.42,9.42s-4.71,9.42-9.42,9.42-9.42-4.71-9.42-9.42S113.59,125.33,118.33,125.33Zm2.36,9.42a2.36,2.36,0,1,0-2.36,2.36h0a2.08,2.08,0,0,0,2.32-2.36Z"/><path class="cls-2" d="M89.25,149.67H79a3.71,3.71,0,0,1-3.92-3.92c0-1.57,1.57-3.15,3.92-3.15H99.44a3.92,3.92,0,1,1,0,7.85h0A48.29,48.29,0,0,0,89.25,149.67Z"/><path class="cls-2" d="M89.25,149.67H79a3.71,3.71,0,0,1-3.92-3.92c0-1.57,1.57-3.15,3.92-3.15H99.44a3.92,3.92,0,1,1,0,7.85h0A48.29,48.29,0,0,0,89.25,149.67Z"/></svg>