<?xml version="1.0" encoding="utf-8"?>
<!-- Generator: Adobe Illustrator 21.1.0, SVG Export Plug-In . SVG Version: 6.00 Build 0)  -->
<svg version="1.1" id="Layer_1" xmlns="http://www.w3.org/2000/svg" xmlns:xlink="http://www.w3.org/1999/xlink" x="0px" y="0px"
	 viewBox="0 0 250 250" style="enable-background:new 0 0 250 250;" xml:space="preserve">
<style type="text/css">
	.st0{fill:#414042;}
	.st1{fill:#FFFFFF;}
	.st2{fill:#45A5DA;}
	.st3{fill:#F6D056;}
</style>
<rect x="26.3" y="174.5" class="st0" width="197.4" height="13"/>
<title>Grocery</title>
<g>
	<rect x="30.2" y="111.3" class="st1" width="36.4" height="45.6"/>
	<g>
		<path class="st1" d="M134.4,133.1c0,15.1,0,29.7,0,44.5c-6.1,0-12.2,0-18.5,0c0-0.6-0.1-1.2-0.1-1.8c0-13.4,0-26.9,0-40.3
			c0-1.8,0.5-2.4,2.3-2.4C123.5,133.1,128.8,133.1,134.4,133.1z"/>
		<path class="st0" d="M135,178.1h-19.6l-0.1-1c0-0.4-0.1-0.9-0.1-1.3v-11.1c0-9.6,0-19.5,0-29.2c0-1.2,0.2-1.8,0.7-2.3
			s1.2-0.6,2.2-0.6c3.8,0.1,7.6,0.1,11.6,0c1.6,0,3.1,0,4.7,0h0.6V178.1z M116.5,177h17.4v-43.3c-1.4,0-2.8,0-4.1,0
			c-4,0-7.7,0-11.6,0c-0.8,0-1.2,0.1-1.4,0.3c-0.2,0.2-0.3,0.7-0.3,1.5c0.1,9.7,0,19.6,0,29.2v11.1
			C116.4,176.2,116.4,176.6,116.5,177L116.5,177z"/>
	</g>
	<g>
		<path class="st2" d="M134.4,104c-6.2,0-12.3,0-18.5,0c0-0.6-0.1-1.1-0.1-1.7c0-6.6,0-13.3,0-19.9c0-1.2,0.4-1.8,1.5-2.3
			c5.8-2.5,5.8-2.5,11.6-0.3c1.8,0.7,4.3,1,5.2,2.4s0.3,3.8,0.4,5.8c0,4.7,0,9.4,0,14.1C134.5,102.7,134.5,103.4,134.4,104z"/>
	</g>
	<g>
		<path class="st2" d="M134.4,130.4c-6.2,0-12.2,0-18.4,0c0-7.9,0-15.5,0-23.5c6.1,0,12.2,0,18.4,0
			C134.4,114.9,134.4,122.5,134.4,130.4z"/>
	</g>
	<g>
		<path class="st1" d="M184.8,135.2c4.9,0,9.5,0,14.2,0.1c0.4,0,1.2,0.8,1.2,1.2c0.1,5.5,0.1,11,0,16.4c0,0.4-0.6,1.2-1,1.2
			c-4.8,0.1-9.5,0.1-14.4,0.1C184.8,147.8,184.8,141.6,184.8,135.2z"/>
		<path class="st0" d="M190.6,154.8c-0.9,0-1.9,0-2.8,0h-3.5v-20.1h3.7c3.8,0,7.4,0,11.1,0.1c0.7,0,1.7,1,1.7,1.8
			c0.1,5.3,0.1,10.6,0,16.5c0,0.7-0.8,1.8-1.5,1.8C196.4,154.7,193.4,154.8,190.6,154.8z M185.4,153.6h2.3c3.9,0,7.7,0,11.5-0.1
			c0.1-0.1,0.4-0.5,0.4-0.7c0.1-5.8,0.1-11.2,0-16.4c0-0.2-0.5-0.6-0.7-0.7c-3.6-0.1-7.2-0.1-11-0.1h-2.6v18H185.4z"/>
	</g>
	<g>
		<path class="st1" d="M83.7,144.9c0,2.6,0,5.2,0,7.8c0,1.1-0.3,1.5-1.4,1.5c-4.2,0-8.4,0-12.6,0c-1.2,0-1.6-0.4-1.5-1.6
			c0-5.3,0-10.6,0-15.9c0-1.1,0.4-1.6,1.5-1.6c4.2,0,8.4,0,12.6,0c1.1,0,1.4,0.5,1.4,1.5C83.6,139.4,83.6,142.2,83.7,144.9
			C83.6,144.9,83.7,144.9,83.7,144.9z"/>
		<path class="st0" d="M69.6,154.8c-0.5,0-1.1-0.1-1.5-0.5c-0.5-0.5-0.5-1.2-0.5-1.6c0-5,0-10.2,0-15.9c0-0.5,0-1.2,0.5-1.6
			c0.4-0.4,0.8-0.5,1.6-0.5c3.8,0,7.9,0,12.6,0c0.6,0,1.2,0.2,1.5,0.5c0.5,0.5,0.5,1.1,0.5,1.6c0,2,0,3.9,0,5.9v2.3v2.3
			c0,1.9,0,3.7,0,5.6c0,0.5,0,1.1-0.5,1.6c-0.4,0.4-1.1,0.5-1.5,0.5C77.9,154.7,73.7,154.7,69.6,154.8L69.6,154.8z M69.6,135.7
			c-0.4,0-0.6,0.1-0.8,0.2c-0.1,0.1-0.2,0.4-0.2,0.9c0,5.7,0,10.9,0,15.9c0,0.4,0.1,0.7,0.2,0.8s0.4,0.2,0.8,0.2c4,0,8.3,0,12.6,0
			c0.2,0,0.6,0,0.7-0.2c0.1-0.1,0.2-0.4,0.2-0.8c0-1.9,0-3.7,0-5.6v-1.7l0,0v-2.9c0-2,0-3.9,0-5.9c0-0.4-0.1-0.7-0.2-0.8
			s-0.5-0.2-0.7-0.2C77.6,135.8,73.5,135.8,69.6,135.7L69.6,135.7z"/>
	</g>
	<g>
		<path class="st1" d="M219.5,154c-5.3,0-10.3,0-15.6,0c0-3.3,0-6.5,0-9.6c0-2.6,0-5.1,0-7.7c0-1.1,0.3-1.6,1.5-1.6
			c4.2,0,8.4,0,12.6,0.1c0.5,0,1.5,0.6,1.5,0.9C219.5,142,219.5,148,219.5,154z"/>
		<path class="st0" d="M220,154.6h-16.7v-12.4c0-1.8,0-3.6,0-5.4c0-0.5,0-1.2,0.5-1.7c0.3-0.3,0.9-0.5,1.6-0.5c1.9,0,3.8,0,5.7,0
			c2.3,0,4.6,0,6.9,0c0.7,0,2,0.7,2,1.5c0.1,4.9,0.1,9.7,0.1,14.7L220,154.6z M204.4,153.5h14.5v-2.6c0-5,0-9.8-0.1-14.6
			c-0.2-0.2-0.7-0.5-0.9-0.5c-2.3,0-4.6,0-6.9,0c-1.9,0-3.8,0-5.7,0c-0.4,0-0.7,0.1-0.8,0.2c-0.1,0.1-0.2,0.4-0.2,0.9
			c0,1.8,0,3.6,0,5.4L204.4,153.5z M218.9,136.1L218.9,136.1L218.9,136.1z"/>
	</g>
	<g>
		<path class="st1" d="M219.5,114.1c0,5.9,0,11.6,0,17.2c0,0.4-0.5,1-0.8,1c-4.9,0.1-9.8,0-14.8,0c0-5.9,0-11.6,0-17.2
			c0-0.4,0.6-1,1-1C209.7,114.1,214.4,114.1,219.5,114.1z"/>
		<path class="st0" d="M209.3,132.9c-0.9,0-1.8,0-2.7,0h-3.3V129c0-4.8,0-9.3,0-13.8c0-0.7,0.9-1.6,1.5-1.6c3.8-0.1,7.6-0.1,11.6,0
			h3.5v3.8c0,4.8,0,9.4,0,14c0,0.6-0.7,1.6-1.3,1.6C215.6,132.9,212.5,132.9,209.3,132.9z M204.4,131.8h2.1c4.1,0,8,0,12,0
			c0.1-0.1,0.3-0.4,0.3-0.5c0-4.6,0-9.2,0-14v-2.7h-2.4c-4,0-7.8,0-11.6,0c-0.1,0-0.4,0.4-0.4,0.5c0,4.5,0,9,0,13.8L204.4,131.8z
			 M218.6,131.8L218.6,131.8L218.6,131.8z"/>
	</g>
	<g>
		<path class="st1" d="M83.5,132.3c-0.8,0-1.6,0.1-2.3,0.1c-3.8,0-7.6,0-11.5,0c-1.1,0-1.7-0.2-1.7-1.5c0-5.2,0-10.3,0-15.5
			c0-1.2,0.5-1.5,1.6-1.5c4,0,8,0.1,12,0c1.4,0,2,0.4,2,2c-0.1,4.9,0,9.8,0,14.7C83.7,131.2,83.6,131.7,83.5,132.3z"/>
		<path class="st0" d="M69.7,133c-0.6,0-1.2-0.1-1.7-0.5c-0.3-0.3-0.5-0.8-0.5-1.5c0-5.2,0-10.4,0-15.5c0-0.7,0.2-1.2,0.5-1.6
			c0.5-0.5,1.2-0.5,1.7-0.5c3.6,0,7.8,0.1,12,0c0.7,0,1.4,0.1,2,0.6c0.4,0.4,0.6,1,0.6,1.9c-0.1,3.3-0.1,6.7,0,10c0,1.6,0,3.1,0,4.7
			c0,0.3,0,0.7-0.1,1.1c0,0.2,0,0.4-0.1,0.6v0.5l-1.3,0.1c-0.5,0-1.1,0.1-1.6,0.1c-1.4,0-2.9,0-4.3,0C74.5,133,72.1,133,69.7,133
			L69.7,133z M69.6,114.5c-0.4,0-0.7,0.1-0.8,0.2c-0.1,0.1-0.2,0.4-0.2,0.8c0,5,0,10.2,0,15.5c0,0.3,0,0.6,0.2,0.7
			c0.1,0.1,0.4,0.2,0.9,0.2c2.4,0,4.8,0,7.1,0c1.4,0,2.9,0,4.3,0c0.5,0,1,0,1.5-0.1h0.3v-0.1c0-0.4,0.1-0.7,0.1-1c0-1.6,0-3.1,0-4.7
			c0-3.3,0-6.7,0-10c0-0.6-0.1-1-0.3-1.1c-0.2-0.2-0.6-0.3-1.2-0.3C77.5,114.6,73.3,114.6,69.6,114.5
			C69.7,114.5,69.7,114.5,69.6,114.5z"/>
	</g>
	<g>
		<path class="st1" d="M184.8,132.2c0-6.1,0-12,0-18.2c3.7,0,7.3,0,10.9,0c0.4,0,0.9,0,1.3,0c3.2,0.1,3.1,0.1,3.1,3.1
			c0,4.5,0,8.9,0,13.4c0,1.4-0.4,1.9-1.8,1.9c-4-0.1-8,0-12,0C185.9,132.4,185.4,132.3,184.8,132.2z"/>
		<path class="st0" d="M198.6,133h-0.1c-2.7-0.1-5.4,0-8,0c-1.4,0-2.7,0-4.1,0c-0.4,0-0.7,0-1.1-0.1c-0.2,0-0.3,0-0.5-0.1l-0.5-0.1
			v-19.3h11.5c0.3,0,0.5,0,0.8,0c0.2,0,0.4,0,0.6,0c3.5,0.1,3.7,0.3,3.7,3.7v3.2c0,3.3,0,6.8,0,10.2c0,0.6,0,1.4-0.6,1.9
			C199.9,132.8,199.4,133,198.6,133z M192.7,131.8c1.9,0,3.9,0,5.8,0c0.6,0,0.9-0.1,1-0.2c0.2-0.2,0.2-0.5,0.2-1.1
			c-0.1-3.4,0-6.9,0-10.2v-3.2c0-1.3,0-2.1-0.2-2.3c-0.2-0.2-1.1-0.2-2.4-0.3c-0.2,0-0.4,0-0.6,0c-0.2,0-0.5,0-0.7,0h-10.4v17.2
			c0,0,0,0,0.1,0c0.3,0,0.6,0.1,1,0.1c1.4,0,2.7,0,4.1,0C191.2,131.8,191.9,131.8,192.7,131.8z"/>
	</g>
	<g>
		<path class="st1" d="M181.1,144.8c0,2.5,0,5.1,0,7.6c0,1.2-0.3,1.8-1.6,1.8c-4,0-7.9,0-11.9,0c-1,0-1.5-0.4-1.5-1.4
			c0-5.4,0-10.8,0.1-16.3c0-0.4,0.9-1.2,1.3-1.3c4-0.1,8,0,12-0.1c1.2,0,1.5,0.5,1.5,1.6C181.1,139.4,181.1,142.1,181.1,144.8z"/>
		<path class="st0" d="M167.7,154.8c-0.4,0-1.1-0.1-1.5-0.5c-0.3-0.3-0.5-0.8-0.5-1.5c0-1.8,0-3.6,0-5.4c0-3.6,0-7.2,0.1-10.8
			c0-0.7,1.1-1.8,1.9-1.8c2.4-0.1,4.9-0.1,7.2-0.1c1.6,0,3.2,0,4.8,0c0.7,0,1.2,0.1,1.6,0.5c0.5,0.5,0.5,1.1,0.5,1.7
			c0,1.9,0,3.7,0,5.6v2.4v2.1c0,1.8,0,3.7,0,5.5c0,0.6,0,1.3-0.5,1.8c-0.4,0.4-0.8,0.5-1.6,0.5C175.2,154.7,171,154.7,167.7,154.8
			L167.7,154.8z M179.7,135.7L179.7,135.7c-1.6,0-3.3,0-4.9,0c-2.4,0-4.8,0-7.2,0.1c-0.2,0-0.7,0.5-0.8,0.7
			c-0.1,3.6-0.1,7.3-0.1,10.8c0,1.8,0,3.6,0,5.4c0,0.4,0.1,0.6,0.2,0.7c0.1,0.1,0.3,0.2,0.8,0.2c3.2,0,7.5-0.1,11.9,0
			c0.5,0,0.7-0.1,0.8-0.2c0.1-0.1,0.2-0.5,0.2-1c0-1.8,0-3.7,0-5.5v-2.1v-2.4c0-1.9,0-3.8,0-5.6c0-0.5,0-0.7-0.2-0.9
			C180.3,135.8,180,135.7,179.7,135.7z"/>
	</g>
	<g>
		<path class="st1" d="M181.1,123.2c0,2.5,0,5,0,7.4c0,1.2-0.3,1.8-1.6,1.7c-3.9-0.1-7.9,0-11.8,0c-1.2,0-1.6-0.4-1.6-1.6
			c0-5,0-9.9,0-14.9c0-1.4,0.4-2,1.9-2c3.9,0,7.8,0,11.6,0c1.2,0,1.5,0.6,1.5,1.6C181.1,118.2,181.1,120.7,181.1,123.2z"/>
		<path class="st0" d="M167.7,133c-0.7,0-1.2-0.2-1.6-0.5c-0.5-0.5-0.5-1.2-0.5-1.6c0-5.4,0-10.3,0-14.9c0-0.6,0-1.4,0.6-1.9
			c0.4-0.4,1-0.6,1.8-0.6c0,0,0,0,0.1,0c3.5,0,7.3,0,11.6,0c0.7,0,1.2,0.2,1.5,0.5c0.5,0.5,0.5,1.2,0.5,1.7c0,1.8,0,3.6,0,5.4v2.2
			c0,0.7,0,1.5,0,2.2c0,1.7,0,3.5,0,5.2c0,0.6,0,1.3-0.5,1.8c-0.4,0.4-0.9,0.5-1.6,0.5C175.3,132.9,171,132.9,167.7,133L167.7,133z
			 M168,114.6c-0.5,0-0.8,0.1-1,0.3c-0.2,0.2-0.3,0.6-0.3,1.1c0,4.6,0,9.4,0,14.9c0,0.4,0.1,0.7,0.2,0.8c0.1,0.1,0.4,0.2,0.8,0.2
			c3.3,0,7.5-0.1,11.8,0c0.3,0,0.7,0,0.8-0.2c0.1-0.1,0.2-0.5,0.2-1c0-1.8,0-3.5,0-5.2c0-0.7,0-1.5,0-2.2v-2.2c0-1.8,0-3.6,0-5.5
			c0-0.5,0-0.8-0.2-0.9c-0.1-0.1-0.5-0.2-0.7-0.2C175.4,114.6,171.6,114.6,168,114.6L168,114.6z"/>
	</g>
	<g>
		<path class="st2" d="M112.2,133.3c0,8,0,15.6,0,23.6c-3.9-0.2-7.6-0.5-11.5-0.7c-0.1-0.6-0.2-1-0.2-1.4c0-6.4,0-12.7,0-19.1
			c0-1.4,0.5-1.9,1.8-1.9C105.6,133.7,108.8,133.5,112.2,133.3z"/>
	</g>
	<g>
		<path class="st2" d="M138.4,107.3c3.5,0.7,7,1.3,10.4,2c0.5,0.1,1.1,0.9,1.1,1.4c0.1,6.4,0,12.7,0,19.1c0,1.1-0.4,1.5-1.5,1.4
			c-3-0.2-6-0.3-9-0.6c-0.5,0-1.4-0.8-1.4-1.2c-0.1-7.1,0-14.3,0-21.4C138.1,107.9,138.2,107.7,138.4,107.3z"/>
	</g>
	<g>
		<path class="st2" d="M138.2,156.9c0-8,0-15.6,0-23.4c3.7,0.2,7.3,0.4,10.9,0.7c0.4,0,0.9,0.8,0.9,1.3c0.1,6.4,0,12.7,0,19.1
			c0,0.5-0.6,1.3-0.9,1.3C145.5,156.3,141.9,156.6,138.2,156.9z"/>
	</g>
	<g>
		<path class="st2" d="M112.2,130.5c-3.9,0.2-7.6,0.4-11.6,0.6c0-0.9,0-1.6,0-2.3c0-5.9,0.1-11.7,0-17.6c0-1.4,0.5-1.9,1.7-2.1
			c3.3-0.5,6.5-1.1,9.9-1.8C112.2,115.1,112.2,122.7,112.2,130.5z"/>
	</g>
	<g>
		<path class="st2" d="M112.2,104.5c-3.8,0.7-7.6,1.3-11.4,2c-0.1-0.5-0.2-0.9-0.2-1.3c0-5.5,0-11.1,0-16.6c0-0.6,0.3-1.5,0.7-1.7
			c3.5-1.6,7.1-3,10.9-4.6C112.2,89.8,112.2,97.1,112.2,104.5z"/>
	</g>
	<g>
		<path class="st2" d="M138.1,83.3c3.9,1.5,7.5,2.8,11,4.2c0.4,0.2,0.9,0.8,0.9,1.3c0,5.7,0,11.3,0,17c0,0.2-0.1,0.3-0.3,0.7
			c-2.5-0.4-5.1-0.9-7.6-1.3c-4-0.7-4-0.7-4-4.7C138.1,94.9,138.1,89.3,138.1,83.3z"/>
	</g>
	<g>
		<path class="st2" d="M96.9,155.7c-3-0.4-5.8-0.7-8.6-1.1c-0.4-0.1-1-0.7-1-1c-0.1-6.1,0-12.2,0-18.5c3.3-0.3,6.4-0.6,9.7-0.9
			C96.9,141.4,96.9,148.4,96.9,155.7z"/>
	</g>
	<g>
		<path class="st2" d="M96.8,131.3c-3.2,0.3-6.3,0.5-9.7,0.8c0-1.1,0-2,0-2.8c0-4.8,0-9.7,0-14.5c0-1.2,0.4-1.7,1.5-2.1
			c2.7-0.8,5.3-1.6,8.2-2.5C96.8,117.4,96.8,124.2,96.8,131.3z"/>
	</g>
	<g>
		<path class="st2" d="M153.6,155.5c-0.1-0.7-0.2-1.2-0.2-1.7c0-5.8,0-11.6,0-17.4c0-1.4,0.3-2.1,1.9-1.9c2,0.2,4.1,0.2,6.1,0.5
			c0.5,0.1,1.2,0.8,1.2,1.2c0.1,5.7,0.1,11.3,0,17c0,0.4-0.6,1.2-1,1.3C159,154.9,156.4,155.1,153.6,155.5z"/>
	</g>
	<g>
		<path class="st2" d="M153.5,110.3c3,0.9,5.7,1.7,8.2,2.6c0.4,0.1,0.9,0.8,0.9,1.2c0.1,5.9,0,11.8,0,18c-2.9-0.2-5.6-0.3-8.3-0.6
			c-0.3,0-0.9-0.6-0.9-1C153.5,124,153.5,117.4,153.5,110.3z"/>
	</g>
	<g>
		<path class="st2" d="M97,88.5c0,3.6,0,7,0,10.3c0,2.4,0.1,4.7,0,7.1c0,0.6-0.4,1.5-0.8,1.6c-2.8,0.9-5.7,1.7-8.8,2.6
			c-0.1-0.7-0.2-1.2-0.2-1.8c0-4.7,0-9.4,0-14.2c0-1.2,0.3-1.8,1.5-2.3C91.4,90.9,94,89.8,97,88.5z"/>
	</g>
	<g>
		<path class="st2" d="M153.9,89.3c2.7,1,5.3,2,7.8,3c0.4,0.2,1,0.9,1,1.4c0.1,5.2,0,10.4,0,15.6c0,0.2-0.1,0.3-0.3,0.7
			c-2.7-0.8-5.5-1.6-8.2-2.4c-0.3-0.1-0.7-0.7-0.7-1.1c0-5.5,0-11.1,0-16.6C153.5,89.8,153.7,89.7,153.9,89.3z"/>
	</g>
	<g>
		<path class="st2" d="M149.9,158.7c0,3.4,0,6.7-0.1,9.9c0,0.4-0.9,1.1-1.4,1.1c-3,0.1-6.1,0.1-9.2,0c-0.4,0-1.2-0.6-1.2-1
			c-0.1-3-0.1-6-0.1-9.1C142,159.4,145.8,159.1,149.9,158.7z"/>
	</g>
	<g>
		<path class="st2" d="M100.6,159c4,0.3,7.7,0.5,11.7,0.8c0,3.1,0,6.1,0,9c0,0.4-0.7,1-1,1c-3.2,0.1-6.4,0.1-9.5,0
			c-0.4,0-1-0.7-1.1-1.1C100.5,165.5,100.6,162.4,100.6,159z"/>
	</g>
	<g>
		<path class="st2" d="M87.2,157.3c3.2,0.4,6,0.7,8.8,1.1c0.4,0.1,0.9,0.8,0.9,1.3c0.1,2.9,0,5.7,0.1,8.6c0,1.1-0.5,1.5-1.5,1.5
			c-2.3,0-4.6,0.1-6.9-0.1c-0.5,0-1.4-0.7-1.4-1C87.2,165,87.2,161.4,87.2,157.3z"/>
	</g>
	<g>
		<path class="st2" d="M162.7,157.2c0,4.1,0,7.8-0.1,11.5c0,0.4-0.8,1-1.2,1c-2.2,0.1-4.4,0.1-6.7,0c-0.5,0-1.2-0.9-1.2-1.4
			c-0.1-2.9-0.1-5.8,0-8.8c0-0.5,0.7-1.3,1.1-1.3C157.2,157.8,159.8,157.6,162.7,157.2z"/>
	</g>
	<g>
		<path class="st3" d="M221.8,108.1c-18,0-36.1,0-54.1,0c-0.4,0-0.9-0.1-1.4-0.1c0-4.6,0-9.2,0-14c1.1,0.4,2,0.7,2.9,1.1
			c2.1,0.8,4,0.6,5.8-0.7c2.2-1.5,3.4-3.7,3.1-6.4c-0.4-3-2.4-4.8-5.1-5.9c-15.7-6-31.4-12-47.1-18c-1.8-0.7-3.5-0.7-5.4,0.1
			c-14.3,6-28.7,11.9-43.1,17.9c-1.3,0.5-2.5,1.3-3.5,2.2c-2.3,2.1-2.6,5.4-0.9,8c1.8,2.8,4.9,3.9,8,2.8c0.8-0.3,1.7-0.6,2.6-0.9
			c0,4.8,0,9.4,0,14.1c-18.8,0-37.5,0-56.2,0c0,23.2,0,46.3,0,69.6c21,0,41.8,0,62.8,0c0,3,0,5.8,0,8.6c23.8,0,47.4,0,71.2,0
			c0-3,0-5.7,0-8.7c20.5,0,40.8,0,61.2,0c0-23.2,0-46.4,0-69.7C222.3,108.1,222.1,108.1,221.8,108.1z M153.5,90
			c0-0.1,0.1-0.2,0.3-0.6c2.7,1,5.3,2,7.8,3c0.4,0.2,1,0.9,1,1.4c0.1,5.2,0,10.4,0,15.6c0,0.2-0.1,0.3-0.3,0.7
			c-2.7-0.8-5.5-1.6-8.2-2.4c-0.3-0.1-0.7-0.7-0.7-1.1C153.5,101,153.5,95.5,153.5,90z M153.5,110.3c3,0.9,5.7,1.7,8.2,2.6
			c0.4,0.1,0.9,0.8,0.9,1.2c0.1,5.9,0,11.8,0,18c-2.9-0.2-5.6-0.3-8.3-0.6c-0.3,0-0.9-0.6-0.9-1C153.5,124,153.5,117.4,153.5,110.3z
			 M100.6,88.5c0-0.6,0.3-1.5,0.7-1.7c3.5-1.6,7.1-3,10.9-4.6c0,7.6,0,14.8,0,22.2c-3.8,0.7-7.6,1.3-11.4,2
			c-0.1-0.5-0.2-0.9-0.2-1.3C100.6,99.6,100.5,94.1,100.6,88.5z M49.3,114c4.9,0,9.5,0,14.2,0.1c0.4,0,1.1,0.7,1.1,1.2
			c0.1,5.3,0.1,10.6,0,15.9c0,0.5-0.9,1.3-1.3,1.3c-4.2,0.1-8.4,0.1-12.6,0c-0.4,0-1.2-0.8-1.2-1.2C49.3,125.6,49.3,119.9,49.3,114z
			 M49.3,144.6c0-2.6,0-5.2,0-7.8c0-1.1,0.3-1.6,1.5-1.6c4.1,0,8.3,0,12.4,0c1.1,0,1.5,0.4,1.5,1.5c0,5.4,0,10.8-0.1,16.2
			c0,0.5-0.8,1.3-1.3,1.3c-4.1,0.1-8.3,0-12.4,0.1c-1.1,0-1.6-0.4-1.5-1.6C49.3,150,49.3,147.3,49.3,144.6z M30.7,115.4
			c0-0.5,0.7-1.4,1-1.4c4.6-0.1,9.1-0.1,13.9-0.1c0,6.2,0,12.2,0,18.4c-2.6,0-5.2,0-7.8,0c-1.8,0-3.7,0-5.5,0
			c-1.1,0-1.6-0.3-1.6-1.5C30.7,125.7,30.6,120.6,30.7,115.4z M30.6,152.7c0-5.2,0.1-10.3,0-15.5c0-1.6,0.6-2.1,2.1-2.1
			c3.8,0.1,7.5,0,11.3,0.1c0.6,0,1.6,0.6,1.6,1c0.1,5.9,0.1,11.8,0.1,18c-2.6,0-5,0-7.4,0c-2,0-4.1,0-6.1,0
			C31.1,154.2,30.6,153.9,30.6,152.7z M82.2,154.2c-4.2,0-8.4,0-12.6,0c-1.2,0-1.6-0.4-1.5-1.6c0-5.3,0-10.6,0-15.9
			c0-1.1,0.4-1.6,1.5-1.6c4.2,0,8.4,0,12.6,0c1.1,0,1.4,0.5,1.4,1.5c0,2.7,0,5.5,0,8.2l0,0c0,2.6,0,5.2,0,7.8
			C83.7,153.8,83.3,154.2,82.2,154.2z M83.7,130.7c0,0.5-0.1,1-0.1,1.6c-0.8,0-1.6,0.1-2.3,0.1c-3.8,0-7.6,0-11.5,0
			c-1.1,0-1.7-0.2-1.7-1.5c0-5.2,0-10.3,0-15.5c0-1.2,0.5-1.5,1.6-1.5c4,0,8,0.1,12,0c1.4,0,2,0.4,2,2
			C83.6,120.9,83.7,125.8,83.7,130.7z M87.2,129.3c0-4.8,0-9.7,0-14.5c0-1.2,0.4-1.7,1.5-2.1c2.7-0.8,5.3-1.6,8.2-2.5
			c0,7.1,0,13.9,0,21.1c-3.2,0.3-6.3,0.5-9.7,0.8C87.2,131.1,87.2,130.2,87.2,129.3z M96.9,134.1c0,7.2,0,14.3,0,21.5
			c-3-0.4-5.8-0.7-8.6-1.1c-0.4-0.1-1-0.7-1-1c-0.1-6.1,0-12.2,0-18.5C90.5,134.7,93.6,134.4,96.9,134.1z M95.5,169.8
			c-2.3,0-4.6,0.1-6.9-0.1c-0.5,0-1.4-0.7-1.4-1c-0.1-3.7-0.1-7.4-0.1-11.4c3.2,0.4,6,0.7,8.8,1.1c0.4,0.1,0.9,0.8,0.9,1.3
			c0.1,2.9,0,5.7,0.1,8.6C97,169.5,96.6,169.8,95.5,169.8z M97,106c0,0.6-0.4,1.5-0.8,1.6c-2.8,0.9-5.7,1.7-8.8,2.6
			c-0.1-0.7-0.2-1.2-0.2-1.8c0-4.7,0-9.4,0-14.2c0-1.2,0.3-1.8,1.5-2.3c2.7-1,5.4-2.2,8.4-3.4c0,3.6,0,7,0,10.3
			C97,101.2,97.1,103.6,97,106z M102.3,109c3.3-0.5,6.5-1.1,9.9-1.8c0,7.8,0,15.4,0,23.2c-3.9,0.2-7.6,0.4-11.6,0.6
			c0-0.9,0-1.6,0-2.3c0-5.9,0.1-11.7,0-17.6C100.5,109.8,101,109.2,102.3,109z M102.4,133.7c3.2-0.1,6.4-0.3,9.9-0.4
			c0,8,0,15.6,0,23.6c-3.9-0.2-7.6-0.5-11.5-0.7c-0.1-0.6-0.2-1-0.2-1.4c0-6.4,0-12.7,0-19.1C100.5,134.2,101,133.8,102.4,133.7z
			 M112.2,168.7c0,0.4-0.7,1-1,1c-3.2,0.1-6.4,0.1-9.5,0c-0.4,0-1-0.7-1.1-1.1c-0.1-3.1,0-6.2,0-9.6c4,0.3,7.7,0.5,11.7,0.8
			C112.3,162.8,112.3,165.8,112.2,168.7z M134.4,177.5c-6.1,0-12.2,0-18.5,0c0-0.6-0.1-1.2-0.1-1.8c0-13.4,0-26.9,0-40.3
			c0-1.8,0.5-2.4,2.3-2.4c5.3,0.1,10.7,0,16.3,0C134.4,148.2,134.4,162.8,134.4,177.5z M116,130.4c0-7.9,0-15.5,0-23.5
			c6.1,0,12.2,0,18.4,0c0,8,0,15.7,0,23.5C128.2,130.4,122.2,130.4,116,130.4z M134.5,102.1c0,0.6-0.1,1.2-0.1,1.8
			c-6.2,0-12.3,0-18.5,0c0-0.6-0.1-1.1-0.1-1.7c0-6.6,0-13.3,0-19.9c0-1.2,0.4-1.8,1.5-2.3c5.8-2.5,5.8-2.5,11.6-0.3
			c1.8,0.7,4.3,1,5.2,2.4s0.3,3.8,0.4,5.8C134.5,92.7,134.5,97.4,134.5,102.1z M138.1,83.3c3.9,1.5,7.5,2.8,11,4.2
			c0.4,0.2,0.9,0.8,0.9,1.3c0,5.7,0,11.3,0,17c0,0.2-0.1,0.3-0.3,0.7c-2.5-0.4-5.1-0.9-7.6-1.3c-4-0.7-4-0.7-4-4.7
			C138.1,94.9,138.1,89.3,138.1,83.3z M149.9,168.6c0,0.4-0.9,1.1-1.4,1.1c-3,0.1-6.1,0.1-9.2,0c-0.4,0-1.2-0.6-1.2-1
			c-0.1-3-0.1-6-0.1-9.1c4-0.3,7.7-0.6,11.9-1C149.9,162.2,150,165.4,149.9,168.6z M149.9,154.6c0,0.5-0.6,1.3-0.9,1.3
			c-3.5,0.4-7.1,0.7-10.8,1c0-8,0-15.6,0-23.4c3.7,0.2,7.3,0.4,10.9,0.7c0.4,0,0.9,0.8,0.9,1.3C150,141.9,150,148.2,149.9,154.6z
			 M148.5,131.3c-3-0.2-6-0.3-9-0.6c-0.5,0-1.4-0.8-1.4-1.2c-0.1-7.1,0-14.3,0-21.4c0-0.2,0.1-0.3,0.3-0.7c3.5,0.7,7,1.3,10.4,2
			c0.5,0.1,1.1,0.9,1.1,1.4c0.1,6.4,0,12.7,0,19.1C150,131,149.5,131.4,148.5,131.3z M162.6,168.7c0,0.4-0.8,1-1.2,1
			c-2.2,0.1-4.4,0.1-6.7,0c-0.5,0-1.2-0.9-1.2-1.4c-0.1-2.9-0.1-5.8,0-8.8c0-0.5,0.7-1.3,1.1-1.3c2.6-0.4,5.1-0.7,8.1-1.1
			C162.7,161.3,162.7,165,162.6,168.7z M162.7,153.2c0,0.4-0.6,1.2-1,1.3c-2.6,0.4-5.3,0.7-8,1c-0.1-0.7-0.2-1.2-0.2-1.7
			c0-5.8,0-11.6,0-17.4c0-1.4,0.3-2.1,1.9-1.9c2,0.2,4.1,0.2,6.1,0.5c0.5,0.1,1.2,0.8,1.2,1.2C162.7,141.9,162.7,147.5,162.7,153.2z
			 M166.2,116c0-1.4,0.4-2,1.9-2c3.9,0,7.8,0,11.6,0c1.2,0,1.5,0.6,1.5,1.6c0,2.5,0,5.1,0,7.6s0,5,0,7.4c0,1.2-0.3,1.8-1.6,1.7
			c-3.9-0.1-7.9,0-11.8,0c-1.2,0-1.6-0.4-1.6-1.6C166.2,125.9,166.2,120.9,166.2,116z M181.1,144.8c0,2.5,0,5.1,0,7.6
			c0,1.2-0.3,1.8-1.6,1.8c-4,0-7.9,0-11.9,0c-1,0-1.5-0.4-1.5-1.4c0-5.4,0-10.8,0.1-16.3c0-0.4,0.9-1.2,1.3-1.3c4-0.1,8,0,12-0.1
			c1.2,0,1.5,0.5,1.5,1.6C181.1,139.4,181.1,142.1,181.1,144.8z M200.2,152.9c0,0.4-0.6,1.2-1,1.2c-4.8,0.1-9.5,0.1-14.4,0.1
			c0-6.4,0-12.6,0-19c4.9,0,9.5,0,14.2,0.1c0.4,0,1.2,0.8,1.2,1.2C200.3,141.9,200.3,147.4,200.2,152.9z M198.4,132.4
			c-4-0.1-8,0-12,0c-0.5,0-1-0.1-1.6-0.2c0-6.1,0-12,0-18.2c3.7,0,7.3,0,10.9,0c0.4,0,0.9,0,1.3,0c3.2,0.1,3.1,0.1,3.1,3.1
			c0,4.5,0,8.9,0,13.4C200.3,132,199.9,132.5,198.4,132.4z M219.5,154c-5.3,0-10.3,0-15.6,0c0-3.3,0-6.5,0-9.6c0-2.6,0-5.1,0-7.7
			c0-1.1,0.3-1.6,1.5-1.6c4.2,0,8.4,0,12.6,0.1c0.5,0,1.5,0.6,1.5,0.9C219.5,142,219.5,148,219.5,154z M219.5,131.3
			c0,0.4-0.5,1-0.8,1c-4.9,0.1-9.8,0-14.8,0c0-5.9,0-11.6,0-17.2c0-0.4,0.6-1,1-1c4.8-0.1,9.5,0,14.6,0
			C219.5,120,219.5,125.6,219.5,131.3z"/>
		<path class="st0" d="M162.5,187.5H89.1v-8.6H26.3v-71.8h56.2V95.7c-0.4,0.1-0.7,0.3-1.1,0.4c-3.5,1.3-7.2,0.1-9.3-3.2
			c-2-3.1-1.6-7,1.1-9.5c1-1,2.4-1.8,3.9-2.4c8-3.3,15.9-6.6,23.9-9.9c6.4-2.6,12.8-5.3,19.2-7.9c2.1-0.9,4.1-0.9,6.2-0.1l21.3,8.1
			c8.6,3.3,17.2,6.6,25.8,9.9c3.5,1.3,5.4,3.6,5.8,6.8c0.4,3-0.9,5.5-3.6,7.4c-2.1,1.5-4.5,1.7-6.9,0.8c-0.4-0.2-0.9-0.3-1.4-0.5
			V107c0.1,0,0.2,0,0.3,0c18,0,36.1,0,54.1,0l0,0c0.1,0,0.3,0,0.4,0l1.5-0.1v72h-61.2L162.5,187.5L162.5,187.5z M91.3,185.3h69v-8.7
			h61.2v-67.4c-17.9,0-35.9,0-53.8,0c-0.3,0-0.7,0-1-0.1l-1.5-0.1V92.4l2.5,0.9c0.7,0.2,1.3,0.5,1.9,0.7c1.7,0.7,3.3,0.5,4.8-0.6
			c2-1.4,2.9-3.2,2.6-5.3c-0.3-2.3-1.7-4-4.4-5c-8.6-3.3-17.2-6.6-25.8-9.9l-21.3-8.1c-1.6-0.6-3-0.6-4.6,0
			c-6.4,2.7-12.8,5.3-19.2,7.9c-8,3.3-15.9,6.6-23.9,9.9c-1.2,0.5-2.4,1.2-3.2,2c-1.9,1.7-2.1,4.4-0.7,6.6c1.5,2.4,4.1,3.3,6.6,2.3
			c0.6-0.2,1.2-0.4,1.8-0.6l2.4-0.8v16.8H28.5v67.3h62.8V185.3z M135.5,178.6h-20.6l-0.1-1.6c0-0.4-0.1-0.9-0.1-1.3v-11.1
			c0-9.6,0-19.5,0-29.2c0-0.9,0.1-2,0.8-2.7c0.7-0.7,1.8-0.8,2.6-0.8c3.8,0.1,7.6,0.1,11.5,0c1.6,0,3.1,0,4.7,0h1.1L135.5,178.6
			L135.5,178.6z M117,176.4h16.3v-42.2c-1.2,0-2.4,0-3.6,0c-4,0-7.7,0-11.6,0c-0.8,0-1,0.1-1,0.2c0,0-0.2,0.2-0.2,1.1
			c0.1,9.7,0,19.6,0,29.2v11.1C117,176,117,176.2,117,176.4z M158.1,171c-1.2,0-2.3,0-3.4-0.1c-1.1-0.1-2.2-1.5-2.3-2.5
			c-0.1-2.8-0.1-5.8,0-8.8c0-1,1.1-2.2,2-2.4c1.9-0.3,3.9-0.6,5.9-0.8c0.7-0.1,1.4-0.2,2.2-0.3l1.3-0.2v3.9c0,3.1,0,6-0.1,8.9
			c0,1-1.3,2.1-2.3,2.1C160.3,170.9,159.1,171,158.1,171z M155,168.6c1.9,0.1,3.9,0.1,6.3,0c0.1,0,0.2-0.1,0.2-0.2
			c0.1-2.8,0.1-5.6,0.1-8.6v-1.4c-0.3,0-0.6,0.1-1,0.1c-2,0.2-3.9,0.5-5.7,0.8c-0.1,0.1-0.3,0.3-0.3,0.4c-0.1,2.9-0.1,5.9,0,8.6
			C154.7,168.3,154.8,168.6,155,168.6z M143.7,170.9c-1.4,0-2.9,0-4.4-0.1c-0.9,0-2.3-1-2.3-2c-0.1-2.3-0.1-4.6-0.1-7v-3.2l14.1-1.1
			v3.6c0,2.6,0,5-0.1,7.5l0,0c0,1.1-1.4,2.1-2.4,2.2C147,170.9,145.4,170.9,143.7,170.9z M139.3,168.8L139.3,168.8L139.3,168.8z
			 M139.2,168.5c0.1,0.1,0.2,0.1,0.3,0.2c3.2,0.1,6.1,0.1,9,0c0,0,0.2-0.1,0.3-0.2c0.1-2.4,0.1-4.7,0.1-7.2v-1.2l-9.6,0.8v1.1
			C139.2,164.2,139.2,166.3,139.2,168.5z M148.8,168.6L148.8,168.6L148.8,168.6z M91.7,170.9c-1,0-2.1,0-3.1-0.1
			c-0.9,0-2.4-1-2.4-2.1c-0.1-2.9-0.1-5.7-0.1-8.8V156l3.5,0.4c2.3,0.3,4.5,0.5,6.6,0.9c1,0.2,1.8,1.5,1.9,2.4c0,1.6,0,3.2,0,4.8
			c0,1.3,0,2.5,0,3.8c0,0.8-0.2,1.5-0.6,1.9c-0.7,0.7-1.6,0.7-2,0.7l0,0c-0.8,0-1.6,0-2.5,0C92.6,170.9,92.2,170.9,91.7,170.9z
			 M95.9,168.7L95.9,168.7L95.9,168.7z M88.4,168.4c0.1,0.1,0.3,0.2,0.4,0.2c1.4,0.1,2.9,0.1,4.3,0c0.8,0,1.7,0,2.5,0l0,0
			c0.2,0,0.3,0,0.3,0c0-0.1,0-0.1,0-0.3c0-1.3,0-2.6,0-3.8c0-1.6,0-3.2,0-4.8c0,0-0.1-0.2-0.2-0.3c-2-0.3-4.1-0.6-6.3-0.8l-1-0.1
			v1.4C88.3,162.9,88.3,165.7,88.4,168.4z M106,170.9c-1.5,0-2.9,0-4.3-0.1c-1.1,0-2.1-1.3-2.1-2.2c-0.1-2.4-0.1-4.7-0.1-7.2v-3.6
			l13.9,0.9v3.2c0,2.4,0,4.6-0.1,6.9l0,0c0,0.9-1.1,2-2.1,2.1C109.4,170.9,107.7,170.9,106,170.9z M101.9,168.6
			c2.9,0.1,5.9,0.1,9.1,0l0.1-0.1c0.1-2.2,0.1-4.4,0-6.6v-1.1l-9.5-0.6v1.3c0,2.4,0,4.7,0,7C101.8,168.5,101.8,168.6,101.9,168.6z
			 M111,168.7L111,168.7L111,168.7z M101.7,168.6L101.7,168.6L101.7,168.6z M137,158.1v-25.8l3.6,0.2c2.9,0.2,5.7,0.3,8.5,0.6
			c1.1,0.1,1.9,1.5,1.9,2.4c0.1,6.4,0,12.8,0,19.1l0,0c0,0.9-0.8,2.3-1.9,2.4c-2.7,0.3-5.5,0.6-8.4,0.8L137,158.1z M139.3,134.7v21
			l1.3-0.1c2.8-0.2,5.4-0.5,8.1-0.8c0.1-0.1,0.1-0.2,0.2-0.3c0.1-6.3,0.1-12.7,0-19c0,0-0.1-0.1-0.2-0.2c-2.7-0.2-5.3-0.4-8.1-0.5
			L139.3,134.7z M113.3,158.1l-13.5-0.9l-0.1-0.9c0-0.2-0.1-0.3-0.1-0.5c-0.1-0.4-0.1-0.7-0.1-1.1c0-2.1,0-4.2,0-6.3
			c0-4.3,0-8.5,0-12.8c0-2,0.9-3,2.9-3l0,0c2.3,0,4.5-0.2,6.9-0.3c1-0.1,2-0.1,3-0.2l1.2-0.1v26.1H113.3z M101.7,155.1l9.4,0.6
			v-21.2c-0.6,0-1.2,0.1-1.8,0.1c-2.4,0.1-4.6,0.2-6.9,0.3l0,0c-0.5,0-0.7,0.1-0.7,0.1l0,0c0,0-0.1,0.1-0.1,0.7c0,4.3,0,8.5,0,12.8
			c0,2.1,0,4.2,0,6.3C101.7,154.8,101.7,155,101.7,155.1z M98,156.9l-3.4-0.4c-2.2-0.3-4.3-0.5-6.5-0.9c-0.9-0.1-2-1.2-2-2.1
			c-0.1-5-0.1-9.8,0-15v-4.6l11.9-1.1V156.9z M88.4,153.3c0.1,0.1,0.2,0.1,0.2,0.2c2,0.3,4.1,0.6,6.3,0.8l0.9,0.1v-19.1l-7.5,0.7
			v2.5C88.3,143.6,88.3,148.4,88.4,153.3z M152.6,156.7l-0.1-1.1c0-0.2,0-0.4-0.1-0.6c-0.1-0.4-0.1-0.8-0.1-1.2c0-2,0-4,0-5.9
			c0-3.8,0-7.6,0-11.4c0-0.8,0.1-1.8,0.8-2.5c0.6-0.5,1.3-0.7,2.4-0.6c0.9,0.1,1.9,0.2,2.8,0.2c1.1,0.1,2.2,0.1,3.3,0.3
			c0.9,0.1,2.1,1.3,2.1,2.3c0.1,5.4,0.1,11.1,0,17c0,1-1,2.2-2,2.3c-2,0.3-3.9,0.5-6,0.8L152.6,156.7z M154.6,135.6
			c0,0-0.1,0.2-0.1,0.8c0,3.8,0,7.6,0,11.4c0,2,0,4,0,5.9c0,0.1,0,0.3,0,0.4l0.9-0.1c2-0.2,3.9-0.4,5.8-0.7c0.1-0.1,0.2-0.2,0.2-0.3
			c0.1-5.8,0.1-11.4,0-16.7c-0.1-0.1-0.2-0.2-0.3-0.3c-1-0.1-2-0.2-3-0.2c-1-0.1-2-0.1-2.9-0.2C154.8,135.5,154.7,135.6,154.6,135.6
			L154.6,135.6z M161.3,153.4L161.3,153.4L161.3,153.4z M161.5,153.2L161.5,153.2L161.5,153.2z M161.6,153.1L161.6,153.1
			L161.6,153.1z M161.2,136.1L161.2,136.1L161.2,136.1z M32.1,155.3c-0.6,0-1.3-0.1-1.9-0.7c-0.5-0.5-0.7-1.1-0.7-2l0,0
			c0.1-6,0.1-11,0-15.5c0-0.7,0.1-1.7,0.8-2.4c0.7-0.7,1.8-0.8,2.5-0.8c1.9,0,3.8,0,5.7,0s3.7,0,5.6,0c0.8,0,2.7,0.8,2.7,2
			c0.1,4.9,0.1,9.7,0.1,14.8v4.4H36.6c-1.4,0-2.8,0-4.2,0C32.2,155.3,32.2,155.3,32.1,155.3z M31.8,153.1c0.1,0,0.2,0,0.4,0
			c1.4,0,2.9,0,4.3,0h8.1v-2.2c0-5,0-9.6-0.1-14.4c-0.2-0.1-0.4-0.2-0.5-0.2c-1.8,0-3.7,0-5.6,0c-1.9,0-3.8,0-5.7,0
			c-0.7,0-0.9,0.1-0.9,0.1s-0.1,0.1-0.1,0.8c0.1,4.5,0.1,9.4,0,15.5l0,0C31.7,152.9,31.8,153,31.8,153.1L31.8,153.1z M69.6,155.3
			c-0.9,0-1.5-0.2-1.9-0.7c-0.6-0.6-0.7-1.5-0.7-2c0-5,0-10.2,0-15.8c0-0.6,0.1-1.4,0.7-2c0.5-0.5,1.1-0.7,2-0.7c3.8,0,7.9,0,12.6,0
			c0.8,0,1.4,0.2,1.9,0.7c0.6,0.6,0.7,1.4,0.7,2c0,2,0,3.9,0,5.9v2.3v2.3c0,1.9,0,3.7,0,5.6c0,0.6,0,1.4-0.6,2
			c-0.4,0.4-1,0.7-1.9,0.7l0,0C77.9,155.3,73.7,155.3,69.6,155.3L69.6,155.3z M69.3,153.1c0.1,0,0.2,0,0.4,0c4.1,0,8.3,0,12.6,0
			c0.1,0,0.2,0,0.3,0c0-0.1,0-0.2,0-0.3c0-1.9,0-3.7,0-5.6v-1.4v-3.2c0-2,0-3.9,0-5.9c0-0.2,0-0.3,0-0.4c-0.1,0-0.1,0-0.3,0
			c-4.7,0-8.8,0-12.6,0c-0.2,0-0.3,0-0.4,0c0,0,0,0.2,0,0.4c0,5.7,0,10.9,0,15.9C69.2,152.9,69.2,153,69.3,153.1
			C69.2,153.1,69.3,153.1,69.3,153.1z M82.6,136.3L82.6,136.3L82.6,136.3z M167.7,155.3c-0.8,0-1.5-0.2-1.9-0.7
			c-0.4-0.4-0.7-1.1-0.7-1.9c0-1.8,0-3.6,0-5.4c0-3.6,0-7.2,0.1-10.9c0-1.1,1.4-2.3,2.4-2.4c2.4-0.1,4.9-0.1,7.3-0.1
			c1.6,0,3.2,0,4.8,0c0.9,0,1.5,0.2,2,0.7c0.6,0.6,0.7,1.5,0.7,2.1c0,1.9,0,3.8,0,5.7v2.3v2c0,1.8,0,3.7,0,5.6c0,0.6,0,1.5-0.7,2.2
			c-0.5,0.5-1.2,0.7-2,0.7C175.2,155.3,171,155.3,167.7,155.3L167.7,155.3z M167.4,153.1c0,0,0.1,0,0.3,0c3.3,0,7.5-0.1,11.9,0
			c0.3,0,0.4,0,0.4,0s0-0.2,0-0.6c0-1.9,0-3.8,0-5.7v-2v-2.3c0-1.9,0-3.8,0-5.7c0-0.2,0-0.4,0-0.4c-0.1,0-0.2,0-0.3,0
			c-1.6,0-3.2,0-4.8,0c-2.3,0-4.7,0-7.1,0.1c-0.1,0.1-0.3,0.2-0.4,0.3c-0.1,3.6-0.1,7.2-0.1,10.7c0,1.8,0,3.6,0,5.4
			C167.3,152.9,167.3,153,167.4,153.1L167.4,153.1z M180.1,136.3L180.1,136.3L180.1,136.3z M50.8,155.3c-0.4,0-1.3,0-2-0.7
			c-0.5-0.5-0.7-1.1-0.7-2c0-1.9,0-3.8,0-5.7c0-0.8,0-1.6,0-2.3v-2.3c0-1.8,0-3.7,0-5.5c0-0.7,0-1.5,0.7-2.1c0.4-0.5,1.1-0.7,2-0.7
			c3.6,0,7.4,0,12.4,0c0.8,0,1.5,0.2,1.9,0.7c0.5,0.4,0.7,1.1,0.7,1.9c0,1.8,0,3.6,0,5.3c0,3.6,0,7.3-0.1,10.9c0,1-1.3,2.3-2.4,2.4
			c-2.7,0.1-5.4,0.1-8.1,0.1C53.7,155.3,52.3,155.3,50.8,155.3L50.8,155.3z M50.4,153.1c0,0,0.2,0,0.4,0c1.4,0,2.9,0,4.3,0
			c2.6,0,5.3,0,7.9-0.1c0.1-0.1,0.3-0.2,0.3-0.3c0.1-3.6,0.1-7.2,0.1-10.7c0-1.8,0-3.6,0-5.4c0-0.2,0-0.3,0-0.3s-0.1,0-0.3,0l0,0
			c-5,0-8.8,0-12.4,0c-0.2,0-0.3,0-0.3,0c0,0.1,0,0.2,0,0.5c0,1.9,0,3.7,0,5.6v2.2c0,0.8,0,1.5,0,2.3c0,1.9,0,3.8,0,5.7
			C50.4,152.9,50.4,153,50.4,153.1L50.4,153.1z M63,153.1L63,153.1L63,153.1z M50.3,136.3L50.3,136.3L50.3,136.3z M190.6,155.3
			c-0.9,0-1.9,0-2.8,0h-4v-21.2h4.2c3.8,0,7.4,0,11.1,0.1c1,0,2.3,1.3,2.3,2.3c0.1,5.3,0.1,10.6,0,16.5l0,0c0,1-1.1,2.3-2.1,2.3
			C196.4,155.3,193.4,155.3,190.6,155.3z M186,153.1h1.8c3.8,0,7.5,0,11.2-0.1c0.1-0.1,0.1-0.2,0.2-0.2c0.1-5.7,0.1-11,0-16.2
			c-0.1-0.1-0.2-0.2-0.3-0.3c-3.6-0.1-7.1-0.1-10.9-0.1h-2V153.1z M220.6,155.2h-17.9v-13c0-1.8,0-3.6,0-5.4c0-0.6,0-1.5,0.6-2.1
			c0.5-0.5,1.1-0.7,2-0.7c1.9,0,3.8,0,5.7,0c2.3,0,4.6,0,6.9,0c0.9,0,2.5,0.9,2.6,2c0.1,4.9,0.1,9.7,0.1,14.7L220.6,155.2z
			 M205,152.9h13.4v-2.1c0-4.9,0-9.6-0.1-14.3c-0.1-0.1-0.3-0.2-0.4-0.2c-2.3,0-4.6,0-6.8,0c-1.9,0-3.8,0-5.7,0c-0.2,0-0.3,0-0.3,0
			c0,0.1,0,0.2,0,0.4c0,1.8,0,3.7,0,5.4L205,152.9z M218.3,136.2L218.3,136.2L218.3,136.2z M198.6,133.6h-0.1l0,0
			c-2.6-0.1-5.3,0-7.9,0c-1.4,0-2.7,0-4.1,0c-0.4,0-0.8,0-1.2-0.1c-0.2,0-0.3,0-0.5-0.1l-1-0.1v-20.4h12.1c0.3,0,0.5,0,0.8,0
			c0.2,0,0.4,0,0.6,0c3.8,0.1,4.2,0.5,4.2,4.2v3.2c0,3.3,0,6.8,0,10.2c0,0.7-0.1,1.6-0.7,2.3C200.1,133.5,199.2,133.6,198.6,133.6z
			 M198.5,131.3c0.5,0,0.6-0.1,0.7-0.1c0,0,0.1-0.2,0.1-0.7c-0.1-3.4,0-6.9,0-10.2v-3.2c0-0.8,0-1.6-0.1-1.9c-0.3-0.1-1.1-0.1-2-0.1
			c-0.2,0-0.4,0-0.6,0c-0.2,0-0.5,0-0.7,0h-9.8v16.1c0.2,0,0.3,0,0.4,0c1.4,0,2.7,0,4.1,0C193.1,131.3,195.8,131.3,198.5,131.3
			L198.5,131.3z M32.1,133.5c-0.6,0-1.3-0.1-1.9-0.6c-0.5-0.5-0.7-1.1-0.7-2c0-2.1,0-4.2,0-6.3c0-3.1,0-6.1,0-9.2l0,0
			c0-0.9,1-2.4,2.1-2.5c3.6-0.1,7.2-0.1,11-0.1h4v20.6h-8.9c-0.6,0-1.1,0-1.7,0c-1.3,0-2.5,0-3.8,0
			C32.2,133.5,32.1,133.5,32.1,133.5z M31.8,131.3c0.1,0,0.2,0,0.4,0c1.3,0,2.6,0,3.9,0c0.6,0,1.1,0,1.7,0h6.7v-16.2h-1.8
			c-3.7,0-7.1,0-10.7,0.1c-0.1,0.1-0.2,0.2-0.2,0.3c0,3,0,6,0,9.1c0,2.1,0,4.2,0,6.3C31.7,131.1,31.8,131.3,31.8,131.3L31.8,131.3z
			 M167.7,133.5c-0.9,0-1.5-0.2-1.9-0.7c-0.6-0.6-0.7-1.5-0.7-2c0-5.4,0-10.3,0-14.9l0,0c0-0.7,0.1-1.6,0.8-2.3
			c0.5-0.5,1.2-0.7,2.2-0.7c3.5,0,7.3,0,11.6,0c0.9,0,1.5,0.2,1.9,0.7c0.6,0.6,0.7,1.5,0.7,2.1c0,1.8,0,3.6,0,5.4v2.2
			c0,0.7,0,1.5,0,2.2c0,1.7,0,3.5,0,5.2c0,0.7,0,1.6-0.7,2.2c-0.5,0.5-1.1,0.7-2,0.7C175.3,133.5,171,133.5,167.7,133.5L167.7,133.5
			z M167.4,131.3c0,0,0.2,0,0.4,0c3.3,0,7.6-0.1,11.9,0c0.2,0,0.4,0,0.4,0s0-0.2,0-0.5c0-1.8,0-3.5,0-5.3c0-0.7,0-1.5,0-2.2v-2.2
			c0-1.8,0-3.7,0-5.5c0-0.3,0-0.4,0-0.5c0,0-0.1,0-0.3,0l0,0c-4.3,0.1-8.1,0.1-11.7,0c-0.5,0-0.6,0.1-0.6,0.1s-0.1,0.1-0.1,0.7l0,0
			c0,4.6,0,9.5,0,14.9C167.3,131.1,167.3,131.2,167.4,131.3C167.3,131.3,167.4,131.3,167.4,131.3z M69.7,133.5
			c-0.7,0-1.5-0.1-2.1-0.7c-0.5-0.5-0.7-1.1-0.7-1.9c0-5.2,0-10.4,0-15.4c0-0.9,0.2-1.5,0.7-2c0.6-0.6,1.5-0.7,2.1-0.7
			c3.6,0,7.8,0.1,12,0c0.8,0,1.7,0.1,2.4,0.8c0.7,0.7,0.8,1.7,0.7,2.3c-0.1,3.3-0.1,6.7,0,10c0,1.6,0,3.1,0,4.7l0,0
			c0,0.4,0,0.7-0.1,1.2c0,0.2,0,0.4-0.1,0.6l-0.1,1l-1.7,0.1c-0.6,0-1.1,0.1-1.6,0.1c-1.4,0-2.9,0-4.3,0
			C74.5,133.5,72.1,133.5,69.7,133.5L69.7,133.5z M69.3,131.3c0.1,0,0.2,0,0.5,0c2.4,0,4.8,0,7.1,0c1.4,0,2.9,0,4.3,0
			c0.4,0,0.9,0,1.3,0c0-0.2,0-0.4,0-0.6c0-1.6,0-3.1,0-4.7c0-3.3,0-6.7,0-10.1c0-0.6-0.1-0.7-0.1-0.7l0,0c0,0-0.2-0.1-0.8-0.1
			c-4.2,0-8.5,0-12,0c-0.3,0-0.4,0-0.5,0c0,0,0,0.1,0,0.4c0,5,0,10.2,0,15.5C69.2,131.1,69.2,131.2,69.3,131.3
			C69.2,131.3,69.2,131.3,69.3,131.3z M56.9,133.5c-2.1,0-4.2,0-6.4-0.1c-1,0-2.3-1.3-2.3-2.3c-0.1-4.5-0.1-8.9-0.1-13.6v-4.7h4.1
			c3.9,0,7.5,0,11.2,0.1c1,0,2.1,1.2,2.2,2.3c0.1,5.8,0.1,11,0,15.9c0,1-1.4,2.3-2.4,2.4C61.2,133.5,59.1,133.5,56.9,133.5z
			 M50.7,131.2c4.3,0.1,8.4,0.1,12.3,0c0.1-0.1,0.3-0.2,0.4-0.3c0.1-4.8,0.1-9.9,0-15.5c0-0.1-0.1-0.1-0.2-0.2
			c-3.6-0.1-7.2-0.1-11-0.1h-1.9v2.5c0,4.6,0,9,0.1,13.4C50.5,131.1,50.6,131.2,50.7,131.2z M50.5,131.1L50.5,131.1L50.5,131.1z
			 M63.5,130.8L63.5,130.8L63.5,130.8z M63.5,115.4L63.5,115.4L63.5,115.4z M63.2,115.1L63.2,115.1L63.2,115.1z M209.3,133.5
			c-0.9,0-1.8,0-2.7,0h-3.8V129c0-4.8,0-9.3,0-13.8c0-1,1.1-2.1,2.1-2.1c3.8-0.1,7.6-0.1,11.6,0h4.1v4.4c0,4.8,0,9.4,0,14l0,0
			c0,0.8-0.8,2.1-1.9,2.1C215.6,133.5,212.5,133.5,209.3,133.5z M218.3,131.3L218.3,131.3L218.3,131.3L218.3,131.3z M205,131.3h1.6
			c4,0,7.9,0,11.7,0l0,0c0-4.6,0-9.2,0-13.9v-2.1h-1.9c-3.9,0-7.6,0-11.4,0l-0.1,0.1c0,4.5,0,8.9,0,13.6L205,131.3z M86.1,133.4v-8
			c0-3.5,0-7.1,0-10.6c0-1.7,0.7-2.7,2.3-3.1c1.9-0.5,3.8-1.1,5.7-1.7l3.9-1.2v23.6L86.1,133.4z M95.7,111.8l-1,0.3
			c-2,0.6-3.9,1.2-5.8,1.7c-0.5,0.1-0.7,0.2-0.6,1c0,3.5,0,7.1,0,10.6v5.6l7.4-0.6V111.8z M163.8,133.3l-3.2-0.2
			c-2.2-0.1-4.2-0.2-6.3-0.4c-1-0.1-1.9-1.3-1.9-2.1c0-5.5,0-11,0-16.7v-5.1l3.7,1.1c2.1,0.6,4.1,1.3,6,1.9c0.8,0.3,1.7,1.3,1.7,2.2
			c0.1,4.8,0,9.5,0,14.4V133.3z M154.7,130.5c2,0.2,3.9,0.3,6,0.4l0.9,0.1v-2.4c0-4.9,0-9.6,0-14.3c0-0.1-0.2-0.2-0.2-0.3
			c-1.9-0.6-3.8-1.2-5.9-1.9l-0.8-0.3v2.1C154.6,119.6,154.6,125,154.7,130.5L154.7,130.5z M161.5,114.2L161.5,114.2L161.5,114.2z
			 M148.7,132.4c-0.1,0-0.2,0-0.3,0l0,0c-1.1-0.1-2.2-0.1-3.3-0.2c-1.9-0.1-3.8-0.2-5.7-0.4c-1-0.1-2.4-1.3-2.4-2.3
			c-0.1-6.3,0-12.8,0-19v-2.4c0-0.4,0.1-0.6,0.3-0.9c0-0.1,0.1-0.2,0.1-0.3l0.4-0.8l3.4,0.6c2.6,0.5,5.3,1,8,1.6c1,0.2,2,1.5,2,2.5
			c0,4.3,0,8.7,0,13c0,2.1,0,4.1,0,6.2c0,0.9-0.2,1.5-0.7,1.9C150,132.2,149.4,132.4,148.7,132.4z M148.6,130.2c0.1,0,0.2,0,0.3,0
			c0-0.1,0-0.1,0-0.3c0-2.1,0-4.1,0-6.2c0-4.2,0-8.6,0-13c0,0-0.2-0.3-0.3-0.4c-2.6-0.6-5.2-1.1-7.8-1.5l-1.5-0.3v1.9
			c0,6.2,0,12.5,0,18.8c0.1,0.1,0.3,0.3,0.4,0.3c1.8,0.2,3.7,0.3,5.6,0.4C146.4,130.1,147.5,130.1,148.6,130.2L148.6,130.2z
			 M139.2,129.2L139.2,129.2L139.2,129.2z M99.4,132.2V124c0-4.2,0-8.6,0-12.9c0-1.9,0.8-2.9,2.7-3.2c2.3-0.4,4.6-0.8,7-1.2l4.2-0.8
			v25.6L99.4,132.2z M111.1,108.6l-1.6,0.3c-2.4,0.4-4.7,0.9-7,1.2l0,0c-0.7,0.1-0.8,0.2-0.8,1c0.1,4.3,0.1,8.7,0,12.9v5.8l9.4-0.5
			V108.6z M135.5,131.5h-20.6v-25.7h20.6V131.5z M117.1,129.2h16.2V108h-16.2C117.1,108,117.1,129.2,117.1,129.2z M86.4,111.6
			l-0.1-1.3c0-0.2,0-0.4-0.1-0.6c-0.1-0.4-0.1-0.8-0.1-1.2c0-1.6,0-3.3,0-4.9c0-3.1,0-6.1,0-9.2c0-1.2,0.2-2.6,2.2-3.3
			c1.9-0.7,3.8-1.5,5.8-2.3c0.8-0.4,1.7-0.7,2.6-1.1l1.5-0.6v12c0,0.6,0,1.3,0,1.9c0,1.7,0,3.5,0,5.2l0,0c0,0.9-0.6,2.3-1.6,2.6
			c-2.1,0.7-4.3,1.3-6.6,2L86.4,111.6z M95.9,90.2c-0.3,0.1-0.7,0.3-1,0.4c-2,0.8-3.9,1.7-5.9,2.4c-0.6,0.2-0.8,0.4-0.7,1.2
			c0,3.1,0,6.2,0,9.2c0,1.6,0,3.3,0,4.9c0,0.1,0,0.2,0,0.3l1-0.3c2.2-0.6,4.3-1.2,6.3-1.9c0.1-0.1,0.2-0.5,0.2-0.6
			c0.1-1.7,0.1-3.4,0-5.1c0-0.6,0-1.3,0-1.9L95.9,90.2L95.9,90.2z M163.1,111.5l-2.9-0.9c-2-0.6-4.2-1.2-6.2-1.9
			c-0.9-0.3-1.5-1.4-1.5-2.2c0-5.1,0-10.3,0-15.3v-1.3c0-0.4,0.2-0.6,0.3-0.8c0-0.1,0.1-0.2,0.2-0.3l0.5-0.9l2.9,1.1
			c1.9,0.7,3.9,1.5,5.9,2.3c0.9,0.4,1.6,1.5,1.6,2.4c0.1,4.5,0,9.1,0,13.6v2.1c0,0.4-0.1,0.6-0.2,0.8c0,0.1-0.1,0.2-0.1,0.3
			L163.1,111.5z M154.7,106.7c2,0.6,4,1.2,6,1.8l0.8,0.2v-1.4c0-4.5,0-9.1,0-13.6c0-0.1-0.2-0.3-0.3-0.4c-1.9-0.8-3.8-1.5-5.8-2.3
			l-0.8-0.3v0.5c0,5-0.1,10.2,0,15.2C154.6,106.5,154.7,106.6,154.7,106.7z M150.3,107.8l-3.2-0.5c-1.8-0.3-3.5-0.6-5.3-0.9
			c-4.5-0.8-4.9-1.3-4.9-5.8V81.7l4.2,1.6c2.9,1.1,5.6,2.1,8.3,3.2c0.8,0.3,1.5,1.4,1.6,2.3c0,5.2,0,10.4,0,15.5v1.5
			c0,0.4-0.1,0.7-0.3,0.9c0,0.1-0.1,0.2-0.1,0.3L150.3,107.8z M139.2,84.9v15.5c0,1.5,0,2.6,0.2,2.9s1.4,0.5,2.8,0.7
			c1.8,0.3,3.5,0.6,5.3,0.9l1.3,0.2v-1c0-5.1,0-10.3,0-15.4c0,0-0.1-0.2-0.2-0.3c-2.6-1-5.3-2.1-8.2-3.2L139.2,84.9z M99.8,107.7
			l-0.2-1.1c0-0.1-0.1-0.3-0.1-0.4c-0.1-0.3-0.1-0.7-0.1-1.1v-1c0-5.1,0-10.4,0-15.7c0-0.8,0.4-2.3,1.4-2.7c2.7-1.2,5.4-2.3,8.3-3.5
			l4.1-1.7v24.8L99.8,107.7z M101.9,87.8c-0.1,0.2-0.2,0.5-0.2,0.8l0,0c-0.1,5.2,0,10.5,0,15.6v1l0,0l9.4-1.6V83.9l-1.1,0.4
			C107.2,85.5,104.6,86.6,101.9,87.8z M101.9,87.7L101.9,87.7L101.9,87.7z M135.5,105.1h-20.6l-0.1-1.6c0-0.4-0.1-0.8-0.1-1.2v-6.1
			c0-4.6,0-9.2,0-13.7c0-1.7,0.6-2.6,2.2-3.3l0.2-0.1c5.9-2.5,6.3-2.6,12.3-0.2c0.5,0.2,1,0.3,1.5,0.5c1.6,0.5,3.3,1,4.2,2.3
			s0.8,3.1,0.6,4.7c0,0.6-0.1,1.1-0.1,1.6c0,4.1,0,8.2,0,12.3v1.9c0,0.4,0,0.9-0.1,1.3L135.5,105.1z M117,102.8h16.4
			c0-0.2,0-0.5,0-0.7v-1.9c0-4.1,0-8.2,0-12.3c0-0.6,0-1.2,0.1-1.8c0.1-1.3,0.2-2.7-0.2-3.3c-0.4-0.7-1.8-1.1-3-1.4
			c-0.6-0.2-1.2-0.4-1.7-0.6c-5.3-2.1-5.3-2.1-10.6,0.2l-0.2,0.1c-0.7,0.3-0.8,0.5-0.8,1.2c0,4.6,0,9.2,0,13.8v6.1
			C117,102.4,117,102.6,117,102.8z"/>
	</g>
</g>
</svg>
