<?xml version="1.0" encoding="utf-8"?>
<!-- Generator: Adobe Illustrator 21.1.0, SVG Export Plug-In . SVG Version: 6.00 Build 0)  -->
<svg version="1.1" id="Layer_1" xmlns="http://www.w3.org/2000/svg" xmlns:xlink="http://www.w3.org/1999/xlink" x="0px" y="0px"
	 viewBox="0 0 250 250" style="enable-background:new 0 0 250 250;" xml:space="preserve">
<style type="text/css">
	.st0{fill:#EC1E31;}
</style>
<title>Logos</title>
<path class="st0" d="M5,166.3c1.7-27.4,0.5-54.7,0.8-82.1c0-2.9,0.5-4.1,3.7-3.8c3.8,0.3,7.6,0.3,11.4,0c2.2-0.1,3.2,0.5,3.6,2.7
	c0.7,3.7,1.7,7.4,2.6,11.1c0.2,0.7,0.1,1.5,1.1,1.9c1.1-4.5,2.4-8.9,3.4-13.4c0.1-1.4,1.2-2.4,2.6-2.3c0.1,0,0.3,0,0.4,0.1
	c3.6,0.2,7.2,0.1,10.7,0c1.9,0,2.6,0.4,2.6,2.4c-0.1,16.1,0,32.3,0,48.4c0,1.1,0,2-1.3,2.6c-3.5,1.8-6.8,3.6-10.5,5.6v-34.8
	l-0.7-0.2L27.9,130L21,105.4c-0.6,1.1-0.8,2.4-0.6,3.7c0,13,0,25.9,0,38.9c0.1,1.8-0.6,3.5-2.1,4.6c-4.3,3.7-8.4,7.7-12.1,12.1
	C5.7,165.3,5.5,166.3,5,166.3z"/>
<path class="st0" d="M211.9,145.1c-4.3-2.7-8.2-5.2-12.1-7.6c-1.2-0.7-1-1.7-1-2.8c0-17.3,0-34.6,0-51.9c0-1.9,0.5-2.6,2.5-2.5
	c2.7,0.2,5.5,0.2,8.2,0c2.2-0.2,2.6,0.8,2.5,2.7c-0.2,5.9,0,11.9,0.5,17.8c1.9-5.4,4-10.7,5.5-16.2c0.9-3.5,2.6-4.8,6.1-4.3
	c2.9,0.2,5.9,0.2,8.8,0c-2.9,9.7-5.6,19.1-8.5,28.4c-0.7,2.1-0.6,3.3,1.5,4.6c3.2,2,4,5.5,4.3,9.1c0.6,7.2,0.6,14.5,0.7,21.8
	c-0.1,6.9,1.1,13.7,3.5,20.1c0.3,0.7,0.3,1.4,0,2.1c-4.8-5.9-10.2-11.2-16-16.1c-1.1-0.9-0.9-2.3-0.9-3.5c0-6.6,0-13.3,0-19.9
	c0.3-2.5-0.7-4.9-2.5-6.6c-0.7-0.6-1.6-1.2-2.6-0.8c-0.9,0.4-0.5,1.5-0.5,2.3C211.9,129.4,211.9,137,211.9,145.1z"/>
<path class="st0" d="M50.4,131.7c0.7-8.6,1.4-16.8,2.2-25c0.7-7.9,1.5-15.7,2.1-23.6c0.2-2,0.7-2.9,3-2.8c5.9,0.2,11.8,0.1,17.7,0
	c1.8,0,2.6,0.4,2.9,2.3c1.9,11.9,3.9,23.9,6.4,35.7c0.3,1.5,0,2.3-1.7,2.6c-2.5,0.4-4.9,1.1-7.3,1.8c-1.9,0.6-2.6,0-2.9-1.9
	c-0.6-3.6-0.8-3.7-4.1-2.2c-2.5,1.1-4.2,2.7-4.3,5.7c0.2,1.2-0.6,2.3-1.7,2.6C58.5,128.3,54.7,129.9,50.4,131.7z M67.3,92.6H67
	c-0.4,5.1-0.9,10.3-1.3,15.5c0,0.7-0.6,1.8,0.7,2c1.7,0.3,3.3-0.8,3.6-2.5c0.1-0.3,0.1-0.5,0-0.8C69.1,102,68.2,97.3,67.3,92.6
	L67.3,92.6z"/>
<path class="st0" d="M179.6,127.2c-4.6-0.4-8.8-2.7-13.3-4c-1-0.3-0.9-1.5-0.9-2.5c-0.2-3.1-0.3-6.3-0.5-9.5c0-1.6-0.3-3.2-1.1-4.6
	c-1-1.5-2.8-2.1-4.5-1.7c-1.5,0.3-0.7,2-0.7,3c-0.1,3.6-0.2,7.2,0,10.7c0,2-0.5,2.6-2.5,2.2c-3-0.7-6-1.3-9-1.8
	c-1.5-0.2-1.8-1-1.8-2.3c0-11.4,0-22.7,0-34.1c0-1.2-0.1-2.3,1.7-2.2c7.7,0.3,15.4-0.5,23,0.5c4.6,0.6,6.5,2.7,6.9,7.2
	c0.4,2.9,0.3,5.9-0.2,8.8c-0.8,2.6-2.8,4.7-5.3,5.5c5.8,3,6.9,8,6.9,13.5C178.2,119.8,178.6,123.6,179.6,127.2L179.6,127.2z
	 M158.6,92.5c0.3,1.9-1.2,4.6,2.8,4.4c3.5-0.3,4.7-1.2,4.7-4.4s-0.9-3.7-4.9-4S159.1,90.9,158.6,92.5z"/>
<path class="st0" d="M98.4,104c0.6-7,1.4-14,1.9-21.1c0.1-2.2,0.9-2.6,2.8-2.5c2.6,0.1,5.3,0.1,7.9,0c1.6,0,2.3,0.4,2,2.1
	c-1.4,10.9-2.8,21.7-4.1,32.5c-0.2,1.5-0.7,2.1-2.3,2.2c-5.6,0.3-11.1,1.1-16.6,2.2c-1.4,0.3-1.9-0.4-2.1-1.5
	C85.9,106,83.8,94,81.6,82.1c-0.2-1.1-0.1-1.9,1.3-1.8c0.3,0,0.6,0,0.9,0c3.1,0,7.1-1,9.3,0.5s1.5,5.8,2.2,8.9
	c1,4.6,1.7,9.4,2.5,14.2H98.4z"/>
<path class="st0" d="M115.7,98.5c0-5.3,0-10.5,0-15.8c0-1.8,0.4-2.4,2.3-2.3c7.5,0.1,14.9,0.1,22.4,0c1.7,0,2.1,0.6,2.2,2.2
	c0.3,7.4,0.4,7.4-7,7.4c-1,0.1-2.1,0.1-3.1,0c-2.7-0.4-3.7,0.4-3.5,3.3c0.1,2.2,0.4,3.4,2.9,3c0.4,0,0.8,0,1.3,0
	c3.7,0,5.3,2.5,4,5.9c-0.4,0.9-1.1,0.8-1.8,0.9c-1.4,0-2.7,0-4.1,0c-1.2,0-2.3-0.1-2.2,1.7c0,1.5,0.3,2.3,2,2.3
	c3.1,0,6.1,0.5,9.1,0.6c2,0,2.4,0.8,2.5,2.7c0.2,8.1,0.3,8.1-7.6,7.3c-5.6-0.5-11.1-0.7-16.7-0.6c-2.2,0-2.6-0.6-2.6-2.7
	C115.7,109,115.7,103.8,115.7,98.5z"/>
<path class="st0" d="M195.3,134.9c-4.3-2-8.1-3.9-12.1-5.6c-1.2-0.5-1.1-1.4-1.1-2.3c0-14.9,0-29.7,0-44.6c0-1.5,0.4-2.1,1.9-2
	c3.1,0.1,6.1,0.1,9.2,0c1.7,0,2.1,0.5,2.1,2.2C195.3,99.8,195.3,117.1,195.3,134.9z"/>
<path class="st0" d="M179.6,127.2l0.3,0.4h-0.3L179.6,127.2L179.6,127.2z"/>
<path class="st0" d="M241.2,169.9c-2.1,0-3.8-1.7-3.8-3.8c0-2.1,1.7-3.8,3.8-3.8c2.1,0,3.8,1.7,3.8,3.8l0,0
	C245,168.2,243.3,169.9,241.2,169.9z M241.2,163c-1.7,0-3.1,1.4-3.1,3.1c0,1.7,1.4,3.1,3.1,3.1c1.7,0,3.1-1.4,3.1-3.1
	C244.3,164.4,242.9,163,241.2,163C241.2,163,241.2,163,241.2,163L241.2,163z"/>
<path class="st0" d="M239.6,167.9v-3.6h1.5c0.3,0,0.6,0,0.9,0.1c0.2,0.1,0.3,0.2,0.4,0.3c0.1,0.2,0.2,0.4,0.2,0.6
	c0,0.2-0.1,0.5-0.2,0.7c-0.2,0.2-0.4,0.3-0.7,0.3c0.1,0.1,0.3,0.2,0.4,0.3c0.2,0.2,0.3,0.4,0.4,0.6l0.4,0.7H242l-0.5-0.8
	c-0.1-0.2-0.2-0.4-0.4-0.5c-0.1-0.1-0.1-0.1-0.2-0.2c-0.1,0-0.2,0-0.4,0h-0.2v1.5L239.6,167.9z M240.4,165.8h0.5c0.2,0,0.4,0,0.7,0
	c0.1,0,0.2-0.1,0.2-0.2c0-0.1,0-0.2,0-0.3c0-0.1,0-0.2-0.1-0.3c-0.1-0.1-0.2-0.1-0.3-0.1h-1.1L240.4,165.8z"/>
</svg>
