<?xml version="1.0" encoding="utf-8"?>
<!-- Generator: Adobe Illustrator 21.1.0, SVG Export Plug-In . SVG Version: 6.00 Build 0)  -->
<svg version="1.1" id="svg" xmlns="http://www.w3.org/2000/svg" xmlns:xlink="http://www.w3.org/1999/xlink" x="0px" y="0px"
	 viewBox="0 0 250 250" style="enable-background:new 0 0 250 250;" xml:space="preserve">
<style type="text/css">
	.st0{fill:#FDFEFD;stroke:#D8D8D8;stroke-miterlimit:10;}
	.st1{fill:#C41230;stroke:#D8D8D8;stroke-miterlimit:10;}
	.st2{fill:#8B0B05;stroke:#D8D8D8;stroke-miterlimit:10;}
	.st3{fill:#0F4B7D;stroke:#D8D8D8;stroke-miterlimit:10;}
	.st4{fill:#00477F;stroke:#D8D8D8;stroke-miterlimit:10;}
</style>
<g>
	<g>
		<g>
			<path class="st0" d="M112.5,53.8c3.6,1.3,5.8,3.9,7.7,7s4,6.4,6.2,9.9c2.5-3.7,5-7,7.1-10.6c1.6-2.8,4-5,7-6.2
				c0.4-0.3,0.8-0.5,1.3-0.5c8.1,0.1,16.3-0.5,24.4,0.3c6.7,3.1,7.8,7.1,3.6,13.4C162.5,78,155.3,89,148,99.9
				c-1.2,1.8-1.4,3-0.2,4.9c7.7,12,15.2,24.2,22.9,36.3c1.9,3,2.8,6.1,1.1,9.4c-1.8,3.5-5,4-8.6,3.9c-6.4-0.1-12.7-0.1-19.1,0
				c-4.4,0.1-7.5-2-9.7-5.5c-3-4.7-5.8-9.6-9-14.9c-3.1,4.6-6.2,8.6-8.7,13c-3.1,5.4-7.2,8-13.6,7.5c-5.8-0.4-11.6-0.2-17.3-0.1
				c-8.5,0.2-10.2-7.5-6.9-12.6c5.8-9,11.9-17.7,17.9-26.5c2.1-3.1,3.9-6.4,6.3-9.3s1.5-5.1-0.2-7.7c-6.6-10.2-13-20.5-19.5-30.8
				c-4-6.4-3-10.4,3.6-13.7c6.6-0.9,13.3-0.2,19.9-0.3C108.8,53.4,110.7,53,112.5,53.8z"/>
			<path class="st1" d="M139.8,102.5c-2.1,4.6-5.4,8.5-8.1,12.7c-6.8,10.4-13.8,20.7-20.6,31.1c-1.1,1.9-3.2,3.1-5.4,2.9
				c-6.5-0.1-12.9,0-19.4-0.1c-3.8,0-4.7-1.7-2.6-5c7.5-11.3,15.1-22.6,22.7-33.9c1.7-2.6,3.4-5.2,5.1-7.7c0.9-1.5,2.4-1.7,3.9-1.7
				c6.5-0.1,13.1-0.1,19.6,0C136.7,100.9,138.4,101.4,139.8,102.5z"/>
			<path class="st2" d="M139.8,102.5l-28.3,0.1C103.6,90,95.8,77.5,87.9,64.9c-0.9-1.4-2.4-2.8-1.2-4.7c1-1.7,2.8-1.3,4.4-1.3
				c5.4,0,10.9,0.1,16.3,0c3.6-0.1,5.9,0.8,8,4.3c3.2,5.4,6.9,10.6,10.2,16C130.2,87.1,135.6,94.4,139.8,102.5z"/>
			<path class="st3" d="M143.1,107l18.9,30c1.6,2.6,3.3,5.1,4.9,7.8s0.7,4.3-2.3,4.3c-7,0.1-14.1,0-21.1,0c-1.7,0-3.2-0.9-3.9-2.3
				c-3.3-5.4-6.7-10.8-10.1-16.1c-0.8-1-0.7-2.4,0.1-3.4C133.9,120.8,138.3,114.2,143.1,107z"/>
			<path class="st4" d="M153.5,59c3.2,0,6.5-0.1,9.7,0c4,0.1,4.9,1.7,2.8,4.9c-7,10.5-14,20.9-20.9,31.4c-1.1,1.7-1.9,2.2-3.1,0.1
				c-3.7-6-7.5-11.9-11.3-17.8c-1-1.2-1-2.8,0-4c2.7-3.8,5.3-7.6,7.7-11.5c1.2-2.1,3.6-3.4,6-3.2C147.5,59,150.5,59,153.5,59z"/>
			<path class="st0" d="M49.4,185.2h-9.7v7.3h10.8v3.7H35v-25h15v3.7H39.7v6.4h9.7V185.2z"/>
			<path class="st0" d="M68.4,196.3l-2.8-5c-1.1-1.9-1.8-3.3-2.5-4.7H63c-0.6,1.4-1.3,2.8-2.3,4.7l-2.6,5h-5.4l7.6-12.6L53,171.4
				h5.4l2.8,5.1c0.8,1.6,1.5,2.8,2.1,4.2h0.1c0.7-1.6,1.2-2.7,2-4.2l2.8-5.1h5.4L66,183.5l7.8,12.8H68.4z"/>
			<path class="st0" d="M94.4,195.6c-2.1,0.8-4.4,1.2-6.6,1.1c-8.2,0-13.1-5-13.1-12.6c0-8.2,5.9-13.2,13.7-13.2
				c2.1-0.1,4.3,0.3,6.3,1.1l-1,3.6c-1.6-0.7-3.3-1-5-1c-5.2,0-9,3.2-9,9.2c0,5.5,3.3,9,9,9c1.7,0,3.5-0.3,5.1-0.9L94.4,195.6z"/>
			<path class="st0" d="M103.1,171.4v10H114v-10h4.7v25H114v-11h-10.9v11h-4.7v-25H103.1z"/>
			<path class="st0" d="M129.2,189.2l-2.2,7.1h-4.8l8.2-25h6l8.4,25h-5l-2.3-7.1H129.2z M136.6,185.8l-2-6.1
				c-0.5-1.5-0.9-3.2-1.3-4.7h-0.1c-0.4,1.4-0.8,3.2-1.2,4.7l-2,6.1H136.6z"/>
			<path class="st0" d="M148.3,196.3v-25h5.3l6.6,10.7c1.7,2.7,3.1,5.5,4.4,8.4h0.1c-0.3-3.3-0.4-6.6-0.4-10.4v-8.7h4.4v25h-4.8
				l-6.7-11c-1.7-2.8-3.2-5.7-4.6-8.6h-0.1c0.2,3.2,0.2,6.5,0.2,10.6v8.9L148.3,196.3z"/>
			<path class="st0" d="M194.7,195.2c-2.7,0.9-5.5,1.4-8.3,1.4c-4.4,0-7.6-1.1-10.1-3.3c-2.4-2.4-3.7-5.8-3.6-9.2
				c0-7.9,5.8-13,14.3-13c2.3-0.1,4.7,0.3,6.8,1.2l-1,3.7c-1.8-0.8-3.8-1.1-5.8-1.1c-5.5,0-9.3,3.1-9.3,9s3.6,9,8.9,9
				c1.2,0.1,2.4-0.1,3.6-0.5v-6.2h-4.6v-3.6h9.1L194.7,195.2z"/>
			<path class="st0" d="M213.9,185.2h-9.7v7.3H215v3.7h-15.5v-25h14.9v3.7h-10.3v6.4h9.7v3.9H213.9z"/>
		</g>
	</g>
</g>
</svg>
