<?xml version="1.0" encoding="utf-8"?>
<!-- Generator: Adobe Illustrator 21.1.0, SVG Export Plug-In . SVG Version: 6.00 Build 0)  -->
<svg version="1.1" id="Layer_1" xmlns="http://www.w3.org/2000/svg" xmlns:xlink="http://www.w3.org/1999/xlink" x="0px" y="0px"
	 viewBox="0 0 250 250" style="enable-background:new 0 0 250 250;" xml:space="preserve">
<style type="text/css">
	.st0{fill:#F58337;}
	.st1{fill:#008752;}
</style>
<title>Grocery</title>
<path class="st0" d="M120.2,151.1c-0.2,0.1-0.4,0.3-0.5,0.5l-5.3,7.3l-1.2,1.6c-0.6,0.9-1.5,1.4-2.5,1.6c-0.9,0.1-1.5-0.5-1.9-1.2
	c-0.8-1.3-1.2-2.8-1.2-4.3c0-0.7-0.1-0.7-0.7-0.5c-0.4,0.1-0.7,0.3-1.1,0.5c-1.2,0.5-2.7,0-3.3-1.2c-0.7-1.3-1-2.8-0.8-4.2
	c0-0.2,0-0.5,0-0.7c-0.7,0.1-1.3,0.1-1.7,0.8c-0.7,1.2-1.5,2.3-2.4,3.4c-0.8,1-1.8,1.8-2.8,2.6c-0.7,0.4-1.5,0.7-2.3,0.7
	c-1,0-2-0.6-2.3-1.6c-0.3-0.9-0.5-1.8-0.6-2.8c0-0.3,0-0.6,0-1c-0.8,0.1-1.5,0.2-2,0.9c-1.2,1.9-2.8,3.6-4.7,4.9
	c-0.6,0.4-1.2,0.6-1.9,0.8c-1.3,0.3-2.3-0.4-3-1.6c-0.7-1.4-0.9-3-0.7-4.5c0.1-2.4,0.8-4.7,2-6.7c1.1-2,2.5-3.8,4.2-5.3
	c1-1,2.3-1.6,3.7-1.8c1.2-0.1,2.4,0.4,3,1.4c0.7,0.8,1,1.8,0.8,2.8c-0.3,2.2-0.9,4.3-1.7,6.3c-0.1,0.3-0.2,0.5-0.3,0.9
	c0.5,0,0.8-0.1,1-0.6c0.8-2.6,2-5,3.6-7.2c1.1-1.5,2.6-2.7,4.3-3.5c1.6-0.7,3.4,0.1,4.1,1.6c0.5,1.2,0.7,2.6,0.4,3.9
	c-0.2,0.8-0.4,1.6-0.7,2.3c0,0.2-0.1,0.4-0.1,0.7l0.1,0.1c0.2-0.1,0.4-0.2,0.5-0.4c0.4-0.7,0.7-1.4,1-2.2c0.8-1.9,2-3.7,3.5-5.2
	c1.1-1.2,2.5-2,4-2.4c0.8-0.1,1.5,0,2.2,0.5l0.2,0.1c0.8,0.6,1,0.6,1.5-0.3s0.9-1.4,1.3-2.1c0.1-0.2,0.2-0.3,0.3-0.6h-0.4
	c-2,0-4.1,0-6.1,0c-2.9,0.1-5.8,0.3-8.7,0.5c-2.1,0.2-4.1,0.3-6.2,0.6s-4.5,0.6-6.7,0.9s-4.5,0.8-6.7,1.2c-0.3,0.1-0.5,0.2-0.6,0.5
	c-1.1,2-2.2,4-3.4,5.9c-1.9,3-3.9,6.1-5.9,9c-1.6,2.2-3.3,4.3-5,6.5l-0.3,0.3c-0.3-0.2-0.6-0.4-0.8-0.6c-0.5-0.7-0.8-1.5-1.1-2.4
	c-0.2-1.3,0.2-2.6,1-3.5c0.9-1.2,2-2.3,2.9-3.6c2.1-3.1,4.2-6.3,6.3-9.3c0.2-0.3,0.4-0.7,0.6-1c0-0.1,0-0.2,0-0.4
	c-0.1,0-0.2,0-0.4,0c-2,0.3-4,0.7-6.1,1c-1.6,0.2-3.2,0.2-4.8,0.2c-0.6,0-1.1-0.2-1.5-0.6c-0.4-0.4-0.4-1.2,0-1.6
	c1-1.1,2.4-1.8,3.8-1.9c0.2,0,0.3,0.1,0.5,0.1c-0.1,0.2-0.2,0.3-0.3,0.5c-0.5,0.4-1,0.7-1.5,1.1c-0.1,0.1-0.2,0.2-0.2,0.3v0.2
	c0.4,0,0.8,0,1.2,0l9-1.2c0.4,0,0.8-0.2,1.2-0.2c0.5,0,0.9-0.3,1.1-0.8c1.2-2.3,2.5-4.6,3.7-6.9c0.8-1.5,1.5-3.1,2.3-4.7
	c0.1-0.1,0.1-0.3,0.1-0.4c0-0.3,0-0.5-0.4-0.4c-1.2,0.2-2.4,0.5-3.5,0.8c-3,1.2-5.7,2.8-8.2,4.8c-0.6,0.4-1.1,0.8-1.8,1.1
	c-0.6,0.4-1.4,0.3-1.9-0.3c-0.2-0.3-0.2-0.6,0-0.9c0.8-1,1.5-1.9,2.3-2.8c0.2-0.2,0.4-0.4,0.6-0.6c0.6-0.4,0.7-0.3,0.9,0.4
	c0.2-0.1,0.4-0.2,0.6-0.3c1.5-0.9,3-1.9,4.5-2.8c1.3-0.8,2.7-1.3,4.1-1.5c1.6-0.3,3.2,0.2,4.3,1.3c0.7,0.7,1.1,1.7,0.9,2.7
	c-0.3,1.2-0.6,2.3-1.1,3.5c-0.8,2-1.6,3.9-2.4,5.9c0,0.1-0.1,0.3-0.1,0.4l2.5-0.3c2.9-0.3,5.9-0.7,8.8-1s5.7-0.6,8.6-0.8
	c2.2-0.2,4.4-0.3,6.6-0.3c1.7-0.1,3.4-0.1,5.1-0.2c0.7,0,1.4,0,2,0.1c1.1,0.1,2.1-0.4,2.6-1.3c1.2-1.5,2.4-3.1,3.7-4.6
	c0.9-1.1,2-2.1,3.1-3.3c0.3,0.3,0.5,0.7,0.7,1c0.3,1,0.1,2.1-0.5,2.9c-1.4,2.1-2.9,4.2-4.3,6.4c-1.4,2.1-3,4.5-4.4,6.7
	c-1,1.6-1.9,3.3-2.8,5.1c-1.3,2.7-2.4,5.4-3.2,8.3c-0.2,0.7-0.4,1.3-0.5,2c-0.1,0.5-0.2,1-0.2,1.5c0,0.4,0,0.7,0.4,0.9
	c0.4,0.3,0.9,0.3,1.2,0c0.6-0.5,1.1-1.1,1.6-1.7c1.5-1.9,3-3.8,4.5-5.7c1.1-1.5,2.2-3.1,3.3-4.6c0.5-0.7,1-1.3,1.5-2l0.1,0.1
	c0,0.2,0,0.5,0,0.7c0,0.5,0,0.9,0.2,1.3c0.3,0.7,0.6,1.4,1,2c0.6,0.9,1.5,1.6,2.5,1.9c2.6,0.7,5.3,0.6,7.8-0.5
	c1.5-0.6,3-1.4,4.3-2.4c1.6-1.1,3-2.4,4.2-3.9c1-1.2,1.8-2.6,2.2-4.1c0.1-0.5-0.2-1-0.7-1.2c-0.1,0-0.1,0-0.2,0
	c-2.1-0.1-4.3,0-6.4,0.4c-1.7,0.2-3.3,0.5-4.9,0.6c-1.3,0-2.7,0-4-0.2c-0.8-0.1-1.4-0.6-1.8-1.3c-1-1.3-1.5-3-1.3-4.6
	c0.3-1.5,0.9-3,1.8-4.2c1.6-2.1,3.7-3.8,6-4.9c2.5-1.3,5.2-2,8-2.1c1.8-0.1,3.5,0.1,5.2,0.6c0.3,0.1,0.6,0,0.8-0.2
	c0.3-0.4,0.6-0.7,0.9-1.1c0.3-0.4,0.5-0.7,1-0.5c0.4,0.2,0.6,0.7,0.5,1.2c-0.3,0.8-0.6,1.7-1,2.5c-0.5,1.1-1.1,2.1-1.7,3.2
	c-0.1,0.2-0.2,0.3-0.3,0.5c-0.4,0.5-1.1,0.5-1.2-0.1c-0.3-1.8-1.7-2-3.1-2.2c-2.1-0.4-4.3-0.2-6.3,0.5c-1.8,0.7-3.5,1.8-4.8,3.2
	c-1.1,1-2,2.2-2.7,3.6c-0.1,0.3-0.2,0.6-0.2,0.9c0,0.4,0.3,0.8,0.8,0.8c0,0,0,0,0,0c1.2,0.1,2.4,0.1,3.6,0.1c1.7-0.1,3.3-0.3,5-0.5
	c0.7-0.1,1.5-0.3,2.2-0.3c1,0,2,0.1,2.9,0.2c0.7,0.2,1.4,0.4,2.1,0.7c0.9,0.4,1.5,1,2,1.9c0.5,0.8,0.8,1.7,0.9,2.6
	c0.1,1.1-0.1,2.1-0.6,3.1c-0.9,2.2-2.3,4.1-4,5.7c-1.5,1.5-3.1,2.8-4.9,4c-2.7,1.8-5.8,3-9,3.6c-1.7,0.3-3.4,0.1-4.9-0.6
	c-1.9-0.8-3.4-2.4-4-4.5L120.2,151.1z M104.5,152.4c0,0.1,0,0.2,0,0.3c0.1,0.8,1,1.5,1.6,1.3c0.5-0.2,1-0.5,1.4-0.9
	c0.6-0.7,1.1-1.6,1.3-2.5c0.6-1.7,1.2-3.5,1.9-5.2c0.5-1.1,1-2.1,1.6-3.2c0.2-0.4,0.2-0.6-0.2-0.9c-0.5-0.4-1.2-0.4-1.7,0
	c-1.4,1-2.5,2.2-3.3,3.7c-0.6,1-1.1,2.1-1.5,3.2C104.8,149.5,104.5,150.9,104.5,152.4L104.5,152.4z M95.2,147
	c-0.1,0.1-0.3,0.3-0.4,0.4c-0.9,1.5-1.6,3.2-2,4.9c-0.1,0.7-0.2,1.4-0.2,2.1c0,0.2,0.1,0.5,0.3,0.6c0.1,0.1,0.4,0,0.6-0.1
	c1.6-1.2,2.9-2.7,3.8-4.5c0.1-0.2,0.1-0.4,0-0.5c-0.8-0.7-1.4-1.5-1.7-2.5C95.5,147.2,95.4,147.1,95.2,147L95.2,147z M83.2,149.1
	c-0.2,0.3-0.3,0.4-0.5,0.6c-0.9,1.4-1.6,2.9-2.1,4.5c-0.2,0.6-0.2,1.2-0.2,1.8c0,0.6,0.3,0.6,0.7,0.3c0.5-0.3,0.7-0.5,1.1-0.8
	c1-0.9,1.9-2,2.5-3.2c0.1-0.2,0.1-0.4,0-0.5c-0.4-0.6-0.8-1.2-1.2-1.8C83.5,149.8,83.3,149.5,83.2,149.1L83.2,149.1z M86.5,150
	c0.3-0.5,0.5-1.1,0.8-1.6c0.7-1.3,0.9-2.9,0.7-4.4c0-0.3-0.3-0.7-0.5-0.8c-0.4,0-0.7,0-1,0.3c-0.3,0.3-0.6,0.6-0.8,1
	c-0.8,1.5-0.8,3.2-0.1,4.7C85.6,149.7,86,149.9,86.5,150L86.5,150z M97.3,145.8c0,0.7,0.2,1.3,0.6,1.8c0.3,0.3,0.8,0.3,0.9,0
	c0.3-0.9,0.7-1.7,1-2.7c0.2-0.7,0.2-1.5-0.1-2.2c-0.3-0.7-0.9-0.8-1.4-0.2C97.6,143.5,97.2,144.6,97.3,145.8L97.3,145.8z"/>
<path class="st1" d="M6,89h0.6c4.7,0,9.4,0,14.2,0c0.3,0,0.7,0.2,0.7,0.5c0.8,1.7,1.6,3.5,2.3,5.2l3.4,7.5l3.5,7.7l3.1,6.9
	c0.1,0.2,0.2,0.4,0.4,0.6c0.3-0.6,0.5-1.1,0.8-1.6l2.7-6.3c1.3-3.1,2.7-6.3,4.1-9.3c1-2.3,2.1-4.7,3.1-7c0.5-1.1,1-2.2,1.4-3.3
	c0.1-0.2,0.3-0.4,0.5-0.4c2.8,0,5.6,0,8.4,0c1.9,0,3.8,0,5.6,0c0.2,0,0.5,0,0.5,0.3c0.1,0.3,0,0.5-0.4,0.5c-1.3,0-2.6,0.5-3.5,1.5
	c-0.8,0.9-1.2,2.1-1.2,3.3c0,5.7,0,11.5,0,17.2c0,4,0,8,0,12c-0.1,1.7,0.7,3.2,2.1,4.1c0.7,0.3,1.4,0.6,2.2,0.8
	c0.2,0,0.4,0.1,0.7,0.1v1H42v-1c0.5-0.1,1-0.2,1.5-0.3c1.9-0.5,3.2-2.1,3.3-4c0-0.4,0.1-0.8,0.1-1.2c0-9.6,0-19.1,0-28.7v-0.6h-0.1
	c-0.1,0.1-0.2,0.2-0.3,0.3c-1.2,2.8-2.4,5.5-3.6,8.3c-1.2,2.7-2.3,5.5-3.5,8.2c-0.9,2-1.8,4-2.7,6c-1,2.3-1.9,4.6-2.9,6.9
	c-0.8,1.9-1.6,3.8-2.4,5.7c-0.2,0.6-0.7,0.3-1.1,0.4c-0.4,0.1-0.5-0.1-0.6-0.4c-1.1-2.6-2.2-5.2-3.4-7.8c-0.9-2-1.8-4.1-2.7-6.1
	c-1.3-2.9-2.7-5.8-3.9-8.7c-1.1-2.5-2.2-5-3.3-7.5c-0.8-1.8-1.6-3.6-2.4-5.3c0-0.1-0.2-0.2-0.3-0.3h-0.1c0,0.2,0,0.4,0,0.6
	c0,7.6,0,15.1,0,22.7c0,2.3,0,4.5,0,6.8c-0.1,1.6,0.7,3.1,2,4c0.7,0.5,1.5,0.7,2.3,0.7h0.5v1.1H6.7v-1.1c0.9,0,1.9-0.2,2.7-0.7
	c1.3-0.8,2.1-2.3,2.1-3.8c0.1-2.7,0-5.2,0-7.8c0-7.2,0-14.3,0-21.5c0.1-1.2-0.2-2.4-0.7-3.4c-0.4-0.8-1.2-1.3-2-1.5
	c-0.8-0.1-1.6-0.2-2.4-0.3C6.1,90.2,6,90.2,6,89.8C6,89.5,6,89.3,6,89z"/>
<path class="st1" d="M200.5,130.4v-1c0.5-0.1,1-0.2,1.5-0.3c2-0.4,3.4-2.2,3.4-4.3c0.1-3.5,0.1-7.1,0.1-10.6c0-6.1,0-12.3,0-18.4
	c0.1-1.1-0.2-2.2-0.6-3.1c-0.7-1.4-2.1-2.3-3.6-2.4c-0.2,0-0.5,0-0.8,0v-0.7h2.7h6.7c1.5,0,3,0,4.5,0c2.6,0,5.1,0,7.7,0
	c2.2-0.1,4.4,0.1,6.6,0.6c2.6,0.5,5.2,1.4,7.5,2.7c2.4,1.3,4.6,3.1,6.2,5.3c1.6,2.2,2.7,4.7,3.2,7.4c0.4,2.1,0.5,4.2,0.4,6.3
	c-0.1,2.7-0.7,5.3-1.6,7.9c-0.8,2.3-2.3,4.3-4.2,5.9c-1.1,0.8-2.4,1.6-3.7,2.2c-2.4,1.1-5,1.9-7.6,2.2c-1.5,0.2-3.1,0.3-4.6,0.3
	c-7.7,0-15.4,0-23.1,0L200.5,130.4z M215.3,109.8c0,5,0,10,0,15c-0.1,0.8,0.2,1.7,0.8,2.3c0.8,0.8,1.9,1.3,3,1.3
	c1.1,0.1,2.2,0.1,3.3,0.1c1.5,0,3-0.2,4.4-0.7c2-0.7,3.6-2,4.8-3.7c1.1-1.9,1.9-3.9,2.3-6c0.5-2.2,0.7-4.4,0.7-6.7
	c0-1.6-0.1-3.3-0.3-4.9c-0.3-3.4-1.3-6.6-3-9.5c-0.8-1.4-1.9-2.6-3.2-3.5c-1.3-0.9-2.8-1.4-4.4-1.3c-2.3,0-4.5,0-6.8,0.1
	c-0.8,0-1.5,0.6-1.5,1.5c0,0,0,0,0,0c-0.1,0.6-0.1,1.2-0.1,1.7C215.3,100.2,215.3,105,215.3,109.8z"/>
<path class="st0" d="M179.4,151.7l-1.7,0.5c-1.1,0.3-2.2-0.1-2.9-1c-0.2-0.3-0.5-0.7-0.7-1.1c-0.1-0.3-0.3-0.3-0.5,0
	c-0.6,0.8-1.4,1.5-2.1,2.2c-1,0.9-2.5,0.8-3.4-0.2c-0.2-0.2-0.4-0.5-0.5-0.8c-0.9-1.9-0.8-4.2,0.2-6c0.3-0.5,0.7-1,1.2-1.5
	c0.2-0.3,0.5-0.5,0.3-1c-0.2,0.1-0.4,0.3-0.6,0.4c-0.8,0.8-1.8,1.5-2.9,1.7c-0.2,0.1-0.4,0.2-0.5,0.4c-0.8,1.3-1.5,2.7-2.4,4
	c-1,1.4-2.3,2.4-3.9,3c-1.3,0.5-2.9,0-3.6-1.2c-0.2-0.4-0.4-0.7-0.6-1.1c-0.2-0.4-0.4-0.4-0.6-0.1c-0.6,0.7-1.2,1.3-1.9,2
	c-0.5,0.5-1,0.9-1.6,1.3c-1.1,0.8-2.2,0.3-2.9-0.8c-0.5-0.9-0.6-2-0.4-3c0.4-3.6,1.5-7.1,3.2-10.2c1-2,2-4,3-6
	c0-0.1,0.1-0.2,0.1-0.4c-0.6,0-1.2,0.1-1.7,0.2c-1.9,0.3-3.8,0.7-5.6,1.1l-2.9,0.6c-1,0.1-2.1-0.1-3-0.6c-0.8-0.4-1.1-1.3-0.8-2.1
	c0.2-0.5,0.7-0.7,1.1-0.2c0.2,0.1,0.4,0.2,0.6,0.1l6.1-1.1c1.1-0.2,2.2-0.4,3.3-0.5c1.5-0.3,3.1-0.5,4.6-0.8
	c0.3-0.1,0.6-0.6,0.9-0.9c0.9-1.3,1.9-2.7,2.8-4c0.7,0.4,1,1.2,0.8,2c-0.1,0.6-0.3,1.1-0.5,1.6l-0.2,0.7l1.9-0.2
	c2.3-0.2,4.6-0.5,6.9-0.6c3-0.2,6-0.5,9-0.6c2.7-0.1,5.3,0,8.1,0c2.6,0,5.2,0.2,7.8,0.6c0.4,0.1,0.7,0.2,1,0.3v0.2
	c-0.1,0.1-0.3,0.1-0.5,0.2c-1.5,0-3,0.1-4.5,0.2c-1.5,0.1-3.2,0.2-4.7,0.3c-1.6,0.1-3.3,0.2-5,0.3c-1.7,0.1-3.7,0.3-5.5,0.5
	s-3.5,0.3-5.2,0.5c-2.8,0.3-5.6,0.7-8.3,1.1c-0.8,0.1-1.6,0.2-2.3,0.3c-0.4,0.1-0.7,0.3-0.9,0.7c-1.4,2.8-2.9,5.5-4.2,8.4
	c-0.9,2-1.6,4-2.4,6.1c-0.2,0.8-0.4,1.7-0.5,2.5c0,0.3,0.2,0.5,0.5,0.3c1.4-0.8,2.7-1.8,3.9-3c0.1-0.2,0.2-0.4,0.2-0.6
	c0.2-2.2,0.7-4.4,1.6-6.4c0.6-1.4,1.4-2.8,2.5-4c0.8-1,1.7-1.8,2.8-2.4c1.2-0.9,2.9-0.9,4,0.1c0.6,0.6,1,1.3,1.2,2.1
	c0.3,1.5,0.4,2.9,0.2,4.4c0,0.3,0,0.6,0,0.9s0.2,0.4,0.5,0.2s0.9-0.6,1.3-1c0.3-0.2,0.4-0.6,0.4-0.9c-0.1-1.9,0.3-3.8,1.2-5.5
	c0.3-0.4,0.7-0.8,1.1-1c0.5-0.2,1,0,1.2,0.4c0.1,0.1,0.1,0.3,0.1,0.4c-0.1,0.8-0.2,1.7-0.4,2.5c-0.2,0.6-0.4,1.2-0.7,1.8
	c-0.4,1-0.3,2.1,0.1,3.1c0.4,1.1,0.6,2.2,0.4,3.3c-0.1,1.1-0.6,2-1.5,2.7c-0.6,0.4-1,0.9-1.1,1.6c0,0.2,0,0.5,0.1,0.6
	c0.2,0.1,0.4,0.2,0.7,0.1c1-0.4,1.9-1.1,2.7-1.8c0.5-0.4,0.7-1.1,0.7-1.7c0.2-2.2,0.7-4.4,1.7-6.4c0.8-2,2.2-3.8,3.9-5.1
	c0.8-0.6,1.6-1.1,2.5-1.5c0.8-0.4,1.8-0.4,2.6-0.1c1.2,0.5,2,1.7,1.8,3c-0.3,3.1-1.8,5.9-4.1,8c-0.9,0.9-2,1.5-3.2,1.9
	c-0.6,0.3-1.3,0.2-1.9-0.2c-0.3-0.2-0.5-0.1-0.6,0.2c-0.4,1-0.5,2.1-0.2,3.1c0.2,0.6,0.8,1,1.4,1c1.2-0.1,2.3-0.8,3-1.8
	c1.1-1.3,2.2-2.8,3.2-4.2c1-1.4,1.9-2.8,2.9-4.3c1.2-1.7,2.3-3.4,3.5-5.1c0.4-0.6,0.8-1.3,1.2-1.9c0.2-0.3,0.5-0.6,0.9-0.9
	c0.4-0.3,0.9-0.2,1.2,0.2c0.1,0.2,0.2,0.4,0.2,0.7c-0.1,0.8-0.2,1.6-0.5,2.4c-0.4,1.3-1,2.5-1.3,3.8c-0.2,1.2-0.3,2.4-0.3,3.6
	c0,0.6,0.2,0.7,0.8,0.5c1.6-0.5,3.2-1.1,4.9-1.5c2.6-0.7,5.3-0.9,8-0.8c0.8,0,1.5,0.1,2.3,0.3c0.9,0.4,1.7,1,2.1,1.9
	c0.3,0.6,0.4,1.2,0.5,1.9c0.1,0.4-0.2,0.8-0.6,0.8c-0.1,0-0.2,0-0.3,0c-2.4-0.3-4.8-0.4-7.1-0.2c-3.2,0.2-6.5,0.6-9.6,1.3h-0.1
	c-0.8-0.1-1.5,0.5-1.5,1.3c0,0,0,0,0,0c-0.4,1.8-1.3,3.4-2.6,4.7c-1.5,1.7-3.5,2.9-5.7,3.4c-0.8,0.2-1.7-0.1-2.1-0.8
	c-0.5-0.6-0.7-1.4-0.8-2.2C179.5,152.6,179.5,152.2,179.4,151.7z M160,140.4c-0.3,0.3-0.6,0.5-0.8,0.8c-0.9,1.4-1.5,3-1.9,4.6
	c-0.2,0.8-0.2,1.6,0,2.4c0.2,0.7,0.7,1.2,1.2,1c0.3-0.1,0.6-0.3,0.9-0.5c1.4-1,2.4-2.4,2.9-4c0-0.2,0-0.4-0.1-0.5
	c-0.4-0.6-1-1.2-1.3-1.9C160.5,141.7,160.2,141.1,160,140.4L160,140.4z M183.3,136.9c-0.1-0.3-0.2-0.8-0.4-0.9c-0.2-0.2-0.7,0-1,0.3
	c-0.7,0.6-1.4,1.3-2,2c-0.8,1-1.5,2.2-1.9,3.5c-0.2,0.4,0,0.9,0.4,1.1c0.2,0.1,0.4,0.1,0.6,0.1c0.6-0.1,1.2-0.4,1.6-0.9
	c0.7-1,1.3-2.1,2-3.1C183.1,138.3,183.3,137.6,183.3,136.9z M187.5,148c-0.1,0-0.1,0-0.2,0c-1.9,0.5-3.6,1.4-5.1,2.7
	c-0.7,0.6-0.7,1.6-0.2,2.3c0,0.1,0.1,0.2,0.2,0.2c0.6,0.1,1.2,0,1.8-0.3c1.2-0.8,2.2-1.9,2.9-3.1C187.2,149.2,187.4,148.6,187.5,148
	L187.5,148z M163.9,138.2c-0.1-0.4-0.1-0.7-0.2-1.1c-0.1-0.4-0.5-0.6-0.9-0.3c-0.4,0.3-0.7,0.6-1,1c-0.2,0.2-0.4,0.5-0.5,0.7
	c-0.3,1.1,0.1,2.3,1.1,3c0.2,0.2,0.5,0.1,0.7-0.1c0,0,0-0.1,0.1-0.1C163.6,140.3,163.8,139.2,163.9,138.2z M186.2,145.1
	c0.1,0,0.3,0,0.4,0c0.8-0.3,1.6-0.6,2.3-0.9c0.2-0.1,0.3-0.2,0.4-0.4c0-1,0-2.1,0-3.1C188,142,187,143.5,186.2,145.1L186.2,145.1z"
	/>
<path class="st1" d="M166.7,90v-0.7c0.2,0,0.5,0,0.7,0c4.7,0,9.5,0,14.2,0c1.3,0,2.7,0,3.9,0.2c2.3,0.2,4.5,1.1,6.3,2.6
	c1.2,0.9,2.1,2.2,2.6,3.6c0.9,2.2,0.5,4.8-1.2,6.6c-1.2,1.2-2.5,2.3-4,3.1c-0.2,0.1-0.4,0.2-0.5,0.3c-0.1,0.2-0.1,0.4-0.1,0.5
	c2.2,3.6,4.4,7.3,6.7,10.9c0.4,0.7,1,1.3,1.8,1.5c0.1,0,0.3,0,0.4,0c0.3,0,0.4,0.1,0.4,0.4c0,0.3-0.1,0.4-0.4,0.4h-8.5
	c-0.3,0-0.5-0.1-0.7-0.4c-1.4-2.3-2.9-4.6-4.3-6.9l-3.6-5.7c-0.1-0.1-0.2-0.2-0.3-0.2c-0.6,0-1.3,0-1.9,0c0,0.2,0,0.4,0,0.5
	c0,2.7,0,5.3,0,8.1c-0.1,1.2,0.4,2.4,1.3,3.1c0.7,0.4,1.4,0.7,2.2,0.9c0.1,0.6,0.1,0.6-0.6,0.6h-13.8h-0.5v-0.6
	c0.7-0.2,1.3-0.4,1.9-0.6c1.2-0.6,1.8-1.9,1.7-3.2c0-2.5,0-5.1,0-7.6c0-4.6,0-9.2,0-13.8c0.2-1.7-1.1-3.3-2.9-3.5c0,0,0,0,0,0
	C167.2,90.1,167,90.1,166.7,90z M178,104c1,0,2,0,2.9,0c0.9-0.1,1.8-0.2,2.7-0.4c1.5-0.4,2.6-1.4,3.1-2.9c0.5-1.6,0.6-3.2,0.3-4.8
	c-0.2-1.8-1.5-3.3-3.2-3.8c-1.1-0.4-2.3-0.6-3.5-0.5c-1.3,0-2.3,0.7-2.3,2.2c0,3.2,0,6.5,0,9.7L178,104z"/>
<path class="st1" d="M87.8,118.7c0,0.7,0,0.7-0.6,0.7h-7.8c-0.7,0-0.7,0-0.6-0.7c0.5-0.1,1.1-0.3,1.6-0.5c1.1-0.6,1.7-1.8,1.6-3
	c0-4.6,0-9.2,0.1-13.8c0-2.4,0-4.9,0-7.3c0-0.4-0.1-0.8-0.3-1.1c-0.4-0.7-0.9-1.3-1.3-1.9c-0.4-0.5-0.9-0.8-1.5-0.8
	c-0.2-0.7-0.1-0.8,0.5-0.8h8c0.3,0,0.6,0.1,0.8,0.4c1,1.2,2,2.4,3,3.5l4.4,5.1l4.3,4.9l3.5,4c0.2,0.1,0.3,0.3,0.5,0.4
	c0-0.3,0-0.4,0-0.5c0-4.5,0-9,0-13.5c0.1-0.9-0.2-1.7-0.6-2.4c-0.4-0.5-1-0.9-1.7-1l-1-0.1c-0.5-0.1-0.2-0.5-0.3-0.7h9v0.6
	c-0.6,0.1-1.3,0.3-1.9,0.6c-1,0.5-1.5,1.5-1.5,2.6c0,8.5,0,17,0,25.4c0,0.2,0,0.4,0,0.5c0,0.1-0.2,0.3-0.3,0.3c-0.4,0-0.9,0-1.3,0
	c-0.2,0-0.4-0.2-0.6-0.4c-1.6-1.9-3.2-3.9-4.8-5.8l-6.1-7.4l-5.5-6.5l-2.7-3.1c-0.1-0.1-0.3-0.2-0.4-0.3c0,0.8,0,1.5,0,2.3
	c0,5.5,0,11,0,16.5c-0.1,1.6,0.8,3,2.3,3.6C86.9,118.5,87.3,118.6,87.8,118.7z"/>
<path class="st1" d="M165.2,118.7v0.7h-13.7c-0.7,0-0.7,0-0.6-0.8l1.3-0.1c1.5-0.2,2.1-1.1,1.6-2.5s-1.1-3-1.6-4.6
	c-0.1-0.2-0.3-0.4-0.5-0.3h-9.1c-0.2,0-0.4,0.1-0.5,0.3c-0.6,1.5-1.2,2.9-1.8,4.4l0,0c-0.5,1.9,0.3,2.7,2.2,2.8h0.5v0.7h-8.6
	c0-0.4-0.1-0.7,0.5-0.8c0.9-0.1,1.6-0.6,2-1.4c0.5-1,1-2,1.3-3.1c0.7-1.8,1.5-3.6,2.2-5.3c1.2-2.8,2.3-5.6,3.5-8.4
	c1.3-3.1,2.6-6.3,3.9-9.4c0-0.1,0.1-0.3,0.2-0.4c0.2-0.4,0.3-1,0.5-1c0.6-0.1,1.2-0.1,1.9,0c0.2,0,0.3,0.4,0.4,0.7
	c0.7,1.7,1.5,3.5,2.2,5.2c0.7,1.7,1.5,3.4,2.3,5.2c0.8,1.9,1.6,3.9,2.5,5.8l3.4,8c0.4,0.9,0.7,1.7,1.1,2.5c0.4,1.1,1.5,1.8,2.7,1.7
	h0.1L165.2,118.7z M147.3,98.6h-0.2c-1.4,3.5-2.9,7-4.3,10.6h8.2L147.3,98.6z"/>
<path class="st1" d="M110.5,89.4h14.2c0.1,0.7,0.1,0.7-0.6,0.8c-0.6,0-1.2,0.1-1.8,0.3c-0.6,0.2-1,0.9-0.8,1.5c0,0.1,0,0.1,0.1,0.2
	c0.5,1.2,1.2,2.3,1.8,3.5l3.2,6.3c0.4,0.8,0.8,1.5,1.2,2.3c0.1,0.1,0.2,0.2,0.3,0.3c0.1-0.1,0.2-0.2,0.3-0.3c1.1-2.5,2.3-5,3.4-7.5
	c0.5-1.2,1.1-2.3,1.7-3.5c0.2-0.4,0.3-0.7,0.3-1.1c0.2-0.9-0.4-1.7-1.2-1.9c-0.1,0-0.2,0-0.3,0c-0.5-0.1-0.9-0.1-1.5-0.1v-0.7h9.5
	c0.1,0.7,0.1,0.7-0.5,0.8c-1.3,0.2-2.5,0.8-3.4,1.8c-0.5,0.7-0.9,1.4-1.2,2.1c-0.7,1.3-1.3,2.7-1.9,4.1c-1.4,2.9-2.8,5.9-4.2,8.8
	c0,0.2,0,0.3,0,0.5c0,2.4,0,4.9,0,7.3c-0.1,1,0.2,2,0.9,2.8c0.6,0.6,1.5,1,2.4,1c0.3,0,0.5,0,0.5,0.4c0,0.4-0.2,0.4-0.5,0.4h-14.1
	c-0.3,0-0.5,0-0.5-0.4c0-0.4,0.2-0.4,0.4-0.4c1.9,0.1,3.5-1.3,3.6-3.2c0-0.1,0-0.3,0-0.4c0-2.3,0-4.6,0-7c0-0.3-0.1-0.7-0.3-1
	c-1.3-2.3-2.6-4.7-3.9-7l-3.5-6.3c-0.4-0.7-0.7-1.4-1.1-2.1c-0.4-0.8-1.2-1.4-2.2-1.5C110.5,90.2,110.4,90.1,110.5,89.4z"/>
<path class="st1" d="M62.8,90.2c0-0.7,0-0.7,0.6-0.7H77c0.4,0,0.6,0.1,0.5,0.5c-0.1,0.1-0.2,0.3-0.3,0.3c-0.4,0.1-0.9,0.1-1.3,0.2
	c-0.9,0.2-1.5,1-1.5,1.9c-0.1,0.4-0.1,0.9-0.1,1.3c0,7,0,14,0,21c-0.1,1,0.2,2,0.8,2.7c0.4,0.5,1,0.8,1.7,1l0.8,0.2
	c0.1,0.7,0.1,0.7-0.6,0.7H62.7v-0.6c0.9-0.2,1.7-0.4,2.5-0.8c1.2-0.6,1.9-1.9,1.8-3.2c0-7.1,0-14.3,0-21.5c0.1-1.5-1-2.8-2.5-2.9
	C63.9,90.3,63.3,90.3,62.8,90.2z"/>
</svg>
