<?xml version="1.0" encoding="utf-8"?>
<!-- Generator: Adobe Illustrator 21.1.0, SVG Export Plug-In . SVG Version: 6.00 Build 0)  -->
<svg version="1.1" id="Layer_1" xmlns="http://www.w3.org/2000/svg" xmlns:xlink="http://www.w3.org/1999/xlink" x="0px" y="0px"
	 viewBox="0 0 250 250" style="enable-background:new 0 0 250 250;" xml:space="preserve">
<style type="text/css">
	.st0{fill:#EE3D34;}
	.st1{fill:#006AB7;}
</style>
<title>Grocery</title>
<path class="st0" d="M5.5,142.4v-4.2h224.8v4.3L5.5,142.4z"/>
<path class="st1" d="M11.6,99.7c0,0.2,0,0.5,0,0.7c0,8.2,0,16.4,0,24.5c0.2,1.5-0.9,2.9-2.4,3.1c-1.3,0.3-2.7-0.5-3-1.9
	c0,0,0-0.1,0-0.1c-0.1-0.5-0.2-1-0.2-1.5c0-12,0-23.9,0-35.9c0-1.3,0.2-2.6,1.6-3.2c1.6-0.7,3.4-0.1,4.2,1.4
	c3.3,6.4,6.6,12.8,9.9,19.2l6.4,12.5c0.1,0.1,0.2,0.3,0.3,0.5c0.1-0.2,0.3-0.4,0.3-0.5l8.1-15.8c2.7-5.3,5.4-10.5,8.1-15.8
	c0.7-1.4,2.3-2.1,3.8-1.7c1.3,0.3,2.2,1.6,2.1,2.9c0,4,0,7.9,0,11.9c0,8.2,0,16.4,0,24.7c0.2,1.2-0.4,2.4-1.5,2.9
	c-1.3,0.7-2.9,0.2-3.6-1.1c-0.2-0.3-0.3-0.7-0.3-1c0-0.5-0.1-1.1-0.1-1.6c0-7.8,0-15.6,0-23.3c0-0.3,0-0.7,0-1h-0.1
	c-0.2,0.4-0.5,0.8-0.7,1.3L34,121l-2.7,5.1c-0.4,0.9-1.2,1.6-2.2,1.8c-1.4,0.2-2.8-0.5-3.3-1.8c-1.5-2.8-3-5.7-4.5-8.5l-9.2-17.3
	l-0.3-0.6L11.6,99.7z"/>
<path class="st1" d="M178.5,107.8c-0.4,0.9-0.8,1.7-1.1,2.5c-2.2,5.2-4.3,10.4-6.5,15.6c-0.4,1-1,1.9-2.3,1.9c-1.1,0-2-0.7-2.4-1.8
	c-0.6-1.3-1.1-2.6-1.6-3.9c-2.8-6.7-5.5-13.3-8.3-20c-0.5-0.9-0.5-2.1,0-3c0.6-0.8,1.6-1.3,2.7-1.1c0.9,0.1,1.7,0.8,2,1.7l4,9.7
	l3.2,7.9c0.1,0.2,0.2,0.4,0.4,0.8c0.3-0.6,0.5-1.1,0.7-1.6l6.9-16.3c0.2-0.5,0.4-0.9,0.7-1.3c0.6-0.9,1.9-1.2,2.8-0.6
	c0.3,0.2,0.5,0.4,0.6,0.7c0.5,0.9,1,1.9,1.3,2.9l6.5,15.8c0.1,0.1,0.1,0.2,0.2,0.3c0.3-0.7,0.6-1.3,0.8-1.9l6.3-15.9
	c0.1-0.1,0.1-0.3,0.2-0.4c0.1-1,0.9-1.8,1.9-1.9c1.1-0.2,2.1,0.2,2.8,1c0.5,0.5,0.6,1.3,0.4,2c-0.5,1.6-1.1,3.1-1.7,4.6
	c-2.7,6.6-5.3,13.1-8,19.7c-0.3,0.6-0.6,1.2-1.1,1.7c-0.8,0.9-2.2,1-3.1,0.2c-0.3-0.3-0.5-0.6-0.6-1c-2.4-6-4.9-12-7.3-17.9
	C178.7,108.3,178.6,108.1,178.5,107.8z"/>
<path class="st1" d="M225.1,123.2c-0.7,0.5-1.2,0.9-1.7,1.3c-3.1,2.2-6.8,3.3-10.5,3.2c-2.9-0.1-5.6-1.4-7.5-3.6
	c-1.9-2.1-1.9-6.1-0.1-8.8c1.9-2.9,4.9-4.9,8.3-5.5c1.9-0.4,3.7-0.6,5.6-0.7c1.6-0.1,3.3,0,5,0h0.7c0.1-2.5-1.7-4.6-4.1-5.1
	c-3.3-0.8-6.7-0.1-9.4,1.8c-0.6,0.4-1,0.9-1.5,1.5c-0.5,1-1.8,1.5-2.9,1.1c-1.2-0.3-2-1.3-2.1-2.5c-0.1-1,0.2-2,0.9-2.7
	c2.1-2.4,4.9-4,8-4.5c3.3-0.7,6.8-0.5,10,0.5c3.5,1.3,5.9,4.3,6.4,8c0.1,0.7,0.2,1.5,0.1,2.3c0,5.2,0,10.5,0,15.7
	c0.1,1.5-1,2.8-2.4,2.9c-0.4,0-0.9,0-1.3-0.2c-1-0.3-1.7-1.3-1.7-2.4C225,124.7,225.1,124,225.1,123.2z M225.1,115.9
	c0-0.2,0-0.4,0-0.6c0.1-0.6-0.1-0.9-0.8-0.8c-0.6,0-1.1,0-1.7,0c-2.5-0.1-5,0.1-7.5,0.5c-1.8,0.3-3.5,1.3-4.6,2.8
	c-1,1.4-1.1,3.2,1.2,4c1.5,0.5,3.1,0.5,4.7,0.1c3.1-0.5,5.9-2,8-4.2C224.9,117.3,225.1,116.6,225.1,115.9L225.1,115.9z"/>
<path class="st1" d="M106.3,128c-2.9,0.1-5.8-0.6-8.3-2.1c-1.6-0.9-3-2.2-4-3.7c-0.7-1-0.9-2.3-0.5-3.5c0.5-1.5,2.1-2.3,3.6-1.8
	c0.5,0.2,0.9,0.5,1.1,0.9c0.9,2.4,3.1,4.1,5.7,4.3c2.6,0.5,5.3,0.3,7.8-0.6c0.8-0.3,1.6-0.7,1.6-1.7c0-1-0.6-1.9-1.5-2.3
	c-1.3-0.5-2.8-1-4.2-1.5c-3.1-0.8-6-1.9-8.9-3.3c-1.9-0.8-3.4-2.3-4.2-4.1c-1-2.5-0.2-5.4,1.8-7.1c2.2-2.1,5-3.3,8-3.4
	c2.3-0.3,4.6-0.1,6.7,0.6c2.8,0.8,5.2,2.8,6.7,5.3c0.8,1.5,0.3,3.4-1.2,4.2c-0.5,0.3-1.1,0.4-1.6,0.4c-0.7,0-1.4-0.4-1.7-1.1
	c-0.4-1.3-1.3-2.4-2.4-3.2c-1.7-0.9-3.6-1.2-5.5-1c-1.4,0-2.8,0.4-4,1c-0.7,0.3-1.2,1-1.3,1.7c-0.1,0.8,0,1.3,0.8,1.6
	c1.5,0.6,3,1.1,4.5,1.6c3.2,0.8,6.2,2,9.2,3.5c2,1,3.6,2.7,4.4,4.8c1,2.7,0.1,5.8-2.3,7.4c-2.2,1.6-4.7,2.6-7.4,2.8
	C108.2,127.9,107.3,127.9,106.3,128z"/>
<path class="st1" d="M145.4,123.5c-0.5,0.4-0.8,0.6-1.1,0.9c-2.1,1.9-4.7,3.1-7.5,3.5c-2.9,0.3-5.8-0.5-8.2-2.3
	c-2.6-1.6-4.3-4.2-4.8-7.2c-0.1-0.7-0.2-1.4-0.2-2.1c0-5,0-10,0-14.9c0-0.4,0-0.9,0.2-1.3c0.4-1.4,1.9-2.2,3.3-1.8
	c0.9,0.3,1.5,0.9,1.8,1.8c0.2,0.6,0.2,1.1,0.2,1.7c0,4.8,0,9.7,0,14.5c0,4,2.5,6,6.2,6.2c4.3,0.1,8.2-2.4,9.9-6.3
	c0.1-0.4,0.2-0.7,0.2-1.1c0-4.5,0-8.9,0-13.4c0-0.5,0-1,0.1-1.5c0.2-1.2,1.4-2.1,2.7-2c1.3,0,2.3,0.9,2.5,2.1
	c0.1,0.4,0.1,0.9,0.1,1.3c0,7.7,0,15.4,0,23.1c0,1.6-0.6,2.7-1.8,3.1c-1.4,0.6-2.9-0.1-3.5-1.4c-0.1-0.3-0.2-0.7-0.2-1.1
	C145.4,124.8,145.4,124.2,145.4,123.5z"/>
<path class="st1" d="M75.3,112.7c0-2.5,0-5,0-7.5c0-0.5-0.1-0.7-0.6-0.7c-1,0-1.9,0-2.9,0c-1.5,0-2.7-1.2-2.7-2.7s1.2-2.7,2.7-2.7
	c0.9,0,1.9,0,2.8,0c0.5,0,0.6-0.1,0.6-0.6c0-1.3,0-2.8,0-4.2c-0.1-1.5,1.1-2.8,2.6-2.8s2.8,1.1,2.8,2.6c0,1.4,0,2.9,0,4.3
	c0,0.5,0.2,0.7,0.7,0.7c1.4,0,2.8,0,4.2,0c1.1,0,2.1,0.6,2.5,1.7c0.5,1,0.2,2.3-0.7,3c-0.5,0.4-1.1,0.6-1.7,0.7
	c-1.3,0.1-2.8,0.1-4.2,0.1c-0.6,0-0.8,0.1-0.8,0.7c0,4.4,0,8.8,0,13.1c0,0.8,0.1,1.6,0.2,2.4c0,0.5,0.4,0.8,0.9,0.8c0,0,0,0,0,0
	c1.3,0,2.7,0,4,0c1.5-0.2,2.8,0.9,2.9,2.4c0,0.2,0,0.5,0,0.7c-0.1,1.2-1,2.2-2.2,2.4c-0.7,0-1.3,0-2,0c-1.2,0-2.4-0.1-3.6,0
	c-2.5,0.1-4.8-1.7-5.2-4.2c-0.2-1.1-0.4-2.2-0.4-3.3C75.3,117.2,75.3,114.9,75.3,112.7z"/>
<path class="st1" d="M58.9,113c0-3.9,0-7.8,0-11.7c0-0.7,0.1-1.4,0.4-2.1c0.6-1,1.7-1.5,2.8-1.2c0.9,0.1,1.7,0.7,2,1.5
	c0.2,0.4,0.3,0.9,0.3,1.3c0,8,0,16,0,23.9c0.2,1.3-0.6,2.5-1.8,2.9c-1.9,0.5-3.5-0.3-3.6-2.4c-0.1-2.7,0-5.4,0-8.2
	C58.9,115.8,58.9,114.4,58.9,113z"/>
<path d="M15.5,164.3l2.6-5c0.8-1.6,1.6-3.1,2.4-4.7c0.1-0.4,0.6-0.7,1.1-0.6c0.5,0.1,0.5,0.5,0.5,0.9c0,3.5,0,7.1,0,10.6
	c0,0.3-0.1,0.6-0.3,0.8c-0.4,0.4-1,0-1-0.6c0-1.1,0-2.2,0-3.3c0-1.6,0-3.1-0.1-4.7c-0.1,0.2-0.3,0.4-0.4,0.6
	c-1.3,2.5-2.6,4.9-3.9,7.4c-0.2,0.3-0.5,0.7-0.8,0.7c-0.4-0.1-0.7-0.3-0.9-0.7c-1.3-2.5-2.7-5-4-7.4l-0.4-0.7c0,0.4,0,0.6,0,0.8
	c0,2.3,0,4.6,0,7c0,0.2,0,0.5-0.1,0.7c-0.2,0.2-0.4,0.4-0.7,0.4c-0.2,0-0.4-0.3-0.5-0.5c0-0.2,0-0.3,0-0.5c0-3.5,0-7,0-10.5
	c0-0.9,0.4-1.2,1-1c0.3,0.1,0.5,0.4,0.6,0.7c1.5,2.8,2.9,5.6,4.3,8.5L15.5,164.3z"/>
<path d="M245.5,93.3c0,4-3.2,7.3-7.2,7.4s-7.3-3.2-7.4-7.2c0-4,3.2-7.3,7.2-7.4c0,0,0.1,0,0.1,0C242.2,86,245.5,89.2,245.5,93.3
	C245.5,93.2,245.5,93.2,245.5,93.3z M244.1,93.2c-0.1-3.2-2.9-5.7-6.1-5.6c-3.2,0.1-5.7,2.9-5.6,6.1c0.1,3.1,2.7,5.6,5.9,5.6
	c3.2,0,5.8-2.7,5.8-5.9C244.1,93.3,244.1,93.2,244.1,93.2L244.1,93.2z"/>
<path d="M57.2,161.3c0,1.3,0,2.7,0,4c0,0.2,0,0.5,0,0.7c-0.2,0.3-0.4,0.4-0.7,0.5c-0.2,0-0.4-0.4-0.6-0.6c-0.2-0.2,0-0.3,0-0.4
	c0-3.4,0-6.7,0-10.1c0-0.9,0.1-1.1,1.1-1.1h5.6c1.7-0.1,3.2,1.2,3.3,2.9c0.1,1.4-0.8,2.7-2.1,3.1l-0.7,0.3c2,0.9,2.5,2.7,2.8,4.6
	c0,0.1,0,0.3,0,0.4c0,0.4-0.4,0.8-0.8,0.8c0,0,0,0,0,0c-0.5,0.1-0.5-0.3-0.6-0.7c-0.2-1-0.5-2-0.8-2.9c-0.3-0.9-1.2-1.5-2.2-1.5
	C60.1,161.3,58.7,161.3,57.2,161.3z M57.2,159.9c1.6,0,3.1,0,4.6,0c0.4-0.1,0.9-0.2,1.3-0.4c0.8-0.5,1.3-1.4,1.2-2.4
	c-0.2-0.8-0.9-1.4-1.8-1.5c-1.6,0-3.2,0-4.8,0c-0.2,0-0.4,0.2-0.5,0.4C57.2,157.3,57.2,158.6,57.2,159.9L57.2,159.9z"/>
<path class="st1" d="M65.5,88.2c-0.1,2.1-1.7,3.8-3.8,3.9c-2.2,0-3.9-1.7-3.9-3.9c0-2.2,1.7-3.9,3.9-3.9l0,0
	C63.7,84.4,65.4,86.1,65.5,88.2z"/>
<path d="M223,159.3h5.2c0.4,0,0.8,0.1,0.9,0.6c0,0.5-0.4,0.7-0.8,0.7H223c0,1.3,0,2.5,0,3.7c0,0.5,0.4,0.5,0.7,0.5h5
	c0.2,0,0.5,0,0.6,0s0.5,0.4,0.5,0.6s-0.3,0.5-0.5,0.6s-0.3,0-0.4,0h-6.2c-0.9,0-1.1-0.2-1.1-1.2c0-3.2,0-6.4,0-9.7
	c0-0.9,0.2-1.1,1.1-1.1h6.1c0.5,0,0.9,0.1,0.9,0.7c0,0.6-0.5,0.7-1,0.7c-1.7,0-3.4,0-5.2,0c-0.6,0-0.7,0.2-0.7,0.7
	C223,157.3,223,158.3,223,159.3z"/>
<path d="M189.1,166.7c-0.3-0.3-0.6-0.6-0.9-0.9c-0.4-0.8-0.8-1.7-1.2-2.5c-0.1-0.3-0.5-0.6-0.8-0.5c-1.7,0-3.3,0-5,0
	c-0.4,0-0.7,0.2-0.9,0.5c-0.4,0.8-0.8,1.7-1.2,2.5c-0.1,0.3-0.3,0.5-0.6,0.6c-0.3,0.2-0.6,0.1-0.8-0.1c-0.1-0.1-0.1-0.3-0.1-0.5
	c0.1-0.4,0.2-0.7,0.4-1.1c1.7-3.4,3.3-6.7,5-10.1c0.1-0.3,0.4-0.5,0.7-0.6c0.2,0,0.5,0.3,0.6,0.6c1.7,3.5,3.3,7,5,10.5
	c0.1,0.2,0.2,0.5,0.2,0.8C189.5,166.1,189.3,166.4,189.1,166.7z M186.1,161.4l-2.3-5.2l-2.5,5.2H186.1z"/>
<path d="M44.9,165.9c-0.1,0.1-0.3,0.5-0.4,0.5c-0.4,0-0.7-0.2-0.9-0.4c-0.4-0.6-0.7-1.3-1-2.1c-0.2-0.8-1-1.4-1.8-1.2c0,0,0,0-0.1,0
	c-1.3,0.1-2.8,0-4.1,0c-0.4-0.1-0.8,0.2-1,0.6c-0.3,0.8-0.7,1.6-1.1,2.4c-0.1,0.2-0.2,0.5-0.4,0.5c-0.3,0.1-0.6,0.2-0.9,0.1
	c-0.1,0-0.2-0.4-0.2-0.7c0-0.2,0.1-0.4,0.2-0.6c1.7-3.5,3.4-7,5.2-10.5c0.1-0.2,0.4-0.5,0.6-0.5s0.5,0.3,0.7,0.6
	c1.7,3.5,3.3,6.9,4.9,10.4C44.7,165.3,44.8,165.6,44.9,165.9z M39,156.2l-2.5,5.2h4.7c0-0.1-0.1-0.3-0.1-0.4L39,156.2z"/>
<path d="M78.4,160.2c0,1.8,0,3.4,0,5c0,0.2,0,0.5,0,0.7c0,0.4-0.3,0.7-0.7,0.6s-0.4-0.4-0.6-0.7c-0.2-0.2,0-0.3,0-0.4
	c0-3.5,0-7,0-10.5c0-0.3,0.1-0.6,0.3-0.9c0.2-0.1,0.5-0.1,0.7,0c0.2,0.2,0.3,0.5,0.3,0.7c0,1.3,0,2.5,0,3.7c0,0.1,0,0.3,0,0.5
	c0.3-0.2,0.5-0.3,0.6-0.4l6.1-4.3c0.2-0.1,0.3-0.3,0.5-0.3c0.2,0,0.7,0.1,0.8,0.3c0.1,0.3,0,0.6-0.2,0.8c-0.9,0.7-1.8,1.3-2.7,1.9
	l-3.7,2.5c0.2,0.2,0.4,0.4,0.6,0.5l6,4.8l0.2,0.1c0.4,0.3,0.7,0.7,0.4,1.2c-0.3,0.5-0.7,0.3-1.3-0.1l-6.7-5.5L78.4,160.2z"/>
<path d="M99.4,159.3h5.3c0.5,0,0.8,0.2,0.8,0.7c0,0.5-0.4,0.7-0.8,0.7h-5.2c0,1.3,0,2.5,0,3.7c0,0.5,0.4,0.5,0.7,0.5h5.2
	c0.5,0,0.9,0,0.9,0.7c0,0.7-0.5,0.7-1,0.7h-6.2c-0.8,0-1-0.2-1-1.1c0-3.3,0-6.6,0-9.9c0-0.9,0.2-1,1-1h6.2c0.5,0,1,0,1,0.7
	c0,0.7-0.5,0.7-1,0.7c-1.7,0-3.3,0-5,0c-0.6,0-0.9,0.2-0.8,0.8C99.5,157.3,99.4,158.3,99.4,159.3z"/>
<path d="M139.6,161.2c0,1.3,0,2.4,0,3.6c0.1,0.3,0.1,0.7,0,1c-0.1,0.3-0.3,0.5-0.6,0.6c-0.4,0.1-0.7-0.2-0.7-0.6c0-0.1,0-0.3,0-0.4
	c0-3.3,0-6.7,0-10c0-1,0.1-1.1,1.1-1.1c1.5,0,3.1,0.1,4.6,0c1.8-0.1,3.3,1.3,3.4,3.1c0,0.6-0.1,1.3-0.5,1.8c-0.6,1.3-1.9,2.1-3.3,2
	L139.6,161.2z M139.6,159.8c1.5,0,2.8,0,4.2,0c1.1-0.1,2-1,2.1-2.1c0.1-1-0.6-1.9-1.6-2.1c-0.1,0-0.1,0-0.2,0c-1.3,0-2.6,0-3.9,0
	c-0.4,0-0.6,0.1-0.6,0.5C139.6,157.3,139.6,158.5,139.6,159.8L139.6,159.8z"/>
<path d="M200.4,160.2c0-2,0.8-3.8,2.3-5.1c1.8-1.4,4.2-1.5,6.1-0.5c0.8,0.5,1.5,1.3,1.7,2.2c0.2,0.4,0,0.8-0.4,1c0,0-0.1,0-0.1,0
	c-0.3,0.1-0.6,0-0.7-0.3c-0.4-1.3-1.5-2.2-2.8-2.2c-1.4-0.3-2.9,0.4-3.6,1.6c-1.1,1.7-1.3,3.9-0.6,5.8c0.5,1.4,1.9,2.4,3.4,2.3
	c1.5,0,2.9-0.8,3.5-2.2c0.2-0.3,0.4-0.6,0.7-0.6c0.6-0.1,0.9,0.5,0.6,1.2c-1.1,2.4-3.9,3.6-6.4,2.7
	C201.6,165.2,200.4,163.5,200.4,160.2z"/>
<path d="M122.8,155.6c0,0.7,0,1.3,0,1.8c0,2.6,0,5.2,0,7.8c0,0.1,0,0.3,0,0.4c0,0.5-0.1,0.9-0.7,0.9c-0.6,0-0.7-0.4-0.7-0.9
	c0-0.7,0-1.5,0-2.2c0-2.3,0-4.6,0-7v-0.8H118c-0.2,0-0.5,0-0.7,0c-0.2,0-0.5-0.4-0.5-0.6s0.3-0.4,0.5-0.6c0.2-0.2,0.3,0,0.4,0h8.8
	c0.4,0,0.7,0.2,0.7,0.7c0,0.5-0.3,0.7-0.8,0.7L122.8,155.6L122.8,155.6z"/>
<path d="M158.4,160c0-1.6,0-3.3,0-4.9c0-0.2,0-0.4,0-0.6s0.4-0.5,0.6-0.5c0.3,0.1,0.5,0.3,0.7,0.5c0.1,0.3,0.1,0.6,0,0.9
	c0,2.8,0,5.7,0,8.5c0,0.6,0.2,0.9,0.9,0.9c1.8,0,3.6,0,5.3,0h0.5c0.4,0,0.7,0.3,0.7,0.7c0,0.4-0.3,0.6-0.6,0.6c0,0-0.1,0-0.1,0h-7.3
	c-0.6,0-0.8-0.4-0.8-0.9C158.4,163.5,158.4,161.8,158.4,160z"/>
<path d="M235.5,89.1c1.3,0,2.5,0,3.7,0c1.2-0.1,2.3,0.9,2.4,2.1c0,0.3,0,0.6-0.1,0.9c-0.2,1.1-1,1.4-2,1.7l2.3,3.5
	c-1.2,0.3-1.3,0.2-1.9-0.7c-0.4-0.6-0.8-1.2-1.1-1.9c-0.4-0.9-1.1-1-2-0.8v3.5h-1.2V89.1z M236.8,90.2v2.5c0.8,0,1.6,0,2.5,0
	c0.6,0,1.1-0.6,1-1.2c0,0,0,0,0,0c0.1-0.6-0.4-1.1-0.9-1.2c0,0,0,0,0,0C238.5,90.2,237.6,90.2,236.8,90.2z"/>
</svg>
