<?xml version="1.0" encoding="utf-8"?>
<!-- Generator: Adobe Illustrator 21.1.0, SVG Export Plug-In . SVG Version: 6.00 Build 0)  -->
<svg version="1.1" id="Layer_1" xmlns="http://www.w3.org/2000/svg" xmlns:xlink="http://www.w3.org/1999/xlink" x="0px" y="0px"
	 viewBox="0 0 250 250" style="enable-background:new 0 0 250 250;" xml:space="preserve">
<style type="text/css">
	.st0{fill:#014A91;}
	.st1{fill:#FFFFFF;}
	.st2{fill:#D82A2F;}
</style>
<title>CR</title>
<path class="st0" d="M51.6,80.4c-0.3,6.1-2,12-2.9,18c-0.7,4.4-1.6,8.9-2.4,13.3c-0.2,1.3-0.5,1.9-1.9,1.8c-2.4-0.1-4.8-0.1-7.2,0
	c-1.6,0-1.7-0.6-1.4-2c1-4.7,1.8-9.4,2.8-14c0.3-0.7,0.3-1.6,0-2.3c-2.7,5.2-5.3,10.2-7.7,15.3c-0.7,2.1-2.8,3.4-5,3.1
	c-4.4-0.3-4.4,0-5-4.5c-0.6-4.7-1.4-9.3-2.5-13.9c-0.8,5.1-1.6,10.3-2.2,15.4c-0.3,2.2-0.9,3.2-3.2,2.9s-4.9-0.2-7.4-0.2v-1.6
	c0.2-0.2,0.4-0.4,0.4-0.6c1.8-10.3,3.6-20.5,5.4-30.8h13.8L27.9,98l0.5,0.2l8.2-17.8H51.6z"/>
<path class="st1" d="M26.3,113.8h-0.5h-0.5c-4.1-0.2-4.2-0.3-4.8-4.7c-0.5-3.5-1.2-8-2.2-12.5l-0.5,3.1c-0.6,3.6-1.1,7.3-1.6,11
	c-0.3,2.1-0.9,3.4-3.6,3.2c-1.7-0.2-3.4-0.2-5.1-0.2H5v-2l0,0l0.2-0.2c0.1-0.1,0.2-0.2,0.2-0.3c1.6-9,3.2-18,4.8-27.1l0.7-4h14.3
	l2.9,17.6h0.1l8.3-17.7h15.3v0.3c-0.3,3.9-0.9,7.7-1.7,11.5c-0.4,2.1-0.8,4.4-1.2,6.5c-0.3,2.2-0.8,4.8-1.3,7.2
	c-0.4,2-0.8,4.1-1.1,6.1c-0.2,1.4-0.6,2.1-2.2,2.1c-2.4-0.1-4.8-0.1-7.2,0c-0.6,0.1-1.2-0.1-1.6-0.4c-0.3-0.5-0.4-1.2-0.2-1.8
	c0.6-3.2,1.3-6.3,1.9-9.4c0.3-1.5,0.6-3.1,0.9-4.6v-0.3c0.1-0.4,0.2-0.8,0.1-1.2l-2,3.9c-1.9,3.7-3.7,7.2-5.4,10.7
	C30.2,112.5,28.4,113.8,26.3,113.8z M18.1,93.9l0.3,1.3c1.1,4.6,1.9,9.2,2.6,13.8c0.6,4,0.6,4,4.3,4.2h0.5c2.1,0.4,4.2-0.9,4.8-2.9
	c1.7-3.6,3.5-7.1,5.4-10.8l2.3-4.5l0.3-0.5l0.2,0.5c0.3,0.7,0.4,1.5,0.1,2.2v0.3c-0.3,1.5-0.6,3.1-0.9,4.6c-0.6,3.1-1.2,6.3-1.9,9.4
	c-0.2,0.7-0.1,1.2,0,1.4c0.1,0.2,0.5,0.3,1.1,0.3c2.4-0.1,4.8-0.1,7.2,0c1.2,0,1.5-0.4,1.6-1.6c0.3-2,0.7-4.1,1.1-6.1
	c0.4-2.4,0.9-4.8,1.3-7.2s0.8-4.4,1.2-6.6c0.8-3.7,1.3-7.4,1.6-11.2H36.9l-8.4,17.9l-0.9-0.3l-2.8-17.6H11.4L10.8,84
	c-1.6,9-3.2,18-4.8,27.1c-0.1,0.2-0.2,0.4-0.4,0.5l-0.1,0.1v1.2h2c1.7,0,3.5,0,5.2,0.2c2.2,0.2,2.7-0.7,3-2.7c0.4-3.7,1-7.4,1.6-11
	c0.2-1.5,0.5-3,0.7-4.4L18.1,93.9z"/>
<path class="st0" d="M204.3,80.4c-1.6,8.8-3.2,17.6-4.8,26.3c-1.2,6.8-1.1,6.8-7.9,6.8h-0.8c-3.5,0-3.5,0-2.8-3.5
	c0.5-2.3,0.8-4.7,1.3-7c0.3-1.4-0.1-2-1.7-2.1c-7.1-0.3-7.1-0.3-8.5,6.7c-1.2,5.9-1.2,5.9-7.3,5.9c-4.6,0-4.6,0-3.8-4.4
	c1.7-9.6,3.3-19.2,4.9-28.8h10.6c-0.2,3.2-0.7,6.5-1.5,9.6c-0.2,1.3,0,2,1.6,1.9c2-0.1,4,0,6.1,0c1,0,1.6-0.2,1.8-1.4
	c0.5-3.4,1.1-6.8,1.6-10.1L204.3,80.4z"/>
<path class="st1" d="M191.7,113.8h-0.8c-1.9,0-2.8,0-3.2-0.5c-0.4-0.5-0.3-1.4,0.1-3.2l0,0c0.2-1.2,0.4-2.4,0.7-3.6
	c0.2-1.2,0.4-2.3,0.6-3.5c0.2-0.4,0.1-0.9-0.1-1.3c-0.2-0.3-0.6-0.4-1.4-0.4h-0.2c-6.8-0.2-6.8-0.2-8.1,6.5c-1.2,6-1.3,6.1-7.6,6.1
	c-2.5,0-3.6,0-4.1-0.7c-0.6-0.7-0.4-1.8,0-4V109c1.2-6.8,2.3-13.5,3.5-20.3l1.5-8.7h11.2v0.3c-0.1,2.4-0.4,4.7-1,7.1
	c-0.2,0.8-0.4,1.7-0.5,2.6c-0.1,0.9-0.1,1.1,0.1,1.3c0.2,0.2,0.6,0.3,1.2,0.3c1.6,0,3.2,0,4.8,0h1.3c0.9,0,1.4-0.2,1.6-1.1
	c0.4-2.4,0.8-4.9,1.2-7.3l0.5-2.8v-0.2h11.7v0.3c-0.5,2.6-1,5.3-1.5,7.9c-1.1,6-2.3,12.3-3.3,18.4v0.3
	C198.6,113.6,198.4,113.8,191.7,113.8z M184.7,100.6c0.8,0,1.7,0,2.8,0h0.2c0.7-0.1,1.3,0.2,1.8,0.6c0.3,0.5,0.4,1.2,0.2,1.8
	c-0.2,1.2-0.4,2.3-0.6,3.5c-0.2,1.2-0.4,2.4-0.7,3.6l0,0c-0.3,1.6-0.5,2.5-0.2,2.8c0.3,0.3,1.2,0.3,2.8,0.3h0.8c6.5,0,6.4,0,7.5-6.4
	v-0.3c1.1-6.1,2.2-12.4,3.3-18.4c0.5-2.5,0.9-5.1,1.4-7.6h-10.6l-0.4,2.6c-0.4,2.4-0.8,4.8-1.2,7.3c-0.2,1.4-1.2,1.6-2.1,1.6h-1.3
	c-1.6,0-3.2,0-4.8,0c-0.6,0.1-1.2-0.1-1.6-0.4c-0.3-0.5-0.4-1.2-0.2-1.8c0.2-0.9,0.3-1.8,0.5-2.6c0.5-2.2,0.9-4.4,0.9-6.7H173
	l-1.4,8.2c-1.2,6.8-2.3,13.5-3.5,20.3v0.1c-0.4,2-0.5,3.1-0.2,3.6c0.4,0.4,1.6,0.5,3.7,0.5c5.9,0,5.9,0,7.1-5.7
	C180,101.5,180.3,100.6,184.7,100.6L184.7,100.6z"/>
<path class="st0" d="M118.1,80.4c0.1,0.4,0.5,0.4,0.8,0.5c4,0.8,6.9,2.8,7.6,7c0.9,5.1-1.1,9.3-5.3,11.4c-1.6,0.8-1.5,1.5-0.8,2.8
	c1.6,3.1,2.9,6.2,4.5,9.3c1,1.9,0.4,2.2-1.5,2.2c-3.2-0.1-7,0.9-9.4-0.5c-2.4-1.4-2.5-5.6-3.7-8.5c-0.2-0.6-0.5-1.2-0.7-1.7
	c-0.2-0.6-0.3-1.3-1.1-1.2c-0.8,0-0.8,0.8-0.9,1.4c-0.5,2.8-0.9,5.6-1.3,8.4c-0.2,1.6-0.9,2.3-2.6,2.1c-1.9-0.2-3.9-0.2-5.8,0
	c-2,0.2-2.4-0.6-2.1-2.4c1.5-8.4,3-16.8,4.5-25.3c0.3-1.8,0.5-3.7,0.8-5.5L118.1,80.4z M111,94.6c3,0,4.9-1.1,4.9-2.9
	c0-2.5-2-2.6-3.8-2.7c-3.5-0.2-2,2.8-2.6,4.4C108.9,94.9,110.1,94.6,111,94.6z"/>
<path class="st1" d="M117.6,114.1c-1.3,0.1-2.5-0.2-3.7-0.8c-1.7-1-2.3-3.2-2.9-5.5c-0.2-1.1-0.6-2.2-1-3.2
	c-0.2-0.5-0.5-1.1-0.7-1.7v-0.2c-0.2-0.6-0.3-0.9-0.8-0.8c-0.5,0-0.6,0.3-0.7,1v0.2c-0.5,2.7-0.9,5.6-1.3,8.4
	c-0.3,1.8-1.1,2.5-2.9,2.4c-1.9-0.2-3.9-0.2-5.8,0c-0.7,0.2-1.5,0-2.1-0.5c-0.4-0.7-0.5-1.5-0.3-2.2c1.6-8.4,3-16.8,4.5-25.3
	c0.2-1.2,0.4-2.5,0.6-3.7c0.1-0.6,0.2-1.2,0.2-1.7V80h17.4v0.2c0.1,0.2,0.2,0.3,0.6,0.3c4.6,0.9,7.2,3.4,7.9,7.3
	c0.9,5.2-1.2,9.6-5.5,11.7c-0.7,0.3-1,0.6-1.1,0.9c-0.1,0.3,0,0.8,0.4,1.5c0.7,1.4,1.4,2.8,2,4.2c0.8,1.7,1.6,3.4,2.5,5.1
	c0.5,1,0.6,1.6,0.4,2c-0.3,0.4-1.2,0.6-2,0.5c-1.1,0-2.1,0-3.2,0.1C119.3,114,118.4,114.1,117.6,114.1z M108.6,101.4
	c0.8,0,1.1,0.7,1.2,1.2v0.2c0.2,0.6,0.4,1.2,0.7,1.7c0.4,1,0.8,2.1,1,3.2c0.6,2.2,1.1,4.3,2.6,5.1c1.9,0.7,4,0.9,6,0.6
	c1.1-0.1,2.1-0.1,3.2-0.1c0.6,0,1.4,0,1.6-0.3c0.2-0.3,0-0.7-0.4-1.5c-0.9-1.7-1.7-3.4-2.5-5.2c-0.6-1.4-1.3-2.8-2-4.1
	c-0.4-0.6-0.5-1.2-0.4-1.9c0.2-0.5,0.6-0.8,1.4-1.2c4.2-2,6-6.1,5.2-11.1c-0.6-3.7-3.1-5.9-7.4-6.8c-0.4,0-0.7-0.2-0.9-0.5h-16.5
	l-0.2,1.5c-0.2,1.2-0.4,2.5-0.6,3.8c-1.5,8.5-3,16.8-4.5,25.3c-0.2,0.9-0.1,1.5,0.2,1.8s0.8,0.4,1.6,0.3c2-0.2,3.9-0.2,5.9,0
	c1.5,0.1,2.1-0.4,2.3-1.9c0.4-2.8,0.9-5.6,1.3-8.4v-0.2c0-0.5,0.2-1.3,1.2-1.4L108.6,101.4z M111.2,95h-0.5c-0.5,0-1.2,0-1.5-0.4
	c-0.2-0.4-0.2-0.9,0-1.2c0.1-0.5,0.2-1.1,0.2-1.6c-0.1-0.9,0.1-1.7,0.6-2.4c0.6-0.5,1.4-0.7,2.1-0.5l0,0c1.8,0.1,3.9,0.2,3.9,3
	c0,0.7-0.3,1.4-0.8,1.9C114.1,94.5,112.7,95,111.2,95L111.2,95z M111,94.4c1.4,0.1,2.9-0.3,4-1.1c0.4-0.4,0.7-1,0.6-1.6
	c0-2.3-1.6-2.4-3.4-2.4l0,0c-0.6-0.1-1.2,0-1.7,0.4c-0.4,0.6-0.6,1.3-0.5,2c0,0.6,0,1.2-0.2,1.7c-0.1,0.4-0.2,0.6,0,0.8
	s0.6,0.2,1,0.2L111,94.4z"/>
<path class="st0" d="M91.4,80.4c-0.9,8-2.3,15.9-4.2,23.7c-1.4,5.5-5.3,8.6-10.8,9.8c-3.5,0.8-7.1,0.8-10.5-0.1
	c-6.4-1.6-9.6-6-8.5-12.6c1.1-7,2.4-13.9,3.6-20.9h10.6c0,0.6-0.1,1.2-0.2,1.8c-1,5.9-2.2,11.8-3.1,17.7c-0.4,2.9,0.6,4.6,2.7,5
	c2.9,0.5,5.2-0.5,5.8-3.2c1.7-7,2.9-14.1,3.8-21.3H91.4z"/>
<path class="st1" d="M71.5,114.7c-1.9,0-3.8-0.2-5.6-0.7c-6.6-1.6-9.8-6.3-8.7-12.8c0.8-4.8,1.6-9.8,2.5-14.6
	c0.4-2.1,0.7-4.3,1.1-6.4v-0.2h11.2v0.3c0,0.2,0,0.4,0,0.6s-0.1,0.8-0.2,1.3c-0.3,1.8-0.6,3.7-1,5.5c-0.7,4-1.5,8.1-2.1,12.2
	c-0.4,2.7,0.4,4.3,2.5,4.7c2.9,0.5,5-0.6,5.5-3c1.7-7,2.9-14.1,3.8-21.2v-0.2h11.2v0.3c-1,8-2.4,16-4.3,23.8c-1.3,5.3-5,8.6-11,10
	C74.9,114.6,73.2,114.8,71.5,114.7z M61.4,80.6c-0.4,2-0.7,4.1-1.1,6.1c-0.8,4.8-1.7,9.7-2.5,14.6c-1,6.4,1.9,10.7,8.3,12.3
	c3.4,0.8,7,0.9,10.4,0.1c5.7-1.3,9.3-4.6,10.6-9.6c1.8-7.7,3.2-15.5,4.1-23.4H81.1c-0.9,7.1-2.1,14.1-3.8,21.1c-0.6,2.7-3,4-6.1,3.4
	c-2.3-0.4-3.4-2.3-2.9-5.3c0.6-4.1,1.4-8.2,2.1-12.2c0.3-1.8,0.7-3.7,1-5.5c0-0.4,0.1-0.8,0.2-1.2v-0.3L61.4,80.6z"/>
<path class="st0" d="M153.8,80.4c0.5,0.9,1.4,0.5,2.1,0.7c4.1,1.3,6.8,3.8,7.4,8.1c0.7,4.5-1.4,9-5.2,11.3c-3.4,1.8-7.2,2.5-11,2.1
	c-2-0.1-2.8,0.6-2.8,2.5c-0.1,0.6-0.2,1.2-0.4,1.8c-0.4,2.1,0.1,5.4-1.6,6.1c-2.8,1.2-6.2,0.4-9.4,0.4c-0.9,0-0.8-0.7-0.7-1.3
	c1.9-10.6,3.8-21.2,5.7-31.8H153.8z M147.7,94.7c2.8,0,4.9-1.3,4.8-3.1c-0.1-2.2-1.8-2.5-3.6-2.6c-3.3-0.2-2,2.6-2.6,4.1
	C145.9,94.1,146.3,94.9,147.7,94.7L147.7,94.7z"/>
<path class="st1" d="M138.4,114c-0.9,0-1.9,0-2.8-0.1c-0.9-0.1-1.9-0.1-2.8-0.1l0,0c-0.3,0-0.6-0.1-0.8-0.3
	c-0.2-0.4-0.3-0.9-0.1-1.3l4.7-26.1l1.1-5.9h16.3v0.1c0.2,0.4,0.6,0.5,1.2,0.5c0.3,0,0.5,0,0.8,0.1c4.5,1.4,7,4.1,7.6,8.3
	c0.8,4.6-1.4,9.2-5.4,11.6c-3.4,1.8-7.3,2.6-11.2,2.2c-0.7-0.1-1.4,0-1.9,0.4c-0.4,0.5-0.6,1.1-0.6,1.8c0,0.4-0.1,0.9-0.2,1.3
	c0,0.2-0.1,0.4-0.1,0.5c-0.1,0.7-0.2,1.4-0.2,2.1c-0.1,1.8-0.2,3.6-1.6,4.2C140.9,113.8,139.7,114,138.4,114z M132.8,113.2
	c0.9,0,1.9,0,2.8,0.1c2.1,0.3,4.3,0.2,6.4-0.5c1-0.4,1.1-2.1,1.2-3.7c0-0.7,0.1-1.5,0.2-2.2c0-0.2,0.1-0.4,0.1-0.5
	c0.1-0.4,0.2-0.8,0.2-1.2c-0.1-0.8,0.2-1.6,0.8-2.2c0.7-0.5,1.5-0.7,2.3-0.6c3.8,0.4,7.5-0.3,10.9-2.1c3.8-2.3,5.9-6.7,5.1-11.1
	c-0.5-4-2.9-6.6-7.2-7.9c-0.2,0-0.4,0-0.7,0c-0.6,0.1-1.2-0.2-1.6-0.6h-15.6l-1,5.5l-4.6,26c0,0.3-0.1,0.7,0,0.9
	C132.4,113.2,132.6,113.2,132.8,113.2L132.8,113.2z M147.2,95c-0.4,0-0.8-0.1-1.1-0.4c-0.3-0.5-0.3-1.1-0.1-1.6
	c0.1-0.5,0.2-1,0.2-1.4c-0.1-0.8,0.1-1.7,0.6-2.3c0.6-0.4,1.3-0.6,2-0.5c1.8,0.1,3.7,0.4,3.8,2.9c0,0.7-0.2,1.5-0.8,2
	c-1.2,1-2.7,1.5-4.3,1.4L147.2,95z M148.5,89.2c-0.5,0-0.9,0.1-1.3,0.4c-0.4,0.6-0.6,1.2-0.5,1.9c0,0.5-0.1,1.1-0.2,1.6
	c-0.2,0.3-0.2,0.8,0,1.1c0.3,0.3,0.7,0.3,1,0.2l0,0c1.4,0.1,2.8-0.3,3.9-1.2c0.4-0.4,0.7-1,0.6-1.6c-0.1-2-1.6-2.3-3.3-2.4
	L148.5,89.2z"/>
<path class="st0" d="M244.7,80.9c-2.1,1.3-3.3,3.6-4.9,5.4c-3.2,3.7-6.2,7.6-9.4,11.2c-1.5,1.7-2.5,3.9-2.7,6.1
	c-0.4,2.8-1.1,5.6-1.5,8.4c-0.2,1.3-0.7,1.6-1.9,1.6c-2.4,0-4.8-0.1-7.2,0c-1.6,0-2-0.5-1.7-2c0.5-2.6,0.9-5.2,1.4-7.8
	c0.6-2.3,0.3-4.7-0.7-6.8c-2.3-4.6-4.3-9.3-6.4-14c-0.4-0.8-0.9-1.6-0.7-2.5h11.7l3.6,10.2l7-10.2c4.1,0,8.2,0,12.2,0
	C244,80.4,244.8,79.8,244.7,80.9z"/>
<path class="st1" d="M216.9,113.8c-0.6,0.1-1.1-0.1-1.5-0.5c-0.4-0.5-0.5-1.2-0.2-1.8c0.2-1.1,0.4-2.3,0.6-3.4
	c0.2-1.4,0.5-2.9,0.8-4.4c0.6-2.2,0.3-4.6-0.7-6.7c-1.7-3.5-3.3-7.1-4.8-10.6l-1.5-3.4c0-0.2-0.2-0.4-0.3-0.5
	c-0.4-0.6-0.6-1.4-0.5-2.1v-0.2H221l3.5,9.9l6.8-9.9h2.7c3.2,0,6.4,0,9.7,0c0,0,0.1,0,0.2,0c0.3-0.1,0.6-0.1,0.9,0
	c0.2,0.2,0.3,0.5,0.2,0.8V81h-0.1c-1.4,1-2.5,2.2-3.5,3.6c-0.4,0.6-0.9,1.2-1.4,1.8c-1.4,1.6-2.8,3.3-4.2,5c-1.7,2-3.4,4.2-5.2,6.2
	c-1.5,1.7-2.4,3.8-2.6,6c-0.2,1.4-0.5,2.8-0.7,4.2c-0.3,1.4-0.5,2.8-0.7,4.2c0,1-0.8,1.8-1.8,1.8c-0.1,0-0.2,0-0.4,0
	c-2.7,0-4.9-0.1-7.2,0L216.9,113.8z M209.3,80.6c0,0.6,0.2,1.1,0.5,1.6c0.1,0.2,0.2,0.4,0.3,0.6l1.5,3.4c1.6,3.5,3.1,7.1,4.8,10.6
	c1.1,2.2,1.4,4.7,0.8,7c-0.3,1.5-0.6,2.9-0.8,4.4c-0.2,1.1-0.4,2.3-0.6,3.4c-0.1,0.7-0.1,1.1,0.1,1.4c0.2,0.3,0.6,0.4,1.3,0.3
	c2.3-0.1,4.5,0,7.2,0c1.1,0,1.5-0.3,1.6-1.4c0.2-1.4,0.5-2.8,0.7-4.2c0.3-1.4,0.5-2.8,0.7-4.1c0.2-2.3,1.2-4.5,2.8-6.3
	c1.8-2,3.6-4.1,5.2-6.2c1.4-1.6,2.8-3.4,4.2-5c0.5-0.6,0.9-1.2,1.4-1.7c0.9-1.4,2.1-2.6,3.5-3.6c0-0.1,0-0.2,0-0.2c0,0-0.3,0-0.4,0
	c-0.1,0-0.3,0-0.4,0c-3.2,0-6.5,0-9.7,0h-2.4l-7.2,10.5l-3.8-10.5L209.3,80.6z"/>
<path class="st0" d="M181.9,169.8c-0.5-1.3-1.7-2-2.6-3.1c-1.9-2-3.9-4-5.7-6.1c-0.8-0.9-1.5-1.1-2.4-0.2l-11.8,6.3l-0.4-0.3
	l7.6-10.7c1.4-0.9,0.7-1.7-0.2-2.5c-2-2-3.9-4.1-6.4-6.6c4.5,0,8.1,0,11.7,0c1.1,0.2,2.1-0.3,2.7-1.2c2-2.9,4.1-5.7,6.2-8.6
	c0.5-0.3,0.7-1.2,1.6-1.1c0.1,0,0.2,0.6,0.2,1c0,2.9,0,5.8,0,8.7c-0.2,1.6,1,1.1,1.7,1.2c3.8-0.1,7.5,0.1,11.3,0.5
	c-3.6,2-7.2,4.1-11,6c-1.5,0.5-2.4,2.1-2.2,3.6c0.2,4.4,0.1,8.8,0.1,13.3L181.9,169.8z"/>
<path class="st1" d="M182.7,170h-1v-0.2c-0.4-0.8-0.9-1.5-1.6-2c-0.3-0.3-0.7-0.6-1-1l-1.7-1.8c-1.3-1.4-2.7-2.9-4-4.3
	c-0.4-0.5-0.8-0.7-1.1-0.7c-0.3,0-0.7,0.2-0.9,0.5l0,0l-12,6.4l-0.7-0.6l7.8-11c0.4-0.3,0.6-0.5,0.7-0.8c0-0.2-0.4-0.8-0.9-1.3
	c-1.4-1.4-2.8-2.8-4.3-4.5l-2-2.1l-0.4-0.4h12.3c1,0.2,1.9-0.2,2.5-1c1.4-2.1,2.9-4.2,4.4-6.2l1.8-2.4l0,0c0.2-0.1,0.3-0.3,0.4-0.4
	c0.2-0.5,0.8-0.8,1.3-0.7c0.3,0,0.3,0.4,0.4,0.8c0,0.1,0,0.3,0,0.4v8.7c0,0.4,0,0.7,0.1,0.8s0.6,0.1,0.9,0.1h0.5h1.2
	c3.4,0,6.8,0.1,10.2,0.5l0.8,0.1l-0.7,0.4l-3.2,1.7c-2.5,1.4-5.2,2.9-7.8,4.2c-1.4,0.5-2.3,1.9-2.1,3.4c0.1,3.2,0.1,6.4,0.1,9.4
	c0,1.3,0,2.5,0,3.8L182.7,170z M182.1,169.5L182.1,169.5c0.1-1.2,0.1-2.4,0.1-3.6c0-3.1,0-6.3-0.1-9.4c-0.2-1.7,0.8-3.3,2.4-3.9
	c2.6-1.3,5.2-2.8,7.8-4.2l2.4-1.3c-3.1-0.3-6.2-0.4-9.3-0.4h-1.6c-0.5,0.1-1,0-1.4-0.3c-0.3-0.3-0.3-0.8-0.2-1.2v-8.6
	c0-0.1,0-0.2,0-0.4s0-0.3,0-0.4c-0.3,0-0.4,0.2-0.7,0.5c-0.1,0.2-0.3,0.4-0.5,0.5l-1.7,2.4c-1.5,2-3,4.1-4.4,6.2
	c-0.7,0.9-1.8,1.4-2.9,1.3h-11.1l1.6,1.7c1.6,1.6,2.9,3.1,4.3,4.5c0.6,0.6,1.1,1.1,1,1.7c-0.1,0.5-0.4,0.9-0.8,1.2l-7.4,10.5l0,0
	l11.6-6.1c0.3-0.4,0.8-0.6,1.3-0.6c0.6,0.1,1.1,0.4,1.5,0.9c1.3,1.5,2.7,2.9,4,4.3l1.7,1.8c0.3,0.3,0.6,0.6,0.9,0.9
	C181.1,168,181.7,168.7,182.1,169.5L182.1,169.5z"/>
<path class="st0" d="M46.2,140.5c1-5.9,2.2-13,3.3-20.2c0.1-0.9,0.7-1.2,1.5-1.2c2.8,0,5.5,0,8.2,0c1.6,0,1.1,0.9,0.9,1.7
	c-1,5.6-2,11.3-3,17c-0.6,3.2,0.4,5.2,2.7,5.7c2.6,0.7,5.2-0.9,5.9-3.4c0-0.1,0.1-0.3,0.1-0.4c1.2-5.8,2.3-11.6,3.2-17.5
	c0.4-2.4,1.2-3.6,3.8-3.2c1.9,0.2,3.7,0.2,5.6,0c1.3,0,1.9,0.1,1.6,1.7c-1.2,6.3-2.3,12.7-3.3,19.1c-1.6,10.1-9.3,13.6-18.1,13.1
	c-2.6-0.1-5.1-0.7-7.4-1.9C47.5,149.1,45.9,146.2,46.2,140.5z"/>
<path class="st1" d="M60.3,153.4c-0.5,0-1.1,0-1.6,0c-2.6-0.1-5.2-0.7-7.5-1.9c-4-2.2-5.5-5.3-5.2-10.9l0,0l0.7-4
	c0.8-5,1.8-10.5,2.7-16.1c0.1-0.9,0.9-1.5,1.7-1.4h1.1c2.3,0,4.8,0,7.1,0c0.4-0.1,0.9,0.1,1.2,0.4c0.2,0.4,0.2,0.9,0,1.3
	c0,0.1,0,0.2,0,0.4c-0.5,2.6-0.9,5.3-1.4,7.9c-0.5,3-1.1,6-1.6,9.1c-0.4,2.1-0.2,4.8,2.5,5.4c1.2,0.3,2.5,0.1,3.6-0.5
	c1.1-0.7,1.8-1.9,2-3.2c1.2-6,2.3-11.9,3.2-17.4c0.4-2.4,1.2-3.8,4.1-3.4c1.4,0.2,2.9,0.2,4.3,0.1h1.2c0.7,0,1.3,0,1.6,0.4
	c0.3,0.5,0.4,1.1,0.2,1.6c-1.2,6.2-2.3,12.6-3.3,19C75.6,148.5,69.6,153.4,60.3,153.4z M46.4,140.5c-0.3,5.4,1.2,8.4,4.9,10.4
	c2.3,1.2,4.7,1.8,7.3,1.9c9.9,0.6,16.4-4.1,17.8-12.9c1-6.4,2.2-12.8,3.3-19.1c0.1-0.6,0.1-1,0-1.2c-0.1-0.2-0.6-0.2-1.2-0.2h-1.2
	c-1.5,0.1-3,0.1-4.4-0.1c-2.5-0.4-3.2,0.7-3.5,3c-0.9,5.6-2,11.4-3.2,17.5c-0.3,1.4-1.1,2.7-2.3,3.5c-1.2,0.7-2.6,0.9-4,0.6
	c-2.5-0.6-3.5-2.8-2.9-6c0.5-3,1.1-6,1.6-9.1c0.5-2.6,0.9-5.3,1.4-7.9c0-0.1,0-0.3,0.1-0.4c0.1-0.1,0.2-0.7,0-0.8s-0.3-0.2-0.8-0.2
	c-2.4,0-4.8,0-7.1,0H51c-0.8,0-1.1,0.2-1.2,0.9c-0.9,5.6-1.8,11.2-2.7,16.1L46.4,140.5z"/>
<path class="st0" d="M111.9,152.2c0.2-1,0.6-2,1.3-2.8c5.7-9.3,11.5-18.7,17.1-28c0.7-1.6,2.5-2.5,4.2-2.3c2.4,0.2,4.8,0.1,7.2,0
	c1.2,0,1.7,0.4,1.9,1.6c1.7,9.9,3.4,19.8,5.2,29.7c0.2,1.2,0,1.8-1.4,1.8c-1.7-0.1-3.4-0.1-5,0c-2.9,0.2-5.6,0.3-5.2-3.9
	c0.1-1-0.7-1.1-1.5-1.1c-2.8,0-5.5,0-8.2,0c-1.7,0-2,1.3-2.4,2.3c-0.6,1.9-2.5,3.1-4.4,2.7C117.7,152,114.8,152.2,111.9,152.2z
	 M130.5,138.9h4.3c0.8,0,1.6-0.1,1.3-1.1c-0.5-2.1-0.2-4.4-1.1-6.8L130.5,138.9z"/>
<path class="st1" d="M140.8,152.6c-1.8,0.4-3.6-0.8-3.9-2.6c-0.1-0.6-0.1-1.1,0.1-1.7c0-0.2,0-0.4-0.1-0.5c-0.2-0.2-0.8-0.2-1.2-0.2
	h-2.4c-1.9,0-3.8,0-5.7,0c-1.3,0-1.7,0.9-2.1,1.9l-0.1,0.3c-0.6,2.1-2.7,3.3-4.8,2.8c-2-0.2-4-0.1-6-0.1h-2.7h-0.3v-0.3
	c0.1-0.9,0.5-1.7,1-2.4l0.3-0.5l5.4-8.8c3.9-6.3,7.9-12.8,11.7-19.2c0.8-1.7,2.6-2.7,4.5-2.4c2.2,0.2,4.4,0.1,6.6,0h0.5
	c1.3,0,1.9,0.5,2.2,1.8c1.8,10.3,3.6,20.8,5.2,29.7c0.2,0.5,0.1,1.1-0.2,1.6c-0.4,0.4-0.9,0.5-1.5,0.4c-1.7-0.1-3.3-0.1-5,0
	C141.8,152.5,141.3,152.6,140.8,152.6z M135.6,147c0.6-0.1,1.1,0.1,1.6,0.4c0.2,0.3,0.3,0.6,0.3,0.9c-0.2,1,0,2.1,0.7,2.9
	c0.8,0.8,2.4,0.8,4.3,0.7c1.7-0.1,3.4-0.1,5.1,0c0.5,0,0.9,0,1-0.2c0.2-0.2,0.2-0.6,0.1-1.2c-1.6-9-3.5-19.4-5.2-29.7
	c-0.2-1.1-0.6-1.4-1.6-1.4h-0.5c-2.2,0-4.4,0.1-6.7,0c-1.7-0.3-3.3,0.6-4,2.1c-3.9,6.4-7.9,12.9-11.7,19.2l-5.4,8.8l-0.4,0.5
	c-0.4,0.5-0.7,1.2-0.9,1.8h2.4c2,0,4.1,0,6.1,0.1c1.8,0.4,3.7-0.7,4.2-2.5l0.1-0.3c0.4-1,0.8-2.3,2.6-2.2s3.8,0,5.7,0L135.6,147z
	 M134.9,139.2h-4.8l4.9-8.9l0.2,0.5c0.5,1.4,0.7,2.8,0.8,4.2c0,0.9,0.2,1.8,0.4,2.7c0.1,0.4,0.1,0.7-0.1,1.1
	C135.8,139.1,135.4,139.2,134.9,139.2L134.9,139.2z M133.3,138.6h1.6c0.4,0,0.8,0,1-0.2c0.1-0.2,0.1-0.4,0-0.6
	c-0.2-0.9-0.3-1.8-0.4-2.8c0-1.2-0.2-2.4-0.5-3.5l-3.9,7.1L133.3,138.6L133.3,138.6z"/>
<path class="st0" d="M100.9,118.1c3.7,0,7.3,1,10.4,2.9c1.3,0.8,1.4,1.6,0.2,2.5c-0.9,0.7-1.7,1.5-2.5,2.4c-1.6,1.7-3.1,3.8-5.7,1.4
	c-0.5-0.3-1-0.4-1.6-0.3c-1.7-0.1-3.7-0.2-4.2,1.8c-0.4,2,1.6,2.1,2.9,2.7c1.3,0.6,2.3,0.9,3.4,1.4c7.4,3.6,8.3,12.2,1.7,17.1
	c-5.8,4.4-17.4,4.1-23-0.5c-0.9-0.8-1.3-1.4-0.2-2.2c0.9-0.6,1.6-1.3,2.4-2.1c2.1-2.5,4.1-4.1,7.3-1.5c1.3,0.8,2.9,1,4.4,0.5
	c1,0,1.9-0.7,2-1.7c0.1-0.9-0.5-1.8-1.4-2c-1.6-0.6-3.2-1.2-4.7-1.9c-6.8-2.9-8.4-10.3-3.3-15.8C92.2,119.6,96.5,118,100.9,118.1z"
	/>
<path class="st1" d="M94.6,153.4c-4.4,0.1-8.6-1.2-12.2-3.7c-0.5-0.3-0.9-0.8-1-1.4c0.1-0.5,0.4-1,0.8-1.2c0.8-0.6,1.6-1.3,2.3-2.1
	c1.9-2.2,4.2-4.4,7.7-1.6c1.3,0.7,2.8,0.9,4.2,0.5c1.1-0.1,1.7-0.7,1.8-1.5c0-0.8-0.5-1.5-1.2-1.8l-2.2-0.9c-0.8-0.3-1.6-0.6-2.5-1
	c-5.1-1.8-7.7-7.3-6-12.3c0.5-1.5,1.4-2.8,2.5-3.9c2.8-3.1,6.6-4.6,11.9-4.8l0,0c3.7,0,7.3,1,10.5,2.9c0.8,0.5,1.2,0.9,1.2,1.4
	c0,0.5-0.3,1-1,1.6c-0.9,0.7-1.7,1.5-2.4,2.4l-0.4,0.4c-0.6,0.8-1.5,1.5-2.4,2c-1.2,0.3-2.5-0.1-3.3-1c-0.3-0.2-0.7-0.3-1.1-0.2
	h-0.2c-2-0.1-3.5-0.1-3.9,1.6c-0.3,1.3,0.5,1.6,1.9,2.1c0.3,0.1,0.6,0.2,0.9,0.3l1.4,0.6c0.7,0.3,1.3,0.5,2,0.8
	c5.1,2,7.6,7.7,5.6,12.8c-0.8,2-2.1,3.6-3.9,4.8C102.5,152.4,98.6,153.5,94.6,153.4z M89.1,142.6c-1.4,0-2.7,1.1-4.1,2.7
	c-0.7,0.8-1.5,1.5-2.4,2.2c-0.4,0.3-0.6,0.6-0.6,0.8c0,0.2,0.2,0.6,0.8,1c5.6,4.6,17,4.8,22.7,0.5c4.4-2.8,5.7-8.6,2.9-13
	c-1.1-1.7-2.7-3-4.5-3.7c-0.6-0.3-1.3-0.6-2-0.8l-1.5-0.6c-0.3-0.1-0.5-0.2-0.8-0.3c-1.2-0.4-2.7-0.9-2.3-2.7c0.5-2.3,2.8-2.1,4.5-2
	h0.2c0.5,0,1,0.1,1.5,0.4c1,0.9,1.9,1.2,2.8,0.9c0.9-0.4,1.6-1.1,2.2-1.8l0.4-0.4c0.8-0.9,1.6-1.7,2.5-2.4c0.5-0.4,0.8-0.8,0.8-1.1
	c0-0.3-0.3-0.6-0.9-1c-3.1-1.8-6.7-2.8-10.3-2.8c-5.1,0.2-8.7,1.6-11.5,4.6c-2.3,2.3-3.3,5.5-2.7,8.7c0.7,3.1,3,5.6,6,6.7
	c0.8,0.3,1.6,0.7,2.5,1l2.2,0.9c1,0.3,1.7,1.3,1.6,2.3c-0.2,1.1-1.1,2-2.3,2c-1.5,0.4-3.2,0.2-4.6-0.6
	C91.3,143.1,90.2,142.6,89.1,142.6z"/>
<path class="st2" d="M180.7,136.6c-2.1,2.9-4.2,5.7-6.2,8.6c-0.6,0.9-1.7,1.3-2.7,1.2c-3.6,0-7.2,0-11.7,0c2.4,2.5,4.4,4.6,6.4,6.6
	c0.8,0.8,1.6,1.6,0.2,2.5c-1-1.3-2-0.5-3,0l-16.5,9c-0.7-0.9,0.1-1.3,0.4-1.6c3.2-4.4,6.4-8.8,9.7-13c1.4-1.8,1.6-2.9-0.2-4.6
	c-2.8-2.6-5.3-5.6-8.4-8.8c5.7,0,10.8-0.1,15.9,0c1.7,0.1,3.3-0.7,4.2-2.1c3.2-4.6,6.7-9.1,10.5-13.3c0,4.4,0,8.7,0,13.1
	C179.1,135.4,179,136.6,180.7,136.6z"/>
<path class="st1" d="M147.1,165l-0.1-0.2c-0.4-0.5-0.4-1.2,0.1-1.7c0,0,0.1-0.1,0.1-0.1l0.2-0.2l2-2.7c2.5-3.4,5.1-6.9,7.7-10.3
	c1.4-1.8,1.4-2.7-0.2-4.2c-2-1.8-3.8-3.8-5.7-6c-0.9-0.9-1.7-1.9-2.7-2.9l-0.4-0.4h5.4c3.8,0,7.5,0,11.1,0c1.6,0.1,3.1-0.6,3.9-2
	c3.2-4.6,6.7-9.1,10.5-13.3l0.5-0.5v4.3c0,3.2,0,6.4,0,9.5v0.3c-0.1,0.6,0,1.1,0.3,1.6c0.3,0.2,0.7,0.3,1,0.3h0.5l-0.3,0.4l-1.8,2.4
	c-1.5,2-3,4.1-4.4,6.2c-0.7,0.9-1.8,1.4-2.9,1.3h-11.1l1.6,1.7c1.6,1.6,2.9,3.1,4.3,4.5c0.6,0.6,1.1,1.1,1,1.7
	c-0.1,0.5-0.4,0.9-0.9,1.2l-0.2,0.1l-0.1-0.2c-0.7-0.9-1.4-0.7-2.3-0.1l-0.3,0.2l-12.1,6.6L147.1,165z M149.2,136.9l2.3,2.5
	c1.9,2.1,3.8,4.1,5.7,5.9c1.9,1.8,1.6,3.2,0.2,4.9c-2.7,3.4-5.2,6.9-7.7,10.3l-2,2.7c-0.1,0.1-0.2,0.2-0.2,0.3
	c-0.3,0.3-0.5,0.5-0.3,0.9l4.1-2.3l12.1-6.6l0.3-0.2c0.8-0.5,1.9-1.1,2.9,0c0.2-0.1,0.4-0.4,0.5-0.7c0-0.4-0.4-0.8-0.9-1.3
	c-1.4-1.4-2.8-2.8-4.3-4.5l-2-2.1l-0.4-0.4h12.3c1,0.2,1.9-0.2,2.5-1c1.4-2.1,2.9-4.2,4.4-6.2l1.5-2c-0.3,0-0.7-0.2-0.9-0.4
	c-0.4-0.6-0.6-1.3-0.5-2v-0.3c0-3.2,0-6.4,0-9.5v-3c-3.6,4.1-6.9,8.4-10,12.8c-0.9,1.5-2.6,2.4-4.4,2.2c-3.6-0.1-7.2,0-11.1,0
	L149.2,136.9z"/>
<path class="st2" d="M182.5,145.2c0-2.9,0-5.8,0-8.7h14.8l0.2,0.5L182.5,145.2z"/>
<path class="st1" d="M182.2,145.7v-9.4h15.2l0.4,0.9L182.2,145.7z M182.7,136.8v8l14.4-7.8v-0.1L182.7,136.8z"/>
<path class="st2" d="M171.2,160.3c0.9-0.9,1.6-0.6,2.4,0.2c1.9,2.1,3.8,4.1,5.7,6.1c-0.1,1.3-0.5,1.9-1.6,0.6
	C175.6,165,173.4,162.6,171.2,160.3z"/>
<path class="st1" d="M178.7,168.2c-0.3,0-0.7-0.3-1.2-0.8c-1.5-1.6-3.1-3.3-4.6-4.9l-1.9-2l-0.2-0.2l0.2-0.2
	c0.3-0.4,0.8-0.6,1.3-0.6c0.6,0.1,1.1,0.4,1.5,0.9c1.3,1.5,2.7,2.9,4,4.3l1.7,1.8l0.1,0.1v0.1c0,0.7-0.2,1.4-0.7,1.5L178.7,168.2z
	 M171.6,160.3l1.7,1.8c1.5,1.6,3.1,3.2,4.6,4.9c0.6,0.7,0.8,0.6,0.8,0.6s0.2-0.1,0.3-0.9l-1.6-1.7c-1.3-1.4-2.7-2.9-4-4.3
	c-0.4-0.5-0.8-0.7-1.1-0.7C172,160,171.8,160.1,171.6,160.3L171.6,160.3z"/>
</svg>
