<?xml version="1.0" encoding="utf-8"?>
<!-- Generator: Adobe Illustrator 21.1.0, SVG Export Plug-In . SVG Version: 6.00 Build 0)  -->
<svg version="1.1" id="Layer_1" xmlns="http://www.w3.org/2000/svg" xmlns:xlink="http://www.w3.org/1999/xlink" x="0px" y="0px"
	 viewBox="0 0 250 250" style="enable-background:new 0 0 250 250;" xml:space="preserve">
<style type="text/css">
	.st0{fill:#FF0000;}
	.st1{fill:#F9F9F9;}
</style>
<title>CR</title>
<g>
	<g>
		<g>
			<polygon class="st0" points="52.1,123.3 55.3,113 47.5,123.3 37.5,123.3 36.7,113 33.5,123.3 22.3,123.3 31.4,94.5 45,94.5 
				46.4,110 58,94.5 72.5,94.5 63.4,123.3 			"/>
			<path class="st1" d="M69.8,96.5l-7.9,24.8h-7.1l3.7-11.7c0.6-1.9,1.5-4.4,2.8-7.5H61l-14.5,19.2h-7.2l-1.6-19.2h-0.2
				c-0.4,2.1-1,4.6-2,7.7L32,121.3h-7l7.9-24.8h10.3l1.7,18.6H45l14-18.6H69.8 M75.2,92.5h-5.5H59h-2l-1.2,1.6l-7.9,10.5l-0.8-8.5
				l-0.3-3.6h-3.7H32.9h-2.9l-0.9,2.8l-7.9,24.8l-1.7,5.2H25h7h2.9l0.6-1.9l0.2,1.9h3.7h7.2h2l1.2-1.6l0.2-0.2l-0.6,1.8h5.5h7.1h2.9
				l0.9-2.8l7.9-24.8L75.2,92.5L75.2,92.5z"/>
		</g>
		<g>
			<path class="st0" d="M79.5,123.7c-4,0-7.2-0.8-9.5-2.2c-2.6-1.6-4-4-4-6.9c0-1,0.2-2,0.5-3l5.4-17h12L78,112.7
				c-0.3,0.9-0.3,1.3-0.3,1.5c0,0.3,0,1,2.8,1c1.7,0,2.9-0.3,3.8-0.9c0.9-0.6,1.5-1.5,1.9-2.8l5.4-17h12l-5.9,18.7
				c-1.1,3.5-3.3,6.2-6.5,7.9C88.1,122.8,84.2,123.7,79.5,123.7z"/>
			<path class="st1" d="M100.8,96.5l-5.1,16.1c-1,3-2.8,5.3-5.6,6.8c-2.7,1.5-6.3,2.3-10.7,2.3c-3.6,0-6.4-0.6-8.5-1.9
				c-2.1-1.3-3.1-3-3.1-5.2c0-0.8,0.1-1.6,0.4-2.3l5-15.7H81l-4.9,15.6c-0.3,0.8-0.4,1.5-0.4,2.1c0,2,1.6,3,4.8,3
				c2.1,0,3.7-0.4,5-1.3c1.2-0.9,2.1-2.2,2.6-3.9L93,96.5H100.8 M106.3,92.5h-5.5H93h-2.9l-0.9,2.8l-4.9,15.6
				c-0.3,0.9-0.7,1.5-1.1,1.8c-0.5,0.4-1.5,0.6-2.7,0.6c-0.2,0-0.4,0-0.5,0l4.9-15.5l1.6-5.2H81h-7.8h-2.9l-0.9,2.8l-5,15.6
				c-0.4,1.1-0.6,2.4-0.6,3.6c0,3.6,1.7,6.6,5,8.6c2.7,1.7,6.2,2.5,10.6,2.5c5,0,9.3-0.9,12.6-2.8c3.6-2,6.1-5.1,7.4-9.1l5.1-16.1
				L106.3,92.5L106.3,92.5z"/>
		</g>
		<g>
			<path class="st0" d="M114.4,123.3l-5.3-9.5h-0.4l-3,9.5h-12l9.1-28.8h10.6c4.4,0,7.7,0.7,10.1,2c2,1.1,3.2,2.7,3.8,4.7l2.1-6.7
				h11.9c4.5,0,7.9,0.7,10.3,2.1c2.7,1.6,4.2,4,4.2,7.1c0,2.4-0.9,5.8-5.4,8.2c-3.2,1.7-7.5,2.6-12.9,2.6H135l-2.8,8.8H114.4z
				 M122.7,115.5l1.9-6c-1.1,1-2.5,1.8-4.2,2.4L122.7,115.5z M138.1,106.2c2,0,3.6-0.3,4.7-0.9c1.1-0.6,1.1-1.1,1.1-1.4
				c0-0.4-0.1-0.5-0.3-0.6c-0.3-0.2-1-0.5-2.7-0.5h-2.2l-1.1,3.4H138.1z M111.4,105.5c1.5-0.1,2.7-0.3,3.5-0.7
				c0.7-0.3,0.8-0.7,0.8-1.2c0-0.2,0-0.2-0.2-0.4c-0.2-0.1-0.9-0.4-2.8-0.4h-0.4L111.4,105.5z"/>
			<path class="st1" d="M141.3,96.5c4.1,0,7.2,0.6,9.3,1.8c2.1,1.2,3.2,3,3.2,5.4c0,2.7-1.4,4.9-4.3,6.4c-2.9,1.6-6.8,2.3-11.9,2.3
				h-4l-2.8,8.8H124h-1h-7.4l-5.3-9.5h-3l-3,9.5h-7.8l7.9-24.8h9.1c4,0,7,0.6,9.1,1.7c2,1.2,3,2.8,3,5.1c0,1.8-0.7,3.3-2.1,4.6
				c-1.4,1.3-3.4,2.2-6.1,2.9l6,9.5l7.5-23.7H141.3 M135,108.2h3.2c2.4,0,4.3-0.4,5.7-1.2c1.4-0.8,2.1-1.8,2.1-3.1
				c0-1.1-0.4-1.8-1.2-2.3c-0.8-0.5-2.1-0.7-3.7-0.7h-3.7L135,108.2 M108.6,107.5h2c2.2,0,4-0.3,5.2-1c1.2-0.6,1.9-1.6,1.9-3
				c0-0.9-0.4-1.6-1.2-2.1c-0.8-0.5-2.1-0.7-3.8-0.7h-1.9L108.6,107.5 M141.3,92.5h-10.4h-2.9l-0.9,2.8l-0.3,1.1
				c-0.6-0.6-1.4-1.2-2.2-1.6c-2.7-1.5-6.3-2.3-11-2.3h-9.1h-2.9l-0.9,2.8l-7.9,24.8l-1.7,5.2h5.5h7.8h2.9l0.9-2.8l1.3-4.1l2.7,4.9
				l1.1,2.1h2.4h7.4h1h6.8h2.9l0.9-2.8l1.9-6h1c5.8,0,10.3-0.9,13.8-2.8c5.3-2.9,6.4-7,6.4-9.9c0-3.8-1.8-7-5.2-8.9
				C149.8,93.3,146.1,92.5,141.3,92.5L141.3,92.5z"/>
		</g>
		<g>
			<polygon class="st0" points="188.1,123.3 191.8,111.9 188.5,103.5 182.2,123.3 170.2,123.3 173.6,112.6 165.8,112.6 162.4,123.3 
				150.5,123.3 159.6,94.5 171.6,94.5 168.5,104.2 176.3,104.2 179.4,94.5 197.3,94.5 200,102.7 207.8,94.5 222.3,94.5 203.4,112.9 
				200,123.3 			"/>
			<path class="st1" d="M217.3,96.5l-15.7,15.3l-3,9.5h-7.7l3-9.5l-5.6-14.3l-7.5,23.8H173l3.4-10.7h-12l-3.4,10.7h-7.8l7.9-24.8
				h7.8l-3.1,9.7h12l3.1-9.7h7h0.7h7.2l3.3,10l9.5-10H217.3 M227.2,92.5h-9.8h-8.7h-1.7l-1.2,1.2l-4.9,5.2l-1.2-3.7l-0.9-2.8h-2.9
				h-7.2h-0.7h-7h-2.9l-0.9,2.8l-2.2,6.9h-3.6l1.4-4.5l1.6-5.2h-5.5h-7.8h-2.9l-0.9,2.8l-7.9,24.8l-1.7,5.2h5.5h7.8h2.9l0.9-2.8
				l2.5-7.9h3.6l-1.8,5.5l-1.7,5.2h5.5h7.8h2.9l0.9-2.8l4.1-13l1,2.5l-2.6,8.1l-1.7,5.2h5.5h7.7h2.9l0.9-2.8l2.7-8.5l15-14.6
				L227.2,92.5L227.2,92.5z"/>
		</g>
		<g>
			<polygon class="st0" points="57.3,155.1 64.5,124.1 85.3,124.1 83.3,132.8 72.8,132.8 72.4,134.7 82.1,134.7 80.1,143.4 
				70.3,143.4 69.6,146.4 80.1,146.4 78.1,155.1 			"/>
			<path class="st1" d="M82.8,126.1l-1.1,4.7H71.2l-1.4,5.9h9.7l-1.1,4.7h-9.7l-1.6,7h10.4l-1.1,4.7H59.8l6.3-27H82.8 M87.8,122.1
				h-5H66.1h-3.2l-0.7,3.1l-6.3,27l-1.1,4.9h5h16.7h3.2l0.7-3.1l1.1-4.7l1.1-4.9h-0.7l0.5-2l1.1-4.7l0.7-2.9h0.7l0.7-3.1l1.1-4.7
				L87.8,122.1L87.8,122.1z"/>
		</g>
		<g>
			<polygon class="st0" points="96.1,155.1 93.3,147.2 86.9,155.1 74.7,155.1 88.4,138.6 83,124.1 93.8,124.1 96.2,131.5 
				101.9,124.1 114.2,124.1 101.1,139.9 107.2,155.1 			"/>
			<path class="st1" d="M109.9,126.1l-11.1,13.4l5.5,13.6h-6.8l-3.5-10l-8.1,10h-7L90.7,139l-4.9-12.9h6.5l3.1,9.6l7.4-9.6H109.9
				 M118.5,122.1h-8.5h-7h-2l-1.2,1.6l-2.8,3.6l-0.8-2.4l-0.9-2.8h-2.9h-6.5h-5.8l2,5.4l4,10.7l-10.3,12.3l-5.5,6.6H79h7h1.9
				l1.2-1.5l3.6-4.4l1.1,3.2l0.9,2.7h2.8h6.8h5.9l-2.2-5.5l-4.6-11.4l9.6-11.6L118.5,122.1L118.5,122.1z"/>
		</g>
		<g>
			<path class="st0" d="M105.2,155.1l7.2-31h9.9c3.7,0,6.7,0.8,8.7,2.4c2.2,1.7,3.3,4.2,3.3,7.5c0,3.6-1.4,6.5-4.3,8.6
				c-2.6,1.9-6.3,2.9-10.7,2.9h-1.6l-2.2,9.6H105.2z M119.9,136.8c1.5,0,2.6-0.3,3.3-0.9c0.6-0.5,0.9-1,0.9-1.8c0-0.2,0-0.8-0.3-1
				c-0.1-0.1-0.6-0.4-1.7-0.4h-1.4L119.9,136.8L119.9,136.8z"/>
			<path class="st1" d="M122.4,126.1c3.3,0,5.8,0.7,7.5,2c1.7,1.3,2.5,3.3,2.5,5.9c0,3-1.2,5.3-3.5,7c-2.3,1.7-5.5,2.5-9.5,2.5h-3.2
				l-2.2,9.6h-6.2l6.3-27H122.4 M117.3,138.8h2.5c1.9,0,3.4-0.4,4.6-1.3c1.1-0.9,1.7-2,1.7-3.4c0-1.1-0.3-2-1-2.5
				c-0.7-0.5-1.6-0.8-3-0.8h-2.9L117.3,138.8 M122.4,122.1h-8.3h-3.2l-0.7,3.1l-6.3,27l-1.1,4.9h5h6.2h3.2l0.7-3.1l1.5-6.5h0
				c4.9,0,8.9-1.1,11.9-3.3c3.3-2.4,5.1-6,5.1-10.2c0-4.8-2.2-7.6-4.1-9C129.9,123.1,126.6,122.1,122.4,122.1L122.4,122.1z"/>
		</g>
		<g>
			<path class="st0" d="M147.2,155.1l-3.9-9.6l-2.2,9.6h-10.3l7.2-31h8.9c3.7,0,6.5,0.8,8.5,2.3c2.1,1.7,3.2,4,3.2,7.1
				c0,2.4-0.7,4.5-2.1,6.3c-1,1.2-2.2,2.2-3.7,2.9l5.8,12.4H147.2z M145.5,136.1c0.9-0.1,1.6-0.3,2.1-0.6c0.3-0.2,0.6-0.6,0.6-1.6
				c0-0.5-0.1-0.7-0.2-0.7c-0.1-0.1-0.5-0.3-1.7-0.3L145.5,136.1z"/>
			<path class="st1" d="M146.9,126.1c3.2,0,5.6,0.6,7.3,1.9c1.6,1.3,2.4,3.1,2.4,5.5c0,1.9-0.6,3.6-1.7,5c-1.1,1.4-2.8,2.4-4.9,3.1
				l5.3,11.5h-6.8l-4.2-10.4h-2.4l-2.4,10.4h-6.2l6.3-27H146.9 M143,138.1h1.6c1.8,0,3.2-0.4,4.2-1.1c1-0.7,1.5-1.8,1.5-3.2
				c0-1-0.3-1.8-1-2.3c-0.6-0.5-1.7-0.8-3-0.8h-1.5L143,138.1 M146.9,122.1h-7.3h-3.2l-0.7,3.1l-6.3,27l-1.1,4.9h5h6.2h3.2l0.7-3.1
				l0.5-1.9l1,2.5l1,2.5h2.7h6.8h6.3l-2.6-5.7l-3.7-7.9c1-0.7,1.9-1.5,2.7-2.5c1.7-2.1,2.6-4.7,2.6-7.5c0-4.6-2.2-7.3-4-8.7
				C154.2,123,151,122.1,146.9,122.1L146.9,122.1z"/>
		</g>
		<g>
			<polygon class="st0" points="156.1,155.1 163.4,124.1 184.2,124.1 182.1,132.8 171.7,132.8 171.3,134.7 181,134.7 178.9,143.4 
				169.2,143.4 168.5,146.4 179,146.4 176.9,155.1 			"/>
			<path class="st1" d="M181.7,126.1l-1.1,4.7h-10.4l-1.4,5.9h9.7l-1.1,4.7h-9.7l-1.6,7h10.4l-1.1,4.7h-16.7l6.3-27H181.7
				 M186.7,122.1h-5H165h-3.2l-0.7,3.1l-6.3,27l-1.1,4.9h5h16.7h3.2l0.7-3.1l1.1-4.7l1.1-4.9h-0.7l0.5-2l1.1-4.7l0.7-2.9h0.7
				l0.7-3.1l1.1-4.7L186.7,122.1L186.7,122.1z"/>
		</g>
		<g>
			<path class="st0" d="M188.3,155.5c-3.4,0-6.2-0.7-8.3-2l-1-0.6v-9.4l2.9,1.5c2.3,1.2,4.5,1.8,6.4,1.8c1.4,0,2.2-0.3,2.5-0.5
				c0.3-0.2,0.3-0.3,0.3-0.4c0-0.2,0-0.4-0.1-0.6c-0.1-0.2-0.2-0.4-0.4-0.5c-0.1-0.1-0.5-0.4-2.2-1.6c-2.1-1.4-3.6-2.8-4.5-4.2
				c-1-1.5-1.5-3.2-1.5-4.9c0-2,0.5-3.8,1.6-5.4c1.1-1.6,2.5-2.8,4.4-3.6c1.8-0.8,3.9-1.2,6.2-1.2c3.2,0,6.3,0.7,9,2l1.8,0.9l-4,7.8
				l-1.7-0.7c-1.9-0.8-3.6-1.2-5.1-1.2c-0.7,0-1.2,0.1-1.6,0.4c-0.2,0.2-0.3,0.3-0.3,0.6c0,0.3,0.1,0.5,0.2,0.7
				c0.1,0.1,0.5,0.6,2.5,1.8c1.9,1.1,3.3,2.4,4.3,3.8c1,1.5,1.6,3.3,1.6,5.3c0,3.2-1.3,5.9-3.8,7.7
				C195.3,154.6,192.2,155.5,188.3,155.5z"/>
			<path class="st1" d="M194.8,125.7c3,0,5.7,0.6,8.1,1.8l-2.2,4.3c-2.1-0.9-4.1-1.4-5.9-1.4c-1.1,0-2.1,0.3-2.8,0.8
				c-0.7,0.6-1.1,1.3-1.1,2.2c0,0.8,0.2,1.4,0.7,2c0.4,0.6,1.5,1.3,3,2.2c1.6,1,2.9,2.1,3.7,3.3c0.8,1.2,1.2,2.6,1.2,4.2
				c0,2.6-1,4.6-3,6.1c-2,1.5-4.7,2.2-8.2,2.2c-3,0-5.4-0.6-7.3-1.7v-5.1c2.6,1.3,5.1,2,7.3,2c1.5,0,2.7-0.3,3.6-0.8
				c0.9-0.5,1.3-1.2,1.3-2.2c0-0.5-0.1-1-0.3-1.4c-0.2-0.4-0.4-0.8-0.8-1.1c-0.3-0.3-1.2-1-2.5-1.9c-1.9-1.2-3.2-2.4-4-3.6
				c-0.8-1.2-1.1-2.5-1.1-3.9c0-1.6,0.4-3,1.3-4.3c0.8-1.3,2-2.2,3.6-2.9C191,126.1,192.7,125.7,194.8,125.7 M194.8,121.7
				c-2.6,0-4.9,0.5-7,1.4c-2.2,1-4,2.5-5.3,4.3c-1.3,1.9-1.9,4.1-1.9,6.5c0,2.1,0.6,4.2,1.8,6c1.1,1.7,2.7,3.2,5,4.7
				c-1.3-0.2-2.8-0.7-4.4-1.5l-5.8-2.9v6.5v5.1v2.3l1.9,1.2c2.5,1.5,5.6,2.2,9.3,2.2c4.3,0,7.9-1,10.6-3c3-2.3,4.6-5.5,4.6-9.3
				c0-2.4-0.6-4.6-1.9-6.4c-0.9-1.3-2.2-2.6-3.7-3.6c0.4,0.1,0.8,0.3,1.2,0.5l3.4,1.5l1.7-3.3l2.2-4.3l1.9-3.6l-3.6-1.8
				C201.7,122.5,198.3,121.7,194.8,121.7L194.8,121.7z"/>
		</g>
		<g>
			<path class="st0" d="M210.5,155.5c-3.4,0-6.2-0.7-8.3-2l-1-0.6v-9.4l2.9,1.5c2.3,1.2,4.5,1.8,6.4,1.8c1.4,0,2.2-0.3,2.5-0.5
				c0.3-0.2,0.3-0.3,0.3-0.4c0-0.2,0-0.4-0.1-0.6c-0.1-0.2-0.2-0.4-0.4-0.6c-0.1-0.1-0.5-0.4-2.2-1.6c-2.1-1.4-3.6-2.8-4.5-4.2
				c-1-1.5-1.5-3.2-1.5-4.9c0-2,0.5-3.8,1.6-5.4c1-1.6,2.5-2.8,4.4-3.6c1.8-0.8,3.9-1.2,6.2-1.2c3.2,0,6.3,0.7,9,2l1.8,0.9l-4,7.8
				l-1.7-0.7c-1.9-0.8-3.6-1.2-5.1-1.2c-0.7,0-1.2,0.1-1.6,0.4c-0.2,0.2-0.3,0.3-0.3,0.6c0,0.3,0.1,0.5,0.2,0.7
				c0.1,0.1,0.5,0.6,2.5,1.8c1.9,1.1,3.3,2.4,4.3,3.8c1,1.5,1.6,3.3,1.6,5.3c0,3.2-1.3,5.9-3.8,7.7
				C217.5,154.6,214.3,155.5,210.5,155.5z"/>
			<path class="st1" d="M216.9,125.7c3,0,5.7,0.6,8.1,1.8l-2.2,4.3c-2.1-0.9-4.1-1.4-5.9-1.4c-1.1,0-2.1,0.3-2.8,0.8
				c-0.7,0.6-1.1,1.3-1.1,2.2c0,0.8,0.2,1.4,0.7,2c0.4,0.6,1.5,1.3,3,2.2c1.6,1,2.9,2.1,3.7,3.3c0.8,1.2,1.2,2.6,1.2,4.2
				c0,2.6-1,4.6-3,6.1c-2,1.5-4.7,2.2-8.2,2.2c-3,0-5.4-0.6-7.3-1.7v-5.1c2.6,1.3,5.1,2,7.3,2c1.5,0,2.7-0.3,3.6-0.8
				c0.9-0.5,1.3-1.2,1.3-2.2c0-0.5-0.1-1-0.3-1.4c-0.2-0.4-0.4-0.8-0.8-1.1c-0.3-0.3-1.2-1-2.5-1.9c-1.9-1.2-3.2-2.4-4-3.6
				c-0.8-1.2-1.1-2.5-1.1-3.9c0-1.6,0.4-3,1.3-4.3c0.8-1.3,2-2.2,3.6-2.9C213.1,126.1,214.9,125.7,216.9,125.7 M216.9,121.7
				c-2.6,0-4.9,0.5-7,1.4c-2.2,1-4,2.5-5.3,4.3c-1.3,1.9-1.9,4.1-1.9,6.5c0,2.1,0.6,4.2,1.8,6c1.1,1.7,2.7,3.2,5,4.7
				c-1.3-0.2-2.8-0.7-4.4-1.5l-5.8-2.9v6.5v5.1v2.3l1.9,1.2c2.5,1.5,5.6,2.2,9.3,2.2c4.3,0,7.9-1,10.6-3c3-2.3,4.6-5.5,4.6-9.3
				c0-2.4-0.6-4.6-1.9-6.4c-0.9-1.3-2.2-2.6-3.7-3.6c0.4,0.1,0.8,0.3,1.2,0.5l3.4,1.5l1.7-3.3l2.2-4.3l1.9-3.6l-3.6-1.8
				C223.8,122.5,220.5,121.7,216.9,121.7L216.9,121.7z"/>
		</g>
	</g>
</g>
</svg>
