<?xml version="1.0" encoding="utf-8"?>
<!-- Generator: Adobe Illustrator 21.1.0, SVG Export Plug-In . SVG Version: 6.00 Build 0)  -->
<svg version="1.1" id="Layer_1" xmlns="http://www.w3.org/2000/svg" xmlns:xlink="http://www.w3.org/1999/xlink" x="0px" y="0px"
	 viewBox="0 0 250 250" style="enable-background:new 0 0 250 250;" xml:space="preserve">
<style type="text/css">
	.st0{fill:#F9E8A0;}
	.st1{fill:#FF0000;}
	.st2{fill:#414042;}
</style>
<title>iShop</title>
<path class="st0" d="M126.7,71.1c-10.3,0-20.4,2.6-29.4,7.5h8.6c5.3,0.2,9.6,4.5,9.8,9.8c-0.6,3.5-2.3,6.9-5.2,8.6
	c0.6,0.6,1.2,0.6,1.7,1.2c1.9,1.8,2.9,4.3,2.9,6.9c0,3.5-2.3,6.9-5.2,8.6c3.2,1.7,5.2,5,5.2,8.6c0,3.5-1.7,6.9-4.6,8.1
	c2.9,1.7,4.6,4.7,4.6,8.1c0,3.5-1.7,6.9-4.6,8.1l1.7,1.7c1.9,1.8,2.9,4.3,2.9,6.9c0,3.5-2.3,6.9-5.2,8.6c3.2,1.7,5.2,5,5.2,8.6
	c-0.2,5.3-4.5,9.6-9.8,9.8H92.7c9.8,6.9,21.3,10.4,34,10.4c33.4,0,60.5-27.1,60.5-60.5l0,0C187.2,98.8,160.1,71.1,126.7,71.1z"/>
<polygon class="st1" points="139.4,57.3 114.1,57.3 114.1,63.1 121.5,63.1 121.5,70.6 131.3,70.6 131.3,63.1 139.4,63.1 "/>
<polygon class="st1" points="175.7,78.6 180.9,83.8 187.2,77.5 182,71.7 "/>
<path class="st1" d="M122.7,135.7c0,0-1.2-2.3,1.7-5.2c2.9-2.9,27.7-19,27.7-19l-21.3,30C130.8,141.4,123.8,142.6,122.7,135.7z"/>
<path class="st2" d="M128.5,143.7c2.5-0.1,4.9-1.4,6.3-3.5l21.9-30.5c1.2-1.2,0.6-2.3,0-3.5c-1.2-0.6-2.3-0.6-2.9,0l-30.5,21.9
	c-3.7,2.6-4.8,7.7-2.3,11.5c1.6,2.2,4.2,3.5,6.9,3.5L128.5,143.7z M124.5,135.1c0-1.2,0.7-2.3,1.7-2.9l18.4-13.2l-13.2,18.4
	c-1.1,1.7-3.4,2.3-5.2,1.2c0,0,0,0,0,0C125,137.9,124.4,136.2,124.5,135.1L124.5,135.1z"/>
<path class="st2" d="M181.5,100.5L181.5,100.5c-2.4-4.2-5.3-8.1-8.6-11.5l5.2-5.2l3.5,3.5l9.8-9.8l-10.4-10.4l-10.4,10.4l3.5,3.5
	l-5.2,5.2c-3.5-3.5-7.5-5.8-11.5-8.6l0,0c-7.5-4.1-15.7-6.9-24.1-8.1v-2.9h3.5c3.2,0,5.8-2.6,5.8-5.8c-0.2-3.1-2.7-5.6-5.8-5.8
	h-20.2c-3.2,0-5.8,2.6-5.8,5.8c0.2,3.1,2.7,5.6,5.8,5.8h3.5v2.9c-2.5,0.1-5,0.5-7.5,1.2c-1.7,0.6-2.3,1.7-1.7,2.9
	c0,1.2,1.2,2.3,2.3,1.7c2.3-0.6,4-0.6,6.3-1.2h5.2v4c0,1.3,1,2.3,2.3,2.3c1.3,0,2.3-1,2.3-2.3v-4.6c8.6,0.6,17.1,2.9,24.8,6.9
	l-2.3,3.5c-0.6,1.2,0,2.3,0.6,3.5c0.6,0,0.6,0.6,1.2,0.6c0.9-0.1,1.7-0.5,2.3-1.2l2.3-4c7.5,4.6,13.8,10.9,18.4,18.4l-4,2.3
	c-1.2,0.7-1.7,2.2-1.2,3.5c0.6,0.7,1.4,1.1,2.3,1.2c0.1-0.4,0.3-0.8,0.6-1.2l4-2.3c4,7.7,6.4,16.1,6.9,24.8h-4.6
	c-1.3,0-2.3,1-2.3,2.3c0,1.3,1,2.3,2.3,2.3h4.6c-0.5,8.7-2.9,17.1-6.9,24.8l-4-1.7c-1.2-0.6-2.3,0-3.5,0.6c-0.6,1.2,0,2.3,0.6,3.5
	l0,0l4,2.3c-4.6,7.5-10.9,13.8-18.4,18.4l-2.3-4c-0.9-1-2.5-1.1-3.5-0.2c-0.9,0.8-1.1,2-0.5,3.1l2.3,4c-7.7,4-16.1,6.4-24.8,6.9
	v-4.6c0-1.3-1-2.3-2.3-2.3s-2.3,1-2.3,2.3l0,0v4.6c-3.7-0.1-7.3-0.5-10.9-1.2c-0.6-1.7-1.7-1.2-1.7,0c-0.6,1.7,0,2.9,1.7,2.9
	c4.7,1.2,9.5,1.8,14.4,1.7h0.6c11,0,21.7-3,31.1-8.6l0,0c9.2-5.8,17.3-13.2,23-23l0,0C191.9,144.3,191.9,120.1,181.5,100.5
	L181.5,100.5z M181.5,74l3.5,3.5l-3.5,3.5l-3.5-3.5L181.5,74z M124.4,68.8v-6.9h-8.1c-0.6,0-1.2-0.5-1.2-1.2c0-0.6,0.5-1.2,1.2-1.2
	h21.3c0.6,0,1.2,0.5,1.2,1.2c0,0.6-0.5,1.2-1.2,1.2h-8.1v6.9H124.4z M105.4,87.8H93.9c-1.3,0-2.3,1-2.3,2.3s1,2.3,2.3,2.3h11.5
	c1.2-0.1,2.2-1.1,2.3-2.3C107.7,88.4,107.1,87.8,105.4,87.8z M105.4,104h-23c-1.3,0-2.3,1-2.3,2.3c0,1.3,1,2.3,2.3,2.3H106
	c1.2-0.1,2.2-1.1,2.3-2.3C107.7,105.1,107.1,104,105.4,104L105.4,104z M105.4,120.7H70.3c-1.3,0-2.3,1-2.3,2.3c0,1.3,1,2.3,2.3,2.3
	h35.1c1.2-0.1,2.2-1.1,2.3-2.3c0.1-1.2-0.7-2.2-1.9-2.3C105.7,120.7,105.5,120.7,105.4,120.7L105.4,120.7z M105.4,136.8H61.1
	c-1.3,0-2.3,1-2.3,2.3c0,1.3,1,2.3,2.3,2.3h44.4c1.2-0.1,2.2-1.1,2.3-2.3c0.1-1.2-0.7-2.2-1.9-2.3
	C105.7,136.8,105.5,136.8,105.4,136.8L105.4,136.8z M105.4,153.5H74.9c-1.3,0-2.3,1-2.3,2.3c0,1.3,1,2.3,2.3,2.3c0,0,0,0,0,0h30.5
	c1.2-0.1,2.2-1.1,2.3-2.3C107.7,154.1,107.1,153.5,105.4,153.5L105.4,153.5z M105.4,169.6H89.3c-1.3,0-2.3,1-2.3,2.3s1,2.3,2.3,2.3
	c0,0,0,0,0,0h16.1c1.2-0.1,2.2-1.1,2.3-2.3c0.1-1.2-0.8-2.2-1.9-2.3C105.7,169.6,105.5,169.6,105.4,169.6L105.4,169.6z"/>
</svg>
