<?xml version="1.0" encoding="utf-8"?>
<!-- Generator: Adobe Illustrator 21.1.0, SVG Export Plug-In . SVG Version: 6.00 Build 0)  -->
<svg version="1.1" id="Layer_1" xmlns="http://www.w3.org/2000/svg" xmlns:xlink="http://www.w3.org/1999/xlink" x="0px" y="0px"
	 viewBox="0 0 250 250" style="enable-background:new 0 0 250 250;" xml:space="preserve">
<style type="text/css">
	.st0{fill:#EB2027;}
	.st1{fill:#231F20;}
	.st2{font-family:'ArialMT';}
	.st3{font-size:13.8662px;}
	.st4{letter-spacing:5;}
</style>
<title>Grocery</title>
<path class="st0" d="M17.9,97.8l16.6,20.9v-14.5c0.1-1.4-0.2-2.9-0.9-4.1c-1.1-1-2.5-1.5-4-1.3v-0.9h11.1v0.9c-1,0.1-2,0.3-2.9,0.7
	c-0.5,0.3-0.9,0.8-1.1,1.4c-0.3,1.1-0.5,2.2-0.4,3.4v28h-0.8l-22.7-28v21.3c-0.2,1.4,0.3,2.9,1.3,3.9c0.9,0.7,1.9,1,3,1h0.8v0.9h-12
	v-0.9c1.4,0.1,2.8-0.3,3.9-1.1c0.8-1.1,1.2-2.4,1.1-3.8v-23.7l-0.7-0.9c-0.5-0.7-1.1-1.3-1.9-1.8c-0.7-0.3-1.5-0.5-2.4-0.5v-0.9
	H17.9z"/>
<path class="st0" d="M59.8,97.4c9.2-0.8,17.2,6,18,15.2c0.1,0.6,0.1,1.3,0,1.9c0.1,4.1-1.3,8-3.7,11.3c-3.3,4.3-8,6.4-14,6.4
	s-10.7-2-14.1-6.1c-2.6-3.3-4-7.3-3.9-11.5c-0.1-4.7,1.7-9.2,5.1-12.5C50.5,98.8,55.1,97.1,59.8,97.4z M60.1,99
	c-3.1,0-5.4,1.6-7,4.7c-1.3,2.6-2,6.3-2,11.1c0,5.7,1,10,3,12.7c1.4,1.9,3.6,3,5.9,2.9c1.5,0.1,3-0.4,4.3-1.2
	c1.6-1.3,2.8-3.1,3.4-5.1c0.9-2.9,1.3-6,1.2-9.1c0.1-3.4-0.3-6.7-1.2-10c-0.6-1.8-1.7-3.5-3.2-4.7C63.2,99.4,61.6,98.9,60.1,99z"/>
<path class="st0" d="M100.5,113.6c2.4,0.4,4.7,1.3,6.7,2.7c1.8,1.4,2.8,3.6,2.8,5.9c0,2.5-1.1,4.8-3.1,6.3c-2.5,2-6.1,3-10.9,3H79
	v-0.9c1.1,0.1,2.1-0.1,3.2-0.4c0.5-0.2,0.9-0.6,1.2-1.1c0.3-1.1,0.4-2.3,0.3-3.4v-21.7c0.1-1.2,0-2.3-0.3-3.4
	c-0.3-0.5-0.7-0.9-1.2-1.1c-1-0.4-2.1-0.5-3.1-0.4v-0.9h16.1c2.8-0.2,5.5,0.2,8.2,1c1.5,0.6,2.9,1.7,3.8,3.1
	c0.9,1.3,1.3,2.8,1.3,4.3c0,1.6-0.6,3.2-1.8,4.3C104.9,112.2,102.8,113.2,100.5,113.6z M91.5,114.9v10.8v1.2
	c-0.2,1.3,0.8,2.5,2.1,2.7c0.2,0,0.4,0,0.6,0c1.3,0,2.5-0.3,3.7-0.9c1.1-0.6,2-1.5,2.6-2.5c0.6-1.2,0.9-2.4,0.9-3.7
	c0-1.5-0.4-2.9-1.1-4.2c-0.7-1.2-1.7-2.2-3-2.7C95.3,115,93.4,114.8,91.5,114.9z M91.5,113c1.8,0.1,3.5-0.2,5.2-0.8
	c1.1-0.5,1.9-1.3,2.6-2.2c1.2-2.3,1.2-5,0-7.3c-0.6-1-1.5-1.7-2.5-2.2c-1.7-0.6-3.5-0.8-5.3-0.7L91.5,113z"/>
<path class="st0" d="M136.5,115.3v10.4c-0.1,1.1,0,2.2,0.3,3.2c0.2,0.5,0.6,0.9,1.1,1.1c0.7,0.4,1.5,0.5,2.2,0.5h1.1v0.9h-17.6v-0.9
	h1.1c0.8,0,1.6-0.1,2.4-0.5c0.5-0.3,0.8-0.7,1-1.2c0.2-1,0.3-2.1,0.3-3.1v-22.1c0.1-1.1,0-2.2-0.3-3.2c-0.2-0.5-0.6-0.9-1.1-1.1
	c-0.7-0.4-1.5-0.5-2.2-0.5h-1.1v-0.9h17.6v0.9h-1.1c-0.8,0-1.6,0.1-2.4,0.5c-0.5,0.3-0.8,0.7-1,1.2c-0.2,1-0.3,2.1-0.3,3.1v9.5h11.9
	v-9.5c0.1-1.1,0-2.2-0.3-3.2c-0.2-0.5-0.6-0.9-1.1-1.1c-0.7-0.4-1.5-0.5-2.3-0.5h-1.1v-0.9h17.5v0.9h-1.1c-0.8,0-1.6,0.1-2.4,0.5
	c-0.5,0.3-0.8,0.7-1,1.2c-0.2,1-0.3,2.1-0.3,3.1v22.1c-0.1,1.1,0,2.2,0.3,3.2c0.2,0.5,0.6,0.9,1.1,1.1c0.7,0.4,1.5,0.5,2.3,0.5h1.1
	v0.9h-17.5v-0.9h1.1c0.8,0,1.6-0.1,2.4-0.5c0.5-0.3,0.8-0.7,1-1.2c0.2-1,0.3-2.1,0.3-3.1v-10.4L136.5,115.3z"/>
<path class="st0" d="M180.1,130.5v0.9h-17.6v-0.9h1.1c0.8,0,1.6-0.1,2.4-0.5c0.5-0.3,0.8-0.7,1-1.2c0.2-1,0.3-2.1,0.3-3.1v-22.1
	c0.1-1.1,0-2.2-0.3-3.2c-0.2-0.5-0.6-0.9-1.1-1.1c-0.7-0.4-1.5-0.5-2.2-0.5h-1.1v-0.9h17.6v0.9H179c-0.8,0-1.6,0.1-2.4,0.5
	c-0.5,0.3-0.8,0.7-1,1.2c-0.2,1-0.3,2.1-0.3,3.1v22.1c-0.1,1.1,0,2.2,0.3,3.2c0.2,0.5,0.6,0.9,1.1,1.1c0.7,0.4,1.5,0.5,2.2,0.5
	L180.1,130.5z"/>
<path class="st0" d="M212.7,119.6l-1.3,11.8h-29.8v-0.9h1.1c0.8,0,1.6-0.1,2.4-0.5c0.5-0.3,0.8-0.7,1-1.2c0.2-1,0.3-2.1,0.3-3.1
	v-22.1c0.1-1.1,0-2.2-0.3-3.2c-0.2-0.5-0.6-0.9-1.1-1.1c-0.7-0.4-1.5-0.5-2.2-0.5h-1.1v-0.9h17.9v0.9H198c-0.8,0-1.6,0.1-2.4,0.5
	c-0.5,0.3-0.8,0.7-1,1.2c-0.2,1-0.3,2.1-0.3,3.1V125c-0.1,1.1,0,2.2,0.3,3.3c0.2,0.5,0.6,0.9,1.2,1.1c1,0.2,2,0.3,3,0.2h2.8
	c1.5,0.1,3.1-0.3,4.5-0.9c1.3-0.7,2.3-1.7,3.1-3c1.1-1.9,1.9-3.9,2.5-6L212.7,119.6z"/>
<path class="st0" d="M245.9,119.6l-1.3,11.8h-29.9v-0.9h1.1c0.8,0,1.6-0.1,2.4-0.5c0.5-0.3,0.9-0.7,1-1.2c0.2-1,0.3-2.1,0.3-3.1
	v-22.1c0.1-1.1,0-2.2-0.3-3.2c-0.2-0.5-0.6-0.9-1.1-1.1c-0.7-0.4-1.5-0.5-2.2-0.5h-1.1v-0.9h17.8v0.9h-1.3c-0.8,0-1.6,0.1-2.4,0.5
	c-0.5,0.3-0.8,0.7-1,1.2c-0.2,1-0.3,2.1-0.3,3.1V125c-0.1,1.1,0,2.2,0.3,3.3c0.2,0.5,0.6,0.9,1.2,1.1c1,0.2,2,0.3,3,0.2h2.8
	c1.5,0.1,3.1-0.3,4.5-0.9c1.3-0.7,2.3-1.7,3.1-3c1.1-1.9,1.9-3.9,2.5-6L245.9,119.6z"/>
<text transform="matrix(1 0 0 1 89.166 149.5928)" class="st1 st2 st3 st4">FOODS</text>
<rect x="15.6" y="143.5" class="st1" width="65.9" height="1.9"/>
<rect x="165.3" y="143.5" class="st1" width="65.9" height="1.9"/>
</svg>
