<?xml version="1.0" encoding="utf-8"?>
<!-- Generator: Adobe Illustrator 21.1.0, SVG Export Plug-In . SVG Version: 6.00 Build 0)  -->
<svg version="1.1" id="Layer_1" xmlns="http://www.w3.org/2000/svg" xmlns:xlink="http://www.w3.org/1999/xlink" x="0px" y="0px"
	 viewBox="0 0 250 250" style="enable-background:new 0 0 250 250;" xml:space="preserve">
<style type="text/css">
	.st0{fill:#016F51;}
	.st1{fill:#FDFDFD;}
	.st2{fill:#C51733;}
	.st3{fill:#6E3F05;}
	.st4{fill:#FBE48F;}
</style>
<title>Grocery</title>
<path class="st0" d="M245,116.3c0,16.3,0,32.6,0,49c0,0.5-0.1,0.6-0.6,0.6H5.6c-0.5,0-0.6-0.1-0.6-0.6c0-16.2,0-32.4,0-48.6
	l31.9,0.1c0.5,0,0.6-0.1,0.6-0.6c0-2.6,0-5.2,0-7.8c0-0.6,0.2-0.7,0.7-0.7c3,0,6,0,9,0c6.9,0,13.8,0,20.7,0c0.6,0,0.6-0.2,0.6-0.7
	c0-2.5,0-5,0-7.5c0-0.4,0.2-0.8,0.6-1C73.5,96,78,94,82.7,92.4c11.1-3.8,22.6-6,34.3-6.7c0.9,0,1.9-0.1,2.8-0.3h11.1
	c0.1,0.2,0.3,0.1,0.4,0.1c2.7,0.1,5.3,0.4,8,0.7c5.3,0.7,10.5,1.7,15.6,2.9c9.3,2.3,18.3,5.5,26.9,9.6c0.4,0.1,0.6,0.5,0.6,0.9
	c0,2.4,0,4.7,0,7.1c0,0.6,0.1,0.8,0.8,0.8H213c0.7,0,0.8,0.2,0.8,0.8c0,2.4,0,4.8,0,7.1c0,0.6,0.2,0.7,0.7,0.7h30.1L245,116.3z
	 M207.2,161.1L207.2,161.1h32.3c0.5,0,0.7-0.1,0.7-0.6c0-1.3,0-2.6,0-3.8c0-11.7,0-23.3,0-35c0-0.5-0.2-0.6-0.6-0.6
	c-2.5,0-4.9,0-7.3,0h-23c-0.5,0-0.7-0.1-0.7-0.7c0-2.4,0-4.8,0-7.2c0-0.7-0.2-0.8-0.8-0.8c-9.8,0-19.7,0-29.5,0
	c-0.7,0-0.8-0.2-0.8-0.8c0-2.7,0-5.3,0-7.9c0.1-0.5-0.2-0.9-0.7-1.1c-5.1-2.6-10.3-4.7-15.8-6.3c-10.5-3.3-21.3-5.2-32.3-5.7
	c-6.2-0.3-12.4,0-18.5,0.8c-5.7,0.8-11.2,1.9-16.7,3.5c-6.8,1.9-13.4,4.4-19.8,7.5c-0.5,0.2-0.8,0.6-0.7,1.1c0,2.7,0,5.4,0,8.1
	c0,0.6-0.2,0.7-0.7,0.7h-29c-0.6,0-0.7,0.1-0.7,0.7c0,2.7,0,5.4,0,8.1c0,0.4,0,0.6-0.5,0.6c-1.1,0-2.1,0-3.2,0H11.5h-0.1
	c-0.5-0.1-0.7,0.1-0.7,0.6c0,2.5,0,5,0,7.5c0,4.2-0.1,8.4-0.1,12.6c0,5.9,0,11.8,0,17.8c0,0.6,0.1,0.8,0.7,0.8c10.4,0,20.8,0,31.2,0
	c8.8,0,17.7,0,26.5,0s17.9,0,26.8,0h53c8.8,0,17.6,0,26.3,0C185.9,161.2,196.5,161.1,207.2,161.1L207.2,161.1z"/>
<path class="st1" d="M207.2,161.1c-10.7,0-21.3,0-32,0c-8.8,0-17.6,0-26.3,0h-53c-8.9,0-17.9,0-26.8,0s-17.7,0-26.5,0
	c-10.4,0-20.8,0-31.2,0c-0.6,0-0.7-0.2-0.7-0.8c0-5.9,0-11.8,0-17.8c0-4.2,0-8.4,0.1-12.6c0-2.5,0-5,0-7.5c0-0.5,0.2-0.7,0.7-0.6
	h0.1h27.2c1.1,0,2.1,0,3.2,0c0.5,0,0.5-0.2,0.5-0.6c0-2.7,0-5.4,0-8.1c0-0.6,0.1-0.7,0.7-0.7h29c0.5,0,0.7-0.1,0.7-0.7
	c0-2.7,0-5.4,0-8.1c-0.1-0.5,0.2-1,0.7-1.1c6.4-3.1,13-5.6,19.8-7.5c5.5-1.6,11.1-2.7,16.7-3.5c6.1-0.8,12.3-1.1,18.5-0.8
	c11,0.5,21.8,2.4,32.3,5.7c5.4,1.7,10.7,3.8,15.8,6.3c0.4,0.2,0.7,0.6,0.7,1.1c0,2.7,0,5.3,0,7.9c0,0.6,0.1,0.8,0.8,0.8
	c9.8,0,19.7,0,29.5,0c0.7,0,0.9,0.2,0.8,0.8c0,2.4,0,4.8,0,7.2c0,0.5,0.2,0.7,0.7,0.7h23.1c2.5,0,4.9,0,7.3,0c0.5,0,0.6,0.1,0.6,0.6
	c0,11.7,0,23.3,0,35c0,1.3,0,2.6,0,3.8c0,0.5-0.2,0.6-0.7,0.6h-32.3V161.1z M125.2,159H237c0.6,0,0.8-0.1,0.8-0.7
	c0-11.3,0-22.6,0-33.9c0-0.6-0.1-0.8-0.8-0.8c-10.1,0-20.2,0-30.4,0c-0.6,0-0.7-0.2-0.7-0.7c0-2.4,0-4.8,0-7.2
	c0-0.6-0.1-0.8-0.8-0.8h-29.4c-0.6,0-0.7-0.2-0.7-0.8c0-3,0-6,0-9c0.1-0.4-0.2-0.8-0.5-0.9c-5.2-2.5-10.6-4.6-16.1-6.4
	c-11.9-4-24.5-5.8-37-5.3c-8.8,0.4-17.5,1.9-26,4.3c-6.7,1.9-13.2,4.3-19.6,7.1c-0.5,0.2-0.8,0.6-0.7,1.1c0,3.1,0,6.1,0,9.2
	c0,0.9,0.1,0.8-0.8,0.8c-9.6,0-19.2,0-28.9,0c-0.7,0-0.8,0.2-0.8,0.8c0,2.4,0,4.7,0,7.1c0,0.6-0.2,0.8-0.8,0.8
	c-10.1,0-20.1,0-30.2,0c-1,0-0.8-0.1-0.8,0.8c0,11.3,0,22.6,0,33.9c0,0.6,0.2,0.7,0.8,0.7L125.2,159z"/>
<path class="st2" d="M125.2,159H13.6c-0.6,0-0.8-0.1-0.8-0.7c0-11.3,0-22.6,0-33.9c0-0.9-0.1-0.8,0.8-0.8c10.1,0,20.1,0,30.2,0
	c0.6,0,0.8-0.1,0.8-0.8c0-2.4,0-4.7,0-7.1c0-0.6,0.1-0.8,0.8-0.8c9.6,0,19.2,0,28.9,0c1,0,0.8,0.1,0.8-0.8c0-3.1,0-6.1,0-9.2
	c-0.1-0.5,0.2-1,0.7-1.1c6.3-2.8,12.9-5.1,19.6-7c8.5-2.4,17.2-3.8,26-4.2c12.6-0.4,25.1,1.4,37,5.3c5.5,1.8,10.9,4,16.1,6.4
	c0.4,0.1,0.6,0.5,0.5,0.9c0,3,0,6,0,9c0,0.6,0.1,0.8,0.7,0.8h29.4c0.6,0,0.8,0.2,0.8,0.8c0,2.4,0,4.8,0,7.2c0,0.5,0.1,0.7,0.7,0.7
	c10.1,0,20.2,0,30.4,0c0.7,0,0.8,0.2,0.8,0.8c0,11.3,0,22.6,0,33.9c0,0.6-0.2,0.7-0.8,0.7L125.2,159z M125.2,156.8h109.5
	c0.5,0,0.7-0.1,0.7-0.7c0-9.9,0-19.8,0-29.6c0-0.6-0.2-0.7-0.7-0.7h-30.8c-0.6,0-0.7-0.1-0.7-0.7c0-2.3,0-4.5,0-6.8
	c0-0.6-0.1-0.7-0.7-0.7h-29.1c-0.5,0-0.7-0.1-0.7-0.7c0-3.4,0-6.7,0-10.1c0.1-0.4-0.2-0.8-0.6-1c-3.3-1.5-6.7-2.9-10.1-4.2
	c-10.4-4-21.4-6.3-32.5-6.9c-8.2-0.3-16.5,0.4-24.5,2.1c-9.2,1.9-18.1,4.8-26.7,8.5c-0.4,0.1-0.6,0.5-0.5,0.8c0,3.5,0,6.9,0,10.4
	c0,0.7-0.2,0.8-0.8,0.8c-9.8,0-19.6,0-29.4,0c-0.6,0-0.7,0.2-0.7,0.7c0,2.5,0,5,0,7.5c0,0.6-0.2,0.7-0.8,0.7H15.8
	c-0.6,0-0.8,0.1-0.8,0.8c0,9.7,0,19.3,0,29c0,1-0.1,0.8,0.8,0.8L125.2,156.8z"/>
<path class="st1" d="M125.2,156.8H15.9c-0.9,0-0.8,0.1-0.8-0.8c0-9.7,0-19.3,0-29c0-0.6,0.2-0.8,0.8-0.8h30.3c0.6,0,0.8-0.1,0.8-0.7
	c0-2.5,0-5,0-7.5c0-0.5,0.1-0.7,0.7-0.7c9.8,0,19.6,0,29.4,0c0.7,0,0.9-0.1,0.8-0.8c0-3.5,0-6.9,0-10.4c-0.1-0.4,0.2-0.7,0.5-0.8
	c8.6-3.7,17.5-6.6,26.6-8.5c8.1-1.7,16.4-2.3,24.6-2c11.1,0.6,22.1,2.9,32.5,6.9c3.4,1.3,6.7,2.7,10.1,4.2c0.4,0.1,0.7,0.5,0.6,1
	c0,3.4,0,6.7,0,10.1c0,0.5,0.1,0.7,0.7,0.7h29.1c0.6,0,0.7,0.2,0.7,0.7c0,2.3,0,4.5,0,6.8c0,0.6,0.1,0.7,0.7,0.7h30.8
	c0.6,0,0.7,0.1,0.7,0.7c0,9.9,0,19.8,0,29.6c0,0.6-0.1,0.7-0.7,0.7L125.2,156.8z M104.3,115.9c-0.3,1.7-0.9,3.3-1.8,4.8
	c-0.4,0.8-0.9,1.5-1.6,2c-1.6,1.4-2.9,3.2-3.7,5.1c0.7-0.6,1.2-1.3,1.6-2.1c0.3-0.9,0.9-1.7,1.8-2.1c-0.1,1.3-0.6,2.6-1.3,3.7
	c0.9-0.5,1.5-1.4,1.6-2.5c0-0.5,0.2-0.9,0.5-1.3c0.6-0.7,1.1-1.5,1.7-2.2c1.2-1.4,2.3-3,3.1-4.7c0.6,0.8,1.2,1.6,2,2.2
	c2.3,1.9,4.9,3.3,7.7,4.1c5.3,1.7,10.8,2.4,16.4,2.1c4.5-0.1,8.9-1,13.2-2.5c3-1,5.7-2.7,7.8-5c1.1-1.2,1.7-2.7,1.8-4.3
	c0-2.1-0.9-4.2-2.6-5.5c-2.4-2.2-5.2-3.7-8.3-4.6c-5.6-1.8-11.5-2.4-17.3-2c-5.6,0.2-11.1,1.7-16,4.3c0.1-0.5,0.3-1,0.4-1.6
	c0.4-1.7-0.1-3.4-1.2-4.7c0-0.3-0.3-0.5-0.5-0.6c-0.6-0.6-1.6-0.7-2.2-0.1c-0.2,0.2-0.4,0.5-0.5,0.7c-0.2,0.6-0.3,1.2-0.3,1.8
	c0,1.5,0,3-0.1,4.5c0,0.4-0.2,0.5-0.5,0.5c-1.3,0.2-2.7,0.3-3.9,0.6c-1,0-2,0.3-2.9,0.8c-0.9,0.8-1.6,1.9-2.1,3
	c-0.5,0.7-0.3,1.7,0.4,2.2c0.1,0.1,0.2,0.1,0.2,0.1c0.5,0.3,1,0.6,1.4,0.9c-1.8,1.1-3.5,2.3-5,3.7c-0.4,0.3-0.7,0.7-1,1.2
	c-0.4,0.6-0.1,1.5,0.5,1.8c0.1,0,0.1,0.1,0.2,0.1c0.8,0.4,1.8,0.5,2.7,0.4c2.3-0.2,4.4-1.1,6-2.8
	C103.1,117.4,103.7,116.6,104.3,115.9z M151.5,138.8c0.1,0.2,0.2,0.2,0.2,0.3c0.3,2.2,0.6,4.5,0.9,6.7c0.3,2.1,0.6,4.2,0.8,6.2
	c0,0.4,0.2,0.6,0.6,0.6c0.9,0,1.9,0,2.8,0c0.4,0,0.6-0.1,0.7-0.5c0.5-3.7,1-7.3,1.5-11c0-0.7,0.2-1.5,0.5-2.1
	c0.1,1.4,0.1,2.9,0.1,4.3c0,2.9,0.1,5.9,0.2,8.8c0,0.3,0,0.5,0.4,0.5c1.3,0,2.7,0,4,0c0.3,0,0.4,0,0.4-0.4c-0.1-1.2-0.1-2.4-0.2-3.6
	c-0.2-3.2-0.4-6.3-0.6-9.5c-0.2-2.5-0.3-5-0.5-7.5c0-0.3-0.1-0.4-0.4-0.4c-1.8,0-3.6,0-5.3,0c-0.3,0-0.4,0-0.5,0.3
	c-0.2,1.8-0.5,3.5-0.8,5.3l-0.7,4.9c-0.2-0.7-0.4-1.5-0.5-2.3c-0.4-2.7-0.8-5.3-1.1-7.9c0-0.2,0-0.4-0.4-0.4c-1.8,0-3.7,0-5.5,0
	c-0.3,0-0.4,0.1-0.4,0.4c-0.1,1.2-0.2,2.4-0.2,3.6c-0.2,3.2-0.4,6.4-0.6,9.6c-0.1,2.5-0.3,4.9-0.5,7.4c0,0.4,0.1,0.5,0.5,0.5
	c1.2,0,2.4,0,3.6,0c0.4,0,0.6-0.1,0.6-0.6c0-2.1,0.1-4.2,0.2-6.4C151.5,143.6,151.4,141.2,151.5,138.8L151.5,138.8z M28.8,141.8
	c-0.1-0.1-0.2-0.3-0.2-0.4c-0.8-3.2-1.7-6.4-2.4-9.7c-0.1-0.4-0.3-0.5-0.7-0.5c-1.4,0-2.8,0-4.2,0c-0.4,0-0.5,0-0.5,0.5
	c0,6.8,0,13.7,0,20.5c0,0.4,0.1,0.5,0.5,0.5c1.3,0,2.5,0,3.8,0c0.5,0,0.6-0.2,0.6-0.6c0-2.9,0-5.9,0-8.8c0-0.2-0.1-0.4,0.1-0.7
	c0.8,3.1,1.7,6.3,2.5,9.3c0.1,0.5,0.3,0.8,0.9,0.7c1.3,0,2.6,0,3.9,0c0.4,0,0.5-0.1,0.5-0.5c0-6.8,0-13.7,0-20.5
	c0-0.5-0.2-0.5-0.6-0.5c-1.2,0-2.4,0-3.6,0c-0.5,0-0.6,0.1-0.6,0.6C28.8,135.1,28.8,138.4,28.8,141.8L28.8,141.8z M76.2,141.9
	c0,3.4,0,6.7,0,10.1c0,0.5,0.2,0.7,0.7,0.7c1.3,0,2.7,0,4,0c0.4,0,0.5-0.1,0.5-0.5c0-2.1,0-4.2,0-6.3c0-1.5,0-1.5,1.6-1.5
	c0.5,0,0.6,0.1,0.6,0.6c0,2.4,0,4.8,0,7.2c0,0.4,0.1,0.6,0.5,0.6c1.4,0,2.8,0,4.2,0c0.4,0,0.5-0.1,0.5-0.5c0-6.8,0-13.6,0-20.5
	c0-0.4-0.1-0.5-0.5-0.5c-1.4,0-2.8,0-4.2,0c-0.5,0-0.5,0.1-0.5,0.6c0,1.9,0,3.7,0,5.6c0,1.6,0,1.5-1.5,1.6c-0.5,0-0.7-0.1-0.7-0.6
	c0-2.1,0-4.3,0-6.4c0-0.5-0.1-0.7-0.7-0.6c-1.3,0-2.6,0-3.8,0c-0.6,0-0.8,0.1-0.8,0.8C76.2,135.2,76.2,138.5,76.2,141.9L76.2,141.9z
	 M63.6,152.5c-0.1-0.3-0.2-0.6-0.3-0.8c-1-2.7-2.1-5.3-3.1-8c-0.2-0.5-0.2-0.7,0.3-1c1.2-0.7,2.1-1.9,2.4-3.3
	c0.2-1.1,0.3-2.2,0.1-3.3c-0.4-2.9-2.8-5.1-5.8-5.1c-2.1,0-4.1,0-6.2,0c-0.4,0-0.5,0.1-0.5,0.5c0,6.8,0,13.7,0,20.5
	c0,0.5,0.2,0.5,0.6,0.5c1.3,0,2.7,0,4,0c0.5,0,0.7-0.1,0.7-0.6c0-2.1,0-4.2,0-6.4c0-0.2-0.1-0.4,0.1-0.7c0.1,0.2,0.1,0.3,0.2,0.5
	l1.9,6.6c0.1,0.3,0.1,0.6,0.5,0.6C60.1,152.6,61.8,152.6,63.6,152.5L63.6,152.5z M184.7,144.9L184.7,144.9c0.1,0.2,0.2,0.3,0.3,0.5
	c0.6,2.2,1.2,4.4,1.8,6.5c0.1,0.5,0.3,0.7,0.8,0.7c1.4,0,2.9,0,4.3,0c0.6,0,0.6-0.1,0.4-0.6c-1.1-2.8-2.2-5.6-3.3-8.4
	c-0.1-0.4-0.1-0.5,0.3-0.7c1.2-0.7,2.1-1.9,2.5-3.3c0.2-0.8,0.2-1.7,0.2-2.6c0-3.2-2.6-5.8-5.9-5.9c-2.1,0-4.1,0-6.2,0
	c-0.4,0-0.5,0.1-0.5,0.5c0,6.8,0,13.7,0,20.5c0,0.4,0.1,0.5,0.5,0.5c1.3,0,2.7,0,4,0c0.6,0,0.8-0.1,0.8-0.8
	C184.7,149.6,184.7,147.2,184.7,144.9L184.7,144.9z M49,141.9c0-0.5,0-0.9,0-1.3c-0.1-2.1-0.5-4.1-1.3-6c-1.2-3.1-4.7-4.6-7.9-3.4
	c-0.2,0.1-0.5,0.2-0.7,0.3c-1.5,0.9-2.6,2.3-3.1,4c-1.2,3.7-1.3,7.6-0.4,11.4c0.3,1.8,1.2,3.5,2.6,4.8c2.6,2.1,6.4,1.7,8.6-0.9
	c0.4-0.5,0.7-1,0.9-1.6C48.6,146.9,49.1,144.4,49,141.9z M198.9,139.6c0-0.4,0-0.7,0-0.9c0-2.3,0-4.7,0-7c0-0.4,0-0.6-0.5-0.6
	c-1.4,0-2.9,0-4.3,0c-0.3,0-0.4,0.1-0.4,0.4c0,6.9,0,13.7,0,20.6c0,0.4,0.2,0.5,0.5,0.5c1.3,0,2.7,0,4,0c0.6,0,0.7-0.2,0.7-0.7
	c0-1.7,0-3.4,0-5.1c0-1.1,0-2.2,0-3.5c0.1,0.2,0.2,0.3,0.2,0.5c0.7,2.7,1.5,5.5,2.2,8.2c0.1,0.4,0.3,0.6,0.7,0.6c1.5,0,2.9,0,4.3,0
	c0.8,0,0.8,0,0.5-0.7c-1.2-3.4-2.3-6.8-3.5-10.2c-0.2-0.4-0.2-0.9,0-1.3c1.1-2.7,2.1-5.5,3.2-8.2c0.2-0.3,0.3-0.7,0.3-1
	c-1.7,0-3.3,0-5,0c-0.4,0-0.4,0.3-0.5,0.5c-0.7,2.3-1.4,4.6-2.2,6.8C199.3,138.9,199.2,139.3,198.9,139.6L198.9,139.6z M100.5,140.1
	c-0.9,0-1.9,0-2.9,0c-0.4,0-0.5,0.1-0.5,0.5c0,1,0,1.9,0,2.9c0,1,0,1,1,1c0.2,0,0.5-0.1,0.5,0.3c0,0.7-0.1,1.5-0.4,2.1
	c-0.3,0.5-1,0.7-1.5,0.4c-0.2-0.1-0.3-0.2-0.4-0.4c-0.2-0.3-0.4-0.7-0.4-1.1c-0.3-2.4-0.4-4.8-0.2-7.3c0-0.8,0.2-1.5,0.5-2.2
	c0.3-0.6,1-0.9,1.6-0.6c0.2,0.1,0.4,0.3,0.6,0.5c0.2,0.3,0.4,0.6,0.5,1c0.1,0.5,0.4,0.5,0.8,0.3c0.8-0.4,1.7-0.7,2.5-1
	c1.5-0.6,1.5-0.6,0.9-2.1c-0.7-2-2.5-3.4-4.6-3.7c-2.4-0.5-4.8,0.6-6.2,2.6c-0.6,1-1.1,2-1.3,3.1c-0.7,2.7-0.8,5.5-0.5,8.3
	c0.2,1.9,0.7,3.7,1.7,5.3c1.4,2.3,4.1,3.4,6.7,2.7c2-0.4,3.6-1.9,4.1-3.9c0.9-2.8,1.2-5.7,1-8.7c0-0.3-0.2-0.3-0.4-0.3L100.5,140.1z
	 M171.7,131.1c-0.8,0-1.7,0-2.5,0c-0.3,0-0.5,0-0.5,0.4c-0.1,0.6-0.2,1.2-0.3,1.8c-1.2,6.3-2.4,12.6-3.6,18.8
	c-0.1,0.5,0,0.5,0.4,0.5c1.3,0,2.8,0,4.2,0c0.3,0,0.5-0.1,0.5-0.5c0.1-0.7,0.2-1.5,0.3-2.3c0-0.3,0.1-0.5,0.5-0.5c0.8,0,1.5,0,2.3,0
	c0.3,0,0.4,0.1,0.4,0.4c0,0.8,0.2,1.5,0.3,2.3c0,0.4,0.2,0.5,0.6,0.5c1.3,0,2.8,0,4.2,0c0.4,0,0.5,0,0.4-0.5c-0.5-2.6-1-5.2-1.5-7.8
	c-0.8-4.3-1.6-8.6-2.4-12.9c0-0.3-0.2-0.4-0.5-0.4C173.4,131.1,172.6,131.1,171.7,131.1L171.7,131.1z M115.4,152.6
	c0.7,0,1.3,0,1.9,0s0.7-0.2,0.6-0.7c-1.3-6.8-2.6-13.5-3.9-20.3c-0.1-0.5-0.3-0.5-0.7-0.5c-1.6,0-3.2,0-4.7,0
	c-0.5,0-0.6,0.2-0.7,0.6c-1.3,6.8-2.6,13.6-3.8,20.4c-0.1,0.4,0,0.5,0.4,0.5c1.4,0,2.8,0,4.2,0c0.4,0,0.5-0.1,0.5-0.5
	c0.1-0.8,0.2-1.5,0.3-2.3c0-0.3,0.1-0.4,0.4-0.4c0.7,0,1.5,0,2.2,0c0.4,0,0.5,0.2,0.5,0.5c0.1,0.7,0.2,1.5,0.3,2.3
	c0,0.4,0.2,0.4,0.5,0.4L115.4,152.6z M129.5,141.9c0,3.4,0,6.8,0,10.2c0,0.3,0,0.6,0.5,0.6c2.8,0,5.6,0,8.4,0c0.3,0,0.4-0.1,0.4-0.5
	c0-1.6,0-3.1,0-4.7c0-0.4-0.1-0.5-0.5-0.5c-1,0-2,0-3.1,0c-0.3,0-0.5-0.1-0.5-0.4c0-0.7,0-1.3,0-2c0-0.4,0.1-0.5,0.5-0.5
	c0.9,0,1.8,0,2.7,0c0.3,0,0.5,0,0.5-0.4c0-1.4,0-2.8,0-4.2c0-0.4-0.1-0.5-0.5-0.5c-0.9,0-1.7,0-2.6,0c-0.4,0-0.5-0.1-0.5-0.5
	c0-0.6,0-1.1,0-1.7c0-0.5,0.2-0.5,0.6-0.5c1,0,1.9,0,2.9,0c0.4,0,0.5-0.1,0.5-0.5c0-1.3,0-2.8,0-4.2c0-0.4-0.1-0.6-0.6-0.6
	c-2.7,0-5.4,0-8.1,0c-0.5,0-0.6,0.1-0.6,0.6C129.5,135.1,129.5,138.5,129.5,141.9L129.5,141.9z M208,141.9c0,3.4,0,6.8,0,10.3
	c0,0.3,0,0.5,0.5,0.5c2.8,0,5.5,0,8.3,0c0.4,0,0.5-0.1,0.5-0.5c0-1.5,0-3.1,0-4.6c0-0.4-0.1-0.5-0.5-0.5c-1,0-2,0-3.1,0
	c-0.3,0-0.5-0.1-0.5-0.4c0-0.7,0-1.3,0-2c0-0.4,0.1-0.5,0.5-0.5c0.9,0,1.8,0,2.7,0c0.4,0,0.5-0.1,0.5-0.5c0-1.4,0-2.8,0-4.2
	c0-0.4-0.1-0.5-0.5-0.5c-0.9,0-1.8,0-2.7,0c-0.3,0-0.4-0.1-0.4-0.4c0-0.6,0-1.2,0-1.7c0-0.6,0.1-0.6,0.5-0.6c1,0,1.9,0,2.9,0
	c0.4,0,0.6-0.1,0.5-0.5c0-1.4,0-2.8,0-4.2c0-0.5-0.1-0.6-0.6-0.6c-2.7,0-5.4,0-8.1,0c-0.5,0-0.6,0.1-0.6,0.6
	C208,135.1,208,138.4,208,141.9L208,141.9z M120.1,144.7c0,2.5,0,4.9,0,7.4c0,0.5,0.1,0.6,0.6,0.6c1.3,0,2.7,0,4,0
	c0.5,0,0.7-0.1,0.7-0.6c0-2.2,0-4.4,0-6.6c0-2.7,0-5.5,0-8.3c0-0.5,0.1-0.6,0.6-0.6c0.5,0,1.3,0,2,0c0.4,0,0.5-0.1,0.5-0.5
	c0-1.5,0-3,0-4.5c0-0.3,0-0.5-0.4-0.5c-3.6,0-7.1,0-10.6,0c-0.3,0-0.4,0.1-0.4,0.4c0,1.5,0,3.1,0,4.6c0,0.4,0.1,0.4,0.5,0.4
	c0.7,0,1.4,0,2.1,0c0.4,0,0.5,0.1,0.5,0.5C120.1,139.6,120.1,142.1,120.1,144.7L120.1,144.7z M66.7,144.7c0,2.5,0,4.9,0,7.4
	c0,0.5,0.1,0.6,0.6,0.6c1.3,0,2.6,0,3.9,0c0.6,0,0.8-0.1,0.7-0.7c0-4.9,0-9.8,0-14.8c0-0.5,0.1-0.6,0.6-0.6c0.7,0,1.3,0,2.1,0
	c0.3,0,0.5,0,0.5-0.5c0-1.5,0-3,0-4.5c0-0.4-0.1-0.5-0.5-0.5H64.1c-0.3,0-0.5,0-0.5,0.4c0,1.5,0,3.1,0,4.6c0,0.3,0.1,0.5,0.4,0.4
	c0.7,0,1.3,0,1.9,0s0.7,0.1,0.7,0.7C66.7,139.7,66.8,142.1,66.7,144.7L66.7,144.7z M221.1,144.7c0,2.4,0,4.9,0,7.3
	c0,0.7,0.2,0.8,0.8,0.8c1.3,0,2.5,0,3.8,0c0.6,0,0.7-0.1,0.7-0.7c0-4.9,0-9.8,0-14.7c0-0.6,0.2-0.7,0.7-0.7c0.5,0,1.3,0,2.1,0
	c0.3,0,0.4-0.1,0.4-0.4c0-1.6,0-3.2,0-4.7c0-0.3-0.1-0.4-0.4-0.4h-10.7c-0.3,0-0.4,0.1-0.4,0.4c0,1.6,0,3.1,0,4.7
	c0,0.3,0.1,0.4,0.4,0.4c0.7,0,1.3,0,2.1,0c0.5,0,0.6,0.1,0.6,0.6C221.1,139.6,221.1,142.1,221.1,144.7L221.1,144.7z"/>
<path class="st0" d="M151.5,138.8c0,2.4-0.1,4.7-0.2,6.9c-0.1,2.2-0.1,4.2-0.2,6.4c0,0.5-0.2,0.6-0.6,0.6c-1.2,0-2.4,0-3.6,0
	c-0.4,0-0.5-0.1-0.5-0.5c0.2-2.5,0.3-4.9,0.5-7.4c0.2-3.2,0.4-6.4,0.6-9.6c0.1-1.2,0.2-2.4,0.2-3.6c0-0.3,0.1-0.4,0.4-0.4
	c1.8,0,3.7,0,5.5,0c0.4,0,0.3,0.2,0.4,0.4c0.4,2.7,0.8,5.3,1.1,7.9c0.1,0.8,0.2,1.5,0.5,2.3l0.7-4.9c0.3-1.8,0.5-3.5,0.8-5.3
	c0-0.3,0.2-0.3,0.5-0.3c1.8,0,3.6,0,5.3,0c0.3,0,0.4,0.1,0.4,0.4c0.1,2.5,0.3,5,0.5,7.5c0.2,3.2,0.4,6.3,0.6,9.5
	c0.1,1.2,0.1,2.4,0.2,3.6c0,0.3-0.1,0.4-0.4,0.4c-1.3,0-2.7,0-4,0c-0.4,0-0.4-0.2-0.4-0.5c0-2.9-0.1-5.9-0.2-8.8
	c0-1.4,0-2.9-0.1-4.3c-0.3,0.7-0.4,1.4-0.5,2.1c-0.5,3.7-1,7.3-1.5,11c0,0.4-0.2,0.6-0.7,0.5c-0.9,0-1.9,0-2.8,0
	c-0.5,0-0.6-0.2-0.6-0.6c-0.3-2.1-0.5-4.2-0.8-6.2c-0.3-2.2-0.6-4.5-0.9-6.7C151.1,135.7,151.7,139,151.5,138.8z"/>
<path class="st0" d="M28.8,141.8c0-3.4,0-6.7,0-10c0-0.5,0.1-0.7,0.6-0.6c1.2,0,2.4,0,3.6,0c0.4,0,0.6,0.1,0.6,0.5
	c0,6.8,0,13.7,0,20.5c0,0.4-0.1,0.5-0.5,0.5c-1.3,0-2.7,0-3.9,0c-0.6,0-0.8-0.2-0.9-0.7c-0.8-3.1-1.7-6.2-2.5-9.3
	c-0.2,0.2-0.1,0.4-0.1,0.7c0,2.9,0,5.9,0,8.8c0,0.5-0.1,0.7-0.6,0.6c-1.3,0-2.5,0-3.8,0c-0.4,0-0.5-0.1-0.5-0.5c0-6.8,0-13.7,0-20.5
	c0-0.4,0.1-0.5,0.5-0.5c1.4,0,2.8,0,4.2,0c0.4,0,0.6,0.1,0.7,0.5c0.8,3.2,1.6,6.4,2.4,9.7C28.6,141.5,28.7,141.6,28.8,141.8z"/>
<path class="st0" d="M76.2,141.9c0-3.3,0-6.7,0-10c0-0.7,0.2-0.8,0.8-0.8c1.3,0,2.6,0,3.8,0c0.5,0,0.7,0.1,0.7,0.6
	c0,2.1,0,4.3,0,6.4c0,0.5,0.1,0.6,0.7,0.6c1.5,0,1.5,0,1.5-1.6c0-1.9,0-3.7,0-5.6c0-0.4,0.1-0.6,0.5-0.6c1.4,0,2.8,0,4.2,0
	c0.4,0,0.5,0.1,0.5,0.5c0,6.8,0,13.6,0,20.5c0,0.4-0.1,0.5-0.5,0.5c-1.4,0-2.8,0-4.2,0c-0.5,0-0.5-0.2-0.5-0.6c0-2.4,0-4.8,0-7.2
	c0-0.5-0.1-0.6-0.6-0.6c-1.6,0-1.6,0-1.6,1.5c0,2.1,0,4.2,0,6.3c0,0.4-0.1,0.6-0.5,0.5c-1.3,0-2.7,0-4,0c-0.5,0-0.7-0.1-0.7-0.7
	C76.2,148.6,76.2,145.2,76.2,141.9z"/>
<path class="st0" d="M63.6,152.6c-1.8,0-3.5,0-5.2,0c-0.5,0-0.5-0.3-0.5-0.6l-1.9-6.6c0-0.2-0.1-0.3-0.2-0.5
	c-0.2,0.2-0.1,0.5-0.1,0.7c0,2.1,0,4.2,0,6.4c0,0.5-0.2,0.7-0.7,0.6c-1.3,0-2.7,0-4,0c-0.4,0-0.6,0-0.6-0.5c0-6.8,0-13.7,0-20.5
	c0-0.4,0.1-0.5,0.5-0.5c2.1,0,4.1,0,6.2,0c2.9,0,5.4,2.2,5.8,5.1c0.2,1.1,0.2,2.2-0.1,3.3c-0.3,1.4-1.1,2.6-2.4,3.3
	c-0.5,0.3-0.5,0.5-0.3,1c1.1,2.7,2.1,5.3,3.1,8C63.4,152,63.5,152.3,63.6,152.6z M55.7,138.1c0,0.5,0,1.1,0,1.6
	c0,0.3-0.2,0.7,0.1,0.8c0.4,0.1,0.8,0,1.1-0.3c0.2-0.2,0.4-0.4,0.5-0.7c0.4-1,0.4-2.1,0-3c-0.2-0.5-0.6-0.9-1.1-0.9
	c-0.4,0-0.6,0-0.6,0.5S55.7,137.5,55.7,138.1z"/>
<path class="st0" d="M184.7,144.9c0,2.3,0,4.6,0,6.9c0,0.6-0.2,0.8-0.8,0.8c-1.3,0-2.7,0-4,0c-0.4,0-0.5-0.1-0.5-0.5
	c0-6.8,0-13.7,0-20.5c0-0.4,0.1-0.5,0.5-0.5c2.1,0,4.1,0,6.2,0c3.2,0.1,5.8,2.7,5.9,5.9c0.1,0.9,0,1.7-0.2,2.6
	c-0.3,1.4-1.2,2.6-2.5,3.3c-0.4,0.2-0.4,0.4-0.3,0.7c1.1,2.8,2.2,5.6,3.3,8.4c0.2,0.5,0.1,0.6-0.4,0.6c-1.4,0-2.9,0-4.3,0
	c-0.5,0-0.7-0.2-0.8-0.7c-0.6-2.2-1.2-4.4-1.8-6.5C184.9,145.3,184.8,145.1,184.7,144.9L184.7,144.9z M186.7,138.1
	c0-0.2,0-0.5,0-0.7c0-0.8-0.6-1.5-1.3-1.7c-0.4-0.1-0.7,0-0.6,0.5c0,1.2,0,2.5,0,3.7c0,0.9,0.2,1,1,0.6c0.3-0.1,0.5-0.4,0.6-0.6
	C186.6,139.3,186.8,138.7,186.7,138.1L186.7,138.1z"/>
<path class="st0" d="M49,141.9c0.1,2.5-0.3,5-1.3,7.3c-1.3,3.1-4.8,4.6-7.9,3.3c-0.6-0.2-1.1-0.6-1.6-1c-1.3-1.3-2.2-3-2.5-4.8
	c-0.9-3.8-0.7-7.7,0.4-11.4c0.5-1.7,1.6-3.1,3.1-4c3-1.6,6.6-0.4,8.2,2.5c0.1,0.2,0.2,0.4,0.3,0.6c0.8,1.9,1.3,4,1.3,6
	C49,141,49,141.5,49,141.9z M43.6,141.7c0-0.9,0-1.8,0-2.7c0-0.7-0.1-1.5-0.4-2.2c-0.2-0.6-0.7-0.9-1.2-1c-0.6,0-1,0.4-1.2,0.9
	c-0.1,0.4-0.2,0.7-0.3,1.1c-0.3,2.2-0.3,4.4-0.1,6.7c0,0.8,0.2,1.5,0.5,2.2c0.3,0.6,1,0.8,1.6,0.6c0.2-0.1,0.4-0.3,0.6-0.6
	c0.1-0.3,0.2-0.5,0.3-0.8C43.7,144.6,43.7,143.2,43.6,141.7z"/>
<path class="st0" d="M199,139.6c0.2-0.3,0.4-0.7,0.5-1.1c0.7-2.3,1.4-4.6,2.2-6.8c0.1-0.3,0.1-0.5,0.5-0.5c1.6,0,3.3,0,5,0
	c-0.1,0.4-0.2,0.7-0.3,1c-1.1,2.7-2.1,5.5-3.2,8.2c-0.2,0.4-0.2,0.9,0,1.3c1.2,3.4,2.3,6.8,3.5,10.2c0.2,0.7,0.2,0.7-0.5,0.7
	c-1.5,0-2.9,0-4.3,0c-0.5,0-0.6-0.2-0.7-0.6c-0.7-2.7-1.5-5.5-2.2-8.2c-0.1-0.2-0.1-0.3-0.2-0.5c0,1.3,0,2.4,0,3.5
	c0,1.7,0,3.4,0,5.1c0,0.5-0.1,0.7-0.7,0.7c-1.3,0-2.7,0-4,0c-0.4,0-0.5,0-0.5-0.5c0-6.9,0-13.7,0-20.6c0-0.3,0.1-0.4,0.4-0.4
	c1.4,0,2.9,0,4.3,0c0.5,0,0.5,0.2,0.5,0.6c0,2.3,0,4.7,0,7C199,139,199,139.2,199,139.6z"/>
<path class="st0" d="M100.6,140.1h2.9c0.2,0,0.4,0,0.4,0.3c0.2,2.9-0.1,5.9-1,8.7c-0.5,2-2.1,3.5-4.1,3.9c-2.6,0.7-5.3-0.4-6.7-2.7
	c-1-1.6-1.5-3.5-1.7-5.3c-0.4-2.8-0.2-5.6,0.5-8.3c0.3-1.1,0.7-2.2,1.3-3.1c1.4-2,3.8-3,6.2-2.6c2.1,0.2,3.9,1.7,4.6,3.7
	c0.7,1.5,0.7,1.5-0.9,2.1c-0.8,0.3-1.7,0.6-2.5,1c-0.4,0.2-0.7,0.2-0.8-0.3c-0.1-0.4-0.3-0.7-0.5-1c-0.4-0.6-1.1-0.8-1.7-0.4
	c-0.2,0.1-0.4,0.3-0.5,0.6c-0.3,0.7-0.5,1.4-0.5,2.2c-0.2,2.4-0.2,4.9,0.2,7.3c0.1,0.4,0.2,0.8,0.4,1.1c0.3,0.5,1,0.7,1.5,0.4
	c0.2-0.1,0.3-0.2,0.4-0.4c0.3-0.7,0.5-1.4,0.4-2.1c0-0.4-0.3-0.3-0.5-0.3c-1,0-1,0-1-1s0-1.9,0-2.9c0-0.4,0.1-0.5,0.5-0.5
	C98.7,140.1,99.7,140.1,100.6,140.1z"/>
<path class="st0" d="M171.7,131.1c0.8,0,1.7,0,2.5,0c0.3,0,0.4,0.1,0.5,0.4c0.8,4.3,1.6,8.6,2.4,12.9c0.5,2.6,1,5.2,1.5,7.8
	c0.1,0.4,0,0.5-0.4,0.5c-1.3,0-2.8,0-4.2,0c-0.4,0-0.5-0.1-0.6-0.5c0-0.8-0.2-1.5-0.3-2.3c0-0.3-0.1-0.4-0.4-0.4c-0.8,0-1.5,0-2.3,0
	c-0.3,0-0.4,0.1-0.5,0.5c0,0.8-0.2,1.5-0.3,2.3c0,0.4-0.2,0.5-0.5,0.5c-1.3,0-2.8,0-4.2,0c-0.4,0-0.5,0-0.4-0.5
	c1.2-6.3,2.4-12.6,3.6-18.8c0.1-0.6,0.3-1.2,0.3-1.8c0-0.3,0.2-0.4,0.5-0.4C170.1,131.1,170.9,131.1,171.7,131.1z M171.8,138
	c-0.1,0.2-0.2,0.3-0.2,0.3c-0.2,1.8-0.5,3.6-0.7,5.3c-0.2,1.6-0.2,1.6,1.4,1.4c0.3,0,0.4-0.1,0.3-0.4
	C172.4,142.5,172.1,140.4,171.8,138z"/>
<path class="st0" d="M115.4,152.6h-2.1c-0.3,0-0.5-0.1-0.5-0.4c0-0.8-0.2-1.5-0.3-2.3c0-0.3-0.1-0.5-0.5-0.5c-0.7,0-1.5,0-2.2,0
	c-0.3,0-0.4,0.1-0.4,0.4c-0.1,0.8-0.2,1.5-0.3,2.3c0,0.3-0.2,0.5-0.5,0.5c-1.4,0-2.8,0-4.2,0c-0.4,0-0.5-0.1-0.4-0.5
	c1.3-6.8,2.6-13.6,3.8-20.4c0.1-0.4,0.2-0.7,0.7-0.6c1.6,0,3.2,0,4.7,0c0.4,0,0.6,0,0.7,0.5c1.3,6.8,2.5,13.5,3.9,20.3
	c0.1,0.5,0,0.7-0.6,0.7C116.7,152.5,116,152.6,115.4,152.6z M111,137.9h-0.1c-0.2,1.9-0.5,3.8-0.7,5.7c-0.2,1.4-0.2,1.3,1.2,1.4
	c0.5,0,0.7-0.2,0.6-0.7c-0.2-1.3-0.4-2.7-0.5-4.1C111.3,139.5,111.1,138.7,111,137.9z"/>
<path class="st0" d="M110.7,105.4c4.9-2.6,10.4-4.1,16-4.3c5.9-0.4,11.7,0.2,17.3,2c3.1,0.9,5.9,2.5,8.3,4.6
	c1.6,1.4,2.6,3.4,2.6,5.5c-0.1,1.6-0.7,3.2-1.8,4.3c-2.1,2.3-4.8,4-7.8,5c-4.2,1.5-8.7,2.4-13.2,2.5c-5.5,0.3-11.1-0.4-16.4-2.1
	c-2.8-0.9-5.4-2.3-7.7-4.1c-0.7-0.7-1.4-1.4-2-2.2c0.3-1.4,0.4-2.9,0.4-4.3l1.1-1.6c0.1,0.2,0,0.4-0.1,0.5c-0.8,1.9-0.4,4,1,5.5
	c0.8,0.9,1.7,1.7,2.8,2.3c3.2,1.9,6.7,3.1,10.3,3.6c4.1,0.7,8.3,0.9,12.4,0.5c3.8-0.2,7.6-1,11.1-2.4c2.3-0.8,4.4-2.1,6.1-3.8
	c2.2-2.1,2.3-5.6,0.2-7.8c0,0,0,0-0.1-0.1c-1.1-1.2-2.4-2.2-3.9-2.9c-3.6-1.8-7.6-2.9-11.6-3.2c-5.3-0.6-10.6-0.4-15.8,0.7
	c-4.3,0.9-8.3,2.2-11.4,5.6C109.2,108,110,106.8,110.7,105.4z"/>
<path class="st0" d="M129.5,141.9c0-3.4,0-6.8,0-10.1c0-0.5,0.1-0.6,0.6-0.6c2.7,0,5.4,0,8.1,0c0.5,0,0.6,0.1,0.6,0.6
	c0,1.3,0,2.8,0,4.2c0,0.4-0.1,0.5-0.5,0.5c-1,0-1.9,0-2.9,0c-0.4,0-0.6,0.1-0.6,0.5c0,0.6,0,1.1,0,1.7c0,0.4,0.1,0.5,0.5,0.5
	c0.9,0,1.7,0,2.6,0c0.3,0,0.5,0,0.5,0.5c0,1.4,0,2.8,0,4.2c0,0.4-0.2,0.4-0.5,0.4c-0.9,0-1.8,0-2.7,0c-0.3,0-0.5,0.1-0.5,0.5
	c0,0.7,0,1.3,0,2c0,0.3,0.1,0.5,0.5,0.4c1,0,2,0,3.1,0c0.4,0,0.5,0.1,0.5,0.5c0,1.6,0,3.1,0,4.7c0,0.3-0.1,0.5-0.4,0.5
	c-2.8,0-5.6,0-8.4,0c-0.5,0-0.5-0.2-0.5-0.6C129.5,148.7,129.5,145.3,129.5,141.9z"/>
<path class="st0" d="M208,141.8c0-3.4,0-6.8,0-10.1c0-0.5,0.1-0.6,0.6-0.6c2.7,0,5.4,0,8.1,0c0.5,0,0.6,0.1,0.6,0.6
	c0,1.4,0,2.8,0,4.2c0,0.4-0.1,0.5-0.5,0.5c-1,0-1.9,0-2.9,0c-0.4,0-0.6,0.1-0.5,0.6c0,0.4,0,1.2,0,1.7c0,0.3,0.1,0.4,0.4,0.4
	c0.9,0,1.8,0,2.7,0c0.4,0,0.5,0.1,0.5,0.5c0,1.4,0,2.8,0,4.2c0,0.4-0.1,0.5-0.5,0.5c-0.9,0-1.8,0-2.7,0c-0.3,0-0.5,0-0.5,0.5
	c0,0.7,0,1.3,0,2c0,0.3,0.1,0.5,0.5,0.4c1,0,2,0,3.1,0c0.4,0,0.5,0.1,0.5,0.5c0,1.5,0,3.1,0,4.6c0,0.4-0.1,0.5-0.5,0.5
	c-2.8,0-5.5,0-8.3,0c-0.5,0-0.5-0.2-0.5-0.5C208,148.7,208,145.2,208,141.8z"/>
<path class="st0" d="M120.1,144.6c0-2.5,0-5,0-7.5c0-0.4-0.1-0.5-0.5-0.5c-0.7,0-1.4,0-2.1,0c-0.3,0-0.5,0-0.5-0.4
	c0-1.5,0-3.1,0-4.6c0-0.3,0.1-0.4,0.4-0.4c3.6,0,7.1,0,10.6,0c0.4,0,0.4,0.1,0.4,0.5c0,1.5,0,3,0,4.5c0,0.4-0.1,0.5-0.5,0.5
	c-0.7,0-1.3,0-2,0s-0.6,0.1-0.6,0.6c0,2.7,0,5.5,0,8.3c0,2.2,0,4.4,0,6.6c0,0.5-0.2,0.6-0.7,0.6c-1.3,0-2.7,0-4,0
	c-0.4,0-0.6-0.1-0.6-0.6C120.1,149.6,120.1,147.1,120.1,144.6z"/>
<path class="st0" d="M66.8,144.6c0-2.5,0-4.9,0-7.3c0-0.6-0.2-0.7-0.7-0.7s-1.3,0-1.9,0c-0.3,0-0.4-0.1-0.4-0.4c0-1.5,0-3.1,0-4.6
	c0-0.4,0.1-0.4,0.5-0.4h10.5c0.4,0,0.5,0.1,0.5,0.5c0,1.5,0,3,0,4.5c0,0.4-0.1,0.5-0.5,0.5c-0.7,0-1.3,0-2.1,0
	c-0.5,0-0.6,0.1-0.6,0.6c0,4.9,0,9.8,0,14.8c0,0.6-0.2,0.7-0.7,0.7c-1.3,0-2.6,0-3.9,0c-0.5,0-0.6-0.1-0.6-0.6
	C66.8,149.6,66.8,147.1,66.8,144.6z"/>
<path class="st0" d="M221.1,144.6c0-2.5,0-4.9,0-7.4c0-0.5-0.1-0.6-0.6-0.6c-0.7,0-1.3,0-2.1,0c-0.3,0-0.4-0.1-0.4-0.4
	c0-1.6,0-3.1,0-4.7c0-0.3,0.1-0.4,0.4-0.4h10.7c0.3,0,0.4,0.1,0.4,0.4c0,1.6,0,3.2,0,4.7c0,0.3-0.1,0.4-0.4,0.4c-0.7,0-1.3,0-2.1,0
	s-0.7,0.1-0.7,0.7c0,4.9,0,9.8,0,14.7c0,0.6-0.1,0.7-0.7,0.7c-1.3,0-2.5,0-3.8,0c-0.6,0-0.8-0.1-0.8-0.8
	C221.2,149.4,221.1,147,221.1,144.6z"/>
<path class="st3" d="M101.8,106.6c1.3-0.3,2.6-0.4,3.9-0.6c0.4,0,0.5-0.2,0.5-0.5c0.1-1.5,0.1-3,0.1-4.5c0-0.6,0.1-1.2,0.3-1.8
	c0.2-0.8,1.1-1.3,1.9-1.1c0.3,0.1,0.5,0.2,0.7,0.5c0.2,0.2,0.5,0.3,0.5,0.6c-0.8,0-0.9,0.6-0.9,1.2c-0.1,1.6-0.4,3.1-0.9,4.6
	c-0.6,2.1-1.6,4.1-2.9,5.9c-1.4,1.6-3,2.9-4.7,4.1c-1.4,0.8-2.7,1.8-4,2.8c-1.2,1.2-1.2,1.9,0,3c-0.9,0.1-1.8,0-2.7-0.4
	c-0.7-0.3-1-1-0.8-1.7c0-0.1,0.1-0.1,0.1-0.2c0.2-0.5,0.6-0.9,1-1.2c1.6-1.3,3.3-2.6,5-3.7c1.3-0.9,2.8-1.7,4.2-2.6
	c0.5-0.3,0.6-0.6,0.3-1.1C102.8,109,102.2,107.8,101.8,106.6z"/>
<path class="st4" d="M96.3,120.8c-1.2-1.2-1.2-1.9,0-3c1.3-1,2.6-1.9,4-2.8c1.7-1.2,3.3-2.6,4.7-4.1c1.3-1.8,2.3-3.8,2.9-5.9
	c0.5-1.5,0.8-3,0.9-4.6c0-0.6,0.1-1.2,0.9-1.2c1.1,1.3,1.6,3,1.2,4.7c-0.1,0.5-0.2,1.1-0.4,1.6c-0.7,1.3-1.5,2.7-2.1,4
	c-0.4,0.4-0.7,0.8-0.9,1.3l-1.1,1.6c-0.1-0.4,0-0.7,0.3-1c0.8-1.1,1.6-2.2,2.2-3.4c0.1-0.2,0.4-0.5,0.1-0.7
	c-0.2-0.2-0.5,0.1-0.6,0.3c-0.5,0.5-1,1-1.4,1.6c-1.1,1.3-2,2.8-2.7,4.4c-0.1,0.2-0.3,0.5,0,0.6c0.3,0.1,0.2,0.3,0.2,0.6
	c0,0.2-0.1,0.8-0.2,1.1c-0.7,0.7-1.3,1.5-2,2.2C100.8,119.6,98.6,120.6,96.3,120.8z"/>
<path class="st4" d="M101.8,106.6c0.4,1.2,0.9,2.4,1.6,3.5c0.3,0.5,0.2,0.8-0.3,1.1c-1.4,0.8-2.8,1.7-4.2,2.6
	c-0.4-0.3-0.9-0.6-1.4-0.9c-0.8-0.4-1.2-1.3-0.8-2.1c0-0.1,0.1-0.2,0.1-0.2c0.4-1.2,1.1-2.2,2.1-3
	C99.8,106.9,100.8,106.6,101.8,106.6z"/>
<path class="st3" d="M104.3,115.9c0.1-0.4,0.1-0.8,0.2-1.1s0.2-0.4-0.2-0.6c-0.4-0.2,0-0.4,0-0.6c0.7-1.6,1.6-3.1,2.7-4.4
	c0.4-0.6,0.9-1.1,1.4-1.6c0.2-0.2,0.4-0.5,0.6-0.3s0,0.5-0.1,0.7c-0.7,1.2-1.5,2.3-2.2,3.4c-0.2,0.3-0.3,0.7-0.3,1
	c0,1.5-0.2,2.9-0.4,4.3c-0.8,1.7-1.9,3.2-3.1,4.7c-0.6,0.7-1.2,1.4-1.7,2.2c-0.3,0.4-0.5,0.9-0.5,1.3c-0.1,1-0.7,2-1.6,2.5
	c0.7-1.1,1.2-2.4,1.3-3.7c-0.8,0.5-1.5,1.2-1.8,2.1c-0.3,0.8-0.9,1.5-1.6,2.1c0.9-2,2.1-3.7,3.7-5.1c0.7-0.5,1.3-1.2,1.6-2
	C103.3,119.2,104,117.6,104.3,115.9z M105.5,115.6c0.2-0.7,0.2-1.3,0.2-2c-0.3,0.4-0.5,0.9-0.5,1.3c-0.5,1.8-1.2,3.6-1.9,5.3
	c0,0-0.1,0.1,0,0.2l0.1-0.1C104.5,118.9,105.3,117.3,105.5,115.6z"/>
<path class="st1" d="M55.7,138.1c0-0.7,0-1.3,0-2c0-0.7,0.2-0.5,0.6-0.5c0.5,0.1,1,0.4,1.1,0.9c0.4,1,0.4,2.1,0,3
	c-0.1,0.3-0.3,0.5-0.5,0.7c-0.3,0.3-0.7,0.4-1.1,0.3c-0.3-0.1-0.1-0.5-0.1-0.8C55.6,139.2,55.7,138.7,55.7,138.1z"/>
<path class="st1" d="M186.7,138.1c0.1,0.6,0,1.2-0.3,1.7c-0.1,0.3-0.4,0.5-0.6,0.6c-0.8,0.4-1,0.3-1-0.6c0-1.2,0-2.5,0-3.7
	c0-0.6,0.2-0.6,0.6-0.5c0.8,0.2,1.3,0.9,1.3,1.7C186.7,137.6,186.7,137.9,186.7,138.1z"/>
<path class="st1" d="M43.6,141.7c0.1,1.4,0,2.9-0.3,4.3c-0.1,0.3-0.2,0.5-0.3,0.8c-0.3,0.6-1,0.8-1.6,0.6c-0.2-0.1-0.4-0.3-0.6-0.6
	c-0.4-0.7-0.5-1.4-0.5-2.2c-0.2-2.2-0.2-4.5,0.1-6.7c0.1-0.4,0.1-0.8,0.3-1.1c0.1-0.5,0.6-0.9,1.2-0.9c0.6,0,1.1,0.4,1.2,1
	c0.2,0.7,0.4,1.4,0.4,2.2C43.6,139.9,43.6,140.8,43.6,141.7z"/>
<path class="st1" d="M171.8,138c0.3,2.4,0.6,4.5,0.9,6.7c0,0.3,0,0.4-0.3,0.4c-1.6,0.1-1.6,0.1-1.4-1.4c0.2-1.8,0.4-3.6,0.7-5.3
	C171.7,138.3,171.7,138.2,171.8,138z"/>
<path class="st1" d="M111,137.9c0.1,0.8,0.2,1.6,0.3,2.4c0.2,1.3,0.3,2.7,0.5,4.1c0.1,0.5,0,0.7-0.6,0.7c-1.3,0-1.3,0-1.2-1.4
	c0.3-1.9,0.5-3.8,0.7-5.7L111,137.9z"/>
<path class="st2" d="M107.7,110.8c0.2-0.5,0.6-0.9,0.9-1.3c3.1-3.4,7.1-4.7,11.3-5.6c5.2-1,10.5-1.3,15.8-0.7c4,0.3,8,1.4,11.6,3.2
	c1.5,0.7,2.8,1.7,3.9,2.9c2.1,2.2,2.1,5.6-0.1,7.8c0,0,0,0-0.1,0.1c-1.7,1.7-3.8,3-6.1,3.8c-3.6,1.3-7.3,2.1-11.1,2.4
	c-4.1,0.4-8.3,0.2-12.4-0.5c-3.6-0.5-7.1-1.8-10.3-3.6c-1-0.6-2-1.4-2.8-2.3c-1.4-1.5-1.7-3.6-1-5.5
	C107.5,111.2,107.7,111,107.7,110.8z M130.9,103.4c-4.8-0.1-9.6,0.5-14.2,1.9c-2.6,0.7-5,2-7.1,3.8c-2.2,1.7-2.6,5-0.9,7.2
	c0.3,0.3,0.6,0.6,0.9,0.9c1.7,1.6,3.8,2.8,6,3.6c4.2,1.4,8.7,2.2,13.1,2.2c5.1,0.2,10.2-0.5,15.1-2.1c2.4-0.7,4.7-2,6.6-3.7
	c2.2-1.7,2.6-4.9,0.8-7.1c-0.2-0.3-0.5-0.5-0.7-0.7c-1.5-1.4-3.3-2.5-5.3-3.3C140.7,104.3,135.8,103.4,130.9,103.4L130.9,103.4z"/>
<path class="st1" d="M103.3,120.1c0.8-1.7,1.4-3.5,1.9-5.3l0.3,0.7C105.3,117.3,104.5,118.9,103.3,120.1L103.3,120.1z"/>
<path class="st0" d="M105.5,115.6l-0.3-0.7c0.1-0.5,0.2-0.9,0.5-1.3C105.8,114.2,105.7,114.9,105.5,115.6z"/>
<path class="st1" d="M103.3,120.2l-0.1,0.1C103.2,120.3,103.3,120.2,103.3,120.2L103.3,120.2z"/>
<path class="st4" d="M130.9,103.4c4.9,0,9.8,0.9,14.4,2.7c2,0.7,3.7,1.8,5.3,3.3c2.2,1.8,2.5,5,0.7,7.2c-0.2,0.3-0.5,0.5-0.7,0.7
	c-1.9,1.7-4.1,3-6.6,3.7c-4.9,1.6-10,2.3-15.1,2.1c-4.5,0-8.9-0.8-13.2-2.2c-2.3-0.7-4.4-1.9-6.1-3.5c-2.2-1.7-2.6-5-0.9-7.2
	c0.3-0.3,0.6-0.6,0.9-0.9c2-1.8,4.5-3.1,7.1-3.8C121.2,103.9,126,103.2,130.9,103.4z M127.5,114.7L127.5,114.7
	c0.5,0.4,1,0.2,1.5,0.2c-0.1,0.4-0.4,0.2-0.6,0.2c-1,0-2.1,0-3.1,0.1c-0.9,0.1-1.9,0.3-2.7,0.8c-0.5,0.2-0.7,0.7-0.5,1.2
	c0.1,0.2,0.2,0.3,0.4,0.5c0.2,0.3,0.6,0.5,0.9,0.5c0,0.1,0.2,0.1,0.3,0.1c1.9,0.2,3.8-0.2,5.4-1.1c0.4-0.2,0.8-0.3,1.2-0.4
	c0.7-0.1,1.4-0.3,1.9-0.8c0.2-0.1,0.5-0.3,0-0.5c-0.6-0.3-1-0.7-1.1-1.3c0-0.2-0.3-0.3-0.6-0.4c0,0-0.1,0-0.1,0
	c0.4-0.1,0.7-0.2,0.9-0.5c0.1,0.5,0,1,0.5,1.2c0.7,0.6,1.5,0.3,2.2,0l0.2,0.1c0.2,0.3,0.6,0.3,0.9,0.2c0.4-0.1,0.8-0.3,1.2-0.5
	c0.1,0.2,0.2,0.3,0.4,0.4c0.2,0.2,0.5,0.3,0.7,0.3c0.8-0.1,1.5-0.3,2.2-0.6l0.4,0.3c0,0.1,0.1,0.1,0.2,0.1l0,0
	c0.3,0.3,0.7,0.4,1.1,0.2c1-0.1,1.9-0.6,2.7-1.3c0.7-0.8,1.8-1.2,2.9-0.8c-0.4,0.1-0.9,0.2-1.3,0.3c-0.8,0.1-1.3,1.1-0.9,1.6
	c0.4,0.5,1,0.3,1.6,0.3c0,0.3-0.3,0.2-0.4,0.2c-0.4,0-0.8,0-1.2,0c-1.6-0.1-3.1,0.2-4.5,0.8c-1.2,0.6-1.2,1.2-0.2,2.1
	c0.1,0.1,0.2,0.2,0.3,0.1l0,0c0.2,0.2,0.5,0.2,0.7,0.3c1.6,0.2,3.3-0.1,4.8-0.8c0.6-0.4,1.3-0.6,2-0.8c0.6-0.1,1.1-0.3,1.5-0.7
	c0.2-0.2,0.4-0.4,0-0.6c-0.1-0.2-0.3-0.3-0.5-0.3c-0.2,0-0.3-0.1-0.3-0.3c0-0.6-0.4-0.9-0.9-1.1c0.8-0.5,1.4-1.3,1.6-2.3
	c0-0.1-0.1-0.2-0.2-0.3c-0.2-0.3-0.5-0.3-0.8-0.2s-0.7,0.2-1.1,0.3c0.1-0.4,0.6-0.7,0-1.1c-0.1-0.2-0.2-0.3-0.4-0.3
	c-0.9-0.1-1.7,0.5-1.9,1.3c0,0.3-0.1,0.5-0.4,0.6c0-0.3,0-0.6-0.3-0.8c-0.4-0.7-1.1-0.4-1.7-0.5c0.2-0.3,0.5-0.5,0.7-0.7
	c0.5-0.4,0.9-0.9,1.3-1.3c0.2-0.3,0.7-0.7,0.1-1.1s-0.9-0.3-1.3-0.1c-2.1,0.9-4,2.2-5.4,4c-0.1,0.2-0.2,0.5-0.5,0.4
	c0-0.2,0.1-0.5-0.2-0.5c-0.8-0.4-1.7-0.5-2.6-0.5c-0.8,0.1-1.5,0.5-2.1,1c-0.1,0.1-0.2,0.4-0.5,0.3c0-0.3,0.4-0.6-0.1-0.9
	c-0.2-0.3-0.5-0.3-0.8-0.2l-1.1,0.3c0.1-0.4,0.6-0.7,0-1.1c-0.1-0.1-0.2-0.2-0.3-0.3c-1-0.1-1.8,0.5-2,1.5c0,0.2,0,0.4-0.1,0.5
	c-0.5,0.7-1.2,1.3-2,1.7c0.5-0.6,1-1.1,1.5-1.7c0.2-0.2,0.5-0.5,0-0.8c-0.4-0.5-1.2-0.6-1.7-0.2c-0.3,0.1-0.4,0.4-0.7,0
	c-0.3-0.4-0.7-0.3-1,0c-0.4,0.3-0.6,0.4-0.9,0.7s-0.3,0.2-0.5-0.1c-0.2-0.7-1-1.1-1.7-0.8c0,0,0,0-0.1,0c-1.1,0.3-2,1-2.5,2.1
	c-0.4,0.5-0.2,1.3,0.3,1.6c0,0,0,0,0.1,0c0.4,0.4,1,0.5,1.5,0.3c0.6-0.2,1.2-0.6,1.7-1.1c0,0.3,0.2,0.5,0.4,0.7
	c0.3,0.3,0.8,0.4,1.1,0.1c0.1-0.1,0.1-0.1,0.2-0.2l0.6-0.6c-0.1,0.3,0.1,0.7,0.4,0.9c0.1,0.2,0.4,0.3,0.6,0.3c0.7,0,1.3-0.2,1.9-0.6
	c0.3-0.2,0.5-0.6,0.9-0.6c0,0.3-0.4,0.7,0,1L127.5,114.7z M137,110.7c0.6,0.1,0.9-0.4,1.2-0.7l-0.1-0.1c-0.3-0.2-0.7-0.5-1-0.2
	c-0.3,0.2-0.3,0.6-0.1,0.9C136.9,110.7,137,110.7,137,110.7L137,110.7z M118.3,109.4c0-0.1,0-0.2-0.1-0.2c-0.8-0.9-2.1-1.2-3.3-0.7
	c-2.1,0.8-3.8,2.6-4.6,4.8c-0.5,1.1-0.1,2.5,0.9,3.2l0.2,0.1l0,0c0.7,0.4,1.6,0.4,2.3,0c0.2,0.1,0.2,0.3,0.5,0.3
	c0.4,0.3,0.7,0.2,1-0.2c0.5-0.8,1.1-1.5,1.8-2c0.5-0.3,0.7-0.9,0.5-1.5c0,0,0-0.1-0.1-0.1c-0.1-0.1-0.2-0.2-0.3-0.3
	c-1.2-0.4-2.5-0.1-3.4,0.6c-0.3,0.3-0.6,0.5-0.5,0.9c0.1,0.4,0.6,0.1,0.9,0.3c0,0,0,0,0,0.1c-0.3,0.5-0.8,0.7-1.4,0.7
	c0-0.3,0.1-0.7,0.2-1c0.6-1.7,1.7-3.1,3.1-4.2c0.1-0.1,0.3-0.2,0.5-0.2c-0.1,0.2-0.2,0.4-0.3,0.5c-0.5,0.5-0.4,0.9,0.1,1.2
	c0.5,0.4,1.3,0.4,1.8-0.1C118.6,111,118.7,110.1,118.3,109.4L118.3,109.4z"/>
<path class="st2" d="M147.4,113.9c0.5,0.2,0.9,0.5,0.9,1.1c0,0.2,0.1,0.3,0.3,0.3c0.2,0,0.4,0.1,0.5,0.3c-0.4,0.5-1,0.9-1.7,1
	c-0.4,0.1-0.9,0-1.3,0.3c-1.9,1.1-4.1,1.6-6.3,1.3l0,0c0-0.1-0.2-0.1-0.3-0.1c-1-0.8-1-1.4,0.2-2.1c1.4-0.6,3-0.9,4.5-0.8
	c0.4,0,0.8,0,1.2,0c0.2,0,0.4,0,0.4-0.2s-0.2-0.2-0.3-0.2l-1.2-0.1c-0.4-0.5,0.1-1.4,0.9-1.6c0.5,0,0.9-0.1,1.3-0.3
	c0.2,0,0.3,0,0.4-0.3c-0.3,0-0.7,0-1,0c-1-0.3-1.7,0.2-2.4,0.8c-1,0.9-2.3,1.4-3.6,1.3l0,0l-0.2-0.1l-0.4-0.3
	c-0.2-0.3-0.4-0.1-0.5,0c-0.8,0.3-1.6,0.5-2.4,0.4c-0.2-0.1-0.3-0.2-0.4-0.4c0-0.3,0-0.4-0.3-0.2c-0.5,0.4-1.1,0.6-1.7,0.6l-0.2-0.1
	c-0.1-0.3-0.3-0.2-0.5-0.1c-0.5,0.2-1.1,0.3-1.7,0.1c-0.5-0.3-0.5-0.8-0.5-1.2c0.1-0.3,0.2-0.6,0.4-0.9c0.1,0,0.3-0.1,0.1-0.3l0,0
	c0.3,0.1,0.3-0.2,0.5-0.3c0.6-0.5,1.3-0.9,2.1-1c0.9,0,1.8,0.2,2.6,0.5l-1.7,2.4c0.4,0,0.5-0.3,0.7-0.4c0.2-0.1,0.3,0,0.3-0.3l0,0
	c0.5-0.2,0.9-0.6,0.9-1.2l0,0c0.3,0.1,0.4-0.2,0.5-0.4c1.5-1.8,3.3-3.1,5.4-4c0.4-0.2,0.9-0.4,1.3,0.1c0,0.4-0.2,0.7-0.4,0.9
	c-1.2,1.4-2.8,2.6-4.5,3.4c-0.7,0.4-1.3,1-1.7,1.7c-0.1,0.2-0.1,0.4,0.2,0.3c0.3-0.1,1.1-0.2,1.5-0.7c0.3-0.4,0.6-0.8,0.9-1.2
	c0.5-0.5,1-0.8,1.6-1.2c0.1,0,0.2,0,0.2-0.1l0,0c0.6,0,1.3-0.2,1.7,0.5c0.2,0.6-0.2,1.1-0.6,1.5c0.3-0.2,0.6-0.4,0.9-0.7
	c0.3-0.1,0.3-0.3,0.4-0.6c0.2-0.8,1.1-1.4,1.9-1.3c0.2,0,0.3,0.1,0.4,0.3c0,0.5-0.3,0.7-0.5,1.1c0.1,0.1,0.3,0.1,0.4,0
	c0.4-0.1,0.7-0.2,1.1-0.3c0.4-0.1,0.6-0.1,0.8,0.2c-0.4,1.1-0.5,2.5-2.2,2.4L147.4,113.9z M142.3,109.3l-1.5,1.2l0.1,0.1
	C141.4,110.3,142,109.9,142.3,109.3c0.4-0.1,0.6-0.3,0.8-0.6L142.3,109.3z M133.2,113.9c1-0.3,1.8-1.1,2.1-2.1
	c0-0.4-0.3-0.2-0.5-0.1c-0.7,0.5-1.4,1.2-1.9,1.9C132.8,113.8,132.8,114,133.2,113.9L133.2,113.9z M143.8,116.9
	c0.1-0.1,0.3,0,0.4-0.3l-2.8,0.1c-0.4,0-0.9,0.1-1.3,0.3c-0.2,0.1-0.5,0.2,0,0.4C141.4,117.8,142.7,117.6,143.8,116.9L143.8,116.9z
	 M143.2,111.6c-0.7,0.1-1.2,0.6-1.5,1.2C142.3,112.6,142.8,112.1,143.2,111.6L143.2,111.6z M142.5,113.5c-0.5,0-0.9,0-1.3,0.1
	c-0.2,0-0.3,0.2-0.3,0.3c0,0,0,0,0,0c0,0,0.2,0.1,0.2,0.1C141.4,113.7,142,113.9,142.5,113.5L142.5,113.5z"/>
<path class="st2" d="M121.8,114.5c-0.2-0.1-0.4-0.4-0.4-0.7l1.1-1.2c-0.6,0.3-1.2,0.7-1.6,1.2c-0.6,0.8-1.7,1.1-2.7,0.8
	c-0.6-0.3-0.7-1-0.4-1.6c0,0,0,0,0-0.1c0.5-1,1.4-1.8,2.5-2.1c0.7-0.3,1.5,0.1,1.7,0.7c0,0,0,0,0,0.1c0.2,0.3,0.3,0.2,0.5,0.1
	c0.2-0.1,0.6-0.4,0.9-0.7c0.3-0.2,0.8-0.3,1,0c0.3,0.3,0.5,0.2,0.7,0c0.5-0.4,1.3-0.3,1.7,0.2c-0.1,0.3-0.2,0.5-0.4,0.6l-1.3,1.5
	c-0.1,0.1-0.2,0.2-0.1,0.3c0.1,0.1,0.2,0,0.3,0c0.8-0.4,1.5-1,2-1.7c0.1-0.2,0.1-0.4,0.1-0.5c0.2-0.9,1.1-1.6,2-1.5
	c0.1,0,0.3,0.1,0.3,0.3c0,0.5-0.3,0.8-0.5,1.2l0.5-0.1l1.1-0.3c0.3-0.1,0.6-0.2,0.8,0.2c-0.2,0.4-0.3,0.7-0.4,1.1
	c-0.1,0.7-0.7,1.2-1.5,1.2c-0.5,0-1,0.1-1.4,0.4c0.5-0.1,1.1-0.2,1.6-0.2h0.3h0.1c0.2,0,0.5,0.1,0.6,0.4c0.2,0.6,0.6,1.1,1.1,1.3
	c-0.3,0.5-0.8,0.8-1.4,0.9c-1.1,0.2-2.2,0.6-3.2,1.1c-1.3,0.5-2.8,0.7-4.2,0.7c-0.4,0-0.7-0.2-0.9-0.5c-0.4-0.3-0.6-0.9-0.3-1.3
	c0.1-0.2,0.3-0.3,0.5-0.4c0.8-0.5,1.7-0.8,2.7-0.8c1,0,2.1,0,3.1-0.1c0.2,0,0.5,0.2,0.6-0.2s-0.2-0.2-0.3-0.2h-1.1l-0.1-0.1
	c-0.5-0.3,0-0.6,0-1l0,0c0.2-0.1,0.3-0.2,0.3-0.4l0,0c0.1,0,0.2,0,0.1-0.1l0,0c0.7-0.1,1.4-0.2,2-0.4c0.1,0,0.3,0,0.3-0.3
	c-0.2,0-0.4,0-0.6,0c-1-0.2-2,0.1-2.7,0.9c-0.7,0.9-1.8,1.4-2.9,1.2c-0.3-0.2-0.5-0.5-0.4-0.9c0.2-0.5,0.6-0.8,0.8-1.2
	c-0.6,0.4-1.1,0.9-1.5,1.5C122.9,114.4,122.3,114.6,121.8,114.5z M119.7,113.3c0-0.7,0.5-1.2,1.2-1.3c0.2,0,0.3-0.2,0.3-0.3
	s-0.3-0.1-0.4,0c-0.7,0.5-1.3,1.2-1.6,2c-0.1,0.2-0.2,0.4,0.2,0.5c0.3,0,0.6-0.2,0.7-0.4C120,113.5,119.7,113.4,119.7,113.3z
	 M126.9,116.9c0.1,0,0.3,0,0.3-0.2c-1.1-0.1-2.2,0-3.3,0.1c-0.3,0-0.5,0.1-0.8,0.2c-0.2,0.1-0.4,0.3,0,0.4
	C124.4,117.8,125.7,117.6,126.9,116.9L126.9,116.9z"/>
<path class="st2" d="M111.3,116.5L111.3,116.5l-0.2-0.1c-1-0.7-1.3-2.1-0.9-3.2c0.8-2.2,2.5-3.9,4.6-4.8c1.1-0.5,2.5-0.2,3.3,0.7
	c0,0.1,0,0.2,0.1,0.2l0,0c0,1.7-0.6,2.3-2.2,2.2c-0.5-0.3-0.6-0.7-0.1-1.2c0.1-0.2,0.2-0.3,0.3-0.5c-0.3-0.3-0.4-0.4-0.8,0
	c-1.5,1.1-2.6,2.7-3.1,4.5c-0.1,0.3-0.2,0.6,0.2,0.9c0.6,0.1,1.1-0.2,1.4-0.7c0,0,0-0.1,0-0.1c-0.3-0.1-0.8,0.2-0.9-0.3
	c-0.1-0.5,0.3-0.7,0.5-0.9c1-0.7,2.2-1,3.3-0.6c0.2,0,0.3,0.2,0.4,0.3c0,0.5-0.2,1-0.7,1.3c-0.9,0.4-1.2,1.3-1.7,1.9
	c-0.2,0.3-0.5,0.5-0.8,0.5c-0.2,0-0.3-0.2-0.5-0.3c-0.1-0.2-0.3-0.2-0.4-0.2c0,0,0,0,0,0C112.6,116.7,112,116.7,111.3,116.5z"/>
<path class="st0" d="M138,114c-0.3,0-0.3-0.1-0.2-0.3c0.4-0.7,1-1.3,1.7-1.7c1.7-0.8,3.3-2,4.5-3.4c0.2-0.3,0.4-0.6,0.4-0.9
	c0.6,0.5,0.1,0.8-0.1,1.1c-0.4,0.5-0.9,0.9-1.3,1.3c-0.2,0.2-0.6,0.4-0.7,0.7l0,0c-0.1,0-0.2,0-0.2,0.1c-0.6,0.3-1.1,0.7-1.6,1.2
	C139.5,112.4,138.6,113.1,138,114z"/>
<path class="st0" d="M140,118.1c2.2,0.2,4.4-0.2,6.3-1.3c0.4-0.2,0.9-0.1,1.3-0.3c0.7-0.1,1.3-0.5,1.7-1c0.4,0.2,0.3,0.4,0,0.6
	c-0.4,0.4-1,0.6-1.5,0.7c-0.8,0.1-1.5,0.4-2.2,0.7c-1.5,0.7-3.1,1-4.8,0.8C140.5,118.3,140.2,118.4,140,118.1z"/>
<path class="st0" d="M123.4,118.3c1.4,0,2.8-0.2,4.2-0.7c1-0.5,2.1-0.9,3.2-1.1c0.6-0.1,1.1-0.4,1.4-0.9c0.5,0.2,0.1,0.4,0,0.5
	c-0.5,0.5-1.2,0.7-1.9,0.8c-0.4,0-0.8,0.2-1.2,0.4c-1.7,0.9-3.6,1.3-5.4,1.1C123.5,118.4,123.4,118.4,123.4,118.3z"/>
<path class="st0" d="M112.5,115.3c-0.4-0.2-0.3-0.6-0.2-0.9c0.5-1.8,1.6-3.4,3.1-4.5c0.4-0.3,0.5-0.3,0.8,0c-0.2,0-0.4,0.1-0.5,0.2
	c-1.4,1.1-2.5,2.5-3.1,4.1C112.6,114.6,112.5,115,112.5,115.3z"/>
<path class="st0" d="M140.1,114.7c1.3,0.1,2.6-0.4,3.6-1.3c0.7-0.6,1.3-1.2,2.4-0.8c0.3,0,0.7,0,1,0c-0.1,0.3-0.3,0.2-0.4,0.3
	c-1-0.3-2.2,0-2.9,0.8c-0.7,0.7-1.7,1.2-2.7,1.3C140.9,115.1,140.4,115,140.1,114.7z"/>
<path class="st0" d="M124,114.7c1.1,0.2,2.2-0.3,2.9-1.2c0.6-0.8,1.7-1.2,2.7-0.9c0.2,0,0.4,0,0.6,0c0,0.3-0.2,0.2-0.3,0.3
	c-0.3,0-0.6,0-0.9-0.1c-0.4-0.2-0.8,0-1,0.3c0,0,0,0.1,0,0.1l0,0l-0.1,0.1l0,0c-0.1,0.1-0.3,0.2-0.3,0.4l0,0c-0.4,0-0.6,0.4-0.9,0.6
	c-0.5,0.4-1.2,0.6-1.9,0.6C124.3,115,124.1,114.9,124,114.7z"/>
<path class="st0" d="M114.1,116.8c0.3,0,0.7-0.2,0.8-0.5c0.5-0.7,0.9-1.5,1.7-1.9c0.4-0.3,0.7-0.8,0.7-1.3c0.3,0.5,0.2,1.2-0.3,1.5
	c0,0-0.1,0-0.1,0.1c-0.7,0.5-1.4,1.2-1.8,2C114.8,117.1,114.5,117.1,114.1,116.8z"/>
<path class="st0" d="M118.3,114.6c1,0.3,2,0,2.7-0.8c0.4-0.5,1-0.9,1.6-1.2l-1.1,1.2c-0.5,0.5-1,0.9-1.7,1.1
	C119.3,115.1,118.7,115,118.3,114.6z"/>
<path class="st0" d="M116.1,111.6c1.6,0.1,2.2-0.5,2.2-2.2c0.4,0.7,0.3,1.6-0.4,2.1C117.4,112,116.7,112.1,116.1,111.6z"/>
<path class="st0" d="M147.4,113.9l-0.8-0.1c1.7,0,1.7-1.3,2.2-2.4c0.1,0,0.2,0.1,0.2,0.3C148.8,112.6,148.2,113.4,147.4,113.9z"/>
<path class="st0" d="M125.4,113.9c-0.1,0-0.2,0-0.3,0s0-0.2,0.1-0.3l1.3-1.5c0.2-0.2,0.3-0.4,0.4-0.6c0.4,0.3,0.2,0.5,0,0.8
	C126.4,112.8,125.9,113.4,125.4,113.9z"/>
<path class="st0" d="M129.9,113.7c0.7,0,1.4-0.5,1.5-1.2c0.1-0.4,0.2-0.7,0.4-1.1c0.5,0.2,0,0.6,0.1,0.9l0,0c-0.2,0-0.1,0.1-0.1,0.3
	c-0.2,0.3-0.3,0.6-0.4,0.9c-0.2,0.3-0.6,0.4-0.9,0.5l0,0h-0.3L129.9,113.7z"/>
<path class="st0" d="M121.8,114.5c0.4,0.1,0.9-0.1,1.1-0.5c0.4-0.6,0.9-1.1,1.5-1.5c-0.2,0.4-0.6,0.8-0.8,1.2l-0.6,0.6
	c-0.2,0.4-0.7,0.5-1,0.2C121.9,114.6,121.9,114.6,121.8,114.5z"/>
<path class="st0" d="M136,113.4c-0.2,0.1-0.3,0.4-0.7,0.4l1.7-2.4c0.3,0.1,0.2,0.3,0.2,0.5l0,0c-0.4,0.3-0.7,0.7-0.9,1.2l0,0
	C136,113.2,136,113.3,136,113.4z"/>
<path class="st2" d="M137,110.7c-0.3-0.2-0.3-0.6-0.1-0.9c0,0,0.1-0.1,0.1-0.1c0.3-0.3,0.7-0.1,1,0.2
	C137.7,110.2,137.4,110.5,137,110.7z"/>
<path class="st0" d="M136.6,114.7c0.8,0,1.6-0.1,2.4-0.4c0.2,0,0.4-0.2,0.5,0c-0.7,0.3-1.4,0.6-2.2,0.6
	C137.1,115,136.8,114.9,136.6,114.7z"/>
<path class="st0" d="M134.2,114.7c0.6,0,1.2-0.2,1.7-0.6c0.3-0.2,0.4,0,0.3,0.2c-0.4,0.2-0.8,0.4-1.2,0.5
	C134.8,114.9,134.4,115,134.2,114.7z"/>
<path class="st0" d="M111.3,116.5c0.6,0.2,1.3,0.1,1.9-0.1c0.1-0.1,0.3,0,0.4,0.1c0,0,0,0,0,0C113,117,112.1,117,111.3,116.5z"/>
<path class="st0" d="M131.9,114.6c0.6,0.1,1.2,0.1,1.7-0.1c0.2-0.1,0.4-0.1,0.5,0.1C133.3,114.9,132.6,115.2,131.9,114.6z"/>
<path class="st0" d="M144.2,112.2c-0.2,0.3-0.5,0.5-0.9,0.7c0.3-0.5,0.7-0.9,0.6-1.5C144.2,111.5,144.1,111.9,144.2,112.2z"/>
<path class="st0" d="M129.9,111.6l-0.5,0.1c0.2-0.5,0.6-0.8,0.5-1.2C130.4,110.9,130,111.2,129.9,111.6z"/>
<path class="st0" d="M146.9,111.6c-0.1,0.1-0.3,0.1-0.4,0c0.2-0.4,0.5-0.7,0.5-1.1C147.5,110.8,147,111.2,146.9,111.6z"/>
<path class="st0" d="M144.5,114.6l1.2,0.1c0.2,0,0.4,0,0.3,0.2C145.5,114.9,144.9,115.1,144.5,114.6z"/>
<path class="st0" d="M127.5,114.7h1.2c0.1,0,0.3,0,0.3,0.2C128.5,114.9,128,115.1,127.5,114.7z"/>
<path class="st0" d="M137,110.7c0.4-0.2,0.8-0.5,1.1-0.8l0.1,0.1C137.8,110.4,137.6,110.8,137,110.7z"/>
<path class="st0" d="M139.7,118c0.1,0,0.3,0,0.3,0.1C139.8,118.2,139.7,118.1,139.7,118z"/>
<path class="st0" d="M118.3,109.4c-0.1,0-0.1-0.1-0.1-0.2C118.2,109.1,118.3,109.3,118.3,109.4z"/>
<path class="st0" d="M139.9,114.6l0.2,0.1C140.1,114.8,140,114.7,139.9,114.6z"/>
<path class="st3" d="M130.4,113.9L130.4,113.9C130.4,113.9,130.5,113.9,130.4,113.9L130.4,113.9z"/>
<path class="st0" d="M111.2,116.5l0.2,0.1L111.2,116.5z"/>
<path class="st0" d="M127.4,114.7L127.4,114.7L127.4,114.7z"/>
<path class="st4" d="M143.8,116.9c-1.1,0.7-2.5,0.9-3.7,0.6c0.2-0.2,0.4-0.3,0.7-0.4C141.8,116.9,142.8,116.9,143.8,116.9z"/>
<path class="st4" d="M138,114c0.5-0.9,1.4-1.6,2.4-1.9c-0.3,0.4-0.7,0.8-0.9,1.2C139.2,113.9,138.6,113.9,138,114z"/>
<path class="st0" d="M143.8,116.9c-1-0.1-2,0-3,0.2c-0.3,0-0.5,0.1-0.7,0.4c-0.5-0.2-0.1-0.3,0-0.4c0.4-0.2,0.8-0.3,1.3-0.3l2.8-0.1
	C144.1,116.9,143.9,116.8,143.8,116.9z"/>
<path class="st0" d="M133.1,114c-0.3,0-0.4-0.1-0.2-0.3c0.5-0.7,1.2-1.4,1.9-1.9c0.1-0.1,0.4-0.3,0.5,0.1
	C134.4,112.4,133.7,113.1,133.1,114z"/>
<path class="st4" d="M133.1,114c0.5-0.8,1.3-1.6,2.1-2.1C134.9,112.9,134.1,113.7,133.1,114z"/>
<path class="st0" d="M143.2,111.6c-0.4,0.6-0.9,1-1.5,1.2C142,112.1,142.5,111.7,143.2,111.6z"/>
<path class="st0" d="M142.5,113.4c-0.4,0.5-1.1,0.2-1.4,0.6c0,0-0.2-0.1-0.2-0.1c0-0.2,0.1-0.3,0.3-0.4c0,0,0,0,0,0
	C141.5,113.5,142,113.5,142.5,113.4z"/>
<path class="st0" d="M142.3,109.4c-0.5,0.5-1,0.9-1.5,1.2l-0.1-0.1L142.3,109.4L142.3,109.4z"/>
<path class="st4" d="M136.2,113.2c0.2-0.5,0.5-0.9,0.9-1.2C137.1,112.5,136.7,113,136.2,113.2z"/>
<path class="st0" d="M142.3,109.3l0.8-0.6C143,109,142.7,109.3,142.3,109.3L142.3,109.3z"/>
<path class="st4" d="M136,113.4c0-0.1,0.1-0.3,0.3-0.3C136.3,113.4,136.1,113.4,136,113.4z"/>
<path class="st4" d="M131.7,112.5c0-0.1,0-0.2,0.1-0.3C132,112.4,131.8,112.5,131.7,112.5z"/>
<path class="st4" d="M142,111c0-0.1,0.1-0.2,0.2-0.1C142.2,111,142.1,111,142,111z"/>
<path class="st4" d="M126.8,116.9c-1.1,0.7-2.4,0.9-3.7,0.5c0.3-0.2,0.6-0.4,1-0.4C125,116.9,125.9,116.9,126.8,116.9z"/>
<path class="st0" d="M126.8,116.9c-0.9,0-1.8,0-2.7,0.1c-0.4,0-0.7,0.2-1,0.4c-0.4-0.1-0.3-0.3,0-0.4c0.3-0.1,0.5-0.2,0.8-0.2
	c1.1-0.2,2.2-0.2,3.3-0.1C127.1,116.9,126.9,116.9,126.8,116.9z"/>
<path class="st0" d="M119.2,114.1c-0.4,0-0.3-0.3-0.2-0.5c0.3-0.8,0.9-1.5,1.6-2c0.1-0.1,0.3-0.2,0.4,0c0.1,0.2-0.1,0.3-0.3,0.3
	c-0.7,0.1-1.2,0.7-1.2,1.3C119.4,113.5,119.2,113.8,119.2,114.1z"/>
<path class="st4" d="M127.8,113.2c0.1-0.4,0.6-0.6,1-0.5c0,0,0.1,0,0.1,0c0.3,0.1,0.6,0.1,0.9,0.1
	C129.1,113,128.5,113.1,127.8,113.2z"/>
<path class="st3" d="M129.9,113.7l0.2,0.2c-0.5,0-1.1,0.1-1.6,0.2C128.9,113.8,129.4,113.7,129.9,113.7z"/>
<path class="st4" d="M119.2,114.1c0-0.3,0.2-0.6,0.4-0.8c0.1,0.1,0.4,0.2,0.3,0.4C119.8,113.9,119.5,114.1,119.2,114.1z"/>
<path class="st4" d="M127.4,113.7c0-0.2,0.2-0.3,0.3-0.4C127.7,113.5,127.6,113.6,127.4,113.7z"/>
<path class="st4" d="M127.7,113.3l0.1-0.1C127.8,113.3,127.8,113.3,127.7,113.3z"/>
</svg>
