<?xml version="1.0" encoding="utf-8"?>
<!-- Generator: Adobe Illustrator 21.1.0, SVG Export Plug-In . SVG Version: 6.00 Build 0)  -->
<svg version="1.1" id="Layer_1" xmlns="http://www.w3.org/2000/svg" xmlns:xlink="http://www.w3.org/1999/xlink" x="0px" y="0px"
	 viewBox="0 0 250 250" style="enable-background:new 0 0 250 250;" xml:space="preserve">
<style type="text/css">
	.st0{fill:#687818;}
	.st1{fill:#687819;}
	.st2{fill:#FEFEFE;}
</style>
<title>Grocery</title>
<path class="st0" d="M156.3,126.8h78.8c3-0.1,5.8,1.1,7.7,3.4c1.3,1.6,2,3.6,2,5.6c0.1,1.5,0,3-0.3,4.5c-1,4-4.6,6.8-8.7,6.8H77.2
	c-5,0.2-9.3-3.7-9.5-8.7c0-0.3,0-0.6,0-0.8c-0.1-1.8,0.1-3.6,0.8-5.3c1.5-3.5,5-5.7,8.7-5.5L156.3,126.8L156.3,126.8z M90.4,141.9
	c-0.4-0.2-0.7-0.7-0.6-1.2c0-2.3,0-4.7,0-7c0-0.6-0.1-1.1,0.5-1.6h-3.5c0.3,0.7-1.5,4.7-2.7,6l-2.2-4.5c-0.2-0.5-0.6-0.9,0-1.5h-3.6
	c0.5,0.4,0.4,0.9,0.4,1.3c0,2.4,0,4.8,0,7.1c0.1,0.6-0.1,1.1-0.6,1.4c1,0.1,2,0.1,3,0c-0.6-0.8-0.7-3.9-0.4-6.9l3.5,6.9l3.5-6.7
	c0.1,1.6,0.2,3.3,0.2,4.9c0,0.7,0.1,1.3-0.6,1.9L90.4,141.9z M139.5,141.9c-0.6-0.4-1.2-1-1.6-1.6c-0.4-0.6-0.8-1.2-1.2-1.8
	c-0.3-0.5-0.5-0.7,0.3-1c0.9-0.3,1.5-1,1.7-1.9c0.4-1.5-0.5-3.1-2-3.5c-0.3-0.1-0.6-0.1-0.9-0.1c-1.5-0.2-3.1-0.1-4.6-0.1h-2.4
	c0.3,0.4,0.4,0.9,0.4,1.4c0,2.4,0,4.8,0,7.2c0.1,0.5-0.1,1.1-0.6,1.3h3.3c-0.4-0.3-0.7-0.5-0.6-0.9c0-0.9,0-1.8,0-2.7
	c0-0.4,0.2-0.4,0.5-0.5c1.3-0.1,2.5,0,3.1,1.5c0.2,0.5,0.5,0.9,0.8,1.3c0.3,0.4,0.5,0.8,0,1.3L139.5,141.9z M187.1,131.3
	c-0.4,0.7-0.8,0.7-1.3,0.7h-8c0.4,0.4,0.5,1,0.4,1.6c0,2.1,0,4.3,0,6.4c0.1,0.7,0,1.5-0.5,2h7.9c0.6,0,1.1-0.1,1.6,0.5v-3
	c-0.1,0.5-0.6,0.8-1.1,0.7h-4.5c-1.3,0-1.2,0.2-1.2-1.2s0-1.3,1.3-1.3h1.9c0.5-0.1,1.1,0.1,1.3,0.5v-2.8c-0.2,0.5-0.8,0.8-1.3,0.7
	c-0.8,0-1.6,0-2.4,0s-0.9-0.2-0.8-0.9c0-0.1,0-0.2,0-0.4c-0.1-0.7,0.1-1,0.9-0.9c1.5,0,3,0,4.5,0c0.5-0.1,1,0.1,1.3,0.5L187.1,131.3
	z M234,133v-0.2c-0.7,0.4-1.1-0.1-1.7-0.3c-1.8-0.8-3.8-0.8-5.5-0.1c-1.3,0.5-2.2,1.8-1.9,3.3c0.2,1.2,1,2,2.6,2.2
	c1.2,0.2,2.4,0.2,3.6,0.4c0.5,0,0.9,0.2,1,0.8c0,0.4-0.2,0.8-0.6,1c-2,0.9-4.2,0.4-5.7-1.1c-0.4,0.8-0.8,1.7-1,2.5
	c0.4-0.2,0.9-0.2,1.3,0.1c0.6,0.3,1.2,0.5,1.8,0.6c1.8,0.5,3.8,0.1,5.3-0.9c1.2-0.8,1.6-2.5,0.8-3.7c-0.3-0.5-0.7-0.8-1.2-1
	c-0.7-0.3-1.5-0.5-2.3-0.6c-0.9,0-1.7-0.1-2.6-0.3c-0.4,0-0.7-0.3-0.7-0.7c0-0.4,0.2-0.7,0.5-0.9c0.3-0.2,0.6-0.3,0.9-0.3
	c1.7-0.4,3.5,0.2,4.6,1.6L234,133z M163.9,132h-4.1c0,0.3,0.6,0.5,0.2,0.8c-1.3,1.1-2.5,2.1-3.8,3.1c0-1.3-0.5-2.7,0.2-4h-2.9
	c0.5,0.4,0.4,0.9,0.4,1.3c0,2.4,0,4.8,0,7.1c0.1,0.5-0.2,1.1-0.7,1.3c1.1,0.1,2.2,0.1,3.2,0c-0.8-1.4-0.6-3.1,0.5-4.2
	c0.4-0.3,0.6-0.2,0.8,0.1c0.8,1,1.6,2,2.4,3c0.2,0.2,0.5,0.5,0,0.8c-0.1,0.1,0,0.3,0.2,0.3h3.7c-1.7-1.6-3.3-3.4-4.7-5.3
	c-0.4-0.4-0.4-0.6,0.1-1c1-0.8,2-1.6,3-2.5C163.1,132.7,163.6,132.6,163.9,132L163.9,132z M107.8,132c0.6,0.4,0.4,0.9,0.2,1.3
	c-0.9,1.9-1.7,3.8-2.7,5.6c-0.3,1.1-0.9,2.1-1.8,2.9h3.2c-0.9-0.8-0.1-1.3,0-2s0.7-0.4,1.1-0.5c0.9,0,1.9,0,2.9,0
	c0.3,0,0.6,0,0.7,0.3c0.3,0.7,1,1.3,0.2,2.2h3.6c-0.6-0.5-1.1-1.2-1.3-1.9c-1-2.1-2-4.3-3.1-6.4c-0.3-0.5-0.5-1,0.2-1.6L107.8,132z
	 M210.8,131.6c-0.4,0.5-0.9,0.4-1.3,0.4h-6.8c-0.5,0-1,0.1-1.3-0.6v3c0.2-0.5,0.7-0.7,1.2-0.6c0.5,0,1.1,0,1.6,0
	c0.7-0.1,1,0.1,0.9,0.9c0,1.9,0,3.7,0,5.6c0,0.6,0.1,1.1-0.6,1.6h3.2c-0.2-0.3-0.4-0.5-0.4-0.9c0-2.2,0-4.5,0-6.7
	c0-0.2-0.1-0.5,0.3-0.5c1.1,0.1,2.3-0.3,3.4,0.4L210.8,131.6z"/>
<path class="st1" d="M18.2,83.3c0,0.5,0,0.8,0,1.1c0,10.5,0,21.1,0,31.6c0,2.6,0.1,5.1,0.3,7.7c0.3,3.1,1.3,4.2,4.5,4.4
	c1.2,0.1,2.4,0.2,3.5,0.3c0.4,0,0.6,0.2,0.6,0.6c0,0.9,0,1.8,0,2.8c0,0.5-0.2,0.6-0.6,0.6c-7,0-14,0-21,0c-0.5,0-0.7-0.2-0.6-0.7
	c0-1-0.3-2.2,0.1-3c0.4-0.8,1.8-0.4,2.7-0.6c2.9-0.6,3.4-1.1,3.8-4c0.4-3.4,0.6-6.8,0.5-10.1c0-10.9,0-21.9,0-32.8
	c0.1-0.9,0.1-1.7,0-2.6c-0.2-1.4-0.5-1.9-1.9-2.2c-1.6-0.4-3.2-0.6-4.8-0.6c-0.6,0-0.7-0.2-0.7-0.7c0-0.9,0-1.7,0-2.6
	c0-0.5,0.1-0.6,0.6-0.6h19.3c0.3,0,0.6,0.1,0.8,0.3c10.2,11.9,20.1,24,28.1,37.5c0.7,1.2,1.3,2.5,2.2,3.7c0-0.3,0-0.6,0-0.9
	c0-5.3,0-10.6-0.1-15.9s-0.1-10.2-0.5-15.3c-0.1-0.7-0.2-1.5-0.3-2.2c-0.1-1.7-1.6-3.1-3.3-3c-1.4-0.1-2.8-0.3-4.3-0.4
	c-0.6,0-0.9-0.2-0.9-0.9c0.1-0.7,0-1.5,0-2.2c0-0.7,0.2-0.8,0.8-0.8c4.9,0,9.8,0,14.7,0c2,0,4,0,6,0c0.7,0,0.9,0.2,0.9,0.9
	c0,0.8,0,1.6,0,2.4c0,0.4-0.1,0.6-0.6,0.7c-1,0.1-2,0.3-3,0.3c-1.2,0-2.3,0.7-2.7,1.9c-0.5,1.3-0.7,2.6-0.7,4
	c-0.6,16.4-0.2,32.8-0.3,49.2c0,0.7-0.1,1-1,1c-2.4,0-4.9,0-7.3,0c-0.5,0-1-0.2-1.3-0.7c-7.5-12.1-15.2-24-23.6-35.5
	c-3-4.1-6.1-8.1-9.3-12C18.8,84,18.6,83.8,18.2,83.3z"/>
<path class="st1" d="M116.3,108c-1.7-0.5-3.2-1.5-4.5-2.8c-4.4-5-4-12.6,1-17.1c2.7-2.3,6.1-3.7,9.6-3.9c3.7-0.5,7.4-0.1,10.9,1.2
	c0.1,0,0.2,0.1,0.3,0.1c1.3,1,2.7,0.7,4,0.1c2.1-0.8,4.2-1.5,6.3-2.3c0.4-0.1,0.7-0.3,0.9,0.1s0.9,0.6,0.6,1.3
	c-0.5,1.6-0.9,3.2-1.3,4.8c-0.1,0.4-0.4,0.7-0.8,0.7c-1,0.1-2,0.4-3.1,0.5c-0.7,0.1-0.7,0.3-0.4,0.9c1.9,4.3,1.9,8.4-1.1,12.3
	c-2,2.5-4.9,4.1-8,4.7c-2.7,0.6-5.5,0.8-8.2,0.5c-1.3-0.1-2.5,0.5-3.3,1.5c-0.6,0.8-0.5,1.9,0.3,2.5c0.1,0.1,0.2,0.1,0.3,0.2
	c1.4,0.9,3,1.4,4.6,1.5c3.6,0.3,7.2,0.4,10.8,0.9c2.9,0.3,5.8,0.9,8.6,1.9c0.5,0.2,1.3,0.4,1.4,0.9c0.1,0.5-0.7,0.7-1.2,0.9
	c-1.5,1-3,2-4.4,3c-0.4,0.3-0.9,0.3-1.3,0.2c-5.3-1.8-11.2-1.3-16.1,1.4c-0.2,0.1-0.5,0.2-0.8,0.1c-3.3-0.6-6.4-2.1-8.9-4.4
	c-3.6-3.6-3-8.3,1.3-10.9C114.5,108.8,115.4,108.4,116.3,108z M131,97.7c0-3.6-0.7-6-2.3-7.8c-1.4-1.9-4-2.3-5.9-0.9
	c-0.4,0.3-0.7,0.6-0.9,0.9c-3,4.1-3.1,9.6-0.2,13.8c1.3,2,4,2.5,6,1.1c0.5-0.3,0.9-0.7,1.2-1.2C130.2,101.9,130.9,99.8,131,97.7
	L131,97.7z"/>
<path class="st1" d="M153.2,108c-2-0.6-3.7-1.7-5-3.3c-4.2-5.3-3.2-13,2.1-17.1c0.5-0.4,1.1-0.8,1.7-1.1c3.6-1.9,7.6-2.8,11.7-2.4
	c2.9,0.1,5.7,0.8,8.2,2.2c0.3,0.2,0.7,0.2,1,0l7.8-2.8c0.4-0.1,0.7-0.3,1,0.1c0.3,0.4,0.8,0.7,0.6,1.4c-0.5,1.5-0.9,3.1-1.3,4.7
	c-0.1,0.4-0.4,0.7-0.8,0.7c-1.3,0.2-2.5,0.4-3.8,0.7c1,1.8,1.5,3.7,1.6,5.7c0.2,4.8-2.6,9.1-7,10.9c-3.4,1.4-7,2-10.7,1.7
	c-1.4-0.2-2.7,0.2-3.8,1.1c-0.8,0.5-1.1,1.7-0.5,2.5c0.1,0.2,0.3,0.4,0.5,0.5c0.9,0.7,2.1,1.2,3.2,1.3c3.2,0.6,6.4,1.1,9.6,1.8
	c5.4,1.1,10.4,3.7,14.5,7.3l0.5,0.4c0.1,0.1,0.1,0.1,0.2,0.2c-0.2,0.1-0.5,0.1-0.8,0.1h-10.3c-0.4,0-0.8-0.1-1.1-0.2
	c-5.1-2.5-10.9-3-16.4-1.6c-0.6,0.2-1.2,0.2-1.7,0c-2.3-0.6-4.4-1.9-5.9-3.8c-2.2-2.7-1.8-6.7,0.9-8.9c0.1-0.1,0.2-0.2,0.3-0.3
	C150.5,109.2,151.8,108.5,153.2,108z M167.4,96.9c0.1-2.3-0.6-4.6-1.9-6.6c-2.1-2.9-5.4-2.9-7.6,0c-2.5,3.9-2.5,9,0,13
	c2.2,3.1,5.6,3,7.7,0C166.9,101.4,167.5,99.2,167.4,96.9L167.4,96.9z"/>
<path class="st1" d="M93.4,117.4c-2.5,1.8-5.3,3.2-8.2,4c-2.6,0.7-5.4,0.6-7.9-0.3c-3.2-1.1-4.7-3.7-5.3-6.8c-0.2-1.3-0.3-2.7-0.3-4
	c0-5.8,0-11.5,0-17.3c0-1.8-0.4-2.2-2.2-2.5c-2.1-0.3-2-0.3-2.1-2.4c0-0.6,0.1-0.8,0.8-0.9c4-0.6,7.9-1.3,11.8-1.9
	c0.9-0.1,1.3,0.3,1.3,1.3c0,7.7,0,15.5,0,23.2c0,0.7,0.1,1.4,0.3,2.1c0.6,2.7,3.1,4.5,5.8,4.2c2.8,0,5.2-2,5.7-4.7
	c0.2-0.7,0.2-1.3,0.2-2c0-5.5,0-11,0-16.5c0-0.4,0-0.8-0.1-1.2c-0.1-0.6-0.6-1-1.2-1c-0.7-0.1-1.5-0.3-2.2-0.3
	c-0.5,0-0.6-0.3-0.6-0.7c0-0.6,0-1.1,0-1.7c0-0.5,0.2-0.6,0.6-0.7c2.8-0.4,5.6-0.9,8.4-1.3l3-0.5c1.3-0.2,1.7,0.1,1.7,1.4
	c0,9.2,0,18.5,0,27.7c0,0.3,0,0.5,0,0.8c0,1.3,1,2.3,2.3,2.3c0,0,0.1,0,0.1,0c0.7,0,1.7-0.1,2.1,0.3c0.4,0.4,0,1.4,0.2,2.1
	c0.2,0.7-0.1,1-0.9,1c-3.9,0-7.9,0-11.8,0c-0.6,0-0.9-0.1-0.9-0.8C93.8,119.3,93.6,118.4,93.4,117.4z"/>
<path class="st1" d="M201.5,103.2c-2.9,0-5.8,0-8.7,0c-0.6,0-0.8,0.1-0.8,0.7c-0.1,3.2,0.8,6.3,2.4,9c2,3.1,4.9,4.2,8.8,3.1
	c3-0.8,5.5-2.9,6.6-5.9c0.2-0.5,0.4-0.7,0.9-0.3c0.2,0.1,0.3,0.2,0.5,0.3c1.9,1.1,1.9,1.1,1,3.1c-2,4.2-4.9,7.4-9.7,8.3
	c-6.3,1.1-12.1,0.1-16.6-4.9c-2-2.3-3.2-5.1-3.7-8.1c-0.8-3.9-0.6-7.9,0.4-11.7c1.8-6.6,6.4-10.2,13-11.4c2.8-0.5,5.7-0.3,8.4,0.5
	c5,1.2,8.6,5.3,9.2,10.4c0.2,1.2,0.3,2.4,0.3,3.5c0.2,1.6-0.9,3.1-2.5,3.3c-0.2,0-0.5,0-0.7,0c-0.5,0-1,0-1.5,0L201.5,103.2z
	 M197.4,99.4c1.5,0,3,0,4.5,0c0.6,0.1,1.1-0.3,1.2-0.9c0,0,0-0.1,0-0.1c0.5-2.6,0-5.3-1.5-7.5c-1.2-1.9-3.7-2.5-5.6-1.4
	c-0.1,0.1-0.3,0.2-0.4,0.3c-0.7,0.5-1.3,1.2-1.8,2c-1.1,2.2-1.7,4.6-1.8,7.1c0,0.5,0.3,0.5,0.6,0.5H197.4z"/>
<path class="st1" d="M135,150.1c1.3,0,2.6,0,3.8,0c0.7,0,0.8,0.2,0.9,0.8c0.2,8.1,4.6,15.5,11.6,19.5c9.2,5.5,20.9,3.4,27.8-4.8
	c3.7-4.1,5.7-9.4,5.9-14.9c0-0.5,0.2-0.6,0.7-0.6c2.7,0,5.2,0,7.9,0c0.7,0,0.8,0.2,0.8,0.9c-0.6,6.3-3.1,12.3-7.1,17.1
	c-11.5,13.7-31.8,15.5-45.5,4c-5.5-4.6-9.3-10.9-10.8-17.9c-0.2-1.2-0.4-2.3-0.5-3.5c0-0.5,0.1-0.6,0.5-0.6
	C132.2,150.1,133.6,150.1,135,150.1z"/>
<path class="st1" d="M220.1,102.2c0-3.7,0-7.5,0-11.2c0-0.8-0.2-1-0.9-0.9c-0.7,0.1-1.8,0-2.7,0c-0.5,0-0.7-0.1-0.7-0.6
	c0-0.1,0-0.1,0-0.2c-0.2-0.9-0.1-1.9,0.1-2.8c0.4-0.9,1.7-0.4,2.6-0.7c3.2-1,5.8-3.6,6.8-6.8c0.7-1.7,0.6-1.7,2.5-1.7
	c1.9,0,1.9,0,1.9,1.9s0,4,0,6.1c0,0.7,0.2,0.8,0.9,0.8c2,0,4,0,6,0c0.5,0,0.7,0.1,0.7,0.7c0,0.9,0,1.8,0,2.7c0,0.6-0.2,0.7-0.7,0.7
	c-2,0-4,0-6.1,0c-0.6,0-0.7,0.1-0.7,0.7c0,6.7,0,13.3,0,20.1c0,0.7,0.1,1.3,0.2,1.9c0.2,2.2,2.2,3.8,4.4,3.6c0.2,0,0.5-0.1,0.7-0.1
	c0.8-0.1,1.6-0.3,2.4-0.6c0.5-0.1,0.6,0,0.8,0.4c0.7,2.4,1.2,1.8-1.1,3.1c-2.7,1.7-5.7,2.6-8.9,2.7c-4.1,0.2-7.6-2.8-8-6.9
	c-0.1-0.7-0.2-1.5-0.2-2.2C220.1,109.2,220.1,105.7,220.1,102.2z"/>
<path class="st1" d="M144.9,176.7c-2.5,1.1-5.1,1.9-7.8,2.3c-9.9,1.7-20-1.3-27.3-8.2c-5.7-5.2-9.3-12.4-9.9-20.2
	c0-0.5,0-0.7,0.6-0.7c2.6,0,5.2,0,7.9,0c0.6,0,0.7,0.3,0.7,0.8c0.7,10.1,5.7,17.3,14.9,21.5c4.5,1.9,9.6,2.2,14.3,0.7
	c0.4-0.2,0.9-0.1,1.3,0.1C141.2,174.4,143,175.5,144.9,176.7z"/>
<path class="st2" d="M90.4,141.9h-3.1c0.7-0.5,0.6-1.2,0.6-1.9c0-1.6,0-3.3-0.2-4.9l-3.5,6.7l-3.5-6.9c-0.3,3-0.2,6.1,0.4,6.9
	c-1,0.1-2,0.1-3,0c0.5-0.3,0.7-0.8,0.6-1.4c0-2.4,0-4.8,0-7.1c0-0.5,0.1-1-0.4-1.3h3.6c-0.6,0.5-0.2,1,0,1.5l2.2,4.5
	c1.1-1.2,2.9-5.2,2.7-6h3.5c-0.6,0.5-0.5,1.1-0.5,1.6c0,2.3,0,4.7,0,7C89.8,141.2,90,141.7,90.4,141.9z"/>
<path class="st2" d="M139.5,141.9h-3.7c0.5-0.5,0.3-0.9,0-1.3c-0.3-0.4-0.6-0.8-0.8-1.3c-0.6-1.5-1.8-1.6-3.1-1.5
	c-0.3,0-0.5,0.1-0.5,0.5c0,0.9,0,1.8,0,2.7c0,0.4,0.3,0.5,0.6,0.9h-3.3c0.4-0.3,0.7-0.8,0.6-1.3c0-2.4,0-4.8,0-7.2
	c0.1-0.5-0.1-1-0.4-1.4h2.4c1.5,0,3.1-0.1,4.6,0.1c1.6,0,2.9,1.2,2.9,2.8c0,0.3,0,0.6-0.1,0.9c-0.2,0.9-0.9,1.6-1.7,1.9
	c-0.7,0.2-0.6,0.5-0.3,1c0.4,0.6,0.8,1.2,1.2,1.8C138.4,140.9,138.9,141.4,139.5,141.9z M133.5,136.4L133.5,136.4c0.7,0,1.3,0,2-0.1
	s1.2-0.5,1.2-1.3c0-0.6-0.5-1.2-1.1-1.2c-0.1,0-0.1,0-0.2,0c-1.2,0-2.4,0-3.6-0.1c-0.3,0-0.4,0.1-0.5,0.5c-0.2,2.2-0.2,2.2,1.9,2.2
	L133.5,136.4z"/>
<path class="st2" d="M187.2,131.3v3c-0.3-0.4-0.8-0.6-1.3-0.5c-1.5,0-3,0-4.5,0c-0.8,0-1,0.2-0.9,0.9c0,0.1,0,0.2,0,0.4
	c-0.1,0.6,0.1,0.9,0.8,0.9c0.7-0.1,1.6,0,2.4,0c0.5,0.1,1.1-0.1,1.3-0.7v2.8c-0.3-0.4-0.8-0.7-1.3-0.5h-1.9c-1.3,0-1.3,0-1.3,1.3
	s-0.2,1.2,1.2,1.2h4.5c0.5,0.1,1-0.2,1.1-0.7v3c-0.4-0.6-1-0.5-1.6-0.5h-7.9c0.5-0.6,0.6-1.3,0.5-2c0-2.1,0-4.3,0-6.4
	c0.1-0.6,0-1.1-0.4-1.6h8C186.3,132,186.8,132,187.2,131.3z"/>
<path class="st2" d="M234.1,133l-1.2,2.3c-1.1-1.4-2.9-2-4.6-1.6c-0.3,0.1-0.6,0.2-0.9,0.3c-0.3,0.2-0.5,0.5-0.5,0.9
	c0,0.4,0.4,0.7,0.7,0.7c0.9,0.1,1.7,0.2,2.6,0.3c0.8,0,1.6,0.2,2.3,0.6c1.4,0.5,2,2.1,1.5,3.5c-0.2,0.5-0.6,0.9-1,1.2
	c-1.6,1-3.5,1.4-5.3,0.9c-0.6-0.1-1.2-0.3-1.8-0.6c-0.4-0.3-0.9-0.3-1.3-0.1c0.3-0.9,0.6-1.7,1-2.5c1.5,1.5,3.8,2,5.7,1.1
	c0.4-0.2,0.6-0.6,0.6-1c-0.1-0.5-0.5-0.7-1-0.8c-1.2-0.1-2.4-0.2-3.6-0.4c-1.6-0.2-2.4-1-2.6-2.2c-0.2-1.4,0.6-2.8,1.9-3.3
	c1.8-0.7,3.8-0.6,5.5,0.1c0.5,0.2,1,0.7,1.7,0.3L234.1,133z"/>
<path class="st2" d="M163.9,132c-0.3,0.6-0.9,0.7-1.2,1c-1,0.9-2,1.7-3,2.5c-0.4,0.3-0.5,0.6-0.1,1c1.4,1.9,3,3.7,4.7,5.3h-3.7
	c-0.2,0-0.3-0.2-0.2-0.3c0.4-0.3,0.1-0.5,0-0.8c-0.8-1-1.6-2-2.4-3c-0.3-0.3-0.5-0.4-0.8-0.1c-1.1,1.1-1.3,2.9-0.5,4.2
	c-1.1,0.1-2.2,0.1-3.2,0c0.5-0.3,0.7-0.8,0.7-1.3c0-2.4,0-4.8,0-7.1c0-0.5,0.1-1-0.4-1.3h2.9c-0.7,1.2-0.2,2.6-0.2,4
	c1.3-1.1,2.5-2.1,3.8-3.1c0.4-0.3-0.2-0.5-0.2-0.8L163.9,132z"/>
<path class="st2" d="M107.8,132h3.3c-0.7,0.5-0.4,1-0.2,1.6c1,2.1,2,4.3,3.1,6.4c0.2,0.8,0.7,1.4,1.3,1.9h-3.6
	c0.8-0.8,0-1.5-0.2-2.2c-0.1-0.4-0.4-0.3-0.7-0.3c-0.9,0-1.9,0-2.9,0c-0.4,0-0.9-0.2-1.1,0.5s-1,1.3,0,2h-3.2
	c0.8-0.8,1.4-1.8,1.8-2.9c0.9-1.9,1.7-3.8,2.7-5.6C108.3,132.9,108.4,132.5,107.8,132z M109.3,134.7l-1.4,3c-0.2,0.3,0,0.4,0.3,0.4
	h2.1c0.4,0,0.5-0.1,0.3-0.5C110.2,136.6,109.8,135.7,109.3,134.7L109.3,134.7z"/>
<path class="st2" d="M210.8,131.6v2.7c-1.1-0.7-2.3-0.3-3.4-0.4c-0.4,0-0.3,0.3-0.3,0.5c0,2.2,0,4.5,0,6.7c0,0.4,0.3,0.5,0.4,0.9
	h-3.2c0.7-0.5,0.6-1,0.6-1.6c0-1.9,0-3.7,0-5.6c0-0.8-0.2-1-0.9-0.9c-0.5,0-1.1,0-1.6,0c-0.5-0.1-1,0.2-1.2,0.6v-3
	c0.4,0.6,0.9,0.6,1.3,0.6h6.8C209.9,131.9,210.4,132.1,210.8,131.6z"/>
<path class="st1" d="M133.5,136.4h-0.2c-2.1,0-2.1,0-1.9-2.2c0-0.3,0.1-0.5,0.5-0.5c1.2,0,2.4,0,3.6,0.1c0.6-0.1,1.2,0.4,1.3,1
	c0,0.1,0,0.1,0,0.2c0,0.8-0.5,1.2-1.2,1.3C134.8,136.5,134.2,136.5,133.5,136.4L133.5,136.4z"/>
<path class="st1" d="M109.3,134.6c0.5,1.1,0.9,2,1.3,2.9c0.2,0.4,0,0.5-0.3,0.5h-2.1c-0.3,0-0.5-0.1-0.3-0.4L109.3,134.6z"/>
</svg>
