<?xml version="1.0" encoding="utf-8"?>
<!-- Generator: Adobe Illustrator 21.1.0, SVG Export Plug-In . SVG Version: 6.00 Build 0)  -->
<svg version="1.1" id="Layer_1" xmlns="http://www.w3.org/2000/svg" xmlns:xlink="http://www.w3.org/1999/xlink" x="0px" y="0px"
	 viewBox="0 0 250 250" style="enable-background:new 0 0 250 250;" xml:space="preserve">
<style type="text/css">
	.st0{fill:#6F0A28;}
	.st1{fill:#FAF7F8;}
</style>
<title>Grocery</title>
<path class="st0" d="M121.2,66h6.9c0.8,0,1.5,0,2.3,0.1l3.8,0.2c0.2,0.1,0.4,0.1,0.6,0c0.5,0.1,1,0.2,1.5,0.2c0.1,0.1,0.3,0.1,0.5,0
	c1.4,0.3,2.9,0.4,4.3,0.6c0.1,0,0.3,0,0.4,0c0.3,0.1,0.6,0.2,0.9,0.2c0.1,0,0.2,0,0.3,0c0.2,0.1,0.5,0.2,0.8,0.2
	c0.1,0.1,0.2,0.1,0.3,0c0.7,0.2,1.4,0.3,2.1,0.4c0.1,0,0.2,0,0.3,0c0.2,0.1,0.5,0.2,0.7,0.2h0.2c0.2,0.1,0.4,0.2,0.6,0.2
	c0.1,0,0.1,0,0.2,0c0.6,0.2,1.2,0.3,1.8,0.4h0.1c0.2,0.1,0.4,0.2,0.6,0.2c0.1,0,0.1,0,0.2,0c1,0.3,1.9,0.5,2.9,0.8
	c0.1,0,0.1,0,0.2,0c0.6,0.2,1.3,0.4,1.9,0.6c0.1,0,0.1,0,0.2,0c0.8,0.3,1.6,0.6,2.4,0.8h0.2c0.1,0.1,0.2,0.1,0.3,0.1
	c1.9,0.6,3.7,1.3,5.5,2c3.1,1.3,6.2,2.7,9.2,4.3c1.3,0.7,2.6,1.5,3.9,2.2l0,0c0.3,0.3,0.6,0.5,1,0.6l0,0c0.4,0.4,0.9,0.7,1.4,0.9
	l0.1,0.1c0.7,0.6,1.5,1.1,2.3,1.6l0,0c0,0.1,0.1,0.1,0.2,0.1c0.1,0.1,0.2,0.2,0.3,0.2c0.3,0.3,0.6,0.6,1,0.7c0,0.1,0.1,0.1,0.2,0.1
	c0.1,0.2,0.3,0.3,0.5,0.3l0,0c0.7,0.2,1.5,0.4,2.2,0.5c0.1,0,0.2,0,0.3,0c1.2,0.3,2.5,0.5,3.7,0.8c0.1,0,0.1,0,0.2,0
	c1.1,0.3,2.2,0.5,3.4,0.8c0.1,0,0.1,0,0.2,0c0.2,0.1,0.5,0.2,0.7,0.2h0.2c0.7,0.2,1.5,0.4,2.3,0.6c0.1,0,0.1,0,0.2,0
	c1,0.3,1.9,0.6,2.9,0.8c0.1,0,0.1,0,0.2,0c0.9,0.3,1.8,0.6,2.7,0.8c0.1,0,0.1,0,0.2,0c0.5,0.2,1.1,0.4,1.6,0.5l3.2,1
	c0.1,0,0.1,0,0.2,0c0.1,0,0.3,0.1,0.4,0.2c0.7,0.3,1.4,0.5,2.1,0.8c0.3,0.1,0.3,0.2,0.2,0.5c0,0.1,0,0.2,0,0.3c0,0.1,0,0.1,0,0.2
	c-0.1,0.1-0.2,0.3-0.1,0.5c0,0.1,0,0.2,0,0.3c-0.1,0.2-0.2,0.3-0.1,0.5c0,0.1,0,0.1,0,0.2c-0.2,0.7-0.4,1.5-0.6,2.3
	c0,0.1,0,0.1,0,0.2c-0.1,0.2-0.2,0.4-0.2,0.6c0,0.1,0,0.1,0,0.2c-0.3,0.7-0.3,1.4-0.6,2.1c-0.1,0.2,0,0.3,0.3,0.3s0.7,0,1.1,0h33.2
	c0.2,0,0.4-0.1,0.5,0.1v54.1h-0.5h-47.1c-0.1,0-0.2-0.1-0.3,0.1c-0.1,0-0.1,0.1-0.1,0.1c-0.1,0-0.1,0.1-0.2,0.2
	c-0.1,0-0.1,0.1-0.1,0.2c0,0,0,0,0,0c-0.1,0.1-0.2,0.2-0.2,0.3c-0.1,0-0.1,0.1-0.1,0.2c-0.1,0-0.1,0.1-0.1,0.2
	c-0.1,0-0.1,0.1-0.1,0.2c-0.1,0.1-0.2,0.2-0.3,0.3c0,0-0.1,0-0.1,0.1c0,0,0,0,0,0c-0.1,0-0.1,0.1-0.1,0.2l0,0
	c-0.1,0.1-0.3,0.2-0.3,0.4c-0.1,0-0.1,0.1-0.1,0.1c-0.1,0-0.2,0.1-0.2,0.2l0,0c0,0-0.1,0,0,0.1c-0.1,0-0.1,0.1-0.1,0.1
	c-0.1,0-0.1,0.1-0.2,0.2l0,0c-0.1,0-0.1,0.1-0.1,0.2c-0.1,0.1-0.3,0.2-0.3,0.3c-0.1,0-0.1,0.1-0.2,0.2l0,0c-0.1,0-0.1,0.1-0.1,0.2
	c-0.1,0-0.2,0.1-0.2,0.3c-0.1,0-0.1,0-0.1,0.1c0,0,0,0,0,0l0,0c-0.2,0.1-0.4,0.3-0.5,0.6c-0.2,0.1-0.4,0.3-0.5,0.5
	c-0.1,0-0.1,0.1-0.2,0.2c-0.1,0-0.2,0.1-0.2,0.2c-0.1,0-0.1,0.1-0.1,0.1c-0.1,0.1-0.3,0.2-0.3,0.3l-0.1,0.1c-0.1,0-0.2,0.1-0.2,0.2
	c-0.1,0-0.1,0.1-0.1,0.1c0,0,0,0,0,0c-0.1,0.1-0.2,0.2-0.2,0.3c-0.1,0-0.1,0-0.1,0.1c-0.1,0-0.1,0.1-0.2,0.2c-0.1,0-0.2,0.1-0.2,0.2
	l0,0c-0.1,0-0.1,0-0.1,0.1c0,0,0,0,0,0c-0.1,0-0.2,0.1-0.2,0.2c-0.1,0-0.1,0.1-0.1,0.1c-0.1,0-0.2,0.2-0.3,0.3
	c-0.1,0-0.2,0.1-0.2,0.2c-0.1,0-0.2,0.1-0.2,0.2c-0.1,0-0.2,0.1-0.3,0.2c-0.2,0.1-0.3,0.2-0.4,0.3l0,0c-0.1,0-0.2,0.1-0.2,0.2
	c-0.2,0.1-0.3,0.2-0.4,0.3l0,0c-0.1,0-0.2,0.1-0.2,0.2l0,0c-0.1,0-0.1,0-0.1,0.1v0c-0.1,0-0.1,0.1-0.2,0.1c-0.1,0-0.2,0.1-0.2,0.1
	l0,0c0,0-0.1,0-0.1,0.1c-0.2,0.1-0.3,0.2-0.4,0.3c-0.1,0-0.2,0.1-0.3,0.2c-0.1,0-0.2,0.1-0.2,0.2c-0.1,0-0.1,0-0.1,0.1c0,0,0,0,0,0
	c-0.1,0-0.2,0.1-0.2,0.2c-0.1,0-0.2,0.1-0.2,0.2l0,0c-0.1,0-0.1,0-0.1,0.1c0,0,0,0,0,0l0,0c-0.2,0.1-0.3,0.2-0.4,0.3l0,0l0,0
	c-0.1,0-0.2,0-0.2,0.1c0,0,0,0,0,0l0,0c-0.1,0-0.2,0.1-0.2,0.2l0,0c-0.1,0-0.1,0-0.1,0.1l-0.3,0.2l0,0l-0.2,0.1
	c-0.1,0-0.2,0.1-0.3,0.2c-0.1,0.1-0.2,0.2-0.3,0.3h-0.1c-0.1,0-0.2,0.1-0.3,0.2l0,0c-0.1,0-0.1,0-0.1,0.1c0,0,0,0,0,0
	c-0.1,0-0.2,0.1-0.2,0.2c0,0-0.1,0-0.1,0.1c0,0,0,0,0,0c-0.1,0-0.1,0-0.2,0.1c-0.2,0.1-0.3,0.2-0.5,0.3l0,0c-0.2,0-0.3,0.1-0.4,0.3
	l0,0c-0.1,0-0.2,0-0.2,0.1l0,0c-0.1,0-0.1,0-0.1,0.1c-0.1,0-0.3,0.1-0.3,0.2c-0.1,0-0.2,0-0.2,0.1c0,0,0,0,0,0
	c-0.2,0.1-0.4,0.2-0.5,0.3c-0.1,0-0.1,0-0.1,0.1c0,0,0,0,0,0c-0.1,0-0.3,0.1-0.3,0.2c-0.1,0-0.2,0-0.2,0.1l-0.1,0.1
	c-0.4,0.2-0.8,0.4-1.1,0.7l-0.2,0.1c-0.4,0.2-0.7,0.4-1,0.6c-0.1,0-0.2,0.1-0.2,0.1c-0.2,0-0.4,0.1-0.5,0.3l-0.1,0.1
	c-0.2,0-0.5,0.2-0.6,0.4l-0.2,0.1c-0.6,0.3-1.3,0.7-1.9,1.1l0,0l-0.3,0.2c-0.1,0-0.1,0-0.1,0.1c0,0,0,0,0,0c-0.1,0-0.3,0.1-0.4,0.1
	c-3.4,1.8-6.9,3.4-10.5,4.8c-1.8,0.7-3.6,1.3-5.5,1.9l-3.1,1c-0.1,0-0.1,0-0.2,0c-1.2,0.3-2.4,0.6-3.5,0.9h-0.2
	c-0.2,0-0.4,0-0.5,0.1c-0.1,0-0.2,0-0.3,0c-0.9,0.1-1.7,0.3-2.6,0.6h-0.2c-0.3,0-0.5,0-0.8,0.2h-0.2c-0.7,0.1-1.4,0.2-2.1,0.4
	c-0.1,0-0.1,0-0.2,0c-0.3,0-0.7,0-1,0.2h-0.2c-0.3,0-0.6,0-0.9,0.2c-0.1,0-0.2,0-0.3,0c-0.3,0-0.6,0-0.9,0.1
	c-1.2,0.2-2.4,0.2-3.6,0.5c-0.1-0.1-0.3-0.1-0.4,0c-0.5,0-1,0-1.5,0.1c-0.2,0-0.4,0-0.6,0c-0.2,0-0.3,0-0.5,0
	c-2.1,0.2-4.2,0.3-6.3,0.3h-5c-0.9,0-1.8,0-2.7-0.1c-1.3-0.1-2.7-0.2-4.1-0.3c-0.2,0-0.4,0-0.6,0c-0.5-0.1-1.1-0.2-1.6-0.2
	c-0.1,0-0.3,0-0.4,0c-0.4-0.1-0.9-0.2-1.3-0.2c-0.1-0.1-0.2-0.1-0.3,0c-0.9-0.2-1.9-0.3-2.8-0.4c-0.1,0-0.3,0-0.4,0
	c-0.3-0.1-0.6-0.2-0.9-0.2c-0.1,0-0.2,0-0.3,0c-0.3-0.1-0.6-0.2-0.9-0.2H106c-0.7-0.2-1.5-0.3-2.2-0.4h-0.2c-0.5-0.2-1-0.3-1.5-0.3
	c-0.1,0-0.1,0-0.2,0l-3.4,0.3c-0.1,0-0.1,0-0.2,0c-0.7-0.2-1.5-0.4-2.2-0.6h-0.2c-0.1-0.1-0.3-0.2-0.4-0.1c-0.1,0-0.1,0-0.2,0
	c-0.6-0.2-1.3-0.4-1.9-0.6h-0.2c-0.2-0.2-0.5-0.3-0.8-0.3l-3.3-1.1h-0.2c-0.1-0.1-0.1-0.1-0.2-0.1l-3.2-1.2c-3-1.3-6-2.7-8.9-4.3
	c-1.2-0.7-2.5-1.3-3.7-2l0,0c-0.5-0.4-1-0.7-1.5-0.9h-0.1c-0.1-0.1-0.2-0.2-0.3-0.2l0,0c-0.3-0.3-0.6-0.5-1-0.6l0,0
	c-0.1-0.1-0.2-0.2-0.3-0.2l0,0c-0.4-0.3-0.8-0.6-1.2-0.8l0,0c-0.2-0.2-0.4-0.3-0.6-0.4l0,0l0,0c-0.1-0.2-0.3-0.3-0.5-0.4l0,0
	c-0.1-0.1-0.2-0.2-0.3-0.2l0,0c-0.6-0.5-1.2-1-1.9-1.4l0,0c-0.1-0.1-0.2-0.2-0.4-0.3l0,0c0-0.1-0.1-0.2-0.2-0.2l0,0l0,0
	c-0.1-0.2-0.3-0.3-0.5-0.4c0-0.1-0.1-0.1-0.2-0.1c0-0.1-0.1-0.1-0.1-0.1c0,0,0,0,0,0c0-0.1-0.1-0.2-0.2-0.2
	c-0.1-0.1-0.2-0.2-0.3-0.2c0-0.1-0.1-0.2-0.2-0.2c-0.1-0.1-0.2-0.2-0.3-0.3c-0.1-0.1-0.1-0.1-0.2-0.2c-1.1-0.9-2.2-1.9-3.2-2.9
	c-2.4-2.3-4.7-4.9-6.7-7.6c-0.2-0.3-0.4-0.4-0.7-0.4H5.1c-0.2,0-0.3,0-0.5,0V99.9c0.1-0.2,0.4-0.1,0.5-0.1h34.4c0.3,0,0.6,0,0.3-0.4
	v-0.1c0-0.2-0.1-0.4-0.2-0.6v-0.1c-0.1-0.5-0.2-1-0.4-1.5c0-0.1,0-0.1,0-0.2c0-0.2-0.1-0.5-0.2-0.7v-0.1c0-0.2,0-0.4-0.2-0.6v-0.1
	c-0.1-0.5-0.2-1.1-0.4-1.6c0-0.1,0-0.1,0-0.2c0-0.2,0-0.4-0.1-0.5c0-0.1,0-0.1,0-0.2c0-0.2,0-0.4-0.1-0.6c-0.1-0.4,0-0.6,0.4-0.7
	c0.8-0.3,1.6-0.6,2.4-0.9c0.1,0,0.1,0,0.2,0c0.8-0.2,1.5-0.5,2.3-0.8c0.1,0,0.1,0,0.2,0c0.2,0,0.4-0.1,0.6-0.2
	c0.6-0.2,1.2-0.4,1.8-0.6c0.1,0,0.1,0,0.2,0c0.9-0.2,1.8-0.5,2.7-0.8c0.1,0,0.1,0,0.2,0c1-0.2,2-0.5,2.9-0.8c0.1,0,0.1,0,0.2,0
	c1-0.2,2.1-0.4,3.1-0.8c0.1,0,0.2,0,0.3,0c0.2,0,0.4,0,0.5-0.2c0.1,0,0.1,0,0.2,0c0.9-0.1,1.8-0.3,2.7-0.6c0.1,0,0.1,0,0.2,0
	c0.2-0.1,0.3-0.3,0.4-0.5c0.1,0,0.1,0,0.2,0c1-0.2,2-0.3,2.9-0.6c0.1,0,0.1,0,0.2,0c0.4,0,0.8-0.1,1.2-0.2c0.4,0,0.7-0.1,1-0.3
	l0.1-0.1c0.2,0,0.3-0.1,0.4-0.3c0.1,0,0.2-0.1,0.3-0.2c0,0,0.1,0,0.1-0.1l0.1-0.1c0.4-0.2,0.7-0.4,1-0.7l0.1-0.1
	c0.1,0,0.1,0,0.2-0.1c0,0,0,0,0,0l0.1-0.1c0.8-0.5,1.5-1,2.2-1.5l0,0c0.5-0.3,1-0.6,1.5-1l0.1-0.1c0.5-0.2,1-0.5,1.5-0.9
	c0.1,0,0.1,0,0.1-0.1c0.8-0.3,1.5-0.8,2.2-1.2l3.1-1.7h0.1c0.1,0,0.2,0,0.3-0.1c1.5-0.7,2.9-1.4,4.4-2.1c0.5-0.2,1-0.4,1.5-0.7h0.2
	l3.3-1.3c0.8-0.3,1.7-0.5,2.4-0.9c0.1,0,0.1,0,0.2,0l4.1-1.2c0.5-0.1,1.1-0.3,1.6-0.5c0.1,0,0.1,0,0.2,0c1-0.2,2-0.5,3-0.8
	c0.1,0,0.1,0,0.2,0c0.6-0.1,1.2-0.2,1.8-0.4c0.1,0,0.1,0,0.2,0c0.2,0,0.5-0.1,0.7-0.2c0.1,0,0.1,0,0.2,0c0.2,0,0.5,0,0.7-0.1
	c0.1,0,0.2,0,0.3,0c1-0.2,2.1-0.3,3.1-0.6c0.1,0.1,0.2,0.1,0.3,0c0.3,0,0.6-0.1,0.9-0.2h0.2c0.5,0,1-0.1,1.5-0.2c1-0.1,2-0.2,3-0.4
	c0.1,0.1,0.3,0.1,0.4,0c0.5,0,1,0,1.5-0.1c0.2,0.1,0.4,0.1,0.7,0c0.2,0,0.3,0,0.5,0C117.6,66.2,119.4,66,121.2,66z M124.6,152.3
	h117.7c0.4,0,0.6,0,0.6-0.5c0-16.6,0-33.1,0-49.7c0-0.4-0.1-0.5-0.6-0.5h-35c-0.2,0-0.3-0.1-0.3-0.3c0.1-0.2,0.2-0.7,0.3-1.1
	c0.5-2.1,1-4.1,1.5-6.2c0.2-0.6,0.1-0.6-0.5-0.8c-1.8-0.6-3.6-1.1-5.4-1.7c-1.8-0.5-4-1.1-6.1-1.7c-1.8-0.5-3.6-0.9-5.3-1.3
	c-2.3-0.5-4.5-1-6.8-1.3c-0.9-0.1-1.7-0.4-2.3-1c-0.3-0.2-0.5-0.5-0.8-0.7c-4.2-3.1-8.6-5.8-13.3-8c-3.6-1.7-7.4-3.2-11.2-4.4
	c-2.7-0.9-5.5-1.6-8.3-2.3c-3.3-0.8-6.7-1.3-10-1.8c-3.5-0.5-7.1-0.8-10.7-0.9c-4.6-0.1-9.1,0-13.7,0.5c-3.4,0.4-6.7,0.9-10.1,1.5
	c-3.3,0.6-6.9,1.5-10.3,2.5c-2.8,0.9-5.6,1.9-8.4,2.9c-3.3,1.3-6.5,2.9-9.6,4.6c-3.4,1.9-6.6,4-9.6,6.4c-0.3,0.2-0.6,0.4-1,0.4
	c-2.5,0.4-5,0.9-7.4,1.5c-2.1,0.5-4.1,0.9-6.1,1.5c-1.6,0.4-3.2,0.9-4.8,1.3c-2.1,0.6-4.1,1.3-6.2,1.9c-0.6,0.2-0.6,0.2-0.4,0.8
	c0.6,2.3,1.2,4.7,1.7,7c0.1,0.6,0.1,0.6-0.5,0.6H6.9c-0.4,0-0.5,0.1-0.5,0.5c0,0.1,0,0.2,0,0.4c0,16.4,0,32.9,0,49.3
	c0,0.4,0.1,0.5,0.5,0.5L124.6,152.3z M188.1,160.9c-0.1-0.1-0.2-0.1-0.3,0c-1.1,0-2.2,0-3.2,0c-0.4,0-0.7,0.1-1,0.4
	c-2.9,2.5-5.9,4.8-9.2,6.8c-2.9,1.8-5.8,3.4-8.9,4.8c-1.8,0.8-3.6,1.6-5.3,2.3c-2,0.8-4.1,1.5-6.2,2.1c-2.4,0.7-4.8,1.3-7.2,1.9
	c-3.3,0.7-6.7,1.3-10,1.7c-3.6,0.4-7.1,0.6-10.7,0.7c-3,0-6.1-0.1-9.1-0.3c-3.3-0.2-6.6-0.6-9.8-1.2c-2.5-0.4-5-1-7.5-1.6
	c-3.2-0.8-6.4-1.8-9.6-3c-4.1-1.5-8.2-3.4-12-5.6c-4.4-2.5-8.5-5.4-12.3-8.8c-0.2-0.2-0.5-0.3-0.7-0.2h-3.4c-0.1,0-0.3-0.1-0.3,0.1
	s0.1,0.2,0.2,0.3c1.3,1.2,2.7,2.4,4,3.5c3.9,3.1,8.1,5.8,12.5,8.1c4.1,2.1,8.3,4,12.7,5.5c2.1,0.7,4.1,1.3,6.2,1.9
	c3.2,0.9,6.4,1.5,9.6,2.1s6.5,0.9,9.8,1.2c2.2,0.2,4.3,0.3,6.5,0.3c2.4,0,4.8,0,7.1-0.1c1.9-0.1,3.7-0.2,5.6-0.4
	c2.7-0.3,5.4-0.6,8.1-1.1c2.7-0.5,5.7-1.2,8.6-1.9c2.3-0.6,4.5-1.3,6.8-2.1c2.5-0.9,4.9-1.9,7.3-2.9c2.9-1.3,5.7-2.7,8.4-4.3
	c4.3-2.5,8.2-5.4,11.9-8.7C187.2,161.9,187.7,161.4,188.1,160.9L188.1,160.9z M111.8,166.6c0-1.2-0.1-2.4,0-3.6c0-0.7,0-1.4,1-1.5
	c0.2,0,0.2-0.2,0.2-0.4c0-0.2-0.1-0.2-0.3-0.2h-3c-0.2,0-0.3,0-0.3,0.2c0,0.2,0,0.3,0.2,0.4l0.3,0.1c0.6,0.1,0.7,0.3,0.8,0.9
	c0.1,1.2,0.1,2.4,0.1,3.6c0,0.1,0,0.3-0.1,0.3c-0.1,0.1-0.2-0.1-0.3-0.2c-0.6-0.7-1.3-1.5-1.9-2.2c-0.9-0.9-1.6-1.9-2.2-3
	c0-0.1-0.1-0.1-0.2-0.1h-2.8c-0.2,0-0.3,0.1-0.3,0.3c0,0.2,0.1,0.3,0.3,0.3l0.4,0.1c0.4,0,0.7,0.4,0.6,0.7c0,0,0,0,0,0
	c0,1.9,0,3.7,0,5.5c0,0.6,0,1.4-1,1.5c-0.2,0-0.2,0.2-0.2,0.4c0,0.2,0.1,0.3,0.3,0.3s0.7,0,1,0h2c0.2,0,0.3,0,0.3-0.3s0-0.4-0.2-0.4
	l-0.3-0.1c-0.6-0.1-0.7-0.2-0.8-0.8c-0.2-1.6-0.1-3.2-0.1-4.8c0-0.1,0-0.2,0.1-0.3c0.1,0,0.1,0.1,0.2,0.2c1.2,1.4,2.3,2.9,3.5,4.3
	c0.6,0.7,1.1,1.4,1.6,2.1c0.1,0.2,0.4,0.3,0.6,0.2c0,0,0,0,0,0c0.2-0.1,0.5-0.1,0.5-0.5C111.8,168.6,111.8,167.6,111.8,166.6z
	 M91.8,170.2c0.6,0,1.1,0,1.6-0.2c1.6-0.5,2.6-2.2,2.1-3.8c-0.1-0.5-0.4-1-0.8-1.4c-0.5-0.5-1-0.9-1.6-1.2c-0.6-0.2-1.1-0.6-1.5-1
	c-0.4-0.4-0.5-0.9-0.3-1.4c0.2-0.5,0.7-0.8,1.2-0.8c0.6,0,1.2,0.3,1.5,0.8c0.2,0.3,0.4,0.5,0.5,0.9c0.1,0.2,0.3,0.4,0.5,0.3
	c0.2,0,0.3-0.2,0.3-0.4c0,0,0,0,0,0c0-0.6-0.1-1.2-0.2-1.8c0-0.1,0-0.3-0.2-0.3c-1.3-0.4-2.7-0.4-4,0c-1.5,0.6-2.1,2.3-1.5,3.7
	c0,0.1,0.1,0.1,0.1,0.2c0.5,0.8,1.2,1.5,2.1,1.9c0.7,0.3,1.2,0.7,1.6,1.3c0.5,0.6,0.4,1.6-0.3,2.1c-0.2,0.2-0.5,0.3-0.8,0.3
	c-0.6,0.1-1.2-0.2-1.6-0.6c-0.5-0.4-0.8-0.9-1-1.5c-0.1-0.2-0.3-0.4-0.6-0.3c0,0,0,0,0,0c-0.2,0-0.3,0.2-0.3,0.4
	c0,0.6,0.1,1.3,0.3,1.9c0.1,0.3,0.3,0.6,0.6,0.7C90.3,170,91.1,170.2,91.8,170.2L91.8,170.2z M148.7,164.6c0-2.7-1-4-2.9-4.5
	c-1.2-0.3-2.5,0-3.3,0.9c-0.9,0.9-1.2,2.2-0.8,3.4c0.5,1.4,2,2.2,3.4,1.7c0.1,0,0.3-0.1,0.4-0.2c0.2-0.1,0.4-0.2,0.3-0.5
	s-0.2-0.3-0.4-0.3c-0.4,0-0.8-0.3-1-0.6c-0.6-0.8-0.7-1.8-0.4-2.8c0.1-0.5,0.4-0.9,0.9-0.9c0.4,0,0.8,0.3,1,0.7
	c0.7,1.4,0.8,3,0.3,4.5c-0.5,1.9-1.9,3.4-3.8,4c-0.2,0.1-0.6,0.1-0.5,0.5s0.4,0.3,0.6,0.2c1.1-0.2,2.2-0.6,3.2-1.3
	C147.4,168.6,148.6,166.7,148.7,164.6L148.7,164.6z M126.8,160.8h-3.1c-0.2,0-0.4,0-0.4,0.3c0,0.2,0.1,0.4,0.3,0.4c0,0,0,0,0,0h0.3
	c0.3,0,0.5,0.3,0.5,0.6c0,0,0,0,0,0c0,0.7,0.1,1.3,0.1,1.9c0,1.4,0,2.9,0,4.3c0,0.7,0,0.7-0.7,0.9h-0.3c-0.2,0-0.4,0.1-0.4,0.4
	s0.2,0.3,0.4,0.3c0.5,0,1,0,1.5,0c1.7,0,3.3,0,5,0c0.3,0.1,0.5-0.1,0.6-0.4c0,0,0,0,0,0c0.1-0.4,0.3-0.8,0.3-1.2
	c0-0.3,0.3-0.7-0.2-0.8s-0.5,0.3-0.6,0.5c-0.3,0.7-0.9,1.1-1.7,1.1c-0.4,0-0.7,0-1.1,0c-0.6,0-0.8-0.3-0.9-0.8c0-0.7,0-1.5,0-2.2
	c0-0.2,0-0.4,0.2-0.4c0.5-0.1,1-0.1,1.5,0.1c0.3,0.1,0.3,0.5,0.4,0.8s0.2,0.3,0.4,0.3c0.2,0,0.3-0.1,0.3-0.3c0,0,0,0,0-0.1
	c-0.1-0.8-0.1-1.7,0-2.5c0-0.3-0.1-0.4-0.4-0.4s-0.3,0.2-0.3,0.4c-0.1,0.4-0.2,0.7-0.7,0.8h-1.1c-0.2,0-0.4,0-0.4-0.3
	c0-0.8,0-1.7,0-2.5c0-0.1,0-0.3,0.2-0.3c0.7-0.1,1.4,0,2.1,0.2c0.5,0.2,0.6,0.7,0.8,1.1l0,0c0.1,0.3,0.3,0.2,0.5,0.2
	c0.2,0,0.2-0.2,0.2-0.4c0-0.5-0.1-1.1-0.1-1.6c0-0.3-0.2-0.4-0.5-0.4L126.8,160.8z M119.3,170.1c0.7-0.1,1.5-0.2,2.2-0.4
	c0.3-0.1,0.4-0.3,0.5-0.5c0.1-0.5,0.2-0.9,0.3-1.4c0-0.2,0.1-0.5-0.2-0.6c-0.3-0.1-0.5,0.1-0.6,0.4c-0.4,1-1.3,1.7-2.4,1.8
	c-1.1,0.1-2.1-0.5-2.5-1.5c-0.9-1.6-0.9-3.5,0-5.1c0.6-1.2,2-1.7,3.3-1.2c0.7,0.3,1.3,0.9,1.5,1.6c0.1,0.2,0.2,0.3,0.4,0.2
	c0,0,0,0,0,0c0.2,0,0.3-0.2,0.3-0.4c0-0.6-0.1-1.1-0.1-1.7c0-0.2,0-0.3-0.2-0.3c-1.8-0.5-3.7-0.5-5.4,0.2c-2.4,1.1-3.4,3.9-2.3,6.3
	c0.2,0.5,0.5,0.9,0.9,1.3c1.2,1.1,2.9,1.7,4.5,1.6L119.3,170.1z M154.1,164.5c0-1.4,0-2.7,0-4c0-0.5-0.1-0.6-0.6-0.4
	c-0.4,0.1-0.7,0.3-1,0.4c-0.6,0.2-1.2,0.3-1.8,0.4c-0.2,0-0.4,0.1-0.4,0.4c0,0.3,0.2,0.4,0.4,0.4h0.3c0.7,0.1,0.8,0.3,0.8,1
	c0,1.8,0,3.6,0,5.3c0,1.2,0,1.2-1.1,1.3c-0.2,0-0.4,0.1-0.4,0.4s0.2,0.4,0.4,0.4c0.6,0,1.2,0,1.7,0h2.7c0.3,0,0.4-0.1,0.4-0.4
	c0-0.2-0.1-0.4-0.3-0.4c0,0,0,0-0.1,0h-0.4c-0.6-0.1-0.7-0.2-0.7-0.9C154.2,167.1,154.2,165.8,154.1,164.5L154.1,164.5z
	 M139.2,164.4L139.2,164.4c0-1.3,0-2.7,0-3.9c0-0.5-0.2-0.6-0.6-0.4c-0.9,0.4-1.8,0.6-2.8,0.8c-0.2,0-0.4,0.2-0.4,0.4c0,0,0,0,0,0
	c0,0.2,0.1,0.3,0.3,0.4c0,0,0.1,0,0.1,0c0.2,0,0.4,0,0.5,0.1c0.4,0,0.7,0.3,0.6,0.7c0,0,0,0,0,0.1c0,1.9,0,3.9,0,5.8
	c0,0.8-0.1,1-1,1c-0.3,0-0.5,0-0.5,0.4c0,0.4,0.3,0.4,0.5,0.3c1.1-0.1,2.3,0,3.4,0c0.3,0,0.7,0,1,0c0.2,0,0.3-0.1,0.4-0.3
	c0,0,0,0,0-0.1c0-0.2-0.1-0.4-0.3-0.4c0,0,0,0-0.1,0h-0.3c-0.8,0-0.9-0.2-0.9-1C139.3,167,139.3,165.7,139.2,164.4L139.2,164.4z
	 M160,162h1.7c0.5,0,0.5,0.1,0.3,0.6c-0.5,1-1.1,1.9-1.6,2.8c-0.9,1.6-1.8,3.1-2.7,4.6c-0.1,0.2-0.1,0.5,0.1,0.6c0,0,0.1,0,0.1,0
	c0.4,0.3,0.6,0.2,0.8-0.2c1.9-3.3,3.6-6.6,5.6-9.8c0.2-0.3,0.1-0.5-0.3-0.5c-0.7,0-1.3,0-2,0h-4.4c-0.3,0-0.4,0.1-0.5,0.4
	c-0.1,0.6-0.3,1.2-0.5,1.8c-0.1,0.3,0,0.4,0.3,0.5c0.2,0,0.4-0.1,0.4-0.2c0.2-0.4,0.6-0.6,1.1-0.6C159,162.1,159.5,162,160,162
	L160,162z M99.3,160.8h-1.7c-0.2,0-0.5-0.1-0.5,0.3c-0.1,0.3,0.2,0.4,0.4,0.5c0.7,0.2,0.7,0.2,0.7,1c0,1.8,0,3.6,0,5.3
	c0,0.7,0,1.3-0.9,1.5c-0.2,0-0.3,0.2-0.2,0.4c0,0.2,0.2,0.3,0.3,0.3c1.3,0,2.5,0,3.8,0c0.1,0,0.3-0.1,0.3-0.2c0,0,0,0,0,0
	c0-0.2,0-0.3-0.2-0.4c-0.1,0-0.2-0.1-0.3-0.1c-0.3,0-0.6-0.2-0.6-0.5c0,0,0-0.1,0-0.1c0-0.2,0-0.4,0-0.6c0-1.8,0-3.5,0-5.3
	c0-1,0-1,0.9-1.3c0.2,0,0.3-0.2,0.3-0.4c0,0,0,0,0,0c0-0.2-0.2-0.2-0.3-0.2L99.3,160.8z"/>
<path class="st1" d="M124.6,152.3H7c-0.4,0-0.5-0.1-0.5-0.5c0-16.4,0-32.9,0-49.3c0-0.1,0-0.2,0-0.4c0-0.4,0.1-0.5,0.5-0.5h34.8
	c0.6,0,0.6,0,0.5-0.6c-0.6-2.3-1.1-4.7-1.7-7c-0.1-0.6-0.1-0.6,0.4-0.8c2.1-0.6,4.1-1.3,6.2-1.9c1.6-0.5,3.2-0.9,4.8-1.3
	c2-0.6,4.1-1,6.1-1.5c2.5-0.6,4.9-1.1,7.4-1.5c0.4,0,0.7-0.2,1-0.4c3-2.4,6.2-4.5,9.5-6.3c3.1-1.7,6.3-3.3,9.6-4.6
	c2.7-1.1,5.5-2.1,8.4-2.9c3.4-1,6.8-1.9,10.3-2.5c3.3-0.6,6.7-1.1,10.1-1.5c4.5-0.4,9.1-0.6,13.7-0.5c3.6,0.1,7.1,0.4,10.7,0.9
	c3.3,0.4,6.7,1,10,1.8c2.8,0.7,5.6,1.4,8.3,2.3c3.8,1.2,7.6,2.7,11.2,4.4c4.7,2.2,9.2,4.9,13.3,8c0.3,0.2,0.6,0.4,0.8,0.7
	c0.7,0.6,1.5,0.9,2.3,1c2.3,0.4,4.6,0.9,6.8,1.3c1.8,0.4,3.6,0.8,5.3,1.3c2,0.5,4.1,1.1,6.1,1.7c1.8,0.5,3.6,1.1,5.4,1.7
	c0.6,0.2,0.7,0.2,0.5,0.8c-0.5,2.1-1,4.1-1.5,6.2c-0.1,0.4-0.2,0.7-0.3,1.1s0,0.3,0.3,0.3h35.2c0.4,0,0.6,0.1,0.6,0.5
	c0,16.6,0,33.1,0,49.7c0,0.5-0.2,0.5-0.6,0.5L124.6,152.3L124.6,152.3z M124.6,149.6h115.1c0.4,0,0.5-0.1,0.5-0.5
	c0-14.8,0-29.6,0-44.4c0-0.4-0.1-0.5-0.5-0.5h-32.9c-0.2,0-0.4,0-0.5,0.3c-0.5,2.1-1.1,4.3-1.6,6.4c-0.1,0.3-0.2,0.4-0.5,0.3
	l-2.1-0.6c-2.5-0.7-5-1.3-7.5-1.9c-2.2-0.5-4.4-1-6.7-1.5c-2.7-0.5-5.3-1-8-1.5c-3-0.5-6-0.9-8.9-1.3c-3.3-0.4-6.7-0.8-10-1.1
	c-2.7-0.3-5.5-0.5-8.2-0.7c-2.2-0.2-4.5-0.3-6.7-0.4c-2.8-0.1-5.6-0.3-8.5-0.4c-2-0.1-4,0-5.9-0.1c-1.3,0-2.7,0-4.1,0
	c-2.3,0-4.6,0-6.9,0l-6.1,0.1c-3.2,0-6.4,0.2-9.6,0.4c-2.3,0.1-4.5,0.3-6.8,0.4c-2.5,0.2-5.1,0.4-7.6,0.6c-2.9,0.2-5.7,0.6-8.6,0.9
	c-1.9,0.2-3.8,0.5-5.7,0.7c-1.9,0.3-3.9,0.6-5.9,0.9c-2,0.3-4.1,0.7-6.2,1.1c-1.8,0.4-3.7,0.7-5.5,1.1c-2.2,0.5-4.3,1-6.5,1.5
	c-2.3,0.6-4.6,1.2-6.9,1.9c-0.7,0.2-0.7,0.2-0.8-0.5c-0.5-2-1-4-1.5-6c-0.1-0.4-0.3-0.5-0.6-0.5H9.7c-0.6,0-0.6,0-0.6,0.6
	c0,14.7,0,29.5,0,44.2c0,0.5,0.1,0.6,0.6,0.6L124.6,149.6z M72.2,85.8c0.2,0.1,0.4,0,0.6-0.1c2.3-0.3,4.7-0.7,7-1
	c3.6-0.5,7.3-0.9,10.9-1.2c2.5-0.2,4.9-0.4,7.4-0.6c2.2-0.2,4.4-0.3,6.7-0.4l4.4-0.2c2.2-0.1,4.3-0.1,6.5-0.2
	c2.7-0.1,5.3-0.1,7.9-0.1c1.4,0,2.8,0,4.2,0c2.3,0,4.5,0,6.7,0.1c2.5,0.1,5,0.1,7.5,0.3c2.2,0.1,4.5,0.2,6.7,0.3
	c2.7,0.2,5.5,0.4,8.2,0.6c2.7,0.2,5.4,0.5,8.2,0.8c3.9,0.4,7.8,1,11.7,1.5c0.1,0,0.3,0.1,0.3,0c0.1-0.1-0.1-0.2-0.2-0.3
	c-3.6-2.4-7.3-4.6-11.2-6.4c-2.7-1.2-5.4-2.3-8.1-3.3c-2.9-1-5.8-1.9-8.7-2.6c-3.3-0.8-6.6-1.4-10-1.9c-4.1-0.6-8.1-0.9-12.2-0.9
	c-2.4,0-4.8,0-7.1,0.1c-3,0.2-5.9,0.4-8.8,0.8c-2.8,0.4-5.6,0.9-8.4,1.5c-3.5,0.8-7,1.8-10.4,2.9c-3,1.1-6,2.3-8.8,3.7
	c-3.5,1.7-7,3.7-10.2,5.9C72.5,85.5,72.3,85.5,72.2,85.8z M117,90.8l2.3,4.9c0.2,0.5,0.3,1,0.7,1.3c0.3,0.3,1,0,1.5,0.1
	s0.4-0.1,0.4-0.4c0-1.8,0-3.7-0.1-5.5c0-1.3-0.1-2.7,0-4l0,0c0-0.3-0.1-0.4-0.4-0.4c-0.4,0-0.7,0-1.1,0c-0.3,0-0.4,0.1-0.4,0.4
	c0,1.6,0,3.3,0.1,4.9c0,0.1,0.1,0.3-0.1,0.3c-0.2,0-0.1-0.1-0.2-0.2c-0.7-1.6-1.5-3.2-2.3-4.9c-0.1-0.3-0.4-0.5-0.7-0.4
	c-0.4,0-0.8,0-1.2,0s-0.6,0.1-0.5,0.6c0,0.1,0,0.3,0,0.4c0,1.9,0,3.8,0,5.7c0,1.1,0,2.1,0,3.1c0,0.3,0.1,0.4,0.4,0.4
	c0.3,0,0.7,0,1,0c0.4,0,0.5-0.1,0.5-0.5c0-1.7-0.1-3.5-0.1-5.2C116.9,91.2,116.8,91,117,90.8L117,90.8z M147.6,90.6L147.6,90.6
	c0-0.2,0-0.4,0-0.7c0-0.9-0.5-1.8-1.2-2.3c-0.8-0.4-1.7-0.6-2.6-0.5c-1.4,0-2.5,1.2-2.6,2.6c0,0.6-0.1,1.2-0.1,1.8
	c-0.1,1.2-0.1,2.4,0,3.6c0.1,1,0.7,1.9,1.7,2.3c0.9,0.3,1.8,0.4,2.7,0.1c0.2-0.1,0.5,0,0.7,0.2c0.2,0.3,0.5,0.5,0.8,0.6
	c0.7,0.3,0.8,0.3,0.9-0.5v-0.3c0-0.5,0-0.9-0.6-1c-0.3,0-0.4-0.3-0.2-0.6c0.2-0.3,0.2-0.6,0.3-1C147.5,93.6,147.6,92.1,147.6,90.6
	L147.6,90.6z M81.1,89.3c-1.1,0.1-2.2,0.2-3.3,0.3c-0.3,0-0.4,0.2-0.3,0.5c0.3,2.5,0.6,5,0.9,7.4c0.1,0.6,0.1,1.3,0.2,1.9
	c0,0.3,0.2,0.4,0.5,0.4c0.4-0.1,0.8-0.1,1.1-0.1c0.4,0,0.4-0.2,0.4-0.5c-0.1-1.1-0.3-2.3-0.4-3.4c0-0.1,0-0.2,0.1-0.3
	c0.3-0.2,0.8-0.1,0.9,0.3c0,0,0,0,0,0c0.6,1.1,1.2,2.2,1.8,3.3c0.1,0.2,0.3,0.3,0.5,0.2c0.5,0,0.9-0.1,1.4-0.2s0.4-0.1,0.2-0.4
	c-0.7-1.2-1.3-2.4-2.1-3.6c-0.1-0.2-0.1-0.3,0.1-0.5c0.4-0.2,0.6-0.6,0.8-1c0.4-1.1,0.2-2.4-0.5-3.4C82.9,89.6,82,89.2,81.1,89.3z
	 M131.8,92.1c0.1-0.8,0.1-1.5,0-2.3c0-1-0.5-2-1.3-2.6c-0.6-0.3-1.3-0.4-1.9-0.4c-0.8,0-1.7,0-2.5,0c-0.3,0-0.3,0.1-0.3,0.3
	c0,0.6,0,1.3,0,1.9c0,2.5,0,5-0.1,7.5c0,0.4,0.1,0.5,0.5,0.5c0.9,0,1.7,0,2.7,0c1.5,0.1,2.9-1,3.1-2.5
	C131.9,93.8,131.9,93,131.8,92.1L131.8,92.1z M55,104.1l1.3-0.3c0.3-0.1,0.3-0.2,0.2-0.5c-0.3-1.2-0.6-2.3-0.9-3.5
	c-0.5-1.9-0.9-3.8-1.3-5.7c-0.1-0.3-0.2-0.3-0.5-0.3c-0.4,0.1-0.8,0.2-1.2,0.3c-0.3,0-0.4,0.2-0.3,0.5c0.3,1,0.5,2.1,0.8,3.1
	c0.1,0.4,0,0.5-0.4,0.6l-1.5,0.4c-0.5,0.1-0.6,0.1-0.7-0.4c-0.2-1-0.5-2-0.7-3.1c0-0.3-0.2-0.3-0.4-0.3c-0.3,0.1-0.8,0.2-1.3,0.3
	c-0.4,0.1-0.3,0.2-0.3,0.5c0.4,1.5,0.7,3,1.1,4.4c0.4,1.5,0.8,3.2,1.2,4.8c0,0.3,0.2,0.3,0.4,0.2c0.4-0.1,0.8-0.2,1.2-0.3
	c0.3,0,0.3-0.2,0.3-0.4c-0.3-1.2-0.6-2.4-0.9-3.5c-0.1-0.3,0-0.4,0.3-0.5c0.6-0.1,1.2-0.3,1.8-0.5c0.3-0.1,0.5-0.1,0.5,0.3
	c0.3,1.2,0.6,2.4,0.9,3.5C54.8,104,54.8,104.2,55,104.1L55,104.1z M158.1,89.3c0-0.3,0-0.5,0-0.7s0-0.3-0.2-0.4l-1.4-0.1
	c-0.2,0-0.3,0-0.4,0.3c0,0.6-0.1,1.3-0.1,1.9c-0.1,1.7-0.3,3.4-0.4,5.1c-0.1,0.9-0.6,1.2-1.5,1.1c-0.7,0-1.2-0.6-1.1-1.3
	c0,0,0,0,0-0.1c0.1-1.1,0.2-2.3,0.3-3.4s0.2-2.3,0.3-3.5c0-0.3,0-0.4-0.4-0.4c-0.4,0-0.8,0-1.2-0.1c-0.3,0-0.4,0.1-0.4,0.3
	c0,1-0.2,1.9-0.2,2.9c-0.1,1.4-0.3,2.8-0.3,4.2c-0.1,1.2,0.6,2.4,1.8,2.8c0.4,0.2,0.9,0.3,1.3,0.3c1.6,0.4,3.2-0.6,3.6-2.1
	c0.1-0.2,0.1-0.4,0.1-0.6C157.9,93.5,158,91.4,158.1,89.3L158.1,89.3z M68.5,100.9c-0.1,0.3,0,0.4,0.3,0.4l1.3-0.2
	c0.2,0,0.2-0.1,0.2-0.3c0-0.5,0.1-1.1,0.1-1.6c0-0.3,0.1-0.4,0.4-0.4c0.6-0.1,1.2-0.2,1.8-0.3c0.2-0.1,0.5,0,0.6,0.3
	c0,0,0,0.1,0,0.1c0.1,0.4,0.3,0.8,0.5,1.2c0.1,0.4,0.3,0.5,0.7,0.4c0.3-0.1,0.6-0.1,1-0.2c0.5,0,0.5-0.1,0.3-0.6l-0.8-1.8
	c-1-2.4-2-4.7-2.9-7.1c-0.1-0.3-0.2-0.3-0.5-0.3l-1.8,0.3c-0.3,0-0.4,0.2-0.4,0.5c-0.1,1.1-0.2,2.1-0.3,3.2L68.5,100.9z M167.7,99.4
	c0.3,0,0.3-0.1,0.2-0.4c-0.3-1.9-0.5-3.8-0.8-5.8c-0.2-1.3-0.4-2.7-0.5-4c0-0.2-0.1-0.4-0.3-0.4c0,0,0,0,0,0c-0.6,0-1.2-0.1-1.9-0.2
	c-0.3,0-0.4,0-0.4,0.3c-0.6,1.7-1.3,3.5-1.9,5.2c-0.5,1.3-1,2.7-1.5,4.1c-0.1,0.3,0,0.3,0.2,0.4c0.4,0,0.8,0.1,1.1,0.1
	c0.3,0.1,0.5-0.1,0.6-0.3c0,0,0-0.1,0-0.1c0.1-0.4,0.3-0.9,0.5-1.3c0-0.2,0.2-0.4,0.4-0.3c0,0,0,0,0.1,0c0.7,0.1,1.3,0.1,2,0.2
	c0.3,0,0.3,0.1,0.3,0.4c0,0.5,0.1,1,0.2,1.5c0,0.2,0.1,0.3,0.3,0.3L167.7,99.4z M108.1,87.1L108.1,87.1c-0.3,0-0.6,0-0.9,0
	s-0.4,0.1-0.5,0.4c-0.4,2.1-0.9,4.3-1.3,6.4c-0.2,1.1-0.4,2.1-0.7,3.2c0,0.3,0,0.4,0.3,0.4c0.4,0,0.8,0,1.1,0c0.2,0,0.4-0.1,0.5-0.3
	c0,0,0,0,0-0.1c0.1-0.5,0.2-0.9,0.3-1.3c0-0.2,0.2-0.4,0.5-0.4c0,0,0,0,0,0c0.6,0,1.2,0,1.8-0.1c0.3,0,0.4,0,0.5,0.3
	s0.2,0.9,0.4,1.3c0,0.2,0.1,0.4,0.4,0.4c0.4,0,0.7,0,1.1,0c0.5,0,0.5-0.1,0.4-0.6l-2.5-9.1c-0.1-0.3-0.2-0.6-0.7-0.5
	C108.6,87.1,108.3,87.2,108.1,87.1L108.1,87.1z M64,93.2c-0.1-0.3-0.1-0.6-0.2-0.9c0-0.4-0.2-0.5-0.5-0.4l-4.5,0.9
	c-0.3,0-0.4,0.2-0.3,0.5s0.2,1,0.3,1.5c0.5,2.6,1,5.2,1.5,7.8c0,0.3,0.2,0.4,0.5,0.4c1.6-0.3,3.2-0.6,4.7-0.9c0.2,0,0.3-0.1,0.2-0.4
	c-0.1-0.2-0.1-0.7-0.2-1c-0.1-0.3-0.2-0.4-0.5-0.3c-0.9,0.2-1.7,0.3-2.6,0.5c-0.3,0.1-0.5,0-0.5-0.3c-0.1-0.6-0.2-1.1-0.3-1.7
	c-0.1-0.3,0-0.5,0.4-0.5c0.6-0.1,1.2-0.2,1.7-0.3c0.2,0,0.3-0.1,0.3-0.4c-0.1-0.3-0.1-0.8-0.2-1.1c-0.1-0.4-0.2-0.3-0.4-0.2
	c-0.6,0.1-1.2,0.2-1.8,0.4c-0.3,0.1-0.4,0-0.4-0.3c-0.1-0.5-0.2-1-0.3-1.4c-0.1-0.5,0-0.5,0.4-0.6c0.8-0.1,1.6-0.3,2.4-0.4
	C63.8,93.7,64,93.6,64,93.2L64,93.2z M195.3,93.7c-0.2,0-0.3,0-0.2,0.2c0.4,1.8,0.7,3.7,1.1,5.5c0.1,0.5,0.1,1,0,1.5
	c-0.3,0.9-0.5,1.9-0.7,2.8c-0.1,0.3,0,0.5,0.3,0.6c0.3,0.1,0.8,0.2,1.2,0.3s0.4,0,0.4-0.3c0.2-0.9,0.4-1.8,0.6-2.7
	c0.1-0.6,0.4-1.2,0.8-1.7c1.1-1.3,2.3-2.8,3.4-4.2c0.2-0.2,0.2-0.3-0.1-0.4s-0.9-0.2-1.3-0.3c-0.3-0.1-0.6,0-0.7,0.3
	c-0.6,0.9-1.3,1.8-2,2.7c-0.1,0.1-0.1,0.3-0.3,0.3c-0.2,0-0.1-0.2-0.1-0.3c-0.2-1.1-0.3-2.2-0.5-3.3c0-0.2,0-0.5-0.3-0.5L195.3,93.7
	z M90.5,98.6c0.4,0,0.8-0.1,1.1-0.1c0.4,0,0.5-0.2,0.4-0.5c-0.1-1.2-0.2-2.4-0.3-3.6c-0.1-1.2-0.2-2.7-0.4-4c0-0.3,0-0.5,0.4-0.5
	c0.4,0,0.6,0,0.8,0c1-0.1,1-0.1,0.9-1s0-0.8-0.9-0.8l-5.3,0.5c-0.2,0-0.4,0.1-0.3,0.3c0,0.3,0.1,0.7,0.1,1.1s0.1,0.4,0.4,0.3
	c0.5,0,1-0.1,1.5-0.1c0.5-0.1,0.5,0.1,0.5,0.5c0.2,2.5,0.4,5,0.7,7.5C90,98.5,90.1,98.6,90.5,98.6z M186.3,102.1
	c0,0.2,0,0.3,0.3,0.4c0.4,0.1,0.9,0.2,1.3,0.3c0.5,0.1,0.4,0,0.4-0.3c0.2-0.9,0.4-1.8,0.5-2.7c0.3-1.6,0.7-3.3,1-4.9
	c0-0.3,0.2-0.3,0.4-0.3c0.5,0.1,1,0.2,1.5,0.3c0.3,0.1,0.4,0,0.5-0.3s0.2-0.8,0.3-1.2c0.1-0.4-0.1-0.2-0.2-0.3l-5.7-1.2
	c-0.3-0.1-0.5,0-0.5,0.4c0,0.3-0.1,0.6-0.2,0.9c-0.1,0.3,0,0.5,0.3,0.5c0.3,0.1,0.9,0.2,1.3,0.2s0.5,0.2,0.4,0.5
	c-0.3,1.5-0.6,2.9-0.9,4.4C186.6,100,186.4,101,186.3,102.1L186.3,102.1z M170.9,99.5c0,0.3,0,0.4,0.2,0.4l4.2,0.6
	c0.6,0.1,0.6,0.1,0.7-0.5c0-0.2,0-0.4,0.1-0.6c0.1-0.5,0-0.5-0.5-0.6l-2.2-0.3c-0.2,0-0.4,0-0.4-0.4c0.2-1.5,0.4-2.9,0.6-4.3
	c0.2-1.1,0.3-2.3,0.5-3.4c0-0.2,0-0.4-0.3-0.4c-0.4,0-0.9-0.1-1.3-0.2c-0.3,0-0.4,0-0.4,0.3c-0.2,1.6-0.5,3.3-0.7,4.9
	C171.2,96.6,171,98,170.9,99.5L170.9,99.5z M97.7,87.7h-0.6c-0.4,0-0.5,0.1-0.5,0.5c0.1,1.3,0.2,2.7,0.3,3.9
	c0.1,1.8,0.2,3.6,0.3,5.3c0,0.3,0.1,0.4,0.4,0.4l4.4-0.3c0.3,0,0.4-0.1,0.3-0.4c0-0.3,0-0.6,0-1c0-0.4-0.2-0.5-0.5-0.4
	c-0.7,0-1.5,0.1-2.2,0.2c-0.4,0-0.5-0.1-0.6-0.5c-0.1-2.3-0.3-4.7-0.4-7C98.6,87.5,98.5,87.7,97.7,87.7L97.7,87.7z M180.7,101.4
	c0.3,0,0.3-0.1,0.4-0.3c0.1-0.6,0.2-1.1,0.3-1.7c0.4-2.6,0.9-5.2,1.3-7.7c0-0.3-0.1-0.4-0.3-0.4c-0.2,0-0.8-0.1-1.2-0.2
	c-0.4-0.1-0.5,0-0.5,0.3c-0.4,2.3-0.7,4.5-1.1,6.8c-0.1,0.9-0.3,1.7-0.4,2.7c0,0.1-0.1,0.3,0.2,0.3L180.7,101.4z M177.2,85.9
	L177.2,85.9L177.2,85.9L177.2,85.9z"/>
<path class="st1" d="M188.1,160.9c-0.4,0.5-0.9,0.9-1.3,1.3c-3.7,3.3-7.7,6.2-11.9,8.7c-2.7,1.6-5.5,3-8.4,4.3
	c-2.4,1.1-4.8,2-7.3,2.9c-2.2,0.8-4.5,1.5-6.8,2.1c-2.8,0.8-5.7,1.4-8.6,1.9c-2.7,0.5-5.4,0.9-8.1,1.1c-1.9,0.2-3.7,0.3-5.6,0.4
	c-2.4,0.1-4.8,0.1-7.1,0.1c-2.2,0-4.3-0.1-6.5-0.3c-3.3-0.2-6.5-0.6-9.8-1.2c-3.2-0.6-6.4-1.2-9.6-2.1c-2.1-0.6-4.2-1.2-6.2-1.9
	c-4.4-1.5-8.6-3.3-12.7-5.5c-4.4-2.3-8.6-5-12.5-8.1c-1.3-1.1-2.7-2.3-4-3.5c-0.1-0.1-0.3-0.2-0.2-0.3c0-0.1,0.2-0.1,0.3-0.1h3.4
	c0.2,0,0.4,0.1,0.6,0.2c3.8,3.4,7.9,6.3,12.3,8.8c3.8,2.2,7.9,4.1,12,5.6c3.1,1.2,6.3,2.2,9.6,3c2.5,0.6,5,1.2,7.5,1.6
	c3.3,0.6,6.5,1,9.8,1.2c3,0.2,6.1,0.4,9.1,0.3c3.6-0.1,7.1-0.3,10.7-0.7c3.4-0.4,6.7-1,10-1.7c2.4-0.5,4.8-1.2,7.2-1.9
	c2.1-0.6,4.1-1.3,6.2-2.1c1.8-0.7,3.6-1.5,5.3-2.3c3.1-1.4,6-3,8.9-4.8c3.2-2,6.3-4.3,9.2-6.8c0.3-0.3,0.6-0.4,1-0.4
	c1.1,0,2.2,0,3.2,0C187.8,160.8,188,160.8,188.1,160.9z"/>
<path class="st1" d="M111.8,166.6c0,1,0,2,0,3c0,0.3-0.3,0.4-0.5,0.5c-0.2,0.1-0.5,0.1-0.6-0.2c0,0,0,0,0,0
	c-0.5-0.7-1.1-1.4-1.6-2.1c-1.2-1.4-2.3-2.9-3.5-4.3c0,0-0.1-0.2-0.2-0.2s-0.1,0.1-0.1,0.3c0,1.6,0,3.2,0.1,4.8
	c0,0.6,0.2,0.7,0.8,0.8l0.3,0.1c0.2,0,0.3,0.2,0.2,0.4c0,0.2-0.1,0.3-0.3,0.3h-2c-0.3,0-0.7,0-1,0s-0.3,0-0.3-0.3
	c0-0.3,0-0.4,0.2-0.4c1,0,0.9-0.8,1-1.5c0-1.9,0-3.7,0-5.5c0-0.4-0.2-0.7-0.6-0.7c0,0,0,0,0,0l-0.4-0.1c-0.1,0-0.3-0.1-0.3-0.3
	c0-0.2,0.1-0.3,0.3-0.3h2.8c0.1,0,0.2,0.1,0.2,0.1c0.6,1.1,1.4,2.1,2.2,3c0.6,0.8,1.3,1.5,1.9,2.2c0.1,0.1,0.1,0.3,0.3,0.2
	c0.2-0.1,0.1-0.2,0.1-0.3c0-1.2,0-2.4-0.1-3.6c-0.1-0.6-0.2-0.7-0.8-0.9l-0.3-0.1c-0.2,0-0.2-0.2-0.2-0.4c0-0.2,0.1-0.2,0.3-0.2h3
	c0.2,0,0.3,0,0.3,0.2c0,0.2,0,0.4-0.2,0.4c-1,0.1-0.9,0.8-1,1.5C111.8,164.2,111.8,165.4,111.8,166.6z"/>
<path class="st1" d="M91.9,170.2c-0.8,0-1.6-0.1-2.3-0.4c-0.3-0.1-0.6-0.4-0.6-0.7c-0.2-0.6-0.2-1.2-0.3-1.9c0-0.2,0-0.4,0.3-0.4
	c0.2-0.1,0.5,0.1,0.6,0.3c0,0,0,0,0,0c0.2,0.6,0.6,1.1,1,1.5c0.4,0.5,1,0.7,1.6,0.6c0.8-0.1,1.4-0.8,1.3-1.6c0-0.3-0.1-0.5-0.3-0.8
	c-0.4-0.6-1-1-1.6-1.3c-0.9-0.4-1.6-1-2.1-1.9c-0.7-1.4-0.1-3.1,1.3-3.8c0.1,0,0.1-0.1,0.2-0.1c1.3-0.4,2.7-0.4,4,0
	c0.2,0,0.2,0.2,0.2,0.3c0.1,0.6,0.2,1.2,0.2,1.8c0,0.2-0.1,0.4-0.3,0.4c0,0,0,0,0,0c-0.2,0.1-0.5-0.1-0.5-0.3
	c-0.1-0.3-0.3-0.6-0.5-0.9c-0.3-0.5-0.9-0.8-1.5-0.8c-0.5,0-1,0.3-1.2,0.8c-0.2,0.5-0.1,1,0.3,1.4c0.4,0.4,1,0.7,1.5,0.9
	c0.6,0.3,1.2,0.7,1.8,1.2c1.2,1.2,1.2,3.1,0,4.4c-0.4,0.4-0.8,0.7-1.4,0.8C93,170.1,92.4,170.3,91.9,170.2z"/>
<path class="st1" d="M148.8,164.6c-0.2,2.1-1.4,3.9-3.2,4.9c-1,0.7-2,1.1-3.2,1.3c-0.2,0-0.5,0.1-0.6-0.2c-0.1-0.4,0.2-0.4,0.5-0.5
	c1.9-0.5,3.4-2.1,3.8-4c0.5-1.5,0.4-3.1-0.3-4.5c-0.1-0.4-0.5-0.7-1-0.7c-0.5,0-0.7,0.4-0.9,0.9c-0.3,1-0.1,2,0.4,2.8
	c0.2,0.4,0.6,0.6,1,0.6c0.2,0,0.4,0,0.4,0.3c0,0.3-0.1,0.4-0.3,0.5c-1.3,0.7-2.9,0.2-3.6-1.1c-0.1-0.1-0.1-0.3-0.2-0.4
	c-0.4-1.2-0.1-2.5,0.8-3.4c0.8-0.9,2.1-1.2,3.3-0.9C147.8,160.6,148.8,162,148.8,164.6z"/>
<path class="st1" d="M126.9,160.8h3c0.3,0,0.5,0,0.5,0.4c0,0.5,0.1,1.1,0.1,1.6c0,0.2,0,0.3-0.2,0.4c-0.2,0-0.4,0-0.5-0.2l0,0
	c-0.2-0.4-0.3-0.9-0.8-1.1c-0.7-0.2-1.4-0.2-2.1-0.2c-0.2,0-0.2,0.1-0.2,0.3c0,0.8,0,1.7,0,2.5c0,0.2,0.1,0.3,0.4,0.3h1.1
	c0.5,0,0.6-0.4,0.7-0.8c0-0.2,0-0.4,0.3-0.4c0.3,0,0.4,0.1,0.4,0.4c-0.1,0.8-0.1,1.7,0,2.5c0,0.2-0.1,0.3-0.2,0.4c0,0,0,0-0.1,0
	c-0.2,0-0.4,0-0.4-0.3c-0.1-0.3,0-0.7-0.4-0.8c-0.5-0.2-1-0.2-1.5-0.1c-0.2,0-0.2,0.2-0.2,0.4c0,0.7,0,1.5,0,2.2
	c0,0.6,0.3,0.8,0.9,0.8c0.4,0,0.7,0,1.1,0c0.7,0,1.4-0.5,1.7-1.1c0.1-0.2,0.2-0.7,0.6-0.5c0.4,0.2,0.2,0.5,0.2,0.8
	c-0.1,0.4-0.2,0.8-0.3,1.2c0,0.3-0.3,0.5-0.6,0.4c0,0,0,0,0,0c-1.7-0.1-3.3,0-5,0c-0.5,0-1,0-1.5,0c-0.2,0-0.4,0-0.4-0.3
	c0-0.3,0.1-0.4,0.4-0.4h0.3c0.7-0.1,0.7-0.2,0.7-0.9c0.1-1.4,0-2.9,0-4.3c0-0.7,0-1.3-0.1-1.9c0-0.3-0.2-0.5-0.5-0.6c0,0,0,0,0,0
	h-0.3c-0.2,0-0.3-0.2-0.3-0.4c0,0,0,0,0,0c0-0.3,0.2-0.3,0.4-0.3L126.9,160.8z"/>
<path class="st1" d="M119.4,170.2c-1.6,0.1-3.2-0.4-4.5-1.5c-1.8-1.9-1.7-4.9,0.2-6.7c0.4-0.4,0.8-0.7,1.3-0.9
	c1.7-0.7,3.6-0.7,5.4-0.2c0.2,0,0.2,0.2,0.2,0.3c0,0.6,0,1.1,0.1,1.7c0,0.2,0,0.4-0.3,0.4c-0.2,0.1-0.4,0-0.4-0.2c0,0,0,0,0,0
	c-0.2-0.7-0.8-1.3-1.5-1.6c-1.2-0.5-2.6,0.1-3.3,1.2c-0.9,1.6-0.9,3.5,0,5.1c0.5,1,1.5,1.5,2.5,1.5c1.1,0,2-0.7,2.4-1.8
	c0.1-0.3,0.3-0.5,0.6-0.4s0.2,0.4,0.2,0.6c-0.1,0.5-0.2,1-0.3,1.4c-0.1,0.3-0.3,0.4-0.5,0.5C120.9,170,120.2,170.2,119.4,170.2z"/>
<path class="st1" d="M154.2,164.5c0,1.3,0,2.6,0,3.9c0,0.6,0.1,0.8,0.7,0.9h0.4c0.2,0,0.4,0.1,0.4,0.3c0,0,0,0,0,0.1
	c0,0.2-0.1,0.4-0.4,0.4h-2.7c-0.6,0-1.2,0-1.7,0c-0.3,0-0.4-0.1-0.4-0.4c0-0.3,0.2-0.3,0.4-0.4c1.1-0.1,1.1-0.1,1.1-1.3
	c0-1.8,0-3.6,0-5.3c0-0.7-0.1-0.9-0.8-1h-0.3c-0.2,0-0.4-0.1-0.4-0.4s0.2-0.4,0.4-0.4c0.6-0.1,1.2-0.2,1.8-0.4
	c0.3-0.1,0.7-0.3,1-0.4c0.3-0.1,0.6,0,0.6,0.4C154.2,161.8,154.2,163.2,154.2,164.5z"/>
<path class="st1" d="M139.3,164.4c0,1.3,0,2.6,0,3.9c0,0.8,0.1,0.9,0.9,1h0.3c0.2,0,0.4,0.1,0.4,0.3c0,0,0,0,0,0.1
	c0,0.2-0.1,0.3-0.3,0.3c0,0,0,0-0.1,0c-0.3,0-0.7,0-1,0c-1.1,0-2.3,0-3.4,0c-0.3,0-0.5,0-0.5-0.3c0-0.3,0.2-0.4,0.5-0.4
	c0.9,0,1-0.1,1-1c0-1.9,0-3.9,0-5.8c0-0.4-0.2-0.7-0.6-0.7c0,0,0,0-0.1,0c-0.2,0-0.4-0.1-0.5-0.1c-0.2,0-0.3-0.1-0.3-0.3
	c0,0,0-0.1,0-0.1c0-0.2,0.1-0.4,0.3-0.4c0,0,0,0,0,0c1-0.1,1.9-0.4,2.8-0.8c0.4-0.2,0.6,0,0.6,0.4
	C139.3,161.8,139.3,163.1,139.3,164.4L139.3,164.4z"/>
<path class="st1" d="M160.1,162c-0.5,0-1,0-1.6,0c-0.4-0.1-0.9,0.2-1.1,0.6c-0.1,0.2-0.2,0.3-0.4,0.2c-0.3,0-0.4-0.2-0.3-0.5
	c0.2-0.6,0.3-1.2,0.5-1.8c0-0.3,0.2-0.4,0.5-0.4h4.4c0.7,0,1.3,0,2,0c0.4,0,0.5,0.2,0.3,0.5c-2,3.2-3.7,6.5-5.6,9.8
	c-0.2,0.4-0.5,0.5-0.8,0.2c-0.2-0.1-0.3-0.4-0.2-0.6c0,0,0-0.1,0-0.1c0.9-1.5,1.8-3.1,2.7-4.6c0.5-0.9,1.1-1.8,1.6-2.8
	c0.2-0.5,0.1-0.6-0.3-0.6L160.1,162z"/>
<path class="st1" d="M99.3,160.8h1.9c0.2,0,0.3,0,0.3,0.2c0,0.2-0.1,0.4-0.3,0.4c0,0,0,0,0,0c-0.9,0.3-0.9,0.3-0.9,1.3
	c0,1.8,0,3.5,0,5.3c0,0.2,0,0.4,0,0.6c0,0.3,0.2,0.6,0.5,0.6c0,0,0.1,0,0.1,0c0.1,0,0.2,0,0.3,0.1c0.2,0.1,0.2,0.2,0.2,0.4
	c0,0.1-0.1,0.2-0.3,0.2c0,0,0,0,0,0c-1.3,0-2.5,0-3.8,0c-0.2,0-0.3,0-0.3-0.3c0-0.3,0-0.4,0.2-0.4c1-0.1,0.9-0.8,0.9-1.5
	c0-1.8,0-3.6,0-5.3c0-0.7,0-0.8-0.7-1c-0.2,0-0.5-0.1-0.4-0.5c0.1-0.3,0.3-0.2,0.5-0.3L99.3,160.8z"/>
<path class="st1" d="M191.4,160.5l-0.1,0.1L191.4,160.5z"/>
<path class="st1" d="M188.4,163.4L188.4,163.4z"/>
<path class="st0" d="M124.7,149.6H9.7c-0.5,0-0.6-0.1-0.6-0.6c0-14.7,0-29.5,0-44.2c0-0.6,0-0.6,0.6-0.6h32.7c0.4,0,0.5,0.1,0.6,0.5
	c0.5,2,1,4,1.5,6c0.2,0.7,0.2,0.7,0.8,0.5c2.3-0.7,4.6-1.3,6.9-1.9c2.3-0.6,4.3-1.1,6.5-1.5c1.8-0.4,3.7-0.7,5.5-1.1
	c2.1-0.4,4.1-0.8,6.2-1.1c2.1-0.3,3.9-0.6,5.9-0.9c2-0.3,3.8-0.5,5.7-0.7c2.9-0.3,5.7-0.6,8.6-0.9c2.5-0.2,5.1-0.4,7.6-0.6
	c2.3-0.1,4.5-0.3,6.8-0.4c3.2-0.2,6.4-0.3,9.6-0.4l6.1-0.1c2.3,0,4.6,0,6.9,0c1.3,0,2.7,0,4.1,0c2,0.1,4,0,5.9,0.1
	c2.8,0.1,5.6,0.2,8.5,0.4c2.2,0.1,4.5,0.2,6.7,0.4c2.7,0.2,5.5,0.5,8.2,0.7c3.3,0.3,6.7,0.7,10,1.1c3,0.4,6,0.8,8.9,1.3
	c2.7,0.4,5.3,0.9,8,1.5c2.2,0.5,4.4,0.9,6.7,1.5c2.5,0.6,5,1.2,7.5,1.9l2.1,0.6c0.3,0.1,0.5,0,0.5-0.3c0.5-2.1,1.1-4.3,1.6-6.4
	c0.1-0.3,0.3-0.3,0.5-0.3h33c0.4,0,0.5,0.1,0.5,0.5c0,14.8,0,29.6,0,44.4c0,0.4-0.1,0.5-0.5,0.5L124.7,149.6z M46.2,128.9
	c0-1.5,0-2.9,0-4.4c0-0.1,0-0.3,0.1-0.3c0.1,0,0.1,0.1,0.2,0.2c0.5,1,0.9,1.9,1.4,2.9c1.3,2.8,2.8,5.6,4.1,8.5
	c0.1,0.4,0.5,0.7,1,0.6c0.5,0,0.6-0.4,0.7-0.7l4.6-8.8l1.1-2.2c0-0.1,0.1-0.2,0.2-0.2c0.1,0,0.1,0.2,0.1,0.3c0,0.1,0,0.2,0,0.3
	c0,2.7,0,5.5,0,8.2c0,1.5,0,1.5-1.4,1.7c-0.9,0.1-0.9,0.1-0.9,1.1c0,0.3,0.1,0.4,0.4,0.4h7.6c1.1,0,0.9,0.2,0.9-1
	c0-0.3-0.1-0.4-0.4-0.5l-1.1-0.1c-0.6-0.1-0.8-0.2-0.8-0.8c0-0.1,0-0.3,0-0.4c0-4,0-8.1,0-12.1c0-0.3,0-0.7,0-1
	c0-0.9,0.7-1.6,1.6-1.6c0.3,0,0.7,0.1,0.9-0.2c0.2-0.3,0-0.6,0-1c0-0.3-0.1-0.4-0.4-0.4h-4.8c-0.2,0-0.4,0.1-0.5,0.3l-3.8,7.3
	l-2.7,5.1c0,0.1-0.1,0.3-0.3,0.3c-0.2,0-0.2-0.2-0.3-0.3c-0.8-1.5-1.5-3-2.2-4.5c-1.3-2.6-2.6-5.2-3.8-7.8c-0.1-0.3-0.4-0.5-0.7-0.5
	c-1.6,0-3.3,0-4.9,0c-1.1,0-1-0.3-1,1.1c0,0.2,0.1,0.4,0.3,0.4c0.4,0,0.7,0.1,1,0.2c1.1,0.5,1.8,1.5,1.8,2.7c0,3.4,0,6.8,0,10.2
	c0,0.6,0,1.1-0.1,1.7c0,0.6-0.5,1.1-1.1,1.2l-0.7,0.1c-0.2,0-0.4,0-0.4,0.3c0,0.3-0.1,0.8,0.1,1.1c0,0,0.1,0,0.2,0h5.9
	c0.2,0,0.3-0.1,0.3-0.3c0.1-1,0.1-1-0.9-1.2h-0.2c-0.7,0-1.2-0.6-1.2-1.2c0,0,0,0,0,0C46.1,132.1,46.2,130.5,46.2,128.9z
	 M28.8,136.8c0.9-0.1,1.8-0.2,2.7-0.3c6.4-1.4,10.5-7.7,9.1-14.1c-0.1-0.2-0.1-0.5-0.2-0.7c-0.6-2.2-1.8-4.1-3.6-5.5
	c-2.2-1.8-5-2.7-7.8-2.5c-2.9,0.1-5.7,1.2-7.8,3.3c-3.1,2.8-4.3,7.1-3.4,11.1C19,133.2,23.6,136.9,28.8,136.8L28.8,136.8z M91,117.4
	h-4c-0.2,0-0.4,0-0.4,0.2c-0.1,0.4-0.1,0.8,0,1.1c0.1,0.3,0.5,0.1,0.8,0.2h0.4c1,0.2,1,0.3,1,1c0,0.2,0,0.3,0,0.5
	c0,4.5,0.1,9,0,13.5c0,0.7-0.1,0.8-0.8,0.9h-0.5c-1,0.1-0.9,0.1-0.9,1.1c0,0.3,0.1,0.4,0.4,0.4h7.5c1.1,0,1,0.2,1-1
	c0-0.3-0.1-0.4-0.4-0.4l-1-0.1c-0.8-0.1-0.9-0.3-0.9-1.1c0-2.1,0-4.2,0-6.3c0-0.4,0.1-0.4,0.5-0.4h6.4c0.3,0,0.4,0.1,0.4,0.4
	c0,2,0,4,0,6c0,1.3,0,1.3-1.2,1.5h-0.3c-0.8,0.1-0.7,0.1-0.8,0.9c0,0.5,0.1,0.6,0.6,0.6c2.4,0,4.9,0,7.3,0c1.1,0,1,0.2,1-1
	c0-0.3-0.1-0.4-0.4-0.5s-0.7,0-1-0.1c-0.6-0.1-0.7-0.2-0.8-0.8c0-0.2,0-0.5,0-0.7c0-4.3,0-8.6,0-12.8c0-1.3-0.1-1.4,1.5-1.6
	c1-0.1,0.8-0.1,0.8-0.9c0-0.5-0.1-0.6-0.6-0.6c-2,0-4,0-6.1,0h-1.8c-0.3,0-0.4,0.1-0.4,0.4c0,1,0,1,1,1.1h0.3c0.9,0.1,1,0.3,1,1.2
	c0,1.5,0,3,0,4.5c0,0.4-0.1,0.6-0.6,0.5c-2.1,0-4.2,0-6.3,0c-0.4,0-0.5-0.1-0.5-0.5c0.1-1.5,0-2.9,0-4.3c0-1.1,0-1.3,1.3-1.5l0,0
	c1.1-0.1,0.9,0,0.9-1c0-0.4-0.1-0.5-0.5-0.5C93.6,117.4,92.3,117.4,91,117.4L91,117.4z M145.8,117L145.8,117c0-0.7,0-1.3,0-2.1
	c0-0.4-0.2-0.7-0.6-0.8c-0.3-0.1-0.6-0.2-0.9-0.2c-1.7-0.3-3.3-0.4-5-0.3c-1.6,0-3.2,0.5-4.6,1.4c-2.2,1.5-2.9,4.4-1.6,6.7
	c0.8,1.4,1.9,2.5,3.3,3.3c1.5,0.9,3,2,4.3,3.2c1.2,1,1.6,2.6,1.2,4.1c-0.5,1.9-2.5,3-4.4,2.5c-0.5-0.1-0.9-0.3-1.3-0.6
	c-1.2-0.9-2-2.3-2.3-3.8c0-0.2,0-0.5-0.3-0.5c-0.4-0.1-0.8-0.1-1.2,0c-0.1,0-0.1,0.2-0.1,0.2c0,1.6,0,3.2,0,4.8
	c0,0.3,0.2,0.6,0.5,0.7c0.2,0.1,0.4,0.2,0.7,0.2c2,0.6,4.2,0.9,6.3,0.7c1.5-0.1,3-0.5,4.3-1.1c1.4-0.6,2.5-1.8,3-3.3
	c0.7-2.3,0-4.8-1.7-6.5c-1.3-1.2-2.6-2.3-4.1-3.3c-1-0.7-2-1.5-2.8-2.4c-0.9-1.1-0.9-2.8,0-3.9c1.2-1.1,3-1.1,4.2,0
	c0.7,0.7,1.2,1.5,1.5,2.4c0.3,0.9,0.3,0.9,1.3,0.9c0.3,0,0.4-0.1,0.4-0.4C145.9,118.4,145.9,117.7,145.8,117L145.8,117z
	 M218.6,136.4c-0.1-0.1-0.1-0.2-0.2-0.2c-0.9-0.9-1.8-1.9-2.7-2.9c-2-2.4-4-4.8-5.9-7.3c-0.2-0.2-0.2-0.3,0-0.5
	c1.8-1.9,3.6-3.8,5.5-5.6c0.4-0.5,0.9-0.8,1.5-1c0.3-0.1,0.4-0.2,0.4-0.5c0-0.2,0-0.3,0-0.5c0-0.4-0.1-0.5-0.5-0.5
	c-1.5,0-3.1,0-4.6,0c-0.9,0-0.9,0-1,1c0,0.4,0,0.5,0.5,0.5c0.4-0.1,0.9,0.1,1.1,0.5c0.2,0.4-0.2,0.7-0.5,0.9l-4.8,4.9
	c-0.2,0.2-0.3,0.3-0.5,0.4c-0.1,0-0.2,0.2-0.3,0.1s-0.1-0.2-0.1-0.3c0-1.7,0-3.4,0-5.1c0-1.2,0.2-1.3,1.3-1.4c0.9-0.1,0.9-0.1,0.9-1
	c0-0.4-0.1-0.5-0.5-0.5c-2.4,0-4.9,0-7.3,0c-1.1,0-1.1,0-1,1.1l0,0c0,0.2,0.1,0.3,0.3,0.3c0.5,0,0.9,0.1,1.4,0.2
	c0.3,0.1,0.5,0.2,0.5,0.6s0,0.3,0,0.5c0,4.5,0,9,0,13.5c0,0.2,0,0.4,0,0.7c0,0.2-0.1,0.4-0.3,0.5c-0.3,0.1-0.7,0.2-1,0.2
	c-0.9,0.1-0.9,0.1-0.9,1c0,0.4,0.1,0.5,0.5,0.5c2.5,0,4.9,0,7.4,0c1.2,0,1,0.2,1-1c0-0.3-0.1-0.4-0.4-0.4c-0.3,0-0.7,0-1.1-0.1
	c-0.6-0.1-0.7-0.3-0.7-0.8c-0.1-2,0-4.1,0-6.1c0-0.1,0-0.2,0.1-0.2c0.1,0,0.1,0,0.1,0.1c0.8,1.1,1.6,2.2,2.4,3.4
	c1.1,1.5,2,2.9,3.2,4.3c0.4,0.5,1,0.9,1.6,0.9C215.4,136.4,217,136.4,218.6,136.4L218.6,136.4z M172.2,136.4h6.8
	c0.3,0,0.5-0.1,0.5-0.5c0.2-1.3,0.4-2.7,0.7-4c0.2-1.1,0.3-0.9-0.8-0.9c-0.2,0-0.4,0.1-0.5,0.3c-0.2,0.5-0.4,0.9-0.7,1.3
	c-0.3,0.8-0.9,1.4-1.7,1.8c-1.3,0.4-2.6,0.5-3.9,0.3c-0.7,0-1.2-0.6-1.2-1.2c0,0,0-0.1,0-0.1c0-1.9,0-3.8,0-5.7
	c0-0.2,0.1-0.3,0.3-0.3c0.5,0,1,0,1.6,0c0.8,0,1.6,0.5,1.8,1.3c0.1,0.3,0.1,0.7,0.2,1c0,0.3,0.1,0.4,0.4,0.4c0.1,0,0.3,0,0.4,0
	c0.4,0.1,0.5-0.1,0.5-0.5c0-1.8,0-3.6,0-5.3c0-1,0.1-0.8-0.9-0.9c-0.4,0-0.5,0.1-0.5,0.5c0.1,1-0.6,1.9-1.5,2c-0.1,0-0.1,0-0.2,0
	c-0.6,0-1.3,0-1.9,0c-0.2,0-0.3-0.1-0.3-0.3c0-2,0-4.1,0-6.1c0-0.3,0.1-0.4,0.4-0.4c0.8,0,1.7,0,2.5,0c0.6,0,1.2,0.2,1.7,0.6
	c0.4,0.5,0.7,1.2,0.9,1.8c0.2,0.9,0.2,0.9,1.1,0.9c0.3,0,0.4-0.1,0.4-0.4c0-1.3,0-2.7,0-4c0-0.4-0.1-0.5-0.5-0.5c-1.6,0-3.2,0-4.8,0
	h-7.7c-0.3,0-0.5,0.1-0.4,0.4c0.1,0.3-0.4,0.9,0.3,1.1c0.3,0,0.7,0,1,0.1c0.8,0.2,0.9,0.2,0.9,0.9c0,0.2,0,0.4,0,0.6
	c0,4.2,0,8.4,0,12.7c0,0.4,0,0.7,0,1.1c0,0.2-0.1,0.4-0.3,0.5c-0.3,0.1-0.6,0.2-1,0.2c-1,0.1-0.9,0.1-0.9,1.1c0,0.4,0.1,0.4,0.5,0.4
	L172.2,136.4z M82,136.4c1.2,0,2.4,0,3.6,0c0.3,0,0.4-0.2,0.3-0.4c-0.1-0.2,0.3-0.9-0.3-1c-0.6-0.1-1.1-0.4-1.4-0.8
	c-0.4-0.6-0.7-1.2-0.9-1.9c-0.6-1.7-1.3-3.4-1.9-5.1l-2.1-5.7c-0.5-1.3-1-2.7-1.5-4c-0.1-0.3-0.3-0.4-0.6-0.4c0,0,0,0,0,0
	c-0.4,0-0.8,0-1.2,0c-0.4,0-0.5,0.1-0.7,0.5c-0.7,1.7-1.3,3.5-2,5.2c-1.3,3.5-2.7,6.9-4,10.4c-0.3,0.9-0.9,1.5-1.8,1.8
	c-0.2,0-0.6-0.1-0.7,0.2c0,0.3,0,0.5,0,0.8l0,0c0,0.4,0.1,0.5,0.5,0.5c1.4,0,2.8,0,4.3,0c1,0,1,0,1-1c0-0.3-0.1-0.4-0.4-0.4
	c-0.8,0-1.1-0.4-0.9-1.2c0.3-1,0.6-1.9,0.9-2.9c0-0.2,0.2-0.4,0.5-0.3H78c0.2,0,0.4,0.1,0.5,0.3c0.3,1,0.7,2,1,3
	c0.2,0.6,0,0.9-0.7,1.1c-0.7,0.1-0.7,0.2-0.7,0.9c0,0,0,0.1,0,0.1c0,0.3,0.1,0.5,0.5,0.5C79.7,136.4,80.9,136.4,82,136.4L82,136.4z
	 M122.7,136.4h3c1.2,0,1,0.3,1-1.1c0-0.3-0.1-0.3-0.3-0.3c-0.5,0-1-0.3-1.3-0.8c-0.3-0.3-0.5-0.7-0.6-1.1c-0.9-2.4-1.9-4.9-2.8-7.3
	c-1-2.8-2.1-5.6-3.1-8.4c0-0.2-0.2-0.3-0.5-0.3c-0.5,0-1,0-1.5,0c-0.2,0-0.5,0.1-0.5,0.4c-0.5,1.2-0.9,2.5-1.3,3.7
	c-0.9,2.4-1.8,4.7-2.7,7.1c-0.7,1.8-1.3,3.6-2.2,5.3c-0.3,0.7-0.9,1.2-1.6,1.3c-0.7,0.1-0.7,0.1-0.7,0.8c0,0.1,0,0.1,0,0.2
	c0,0.3,0.1,0.5,0.5,0.5c1.5,0,2.9,0,4.3,0c1,0,1,0,1-1c0-0.3-0.1-0.5-0.5-0.5c-0.7,0-0.9-0.3-0.9-0.9c0-0.2,0-0.3,0.1-0.5
	c0.3-0.9,0.6-1.8,0.9-2.7c0-0.2,0.3-0.4,0.5-0.3h5.2c0.2,0,0.4,0.1,0.5,0.3c0.3,1,0.7,2,1,3c0.2,0.6-0.1,0.9-0.7,1.1
	c-0.6,0.1-0.7,0.1-0.7,0.9c0,0.1,0,0.1,0,0.2c0,0.3,0.1,0.5,0.5,0.5C120.4,136.4,121.6,136.4,122.7,136.4L122.7,136.4z M195.4,136.4
	h3.6c0.2,0,0.4,0,0.4-0.2c0.1-0.4,0.1-0.8,0-1.1c-0.1-0.3-0.4-0.1-0.6-0.2c-0.3-0.1-0.5-0.2-0.7-0.4c-0.4-0.4-0.7-0.8-0.9-1.3
	c-0.7-1.6-1.3-3.3-1.9-4.9c-1.2-3.4-2.5-6.7-3.7-10.1c-0.4-1.2-0.4-1.2-1.6-1.2c-0.9,0-0.9,0-1.2,0.8c-1,2.7-2.1,5.4-3.1,8.1
	c-0.9,2.4-1.8,4.8-2.8,7.1c-0.3,0.8-0.9,1.5-1.7,1.8c-0.7,0.2-0.7,0.2-0.7,1c0,0,0,0.1,0,0.1c0,0.4,0.1,0.5,0.5,0.5
	c1.4,0,2.9,0,4.3,0c1,0,0.9,0,1-1c0-0.3,0-0.5-0.5-0.5c-0.4,0-0.8-0.3-0.9-0.7c0-0.1,0-0.3,0.1-0.4c0.3-1,0.6-1.9,0.9-2.9
	c0-0.2,0.3-0.4,0.5-0.3c1.7,0,3.4,0,5.1,0c0.3,0,0.5,0.1,0.6,0.4c0.3,1,0.7,2,1,2.9c0.2,0.6,0,1-0.7,1.1c-0.7,0.1-0.7,0.1-0.7,0.8
	c0,0.1,0,0.1,0,0.2c0,0.3,0.1,0.5,0.5,0.5C193.1,136.4,194.2,136.4,195.4,136.4L195.4,136.4z M219,133.2c0,0.3,0,0.5,0,0.8
	s0,0.5,0,0.8c0,0.8,0.1,1,0.9,1.2c1.2,0.4,2.4,0.6,3.7,0.7c1.9,0.2,3.9-0.2,5.6-1.1c1.4-0.7,2.4-2,2.5-3.6c0.2-1.7-0.4-3.4-1.6-4.6
	c-1.1-1.1-2.3-2.1-3.6-3c-0.9-0.6-1.8-1.3-2.5-2.2c-0.6-0.8-0.6-2,0-2.8c0.6-0.8,1.7-1.1,2.7-0.7c1.1,0.4,1.9,1.4,2.2,2.5
	c0.3,0.8,0.3,0.8,1.1,0.8l0,0c0.3,0,0.4-0.1,0.4-0.4c0-1.1,0-2.2,0-3.3c0-0.6-0.2-0.8-0.8-0.9c-1.4-0.3-2.8-0.4-4.3-0.4
	c-1.4,0-2.8,0.3-4,1c-2,1.1-2.8,3.4-1.9,5.5c0.5,1.2,1.4,2.2,2.4,2.9c1.2,0.9,2.5,1.6,3.6,2.7c0.9,0.6,1.5,1.6,1.6,2.7
	c0.2,1.1-0.3,2.2-1.2,2.9c-0.9,0.7-2.1,0.8-3.1,0.3c-1.2-0.6-2-1.8-2.3-3.1c-0.2-0.9-0.2-0.9-1.1-0.9c-0.3,0-0.4,0.1-0.4,0.4
	C219,131.9,219,132.6,219,133.2L219,133.2z M156,117.4h-7.7c-0.2,0-0.5,0-0.5,0.3l-0.7,4c0,0.1,0,0.2,0.1,0.3c0.5,0.1,1,0,1.3-0.3
	c0.3-0.4,0.5-0.9,0.8-1.3c0.4-0.6,0.9-1,1.6-1.2c0.7-0.1,1.5-0.2,2.3-0.1c0.6,0,0.6,0,0.6,0.6c0,4.6,0,9.1,0,13.6
	c0,1.8,0,1.5-1.5,1.8h-0.1c-0.5,0-0.7,0.1-0.6,0.6c0,0.1,0,0.2,0,0.3c0,0.4,0.1,0.5,0.5,0.5c2.5,0,5,0,7.5,0c1,0,0.9,0.1,0.9-0.9
	c0-0.4-0.1-0.6-0.6-0.6c-0.2,0-0.4,0-0.5,0c-1.1-0.1-1.2-0.2-1.2-1.3c0-2.5,0-5,0-7.5c0-2.2,0-4.4,0-6.6c0-0.3,0.1-0.5,0.5-0.5
	c0.4,0,0.9,0,1.3,0c0.9,0,1.8,0.3,2.4,1c0.3,0.4,0.6,0.9,0.9,1.3c0.2,0.6,0.8,0.9,1.3,0.8c0.3,0,0.4-0.1,0.3-0.4
	c-0.2-1.3-0.5-2.6-0.7-3.9c0-0.3-0.2-0.4-0.5-0.4L156,117.4z M233.4,145.7c1.7,0,3.1-1.4,3.1-3.1l0,0c0-1.7-1.4-3.1-3.1-3.1
	c-1.7,0-3.1,1.4-3.1,3.1c0,1.7,1.3,3.1,3,3.1C233.3,145.7,233.3,145.7,233.4,145.7L233.4,145.7z"/>
<path class="st0" d="M72.2,86c0.1-0.3,0.4-0.4,0.6-0.5c3.2-2.2,6.7-4.2,10.2-5.9c2.9-1.4,5.8-2.6,8.8-3.6c3.4-1.2,6.9-2.2,10.4-3
	c2.8-0.6,5.6-1.1,8.4-1.5c2.8-0.4,5.9-0.7,8.8-0.8c2.4-0.1,4.8-0.2,7.1-0.1c4.1,0.1,8.2,0.4,12.2,0.9c3.4,0.5,6.7,1.1,10,1.9
	c2.9,0.7,5.9,1.6,8.7,2.6c2.8,1,5.5,2.1,8.1,3.3c3.9,1.8,7.7,4,11.2,6.4c0.1,0.1,0.3,0.1,0.2,0.3c-0.1,0.2-0.2,0.1-0.3,0
	c-3.9-0.6-7.8-1.1-11.7-1.5c-2.6-0.3-5.4-0.5-8.1-0.8c-2.7-0.2-5.5-0.4-8.2-0.6c-2.2-0.1-4.5-0.2-6.7-0.3c-2.5-0.1-5-0.2-7.5-0.3
	c-2.3-0.1-4.5,0-6.7-0.1c-1.4,0-2.8,0-4.2,0c-2.7,0-5.3,0-7.9,0.1c-2.2,0-4.3,0.1-6.5,0.2l-4.4,0.2c-2.2,0.1-4.4,0.2-6.7,0.4
	c-2.5,0.2-4.9,0.4-7.4,0.6c-3.7,0.3-7.3,0.7-10.9,1.2c-2.3,0.3-4.7,0.7-7,1C72.6,86,72.5,86.1,72.2,86z"/>
<path class="st0" d="M117,90.8c-0.2,0.2-0.1,0.4-0.1,0.6c0,1.7,0,3.5,0.1,5.2c0,0.4-0.1,0.5-0.5,0.5c-0.3,0-0.7,0-1,0
	c-0.3,0-0.4-0.1-0.4-0.4c0-1.1,0-2.1,0-3.1c0-1.9,0-3.8,0-5.7c0-0.1,0-0.3,0-0.4c-0.1-0.5,0-0.6,0.5-0.6c0.5,0,0.8,0,1.2,0
	c0.3-0.1,0.6,0.1,0.7,0.4c0.7,1.6,1.5,3.2,2.3,4.9c0,0.1,0,0.2,0.2,0.2c0.2,0,0.1-0.2,0.1-0.3c0-1.6,0-3.3-0.1-4.9
	c0-0.3,0.1-0.4,0.4-0.4c0.4,0,0.7,0,1.1,0c0.3,0,0.4,0.1,0.4,0.4l0,0c0,1.3,0,2.7,0,4c0,1.8,0,3.7,0.1,5.5c0,0.3,0,0.5-0.4,0.4
	c-0.4,0-1.1,0.2-1.5-0.1c-0.4-0.3-0.5-0.9-0.7-1.3L117,90.8z"/>
<path class="st0" d="M147.7,90.6c-0.1,1.5-0.2,2.9-0.2,4.4c0,0.3-0.1,0.7-0.3,1c-0.1,0.3-0.1,0.5,0.2,0.6c0.6,0.1,0.7,0.5,0.6,1v0.3
	c-0.1,0.8-0.2,0.8-0.9,0.5c-0.3-0.1-0.6-0.3-0.8-0.6c-0.2-0.2-0.4-0.3-0.7-0.2c-0.9,0.3-1.9,0.2-2.7-0.1c-1-0.3-1.6-1.2-1.7-2.3
	c-0.1-1.2-0.1-2.4,0-3.6c0-0.6,0.1-1.2,0.1-1.8c0-1.4,1.2-2.5,2.6-2.6c0.9-0.1,1.8,0,2.6,0.5c0.8,0.5,1.2,1.4,1.2,2.3
	C147.6,90.2,147.6,90.4,147.7,90.6L147.7,90.6z M145.6,90.6L145.6,90.6c0-0.2,0-0.4,0-0.6c0-0.6-0.4-1.1-1-1.1c-0.1,0-0.1,0-0.2,0
	c-0.8,0-1.2,0.3-1.3,1.1c-0.1,1.6-0.2,3.2-0.2,4.8c0,0.6,0.4,1,1,1.1c0,0,0,0,0.1,0c0.2,0,0.5,0.1,0.6-0.1c0.1-0.3-0.2-0.5-0.4-0.6
	c-0.2-0.1-0.3-0.4-0.3-0.7c0-0.1,0-0.3,0-0.4c0-0.1-0.1-0.6,0.2-0.7c0.3-0.1,0.5,0.2,0.8,0.3c0.1,0,0.1,0.1,0.2,0.2
	c0,0.1,0.1,0.2,0.2,0.2c0.1-0.1,0.1-0.1,0.1-0.2L145.6,90.6z"/>
<path class="st0" d="M81.1,89.3c0.8-0.1,1.7,0.2,2.3,0.9c0.8,1,1,2.2,0.6,3.4c-0.1,0.4-0.4,0.8-0.8,1c-0.2,0.1-0.2,0.3-0.1,0.5
	c0.7,1.2,1.3,2.4,2.1,3.6c0.2,0.3,0.1,0.4-0.2,0.4c-0.3,0-0.9,0.1-1.4,0.2c-0.2,0-0.4-0.1-0.5-0.2c-0.6-1.1-1.2-2.2-1.8-3.3
	c-0.2-0.3-0.6-0.5-0.9-0.3c0,0,0,0,0,0c-0.1,0.1-0.1,0.2-0.1,0.3c0.1,1.1,0.3,2.3,0.4,3.4c0,0.3,0,0.5-0.4,0.5
	c-0.4,0-0.8,0.1-1.1,0.1c-0.3,0.1-0.5,0-0.5-0.4c-0.1-0.6-0.1-1.3-0.2-1.9c-0.3-2.5-0.6-5-0.9-7.4c0-0.3,0-0.5,0.3-0.5
	C78.9,89.5,80,89.4,81.1,89.3z M82.1,92.4c0-1-0.6-1.6-1.5-1.4c-0.2,0-0.4,0.1-0.6,0.1c-0.2,0-0.3,0.1-0.3,0.4
	c0.1,0.5,0.1,0.9,0.2,1.4c0.1,1,0.1,1,1.1,0.8c0.6,0,1.2-0.5,1.2-1.1C82.1,92.6,82.1,92.5,82.1,92.4L82.1,92.4z"/>
<path class="st0" d="M131.8,92.1c0,0.8,0,1.7-0.1,2.5c-0.2,1.5-1.6,2.6-3.1,2.5c-0.9,0-1.7,0-2.7,0c-0.4,0-0.5-0.1-0.5-0.5
	c0-2.5,0-5,0.1-7.5c0-0.6,0-1.3,0-1.9c0-0.2,0-0.4,0.3-0.3c0.8,0.1,1.7,0,2.5,0c0.7,0,1.3,0.1,1.9,0.4c0.9,0.5,1.4,1.5,1.5,2.5
	C131.9,90.5,131.9,91.3,131.8,92.1z M127.6,91.8c0,0.7,0,1.9,0,3c0,0.2,0,0.4,0.3,0.5c1.2,0.1,1.9-0.2,2-1.5c0.1-1.2,0.1-2.4,0-3.5
	c0-1.2-0.4-1.5-1.6-1.7c-0.6-0.1-0.7,0-0.7,0.6C127.6,89.8,127.6,90.7,127.6,91.8L127.6,91.8z"/>
<path class="st0" d="M55.1,104.1c-0.3,0-0.3-0.1-0.3-0.3c-0.3-1.2-0.6-2.3-0.9-3.5c-0.1-0.4-0.2-0.4-0.5-0.3
	c-0.6,0.2-1.2,0.3-1.8,0.5c-0.3,0.1-0.3,0.2-0.3,0.5c0.3,1.2,0.6,2.3,0.9,3.5c0,0.3,0,0.4-0.3,0.4c-0.4,0.1-0.8,0.2-1.3,0.3
	c-0.3,0.1-0.4,0-0.4-0.2c-0.4-1.6-0.8-3.2-1.2-4.8c-0.4-1.6-0.7-3-1.1-4.4c-0.1-0.3,0-0.4,0.3-0.5s0.8-0.2,1.3-0.3
	c0.4-0.1,0.4,0,0.4,0.3c0.2,1,0.5,2,0.7,3.1c0.1,0.5,0.2,0.6,0.7,0.4l1.5-0.4c0.3-0.1,0.5-0.2,0.4-0.6c-0.3-1-0.5-2.1-0.8-3.1
	c-0.1-0.3,0-0.5,0.3-0.5c0.4-0.1,0.8-0.2,1.2-0.3c0.3-0.1,0.4,0,0.5,0.3c0.5,1.9,0.9,3.8,1.3,5.7c0.3,1.2,0.6,2.4,0.9,3.5
	c0.1,0.3,0,0.4-0.2,0.5L55.1,104.1z"/>
<path class="st0" d="M158.2,89.3c-0.2,2.1-0.3,4.2-0.5,6.3c0,1.6-1.4,2.9-3,2.8c-0.2,0-0.4,0-0.6-0.1c-0.5,0-0.9-0.1-1.3-0.3
	c-1.2-0.4-1.9-1.6-1.8-2.8c0-1.4,0.2-2.8,0.3-4.2c0.1-1,0.2-1.9,0.2-2.9c0-0.3,0.1-0.4,0.4-0.3c0.4,0.1,0.8,0.1,1.2,0.1
	c0.3,0,0.4,0.2,0.4,0.4c-0.1,1.2-0.2,2.3-0.3,3.5c-0.1,1.2-0.2,2.3-0.3,3.4c-0.1,0.7,0.4,1.3,1.1,1.3c0,0,0,0,0.1,0
	c0.9,0.1,1.5-0.3,1.5-1.1c0.2-1.7,0.3-3.4,0.4-5.1c0-0.6,0.1-1.3,0.1-1.9c0-0.3,0.1-0.3,0.4-0.3l1.4,0.1c0.2,0,0.2,0.2,0.2,0.4
	S158.2,89,158.2,89.3z"/>
<path class="st0" d="M68.5,100.9l0.6-6.5c0.1-1.1,0.2-2.1,0.3-3.2c0-0.3,0.1-0.5,0.4-0.5l1.8-0.3c0.3,0,0.4,0,0.5,0.3
	c1,2.4,1.9,4.7,2.9,7.1l0.8,1.8c0.2,0.4,0.2,0.5-0.3,0.6c-0.3,0-0.6,0.1-1,0.2c-0.4,0.1-0.5,0-0.7-0.4c-0.1-0.4-0.3-0.8-0.5-1.2
	c0-0.2-0.3-0.4-0.5-0.4c0,0-0.1,0-0.1,0c-0.6,0.1-1.2,0.2-1.8,0.3c-0.3,0-0.4,0.2-0.4,0.4c0,0.5-0.1,1.1-0.1,1.6
	c0,0.2-0.1,0.2-0.2,0.3l-1.3,0.2C68.5,101.4,68.4,101.3,68.5,100.9z M71.1,93.2H71c-0.1,1.2-0.2,2.3-0.3,3.5c0,0.2,0.1,0.3,0.3,0.3
	l1-0.1c0.4,0,0.5-0.2,0.3-0.6L72,95.4L71.1,93.2z"/>
<path class="st0" d="M167.7,99.5l-1.4-0.2c-0.2,0-0.3-0.1-0.3-0.3c0-0.5-0.1-1-0.2-1.5c0-0.2-0.1-0.3-0.3-0.4c-0.7,0-1.3-0.1-2-0.2
	c-0.2-0.1-0.4,0.1-0.5,0.3c0,0,0,0,0,0.1c-0.1,0.4-0.3,0.9-0.5,1.3c0,0.3-0.3,0.4-0.5,0.4c0,0-0.1,0-0.1,0c-0.4-0.1-0.8-0.1-1.1-0.1
	c-0.3,0-0.3-0.1-0.2-0.4c0.5-1.3,1-2.7,1.5-4.1c0.6-1.7,1.3-3.5,1.9-5.2c0.1-0.2,0.2-0.3,0.4-0.3c0.6,0.1,1.2,0.1,1.9,0.2
	c0.2,0,0.4,0.1,0.4,0.3c0,0,0,0,0,0c0.2,1.3,0.3,2.7,0.5,4c0.3,1.9,0.5,3.8,0.8,5.8C167.9,99.4,167.9,99.6,167.7,99.5z M165.1,91.5
	c-0.2,0.1-0.3,0.3-0.3,0.5c-0.2,0.7-0.5,1.3-0.7,2c-0.4,1.1-0.4,1.1,0.7,1.2c0.8,0.1,0.8,0.1,0.7-0.7
	C165.3,93.6,165.2,92.6,165.1,91.5L165.1,91.5z"/>
<path class="st0" d="M108.1,87.1c0.2,0,0.5,0,0.7,0c0.5-0.1,0.6,0.1,0.7,0.5l2.6,9.1c0.1,0.5,0,0.6-0.4,0.6c-0.4,0-0.7,0-1.1,0
	c-0.3,0-0.4-0.2-0.4-0.4c-0.1-0.5-0.3-0.9-0.4-1.3c-0.1-0.4-0.2-0.4-0.5-0.3c-0.6,0.1-1.2,0.1-1.8,0.1c-0.2,0-0.5,0.1-0.5,0.4
	c0,0,0,0,0,0c-0.1,0.5-0.2,0.9-0.3,1.3c0,0.2-0.2,0.4-0.4,0.4c0,0,0,0-0.1,0c-0.4,0-0.8,0-1.1,0c-0.3,0-0.4-0.1-0.3-0.4
	c0.2-1.1,0.4-2.1,0.7-3.2c0.4-2.1,0.9-4.3,1.3-6.4c0-0.3,0.2-0.4,0.5-0.4S107.8,87.1,108.1,87.1L108.1,87.1z M108.1,89.7
	c-0.1,0.1-0.1,0.2-0.1,0.3l-0.7,3.3c0,0.2,0,0.2,0.2,0.2h1.1c0.4,0,0.5-0.2,0.4-0.5c-0.1-0.4-0.3-1-0.4-1.5L108.1,89.7z"/>
<path class="st0" d="M64,93.2c0,0.4-0.1,0.4-0.3,0.5c-0.8,0.1-1.6,0.3-2.4,0.4c-0.4,0-0.5,0.2-0.4,0.6c0.1,0.4,0.2,1,0.3,1.4
	c0,0.2,0.2,0.3,0.4,0.3c0.6-0.1,1.2-0.2,1.8-0.4c0.2,0,0.3,0,0.4,0.2c0,0.2,0.1,0.8,0.2,1.1s0,0.4-0.3,0.4c-0.6,0.1-1.2,0.2-1.7,0.3
	c-0.3,0-0.5,0.2-0.4,0.5c0.1,0.6,0.2,1.1,0.3,1.7c0,0.4,0.2,0.4,0.5,0.3c0.9-0.2,1.7-0.3,2.6-0.5c0.3-0.1,0.5,0,0.5,0.3
	c0.1,0.3,0.1,0.7,0.2,1s0,0.3-0.2,0.4c-1.6,0.3-3.2,0.6-4.7,0.9c-0.3,0.1-0.4,0-0.5-0.4c-0.5-2.6-1-5.2-1.5-7.8
	c-0.1-0.5-0.2-1-0.3-1.5c-0.1-0.5,0-0.4,0.3-0.5l4.5-0.9c0.4-0.1,0.5,0,0.5,0.4C63.8,92.6,63.9,92.9,64,93.2z"/>
<path class="st0" d="M195.3,93.8l1.5,0.4c0.3,0.1,0.3,0.3,0.3,0.5c0.2,1.1,0.3,2.2,0.5,3.3c0,0.1,0,0.3,0.1,0.3
	c0.1,0,0.2-0.2,0.3-0.3c0.7-0.9,1.3-1.8,2-2.7c0.1-0.3,0.4-0.4,0.7-0.3c0.4,0.1,0.9,0.2,1.3,0.3c0.5,0.1,0.3,0.2,0.1,0.4
	c-1.1,1.4-2.2,2.8-3.4,4.2c-0.4,0.5-0.7,1.1-0.8,1.7c-0.2,0.9-0.4,1.8-0.6,2.7c0,0.2-0.2,0.4-0.4,0.3c-0.3-0.1-0.8-0.2-1.2-0.3
	c-0.4-0.1-0.4-0.3-0.3-0.6c0.3-0.9,0.5-1.9,0.7-2.8c0.1-0.5,0.1-1,0-1.5c-0.4-1.8-0.7-3.7-1.1-5.5C195,93.8,195.1,93.8,195.3,93.8z"
	/>
<path class="st0" d="M90.5,98.6c-0.3,0.1-0.4,0-0.4-0.4c-0.2-2.5-0.4-5-0.7-7.5c0-0.3-0.1-0.5-0.5-0.5c-0.5,0.1-1,0.1-1.5,0.1
	c-0.3,0-0.4-0.1-0.4-0.3s0-0.7-0.1-1.1c-0.1-0.4,0.1-0.3,0.3-0.3l5.3-0.5c0.8,0,0.8,0,0.9,0.8c0.1,0.8,0.1,0.9-0.9,1
	c-0.3,0-0.6,0-0.8,0s-0.4,0.2-0.4,0.5c0.1,1.3,0.2,2.7,0.4,4c0.1,1.2,0.2,2.4,0.3,3.6c0,0.3,0,0.5-0.4,0.5
	C91.1,98.5,90.8,98.5,90.5,98.6z"/>
<path class="st0" d="M186.2,102.1c0.2-1.1,0.4-2.1,0.6-3.2c0.3-1.5,0.6-2.9,0.9-4.4c0.1-0.3,0-0.5-0.4-0.5c-0.4,0-0.9-0.2-1.3-0.2
	c-0.4-0.1-0.4-0.2-0.3-0.5c0.1-0.3,0.1-0.6,0.2-0.9c0-0.3,0.2-0.4,0.5-0.4l5.7,1.2c0.2,0,0.3,0,0.2,0.3c-0.1,0.3-0.2,0.8-0.3,1.2
	c-0.1,0.4-0.2,0.3-0.5,0.3c-0.5-0.1-1-0.2-1.5-0.3c-0.3,0-0.4,0-0.4,0.3c-0.3,1.6-0.6,3.3-1,4.9c-0.2,0.9-0.4,1.8-0.5,2.7
	c0,0.3-0.2,0.3-0.4,0.3c-0.3-0.1-0.9-0.2-1.3-0.3C186.3,102.4,186.1,102.3,186.2,102.1z"/>
<path class="st0" d="M170.8,99.5c0.2-1.5,0.4-3,0.6-4.5s0.5-3.2,0.7-4.9c0-0.3,0.1-0.4,0.4-0.3c0.4,0.1,0.9,0.1,1.3,0.2
	c0.3,0,0.3,0.2,0.3,0.4c-0.2,1.1-0.3,2.3-0.5,3.4c-0.2,1.5-0.4,2.9-0.6,4.3c0,0.3,0.2,0.3,0.4,0.4l2.2,0.3c0.5,0.1,0.5,0.1,0.5,0.6
	c0,0.2,0,0.4-0.1,0.6c-0.1,0.6-0.1,0.6-0.7,0.5l-4.2-0.6C170.8,99.9,170.8,99.8,170.8,99.5z"/>
<path class="st0" d="M97.6,87.7c0.9,0,0.9-0.3,1,0.9c0.1,2.3,0.3,4.7,0.4,7c0,0.4,0.1,0.6,0.6,0.5c0.7-0.1,1.4-0.1,2.2-0.2
	c0.3,0,0.5,0,0.5,0.4c0,0.3,0,0.6,0,1c0,0.3-0.1,0.4-0.3,0.4L97.5,98c-0.3,0-0.4-0.1-0.4-0.4c-0.1-1.8-0.2-3.6-0.3-5.3
	c-0.1-1.3-0.2-2.7-0.3-3.9c0-0.5,0.1-0.5,0.5-0.5L97.6,87.7z"/>
<path class="st0" d="M180.6,101.4l-1.5-0.2c-0.2,0-0.2-0.2-0.2-0.3c0.1-0.9,0.3-1.7,0.4-2.7c0.4-2.3,0.8-4.5,1.1-6.8
	c0-0.4,0.2-0.4,0.5-0.3c0.3,0.1,0.8,0.1,1.2,0.2c0.4,0.1,0.4,0.1,0.3,0.4c-0.4,2.6-0.9,5.2-1.3,7.7c-0.1,0.6-0.2,1.1-0.3,1.7
	C180.9,101.3,180.9,101.4,180.6,101.4z"/>
<path class="st1" d="M46.2,128.9c0,1.6-0.1,3.2,0.1,4.7c0,0.7,0.5,1.2,1.1,1.2c0,0,0,0,0,0h0.2c1,0.2,1,0.2,0.9,1.2
	c0,0.2-0.1,0.3-0.3,0.3h-5.9c-0.1,0-0.2,0-0.2,0c-0.3-0.4-0.1-0.8-0.1-1.1c0-0.4,0.2-0.2,0.4-0.3l0.7-0.1c0.6,0,1.1-0.6,1.1-1.2
	c0-0.6,0.1-1.1,0.1-1.7c0-3.4,0-6.8,0-10.2c0-1.2-0.7-2.2-1.8-2.7c-0.3-0.2-0.7-0.3-1-0.2c-0.3,0-0.3-0.1-0.3-0.4
	c0-1.3-0.1-1.1,1-1.1c1.6,0,3.3,0,4.9,0c0.3,0,0.6,0.2,0.7,0.5c1.3,2.6,2.6,5.2,3.8,7.8c0.7,1.5,1.5,3,2.2,4.5
	c0,0.1,0.1,0.3,0.3,0.3c0.2,0,0.2-0.2,0.3-0.3l2.7-5.1l3.8-7.3c0.1-0.2,0.3-0.3,0.5-0.3h4.9c0.3,0,0.4,0.1,0.4,0.4
	c0,0.3,0.1,0.7,0,1c-0.1,0.3-0.6,0.1-0.9,0.2c-0.9,0-1.6,0.7-1.6,1.6c0,0.3,0,0.7,0,1c0,4,0,8.1,0,12.1c0,0.1,0,0.3,0,0.4
	c0,0.6,0.2,0.8,0.8,0.8l1.1,0.1c0.3,0,0.4,0.1,0.4,0.5c0,1.2,0.1,1-0.9,1h-7.7c-0.3,0-0.4-0.1-0.4-0.4c0-1,0-1,0.9-1.1
	c1.3-0.2,1.4-0.2,1.4-1.7c0-2.7,0-5.5,0-8.2c0-0.1,0-0.2,0-0.3c0-0.1,0-0.2-0.1-0.3c-0.1,0-0.2,0.1-0.2,0.2l-1.1,2.2l-4.6,8.8
	c-0.2,0.3-0.2,0.7-0.7,0.7c-0.4,0.1-0.8-0.2-1-0.6c-1.3-2.8-2.8-5.7-4.1-8.5c-0.5-1-0.9-1.9-1.4-2.9c0-0.1,0-0.3-0.2-0.2
	c-0.2,0-0.1,0.2-0.1,0.3C46.2,126,46.2,127.4,46.2,128.9z"/>
<path class="st1" d="M28.8,136.8c-5.3,0.1-9.9-3.6-10.9-8.8c-1-4,0.3-8.3,3.4-11.1c2.1-2,4.9-3.2,7.8-3.3c2.8-0.2,5.6,0.7,7.8,2.5
	c1.7,1.4,3,3.3,3.6,5.5c1.8,6.3-1.9,12.9-8.2,14.7c-0.2,0.1-0.5,0.1-0.7,0.2C30.6,136.6,29.7,136.8,28.8,136.8z M35.4,125.1
	c0-1.4-0.2-2.7-0.6-4c-0.4-1.6-1.2-3-2.4-4.1c-2-2-5.2-1.9-7.2,0.1c-0.2,0.2-0.5,0.5-0.7,0.8c-0.9,1.5-1.4,3.2-1.5,4.9
	c-0.2,1.9,0,3.8,0.3,5.6c0.3,1.8,1,3.4,2.1,4.8c1.3,1.8,3.7,2.5,5.8,1.6c1.4-0.6,2.5-1.8,3-3.3C35.2,129.4,35.6,127.2,35.4,125.1
	L35.4,125.1z"/>
<path class="st1" d="M91,117.4c1.3,0,2.7,0,4,0c0.4,0,0.6,0.1,0.5,0.5c0,1,0.2,0.9-0.9,1l0,0c-1.4,0.2-1.3,0.3-1.3,1.5
	c0,1.5,0,2.9,0,4.3c0,0.4,0.1,0.5,0.5,0.5c2.1,0,4.2,0,6.3,0c0.4,0,0.6-0.1,0.6-0.5c0-1.5,0-3,0-4.5c0-0.9-0.1-1.1-1-1.2h-0.3
	c-1-0.1-1-0.1-1-1.1c0-0.3,0.1-0.4,0.4-0.4h1.8c2,0,4,0,6.1,0c0.4,0,0.6,0.1,0.6,0.6c0,0.9,0.2,0.8-0.8,0.9
	c-1.6,0.2-1.5,0.2-1.5,1.6c0,4.3,0,8.6,0,12.8c0,0.2,0,0.5,0,0.7c0,0.6,0.2,0.8,0.8,0.8c0.3,0,0.7,0.1,1,0.1c0.3,0,0.5,0.1,0.4,0.5
	c0,1.2,0.1,1-1,1c-2.4,0-4.9,0-7.3,0c-0.4,0-0.6-0.1-0.6-0.6c0-0.8,0-0.8,0.8-0.9h0.3c1.2-0.2,1.2-0.2,1.2-1.5c0-2,0-4,0-6
	c0-0.3-0.1-0.4-0.4-0.4h-6.4c-0.3,0-0.5,0.1-0.5,0.4c0,2.1,0,4.2,0,6.3c0,0.8,0.2,1,0.9,1.1l1,0.1c0.2,0,0.4,0.1,0.4,0.4
	c0,1.2,0.1,1-1,1h-7.7c-0.3,0-0.4-0.1-0.4-0.4c0-1,0-1,0.9-1.1h0.5c0.7-0.1,0.8-0.2,0.8-0.9c0.2-4.5,0-9,0-13.5c0-0.2,0-0.3,0-0.5
	c0-0.7,0-0.8-1-1h-0.4c-0.3,0-0.7,0.1-0.8-0.2c-0.1-0.4-0.1-0.8,0-1.1c0-0.2,0.2-0.2,0.4-0.2L91,117.4z"/>
<path class="st1" d="M145.9,117c0,0.7,0,1.3,0,2c0,0.3-0.1,0.4-0.4,0.4c-1,0-0.9,0-1.3-0.9c-0.3-0.9-0.8-1.7-1.5-2.4
	c-1.2-1.1-3-1.1-4.2,0c-0.9,1.1-0.9,2.8,0,3.9c0.9,0.9,1.8,1.7,2.8,2.4c1.5,1,2.8,2.1,4.1,3.3c1.8,1.7,2.4,4.2,1.7,6.5
	c-0.5,1.5-1.6,2.7-3,3.3c-1.4,0.7-2.8,1.1-4.3,1.1c-2.1,0.2-4.2-0.1-6.3-0.7c-0.2-0.1-0.5-0.1-0.7-0.2c-0.3-0.1-0.5-0.4-0.5-0.7
	c0-1.6,0-3.2,0-4.8c0-0.1,0-0.2,0.1-0.2c0.4-0.1,0.8-0.1,1.2,0c0.3,0,0.3,0.3,0.3,0.5c0.3,1.5,1.1,2.9,2.3,3.8
	c1.6,1.2,3.8,0.9,5.1-0.6c0.3-0.4,0.5-0.8,0.6-1.3c0.4-1.5,0-3.1-1.2-4.1c-1.3-1.2-2.8-2.3-4.3-3.2c-1.4-0.8-2.5-1.9-3.3-3.3
	c-1.3-2.3-0.6-5.2,1.6-6.7c1.4-0.9,3-1.4,4.6-1.4c1.7-0.1,3.3,0,5,0.3c0.3,0,0.6,0.1,0.9,0.2c0.4,0.1,0.6,0.4,0.6,0.8
	C145.8,115.6,145.8,116.3,145.9,117L145.9,117z"/>
<path class="st1" d="M218.6,136.4c-1.7,0-3.2,0-4.8,0c-0.6-0.1-1.2-0.4-1.6-0.9c-1.1-1.3-2.1-2.9-3.2-4.3c-0.8-1.1-1.6-2.2-2.4-3.4
	c0,0,0-0.1-0.1-0.1c-0.1,0-0.1,0.1-0.1,0.2c0,2,0,4.1,0,6.1c0,0.6,0.2,0.7,0.7,0.8c0.4,0,0.7,0.1,1.1,0.1s0.4,0.1,0.4,0.4
	c0,1.2,0.2,1-1,1c-2.5,0-4.9,0-7.4,0c-0.4,0-0.5-0.1-0.5-0.5c0-0.9,0-0.9,0.9-1c0.3,0,0.7-0.1,1-0.2c0.2-0.1,0.3-0.3,0.3-0.5
	c0-0.2,0-0.4,0-0.7c0-4.5,0-9,0-13.5c0-0.2,0-0.3,0-0.5c0-0.2-0.2-0.5-0.5-0.6c-0.5-0.1-0.9-0.2-1.4-0.2c-0.2,0-0.3-0.1-0.3-0.3l0,0
	c0-1.1,0-1.1,1-1.1c2.4,0,4.9,0,7.3,0c0.4,0,0.5,0.1,0.5,0.5c0,0.9,0,0.9-0.9,1c-1.2,0.1-1.3,0.2-1.3,1.4c0,1.7,0,3.4,0,5.1
	c0,0.1,0,0.2,0.1,0.3c0.1,0.1,0.2,0,0.3-0.1c0.2-0.1,0.4-0.3,0.5-0.4l4.8-4.9c0.3-0.3,0.6-0.5,0.5-0.9c-0.2-0.4-0.6-0.6-1.1-0.5
	c-0.4,0-0.5-0.1-0.5-0.5c0-1,0-1,1-1c1.5,0,3.1,0,4.6,0c0.4,0,0.6,0.1,0.5,0.5c0,0.2,0,0.3,0,0.5c0,0.3-0.1,0.4-0.4,0.5
	c-0.6,0.2-1.1,0.5-1.5,1c-1.8,1.9-3.6,3.8-5.5,5.6c-0.2,0.2-0.1,0.3,0,0.5c1.9,2.5,3.9,4.9,5.9,7.3c0.9,1,1.8,2,2.7,2.9
	C218.5,136.3,218.6,136.4,218.6,136.4z"/>
<path class="st1" d="M172.2,136.4h-6.8c-0.3,0-0.5-0.1-0.5-0.4c0-0.9,0-0.9,0.9-1.1c0.3,0,0.7-0.1,1-0.2c0.2-0.1,0.4-0.3,0.3-0.5
	c0-0.4,0-0.7,0-1.1c0-4.2,0-8.4,0-12.7c0-0.2,0-0.4,0-0.6c0-0.8-0.1-0.7-0.9-0.9c-0.3-0.1-0.7,0-1-0.1c-0.8-0.1-0.2-0.7-0.3-1.1
	c-0.1-0.4,0.1-0.4,0.4-0.4h7.7c1.6,0,3.2,0,4.8,0c0.4,0,0.5,0.1,0.5,0.5c0,1.3,0,2.7,0,4c0,0.3-0.1,0.4-0.4,0.4
	c-0.9,0-0.9,0-1.1-0.9c-0.1-0.7-0.4-1.3-0.9-1.8c-0.4-0.4-1-0.7-1.7-0.6c-0.8,0-1.7,0-2.5,0c-0.3,0-0.4,0.1-0.4,0.4c0,2,0,4.1,0,6.1
	c0,0.2,0,0.3,0.3,0.3c0.6,0,1.3,0,1.9,0c1,0,1.7-0.8,1.7-1.8c0-0.1,0-0.1,0-0.2c0-0.4,0.1-0.5,0.5-0.5c1,0,0.9-0.1,0.9,0.9
	c0,1.8,0,3.6,0,5.3c0,0.4-0.1,0.6-0.5,0.5c-0.1,0-0.3,0-0.4,0c-0.3,0-0.4-0.1-0.4-0.4c0-0.3-0.1-0.7-0.2-1c-0.2-0.8-1-1.4-1.8-1.3
	c-0.5,0-1,0-1.6,0c-0.3,0-0.3,0.1-0.3,0.3c0,1.9,0,3.8,0,5.7c-0.1,0.7,0.4,1.2,1,1.3c0,0,0.1,0,0.1,0c1.3,0.3,2.6,0.2,3.9-0.3
	c0.8-0.4,1.4-1,1.7-1.8c0.2-0.5,0.5-0.9,0.7-1.3c0.1-0.2,0.3-0.3,0.5-0.3c1.1,0,1-0.2,0.8,0.9c-0.2,1.3-0.5,2.7-0.7,4
	c0,0.4-0.2,0.5-0.5,0.5L172.2,136.4L172.2,136.4z"/>
<path class="st1" d="M82,136.4c-1.2,0-2.3,0-3.5,0c-0.3,0-0.5-0.1-0.5-0.5c0,0,0-0.1,0-0.1c0-0.7,0-0.7,0.7-0.9
	c0.7-0.2,0.8-0.5,0.7-1.1c-0.3-1-0.7-2-1-3c-0.1-0.2-0.3-0.3-0.5-0.3h-5.3c-0.2,0-0.4,0.1-0.5,0.3c-0.3,1-0.6,1.9-0.9,2.9
	c-0.2,0.8,0.1,1.2,0.9,1.2c0.3,0,0.4,0.1,0.4,0.4c0,1,0,1-1,1c-1.4,0-2.8,0-4.3,0c-0.4,0-0.6-0.1-0.5-0.5l0,0c0-0.3,0-0.5,0-0.8
	c0.1-0.3,0.5-0.1,0.7-0.2c0.9-0.3,1.5-1,1.8-1.8c1.4-3.4,2.7-6.9,4-10.4c0.7-1.7,1.3-3.5,2-5.2c0.1-0.3,0.3-0.5,0.7-0.5
	c0.4,0,0.8,0,1.2,0c0.3-0.1,0.5,0.1,0.6,0.4c0,0,0,0,0,0c0.5,1.3,1,2.7,1.5,4l2.1,5.7c0.6,1.7,1.3,3.4,1.9,5.1
	c0.2,0.7,0.5,1.3,0.9,1.9c0.3,0.5,0.8,0.8,1.4,0.8c0.6,0.1,0.2,0.7,0.3,1s0,0.4-0.3,0.4C84.4,136.4,83.2,136.4,82,136.4z
	 M75.5,122.5c-0.1,0-0.2,0.1-0.2,0.2l-2.2,5.7c-0.1,0.3,0,0.4,0.3,0.4c1.2,0,2.5,0,3.7,0c0.4,0,0.4-0.2,0.3-0.5
	c-0.2-0.5-0.4-1.1-0.6-1.6L75.5,122.5z"/>
<path class="st1" d="M122.7,136.4c-1.2,0-2.3,0-3.5,0c-0.4,0-0.5-0.1-0.5-0.5c0-0.1,0-0.1,0-0.2c0-0.7,0-0.7,0.7-0.9
	c0.7-0.1,0.9-0.5,0.7-1.1c-0.3-1-0.7-2-1-3c-0.1-0.2-0.3-0.3-0.5-0.3h-5.2c-0.2,0-0.4,0.1-0.5,0.3c-0.3,0.9-0.6,1.8-0.9,2.7
	c0,0.2-0.1,0.3-0.1,0.5c0,0.6,0.2,0.9,0.9,0.9c0.4,0,0.5,0.2,0.5,0.5c0,1,0,1-1,1c-1.5,0-2.9,0-4.3,0c-0.4,0-0.5-0.1-0.5-0.5
	c0-0.1,0-0.1,0-0.2c0-0.7,0-0.7,0.7-0.8c0.7-0.2,1.3-0.7,1.6-1.3c0.8-1.7,1.5-3.5,2.2-5.3c0.9-2.4,1.8-4.7,2.7-7.1
	c0.5-1.2,0.9-2.5,1.3-3.7c0-0.2,0.3-0.4,0.5-0.4c0.5,0,1,0,1.5,0c0.2,0,0.4,0.1,0.5,0.3c1,2.8,2,5.6,3.1,8.4
	c0.9,2.5,1.8,4.9,2.8,7.3c0.1,0.4,0.4,0.7,0.6,1.1c0.3,0.5,0.8,0.7,1.3,0.8c0.2,0,0.4,0.1,0.3,0.3c0,1.3,0.2,1.1-1,1.1L122.7,136.4z
	 M116.2,122.4c-0.1,0.1-0.1,0.1-0.1,0.1l-2.2,5.8c-0.1,0.3,0,0.4,0.3,0.4h3.5c0.6,0,0.6,0,0.4-0.7c-0.5-1.3-0.9-2.7-1.3-4
	C116.7,123.6,116.5,123,116.2,122.4z"/>
<path class="st1" d="M195.4,136.4c-1.2,0-2.3,0-3.5,0c-0.4,0-0.5-0.1-0.5-0.5c0-0.1,0-0.1,0-0.2c0-0.7,0-0.7,0.7-0.8
	s0.9-0.5,0.7-1.1c-0.3-1-0.7-2-1-2.9c-0.1-0.3-0.3-0.4-0.6-0.4c-1.7,0-3.4,0-5.1,0c-0.2,0-0.4,0.1-0.5,0.3c-0.3,1-0.7,1.9-0.9,2.9
	c-0.2,0.4,0,0.9,0.4,1.1c0.1,0.1,0.3,0.1,0.4,0.1c0.4,0,0.5,0.2,0.5,0.5c0,1,0,1-1,1c-1.4,0-2.9,0-4.3,0c-0.3,0-0.5-0.1-0.5-0.5
	c0,0,0-0.1,0-0.1c0-0.8,0-0.8,0.7-1c0.8-0.3,1.5-0.9,1.7-1.8c1-2.3,1.9-4.7,2.8-7.1c1-2.7,2.1-5.4,3.1-8.1c0.3-0.8,0.3-0.8,1.2-0.8
	c1.2,0,1.2,0,1.6,1.2c1.2,3.4,2.5,6.7,3.7,10.1c0.6,1.7,1.2,3.3,1.9,4.9c0.2,0.5,0.5,1,0.9,1.3c0.2,0.2,0.5,0.3,0.7,0.4
	c0.2,0.1,0.5-0.1,0.6,0.2c0.1,0.4,0.1,0.8,0,1.1c0,0.2-0.2,0.2-0.4,0.2L195.4,136.4z M188.9,122.5c-0.1,0-0.1,0.1-0.2,0.1l-2.1,5.8
	c-0.1,0.3,0,0.4,0.3,0.4h3.6c0.5,0,0.5-0.1,0.4-0.6l-1.3-4L188.9,122.5z"/>
<path class="st1" d="M219,133.2c0-0.6,0-1.3,0-1.9c0-0.3,0.1-0.4,0.4-0.4c0.9,0,0.9,0,1.1,0.9c0.3,1.3,1.1,2.4,2.3,3.1
	c1,0.5,2.2,0.4,3.1-0.3c0.9-0.7,1.4-1.8,1.2-2.9c-0.2-1.1-0.7-2-1.6-2.7c-1.1-1-2.4-1.7-3.6-2.7c-1.1-0.7-1.9-1.7-2.4-2.9
	c-0.9-2.1,0-4.4,1.9-5.5c1.2-0.7,2.6-1,4-1c1.4-0.1,2.9,0.1,4.3,0.4c0.6,0.1,0.7,0.4,0.8,0.9c0,1.1,0,2.2,0,3.3
	c0,0.3-0.1,0.4-0.4,0.4l0,0c-0.9,0-0.8,0-1.1-0.8c-0.3-1.1-1.1-2-2.2-2.5c-1-0.4-2-0.1-2.7,0.7c-0.6,0.8-0.6,2,0,2.8
	c0.7,0.9,1.5,1.6,2.5,2.2c1.3,0.9,2.5,1.9,3.6,3c1.2,1.2,1.8,2.9,1.6,4.6c-0.2,1.5-1.1,2.9-2.5,3.6c-1.7,0.9-3.7,1.3-5.6,1.1
	c-1.3-0.1-2.5-0.3-3.7-0.7c-0.8-0.3-0.9-0.4-0.9-1.2c0-0.3,0-0.6,0-0.8S219,133.4,219,133.2z"/>
<path class="st1" d="M156.1,117.4h7.7c0.3,0,0.4,0.1,0.5,0.4c0.2,1.3,0.5,2.6,0.7,3.9c0,0.3,0,0.3-0.3,0.4c-0.6,0.1-1.1-0.2-1.3-0.8
	c-0.2-0.5-0.5-0.9-0.9-1.3c-0.6-0.7-1.5-1-2.4-1c-0.4,0-0.9,0-1.3,0s-0.5,0.1-0.5,0.5c0,2.2,0,4.4,0,6.6c0,2.5,0,5,0,7.5
	c0,1.2,0.1,1.3,1.2,1.3c0.2,0,0.4,0,0.5,0c0.4,0,0.6,0.1,0.6,0.6c0,1,0,0.9-0.9,0.9c-2.5,0-5,0-7.5,0c-0.4,0-0.6-0.1-0.5-0.5
	c0-0.1,0-0.2,0-0.3c-0.1-0.5,0.1-0.7,0.6-0.6h0.1c1.5-0.3,1.5,0,1.5-1.8c0-4.6,0-9.1,0-13.6c0-0.6,0-0.6-0.6-0.6
	c-0.8,0-1.5,0-2.3,0.1c-0.7,0.2-1.3,0.6-1.6,1.2c-0.3,0.4-0.5,0.9-0.8,1.3c-0.3,0.3-0.9,0.5-1.3,0.3c-0.1-0.1-0.1-0.2-0.1-0.3l0.7-4
	c0-0.3,0.3-0.3,0.5-0.3h7.7L156.1,117.4z"/>
<path class="st1" d="M233.3,145.7c-1.7,0-3.1-1.3-3.1-3c0-0.1,0-0.1,0-0.2c0-1.7,1.4-3.1,3.1-3.1c1.7,0,3.1,1.4,3.1,3.1
	C236.4,144.3,235,145.7,233.3,145.7z M230.8,142.6c-0.1,1.4,0.9,2.6,2.2,2.7c1.4,0.1,2.6-0.9,2.7-2.2c0-0.2,0-0.3,0-0.5
	c0-1.4-1.1-2.5-2.5-2.5C231.9,140.1,230.8,141.2,230.8,142.6z"/>
<path class="st1" d="M145.6,90.6l-0.2,3.1c0,0.1,0,0.2-0.1,0.2c-0.1,0-0.2-0.1-0.2-0.2c0-0.1-0.1-0.1-0.2-0.2
	c-0.2-0.2-0.5-0.4-0.8-0.3c-0.3,0.1-0.1,0.5-0.2,0.7s0,0.3,0,0.4c-0.1,0.3,0,0.5,0.3,0.7c0.2,0.1,0.5,0.3,0.4,0.6
	c-0.1,0.3-0.4,0.1-0.6,0.1c-0.6,0-1-0.4-1.1-1c0,0,0,0,0-0.1c0-1.6,0.1-3.2,0.2-4.8c0-0.8,0.5-1.1,1.3-1.1c0.6-0.1,1.1,0.4,1.2,0.9
	c0,0.1,0,0.1,0,0.2C145.6,90.3,145.6,90.5,145.6,90.6L145.6,90.6z"/>
<path class="st1" d="M71.1,93.3l0.9,2.2l0.3,0.9c0.2,0.4,0.1,0.5-0.3,0.6L71,97c-0.2,0-0.4,0-0.3-0.3c0.1-1.2,0.2-2.3,0.3-3.5H71.1z
	"/>
<path class="st0" d="M35.4,125c0.1,2.2-0.2,4.4-1,6.5c-0.5,1.4-1.6,2.6-3,3.2c-2.1,0.9-4.5,0.2-5.8-1.6c-1.1-1.4-1.8-3.1-2.1-4.8
	c-0.4-1.8-0.5-3.7-0.3-5.6c0.1-1.7,0.6-3.4,1.5-4.9c1.5-2.4,4.7-3,7-1.5c0.3,0.2,0.6,0.4,0.8,0.7c1.1,1.1,2,2.5,2.4,4.1
	C35.2,122.3,35.4,123.6,35.4,125z"/>
<path class="st0" d="M75.5,122.4l1.4,4.3c0.2,0.5,0.4,1.1,0.6,1.6c0.1,0.3,0.1,0.5-0.3,0.5c-1.2,0-2.5,0-3.7,0
	c-0.3,0-0.4-0.1-0.3-0.4l2.1-5.8C75.3,122.5,75.4,122.5,75.5,122.4z"/>
<path class="st0" d="M116.2,122.4c0.3,0.5,0.5,1.1,0.6,1.7c0.5,1.3,0.9,2.7,1.3,4c0.2,0.6,0.2,0.7-0.4,0.7h-3.5
	c-0.3,0-0.5-0.1-0.3-0.4l2.2-5.8C116.1,122.5,116.1,122.5,116.2,122.4z"/>
<path class="st0" d="M188.9,122.5l0.6,1.8l1.3,4c0.2,0.5,0.1,0.6-0.4,0.6h-3.6c-0.3,0-0.4-0.1-0.3-0.4l2.1-5.8
	C188.7,122.6,188.8,122.5,188.9,122.5z"/>
<path class="st0" d="M230.8,142.6c0.1-1.4,1.3-2.4,2.7-2.3c1.4,0.1,2.4,1.3,2.3,2.7c-0.1,1.3-1.2,2.3-2.5,2.3
	C231.9,145.2,230.8,144.1,230.8,142.6C230.8,142.6,230.8,142.6,230.8,142.6z M232.1,142.6L232.1,142.6c0,0.5,0,1,0,1.5
	c0,0.2,0,0.3,0.3,0.3c0.3,0,0.3-0.1,0.3-0.3c0-0.2,0-0.6,0-0.9s0-0.3,0.1-0.3c0.1,0,0.3,0,0.5,0.1c0.1,0.1,0.1,0.2,0.2,0.3l0.6,1
	c0.1,0.2,0.4,0.3,0.6,0.2c0,0,0,0,0,0c0.2-0.1,0-0.3-0.1-0.4c-0.1-0.3-0.3-0.5-0.5-0.7c-0.2-0.3-0.2-0.4,0.1-0.5
	c0.4-0.1,0.6-0.6,0.5-1c0-0.4-0.3-0.8-0.7-0.9c-0.5-0.1-1.1-0.1-1.6-0.1c-0.3,0-0.4,0.1-0.4,0.4
	C232.1,141.6,232.1,142.1,232.1,142.6L232.1,142.6z"/>
<path class="st1" d="M232.1,142.6c0-0.5,0-1,0-1.5c0-0.3,0.1-0.4,0.4-0.4c0.5,0,1.1,0,1.6,0.1c0.4,0.1,0.7,0.5,0.7,0.9
	c0.1,0.4-0.1,0.8-0.5,1c-0.3,0.1-0.3,0.3-0.1,0.5c0.2,0.2,0.3,0.5,0.5,0.7c0.1,0.1,0.3,0.3,0.1,0.4c-0.2,0.1-0.5,0.1-0.6-0.1
	c0,0,0,0,0,0l-0.6-1c-0.1-0.1-0.1-0.2-0.2-0.3c-0.1-0.1-0.3-0.1-0.5-0.1c-0.1,0-0.1,0.2-0.1,0.3c0,0.1,0,0.6,0,0.9s-0.1,0.3-0.3,0.3
	s-0.3-0.1-0.3-0.3C232.1,143.6,232.1,143.1,232.1,142.6L232.1,142.6z M233.2,141.3c-0.2,0-0.4-0.1-0.5,0.1c-0.1,0.3-0.1,0.6,0,0.9
	c0.1,0.3,0.4,0.1,0.5,0.1c0.6,0,0.9-0.2,0.9-0.5C234.2,141.5,233.9,141.2,233.2,141.3L233.2,141.3z"/>
<path class="st0" d="M233.2,141.2c0.7,0,1,0.2,1,0.6s-0.3,0.5-0.9,0.5c-0.2,0-0.5,0.1-0.5-0.1c-0.1-0.3-0.1-0.6,0-0.9
	C232.8,141.1,233.1,141.3,233.2,141.2z"/>
</svg>
