<?xml version="1.0" encoding="utf-8"?>
<!-- Generator: Adobe Illustrator 21.1.0, SVG Export Plug-In . SVG Version: 6.00 Build 0)  -->
<svg version="1.1" id="Layer_1" xmlns="http://www.w3.org/2000/svg" xmlns:xlink="http://www.w3.org/1999/xlink" x="0px" y="0px"
	 viewBox="0 0 250 250" style="enable-background:new 0 0 250 250;" xml:space="preserve">
<style type="text/css">
	.st0{fill:#F2CB47;}
	.st1{fill:#ED1B30;}
	.st2{fill:#0466B3;}
</style>
<title>CR</title>
<g>
	<path class="st0" d="M125,190.9c-39.5,0-79,0-118.5,0c-1.2,0-1.5-0.3-1.5-1.5c0-42.9,0-85.9,0-128.8C5,59.3,5.3,59,6.5,59
		c79,0,158,0,237,0c1.2,0,1.5,0.3,1.5,1.5c0,43,0,85.9,0,128.9c0,1.2-0.3,1.5-1.5,1.5C204,190.9,164.5,190.9,125,190.9z
		 M134.5,156.4c0.3,0,0.7,0,1,0c7.3-0.5,14.5-2,21.7-3.2c11.5-1.9,23-3.1,34.6-2.2c2.1,0.2,4.1,0.5,6.2,1c0.8,0.2,1.7,0.4,2-0.7
		c0.6-3-1.1-6-4-6.9c-2.2-0.4-4.4-0.7-6.7-0.6c-12.3-0.2-24.4,2.1-36.5,3.5c-6.3,0.7-12.5,1.8-18.8,2.1c-5,0.3-5.8-1.1-5.9-5.3
		c0-2.1-0.8-2.7-3-3c-3.2-0.2-6.4-0.1-9.5,0.6c-11.7,1.6-23.3,3.8-35.1,4.6c-8.2,0.5-16.4,0.6-24.1-2.9c-0.5-0.2-0.8-0.2-0.9,0.4
		c-0.5,3.1,1.1,6.2,4,7.6c1.2,0.4,2.4,0.8,3.6,1.1c7,1.4,14.1,1.5,21.1,0.4c8.8-1.2,17.5-2.7,26.2-3.9c4.1-0.7,8.3-1.1,12.5-1.1
		c2.5,0,3.1,0.7,3.2,3.1c-0.1,2.5,1.6,4.6,4.1,5.1C131.5,156.3,133,156.5,134.5,156.4L134.5,156.4z M114.7,110.5
		c0.4-0.9,0.7-1.6,1-2.3c1.3-2.9,2.7-5.6,4.3-8.3c0.4-0.7,1-1.5-0.1-2.1s-6,1.1-6.5,2c-0.1,0.1-0.1,0.2-0.1,0.3
		c-0.8,3.5-2.8,6.7-3.9,10.1c-0.7,2.1-2.2,2.4-4.1,2.7c0.6-1.2,1.1-2.5,1.6-3.7c0.4-1.4-0.1-2-1.6-2.1c-1.5,0.1-2.9,0.4-4.3,1
		c-0.8,0.1-1.3,0.9-1.2,1.7v0.1c0.3,3.1-1.2,4.9-4.1,5.7c-1.3,0.4-2.6,0.8-3.9,1.3c-1.1,0.5-1.9,1.3-1.3,2.6
		c0.5,1.2,1.7,1.1,2.7,0.8c0.9-0.3,1.8-0.7,2.7-1.1c0.2,0.6,0.1,1.2-0.3,1.7c-1.6,3.7-3.1,7.4-4.7,11c-0.7,1.5-1.2,3.1-1.5,4.7
		c-0.1,0.9,0.2,1.3,1.1,1.3c3-0.2,5.7-2,6.9-4.8c1.6-4.7,3.2-9.4,4.8-14.2c0.8-2.2,1.7-2.8,4.2-2.7c-0.8,2-1.5,4.1-2.3,6.1
		c-0.8,2.1-1.6,4.1-2.4,6.1c-0.8,1.9-1.4,3.9-1.8,5.9c-0.1,0.6-0.3,1.3,0.7,1.5c1.3,0.2,5.1-1.7,5.7-2.8c1.6-2.7,3.2-5.3,4.8-7.9
		c0.3-0.5,0.5-1.1,1.2-1.3c-0.5,2.7-0.4,5.3-0.9,7.9s0.5,4.8,4,4.1c1.9-0.4,3.7-1.2,5.3-2.3c1.1-0.7,1.3-0.3,1.8,0.5
		c0.8,1.8,2.7,2.9,4.7,2.7c6.1-0.2,10.4-3.5,14.3-7.8c0.2-0.3,0.4-0.5,0.5-0.9c0.2-0.5-0.1-1.1-0.6-1.3h-0.1
		c-1.9-0.1-3.8,0.5-5.2,1.8c-1.3,2.4-3.4,4.2-6,5.3c-1.4,0.6-2.4,0-2.9-1.5c-0.6-1.7-0.3-3.1,1-3.6c2.8-1.2,5.3-3.2,7.2-5.6
		c1.5-1.6,2.1-3.8,1.6-6c-0.3-1.3-1-2.3-2.5-2.1c-4.5,0.6-8.3,2.4-10.3,6.9c-0.9,1.8-1.6,3.6-2.2,5.5c-0.3,1.3-1.1,2.3-2.3,3
		c-0.4,0.2-0.8,0.8-1.3,0.5s-0.1-0.8-0.1-1.2c0.2-3.7,1.4-7.1,2.2-10.7c0.1-0.7,0.3-1.3-0.5-1.7c-1.4-0.9-5.9,0.1-6.8,1.5
		c-0.8,1.3-1.9,2.5-3.1,3.5c0.7-2.6,1.7-4.7,2.5-6.9c0.3-0.9,1-1.6,2-1.7c1.6-0.4,3.2-0.7,4.8-1.1c0.8-0.2,1.7-0.6,1.5-1.6
		c-0.3-1-1.1-1.2-2.1-1C117.4,110.3,116.1,110.5,114.7,110.5L114.7,110.5z M60.5,109.9c-0.6,6.9-2.8,13.5-6.5,19.3
		c-1.2,2.1-2.7,3.9-4.6,5.3c-3.1,2.3-5.3,1.8-7-1.6c-1.8-3.4-2.4-7.4-1.8-11.2c1.2-8.3,5.3-16,11.6-21.6c0.3-0.3,0.6-0.6,0.9-1
		c0.3-0.3,0.3-0.8,0.1-1.2c-0.3-0.5-0.8-0.4-1.2-0.3c-1.1,0.2-2.3,0.5-3.4,0.6c-2,0.1-3.8,1.1-4.9,2.7c-4.7,6.4-8.7,13.3-9.7,21.3
		c-0.7,4.4-0.1,9,1.8,13c1,2.4,3.5,3.9,6.1,3.7c1.7-0.1,3.3-0.3,4.9-0.7c4.4-1,8.5-2.4,11.5-6c1.6-1.8,3-3.6,4.3-5.6
		c3.9-5.9,5.9-12.8,5.9-19.9c-0.1-5.3-3.4-7.9-8.5-6.8c-11.2,2.4-15,9.4-16.9,18.2c-0.4,2,0.3,2.5,2.2,1.8c0.6-0.2,1.1-0.4,1.7-0.6
		c1.5-0.3,2.6-1.5,2.8-3c0.8-3.2,2.1-6.3,3.9-9c0.7-1.1,1.6-2.1,2.8-2.8c1.8-1,2.9-0.5,3.6,1.3C60.4,107.1,60.5,108.5,60.5,109.9
		L60.5,109.9z M153.1,125.5c1.9,4.3,3.7,8.4,5.8,12.4c0.8,1.6,1.8,3,2.9,4.3c0.5,0.5,1,0.8,1.6,0.4c1-0.7,2.6-0.5,3.1-1.9
		c0.1-0.3-0.1-0.5-0.2-0.7c-3.3-5.4-4.9-11.5-6.9-17.3c-0.5-1.4-0.2-2.1,1.4-2.5c4.4-1.1,8.7-2.5,12.2-5.4c5.8-4.8,5-11.1-1.6-14.7
		c-5.9-3.2-12.3-3.5-18.7-2.7c-5.5,0.7-10.8,2.7-15.3,6c-1.5,1.1-2.6,2.5-3.1,4.3c-0.6,1.6,0.3,2.5,2,2.2c1.7-0.4,3.1-0.9,4.6-1.2
		c1.7-0.4,3.3-1.3,4.6-2.6c5.8-4.8,12.5-6.9,20-5.2c5.5,1.3,6.1,6.5,2.9,10.1c-2.9,3.1-6.5,5.3-10.5,6.5c-0.5,0.2-1.2,0.7-1.7,0.2
		s0.1-1.2,0.4-1.8c1.4-2.9,2.9-5.8,4.3-8.7c0.7-1.6,0.1-2.4-1.5-2.5c-1.3,0-2.6,0.3-3.9,0.7c-0.6,0.1-1,0.6-1.1,1.1
		c-1.2,4.5-3.5,8.6-5.5,12.8c-2.2,4.7-4.1,9.6-5.9,14.5c-0.3,0.7-0.2,1.5,0.3,2.1c0.6,0.7,1.2,0.5,1.9,0.2c1.1-0.4,2.3-0.7,3.5-1
		c0.8-0.1,1.4-0.7,1.5-1.5C151,130.9,151.9,128.1,153.1,125.5L153.1,125.5z M192.4,123.1c0.7-1.7,1.4-3.4,2.2-5.1
		c0.5-0.9,0.3-1.6-0.6-2c-0.9-0.5-5.5,0.9-6,1.7c-0.1,0.1-0.1,0.3-0.1,0.5c-0.2,1.7-0.7,3.3-1.3,4.9c-1.3,3.7-2.7,7.4-3.9,11.2
		c-0.1,0.4-0.4,1,0.1,1.3c0.4,0.3,1,0.3,1.4,0c0.7-0.4,1.5-0.7,2.2-1c1.6-0.3,2.9-1.4,3.4-2.9c1.3-3.5,4.2-6,6.7-9.2
		c-0.9,3.1-1.7,6.3-2.2,9.5c-0.5,3.1,1.2,4.7,4.3,4c3.8-1,7.4-2.9,10.4-5.5c1.6-1.3,3.1-2.9,4.2-4.6c0.3-0.5,0.8-1.3-0.2-1.3
		c-2.2,0.1-4.5,0.1-6.1,2.2c-1.6,2.2-3.7,3.8-6.2,4.8c0.8-3,1.9-5.9,3.1-8.7c0.6-1.3,1.1-2.6,1.3-4c0.2-0.9-0.2-1.8-1-2.2
		c-1.4-1-5.6-0.2-6.8,1.3C196,120,194.4,121.7,192.4,123.1L192.4,123.1z M73.1,122.3l-0.3-0.1c0.7-1.3,1.3-2.7,1.9-4.1
		c0.2-0.5,0.7-1.1,0.3-1.7c-0.5-0.6-1.2-0.8-1.9-0.6c-2.9,0.6-5.6,1.3-6.2,4.9c-0.1,0.5-0.3,0.9-0.5,1.3l-4.5,11
		c-0.3,0.7-0.5,1.4,0.1,2c0.5,0.6,1.3,0.9,2.1,0.6c2.5-1.1,5-2.3,6.1-5.1c0.7-1.8,1.7-3.4,2.9-5c-0.3,2.4-0.6,4.4-0.7,6.4
		c-0.1,3.2,1.7,4.5,4.8,3.6c4.1-1.2,7.3-3.9,10.9-6c0.3-0.2,0.5-0.6,0.7-0.9c0.7-1.2,0.3-1.8-1.1-1.9c-1.6-0.2-3.1,0.6-4,1.9
		c-0.9,1.1-2,2-3.3,2.6c-1,0.5-1.6,0.3-1.5-1c0-0.4,0.1-0.9,0.2-1.3c0.6-3.1,1.5-6.1,2.5-9c0.5-1.6,0-2.2-1.7-2
		c-2.2,0-4.2,1.1-5.4,2.9C74.1,121.2,73.6,121.8,73.1,122.3L73.1,122.3z M175.9,127.6l0.6,0.5c-0.5,1.3-1,2.7-1.4,4
		c-0.3,1-0.9,2.2,0,3.1s1.9,0,2.9-0.3c1.9-0.3,3.5-1.8,3.8-3.7c0.6-2.3,1.6-4.5,2.5-6.8s1.6-4.3,2.4-6.4c0.4-1.1-0.3-1.6-1.2-1.5
		c-2.5,0.4-4.9,0.8-6.2,3.6c-1.4,2.9-3.5,5.4-5.9,7.4c0.4-1.8,1-3.5,1.6-5.2c0.4-1.2,1-2.4,1.6-3.6c0.4-0.5,0.4-1.3-0.1-1.7
		c-0.1-0.1-0.3-0.2-0.5-0.3c-1.9-0.9-6.2,0.9-6.7,2.9c-0.3,1.4-0.8,2.7-1.3,4c-1.3,3-2.3,6.1-3,9.3c-0.3,1.6,0.3,2.2,1.9,1.8
		c1.9-0.3,3.7-1.2,5-2.7C173.2,130.6,174.6,129.1,175.9,127.6L175.9,127.6z"/>
	<path class="st1" d="M135.1,158.2c-1.6,0.1-3.1,0-4.7-0.4c-2.6-0.5-4.4-2.8-4.3-5.4c-0.1-2.5-0.7-3.2-3.4-3.3
		c-4.4,0.1-8.8,0.5-13.1,1.3c-9.2,1.3-18.5,2.9-27.7,4.1c-7.4,1.2-15,1-22.3-0.5c-1.3-0.3-2.6-0.7-3.8-1.1c-3.1-1.4-4.8-4.7-4.2-8
		c0.2-0.7,0.4-0.7,1-0.4c8.2,3.7,16.8,3.6,25.5,3c12.5-0.8,24.7-3.1,37.1-4.9c3.3-0.7,6.7-0.9,10-0.6c2.3,0.3,3.1,1,3.1,3.2
		c0.1,4.4,1,5.8,6.2,5.6c6.7-0.4,13.3-1.5,19.9-2.3c12.8-1.4,25.6-3.9,38.6-3.6c2.4,0,4.7,0.2,7,0.7c3.1,1,4.9,4.2,4.2,7.3
		c-0.4,1.2-1.4,1-2.2,0.8c-2.1-0.5-4.3-0.9-6.5-1.1c-12.3-1-24.4,0.3-36.5,2.3c-7.6,1.3-15.2,2.8-22.9,3.4
		C135.8,158.2,135.4,158.2,135.1,158.2z"/>
	<path class="st2" d="M114.2,109.7c1.5,0,3-0.2,4.4-0.6c1.1-0.2,2,0,2.2,1c0.3,1-0.7,1.5-1.5,1.7c-1.7,0.4-3.4,0.8-5.1,1.2
		c-1,0.2-1.8,0.9-2.1,1.8c-0.8,2.3-1.9,4.5-2.6,7.3c1.3-1,2.4-2.3,3.3-3.7c0.9-1.5,5.6-2.5,7.2-1.6c0.8,0.5,0.6,1.1,0.5,1.8
		c-0.8,3.8-2.1,7.4-2.3,11.3c0,0.4-0.4,1,0.1,1.3s0.9-0.3,1.4-0.5c1.2-0.6,2.1-1.8,2.4-3.1c0.6-2,1.4-3.9,2.4-5.8
		c2.1-4.7,6-6.6,10.8-7.3c1.6-0.2,2.3,0.8,2.7,2.2c0.5,2.3-0.2,4.6-1.7,6.3c-2,2.6-4.6,4.6-7.6,5.9c-1.4,0.6-1.7,2-1,3.8
		c0.6,1.6,1.6,2.2,3.1,1.6c2.7-1.1,4.9-3,6.3-5.6c1.5-1.4,3.5-2.1,5.5-1.9c0.6,0.1,0.9,0.7,0.8,1.3v0.1c-0.1,0.3-0.3,0.7-0.5,0.9
		c-4,4.5-8.6,8.1-15.1,8.3c-2.1,0.2-4.1-0.9-5-2.8c-0.5-0.9-0.7-1.3-1.9-0.5c-1.7,1.2-3.6,2-5.6,2.4c-3.7,0.7-4.7-1.5-4.2-4.3
		s0.4-5.5,0.9-8.3c-0.8,0.3-1,0.9-1.3,1.4c-1.8,2.7-3.5,5.5-5.2,8.2c-0.7,1.2-4.7,3.2-6.1,3c-1.1-0.2-0.8-1-0.7-1.6
		c0.4-2.1,1.1-4.1,1.9-6.1c0.8-2.2,1.7-4.3,2.5-6.5s1.6-4.3,2.4-6.5c-2.6-0.1-3.6,0.5-4.4,2.8c-1.7,5-3.4,10-5.1,15
		c-1.3,2.9-4.1,4.9-7.3,5.2c-1,0-1.3-0.5-1.2-1.4c0.3-1.7,0.8-3.4,1.5-4.9c1.7-3.9,3.3-7.8,5-11.7c0.4-0.5,0.5-1.2,0.3-1.8
		c-0.9,0.4-1.9,0.8-2.8,1.2c-1.1,0.3-2.3,0.5-2.8-0.8s0.3-2.2,1.4-2.7c1.3-0.5,2.7-1,4.1-1.4c3.1-0.9,4.6-2.8,4.4-6
		c-0.2-0.8,0.3-1.7,1.1-1.9h0.1c1.4-0.6,3-1,4.5-1.1c1.6,0,2.2,0.6,1.7,2.2c-0.5,1.3-1,2.7-1.7,3.9c2-0.4,3.6-0.6,4.3-2.8
		c1.2-3.6,3.3-6.9,4.1-10.6c0-0.1,0.1-0.2,0.1-0.3c0.5-1,5.9-2.7,6.8-2.1s0.5,1.6,0.1,2.3c-1.7,2.8-3.2,5.8-4.5,8.8
		C114.9,108.1,114.6,108.8,114.2,109.7z M129,125.4c2.5-1,3.9-3.7,3.3-6.3C130.9,121,129.8,123.1,129,125.4L129,125.4z"/>
	<path class="st2" d="M56.9,109.1c0-1.5-0.2-2.9-0.6-4.3c-0.7-2-1.9-2.5-3.8-1.4c-1.2,0.7-2.2,1.7-2.9,2.9c-1.9,2.9-3.3,6.1-4.1,9.5
		c-0.2,1.6-1.4,2.9-3,3.2c-0.6,0.2-1.2,0.4-1.8,0.6c-2,0.7-2.8,0.2-2.4-1.9c2-9.3,6-16.8,17.8-19.3c5.3-1.1,8.8,1.7,9,7.2
		c0.1,7.5-2.1,14.8-6.2,21c-1.4,2.1-2.9,4.1-4.5,5.9c-3.2,3.8-7.6,5.3-12.2,6.4c-1.7,0.4-3.4,0.7-5.2,0.8c-2.7,0.2-5.3-1.4-6.4-4
		c-2-4.3-2.6-9.1-1.9-13.8c1.1-8.5,5.3-15.7,10.3-22.5c1.2-1.7,3.1-2.7,5.2-2.8c1.2-0.1,2.4-0.4,3.6-0.6c0.5-0.1,1-0.1,1.3,0.3
		c0.2,0.4,0.2,0.9-0.1,1.3s-0.6,0.7-0.9,1c-6.6,5.9-11,14-12.2,22.8c-0.7,4.1,0,8.2,1.9,11.9c1.8,3.6,4.2,4.1,7.4,1.7
		c2-1.5,3.6-3.5,4.8-5.6C53.9,123.4,56.3,116.4,56.9,109.1z"/>
	<path class="st2" d="M154.8,125.6c-1.3,2.7-2.4,5.5-3.1,8.5c-0.1,0.8-0.8,1.4-1.6,1.5c-1.2,0.3-2.5,0.6-3.7,1
		c-0.8,0.3-1.4,0.5-2.1-0.2c-0.5-0.6-0.7-1.5-0.3-2.3c2-5.1,3.9-10.3,6.3-15.3c2.1-4.5,4.5-8.8,5.8-13.6c0.1-0.6,0.6-1,1.2-1.2
		c1.3-0.5,2.7-0.7,4.1-0.7c1.8,0,2.4,1,1.6,2.6c-1.4,3.1-3,6.1-4.5,9.2c-0.3,0.6-1,1.2-0.4,1.9c0.5,0.7,1.2,0,1.8-0.2
		c4.2-1.3,8.1-3.6,11.1-6.9c3.4-3.8,2.8-9.4-3.1-10.7c-7.9-1.8-14.9,0.4-21.1,5.5c-1.4,1.3-3.1,2.2-4.9,2.7
		c-1.6,0.3-3.3,0.9-4.9,1.2s-2.8-0.6-2.1-2.3c0.6-1.8,1.8-3.4,3.3-4.5c4.8-3.5,10.3-5.6,16.2-6.3c6.8-0.9,13.5-0.5,19.8,2.8
		c7,3.8,7.8,10.5,1.7,15.5c-3.8,3.1-8.3,4.6-12.9,5.7c-1.7,0.4-2,1.2-1.5,2.7c2.1,6.3,3.8,12.7,7.3,18.3c0.2,0.3,0.4,0.5,0.3,0.8
		c-0.5,1.5-2.2,1.4-3.3,2.1c-0.7,0.4-1.2,0.1-1.7-0.4c-1.2-1.4-2.3-2.9-3.1-4.6C158.7,134.5,156.8,130.2,154.8,125.6z"/>
	<path class="st2" d="M196.3,123.1c2-1.5,3.8-3.3,5.2-5.4c1.3-1.6,5.7-2.4,7.2-1.4c0.8,0.5,1.2,1.4,1.1,2.4
		c-0.3,1.5-0.7,2.9-1.4,4.2c-1.3,3-2.4,6-3.3,9.1c2.6-1,4.9-2.8,6.5-5c1.7-2.2,4.1-2.3,6.4-2.4c1,0,0.5,0.9,0.2,1.4
		c-1.2,1.9-2.7,3.5-4.4,4.9c-3.2,2.7-6.9,4.7-11,5.8c-3.3,0.8-5.1-1-4.5-4.2c0.6-3.4,1.3-6.7,2.3-10c-2.6,3.3-5.6,5.9-7,9.7
		c-0.5,1.6-1.9,2.8-3.6,3.1c-0.8,0.3-1.6,0.6-2.4,1c-0.5,0.3-1,0.3-1.5,0c-0.6-0.4-0.3-1-0.1-1.4c1.4-3.9,2.8-7.9,4.1-11.8
		c0.7-1.7,1.2-3.4,1.4-5.2c0-0.2,0.1-0.3,0.1-0.5c0.5-0.8,5.4-2.2,6.3-1.7c0.9,0.5,1.1,1.1,0.6,2.1
		C197.8,119.4,197.1,121.3,196.3,123.1z"/>
	<path class="st2" d="M70.3,122.2c0.5-0.5,1-1.1,1.4-1.7c1.3-1.9,3.4-3.1,5.7-3.1c1.7-0.2,2.3,0.5,1.8,2.1c-1.1,3.1-2,6.3-2.6,9.5
		c-0.1,0.5-0.2,0.9-0.2,1.4c-0.2,1.4,0.5,1.5,1.5,1c1.4-0.6,2.6-1.5,3.5-2.7c0.9-1.4,2.5-2.2,4.2-2c1.4,0.1,1.9,0.8,1.2,2.1
		c-0.2,0.4-0.4,0.7-0.7,1c-3.8,2.2-7.2,5.1-11.5,6.3c-3.2,0.9-5.2-0.5-5-3.8c0.1-2.1,0.5-4.2,0.7-6.7c-1.3,1.6-2.3,3.4-3.1,5.2
		c-1.2,3-3.8,4.2-6.5,5.4c-0.8,0.3-1.7,0-2.2-0.6c-0.7-0.6-0.4-1.4-0.1-2.1l4.8-11.5c0.2-0.4,0.4-0.9,0.6-1.4
		c0.6-3.7,3.5-4.5,6.5-5.1c0.7-0.2,1.6,0,2,0.6c0.5,0.6,0,1.2-0.3,1.8c-0.7,1.4-1.4,2.8-2.1,4.3L70.3,122.2z"/>
	<path class="st2" d="M178.9,127.9c-1.4,1.6-2.8,3.2-4.2,4.8c-1.4,1.5-3.2,2.5-5.3,2.8c-1.6,0.4-2.3-0.2-2-1.9
		c0.7-3.3,1.8-6.6,3.1-9.7c0.6-1.4,1.1-2.8,1.4-4.2c0.4-2.1,5-4.1,7-3.1c0.7,0.2,1.1,0.9,0.9,1.6c-0.1,0.2-0.1,0.4-0.3,0.5
		c-0.7,1.2-1.2,2.5-1.7,3.8c-0.7,1.8-1.2,3.6-1.7,5.5c2.6-2.2,4.7-4.8,6.3-7.8c1.3-3,3.9-3.4,6.5-3.8c0.9-0.2,1.7,0.4,1.3,1.5
		c-0.8,2.3-1.7,4.5-2.6,6.8c-0.8,2.3-2,4.7-2.6,7.2c-0.4,2-2,3.6-4.1,3.9c-1,0.2-2.1,1.4-3,0.3c-1-1.1-0.3-2.2,0-3.3
		c0.5-1.4,1-2.8,1.5-4.2L178.9,127.9z"/>
</g>
</svg>
