<svg id="Layer_1" data-name="Layer 1" xmlns="http://www.w3.org/2000/svg" width="250" height="250" viewBox="0 0 250 250"><defs><style>.cls-1{fill:#f9e8a0;}.cls-2{fill:red;}.cls-3{fill:#414042;}</style></defs><title>iShop</title><circle class="cls-1" cx="124.22" cy="124.61" r="83.97"/><rect class="cls-2" x="107.74" y="98.71" width="11.77" height="23.54"/><rect class="cls-2" x="128.92" y="127.75" width="11.77" height="23.54"/><path class="cls-3" d="M186.21,63.4a87.29,87.29,0,0,0-62-25.9c-23.54,0-44.73,9.42-61.21,25.9s-25.9,37.67-25.9,61.21a87.89,87.89,0,0,0,175.78,0c0-23.54-10.2-44.73-26.68-61.21Zm-62,139.69a78.48,78.48,0,1,1,78.48-78.48,78.71,78.71,0,0,1-78.48,78.48Z"/><path class="cls-3" d="M140.7,101.07a4.71,4.71,0,1,0,0-9.42H128.92V83a4.71,4.71,0,0,0-9.42,0v9.42h-2.35c-9.42-.78-18,7.85-18,18a19.1,19.1,0,0,0,18.83,18.83h13.34a9.42,9.42,0,1,1,0,18.83H107.74a4.71,4.71,0,0,0,0,9.42h12.56V167a4.71,4.71,0,1,0,9.42,0v-9.42h1.57c10.2,0,18-8.63,18-18.83a19.1,19.1,0,0,0-18.83-18.83H117.15a9.42,9.42,0,0,1,0-18.83"/></svg>