<svg id="Layer_1" data-name="Layer 1" xmlns="http://www.w3.org/2000/svg" width="250" height="250" viewBox="0 0 250 250"><defs><style>.cls-1{fill:#f9e8a0;}.cls-2{fill:red;}.cls-3{fill:#414042;}</style></defs><title>iShop</title><rect class="cls-1" x="67.58" y="39.55" width="113.48" height="32.81"/><rect class="cls-2" x="78.52" y="71.68" width="93.65" height="8.89"/><polygon class="cls-1" points="74.41 210.45 69.63 210.45 69.63 199.51 77.83 199.51 77.83 92.87 69.63 92.87 69.63 81.93 180.37 81.93 180.37 92.87 172.17 92.87 172.17 198.15 181.06 198.15 181.06 210.45 74.41 210.45"/><polygon class="cls-2" points="149.61 138.67 133.2 138.67 133.2 120.9 117.48 120.9 117.48 138.67 99.02 138.67 99.02 153.71 117.48 153.71 117.48 172.85 133.2 172.85 133.2 153.71 149.61 153.71 149.61 138.67"/><path class="cls-3" d="M183.79,75.78V37.5H66.21V75.78H75.1v2.73H71a4.67,4.67,0,0,0-4.79,4.79v7.52A4.67,4.67,0,0,0,71,95.61h4.1v99.8H71a4.67,4.67,0,0,0-4.79,4.79v7.52A4.67,4.67,0,0,0,71,212.5H179a4.67,4.67,0,0,0,4.79-4.79V200.2a4.67,4.67,0,0,0-4.79-4.79h-4.1V96.29H179a4.67,4.67,0,0,0,4.79-4.79V83.3A4.67,4.67,0,0,0,179,78.52h-4.1V75.78ZM72.36,69.63v-26h8.89V49.8h5.47V43.65h6.15V49.8H99V43.65h6.15V49.8h6.15V43.65h6.15V49.8h6.15V43.65h4.1V49.8h6.15V43.65H140V49.8h6.15V43.65h6.15V49.8h6.15V43.65h6.15V49.8h4.1V43.65h8.89V70.31h-8.89V64.16H162.6v6.15h-6.15V64.16h-6.15v6.15h-6.15V64.16H138v6.15h-4.1V64.16h-6.15v6.15h-5.47V64.16h-6.15v6.15H110V64.16h-5.47v6.15H98.34V64.16H92.87v6.15H86.72V64.16H80.57v6.15h-8.2ZM174.22,202.25h4.1v6.15h-106v-6.15h4.1a4.67,4.67,0,0,0,4.79-4.79v-6.84h87.5v6.84c0,2.73,2.73,4.79,5.47,4.79Zm-93-17.77V107.91h87.5v76.56Zm96.39-99.8v6.15h-4.1a4.67,4.67,0,0,0-4.79,4.79v6.84H80.57V95.61a4.67,4.67,0,0,0-4.79-4.79H72.36V84.67Zm-8.89-6.15H80.57V75.78h88.18Z"/><path class="cls-3" d="M136.62,116.8H113.38v17.77H95.61v23.24h17.77v17.77h23.24V157.81h17.77V134.57H136.62ZM148.24,140v11.62H131.15v17.77h-12.3V151.66H101.76V140h17.77V122.27h11.62V140Z"/><rect class="cls-3" x="86.72" y="90.14" width="17.77" height="6.15"/><rect class="cls-3" x="113.38" y="90.14" width="35.55" height="6.15"/><rect class="cls-3" x="157.13" y="90.14" width="6.15" height="6.15"/><rect class="cls-3" x="86.72" y="196.09" width="17.77" height="6.15"/><rect class="cls-3" x="113.38" y="196.09" width="35.55" height="6.15"/><rect class="cls-3" x="157.13" y="196.09" width="6.15" height="6.15"/></svg>