<?xml version="1.0" encoding="utf-8"?>
<!-- Generator: Adobe Illustrator 21.1.0, SVG Export Plug-In . SVG Version: 6.00 Build 0)  -->
<svg version="1.1" id="Layer_1" xmlns="http://www.w3.org/2000/svg" xmlns:xlink="http://www.w3.org/1999/xlink" x="0px" y="0px"
	 viewBox="0 0 250 250" style="enable-background:new 0 0 250 250;" xml:space="preserve">
<style type="text/css">
	.st0{fill:#FFD600;}
</style>
<title>Grocery</title>
<rect x="8.5" y="63.9" class="st0" width="232.9" height="122.1"/>
<path d="M245,189.6H5V60.4h240V189.6z M12.1,182.5h225.8v-115H12.1V182.5z"/>
<path d="M60.8,169.2c-4.3-0.1-8.5,0.1-12.8-0.4c-6.9-0.9-8-5.5-7.9-11.3c0-1.6,1.3-1.8,2.5-1.8c2.3,0,4.5,0,6.7,0
	c1.9,0,3.6-0.1,4,2.7c0.3,2.2,2.7,2.1,4.4,2c3.4-0.3,7.3,1.4,10.1-1.5c1.5-1.5,0-4-2.4-4.2c-4-0.4-8-0.6-12-0.8l-1.4-0.1
	c-10.3-0.8-13.6-5.1-11.7-15.2c0.7-3.7,2.7-6.1,6.4-6.7c9.1-1.4,18.4-1.5,27.5-0.2c4.6,0.7,7.4,6,6.1,10.4c-0.2,0.9-1.1,1.6-2.1,1.5
	c-3,0-5.9,0-8.9,0c-0.7,0-1.6-0.1-1.8-0.9c-0.8-3.4-3.5-2.9-6-2.9c-1.9,0-3.8,0.1-5.7,0.2c-1.2-0.1-2.2,0.8-2.3,2c0,0.2,0,0.4,0,0.5
	c0,1.5,0.9,2.1,2.3,2.1l11.3,0.7l1.4,0.1c12.3,1.1,13.9,4,12.5,16.8c-0.4,3.6-2.9,5.5-6.4,6.2C70.2,169.5,65.5,169.1,60.8,169.2z"/>
<path d="M190.9,168.7c-5.4,0-10.9-0.1-16.3,0c-2.3,0-3.1-0.8-3.1-3.1c0.1-10.4,0.1-20.8,0-31.2c0-2.4,1.1-3,3.2-3
	c10.5,0.1,21.1,0.1,31.6,0c2.7,0,3.7,0.9,3.5,3.5c-0.1,0.9-0.1,1.9,0,2.8c0.1,2.3-0.8,3.1-3.1,3.1c-6.3-0.1-12.5-0.1-18.8,0
	c-1.3,0-3.2-0.7-3.3,2c-0.1,2.6,1.8,2.2,3.4,2.2c5.7,0,11.4,0.2,17,0c3.7-0.2,3.5,2.1,3.5,4.6c0,2.5,0,4.6-3.6,4.5
	c-5.8-0.2-11.6,0-17.3,0c-1.7,0-3,0.1-2.9,2.4c0.1,2.3,1.6,2,2.9,2c6.4,0,12.8,0.1,19.2,0c2.5,0,3.6,0.6,3.6,3.4
	c-0.2,8.4,0.8,6.9-6.9,7.1C199.1,168.8,195,168.7,190.9,168.7z"/>
<path d="M105.8,131.5c11.2,0.3,8.1-2,12.3,8.5c3.4,8.3,6.5,16.7,9.8,25.1c1.3,3.6,1.3,3.6-2.7,3.6c-1.4-0.1-2.8-0.1-4.3,0
	c-3.6,0.5-6-0.6-6.7-4.4c-0.3-1.7-1.4-2.2-3.1-2.1c-2.4,0.2-4.7,0.2-7.1,0c-4-0.3-7.6-0.2-8.4,4.9c-0.1,0.7-0.7,1.3-1.4,1.4
	c-3.7,0.1-7.3,0.1-11,0c-1.5,0-1.1-1.2-0.8-2.1c4.4-11.1,8.9-22.2,13.3-33.2c0.5-1.3,1.8-2,3.1-1.8
	C101.3,131.5,103.5,131.5,105.8,131.5z M105.8,142.1l-2.3,5.6c-2.5,6.1-2.5,6.1,4.1,5.6c1.7-0.1,2.4-0.5,1.7-2.3
	C108.1,148.4,107.1,145.7,105.8,142.1L105.8,142.1z"/>
<path d="M146.5,158.1c2.9-7.1,5.3-13.6,8-20c3.3-8,1.2-6.5,9.7-6.7c6.9-0.1,6.6-0.5,4,5.8c-3.8,9.3-7.6,18.7-11.2,28
	c-0.9,2.5-2.1,3.6-4.9,3.4c-3.9-0.2-7.8-0.2-11.7,0c-1.9,0.3-3.8-0.9-4.2-2.8c-4-10.5-8.1-21-12.2-31.4c-1-2.4-0.3-3.1,2.2-3.1
	c9.7-0.3,9.7-0.3,13.3,8.8C141.7,145.9,143.9,151.7,146.5,158.1z"/>
<path d="M139.4,98.7c4.4-4.3,8.2-7.9,11.9-11.7c1.6-1.8,3.9-2.7,6.3-2.5c2.9,0.2,5.9,0,8.9,0c0.8,0,1.8-0.4,2.3,0.5
	c0.5,1.1-0.7,1.6-1.3,2.2c-4,3.8-8,7.8-12.2,11.4c-2.3,2-2.8,3.4-0.3,5.8c4.6,4.6,8.9,9.5,13.3,14.3c0.6,0.7,1.8,1.3,1.3,2.3
	c-0.5,1.3-1.8,0.5-2.8,0.7c-8.9,1.7-15.5-1.7-20.4-9.1c-0.7-1.1-1.6-3.3-3.4-2.2c-1.9,0.8-3.2,2.6-3.5,4.6c-0.7,6.7-0.8,6.7-7.6,6.7
	c-5.5,0-5.5,0-5.5-5.6c0-9.2,0.1-18.5-0.1-27.7c0-3.2,1-4,4.1-4c9.1,0.1,9.1,0,9.1,9.2C139.4,95,139.4,96.4,139.4,98.7z"/>
<path d="M115.9,121.7c-3.2,0.7-6.3,0-7.2-4.6c-0.3-1.6-1.5-1.9-3-1.9c-3.4,0-6.9,0.2-10.3,0c-2.7-0.2-4,0.8-4.6,3.2
	c-0.6,2.4-2.2,3.6-4.9,3.4c-2.4-0.1-4.7-0.1-7.1,0c-1.9,0-2.6-0.6-1.8-2.6c4.4-10.8,8.8-21.7,13.1-32.6c0.4-1.4,1.8-2.3,3.2-2.1
	c4.5,0.1,9,0.1,13.5,0c1.5-0.2,2.8,0.7,3.2,2.1c4.2,10.8,8.4,21.6,12.6,32.4c0.8,2,0.3,2.9-1.9,2.7
	C119.5,121.7,118.1,121.7,115.9,121.7z M100.2,95.2c-1.5,3.7-2.6,6.5-3.6,9.2c-0.3,0.9-0.9,1.9,0.8,1.9c2.2,0,4.9,0.6,6.5-0.4
	c1.2-0.8-0.8-3.3-1.3-5C101.9,99.1,101.2,97.7,100.2,95.2z"/>
<path d="M56.2,84.5c4.3,0,8.5-0.1,12.7,0c6.1,0.1,9.3,3.5,9.4,9.5c0,3.2,0,6.4,0,9.6c-0.1,5.4-3.4,8.8-8.9,8.9
	c-4.5,0.1-9,0.1-13.5,0c-2.2,0-3.1,0.5-3.2,2.9c0,6.3-0.2,6.3-6.5,6.3c-7.3,0-6.5,1-6.5-6.7c0-9,0.1-17.9,0-26.9
	c0-2.8,0.8-3.8,3.6-3.7C47.7,84.7,51.9,84.5,56.2,84.5z M59.4,102.7h2.1c4.7,0,5-0.4,5.2-4.1c0.3-4.3-2.5-4.1-5.3-4
	c-2.1,0-4.2,0-6.4,0c-0.9,0-1.8-0.1-2.2,1.2c-1.4,4.6,0.2,6.9,5.1,6.9H59.4z"/>
<path d="M185.3,97.8c5.3-6,15-7.3,21-3.5c2.5,1.5,4,4.2,3.9,7.1c0.1,5.8,0,11.6,0.1,17.3c0,2.1-0.8,3-2.9,2.9
	c-2.6-0.1-5.2-0.1-7.8,0c-2.2,0.1-2.9-0.9-2.9-2.9c0.1-4.7,0-9.5,0-14.2c0-3.1-1.2-4.6-4.3-4.7c-4.3-0.2-6.5,1.1-6.7,4.5
	c-0.2,4.7-0.2,9.5-0.1,14.2c0,2.2-0.7,3.1-3.1,3.2c-10.6,0.3-10.6,0.4-10.6-10.2c0-5.3,0.1-10.7,0-16c0-2.3,0.7-3.3,3.1-3.2
	c2,0.1,4,0.1,6,0C184.4,92.1,186.4,93,185.3,97.8z"/>
<path d="M178.9,89c-1.7-0.3-4.9,1-5.6-0.7s2.4-2.9,3.7-4.5c4-4.9,9.6-2.2,14.6-2.7c1.7-0.1,0.8,1.1,0.2,1.9
	C187.8,87.8,185.4,89,178.9,89z"/>
</svg>
