<?xml version="1.0" encoding="utf-8"?>
<!-- Generator: Adobe Illustrator 21.1.0, SVG Export Plug-In . SVG Version: 6.00 Build 0)  -->
<svg version="1.1" id="Layer_1" xmlns="http://www.w3.org/2000/svg" xmlns:xlink="http://www.w3.org/1999/xlink" x="0px" y="0px"
	 viewBox="0 0 250 250" style="enable-background:new 0 0 250 250;" xml:space="preserve">
<style type="text/css">
	.st0{fill:#FAB700;}
	.st1{fill:#003574;}
</style>
<title>Mass</title>
<path class="st0" d="M144.1,109.1l-13.8-8.8c1.1-0.2,2.2,0,3.1,0.6c4,1.5,8,3.2,12,4.8c0.3,0.1,0.6,0.3,0.8,0s0-0.6-0.2-0.9
	c-1.3-2.6-2.5-5.3-4-7.7c-0.1-0.3-0.3-0.6-0.3-0.9c0.8,0.1,1.1,0.8,1.5,1.2c2.3,2.1,4.5,4.3,6.8,6.4c0.3,0.3,0.6,0.4,0.8-0.3
	c0.4-2.3,0.9-4.5,1.3-6.7c0-0.3,0-0.7,0.5-0.9l2.1,8.6c1.7-1.6,3.2-3,4.8-4.4c1.1-0.9,2-1.9,3-2.8c0.2-0.2,0.4-0.4,0.6-0.2
	c0.3,0.2,0.1,0.4,0,0.7c-1.2,1.9-2.3,3.8-3.5,5.8c-0.4,0.7-0.8,1.4-1.2,2.1l0.2,0.2l14.1-6.1l0.2,0.4c-3.8,3.1-7.9,5.8-11.7,9
	l18-1.9v0.3l-3.7,1.1c-3.5,1-6.9,2-10.4,3c-2.1,0.7-4.2,1-6.4,1.1c-4.8-0.1-9.6,0-14.4,0c-1.6-0.2-3.2-0.5-4.8-1.1
	c-2.1-0.6-4.2-1.3-6.3-2c-2.4-0.7-4.9-1.4-7.3-2.2c-0.4-0.1-0.8,0-1.3-0.6C131.5,107.3,137.8,108.6,144.1,109.1z"/>
<path class="st1" d="M32.7,94.8c0.2,0.3,0.6,0.4,0.9,0.4c6.4,0.2,10.6,4.5,12.1,10c0.5,2.2,0.8,4.4,0.8,6.6c0.1,1.9,0,3.9,0,5.8
	c0,0.4,0,0.9,0.6,0.5c6.9-4,14.4-4.4,22.1-3.3c2.6,0.3,5,1.5,6.9,3.3c2.1,2,3.2,4.8,3.2,7.7c0,4.3,0,8.6,0,12.8
	c0,1.3,0.1,2.8,0.2,4.1c0,0.8,0.4,1.6,0.9,2.1c0.5,0.4,0.8,1.1,0.7,1.8c0,2.2,0,4.5,0,6.7c0,0.6,0,0.9-0.8,0.9c-4.8,0-9.7,0-14.5,0
	c-0.7,0-0.8-0.2-0.8-0.8c0-0.6,0-1.2,0-2.1c-2.2,1.7-4.8,3-7.5,3.8h-5.3c-0.2-0.4-0.7-0.3-1.1-0.4c-2.7-0.7-4.9-2.4-6.1-4.9
	c-1.5-3.1-1.8-6.6-0.8-9.9c0.4-1.6,1.3-3.1,2.5-4.2c2.2-2.1,5.1-3,7.8-4c2.5-0.9,5-1.6,7.6-2.5c2.5-0.8,2.7-1.1,2.1-3.8
	c0-0.2-0.1-0.3-0.2-0.5c-0.2-1-1.1-1.7-2.1-1.7c-1-0.1-2,0.4-2.5,1.4c-0.4,1-0.6,2-0.5,3.1c0,0.6-0.1,0.9-0.8,0.9
	c-4.1,0-8.2,0-12.3,0c-0.4,0-0.8,0.1-0.8-0.7c-0.5,1.5-1.2,2.9-2.2,4.2c-2.3,2.6-5.4,4.3-8.8,4.8c-2.9,0.3-5.8,0.5-8.7,0.3
	c-1.8,0-1.8,0-1.7,1.8c0,0.2,0,0.4,0,0.5c0,1.3-0.1,2.7,1.1,3.7c0.4,0.3,0.7,0.8,0.7,1.3c0,2.9,0,5.9,0,8.8c0,0.7-0.2,0.9-0.9,0.9
	c-6.5,0-13,0-19.4,0v-10.5c1.2-0.8,1.9-2.2,1.7-3.7c0-10.4,0-20.7,0-31.1c0.2-1.4-0.5-2.8-1.7-3.4c0-3.3,0-6.6,0-9.9
	c0-0.9,0.3-0.9,1-0.9C14.9,94.8,23.8,94.8,32.7,94.8z M23.4,116c0,2.3,0,4.5,0,6.8c0,1.9,0,1.9,1.9,1.9c2.7,0,4-1,4.3-3.7
	c0.4-3.7,0.3-7.4-0.3-11c-0.2-1-0.9-1.9-1.9-2.2c-1-0.3-2.1-0.4-3.1-0.4c-0.7-0.2-0.9,0.2-0.9,0.9C23.5,110.7,23.4,113.4,23.4,116z
	 M64.6,140.6c0-0.7,0-1.5,0-2.2c0-0.3,0-0.7-0.5-0.5c-1.7,0.7-3.6,1.1-4.9,2.5c-0.7,0.9-0.8,2.1-0.3,3.1c0.4,1.2,1.3,1,2.2,1
	c0.4,0,0.9-0.1,1.3-0.2c1.3,0,2.3-1.1,2.2-2.3c0-0.1,0-0.2,0-0.3C64.6,141.2,64.6,140.9,64.6,140.6L64.6,140.6z"/>
<path class="st1" d="M172.3,155.2c-1.1-0.5-2.4-0.4-3.5-1c-3.3-1.7-4.5-4.7-5.1-8.1c-0.3-2-0.4-4.1-0.3-6.1c0-5.3-0.2-10.7,0.2-16.1
	c0.1-2.3,1-4.6,2.5-6.4c1.7-1.8,4-2.9,6.5-3.1c2.8-0.4,5.6,0,8.2,1.1c0.7,0.2,1.3,0.6,1.8,1.1c0.1,0.2,0.3,0.4,0.6,0.3
	c0.3-0.1,0.3-0.3,0.3-0.6c0-7.1,0-14.2-0.1-21.3c0,0,0-0.1,0-0.1h14.9c0,0.1-0.1,0.3-0.1,0.4c0,15.7,0,31.4,0,47.1
	c-0.1,0.7,0.2,1.5,0.7,2c0-0.2,0.1-0.4,0.1-0.6c0-0.3,0.1-0.5,0.1-0.8c-0.1-3.5,1.7-6.7,4.7-8.5c2.2-1.3,4.5-2.2,6.9-2.9
	c2.8-1,5.6-1.8,8.4-2.7c0.3-0.1,0.8,0,0.7-0.6c0.1-1.1,0-2.1-0.3-3.1c-0.5-1.3-1.1-1.7-2.3-1.7s-1.9,0.5-2.4,1.8
	c-0.3,0.9-0.5,1.8-0.4,2.7c0,0.7-0.1,1-0.9,1c-4,0-8,0-12.1,0c-0.6,0-0.8-0.2-0.8-0.8c0-2.7,0-5.4,0-8.1c0-0.4,0.2-0.8,0.5-1
	c1.8-1.3,3.8-2.3,5.9-3c4.1-1.3,8.4-1.8,12.7-1.6c2.1,0.1,4.1,0.4,6.1,0.9c3.1,0.7,5.8,2.7,7.4,5.5c0.9,2.1,1.3,4.4,1.2,6.7
	c0.1,5-0.1,9.9,0.1,14.9c0,1,0.4,2,1.1,2.7c0.4,0.3,0.6,0.8,0.6,1.3c0,2.3,0,4.7,0,7c0,0.8-0.3,0.9-1,0.9c-4.2,0-8.5,0-12.7,0
	c-0.7,0.1-1.4,0.1-2-0.1c-0.7-0.4,0-1.3-0.2-1.9c0-0.1,0-0.1,0-0.2c0-0.5-0.2-0.5-0.5-0.2c-2.1,1.5-4.5,2.6-7,3.3H208
	c0-0.2-0.3-0.2-0.4-0.2c-2.7-0.5-5.1-2.1-6.5-4.4c-0.2-0.4-0.6-0.8-0.9-1.3c0,1.4,0,2.7,0,3.8c0,0.9-0.1,1.2-1.2,1.2
	c-4.2-0.1-8.5,0-12.7,0c-1.9,0-1.9,0-2.1-1.8c0,0-0.1-0.1-0.2-0.1c-1.2,0.7-2.5,1.4-3.8,1.9c-1.1,0.4-2.2,0.6-3.3,0.9L172.3,155.2z
	 M183.7,134.8L183.7,134.8c0-2.7,0-5.3,0-8c0-0.4,0.1-0.8-0.4-1.1c-1.2-1.1-3.2-1-4.3,0.3c-0.4,0.5-0.7,1.1-0.7,1.8
	c-0.2,2.3-0.3,4.7-0.2,7c-0.1,2.2,0,4.5,0.3,6.7c0.5,2.7,2,3.2,4.6,2.4c0.5-0.1,0.8-0.6,0.7-1C183.7,140.1,183.7,137.4,183.7,134.8z
	 M220,137.7c-1.9,0.9-3.8,1.1-5.2,2.5c-0.9,0.8-1.1,2-0.7,3.1c0.5,1.2,1,1.4,2.5,1.2c0.9-0.1,1.8-0.4,2.7-0.8
	c0.4-0.2,0.7-0.6,0.7-1.1C220,141,220,139.4,220,137.7L220,137.7z"/>
<path class="st1" d="M245,121c-0.5,1.4-1.6,2.5-3,3.1c-2,0.7-4.3,0-5.5-1.8c-1.2-1.8-0.9-4.3,0.7-5.8c1.6-1.4,4-1.6,5.9-0.4
	c0.9,0.7,1.6,1.7,1.9,2.9L245,121z M244,119.9c0.2-1.9-1.2-3.6-3.1-3.8c-0.1,0-0.1,0-0.2,0c-2.1-0.2-3.9,1.4-4.1,3.4
	s1.4,3.9,3.4,4.1c0.1,0,0.2,0,0.4,0c1.9,0.1,3.5-1.3,3.6-3.1C244.1,120.2,244,120,244,119.9L244,119.9z"/>
<path class="st1" d="M99.2,117.4c1.8-1,3.6-1.8,5.5-2.4c4.7-1.3,9-0.9,12.8,2.5c0.5,0.5,0.9,0.3,1.3,0c2.4-1.7,5.2-2.8,8.2-3.2
	c3.8-0.4,7.4,0.1,10.3,2.9c1.9,2,2.9,4.6,2.8,7.3c0.3,5.5,0.1,11,0.1,16.4c0,1.5,0,3.2,1.5,4.3c0.3,0.2,0.3,0.6,0.3,0.9
	c0,2.4,0,4.8,0,7.1c0,0.8-0.3,1-1,0.9c-4.6,0-9.2,0-13.8,0c-0.7,0-0.9-0.3-1-0.9c-0.4-1.8-0.6-3.7-0.6-5.5
	c-0.1-5.2-0.1-10.3-0.1-15.5c0.1-1.5,0.1-2.9,0-4.4c-0.3-1.9-2.1-3.2-4-2.9c-0.4,0.1-0.9,0.2-1.3,0.5c-0.3,0.2-0.2,0.4-0.2,0.7
	c0.1,5.5-0.2,11,0.2,16.6c0.1,0.8,0.5,1.6,1.1,2.2c0.4,0.3,0.6,0.8,0.5,1.2c0,2.4,0,4.8,0,7.1c0,0.7-0.1,0.9-0.9,0.9
	c-4.6,0-9.3,0-13.9,0c-0.7,0-0.9-0.1-1-0.9c-0.4-2.4-0.7-4.9-0.6-7.4c0-4.3-0.1-8.6-0.1-13c0.1-1.5,0.1-3.1,0-4.6
	c-0.4-3.4-2.7-3.6-5.2-2.9c-0.4,0.1-0.4,0.4-0.4,0.7c0.1,5.6-0.2,11.1,0.2,16.7c0.1,0.8,0.5,1.6,1.2,2.1c0.4,0.3,0.6,0.7,0.6,1.2
	c0,2.4,0,4.8,0,7.2c0,0.7-0.2,0.9-0.9,0.8c-5.6,0-11.1,0-16.7,0c-0.7,0-0.8-0.3-0.8-0.9c0-2.4,0-4.8,0-7.1c0-0.4,0-0.7,0.3-1
	c1-0.9,1.5-2.2,1.4-3.6c0-4.6,0-9.3,0-13.9c0.2-1.4-0.4-2.8-1.5-3.6c-0.3-0.2-0.3-0.3-0.3-0.6c0-2.6,0-5.1,0-7.7
	c0-0.7,0.2-0.9,0.9-0.9c4.7,0,9.3,0,14.1,0c0.8,0,1.1,0.2,1,1C99,116.5,99.1,116.9,99.2,117.4z"/>
<path class="st1" d="M160.6,128c0,3.9,0,7.7,0,11.6c-0.1,1.5,0.1,3,0.6,4.4c0.1,0.2,0.1,0.5,0.3,0.6c1.3,0.8,1,2,1,3.2
	c0,1.9,0,3.7,0,5.6c0,0.6,0,0.9-0.8,0.9c-5.6,0-11.2,0-16.8,0c-0.6,0-0.8-0.2-0.8-0.8c0-2.4,0-4.8,0-7.2c0-0.4,0.1-0.8,0.5-1
	c0.9-0.7,1.4-1.8,1.3-3c0-4.9,0-9.8,0-14.7c0.1-1.3-0.4-2.6-1.3-3.4c-0.3-0.2-0.4-0.6-0.4-1c0-2.5,0-5,0-7.5c0-0.6,0.2-0.7,0.7-0.7
	c5,0,10,0,15,0c0.7,0,0.7,0.3,0.7,0.9C160.6,119.9,160.6,124,160.6,128z"/>
<path class="st1" d="M238.6,119.8c0-0.3,0-0.7,0-1c0.1-0.6-0.4-1.5,0.3-1.6c1.1-0.3,2.3-0.1,3.2,0.5c0.5,0.4,0.4,2-0.2,2.1
	c-1,0.2-0.5,0.6-0.3,1.1c0.1,0.3,0.3,0.6,0.5,0.9c0.1,0.2,0.5,0.4,0.1,0.6c-0.2,0.1-0.5,0-0.6-0.2c0,0,0,0,0,0c-0.3-0.5-0.7-1-1-1.6
	c-0.1-0.4-0.5-0.5-0.9-0.5c-0.5,0.1-0.2,0.5-0.3,0.8c-0.2,0.5,0.4,1.4-0.4,1.4s-0.2-0.9-0.3-1.4
	C238.6,120.5,238.6,120.1,238.6,119.8z M240.3,119.4c0.7,0,1.3,0.1,1.3-0.8s-0.9-0.7-1.5-0.8c-0.6-0.1-0.6,0.3-0.7,0.8
	C239.3,119.4,239.7,119.5,240.3,119.4z"/>
</svg>
