<?xml version="1.0" encoding="utf-8"?>
<!-- Generator: Adobe Illustrator 21.1.0, SVG Export Plug-In . SVG Version: 6.00 Build 0)  -->
<svg version="1.1" id="Layer_1" xmlns="http://www.w3.org/2000/svg" xmlns:xlink="http://www.w3.org/1999/xlink" x="0px" y="0px"
	 viewBox="0 0 250 250" style="enable-background:new 0 0 250 250;" xml:space="preserve">
<style type="text/css">
	.st0{fill:#FFFFFF;}
	.st1{fill:#00ACEC;}
	.st2{fill:#CF4037;}
</style>
<title>Grocery</title>
<path class="st0" d="M20.9,195.6h210.3v-140H20.9V195.6z"/>
<path class="st1" d="M231.1,105.9H128.3c-3.2,0-4.9,0-7.5-1.2c-3.9-2.2-2.9-7-6.6-9.5c-1.5-0.7-1.9-1.5-4.1-1.7H20.9V55.6h210.3
	V105.9L231.1,105.9z"/>
<path class="st2" d="M45.2,137.3V98.4H59c1.9,0.2,3.7,1.1,5.1,2.4c2.7,2.4,2.2,6.3,2.2,10.5c0,4.1,0.2,9-2.4,10.9
	c-3.6,2.7-6.6,2.7-11.4,2.7v12.4L45.2,137.3L45.2,137.3z"/>
<path class="st0" d="M52.5,105.4v12.4c2.4,0,4.1,0.5,5.6-1.2c0.7-0.7,0.7-2.9,0.7-5.1c-0.2-2.2,0.2-4.6-1.2-5.6
	C56.6,105.2,55.1,105.2,52.5,105.4L52.5,105.4z"/>
<path class="st2" d="M67.1,114.9l2.7-6.1H76c2.9,0.2,4.6,0.2,6.1,1.2c1.9,1.5,1.7,3.6,1.7,5.6v22.4H73.4c-2.1,0.2-4.2-0.4-5.8-1.7
	c-2.4-1.9-2.2-4.6-2.2-8c-0.2-3.2-0.2-5.6,1.9-7.8c1.7-1.7,5.6-1.7,9.5-1.5c0-1.5,0-2.7-0.5-3.2c-0.7-0.7-0.7-1-1.9-1H67L67.1,114.9
	z"/>
<path class="st0" d="M76.8,131.4v-6.3c-1.9,0-3.2-0.2-4.1,0.5c-0.5,0.5-0.5,1.7-0.5,2.9c-0.1,0.9,0.2,1.9,0.7,2.7
	C73.4,131.7,74.6,131.4,76.8,131.4L76.8,131.4z"/>
<path class="st2" d="M94.3,102.8h-4.9l-4.9,12.4h2.7v17.2c-0.2,1.3,0.1,2.6,1,3.6c0.8,1.2,2.2,1.8,3.6,1.7h5.1l2.4-6.3h-3.2
	c-0.5,0.2-1.2,0.2-1.5-0.2c-0.5-0.5-0.5-0.7-0.5-1.5v-14.6h4.4v-6.6h-4.4L94.3,102.8L94.3,102.8L94.3,102.8z M107.2,115.2v22.5h-6.8
	V98.9h6.8v10h3.9c3.2,0,4.6,0.2,6.3,2.2c1,1.5,1.4,3.3,1.2,5.1V149h-4.1c-0.7-0.2-1.4-0.6-1.9-1.2c-0.8-0.9-1-2-0.7-3.2v-27
	c0-0.5-0.2-1-0.5-1.5c-0.3-0.4-0.8-0.7-1.2-1H107.2z"/>
<path class="st1" d="M154.1,126.1l2.7-6.1h7.3c2,0,4,0.5,5.8,1.5c1.7,1.5,1.7,3.4,1.7,5.3v22.4h-10.2c-2.7,0-4.1-0.2-5.8-1.7
	c-2.4-1.9-2.4-4.6-2.4-8c0-2.9-0.2-5.1,1.9-7.3c1.7-1.7,5.8-1.7,9.5-1.5c0.3-1.2,0.1-2.5-0.5-3.6c-0.5-0.7-0.7-1-1.9-1L154.1,126.1
	L154.1,126.1z"/>
<path class="st0" d="M164.8,142.9v-6.3c-1.9,0-3.2-0.2-4.4,0.5c-0.5,0.9-0.6,2-0.2,2.9c-0.1,0.9,0.1,1.9,0.7,2.7
	C161.4,143.1,162.6,143.1,164.8,142.9z"/>
<path class="st1" d="M128.3,149h-6.8v-28.4h24.3c1.6-0.1,3.1,0.6,4.1,1.7c1.2,1.1,1.8,2.7,1.7,4.4V149h-7.3v-20.2
	c0.1-0.5-0.1-0.9-0.5-1.2c-0.4-0.6-1-1-1.7-1H140v22.4h-6.8v-19.7c0.1-0.6-0.1-1.2-0.5-1.7c-0.4-0.5-1-0.9-1.7-1h-2.7L128.3,149
	L128.3,149L128.3,149z M184.9,120.5l2.2,6.3h-3.4c-0.5-0.1-1,0-1.5,0.2c-0.7,0.5-1,1-0.7,1.7v20.2h-7v-28.4H184.9L184.9,120.5z
	 M188.3,111h7v20.2l5.6-10h7.3l-5.8,10.5c1.2,0.1,2.3,0.6,3.2,1.5c0.6,0.6,0.9,1.4,1,2.2L208,149h-6.8l-1-9.5c0-0.5-0.2-0.7-0.7-1.2
	c-0.4-0.5-1.1-0.7-1.7-0.7h-2.4v11.4h-7V111z"/>
<path class="st2" d="M231.1,156.5H116.4c-3.2,0.2-4.9,0.2-7.5-1.2c-3.9-1.9-2.7-6.8-6.6-9.3c-1.1-1-2.4-1.6-3.9-1.7H20.9v51.3h210.3
	V156.5L231.1,156.5z"/>
<path class="st1" d="M218.6,138.2c1,0,2,0.3,2.8,0.7c0.9,0.5,1.6,1.2,2.1,2.1c0.5,0.9,0.8,1.9,0.8,2.9c0,1-0.3,2-0.8,2.9
	c-0.5,0.9-1.2,1.6-2.1,2.1c-1.8,1-3.9,1-5.7,0c-0.9-0.5-1.6-1.2-2.1-2.1c-0.5-0.9-0.8-1.9-0.8-2.9c0-1,0.3-2,0.8-2.9
	c0.5-0.9,1.2-1.6,2.1-2.1C216.6,138.4,217.6,138.2,218.6,138.2L218.6,138.2z M218.6,139.1c-0.8,0-1.6,0.2-2.3,0.6
	c-0.8,0.4-1.4,1-1.8,1.8c-0.9,1.5-0.9,3.3,0,4.8c0.4,0.7,1,1.4,1.8,1.8c1.5,0.9,3.3,0.9,4.8,0c0.7-0.4,1.4-1,1.8-1.8
	c0.8-1.5,0.8-3.3,0-4.8c-0.4-0.8-1-1.4-1.8-1.8C220.3,139.4,219.4,139.1,218.6,139.1L218.6,139.1z M216.1,147.1v-6.2h2.1
	c0.5,0,1.1,0,1.6,0.2c0.3,0.1,0.6,0.3,0.8,0.6c0.2,0.3,0.3,0.6,0.3,0.9c0,0.4-0.2,0.9-0.5,1.2c-0.4,0.4-0.8,0.6-1.3,0.6
	c0.2,0.1,0.4,0.2,0.5,0.3c0.3,0.4,0.7,0.8,0.9,1.2l0.8,1.2H220l-0.5-1c-0.3-0.5-0.6-1-1-1.4c-0.2-0.2-0.5-0.2-0.8-0.2h-0.6v2.7
	L216.1,147.1L216.1,147.1z M217.1,143.6h1.2c0.4,0,0.8,0,1.2-0.3c0.3-0.3,0.4-0.8,0.2-1.2c-0.1-0.1-0.3-0.3-0.4-0.3
	c-0.3-0.1-0.7-0.1-1-0.1h-1.1L217.1,143.6L217.1,143.6L217.1,143.6z"/>
</svg>
