<?xml version="1.0" encoding="utf-8"?>
<!-- Generator: Adobe Illustrator 21.1.0, SVG Export Plug-In . SVG Version: 6.00 Build 0)  -->
<svg version="1.1" id="Layer_1" xmlns="http://www.w3.org/2000/svg" xmlns:xlink="http://www.w3.org/1999/xlink" x="0px" y="0px"
	 viewBox="0 0 250 250" style="enable-background:new 0 0 250 250;" xml:space="preserve">
<style type="text/css">
	.st0{fill:#EC1B2E;stroke:#FCB945;stroke-width:3.7524;stroke-miterlimit:2.6131;}
	.st1{fill:#FFFDEE;}
	.st2{fill:#231F20;}
	.st3{fill:none;stroke:#231F20;stroke-width:0.1751;stroke-miterlimit:2.6131;}
	.st4{fill:#FBD2C3;}
	.st5{fill:none;stroke:#231F20;stroke-width:0.3508;stroke-miterlimit:2.6131;}
	.st6{fill:#F59580;stroke:#231F20;stroke-width:0.3508;stroke-miterlimit:2.6131;}
</style>
<title>Grocery</title>
<path class="st0" d="M224.2,181.7c11.6-0.1,20.9-9.5,20.8-21.1c0-0.1,0-0.1,0-0.2V89.6c0.1-11.6-9.2-21.1-20.8-21.3H25.8
	C14.2,68.5,4.9,78,5,89.6v70.8c-0.2,11.6,9,21.1,20.6,21.3c0.1,0,0.1,0,0.2,0L224.2,181.7z"/>
<polygon class="st1" points="193.1,160.7 201.1,160.7 201.1,127.4 193.1,127.4 193.1,160.7 "/>
<path class="st1" d="M146.7,147c0,7,4.8,11.5,10.9,11.5c0.8,0,1.7-0.1,2.5-0.4c0.8,0.8,0.8,2,0,2.8c-0.2,0.2-0.5,0.4-0.9,0.5
	c-2.5,1.1-6.1-0.2-8.4-2.4l-4.1,5.7c2.3,2.1,5.3,3.5,8.4,3.9c5.5,0.7,10.7-1.1,12.7-5.1c1.6-3.5,1.3-6.2-1.1-9.7
	c1.3-1.9,2-4.2,2-6.6c0-2.2-0.7-4.3-1.8-6.2l-0.2-0.7c0.4-1.4,1.1-2.8,2.1-3.9H161c-1.1-0.3-2.3-0.5-3.4-0.4
	C151.6,136,146.7,140.9,146.7,147C146.7,146.9,146.7,147,146.7,147l7.6-0.2c0-2,1.8-2.7,3.4-2.7c1.7,0.1,3,1.4,3,3.1
	c0.1,1.8-1.3,3.3-3.1,3.4c-1.8,0.1-3.3-1.3-3.4-3.1c0-0.2,0-0.4,0-0.6L146.7,147L146.7,147z"/>
<path class="st1" d="M169.7,147c0,7,4.8,11.5,11.1,11.5c0.8,0,1.6-0.2,2.3-0.4c0.8,0.8,0.8,2,0,2.8c-0.2,0.2-0.5,0.4-0.9,0.5
	c-2.5,1.1-6.1-0.2-8.4-2.4l-4.1,5.7c2.3,2.1,5.3,3.5,8.4,3.9c5.5,0.7,10.7-1.1,12.7-5.1c1.6-3.5,1.3-6.2-1.1-9.7
	c1.3-1.9,2-4.2,2-6.6c0-2.2-0.7-4.3-1.8-6.2v-0.7c0.3-1.4,1-2.8,2-3.9h-7.7c-1.1-0.3-2.3-0.4-3.4-0.4
	C174.7,136,169.7,140.9,169.7,147l7.7-0.2c0-2,1.8-2.7,3.4-2.7c1.7,0.1,3,1.4,3,3.1c0.1,1.8-1.3,3.3-3.1,3.4
	c-1.8,0.1-3.3-1.3-3.4-3.1c0-0.2,0-0.4,0-0.6L169.7,147L169.7,147z"/>
<polygon class="st1" points="215.6,168.6 225.3,136.4 216.9,136.4 207.2,168.6 215.6,168.6 "/>
<polygon class="st1" points="210.1,159.1 202.8,136.4 211,136.4 218.5,159.1 210.1,159.1 "/>
<polygon class="st1" points="137.3,160.7 145.3,160.7 145.3,136.4 137.3,136.4 137.3,160.7 "/>
<polygon class="st1" points="137.3,133.8 145.3,133.8 145.3,127.4 137.3,127.4 137.3,133.8 "/>
<path class="st1" d="M117.6,108.1c0,2.4,2,4.4,4.4,4.4c2.4,0,4.4-2,4.4-4.4c0-2.4-2-4.4-4.4-4.4c0,0-0.1,0-0.1,0
	C119.5,103.8,117.6,105.7,117.6,108.1l-7.7-0.2V96h7.9l-0.2,1.7c1.8-1.3,4-2,6.3-2c6.1,0,11.1,5.7,11.1,12.7s-5,12.5-11.1,12.5
	c-2.2,0-4.3-0.7-6.1-2v9.7h-7.9V108L117.6,108.1L117.6,108.1z"/>
<polygon class="st1" points="135.6,120.4 143.7,120.4 143.7,96 135.6,96 135.6,120.4 "/>
<polygon class="st1" points="135.6,93.5 143.7,93.5 143.7,87.1 135.6,87.1 135.6,93.5 "/>
<path class="st1" d="M167.9,106.7c-0.4,5.9,4,11.1,9.9,11.5c0.3,0,0.7,0,1,0c0.8,0,1.7-0.1,2.5-0.4c0.7,0.9,0.6,2.2-0.2,2.9
	c-0.2,0.2-0.4,0.3-0.7,0.4c-2.7,1.1-6.1-0.2-8.6-2.4l-4,5.7c2.3,2.1,5.3,3.5,8.4,3.9c5.5,0.7,10.7-1.1,12.7-5.1
	c1.6-3.5,1.3-6.2-1.1-9.7c1.3-1.9,2-4.2,2-6.6c0-2.2-0.7-4.4-2-6.2v-0.7c0.4-1.4,1-2.7,2-3.9h-7.7c-1.1-0.3-2.3-0.5-3.4-0.4
	c-6-0.1-10.9,4.7-10.9,10.7C167.8,106.4,167.8,106.5,167.9,106.7l7.6-0.2c0-2,1.8-2.7,3.4-2.7c1.7,0.1,3,1.4,3,3.1
	c0.1,1.8-1.3,3.3-3.1,3.4c-1.8,0.1-3.3-1.3-3.4-3.1c0-0.2,0-0.4,0-0.6L167.9,106.7L167.9,106.7z"/>
<polygon class="st1" points="213.7,128.3 223.5,96 215.1,96 205.4,128.3 213.7,128.3 "/>
<polygon class="st1" points="208.3,118.8 200.8,96 209.2,96 216.7,118.8 208.3,118.8 "/>
<path class="st1" d="M144.8,106.7c-0.4,5.9,4,11.1,9.9,11.5c0.3,0,0.7,0,1,0c0.8,0,1.7-0.2,2.5-0.4c0,0,1.6,2-1.1,3.3
	c-2.7,1.3-5.9-0.2-8.4-2.4l-4.1,5.7c2.3,2.1,5.3,3.5,8.4,3.9c5.5,0.7,10.9-1.1,12.9-5.1c1.6-3.5,1.3-6.2-1.1-9.7
	c1.3-1.9,2-4.2,2-6.6c0-2.2-0.7-4.4-2-6.2v-0.7c0.4-1.4,1-2.7,2-3.9h-7.7c-1.1-0.3-2.3-0.4-3.4-0.3c-6.1,0-11,4.9-11.1,11l7.9-0.2
	c0-2,1.6-2.7,3.2-2.7c1.7,0,3.2,1.4,3.2,3.1c0,1.8-1.4,3.3-3.2,3.3c0,0,0,0,0,0c-1.8,0.1-3.3-1.3-3.4-3.1c0-0.2,0-0.4,0-0.5
	L144.8,106.7L144.8,106.7z"/>
<polygon class="st1" points="191.3,120.4 199.4,120.4 199.4,87.1 191.3,87.1 191.3,120.4 "/>
<polygon class="st1" points="109,160.6 103.4,136.4 111.3,136.4 116.9,160.6 109,160.6 "/>
<polygon class="st1" points="129.9,160.6 135.6,136.4 127.8,136.4 122,160.6 129.9,160.6 "/>
<polygon class="st1" points="116.7,160.6 122.4,136.4 116.7,136.4 110.9,160.6 116.7,160.6 "/>
<polygon class="st1" points="122.2,160.6 116.7,136.4 122.4,136.4 127.9,160.6 122.2,160.6 "/>
<path class="st2" d="M22.2,96.8c0.9-1.1,2.1-0.9,3-1.8c0.3-0.3,0.5-0.7,0.5-1.1c0.4-2,0.7-4,1.3-6.2c0.2-1.4,1-2.6,2.1-3.5
	c2.3-1.1,5-0.9,7.5-1.1c0.9,0,2.1,0,2.5-0.9c0.4-0.9,1.6-2.6,2.7-1.7c2.9,2.4,5.2,4.6,8.2,6.8c2.7,1.7,4.8,3.5,7.5,5.1
	c0.7,0.5,1.4,1.3,2.1,0.9c1.9-1.1,3.9-1.8,6.1-2.2c1.2-0.2,2.4-0.3,3.6-0.2c0.9,0.2,1.8,0.2,2.7,0.4c5,1.1,8.8,3.9,12.9,7h0.7
	c0.9-0.7,1.8-1.2,2.9-1.7c0.3-0.1,0.6-0.2,0.9-0.2c3.4-1.5,7-1.3,10.4-1.5c0.5,0,1.1,0.4,1.1,0.7c0.9,6.5-0.7,13-4.5,18.3
	c-0.2,0.3-0.2,0.6-0.2,0.9c0.5,4.4,1.4,8.6,1.1,13c-0.2,1.9-0.7,3.8-1.4,5.5c-0.4,1.1-1.3,2-0.9,2.9c1.2,3.5,1.4,7.2,0.5,10.8
	c-0.8,3.1-2.5,5.9-4.8,8c-1.8,1.7-3.8,2.9-5.5,4.4c-2.4,4.1-6.4,7.1-11.1,8.1c-4.7,1.1-9.3,0.2-13.8-1.3c-3.4,1.3-7.1,1.1-10.4-0.4
	c-5.2-2.6-8.2-7.7-10.4-13c-1.1-0.7-2.1-1.6-2.9-2.6c-1-1.2-1.8-2.5-2.3-4c-0.5-0.9-0.4-2.4-1.3-2.9c-3-2.4-6.1-4.4-8-7.9
	c-1.1-1.8-2.1-3.7-2.9-5.7c-1.3-3.3-2.7-6.6-2.5-10.3c2.7-1.4,5.6-2.5,8.6-3.3c-0.7-5.3-4.5-9.5-6.3-14.7
	C21.3,100.1,21.3,98.3,22.2,96.8L22.2,96.8z"/>
<path class="st3" d="M22.2,96.8c0.9-1.1,2.1-0.9,3-1.8c0.3-0.3,0.5-0.7,0.5-1.1c0.4-2,0.7-4,1.3-6.2c0.2-1.4,1-2.6,2.1-3.5
	c2.3-1.1,5-0.9,7.5-1.1c0.9,0,2.1,0,2.5-0.9c0.4-0.9,1.6-2.6,2.7-1.7c2.9,2.4,5.2,4.6,8.2,6.8c2.7,1.7,4.8,3.5,7.5,5.1
	c0.7,0.5,1.4,1.3,2.1,0.9c1.9-1.1,3.9-1.8,6.1-2.2c1.2-0.2,2.4-0.3,3.6-0.2c0.9,0.2,1.8,0.2,2.7,0.4c5,1.1,8.8,3.9,12.9,7h0.7
	c0.9-0.7,1.8-1.2,2.9-1.7c0.3-0.1,0.6-0.2,0.9-0.2c3.4-1.5,7-1.3,10.4-1.5c0.5,0,1.1,0.4,1.1,0.7c0.9,6.5-0.7,13-4.5,18.3
	c-0.2,0.3-0.2,0.6-0.2,0.9c0.5,4.4,1.4,8.6,1.1,13c-0.2,1.9-0.7,3.8-1.4,5.5c-0.4,1.1-1.3,2-0.9,2.9c1.2,3.5,1.4,7.2,0.5,10.8
	c-0.8,3.1-2.5,5.9-4.8,8c-1.8,1.7-3.8,2.9-5.5,4.4c-2.4,4.1-6.4,7.1-11.1,8.1c-4.7,1.1-9.3,0.2-13.8-1.3c-3.4,1.3-7.1,1.1-10.4-0.4
	c-5.2-2.6-8.2-7.7-10.4-13c-1.1-0.7-2.1-1.6-2.9-2.6c-1-1.2-1.8-2.5-2.3-4c-0.5-0.9-0.4-2.4-1.3-2.9c-3-2.4-6.1-4.4-8-7.9
	c-1.1-1.8-2.1-3.7-2.9-5.7c-1.5-3.2-2.3-6.7-2.5-10.3c2.7-1.4,5.6-2.5,8.6-3.3c-0.7-5.3-4.5-9.5-6.3-14.7
	C21.3,100.1,21.3,98.3,22.2,96.8L22.2,96.8z"/>
<path class="st1" d="M25.6,100.3c0.9,4.4,3.8,7.7,5.2,11.7c0.4,1.1,0.9,2.2,1.3,3.1c0.2,0.4,0.4,0.4,0.5,0.4c2.9-0.2,5.2-1.3,8-1.8
	c2.8-0.5,5-1.3,7.7-1.7c0.3-0.1,0.6-0.3,0.9-0.5c1.4-2.7,2.5-5.5,3.8-8.3c1.1-2.2,2.5-4.2,3.4-6.4c0.4-1.5-1.3-2.4-2.3-3.1
	c-1.4-0.7-2.9-1.7-4.3-2.4c-1.7-1-3.3-2.2-4.8-3.5L42.2,85c-0.2-0.2-0.5,0.2-0.5,0.2c-0.2,6.1,2.1,11.7,3.6,17.6
	c0.2,0.5,0.2,1,0,1.5c-0.2,0.5-0.5,0.9-1.1,0.5c-1.4-0.9-2.5-2.2-4.3-2.6c-4.8-0.9-9.5-0.4-14-2.2C25.7,100.1,25.4,100.1,25.6,100.3
	L25.6,100.3z"/>
<path class="st1" d="M29,97.7c1.3,0.5,2.7,0.8,4.1,0.9c1.6,0,3.4,0.5,5-0.5v-0.4c-2.1-2.7-4.3-5.2-6.8-7.5c-0.4-0.4-0.7-0.7-1.3-0.5
	c-0.9,0.4-0.9,1.7-0.9,2.4c-0.3,1.8-0.4,3.7-0.4,5.5C28.8,97.6,28.9,97.7,29,97.7C29,97.7,29,97.7,29,97.7L29,97.7z"/>
<path class="st1" d="M39.7,94.3c0.2-0.4,0-0.7,0-0.9c-0.5-2.2-0.9-4.6-1.4-6.7c-0.5-2.1-3-0.9-4.7-0.9c-0.4,0.1-0.6,0.4-0.6,0.8
	c0,0,0,0.1,0,0.1c1.6,2.9,3.7,5.5,6.3,7.7C39.4,94.4,39.5,94.3,39.7,94.3z"/>
<path class="st4" d="M28.3,134.2c1.8,2.7,4.5,4,7.2,5.9c0.4,0.2,0.5,0.5,0.7,0.7c0.5,2.5,1.5,4.8,2.9,6.9c0.7,1.1,1.8,2,3,2.4
	c2.3,5.7,5.2,12.8,11.8,13.9c1.3,0.2,2.5,0,3.8-0.4c0.7-0.2,0.9-0.7,1.1-1.5c5.5,3.4,12.2,3.8,18.1,1.1c1.6-0.7,3.1-1.7,4.3-2.9
	c1.4-1.6,2.5-3.4,3.2-5.3c0.2-0.2,0.7,0.4,0.9,0.4c6.1-3.1,9.7-10.7,7-17.2c-0.2-0.4-0.4-0.8-0.7-1.1c-0.5-0.7-1.4-1.3-2-2
	c-0.3-0.4-0.3-0.9,0.1-1.3c0,0,0.1-0.1,0.1-0.1c0.5-0.2,1.6,0.4,2,0c3.4-3.9,2.9-9.3,2.3-14.3c-0.4-2-1.3-4-0.9-6.2
	c0.2-1.1,1.4-1.8,2-2.9c1-1.6,1.8-3.3,2.1-5.1c0.5-2,1.3-4,0.7-6.2c0-0.4-0.4-0.4-0.5-0.4c-2.2-0.1-4.4,0.3-6.4,0.9
	c-2.1,0.5-3.4,1.8-5.2,3.1h-0.4c-2.1-1.8-4.2-3.5-6.4-5.1c-4.7-2.9-10-4.4-15.2-2.6c-1.3,0.4-2.4,1.2-3.2,2.2c-3.2,4.2-5.5,9-7,14.1
	c-0.2,0.3-0.2,0.6,0,0.9c1.4,1.5,4.5,2.4,4.3,4.8c0,0.4-0.4,0.4-0.5,0.4c-1.4-0.5-2.8-1.2-4-2.2c-2.1-1.3-4.3,0.2-5.5,2
	c-0.7,1.5-0.9,3.5-2.5,4.4c-0.2,0.2-0.7,0-0.7-0.4c0-1.6,0.4-3.2,1.1-4.6c0-0.2,0.2-0.5-0.2-0.5c-2.3-0.1-4.7,0.3-6.8,1.3
	c-0.4,0.2-1.6,0.4-1.3,0.9c1.6,1.8,4,2.9,5,5.3v0.7c-0.4,0.5-1.1,0.6-1.6,0.4c-2.1-1.3-3.4-3.3-5.5-4c-2.9-1.1-6-1.1-8.9-0.2
	c-1.1,0.2-2.2,0.7-3,1.5c0,2.2,1.1,4.2,1.8,6.2C25.9,130.2,27,132.2,28.3,134.2L28.3,134.2z"/>
<path class="st5" d="M28.3,134.2c1.8,2.7,4.5,4,7.2,5.9c0.4,0.2,0.5,0.5,0.7,0.7c0.5,2.5,1.5,4.8,2.9,6.9c0.7,1.1,1.8,2,3,2.4
	c2.3,5.7,5.2,12.8,11.8,13.9c1.3,0.2,2.5,0,3.8-0.4c0.7-0.2,0.9-0.7,1.1-1.5c5.5,3.4,12.2,3.8,18.1,1.1c1.6-0.7,3.1-1.7,4.3-2.9
	c1.4-1.6,2.5-3.4,3.2-5.3c0.2-0.2,0.7,0.4,0.9,0.4c6.1-3.1,9.7-10.7,7-17.2c-0.2-0.4-0.4-0.8-0.7-1.1c-0.5-0.7-1.4-1.3-2-2
	c-0.3-0.4-0.3-0.9,0.1-1.3c0,0,0.1-0.1,0.1-0.1c0.5-0.2,1.6,0.4,2,0c3.4-3.9,2.9-9.3,2.3-14.3c-0.4-2-1.3-4-0.9-6.2
	c0.2-1.1,1.4-1.8,2-2.9c1-1.6,1.8-3.3,2.1-5.1c0.5-2,1.3-4,0.7-6.2c0-0.4-0.5-0.4-0.5-0.4c-2.2-0.1-4.4,0.3-6.4,0.9
	c-2.1,0.5-3.4,1.8-5.2,3.1h-0.4c-2.1-1.8-4.2-3.5-6.4-5.1c-4.7-2.9-10-4.4-15.2-2.6c-1.3,0.4-2.4,1.2-3.2,2.2c-3.2,4.2-5.5,9-7,14.1
	c-0.2,0.3-0.2,0.6,0,0.9c1.4,1.5,4.5,2.4,4.3,4.8c0,0.4-0.5,0.4-0.5,0.4c-1.4-0.5-2.8-1.2-4-2.2c-2.1-1.3-4.3,0.2-5.5,2
	c-0.7,1.5-0.9,3.5-2.5,4.4c-0.2,0.2-0.7,0-0.7-0.4c0-1.6,0.4-3.2,1.1-4.6c0-0.2,0.2-0.5-0.2-0.5c-2.3-0.1-4.7,0.3-6.8,1.3
	c-0.4,0.2-1.6,0.4-1.3,0.9c1.6,1.8,4,2.9,5,5.3v0.7c-0.4,0.5-1.1,0.6-1.6,0.4c-2.1-1.3-3.4-3.3-5.5-4c-2.9-1.1-6-1.1-8.9-0.2
	c-1.1,0.2-2.2,0.7-3,1.5c0,2.2,1.1,4.2,1.8,6.2C25.9,130.2,27,132.2,28.3,134.2L28.3,134.2z"/>
<path class="st2" d="M26.5,122.4c1.8-1.1,3.6-0.5,5.5-0.2c1.6,0.2,3.1,0.8,4.5,1.7c1.4,1,2.6,2.2,3.6,3.7c0.4,0.4,0.4,1.3-0.4,1.1
	c-1.3-0.4-2-1.7-3.2-2.4c-0.9-0.5-2-1.1-3-1.7c-1-0.4-2.1-0.6-3.2-0.7c-1.1-0.2-2.1,0.4-3.2,0c-0.4-0.2-0.7-0.4-0.7-0.5
	C26.3,123.2,25.9,122.6,26.5,122.4L26.5,122.4z"/>
<path class="st2" d="M73,106.3c3.2-0.9,6.1,1.3,7.2,4.2c0.2,0.5,0.2,0.9-0.4,1.1c0,0.2-0.2,0.2-0.4,0c-1.1-0.7-1.4-2-2.7-2.6
	c-1.1-0.7-2.5-0.9-3.8-0.5c-2.1,0.7-2.7,3.1-4.1,4.8c-0.2,0.4-1.1,0.5-1.1,0c0.1-2.4,1.4-4.7,3.4-6.1
	C71.7,106.8,72.3,106.5,73,106.3z"/>
<path class="st2" d="M90.3,101.2c1.4-0.7,3-1.7,4.7-1.1c0.4,0.2,0.6,0.7,0.4,1.1c-0.5,1.3-2.1,1.3-3.4,1.7c-1.2,0.6-2.3,1.3-3.4,2.2
	c-0.7,0.5-1.6-0.4-1.3-1.1C88,102.7,89.1,101.7,90.3,101.2L90.3,101.2z"/>
<path class="st1" d="M49.2,143.7c0,0-2.7-6.1-2-11.5c0.7-5.5,5-8.4,8.6-6.1s6.8,8.6,6.4,14.3c-1.4,1.8-3.5,2.7-5.7,2.6
	C52.5,142.7,50.1,142,49.2,143.7L49.2,143.7z"/>
<path class="st1" d="M70.3,137.7c-1.5-3.7-2-7.7-1.6-11.7c0.9-5.5,3.4-7,5.9-7s8.4,4.8,8.4,11.5v5.7C83,136.2,80.5,138.3,70.3,137.7
	z"/>
<path class="st2" d="M50.3,125c4.5-2.2,8.9,1.8,10.7,5.9c1.3,3.1,1.9,6.4,1.6,9.7c0,0.2-0.4,0.7-0.7,0.5c-0.9-1.5-0.5-3.1-0.9-4.6
	c-0.4-1.8-1-3.5-1.8-5.1c-0.6-1.7-1.7-3.1-3.2-4c-1.3-1.1-3-1.4-4.7-0.9c-2.1,0.7-3.2,3.1-3.4,5.5c-0.2,2.3,0,4.7,0.5,7
	c0.4,1.1,0.2,2.4,1.1,2.9c0.5,0.4,2,0,2-0.5c0.4-2.2-0.9-4.6,0.5-6.6c0.5-0.7,1.3-1.8,2-1.5c0.7,0.4,0.7,1.7,1.3,2.2
	c0.9-0.5,0.5-2,1.6-2.2c2.9,1.8,3.6,5.9,2.7,8.8c-0.2,0.4-1.3,0.2-1.1,0.4c2,2.9,3.8,5.5,4.3,9c0.1,0.6,0.6,1.1,1.3,1.1
	c1.6,0.3,3.3,0.2,4.8-0.4c-0.9-2.1-1.5-4.3-1.8-6.6c-0.2-1.8-0.2-3.6,0.2-5.3c0-0.1-0.1-0.2-0.2-0.2c0,0,0,0,0,0
	c-0.5,0.5-1,0.9-1.6,1.3c-0.4,0.2-1.3,0.2-1.3-0.5s0.9-0.9,1.4-1.3v-0.4c-0.7-0.7-1.6-0.2-2.3-0.7c-0.5-0.2-0.2-0.9,0.2-1.1
	c0.9,0,1.8,0,2.7,0.2c1.1,0.3,2.2,0.2,3.2-0.2c-0.1-1.3-0.5-2.5-1.1-3.7c-0.9-3.3-1-6.8-0.2-10.1c0.4-1.6,1.3-3,2.5-4
	c0.7-0.6,1.5-1.1,2.3-1.5c1-0.3,2.1-0.2,3,0.2c1.8,0.4,3.2,1.5,4.1,3.1c3.1,4.3,4.4,9.6,3.6,14.9c-0.1,0.5-0.5,0.8-1,0.7
	c0,0,0,0-0.1,0c-0.2,0-0.4-0.2-0.4-0.4c0.5-6.1-0.5-14.1-6.8-16.5c-1-0.3-2-0.2-2.9,0.4c-1.7,1.1-2.9,2.9-3,4.9
	c-0.3,1.3-0.4,2.6-0.2,3.9c0,0.7,0,1.4,0.2,2c0.5,1.8,0.5,3.9,1.6,5.3c0.2,0.2,0.4,0,0.5,0c0.3,0.1,0.5,0.5,0.4,0.9c0,0,0,0,0,0
	c-0.7,0.7-1.6,1.1-2.1,1.8c-0.4,0.7-0.8,1.4-0.9,2.2c-0.5,3.5-0.5,7.5,2,10.3c0.2,0.2,1.1-0.4,0.9-0.5c-1.6-4.2-3.2-10.3,0.7-13.3
	c-1.3-3.5-1.3-8.3,1.6-10.8c1.1,0.2,1.4,1.5,2,2.2c0.2,0.2,0.4,0.5,0.5,0.2c0.4-0.4,0.7-0.9,0.7-1.5c0-0.2,0.4-0.2,0.5,0
	c1.8,1.7,2,4.2,2.3,6.6c0,0.7,0,1.8-0.9,2.2c1.8,2,4,3.9,4.5,6.6c0.4,1.1,1.1,2.2,0.5,2.9c-1.6,2-4.3,2.7-5,5.3s-1.1,5.1-2.5,7.3
	c-0.3,0.7-0.7,1.2-1.3,1.7c-0.6,0.3-1.3,0.6-2,0.7c-4.5,0.7-6.3-3.5-8.9-6.1c-0.4-0.4-0.9-1.1-1.4-0.7c-0.5,0.4-0.4,1.7-1.4,1.5
	c-0.7-2.2-0.5-4.8-1.4-7c-1-2.5-2.8-4.6-5.2-5.9c-1.4-0.7-2.9,0-4.1,0.5c-2.1,1.1-3.4,3.1-5.2,4.8c-0.4,0.2-1.3,0-1.1-0.5
	c0.6-1.7,1.7-3.2,3-4.4c0.2-0.2,0.2-0.5,0-0.7c-1.4-3.6-2-7.5-1.6-11.3C46.7,128.9,47.8,126.1,50.3,125z"/>
<path class="st4" d="M76.2,138c-2-0.2-3.6,1.7-4.1,3.3c-0.7,2.9-0.3,6,1.1,8.6c0.2,0.2,0.4,0.5,0.5,0.4c3.5-0.3,6.7-2,8.9-4.8
	C81.9,142.2,79.8,138.2,76.2,138L76.2,138z"/>
<path class="st6" d="M67.8,154.5c-0.3,0-0.5,0.1-0.7,0.2c0.8,2.2,2.4,4,4.5,5c1.2,0.4,2.4,0.2,3.4-0.5c0.9-0.5,1.1-1.5,1.4-2.6
	c0.5-1.7,0.8-3.4,0.9-5.1c-1.2,0.1-2.4,0.6-3.4,1.3c-1.1,0.5-0.7,2.2-0.7,3.5c0,0.2-0.4,0.2-0.4,0.2c-0.7-0.4-1.1-1.1-2-1.5
	C69.9,154.6,68.8,154.5,67.8,154.5L67.8,154.5z"/>
<path class="st2" d="M73.4,144.6c0.7-0.2,1.3,0.4,2,0.9c0.6,0.3,0.9,1,0.7,1.7c0,0.4,0,0.7-0.5,0.9c-1,0.1-2-0.5-2.3-1.5
	C72.8,146.1,72.7,144.8,73.4,144.6L73.4,144.6z"/>
<path class="st2" d="M79.7,141.9c0.5-0.2,1.1,0,1.4,0.5c0.2,0.7,0.3,1.5,0.2,2.2c-0.4,0.7-1.1,1.7-1.8,1.1c-1-0.9-1.1-2.4-0.3-3.5
	C79.4,142.1,79.5,142,79.7,141.9L79.7,141.9z"/>
<path class="st4" d="M74.1,146.3c-0.2,0.2,0,0.5,0.4,0.7c0.4,0.2,0.4,0.2,0.5-0.2c0-0.2,0-0.4-0.2-0.5
	C74.6,146,74.1,145.8,74.1,146.3z"/>
<path class="st4" d="M79.8,143.3c-0.4,0-0.4,1.1,0,0.9S80.3,143.3,79.8,143.3z"/>
<path class="st1" d="M227.8,162.2c0,0.3-0.2,0.5-0.5,0.5s-0.5-0.2-0.5-0.5v-6.1c0-0.2,0.2-0.3,0.4-0.4h2.3c1.4,0,2.1,0.7,2.1,2
	c0,1.3-0.7,1.8-1.4,1.8l1.3,2.2c0.1,0.1,0.2,0.3,0.2,0.5c0,0.2-0.2,0.3-0.4,0.4c-0.2,0-0.4,0-0.5-0.4l-1.7-2.7h-1.3L227.8,162.2
	L227.8,162.2z M227.8,158.9h1.1c0.9,0,1.8,0,1.8-1.1s-0.7-1.1-1.4-1.1h-1.4L227.8,158.9L227.8,158.9z M229.1,153.4
	c3.2,0.1,5.7,2.7,5.7,5.9c0,3.2-2.6,5.8-5.8,5.8s-5.8-2.6-5.8-5.8C223.2,156,225.8,153.4,229.1,153.4
	C229.1,153.4,229.1,153.4,229.1,153.4L229.1,153.4z M229.1,164.1c2.7-0.1,4.7-2.4,4.6-5.1c-0.1-2.5-2.1-4.5-4.6-4.6
	c-2.7,0-4.9,2.2-4.9,4.9C224.2,161.9,226.4,164.1,229.1,164.1L229.1,164.1z"/>
</svg>
