<?xml version="1.0" encoding="utf-8"?>
<!-- Generator: Adobe Illustrator 21.1.0, SVG Export Plug-In . SVG Version: 6.00 Build 0)  -->
<svg version="1.1" id="Layer_1" xmlns="http://www.w3.org/2000/svg" xmlns:xlink="http://www.w3.org/1999/xlink" x="0px" y="0px"
	 viewBox="0 0 250 250" style="enable-background:new 0 0 250 250;" xml:space="preserve">
<title>CR</title>
<path d="M26.3,158H5v-66c0.8,0,1.6-0.1,2.3-0.1h45.9c5.5,0,8.7,3.2,8.7,8.7c0,9.4,0,18.8,0,28.3c0,5.4-3,8.4-8.4,8.4
	c-8.3,0-16.7,0-25.1,0c-1.7,0-2.2,0.4-2.1,2.1C26.4,145.6,26.3,151.7,26.3,158z M26.4,130.5c0.2,0.1,0.4,0.1,0.6,0.2h8.4
	c3.8,0,4.8-1,4.8-4.9c0-5.5,0-11,0-16.4c0-2.4,0-4.8,0-7.2c0.2-1.6-1-3.1-2.7-3.3c-3.7-0.2-7.4-0.1-11.2-0.1L26.4,130.5z"/>
<path d="M197,112.5h-7.1v-7.9h7.1v-7.5h21.7v7.4H245v7.9h-26.3c0,1.7,0,3.1,0,4.6c0,4.7,0,9.5,0,14.2c0,2.1,1,3.3,2.7,3.6
	c1.3,0.2,2.1-0.1,2.1-1.8c-0.1-3.6,0-7.2,0-10.8c0-0.7,0-1.4,0-2.3H245v22.7h-39.2c-5.7,0-8.7-3-8.7-8.8c0-6.3,0-12.6,0-18.8
	C197,114.2,197,113.5,197,112.5z"/>
<path d="M157.4,142.6H137c-5.6,0-8.6-2.9-8.6-8.5c0-6.6,0-13.2,0-19.9c0-5.6,3-8.6,8.7-8.6c11.2,0,22.5,0,33.7,0c2.5,0,4.9,0,7.4,0
	c5.2,0.1,8.1,3.2,8.1,8.3c0,6.9,0,13.8,0,20.7c0.3,4.1-2.8,7.7-6.9,8c-0.3,0-0.7,0-1,0C171.5,142.6,164.4,142.6,157.4,142.6z
	 M164.8,124.2L164.8,124.2c0-2.5,0-4.9,0-7.4c0-3.1-1.3-4.4-4.3-4.5c-2.2,0-4.4,0-6.7,0c-2-0.2-3.8,1.2-4,3.2c0,0.3,0,0.5,0,0.8
	c-0.1,5.1-0.1,10.3,0,15.4c-0.2,2,1.3,3.9,3.3,4.1c0.3,0,0.5,0,0.8,0c2.1,0,4.3,0,6.4,0c3,0,4.3-1.3,4.4-4.5
	C164.8,129,164.8,126.7,164.8,124.2L164.8,124.2z"/>
<path d="M120.3,142.4H99.2V94.3h2.8c5.5,0,11.1,0,16.6,0c1.1,0,1.9,0.1,1.9,1.6c0,15.2,0,30.5,0,45.7
	C120.5,141.9,120.4,142.1,120.3,142.4z"/>
<path d="M91,142.6h-8.7c-3.7,0-7.3,0-11,0c-1.3,0-1.8-0.3-1.8-1.7c0-11.2,0-22.4,0-33.6c0-1.3,0.5-1.7,1.8-1.7c6.1,0,12.1,0,18.2,0
	c1.1,0,1.7,0.3,1.7,1.6c0,11.5,0,23,0,34.4C91.2,141.9,91.1,142.2,91,142.6z"/>
<path d="M90.9,94.3c0.1,0.2,0.2,0.4,0.2,0.5c0.7,6.2,0.7,6.2-5.5,6.2c-4.7,0-9.3-0.1-14,0c-1.6,0-2-0.5-2-2.1c0-4.7-0.1-4.7,4.8-4.7
	H90.9z"/>
</svg>
