<?xml version="1.0" encoding="utf-8"?>
<!-- Generator: Adobe Illustrator 21.1.0, SVG Export Plug-In . SVG Version: 6.00 Build 0)  -->
<svg version="1.1" id="Layer_1" xmlns="http://www.w3.org/2000/svg" xmlns:xlink="http://www.w3.org/1999/xlink" x="0px" y="0px"
	 viewBox="0 0 250 250" style="enable-background:new 0 0 250 250;" xml:space="preserve">
<style type="text/css">
	.st0{fill:#A52A3C;}
	.st1{fill:#F4C74A;}
	.st2{fill:#30215A;}
</style>
<title>Logos</title>
<path class="st0" d="M152.3,161.8c-2.9,0-5.7,0-8.4,0c-0.2-0.1-0.5-0.2-0.6-0.5c-0.3-0.8-0.5-1.5-0.7-2.5l-0.6,0.5
	c-3.4,2.9-8,3.9-12.3,2.6c-3-0.7-5.1-3.5-4.9-6.6c0-0.4,0-0.7,0-1.4c-1.3,3.8-3.4,6.7-7.1,7.9c-3.6,1.4-7.6,0.4-10.1-2.5l-0.9,12.4
	h-9.4l2.6-36.3h8.7l-0.2,3.7c0.7-0.7,1.2-1.3,1.7-1.8c3.3-3.4,8.8-3.5,12.2-0.2c0.8,0.8,1.5,1.7,1.9,2.8c1.3,3.1,1.8,6.5,1.3,9.8
	c0,0.7-0.2,1.4-0.2,2.2c1.7-3.8,5.4-4.4,8.9-5.3c2.6-0.7,5.2-1.4,7.8-2.1c0.5-0.1,1.2-0.1,1.2-0.9c0-0.8,0-2-1.1-2.5
	c-2.4-1.1-5.3-0.2-6.7,2.1c-0.3,0.7-0.6,0.7-1.3,0.6c-2.4-0.3-4.8-0.6-7.2-0.9l-0.6-0.1c0.6-3.9,3.7-7,7.6-7.6c4-0.8,8.2-0.8,12.2,0
	c3.6,0.6,6.2,3.8,6,7.4c0,2.7-0.2,5.4-0.4,8c-0.1,1.9-0.3,3.8-0.4,5.7C151.4,158.2,151.6,160.1,152.3,161.8z M116.7,147.7
	c-0.2-1.2-0.4-2.4-0.8-3.5c-0.5-1.6-2.3-2.5-3.9-2c-0.3,0.1-0.6,0.3-0.9,0.4c-0.8,0.6-1.5,1.3-1.9,2.3c-0.9,2.1-1.1,4.4-0.7,6.6
	c0.2,1.4,1.2,2.7,2.6,3.1c1.8,0.6,3.8-0.4,4.4-2.2C116.1,150.8,116.4,149.2,116.7,147.7L116.7,147.7z M143.1,149.1
	c-1.9,0.6-3.5,1.1-5.1,1.6c-0.9,0.3-1.7,0.7-2.4,1.1c-1.1,0.7-1.5,2.1-1.1,3.3c0.4,1.2,1.5,1.9,2.7,1.7c2.4,0,4.6-1.6,5.3-3.9
	C142.7,151.7,142.9,150.4,143.1,149.1L143.1,149.1z"/>
<path class="st0" d="M226.2,135.3l3.7,17.2h0.2c0.1-0.2,0.2-0.5,0.3-0.7c1.7-5.2,3.5-10.5,5.2-15.7c0.1-0.5,0.6-0.9,1.1-0.8
	c2.7,0,5.5,0,8.3,0l-1,2.3c-3.6,8.6-7.1,17.2-10.7,25.9c-0.5,1.2-1.1,2.4-1.7,3.5c-1.5,3.4-5,5.5-8.7,5.3c-2.2,0-4.4-0.2-6.7-0.5
	c-0.3-0.1-0.4-0.3-0.5-0.6c0-2.1,0-4.2,0-6.2c0.9,0.2,1.8,0.4,2.9,0.5c2.5,0.7,5.1-0.8,5.8-3.3c0,0,0,0,0,0c0.1-0.3,0.1-0.6,0-1
	c-2.3-7.4-4.6-14.8-6.9-22.2c-0.1-0.1-0.1-0.3-0.2-0.4l-2.2,4.5l-1.1-0.4c-1.6-0.8-3.6-0.2-4.5,1.4c-0.1,0.1-0.1,0.2-0.2,0.3
	c-0.8,1.7-1.3,3.4-1.5,5.2c-0.4,3.4-0.6,6.9-0.9,10.4l-0.1,1.5h-9.3l1.9-26.3h8.7l-0.3,4c0.5-0.8,0.9-1.5,1.3-2.1
	c1.5-2.4,4.5-3.3,7.2-2.3c0.5,0.2,1,0.3,1.5,0.3C220.7,135.4,223.4,135.3,226.2,135.3z"/>
<path class="st0" d="M162.2,161.7h-9.3l1.9-26.3h8.7l-0.3,4.1l1-1.1c1.9-2.4,4.9-3.7,7.9-3.7c4.6,0,7.4,2.6,7.6,7.2
	c0.1,2.6-0.2,5.3-0.3,7.9c-0.1,2-0.3,4-0.4,6l-0.4,5.9h-9.3c0-1.1,0.1-2.2,0.2-3.3c0.3-3.5,0.5-7,0.8-10.6c0.1-0.8,0.1-1.6,0-2.4
	c0-1.6-1.3-2.9-3-2.9c-0.6,0-1.2,0.2-1.7,0.5c-1,0.6-1.6,1.5-1.8,2.6c-0.3,1.7-0.5,3.3-0.7,5c-0.3,3.5-0.5,6.9-0.7,10.4
	C162.3,161.3,162.3,161.5,162.2,161.7z"/>
<path class="st0" d="M194.2,125.5l-0.7,9.9h5.1l-0.5,7.4H193c-0.2,2.2-0.3,4.4-0.5,6.5c-0.1,1.4-0.2,2.9-0.2,4.3s0.7,1.9,2,1.7
	c0.9-0.1,1.7-0.3,2.7-0.6v6.9c-3.3,0.9-6.7,1-10,0.4c-2.3-0.6-3.9-2.6-3.9-4.9c-0.1-2.2,0-4.4,0-6.7c0.1-2.5,0.3-5,0.5-7.6h-3.4
	l0.5-7.5h3.4c0.1-1.5,0.2-2.9,0.4-4.3c0-0.3,0.2-0.5,0.4-0.7c3-1.5,6-3.2,8.9-4.8C194,125.5,194.1,125.5,194.2,125.5z"/>
<path class="st0" d="M109.1,116.4l-1,14.1H97.4l3-41.4h9.9l-0.2,4.2c0.7-0.8,1.3-1.4,1.9-2c2.7-2.8,6.8-3.8,10.5-2.6
	c2.2,0.7,4.1,2.2,5.1,4.3c1.5,2.7,2.3,5.8,2.2,8.9c0.2,3.8-0.5,7.6-2.2,11.1c-2.3,4.4-5.8,7.1-11,7c-2.6,0-5.1-1-6.8-2.9
	L109.1,116.4z M119.4,102.9h-0.2c0-0.6,0-1.3-0.1-1.9c0-2-1.4-3.7-3.4-4.2c-2.1-0.2-4,1-4.8,2.9c-0.1,0.1-0.1,0.3-0.2,0.4
	c-0.9,2.3-1.1,4.9-0.7,7.3c0.2,1.6,1.3,3,2.9,3.6c2.1,0.7,4.4-0.4,5.1-2.5C118.7,106.7,119.1,104.8,119.4,102.9z"/>
<path class="st0" d="M208.2,91.6l1-13.9h10.7l-3,41.4h-9.9l0.2-4.2c-0.7,0.7-1.2,1.3-1.8,1.9c-2.6,2.8-6.5,3.8-10.2,2.8
	c-2.4-0.6-4.5-2.2-5.6-4.4c-1.8-3.5-2.6-7.5-2.2-11.5c0.1-2.6,0.7-5.2,1.7-7.6c1.9-4.1,4.8-7,9.4-7.7c3.3-0.7,6.8,0.4,9,3
	c0.1,0.1,0.1,0.3,0.2,0.5L208.2,91.6z M197.9,105.3c0.2,1.2,0.4,2.4,0.8,3.5c0.6,1.9,2.7,3,4.6,2.4c0.4-0.1,0.8-0.4,1.2-0.6
	c0.9-0.7,1.6-1.6,2.1-2.7c0.8-2,1.1-4.3,0.8-6.4c-0.1-0.6-0.2-1.3-0.5-1.9c-0.5-1.6-1.9-2.6-3.6-2.7c-1.7-0.1-3.3,0.9-4,2.5
	C198.5,101.3,198,103.3,197.9,105.3L197.9,105.3z"/>
<path class="st0" d="M144.1,97.5c0.8-4.7,4.7-8.3,9.4-8.8c4.1-0.7,8.4-0.7,12.5,0c4.9,0.8,7.4,3.7,7.5,8.7c0,3-0.3,6-0.4,9.1
	c-0.1,2.4-0.4,4.8-0.4,7.2c0.1,1.8,0.3,3.7,0.5,5.5c-3,0-6.1,0-9.3,0c-0.3-0.1-0.5-0.2-0.6-0.5c-0.3-0.9-0.5-1.9-0.8-2.9l-0.7,0.6
	c-3.8,3.4-9.1,4.5-13.9,3.1c-4.1-1-6.2-4.9-5.5-9.3c0.4-3.3,2.7-6,5.8-6.9c3-0.9,6.1-1.5,9.1-2.4c1.8-0.5,3.5-1.1,5.3-1.7
	c0.5-0.1,0.7-0.5,0.7-1c0-2.1-0.9-3.1-3-3.1c-1,0-2.1,0.1-3.1,0.4c-1.3,0.4-2.4,1.4-2.8,2.7c-0.1,0.2-0.5,0.6-0.7,0.6
	C150.5,98.2,147.3,97.9,144.1,97.5z M163,104.7c-2.1,0.7-3.9,1.2-5.7,1.8c-1,0.3-2,0.8-2.9,1.3c-1.2,0.8-1.8,2.4-1.3,3.8
	c0.5,1.3,1.7,2.1,3.1,1.9c2.9,0,5.4-1.8,6.2-4.6C162.7,107.5,162.9,106.1,163,104.7L163,104.7z"/>
<path class="st0" d="M140.5,119.1h-10.6l2.9-41.4h10.6L140.5,119.1z"/>
<path class="st0" d="M187.4,89l-2.2,30.1h-10.6l2.2-30.1H187.4z"/>
<path class="st0" d="M177.1,85.3l0.5-7.6h10.6l-0.6,7.6H177.1z"/>
<rect x="5" y="90.5" class="st1" width="81.3" height="81.3"/>
<path class="st0" d="M86.3,105.8c0,0-35.3,23.6-81.3,0V90.5h81.3V105.8z"/>
<path class="st2" d="M5,156.5c0,0,35.3-23.6,81.3,0v15.3H5V156.5z"/>
</svg>
