<?xml version="1.0" encoding="utf-8"?>
<!-- Generator: Adobe Illustrator 21.1.0, SVG Export Plug-In . SVG Version: 6.00 Build 0)  -->
<svg version="1.1" id="Layer_1" xmlns="http://www.w3.org/2000/svg" xmlns:xlink="http://www.w3.org/1999/xlink" x="0px" y="0px"
	 viewBox="0 0 250 250" style="enable-background:new 0 0 250 250;" xml:space="preserve">
<style type="text/css">
	.st0{enable-background:new    ;}
	.st1{fill:#413A95;}
	.st2{fill:#039790;}
</style>
<title>Grocery</title>
<g class="st0">
	<path class="st1" d="M47.6,113.8c0-3.7-4.5-2.1-4.5-5.2c0-2,2.1-2.4,3.6-2.4c1.2,0,2.4,0.1,3.6,0.1c7,0,11.3-0.7,13.3-0.7
		c6.6,0,12.9,3.9,12.9,11.4c0,7.4-6.1,11.4-12.8,11.4c-1.5,0-2.9-0.3-4.2-0.3c-0.6,0-0.8,0.3-0.8,0.8v2.9c0.1,6.2,3.7,3.6,3.7,6.5
		c0,3.2-7,3.4-9.2,3.4c-2,0-9.2-0.1-9.2-3.3c0-2.7,3.5-1,3.5-5.1V113.8z M60.6,111.4c-1.9,0-1.8,0.6-1.8,1.6v7.5
		c0,1-0.4,2.2,2.2,2.2c3.2,0,4.5-2.5,4.5-5.5C65.4,114,63.8,111.4,60.6,111.4z"/>
	<path class="st1" d="M92.4,132.2c0,0.9,0,2.5,0.2,3.3c0.5,1.8,2.7,0.9,2.7,3c0,3.3-5.9,3.1-8,3.1c-2.2,0-9,0.2-9-3.3
		c0-1.7,2.1-1.1,2.7-2.9c0.6-2,0.6-8.3,0.6-10.7c0-1.9,0.1-5.7-0.3-7.9c-0.7-3.7-3.6-2.4-3.6-5.2c0-4.3,12.6-5.4,13.3-5.4
		c1.6,0,2,1.1,2,2.6c0,1.1-0.6,6.6-0.6,13.8V132.2z"/>
	<path class="st1" d="M110.4,130.4c0,2,0.1,5.1,2.8,5.1c3.5,0,3-4.7,3-7.1c0-1.6,0-3.8-0.2-5.4c-0.4-2.5-2.8-1.6-2.8-3.7
		c0-2.9,9.7-3.4,11.6-3.4c1.7,0,2.5,1,2.5,2.8c0,1.6-0.1,3.1-0.1,4.7v10c0,3,2.7,1.6,2.7,4c0,3.4-8.6,4.3-11.2,4.3
		c-3.7,0-1.3-3-3.2-3c-0.5,0-1.3,0.7-2.5,1.5c-1.2,0.7-2.7,1.5-4.8,1.5c-9.2,0-8.4-7.5-8.4-15c0-7.6-3.3-4.3-3.3-7.6
		c0-3.2,12.2-3.3,12.6-3.3c1.4,0,1.5,0.6,1.5,1.9V130.4z"/>
	<path class="st1" d="M133.7,127.2c0-3.2-0.6-4.1-1.1-4.5c-0.6-0.5-1.3-0.5-1.3-1.8c0-3.7,12-5.1,12.1-5.1c1.2,0,1.3,1.1,1.3,2.1
		c0,0.6-0.2,2.3,0.8,2.3c0.5,0,1.3-1.1,2.6-2.2c1.4-1.1,3.3-2.2,6.2-2.2c5.8,0,5.8,4.4,6.8,4.4c0.4,0,1.3-1.1,2.7-2.2
		c1.5-1.1,3.4-2.2,5.9-2.2c4.6,0,7.5,2.6,7.5,7.5v10.5c0,2.9,1.8,3.1,1.8,4.6c0,3.1-5.5,3.3-7.4,3.3c-1.6,0-7.2-0.3-7.2-2.9
		c0-1.8,1.7-1.8,1.7-4.7v-4.5c0-2.1,0.2-6.3-2.5-6.3c-2.7,0-2.5,3.4-2.5,5.2v3.1c0,6.1,1.7,5.1,1.7,6.9c0,3.1-5.8,3.1-7.6,3.1
		c-7.3,0-7.7-1.4-7.7-2.8c0-2.6,2.5-0.5,2.3-6.5v-2.8c0-1.8,0.2-6.3-2.5-6.3c-2.7,0-2.5,3.4-2.5,5.2v4c0,4.6,1.3,4.3,1.3,6.1
		c0,1.3-1.1,3-7.7,3c-1.9,0-7.6,0-7.6-2.6c0-2.2,2.9-1,2.9-7.3V127.2z"/>
	<path class="st1" d="M193.5,118c0,0.2,0,0.8,0.3,0.8c0.2,0,1-0.8,2.3-1.5c1.3-0.8,3-1.5,5.1-1.5c5.1,0,9.5,4.4,9.5,11
		c0,8.5-6.2,15.2-14.5,15.2c-6.1,0-9-3.2-9.7-3.2c-0.8,0-1.6,0.7-3.1,0.7c-0.7,0-1.5-0.2-1.5-1c0-0.8,1-2.4,1-8.9v-13.3
		c0-2.9-3.6-1.6-3.6-4.4c0-3.3,9.4-5.6,13.4-5.6c1.3,0,1.3,1,1.2,2.1L193.5,118z M196,123.3c-2.1,0-2.4,1.8-2.4,3.5
		c0,9.7,0.5,10.5,2.5,10.5c3.2,0,3.7-3.7,3.7-6.3C199.8,128.7,199.2,123.3,196,123.3z"/>
</g>
<g class="st0">
	<path class="st1" d="M215.7,118c0-1.8-3.7-2.1-3.7-6.7c0-3.3,2.3-5.8,5.6-5.8c3.5,0,5.8,3.2,5.8,6.6c0,5.8-5.3,13.6-8.6,13.6
		c-0.8,0-2.3-0.6-2.3-1.6C212.4,122.9,215.7,121.1,215.7,118z"/>
</g>
<g class="st0">
	<path class="st1" d="M234.8,116c0.9,0.1,1.6,0.3,2,0.3c0.5,0,0.9-0.1,1.3-0.3c0.4-0.1,0.9-0.3,1.3-0.3c2.2,0,4.5,4.6,4.5,6.6
		c0,1.3-1.1,2.3-2.4,2.3c-2.8,0-4.3-3.9-6.4-3.9c-0.9,0-1.7,0.7-1.7,1.7c0,3.2,10.7,3.8,10.7,11.5c0,4.7-4.4,7.9-9.4,7.9
		c-1,0-2.4-0.1-3.6-0.3c-1.2-0.1-2.3-0.3-2.6-0.3c-0.3,0-0.6,0.1-1,0.1c-0.3,0.1-0.6,0.1-0.9,0.1c-1,0-1.5-0.2-2.1-0.9
		c-1.2-1.4-2.4-4.2-2.4-6.1c0-1.3,0.4-2.3,1.8-2.3c2.1,0,4.1,4.9,6.8,4.9c1,0,1.9-0.5,1.9-1.6c0-2.9-9.5-3.3-9.5-11.5
		c0-5,4-8.1,9-8.1C232.9,115.7,233.9,115.8,234.8,116z"/>
</g>
<ellipse transform="matrix(0.9108 -0.4128 0.4128 0.9108 -53.7785 24.856)" class="st1" cx="30.6" cy="136.9" rx="7.4" ry="6"/>
<ellipse transform="matrix(0.9108 -0.4128 0.4128 0.9108 -48.0917 24.043)" class="st1" cx="31.6" cy="123.3" rx="7.4" ry="6"/>
<ellipse class="st1" cx="17.8" cy="129.6" rx="8" ry="6.3"/>
<path class="st2" d="M19,120.9c0,0-11.1-2.9-15-12.6C4,108.3,15.6,110.3,19,120.9z"/>
<path class="st2" d="M21.4,119.3c0,0-7.1-9-4.4-19.1C17,100.2,25.1,108.8,21.4,119.3z"/>
</svg>
