<?xml version="1.0" encoding="utf-8"?>
<!-- Generator: Adobe Illustrator 21.1.0, SVG Export Plug-In . SVG Version: 6.00 Build 0)  -->
<svg version="1.1" id="Layer_1" xmlns="http://www.w3.org/2000/svg" xmlns:xlink="http://www.w3.org/1999/xlink" x="0px" y="0px"
	 viewBox="0 0 250 250" style="enable-background:new 0 0 250 250;" xml:space="preserve">
<style type="text/css">
	.st0{fill:#CB293D;}
	.st1{fill:#053C75;}
</style>
<title>Grocery</title>
<path class="st0" d="M149.6,94.5c0.6,0.6,0.7,1.4,0.3,2.1c-1,2.2-1.8,4.4-2.5,6.7c-0.7,1.1-1.2,2.4-1.3,3.7
	c-0.7,1.4-1.2,2.8-1.5,4.3c-0.3,1-1,1.8-0.8,3c-0.2,0.3-0.3,0.6-0.5,0.9c-0.6,2-1.2,3.9-1.9,5.9l-0.6,1.7c-2.5,6.8-3.8,14-5.6,21
	c-0.6,2.1-1.1,4.3-1.3,6.5l-1,3.7c-1.6,0.9-3.3,1.6-5,2.1c-0.3,0.1-0.7,0.1-0.9,0.5h-1.4l-2.7-2.7c-1.2-1.2-2.3-2.6-3.3-4
	c-1.5-1.7-2.8-3.5-3.9-5.5c-1.2-1.6-1-3.9,0.5-5.3c0.4-0.4,1-0.8,1-1.5c0.7,0,1-0.6,1.5-0.9c1.8-1.3,2.5-1.2,4,0.5
	c0.2,0.2,0.3,0.3,0.5,0.5c0.8,1.1,1.7,2.2,2.8,3.1c0.4,0.6,0.8,1.3,1.6,1.2c0.7-0.1,0.8-1,1-1.7c2.1-7.8,4.1-15.6,6.2-23.4
	c0.9-3.3,1.9-6.7,3-9.9c0.6-1.2,1.1-2.4,1.4-3.7c1.6-4,5-6.1,8.5-8c0.3-0.2,0.9-0.2,1-0.7L149.6,94.5z"/>
<path class="st1" d="M138.9,103.2c-0.3,1.3-0.8,2.5-1.4,3.7H31.2c-4.8-0.1-9.5,1.4-13.3,4.4c-6.2,4.9-8.8,11.4-8.3,19.2
	c0.9,11.1,10.2,19.6,21.3,19.6h87.4c0.4,0,0.9,0.2,1.2-0.3c1,1.4,2.1,2.8,3.3,4c-0.5,0-1,0-1.5,0H31c-12.1,0.2-22.6-8.4-24.7-20.3
	C3.4,120,12,106.6,25.5,103.7c1.8-0.4,3.6-0.6,5.4-0.6h107.6L138.9,103.2z"/>
<path class="st1" d="M132.9,153.8l1-3.7h81.1c1,0,2,0,2.9-0.1c12.6-1.6,21.5-13.6,17.9-27.4c-2.5-9.6-10.9-15.6-21-15.6h-67.3h-1.4
	c0.2-1.3,0.6-2.6,1.3-3.7c22.7,0,45.3,0,67.9,0c12.1-0.2,22.4,8.4,24.6,20.3c3,16.3-8.2,28.8-22.1,30.2c-1.2,0.1-2.4,0.1-3.7,0.1
	h-80C133.7,153.9,133.3,153.9,132.9,153.8z"/>
<path class="st1" d="M143.8,114.1c5.1,0,10.2-0.3,15.2,0.2c7.9,0.7,8.7,8.5,5.8,12.7c-1.1,1.6-2.6,3-4.2,4.1c-0.3,0.2-0.8,0.4-0.5,1
	c2.3,4.3,5,8.3,8.2,12c0-1.7,0-3.1,0-4.5c0-8.1,0-16.2,0-24.2c0-0.9,0.2-1.2,1.2-1.2c1.9,0.1,3.7,0.1,5.6,0c1.1-0.1,1.3,0.4,1.3,1.3
	c-0.1,1.3,0,2.6,0,4.2c0.6-1.5,1.1-3,1.4-4.6c0-0.6,0.5-1,1.1-0.9c0,0,0.1,0,0.1,0c6.4,0,12.8,0,19.3,0c0.8,0,1.1,0.3,1.3,1
	c0.3,1.3,0.8,2.6,1.3,3.8c0-1.3,0-2.7,0-4c0-0.6,0.2-0.8,0.8-0.8c5.6,0,11.2,0,16.8,0c0.6,0,0.8,0.2,0.9,0.7
	c0.4,1.8,0.9,3.5,1.5,5.2c0.3,0.8,0,0.9-0.7,0.9c-3.3,0-6.7,0-10,0c-0.9,0-1.3,0.1-1.2,1.1c0.1,1-0.5,2.5,0.3,3.2
	c0.7,0.6,2,0.2,3.1,0.2h7.7c-0.6,2.2-1.1,4.2-1.7,6.3c-0.2,0.6-0.6,0.6-1.1,0.6c-2.5,0-5,0-7.5,0c-0.7,0-0.9,0.2-0.9,0.9
	c0.1,1.1,0.1,2.3,0,3.4c0,0.7,0.2,0.9,0.9,0.9c3.7,0,7.4,0,11.1,0c0.8,0,1,0.1,0.8,0.9c-0.5,1.7-1,3.5-1.4,5.3
	c-0.1,0.5-0.4,0.7-0.9,0.7c-5.9,0-11.7,0-17.6,0c-1,0-0.8-0.6-0.8-1.1c0-7,0-14,0-21c0-1.1-0.3-1.3-1.3-1.3c-1.9,0.1-3.8,0.1-5.7,0
	c-0.9,0-1.2,0.2-1.2,1.2c0,7,0,14,0,20.9c0,1.1-0.2,1.4-1.3,1.3c-1.9-0.1-3.7-0.1-5.6,0c-0.9,0-1.2-0.2-1.2-1.1c0-7,0-14,0-21
	c0-1.1-0.3-1.3-1.3-1.3c-2,0.1-4,0.1-5.9,0c-0.9,0-1.1,0.2-1.1,1.1c0,7.1,0,14.1,0,21.2c0,0.9-0.2,1.3-1.1,1.2c-1-0.2-1.8,0.1-2.6,0
	c-3.5-0.7-6,1.2-8.5,3.1c-2.2,1.7-2.2,1.7-3.9-0.4c-3.9-5-7.2-10.5-9.7-16.3c-0.3-0.7,0-0.9,0.4-1.2c1.8-1.2,3.5-2.5,5-4.1
	c0.6-0.6,1-1.4,1.2-2.3c0.3-0.9-0.2-1.8-1.1-2c-0.1,0-0.2,0-0.3-0.1c-0.8-0.1-1.6-0.2-2.3-0.2c-4,0-8,0-12,0c0.6-2,1.2-3.9,1.9-5.9
	C143.4,114.8,143.6,114.5,143.8,114.1z"/>
<path class="st1" d="M115.6,144.4c-2.9,0-5.8,0-8.7,0c-1.1,0-1.2-0.4-1.2-1.3c0-7.8,0-15.5,0-23.3c0-1.6,0-3.2,0-4.9
	c0-0.6,0.1-0.9,0.8-0.9c5.6,0,11.2,0,16.8,0c0.6,0,0.8,0.2,0.9,0.8c0.4,1.7,0.9,3.5,1.4,5.2c0.3,0.8,0,0.9-0.7,0.9
	c-3.4,0-6.8,0-10.2,0c-0.8,0-1.1,0.2-1,1c0.1,1.1-0.3,2.5,0.2,3.2s2.1,0.2,3.2,0.2c2.3,0,4.6,0,6.9,0c0.7,0,0.9,0.2,0.7,0.8
	c-0.5,1.8-1,3.6-1.5,5.3c-0.1,0.5-0.4,0.7-1,0.7c-2.5,0-5,0-7.5,0c-0.7,0-1.1,0.1-1,0.9c0.1,1.1,0.1,2.3,0,3.4
	c0,0.8,0.2,0.9,0.9,0.9s1.7,0,2.5,0c0,0.7-0.6,1-1,1.5C114.5,140.3,114.3,142.7,115.6,144.4z"/>
<path class="st1" d="M123,137.6h0.6c3.4,0,3.4,0,2.2,3.2C124.7,139.8,123.8,138.7,123,137.6z"/>
<path class="st1" d="M47.1,120.8c0.6-2.3,1.1-4.2,1.6-6.1c0-0.4,0.4-0.6,0.7-0.6c5.5,0.1,11-0.3,16.4,0.2c3.1,0.1,5.8,2.3,6.6,5.3
	c0.9,3.4-0.2,7-2.9,9.3c-0.8,0.8-1.7,1.5-2.7,2.1c-0.5,0.3-0.5,0.6-0.3,1.1c1.7,3.1,3.6,6.1,5.8,8.9c0.5,0.7,0.9,1.3,1.5,2
	c0.2,0.2,0.4,0.6,0.7,0.5c0.4-0.1,0.2-0.5,0.2-0.8c0-4.7,0-9.5,0-14.2c0-4.5,0-9,0-13.5c0-0.8,0.2-1.1,1.1-1.1c1.9,0,3.9,0.1,5.8,0
	c1.1,0,1.2,0.4,1.2,1.3c0,8.4,0,16.7,0,25.1c0,1.1,0,2.1,0,3.2c0,0.6-0.2,0.8-0.8,0.8c-1.9,0-3.8,0.1-5.7,0c-1.1,0-2.1,0.4-2.8,1.1
	c-1.4,1-2.8,1.9-4.2,3c-0.7,0.5-1.1,0.5-1.7-0.2c-3.2-3.9-6-8.2-8.3-12.7c-0.8-1.5-1.5-3-2.2-4.5c-0.1-0.2-0.2-0.3-0.3-0.5
	c-0.2,0.4-0.3,1-0.2,1.4c0,3.8,0,7.7,0,11.5c0,0.7-0.1,1-0.9,1c-2.1,0-4.2,0-6.3,0c-0.6,0-0.8-0.2-0.8-0.8c0-7,0-14,0-20.9
	c0-0.7,0.3-0.8,0.9-0.8c2.1,0,4.1,0,6.1,0c0.7,0,1,0.2,1,1c0,2.4,0,4.7,0,7.3c1.8-1.1,3.5-2.3,5-3.7c0.8-0.7,1.5-1.5,1.9-2.5
	c0.7-1.6,0.1-2.7-1.7-2.9c-0.7-0.1-1.3-0.1-2-0.1h-9c-1.1,0-2.5-0.4-3.4,0.1s-0.2,2-0.4,3.1c-0.6,2.9-2.2,5.5-4.4,7.4
	c-2.7,2.4-5.8,4.4-9.2,5.8c-0.6,0.2-1,0.8-0.9,1.5c0,1.6,0,3.2,0,4.7c0,0.7-0.2,0.9-0.9,0.9c-2.1,0-4.3,0-6.4,0
	c-0.6,0-0.8-0.2-0.8-0.8c0-7,0-14,0-20.9c0-0.7,0.2-0.8,0.9-0.8c2.1,0,4.2,0,6.3,0c0.8,0,0.9,0.3,0.9,0.9c0,2.3,0,4.5,0,7
	c2.2-1,4.1-2.6,5.6-4.5c0.7-0.8,1-1.9,0.6-3c-0.5-1.1-1.5-1.2-2.6-1.3c-4-0.2-8-0.1-12-0.1c-0.9,0-1.2-0.1-0.9-1.1
	c0.6-1.7,1-3.4,1.4-5.1c0.1-0.4,0.2-0.7,0.7-0.7c4.5,0.1,9-0.2,13.5,0.1C42.9,114.6,46,116.4,47.1,120.8z"/>
<path class="st1" d="M104.8,121.1c-2.5,0-4.9-0.1-7.2,0c-3.2,0.2-4.7,1.9-4.9,5.1c-0.4,5.9,4.1,10.9,10,11.3c0,0,0.1,0,0.1,0
	c2.3,0.1,2.3,0.1,1.7,2.4c-0.3,1.2-0.7,2.3-0.9,3.5c-0.2,0.8-0.5,1-1.3,1c-8.7,0.2-16.2-6-17.6-14.5c-0.5-2.4-0.5-4.8,0-7.2
	c0.8-4.5,4.5-7.9,9-8.4c2.8-0.2,5.6-0.3,8.4-0.2c0.4-0.1,0.7,0.2,0.8,0.5L104.8,121.1z"/>
<path class="st1" d="M142.1,133c0-3.4,0-6.8,0-10.2c0-0.8,0.2-1,1-1c2.1,0,4.2,0,6.3,0c0.6,0,0.8,0.1,0.8,0.8c0,7,0,13.9,0,20.9
	c0,0.7-0.2,0.9-0.8,0.9c-2,0-4.1,0-6.1,0c-0.8,0-1.1-0.2-1.1-1C142.1,139.9,142.1,136.5,142.1,133z"/>
<path class="st1" d="M241.4,156.8c-2.4,0-4.3-1.9-4.3-4.3s1.9-4.3,4.3-4.3c2.4,0,4.3,1.9,4.3,4.3c0,0,0,0,0,0
	C245.7,154.9,243.8,156.8,241.4,156.8z M241.4,149.2c-1.9,0-3.4,1.5-3.4,3.4c0,1.9,1.5,3.4,3.4,3.4c1.9,0,3.4-1.5,3.4-3.4
	S243.2,149.2,241.4,149.2C241.4,149.2,241.4,149.2,241.4,149.2z"/>
<path class="st1" d="M240,150.5c0.3-0.1,0.7-0.1,1.1-0.1c0.4,0,0.9,0.1,1.2,0.3c0.2,0.2,0.3,0.5,0.3,0.8c0,0.5-0.3,0.9-0.8,1.1l0,0
	c0.3,0.2,0.6,0.5,0.6,0.9c0.1,0.4,0.2,0.8,0.3,1.2h-0.6c-0.1-0.3-0.2-0.7-0.3-1c-0.1-0.6-0.3-0.8-0.9-0.8h-0.5v1.8H240L240,150.5z
	 M240.5,152.4h0.6c0.6,0,1-0.3,1-0.8s-0.4-0.8-1-0.8c-0.2,0-0.4,0-0.5,0V152.4z"/>
</svg>
