<?xml version="1.0" encoding="utf-8"?>
<!-- Generator: Adobe Illustrator 21.1.0, SVG Export Plug-In . SVG Version: 6.00 Build 0)  -->
<svg version="1.1" id="Layer_1" xmlns="http://www.w3.org/2000/svg" xmlns:xlink="http://www.w3.org/1999/xlink" x="0px" y="0px"
	 viewBox="0 0 250 250" style="enable-background:new 0 0 250 250;" xml:space="preserve">
<style type="text/css">
	.st0{fill:#EB1E26;}
	.st1{fill:#015AA9;}
	.st2{fill:#FDFEFE;}
</style>
<title>Grocery</title>
<path class="st0" d="M160.9,93.1l-9.2-1.3l-9.9-1.3c-3.1-0.4-6.2-0.8-9.3-1.2c-2.9-0.4-5.8-0.7-8.7-1.1c-2.8-0.3-5.7-0.7-8.5-0.9
	c-2.7-0.3-5.2-0.5-7.9-0.7c-3.9-0.4-7.8-0.5-11.7-0.5h-0.5c0.1,0.5,0.4,0.7,0.7,0.9c3.3,3.6,6,7.8,8,12.3c2.7,6.4,2.6,13.6-0.3,19.9
	c-3.3,8.2-8.9,14.2-17.3,17.3c-12.2,4.7-26,0.4-33.3-10.4c-2.8-3.8-4.7-8.1-5.5-12.8c-0.4-2.5-0.4-5,0-7.5c0.4-3.6,1.5-7,3.2-10.2
	c0.6-1,0.6-1,1.7-0.6l18.4,6.3c0.7,0.3,0.7,0.3,0.7-0.5c-0.2-4.8-0.5-9.7-0.7-14.5c0-0.6-0.2-0.8-0.8-0.7s-0.7-0.2-0.7-0.7
	c-0.1-2-0.2-4.1-0.3-6.1c0-0.5,0.1-0.8,0.7-0.8c0.5,0,0.6-0.2,0.6-0.7c-0.2-1.2-0.2-2.3-0.4-3.5c0-0.4,0.1-0.6,0.5-0.6l18.7,0.1
	c1.2,0,2.4,0,3.6,0c0.5,0,0.7,0,0.8,0.6c0.1,1.3,0.3,2.7,0.5,4c0,0.5,0.2,0.6,0.7,0.6c4.7,0,9.3,0.1,14,0.1c6.7,0,13.2,0,19.8,0.2
	c5.6,0.1,11.1,0.1,16.7,0.1c3.1,0,6.2,0.1,9.3,0.1c0.3,0,0.6,0.1,0.7,0.4c2,4.4,4,8.9,6,13.3C161,92.9,161,93,160.9,93.1z M90.6,123
	c-1.1,0.4-2.1,0.9-3.2,1.5c-0.4,0.2-0.8,0.2-1.1-0.1c-0.9-0.8-1.8-1.5-2.9-2.3c0.2,1.2,0.3,2.3,0.6,3.3c0.2,0.6,0,1.2-0.6,1.5
	c-0.9,0.6-1.8,1.3-2.8,2c1.2,0.2,2.3,0.4,3.3,0.6c0.5,0,1,0.4,1.1,0.9c0.3,1.1,0.7,2.1,1.1,3.3c0.5-1.1,1-2.1,1.4-3.1
	c0.1-0.4,0.6-0.7,1-0.6c1.2,0,2.3,0,3.6,0l-2-2c-1.1-1.1-1-1.1-0.5-2.4C90.1,124.6,90.4,123.8,90.6,123l0.1-0.1l0,0L90.6,123z
	 M51.4,100.8L51.4,100.8L51.4,100.8L51.4,100.8c0.3,1,0.7,2,1.1,2.9c0.2,0.3,0.1,0.8-0.2,1c-0.9,0.9-1.8,1.9-2.8,2.9
	c1.3,0,2.5,0,3.7,0c0.4-0.1,0.8,0.2,0.9,0.6c0.4,1.1,0.9,2.2,1.4,3.4c0.5-1.3,1-2.6,1.3-3.8c0.1-0.4,0.4-0.6,0.8-0.6
	c1.2,0,2.5-0.2,3.9-0.3c-1.1-0.8-2-1.6-3-2.2c-0.5-0.3-0.7-0.8-0.5-1.3c0.2-1,0.4-2,0.6-3.2c-0.9,0.6-1.7,1.1-2.4,1.7
	c-0.6,0.7-1.6,0.7-2.3,0.2C53.1,101.5,52.3,101.1,51.4,100.8z M82.4,78.3c-2.3,0-4.6,0-6.9,0c-0.7,0-0.7,0.2-0.7,0.8
	c0.3,4.7,0.5,9.3,0.8,14c0.2,3.1,0.4,6.3,0.5,9.3c0,0.3,0.2,0.6,0.6,0.7c3.8,1.3,7.6,2.6,11.3,3.9c0.6,0.2,0.7,0.1,0.7-0.5
	c0.2-4.2,0.4-8.3,0.6-12.5c0.2-5,0.5-10.1,0.7-15.1c0-0.5-0.1-0.6-0.6-0.6C87.1,78.3,84.7,78.3,82.4,78.3z M102.9,114.3
	c-1.3-0.1-2.5-0.3-3.7-0.3c-0.4,0-0.7-0.3-0.8-0.6c-0.4-1.2-0.9-2.3-1.3-3.7c-0.5,1.1-1,2-1.3,2.9c-0.2,0.7-0.8,1.1-1.5,1
	c-1-0.1-2.1,0-3.3,0c0.9,0.9,1.7,1.8,2.6,2.5c0.4,0.2,0.5,0.7,0.2,1.1c-0.5,1-0.8,2-1.3,3.2c1.3-0.6,2.4-1.1,3.5-1.6
	c0.3-0.2,0.8-0.2,1.1,0.1c0.9,0.7,1.7,1.5,2.8,2.3c-0.2-1.5-0.3-2.7-0.5-4c-0.1-0.4,0.1-0.8,0.4-0.9
	C100.7,115.7,101.7,115,102.9,114.3L102.9,114.3z M65.5,125.5c0.6,1,1.1,2,1.7,2.9c0.4,0.4,0.4,1.1,0,1.6c-0.6,0.8-1.1,1.7-1.7,2.6
	c1.3-0.2,2.5-0.4,3.6-0.6c0.3-0.1,0.7,0,0.9,0.4c0.7,0.9,1.5,1.9,2.3,2.9c0-1.3,0.2-2.6,0.2-3.8c-0.1-0.5,0.3-0.9,0.8-1c0,0,0,0,0,0
	c1.2-0.3,2.3-0.7,3.6-1.1c-1.3-0.5-2.4-1.1-3.5-1.5c-0.5-0.1-0.8-0.6-0.7-1c0-1.1-0.2-2.3-0.3-3.6c-0.9,1.1-1.6,2-2.3,2.9
	c-0.2,0.3-0.5,0.4-0.8,0.3C67.9,126.1,66.8,125.8,65.5,125.5L65.5,125.5z M92.7,95.5c0.4,1.2,0.7,2.3,1.2,3.3
	c0.3,0.5,0.1,1.1-0.3,1.5c-0.7,0.7-1.3,1.4-2.2,2.3c1.3,0,2.4,0,3.5,0c0.3,0,0.7,0.1,0.8,0.5c0.5,1,1,1.9,1.6,3
	c0.3-0.8,0.5-1.4,0.7-2c0.2-0.6,0.3-1.5,0.7-1.9s1.3-0.2,2-0.3l2.2-0.2c-1.1-0.8-2-1.6-2.9-2.3c-0.4-0.2-0.5-0.7-0.4-1.1
	c0.2-1.2,0.2-2.3,0.4-3.7c-1,0.9-1.9,1.7-2.7,2.5c-0.2,0.3-0.6,0.3-0.9,0.1C95.1,96.6,94,96.1,92.7,95.5z M56.1,125.7h0.3
	c0.7-0.9,1.4-1.7,2.1-2.7c0.2-0.4,0.7-0.5,1.1-0.3c1.1,0.4,2.3,0.7,3.6,1.1c-0.7-1.1-1.2-2.1-1.8-3.1c-0.3-0.3-0.3-0.8,0-1.1
	c0.7-0.9,1.3-1.9,2.1-3c-1.3,0.3-2.5,0.5-3.7,0.7c-0.4,0.1-0.8,0-1-0.4c-0.6-1-1.3-1.9-2-2.9c-0.1,1-0.2,2-0.3,2.9
	c0.1,0.8-0.5,1.6-1.3,1.7c-1.1,0.3-2.2,0.9-3.4,1.3c1.3,0.4,2.4,0.8,3.6,1.1c0.4,0.1,0.7,0.4,0.6,0.9c0,0,0,0,0,0
	C56.1,123.4,56.1,124.5,56.1,125.7z"/>
<path class="st1" d="M108.3,117.1c0-6.7,0-13.3,0-20c0-0.6,0.1-0.7,0.7-0.7c7,0,14.1-0.1,21.1,0c6.7-0.2,12.5,4.8,13.3,11.5
	c0.7,3.8,0.2,7.7-1.5,11.2c-1.7,3.6-5.3,6.1-9.3,6.4c-3,0.2-6,0.2-9,0.1c-0.7,0-0.8,0.2-0.8,0.8c0,3.6,0,7.3,0,10.9
	c0,0.5-0.1,0.7-0.7,0.7c-4.4,0-8.9,0-13.3,0c-0.5,0-0.7-0.1-0.7-0.7C108.3,130.5,108.3,123.8,108.3,117.1z M123.4,111
	c0,1.1,0,2.2,0,3.4c0,0.4,0.1,0.5,0.5,0.5c0.6,0,1.2,0,1.8,0c1.1,0,2.1-0.6,2.7-1.6c0.7-1.3,0.8-2.8,0.4-4.2c-0.3-1.2-1.3-2-2.5-1.9
	c-0.8,0-1.5,0-2.3,0c-0.4,0-0.5,0.1-0.5,0.5C123.4,108.8,123.3,109.9,123.4,111L123.4,111z"/>
<path class="st1" d="M157.3,167.3c0,3.4,0,6.8,0,10.1c0,0.6-0.2,0.7-0.7,0.7c-3.9,0-7.8,0-11.7,0c-0.6,0-0.7-0.2-0.7-0.7
	c0-12,0-24,0-36c0-0.5,0.1-0.7,0.7-0.7c3.9,0,7.8,0,11.7,0c0.7,0,1.1,0.2,1.3,0.9c0.2,0.7,0.4,0.8,1,0.4c7.2-4.8,17.2-1.5,19.6,8
	c1.3,4.6,0.9,9.4-1.2,13.7c-2,4.3-6.3,7.1-11.1,7.2c-3.3,0.4-6.6-1-8.7-3.5C157.5,167.4,157.4,167.3,157.3,167.3z M165.7,155.8
	c0.1-2.2-1.5-4.1-3.7-4.2c-0.1,0-0.3,0-0.4,0c-2.3,0-4.2,1.9-4.2,4.2c0,2.3,1.9,4.2,4.2,4.2c2.3,0,4.1-1.8,4.1-4.1
	C165.7,155.9,165.7,155.8,165.7,155.8z"/>
<path class="st1" d="M121.4,167.6c0,3.2,0,6.5,0,9.8c0,0.6-0.2,0.7-0.7,0.7c-3.9,0-7.8,0-11.7,0c-0.5,0-0.7-0.1-0.7-0.7
	c0-12,0-24,0-36c0-0.6,0.2-0.7,0.7-0.7c3.9,0,7.7,0,11.6,0c0.6-0.1,1.1,0.3,1.2,0.9c0,0,0,0,0,0c0.2,0.8,0.3,0.8,1,0.4
	c2.1-1.4,4.5-2.1,6.9-2.1c4.7-0.1,9.1,2.5,11.3,6.7c1.2,2.2,1.9,4.6,2,7.1c0.3,3.1-0.1,6.2-1.2,9.1c-1.8,4.8-6.4,8.1-11.5,8.2
	c-2.7,0.3-5.4-0.5-7.5-2.2C122.2,168.3,121.8,167.9,121.4,167.6z M129.6,155.7c0.1-2.3-1.7-4.3-4-4.4c0,0-0.1,0-0.1,0
	c-2.4,0-4.4,1.9-4.4,4.3c0,2.4,1.9,4.4,4.3,4.4C127.7,160,129.6,158.1,129.6,155.7L129.6,155.7z"/>
<path class="st1" d="M51.8,142.9c1.1-0.5,2.1-1.1,3.1-1.5c3.4-1.7,7.4-1.9,10.9-0.6c2.8,1,4.8,3.6,5.1,6.6c0.1,0.9,0.2,1.7,0.1,2.6
	c0,6.4,0,12.8,0,19.2c0,0.6-0.1,0.7-0.7,0.7c-4,0-8.1,0-12.1,0c-0.6,0-0.7-0.2-0.7-0.7c0-5.2,0-10.4,0-15.6c0-1.6-0.6-2.7-1.8-2.9
	c-1.4-0.4-2.9,0.1-3.8,1.3c-0.4,0.7-0.7,1.5-0.6,2.3c0,4.9,0,9.9,0,14.8c0,0.6-0.1,0.8-0.7,0.7c-3.9,0-7.8,0-11.7,0
	c-0.5,0-0.7-0.1-0.7-0.7c0-13.2,0-26.4,0-39.5c0-0.5,0.1-0.7,0.7-0.7c4.1,0,8.1,0,12.2,0c0.6,0,0.7,0.2,0.7,0.7c0,4.1,0,8.2,0,12.4
	L51.8,142.9z"/>
<path class="st1" d="M36.1,155.1c0,1.7,0,3.2,0,4.7c0,2.8,0,5.6,0,8.3c0.1,0.5-0.2,0.9-0.7,1c-2.9,1.3-6.2,1.8-9.3,1.4
	c-4.7-0.3-9.2-2-12.9-4.9c-4.3-3.2-7.1-8-7.7-13.3c-1.2-9.4,2.3-16.9,10.1-22.3c3.7-2.4,8-3.6,12.4-3.3c2.8,0,5.6,0.6,8.1,1.7
	c0.4,0.1,0.6,0.6,0.6,1c0,4.1,0,8.1,0,12.3c-1.1-0.5-2.3-0.9-3.5-1.2c-2.7-0.7-5.5-0.5-8.1,0.4c-2.7,1.1-4.5,3.5-4.8,6.4
	c-0.4,2.1,0,4.3,1.2,6.1c1.4,2.1,3.7,3.4,6.2,3.6C30.7,157.6,33.7,156.8,36.1,155.1z"/>
<path class="st1" d="M72.2,155.5c0.1-4.6,2.4-8.9,6.1-11.6c4-3.1,9-4.5,14-3.7c4.3,0.4,8.2,2.3,11.1,5.5c2.8,3.2,4.1,7.4,3.6,11.6
	c-0.8,7-6.1,12.6-13,13.8c-5.7,1.4-11.8,0-16.3-3.9C74.2,164.3,72.1,160,72.2,155.5z M89.4,160.6c0.3,0,0.6,0,0.9-0.1
	c2.4-0.7,3.9-3,3.6-5.5c-0.1-1.9-1.5-3.5-3.3-3.9c-2-0.4-4.1,0.7-4.8,2.7c-0.4,1-0.5,2-0.4,3.1C85.7,159,87.4,160.6,89.4,160.6
	L89.4,160.6z"/>
<path class="st1" d="M213.9,161.4c-0.3,1.5-1,2.8-2,4c-2.4,2.8-5.6,4.7-9.2,5.5c-4.7,1.3-9.8,1-14.3-1.1c-4.6-2.1-7.6-6.4-8.1-11.4
	c-0.7-4.5,0.6-9.1,3.6-12.5c2.9-3.3,7-5.4,11.3-5.8c3.7-0.6,7.5-0.1,10.9,1.5c4.6,2.1,7.8,6.3,8.5,11.3c0.3,1.6,0.3,3.1,0,4.7
	c-0.1,0.6-0.3,0.8-0.9,0.8c-6.4,0-12.7,0-19.1,0c-1,0-1,0-0.9,1c0,0.5,0.1,1,0.3,1.5c0.3,1.2,1.3,2,2.5,2.1c1.2,0.1,2.4,0,3.4-0.5
	c0.2-0.1,0.6-0.2,0.7-0.4c0.4-0.8,1.2-0.7,1.9-0.7L213.9,161.4L213.9,161.4z M197.6,152.4h2.6c1.4,0,1.4,0,1-1.3
	c-0.4-1.3-1.1-2.6-2.6-2.8c-2.8-0.4-4.5,0.8-4.7,3.6c0,0.4,0,0.6,0.5,0.6C195.4,152.3,196.5,152.4,197.6,152.4L197.6,152.4z"/>
<path class="st1" d="M231,126.2c-3.2,0-6.5,0-9.7,0c-0.7,0-0.8,0.3-0.7,0.8c0.1,0.6,0.2,1.3,0.4,1.9c0.8,1.6,2.6,2.4,4.3,1.9
	c1,0,2-0.5,2.7-1.3c0.1-0.2,0.3-0.1,0.5-0.1h11.7c0.5,0,0.6,0.1,0.4,0.6c-0.8,2.5-2.4,4.6-4.5,6c-3.3,2.3-7.2,3.6-11.3,3.7
	c-5.1,0.2-9.9-1.1-13.6-4.8c-2.6-2.6-4.1-6.2-4.2-9.9c-0.4-6.7,3.5-12.8,9.7-15.3c3.3-1.4,6.9-1.9,10.5-1.5c3.2,0.2,6.3,1.4,8.8,3.3
	c3.8,3,5.9,7.8,5.6,12.6c-0.1,2.2,0,2.2-2.2,2.2L231,126.2z M224.5,120.4c0.6,0,1.3,0,1.9,0c0.6,0,1.5,0.3,1.7-0.1
	c0.2-0.4-0.1-1.4-0.4-2.1l-0.1-0.3c-0.7-1.6-2.4-2.3-4-1.7c-1.7,0.5-2.8,2-3,3.8c-0.1,0.5,0,0.5,0.4,0.5L224.5,120.4z"/>
<path class="st1" d="M206.2,119.3c-1.9-0.7-3.9-0.9-5.9-0.5c-1.9,0.4-3.4,1.8-3.8,3.7c-0.6,1.8,0,3.7,1.3,4.9c2.3,1.9,5.5,2.1,8,0.5
	l0.7-0.4c0.1,2.9,0.2,5.8,0.3,8.6c0,0.5-0.3,0.6-0.6,0.8c-1.9,1.4-4.1,2.2-6.4,2.5c-8.2,0.6-15.5-5.1-16.9-13.2
	c-0.9-5.1,1.2-10.3,5.3-13.4c4.5-3.9,10.7-5.2,16.4-3.4c0.5,0.1,0.9,0.4,1.3,0.5c0.7,0.1,1.2,0.7,1.1,1.4c0,0.1,0,0.1,0,0.2
	c-0.3,2.4-0.5,4.8-0.8,7.2C206.3,119,206.3,119.1,206.2,119.3z"/>
<path class="st1" d="M216.3,155.5c0-4.5,0-9,0-13.4c0-0.5,0.1-0.7,0.7-0.7c4,0,7.9,0,11.9,0c0.5,0,0.7,0.1,0.8,0.7s0.1,1.3,0.2,2
	c0,0.2,0,0.4,0.2,0.4s0.3,0,0.4-0.2c0.5-0.6,1-1.1,1.5-1.6c1.6-1.1,3.4-1.7,5.3-1.7c0.6,0,1.1,0,1.7,0c0.3,0,0.5,0,0.5,0.5
	c0,3.4,0,6.8,0,10.1c0,0.5-0.3,0.5-0.6,0.5c-1.3,0-2.6,0.1-3.8,0.3c-2.8,0.5-4.9,2.7-5.1,5.5c-0.3,2.8-0.3,5.5-0.3,8.3c0,1,0,2,0,3
	c0,0.4,0,0.5-0.5,0.5c-4.2,0-8.4,0-12.6,0c-0.5,0-0.5-0.3-0.5-0.6C216.3,164.5,216.3,160,216.3,155.5z"/>
<path class="st1" d="M144.4,123.5c0-4.5,0-9.1,0-13.6c0-0.6,0.1-0.8,0.7-0.7c4,0,8,0,12.1,0c0.7,0,0.8,0.3,0.9,0.8
	c0,0.5,0.1,1.4,0.2,2.1c0,0.5,0.2,0.5,0.6,0.3c0.4-0.2,0.7-0.4,1-0.7c1.6-1.6,3.8-2.5,6-2.5c0.4,0,0.5,0.1,0.5,0.5
	c0,3.4,0,6.8,0,10.1c0,0.4-0.2,0.5-0.5,0.5c-1-0.1-2,0-2.9,0.3c-2.5,0.7-4.4,2.9-4.6,5.5c-0.2,1.4-0.3,2.8-0.3,4.1c0,2.3,0,4.7,0,7
	c0,0.5-0.1,0.7-0.7,0.7c-4.1,0-8.1,0-12.2,0c-0.5,0-0.7-0.1-0.7-0.7C144.4,132.6,144.4,128,144.4,123.5z"/>
<path class="st1" d="M167.6,123.5c0-4.5,0-9,0-13.5c0-0.6,0.1-0.9,0.8-0.9c4.1,0,8.3,0,12.4,0c0.6,0,0.7,0.2,0.7,0.7
	c0,9.1,0,18.2,0,27.3c0,0.6-0.2,0.7-0.8,0.7c-4.1,0-8.3,0-12.4,0c-0.6,0-0.8-0.1-0.8-0.7C167.6,132.6,167.6,128,167.6,123.5z"/>
<path class="st2" d="M82.4,78.3c2.3,0,4.6,0,7,0c0.5,0,0.7,0.1,0.6,0.6c-0.2,5-0.5,10.1-0.7,15.1c-0.2,4.2-0.4,8.3-0.6,12.5
	c0,0.6-0.1,0.7-0.7,0.5c-3.8-1.3-7.5-2.6-11.3-3.9c-0.3-0.1-0.6-0.3-0.6-0.7c-0.2-3.1-0.3-6.3-0.5-9.3c-0.3-4.7-0.5-9.3-0.8-14
	c0-0.5,0-0.8,0.7-0.8C77.8,78.3,80.1,78.3,82.4,78.3z"/>
<path class="st2" d="M51.4,100.8c0.9,0.3,1.7,0.8,2.5,1.3c0.7,0.6,1.7,0.5,2.3-0.2c0.7-0.6,1.5-1.1,2.4-1.7
	c-0.2,1.1-0.3,2.2-0.6,3.2c-0.2,0.5,0,1.1,0.5,1.3c1,0.6,1.9,1.4,3,2.2c-1.3,0.1-2.7,0.2-3.9,0.3c-0.4,0-0.7,0.2-0.8,0.6
	c-0.4,1.2-0.9,2.4-1.3,3.8c-0.5-1.2-1-2.3-1.4-3.4c-0.1-0.4-0.5-0.7-0.9-0.6c-1.2,0-2.4,0-3.7,0c1-1.1,1.9-2,2.8-2.9
	c0.3-0.2,0.4-0.7,0.2-1C52.1,102.8,51.7,101.8,51.4,100.8L51.4,100.8z"/>
<path class="st2" d="M102.9,114.2c-1.2,0.8-2.2,1.4-3.2,2c-0.4,0.2-0.5,0.6-0.4,0.9c0.2,1.3,0.3,2.5,0.5,4c-1-0.8-1.9-1.5-2.8-2.3
	c-0.3-0.3-0.7-0.4-1.1-0.1c-1.1,0.6-2.2,1-3.5,1.6c0.5-1.1,0.8-2.2,1.3-3.2c0.2-0.4,0.1-0.9-0.2-1.1c-0.8-0.8-1.6-1.6-2.6-2.5
	c1.3,0,2.3-0.1,3.3,0c0.7,0.1,1.4-0.3,1.5-1c0.4-0.9,0.8-1.9,1.3-2.9c0.5,1.3,0.9,2.5,1.3,3.7c0.1,0.4,0.4,0.7,0.8,0.6
	C100.4,114,101.6,114.1,102.9,114.2z"/>
<path class="st2" d="M90.6,123c-0.2,0.8-0.5,1.7-0.9,2.4c-0.6,1.3-0.6,1.3,0.5,2.4l2,2c-1.2,0-2.4,0-3.6,0c-0.5-0.1-0.9,0.2-1,0.6
	c-0.4,1-0.9,1.9-1.4,3.1c-0.4-1.2-0.8-2.2-1.1-3.3c-0.1-0.5-0.5-0.9-1.1-0.9c-1.1-0.1-2.1-0.4-3.3-0.6c1-0.7,1.8-1.4,2.8-2
	c0.5-0.3,0.8-0.9,0.6-1.5c-0.2-1-0.4-2.1-0.6-3.3c1,0.8,2,1.6,2.9,2.3c0.3,0.3,0.8,0.4,1.1,0.1C88.5,124,89.5,123.5,90.6,123
	L90.6,123z"/>
<path class="st2" d="M65.5,125.5c1.3,0.3,2.4,0.6,3.6,0.9c0.3,0.1,0.6,0,0.8-0.3c0.7-0.9,1.5-1.9,2.3-2.9c0.1,1.3,0.2,2.4,0.3,3.6
	c0,0.5,0.3,0.9,0.7,1c1.1,0.5,2.3,1,3.5,1.5c-1.3,0.4-2.4,0.8-3.6,1.1c-0.5,0.1-0.8,0.5-0.8,1c0,0,0,0,0,0c0,1.2-0.1,2.4-0.2,3.8
	c-0.8-1.1-1.6-2-2.3-2.9c-0.2-0.3-0.5-0.5-0.9-0.4c-1.2,0.3-2.3,0.4-3.6,0.6c0.6-0.9,1.1-1.8,1.7-2.6c0.4-0.4,0.4-1.1,0-1.6
	C66.6,127.5,66.1,126.6,65.5,125.5z"/>
<path class="st2" d="M92.7,95.5c1.3,0.6,2.4,1.1,3.5,1.6c0.3,0.2,0.7,0.1,0.9-0.1c0.8-0.8,1.7-1.6,2.7-2.5c-0.1,1.3-0.2,2.5-0.4,3.7
	c-0.1,0.4,0.1,0.9,0.4,1.1c0.9,0.7,1.8,1.4,2.9,2.3l-2.2,0.2c-0.7,0.1-1.6-0.1-2,0.3c-0.5,0.4-0.5,1.2-0.7,1.9s-0.4,1.3-0.7,2
	c-0.6-1.1-1.1-2-1.6-3c-0.1-0.3-0.4-0.5-0.8-0.5c-1.1,0-2.2,0-3.5,0c0.8-0.8,1.5-1.6,2.2-2.3c0.5-0.3,0.6-1,0.3-1.5
	C93.4,97.7,93.1,96.7,92.7,95.5z"/>
<path class="st2" d="M56.1,125.7c0-1.2,0-2.3,0-3.5c0.1-0.4-0.2-0.8-0.6-0.9c0,0,0,0,0,0c-1.1-0.3-2.3-0.7-3.6-1.1
	c1.2-0.5,2.3-1,3.4-1.3c0.8-0.1,1.4-0.9,1.3-1.7c0-1,0.1-2,0.3-3c0.7,1.1,1.3,2,2,2.9c0.2,0.4,0.6,0.6,1,0.4
	c1.2-0.3,2.4-0.5,3.7-0.7c-0.8,1.1-1.4,2-2.1,3c-0.3,0.3-0.3,0.8,0,1.1c0.6,0.9,1.1,1.9,1.8,3.1c-1.3-0.4-2.4-0.7-3.6-1.1
	c-0.4-0.2-0.9-0.1-1.1,0.3c-0.7,0.9-1.3,1.8-2.1,2.7L56.1,125.7z"/>
<path class="st2" d="M51.4,100.8L51.4,100.8L51.4,100.8L51.4,100.8L51.4,100.8z"/>
<path class="st2" d="M90.6,123L90.6,123L90.6,123L90.6,123L90.6,123z"/>
<path class="st1" d="M239.8,172.3c-3,0-5.5-2.5-5.5-5.5s2.5-5.5,5.5-5.5s5.5,2.5,5.5,5.5l0,0C245.3,169.8,242.8,172.3,239.8,172.3z
	 M239.8,161.9c-2.7,0-4.8,2.1-4.8,4.8s2.1,4.8,4.8,4.8s4.8-2.1,4.8-4.8C244.6,164.1,242.4,161.9,239.8,161.9L239.8,161.9z"/>
<path class="st1" d="M237.1,169.7v-5.9h2.5c0.5,0,0.9,0,1.3,0.2c0.3,0.1,0.5,0.3,0.7,0.6c0.2,0.3,0.3,0.6,0.3,0.9
	c0,0.4-0.1,0.8-0.4,1.1c-0.3,0.3-0.7,0.5-1.2,0.5c0.2,0.1,0.5,0.3,0.6,0.5c0.3,0.3,0.5,0.6,0.7,1l0.7,1.1h-1.4l-0.9-1.3
	c-0.2-0.3-0.4-0.6-0.6-0.9c-0.1-0.1-0.2-0.2-0.4-0.2c-0.2,0-0.4,0-0.6,0h-0.2v2.5L237.1,169.7z M238.3,166.3h0.9
	c0.4,0,0.7,0,1.1-0.1c0.1,0,0.3-0.1,0.3-0.3c0.1-0.1,0.1-0.3,0.1-0.4c0-0.2,0-0.3-0.2-0.5c-0.1-0.1-0.3-0.2-0.5-0.2h-1.8
	L238.3,166.3z"/>
</svg>
