<?xml version="1.0" encoding="utf-8"?>
<!-- Generator: Adobe Illustrator 21.1.0, SVG Export Plug-In . SVG Version: 6.00 Build 0)  -->
<svg version="1.1" id="Layer_1" xmlns="http://www.w3.org/2000/svg" xmlns:xlink="http://www.w3.org/1999/xlink" x="0px" y="0px"
	 viewBox="0 0 250 250" style="enable-background:new 0 0 250 250;" xml:space="preserve">
<style type="text/css">
	.st0{fill:#3E902D;}
</style>
<title>Grocery</title>
<path class="st0" d="M13.6,145H9.5c-1.3,0-2.5,0-3.8,0c-0.4,0-0.6-0.1-0.5-0.6c0-0.1,0-0.1,0-0.2c0-9.8,0-19.6,0-29.3
	c-0.1-3.6,1-7.1,3-10.1c2.8-4.2,7.3-7.1,12.3-7.8c10.1-1.7,19.6,5.1,21.2,15.2c1.7,10.1-5.1,19.6-15.2,21.2
	c-4.3,0.7-8.7-0.1-12.4-2.3l-0.2-0.1h-0.3L13.6,145z M23.6,105.3c-5.4,0-9.8,4.4-9.8,9.8c0,5.4,4.4,9.8,9.8,9.8
	c5.4,0,9.8-4.4,9.8-9.8C33.4,109.7,29,105.3,23.6,105.3z"/>
<path class="st0" d="M101.5,98h8.3v14.7c0.3-0.2,0.6-0.3,0.8-0.5c2.4-1.6,5.1-2.6,8-2.9c3.6-0.3,7.3,0.5,10.4,2.3
	c5,2.7,8.4,7.6,9.2,13.2c1.6,9.6-4.5,18.8-14,20.9c-10.2,2.1-20.2-4.5-22.3-14.7c-0.3-1.3-0.4-2.6-0.4-4c0-9.5,0-18.9,0-28.4
	C101.4,98.4,101.5,98.3,101.5,98z M119.9,117.9c-5.4,0-9.8,4.4-9.8,9.8c0,5.4,4.4,9.8,9.8,9.8c5.4,0,9.8-4.4,9.8-9.8
	c0,0,0-0.1,0-0.1C129.7,122.2,125.3,117.9,119.9,117.9C119.9,117.9,119.9,117.9,119.9,117.9L119.9,117.9z"/>
<path class="st0" d="M86.8,110.1c0,0.4,0,0.6,0,0.9c0,6.3,0,12.6,0,18.9c0.1,7.8-5.6,14.4-13.2,15.6c-8.2,1.3-16-4.1-17.6-12.3
	c-0.2-1.3-0.4-2.6-0.4-3.9c0-6.1,0-12.3,0-18.4c0-0.3,0-0.5,0-0.8c0.3,0,0.5,0,0.7,0c2.2,0,4.4,0,6.5,0c0.6,0,0.7,0.2,0.7,0.7
	c0,5.4-0.1,10.9-0.1,16.3c-0.1,1.7,0.1,3.3,0.4,5c1,4.1,5.1,6.6,9.2,5.5c2.2-0.5,4-2,5-4.1c0.5-1.1,0.7-2.2,0.7-3.4
	c0-6.4,0-12.8,0-19.1c0-0.9,0-0.9,0.9-0.9L86.8,110.1L86.8,110.1z"/>
<path class="st0" d="M201.6,110.2c3,0,5.8,0,8.7,0c0.3,0.1,0.5,0.2,0.6,0.4c1.6,2.7,3.2,5.3,4.7,7.9c0.1,0.2,0.3,0.4,0.4,0.7
	c0.2-0.3,0.3-0.5,0.4-0.7c1.3-2.6,2.6-5.1,3.9-7.7c0.1-0.4,0.5-0.7,1-0.6c2.6,0,5.1,0,7.7,0h0.7c-0.1,0.3-0.2,0.5-0.3,0.7
	c-2.7,5.3-5.3,10.7-8,16c-0.3,0.4-0.3,0.9,0,1.2c3.3,5.4,6.5,10.8,9.7,16.2l0.4,0.7h-0.7c-2.4,0-4.9,0-7.3,0c-0.4,0-0.8-0.2-1-0.6
	c-1.7-2.7-3.3-5.5-5-8.2l-0.5-0.8c-0.2,0.3-0.3,0.5-0.4,0.7c-1.4,2.7-2.9,5.5-4.3,8.2c-0.2,0.5-0.7,0.8-1.2,0.7c-2.6,0-5.2,0-7.9,0
	c0.1-0.3,0.2-0.5,0.3-0.7c2.7-5.4,5.5-10.8,8.2-16.2c0.3-0.5,0.3-1.1,0-1.6c-3.2-5.2-6.4-10.5-9.6-15.7L201.6,110.2z"/>
<path class="st0" d="M161.8,144.9h-8.3V98.1h8.3V144.9z"/>
<path class="st0" d="M179.2,145v-34.7c0.2,0,0.4,0,0.6,0c2.3,0,4.7,0,7,0c0.6,0,0.7,0.2,0.7,0.7c0,11.1,0,22.2,0,33.3
	c0,0.6-0.2,0.7-0.7,0.7c-2.3,0-4.6,0-6.9,0L179.2,145z"/>
<path class="st0" d="M178.6,101.2c0.1-2.9,2.5-5.1,5.4-5c2.7,0.1,4.8,2.2,5,4.9c0.2,2.9-2,5.3-4.9,5.5c-2.9,0.2-5.3-2-5.5-4.9
	C178.6,101.5,178.6,101.3,178.6,101.2z"/>
<path class="st0" d="M241.6,145.1c-2,0-3.5-1.6-3.5-3.5c0-2,1.6-3.5,3.5-3.5c2,0,3.5,1.6,3.5,3.5
	C245.2,143.5,243.6,145.1,241.6,145.1L241.6,145.1z M241.6,138.5c-1.7,0-3.1,1.4-3.1,3.1s1.4,3.1,3.1,3.1c1.7,0,3.1-1.4,3.1-3.1l0,0
	C244.7,139.9,243.3,138.5,241.6,138.5L241.6,138.5z"/>
<path class="st0" d="M239.9,143.5v-3.8h1.6c0.3,0,0.6,0,0.9,0.1c0.2,0.1,0.3,0.2,0.4,0.4c0.1,0.2,0.2,0.4,0.2,0.6
	c0,0.3-0.1,0.5-0.3,0.7c-0.2,0.2-0.5,0.3-0.7,0.3c0.2,0.1,0.3,0.2,0.4,0.3c0.2,0.2,0.3,0.4,0.4,0.6l0.5,0.7h-0.9l-0.5-0.8
	c-0.1-0.2-0.3-0.4-0.4-0.5c-0.1-0.1-0.1-0.1-0.2-0.2c-0.1,0-0.3,0-0.4,0h-0.2v1.6L239.9,143.5z M240.7,141.3h0.6c0.2,0,0.5,0,0.7,0
	c0.1,0,0.2-0.1,0.2-0.2c0.1-0.1,0.1-0.2,0.1-0.3c0-0.1,0-0.2-0.1-0.3c-0.1-0.1-0.2-0.1-0.3-0.1h-1.1L240.7,141.3z"/>
</svg>
