<?xml version="1.0" encoding="utf-8"?>
<!-- Generator: Adobe Illustrator 21.1.0, SVG Export Plug-In . SVG Version: 6.00 Build 0)  -->
<svg version="1.1" id="Layer_1" xmlns="http://www.w3.org/2000/svg" xmlns:xlink="http://www.w3.org/1999/xlink" x="0px" y="0px"
	 viewBox="0 0 250 250" style="enable-background:new 0 0 250 250;" xml:space="preserve">
<style type="text/css">
	.st0{fill:#C3161C;}
	.st1{fill:#EC1C24;}
	.st2{fill:#FFFFFF;}
	.st3{fill:#134B8D;}
</style>
<title>CR</title>
<g>
	<path class="st0" d="M112.9,147.6h-47c-17,0-34.1,0-51.1,0c-0.8,0-1.6-0.1-2.3-0.3c-1.5-0.3-2.5-1.8-2.2-3.4c0,0,0-0.1,0-0.1
		c0.5-1.8,1.1-3.5,1.9-5.2c4.7-10.6,9.4-21.2,14.2-31.7c2.1-4.7,5.9-7,10.8-8.1c0.7-0.1,1.5-0.2,2.3-0.2h195.4c0.6,0,1.3,0,1.9,0.1
		c1.7,0.1,3.1,1.6,3,3.3c0,0.3-0.1,0.6-0.2,0.9c-0.5,1.5-1,3-1.7,4.5c-4.8,10.7-9.5,21.4-14.4,32c-2.1,5-7.1,8.2-12.5,8
		c-32.7,0.1-65.4,0-98.1,0L112.9,147.6z M63.3,122.2c0.4-0.1,0.8-0.3,1.1-0.4c3.4-1.1,6-3.6,7.3-6.9c1-2.8,0-5-2.8-5.9
		c-1.6-0.5-3.3-0.7-5-0.8c-3.9-0.1-7.8,0-11.8,0c-0.6-0.1-1.2,0.3-1.4,0.8c-4,7.5-8.1,14.9-12.1,22.3c-0.5,0.9-1,1.9-1.6,3
		c0.4,0,0.7,0.1,1,0.1c2.3,0,4.6,0,6.8,0c0.6,0.1,1.1-0.3,1.3-0.8c1.2-1.9,2.2-3.8,3.2-5.8c0.6-2,2.6-3.2,4.7-2.7
		c2.2,0.2,3,1.2,2.1,3.2c-0.2,0.5-0.5,0.9-0.8,1.4c-0.5,0.9-0.9,1.8-1.3,2.7c-0.2,0.6-0.3,1.3-0.4,1.9h8.4c0.1-2,0.8-3.9,1.9-5.6
		c0.3-0.6,0.6-1.2,0.9-1.8C65.8,124.1,65,123.4,63.3,122.2z M140.9,115.2l-10.3,19.2c0.5,0,0.7,0.1,1,0.1c2,0,4.1,0,6.1,0
		c0.7,0.1,1.3-0.3,1.5-0.9c3.1-5.9,6.3-11.7,9.4-17.6c0.2-0.5,0.8-0.8,1.3-0.8c1.8,0,3.5,0,5.3,0c0.5,0.1,1-0.2,1.2-0.7
		c1-1.8,2-3.6,3-5.3c0.1-0.2,0.2-0.5,0.3-0.7c-0.2,0-0.5-0.1-0.7-0.1l-20.4-0.1c-0.5,0-0.9,0.2-1.1,0.6c-1,1.9-2.1,3.7-3.1,5.6
		c-0.1,0.2-0.2,0.5-0.3,0.8H140.9z M165.6,121.4c2,0,3.7,0,5.5,0c0.5,0,1.1-0.2,1.4-0.6c0.9-1.1,2.3-1.8,3.7-1.8
		c0.9,0,1.3,0.5,0.9,1.3c-0.4,1-1.3,1.7-2.3,1.8c-2.1,0.3-4.2,0.4-6.2,0.8c-4.2,0.6-7.7,3.5-8.9,7.6c-0.7,1.6,0,3.4,1.5,4.1
		c0.4,0.2,0.9,0.3,1.4,0.3c2.6,0.2,5.2-0.3,7.5-1.5l0.7-0.3l-0.5,1.5c2.5,0,4.8,0,7.1,0c0.2,0,0.4-0.5,0.5-0.8c0-0.5,0.1-1,0.2-1.5
		c1.3-2.7,2.8-5.3,4.1-8.1c1-1.8,1.8-3.7,2.5-5.6c0.5-1.1,0-2.5-1.1-3c-0.2-0.1-0.4-0.1-0.6-0.2c-1-0.3-2.1-0.5-3.2-0.6
		c-3.3-0.3-6.7,0.3-9.6,1.9C168.3,117.7,166.7,119.4,165.6,121.4L165.6,121.4z M74.5,134.5c2.3,0,4.5,0,6.7,0c0.8,0,1.2-0.2,1-1.1
		c0-0.4,0-0.7,0.2-1c0.2-0.5,0.5-1,0.7-1.5c1.6-3.2,3.2-6.3,4.9-9.5c0.4-0.7,0.7-1.4,0.9-2.1c0.9-2.4,0-3.9-2.5-4.4
		c-2.4-0.4-4.8-0.4-7.2,0c-3.6,0.5-6.9,2.5-8.9,5.5c-0.2,0.3-0.3,0.6-0.6,1c2,0,3.7,0,5.5,0c0.5,0,1-0.2,1.3-0.6
		c0.9-1.1,2.2-1.8,3.6-1.8c1.1,0,1.3,0.5,0.9,1.5c-0.4,0.9-1.3,1.6-2.4,1.6c-2,0.3-4.1,0.4-6.1,0.8c-4.2,0.6-7.6,3.5-8.9,7.5
		c-0.9,2.4,0.4,4.2,2.9,4.5c2.5,0.2,4.9-0.3,7.1-1.4l1-0.5L74.5,134.5z M125.5,128.8l-0.2-0.3c-1.4,0-2.9,0-4.3,0
		c-1.1-0.2-2.3,0.1-3.2,0.9c-0.3,0.3-0.7,0.5-1.1,0.5c-0.8,0.1-1.6,0-2.4-0.2c-0.9-0.3-1.1-1.3-0.9-2.3s0.9-0.9,1.6-0.9h11.4
		c0.5,0,1,0,1.2-0.6c0.7-1.6,1.3-3.2,1.9-4.9c0.7-3-0.5-5.3-3.1-6c-1-0.3-2.1-0.4-3.1-0.4c-2.9,0.1-5.7,1-8.1,2.7
		c-4.2,2.6-7.3,6.7-8.5,11.5c-0.8,2.4,0.5,5.1,2.9,5.9c0.2,0.1,0.4,0.1,0.7,0.2c0.7,0.2,1.3,0.2,2,0.2c3.4,0.1,6.8-1,9.6-3
		C123.1,131.1,124.3,129.9,125.5,128.8L125.5,128.8z M101.6,122.5c0.1,0.1,0.2,0.1,0.3,0.1h4.5c2.3,0,2.3,0,2.7-2.3
		c0.6-2.3-0.8-4.7-3.1-5.4c-0.2-0.1-0.5-0.1-0.7-0.1c-2.4-0.4-4.8-0.3-7.1,0.5c-5.3,1.7-8.7,5.3-11,10.2c-0.5,1.1-0.9,2.2-1.1,3.4
		c-0.5,3.8,1.6,6.2,5.5,6.2c6.2,0.1,10.8-2.9,14.2-7.9c0.1-0.2,0.1-0.3,0.2-0.5c-2,0-3.8,0-5.6,0c-0.7-0.1-1.4,0.2-1.8,0.9
		c-0.7,1.2-1.9,1.9-3.3,2.1c-1.3,0.1-1.8-0.5-1.5-1.8c0.6-2.4,1.8-4.5,3.5-6.3c0.6-0.5,1.2-1,2-1.2
		C101,119.7,101.9,120.5,101.6,122.5L101.6,122.5z M197.8,122.6h4.3c2.7,0,2.7,0,3.1-2.8c0.4-2.1-0.9-4.2-3.1-4.7
		c-1.9-0.6-3.9-0.6-5.9-0.2c-7.2,1.3-11.4,6-13.8,12.6c-0.5,1.3-0.6,2.7-0.2,4c0.8,2.3,3,3.8,5.4,3.6c6.2,0.1,10.7-2.9,14.2-7.9
		c0.1-0.1,0.1-0.3,0.2-0.5c-0.2,0-0.3-0.1-0.5-0.1c-1.9,0-3.8,0-5.7,0c-0.3,0-0.7,0.4-1,0.6c-0.8,0.8-1.7,1.5-2.7,2.1
		c-0.7,0.2-1.4,0.2-2-0.2c-0.3-0.3-0.4-1.3-0.2-1.8c0.6-2.1,1.7-4,3.1-5.6c0.5-0.6,1.1-1,1.7-1.3c2-0.9,2.9-0.3,2.9,1.9
		C197.8,122.4,197.8,122.5,197.8,122.6L197.8,122.6z M168.6,115.3c-3.4-0.6-6.8,0.4-9.3,2.7l1.1-2.3c-2,0-3.8,0-5.6,0
		c-0.6-0.1-1.1,0.2-1.3,0.7c-2.3,4.5-4.7,8.9-7.1,13.3l-2.4,4.5c0.1,0.1,0.3,0.1,0.4,0.1c2,0,4,0,5.9,0c0.3-0.1,0.6-0.3,0.8-0.6
		c0.6-1.1,1.1-2.3,1.7-3.3c1.3-2.2,2.5-4.4,4-6.4c1.3-1.9,3.5-3,5.8-2.8c1.7,0.4,3.5-0.7,3.9-2.4
		C167.2,117.7,167.9,116.6,168.6,115.3L168.6,115.3z M206.8,136.7c1.3,0.1,2.4-0.9,2.5-2.3c0,0,0-0.1,0-0.1c0-1.3-1.1-2.4-2.4-2.4
		c0,0,0,0,0,0c-1.3,0-2.4,1-2.5,2.3C204.3,135.6,205.4,136.7,206.8,136.7C206.7,136.7,206.8,136.7,206.8,136.7L206.8,136.7z"/>
	<path class="st0" d="M54.2,119.1c0.9-1.7,1.7-3.2,2.6-4.8c0.2-0.2,0.4-0.3,0.7-0.3c1.3,0,2.5,0,3.8,0s1.9,0.9,1.3,2.1
		c-0.6,1.7-2.2,2.8-4,2.9C57.3,119.2,55.8,119.1,54.2,119.1z"/>
	<path class="st0" d="M174.5,126c-1.2,2.1-2.5,3.8-5,4.2c-0.2,0-0.4,0-0.5,0c-0.4-0.1-0.9-0.3-1.1-0.6c-0.2-0.3,0.1-0.9,0.3-1.1
		c0.5-0.6,1.2-1.1,1.9-1.4C171.4,126.6,172.9,126.4,174.5,126z"/>
	<path class="st0" d="M78.6,126c-1.3,2.1-2.5,3.9-5,4.2c-0.3,0-0.5,0-0.8,0c-0.9-0.2-1.2-0.7-0.6-1.3c0.6-0.7,1.4-1.3,2.3-1.7
		C75.8,126.7,77.2,126.3,78.6,126z"/>
	<path class="st0" d="M116.3,122.7c0.9-1.7,2.6-2.8,4.5-2.9c0.6,0,1.1,0.3,1.5,0.7c0.2,0.6,0.2,1.2,0,1.8c-0.1,0.2-0.3,0.3-0.5,0.3
		C120.1,122.7,118.3,122.7,116.3,122.7z"/>
	<polygon class="st1" points="26.6,99.3 26.1,100.5 242.2,100.5 242.2,99.3 	"/>
	<polygon class="st1" points="24.2,105.6 240.3,105.6 240.3,104.5 24.7,104.5 	"/>
	<polygon class="st1" points="22.2,111.2 238.4,111.2 238.4,109.3 22.7,109.3 	"/>
	<polygon class="st1" points="19.3,116.6 235.4,116.6 235.4,114.1 19.7,114.1 	"/>
	<polygon class="st1" points="15.8,121.7 232.7,121.7 232.7,118.9 16.3,118.9 	"/>
	<polygon class="st1" points="14.5,127 231.3,127 231.3,124 14.9,124 	"/>
	<polygon class="st1" points="12.5,132 229.4,132 229.4,129 12.9,129 	"/>
	<polygon class="st1" points="10.9,137.2 227.7,137.2 227.7,134.3 11.3,134.3 	"/>
	<polygon class="st1" points="9,142 225.9,142 225.9,139.5 9.4,139.5 	"/>
	<polygon class="st1" points="6.7,146.9 223.6,146.9 223.6,144.9 7.1,144.9 	"/>
	<path class="st2" d="M63.3,122.2c1.7,1.2,2.4,1.9,1.4,4.7c-0.2,0.6-0.5,1.2-0.9,1.8c-1.1,1.7-1.7,3.6-1.9,5.6h-8.4
		c0.1-0.6,0.2-1.3,0.4-1.9c0.4-0.9,0.8-1.8,1.3-2.7c0.2-0.5,0.6-0.9,0.8-1.4c0.9-2,0.2-3-2.1-3.2c-2-0.5-4.1,0.7-4.7,2.7
		c-1,2-2,4-3.2,5.8c-0.2,0.5-0.8,0.8-1.3,0.8c-2.3,0-4.6,0-6.8,0c-0.3,0-0.6,0-1-0.1c0.6-1.1,1.1-2,1.6-3c4-7.4,8.1-14.9,12.1-22.3
		c0.2-0.6,0.8-0.9,1.4-0.8c3.9,0,7.8,0,11.8,0c1.7,0,3.4,0.3,5,0.8c2.8,0.9,3.8,3.1,2.8,5.9c-1.3,3.3-4,5.8-7.3,6.9
		C64.1,121.9,63.8,122,63.3,122.2z M54.2,119.1c1.6,0,3.1,0,4.5,0c1.8-0.1,3.4-1.2,4-2.9c0.6-1.2,0-2.1-1.3-2.1c-1.3,0-2.5,0-3.8,0
		c-0.3,0-0.5,0.1-0.7,0.3C55.9,115.9,55.1,117.5,54.2,119.1z"/>
	<path class="st3" d="M45,135.5L45,135.5c-1.5,0-3.1,0-4.6,0h-2.4c-0.2,0-0.5,0-0.7,0l-1.9-0.2l1.3-2.4l1-1.9l3.1-5.6
		c3-5.6,6-11.1,9.1-16.7c0.4-0.9,1.3-1.4,2.3-1.3h4.5c2.4,0,4.8,0,7.2,0c1.8,0,3.6,0.3,5.3,0.8c1.5,0.4,2.7,1.3,3.4,2.7
		c0.6,1.4,0.6,3.1,0,4.5c-1.3,3.4-4,6-7.4,7.3c1,1.1,1.2,2.4,0.4,4.7c-0.2,0.7-0.6,1.4-0.9,2c-1,1.5-1.6,3.3-1.7,5.2v0.9H52.5
		l0.2-1.2c0-0.2,0-0.4,0.1-0.6c0.1-0.5,0.2-1,0.3-1.5c0.3-0.7,0.6-1.5,1-2.2l0.3-0.6c0.1-0.2,0.3-0.5,0.4-0.7
		c0.1-0.2,0.3-0.5,0.4-0.7c0.4-0.9,0.3-1.2,0.3-1.3s-0.3-0.4-1.5-0.5c-2-0.2-2.9,0.3-3.6,2.1c-0.6,1.4-1.3,2.7-2.1,4
		c-0.4,0.7-0.8,1.3-1.1,1.9C46.7,135,45.9,135.5,45,135.5z M41.8,133.4H45c0.2,0,0.2,0,0.4-0.3c0.4-0.7,0.8-1.3,1.2-2
		c0.7-1.2,1.4-2.4,2-3.7c0.8-2.4,3.2-3.8,5.7-3.3c1.2,0,2.3,0.5,3,1.5c0.5,1,0.4,2.2-0.2,3.1c-0.1,0.3-0.3,0.6-0.5,0.9
		c-0.1,0.2-0.2,0.4-0.3,0.6l-0.3,0.6c-0.3,0.6-0.6,1.3-0.9,2c-0.1,0.2-0.1,0.4-0.1,0.6h6.3c0.3-1.8,0.9-3.6,1.9-5.1
		c0.3-0.5,0.6-1.1,0.8-1.6c0.8-2.3,0.4-2.6-1.1-3.6l-1.6-1.1l2.3-0.8l0.7-0.2c3.6-1.4,5.7-3.4,6.8-6.3c0.4-0.9,0.4-2,0-3
		c-0.5-0.8-1.3-1.4-2.2-1.7c-1.5-0.5-3.1-0.7-4.7-0.7c-2.4,0-4.8,0-7.2,0h-4.5c-0.3,0-0.4,0-0.5,0.3c-3,5.6-6,11.2-9.1,16.7
		l-3.1,5.6l-0.9,1.6L41.8,133.4L41.8,133.4z M57.1,120.1h-4.6l1.4-2.7c0.7-1.3,1.3-2.4,1.9-3.6c0.4-0.5,0.9-0.8,1.5-0.8
		c1.4,0,2.7,0,3.9,0c0.9,0,1.7,0.4,2.2,1.1c0.4,0.8,0.4,1.7,0,2.4c-0.8,2-2.7,3.4-4.8,3.5L57.1,120.1z M55.9,118.1c1,0,1.9,0,2.8,0
		c1.4,0,2.6-1,3.1-2.3c0.1-0.3,0.1-0.5,0.1-0.6s-0.2-0.2-0.6-0.2c-1.2,0-2.3,0-3.7,0C57,116.1,56.4,117.1,55.9,118.1L55.9,118.1z"/>
	<path class="st2" d="M140.9,115.1h-6.7c0.1-0.3,0.2-0.5,0.3-0.8c1-1.9,2.1-3.7,3.1-5.6c0.2-0.4,0.6-0.7,1.1-0.6l20.4,0.1
		c0.2,0,0.5,0,0.7,0.1c-0.1,0.2-0.2,0.5-0.3,0.7c-1,1.8-2.1,3.6-3,5.3c-0.2,0.5-0.7,0.8-1.2,0.7c-1.8,0-3.5,0-5.3,0
		c-0.6,0-1.1,0.3-1.3,0.8c-3.1,5.9-6.3,11.7-9.4,17.6c-0.2,0.6-0.9,1-1.5,0.9c-2,0-4.1,0-6.1,0c-0.3,0-0.6,0-1-0.1L140.9,115.1z"/>
	<path class="st3" d="M137.8,135.5L137.8,135.5c-1.4,0-2.8,0-4.2,0h-2H131l-2-0.2l10.2-19.1h-6.4l0.7-1.7c0.1-0.2,0.2-0.4,0.3-0.6
		l1.2-2.2c0.6-1.1,1.3-2.3,1.9-3.4c0.4-0.7,1.1-1.2,1.9-1.2l14.3,0.1h6.2c0.2,0,0.4,0,0.6,0l1.5,0.2l-0.6,1.4
		c-0.1,0.2-0.2,0.4-0.3,0.6l-1.1,1.9c-0.7,1.2-1.3,2.3-2,3.5c-0.4,0.8-1.2,1.3-2.1,1.2c-0.8,0-1.6,0-2.4,0s-1.9,0-2.9,0
		c-0.3,0-0.3,0-0.4,0.3c-1.5,2.8-3,5.5-4.5,8.3c-1.7,3.1-3.3,6.2-5,9.3C139.8,134.9,138.9,135.5,137.8,135.5z M135.2,133.4
		c0.9,0,1.7,0,2.7,0c0.3,0,0.4,0,0.6-0.4c1.7-3.1,3.3-6.2,5-9.3c1.5-2.8,3-5.5,4.5-8.3c0.4-0.9,1.3-1.4,2.2-1.3c0.9,0,1.9,0,2.8,0
		c0.9,0,1.7,0,2.5,0c0.2,0,0.2,0,0.3-0.2c0.7-1.2,1.3-2.4,2-3.5l0.7-1.2h-5.3l-14.3-0.1c-0.1,0-0.1,0-0.2,0.1
		c-0.6,1.1-1.3,2.3-1.9,3.4l-0.8,1.4h6.7l-10.3,19.3L135.2,133.4L135.2,133.4z"/>
	<path class="st2" d="M165.6,121.4c1.1-2,2.7-3.7,4.7-4.8c3-1.5,6.3-2.2,9.6-1.9c1.1,0.1,2.2,0.2,3.2,0.6c1.2,0.2,2.1,1.4,1.9,2.6
		c0,0.2-0.1,0.4-0.2,0.6c-0.7,1.9-1.6,3.8-2.5,5.6c-1.3,2.7-2.8,5.3-4.1,8.1c-0.1,0.5-0.2,1-0.2,1.5c-0.1,0.3-0.3,0.7-0.5,0.8
		c-2.3,0-4.7,0-7.1,0l0.5-1.5l-0.7,0.3c-2.3,1.2-4.9,1.8-7.5,1.5c-1.7,0.1-3.1-1.3-3.2-3c0-0.5,0.1-0.9,0.3-1.4c1.2-4,4.7-7,8.9-7.6
		c2.1-0.4,4.2-0.5,6.2-0.8c1.1-0.1,2-0.8,2.3-1.8c0.3-0.9,0-1.3-0.9-1.3c-1.5,0-2.8,0.6-3.7,1.8c-0.3,0.4-0.9,0.7-1.4,0.6
		C169.4,121.4,167.7,121.4,165.6,121.4z M174.5,126c-1.6,0.4-3,0.7-4.4,1.1c-0.7,0.3-1.4,0.8-1.9,1.4c-0.3,0.2-0.5,0.9-0.3,1.1
		c0.1,0.2,0.7,0.4,1.1,0.6c0.2,0,0.4,0,0.5,0C172,129.8,173.2,128.1,174.5,126z"/>
	<path class="st3" d="M163.9,136c-0.4,0-0.9,0-1.3,0c-1.4-0.1-2.7-0.8-3.5-1.9c-0.7-1.1-0.8-2.5-0.3-3.8c1.2-3.8,4.1-6.7,7.9-7.8
		h-2.7l0.8-1.5c1.2-2.2,2.9-4,5.1-5.2c3.1-1.7,6.7-2.3,10.2-2c1.2,0.1,2.3,0.3,3.5,0.6c1,0.3,1.8,0.9,2.3,1.8c0.4,0.9,0.4,1.8,0,2.7
		c-0.7,1.8-1.5,3.6-2.4,5.3l-0.2,0.4c-0.7,1.3-1.3,2.8-2.1,4.1c-0.8,1.4-1.3,2.7-2,4c0,0.2,0,0.3,0,0.5c0,0.3,0,0.5-0.1,0.8
		c-0.1,0.3-0.5,1.5-1.4,1.5c-1.9,0-3.8,0-5.7,0H169l0.2-0.6C167.5,135.6,165.7,136,163.9,136z M176.1,118.1h0.2c1-0.1,1.9,0.7,2,1.7
		c0,0.4,0,0.7-0.2,1.1c-0.5,1.3-1.7,2.3-3.1,2.4c-0.9,0.1-1.8,0.2-2.8,0.3c-1.1,0.1-2.3,0.2-3.4,0.4c-3.8,0.5-7,3.2-8.1,6.9
		c-0.3,0.7-0.3,1.4,0.1,2.1c0.5,0.6,1.2,1,2,1c2.4,0.2,4.8-0.3,6.9-1.4l0.5-0.2l2.3-1.1l-0.7,2.3h0.1c1.8,0,3.5,0,5.2,0l0,0
		c0-0.1,0-0.3,0-0.4c0-0.4,0.1-0.8,0.3-1.2c0.7-1.3,1.3-2.7,2-4c0.7-1.3,1.4-2.7,2.1-4.1l0.2-0.4c0.9-1.6,1.6-3.3,2.3-5.1
		c0.2-0.4,0.2-0.8,0-1.1c-0.3-0.4-0.7-0.7-1.1-0.8c-1-0.3-2-0.5-3-0.5c-3.1-0.3-6.3,0.3-9.1,1.7c-1.3,0.7-2.5,1.7-3.4,3
		c1.3,0,2.5,0,3.7,0c0.2,0,0.5-0.1,0.6-0.3C172.7,118.8,174.4,118,176.1,118.1L176.1,118.1z M177.4,133.5L177.4,133.5z M176.1,120.1
		c-1.1,0-2.1,0.5-2.8,1.3l1.3-0.2c0.7,0,1.3-0.5,1.6-1.2l0,0H176.1z M169.1,131.2c-0.2,0-0.3,0-0.5-0.1l-0.2-0.1
		c-0.6-0.1-1.1-0.4-1.4-0.9c-0.3-0.8-0.1-1.7,0.5-2.3c0.6-0.7,1.4-1.2,2.3-1.6c1-0.3,2-0.6,3.1-0.8l1.3-0.3l2.3-0.6l-1.2,2.1
		c-1.2,2-2.7,4.2-5.7,4.7C169.4,131.2,169.3,131.2,169.1,131.2L169.1,131.2z M169.3,129.3L169.3,129.3z M169,129.2L169,129.2h0.2
		h0.2c1.1-0.2,2.1-0.7,2.8-1.6c-0.6,0.1-1.2,0.3-1.7,0.5C169.9,128.3,169.4,128.7,169,129.2L169,129.2z"/>
	<path class="st2" d="M74.5,134.5l0.4-1.4l-1,0.5c-2.2,1.1-4.7,1.6-7.1,1.4c-2.6-0.2-3.8-2-2.9-4.5c1.2-4,4.7-6.9,8.9-7.5
		c2-0.3,4.1-0.5,6.1-0.8c1-0.1,1.9-0.7,2.4-1.6c0.5-1,0.1-1.5-0.9-1.5c-1.4,0-2.8,0.7-3.6,1.8c-0.3,0.4-0.8,0.6-1.3,0.6
		c-1.8,0-3.5,0-5.5,0c0.2-0.4,0.4-0.7,0.6-1c2-3,5.2-5,8.8-5.4c2.4-0.4,4.8-0.4,7.2,0c2.5,0.5,3.3,2,2.5,4.4
		c-0.3,0.7-0.6,1.4-0.9,2.1c-1.6,3.2-3.2,6.3-4.9,9.5c-0.3,0.5-0.5,1-0.7,1.5c-0.2,0.3-0.2,0.7-0.2,1c0.2,0.9-0.1,1.1-1,1.1
		C79,134.5,76.9,134.5,74.5,134.5z M78.6,126c-1.4,0.3-2.8,0.7-4.2,1.1c-0.9,0.4-1.6,1-2.3,1.7c-0.6,0.7-0.3,1.2,0.6,1.3
		c0.3,0,0.5,0,0.8,0C76.1,129.9,77.4,128.1,78.6,126L78.6,126z"/>
	<path class="st3" d="M68.1,136c-0.4,0-0.9,0-1.3,0c-1.4-0.1-2.7-0.8-3.5-1.9c-0.7-1.2-0.8-2.6-0.3-3.9c1.2-3.7,4.1-6.6,7.9-7.7
		h-2.7l1.1-1.9c0.1-0.3,0.3-0.5,0.4-0.7c2.2-3.2,5.6-5.3,9.5-5.9c2.5-0.5,5-0.5,7.5,0c2.1,0.1,3.8,1.9,3.7,4c0,0.6-0.2,1.2-0.5,1.7
		c-0.3,0.7-0.6,1.5-1,2.2c-1.2,2.4-2.4,4.8-3.7,7.1l-1.5,2.7c-0.2,0.3-0.3,0.6-0.5,0.9c-0.1,0.1-0.1,0.3-0.1,0.5
		c0.2,0.6,0.1,1.2-0.2,1.7c-0.4,0.5-1.1,0.7-1.7,0.6c-1.5,0-3,0-4.6,0h-3.3l0.2-0.6C71.7,135.6,69.9,136,68.1,136z M80.3,118.1
		L80.3,118.1c0.8-0.1,1.5,0.3,2,0.9c0.4,0.7,0.4,1.5,0,2.1c-0.6,1.2-1.8,2.1-3.1,2.2c-0.9,0.1-1.8,0.2-2.7,0.3
		c-1.1,0.1-2.3,0.3-3.5,0.4c-3.8,0.5-6.9,3.2-8.1,6.8c-0.3,0.7-0.3,1.5,0,2.1c0.5,0.6,1.2,1,2,1c2.3,0.2,4.6-0.3,6.6-1.3l0.6-0.3
		l2.4-1.1l-0.7,2.3h0.6c1.6,0,3.1,0,4.6,0c-0.1-0.5,0-1.1,0.3-1.5c0.2-0.4,0.3-0.8,0.5-1.1l1.4-2.7c1.2-2.4,2.4-4.8,3.7-7.1
		c0.3-0.6,0.6-1.3,0.9-2c0.3-0.7,0.4-1.4,0.1-2.1c-0.4-0.6-1.1-0.9-1.8-1c-2.2-0.4-4.6-0.4-6.8,0c-3.1,0.4-5.8,2-7.7,4.5
		c1.3,0,2.5,0,3.7,0c0.2,0,0.5-0.1,0.6-0.3C77.1,118.9,78.6,118.1,80.3,118.1z M80.3,120.1c-1.1,0-2.1,0.5-2.8,1.3l1.3-0.2
		c0.7,0,1.3-0.4,1.6-1.1V120L80.3,120.1z M73.2,131.2c-0.2,0-0.4,0-0.6,0c-0.7-0.1-1.4-0.5-1.7-1.2c-0.2-0.6,0-1.3,0.5-1.8
		c0.7-0.8,1.6-1.5,2.7-2c1-0.4,2-0.6,3-0.8l1.3-0.3l2.3-0.6l-1.2,2.1c-1.3,2.2-2.8,4.3-5.7,4.7L73.2,131.2z M73.2,129.2h0.3
		c1.1-0.1,2.2-0.7,2.9-1.7c-0.5,0.1-1.1,0.3-1.6,0.5C74.2,128.3,73.6,128.7,73.2,129.2L73.2,129.2z"/>
	<path class="st2" d="M125.6,128.8c-1.3,1.1-2.4,2.3-3.8,3.3c-2.8,2-6.1,3.1-9.6,3c-0.7,0-1.3-0.1-2-0.2c-2.5-0.4-4.2-2.8-3.8-5.4
		c0-0.2,0.1-0.5,0.2-0.7c1.2-4.8,4.3-8.9,8.5-11.5c2.4-1.6,5.2-2.6,8.1-2.7c1.1,0,2.1,0.1,3.1,0.4c2.7,0.7,3.9,3,3.1,6
		c-0.5,1.7-1.1,3.3-1.9,4.9c-0.2,0.6-0.7,0.6-1.2,0.6H115c-0.7,0-1.4-0.1-1.6,0.9c-0.2,1,0,2.1,0.9,2.3c0.8,0.2,1.6,0.2,2.5,0.1
		c0.4,0,0.8-0.2,1.1-0.5c0.8-0.8,2-1.1,3.1-0.9c1.4,0,2.9,0,4.3,0L125.6,128.8z M116.3,122.7c2,0,3.8,0,5.5,0c0.2,0,0.4-0.2,0.5-0.3
		c0.2-0.6,0.2-1.2,0-1.8c-0.4-0.5-0.9-0.7-1.5-0.7C118.9,119.9,117.2,121,116.3,122.7L116.3,122.7z"/>
	<path class="st3" d="M112.5,136.1h-0.3c-0.7,0-1.5-0.1-2.2-0.3c-1.6-0.3-2.9-1.3-3.8-2.7c-0.8-1.4-1-3.1-0.6-4.7
		c1.3-5,4.5-9.4,8.9-12.1c2.6-1.7,5.5-2.7,8.6-2.8c1.2,0,2.3,0.1,3.4,0.4c3.1,0.9,4.7,3.8,3.8,7.2c-0.3,1.2-0.7,2.3-1.3,3.5
		c-0.2,0.5-0.4,1-0.6,1.6c-0.3,0.8-1.2,1.4-2.1,1.3h-0.5l1,1.5l-0.7,0.6l-1.1,1c-0.8,0.8-1.7,1.6-2.7,2.3
		C119.5,135,116.1,136.1,112.5,136.1z M123.5,115.6h-0.3c-2.7,0.1-5.3,1-7.6,2.5c-4,2.4-6.9,6.4-8.1,10.9c-0.3,1-0.2,2.2,0.3,3.1
		c0.6,0.9,1.5,1.5,2.5,1.7c0.6,0.1,1.2,0.2,1.8,0.2c3.2,0.1,6.4-0.9,9-2.8c0.8-0.6,1.5-1.2,2.1-1.8H121c-1.2,0-1.9,0-2.4,0.6
		c-0.5,0.5-1.1,0.8-1.8,0.9c-0.9,0.1-1.9,0.1-2.8-0.2c-1.3-0.6-2-2.1-1.6-3.5c0.2-1.2,1.3-1.9,2.5-1.7c0,0,0,0,0,0h11.8
		c0.2-0.5,0.4-1.1,0.6-1.6c0.5-1,0.9-2.1,1.2-3.2c0.6-2.4-0.3-4.2-2.4-4.8C125.2,115.8,124.4,115.6,123.5,115.6L123.5,115.6z
		 M114.3,127.5v0.1c-0.1,0.6,0,1.1,0.2,1.2c0.7,0.1,1.4,0.2,2,0.1c0.2,0,0.4-0.1,0.5-0.2c0.6-0.7,1.5-1.1,2.4-1.2h-4.6
		C114.7,127.5,114.5,127.5,114.3,127.5z M118.7,123.7h-4.2l1-1.5c1.1-2,3.1-3.3,5.3-3.3c1,0,1.9,0.5,2.4,1.2c0.3,0.6,0.3,1.4,0.1,2
		c0,0.1,0,0.3,0,0.4c-0.1,0.7-0.7,1.2-1.4,1.2L118.7,123.7z M118.4,121.7h2.9c0-0.2,0-0.5,0-0.7c-0.2-0.1-0.4-0.1-0.6-0.2
		C119.9,120.8,119.1,121.1,118.4,121.7L118.4,121.7z M121.8,121.7L121.8,121.7z"/>
	<path class="st2" d="M101.6,122.4c0.3-1.9-0.6-2.7-2.4-2.1c-0.8,0.2-1.4,0.6-2,1.2c-1.7,1.8-2.9,3.9-3.5,6.3
		c-0.3,1.2,0.3,1.9,1.5,1.8c1.4-0.1,2.6-0.9,3.3-2.1c0.4-0.6,1.1-0.9,1.8-0.9c1.8,0,3.7,0,5.6,0c0,0.2-0.1,0.4-0.2,0.5
		c-3.4,5-8,8-14.2,7.9c-3.9,0-6-2.5-5.5-6.2c0.2-1.2,0.5-2.3,1.1-3.4c2.3-4.8,5.7-8.5,11-10.2c2.3-0.8,4.7-0.9,7.1-0.5
		c2.4,0.2,4.2,2.3,4,4.7c0,0.2-0.1,0.5-0.1,0.7c-0.4,2.3-0.4,2.4-2.7,2.3H102C101.9,122.5,101.7,122.5,101.6,122.4z"/>
	<path class="st3" d="M91.8,136.1h-0.2c-2,0.1-3.8-0.7-5.2-2.1c-1.2-1.5-1.7-3.4-1.3-5.3c0.2-1.3,0.6-2.5,1.1-3.7
		c2.7-5.6,6.5-9.1,11.6-10.8c2.4-0.8,5.1-1,7.6-0.5c2.9,0.3,5.1,2.9,4.8,5.8c0,0.3-0.1,0.6-0.2,0.8c-0.4,2.9-0.9,3.2-3.7,3.2h-4.5
		c-0.2,0-0.4-0.1-0.6-0.2l-0.7-0.3v-0.8c0.1-0.8,0-1.1-0.1-1.1c-0.1-0.1-0.3-0.1-1,0.1c-0.6,0.2-1.1,0.5-1.6,0.9
		c-1.6,1.6-2.7,3.6-3.3,5.8c0,0.2,0,0.3,0,0.5l0,0c0.2,0,0.4,0,0.5,0c1.1-0.1,2-0.7,2.5-1.7c0.6-0.9,1.6-1.4,2.7-1.3
		c1.3,0,2.6,0,3.9,0h3.1l-0.5,1.5c0,0.2-0.1,0.4-0.2,0.6C102.8,133.3,97.9,136.1,91.8,136.1z M102.7,115.5c-1.4,0-2.9,0.2-4.2,0.7
		c-4.6,1.5-8,4.6-10.4,9.7c-0.5,1-0.8,2-1,3.1c-0.3,1.3,0,2.6,0.8,3.7c1,1,2.3,1.5,3.7,1.4c5.1,0.1,9.2-2,12.6-6.4
		c-1.3,0-2.7,0-3.9,0c-0.4-0.1-0.8,0.1-1,0.5c-0.9,1.4-2.4,2.3-4,2.5c-0.8,0.1-1.6-0.2-2.2-0.8c-0.5-0.6-0.6-1.5-0.4-2.3
		c0.7-2.5,1.9-4.8,3.7-6.7c0.7-0.7,1.5-1.2,2.4-1.5c0.9-0.5,2.1-0.4,2.9,0.3c0.5,0.5,0.9,1.2,0.8,1.9h3.7c0.5,0,1,0,1.5-0.1
		c0-0.1,0.1-0.8,0.2-1.4c0.5-1.8-0.5-3.7-2.3-4.2c-0.2-0.1-0.5-0.1-0.7-0.1C104.3,115.6,103.5,115.5,102.7,115.5z"/>
	<path class="st2" d="M197.9,122.6c0-0.1-0.1-0.2-0.1-0.3c0-2.1-0.9-2.8-2.9-1.9c-0.7,0.3-1.3,0.8-1.7,1.3c-1.5,1.6-2.5,3.5-3.1,5.6
		c-0.2,0.6-0.1,1.6,0.2,1.8c0.6,0.4,1.3,0.4,2,0.2c0.9-0.6,1.8-1.3,2.7-2.1c0.3-0.2,0.7-0.6,1-0.6c1.9,0,3.8,0,5.7,0
		c0.2,0,0.3,0,0.5,0.1c0,0.2-0.1,0.3-0.2,0.5c-3.4,4.9-8,8-14.2,7.9c-2.4,0.2-4.7-1.3-5.4-3.6c-0.4-1.3-0.3-2.7,0.2-4
		c2.4-6.6,6.7-11.2,13.8-12.6c1.9-0.4,4-0.3,5.9,0.2c2.1,0.5,3.5,2.6,3.1,4.7c-0.3,2.8-0.3,2.8-3.1,2.8L197.9,122.6z"/>
	<path class="st3" d="M187.9,136.1h-0.3c-2.9,0.2-5.5-1.6-6.4-4.3c-0.4-1.5-0.3-3.2,0.2-4.7c2.8-7.6,7.6-11.9,14.6-13.2
		c2.1-0.4,4.3-0.4,6.3,0.3c2.6,0.6,4.2,3.2,3.8,5.8c-0.4,3.3-0.8,3.7-4,3.7h-5l-0.4-1v-0.3c0-0.9-0.2-1.2-0.3-1.2
		c-0.1-0.1-0.4-0.1-1.3,0.3c-0.5,0.2-1,0.6-1.4,1c-1.4,1.5-2.4,3.3-2.9,5.2c-0.1,0.3-0.1,0.5,0,0.8c0.3,0.1,0.5,0.1,0.8,0
		c0.6-0.3,1.1-0.7,1.6-1.2c0.3-0.3,0.6-0.5,0.9-0.7l0.2-0.1c0.4-0.4,0.9-0.6,1.4-0.7c1.5,0,3.1,0,4.6,0h1.2c0.2,0,0.4,0,0.5,0.1
		l1.3,0.3l-0.5,1.2c-0.1,0.2-0.1,0.4-0.2,0.5C198.8,133.4,194,136.1,187.9,136.1z M198.9,115.6c-0.8,0-1.6,0.1-2.4,0.2
		c-6.3,1.2-10.5,5.1-13.1,12c-0.4,1.1-0.5,2.3-0.2,3.4c0.7,1.9,2.5,3,4.5,2.9c5.1,0.1,9.2-2.1,12.6-6.4c-1.5,0-3,0-4.5,0
		c0,0-0.1,0.2-0.2,0.2l-0.2,0.2c-0.3,0.2-0.5,0.5-0.8,0.7c-0.6,0.6-1.3,1.1-2,1.5c-1,0.4-2.2,0.3-3.1-0.3c-0.9-0.7-0.7-2.4-0.6-2.9
		c0.6-2.2,1.8-4.3,3.3-6c0.6-0.6,1.3-1.2,2.1-1.5c1-0.6,2.2-0.7,3.2-0.1c0.7,0.5,1.1,1.3,1.1,2.2h3.5c0.6,0,1.2,0,1.8-0.1
		c0.2-0.6,0.3-1.2,0.3-1.8c0.3-1.7-0.7-3.3-2.4-3.7C200.9,115.7,199.9,115.6,198.9,115.6L198.9,115.6z"/>
	<path class="st2" d="M168.6,115.3c-0.7,1.3-1.5,2.4-2,3.7c-0.5,1.7-2.2,2.7-3.9,2.4c-2.3-0.2-4.5,0.9-5.8,2.8c-1.5,2-2.7,4.3-4,6.4
		c-0.6,1.1-1.1,2.2-1.7,3.3c-0.2,0.3-0.5,0.5-0.8,0.6c-2,0-4,0-5.9,0c-0.2,0-0.3-0.1-0.4-0.1l2.4-4.5c2.4-4.5,4.7-8.9,7.1-13.3
		c0.2-0.5,0.8-0.8,1.3-0.7c1.8,0,3.6,0,5.6,0l-1.1,2.3C161.9,115.7,165.3,114.7,168.6,115.3z"/>
	<path class="st3" d="M147.8,135.4h-3.3c-0.2,0-0.4,0-0.5-0.1l-1.3-0.4l4.8-9c1.8-3.3,3.6-6.7,5.3-10c0.4-0.9,1.2-1.4,2.2-1.3
		c1.3,0,2.6,0,4,0h3.3l-0.3,0.6c2.2-1.1,4.7-1.5,7.1-1l1.3,0.2l-0.7,1.2c-0.2,0.4-0.5,0.8-0.7,1.2c-0.5,0.8-0.9,1.6-1.3,2.4
		c-0.6,2.1-2.8,3.4-4.9,3c-1.9-0.2-3.8,0.7-4.9,2.4c-1.2,1.7-2.2,3.5-3.2,5.2l-0.6,1.1c-0.3,0.6-0.6,1.1-0.9,1.7
		c-0.3,0.6-0.5,1.1-0.8,1.6c-0.3,0.6-0.9,1-1.6,1.1L147.8,135.4z M145.7,133.4c1.5,0,3.1,0,4.6,0l0,0c0.3-0.5,0.5-1,0.7-1.5
		s0.6-1.3,1-1.9l0.6-1.1c1-1.8,2.1-3.7,3.3-5.3c1.5-2.2,4.1-3.5,6.8-3.2c1.6,0.2,2.2-0.3,2.9-1.8c0.4-0.8,0.8-1.7,1.3-2.4
		c-2.6,0-5.1,1-7.1,2.7l-3.3,2.5l2.2-4.6h-0.1c-1.3,0-2.7,0-4,0c-0.1,0-0.2,0-0.2,0l0,0c-0.1,0.1-0.1,0.1-0.1,0.2
		c-1.8,3.3-3.6,6.7-5.3,10L145.7,133.4z"/>
	<circle class="st0" cx="206.8" cy="134.4" r="2.2"/>
	<path class="st2" d="M206.8,136.8c-1.4,0-2.5-1.1-2.5-2.5c0-1.4,1.1-2.5,2.5-2.5c1.4,0,2.5,1.1,2.5,2.5
		C209.3,135.7,208.2,136.8,206.8,136.8C206.8,136.8,206.8,136.8,206.8,136.8z M206.8,132.5c-1,0-1.8,0.8-1.8,1.8
		c0,1,0.8,1.8,1.8,1.8c1,0,1.8-0.8,1.8-1.8C208.7,133.3,207.9,132.5,206.8,132.5C206.9,132.5,206.9,132.4,206.8,132.5L206.8,132.5z"
		/>
	<path class="st2" d="M206,133.1c0.2,0,0.4,0,0.7,0c0.3,0,0.5,0,0.8,0.2c0.1,0.1,0.2,0.3,0.2,0.5c0,0.3-0.2,0.6-0.5,0.7l0,0
		c0.2,0.1,0.4,0.3,0.4,0.5c0,0.2,0.1,0.5,0.2,0.7h-0.3c-0.1-0.2-0.1-0.4-0.2-0.6c-0.1-0.4-0.2-0.5-0.5-0.5h-0.3v1.1H206L206,133.1z
		 M206.3,134.3h0.3c0.4,0,0.6-0.2,0.6-0.5c0-0.3-0.2-0.5-0.6-0.5c-0.1,0-0.2,0-0.3,0V134.3z"/>
	<path class="st0" d="M137.5,95.5h101c0.9,0,1.8,0.1,2.7,0.3c2.6,0.5,4.2,3.1,3.7,5.6c0,0.1,0,0.1,0,0.2c-0.5,1.8-1.2,3.5-2,5.2
		c-5.3,11.8-10.7,23.6-16.1,35.3c-2.6,5.5-7.3,8.1-13.2,8.5c-0.5,0-1,0-1.5,0H11.9c-0.9,0-1.8-0.1-2.7-0.2c-3.6-0.8-5.2-4-3.7-7.6
		c0.9-2.2,1.9-4.3,2.9-6.5c4.9-10.7,9.7-21.5,14.7-32.1c2.3-5.4,7.6-8.8,13.5-8.7C70.3,95.5,103.9,95.5,137.5,95.5z M112.9,148.8h98
		c0.9,0,1.8-0.1,2.7-0.2c4.7-1.1,8.7-3.4,10.8-7.9c5.3-11.7,10.6-23.5,15.8-35.2c0.4-0.9,0.7-2,0.8-3c0.4-2.2-1-4.3-3.2-4.8
		c-1-0.2-2-0.3-3-0.3H39.9c-0.2,0-0.5,0-0.7,0c-6.1,0.4-11,3-13.7,8.7c-5.3,11.5-10.4,23.1-15.6,34.7c-0.3,0.8-0.6,1.5-0.7,2.3
		c-0.7,2.4,0.7,4.9,3.1,5.5c0.4,0.1,0.9,0.2,1.3,0.2c0.4,0,0.9,0,1.3,0L112.9,148.8z"/>
	<path class="st2" d="M112.9,148.8H14.9c-0.4,0-0.9,0-1.3,0c-2.5,0-4.5-2-4.5-4.4c0-0.4,0.1-0.8,0.2-1.2c0.1-0.8,0.4-1.6,0.7-2.3
		c5.2-11.6,10.3-23.2,15.6-34.7c2.7-5.7,7.5-8.3,13.7-8.7c0.2,0,0.5,0,0.7,0h194.8c1,0,2,0.1,3,0.3c2.2,0.5,3.6,2.6,3.2,4.8
		c-0.1,1-0.4,2-0.8,3c-5.2,11.8-10.4,23.5-15.8,35.2c-2.1,4.5-6.1,6.8-10.8,7.9c-0.9,0.2-1.8,0.3-2.7,0.2L112.9,148.8z M112.9,147.6
		L112.9,147.6c32.7,0,65.4,0,98.1,0c5.4,0.2,10.4-3,12.5-8c4.9-10.7,9.6-21.3,14.4-32c0.7-1.4,1.3-2.9,1.7-4.5
		c0.6-1.6-0.3-3.4-1.9-4c-0.3-0.1-0.6-0.2-0.9-0.2c-0.6-0.1-1.3-0.2-1.9-0.1H39.5c-0.8,0-1.5,0-2.3,0.2c-4.8,1-8.7,3.4-10.8,8.1
		c-4.7,10.5-9.5,21-14.2,31.6c-0.8,1.7-1.4,3.4-1.9,5.2c-0.4,1.5,0.5,3.1,2,3.4c0,0,0,0,0.1,0c0.8,0.2,1.5,0.3,2.3,0.3
		c17,0,34.1,0,51.1,0L112.9,147.6z"/>
</g>
</svg>
