<?xml version="1.0" encoding="utf-8"?>
<!-- Generator: Adobe Illustrator 21.1.0, SVG Export Plug-In . SVG Version: 6.00 Build 0)  -->
<svg version="1.1" id="Layer_1" xmlns="http://www.w3.org/2000/svg" xmlns:xlink="http://www.w3.org/1999/xlink" x="0px" y="0px"
	 viewBox="0 0 250 250" style="enable-background:new 0 0 250 250;" xml:space="preserve">
<style type="text/css">
	.st0{fill:#366649;}
</style>
<title>Grocery</title>
<path class="st0" d="M5,103.3c5.5-0.3,10.9-0.3,16.4,0.1c2.5,0.2,4.9,0.7,7.2,1.6c3,1.2,5.4,3.7,6.3,6.8c1.1,3.2,1.2,6.6,0.4,9.8
	c-0.6,3-2.8,5.4-5.7,6.2c-0.2,0.1-0.5,0.2-0.7,0.3c-0.9,0.2-0.9,0.6-0.5,1.3c2.2,3.4,4.3,6.8,6.5,10.3c1.1,1.8,2.2,3.6,3.4,5.3
	c0.4,0.5,0.2,0.7-0.4,0.7H25.4c-0.5,0-0.9-0.3-1-0.7c-2-3.9-4-7.8-6-11.7c-0.2-0.4-0.3-1.1-0.8-0.9s-0.3,0.8-0.3,1.3
	c0,3.7,0,7.4,0,11.1c0,0.9-0.3,1.1-1.1,1.1c-3.7,0-7.5,0-11.2,0L5,103.3z M17.2,118.2c0,1.1,0,2.3,0,3.4c0,0.5,0.1,1,0.8,1
	c1.1,0.1,2.3,0,3.4-0.2c1.8-0.6,3.1-2.1,3.3-3.9c0-1.9-1.2-3.6-3-4.3c-1.1-0.3-2.3-0.5-3.5-0.4c-0.8,0-1,0.4-1,1.1
	C17.2,116.1,17.2,117.1,17.2,118.2z"/>
<path class="st0" d="M170.8,146.9l-4-0.4c-5.9-0.7-11.5-6.5-12.4-12.2c-1.3-7.7,4.8-14.9,12-16.1c6.1-1.1,11.6,0.2,15.7,5
	c5.7,6.7,3.6,16.9-4,21.3c-1.7,1.1-3.6,1.8-5.6,2c-0.3,0-0.6,0.2-0.7,0.4L170.8,146.9z M169.5,136.5c2.3,0.2,4.4-1.6,4.6-3.9
	s-1.6-4.4-3.9-4.6c-0.1,0-0.2,0-0.2,0c-2.2,0.1-3.9,1.8-4.1,4c-0.3,2.2,1.3,4.2,3.5,4.5C169.3,136.4,169.4,136.4,169.5,136.5
	L169.5,136.5z"/>
<path class="st0" d="M121.2,124.5c0-6.7,0-13.3,0-19.9c0-1.1,0.3-1.3,1.3-1.3c3.1,0,6.1,0,9.2,0c0.9,0,1.2,0.3,1.2,1.2
	c0,5.3,0,10.7,0,16c0,0.4-0.2,1,0.3,1.2c0.5,0.2,0.7-0.4,0.9-0.7c5.3-4.8,12.2-3.7,16.1,2.5c3.5,5.7,3.2,12.9-0.7,18.3
	c-3.1,4.2-8,5.2-13.1,2.8c-1-0.5-1.8-1-2.7-1.7c-0.2-0.2-0.4-0.4-0.7-0.3s-0.3,0.4-0.3,0.7s0,0.1,0,0.2c-0.1,2.3-0.1,2.3-2.4,2.3
	c-2.7,0-5.5,0-8.2,0c-1,0-1.1-0.3-1.1-1.2C121.3,137.9,121.2,131.2,121.2,124.5z M140.7,132.2c0-2.3-1.9-4.2-4.2-4.3
	c-2.2,0.2-3.9,2-4,4.3c-0.2,2.2,1.4,4.1,3.5,4.3c0.1,0,0.2,0,0.3,0c2.4,0.1,4.3-1.8,4.4-4.1C140.7,132.3,140.7,132.3,140.7,132.2z"
	/>
<path class="st0" d="M190.9,118.8c1.7,0,3.4,0,5.1,0c0.6-0.1,1.1,0.3,1.2,0.9c0,0,0,0,0,0.1c0.9,3,1.8,6.1,2.7,9.1
	c0.1,0.3,0,0.9,0.6,0.9c0.6,0,0.4-0.5,0.6-0.9c1.1-3.1,2.1-6.1,3.1-9.2c0.1-0.6,0.6-0.9,1.2-0.9c1.9,0,3.8,0,5.6,0
	c0.6-0.1,1.2,0.3,1.3,0.9c0,0,0,0,0,0c1,3.1,2.1,6.3,3.2,9.4c0.1,0.3,0.1,0.8,0.6,0.8c0.5,0,0.5-0.5,0.6-0.8
	c0.9-3.1,1.8-6.2,2.7-9.2c0.2-0.6,0.4-1,1.2-1c3.5,0,7.1,0,10.7,0c0.7,0,1,0,0.7,0.9c-3.1,8.4-6.1,16.7-9.1,25.1
	c-0.2,0.6-0.8,1.1-1.4,1c-2.5,0-4.9,0-7.4,0c-0.6,0.1-1.2-0.3-1.3-0.9c-1.2-3.2-2.5-6.3-3.7-9.5c-0.1-0.4-0.1-1-0.7-1
	s-0.5,0.7-0.6,1.1c-1.1,3.2-2.2,6.4-3.3,9.6c-0.1,0.4-0.5,0.7-0.9,0.7c-2.7,0-5.3,0-8,0c-0.8,0-0.9-0.5-1.1-1.1l-7.7-21.1
	c-0.5-1.3-0.9-2.6-1.4-3.8c-0.4-0.9,0-1,0.7-1C187.4,118.8,189.2,118.8,190.9,118.8z"/>
<path class="st0" d="M68.5,132.2c0,4.1,0,8.3,0,12.4c0,0.9-0.2,1.2-1.2,1.2c-3.1,0-6.1,0-9.2,0c-0.8,0-1.2-0.2-1.2-1.1
	c0-0.7,0.4-1.6-0.3-2s-1,0.7-1.5,1c-6.3,4.7-12.5,2.4-16-3.8c-3.2-6-2.4-13.3,2-18.4c2.5-3,6.6-4.1,10.2-2.7
	c1.6,0.6,3.2,1.4,4.5,2.5c0.2,0.2,0.4,0.4,0.7,0.3s0.3-0.5,0.3-0.7c0.2-2.2,0.2-2.2,2.4-2.2h7.5c1.5,0,1.5,0,1.5,1.6
	C68.5,124.3,68.5,128.2,68.5,132.2z M49.2,132.3c-0.2,2.2,1.5,4,3.6,4.2c0.1,0,0.1,0,0.2,0c2.4,0,4.4-1.9,4.4-4.3c0,0,0,0,0,0
	c0.1-2.3-1.6-4.2-3.8-4.3c-2.3-0.1-4.2,1.6-4.3,3.8C49.2,131.8,49.2,132.1,49.2,132.3L49.2,132.3z"/>
<path class="st0" d="M88.2,132.2c0-4.1,0-8.3,0-12.4c0-0.8,0.2-1.1,1.1-1.1c3.1,0.1,6.1,0.1,9.2,0.1c1.1,0,1.5,0.4,1.3,1.4
	c0,0.2,0,0.4,0,0.7c0,0.7,0.3,0.8,0.9,0.4c0.9-0.7,1.9-1.4,2.9-2.1c3.2-2.1,9.2-1.5,11.9,1.1c1.3,1.3,1.9,3.1,1.8,4.9
	c0,6.6,0,13.1,0.1,19.7c0,0.5-0.2,0.7-0.7,0.7c-3.4,0-6.7,0-10.1,0c-0.7,0-0.7-0.3-0.7-0.9c0.1-2,0.1-4,0.2-6
	c0.2-3.2,0.1-6.3-0.4-9.5c-0.1-1.5-1.3-2.7-2.9-2.7c-0.1,0-0.1,0-0.2,0c-1.6,0.1-2.8,1.4-2.8,3c-0.4,5-0.4,9.9,0,14.9
	c0,0.9-0.2,1.1-1.1,1.1c-3.1,0-6.3,0-9.4,0c-0.9,0-1.2-0.2-1.2-1.2c0-4.1,0-8.3,0-12.4L88.2,132.2z"/>
<path class="st0" d="M84.1,132.3c0,4.1,0,8.3,0,12.4c0,0.8-0.2,1.1-1,1.1c-3.1,0-6.3,0-9.3,0c-0.8,0-1.1-0.2-1.1-1.1
	c0-8.3,0-16.6,0-24.9c0-0.8,0.2-1.1,1.1-1.1c3.1,0,6.2,0,9.3,0c0.8,0,1.1,0.2,1.1,1.1C84.1,124,84.1,128.1,84.1,132.3L84.1,132.3z"
	/>
<path class="st0" d="M238.5,118.7c-3.6,0-6.5-2.9-6.5-6.5c0-3.6,2.9-6.5,6.5-6.5c3.6,0,6.5,2.9,6.5,6.5
	C245,115.8,242.1,118.7,238.5,118.7L238.5,118.7z M238.5,106.9c-2.9,0-5.3,2.4-5.3,5.3s2.4,5.3,5.3,5.3c2.9,0,5.3-2.4,5.3-5.3
	S241.5,106.9,238.5,106.9z"/>
<path class="st0" d="M236.2,108.9c0.6-0.1,1.1-0.2,1.7-0.1c0.7-0.1,1.4,0.1,2,0.6c0.4,0.3,0.6,0.8,0.5,1.3c0,0.8-0.5,1.6-1.3,1.8
	l0,0c0.6,0.2,1,0.8,1,1.4c0.1,0.7,0.3,1.3,0.5,1.9h-0.9c-0.2-0.5-0.4-1.1-0.5-1.7c-0.2-1-0.6-1.3-1.3-1.3h-0.9v3h-0.9L236.2,108.9z
	 M237.1,112h0.9c1,0,1.6-0.5,1.6-1.3s-0.7-1.3-1.6-1.3c-0.3,0-0.6,0-0.9,0.1V112z"/>
</svg>
