<?xml version="1.0" encoding="utf-8"?>
<!-- Generator: Adobe Illustrator 21.1.0, SVG Export Plug-In . SVG Version: 6.00 Build 0)  -->
<svg version="1.1" id="Layer_1" xmlns="http://www.w3.org/2000/svg" xmlns:xlink="http://www.w3.org/1999/xlink" x="0px" y="0px"
	 viewBox="0 0 250 250" style="enable-background:new 0 0 250 250;" xml:space="preserve">
<style type="text/css">
	.st0{fill:#FFFFFF;}
	.st1{fill:#E4412B;}
</style>
<title>Grocery</title>
<path class="st0" d="M41.1,93.1c-22.9,8.3-35.6,19.5-35.6,31.5s12.7,23.2,35.6,31.4c22.6,8.1,52.5,12.6,84.4,12.6
	s61.8-4.5,84.4-12.6c22.9-8.3,35.6-19.5,35.6-31.4s-12.6-23.1-35.6-31.5c-22.6-8.1-52.5-12.6-84.4-12.6S63.6,85.1,41.1,93.1"/>
<path class="st1" d="M125.5,167.5c65.6,0,118.8-19.2,118.8-42.9s-53.2-42.9-118.8-42.9S6.7,100.9,6.7,124.6S59.8,167.5,125.5,167.5"
	/>
<path class="st0" d="M60.5,126.6c1.6,5.1,7.6,21.8,19,29.9c0,0,1.7,1,1.5,2c0,0,0.2,1.9-2.3,1.6c0,0-6.7,0.2-11-2.9
	c-4.1-4-7.5-8.7-10-13.9c0,0-5.6-12-7.1-16.8c-0.1-0.3-0.1-0.5-0.2-0.8l-0.3-2.6c0,0-0.7-1.7,2-1.8l5.2-0.1c2.5-0.1,5-1.1,6.9-2.7
	c3.7-4.1,6.1-9.2,6.9-14.7c0,0,0.9-7.3-7.8-7.5c0,0-9.3-0.8-11,8.5l-5.2,21.7l-4,16.8c0,0-1.1,4.7-4.4,4.5l-7.3,0.2
	c0,0-3.2-2.7,0.9-4.2c0,0,2.1,0.7,3.1-5.5l2.8-11.9l4.6-19.5c0,0,2-6.8-1.3-6.1c0,0-1.8-0.1-1.5-1.4c0-1,0.8-1.9,1.8-2.1l17.4-4.5
	c0,0,10.7-1.5,14.7,0.1c4.3,1.4,7.1,5.6,6.9,10.1c0.1,5.7-2.1,11.1-6.2,15c0,0-7.6,7-14.8,6.9C60,125.1,60.2,125.7,60.5,126.6"/>
<path class="st0" d="M119.4,144.7c0.1-0.9,0.3-1.8,0.5-2.8c-0.6,1-1.4,2-2.2,2.8c-1.8,2.1-4.3,3.4-7.1,3.6c0,0-3,0.3-4.3-3.6
	c-0.3-1-0.5-1.9-0.5-2.9c-0.6,1.1-1.4,2-2.2,2.9c-1.6,2.1-4,3.4-6.7,3.6c-2.2-0.1-4.1-1.5-4.8-3.6c-0.5-1.4-0.6-2.9-0.4-4.4
	c-1,1.6-2.3,3.1-3.8,4.4c-3,2.8-7,4.1-11,3.7c0,0-2.4,0-3.9-3.7c-1-2.8-1.5-5.7-1.3-8.6c0.3-3.2,0.9-6.4,1.8-9.4
	c0.8-2.8,2.1-5.4,3.8-7.8c0,0,7.5-12,14.2-12.1c0,0,2.3-1.4,6.7,1.8c2,0.6,4.2,0.3,6.1-0.7c0,0,3.4-1.9,3.2,0.8l-4.3,18l-2.1,8.8
	c0,0,0.2,8.4,4.9,1.5l2.5-10.2l5.4-22.4c0,0,1.6-5.7-2.2-4.6c0,0-2.7-1.6-0.3-3.2c2.9-2.7,6.4-4.7,10.1-6c0,0,5.2-1.9,4,2.8l-8,33.3
	l-1.7,6.9c0,0-1.6,9.4,3.7,5c0,0,0.6,0.2,3.3-8.1c0,0,0.6-1.6,1.3-3.8c1.4-4.8,3.2-12.2-0.2-11c0,0-4.1-0.3-0.8-3.1
	c0,0,7.8-5.5,11.2-5.3c0,0,3.6-0.7,2.3,2.9c0,0-3.3,7.7,1.5,1.9c0,0,4.2-5.1,10.1-5.3c0,0,7.2-0.6,7.4,6.7c0.3,4.4-0.1,8.9-1.2,13.2
	c-1.5,7.1-5.4,13.5-11,18c-0.8,0.7-1.7,1.3-2.7,1.9c0,0-6.8,4.4-12.1-1c0,0-2.2,10.1-3.7,13c0,0,0,4-7.3,4.2c0,0-5.1,0.6-5.3-1.3
	c0,0-0.8-1.7,3.6-3c0,0,1.2,0.3,3.7-13.7 M95.4,122.3c1.4-10.4-1.3-11.4-1.3-11.4c-5.6-3.9-10.5,11.6-10.5,11.6
	c-3.4,9.2-2.7,14.5-2.7,14.5c2.1,6,6.9,1.3,6.9,1.3c5.6-3.9,7.6-15.8,7.6-15.8L95.4,122.3z M145.6,117.9c-3.4-9.3-10.2,1.3-10.2,1.3
	c-7.8,15.5-4.8,21.9-4.8,21.9c2.3,5,7.1,0.8,7.1,0.8c5.4-6.8,8.2-15.3,7.8-23.9L145.6,117.9z"/>
<path class="st0" d="M201,120.7c2.5,1.4,5.2,2.4,8.1,3c0,0,6.9,2,6.3,8.7c0,0,0.5,12.4-20.7,15.3c0,0-7.4,0.4-9.3-3.8
	c0,0-9.8,10.1-12.6-1.7c0.1-4.2,1-8.4,2.7-12.3c0,0,1.6-5.5,2.8-9.2c0-0.2,0.1-0.3,0.1-0.5c0-0.1,2.3-5.9-2.5-5.8
	c0,0-3.1-0.9-8.2,6.2l0,0c-0.3,0.4-2.5,3.3-4.7,13.1c0,0-1.9,9.4-2.4,10.3c0,0-1,3.1-3.8,3.2h-6.2c0,0-2.9-0.8-0.8-2.7
	c0,0,2.2-0.5,3.1-4.2l4.7-19.7l3.3-13.9c0,0,1.6-5.1-2-4.8c0,0-3.7-0.5-0.2-3.3c0,0,6.1-4.3,9.5-5c0,0,5-2,4.1,2.2
	c0,0-5.7,20.6-3.9,18.7c0,0,5.5-7.8,14.8-8c0,0,6.7,0.4,6,7.1c0,0-0.4,2.5-1.5,7.1c-0.9,3.9-2.4,9.3-4.6,15.9c0,0-1,3.1,1.5,3
	c0,0,1.8,0.1,3.5-3.3c0,0,3.9-6.3,5.1-1.5c0,0-0.7,4.9-0.1,4.9c0,0-0.4,1.8,5.4,2.9c0,0,6.8-0.4,7.8-5.5c0,0,0.8-6.4-6.9-6.9
	c0,0-10.1-3-9.6-9.6v-0.2c0,0-1.3-8.7,12.1-12.9c0,0,10.2-2.6,15,1.4c0,0,4.2,2.1,0.7,6.4c0,0-2.2,3.6-4.3,3.4c0,0-2.4,0.3-2.3-3.1
	c0,0,1.3-4.3-5.9-5c0,0-7.3,0.7-7,5.8C198,116.7,197.6,118.6,201,120.7"/>
<path class="st0" d="M133.2,158.7h-0.7v-3.5h1.3c0.9,0,1.4,0.3,1.4,1.1c0.1,0.4-0.3,0.9-0.7,0.9c0,0-0.1,0-0.1,0l0.9,1.5h-0.9
	l-0.8-1.5h-0.4L133.2,158.7 M133.8,156.6c0.3,0,0.5,0,0.5-0.5c0-0.5-0.4-0.4-0.7-0.4h-0.5v0.8L133.8,156.6L133.8,156.6z
	 M133.7,160.2c-1.8,0-3.2-1.5-3.2-3.3c0-1.8,1.5-3.2,3.3-3.2c1.8,0,3.2,1.5,3.2,3.3c0.1,1.7-1.3,3.2-3,3.2
	C133.9,160.2,133.8,160.2,133.7,160.2L133.7,160.2z M133.7,154.4c-1.4,0-2.5,1.1-2.5,2.5c0,1.4,1.1,2.5,2.5,2.5l0,0
	c1.4-0.1,2.4-1.4,2.2-2.8C135.8,155.5,134.9,154.6,133.7,154.4z"/>
</svg>
