<?xml version="1.0" encoding="utf-8"?>
<!-- Generator: Adobe Illustrator 21.1.0, SVG Export Plug-In . SVG Version: 6.00 Build 0)  -->
<svg version="1.1" id="Layer_1" xmlns="http://www.w3.org/2000/svg" xmlns:xlink="http://www.w3.org/1999/xlink" x="0px" y="0px"
	 viewBox="0 0 250 250" style="enable-background:new 0 0 250 250;" xml:space="preserve">
<style type="text/css">
	.st0{fill:#FFFFFF;}
	.st1{fill:#EF072E;}
	.st2{fill:#0028FC;}
</style>
<title>Grocery</title>
<rect x="7.5" y="98.3" class="st0" width="225.5" height="43.4"/>
<path class="st1" d="M120,146.5h114.5c0.5,0,0.5,0,0.5,0.5c0,1.9,0,3.8,0,5.7c0.1,0.5-0.3,1.1-0.8,1.1c-0.1,0-0.2,0-0.3,0H6.3
	c-0.2,0-0.5,0-0.7,0C5.2,153.6,5,153.3,5,153c0-2.1,0-4.1,0-6.2c0-0.2,0-0.3,0.3-0.3L120,146.5L120,146.5z"/>
<path class="st2" d="M242.3,148.3c1.5,0,2.7,1.2,2.7,2.7s-1.2,2.7-2.7,2.7c-1.3-0.1-2.4-1-2.7-2.3c-0.2-1.5,0.8-2.8,2.3-3
	C242,148.3,242.2,148.3,242.3,148.3z M240,151c0,1.3,1,2.3,2.3,2.3c1.3,0,2.3-1,2.3-2.3c0.1-1.2-0.9-2.3-2.1-2.3c-0.1,0-0.1,0-0.2,0
	c-1.2,0-2.3,0.9-2.3,2.2C240,150.9,240,150.9,240,151L240,151z"/>
<path class="st2" d="M120,143.8H5.6c-0.6,0-0.6,0-0.6-0.6c0-15.3,0-30.6,0-46c0-0.5,0.3-1,0.8-1c0.1,0,0.1,0,0.2,0h227.8
	c0.5,0,1,0.4,1.1,0.9c0,0,0,0.1,0,0.1c0,15.4,0,30.8,0,46.1c0,0.3-0.1,0.4-0.4,0.4L120,143.8z M128.3,120.4c0-0.3,0-0.5-0.1-0.8
	c-0.1-0.8-0.6-1.4-1.3-1.7c-0.9-0.4-1.8-0.5-2.7-0.4c-1,0.1-2,0.4-3,0.8c-1.5,0.8-2.9,1.8-4.1,3c-1.1,1-2.1,2.2-3,3.4
	c-0.4,0.5-0.8,1.1-1.1,1.7c-0.7,1.7-2.3,2.8-4.1,2.7c-0.3,0-0.6-0.2-0.7-0.6c-0.1-0.4,0-0.9,0.1-1.3c0.3-1,0.7-2,1-3.1
	c0.3-0.8,0.4-1.7,0.3-2.5c-0.1-0.6-0.4-1.2-0.9-1.7c-1.1-0.9-2.5-1.3-3.9-1.1c-1.1,0.2-2.2,0.7-3.1,1.3c-0.7,0.4-1.3,0.9-1.9,1.5
	c-0.7,0.6-1.3,1.2-1.8,1.9c-0.3,0.3-0.6,0.7-0.9,1.1c-0.1,0.1-0.2,0.2-0.3,0.2c-0.1-0.1-0.1-0.2,0-0.4c0.2-0.8,0.5-1.5,0.8-2.2
	c0.3-0.8,0.6-1.6,0.9-2.4c0.1-0.7-0.1-1.1-0.6-1.2c-0.6-0.1-1.2-0.2-1.8-0.3c-1-0.1-1.9,0-2.9,0.1c-0.7,0.1-1.3,0.3-1.9,0.6
	c-0.3,0.1-0.6,0.4-0.8,0.7c-0.2,0.6-0.4,1.1-0.7,1.6c-0.7,1.2-1.5,2.3-2.5,3.3c-0.8,0.9-1.7,1.7-2.7,2.5c-1,0.7-2.1,1.4-3.2,1.9
	c-0.4,0.2-0.7,0-0.6-0.5c0.1-1.2,0.4-2.3,0.7-3.4c0.6-1.7,1.1-3.5,1.8-5.2c0.1-0.2,0.1-0.4-0.1-0.6c-0.2-0.2-0.4-0.4-0.6-0.5
	c-0.7-0.4-1.5-0.6-2.3-0.6c-1.3-0.1-2.6,0-3.8,0.5c-0.7,0.3-1.2,0.7-1.6,1.3c0,0.1-0.1,0.3-0.2,0.2c-0.1,0-0.1-0.2-0.1-0.3
	c-0.1-0.8-0.6-1.5-1.2-1.9c-0.8-0.4-1.7-0.6-2.6-0.4c-1.4,0.2-2.8,0.6-4,1.3c-1.3,0.7-2.5,1.6-3.6,2.7c-0.6,0.6-1.2,1.2-1.7,1.9
	c-1.1,1.4-2,2.9-2.7,4.5c-0.5,1.2-0.8,2.4-0.9,3.7c0,0.6,0,1.2,0.2,1.8c0.2,1,0.9,1.9,1.9,2.4c1.1,0.5,2.4,0.8,3.6,0.6
	c1.8-0.3,3.5-1,5-2c1.3-0.8,2.5-1.8,3.5-2.9c0.1-0.2,0.3-0.3,0.4-0.5c0.1,0.3,0,0.4,0,0.6c0,0.7,0,1.5,0.1,2.2
	c0.1,0.9,0.7,1.7,1.5,2.1c1.1,0.5,2.4,0.5,3.5,0.2c1.4-0.3,2.7-0.9,3.8-1.7c1.5-1,3-2.1,4.4-3.3c0.2-0.2,0.5-0.4,0.8-0.5
	c0.3-0.1,0.4-0.1,0.4,0.3c0,0.2-0.1,0.4-0.2,0.5c-0.6,1.2-1.1,2.5-1.7,3.7c-0.2,0.3-0.1,0.8,0.2,1c0,0,0,0,0.1,0
	c0.3,0.2,0.6,0.2,0.9,0.2c2,0,4,0,6,0c1.1,0,2-0.5,2.5-1.5c0.3-0.7,0.7-1.3,1.1-1.9c0.5-0.7,1-1.3,1.5-1.9c0.3-0.3,0.6-0.6,0.9-0.8
	c0.1-0.1,0.2-0.1,0.3-0.1c0,0.1,0,0.2,0,0.3c-0.4,1.3-0.5,2.6-0.2,3.9c0.2,1.2,1.1,2.1,2.3,2.4c0.6,0.1,1.2,0.2,1.8,0.1
	c0.7,0,1.3-0.2,2-0.3c1.4-0.4,2.8-1.1,4-2c0.9-0.7,1.8-1.3,2.8-2.1c0,0.6,0.1,1.1,0.4,1.7c0.3,0.6,0.7,1.1,1.2,1.5
	c0.7,0.6,1.6,0.9,2.5,0.9c0.8,0,1.6-0.1,2.4-0.3c1.5-0.4,2.8-1,4.1-1.7c1.4-0.8,2.8-1.8,3.9-3c0,0,0.1-0.1,0.2-0.1
	c0,0.1,0,0.1,0,0.2c-0.2,0.9-0.2,1.8,0,2.7c0.1,1.3,1.2,2.2,2.4,2.3c1.2,0.1,2.5,0,3.7-0.3c1.1-0.3,2.1-0.6,3.1-1
	c0.9-0.3,1.8-0.8,2.7-1.2c0.2-0.1,0.3-0.1,0.4,0.1c0.4,0.9,1.2,1.7,2.1,2.1c1.1,0.5,2.4,0.6,3.6,0.4c1.3-0.2,2.6-0.7,3.8-1.3
	c1.7-1,3.3-2.1,4.7-3.5c0,0,0.1-0.2,0.2-0.2c0,0.1,0,0.2,0,0.4c-0.2,1-0.1,2.1,0.1,3.1c0.1,0.9,0.8,1.6,1.6,1.9
	c0.7,0.2,1.5,0.2,2.2,0c1.4-0.4,2.7-1,3.9-1.8c1.3-0.8,2.5-1.7,3.6-2.8c0.1,0.1,0.2,0.3,0.3,0.5c0.4,0.7,0.9,1.4,1.5,1.9
	c1.3,1.1,3,1.7,4.7,1.7c1,0,1.9-0.1,2.9-0.3c2.3-0.6,4.6-1.5,6.5-2.9c0.5-0.3,1-0.7,1.5-1c0.2-0.1,0.3-0.1,0.3,0.1
	c0.1,0.3,0.2,0.5,0.4,0.8c0.7,1.4,1.9,2.5,3.5,3c1.3,0.4,2.7,0.5,4.1,0.3c1.5-0.3,3-0.8,4.4-1.5c1-0.5,1.9-1,2.8-1.6
	c0.1,0,0.1,0,0.2,0c0.2,0.2,0.4,0.4,0.6,0.6c1,0.8,2.2,1.4,3.4,1.8c1.3,0.4,2.6,0.7,4,0.7c1.1,0.1,2.2,0,3.4-0.1
	c1.1-0.1,2.1-0.3,3.2-0.5c1.5-0.4,3-0.8,4.4-1.4c1.2-0.5,2.4-1.1,3.5-1.7c0.1-0.1,0.2-0.2,0.3-0.3c0.2-0.6,0.4-1.2,0.6-1.8l1.3-4.1
	c0.2-0.5,0.3-1.1,0.5-1.6c-0.5,0.2-1.1,0.4-1.5,0.7c-1,0.7-1.9,1.5-2.8,2.2c-0.6,0.5-1.3,0.9-2,1.2c0-0.2,0-0.4,0.1-0.5
	c0.3-0.8,0.7-1.5,0.9-2.3c0.3-1,0.4-2.1,0.3-3.2c-0.1-1.1-0.4-2.2-0.7-3.3c-0.1-0.4-0.2-0.9-0.2-1.3c0.1-0.6,0.4-1.2,0.7-1.7
	c0.5-0.9,1.2-1.8,1.7-2.8c0.3-0.7,0.3-0.7-0.4-0.9c-1-0.1-2-0.2-3-0.3c-1-0.1-1.8,0-2.8,0c-0.3,0-0.6,0-0.7,0.4
	c-0.1,0.1-0.1,0.3-0.2,0.4c-0.9,1.3-1.9,2.5-2.9,3.7c-0.9,1.1-1.9,2.2-2.8,3.2c-1,1.1-1.6,1.7-2.4,2.5c-0.8,0.8-1.6,1.5-2.4,2.3
	c-0.9,0.9-1.9,1.7-2.9,2.5c-1.1,0.9-2.3,1.7-3.6,2.3c-0.5,0.3-1.1,0.4-1.7,0.4c-0.8,0-1.5-0.6-1.7-1.3c-0.2-0.9-0.3-1.7-0.2-2.6
	c0-0.2,0.1-0.4,0.3-0.5c1-0.7,2-1.5,2.9-2.3c1-0.9,1.9-1.9,2.8-2.9c0.3-0.3,0.5-0.6,0.8-0.9c0.5-0.7,1.1-1.3,1.5-2.1
	c1.1-1.5,2-3.2,2.6-5.1c0.3-0.9,0.4-1.8,0.2-2.8c-0.5-1.7-2-2.9-3.7-3c-1.2,0-2.4,0.3-3.4,0.9c-1.4,0.8-2.7,1.9-3.8,3.1
	c-1,1-1.8,2.1-2.7,3.2c-1.2,1.6-2.3,3.3-3.3,5.1c-0.7,1.2-1.3,2.4-1.8,3.6c-0.5,1.1-0.9,2.2-1.2,3.3c0,0.2,0,0.5-0.3,0.6
	c-0.2,0.2-0.5,0.3-0.7,0.5c-0.9,0.7-1.9,1.4-2.9,1.9c-0.9,0.5-1.9,0.8-2.9,0.9c-0.7,0-1.4-0.5-1.6-1.2c-0.2-0.9-0.3-1.8-0.1-2.7
	c0-0.2,0.1-0.3,0.2-0.4c1.3-0.9,2.5-1.9,3.6-3c0.7-0.7,1.4-1.3,2-2.1c0.7-0.8,1.3-1.5,2-2.3c0.7-1,1.3-2,1.8-3.1
	c0.7-1.2,1.1-2.5,1.3-3.8c0.1-0.7,0-1.4-0.2-2.1c-0.2-0.7-0.7-1.4-1.3-1.8c-0.3-0.3-0.7-0.5-1.1-0.6c-0.5-0.2-1.1-0.2-1.7-0.2
	c-0.7,0.1-1.3,0.2-1.9,0.5c-1.7,0.8-3.2,1.8-4.5,3.1c-0.5,0.5-1,1.1-1.5,1.6c-0.8,0.9-1.5,1.8-2.2,2.8c-1.6,2.3-2.9,4.7-4,7.2
	c-0.7,1.7-1.4,3.4-1.9,5.1c-0.1,0.3-0.2,0.5-0.3,0.7c-0.6,0.8-1.4,1.3-2.3,1.6c-0.4,0.2-1,0-1.1-0.5c0-0.1,0-0.1-0.1-0.2
	c-0.1-0.4,0-0.8,0.1-1.1c0.3-1.3,0.8-2.5,1.2-3.8c0.4-1.3,0.9-2.3,1.3-3.5c0.3-0.6,0-1.3-0.6-1.6c-0.1,0-0.1,0-0.2-0.1
	c-1.1-0.3-2.3-0.5-3.5-0.5c-0.7,0-1.5,0-2.2,0.2c-0.9,0.1-1.7,0.7-2.1,1.5c0,0.1,0,0.2-0.1,0.2s-0.1-0.2-0.2-0.3
	c-0.1-0.8-0.5-1.4-1.2-1.9c-0.9-0.5-1.9-0.7-2.8-0.4c-1.5,0.2-2.9,0.8-4.2,1.6c-1.6,1-3,2.2-4.2,3.6c-0.8,0.9-1.5,1.8-2.2,2.8
	c-0.6,0.9-1.1,1.9-1.5,2.9c-0.2,0.5-0.6,1-1.1,1.2c-1,0.4-2,0.5-3,0.5c-0.6,0-0.8-0.3-0.6-0.8l1.7-5.1c0.9-2.7,1.8-5.5,2.7-8.2
	c0.6-1.8,1.2-3.5,1.8-5.3c0.2-0.4,0.3-0.9,0.3-1.3c0-0.5-0.4-0.6-0.7-0.6c-0.4,0-0.7,0.1-1,0.2c-1.8,0.4-3.5,0.9-5.2,1.5
	c-0.9,0.3-1.7,1-2,1.9c-0.9,2.2-1.7,4.4-2.5,6.7C128.6,119.6,128.5,120,128.3,120.4L128.3,120.4z M34.7,125.8c0,0.4,0.1,0.8,0.1,1.2
	c0,0.5,0,1,0.1,1.5c0.2,1,0.4,2,0.8,2.9c0.7,1.6,1.9,3,3.5,3.8c1.2,0.6,2.6,1,4,1c1.2,0.1,2.4,0,3.6-0.2c1.3-0.3,2.5-0.7,3.6-1.3
	c1.5-0.8,2.8-1.7,3.9-2.9c0.9-0.9,1.6-1.9,2.3-2.9c0.7-1,1.3-2.1,1.8-3.2c0.5-1,0.9-2.1,1.1-3.2c0-0.2,0-0.4-0.1-0.6
	c-0.2-0.1-0.4-0.1-0.6,0l-0.3,0.1c-0.3,0.2-0.7,0.4-1,0.6c-1.2,0.6-2.5,1.2-3.8,1.5c-0.9,0.3-1.9,0.4-2.9,0.3
	c-0.8-0.1-1.5-0.7-1.7-1.5c0-0.2-0.1-0.4,0.2-0.5c0.1,0,0.3-0.1,0.4-0.2c1.2-0.6,2.4-1.3,3.4-2.1c1.5-1,2.8-2.2,4-3.5
	c1-1.1,1.8-2.5,2.4-3.9c0.4-1.2,0.4-2.5,0-3.8c-0.3-0.8-0.8-1.4-1.4-1.9c-1.3-0.9-2.8-1.5-4.3-1.9c-1.2-0.3-2.5-0.5-3.8-0.7
	c-1-0.1-1.9-0.2-2.9-0.3s-1.7-0.1-2.5-0.1c-1.6,0-3.1-0.1-4.7,0c-0.9,0.1-1.9,0.1-2.8,0.1c-0.7,0-1.4,0.1-2.1,0.2
	c-1,0.1-2.1,0.2-3.1,0.4c-1,0.1-1.8,0.3-2.7,0.4c-0.9,0.2-2.1,0.5-3.1,0.7c-0.6,0.1-1.2,0.5-1.5,1c-1.1,1.8-2,3.7-2.7,5.6
	c-0.6,1.7-1.1,3.5-1.4,5.3c-0.1,0.4-0.1,0.8,0,1.2c0.2,0.5,0.8,0.8,1.3,0.7c0,0,0,0,0,0c0.6-0.1,1.2-0.1,1.8,0
	c0.3,0,0.2,0.1,0.2,0.3c-0.4,1-0.8,2-1.2,3.1c-0.5,1.4-1,2.9-1.5,4.3c-0.3,1.1-0.7,2.3-1,3.4s-0.6,2.5-0.9,3.8
	c-0.1,0.5-0.1,0.6,0.4,0.9c1.4,0.6,2.8,0.9,4.3,0.9c1.4,0.1,2.8,0,4.2-0.3c0.9-0.1,1.7-0.4,2.5-0.9c0.3-0.2,0.7-0.3,0.8-0.7
	c0.2-1.1,0.6-2.2,1-3.3c0.5-1.5,1.1-2.9,1.7-4.4C34.3,126.6,34.5,126.2,34.7,125.8L34.7,125.8z"/>
<path class="st2" d="M191.2,121.7c0.3-1,0.8-1.9,1.2-2.9c0.7-1.4,1.5-2.7,2.3-3.9c0.6-1,1.4-1.9,2.4-2.7c0.3-0.3,0.7-0.4,1.1-0.3
	c0.6,0.2,0.6,0.7,0.5,1.1c-0.2,1-0.7,2-1.3,2.9c-0.8,1.2-1.8,2.2-2.9,3.2C193.5,120,192.4,120.9,191.2,121.7z"/>
<path class="st2" d="M173.9,121.6c0.3-1,0.7-1.9,1.2-2.8c0.7-1.4,1.5-2.7,2.4-4c0.6-0.9,1.3-1.7,2-2.4c0.2-0.2,0.4-0.3,0.6-0.4
	c0.3-0.2,0.7-0.2,1,0c0.3,0.3,0.4,0.7,0.3,1.1c-0.3,1-0.7,1.9-1.3,2.7c-0.7,1-1.5,2-2.5,2.8c-1.1,1-2.2,1.9-3.4,2.7
	C174.1,121.5,174,121.6,173.9,121.6z"/>
<path class="st2" d="M207.9,126.9c-0.1,1.2-0.8,2.2-1.8,2.8c-0.6,0.5-1.4,0.7-2.2,0.7c-0.8,0-1.5-0.4-2.1-1c-0.1-0.1,0-0.2,0-0.3
	c1.2-1,2.3-2.1,3.4-3.2c0.4-0.4,0.8-0.9,1.2-1.3c0.1-0.2,0.2-0.1,0.3-0.1C207.6,125.1,208,126,207.9,126.9z"/>
<path class="st2" d="M152.1,126c-0.1,0.7-0.4,1.4-0.8,1.9c-0.5,0.7-1.2,1.3-2,1.6c-0.5,0.3-1.1,0.4-1.7,0.3
	c-0.5-0.2-0.8-0.7-0.7-1.3c0.2-1.1,0.8-2,1.6-2.7c0.5-0.4,1.1-0.8,1.7-1c0.7-0.2,1.6-0.1,1.8,0.7C152.1,125.8,152.1,125.9,152.1,126
	z"/>
<path class="st2" d="M125.4,125.9c0,0.7-0.3,1.3-0.7,1.9c-0.6,0.9-1.6,1.7-2.7,2c-0.3,0.1-0.6,0.1-0.9,0.1c-0.6-0.1-1-0.7-0.9-1.3
	c0-0.1,0-0.1,0.1-0.2c0.3-1.1,1-2.1,2-2.8c0.5-0.4,1.1-0.6,1.7-0.8c0.6-0.2,1.2,0.2,1.4,0.8C125.4,125.7,125.4,125.8,125.4,125.9z"
	/>
<path class="st2" d="M66.9,128.5c0.1-0.7,0.3-1.3,0.8-1.8c0.7-0.9,1.6-1.6,2.7-1.9c0.5-0.2,1-0.1,1.3,0.2c0.4,0.3,0.5,0.9,0.3,1.3
	c-0.3,1-1,1.9-1.9,2.5c-0.5,0.4-1.2,0.7-1.9,0.8c-0.6,0.1-1.2-0.3-1.3-0.9C66.9,128.7,66.9,128.6,66.9,128.5z"/>
<path class="st2" d="M39.5,121.3c-0.4,0-0.8,0.1-1.2,0c-0.6,0-1.3-0.1-1.9-0.2c-0.2,0-0.2-0.1-0.2-0.3l0.8-2.3
	c0.2-0.5,0.3-0.9,0.5-1.3c0.1-0.3,0.2-0.5,0.5-0.6c0.3-0.2,0.7-0.3,1.1-0.3c0.7,0,1.4,0,2,0c1.4,0,2.8,0.2,4.1,0.7
	c0.5,0.2,1,0.6,1.2,1.1c0.2,0.5,0.1,1-0.3,1.3c-0.5,0.5-1.1,0.8-1.7,1c-1.3,0.5-2.7,0.7-4.1,0.9C40,121.3,39.7,121.3,39.5,121.3z"/>
<path class="st2" d="M241.3,151c0-0.4,0-0.8,0-1.2c0-0.4,0.1-0.3,0.3-0.3c0.5,0,1,0,1.5,0c0.4,0,0.6,0.4,0.6,0.7
	c0.1,0.4-0.2,0.7-0.6,0.8c0,0,0,0,0,0c-0.3,0-0.3,0.1-0.1,0.3c0.2,0.2,0.4,0.5,0.5,0.8c0,0.1,0.3,0.2,0.1,0.3
	c-0.2,0.1-0.4,0.1-0.5-0.1c0,0,0,0,0,0l-0.3-0.4l-0.4-0.6c-0.2-0.3-0.4-0.2-0.6-0.1c-0.2,0-0.1,0.2-0.1,0.3c0,0.1,0,0.5,0,0.8
	s0,0.3-0.2,0.3s-0.2-0.1-0.2-0.3C241.3,151.8,241.3,151.4,241.3,151z M242.3,150.8h0.4c0.3,0,0.5-0.2,0.5-0.5c0-0.3-0.2-0.4-0.4-0.5
	c-0.2,0-0.5,0-0.7,0c-0.3,0-0.4,0.1-0.4,0.4C241.7,150.8,241.7,150.8,242.3,150.8L242.3,150.8z"/>
</svg>
