<?xml version="1.0" encoding="utf-8"?>
<!-- Generator: Adobe Illustrator 21.1.0, SVG Export Plug-In . SVG Version: 6.00 Build 0)  -->
<svg version="1.1" id="Layer_1" xmlns="http://www.w3.org/2000/svg" xmlns:xlink="http://www.w3.org/1999/xlink" x="0px" y="0px"
	 viewBox="0 0 250 250" style="enable-background:new 0 0 250 250;" xml:space="preserve">
<style type="text/css">
	.st0{fill:#3B2D2E;}
	.st1{fill:#B52025;}
	.st2{fill:url(#SVGID_1_);}
	.st3{fill:#EDA417;}
	.st4{opacity:0.9;}
	.st5{fill:#655600;}
</style>
<title>Grocery</title>
<path class="st0" d="M16.4,155.2c-2.6,0.1-5.2-0.1-7.8-0.8c-1.5-0.3-2.7-1.4-3.3-2.8c-0.6-1.3-0.1-2.7,1.1-3.4
	c1.8-1.2,2.8-3.2,2.7-5.3c0.2-6.7,0.2-13.4,0-20.2c0.2-2.1-0.9-4.2-2.8-5.2c-1.9-1-1.6-3.9,0.5-5.2c1.5-0.9,3.3-1.3,5.1-1.1
	c5.7,0.4,11.5,0.4,17.2,0c2.4-0.1,4.7,0.4,6.9,1.3c3.9,1.6,6.4,4.5,6.8,8.8s-0.7,7.9-4.5,10.3c-1.1,0.7-1.2,1.4,0,1.9
	c4.6,1.8,6,5.7,6.5,10.1c0.3,2.2,0.6,4.2,3.2,5c1.5,0.5,1.6,2.8,0.4,4.4c-1.2,1.4-2.9,2.3-4.7,2.5c-1.7,0.3-3.4,0.4-5.1,0.3
	c-3.8-0.1-7.2-2.6-8.4-6.2c-0.9-2.9-1.7-5.7-2.3-8.7c-0.4-1.7-1-3.3-2.9-3.9c-1.2-0.4-1.9,0-2,1.3c-0.2,2.7-0.1,5.5,0.4,8.2
	c0.2,0.8,0.7,1.4,1.5,1.8c1.3,0.7,2,2.2,1.6,3.7c-0.3,1.3-1.3,2.3-2.7,2.6C21.3,155,18.9,155.2,16.4,155.2z M16.1,154.3
	c2.3,0.1,4.7-0.1,7-0.7c1.2-0.3,2.2-0.8,2.5-2.2c0.3-1.4-0.5-2.1-1.5-2.7c-1-0.7-1.6-1.9-1.7-3.1c-0.3-2.3-0.4-4.5-0.3-6.8
	c0-1.1,0-2.2,1.1-2.7c1.2-0.5,2.5-0.2,3.5,0.7c1.6,1.3,1.9,3.2,2.4,5c0.6,2.2,1,4.5,1.7,6.7c1,3.2,2.9,5.6,6.4,6.2
	c2.1,0.3,4.2,0.3,6.2,0c1.7-0.1,3.3-1,4.3-2.5c0.7-1.1,1.2-2.5-0.4-3.1c-2.5-0.9-3-2.7-3.3-5c-0.5-4.4-1.7-8.3-6.4-10.1
	c-1.7-0.7-1.5-2,0.2-3.2c4.5-3.2,5.6-9.4,2.4-13.9c-0.9-1.3-2.1-2.4-3.6-3.1c-4.2-2.2-8.6-1.9-13-1.5c-2.8,0.3-5.6,0.3-8.4,0
	c-2.4-0.4-4.8-0.3-7.2,0.4C7,112.9,6.2,113.8,6,115c-0.2,1.2,0.6,1.8,1.5,2.2c1.5,0.9,2.5,2.6,2.4,4.4c0.4,6.5,0.5,12.9,0.3,19.4
	c0,3.1-0.3,6.3-3.5,8.2c-0.9,0.5-0.8,1.5-0.3,2.4c0.6,1,1.5,1.7,2.6,1.9C11.2,154.2,13.7,154.5,16.1,154.3L16.1,154.3z"/>
<path class="st0" d="M130.3,141.1c0.2,3-0.2,6.1,1.6,8.9c0.7,1.3,0.3,2.9-1,3.6c-0.1,0-0.1,0.1-0.2,0.1c-1,0.6-2.1,1-3.3,1.1
	c-3.3,0.6-6.8,0.5-10.1-0.2c-1.8-0.2-3.2-1.8-3.1-3.7c-0.1-0.7,0.2-1.3,0.8-1.7c1.6-0.9,1.8-2.3,1.8-3.8c0.1-3.1,0.2-6.1,0.3-9.2
	c0.1-1.5-0.6-3-1.8-3.9c-2-1.5-2-3.4,0-4.8c3.8-2.3,8-3.9,12.4-4.4c1.5-0.3,2.5,1.1,2.5,3c0,0.7-0.2,1.5,0.5,1.7s1.1-0.6,1.4-1.1
	c2.3-3.6,5.7-4.3,9.6-3.5s5.7,3.2,6.7,6.7c1.1,4.3,1,8.7,1,13c-0.2,2.3,0.5,4.6,2,6.3c1,1.2,0.9,3-0.4,4.1c-0.2,0.2-0.5,0.4-0.8,0.5
	c-1.7,0.8-3.5,1.1-5.3,1.1c-2.7,0.3-5.5,0.2-8.2-0.4c-2.8-0.8-3.5-3.1-1.7-5.3c0.4-0.4,0.7-1,0.8-1.5c0.4-3.8,1-7.6,0.3-11.5
	c-0.1-0.5-0.3-1-0.5-1.5c-0.3-1.3-1.7-2.1-3-1.9c-1.2,0.1-2.2,1.2-2.1,2.4C130.4,137.3,130.3,139.2,130.3,141.1z M129.4,140.7
	c-0.1-1.7,0-3.3,0.2-5c0.5-2.4,1.6-3.6,3.4-3.7c1.9,0.1,3.5,1.5,3.8,3.4c0.6,2.7,0.7,5.6,0.3,8.4c-0.2,2.3,0,4.8-1.9,6.8
	c-0.6,0.9-0.4,2.1,0.4,2.7c0.3,0.2,0.6,0.3,0.9,0.4c4.3,1.2,8.8,1,13-0.5c1.1-0.3,1.8-1.4,1.5-2.5c-0.1-0.4-0.3-0.7-0.6-1
	c-1.4-1.7-2.1-3.9-1.9-6.2c0.1-4-0.1-8-0.8-12c-0.6-3.4-2.1-6.4-5.9-7.2s-7-0.3-9.2,3.4c-0.5,0.8-1.2,1.5-2.3,1.1
	c-1.1-0.4-1-1.4-1-2.3c0-1.5-0.4-2.7-2.1-2.3c-3.9,0.6-7.7,1.9-11.1,4c-1.8,1.1-1.8,2.3-0.1,3.7c1.3,1,2.1,2.6,2,4.2
	c-0.1,3.5-0.2,7-0.4,10.5c0,1.1-0.4,2.1-1.2,2.8c-1.8,1.6-1.6,3.5,0.7,4.2c4.1,1.3,8.6,1.1,12.6-0.4c1.1-0.2,1.8-1.2,1.6-2.3
	c0-0.3-0.1-0.5-0.3-0.7C129.3,147.3,129.4,144.2,129.4,140.7L129.4,140.7z"/>
<path class="st0" d="M97.2,113.6c1.1-0.1,2.2-0.4,3.2-1c0.6,0,1.3,0.2,1.8-0.3c1.8-0.3,3.6-0.5,5.3-0.8c0.8-0.1,1.7,0,2.4,0.4
	l0.4,0.6c0.3,1.2,0.4,2.4,0.4,3.7c0,8.9,0,17.9,0,26.8c-0.2,1.6,0.4,3.1,1.6,4.2c2,1.7,1.7,4-0.6,5.5c-2.3,1.5-5.3,1.9-8.2,2.2
	c-0.8,0.1-1.7,0.1-2.5,0.1c-1.4,0.1-2.2-0.5-2.3-2c-0.1-1.1-0.5-1.6-1.5-0.7c-5.8,5.3-12.8,2.7-16.7-3c-5.4-7.8-3.8-18.8,3.5-24.2
	c3.3-2.6,7.8-3.1,11.6-1.5c0.6,0.2,1.4,1.3,2,0.3c0.7-1.1,0.5-2.5-0.4-3.4c-0.2-0.2-0.5-0.4-0.9-0.5c-1.3-0.4-2.3-1-2.4-2.5
	c0-1.4,0.8-2.7,2.1-3.3C96.5,114.3,97,114.2,97.2,113.6z M109.8,129.3c0-4.1,0-8.2,0-12.3c0-4.8,0-4.9-4.7-4.2
	c-3,0.2-5.9,1.1-8.6,2.5c-2.3,1.4-2.2,3,0.2,4.2c1.7,0.7,2.6,2.6,2,4.4c-0.3,1.5-1,2.1-2.6,1.2c-2.7-1.6-6-1.8-8.8-0.6
	c-6.8,2.8-10.8,11.4-8.6,18.9c1.3,4.3,3.5,8,7.7,10.1c3.5,1.7,6.8,1,9.8-1.4c2.1-1.7,2.7-1.5,3.3,1.1c0.2,0.7,0.5,1.1,1.2,1.1
	c3.6,0.1,7.2-0.6,10.4-2.1c2.1-1.1,2.2-2.8,0.4-4.4c-1.2-1.1-1.9-2.7-1.8-4.3C109.9,138.7,109.8,134,109.8,129.3z"/>
<path class="st0" d="M231,122.9c1.2,0.1,2.3,0.3,3.5,0.5c1.3,0.4,2.7,0.3,4-0.2c1.2-0.5,2.6-0.1,3.3,1c1.7,1.9,2.8,4.3,3.1,6.8
	c0.3,1.7-1,3.3-2.7,3.6c-0.6,0.1-1.3,0-1.8-0.3c-1.2-0.6-2.2-1.4-3-2.4c-0.5-0.5-1.1-1.1-1.7-1.5c-0.6-0.5-1.5-0.5-2,0
	c0,0-0.1,0.1-0.1,0.1c-0.6,0.6-0.6,1.5-0.1,2.1c0.1,0.1,0.1,0.1,0.2,0.2c0.8,0.7,1.6,1.3,2.5,1.8c1.6,1,3.3,1.9,4.8,3
	c3.3,2.2,4.8,6.3,3.7,10.2c-1.1,4.2-4,6.4-8,7.4c-1.5,0.4-3.1,0.4-4.7,0.2c-2.3-0.5-4.7-0.7-7-0.5c-1,0.2-2-0.3-2.6-1.1
	c-1.9-2.4-2.9-5.3-2.9-8.3c-0.1-1.1,0.5-2.1,1.5-2.5c1-0.4,2.1-0.1,2.8,0.7c0.8,0.7,1.3,1.6,2.1,2.3c0.6,0.7,1.3,1.4,2.1,2.1
	c0.9,0.7,2.1,1.1,3,0c0.9-1.1-0.1-1.9-0.9-2.5c-1.5-1.1-3.2-2-4.7-3.1c-3.6-2.4-5.4-6.7-4.5-10.9C221.4,126.3,225.6,122.9,231,122.9
	z M231.5,123.7c-6.2,0-10.2,4-10.2,9.6c0,4.5,2.7,7.3,6.2,9.5c1.4,0.7,2.7,1.6,3.8,2.7c0.8,0.9,0.8,2.2,0,3.1
	c-0.3,0.3-0.6,0.4-0.9,0.5c-1.3,0.4-2.8,0-3.7-1.1c-1.2-1.2-2.2-2.5-3.4-3.8c-0.5-0.5-1.1-1.1-2.1-0.7c-0.7,0.4-1.1,1.2-1,2
	c0.1,2,0.6,4,1.6,5.8c0.5,1.8,2.4,2.9,4.3,2.6c1.4-0.1,2.9-0.1,4.3,0.3c1.9,0.4,3.9,0.4,5.8,0.1c5-0.7,8.5-5.3,7.8-10.3
	c-0.1-0.5-0.2-1-0.3-1.5c-1-3-3.4-4.7-6-6.2c-1.7-0.8-3.3-1.9-4.7-3.1c-1-0.8-1.1-2.1-0.4-3.1c0.1-0.1,0.1-0.1,0.2-0.2
	c0.9-1,2.4-1.1,3.4-0.3c0,0,0.1,0.1,0.1,0.1c0.7,0.6,1.4,1.2,2,1.9c0.7,0.8,1.5,1.4,2.5,1.9c1.2,0.5,2.5,0,3.1-1.2
	c0.2-0.4,0.2-0.8,0.2-1.2c-0.3-2.4-1.3-4.7-3-6.5c-0.6-0.9-1.8-1.1-2.8-0.6c-1.1,0.5-2.3,0.6-3.4,0.2
	C233.5,124.1,232.2,123.9,231.5,123.7L231.5,123.7z"/>
<path class="st0" d="M55.4,124.5c3.3-1.5,7.1-1.9,10.7-1.2c6,1.5,10.3,6.9,10.2,13.1c-0.2,3.1-1.3,4.2-4.4,4.2c-3.6,0-7.2,0-10.8,0
	c-1.5,0-1.6,0.6-1.2,1.8c1.3,3,4.7,4.5,7.8,3.4c1.2-0.5,2.4-1.1,3.5-1.8c0.9-0.7,2.2-0.6,2.9,0.3c0.2,0.2,0.3,0.5,0.4,0.8
	c1.1,2,0.4,4.5-1.9,6.4c-2.3,1.9-5,3.1-7.9,3.6c-6.3,1-11.6-0.8-15.1-6.3c-3.9-6.1-3.8-12.4-0.1-18.7c0.3-0.5,0.5-0.9,0.8-1.3
	C51.9,127.2,53.6,125.7,55.4,124.5z M66.7,139.8h5.9c1.4,0.2,2.6-0.8,2.8-2.2c0-0.1,0-0.2,0-0.4c0.5-4.3-1.4-8.5-5-10.9
	c-6.4-4.7-15.1-2.9-19.9,4c-4.3,6.5-3.4,15.1,2.1,20.6c5.1,4.7,13.2,4.7,19.4,0c1.6-1,2.4-2.8,2.2-4.6c-0.3-1.7-1.3-2.2-2.8-1.2
	c-1.6,1.1-3.4,1.8-5.2,2c-3.3,0.1-6.3-2-7.2-5.1c-0.2-1.3,0.1-2.2,1.7-2.1C62.6,139.8,64.6,139.8,66.7,139.8z"/>
<path class="st0" d="M179.2,131.2c0.8,2,1.1,4.2,0.8,6.3c-0.5,2.3-1.3,3.1-3.7,3.1c-3.7,0-7.4,0.1-11.2,0c-1.8,0-1.8,0.8-1.2,2
	c1.4,3,4.9,4.3,8,3.1c0.9-0.4,1.8-0.8,2.7-1.3c1-0.6,1.9-1.3,3-0.5c1.1,0.8,1.7,2.2,1.4,3.6c-0.3,1.8-1.4,3.4-2.9,4.4
	c-5.6,4.3-14,4.5-19.3,0.3c-5.6-4.4-7.5-13.1-4.4-19.9c2.8-6.7,9.9-10.5,17-9.2c0.3,0,0.6,0.1,1,0.1
	C174.4,124.5,177.6,127.4,179.2,131.2z M170.6,139.8L170.6,139.8c2,0,3.9,0,5.9,0c1.6,0,2.3-0.8,2.7-2.3c1.1-4.5-2.6-10-5.5-11.7
	c-6.4-3.9-14.8-2-19,4.2c-5,6.7-3.4,17.4,3.2,22c5.7,4,13.4,2.9,18.4-1.4c1.1-0.8,1.8-2.2,1.7-3.6c0.1-0.9-0.3-1.8-1.1-2.4
	c-0.9-0.5-1.5,0.2-2.1,0.6c-0.4,0.2-0.8,0.5-1.2,0.7c-5,2.6-9.2,0.3-10.7-3.3c-0.8-2-0.2-2.8,1.9-2.9
	C166.8,139.8,168.7,139.8,170.6,139.8L170.6,139.8z"/>
<path class="st0" d="M196.8,127.9c0.8-0.6,1.5-1.3,2-2.2c1.4-1.9,3.7-2.9,6-2.5c2.4,0.3,4.4,2.1,5,4.4c1.6,4.1-0.5,8.6-4.5,10.2
	c0,0-0.1,0-0.1,0c-2.4,0.8-5,0-6.5-1.9c-0.4-0.4-0.8-1.3-1.5-1s-0.7,1.2-0.7,1.9c-0.1,3,0,6,0.4,9c0.1,1.1,1,1.5,1.8,1.7
	c1.6,0.2,2.7,1.6,2.7,3.1c0.1,1.7-1,3.2-2.7,3.6c-5.2,1.4-10.8,1.4-16-0.1c-3.2-1-3.7-4.2-1.1-6.4c1-0.8,1.6-1.9,1.7-3.1
	c0.3-3.4,0.4-6.8,0.2-10.2c0-1-0.6-1.9-1.5-2.3c-1.5-0.7-2.2-2.4-1.5-3.9c0.2-0.4,0.5-0.8,0.8-1.1c1.1-1.1,2.5-1.9,4-2.3
	c2.5-0.8,5-1.4,7.6-1.7c2.9-0.3,3.3,0,3.7,2.8C196.5,126.6,196.6,127.1,196.8,127.9z M184.2,139.1L184.2,139.1c0,1.5,0,3,0,4.5
	c0,1.9-0.8,3.7-2.2,5c-2,1.7-1.6,4,0.9,4.8c5,1.4,10.4,1.5,15.4,0.1c1.2-0.3,2.1-1.4,2.1-2.7c0.1-1.5-0.8-2-2.1-2.4
	c-1.2-0.2-2.2-1.3-2.4-2.5c-0.3-3-0.4-6-0.4-9c0-1.1,0-2.2,1.1-2.7s1.9,0.5,2.7,1.2c3.5,3.4,8.2,2.2,9.7-2.7s-1.5-8.9-6-8.5
	c-2.2,0.2-3.3,1.9-4.5,3.4c-0.5,0.6-0.9,1.4-1.9,1.1c-0.9-0.3-0.9-1-1-1.7c-0.5-3-0.8-3.3-3.8-2.7c-1.9,0.3-3.7,0.8-5.5,1.3
	c-1.5,0.4-3,1.1-4.2,2.1c-1.7,1.5-1.5,2.9,0.4,4c1.1,0.6,1.7,1.7,1.7,2.9C184.2,136,184.2,137.5,184.2,139.1L184.2,139.1z"/>
<path class="st0" d="M220.8,122.9c-0.1,2.9-1,5.6-2.5,8c-0.6,1-1.5,1.7-2.6,2.1c-1,0.3-2,0-2.7-0.8c-0.7-0.8-0.4-1.6,0.1-2.3
	c0.2-0.4,0.4-0.8,0.7-1.2c0.9-1.5,1-2.5-0.9-3.3c-1.8-0.7-2.9-2.7-2.5-4.6c0-2,1.3-3.8,3.2-4.5c1.8-0.8,4-0.3,5.3,1.2
	C220.1,119,220.8,120.9,220.8,122.9z M219.9,122.4c0-1.3-0.4-2.6-1.2-3.7c-0.9-1.5-2.6-2.2-4.2-1.8c-1.7,0.3-2.9,1.6-3.2,3.3
	c-0.3,1.8-0.1,3.7,1.9,4.5c2.9,1.1,2.6,2.5,1.2,4.9c-0.2,0.3-0.3,0.6-0.5,0.9c-0.3,0.5-0.4,1,0,1.4c0.4,0.4,1,0.6,1.6,0.4
	c0.8-0.3,1.5-0.9,1.9-1.6C219.1,128.2,219.9,125.3,219.9,122.4L219.9,122.4z"/>
<path class="st1" d="M16.1,154.3c-2.4,0.1-4.8-0.1-7.1-0.8c-1.1-0.3-2-1-2.5-2c-0.5-0.9-0.6-1.9,0.3-2.4c3.2-1.9,3.5-5.1,3.5-8.2
	c0.2-6.4,0.1-12.9-0.3-19.3c0.1-1.8-0.9-3.5-2.4-4.4c-0.9-0.5-1.7-1-1.5-2.2c0.2-1.1,1-2.1,2.1-2.4c2.3-0.7,4.8-0.8,7.2-0.4
	c2.8,0.3,5.6,0.3,8.4,0c4.4-0.3,8.8-0.6,13,1.5c4.9,2.5,6.8,8.6,4.3,13.5c-0.7,1.4-1.8,2.6-3.1,3.6c-1.7,1.2-1.9,2.6-0.2,3.2
	c4.7,1.8,5.9,5.8,6.4,10.1c0.3,2.3,0.8,4.1,3.3,5c1.7,0.6,1.1,2,0.4,3.1c-1,1.4-2.6,2.2-4.3,2.3c-2.1,0.3-4.2,0.3-6.2,0
	c-3.5-0.6-5.3-3-6.4-6.2c-0.7-2.2-1.1-4.4-1.7-6.7c-0.5-1.8-0.8-3.7-2.4-5c-0.9-0.9-2.3-1.2-3.5-0.7c-1.2,0.5-1.1,1.6-1.1,2.7
	c-0.1,2.3,0,4.6,0.3,6.8c0.1,1.2,0.7,2.4,1.7,3.1c0.9,0.7,1.7,1.4,1.5,2.7c-0.3,1.3-1.3,1.8-2.5,2.2
	C20.8,154.1,18.4,154.4,16.1,154.3z M28.7,124c0.2-1.6-0.2-3.3-1-4.7c-0.9-1.3-2.5-1.8-4-1.3c-1.6,0.3-1.6,1.7-1.7,2.9
	c-0.1,2,0,4-0.3,6.1c-0.2,1.1-0.6,2.5,0.7,3.2c1.2,0.6,2.6,0.5,3.7-0.2C28.7,128.6,28.7,126.3,28.7,124L28.7,124z"/>
<path class="st1" d="M129.4,140.7c0,3.5-0.1,6.7,1.6,9.5c0.6,0.9,0.3,2.1-0.6,2.7c-0.2,0.1-0.5,0.2-0.7,0.3
	c-4.1,1.5-8.5,1.6-12.6,0.4c-2.3-0.7-2.5-2.6-0.7-4.2c0.8-0.7,1.2-1.7,1.2-2.8c0.2-3.5,0.3-7,0.4-10.5c0.1-1.7-0.6-3.3-2-4.2
	c-1.7-1.3-1.7-2.5,0.1-3.7c3.4-2.1,7.2-3.4,11.1-4c1.7-0.3,2.1,0.9,2.1,2.3c0,0.9-0.1,1.9,1,2.3s1.8-0.3,2.3-1.1
	c2.2-3.6,5.5-4.1,9.2-3.4c3.7,0.7,5.3,3.8,5.9,7.2c0.6,4,0.9,8,0.8,12c-0.2,2.2,0.5,4.4,1.9,6.2c0.8,0.8,0.9,2.1,0.1,2.9
	c-0.3,0.3-0.6,0.5-1,0.6c-4.2,1.5-8.8,1.6-13,0.5c-1.1-0.1-1.8-1.1-1.7-2.1c0-0.3,0.2-0.7,0.4-0.9c1.9-2,1.7-4.5,1.9-6.8
	c0.4-2.8,0.3-5.6-0.3-8.4c-0.3-1.8-1.9-3.2-3.7-3.3c-1.8,0-2.8,1.3-3.4,3.7C129.4,137.4,129.4,139.1,129.4,140.7z"/>
<path class="st1" d="M109.8,129.3c0,4.7,0,9.4,0,14.1c-0.1,1.6,0.5,3.2,1.8,4.3c1.8,1.6,1.6,3.3-0.4,4.4c-3.3,1.5-6.8,2.3-10.4,2.1
	c-0.7,0-1-0.4-1.2-1.1c-0.7-2.6-1.3-2.8-3.3-1.1c-3,2.4-6.3,3.1-9.8,1.4c-4.2-2-6.5-5.7-7.7-10.1c-2.2-7.6,1.7-16.2,8.6-18.9
	c2.9-1.2,6.2-1,8.8,0.6c1.6,0.9,2.2,0.3,2.6-1.2c0.6-1.7-0.3-3.7-2-4.4c-2.4-1.2-2.5-2.8-0.2-4.2c2.7-1.4,5.6-2.3,8.6-2.5
	c4.7-0.7,4.7-0.7,4.7,4.2C109.8,121.1,109.8,125.2,109.8,129.3z M98.8,138.2c0.2-1.9,0-3.9-0.4-5.8c-0.4-1.3-0.9-2.6-2.6-2.9
	c-1.4-0.3-2.8,0.4-3.4,1.7c-2.3,4.4-2.6,9.7-0.7,14.3c0.5,1.5,2,2.4,3.5,2.2c1.6-0.1,2.4-1.3,2.9-2.8
	C98.7,142.8,98.9,140.5,98.8,138.2z"/>
<path class="st1" d="M231.5,123.8c0.7,0.1,2,0.3,3.3,0.6c1.1,0.4,2.4,0.3,3.4-0.2c0.9-0.6,2.1-0.3,2.8,0.6c1.6,1.8,2.7,4.1,3,6.5
	c0.1,1.3-0.8,2.4-2.1,2.5c-0.4,0-0.8,0-1.2-0.2c-0.9-0.4-1.8-1.1-2.4-1.8c-0.6-0.7-1.3-1.3-2-1.9c-1-0.9-2.5-0.9-3.4,0
	c0,0-0.1,0.1-0.1,0.1c-0.9,0.9-0.9,2.3,0,3.1c0.1,0.1,0.1,0.1,0.2,0.2c1.4,1.3,3,2.3,4.7,3.1c2.6,1.5,5,3.2,6,6.2
	c1.5,4.8-1.2,9.9-6,11.4c-0.5,0.1-1,0.3-1.5,0.3c-1.9,0.3-3.9,0.2-5.8-0.1c-1.4-0.3-2.8-0.4-4.3-0.3c-1.9,0.4-3.7-0.7-4.3-2.6
	c-1-1.8-1.5-3.7-1.6-5.8c-0.1-0.8,0.3-1.6,1-2c0.9-0.4,1.5,0.2,2.1,0.7c1.2,1.2,2.2,2.6,3.4,3.8c0.9,1.1,2.3,1.6,3.7,1.1
	c1.2-0.3,1.8-1.5,1.5-2.7c-0.1-0.4-0.3-0.7-0.5-0.9c-1.1-1.1-2.4-2.1-3.8-2.7c-3.6-2.1-6.2-4.9-6.2-9.5
	C221.4,127.8,225.3,123.8,231.5,123.8z"/>
<path class="st1" d="M66.7,139.8c-2,0-4,0-6.1,0c-1.6,0-1.9,0.9-1.7,2.1c0.9,3.2,3.9,5.3,7.2,5.1c1.9-0.3,3.7-0.9,5.2-2
	c1.4-1,2.4-0.5,2.8,1.2c0.3,1.9-0.5,3.7-2.1,4.7c-6.2,4.6-14.3,4.7-19.4,0c-5.5-5.5-6.3-14.2-2.1-20.7c4.8-6.8,13.5-8.6,19.9-4
	c3.5,2.4,5.4,6.6,4.9,10.8c0,1.4-1,2.6-2.4,2.6c-0.1,0-0.2,0-0.4,0L66.7,139.8z M62.2,135c2.8,0,3.7-0.6,3.7-2.6
	c0.1-2.1-1.4-3.8-3.5-4c0,0-0.1,0-0.1,0c-2.2,0.3-3.8,2.1-3.8,4.3C58.5,134.4,59.5,135,62.2,135L62.2,135z"/>
<path class="st1" d="M170.6,139.8c-1.9,0-3.8,0-5.7,0c-2.1,0-2.7,0.8-1.9,2.9c1.5,3.6,5.6,5.9,10.7,3.3c0.4-0.2,0.8-0.5,1.2-0.7
	c0.7-0.4,1.3-1.1,2.1-0.6c0.8,0.6,1.2,1.5,1.1,2.4c0,1.4-0.6,2.7-1.7,3.6c-5,4.3-12.7,5.3-18.4,1.4c-6.7-4.6-8.2-15.3-3.2-22
	c4.2-6.2,12.6-8,19-4.2c2.9,1.7,6.6,7.1,5.5,11.7c-0.3,1.5-1.1,2.3-2.7,2.3C174.5,139.8,172.6,139.8,170.6,139.8L170.6,139.8z
	 M166,135c2.9,0,3.7-0.6,3.7-2.7c0.1-2-1.4-3.8-3.4-3.9c0,0,0,0,0,0c-2.1,0.1-3.8,1.9-3.7,4c0,0.1,0,0.1,0,0.2
	C162.6,134.6,163.1,135,166,135L166,135z"/>
<path class="st1" d="M184.2,139.1c0-1.6,0-3.1,0-4.7c0-1.2-0.6-2.3-1.7-2.9c-1.9-1.1-2-2.5-0.4-4c1.2-1,2.6-1.7,4.2-2.1
	c1.8-0.5,3.7-0.9,5.5-1.3c3-0.5,3.3-0.3,3.8,2.7c0.1,0.7,0.3,1.5,1,1.7c0.8,0.2,1.3-0.5,1.9-1.1c1.2-1.6,2.3-3.2,4.5-3.4
	c4.5-0.4,7.5,3.8,6,8.5c-1.5,4.7-6.1,6-9.7,2.7c-0.7-0.7-1.5-1.7-2.7-1.2c-1.2,0.5-1.1,1.7-1.1,2.7c-0.1,3,0,6,0.4,9
	c0.2,1.3,1.1,2.3,2.4,2.5c1.2,0.4,2.1,0.9,2.1,2.4c0,1.3-0.8,2.4-2.1,2.7c-5,1.4-10.4,1.3-15.4-0.1c-2.5-0.8-2.9-3.1-0.9-4.8
	c1.4-1.3,2.3-3.1,2.2-5c0.1-1.5,0-3,0-4.5L184.2,139.1z"/>
<path class="st1" d="M219.9,122.3c0.1,2.9-0.8,5.8-2.5,8.2c-0.5,0.7-1.1,1.3-1.9,1.6c-0.6,0.2-1.2,0.1-1.6-0.4c-0.5-0.4-0.3-1,0-1.4
	c0.3-0.5,0.3-0.6,0.5-0.9c1.4-2.3,1.7-3.8-1.2-4.9c-2-0.8-2.2-2.7-1.9-4.5c0.3-1.7,1.6-3,3.2-3.3c1.6-0.4,3.3,0.3,4.2,1.8
	C219.5,119.7,219.9,121,219.9,122.3z"/>
<path class="st0" d="M28.7,124c0,2.3,0,4.7-2.5,5.9c-1.1,0.7-2.5,0.8-3.7,0.2c-1.3-0.7-0.9-2.1-0.7-3.2c0.3-2,0.2-4,0.3-6.1
	c0.1-1.2,0.1-2.7,1.7-2.9c1.5-0.5,3.1,0,4,1.3C28.6,120.7,28.9,122.3,28.7,124z M22.9,124.6h-0.1c0,1-0.1,1.9-0.2,2.9
	c-0.1,2,0.4,2.5,2.4,1.9s2.8-1.8,2.9-4.3c0-2.3,0.4-4.9-2.1-6.3c-1.5-0.8-2.7-0.1-2.8,1.7C22.8,121.8,22.9,123.2,22.9,124.6
	L22.9,124.6z"/>
<path class="st0" d="M98.8,138.2c0.2,2.3-0.1,4.6-0.7,6.8c-0.5,1.5-1.3,2.7-2.9,2.8c-1.6,0.2-3-0.7-3.5-2.2
	c-1.8-4.7-1.6-9.9,0.7-14.3c0.6-1.3,2-2,3.4-1.7c1.6,0.3,2.2,1.5,2.6,2.9C98.8,134.4,98.9,136.3,98.8,138.2z M97.9,137.9
	c0.1-1.8,0-3.6-0.5-5.3c-0.3-1-0.7-2-2-2.2c-1.1-0.1-2.1,0.5-2.5,1.5c-2,4.1-2.3,8.9-0.6,13.2c0.3,1.2,1.5,1.9,2.7,1.8
	c1.3-0.1,1.8-1.2,2.1-2.3C97.8,142.5,98.1,140.2,97.9,137.9z"/>
<path class="st0" d="M62.2,135c-2.7,0-3.7-0.6-3.7-2.4c0-2.2,1.7-4,3.8-4.3c2.1,0.1,3.7,1.8,3.6,3.9c0,0,0,0.1,0,0.1
	C65.9,134.5,65,135,62.2,135z M62.2,134.1c1.2-0.2,2.8,0.5,2.9-1.7c0.1-1.6-1.1-3-2.7-3.2c-1.7,0.3-2.9,1.7-2.9,3.4
	C59.6,134.8,61.2,133.8,62.2,134.1L62.2,134.1z"/>
<path class="st0" d="M166,135c-2.9,0-3.4-0.4-3.4-2.4c-0.2-2.1,1.4-4,3.5-4.2c0.1,0,0.1,0,0.2,0c2,0.1,3.6,1.8,3.5,3.9c0,0,0,0,0,0
	C169.7,134.5,169,135,166,135z M166,134.1c1.1-0.3,2.8,0.6,2.9-1.6c0.1-1.6-1-3.1-2.7-3.3c-1.7,0.2-2.9,1.7-2.9,3.3
	C163.3,134.8,165,133.8,166,134.1L166,134.1z"/>
<linearGradient id="SVGID_1_" gradientUnits="userSpaceOnUse" x1="55.565" y1="143.768" x2="169.3754" y2="143.768" gradientTransform="matrix(1 0 0 -1 0 252)">
	<stop  offset="0" style="stop-color:#FCAF17"/>
	<stop  offset="1" style="stop-color:#FFEE00"/>
</linearGradient>
<path class="st2" d="M169.1,106.8c0.1-1.5-0.7-2.8-2-3.4c-2.4-1.2-5-2.2-7.7-2.8c-10.2-2.5-20.6-4.2-31-5.1
	c-6-0.8-12.1-1.1-18.2-1.1c-0.3,0-0.5-0.1-0.8-0.1c-14,0.4-27.9,2-41.6,4.7c-3.6,0.6-7.1,1.7-10.4,3.4c-1.1,0.6-1.9,1.3-1.9,2.7
	c0.1,2.7,0.1,5.5,0.2,8.2c-0.1,2.7,0,5.3,0.3,8c2.5-1.4,5.2-2.5,8-3.2c6.2-1.6,12.5-2.8,18.8-3.4c4.8-0.6,9.5-1.5,14.4-1.2
	c1.1-0.1,2.2-0.4,3.2-1c0.6,0,1.3,0.2,1.8-0.3c1.8-0.3,3.6-0.5,5.3-0.8c0.8-0.1,1.7,0,2.4,0.4l0,0l0.4,0.6c3.3-0.1,6.5,0,9.7,0.3
	c7.8,0.5,15.5,1.3,23.2,2.6c8.8,1.4,17.6,2.7,25.9,6.8c0-0.7,0-1.3,0-2C169.2,115.7,169,111.3,169.1,106.8z M67.1,104.8L67.1,104.8z
	 M65.7,107.1c-0.1,0.1-0.3,0.3-0.4,0.5C65.4,107.3,65.5,107.2,65.7,107.1z M66.7,105.2L66.7,105.2c-0.1,0.9,0,1.2,0.6,1.1
	C66.8,106.3,66.6,106,66.7,105.2L66.7,105.2z M67.5,104L67.5,104z M72,111.4l-0.5,0.2L72,111.4z M72.2,111.1c0.1,0,0.1,0,0.2,0
	C72.3,111.1,72.3,111.1,72.2,111.1L72.2,111.1z M75.4,100.9c0.1,0,0.2,0,0.3,0C75.6,100.9,75.5,100.9,75.4,100.9L75.4,100.9z
	 M75.8,100.9L75.8,100.9c0.2-0.4,0.2-0.6,0-0.7C75.9,100.2,75.9,100.5,75.8,100.9L75.8,100.9z M81.2,107.6L81.2,107.6z M81.2,107.6
	L81.2,107.6z M82.4,106.8L82.4,106.8z M94.9,102.5L94.9,102.5z M85.8,108L85.8,108L85.8,108z M86.1,108l-0.2-0.1l0,0
	c0.2-0.3,0.4-0.7,0.7-1c-0.2,0.3-0.4,0.7-0.7,1L86.1,108z M94.9,103.2L94.9,103.2z M95.9,99.2c0.1-0.2,0.2-0.5,0.2-0.7
	C96.1,98.7,96,99,95.9,99.2L95.9,99.2z M96.1,101.1c0-0.3,0.2-0.6,0.4-0.9C96.3,100.5,96.2,100.8,96.1,101.1L96.1,101.1z M96.9,100
	c0-0.2,0-0.5,0-0.7C96.8,99.6,96.9,99.8,96.9,100L96.9,100z M99.2,104.4c0.5,0.1,1.1-0.4,1.4-0.4C100.3,104,99.7,104.5,99.2,104.4
	L99.2,104.4z M100.8,110.6L100.8,110.6l-0.3,0.2L100.8,110.6L100.8,110.6z M101.9,109.8l0.2-0.2l0,0L101.9,109.8z M103.9,108.7
	L103.9,108.7c0.1-0.2,0.3-0.4,0.5-0.5C104.2,108.2,104,108.4,103.9,108.7L103.9,108.7z M110.9,106.8c0.3,0,0.5,0,0.8-0.1
	C111.5,106.8,111.2,106.8,110.9,106.8L110.9,106.8z M111.7,106.7L111.7,106.7z M111.7,106.7L111.7,106.7L111.7,106.7z M111.9,104.5
	L111.9,104.5c0.1-0.1,0.3-0.2,0.4-0.3C112.2,104.3,112.1,104.4,111.9,104.5L111.9,104.5z M115.3,107c-0.4,0.2-0.9,0.1-1.2-0.3
	C114.4,107.1,114.9,107.2,115.3,107z M117.7,106c-0.1-0.1-0.1-0.1-0.2-0.2C117.6,105.9,117.6,106,117.7,106z M123.3,103.9l-0.5-0.3
	L123.3,103.9z M126.2,99.9L126.2,99.9L126.2,99.9L126.2,99.9z M127.2,100.8c0.1-0.3,0.1-0.4,0-0.5
	C127.3,100.4,127.3,100.6,127.2,100.8L127.2,100.8z M134.9,99.6L134.9,99.6c0.1,1.5-0.4,3-1.3,4.2c0.9-1.2,1.4-2.6,1.4-4.1
	L134.9,99.6z M130.3,107.7l-0.1-0.1L130.3,107.7z M130.7,98.3L130.7,98.3z M130.6,98.2l-0.6,0.3L130.6,98.2l0.5-0.3L130.6,98.2z
	 M135.4,102.2c-0.6,2.1-2,3.8-3.9,4.8C133.4,105.9,134.8,104.2,135.4,102.2c0.3-0.7,0.4-1.5,0.5-2.2c-0.1,0.7-0.2,1.4-0.5,2.1
	L135.4,102.2z M137.4,108.5c-0.2-0.6,0.5-1,0.7-1.5c-0.3,0.4-1,0.8-0.8,1.3L137.4,108.5z M141.2,109.1c0.2-0.2,0.3-0.5,0.4-0.7l0,0
	c-0.1,0.2-0.3,0.4-0.5,0.6L141.2,109.1z M142.1,107.4L142.1,107.4c-0.3,0-0.6-0.3-0.7-0.6C141.4,107.1,141.7,107.3,142.1,107.4
	c0.4-0.1,0.7-0.3,1.1-0.5c-0.4,0.2-0.7,0.3-1.1,0.3L142.1,107.4z M157.8,112.3c0,0.5,0.2,0.8,0.9,0.8c-0.7-0.1-0.9-0.5-0.9-1
	L157.8,112.3z M162.3,107.2L162.3,107.2l0.3-0.1L162.3,107.2z"/>
<path class="st3" d="M54.9,111.4c0-0.5,0.3-1.5-0.6-1.3c-2.7,0.3-5.6,0.1-8.3,1.9c2.1,1.5,3.8,3.5,4.9,5.8c0.6,0.8,0.5,2-0.3,2.7
	c-2.3,2.7-3.9,6-4.7,9.4c1.4-0.7,3-1.1,4.5-1.2c1.5-1.6,3.2-3.1,5-4.3c-0.3-0.9-0.5-1.9-0.5-2.9C55,118.1,55,114.8,54.9,111.4z"/>
<path class="st3" d="M179.3,129.8c-1-3-2.6-5.8-4.7-8.2c-0.8-0.6-1-1.8-0.4-2.7c1-2.3,2.6-4.3,4.7-5.8c-2.6-1.7-5.4-1.6-8.2-2
	c-0.9-0.1-0.7,0.6-0.7,1.1c0,3.6,0.1,7.3,0.2,10.9c4,1.2,7.3,4.1,9,7.9C179.8,130.7,179.5,130.2,179.3,129.8z"/>
<g class="st4">
	<path class="st5" d="M100.7,111.8c0-0.9,0.8-1.4,1.6-1.9c1-0.6,2-1.2,2.9-1.7c-1,0-1.9,0.1-2-1.2c0-0.2-0.2-0.4-0.4-0.4
		c0,0,0,0,0,0c-0.3,0-0.4,0.2-0.4,0.4c-0.1,0.5-0.5,1-0.9,1.3c-0.8,0.6-1.7,0.8-2.3-0.2c-0.4-0.7-0.7-0.3-1.1,0
		c-1.5,1.2-2,1.1-3.1-0.5c-0.3-0.4-0.5-0.3-0.8-0.1c-0.7,0.5-1.4,0.9-2.1,1.3c-0.7,0.4-1.5,0.8-2-0.4c-0.6,1.3-1,2.7-1.1,4.1
		c0,0.4,0,0.9-0.5,0.9c-0.5-0.1-0.3-0.6-0.3-1c0.1-1.2,0.3-2.3,0.7-3.5c-0.4-0.3-0.6,0-0.8,0.2c-0.9,0.4-1.6,0.3-1.6-0.8
		c0-1.1-0.5-0.9-1-0.4c-0.5,0.5-0.8,0.9-1.3,1.3c-0.4,0.4-0.5,0.7-0.9,0.5s-0.3-0.6-0.3-1c0-0.4,0-0.4,0-0.7c-1,0.5-1.8,1.2-2.5,2
		c-0.3,0.3-0.5,0.8-1,0.2c-0.5-0.5-0.7,0.1-0.9,0.4c-1.1,1.3-2.7,2.1-4.3,2.5c-1.6,0.4-3.3-0.5-3.7-2.2c-0.1-0.2-0.1-0.5-0.1-0.7
		c0-0.3,0-0.8-0.1-0.8c-1.5-0.7-0.3-0.9,0.2-1.2c0.2-0.1,0.4-0.3,0.5-0.5c0.7-1.5,1.6-2.8,2.7-4c-0.5,0.1-1,0.4-1.3,0.8
		c-0.2,0.3-0.4,0.7-0.8,0.3c-0.4-0.4,0-0.6,0.2-0.9c0.1-0.1,0.2-0.2,0.3-0.3c2.3-1.5,5-2.3,7.7-2.3c0.4,0,0.9,0.1,0.9,0.7
		c0,0.6-0.4,0.7-0.8,0.8c-0.2,0.1-0.6,0-0.5-0.2c0.5-1.6-0.7-0.6-1-0.6c-3,0-4.3,2.2-5.9,4.2c-0.2,0.3-0.3,0.6-0.4,0.9
		c1.3-0.5,2.7-1.1,4.1-1.4c0.4-0.1,0.9-0.2,1.3-0.3c0.2,0,0.6,0,0.6,0.3s-0.3,0.5-0.6,0.5c-1.6,0.3-3.2,0.7-4.8,1.5
		c-1,0.4-1.6,1-1.3,2.1c0.1,1.1,0.9,2,2,2.2c1,0.2,2.1-0.1,2.9-0.6c1.4-0.9,2.6-2,3.5-3.3c0.3-0.4,0.5-1.3,1.1-1
		c0.6,0.3-0.3,0.9,0,1.4c0.4-0.3,0.8-0.7,1.3-1c1.2-0.8,1.5-0.7,1.9,0.6c0.6-0.4,1.1-0.9,1.7-1.3c0.9-0.5,1.3-0.3,1.5,0.8
		c0,0.3-0.2,0.6,0.2,0.8c0.4,0.1,0.6-0.2,0.9-0.4c0.9-0.8,1.6-1.7,2.2-2.8c0.2-0.3,0.5-0.9,1-0.6c0.5,0.2-0.3,0.6,0,1
		c1.7-0.4,1.7-0.4,2.2,1.2c0.7-0.3,1.2-0.9,1.2-1.6c0.3-1.5,0.8-2.9,1.6-4.1c0.4-0.6,0.8-1.5,1.6-1.1s0.3,1.3,0,2
		c-0.6,1.1-1.2,2.1-1.9,3.1c-0.3,0.4-0.5,0.8-0.5,1.3c0,0.6,0,1.1,0.6,1.4c0.5,0.1,1,0,1.3-0.4c0.7-0.7,1.4-1.3,2.1-2
		c0.4-0.5,1-0.7,1.6-0.8c0.3,0,0.7,0,0.7,0.4c0.2,1.6,1,0.8,1.7,0.4c0.3-0.2,0.6-0.7,0.9-0.4s-0.1,0.7-0.3,1.1
		c-0.1,0.4-0.6,0.9-0.1,1.2c0.6,0.4,0.7-0.2,1-0.5c0.5-0.5,0.8-1.2,1-1.9c0-0.2,0.1-0.6,0.4-0.6c0.3,0,0.4,0.4,0.3,0.7
		c-0.1,0.6-0.3,1.2-0.5,2c0.7-0.3,1.2-0.8,1.7-1.3c0.4-0.5,0.9-0.9,1.5-1.2c0.4-0.2,1-0.3,1.3,0.1c0.4,0.5,0,1-0.4,1.3
		c-0.4,0.3-0.8,0.5-1.2,0.6c-0.4,0.2-1,0.2-0.7,0.8c0.3,0.6,0.7,0.4,1.1,0.2c0.9-0.4,1.8-1,2.4-1.8c0.5-0.6,1.2-1,1.9-1.3
		c0.4-0.2,0.8-0.1,1,0.2c0.3,0.5,0,0.8-0.3,1.1c-0.4,0.4-0.9,0.6-1.5,0.8c-0.4,0.1-1,0.1-0.8,0.7c0.2,0.6,0.7,0.5,1.2,0.3
		c0.8-0.4,1.6-0.9,2.2-1.5c0.3-0.4,0.7-0.5,1.2-0.4c-1.3,1.3-2.4,2.5-4.1,2.8c-0.4,0-0.9,0-1.1-0.3c-0.5-0.9-1-0.6-1.7-0.2
		c-0.9,0.6-1.9,0.9-2.7-0.3c-0.3-0.4-0.6-0.2-0.9,0c-0.7,0.4-1.2,1-1.7,1.7c-0.6,0.9-1.4,1.7-2.2,2.5
		C100.7,113.2,100.7,111.8,100.7,111.8z M101,105.5c-0.6,0.2-1.1,0.8-1.1,1.5c0,0.5,0.2,0.9,0.8,0.9c0.5,0,1-0.4,1-0.9
		c0-0.1,0-0.1,0-0.2C101.7,106.3,101.4,105.8,101,105.5L101,105.5z M104.4,109.5c-0.9,0.4-1.7,0.9-2.4,1.5c-0.2,0.1-0.4,0.4-0.2,0.6
		s0.5,0.1,0.7,0C103.3,111.1,104,110.4,104.4,109.5L104.4,109.5z M91.3,108c0.7,0.1,1.3-0.3,1.4-1c0,0,0,0,0,0
		c0-0.3-0.1-0.6-0.5-0.6c-0.7,0.1-1.2,0.6-1.5,1.2C90.6,108,91.1,107.9,91.3,108L91.3,108z M97.6,101.1c-0.8,0.7-1.2,1.7-1.3,2.7
		C97,103.1,97.5,102.1,97.6,101.1L97.6,101.1z"/>
	<path class="st5" d="M138.1,107.7c0.2,0.6-0.6,0.7-0.5,1.3c0.7-0.2,1.4-0.5,2.1-0.6c1.2-0.3,1.5,0,1.1,1.2c-0.1,0.3-0.3,0.6,0,0.8
		c0.3,0.3,0.6,0.1,0.9,0c0.7-0.4,1.5-0.8,2.2-1.2c0.4-0.2,0.9-0.4,1.3-0.5c0.5-0.1,1-0.1,1.2,0.4c0.2,0.6-0.3,0.7-0.7,1
		c-0.4,0.2-0.9,0.3-1.3,0.3c-0.4,0-1,0-0.9,0.6c0.1,0.6,0.6,0.6,1.1,0.6c0.8-0.1,1.6-0.5,2.3-1c0.9-0.7,2-1,3.1-0.7
		c0.5,0.2,0.8-0.2,1-0.5c0.8-1,1.7-1.9,2.7-2.7c0.4-0.3,1-0.9,1.5-0.3c0.4,0.5-0.2,1.1-0.6,1.5c-0.8,0.7-1.6,1.4-2.4,2.1
		c-0.2,0.2-0.4,0.3-0.6,0.5c-0.7,0.6-1.7,1.3-1.1,2.3s1.5,0,2.3-0.3c0.4-0.1,0.7-0.6,1.4-0.4c-1,0.8-2.2,1.3-3.5,1.6
		c-0.5,0.1-1,0-1.1-0.6c-0.2-0.9-0.7-0.9-1.3-0.6c-0.7,0.4-1.6,0.3-2.1-0.3c-0.4-0.5-0.9-0.1-1.3,0c-1,0.3-1.9,0.4-2.4-0.9
		c-0.2-0.6-0.7-0.3-1.1-0.2c-1.5,0.3-1.7,0-1.5-1.3c0.1-0.7-0.1-0.9-0.7-0.6c-0.6,0.3-1.6,0.7-2.3,1c-0.3,0.1-0.5,0.4-0.8,0.2
		c-0.3-0.2-0.1-0.5,0-0.8c0.1-0.3,0.3-0.6,0-0.8c-0.3-0.2-0.5,0-0.8,0.3c-0.9,0.9-1.8,1.8-3.2,0.6c-0.3-0.3-0.7,0.2-1.1,0.2
		c-0.9,0.1-1.3-0.4-1.1-1.3c0.3-0.8,0.9-1.5,1.6-1.9c0.2-0.1,0.5-0.3,0.7-0.1c0.2,0.2,0,0.5-0.2,0.6c-0.2,0.2-0.6,0.6-0.9,0.9
		s-0.6,0.7-0.2,1c0.4,0.3,0.7,0,1-0.3c0.3-0.3,0.5-0.7,0.9-1.1c0.3-0.4,0.4-0.3,0.5-0.1c0.1,0.1,0.1,0.3,0,0.5
		c-0.2,0.5-0.9,1.1,0,1.5c0.9,0.3,1.3-0.5,1.7-1.1c0.1-0.1,0.2-0.3,0.2-0.5c0.1-0.3,0-0.8,0.4-0.9c0.4-0.1,0.3,0.5,0.5,0.7
		c0.1,0.3,0.6,0.4,1,0.2C137.6,107.7,137.7,107.3,138.1,107.7z M147.9,112c0.7-0.3,1.7-0.4,2-1.3c0.2-0.4-0.4-0.5-0.8-0.5
		c-0.8,0-2,0.9-1.9,1.4C147.3,112,147.6,112,147.9,112L147.9,112z M152.3,109.1c1-0.4,1.8-1.2,2.2-2.1
		C153.5,107.3,152.7,108.1,152.3,109.1L152.3,109.1z"/>
	<path class="st5" d="M124.2,101.5c-1,0.7-1.9,1.5-2.7,2.3c-1,1.1-1.1,2.7-0.4,3.9c0.9,1,2.3,1.4,3.6,0.9c2.6-0.7,4.7-2.6,5.8-5
		c0.6-0.9,0.5-2.2-0.3-2.9c-0.9-0.7-2.1-0.7-3-0.2c-1.2,0.6-2.2,1.5-2.7,2.8c-0.2,0.3-0.1,0.9-0.8,1c-0.1-0.6,0.1-1.3,0.5-1.7
		c0.9-1.8,2.7-2.9,4.7-3c1.3-0.2,2.4,0.7,2.6,1.9c0.1,0.4,0,0.7-0.1,1.1c0,0.3-0.1,0.5-0.2,0.7c-1.3,3.1-4,5.4-7.3,6.2
		c-1.3,0.4-2.8,0-3.7-1.1c-0.7-1.1-0.7-2.5,0-3.6C121,103.2,122.5,102,124.2,101.5z"/>
</g>
</svg>
