<?xml version="1.0" encoding="utf-8"?>
<!-- Generator: Adobe Illustrator 21.1.0, SVG Export Plug-In . SVG Version: 6.00 Build 0)  -->
<svg version="1.1" id="Layer_1" xmlns="http://www.w3.org/2000/svg" xmlns:xlink="http://www.w3.org/1999/xlink" x="0px" y="0px"
	 viewBox="0 0 250 250" style="enable-background:new 0 0 250 250;" xml:space="preserve">
<style type="text/css">
	.st0{fill:#F9E8A0;}
	.st1{fill:#FF0000;}
	.st2{fill:#414042;}
</style>
<title>iShop</title>
<path class="st0" d="M105,90.4c0,0-0.6-32.8,30.9-33.4c6.9,0.6,29.6,6.3,29,33.4H105z"/>
<circle class="st1" cx="102.5" cy="181.8" r="10.7"/>
<circle class="st1" cx="159.8" cy="181.8" r="10.7"/>
<path class="st0" d="M151,142.7c3.8,0,8.2-1.9,9.5-5.7l20.2-37.8c1.3-1.7,1.3-4,0-5.7c-0.9-1.5-2.6-2.5-4.4-2.5H91.8l-4.4-11.3H68.4
	V91h11.3l20.8,43.5l-8.2,13.9c-0.6,2.5-0.6,3.8-1.3,5.7c0,6.2,5,11.3,11.2,11.3c0,0,0.1,0,0.1,0h68.7V154H105
	c-0.7,0-1.2-0.6-1.3-1.3v-0.6l5-9.5L151,142.7z"/>
<path class="st2" d="M138.4,55.1c-17.6-1.3-32.8,11.3-34.7,28.4c0,0.7,0.6,1.2,1.3,1.3c0.6,0,1.9-0.6,1.9-1.3c0-3.2,1.3-6.3,2.5-9.5
	c6.9-13.9,23.9-20.2,37.8-13.2C156.4,65,162.5,74,163,84.1c0,0.6,0.6,1.3,1.9,1.3l0,0c0.6,0,1.3-0.6,1.3-1.9
	C165.5,69,153.5,57,138.4,55.1z"/>
<path class="st2" d="M136.5,74c1.9,0,3.2,0.6,5,1.9l0.6,0.6l1.9-4.4l-0.6-0.6c-1.4-1.3-3.2-1.9-5-1.9l0.6-4.4l-4.4-0.6L134,69
	c-3.8,0.6-6.9,3.2-6.9,6.9c-0.6,4.4,3.2,6.9,6.9,8.8c3.2,1.9,4.4,2.5,3.8,4.4v0.6l5.7-0.6v-0.6c0.6-4.4-3.2-6.9-6.3-8.8
	c-3.2-1.3-4.4-3.2-4.4-5c-0.1-0.7,0.1-1.4,0.6-1.9C134,74,135.2,74,136.5,74z"/>
<path class="st2" d="M159.8,195c-7.3,0-13.2-5.9-13.2-13.2c-0.2-7.1,5.5-13.1,12.6-13.2c0.2,0,0.4,0,0.6,0c7.3,0,13.2,5.9,13.2,13.2
	l0,0C173,189.1,167.1,195,159.8,195z M159.8,172.3c-5.6,0-10.1,4.5-10.1,10.1c0,5.6,4.5,10.1,10.1,10.1c5.6,0,10.1-4.5,10.1-10.1
	l0,0C169.3,176.7,164.9,172.3,159.8,172.3z M102.5,195c-7.3,0-13.2-5.9-13.2-13.2c-0.2-7.1,5.5-13.1,12.6-13.2c0.2,0,0.4,0,0.6,0
	c7.3,0,13.2,5.9,13.2,13.2l0,0c0.2,7.1-5.5,13-12.6,13.2C102.9,195,102.7,195,102.5,195z M102.5,172.3c-5.6,0-10.1,4.5-10.1,10.1
	s4.5,10.1,10.1,10.1s10.1-4.5,10.1-10.1l0,0c0.1-5.5-4.3-10-9.8-10.1C102.6,172.3,102.6,172.3,102.5,172.3z M171.2,166.6h-68.7
	c-7.3,0-13.2-5.9-13.2-13.2c0.1-2.2,0.5-4.3,1.3-6.3l7.6-13.2L78.5,92.2H68.4c-1.3,0-1.9-0.6-1.9-1.3l0,0V79c0.1-1,0.9-1.8,1.9-1.9
	h18.9c0.7,0,1.2,0.6,1.3,1.3L93,89.1h83.8c2.3,0,4.5,1.2,5.7,3.2c1.3,2.5,1.3,5,0,6.9l0,0L162.3,137c-1.7,4.3-6.1,6.9-10.7,6.3
	h-42.2l-4.4,8.2h65.5c1,0.1,1.8,0.9,1.9,1.9l0,0v11.3C172.4,166,171.8,166.6,171.2,166.6L171.2,166.6z M69.7,89.1h10.1
	c0.5,0.1,0.9,0.3,1.3,0.6l20.8,43.5v1.3l-8.2,13.9c-0.6,1.3-0.6,3.2-0.6,5c-0.1,5.5,4.3,10,9.8,10.1c0.1,0,0.2,0,0.3,0h66.8v-8.2
	H105c-1.4-0.1-2.4-1.2-2.5-2.5v-1.3l5-9.5c0-0.6,0.6-0.6,1.3-0.6H151c3.2,0,6.9-1.9,8.2-5l20.2-37.8c0.6-1.2,0.6-2.6,0-3.8
	c-0.5-1-1.4-1.7-2.5-1.9H92.4c-0.6-0.6-1.3-0.6-1.3-1.3l-5-10.7H70.3L69.7,89.1z"/>
<path class="st2" d="M149.1,104.9h-48.5c-1,0-1.9-0.8-1.9-1.9c0-1,0.8-1.9,1.9-1.9l0,0h49.2c1,0.1,1.8,0.9,1.9,1.9
	C151,104.2,150.4,104.9,149.1,104.9L149.1,104.9z M140.3,116.2h-39.7c-1,0-1.9-0.8-1.9-1.9s0.8-1.9,1.9-1.9l0,0h40.3
	c1,0.1,1.8,0.9,1.9,1.9C142.2,115.6,141.5,116.2,140.3,116.2L140.3,116.2z M130.8,127.5h-30.2c-1,0-1.9-0.8-1.9-1.9
	c0-1,0.8-1.9,1.9-1.9l0,0h30.9c1,0.1,1.8,0.9,1.9,1.9C132.7,126.9,132.1,127.5,130.8,127.5L130.8,127.5z"/>
<path d="M159.8,195c-7.3,0-13.2-5.9-13.2-13.2c-0.2-7.1,5.5-13.1,12.6-13.2c0.2,0,0.4,0,0.6,0c7.3,0,13.2,5.9,13.2,13.2l0,0
	C173,189.1,167.1,195,159.8,195z M159.8,172.3c-5.6,0-10.1,4.5-10.1,10.1c0,5.6,4.5,10.1,10.1,10.1c5.6,0,10.1-4.5,10.1-10.1l0,0
	C169.3,176.7,164.9,172.3,159.8,172.3z M102.5,195c-7.3,0-13.2-5.9-13.2-13.2c-0.2-7.1,5.5-13.1,12.6-13.2c0.2,0,0.4,0,0.6,0
	c7.3,0,13.2,5.9,13.2,13.2l0,0c0.2,7.1-5.5,13-12.6,13.2C102.9,195,102.7,195,102.5,195z M102.5,172.3c-5.6,0-10.1,4.5-10.1,10.1
	s4.5,10.1,10.1,10.1s10.1-4.5,10.1-10.1l0,0c0.1-5.5-4.3-10-9.8-10.1C102.6,172.3,102.6,172.3,102.5,172.3z M171.2,166.6h-68.7
	c-7.3,0-13.2-5.9-13.2-13.2c0.1-2.2,0.5-4.3,1.3-6.3l7.6-13.2L78.5,92.2H68.4c-1.3,0-1.9-0.6-1.9-1.3l0,0V79c0.1-1,0.9-1.8,1.9-1.9
	h18.9c0.7,0,1.2,0.6,1.3,1.3L93,89.1h83.8c2.3,0,4.5,1.2,5.7,3.2c1.3,2.5,1.3,5,0,6.9l0,0L162.3,137c-1.7,4.3-6.1,6.9-10.7,6.3
	h-42.2l-4.4,8.2h65.5c1,0.1,1.8,0.9,1.9,1.9l0,0v11.3C172.4,166,171.8,166.6,171.2,166.6L171.2,166.6z M69.7,89.1h10.1
	c0.5,0.1,0.9,0.3,1.3,0.6l20.8,43.5v1.3l-8.2,13.9c-0.6,1.3-0.6,3.2-0.6,5c-0.1,5.5,4.3,10,9.8,10.1c0.1,0,0.2,0,0.3,0h66.8v-8.2
	H105c-1.4-0.1-2.4-1.2-2.5-2.5v-1.3l5-9.5c0-0.6,0.6-0.6,1.3-0.6H151c3.2,0,6.9-1.9,8.2-5l20.2-37.8c0.6-1.2,0.6-2.6,0-3.8
	c-0.5-1-1.4-1.7-2.5-1.9H92.4c-0.6-0.6-1.3-0.6-1.3-1.3l-5-10.7H70.3L69.7,89.1z"/>
<path d="M149.1,104.9h-48.5c-1,0-1.9-0.8-1.9-1.9c0-1,0.8-1.9,1.9-1.9l0,0h49.2c1,0.1,1.8,0.9,1.9,1.9
	C151,104.2,150.4,104.9,149.1,104.9L149.1,104.9z M140.3,116.2h-39.7c-1,0-1.9-0.8-1.9-1.9s0.8-1.9,1.9-1.9l0,0h40.3
	c1,0.1,1.8,0.9,1.9,1.9C142.2,115.6,141.5,116.2,140.3,116.2L140.3,116.2z M130.8,127.5h-30.2c-1,0-1.9-0.8-1.9-1.9
	c0-1,0.8-1.9,1.9-1.9l0,0h30.9c1,0.1,1.8,0.9,1.9,1.9C132.7,126.9,132.1,127.5,130.8,127.5L130.8,127.5z"/>
</svg>
