<?xml version="1.0" encoding="utf-8"?>
<!-- Generator: Adobe Illustrator 21.1.0, SVG Export Plug-In . SVG Version: 6.00 Build 0)  -->
<svg version="1.1" id="Layer_1" xmlns="http://www.w3.org/2000/svg" xmlns:xlink="http://www.w3.org/1999/xlink" x="0px" y="0px"
	 viewBox="0 0 250 250" style="enable-background:new 0 0 250 250;" xml:space="preserve">
<style type="text/css">
	.st0{fill:#560049;}
	.st1{fill:#C60040;}
</style>
<title>Grocery</title>
<path class="st0" d="M72.5,114.8c2.6,0.8,4.6,3,4.9,5.8c0.3,1.3,0.6,2.5,0.9,3.8c0.1,0.5,0.3,1,0.9,1s1-0.5,1.2-1
	c0.2-0.6,0.3-1.1,0.3-1.7c0-0.5,0.2-0.7,0.7-0.7c0.8,0.1,0.6-0.4,0.5-0.8c-0.6-2.7,0.1-5.5,1.9-7.6c3.2-3.5,8.5-4.2,12.5-1.7
	c3.8,2.5,5.1,7.4,3.2,11.4c-2.6,4.7-8.4,6.4-13.1,3.8c-1.7-0.9-3.1-2.3-3.9-4c-0.1,0.2-0.1,0.4-0.2,0.6c-0.4,3.1-2.5,4.5-5.5,4.6
	c-3.3,0.1-5.3-1.9-5.5-5.5c-0.1-1.3-0.2-2.8-0.3-4.2c0-1.8-1.4-3.3-3.2-3.3c-0.1,0-0.2,0-0.3,0c-0.8,0-1.8-0.4-2.3,0.1
	c-0.5,0.5-0.2,1.5-0.2,2.2c0,2.2,0,4.4,0,6.5c0,1.2,0.3,1.5,1.5,1.6c0.5,0,0.9,0,1.3,0.1s0.8-0.2,0.9,0.2c0.1,0.5,0.1,1,0,1.5
	c0,0.2-0.3,0.1-0.5,0.1H55.9c-0.4,0-0.5-0.1-0.6-0.6c0-1.3,0-1.3,1.2-1.3l1.1-0.1c0.9-0.1,1.2-0.4,1.3-1.3c0-0.5,0-0.9,0-1.3
	c0-5.7,0-11.5,0-17.2c0-1.9-0.2-2.1-2.1-2.1c-0.2,0-0.4,0-0.6,0c-0.6,0.1-0.8-0.1-0.8-0.8c0-1.1,0-1.1,1.2-1.1c4.4,0,8.7,0,13.1,0
	c1.7-0.1,3.4,0.1,5.1,0.4c3.3,0.8,5.4,4.2,4.5,7.5c-0.2,0.9-0.6,1.7-1.2,2.4c-1.2,1.3-2.8,2.1-4.5,2.3L72.5,114.8z M87.8,119.5
	c0,0.6,0,1.1,0,1.7c0,1.4,0.4,2.8,1.1,4c0.8,1.3,2.5,1.7,3.8,1c0.5-0.3,0.9-0.8,1.1-1.3c0.2-0.4,0.3-0.8,0.4-1.2
	c0.6-2.4,0.6-5,0.2-7.5c-0.1-1-0.5-1.9-1-2.8c-0.8-1.2-2.4-1.6-3.7-0.8c-0.4,0.2-0.7,0.6-0.9,1c-0.3,0.5-0.5,1-0.6,1.5
	C87.8,116.5,87.7,118,87.8,119.5z M65.1,109.1c0,1.2,0,2.4,0,3.6c0,0.6,0.2,0.7,0.7,0.7c0.9-0.1,1.9,0,2.8-0.1
	c2.3-0.2,3.6-1.2,4.1-3c0.3-1.3,0.3-2.6,0-3.9c-0.3-1.2-1.2-2.2-2.5-2.5c-1.2-0.2-2.4-0.3-3.5-0.2c-1.2,0-1.7,0.5-1.7,1.8
	C65.1,106.8,65.1,107.9,65.1,109.1L65.1,109.1z"/>
<path class="st1" d="M6.5,114.3c-0.5-1.7-1-3.3-1.3-4.9c-0.5-1.6,0.4-3.4,2-3.9c0.1,0,0.2-0.1,0.3-0.1c3-1,6.1-1.9,9.2-2.9
	c7.5-2.3,15.1-4.1,22.7-5.9c1.9-0.6,4,0.4,4.7,2.3c0.1,0.2,0.1,0.3,0.1,0.5l7,24.4c0.3,0.9,0.2,0.9-0.6,0.7c-3.5-1-7.1-1.5-10.7-1.3
	c-4.4,0.2-8.7,1.1-12.7,2.7c-0.3,0.1-0.7,0.5-0.9,0.2c-0.4-0.4-0.4-1.1-0.1-1.6c1.2-1.8,2.6-3.6,4.1-5.2c2.6-2.6,5.4-5.1,8.3-7.3
	c1.1-0.9,2.1-1.8,3.1-2.8c2-2.2,1.9-5.6-0.3-7.7c-0.6-0.5-1.3-0.9-2-1.2c-2.5-0.7-5.1-0.8-7.6-0.2c-7.7,1.4-14.8,5-20.5,10.3
	C9.6,111.6,8.1,112.9,6.5,114.3z"/>
<path class="st1" d="M178.5,114.3c1.4,0.2,2.7,0.5,4,1c3,1.3,4.6,3.5,4.2,6.3c-0.3,3-2.7,5.5-5.7,5.8c-1.9,0.3-3.9,0.4-5.9,0.4
	c-4,0-8,0-12,0c-0.7,0-0.9-0.2-0.9-0.9s0.1-1,0.9-1c2.7,0,2.7-0.1,2.7-2.7c0-5.8,0-11.6,0-17.5c0-1.4-0.2-1.7-1.6-1.9
	c-0.3,0-0.7,0-1.1,0c-0.7,0.1-0.9-0.2-0.9-0.9c0-1,0-1,1.1-1c4.7,0,9.3,0,14.1,0c1.8,0,3.6,0.4,5.2,1.2c2,1,3.3,3.2,3,5.5
	c-0.1,2.1-1.5,4-3.6,4.6C180.9,113.7,179.7,114.1,178.5,114.3z M171.9,120.3c0,1.4,0,2.8,0,4.2c0,0.9,0.3,1.3,1.2,1.4
	c1.4,0.2,2.8,0.1,4.1-0.3c1.3-0.3,2.4-1.3,2.8-2.7c0.5-1.6,0.5-3.4-0.3-5c-0.5-1.4-1.8-2.3-3.3-2.4c-1.3-0.1-2.7,0-4-0.1
	c-0.5,0-0.6,0.2-0.6,0.6C171.9,117.5,171.9,118.9,171.9,120.3L171.9,120.3z M173.7,113.6c4.4,0.2,5.8-2.2,5.7-5.5
	c0.2-2.2-1.5-4.1-3.7-4.3c-0.1,0-0.2,0-0.3,0c-0.6,0-1.1,0-1.7,0c-1.5,0-2,0.5-2,2c0,1.9,0,3.9,0,5.8
	C171.8,113.7,171.9,113.6,173.7,113.6L173.7,113.6z"/>
<path class="st1" d="M25.2,120.2l-1.2-4c-0.3-1-0.7-1.9-1.3-2.7c-0.6-1-1.9-1.4-3-1.1c-1.2,0.3-2,1.4-2,2.7c0,1.5,0.3,3,0.7,4.4
	c0.3,1.3,0.7,2.7,1,3.9c0.4,1.6,0,3.3-1.1,4.5c-0.9,1.1-1.8,2.1-2.7,3.1c-0.7,0.8-1.2,1.9-1.3,3c0,0.5,0.1,0.7,0.6,0.8
	c1.7,0.1,3.5-0.2,5-0.9c0.5-0.2,0.9-0.2,0.8,0.5c0,3,0.5,6,1.6,8.9c0.2,0.6,0.2,0.9-0.5,1c-1,0.2-1.9,0.5-2.9,0.8
	c-1.6,0.7-3.4-0.1-4.1-1.6c-0.1-0.2-0.2-0.5-0.2-0.7c-0.9-2.9-1.7-5.8-2.5-8.8c-1.1-3.9-2.2-7.8-3.3-11.6c-0.1-0.3-0.2-0.6,0.1-0.9
	c2.9-3.3,6.1-6.5,9.5-9.3c3.5-2.8,7.6-4.8,11.9-6c1.4-0.5,2.8-0.9,4.3-1.2c0.9-0.3,1.8,0,2.4,0.7c0.6,0.9,0.5,2.1-0.2,2.9
	c-0.8,1-1.6,1.8-2.5,2.7c-2.4,2.8-4.9,5.4-7.5,7.9C26.3,119.3,25.8,119.7,25.2,120.2z"/>
<path class="st0" d="M125.9,113.7c0.6-0.7,1.2-1.4,1.9-2c1.9-1.5,4.5-1.7,6.7-0.6c2.2,1,2.7,2.9,2.8,5.1c0,2.7,0,5.4,0,8.2
	c0,1.5,0.1,1.7,1.6,1.7c0.6,0,1.1,0.5,1.1,1.1c0,0.2,0,0.4-0.1,0.5c-0.1,0.2-0.3,0.2-0.5,0.2h-9.2c-0.4,0-0.5-0.1-0.5-0.5
	c-0.1-1.2-0.1-1.3,1.1-1.3c1,0,1.2-0.2,1.2-1.3c0-2.7,0-5.3,0-8c0-1.6-0.7-2.7-1.8-3c-1.3-0.3-2.7,0.3-3.4,1.5
	c-0.6,0.9-0.9,1.9-0.8,3c0,2.2,0,4.3,0,6.5c0,1.1,0.2,1.3,1.3,1.3c0.6-0.1,1.1,0.3,1.1,0.9c0,0.2,0,0.5-0.1,0.7
	c-0.1,0.3-0.3,0.2-0.5,0.2h-9.3c-0.9,0-0.5-0.6-0.6-1s0-0.8,0.6-0.8c1.7,0,2.1,0.3,2.1-2.2c0-5.8,0-11.6,0-17.5c0-0.1,0-0.3,0-0.4
	c0-2.1-0.2-2.3-2.3-2.3c-0.5,0-0.7-0.2-0.7-0.7c0-1.2,0-1.2,1.2-1.2c2.1-0.1,4.2-0.2,6.3-0.3c0.6,0,0.8,0.1,0.8,0.7
	c0,3.5,0,7,0,10.4L125.9,113.7z"/>
<path class="st1" d="M40.6,129.4c3.4,0,6.8,0.3,10.1,1c1.5,0.3,2.3,1,2.4,2.1c0.2,1.3-0.6,2.6-1.8,3.1c-1.3,0.6-2.6,1-4,1.3
	c-6,1.7-11.9,3.4-17.9,5.1c-1,0.3-1,0.3-1.1-0.7c-0.3-2.5-0.9-5-1.2-7.5c-0.2-2-0.3-2,1.6-2.5C32.6,130.2,36.6,129.6,40.6,129.4z"/>
<path class="st1" d="M203.6,119.3c-0.1-5.3,4.6-9,9.6-8.9c5,0,9,4,9,9c0,0,0,0.1,0,0.1c-0.1,5.2-4.3,9.3-9.5,9.2
	C207.6,128.7,203.5,124.5,203.6,119.3L203.6,119.3L203.6,119.3z M216.4,119.1c0-0.8,0-1.5-0.1-2.3c-0.1-1.3-0.5-2.5-1.3-3.6
	c-0.9-1.2-2.6-1.4-3.7-0.5c-0.2,0.2-0.5,0.4-0.6,0.7c-0.3,0.5-0.6,1-0.7,1.6c-0.5,2.3-0.7,4.7-0.4,7.1c0,1.1,0.3,2.1,0.9,3
	c0.7,1.2,2.1,1.8,3.4,1.4c1-0.4,1.8-1.2,2-2.3C216.2,122.5,216.5,120.8,216.4,119.1L216.4,119.1z"/>
<path class="st0" d="M151.5,119.7c-1.7,0-3.4,0-5.1,0c-0.5,0-0.7,0.2-0.7,0.7c0,0.9,0.2,1.7,0.4,2.5c0.8,2.4,3.3,3.8,5.7,3
	c0.8-0.3,1.6-0.7,2.1-1.4c0.5-0.6,1-1.3,1.3-2c0.4-0.9,0.9,0,1.3,0c0.4,0,0.4,0.4,0.2,0.8c-1.7,3.7-4.6,5.2-8.8,5
	c-1.1-0.1-2.1-0.3-3.1-0.8c-3.8-1.6-5.9-5.8-5-9.8c0.7-4.1,4.2-7.1,8.3-7.3c1-0.1,2.1,0,3.1,0.2c3.4,0.9,5.7,3.9,5.7,7.4
	c0.1,1.6,0.1,1.6-1.5,1.6H151.5z M148.4,117.8L148.4,117.8h2.7c0.4,0,0.8-0.3,0.8-0.7c0,0,0-0.1,0-0.1c0.1-1,0-2.1-0.4-3.1
	c-0.3-0.9-1.1-1.6-2-1.7c-1-0.2-2,0.3-2.6,1.2c-0.8,1.2-1.2,2.6-1.1,4c0,0.4,0.2,0.5,0.5,0.5L148.4,117.8z"/>
<path class="st1" d="M236.7,113.6c0,0.6,0,1.3,0,1.9c0,0.3,0.2,0.8-0.3,0.8s-1.1,0.3-1.4-0.4c-0.5-0.9-1.1-1.7-1.9-2.4
	c-1.2-1.2-3-1.7-4.6-1.2c-0.6,0.1-1.1,0.5-1.4,1.1c-0.4,0.7-0.2,1.7,0.5,2.1c0.2,0.1,0.3,0.2,0.5,0.2c1.5,0.5,3.1,0.8,4.6,1.3
	c0.5,0.1,0.9,0.3,1.3,0.4c2.1,0.6,3.5,2.6,3.4,4.8c0.1,2.4-1.4,4.5-3.6,5.3c-2.5,0.9-5.2,0.8-7.6-0.3c-0.3-0.2-0.8-0.2-1.1,0
	c-0.2,0.1-0.3,0.2-0.5,0.3c-1.1,0.4-1.6,0.1-1.6-1c0-1.3-0.1-2.8-0.1-4.2c0-0.3-0.3-0.7,0.3-0.8c0.5,0,1.1-0.3,1.3,0.3
	c0.4,0.9,1,1.8,1.7,2.5c1.3,1.6,3.4,2.3,5.4,1.9c0.9-0.1,1.6-0.7,1.8-1.6c0.2-1-0.4-2-1.3-2.2c-1.4-0.4-2.7-0.8-4.1-1
	c-0.8-0.2-1.5-0.4-2.2-0.8c-2-1.1-3.1-3.5-2.6-5.7c0.5-2.3,2.3-4,4.6-4.4c1.9-0.4,3.9-0.2,5.6,0.7c0.3,0.2,0.7,0.2,1,0
	c0.2-0.2,0.4-0.3,0.6-0.4c0.9-0.4,1.5-0.1,1.6,0.9C236.6,112.4,236.6,113,236.7,113.6L236.7,113.6z"/>
<path class="st0" d="M101,119.6c-0.1-4.9,3.8-9,8.8-9.1c1.9-0.2,3.9,0.2,5.6,1.1c1.7,0.9,2.5,2.9,1.9,4.7c-0.3,1.1-1.2,1.8-2.3,1.9
	c-1.2,0.3-2.4-0.3-3-1.3c-0.6-1-0.4-2.2,0.3-3c0.7-0.9,0.4-1.3-0.6-1.7c-1.6-0.4-3.3,0.4-3.9,1.9c-0.8,1.9-1.2,4-0.9,6.1
	c0.1,1,0.3,2,0.6,2.9c0.7,2.2,3.1,3.4,5.3,2.6c0.8-0.3,1.5-0.8,2-1.4c0.6-0.7,1-1.5,1.3-2.3c0.1-0.4,0.3-0.4,0.7-0.3
	c1.2,0.4,1.3,0.4,0.8,1.6c-1.6,3.9-4.7,5.6-9.1,4.9C104,127.8,100.8,124,101,119.6z"/>
<path class="st1" d="M194.7,115.4c0.5-0.9,0.9-1.8,1.5-2.7c1.1-1.9,3.4-2.7,5.5-2.1c1.8,0.6,2.9,2.5,2.3,4.4c0,0.1-0.1,0.2-0.1,0.3
	c-0.6,1.4-2.2,2-3.6,1.4c-0.1,0-0.1-0.1-0.2-0.1c-1.3-0.7-1.7-2.3-1-3.6c0-0.1,0.1-0.1,0.1-0.2l0.2-0.4c-0.9,0.2-1.7,0.8-2.2,1.7
	c-0.9,1.4-1.4,2.9-1.6,4.5c-0.3,2-0.4,4-0.3,6c0.1,1,0.3,1.2,1.3,1.2h1.2c0.6,0,1,0.5,1,1.1c0,0.2-0.1,0.4-0.1,0.5
	c-0.1,0.3-0.3,0.2-0.6,0.2c-3.4,0-6.8,0-10.2,0c-0.8,0-0.5-0.6-0.5-1c0-0.4-0.1-0.8,0.5-0.8c2.3,0.1,2.1-0.2,2.1-2.2
	c0-2.9,0-5.9,0-8.8c0-1.7-0.3-2-2-2.1c-0.3,0-0.7,0.2-0.7-0.2c-0.1-0.5-0.1-1,0-1.5c0-0.2,0.3-0.1,0.4-0.1c2.1-0.1,4.3-0.2,6.4-0.3
	c0.6,0,0.7,0.2,0.7,0.7C194.7,112.8,194.7,114.1,194.7,115.4z"/>
<path class="st1" d="M132.7,141.7c0.4-0.6,0.6-1.3,1.3-1.2c0.7,0,1,0.5,1.7,1.9c0.3-0.4,0.6-0.8,0.9-1.2c0.5-0.8,1.6-1,2.4-0.5
	c0.3,0.2,0.6,0.6,0.7,1c0.4,1.5,0.5,3,0.4,4.5c0,0.3-0.2,0.4-0.5,0.4c-0.3,0-0.4-0.3-0.4-0.6c0-1,0-2-0.1-3
	c-0.1-0.6-0.1-1.4-0.9-1.6c-0.8-0.1-1,0.7-1.3,1.2c-0.3,0.5-0.5,1.1-0.7,1.6c-0.1,0.3-0.3,0.5-0.6,0.4c-0.3,0-0.5-0.2-0.5-0.5
	c-0.1-0.7-0.2-1.3-0.5-2c-0.1-0.3-0.2-0.7-0.6-0.7c-0.4,0-0.4,0.4-0.5,0.7c-0.3,0.9-0.5,1.8-0.6,2.7c0,0.3,0.1,0.8-0.3,0.8
	c-0.7,0-1.3,1-2.2,0.3c-0.4-0.3-0.6-0.2-0.9,0.1c-0.5,0.6-1.5,0.7-2.1,0.1c-0.1-0.1-0.2-0.3-0.3-0.4c-0.8-1.3-1-3-0.4-4.4
	c0.2-0.6,0.7-1.1,1.3-1.2c0.7,0,1.3,0.4,1.6,1c0.3,0.5,0.2,1.1,0.9,1.3c0.2,0.1,0.1,0.5,0.1,0.8s-0.1,0.6-0.1,0.9s0,1,0.5,1
	s0.8-0.4,0.7-1c-0.1-0.8-0.2-1.6-0.2-2.4c0-0.4-0.4-1.1,0.2-1.3C132.4,140.3,132.4,141.2,132.7,141.7z M127.5,143
	c0,0.6,0.1,1.1,0.3,1.6c0.2,0.4,0.3,0.9,0.8,0.9c0.5,0,0.7-0.4,0.9-0.8c0.3-1.3,0-2.6-0.8-3.6c-0.3-0.2-0.6-0.1-0.7,0.2
	C127.6,141.9,127.5,142.5,127.5,143L127.5,143z"/>
<path class="st1" d="M204,139.7c1.1-0.7,2-1.7,2.6-2.9c0.2-0.4,0.4-0.5,0.8-0.4s0.3,0.5,0.3,0.8c-0.1,0.9-0.1,1.9-0.2,2.8
	c0.1,0,0.1,0,0.2,0c1.5-0.7,2.1-0.5,2.5,1.2c0.3,1.2,0.4,2.4,0.6,3.6c0.1,0.2-0.1,0.5-0.3,0.5c0,0,0,0,0,0c-0.4,0.1-0.5-0.1-0.6-0.5
	c-0.2-0.9-0.3-1.8-0.5-2.7c0-0.2-0.1-0.4-0.1-0.6c-0.1-0.3-0.1-0.9-0.5-0.9s-0.7,0.3-0.9,0.7c-0.3,0.5-0.5,1.1-0.6,1.7
	c0,0.4,0,0.9,0,1.3c-0.1,0.7,0.2,1.6-1,1.5c-0.4,0-0.7,0.4-1.1,0.6c-0.7,0.4-1.6,0.1-2-0.6c-0.1-0.1-0.1-0.3-0.1-0.4
	c-0.3-1-0.3-2.1-0.2-3.1c0-0.7-0.1-1-0.8-0.9c-0.8,0.1-1.6-0.2-2.1-0.7c-0.2-0.2-0.4-0.5-0.2-0.8c0.2-0.3,0.5-0.2,0.8,0
	c0.2,0.2,0.5,0.3,0.7,0.5c1.1,0.4,1.7,0.1,1.9-1.1c0.1-1.2,0.3-2.2,0.3-3.3c0-0.3,0-0.7,0.5-0.7c0.5,0,0.5,0.4,0.5,0.8
	C204.3,137.2,204.1,138.3,204,139.7z M206.7,138.8c-0.8,0.7-1.7,1.4-2.7,2c-0.1,0.1-0.2,0.2-0.2,0.3c-0.2,1.2-0.2,2.4,0,3.6
	c0.1,0.7,0.5,0.9,1.2,0.6c0.3-0.1,0.6-0.5,1-0.4c0.4,0,0.2-0.2,0.2-0.4C206.4,142.6,206.5,140.7,206.7,138.8L206.7,138.8z"/>
<path class="st1" d="M150,144.6c-0.4,0.3-0.9,0.6-1.3,0.9c-0.8,0.4-1.7,0.1-2.1-0.7c-0.1-0.1-0.1-0.3-0.1-0.4
	c-0.2-1.1-0.1-2.3,0.4-3.4c0.1-0.2,0.3-0.4,0.5-0.3c0,0,0,0,0.1,0c0.2,0.1,0.4,0.3,0.3,0.6c0,0,0,0.1,0,0.1
	c-0.2,0.6-0.4,1.2-0.4,1.9c0,0.5-0.1,1.1,0.5,1.3c0.6,0.2,1-0.2,1.3-0.6c0.5-0.5,0.7-1.2,0.6-1.9c0-0.4,0-0.7,0.5-0.7
	c0.5,0,0.5,0.4,0.4,0.7c0.1,1.6,0.4,3.3,0.8,4.9c0,0.2,0.2,0.5,0.5,0.5c0.2,0,0.4,0.1,0.5,0.2c0.3,0.2,1.1,0.2,0.9,0.8
	c-0.2,0.7-0.7,0.2-1.1,0.1c-0.4-0.1-0.5,0-0.5,0.4c0,0.4,0,0.8,0,1.2c0,1.9-1.5,3.4-3.3,3.4c-0.5,0-1.1-0.1-1.5-0.3
	c-1.5-0.5-2.6-1.9-2.7-3.4c-0.2-1.5,0.8-2.8,2.2-3.1c0,0,0,0,0,0c1.1-0.2,2.3-0.2,3.4,0.1c0.5,0.1,0.7,0,0.6-0.5
	C150.3,145.7,150.1,145.2,150,144.6z M150.8,149.5c0-0.3-0.1-0.7-0.1-1.1c0-0.3-0.2-0.5-0.4-0.5c-1.2-0.4-2.4-0.5-3.6-0.3
	c-0.9,0.1-1.6,0.9-1.6,1.9c0.1,1.7,1.5,3,3.2,3C150.1,152.5,150.9,151.6,150.8,149.5L150.8,149.5z"/>
<path class="st1" d="M241.7,128.4c-1.8-0.1-3.2-1.6-3.2-3.4c0-1.8,1.4-3.2,3.2-3.3c1.8,0.1,3.2,1.5,3.3,3.3
	C245,126.8,243.5,128.3,241.7,128.4z"/>
<path class="st1" d="M99.1,140.6c0.3-1,0.6-1.8,0.8-2.7c0.6-2,1.5-3.9,2.7-5.6l0.3-0.5c0.2-0.3,0.5-0.7,0.9-0.4
	c0.4,0.3,0.1,0.7-0.1,1c-1.8,2.6-3,5.5-3.7,8.6c-0.1,0.6-0.1,1.1,0,1.7c0.2,1.5,0.3,2.9,0.4,4.4c0,0.3,0.1,0.8-0.4,0.8
	c-0.5,0-0.5-0.4-0.5-0.8c-0.1-1.3-0.2-2.5-0.3-3.8c-0.1-0.9-0.4-1.7-0.9-2.4c-1.4-1.9-2.6-3.9-3.8-5.9c-0.1-0.2-0.2-0.3-0.3-0.5
	c-0.1-0.2-0.2-0.6,0.1-0.8c0.3-0.2,0.5,0.1,0.7,0.3c0.7,1.2,1.4,2.4,2.2,3.6C97.7,138.7,98.3,139.6,99.1,140.6z"/>
<path class="st1" d="M123.7,138.8c0.2,1.9-0.2,1.9,1.9,1.7c0.4,0,1-0.4,1.1,0.3c0.1,0.7-0.6,0.5-1,0.6h-0.3
	c-0.5,0.1-1.1-0.2-1.3,0.2c-0.2,0.5,0.1,0.9,0.2,1.3c0.3,1.4,0.5,2.9,0.5,4.3c0,0.4,0,0.8-0.5,0.8s-0.4-0.5-0.4-0.8
	c-0.1-1.8-0.4-3.6-0.8-5.3c-0.1-0.5-0.3-0.5-0.7-0.4c-0.6,0.1-1.1,0.3-1.6,0.6c-0.3,0.2-0.6,0.3-0.8,0s0-0.6,0.3-0.8
	c0.6-0.4,1.2-0.6,1.9-0.6c0.5,0,0.7-0.3,0.6-0.8c-0.2-1.6,0-3.2,0.6-4.7c0.1-0.3,0.2-0.5,0.4-0.8c0.4-0.8,1.2-1.3,2-1.2
	c0.9,0.1,1.3,0.8,1.7,1.6c0.2,0.4,0.2,0.8,0.4,1.1c0.1,0.4,0.1,0.7-0.3,0.8c-0.4,0.1-0.6-0.3-0.7-0.6c-0.1-0.5-0.3-0.9-0.5-1.3
	c-0.5-0.8-1-0.8-1.6-0.1C124.1,135.8,123.6,137.3,123.7,138.8z"/>
<path class="st1" d="M160.6,141.2c0-1.7,0-3.1,0-4.5c0-0.2,0-0.4,0-0.6s0.1-0.5,0.5-0.5c0.3,0,0.5,0.2,0.5,0.5c0,1,0.1,2,0.1,3
	c-0.1,2,0,4,0.2,6c0,0.4,0,0.8-0.4,0.9c-1.2,0.5-2.5,0.6-3.7,0.2c-1.4-0.4-2.2-1.8-1.9-3.2c0.2-1,0.6-2,1.2-2.8
	c0.4-0.8,1.4-1.1,2.2-0.7c0.2,0.1,0.5,0.3,0.6,0.5C160,140.4,160.2,140.7,160.6,141.2z M159.2,145.5c0.4,0,0.9-0.1,1.3-0.2
	c0.3-0.1,0.4-0.2,0.4-0.5c-0.2-1.5-0.9-3-1.8-4.2c-0.2-0.3-0.5-0.4-0.8-0.2c-0.1,0.1-0.2,0.1-0.2,0.2c-0.4,0.5-0.7,1.1-0.9,1.7
	C156.2,144.3,157,145.5,159.2,145.5L159.2,145.5z"/>
<path class="st1" d="M223.5,139.6c1.7-0.8,2.6-0.5,3.4,1.2c0.1,0.3,0.3,0.6,0.3,1c0.5,1.3-0.2,2.8-1.6,3.2c-0.2,0.1-0.5,0.1-0.7,0.1
	c-0.5,0.1-1.1-0.1-1.3,0.6c-0.1,0.2-0.7,0.2-0.8-0.1c-0.1-0.6-0.5-0.5-0.8-0.7c-0.4-0.1-0.8-0.3-1.2-0.5c-0.2-0.1-0.4-0.3-0.3-0.6
	c0,0,0,0,0,0c0.1-0.2,0.4-0.4,0.6-0.3c0,0,0,0,0,0c0.5,0.2,1.1,0.7,1.4,0.3c0.4-0.4,0.1-1,0.1-1.6c-0.1-2.2-0.3-4.4-0.4-6.7
	c0-0.1,0-0.2,0-0.2c0.1-0.4-0.2-1,0.4-1c0.6-0.1,0.5,0.6,0.5,0.9C223.3,136.8,223.4,138.2,223.5,139.6z M223.8,143.1
	c0.1,0.3-0.4,0.8,0.2,1.1c1.1,0.3,2.1-0.4,2.4-1.4c0-0.1,0-0.2,0.1-0.3c-0.1-0.7-0.3-1.4-0.8-1.9c-0.6-0.7-1.2-0.7-1.5,0.2
	C223.9,141.5,223.8,142.3,223.8,143.1z"/>
<path class="st1" d="M182.9,144c0.5-1,1-1.8,1.4-2.7c0.3-0.5,0.6-0.9,0.9-1.4c0.3-0.5,0.5-0.6,0.9-0.3c0.4,0.3,0.1,0.6,0,0.9
	l-0.5,0.7c-0.9,1.2-1.5,2.6-2,4c-0.1,0.4-0.3,0.6-0.7,0.6c-0.5,0-0.5-0.3-0.7-0.6c-0.5-1.1-0.7-2.3-0.5-3.5c0.1-0.6-0.2-0.7-0.6-0.9
	c-0.3-0.2-0.8-0.1-1,0.3c0,0,0,0,0,0c-0.4,0.6-0.6,1.2-0.6,1.9c0,0.7,0.1,1.3,0.1,2c0,0.3,0,0.5-0.4,0.5c-0.4,0.1-0.6,0-0.6-0.4
	c-0.2-1.7-0.3-3.4-0.2-5.1c0-0.2,0.2-0.5,0.4-0.5c0,0,0,0,0.1,0c0.4,0,0.5,0.3,0.5,0.7c0.6-0.5,1.4-0.6,2.1-0.3
	c0.3,0.2,0.4,0.6,0.6,0.8C183.1,141.7,182.4,142.9,182.9,144z"/>
<path class="st1" d="M238.1,141.3c0-0.5,0.2-1.2,0-1.6s-1-0.1-1.5-0.3c-0.5-0.2-1.2,0.1-1.1-0.6c0.1-0.7,0.7-0.3,1.2-0.3
	c1.7,0.2,1.6,0.2,1.8-1.4c0.1-0.7,0.2-1.4,0.3-2.2c0-0.3,0.1-0.6,0.5-0.5c0.4,0.1,0.5,0.3,0.4,0.7c-0.1,1-0.2,1.9-0.4,2.9
	c-0.1,0.5,0,0.7,0.6,0.7c0.4,0,0.9,0,1.3,0c0.3,0,0.7,0.1,0.6,0.6c-0.1,0.5-0.4,0.4-0.7,0.4c-0.3,0-1,0-1.5,0
	c-0.5,0-0.5,0.1-0.5,0.5c-0.1,1.1,0,2.2,0.2,3.2c0.1,0.9,0.9,1.6,1.8,1.5c0.1,0,0.2,0,0.3-0.1c0.4,0,0.7,0,0.8,0.3s-0.3,0.5-0.6,0.6
	c-1.3,0.3-2.6-0.4-3-1.7C238.2,143.2,238,142.3,238.1,141.3z"/>
<path class="st1" d="M192.3,141.4l2.4,0.9c0.5,0.2,1,0.5,1.4,0.9c0.5,0.5,0.7,1.2,0.3,1.9c-0.3,0.6-1,1-1.6,0.7
	c-1-0.2-2-0.7-2.8-1.3c-0.3-0.2-0.5-0.4-0.2-0.7c0.3-0.3,0.5-0.2,0.8,0c0.6,0.4,1.3,0.8,2,1c0.4,0.1,0.8,0.3,1.1-0.2
	c0.2-0.5-0.2-0.7-0.5-0.9c-0.7-0.4-1.5-0.7-2.3-1c-0.7-0.2-1.4-0.5-2.1-0.9c-0.3-0.2-0.4-0.5-0.2-0.8c0.1-0.1,0.2-0.2,0.3-0.3
	c1.4-0.5,2.8-0.7,4.2-0.6c0.4,0,0.7,0.1,0.7,0.6c-0.1,0.5-0.4,0.4-0.8,0.3C194,140.9,193.1,141,192.3,141.4z"/>
<path class="st1" d="M175.5,145.6c-1.1,0.1-2.2-0.6-2.5-1.7c-0.1-0.3-0.2-0.6-0.6-0.6c-0.4,0-0.4-0.2-0.3-0.5c0-0.3,0.1-0.5,0.4-0.4
	c0.5,0.1,0.6-0.3,0.7-0.7c0.4-1.2,1.6-1.8,2.8-1.5c0.1,0,0.1,0,0.2,0.1c0.4,0.2,0.9,0.4,0.9,0.9c0.1,0.5-0.1,1.1-0.6,1.4
	c-0.6,0.4-1.3,0.6-2,0.7c-0.2,0-0.5,0-0.5,0.2c0,0.2,0.1,0.4,0.2,0.6c0.4,0.4,0.9,0.6,1.5,0.5c0.6-0.1,1.1-0.3,1.7-0.6
	c0.3-0.1,0.6-0.2,0.8,0.1s0,0.6-0.3,0.7C177.1,145.2,176.3,145.5,175.5,145.6z M174.1,142.3c0.6,0.1,1.2-0.1,1.8-0.4
	c0.2-0.1,0.3-0.2,0.3-0.4c0-0.2-0.2-0.3-0.4-0.3C175,140.9,174.3,141.3,174.1,142.3L174.1,142.3z"/>
<path class="st1" d="M214.2,145.7c-1.1,0.1-2.2-0.6-2.4-1.7c-0.1-0.3-0.1-0.7-0.6-0.7c-0.3,0-0.3-0.2-0.3-0.5c0-0.2,0.1-0.4,0.3-0.4
	c0.5,0,0.6-0.3,0.7-0.7c0.3-1.2,1.4-1.9,2.6-1.6c0.6,0.1,1.2,0.4,1.3,1.1c0.1,0.6-0.2,1.3-0.8,1.6c-0.5,0.3-1.1,0.5-1.7,0.6
	c-0.7,0-0.7,0.3-0.4,0.8c0.3,0.5,0.9,0.8,1.5,0.6c0.6-0.1,1.1-0.3,1.6-0.6c0.3-0.2,0.6-0.2,0.8,0.1s0,0.6-0.3,0.7
	C215.7,145.4,215,145.6,214.2,145.7z M213.5,142.3c0.4-0.1,0.7-0.2,1-0.4c0.2-0.1,0.3-0.3,0.3-0.5c-0.1-0.2-0.3-0.3-0.5-0.4
	c-0.6-0.1-1.3,0.3-1.4,0.9C212.8,142.3,212.8,142.4,213.5,142.3L213.5,142.3z"/>
<path class="st1" d="M105.9,144.4c0.1,1-0.4,2-1.2,2.5c-0.8,0.6-1.9,0.4-2.5-0.3c-0.2-0.2-0.3-0.5-0.3-0.8c-0.2-1.4,0.1-2.9,0.7-4.2
	c0.2-0.4,0.4-0.7,0.2-1.2c-0.1-0.2,0-0.4,0.2-0.5c0,0,0,0,0,0c0.2-0.1,0.4-0.1,0.6,0.1C104.9,141,105.8,142.6,105.9,144.4z
	 M103.7,141.4c-0.6,1.1-1,2.3-1,3.6c0,0.5,0.1,1.1,0.8,1.2s1-0.3,1.3-0.8c0.2-0.3,0.2-0.6,0.2-0.9
	C104.9,143.3,104.5,142.2,103.7,141.4z"/>
<path class="st1" d="M168.3,141.5c1,0.5,1.9,0.9,2.7,1.3c0.8,0.3,1.3,1.2,1.1,2.1c-0.1,0.7-0.8,1.2-1.6,1.1c0,0,0,0-0.1,0
	c-0.9-0.2-1.7-0.7-2.4-1.3c-0.3-0.2-0.4-0.5-0.1-0.8s0.5-0.2,0.8,0c0.5,0.5,1,0.9,1.6,1.1c0.3,0.1,0.5,0.2,0.7-0.1
	c0.2-0.3,0.1-0.6-0.1-0.8c-0.5-0.4-1.1-0.8-1.7-1c-0.8-0.3-1.5-0.6-2.2-1c-0.5-0.4-0.5-1,0.1-1.2c1.1-0.4,2.3-0.6,3.5-0.6
	c0.4,0,0.8,0.1,0.7,0.6c0,0.5-0.4,0.4-0.7,0.4C169.8,141.2,169,141.3,168.3,141.5z"/>
<path class="st1" d="M233.6,141.3c1,0.5,1.8,0.8,2.6,1.2c0.8,0.3,1.4,1.1,1.3,1.9c0,0.7-0.6,1.3-1.4,1.3c-0.1,0-0.2,0-0.3,0
	c-0.9-0.2-1.7-0.7-2.4-1.3c-0.2-0.2-0.4-0.5-0.2-0.8s0.5-0.2,0.8,0c0.5,0.5,1.1,0.8,1.7,1c0.3,0.1,0.5,0.2,0.7-0.2
	c0.1-0.2,0.1-0.5-0.1-0.7c-0.4-0.4-0.9-0.7-1.4-0.9c-0.9-0.3-1.7-0.7-2.5-1.2c-0.2-0.1-0.5-0.2-0.4-0.5s0.1-0.6,0.5-0.7
	c1.1-0.4,2.3-0.6,3.5-0.5c0.3,0,0.7,0.1,0.7,0.5c0,0.4-0.4,0.5-0.7,0.4C235.2,140.9,234.3,141,233.6,141.3z"/>
<path class="st1" d="M165.7,146c-1.1,0-2.1-0.6-2.7-1.6c-0.3-0.4-0.3-1-0.8-1.2c-0.2-0.1-0.2-0.5,0-0.5c0.6-0.2,0.6-0.8,0.9-1.3
	c0.5-0.9,1.6-1.3,2.5-0.8c0.2,0.1,0.3,0.2,0.4,0.3c0.6,0.4,0.7,1.2,0.3,1.8c-0.1,0.2-0.3,0.3-0.6,0.4c-0.5,0.2-1,0.3-1.5,0.3
	c-0.6,0-0.5,0.3-0.3,0.6c0.5,0.7,1.3,1.1,2.1,0.9c0.3-0.1,0.6-0.1,0.8-0.3c0.3-0.1,0.6-0.2,0.8,0.1c0.2,0.3-0.1,0.6-0.4,0.7
	C166.8,145.8,166.3,146,165.7,146z M164.2,142.5c0.4-0.2,1.1,0,1.3-0.6c0.1-0.3-0.4-0.5-0.8-0.6c-0.6,0-0.8,0.4-1,0.9
	C163.7,142.7,163.9,142.5,164.2,142.5z"/>
<path class="st1" d="M229.4,143c-0.2,0.1-0.7-0.3-0.8,0.3c0,0.4,0.2,0.8,0.6,1c0.5,0.3,1.1,0.4,1.6,0.3c0.5,0,0.9-0.2,1.3-0.2
	c0.4-0.1,0.8-0.2,0.9,0.3c0.1,0.5-0.3,0.5-0.7,0.6c-0.9,0.3-1.9,0.3-2.9,0.1c-1.2-0.2-2-1.3-1.8-2.5c0,0,0-0.1,0-0.1
	c0.1-0.8,0.5-1.6,1-2.2c0.6-0.7,1.7-0.8,2.5-0.3c0.6,0.5,0.7,1.3,0.3,2C231,143,230.2,143,229.4,143z M229.6,142.1
	c0.5,0,1,0,1.1-0.7c0-0.5-0.3-0.5-0.7-0.5c-0.5,0-0.9,0.4-1,0.9C229,142.2,229.4,142,229.6,142.1L229.6,142.1z"/>
<path class="st1" d="M111.4,141.2c-0.1,1.3-0.3,2.6-0.6,3.8c-0.4,1.2-0.9,1.8-1.7,1.8s-1.6-0.6-1.9-1.8c-0.3-1.2-0.3-2.4,0-3.6
	c0-0.3,0.2-0.6,0.6-0.5c0.4,0.1,0.4,0.4,0.4,0.7c-0.3,1.1-0.3,2.2,0,3.3c0.2,0.5,0.3,0.9,0.9,0.9s0.7-0.5,0.8-0.9
	c0.3-1.2,0.5-2.5,0.6-3.7c0-0.4-0.1-0.9,0.5-0.9C111.5,140.3,111.3,140.8,111.4,141.2z"/>
<path class="st1" d="M186.4,142.4c0-0.5,0-0.9,0.2-1.3c0.2-0.7,0.8-1.2,1.5-1.2c0.7,0.1,1.4,0.6,1.6,1.3c0.1,0.4-0.1,0.8-0.5,0.9
	c0,0,0,0,0,0c-0.4,0.2-0.8,0.3-1.2,0.5c-0.8,0.2-0.6,0.6-0.3,1c0.5,0.7,1.5,0.9,2.3,0.4c0,0,0.1,0,0.1-0.1c0.2-0.2,0.4-0.2,0.7,0
	c0.2,0.2,0.2,0.5,0,0.7c-0.4,0.5-1,0.8-1.6,0.7C187.7,145.4,186.4,144,186.4,142.4z M187.5,141.9c0.3,0,0.5,0,0.7-0.2
	c0.1-0.1,0.4,0,0.4-0.3c0-0.3-0.2-0.3-0.3-0.3c-0.2-0.1-0.4-0.1-0.6,0.1C187.6,141.3,187.5,141.6,187.5,141.9L187.5,141.9z"/>
<path class="st1" d="M144.1,140.3c0-1.7,0-3.4,0-5.1c0-0.3,0-0.6,0.4-0.6c0.4,0,0.5,0.3,0.5,0.7c0,1.9-0.1,3.7-0.2,5.6
	c-0.1,1.6,0.1,3.2,0.5,4.7c0.1,0.3,0.1,0.6-0.3,0.7c-0.4,0.1-0.6-0.2-0.7-0.5c-0.4-1.8-0.6-3.6-0.5-5.4H144.1z"/>
<path class="st1" d="M113.5,141.2c0.7-0.6,1.7-0.6,2.4,0c0.3,0.2,0.5,0.4,0.3,0.7s-0.5,0.2-0.8,0.1c-1.1-0.5-1.5-0.3-1.7,0.8
	c-0.2,0.8-0.2,1.6,0,2.4c0,0.3,0.3,0.8-0.3,0.9c-0.6,0.1-0.7-0.3-0.7-0.7c-0.2-1.8-0.2-3.6-0.2-5.3c0-0.4,0.1-0.7,0.5-0.7
	c0.4,0,0.4,0.4,0.4,0.7S113.5,140.7,113.5,141.2z"/>
<path class="st1" d="M141.6,139.1c0.6,0,0.5,0.4,0.5,0.8c0,1.6,0.1,3.1,0.3,4.7c0.1,0.5,0.1,1.1,0.8,1.4c0.2,0.1,0.3,0.3,0.2,0.5
	c0,0,0,0,0,0.1c-0.1,0.2-0.4,0.3-0.6,0.3c-0.7-0.1-0.9-0.7-1-1.2c-0.3-1.4-0.5-2.9-0.5-4.4c0-0.5,0-1,0-1.5
	C141.2,139.1,141.3,139.1,141.6,139.1z"/>
<path class="st1" d="M243.9,145.4c-0.5,0-0.9-0.4-0.9-0.8c0-0.5,0.4-0.7,0.8-0.7c0.4,0,0.9,0.2,0.9,0.8
	C244.7,145.2,244.4,145.4,243.9,145.4z"/>
<path class="st1" d="M142.3,136.8c0.5,0.1,0.5,0.4,0.3,0.7c-0.2,0.4-0.5,0.8-0.9,1.1c-0.3,0.3-0.7,0.3-0.8-0.2
	C140.8,138,142,136.8,142.3,136.8z"/>
</svg>
