<?xml version="1.0" encoding="utf-8"?>
<!-- Generator: Adobe Illustrator 21.1.0, SVG Export Plug-In . SVG Version: 6.00 Build 0)  -->
<svg version="1.1" id="Layer_1" xmlns="http://www.w3.org/2000/svg" xmlns:xlink="http://www.w3.org/1999/xlink" x="0px" y="0px"
	 viewBox="0 0 250 250" style="enable-background:new 0 0 250 250;" xml:space="preserve">
<style type="text/css">
	.st0{fill:#FFFFFF;stroke:#1A56A6;stroke-width:3;stroke-miterlimit:10;}
	.st1{fill:#1A56A6;}
	.st2{fill:#FFFFFF;}
</style>
<title>Mass</title>
<ellipse class="st0" cx="125" cy="125" rx="120" ry="59.1"/>
<ellipse class="st1" cx="125" cy="125" rx="116.2" ry="55.9"/>
<path class="st2" d="M70.8,132l35,30.4c-2.9,0.2-5.9,0.2-8.8-0.1c-7.3-1.3-12.9-5.8-18-10.9c-4.4-4.4-8.5-9.1-13.2-14
	c-6.2,11-13.8,20-25.9,22.3l17.7-24l-4.2-6c1.1-0.9,1.3-1.2,1.6-1.2c5.3,0.9,7.8-2.4,10.3-6.5c4.5-7.4,9.6-14.5,14.7-22.2
	c-11.6,1.3-22.9,3.1-32.1,11c-3.3,2.8-2.8,4.2,1.9,8.2c-2.3,0.2-5,1.3-6.7,0.3c-1.7-0.9-4.1-4.1-3.8-5.8c0.7-3.4,2.3-6.5,4.6-9
	c7-7.3,16.6-9.8,26.1-12c3-0.6,6-0.9,9-1.1c7.3-0.8,14.8-0.4,21.7-3.7c1.8-0.5,3.6-0.5,5.3,0.2l-4.3,2.8c6.3,2.1,10.8,5.3,11.4,12.1
	c0.5,4.9-1.5,9.1-4.5,12.8c-7,8.8-16.7,12.7-27.4,14.7C78.3,131,75.2,131.3,70.8,132z M72.5,125.1c3.7-0.3,7.4-0.7,11-1.3
	c8.9-2,16.9-5.7,20.4-14.9c0.9-2.5,0.7-5.2-0.5-7.6c-2.2-3.4-11.4-3.4-13.9-0.1C83.9,108.6,78.6,116.4,72.5,125.1z"/>
<path class="st2" d="M127,133.6c-0.1,9.3-7.2,18.8-16.2,21.6c-9,2.8-17.6-5.7-15.5-15.1c1.2-6.4,5.5-11.9,11.4-14.7
	c4-1.6,8.3-2.3,12.6-2.1C124.3,123.5,127.1,127.8,127,133.6z M105.1,151c2.8-1.3,5.1-1.8,6.2-3.2c2.4-2.8,4.4-6,5.8-9.4
	c0.9-2.5,1.2-7.6,0.2-8c-3.6-1.6-5.2,2.3-7.2,4.6c-0.9,1.1-1.7,3.1-2.8,3.3c-4.3,1-5.1,4.5-5.3,7.8
	C101.8,147.5,103.8,149.1,105.1,151L105.1,151z"/>
<path class="st2" d="M206.2,136.4c-1.5-2.5-2-5.1-3.5-5.7c-3-1.3-9.8,0.7-10.8,2.8c-0.2,1,0.1,2,0.8,2.7c1.5,0.6,3,0.8,4.6,0.8
	c3.2,0.1,6.8,0.6,7.4,4c0.6,3.2,0,6.5-1.6,9.3c-3.6,5.5-16,7.3-21.6,3.8c-3.1-1.9-4.2-6.8-2.1-9.5c0.7-0.6,1.6-1,2.5-1.3
	c0.3,0.8,0.7,1.6,1.2,2.3c0.9,1.2,2,3.4,2.9,3.4c3-0.3,5.9-0.9,8.7-1.9c0.7-0.2,0.9-1.6,1.3-2.5c-0.9-0.4-1.7-1.2-2.5-1.2
	c-3.6,0.1-7.3,0.1-8.9-3.8c-1.8-4.4-0.1-8.3,2.8-11.6c4-5.1,10.6-7.3,16.9-5.7c3.6,0.8,6.3,3.3,6.3,7.3
	C210.9,132.7,209.1,135.5,206.2,136.4z"/>
<path class="st2" d="M152.5,136.4c-1.3-2.4-1.9-4.9-3.3-5.6c-3.3-1.7-9.2,0.9-12.2,5.1c2.2,0.4,4,0.9,5.9,1.1
	c3.8,0.5,7.7,0.7,8.8,5.5c1,4-0.9,8.1-5,10.7c-5,2.9-10.9,3.7-16.4,2.2c-4.8-1.1-7.1-6.5-4.6-10.1c0.6-0.8,1.8-1.2,2.7-1.7
	c0.3,0.9,0.7,1.7,1.2,2.4c1.1,1.2,2.2,2.8,3.6,3.1c1.9,0.4,3.8,0.1,5.5-0.7c1.4-0.7,2.4-2.3,3.6-3.6c-1.3-0.6-2.7-1.1-4.1-1.3
	c-6.5-0.3-9.2-4-7.2-10.1c2.3-7.3,11.1-12.6,18.7-11.2c6.7,1.2,9.8,8,5.8,12.5C154.5,135.5,153.5,136.1,152.5,136.4z"/>
<path class="st2" d="M169.2,137.3c2.9,1.8,9.6-2.5,8,5.5c-4.1,3-11.8-3-14.1,6.1c3.2,0,5.9,0,8.6,0c2.5,0,3.6,1.6,2.9,3.7
	c-0.5,1.4-1.7,2.5-3.1,2.9c-3.5,0.3-7,0.4-10.4,0.1c-3.4-0.2-6.1-3.1-5.9-6.6c0-0.8,0.2-1.6,0.6-2.3c2.2-4.7,4.4-9.5,6.1-13.1
	l-2.7-8.5h22.1c1.2,5.8,0.9,6.7-4.5,6.2C172.1,131,169.7,132.5,169.2,137.3z"/>
</svg>
