<?xml version="1.0" encoding="utf-8"?>
<!-- Generator: Adobe Illustrator 21.1.0, SVG Export Plug-In . SVG Version: 6.00 Build 0)  -->
<svg version="1.1" id="Layer_1" xmlns="http://www.w3.org/2000/svg" xmlns:xlink="http://www.w3.org/1999/xlink" x="0px" y="0px"
	 viewBox="0 0 250 250" style="enable-background:new 0 0 250 250;" xml:space="preserve">
<style type="text/css">
	.st0{fill:#0168B1;}
	.st1{fill:#54B848;}
	.st2{fill:#FEFEFE;}
</style>
<title>CR</title>
<g>
	<path class="st0" d="M204.3,157.6c0.1-0.9-0.5-0.7-1-0.7H46.6c-0.1,0-0.2,0-0.3,0c-0.5-0.1-0.7,0.1-0.7,0.7c0,1.7,0,3.4,0,5.2
		c0,3.2,0,6.5,0,9.7h1.3c0.4,0,0.8,0,1.3,0H203c1.4,0,1.2,0.1,1.2-1.2c0-4.1,0-8.1,0-12.2C204.2,158.6,204.3,158.1,204.3,157.6z"/>
	<path class="st1" d="M138.7,149.1c0.2-0.4,0.2-0.9,0.2-1.3c0-9.4,0-18.9,0-28.3c0-0.9,0.2-1.7,0.8-2.4c0.5-0.7,1.4-1.2,2.3-1.1
		c2.7,0,5.5,0,8.2,0c1.1-0.1,2.2,0.3,3,1.1c0.4,0.7,0.7,1.4,0.9,2.1c1.3,4.2,2.7,8.5,4.1,12.7c0.1,0.3,0.1,0.7,0.5,0.9
		c0.3-0.8,0.6-1.6,0.8-2.5l3.6-11.1c0.3-1,0.9-2,1.8-2.6c0.5-0.4,1.2-0.6,1.8-0.6c2.5,0,5.1,0,7.6,0c1.5,0,2.8,1,3.4,2.4
		c0,0.1,0,0.2,0.1,0.2l0,0l0,0c0.2,0.9,0.2,1.8,0.2,2.7c0,8.4,0,16.8,0,25.2c-0.1,0.4-0.1,0.8-0.2,1.1c-0.1,1.3-1.2,2.2-2.5,2.1
		c-0.1,0-0.1,0-0.2,0h-4.3h-1.2h-0.7c0,0-0.1,0-0.2-0.1c0.6-1.1,0.8-2.4,0.7-3.6c0-3.3-0.1-6.7-0.1-10v-2.4V132c0-0.9,0-1.9,0.1-2.8
		c0.1-0.2,0.2-0.6-0.2-0.6s-0.3,0.3-0.3,0.5l-3.5,11c-0.9,2.9-1.8,5.7-2.7,8.6c-0.1,0.5-0.6,0.9-1.1,0.8l0,0c-1.9,0-3.8,0-5.7,0H155
		c-0.4-0.2-0.4-0.6-0.5-0.9c-1.1-3.5-2.3-7-3.4-10.6c-0.6-1.9-1.2-3.8-1.9-5.7l-0.7-2.2c-0.5-0.7-0.4-1.7-1-2.5
		c-0.2,0.3-0.3,0.6-0.2,0.9c0,3.5,0,7,0,10.5c0,2.6,0,5.2,0,7.9c0.2,1.3-0.7,2.5-2,2.6c-0.2,0-0.4,0-0.7,0h-4.5h-0.7
		C139.3,149.3,138.8,149.7,138.7,149.1z"/>
	<path class="st0" d="M78,108.5l0.1,0.2c0,0.2,0.2,0.4,0.4,0.5l0.1,0.2c0,0.2,0.2,0.4,0.4,0.5l0.1,0.2c0,0.2,0.2,0.4,0.4,0.5
		l0.1,0.2v0.2c-3.2,0-6.4,0-9.6,0c-0.6,0.1-1.2-0.2-1.6-0.6l0,0c-0.1-0.4-0.3-0.7-0.7-0.8l0,0c-0.1-0.3-0.2-0.6-0.5-0.7l0,0
		c-0.1-0.3-0.2-0.6-0.5-0.7l0,0c-0.1-0.4-0.3-0.7-0.7-0.8l0,0c-0.3-0.6-0.6-1.1-1.1-1.5l0,0c-0.3-0.6-0.7-1.1-1.2-1.5l0,0
		c-0.3-0.6-0.7-1.1-1.2-1.5l0,0c-0.3-0.6-0.7-1.1-1.2-1.5l0,0c-0.3-0.6-0.7-1.1-1.2-1.5l0,0c-0.3-0.6-0.7-1.1-1.2-1.5l0,0
		c-0.3-0.6-0.7-1.1-1.2-1.6c-0.1-0.3-0.4-0.6-0.7-0.8c-0.3-0.6-0.7-1.1-1.2-1.5l0.2-0.2c2.5,0,4.9,0.1,7.3,0
		c2.8-0.1,4.6-1.8,4.6-4.3c0.1-0.5,0-0.9-0.2-1.4c0-0.3-0.2-0.7-0.5-0.9h-0.1l0,0c-0.7-1.3-2.2-2-3.7-1.9c-2-0.1-4.1,0-6.2,0
		c-2.7-0.1-3,0.6-2.9,2.9c0.1,6.4,0,12.8,0,19.3c0,2.2-1.2,3.3-3.3,3.3h-4h-1l-0.9-0.1c1.1-1.3,0.9-2.8,0.9-4.2c0-8.3,0-16.5,0-24.8
		c0-2.6,1.3-4,3.9-4c5.5,0,11,0,16.5,0c3.1-0.1,6.1,1.2,8.2,3.4c0.3,0.3,0.5,0.6,0.7,0.9c0,0.2,0.1,0.4,0.3,0.5l0,0
		c0.4,0.8,0.7,1.7,0.9,2.6c0.6,3,0.5,6.1-0.4,9c-0.5,1.8-1.7,3.3-3.3,4.2c-0.6,0.3-1.5,0.2-1.6,0.8s0.6,1.1,1.1,1.5
		c0.3,0.6,0.8,1.1,1.2,1.5l0.3,0.4c0,0.2,0.2,0.4,0.4,0.5l0.1,0.2c0,0.2,0.2,0.4,0.4,0.5l0.1,0.2c0,0.2,0.2,0.4,0.4,0.5l0.1,0.2
		c0.1,0.3,0.3,0.5,0.5,0.7l0,0c0.1,0.3,0.3,0.6,0.5,0.7l0.1,0.2c0,0.2,0.2,0.4,0.4,0.5l0.1,0.2c0,0.2,0.2,0.4,0.4,0.5l0.1,0.2
		C77.5,108.1,77.7,108.3,78,108.5z"/>
	<path class="st1" d="M104.6,149.3c0.5-1,0.7-2,0.7-3.1c0-9,0-17.9,0-26.9c0-1.8,1.5-3.3,3.3-3.4c5.3,0,10.7-0.1,16.1,0
		c2.3,0.1,4.5,0.9,6.2,2.4c1.2,1.1,2.1,2.4,2.8,3.8c0.6,1.9,0.9,3.9,0.9,5.9c-0.2,0.3-0.2,0.7-0.2,1c0,2-0.5,3.9-1.5,5.7
		c-0.6,1.3-1.7,2.2-3.1,2.6c-0.9,0.2-0.8,0.5-0.3,1c0.1,0.2,0.3,0.3,0.5,0.5c0.1,0.4,0.4,0.7,0.7,1c1.1,1.5,2.2,3,3.3,4.6
		s2.3,3.1,3.4,4.6c0.2,0.3,0.3,0.6-0.2,0.5H127c-0.4,0-0.5-0.4-0.6-0.6c-1.7-2.4-3.5-4.8-5.2-7.2l-6.5-9l0.2-0.3
		c2.4,0.1,4.7,0.1,7.1,0c1.8-0.1,3.4-1.5,3.7-3.3c0-0.6,0-1.2,0-1.8c0-0.8-0.3-1.6-0.9-2.1h-0.2c-0.7-1-1.9-1.6-3.1-1.5
		c-1.8-0.1-3.7,0-5.5,0s-2.2,0.5-2.2,2.2c0,6.8,0,13.6,0,20.4c0,1.3-0.1,2.8-1.8,3.3h-6.2C105.3,149.4,104.9,149.6,104.6,149.3z"/>
	<path class="st0" d="M111.6,84.7l0.3,0.5l1.3,2.4c0,0.3,0.2,0.6,0.4,0.8l0,0c0.5,1.6,0.9,3.3,1.2,4.9c0.1,1.5-0.1,3-0.4,4.5
		c-1.3,5.5-5.3,10.1-10.6,12.1c-2.9,1.2-5.9,1.7-9,1.5c-2.5-0.1-4.8-1.2-7.1-2.2c-0.9-0.4-1.6-1.1-2.6-1.5l0,0l-0.2-0.2l0,0
		l-0.2-0.2l0,0l-0.1-0.2l-2.9-3l0,0c0-0.2-0.2-0.4-0.3-0.5c-0.9-1.5-1.6-3-2.2-4.6c-1.6-5.2-0.4-10.8,3.1-14.9
		c2.9-3.6,7.2-6,11.8-6.4c6-0.9,12,1.2,16.2,5.6c0.4,0.4,0.7,0.8,1.1,1.2L111.6,84.7z M104.3,89.2L104.3,89.2
		c-1.6-2.7-4.6-4.2-7.8-4.1c-6.6,0-10.9,7.6-7.8,13.4c0.4,0.9,1,1.7,1.7,2.4c1.7,1.9,4.2,3,6.8,2.8c6-0.2,9.8-6.1,8.4-11.6
		c-0.2-0.9-0.5-1.8-1-2.6L104.3,89.2z"/>
	<path class="st1" d="M67.1,149.5h-0.7l-0.1-0.2c0.7-0.5,1.3-1.2,1.5-2l3.4-8.4c0.3-0.4,0.4-0.9,0.6-1.4l0.4-1
		c0.5-0.9,0.9-1.9,1.2-2.9l1.8-4.3c1.3-3.2,2.7-6.4,4-9.6c0.5-1.2,1.3-2.2,2.2-3.1c0.7-0.7,1.7-1,2.7-0.9c2,0,4.1,0,6.1,0
		c0.3,0,0.9-0.3,0.8,0.5c-0.3,0.3-0.4,0.8-0.3,1.2c0,0.4,0.1,0.8,0.3,1.1l4.6,11.2l5.6,13.8c0.8,2,1.6,3.9,2.5,6.1h-9
		c-0.3-0.1-0.4-0.4-0.5-0.6c-0.6-1.3-1.1-2.5-1.7-3.8c0-0.3-0.1-0.5-0.3-0.7c-0.2-0.9-0.7-1.1-1.6-1c-3.2,0.1-6.4,0-9.6,0
		c-2.2,0-2.1,0-3,2.1c-0.8,1.8-1.7,3.5-3.8,4.1h-6C67.7,149.4,67.4,149.4,67.1,149.5z M86.4,130.9c-0.1-0.3-0.1-0.5-0.3-0.7
		c-0.2-0.6-0.4-1.2-0.7-1.8c-0.2,0.1-0.2,0.2-0.3,0.3c-0.8,1.9-1.6,3.9-2.4,5.8c-0.4,0.9-0.4,0.8,0.6,0.9h4.6c0.6,0,0.3-0.3,0.2-0.5
		L86.4,130.9z"/>
	<path class="st0" d="M139.3,111.1l-0.7-0.1c0.9-0.6,1.5-1.5,1.8-2.5c2.4-5.6,4.9-11.2,7.3-16.8c1.4-3.1,2.7-6.2,4-9.4
		c0.4-1.1,0.9-2.1,1.6-3.1c0.6-0.8,1.6-1.3,2.6-1.3c2.7,0,5.5,0,8.2,0c0.1,0.3-0.2,0.4-0.2,0.6c-0.2,0.2-0.1,0.5-0.1,0.7
		c-0.1,0.8,0.1,1.6,0.4,2.3c0.5,1.1,0.9,2.2,1.4,3.3c3.4,8,6.9,16,10.3,24c0.3,0.6,0.9,1.2,0.6,2h-8.2c-0.3,0-0.6,0-0.8-0.2
		l-0.2-0.5c0-0.1,0-0.2-0.1-0.3l-0.5-1.1v-0.1l-0.2-0.4c-0.2-0.7-0.5-1.3-0.9-1.9c-0.2-0.5-0.2-1.2-1.1-1.2c-4.2,0-8.4,0-12.6,0
		c-0.4-0.1-0.8,0.2-0.9,0.6c-0.4,0.9-0.8,1.8-1.1,2.7c-0.4,1.1-1.3,2-2.5,2.3h-7.2C139.8,110.9,139.5,111,139.3,111.1z M156,98h4.8
		c0.7,0.2,0.7-0.1,0.5-0.6c-0.7-1.6-1.3-3.1-2-4.7l-0.5-1c-0.1-0.3-0.2-0.6-0.3-0.9s-0.1-0.5-0.4-0.5s-0.3,0.2-0.4,0.4l-3.2,7
		c-0.2,0.3,0,0.3,0.2,0.3C155.2,98,155.6,98,156,98z"/>
	<path class="st1" d="M180.9,147.7c-0.1-0.6-0.2-1.3-0.1-1.9c0-2.3,0-4.6,0-6.8c0-0.3,0-0.5,0-1c1.7,0.9,3.2,1.6,4.8,2.5
		c2,1.1,4.2,1.6,6.4,1.6c1.1,0.1,2.2-0.1,3.3-0.6c0.5-0.2,0.8-0.6,1-1.1c0.1-0.4,0.1-0.7,0-1.1c-0.2-0.7-0.7-1.3-1.4-1.6
		c-1-0.5-2-0.9-3.1-1.1c-3-0.9-6.1-1.3-8.5-3.6c0,0-0.1,0-0.1-0.1l0,0c-0.8-1-1.5-2.1-2.1-3.3c-0.6-1.7-0.8-3.5-0.5-5.3
		c0.3-2.3,1.6-4.4,3.5-5.8c2-1.4,4.4-2.2,6.8-2.5c4.3-0.6,8.3,0.5,12.4,1.7c0.4,0.1,0.4,0.4,0.4,0.7c0,2.4,0,4.8,0,7.3
		c0,0.3,0.1,0.6-0.1,0.9c-2.5-1.2-5-2.8-7.9-3c-1.7-0.2-3.4-0.1-5,0.3c-1,0.3-1.7,1.3-1.4,2.4c0.1,0.3,0.2,0.6,0.4,0.8
		c0.3,0.6,0.8,1,1.5,1.2c1.2,0.4,2.5,0.8,3.8,1c2.6,0.5,5,1.8,7,3.6c1,1.1,1.8,2.3,2.4,3.7c0.2,0.9,0.4,1.9,0.5,2.9
		c0,0.7-0.1,1.4-0.2,2.1c-0.3,2.3-1.5,4.4-3.3,5.7s-4,2.1-6.2,2.2c-2.7,0.3-5.3,0.2-8-0.1c-1.6-0.2-3.3-0.6-4.9-1.1
		c-0.3-0.2-0.5-0.3-0.8-0.3L180.9,147.7z"/>
	<path class="st1" d="M45.2,149.6c1.2-3.3,0.5-6.8,0.6-10.1c0.1-6.6,0.1-13.1,0-19.7c0.1-2.1,1.8-3.8,3.9-3.9c1.8,0.1,3.6,0,5.4,0
		h15.1c0.4,0,0.9-0.1,0.8,0.6v1c0,0.3,0,0.6,0,0.8c0,1.4-0.1,2.9,0,4.3c0,0.8-0.3,1-1,1c-5,0-9.9,0-14.9,0c-0.7,0-1,0.1-0.9,0.9
		c0.1,1.3,0,2.7,0,4.1c0.3,0.3,0.7,0.1,1,0.1h0.9h14.1c0.4,0,0.8-0.1,0.8,0.5v1c0,1.8,0,3.6,0,5.3c0,0.3,0.2,0.6-0.3,0.8H54.2
		c-0.1,0.3-0.2,0.6-0.1,0.9c0,3.5,0,7,0,10.5c-0.6,1.4-2.1,2.2-3.6,1.9c-1-0.1-2.1,0-3.1,0H45.2L45.2,149.6z"/>
	<path class="st0" d="M130.3,89.5c2.2-2.8,4.4-5.7,6.6-8.6c1.2-1.9,3.4-3,5.6-2.9c2.6,0.1,5.3,0,8.1,0l-1,1l-0.3,0.2
		c-0.3,0.2-0.5,0.4-0.7,0.7c-0.4,0.5-0.8,0.9-1.1,1.4c-4.3,5.5-8.6,11.1-12.9,16.6c-0.4,0.4-0.6,1-0.6,1.6c0,2.8,0,5.6,0,8.5
		c0.2,1.5-0.9,2.8-2.5,3c-0.2,0-0.4,0-0.5,0h-4.4c-0.3-0.2-0.6-0.2-0.9,0h-0.5c-0.3-0.1-0.6,0.1-0.7-0.2c0-0.1,0.3-0.3,0.4-0.5
		c0.4-0.5,0.6-1.2,0.5-1.8c0-3.1,0-6.2,0-9.3c0.1-0.5,0-1-0.4-1.4c-3.3-4.1-6.6-8.3-10-12.5c-1.5-1.9-3-3.8-4.5-5.6
		c-0.4-0.5-0.8-1-1.1-1.6c0.2-0.2,0.4-0.1,0.6-0.1c3.1,0,6.2,0,9.3,0c0.6-0.1,1.2,0.2,1.5,0.7c0.1,0.1,0.2,0.3,0.3,0.4l8,10.5
		C129.7,90.5,129.7,90.5,130.3,89.5z"/>
	<path class="st0" d="M179.9,111.1l-1.1-0.1c1.4-1.2,1.3-2.8,1.3-4.3c0-8.4,0-16.7,0-25.1c0-2.5,1-3.5,3.5-3.5h6.5
		c0,0.4-0.4,0.5-0.5,0.8c-0.2,0.2-0.4,0.5-0.5,0.8c-0.3,0.4-0.4,0.9-0.4,1.4c0,7.2,0,14.4,0,21.6c0,0.3-0.1,0.6,0.2,0.9
		c0.4,0.1,0.9,0.1,1.4,0l9.9,0.1c1.2,0,2.4,0.1,3.6,0c0.9-0.1,1.2,0.2,1.1,1.1v1.2c0,1.4-0.1,2.9,0,4.3c0,0.7-0.2,0.8-0.8,0.8
		c-4.2,0-8.4,0-12.6,0H181L179.9,111.1z"/>
	<path class="st2" d="M139.2,164.8c1.3,0.3,1.5,1.1,1.6,2.1c0.1,0.9,0.2,1.8,0.5,2.7c-0.7,0-1.3,0-1.9,0c-0.4,0-0.4-0.2-0.4-0.5
		c-0.1-0.8-0.2-1.5-0.3-2.3c0-0.6-0.4-1.2-1.1-1.2c-0.1,0-0.2,0-0.2,0c-1.8,0-1.8,0-1.8,1.8c0,0.4,0,0.8,0,1.2c0.1,0.8-0.2,1-1,0.9
		c-1.3-0.1-1.1,0.2-1.1-1.1c0-2.6,0-5.2,0-7.9c0-0.5,0.1-0.7,0.7-0.7c1.3,0.1,2.6,0,4,0c1.1-0.1,2.2,0.5,2.7,1.5
		C141.5,162.8,140.9,164,139.2,164.8z M136.8,161.5c-1.2,0-1.2,0-1.2,1.2c0,0.3,0,0.7,0,1s0.1,0.4,0.3,0.4c0.7,0.1,1.3,0,2-0.1
		c0.6-0.1,1-0.7,0.9-1.3c0.1-0.6-0.4-1.1-1-1.2l0,0C137.6,161.5,137.2,161.5,136.8,161.5L136.8,161.5z"/>
	<path class="st2" d="M59.7,169.5c-0.1,0-0.1,0.1-0.2,0.1c-2,0.1-2,0.1-2.3-1.9c0-0.2,0-0.4-0.1-0.7c-0.1-1.1-0.4-1.3-1.4-1.3
		c-1.7,0-1.7,0-1.7,1.7c0,0.5,0,1.1,0,1.6s-0.2,0.7-0.7,0.7c-1.4,0-1.4,0-1.4-1.4c0-2.5,0-5,0-7.5c0-0.7,0.2-0.8,0.8-0.8
		c1.3,0.1,2.7,0,4.1,0.1c2,0.1,3,1.5,2.6,3.1c-0.3,0.9-1,1.5-1.8,1.7c1.4,0.3,1.5,1.2,1.7,2.2C59.2,167.9,59.4,168.7,59.7,169.5z
		 M54,162.8c0,0.3,0,0.6,0,0.8s0,0.5,0.4,0.4c0.7,0.1,1.3,0,2-0.1c0.6-0.2,0.9-0.7,0.9-1.3s-0.4-1.1-0.9-1.1c-0.3-0.1-0.7-0.1-1-0.1
		C54,161.5,54,161.5,54,162.8z"/>
	<path class="st2" d="M118.7,163.7c0.8-1,2.2-1.3,3.3-0.7c0.7,0.4,1.2,1.1,1.1,1.9c0,1.4,0,2.8,0,4.1c0,0.4-0.1,0.5-0.5,0.5
		c-1.5,0.1-1.5,0.1-1.5-1.4c0-0.9,0-1.9,0-2.8s-0.4-1.4-1.2-1.4s-1.2,0.5-1.3,1.4c0,1.1-0.1,2.3,0,3.4c0,0.7-0.2,0.9-0.9,0.8
		c-0.2,0-0.5,0-0.7,0c-0.4,0-0.5-0.1-0.5-0.5c0-2.9,0-5.8,0-8.7c0-0.4,0.1-0.5,0.5-0.5c0.3,0,0.5,0,0.8,0c0.6-0.1,0.8,0.1,0.8,0.7
		C118.6,161.6,118.7,162.5,118.7,163.7z"/>
	<path class="st2" d="M168.6,164.7c0-1.4,0-2.8,0-4.1c0-0.5,0.1-0.7,0.6-0.7c1.7,0,3.4,0,5.1,0c0.6,0,0.6,0.3,0.6,0.8
		s0.2,0.9-0.6,0.9c-1,0-2,0-3,0c-0.5,0-0.7,0.1-0.7,0.6c0,1.8,0,1.8,1.7,1.8c0.5,0,1.1,0,1.6,0c0.7-0.1,0.6,0.4,0.7,0.8
		s0,0.9-0.7,0.8c-0.9-0.1-1.8,0-2.6,0c-0.5,0-0.6,0.1-0.6,0.6c0,1,0,1.9,0,2.9c0,0.5-0.1,0.7-0.7,0.7c-1.4,0-1.4,0-1.4-1.4
		C168.6,167.1,168.6,165.9,168.6,164.7z"/>
	<path class="st2" d="M87,164.8c0-1.4,0-2.8,0-4.2c0-0.5,0.1-0.6,0.6-0.6c1.7,0,3.4,0,5.1,0c0.7,0,0.6,0.4,0.6,0.8s0.1,0.8-0.6,0.8
		c-1-0.1-2,0-3,0c-0.5,0-0.6,0.2-0.6,0.6c0,1.8-0.1,1.8,1.7,1.8c0.5,0,1.1,0,1.6,0c0.7-0.1,0.6,0.4,0.7,0.9s0,0.9-0.7,0.8
		c-0.9-0.1-1.8,0-2.6,0c-0.5,0-0.6,0.1-0.6,0.6c0,1,0,1.9,0,2.9c0,0.5-0.2,0.7-0.7,0.7c-1.4,0-1.4,0-1.4-1.4
		C87,167.1,87,165.9,87,164.8z"/>
	<path class="st2" d="M147.3,166.8c-0.4,0-0.8,0-1.3,0c-0.3,0-0.8-0.3-0.9,0.3c-0.1,0.5,0.2,1.1,0.7,1.3c0.5,0.3,1.2,0.1,1.5-0.4
		c0.5-0.7,1.2-0.3,1.8-0.4c0.2,0,0.2,0.3,0.1,0.4c-0.1,0.3-0.2,0.6-0.4,0.8c-1,1.1-2.3,1-3.5,0.8c-1-0.2-1.9-1-2.1-2
		c-0.2-0.8-0.2-1.7,0-2.6c0.4-1.7,2-2.8,3.8-2.4h0.1c1.7,0.4,2.8,2,2.5,3.6c0,0.4-0.2,0.4-0.5,0.4L147.3,166.8z M146.3,165.5
		c0.4-0.3,1,0.3,1.2-0.4s-0.5-1.1-1.2-1.1c-0.5-0.1-1,0.3-1.1,0.9c0,0.1,0,0.1,0,0.2C145.2,165.9,145.9,165.3,146.3,165.5
		L146.3,165.5z"/>
	<path class="st2" d="M65.7,166.8c-0.6,0-1.2,0-1.8,0c-0.4,0-0.5,0.1-0.4,0.5s0.2,1,0.8,1.2c0.5,0.2,1.1,0,1.4-0.4
		c0.5-0.7,1.2-0.3,1.8-0.4c0.2,0,0.2,0.2,0.1,0.4c-0.1,0.3-0.2,0.6-0.4,0.8c-0.9,1.1-2.2,1-3.4,0.9c-1-0.1-1.9-0.8-2.1-1.8
		c-0.3-0.8-0.3-1.7-0.2-2.5c0.3-1.8,1.9-3,3.7-2.8c1.8,0.3,3,1.9,2.8,3.7l0,0c0,0.3-0.1,0.4-0.4,0.4
		C66.9,166.8,66.3,166.8,65.7,166.8z M64.5,165.5c1.3,0,1.3,0,1.3-0.4c0-0.6-0.5-1.1-1-1.1h-0.1c-0.6,0-1.1,0.4-1.2,1
		c0,0.1,0,0.1,0,0.2C63.6,165.9,64.3,165.3,64.5,165.5z"/>
	<path class="st2" d="M105,166.8c-0.4,0-0.8,0-1.3,0s-0.8-0.2-0.9,0.2c-0.2,0.5,0.1,1.1,0.5,1.3c0.5,0.3,1.1,0.3,1.5-0.2
		c0.5-0.7,1.1-0.5,1.7-0.6c0.4,0,0.5,0.2,0.4,0.5c-0.3,0.8-0.9,1.4-1.8,1.5c-1.4,0.5-3,0-3.9-1.2c-0.8-1.6-0.6-3.4,0.4-4.9
		c1.1-1.1,2.7-1.3,4.1-0.6c1.1,0.8,1.7,2.1,1.6,3.4c-0.1,0.3-0.3,0.3-0.5,0.3L105,166.8z M103.9,164c-0.1,0-0.3,0-0.4,0.1
		c-0.5,0.2-0.8,0.6-0.7,1.1c0.1,0.5,0.6,0.2,0.8,0.3c0.3,0,0.5,0,0.8,0c0.8,0,0.9-0.3,0.5-1C104.8,164.1,104.3,163.9,103.9,164z"/>
	<path class="st2" d="M180.7,168.8c-0.5,0.7-1.2,1-2.1,1c-0.9,0.1-1.8-0.5-2.1-1.4c-0.3-1,0.1-2.1,1-2.6c0.7-0.3,1.4-0.5,2.1-0.5
		c0.3,0,0.8,0.3,0.9-0.4c0.1-0.4-0.1-0.8-0.5-1s-1-0.2-1.1,0.2c-0.4,0.9-1,0.6-1.7,0.7s-0.6-0.2-0.4-0.6c0.1-0.2,0.2-0.4,0.3-0.6
		c0.6-0.8,2.4-1.1,3.8-0.7c1,0.3,1.7,1.3,1.6,2.4c0,1.3,0,2.6,0,3.9c0,0.4-0.1,0.5-0.5,0.5C180.9,169.7,180.9,169.7,180.7,168.8z
		 M180.5,166.9c0.1-0.5-0.2-0.4-0.6-0.4c-1,0-1.6,0.4-1.6,1.1c0,0.5,0.3,1,0.9,1h0.1C180.1,168.5,180.5,167.9,180.5,166.9z"/>
	<path class="st2" d="M155.4,168.8c-0.5,0.7-1.3,1.1-2.1,1c-0.9,0-1.7-0.5-2-1.4c-0.3-1,0.1-2,1-2.6c0.7-0.4,1.4-0.6,2.2-0.6
		c0.3,0,0.7,0.2,0.8-0.3c0.1-0.4-0.1-0.9-0.5-1.1c-0.4-0.2-1-0.2-1.1,0.2c-0.3,0.7-0.8,0.7-1.3,0.7c-0.9,0-1-0.2-0.6-1
		c0.3-0.5,0.7-0.8,1.3-0.9c0.7-0.2,1.4-0.2,2.1-0.1c1.2,0.1,2.2,1.1,2.2,2.3l0,0c0.1,1.4,0,2.8,0.1,4.1c0,0.1,0,0.2-0.1,0.3
		C156.9,169.9,155.6,169.5,155.4,168.8z M155.3,167c0-0.3,0.1-0.5-0.4-0.6c-1,0-1.7,0.4-1.7,1.1c0,0.5,0.3,1,0.8,1c0,0,0,0,0.1,0
		C154.7,168.6,155.2,168,155.3,167L155.3,167z"/>
	<path class="st2" d="M73.8,168.9c-0.4,0.6-1.2,1-1.9,0.9c-1,0.1-1.9-0.4-2.2-1.4c-0.3-1,0.1-2.1,1-2.6c0.7-0.3,1.4-0.5,2.1-0.5
		c0.3,0,0.8,0.2,0.8-0.4c0-0.4-0.1-0.9-0.5-1s-1-0.1-1.1,0.3c-0.3,0.7-0.8,0.6-1.3,0.6c-0.9,0-1-0.2-0.6-1c0.3-0.5,0.7-0.8,1.3-0.9
		c0.8-0.2,1.6-0.3,2.4-0.1c1.1,0.2,1.8,1.1,1.9,2.1c0,1.4,0,2.8,0.1,4.2c0,0.1,0.1,0.3-0.1,0.4C74.9,169.8,74.1,169.5,73.8,168.9z
		 M73.6,167c0-0.3,0-0.6-0.4-0.6c-1,0-1.7,0.4-1.7,1c-0.1,0.5,0.3,0.9,0.8,1c0.1,0,0.1,0,0.2,0C73.2,168.6,73.6,168,73.6,167z"/>
	<path class="st2" d="M185.2,167.7c0.6-0.1,1,0,1.3,0.5c0.3,0.4,0.9,0.5,1.3,0.3c0.3-0.1,0.4-0.3,0.5-0.5c0.1-0.3-0.1-0.6-0.4-0.7
		c-0.3-0.1-0.7-0.2-1-0.4c-0.5-0.1-1-0.3-1.5-0.5c-0.9-0.4-1.2-1.5-0.8-2.3c0.1-0.2,0.3-0.4,0.5-0.6c1.2-0.9,2.8-1,4.1-0.3
		c0.1,0.1,0.2,0.1,0.3,0.2c0.4,0.4,0.7,0.8,0.5,1.3c-0.1,0.2-1.6,0.1-1.7-0.2c-0.1-0.2-0.3-0.3-0.5-0.4c-0.4-0.1-0.9-0.2-1.1,0.3
		s0.3,0.7,0.7,0.9c0.6,0.2,1.3,0.4,1.9,0.6c0.7,0.2,1.2,0.9,1.2,1.7c0,0.7-0.4,1.4-1,1.7c-1.2,0.7-2.6,0.8-3.8,0.2
		c-0.3-0.1-0.6-0.3-0.8-0.6s-0.5-0.7-0.3-1S185.1,167.8,185.2,167.7z"/>
	<path class="st2" d="M113.6,164.7c-0.5,0-0.9,0.1-1.2-0.4s-0.7-0.3-1-0.2c-0.2,0-0.4,0.2-0.5,0.4c-0.1,0.3,0.1,0.5,0.3,0.6
		c0.4,0.2,0.8,0.3,1.3,0.4c0.5,0.1,1,0.3,1.5,0.6c0.8,0.6,1,1.7,0.5,2.5c-0.1,0.1-0.1,0.2-0.2,0.3c-1.3,1.1-3.2,1.3-4.7,0.4
		l-0.1-0.1c-0.4-0.4-0.8-0.8-0.5-1.4c0.1-0.3,1.6,0,1.8,0.3c0.2,0.3,0.6,0.5,0.9,0.5c0.4,0,0.9-0.1,1-0.6s-0.3-0.8-0.7-0.9
		c-0.6-0.2-1.2-0.3-1.8-0.5c-0.8-0.2-1.4-0.9-1.4-1.7s0.5-1.5,1.2-1.8c0.9-0.4,2-0.5,3-0.2c0.4,0.1,0.8,0.3,1,0.7
		c0.2,0.3,0.4,0.6,0.3,0.9S113.8,164.6,113.6,164.7z"/>
	<path class="st2" d="M192.9,166.4c0-0.3,0-0.7,0-1c0.1-0.7,0.1-1.4-1-1.2c-0.5,0.1-0.4-0.4-0.4-0.7s-0.1-0.7,0.4-0.6
		c0.8,0.1,1-0.2,1-1s0.6-0.6,1-0.7c1-0.4,1.1-0.4,1,0.7c0,0.7,0.1,1.1,0.9,1c0.6-0.1,0.6,0.3,0.6,0.7s-0.2,0.7-0.6,0.6
		c-0.8-0.1-1,0.2-0.9,0.9s0,1.6,0,2.4c0,0.7,0.3,1,1,0.9c0.4,0,0.6,0,0.5,0.4s0.1,0.7-0.4,0.8s-1.1,0.1-1.6,0.1
		c-0.8,0-1.4-0.6-1.4-1.4l0,0c-0.1-0.7,0-1.4,0-2L192.9,166.4z"/>
	<path class="st2" d="M161.7,164.8c0,1.4,0,2.8,0,4.1c0,0.5-0.1,0.8-0.6,0.7c-0.3,0-0.6,0-0.8,0c-0.4,0-0.5-0.1-0.5-0.5
		c0-2.9,0-5.9,0-8.8c0-0.3,0.1-0.4,0.4-0.5c1.5-0.2,1.6-0.1,1.6,1.4C161.7,162.4,161.7,163.6,161.7,164.8z"/>
	<path class="st2" d="M80,164.8c0,1.4,0,2.8,0,4.1c0,0.5-0.1,0.8-0.6,0.7c-0.3,0-0.6,0-0.8,0c-0.4,0-0.5-0.1-0.5-0.5
		c0-2.9,0-5.8,0-8.8c0-0.3,0.1-0.4,0.4-0.5c1.5-0.2,1.5-0.2,1.5,1.4C80,162.5,80,163.6,80,164.8z"/>
	<path class="st2" d="M96.9,163.9c0.4-0.6,1-1,1.7-1.1c0.4,0,0.6,0,0.6,0.5c0,0.8,0.1,1.4-1,1.4c-0.7,0-1.1,0.6-1.1,1.3
		c0,1-0.1,2,0,3c0,0.7-0.2,0.9-0.8,0.8c-0.4-0.1-1.2,0.5-1.2-0.5c0-1.9,0.1-3.9-0.1-5.8c0-0.2,0-0.4,0.3-0.4c0.4,0,0.8,0,1.2,0
		C97.1,163,96.6,163.6,96.9,163.9z"/>
	<path class="st2" d="M125.7,169.6c-0.9,0.2-0.8-0.4-0.8-0.9c-0.1-0.8,0.3-0.8,0.9-0.9c0.8-0.1,0.8,0.4,0.8,1
		C126.7,169.5,126.4,169.8,125.7,169.6z"/>
	<path class="st2" d="M198.5,167.9c0.8-0.2,0.8,0.2,0.9,0.9s-0.2,0.9-0.9,0.9s-0.9-0.3-0.9-0.9S197.7,167.7,198.5,167.9z"/>
</g>
</svg>
