<?xml version="1.0" encoding="utf-8"?>
<!-- Generator: Adobe Illustrator 21.1.0, SVG Export Plug-In . SVG Version: 6.00 Build 0)  -->
<svg version="1.1" id="Layer_1" xmlns="http://www.w3.org/2000/svg" xmlns:xlink="http://www.w3.org/1999/xlink" x="0px" y="0px"
	 viewBox="0 0 250 250" style="enable-background:new 0 0 250 250;" xml:space="preserve">
<style type="text/css">
	.st0{fill:#D31245;}
</style>
<title>Grocery</title>
<path class="st0" d="M92.6,120.7c10.6-10.3,25.5-1.8,25.5,8.5v28.6c-0.2,2.2,0.7,4.3,2.2,5.9h-17.7c1.6-1.2,2-3.2,2-5.9v-28.6
	c0.3-3-2-5.6-4.9-5.9c-3-0.3-5.6,2-5.9,4.9c0,0.3,0,0.6,0,0.9v28.6c-0.1,2.3,0.9,4.4,2.7,5.9H78.5c1.7-1.5,2.6-3.6,2.5-5.9v-28.6
	c0-7.9-10.7-7.9-10.7,0v28.6c0,2.7,0.4,4.7,1.5,5.9H54.5c1.8-1.4,2.7-3.6,2.5-5.9v-25.7c0-5.2-1.1-8-4.1-10l17.6-5.3v4.1
	C75.6,115.2,86.4,114,92.6,120.7L92.6,120.7z"/>
<path class="st0" d="M123.6,106.8c0-4.4,3.1-8,6.9-8c3.8,0,6.9,3.6,6.9,8s-3.1,8-6.9,8S123.6,111.2,123.6,106.8z"/>
<path class="st0" d="M166.3,157.7c-2.2,1.8-7.7,0.8-7.7-4.1v-32h6.7l2.2-4.7h-9.2v-11.5L142,121.7h2.2c1.1,0,1.7,0.7,1.7,2.7v29.5
	c0,5.7,5.2,10.9,11.8,10.9c6.6,0,8.3-2.7,9.9-4.7c0.4-0.7,0.8-1.4,1.1-2.1l-1.3-1.1C167.3,156.9,167,157.1,166.3,157.7L166.3,157.7z
	"/>
<path class="st0" d="M184.2,120.3V97.1l-17.2,7c3,1.2,3.7,2.9,3.7,7v46.7c0.2,2.3-0.8,4.5-2.5,5.9h17.5c-1.3-1.3-1.5-3.2-1.5-5.9
	v-28.6c0-7.9,10.7-7.9,10.7,0v28.6c0.1,2.2-0.8,4.4-2.5,5.9h17.5c-1.7-1.5-2.6-3.6-2.7-5.9v-28.6
	C207.1,118.4,193.4,110.9,184.2,120.3L184.2,120.3z"/>
<path class="st0" d="M208.2,116.5c-3.2-0.5-5.6-3.4-5.3-6.7c0-3.9,2.7-7,6-7s6,3.1,6,7c-0.4,5.2-2,9-5.6,12.2
	c-0.5,0.5-1.1-0.2-0.1-1.5c0.7-0.9,0.9-2.1,0.7-3.2C209.7,116.9,209.2,116.7,208.2,116.5L208.2,116.5z"/>
<path class="st0" d="M241.9,161.4c0.2-1.7,1.7-2.9,3.4-2.7c1.7,0.2,2.9,1.7,2.7,3.4c-0.2,1.5-1.5,2.7-3,2.7
	C243.2,164.7,241.8,163.2,241.9,161.4C241.9,161.4,241.9,161.4,241.9,161.4z M244.9,164.2c1.6,0.2,3-0.8,3.2-2.4s-0.8-3-2.4-3.2
	c-1.6-0.2-3,0.8-3.2,2.4c0,0.1,0,0.3,0,0.4C242.4,162.8,243.4,164.1,244.9,164.2C244.9,164.2,244.9,164.2,244.9,164.2z M244.3,163.4
	h-0.5v-4h1.3c0.8,0,1.2,0.3,1.2,1.1c0.1,0.5-0.3,1-0.9,1.1c0,0,0,0,0,0l1,1.7h-0.6l-0.9-1.7h-0.6L244.3,163.4L244.3,163.4z
	 M244.9,161.2c0.4,0,0.8,0,0.8-0.6s-0.4-0.6-0.7-0.6h-0.7v1.2L244.9,161.2L244.9,161.2z"/>
<path class="st0" d="M37.9,148.2c0-16.6-25.6-20.6-28.8-37.1c-3.3-17.2,15.4-23.8,24.4-19c5.9,3.2,8.2,1.5,11.2-0.2v22.2
	c0,0.4-0.3,0.7-0.7,0.7c-0.3,0-0.6-0.2-0.7-0.5c-2.2-6.5-4.7-12.9-9.9-16.7c-10.6-7.6-18,4.5-4.7,15.2c7.1,5.7,22.3,14.5,23.5,27.7
	c0,0.6,2.1,13.9-8.9,21.1c-3.6,2.3-9.8,3.6-16.1,2.7c-8.1-1.2-8.4-3.9-12.3-4.4c-3.3-0.4-6,3.2-6.7,3.6c0-0.1,0-15.8,0-23.5
	c0.5-0.3,1.2-0.1,1.6,0.4c1.4,6.3,5,11.9,10.2,15.7C23.8,159.2,37.9,161,37.9,148.2L37.9,148.2z"/>
<path class="st0" d="M231.9,153.8c-0.8-11-17.7-13.4-19.4-24.3c-1.9-12.3,12.1-15.7,18.5-12.4c4.2,2.1,5.8,1,8-0.2v14.7
	c0,0.3-0.2,0.5-0.5,0.6c-0.3,0-0.5-0.2-0.6-0.5l0,0c-1.6-4.2-3.2-8.6-7-10.9c-6.7-4-12.3,3.6-2.8,9.5c8,5,14.7,11,15.4,18.6
	c0,0.4,1.5,9.1-6.3,13.9c-3.5,1.8-7.5,2.4-11.4,1.8c-5.8-0.8-5.9-2.5-8.7-2.9c-2.4-0.3-4.2,1.9-4.7,2.1c0-0.1,0-10.1,0-15.2
	c0.4-0.2,0.8-0.1,1.1,0.3c1.1,4.2,3.6,7.9,7.2,10.3C223.4,161.1,232.6,162.3,231.9,153.8L231.9,153.8z"/>
<path class="st0" d="M139.2,116.9l-17.6,5.3c3,2,4.1,4.8,4.1,10v25.7c0.2,2.3-0.8,4.5-2.5,5.9h19c-2.2-1.1-3-3.2-3-6L139.2,116.9
	L139.2,116.9z"/>
</svg>
