<?xml version="1.0" encoding="utf-8"?>
<!-- Generator: Adobe Illustrator 21.1.0, SVG Export Plug-In . SVG Version: 6.00 Build 0)  -->
<svg version="1.1" id="Layer_1" xmlns="http://www.w3.org/2000/svg" xmlns:xlink="http://www.w3.org/1999/xlink" x="0px" y="0px"
	 viewBox="0 0 250 250" style="enable-background:new 0 0 250 250;" xml:space="preserve">
<style type="text/css">
	.st0{fill:#E41720;}
</style>
<title>Grocery</title>
<path class="st0" d="M216.3,103.2c-2.1,0.4-4.1,1.1-6,2.2c-4.3,2.3-6.9,6.8-6.9,11.7c-0.1,4.9,2.1,8.7,5.7,11.9c1.7,1.5,3.4,3,5,4.7
	c2.5,2.6,3,6.5,1.3,9.7c-1,2-3,3.4-5.3,3.6c-1.4,0-2.8-0.1-4.2-0.5c-3.5-0.6-6.8-2.2-9.5-4.6c-2.7-2.4-4.4-5.7-5.1-9.2
	c-0.6-3.6-0.7-7.3-0.4-11c0-2.5,0.5-5,1.5-7.3c1.9-4.6,5.8-8.1,10.6-9.5c3.5-1.1,7.2-1.6,10.9-1.6H216.3z"/>
<path class="st0" d="M214.4,147.2c3.5-0.4,6.7-1.9,9.3-4.2c2.9-2.7,4.4-6.6,4.1-10.6c-0.2-4.1-2.1-7.9-5.2-10.5
	c-1.8-1.6-3.6-3.2-5.3-4.9c-2.6-2.6-3.3-6.6-1.6-9.8c1-2,3-3.4,5.2-3.7c0.9,0,1.8,0.1,2.7,0.3c3.8,0.6,7.3,2.3,10.2,4.8
	c2.6,2.5,4.4,5.8,5,9.3c0.6,4,0.7,8,0.3,12c-0.2,3-1,5.9-2.6,8.5c-2.4,3.7-6,6.4-10.3,7.5C222.4,147,218.4,147.4,214.4,147.2z"/>
<path d="M99.4,110h5.9l6,18.8c2.5-6.5,5-13,7.5-19.5c0.1-0.2,0.3-0.3,0.5-0.5c0.1,0.2,0.3,0.3,0.4,0.5c2.3,6.1,4.7,12.1,7,18.2
	c0.2,0.5,0.3,0.9,0.5,1.5l6.1-19h5.9l-1.5,4.4c-3.2,9.2-6.4,18.4-9.6,27.6c-0.1,0.2-0.3,0.4-0.5,0.6c-0.2-0.2-0.4-0.3-0.5-0.6
	c-2.4-5.9-4.8-11.9-7.1-17.8c-0.2-0.6-0.4-1.2-0.6-1.8c-0.5,1.3-1.1,2.7-1.6,4.1c-2.1,5.1-4.2,10.3-6.3,15.5
	c-0.1,0.2-0.3,0.4-0.5,0.5c-0.1-0.2-0.3-0.3-0.4-0.5c-3.7-10.6-7.4-21.2-11-31.8L99.4,110z"/>
<path d="M84.2,127.4v9h13v5H78.7V110h18.4v4.9H84.2v7.5h11.8v4.9L84.2,127.4z"/>
<path d="M54.4,141.5c-2,0-3.9,0-5.7,0c-0.2,0-0.4-0.3-0.5-0.5c-0.7-1.5-1.3-3-1.9-4.5c-0.1-0.3-0.4-0.5-0.7-0.5c-4.1,0-8.2,0-12.3,0
	c-0.4-0.1-0.7,0.2-0.8,0.5c-0.6,1.5-1.3,2.9-1.9,4.4c-0.1,0.4-0.4,0.6-0.8,0.6c-1.6,0-3.2,0-4.8,0h-0.6c0.1-0.2,0.1-0.4,0.2-0.6
	l14.3-31.5c0.1-0.1,0.1-0.4,0.2-0.4c0.4-0.2,0.6,0,0.7,0.4c0.9,1.9,1.7,3.8,2.6,5.7l11.8,25.8C54.2,141,54.3,141.2,54.4,141.5z
	 M44,131.4L39.3,120l-4.7,11.3H44z"/>
<path d="M163.2,141.5c-2,0-3.9,0-5.8,0c-0.2,0-0.4-0.3-0.5-0.5c-0.7-1.5-1.3-3-1.9-4.5c-0.1-0.3-0.4-0.5-0.7-0.5
	c-4.1,0-8.2,0-12.3,0c-0.4,0-0.7,0.2-0.8,0.5c-0.6,1.5-1.3,3-1.9,4.5c-0.1,0.2-0.3,0.5-0.5,0.5c-1.9,0-3.7,0-5.7,0
	c0.1-0.3,0.2-0.5,0.3-0.7c4.8-10.5,9.5-20.9,14.3-31.3c0.1-0.2,0.3-0.4,0.5-0.6c0.2,0.2,0.4,0.3,0.5,0.6
	c4.8,10.4,9.5,20.9,14.3,31.3L163.2,141.5z M152.9,131.4l-4.7-11.3l-4.7,11.3H152.9z"/>
<path d="M22.4,116.5c-0.9-0.4-1.7-0.8-2.5-1.2c-1.4-0.7-2.9-1.2-4.5-1.3c-1-0.1-2,0.1-2.9,0.4c-1.6,0.5-2.5,2.2-2,3.8
	c0.2,0.5,0.4,1,0.8,1.3c0.9,0.8,1.8,1.5,2.8,2.1c2,1.3,4.1,2.5,6.1,3.9c3.5,2.4,4.8,7,3.1,10.9c-1.2,3-3.9,5-7.1,5.5
	c-3.9,0.7-7.9,0.2-11.4-1.5c-0.3-0.1-0.6-0.5-0.5-0.8c0-1.8,0-3.7,0-5.6c0.8,0.5,1.5,0.9,2.2,1.3c1.9,1.1,4,1.7,6.1,1.9
	c1.1,0.1,2.3-0.2,3.3-0.7c2-0.9,2.8-3.2,1.9-5.2c-0.2-0.5-0.5-0.9-0.9-1.3c-0.9-0.8-1.8-1.5-2.9-2.2c-2-1.3-4.1-2.5-6-3.9
	c-3-2.1-4.1-6-2.8-9.3c1-2.6,3.2-4.5,6-5c3.6-0.8,7.4-0.3,10.7,1.3c0.2,0.1,0.3,0.2,0.3,0.4C22.4,113,22.4,114.7,22.4,116.5z"/>
<path d="M56.5,110H75v5H62.1v7.7h12.3v4.9H62.1v13.8h-5.6V110z"/>
<path d="M155.7,109.9c2.2,0,4.3,0,6.5,0c0.2,0,0.4,0.3,0.6,0.5c2.5,3.9,5,7.9,7.5,11.8l4.2-6.6c1.1-1.8,2.3-3.6,3.4-5.3
	c0.1-0.2,0.4-0.4,0.6-0.4c2,0,4,0,6.1,0c0.1,0,0.2,0,0.2,0l-2.6,3.8c-2.9,4.3-5.9,8.6-8.8,12.9c-0.2,0.3-0.3,0.6-0.3,0.9
	c0,4.3,0,8.7,0,13v0.8h-5.7v-0.8c0-4.3,0-8.6,0-12.9c0-0.4-0.1-0.7-0.3-1c-3.6-5.3-7.3-10.7-10.9-16.1L155.7,109.9z"/>
<path class="st0" d="M241.9,147.3c-1.4,0-2.5-1.1-2.5-2.5s1.1-2.5,2.5-2.5c1.4,0,2.5,1.1,2.5,2.5S243.3,147.3,241.9,147.3
	L241.9,147.3z M241.9,142.6c-1.2,0-2.2,1-2.2,2.2c0,1.2,1,2.2,2.2,2.2c1.2,0,2.2-1,2.2-2.2c0,0,0,0,0,0
	C244,143.6,243.1,142.7,241.9,142.6L241.9,142.6z"/>
<path class="st0" d="M240.7,146.1v-2.7h1.1c0.2,0,0.4,0,0.6,0.1c0.1,0,0.2,0.1,0.3,0.3c0.1,0.1,0.1,0.3,0.1,0.4
	c0,0.2-0.1,0.4-0.2,0.5c-0.1,0.1-0.3,0.2-0.5,0.2c0.1,0.1,0.2,0.1,0.3,0.2c0.1,0.1,0.2,0.3,0.3,0.4l0.3,0.5h-0.6l-0.4-0.6
	c-0.1-0.1-0.2-0.3-0.3-0.4c0,0-0.1-0.1-0.2-0.1c-0.1,0-0.2,0-0.3,0h-0.1v1.1L240.7,146.1z M241.2,144.6h0.4c0.2,0,0.3,0,0.5,0
	c0.1,0,0.1-0.1,0.1-0.1c0-0.1,0-0.1,0-0.2c0-0.1,0-0.2-0.1-0.2c-0.1-0.1-0.1-0.1-0.2-0.1h-0.8L241.2,144.6z"/>
</svg>
