<?xml version="1.0" encoding="utf-8"?>
<!-- Generator: Adobe Illustrator 21.1.0, SVG Export Plug-In . SVG Version: 6.00 Build 0)  -->
<svg version="1.1" id="Layer_1" xmlns="http://www.w3.org/2000/svg" xmlns:xlink="http://www.w3.org/1999/xlink" x="0px" y="0px"
	 viewBox="0 0 250 250" style="enable-background:new 0 0 250 250;" xml:space="preserve">
<style type="text/css">
	.st0{fill:#E23940;}
</style>
<title>Logos</title>
<path class="st0" d="M217.2,102.9c-1.7,0.4-3.4,0.9-5,1.5c-5.1,2-8.4,6.9-8.2,12.4c-0.1,4.5,1.9,8.8,5.3,11.6
	c1.5,1.4,3.1,2.8,4.6,4.3c1.6,1.4,2.6,3.3,2.9,5.4c0.4,4-1.4,7.6-6,8.5c-0.9,0.1-1.8,0-2.6-0.2c-3.2-0.4-6.3-1.5-9.1-3.3
	c-4-2.6-6.6-6.7-7.3-11.4c-0.5-3.6-0.6-7.3-0.3-10.9c0.1-2.9,0.9-5.8,2.2-8.4c2-3.6,5.2-6.3,9.1-7.6c3-1.1,6.1-1.7,9.3-1.7
	c0.4,0,0.8-0.1,1.2-0.2L217.2,102.9z"/>
<path class="st0" d="M214.8,147c1.5-0.4,3-0.7,4.4-1.2c5.5-1.8,9.3-7,9.3-12.9c0-4.4-1.9-8.6-5.3-11.4c-1.5-1.5-3.3-2.9-4.8-4.4
	c-1.9-1.7-3-4.2-2.9-6.7c-0.1-3.4,2.3-6.4,5.6-7.1c1-0.1,1.9-0.1,2.9,0.1c3.9,0.6,7.5,2.2,10.4,4.8c2.5,2.4,4.3,5.5,4.9,8.9
	c0.5,3,0.7,6.1,0.6,9.2c0.1,2.5-0.2,4.9-0.8,7.3c-1.4,5.3-5.3,9.5-10.5,11.3c-3.3,1.2-6.7,1.8-10.2,1.8c-0.2,0-0.5,0.1-0.7,0.1
	L214.8,147z"/>
<path d="M5,133.7c2.5,1.9,5.6,3,8.8,3.1c0.9,0,1.8-0.2,2.6-0.6c2-0.7,3-2.9,2.3-4.9c-0.2-0.5-0.5-1-0.8-1.3c-0.9-0.9-2-1.8-3.1-2.5
	c-1.5-1.1-3.3-2-4.8-3.1c-1.8-1.1-3.2-2.7-3.9-4.6c-1.5-4.1,0.7-8.7,4.8-10.2c0.5-0.2,1-0.3,1.6-0.4c3.5-0.7,7.2-0.2,10.3,1.5
	c0.2,0.1,0.3,0.3,0.3,0.5c0,1.6,0,3.3,0,5l-0.8-0.4c-1.7-1-3.6-1.7-5.6-2c-1-0.1-2.1-0.1-3.1,0.2c-1.7,0.4-2.7,2-2.4,3.7
	c0.1,0.6,0.5,1.2,1,1.6c0.7,0.7,1.5,1.3,2.3,1.8c2.1,1.4,4.4,2.7,6.4,4.1c1.7,1.1,2.9,2.7,3.5,4.6c1.6,4.7-1,9.7-5.6,11.3
	c-0.4,0.1-0.9,0.3-1.3,0.3c-4,0.9-8.3,0.4-12-1.5l-0.3-0.2L5,133.7z"/>
<path d="M127.7,128.6c2-6.2,3.9-12.2,5.8-18.3c0.2-0.5,0.3-0.7,0.9-0.7c1.5,0,3.1,0,4.6,0h0.7c-0.4,1-0.7,2-1,2.9
	c-3.4,9.7-6.8,19.4-10.1,29.1c-0.1,0.2-0.3,0.4-0.5,0.6c-0.2-0.2-0.3-0.4-0.5-0.6c-2.4-6-4.8-12-7.2-18c-0.2-0.5-0.4-1-0.6-1.7
	c-0.2,0.5-0.3,1-0.5,1.5l-4.4,11.1c-1,2.4-1.9,4.8-2.9,7.2c-0.1,0.2-0.3,0.3-0.5,0.5c-0.2-0.2-0.4-0.3-0.4-0.5
	c-3.7-10.5-7.3-21.1-11-31.6c0-0.1,0-0.3-0.1-0.5h4.2c1.7,0,1.7,0,2.3,1.7l5.4,17c0,0.1,0.1,0.1,0.1,0.2l7.4-19.3
	c0-0.1,0.1-0.2,0.1-0.3c0.1-0.1,0.3-0.4,0.4-0.3c0.2,0,0.3,0.2,0.4,0.3c0.6,1.5,1.2,2.9,1.7,4.4l5.2,13.5
	C127.3,127.4,127.5,128,127.7,128.6z"/>
<path d="M79.3,109.7h17.5c0.8,0,0.8,0,0.8,0.8c0,1.4,0,2.7,0,4.2H84.7v7.5h11.8v5H84.7v9h13v5H79.2L79.3,109.7z"/>
<path d="M55,141.2c-2,0-3.9,0-5.7,0c-0.2,0-0.4-0.3-0.5-0.4c-0.7-1.5-1.3-3-2-4.5c-0.1-0.3-0.4-0.5-0.7-0.5c-4.1,0-8.2,0-12.3,0
	c-0.4,0-0.7,0.2-0.8,0.5c-0.6,1.5-1.3,3-1.9,4.5c-0.1,0.2-0.3,0.5-0.5,0.5c-1.9,0-3.7,0-5.7,0c0.3-0.6,0.5-1.2,0.8-1.7l13.7-30.1
	c0-0.1,0.1-0.2,0.2-0.3c0.1-0.2,0.3-0.4,0.5-0.4c0.2,0,0.3,0.2,0.4,0.4c0.6,1.2,1.1,2.5,1.7,3.7l12.6,27.7
	C54.8,140.7,54.9,140.9,55,141.2z M44.6,131.1l-4.8-11.3l-4.6,11.4L44.6,131.1z"/>
<path d="M133.5,141.2l1.9-4.3c4.1-9.1,8.3-18.3,12.5-27.4c0.2-0.3,0.4-0.6,0.6-0.9c0.3,0.3,0.5,0.6,0.7,0.9
	c4.7,10.3,9.4,20.6,14.1,30.9c0.1,0.2,0.2,0.5,0.3,0.7c-0.1,0-0.3,0-0.4,0c-1.7,0-3.4,0-5.1,0c-0.3,0-0.6-0.2-0.7-0.5
	c-0.6-1.5-1.3-3-1.9-4.5c-0.1-0.4-0.4-0.6-0.8-0.5c-4.1,0-8.2,0-12.3,0c-0.4-0.1-0.7,0.2-0.8,0.5c-0.6,1.5-1.3,2.9-1.8,4.4
	c-0.1,0.4-0.5,0.7-0.9,0.6C137.2,141.2,135.4,141.2,133.5,141.2z M148.6,119.8l-4.7,11.3h9.5L148.6,119.8z"/>
<path d="M75.6,109.7v4.9H62.7v7.7H75v5h-0.7c-3.6,0-7.2,0-10.8,0c-0.6,0-0.8,0.1-0.7,0.7c0,4,0,8.1,0,12.1c0,0.3,0,0.6,0,0.9h-5.6
	v-31.4H75.6z"/>
<path d="M173.7,141.2H168c0-0.3,0-0.5,0-0.8c0-4.3,0-8.6,0-12.9c0-0.4-0.1-0.7-0.3-1c-3.6-5.3-7.2-10.7-10.8-16l-0.5-0.8h0.6
	c1.8,0,3.7,0,5.5,0c0.4,0,0.7,0.2,0.9,0.5c2.5,3.9,4.9,7.8,7.4,11.7l0.1,0.2c2.5-3.9,5-7.7,7.4-11.7c0.2-0.4,0.7-0.7,1.2-0.7
	c1.9,0,3.8,0,5.9,0c-0.2,0.3-0.3,0.5-0.4,0.7c-3.6,5.3-7.2,10.6-10.8,15.9c-0.2,0.3-0.4,0.7-0.4,1.2c0,4.3,0,8.7,0,13
	C173.7,140.7,173.7,140.9,173.7,141.2z"/>
<path d="M242.4,147.1c-1.4,0-2.6-1.2-2.6-2.6s1.2-2.6,2.6-2.6s2.6,1.2,2.6,2.6v0C245,146,243.8,147.1,242.4,147.1z M242.4,142.3
	c-1.2,0-2.2,1-2.2,2.2c0,1.2,1,2.2,2.2,2.2s2.2-1,2.2-2.2v0C244.6,143.3,243.6,142.3,242.4,142.3L242.4,142.3z"/>
<path d="M241.1,145.9v-2.7h1.1c0.2,0,0.4,0,0.6,0c0.1,0.1,0.2,0.1,0.3,0.3c0.1,0.1,0.1,0.3,0.1,0.4c0,0.2-0.1,0.4-0.2,0.5
	c-0.1,0.1-0.3,0.2-0.5,0.2c0.1,0.1,0.2,0.1,0.3,0.2c0.1,0.1,0.2,0.3,0.3,0.4l0.3,0.5h-0.7l-0.4-0.6c-0.1-0.1-0.2-0.3-0.3-0.4
	c0,0-0.1-0.1-0.2-0.1h-0.3h-0.1v1.1L241.1,145.9z M241.7,144.3h0.4c0.2,0,0.3,0,0.5,0c0.1,0,0.1-0.1,0.2-0.1c0-0.1,0-0.1,0-0.2
	c0-0.1,0-0.1,0-0.2c-0.1-0.1-0.1-0.1-0.2-0.1h-0.8L241.7,144.3z"/>
</svg>
