<?xml version="1.0" encoding="utf-8"?>
<!-- Generator: Adobe Illustrator 21.1.0, SVG Export Plug-In . SVG Version: 6.00 Build 0)  -->
<svg version="1.1" id="Layer_1" xmlns="http://www.w3.org/2000/svg" xmlns:xlink="http://www.w3.org/1999/xlink" x="0px" y="0px"
	 viewBox="0 0 250 250" style="enable-background:new 0 0 250 250;" xml:space="preserve">
<style type="text/css">
	.st0{fill:#ED1C24;}
</style>
<title>Grocery</title>
<path class="st0" d="M4.6,131.3c0.1-0.2,0.1-0.5,0.2-0.7c0.3-1,1.3-1.5,2.3-1.3c0.7,0.1,1.2,0.6,1.3,1.2c0.5,1.8,1.3,3.5,2.3,5
	c2.4,4.2,5.9,7.7,10.1,10.1c2.2,1.3,4.6,1.9,7.1,1.9c1,0,2-0.2,3-0.5c2-0.6,3.4-2.4,3.5-4.5c0.3-2-0.7-4-2.5-5
	c-1.6-1-3.4-1.9-5.2-2.6c-4.3-1.7-8.5-3.3-12.7-5.1c-1.4-0.6-2.8-1.3-4.1-2.2c-2.2-1.3-3.8-3.5-4.3-6c-0.6-2.4-0.8-4.9-0.6-7.3
	c0.2-2.5,1.1-5,2.7-7c3.2-4.3,8-7.2,13.4-7.9c2.3-0.3,4.6-0.3,6.9,0.1c3.3,0.4,6.5,0.8,9.8,1.3c1.3,0.1,2.7-0.1,4-0.4
	c0.7-0.1,1.3-0.2,2-0.3c1-0.2,2,0.5,2.1,1.5c0,0.1,0,0.2,0,0.3c0.1,1.4,0.1,2.9,0,4.3c-0.1,1.5,0,3.1-0.1,4.7s0,3-0.1,4.4
	c0.1,0.7-0.4,1.4-1.2,1.5h-0.2c-1,0.4-2.2-0.1-2.7-1.1c-1.2-1.9-2.5-3.8-3.8-5.7c-1.3-1.8-2.8-3.4-4.6-4.7c-2.3-1.7-5.2-2.4-8-1.8
	c-1,0.2-2,0.5-2.9,0.9c-1.6,0.9-2.5,2.7-2.3,4.5c0.2,0.8,0.6,1.4,1.1,1.9c1.1,1,2.4,1.7,3.8,2.2c3,1.1,6,2.2,9,3.3
	c3.6,1.3,7.2,2.9,10.6,4.8c2.2,1.1,4,2.8,5.3,4.9c1,1.7,1.6,3.6,1.7,5.5c0.2,2.1,0,4.3-0.5,6.4c-0.9,3.1-2.9,5.7-5.5,7.5
	c-3.1,2.2-6.6,3.7-10.3,4.6c-3.4,0.9-6.9,1.3-10.5,1.1c-2-0.1-4.1-0.4-6.1-0.6s-4.1-0.5-6.2-0.5c-1.5,0-2.9,0.2-4.4,0.4
	c-0.3,0-0.6,0-1,0c-1.3,0.1-2.4-0.9-2.5-2.2c0-0.1,0-0.1,0-0.2c-0.1-0.8-0.2-1.7-0.2-2.5c0-4.2,0-8.5,0-12.7c0-0.2-0.1-0.4-0.1-0.6
	C4.6,132,4.6,131.7,4.6,131.3z"/>
<path class="st0" d="M157,114.8c-0.3,0.2-0.5,0.4-0.7,0.7c-1.1,1.8-2.2,3.5-3.2,5.3c-0.6,1.1-1.2,2.3-1.8,3.5
	c-0.3,0.5-0.7,1-1.1,1.4c-0.4,0.5-1.2,0.6-1.7,0.1c0,0-0.1-0.1-0.1-0.1c-0.5-0.4-0.9-1-1.3-1.5c-1.2-2.1-2.3-4.3-3.5-6.4
	c-0.4-0.7-0.8-1.3-1.2-2.1c-0.2-0.3-0.4-0.5-0.6-0.7c-0.3-0.3-0.6-0.3-0.7,0.2c-0.1,0.5-0.2,1-0.2,1.5c0,1.6,0.1,3.3,0.2,4.9
	c0,0.8,0.3,1,1.1,1h0.3c1.3,0.1,2,0.7,1.6,2.4c0,0.4-0.3,0.7-0.7,0.7c-0.6,0-1.3,0-1.9,0.1h-5.1c-1,0-1.3-0.3-1.5-1
	c-0.3-0.8,0.2-1.7,1-1.9c0,0,0,0,0.1,0c0.6-0.1,1.1-0.7,1.1-1.3c0.2-2.2,0.5-4.4,0.7-6.6c0.1-1.5,0.2-2.9,0.3-4.4
	c0-0.8,0-1.6-0.1-2.4c-0.1-0.7-0.4-0.9-1.1-1c-0.3,0-0.7-0.1-1-0.2c-0.7-0.2-1-0.7-0.9-1.7s0.3-1.2,1.1-1.3c0.8-0.1,1.6-0.1,2.4-0.1
	c1.6,0,3.1,0,4.7,0c0.8-0.1,1.7,0.4,2,1.1c1.3,2.2,2.5,4.5,3.8,6.7c0.5,0.8,1,1.6,1.5,2.4c0.1,0.2,0.3,0.4,0.5,0.6
	c0.6,0.7,0.8,0.7,1.3,0c0.6-0.8,1.1-1.7,1.5-2.6c1.2-2.3,2.3-4.6,3.4-6.9c0.6-1.2,0.8-1.3,2.1-1.3c2,0,4,0,6,0c0.2,0,0.5,0,0.7,0
	c0.6,0,1,0.5,1,1c0.1,0.4,0.1,0.8,0,1.3c-0.1,0.4-0.4,0.7-0.7,0.7c-1,0.2-1.1,0.3-1.1,1.3c0,1.4,0,2.9,0,4.3c0,1.4,0.1,3.2,0.3,4.8
	s0.4,3.1,0.6,4.6c0,0.4,0.4,0.8,0.8,0.8c0.9,0.3,1.5,1.2,1.2,2.2c0,0.2-0.1,0.3-0.2,0.5c-0.2,0.3-0.5,0.5-0.9,0.5
	c-1.1,0-2.3,0-3.5,0c-2.1,0-4.2,0-6.2,0h-0.5c-1-0.1-1.3-0.5-1.5-1.3c-0.2-0.8,0.3-1.5,1.1-1.7c0,0,0.1,0,0.1,0
	c0.8-0.1,1.4-0.7,1.3-1.5c0.2-2,0.1-4-0.3-6C157.2,115.3,157.1,115.1,157,114.8z"/>
<path class="st0" d="M213.9,115.4l3.1,3.5c0.6,0.7,1.3,1.4,2,2.1c0.4,0.5,1,0.7,1.6,0.7c0.5,0,0.7,0.3,0.8,0.7
	c0.2,1.2-0.4,2.4-1.5,3c-0.7,0.4-1.5,0.6-2.3,0.6c-1.5,0-2.9,0-4.4,0c-0.8,0.1-1.5-0.3-1.8-1c-0.4-0.7-0.8-1.5-1.2-2.2l-2.7-5.5
	c-0.1-0.3-0.3-0.6-0.7-0.5c-0.3,0-0.6,0.3-0.6,0.7c0,1.4,0,2.8,0.1,4.3c0,0.5,0.4,0.8,0.9,0.9s0.7,0.1,1,0.3c0.6,0.2,1,0.7,1,1.3
	c0.1,1.7-0.1,1.9-1.8,1.9h-6.7c-1,0-2.1,0.1-3.1,0c-0.4,0-0.8-0.1-1.1-0.4c-0.6-0.8-0.5-1.9,0.3-2.6c0.1-0.1,0.2-0.1,0.3-0.2
	c0.6-0.2,1-0.7,1-1.3c0-2.2,0.1-4.3,0.1-6.5c0-1.9-0.1-3.8-0.2-5.7c0-0.2,0-0.4,0-0.5c0-0.8-0.2-1.3-1.1-1.5
	c-0.7-0.1-0.9-0.8-0.8-1.8c0-0.6,0.5-1.2,1.1-1.3c0.3-0.1,0.6-0.1,0.9-0.1h13.2c2.6-0.1,4.9,1.4,5.9,3.8c0.8,2,0.5,4.3-0.9,6
	c-0.5,0.5-1,0.9-1.5,1.2L213.9,115.4z M209.2,110c0-1-0.7-2-1.6-2.4c-0.9-0.4-1.6-0.1-1.7,0.8c-0.1,1.2-0.1,2.5,0,3.7
	c0,0.4,0.3,0.7,0.7,0.7c0,0,0,0,0,0C208.1,112.8,209.3,111.6,209.2,110C209.2,110.1,209.2,110.1,209.2,110L209.2,110z"/>
<path class="st0" d="M119,114.8c0,1.1,0,2.3,0,3.5c0.1,0.6-0.3,1.2-0.9,1.2c-0.1,0-0.2,0-0.3,0c-1.2,0-1.5-0.2-1.8-1.3
	c-0.1-0.3-0.1-0.6-0.3-0.9c-0.2-0.4-0.5-0.8-1-0.9c-0.5-0.1-0.8,0-0.8,0.6c0,1.3,0.2,2.7,0.3,4c0,0.5,0.5,1,1,1
	c1.8,0.3,3.6-0.1,5.1-1.1c0.6-0.5,1.1-1.1,1.3-1.8c0.2-0.5,0.6-0.9,1.1-1.1c0.7-0.2,1.4,0.2,1.7,0.9c0,0.1,0,0.2,0.1,0.3
	c0.1,0.6,0.1,1.2,0,1.8c-0.1,1.3-0.2,2.6-0.4,3.9c-0.1,1-0.4,1.2-1.4,1.2c-1.9,0-3.7-0.1-5.5-0.1c-2.5,0-5.1,0-7.6,0
	c-1.3,0-2.6,0-3.9,0c-0.9,0-1.4-0.3-1.6-1c-0.3-0.8,0-1.8,0.8-2.2c0.5-0.2,0.9-0.7,0.9-1.3c0.1-1.3,0.2-2.7,0.2-4
	c0-2.6,0-5.2-0.1-7.8c0-0.5-0.1-1-0.2-1.5c0-0.5-0.3-0.6-0.7-0.7c-0.4-0.1-0.8-0.3-1.1-0.5c-0.4-0.7-0.4-1.6,0-2.3
	c0.3-0.4,0.8-0.6,1.2-0.5c1.7,0,3.3,0.1,5,0c3.4,0,6.7,0,10.1-0.1c0.7,0,1.5,0,2.2,0c0.7,0,1.2,0.4,1.2,1.2c0,1.8,0,3.5,0,5.2
	c0,0.8-0.3,1.2-0.9,1.3c-0.7,0.2-1.4-0.1-1.8-0.8c-0.1-0.1-0.1-0.3-0.2-0.4c-0.5-1.6-1.9-2.7-3.6-2.7c-0.9,0-1.8-0.1-2.7-0.1
	c-0.6,0-0.8,0.2-0.8,0.8c0,1,0,2,0,3.1c0,0.6,0.3,0.8,0.9,0.8c0.6,0,1.2-0.5,1.3-1.1c0.3-1.1,1.1-1.2,2.1-1.1c0.5,0,0.9,0.4,0.9,1
	c0,0,0,0.1,0,0.1C119,112.5,119,113.6,119,114.8z"/>
<path class="st0" d="M74.9,125.9c-1.7,0-3.4,0-5.2,0s-2-1-1.8-2.4c0.1-0.4,0.4-0.8,0.8-0.8c0.8-0.2,1-0.5,0.9-1.3
	c-0.1-0.8-0.5-0.9-1.2-0.9h-4.3c-0.6,0-1.1,0.4-1.3,0.9c-0.2,0.4,0,0.9,0.4,1c0,0,0.1,0,0.1,0c0.9,0.3,1.5,1.3,1.2,2.2
	c0,0.1-0.1,0.2-0.1,0.3c-0.1,0.4-0.5,0.8-1,0.9c-0.4,0.1-0.9,0.1-1.3,0.1h-5.3c-1.1,0-1.6-0.4-1.7-1.6s0.2-1.6,1.3-2
	c0.6-0.1,1-0.5,1.3-1c0.6-1.2,1.2-2.4,1.7-3.6c1.7-4.1,3.5-8.2,5.2-12.3c0.1-0.2,0.2-0.4,0.3-0.7c0.3-0.6,0.9-1,1.6-0.9
	c1.1,0,2.2,0,3.3,0c0.8-0.1,1.6,0.4,1.8,1.2c2,4.7,4,9.5,5.9,14.2c0.3,0.7,0.7,1.4,1.1,2.1c0.3,0.6,0.9,1,1.5,1.2
	c0.7,0.1,1.2,0.8,1.1,1.5c0,1.6-0.3,1.9-1.9,1.9C78.1,125.9,76.5,125.9,74.9,125.9z M66.2,116.8h0.9c0.6,0,0.8-0.3,0.6-0.8
	c-0.3-0.9-0.7-1.8-1.1-2.7c-0.2-0.4-0.6-0.4-0.7,0c-0.5,0.9-0.9,1.9-1.2,2.9c-0.2,0.4,0.1,0.7,0.6,0.7L66.2,116.8z"/>
<path class="st0" d="M188.3,125.9c-1.7,0-3.4,0-5.2,0c-1.7,0-2-1.3-1.8-2.5c0.1-0.4,0.4-0.7,0.8-0.7c0.7-0.2,1-0.6,0.9-1.3
	c0-0.6-0.6-1-1.1-1c0,0-0.1,0-0.1,0h-4.3c-0.6,0-1.1,0.4-1.3,0.9c-0.2,0.4,0,0.8,0.4,1c0,0,0.1,0,0.1,0c1.1,0.3,1.3,1.1,1.1,2.5
	c-0.1,0.5-0.5,0.8-1,0.9c-0.4,0.1-0.9,0.1-1.3,0.1h-5.3c-1.1,0-1.5-0.4-1.6-1.4c-0.1-1.1,0.2-1.8,1.3-2.1c0.6-0.1,1-0.5,1.3-1
	c0.5-1,1.1-2.1,1.5-3.1c1.8-4.2,3.6-8.5,5.3-12.7c0-0.1,0.1-0.2,0.2-0.4c0.2-0.9,1.1-1.5,2.1-1.3c1,0.1,2,0,3,0
	c0.8-0.1,1.6,0.4,1.8,1.2c2,4.7,4,9.5,6,14.2c0.3,0.7,0.7,1.4,1.1,2.1c0.3,0.5,0.8,0.9,1.3,1.1c1.2,0.4,1.3,0.7,1.3,2
	c0,1-0.4,1.5-1.5,1.4L188.3,125.9L188.3,125.9z M179.6,116.8h1c0.6,0,0.8-0.3,0.6-0.8c-0.3-0.9-0.7-1.8-1.1-2.7
	c-0.2-0.4-0.6-0.4-0.8,0c-0.4,0.9-0.9,1.9-1.2,2.8c-0.2,0.4,0.1,0.7,0.5,0.7S179.3,116.8,179.6,116.8L179.6,116.8z"/>
<path class="st0" d="M91.2,116c0.2-0.2,0.4-0.5,0.6-0.8c1.2-1.8,2-3.8,2.4-5.9c0.2-0.7-0.1-1.4-0.7-1.7l-0.4-0.2
	c-0.9-0.5-1.4-1.5-1-2.5c0.2-0.6,0.7-0.9,1.3-0.9c1.2,0,2.4,0,3.6,0s2.7,0,4.1-0.1c0.3,0,0.6,0,0.9,0.1c0.2,0.1,0.4,0.2,0.6,0.4
	c0.6,0.9,0.4,2.1-0.5,2.7c0,0-0.1,0.1-0.1,0.1c-1.1,0.4-1.9,1.2-2.4,2.2c-2.4,4.5-4.7,9-7.1,13.4c-0.4,0.9-1,1.7-1.6,2.5
	c-0.6,0.9-1.7,1.3-2.7,1.1c-0.6-0.1-1.1-0.4-1.5-0.9c-0.4-0.6-0.8-1.2-1.1-1.8c-2-4.4-4-8.7-6.1-13.1c-0.5-1-1-2-1.6-2.9
	c-0.1-0.2-0.3-0.4-0.6-0.4c-1-0.2-1.7-1.2-1.5-2.3c0-0.1,0.1-0.3,0.1-0.4c0.2-0.4,0.6-0.7,1.1-0.6c1,0,1.9,0,2.9,0h7.9
	c0.3,0,0.6,0,0.9,0.1c0.6,0,1.2,0.4,1.3,1c0.2,0.8,0,1.6-0.7,2.1l-0.5,0.3c-0.7,0.4-1,1.2-0.8,1.9c0.5,2.2,1.4,4.2,2.5,6.1
	c0.1,0.1,0.1,0.2,0.2,0.3C91,115.8,91.1,115.9,91.2,116z"/>
<path class="st0" d="M233,104h9.2c1.2,0,1.6,0.4,1.6,1.5c0.1,1.7,0.1,3.3,0.2,5c0,0.9-0.3,1.3-0.9,1.5c-0.8,0.3-1.6-0.1-1.9-0.9
	c0,0,0,0,0,0c-0.2-0.5-0.4-0.9-0.7-1.3c-0.4-0.8-1.1-1.3-1.9-1.5c-0.6-0.1-1,0-1,0.7c-0.2,1.5-0.3,3-0.4,4.6
	c-0.2,2.4-0.1,4.9,0.1,7.3c0.1,1.1,0.4,1.5,1.5,1.8c1.1,0.3,1.2,0.6,1.2,1.5c0,1.6-0.3,1.9-1.8,1.9c-2.1,0-4.3-0.1-6.4-0.1
	c-1.1,0-2.2,0.1-3.3,0.1c-0.5,0-1.1,0-1.6-0.1c-0.6,0-1-0.5-1.1-1c-0.1-0.4-0.1-0.9,0-1.3c0.1-0.5,0.5-1,1-1.1l0.3-0.1
	c1.4-0.3,1.7-0.3,1.8-2.2c0.2-3.7,0.2-7.5-0.1-11.2c0-0.7-0.2-0.9-1-0.9c-0.8-0.1-1.6,0.3-2,1c-0.4,0.7-0.8,1.4-1.2,2.1
	c-0.3,0.6-1,0.9-1.7,0.8c-0.6,0-1.2-0.6-1.1-1.2c0-0.7,0-1.5,0.1-2.2c0.1-1.1,0.2-2.2,0.3-3.3c0-0.7,0.6-1.3,1.3-1.3
	c0,0,0.1,0,0.1,0L233,104z"/>
<path class="st0" d="M133.6,139.5c0.3-0.3,0.5-0.7,0.7-1.1c1-1.9,2-3.8,2.9-5.8c0.2-0.9,1.1-1.4,1.9-1.3c1.3,0.1,2.7,0,4,0
	c0.4,0,0.8,0,1,0.5c0.2,0.5,0.2,1.1-0.1,1.5c-0.1,0.1-0.3,0.2-0.5,0.2c-0.5,0-0.7,0.3-0.7,0.7c0,1.5,0,2.9,0,4.4
	c0.1,1.7,0.3,3.4,0.5,5.1c0,0.4,0.3,0.8,0.7,0.8c0.6,0.1,0.8,0.6,0.7,1.4c-0.1,0.8-0.4,0.9-1,0.9l-4.7-0.1c-0.7,0-1.4,0-2.1,0
	c-0.7,0-1.1-0.3-1.1-0.9c-0.1-0.8,0.1-1.2,0.9-1.3c0.5-0.1,0.8-0.5,0.8-0.9c0.2-1.3,0.1-2.7-0.1-4c0-0.2-0.1-0.3-0.2-0.7
	c-0.3,0.3-0.5,0.6-0.8,0.9c-0.9,1.5-1.7,3.1-2.6,4.6c-0.3,0.6-0.7,1.2-1.1,1.8c-0.3,0.5-0.9,0.8-1.4,0.5c-0.2-0.1-0.4-0.3-0.5-0.5
	c-0.5-0.7-0.9-1.4-1.3-2.1c-0.8-1.4-1.5-2.9-2.3-4.3c-0.2-0.3-0.4-0.6-0.7-0.9h-0.2c-0.1,0.2-0.2,0.5-0.2,0.7c0,1.3,0,2.7,0.1,4
	c0,0.5,0.2,0.8,0.7,0.7c0.1,0,0.3,0,0.4,0c0.7,0.1,1.1,0.7,1,1.4c0,0.2-0.1,0.4-0.2,0.5c-0.2,0.2-0.4,0.3-0.7,0.3c-0.5,0-1,0-1.5,0
	h-3c-0.8,0-1.1-0.2-1.2-0.8c-0.2-0.6,0.1-1.2,0.7-1.4c0,0,0.1,0,0.1,0c0.4-0.1,0.7-0.5,0.7-0.9c0.2-1.9,0.4-3.7,0.6-5.6
	c0.1-1,0.1-2,0.1-3c0-0.3,0-0.5-0.1-0.8c-0.1-0.2-0.3-0.5-0.6-0.6c-0.1-0.1-0.3,0-0.5-0.1c-0.7-0.1-1.2-0.7-1.1-1.3
	c0-0.2,0.1-0.3,0.1-0.5c0.2-0.4,0.6-0.6,1-0.6c0.7,0,1.3,0,2,0c0.9,0,1.8,0,2.7,0c0.6-0.1,1.1,0.2,1.4,0.8c0.9,1.6,1.8,3.1,2.7,4.7
	c0.4,0.6,0.7,1.3,1.1,1.9C133.1,139,133.4,139.3,133.6,139.5z"/>
<path class="st0" d="M189.6,138.2c0.2-0.1,0.4-0.3,0.6-0.4c0.9-0.9,1.8-1.9,2.7-2.8c0.1-0.2,0.2-0.3,0.3-0.5c0.1-0.2,0-0.4-0.2-0.5
	c-0.7-0.2-1.1-1-0.9-1.7c0-0.1,0.1-0.2,0.1-0.3c0.1-0.2,0.4-0.4,0.6-0.4c0.8,0,1.7,0,2.5,0h3.2c0.3-0.1,0.5-0.1,0.8,0
	c0.2,0.1,0.5,0.3,0.6,0.5c0.1,0.4,0.1,0.9,0,1.3c-0.1,0.2-0.3,0.4-0.5,0.5c-0.7,0.2-1.4,0.5-1.9,1.1l-2.4,2.1
	c-0.2,0.2-0.3,0.5-0.1,0.7c0,0,0,0,0,0.1c1.1,1.7,2.2,3.4,3.4,5.1c0.5,0.8,1.2,1.5,2.1,1.9c0.6,0.3,0.7,0.9,0.5,1.8
	c-0.1,0.4-0.4,0.6-1.1,0.6h-5.3c-0.4,0-0.7-0.2-0.9-0.5l-2.7-4.7c-0.1-0.2-0.2-0.3-0.4-0.5c-0.3,0.2-0.7,0.4-0.7,0.6
	c0,0.8,0,1.5,0.2,2.3c0,0.1,0.3,0.3,0.6,0.3c0.8,0.2,1.1,0.6,1,1.5c-0.1,0.9-0.4,1.1-1.2,1.1c-1.4,0-2.9,0-4.3-0.1
	c-0.8,0-1.5,0-2.3,0.1c-0.5,0-0.9-0.1-1-0.6c-0.1-0.8-0.1-1.3,0.5-1.6c0.6-0.2,1-0.8,0.8-1.5c0-2.8-0.1-5.6-0.2-8.4
	c0-0.5-0.2-0.9-0.6-1.1c-0.7-0.4-0.9-1.3-0.5-2c0.2-0.2,0.5-0.4,0.9-0.4c0.8,0,1.5,0,2.3,0c1.2,0,2.5,0,3.7-0.1
	c0.8,0,1.1,0.2,1.3,0.7c0.3,0.7,0,1.4-0.6,1.7c-0.3,0.1-0.5,0.4-0.5,0.8c0,1.1,0,2.1,0,3.2C189.6,138,189.6,138.1,189.6,138.2z"/>
<path class="st0" d="M177,139.5c1.1,1.2,2.2,2.5,3.3,3.6c0.3,0.4,0.8,0.7,1.3,0.7c0.4,0,0.5,0.3,0.6,0.7c0.1,1.2-0.8,2.2-2,2.3
	c-1.3,0.1-2.7,0.1-4,0.1c-0.6,0-1-0.5-1.2-1c-0.5-0.9-0.9-1.7-1.3-2.7c-0.5-0.9-0.8-1.7-1.3-2.6c-0.1-0.2-0.3-0.3-0.5-0.3
	c-0.1,0-0.3,0.3-0.3,0.4c0,0.9,0,1.9,0,2.8c0,0.4,0.4,0.8,0.8,0.8c0.2,0,0.4,0.1,0.6,0.1c0.7,0.4,1,1.3,0.6,2c0,0,0,0.1-0.1,0.1
	c-0.2,0.2-0.4,0.3-0.7,0.3c-0.7,0-1.4,0-2.1,0h-4.9c-1,0-1.4-0.4-1.3-1.4c0-0.4,0.3-0.8,0.7-0.9c0.4-0.1,0.7-0.5,0.7-0.9
	c0-2.9-0.1-5.9-0.1-8.8c0.1-0.5-0.2-0.9-0.7-1c-0.6-0.1-0.7-0.7-0.6-1.2c0-0.5,0.3-0.9,0.7-1.1c0.2-0.1,0.5-0.1,0.8-0.1h9
	c1.6-0.1,3.2,0.7,4,2.1c1.1,1.9,0.6,4.4-1.3,5.6C177.2,139.3,177.1,139.4,177,139.5z M171.3,136L171.3,136c0,0.4,0,0.7,0,1.1
	c0,0.3,0.3,0.7,0.8,0.6c0.8-0.1,1.4-0.7,1.5-1.5c0.1-0.9-0.5-1.8-1.3-2.1c-0.3-0.1-0.7,0-0.8,0.3c0,0,0,0.1,0,0.1
	C171.3,135.1,171.3,135.6,171.3,136L171.3,136z"/>
<path class="st0" d="M116.6,139.6l3.4,3.7c0.3,0.4,0.7,0.6,1.2,0.6c0.4,0,0.5,0.2,0.6,0.6c0.2,1.2-0.7,2.3-1.9,2.4c0,0-0.1,0-0.1,0
	c-1.3,0.1-2.7,0.1-4,0.1c-0.5,0-0.9-0.3-1.1-0.8c-0.4-0.7-0.7-1.4-1.1-2.1c-0.5-1.1-1.1-2.2-1.6-3.2c-0.1-0.2-0.3-0.3-0.4-0.4
	c-0.1,0.2-0.4,0.3-0.4,0.5c0,1,0,1.9,0.1,2.9c0,0.2,0.3,0.4,0.5,0.6c0.2,0.1,0.3,0.1,0.5,0.1c0.7,0.1,1.2,0.8,1.1,1.5
	c0,0.2-0.1,0.3-0.2,0.5c-0.1,0.2-0.3,0.3-0.5,0.4c-0.5,0-0.9,0-1.4,0h-5.6h-0.4c-0.7,0-1-0.3-1.1-0.8c-0.1-0.8,0-1.3,0.7-1.6
	c0.4-0.1,0.6-0.4,0.6-0.8c0-0.6,0.1-1.3,0.1-1.9c0-2.4-0.1-4.8-0.2-7.2c0-0.4-0.1-0.7-0.6-0.8c-0.5-0.2-0.8-0.7-0.7-1.2
	c0-0.7,0.3-1,0.8-1.2c0.2-0.1,0.4-0.1,0.7-0.1h9c1.6-0.1,3.1,0.7,3.9,2.1c1.2,1.9,0.6,4.5-1.3,5.7L116.6,139.6z M110.9,136.1
	c0,0.4,0,0.8,0.1,1.2c0.1,0.4,0.3,0.6,0.7,0.5c0.7-0.1,1.3-0.6,1.5-1.3c0.2-0.9-0.3-1.8-1.1-2.2c-0.3-0.2-0.8-0.1-1,0.2
	c-0.1,0.1-0.1,0.2-0.1,0.3C111,135.2,111,135.6,110.9,136.1z"/>
<path class="st0" d="M78.8,131.6c1.5,0,3.1,0,4.6,0c2.6-0.1,4.8,2,4.9,4.7c0,0,0,0,0,0c0.3,2.4-1.3,4.7-3.8,5c-0.3,0-0.6,0.1-0.8,0
	c-0.9,0-1.9,0-2.8-0.1c-0.4,0-0.6,0.1-0.6,0.5c0,0.5,0,1.2,0.1,1.7c0,0.6,0.5,1.1,1.1,1.1c0,0,0.1,0,0.1,0h0.2
	c0.7-0.1,1.4,0.4,1.5,1.2c0,0.3,0,0.5-0.1,0.8c-0.2,0.4-0.6,0.6-1,0.6c-0.9,0-1.8-0.1-2.7,0c-1.5,0-2.9,0-4.4,0H74
	c-0.7,0-1-0.3-1.1-0.8c-0.2-0.8,0-1.3,0.6-1.6c0.3-0.1,0.6-0.4,0.6-0.8c0-1.8,0.1-3.6,0.2-5.3c0-1.3,0-2.6-0.1-3.8
	c0-0.3-0.2-0.6-0.5-0.7c-0.7-0.2-1-0.9-0.8-1.5c0,0,0,0,0-0.1c0.1-0.5,0.5-0.8,1.3-0.8h4.8L78.8,131.6z M79.9,136.3L79.9,136.3
	c0,0.5,0,1,0,1.6c0,0.5,0.3,0.7,0.8,0.6c1-0.1,1.8-1,1.7-2c0-0.1,0-0.1,0-0.2c0-1.1-0.8-2-1.9-2.1c-0.3-0.1-0.6,0.1-0.6,0.4
	c0,0.1,0,0.1,0,0.2C79.9,135.3,79.9,135.8,79.9,136.3L79.9,136.3z"/>
<path class="st0" d="M68,131.6c0.8,0,1.6,0,2.4,0c0.8,0,1.1,0.3,1.1,0.9c0.1,1-0.1,1.6-0.9,1.6c-0.3,0-0.6,0.3-0.6,0.6
	c0,0.4,0,0.7,0,1.1c0,2,0,4,0,6.1c0,2.6-1.9,4.9-4.5,5.3c-2.1,0.4-4.2,0.4-6.3-0.1c-2.2-0.5-3.8-2.5-3.9-4.8c0-2.1,0-4.2,0-6.3
	c0-0.4,0-0.9-0.1-1.3c-0.1-0.3-0.3-0.6-0.5-0.7c-0.6-0.2-0.9-0.9-0.7-1.5c0.1-0.5,0.4-0.7,1.2-0.7c0.7,0,1.3,0,2.1,0
	c1.5,0,3.1,0,4.6,0c0.7,0,1,0.3,1.1,0.9c0,1-0.2,1.5-1,1.5c-0.4,0-0.7,0.3-0.8,0.7c-0.1,0.4-0.1,0.8-0.2,1.2c-0.2,1.9-0.2,3.8,0,5.6
	c0.3,1.7,1.9,2.8,3.6,2.5c0.2,0,0.5-0.1,0.7-0.2c0.9-0.4,1.4-1.3,1.3-2.3c0-2.1,0-4.2-0.1-6.3c0-0.9-0.3-1-1.2-1.2
	c-0.7-0.1-1.2-0.8-1.1-1.6c0-0.2,0.1-0.3,0.2-0.5c0.2-0.2,0.5-0.4,0.9-0.4C66.3,131.6,67.1,131.6,68,131.6L68,131.6z"/>
<path class="st0" d="M212,139.2c0,0.8,0,1.6,0,2.3c0,0.8-0.2,0.9-0.9,1c-0.5,0.2-1.1-0.1-1.3-0.6c0,0,0-0.1,0-0.1
	c0-0.2-0.1-0.5-0.2-0.7c-0.1-0.3-0.3-0.5-0.5-0.7c-0.4-0.3-0.7-0.1-0.7,0.4c0,0.9,0.1,1.8,0.2,2.7c0,0.4,0.4,0.7,0.7,0.7
	c1.2,0.2,2.4-0.1,3.4-0.8c0.4-0.3,0.7-0.7,0.9-1.2c0.1-0.3,0.3-0.5,0.5-0.7c0.4-0.3,1-0.3,1.4,0.1c0.1,0.1,0.1,0.2,0.2,0.3
	c0.1,0.2,0.1,0.4,0.1,0.6c-0.1,1.3-0.2,2.5-0.3,3.8c-0.1,0.7-0.3,0.8-1,0.8c-1.7,0-3.3-0.1-5-0.1c-1.7,0-3.7,0-5.5,0.1
	c-0.5,0-1,0-1.6,0c-0.5,0-0.9-0.3-0.9-0.8c-0.2-0.5,0-1.1,0.5-1.5c0.7-0.3,0.8-0.8,0.8-1.4c0.2-2.8,0.2-5.6,0-8.5
	c0-0.9-0.1-0.9-0.8-1c-0.1,0-0.2-0.1-0.3-0.1c-0.4-0.4-0.5-1.1-0.3-1.6c0.1-0.4,0.5-0.7,0.9-0.6h3.9h8.3c0.6,0,0.9,0.3,0.9,0.9
	c0,1.2,0,2.4,0,3.7c0,0.6-0.2,0.9-0.7,1c-0.5,0.1-1-0.1-1.3-0.6c0-0.1-0.1-0.2-0.1-0.3c-0.4-1.2-1.5-2-2.8-1.9c-0.5,0-1,0-1.6,0
	c-0.5,0-0.5,0.2-0.5,0.5c0,0.6,0,1.3,0,1.9c0,0.3-0.1,0.6,0.3,0.7c0.4,0.1,0.7-0.1,0.9-0.4c0.1-0.2,0.2-0.3,0.2-0.5
	c0.4-0.6,1.2-0.9,1.8-0.5c0.2,0.2,0.3,0.5,0.3,0.8C212,137.6,212,138.4,212,139.2z"/>
<path class="st0" d="M99.3,139.2c0,0.8,0,1.6,0,2.4s-0.2,0.9-0.8,0.9c-0.5,0.2-1.1-0.1-1.3-0.6c0,0,0,0,0-0.1
	c-0.1-0.2-0.1-0.5-0.2-0.7c-0.1-0.2-0.2-0.4-0.3-0.6c-0.2-0.2-0.4-0.2-0.7-0.2c-0.1,0-0.2,0.4-0.2,0.6c0,0.8,0.1,1.7,0.2,2.5
	c0,0.4,0.4,0.7,0.8,0.7c1.2,0.2,2.4-0.1,3.4-0.8c0.4-0.3,0.7-0.7,1-1.2c0.1-0.1,0.2-0.3,0.3-0.5c0.2-0.4,0.7-0.6,1.1-0.5
	c0.4,0.1,0.7,0.5,0.7,0.9c0,0.4,0,0.9,0,1.3c-0.1,0.9-0.2,1.9-0.3,2.8c-0.1,0.6-0.3,0.8-0.9,0.8c-1.8,0-3.6-0.1-5.3-0.1
	s-3.5,0.1-5.3,0.1c-0.5,0-1,0-1.6,0c-0.5,0-0.9-0.3-0.9-0.8c-0.1-0.5-0.1-1.2,0.5-1.5c0.5-0.2,0.8-0.8,0.8-1.3c0-2.8,0-5.5,0-8.3
	c0-0.2-0.1-0.4-0.1-0.6c0-0.3-0.2-0.5-0.5-0.6c0,0,0,0-0.1,0c-0.9-0.1-0.9-0.8-0.8-1.6c0-0.6,0.4-0.8,1.1-0.8c2.5,0,4.9,0,7.4,0.1
	c1.5,0,2.9,0,4.4-0.1c0.8,0,1.1,0.2,1.1,1c0,1.2,0,2.4,0,3.7c0.1,0.4-0.2,0.8-0.6,0.9c-0.4,0.2-0.9,0-1.2-0.3
	c-0.1-0.2-0.2-0.3-0.3-0.5c-0.3-1.2-1.4-2-2.7-1.9c-0.5,0-1,0-1.6,0s-0.6,0.1-0.5,0.5c0,0.6,0,1.3,0,1.9c0,0.3-0.1,0.6,0.3,0.7
	c0.4,0.1,0.7-0.1,0.9-0.4c0.1-0.2,0.2-0.3,0.2-0.5c0.4-0.6,1.1-0.9,1.8-0.5c0.2,0.2,0.3,0.4,0.3,0.7
	C99.4,137.6,99.3,138.4,99.3,139.2z"/>
<path class="st0" d="M159.2,147.1h-3.6c-1.1,0-1.5-0.4-1.4-1.5c0-0.4,0.3-0.8,0.7-0.9c0.4-0.1,0.5-0.4,0.5-0.7s-0.2-0.7-0.6-0.7
	c-1.1,0-2.2,0-3.3,0c-0.4,0-0.7,0.4-0.7,0.8c0,0.4,0.3,0.5,0.6,0.6c0.5,0.2,0.7,0.6,0.7,1.3c0,0.5-0.4,1-0.9,1c-0.1,0-0.3,0-0.4,0
	h-4.1c-0.7,0-1-0.3-1.1-0.9c-0.1-0.9,0.1-1.5,0.8-1.6c1-0.2,1.3-1,1.7-1.8c1.1-2.7,2.3-5.4,3.4-8.2l0.9-2.2c0.2-0.6,0.8-1,1.4-0.9
	c0.7,0,1.5,0,2.2,0c0.6,0,1.1,0.3,1.3,0.9c1.4,3.3,2.7,6.6,4.1,9.8c0.2,0.5,0.5,1,0.8,1.5c0.2,0.4,0.6,0.8,1.1,0.9
	c0.7,0.2,0.9,0.8,0.8,1.7c-0.1,0.5-0.4,0.7-1.1,0.7L159.2,147.1z M153.1,140.6h0.4c0.6,0,0.7-0.2,0.5-0.7c-0.2-0.5-0.4-1.1-0.7-1.6
	c0-0.1-0.2-0.3-0.3-0.3c-0.1,0-0.3,0.1-0.3,0.3c-0.2,0.3-0.3,0.7-0.5,1C151.8,140.5,151.9,140.6,153.1,140.6z"/>
<path class="st0" d="M232.3,144c0-0.6,0.1-1.1,0.2-1.6c0.1-0.5,0.4-0.8,0.9-0.9c0.4-0.1,0.9,0.1,1.1,0.5c0.2,0.2,0.3,0.5,0.5,0.7
	c0.9,1.2,2.4,1.8,3.8,1.6c0.4,0,0.8-0.3,0.8-0.7c0.1-0.4-0.2-0.8-0.6-0.9c-0.8-0.3-1.6-0.6-2.3-1c-1.1-0.4-2.1-1.1-2.9-2
	c-1.7-2.5-1.1-5.9,1.4-7.6c1.3-0.9,3-1.2,4.5-0.8c0.9,0.3,1.8,0.3,2.7,0c0.5-0.2,1.1,0.1,1.3,0.6c0,0.1,0,0.2,0.1,0.3
	c0.2,1.1,0.3,2.1,0.4,3.2c0.1,0.7-0.2,1.1-0.7,1.3c-0.5,0.2-0.9,0-1.3-0.6c-0.7-1.1-1.9-1.9-3.2-2.1c-0.3,0-0.6,0-0.9,0.1
	c-0.4,0.1-0.6,0.6-0.5,1c0.1,0.2,0.2,0.3,0.4,0.4c0.6,0.3,1.2,0.6,1.9,0.8c1.1,0.4,2.1,0.9,3,1.6c2.2,2,2.4,5.3,0.4,7.5
	c-0.1,0.1-0.1,0.1-0.2,0.2c-0.9,0.8-2.1,1.3-3.3,1.5c-1.8,0.3-3.6,0.1-5.2-0.5c-0.2-0.1-0.5-0.1-0.7,0c-0.6,0.1-1-0.1-1.2-0.7
	C232.5,145.5,232.4,144.7,232.3,144z"/>
<path class="st0" d="M224.1,131.6h6.4c0.9,0,1.2,0.3,1.2,1.2c0,1.1,0.1,2.3,0.2,3.4c0,0.7-0.2,1.1-0.7,1.2c-0.6,0.2-1.2-0.1-1.3-0.7
	c-0.2-0.4-0.4-0.7-0.6-1c-0.2-0.3-0.4-0.5-0.7-0.7c-0.8-0.5-1.1-0.3-1.2,0.6c-0.3,2.4-0.3,4.9-0.2,7.3c0,0.2,0.1,0.5,0.1,0.7
	c0,0.5,0.3,1,0.9,1c1.1,0.2,1.2,1,0.9,2.1c-0.1,0.4-0.5,0.5-0.9,0.5c-0.7,0-1.3-0.1-2.1-0.1c-1.9,0-3.7,0-5.6,0.1
	c-1.3,0-1.5-0.9-1.2-2c0.1-0.4,0.5-0.5,0.9-0.6c0.9-0.2,1.1-0.3,1.1-1.3c0-2.4,0-4.8,0-7.1c0-0.4,0-0.7-0.1-1.1
	c0-0.3-0.2-0.5-0.5-0.5c0,0,0,0,0,0c-0.5-0.1-1,0.1-1.3,0.6c-0.3,0.5-0.6,1-0.8,1.5c-0.2,0.4-0.6,0.7-1.1,0.7
	c-0.5,0.1-1-0.3-1.1-0.8c0-0.1,0-0.2,0-0.2c0-0.9,0.1-1.8,0.1-2.7c0-0.3,0-0.7,0.1-1c0-0.6,0.4-1,0.9-1c0.1,0,0.1,0,0.2,0
	L224.1,131.6z"/>
</svg>
