<?xml version="1.0" encoding="utf-8"?>
<!-- Generator: Adobe Illustrator 21.1.0, SVG Export Plug-In . SVG Version: 6.00 Build 0)  -->
<svg version="1.1" id="Layer_1" xmlns="http://www.w3.org/2000/svg" xmlns:xlink="http://www.w3.org/1999/xlink" x="0px" y="0px"
	 viewBox="0 0 250 250" style="enable-background:new 0 0 250 250;" xml:space="preserve">
<style type="text/css">
	.st0{fill:#EE3A43;}
</style>
<title>Grocery</title>
<path class="st0" d="M173.5,139.6l2.2-6.9l1.9-6l2.2-6.9l2.1-6.5c0.3-0.8,0.5-1.7,0.8-2.5c0.1-0.2,0.2-0.3,0.4-0.3h7.7
	c0.4,0,0.4,0.2,0.3,0.5c-0.4,1.3-0.8,2.7-1.2,4.1c-0.6,1.9-1.1,3.7-1.7,5.6c-0.6,1.9-1.1,3.3-1.7,5c0,0.1-0.1,0.3-0.2,0.6
	c0.2-0.1,0.3-0.1,0.5-0.2c2.1-1.3,4.3-2.7,6.4-4c1.2-0.8,2.5-1.2,3.9-1.1c2.7,0,5.3,0,8.1,0.1l-0.5,0.3l-11.5,8.5
	c-0.2,0.2-0.3,0.3-0.1,0.6c0.7,1,1.4,2.1,2.1,3.2c0.1,0.2,0.4,0.3,0.6,0.3c1.8,0,3.5,0,5.3,0c1.6,0,3.2-0.3,4.7-1
	c1-0.5,1.9-1.3,2.4-2.3c1.3-2.5,2.7-5,4-7.5c1.2-2.5,2.8-4.8,4.7-6.9c2.1-2.3,4.8-3.9,7.8-4.8c1.8-0.5,3.8-0.8,5.7-0.8h8.7
	c0.1,0,0.2,0,0.3,0c-0.1,1.5-0.5,2.9-1.2,4.2c-0.4,0.7-1.2,1.2-2,1.3c-0.7,0.2-1.5,0.3-2.2,0.3c-1.1,0.1-2.2,0.1-3.3,0.2
	c-1.2,0.2-2.4,0.6-3.4,1.3c-1.5,0.9-2.7,2.2-3.5,3.8c-1.4,2.6-2.8,5.2-4.3,7.8c-1,1.9-2.2,3.7-3.7,5.3c-1.5,1.6-3.3,3-5.3,4
	c-0.9,0.4-1.8,0.6-2.7,0.6h-12.5c-1.8,0-3.5,0-5.3,0c-0.4,0-0.7-0.1-0.9-0.5c-1.4-2.1-2.9-4.1-4.3-6.1c-0.1-0.1-0.2-0.2-0.3-0.4
	c-0.2,0.5-0.4,1-0.6,1.4c-0.7,1.7-1.4,3.5-2,5.2c-0.1,0.2-0.3,0.4-0.5,0.4h-7.6L173.5,139.6z"/>
<path class="st0" d="M59.3,139.6c0.4-1.3,0.8-2.5,1.2-3.8c0.7-2.2,1.5-4.5,2.2-6.7c1.1-3.3,2.2-6.6,3.3-9.9c1-2.8,1.9-5.6,2.8-8.3
	c0.1-0.3,0.3-0.4,0.6-0.4l7.8,0.1c0.3,0,0.4,0.1,0.3,0.4c-0.7,2.1-1.4,4.2-2.1,6.3c-0.4,1.1-0.8,2.2-1.2,3.3c-0.1,0.3,0,0.4,0.3,0.4
	c2,0,4.1-0.1,6.1,0c2.3,0,4.5,0.1,6.7,0.2c0.6,0,1.2,0.4,1.5,1c0.2,0.5,0.4,1,0.6,1.5c0.2,0.9,0.1,1.9-0.2,2.7
	c-0.9,3-1.9,5.9-2.8,8.9c-0.4,1.3-0.8,2.5-1.2,3.8c-0.1,0.2-0.2,0.4-0.5,0.4c-1.6,0-3.2,0-4.8,0c-0.7,0-1.3-0.2-1.9-0.3
	c-0.6-0.2-1-0.7-1.1-1.3c0-1,0.2-2.1,0.6-3l2.1-6.3c0.2-0.5,0.2-1.1-0.1-1.7c-0.2-0.4-0.6-0.7-1.1-0.7c-1.9,0-3.8,0-5.7,0
	c-0.3,0-0.6,0.2-0.7,0.5c-0.5,1.5-1.1,3.1-1.7,4.6c-0.9,2.6-1.9,5.2-2.8,7.8c-0.1,0.3-0.3,0.5-0.6,0.5c-2.4,0-4.9,0-7.3,0
	L59.3,139.6z"/>
<path class="st0" d="M5.3,139.6l0.8-2.6c0.3-0.8,0.5-1.6,0.8-2.3c0-0.2,0.3-0.4,0.5-0.4c1.7,0,3.5,0,5.2-0.2c1.6,0,3.2-0.3,4.7-0.9
	c1.7-0.8,3.2-2,4.4-3.5c1.5-2.1,2.8-4.3,3.9-6.7c0.9-1.9,1.9-3.7,3.1-5.5c1.7-2.6,4.2-4.6,7.1-5.8c1.4-0.6,2.8-0.9,4.3-1.1
	c1.6-0.1,3.2-0.2,4.8-0.2c2.2,0,4.3,0,6.5,0c0.4,0,0.5,0.1,0.5,0.5c-0.1,1.2-0.4,2.3-0.8,3.4c-0.4,1-1.4,1.6-2.4,1.6
	c-1.5,0.2-3,0.3-4.5,0.5c-2.1,0.2-4.1,1.1-5.5,2.7c-1.3,1.4-2.4,3-3.3,4.8c-1.3,2.4-2.5,4.8-3.9,7.1c-1.2,2.3-2.9,4.3-5,5.9
	c-1.3,0.9-2.8,1.5-4.4,1.9c-3.7,0.7-7.5,1-11.3,0.8H5.7L5.3,139.6z"/>
<path class="st0" d="M88.5,139.6c0.2-0.5,0.3-0.9,0.5-1.3l2.5-7.7c1-3,2-6.1,3-9.1c0-0.2,0.3-0.4,0.5-0.4h20.6c1.5,0,2.9,1,3.2,2.5
	c0.1,0.3,0.1,0.5,0,0.8c-0.3,1.3-0.7,2.6-1,3.9c-0.4,1.6-0.8,3.1-1.2,4.7l-1.2,4.7c-0.1,0.6-0.3,1.1-0.4,1.7c0,0.2-0.2,0.4-0.4,0.4
	c0,0,0,0,0,0h-5.6c-0.2,0-0.5,0-0.7,0c-0.7,0.1-1.4-0.4-1.5-1.1c0-0.1,0-0.2,0-0.4c0-0.6,0.1-1.1,0.2-1.7c0.8-3,1.6-5.9,2.5-8.9
	c0.1-0.3,0-0.6-0.3-0.8c-0.4-0.4-0.9-0.6-1.4-0.5h-4.4c-0.3,0-0.6,0-0.9,0c-0.2,0-0.5,0.1-0.5,0.4c-0.7,2-1.4,4-2.1,6.1
	c-0.7,2.1-1.5,4.4-2.3,6.7c-0.1,0.3-0.3,0.3-0.5,0.3H89L88.5,139.6z"/>
<path class="st0" d="M150,121l-0.6,1.9c-0.7,2.2-1.5,4.4-2.2,6.5c-0.9,2.7-1.8,5.4-2.7,8.1c-0.2,0.6-0.4,1.1-0.5,1.7
	c0,0.3-0.3,0.5-0.6,0.5c0,0,0,0,0,0c-0.6,0-1.2,0-1.8,0h-18.3c-1.8,0-3.3-1.4-3.4-3.2c0-0.5,0.1-1,0.3-1.4c0.8-2.7,1.6-5.3,2.4-8
	c0.6-1.9,1.1-3.8,1.6-5.7c0-0.2,0.2-0.3,0.4-0.3h8.1c0.1,0,0.2,0,0.3,0l-0.6,1.9c-0.6,1.9-1.3,3.9-1.9,5.8c-0.3,1.1-0.6,2.3-0.9,3.5
	c-0.2,0.7,0.2,1.4,0.9,1.7c0.2,0.1,0.4,0.1,0.6,0h5.8c0.3,0,0.5-0.1,0.6-0.4c1.2-3.2,2.5-6.4,3.7-9.5c0.3-0.9,0.7-1.7,1-2.7
	c0.1-0.3,0.3-0.5,0.6-0.4c2.3,0,4.6,0,6.8,0L150,121z"/>
<path class="st0" d="M61.5,121c-0.3,1.1-0.6,2.2-0.9,3.2c-0.3,1.2-1.4,2-2.7,1.9c-1.8,0-3.6,0-5.4,0.1c-1.3,0-2.7,0.1-4,0.2
	c-1.4,0.2-2.6,1.3-2.9,2.7c-0.4,1.1-0.4,2.4-0.1,3.5c0.2,0.7,0.9,1.2,1.6,1.2H57c0.7,0,0.7,0,0.5,0.7c-0.5,1.6-1.1,3.1-1.6,4.7
	c0,0.2-0.3,0.4-0.5,0.4c-3.1,0-6.2,0.1-9.3,0.1c-1.8,0-3.5-0.2-5.3-0.6c-2.1-0.4-3.7-2-4.2-4c-0.4-1.6-0.4-3.2,0-4.8
	c0.4-2.1,1.3-4.1,2.7-5.8c1.2-1.6,3-2.7,5-3.1c2.4-0.5,4.9-0.6,7.4-0.4c0.9,0,1.8,0,2.7,0L61.5,121L61.5,121z"/>
<path class="st0" d="M174.9,121c-0.3,1.1-0.6,2.2-0.9,3.2c-0.3,1.2-1.4,2-2.7,1.9c-2.2,0-4.5,0-6.7,0.1c-0.9,0-1.8,0.1-2.7,0.2
	c-1.4,0.2-2.5,1.3-2.9,2.7c-0.4,1.1-0.4,2.3-0.2,3.4c0.2,0.8,0.9,1.3,1.7,1.3h9.9h0.7c-0.1,0.4-0.3,0.8-0.4,1.2
	c-0.5,1.3-1,2.7-1.4,4c-0.1,0.3-0.3,0.4-0.6,0.4c-2.1,0-4.2,0-6.3,0s-3.8,0-5.7-0.1c-1.6,0-3.2-0.5-4.6-1.4
	c-1.1-0.8-1.8-1.9-2.1-3.2c-0.6-3.1,0-6.4,1.7-9.1c0.9-1.7,2.4-3.1,4.2-3.9c1-0.5,2.1-0.8,3.2-0.9c2-0.2,4.1-0.2,6.1-0.1
	c0.7,0,1.5,0,2.2,0h7.5L174.9,121z"/>
<path class="st0" d="M243,115c-1.3,0-2.3-1-2.3-2.3c0-1.3,1-2.3,2.3-2.3s2.3,1,2.3,2.3v0C245.3,114,244.3,115,243,115z M243,110.7
	c-1.1,0-2,0.9-2,2c0,1.1,0.9,2,2,2c1.1,0,2-0.9,2-2C245.1,111.6,244.2,110.7,243,110.7C243,110.7,243,110.7,243,110.7L243,110.7z"/>
<path class="st0" d="M242.1,114v-2.4h1c0.2,0,0.4,0,0.6,0c0.1,0,0.2,0.1,0.3,0.2c0.1,0.1,0.1,0.3,0.1,0.4c0,0.2-0.1,0.3-0.2,0.5
	c-0.1,0.1-0.3,0.2-0.5,0.2c0.1,0.1,0.2,0.1,0.3,0.2c0.1,0.1,0.2,0.3,0.3,0.4l0.3,0.5h-0.6l-0.4-0.5c-0.1-0.1-0.2-0.2-0.3-0.4
	c0,0-0.1-0.1-0.1-0.1h-0.3h-0.1v1L242.1,114z M242.6,112.6h0.4c0.1,0,0.3,0,0.4,0c0.1,0,0.1-0.1,0.1-0.1c0-0.1,0-0.1,0-0.2
	c0-0.1,0-0.1,0-0.2c0-0.1-0.1-0.1-0.2-0.1h-0.7L242.6,112.6z"/>
</svg>
