<?xml version="1.0" encoding="utf-8"?>
<!-- Generator: Adobe Illustrator 21.1.0, SVG Export Plug-In . SVG Version: 6.00 Build 0)  -->
<svg version="1.1" id="Layer_1" xmlns="http://www.w3.org/2000/svg" xmlns:xlink="http://www.w3.org/1999/xlink" x="0px" y="0px"
	 viewBox="0 0 250 250" style="enable-background:new 0 0 250 250;" xml:space="preserve">
<style type="text/css">
	.st0{fill:#E8262A;}
</style>
<title>Grocery</title>
<path class="st0" d="M5.3,129.2h14.6c0.5,3.5,1.3,6,3.6,7.7c2.2,1.7,14.6,3.1,14.6-5.6c0-3.9-1-6-11.5-8.6l-0.4-0.1l-1.3-0.3
	c-4.3-0.9-8.4-2.6-12.1-5c-2.2-1.7-3.9-3.9-4.9-6.4c-1.2-2.8-1.7-5.7-1.6-8.7c0-6.3,2-11.1,6-14.5s9.8-5,17.3-5
	c7.1,0,12.6,1.8,16.6,5.3c4,3.6,6.3,10.8,6.3,17.3H38.2c-0.2-3.1,1.1-10.3-9.8-10.3c-3.3,0-8,2.3-8,6.4c0,3.4,1.2,6,8.1,7.7l4.4,1.1
	c4.4,1.2,11.4,3.7,13.6,5c6.3,4,7.4,11.1,7.4,14.5c0,6.7-2.1,11.9-6.4,15.6c-4.2,3.7-9.6,5.5-17.3,5.5s-13.6-1.9-17.9-5.7
	C7.9,141.5,5.6,136.1,5.3,129.2z"/>
<path class="st0" d="M86.5,133.5h13.8c-1.3,4.5-4.5,10.1-8.4,12.7c-4.2,2.6-9.2,3.9-14.1,3.8c-6.8,0-12.3-2.1-16.3-6.2
	c-4-4.1-6-9.7-5.9-16.7c0-6.9,2-12.4,5.9-16.3c3.9-4,9.3-6,16.2-6c7.2,0,12.8,2,16.8,5.9c3.9,3.9,5.9,9.5,5.9,16.8
	c0,0.8,0,1.4,0,1.8c0,0.4,0,0.8-0.1,1.1H68.6c-0.1,2.3,0.9,4.6,2.7,6.1c1.9,1.8,4.5,2.7,7.1,2.5C81.9,139.1,85.2,136.9,86.5,133.5z
	 M71.5,120.5h13.3c0-1.4-0.7-2.7-1.8-3.5c-1.5-0.9-3.2-1.3-4.9-1.2c-1.6-0.1-3.3,0.3-4.7,1.2C72.4,117.9,71.6,119.1,71.5,120.5z"/>
<path class="st0" d="M102.1,149.1v-43.1h14.2v4.4c1.7-2.1,4.6-4.8,10.8-4.8c4.9,0,8.5,1.2,11,3.6c2.4,2.4,3.6,6.1,3.6,11v28.9h-13.8
	v-22.5c0-3-0.3-8.5-4.9-8.5c-7.4,0-6.8,6.5-6.8,9.3v22L102.1,149.1z"/>
<path class="st0" d="M170.7,150.3c-1.1,0-2.5,0-4.1,0.1c-1.6,0.1-2.6,0.1-3,0.1c-4.8,0-8.1-0.9-9.8-2.7c-1.8-1.8-2.7-5.3-2.7-10.6
	v-19.4h-8.4v-11.9h8.4V90.6h12.4v15.4h9.3v11.9h-9.3v17.6c-0.1,0.9,0.2,1.8,0.8,2.4c1,0.5,2.2,0.7,3.4,0.6h3.1L170.7,150.3z"/>
<path class="st0" d="M174.4,150.5v-44.4h13.8v5.7c1.8-7.2,13.6-6.5,13.7-6.5V118h-4c-2.8-0.2-5.5,0.8-7.5,2.7
	c-1.7,1.8-2.5,4.4-2.5,7.9v22L174.4,150.5z"/>
<path class="st0" d="M198.7,167.6l1.6-11.9c2.4,0,19.2,1,16.6-10.7c-2.2-10.2-13.8-39.4-13.8-39.4h13.2l8.7,21.7l7.7-21.7h12.6
	c0,0-14.8,37.3-18.8,50.1c-4.2,13.4-19.4,11.8-23.2,11.8H198.7z M201.9,167.6H5.3v-11.9h196.6L201.9,167.6z"/>
<path class="st0" d="M229.3,160.2c0.6,0,1.3,0.2,1.8,0.5c0.6,0.3,1,0.8,1.3,1.3c0.7,1.1,0.7,2.5,0,3.7c-0.3,0.6-0.8,1-1.3,1.3
	c-1.1,0.6-2.5,0.6-3.7,0c-0.6-0.3-1-0.8-1.3-1.3c-0.7-1.1-0.7-2.5,0-3.7c0.3-0.6,0.8-1,1.3-1.3C228,160.4,228.6,160.2,229.3,160.2z
	 M229.3,161c-0.5,0-1,0.1-1.5,0.4c-0.5,0.3-0.8,0.6-1.1,1.1c-0.5,0.9-0.5,2,0,3c0.3,0.5,0.6,0.8,1.1,1.1c0.9,0.5,2,0.5,2.9,0
	c0.5-0.3,0.8-0.6,1.1-1.1c0.5-0.9,0.5-2,0-3c-0.3-0.5-0.6-0.8-1.1-1.1C230.3,161.1,229.8,160.9,229.3,161L229.3,161z M227.6,165.9
	V162h2c0.2,0,0.4,0.1,0.6,0.2c0.2,0.1,0.3,0.2,0.4,0.4c0.1,0.2,0.1,0.4,0.1,0.6c0,0.3-0.1,0.5-0.3,0.7c-0.2,0.2-0.5,0.3-0.8,0.4
	c0.1,0,0.2,0.1,0.3,0.1c0.1,0.1,0.2,0.2,0.3,0.3l0.3,0.5l0.5,0.8h-1l-0.3-0.6c-0.1-0.3-0.3-0.6-0.5-0.8c-0.2-0.1-0.4-0.2-0.5-0.2
	h-0.2v1.6L227.6,165.9z M228.4,163.7h0.3c0.3,0,0.6,0,0.9,0c0.1,0,0.2-0.1,0.3-0.2c0.1-0.1,0.1-0.2,0.1-0.3c0-0.1,0-0.2-0.1-0.3
	c-0.1-0.1-0.2-0.2-0.3-0.2c-0.3,0-0.6,0-0.9,0h-0.3V163.7z"/>
</svg>
