<?xml version="1.0" encoding="utf-8"?>
<!-- Generator: Adobe Illustrator 21.1.0, SVG Export Plug-In . SVG Version: 6.00 Build 0)  -->
<svg version="1.1" id="Layer_1" xmlns="http://www.w3.org/2000/svg" xmlns:xlink="http://www.w3.org/1999/xlink" x="0px" y="0px"
	 viewBox="0 0 250 250" style="enable-background:new 0 0 250 250;" xml:space="preserve">
<style type="text/css">
	.st0{fill:#EC1B2E;}
	.st1{fill:#FDBD10;}
	.st2{fill:#FFFFFF;}
	.st3{fill:#1F0A00;}
</style>
<title>Grocery</title>
<path class="st0" d="M165.5,139.5c16.3-22.7,11-54.3-11.7-70.6s-54.3-11-70.6,11.7c-12.6,17.6-12.6,41.3,0,58.9H33.7v55.7h40
	c0,0.4,0.1,0.8,0.3,1.2c1.9,4.3,7.7,3,9.9,2.5h0.2l7.1-1.7l5.4-1.3l2.9-0.7h115.7v-55.6H165.5z M89.1,139.5
	c-16.1-19.4-13.4-48.2,6-64.3s48.2-13.4,64.3,6c9.7,11.6,12.9,27.3,8.7,41.8c-1.7,6-4.7,11.7-8.7,16.5H89.1z"/>
<path class="st1" d="M159.4,139.5c4-4.8,7-10.4,8.7-16.5c7-24.2-7-49.5-31.2-56.5s-49.5,7-56.5,31.2c-4.2,14.5-0.9,30.2,8.7,41.8
	H159.4z"/>
<path class="st2" d="M167.4,95.6l-0.1-0.3l-21.8-0.1c0-0.7-0.1-1.3-0.2-2L164,88l-0.3-0.4L145,91.1c-0.2-0.8-0.4-1.6-0.7-2.4
	l14.8-7.8l-0.3-0.4l-15.4,6.2c-0.3-0.7-0.7-1.4-1.1-2l11.3-9.3l-0.4-0.4L141,83c-0.5-0.7-1.1-1.4-1.8-2l8-10.1l-0.5-0.3l-8.9,9
	c-0.7-0.6-1.5-1.1-2.3-1.6l5-10.3l-0.7-0.2l-6.2,9.5c-0.7-0.4-1.5-0.7-2.3-0.9l2.6-10.3l-0.7-0.1l-3.9,9.8c-1-0.2-2-0.4-3-0.5
	l0.1-10.2h-0.7l-1.4,10.1c-0.8,0-1.7,0.1-2.5,0.2l-2-10.1l-0.7,0.1l0.7,10.4c-1,0.2-1.9,0.5-2.8,0.9l-4.5-10l-0.7,0.2l3.2,10.6
	c-0.7,0.3-1.4,0.7-2,1.2l-7.1-9.6L105,69l6,10.6c-0.6,0.5-1.2,1.1-1.8,1.7l-10-9.1l-0.6,0.4l9.1,10.3c-0.4,0.6-0.9,1.2-1.3,1.8
	L93,77l-0.4,0.4l12.8,9.3c-0.3,0.6-0.5,1.2-0.8,1.8l-16.7-5.8l-0.4,0.4l16.4,7.5c-0.2,0.7-0.3,1.3-0.4,2.1l-20.2-2.4L83,90.8
	l20.2,4.2c0,0.3,0,0.7,0,1s0,0.4,0,0.6l-23,1.7l-0.1,0.3l23.3,0.4c0.1,0.6,0.2,1.2,0.3,1.8l-25.1,7.3l0,0l25.8-5.1
	c0.2,0.5,0.3,0.9,0.5,1.3l-23.7,12.1l24.8-10c0.3,0.5,0.6,1,0.9,1.5l-20.6,17l22.2-15c0.4,0.4,0.7,0.8,1.1,1.2l-16.3,20.1l18.1-18.6
	c0.5,0.4,1,0.7,1.5,1.1l-11.8,23.1l13.8-21.9c0.5,0.3,1.1,0.5,1.6,0.7l-5.9,23.8l0,0l8.2-22.9c0.6,0.1,1.1,0.3,1.7,0.4l-0.7,22.6
	h0.2l3-22.3c0.5,0,0.9,0.1,1.3,0.1h0.7l4.4,22.3h0.2l-2-22.5c0.6-0.1,1.1-0.2,1.7-0.3l9.7,22.5l-7.2-23.3c0.7-0.3,1.3-0.5,2-0.9
	l14.4,20.2l-12.4-21.3c0.6-0.4,1.2-0.8,1.7-1.2l18.1,16.5l-16.4-18.1c0.5-0.5,0.9-1,1.3-1.5l21.7,12.6l-20.4-14.4
	c0.4-0.6,0.8-1.3,1.2-2l23.6,7.8l-22.6-9.8c0.2-0.6,0.5-1.2,0.6-1.8l24.9,3l0,0l-24.4-5.4c0.1-0.7,0.2-1.5,0.3-2.2L167.4,95.6
	L167.4,95.6z"/>
<path class="st1" d="M147.3,117.5l-32.6,7c-1.3,0.4-2.8-0.3-3.3-1.6c-0.5-1.3,0.3-2.8,1.6-3.3l33.5-12l0.4-19.1l-22.1,5.3
	c1.5-1,2.3-2.7,2-4.5c-0.6-2.4-3-3.8-5.4-3.3c-2.2,0.5-3.6,2.6-3.1,4.8c0,0.1,0,0.2,0.1,0.3c0.3,1.8,1.7,3.1,3.5,3.4l-10.8,2.6
	l2.8-3l-8.9-9.4l-3.7,4l8.8,8.7l-8.3,2l-2.2-3.7l-7.9,1.7l1.9,3.4l3.1-0.7l11,19c-1.5,1.8-1.8,4.3-0.7,6.3c0.9,2.1,3.6,3.9,8.1,2.9
	l33.1-7L147.3,117.5L147.3,117.5z"/>
<path class="st1" d="M137.1,90.8c2.3-0.5,3.8-2.8,3.2-5.2c-0.5-2.3-2.8-3.8-5.2-3.2c-2.3,0.5-3.7,2.8-3.3,5.1
	C132.5,89.8,134.7,91.2,137.1,90.8L137.1,90.8z"/>
<polygon class="st1" points="123.4,74 124.9,83.9 128.2,84.6 132.1,75.2 123.4,74 "/>
<path class="st1" d="M115.5,86.4c2.4-0.4,4-2.6,3.6-4.9c-0.4-2.4-2.6-4-4.9-3.6c-0.2,0-0.3,0.1-0.5,0.1c-2.3,0.6-3.7,3-3,5.3
	C111.3,85.3,113.3,86.7,115.5,86.4z"/>
<path class="st3" d="M124.1,93.3c2.4-0.3,4-2.5,3.7-4.8c-0.3-2.4-2.5-4-4.8-3.7c-0.2,0-0.4,0.1-0.7,0.1c-2.3,0.7-3.6,3.1-2.9,5.4
	C120,92.3,122,93.6,124.1,93.3z"/>
<path class="st3" d="M116.3,85.1c2.4-0.4,3.9-2.6,3.6-5c-0.4-2.4-2.6-3.9-5-3.6c-0.2,0-0.3,0.1-0.5,0.1c-2.3,0.7-3.6,3.1-2.9,5.4
	C112.1,84.1,114.1,85.4,116.3,85.1L116.3,85.1z"/>
<path class="st3" d="M137.9,89.5c2.3-0.5,3.8-2.8,3.3-5.1c-0.5-2.3-2.8-3.8-5.1-3.3c-2.3,0.5-3.8,2.8-3.3,5.1
	C133.3,88.5,135.6,90,137.9,89.5C137.9,89.5,137.9,89.5,137.9,89.5z"/>
<polygon class="st3" points="124.3,72.6 125.8,82.4 129.1,83.1 133,73.7 124.3,72.6 "/>
<polygon class="st3" points="105.8,83.5 114.8,92.9 111.3,96.7 102.1,87.6 105.8,83.5 "/>
<path class="st3" d="M144.9,121l4-0.9l-0.8-3.1l-33.4,7.5c-1.6,0.2-3.1-0.6-3.7-2.1c-0.5-1.3,0.2-2.8,1.6-3.3c0,0,0,0,0,0l34.8-12.7
	V90.4l-43.6,9.9l-3.4-5.8l-7.9,1.7l1.9,3.4l3.1-0.7l11,19c-1.5,1.8-1.7,4.3-0.7,6.3c0.8,1.8,3.1,3.5,6.7,3.2c-1.1,1.1-1.5,2.6-1.1,4
	c0.3,2.2,2.4,3.7,4.6,3.4c0.1,0,0.2,0,0.3-0.1c2.4-0.5,3.9-2.8,3.5-5.2c-0.3-1.5-1.4-2.6-2.9-3.1l21.8-4.7c-1.8,1.6-2,4.3-0.4,6.1
	c1.6,1.8,4.3,2,6.1,0.4c1.8-1.6,2-4.3,0.4-6.1C146.4,121.7,145.7,121.2,144.9,121z"/>
<path class="st2" d="M110.4,168c-0.1,1.3-0.5,2.5-1,3.7c-0.6,1.3-2.2,3.8-3.7,4.1s-1.7-0.5-1.6-2c0.1-1.6,0.6-3.1,1.3-4.5
	c0.4-0.9,1-1.7,1.6-2.5c0.3-0.4,0.6-0.8,1-1.2C108.3,166.8,109.2,167.7,110.4,168z M88.9,160c-0.6,0.5-1.3,1-2,1.5
	c2-4,4.6-8.2,8.3-10.6c0.5-0.3,1.1-0.5,1.1-0.3c0,0.5-0.2,0.9-0.4,1.3c-0.6,1.1-1.3,2.1-2.1,3C92.4,156.9,90.8,158.6,88.9,160
	L88.9,160z M110.4,164.8c-0.2-0.6-0.4-0.6-0.5,0.1c0.1,0.4,0.4,0.8,0.7,1c0,0,0-0.1,0-0.1C110.5,165.4,110.5,165.1,110.4,164.8z
	 M171.7,156.8c0,0.2,0.3,0.1,0.4,0c0.8-0.7,1.5-1.7,2.3-2.4c0.4-0.4,0.9-0.7,1.3-1c0.2-0.1,0.4-0.3,0.7-0.3c0.2,0,0.4-0.1,0.5-0.1
	c0.9-0.3,1.3-1.2,1.1-2c-0.1-0.2-0.2-0.4-0.3-0.6c-0.8-0.9-2.1-0.9-3-0.2c-0.1,0.1-0.1,0.1-0.2,0.2c-0.5,0.5-0.9,1-1.3,1.6
	c-0.3,0.3-0.5,0.7-0.7,1c-0.7,1.1-1,2.5-0.8,3.8L171.7,156.8z M154.2,148c-3.9-0.1-7.8,0.5-11.4,1.9c-1.8,0.7-6.2,2.7-5.6,5.4
	c0.2,0.7,0.9,1,1.5,0.8c0.4-0.1,0.7-0.4,0.8-0.8l0,0c0.1-0.3,2-1.1,2.2-1.2c1.2-0.6,2.6-1.1,3.9-1.3c0.4-0.1,0.9-0.2,1.3-0.3
	c-0.3,0.4-0.6,0.8-0.8,1.2c-1.7,2.3-3.3,4.8-4.6,7.3c-0.4,0.8-0.8,1.6-1.2,2.4c-1.7,0-3.4,0.4-4.9,1.2c-0.8,0.5-1.1,1.6-0.5,2.4
	c0.1,0.2,0.3,0.4,0.5,0.5c0.9,0.6,1.9,0.9,2.9,0.8c-1,3-1.6,6.1-1.9,9.3c-0.1,1.9,2.5,1.8,3.1,0.7c1.6-3.5,2.9-7.1,4-10.7h1.5
	c2.5,0.5,5,1.2,7.3,2.2c2.4,1,4.6,2.3,6.7,3.8c2,1.7,4.2,3.1,6.5,4.4c1.6,0.7,3.5-0.9,2.3-2.6c-1.7-2.5-5.1-4.2-7.5-5.7
	c-2-1.3-4.2-2.3-6.4-3.2c3.2-0.6,6.3-1.7,9.2-3.1c2.5-1.2,6.7-4,6.4-7.5C169.4,149,158.2,148.1,154.2,148L154.2,148z M81.3,164.9
	c-0.8,0.5-1.7,0.8-2.7,1c-0.4,0-0.6,0.3-0.6,0.6c0,0.4,0.3,0.6,0.6,0.6c0.6,0.1,1.2,0.1,1.8,0.1c-0.2,0.4-0.3,0.9-0.5,1.3
	c-0.6,1.5-1.1,3-1.5,4.6c-0.5,1.6-0.8,3.3-0.7,5c0.2,0.9,1,1.5,1.8,1.6c2.7,0.5,3.9-2.7,5.2-4.1c2.4-2.7,6.9-5.7,8.8-6.1
	c0,0,0,0,0.1,0c-0.4,1.3-0.6,2.7-0.7,4c-0.2,3.5,1.8,6.9,5.4,5.9c2.1-0.6,1.6-1.9,0-2.1c-2.7-0.4-0.2-7.7,0-9.2
	c0.1-1.2-0.6-2.3-1.8-2.7c-1-0.2-2-0.2-3,0.1c-1.8,0.6-3.5,1.3-5.2,2.2c-1.4,0.8-2.7,1.7-3.9,2.7c-0.6,0.4-1.1,0.9-1.6,1.3
	c0.1-0.4,0.3-0.8,0.4-1.2c0.5-1.6,1-3.2,1.6-4.7c2.7-1.4,5.2-3.1,7.5-5c2.3-1.8,4.3-4.1,5.9-6.5c0.9-1.5,2.6-5.9-0.7-7.1
	c-2.6-0.9-5.3,1.8-6.8,3.2c-2.4,2.4-4.5,5.1-6.2,8.1c-1.2,2-2.3,4.2-3.2,6.4L81.3,164.9z M75.8,173.6c-0.7-4.3-6-5.5-9.1-5.8
	c-2.5-0.2-5-0.1-7.4-0.1c-0.7,0-7.4,0.1-6.7-1.6c0.7-2.3,2.9-4.2,4.8-5.5c2.1-1.7,4.5-3,7-4c3.2-1.4,6.6-2.1,10.1-2
	c1.3,0.1,3.4,0.1,4,1.9c0.3,1.6-0.2,3.3-1.3,4.5l0,0c-0.3,0.5-0.2,1.1,0.3,1.4c0.3,0.2,0.7,0.2,1,0c2.8-1.2,5.7-6.5,2.1-9.8
	s-10-2.3-13.5-1.5c-5.3,1.2-10.2,3.5-14.5,6.9c-3,2.4-8.4,8.1-3,12.6c2.1,1.7,5.1,2,7.3,2c2.7,0,5.3,0,8,0c1.6,0,4.1-0.1,5.5,1.5
	c0,0,0.2,0.4,0.2,0.3c0.2,0.7,0.1,0.3,0,1c-0.3,1.5-2.3,3.5-3.9,4.7c-2.4,1.9-5.1,3.5-7.9,4.7c-1.5,0.7-3.1,1.2-4.7,1.6
	c-1.7,0.4-3.4,0.6-5.1,0.5c-1.1-0.1-3-0.5-3.7-1.7c-0.1-0.3-0.4-0.4-0.7-0.5c-2.1,0-1.3,2.9,0.4,3.7c3.6,2.7,9.6,1.1,12.6,0.3
	c5.9-1.7,11.9-4.5,16-8.9c1.7-1.6,2.6-3.9,2.4-6.2L75.8,173.6z M176.2,184.2c-2.5-2.1-6.2-2.3-9-2.9c-4.4-0.7-8.8-1.1-13.2-1.1
	c-9.2-0.1-18.3,0.6-27.4,2.1c-3.6,0.5-7.2,1.2-10.8,1.9c0.8-3.2,1.5-6.6,2.5-9.4c0.5-1.5,1.1-3,1.6-4.5c0.5-0.7,1-1.4,1.6-2
	c1.2-1.3,2.7-2.4,4.3-3c3.2-1.1,2.7,2.9,2.1,4.4c-1.3,3.6-4.7,6-8.4,7.2c-1.3,0.5-1.2,2.5,1.1,2.3c5.1-0.2,9.6-3.4,11.5-8.1
	c1-2.1,0.9-4.5-0.1-6.6c-1.2-2.3-3.9-3.3-6.3-2.6c-1.7,0.4-3.2,1.1-4.6,2.1l0,0c-0.4-0.4-1-0.6-1.6-0.4c-1.9,0.8-3.9,1.5-6,2.1
	c0-0.2-0.1-0.3-0.1-0.5c-0.6-2.4-3.2-4.2-4.9-2.7c-0.2,0.2-0.4,0.4-0.5,0.7c-1.2,0.2-2.4,0.6-3.4,1.3c-2.7,2.2-4.4,5.4-4.8,8.9
	c-0.6,2.7,1.2,5.3,3.9,5.9c0.3,0.1,0.6,0.1,0.9,0.1c4,0,6.4-2.6,8-6c0.8-1.8,1.2-3.8,1.1-5.8c1.2-0.3,2.4-0.6,3.5-1
	c-0.2,0.4-0.4,0.7-0.5,1.1c-0.7,1.3-1.3,2.8-2,4.3c-1.9,4.3-3.5,8.8-4.6,13.4c-3.2,0.7-6.4,1.4-9.6,2.2c-4.2,1-8.4,2-12.6,3.1
	c-2.1,0.6-4.1,1.2-6.2,1.6c-0.7,0.1-1.4,0.2-2.1,0.2c-0.4,0-0.7-0.2-0.7-0.4c0.2-0.4,0.1-0.6-0.5-0.6c-0.9-0.1-1.7,0.3-2.1,1.1
	c-0.3,0.6-0.3,1.2-0.1,1.8c1.3,3.2,6.4,2,8.3,1.5c4.2-0.9,8.3-2,12.4-3c3.9-0.9,7.9-1.9,11.8-2.8v0.1c-0.9,2.5,2.3,3.4,3.8,2.5
	c0.7-0.5,1.2-1.2,1.4-2c0.3-0.7,0.6-1.3,0.8-2c2.4-0.6,4.8-1.2,7.3-1.7c8.7-1.9,17.6-3.2,26.5-3.8c4.6-0.3,9.2-0.3,13.8,0.2
	c2.2,0.2,4.5,0.6,6.6,1.1c1.3,0.3,3.3,0.5,4.4,1.6C174.8,188,178,185.6,176.2,184.2L176.2,184.2z M188.9,175.2
	c-6.1,0.2-3.8-9.3-3.2-12.4c0.5-2.1,1.2-4.2,2-6.2c2.4-0.6,4.8-1,7.2-1.3c1.5-0.3,3-0.3,4.4-0.1c1,0.4,2.1,0.3,3-0.2
	c0.7-0.4,1-1.3,0.6-2.1c-0.9-1.4-2.8-1.7-4.1-1.7c-2.5,0-4.9,0.3-7.4,0.8l-1.8,0.4l0.3-0.5c0.7-1.3,1.7-2.8,1.4-4.6
	c-0.2-1.2-1.7-1-2.2-0.5c-1.7,2.1-3.2,4.4-4.3,6.9h-0.3c-0.6,0.2-7.3,2.5-7.4,1.6c-0.1-0.6-1-0.7-1.3-0.4c-1.5,1.1-0.3,3,1.5,3.6
	c1.8,0.4,3.7,0.2,5.4-0.5l-0.1,0.2c-2,2.7-4.2,5.2-6.6,7.4c-1,0.9-2,1.7-3,2.5c-0.5,0.4-1,0.8-1.6,1.1l-0.2,0.1
	c-0.9-2,0.4-5.4,1.2-7l0.1-0.2c0-0.1,0.1-0.1,0.1-0.2c0.2-0.4,0.1-1-0.3-1.2c0,0,0,0,0,0c-0.3-0.4-0.9-0.5-1.3-0.2
	c-3,1.5-4.8,5.8-4.3,9.6c0.3,2.1,2.1,3.6,4.2,3.6c2.3,0,4-1.5,5.5-2.9c1.3-1.1,2.5-2.4,3.6-3.7c-0.6,2.4-0.3,4.9,0.7,7.1
	c1.8,3.8,6.6,3.7,8.4,2.8C190.2,177,190.3,175.2,188.9,175.2L188.9,175.2z M192.3,171.1c1.5,0,2.9-0.3,4.3-0.7
	c2.7-0.6,5.1-2.1,6.7-4.3c1.2-1.7,0.8-4-0.9-5.2c-0.1-0.1-0.3-0.2-0.4-0.3c-2.2-1-4.7-1-6.9,0c-2.3,0.9-4.3,2.5-5.8,4.5
	c-1.3,2-2.4,5.8,0.1,8.4c4,4.3,11.6,2.6,14.2-0.7c0.8-1-0.9-1.9-1.7-1.3c-2.5,1.6-5.7,1.9-8.5,0.6
	C193,171.9,192.6,171.5,192.3,171.1L192.3,171.1z M154.4,152c1.5,0.1,12.6,1.6,9.9,4.8c-3.3,4-8.6,5.4-13.7,6.3
	c-1.7,0.3-3.5,0.5-5.2,0.7h-0.1c1-2.2,2-4.4,3.2-6.5c1.1-1.6,2-3.4,2.7-5.2C152.2,152,153.3,152,154.4,152L154.4,152z M192.3,169
	c0.7-1.7,1.9-3.2,3.4-4.2c0.9-0.7,2.1-1.2,3.2-1.3c2-0.1,1.3,1.3,0.6,2.4C197.7,167.8,195.1,168.9,192.3,169L192.3,169z"/>
<path class="st2" d="M201.4,180.5c0-2.4,1.9-4.4,4.4-4.5c2.4,0,4.4,1.9,4.5,4.4s-1.9,4.4-4.4,4.5c0,0,0,0,0,0
	c-2.4,0-4.4-1.9-4.4-4.3C201.4,180.5,201.4,180.5,201.4,180.5z M205.8,184.1c2,0,3.7-1.6,3.7-3.6c0-2-1.6-3.7-3.6-3.7
	c-2,0-3.7,1.6-3.7,3.6c0,0,0,0,0,0.1c-0.1,1.9,1.4,3.6,3.4,3.7C205.7,184.1,205.8,184.1,205.8,184.1z M204.9,183h-0.8v-5h1.9
	c1.2,0,1.8,0.4,1.8,1.4c0,0.7-0.6,1.3-1.3,1.3l1.4,2.2h-0.9l-1.3-2.2h-0.9L204.9,183L204.9,183z M205.8,180.2c0.6,0,1.2,0,1.2-0.8
	c0-0.8-0.6-0.7-1.1-0.7h-1v1.5L205.8,180.2z"/>
</svg>
