<?xml version="1.0" encoding="utf-8"?>
<!-- Generator: Adobe Illustrator 21.1.0, SVG Export Plug-In . SVG Version: 6.00 Build 0)  -->
<svg version="1.1" id="Layer_1" xmlns="http://www.w3.org/2000/svg" xmlns:xlink="http://www.w3.org/1999/xlink" x="0px" y="0px"
	 viewBox="0 0 250 250" style="enable-background:new 0 0 250 250;" xml:space="preserve">
<title>Mass</title>
<path d="M130.1,118.2c0.1,13-9.9,21.1-21,21.9c-5.7,0.5-11.3-1-16-4.3c-6.3-4.5-9.1-13.1-7.3-21.1c2.3-10.1,11.5-16.5,21.5-17
	c5.2-0.5,10.4,0.9,14.7,3.9C127.5,105.6,130,111.4,130.1,118.2z M110.9,135c5.1-0.3,9.5-3.4,11.6-8c4.1-8.9-0.7-19.8-10-23.3
	c-7.8-2.9-16.4,0.3-19.8,7.3C88.1,120.8,95.4,135.3,110.9,135L110.9,135z"/>
<path d="M223.3,97.3c11.2-0.6,20.7,7.9,21.3,19.1c0,0.8,0,1.6,0,2.4c-0.6,9.7-6.1,17.1-15.4,19.8c-8.4,2.5-16.5,1.3-23.3-4.7
	c-5.2-4.7-6.9-11-5.8-17.9c1.6-10.9,11-18.9,22-18.8L223.3,97.3z M238.6,120.2c0.1-7.9-5.1-14.9-12.6-17.2
	c-6.9-2.2-14.8,0.8-18.1,6.8c-5.5,10.2,1.9,23.6,13.7,24.8C231.2,135.5,238.8,128.7,238.6,120.2z"/>
<path d="M20.1,139.2c-4.4-0.1-8.7-1.4-12.4-3.7c-2-1.3-3-3.8-2.5-6.1c0.3-1,0.7-2.1,1.9-2.3c1.2-0.3,2.4,0.1,3.1,1.1
	c1.4,2.3,3.4,4.2,5.7,5.6c3.3,1.8,7.3,1.7,10.5-0.2c3.2-1.8,5.5-4.5,5.1-8.5c-0.4-3.1-2-5.8-4.3-7.8c-4-3.8-8.9-6.4-13-10
	c-4.1-3.6-5.9-8.4-4.3-13.1c1.8-4.8,6.4-8.1,11.6-8.3c3.2,0,6.3,0.5,9.3,1.5c2.2,0.8,3.6,2.9,3.4,5.2c-0.1,1-0.3,2-1.3,2.5
	c-1.1,0.5-2.3,0.3-3.1-0.6c-0.9-0.8-1.7-1.7-2.5-2.5c-1.4-1.4-3.2-2.2-5.1-2.3c-4.5-0.1-7.1,3.9-5,7.9c1.6,2.9,3.9,5.3,6.7,7
	c4.7,3,9.3,6.1,12.3,11.2c4.4,7.2,2.1,16.6-5.2,21c-1,0.6-2.1,1.1-3.2,1.5C25.2,139,22.6,139.3,20.1,139.2z"/>
<path d="M44.5,118.3c0-6.2,0-12.4,0-18.7c0-1,0.1-1.5,1.3-1.3c1.2,0.2,2.4,0.1,3.5-0.1c1.7-0.3,1.9,0.4,1.8,1.8c0,4.5,0,9.1,0,13.6
	c0,1.3,0.4,1.8,1.8,1.8c5.8,0,11.5-0.2,17.3,0.2c1.2,0.1,1.9-0.2,1.9-1.7c-0.1-4.7,0-9.3,0-14c0-1.3,0.3-1.8,1.7-1.6
	c1,0.2,2,0.2,3,0c1.9-0.4,2,0.5,2,2c0,12.3,0,24.5,0,36.8c0,1.2-0.3,1.9-1.7,1.7c-1.6-0.2-3.6,0.6-4.7-0.3c-1.1-0.9-0.3-3.1-0.3-4.6
	c-0.1-4-0.1-8.1,0-12.1c0-1.2-0.2-1.7-1.5-1.7c-6,0-11.9,0-17.9,0c-1.4,0-1.6,0.7-1.6,1.9c0,5,0,9.9,0,14.9c0,1.6-0.5,2.1-2,1.9
	c-1.6-0.2-3.5,0.6-4.5-0.4c-1-1-0.3-2.9-0.3-4.3C44.5,128.7,44.5,123.5,44.5,118.3L44.5,118.3z"/>
<path d="M176.1,112.2c4.5-4.3,8.8-8.4,13-12.5c0.6-0.7,1.5-1.1,2.4-1.1c1.8,0,3.7,0,5.8,0c-1.3,1.7-2.8,3.2-4.5,4.5
	c-3.8,3.7-7.7,7.2-11.6,10.8c-0.7,0.5-0.9,1.5-0.5,2.2c0.1,0.1,0.2,0.2,0.3,0.3c3.9,5.3,7.8,10.7,11.7,16c0.7,0.9,1.5,1.8,2.4,2.5
	c1.1,1.1,2.7,1.5,4.1,0.9c0.7-0.3,1.3-0.2,1.7,0.5c0.4,0.8,0,1.3-0.8,1.8c-4.2,2.2-9.3,1.1-12.2-2.7c-3.9-5.3-7.8-10.6-11.4-16.1
	c0-0.1-0.2,0-0.7-0.2c0,2.7,0,5.2,0,7.8c0,3.5-0.1,7.1,0,10.7c0,1-0.2,1.5-1.3,1.3c-1.4-0.1-2.7-0.1-4.1,0c-1.1,0.1-1.2-0.4-1.2-1.3
	c0.1-12.5,0.1-25,0.1-37.5c0-1.2,0.2-1.8,1.6-1.7c1.1,0.1,2.2,0.1,3.3,0c1.3-0.2,1.7,0.4,1.7,1.7c-0.1,3.5,0,7,0,10.5
	C175.9,111,176,111.4,176.1,112.2z"/>
<path d="M136.4,118.9c0-6.1,0-12.2,0-18.3c0-1.5,0.4-1.9,1.9-1.9c5,0,10-0.5,14.9,0.7c3.6,0.9,6.9,2.3,8.9,5.6
	c3.1,5.4,1.3,12.3-4.2,15.5c-0.6,0.4-1.3,0.7-1.9,0.9c-2.7,0.9-5.5,1.1-8.3,0.3c-0.7-0.1-1.3-0.4-1.9-0.8c-0.7-0.4-1-1.4-0.6-2.1
	c0,0,0,0,0,0c0.4-0.8,1.2-0.6,1.8-0.2c3.3,1.7,7.3,0.4,9-2.8c0.1-0.2,0.2-0.3,0.2-0.5c1.9-4.7,0.3-9-4-11c-2.6-1.1-5.4-1.5-8.2-1.2
	c-0.9,0.1-1.2,0.4-1.2,1.3c0,11.1,0,22.1,0,33.2c0,1.1-0.2,1.5-1.3,1.3c-1.3-0.1-2.6-0.1-3.9,0c-0.9,0-1.2-0.3-1.2-1.3
	c0-6.3,0-12.6,0-18.8L136.4,118.9z"/>
<path d="M53.6,151.3c-0.9,1.7-1.5,3-2.1,4.2c-0.3,0.5-0.7,1.1-1.4,0.9c-0.8-0.2-0.7-0.9-0.7-1.5c0.1-1-0.1-2-0.4-2.9
	c-0.8,1.6-1.6,3.1-2.4,4.7c-0.3,0.5-0.2,1.6-1.2,1.3c-1-0.3-0.5-1.2-0.4-1.8c0.2-1.9,0.5-3.8,0.7-5.7c0-0.3,0.2-0.6-0.2-0.8
	c-0.7,0-0.5,1.2-1.6,1.2c-0.2-1.2,0.4-2.5,1.5-3.1c0.8-0.5,1.5,0,1.5,0.9c0,0.9-0.1,2.2-0.1,3.3c0,0.5-0.4,1,0.1,1.6
	c0.8-1.4,1.6-2.8,2.4-4.2c0.4-0.6,0.6-1.6,1.6-1.2c1,0.4,0.3,1.2,0.3,1.8c-0.1,1.3-0.3,2.5-0.4,3.8l0.5,0.1c0.8-1.6,1.5-3.2,2.3-4.7
	c0.3-0.6,0.4-1.7,1.3-1.6c0.9,0.2,0.4,1.2,0.4,1.9c-0.1,1.6,0,3.2,0.2,4.8c0.2,0.9,0.2,1.9,1.5,2c0.3,0,0.5,0.3,0.5,0.6
	c0,0,0,0.1,0,0.1c0,0.4-0.3,0.5-0.6,0.6c-1.2,0.4-2,0-2.2-1.2C54.1,154.8,53.9,153.3,53.6,151.3z"/>
<path d="M112.4,150.4c-0.9,1.4-1.6,2.5-2.3,3.7c-0.3,0.7-1.1,1.1-1.9,0.9c-0.9-0.3-0.5-1.1-0.6-1.8c-0.1-0.6,0.3-1.5-0.1-2.4
	c-1.4,1.3-1.9,3.1-3,4.4c-0.4,0.4-0.5,1.3-1.3,1.1c-0.8-0.3-0.5-1.1-0.4-1.7c0.3-1.8,0.5-3.5,0.7-5.3c-0.2,0-0.3-0.1-0.5-0.1
	c-0.6,0.1-0.5,1.5-1.3,0.8s0.1-1.3,0.5-1.7c0.4-0.7,1.2-1,2-0.8c0.9,0.3,0.6,1.1,0.5,1.8c-0.1,1.1-0.2,2.3-0.3,3.9
	c1.4-1.6,1.9-3.3,3.2-4.4c0.5-0.4,0.9-1,1.6-0.7c0.9,0.4,0.2,1.1,0.1,1.6c-0.3,1.2-0.3,2.4,0,3.6c1.2-1.8,2.2-3.4,3.2-5
	c0.3-0.4,0.4-1,1-0.9c0.6,0.2,0.4,0.9,0.5,1.4c0,1.2,0,2.5,0.1,3.7c0.1,1.2,0,2.5,1.8,2.5c0.2,0,0.4,0.2,0.4,0.4c0,0,0,0.1,0,0.1
	c0,0.3-0.3,0.6-0.6,0.6c-1.3,0.2-2.3-0.1-2.6-1.5C112.7,153.1,112.6,152,112.4,150.4z"/>
<path d="M122.7,152.5c-1,1.3-1.5,2.7-2.7,3.6c-0.5,0.4-1.1,0.9-1.9,0.5c-0.7-0.3-0.7-1-0.8-1.6c-0.2-1.7-0.3-3.3-0.3-5
	c0-0.7,0.2-1.6,1-1.5s0.4,1,0.4,1.5c0,1.3,0,2.7,0,3.9c0,0.3-0.1,0.8,0.3,1c0.4,0.2,0.7-0.2,0.9-0.5c1.3-1.6,2.6-3.2,2.3-5.5
	c-0.1-0.6-0.1-1.3,0.7-1.4c0.8-0.1,0.7,0.7,0.8,1.3c1,3.4,1.4,6.9,1.3,10.5c-0.4,4.8-3.7,6.4-7.6,3.8c-1-0.7-1.8-1.6-2.3-2.7
	c-0.2-0.5-0.5-1.1,0-1.3c0.5-0.3,0.8,0.3,1,0.7c0.7,1.5,2.1,2.7,3.7,3c2.1,0.5,3,0,3.6-2C123.7,158.1,123.5,155.2,122.7,152.5z"/>
<path d="M63.3,152c-0.4,1.7-1.1,3.3-1.9,4.8c-0.4,0.6-0.7,1.3-1.5,1c-0.9-0.3-1.5-0.6-1.5-1.6c-0.2-2-0.4-4.1-0.6-6.1
	c0-0.7,0.1-1.5,1-1.5s0.4,0.9,0.4,1.3c0.1,2.1-0.2,4.3,1.2,6.7c1.2-2.7,2.5-4.9,2.2-7.7c0-0.6-0.5-1.3,0.4-1.5
	c0.9-0.2,0.8,0.7,1,1.3c1.2,3.4,1.6,7.1,1.3,10.7c-0.3,3.7-1.7,4.9-5.4,4.8c-1-0.1-1.9-0.2-2.9-0.4c-0.6-0.1-1.1-0.3-0.9-1.1
	s0.7-0.6,1.2-0.4c0.2,0.1,0.5,0.2,0.7,0.3c4.6,1.2,6.1-0.3,6-4.2C64.1,156.2,63.9,154.1,63.3,152z"/>
<path d="M192.3,155.8c1.4-1.9,2.4-4.1,2.9-6.5c0.1-0.7,0-1.5,0.9-1.6c0.9,0,0.7,0.9,0.8,1.5c0.9,3.2,1.2,6.6,0.9,10
	c-0.5,4.8-3.8,4.9-7,3.8c-0.6-0.3-1.1-0.9-1.2-1.6c-0.1-0.4-0.1-0.8,0.3-1c0.4-0.2,0.6,0.2,0.8,0.4c0.3,0.5,0.8,0.9,1.3,1.2
	c2.1,1,3.7,0.4,4.3-1.9c0.5-2.7,0.5-5.6-0.2-8.3c-1.2,0.8-1.1,2.1-1.8,3c-0.7,0.9-1,2.7-2.5,2.3c-1.6-0.3-0.9-2-1.1-3
	c-0.2-1.8-0.1-3.7-0.2-5.6c0-0.7,0.1-1.5,1-1.4c0.9,0.1,0.4,0.9,0.3,1.3C191.7,150.9,191.8,153.4,192.3,155.8z"/>
<path d="M152.4,152.4c-0.9,1.8-1.6,3.1-2.3,4.4c-0.4,0.7-1,1.4-1.9,1.2c-0.9-0.2-1-1.1-1.1-2c-0.1-1.5-0.2-3.1-0.2-4.7
	c0-0.7,0.1-1.5,1-1.5c0.9,0.1,0.4,0.9,0.4,1.3c0,1.4,0,2.9,0,4.3c0,0.3-0.1,0.7,0.3,0.8c0.4,0.1,0.7-0.3,0.8-0.6
	c1-1.8,1.7-3.7,2.2-5.7c0.1-0.5,0-1,0.8-1.1c0.8-0.1,0.8,0.5,0.9,1c1,3.5,1.3,7.1,0.7,10.7c-0.3,1.6-1,3.1-2.7,3.4
	c-2.1,0.6-4.3,0-5.9-1.4c-0.5-0.5-0.8-1.3-0.2-1.8s0.8,0.5,1.1,0.9c1.1,1.7,2.9,1.6,4.5,1.3c1.7-0.2,1.8-1.5,2.1-2.7
	C153.3,157.6,153.1,155,152.4,152.4z"/>
<path d="M190.1,157.2c-1.7,1.5-2.5,1.4-3.2-0.1c-0.5-1.7-0.9-3.4-1.2-5.1c-0.6,1.1-1.2,2.2-1.9,3.3c-0.4,0.6-0.9,1.2-1.6,1
	c-0.8-0.2-0.7-1.1-0.7-1.7c0-0.9-0.1-1.8-0.4-2.7c-0.9,1.6-1.9,3.2-2.8,4.9c-0.3,0.5-0.5,0.9-1.1,0.8s-0.5-0.8-0.5-1.3
	c0.2-2,0.5-4,0.8-5.9c0.1-0.5,0.2-1.1,0.9-1c0.6,0.1,0.4,0.7,0.4,1.1c-0.1,1-0.3,2.1-0.5,3.3c1.1-0.5,1.3-1.5,1.8-2.2
	c0.5-0.7,1.1-1.5,1.7-2.2c0.2-0.4,0.7-0.6,1.1-0.4c0.5,0.2,0.3,0.7,0.3,1.1c-0.3,1.4-0.4,2.8-0.3,4.1c1.1-1.6,2.1-3.2,2.9-4.9
	c0.3-0.5,0.5-1.2,1.2-1c0.7,0.2,0.5,0.9,0.5,1.4c0,1.6,0,3.2,0.1,4.8C187.6,156.1,187.8,157.4,190.1,157.2z"/>
<path d="M85.2,162.8c-1.3,0-1.7-1-2.1-2c-0.9-2.6-1.3-5.3-1.2-8c0-1,0.6-3.1-1.8-1.6c-0.2,0.2-0.6,0.1-0.7-0.2c0,0,0-0.1,0-0.1
	c-0.1-0.3,0-0.6,0.3-0.7c0,0,0,0,0.1,0c2.4-0.6,2.2-2.5,2.3-4.3c0-1.5,0.7-2.8,1.8-3.7c0.5-0.4,1.2-0.7,1.7,0c0.4,0.7-0.1,1-0.7,1.3
	c-0.9,0.4-2,3.7-1.6,4.7c0.3,0.6,0.7,0.3,1.1,0.2c0.8-0.2,1.6-0.4,2.3-0.5c0.3,0,0.8-0.1,0.9,0.4c0.1,0.5-0.3,0.6-0.7,0.8h-0.2
	c-3.4,1-3.4,1-3.3,4.5c0,2.3,0.3,4.6,0.9,6.8c0.2,0.7,0.4,1.5,1.4,1.5c0.4,0,1,0,0.8,0.7C86.2,163.1,85.7,162.8,85.2,162.8z"/>
<path d="M206.5,149.2c1,1.5,2.1,3,3.3,4.3c0.8,1,2.1,2,1.3,3.4s-2.5,1.2-3.9,0.8c-1.4-0.4-2.9-0.9-3.3-2.7c-0.1-0.5-0.2-1.1,0.4-1.3
	c0.6-0.2,0.7,0.5,0.8,0.9c0.4,1,3.2,2.5,4.2,2.1c1-0.4,0.4-1.1,0-1.6c-1.2-1.5-2.4-3-3.7-4.5c-0.6-0.7-1.2-1.5-0.6-2.3
	c0.5-0.9,1.5-0.7,2.4-0.5c1,0.1,1.9,0.6,2.7,1.3c0.3,0.4,0.7,0.8,0.2,1.3c-0.4,0.5-0.9,0-1.2-0.3
	C208.4,149.6,207.8,148.8,206.5,149.2z"/>
<path d="M142.5,144.5c-0.1,0.8-0.1,1.3-0.2,1.8c-0.2,2.6-0.2,2.6,2.2,2.1c0.5-0.1,0.9-0.2,1.1,0.3s-0.4,0.7-0.8,0.9
	c-0.9,0.3-2.1,0-2.5,0.9s-0.1,2.3-0.1,3.5c0,0.3,0,0.5,0.1,0.7c0.1,0.6,0,1.3,0.8,1.5s1.2-0.3,1.6-1c0.2-0.3,0.3-0.8,0.8-0.5
	c0.5,0.3,0.3,0.7,0.1,1c-0.4,1.1-1.5,1.8-2.7,1.7c-1.2,0-1.5-0.9-1.6-1.9c-0.1-0.8-0.3-1.6-0.3-2.4c0-1.1,0.1-2.4-1.6-1.2
	c-0.2,0.2-0.6,0.1-0.7-0.1c0,0-0.1-0.1-0.1-0.1c-0.1-0.3,0-0.6,0.2-0.7c0,0,0.1,0,0.1,0c2.8-0.8,2-3.1,2.1-5c0-0.4,0-0.9,0-1.3
	c0-0.6,0.4-1,0.9-1.1c0,0,0.1,0,0.1,0C142.8,143.7,142.5,144.3,142.5,144.5z"/>
<path d="M223.1,149.5c2-0.1,3.7,1.4,3.8,3.4c0,0.2,0,0.4,0,0.6c0.1,2.6-1.8,4.7-4.3,4.9c-2.1,0-3.3-1.3-3.3-4
	C219.1,151.4,220.6,149.6,223.1,149.5z M220.4,153.9c0,1.9,0.9,3.3,2.5,3.3c1.5-0.2,2.6-1.5,2.7-3c0-1.7-0.9-3.3-2-3.3
	c-1.5-0.2-2.9,0.8-3.2,2.3C220.3,153.4,220.3,153.6,220.4,153.9L220.4,153.9z"/>
<path d="M134.2,150.1c1,1.9,2.7,2.8,3.9,4.2c0.6,0.7,1.7,1.3,1.1,2.5s-1.7,1.2-2.7,1.2c-1.3,0-2.6-0.4-3.7-1.1
	c-0.6-0.4-0.9-1-0.9-1.7c0-0.4,0.1-0.8,0.5-0.9s0.5,0.3,0.6,0.6c0.9,1.5,2.6,2.3,4.3,1.9c1-0.3,0.5-0.8,0.1-1.2
	c-1.3-1.3-2.7-2.5-3.9-3.7c-0.6-0.6-1.5-1.3-1-2.2c0.5-0.9,1.5-0.9,2.5-0.7c0.8,0.1,1.6,0.4,2.3,0.8c0.5,0.3,0.8,0.7,0.5,1.2
	c-0.3,0.5-0.8,0.3-1.2-0.1C136,150.2,135.1,149.9,134.2,150.1z"/>
<path d="M213.4,151.5H213c-0.6,0-1.1,1.3-1.7,0.5c-0.5-0.8,0.5-1.2,1.2-1.4c1.1-0.4,1-1.3,1.1-2.1c0-0.8-0.1-2,0-3c0-0.6,0.5-1,1-1
	c0,0,0.1,0,0.1,0c0.7,0.1,0.5,0.7,0.4,1.2c0,0.2-0.1,0.5-0.1,0.7c-0.4,2.7-0.4,2.7,2.2,2.1c0.4-0.1,0.9-0.3,1,0.3
	c0.1,0.6-0.4,0.7-0.8,0.9c-2.8,1.1-2.8,1.1-2.7,4.2c0,0.4,0,0.9,0.1,1.3c0.1,0.5,0.1,1,0.7,1.2c0.5,0.2,1.1-0.2,1.3-0.7
	s0.6-1.1,1.1-0.7s0,1-0.3,1.4c-0.6,0.9-1.6,1.3-2.6,1.2c-1.1-0.2-1.2-1.2-1.3-2C213.6,154.3,213.5,152.9,213.4,151.5z"/>
<path d="M159.7,153.9c0-1.8,0.5-3.6,1.3-5.3c0.7-1,1.7-1.8,2.8-1.3c1.1,0.5,0.6,1.8,0.3,2.8c-0.4,1.2-1.3,2.2-2.3,2.8
	c-0.7,0.3-0.9,1.1-0.6,1.8c0,0,0,0.1,0.1,0.1c0.3,0.9,1.1,0.9,1.9,0.7c0.8-0.2,1.6-0.7,2.2-1.3c0.3-0.3,0.7-0.6,1.1-0.1
	c0.4,0.5,0,0.8-0.4,1c-0.7,0.5-1.4,1-2.2,1.4C161.5,157.7,159.7,156.4,159.7,153.9z M161.8,151.2c0.9-0.3,0.9-1.3,1.3-2
	c0.2-0.3,0.1-0.9-0.3-0.8c-1,0.3-0.9,1.3-1.3,2.1c-0.2,0.2-0.1,0.5,0.1,0.7C161.6,151.2,161.7,151.3,161.8,151.2L161.8,151.2z"/>
<path d="M235.1,153.2c0.1-1.6,0.6-3.1,1.5-4.4c0.5-1,1.6-1.5,2.7-1c1.1,0.6,0.6,1.8,0.2,2.7c-0.5,1.2-1.3,2.2-2.3,2.9
	c-0.7,0.4-1,1.2-0.6,1.9c0,0.1,0.1,0.1,0.1,0.2c0.5,0.9,1.3,0.8,2.1,0.4c0.7-0.4,1.4-0.8,2-1.3c0.3-0.2,0.6-0.5,1-0.1s0,0.6-0.1,0.8
	c-1.3,1.4-3.1,2.1-5,1.9C235.6,156.9,235,155.7,235.1,153.2z M237,151.9c0.8-0.7,1.3-1.6,1.5-2.7c0-0.1-0.3-0.3-0.4-0.2
	c-0.9,0.6-1.4,1.6-1.4,2.6C236.7,151.6,236.8,151.7,237,151.9L237,151.9z"/>
<path d="M89.2,157.3c-1,0.2-2-0.4-2.2-1.3c0-0.1,0-0.2,0-0.3c-0.5-2.4,0-4.9,1.3-6.9c0.5-1,1.8-1.3,2.8-0.8c1,0.6,0.5,1.7,0.1,2.5
	c-0.5,1.2-1.3,2.2-2.4,3c-0.7,0.5-0.9,1.4-0.4,2.1c0,0,0,0,0,0c0.4,0.8,1.2,0.5,1.8,0.4c0.8-0.3,1.6-0.7,2.2-1.3
	c0.3-0.2,0.7-0.7,1.1-0.2c0.4,0.5-0.1,0.8-0.4,1.1C92.1,156.6,90.7,157.3,89.2,157.3z M90.1,148.5c-1.1,1.2-1.8,2.1-1.7,3.6
	C89.6,151.3,90.2,150,90.1,148.5L90.1,148.5z"/>
<path d="M71.9,149.6c0-1.4,0-2.9,0-4.3c0-0.8,0.4-1.6,1.3-1.4c0.9,0.2,0.4,1,0.3,1.6c-0.6,3.6-0.6,7.3,0,11c0.1,0.8,0.2,1.6,1.2,1.9
	c0.3,0.1,0.6,0.3,0.4,0.7c-0.2,0.4-0.5,0.4-0.8,0.3c-1.6-0.1-1.9-1.4-2.1-2.7C71.9,154.3,71.7,151.9,71.9,149.6z"/>
<path d="M229.9,153c0.5-1.7,1.5-3.2,2.8-4.4c0.5-0.5,1.2-0.7,1.9-0.7c0.7,0.1,0.9,0.7,0.8,1.2c0,0.3-0.3,0.6-0.6,0.6
	c-0.1,0-0.3,0-0.4-0.1c-0.9-0.7-1.2,0-1.6,0.5c-1.5,1.5-2.1,3.8-1.6,5.9c0.1,0.5,0.3,1.2-0.3,1.5s-1-0.5-1.1-1.1
	c-0.5-2-1.3-3.9-2.4-5.6c-0.3-0.3-0.3-0.8,0-1.1c0,0,0.1-0.1,0.1-0.1c0.3-0.3,0.8-0.2,1.1,0.1c0.1,0.1,0.1,0.2,0.1,0.2
	C229,150.8,229.4,151.8,229.9,153z"/>
<path d="M156,148.6c0-1.1,0-2.2,0-3.4c0-0.7,0.1-1.5,1.1-1.5c1.2,0.1,0.6,1,0.5,1.6c-0.4,2.8-0.4,5.6-0.2,8.4c0,1,0.1,2.1,1.2,2.8
	c0.3,0.1,0.5,0.4,0.3,0.7c-0.2,0.2-0.5,0.3-0.8,0.3c-0.8-0.2-1.4-0.8-1.5-1.7C156.1,153.4,155.9,151,156,148.6z"/>
<path d="M75.9,152.1c0-0.9,0.1-1.8,0.2-2.7c0.1-0.6,0.5-1.1,1.2-0.9c0.7,0.2,0.4,0.8,0.3,1.3c-0.4,1.6-0.5,3.2-0.2,4.8
	c0,0.6,0.2,1.1,0.6,1.5c0.3,0.3,0.9,0.4,0.5,0.9c-0.2,0.2-0.5,0.3-0.8,0.3c-0.5,0.1-1-0.3-1.1-0.8C76,155.2,75.8,153.7,75.9,152.1z"
	/>
<path d="M95.7,157.4c-0.5,0-1-0.2-1-0.9c0-0.6,0.3-1.2,1.1-1.2c0.5,0,0.9,0.4,0.9,0.9c0,0,0,0,0,0.1c0,0.5-0.3,1-0.9,1
	C95.8,157.4,95.7,157.4,95.7,157.4z"/>
<path d="M245,156.9c0,0.5-0.5,0.8-1.1,0.7c-0.5,0-0.8-0.4-0.8-0.8c0-0.1,0-0.1,0-0.2c0.1-0.5,0.3-1,0.9-1
	C244.7,155.6,245,155.9,245,156.9z"/>
<path d="M77.6,145.7c0,0.5,0,1.2-0.8,1.2c-0.8,0-0.7-0.6-0.6-1.1c0-0.5,0-1.2,0.7-1.3S77.6,145.2,77.6,145.7z"/>
<path d="M169.3,156.3c0,0.9-0.4,1.3-1.1,1.2c-0.5,0-0.9-0.4-0.9-0.9c0,0,0-0.1,0-0.1c0-0.6,0.4-1.1,1.1-1
	C168.9,155.5,169.3,155.9,169.3,156.3z"/>
</svg>
