<?xml version="1.0" encoding="utf-8"?>
<!-- Generator: Adobe Illustrator 21.1.0, SVG Export Plug-In . SVG Version: 6.00 Build 0)  -->
<svg version="1.1" id="Layer_1" xmlns="http://www.w3.org/2000/svg" xmlns:xlink="http://www.w3.org/1999/xlink" x="0px" y="0px"
	 viewBox="0 0 250 250" style="enable-background:new 0 0 250 250;" xml:space="preserve">
<style type="text/css">
	.st0{fill:#F6D056;}
	.st1{fill:#414042;}
	.st2{fill:#45A5DA;}
	.st3{fill:#FFFFFF;}
</style>
<g>
	<g>
		<rect x="65.4" y="102.7" class="st0" width="119.1" height="5.9"/>
		<path class="st1" d="M185.9,110.1H64.1v-8.7h121.9V110.1z M66.8,107.3h116.4v-3.2H66.8V107.3z"/>
	</g>
	<g>
		<rect x="82.3" y="86.7" class="st0" width="85.4" height="5.9"/>
		<path class="st1" d="M169.1,94.1H80.9v-8.7h88.2V94.1z M83.7,91.3h82.7v-3.2H83.7V91.3z"/>
	</g>
	<g>
		<rect x="90.8" y="71.4" class="st0" width="68.3" height="5.9"/>
		<path class="st1" d="M160.5,78.7H89.5V70h71.1V78.7z M92.2,75.9h65.5v-3.2H92.2V75.9z"/>
	</g>
	<g>
		<rect x="69.6" y="108.7" class="st2" width="110.5" height="69.9"/>
		<path class="st1" d="M181.6,180H68.2v-72.7h113.3V180z M71,177.2h107.8v-67.2H71V177.2z"/>
	</g>
	<g>
		<rect x="85.8" y="92.7" class="st0" width="78.7" height="85.9"/>
		<path class="st1" d="M165.9,180H84.4V91.3h81.5V180z M87.2,177.2h76V94.1h-76V177.2z"/>
	</g>
	<g>
		<rect x="94.6" y="77.6" class="st2" width="60.2" height="99.4"/>
		<path class="st1" d="M156.2,178.4h-63V76.2h63V178.4z M96,175.6h57.4V78.9H96V175.6z"/>
	</g>
	<g>
		<rect x="102.5" y="92.7" class="st0" width="44.3" height="24"/>
		<path class="st1" d="M148.2,118h-47V91.3h47V118z M103.9,115.3h41.5V94.1h-41.5V115.3z"/>
	</g>
	<g>
		<rect x="102.8" y="150.6" class="st3" width="42.9" height="26.4"/>
		<path class="st1" d="M147.1,178.4h-45.7v-29.2h45.7V178.4z M104.2,175.6h40.1v-23.7h-40.1V175.6z"/>
	</g>
	<g>
		<g>
			<rect x="108.9" y="100" class="st1" width="31.6" height="2.8"/>
		</g>
		<g>
			<rect x="108.9" y="106.5" class="st1" width="21.6" height="2.8"/>
		</g>
		<g>
			<rect x="134.7" y="106.5" class="st1" width="5.7" height="2.8"/>
		</g>
	</g>
	<g>
		<rect x="94.6" y="140.7" class="st1" width="60.2" height="2.8"/>
	</g>
	<g>
		<rect x="122.9" y="150.6" class="st1" width="2.8" height="26.4"/>
	</g>
	<g>
		<rect x="118.3" y="161.1" class="st1" width="2.8" height="5.4"/>
	</g>
	<g>
		<rect x="127.5" y="161.1" class="st1" width="2.8" height="5.4"/>
	</g>
</g>
</svg>
