<?xml version="1.0" encoding="utf-8"?>
<!-- Generator: Adobe Illustrator 21.1.0, SVG Export Plug-In . SVG Version: 6.00 Build 0)  -->
<svg version="1.1" id="Layer_1" xmlns="http://www.w3.org/2000/svg" xmlns:xlink="http://www.w3.org/1999/xlink" x="0px" y="0px"
	 viewBox="0 0 250 250" style="enable-background:new 0 0 250 250;" xml:space="preserve">
<style type="text/css">
	.st0{fill:#E82E29;}
	.st1{fill:#FFFFFF;}
</style>
<title>Grocery</title>
<polygon class="st0" points="5.4,101.8 245.4,101.8 245.4,148.9 5.4,148.9 5.4,101.8 "/>
<path class="st1" d="M39.5,119.1c-1.2-1.1-2.7-1.7-4.2-1.7c-1.1,0-2.7,0.7-2.7,2.1c0,1.4,1.7,2,2.9,2.4l1.6,0.5
	c3.5,1,6.1,2.7,6.1,6.7c0.2,2.5-0.8,4.9-2.7,6.6c-2,1.6-4.4,2.4-7,2.4c-3.1-0.1-6.1-1.1-8.6-2.9l2.7-5.1c1.5,1.5,3.5,2.3,5.6,2.5
	c1.5,0,3.1-0.7,3.1-2.5s-2.5-2.4-3.9-2.7c-4-1.2-6.6-2.2-6.6-7c-0.2-4.4,3.2-8.1,7.6-8.3c0.3,0,0.5,0,0.8,0c2.7,0.1,5.4,0.8,7.8,2.2
	C42.2,114.1,39.5,119.1,39.5,119.1z"/>
<path class="st1" d="M51.4,122.7L51.4,122.7c1.2-1.7,3.2-2.8,5.3-2.7c2.4-0.1,4.6,1.2,5.7,3.2c1.1-2,3.3-3.3,5.6-3.2
	c4.3,0,5.7,2.9,5.7,6.7v10.7h-5.8v-8.1c0-1.7,0-4.6-2.5-4.6c-2.7,0-2.9,2.7-2.9,4.6v8.1h-6v-8.1c0-1.9,0-4.7-2.7-4.7
	c-2.7,0-2.7,2.9-2.7,4.7v8.1h-5.9v-16.7h6L51.4,122.7L51.4,122.7z"/>
<path class="st1" d="M95.4,137.4h-6v-1.8h-0.1c-1.2,1.6-3,2.5-5,2.4c-4.7-0.1-8.5-3.9-8.5-8.7c0-0.1,0-0.2,0-0.3
	c0-4.9,3.4-8.9,8.3-8.9c2,0,3.9,0.8,5.2,2.3v-1.6h6V137.4z M82,128.9c0,2.1,1.7,3.8,3.8,3.8s3.8-1.7,3.8-3.8c0-2.1-1.7-3.8-3.8-3.8
	S82,126.8,82,128.9z"/>
<path class="st1" d="M104.6,123.3L104.6,123.3c1.1-2,3.2-3.1,5.5-3h1.1v5.7c-0.8-0.4-1.6-0.6-2.5-0.5c-3.4,0-4.1,2.1-4.1,5v6.8h-6
	v-16.8h6L104.6,123.3L104.6,123.3z"/>
<polygon class="st1" points="119.9,137.4 113.9,137.4 113.9,125.4 112,125.4 112,120.6 113.9,120.6 113.9,115.5 119.9,115.5 
	119.9,120.6 123.3,120.6 123.3,125.4 119.9,125.4 119.9,137.4 "/>
<path class="st1" d="M138.8,133.9c-2.1,1.9-4.7,3.9-7.8,3.9c-3.8,0.1-7-2.9-7.2-6.7c0-4.1,3-6.1,6.1-8.1l0.3-0.3
	c-1.1-1.5-2.5-3.2-2.5-5.2c0-2.8,2.2-5.2,5.1-5.2c0.1,0,0.3,0,0.4,0c2.8-0.1,5.1,2,5.2,4.8c0,0,0,0,0,0c0,3-2.2,4.6-4.3,6.1l5.2,6.7
	l2.7-3.2l2,1.6l-3.1,3.6l4.1,5.5h-3.5L138.8,133.9L138.8,133.9z M130.6,125.6c-1.9,1.2-4.1,2.7-4.1,5.2c0,2.4,1.9,4.4,4.3,4.5
	c2.5,0,4.6-1.9,6.3-3.5l-5.5-7.1L130.6,125.6L130.6,125.6z M132.6,121.1c1.3-1.1,3.1-2,3.1-4c0-1.4-1.2-2.5-2.6-2.5c0,0-0.1,0-0.1,0
	c-1.5,0-2.7,1.1-2.7,2.6c0,0,0,0.1,0,0.1c0.2,1.2,0.7,2.2,1.5,3.1l0.6,0.7L132.6,121.1L132.6,121.1z"/>
<polygon class="st1" points="153,118.1 153,122.2 160.1,122.2 160.1,127.7 153,127.7 153,137.4 146.6,137.4 146.6,112.8 
	160.8,112.8 160.8,118.1 153,118.1 "/>
<path class="st1" d="M169.9,114.1c0,1.8-1.5,3.3-3.4,3.4c-1.8,0.2-3.5-1.1-3.8-2.9c-0.2-1.8,1.1-3.5,2.9-3.8c0.3,0,0.6,0,0.8,0
	C168.4,110.9,169.9,112.3,169.9,114.1L169.9,114.1z M163.5,120.6h6v16.8h-6V120.6z"/>
<path class="st1" d="M178.7,122.7L178.7,122.7c1.2-1.8,3.2-2.8,5.3-2.7c4.6,0,6.3,2.9,6.3,7v10.5h-6v-8.2c0-1.6,0.3-4.5-2.7-4.5
	c-2.5,0-3.1,1.9-3.1,4v8.7h-6v-16.8h6L178.7,122.7L178.7,122.7z"/>
<path class="st1" d="M211.9,137.4h-5.8v-1.8H206c-1.2,1.6-3.1,2.5-5.1,2.4c-4.9-0.3-8.7-4.6-8.4-9.6c0.3-4.5,3.9-8.1,8.4-8.4
	c2,0,3.9,0.8,5.2,2.2v-1.6h5.8L211.9,137.4L211.9,137.4z M198.6,128.9c0,2.1,1.7,3.8,3.8,3.8s3.8-1.7,3.8-3.8c0-2.1-1.7-3.8-3.8-3.8
	S198.6,126.8,198.6,128.9z"/>
<polygon class="st1" points="215.3,110.3 221.2,110.3 221.2,137.4 215.3,137.4 215.3,110.3 "/>
<path class="st1" d="M222.6,135c-0.1-1.3,1-2.4,2.3-2.5c0,0,0.1,0,0.1,0c1.4,0,2.5,1.1,2.5,2.5c0,1.3-1.1,2.4-2.4,2.4
	c0,0-0.1,0-0.1,0c-1.3,0-2.3-1-2.4-2.2C222.6,135.1,222.6,135.1,222.6,135z M227.1,135c0-1.2-0.9-2.1-2.1-2.1c0,0,0,0-0.1,0
	c-1.1,0-2,0.9-2,2c0,0,0,0.1,0,0.1c0,1.1,0.9,2,1.9,2c0,0,0,0,0.1,0C226.1,137,227,136.1,227.1,135z M226.2,136.3h-0.5L225,135h-0.5
	v1.2h-0.4v-2.7h1.1c0.5,0,1,0.1,1,0.7c0,0.6-0.4,0.6-0.9,0.6L226.2,136.3L226.2,136.3z M225,134.6c0.3,0,0.9,0.1,0.9-0.4
	c0-0.3-0.4-0.3-0.6-0.3h-0.7v0.6H225z"/>
</svg>
