<?xml version="1.0" encoding="utf-8"?>
<!-- Generator: Adobe Illustrator 21.1.0, SVG Export Plug-In . SVG Version: 6.00 Build 0)  -->
<svg version="1.1" id="Layer_1" xmlns="http://www.w3.org/2000/svg" xmlns:xlink="http://www.w3.org/1999/xlink" x="0px" y="0px"
	 viewBox="0 0 250 250" style="enable-background:new 0 0 250 250;" xml:space="preserve">
<style type="text/css">
	.st0{fill:#EB0D0F;}
	.st1{fill:#FFFFFF;}
</style>
<title>CR</title>
<path class="st0" d="M195,195H55V55h1h139v1.1c0,45.9,0,91.9,0,137.9C195,194.3,195,194.7,195,195z M172,128.9h-0.8h-27.1
	c-0.5,0-0.9,0.2-1.3,0.5c-2.9,2.7-6.3,2.6-9.2-0.1c-0.3-0.2-0.6-0.3-1-0.3c-8.7,0-17.4,0-26.1,0h-1.2l0.4,2.5H84.6
	c-1.1,0-1.1,0-1.1,1.1c0,0,0,0.1-0.1,0.2H67c0,1.2,0.1,1.4,1.2,1.4h100.7c0.2,0,0.3,0,0.5,0c0.3-0.1,0.5-0.2,0.7-0.4
	C171.1,132.4,171.8,130.7,172,128.9z M177.9,92.1c0-1.4-0.3-2.9-0.7-4.2c-0.1-0.6-0.6-1.1-1.3-1c0,0-0.1,0-0.1,0
	c-19.1,0-38.2,0-57.3,0c-1.3-0.1-2.4,0.6-2.8,1.8c0,0.1-0.1,0.1-0.1,0.2c-0.1,0.6-0.5,0.6-1,0.6H94.1c-0.5,0-0.9,0.1-1,0.6
	s-0.5,0.7-1,0.7c-5.1,0-10.1,0-15.2,0c-1.1,0-1.3,0.2-1.3,1.4h0.9c21.6,0,43.2,0,64.8,0c0.6,0,1.2-0.2,1.6-0.6
	c2.3-2.3,6-2.4,8.3-0.1c0.1,0.1,0.1,0.1,0.2,0.2c0.3,0.4,0.8,0.6,1.3,0.5c8.1,0,16.2,0,24.3,0L177.9,92.1z M69.7,139.8
	c0.8,0.8,1.4,1.4,2.5,1.4c18.6,0,37.1,0,55.7,0h35c0.3,0,0.7,0,1-0.2c1.7-1.2,3.3-2.6,4.6-4.3c0.1-0.2,0.3-0.4,0.4-0.6h-60.6
	l1.5,2.5H86.1l0.6,1.2L69.7,139.8z M79.3,85H176c-0.1-0.3-0.3-0.6-0.4-0.9c-0.9-1.3-1.8-2.5-2.7-3.7c-0.2-0.3-0.6-0.4-1-0.5
	c-15.9,0-31.7,0-47.6,0c-0.2,0-0.5,0-0.7,0.1c-0.9,0.6-1.8,1.2-2.6,1.9c-0.3,0.3-0.7,0.5-1.2,0.5c-7,0-14,0-21,0
	c-0.7-0.1-1.4,0.2-1.8,0.8c-0.2,0.3-0.7,0.5-1.1,0.5c-5.1,0-10.2,0-15.2,0C79.9,83.7,79.5,84.1,79.3,85L79.3,85z M100.1,111.8H81.6
	c0.6,0.6,0.7,1.4,1.7,1.4c27.9,0,55.8,0,83.7,0c0.2,0,0.5,0,0.9,0c-0.2-0.3-0.4-0.5-0.6-0.8c-1.4-1.6-3-3-4.9-4
	c-0.4-0.2-0.8-0.4-1.3-0.4c-14.4,0-28.8,0-43.3,0h-0.7l-0.1,0.2l1.9,2.4H99.1L100.1,111.8z M76.8,104.7c0.3,1.3,0.4,1.4,1.3,1.4
	h79.3c0.2,0,0.4,0,0.6,0c-0.2-0.2-0.4-0.4-0.6-0.4l-11.8-4.7c-0.3-0.1-0.5-0.1-0.8-0.1H114l0.6,2.5H93.9l0.3,1.3L76.8,104.7z
	 M79,146.8v0.2c1.1,0.7,2.3,1.1,3.5,1.2c18.5-0.1,37.1-0.1,55.6-0.1c3.9,0,7.7-0.2,11.6-0.8c3.8-0.6,7.5-1.8,10.8-3.8
	c0.2-0.1,0.4-0.3,0.7-0.5h-45.7v0.1l3.9,2.2v0.2H95l1.4,1.2L79,146.8z M170.5,78c-0.3-0.2-0.5-0.4-0.7-0.5c-4.8-3-10.3-4.7-15.9-4.8
	c-5.9-0.2-11.7,0.4-17.4,1.8c-1.3,0.4-2.7,0.7-4,0.9c-7.3,0.1-14.7,0.1-22,0c-0.9-0.1-1.8,0.2-2.5,0.6c-0.8,0.5-1.8,0.8-2.7,0.7
	c-2-0.1-4-0.1-6-0.1c-3,0-6,0.1-8.9,0c-1.1,0.1-2.1,0.6-2.9,1.4L170.5,78z M158.3,167.6c1.4,0,2.7,0,4,0c0.1,0,0.3-0.3,0.4-0.4
	c0.3-0.7,1-1.1,1.7-1.1c0.5,0,0.8,0.4,0.8,0.9c0,0.1,0,0.2-0.1,0.3c-0.2,0.6-0.7,1-1.4,1.1c-0.8,0.2-1.6,0.3-2.5,0.4
	c-1.7,0.1-3.3,0.9-4.3,2.3c-0.9,1.3-1,3-0.2,4.3c0.8,1.1,2.2,1.7,3.5,1.3c0.9-0.2,1.8-0.5,2.7-0.8v0.7h3.8c0,0.5-0.1,0.9-0.1,1.4
	c-0.2,1.3,0.7,2.6,2,2.9c0,0,0.1,0,0.1,0c1.4,0.3,2.9,0,4-0.8c1.3-0.9,2.3-2.2,3-3.6c1.8-3.2,3.5-6.6,5.2-9.9l1.5-2.8
	c-1.4,0-2.7,0-4,0c-0.2,0-0.4,0.2-0.5,0.4c-0.5,0.9-0.9,1.8-1.4,2.7l-1.8,3.7c-0.3-2.2-0.5-4.2-0.8-6.1c0-0.2-0.2-0.6-0.4-0.6
	c-1.2,0-2.5,0-3.7,0c0,0.2,0,0.5,0,0.7c0.5,3.2,1,6.5,1.4,9.7c0.1,0.9,0.3,1.8,0.3,2.6c0,0.6-0.4,1.1-1,1.2c-0.1,0-0.2,0-0.2,0
	c-0.6,0-0.9-0.4-0.9-1.2c0-0.1,0-0.3,0-0.4h-2.6c0.3-1.1,0.5-2.1,0.8-3.1c0.5-1.9,1-3.8,1.4-5.7c0.4-1.6-0.6-3.1-2.2-3.5
	c-0.7-0.2-1.4-0.4-2.2-0.4c-1.6-0.2-3.2,0.2-4.5,1C159.3,165.3,158.6,166.3,158.3,167.6L158.3,167.6z M92.2,97.7H75.6
	c-0.9,0-1.1,0.4-0.7,1.1c0.1,0.2,0.6,0.3,0.9,0.3h65.4c0.3,0,0.5,0,0.9-0.1c-1.5-1.6-1.1-3.4-0.8-5.2h-10c-5.5,0-10.9,0-16.4,0
	c-0.5-0.1-1,0.3-1.1,0.8c0,0,0,0.1,0,0.1l-0.4,1.7h-20C92.4,96.4,92.4,96.4,92.2,97.7z M132,121.9h-24.9c-1.6,0-1.7,0-1.9,1.6
	c0,0,0,0,0,0.1c0.1,0.8-0.3,0.8-0.9,0.8c-6.6,0-13.2,0-19.8,0c-0.5,0-0.9,0-0.9,0.6c0,0.6-0.4,0.7-1,0.7c-5.1,0-10.3,0-15.4,0
	c-0.7,0-0.9,0.2-0.9,0.9c0,0.8,0.5,0.5,0.8,0.5h64.6c0.2,0,0.5,0,0.5,0L132,121.9z M125.5,114.9c0.1,0.1,0.3,0.2,0.4,0.3
	c2.9,1.7,5.9,3.1,9,4.2c1.3,0.4,2.7,0.7,4.1,0.7c10.6,0,21.2,0,31.8,0h0.9c-0.4-1.6-1.2-3.2-2.2-4.6c-0.2-0.4-0.7-0.7-1.2-0.6
	c-14,0-28,0-42,0C126.1,114.9,125.9,114.9,125.5,114.9L125.5,114.9z M73.8,169.7h-3.6c-1.8,0-1.8,0-1.7,1.8c0,2,1.4,3.8,3.3,4.4
	c2.2,0.7,4.5,0.7,6.7-0.2c1.9-0.6,3.3-2.2,3.7-4.2c0.8-2-0.2-4.3-2.2-5.1c-0.6-0.3-1.2-0.6-1.7-1c-0.6-0.4-1.1-0.7-1.6-1.1
	c-0.5-0.3-0.7-1-0.3-1.6c0.3-0.6,1-1,1.7-0.8c0.6,0.1,1,0.7,1,1.3c0,0.3,0,0.7,0,1.1c0,0.4,0.1,0.5,0.5,0.5c1.2,0,2.5,0,3.7,0
	c0.2,0,0.4-0.2,0.5-0.4c0.5-2.6-0.4-4.8-3.1-5.8c-1.3-0.4-2.7-0.5-4-0.3c-2.4,0.1-4.5,1.4-5.5,3.6c-0.9,1.9-0.5,4.8,1.5,5.9
	c0.7,0.4,1.5,0.7,2.3,1.1c0.6,0.3,1.1,0.6,1.5,1.1c0.5,0.5,0.5,1.3,0.1,2c-0.4,0.5-1.1,0.7-1.7,0.5c-0.7-0.2-1.1-0.9-1.1-1.6
	C73.7,170.6,73.8,170.2,73.8,169.7L73.8,169.7z M138.9,176.4c1.2,0,2.4-0.1,3.5,0c0.9,0.2,1.8-0.3,2.2-1.2c0.7-1.4,1.6-2.8,2.5-4.2
	v5.4c1.6,0,3.2,0,4.8,0c0.5,0.1,0.9-0.2,1-0.7c1.8-3.8,3.6-7.6,5.4-11.5c0.1-0.2,0.2-0.4,0.3-0.7c-1.2,0-2.3,0-3.5,0
	c-0.5-0.1-0.9,0.2-1.1,0.7c-0.9,2-1.8,3.9-2.7,5.8c-0.1,0.2-0.2,0.4-0.3,0.6v-7.1c-1.1,0-2.2,0-3.2,0c-0.4,0-0.8,0.2-0.9,0.5
	c-1.1,2-2.3,3.9-3.4,5.9c-0.1,0.2-0.2,0.3-0.3,0.4v-6.8h-3.9L138.9,176.4z M144.2,127.2h27.5c0.3,0,0.5-0.1,0.5-0.5
	c0-1.4,0-2.7,0-4.1c0-0.6-0.3-0.7-0.8-0.7h-28.8c-0.2,0-0.4,0-0.7,0C144,124.2,144,124.2,144.2,127.2L144.2,127.2z M89.3,163.6
	c-1.1,0-2.2,0.1-3.2,0c-0.6,0-0.8,0.2-0.9,0.7c-1.1,4.2-2.2,8.5-3.4,12.7c-0.3,1-0.5,2-0.8,3.1c1.4,0,2.7,0,4,0
	c0.2-0.1,0.4-0.2,0.5-0.4c0.2-0.8,0.4-1.5,0.7-2.3l0.6-2.1c2.1,1.7,5.1,1.5,7.1-0.4c2.2-2.2,3.2-5.4,2.6-8.5c-0.2-1.7-1.5-3-3.2-3.2
	c-1.2-0.2-2.4,0.1-3.4,0.8l-0.6,0.4L89.3,163.6z M131.6,176.4c0.9,0,1.8,0,2.7,0c0.4,0.1,0.9-0.1,1-0.6c0-0.1,0-0.1,0-0.2
	c1.4-5.3,2.8-10.6,4.2-15.9c0.1-0.2,0.1-0.5,0.1-0.7c-0.1,0-0.2-0.1-0.3-0.1h-2.6c-1.4,0-1.4,0-1.8,1.4s-0.7,2.6-1.1,4l-0.7-0.4
	c-2.1-1.1-4.7-0.8-6.5,0.7c-2.1,2-3.1,4.8-2.8,7.6c0.1,2.4,2,4.3,4.4,4.2c0,0,0,0,0,0c1.1,0,2.1-0.4,3-1.1L131.6,176.4z M153.3,99.1
	h16.5c2.3,0,4.7,0,7,0c0.4,0,0.7-0.1,0.7-0.6c0.1-1.3,0.3-2.5,0.5-3.8c0.1-0.9,0-0.9-0.9-0.9h-24.1L153.3,99.1z M109.5,172.1
	c-0.1,0-0.2-0.1-0.3-0.1c-1.2,0-2.5,0-3.7,0c-0.4-0.1-0.8,0.1-1,0.5c-0.3,0.6-1,0.9-1.6,0.7c-0.6-0.2-1-0.9-0.9-1.5
	c0-0.8,0.2-0.9,0.9-0.9c2.2,0,4.2,0,6.4,0c0.5,0,0.7-0.2,0.8-0.6c0.1-0.9,0.1-1.7,0.1-2.6c0-1.7-1-3.2-2.6-3.9c-2.4-1-5.1-0.7-7.2,1
	c-2.3,1.9-3.5,4.8-3,7.8c0.1,1.4,1,2.7,2.3,3.4c3.1,1.6,6.8,0.7,8.9-2C108.9,173.2,109.2,172.7,109.5,172.1L109.5,172.1z M123.1,172
	c-1.7,0-3.1,0-4.5,0c-0.2,0-0.3,0.2-0.4,0.3c-0.6,0.8-1.1,1.1-1.8,0.8c-0.7-0.3-0.9-0.7-0.8-1.7c0-0.6,0.2-0.7,0.8-0.7
	c1.7,0,3.5,0,5.2,0c2,0,2,0,2.2-1.9c0.2-2.5-0.5-4.3-2.6-5.1c-2.2-1-4.8-0.7-6.8,0.7c-2.6,1.8-3.5,4.5-3.4,7.5c0,1.7,1,3.2,2.5,3.9
	c2.9,1.4,6.4,0.7,8.5-1.8C122.3,173.4,122.7,172.7,123.1,172L123.1,172z"/>
<path class="st1" d="M172,128.9c-0.2,1.7-0.9,3.4-1.9,4.9c-0.2,0.2-0.5,0.3-0.7,0.4c-0.2,0-0.3,0-0.5,0H68.2c-1.1,0-1.3-0.2-1.2-1.4
	h16.3c0.1-0.1,0.1-0.1,0.1-0.2c0-1.1,0-1.1,1.1-1.1h21.2l-0.4-2.5h1.2c8.7,0,17.4,0,26.1,0c0.3,0,0.7,0.1,1,0.3
	c2.9,2.8,6.2,2.8,9.2,0.1c0.3-0.3,0.8-0.5,1.3-0.5h27.1L172,128.9z"/>
<path class="st1" d="M177.9,92.1h-0.9c-8.1,0-16.2,0-24.3,0c-0.5,0-1-0.2-1.3-0.5c-2.2-2.4-5.9-2.5-8.3-0.3
	c-0.1,0.1-0.2,0.1-0.2,0.2c-0.4,0.4-1,0.7-1.6,0.6c-21.6,0-43.2,0-64.8,0h-0.9c0-1.2,0.2-1.4,1.3-1.4c5.1,0,10.1,0,15.2,0
	c0.5,0,0.9-0.1,1-0.7s0.5-0.6,1-0.6h20.5c0.5,0,0.9-0.1,1-0.6c0-0.1,0.1-0.1,0.1-0.2c0.4-1.2,1.6-2,2.9-1.8
	c19.1,0.1,38.2,0.1,57.3,0c0.6-0.1,1.2,0.3,1.3,0.9c0,0,0,0.1,0,0.1C177.7,89.2,177.9,90.6,177.9,92.1z"/>
<path class="st1" d="M69.7,139.8h17l-0.6-1.2h23.6l-1.5-2.5h60.6c-0.1,0.2-0.2,0.4-0.4,0.6c-1.3,1.7-2.8,3.1-4.6,4.3
	c-0.3,0.2-0.6,0.2-1,0.2h-35c-18.6,0-37.1,0-55.7,0C71.1,141.2,70.5,140.6,69.7,139.8z"/>
<path class="st1" d="M79.3,85c0.2-1,0.6-1.3,1.4-1.3c5.1,0,10.2,0,15.2,0c0.4,0,0.8-0.1,1.1-0.5c0.4-0.6,1.1-0.9,1.8-0.8
	c7,0,14,0,21,0c0.5,0,0.9-0.2,1.2-0.5c0.8-0.7,1.7-1.3,2.6-1.9c0.2-0.1,0.4-0.1,0.7-0.1c15.9,0,31.7,0,47.6,0c0.4,0,0.7,0.2,1,0.5
	c0.9,1.2,1.8,2.5,2.7,3.7c0.2,0.3,0.3,0.6,0.4,0.9L79.3,85z"/>
<path class="st1" d="M100.1,111.8l-1-1.3H119l-1.9-2.4l0.1-0.2h0.7c14.4,0,28.8,0,43.3,0c0.4,0,0.9,0.1,1.3,0.4
	c1.8,1.1,3.5,2.4,4.9,4c0.2,0.2,0.3,0.4,0.6,0.8c-0.4,0-0.6,0-0.9,0c-27.9,0-55.8,0-83.7,0c-1,0-1.2-0.8-1.7-1.4L100.1,111.8z"/>
<path class="st1" d="M76.8,104.7h17.4l-0.3-1.3h20.6l-0.6-2.5h30.7c0.3,0,0.5,0,0.8,0.1l11.8,4.6c0.2,0.1,0.5,0.2,0.6,0.4
	c-0.2,0-0.4,0-0.6,0H78C77.1,106.1,77.1,106.1,76.8,104.7z"/>
<path class="st1" d="M79,146.8h17.4l-1.4-1.2h24.3v-0.2l-3.9-2.2V143H161c-0.3,0.2-0.5,0.3-0.7,0.5c-3.3,1.9-7,3.2-10.8,3.8
	c-3.8,0.6-7.7,0.9-11.6,0.8c-18.5,0-37.1,0-55.6,0.1c-1.3-0.1-2.5-0.5-3.5-1.2L79,146.8z"/>
<path class="st1" d="M170.5,78H87.3c0.7-0.9,1.8-1.4,2.9-1.4c3,0.1,6,0,8.9,0c2,0,4,0,6,0.1c1,0.1,1.9-0.2,2.7-0.7
	c0.8-0.5,1.6-0.7,2.5-0.6c7.3,0,14.7,0,22,0c1.4-0.1,2.7-0.4,4-0.9c5.7-1.4,11.5-2,17.4-1.8c5.7,0.1,11.2,1.8,15.9,4.8
	C170,77.6,170.1,77.7,170.5,78z"/>
<path class="st1" d="M158.3,167.6c0.3-1.3,1-2.4,2.2-3.1c1.4-0.8,2.9-1.2,4.5-1c0.7,0,1.5,0.2,2.2,0.4c1.6,0.4,2.5,2,2.2,3.5
	c-0.4,1.9-0.9,3.8-1.4,5.7c-0.2,1-0.5,2-0.8,3.1h2.6c0,0.2,0,0.3,0,0.4c0,0.8,0.2,1.2,0.9,1.2c0.6,0.1,1.1-0.3,1.2-0.9
	c0-0.1,0-0.2,0-0.2c-0.1-0.9-0.2-1.8-0.3-2.6c-0.5-3.2-1-6.5-1.4-9.7c0-0.2,0-0.5,0-0.7c1.2,0,2.5,0,3.7,0c0.1,0,0.3,0.4,0.4,0.6
	c0.3,2,0.5,4,0.8,6.1l1.8-3.7c0.5-0.9,0.9-1.8,1.4-2.7c0.1-0.2,0.3-0.4,0.5-0.4c1.3,0,2.6,0,4,0l-1.5,2.8c-1.7,3.3-3.4,6.6-5.2,9.9
	c-0.7,1.4-1.7,2.7-3,3.6c-1.2,0.8-2.6,1.1-4,0.8c-1.4-0.2-2.3-1.4-2.2-2.7c0,0,0-0.1,0-0.1c0-0.4,0.1-0.9,0.1-1.4h-3.8v-0.7
	c-0.9,0.3-1.8,0.6-2.7,0.8c-1.3,0.4-2.7-0.1-3.5-1.3c-0.8-1.3-0.8-3,0.2-4.3c1-1.4,2.6-2.3,4.3-2.3c0.8-0.1,1.7-0.2,2.5-0.4
	c0.6-0.1,1.1-0.5,1.4-1.1c0.2-0.4-0.1-0.9-0.5-1.1c-0.1,0-0.2-0.1-0.3-0.1c-0.7-0.1-1.4,0.4-1.7,1.1c-0.1,0.2-0.3,0.4-0.4,0.4
	C161,167.6,159.7,167.6,158.3,167.6z M164.1,170.2c-0.7,0.2-1.4,0.5-2.1,0.8c-0.6,0.3-0.9,0.9-0.7,1.6c0.1,0.3,0.4,0.6,0.7,0.7
	c0.7,0.1,1.3-0.2,1.6-0.8c0.1-0.2,0.2-0.4,0.2-0.6C163.9,171.3,164,170.9,164.1,170.2L164.1,170.2z"/>
<path class="st1" d="M92.2,97.7c0.2-1.2,0.2-1.2,1.4-1.2h20l0.4-1.7c0-0.5,0.5-0.9,1-0.9c0,0,0.1,0,0.1,0c5.5,0,10.9,0,16.4,0h10
	c-0.3,1.8-0.7,3.6,0.8,5.2c-0.4,0-0.7,0.1-0.9,0.1H75.8c-0.3,0-0.7-0.1-0.9-0.3c-0.4-0.7-0.2-1.1,0.7-1.1L92.2,97.7L92.2,97.7z"/>
<path class="st1" d="M132,121.9l0.2,5.2c-0.1,0-0.3,0-0.5,0H67c-0.3,0-0.8,0.2-0.8-0.5c0-0.7,0.1-0.9,0.9-0.9c5.1,0,10.3,0,15.4,0
	c0.6,0,0.9-0.1,1-0.7s0.5-0.6,0.9-0.6c6.6,0,13.2,0,19.8,0c0.6,0,1.1-0.1,0.9-0.8c0,0,0,0,0-0.1c0.2-1.6,0.3-1.6,1.9-1.6L132,121.9
	L132,121.9z"/>
<path class="st1" d="M125.5,114.9c0.4,0,0.6,0,0.9,0c14,0,28,0,42,0c0.5,0,1,0.2,1.2,0.6c1,1.4,1.7,2.9,2.2,4.6h-0.9
	c-10.6,0-21.2,0-31.8,0c-1.4,0-2.8-0.2-4.1-0.7c-3.1-1.1-6.2-2.5-9-4.2C125.8,115.2,125.7,115.1,125.5,114.9z"/>
<path class="st1" d="M73.8,169.7c0,0.5-0.1,0.9-0.1,1.2c-0.1,0.7,0.4,1.4,1.1,1.6c0.6,0.2,1.3,0,1.7-0.5c0.4-0.6,0.3-1.4-0.1-2
	c-0.4-0.4-0.9-0.8-1.5-1.1c-0.7-0.4-1.5-0.7-2.3-1.1c-2-1.2-2.4-4-1.5-5.9c1-2.1,3.2-3.5,5.6-3.6c1.4-0.2,2.7-0.1,4,0.3
	c2.7,0.9,3.6,3.1,3.1,5.8c-0.1,0.2-0.3,0.4-0.5,0.4c-1.2,0-2.5,0-3.7,0c-0.4,0-0.5-0.1-0.5-0.5c0-0.4,0-0.7,0-1.1
	c0-0.6-0.4-1.2-1-1.3c-0.7-0.2-1.4,0.2-1.7,0.8c-0.3,0.5-0.2,1.2,0.3,1.6c0.5,0.4,1.1,0.8,1.6,1.1s1.2,0.6,1.7,1
	c2,0.9,2.9,3.1,2.2,5.1c-0.4,2-1.8,3.6-3.7,4.2c-2.1,0.8-4.5,0.9-6.7,0.2c-2-0.6-3.3-2.4-3.3-4.4c-0.1-1.8-0.1-1.8,1.7-1.8
	L73.8,169.7z"/>
<path class="st1" d="M138.9,176.4l0.4-12.7h3.9v6.8c0.1-0.1,0.2-0.3,0.3-0.4c1.1-2,2.3-3.9,3.4-5.9c0.1-0.4,0.5-0.6,0.9-0.5
	c1.1,0,2.2,0,3.2,0v7.1c0.1-0.2,0.2-0.4,0.3-0.6c0.9-1.9,1.8-3.9,2.7-5.8c0.1-0.5,0.6-0.7,1.1-0.7c1.1,0,2.2,0,3.5,0
	c-0.1,0.3-0.2,0.5-0.3,0.7c-1.8,3.8-3.6,7.6-5.4,11.5c-0.1,0.4-0.6,0.7-1,0.7c-1.6,0-3.2,0-4.8,0V171c-0.9,1.5-1.8,2.8-2.5,4.2
	c-0.3,0.9-1.2,1.4-2.2,1.2C141.3,176.4,140.2,176.4,138.9,176.4z"/>
<path class="st1" d="M144.2,127.2c-0.2-3-0.2-3-2.2-5.2c0.3,0,0.5,0,0.7,0h28.8c0.5,0,0.8,0.2,0.8,0.7c0,1.4,0,2.7,0,4.1
	c0,0.4-0.2,0.5-0.5,0.5L144.2,127.2L144.2,127.2z"/>
<path class="st1" d="M89.3,163.6v0.8l0.6-0.4c1-0.7,2.2-1,3.4-0.8c1.7,0.2,3,1.5,3.2,3.2c0.6,3.1-0.4,6.2-2.7,8.4
	c-1.9,1.9-5,2-7.1,0.4l-0.6,2.1c-0.2,0.8-0.4,1.5-0.7,2.3c-0.1,0.2-0.3,0.4-0.5,0.4c-1.3,0-2.6,0-4,0c0.3-1.1,0.5-2.2,0.8-3.1
	c1.1-4.2,2.3-8.5,3.4-12.7c0.1-0.5,0.3-0.7,0.9-0.7C87.1,163.7,88.1,163.6,89.3,163.6z M91.8,168.8c0,0,0-0.3,0-0.5
	c-0.1-0.8-0.4-1.2-1.2-1.3c-0.8-0.1-1.6,0.3-1.9,1c-0.3,1.2-0.7,2.4-1,3.7c0,0.3,0.1,0.6,0.3,0.9c0.7,0.5,1.8,0.5,2.4-0.1
	C91.3,171.4,91.8,170.1,91.8,168.8L91.8,168.8z"/>
<path class="st1" d="M131.6,176.4v-0.9c-0.8,0.7-1.9,1-3,1.1c-2.4,0.1-4.4-1.8-4.4-4.2c0,0,0,0,0,0c-0.3-2.8,0.7-5.6,2.8-7.6
	c1.8-1.6,4.4-1.9,6.5-0.7l0.7,0.4c0.4-1.4,0.7-2.7,1.1-4c0.4-1.3,0.3-1.4,1.8-1.4h2.5c0.1,0,0.2,0,0.3,0.1c0,0.2-0.1,0.5-0.1,0.7
	c-1.4,5.3-2.8,10.6-4.2,15.9c0,0.5-0.4,0.8-0.9,0.8c-0.1,0-0.1,0-0.2,0C133.4,176.4,132.5,176.4,131.6,176.4z M128.9,170.8
	c0,0.2,0,0.4,0,0.5c0,0.8,0.6,1.4,1.3,1.5c0.9,0.2,1.7-0.4,1.9-1.2c0,0,0,0,0-0.1l0.8-3.2c0.2-0.9,0.1-1.2-0.8-1.5
	c-0.6-0.3-1.4-0.2-1.9,0.3C129.4,168.1,128.9,169.5,128.9,170.8L128.9,170.8z"/>
<path class="st1" d="M153.3,99.1l-0.3-5.3h24.1c0.9,0,1,0,0.9,0.9c-0.1,1.3-0.3,2.5-0.5,3.8c0,0.5-0.3,0.6-0.7,0.6c-2.3,0-4.7,0-7,0
	L153.3,99.1L153.3,99.1z"/>
<path class="st1" d="M109.5,172.1c-0.2,0.5-0.5,1.1-0.8,1.6c-2.1,2.7-5.9,3.6-8.9,2c-1.3-0.7-2.1-1.9-2.3-3.3
	c-0.5-2.9,0.6-5.9,3-7.7c2-1.6,4.8-2,7.2-1c1.6,0.6,2.6,2.2,2.6,3.9c0,0.9,0,1.7-0.1,2.6c0,0.5-0.2,0.6-0.8,0.6c-2.2,0-4.2,0-6.4,0
	c-0.8,0-0.9,0.2-0.9,0.9c-0.1,0.7,0.3,1.3,0.9,1.5c0.6,0.2,1.3-0.1,1.6-0.7c0.2-0.4,0.6-0.5,1-0.5c1.2,0,2.5,0,3.7,0
	C109.3,172.1,109.4,172.1,109.5,172.1z M102.8,168.2h2.4c0.1,0,0.3-0.1,0.3-0.1c0.1-0.5,0.1-1.1,0-1.6c-0.1-0.5-0.6-0.6-1.1-0.5
	C103.5,166.1,102.9,167,102.8,168.2L102.8,168.2z"/>
<path class="st1" d="M123,172c-0.3,0.7-0.8,1.4-1.2,2c-2.1,2.5-5.6,3.2-8.5,1.8c-1.5-0.7-2.5-2.2-2.5-3.9c-0.2-3.1,0.8-5.8,3.4-7.5
	c2-1.4,4.5-1.7,6.8-0.7c2.2,0.9,2.8,2.6,2.6,5.1c-0.1,1.9-0.2,1.9-2.2,1.9c-1.7,0-3.5,0-5.2,0c-0.5,0-0.8,0.2-0.8,0.7
	c0,1,0.2,1.5,0.8,1.7s1.2,0,1.8-0.8c0.1-0.2,0.3-0.3,0.4-0.3C119.9,172,121.4,172,123,172z M119,168.2c0.1-0.3,0.2-0.5,0.2-0.7
	c-0.1-0.5-0.2-0.9-0.5-1.3c-0.4-0.4-1-0.3-1.4,0.1c-0.6,0.5-0.9,1.2-1,1.9L119,168.2z"/>
<path class="st0" d="M164.1,170.2c-0.1,0.7-0.2,1.1-0.3,1.6c0,0.2-0.1,0.4-0.2,0.6c-0.3,0.6-0.9,1-1.6,0.8c-0.3-0.1-0.6-0.3-0.7-0.7
	c-0.2-0.6,0.1-1.3,0.7-1.6C162.7,170.7,163.4,170.5,164.1,170.2z"/>
<path class="st0" d="M91.8,168.8c0,1.3-0.5,2.6-1.4,3.6c-0.7,0.6-1.7,0.7-2.4,0.1c-0.2-0.2-0.3-0.6-0.3-0.9c0.3-1.2,0.6-2.5,1-3.7
	c0.4-0.7,1.1-1.1,1.9-1c0.8,0.1,1.1,0.5,1.2,1.3C91.8,168.5,91.8,168.7,91.8,168.8z"/>
<path class="st0" d="M128.9,170.8c0-1.3,0.5-2.6,1.4-3.7c0.5-0.5,1.2-0.7,1.9-0.3c0.8,0.3,1,0.7,0.8,1.5l-0.8,3.2
	c-0.1,0.9-1,1.5-1.8,1.3c0,0,0,0-0.1,0c-0.7-0.1-1.3-0.7-1.3-1.5C128.9,171.2,128.9,171,128.9,170.8z"/>
<path class="st0" d="M102.8,168.2c0.1-1.2,0.7-2.1,1.6-2.2c0.5-0.1,1,0,1.1,0.5c0.1,0.5,0.1,1.1,0,1.6c0,0-0.2,0.1-0.3,0.1H102.8z"
	/>
<path class="st0" d="M119,168.2h-2.7c0-0.8,0.4-1.5,1-1.9c0.4-0.4,1-0.4,1.4-0.1c0.3,0.4,0.4,0.8,0.5,1.3
	C119.2,167.7,119.1,167.9,119,168.2z"/>
</svg>
