<?xml version="1.0" encoding="utf-8"?>
<!-- Generator: Adobe Illustrator 21.1.0, SVG Export Plug-In . SVG Version: 6.00 Build 0)  -->
<svg version="1.1" id="Layer_1" xmlns="http://www.w3.org/2000/svg" xmlns:xlink="http://www.w3.org/1999/xlink" x="0px" y="0px"
	 viewBox="0 0 250 250" style="enable-background:new 0 0 250 250;" xml:space="preserve">
<style type="text/css">
	.st0{fill:#1E5CA2;}
	.st1{fill:#FEFEFE;}
	.st2{fill:#FDF115;}
</style>
<title>CR</title>
<path class="st0" d="M127.3,55c9.8,0.1,19.7,1,29.4,2.5c13.2,2,26.2,5.7,38.5,10.9c9.2,3.8,17.8,8.9,25.6,15.1
	c7.1,5.5,12.9,12.4,17.2,20.3c3,5.7,4.8,12,5.2,18.5c0.7,12.2-3.3,22.8-10.7,32.3c-6.2,7.7-13.7,14.1-22.2,19.1
	c-11.6,6.9-24.2,12.1-37.4,15.3c-9,2.3-18.1,3.9-27.3,4.8c-8.6,0.9-17.3,1.2-26,1c-18.1-0.3-36-3.4-53.2-9
	c-10.9-3.5-21.2-8.5-30.7-14.8c-7.6-4.9-14.2-11.1-19.6-18.4c-4.9-6.5-8-14.2-9-22.3c-1.1-8.6,0.4-17.3,4.2-25.1
	c4.1-8.2,9.8-15.3,17-21c10.3-8.5,22-14.4,34.5-19.1c9.9-3.6,20.1-6.2,30.5-7.8c8.4-1.3,16.8-2.1,25.3-2.4
	C121.5,55,124.3,55,127.3,55z M122.8,58.8c-1.6,0-3.2,0-4.9,0c-6.5,0.2-13.1,0.7-19.5,1.6c-11,1.4-21.8,3.9-32.3,7.5
	C55.4,71.5,45.2,76.5,35.9,83c-7.2,4.9-13.3,11.1-18.2,18.2c-4.3,6.3-6.8,13.7-7.4,21.4c-0.5,8.9,1.8,17.7,6.6,25.1
	c4.9,7.6,11.2,14.1,18.6,19.2c10.6,7.4,22.3,13,34.7,16.6c18.7,5.7,38.2,8.3,57.8,7.9c8.1-0.1,16.3-0.7,24.3-1.9
	c10-1.4,19.8-3.6,29.4-6.8c12.1-3.8,23.6-9.5,33.9-16.9c6.9-4.9,12.8-11.2,17.4-18.5c6.2-10.2,8.1-21.2,5.1-32.8
	c-2.2-8.7-7-15.9-13.2-22.2c-7.7-7.6-16.7-13.9-26.5-18.4c-15.8-7.4-32.6-12.1-49.9-13.9C140,59,131.4,58.6,122.8,58.8L122.8,58.8z"
	/>
<path class="st1" d="M122.9,58.8c8.6-0.2,17.1,0.2,25.6,1.2c17.3,1.8,34.2,6.6,49.9,13.9c9.9,4.5,18.8,10.7,26.5,18.4
	c6.2,6.3,11,13.6,13.2,22.2c3,11.7,1.1,22.6-5.1,32.8c-4.5,7.2-10.4,13.5-17.4,18.5c-10.3,7.5-21.8,13.2-33.9,17
	c-9.6,3.1-19.4,5.4-29.4,6.8c-8.1,1.1-16.2,1.7-24.3,1.9c-19.6,0.5-39.1-2.2-57.8-7.9c-12.4-3.6-24.1-9.3-34.7-16.6
	c-7.4-5.1-13.8-11.6-18.6-19.2c-4.8-7.5-7.1-16.3-6.6-25.1c0.5-7.7,3-15,7.4-21.4c4.9-7.2,11-13.4,18.2-18.3
	c9.3-6.4,19.5-11.5,30.2-15.1c10.5-3.6,21.3-6.1,32.3-7.5c6.5-0.9,13-1.4,19.5-1.6C119.6,58.8,121.2,58.8,122.9,58.8z M126.8,187.8
	c1.8,0,3.6,0,5.4,0c7-0.2,13.9-0.8,20.9-1.9c10.6-1.5,21-4.1,31.1-7.6c11-3.7,21.4-9.1,30.7-16.1c6.5-4.7,11.9-10.7,16-17.6
	c7.1-12.5,7.5-25.2,0.8-38c-4-7.3-9.6-13.7-16.3-18.7c-8.5-6.5-17.8-11.6-27.8-15.3c-12.5-4.8-25.5-8-38.8-9.5
	c-9.3-1.1-18.6-1.6-27.9-1.4c-7.8,0.2-15.6,0.8-23.3,1.9c-10.4,1.4-20.6,3.8-30.5,7.2c-9.9,3.3-19.4,8-28.1,13.8
	c-7.3,4.8-13.5,10.9-18.4,18.1c-7.1,11-9,22.7-4.5,35.3c2.9,8,8,14.4,14.2,20.1c7,6.3,15,11.4,23.6,15.3c16.5,7.7,34,11.7,52,13.6
	C112.8,187.8,119.8,188.1,126.8,187.8L126.8,187.8z"/>
<path class="st0" d="M126.8,187.9c-7,0.2-14-0.1-20.9-0.8c-18-1.8-35.5-5.9-52-13.6c-8.6-3.9-16.6-9-23.6-15.3
	C24,152.6,18.9,146,16,138.1c-4.5-12.5-2.6-24.2,4.5-35.2c4.9-7.2,11.1-13.4,18.4-18.1c8.7-5.9,18.1-10.5,28-13.9
	c9.9-3.4,20.2-5.8,30.6-7.2c7.7-1.1,15.6-1.7,23.4-1.9c9.3-0.2,18.6,0.3,27.8,1.4c13.3,1.5,26.3,4.7,38.8,9.4
	c10,3.7,19.3,8.8,27.8,15.3c6.7,5,12.3,11.4,16.3,18.7c6.6,12.8,6.3,25.5-0.8,38c-4.1,6.9-9.5,12.9-16,17.7
	c-9.3,6.9-19.6,12.4-30.6,16.1c-10.1,3.5-20.5,6.1-31,7.6c-6.9,1-13.9,1.7-20.9,1.9C130.4,187.9,128.6,187.9,126.8,187.9z
	 M124.8,186.2c2.1,0,4.1,0,6.2,0c6.8-0.2,13.7-0.8,20.4-1.7c10.5-1.4,20.8-3.9,30.9-7.3c10.4-3.4,20.2-8.4,29.1-14.7
	c6.9-4.7,12.8-10.9,17.3-18c6.9-11.6,7.7-23.5,1.9-35.7c-3-6.1-7.2-11.5-12.4-15.9c-7.2-6.4-15.3-11.6-24-15.4
	c-15.8-7-32.6-11.4-49.7-12.9c-7.6-0.8-15.2-1.1-22.9-0.9c-7.2,0.1-14.5,0.6-21.6,1.6c-11.2,1.4-22.2,3.9-32.8,7.6
	c-10.5,3.5-20.5,8.6-29.5,15.1c-6.8,4.8-12.6,10.9-16.9,18.1c-5.4,9.4-6.9,19.3-3.7,29.7c2.5,8,7.3,14.5,13.3,20.3
	c7.2,6.7,15.4,12.1,24.3,16.1c12.4,5.7,25.4,9.6,38.9,11.7C103.8,185.5,114.3,186.3,124.8,186.2z"/>
<path class="st2" d="M124.8,186.2c-10.5,0.1-21-0.7-31.4-2.5C80,181.6,67,177.6,54.6,172c-8.9-4-17.2-9.5-24.3-16.1
	c-6-5.7-10.8-12.3-13.3-20.3c-3.2-10.4-1.7-20.3,3.7-29.7c4.3-7.1,10.1-13.3,16.9-18.1c9-6.5,19-11.6,29.6-15.1
	c10.7-3.7,21.7-6.2,32.8-7.6c7.2-0.9,14.4-1.4,21.6-1.6c7.6-0.2,15.3,0.2,22.9,0.9c17.2,1.5,34,5.9,49.8,12.9
	c8.7,3.9,16.8,9.1,23.9,15.4c5.1,4.4,9.3,9.9,12.3,15.9c5.8,12.2,5,24.1-1.9,35.7c-4.4,7.1-10.3,13.2-17.2,18
	c-8.9,6.3-18.8,11.2-29.1,14.7c-10,3.4-20.4,5.9-30.9,7.3c-6.8,1-13.6,1.5-20.4,1.7C128.9,186.2,126.9,186.2,124.8,186.2z
	 M84.6,99.3l-0.2,0.2l0,0c-0.8,0.4-1.7,0-2.5,0c-0.6,0.1-1-0.2-1.5-0.4c-3.8-1-7.6-1.7-11.5-2.1c0-0.2-0.2-0.2-0.4-0.2
	c-2.8-0.2-5.6-0.2-8.4,0c-0.1,0-0.3,0-0.3,0.2c-0.1,0-0.3,0.1-0.4,0.1c-5,0.3-9.8,1.7-14.1,4.2c-2.6,1.3-4.7,3.5-5.9,6.3
	c-1.2,2.9-1.2,5.7,1.2,8.2c0.1,0.1,0.2,0.3,0.3,0.4l1,1.3c0.1,0.2,0.3,0.4,0.6,0.4l0,0c0.3,0.4,0.7,0.7,1.6,1.2
	c4.1,1.6,8.5,2.5,12.9,2.5c3.6,0,7.2,0.4,10.8,1.2c0.1,0,0.3,0.1,0.4-0.1l0.4,0.2c-0.2,0.9-0.8,1.6-1.7,2c-2.4,1.2-5.1,1.9-7.8,1.8
	c-4,0.2-8-0.1-11.9-1c-1.6-0.3-3.1-0.9-4.5-1.8c-0.1-0.1-0.1-0.3,0-0.4c0.5,0,0.6-0.3,1-0.6l-1.1-0.5c0-0.3-0.4-0.3-0.5-0.4l0.7-0.5
	c-0.8-0.4-1.5-0.7-2.1-1.1c-0.6-0.4-1-0.2-1.5,0.3c-3,3.6-6,7.1-9,10.7c-0.3,0.3-0.5,0.6-0.7,1l1.4,0.6l-0.1,0.2
	c-0.4,0.2-0.7,0.4,0,0.7c0.3,0.1,0.5,0.2,0.8,0.3c0.8,0.6,1.9,0.5,2.5-0.3c0.3-0.3,0.7-0.4,1.1-0.3c3.7,1.3,7.5,2.1,11.3,2.5
	c6.4,0.9,12.8,0.8,19.1-0.2c4.8-0.8,9.3-2.7,13.1-5.6c2.4-1.7,4.1-4.3,4.8-7.2c0.4-1.4,0.3-3-0.2-4.4l0,0c0.1-0.2,0-0.4-0.1-0.5
	c-0.2-0.5-0.3-1.1-0.9-1.3c-0.4-1-1.1-1.9-2-2.6c-1.4-1.1-3.1-1.9-4.8-2.3c-4.5-1-9.1-1.6-13.8-1.6c-2.4,0-4.7-0.3-7.1-0.7
	c-0.2-0.2-0.4-0.1-0.6-0.2l0,0c0-0.2-0.4-0.1-0.3-0.4c1-0.6,2.1-1,3.2-1.3c5.3-1.2,10.9-1.1,16.2,0.1c1,0.3,2,0.6,3,0.7
	c0.2,0.1,0.3,0.2,0.3,0.3c-0.5,0.9-0.5,0.9,0.4,1.3c0.2,0,0.3,0.1,0.4,0.2l-0.2,0.5c-0.2,0.2-0.3,0.4,0.1,0.6
	c0.5,0.2,1.1,0.4,1.5,0.6c0.5,0.3,0.8,0.1,1.2-0.3c1.9-2.2,3.8-4.5,5.7-6.7l3-3.6l-0.8-0.5l-0.7-0.4c0.6-0.8,0.6-0.8-0.4-1.1
	c-0.5-0.2-1.1-0.3-1.6-0.6c-0.2-0.1-0.4-0.1-0.6,0.1L84.6,99.3L84.6,99.3z M181.6,109.8c-0.4,0.4-0.4,0.7,0.3,0.7
	c0.2,0,0.4,0.1,0.6,0.1l1.1,0.8c0.3,0.3,0.6,0.6,0.9,1c1.7,2.4,3.3,4.7,5,7.1c0.3,0.4,0.2,0.6-0.2,0.9l-2.8,2.2
	c-2.5,1.9-5,3.9-7.5,5.8c-2,1.6-4,3.2-6.1,4.8c-0.1,0-0.2,0-0.2,0.2l0,0c-0.4,0.1-0.9,0-1.3-0.1l0.1-1.1l-0.1-0.1l0,0v-0.4
	c0.3-0.2,0.3-0.6,0.4-0.9c1.6-6,3.2-12,4.6-18c0.3-1.1,0.7-1.7,1.8-2c0.6-0.1,1.1-1.3,0.9-2c-0.4-0.2-0.9,0-1.3-0.1l0.5-1.4h-12.9
	c-0.3,0-0.5,0.1-0.6,0.4c-0.5,1.2-0.5,1.3,0.7,1.7c0.1,0,0.1,0.1,0.1,0.1c0.2,0.3-0.6,0.8,0.2,1l-2.3,8.5l-6.8-8l0.2-0.4
	c0.9,0.2,1-0.4,1.2-1c0.2-1,0.3-1-0.7-0.9l-0.4-0.1c0-0.2,0.1-0.5,0.1-0.7c0.2-0.5,0-0.7-0.5-0.7c-5.3,0-10.5,0-15.8,0
	c-0.4,0-0.7,0.2-0.8,0.6c-0.4,1.2-0.4,1.2,0.7,1.6l0.1,0.1c0,0.4-0.6,0.8,0.1,1.1c-1.8,6.8-3.5,13.5-5.2,20.3
	c-0.1,0.5-0.6,0.9-1.1,0.9c-0.7,0-1.3,0.6-1.3,1.3c0,0,0,0.1,0,0.1c0,0.2-0.1,0.4-0.1,0.6h1.2v0.4c-0.2,1-0.2,1,0.8,1
	c3.7,0,7.5,0,11.2,0c1.1,0,0.8-0.8,1-1.3c0.1-0.5-0.5-0.5-0.8-0.6l-0.3-0.1c0-0.4,0.2-0.7,0.1-1.1l-0.2-0.1l0,0l-0.1-0.4
	c0.1-0.1,0.1-0.1,0.1-0.2l3-11.9c0.1-0.3,0.3,0,0.4,0l0,0l0.2,0.2l1,1.2l7.7,9.1c0.9,1.1,0.7,1.5-0.6,2c-0.3,0.1-0.6,0.1-0.7,0.6
	c-0.4,1.3-0.4,1.3,1,1.4v0.3c0.2,0.3-0.8,1,0.3,1c3.7,0,7.4,0,11.1,0c0.2,0,0.4,0.1,0.2,0.3c-0.5,0.4-0.9,0.8-1.4,1.1
	c-0.9,0.9-2,1.5-3.2,1.8c-0.4,0.1-0.7,0.3-0.7,0.7c0,0.4-0.3,0.5-0.7,0.5c-1.2,0-2.3,0-3.6,0c0.6,0.6,1.4,0.9,2.2,0.8
	c1,0,2.1,0,3.1,0v0.3c-0.2,1-0.2,1,0.8,1h17.5c1.3,0,1.2,0,1.5-1.2c0.2-0.8-0.1-0.9-0.7-0.7c-0.4-0.3,0.1-0.5,0.1-0.7l3.7-3.9
	l6.8-7.2c0.1,0,0.2-0.2,0.4-0.1l2.1,3c0.4,0.5,0.3,0.8-0.4,0.8c-0.7,0-0.9,0.1-1,0.8c-0.2,1.2-0.2,1.2,1,1.2v0.4c0,0.4-0.6,1,0.5,1
	c5.1,0,10.2,0,15.3,0c1.1,0,0.7-0.8,0.8-1.3c0.2-0.5-0.4-0.5-0.7-0.6l-0.2-0.2c0.3-0.8,0.1-1.3-0.8-1.3c-0.4-0.1-0.8-0.4-1.1-0.7
	c-2.5-3.5-5-7-7.5-10.4l0.3-0.3c0.3,0,0.5-0.2,0.7-0.4l8.3-6.8c1.1-1.1,2.6-2,4.1-2.5c0.5-0.4,0.8-1,0.9-1.7c-0.2-0.4-0.6-0.2-1-0.1
	h-0.3c0-0.2,0.1-0.5,0.2-0.7c0.2-0.6,0.1-0.7-0.5-0.7c-4.5,0-9.1,0-13.6,0c-1.1,0-0.8,0.8-0.9,1.3c-0.2,0.5,0.4,0.5,0.7,0.5
	s0.5,0.2,0.3,0.6c-0.1,0.2-0.3,0.3-0.4,0.5c-1.1,0.8-2.2,1.7-3.3,2.6c-0.5,0.5-0.9,0.5-1.3-0.2c-0.4-0.7-0.8-1.1-1.2-1.7l0.2-0.2h1
	c0.6-0.3,1-0.9,0.9-1.6c-0.2-0.5-0.6-0.1-0.9-0.2h-0.2c0-0.2,0.1-0.5,0.2-0.7c0.2-0.5,0-0.7-0.5-0.7h-15.4c-0.2,0-0.5,0-0.6,0.2
	c-0.1,0.2-0.5,0.9-0.4,1.3c0.1,0.4,0.6,0.1,0.9,0.3c0.1,0.1,0.2,0.1,0.3,0.2L181.6,109.8z M140.7,139.1L140.7,139.1
	c1.2,1,2.7,1.5,4.2,1.3c1.2-0.1,2.5,0,3.7,0c0.2,0,0.4,0.1,0.6-0.2c-0.7-0.3-1.3-1.1-2.1-1.1C145,139,142.8,139,140.7,139.1
	L140.7,139.1z M129.3,133.3l-0.2-0.1c0-0.4,0.2-0.7,0.1-1.1l-0.2-0.1l0,0l-0.1-0.4c0.1-0.2,0.1-0.4,0.2-0.5c1.6-6,3.2-12,4.8-18
	c0.3-1.3,0.8-2.2,2.2-2.4c0.7-0.1,0.6-1,0.7-1.5s-0.6-0.1-0.9-0.2h-0.4l0.3-1.3c-0.1-0.2-0.4-0.1-0.5-0.1h-13
	c-0.2,0-0.4-0.1-0.5,0.1c-0.6,1.3-0.6,1.3,0.7,2c0,0.4-0.5,0.8,0.2,1.1c0,0.1,0,0.3-0.1,0.4c-1.7,6.4-3.4,12.8-5,19.3
	c-0.1,0.9-0.8,1.6-1.7,1.7c-0.2,0-0.5,0-0.7,0.4c-0.5,1.2-0.3,1.5,0.9,1.6v0.3c-0.5,1-0.5,1.1,0.6,1.1c4.2,0,8.3,0,12.5,0
	c1.1,0,1-0.7,1.1-1.3C130.4,133.4,129.6,133.6,129.3,133.3L129.3,133.3z M81.2,134.2c-0.2,1-0.2,1,0.8,1c4.4,0,8.7,0,13.1,0
	c1.1,0,0.9-0.8,1-1.3c0.1-0.5-0.5-0.4-0.8-0.6l-0.3-0.1c-0.1-0.4,0.5-0.9-0.1-1.2v-0.5c0.4-1.6,0.9-3.2,1.3-4.8
	c0.1-0.5,0.4-0.7,0.9-0.7c1.8,0,3.7,0,5.5,0c3.5,0.1,7-0.5,10.3-1.7c5-2,7.3-7.3,5.9-11c-0.1-0.4-0.4-0.8-0.7-1.1l0,0L118,112
	c-1-1.9-2.7-3.3-4.8-3.8c-1.7-0.5-3.5-0.7-5.3-0.7c-0.2-0.2-0.4-0.1-0.6-0.1H87.8c-0.2,0-0.4-0.1-0.6,0.1c-0.6,1.4-0.6,1.4,0.8,2
	c-0.1,0.4-0.6,0.9,0.2,1.1c0,0.2,0,0.3-0.1,0.5c-1.8,6.6-3.6,13-5.4,19.6c-0.2,0.7-0.5,1.2-1.3,1.2c-1,0-1.3,0.6-1.3,1.5
	c0,0.2-0.1,0.4-0.1,0.5h1.3L81.2,134.2z M88.9,156.4l-0.1-0.1l1.3-6.1c-1,0.2-2,0.4-2.9,0.9c0.4,0.2,1,0,0.8,0.8
	c-0.6,2.4-1.1,4.8-1.6,7.2c-0.3,1.3-0.3,1.3,1,1.2c0.4,0,0.6-0.1,0.6-0.5c0.1-0.6,0.3-1.2,0.4-1.8c0.1-0.4,0.3-0.7,0.7-0.8
	c0.2,0.8,0.3,1.5,0.5,2.2c0.1,0.7,0.8,1.2,1.5,1.1c0,0,0,0,0.1,0c0.8-0.3,1.5-1,1.7-1.9c0-0.1-0.1-0.2-0.2-0.2
	c-0.2,0-0.2,0.1-0.3,0.2c-0.1,0.1-0.4,0.7-0.8,0.4c-0.8-0.7-0.5-1.8-0.8-2.6c-0.1-0.4,0.2-0.6,0.4-0.7l0.1-0.1
	c0.7-0.5,1.4-1,2.2-1.3h-3.3c0.2,0.4,0.7,0.1,0.8,0.5c0,0.4-0.4,0.5-0.6,0.7C89.9,155.7,89.4,156.1,88.9,156.4L88.9,156.4z
	 M74.7,154L74.7,154c-0.3,1.7-0.6,3.2-1,4.8c-0.1,0.5-0.4,1-1.1,1c-0.2,0-0.4,0-0.4,0.3c0,0.3,0.2,0.2,0.4,0.2
	c1.2-0.1,2.5-0.1,3.7,0c0.1,0,0.3,0,0.3-0.2c0-0.1-0.1-0.3-0.2-0.3c0,0,0,0,0,0c-0.6,0-0.7-0.4-0.6-0.9c0.5-2.2,1-4.5,1.5-6.7
	c0.1-0.5,0.3-1,0.9-1c0.2,0,0.3-0.1,0.3-0.3s-0.2-0.2-0.4-0.2c-0.5,0-1.1,0-1.6,0c-0.5-0.1-0.9,0.2-1.1,0.6c-1,1.7-2.1,3.4-3.1,5.1
	c-0.1,0.2-0.1,0.4-0.4,0.4c-0.4-1.8-0.7-3.6-1.1-5.3c0-0.2,0.1-0.7-0.4-0.7c-0.8,0-1.6,0-2.4,0c-0.1,0-0.2,0-0.2,0.2
	c0,0.2,0,0.3,0.2,0.3c0.8,0,0.7,0.6,0.6,1.1c-0.5,2.2-1,4.3-1.5,6.4c-0.1,0.5-0.2,1-0.9,1.1c-0.2,0-0.3,0.1-0.3,0.3
	c0,0.2,0.3,0.2,0.5,0.2h1.8c0.2,0,0.4,0.1,0.4-0.2c0-0.2-0.1-0.3-0.2-0.3c-0.7-0.1-0.6-0.5-0.5-1c0.1-0.5,0.1-0.8,0.2-1.2
	c0.3-1.3,0.6-2.6,0.8-3.8h0.1l1.3,6.7l0.8-1.2C72.5,157.5,73.5,155.7,74.7,154L74.7,154z M50.9,140.4v-0.1c-1.1-0.7-2.3-1.4-3.3-2.2
	c-1.1-0.8-2.5-1.2-3.9-1.2c-5.8-0.1-11.5-0.2-17.3-0.3c-0.3-0.1-0.7,0-0.9,0.1c1.8,1.1,3.5,2.2,5.3,3.3c0.4,0.3,0.8,0.4,1.3,0.4
	c3.9,0,7.9,0,11.8,0L50.9,140.4z M56.2,137.3v0.1l4.6,2.9c0.2,0.1,0.5,0.2,0.7,0.1h10.9h2.4c-1.4-1-2.8-1.9-4.2-2.7
	c-0.2-0.1-0.5-0.2-0.7-0.1L56.2,137.3z M153.2,150.7h-6.5c-0.2,0-0.4,0-0.4,0.2s0.1,0.3,0.3,0.3c0.6,0,0.6,0.4,0.5,0.8
	c-0.5,2.3-1,4.6-1.5,6.9c-0.1,0.5-0.3,1-1,1c-0.2,0-0.4,0-0.4,0.3c0.1,0.3,0.2,0.1,0.4,0.1h4.9c0.7,0,1.6,0.2,2-0.1s0.4-1.3,0.6-1.9
	c0-0.2,0.3-0.4,0-0.5c-0.3-0.1-0.4,0-0.5,0.2c-0.7,1.5-2.1,1.6-3.5,1.6c-0.4,0-0.4-0.2-0.4-0.5c0.2-0.9,0.4-1.7,0.5-2.6
	c0.1-1,0.8-0.7,1.3-0.7c0.5-0.1,0.8,0.3,0.7,0.8c0,0.1,0,0.3,0.1,0.4c0.1,0.1,0.3-0.1,0.3-0.3c0.2-0.7,0.4-1.5,0.5-2.2
	c0-0.2,0.2-0.4,0-0.5s-0.3,0.1-0.4,0.3c-0.4,0.8-1.2,0.7-1.9,0.7c-0.3,0-0.2-0.2-0.2-0.4c0.2-0.9,0.4-1.8,0.6-2.6
	c0-0.2,0.2-0.4,0.4-0.4c1-0.3,2.1,0.2,2.4,1.2c0,0.1,0,0.1,0.1,0.2c0,0.2,0,0.3,0.3,0.3c0.3,0,0.2-0.2,0.3-0.4
	C153,152.1,153.1,151.4,153.2,150.7z M111.7,154.8c0.1,0,0.2,0,0.2,0c0.3,0.1,0.7,0.3,0.9-0.1c0.1-0.2,0.1-0.5-0.1-0.7
	c-0.4-0.4-0.7,0-1,0.1c-0.2,0.2-0.6,0.2-0.9,0.1c-1.2-0.7-2.8-0.3-3.6,0.8c-0.8,0.9-0.8,2.2,0.1,3c0,0,0.1,0,0.1,0.1
	c-1.6,0.8-1.7,1.1-0.9,2.1c-0.3,0.1-0.6,0.3-0.9,0.4c-0.6,0.2-1,0.9-0.7,1.6c0.1,0.3,0.4,0.6,0.7,0.7c1.6,0.8,3.4,0.7,4.9-0.3
	c0.8-0.4,1-1.4,0.6-2.1c-0.2-0.3-0.5-0.6-0.8-0.7c-0.4-0.2-0.9-0.4-1.3-0.5c-0.4-0.2-1.1-0.2-1.1-0.6c0.1-0.4,0.7-0.2,1.1-0.2
	C111.4,158.2,112.5,156.7,111.7,154.8z M94,140.4l0.1-0.2c-1-0.6-2-1.3-3-1.9c-0.4-0.3-1-0.4-1.5-0.4c-3.3,0-6.6-0.1-9.8-0.2
	c-0.4,0-0.8-0.2-1.2,0.1l3.8,2.4c0.2,0.1,0.5,0.2,0.7,0.2H94z M119.9,160.3L119.9,160.3h1.4c2.3,0,2.3,0,3.1-2.1
	c0.1-0.2,0.4-0.5,0.1-0.7c-0.3-0.2-0.5,0.2-0.7,0.5c-0.7,1-1.9,1.6-3.2,1.6c-0.6,0-0.7-0.1-0.6-0.7c0.5-2.2,1-4.4,1.4-6.6
	c0.1-0.5,0.3-1,0.9-1.1c0.2,0,0.3-0.1,0.3-0.3c0-0.2-0.2-0.2-0.3-0.2h-3.6c-0.2,0-0.4,0-0.4,0.2c0,0.2,0.2,0.2,0.3,0.3
	c0.4,0,0.6,0.3,0.5,0.7c-0.5,2.4-1.1,4.7-1.6,7.1c-0.1,0.5-0.3,0.8-0.9,0.9c-0.2,0-0.4,0-0.4,0.3s0.3,0.2,0.5,0.2L119.9,160.3z
	 M100.9,155.9c0.1-0.5,0.2-1,0.4-1.6c0-0.2,0.1-0.5-0.3-0.4l-2.3,0.5c-0.1,0-0.3,0.1-0.3,0.3c0,0.2,0.1,0.2,0.2,0.2
	c0.7,0,0.6,0.3,0.5,0.8c-0.3,1.3-0.6,2.6-0.9,3.9c0,0.2-0.2,0.5,0.1,0.7c0.7,0.3,1.4-0.1,1.7-0.7c0-0.1,0-0.1,0.1-0.2
	c0.2-1.4,0.9-2.7,1.9-3.6c0.2-0.2,0.4-0.5,0.7-0.3c0.3,0.1,0.1,0.5,0.1,0.7c-0.2,1-0.7,2-0.8,3.1c-0.1,0.8,0.2,1.2,1.1,1.2
	c1.1-0.2,2-1,2.3-2.1c0-0.1,0-0.2-0.1-0.3c-0.1-0.1-0.2,0-0.3,0.1c-0.1,0.1-0.2,0.3-0.3,0.4c-0.1,0.1-0.2,0.4-0.4,0.3
	c-0.2-0.1-0.2-0.3-0.1-0.5c0.2-0.9,0.4-1.8,0.7-2.6c0.1-0.6,0.4-1.2-0.2-1.6c-0.6-0.4-1.2-0.1-1.7,0.2c-0.2,0.1-0.4,0.3-0.5,0.4
	L100.9,155.9z M85.2,153.7c-0.7,0.4-1.3-0.2-2,0.4c-0.4,0.4-1.1-0.6-1.8-0.3h-0.2c-2.1,0.9-3.4,3-3.2,5.3c0.1,0.8,0.8,1.4,1.6,1.3
	c0,0,0,0,0,0c1.1,0,1.6-0.8,2.3-1.5c0.1,1.5,0.9,2,2.1,1.2c0.5-0.4,0.9-0.9,1.2-1.5c0.1-0.2,0.3-0.4,0-0.6c-0.3-0.2-0.3,0.2-0.4,0.3
	c-0.1,0.1-0.3,0.7-0.7,0.5c-0.3-0.2,0-0.5,0-0.8C84.4,156.7,84.8,155.3,85.2,153.7L85.2,153.7z M157.1,159c0.1,0.6-0.1,1.2,0.5,1.3
	c0.6,0.2,1.3,0.1,1.8-0.4c0.4-0.3,0.7-0.7,0.9-1.2c0.1-0.2,0.5-0.5,0.1-0.7c-0.4-0.2-0.3,0.3-0.5,0.4c-0.2,0.1-0.3,0.5-0.6,0.4
	c-0.3-0.1-0.1-0.4,0-0.7c0.3-1.2,0.7-2.5,1-3.7c0.1-0.4,0.1-0.7-0.4-0.6c-0.5,0.1-1.2-0.4-1.5,0.5c-0.5-0.2-1-0.7-1.6-0.5h-0.3
	c-2.2,0.8-3.5,3-3.2,5.4c0.1,0.7,0.7,1.2,1.4,1.2C155.8,160.5,156.4,159.8,157.1,159L157.1,159z M133.3,152.1c0-0.2,0-0.4,0.1-0.6
	c0.1-0.2,0-0.4,0.2-0.4s0.3,0.1,0.4,0.3c0.2,0.4,0.6,0.7,1.1,0.5c0.4-0.1,0.6-0.5,0.5-0.9c-0.1-0.5-0.5-0.9-1-0.9
	c-0.9-0.1-1.7,0.4-2.1,1.1c-0.5,0.7-0.8,1.5-1,2.4c-0.1,0.6-0.3,0.7-0.8,0.6c-0.2,0-0.7-0.2-0.7,0.2s0.4,0.2,0.6,0.3
	c0.2,0,0.6-0.1,0.5,0.4c-0.5,2.1-0.8,4.2-0.9,6.3c0,0.3,0,0.6-0.4,0.7c-0.4,0.1-0.4-0.2-0.6-0.4c-0.2-0.3-0.6-0.5-0.9-0.4
	c-0.4,0.1-0.6,0.6-0.5,1c0.1,0.8,1,1.1,2,0.7c0.8-0.4,1.4-1.1,1.6-2c0.7-1.8,1.2-3.6,1.5-5.5c0.1-0.5,0.2-1,0.9-0.9
	c0.2,0,0.5,0.1,0.5-0.2c0-0.4-0.3-0.3-0.5-0.3c-0.2,0-0.7,0-0.6-0.4C133.5,153.3,133.5,152.7,133.3,152.1L133.3,152.1z M97.9,138.1
	c0.9,0.6,1.8,1.2,2.7,1.8c0.4,0.3,0.9,0.5,1.5,0.5c1.9,0,3.8,0,5.8,0h2.6c-0.9-0.8-1.9-1.5-2.9-2.1c-0.2-0.1-0.4-0.1-0.6-0.1
	L97.9,138.1z M173.6,160.5c1.3,0.1,2.4-0.5,3.1-1.6c0.1-0.2,0.5-0.4,0.2-0.7c-0.3-0.2-0.4,0.2-0.6,0.4c-0.5,0.5-1.1,0.8-1.8,0.7
	c-0.6,0-1.1-0.5-1.1-1.2c0,0,0,0,0,0c0-0.7,0.6-0.5,1-0.5c0.9,0,1.8-0.3,2.5-0.8c0.7-0.4,1-1.2,0.8-2c-0.2-0.8-0.9-0.9-1.6-1
	c-2.4,0-4.4,1.8-4.6,4.2C171.4,159.6,172.1,160.5,173.6,160.5z M134.3,158.3c0,1.5,0.6,2.1,2.1,2.2c1.3,0,2.5-0.6,3.2-1.7
	c0.1-0.2,0.4-0.3,0.1-0.6s-0.4,0.1-0.5,0.2c-0.5,0.6-1.3,0.9-2,0.8c-0.6-0.1-1-0.6-1-1.2c0-0.7,0.6-0.4,1-0.4c0.9,0,1.7-0.3,2.5-0.7
	c0.7-0.4,1.1-1.3,0.9-2.1c-0.3-0.8-0.9-0.9-1.6-0.9C136.4,153.9,134.4,155.8,134.3,158.3L134.3,158.3z M166,156
	c0.2-0.5,0.3-1,0.3-1.6c0-0.2,0-0.4-0.3-0.4c-0.7,0-1.3-0.2-2-0.2c-0.7-0.1-1.3,0.3-1.7,0.9c-0.3,0.6-0.2,1.4,0.3,1.9
	c0.5,0.6,1.1,1.1,1.6,1.7c0.3,0.3,0.6,0.6,0.3,1.1c-0.4,0.5-0.8,0.3-1.3,0.1c-0.5-0.3-0.9-0.9-1-1.5c0-0.1,0-0.4-0.3-0.3
	s-0.2,0.2-0.2,0.3c-0.1,0.6-0.2,1.2-0.2,1.8c0,0.2,0,0.3,0.2,0.3c0.8,0,1.7,0.2,2.5,0.2c1,0,1.8-0.7,1.9-1.7
	c0.1-0.7-0.1-1.4-0.6-1.8c-0.5-0.5-1-1-1.4-1.5c-0.2-0.2-0.2-0.6,0-0.8c0.2-0.2,0.5-0.3,0.7-0.2c0.4,0.1,0.8,0.4,0.9,0.8
	C165.6,155.4,165.6,155.8,166,156L166,156z M125.6,140.6v-0.2c-0.6-0.4-1.2-0.8-1.8-1.2c-0.5-0.4-1.2-0.7-1.9-0.6
	c-1.7,0-3.4-0.1-5.1-0.1c-0.8,0-1.5,0-2.5,0l2.4,1.7c0.2,0.2,0.5,0.4,0.8,0.4L125.6,140.6z M181.3,153.9l-2.4,0.5
	c-0.1,0-0.2,0.1-0.3,0.2c0,0.2,0.1,0.2,0.3,0.2c0.7,0,0.5,0.4,0.4,0.8c-0.3,1.3-0.6,2.7-0.9,4.1c0,0.2-0.2,0.4,0.1,0.6
	c0.7,0.3,1.4,0,1.7-0.7c0-0.1,0.1-0.1,0.1-0.2c0.1-1.2,0.5-2.3,1.2-3.2c0.3-0.3,0.5-0.7,0.9-0.1c0.3,0.3,0.7,0.3,0.9,0
	c0.4-0.3,0.7-0.8,0.6-1.4c0-0.3-0.3-0.6-0.6-0.7c-0.5-0.1-1,0.1-1.3,0.5c-0.4,0.4-0.5,0.9-1,1.2C181,155,181.3,154.5,181.3,153.9z
	 M128.8,153.9l-2.8,0.6c-0.2,0-0.3,0-0.4,0.3s0,0.2,0.2,0.2c0.9,0,0.6,0.6,0.5,1c-0.3,1.1-0.6,2.2-0.8,3.2s0.2,1.3,1.1,1.3
	s1.6-0.9,2-1.7c0.1-0.2,0.4-0.4,0.1-0.6c-0.3-0.2-0.4,0.2-0.5,0.4c-0.1,0.1-0.3,0.5-0.6,0.4c-0.3-0.1-0.1-0.4,0-0.7L128.8,153.9z
	 M170.4,153.9l-2.9,0.6c-0.1,0-0.3,0-0.3,0.2c-0.1,0.2,0,0.2,0.2,0.2c1,0,0.7,0.6,0.5,1.1c-0.3,1.1-0.6,2.2-0.8,3.2
	c-0.2,1.1,0.2,1.3,1.1,1.3c1.2,0,1.6-0.9,2.1-1.8c0.1-0.2,0.4-0.4,0.1-0.6c-0.2-0.2-0.4,0.2-0.5,0.3c-0.2,0.1-0.3,0.6-0.6,0.4
	s-0.1-0.4,0-0.7C169.7,156.7,170,155.3,170.4,153.9L170.4,153.9z M94.9,160.5c1.2,0,1.7-0.9,2.2-1.8c0.1-0.2,0.3-0.4,0.1-0.6
	s-0.3,0.2-0.5,0.3s-0.3,0.6-0.6,0.4s-0.1-0.5,0-0.7c0.3-1.2,0.6-2.4,0.9-3.7c0-0.2,0.3-0.6-0.2-0.5c-0.9,0.1-1.7,0.3-2.6,0.5
	c-0.1,0-0.2,0.1-0.2,0.2c-0.1,0.1,0.1,0.2,0.1,0.2c1.2,0,0.6,0.8,0.5,1.3c-0.3,1-0.6,2.1-0.7,3.2C93.8,160.2,94,160.5,94.9,160.5
	L94.9,160.5z M138.1,140.4c-1-0.8-1.8-1.7-3.3-1.7c-2,0.1-4,0-6.1,0c0.5,0.4,1,0.7,1.5,1c0.5,0.3,0.7,0.6,1.2,0.6L138.1,140.4z
	 M158.7,140.4c-0.8-0.8-1.9-1.3-3.1-1.1c-1.5,0.1-3,0-4.6,0c0.7,0.4,1.3,1.1,2.1,1.1C154.9,140.4,156.8,140.4,158.7,140.4
	L158.7,140.4z M219.5,110.2c-1.3,0-2.3,1-2.4,2.3c0,0,0,0.1,0,0.1c0,1.3,1.1,2.4,2.4,2.4c0,0,0,0,0,0c1.3,0,2.3-1,2.3-2.3
	c0,0,0,0,0-0.1c0.1-1.3-0.9-2.3-2.1-2.4C219.6,110.2,219.5,110.2,219.5,110.2L219.5,110.2z M97.4,151.6c0-0.6-0.4-1.1-1-1.1
	c0,0,0,0-0.1,0c-0.7,0-1,0.5-1,1.1c-0.1,0.5,0.3,0.9,0.8,1c0.1,0,0.1,0,0.2,0c0.5,0.1,1-0.3,1.1-0.9
	C97.4,151.7,97.4,151.6,97.4,151.6z M129.1,151.6c0-0.6-0.4-1-1-1.1c0,0-0.1,0-0.1,0c-0.7,0-0.9,0.5-0.9,1.1c0,0.5,0.3,0.9,0.8,1
	c0.1,0,0.1,0,0.2,0C128.7,152.6,129.2,152.3,129.1,151.6L129.1,151.6z M169.7,152.6c0.6-0.1,1.1-0.3,1.1-1c0-0.6-0.5-1.1-1-1.1
	c0,0-0.1,0-0.1,0c-0.7,0-0.9,0.5-0.9,1.1C168.7,152.3,169.1,152.6,169.7,152.6z"/>
<path class="st0" d="M31,132.9l-1.4-0.6c0.2-0.4,0.4-0.7,0.7-1c3-3.6,6-7.1,9-10.7c0.4-0.5,0.8-0.7,1.5-0.3c0.7,0.4,1.3,0.6,2.1,1.1
	l-0.7,0.5c-0.8,0.6-0.8,0.8-0.2,1.4c0.2,0.2,0.5,0.4,0.8,0.5c1.4,0.9,2.9,1.5,4.5,1.8c3.9,0.9,7.9,1.3,11.9,1c2.7,0,5.4-0.6,7.8-1.8
	c0.9-0.3,1.5-1.1,1.7-2c0.1-0.8-0.6-1.1-1.1-1.3c-1.4-0.6-2.8-0.9-4.3-1c-3.3-0.4-6.6-0.3-9.9-0.7c-4.3-0.4-8.6-0.9-12.2-3.5
	c0,0-0.1,0-0.2,0c-0.1-0.1-0.2-0.3-0.3-0.4c-2.4-2.4-2.4-5.3-1.2-8.2c1.2-2.7,3.2-4.9,5.9-6.3c4.3-2.5,9.1-4,14-4.3
	c0.1,0,0.3,0,0.4-0.1c3-0.3,6.1-0.3,9.1,0c3.9,0.3,7.8,1,11.5,2.1c0.5,0.1,1,0.4,1.5,0.4c0.8,0.2,1.7,0.7,2.5,0l0,0l0.2-0.2l0,0
	l0.2-0.3c0.1-0.2,0.4-0.2,0.6-0.1c0.5,0.2,1.1,0.4,1.6,0.6c1,0.3,1,0.4,0.4,1.1c-2.6,3.1-5.3,6.1-7.9,9.2c-0.6,0.7-1.2,1.1-2,0.6
	c-0.1-0.1-0.3-0.2-0.4-0.2c-0.9-0.4-1-0.4-0.4-1.3c0.6-0.5,0.4-0.9-0.2-1.2c-0.5-0.2-1-0.5-1.5-0.6c-4.9-1.5-10-2-15.1-1.4
	c-2.1,0.1-4.2,0.7-6.1,1.6c-0.6,0.3-1.4,0.7-1.3,1.4c0.1,0.7,1,0.7,1.7,0.8l0,0c0.2,0.2,0.4,0.2,0.6,0.2c2.3,0.5,4.7,0.7,7.1,0.7
	c4.6,0,9.2,0.6,13.8,1.6c1.8,0.4,3.4,1.2,4.9,2.3c0.9,0.7,1.6,1.6,2,2.6c0.6,1.4,0.7,2.9,0.4,4.4c-0.7,3.4-2.7,6.4-5.6,8.2
	c-4.7,3.2-10.2,5.1-16,5.5c-5,0.5-10,0.4-15-0.2c-4-0.4-8-1.2-11.8-2.5c-0.5-0.2-1,0-1.3,0.3C32.6,133.2,31.7,133.3,31,132.9z"/>
<path class="st0" d="M140.9,109.6l-0.1-0.1c-1.2-0.4-1.1-0.4-0.7-1.6c0.1-0.4,0.4-0.6,0.8-0.6c5.3,0,10.5,0,15.8,0
	c0.5,0,0.7,0.1,0.5,0.7c-0.1,0.2-0.1,0.5-0.1,0.7c-0.1,0.2-0.2,0.4-0.5,0.5c-0.9,0.3-1,0.5-0.3,1.3c0.2,0.2,0.4,0.4,0.5,0.5l6.8,8
	l2.2-8.6c0.1-0.4,0.4-0.8-0.2-1c0,0-0.1-0.1-0.1-0.1c-1.2-0.5-1.2-0.6-0.7-1.7c0.1-0.2,0.3-0.4,0.6-0.4h12.9l-0.5,1.4
	c-0.2,0.5-0.5,0.6-1,0.7c-0.7,0.1-1.2,0.6-1.4,1.2c-1.7,6.6-3.5,13.3-5.3,19.9c-0.3,1.2-0.2,1.4,1.1,1.5l0,0l0.1,0.1l-0.1,1.1
	c-0.1,0.6-0.5,0.7-1,0.7c-4,0-8,0-12,0c-1.4-0.1-1.4,0-1-1.4c0.1-0.4,0.4-0.5,0.7-0.6c1.3-0.5,1.5-0.9,0.6-2l-7.7-9.1l-0.9-1.1
	c0-0.1,0-0.2-0.2-0.2l0,0c-0.3-0.6-0.8-1.2-1.3-1.7c-0.1,0.3-0.2,0.5-0.2,0.8l-3.1,11.8c-0.3,1.3-0.2,1.5,1.1,1.6l0,0l0.2,0.1
	c0.1,0.4-0.1,0.7-0.1,1.1c0,0.6-0.4,0.7-1,0.7c-3.7,0-7.3,0-10.9,0h-1.2c0.1-0.2,0.1-0.4,0.1-0.6c-0.1-0.7,0.5-1.4,1.2-1.4
	c0,0,0.1,0,0.1,0c0.5,0,1-0.4,1.1-0.9c1.8-6.8,3.5-13.5,5.2-20.3C141.1,110.3,141.5,109.9,140.9,109.6z"/>
<path class="st0" d="M172.8,133.2c2-1.6,4-3.2,6.1-4.8c2.5-2,5-3.9,7.5-5.8l2.8-2.2c0.3-0.2,0.5-0.4,0.2-0.9c-1.7-2.3-3.3-4.7-5-7.1
	c-0.2-0.4-0.6-0.7-0.9-1c-0.4-0.9-1-1.5-1.8-2c-0.1-0.1-0.2-0.1-0.3-0.2c-0.3-0.2-0.8,0-0.9-0.3c-0.1-0.3,0.2-0.9,0.4-1.3
	c0.1-0.4,0.4-0.2,0.6-0.2h15.4c0.5,0,0.7,0.2,0.5,0.7c-0.1,0.2-0.1,0.5-0.2,0.7c-0.1,0.2-0.2,0.4-0.6,0.4c-0.3,0-1.1-0.1-1.2,0.3
	s0.3,0.9,0.6,1.3c0.1,0.1,0.1,0.1,0.2,0.2c0.4,0.6,0.9,1.1,1.2,1.7c0.3,0.6,0.8,0.7,1.3,0.2c1-0.9,2.1-1.8,3.3-2.6
	c0.2-0.1,0.3-0.3,0.4-0.5c0.3-0.4,0.2-0.6-0.3-0.6c-0.5,0-0.9,0.1-0.7-0.5c0.2-0.6-0.1-1.3,0.9-1.3c4.5,0,9.1,0,13.6,0
	c0.6,0,0.8,0.1,0.5,0.7c-0.1,0.2-0.1,0.5-0.2,0.7c-0.1,0.2-0.2,0.4-0.5,0.4c-1.3,0.3-2.6,1-3.5,2c-3,2.3-5.9,4.7-8.8,7.1
	c-1.3,1.1-1.3,1.1-0.2,2.4c2.5,3.5,5,7,7.5,10.4c0.2,0.4,0.6,0.7,1.1,0.7c0.9,0.1,1.1,0.6,0.8,1.3c-0.1,0.6-0.5,0.7-1,0.7
	c-4.9,0-9.7,0-14.6,0c-1.2,0-1.1,0-1-1.2c0.1-0.7,0.4-0.8,1-0.8c0.6,0,0.8-0.3,0.4-0.8l-2.1-3c-0.2-0.4-0.4-0.8-0.7-1.1
	c-0.2-0.3-0.4-0.3-0.6,0c-0.2,0.3-0.4,0.3-0.4,0.6l-0.2,0.2l-0.2,0.2l-0.2,0.2l-0.2,0.2l-0.3,0.2l-0.2,0.2l-0.2,0.2l-0.2,0.2
	c-0.6,0.6-1.2,1.3-1.8,1.9l-0.2,0.2l-0.2,0.2c-0.2,0.1-0.3,0.2-0.4,0.4l-0.2,0.2l-2.5,2.6l0.2,0.2c0.8-0.9,1.7-1.7,2.4-2.6l0.2-0.2
	c0.2-0.1,0.3-0.2,0.4-0.4l0.2-0.2l0.2-0.2c0.6-0.6,1.2-1.2,1.8-1.9l0.2-0.2l0.2-0.2l0.2-0.2c0.1-0.1,0.3-0.1,0.2-0.4
	c0.1,0.1,0.2,0,0.3-0.1l0.2-0.2l0.2-0.2l0.1-0.2c0.3-0.3,0.6-0.4,0.9,0.1c0.1,0.2,0.2,0.4,0.4,0.5l-6.8,7.2l-3.7,3.9
	c-0.1-0.4,0.7-1.2-0.5-1.3l2.9-3.2l-0.2-0.1c-1.3,1.2-2.4,2.6-3.5,3.9c1.1-0.2,1.1,0.1,1,0.9c-0.1,0.8-0.4,1.1-1.3,1.1
	c-1.8-0.1-3.5,0-5.3,0h-12.3c-1,0-2.1-0.1-3.1,0c-0.8,0.1-1.6-0.2-2.2-0.8c1.3,0,2.4,0,3.6,0c0.4,0,0.7,0.1,0.7-0.5
	c0-0.6,0.3-0.7,0.7-0.7c1.2-0.3,2.3-0.9,3.2-1.8c0.5-0.4,0.9-0.8,1.4-1.1c1-0.6,2-1.4,2.8-2.2l0,0L172.8,133.2z M172.6,137.7
	l0.1,0.2c0.9,0,1.8-0.1,2.7,0c1,0.1,2-0.2,2.6-1c1.2-1.2,2.5-2.3,3.9-3.6c-2.1,0.1-4.1-0.5-5.6,1.3c-0.5,0.5-1.1,1-1.7,1.4
	L172.6,137.7z M187.9,127.8c-0.9,0-1.6,0-2.3,0c-0.4,0-0.9-0.2-1.2,0.1c-1.2,1-2.4,2-3.8,3.2h3.1c0.2,0,0.5,0.1,0.7-0.1L187.9,127.8
	z M192.5,123.6l-0.1-0.2c-1.1,0.2-2.2-0.4-3.2,0.5c-1,0.9-1.7,1.4-2.5,2.1c0.8,0.1,1.7,0.2,2.5,0.2c0.2,0,0.5,0,0.7-0.2L192.5,123.6
	z M196.7,119.8c-2.2-0.7-3.4,0.7-4.7,2C194.1,122.5,195.5,121.2,196.7,119.8L196.7,119.8z M196.3,117.9c1.6,0.5,3.3-0.3,4-1.9
	C198.4,115.8,197.9,116.1,196.3,117.9L196.3,117.9z M203.6,113.3c-1.3-0.3-2.7,0.3-3.4,1.5C202.1,115,202.3,115,203.6,113.3
	L203.6,113.3z M206.5,110.9c-1.5-0.5-2.2,0.5-3.1,1.3C204.8,112.7,205.5,111.7,206.5,110.9L206.5,110.9z M208.8,108.8
	c-1.3-0.4-2,0.6-2.8,1.2C207.4,110.4,208,109.4,208.8,108.8L208.8,108.8z"/>
<path class="st0" d="M81.2,133.9h-1.3c0.1-0.2,0.1-0.3,0.1-0.5c0-0.9,0.4-1.4,1.3-1.5c0.7,0,1.1-0.5,1.3-1.2
	c1.8-6.6,3.6-13,5.4-19.6c0.1-0.2,0.1-0.4,0.2-0.6c0.1-0.4,0.5-0.9-0.2-1.1c-1.3-0.6-1.3-0.6-0.8-2h20.6c1.8,0,3.5,0.2,5.3,0.7
	c2.1,0.5,3.9,1.9,4.8,3.8c0,0.1,0,0.2,0.1,0.2l0,0c0.1,0.6,0.2,1.2,0.2,1.7c0,3.5-2,6.8-5.2,8.3c-2.5,1.2-5.3,1.9-8.1,2.1
	c-3,0.2-5.9,0.3-8.9,0.2c-0.4-0.1-0.9,0.2-0.9,0.7c0,0,0,0.1,0,0.1c-0.4,1.8-0.9,3.5-1.4,5.3c-0.3,1.2-0.2,1.3,1.1,1.5
	c0.6,0.3,0,0.8,0.1,1.2c0.1,0.4-0.3,0.7-0.9,0.7C89.7,133.9,85.5,133.9,81.2,133.9z M98,118.7c2.5,0.2,5,0,7.5-0.4
	c1.1-0.3,2-1.2,2.1-2.4c0.1,0.1,0.2,0.1,0.2,0c0,0,0.1-0.1,0.1-0.1c0.1-1-0.3-1.6-1.4-1.8c-2.6-0.3-5.2-0.4-7.9-0.3
	c-0.5,0-0.4,0.3-0.5,0.6c-0.4,1.3-0.6,2.5-1.1,3.8c-0.2,0.7,0,0.8,0.6,0.8L98,118.7z"/>
<path class="st0" d="M129.3,132.1c0.1,0.4-0.1,0.7-0.1,1.1s-0.4,0.7-0.9,0.7c-4.1,0-8.2,0-12.2,0c-1.3-0.1-1.4-0.3-0.9-1.6
	c0.1-0.4,0.4-0.3,0.7-0.4c0.9-0.1,1.6-0.8,1.7-1.7c1.6-6.4,3.3-12.8,5-19.3c0-0.1,0-0.3,0.1-0.4c0.1-0.4,0.5-0.8-0.2-1.1
	c-1.3-0.7-1.3-0.7-0.7-2h14.1l-0.3,1.3c-0.1,0.3-0.4,0.4-0.6,0.5c-1.2,0.1-1.6,0.9-1.9,1.9c-1.7,6.4-3.4,12.8-5.1,19.2
	c-0.3,1.2-0.2,1.4,1.1,1.6l0,0L129.3,132.1z"/>
<path class="st0" d="M50.9,140.4h-7.2c-3.9,0-7.9,0-11.8,0c-0.5,0-0.9-0.1-1.3-0.4c-1.7-1.1-3.4-2.2-5.3-3.3
	c0.3-0.2,0.6-0.2,0.9-0.1c5.8,0.1,11.5,0.3,17.3,0.3c1.4-0.1,2.8,0.3,3.9,1.2c1.1,0.8,2.2,1.5,3.3,2.2L50.9,140.4z"/>
<path class="st0" d="M83.5,118.6c0.6,1.4,0.7,2.9,0.2,4.4c-0.7,2.9-2.3,5.5-4.8,7.2c-3.9,2.9-8.4,4.8-13.1,5.6
	c-6.3,1-12.8,1.1-19.1,0.2c-3.9-0.4-7.7-1.2-11.3-2.5c-0.4-0.2-0.9,0-1.1,0.3c-0.6,0.7-1.7,0.9-2.5,0.3c-0.2-0.1-0.5-0.2-0.8-0.3
	c-0.7-0.2-0.4-0.4,0-0.7c0.7,0.5,1.6,0.5,2.2-0.2c0.3-0.3,0.6-0.6,1.2-0.4c3.8,1.3,7.7,2.1,11.6,2.5c6.2,0.8,12.6,0.8,18.8-0.2
	c4.6-0.7,8.9-2.4,12.7-5.1c2.8-1.8,4.8-4.6,5.7-7.8C83.3,120.8,83.4,119.7,83.5,118.6z"/>
<path class="st0" d="M74.7,154c-1.2,1.7-2.3,3.5-3.4,5.3l-0.8,1.2l-1.3-6.7h-0.1c-0.3,1.3-0.6,2.5-0.8,3.8c-0.1,0.4-0.1,0.8-0.2,1.2
	c-0.1,0.4-0.2,0.9,0.5,1c0.2,0,0.3,0.1,0.2,0.3c0,0.2-0.2,0.2-0.4,0.2h-1.8c-0.2,0-0.4,0.1-0.5-0.2c0-0.3,0.1-0.3,0.3-0.3
	c0.6-0.1,0.7-0.6,0.9-1.1c0.5-2.2,1-4.3,1.5-6.4c0.1-0.5,0.2-1-0.6-1.1c-0.2,0-0.2-0.2-0.2-0.3c0-0.1,0.1-0.2,0.2-0.2
	c0.8,0,1.6,0,2.4,0c0.4,0,0.3,0.5,0.4,0.7c0.4,1.8,0.7,3.6,1.1,5.3c0.3,0,0.3-0.3,0.4-0.4c1.1-1.7,2.1-3.4,3.1-5.1
	c0.2-0.4,0.7-0.7,1.1-0.6c0.5,0,1.1,0,1.6,0c0.1,0,0.4,0,0.4,0.2c0,0.2-0.1,0.3-0.3,0.3c-0.6,0-0.8,0.5-0.9,1
	c-0.5,2.2-1,4.5-1.5,6.7c-0.1,0.5,0,0.9,0.6,0.9c0.1,0,0.2,0.1,0.2,0.2c0,0,0,0,0,0c0,0.2-0.2,0.2-0.3,0.2c-1.2-0.1-2.5-0.1-3.7,0
	c-0.2,0-0.4,0-0.4-0.2s0.2-0.3,0.4-0.3c0.7,0,0.9-0.5,1.1-1c0.4-1.6,0.7-3.2,1.1-4.7c0.1-0.1,0.1-0.2,0-0.3L74.7,154z"/>
<path class="st0" d="M56.2,137.3l13.6,0.3c0.3,0,0.5,0,0.7,0.1c1.4,0.8,2.8,1.7,4.2,2.7h-2.4H61.5c-0.2,0-0.5,0-0.7-0.1L56.2,137.3
	L56.2,137.3z"/>
<path class="st0" d="M118.8,113.3c1.4,3.7-0.9,9-5.9,11c-3.3,1.2-6.8,1.7-10.3,1.7c-1.8,0-3.7,0-5.5,0c-0.5,0-0.8,0.1-0.9,0.7
	c-0.4,1.6-0.9,3.2-1.3,4.8c-0.9,0-1,0-0.7-0.9c0.5-1.7,0.9-3.3,1.4-5c0-0.4,0.4-0.7,0.8-0.7c0,0,0.1,0,0.1,0c2,0,3.9,0,5.9,0
	c3.4,0,6.8-0.6,10-1.8c3.7-1.4,6.3-4.9,6.5-8.9C118.6,113.9,118.3,113.5,118.8,113.3z"/>
<path class="st0" d="M153.2,150.7c-0.1,0.7-0.2,1.4-0.3,2.1c0,0.2,0,0.4-0.3,0.4s-0.2-0.2-0.3-0.3c-0.2-1-1.2-1.7-2.3-1.4
	c-0.1,0-0.1,0-0.2,0.1c-0.2,0-0.3,0.2-0.4,0.4c-0.2,0.9-0.4,1.8-0.6,2.6c0,0.2-0.1,0.4,0.2,0.4c0.7,0,1.5,0.2,1.9-0.7
	c0.1-0.2,0.2-0.4,0.4-0.3c0.2,0.1,0.1,0.3,0,0.5c-0.2,0.7-0.3,1.5-0.5,2.2c0,0.2-0.1,0.3-0.3,0.3c-0.2-0.1-0.1-0.2-0.1-0.4
	c0-0.5-0.1-0.9-0.7-0.8c-0.6,0.1-1.3-0.3-1.3,0.7c-0.1,0.9-0.3,1.8-0.5,2.6c-0.1,0.4,0,0.5,0.4,0.5c1.4,0,2.8-0.1,3.5-1.6
	c0.1-0.2,0.2-0.3,0.5-0.2s0.1,0.3,0,0.5c-0.2,0.7-0.2,1.6-0.6,1.9c-0.4,0.3-1.3,0.1-2,0.1h-4.9c-0.2,0-0.4,0-0.4-0.1
	c-0.1-0.1,0.2-0.3,0.4-0.3c0.7,0,0.9-0.5,1-1c0.5-2.3,1-4.6,1.5-6.9c0.1-0.4,0-0.8-0.5-0.8c-0.2,0-0.3-0.1-0.3-0.3s0.2-0.2,0.4-0.2
	L153.2,150.7z"/>
<path class="st0" d="M111.7,154.8c0.8,1.9-0.3,3.4-2.5,3.6c-0.4,0-1-0.3-1.1,0.2c-0.1,0.5,0.6,0.5,1.1,0.6c0.4,0.1,0.9,0.3,1.3,0.5
	c0.8,0.3,1.2,1.2,0.9,2.1c-0.1,0.3-0.4,0.6-0.7,0.8c-1.5,1-3.3,1.1-4.9,0.3c-0.6-0.2-1-0.9-0.7-1.6c0.1-0.3,0.4-0.6,0.7-0.7
	c0.3-0.2,0.6-0.3,0.9-0.4c-0.9-1-0.8-1.3,0.9-2.1c-0.9-0.8-1-2.1-0.2-3c0,0,0-0.1,0.1-0.1c0.9-1.1,2.4-1.4,3.6-0.8
	c0.3,0.1,0.6,0.1,0.9-0.1c0.3-0.2,0.6-0.5,1-0.1c0.2,0.2,0.2,0.5,0.1,0.7c-0.3,0.4-0.6,0.2-0.9,0.1
	C111.9,154.7,111.9,154.7,111.7,154.8z M108.7,162.8c0.2,0,0.3,0,0.5,0c0.4-0.1,0.9-0.2,1-0.8c0.1-0.5-0.3-0.8-0.7-1s-1-0.4-1.5-0.6
	c-0.5-0.2-0.8,0.1-1,0.5C106.5,161.9,107.3,162.8,108.7,162.8z M110.4,155.3c0-0.5,0-0.8-0.3-0.9c-0.4-0.1-0.7,0-0.9,0.3
	c-0.4,0.6-0.7,1.3-0.7,2.1c0,0.3,0,0.7,0.3,0.9c0.3,0.1,0.7-0.1,0.9-0.4C110,156.7,110.3,156,110.4,155.3L110.4,155.3z"/>
<path class="st0" d="M88.9,156.4c0.5-0.3,1-0.7,1.5-1.1c0.2-0.2,0.7-0.3,0.6-0.7c0-0.4-0.6-0.1-0.8-0.5h3.2
	c-0.8,0.3-1.5,0.8-2.2,1.3l-0.1,0.1c-0.3,0.2-0.5,0.3-0.4,0.7c0.3,0.9,0,2,0.8,2.6c0.3,0.3,0.6-0.2,0.8-0.4c0.2-0.2,0.1-0.3,0.3-0.2
	c0.1,0,0.2,0.1,0.2,0.2c-0.2,0.9-0.8,1.6-1.7,2c-0.7,0.2-1.4-0.3-1.6-1c0,0,0,0,0-0.1c-0.2-0.7-0.3-1.4-0.5-2.2
	c-0.4,0.1-0.6,0.4-0.7,0.8c-0.1,0.6-0.3,1.2-0.4,1.8c-0.1,0.4-0.2,0.5-0.6,0.5c-1.3,0-1.3,0-1-1.2c0.5-2.4,1-4.8,1.6-7.2
	c0.2-0.8-0.4-0.6-0.8-0.8c0.9-0.4,1.9-0.7,2.9-0.9l-1.3,6.1v0.2L88.9,156.4z"/>
<path class="st0" d="M94,140.4H83c-0.3,0-0.5,0-0.7-0.2l-3.8-2.4c0.4-0.3,0.9-0.1,1.2-0.1c3.3,0,6.6,0.1,9.8,0.2
	c0.5,0,1,0.1,1.5,0.4c1,0.7,2,1.3,3,1.9L94,140.4z"/>
<path class="st0" d="M119.9,160.3h-3.1c-0.2,0-0.4,0.1-0.5-0.2s0.2-0.3,0.4-0.3c0.6,0,0.8-0.4,0.9-0.9c0.5-2.4,1.1-4.7,1.6-7.1
	c0.1-0.4,0-0.7-0.5-0.7c-0.2,0-0.3,0-0.3-0.3c0-0.3,0.2-0.2,0.4-0.2h3.6c0.1,0,0.3,0,0.3,0.2s-0.1,0.3-0.3,0.3
	c-0.7,0.1-0.8,0.6-0.9,1.1c-0.5,2.2-0.9,4.4-1.4,6.6c-0.1,0.6,0,0.7,0.6,0.7c1.3,0,2.4-0.6,3.2-1.6c0.2-0.2,0.3-0.7,0.7-0.5
	c0.4,0.2,0,0.5-0.1,0.7c-0.8,2.1-0.8,2.1-3.1,2.1L119.9,160.3L119.9,160.3z"/>
<path class="st0" d="M100.9,155.9l1.4-1.2c0.2-0.2,0.3-0.3,0.5-0.4c0.5-0.3,1.1-0.7,1.7-0.2c0.6,0.4,0.3,1.1,0.2,1.6
	c-0.2,0.9-0.5,1.8-0.7,2.6c0,0.2-0.1,0.4,0.1,0.5c0.2,0.1,0.3-0.2,0.4-0.3c0.1-0.1,0.2-0.3,0.3-0.4c0.1-0.1,0.2-0.2,0.3-0.1
	c0.1,0.1,0.1,0.2,0.1,0.3c-0.3,1.1-1.2,1.9-2.2,2.1c-0.8,0-1.2-0.4-1.1-1.2c0.1-1.1,0.6-2,0.8-3.1c0-0.2,0.3-0.6-0.1-0.7
	c-0.4-0.2-0.5,0.1-0.7,0.3c-1,1-1.7,2.2-1.9,3.6c-0.2,0.7-0.9,1.1-1.6,0.9c-0.1,0-0.1,0-0.2-0.1c-0.3-0.2-0.1-0.4-0.1-0.7
	c0.3-1.3,0.5-2.6,0.9-3.9c0.1-0.5,0.2-0.9-0.5-0.8c-0.1,0-0.2,0-0.2-0.2s0.1-0.2,0.3-0.3l2.3-0.5c0.4-0.1,0.3,0.2,0.3,0.4
	C101.1,154.9,101,155.4,100.9,155.9z"/>
<path class="st0" d="M85.2,153.7c-0.4,1.6-0.8,3-1.2,4.3c-0.1,0.3-0.2,0.7,0,0.8c0.2,0.1,0.5-0.3,0.7-0.5s0.2-0.4,0.4-0.3
	c0.3,0.1,0.1,0.4,0,0.6c-0.3,0.6-0.7,1.1-1.2,1.5c-1.1,0.8-1.9,0.3-2.1-1.2c-0.6,0.7-1.2,1.5-2.3,1.5c-0.8,0.1-1.5-0.5-1.6-1.3
	c0,0,0,0,0,0c-0.2-2.3,1.1-4.4,3.2-5.2h0.2c0.7-0.3,1.4,0.6,1.8,0.3C83.9,153.5,84.5,154.2,85.2,153.7z M80,158c0,0.5,0,0.9,0.5,1.2
	c0.5,0.2,0.8-0.2,1.1-0.5c0.8-0.9,1.3-2,1.4-3.2c0.1-0.5-0.1-1-0.6-1.2c-0.5-0.2-0.9,0.1-1.1,0.5C80.5,155.7,80,156.8,80,158L80,158
	z"/>
<path class="st0" d="M157.1,159c-0.7,0.8-1.3,1.6-2.4,1.5c-0.7,0-1.3-0.5-1.4-1.2c-0.3-2.3,1-4.6,3.2-5.4h0.3
	c0.6-0.2,1.1,0.3,1.6,0.5c0.2-0.9,1-0.4,1.5-0.5c0.5-0.1,0.5,0.2,0.4,0.6c-0.4,1.2-0.7,2.5-1,3.7c0,0.2-0.2,0.5,0,0.7
	c0.2,0.1,0.4-0.2,0.6-0.4c0.2-0.2,0.2-0.6,0.5-0.4c0.3,0.2,0,0.5-0.1,0.7c-0.2,0.5-0.5,0.9-0.9,1.2c-0.5,0.5-1.2,0.6-1.8,0.4
	C157,160.1,157.2,159.6,157.1,159z M155.1,158.1c0,0.4,0,0.9,0.4,1.1c0.3,0.1,0.6,0.1,0.8-0.1c1.1-0.9,1.8-2.3,1.8-3.8
	c0.1-0.4-0.2-0.9-0.6-1c-0.4-0.1-0.8,0.1-1,0.4C155.7,155.6,155.2,156.8,155.1,158.1z"/>
<path class="st0" d="M133.3,152.1c0.1,0.6,0.1,1.2,0,1.7c-0.1,0.5,0.2,0.4,0.6,0.4s0.5-0.1,0.5,0.3c0,0.3-0.3,0.3-0.5,0.2
	c-0.7-0.1-0.8,0.3-0.9,0.9c-0.3,1.9-0.8,3.7-1.5,5.5c-0.3,0.8-0.8,1.5-1.6,2c-0.9,0.4-1.9,0.1-2-0.7c-0.1-0.4,0.1-0.8,0.5-1
	c0.4-0.1,0.8,0,0.9,0.4c0.1,0.2,0.2,0.6,0.6,0.4c0.4-0.1,0.3-0.4,0.4-0.7c0.2-2.1,0.5-4.2,0.9-6.3c0.1-0.5-0.2-0.4-0.5-0.4
	s-0.7,0.2-0.6-0.3c0-0.5,0.4-0.2,0.7-0.2c0.5,0,0.7-0.1,0.8-0.6c0.1-0.9,0.5-1.7,1-2.4c0.4-0.7,1.3-1.2,2.1-1.1c0.5,0,0.9,0.4,1,0.9
	c0.1,0.4-0.1,0.8-0.5,0.9c-0.5,0.2-0.9-0.1-1.1-0.5c-0.1-0.1-0.2-0.3-0.4-0.3c-0.2,0-0.2,0.2-0.2,0.4
	C133.4,151.7,133.4,152,133.3,152.1z"/>
<path class="st1" d="M83.5,118.6c-0.1,1.1-0.2,2.2-0.4,3.3c-0.9,3.2-2.9,5.9-5.7,7.8c-3.8,2.6-8.2,4.3-12.7,5.1
	c-6.2,1-12.6,1.1-18.8,0.2c-4-0.4-7.8-1.2-11.6-2.5c-0.6-0.2-0.9,0.2-1.2,0.4c-0.6,0.7-1.5,0.7-2.2,0.2c0,0,0,0,0,0l0.1-0.2
	c0.7,0.4,1.6,0.3,2.1-0.3c0.3-0.4,0.9-0.5,1.3-0.3c3.8,1.3,7.8,2.2,11.8,2.5c5,0.6,10,0.7,15,0.2c5.7-0.4,11.2-2.3,16-5.5
	c3-1.9,5.1-4.9,5.7-8.3c0.3-1.5,0.1-3-0.4-4.4c0.6,0.2,0.7,0.8,0.9,1.3C83.3,118.2,83.2,118.4,83.5,118.6L83.5,118.6z"/>
<path class="st0" d="M178.9,108.9c0.2,0.6-0.3,1.9-0.9,2c-1.1,0.2-1.6,0.9-1.8,2c-1.5,6-3.1,12-4.6,18c-0.1,0.3-0.1,0.7-0.4,0.9
	c-0.8-0.1-0.7-0.6-0.6-1.1c1.7-6.5,3.4-12.9,5.1-19.4c0.1-0.7,0.6-1.2,1.3-1.3c0.3,0,0.7,0,0.8-0.4
	C178,108.8,178.5,108.9,178.9,108.9z"/>
<path class="st0" d="M135.9,108.9c0.3,0.1,0.9-0.3,0.9,0.2c0,0.5,0.1,1.4-0.7,1.5c-1.4,0.3-1.9,1.1-2.2,2.4c-1.5,6-3.2,12-4.8,18
	c-0.1,0.2-0.1,0.4-0.2,0.5c-0.8,0-0.7-0.5-0.6-1.1c1.8-6.5,3.5-12.9,5.1-19.4c0.2-0.8,0.5-1.2,1.3-1.3
	C135.3,109.7,135.9,109.6,135.9,108.9z"/>
<path class="st0" d="M216.7,108.8c0.3,0,0.7-0.3,1,0.1c-0.1,0.6-0.4,1.2-0.9,1.7c-1.5,0.5-3,1.4-4.1,2.5l-8.4,6.8
	c-0.2,0.2-0.4,0.4-0.7,0.4c-0.7-1-0.7-1,0.2-1.7c2.8-2.3,5.6-4.5,8.4-6.8c1.1-1,2.4-1.7,3.8-2.2
	C216.5,109.5,216.7,109.2,216.7,108.8z"/>
<path class="st0" d="M97.9,138.1h9.1c0.2,0,0.4,0,0.6,0.1c1,0.6,2,1.4,2.9,2.1h-2.6c-1.9,0-3.8,0-5.8,0c-0.5,0-1-0.1-1.5-0.5
	C99.8,139.3,98.8,138.7,97.9,138.1z"/>
<path class="st0" d="M76.3,108.5c-1-0.2-2-0.4-3-0.7c-5.3-1.2-10.8-1.3-16.2-0.1c-1.1,0.3-2.2,0.7-3.2,1.3l-0.2-0.1
	c-0.3-0.1-0.8-0.1-0.8-0.5s0.4-0.5,0.7-0.7c1.2-0.7,2.5-1.2,3.9-1.4c3.9-0.6,7.9-0.6,11.8-0.1c2.2,0.2,4.4,0.8,6.5,1.7
	C76,108,76.4,108,76.3,108.5z"/>
<path class="st0" d="M68.2,122.5c-0.1,0.2-0.3,0.1-0.4,0.1c-3.5-0.8-7.1-1.2-10.8-1.2c-4.4,0-8.8-0.9-12.9-2.5
	c-1-0.4-1.4-0.7-1.6-1.2c0.6,0,1,0.3,1.5,0.5c4.2,1.4,8.6,2.1,13,2.1c2.9,0,5.8,0.3,8.7,0.9C66.6,121.4,67.5,121.8,68.2,122.5z"/>
<path class="st0" d="M173.6,160.5c-1.5,0-2.2-0.8-2.1-2.4c0.2-2.4,2.2-4.2,4.6-4.2c0.7,0,1.4,0.2,1.6,1c0.2,0.8-0.1,1.6-0.8,2
	c-0.8,0.5-1.6,0.8-2.5,0.8c-0.4,0-1-0.2-1,0.5c0,0.6,0.4,1.1,1.1,1.2c0,0,0,0,0,0c0.7,0,1.3-0.2,1.8-0.7c0.2-0.1,0.3-0.6,0.6-0.4
	s0,0.5-0.2,0.7C176,159.9,174.8,160.5,173.6,160.5z M173.6,157.2c1.2,0.1,2.3-0.7,2.5-1.9c0-0.3,0.2-0.6-0.1-0.8s-0.6,0-0.8,0.2
	C174.4,155.3,173.8,156.2,173.6,157.2L173.6,157.2z"/>
<path class="st0" d="M134.3,158.3c0.1-2.5,2.1-4.4,4.6-4.4c0.7,0,1.3,0.2,1.6,0.9c0.2,0.8-0.1,1.7-0.9,2.1c-0.8,0.4-1.6,0.7-2.5,0.7
	c-0.4,0-1-0.2-1,0.4c0,0.6,0.4,1.1,1,1.2c0.8,0.1,1.5-0.2,2-0.8c0.1-0.1,0.2-0.5,0.5-0.2s0,0.4-0.1,0.6c-0.7,1.1-1.9,1.8-3.2,1.7
	C134.9,160.4,134.3,159.8,134.3,158.3z M138.8,154.8c0-0.5-0.4-0.5-0.8-0.3c-0.8,0.6-1.4,1.5-1.6,2.4c-0.1,0.4,0.2,0.3,0.4,0.3
	C137.9,156.9,138.7,155.9,138.8,154.8z"/>
<path class="st0" d="M184.5,140c0.6-0.1,0.9,0,0.7,0.7c-0.3,1.2-0.2,1.2-1.5,1.2h-17.5c-1,0-1,0-0.8-1h1c5.7,0,11.4,0,17.1,0
	C184.2,140.9,184.6,140.8,184.5,140z"/>
<path class="st0" d="M88.1,101l0.8,0.5l-3,3.6c-1.9,2.2-3.8,4.5-5.7,6.7c-0.4,0.4-0.7,0.6-1.2,0.3c-0.5-0.3-1-0.5-1.5-0.6
	c-0.4-0.1-0.3-0.3-0.1-0.6c0.2,0,0.3,0,0.5,0.1c0.8,0.5,1.3,0.1,1.8-0.5c2.5-3,5-5.9,7.4-8.9C87.3,101.3,87.5,100.8,88.1,101z"/>
<path class="st1" d="M118.8,113.3c-0.4,0.2-0.1,0.6-0.1,0.9c-0.2,4-2.7,7.5-6.5,8.9c-3.2,1.2-6.6,1.8-10,1.8c-2,0.1-3.9,0-5.9,0
	c-0.4-0.1-0.8,0.2-0.8,0.6c0,0,0,0.1,0,0.1c-0.4,1.7-0.9,3.3-1.4,5c-0.2,0.9-0.2,0.9,0.7,0.9v0.5c-1.3-0.2-1.4-0.3-1.1-1.5
	c0.5-1.7,1-3.5,1.4-5.3c0-0.4,0.4-0.8,0.9-0.8c0,0,0.1,0,0.1,0c3,0.1,5.9,0,8.9-0.2c2.8-0.1,5.6-0.8,8.1-2.1
	c3.2-1.5,5.2-4.8,5.2-8.3c0-0.6-0.1-1.2-0.2-1.7C118.4,112.5,118.6,112.9,118.8,113.3z"/>
<path class="st0" d="M165.9,156c-0.3-0.2-0.3-0.6-0.4-0.8c-0.1-0.4-0.5-0.7-0.9-0.8c-0.3-0.1-0.6,0-0.7,0.2c-0.2,0.2-0.2,0.6,0,0.8
	c0.5,0.5,1,1,1.4,1.5c0.5,0.5,0.7,1.2,0.6,1.8c-0.1,1-0.9,1.7-1.9,1.7c-0.8,0-1.7-0.1-2.5-0.2c-0.2,0-0.3-0.2-0.2-0.3
	c0.1-0.6,0.2-1.2,0.2-1.8c0-0.1,0-0.3,0.2-0.3s0.2,0.2,0.3,0.3c0.1,0.6,0.5,1.2,1,1.5c0.4,0.2,0.9,0.3,1.3-0.1
	c0.4-0.4,0-0.8-0.3-1.1c-0.5-0.6-1.1-1.1-1.6-1.7c-0.5-0.5-0.6-1.3-0.3-1.9c0.3-0.6,1-0.9,1.7-0.9c0.7,0,1.3,0.1,2,0.2
	c0.3,0,0.3,0.2,0.3,0.4C166.2,155,166.1,155.5,165.9,156z"/>
<path class="st1" d="M68.2,122.5c-0.7-0.7-1.6-1.1-2.6-1.2c-2.9-0.6-5.8-0.9-8.7-0.9c-4.4,0-8.8-0.7-13-2.1
	c-0.5-0.2-0.9-0.6-1.5-0.5l0,0c-0.1-0.3-0.4-0.4-0.6-0.4l-1-1.3c0,0,0.1,0,0.2,0c3.7,2.6,7.9,3.1,12.2,3.5c3.3,0.3,6.6,0.3,9.9,0.7
	c1.5,0.1,2.9,0.5,4.3,1c0.6,0.3,1.2,0.5,1.1,1.3L68.2,122.5z"/>
<path class="st0" d="M125.6,140.6h-8c-0.3,0-0.6-0.2-0.8-0.4l-2.4-1.7c1,0,1.7,0,2.5,0c1.7,0,3.4,0.1,5.1,0.1c0.7,0,1.4,0.2,1.9,0.6
	c0.6,0.4,1.2,0.8,1.8,1.2L125.6,140.6z"/>
<path class="st0" d="M213,133.4c0.4,0,0.9,0,0.7,0.6s0.2,1.3-0.8,1.3c-5.1,0-10.2,0-15.3,0c-1.1,0-0.5-0.6-0.5-1c5,0,10,0,14.9,0
	C212.7,134.3,213,134.1,213,133.4z"/>
<path class="st0" d="M181.3,153.9c0,0.6-0.3,1.1-0.2,1.7c0.5-0.3,0.6-0.9,1-1.2c0.3-0.4,0.8-0.6,1.3-0.5c0.3,0.1,0.6,0.4,0.6,0.7
	c0.1,0.5-0.2,1.1-0.6,1.4c-0.3,0.3-0.7,0.3-0.9,0c-0.5-0.5-0.7-0.2-0.9,0.1c-0.7,1-1.1,2.1-1.2,3.2c-0.2,0.7-0.9,1.1-1.6,1
	c-0.1,0-0.1,0-0.2-0.1c-0.3-0.1-0.2-0.4-0.1-0.6c0.3-1.3,0.6-2.7,0.9-4.1c0.1-0.3,0.3-0.8-0.4-0.8c-0.1,0-0.3,0-0.3-0.2
	c0.1-0.1,0.2-0.2,0.3-0.2L181.3,153.9z M181.2,155.8l-0.1-0.1c0,0-0.1,0.1-0.1,0.1s0,0.1,0,0.1L181.2,155.8z"/>
<path class="st0" d="M95.2,133.4c0.3,0.1,0.9,0,0.8,0.6c-0.1,0.6,0.1,1.4-1,1.3c-4.4,0-8.7,0-13.1,0c-1,0-1,0-0.8-1
	c4.3,0,8.7,0,13.1,0C94.9,134.3,95.3,134.1,95.2,133.4z"/>
<path class="st0" d="M129.3,133.3c0.2,0.2,1-0.1,0.8,0.6c-0.2,0.7,0,1.3-1.1,1.3c-4.2,0-8.3,0-12.5,0c-1.1,0-1.1,0-0.6-1.1
	c4.1,0,8.2,0,12.3,0C128.9,134.3,129.4,134.1,129.3,133.3z"/>
<path class="st1" d="M178.9,108.9c-0.5,0-0.9,0-1.1,0.6c-0.1,0.4-0.5,0.3-0.8,0.4c-0.7,0.1-1.2,0.6-1.3,1.3
	c-1.7,6.5-3.4,12.9-5.1,19.4c-0.2,0.6-0.2,1,0.6,1.1v0.4c-1.3-0.1-1.5-0.3-1.1-1.5c1.7-6.6,3.5-13.3,5.3-19.9
	c0.1-0.7,0.7-1.2,1.4-1.2c0.4-0.1,0.8-0.2,1-0.7C178.1,108.8,178.5,108.7,178.9,108.9z"/>
<path class="st0" d="M128.8,153.9l-1.1,4.3c0,0.2-0.2,0.5,0,0.7s0.4-0.2,0.6-0.4c0.2-0.2,0.1-0.6,0.5-0.4c0.4,0.2,0,0.4-0.1,0.6
	c-0.4,0.9-0.9,1.7-2,1.7c-1.1,0.1-1.3-0.4-1.1-1.3c0.2-1,0.6-2.2,0.8-3.2c0.1-0.5,0.4-1.1-0.5-1c-0.1,0-0.2-0.1-0.2-0.2
	c0-0.1,0.2-0.2,0.4-0.3L128.8,153.9z"/>
<path class="st0" d="M170.4,153.9c-0.4,1.5-0.7,2.9-1.1,4.3c0,0.2-0.2,0.6,0,0.7s0.4-0.2,0.6-0.4s0.1-0.6,0.5-0.3
	c0.4,0.3,0,0.4-0.1,0.6c-0.5,0.9-0.9,1.8-2.1,1.8c-0.9,0-1.3-0.4-1.1-1.3s0.6-2.2,0.8-3.2c0.1-0.5,0.4-1.1-0.5-1.1
	c-0.1,0-0.2-0.1-0.2-0.2c0-0.1,0.2-0.2,0.3-0.2L170.4,153.9z"/>
<path class="st0" d="M94.9,160.5c-0.8,0-1.1-0.3-1.1-1.1c0.2-1.1,0.4-2.1,0.7-3.2c0.1-0.5,0.7-1.3-0.5-1.3c0,0-0.1-0.1-0.1-0.2
	c0,0,0.1-0.2,0.2-0.2c0.9-0.2,1.7-0.4,2.6-0.5c0.5-0.1,0.2,0.3,0.2,0.5c-0.3,1.2-0.6,2.4-0.9,3.7c0,0.2-0.3,0.6,0,0.7
	c0.3,0.2,0.4-0.2,0.6-0.4c0.2-0.2,0.2-0.5,0.5-0.3c0.3,0.2,0,0.4-0.1,0.6C96.6,159.6,96.1,160.5,94.9,160.5z"/>
<path class="st1" d="M76.3,108.5c0.2-0.5-0.3-0.5-0.6-0.7c-2.1-0.9-4.2-1.4-6.5-1.6c-3.9-0.5-7.9-0.5-11.8,0.1
	c-1.4,0.2-2.7,0.7-3.9,1.4c-0.3,0.2-0.7,0.4-0.7,0.7c0,0.3,0.5,0.3,0.8,0.5l0.2,0.1c-0.1,0.2,0.2,0.2,0.3,0.4
	c-0.7-0.1-1.5-0.2-1.7-0.8c-0.1-0.7,0.7-1.1,1.3-1.4c1.9-0.9,4-1.5,6.1-1.6c5.1-0.5,10.2,0,15.1,1.4c0.5,0.2,1,0.4,1.5,0.6
	c0.6,0.3,0.8,0.7,0.2,1.2C76.6,108.7,76.4,108.6,76.3,108.5z"/>
<path class="st0" d="M146.7,133.4c0.3,0.1,1-0.1,0.8,0.6c-0.2,0.7,0.1,1.3-1,1.3c-3.7,0-7.5,0-11.2,0c-1.1,0-1.1,0-0.8-1
	c3.7,0,7.5,0,11.2,0C146.5,134.3,146.8,134.1,146.7,133.4z"/>
<path class="st1" d="M135.9,108.9c0,0.7-0.6,0.9-1.1,0.9c-0.8,0.1-1.1,0.6-1.3,1.3c-1.7,6.5-3.4,12.9-5.1,19.4
	c-0.2,0.6-0.2,1.1,0.6,1.1l0.1,0.4c-1.3-0.2-1.4-0.3-1.1-1.6c1.7-6.4,3.4-12.8,5.1-19.2c0.3-1,0.7-1.8,1.9-1.9
	c0.3,0,0.5-0.2,0.6-0.5L135.9,108.9z"/>
<path class="st0" d="M138.1,140.4h-6.6c-0.5,0-0.9-0.4-1.2-0.6c-0.4-0.2-1-0.7-1.5-1c2.1,0,4.1,0,6.1,0
	C136.2,138.7,137.1,139.6,138.1,140.4z"/>
<path class="st0" d="M169.6,135.2c-3.7,0-7.4,0-11.1,0c-1,0-0.1-0.7-0.3-1h12.4L169.6,135.2z"/>
<path class="st0" d="M149.3,119.5l-3,11.9c0,0.1-0.1,0.1-0.1,0.2c-0.7,0-0.8-0.4-0.6-1c0.7-2.5,1.3-4.9,1.9-7.4
	c0.4-1.4,0.7-2.9,1.1-4.3C149,119,149.2,119.3,149.3,119.5z"/>
<path class="st1" d="M184.5,140c0,0.8-0.3,0.9-1.1,0.9c-5.7,0-11.4,0-17.1,0h-1v-0.3h12.3c1.8,0,3.5,0,5.3,0c0.9,0,1.1-0.2,1.3-1.1
	c0.2-0.8,0.1-1.1-1-0.9c1.1-1.4,2.3-2.7,3.5-3.9l0.2,0.1l-2.9,3.2c1.2,0.1,0.4,0.8,0.5,1.3C184.6,139.5,184.1,139.7,184.5,140z"/>
<path class="st1" d="M216.7,108.8c0,0.4-0.3,0.7-0.6,0.8c-1.4,0.5-2.7,1.2-3.8,2.2c-2.8,2.3-5.6,4.6-8.4,6.8
	c-0.9,0.8-0.9,0.8-0.2,1.7l-0.3,0.3c-1.1-1.3-1.1-1.3,0.2-2.4c2.9-2.4,5.8-4.8,8.8-7.1c1-1,2.2-1.6,3.5-2c0.3,0,0.3-0.2,0.5-0.4
	L216.7,108.8z"/>
<path class="st0" d="M140.7,139.1c2.1-0.1,4.3-0.1,6.4,0.1c0.8,0,1.3,0.7,2.1,1.1c-0.1,0.3-0.4,0.2-0.6,0.2c-1.2,0-2.5-0.1-3.7,0
	C143.4,140.6,141.8,140.1,140.7,139.1L140.7,139.1z"/>
<path class="st1" d="M149.3,119.5c-0.2-0.2-0.3-0.5-0.7-0.6c-0.4,1.5-0.7,2.9-1.1,4.3c-0.6,2.5-1.3,4.9-1.9,7.4
	c-0.2,0.6-0.1,1,0.6,1l0.1,0.4c-1.3-0.2-1.5-0.3-1.1-1.6l3.1-11.8c0-0.2,0.1-0.5,0.2-0.8c0.5,0.5,1,1,1.3,1.7
	C149.6,119.4,149.5,119.2,149.3,119.5z"/>
<path class="st1" d="M88.1,101c-0.6-0.2-0.8,0.3-1.1,0.6c-2.5,2.9-5,5.9-7.4,8.9c-0.5,0.6-1,1-1.8,0.5c-0.2-0.1-0.3-0.1-0.5-0.1
	l0.2-0.5c0.9,0.5,1.4,0.2,2-0.6c2.6-3.1,5.3-6.1,7.9-9.2L88.1,101z"/>
<path class="st0" d="M158.7,140.4c-1.9,0-3.8,0-5.6,0c-0.8,0-1.3-0.7-2.1-1.1c1.6,0,3.1,0,4.6,0
	C156.8,139.2,157.9,139.6,158.7,140.4z"/>
<path class="st0" d="M219.4,110.2c1.3,0,2.3,0.9,2.3,2.2c0,0.1,0,0.1,0,0.2c0,1.3-1,2.3-2.2,2.4c0,0,0,0-0.1,0c-1.3,0-2.4-1-2.4-2.3
	c0,0,0,0,0,0C217.1,111.3,218.1,110.2,219.4,110.2C219.4,110.2,219.4,110.2,219.4,110.2z M217.6,112.6c0,1.1,0.8,1.9,1.9,2
	c1.1,0,1.9-0.9,1.8-2c0-1.1-0.8-1.9-1.9-2c0,0,0,0,0,0C218.4,110.6,217.6,111.5,217.6,112.6z"/>
<path class="st1" d="M169.6,135.2l1.1-1h-12.4v-0.3c4,0,8,0,12,0c0.5,0,0.9-0.1,1-0.7c0.4,0.1,0.9,0.2,1.3,0.1
	c-0.9,0.8-1.8,1.6-2.8,2.2C169.9,135.3,169.8,135.2,169.6,135.2z"/>
<path class="st1" d="M213,133.4c0,0.7-0.2,0.9-0.9,0.9c-5,0-10,0-14.9,0v-0.3c4.9,0,9.7,0,14.6,0c0.5,0,0.9-0.1,1-0.7L213,133.4z"/>
<path class="st1" d="M95.2,133.4c0,0.7-0.3,0.9-1,0.9c-4.3,0-8.7,0-13.1,0V134c4.3,0,8.5,0,12.8,0c0.6,0,0.8-0.1,0.9-0.7L95.2,133.4
	z"/>
<path class="st1" d="M129.3,133.3c0,0.8-0.4,0.9-1.1,0.9c-4.1,0-8.2,0-12.3,0V134c4.1,0,8.2,0,12.2,0c0.6,0,0.8-0.2,0.9-0.7
	L129.3,133.3z"/>
<path class="st1" d="M146.7,133.4c0,0.7-0.3,0.9-1,0.9c-3.7,0-7.5,0-11.2,0v-0.4c3.7,0,7.3,0,10.9,0c0.6,0,0.9-0.1,1-0.7
	L146.7,133.4z"/>
<path class="st0" d="M97.4,151.6c0,0.5-0.4,1-1,1c0,0-0.1,0-0.1,0c-0.5,0.1-0.9-0.3-1-0.8c0-0.1,0-0.1,0-0.2c0-0.6,0.3-1.1,1-1.1
	C96.9,150.5,97.4,150.9,97.4,151.6C97.4,151.5,97.4,151.6,97.4,151.6z"/>
<path class="st0" d="M129.1,151.6c0,0.7-0.4,1-1,1c-0.5,0.1-0.9-0.3-1-0.7c0-0.1,0-0.1,0-0.2c0-0.6,0.2-1.1,0.9-1.1
	c0.6,0,1.1,0.4,1.1,0.9C129.2,151.5,129.2,151.5,129.1,151.6z"/>
<path class="st0" d="M169.7,152.6c-0.6,0-1-0.3-1-1s0.2-1.1,0.9-1.1c0.6,0,1.1,0.4,1.1,1c0,0,0,0.1,0,0.1
	C170.8,152.3,170.3,152.5,169.7,152.6z"/>
<path class="st1" d="M107.8,107.5H87.2c0.2-0.2,0.4-0.1,0.6-0.1h19.5C107.4,107.4,107.6,107.3,107.8,107.5z"/>
<path class="st0" d="M197.5,108.9c0.3,0,0.8-0.3,0.9,0.2c0.1,0.7-0.3,1.3-0.9,1.6h-1c0-0.1,0-0.2-0.1-0.2c-0.1-0.1-0.5-0.4-0.4-0.7
	c0.1-0.3,0.5-0.2,0.7-0.1C197.3,109.7,197.4,109.3,197.5,108.9z"/>
<path class="st1" d="M68.9,97.1c-3-0.3-6.1-0.3-9.1,0c0-0.2,0.2-0.2,0.3-0.2c2.8-0.2,5.6-0.2,8.4,0C68.6,96.9,68.8,96.8,68.9,97.1z"
	/>
<path class="st0" d="M157.3,108.8c1-0.1,1-0.1,0.7,0.9c-0.2,0.6-0.3,1.2-1.2,1c-0.2-0.2-0.3-0.4-0.5-0.6c-0.1-0.2-0.3-0.4,0.1-0.4
	C157.1,109.7,157.2,109.2,157.3,108.8z"/>
<path class="st1" d="M135.8,107.5h-14.1c0.1-0.2,0.3-0.1,0.5-0.1h13C135.5,107.4,135.7,107.3,135.8,107.5z"/>
<path class="st1" d="M157.3,108.8c-0.1,0.4-0.2,0.9-0.8,0.9c-0.4,0-0.3,0.2-0.1,0.4c0.2,0.2,0.3,0.4,0.5,0.6l-0.2,0.4
	c-0.2-0.2-0.4-0.3-0.5-0.5c-0.6-0.8-0.6-1,0.3-1.3c0.3-0.1,0.4-0.3,0.5-0.5L157.3,108.8z"/>
<path class="st1" d="M197.5,108.9c0,0.5-0.1,0.8-0.7,0.8c-0.2,0-0.6-0.1-0.7,0.1c-0.1,0.3,0.2,0.5,0.4,0.7c0.1,0.2,0,0.1,0.1,0.2
	l-0.2,0.2c-0.1-0.1-0.1-0.1-0.2-0.2c-0.3-0.4-0.8-0.8-0.6-1.3c0.2-0.5,0.8-0.3,1.2-0.3c0.4,0,0.4-0.2,0.6-0.4L197.5,108.9z"/>
<path class="st1" d="M42.8,123.7c-0.3-0.1-0.6-0.3-0.8-0.5c-0.6-0.6-0.6-0.9,0.2-1.4c0.2,0.1,0.5,0.1,0.5,0.4
	c-0.2-0.1-0.5,0-0.6,0.2c0,0,0,0,0,0c0,0.2,0.2,0.3,0.3,0.4l0.4,0.4C42.6,123.4,42.7,123.5,42.8,123.7z"/>
<path class="st0" d="M42.8,123.3l-0.4-0.4c-0.1-0.1-0.4-0.2-0.3-0.4c0.1-0.2,0.3-0.4,0.6-0.3c0,0,0,0,0,0l1.1,0.5
	C43.4,122.9,43.3,123.3,42.8,123.3z"/>
<path class="st1" d="M193.7,127.5c0-0.3,0.3-0.4,0.4-0.6s0.4-0.3,0.6,0c0.3,0.3,0.5,0.7,0.7,1.1c-0.2-0.1-0.3,0.1-0.4,0.1
	c-0.1-0.2-0.3-0.3-0.4-0.5C194.4,127.2,194.2,127.2,193.7,127.5L193.7,127.5z"/>
<path class="st1" d="M181.7,109.5c0.8,0.4,1.5,1.1,1.8,2l-1.1-0.8c-0.2-0.4-0.6-0.6-0.8-0.9L181.7,109.5z"/>
<path class="st1" d="M87.9,109.5c0.8,0.2,0.4,0.6,0.2,1.1C87.3,110.4,87.8,109.9,87.9,109.5z"/>
<path class="st1" d="M84.4,99.5c-0.8,0.7-1.7,0.2-2.5,0C82.7,99.5,83.6,99.8,84.4,99.5z"/>
<path class="st0" d="M181.6,109.9c0.3,0.3,0.7,0.5,0.8,0.9c-0.2-0.1-0.4-0.1-0.6-0.1C181.2,110.6,181.2,110.3,181.6,109.9z"/>
<path class="st1" d="M122.4,109.6c0.7,0.3,0.3,0.7,0.2,1.1C121.9,110.4,122.4,109.9,122.4,109.6z"/>
<path class="st1" d="M140.9,109.6c0.6,0.3,0.2,0.7,0.1,1.1C140.3,110.4,140.9,110,140.9,109.6z"/>
<path class="st1" d="M165.6,109.6c0.6,0.2,0.3,0.7,0.2,1C165,110.4,165.7,109.9,165.6,109.6z"/>
<path class="st0" d="M41.9,117.4c0.3,0,0.6,0,0.6,0.4C42.2,117.9,42,117.7,41.9,117.4z"/>
<path class="st0" d="M83.5,118.6c-0.3-0.1-0.1-0.3-0.1-0.5C83.5,118.2,83.5,118.4,83.5,118.6z"/>
<path class="st1" d="M54.6,109.5c-0.2,0-0.4,0-0.6-0.2C54.3,109.4,54.5,109.4,54.6,109.5z"/>
<path class="st1" d="M84.8,99l-0.2,0.3L84.8,99z"/>
<path class="st1" d="M129.3,132.1l-0.2-0.1L129.3,132.1z"/>
<path class="st1" d="M146.6,132.1l-0.2-0.1L146.6,132.1z"/>
<path class="st1" d="M171.4,132.1l-0.1-0.1L171.4,132.1z"/>
<path class="st1" d="M172.8,133.2l-0.2,0.2C172.6,133.2,172.7,133.2,172.8,133.2z"/>
<path class="st1" d="M118,112.2c-0.1,0-0.1-0.1-0.1-0.2L118,112.2z"/>
<path class="st1" d="M149.8,119.4c0.2,0,0.2,0.1,0.2,0.2L149.8,119.4z"/>
<path class="st1" d="M84.6,99.3l-0.2,0.2L84.6,99.3z"/>
<polygon class="st0" points="140.7,139.1 140.7,139.1 140.7,139.1 "/>
<path class="st2" d="M172.6,137.7l2-1.7c0.6-0.4,1.2-0.9,1.7-1.4c1.5-1.9,3.5-1.2,5.6-1.3c-1.4,1.3-2.7,2.4-3.9,3.6
	c-0.7,0.8-1.6,1.1-2.6,1c-0.9-0.1-1.8,0-2.7,0V137.7z"/>
<path class="st2" d="M187.9,127.8l-3.5,3.2c-0.2,0.2-0.5,0.1-0.7,0.1h-3.1c1.4-1.2,2.6-2.2,3.8-3.2c0.3-0.3,0.8-0.1,1.2-0.1
	C186.3,127.8,187,127.8,187.9,127.8z"/>
<path class="st2" d="M192.5,123.6l-2.6,2.4c-0.2,0.2-0.4,0.2-0.7,0.2c-0.8,0-1.7,0-2.5-0.2c0.8-0.7,1.7-1.4,2.5-2.1
	c0.8-0.7,2.1-0.2,3.2-0.5L192.5,123.6z"/>
<path class="st2" d="M196.7,119.7c-1.2,1.4-2.5,2.7-4.7,2C193.3,120.5,194.5,119,196.7,119.7z"/>
<path class="st2" d="M196.3,117.9c1.6-1.8,2.1-2.1,4-1.9C199.7,117.6,197.9,118.4,196.3,117.9z"/>
<path class="st2" d="M203.6,113.3c-1.3,1.6-1.5,1.7-3.4,1.5C200.9,113.6,202.2,113,203.6,113.3z"/>
<path class="st2" d="M206.4,110.8c-0.9,0.8-1.7,1.8-3.1,1.3C204.2,111.4,204.9,110.4,206.4,110.8z"/>
<path class="st2" d="M208.8,108.8c-0.9,0.7-1.5,1.7-2.8,1.2C206.9,109.4,207.5,108.4,208.8,108.8z"/>
<path class="st1" d="M189.7,131.9c-0.7,1-1.6,1.7-2.4,2.6l-0.2-0.2l2.5-2.6L189.7,131.9z"/>
<path class="st1" d="M190.5,130.9c0.5-0.7,1.1-1.3,1.8-1.9l0.1,0.1c-0.5,0.7-1.1,1.3-1.8,1.9L190.5,130.9z"/>
<path class="st1" d="M190.3,131.3c-0.1,0.2-0.2,0.3-0.4,0.4l-0.1-0.1c0.1-0.2,0.2-0.3,0.4-0.4L190.3,131.3z"/>
<path class="st1" d="M192.8,128.4l0.3-0.2l0,0c0.2,0.2,0,0.3-0.2,0.4L192.8,128.4z"/>
<path class="st1" d="M192.8,128.7l-0.2,0.2l-0.1-0.1l0.2-0.2L192.8,128.7z"/>
<path class="st1" d="M192.6,128.6l0.2-0.2l0.1,0.1l-0.2,0.2L192.6,128.6z"/>
<path class="st1" d="M190.5,131.1l-0.2,0.2l-0.1-0.1l0.2-0.2L190.5,131.1z"/>
<path class="st1" d="M193.1,128.2l0.2-0.2l0.1,0.1C193.3,128.1,193.2,128.3,193.1,128.2L193.1,128.2z"/>
<path class="st1" d="M190.4,131l0.2-0.2l0.1,0.1l-0.2,0.2L190.4,131z"/>
<path class="st1" d="M193.3,128l0.2-0.2l0.1,0.1l-0.2,0.2L193.3,128z"/>
<path class="st1" d="M193.4,127.8l0.2-0.2l0.1,0.1l-0.2,0.2L193.4,127.8z"/>
<path class="st1" d="M193.8,127.6l-0.1,0.2l-0.1-0.1L193.8,127.6L193.8,127.6z"/>
<path class="st1" d="M189.6,131.8l0.2-0.2l0.1,0.1l-0.2,0.2L189.6,131.8z"/>
<path class="st1" d="M192.3,128.9l0.2-0.2l0.1,0.1l-0.2,0.2L192.3,128.9z"/>
<path class="st2" d="M107.6,115.9c-0.2,1.2-1,2.1-2.1,2.4c-2.5,0.5-5,0.6-7.5,0.4l0.2-0.7l0.9-3h3.6c1.5,0,3,0.1,4.5,0.3
	C107.5,115.4,107.7,115.5,107.6,115.9z"/>
<path class="st1" d="M98.2,118l-0.2,0.7h-0.4c-0.6,0.1-0.9,0-0.6-0.8c0.4-1.2,0.7-2.5,1.1-3.8c0.1-0.3,0.1-0.6,0.5-0.6
	c2.6-0.1,5.3,0,7.9,0.3c1.1,0.2,1.6,0.8,1.4,1.8c0,0.1-0.1,0.2-0.1,0.2c0,0-0.1,0-0.1,0c0-0.4-0.1-0.5-0.5-0.5
	c-1.5-0.2-3-0.3-4.5-0.3h-3.6c0.2-0.3,0.5-0.1,0.8-0.1c2.2-0.1,4.5,0,6.7,0.1c0.2,0,0.6,0.2,0.6-0.2c0.1-0.3-0.1-0.6-0.4-0.6
	c0,0,0,0-0.1,0c-0.4-0.1-0.8-0.1-1.2-0.2c-1.5-0.1-3-0.2-4.5-0.1c-0.8,0-1.8-0.2-2.4,0.1c-0.6,0.4-0.5,1.5-0.8,2.2
	c-0.1,0.3-0.1,0.6-0.3,0.9C97.2,117.9,97.5,118.1,98.2,118z"/>
<path class="st2" d="M74.7,154l0.1-0.2c0.1,0.1,0.1,0.2,0,0.3L74.7,154z"/>
<path class="st2" d="M108.7,162.8c-1.4,0-2.2-0.9-1.7-1.9c0.2-0.4,0.4-0.7,1-0.5c0.6,0.2,1,0.4,1.5,0.6c0.5,0.2,0.8,0.4,0.7,1
	c-0.1,0.6-0.6,0.6-1,0.8C109,162.8,108.8,162.8,108.7,162.8z"/>
<path class="st2" d="M110.3,155.3c-0.1,0.7-0.3,1.4-0.7,2c-0.2,0.3-0.5,0.6-0.9,0.4s-0.4-0.5-0.3-0.9c0-0.8,0.3-1.5,0.7-2.1
	c0.2-0.3,0.6-0.5,0.9-0.3C110.4,154.5,110.4,154.8,110.3,155.3z"/>
<path class="st2" d="M88.9,156.4l-0.1,0.1v-0.2L88.9,156.4z"/>
<path class="st2" d="M79.9,158c0.1-1.2,0.5-2.3,1.3-3.3c0.3-0.4,0.6-0.7,1.1-0.5c0.4,0.2,0.7,0.7,0.6,1.2c-0.1,1.2-0.6,2.3-1.4,3.2
	c-0.3,0.3-0.6,0.7-1.1,0.5C79.9,158.9,79.9,158.5,79.9,158z"/>
<path class="st2" d="M155.1,158.1c0.1-1.3,0.6-2.4,1.4-3.4c0.2-0.3,0.6-0.5,1-0.4c0.4,0.1,0.7,0.6,0.6,1c-0.1,1.5-0.7,2.8-1.8,3.8
	c-0.2,0.2-0.5,0.2-0.8,0.1C155.1,158.9,155.1,158.5,155.1,158.1z"/>
<path class="st2" d="M173.6,157.2c0.2-1,0.8-1.9,1.5-2.5c0.2-0.2,0.5-0.4,0.8-0.2s0.2,0.6,0.1,0.8
	C175.8,156.4,174.8,157.2,173.6,157.2z"/>
<path class="st2" d="M138.8,154.8c0,1.2-0.9,2.2-2,2.5c-0.2,0-0.6,0.1-0.4-0.3c0.2-1,0.8-1.8,1.6-2.4
	C138.4,154.2,138.7,154.2,138.8,154.8z"/>
<path class="st2" d="M181.2,155.8l-0.1,0.1C181.1,156,181.1,155.9,181.2,155.8c-0.1,0-0.1-0.1,0-0.1L181.2,155.8z"/>
<path class="st2" d="M217.6,112.6c0-1.1,0.8-1.9,1.9-2c1.1,0,1.9,0.9,1.9,1.9c0,0,0,0,0,0c0,1.1-0.8,2-1.8,2
	C218.4,114.5,217.6,113.6,217.6,112.6z M218.6,112.6c0,0.2,0,0.4,0,0.6c0,0.2-0.2,0.7,0.2,0.7s0.2-0.4,0.2-0.7s0-0.4,0.3-0.4
	c0.3,0,0.4,0,0.5,0.3c0.1,0.3,0.1,0.4,0.2,0.6c0.1,0.1,0.2,0.2,0.3,0.2c0,0,0,0,0,0c0.1,0,0.1-0.2,0.1-0.3c-0.2-0.6-0.2-1.2,0-1.8
	c0-0.1,0-0.2-0.1-0.3c-0.4-0.5-1-0.4-1.5-0.3c-0.5,0.1-0.2,0.5-0.2,0.8C218.6,112.2,218.6,112.4,218.6,112.6L218.6,112.6z"/>
<path class="st0" d="M98.2,118c-0.7,0.1-1-0.2-0.7-0.9c0.1-0.3,0.2-0.6,0.3-0.9c0.2-0.8,0.2-1.8,0.8-2.2c0.6-0.4,1.6-0.1,2.4-0.1
	c1.5,0,3,0,4.5,0.1c0.4,0,0.8,0.1,1.2,0.2c0.3,0,0.5,0.3,0.5,0.6c0,0,0,0,0,0.1c0,0.4-0.4,0.2-0.6,0.2c-2.2-0.2-4.5-0.2-6.7-0.1
	c-0.2,0-0.6-0.1-0.8,0.1L98.2,118z"/>
<path class="st0" d="M218.6,112.6c0-0.2,0-0.4,0-0.6c0-0.3-0.2-0.7,0.2-0.8c0.4-0.1,1.1-0.2,1.5,0.3c0,0.1,0.1,0.2,0.1,0.3
	c-0.2,0.6-0.2,1.2,0,1.8c0,0.1,0,0.2-0.1,0.3c-0.1,0.1-0.3,0-0.3-0.1c0,0,0,0,0,0c-0.1-0.2-0.1-0.4-0.2-0.6
	c-0.1-0.2-0.3-0.3-0.5-0.3s-0.3,0.2-0.3,0.4c0,0.2,0.2,0.7-0.2,0.7c-0.4,0-0.1-0.5-0.2-0.7C218.5,113,218.5,112.8,218.6,112.6z
	 M219.9,112c0-0.3-0.2-0.4-0.5-0.5s-0.4,0-0.4,0.3c0,0.3,0,0.5,0.3,0.5S219.8,112.3,219.9,112L219.9,112z"/>
<path class="st2" d="M219.9,112c-0.1,0.3-0.3,0.4-0.6,0.4s-0.3-0.3-0.3-0.5c0-0.2,0.2-0.4,0.4-0.3
	C219.7,111.6,219.9,111.7,219.9,112z"/>
</svg>
