<?xml version="1.0" encoding="utf-8"?>
<!-- Generator: Adobe Illustrator 21.1.0, SVG Export Plug-In . SVG Version: 6.00 Build 0)  -->
<svg version="1.1" id="Layer_1" xmlns="http://www.w3.org/2000/svg" xmlns:xlink="http://www.w3.org/1999/xlink" x="0px" y="0px"
	 viewBox="0 0 250 250" style="enable-background:new 0 0 250 250;" xml:space="preserve">
<style type="text/css">
	.st0{fill:#FFFFFF;stroke:#566423;stroke-width:4.2927;}
	.st1{fill:#FFFFFF;filter:url(#Adobe_OpacityMaskFilter);}
	.st2{mask:url(#a);}
	.st3{fill:#22772D;}
	.st4{fill:none;stroke:#231F20;stroke-width:0.8408;}
	.st5{fill:none;stroke:#231F20;stroke-width:1.8582;}
	.st6{fill:#F497A0;}
	.st7{fill:none;stroke:#231F20;stroke-width:1.4354;}
	.st8{fill:#AC5C10;}
	.st9{fill:#CE7918;}
	.st10{fill:#E1B06E;}
	.st11{fill:none;stroke:#231F20;stroke-width:1.2887;}
	.st12{fill:#D08616;}
	.st13{fill:#6DBF69;}
	.st14{fill:none;stroke:#231F20;stroke-width:1.0825;}
	.st15{fill:#AABC26;}
	.st16{fill:#E7E97C;}
	.st17{fill:#AC5C10;stroke:#231F20;stroke-width:0.1873;}
	.st18{fill:none;stroke:#231F20;stroke-width:0.906;}
	.st19{fill:#F27321;stroke:#231F20;stroke-width:6.364393e-02;}
	.st20{fill:#FCBA65;}
	.st21{fill:none;stroke:#231F20;stroke-width:0.8034;}
	.st22{fill:none;stroke:#231F20;stroke-width:1.1328;}
	.st23{fill:#EC1B35;}
	.st24{fill:#F4959E;}
	.st25{fill:none;stroke:#231F20;stroke-width:0.804;}
	.st26{fill:none;stroke:#231F20;stroke-width:1.1337;}
	.st27{fill:#D81730;}
	.st28{fill:#231F20;}
	.st29{fill:none;stroke:#231F20;stroke-width:1.2587;}
	.st30{fill:#FFF100;stroke:#231F20;stroke-width:7.915847e-02;}
	.st31{fill:#FFF696;}
	.st32{fill:none;stroke:#231F20;stroke-width:1.2109;}
	.st33{fill:#FFF100;stroke:#231F20;stroke-width:7.615129e-02;}
	.st34{fill:none;stroke:#231F20;stroke-width:1.3449;}
	.st35{fill:#E83D22;stroke:#231F20;stroke-width:9.015503e-02;}
	.st36{fill:none;stroke:#231F20;stroke-width:1.4229;}
	.st37{fill:#E83D22;stroke:#231F20;stroke-width:9.538661e-02;}
	.st38{fill:none;stroke:#231F20;stroke-width:1.2945;}
	.st39{fill:#FFF100;stroke:#231F20;stroke-width:9.251926e-02;}
	.st40{fill:#50B748;stroke:#231F20;stroke-width:9.251926e-02;}
	.st41{fill:#B2D899;}
	.st42{fill:#FFF7A2;}
	.st43{fill:#AC5C10;stroke:#231F20;stroke-width:0.2039;}
	.st44{fill:#FFF3CD;stroke:#231F20;stroke-width:1.0445;}
	.st45{fill:#FFF3CD;stroke:#231F20;stroke-width:0.5298;}
	.st46{fill:#A52122;}
	.st47{fill:#D85B53;}
	.st48{fill:none;stroke:#231F20;stroke-width:1.002;}
	.st49{fill:none;stroke:#231F20;stroke-width:1.413;}
	.st50{fill:none;stroke:#231F20;stroke-width:0.2538;}
	.st51{fill:#231F20;stroke:#231F20;stroke-width:0.2147;}
	.st52{fill:none;stroke:#000000;stroke-width:1.5319;}
	.st53{fill:none;stroke:#FFFFFF;stroke-width:0.7659;}
	.st54{fill:#FFFFFF;}
	.st55{fill:none;stroke:#231F20;stroke-width:0.3627;}
</style>
<title>Grocery</title>
<ellipse class="st0" cx="125" cy="125" rx="120" ry="64.2"/>
<defs>
	<filter id="Adobe_OpacityMaskFilter" filterUnits="userSpaceOnUse" x="58.5" y="71.7" width="139" height="39.7">
		<feColorMatrix  type="matrix" values="1 0 0 0 0  0 1 0 0 0  0 0 1 0 0  0 0 0 1 0"/>
	</filter>
</defs>
<mask maskUnits="userSpaceOnUse" x="58.5" y="71.7" width="139" height="39.7" id="a">
	<rect x="57.3" y="65.4" class="st1" width="141.1" height="40.6"/>
</mask>
<g class="st2">
	<path class="st3" d="M82.6,76.1c0.8,0.8,1.6,1.6,2.1,2.6c-8.2,7.2-6,17.7-2.8,27.2c-1.7,0.1-3.3-0.6-4.4-1.9
		c-3.6-10.6-3.9-20.1,4.7-27.5C82.4,76.3,82.3,76.3,82.6,76.1z"/>
	<path class="st4" d="M82.6,76.1c0.8,0.8,1.6,1.6,2.1,2.6c-8.2,7.2-6,17.7-2.8,27.2c-1.7,0.1-3.3-0.6-4.4-1.9
		c-3.6-10.6-3.9-20.1,4.7-27.5C82.4,76.3,82.3,76.3,82.6,76.1z"/>
	<path class="st5" d="M92.5,93.2c-0.7,1-1.5,1.9-2.3,2.8c-2.1,2.5-2.5,6-1.2,9l-0.3,0.2c-2-0.1-3.9,0-5.8,0
		c-3.7-9-5.9-17.9,1.3-24.9l0.6-0.3L92.5,93.2z"/>
	<path class="st6" d="M92.1,93c-0.7,1-1.4,2-2.3,2.8c-2,2.6-2.4,6-1,9l-0.3,0.3c-2-0.1-3.9,0.1-5.8,0.1c-3.8-8.9-5.5-18.5,1.6-25.7
		l0.2,0.4L92.1,93z"/>
	<path d="M85.2,83.3c0.5,0.3,0.9,0.9,0.9,1.5c-0.2,0.7-0.9,0.1-1.4,0.1c-0.5-0.3-0.8-0.9-0.9-1.5C84.1,83,84.8,83.2,85.2,83.3z"/>
	<path d="M85,86.1c0.2,0.3,0.5,0.8,0.3,1.1c-0.4,0.4-1,0.4-1.5,0.2c-0.4-0.3-0.5-0.7-0.4-1.2C83.9,86.1,84.5,86,85,86.1z"/>
	<path d="M84.6,88.9c0.3,0.4,0.4,1,0.3,1.5c-0.2,0.5-0.8,0.1-1.3,0.2c-0.6-0.4-0.3-1.1-0.2-1.5C83.7,88.8,84.2,88.8,84.6,88.9z"/>
	<path d="M84.3,92c0.6,0.4,0.4,0.9,0.2,1.4c-0.3,0.5-0.9,0.2-1.3,0c-0.3-0.4-0.3-1,0-1.4C83.6,91.9,84,92,84.3,92z"/>
	<path class="st7" d="M98.5,81.2c0.8,0.6-0.1,2.1,0.5,2.9c0.1,0.3-0.2,0.4-0.3,0.6s-0.5-0.3-0.6-0.5C98.1,83.2,98.2,82.2,98.5,81.2z
		"/>
	<path class="st7" d="M97.5,83.7c0.3,0.5-0.7,0.8-0.3,1.4c0.6,0.5,1.3,0.7,2.1,0.5c0.5-0.4,0.7-1.1,0.4-1.6c-0.2-0.1-0.3-0.4,0-0.5
		c0.7,0.5,2.2,1.2,2.5,2.1c1,1.6-0.5,3.3,0.4,5.3c0.9,4.5,4.8,11.9-1.9,14.2c-0.8,0.3-2-1.3-2-1.3c-2.5-2.6-5.8-3.4-9.4-3.5
		c-1-2.3-0.7-5,1-7c1.9-2,4.7-4.2,4.7-7.2C95.5,85,96.4,84.2,97.5,83.7z"/>
	<path class="st8" d="M98.3,81.4c0.8,0.6-0.1,2.1,0.5,2.9c0.1,0.3-0.2,0.4-0.3,0.6c-0.2,0.2-0.5-0.3-0.6-0.5
		C97.9,83.4,98,82.3,98.3,81.4z"/>
	<path class="st9" d="M97.5,83.7c0.3,0.5-0.7,0.8-0.3,1.4c0.6,0.5,1.3,0.7,2.1,0.5c0.5-0.4,0.7-1.1,0.4-1.6c-0.2-0.1-0.3-0.4,0-0.5
		c0.7,0.5,2.2,1.2,2.5,2.1c1,1.6-0.5,3.3,0.4,5.3c0.9,4.5,4.8,11.9-1.9,14.2c-0.8,0.3-2-1.3-2-1.3c-2.5-2.6-5.8-3.4-9.4-3.5
		c-1-2.3-0.7-5,1-7c1.9-2,4.7-4.2,4.7-7.2C95.5,85,96.4,84.2,97.5,83.7z"/>
	<path class="st10" d="M102.8,102.2c-0.9-0.6-3.4-1.5-4.7-1.1s-2.3-5.8,0.6-3.9c3.5,2.2,1.6-4.2,1.8-7.1c0-1.1,1.3-1.5,1.2-0.1
		c-0.5,1.8-0.2,3.7,0.7,5.3C103.9,97.2,104.5,100.8,102.8,102.2z"/>
	<path class="st11" d="M172.6,93.7c-0.5,0.9-1.1,1.7-1.8,2.4c-0.7-0.6-0.7-1.4-1.3-2.1c0.9-0.9,1.5-2.4,2.8-2.6
		C172.6,92,172.7,92.9,172.6,93.7z"/>
	<path class="st11" d="M158.9,104.3c0.7,0.8,1.3,1.6,1.9,2.5c0.4-0.6,0.9-1.1,1.5-1.4c-0.4-0.9-0.9-1.8-1.5-2.7
		c-0.3-0.2-2,1.5-2,1.8"/>
	<path class="st11" d="M157.2,101.8c0.3,0.7,0.7,1.4,1.1,2c0.6-0.7,1.3-1.3,2.1-1.7C158.8,99.1,158.3,98.9,157.2,101.8z"/>
	<path class="st11" d="M161.7,102.5c0,0,1.2,1.9,1.1,2.4c0.7-0.8,1.6-1.5,2.5-2.1l-1.9-2.7C163.3,100.1,162.9,100.2,161.7,102.5z"/>
	<path class="st11" d="M156.4,100.8l-1.8-1.9l1.2-2.1l1.9,2.3C157.1,99.6,156.7,100.2,156.4,100.8z"/>
	<path class="st11" d="M159.3,99.6l1.3-2.5c0.8,0.7,1.5,1.5,2.1,2.3c-0.6,0.7-1.1,1.6-1.3,2.5C160.6,101.2,159.9,100.4,159.3,99.6z"
		/>
	<path class="st11" d="M164.2,99.9c0.7,0.9,1.3,1.8,1.8,2.8c0.9-0.8,2.7-2,2.7-2l-2.2-2.7C166.5,98.1,164.5,99.1,164.2,99.9z"/>
	<path class="st11" d="M167.3,97.9c0.8,0.8,1.5,1.6,2.2,2.5c0.6-0.8,1.4-1.6,2.2-2.3l-1.2-1.7L167.3,97.9z"/>
	<path class="st11" d="M163.5,99.2l-2.5-2.8l2.8-2l2.1,3.3C165.9,97.7,164,98.2,163.5,99.2z"/>
	<path class="st11" d="M166.8,97.2c-0.2-0.3-1.9-2.7-1.9-2.7s2.9-1.9,3.3-1.5c0.7,0.8,1.2,1.8,1.7,2.8
		C168.8,96.4,167.8,96.9,166.8,97.2z"/>
	<polygon class="st11" points="158.3,98.5 156.2,96.3 158.2,94.8 160.4,96.7 	"/>
	<path class="st11" d="M158.8,94.3l1.9,1.5c0.7-0.8,1.5-1.5,2.3-2l-2-2L158.8,94.3z"/>
	<path class="st11" d="M164.1,89.8l-2.6,1.9l1.8,1.8c0.5,0,0.9,0.3,1.1,0.7c0.4-0.7,2.9-1.8,2.9-1.8
		C166.3,91.4,165.2,90.6,164.1,89.8z"/>
	<polygon class="st11" points="155.1,96.7 154.2,96 154,98.6 	"/>
	<polygon class="st11" points="155.6,96.1 154.6,95.7 155.5,93.2 157.8,94.5 	"/>
	<path class="st11" d="M158.3,94.1l-1.7-1.3c0,0,2.3-3.2,2.7-3c0.5,0.5,0.9,1.2,1.2,1.8C159.7,92.3,158.9,93.2,158.3,94.1z"/>
	<path class="st11" d="M164.7,89.3l2.1,1.7l1.4-2.3C168.3,88.8,166.3,84.3,164.7,89.3z"/>
	<path class="st11" d="M166.6,79.1l-0.3,0.4l-1.1-1.6l1.9-3.8C167.3,76.5,169,77.4,166.6,79.1z"/>
	<path class="st11" d="M172.9,79.7c-0.7,0.8-1.4,0.9-1.8,1.9c-0.5,0.6-1.3,0.6-2,1c0.5-1.1,0.5-2.2,2-2.8
		C171.7,79.6,172.3,79.6,172.9,79.7z"/>
	<path class="st11" d="M170.1,78.1c-1.7,1.3-0.9,3.4-2.2,4.9c-0.8-0.6-1.3-1.5-1.4-2.5C166.9,78.9,168.5,77.9,170.1,78.1z"/>
	<path class="st11" d="M164.9,77.3c-0.3,0.2-0.8,1.2-1.2,0.3c0.1-0.9,0.1-1.9,0-2.8C164.7,75.6,165.1,76.3,164.9,77.3z"/>
	<path class="st11" d="M172.6,83.2c-1.5,0.3-2.7,2-4.2,1c0-0.3-0.1-0.6,0.1-0.9C169.8,83.1,171.3,82.2,172.6,83.2z"/>
	<path class="st11" d="M166,81.7l-1.3,1.3c-0.8-0.5-0.9-1.6-1.8-2.2c0-1.1,1-1.7,1.7-2.5C165.5,79.3,166,80.5,166,81.7z"/>
	<path class="st11" d="M163.5,78.6l-1.2,1.7c-0.5-0.5-1.9-0.8-1.4-1.8c-0.6-0.6-1-1.3-1.1-2.2c0.5-0.3,1.3,0.2,1.9,0.3
		C162.3,77.2,163,77.9,163.5,78.6z"/>
	<path class="st11" d="M169,87c-0.5,0.1-0.9-0.2-1.3-0.3c0-2,1.5-0.9,2.7-1C170,86.2,169.6,86.7,169,87z"/>
	<path class="st11" d="M167.7,85.2c-0.3,0.4-0.1,1-0.6,1.3c-0.7-0.5-1.4,0.8-2-0.2c-0.2-0.1-0.5,0-0.7-0.3c0.3-1.3,1-2.5,2.1-3.2
		C167,83.5,167.7,84.3,167.7,85.2z"/>
	<path class="st11" d="M160.8,83c-1.6-0.3-2-1.5-2.7-2.7c0.6-0.4,1.3-0.7,2.1-0.6l1.6,1.3L160.8,83z"/>
	<path class="st11" d="M164.1,84.8c-0.4,0.9-0.9,1.6-1.9,1.5c-1.6-0.3-0.8-1.6-0.8-2.5c0.4-0.6,0.5-1.3,1.1-1.8
		C163.5,82.6,164.1,83.7,164.1,84.8z"/>
	<path class="st11" d="M171,88.8l-0.5,0.6c-0.3-0.2-0.5-0.5-0.6-0.8c0.1-0.2,0.3-0.4,0.6-0.3c0,0,0,0,0,0
		C170.7,88.5,171,88.5,171,88.8z"/>
	<path class="st11" d="M171.8,90.8c-0.5,0.2-0.6-0.4-0.9-0.6c-0.3-0.5,0.4-0.6,0.6-0.9C171.8,89.7,172.1,90.3,171.8,90.8z"/>
	<path class="st11" d="M169,88.1c0.1,0.4-0.4,0.3-0.5,0.5c-0.3-0.3-0.9-0.7-0.5-1.1C168.4,87.4,168.7,87.9,169,88.1z"/>
	<path class="st11" d="M171,91.1c-0.8,0.7-1.5,1.6-2.2,2.5c-0.3-0.9-0.7-1.7-1.3-2.5c0.2-1,0.9-1.8,1.7-2.3
		C170,89.5,170.6,90.3,171,91.1z"/>
	<path class="st11" d="M164.3,89c-0.5-0.1-0.7-0.6-1-1c0.3-0.6,0.8-1,1.4-1.1C165.7,87.6,164.5,88.1,164.3,89z"/>
	<path class="st11" d="M160.7,84.2c-0.1,0.9,0.2,2.1-1.2,2.2c-0.4-0.3-0.6-0.7-0.9-1.1c-0.6-0.4-1.1-0.4-1.6-0.9
		C157.9,83.8,159.5,82.3,160.7,84.2z"/>
	<path class="st11" d="M163.4,87.1c-0.3,0-0.3,0.7-0.7,0.1C162.6,86.8,163.2,86.8,163.4,87.1z"/>
	<path class="st11" d="M161.6,86.7c-0.4,0.7-1.4,1.3-1.8,2c-0.2-0.5-0.8-1.2-0.1-1.5S161,86.3,161.6,86.7z"/>
	<path class="st11" d="M163.6,89.2c-0.6,0.7-1.7,1.1-2.3,1.9c-0.4-0.6-0.7-1.3-1-2c0.4-0.7,1.1-1.3,1.8-1.7
		C162.6,87.9,163.1,88.5,163.6,89.2z"/>
	<path class="st11" d="M159.3,88.8c-0.7,0.7-1.3,1.8-2.3,2.2c-0.1,0.1-0.2,0.4-0.4,0.3c-1-1.2,0.8-2.3,1.3-3.1
		C158.5,87.4,159.3,88.1,159.3,88.8z"/>
	<path class="st11" d="M162.3,108.1l-1.4-0.4l1.9-1.9l1.5,2.1c-0.6,0.2-1.2,0.3-1.8,0.4"/>
	<path class="st11" d="M164.8,108.1l1.8,0.5c0,0,1.9-0.1,2.3-0.9c0.4-0.8-1.9-1.5-3.9,0.2"/>
	<path class="st11" d="M164.7,107.4l-1.5-1.8c0.8-0.8,1.6-1.6,2.4-2.3c0.6-0.4,1.7,2.2,1.7,3.1C166.6,106,164.7,107.4,164.7,107.4z"
		/>
	<path class="st11" d="M160.4,107.5c0,0-2-0.4-2.5-1.1s0.3-1.9,0.3-1.9S160.5,106.9,160.4,107.5z"/>
	<path class="st11" d="M155.2,103c-0.5,0.9,1.2,2.5,2,2.9C157.2,105.5,155.2,103,155.2,103z"/>
	<path class="st11" d="M156,103.5c0,0,1.2,1.2,1.3,1.7c0.2-1,0.4-1.2,0.4-1.2l-1.3-2C156,102.3,155.8,102.9,156,103.5z"/>
	<path class="st11" d="M168.3,106.5c0,0,0.9,0.3,1,0.5c0.7-0.3,1.3-0.8,1.7-1.3l0.3-1.1C170.1,104.8,169,105.5,168.3,106.5z"/>
	<path class="st11" d="M155.4,102.7c0,0-1.5-1-1.7-1.8C153.4,101.6,154.8,103,155.4,102.7z"/>
	<path class="st11" d="M155.9,101.4c0.4,0.1-2.1-2.5-2.1-2.5s-0.4,1.2-0.1,1.6c0.6,0.5,1.2,1,1.8,1.5
		C155.5,102,155.7,101.3,155.9,101.4z"/>
	<path class="st11" d="M166.8,103.1c0,0,1.6,2,1.3,2.8c0,0,2-2,2.4-1.9c0.1-1.1-0.4-2.1-1.3-2.7C169.1,101,167.4,102.3,166.8,103.1z
		"/>
	<path class="st11" d="M171.1,104c0,0,0.5-0.2,0.5,0.2c0.5-0.8,0.8-1.7,0.7-2.6C172.2,102.5,171.8,103.3,171.1,104z"/>
	<path class="st11" d="M171.2,103.3c0.4-0.7,0.5-1.5,0.5-2.3c-0.1-0.7,0-1.4,0.1-2.1l-2.1,2.2C169.8,101,171.4,101.9,171.2,103.3z"
		/>
	<path class="st11" d="M173,94.3c0,0-1.2,1-1.3,1.5c0,0.3-0.2,0.5-0.5,0.7l0.7,1.6C171.9,98,173.3,94.8,173,94.3z"/>
	<path class="st11" d="M156.4,91.7l-0.3,0.8C156.1,92.5,155.7,90.6,156.4,91.7z"/>
	<path class="st8" d="M172.5,93.5c-0.5,0.9-1.1,1.7-1.8,2.3c-0.7-0.6-0.7-1.4-1.3-2.1c0.8-0.9,1.5-2.4,2.7-2.6
		C172.4,91.9,172.5,92.7,172.5,93.5z"/>
	<path class="st8" d="M158.7,104.2c0.7,0.8,1.3,1.6,1.9,2.5c0.4-0.6,0.9-1.1,1.5-1.4c-0.4-0.9-0.9-1.8-1.5-2.7c-0.3-0.2-2,1.5-2,1.8
		"/>
	<path class="st8" d="M157,101.7c0.3,0.7,0.7,1.4,1.1,2c0.6-0.7,1.3-1.2,2.1-1.7C158.6,99,158.1,98.8,157,101.7z"/>
	<path class="st8" d="M161.5,102.3c0,0,1.2,1.9,1.1,2.4c0.7-0.8,1.5-1.5,2.5-2.1l-1.9-2.7C163.1,100,162.7,100,161.5,102.3z"/>
	<path class="st8" d="M156.2,100.7l-1.9-1.9l1.2-2.1l1.9,2.3C156.9,99.4,156.5,100,156.2,100.7z"/>
	<path class="st8" d="M159.1,99.4l1.3-2.5c0.8,0.7,1.5,1.5,2.1,2.3c-0.6,0.7-1.1,1.6-1.3,2.5C160.4,101,159.7,100.3,159.1,99.4z"/>
	<path class="st8" d="M164,99.8c0.7,0.9,1.3,1.8,1.8,2.8c0.9-0.8,2.7-2,2.7-2l-2.2-2.7C166.3,97.9,164.3,98.9,164,99.8z"/>
	<path class="st8" d="M167.1,97.8c0.8,0.8,1.5,1.6,2.2,2.5c0.6-0.8,1.4-1.6,2.2-2.3l-1.2-1.7L167.1,97.8z"/>
	<path class="st8" d="M163.3,99.1l-2.5-2.9l2.8-2l2.1,3.3C165.7,97.5,163.8,98.1,163.3,99.1z"/>
	<path class="st8" d="M166.6,97.1c-0.2-0.3-1.9-2.7-1.9-2.7s2.9-1.9,3.3-1.5c0.7,0.8,1.2,1.8,1.7,2.8
		C168.6,96.3,167.6,96.7,166.6,97.1z"/>
	<polygon class="st8" points="158.1,98.4 156,96.2 158,94.6 160.2,96.5 	"/>
	<path class="st8" d="M158.6,94.2l1.9,1.5c0.7-0.8,1.5-1.5,2.3-2l-2-2L158.6,94.2z"/>
	<path class="st8" d="M163.9,89.7l-2.6,1.9l1.8,1.8c0.5,0,0.9,0.3,1.1,0.7c0.4-0.7,2.9-1.8,2.9-1.8
		C166.1,91.3,165.1,90.4,163.9,89.7z"/>
	<polygon class="st8" points="155,96.6 154.1,95.8 153.9,98.4 	"/>
	<polygon class="st8" points="155.4,96 154.9,95.5 155.3,93.1 157.6,94.4 	"/>
	<path class="st8" d="M158.1,93.9l-1.7-1.3c0,0,2.3-3.2,2.7-3c0.5,0.5,0.9,1.2,1.2,1.8C159.4,92.2,158.7,93,158.1,93.9z"/>
	<path class="st8" d="M164.5,89.2l2.1,1.7l1.4-2.3C168.1,88.7,166.2,84.2,164.5,89.2z"/>
	<path class="st3" d="M166.5,79l-0.4,0.5l-0.9-1.7l2.2-5C167.5,75.3,168.9,77.4,166.5,79z"/>
	<path class="st3" d="M173,79.6c-0.7,0.8-1.5,1.2-1.9,2.2c-0.5,0.6-1.3,0.6-2,1c0.5-1.1,0.3-3,1.9-3.3
		C171.7,79.4,172.3,79.4,173,79.6z"/>
	<path class="st3" d="M170.2,77.9c-1.7,1.3-0.9,3.4-2.3,4.9c-0.8-0.6-1.3-1.5-1.4-2.5C167,78.8,168.6,77.8,170.2,77.9z"/>
	<path class="st3" d="M164.7,76.8c-0.3,0.2-0.8,1.2-1.2,0.3c0.1-1,0.1-2.1,0-3.1C164.1,74.8,165,75.7,164.7,76.8z"/>
	<path class="st3" d="M172.8,83.3c-1.4,0.3-2.7,2-4.2,1c0-0.3-0.2-0.6,0.1-0.9C170,83.2,171.5,82.3,172.8,83.3z"/>
	<path class="st3" d="M165.8,81.7l-1.3,1.3c-0.7-0.5-0.9-1.6-1.8-2.2c0-1.1,1-1.7,1.7-2.5C165.2,79.3,165.7,80.5,165.8,81.7z"/>
	<path class="st3" d="M163.3,78.4l-1.2,1.7c-0.5-0.5-1.9-0.8-1.4-1.8c-0.2-0.8-0.5-1.6-1.1-2.2c0.5-0.3,1.3,0.2,1.9,0.3
		C162.2,77,162.8,77.7,163.3,78.4z"/>
	<path class="st3" d="M169.2,86.7c-0.5,0.1-0.9-0.2-1.3-0.3c0-2,1.6-0.3,2.7-1C170.3,86,169.8,86.4,169.2,86.7z"/>
	<path class="st3" d="M167.4,85.1c-0.3,0.4-0.1,1-0.6,1.3c-0.7-0.5-1.4,0.8-2-0.2c-0.2-0.1-0.5,0-0.7-0.3c0.3-1.3,1-2.4,2.1-3.2
		C166.8,83.4,167.5,84.2,167.4,85.1z"/>
	<path class="st3" d="M160.5,83c-1.5-0.3-1.3-2.1-2.7-2.7c0.6-0.4,1.3-0.7,2.1-0.6l1.6,1.3L160.5,83z"/>
	<path class="st3" d="M164,84.6c-0.4,0.9-0.9,1.6-1.9,1.5c-1.6-0.3-0.8-1.6-0.8-2.5c0.4-0.6,0.5-1.3,1.1-1.8
		C163.3,82.5,163.9,83.5,164,84.6z"/>
	<path class="st8" d="M170.8,88.7l-0.5,0.6c-0.3-0.2-0.5-0.5-0.6-0.8c0.1-0.2,0.4-0.4,0.6-0.3c0,0,0,0,0,0
		C170.5,88.3,170.8,88.4,170.8,88.7z"/>
	<path class="st8" d="M171.7,90.7c-0.5,0.1-0.6-0.4-0.9-0.7c-0.3-0.5,0.4-0.6,0.6-0.9C171.6,89.5,171.9,90.2,171.7,90.7z"/>
	<path class="st8" d="M168.8,88c0.1,0.4-0.4,0.3-0.5,0.5c-0.3-0.3-0.9-0.7-0.5-1.1C168.2,87.3,168.5,87.8,168.8,88z"/>
	<path class="st8" d="M170.8,91c-0.8,0.7-1.5,1.6-2.2,2.5c-0.3-0.9-0.8-1.8-1.4-2.5c0.2-1,0.9-1.8,1.7-2.3
		C169.8,89.3,170.4,90.1,170.8,91z"/>
	<path class="st8" d="M164.1,88.8c-0.5-0.1-0.7-0.6-1-1c0.3-0.6,0.8-1,1.4-1.1C165.5,87.4,164.3,88,164.1,88.8z"/>
	<path class="st3" d="M160.4,84c-0.1,0.9,0.2,2.1-1.2,2.2c-0.4-0.3-0.6-0.7-0.9-1.1c-0.5-0.4-1.1-0.4-1.6-0.9
		C157.6,83.5,159.3,82.2,160.4,84z"/>
	<path class="st8" d="M163.2,86.9c-0.3,0-0.3,0.7-0.7,0.1C162.4,86.7,163.1,86.7,163.2,86.9z"/>
	<path class="st8" d="M161.4,86.6c-0.5,0.7-1.4,1.3-1.8,2c-0.2-0.5-0.8-1.2-0.1-1.5S160.8,86.1,161.4,86.6z"/>
	<path class="st8" d="M163.4,89c-0.6,0.7-1.7,1.1-2.3,1.9c-0.4-0.6-0.7-1.3-1-2c0.4-0.7,1.1-1.3,1.8-1.7
		C162.4,87.7,162.9,88.3,163.4,89z"/>
	<path class="st8" d="M159.1,88.6c-0.7,0.7-1.3,1.8-2.3,2.2c-0.1,0.1-0.1,0.4-0.4,0.3c-1-1.2,0.8-2.3,1.3-3.1S159.1,87.9,159.1,88.6
		z"/>
	<path class="st8" d="M162.1,108l-1.4-0.4l1.9-1.9l1.5,2c-0.6,0.2-1.2,0.3-1.8,0.3"/>
	<path class="st8" d="M164.6,108l1.9,0.5c0,0,1.9-0.1,2.3-0.9c0.4-0.8-1.9-1.5-3.9,0.2"/>
	<path class="st8" d="M164.5,107.3l-1.5-1.8c0.8-0.8,1.6-1.6,2.5-2.3c0.6-0.4,1.7,2.3,1.7,3.1C166.5,105.9,164.5,107.3,164.5,107.3z
		"/>
	<path class="st8" d="M160.2,107.4c0,0-2-0.4-2.5-1.1s0.3-1.9,0.3-1.9S160.3,106.8,160.2,107.4z"/>
	<path class="st8" d="M155,102.9c-0.5,0.9,1.2,2.5,2,2.9C157,105.3,155,102.9,155,102.9z"/>
	<path class="st8" d="M155.8,103.3c0,0,1.2,1.2,1.3,1.7c0.2-1,0.4-1.2,0.4-1.2l-1.3-2C155.8,102.2,155.6,102.8,155.8,103.3z"/>
	<path class="st8" d="M168.1,106.3c0,0,0.9,0.3,1,0.5c0.7-0.3,1.3-0.8,1.7-1.3l0.3-1.1C169.9,104.6,168.8,105.3,168.1,106.3z"/>
	<path class="st8" d="M155.2,102.5c0,0-1.5-1-1.7-1.7C153.2,101.5,154.6,102.9,155.2,102.5z"/>
	<path class="st8" d="M155.7,101.3c0.4,0.1-2.1-2.5-2.1-2.5s-0.4,1.2-0.1,1.6c0.6,0.5,1.2,1,1.8,1.5
		C155.3,101.9,155.5,101.2,155.7,101.3z"/>
	<path class="st8" d="M166.7,103c0,0,1.6,2,1.3,2.8c0,0,2-2,2.4-1.9c0.1-1.1-0.4-2.1-1.3-2.7C168.9,100.9,167.2,102.2,166.7,103z"/>
	<path class="st8" d="M171,103.8c0,0,0.5-0.2,0.5,0.2c0.5-0.8,0.8-1.7,0.8-2.6C172,102.3,171.6,103.1,171,103.8z"/>
	<path class="st8" d="M171,103.1c0.4-0.7,0.6-1.5,0.5-2.3c-0.1-0.7,0-1.4,0.1-2.1l-2.1,2.1C169.6,100.8,171.2,101.8,171,103.1z"/>
	<path class="st8" d="M172.8,94.1c-0.4,0.4-0.7,0.9-0.9,1.5c0,0.5-0.9,0.7-0.9,0.7l0.7,1.6C171.7,97.9,173.1,94.7,172.8,94.1z"/>
	<path class="st8" d="M156.2,91.6l-0.3,0.8C155.9,92.4,155.5,90.5,156.2,91.6z"/>
	<path class="st12" d="M166,87.8c0.1,0.2,0.2,0.3,0.4,0.2c0.1,0,0.2-0.2,0.1-0.4c-0.1-0.2-0.2-0.3-0.4-0.2
		C165.9,87.5,165.9,87.7,166,87.8z"/>
	<path class="st12" d="M168.8,89.9c0.1,0.3,0.4,0.4,0.5,0.3c0.2-0.1,0.2-0.3,0.1-0.6s-0.4-0.4-0.5-0.3
		C168.7,89.3,168.7,89.6,168.8,89.9z"/>
	<path class="st12" d="M171.6,92.4c0.1,0.2,0.3,0.4,0.4,0.4c0.1-0.1,0.1-0.3,0-0.5c-0.1-0.2-0.3-0.4-0.4-0.4
		C171.5,91.9,171.5,92.1,171.6,92.4z"/>
	<path class="st13" d="M167.3,73.4l-0.7,3.2C166.6,76.6,168,77.6,167.3,73.4z"/>
	<path class="st13" d="M171.7,79.7l-1.9,2.2C169.8,80.7,170.6,79.8,171.7,79.7z"/>
	<path class="st13" d="M169.4,84.3c0.9-0.5,1.9-0.8,2.9-0.9C172.3,83.4,171.1,82.3,169.4,84.3z"/>
	<path class="st13" d="M168.3,81.8l1-3.2C168.2,79.3,167.8,80.6,168.3,81.8z"/>
	<path class="st14" d="M174.1,92.5c-4.2,3-3.4,5.7-2.4,8.5c0.8,2.3,2.8,3.9,5.2,4.1c3.2,1.9,6.7-0.1,8.2-4.3c1.6-5.7-1.3-6.3-1-9.8
		c0.3-2.3,0-4.7-1.8-5.4c-0.4,0-0.4,0.2-0.5,0.5c0.2,0.2,0.7,0.3,0.6,0.8c-0.2,0.1-0.9,0.4-1.1,0.1c-0.5-0.4-0.8-0.8-1.1-1.3
		c0.2-0.5,0.9-0.1,0.5-1c-1-0.1-2,0.3-2.7,1.1C176.6,87.9,176,90.6,174.1,92.5z"/>
	<path class="st15" d="M174,92.5c-4,3.5-3.7,5.8-2.4,8.5c1.1,2.3,2.3,3.7,5.2,4.1c3,2,6.9-0.1,8.5-4.3c1.4-5.9-1.5-6.4-1.3-9.9
		c0.3-2.3,0-4.7-1.8-5.4c-0.4-0.1-0.4,0.2-0.5,0.5c0.2,0.2,0.3,0,0.1,0.4c-0.2,0.1-0.3,0.3-0.6,0.1c-0.6-0.3-0.4-0.2-0.7-0.8
		c0.2-0.5,0.4-0.2,0-1.1c-1-0.1-2,0.3-2.7,1.1C176.5,87.8,175.9,90.8,174,92.5z"/>
	<path class="st16" d="M182.9,86.5c0.8,0.9,1.2,2.2,1,3.4c-0.3,1.1,0.1,6.8-0.6,5.7s-0.5-6.1-0.5-6.1
		C183.3,88.5,183.3,87.4,182.9,86.5z"/>
	<path class="st17" d="M180.9,86c0.5-1,0.5-2.4,1.3-3.1c0.7,0.9-0.8,2.4-0.5,3.4"/>
	<path class="st18" d="M104,104.6c1.5,2.2,5,5.2,10.2,2.2c4.1-2.4,3.1-11.3-2.6-13.2S100.1,99,104,104.6z"/>
	<path class="st19" d="M104,104.6c1.5,2.2,5,5.2,10.2,2.2c4.1-2.4,3.1-11.3-2.6-13.2S100.1,99,104,104.6z"/>
	<path class="st20" d="M110.9,94.7c2.8,0.4,4.9,2.6,5.2,5.4c0,2-0.8,1.2-0.9,0.1c0.1,1.2-2.4-2.8-2.9-2.7
		C110.7,97.7,106.9,94.2,110.9,94.7z"/>
	<path class="st21" d="M126.9,99.2c-0.1,1.7,0.3,3.5-0.4,4.9s-1,2.1-2,2.1c-0.4,0.7-1.2,1.1-2.1,1c-2,2.1-6,0.9-9.1-4.1
		c-2.3-4.2,0.3-6.2,0.5-6.7c0.9-0.6,2-0.9,3-1c0.4,0,0.3,0.6,0.6,0.8c-0.2,0.4-0.8,0.4-1.2,0.6c0.1,0.4,0.8,0.3,1.1,0.4
		c1.3-0.4,2.4-1.3,3.1-2.5c0-0.2-0.1-0.3-0.2-0.5c-0.1,0.3-0.9,0.8-1.2,0.7c0.3-1,1.7-1.7,2.7-2.1c1.6-0.5,2.9,0.5,4,1.6
		S126.9,97.4,126.9,99.2z"/>
	<path class="st22" d="M118.1,94c0.4,0.5,0.9,0.9,0.8,1.7c-0.2,0.1-0.3,0.2-0.5,0.2c-1.2-0.4-1.5-1.1-1.2-2.4
		C118.5,92.5,117.7,93.9,118.1,94z"/>
	<path class="st23" d="M126.7,99.2c-0.1,1.7,0.3,3.4-0.5,4.9c-0.8,1.5-1,2.1-2,2.1c-0.4,0.7-1.2,1.1-2.1,1c-2,2.1-5.8,0.8-8.9-4.2
		c-1.9-4.2,0.2-5.9,0.5-6.2c0.8-0.7,1.8-1.1,2.9-1.1c0.4,0,0.8,0.7,1.2,0.9c1.2-0.4,1.9-0.5,2.5-1.7c0-0.2-0.1-0.3-0.2-0.5
		c-0.1,0.3-0.9,0.8-1.2,0.7c0.3-1,1.8-1.4,2.7-1.8c1.5-0.4,3.1,0.1,4,1.3C126.7,95.7,126.7,97.4,126.7,99.2z"/>
	<path class="st8" d="M118.1,94c0.5,0.4,0.8,1.1,0.7,1.7c-0.1,0.1-0.3,0.2-0.5,0.2c-1.1-0.4-1.4-1.2-1.1-2.4
		C118.4,92.6,117.7,93.9,118.1,94z"/>
	<path class="st24" d="M123.6,94.1c0,0-0.7-0.1-1.2,1.1c-0.2,0.5-0.6,1.1,0.8,2s2.7,3.5,2.4,4.4C125.2,102.4,129,96.7,123.6,94.1z"
		/>
	<path class="st25" d="M151.7,103.3c-0.9,1.3-2.1,2.5-3.5,3.3c-1.4,0.9-2.1,1-2.9,0.5c-0.8,0.3-1.7,0.1-2.3-0.5
		c-2.9,0.4-5.9-3-5.5-8.8c0.1-2.6,2.3-4.7,5-4.6c1.1,0.1,2.2,0.5,3.1,1.1c0.3,0.3-0.5,0.7-0.4,1c-0.5,0.2-0.9-0.2-1.3-0.3
		c-0.1,0.4,0.5,0.7,0.7,1c1.2,0.4,2.6,0.3,3.7-0.3c0.1-0.2,0.1-0.3,0.1-0.5c-0.3,0.1-0.9,0.3-1.1,0c0.9-0.5,2-0.6,3-0.3
		c1.6,0.6,2.1,2.1,2.5,3.7C153,100.3,152.7,102,151.7,103.3z"/>
	<path class="st26" d="M147,93.7c0.2,0.7,0,1.4-0.3,2.1c-0.2,0-0.4,0-0.6-0.1c-0.7-0.8-0.6-2,0.2-2.7c0.1-0.1,0.1-0.1,0.2-0.1
		C148.3,92.7,146.7,93.3,147,93.7z"/>
	<path class="st27" d="M151.5,103.2c-0.9,1.3-2.1,2.4-3.5,3.3c-1.3,0.9-2.1,1-2.9,0.5c-0.8,0.3-1.7,0.1-2.3-0.5
		c-2.9,0.4-5.7-3-5.3-8.8c0.2-2.4,2.3-4.3,4.7-4.3c1.1,0,2.1,0.3,3,0.9c0.3,0.3-0.1,1,0,1.3c0.8,0.5,1.8,0.5,2.7,0
		c0.1-0.2,0.1-0.3,0.1-0.5c-0.3,0.1-0.9,0.3-1.1,0c0.8-0.6,2-0.3,3,0c1.4,0.6,2.4,1.9,2.6,3.5C152.9,100.2,152.5,101.9,151.5,103.2z
		"/>
	<path class="st8" d="M147,93.7c0.1,0.7,0,1.5-0.4,2.1c-0.2,0-0.4,0-0.6-0.1c-0.6-0.8-0.5-2,0.3-2.7c0.1,0,0.1-0.1,0.2-0.1
		C148.1,92.8,146.8,93.3,147,93.7z"/>
	<path class="st24" d="M150.7,97.2c0,0-0.6-0.4-1.5,0.3c-0.4,0.3-1,0.6-0.1,2c0.9,1.4,1,4,0.4,4.6c2.2-1,3.1-3.5,2.1-5.7
		C151.4,98,151.1,97.6,150.7,97.2z"/>
	<path class="st28" d="M166.6,94.9c0,0,1.5,2.1,1.2,3.5c-0.3,1.3,2.3,0.9,2.6-1.9"/>
	<path class="st28" d="M167.7,94.9c0.4,0.9,0.6,1.9,0.5,2.8c0.2-0.4,0.4-0.8,0.7-1.1l-0.6-2.1C168.3,94.5,168,95,167.7,94.9z"/>
	<path class="st29" d="M196.2,95.2c-0.1,1-1.2,1.8-1.8,2.6c-2.4,2.7-5,5.6-8.5,6c-0.2,0.2-0.3,0.3-0.1,0.6c4.5,0.4,7.7-4.1,10.1-7.5
		c0.3-0.3,0.3-1.2,0.9-1c0.2,1.8-0.1,3.7-1,5.3c-0.9,1.7-2.1,3.3-3.5,4.6c0,0-11.3,7.2-22-1.9c-1.8-2.5-3-3.7-1.8-5.7
		c0.9,1.2,1.8,2.4,2.8,3.5l0.3-0.2c-0.8-1.6-2.7-2.9-2.4-4.8h0.3c4.7,4.7,12.7,5.8,18.8,3.6c3-1,5.6-2.8,7.6-5.2L196.2,95.2z"/>
	<path class="st29" d="M167.7,93.6c0.2,0.4-0.1,0.7-0.4,0.8h-0.2C166.8,94,167.3,93.5,167.7,93.6z"/>
	<path class="st28" d="M195.3,94.6c0.4-0.6,0.6-0.3,1-0.4c0.4,0,0.7-0.7,1.1-0.3s-0.2,1,0,1.7S196.3,96.6,195.3,94.6z"/>
	<path class="st30" d="M196.2,95.2c-0.1,1-1.2,1.8-1.8,2.6c-2.4,2.7-5,5.6-8.5,6c-0.2,0.2-0.3,0.3-0.1,0.6c4.5,0.4,7.7-4.1,10.1-7.5
		c0.3-0.3,0.3-1.2,0.9-1c0.2,1.8-0.1,3.7-1,5.3c-0.9,1.7-2.1,3.3-3.5,4.6c0,0-11.3,7.2-22-1.9c-1.8-2.5-3-3.7-1.8-5.7
		c0.9,1.2,1.8,2.4,2.8,3.5l0.3-0.2c-0.8-1.6-2.7-2.9-2.4-4.8h0.3c4.7,4.7,12.7,5.8,18.8,3.6c3-1,5.6-2.8,7.6-5.2L196.2,95.2z"/>
	<path class="st8" d="M167.7,93.6c0.2,0.4-0.1,0.7-0.4,0.8h-0.2C166.8,94,167.3,93.5,167.7,93.6z"/>
	<path class="st31" d="M178.3,102.9c2.1,0.7,4.4,1,6.6,1c0.2-0.5,0.8-0.5,1.8-0.7c3-1,5.5-3,7.1-5.7c-0.4,0.3-0.8,0.6-1.1,0.9
		c-0.8,0.8-4.6,3.5-11.8,3.4C181,101.8,184.2,102.6,178.3,102.9z"/>
	
		<ellipse transform="matrix(8.750342e-02 -0.9962 0.9962 8.750342e-02 85.3949 282.6892)" class="st28" cx="197" cy="94.7" rx="0.3" ry="0.2"/>
	<path class="st28" d="M166.2,97c-0.2,1.3,2.3,0.8,2.5-2.1"/>
	<path class="st28" d="M166.9,96.4c0.2-0.7,0.3-1.1,0.3-1.1"/>
	<path class="st29" d="M194.4,92.4c-0.1,1-0.6,1.9-1.3,2.7c-2.2,2.8-5.6,5.9-9,6.5c-0.2,0.2,0.1,0.3,0.3,0.5c3.4,0.1,7.8-4.5,10.2-8
		c0.3-0.3,0.2-1.2,0.8-1c0.5,2-1,3.7-1.6,5.3c-0.7,1.7-1.6,3.3-2.8,4.7c0,0-10.9,7.7-22.1-0.7c-2-2.4-3.2-3.5-2.1-5.6
		c0.9,1.2,1.9,2.3,3,3.3l0.3-0.3c-0.9-1.6-2.4-2.8-2.2-4.7h0.3c4.9,4.5,12.5,5.2,18.5,2.7c2.9-1.2,5.4-3.1,7.3-5.6L194.4,92.4z"/>
	<path class="st28" d="M193.4,91.9c0.4-0.6,0.6-0.3,1-0.4s0.7-0.7,1-0.3c0.3,0.4,0.3,1,0.5,1.7C196.3,93.5,194.6,93.8,193.4,91.9z"
		/>
	<path class="st30" d="M194.4,92.4c-0.1,1-0.6,1.9-1.3,2.7c-2.2,2.8-5.6,5.9-9,6.5c-0.2,0.2,0.1,0.3,0.3,0.5c3.4,0.1,7.8-4.5,10.2-8
		c0.3-0.3,0.2-1.2,0.8-1c0.5,2-1,3.7-1.6,5.3c-0.7,1.7-1.6,3.3-2.8,4.7c0,0-10.9,7.7-22.1-0.7c-2-2.4-3.2-3.5-2.1-5.6
		c0.9,1.2,1.9,2.3,3,3.3l0.3-0.3c-0.9-1.6-2.4-2.8-2.2-4.7h0.3c4.9,4.5,12.5,5.2,18.5,2.7c2.9-1.2,5.4-3.1,7.3-5.6L194.4,92.4z"/>
	<path class="st31" d="M176.5,101c2.3,0.5,4.7,0.8,7.1,0.7c0.1-0.6,0.4-0.5,1.3-0.8c3.2-1.1,5.9-3.3,7.7-6.2c-0.6,0.2-1.1,0.5-1.5,1
		c-0.8,0.9-4.9,3.7-12.1,4C179.1,99.8,182.3,100.5,176.5,101z"/>
	
		<ellipse transform="matrix(3.873664e-02 -0.9992 0.9992 3.873664e-02 95.75 283.3864)" class="st28" cx="195.2" cy="91.9" rx="0.3" ry="0.2"/>
	<path class="st28" d="M165.1,96.3c0.8,1,1.2,2.2,1.3,3.4c-0.2,1.3,1.8,0.9,1.9-1.9c-1.3-0.9-0.5-2.4-0.3-2.7
		C168.2,94.9,165.9,94.4,165.1,96.3z"/>
	<path class="st28" d="M166.1,96.3c0.4,0.9,0.6,1.8,0.5,2.8c0.1-0.7,0.2-1.1,0.2-1.1l-0.2-2.1C166.6,95.9,166.4,96.3,166.1,96.3z"/>
	<path class="st32" d="M192.3,96.5c-0.1,0.9-0.5,1.8-1.2,2.5c-2.1,2.7-4.4,5.5-7.6,6c-0.2,0.1-0.2,0.3-0.1,0.5c0,0,0,0.1,0.1,0.1
		c4.2,0.4,6.9-4.1,9.1-7.4c0.3-0.3,0.2-1.2,0.8-1c0.3,1.8,0.1,3.6-0.6,5.2c-0.7,1.7-1.8,3.2-3,4.5c-6.5,4.2-15,3.4-20.7-1.8
		c-1.9-2.4-3-3.6-2-5.6c1,1.2,2.1,2.3,3.2,3.4l0.3-0.2c-0.8-1.6-3.1-2.9-2.9-4.7h0.2c4.7,4.6,12.6,5.7,18.2,3.5c2.5-1,4.6-2.8,6-5.1
		L192.3,96.5z"/>
	<path class="st32" d="M167.3,94.7c0.2,0.3,0,0.6-0.2,0.8c-0.4,0.1-0.2-0.5-0.4-0.7C166.9,94.5,167.1,94.7,167.3,94.7z"/>
	<path class="st32" d="M166,95c0.2,0.3,0.1,0.6-0.2,0.7c0,0-0.1,0.1-0.2,0.1h-0.2C165.2,95.4,165.6,94.9,166,95z"/>
	<path class="st28" d="M191.4,95.9c0.4-0.6,0.6-0.3,0.9-0.4c0.3,0,1.1-0.7,1.4-0.3c0.3,0.4-0.2,1,0.1,1.7S192.5,97.9,191.4,95.9z"/>
	<path class="st33" d="M192.3,96.5c-0.1,0.9-0.5,1.8-1.2,2.5c-2.1,2.7-4.4,5.5-7.6,6c-0.2,0.1-0.2,0.3-0.1,0.5c0,0,0,0.1,0.1,0.1
		c4.2,0.4,6.9-4.1,9.1-7.4c0.3-0.3,0.2-1.2,0.8-1c0.3,1.8,0.1,3.6-0.6,5.2c-0.7,1.7-1.8,3.2-3,4.5c-6.5,4.2-15,3.4-20.7-1.8
		c-1.9-2.4-3-3.6-2-5.6c1,1.2,2.1,2.3,3.2,3.4l0.3-0.2c-0.8-1.6-3.1-2.9-2.9-4.7h0.2c4.7,4.6,12.6,5.7,18.2,3.5c2.5-1,4.6-2.8,6-5.1
		L192.3,96.5z"/>
	<path class="st8" d="M167.3,94.7c0.2,0.3,0,0.6-0.2,0.8c-0.4,0.1-0.2-0.5-0.4-0.7C166.9,94.5,167.1,94.7,167.3,94.7z"/>
	<path class="st8" d="M166,95c0.2,0.3,0.1,0.6-0.2,0.7c0,0-0.1,0.1-0.2,0.1h-0.2C165.2,95.4,165.6,94.9,166,95z"/>
	<path class="st31" d="M176.5,104.2c2,0.6,4.1,1,6.2,1c0.1-0.5,0.7-0.5,1.7-0.7c2.8-1,5-3.1,6.4-5.7c-0.4,0.3-0.7,0.6-1,0.9
		c-0.7,0.8-4.1,3.5-10.9,3.4C178.9,103.1,181.9,103.9,176.5,104.2z"/>
	<path class="st28" d="M192.8,96c0,0.1,0.1,0.2,0.2,0.3c0.1,0,0.2-0.1,0.2-0.2c0,0,0,0,0,0c0-0.1-0.1-0.2-0.2-0.3
		C192.9,95.8,192.8,95.9,192.8,96C192.8,96,192.8,96,192.8,96z"/>
	<path class="st34" d="M165,98.3c0.8,0,2-0.2,2.5,0.6c-1,1.3,2,1.3,1.3,2.5c-0.5-1.2-2.5-0.9-3-2c-0.4-0.6-2-0.1-1.9-1l0.3-1.3
		C164.5,97.4,164.6,98,165,98.3z"/>
	<path class="st34" d="M168,102.3c1.4,1.9,0.4,3.8-2.8,4.8c-6.2,2.1-5.2-0.9-5.8-3.1c-0.1-1.5,0.4-3,1.3-4.1
		c1.9-1.7,2.9-0.4,4.5-0.1C166.1,100.5,167.5,101.3,168,102.3z"/>
	<path class="st3" d="M165,98.3c0.8,0,2-0.2,2.5,0.6c-1,1.3,2,1.3,1.3,2.5c-0.5-1.2-2.5-0.9-3-2c-0.4-0.6-2-0.1-1.9-1.1l0.3-1.3
		C164.5,97.4,164.6,97.9,165,98.3z"/>
	<path class="st35" d="M168,102.3c1.4,1.9,0.4,3.8-2.8,4.8c-6.2,2.1-5.2-0.9-5.8-3.1c-0.1-1.5,0.4-3,1.3-4.1
		c1.9-1.7,2.9-0.4,4.5-0.1C166.1,100.4,167.5,101.2,168,102.3z"/>
	
		<ellipse transform="matrix(0.2002 -0.9798 0.9798 0.2002 27.9747 240.4838)" class="st28" cx="161.3" cy="103.1" rx="0.6" ry="0.3"/>
	
		<ellipse transform="matrix(6.400976e-02 -0.9979 0.9979 6.400976e-02 46.4706 256.3316)" class="st28" cx="159.9" cy="103.4" rx="0.6" ry="0.3"/>
	<path class="st28" d="M160.6,104.5c0.2,0,0.3,0.3,0.3,0.6c0,0.3-0.2,0.6-0.4,0.6c-0.2,0-0.3-0.3-0.3-0.7S160.5,104.5,160.6,104.5z"
		/>
	<path class="st28" d="M160.5,101.1c0.2,0,0.3,0.3,0.2,0.7c-0.1,0.3-0.2,0.6-0.4,0.6c-0.2,0-0.3-0.3-0.3-0.7
		C160.1,101.3,160.4,101.1,160.5,101.1z"/>
	<path class="st24" d="M164.4,101.4c0.7-0.4,1.7-0.7,2.4,0c0.6,0.7,1.2,1.4,1.6,2.2c0.1,0.5-1.6-0.3-2.4,0.1
		C165.1,104.2,166.3,102.7,164.4,101.4z"/>
	<path class="st28" d="M161.7,99.9c0.2,0,0.3,0.3,0.2,0.7c-0.1,0.3-0.3,0.6-0.5,0.5c-0.2,0-0.3-0.3-0.2-0.7
		C161.4,100.1,161.6,99.9,161.7,99.9z"/>
	
		<ellipse transform="matrix(0.2012 -0.9795 0.9795 0.2012 30.0591 240.3174)" class="st28" cx="162.4" cy="101.7" rx="0.6" ry="0.3"/>
	
		<ellipse transform="matrix(0.2011 -0.9796 0.9796 0.2011 32.1046 240.2917)" class="st28" cx="163.4" cy="100.5" rx="0.6" ry="0.3"/>
	<path class="st36" d="M151,97.7c0.5-0.6,1-1.7,2-1.4c0.5,1.8,2.3-0.5,3,0.9c-1.3-0.5-2.3,1.2-3.5,0.7c-0.8-0.1-1.3,1.4-2,0.6
		l-0.9-1.2C149.9,97.4,150.5,97.7,151,97.7z"/>
	<path class="st36" d="M156.3,98.5c2.5,0.4,3.4,2.7,2.3,5.9c-2,6.4-4,3.3-6.2,2.1c-1.3-1.1-2.3-2.5-2.7-4.2
		c-0.3-2.8,1.4-2.5,2.7-3.5C153.7,98.3,155,98.2,156.3,98.5z"/>
	<path class="st3" d="M151,97.7c0.5-0.6,1-1.7,2-1.4c0.5,1.8,2.3-0.5,3,0.9c-1.3-0.5-2.3,1.2-3.5,0.7c-0.8-0.1-1.3,1.4-2,0.6
		l-0.9-1.2C149.9,97.4,150.4,97.7,151,97.7z"/>
	<path class="st37" d="M156.2,98.5c2.5,0.4,3.4,2.7,2.3,5.9c-2,6.4-4,3.3-6.2,2.1c-1.3-1.1-2.3-2.5-2.7-4.2
		c-0.3-2.8,1.4-2.5,2.7-3.5C153.6,98.3,154.9,98.2,156.2,98.5z"/>
	<path class="st28" d="M152.3,103.7c0.1-0.1,0.5,0,0.7,0.4c0.2,0.4,0.3,0.7,0.2,0.8c-0.1,0.1-0.5,0-0.7-0.4S152.2,103.8,152.3,103.7
		z"/>
	<path class="st28" d="M151.7,105c0.1-0.1,0.5,0,0.7,0.3s0.4,0.6,0.3,0.7s-0.5,0-0.7-0.3C151.7,105.5,151.6,105.1,151.7,105z"/>
	<path class="st28" d="M153.5,105.8c0.1-0.1,0.5,0,0.7,0.3c0.3,0.3,0.4,0.6,0.3,0.7c-0.1,0.1-0.5,0-0.7-0.3
		C153.5,106.2,153.4,105.9,153.5,105.8z"/>
	
		<ellipse transform="matrix(0.7544 -0.6565 0.6565 0.7544 -31.0218 124.7004)" class="st28" cx="151.1" cy="103.8" rx="0.3" ry="0.7"/>
	<path class="st24" d="M158.1,101.9c0.2-0.9,0.4-2-0.5-2.5c-0.8-0.4-1.7-0.7-2.6-0.8c-0.5,0,0.6,1.6,0.4,2.6
		S156.4,100.3,158.1,101.9z"/>
	<ellipse transform="matrix(0.789 -0.6144 0.6144 0.789 -30.8281 114.1764)" class="st28" cx="150.8" cy="102" rx="0.3" ry="0.7"/>
	
		<ellipse transform="matrix(0.788 -0.6157 0.6157 0.788 -30.7165 115.4516)" class="st28" cx="152.3" cy="102.3" rx="0.3" ry="0.7"/>
	
		<ellipse transform="matrix(0.7879 -0.6158 0.6158 0.7879 -29.7447 114.8308)" class="st28" cx="151.8" cy="100.6" rx="0.3" ry="0.7"/>
	<path class="st38" d="M105.3,104.7c-2.7,0.7-2.7,4.3-8.1,5.6c-7.9,1.7-9.6-3.6-11.3-3.3c-1,0.1-1.3-2.1-0.2-1.9
		c2.2-0.6,2-6.2,8.5-6.1c3.3-0.1,6.9,2.2,10,4.1l1.1,0.3C105.3,103.8,105.7,104.5,105.3,104.7z"/>
	<path class="st38" d="M100.2,100.1c-2.7-1-3.6-2.1-8.3-1.4c0,0-3,0.6-5.1,5c-1-0.2,0.4-1.2,0.5-3.1c0.1-2.2,0.8-6.4,6.3-5.9
		c2,0.4,4.5,0,5.8,3.4C99.3,98.8,100.7,99.5,100.2,100.1z"/>
	<path class="st39" d="M105.3,104.7c-2.7,0.7-2.7,4.3-8.1,5.6c-7.9,1.7-9.6-3.6-11.3-3.3c-1,0.1-1.3-2.1-0.2-1.9
		c2.2-0.6,2-6.2,8.5-6.1c3.3-0.1,6.9,2.2,10,4.1l1.1,0.3C105.3,103.8,105.7,104.5,105.3,104.7z"/>
	<path class="st40" d="M100.2,100.1c-2.7-1-3.6-2.1-8.3-1.4c0,0-3,0.6-5.1,5c-1-0.2,0.4-1.2,0.5-3.1c0.1-2.2,0.8-6.4,6.3-5.9
		c2,0.4,4.5,0,5.8,3.4C99.3,98.8,100.7,99.5,100.2,100.1z"/>
	<path class="st41" d="M99.4,98.8c-0.8-1.2-3.7-4.5-9.5-3.3c0.4,0.8,0.8,1.5,1.2,2.2C91.1,97.6,97.4,96.8,99.4,98.8z"/>
	<path class="st42" d="M91.3,100.7l0.7,2.7c2.1-0.3,7.8-1.2,9.7-0.7C101.8,102.6,99.5,100.2,91.3,100.7z"/>
	<path class="st43" d="M63.3,94.8c-0.7,0.3-0.2,1.8-1.5,1.1c-0.8-0.9-2.1-0.5-2.5-1.6c-0.2,0-0.5,0-0.6,0.2c0.4,0.7,1.1,0.8,1.9,1
		c1.7,0.5,0.5,1.7,1.3,2.4c0.3,0,0.3,0.3,0.6,0.3c-0.3-0.5-0.8-0.8-0.7-1.3c0.7-0.4,1.3,0.4,2.1,0.5c0.5,0.1,1.3,0.4,1.7,0.1
		c-0.9-0.3-2.4-0.1-3-1.1c1.3-0.2-0.2-1.3,1.1-1.4c0.8,0,1.5,0.1,2.3,0.3c0.1,0,0.2,0,0.2-0.2C65.2,94.9,64.3,94.8,63.3,94.8z"/>
	<path class="st44" d="M66.2,105.7c-1.1,1-2.8,0.9-3.8-0.2c-1.2-0.9-1.5-2.5-0.6-3.7c1.1-1,2.8-0.9,3.8,0.2
		C66.7,102.9,67,104.5,66.2,105.7z"/>
	<path class="st44" d="M82.5,104.8c-0.1,0.9,1.1,0.9,2.7,1.1c1.5,0.1,2.8-0.4,2.9-1.3c0.1-0.9-1.9-1.8-3.4-2
		C85.7,104.4,84.7,105.1,82.5,104.8z"/>
	<path class="st44" d="M64.5,94.1c-0.8,0.4-1.3,1.2-1.3,2.1c-0.1,0.7,1,0.3,1.5,0.6l1.1,0.6c0.8-0.7,1.8-1.2,2.8-1.2
		c-0.2-1.1-1-1.9-2-2.1C65.9,93.9,65.2,93.9,64.5,94.1z"/>
	<path class="st44" d="M71,95.3c-0.4,0.3-0.7,0.7-0.9,1.1c1,0.5,1.7,1.5,2,2.7c0.7,0,1.4,0.2,2,0.4c0.9-0.6,1.2-1.7,0.7-2.7
		c-0.4-0.8-1-1.4-1.9-1.7C72.2,95,71.5,95,71,95.3z"/>
	<path class="st44" d="M66.2,97.7c-0.3,0.4,0.4,0.7,0.4,1.1c0.2,0.5,0.2,1,0.2,1.5c1.1,0.1,2.2,0.6,3,1.4c0.8-0.1,1.4-0.8,1.5-1.7
		c0.1-1.1-0.3-2.2-1.2-2.9c-0.6-0.4-1.3-0.6-2-0.5C67.4,96.7,66.8,97.3,66.2,97.7z"/>
	<path class="st44" d="M75.4,98c-0.1,0.8-0.5,1.4-1.2,1.8c0,0.3,0.7,0.5,0.8,0.7c1.3-0.3,2.6-0.2,3.8,0.5c0.2,0.3,0.5,0.4,0.8,0.5
		c0.8-0.2,0-0.9,0-1.3c-0.5-1.3-1.6-2.3-3-2.6C76.3,97.8,75.5,97.5,75.4,98z"/>
	<path class="st44" d="M61.5,97.9c-0.9,0.9-0.3,2.3,0.2,3.3c1.3-0.6,2.8-0.5,4,0.3c1.2-0.6,0.4-2.4,0.1-3.2c-0.4-0.5-1-0.8-1.6-1
		C63.2,97,62.2,97.2,61.5,97.9z"/>
	<path class="st44" d="M72.1,99.7c-0.3,1.1-0.4,2-1.8,2.6l-0.1-0.1c1.2-0.4,2.6-0.3,3.7,0.4c-0.7-0.7,1-1.5-0.1-2.4
		C73.3,99.7,72.7,99.6,72.1,99.7z"/>
	<path class="st44" d="M74.4,101.6c-0.1,0.3-0.4,0.8,0.1,1.1c0,0,3.1,2,4.9,0.5c0.4-0.3,0-0.8-0.1-1.1c-0.9-0.9-2.1-1.3-3.3-1.1
		C75.4,101,74.7,101.1,74.4,101.6z"/>
	<path class="st44" d="M80,101.9c0,0.5,0.6,1.5-0.5,1.6c-0.7,0.3,4.9,2,5,0.3c0.2-0.5-0.2-0.8-0.4-1.1c-0.9-0.8-2.1-1.2-3.3-1.1
		C80.6,101.6,80.3,101.7,80,101.9z"/>
	<path class="st44" d="M66.3,101.1c0,0.2-0.5,0.4-0.1,0.6c0,0,2.9,1.2,3,0.4c0.1-0.7-0.5-0.9-0.8-1.2S66.8,100.6,66.3,101.1z"/>
	<path class="st44" d="M82.1,104.7c-0.9,0-1.9-0.3-2.7-0.8c-0.3,0.2-0.7,0.3-1,0.2c0,0,0.3,1.2-0.4,1.6c0.5,1.3,4,1.9,4.7,0.1
		C82,105.7,82.1,104.7,82.1,104.7z"/>
	<ellipse transform="matrix(0.1033 -0.9946 0.9946 0.1033 -39.1555 164.9624)" class="st44" cx="71.9" cy="104.2" rx="2" ry="2.5"/>
	<path class="st44" d="M69.4,102.8c-0.6,0.4-1.4,0.4-2,0c-0.9-0.5-0.9-0.4-0.9-0.4c0.9,0.7,1.1,1.9,0.5,2.9c0,0.9,1.8,1,2.4,0.2
		C68.9,105,68.6,104.1,69.4,102.8z"/>
	<path class="st44" d="M78,104.1c0.1,0.2,0.4,1.5-1.5,2c-1.8,0.5-2.4-0.6-2.4-0.6c0.8-0.4,1.2-1.4,0.8-2.2c0,0,0-0.1-0.1-0.1
		C75.7,103.7,77.1,104.5,78,104.1z"/>
	<path class="st45" d="M79.5,103.9c-0.8-0.6-1.8-0.9-2.8-0.7c0.9,0.3,2.2,0.3,2.5,0.8L79.5,103.9z"/>
	<path class="st46" d="M66.3,105.7c-1.1,1-2.8,0.9-3.8-0.2c-1.2-0.9-1.5-2.5-0.6-3.7c1.1-1,2.8-0.9,3.8,0.2
		C66.9,102.8,67.2,104.5,66.3,105.7z"/>
	<path class="st46" d="M82.7,104.7c-0.1,0.9,1.1,0.9,2.7,1.1c1.5,0.1,2.8-0.4,2.9-1.3c0.1-0.9-1.9-1.8-3.4-2
		C85.8,104.3,84.8,105,82.7,104.7z"/>
	<path class="st46" d="M64.5,94.1c-0.8,0.4-1.3,1.2-1.3,2.1c-0.1,0.7,1,0.3,1.5,0.6l1.1,0.6c0.8-0.7,1.8-1.2,2.8-1.2
		c-0.2-1.1-1-1.9-2-2.1C65.9,93.9,65.2,93.9,64.5,94.1z"/>
	<path class="st46" d="M71.1,95.3c-0.4,0.3-0.7,0.7-0.9,1.1c1,0.5,1.7,1.5,2,2.7c0.7,0,1.4,0.2,2,0.4c0.9-0.6,1.2-1.7,0.7-2.7
		c-0.3-0.8-1-1.4-1.8-1.7C72.4,94.9,71.7,95,71.1,95.3z"/>
	<path class="st46" d="M66.3,97.7c-0.3,0.4,0.4,0.7,0.4,1.1c0.2,0.5,0.2,1,0.2,1.5c1.1,0.1,2.2,0.6,3,1.4c0.8-0.1,1.4-0.8,1.5-1.7
		c0.1-1.1-0.3-2.2-1.2-2.9c-0.6-0.4-1.3-0.6-2-0.5C67.5,96.6,66.9,97.3,66.3,97.7z"/>
	<path class="st46" d="M75.5,98c-0.1,0.8-0.5,1.4-1.2,1.8c0,0.3,0.7,0.5,0.8,0.7c1.3-0.3,2.6-0.2,3.8,0.5c0.2,0.3,0.5,0.4,0.8,0.5
		c0.8-0.2,0-0.9,0-1.3c-0.5-1.3-1.6-2.3-3-2.6C76.4,97.8,75.7,97.5,75.5,98z"/>
	<path class="st46" d="M61.6,97.9c-0.9,0.9-0.3,2.3,0.2,3.3c1.3-0.6,2.8-0.4,4,0.3c1.2-0.6,0.4-2.4,0.1-3.2c-0.4-0.5-1-0.8-1.6-1
		C63.3,96.9,62.3,97.2,61.6,97.9z"/>
	<path class="st46" d="M72.2,99.6c-0.3,1.1-0.4,2-1.8,2.6l-0.1-0.1c1.2-0.4,2.6-0.3,3.7,0.4c-0.7-0.7,1-1.5-0.1-2.4
		C73.4,99.6,72.8,99.5,72.2,99.6z"/>
	<path class="st46" d="M74.5,101.5c-0.1,0.3-0.4,0.8,0.1,1.1c0,0,3.1,2,4.9,0.5c0.4-0.3,0-0.8-0.1-1.1c-0.9-0.9-2.1-1.3-3.3-1.1
		C75.5,101,74.8,101.1,74.5,101.5z"/>
	<path class="st46" d="M80.1,101.9c0,0.5,0.6,1.5-0.5,1.6c-0.7,0.3,4.9,2,5,0.3c0.2-0.5-0.2-0.8-0.4-1.1c-0.9-0.8-2.1-1.2-3.3-1.1
		C80.7,101.6,80.4,101.7,80.1,101.9z"/>
	<path class="st46" d="M66.5,101.1c0,0.2-0.5,0.4-0.1,0.6c0,0,2.9,1.2,3,0.4c0.1-0.7-0.5-0.9-0.8-1.2
		C68.1,100.7,66.9,100.6,66.5,101.1z"/>
	<path class="st46" d="M82.2,104.7c-0.9,0-1.9-0.3-2.7-0.8c-0.3,0.2-0.7,0.3-1,0.2c0,0,0.3,1.2-0.4,1.6c0.5,1.3,4,1.9,4.7,0.1
		C82.1,105.7,82.2,104.7,82.2,104.7z"/>
	<ellipse transform="matrix(0.1035 -0.9946 0.9946 0.1035 -39.0278 165.0642)" class="st46" cx="72.1" cy="104.2" rx="2" ry="2.5"/>
	<path class="st46" d="M69.6,102.7c-0.6,0.4-1.4,0.4-2,0c-0.9-0.5-0.9-0.4-0.9-0.4c0.9,0.7,1.1,1.9,0.5,2.9c0,0.9,1.8,1.1,2.4,0.2
		C69,105,68.7,104,69.6,102.7z"/>
	<path class="st46" d="M78.1,104.1c0.1,0.2,0.4,1.5-1.5,2c-1.8,0.5-2.4-0.6-2.4-0.6c0.8-0.4,1.2-1.4,0.8-2.2c0,0,0-0.1-0.1-0.1
		C75.8,103.7,77.2,104.5,78.1,104.1z"/>
	<path class="st47" d="M74.1,96.1c0.4,0.6,0.6,1.3,0.6,2c0,0.5-0.7-0.1-0.7-0.1l-0.6-1.9L74.1,96.1z"/>
	<path class="st47" d="M78.2,98.4c0.6,0.4,1,1,1.3,1.6c0.1,0.5-0.6,0.2-0.6,0.2l-1.1-1.5L78.2,98.4z"/>
	<path class="st47" d="M70,97.3c0.7,0.6,1.1,1.5,1,2.4l-0.4,0.2c0,0-0.3-1.9-1.1-2.4L70,97.3z"/>
	<path class="st47" d="M83.9,102.9c-0.5-0.7-1.5-1.1-2.4-0.9c0.8,0.3,1.9,0.3,2.1,0.9L83.9,102.9z"/>
	<path class="st47" d="M79,102c-0.6-0.7-1.5-1-2.4-0.7c0.8,0.3,1.9,0.3,2.1,0.8L79,102z"/>
	<path class="st47" d="M73,100.3c0,0.1,0.5,0.3,0.7,0.3s-0.1-0.1-0.1-0.2c0-0.1-0.1-0.3-0.3-0.3C73.2,100,73,100.1,73,100.3z"/>
	<path class="st47" d="M66,94.3c0,0.2-0.3,0.3-0.1,0.3c0.2,0,0.8-0.1,0.8-0.2c0-0.2-0.2-0.3-0.4-0.3C66.2,94.1,66.1,94.2,66,94.3z"
		/>
	<path class="st48" d="M142.1,101.8c-1,1.8-1.9,3.9-3.5,5.2c-1.5,1.5-2.2,1.9-3.3,1.3c-0.8,0.6-2,0.6-2.8,0
		c-3.3,1.3-7.6-2.3-8.3-9.7c-0.5-3.3,1.7-6.4,4.9-7.1c1.3-0.2,2.6,0,3.9,0.5c0.4,0.2,0.1,0.9,0.2,1.3c-0.5,0.4-1.1,0-1.7,0
		c-0.1,0.6,0.2,0.7,0.5,1.1c1.7,0.1,3.4-0.4,4.8-1.4c0.1-0.2,0-0.4,0-0.6c-0.3,0.2-0.9,0.6-1.3,0.3c0.9-0.9,2.2-1.4,3.5-1.2
		c2,0.3,2.5,2.1,3.2,4C143,97.6,143,99.9,142.1,101.8z"/>
	<path class="st49" d="M134.6,90.8c0.2,0.8,0.9,1.7,0.5,2.7c-0.2,0.1-0.5,0.1-0.7,0c-1.1-0.8-1.4-2.3-0.6-3.5c0,0,0.1-0.1,0.1-0.1
		C136,89.3,134.2,90.5,134.6,90.8z"/>
	<path class="st15" d="M141.9,101.7c-0.8,1.9-2,3.7-3.5,5.1c-1.5,1.5-2.2,1.9-3.3,1.3c-0.8,0.6-2,0.6-2.8,0
		c-3.3,1.3-7.3-2.3-8.1-9.7c0.1-5.9,4.3-6.3,4.7-6.7c1.3-0.3,2.6-0.2,3.8,0.3c0.4,0.2,0.5,1.2,0.8,1.6c1.1,0.4,2.3,0.1,3.2-0.8
		c0.1-0.2,0-0.4,0-0.6c-0.3,0.2-0.9,0.6-1.3,0.3c0.9-1,2.3-0.9,3.5-0.8c2,0.3,2.6,1.7,3.3,3.7C142.8,97.5,142.8,99.7,141.9,101.7z"
		/>
	<path class="st8" d="M134.6,90.8c0.2,0.9,0.9,1.7,0.4,2.7c-0.2,0.1-0.5,0.1-0.7,0c-1.1-0.8-1.3-2.4-0.5-3.5c0,0,0.1-0.1,0.1-0.1
		C135.7,89.5,134.3,90.5,134.6,90.8z"/>
	<path class="st16" d="M140.3,94.2c-0.8-0.2-1.7,0.2-2.2,0.9c-0.4,0.5-1.1,1,0.3,2.6c1.3,1.5,2,4.9,1.3,5.8
		C138.6,105.1,144.8,98.4,140.3,94.2z"/>
</g>
<line class="st50" x1="62.2" y1="106" x2="193.3" y2="106"/>
<path class="st51" d="M223.7,112.5c-1.3,2-4.4,1.1-8-0.1c-3.6-1.2-14.3-1.3-14.3,8.1s19.1,4.5,19.1,14.7c-1.1,7-17.1,5.3-17.1-3.4
	c-2.7,4.9-4.7,7.9-4.7,7.9c3.6-1.2,8.8,0.5,12.1,1.3c3.3,0.8,13.8,0.1,13.8-9.1c0-10.1-18.9-6.6-18.9-13.5c0-6.3,13.6-6.3,13.6,1.6
	L223.7,112.5z"/>
<path class="st51" d="M66.1,138.3v-11.5c-1.9,0.1-3.7,0.6-5.3,1.6c0.7-2.7,5.3-3,5.3-3v-8.3c0-4.5-2.5-5.1-2.5-5.1l16.2,0.3
	c13.2,2.3,9.2,16-1.3,14.9h-7.8v11.1l4.3,2.8H62.5L66.1,138.3z M77.8,125.1c2.4,0.1,4.4-1.7,4.5-4.1c0-0.2,0-0.4,0-0.6
	c0-5-3.2-6-5.9-6H71v10.8L77.8,125.1z"/>
<path class="st51" d="M129.2,112.1c6.4,0,12,5.9,12,14.9s-5.3,14.2-12.9,14.2c-7.5,0-13.5-4.5-13.5-15.6S124,112.1,129.2,112.1z
	 M128.2,139.2c8.6,0,7.8-12.8,7.8-12.8s0.8-12.1-7.1-12.1s-8.8,7.7-8.8,12.7C120.1,127,119.7,139.2,128.2,139.2z"/>
<path class="st51" d="M183.4,138.1l-3.6,2.9h11.7l-3.3-2.8v-23.8h4.5c2.3,0.3,4,2.2,4.2,4.4l3.5-6.9h-29.3l3.2,7.2
	c0,0,1-4.7,3.9-4.7h5.3V138.1z"/>
<path class="st51" d="M169.6,111.8l-3.6,2.6v19.3c0,2.1-1.3,7.4-9.6,7.4c-8.3,0-11.5-3.2-11.5-10.7v-16.1l-2.8-2.6h10.7l-2.8,2.6
	v18.3c0,4,0.6,6.4,6.4,6.4s6.9-2.7,6.9-7.5v-17.1l-3.5-2.6H169.6z"/>
<path class="st51" d="M89.2,115.3c5.1-4.7,24.1-5.3,24.1,4c0,5.3-8,7.8-8,7.8s4.1,10.1,10,14.3c0,0-6.7,2.2-7.7,3.2
	c0,0-1-9.3-4.9-16.5c0,0-5.9-0.4-6.6,0.9v9.2l2.8,2.5h-11l3.4-2.5v-9.2c-1.3-0.1-2.5,0-3.8,0.2c0,0,1-1.8,0.8-2.3h3.1v-10.9
	C91.4,116.1,91.7,115.1,89.2,115.3z M96.1,126.4c0,0,12.1-0.4,12.1-7.9s-10.4-5.3-12.1-4.1V126.4z"/>
<path class="st51" d="M59.5,109.8c-1.9,3.1-6,1.7-10.9-0.2s-19.4-2.1-19.4,12.8s26,7,26,23.1c-1.4,10.9-23.3,8.3-23.3-5.3
	c-3.7,7.6-6.4,12.4-6.4,12.4c4.9-1.9,12,0.8,16.5,2.1c4.5,1.2,18.8,0.2,18.8-14.2c0-15.9-25.8-10.3-25.8-21.3
	c0-9.9,18.5-9.9,18.5,2.5L59.5,109.8z"/>
<path class="st28" d="M62.6,109.7v1.8c-0.2-0.1-0.4-0.2-0.7-0.2c-0.4,0-0.7-0.3-0.6-0.7c0,0,0,0,0,0
	C61.3,109.9,62.1,109.7,62.6,109.7z"/>
<path class="st28" d="M220.8,110.4c0.2-0.4,0.7-0.6,1.1-0.4c0,0,0,0,0.1,0c0.4,0.3,0.5,0.8,0.2,1.2L220.8,110.4z"/>
<path class="st28" d="M57,107.8c0.7-1.2,2.2-0.6,1.4,0.8L57,107.8z"/>
<path class="st28" d="M25.3,146.3l5.6-11.1c0.1,2.1,0.3,4.2,0.7,6.3L25.3,146.3z"/>
<path class="st28" d="M56,113.2l-4.9,9.7c0-2-0.2-4-0.6-6L56,113.2z"/>
<path class="st52" d="M57.7,108.2c-1.8,3.1-5.9,1.6-10.8-0.2s-19.2-2.1-19.2,12.7s25.7,6.9,25.7,22.9c-1.4,10.8-23.1,8.2-23.1-5.3
	c-3.7,7.6-6.3,12.3-6.3,12.3c4.9-1.8,11.9,0.8,16.3,2c4.5,1.2,18.6,0.2,18.6-14.1c0-15.7-25.5-10.2-25.5-21.1
	c0-9.8,18.4-9.8,18.4,2.5L57.7,108.2z"/>
<path class="st52" d="M221.5,110.9c-1.3,1.9-4.4,1-8-0.1c-3.6-1.2-14.1-1.3-14.1,8s18.9,4.4,18.9,14.6c-1.1,6.9-17,5.2-17-3.4
	c-2.7,4.8-4.7,7.8-4.7,7.8c3.6-1.2,8.7,0.5,12,1.3c3.3,0.8,13.7,0.1,13.7-9c0-10-18.8-6.5-18.8-13.3c0-6.2,13.5-6.2,13.5,1.6
	L221.5,110.9z"/>
<path class="st52" d="M65,136.5v-11.4c-1.9,0-3.7,0.6-5.3,1.6c0.7-2.6,5.3-3,5.3-3v-8.2c0-4.5-2.5-5-2.5-5l16.1,0.3
	c13.1,2.3,9.1,15.8-1.3,14.7h-7.8v11l4.2,2.7H61.3L65,136.5z M76.5,123.4c2.4,0.1,4.4-1.8,4.5-4.1c0-0.2,0-0.4,0-0.6
	c0-4.9-3.2-5.9-5.8-5.9h-5.4v10.7L76.5,123.4z"/>
<path class="st52" d="M127.5,110.5c6.3,0,12,5.8,12,14.8s-5.3,14.1-12.8,14.1s-13.3-4.4-13.3-15.5S122.3,110.5,127.5,110.5z
	 M126.5,137.3c8.5,0,7.8-12.7,7.8-12.7s0.8-12-7.1-12s-8.7,7.6-8.7,12.5C118.5,125.3,118,137.3,126.5,137.3L126.5,137.3z"/>
<path class="st52" d="M181.2,136.3l-3.6,2.9h11.5l-3.3-2.8v-23.6h4.5c2.2,0.3,4,2.1,4.2,4.4l3.5-6.8H169l3.2,7.2c0,0,1-4.7,3.8-4.7
	h5.2V136.3z"/>
<path class="st52" d="M167.5,110.2l-3.5,2.6v19.1c0,2-1.3,7.4-9.6,7.4s-11.4-3.2-11.4-10.5v-16l-2.8-2.6h10.5l-2.8,2.6v18.1
	c0,4,0.6,6.3,6.3,6.3c5.8,0,6.8-2.7,6.8-7.5v-16.9l-3.5-2.6L167.5,110.2z"/>
<path class="st52" d="M87.8,113.7c5-4.7,23.9-5.3,23.9,4c0,5.3-7.9,7.8-7.9,7.8s4.1,10,9.9,14.2c0,0-6.7,2.1-7.7,3.2
	c0,0-1-9.3-4.9-16.3c0,0-5.8-0.4-6.5,0.9v9.1l2.8,2.5h-11l3.4-2.5v-9.1c-1.2-0.1-2.5,0-3.7,0.2c0,0,1-1.7,0.8-2.3H90v-10.8
	C90,114.5,90.3,113.5,87.8,113.7z M94.7,124.6c0,0,12-0.4,12-7.9s-10.3-5.3-12-4V124.6z"/>
<path class="st28" d="M86.5,128.3c-1,0.3-1.5-0.5-1.1-1.1L86.5,128.3z"/>
<path class="st53" d="M57.7,108.2c-1.8,3.1-5.9,1.6-10.8-0.2s-19.2-2.1-19.2,12.7s25.7,6.9,25.7,22.9c-1.4,10.8-23.1,8.2-23.1-5.3
	c-3.7,7.6-6.3,12.3-6.3,12.3c4.9-1.8,11.9,0.8,16.3,2c4.5,1.2,18.6,0.2,18.6-14.1c0-15.7-25.5-10.2-25.5-21.1
	c0-9.8,18.4-9.8,18.4,2.5L57.7,108.2z"/>
<path class="st53" d="M221.5,110.9c-1.3,1.9-4.4,1-8-0.1c-3.6-1.2-14.1-1.3-14.1,8s18.9,4.4,18.9,14.6c-1.1,6.9-17,5.2-17-3.4
	c-2.7,4.8-4.7,7.8-4.7,7.8c3.6-1.2,8.7,0.5,12,1.3c3.3,0.8,13.7,0.1,13.7-9c0-10-18.8-6.5-18.8-13.3c0-6.2,13.5-6.2,13.5,1.6
	L221.5,110.9z"/>
<path class="st53" d="M65,136.5v-11.4c-1.9,0-3.7,0.6-5.3,1.6c0.7-2.6,5.3-3,5.3-3v-8.2c0-4.5-2.5-5-2.5-5l16.1,0.3
	c13.1,2.3,9.1,15.8-1.3,14.7h-7.8v11l4.2,2.7H61.3L65,136.5z M76.5,123.4c2.4,0.1,4.4-1.8,4.5-4.1c0-0.2,0-0.4,0-0.6
	c0-4.9-3.2-5.9-5.8-5.9h-5.4v10.7L76.5,123.4z"/>
<path class="st53" d="M127.5,110.5c6.3,0,12,5.8,12,14.8s-5.3,14.1-12.8,14.1s-13.3-4.4-13.3-15.5S122.3,110.5,127.5,110.5z
	 M126.5,137.3c8.5,0,7.8-12.7,7.8-12.7s0.8-12-7.1-12s-8.7,7.6-8.7,12.5C118.5,125.3,118,137.3,126.5,137.3L126.5,137.3z"/>
<path class="st53" d="M181.2,136.3l-3.6,2.9h11.5l-3.3-2.8v-23.6h4.5c2.2,0.3,4,2.1,4.2,4.4l3.5-6.8H169l3.2,7.2c0,0,1-4.7,3.8-4.7
	h5.2V136.3z"/>
<path class="st53" d="M167.5,110.2l-3.5,2.6v19.1c0,2-1.3,7.4-9.6,7.4s-11.4-3.2-11.4-10.5v-16l-2.8-2.6h10.5l-2.8,2.6v18.1
	c0,4,0.6,6.3,6.3,6.3c5.8,0,6.8-2.7,6.8-7.5v-16.9l-3.5-2.6L167.5,110.2z"/>
<path class="st53" d="M87.8,113.7c5-4.7,23.9-5.3,23.9,4c0,5.3-7.9,7.8-7.9,7.8s4.1,10,9.9,14.2c0,0-6.7,2.1-7.7,3.2
	c0,0-1-9.3-4.9-16.3c0,0-5.8-0.4-6.5,0.9v9.1l2.8,2.5h-11l3.4-2.5v-9.1c-1.2-0.1-2.5,0-3.7,0.2c0,0,1-1.7,0.8-2.3H90v-10.8
	C90,114.5,90.3,113.5,87.8,113.7z M94.7,124.6c0,0,12-0.4,12-7.9s-10.3-5.3-12-4V124.6z"/>
<path class="st54" d="M28.2,141.4l2.4-4.7c0,0,0.1,4.8,1.6,7L28.2,141.4z"/>
<path class="st54" d="M54.3,115.7l-2.9,5.7c0-1.4-0.1-2.8-0.4-4.3L54.3,115.7z"/>
<path class="st54" d="M62.6,111c-0.2-0.1-0.5-0.2-0.7-0.2c-0.4,0-0.4-0.7,0.6-0.7L62.6,111z"/>
<path class="st54" d="M85.8,127.3l0.5,0.6C85.6,128.1,85.7,127.4,85.8,127.3z"/>
<path class="st54" d="M221.2,110.7c0.4-0.6,1.1-0.3,0.7,0.5L221.2,110.7z"/>
<path class="st54" d="M57.3,108c0.4-0.6,1.1-0.3,0.7,0.4L57.3,108z"/>
<path class="st3" d="M221.5,111c-1.3,1.9-4.4,1-8-0.1c-3.6-1.2-14.1-1.3-14.1,8s18.9,4.4,18.9,14.6c-1.1,6.9-17,5.2-17-3.4
	c-2.7,4.8-4.7,7.8-4.7,7.8c3.6-1.2,8.7,0.5,12,1.3c3.3,0.8,13.7,0.1,13.7-9c0-10-18.8-6.5-18.8-13.3c0-6.2,13.5-6.2,13.5,1.6
	L221.5,111z"/>
<path class="st3" d="M65,136.6v-11.4c-1.9,0-3.7,0.6-5.3,1.6c0.7-2.6,5.3-3,5.3-3v-8.2c0-4.5-2.5-5-2.5-5l16.1,0.3
	c13.1,2.3,9.1,15.8-1.3,14.7h-7.8v11l4.2,2.7H61.3L65,136.6z M76.5,123.5c2.4,0.1,4.4-1.8,4.5-4.1c0-0.2,0-0.4,0-0.6
	c0-4.9-3.2-5.9-5.8-5.9h-5.4v10.7L76.5,123.5z"/>
<path class="st3" d="M127.5,110.7c6.3,0,12,5.8,12,14.8s-5.3,14.1-12.8,14.1s-13.3-4.4-13.3-15.5S122.3,110.7,127.5,110.7z
	 M126.5,137.5c8.5,0,7.8-12.7,7.8-12.7s0.8-12-7.1-12s-8.7,7.6-8.7,12.5C118.5,125.4,118,137.5,126.5,137.5L126.5,137.5z"/>
<path class="st3" d="M181.2,136.4l-3.6,2.9h11.5l-3.3-2.8v-23.6h4.5c2.2,0.3,4,2.1,4.2,4.4l3.5-6.8H169l3.2,7.1c0,0,1-4.7,3.8-4.7
	h5.2V136.4z"/>
<path class="st3" d="M167.5,110.3l-3.5,2.6V132c0,2-1.3,7.4-9.6,7.4s-11.4-3.2-11.4-10.5v-16l-2.8-2.5h10.5l-2.8,2.6V131
	c0,4,0.6,6.3,6.3,6.3c5.8,0,6.8-2.7,6.8-7.5v-16.9l-3.5-2.6H167.5z"/>
<path class="st3" d="M87.8,113.8c5-4.7,23.9-5.3,23.9,4c0,5.3-7.9,7.8-7.9,7.8s4.1,10,9.9,14.2c0,0-6.7,2.1-7.7,3.2
	c0,0-1-9.3-4.9-16.3c0,0-5.8-0.4-6.5,0.9v9.1l2.8,2.5h-11l3.4-2.5v-9.1c-1.2-0.1-2.5,0-3.7,0.2c0,0,1-1.7,0.8-2.3H90v-10.8
	C90,114.6,90.3,113.6,87.8,113.8z M94.7,124.7c0,0,12-0.4,12-7.9s-10.3-5.3-12-4V124.7z"/>
<path class="st3" d="M57.7,108.3c-1.8,3.1-5.9,1.6-10.8-0.2c-4.9-1.8-19.2-2.1-19.2,12.7s25.7,6.9,25.7,22.9
	c-1.4,10.8-23.1,8.2-23.1-5.3c-3.7,7.6-6.3,12.3-6.3,12.3c4.9-1.8,11.9,0.8,16.3,2c4.5,1.2,18.6,0.2,18.6-14.1
	c0-15.7-25.5-10.2-25.5-21c0-9.8,18.4-9.8,18.4,2.5L57.7,108.3z"/>
<path class="st3" d="M63.9,149.1c0-0.9-0.1-1.3-0.7-1.3s-0.8-0.1-0.8-0.3c0-0.2,0.3-0.2,0.7-0.2c1.1,0,2.2,0.1,3.3,0.1
	s2.2-0.1,3.3-0.1c0.3,0,0.6,0,0.6,0.3s0,0.6,0,0.9s0,0.6,0,0.9s0,0.3-0.3,0.3s-0.3-0.2-0.3-0.4c-0.1-1.2-1.2-1.2-2.5-1.2h-0.8
	c-0.3,0-0.4,0.1-0.4,0.7v2.3c0,0.3,0.2,0.3,0.7,0.3c0.9,0,1.3-0.1,1.7-0.6c0.2-0.3,0.2-0.6,0.4-0.6s0.3,0.2,0.3,0.4
	c0,0.4,0,0.8,0,1.2c0,0.4,0,0.8,0,1.2c0,0.2,0,0.4-0.3,0.4s-0.2-0.4-0.5-0.7c-0.2-0.3-0.8-0.5-1.6-0.5c-0.6,0-0.7,0.1-0.7,0.5v2.5
	c-0.1,0.6,0.3,1.1,0.9,1.2c0.1,0,0.2,0,0.2,0c0.2,0,0.3,0.1,0.3,0.3c0,0,0,0,0,0.1c0,0.2-0.4,0.2-0.9,0.2s-1.2-0.1-1.8-0.1
	s-1.2,0.1-1.8,0.1c-0.2,0-0.4,0-0.4-0.2c0-0.2,0.3-0.3,0.4-0.3c0.5-0.1,0.8-0.6,0.8-1.1L63.9,149.1z"/>
<path class="st3" d="M75.1,150.4c0-0.1,0.1-0.3,0.2-0.3c0.1,0,0.2,0.1,0.3,0.3l1,1.9c0.1,0.2,0.2,0.4,0.2,0.5c0,0-0.2,0.1-0.7,0.1
	h-1.6c-0.4,0-0.6,0-0.6-0.2c0-0.1,0.1-0.3,0.2-0.4L75.1,150.4z M71.6,155.5c-0.1,0.2-0.3,0.4-0.5,0.5c-0.2,0.1-0.6,0.2-0.6,0.4
	c0,0.2,0.2,0.2,0.4,0.2c0.5,0,1-0.1,1.5-0.1s1,0.1,1.5,0.1c0.2,0,0.4,0,0.4-0.2c0-0.2-0.5-0.3-1-0.4c-0.4-0.1-0.7-0.3-0.7-0.5
	c0-0.6,0.4-1.9,1.2-1.9h2.3c0.7,0,1,0,1.2,0.2c0.3,0.5,0.6,1.1,0.7,1.7c0,0.4-0.3,0.7-0.6,0.7c-0.2,0-0.4,0.1-0.4,0.3
	c0,0.2,0.1,0.2,0.3,0.2c0.7,0,1.4-0.1,2.1-0.1c0.7,0,1.3,0.1,2.1,0.1c0.2,0,0.4,0,0.4-0.2s-0.2-0.3-0.6-0.4
	c-0.4-0.1-0.8-0.8-1.1-1.3l-3.7-7.4c-0.1-0.2-0.2-0.3-0.2-0.3c-0.1,0-0.2,0.1-0.4,0.5L71.6,155.5z"/>
<path class="st3" d="M86.6,148.5c0-0.5,0.1-0.7,0.9-0.7c1-0.1,1.9,0.7,1.9,1.7c0,0.1,0,0.1,0,0.2c0,1.3-0.6,1.9-1.9,1.9
	c-1,0-1-0.3-1-0.5L86.6,148.5z M84.3,155c0,0.5-0.3,1-0.8,1.1c-0.1,0-0.4,0.1-0.4,0.3s0.2,0.2,0.4,0.2c0.6,0,1.2-0.1,1.8-0.1
	s1.2,0.1,1.8,0.1c0.6,0,0.9,0,0.9-0.2c0-0.2-0.1-0.3-0.2-0.3c0,0,0,0-0.1,0c-0.6,0-1.1-0.3-1.1-1.3v-2.3c0-0.2,0.1-0.2,0.5-0.2
	c0.4,0,0.8,0.3,1.1,0.8l1.7,2.9c0.3,0.5,0.8,0.8,1.3,0.8c0.5,0,2.3-0.1,2.3-0.7c0-0.1,0-0.2-0.2-0.2s-0.3,0-0.5,0
	c-0.2,0-0.3-0.1-0.4-0.2c-0.9-1.1-1.7-2.4-2.4-3.7c0-0.1,0.4-0.2,0.7-0.4c0.7-0.3,1.1-1,1.1-1.7c0-2.2-2.1-2.6-4.1-2.6
	c-0.7,0-1.8,0.1-2.6,0.1c-1.1,0-1.5-0.1-1.8-0.1c-0.4,0-0.4,0.1-0.4,0.2s0.1,0.3,0.3,0.3c0.6,0.1,1.1,0.3,1.1,1.1L84.3,155z"/>
<path class="st3" d="M95.7,149.5c0.1-0.6-0.2-1.2-0.7-1.5c-0.5-0.2-0.7-0.3-0.7-0.5c0-0.2,0-0.2,0.2-0.2c0.5,0,0.9,0,1.3,0
	s0.9,0,1.3,0s0.4,0,0.5,0.2l2.9,5.5c0.1,0.3,0.3,0.5,0.5,0.8c0.1,0,0.2-0.3,0.4-0.5l3.3-5.7c0.2-0.3,0.2-0.3,0.3-0.3
	c0.5,0,0.9,0,1.3,0s0.9,0,1.3,0c0.1,0,0.1,0.1,0.1,0.2s-0.3,0.3-0.7,0.4c-0.5,0.1-0.8,0.3-0.8,1.1v4.8c0,1.1,0.1,1.9,1.2,2.3
	c0.3,0.1,0.5,0.2,0.5,0.4c0,0.2-0.3,0.2-0.6,0.2c-0.6,0-1.2,0-1.8-0.1c-0.6-0.1-1.2,0-1.8,0.1c-0.3,0-0.6,0-0.6-0.2
	c0-0.2,0.1-0.3,0.4-0.4s0.4-0.4,0.4-1.1v-4.3c0-0.1,0-0.4-0.1-0.4c-0.1,0-0.2,0.2-0.4,0.5l-3,5.5c-0.1,0.2-0.3,0.4-0.4,0.4
	s-0.3-0.1-0.3-0.3l-2.9-5.7c-0.1-0.2-0.2-0.4-0.3-0.4c-0.1,0-0.1,0-0.1,0.3v3.6c-0.1,0.9,0.4,1.7,1.3,1.9c0.2,0.1,0.4,0.2,0.4,0.4
	s-0.3,0.2-0.4,0.2c-0.5,0-1.1-0.1-1.6-0.1s-1.1,0.1-1.6,0.1c-0.1,0-0.3,0-0.3-0.2s0.2-0.3,0.4-0.4c0.6-0.2,1-0.8,1-1.5L95.7,149.5z"
	/>
<path class="st3" d="M110.4,149.6c0-0.7-0.1-1.7-0.7-1.7c-0.6-0.1-0.8-0.2-0.8-0.4s0.3-0.2,0.6-0.2c1.2,0.1,2.3,0.1,3.5,0.1
	c1.2,0,2.3-0.1,3.5-0.1c0.3,0,0.6,0,0.6,0.3s0,0.6,0,0.9s0,0.6,0,0.9s0,0.3-0.3,0.3s-0.3-0.2-0.3-0.4c-0.1-0.9-0.5-1.2-2.3-1.2h-1
	c-0.4,0-0.5,0.1-0.5,0.7v2.4c0,0.2,0.3,0.3,0.9,0.3c0.9,0,1.5-0.2,1.8-0.8c0.2-0.4,0.2-0.4,0.4-0.4s0.2,0.2,0.2,0.4
	c0,0.4,0,0.8,0,1.2c0,0.4,0,0.8,0,1.2c0,0.2,0,0.4-0.3,0.4s-0.2-0.4-0.4-0.7c-0.4-0.6-0.8-0.6-1.7-0.6s-0.9,0.2-0.9,0.5v2.3
	c0,1,0.2,1.1,1,1.1c1.1,0.1,2.1-0.2,2.9-0.9c0.5-0.4,0.7-0.9,0.9-0.9c0.1,0,0.2,0.1,0.2,0.2c0,0,0,0,0,0c0,0.4-0.1,0.7-0.2,1.1
	c-0.3,0.7-0.9,1.1-1.6,1.2c-1,0-2-0.1-3-0.1s-2,0.1-3,0.1c-0.5,0-0.7,0-0.7-0.2c0-0.2,0.3-0.3,0.6-0.4c0.5-0.2,0.6-0.5,0.6-1.3
	L110.4,149.6z"/>
<path class="st3" d="M122.5,148.5c0-0.5,0.1-0.7,0.9-0.7c1-0.1,1.9,0.7,1.9,1.7c0,0.1,0,0.1,0,0.2c0,1.3-0.6,1.9-1.9,1.9
	c-1,0-1-0.3-1-0.5L122.5,148.5z M120.3,155c0,0.5-0.3,1-0.8,1.1c-0.1,0-0.4,0.1-0.4,0.3s0.2,0.2,0.4,0.2c0.6,0,1.2-0.1,1.8-0.1
	c0.6,0,1.2,0.1,1.8,0.1s0.9,0,0.9-0.2c0-0.2-0.1-0.3-0.2-0.3c0,0,0,0-0.1,0c-0.6,0-1.1-0.3-1.1-1.3v-2.3c0-0.2,0.1-0.2,0.5-0.2
	s0.8,0.3,1.1,0.8l1.7,2.9c0.3,0.5,0.8,0.8,1.3,0.8c0.5,0,2.3-0.1,2.3-0.7c0-0.1,0-0.2-0.2-0.2s-0.3,0-0.5,0c-0.2,0-0.3-0.1-0.4-0.2
	c-0.9-1.1-1.7-2.4-2.4-3.7c0-0.1,0.4-0.2,0.7-0.4c0.7-0.3,1.1-1,1.1-1.7c0-2.2-2.1-2.6-4.1-2.6c-0.7,0-1.8,0.1-2.6,0.1
	c-1.1,0-1.5-0.1-1.8-0.1c-0.4,0-0.4,0.1-0.4,0.2s0.1,0.3,0.3,0.3c0.6,0.1,1.1,0.3,1.1,1.1L120.3,155z"/>
<path class="st3" d="M130.6,154.3c0-0.1-0.1-0.3-0.1-0.4c0-0.1,0-0.2,0.3-0.2s0.4,0.4,0.5,0.6c0.6,1.2,1.7,2,3,2
	c1.1,0,1.9-0.6,1.9-1.6c0-2.2-5.6-1.1-5.6-4.8c0.1-1.6,1.4-2.8,3-2.7c0,0,0,0,0,0c0.9,0.1,1.7,0.3,2.5,0.5c0.2,0,0.5-0.2,0.6-0.2
	c0.1,0,0.2,0.1,0.2,0.3c0,0.7,0.1,1.4,0.2,2.1c0,0.1-0.1,0.3-0.2,0.3c0,0,0,0-0.1,0c-0.3,0-0.3-0.2-0.5-0.5
	c-0.5-1.1-1.6-1.8-2.8-1.9c-0.9,0-1.7,0.5-1.7,1.2c0,2.3,5.6,1.1,5.6,4.8c-0.1,1.7-1.6,3.1-3.3,3c0,0,0,0,0,0
	c-0.9-0.1-1.8-0.2-2.7-0.4c-0.1,0-0.4,0-0.5-0.2L130.6,154.3z"/>
<path class="st3" d="M145.2,149.5c0.1-0.6-0.2-1.2-0.7-1.5c-0.5-0.2-0.7-0.3-0.7-0.5c0-0.2,0-0.2,0.2-0.2c0.5,0,0.9,0,1.3,0
	s0.9,0,1.3,0s0.4,0,0.5,0.2l2.9,5.5c0.3,0.5,0.4,0.8,0.4,0.8s0.2-0.3,0.4-0.5l3.3-5.7c0.2-0.3,0.2-0.3,0.3-0.3c0.5,0,0.9,0,1.3,0
	c0.4,0,0.9,0,1.3,0c0.1,0,0.1,0.1,0.1,0.2c0,0.1-0.3,0.3-0.7,0.4c-0.5,0.1-0.8,0.3-0.8,1.1v4.8c0,1.1,0.1,1.9,1.3,2.3
	c0.3,0.1,0.5,0.2,0.5,0.4c0,0.2-0.3,0.2-0.6,0.2c-0.6,0-1.2,0-1.8-0.1c-0.6-0.1-1.2,0-1.8,0.1c-0.3,0-0.6,0-0.6-0.2
	c0-0.2,0.1-0.3,0.4-0.4s0.4-0.4,0.4-1.1v-4.3c0-0.1,0-0.4-0.1-0.4c-0.1,0-0.2,0.2-0.4,0.5l-3,5.5c-0.1,0.2-0.3,0.4-0.4,0.4
	c-0.2,0-0.3-0.1-0.3-0.3l-2.9-5.7c-0.1-0.2-0.2-0.4-0.3-0.4c-0.1,0-0.1,0-0.1,0.3v3.6c-0.1,0.9,0.4,1.7,1.3,1.9
	c0.2,0.1,0.4,0.2,0.4,0.4s-0.3,0.2-0.4,0.2c-0.5,0-1.1-0.1-1.6-0.1s-1,0.1-1.6,0.1c-0.1,0-0.3,0-0.3-0.2s0.2-0.3,0.4-0.4
	c0.6-0.2,1-0.8,1-1.5L145.2,149.5z"/>
<path class="st3" d="M163.2,150.4c0-0.1,0.1-0.3,0.2-0.3s0.2,0.1,0.3,0.3l1,1.9c0.1,0.2,0.2,0.4,0.2,0.5c0,0-0.2,0.1-0.7,0.1h-1.6
	c-0.4,0-0.6,0-0.6-0.2c0-0.1,0.1-0.3,0.2-0.4L163.2,150.4z M159.7,155.5c-0.1,0.2-0.3,0.4-0.5,0.5c-0.2,0.1-0.6,0.2-0.6,0.4
	c0,0.2,0.2,0.2,0.4,0.2c0.5,0,1-0.1,1.5-0.1s1,0.1,1.5,0.1c0.2,0,0.4,0,0.4-0.2c0-0.2-0.6-0.3-1-0.4c-0.4-0.1-0.7-0.3-0.7-0.5
	c0-0.6,0.4-1.9,1.2-1.9h2.3c0.7,0,1,0,1.2,0.2c0.3,0.5,0.6,1.1,0.7,1.7c0,0.4-0.3,0.7-0.6,0.7c-0.2,0-0.4,0.1-0.4,0.3
	c0,0.2,0.1,0.2,0.3,0.2c0.7,0,1.4-0.1,2.1-0.1c0.7,0,1.3,0.1,2.1,0.1c0.2,0,0.4,0,0.4-0.2s-0.2-0.3-0.6-0.4
	c-0.4-0.1-0.8-0.8-1.1-1.3l-3.7-7.4c-0.1-0.2-0.2-0.3-0.2-0.3s-0.2,0.1-0.4,0.5L159.7,155.5z"/>
<path class="st3" d="M174.7,148.5c0-0.5,0.1-0.7,0.9-0.7c1-0.1,1.9,0.7,1.9,1.7c0,0.1,0,0.1,0,0.2c0,1.3-0.5,1.9-1.9,1.9
	c-1,0-1-0.3-1-0.5V148.5z M172.4,155c0,0.5-0.3,1-0.8,1.1c-0.1,0-0.4,0.1-0.4,0.3s0.2,0.2,0.4,0.2c0.6,0,1.2-0.1,1.8-0.1
	c0.6,0,1.2,0.1,1.8,0.1s0.9,0,0.9-0.2c0-0.2-0.1-0.3-0.3-0.3c0,0,0,0-0.1,0c-0.6,0-1.1-0.3-1.1-1.3v-2.3c0-0.2,0.1-0.2,0.5-0.2
	s0.8,0.3,1.1,0.8l1.7,2.9c0.3,0.5,0.8,0.8,1.3,0.8c0.5,0,2.3-0.1,2.3-0.7c0-0.1,0-0.2-0.2-0.2s-0.3,0-0.5,0c-0.2,0-0.3-0.1-0.4-0.2
	c-0.9-1.1-1.7-2.4-2.4-3.7c0-0.1,0.4-0.2,0.7-0.4c0.7-0.3,1.1-1,1.1-1.7c0-2.2-2.1-2.6-4.1-2.6c-0.7,0-1.8,0.1-2.6,0.1
	c-1.1,0-1.5-0.1-1.8-0.1s-0.4,0.1-0.4,0.2s0.1,0.3,0.3,0.3c0.6,0.1,1.1,0.3,1.1,1.1L172.4,155z"/>
<path class="st3" d="M183.8,149c0-0.8-0.5-1.1-1.1-1.1c-0.2,0-0.3-0.1-0.3-0.3c0,0,0,0,0-0.1c0-0.2,0.4-0.2,0.9-0.2
	c0.4,0,1.2,0.1,1.8,0.1c0.6,0,1.2-0.1,1.8-0.1c0.2,0,0.4,0,0.4,0.2s-0.3,0.3-0.4,0.3c-0.5,0.1-0.8,0.6-0.8,1.1v2.3
	c0,0.3,0,0.4,0.1,0.4c0.2,0,0.3-0.1,0.4-0.2l3.4-2.8c0.1-0.1,0.2-0.2,0.2-0.4c0-0.2-0.3-0.3-0.6-0.4c-0.4-0.1-0.4-0.1-0.4-0.3
	c0-0.2,0.2-0.2,0.5-0.2c0.5,0,1.1,0.1,1.6,0.1c0.5,0,1-0.1,1.6-0.1c0.2,0,0.5,0,0.5,0.2c0,0.2-0.3,0.2-0.5,0.3
	c-0.4,0.2-0.8,0.4-1.1,0.6l-2.7,2c-0.1,0.1-0.2,0.2-0.2,0.3c0,0.1,0.1,0.2,0.2,0.3l3.9,4.9c0.3,0.3,0.9,0.3,0.9,0.5
	s-0.2,0.2-0.5,0.2c-0.2,0-0.7-0.1-1.1-0.1c-0.4,0-0.9,0.1-1.3,0.1c-0.1,0-0.2-0.1-0.3-0.1l-3-3.9c-0.2-0.2-0.4-0.6-0.5-0.6
	c-0.3,0.2-0.6,0.4-0.8,0.6c-0.1,0.1-0.1,0.2-0.1,0.3v2c0,0.9,0.5,1.2,1.1,1.2c0.2,0,0.3,0.1,0.3,0.3c0,0,0,0,0,0.1
	c0,0.2-0.4,0.2-0.9,0.2s-1.2-0.1-1.8-0.1c-0.6,0-1.2,0.1-1.8,0.1c-0.2,0-0.4,0-0.4-0.2s0.3-0.3,0.4-0.3c0.5-0.1,0.8-0.6,0.8-1.1V149
	z"/>
<path class="st3" d="M196,149.6c0-0.7-0.1-1.7-0.7-1.7c-0.6-0.1-0.8-0.2-0.8-0.4s0.3-0.2,0.6-0.2c1.1,0.1,2.3,0.1,3.5,0.1
	c1.2,0,2.3-0.1,3.5-0.1c0.3,0,0.6,0,0.6,0.3s0,0.6,0,0.9s0,0.6,0,0.9s0,0.3-0.3,0.3s-0.3-0.2-0.3-0.4c-0.1-0.9-0.5-1.2-2.3-1.2h-1
	c-0.4,0-0.5,0.1-0.5,0.7v2.4c0,0.2,0.3,0.3,0.9,0.3c0.9,0,1.5-0.2,1.8-0.8c0.2-0.4,0.2-0.4,0.4-0.4s0.2,0.2,0.2,0.4
	c0,0.4,0,0.8,0,1.2c0,0.4,0,0.8,0,1.2c0,0.2,0,0.4-0.3,0.4s-0.2-0.4-0.4-0.7c-0.4-0.6-0.8-0.6-1.7-0.6c-0.9,0-0.9,0.2-0.9,0.5v2.3
	c0,1,0.2,1.1,1,1.1c1.1,0.1,2.1-0.2,3-0.9c0.5-0.4,0.7-0.9,0.9-0.9c0.1,0,0.2,0.1,0.2,0.2c0,0,0,0,0,0c0,0.4-0.1,0.7-0.2,1.1
	c-0.3,0.7-0.9,1.1-1.6,1.2c-1,0-2-0.1-3-0.1s-2,0.1-3,0.1c-0.5,0-0.7,0-0.7-0.2c0-0.2,0.3-0.3,0.6-0.4c0.5-0.2,0.6-0.5,0.6-1.3
	L196,149.6z"/>
<path class="st3" d="M208.4,148.6c0-0.5-0.4-0.6-1.1-0.6c-1.4,0-2.1,0.1-2.5,1.5c0,0.1-0.1,0.1-0.3,0.1s-0.3-0.1-0.3-0.2
	s0-0.3,0-0.5l0.1-1.3c0-0.2,0.1-0.3,0.5-0.3c1.5,0,3,0.1,4.6,0.1s3.1-0.1,4.6-0.1c0.4,0,0.4,0,0.5,0.5l0.1,1.3c0,0.1,0,0.2,0,0.3
	c0,0.1-0.1,0.1-0.3,0.1s-0.3,0-0.3-0.1c-0.4-1.3-1-1.5-2.5-1.5c-0.8,0-1.1,0.1-1.1,0.6v6.3c0,1.1,1,1.1,1.5,1.3
	c0.2,0.1,0.4,0,0.4,0.3s-0.2,0.2-0.4,0.2c-0.9,0-1.8-0.1-2.7-0.1c-0.9,0-1.8,0.1-2.7,0.1c-0.2,0-0.4,0-0.4-0.2s0.3-0.3,0.4-0.3
	c0.5-0.2,1.5-0.2,1.5-1.3L208.4,148.6z"/>
<path class="st28" d="M199.7,103L199.7,103c0.4,0,0.5,0.1,0.5,0.3c0,0.2-0.2,0.3-0.4,0.3h-0.1V103z M200.8,103.3
	c0-0.5-0.5-0.9-1-0.9H199v2.7h0.6v-0.9h0.1l0.7,0.9l0.6-0.3l-0.7-0.8C200.6,103.9,200.8,103.6,200.8,103.3L200.8,103.3z"/>
<circle class="st55" cx="199.9" cy="103.8" r="1.8"/>
</svg>
