<?xml version="1.0" encoding="utf-8"?>
<!-- Generator: Adobe Illustrator 21.1.0, SVG Export Plug-In . SVG Version: 6.00 Build 0)  -->
<svg version="1.1" id="Layer_1" xmlns="http://www.w3.org/2000/svg" xmlns:xlink="http://www.w3.org/1999/xlink" x="0px" y="0px"
	 viewBox="0 0 250 250" style="enable-background:new 0 0 250 250;" xml:space="preserve">
<style type="text/css">
	.st0{fill:#7AC141;}
	.st1{fill:#0179C2;}
</style>
<title>Grocery</title>
<path class="st0" d="M198.8,169c-0.3-0.1-0.3-0.4-0.4-0.7l-8.8-27.2c-0.5-1.6-1-3.1-1.5-4.7c-0.1-0.6-0.7-1.1-1.3-1c0,0,0,0-0.1,0
	c-11.1,0-22.3,0-33.4,0c-0.3,0.1-0.7,0-0.9-0.1l3.8-2.8l20.3-14.7c1.3-0.9,2.6-1.9,3.9-2.8c0.4-0.2,0.6-0.7,0.4-1.1
	c-1.2-3.7-2.5-7.5-3.7-11.2l-5.7-17.5c-0.4-1.2-0.8-2.4-1.2-3.6c0-0.2-0.3-0.4,0-0.6c0.3-0.1,0.3,0.1,0.5,0.2l11.9,8.6
	c5.1,3.7,10.3,7.5,15.4,11.2c0.4,0.4,1.1,0.4,1.5,0c0,0,0,0,0,0c4.5-3.3,9.1-6.7,13.6-9.9l13.7-10c0.1-0.1,0.3-0.3,0.5-0.3
	c0,0.3,0,0.6-0.2,0.9c-1.2,3.8-2.5,7.6-3.7,11.4c-1.7,5.1-3.3,10.2-5,15.3c-0.5,1.7-1.1,3.4-1.7,5.1c-0.2,0.5-0.1,1.1,0.4,1.3
	c4.5,3.2,9,6.5,13.4,9.7l9.3,6.8l4.7,3.4c0.1,0.1,0.3,0.1,0.3,0.4s-0.3,0.1-0.4,0.1h-2.8c-10.3,0-20.6,0-30.9,0
	c-0.7-0.1-1.3,0.4-1.5,1.1c-1.9,6-3.8,11.9-5.8,17.9c-1.5,4.7-3.1,9.5-4.6,14.2C199,168.8,199,168.9,198.8,169z"/>
<path class="st1" d="M103.9,132.9c-0.7,0.5-1.3,1.1-2,1.6c-2.2,1.7-4.8,2.7-7.6,3c-3.3,0.5-6.7,0.3-10-0.5c-3.7-1.1-6.2-3.4-6.5-7.5
	c-0.2-2.6,0.5-5.2,1.9-7.4c1.8-2.8,4.3-5,7.4-6.3c4-1.7,8.2-2.8,12.5-3.1c3.6-0.4,7.2-0.2,10.8-0.3c0.5,0.1,1-0.2,1.2-0.7
	c0.6-1.2,1.1-2.5,1.3-3.8c0.4-2.6-0.8-4-3.5-4.2c-3.9-0.3-7.8,1.1-10.6,3.9c-0.9,0.9-1.9,1.8-2.8,2.7c-0.5,0.7-1.6,0.8-2.3,0.3
	c0,0-0.1-0.1-0.1-0.1c-3.1-2-3-5.8,0.1-8c3.2-2.1,6.8-3.5,10.5-4c3-0.5,6.1-0.7,9.2-0.6c3.9,0,7.7,0.9,11.2,2.5
	c2.2,0.9,3.8,2.8,4.3,5.1c0.2,1.5,0,3-0.5,4.4c-2.9,8.3-5.8,16.5-8.3,24.9c-0.5,1.7-0.5,1.7-2.3,1.7H104c-1,0-1.1,0-0.8-1
	c0.2-1,0.5-1.7,0.8-2.7L103.9,132.9z M98.7,128.3c3.1,0.1,6.1-1.3,8-3.8c1.4-1.9,2.4-4,3.2-6.2c0.2-0.4,0-0.5-0.4-0.5
	c-1.3,0-2.8,0-4.2,0c-2.9,0.1-5.8,1-8.2,2.7c-1.3,0.8-2.2,2.1-2.6,3.5c-0.4,1.5,0.2,3.1,1.6,3.7C96.9,128.2,97.8,128.4,98.7,128.3
	L98.7,128.3z"/>
<path class="st1" d="M26.1,137.5c-4.8,0.1-9.6-1-13.9-3.1c-2.5-1.1-4.6-2.9-6.1-5.1c-1.6-2.4-1.5-5.6,0.4-7.7
	c1.4-1.7,3.2-3.1,5.3-3.8c1.1-0.4,1.4-0.3,2.1,0.6c0.7,1,1.3,2,1.8,3.1c1,2.1,2.4,4.1,4,5.9c1.3,1.6,3.1,2.5,5.1,2.6
	c1.2,0.1,2.4-0.5,3-1.6c0.5-1.1,0.3-2.4-0.5-3.3c-0.9-1.3-2-2.6-3.2-3.7c-1.8-1.7-3.5-3.6-5.2-5.5c-1.1-1.3-2-2.8-2.6-4.5
	c-1.1-3.2-0.3-6.7,2-9.1c2.5-2.5,5.6-4.3,9.1-5c3.2-0.9,6.5-1.4,9.9-1.3c3.6-0.1,7.1,0.7,10.3,2.3c2.1,1.1,3.8,2.9,4.6,5.1
	c0.8,2.2,0,4.7-1.9,6.1c-1.4,1.1-3.1,1.9-4.9,2.2c-1.6,0.3-2.2-0.1-2.6-1.7c-0.3-1.1-0.5-2.2-0.8-3.3c-0.4-1.7-1.4-3.1-2.9-4
	c-2-0.8-4.3-0.6-6.1,0.7c-0.7,0.6-0.9,1.5-0.5,2.3c0.4,0.8,0.9,1.5,1.5,2.1c2.2,2.3,4.7,4.3,7.1,6.4c2.3,1.9,4.1,4.2,5.3,6.9
	c1.8,4.3,0.4,9.3-3.4,12c-3.1,2.1-6.7,3.4-10.4,3.9C30.6,137.2,28.4,137.5,26.1,137.5z"/>
<path class="st1" d="M80.8,106.1c-1.3,0-2.8,0-4.1,0c-0.4-0.1-0.9,0.2-0.9,0.6c-2,6.5-4.3,12.9-6.1,19.4c-0.2,0.9-0.2,1.8,0,2.7
	c0.3,1.1,1.2,1.9,2.4,1.9c1,0.1,1.9-0.1,2.8-0.5c0.4-0.2,0.6-0.1,0.7,0.3c0.3,1,0.6,2.1,0.9,3.1c0.2,0.5,0,0.7-0.4,0.9
	c-2.7,1.4-5.6,2.3-8.6,2.7c-3.3,0.6-6.6,0.6-9.9,0c-1.3-0.2-2.6-0.8-3.6-1.7c-1.6-1.6-2.3-3.8-1.8-6c0.6-2.7,1.4-5.3,2.4-7.9
	c1.6-4.8,3.2-9.5,4.8-14.3c0.4-1.3,0.4-1.3-0.9-1.3c-1,0-2,0-3,0c-0.5,0-0.7-0.1-0.6-0.7c0.6-2,1.2-4,1.8-5.9
	c0.1-0.4,0.4-0.7,0.9-0.6c0,0,0,0,0,0c1.3,0,2.6,0,3.9,0c0.5,0.1,1.1-0.3,1.1-0.8c0,0,0,0,0,0c0.6-2.1,1.3-4.1,1.9-6.2
	c0.1-0.4,0.4-0.7,0.8-0.7c5-1,9.9-1.9,14.9-2.7c0.8-0.1,0.8,0,0.6,0.7c-0.9,2.9-1.8,5.8-2.7,8.7c-0.3,1-0.3,1,0.8,1h8
	c1.2,0,1.2,0,0.9,1.2c-0.5,1.7-1,3.4-1.3,5.2c-0.1,0.6-0.6,1-1.2,1c-0.1,0-0.1,0-0.2,0C83.5,106.1,82.1,106.1,80.8,106.1z"/>
<path class="st1" d="M149.5,103.8c1.1-1,2.2-2,3.4-2.8c2.4-1.7,5.2-2.8,8.1-3.1c4.7-0.2,8,1.2,10.5,5.6c1.4,2.5,0.6,5.6-1.8,7.2
	c-1.4,1-2.9,1.6-4.6,1.9c-1.2,0.4-2.5-0.2-2.9-1.4c0,0,0,0,0,0c-0.4-0.8-0.8-1.5-1.3-2.1c-1.7-1.9-3.8-2-6-1.7
	c-3.4,0.5-6.3,2.8-7.6,6.1c-0.8,2.1-1.5,4.3-2,6.4c-1.6,5.3-3.3,10.7-5,16.1c-0.1,0.4-0.5,0.7-0.9,0.6c-5.1,0-10.2,0-15.3,0
	c-0.6,0-0.7-0.2-0.5-0.7c2.9-8.7,5.8-17.3,8.7-26c1.1-3.1,2.1-6.3,3.1-9.3c0.1-0.6,0.6-1,1.2-0.9c2,0,4,0,6,0l7.1-0.1
	c1,0,1,0,0.7,0.9L149.5,103.8z"/>
<path class="st0" d="M111.7,146.2c0.3-0.2,0.7-0.4,1-0.6c1.4-0.8,3.2-1,4.7-0.5c0.5,0.1,0.9,0.6,1,1.1c0.1,0.5,0.3,0.5,0.6,0.2
	c1.2-1.1,2.9-1.7,4.5-1.5c1.6,0.1,2.4,0.9,2.3,2.5c-0.2,1.3-0.5,2.6-1.1,3.8c-0.8,2.4-1.7,4.9-2.5,7.3c-0.1,0.5-0.6,0.9-1.1,0.8
	c0,0,0,0,0,0c-0.7,0-1.4,0-2.1,0c-1,0-1,0-0.7-1c0.6-1.9,1.3-3.9,2-5.8c0.4-1.1,0.8-2.3,1.1-3.4c0.3-1.1-0.2-1.5-1.2-1.3
	c-0.9,0.1-1.6,0.6-2,1.3c-0.4,0.7-0.7,1.5-0.9,2.3c-0.8,2.4-1.6,4.8-2.4,7.2c-0.1,0.5-0.5,0.8-1,0.7c-0.8,0-1.6,0-2.3,0
	c-0.8,0-0.9-0.1-0.6-0.9l2.9-8.5c0.1-0.3,0.2-0.6,0.3-0.9c0.2-0.9-0.2-1.3-1.1-1.3c-0.9,0.1-1.7,0.6-2.1,1.5
	c-0.6,1.4-1.1,2.7-1.5,4.1c-0.6,1.7-1.2,3.4-1.7,5.1c-0.2,0.6-0.5,0.9-1.2,0.9c-0.7,0-1.7,0-2.5,0c-0.5,0-0.6-0.2-0.5-0.7
	c1.5-4.3,2.9-8.6,4.3-12.9c0.1-0.4,0.4-0.6,0.8-0.6c0.7,0,1.3,0,2,0C111.8,145.2,111.8,145.2,111.7,146.2z"/>
<path class="st0" d="M154.4,149.8c0.3,0,0.5-0.2,0.7-0.4c1.3-1.3,2.8-2.5,4.1-3.8c0.3-0.3,0.7-0.5,1.1-0.5c1,0,1.9,0,2.9,0
	c0.2,0,0.5-0.1,0.6,0.1s-0.2,0.3-0.3,0.5c-1.7,1.5-3.3,2.9-5,4.4c-0.5,0.3-0.6,0.9-0.5,1.5c0.6,2.3,1.1,4.6,1.7,6.8
	c0.2,0.6,0,0.8-0.6,0.8c-0.9,0-1.9,0-2.9,0c-0.4,0.1-0.8-0.2-0.9-0.6c0,0,0-0.1,0-0.1c-0.3-1.3-0.6-2.7-0.9-4.1
	c-0.2-0.7-0.2-0.7-0.8-0.3c-0.9,0.6-1.5,1.5-1.7,2.5c-0.1,0.5-0.3,1-0.5,1.4c-0.4,1.2-0.4,1.2-1.7,1.2h-1.9c-0.8,0-0.9-0.1-0.6-0.8
	l2.5-7.4c1.1-3.2,2.2-6.4,3.2-9.7c0.1-0.5,0.6-0.9,1.1-0.8c0.8,0,1.6,0,2.3,0c0.8,0,0.8,0.1,0.6,0.8c-0.9,2.6-1.7,5.2-2.7,7.8
	C154.6,149.4,154.5,149.6,154.4,149.8z"/>
<path class="st0" d="M133.8,159.3c-0.3,0-0.6,0-0.9,0c-0.6,0-1-0.1-0.9-0.8c0-0.4-0.2-0.4-0.4-0.2c-1.2,1.1-2.7,1.5-4.3,1.3
	c-1.2,0.1-2.3-0.8-2.4-2c0-0.2,0-0.4,0-0.6c0.1-2.5,1.8-4.6,4.1-5.3c1.5-0.5,3-0.7,4.4-1.1c0.9-0.3,1.5-1.1,1.6-2
	c0.1-0.5-0.3-0.9-0.7-1c-0.1,0-0.1,0-0.2,0c-1.1-0.2-2.2,0.4-2.6,1.5c-0.1,0.4-0.6,0.7-1,0.7c-0.7,0-1.4,0-2.1,0
	c-0.7,0-0.7-0.2-0.5-0.8c0.9-2.3,3.1-3.9,5.6-3.9c1.3-0.2,2.7-0.1,4,0.3c1.1,0.2,1.8,1.3,1.6,2.5c0,0.1,0,0.1-0.1,0.2
	c-0.3,1.6-1,3.2-1.5,4.7s-0.9,2.8-1.4,4.2c-0.2,0.5-0.3,1.1-0.3,1.7c0,0.5-0.2,0.8-0.8,0.8C134.6,159.3,134.3,159.3,133.8,159.3z
	 M133.8,152.4c-1.2,0.5-2.3,0.5-3.2,1.1c-0.9,0.5-1.5,1.5-1.5,2.5c0,0.7,0.3,1,1,0.9c0.9,0,1.8-0.4,2.4-1.1
	C133,154.8,133.5,153.7,133.8,152.4L133.8,152.4z"/>
<path class="st0" d="M169.9,152.9c-1,0-2.1,0-3.1,0c-0.4-0.1-0.8,0.2-0.9,0.6c-0.3,0.6-0.4,1.3-0.5,2c-0.1,1.3,0.7,1.9,1.9,1.4
	c0.7-0.3,1.3-1,1.6-1.7c0.2-0.5,0.7-0.8,1.2-0.7c0.7,0,1.3,0,2.1,0s0.7,0.1,0.5,0.7c-1,2.7-3.6,4.5-6.6,4.5c-0.9,0.1-1.9,0-2.7-0.3
	c-1.3-0.3-2.2-1.5-2.1-2.8c0-1.2,0.3-2.4,0.7-3.5c0.4-1.4,1-2.7,1.6-4c1.8-3.3,5.6-4.9,9.2-3.8c1.3,0.2,2.2,1.4,2,2.7
	c-0.1,1.6-0.4,3.2-1,4.6c-0.1,0.4-0.4,0.5-0.8,0.5L169.9,152.9L169.9,152.9z M168.8,150.6h1.3c0.3,0.1,0.6-0.1,0.7-0.4
	c0.2-0.5,0.3-1.1,0.3-1.7c0-0.7-0.3-1-1-1c-1.3,0.1-2.4,0.9-2.8,2.1c-0.4,0.9-0.4,1,0.6,1L168.8,150.6z"/>
<path class="st0" d="M182.6,141.2c2,0,2,0,1.4,1.9c-0.2,0.5-0.3,1-0.5,1.5c-0.1,0.4,0,0.6,0.4,0.6c0.4,0,0.6,0,0.9,0
	c0.6,0,0.8,0.2,0.5,0.8c0,0.1,0,0.2-0.1,0.3c-0.5,1.5-0.5,1.5-2.1,1.5c-0.4-0.1-0.8,0.2-0.9,0.7c-0.8,2.4-1.6,4.8-2.4,7.2
	c-0.3,0.8,0,1.1,0.8,1.1s1,0,0.7,1c-0.6,1.7-0.6,1.7-2.4,1.7c-0.8,0.1-1.6,0-2.4-0.1c-0.8,0-1.4-0.7-1.3-1.5c0-0.1,0-0.3,0.1-0.4
	c0.2-0.9,0.4-1.7,0.7-2.5c0.7-2.2,1.5-4.4,2.2-6.5c0.2-0.5,0-0.6-0.5-0.7c-1.2,0-1.2,0-0.9-1.2c0-0.2,0.1-0.4,0.2-0.5
	c0.1-0.5,0.5-0.9,1.1-0.8c0,0,0,0,0.1,0c1.1,0,1.1,0,1.5-1.1c0.2-0.7,0.5-1.4,0.7-2.2c0.1-0.5,0.5-0.8,1-0.8c0,0,0,0,0.1,0
	C181.8,141.2,182.2,141.2,182.6,141.2z"/>
<path class="st0" d="M146,146.4c0.5-0.1,0.7-0.5,1.1-0.8c0.8-0.5,1.8-0.8,2.7-0.8c0.5,0,0.7,0.2,0.5,0.7c-0.3,0.7-0.5,1.4-0.7,2.2
	c-0.1,0.5-0.5,0.8-1,0.7c0,0,0,0,0,0c-0.7-0.1-1.4,0-2.1,0.3c-1,0.4-1.8,1.3-2.1,2.4c-0.8,2.5-1.7,4.9-2.5,7.4
	c-0.1,0.5-0.6,0.9-1.1,0.8c0,0,0,0,0,0c-0.8,0-1.6,0-2.4,0c-0.6,0-0.7-0.2-0.5-0.7c0.9-2.7,1.8-5.3,2.7-8c0.5-1.5,1.1-3.1,1.6-4.7
	c0.2-0.6,0.4-0.8,1.1-0.8c0.6,0,1.4,0,2.1,0c0.7,0,0.9,0,0.7,0.9C146,146.1,145.9,146.3,146,146.4z"/>
<path class="st0" d="M208.8,160c0.7,0,1.3,0.2,1.9,0.5c0.6,0.3,1.1,0.8,1.5,1.4c0.7,1.2,0.7,2.7,0,3.9c-0.3,0.6-0.8,1.1-1.4,1.4
	c-1.2,0.7-2.7,0.7-3.9,0c-0.6-0.3-1.1-0.8-1.5-1.4c-0.7-1.2-0.7-2.7,0-3.9c0.3-0.6,0.8-1.1,1.5-1.4C207.4,160.2,208.1,160,208.8,160
	z M208.8,160.8c-0.5,0-1.1,0.1-1.5,0.4c-0.5,0.3-0.9,0.7-1.2,1.2c-0.6,1-0.6,2.2,0,3.1c0.3,0.5,0.7,0.9,1.2,1.2c1,0.6,2.2,0.6,3.1,0
	c0.5-0.3,0.9-0.7,1.2-1.2c0.6-1,0.6-2.2,0-3.1c-0.3-0.5-0.7-0.9-1.2-1.2C209.9,160.9,209.3,160.8,208.8,160.8L208.8,160.8z M207,166
	v-4.2h2.2c0.2,0,0.4,0.1,0.7,0.2c0.2,0.1,0.3,0.2,0.4,0.4c0.1,0.2,0.2,0.4,0.2,0.6c0,0.3-0.1,0.6-0.3,0.8c-0.2,0.2-0.5,0.4-0.8,0.4
	c0.1,0,0.2,0.1,0.3,0.2c0.1,0.1,0.2,0.2,0.3,0.3l0.3,0.5l0.5,0.8h-1l-0.3-0.7c-0.1-0.3-0.3-0.6-0.6-0.9c-0.2-0.1-0.4-0.2-0.6-0.2
	h-0.2v1.7L207,166z M207.8,163.6h0.3c0.3,0,0.6,0,0.9,0c0.1,0,0.2-0.1,0.3-0.2c0.1-0.1,0.1-0.2,0.1-0.3c0-0.1,0-0.2-0.1-0.3
	c-0.1-0.1-0.2-0.2-0.3-0.2c-0.3,0-0.6,0-0.9,0h-0.3V163.6z"/>
</svg>
