<?xml version="1.0" encoding="utf-8"?>
<!-- Generator: Adobe Illustrator 21.1.0, SVG Export Plug-In . SVG Version: 6.00 Build 0)  -->
<svg version="1.1" id="Layer_1" xmlns="http://www.w3.org/2000/svg" xmlns:xlink="http://www.w3.org/1999/xlink" x="0px" y="0px"
	 viewBox="0 0 250 250" style="enable-background:new 0 0 250 250;" xml:space="preserve">
<style type="text/css">
	.st0{fill:#143E8E;}
	.st1{fill:#FCB745;}
</style>
<title>Grocery</title>
<path class="st0" d="M5,111.4c0.4-1.3,1-2.6,1.7-3.8c3.2-4.5,8.9-6.6,14.2-5.1c1.3,0.4,2.6,0.6,3.9,0.7c0.6,0.1,1.3,0,1.9-0.2
	c0.7-0.3,1.1-0.1,1.2,0.7c0.5,3.1,0.5,6.3,0.1,9.4c0,0.2-0.1,0.5-0.2,0.7c-0.3,0.6-0.7,0.5-0.9,0c-0.3-0.6-0.5-1.2-0.7-1.9
	c-0.5-1.7-1.3-3.3-2.4-4.7c-2.1-2.7-5.8-3.6-8.9-2c-2.9,1.5-3.9,6.3-1,9.2c2.1,1.9,4.4,3.5,6.9,4.8c2.8,1.5,5.4,3.3,7.7,5.5
	c4,4.2,3.7,9.9,0.3,14.1s-7.7,5.3-12.8,4.6c-2.5-0.3-4.9-0.7-7.4-1c-0.6-0.1-1.1-0.1-1.7,0.1c-1.4,0.4-1.4,0.4-1.9-1v-8.4l0.2-0.6
	c0.1-0.4,0.2-0.9,0.7-0.9c0.4-0.1,0.7,0.5,0.9,0.8c0.8,1.2,1.5,2.5,2.4,3.7c2.5,3.3,5.4,5.6,9.8,5.2c1.8-0.1,3.4-1.1,4.2-2.7
	c1.6-2.9,0.8-6.1-1.9-8.4c-2.6-2-5.3-3.8-8.1-5.3c-3.6-2.2-7-4.9-8.2-9.3L5,111.4z"/>
<path class="st1" d="M196.7,87.3c1.5,4.3,4.2,8,7.8,10.6c1.1,0.6,1.9,1.8,2,3.1c0,1.5-0.7,2.4-2.2,2.1c-1.8-0.4-3.7,0.2-4.9,1.6
	c-1.6,1.6-3.2,1.2-4-1c-0.5-1.3-0.5-2.7,0-3.9c1.4-3.5,1.7-7.3,0.9-11c-0.1-0.5-0.1-1-0.1-1.5L196.7,87.3z"/>
<path class="st1" d="M5,153.8h35.8c0.4,0,1.2-0.2,1.2,0.5c0,0.7-0.8,0.5-1.2,0.5H5V153.8z"/>
<path class="st1" d="M5,156.2h18.8c5.7,0,11.3,0,17,0c0.4,0,1.1-0.2,1.2,0.4c0.1,0.6-0.8,0.5-1.2,0.5c-11.6,0-23.3,0-34.9,0H5
	L5,156.2z"/>
<path class="st0" d="M90.1,134.2c0,1.2,0.2,2.3,0.4,3.5c0.7,2.7,2.2,3.6,4.9,2.7c0.3-0.1,0.7-0.3,1-0.4c1.2-0.4,1.9-1.5,1.8-2.7
	c-0.1-4.3,0.1-8.5,0.1-12.8c0-0.9-0.1-1.9-0.2-2.8c-0.1-0.9-0.6-1.8-1.3-2.4c-0.5-0.4-0.5-0.8,0.2-0.9c2.6-0.6,5.3-1.2,7.9-1.8
	c0.9-0.2,1.3,0.2,1.3,1.3c0,2.7-0.1,5.5-0.1,8.2c0,3.5,0,6.9,0,10.4c0,0.7,0.1,1.5,0.4,2.2c0.1,0.6,0.7,1,1.3,1
	c0.2,0,0.4-0.1,0.6-0.3c0.4-0.2,0.7-0.5,1-0.8c0.4-0.4,1-0.6,1.5-0.2c0.5,0.4,0.2,1-0.1,1.5c-0.3,0.5-0.7,1-1.2,1.3
	c-2.6,1.8-5.3,2.9-8.4,1.8c-0.1,0-0.2-0.1-0.3-0.1c-1.3-1.2-2.6-0.7-4.1-0.2c-2.4,0.8-5.1,1-7.6,0.6c-3.7-0.5-6.6-3.5-6.9-7.3
	c-0.5-3.6,0-7.1,0.1-10.7c0-1.2,0-2.4-0.2-3.6c-0.1-0.8-0.6-1.5-1.3-1.9c-0.3-0.1-0.7-0.3-0.6-0.7s0.4-0.5,0.8-0.5
	c2.7-0.5,5.3-1.2,7.9-1.9c1-0.3,1.4,0.1,1.5,1.1C90.4,119.5,90.1,130.5,90.1,134.2z"/>
<path class="st0" d="M76.5,131.6c0,2.4,0,4.8,0,7.2c0,1.4,0.2,1.5,1.6,1.3c0.4-0.1,0.8-0.1,1,0.3c0.2,0.3,0,0.8-0.2,1.1
	c-1,1-2.3,1.7-3.7,1.7c-1.9,0.3-3.9-0.2-5.4-1.3c-0.4-0.4-1.1-0.4-1.6-0.1c-1.9,0.9-3.8,1.4-5.9,1.6c-2.4,0.3-4.9-0.2-7.1-1.3
	c-2.5-1.2-3.7-4-3-6.7c0.5-1.7,1.7-3,3.3-3.7c3.3-1.6,7.1-2.2,10.7-1.6c2.6,0.4,2.2,0.6,2.2-1.9c0.2-2.4,0.2-4.9,0-7.3
	c-0.3-2.1-2.3-3.6-4.4-3.2c-0.6,0.1-1.2,0.3-1.6,0.7c-0.7,0.6-1.1,1.4-1.1,2.4c0,0.9-0.1,1.9-0.2,2.8c-0.1,1.5-1.4,2.6-2.8,2.6h-0.5
	c-1.5,0.1-2.8-0.2-3.6-1.6c-0.8-1.4-0.6-3.2,0.4-4.4c0.9-1.2,2.2-2.1,3.6-2.6c4.1-1.5,8.6-1.7,12.8-0.4c3.6,1,5.4,3.6,5.5,7.7
	C76.6,126.9,76.5,129.2,76.5,131.6L76.5,131.6z M68.7,136.1c0-0.5,0-1.1,0-1.6c0-1.8-0.3-2.2-2.1-2.6c-0.4-0.1-0.8-0.1-1.2-0.2
	c-1.8-0.2-3.6,0.9-4.1,2.6c-0.7,1.9-0.3,4,1.1,5.4c1.4,1.1,3.3,1.2,4.8,0.3c1-0.3,1.6-1.3,1.4-2.3C68.6,137.3,68.6,136.7,68.7,136.1
	L68.7,136.1z"/>
<path class="st0" d="M162.6,127.6c-2,0-3.9,0-5.9,0c-0.6,0-1.2,0.1-1.8,0.2c-0.7,0.1-1.2,0.7-1.3,1.3c-0.4,3.1,2.2,8.1,5.1,9.4
	c2.5,1.1,5.4,0.9,7.6-0.7c0.7-0.4,1.3-1,2-1.5c0.4-0.3,0.7-0.5,1.1-0.7c0.4-0.3,1-0.2,1.4,0.1c0.4,0.4,0,0.9-0.2,1.3
	c-3,4.3-7,6.7-12.4,6.1c-5.4-0.3-10.2-3.7-12.2-8.7c-3.4-7.6,2-17,10.2-18.1c3.7-0.5,7.3-0.2,10.5,2c2.6,1.7,4.1,4.7,4,7.9
	c0,1.1-0.3,1.4-1.4,1.4C167,127.6,164.8,127.6,162.6,127.6z M158.8,125.5c0.7,0,1.5,0,2.2-0.1c0.7,0,1.2-0.6,1.2-1.2
	c0-0.1,0-0.2,0-0.3c-0.1-1.1-0.3-2.3-0.6-3.4c-0.9-2.4-3-2.9-4.9-1.2c-1.3,1.3-2.2,3-2.5,4.8c-0.2,1.1,0.1,1.6,1.3,1.5
	C156.6,125.4,157.7,125.6,158.8,125.5z"/>
<path class="st0" d="M122.2,129.5c0,3.2,0,6.3,0,9.5c-0.1,1.2,0.4,2.3,1.3,3.1c0.2,0.2,0.6,0.4,0.4,0.7c-0.1,0.3-0.5,0.2-0.7,0.3
	c-0.2,0-0.3,0-0.5,0h-9.3c-0.3,0-0.7,0.1-0.8-0.2c-0.2-0.3,0.2-0.6,0.4-0.7c0.8-0.6,1.3-1.6,1.1-2.7c0.1-5.4,0.2-10.8,0.2-16.2
	c0-1.3-0.1-1.4-1.4-1.4c-0.6,0-1.4,0.1-1.6-0.5c-0.2-0.7,0.6-1,1-1.3c0.4-0.4,0.6-0.4,0.9-0.7c0.7-0.5,1-1.3,0.9-2.2
	c-0.2-3.6,0.1-7.1,2.2-10.1c2.5-3.2,6.9-4.2,10.5-2.4c1.1,0.5,1.8,1.6,1.8,2.8c0,1.3-0.8,2.4-1.9,2.9c-1.9,0.9-4.2,0.6-5.8-0.8
	c-0.4-0.3-0.6-0.8-0.8-1.3c-0.1-0.2,0-0.6-0.4-0.6c-0.4,0-0.5,0.2-0.7,0.4c-0.9,1-0.9,2.6,0,3.6c0.5,0.6,1.1,1.1,1.7,1.7
	c1,0.9,1.7,2.2,1.8,3.6c0,0.6,0.3,0.8,0.9,0.7c0.7,0,1.4,0,2.1,0c0.3,0,0.6,0.1,0.9,0.2c0.5,0.2,0.7,2.1,0.4,3.1
	c-0.2,0.7-0.9,1.1-1.5,0.9c0,0,0,0,0,0c-0.5,0-1-0.1-1.5-0.2c-1.3-0.1-1.6,0.3-1.6,1.5C122.2,125.3,122.2,127.4,122.2,129.5
	L122.2,129.5z"/>
<path class="st0" d="M135.8,143h-4.7c-0.3,0-0.7,0.1-0.8-0.3c-0.1-0.3,0.2-0.5,0.4-0.6c0.9-0.6,1.4-1.8,1.2-2.9
	c-0.1-5.1,0.3-10.2,0.2-15.3c0-0.3,0-0.6,0-0.9c0-0.9-0.3-1.4-1.3-1.3c-0.6,0-1.5,0.1-1.7-0.6c-0.2-0.7,0.6-1.1,1.1-1.4
	c1.2-0.6,1.8-1.9,1.6-3.2c-0.2-2.9,0.3-5.8,1.5-8.5c1.9-4.2,7-5.3,10.5-3.9c1.9,0.7,2.9,2.1,2.6,3.6c-0.5,1.9-2.2,3.1-4.1,3
	c-2-0.1-3.8-0.7-4.5-2.9c-0.2-0.8-0.7-0.3-0.9,0c-0.9,1.1-0.9,2.6,0.1,3.7c0.5,0.6,1.1,1.1,1.6,1.6c1,1,1.7,2.3,1.8,3.7
	c0.1,0.7,0.3,0.8,1,0.7c0.7,0,1.5,0,2.2,0c0.7,0,1.1,0.3,1.1,1.1c0,0.5,0,0.9,0,1.4c0,1.5-0.4,1.9-2,1.7c-2.6-0.4-2.7-0.2-2.7,2.2
	c0,4.6-0.1,9.2-0.1,13.8c0,0.9,0.1,1.7,0.2,2.6c0.2,0.7,0.6,1.3,1.2,1.6c0.2,0.2,0.5,0.3,0.4,0.6c-0.1,0.3-0.4,0.3-0.7,0.3
	c-1.7,0-3.5,0-5.2,0L135.8,143z"/>
<path class="st0" d="M204.2,143.3l-7.2-0.4c-0.9-0.1-1.5-0.6-1.4-1.5c0.2-1.8-0.2-3.6,0.1-5.4c0-0.3,0.1-0.6,0.2-0.9
	c0.3-0.9,0.8-1.1,1.5-0.4c0.7,0.9,1.3,1.8,1.8,2.9c0.6,1.2,1.3,2.3,2.2,3.2c0.6,0.6,1.4,1,2.2,1.1c2.9,0.6,4.8-1.5,4-4.4
	c-0.5-2.1-2.2-3.1-3.9-4.1c-1.7-1-3.4-1.8-5.1-2.8c-3.3-2-4.6-5-3.8-8.4c0.5-2.4,2.3-4.4,4.6-5.2c2.3-0.8,4.7-1,7.1-0.5
	c1.3,0.3,2.7,0.2,4.1-0.1c1.1-0.3,1.4-0.1,1.8,1c0.6,2.1,1.1,4.2,1.3,6.4c0.1,0.5,0.1,1-0.5,1.2c-0.5,0.2-1.1,0.1-1.4-0.4
	c-0.5-0.6-0.8-1.3-1.1-2c-0.5-1-1.1-1.9-1.8-2.8c-1.2-1.4-3-2-4.8-1.7c-1.6,0.3-2.6,1.8-2.3,3.4c0.1,0.5,0.4,1,0.7,1.4
	c0.9,1,1.9,1.8,3,2.4c1.8,1,3.5,2.1,5.1,3.4c2.6,2.2,4,4.9,3.1,8.4c-0.8,3.5-4.3,6-8,6.1c-0.6,0-1.1,0-1.7,0L204.2,143.3z"/>
<path class="st0" d="M35.2,123c0-1.5-0.1-1.6-1.6-1.7c-0.4,0-0.9,0-1-0.4c-0.1-0.4,0.3-0.6,0.6-0.8c3.8-2.3,6.7-5.9,8.3-10
	c0.1-0.3,0.2-0.5,0.4-0.8c0.2-0.3,0.6-0.5,0.9-0.3c0.2,0.1,0.3,0.3,0.3,0.5c0.1,0.4,0.1,0.8,0.1,1.2c0,1.7,0,3.5-0.2,5.2
	c-0.1,1.3,0.2,1.7,1.5,1.8c1.4,0.4,2.9-0.1,3.9-1.1c0.3-0.4,0.8-0.4,1.2-0.1c0,0,0,0,0,0c0.4,0.3,0.1,0.7,0,1
	c-0.1,0.3-0.4,0.9-0.5,1.4c-0.3,1.6-1.8,2.6-3.4,2.5c-3,0-2.7-0.1-2.7,2.8c-0.1,3.7-0.1,7.3-0.2,11c-0.1,1.1,0,2.2,0.2,3.3
	c0.2,0.9,0.6,1.7,1.6,1.9c0.9,0.2,1.8-0.2,2.4-1c0.3-0.5,0.8-0.9,1.2-1.3c0.5-0.4,1.2-0.5,1.7-0.1c0.5,0.4,0.2,1,0,1.5
	c-0.5,0.9-1.2,1.6-2.1,2.1c-2.6,1.7-5.8,2.2-8.8,1.5c-2.4-0.3-4.2-2.5-4-4.9C35,136.6,35.2,126.6,35.2,123z"/>
<path class="st0" d="M179.1,143c-1.5,0-3,0-4.5,0c-0.4,0-0.9,0.2-1.1-0.3c-0.2-0.4,0.4-0.6,0.6-0.8c0.5-0.4,0.9-1,0.9-1.7
	c0.1-5.6,0.2-11.2,0.1-16.9c0-0.6-0.1-1.2-0.2-1.8c-0.1-0.8-0.6-1.5-1.4-1.9c-0.3-0.2-0.7-0.3-0.6-0.7c0.1-0.4,0.4-0.5,0.7-0.5
	c2.7-0.4,5.4-1.3,8.1-1.9c0.9-0.2,1.4,0.2,1.3,1.3c-0.1,1.1,0.3,0.8,0.9,0.5c0.4-0.2,0.7-0.5,1.1-0.8c1.7-1.2,3.8-1.4,5.7-0.6
	c1.5,0.4,2.5,1.8,2.4,3.4c0.1,1.4-0.8,2.7-2.1,3.3c-1.3,0.7-3,0.6-4.1-0.4c-0.3-0.3-0.6-0.5-0.8-0.9c-0.8-1-1.5-0.9-2.1,0.3
	c-0.7,1.4-1,2.9-1,4.5c-0.1,4.1,0,8.3,0,12.4c0,1,0.5,2,1.4,2.5c0.2,0.2,0.5,0.3,0.4,0.6c-0.1,0.3-0.5,0.3-0.8,0.3L179.1,143
	L179.1,143z"/>
<path class="st1" d="M190.5,115.2c4.4-7.2,12.9-10.8,21.1-9c8.6,1.8,15.1,8.9,16.1,17.7c1.1,9.7-5,17-9.1,19
	c4.3-5.1,6.2-10.7,5.1-17.1c-0.7-4.3-2.8-8.3-6-11.2c-3.7-3.6-8.6-5.5-13.7-5.3C198.9,109.4,194.1,111.5,190.5,115.2z"/>
<path class="st1" d="M176.9,97.5c0.8,0.3,1.6,0.7,2.2,1.2c3.3,1.7,6.8,3,10.4,3.7c1.1,0.2,2.2,0.6,3.2,1c1.1,0.5,2,1.4,2.4,2.6
	c0.3,0.8,0,1.8-0.9,2.1c-0.1,0-0.1,0-0.2,0.1c-0.3,0.1-0.6,0.2-0.9,0.3c-1.2,0.3-2.2,1.2-2.6,2.4c-1.1,2.7-3.2,2.9-5.2,0.7
	c-1.2-1.5-2.3-3.2-3.1-5c-1.3-2.6-2.9-5.1-4.8-7.4C177.3,98.6,177,98.1,176.9,97.5z"/>
<path class="st1" d="M242.5,147.1c-1.1-0.3-2.2-0.6-3.2-1.1c-2.4-0.9-4.9-1.3-7.4-1.4c-2.3-0.2-4.5-0.7-5.9-2.8
	c-0.9-0.9-0.9-2.4,0.1-3.3c0,0,0.1-0.1,0.1-0.1c1-0.9,1.5-2.1,1.6-3.4c0-1.1,0.5-2.2,1.4-2.9c1-0.8,2.3-0.8,3.4-0.2
	c1.3,1,2.3,2.4,2.6,4c0.5,2.1,1.3,4.1,2.5,6c1.2,2,3,3.7,5.1,4.8L242.5,147.1z"/>
<path class="st1" d="M221.8,107.5c-0.7,0-1.4-0.4-1.8-1c-0.9-1.4-2.5-2.2-4.1-2.2c-1.2,0-2.2-0.9-2.2-2.1c0-0.5,0.1-0.9,0.4-1.3
	c0.9-1.4,2-2.5,3.4-3.4c2.8-1.9,5.8-3.6,8-6.2c0.1-0.2,0.3-0.4,0.6-0.2c0.2,0.2,0,0.4,0,0.7c-0.5,1.3-1,2.7-1.4,4
	c-0.6,1.8-0.7,3.7-0.3,5.5c0.3,1,0.4,2,0.3,3C224.5,106,223.1,107.6,221.8,107.5z"/>
<path class="st1" d="M231.4,112.5c1.3,0,2.7,0.2,3.9,0.7c2.5,0.8,5.1,0.9,7.7,0.3c0.7-0.1,1.9-0.5,1.9-0.2c0.1,0.7-1,0.8-1.6,1.1
	c-1.3,0.7-2.6,1.3-3.9,2.1c-1.6,0.9-2.9,2.3-3.8,3.9c-0.7,1.2-1.6,2.3-2.7,3.1c-0.8,0.7-1.9,0.8-2.8,0.2c-0.8-0.6-1.2-1.7-0.8-2.6
	c0.7-2,0-3.4-1.5-4.7c-1.5-1.3-1.3-2.7,0.6-3.4C229.5,112.7,230.4,112.5,231.4,112.5z"/>
<path class="st0" d="M143,156.5c-0.8,0-1.5,0-2.2,0c-0.7,0-0.9,0.3-0.9,0.9c0,0.9,0,1.7,0,2.6c0,0.7,0,1.3,0.9,1.3
	c0.3,0,0.5,0.2,0.5,0.5c0,0,0,0,0,0.1c0,0.3-0.2,0.6-0.4,0.6c-1.4,0.1-2.7,0.1-4.1,0.1c-0.3,0-0.4-0.2-0.4-0.5
	c-0.1-0.3,0.1-0.6,0.4-0.7c0.8-0.3,0.9-0.9,0.9-1.7c0-2.6,0-5.1,0-7.7c0-0.7-0.1-1.3-0.9-1.6c-0.3-0.1-0.5-0.3-0.4-0.6
	c0,0,0,0,0-0.1c0.1-0.3,0.3-0.5,0.6-0.4c1,0,1.9,0,2.9,0c0.5,0,0.6,0.3,0.4,0.7c-0.6,1.4-0.3,2.8-0.4,4.2c0,0.6,0.3,0.8,0.9,0.8
	c1.5,0,3,0,4.5,0c0.6,0,0.8-0.3,0.8-0.9c0-0.6,0-1.4,0-2.1s0.1-1.5-0.9-1.8c-0.3-0.1-0.4-0.4-0.3-0.7c0-0.2,0.3-0.4,0.5-0.4
	c1,0,2,0,3,0c0.2,0,0.4,0.1,0.5,0.4c0,0.1,0,0.2,0,0.3c-0.7,1.8-0.3,3.6-0.4,5.4c0,1.6,0,3.2,0,4.8c0,0.6,0,1.2,0.9,1.2
	c0.3,0,0.5,0.2,0.5,0.5c0,0,0,0.1,0,0.1c0,0.3-0.2,0.6-0.6,0.6c-1.3,0.1-2.6,0.1-3.9,0.1c-0.3,0-0.5-0.2-0.5-0.4c0,0,0,0,0,0
	c0-0.3,0-0.6,0.4-0.7c0.8-0.3,0.9-0.9,0.8-1.6c0-0.7,0-1.5,0-2.2s-0.2-1-0.9-1C144.5,156.6,143.7,156.5,143,156.5z"/>
<path class="st0" d="M53.2,162.7c-3.5,0.1-6.5-2.7-6.6-6.3c0-0.1,0-0.2,0-0.3c-0.2-3.7,2.7-6.9,6.4-7.1c0.2,0,0.4,0,0.6,0
	c3.4-0.2,6.4,2.4,6.6,5.9c0,0.2,0,0.3,0,0.5c0.1,3.9-2.9,7.2-6.8,7.3C53.3,162.7,53.2,162.7,53.2,162.7z M57.7,156.5
	c0.1-1.6-0.3-3.2-1.3-4.5c-1.3-1.7-3.7-2-5.4-0.7c-0.3,0.2-0.5,0.5-0.7,0.7c-1.8,2.6-1.5,6.1,0.7,8.3c1.4,1.4,3.6,1.4,5,0
	c0.1-0.1,0.2-0.2,0.3-0.3C57.1,159,57.6,157.8,57.7,156.5L57.7,156.5z"/>
<path class="st0" d="M78.8,154.6l3.5-3.7c0.2-0.2,0.1-0.4,0-0.6c-0.4-0.8-0.3-1.1,0.6-1.1s1.5,0,2.2,0c0.3,0,0.6,0,0.7,0.4
	c0.1,0.4-0.2,0.5-0.4,0.7c-1.9,1.1-3.1,2.8-4.6,4.3c-0.3,0.3-0.4,0.8-0.1,1.1c0,0,0.1,0.1,0.1,0.1c1.4,1.6,2.7,3.2,4,4.8
	c0.2,0.3,0.6,0.5,1,0.6c0.3,0,0.5,0.3,0.5,0.6c0,0,0,0.1,0,0.1c0,0.3-0.3,0.5-0.6,0.6c-1.3,0.4-2.6-0.1-3.4-1.2
	c-1.2-1.5-2.4-2.9-3.7-4.3c0,1.3,0,2.5,0,3.8c0,0.4,0.4,0.4,0.8,0.5c0.3,0,0.7,0.1,0.7,0.6c0,0.4-0.3,0.7-0.6,0.7c0,0-0.1,0-0.1,0
	h-3.7c-0.3,0-0.5-0.1-0.6-0.4c-0.1-0.3,0-0.7,0.4-0.8c0,0,0,0,0,0c0.9-0.3,0.9-0.9,0.9-1.7c0-2.6,0-5.2,0-7.8c0-0.7-0.1-1.3-0.9-1.5
	c-0.3-0.1-0.5-0.3-0.4-0.6c0,0,0,0,0,0c0.1-0.3,0.3-0.5,0.6-0.4c1,0,1.9,0,2.9,0c0.7,0,0.6,0.4,0.4,0.9c-0.6,1.4-0.2,2.9-0.3,4.4
	L78.8,154.6z"/>
<path class="st0" d="M115.7,149.2c1.2,0,2.5,0,3.7,0c0.7,0,1.1,0.2,0.9,1c-0.2,0.8-0.2,1.4-0.4,2.1c-0.1,0.4-0.3,0.7-0.7,0.7
	c-0.5,0-0.6-0.3-0.6-0.7c-0.3-1.5-0.3-1.5-1.8-1.5c-2.2,0-2-0.2-2,2c0,0.2,0,0.4,0,0.6c0,1.9,0.1,2,2,1.8c0.4,0,0.8-0.3,0.9-0.7
	c0.1-0.3,0.5-0.5,0.8-0.4c0.4,0,0.5,0.4,0.5,0.7c0,0.7,0,1.5,0,2.2c0,0.4-0.2,0.8-0.7,0.8c-0.4,0.1-0.8-0.1-0.9-0.5c0,0,0,0,0-0.1
	c-0.3-1.3-1.3-0.7-2-0.7c-0.7,0-0.6,0.7-0.6,1.1c0,0.9,0,1.8,0,2.7c0,0.5,0.2,0.7,0.7,0.7c0.4,0,0.8,0,1.2,0
	c1.2,0.3,2.3-0.4,2.7-1.6c0.2-0.5,0.5-0.8,1.1-0.6s0.3,0.7,0.2,1.1c-0.7,2.9-0.2,2.5-3.1,2.5h-5.4c-0.4,0-0.8,0.1-0.9-0.4
	c-0.1-0.5,0.2-0.7,0.6-0.9c0.5-0.2,0.7-0.6,0.7-1.1c0-2.9,0-5.7,0-8.6c0.1-0.5-0.3-1-0.8-1.1c-0.4-0.1-0.7-0.3-0.6-0.8
	c0.1-0.5,0.5-0.4,0.9-0.5h3.8L115.7,149.2z"/>
<path class="st0" d="M105.6,162.7c-1,0.1-2-0.2-2.9-0.7c-1-0.7-1.3-2.2-0.6-3.2c0-0.1,0.1-0.1,0.1-0.1c0.4-0.4,1-0.3,1.1,0.4
	c0.1,0.9,0.6,1.7,1.4,2.1c0.9,0.4,2,0.2,2.6-0.5c0.5-0.8,0.3-1.9-0.4-2.5c-0.8-0.7-1.6-1.3-2.5-1.8c-1.4-0.9-2.6-2-2.4-3.9
	c0-1.3,0.8-2.4,2-2.9c1.6-0.6,3.4-0.7,5.1-0.1c0.3,0,0.6,0.3,0.6,0.7c0,0.1,0,0.1,0,0.2c-0.1,0.7-0.2,1.3-0.4,2
	c-0.1,0.4-0.2,0.9-0.8,0.8s-0.6-0.5-0.6-0.9c-0.1-0.9-0.5-1.5-1.4-1.6c-0.8-0.2-1.6,0.2-2,0.9c-0.4,0.8-0.2,1.7,0.4,2.2
	c0.8,0.7,1.7,1.3,2.6,1.8c1.4,0.7,2.3,2,2.4,3.6C110.1,161.2,108.4,162.7,105.6,162.7z"/>
<path class="st0" d="M96.5,162.7c-1,0.1-2.1-0.1-3-0.7c-1-0.7-1.2-2.1-0.5-3.1c0,0,0.1-0.1,0.1-0.1c0.4-0.4,0.8-0.4,1.1,0.2
	c0.1,0.3,0.1,0.7,0.2,1c0.2,0.9,1,1.5,1.9,1.5c0.8,0.2,1.6-0.2,2-1c0.3-0.8,0.1-1.8-0.6-2.4c-0.8-0.7-1.8-1.3-2.7-1.9
	c-1.3-0.9-2.3-2-2.2-3.8c0-1.2,0.8-2.3,1.9-2.8c1.7-0.6,3.5-0.7,5.2-0.2c0.4,0.1,0.6,0.4,0.5,0.8c-0.1,0.7-0.2,1.3-0.4,2
	c-0.1,0.4-0.2,0.9-0.8,0.8s-0.5-0.5-0.6-0.9c-0.1-1.1-0.6-1.6-1.6-1.6c-0.8,0-1.5,0-1.9,0.8c-0.4,0.8-0.2,1.7,0.4,2.3
	c0.5,0.4,1,0.8,1.5,1.1c0.7,0.4,1.4,0.9,2.1,1.4c1.3,1,1.8,2.7,1.2,4.2c-0.6,1.4-2,2.4-3.5,2.4C96.8,162.7,96.6,162.7,96.5,162.7z"
	/>
<path class="st0" d="M65.8,149.2c1.2,0,2.4,0,3.6,0c0.7,0,0.9,0.2,0.8,0.9c-0.1,0.7-0.3,1.4-0.4,2.2c-0.1,0.4-0.2,0.7-0.7,0.7
	c-0.5,0-0.6-0.3-0.6-0.7c-0.2-1.4-0.3-1.6-1.9-1.6c-1.9,0-1.9,0-1.9,1.8c0,0.3,0,0.7,0,1c0,1.8,0,1.8,1.7,1.7c0.5,0,0.9,0,1-0.7
	c0.1-0.3,0.4-0.5,0.7-0.5c0,0,0,0,0,0c0.4,0,0.5,0.4,0.5,0.8c0,0.8,0,1.6,0,2.4c0,0.4-0.1,0.7-0.5,0.7c-0.4,0.1-0.8-0.1-0.9-0.5
	c-0.5-0.8-1.4-1.1-2.2-0.8c-0.3,0.2-0.3,0.5-0.3,0.8c0,0.9,0,1.9,0,2.8c0,0.7,0.2,1,1,1c0.4,0,0.9,0,0.9,0.6c0,0.6-0.4,0.7-0.9,0.7
	l-3.8,0.1c-0.3,0-0.6,0-0.7-0.3c-0.1-0.3,0-0.7,0.3-0.9c0.9-0.3,0.9-1,0.9-1.8c0-2.6,0-5.2,0-7.8c0-0.7-0.1-1.2-0.8-1.3
	c-0.3,0-0.6-0.3-0.5-0.6c0,0,0-0.1,0-0.1c0.1-0.4,0.4-0.5,0.8-0.5L65.8,149.2L65.8,149.2z"/>
<path class="st0" d="M171.6,162.5h-3.4c-0.3,0-0.8,0.1-0.9-0.3c-0.1-0.4,0.1-0.8,0.4-0.9c0,0,0,0,0.1,0c0.6-0.2,0.7-0.7,0.7-1.2
	c0-2.8,0-5.6,0-8.4c0-0.6-0.2-1-0.8-1.2c-0.3,0-0.6-0.3-0.5-0.6c0,0,0-0.1,0-0.1c0.1-0.4,0.4-0.4,0.7-0.4h2.7c0.5,0,0.8,0.2,0.6,0.8
	c-0.4,1-0.5,2.1-0.4,3.2c0,2.2,0,4.5,0,6.7c0,0.8,0.3,1.1,1,1.1c0.3,0,0.7,0,1,0c1.2,0.3,2.5-0.5,2.8-1.7c0.1-0.2,0.2-0.5,0.4-0.7
	c0.2-0.2,0.5-0.3,0.8-0.1c0.3,0.1,0.3,0.4,0.2,0.6c-0.2,0.9-0.4,1.9-0.6,2.8c-0.1,0.6-0.6,0.6-1,0.6L171.6,162.5L171.6,162.5z"/>
<path class="st0" d="M126.3,162.5h-3.5c-0.3,0-0.6,0-0.7-0.4c-0.1-0.3,0-0.7,0.3-0.9c0.7-0.3,0.8-0.9,0.8-1.6c0-2.7,0-5.3,0-8
	c0-0.7-0.1-1.2-0.9-1.4c-0.3-0.1-0.5-0.3-0.5-0.7c0,0,0,0,0,0c0.1-0.4,0.3-0.5,0.7-0.5c0.9,0,1.9,0,2.8,0c0.5,0,0.7,0.3,0.5,0.7
	c-0.4,1.1-0.5,2.3-0.4,3.5c0,2.2,0,4.3,0,6.5c0,0.8,0.3,1.1,1.1,1.1c0.4,0,0.8,0,1.2,0c1,0.2,2-0.4,2.2-1.4c0.1-0.2,0.2-0.5,0.3-0.7
	c0.1-0.4,0.5-0.6,0.9-0.5c0,0,0,0,0.1,0c0.4,0.2,0.3,0.5,0.3,0.9c-0.4,3.1-0.4,3.1-3.6,3.1H126.3L126.3,162.5z"/>
<path class="st0" d="M161.4,162.5h-3.5c-0.3,0-0.7,0.1-0.8-0.3c-0.2-0.3,0-0.7,0.3-0.9c0,0,0,0,0.1,0c0.7-0.3,0.8-0.8,0.8-1.5
	c0-2.7,0-5.3,0-8c0-0.6-0.1-1.2-0.8-1.4c-0.3-0.1-0.5-0.3-0.5-0.7c0,0,0,0,0,0c0-0.3,0.3-0.5,0.6-0.5c0.9,0,1.9,0,2.8,0
	c0.4,0,0.8,0.2,0.5,0.7c-0.4,1.2-0.6,2.5-0.4,3.8c0,2.1,0,4.1,0,6.2c0,0.8,0.3,1.1,1.1,1.1c0.4,0,0.8,0,1.1,0
	c1.1,0.2,2.2-0.4,2.5-1.5c0.1-0.3,0.2-0.6,0.3-0.8c0.2-0.3,0.5-0.4,0.8-0.2c0.4,0.1,0.4,0.4,0.3,0.7c-0.2,0.9-0.4,1.8-0.6,2.6
	c-0.1,0.5-0.5,0.6-1,0.6L161.4,162.5L161.4,162.5z"/>
<path class="st1" d="M199.2,154.8h-17.5c-0.2,0-0.4,0-0.6,0c-0.4,0-1,0.1-1-0.5c0-0.6,0.6-0.5,1-0.5h19c5.6,0,11.3,0,17,0
	c0.5,0,1.3-0.2,1.3,0.5c0,0.7-0.9,0.5-1.4,0.5C211.2,154.8,205.2,154.8,199.2,154.8z"/>
<path class="st1" d="M240.2,127.7c-0.1,0.2-0.2,0.3-0.4,0.3c-1.5,0.1-3,0.6-4.2,1.4c-1,0.6-2.1,1.1-3.2,1.3c-0.6,0.1-1.3,0-1.8-0.3
	c-0.7-0.4-1.2-0.8-0.5-1.7c0.5-0.6,0.6-1.5,0.2-2.2c-0.3-0.7,0-1.1,0.6-1.3c1-0.4,2.1-0.4,3.1-0.2c2,0.6,4,1.4,5.9,2.4
	C240.1,127.5,240.2,127.6,240.2,127.7z"/>
<path class="st1" d="M207.6,100.2c0.2-2.9,1-5.7,2.5-8.1c0.1-0.2,0.2-0.4,0.4-0.3c0.3,0.1,0.2,0.3,0.1,0.5c-0.5,1.9,0.3,3.4,1.3,4.9
	c0.9,1.1,1.3,2.4,1.2,3.8c-0.2,1.5-0.9,1.8-2.2,1.1c-0.5-0.3-1-0.3-1.5-0.2c-1.6,0.5-1.9,0.3-1.9-1.3
	C207.6,100.5,207.6,100.3,207.6,100.2z"/>
<path class="st0" d="M153.2,162.5h-1.7c-0.3,0-0.6,0-0.7-0.4c-0.1-0.3,0-0.7,0.4-0.8c0,0,0,0,0,0c0.9-0.3,0.9-0.9,0.9-1.7
	c0-2.6,0-5.2,0-7.8c0-0.7-0.1-1.3-0.9-1.5c-0.3-0.1-0.5-0.3-0.4-0.6c0,0,0,0,0,0c0.1-0.3,0.4-0.5,0.7-0.5c0.9,0,1.9,0,2.8,0
	c0.4,0,0.7,0.2,0.5,0.6c-0.6,1.4-0.3,3-0.4,4.5c0,2,0,3.9,0,5.9c0,0.6,0.1,1,0.9,1c0.4,0,0.8,0.2,0.7,0.7c-0.1,0.5-0.4,0.6-0.8,0.6
	H153.2L153.2,162.5z"/>
<path class="st0" d="M89.1,162.5h-1.7c-0.3,0-0.6,0-0.7-0.4c-0.1-0.3,0-0.6,0.3-0.7c0.8-0.3,0.9-0.9,0.8-1.6c0-2.6,0-5.3,0-7.9
	c0-0.7,0-1.3-0.8-1.5c-0.3-0.1-0.4-0.4-0.3-0.6c0-0.3,0.3-0.5,0.6-0.5c1,0,1.9,0,2.9,0c0.4,0,0.6,0.3,0.5,0.7
	c-0.7,1.6-0.4,3.3-0.5,4.9s0,3.5,0,5.3c0,0.7,0.1,1.1,0.9,1.1c0.4,0,0.8,0.1,0.7,0.6c-0.1,0.5-0.4,0.6-0.8,0.6
	C90.5,162.5,89.8,162.5,89.1,162.5L89.1,162.5z"/>
<path class="st1" d="M232.2,104c0,0.1-0.1,0.3-0.2,0.4c-1.4,1.9-2.6,4-3.4,6.3c-0.2,0.4-0.4,0.8-0.7,1.2c-1,1.3-2.1,1.1-2.7-0.3
	c-0.3-0.6-0.7-1.1-1.2-1.4c-1.1-0.7-1.1-1.7,0-2.5c0.7-0.4,1.5-0.7,2.2-0.9c1.9-0.6,3.7-1.5,5.3-2.6C231.8,104,232,104,232.2,104z"
	/>
<path class="st1" d="M199.2,157c-5.9,0-11.9,0-17.8,0c-0.4,0-1.2,0.3-1.2-0.4c0-0.7,0.8-0.4,1.2-0.4c11.9,0,23.9,0,35.8,0
	c0.5,0,1.3-0.3,1.3,0.4c0,0.7-0.9,0.4-1.3,0.4C211.2,157,205.2,157,199.2,157z"/>
</svg>
