<?xml version="1.0" encoding="utf-8"?>
<!-- Generator: Adobe Illustrator 21.1.0, SVG Export Plug-In . SVG Version: 6.00 Build 0)  -->
<svg version="1.1" id="Layer_1" xmlns="http://www.w3.org/2000/svg" xmlns:xlink="http://www.w3.org/1999/xlink" x="0px" y="0px"
	 viewBox="0 0 250 250" style="enable-background:new 0 0 250 250;" xml:space="preserve">
<style type="text/css">
	.st0{fill:#712177;}
	.st1{fill:#FFFFFF;}
	.st2{fill:#F7A800;}
	.st3{fill:#E2231A;}
	.st4{fill:#82BC00;}
</style>
<title>Grocery</title>
<path class="st0" d="M85.7,141.9c1.9,1.4,4.1,2.1,6.4,2.2c3.4,0,4.7-2.1,4.7-3.7c0-2.4-2.1-3.2-3.7-3.9l-1.5-0.6
	c-1.6-0.6-3-1.5-4.2-2.8c-1-1.1-1.5-2.5-1.5-4c0-3.6,3-7,8.5-7c2,0,4.1,0.4,5.9,1.3v4c-1.6-1.3-3.6-2-5.6-2c-3.1,0-4.2,1.8-4.2,3.3
	c0,2.2,2.2,3.1,4,3.8l1.7,0.7c1.5,0.6,2.9,1.5,4,2.7c0.9,1.1,1.4,2.6,1.3,4c0,4-3.4,7.3-9,7.3c-2.3,0-4.6-0.5-6.8-1.3"/>
<path class="st0" d="M111,146.9c-0.7,0.2-1.3,0.2-2,0.2c-1.3,0.1-2.5-0.4-3.4-1.3c-0.9-1.1-1.2-2.5-1-3.8l0.1-9.2h-2.2v-2.9h2.3
	v-3.2l4-1.2v4.4h3.8v2.9h-3.8v7.4c0,1.8,0,2.5,0.4,3.2c0.5,0.6,1.3,1,2.1,0.9c0.8,0,1.5-0.2,2.2-0.4"/>
<path class="st0" d="M122.2,147.1c-5.5,0-8.3-3.8-8.3-8.6c0-5,3.2-9,8.5-9c4.9,0,8.2,3.4,8.2,8.7
	C130.6,143.1,127.8,147.1,122.2,147.1 M122.2,132.3c-1.3,0-2.6,0.7-3.2,1.9c-1.2,2.6-1.2,5.6,0,8.2c0.7,1.1,1.9,1.8,3.2,1.8
	c2.8,0,4.1-2.9,4.1-6S125.2,132.3,122.2,132.3L122.2,132.3z"/>
<path class="st0" d="M165.9,145.4l-3.3-2.6c0,0,2.7,1,2.1,1.5c-0.6,0.7-1.3,1.3-2.1,1.7c-1.3,0.8-2.8,1.2-4.3,1.2
	c-3.9,0.1-6.8-1.8-7-5.1c-0.1-1.3,0.2-2.5,0.9-3.6c0.7-1,1.7-1.7,2.8-2.2c-1.1-0.9-1.8-2.2-2.1-3.5c-0.2-2.8,1.8-4.8,4.9-5.1
	c2.9-0.3,5.3,1.4,5.5,4c0.1,1.1-0.2,2.1-0.8,3c-0.6,0.9-1.4,1.7-2.4,2.2l7.6,6.1 M156.9,138.2c-1.4,0.5-2.2,1.8-2.1,3.3
	c0.2,2,2,3.4,4,3.2c0.1,0,0.2,0,0.3-0.1c1.3-0.2,2.6-0.8,3.6-1.7L156.9,138.2z M160.4,132c0-1.1-0.9-2-2.1-2c-0.1,0-0.1,0-0.2,0
	c-1.3,0.1-2.2,1.2-2,2.5c0,0,0,0.1,0,0.1c0.1,1.1,1.1,1.9,1.9,2.6C160.3,134.3,160.4,133,160.4,132L160.4,132z"/>
<path class="st0" d="M168.7,141.7c1.9,1.4,4.1,2.1,6.4,2.2c3.4,0,4.7-2.1,4.7-3.7c0-2.4-2.1-3.2-3.7-3.9l-1.5-0.6
	c-1.6-0.6-3-1.5-4.2-2.7c-1-1.1-1.5-2.5-1.5-4c0-3.6,3-7,8.5-7c2,0,4.1,0.4,5.9,1.3v4c-1.6-1.3-3.6-2-5.6-2c-3.1,0-4.2,1.8-4.2,3.3
	c0,2.2,2.2,3.1,4,3.8l1.7,0.7c1.5,0.6,2.9,1.5,4,2.8c0.9,1.1,1.4,2.6,1.3,4c0,4-3.4,7.3-9,7.3c-2.3,0-4.6-0.5-6.8-1.3"/>
<path class="st0" d="M201.2,146.7h-4v-8.5c0-2.7,0-4-1.2-4.9c-0.7-0.5-1.5-0.8-2.3-0.7c-1.1,0-2.2,0.4-3.1,1v13.1h-4v-24h4V133
	l-0.9-1.9c0.8-0.4,1.5-0.8,2.3-1.1c1.1-0.4,2.2-0.6,3.4-0.6c1.5-0.1,3,0.4,4.2,1.3c1.2,1.2,1.8,2.9,1.6,4.6"/>
<path class="st0" d="M211.8,147.1c-5.5,0-8.3-3.8-8.3-8.6c0-5,3.2-9,8.5-9c4.9,0,8.2,3.4,8.2,8.7
	C220.2,143.1,217.4,147.1,211.8,147.1 M211.8,132.3c-1.3,0-2.6,0.7-3.2,1.9c-1.2,2.6-1.2,5.6,0,8.2c0.7,1.1,1.9,1.8,3.2,1.8
	c2.8,0,4.1-2.9,4.1-6S214.8,132.3,211.8,132.3L211.8,132.3z"/>
<path class="st0" d="M226.6,130.7c0.4-0.2,1.7-0.7,2-0.8c0.9-0.3,1.8-0.4,2.7-0.4c4.9,0,7.8,3.4,7.8,8.5c0,5.5-3.4,9.2-8.2,9.2
	c-1.5,0-2.9-0.4-4.2-1.1v7.8h-4v-23.9h4v2.8C226.8,132.7,226.2,130.9,226.6,130.7 M226.8,143c1,0.7,2.1,1,3.3,1c3.3,0,4.9-2.7,4.9-6
	c0.1-1.4-0.3-2.8-1.2-4c-0.9-1.1-2.3-1.7-3.7-1.7c-1.1,0-2.3,0.3-3.3,0.8V143z"/>
<path class="st0" d="M137,130.7c0.4-0.2,1.7-0.7,2-0.8c0.9-0.3,1.8-0.4,2.7-0.4c4.9,0,7.8,3.4,7.8,8.5c0,5.5-3.4,9.2-8.2,9.2
	c-1.5,0-2.9-0.4-4.2-1.1v7.8h-4v-23.9h4v2.8C137.2,132.7,136.6,130.9,137,130.7 M137.2,143c1,0.7,2.1,1,3.3,1c3.3,0,4.9-2.7,4.9-6
	c0.1-1.4-0.3-2.8-1.1-4c-0.9-1.1-2.3-1.7-3.7-1.7c-1.1,0-2.3,0.3-3.3,0.8L137.2,143z"/>
<path class="st0" d="M242.2,128.8c1.4,0,2.5,1.2,2.5,2.6c0,1.4-1.2,2.5-2.6,2.5c-1.4,0-2.5-1.2-2.5-2.5c0-1.4,1.1-2.5,2.5-2.5
	C242.1,128.8,242.1,128.8,242.2,128.8 M242.2,133.3c1.1,0,2-0.8,2.1-1.9s-0.8-2-1.9-2.1c-1.1,0-2,0.8-2.1,1.9c0,0,0,0,0,0.1
	C240.2,132.3,241.1,133.2,242.2,133.3C242.1,133.3,242.2,133.3,242.2,133.3z M241.2,129.9h1.1c0.7,0,1.1,0.2,1.1,0.8
	c0,0.4-0.3,0.7-0.7,0.8c0,0-0.1,0-0.1,0l0.7,1.2h-0.6l-0.7-1.2h-0.3v1.2h-0.6L241.2,129.9z M241.7,131h0.5c0.3,0,0.5,0,0.5-0.4
	c0-0.4-0.3-0.3-0.6-0.3h-0.5V131z"/>
<path class="st1" d="M73.8,105.9L73.8,105.9L73.8,105.9L73.8,105.9 M71.8,134.7H53.1l22.3-22.3l0,0c1.5-1.5,1.5-3.9,0-5.5
	c-0.4-0.4-0.8-0.7-1.3-0.9h-0.2c-6.7-2.3-14.1-0.6-19.1,4.4c-0.3,0.3-0.6,0.6-0.9,1v-21l0,0c0-2.3-1.8-4.1-4.1-4.1
	c-0.6,0-1.1,0.1-1.6,0.3H48l0,0l0,0l0,0c-8,4-13.1,12.1-13.1,21c0,1.2,0.1,2.4,0.3,3.6L19.6,95.9l0,0c-1.7-1.7-4.5-1.7-6.2,0
	c-0.4,0.4-0.8,0.9-1,1.5v0.2l0,0c-5,14.4,1.5,30.3,15.2,37.1H9.4c-2.6,0-4.8,2.2-4.8,4.8c0,0.6,0.1,1.3,0.4,1.9l0.1,0.2l0,0
	c9.5,19.5,33,27.7,52.5,18.2c7.9-3.9,14.4-10.3,18.2-18.2l-0.1,0.2l0.1-0.3c1.1-2.4-0.1-5.2-2.5-6.3c-0.5-0.2-1-0.3-1.5-0.4
	L71.8,134.7z"/>
<path class="st2" d="M7.9,140.1c-0.4-0.8,0-1.8,0.8-2.2c0.2-0.1,0.4-0.1,0.7-0.1h62c0.9,0,1.6,0.7,1.6,1.6c0,0.2,0,0.5-0.1,0.7l0,0
	c-8.7,18-30.3,25.4-48.3,16.7C17.4,153.3,11.5,147.4,7.9,140.1"/>
<path class="st3" d="M15.3,98.6c0.1-0.2,0.2-0.3,0.3-0.4c0.5-0.5,1.3-0.5,1.7,0l0,0l33,33l0,0c0.5,0.5,0.5,1.3,0,1.7
	c-0.1,0.1-0.3,0.2-0.4,0.3l0,0c-14.2,4.9-29.7-2.6-34.6-16.8C13.3,110.6,13.3,104.3,15.3,98.6"/>
<path class="st0" d="M49.4,89.6c0.1-0.1,0.2-0.1,0.4-0.1c0.5,0,0.9,0.4,0.9,0.9c0,0,0,0,0,0l0,0v34.8l0,0c0,0.5-0.4,0.9-0.9,0.9
	c0,0,0,0,0,0c-0.1,0-0.3,0-0.4-0.1l0,0c-10.1-4.9-14.3-17-9.4-27.1C41.9,94.9,45.3,91.6,49.4,89.6"/>
<path class="st4" d="M72.9,109c0.4,0.1,0.5,0.5,0.4,0.9c0,0.1-0.1,0.2-0.2,0.2l0,0l-18.7,18.7l0,0c-0.3,0.3-0.7,0.3-1,0c0,0,0,0,0,0
	c-0.1-0.1-0.1-0.1-0.2-0.2l0,0c-2.8-8,1.5-16.8,9.5-19.6C66.1,107.8,69.6,107.8,72.9,109"/>
</svg>
