<?xml version="1.0" encoding="utf-8"?>
<!-- Generator: Adobe Illustrator 21.1.0, SVG Export Plug-In . SVG Version: 6.00 Build 0)  -->
<svg version="1.1" id="Layer_1" xmlns="http://www.w3.org/2000/svg" xmlns:xlink="http://www.w3.org/1999/xlink" x="0px" y="0px"
	 viewBox="0 0 250 250" style="enable-background:new 0 0 250 250;" xml:space="preserve">
<style type="text/css">
	.st0{fill:#FFFFFF;}
	.st1{fill:#008F40;}
	.st2{fill:#D52D20;}
	.st3{fill:#FFFF01;}
</style>
<title>CR</title>
<path d="M5,165v-52.4h27.3l-2.1-5.5C54,95.3,79.9,88.1,106.5,85.8c40-3.2,78.3,3.4,114.4,21.5l-2.2,5.2H245V165H5z M26.9,124.2
	c0-2.7-0.1-5.3-0.1-8.1c0-1-0.3-1.3-1.3-1.3c-2.4,0.1-4.9,0.1-7.3,0c-1,0-1.3,0.4-1.3,1.3c0,2.7,0,5.3-0.1,8.1c-2.8,0-5.6,0.1-8.4,0
	c-1,0-1.3,0.3-1.3,1.3c0,2.3,0.1,4.6,0,6.9c0,1.2,0.4,1.5,1.5,1.4c2.7,0,5.5,0,8.2,0.1l-0.1,9.5c-1.9,0-3.9,0.1-5.8,0.1
	c-3.9,0-3.9,0-3.9,3.9c0,1.9,0,3.8,0,5.7h9.6c0-3.3,0-6.5,0-9.7H27v9.8h9.6c0-3.3,0-6.5,0-9.8h7.8c-0.9-2.3-1.7-4.5-2.5-6.6
	c-1.3-3.2-1.3-3.2-5.1-2.8c0,0.6,0,1.2,0,1.8c0,2.5-0.1,5.1-0.1,7.6h-9.7v-9.5c2.8,0,5.6-0.1,8.4-0.1c1,0,1.3-0.2,1.3-1.3
	c-0.1-2.3-0.1-4.7,0-7c0-1-0.3-1.3-1.3-1.3C32.5,124.2,29.7,124.2,26.9,124.2L26.9,124.2z M213.6,143.8v-9.9c-1.3,0-2.3,0-3.4,0
	c-0.4,0-1,0.2-1.1,0.5c-1.3,3-2.7,6-4.1,9.3L213.6,143.8l0,9.3c-0.5,0-1.1,0.1-1.7,0.1c-2.3,0-4.7,0-7,0c-0.4,0-1.2,0.5-1.2,0.8
	c-0.1,2.6-0.1,5.2,0,7.8c0,0.3,0.5,0.9,0.7,0.9c3,0,6.1,0,9.1,0c0-3.4,0-6.5,0-9.7h10.2v9.6h9.7c0-3.3,0-6.4,0-9.6h9.9v-9.4h-9.9
	v-9.9h10c0-2.8,0-5.6,0-8.3c0-1.1-0.4-1.3-1.4-1.3c-2.3,0-4.7,0.1-7,0c-1.1,0-1.5,0.3-1.5,1.5c0,2.7,0,5.5,0,8.2h-9.8
	c0,3.5,0,6.7,0,9.8L213.6,143.8z M204,140.5l14.1-32.6c-61.9-28-123.5-28-185.3,0.1l12.9,32.5C98.6,117.1,151.1,117.1,204,140.5
	L204,140.5z M189.7,163c0-8,0-15.8,0-23.5c-0.1-0.4-0.4-0.8-0.8-1c-21.1-8.3-43.7-12.4-66.3-12c-11.7,0.2-23.4,1.5-34.9,4.1
	c-8.7,1.9-17.2,4.5-25.5,7.6c-0.9,0.2-1.5,1.1-1.3,2c0,6.9,0,13.8,0,20.7c0,2.1,0,2.1,2.2,2.1h126.7L189.7,163z M218.6,133.8
	c1.3,0,2.5,0,3.8,0c0.8,0,1.2-0.2,1.2-1.1c0-2.4,0-4.9,0-7.3c0-0.9-0.3-1.2-1.2-1.1c-2.5,0-5.1,0-7.6,0c-0.7,0-1.1,0.2-1.1,1
	c0,2.5,0,5,0,7.5c0,0.8,0.3,1.1,1.1,1.1C216.1,133.8,217.3,133.8,218.6,133.8z M46.9,153.1h9.6c0-3,0-6,0-8.9c0-0.2-0.4-0.7-0.6-0.7
	c-3,0-6,0-9,0L46.9,153.1z M46.7,162.6c0-2.9,0-5.7,0-8.5c-0.1-0.4-0.4-0.7-0.8-0.8c-2.7-0.1-5.4-0.1-8.1,0c-0.3,0-0.9,0.5-0.9,0.7
	c0,2.8,0,5.7,0,8.6L46.7,162.6z M26.8,162.6c0-2.9,0-5.7,0-8.5c-0.1-0.4-0.4-0.7-0.8-0.8c-2.7,0-5.5,0-8.3,0
	c-0.3,0.1-0.6,0.4-0.7,0.7c0,2.8,0,5.7,0,8.6L26.8,162.6z M203.5,143.8h-9.1v9.3h9.2L203.5,143.8z M233.5,115h-9.7v9h9.7V115z"/>
<path class="st0" d="M204,140.5c-52.9-23.4-105.4-23.4-158.2,0L32.9,108c61.8-28.1,123.4-28.1,185.3-0.1L204,140.5z M94.6,108.5
	c-0.2-1.4-0.3-3.3-0.8-5.1c-0.4-2.7-2.1-5.1-4.5-6.4c-4.4-1.8-9.4,0.2-11.4,4.5c-2,4.6-2.2,9.9-0.4,14.7c0.4,1.3,1.2,2.5,2.2,3.5
	c3.4,3,8.6,2.6,11.6-0.9c0.2-0.2,0.3-0.4,0.5-0.6C94,115.5,94.3,112.2,94.6,108.5L94.6,108.5z M206.1,114.5
	c-0.1-0.9-0.2-1.7-0.4-2.5c-1.7-4-6.2-6.1-10.4-4.6c-6,2.1-9.3,6.9-11.2,12.7c-1.9,6.1,3.5,11.3,9.8,9.7c4.1-1,6.8-3.9,9.1-7.2
	C204.8,120.2,205.8,117.4,206.1,114.5L206.1,114.5z M179.1,108l4.7-0.5c0.8-0.1,1.5-0.3,1.2-1.3c-0.3-1.3-0.9-2.5-1.7-3.6
	c-3.8-3.8-9.9-3.8-13.7-0.1c-0.2,0.2-0.5,0.5-0.7,0.8c-2.7,3.3-4.5,7.3-5.1,11.5c-0.4,3,0.1,5.7,2.9,7.5c2.4,1.6,5.4,2,8.2,1.2
	c3.8-1,8.1-7.1,8.2-11.5c-2.5-0.6-5.1-1.2-7.6-1.8c-0.4,0-0.7,0.2-0.9,0.6c-0.5,1.2-0.9,2.4-1.3,3.7l2.3,0.8c-0.6,0.9-1,1.9-1.8,2.3
	c-0.8,0.4-1.7,0.5-2.5,0.2c-0.4-0.2-0.8-1.5-0.6-2.1c1-2.9,2.2-5.6,3.5-8.4c0.6-0.9,1.6-1.4,2.7-1.5
	C177.5,105.8,178.2,107,179.1,108L179.1,108z M103.8,118.3c0.2-2.2,0.4-4.3,0.5-6.4c0-1.3,0.4-1.7,1.8-1.9c4.9-0.5,7.9-3,8.5-7.4
	c0.6-4.2-0.7-8.2-5.7-8.4c-3.3-0.1-6.6,0.1-10,0.2L97,118.7L103.8,118.3z M53.6,111.7c-0.5-1.5-1.1-3.1-1.7-4.6
	c-0.3-0.4-0.8-0.6-1.3-0.5c-2,0.6-3.9,1.3-5.7,2.3c-2.4,1.3-3.7,3.9-3.4,6.6c0.3,2.9,2.3,5.4,5.1,6.2c1.2,0.4,2.5,0.6,3.7,1.1
	c1.2,0.4,2.4,1.3,2.3,2.7c-0.1,1.4-1.3,1.9-2.7,2.2c-1.3,0.2-2.3,0.3-3.6,0.4c0.6,1.7,1.2,3.5,1.9,5.1c0.1,0.3,0.7,0.5,1.1,0.5
	c3.2,0.2,8.1-2.8,9.5-5.7c1.7-4.1-0.2-8.8-4.2-10.5c-0.1,0-0.1,0-0.2-0.1c-1.6-0.6-3.2-1-4.7-1.7c-0.6-0.3-1-0.9-1.1-1.6
	c0.1-0.7,0.6-1.2,1.2-1.5C51,112.2,52.3,111.9,53.6,111.7z M58.1,110.5l4-1.3l3.1,17.8c2-0.6,3.9-1.2,5.7-1.9
	c0.4-0.3,0.7-0.8,0.7-1.3c-0.5-3-1.1-6-1.6-9c-0.5-2.6-0.9-5.2-1.3-7.8l3.9-1.3l-1.1-6L57,104.5L58.1,110.5z M142.6,106.1h-0.3
	c-0.3-3.5-0.6-7-1-10.5c0-0.5-0.5-1.3-0.8-1.3c-1.9-0.3-3.8-0.4-5.7-0.6l-5.9,23.8c1.5,0,3,0.2,4.4,0.4c1.3,0.3,1.7-0.3,1.9-1.3
	c0.8-3.3,1.7-6.6,2.6-9.8h0.2l1.3,11.5l6.4,0.7l5.9-23.9c-1.4,0-2.8-0.2-4.2-0.4c-1.5-0.3-1.8,0.3-2.1,1.6
	C144.5,99.6,143.5,102.8,142.6,106.1L142.6,106.1z M160.2,115.6l1.9-5.3l-9.8-1.7l-1.9,5.3L160.2,115.6z M128.1,106.3
	c-3-0.1-5.9-0.3-8.8-0.3c-0.5,0.1-0.9,0.3-1.1,0.7c-0.4,1.5-0.6,3.1-1,5c3.1,0,6.1,0,9,0c0.4,0,1-0.4,1.1-0.7
	C127.6,109.5,127.8,107.9,128.1,106.3L128.1,106.3z"/>
<path class="st0" d="M233.5,133.9c0-2.7,0.1-5.5,0-8.2c0-1.1,0.3-1.5,1.5-1.5c2.3,0.1,4.7,0,7,0c1,0,1.5,0.2,1.4,1.3
	c-0.1,2.7,0,5.5,0,8.3L233.5,133.9L233.5,133.9z"/>
<path class="st0" d="M213.5,153.1v9.7c-3,0-6.1,0-9.1,0c-0.3,0-0.7-0.6-0.7-0.9c0-2.6-0.1-5.2,0-7.8c0-0.3,0.8-0.8,1.2-0.8
	c2.3-0.1,4.7,0,7,0c0.5,0,1.1-0.1,1.7-0.1L213.5,153.1z"/>
<path class="st0" d="M218.6,133.8c-1.3,0-2.5,0-3.8,0c-0.8,0-1.1-0.3-1.1-1.1c0-2.5,0-5,0-7.5c0-0.8,0.4-1,1.1-1c2.5,0,5.1,0,7.6,0
	c0.9,0,1.2,0.3,1.2,1.1c0,2.4,0,4.9,0,7.3c0,0.9-0.4,1.1-1.2,1.1C221.1,133.8,219.9,133.8,218.6,133.8z"/>
<path class="st0" d="M223.7,143.7v-9.8h9.8l0,0c0,3.3,0,6.6,0,9.9l0,0L223.7,143.7L223.7,143.7z"/>
<path class="st0" d="M27,143.4h9.7l0,0v9.8H27C27,149.9,27,146.7,27,143.4L27,143.4z"/>
<path class="st0" d="M233.5,153.2v9.6h-9.7c0-3.2,0-6.4,0-9.6l0,0h9.8H233.5z"/>
<path class="st0" d="M233.5,143.7h9.9v9.4h-9.9l0,0V143.7L233.5,143.7z"/>
<path class="st0" d="M16.8,143.4v9.7H7.2c0-1.9,0-3.7,0-5.7c0-3.9,0-3.9,3.9-3.9C13,143.5,14.9,143.5,16.8,143.4L16.8,143.4z"/>
<path class="st0" d="M16.8,143.4l0.1-9.5l0,0H27l0,0c0,3.2,0,6.4,0,9.5l0,0L16.8,143.4L16.8,143.4z"/>
<path class="st0" d="M213.6,143.8h10.2l0,0v9.5l0,0h-10.3l0,0C213.5,150.2,213.5,147,213.6,143.8L213.6,143.8z"/>
<path class="st0" d="M46.9,153.1v-9.6c3,0,6,0,9,0c0.2,0,0.6,0.4,0.6,0.7c0,2.9,0,5.9,0,8.9L46.9,153.1z"/>
<path class="st0" d="M16.9,133.9c-2.7,0-5.5-0.1-8.2-0.1c-1.1,0-1.5-0.3-1.5-1.4c0.1-2.3,0-4.6,0-6.9c0-1,0.3-1.3,1.3-1.3
	c2.8,0,5.6,0,8.4,0l0,0v9.8L16.9,133.9z"/>
<path class="st0" d="M26.9,124.2c2.8,0,5.6,0.1,8.4,0c1,0,1.3,0.3,1.3,1.3c-0.1,2.3-0.1,4.7,0,7c0,1-0.4,1.3-1.3,1.3
	c-2.8,0-5.6,0-8.4,0.1l0,0V124.2L26.9,124.2z"/>
<path class="st0" d="M16.9,124.2c0-2.7,0.1-5.3,0.1-8.1c0-1,0.3-1.3,1.3-1.3c2.4,0.1,4.9,0.1,7.3,0c1,0,1.3,0.4,1.3,1.3
	c0,2.7,0,5.3,0.1,8.1l0,0H16.9L16.9,124.2z"/>
<path class="st0" d="M46.7,162.6h-9.9c0-2.9,0-5.7,0-8.6c0-0.3,0.6-0.7,0.9-0.7c2.7-0.1,5.4-0.1,8.1,0c0.4,0.1,0.7,0.4,0.8,0.8
	C46.8,156.9,46.7,159.7,46.7,162.6z"/>
<path class="st0" d="M26.8,162.6H17c0-2.9,0-5.7,0-8.6c0.1-0.3,0.4-0.6,0.7-0.7c2.7,0,5.5,0,8.3,0c0.4,0.1,0.7,0.4,0.8,0.8
	C26.9,156.9,26.8,159.7,26.8,162.6z"/>
<path class="st0" d="M203.5,143.7v9.3h-9.1v-9.3H203.5z"/>
<path class="st0" d="M233.5,115v9h-9.7v-9H233.5z"/>
<path class="st0" d="M213.6,143.7H205c1.5-3.4,2.7-6.4,4.1-9.3c0.1-0.3,0.7-0.5,1.1-0.5c1.1-0.1,2.1,0,3.4,0
	C213.6,137.2,213.6,140.6,213.6,143.7L213.6,143.7z"/>
<path class="st0" d="M36.7,143.4c0-2.5,0.1-5.1,0.1-7.6c0-0.6,0-1.2,0-1.8c3.8-0.4,3.8-0.4,5.1,2.8c0.8,2.1,1.7,4.2,2.5,6.6
	L36.7,143.4L36.7,143.4z"/>
<path class="st1" d="M206.1,114.4c-0.2,2.9-1.3,5.7-3.1,8c-2.3,3.3-5,6.2-9.1,7.2c-6.2,1.6-11.7-3.6-9.8-9.7
	c1.8-5.7,5.1-10.5,11.2-12.7c4.1-1.5,8.7,0.6,10.4,4.6C205.8,112.7,206,113.6,206.1,114.4z M199.5,114.2c-0.3-0.5-0.6-1.3-0.9-1.3
	c-0.8-0.1-1.6,0-2.4,0.4c-2.5,2.3-4.5,5.2-5.7,8.4c-0.2,0.7,0,1.5,0.4,2.1c0.7,0.3,1.5,0.2,2.1-0.2c1.5-1.6,3-3.3,4.2-5.1
	C198.2,117,198.9,115.6,199.5,114.2L199.5,114.2z"/>
<path class="st1" d="M179.1,108c-0.9-1-1.6-2.2-2.2-2.1c-1.1,0.1-2.1,0.6-2.7,1.5c-1.3,2.7-2.5,5.5-3.5,8.3
	c-0.2,0.6,0.1,1.9,0.6,2.1c0.8,0.3,1.7,0.2,2.5-0.2c0.7-0.5,1.1-1.4,1.8-2.3l-2.3-0.8c0.4-1.2,0.8-2.5,1.3-3.7
	c0.2-0.3,0.5-0.5,0.9-0.6c2.6,0.6,5.1,1.2,7.6,1.8c-0.1,4.4-4.4,10.5-8.2,11.5c-2.8,0.8-5.8,0.4-8.2-1.2c-2.7-1.7-3.3-4.5-2.9-7.5
	c0.6-4.2,2.4-8.2,5.1-11.5c3.4-4.2,9.5-4.8,13.6-1.4c0.3,0.2,0.5,0.4,0.8,0.7c0.8,1.1,1.4,2.3,1.7,3.6c0.3,0.9-0.4,1.2-1.2,1.3
	L179.1,108z"/>
<path class="st2" d="M94.6,108.4c-0.3,3.8-0.6,7-2.8,9.8c-2.6,3.7-7.8,4.6-11.5,2c-0.2-0.2-0.5-0.3-0.7-0.5c-1-1-1.8-2.2-2.2-3.6
	c-1.8-4.8-1.6-10,0.4-14.7c2-4.3,7.1-6.3,11.5-4.4c2.4,1.3,4.1,3.6,4.5,6.4C94.3,105.1,94.3,107,94.6,108.4z M83.1,107.8h0.1
	c0,0.4,0,0.9,0,1.3c0.1,1.6,0.4,3.1,0.7,4.7c0.2,0.7,1,1.2,1.6,1.7c0.6-0.6,1.2-1.2,1.8-1.8c0.1-0.2,0.2-0.4,0.2-0.6
	c-0.2-3.1-0.4-6.3-0.7-9.3c0-0.6-1.1-1.5-1.5-1.4c-0.8,0.3-1.4,0.9-1.7,1.6C83.3,105.3,83.1,106.6,83.1,107.8L83.1,107.8z"/>
<path class="st2" d="M103.8,118.2l-6.8,0.5l1.8-24.3c3.5-0.1,6.7-0.4,10-0.2c5,0.2,6.3,4.2,5.7,8.4c-0.6,4.4-3.6,6.9-8.5,7.4
	c-1.3,0.1-1.7,0.6-1.8,1.9C104.2,113.9,104,116,103.8,118.2z M104.9,104.5c2.7,0.7,4-2.2,3-4.2c-0.3-0.5-1.2-0.7-1.9-0.9
	c-0.2,0-0.7,0.4-0.7,0.7C105.1,101.5,105,103,104.9,104.5z"/>
<path class="st2" d="M53.6,111.7c-1.3,0.2-2.6,0.5-3.9,0.9c-0.6,0.3-1.1,0.9-1.2,1.5c0.1,0.7,0.5,1.3,1.1,1.6
	c1.5,0.7,3.2,1.1,4.7,1.7c4.1,1.7,6.1,6.3,4.4,10.4c0,0,0,0.1-0.1,0.1c-1.3,2.9-6.3,5.9-9.5,5.7c-0.4,0-1-0.3-1.1-0.5
	c-0.7-1.7-1.2-3.4-1.9-5.1c1.3-0.1,2.5-0.2,3.6-0.4c1.1-0.2,2.5-0.8,2.7-2.2s-1-2.3-2.3-2.7c-1.2-0.4-2.4-0.7-3.7-1.1
	c-2.8-0.8-4.9-3.2-5.1-6.2c-0.3-2.7,1-5.3,3.4-6.6c1.8-1,3.7-1.8,5.7-2.3c0.5-0.1,1,0.1,1.3,0.5C52.6,108.6,53.1,110.1,53.6,111.7z"
	/>
<path class="st2" d="M58.1,110.5l-1.1-6.1l14.3-4.7l1.1,6l-3.9,1.3c0.5,2.6,0.9,5.2,1.3,7.8c0.5,3,1.1,6,1.6,9c0,0.5-0.2,1-0.7,1.3
	c-1.8,0.7-3.6,1.2-5.7,1.9L62,109.3L58.1,110.5z"/>
<path d="M142.6,106.1c0.9-3.3,1.8-6.5,2.7-9.8c0.3-1.3,0.6-1.9,2.1-1.6c1.4,0.2,2.8,0.3,4.2,0.4l-5.9,23.9l-6.4-0.7l-1.3-11.5h-0.2
	c-0.9,3.3-1.8,6.5-2.6,9.8c-0.3,1.1-0.6,1.6-1.9,1.3c-1.5-0.2-2.9-0.4-4.4-0.4l5.9-23.8c1.9,0.2,3.8,0.3,5.7,0.6
	c0.3,0,0.8,0.9,0.8,1.3c0.4,3.5,0.7,7,1,10.5L142.6,106.1z M138.1,100.7h0.4l1.7,16.5c1.1,0,2.2,0.1,3.2,0.3c1,0.2,1.3-0.2,1.5-1
	c0.5-2,1-4,1.5-6.1l3.6-14.4c-0.8,0-1.6-0.1-2.4-0.2c-1-0.3-1.3,0.1-1.5,1c-0.5,2.3-1.2,4.6-1.8,6.9c-0.8,2.9-1.6,5.8-2.4,8.7
	c-0.7-4.7-1.2-9.3-1.5-14.1c-0.2-3.2-0.2-3.2-3.5-3.4c-1.2-0.1-1.5,0.3-1.7,1.3c-0.1,0.7-0.3,1.3-0.5,1.9l-4.5,17.9
	c2.8,1.3,3.5,0.9,4.2-1.8c0.2-0.9,0.5-1.8,0.7-2.7L138.1,100.7z"/>
<path d="M160.2,115.6l-9.8-1.7l1.9-5.3l9.8,1.7L160.2,115.6z M160.4,111.1l-7.3-1.2l-1.1,3.2l7.3,1.2L160.4,111.1z"/>
<path d="M128,106.3c-0.3,1.7-0.4,3.2-0.8,4.7c-0.1,0.3-0.7,0.7-1.1,0.7c-2.9,0-5.9,0-9,0c0.4-2,0.6-3.5,1-5c0.2-0.4,0.6-0.7,1.1-0.7
	C122.1,106,125,106.1,128,106.3z M118.8,110.3c2.3,0.1,4.5,0.2,6.7,0.3c0.4,0,0.7-0.3,0.9-0.6c0.2-0.8,0.3-1.7,0.4-2.6
	c-1.6-0.1-3-0.3-4.5-0.3c-0.7-0.1-1.4-0.1-2.1,0c-0.4,0.1-0.7,0.3-0.9,0.6C119.1,108.5,118.9,109.4,118.8,110.3L118.8,110.3z"/>
<path d="M86.3,137.3c-3.2-1.3-5.1-1.3-6.4,0.3c-1.1,1.5-1.1,3.6-0.1,5.1c2,2.3,4.3,1.3,6.5,0.3c0.8,2.7,0.2,3.2-3.3,3.5
	c-3.1,0.2-5.9-1.9-6.7-4.9c-0.8-3.3,1.2-6.6,4.5-7.4c0,0,0.1,0,0.1,0c1.7-0.3,3.4-0.1,5,0.4c0.5,0.1,0.6,1.6,0.9,2.5L86.3,137.3z"/>
<path d="M110.6,152.1c-2.8-1.3-4.8-1.3-6.1,0.1c-1.2,1.5-1.4,3.7-0.4,5.3c1,1.7,2.3,1.8,6.6,0.6c0.4,2.5,0,3-2.4,3.3
	c-3.2,0.6-6.3-1.2-7.4-4.3c-1-3.1,0.5-6.6,3.5-7.8c1.9-0.8,4-0.7,5.8,0.2c0.6,0.3,0.6,1.6,0.9,2.4L110.6,152.1z"/>
<path d="M119.4,143c0.9,1.6,1.8,1.7,3.6,0.3l1.7,0.9c-0.9,1.9-3,2.8-4.9,2.3c-1.9-0.5-3.3-2.3-3.2-4.3c0-2,1.4-3.7,3.3-4.2
	c2.2-0.6,4.5,0.8,5.1,3c0,0.2,0.1,0.4,0.1,0.6c0.1,1-0.1,1.6-1.3,1.5C122.4,143,121,143,119.4,143z M122.5,141.1
	c-1.3-1.4-2.1-1.3-3.1,0H122.5z"/>
<path d="M115.1,157.7c0.2,1,1.2,1.5,2.1,1.3c0.1,0,0.3-0.1,0.4-0.2c1.4-0.6,1.4-0.6,2.7,0.3c-1.2,2.1-3.8,2.9-5.9,1.7
	c-0.1-0.1-0.2-0.1-0.3-0.2c-1.9-1.5-2.3-4.2-1-6.3c1.4-1.9,4.2-2.4,6.1-0.9c0.1,0.1,0.1,0.1,0.2,0.2c0.7,0.9,1.1,2,1.3,3.1
	c0,0.2-0.7,0.9-1.1,0.9C118.1,157.8,116.6,157.7,115.1,157.7z M118.1,155.9c-1.2-1.4-2-1.4-2.9,0H118.1z"/>
<path d="M139.7,157.7c0.6,1.7,1.8,1.6,2.7,1.1c1.2-0.7,1.9-0.3,2.7,0.3c-0.8,1.8-2.9,2.7-4.8,2.1c-1.8-0.3-3.1-1.9-3.1-3.8
	c-0.3-2,1-4,2.9-4.6c2.2-0.8,4.5,0.3,5.3,2.5c0.1,0.3,0.2,0.7,0.2,1.1c0.1,0.9-0.1,1.3-1.1,1.3C142.9,157.7,141.4,157.7,139.7,157.7
	z M139.7,155.9h3.1C141.8,154.6,141.2,154.5,139.7,155.9L139.7,155.9z"/>
<path d="M176.5,143h-5.6c0.2,0.9,1.1,1.5,2,1.3c0.2,0,0.4-0.1,0.6-0.2c1.3-0.7,1.3-0.7,2.7,0.3c-1.1,2.1-3.6,2.9-5.7,1.9
	c-2.1-1-3-3.4-2.1-5.6c0.8-2.1,3-3.3,5.1-2.7C175.6,138.3,176.8,140.3,176.5,143z M173.7,141.2l0.2-0.5c-0.5-0.3-1-0.5-1.6-0.5
	c-0.5,0.1-1,0.4-1.5,0.7l0.2,0.3L173.7,141.2z"/>
<path d="M149.2,143h-5.5c0.6,1.5,1.7,1.7,2.5,1c1.2-0.9,1.9-0.4,2.8,0.2c-0.9,2-3.3,2.9-5.3,2.1c-2.1-1-3.2-3.3-2.5-5.6
	c0.7-2.2,3.1-3.5,5.3-2.9C148.6,138.6,149.8,140.9,149.2,143z M143.8,141.1h2.9C145.6,139.7,144.7,139.7,143.8,141.1L143.8,141.1z"
	/>
<path d="M92.4,137.8c2.4-0.1,4.5,1.7,4.6,4.1c0,0.1,0,0.2,0,0.4c0,2.5-2.1,4.4-4.5,4.4c-2.4,0-4.4-1.9-4.5-4.3
	c-0.1-2.4,1.7-4.5,4.1-4.6C92.2,137.9,92.3,137.8,92.4,137.8z M92.6,140.3c-1-0.1-1.9,0.6-2,1.6c0,0.2,0,0.3,0,0.5
	c0,1,0.7,1.8,1.7,1.8c0.1,0,0.1,0,0.2,0c1,0.1,1.9-0.7,1.9-1.7c0-0.1,0-0.2,0-0.3c0.1-0.9-0.6-1.8-1.5-1.9
	C92.7,140.3,92.6,140.3,92.6,140.3L92.6,140.3z"/>
<path d="M126.5,137.9c1.1,0.3,1.9,0.5,2.7,0.6c0.3,0,0.6-0.1,0.9-0.2c2.7-1.3,4.7-0.2,4.9,2.7c0.1,1.3,0,2.7,0,4.1
	c0,1-0.5,1.2-1.3,1.2c-0.9,0-1.3-0.1-1.3-1.2c0-1.2,0-2.4,0-3.7c0-0.8-0.2-1.5-1.3-1.5c-0.9-0.1-1.6,0.5-1.7,1.4c0,0.1,0,0.1,0,0.2
	c-0.1,1.2-0.1,2.3,0,3.5c0,1-0.4,1.3-1.3,1.3s-1.3-0.2-1.3-1.2C126.5,142.9,126.5,140.7,126.5,137.9z"/>
<path d="M98.6,138l3,0.5c0.6-0.3,1.1-0.5,1.7-0.6c1.5-0.3,3,0.6,3.3,2.1c0,0.2,0.1,0.4,0.1,0.6c0.1,1.6,0,3.3,0,4.9c0,1-0.6,1-1.3,1
	s-1.3,0-1.3-1c0-1.2,0-2.4,0-3.7c0-0.8-0.1-1.7-1.3-1.7c-0.9-0.1-1.7,0.6-1.7,1.4c0,0.1,0,0.2,0,0.3c0,1.5,0,2.9,0,4.5h-2.4
	L98.6,138z"/>
<path d="M130.4,160.9c-2.3,0.4-2.4,0.3-2.5-1.7c0.1-0.9,0-1.8-0.1-2.7c-0.2-0.6-0.8-1.1-1.2-1.7c-0.6,0.5-1.5,0.9-1.7,1.6
	c-0.2,1.2-0.2,2.3-0.1,3.5c0,0.9-0.3,1.3-1.3,1.3s-1.5-0.2-1.4-1.3c0-1.7,0-3.5,0-5.2c0-0.6,0.2-1.5,0.4-1.6c0.8-0.1,1.5,0,2.3,0.1
	c1.2-0.2,2.3-0.3,3.5-0.3c1.2,0.1,2.1,1.1,2,2.3c0,0.1,0,0.1,0,0.2C130.4,157.2,130.4,159,130.4,160.9z"/>
<path d="M153.6,138.7c0.6-0.3,1.3-0.6,1.9-0.8c1.5-0.4,3,0.4,3.5,1.9c0.1,0.3,0.1,0.5,0.1,0.8c0.1,1.4,0,2.9,0,4.3
	c0,0.4,0,0.8,0,1.3l-2.5,0.1c0-1.7,0.1-3.2,0-4.7c-0.1-1.5-1.1-2.2-2-1.5c-0.6,0.6-1,1.4-1.1,2.3c-0.1,1.3-0.1,2.5,0,3.8h-2.4V138
	l2.7,0.3L153.6,138.7z"/>
<path d="M107.4,138.3c2.8-0.3,2.8-0.3,3.5,2c0.3,0.9,0.6,1.7,0.9,2.7l1-2.7c0.8-2.3,0.8-2.3,3.5-1.9c-1,2.5-2,5-3.1,7.5
	c-0.2,0.4-1,0.6-1.5,0.6c-0.6,0-1.1-0.3-1.4-0.8C109.3,143.2,108.4,140.8,107.4,138.3z"/>
<path d="M167.4,143.3c-0.3,1.2-0.2,2.4-0.7,2.8c-1.2,0.8-2.7,0.8-3.9,0c-1.7-1-2.5-2.9-2.1-4.8c0.4-1.8,1.8-3.2,3.6-3.4
	c2.4-0.3,3,0.3,2.7,2.8c-1.3-0.3-2.7-1.1-3.6,0.5c-0.3,0.7-0.2,1.5,0.1,2.2C164.5,144.8,165.8,144.3,167.4,143.3z"/>
<path d="M135.3,161h-2.5c0-1.6,0-3.1,0-4.6c0-0.6,0.2-1.3-0.8-1.5c-0.2-0.6-0.3-1.1-0.2-1.7c1.6-0.4,0.8-1.8,1.2-2.7h2.2
	c0.4,0.9-0.3,2.4,1.2,2.9c0.1,0.4,0.1,0.9-0.1,1.3c-1.5,0.5-0.9,1.6-0.9,2.5C135.3,158.5,135.3,159.7,135.3,161z"/>
<path d="M152.8,152.5c0.1,2,0,3.1-2,2.9c-0.3,0-1,0.9-1.1,1.5c-0.1,1-0.1,2,0,3c0,1-0.5,1.1-1.3,1.1c-0.8,0-1.3-0.2-1.3-1.2
	c0-1.8,0-3.6,0-5.3c0-0.5,0.2-1.5,0.5-1.5c0.8-0.1,1.5,0,2.2,0.3L152.8,152.5z"/>
<path d="M139.2,146.3h-2.3v-8h2.3V146.3z"/>
<path d="M138.1,133c0.7,0.9,1.5,1.5,1.4,2c-0.1,0.5-0.9,1-1.4,1.5c-0.5-0.5-1.3-1-1.3-1.5S137.4,133.9,138.1,133z"/>
<path d="M223.7,153.2v-9.5h9.8v9.5L223.7,153.2z"/>
<path d="M16.8,124.1H27v9.8H16.8V124.1z"/>
<path class="st0" d="M83.1,107.8c0-1.3,0.2-2.5,0.5-3.7c0.3-0.8,0.9-1.4,1.7-1.6c0.4-0.1,1.5,0.9,1.5,1.4c0.4,3.1,0.5,6.2,0.7,9.3
	c0,0.2,0,0.4-0.2,0.6c-0.6,0.6-1.2,1.2-1.8,1.8c-0.5-0.6-1.4-1.1-1.6-1.7c-0.3-1.5-0.6-3.1-0.7-4.7c0-0.4,0-0.9,0-1.3L83.1,107.8z"
	/>
<path class="st0" d="M199.5,114.2c-0.6,1.5-1.3,2.9-2.1,4.2c-1.3,1.8-2.7,3.5-4.2,5.1c-0.6,0.4-1.4,0.5-2.1,0.2
	c-0.5-0.6-0.7-1.3-0.4-2.1c1.2-3.2,3.1-6.1,5.7-8.4c0.7-0.4,1.6-0.5,2.4-0.4C198.9,113,199.2,113.7,199.5,114.2z"/>
<path class="st0" d="M104.9,104.5c0.1-1.5,0.2-3,0.4-4.4c0-0.3,0.5-0.8,0.7-0.7c0.7,0.2,1.7,0.4,1.9,0.9
	C108.9,102.3,107.6,105.1,104.9,104.5z"/>
<path class="st3" d="M189.7,163H63c-2.1,0-2.2,0-2.2-2.1c0-6.9,0-13.8,0-20.7c-0.1-0.9,0.4-1.8,1.3-2c8.3-3.1,16.8-5.7,25.5-7.6
	c25-5.6,51-5.5,76,0.2c8.5,1.9,16.9,4.5,25,7.7c0.4,0.2,0.7,0.6,0.8,1C189.7,147.2,189.7,155,189.7,163z M86.3,137.3l0.5-0.2
	c-0.3-0.9-0.4-2.4-0.9-2.5c-1.6-0.5-3.4-0.7-5-0.4c-3.3,0.7-5.4,4-4.7,7.3c0,0.1,0,0.1,0,0.2c0.8,3,3.6,5.1,6.7,4.9
	c3.5-0.3,4-0.9,3.3-3.5c-2.2,1.1-4.5,1.9-6.5-0.3c-1-1.6-0.9-3.6,0.1-5.1C81.2,136,83.2,135.9,86.3,137.3z M110.6,152.1l0.5-0.2
	c-0.3-0.8-0.3-2.1-0.9-2.4c-1.8-0.9-3.9-1-5.8-0.2c-3,1.3-4.6,4.7-3.5,7.8c1.1,3.1,4.2,4.9,7.4,4.3c2.4-0.4,2.7-0.9,2.4-3.3
	c-4.3,1.2-5.5,1.1-6.6-0.6c-1-1.7-0.8-3.8,0.4-5.3C105.8,150.8,107.8,150.8,110.6,152.1L110.6,152.1z M119.4,143c1.6,0,3.1,0,4.5,0
	c1.2,0,1.3-0.5,1.3-1.5c-0.3-2.3-2.3-4-4.6-3.7c-0.2,0-0.4,0.1-0.6,0.1c-1.9,0.5-3.3,2.2-3.3,4.2c-0.1,2,1.2,3.8,3.2,4.3
	c2,0.6,4.1-0.4,4.9-2.3l-1.7-0.9C121.1,144.7,120.2,144.7,119.4,143L119.4,143z M115.1,157.7c1.6,0,3.1,0.1,4.6,0
	c0.4,0,1.2-0.7,1.1-0.9c-0.2-1.1-0.7-2.2-1.3-3.1c-1.9-1.5-4.6-1.3-6.2,0.6c-0.1,0.1-0.1,0.1-0.2,0.2c-1.4,2-0.9,4.8,1,6.3
	c2,1.4,4.7,0.8,6.1-1.2c0.1-0.1,0.1-0.2,0.2-0.3c-1.3-0.9-1.3-0.9-2.7-0.3c-0.8,0.5-1.9,0.3-2.4-0.6
	C115.2,158.1,115.1,157.9,115.1,157.7L115.1,157.7z M139.7,157.7c1.8,0,3.3,0,4.8,0c1,0,1.2-0.4,1.1-1.3c-0.2-2.3-2.2-4-4.5-3.8
	c-0.4,0-0.7,0.1-1.1,0.2c-2,0.7-3.2,2.6-2.9,4.6c0,1.9,1.3,3.4,3.1,3.8c1.9,0.6,4-0.3,4.8-2.1c-0.8-0.6-1.5-1.1-2.7-0.3
	C141.5,159.4,140.3,159.4,139.7,157.7L139.7,157.7z M176.5,143c0.3-2.7-0.9-4.6-3-5.1c-2.1-0.6-4.4,0.6-5.1,2.7
	c-0.9,2.1,0.1,4.6,2.1,5.6c2.1,1,4.6,0.2,5.7-1.9c-1.3-0.9-1.3-0.9-2.7-0.3c-0.8,0.5-1.8,0.3-2.3-0.5c-0.1-0.2-0.2-0.4-0.2-0.6
	L176.5,143z M149.2,143c0.6-2.1-0.6-4.4-2.7-5.1c-2.3-0.6-4.6,0.6-5.3,2.9c-0.7,2.2,0.4,4.6,2.5,5.6c2.1,0.8,4.4-0.1,5.3-2.1
	c-0.9-0.6-1.6-1.2-2.8-0.2c-0.8,0.6-1.9,0.5-2.5-1L149.2,143z M92.4,137.8c-2.4,0-4.4,1.9-4.5,4.3c0,0.1,0,0.2,0,0.3
	c0.2,2.4,2.1,4.3,4.5,4.3c2.5,0,4.5-1.9,4.6-4.4c0.1-2.4-1.9-4.4-4.3-4.5C92.6,137.8,92.5,137.8,92.4,137.8L92.4,137.8z
	 M126.5,137.9c0,2.7,0,5,0,7.3c0,1,0.4,1.2,1.3,1.2c0.9,0,1.4-0.3,1.3-1.3c-0.1-1.2-0.1-2.3,0-3.5c0-0.9,0.7-1.6,1.6-1.6
	c0.1,0,0.1,0,0.2,0c1.1,0,1.3,0.7,1.3,1.5c0,1.2,0.1,2.4,0,3.7c0,1,0.5,1.1,1.3,1.2c0.8,0,1.3-0.2,1.3-1.2c0-1.3,0-2.8,0-4.1
	c-0.2-2.9-2.2-4-4.9-2.7c-0.3,0.1-0.6,0.2-0.9,0.2C128.3,138.4,127.6,138.2,126.5,137.9L126.5,137.9z M98.6,138v8.3h2.4
	c0-1.6,0-3.1,0-4.5c-0.1-0.9,0.6-1.6,1.5-1.7c0.1,0,0.2,0,0.3,0c1.2,0,1.3,0.8,1.3,1.7c0,1.2,0,2.4,0,3.7c0,1,0.6,1,1.3,1
	s1.3,0,1.3-1c0-1.6,0.1-3.3,0-4.9c0-1.5-1.3-2.8-2.8-2.7c-0.2,0-0.4,0-0.6,0.1c-0.6,0.1-1.2,0.4-1.7,0.6L98.6,138z M130.4,160.9
	c0-1.9,0-3.7,0-5.5c0.2-1.2-0.6-2.3-1.8-2.4c-0.1,0-0.1,0-0.2,0c-1.2,0-2.4,0.1-3.5,0.3c-0.8-0.1-1.5-0.2-2.3-0.1
	c-0.2,0-0.4,1-0.4,1.6c0,1.7,0,3.5,0,5.2c0,1.1,0.5,1.2,1.4,1.3c0.9,0,1.3-0.3,1.3-1.3c-0.1-1.2-0.1-2.3,0.1-3.5
	c0.2-0.6,1.1-1,1.7-1.6c0.4,0.5,1,1,1.2,1.7c0.1,0.9,0.2,1.8,0.1,2.7C128,161.2,128.1,161.3,130.4,160.9L130.4,160.9z M153.7,138.7
	v-0.3l-2.7-0.3v8.2h2.4c-0.1-1.3-0.1-2.5,0-3.8c0.1-0.9,0.5-1.7,1.1-2.3c0.9-0.7,1.9,0,2,1.5s0,3,0,4.7l2.5-0.1c0-0.6,0-1,0-1.3
	c0-1.4,0-2.9,0-4.3c0-1.5-1.2-2.8-2.8-2.8c-0.3,0-0.5,0-0.8,0.1C154.9,138.2,154.2,138.4,153.7,138.7L153.7,138.7z M107.4,138.3
	c1,2.5,1.9,4.9,3,7.3c0.3,0.5,0.8,0.7,1.4,0.8c0.5,0,1.3-0.2,1.5-0.6c1.1-2.4,2.1-4.9,3.1-7.5c-2.7-0.3-2.7-0.3-3.5,1.9l-1,2.7
	c-0.3-1-0.7-1.8-0.9-2.7C110.1,138,110.1,138,107.4,138.3L107.4,138.3z M167.4,143.3c-1.6,0.9-2.9,1.4-3.8,0.1
	c-0.4-0.7-0.4-1.5-0.1-2.2c0.9-1.6,2.3-0.8,3.6-0.5c0.2-2.5-0.4-3.1-2.7-2.8c-1.8,0.3-3.3,1.6-3.6,3.4c-0.4,1.9,0.4,3.8,2.1,4.8
	c1.2,0.8,2.7,0.8,3.9,0C167.2,145.8,167.1,144.6,167.4,143.3L167.4,143.3z M135.4,161c0-1.3,0-2.5,0-3.7c0-0.9-0.6-2.1,0.9-2.5
	c0.2-0.4,0.2-0.9,0.1-1.3c-1.5-0.6-0.8-2-1.2-2.9H133c-0.4,1,0.4,2.3-1.2,2.7c-0.1,0.6,0,1.2,0.2,1.7c1.1,0.2,0.8,0.9,0.8,1.5
	c0,1.5,0,3,0,4.6L135.4,161z M152.9,152.5l-3.1,0.9c-0.7-0.3-1.5-0.4-2.2-0.3c-0.3,0-0.5,1-0.5,1.5c0,1.8,0,3.5,0,5.3
	c0,1,0.5,1.2,1.3,1.2c0.9,0,1.3-0.1,1.3-1.1c-0.1-1-0.1-2,0-3c0.1-0.6,0.8-1.5,1.1-1.5C152.8,155.7,153,154.6,152.9,152.5
	L152.9,152.5z M139.2,146.3v-8h-2.3v8H139.2z M138.1,133c-0.7,0.9-1.4,1.5-1.3,2c0.1,0.5,0.9,1,1.3,1.5c0.5-0.5,1.3-1,1.4-1.5
	C139.6,134.4,138.7,133.9,138.1,133z"/>
<path class="st3" d="M138.1,100.7l-2.9,11c-0.2,0.9-0.5,1.8-0.7,2.7c-0.7,2.7-1.4,3.1-4.2,1.8l4.5-17.8c0.2-0.6,0.4-1.3,0.5-1.9
	c0.2-1,0.5-1.4,1.7-1.3c3.3,0.2,3.2,0.2,3.5,3.4c0.4,4.7,0.8,9.3,1.5,14.1c0.8-2.9,1.6-5.8,2.4-8.7c0.6-2.3,1.3-4.6,1.8-6.9
	c0.2-0.9,0.5-1.3,1.5-1c0.8,0.2,1.6,0.2,2.4,0.2l-3.6,14.4c-0.5,2-1,4-1.5,6.1c-0.2,0.8-0.5,1.2-1.5,1c-1.1-0.2-2.2-0.3-3.2-0.3
	l-1.7-16.5L138.1,100.7z"/>
<path class="st3" d="M160.4,111.1l-1.1,3.1l-7.3-1.2l1.1-3.2L160.4,111.1z"/>
<path class="st3" d="M118.8,110.3c0.1-0.9,0.2-1.8,0.4-2.7c0.2-0.3,0.5-0.5,0.9-0.6c0.7-0.1,1.4-0.1,2.1,0c1.5,0.1,2.9,0.2,4.5,0.3
	c-0.1,0.9-0.2,1.7-0.4,2.6c-0.2,0.3-0.5,0.5-0.9,0.6C123.2,110.5,121,110.4,118.8,110.3z"/>
<path class="st3" d="M122.5,141.1h-3.1C120.4,139.7,121.2,139.7,122.5,141.1z"/>
<path class="st3" d="M118.1,155.9h-2.9C116.1,154.5,116.9,154.5,118.1,155.9z"/>
<path class="st3" d="M139.7,155.9c1.5-1.3,2.1-1.3,3.1,0H139.7z"/>
<path class="st3" d="M173.7,141.2h-2.7l-0.2-0.3c0.4-0.3,1-0.6,1.5-0.7c0.6,0.1,1.1,0.3,1.6,0.5L173.7,141.2z"/>
<path class="st3" d="M143.8,141.1c0.8-1.3,1.8-1.4,2.9,0H143.8z"/>
<path class="st3" d="M92.6,140.3c0.9,0,1.7,0.7,1.7,1.7c0,0.1,0,0.1,0,0.2c0.1,1-0.6,1.9-1.6,2.1c-0.1,0-0.2,0-0.3,0
	c-1,0.1-1.8-0.7-1.8-1.6c0-0.1,0-0.1,0-0.2c-0.2-1,0.5-2,1.5-2.1C92.3,140.3,92.4,140.3,92.6,140.3z"/>
</svg>
