<svg id="svg" xmlns="http://www.w3.org/2000/svg" viewBox="0 0 250 250"><defs><style>.cls-1{fill:#4471b1;}.cls-2{fill:#b70629;}.cls-3{fill:#fdfdfd;}</style></defs><title>Stripes</title><path class="cls-1" d="M94.47,107.33c-.39,1.41,0,2.07,1.61,2,3-.06,6,0,9,0,1.18,0,1.69-.4,1.56-1.57,0-.07,0-.14,0-.21-.12-7.46.14-6,6.4-6.19,1.86-.06,3.92.68,5.46-1.07.07.42.18.8.71.88,1.7.25,2.19,1.31,2.09,2.93a42.91,42.91,0,0,0,0,5.21c.07,1.21.29,2.25,2,1.27a16.71,16.71,0,0,1,9.39-1.87c3.59.9,7,2.13,9.51,5.06.55.64,1,.5,1.53-.07a25.37,25.37,0,0,1,5.41-4c1.69.35,3.06-.83,4.68-1a16.41,16.41,0,0,1,11.58,3.76c.74.56,1.2.55,1.77,0a36.38,36.38,0,0,1,4.61-3c2.89-.32,5.74-.91,8.7-.46,7.45,1.12,12.23,7.15,11.42,14.63a6.73,6.73,0,0,0,0,2.06c1.4,7.26-2.58,13-9.94,14.46a5.36,5.36,0,0,0-2.38.68,1.9,1.9,0,0,0-1.63-.72,13.16,13.16,0,0,1-9.88-2.71,2.68,2.68,0,0,0-3.35,0c-2.2,1.4-4.46,2.86-7.2,3.09-5,.54-9.25-1.32-13.33-3.88a1.32,1.32,0,0,0-1.93-.56,12.75,12.75,0,0,0-2.77,1.73,12.14,12.14,0,0,1-7,2.6c-3.26.16-3-.27-3,3.07,0,.42,0,.83,0,1.25.08,2,.21,3.4-2.86,3.62a49.62,49.62,0,0,1-9.85-.08,2.28,2.28,0,0,1-2.28-2.43,9,9,0,0,0-.3-1.62,3.64,3.64,0,0,0,.57-1.51c.16-2.61.17-2.65-2.48-2.65-3.18,0-6.36,0-9.54,0a2.79,2.79,0,0,0-2.1.63,7.33,7.33,0,0,0-2.36-.51c-4.06-.29-8.49.95-12.07-1.49-2.55-1.74-4.35-1-6.43.3a1.16,1.16,0,0,1-.41.08l0,.18-.18,0h.08c-7,2.56-14,1.28-18.33-3.56a11.32,11.32,0,0,1-2.55-11.66,2.56,2.56,0,0,0,.2-1.41c-1.41-6.33,3.1-12.39,10.47-13.56a14,14,0,0,0,1.78-.53,34.83,34.83,0,0,1,8.34,1.63c.17-1.45.35-2.87.49-4.29s.76-2.33,2.49-2.25c2.7.13,5.41,0,8.12,0C93.88,103.7,94.09,103.88,94.47,107.33ZM125.29,135a8.27,8.27,0,0,0,5,1.5A10.87,10.87,0,0,0,141.59,129c1.8-5.09.08-11.17-4-13.89a11.39,11.39,0,0,0-12.27-.83c-4.23,2.17-6,5.85-6.11,10.44-.08,5.09,0,10.19,0,15.28,0,4.43,0,4.37,4.48,4.3,1.32,0,1.68-.46,1.65-1.7C125.24,140.08,125.29,137.52,125.29,135Zm32.95-7.77h6.7c.72,0,1.31,0,1.49-1,.66-3.78-1.93-9.47-5.29-11.4a11.55,11.55,0,0,0-13,.8,11.88,11.88,0,0,0-4.11,12,11.31,11.31,0,0,0,9.9,8.68c5.53.49,9.23-1.61,11.42-6.1.25-.52.71-1.15-.09-1.64s-5.57.09-6.35.82a5.29,5.29,0,0,1-7.94-.38c-.34-.43-.81-.9-.56-1.48s.87-.26,1.32-.27C153.91,127.17,156.07,127.19,158.23,127.19Zm26.3-6.7c.87-.27,2.4.59,2.87-.49s-.49-2.22-1.22-3.19c-3-4-9.7-4.9-14.44-2.13a6.28,6.28,0,0,0-3.27,6.53c.35,2.86,2.42,4.08,4.76,5a14.81,14.81,0,0,0,2.62.61c1.64.33,3.29.58,4.92,1a1.39,1.39,0,0,1,1.16,1.33,1.38,1.38,0,0,1-1.12,1.35c-1.87.62-4,.85-5.38-.51-1.69-1.64-3.49-1.66-5.51-1.61-2.41.06-2.51.17-1.51,2.45,2.66,6.11,13.17,7.75,17.81,2.78,3.54-3.79,2.27-9-2.65-10.63a26.75,26.75,0,0,0-5.09-1.15,18.06,18.06,0,0,1-2.82-.65,1.14,1.14,0,0,1-1-1,1.11,1.11,0,0,1,.86-1.07c1.63-.57,3.51-.9,4.79.28S183,120.45,184.54,120.48Zm-106-.07c1-.23,2.45.58,2.88-.36s-.47-2.22-1.1-3.22a6,6,0,0,0-1-1.11c-3.48-3.33-10.87-3.48-14.51-.31s-2.82,8.5,1.73,10.3a19.55,19.55,0,0,0,4.44,1.15,12,12,0,0,1,3.86.85A1.66,1.66,0,0,1,76,129.14a1.16,1.16,0,0,1-1,1.22c-1.93.4-4.22.88-5.61-.55-1.93-2-4.09-1.21-6.2-1.41-1-.09-1.19.4-1,1.29a7.22,7.22,0,0,0,3.46,4.77,13.34,13.34,0,0,0,12.84.44,6.36,6.36,0,0,0,3.66-6.72c-.21-2.7-1.78-4.23-4.2-5.15a23.42,23.42,0,0,0-5.25-1.31,8.45,8.45,0,0,1-3-.81c-1.21-.66-1.31-1.49,0-2.1,1.67-.78,3.57-1,4.92.33A4.37,4.37,0,0,0,78.58,120.41Zm8.17-12.18c-.56.69-2.57-1.17-2.58,1.23,0,6.27-.12,12.55.1,18.81a7.49,7.49,0,0,0,5.81,7.3c4,.92,4.46.5,4.32-3.54,0-.93-.11-1.49-1.28-1.67-2.5-.37-3.17-1.23-3.24-3.75-.06-2.09,0-4.18,0-6.27,0-1.06.31-1.44,1.42-1.48,2.89-.09,2.83-.15,2.87-3.17,0-1.37-.27-2.21-1.82-1.94-2,.35-2.62-.49-2.5-2.5C90,108.26,89.87,108.25,86.76,108.23Zm9.69,16.5c0,2.37,0,4.74,0,7.11.09,4.56-.85,3.83,4,4,1.46,0,1.94-.44,1.91-1.91-.09-3.27-.09-6.55,0-9.82s1.92-5.28,4.78-5.24c1.75,0,2.21-.59,2-2.14a7.48,7.48,0,0,1,0-1.67c.18-1.8-1-2.45-2.3-1.91-2.83,1.15-5.67.57-8.51.53-1.43,0-2,.36-1.91,1.87C96.52,118.59,96.45,121.66,96.45,124.73Zm20.61.34h0q0-3.66,0-7.33c0-4.1,0-4-4.11-4-1.49,0-1.9.5-1.88,1.94.07,5.37,0,10.75,0,16.12.05,4.72-1,4,4.23,4.16,1.47,0,1.76-.57,1.73-1.86C117,131.07,117.06,128.07,117.06,125.07Zm-2.83-19c-3.57.07-3.06-.41-3.11,3.1,0,2.34,0,2.25,3.93,2.38,1.71.06,2.13-.51,2-2.12C116.9,105.72,117.59,106.13,114.23,106.09Z"/><path class="cls-2" d="M157.55,140.59c2.74-.24,5-1.69,7.2-3.09a2.68,2.68,0,0,1,3.35,0,13.16,13.16,0,0,0,9.88,2.71,1.9,1.9,0,0,1,1.63.72l-39,39.08c-4.68,4.69-9.39,9.34-14,14.08-1.11,1.14-1.92,1.31-3.1.1-2.76-2.84-5.59-5.61-8.43-8.36-1.25-1.21-.79-2.12.24-3.14q13.64-13.57,27.25-27.18,6.85-6.85,13.64-13.75C156.6,141.3,157.4,141.34,157.55,140.59Z"/><path class="cls-2" d="M94.47,107.33c-.38-3.45-.59-3.63-4.13-3.63-2.71,0-5.42.11-8.12,0-1.73-.08-2.34.73-2.49,2.25s-.32,2.84-.49,4.29a34.83,34.83,0,0,0-8.34-1.63c4.5-4.51,9.08-8.95,13.54-13.48,6.13-6.23,12.32-12.38,18.46-18.59,6.77-6.85,13.64-13.6,20.39-20.46,1.34-1.36,2.23-1.44,3.56,0,2.58,2.74,5.27,5.39,8,8,1.15,1.1,1.27,1.84,0,3.05q-15.44,15.34-30.76,30.81C101,101.09,97.89,104.39,94.47,107.33Z"/><path class="cls-2" d="M132.72,108.77a16.71,16.71,0,0,0-9.39,1.87c-1.75,1-2-.06-2-1.27a42.91,42.91,0,0,1,0-5.21c.1-1.62-.39-2.68-2.09-2.93-.53-.08-.64-.45-.71-.88l23.24-23.28a21.11,21.11,0,0,0,1.89-1.82,1.47,1.47,0,0,1,2.37,0q4.49,4.53,9,9c1.23,1.22.24,2-.55,2.76l-21.16,21.15C133.09,108.35,132.91,108.57,132.72,108.77Z"/><path class="cls-2" d="M114.29,144.28a9,9,0,0,1,.3,1.62,2.28,2.28,0,0,0,2.28,2.43,49.62,49.62,0,0,0,9.85.08c3.07-.22,2.94-1.61,2.86-3.62,0-.42,0-.83,0-1.25,0-3.34-.26-2.91,3-3.07a12.14,12.14,0,0,0,7-2.6,12.75,12.75,0,0,1,2.77-1.73,1.32,1.32,0,0,1,1.93.56c-5.33,5.31-10.68,10.6-16,15.92Q117.56,163.34,107,174.12c-1.23,1.26-2.09,1.54-3.4.17-2.76-2.9-5.61-5.72-8.46-8.52-.94-.92-.78-1.65.06-2.47Z"/><path class="cls-2" d="M79.47,139.1a1.16,1.16,0,0,0,.41-.08c2.08-1.32,3.88-2,6.43-.3,3.58,2.44,8,1.2,12.07,1.49a7.33,7.33,0,0,1,2.36.51c-4.55,4.56-9.15,9.08-13.63,13.71-1.27,1.32-2.09,1.36-3.35,0-2.68-2.84-5.49-5.56-8.29-8.29-1-1-1-1.75.07-2.77,1.32-1.3,2.92-2.37,3.79-4.09h-.08A.7.7,0,0,0,79.47,139.1Z"/><path class="cls-2" d="M171.8,109.53a36.38,36.38,0,0,0-4.61,3c-.57.52-1,.53-1.77,0a16.41,16.41,0,0,0-11.58-3.76c-1.62.13-3,1.32-4.68,1,.11-.32.12-.73.33-.94q6.49-6.46,13-12.88c2.06-2,2.06-2.05,4.05-.07,2.51,2.5,5,5.08,7.56,7.48,1.51,1.39,1.43,2.36-.05,3.69C173.26,107.74,172.05,108.25,171.8,109.53Z"/><path class="cls-3" d="M125.29,135c0,2.56,0,5.12,0,7.68,0,1.24-.33,1.68-1.65,1.7-4.48.07-4.47.13-4.48-4.3,0-5.09-.07-10.19,0-15.28.07-4.58,1.88-8.26,6.11-10.44a11.39,11.39,0,0,1,12.27.83c4.08,2.73,5.8,8.8,4,13.89a10.87,10.87,0,0,1-11.34,7.42A8.27,8.27,0,0,1,125.29,135ZM136,124.86c.07-3.38-2.25-6-5.25-6a5.71,5.71,0,0,0-5.44,5.71c-.07,3.4,2.31,6.22,5.32,6.29S135.93,128.28,136,124.86Z"/><path class="cls-3" d="M158.23,127.19c-2.16,0-4.33,0-6.49,0-.45,0-1.07-.29-1.32.27s.22,1,.56,1.48a5.29,5.29,0,0,0,7.94.38c.78-.72,5.48-1.34,6.35-.82s.34,1.12.09,1.64c-2.19,4.49-5.89,6.59-11.42,6.1a11.31,11.31,0,0,1-9.9-8.68,11.88,11.88,0,0,1,4.11-12,11.55,11.55,0,0,1,13-.8c3.36,1.93,6,7.62,5.29,11.4-.18,1-.77,1-1.49,1h-6.7ZM155,122.11h0c1.18,0,2.36,0,3.53,0,.39,0,.88.19,1.13-.23s-.13-.91-.39-1.3a5.2,5.2,0,0,0-8.11-.08c-.29.37-.73.75-.55,1.27s.83.33,1.27.35C152.89,122.14,153.93,122.11,155,122.11Z"/><path class="cls-3" d="M184.54,120.48c-1.58,0-2.89.05-4.17-1.12s-3.16-.84-4.79-.28a1.11,1.11,0,0,0-.86,1.07,1.14,1.14,0,0,0,1,1,18.06,18.06,0,0,0,2.82.65,26.75,26.75,0,0,1,5.09,1.15c4.93,1.64,6.2,6.84,2.65,10.63-4.64,5-15.15,3.32-17.81-2.78-1-2.28-.9-2.39,1.51-2.45,2-.05,3.82,0,5.51,1.61,1.4,1.36,3.51,1.13,5.38.51a1.38,1.38,0,0,0,1.12-1.35,1.39,1.39,0,0,0-1.16-1.33c-1.63-.38-3.28-.63-4.92-1a14.81,14.81,0,0,1-2.62-.61c-2.33-.93-4.41-2.16-4.76-5a6.28,6.28,0,0,1,3.27-6.53c4.74-2.76,11.48-1.85,14.44,2.13.72,1,1.66,2.16,1.22,3.19S185.41,120.21,184.54,120.48Z"/><path class="cls-3" d="M78.58,120.41a4.37,4.37,0,0,1-3.93-1.26c-1.35-1.31-3.26-1.11-4.92-.33-1.3.61-1.2,1.43,0,2.1a8.45,8.45,0,0,0,3,.81A23.42,23.42,0,0,1,78,123c2.42.91,4,2.44,4.2,5.15a6.36,6.36,0,0,1-3.66,6.72,13.34,13.34,0,0,1-12.84-.44,7.22,7.22,0,0,1-3.46-4.77c-.22-.89,0-1.38,1-1.29,2.11.2,4.27-.57,6.2,1.41,1.4,1.43,3.68.95,5.61.55a1.16,1.16,0,0,0,1-1.22,1.66,1.66,0,0,0-1.07-1.44,12,12,0,0,0-3.86-.85,19.55,19.55,0,0,1-4.44-1.15c-4.55-1.8-5.42-7.07-1.73-10.3s11-3,14.51.31a6,6,0,0,1,1,1.11c.63,1,1.57,2.2,1.1,3.22S79.56,120.18,78.58,120.41Z"/><path class="cls-3" d="M86.76,108.23c3.12,0,3.25,0,3.07,3-.12,2,.45,2.85,2.5,2.5,1.55-.27,1.84.58,1.82,1.94,0,3,0,3.08-2.87,3.17-1.11,0-1.45.41-1.42,1.48.06,2.09,0,4.18,0,6.27.07,2.52.74,3.38,3.24,3.75,1.18.18,1.25.74,1.28,1.67.14,4-.35,4.46-4.32,3.54a7.49,7.49,0,0,1-5.81-7.3c-.22-6.26-.13-12.54-.1-18.81C84.19,107.06,86.19,108.91,86.76,108.23Z"/><path class="cls-3" d="M96.45,124.73c0-3.07.07-6.14,0-9.2-.05-1.5.49-1.89,1.91-1.87,2.84,0,5.68.63,8.51-.53,1.33-.54,2.48.1,2.3,1.91a7.48,7.48,0,0,0,0,1.67c.2,1.56-.26,2.17-2,2.14-2.87,0-4.67,2-4.78,5.24s-.11,6.55,0,9.82c0,1.47-.45,2-1.91,1.91-4.81-.16-3.87.56-4-4C96.41,129.47,96.45,127.1,96.45,124.73Z"/><path class="cls-3" d="M117.06,125.07c0,3,0,6,0,9,0,1.29-.27,1.9-1.73,1.86-5.19-.14-4.18.56-4.23-4.16-.06-5.37,0-10.75,0-16.12,0-1.44.39-1.94,1.88-1.94,4.11,0,4.11-.07,4.11,4q0,3.66,0,7.33Z"/><path class="cls-3" d="M114.23,106.09c3.36,0,2.67-.37,2.86,3.36.08,1.6-.34,2.17-2,2.12-3.93-.13-4,0-3.93-2.38C111.17,105.68,110.66,106.16,114.23,106.09Z"/><path class="cls-3" d="M79.47,139.1a.7.7,0,0,1-.22.21l.18,0Z"/><path class="cls-1" d="M136,124.86c-.07,3.42-2.42,6-5.38,6s-5.39-2.89-5.32-6.29a5.71,5.71,0,0,1,5.44-5.71C133.75,118.83,136.06,121.49,136,124.86Z"/><path class="cls-1" d="M155,122.11c-1,0-2.08,0-3.12,0-.44,0-1.05.27-1.27-.35s.26-.9.55-1.27a5.2,5.2,0,0,1,8.11.08c.27.39.69.78.39,1.3s-.75.23-1.13.23c-1.18,0-2.36,0-3.53,0Z"/></svg>