<?xml version="1.0" encoding="utf-8"?>
<!-- Generator: Adobe Illustrator 21.1.0, SVG Export Plug-In . SVG Version: 6.00 Build 0)  -->
<svg version="1.1" id="Layer_1" xmlns="http://www.w3.org/2000/svg" xmlns:xlink="http://www.w3.org/1999/xlink" x="0px" y="0px"
	 viewBox="0 0 250 250" style="enable-background:new 0 0 250 250;" xml:space="preserve">
<style type="text/css">
	.st0{fill:#F1BA33;}
	.st1{fill:#509C4C;}
	.st2{fill:#D9823D;}
	.st3{fill:#FAF5DA;}
	.st4{fill:#4E9C4B;}
	.st5{font-family:'MyriadPro-Regular';}
	.st6{font-size:4.3681px;}
</style>
<title>Coke_Dine</title>
<path class="st0" d="M115.4,107.4c1.3,3.2,2.2,6.6,2.9,10c0.3,2.1,0.3,2.3-1.8,1.5c-2.1-0.7-4.1-1.5-6.1-2.4c-2-1-3.9-2.3-5.6-3.9
	c-0.9,5-2.9,9.7-5.8,13.8c-3.2-4.1-5.3-9-6.2-14.1c-2.6,2.9-5.6,5.3-9,7.1c-2.5,1.4-2.5,1.3-2.6-1.6c-0.1-3.4,0.3-6.8,1.1-10.2
	c-2.4,0.9-4.9,1.5-7.4,1.7c-2.5,0.3-5.1,0.3-7.6,0c1.9-4.4,4.7-8.3,8.2-11.6c-2.2-0.5-4.4-1.1-6.5-1.9c-2.1-0.9-4.2-2-6.2-3.2
	c-0.9-0.5-0.9-0.9,0-1.6c3.9-2.7,8.3-4.5,12.9-5.3c0.1-0.6-0.4-0.8-0.8-1.1c-2.6-2.5-4.8-5.4-6.5-8.6c-1.1-2-1-2.1,1.3-2.3
	c3.4-0.2,6.7,0.2,10,1C80.2,75,80.6,75,81,75l0.2,0.2L81,75c-1.7-4.1-2.5-8.5-2.5-13c0-0.5,0-1,0.1-1.5c0.1-1.3,0.5-1.5,1.7-0.9
	c4.4,2.3,8.5,5,11.5,9.7c1-5.2,3.1-10.1,6.3-14.3c1.5,2,2.7,4.2,3.6,6.5c1.1,2.3,1.7,4.9,1.8,7.4c2.8-3.2,6.2-5.8,9.9-7.8
	c2.7-1.5,2.7-1.5,2.7,1.6c0.1,4-0.7,8.1-2.3,11.8c2.5-0.7,5.1-1.1,7.7-1.4c1.9-0.1,3.8-0.2,5.6-0.1c1.3,0,1.5,0.5,0.9,1.7
	c-2,3.9-4.7,7.2-8.1,9.9c4.8,1.1,9.4,3.1,13.4,6c-4.3,2.8-8.5,5.1-13.6,5.8c0,0.7,0.6,1,1,1.4c2.5,2.5,4.5,5.4,6.2,8.6
	c0.7,1.3,0.6,1.8-1,1.8c-3.5,0.1-7.1-0.2-10.5-0.9l-0.2-0.1L115.4,107.4z M81,89.5c-0.2,3.1,0.6,6.1,2.3,8.7
	c3.8,6.3,10.2,9.6,16.3,8.6c9.3-1.5,17.3-12,12-24.1c-2.8-6.4-10.9-10-18.4-8.3C86.2,76,80.7,80.2,81,89.5z"/>
<path class="st1" d="M174.5,153.9c0,2.4,0,4.9,0,7.3c0.1,3.5-1.9,6.8-5.1,8.2c-3.5,1.6-7,1.7-10.2-0.7c-0.8-0.9-2.1-0.9-3-0.1
	c0,0-0.1,0.1-0.1,0.1c-3.2,2.4-6.8,2.3-10.2,0.7c-3.2-1.4-5.3-4.7-5.1-8.3c-0.1-5,0-10,0-15c0-1.4,0.5-1.6,1.7-1.6
	c3.5,0,3.5,0,3.5,3.4c0,4,0,8.1,0,12.1c0,0.4,0,0.9,0,1.3c0.3,2.4,2.5,4.5,4.6,4.5c2.3,0,4.5-2.5,4.5-5.2c0-4.8,0.1-9.5,0-14.3
	c0-1.5,0.4-1.9,1.9-1.8c3.3,0.1,3.3,0,3.3,3.3c0,3.9,0,7.8,0,11.7c0,0.4,0,0.7,0,1.1c0.1,2.8,2.4,5.3,4.7,5.2s4.4-2.4,4.4-5.2
	c0-4.7,0.1-9.4,0-14.1c0-1.5,0.3-2,1.9-2c3.3,0.1,3.3,0,3.3,3.3C174.6,149.8,174.5,151.9,174.5,153.9z"/>
<path class="st1" d="M193,158.3c-2.1,0-4.3,0-6.4,0c-1,0-1.5,0.3-1.4,1.4c0,1,0.1,2.1,0.3,3.1c0.6,1.8,2.1,3.1,3.9,3.5
	c1.8,0.4,3.6-0.3,4.7-1.8c0.5-0.6,0.9-1.9,1.8-1.6c1.4,0.5,2.7,1.1,3.8,2c0.6,0.4,0,1.1-0.3,1.6c-2.2,3.5-5.5,4.7-9.4,4.5
	c-6.6-0.3-9.9-4-10-10.6c0-2.2,0-4.4,0-6.6c0.1-5.3,4.3-9.6,9.6-9.8c5.7-0.3,10.5,3.6,11,9c0.1,1.4,0,2.8,0.1,4.2
	c0,1-0.4,1.2-1.3,1.2C197.2,158.3,195.1,158.3,193,158.3z M190.3,154.2c1.2,0,2.4-0.1,3.6,0c1.6,0.1,1.7-0.7,1.4-1.9
	c-0.7-2.3-2.9-3.8-5.2-3.8c-2.4,0.2-4.3,1.9-4.9,4.3c-0.2,1,0.1,1.5,1.2,1.4C187.6,154.2,189,154.2,190.3,154.2z"/>
<path class="st1" d="M135.3,157.4c0,1.2,0,2.3,0,3.5c0,6.3-4.4,10.4-10.7,10.2c-6.5-0.3-10-4-10-10.5c0-2.3,0-4.5,0-6.8
	c0.1-6,4.1-9.8,10.4-9.8c6.3,0,10.3,3.8,10.3,9.8C135.3,155,135.3,156.2,135.3,157.4z M119.8,157.4c0,1.3,0,2.6,0,3.8
	c0.1,2.8,2.4,5.1,5.3,5c2.7-0.1,4.8-2.2,5-4.8c0.1-2.7,0.1-5.4,0-8c-0.2-2.8-2.5-4.9-5.2-4.9c-2.8,0.1-5,2.3-5,5
	C119.8,154.9,119.8,156.2,119.8,157.4L119.8,157.4z"/>
<path class="st1" d="M20.6,144c3.4-0.1,6.4,0.6,8.8,3.2c0.7,0.8,1.7,1.8,1,2.7c-1,1.1-2.4,1.8-3.8,2c-0.5,0.1-0.8-0.6-1-0.9
	c-2-3-5.5-2.8-8.3-2.1c-1.1,0.3-1.9,1.3-1.9,2.4c-0.1,1.1,0.6,2.2,1.7,2.6c1.8,0.7,3.6,1.2,5.5,1.5c1,0.3,2,0.5,3,0.8
	c5.8,1.9,7.2,8.5,2.6,12.6c-4,3.6-13.2,3.1-16.8-1c-0.7-0.8-1.8-1.8-0.7-3c1.6-1.6,3.7-1.8,4.7-0.4c1.9,2.6,5.3,2.5,8,1.7
	c1.3-0.3,2.2-1.5,2.2-2.9c0-1.4-1-2.2-2.3-2.5c-2.2-0.6-4.4-1-6.6-1.5c-5-1.2-6.8-3.4-6.5-7.6c0.4-4.1,3.8-7.3,7.9-7.5
	C19,143.9,19.8,144,20.6,144z"/>
<path class="st1" d="M35.3,153.7c0-2.6,0-5.1,0-7.7c0-1,0.3-1.4,1.4-1.4c4.7,0.1,3.8-0.6,3.9,3.6c0.1,4,0,7.9,0,11.9
	c0,3.4,2.1,5.7,5.1,5.7s5.1-2.4,5.2-5.6c0-4.6,0-9.3,0-13.9c0-1.3,0.3-1.7,1.6-1.7c4.3,0.1,3.5-0.6,3.6,3.6s0,8.3,0,12.4
	c0,6.1-4,9.9-10.5,9.9c-6.4,0-10.3-3.8-10.3-9.9C35.3,158.4,35.3,156,35.3,153.7z"/>
<path class="st1" d="M99,133.6c0.8,0.3,2.3-0.5,2.7,0.6c0.4,1.1-0.5,2.4-1,3.6c-0.2,0.5-0.8,0.4-1.3,0.4c-3.4-0.1-6.1,2.6-6.2,6
	c0,0.7,0.1,1.4,0.3,2.1c0.1,0.5,0.6,0.8,1.1,0.8c0.7,0.1,1.3,0.1,2,0c1.7-0.3,2.2,0.5,2.1,2.1c-0.1,2.4,0,2.4-2.5,2.4
	c-2.9,0-2.7-0.4-2.7,2.8c0,5.2,0,10.4,0,15.6c-0.1,5.7-4.8,10.3-10.5,10.1c-0.6,0-1.1-0.1-1.7-0.2c-1.2-0.2-1.3-0.7-1-1.7
	c0.5-1.7,1-3.1,3.5-3c2.7,0.1,4.5-2.4,4.5-5.4c0-8.6,0-17.2,0-25.8c-0.1-5.7,4.4-10.4,10.1-10.5C98.6,133.6,98.8,133.6,99,133.6z"/>
<path class="st1" d="M61.5,161c0-2.1,0.1-4.2,0-6.2c-0.4-5.4,3.4-10.9,11.3-10.3c6.1,0.5,9.3,4.1,9.3,10.2c0,4.7,0,9.4,0,14.1
	c0,1.1-0.3,1.6-1.5,1.6c-3.7,0-3.7,0-3.7-3.6c0-4,0-8.1,0-12.1c0-3.2-2.2-5.5-5.1-5.5c-2.8,0-5.2,2.3-5.2,5.1c0,0.1,0,0.2,0,0.3
	c0,4.6,0,9.3,0,13.9c0,1.4-0.3,1.9-1.8,1.9c-3.4-0.1-3.4,0-3.4-3.4L61.5,161z"/>
<path class="st1" d="M105.9,117.1c1.5-0.3,2.1,0.8,2.7,1.6c3.1,3.7,3.8,8.2,3.9,12.9c0,5.3-0.8,10.5-2.3,15.5
	c-1.7,5.8-2.8,11.6-2.1,17.7c0.2,1.4,0.5,2.8,0.9,4.1c0.5,1.6-0.3,2.9-2.5,3.8c-1.4,0.6-2.8,0.9-3.9-0.7c-1.2-1.9-1.7-4.2-1.6-6.5
	c-0.1-6.7,1.7-13,4.1-19.2c1.5-3.6,2.7-7.3,3.5-11.2C109.7,128.8,109.7,122.7,105.9,117.1z"/>
<path class="st1" d="M121.6,135.9c-0.2,0-0.5,0-0.7,0c-5.9-0.8-6.8-1.8-4.1-7.5c1.7-3.6,5.4-4.6,9-5.3c3.6-0.6,7.2-0.6,10.8-0.1
	c0.7,0.1,1.4,0.1,0.8,1c-3.2,5.2-6.8,10.1-13.2,11.6C123.3,135.9,122.5,135.9,121.6,135.9L121.6,135.9z"/>
<path class="st1" d="M205.6,157.4c0-3.8,0-7.6,0-11.4c0-1.3,0.4-1.7,1.7-1.7c1.5,0.1,3.3-0.5,3,2.3c-0.1,1.3,0.8,0.7,1.3,0.2
	c1.5-1.7,3.8-2.6,6.1-2.3c1.1,0.2,1.6,0.6,1.5,1.7c0,0.1,0,0.1,0,0.2c0,1.1,0.3,2.4-0.2,3.2c-0.6,1.1-2,0.1-3,0.1
	c-3.2,0.1-5.1,1.9-5.2,5.2c0,4.6-0.1,9.2,0,13.7c0,1.4-0.3,1.8-1.7,1.7c-3.5-0.1-3.5,0-3.5-3.5C205.6,163.8,205.6,160.6,205.6,157.4
	z"/>
<path class="st2" d="M106.1,190.6c1.5-3.1,2.9-5.9,4.2-8.7c0.4-0.8,0.8-1.8,2-1.5s1,1.3,1,2.3c0,3.5,0,7,0,10.4c0,1-0.1,1.9-1.4,1.9
	s-1.3-0.9-1.3-1.8c0.1-1.6-0.1-3.3-0.3-4.9c-0.9,1.7-1.7,3.5-2.6,5.2c-0.3,0.7-0.6,1.5-1.6,1.5c-1,0-1.2-0.9-1.6-1.5
	c-0.8-1.8-1.8-3.5-2.9-5.1c0,1.6,0,3.2,0,4.8c0,0.9-0.3,1.7-1.4,1.8s-1.4-0.8-1.4-1.7c0-3.7,0-7.3,0-11c0-0.8,0.1-1.7,1.1-1.9
	s1.4,0.5,1.8,1.3L106.1,190.6z"/>
<path class="st2" d="M141.9,187.7c0-1.7,0-3.4,0-5.1c-0.2-1,0.5-1.9,1.5-2.1c0.2,0,0.3,0,0.5,0c2.1-0.1,4.3-0.1,6.4,0.2
	c1.6,0.1,3,1.2,3.5,2.8c0.7,1.6,0.2,3.5-1.2,4.6c-0.7,0.6-0.7,1-0.3,1.7c0.5,0.8,0.9,1.7,1.3,2.6c0.4,0.9,0.9,1.9-0.3,2.5
	c-1.2,0.6-1.8-0.2-2.3-1.2c-0.5-1.1-1.1-2.3-1.7-3.4c-0.2-0.7-0.9-1.2-1.6-1.1c-2.8-0.1-2.7-0.1-2.8,2.8c0,1.1,0.6,2.9-1.3,3
	c-2,0.1-1.5-1.8-1.5-3C141.9,190.5,141.9,189.1,141.9,187.7z M147.3,186.5c0.7,0,1.3,0,1.8,0c1.1,0,1.9-0.5,1.9-1.7
	c0-1.3-0.9-1.5-1.9-1.6c-0.8,0-1.6,0.1-2.4,0c-1.7-0.3-2,0.5-2,2C144.9,187.5,146.6,186.2,147.3,186.5z"/>
<path class="st2" d="M182.2,187.6c0-1.8,0-3.5,0-5.3c-0.2-0.9,0.4-1.7,1.3-1.9c0.2,0,0.3,0,0.5,0c2.3,0,4.6,0,7,0
	c1,0,1.9,0.3,1.9,1.5s-0.9,1.3-1.9,1.3c-1.5,0-3.1,0-4.6,0c-1.1,0-1.1,0.6-1.1,1.4s-0.1,1.7,1.1,1.6c0.6,0,1.2,0,1.8,0
	c1,0,1.8,0.3,1.8,1.4c0,1.1-0.8,1.4-1.7,1.4c-0.4,0-0.9,0-1.3,0c-1.1-0.1-1.8,0.1-1.8,1.5c0,1.4,0.6,1.6,1.8,1.5
	c1.4-0.1,2.8,0,4.2,0c1,0,1.9,0.2,2,1.4c0.1,1.2-0.9,1.4-1.9,1.4c-2.3,0-4.6,0-7,0c-1.5,0-2.1-0.6-2-2.1
	C182.2,191,182.2,189.3,182.2,187.6z"/>
<path class="st2" d="M168.1,188.1c-1.9,1.4-3.2,2.8-2.8,5.1c0.2,0.7-0.1,1.5-0.8,1.7c-0.2,0.1-0.3,0.1-0.5,0.1
	c-1.2,0-1.5-0.8-1.5-1.8c0-3.7,0-7.3,0-11c0-1,0.3-1.8,1.4-1.8c1,0,1.5,0.8,1.5,1.8c0,1.3,0,2.7,0,4.5c1.6-1.6,2.8-2.8,4-4
	c0.7-0.6,1.3-1.3,2-1.9s1.3-0.9,2-0.2c0.7,0.7,0.5,1.5-0.1,2.1c-0.7,0.8-1.5,1.6-2.3,2.3c-0.6,0.4-0.7,1.2-0.3,1.8
	c0,0,0.1,0.1,0.1,0.1c1.1,1.7,2.3,3.5,3.3,5.3c0.5,0.8,1,1.7,0,2.4s-1.8-0.1-2.3-1C170.5,191.9,169.3,190,168.1,188.1z"/>
<path class="st2" d="M134.5,193.5c0.1,0.5-0.2,1.1-0.7,1.3c-0.4,0.2-1,0.2-1.4-0.1c-0.2-0.2-0.3-0.3-0.5-0.6
	c-0.5-0.8-0.5-2.3-1.4-2.4c-1.8-0.2-3.5-0.3-5.3-0.1c-1.1,0-1,1.1-1.4,1.7c-0.5,1-1,2-2.3,1.4s-0.7-1.7-0.3-2.6
	c1.6-3.6,3.3-7.2,5-10.8c0.7-1.5,2-1.6,2.7-0.1c1.9,3.8,3.6,7.8,5.3,11.6C134.4,193.1,134.5,193.3,134.5,193.5z M127.7,184.9
	c-0.5,1.1-0.8,1.9-1.2,2.6c-0.7,1.2-0.4,1.7,1.1,1.7c2.1,0,2.1,0,1.2-1.9C128.5,186.6,128.2,185.9,127.7,184.9z"/>
<path class="st2" d="M206,180.4c1.6,0,3.2,0,4.8,0c1,0,2.1,0.3,2.1,1.5c-0.1,1.3-1,1.3-2,1.3c-3.3,0.1-3.3,0.1-3.3,3.3
	c0,2.1,0,4.1,0,6.2c0,1.1,0.1,2.3-1.5,2.2c-1.6-0.1-1.5-1.2-1.5-2.3c0-2.6-0.1-5.1,0-7.7c0-1.3-0.3-1.9-1.7-1.8c-0.7,0-1.3,0-2,0
	c-0.8,0-1.4-0.4-1.5-1.3c-0.1-0.7,0.4-1.3,1.1-1.4c0.1,0,0.2,0,0.2,0C202.5,180.4,204.2,180.5,206,180.4L206,180.4z"/>
<path class="st3" d="M81,89.5c-0.3-9.3,5.3-13.5,12.2-15.1c7.5-1.7,15.6,1.9,18.4,8.3c5.2,12.1-2.7,22.6-12,24.1
	c-6.2,1-12.6-2.3-16.3-8.6C81.6,95.6,80.8,92.6,81,89.5z M110.3,90.8c0-8.2-5.6-14-13.4-14.1c-7.4,0-13,5.8-13,13.4
	c0,7.3,5.9,13.4,13,13.4C103.3,103.6,110.3,96.8,110.3,90.8L110.3,90.8z"/>
<path class="st3" d="M241.7,70.7l0.1,0.2L241.7,70.7L241.7,70.7z"/>
<path class="st3" d="M115.4,107.4l-0.1-0.2l0.2,0.1L115.4,107.4z"/>
<path class="st2" d="M110.4,90.8c0,6-7.1,12.7-13.4,12.7c-7.1,0-13-6.1-13-13.4c0-7.6,5.6-13.4,13-13.4
	C104.8,76.8,110.4,82.7,110.4,90.8z"/>
<text transform="matrix(1 0 0 1 222.708 147.6953)" class="st4 st5 st6">TM</text>
</svg>
