<svg id="Layer_1" data-name="Layer 1" xmlns="http://www.w3.org/2000/svg" width="250" height="250" viewBox="0 0 250 250"><defs><style>.cls-1{fill:red;}.cls-2{fill:#f9e8a0;}.cls-3{fill:#414042;}</style></defs><title>iShop</title><circle class="cls-1" cx="91.54" cy="192.87" r="16.12"/><circle class="cls-1" cx="177.85" cy="192.87" r="16.12"/><path class="cls-2" d="M164.58,134.06c5.69,0,12.33-2.85,14.23-8.54l30.35-56.91a7.11,7.11,0,0,0,0-8.54,8,8,0,0,0-6.64-3.79H75.42L68.78,40.16H40.32V57.23H57.39l31.3,65.45L76.36,143.55c-.95,2.85-.95,5.69-1.9,7.59a17,17,0,0,0,17.07,17.07H194.93V151.13H95.33a2,2,0,0,1-1.9-1.9v-.95L101,134.06Z"/><path class="cls-3" d="M177.85,173.9a20,20,0,0,0-19.92,19.92,19.92,19.92,0,0,0,39.84,0h0A20,20,0,0,0,177.85,173.9Zm14.23,19.92a15.18,15.18,0,1,1-15.18-15.18,15,15,0,0,1,15.18,15.18Z"/><path class="cls-3" d="M211.05,59.13a10,10,0,0,0-8.54-4.74H77.31L70.67,38.26c-.95-.95-1.9-1.9-2.85-1.9H39.37c-.95,0-1.9.95-1.9,2.85V56.28a3,3,0,0,0,2.85,2.85H55.5l29.4,62.6L73.52,141.65a33.7,33.7,0,0,0-1.9,9.49,20,20,0,0,0,19.92,19.92H194.93a2,2,0,0,0,1.9-1.9V152.08a3,3,0,0,0-2.85-2.85H95.33L102,136.91h62.6c6.64,0,13.28-3.79,16.12-9.49l30.35-56.91Q213.9,63.4,211.05,59.13Zm-3.79,7.59-30.35,56.91c-1.9,4.74-7.59,7.59-12.33,7.59H101a3.31,3.31,0,0,0-1.9.95l-7.59,14.23v1.9a4.08,4.08,0,0,0,3.79,3.79H193v12.33H91.54a15,15,0,0,1-15.18-15.18c0-2.85.95-4.74.95-7.59l12.33-20.87v-1.9L59.29,55.33c0-.95-.95-.95-1.9-.95H42.22V42.06H66.88l6.64,16.12a2,2,0,0,0,1.9,1.9h127.1c1.9,0,3.79.95,3.79,2.85C208.21,62.92,208.21,64.82,207.26,66.72Z"/><path class="cls-3" d="M91.54,173.9a20,20,0,0,0-19.92,19.92,19.45,19.45,0,0,0,19.92,19.92,20,20,0,0,0,19.92-19.92h0A19.45,19.45,0,0,0,91.54,173.9Zm15.18,19.92a15.18,15.18,0,1,1-30.35,0c0-8.54,7.59-15.18,15.18-15.18a15,15,0,0,1,15.18,15.18Z"/><path class="cls-3" d="M161.73,77.15h-73a2.85,2.85,0,1,1,0-5.69h74a3,3,0,0,1,2.85,2.85c-.95,1.9-1.9,2.85-3.79,2.85ZM148.45,94.22H88.69c-1.9,0-2.85-.95-2.85-1.9a3,3,0,0,1,2.85-2.85h60.7a3,3,0,0,1,2.85,2.85,4.93,4.93,0,0,1-3.79,1.9ZM134.22,111.3H88.69a2.85,2.85,0,0,1,0-5.69h46.48a3,3,0,0,1,2.85,2.85c-.95,1.9-1.9,2.85-3.79,2.85Z"/><path class="cls-3" d="M177.85,173.9a20,20,0,0,0-19.92,19.92,19.92,19.92,0,0,0,39.84,0h0A20,20,0,0,0,177.85,173.9Zm14.23,19.92a15.18,15.18,0,1,1-15.18-15.18,15,15,0,0,1,15.18,15.18Z"/><path class="cls-3" d="M211.05,59.13a10,10,0,0,0-8.54-4.74H77.31L70.67,38.26c-.95-.95-1.9-1.9-2.85-1.9H39.37c-.95,0-1.9.95-1.9,2.85V56.28a3,3,0,0,0,2.85,2.85H55.5l29.4,62.6L73.52,141.65a33.7,33.7,0,0,0-1.9,9.49,20,20,0,0,0,19.92,19.92H194.93a2,2,0,0,0,1.9-1.9V152.08a3,3,0,0,0-2.85-2.85H95.33L102,136.91h62.6c6.64,0,13.28-3.79,16.12-9.49l30.35-56.91Q213.9,63.4,211.05,59.13Zm-3.79,7.59-30.35,56.91c-1.9,4.74-7.59,7.59-12.33,7.59H101a3.31,3.31,0,0,0-1.9.95l-7.59,14.23v1.9a4.08,4.08,0,0,0,3.79,3.79H193v12.33H91.54a15,15,0,0,1-15.18-15.18c0-2.85.95-4.74.95-7.59l12.33-20.87v-1.9L59.29,55.33c0-.95-.95-.95-1.9-.95H42.22V42.06H66.88l6.64,16.12a2,2,0,0,0,1.9,1.9h127.1c1.9,0,3.79.95,3.79,2.85C208.21,62.92,208.21,64.82,207.26,66.72Z"/><path class="cls-3" d="M91.54,173.9a20,20,0,0,0-19.92,19.92,19.45,19.45,0,0,0,19.92,19.92,20,20,0,0,0,19.92-19.92h0A19.45,19.45,0,0,0,91.54,173.9Zm15.18,19.92a15.18,15.18,0,1,1-30.35,0c0-8.54,7.59-15.18,15.18-15.18a15,15,0,0,1,15.18,15.18Z"/><path class="cls-3" d="M161.73,77.15h-73a2.85,2.85,0,1,1,0-5.69h74a3,3,0,0,1,2.85,2.85c-.95,1.9-1.9,2.85-3.79,2.85ZM148.45,94.22H88.69c-1.9,0-2.85-.95-2.85-1.9a3,3,0,0,1,2.85-2.85h60.7a3,3,0,0,1,2.85,2.85,4.93,4.93,0,0,1-3.79,1.9ZM134.22,111.3H88.69a2.85,2.85,0,0,1,0-5.69h46.48a3,3,0,0,1,2.85,2.85c-.95,1.9-1.9,2.85-3.79,2.85Z"/></svg>