<?xml version="1.0" encoding="utf-8"?>
<!-- Generator: Adobe Illustrator 21.1.0, SVG Export Plug-In . SVG Version: 6.00 Build 0)  -->
<svg version="1.1" id="Layer_1" xmlns="http://www.w3.org/2000/svg" xmlns:xlink="http://www.w3.org/1999/xlink" x="0px" y="0px"
	 viewBox="0 0 250 250" style="enable-background:new 0 0 250 250;" xml:space="preserve">
<style type="text/css">
	.st0{fill:#FF0000;}
	.st1{fill:#F9E8A0;}
	.st2{fill:#414042;}
</style>
<g>
	<g>
		<g>
			<circle class="st0" cx="106.1" cy="163.2" r="9.1"/>
			<circle class="st0" cx="154.6" cy="163.8" r="9.1"/>
		</g>
		<path class="st1" d="M147.3,130.1c3.2,0,7-1.6,8-4.8l17.1-32.1c1.1-1.6,1.1-3.2,0-4.8c-0.5-1.1-2.1-2.1-3.7-2.1H97.1l-3.7-9.1h-16
			v9.6h9.6l17.6,36.9l-7,11.8c-0.5,1.6-0.5,3.2-1.1,4.3c0,5.3,4.3,9.6,9.6,9.6h58.3v-9.6h-56.1c-0.5,0-1.1-0.5-1.1-1.1v-0.5l4.3-8
			H147.3z"/>
		<g>
			<g>
				<g>
					<path class="st2" d="M154.8,152.5c-5.9,0-11.2,4.8-11.2,11.2s4.8,11.2,11.2,11.2s11.2-4.8,11.2-11.2l0,0
						C166,157.4,160.7,152.5,154.8,152.5z M162.8,163.8c0,4.8-3.7,8.6-8.6,8.6c-4.8,0-8.6-3.7-8.6-8.6s3.7-8.6,8.6-8.6
						C159.1,155.2,162.8,159,162.8,163.8L162.8,163.8z"/>
					<path class="st2" d="M173.5,87.8c-1.1-1.6-2.7-2.7-4.8-2.7H98.1l-3.7-9.1c-0.5-0.5-1.1-1.1-1.6-1.1h-16c-0.5,0-1.1,0.5-1.1,1.6
						v9.6c0,0.5,0.5,1.6,1.6,1.6h8.6l16.6,35.3L96,134.4c-0.5,1.6-1.1,3.7-1.1,5.3c0,5.9,4.8,11.2,11.2,11.2h58.3l0,0
						c0.5,0,1.1-0.5,1.1-1.1v-9.6c0-0.5-0.5-1.6-1.6-1.6h-55.6l3.7-7h35.3c3.7,0,7.5-2.1,9.1-5.3l17.1-32.1
						C174.6,91.6,174.6,89.4,173.5,87.8z M171.4,92.1l-17.1,32.1c-1.1,2.7-4.3,4.3-7,4.3h-35.8c-0.5,0-1.1,0.5-1.1,0.5l-4.3,8v0.5
						v0.5c0,1.1,1.1,2.1,2.1,2.1h55.1v7h-57.2c-4.8,0-8.6-3.7-8.6-8.6c0-1.6,0.5-2.7,0.5-4.3l7-11.8c0-0.5,0-1.1,0-1.1L88,85.7
						c0-0.5-0.5-0.5-1.1-0.5h-8.6v-7h13.9l3.7,9.1c0,0.5,0.5,1.1,1.1,1.1h71.7C171.2,88,173.5,89.2,171.4,92.1z"/>
					<path class="st2" d="M106.1,152.5c-5.9,0-11.2,4.8-11.2,11.2s4.8,11.2,11.2,11.2c5.9,0,11.2-4.8,11.2-11.2l0,0
						C117.4,157.4,112.6,152.5,106.1,152.5z M114.7,163.8c0,4.8-3.7,8.6-8.6,8.6s-8.6-3.7-8.6-8.6s4.3-8.6,8.6-8.6
						C111,155.2,114.7,159,114.7,163.8L114.7,163.8z"/>
				</g>
			</g>
			<g>
				<g>
					<path class="st2" d="M154.8,152.5c-5.9,0-11.2,4.8-11.2,11.2s4.8,11.2,11.2,11.2s11.2-4.8,11.2-11.2l0,0
						C166,157.4,160.7,152.5,154.8,152.5z M162.8,163.8c0,4.8-3.7,8.6-8.6,8.6c-4.8,0-8.6-3.7-8.6-8.6s3.7-8.6,8.6-8.6
						C159.1,155.2,162.8,159,162.8,163.8L162.8,163.8z"/>
					<path class="st2" d="M173.5,87.8c-1.1-1.6-2.7-2.7-4.8-2.7H98.1l-3.7-9.1c-0.5-0.5-1.1-1.1-1.6-1.1h-16c-0.5,0-1.1,0.5-1.1,1.6
						v9.6c0,0.5,0.5,1.6,1.6,1.6h8.6l16.6,35.3L96,134.4c-0.5,1.6-1.1,3.7-1.1,5.3c0,5.9,4.8,11.2,11.2,11.2h58.3l0,0
						c0.5,0,1.1-0.5,1.1-1.1v-9.6c0-0.5-0.5-1.6-1.6-1.6h-55.6l3.7-7h35.3c3.7,0,7.5-2.1,9.1-5.3l17.1-32.1
						C174.6,91.6,174.6,89.4,173.5,87.8z M171.4,92.1l-17.1,32.1c-1.1,2.7-4.3,4.3-7,4.3h-35.8c-0.5,0-1.1,0.5-1.1,0.5l-4.3,8v0.5
						v0.5c0,1.1,1.1,2.1,2.1,2.1h55.1v7h-57.2c-4.8,0-8.6-3.7-8.6-8.6c0.8-5.3,7.5-16,7.5-16c0-0.5,0-1.1,0-1.1L88,85.7
						c0-0.5-0.5-0.5-1.1-0.5h-8.6v-7h13.9l3.7,9.1c0,0.5,0.5,1.1,1.1,1.1h71.7C171.3,88.3,173.1,89,171.4,92.1z"/>
					<path class="st2" d="M106.1,152.5c-5.9,0-11.2,4.8-11.2,11.2s4.8,11.2,11.2,11.2c5.9,0,11.2-4.8,11.2-11.2l0,0
						C117.4,157.4,112.6,152.5,106.1,152.5z M114.7,163.8c0,4.8-3.7,8.6-8.6,8.6s-8.6-3.7-8.6-8.6s4.3-8.6,8.6-8.6
						C111,155.2,114.7,159,114.7,163.8L114.7,163.8z"/>
				</g>
			</g>
		</g>
	</g>
	<g>
		<path class="st2" d="M128.9,92.4l4.3,9.3l10.1,1.7l-7.5,7l1.5,10.1l-8.9-5l-9.2,4.5l2-10l-7.1-7.3l10.1-1.2L128.9,92.4
			 M128.9,90.4c-0.7,0-1.4,0.4-1.8,1.1l-4.3,8.1l-9.1,1.1c-0.8,0.1-1.4,0.6-1.6,1.3c-0.3,0.7-0.1,1.5,0.5,2.1l6.4,6.6l-1.8,9
			c-0.1,0.7,0.1,1.5,0.7,2c0.4,0.3,0.8,0.4,1.2,0.4c0.3,0,0.6-0.1,0.9-0.2l8.2-4.1l8,4.5c0.3,0.2,0.6,0.3,1,0.3
			c0.4,0,0.8-0.1,1.1-0.4c0.6-0.4,1-1.2,0.8-1.9l-1.3-9.1l6.7-6.2c0.6-0.5,0.8-1.3,0.6-2c-0.2-0.7-0.8-1.3-1.6-1.4l-9-1.5l-3.9-8.3
			C130.4,90.9,129.7,90.4,128.9,90.4C129,90.4,128.9,90.4,128.9,90.4L128.9,90.4z"/>
	</g>
</g>
</svg>
