<?xml version="1.0" encoding="utf-8"?>
<!-- Generator: Adobe Illustrator 21.1.0, SVG Export Plug-In . SVG Version: 6.00 Build 0)  -->
<svg version="1.1" id="Layer_1" xmlns="http://www.w3.org/2000/svg" xmlns:xlink="http://www.w3.org/1999/xlink" x="0px" y="0px"
	 viewBox="0 0 250 250" style="enable-background:new 0 0 250 250;" xml:space="preserve">
<style type="text/css">
	.st0{fill:#0058A3;}
	.st1{fill:#FFFFFF;}
	.st2{fill:#D91A32;}
</style>
<title>CR</title>
<path class="st0" d="M72.7,55h104.8c0.2,0.4,0.3,0.7,0.5,1.1l18.4,32c10.6,18.5,21.3,37,32,55.4c0.4,0.7,0.6,1.4,0.6,2.2
	c0,16.1,0,32.3,0,48.4c0,0.3,0,0.7,0,1H20.9c0-16.8,0-33.6,0-50.5c0.4,0,0.5-0.4,0.6-0.7L42.8,107l29.5-51.2
	C72.5,55.6,72.6,55.3,72.7,55z M125.1,190H223c1.1,0,1.1,0,1.1-1.1c0-14,0-28,0-42.1c0-0.6-0.1-1.1-0.4-1.6
	c-4.5-7.8-9-15.6-13.5-23.4l-34.9-60.5c-0.7-1.3-0.3-1.2-2-1.2H77c-0.2,0-0.4,0-0.6,0c-0.5-0.1-1,0.2-1.2,0.7
	C69,71.5,62.9,82.3,56.6,93c-10,17.4-20,34.7-30,52.1c-0.3,0.5-0.5,1.1-0.5,1.7c0,14,0,27.9,0,41.9c0,1.4-0.1,1.3,1.3,1.3L125.1,190
	z"/>
<path class="st1" d="M125.1,190H27.4c-1.4,0-1.3,0.1-1.3-1.3c0-14,0-27.9,0-41.9c0-0.6,0.1-1.2,0.5-1.7c10-17.4,20.1-34.7,30.1-52.1
	c6.2-10.7,12.4-21.5,18.6-32.2c0.2-0.5,0.7-0.7,1.2-0.7c0.2,0,0.4,0,0.6,0h96.4c1.7,0,1.3-0.1,2,1.2l34.9,60.5
	c4.5,7.8,9,15.6,13.5,23.4c0.3,0.5,0.4,1,0.4,1.6c0,14,0,28,0,42.1c0,1.1,0,1.1-1.1,1.1L125.1,190z M200.9,145.8
	c-0.2-0.7-39.4-68.7-39.8-69c-0.1,0.1-0.2,0.2-0.2,0.3l-23.7,41.1c0,0,0,0,0,0.1l0.1,0.1H158c0.1,0,0.2,0,0.3,0.1
	c0.4,0.5,0.7,1.1,0.8,1.7h-0.9c-7.2,0-14.3,0-21.5,0c-0.5-0.1-0.9,0.2-1.1,0.6c-0.7,1.3-1.4,2.5-2.2,3.8c-0.1,0.2-0.2,0.4-0.3,0.6
	h28.7c0.1,0,0.3,0,0.4,0.1c0.4,0.5,0.7,1.1,0.9,1.7h-30.4c-0.5-0.1-1,0.2-1.2,0.7c-0.7,1.3-1.5,2.5-2.2,3.8
	c-0.1,0.2-0.2,0.4-0.3,0.6h35.9c0.3,0,0.5,0,0.8,0c0.2,0,0.4,0.1,0.5,0.2c0.3,0.5,0.6,0.9,0.9,1.6c-0.5,0-0.9,0-1.3,0h-36.7
	c-0.2,0-0.5,0-0.7,0c-0.3,0-0.7,0.1-0.8,0.4c-0.8,1.4-1.6,2.7-2.3,4.1c-0.1,0.2-0.1,0.3-0.2,0.5h43.8c0.3,0,0.5,0,0.8,0
	c0.2,0,0.3,0.1,0.4,0.2c0.3,0.5,0.6,0.9,0.9,1.6c-0.5,0-0.9,0-1.3,0h-44.6c-0.3,0-0.5,0-0.8,0c-0.3,0-0.6,0.2-0.8,0.5
	c-0.8,1.4-1.6,2.7-2.3,4.1c-0.1,0.2-0.1,0.3-0.2,0.5L200.9,145.8z M74.5,97.9h69.1c1.1-1.6,10.6-18.2,10.7-18.8h-0.7
	c-18.8,0-37.6,0-56.4,0c-1.3,0-2.5,0.1-3.8,0.3c-7,1.1-13.1,5.4-16.5,11.6C75.8,93.1,75,95.5,74.5,97.9z M127.3,127H58.9
	c-0.4-0.1-0.9,0.2-1.1,0.6c-3.4,5.9-6.8,11.8-10.2,17.7c-0.1,0.2-0.2,0.4-0.3,0.7h0.8c18.7,0,37.4,0,56.1,0c1.3,0,2.5-0.1,3.8-0.3
	c8.7-1.4,15.9-7.6,18.5-16C126.9,128.8,127.1,128,127.3,127L127.3,127z M127.3,118.5c-0.3-1.5-0.7-3-1.3-4.4
	c-0.4-0.9-0.3-0.7-1.1-0.7H77.1c0.2,0.3,0.3,0.5,0.4,0.7c0.8,1.4,1.8,2.7,2.9,3.9c0.3,0.4,0.8,0.6,1.3,0.5L127.3,118.5L127.3,118.5z
	 M74.5,106.5c0.3,1.7,0.8,3.4,1.6,5h48.7c-0.2-0.3-0.2-0.5-0.4-0.7c-0.8-1.4-1.8-2.7-2.9-3.9c-0.3-0.4-0.8-0.6-1.3-0.6H75.4
	C75.1,106.4,74.9,106.5,74.5,106.5z M127.5,120.2H82.8l0.8,0.6c3.9,2.9,8.6,4.5,13.5,4.5c10,0,19.9,0,29.9,0c0.2,0,0.4,0,0.6,0
	C127.8,123.6,127.8,121.9,127.5,120.2L127.5,120.2z M74.3,104.7c0.2,0,0.3,0,0.4,0h44.1l0,0l0,0c0,0,0,0,0-0.1l-0.2-0.2
	c-3.9-3.1-8.8-4.8-13.7-4.9c-9.9,0-19.9,0-29.8,0h-0.7C74.1,101.3,74.1,103,74.3,104.7z M137.5,171.2h0.2l1-2.3l1-2.3l1-2.3
	c0.3-0.8,0.6-1.5,1-2.3c0.3-0.8,0.7-1.6,1.1-2.4c0.1,0.4,0.2,0.5,0.2,0.7l2.1,9.2c0.3,1.1,0.1,1,1.3,1c0.5,0.1,1.1,0,1.6-0.1
	l-4.3-18c-0.2,0.2-0.3,0.4-0.4,0.6l-1.6,3.8c-1.2,2.7-2.3,5.3-3.5,8c-0.1,0.2-0.1,0.6-0.5,0.7l-5.7-13.1c-0.4,1-4.4,17.7-4.3,18.2
	h1.8c0.7,0,0.7,0,0.8-0.7l2.1-9.3c0.1-0.3,0.2-0.6,0.2-0.8h0.2c0.8,1.9,1.6,3.8,2.4,5.6C135.8,167.4,136.6,169.3,137.5,171.2
	L137.5,171.2z M164.7,162h0.2c0.2,0.2,0.4,0.4,0.5,0.6c1.6,2.4,3.1,4.7,4.7,7.1c0.8,1.3,0.5,1,2,1.1h1.9l-1.4-2l-1.3-1.9l-1.3-1.9
	c-0.4-0.6-0.9-1.3-1.3-2c0.2-0.1,0.4-0.1,0.6-0.2c0.6-0.2,1.1-0.5,1.7-0.9c1.4-1.1,2.1-2.8,1.8-4.6c-0.1-1.8-1.4-3.3-3.1-3.9
	c-0.5-0.2-1-0.3-1.6-0.4c-1.9-0.1-3.9-0.1-5.8-0.1c-0.1,0-0.2,0-0.2,0.1c-0.1,0.9-0.1,17.1,0,17.7c0.8,0.1,1.7,0.1,2.5,0v-0.9
	c0-2.3,0-4.6,0-7C164.7,162.5,164.7,162.2,164.7,162L164.7,162z M103.5,162.9l0.7-0.2c1.9-0.5,3.3-2.1,3.5-4.1
	c0.4-2.1-0.7-4.2-2.6-5c-0.7-0.3-1.4-0.5-2.1-0.6c-1.9-0.1-3.8-0.1-5.7-0.1c-0.1,0-0.2,0-0.3,0.1c-0.2,1.3-0.1,17.2,0.1,17.7
	c0.8,0.1,1.6,0.1,2.4,0v-0.9c0-2.3,0-4.6,0-7c0-0.3-0.1-0.6,0.3-0.8c0.2,0.2,0.4,0.4,0.5,0.6l3.1,4.6c0.7,1,1.4,2,2,3
	c0.2,0.3,0.5,0.5,0.9,0.5c0.5,0,1,0,1.6,0h1.1l-2.8-3.9L103.5,162.9z M56.5,152.8c0,0.3,0,0.4,0,0.6c0,3.8,0,7.7,0,11.5
	c0,2.3,1.3,4.4,3.4,5.3c2.2,1.1,4.9,1,7.1-0.3c1.9-1,3.1-3,3-5.1c0-3.8,0-7.6,0-11.4c0-0.2,0-0.4,0-0.6h-2.5c0,0.3,0,0.6,0,0.8
	c0,2,0,4,0,6c0,1.6,0,3.2,0,4.9c0,1.3-0.6,2.6-1.7,3.3c-1.5,1-3.4,1.1-5,0.1c-1.1-0.7-1.8-2-1.8-3.3c0-3.6,0-7.3,0-10.9
	c0-0.3,0-0.5,0-0.9L56.5,152.8z M126.8,170.6l-8.7-18.2l-8.7,18.1c0.3,0,0.5,0.1,0.6,0.1c0.5,0,1.1,0,1.6,0c0.4,0.1,0.8-0.2,0.9-0.6
	c0.5-1.1,1-2.1,1.4-3.1c0.2-0.5,0.7-0.8,1.2-0.7c2,0,4,0,6,0c0.5-0.1,1,0.2,1.1,0.7c0.4,1.1,1,2.1,1.5,3.2c0.1,0.2,0.3,0.5,0.4,0.5
	C125,170.7,125.9,170.7,126.8,170.6L126.8,170.6z M203.5,152.5c-0.7,1.1-8.6,17.5-8.6,18.1c0.7,0,1.4,0,2.1,0c0.4,0.1,0.8-0.2,1-0.6
	c0.5-1.1,1-2.2,1.5-3.3c0.1-0.3,0.4-0.5,0.7-0.5c2.2,0,4.4,0,6.5,0c0.3,0,0.7,0.2,0.8,0.5c0.3,0.8,0.7,1.6,1.1,2.4
	c0.9,1.9,0.3,1.6,2.5,1.6c0.3,0,0.7,0,1.1,0L203.5,152.5z M94.5,168.4h-6.6c-0.8,0-0.8,0-0.8-0.8c0-1.3,0-2.6,0-3.9
	c0-0.8,0-0.8,0.8-0.8h5.2c1.3,0,1.3,0.2,1.3-1.3c0-1,0-1-1.1-1h-5.3c-0.9,0-0.9,0-0.9-0.8c0-1.3,0-2.6,0-3.9c0-0.8,0-0.8,0.8-0.8
	h5.8c0.3,0,0.5,0,0.8,0c0.1-0.7,0.1-1.5,0-2.2c-1.2-0.1-9.4-0.1-9.9,0c-0.2,0.7-0.1,17.1,0,17.7c0.2,0,0.4,0,0.6,0h8.6
	c0.2,0,0.5,0,0.7-0.1L94.5,168.4z M149.7,152.8c0,0.4,0,0.7,0,1c0,5.2,0,10.4,0,15.6c0,0.2,0,0.4,0,0.6s0.2,0.5,0.5,0.5h9.1
	c0.2,0,0.4-0.1,0.4-0.3c0.1-0.6,0-1.3-0.1-1.9H153c-0.7,0-0.8,0-0.8-0.8c0-1.1,0-2.2,0-3.4c0-0.3,0-0.6,0-0.8c0-0.2,0.1-0.5,0.4-0.5
	c0,0,0.1,0,0.1,0h5.9c0.3,0,0.5,0,0.8,0v-2.1c-0.3,0-0.6,0-0.9,0h-5.6c-0.6,0-0.7-0.1-0.7-0.7c0-1.4,0-2.8,0-4.1c0-0.1,0-0.2,0-0.3
	c0-0.2,0.2-0.4,0.4-0.4c0,0,0,0,0,0h6.2c0.3,0,0.5,0,0.8,0c0.1-0.7,0.1-1.5,0-2.2L149.7,152.8z M194.1,156.6c0-0.9,0-1.6,0-2.2
	c0.1-0.5-0.2-0.9-0.6-1c-1.9-1-4.2-1.3-6.3-0.9c-5.1,0.9-8.5,5.8-7.6,11c0.2,1.1,0.6,2.1,1.1,3c2.1,3.6,6.2,5.4,10.2,4.6
	c1-0.2,1.9-0.5,2.8-1c0.2-0.1,0.4-0.2,0.4-0.5c0-0.8,0-1.7,0-2.6c-1.4,1.3-3.3,2-5.2,1.9c-1.9-0.1-3.7-1-5-2.4
	c-2.2-2.5-2.3-6.2-0.3-8.8c1-1.3,2.4-2.2,4-2.5C190,154.4,192.4,155,194.1,156.6L194.1,156.6z M53.9,154.8c-0.2-0.3-0.3-0.4-0.4-0.6
	c-2.2-2.5-6.1-2.7-8.6-0.4c-0.2,0.2-0.4,0.4-0.5,0.6c-1.5,2-1.1,4.9,0.9,6.4c0.2,0.2,0.5,0.3,0.7,0.4c0.4,0.2,0.9,0.4,1.3,0.5
	c0.9,0.4,1.8,0.7,2.7,1.1c0.5,0.2,0.9,0.5,1.3,0.8c1.1,0.9,1.4,2.5,0.5,3.7c-0.1,0.2-0.3,0.3-0.5,0.5c-0.3,0.3-0.6,0.5-1,0.6
	c-1.9,0.7-4.1-0.1-5.1-1.8l-0.4-0.7l-1.7,1.6c0.4,1,1.1,1.8,2,2.4c1.3,0.9,3,1.3,4.6,1.1c1.7-0.1,3.2-1,4.3-2.3
	c1.4-1.8,1.4-4.3,0-6.1c-0.6-0.8-1.4-1.4-2.2-1.8c-0.7-0.3-1.5-0.6-2.3-1s-1.6-0.8-2.4-1.2c-0.7-0.4-1-1.1-0.9-1.8
	c0.1-0.8,0.6-1.5,1.3-1.8c1.3-0.8,3.1-0.5,4,0.8c0.2,0.2,0.3,0.4,0.5,0.6L53.9,154.8z M72.4,152.8c-0.2,0.9-0.1,17.2,0,17.7
	c0.8,0.2,1.7,0.2,2.5,0v-7.4c0.3,0,0.6-0.1,0.9-0.1c1,0,2,0,3,0c2.1,0,3.9-1.5,4.3-3.5c0.1-0.7,0.2-1.4,0.1-2.2
	c-0.1-1.4-0.9-2.7-2.1-3.4c-0.7-0.4-1.4-0.7-2.2-0.9C76.7,152.8,74.6,152.8,72.4,152.8L72.4,152.8z M177.9,152.8
	c-0.8-0.1-1.7-0.1-2.5,0c-0.2,1.1-0.1,17.2,0.1,17.8c0.6,0,1.3,0,1.9,0s0.6-0.1,0.6-0.6c0-0.1,0-0.2,0-0.3c0-5.3,0-10.7,0-16
	C178,153.5,178,153.2,177.9,152.8L177.9,152.8z M217,168.8c0-1-0.8-1.8-1.8-1.8c0,0,0,0,0,0c-1-0.1-1.9,0.7-2,1.7
	c-0.1,1,0.7,1.9,1.7,2c0.1,0,0.2,0,0.3,0C216.2,170.7,217.1,169.9,217,168.8C217.1,168.9,217.1,168.9,217,168.8L217,168.8z"/>
<path class="st0" d="M200.9,145.8h-79.5c0-0.2,0.1-0.3,0.2-0.5c0.8-1.4,1.6-2.7,2.3-4.1c0.1-0.3,0.4-0.5,0.8-0.5c0.3,0,0.5,0,0.8,0
	H170c0.4,0,0.7,0,1.3,0c-0.4-0.6-0.6-1.1-0.9-1.6c-0.1-0.1-0.3-0.2-0.4-0.2c-0.3,0-0.5,0-0.8,0h-43.8c0-0.2,0.1-0.3,0.2-0.5
	c0.8-1.4,1.6-2.7,2.3-4.1c0.1-0.3,0.5-0.5,0.8-0.4c0.2,0,0.5,0,0.7,0H166c0.4,0,0.7,0,1.3,0c-0.4-0.6-0.6-1.1-0.9-1.6
	c-0.1-0.1-0.3-0.2-0.5-0.2c-0.3,0-0.5,0-0.8,0h-35.9c0.1-0.2,0.2-0.4,0.3-0.6c0.7-1.3,1.5-2.5,2.2-3.8c0.2-0.5,0.7-0.7,1.2-0.7h30.4
	c-0.2-0.6-0.5-1.2-0.9-1.7c-0.1-0.1-0.3-0.1-0.4-0.1h-28.7c0.1-0.3,0.2-0.5,0.3-0.6c0.7-1.3,1.5-2.5,2.2-3.8
	c0.2-0.4,0.7-0.7,1.1-0.6c7.2,0,14.3,0,21.5,0h0.9c-0.1-0.6-0.4-1.2-0.8-1.7c-0.1-0.1-0.2-0.1-0.3-0.1h-20.8l-0.1-0.1c0,0,0,0,0-0.1
	l23.7-41.3c0.1-0.1,0.2-0.2,0.2-0.3C161.5,77.2,200.7,145.2,200.9,145.8z"/>
<path class="st2" d="M74.5,97.9c0.4-2.4,1.3-4.7,2.5-6.8c3.4-6.2,9.5-10.5,16.5-11.6c1.2-0.2,2.5-0.3,3.8-0.3c18.8,0,37.6,0,56.4,0
	h0.7c-0.1,0.6-9.7,17.2-10.7,18.8H74.5z"/>
<path class="st2" d="M127.3,127c-0.2,0.9-0.4,1.8-0.7,2.6c-2.6,8.4-9.8,14.6-18.5,16c-1.3,0.2-2.5,0.3-3.8,0.3
	c-18.7,0-37.4,0-56.1,0h-0.8c0.2-0.3,0.2-0.5,0.3-0.7c3.4-5.9,6.8-11.8,10.2-17.7c0.2-0.4,0.6-0.6,1.1-0.6L127.3,127L127.3,127z"/>
<path class="st2" d="M127.3,118.5H81.5c-0.5,0-1-0.2-1.3-0.5c-1.1-1.2-2.1-2.5-2.9-3.9c-0.1-0.2-0.2-0.4-0.4-0.7h47.9
	c0.8,0,0.7-0.2,1.1,0.7C126.6,115.4,127,116.9,127.3,118.5z"/>
<path class="st2" d="M74.5,106.5c0.3,0,0.6,0,0.8,0h44.9c0.5,0,1,0.2,1.3,0.6c1.1,1.2,2.1,2.5,2.9,3.9c0.1,0.2,0.2,0.4,0.4,0.7H76.1
	C75.4,110,74.8,108.2,74.5,106.5z"/>
<path class="st2" d="M127.5,120.2c0.2,1.7,0.2,3.4,0,5c-0.2,0-0.4,0-0.6,0c-10,0-19.9,0-29.9,0c-4.9,0-9.6-1.6-13.5-4.5l-0.8-0.6
	L127.5,120.2z"/>
<path class="st2" d="M74.3,104.7c-0.2-1.7-0.2-3.4,0-5H75c9.9,0,19.9,0,29.8,0c5,0,9.8,1.7,13.8,4.8l0.2,0.2c0,0,0,0,0,0.1l0,0l0,0
	H74.7C74.5,104.8,74.5,104.7,74.3,104.7z"/>
<path class="st0" d="M137.5,171.2c-0.8-1.9-1.6-3.8-2.4-5.8s-1.6-3.8-2.4-5.6h-0.2c-0.1,0.3-0.2,0.6-0.2,0.8L130,170
	c-0.2,0.7-0.2,0.7-0.8,0.7h-1.7c0-0.6,3.9-17.2,4.3-18.2l5.7,13.1c0.4-0.1,0.4-0.4,0.5-0.7c1.2-2.7,2.3-5.3,3.5-8l1.6-3.8
	c0.1-0.2,0.2-0.4,0.4-0.6l4.2,18.1c-0.5,0.2-1,0.2-1.6,0.1c-1.1,0-1,0.1-1.3-1l-2.1-9.2c0-0.2-0.1-0.4-0.2-0.7
	c-0.4,0.8-0.8,1.6-1.1,2.4c-0.3,0.7-0.6,1.5-1,2.3l-1,2.3l-1,2.3l-1,2.3L137.5,171.2z"/>
<path class="st0" d="M164.7,162c-0.1,0.3-0.1,0.5-0.1,0.8c0,2.3,0,4.6,0,7v0.9c-0.8,0.1-1.7,0.1-2.5,0c-0.2-0.6-0.2-16.8,0-17.7
	c0.1,0,0.2-0.1,0.2-0.1c1.9,0,3.9,0,5.8,0.1c0.5,0,1.1,0.2,1.6,0.4c1.7,0.5,3,2.1,3.1,3.9c0.3,1.8-0.4,3.5-1.8,4.6
	c-0.5,0.3-1.1,0.6-1.7,0.9c-0.2,0.1-0.4,0.2-0.6,0.2c0.4,0.7,0.9,1.3,1.3,2l1.3,1.9l1.3,1.9l1.4,2H172c-1.6,0-1.2,0.2-2-1.1
	c-1.6-2.4-3.1-4.7-4.7-7.1C165.1,162.3,164.9,162.1,164.7,162L164.7,162z M164.7,160.7c0.1,0,0.2,0.1,0.3,0.1c1,0,2.1,0,3.2-0.1
	c0.8,0,1.5-0.6,1.8-1.4c0.2-0.7,0.3-1.4,0.2-2.1c-0.2-1-0.9-1.8-1.9-1.9c-0.5-0.1-1-0.1-1.5-0.2c-0.6,0-1.3,0-1.9,0
	C164.5,157,164.5,158.8,164.7,160.7L164.7,160.7z"/>
<path class="st0" d="M103.5,162.9l2.7,3.8l2.7,3.9h-1.1c-0.5,0-1,0-1.6,0c-0.4,0-0.7-0.2-0.9-0.5c-0.7-1-1.3-2-2-3l-3.1-4.6
	c-0.2-0.2-0.3-0.4-0.5-0.6c-0.4,0.2-0.3,0.5-0.3,0.8c0,2.3,0,4.6,0,7v0.9c-0.8,0.1-1.6,0.1-2.4,0c-0.2-0.5-0.2-16.4-0.1-17.7
	c0.1,0,0.2-0.1,0.3-0.1c1.9,0,3.8,0,5.7,0.1c0.7,0.1,1.5,0.3,2.1,0.6c1.9,0.9,3,3,2.6,5c-0.2,1.9-1.6,3.6-3.5,4.1L103.5,162.9z
	 M99.5,160.7c1.3,0.1,2.6,0.1,3.9-0.2c0.7-0.1,1.3-0.7,1.5-1.4c0.2-0.6,0.2-1.2,0.1-1.9c-0.1-1-0.9-1.9-1.9-2.1
	c-1.1-0.2-2.2-0.2-3.3-0.1c0,0-0.1,0-0.2,0.1L99.5,160.7z"/>
<path class="st0" d="M56.5,152.9H59c0,0.3,0,0.6,0,0.9c0,3.6,0,7.3,0,10.9c0,1.3,0.6,2.6,1.8,3.3c1.5,1,3.5,0.9,4.9-0.1
	c1.1-0.8,1.7-2,1.6-3.3c0-1.6,0-3.2,0-4.9c0-2,0-4,0-6c0-0.3,0-0.5,0-0.8h2.5c0,0.2,0,0.4,0,0.6c0,3.8,0,7.6,0,11.4
	c0.1,2.1-1,4.1-2.9,5.2c-2.2,1.3-4.8,1.4-7.1,0.3c-2.1-0.9-3.5-3-3.4-5.3c0-3.8,0-7.7,0-11.5C56.4,153.3,56.4,153.1,56.5,152.9z"/>
<path class="st0" d="M126.8,170.6c-0.9,0.1-1.8,0.1-2.7,0c-0.2,0-0.3-0.3-0.4-0.5c-0.5-1.1-1-2.1-1.5-3.2c-0.1-0.5-0.6-0.8-1.1-0.7
	c-2,0-4,0-6,0c-0.5-0.1-1,0.2-1.2,0.7c-0.4,1.1-1,2.1-1.4,3.1c-0.1,0.4-0.5,0.6-0.9,0.6c-0.5,0-1.1,0-1.6,0c-0.2,0-0.4,0-0.6-0.1
	l8.7-18.1L126.8,170.6z M118.2,158H118c-0.9,1.9-1.7,3.8-2.5,5.7c0.6,0.2,1.2,0.2,1.8,0.2c0.6,0,1.1,0,1.7,0c0.6,0.1,1.2,0,1.8-0.1
	L118.2,158z"/>
<path class="st0" d="M203.5,152.6l8.7,18c-0.5,0-0.8,0.1-1.1,0c-2.2,0-1.6,0.4-2.5-1.6c-0.4-0.8-0.7-1.6-1.1-2.4
	c-0.1-0.3-0.4-0.5-0.8-0.5c-2.2,0-4.4,0-6.5,0c-0.3,0-0.6,0.2-0.7,0.5c-0.5,1.1-1,2.2-1.5,3.3c-0.1,0.4-0.5,0.7-1,0.6
	c-0.7,0-1.4,0-2.1,0C194.9,170.1,202.8,153.6,203.5,152.6z M206,163.9c0-0.1,0-0.2,0-0.3c-0.8-1.8-1.6-3.6-2.3-5.3
	c0-0.1-0.2-0.1-0.2-0.2c-1,1.9-1.8,3.8-2.5,5.8C202.6,163.9,204.3,163.9,206,163.9L206,163.9z"/>
<path class="st0" d="M94.5,168.4v2.2c-0.2,0-0.5,0.1-0.7,0.1h-8.6c-0.2,0-0.4,0-0.6,0c-0.2-0.6-0.2-17,0-17.7c0.5-0.1,8.7-0.2,9.9,0
	c0.1,0.7,0.1,1.5,0,2.2c-0.3,0-0.5,0-0.8,0h-5.8c-0.8,0-0.8,0-0.8,0.8c0,1.3,0,2.6,0,3.9c0,0.8,0,0.8,0.9,0.8h5.3c1.1,0,1.1,0,1.1,1
	c0,1.4,0,1.2-1.3,1.3h-5.2c-0.7,0-0.8,0-0.8,0.8c0,1.3,0,2.6,0,3.9c0,0.7,0,0.8,0.8,0.8h6.6V168.4z"/>
<path class="st0" d="M149.7,152.9h9.9c0.1,0.7,0.1,1.5,0,2.2c-0.3,0-0.5,0-0.8,0h-6.2c-0.2,0-0.4,0.1-0.4,0.3c0,0,0,0,0,0
	c0,0.1,0,0.2,0,0.3c0,1.4,0,2.8,0,4.1c0,0.6,0.1,0.7,0.7,0.7h5.6c0.3,0,0.6,0,0.9,0v2.3c-0.3,0-0.5,0-0.8,0h-5.9
	c-0.2,0-0.5,0.1-0.5,0.4c0,0,0,0.1,0,0.1c0,0.3,0,0.6,0,0.8c0,1.1,0,2.2,0,3.4c0,0.8,0,0.8,0.8,0.8h6.5c0.1,0.6,0.2,1.3,0.1,1.9
	c0,0.2-0.2,0.3-0.4,0.3h-9.1c-0.3,0-0.5-0.1-0.5-0.5c0-0.4,0-0.4,0-0.6c0-5.2,0-10.4,0-15.6C149.7,153.6,149.7,153.3,149.7,152.9z"
	/>
<path class="st0" d="M194.1,156.6c-1.7-1.6-4.2-2.3-6.5-1.7c-1.6,0.3-3,1.2-4,2.5c-2,2.6-1.9,6.3,0.3,8.8c1.2,1.5,3.1,2.4,5,2.4
	c1.9,0.1,3.8-0.6,5.2-1.9c0,1,0,1.8,0,2.6c0,0.3-0.2,0.4-0.4,0.5c-0.9,0.5-1.8,0.8-2.8,1c-4,0.8-8.1-1-10.2-4.6
	c-2.6-4.5-1-10.3,3.5-12.9c0.9-0.5,1.9-0.9,3-1.1c2.1-0.4,4.4-0.1,6.3,0.9c0.4,0.2,0.7,0.6,0.6,1C194.1,155,194.1,155.7,194.1,156.6
	z"/>
<path class="st0" d="M53.9,154.8l-2,1.6c-0.2-0.2-0.3-0.4-0.5-0.6c-1-1.2-2.7-1.6-4-0.8c-0.7,0.3-1.2,1-1.3,1.8
	c-0.1,0.7,0.2,1.5,0.9,1.8c0.8,0.4,1.6,0.8,2.4,1.2c0.8,0.4,1.5,0.6,2.3,1c0.9,0.4,1.6,1,2.2,1.8c1.4,1.8,1.4,4.3,0,6.1
	c-1,1.3-2.6,2.2-4.3,2.3c-1.6,0.2-3.3-0.2-4.6-1.1c-0.9-0.6-1.6-1.4-2-2.4l1.7-1.6l0.4,0.7c1,1.8,3.3,2.6,5.2,1.8
	c0.4-0.2,0.7-0.4,1-0.6c1.1-0.9,1.4-2.5,0.5-3.7c-0.1-0.2-0.3-0.3-0.5-0.5c-0.4-0.3-0.8-0.6-1.3-0.8c-0.9-0.4-1.8-0.8-2.7-1.1
	c-0.4-0.2-0.9-0.4-1.3-0.5c-2.3-1.1-3.2-3.9-2.1-6.1c0.1-0.3,0.3-0.5,0.4-0.7c2.2-2.5,6-2.8,8.6-0.6c0.2,0.2,0.4,0.3,0.6,0.5
	C53.6,154.4,53.7,154.6,53.9,154.8z"/>
<path class="st0" d="M72.4,152.8c2.1-0.1,4.3,0,6.4,0.2c0.8,0.1,1.5,0.4,2.2,0.9c1.2,0.7,2,2,2.1,3.4c0.1,0.7,0,1.4-0.1,2.2
	c-0.4,2-2.2,3.5-4.3,3.5c-1,0-2,0-3,0c-0.3,0-0.5,0-0.9,0.1v7.4c-0.8,0.2-1.7,0.2-2.5,0C72.3,170,72.3,153.7,72.4,152.8z
	 M74.9,160.7c1.3,0.2,2.7,0.1,3.9-0.2c0.8-0.2,1.3-0.9,1.4-1.7c0-0.2,0-0.4,0.1-0.6c0.3-1.4-0.6-2.8-2.1-3.1c-0.2,0-0.4-0.1-0.6,0
	c-0.8,0-1.5,0-2.3,0c-0.1,0-0.3,0-0.4,0.1L74.9,160.7z"/>
<path class="st0" d="M178,152.9c0,0.3,0,0.6,0,0.8c0,5.3,0,10.7,0,16c0,0.1,0,0.2,0,0.3c0,0.6-0.1,0.6-0.6,0.6c-0.5,0-1.3,0-1.9,0
	c-0.2-0.6-0.3-16.7-0.1-17.8C176.3,152.8,177.1,152.8,178,152.9z"/>
<path d="M217.1,168.9c0,1-0.8,1.8-1.8,1.9c0,0,0,0-0.1,0c-1,0.1-1.9-0.7-2-1.7s0.7-1.9,1.7-2c0.1,0,0.2,0,0.3,0
	C216.2,167,217.1,167.8,217.1,168.9C217.1,168.8,217.1,168.9,217.1,168.9z M215.3,167.2c-0.9,0-1.7,0.7-1.7,1.6s0.7,1.7,1.6,1.7
	c0.9-0.1,1.6-0.9,1.6-1.8C216.7,168,216.1,167.3,215.3,167.2z"/>
<path class="st1" d="M164.7,160.7c-0.2-1.8-0.2-3.7,0-5.6c0.6,0,1.3,0,1.9,0c0.5,0,1,0.1,1.5,0.2c1,0.2,1.7,1,1.9,1.9
	c0.1,0.7,0.1,1.4-0.2,2.1c-0.3,0.8-1,1.3-1.8,1.4c-1,0.1-2.1,0.1-3.2,0.1C164.8,160.7,164.7,160.7,164.7,160.7z"/>
<path class="st1" d="M99.5,160.7v-5.5c0.1-0.1,0.1-0.1,0.2-0.1c1.1-0.1,2.2-0.1,3.3,0.1c1,0.2,1.8,1,1.9,2.1
	c0.1,0.6,0.1,1.3-0.1,1.9c-0.2,0.7-0.7,1.2-1.4,1.4C102.1,160.8,100.8,160.9,99.5,160.7z"/>
<path class="st1" d="M118.2,158l2.5,5.7c-0.6,0.2-1.2,0.2-1.8,0.1c-0.6,0-1.1,0-1.7,0c-0.6,0.1-1.2,0-1.8-0.2
	c0.8-1.9,1.6-3.8,2.5-5.7L118.2,158z"/>
<path class="st1" d="M206,163.9c-1.7,0-3.4,0-5,0c0.7-2,1.5-4,2.5-5.8c0.1,0.1,0.2,0.1,0.2,0.2c0.8,1.8,1.6,3.6,2.3,5.3
	C206,163.7,206,163.8,206,163.9z"/>
<path class="st1" d="M75,160.7v-5.5c0.1,0,0.3-0.1,0.4-0.1c0.8,0,1.5,0,2.3,0c1.5-0.1,2.7,1.1,2.8,2.6c0,0.2,0,0.4,0,0.6
	c0,0.2,0,0.4-0.1,0.6c-0.1,0.8-0.7,1.4-1.4,1.7C77.6,160.8,76.3,160.9,75,160.7z"/>
<path class="st1" d="M215.2,167.2c0.9,0.1,1.6,0.9,1.5,1.8c-0.1,0.8-0.7,1.4-1.6,1.5c-0.9,0-1.7-0.8-1.6-1.7
	S214.3,167.2,215.2,167.2z M215.5,169.1c0.5-0.5,0.6-0.7,0.4-1s-0.8-0.3-1.3-0.2v1.7c0-0.1,0-0.1,0.1-0.2c0.1-0.1,0.2-0.3,0.2-0.5
	c0.2,0.1,0.3,0.2,0.5,0.3c0.1,0.1,0.1,0.2,0.2,0.3c0.1,0.1,0.1,0.1,0.2,0.2l0,0L215.5,169.1z"/>
<path d="M215.5,169.1l0.4,0.6l0,0c-0.1-0.1-0.1-0.1-0.2-0.2c-0.1-0.1-0.1-0.2-0.2-0.3c-0.2-0.1-0.3-0.2-0.5-0.3
	c-0.1,0.2-0.2,0.3-0.2,0.5c-0.1,0.2,0,0.1-0.1,0.2V168c0.5-0.1,0.9-0.3,1.3,0.2C216.3,168.5,216,168.6,215.5,169.1z M215.1,168.9
	c0.4,0,0.6-0.2,0.7-0.4c0-0.3-0.2-0.5-0.6-0.5c-0.4,0-0.5,0.1-0.5,0.4S214.9,168.9,215.1,168.9L215.1,168.9z"/>
<path class="st1" d="M215.1,168.8c-0.3,0-0.4-0.1-0.4-0.4c0-0.3,0.1-0.5,0.5-0.4s0.6,0.2,0.6,0.5S215.5,168.9,215.1,168.8z"/>
</svg>
