<?xml version="1.0" encoding="utf-8"?>
<!-- Generator: Adobe Illustrator 21.1.0, SVG Export Plug-In . SVG Version: 6.00 Build 0)  -->
<svg version="1.1" id="Layer_1" xmlns="http://www.w3.org/2000/svg" xmlns:xlink="http://www.w3.org/1999/xlink" x="0px" y="0px"
	 viewBox="0 0 250 250" style="enable-background:new 0 0 250 250;" xml:space="preserve">
<style type="text/css">
	.st0{fill:#CC0000;}
</style>
<g>
	<title>Supercenters</title>
	<path class="st0" d="M125.3,59.8c31.7,0,57.4,25.6,57.4,57.3c0,31.7-25.6,57.4-57.3,57.4c-31.7,0-57.4-25.6-57.4-57.3
		c0,0,0-0.1,0-0.1C68.1,85.5,93.7,59.8,125.3,59.8z M125.3,78.9c-21.1,0-38.3,17.2-38.2,38.3c0,21.1,17.2,38.3,38.3,38.2
		c21.1,0,38.2-17.1,38.2-38.3C163.6,96,146.5,78.8,125.3,78.9C125.3,78.9,125.3,78.9,125.3,78.9L125.3,78.9z"/>
	<path d="M119.1,189.3c0.1,0.1,0.1,0.1,0.2,0.2c1.2,0.4,2.1,1.4,2.5,2.7c0.2,0.8,0.4,1.7,0.4,2.5c0,1,0.1,1.9,0.2,2.9
		c0.1,0.6,0.3,1.1,0.5,1.6c-0.1,0.2-0.3,0.1-0.5,0.1H119c-0.5,0-0.6,0-0.7-0.5c-0.2-0.9-0.3-1.8-0.4-2.8c0-0.7-0.1-1.5-0.3-2.2
		c-0.1-0.4-0.2-0.7-0.3-1.1c-0.3-0.8-1-1.3-1.8-1.5c-0.4-0.1-0.8-0.1-1.1-0.1h-4.2c-0.6,0-0.6,0-0.6,0.6c0,2.3,0,4.5,0,6.8
		c0,0.2,0,0.3,0,0.5c0,0.2-0.1,0.4-0.4,0.4h-1.5c-0.8,0-1.5,0-2.3,0c-0.3,0-0.5-0.1-0.5-0.4c0-0.1,0-0.3,0-0.4c0-6.5,0-13,0-19.5
		c0-0.8-0.1-0.8,0.7-0.8h10.6c0.9,0,1.7,0.1,2.6,0.4c2.5,1,4,3.5,3.6,6.1c-0.1,1.2-0.6,2.4-1.4,3.3
		C120.5,188.6,119.8,189,119.1,189.3z M112.6,187.7h2.4h0.4c1.1,0,2.1-0.8,2.3-1.8c0.1-0.5,0.2-1,0.1-1.5c0-1.4-1.1-2.6-2.5-2.6
		c-0.1,0-0.1,0-0.2,0c-1.7-0.1-3.5,0-5.2,0c-0.3,0-0.4,0.1-0.4,0.4c0,1.7,0,3.4,0,5.1c0,0.3,0.1,0.4,0.5,0.4
		C110.9,187.7,111.7,187.7,112.6,187.7L112.6,187.7z"/>
	<path d="M140.9,196.9l-0.5,0.5c-1.3,1.4-3.1,2.3-5,2.3c-2.9,0.2-5.8-1-7.8-3.1c-1.3-1.5-2.2-3.3-2.6-5.3c-0.5-2.5-0.3-5,0.6-7.4
		c1.2-3.4,4.3-5.8,7.9-6.2c2-0.3,4.1,0,6,0.9c2.4,1.1,4,3.4,4.4,6c0,0.1,0,0.2,0,0.3c-0.4,0.1-0.9,0.1-1.3,0c-0.9,0-1.8,0-2.6,0
		c-0.3,0-0.5-0.1-0.6-0.4c0,0,0,0,0,0c-0.4-1.5-1.6-2.6-3.1-3c-2.4-0.7-5,0.5-6.1,2.8c-0.4,0.9-0.7,1.9-0.8,2.9
		c-0.2,1.6,0,3.3,0.5,4.8c0.5,1.7,1.9,3,3.6,3.5c1.2,0.3,2.5,0.3,3.7-0.1c1.7-0.6,2.9-2.2,3-4c0-0.3-0.1-0.3-0.4-0.3h-3.9
		c-0.3,0-0.4-0.1-0.4-0.4c0-0.9,0-1.8,0-2.6c0-0.4,0.2-0.4,0.5-0.4h7.7c0.6,0,0.6,0,0.6,0.6c0,3.4,0,6.8,0,10.2c0,0.5,0,0.5-0.5,0.5
		c-0.5,0-1.3,0-1.9,0c-0.5,0-0.5,0-0.6-0.5C141.2,198.1,141.1,197.5,140.9,196.9z"/>
	<path d="M147.5,188.7c0-3.2,0-6.4,0-9.7c0-0.2,0-0.3,0-0.5c0-0.2,0.1-0.3,0.4-0.3h15c0.2,0,0.3,0.1,0.3,0.3c0,1,0,2.1,0,3.1
		c0,0.3-0.1,0.4-0.4,0.4c-0.3,0-0.4,0-0.6,0H153c-0.1,0-0.3,0-0.5,0c-0.4,0-0.4,0.1-0.4,0.5c0,1.2,0,2.3,0,3.5c0,0.6,0,0.6,0.6,0.6
		h9.3c0.2,0,0.3,0.1,0.3,0.3c0,1,0,2,0,2.9c0,0.2-0.1,0.3-0.3,0.3h-9c-0.1,0-0.3,0-0.5,0c-0.3,0-0.4,0.1-0.4,0.4c0,1.5,0,2.9,0,4.4
		c0,0.3,0.1,0.4,0.4,0.4c0.1,0,0.3,0,0.5,0h9.7c0.1,0,0.3,0,0.5,0c0.4,0,0.4,0.1,0.4,0.5c0,1,0,2,0,2.9c0,0.5,0,0.5-0.5,0.5h-14.7
		c-0.9,0-0.8,0-0.8-0.8C147.5,195.2,147.5,192,147.5,188.7z"/>
	<path d="M103,199.1c-0.1,0.1-0.3,0.2-0.5,0.1h-3.7c-0.5,0-0.5,0-0.7-0.5c-0.4-1.2-0.8-2.5-1.2-3.7c-0.1-0.3-0.4-0.5-0.7-0.5
		c-2.3,0-4.6,0-6.9,0c-0.3,0-0.6,0.2-0.7,0.5c-0.4,1.3-0.9,2.5-1.3,3.7c-0.1,0.3-0.2,0.5-0.5,0.5c-1.3,0-2.7,0-4,0
		c-0.1,0-0.1,0-0.2-0.1c0-0.2,0-0.4,0.1-0.6c2.5-6.6,5-13.2,7.5-19.8c0.2-0.6,0.1-0.6,0.8-0.6h3.6c0.6,0,0.5-0.1,0.8,0.5l4.7,12.5
		l2.8,7.4C102.9,198.8,102.9,199,103,199.1z M92.8,183.4c-1.1,2.5-2,5.1-2.7,7.7h5.4L92.8,183.4z"/>
	<path d="M75.8,178.2h8.3c0.2,0,0.3,0.1,0.3,0.3c0,1.1,0,2.2,0,3.2c0,0.2-0.1,0.3-0.3,0.3h-5.3c-0.7,0-0.7,0-0.7,0.7
		c0,4.7,0,9.4,0,14.2c0,0.6,0,1.2,0,1.8c0,0.6,0,0.6-0.5,0.6c-1.2,0-2.4,0-3.6,0c-0.5,0-0.5,0-0.5-0.5c0-0.2,0-0.3,0-0.5
		c0-5.1,0-10.3,0-15.4c0-0.9,0-0.8-0.8-0.8h-5c-0.6,0-0.6,0-0.6-0.5c0-0.9,0-1.8,0-2.7c0-0.6,0-0.6,0.6-0.6L75.8,178.2L75.8,178.2z"
		/>
	<path d="M174.3,178.2h7.7c0.1,0,0.3,0,0.5,0c0.1,0,0.4,0.1,0.4,0.4c0,1,0,2,0,3.1c0,0.3-0.1,0.4-0.4,0.4c-0.7,0-1.4,0-2.1,0H177
		c-0.5,0-0.5,0-0.5,0.5s0,0.9,0,1.4c0,4.8,0,9.6,0,14.5c0,0.2,0,0.3,0,0.5c0,0.2-0.1,0.3-0.4,0.3h-3.9c-0.2,0-0.4-0.1-0.3-0.4
		c0-0.2,0-0.3,0-0.5c0-5.1,0-10.2,0-15.4c0-1.1,0.1-1-1-1h-4.8c-0.5,0-0.5,0-0.5-0.5c0-0.9,0-1.9,0-2.8c0-0.5,0-0.5,0.5-0.5
		L174.3,178.2L174.3,178.2z"/>
	<path class="st0" d="M125.3,136.7c-10.9,0-19.6-8.8-19.6-19.6s8.8-19.6,19.6-19.6c10.9,0,19.6,8.8,19.6,19.6v0
		C145,127.9,136.3,136.7,125.3,136.7C125.4,136.7,125.4,136.7,125.3,136.7z"/>
</g>
</svg>
