<?xml version="1.0" encoding="utf-8"?>
<!-- Generator: Adobe Illustrator 21.1.0, SVG Export Plug-In . SVG Version: 6.00 Build 0)  -->
<svg version="1.1" id="Layer_1" xmlns="http://www.w3.org/2000/svg" xmlns:xlink="http://www.w3.org/1999/xlink" x="0px" y="0px"
	 viewBox="0 0 250 250" style="enable-background:new 0 0 250 250;" xml:space="preserve">
<style type="text/css">
	.st0{fill:#CA1D21;}
	.st1{fill:#00782C;}
</style>
<title>Grocery</title>
<g>
	<path class="st0" d="M56.8,54.4c2,0.1,4,0.5,5.8,1.3c0.2,0.1,0.5,0.1,0.7,0.1c0.5-0.1,0.9-0.3,1.3-0.5c0.2-0.1,0.5-0.1,0.7-0.1
		c1,0,2,0.9,3,2.7c1,1.5,1.6,3.2,1.6,5c0,0.8-0.2,1.7-0.7,2.4c-0.4,0.6-1.1,1-1.8,1c-0.5,0-1-0.1-1.4-0.4c-0.8-0.7-1.6-1.5-2.4-2.4
		c-1.2-1.6-3.1-2.6-5.1-2.8c-0.7,0-1.4,0.2-1.9,0.7C56.3,61.7,56,62.4,56,63c0,1.4,1.1,2.5,3.3,3.3c2,0.6,3.9,1.3,5.7,2.2
		c3.5,1.7,5.6,5.3,5.5,9.1c0.1,3.3-1.3,6.5-3.8,8.7c-2.8,2.4-6.4,3.6-10,3.5c-2,0-3.9-0.3-5.8-0.8c-1.6-0.3-3.1-0.9-4.4-1.8
		c-0.9-1-1.6-2.2-1.9-3.5c-0.5-1.7-0.8-3.5-0.8-5.2c0-0.6,0.1-1.3,0.4-1.8c0.3-0.5,0.8-0.8,1.4-0.8c0.6,0.1,1.2,0.4,1.6,1
		c0.8,1.1,1.4,2.3,2.1,3.5c0.6,1,1.5,1.8,2.5,2.3c1.1,0.6,2.3,0.9,3.6,0.9c0.9,0,1.8-0.2,2.6-0.7c0.6-0.4,1-1,1-1.8
		c0-0.7-0.3-1.3-0.8-1.7c-0.7-0.6-1.6-1.1-2.5-1.3c-1.6-0.6-3.2-1.3-4.7-2.1c-1.1-0.6-2.1-1.4-3-2.4c-2.2-2.1-3.4-4.9-3.4-7.9
		c0-1.5,0.3-2.9,0.9-4.3c0.6-1.4,1.4-2.6,2.5-3.6C50.3,55.5,53.5,54.3,56.8,54.4z"/>
	<path class="st0" d="M104,67.5v6.1c0.1,2.6-0.1,5.3-0.7,7.8c-1,3.3-3.5,5.8-6.7,7c-2.3,0.9-4.7,1.4-7.1,1.3
		c-4.1,0.2-8-1.2-11.1-3.8c-1.3-1.2-2.3-2.7-2.8-4.3c-0.6-2.3-0.9-4.7-0.8-7.1c0-1.2,0-3.2,0.1-6c0-2,0-3.3,0-3.9c0-1,0-1.9-0.3-2.9
		c-0.2-0.6-0.6-1.1-1.2-1.5c-0.8-0.5-1.4-1.4-1.4-2.4c0-0.6,0.3-1.3,0.7-1.7c0.5-0.5,1.2-0.9,1.9-1c1.9-0.4,3.8-0.6,5.7-0.6
		c2,0,4,0.2,5.9,0.6c1.4,0.2,2.3,1.4,2.3,2.7c0,0.6-0.2,1.2-0.7,1.7c-0.4,0.3-0.8,0.5-1.3,0.8c-0.5,0.3-0.8,0.7-0.9,1.3
		c-0.2,1-0.3,2-0.2,3c0,1.4-0.1,4.5-0.2,9.4c-0.2,2.4,0.5,4.7,2.1,6.5c1.1,1.2,2.8,1.9,4.5,1.8c1.1,0,2.2-0.2,3.1-0.7
		c0.9-0.5,1.6-1.2,2.1-2.1c0.4-0.6,0.7-1.3,0.8-2.1c0.2-1.1,0.2-2.2,0.2-3.3v-5.5c-0.1-4.1-0.2-6.6-0.3-7.4
		c-0.2-0.8-0.7-1.4-1.4-1.7c-0.6-0.3-1.1-0.6-1.5-1.1c-0.3-0.3-0.4-0.8-0.4-1.2c0-1,0.6-1.9,1.5-2.2c1.6-0.5,3.3-0.8,5-0.7
		c1.6-0.1,3.3,0.1,4.9,0.7c0.9,0.3,1.5,1.1,1.5,2.1c0,0.4-0.1,0.8-0.2,1.1c-0.4,0.4-0.9,0.8-1.4,1.1c-0.6,0.3-1.1,0.9-1.3,1.6
		C104.1,61.7,104,63.8,104,67.5z"/>
	<path class="st0" d="M112.2,77.4V64.2c0.1-1.1,0-2.2-0.3-3.2c-0.4-0.6-1-1-1.6-1.1c-1.3-0.4-1.9-1.2-1.9-2.2c0-0.7,0.3-1.3,0.8-1.7
		c0.7-0.4,1.5-0.7,2.4-0.6h2.6h1.3h4.1l4.4-0.4c0.8-0.1,1.5-0.1,2.3-0.1c2.2,0,4.3,0.6,6.2,1.7c3.2,1.9,5.1,5.5,4.8,9.2
		c0.1,3.1-1.1,6.1-3.4,8.2c-2.1,1.9-4.8,2.9-7.6,2.9c-0.9,0-1.9-0.1-2.8-0.2h-1.1c-0.4,0-0.6,0.3-0.6,0.8v0.1l0.1,4.1
		c0,0.6,0.1,1.2,0.4,1.8c0.4,0.5,0.8,0.9,1.4,1.2c0.9,0.6,1.4,1.2,1.4,1.9c0,1.1-0.7,1.9-2.1,2.4c-1.9,0.6-3.9,0.9-5.9,0.9
		c-5.3,0-8-1.1-8-3.2c0-0.4,0.1-0.8,0.4-1.1c0.5-0.5,1-0.8,1.6-1.1c0.5-0.3,0.8-0.8,0.9-1.3C112.1,82.3,112.2,80.4,112.2,77.4z
		 M122,61.1v8.5c0,0.6,0.1,1,0.4,1.2c0.5,0.2,1,0.4,1.6,0.4c0.9,0,1.8-0.3,2.4-0.9c1.1-1.2,1.6-2.8,1.4-4.4c0.2-1.7-0.4-3.4-1.6-4.7
		c-0.7-0.6-1.6-1-2.5-0.9C122.5,60.1,122,60.4,122,61.1z"/>
	<path class="st0" d="M143.3,55.1h11.1c2.2,0,3.9-0.1,4.9-0.2c1-0.1,2-0.3,3-0.7c1.1-0.4,2.3,0.1,2.7,1.2c0,0,0,0,0,0
		c1,1.7,1.5,3.6,1.4,5.5c0,0.9-0.2,1.8-0.6,2.6c-0.3,0.6-1,0.9-1.6,0.9c-0.4,0-0.8-0.1-1.1-0.3c-0.4-0.4-0.8-1-1.1-1.5
		c-0.5-1-1.4-1.8-2.4-2.2c-1.6-0.5-3.2-0.6-4.8-0.6c-1.7,0-2.7,0.3-3,1c-0.2,0.5-0.3,1-0.3,1.5c0,0.6,0,2.2,0,4.7
		c0,1,0.1,1.6,0.4,1.9c0.7,0.3,1.5,0.4,2.3,0.4c0.5,0,1-0.1,1.3-0.4c0.3-0.5,0.5-1,0.5-1.6c0-0.7,0.1-1.4,0.3-2.1
		c0.1-0.4,0.3-0.7,0.6-0.9c0.3-0.3,0.7-0.5,1.1-0.5c0.7,0.1,1.3,0.5,1.5,1.2c0.4,0.8,0.7,1.7,0.8,2.6c0.2,1.3,0.3,2.6,0.3,3.8
		c0.1,2.2-0.3,4.4-1.1,6.5c-0.2,0.8-0.9,1.3-1.8,1.4c-0.4,0-0.8-0.1-1-0.4c-0.3-0.6-0.4-1.2-0.4-1.8c-0.2-1.9-1.2-2.8-2.8-2.8
		c-0.5-0.1-1.1,0.2-1.3,0.7c-0.3,0.8-0.4,1.7-0.4,2.6c0,0.8,0,1.8,0.1,3c0,0.8,0.1,1.7,0.3,2.5c0.1,0.5,0.6,0.9,1.1,1
		c1,0.2,2,0.3,3,0.3c1.7,0.1,3.4-0.2,4.9-1c1.2-0.8,2.2-2.1,2.7-3.5c0.3-0.7,0.6-1.4,1.1-1.9c0.3-0.3,0.8-0.5,1.3-0.5
		c0.6,0,1.2,0.4,1.5,0.9c0.4,0.7,0.6,1.5,0.6,2.3c0,1.3-0.3,2.5-0.7,3.8c-0.4,1.4-0.9,2.7-1.6,4c-0.2,0.4-0.5,0.8-0.8,1.1
		c-0.2,0.2-0.5,0.3-0.8,0.3c-0.4,0-0.8-0.1-1.2-0.1c-1.2-0.2-2.5-0.4-3.7-0.4h-18.4c-0.6,0-1.2-0.2-1.7-0.6c-0.4-0.4-0.6-1-0.6-1.6
		c0-0.4,0.1-0.7,0.3-1.1c0.3-0.3,0.7-0.6,1.2-0.8c0.4-0.2,0.7-0.4,1-0.8c0.2-0.4,0.4-0.9,0.5-1.4c0.5-3.4,0.8-6.8,0.7-10.2
		c0-6.4-0.3-10.5-1-12.2c-0.1-0.3-0.3-0.5-0.5-0.7c-0.3-0.2-0.7-0.4-1.1-0.5c-0.8-0.3-1.3-1-1.2-1.9c0-0.5,0.1-1,0.4-1.4
		c0.2-0.4,0.6-0.7,1.1-0.8C141.1,55.2,142.2,55,143.3,55.1z"/>
	<path class="st0" d="M183.6,74.8c-0.4-0.1-0.9,0.2-1,0.6c-0.2,0.9-0.3,1.8-0.2,2.7c0,1.7,0.1,3.3,0.4,4.9c0.1,0.3,0.2,0.5,0.3,0.8
		c0.2,0.3,0.5,0.5,0.8,0.7c0.8,0.4,1.3,1.2,1.3,2.1c0,1.1-0.7,2.1-1.8,2.3c-2,0.6-4,0.8-6.1,0.7c-5.3,0-8-1.2-8-3.5
		c0-0.3,0.1-0.7,0.2-1c0.3-0.4,0.7-0.7,1.1-1c0.6-0.4,1-1,1.3-1.7c0.3-1.1,0.4-2.3,0.5-3.4c0.1-1.2,0.1-5.4,0.1-12.7
		c0.1-1.6-0.1-3.2-0.3-4.7c-0.1-0.8-0.6-1.4-1.3-1.8c-0.5-0.2-0.9-0.6-1.3-1c-0.2-0.3-0.3-0.7-0.3-1.1c0-0.6,0.2-1.2,0.6-1.6
		c0.5-0.5,1.1-0.8,1.7-1c0.8-0.2,1.7-0.3,2.6-0.3c0.5,0,1.7,0.1,3.6,0.2c0.4,0,0.9,0,1.7,0c1.3,0,3-0.1,5.2-0.3
		c1.4-0.1,2.3-0.2,2.9-0.2c2.8-0.1,5.5,0.8,7.7,2.6c1.8,1.6,2.8,4,2.7,6.4c0,1.4-0.3,2.9-1,4.1c-0.6,1.2-1.5,2.2-2.6,2.8
		c-0.4,0.2-0.7,0.5-0.7,1c0,0.5,0.4,0.9,1.1,1.2c1.4,0.5,2.6,1.6,3.3,2.9c0.9,1.9,1.4,3.9,1.5,5.9c0,0.7,0.2,1.4,0.6,2.1
		c0.5,0.5,1.1,0.8,1.7,0.9c0.3,0.1,0.5,0.4,0.7,0.6c0.2,0.3,0.3,0.7,0.3,1.1c0,0.6-0.2,1.1-0.5,1.6c-0.3,0.5-0.8,0.9-1.3,1.2
		c-1.6,0.7-3.3,1.1-5,1c-2.3,0.2-4.6-0.7-6-2.6c-0.6-0.9-1.1-1.9-1.4-2.9c-0.4-1.2-0.8-3-1.3-5.4c-0.2-1.2-0.6-2.3-1.3-3.3
		C185.2,75.1,184.4,74.8,183.6,74.8z M182.3,62.1l-0.2,5.8v0.2c0,0.4,0,0.8,0.2,1.2c0.2,0.2,0.6,0.3,0.9,0.3c1,0.1,2.1-0.3,2.8-1.1
		c0.7-1.1,1-2.4,0.9-3.6c0-3.2-1-4.8-3-4.8c-0.4,0-0.9,0.1-1.2,0.5C182.4,61,182.3,61.5,182.3,62.1L182.3,62.1z"/>
</g>
<g>
	<path class="st1" d="M86.2,120.2h6c0.6-3.3,1.8-6.4,3.4-9.3c1.2-2,2.9-3.6,4.9-4.8c1.7-1.1,3.7-1.7,5.7-1.8
		c0.8-0.1,1.6,0.2,2.3,0.6c0.5,0.3,0.8,0.9,0.8,1.4c0,0.5-0.2,0.9-0.5,1.2c-0.4,0.3-0.9,0.5-1.4,0.5c-1.1-0.1-2.2-0.3-3.3-0.5
		c-0.6-0.1-1.2-0.2-1.9-0.2c-1.3,0.1-2.4,0.9-3,2.1c-1,1.7-1.7,3.6-2.1,5.5l-1.2,5.3h6.6l-0.4,1.8h-6.9l-3.9,15.9
		c-0.8,4.2-2.9,8-5.8,11c-2.3,2.3-5.4,3.7-8.7,3.8c-0.8,0.1-1.7-0.2-2.4-0.6c-0.5-0.3-0.8-0.9-0.8-1.5c0-0.5,0.2-0.9,0.6-1.2
		c0.5-0.3,1-0.5,1.6-0.5c0.5,0,1,0.1,1.6,0.1c1.1,0.1,2.2,0.2,3.3,0.2c1.3,0.1,2.6-0.3,3.6-1.2c1.1-1.7,1.9-3.6,2.2-5.7l5.1-20.4h-6
		L86.2,120.2z"/>
	<path class="st1" d="M105,143.3h-3.7l1.7-7.9c0.8-3.9,1.6-7.5,2.2-11c0.1-0.5,0.2-1.1,0.2-1.6c0-0.5-0.2-0.7-0.5-0.7
		c-0.4,0.1-0.8,0.3-1.1,0.6c-1.5,1.4-3,2.9-4.3,4.5l-0.8-1c1.8-2.3,3.9-4.3,6.2-6.1c1.1-0.8,2.3-1.3,3.7-1.5c0.3,0,0.5,0.1,0.7,0.2
		c0.2,0.2,0.3,0.4,0.3,0.6c-0.1,0.7-0.2,1.4-0.3,2.1l-1.1,5.2c2.2-3.3,4.8-6.3,7.7-9.1c0.6-0.8,1.5-1.4,2.6-1.6
		c0.5,0,0.9,0.2,1.2,0.6c0.7,0.8,0.7,1.9,0,2.7c-0.7,0.6-1.5,1-2.4,1.3c-1.7,0.8-3.3,1.8-4.8,3c-1,0.9-1.8,2-2.6,3.1
		c-0.8,1.1-1.5,2.3-2.1,3.5c-0.7,2.4-1.3,4.8-1.7,7.3L105,143.3z"/>
	<path class="st1" d="M130.1,132.3l0.8,1.3c-4.1,4.4-7.6,6.6-10.5,6.6c-1.1,0.1-2.1-0.5-2.7-1.4c-0.7-1.3-1.1-2.9-0.9-4.4
		c0-4.3,1.2-8.4,3.2-12.2c2.4-4.6,5.3-6.9,8.7-6.9c1-0.1,2,0.3,2.7,1c0.7,0.8,1,1.8,0.9,2.8c0,1.3-0.4,2.6-1.1,3.7
		c-1.1,1.5-2.4,2.8-4,3.7c-1,0.6-3,1.8-6.2,3.4c-0.1,1-0.2,2-0.2,2.9c-0.1,1,0.1,2,0.6,2.8c0.4,0.5,1,0.8,1.6,0.8
		c0.8,0,1.6-0.3,2.2-0.7C126.9,134.8,128.5,133.6,130.1,132.3z M121.3,128.1c2.3-1.1,4.3-2.6,6-4.4c0.8-0.9,1.3-2.1,1.4-3.3
		c0-0.7-0.2-1.4-0.6-1.9c-0.3-0.5-0.9-0.7-1.5-0.7c-0.7,0-1.3,0.3-1.8,0.8c-0.9,0.9-1.7,2-2.1,3.2
		C122.1,123.8,121.6,126,121.3,128.1L121.3,128.1z"/>
	<path class="st1" d="M144.6,111.4c1.4-0.1,2.7,0.3,3.8,1.1c0.8,0.6,1.3,1.5,1.4,2.6c0,0.6-0.2,1.1-0.5,1.5
		c-0.3,0.4-0.8,0.7-1.4,0.7c-0.3,0-0.6-0.1-0.9-0.3c-0.4-0.4-0.8-0.9-1.1-1.4c-0.9-1.4-1.8-2.1-2.7-2.1c-0.8,0-1.6,0.4-2.1,1
		c-0.6,0.7-0.9,1.6-0.9,2.6c0,0.9,0.2,1.8,0.6,2.6c0.8,1.4,1.8,2.8,2.8,4c1.8,2,3,4.5,3.2,7.2c0,2.3-0.8,4.4-2.4,6
		c-1.7,1.7-4,2.7-6.4,2.6c-1.8,0.2-3.5-0.4-4.9-1.5c-1.1-1-1.7-2.4-1.7-3.8c0-0.7,0.2-1.3,0.6-1.9c0.3-0.5,0.9-0.8,1.5-0.8
		c0.5,0,1,0.2,1.3,0.6c0.4,0.4,0.6,0.9,0.6,1.4c0,0.2,0,0.5,0,0.9c0,0.4,0,0.5,0,0.7c0,0.7,0.3,1.3,0.8,1.8c0.6,0.5,1.3,0.8,2.1,0.7
		c0.9,0,1.8-0.2,2.6-0.6c0.8-0.4,1.4-1.1,1.7-1.8c0.4-0.7,0.6-1.6,0.6-2.4c0-0.8-0.2-1.6-0.6-2.3c-0.8-1.3-1.7-2.6-2.7-3.8
		c-1.7-2-2.7-4.5-2.9-7.1c-0.1-2.1,0.7-4,2.1-5.6C140.4,112.3,142.4,111.4,144.6,111.4z"/>
	<path class="st1" d="M155.6,102.4l-3,0.7l0.3-2.9l7.4-1.4l-1,4.7l-3.2,15.5c2.2-2.5,4.7-4.7,7.4-6.6c1.1-0.9,2.4-1.4,3.8-1.6
		c0.7,0,1.3,0.2,1.8,0.7c0.5,0.6,0.7,1.3,0.6,2.1c0,0.7-0.1,1.4-0.2,2.1c-0.2,1.2-0.8,3.5-1.8,6.7c-1.2,4.5-2,7.2-2.2,8.3
		c-0.2,1-0.3,1.9-0.3,2.9c0,0.3,0,0.7,0.2,0.7c0.9,0.3,4.8-6.4,5.8-8.2l1.7,0.8c-1.6,2.7-4.6,8.5-6.5,9.8c-0.8,0.8-2,1.3-3.1,1.3
		c-0.7,0-1.3-0.3-1.6-0.9c-0.5-0.8-0.7-1.8-0.6-2.7c0-1.2,0.2-2.5,0.5-3.7c0.3-1.6,1.2-5.1,2.7-10.4c0.4-1.5,0.8-3,1-4.5
		c0.1-0.5-0.3-0.9-0.7-1c-0.1,0-0.2,0-0.2,0c-1.1,0.1-2.2,0.6-3,1.3c-1.8,1.3-3.3,2.8-4.5,4.6c-1,1.6-1.7,3.4-2.1,5.3l-2.3,10.9H148
		c0.9-3.7,1.6-6.6,2.1-8.9l4.1-20.1L155.6,102.4z"/>
</g>
<g>
	<path class="st0" d="M75.6,161.5V194h-9.3v-22l-3.7,22h-6.6l-3.9-21.5V194h-9.3v-32.5h13.7c0.4,2,0.8,4.3,1.3,6.9l1.5,8.3l2.4-15.2
		L75.6,161.5z"/>
	<path class="st0" d="M98.2,161.5l6.1,32.5H93.5l-0.6-5.8h-3.8l-0.6,5.8h-11l5.4-32.5H98.2z M92.6,182.4c-0.5-3.7-1.1-8.2-1.6-13.7
		c-1.1,6.2-1.8,10.8-2.1,13.7H92.6z"/>
	<path class="st0" d="M106,161.5h7.5c3.4-0.1,6.8,0.1,10.2,0.5c1.7,0.3,3.2,1.1,4.3,2.4c1.3,1.8,1.9,3.9,1.7,6.1
		c0.2,1.8-0.2,3.6-1.2,5.1c-1.3,1.1-3,1.6-4.7,1.6c1.5,0.2,2.9,0.8,4.1,1.7c0.6,0.5,1.1,1.2,1.3,1.9c0.2,1.6,0.3,3.2,0.3,4.8v8.6
		h-9.9v-10.9c0.1-1.1-0.1-2.2-0.5-3.2c-0.3-0.4-1.3-0.6-2.7-0.6V194h-10.6L106,161.5z M116.6,167v7.2c0.9,0.1,1.7-0.1,2.5-0.4
		c0.5-0.3,0.7-1.1,0.7-2.6v-1.8c0.1-0.8-0.1-1.5-0.7-2.1C118.4,167.1,117.5,166.9,116.6,167z"/>
	<path class="st0" d="M159.1,161.5l-6.1,14.7l6.7,17.9h-11l-4.3-14v14h-10.6v-32.6h10.6v12.7l4.7-12.7H159.1z"/>
	<path class="st0" d="M161.5,161.5h17.7v6.5h-7.1v6.2h6.6v6.2h-6.6v7.2h7.8v6.5h-18.4V161.5z"/>
	<path class="st0" d="M203.6,161.5v6.5h-6.2v26h-10.6v-26h-6.2v-6.5H203.6z"/>
</g>
</svg>
