<?xml version="1.0" encoding="utf-8"?>
<!-- Generator: Adobe Illustrator 21.1.0, SVG Export Plug-In . SVG Version: 6.00 Build 0)  -->
<svg version="1.1" id="Layer_1" xmlns="http://www.w3.org/2000/svg" xmlns:xlink="http://www.w3.org/1999/xlink" x="0px" y="0px"
	 viewBox="0 0 250 250" style="enable-background:new 0 0 250 250;" xml:space="preserve">
<style type="text/css">
	.st0{fill:#FFD000;stroke:#494848;stroke-miterlimit:10;}
</style>
<title>Grocery</title>
<g>
	<path class="st0" d="M133.6,105.5h-16.5c0,0-11.9,0-11.9,13.4s13.7,12.1,13.7,12.1h4c0,0,1.1,0,1.2,0.9c0.1,0.9-1.1,1.1-1.1,1.1
		h-16.8v11.8h18.4c0,0,10.7-0.3,10.6-12.6S125.2,120,125.2,120l-8.3,0.1c0,0-0.8-0.1-0.8-1.8c0,0-0.1-1.1,1.2-1.1
		c1.3,0,16.5,0,16.5,0L133.6,105.5z"/>
	<path class="st0" d="M244,112.4h-10.8c0,0-7.7,0-7.7,8.7s8.9,7.8,8.9,7.8h2.7c0,0,0.7,0,0.8,0.6c0,0.6-0.7,0.7-0.7,0.7h-10.9v7.7
		h12c0,0,7-0.2,6.9-8.2c-0.1-8-6.5-8-6.5-8h-5.3c0,0-0.5-0.1-0.5-1.2c0,0,0-0.7,0.8-0.7h10.7L244,112.4z"/>
	<path class="st0" d="M191.3,112.4c-3.7,0-7.2,1.6-9.7,4.4c-4.6-5.3-12.7-5.9-18.1-1.3c-5.3,4.6-5.9,12.7-1.3,18.1
		c4.6,5.3,12.7,5.9,18.1,1.3c0.5-0.4,0.9-0.8,1.3-1.3c4.6,5.3,12.7,5.9,18.1,1.3c5.3-4.6,5.9-12.7,1.3-18.1
		C198.6,114,195.1,112.4,191.3,112.4z M172,131.5c-3.5,0-6.3-2.8-6.3-6.3c0-3.5,2.8-6.3,6.3-6.3s6.3,2.8,6.3,6.3
		C178.3,128.7,175.5,131.5,172,131.5L172,131.5z M191.3,131.5c-3.5,0-6.3-2.8-6.3-6.3c0-3.5,2.8-6.3,6.3-6.3s6.3,2.8,6.3,6.3
		C197.6,128.7,194.8,131.5,191.3,131.5z"/>
	<path class="st0" d="M142.8,138v-20.8c0.4-2.9,3-5,6-4.9h9.5v7.9h-7.7c0,0-0.7,0-0.7,1.1c0,1.1,0.7,1,0.7,1h6.2v7h-7v8.7L142.8,138
		z"/>
	<path class="st0" d="M205.1,112.4h9.1c0,0,10.2,1,10.3,12.9s-9.3,12.7-9.3,12.7h-10.1V112.4z M212.3,120v10.5c0,0,5.1-0.3,5-5.2
		C217.3,120.4,212.3,120,212.3,120L212.3,120z"/>
	<path class="st0" d="M23.5,112.4H12.7c0,0-7.7,0-7.7,8.7s8.9,7.8,8.9,7.8h2.7c0,0,0.7,0,0.8,0.6c0,0.6-0.7,0.7-0.7,0.7h-11v7.7h12
		c0,0,7-0.2,6.9-8.2c-0.1-8-6.5-8-6.5-8h-5.3c0,0-0.5-0.1-0.5-1.2c0,0,0-0.7,0.8-0.7h10.7L23.5,112.4z"/>
	<path class="st0" d="M53.4,112.4c-5,0-9.1,4-9.3,9l0,0V138h7.4v-7.3c5,1.3,10.1-1.7,11.4-6.6s-1.7-10.1-6.6-11.4
		C55.4,112.4,54.4,112.3,53.4,112.4L53.4,112.4z M53.4,123c-0.7,0-1.3-0.6-1.3-1.3c0-0.7,0.6-1.3,1.3-1.3c0.7,0,1.3,0.6,1.3,1.3
		C54.7,122.4,54.1,123,53.4,123L53.4,123z"/>
	<path class="st0" d="M25.5,112.4h6.9v17.8c0,0,0.2,0.8,2.2,0.8s2.6-0.7,2.6-0.7v-17.8h6.1v20.3c0,0-0.3,5.3-8.9,5.3
		s-8.9-5.6-8.9-5.6L25.5,112.4z"/>
	<path class="st0" d="M71.1,120h7.4v-7.6h-9.1c-2.8-0.1-5.3,1.9-5.7,4.7v16.3l0,0c0.4,2.8,2.9,4.8,5.7,4.7h9.1v-7.6h-7.4
		c0,0-0.7,0-0.7-1c0-0.2,0-0.5,0.2-0.7h6.5v-3.5v-3.5h-6.5c-0.1-0.2-0.2-0.4-0.2-0.7C70.4,120,71.1,120,71.1,120z"/>
	<path class="st0" d="M79.5,138v-19c0,0,0.1-6.7,8.8-6.7c4.7-0.3,8.8,3.1,9.3,7.8c0.3,3.3-0.9,6.6-3.3,9c0,0-1.3,1.9,1.3,2
		c1.8,0,1.9,0,1.9,0v6.9h-5c0,0-5.2,0-5.3-6c0-4.3,0-4.4,0-4.4s-0.2-2.3,3-4.9s-1.1-5.1-3.1-3c-0.4,0.4-0.7,1-0.7,1.7
		c0,1.2,0,16.7,0,16.7L79.5,138z"/>
</g>
</svg>
