<?xml version="1.0" encoding="utf-8"?>
<!-- Generator: Adobe Illustrator 21.1.0, SVG Export Plug-In . SVG Version: 6.00 Build 0)  -->
<svg version="1.1" id="Layer_1" xmlns="http://www.w3.org/2000/svg" xmlns:xlink="http://www.w3.org/1999/xlink" x="0px" y="0px"
	 viewBox="0 0 250 250" style="enable-background:new 0 0 250 250;" xml:space="preserve">
<style type="text/css">
	.st0{fill:#008D40;}
	.st1{fill:#FFED00;}
</style>
<title>Grocery</title>
<path class="st0" d="M6.5,115.8c0.4-0.9,1.1-1.7,2-2.4c0.9-0.6,1.8-1.1,2.8-1.3c1.2-0.3,2.4-0.4,3.6-0.4c1.5,0,2.9,0.2,4.3,0.6
	c1.1,0.2,2,0.8,2.7,1.7c0.2,0.3,0.3,0.6,0.4,1c0.2,0.4,0.3,0.8,0.5,1.3c0.1,0.4,0.3,0.8,0.4,1.2c0.1,0.3,0.1,0.6,0.1,1
	c0,0.3-0.2,0.5-0.5,0.6c-0.7,0.1-1.4,0.2-2.1,0.2c-0.9,0.1-1.7-0.1-2.5-0.4c-0.5-0.3-1-0.7-1.4-1.2c-0.3-0.4-0.6-0.7-1-0.9
	c-0.4-0.2-0.9-0.3-1.4-0.3c-1.2-0.2-2.3,0.6-2.5,1.8c0,0.2,0,0.4,0,0.6c0,0.9,0.4,1.7,1.2,2.1c1.2,0.7,2.4,1.3,3.7,1.7
	c1.2,0.5,2.2,0.9,3,1.3c0.8,0.4,1.6,0.9,2.3,1.5c0.8,0.6,1.4,1.4,1.8,2.3c0.5,1,0.7,2.1,0.7,3.2c0,1.4-0.3,2.7-0.8,3.9
	c-0.5,1.1-1.4,2-2.4,2.7c-1,0.7-2.1,1.2-3.3,1.4c-1.3,0.3-2.6,0.4-4,0.4c-0.5,0-1.2,0-1.9-0.1c-0.8-0.1-1.5-0.2-2.3-0.4
	c-0.7-0.2-1.4-0.4-2.1-0.8c-0.6-0.3-1-0.7-1.3-1.3c-0.4-0.7-0.7-1.5-1-2.2c-0.3-0.6-0.4-1.3-0.5-1.9c0-0.4,0.2-0.7,0.5-0.9
	c0.7-0.2,1.4-0.3,2-0.3c0.9-0.1,1.9,0.1,2.8,0.5c0.7,0.3,1.3,0.8,1.8,1.3c0.4,0.4,0.8,0.8,1.3,1.1c0.5,0.3,1.1,0.4,1.7,0.4
	c0.9,0.1,1.8-0.2,2.6-0.7c0.6-0.6,0.9-1.4,0.8-2.2c0-0.9-0.4-1.8-1.2-2.3c-1.2-0.8-2.5-1.4-3.8-1.9c-1.2-0.5-2.2-0.9-3-1.3
	c-0.8-0.4-1.6-0.9-2.3-1.5c-0.7-0.6-1.3-1.4-1.7-2.2c-0.5-1-0.7-2-0.7-3.1C5.8,118.1,6,116.9,6.5,115.8z"/>
<path class="st0" d="M39.4,138.8c-0.5,0-0.7-0.2-0.7-0.7v-0.8c-0.6,0.6-1.4,1.1-2.2,1.4c-0.9,0.3-1.8,0.5-2.8,0.5
	c-1.5,0.1-3-0.4-4.1-1.4c-1-1.2-1.5-2.8-1.4-4.4v-4.6c0-0.6-0.5-0.9-1.5-0.9c-0.7,0-1.1-0.4-1.1-1.1v-1.8c0-0.3,0.1-0.5,0.3-0.7
	c0.2-0.2,0.5-0.4,0.8-0.5l6.5-2.9c0.4-0.2,0.8-0.3,1.3-0.3c0.5,0,0.7,0.3,0.7,0.8v2.4c0,0.3-0.1,0.5-0.2,0.7
	c-0.2,0.2-0.4,0.5-0.6,0.7c-0.2,0.2-0.5,0.5-0.7,0.7c-0.2,0.3-0.2,0.6-0.2,0.9v5.5c0,0.5,0.2,1,0.5,1.3c0.5,0.4,1.1,0.6,1.7,0.5
	c0.6,0,1.1-0.1,1.6-0.4c0.5-0.2,0.9-0.5,1.2-0.9v-3.9c0-0.6-0.4-0.9-1.2-0.9c-0.7,0-1.1-0.4-1.1-1.1v-1.8c0-0.6,0.3-1.1,0.8-1.3
	l6.5-2.9c0.4-0.2,0.8-0.3,1.3-0.3c0.5,0,0.7,0.3,0.7,0.8v2.4c0,0.3-0.1,0.5-0.2,0.7c-0.2,0.2-0.4,0.5-0.6,0.7
	c-0.2,0.2-0.5,0.5-0.7,0.7c-0.2,0.3-0.2,0.6-0.2,0.9v7.4c0,0.6,0.4,0.9,1.3,0.9c0.5-0.1,1,0.3,1.1,0.8c0,0.1,0,0.2,0,0.2v2
	c0,0.6-0.4,0.9-1.1,0.9L39.4,138.8z"/>
<path class="st0" d="M49.6,128.2c0-0.6-0.4-0.8-1.1-0.8c-0.4,0-0.7,0-1.1-0.2c-0.2-0.2-0.3-0.5-0.3-0.8v-2c0-0.4,0.2-0.7,0.5-0.9
	l5.4-2.8c0.3-0.2,0.7-0.3,1.1-0.4c0.4,0,0.7,0.2,0.7,0.7v2c0.6-0.7,1.4-1.3,2.2-1.9c0.9-0.6,1.9-0.9,2.9-0.8c2-0.1,4,0.9,5.2,2.5
	c1.4,1.8,2.1,4.1,2.1,6.4c0,3.2-0.7,5.7-2.2,7.4c-1.6,1.7-3.9,2.7-6.2,2.5c-0.7,0-1.4,0-2.1-0.2c-0.6-0.1-1.2-0.3-1.8-0.6v3.9
	c0,0.3,0.2,0.5,0.4,0.7c0.5,0.2,1,0.3,1.5,0.2c0.7,0,1.1,0.4,1.1,1.1v2c0,0.6-0.4,0.9-1.1,0.9h-8.4c-0.7,0-1.1-0.3-1.1-0.9v-2
	c-0.1-0.5,0.3-1,0.8-1.1c0.1,0,0.2,0,0.2,0c0.8,0,1.2-0.3,1.2-0.9V128.2z M55,130.9c0,1,0.3,1.9,0.9,2.7c0.7,0.7,1.6,1.1,2.6,1.1
	c1,0.1,2.1-0.3,2.7-1.1c0.6-1,0.9-2.1,0.8-3.2c0.1-1.1-0.3-2.2-0.9-3.2c-0.6-0.8-1.6-1.3-2.7-1.2c-0.7,0-1.4,0.1-2,0.5
	c-0.5,0.3-1,0.7-1.4,1.2L55,130.9z"/>
<path class="st0" d="M76.2,132.9L76.2,132.9c0.4,0.4,0.8,0.8,1.3,1.1c0.6,0.3,1.2,0.5,1.9,0.4c0.8,0,1.5-0.1,2.2-0.3
	c0.7-0.2,1.3-0.5,2-0.9c0.3-0.2,0.7-0.4,1.1-0.4c0.3,0,0.5,0.1,0.7,0.3c0.3,0.2,0.5,0.5,0.7,0.8c0.2,0.3,0.3,0.6,0.5,0.9
	c0.1,0.2,0.2,0.5,0.2,0.7c-0.1,0.4-0.3,0.8-0.7,1.1c-0.5,0.5-1.1,0.9-1.8,1.2c-0.8,0.4-1.6,0.7-2.5,0.9c-0.9,0.2-1.8,0.4-2.8,0.4
	c-3.1,0-5.6-0.9-7.2-2.6c-3.4-3.9-3.4-9.7,0-13.6c1.7-1.7,4.1-2.6,7.2-2.6c1.2,0,2.4,0.2,3.5,0.6c0.9,0.4,1.7,0.9,2.3,1.6
	c0.5,0.5,1,1.2,1.3,1.8c0.2,0.5,0.4,1,0.4,1.5c0,0.7-0.2,1.5-0.6,2.1c-0.6,0.7-1.4,1.1-2.2,1.4L76.2,132.9z M77.5,127.9
	c0.6-0.2,1.1-0.5,1.6-0.9c0.4-0.3,0.6-0.6,0.6-0.9c0-0.4-0.2-0.8-0.5-1.1c-0.4-0.2-0.8-0.4-1.3-0.4c-1,0-1.9,0.5-2.5,1.3
	c-0.7,0.8-1,1.8-1.1,2.8c0,0.1,0,0.2,0,0.2v0.2L77.5,127.9z"/>
<path class="st0" d="M88.2,124.4c0-0.4,0.2-0.7,0.5-0.9l5.3-2.8c0.3-0.2,0.7-0.3,1.1-0.4c0.4,0,0.7,0.2,0.7,0.7v2l0.6-0.5l0.1-0.1
	c0.6-0.5,1.2-0.9,1.9-1.3c0.6-0.3,1.3-0.4,2-0.4c0.6-0.1,1.2,0.1,1.8,0.4c0.4,0.3,0.6,0.9,0.5,1.4v3.6c0.1,0.4-0.1,0.9-0.4,1.2
	c-0.4,0.3-0.9,0.4-1.4,0.3c-0.5,0-0.9,0-1.4-0.1c-0.4-0.1-0.8-0.2-1.1-0.4c-0.4-0.2-0.9-0.3-1.3-0.4c-0.8,0-1.2,0.4-1.2,1.1v6
	c0,0.3,0.1,0.6,0.4,0.7c0.5,0.2,1,0.3,1.5,0.2c0.7,0,1.1,0.4,1.1,1.1v2c0,0.6-0.4,0.9-1.1,0.9h-8.4c-0.7,0-1.1-0.3-1.1-0.9v-2
	c0-0.7,0.3-1.1,1-1.1c0.8,0,1.2-0.3,1.2-0.9v-5.7c0-0.6-0.3-0.8-0.9-0.8c-0.4,0-0.7,0-1.1-0.2c-0.2-0.2-0.3-0.5-0.3-0.8L88.2,124.4z
	"/>
<path class="st0" d="M141.8,117.8c0-0.8-0.5-1.1-1.4-1.1c-0.5,0-0.9-0.1-1.3-0.3c-0.3-0.3-0.4-0.7-0.4-1.1v-2.1
	c0-0.7,0.5-1.1,1.4-1.1h16.5c0.5,0,0.9,0.3,1.1,0.7c0,0.1,0.2,0.4,0.4,0.8s0.4,1,0.6,1.6c0.2,0.6,0.4,1.2,0.6,1.6
	c0.1,0.3,0.2,0.6,0.2,0.9c0,0.4-0.2,0.7-0.5,0.9c-0.6,0.2-1.3,0.3-1.9,0.3c-0.5,0-0.9-0.1-1.4-0.3c-0.4-0.2-0.8-0.5-1.2-0.8
	c-0.5-0.4-1-0.7-1.5-0.9c-0.7-0.2-1.4-0.3-2-0.3h-2.9v5.7h2.5c0.6,0,1.2,0,1.8-0.2c0.3-0.1,0.6-0.3,0.8-0.5c0.2-0.2,0.4-0.3,0.7-0.4
	c0.5-0.1,0.9-0.2,1.4-0.1c1.2,0,1.9,0.2,2,0.5c0,0.1,0.1,0.4,0.4,1.1c0.1,0.3,0.3,0.8,0.5,1.3l0.6,1.5c0.2,0.4,0.3,0.8,0.4,1.1
	c0.1,0.2,0.1,0.5,0.2,0.7c0,0.3-0.1,0.7-0.4,0.8c-0.5,0.2-1,0.3-1.5,0.3c-0.7,0-1.4,0-2-0.2c-0.4-0.1-0.7-0.3-1.1-0.6
	c-0.3-0.3-0.7-0.5-1.2-0.6c-0.7-0.2-1.5-0.2-2.2-0.2h-2.9v6c0,0.8,0.4,1.1,1.3,1.1c0.6-0.1,1.3,0,1.9,0.3c0.3,0.2,0.5,0.6,0.5,1v2.2
	c0,0.7-0.5,1.1-1.4,1.1H140c-0.9,0-1.4-0.4-1.4-1.1v-2c0-0.4,0.1-0.8,0.4-1.1c0.4-0.2,0.9-0.3,1.3-0.3c1,0,1.5-0.4,1.5-1.1V117.8z"
	/>
<path class="st0" d="M162.8,123c1.7-1.7,4.1-2.6,7.2-2.6c3.1,0,5.6,0.9,7.2,2.6c3.4,3.9,3.4,9.7,0,13.6c-1.7,1.7-4.1,2.6-7.2,2.6
	c-3.1,0-5.6-0.9-7.2-2.6C159.4,132.7,159.4,126.9,162.8,123z M167.5,132.9c0.6,1.2,1.8,1.9,3.1,1.9c0.9,0.1,1.7-0.2,2.4-0.8
	c0.6-0.8,0.9-1.8,0.8-2.8c0-1.6-0.4-3.2-1.2-4.6c-0.6-1.2-1.8-1.9-3.1-1.9c-0.9-0.1-1.7,0.2-2.4,0.8c-0.6,0.8-0.9,1.8-0.8,2.8
	C166.2,129.9,166.6,131.5,167.5,132.9L167.5,132.9z"/>
<path class="st0" d="M184.2,123c1.7-1.7,4.1-2.6,7.2-2.6c3.1,0,5.6,0.9,7.2,2.6c3.4,3.9,3.4,9.7,0,13.6c-1.7,1.7-4.1,2.6-7.2,2.6
	s-5.6-0.9-7.2-2.6C180.8,132.7,180.8,126.9,184.2,123z M188.9,132.9c0.6,1.2,1.8,1.9,3.1,1.9c0.9,0.1,1.7-0.2,2.4-0.8
	c0.6-0.8,0.9-1.8,0.8-2.8c0-1.6-0.4-3.2-1.2-4.6c-0.6-1.2-1.8-1.9-3.1-1.9c-0.9-0.1-1.7,0.2-2.4,0.8c-0.6,0.8-0.9,1.8-0.8,2.8
	C187.6,130,188,131.5,188.9,132.9z"/>
<path class="st0" d="M222.6,114.3c0,0.3-0.1,0.5-0.2,0.7c-0.2,0.2-0.4,0.5-0.6,0.7c-0.3,0.2-0.5,0.5-0.7,0.7
	c-0.2,0.3-0.2,0.6-0.2,0.9v16.6c0,0.6,0.4,0.9,1.2,0.9c0.5-0.1,1,0.3,1.1,0.8c0,0.1,0,0.2,0,0.2v2c0,0.6-0.4,0.9-1.1,0.9h-5.5
	c-0.7,0-1.1-0.3-1.1-0.9v-1h-0.1c-0.4,0.7-1,1.2-1.8,1.6c-0.9,0.5-1.9,0.7-2.9,0.7c-2.1,0.1-4.1-0.8-5.5-2.4c-1.5-1.9-2.2-4.3-2-6.8
	c-0.1-2.6,0.8-5.1,2.5-7c1.7-1.8,4.2-2.8,6.7-2.7c0.6,0,1.2,0,1.8,0.1c0.4,0,0.8,0.1,1.2,0.2v-1.3c0-0.6-0.5-0.9-1.4-0.9
	c-0.7,0-1.1-0.4-1.1-1.1v-1.7c0-0.6,0.5-1.1,1.1-1.3l6.5-3c0.4-0.2,0.9-0.3,1.4-0.3c0.5,0,0.7,0.3,0.7,0.8L222.6,114.3z M215.5,128
	c0-0.8-0.3-1.5-0.9-2c-0.7-0.6-1.6-0.9-2.5-0.8c-1,0-1.9,0.4-2.6,1.1c-0.7,0.8-1.1,1.9-1.1,2.9c-0.1,1.3,0.3,2.5,1.1,3.5
	c0.7,0.8,1.7,1.2,2.8,1.2c1.2,0.1,2.3-0.4,3.2-1.3L215.5,128z"/>
<path class="st0" d="M224.7,134.7c-0.1-0.6,0-1.1,0.3-1.6c0.3-0.3,0.8-0.5,1.3-0.4h0.9c0.5,0,1,0.1,1.5,0.3c0.4,0.3,0.8,0.6,1.2,0.9
	c0.4,0.4,0.8,0.8,1.3,1.1c0.5,0.2,1.1,0.4,1.7,0.3c0.4,0,0.7-0.1,1.1-0.3c0.5-0.5,0.6-1.2,0.1-1.8c-0.1-0.1-0.3-0.3-0.5-0.3
	c-0.8-0.4-1.6-0.7-2.4-0.9c-0.9-0.3-1.7-0.6-2.3-0.8c-0.6-0.3-1.2-0.6-1.8-1c-0.6-0.4-1.1-0.9-1.4-1.6c-0.4-0.7-0.6-1.5-0.5-2.2
	c0-0.9,0.2-1.8,0.6-2.6c0.4-0.8,1-1.4,1.7-1.9c0.7-0.5,1.5-0.8,2.4-1.1c0.9-0.2,1.8-0.4,2.8-0.4c1.6-0.1,3.2,0.2,4.7,0.8
	c1.1,0.5,1.7,1.2,1.7,1.9v2.7c0.1,0.4-0.2,0.8-0.7,0.9c-0.1,0-0.2,0-0.2,0h-1.6c-0.4,0-0.8-0.1-1.2-0.3c-0.4-0.2-0.7-0.5-1.1-0.9
	l-0.1-0.1c-0.3-0.3-0.7-0.6-1.1-0.9c-0.3-0.2-0.7-0.3-1.1-0.3c-0.3,0-0.7,0.1-0.9,0.3c-0.2,0.2-0.3,0.5-0.3,0.8
	c0,0.5,0.3,0.9,0.7,1.1c0.8,0.4,1.6,0.7,2.4,0.9c1,0.3,1.8,0.5,2.4,0.8c0.6,0.3,1.3,0.6,1.8,1.1c0.6,0.4,1.1,1,1.4,1.6
	c0.4,0.7,0.6,1.6,0.5,2.4c0.1,1.7-0.6,3.4-2,4.5c-1.7,1-3.7,1.5-5.7,1.4c-0.8,0-1.6-0.1-2.4-0.2c-0.8-0.1-1.6-0.3-2.4-0.5
	c-0.7-0.2-1.3-0.5-1.8-0.8c-0.4-0.3-0.7-0.7-0.7-1.2L224.7,134.7z"/>
<path class="st0" d="M146.4,151.4l-0.8,1.1c-0.4-0.2-0.8-0.5-1.2-0.8c-0.3,0.2-0.6,0.4-0.9,0.6c-0.4,0.1-0.8,0.2-1.1,0.2
	c-0.7,0.1-1.5-0.2-2-0.7c-0.3-0.4-0.5-0.8-0.5-1.3c0-0.4,0.1-0.9,0.4-1.2c0.3-0.4,0.7-0.7,1.2-0.9c-0.2-0.2-0.4-0.5-0.5-0.8
	c-0.1-0.2-0.2-0.5-0.2-0.7c0-0.4,0.2-0.8,0.5-1.1c0.4-0.3,0.9-0.5,1.5-0.4c0.5,0,1,0.1,1.4,0.5c0.3,0.3,0.5,0.7,0.5,1.1
	c0,0.3-0.1,0.6-0.3,0.8c-0.3,0.4-0.6,0.7-1.1,0.9l1,1.3c0.1-0.3,0.2-0.5,0.3-0.8l1.2,0.3c-0.1,0.3-0.2,0.6-0.3,1
	c-0.1,0.2-0.2,0.3-0.3,0.5c0.2,0.2,0.4,0.3,0.6,0.5C146.1,151.2,146.2,151.3,146.4,151.4z M142.2,149c-0.3,0.1-0.5,0.3-0.7,0.6
	c-0.1,0.2-0.2,0.4-0.2,0.7c0,0.3,0.1,0.5,0.3,0.7c0.2,0.2,0.5,0.3,0.8,0.3c0.2,0,0.4,0,0.6-0.1c0.2-0.1,0.4-0.2,0.6-0.4L142.2,149z
	 M142.7,147.6l0.4-0.3c0.2-0.1,0.4-0.4,0.4-0.6c0-0.2-0.1-0.3-0.2-0.4c-0.3-0.2-0.7-0.2-1.1,0c-0.1,0.1-0.2,0.2-0.2,0.4
	c0,0.2,0.1,0.4,0.3,0.6L142.7,147.6z"/>
<path class="st0" d="M149.8,145.2h2.6c0.5,0,0.9,0,1.3,0.1c0.4,0.1,0.8,0.3,1.1,0.7c0.3,0.3,0.5,0.7,0.7,1.1
	c0.2,0.5,0.2,1.1,0.2,1.7c0,0.5-0.1,1-0.2,1.5c-0.2,0.5-0.4,0.9-0.8,1.2c-0.3,0.3-0.7,0.5-1.1,0.6c-0.4,0.1-0.8,0.2-1.3,0.1h-2.7
	L149.8,145.2z M151.2,146.4v4.7h1.1c0.3,0,0.6,0,0.9-0.1c0.2,0,0.4-0.1,0.6-0.3c0.2-0.2,0.3-0.4,0.4-0.7c0.1-0.4,0.2-0.9,0.1-1.3
	c0-0.4,0-0.8-0.1-1.3c-0.1-0.3-0.2-0.5-0.4-0.7c-0.2-0.2-0.4-0.3-0.7-0.3c-0.4-0.1-0.8-0.1-1.2-0.1L151.2,146.4z"/>
<path class="st0" d="M156.8,146.5v-1.2h1.4v1.2H156.8z M156.8,152.3v-5.1h1.4v5.1H156.8z"/>
<path class="st0" d="M159,150.8l1.4-0.2c0,0.2,0.2,0.4,0.3,0.6c0.2,0.1,0.5,0.2,0.7,0.2c0.3,0,0.6,0,0.8-0.2
	c0.1-0.1,0.2-0.2,0.2-0.4c0-0.1,0-0.2-0.1-0.3c-0.1-0.1-0.3-0.2-0.5-0.2c-0.7-0.1-1.4-0.3-2.1-0.7c-0.4-0.3-0.6-0.7-0.6-1.2
	c0-0.4,0.2-0.8,0.5-1.1c0.5-0.3,1-0.5,1.6-0.5c0.5,0,1.1,0.1,1.6,0.3c0.4,0.2,0.6,0.6,0.7,1.1l-1.3,0.2c0-0.2-0.2-0.4-0.3-0.5
	c-0.2-0.1-0.4-0.2-0.7-0.2c-0.3,0-0.5,0-0.8,0.1c-0.1,0.1-0.2,0.2-0.2,0.3c0,0.1,0.1,0.2,0.1,0.2c0.4,0.2,0.8,0.3,1.3,0.4
	c0.5,0.1,1.1,0.3,1.5,0.6c0.3,0.3,0.5,0.7,0.4,1.1c0,0.5-0.2,0.9-0.6,1.2c-0.5,0.4-1.1,0.6-1.7,0.5c-0.6,0-1.2-0.1-1.7-0.4
	C159.3,151.7,159.1,151.3,159,150.8z"/>
<path class="st0" d="M169.3,148.7l-1.3,0.2c0-0.2-0.1-0.4-0.3-0.6c-0.2-0.1-0.4-0.2-0.6-0.2c-0.3,0-0.6,0.1-0.8,0.3
	c-0.2,0.3-0.3,0.8-0.3,1.2c0,0.4,0.1,0.9,0.3,1.3c0.2,0.2,0.5,0.4,0.8,0.4c0.2,0,0.5-0.1,0.6-0.2c0.2-0.2,0.3-0.5,0.3-0.8l1.3,0.2
	c-0.1,0.5-0.4,1-0.8,1.4c-0.5,0.3-1,0.5-1.6,0.5c-0.7,0-1.3-0.2-1.8-0.7c-0.9-1.2-0.9-2.8,0-3.9c0.5-0.5,1.1-0.7,1.8-0.7
	c0.5,0,1,0.1,1.5,0.4C168.9,147.8,169.2,148.2,169.3,148.7z"/>
<path class="st0" d="M169.9,149.6c0-0.5,0.1-0.9,0.3-1.3c0.2-0.4,0.5-0.7,0.9-1c0.4-0.2,0.9-0.3,1.4-0.3c0.7,0,1.4,0.3,1.9,0.8
	c0.5,0.5,0.8,1.2,0.7,1.9c0,0.7-0.2,1.4-0.7,1.9c-0.5,0.5-1.2,0.8-1.9,0.8c-0.5,0-0.9-0.1-1.4-0.3c-0.4-0.2-0.8-0.5-1-0.9
	C170,150.7,169.9,150.2,169.9,149.6z M171.3,149.7c0,0.4,0.1,0.8,0.4,1.2c0.4,0.5,1.2,0.5,1.7,0.1c0,0,0.1-0.1,0.1-0.1
	c0.3-0.3,0.4-0.8,0.4-1.2c0-0.4-0.1-0.8-0.4-1.2c-0.4-0.5-1.2-0.5-1.7-0.1c0,0-0.1,0.1-0.1,0.1C171.4,148.9,171.3,149.3,171.3,149.7
	L171.3,149.7z"/>
<path class="st0" d="M179.5,152.3v-0.8c-0.2,0.3-0.4,0.5-0.7,0.6c-0.3,0.2-0.6,0.2-1,0.2c-0.3,0-0.6-0.1-0.9-0.2
	c-0.3-0.1-0.5-0.4-0.6-0.6c-0.1-0.4-0.2-0.7-0.2-1.1v-3.2h1.4v2.4c0,0.4,0,0.9,0.1,1.3c0,0.2,0.1,0.3,0.3,0.4
	c0.1,0.1,0.3,0.2,0.5,0.1c0.2,0,0.4-0.1,0.6-0.2c0.2-0.1,0.3-0.3,0.4-0.5c0.1-0.5,0.1-0.9,0.1-1.4v-2.2h1.4v5.1L179.5,152.3z"/>
<path class="st0" d="M186.7,152.3h-1.4v-2.6c0-0.4,0-0.7-0.1-1.1c-0.1-0.2-0.2-0.3-0.3-0.4c-0.1-0.1-0.3-0.1-0.5-0.1
	c-0.2,0-0.4,0.1-0.6,0.2c-0.2,0.1-0.3,0.3-0.4,0.5c-0.1,0.4-0.1,0.8-0.1,1.2v2.3h-1.4v-5.1h1.3v0.7c0.6-0.8,1.6-1.1,2.5-0.7
	c0.2,0.1,0.4,0.2,0.6,0.4c0.1,0.2,0.2,0.4,0.3,0.6c0.1,0.3,0.1,0.6,0.1,0.9V152.3z"/>
<path class="st0" d="M190.3,147.2v1.1h-0.9v2.1c0,0.2,0,0.5,0,0.7c0,0.1,0.1,0.1,0.1,0.2c0.1,0,0.1,0.1,0.2,0.1
	c0.2,0,0.4-0.1,0.5-0.1l0.1,1.1c-0.3,0.1-0.7,0.2-1.1,0.2c-0.2,0-0.5,0-0.7-0.1c-0.2-0.1-0.3-0.2-0.4-0.3c-0.1-0.2-0.2-0.3-0.2-0.5
	c0-0.3,0-0.6,0-1v-2.2h-0.6v-1.1h0.6v-1.1l1.4-0.8v1.8L190.3,147.2z"/>
<path class="st0" d="M193.8,152.3v-7.1h2.3c0.6,0,1.1,0,1.7,0.1c0.4,0.1,0.8,0.3,1.1,0.7c0.3,0.4,0.4,0.9,0.4,1.4
	c0,0.4-0.1,0.7-0.2,1.1c-0.1,0.3-0.3,0.5-0.6,0.7c-0.2,0.2-0.5,0.3-0.7,0.3c-0.5,0.1-1,0.1-1.5,0.1h-0.9v2.7L193.8,152.3z
	 M195.2,146.4v2h0.8c0.4,0,0.8,0,1.1-0.1c0.2-0.1,0.3-0.2,0.4-0.3c0.1-0.2,0.2-0.4,0.2-0.5c0-0.2-0.1-0.5-0.2-0.6
	c-0.2-0.2-0.4-0.3-0.6-0.3c-0.3,0-0.7,0-1.1,0L195.2,146.4z"/>
<path class="st0" d="M201.7,145.2v2.6c0.6-0.7,1.6-1,2.4-0.6c0.2,0.1,0.4,0.2,0.6,0.4c0.1,0.2,0.2,0.4,0.3,0.6
	c0.1,0.3,0.1,0.7,0.1,1.1v3h-1.4v-2.7c0-0.4,0-0.7-0.1-1.1c0-0.1-0.1-0.3-0.3-0.3c-0.1-0.1-0.3-0.1-0.5-0.1c-0.2,0-0.4,0.1-0.6,0.2
	c-0.2,0.1-0.3,0.3-0.4,0.5c-0.1,0.3-0.1,0.6-0.1,1v2.6h-1.4v-7.1L201.7,145.2z"/>
<path class="st0" d="M207.2,148.7l-1.2-0.2c0.1-0.4,0.4-0.8,0.7-1.1c0.5-0.3,1-0.4,1.5-0.4c0.5,0,0.9,0,1.3,0.2
	c0.3,0.1,0.5,0.3,0.6,0.5c0.1,0.4,0.2,0.8,0.2,1.2v1.6c0,0.3,0,0.7,0.1,1c0.1,0.2,0.1,0.5,0.2,0.7h-1.3c0-0.1-0.1-0.2-0.1-0.4v-0.2
	c-0.2,0.2-0.5,0.4-0.7,0.5c-0.3,0.1-0.6,0.2-0.8,0.2c-0.5,0-0.9-0.1-1.2-0.4c-0.3-0.3-0.5-0.7-0.5-1.1c0-0.3,0.1-0.5,0.2-0.8
	c0.1-0.2,0.3-0.4,0.6-0.5c0.3-0.1,0.7-0.3,1.1-0.3c0.4-0.1,0.9-0.2,1.3-0.4v-0.1c0-0.2,0-0.4-0.2-0.6c-0.2-0.1-0.5-0.2-0.7-0.2
	c-0.2,0-0.4,0-0.6,0.1C207.4,148.4,207.3,148.5,207.2,148.7z M209,149.8c-0.2,0.1-0.4,0.1-0.8,0.2c-0.3,0-0.5,0.1-0.7,0.2
	c-0.2,0.1-0.3,0.3-0.3,0.5c0,0.2,0.1,0.4,0.2,0.5c0.1,0.1,0.3,0.2,0.5,0.2c0.3,0,0.5-0.1,0.7-0.2c0.2-0.1,0.3-0.3,0.3-0.5
	c0-0.2,0.1-0.4,0.1-0.7L209,149.8z"/>
<path class="st0" d="M212.9,152.3h-1.4v-5.1h1.3v0.8c0.1-0.3,0.3-0.5,0.6-0.7c0.2-0.1,0.4-0.2,0.6-0.2c0.3,0,0.6,0.1,0.9,0.3
	l-0.4,1.2c-0.2-0.1-0.4-0.2-0.6-0.2c-0.2,0-0.3,0.1-0.5,0.2c-0.2,0.2-0.3,0.3-0.3,0.6c-0.1,0.6-0.1,1.1-0.1,1.7L212.9,152.3z"/>
<path class="st0" d="M215.2,147.2h1.2v0.7c0.4-0.5,1-0.8,1.6-0.8c0.3,0,0.6,0.1,0.9,0.2c0.2,0.1,0.5,0.4,0.6,0.6
	c0.2-0.2,0.4-0.5,0.7-0.6c0.3-0.1,0.5-0.2,0.8-0.2c0.3,0,0.7,0.1,1,0.2c0.3,0.2,0.5,0.4,0.6,0.7c0.1,0.3,0.2,0.7,0.1,1.1v3.3h-1.4
	v-2.9c0-0.3,0-0.7-0.1-1c-0.1-0.2-0.3-0.3-0.6-0.3c-0.2,0-0.4,0.1-0.5,0.2c-0.2,0.1-0.3,0.3-0.4,0.5c-0.1,0.3-0.1,0.7-0.1,1.1v2.5
	h-1.4v-2.8c0-0.3,0-0.6-0.1-1c0-0.1-0.1-0.2-0.2-0.3c-0.1-0.1-0.3-0.1-0.4-0.1c-0.2,0-0.4,0.1-0.6,0.2c-0.2,0.1-0.3,0.3-0.4,0.5
	c-0.1,0.3-0.1,0.7-0.1,1.1v2.5h-1.4L215.2,147.2z"/>
<path class="st0" d="M225,148.7l-1.2-0.2c0.1-0.4,0.4-0.8,0.7-1.1c0.5-0.3,1-0.4,1.5-0.4c0.5,0,0.9,0,1.3,0.2
	c0.3,0.1,0.5,0.3,0.6,0.5c0.1,0.4,0.2,0.8,0.2,1.2v1.6c0,0.3,0,0.7,0.1,1c0.1,0.2,0.1,0.5,0.2,0.7h-1.3c0-0.1-0.1-0.2-0.1-0.4v-0.2
	c-0.2,0.2-0.5,0.4-0.7,0.5c-0.3,0.1-0.6,0.2-0.8,0.2c-0.5,0-0.9-0.1-1.2-0.4c-0.3-0.3-0.5-0.7-0.5-1.1c0-0.3,0.1-0.5,0.2-0.8
	c0.1-0.2,0.3-0.4,0.6-0.5c0.3-0.1,0.7-0.3,1.1-0.3c0.4-0.1,0.9-0.2,1.3-0.3v-0.1c0-0.2,0-0.4-0.2-0.6c-0.2-0.1-0.5-0.2-0.7-0.2
	c-0.2,0-0.4,0-0.6,0.1C225.2,148.4,225,148.5,225,148.7z M226.8,149.8c-0.2,0.1-0.4,0.1-0.8,0.2c-0.3,0-0.5,0.1-0.7,0.2
	c-0.2,0.1-0.3,0.3-0.3,0.5c0,0.2,0.1,0.4,0.2,0.5c0.1,0.1,0.3,0.2,0.5,0.2c0.3,0,0.5-0.1,0.7-0.2c0.2-0.1,0.3-0.3,0.3-0.5
	c0-0.2,0.1-0.4,0.1-0.7L226.8,149.8z"/>
<path class="st0" d="M233.8,148.7l-1.3,0.2c0-0.2-0.1-0.4-0.3-0.6c-0.2-0.1-0.4-0.2-0.6-0.2c-0.3,0-0.6,0.1-0.8,0.3
	c-0.2,0.3-0.3,0.8-0.3,1.2c0,0.4,0.1,0.9,0.3,1.3c0.2,0.2,0.5,0.4,0.8,0.4c0.2,0,0.5-0.1,0.6-0.2c0.2-0.2,0.3-0.5,0.3-0.8l1.3,0.2
	c-0.1,0.5-0.4,1-0.8,1.4c-0.5,0.3-1,0.5-1.6,0.5c-0.7,0-1.3-0.2-1.8-0.7c-0.9-1.2-0.9-2.8,0-3.9c0.5-0.5,1.1-0.7,1.8-0.7
	c0.5,0,1,0.1,1.5,0.4C233.4,147.8,233.7,148.2,233.8,148.7z"/>
<path class="st0" d="M234.1,147.2h1.4l1.2,3.6l1.2-3.6h1.4l-1.8,5l-0.3,0.9c-0.1,0.2-0.2,0.5-0.3,0.7c-0.1,0.1-0.2,0.3-0.4,0.4
	c-0.2,0.1-0.3,0.2-0.5,0.2c-0.2,0.1-0.5,0.1-0.7,0.1c-0.3,0-0.5,0-0.8-0.1l-0.1-1.1c0.2,0,0.4,0.1,0.6,0.1c0.3,0,0.5-0.1,0.7-0.3
	c0.2-0.2,0.3-0.4,0.3-0.7L234.1,147.2z"/>
<path class="st0" d="M242.1,114.6c0.5,0,1,0.1,1.5,0.4c0.4,0.2,0.8,0.6,1.1,1.1c0.5,0.9,0.5,2,0,3c-0.2,0.4-0.6,0.8-1.1,1.1
	c-0.9,0.5-2,0.5-2.9,0c-0.4-0.2-0.8-0.6-1.1-1.1c-0.5-0.9-0.5-2,0-3c0.2-0.4,0.6-0.8,1.1-1.1C241,114.8,241.6,114.6,242.1,114.6z
	 M242.1,115.2c-0.4,0-0.8,0.1-1.2,0.3c-0.4,0.2-0.7,0.5-0.9,0.9c-0.4,0.7-0.4,1.6,0,2.4c0.2,0.4,0.5,0.7,0.9,0.9
	c0.7,0.4,1.6,0.4,2.4,0c0.4-0.2,0.7-0.5,0.9-0.9c0.4-0.7,0.4-1.6,0-2.4c-0.2-0.4-0.5-0.7-0.9-0.9
	C242.9,115.3,242.5,115.2,242.1,115.2z M240.7,119.2V116h1.6c0.2,0,0.3,0.1,0.5,0.1c0.1,0.1,0.2,0.2,0.3,0.3
	c0.1,0.1,0.1,0.3,0.1,0.5c0,0.2-0.1,0.4-0.2,0.6c-0.2,0.2-0.4,0.3-0.6,0.3c0.1,0,0.2,0.1,0.2,0.1c0.1,0.1,0.1,0.2,0.2,0.2l0.2,0.4
	l0.4,0.6h-0.8l-0.3-0.5c-0.1-0.2-0.3-0.5-0.4-0.6c-0.1-0.1-0.3-0.1-0.4-0.1h-0.2v1.3L240.7,119.2z M241.4,117.4h0.3
	c0.2,0,0.5,0,0.7,0c0.1,0,0.2-0.1,0.2-0.1c0.1-0.1,0.1-0.2,0.1-0.2c0-0.1,0-0.2-0.1-0.2c-0.1-0.1-0.1-0.1-0.2-0.1
	c-0.2,0-0.5,0-0.7,0h-0.3V117.4z"/>
<polygon class="st0" points="110.3,121 110.3,139.7 105,143.4 105,154.1 136.6,154.1 136.6,143.6 132.4,139.5 132.4,103.2 
	105,109.1 105,118 "/>
<polygon class="st1" points="109.2,150.9 109.2,145.4 114.5,141.7 114.5,118.7 109.2,115.8 109.2,112.3 128.2,108.1 128.2,141.3 
	133.4,145.5 133.4,150.9 "/>
</svg>
