<?xml version="1.0" encoding="utf-8"?>
<!-- Generator: Adobe Illustrator 21.1.0, SVG Export Plug-In . SVG Version: 6.00 Build 0)  -->
<svg version="1.1" id="Layer_1" xmlns="http://www.w3.org/2000/svg" xmlns:xlink="http://www.w3.org/1999/xlink" x="0px" y="0px"
	 viewBox="0 0 250 250" style="enable-background:new 0 0 250 250;" xml:space="preserve">
<style type="text/css">
	.st0{fill:#D5252D;}
</style>
<title>Grocery</title>
<path class="st0" d="M128.3,74.7c4.7,1.4,9.5,1.9,14.4,2.8c4.4,0.8,8.5,2.2,10.3,6.9c2.4,5.9,3.1,12.3,1.9,18.5
	c-0.8,4.1-1.9,8.2-5.9,10.6c-0.5,0.3-0.6,0.6-0.1,1.1c2.9,2.9,3.7,6.7,4.8,10.4c1.4,4.9,2.5,9.9,3.8,14.9c0.4,1.6,0.1,2.1-1.6,2
	c-2.3-0.1-4.5-0.1-6.8,0c-1.6,0.1-2.1-0.6-2.5-2c-1.8-6.8-3.6-13.7-5.4-20.5c-0.2-1.2-0.8-2.4-1.7-3.2c-0.5-0.5-1.2-0.7-1.9-0.6
	c-0.7,0.3-0.4,1.1-0.4,1.7c0,7.5-0.1,14.9,0,22.4c0,1.9-0.5,2.4-2.3,2.3c-1.6-0.2-3.1-0.2-4.7,0c-2,0.2-2.6-0.4-2.6-2.5
	c0.1-14.5,0-29,0-43.4c0-7.1,0-14.2,0-21.2L128.3,74.7z M136.9,96.3c0,1.7,0,3.4,0,5.1c0,0.5-0.1,1.1,0.4,1.4
	c1.6,1.1,6.3,0.4,7.3-1.2c1.4-2.1,1.2-7.5-0.4-9.6c-0.9-1.2-5.7-3-6.8-2.2c-1.3,1-0.4,2.7-0.6,4.1C136.9,94.7,136.9,95.5,136.9,96.3
	L136.9,96.3z"/>
<path class="st0" d="M123.2,74.7c0,4.4-0.2,8.9,0,13.3c0,1.9-0.4,2.6-2.4,2.5c-3.6,0-7.2,0.3-10.7,0.4c-1.6,0-2.5,0.6-2.3,2.4
	c0.1,1.8,0,3.4,0,5.1c0,2.9,0.3,3.1,3.1,2.9c3-0.3,6-0.5,9-0.8c1.6-0.2,2.4,0.2,2.3,2.1c-0.2,3.2-0.1,6.4,0,9.5
	c0,1.3-0.3,1.8-1.7,1.8c-3.5,0-7,0.4-10.5,0.5c-1.7,0-2.3,0.7-2.3,2.4c0.1,2.8,0,5.6,0,8.4c0,1.6,0.6,2,2.1,2c3.9,0,7.8,0,11.7,0
	c1.6,0,2.2,0.4,2.2,2.1c-0.1,3.6,0,7.3,0,11c0,1.3-0.4,1.8-1.8,1.7c-7.2-0.1-14.5-0.1-21.7,0c-1.4,0-1.7-0.6-1.7-1.8
	c0-19.8,0-39.7,0-59.5c0-1.4,0.5-1.9,1.8-2.1c6.7-1,13.5-2.2,20.2-3.3c0.5-0.1,0.9-0.1,1.3-0.5L123.2,74.7z"/>
<path class="st0" d="M5,126.6c2.3-0.4,4.6-0.8,6.8-1.2c1.4-0.3,2.2,0,2.3,1.6c0.1,0.6,0.2,1.2,0.4,1.8c0.8,2.9,2.9,4.5,5.2,4
	c2.3-0.5,3.8-3,3.5-5.9c-0.3-2.4-2.1-4.1-5.4-5c-1.1-0.3-2.1-0.6-3.1-0.9c-7.3-2.9-9.8-8.5-8-16.4c1.5-7,7.3-12.2,14.5-12.8
	c4.3-0.4,7,1.4,8.8,5.7c0.9,1.9,1.3,4,1.1,6.1c-0.5,2.3-3.3,1.4-5,2.3c-1.1,0.4-2.2,0.7-3.4,0.9c-0.2-0.9-0.4-1.8-0.7-2.7
	c-0.7-1.5-1.6-3-3.6-2.6c-2.1,0.4-3.6,2.2-3.6,4.3c0.1,1.8,1.6,3.2,3.4,3.2c4.5,0.7,8.9,1.7,11.7,5.7c2.1,3.1,2.3,6.8,2.3,10.5
	c0.1,3.9-0.9,7.7-2.7,11.2c-2.5,4.6-7.3,6.7-13.1,5.9c-5.5-0.7-9-4-10.3-9.7c-0.1-1.3-0.4-2.6-1-3.7V126.6z"/>
<path class="st0" d="M177.9,113.2c0-6.3,0.9-12.5,2.7-18.5c3.4-10.9,12.8-12,20.8-5.4c2.7,2.3,4.7,5.3,5.7,8.6
	c3.7,10.4,4,21.7,0.9,32.3c-1.1,3.9-3,7.6-6.6,9.9c-7,4.5-15.5,2-19.2-5.7c-2.4-5.2-3.8-10.8-4.2-16.5
	C178,116.2,177.9,114.4,177.9,113.2z M200.8,114.1c-0.4-4.2-0.5-8.3-2.6-12c-1.1-2-2.5-3.7-5-3.5s-3.6,2.1-4.5,4.2
	c-0.6,2-1,4.1-1,6.1c-0.6,5.5-0.1,11,1.4,16.3c0.9,2.8,3.3,4.7,5.3,4.6c2-0.1,4.2-2.3,5-5C200.4,121.2,200.4,117.6,200.8,114.1
	L200.8,114.1z"/>
<path class="st0" d="M235.8,121.2c2.2,1.6,3.8,3.9,4.6,6.5c1.6,4.1,2.9,8.4,4.4,12.5c0.5,1.4,0.2,1.8-1.2,1.7c-1.6-0.1-3.3,0-4.9,0
	c-4,0-4,0-5.3-3.7c-1.4-4.3-3-8.5-4.5-12.8c-0.2-0.7-0.6-1.4-1-2.1c-0.7-1-1.8-1.9-2.9-1.4c-1.1,0.4-0.6,1.6-0.6,2.5
	c0,5.2,0,10.4,0,15.6c0,1.3-0.3,2-1.8,1.9c-2-0.1-4.1-0.1-6.1,0c-1.3,0-1.6-0.4-1.6-1.6c0-16.2,0-32.3,0-48.5c0-0.8-0.3-1.9,1.2-1.7
	c6.8,1.2,13.8,2.1,20.1,5.3c2.2,1.1,3.9,3.1,4.7,5.5c1.1,2.5,1.6,5.2,1.7,7.9C242.7,114.1,241.7,118.9,235.8,121.2z M228.5,112.7
	c4.3,0,6.2-3.5,4.2-7.3c-0.8-1.6-5.7-3.8-7.4-3c-1.9,0.9-0.6,2.9-0.9,4.3c-0.1,0.8-0.1,1.7,0,2.5c0,3,0.2,3.1,3.3,3.4L228.5,112.7z"
	/>
<path class="st0" d="M64.7,105.1c-0.2,5.5,0.4,12.5-0.4,19.6c-0.6,5.3-1.5,10.5-5.4,14.5c-5.2,5.4-16,3.8-19.6-2.7
	c-2.2-4.3-3.3-9-3.3-13.9c-0.2-10.3,0-20.5-0.1-30.8c0-1.7,0.5-2.4,2.2-2.5c1.6-0.2,3.2-0.5,4.8-0.9c1.6-0.3,2.3,0,2.3,1.9
	c-0.1,9.6-0.1,19.3,0,28.9c-0.2,2.7,0.3,5.4,1.3,7.9c1.7,3.5,5.1,3.7,7.3,0.5c1.3-2.3,1.9-4.9,1.7-7.6c0.1-10.4,0.1-20.8,0-31.3
	c0-1.8,0.5-2.7,2.4-2.9c2.3-0.2,5.2-1.9,6.6-0.7c1.1,1,0.3,4.3,0.3,6.5C64.7,95.7,64.7,99.6,64.7,105.1z"/>
<path class="st0" d="M69.4,112.7c0-8.8,0-17.6,0-26.3c0-1.7,0.3-2.6,2.3-2.9c4.5-0.5,8.9-1.4,13.3-2.1c3.1-0.7,6.3,1,7.3,4
	c2.6,5.6,2.4,11.5,2,17.4c-0.1,3.3-0.8,6.5-2,9.5c-1.9,4.9-5.5,7.1-10.6,7.2c-3.5,0-3.5,0.1-3.5,3.6c0,5.6,0,11.2,0,16.8
	c0,1.4-0.3,2.2-1.9,2c-1.6-0.1-3.3-0.1-4.9,0c-1.7,0.1-2.1-0.6-2.1-2.2C69.4,130.7,69.4,121.8,69.4,112.7z M78.2,100.8
	c0,1.2,0,2.5,0,3.7c0,3.3,0.8,3.7,3.8,2.6c1.1-0.3,2-1.1,2.6-2.2c1.5-3,1.4-6.4-0.2-9.3c-1.1-2-2.9-1.5-4.7-1.3
	c-1.9,0.2-1.4,1.5-1.4,2.6S78.2,99.5,78.2,100.8L78.2,100.8z"/>
<path class="st0" d="M161.9,111.3c0-9.3,0-18.5,0-27.8c0-1.9,0.1-2.9,2.5-2.2c1.9,0.6,3.9,0.9,6,1c2.2,0.2,2.9,1.1,2.9,3.4
	c-0.1,11.7,0,23.5,0,35.2c0,6.3,0,12.6,0,18.9c0,1.7-0.5,2.3-2.2,2.2c-2.2-0.2-4.4-0.2-6.5,0c-1.9,0.1-2.5-0.5-2.5-2.4
	c0.1-8.7,0-17.4,0-26.1C161.9,112.7,161.9,112,161.9,111.3z"/>
<path d="M5.3,169.7l3.1-1.8c0.3,1,0.9,1.9,1.6,2.7c1.2,1.1,3.1,1.1,4.3,0c0.5-0.6,0.8-1.3,0.8-2.1c0-0.6-0.2-1.3-0.6-1.8
	c-0.6-0.6-1.3-1.1-2.1-1.4l-0.6-0.3c-1.3-0.6-2.6-1.3-3.7-2.1c-0.7-0.6-1.3-1.3-1.6-2.1c-0.4-0.9-0.6-1.9-0.5-2.9
	c-0.1-1.7,0.5-3.3,1.7-4.5c1.1-1.2,2.7-1.8,4.3-1.7c1.4-0.1,2.8,0.4,3.9,1.3c1.1,1,1.9,2.3,2.2,3.7l-3.1,1.4
	c-0.3-0.8-0.7-1.6-1.4-2.3c-0.5-0.4-1.2-0.7-1.9-0.6c-0.7,0-1.3,0.2-1.8,0.7c-0.4,0.5-0.7,1.1-0.6,1.8c0,1.2,1,2.3,3.1,3.3l1.5,0.8
	c1.4,0.7,2.6,1.6,3.6,2.9c0.7,1.2,1,2.5,0.9,3.8c0.1,1.8-0.5,3.6-1.7,5c-1.2,1.2-2.8,1.9-4.5,1.8c-1.6,0-3.1-0.5-4.3-1.4
	C6.6,172.7,5.7,171.3,5.3,169.7z"/>
<path d="M21.3,166.4v-14.6h3.4v14.8c-0.1,1.3,0.2,2.6,0.8,3.7c0.6,0.8,1.6,1.2,2.6,1.1c1,0.1,2.1-0.3,2.8-1.1
	c0.7-1.1,0.9-2.4,0.8-3.7v-14.8h3.3v15.2c0.1,2.2-0.5,4.3-1.8,6c-1.3,1.5-3.2,2.2-5.1,2.1c-2,0.1-3.9-0.7-5.2-2.2
	C21.8,171.1,21.2,168.8,21.3,166.4z"/>
<path d="M39.2,174.9v-23h6.5c1.8-0.1,3.5,0.5,4.8,1.7c1.2,1.5,1.7,3.3,1.6,5.1c0.1,1.8-0.4,3.6-1.5,5c-1.2,1.2-2.8,1.9-4.5,1.8h-3.4
	v9.3H39.2z M42.7,161.9h2.5c0.9,0.1,1.9-0.2,2.7-0.7c1-1.5,1-3.5,0-5c-0.8-0.6-1.7-0.8-2.7-0.7h-2.5L42.7,161.9z"/>
<path d="M55.2,174.9v-23H67v3.7h-8.4v5.4h6.1v3.7h-6.1v6.2h8.8v3.9H55.2z"/>
<path d="M70.2,174.9v-23h6.2c3.3-0.5,6.3,1.8,6.8,5.1c0.1,0.6,0.1,1.2,0,1.8c0,1.3-0.3,2.6-0.9,3.7c-0.5,1-1.4,1.7-2.5,2.1l4,10.3
	h-3.7l-3.5-9.3h-3.1v9.3L70.2,174.9z M73.5,161.9h3c1.5,0.3,3-0.8,3.2-2.3c0-0.3,0-0.6,0-0.9c0.1-0.9-0.2-1.7-0.8-2.4
	c-0.7-0.6-1.5-0.8-2.4-0.8h-3L73.5,161.9z"/>
<path d="M97.5,174.9l-4.7-23h3.4l2.6,13.2c0.1,0.5,0.2,1.2,0.3,2.1c0.1,0.9,0.3,1.9,0.4,3.1c0.1-1.4,0.3-2.9,0.6-4.3l0.1-0.6
	l2.7-13.4h2.9l2.5,13.2c0.1,0.5,0.2,1.2,0.3,2.1c0.1,0.9,0.3,1.9,0.4,3.1c0-0.8,0.1-1.5,0.2-2.4c0.1-0.8,0.3-1.7,0.5-2.7l2.7-13.4
	h3.4l-4.7,23h-3.8l-2.3-11.5c-0.2-1.1-0.4-2-0.5-2.9s-0.2-1.6-0.3-2.3c-0.1,1.1-0.2,2-0.4,2.9c-0.1,0.9-0.2,1.6-0.4,2.2l-2.3,11.6
	L97.5,174.9z"/>
<path d="M115.8,174.9l5.5-23h4.3l5.5,23h-3.4l-1.1-5h-6.3l-1.2,5H115.8z M121,166.2h4.6l-2.3-10.3L121,166.2z"/>
<path d="M133.2,174.9v-23h6.2c3.3-0.5,6.3,1.8,6.8,5.1c0.1,0.6,0.1,1.2,0,1.8c0,1.3-0.3,2.6-0.9,3.7c-0.5,1-1.4,1.7-2.5,2.1l4,10.3
	h-3.7l-3.5-9.3h-3.2v9.3L133.2,174.9z M136.5,161.9h3c1.5,0.3,3-0.8,3.2-2.3c0-0.3,0-0.6,0-0.9c0.1-0.9-0.2-1.7-0.8-2.4
	c-0.7-0.6-1.5-0.8-2.4-0.8h-3L136.5,161.9z"/>
<path d="M150,174.9v-23h11.8v3.7h-8.4v5.4h6.1v3.7h-6.1v6.2h8.8v3.9H150z"/>
<path d="M165,174.9v-23h3.4v9.1h6.9v-9.2h3.4v23h-3.4v-10.1h-6.9v10.1L165,174.9z"/>
<path d="M181.8,163.4c-0.2-3,0.5-6.1,2-8.7c1.9-3.1,5.9-4,8.9-2.2c0.9,0.5,1.6,1.3,2.2,2.2c2.7,5.5,2.7,11.9,0,17.4
	c-1.8,3.1-5.8,4.1-8.9,2.2c-0.9-0.5-1.7-1.3-2.2-2.2C182.3,169.4,181.6,166.4,181.8,163.4z M185.2,163.4c-0.1,2,0.2,4.1,1,5.9
	c0.7,1.7,2.7,2.5,4.4,1.7c0.8-0.3,1.4-1,1.7-1.7c0.8-1.9,1.1-3.9,1-5.9c0.1-2-0.2-4.1-1-6c-0.7-1.7-2.6-2.5-4.3-1.8
	c-0.8,0.3-1.4,1-1.8,1.8C185.5,159.3,185.2,161.4,185.2,163.4L185.2,163.4z"/>
<path d="M199.9,166.4v-14.6h3.4v14.8c-0.1,1.3,0.2,2.6,0.8,3.7c0.6,0.8,1.6,1.2,2.6,1.1c1,0.1,2.1-0.3,2.8-1.1
	c0.7-1.1,0.9-2.4,0.8-3.7v-14.8h3.3v15.2c0.1,2.2-0.5,4.3-1.8,6c-1.3,1.5-3.2,2.2-5.1,2.1c-2,0.1-3.9-0.7-5.2-2.2
	C200.3,171.1,199.7,168.7,199.9,166.4z"/>
<path d="M216.4,169.7l3.1-1.8c0.3,1,0.9,1.9,1.6,2.7c1.2,1.1,3.1,1.1,4.3,0c0.5-0.6,0.8-1.3,0.8-2.1c0-0.6-0.2-1.3-0.6-1.8
	c-0.6-0.6-1.3-1.1-2.1-1.4l-0.6-0.3c-1.3-0.6-2.6-1.3-3.7-2.1c-0.7-0.6-1.3-1.3-1.6-2.1c-0.4-0.9-0.6-1.9-0.5-2.9
	c-0.1-1.7,0.5-3.3,1.7-4.5c1.1-1.2,2.7-1.8,4.3-1.7c1.4-0.1,2.8,0.4,3.9,1.3c1.1,1,1.9,2.3,2.3,3.8l-3.1,1.4
	c-0.3-0.8-0.7-1.6-1.4-2.3c-0.6-0.5-1.3-0.7-2-0.7c-0.7,0-1.3,0.2-1.8,0.7c-0.4,0.5-0.7,1.1-0.6,1.8c0,1.2,1,2.3,3.1,3.3l1.5,0.8
	c1.4,0.7,2.6,1.6,3.6,2.9c0.7,1.2,1,2.5,0.9,3.8c0.1,1.8-0.5,3.6-1.7,5c-1.2,1.2-2.8,1.9-4.5,1.8c-1.6,0-3.1-0.5-4.3-1.4
	C217.7,172.7,216.8,171.3,216.4,169.7z"/>
<path d="M232.5,174.9v-23h11.8v3.7h-8.4v5.4h6.1v3.7h-6.1v6.2h8.8v3.9H232.5z"/>
</svg>
