<?xml version="1.0" encoding="utf-8"?>
<!-- Generator: Adobe Illustrator 21.1.0, SVG Export Plug-In . SVG Version: 6.00 Build 0)  -->
<svg version="1.1" id="Layer_1" xmlns="http://www.w3.org/2000/svg" xmlns:xlink="http://www.w3.org/1999/xlink" x="0px" y="0px"
	 viewBox="0 0 250 250" style="enable-background:new 0 0 250 250;" xml:space="preserve">
<style type="text/css">
	.st0{fill:#D81B31;}
</style>
<title>Logos</title>
<path class="st0" d="M30.5,150.5C16.4,150.5,5,139.1,5,125C5,111,16.4,99.6,30.4,99.5s25.5,11.4,25.5,25.4c0,0,0,0.1,0,0.1
	C55.8,139.1,44.5,150.4,30.5,150.5z M13.2,125c0,9.5,7.7,17.3,17.2,17.4c9.5,0,17.3-7.7,17.4-17.2c0-9.5-7.7-17.3-17.2-17.4
	c0,0-0.1,0-0.1,0C21,107.8,13.3,115.5,13.2,125z"/>
<path class="st0" d="M184.6,117.6c-2.3,0-4.5,0-6.6,0c-0.3-0.1-0.5-0.2-0.7-0.5c-2.6-6.7-11.7-6.7-15.5-1.2c-1.7,2.8-2.5,6-2.2,9.3
	c0,2.3,0.5,4.6,1.5,6.6c2,3.6,6.1,5.4,10.1,4.6c3.6-0.7,6.4-3.5,7-7.1c0-0.2,0-0.4,0-0.5h-7.9v-5.7h14.3v18.6c-1.4,0-2.8,0-4.2,0
	c-0.2,0-0.6-0.5-0.6-0.9c-0.2-1.1-0.4-2.1-0.6-3.3c-0.2,0.2-0.5,0.3-0.7,0.5c-5.5,7.1-18.3,5.8-23.3-2.2c-4-6.6-4-17,0.4-23.2
	c3.7-5.3,9.1-6.9,15.3-6.5c3.3,0.1,6.5,1.3,9.1,3.4C182.6,111.5,184.2,114.4,184.6,117.6z"/>
<path class="st0" d="M122.5,106.9c5.2,0,10.4,0,15.5,0c1.7,0,3.4,0,5.1,0.3c5.3,1,8.7,6.1,7.7,11.3c-0.2,1-0.5,1.9-1,2.8
	c-0.9,1.6-2.3,2.9-4,3.6c0,0.1,0.1,0.2,0.2,0.3c3.1,1.2,3.9,3.8,4,6.7c0,2,0,4,0.1,6c-0.1,1.1,0.3,2.2,1.2,2.8
	c0.1,0.1,0.1,0.4,0.2,0.8c-2.6,0-5.1,0-7.6,0c-0.2,0-0.6-0.6-0.7-1c-0.2-1.7-0.4-3.5-0.5-5.2c-0.1-1.2,0-2.3-0.1-3.5
	c0.2-1.9-1.3-3.6-3.2-3.8c-0.2,0-0.3,0-0.5,0c-3.1-0.2-6.3,0-9.6,0v13.4h-6.9L122.5,106.9z M129.4,122.2c3.5,0,6.9,0.1,10.2,0
	c2.2,0,4-1.8,4-4c0-0.1,0-0.3,0-0.4c0.3-2.4-1.3-4.5-3.7-4.9c-0.3,0-0.6-0.1-0.9,0c-3.1-0.1-6.1,0-9.1,0c-0.2,0-0.4,0.1-0.6,0.1
	L129.4,122.2z"/>
<path class="st0" d="M189.2,107h24.1v5.9h-17v7.5h15.5v6h-1.5c-4.3,0-8.6,0-12.8,0c-1,0-1.3,0.2-1.3,1.3c0,2.6,0,5.2,0,8h18v5.9
	h-24.9V107z"/>
<path class="st0" d="M120,141.6c-2.4,0-4.8,0-7.2,0c-0.3,0-0.7-0.5-0.8-0.9c-0.6-1.8-1.1-3.6-1.7-5.4c-0.1-0.6-0.6-1-1.2-0.9
	c-3.7,0-7.4,0-11.1,0c-0.6-0.1-1.2,0.3-1.3,0.9c-0.6,1.8-1.2,3.6-1.9,5.4c-0.2,0.4-0.5,0.7-1,0.8c-2.2,0-4.4,0-6.8,0
	c0.1-0.5,0.2-0.9,0.4-1.2c3.8-10.8,7.7-21.6,11.5-32.4c0.1-0.7,0.8-1.2,1.5-1.1c2.1,0,4.2,0,6.2,0c0.5,0,0.9,0.3,1.2,0.7
	c4,11.1,7.9,22.2,11.8,33.3C119.9,141.1,120,141.4,120,141.6z M103.8,114.8h-0.3l-4.4,13.6h9L103.8,114.8z"/>
<path class="st0" d="M234.5,141.5h-7.2v-28.6h-10.5V107H245v5.9c-2.8,0-5.6,0-8.3,0c-2.7,0-2.2-0.3-2.2,2.2c0,8.3,0,16.6,0,24.9
	L234.5,141.5z"/>
<path class="st0" d="M83.2,141.5H76v-28.6H65.5V107h28v5.9H83.2V141.5z"/>
<path class="st0" d="M39.5,125c0,5-4,9.1-9,9.1c-5,0-9.1-4-9.1-9c0-5,4-9.1,9-9.1c0,0,0,0,0,0C35.4,116,39.5,120,39.5,125
	C39.5,125,39.5,125,39.5,125z"/>
<path class="st0" d="M240.4,142.4c-1.2,0-2.2-1-2.2-2.2c0-1.2,1-2.2,2.2-2.2c1.2,0,2.2,1,2.2,2.2l0,0
	C242.7,141.3,241.7,142.4,240.4,142.4z M240.4,138.4c-0.9,0-1.7,0.8-1.7,1.7s0.8,1.7,1.7,1.7s1.7-0.8,1.7-1.7
	C242.2,139.2,241.4,138.4,240.4,138.4L240.4,138.4L240.4,138.4z"/>
<path class="st0" d="M239.6,141.1v-2h0.9c0.2,0,0.3,0,0.5,0c0.1,0,0.2,0.1,0.2,0.2c0.1,0.1,0.1,0.2,0.1,0.3c0,0.1,0,0.3-0.1,0.4
	c-0.1,0.1-0.3,0.2-0.4,0.2c0.1,0,0.2,0.1,0.2,0.2c0.1,0.1,0.2,0.2,0.2,0.3l0.2,0.4h-0.5l-0.3-0.4l-0.2-0.3l-0.1-0.1H240v0.8
	L239.6,141.1z M240,139.9h0.3h0.4c0,0,0.1,0,0.1-0.1c0-0.1,0-0.1,0-0.2c0-0.1,0-0.1,0-0.2c0,0-0.1-0.1-0.2-0.1H240V139.9z"/>
</svg>
