<?xml version="1.0" encoding="utf-8"?>
<!-- Generator: Adobe Illustrator 21.1.0, SVG Export Plug-In . SVG Version: 6.00 Build 0)  -->
<svg version="1.1" id="Layer_1" xmlns="http://www.w3.org/2000/svg" xmlns:xlink="http://www.w3.org/1999/xlink" x="0px" y="0px"
	 viewBox="0 0 250 250" style="enable-background:new 0 0 250 250;" xml:space="preserve">
<style type="text/css">
	.st0{fill:#CC0000;}
</style>
<title>Mass</title>
<g>
	<path class="st0" d="M125.4,45.4c34.2,0,61.9,27.7,62,61.9c0,34.2-27.7,61.9-61.9,62c-34.2,0-61.9-27.7-62-61.9c0,0,0-0.1,0-0.1
		C63.5,73.2,91.2,45.5,125.4,45.4z M125.4,66c-22.8,0-41.3,18.5-41.3,41.4s18.5,41.3,41.4,41.3c22.8,0,41.3-18.5,41.3-41.3
		C166.7,84.5,148.2,66,125.4,66C125.3,66,125.3,66,125.4,66L125.4,66z"/>
	<path d="M118.7,193.3c0.1,0.1,0.2,0.1,0.2,0.2c1.3,0.5,2.3,1.6,2.7,2.9c0.3,0.9,0.4,1.8,0.4,2.7c0,1,0.1,2.1,0.3,3.1
		c0.1,0.6,0.3,1.2,0.5,1.8c-0.2,0.2-0.3,0.1-0.5,0.1h-3.8c-0.6,0-0.6,0-0.8-0.6c-0.2-1-0.4-2-0.4-3c-0.1-0.8-0.1-1.6-0.3-2.4
		c-0.1-0.4-0.2-0.8-0.4-1.2c-0.3-0.8-1.1-1.4-2-1.6c-0.4-0.1-0.8-0.1-1.2-0.2h-4.6c-0.6,0-0.6,0-0.6,0.6c0,2.4,0,4.9,0,7.3
		c0,0.2,0,0.4,0,0.6c0,0.2-0.1,0.4-0.4,0.4h-1.6c-0.8,0-1.7,0-2.5,0c-0.3,0-0.5-0.1-0.5-0.5c0-0.1,0-0.3,0-0.4c0-7,0-14,0-21
		c0-0.9-0.1-0.8,0.8-0.8h11.4c0.9,0,1.9,0.1,2.8,0.5c2.7,1,4.3,3.8,3.9,6.6c-0.1,1.3-0.6,2.6-1.5,3.5
		C120.1,192.5,119.4,192.9,118.7,193.3z M111.6,191.6h2.6h0.4c1.2,0,2.2-0.8,2.5-2c0.1-0.5,0.2-1,0.2-1.6c0-1.5-1.2-2.8-2.7-2.8
		c-0.1,0-0.1,0-0.2,0c-1.9-0.1-3.8,0-5.7,0c-0.3,0-0.4,0.1-0.4,0.4c0,1.8,0,3.7,0,5.5c0,0.4,0.1,0.5,0.5,0.5
		C109.7,191.6,110.6,191.6,111.6,191.6L111.6,191.6z"/>
	<path d="M142.1,201.5l-0.5,0.6c-1.4,1.5-3.4,2.4-5.4,2.5c-3.2,0.2-6.2-1-8.4-3.4c-1.5-1.6-2.4-3.6-2.8-5.7c-0.5-2.7-0.3-5.4,0.7-8
		c1.3-3.7,4.7-6.3,8.6-6.7c2.2-0.3,4.5,0,6.5,1c2.6,1.2,4.4,3.7,4.7,6.5c0,0.1,0,0.2,0,0.4c-0.5,0.1-0.9,0.1-1.4,0.1
		c-0.9,0-1.9,0-2.8,0c-0.3,0.1-0.6-0.1-0.6-0.4c0,0,0,0,0,0c-0.4-1.6-1.7-2.8-3.3-3.2c-2.6-0.7-5.4,0.5-6.6,3
		c-0.5,1-0.8,2.1-0.9,3.2c-0.2,1.7-0.1,3.5,0.5,5.2c0.6,1.8,2,3.2,3.9,3.7c1.3,0.4,2.7,0.3,4-0.1c1.8-0.6,3.1-2.3,3.2-4.3
		c0-0.3-0.2-0.3-0.4-0.3h-4.2c-0.3,0-0.4-0.1-0.4-0.4c0-0.9,0-1.9,0-2.8c0-0.4,0.2-0.4,0.5-0.4h8.4c0.6,0,0.6,0,0.6,0.6
		c0,3.7,0,7.4,0,11.1c0,0.6,0,0.6-0.6,0.6c-0.6,0-1.4,0-2.1,0c-0.5,0-0.5,0-0.6-0.5C142.5,202.8,142.3,202.2,142.1,201.5z"/>
	<path d="M149.3,192.6c0-3.5,0-7,0-10.4c0-0.2,0-0.4,0-0.6c0-0.2,0.1-0.4,0.4-0.4h16.2c0.3,0,0.4,0.1,0.4,0.4c0,1.1,0,2.3,0,3.4
		c0,0.3-0.1,0.4-0.4,0.4c-0.3,0-0.4,0-0.6,0h-10c-0.2,0-0.3,0-0.5,0c-0.4,0-0.5,0.2-0.5,0.5c0,1.3,0,2.5,0,3.8c0,0.6,0,0.6,0.7,0.6
		h10c0.2,0,0.3,0.1,0.3,0.3c0,1.1,0,2.1,0,3.2c0,0.2-0.1,0.3-0.3,0.3h-9.7c-0.2,0-0.3,0-0.5,0c-0.3,0-0.5,0.1-0.5,0.4
		c0,1.6,0,3.2,0,4.8c0,0.3,0.1,0.4,0.4,0.4c0.2,0,0.3,0,0.5,0h10.4c0.2,0,0.3,0,0.5,0c0.4,0,0.5,0.2,0.5,0.5c0,1.1,0,2.1,0,3.2
		c0,0.5,0,0.5-0.5,0.5h-15.9c-1,0-0.9,0-0.9-0.9C149.3,199.6,149.3,196.1,149.3,192.6z"/>
	<path d="M101.2,203.9c-0.2,0.1-0.4,0.2-0.5,0.1h-4c-0.6,0-0.6,0-0.8-0.6c-0.5-1.3-0.9-2.7-1.3-4c-0.1-0.3-0.4-0.6-0.7-0.5
		c-2.5,0-5,0-7.5,0c-0.4-0.1-0.7,0.2-0.7,0.5c-0.5,1.4-0.9,2.7-1.4,4c-0.1,0.3-0.2,0.5-0.5,0.5c-1.4,0-2.9,0-4.3,0
		c-0.1,0-0.1,0-0.2-0.1c0-0.2,0-0.5,0.2-0.7c2.7-7.1,5.4-14.2,8.1-21.4c0.2-0.7,0.1-0.6,0.9-0.6h3.9c0.6,0,0.6-0.1,0.8,0.6l5.1,13.5
		l3,8C101.1,203.5,101.1,203.7,101.2,203.9z M90.2,186.9c-1.1,2.7-2.1,5.5-2.9,8.3h5.8L90.2,186.9z"/>
	<path d="M71.9,181.3h8.9c0.3,0,0.4,0.1,0.4,0.4c0,1.2,0,2.3,0,3.5c0,0.2-0.1,0.3-0.3,0.3h-5.8c-0.8,0-0.8,0-0.8,0.8
		c0,5.1,0,10.2,0,15.3c0,0.6,0,1.3,0,1.9c0,0.6,0,0.6-0.6,0.6c-1.3,0-2.6,0-3.9,0c-0.5,0-0.5,0-0.5-0.5c0-0.2,0-0.4,0-0.6
		c0-5.6,0-11.1,0-16.7c0-1,0-0.9-0.9-0.9h-5.3c-0.6,0-0.6,0-0.6-0.6c0-1,0-1.9,0-2.9c0-0.7,0-0.7,0.7-0.7L71.9,181.3L71.9,181.3z"/>
	<path d="M178.2,181.3h8.4c0.2,0,0.3,0,0.5,0c0.2,0,0.4,0.1,0.4,0.4c0,1.1,0,2.2,0,3.3c0,0.3-0.1,0.5-0.4,0.5c-0.8,0-1.5,0-2.3,0
		h-3.6c-0.5,0-0.5,0-0.5,0.5c0,0.5,0,1,0,1.5c0,5.2,0,10.4,0,15.6c0,0.2,0,0.4,0,0.6c0,0.2-0.1,0.4-0.4,0.4h-4.2
		c-0.3,0-0.4-0.1-0.4-0.4s0-0.4,0-0.6c0-5.5,0-11.1,0-16.6c0-1.2,0.1-1-1.1-1.1h-5.2c-0.5,0-0.5,0-0.5-0.5c0-1,0-2,0-3
		c0-0.6,0-0.6,0.6-0.6L178.2,181.3L178.2,181.3z"/>
	<path class="st0" d="M125.4,128.5c-11.7,0-21.2-9.5-21.2-21.2s9.5-21.2,21.2-21.2c11.7,0,21.2,9.5,21.2,21.2v0
		c0,11.7-9.4,21.2-21.1,21.2C125.4,128.5,125.4,128.5,125.4,128.5z"/>
</g>
</svg>
