<?xml version="1.0" encoding="utf-8"?>
<!-- Generator: Adobe Illustrator 21.1.0, SVG Export Plug-In . SVG Version: 6.00 Build 0)  -->
<svg version="1.1" id="svg" xmlns="http://www.w3.org/2000/svg" xmlns:xlink="http://www.w3.org/1999/xlink" x="0px" y="0px"
	 viewBox="0 0 250 250" style="enable-background:new 0 0 250 250;" xml:space="preserve">
<style type="text/css">
	.st0{fill:#201B18;}
	.st1{fill:#5E5C5C;}
	.st2{fill:#D81E05;}
	.st3{fill:#0F4F84;}
	.st4{fill:#F0F5F6;}
	.st5{fill:#FDFDFD;}
</style>
<g>
	<path class="st0" d="M245.2,130.6c-3.1,16.4-17.9,27.1-34.8,25.1c-15.8-1.9-27.6-16.4-26.7-32.7c0.9-15.5,13.5-27.9,29.4-28.9
		c15-1,29,10,31.9,24.8C245.3,119.8,246,125,245.2,130.6z M214.7,95.1c-17,0.2-30,13.5-30,30.1c0,16.4,13.4,29.8,29.8,29.8
		c16.7,0,30.2-13.3,30.1-29.9C244.6,108.4,231.5,95.3,214.7,95.1z"/>
	<path class="st1" d="M6,109.2c-0.1,0-0.3,0-0.4,0c0-4.7,0-9.4,0-14.1c0.1,0,0.3,0,0.4,0C5.9,99.8,6,104.5,6,109.2z"/>
	<path class="st0" d="M53.9,124.1c0.2-4.2-0.5-9.3,0.3-14.3c1.4-8.5,8.7-14.7,17.3-14.7c4.6,0,9.2,0,13.8,0c1.1,0,1.5,0.1,1.5,1.4
		c-0.1,3.8-0.1,7.7,0,11.5c0,1.1-0.3,1.3-1.3,1.3c-4.8-0.1-9.7,0-14.5,0c-2.7,0-3.7,1-3.7,3.7c0,1.7-0.7,3.8,0.3,4.8
		c0.9,0.8,3.1,0.3,4.7,0.3c4.4,0,8.8,0,13.2,0c1,0,1.4,0.2,1.4,1.3c-0.1,3.8-0.1,7.7,0,11.5c0,1.2-0.4,1.4-1.5,1.4
		c-5.5-0.1-11,0-16.5-0.1c-1.2,0-1.7,0.2-1.6,1.5c0.1,1.4,0,2.7,0,4.1c0,2.4,1.1,3.5,3.6,3.5c4.8,0,9.5,0.1,14.3,0
		c1.5,0,1.7,0.4,1.7,1.8c-0.1,3.5-0.1,7.1,0,10.6c0,1.3-0.4,1.5-1.6,1.5c-4.6-0.1-9.2,0-13.8,0c-9.5,0-17.4-7.8-17.6-17.3
		C53.9,133.5,53.9,129.3,53.9,124.1z M54.9,125.1C54.9,125.1,55,125.1,54.9,125.1c0,4.4-0.1,8.8,0.1,13.2
		c0.2,7.4,5.9,14.1,13.2,15.4c5.5,1,11.1,0.3,16.7,0.4c1.1,0,0.9-0.8,0.9-1.4c0-2.9-0.1-5.8,0-8.7c0.1-1.5-0.5-1.7-1.8-1.7
		c-4.5,0.1-8.9,0-13.4,0c-2.8,0-4.4-1.6-4.5-4.5c0-1.6,0.1-3.2,0-4.8c-0.1-1.6,0.5-1.8,1.9-1.8c5.3,0.1,10.5,0,15.8,0.1
		c1.4,0,2.1-0.2,1.9-1.9c-0.2-2.8-0.1-5.6,0-8.4c0.1-1.6-0.3-2.1-2-2.1c-5.4,0.1-10.8,0-16.2,0.1c-1.2,0-1.5-0.3-1.4-1.4
		c0.1-1.4,0-2.8,0-4.3c0-3.6,1.4-5.1,5-5.1c4.4,0,8.8,0,13.2,0.1c1,0,1.4-0.2,1.3-1.3c-0.1-3-0.1-5.9,0-8.9c0.1-1.5-0.3-2.1-1.9-2
		c-4,0.1-8.1,0-12.1,0c-9.5,0.1-16.8,7.3-16.8,16.9C54.9,117,54.9,121,54.9,125.1z"/>
	<path class="st0" d="M177.8,95.1c4.2,0,8.3,0,12.5,0c0.4,0,0.9-0.2,1.2,0.2c0.4,0.8-0.5,0.7-0.8,0.9c-4.1,3.5-7.6,7.4-10,12.3
		c-0.4,0.8-1.1,0.7-1.7,0.7c-3.7,0-7.3,0-11,0c-8.9,0.1-15.9,7.1-16,15.9c0,8.8,6.9,15.9,15.8,16c4.3,0.1,8.5,0,12.8,0
		c1.1,0,1.5,0.2,1.5,1.4c-0.1,3.7,0,7.4,0,11.2c0,0.6,0.2,1.3-0.8,1.3c-6.7-0.3-13.5,0.7-20.2-0.7c-14.9-3.2-24.8-17.2-23.2-32.8
		c1.5-14.6,14.4-26.3,29.3-26.4C170.8,95,174.3,95.1,177.8,95.1C177.8,95.1,177.8,95.1,177.8,95.1z M189.1,96.4
		c-0.3-0.5-0.7-0.3-1.1-0.3c-6.6,0-13.3,0-19.9,0c-1.8,0-3.6,0.1-5.4,0.4c-15,2.5-26.5,16.7-23.7,33.9c1.2,7,5,12.6,10.4,17.2
		c3.7,3.1,7.9,5,12.7,5.9c6,1.1,12,0.4,18,0.6c1.1,0,1-0.6,1-1.4c0-3-0.1-6.1,0-9.1c0-1.2-0.4-1.4-1.5-1.4c-4,0.1-7.9,0.1-11.9,0
		c-8.3-0.1-16.6-6.8-16.7-16.8c-0.1-9.5,7.5-17.1,17-17.2c3.5,0,6.9,0,10.4,0c0.6,0,1.2,0.1,1.6-0.6
		C182.5,103.4,185.3,99.4,189.1,96.4z"/>
	<path class="st0" d="M146.5,95.3c-0.5,0.7-1,1.3-1.7,1.8c-4.1,2.9-7.5,6.5-9.9,10.9c-0.5,1-1.1,1.3-2.2,1.2c-2.7-0.1-5.3,0-8-0.1
		c-1.3,0-1.6,0.3-1.6,1.6c0,13.9,0,27.9,0,41.8c0,2.4,0,2.4-2.5,2.4c-3.5,0-6.9-0.1-10.4,0c-1.4,0-1.7-0.3-1.7-1.7
		c0.1-14.1,0-28.1,0.1-42.2c0-1.7-0.5-2-2.1-2c-3.9,0.1-7.8,0-11.7,0.1c-1,0-1.4-0.3-1.4-1.3c0.1-3.9,0-7.8,0-11.7
		c0-0.9,0.2-1.2,1.1-1.2c17.2,0,34.3,0,51.5,0C146.2,95.1,146.3,95.2,146.5,95.3z M108.3,108.2c1.6-0.3,1.3,0.8,1.3,1.7
		c0,14.1,0,28.1,0,42.2c0,1.6,0.4,2,2,1.9c2.9-0.1,5.8-0.1,8.7,0c1.4,0.1,1.9-0.3,1.9-1.8c-0.1-5.9,0-11.8,0-17.7
		c0-8.2,0-16.4,0-24.5c0-1.5,0.5-1.9,1.9-1.8c1.6,0.1,3.2-0.1,4.8,0.1c3.2,0.4,5.8-0.1,7.1-3.6c0.1-0.2,0.2-0.3,0.3-0.4
		c2.2-3,4.9-5.5,7.9-7.9c-0.9-0.5-1.6-0.3-2.3-0.3c-9.4,0-18.7,0-28.1,0c-5.8,0-11.6,0.1-17.5,0.1c-1.3,0-1.7,0.4-1.7,1.7
		c0.1,3,0,5.9-0.1,8.9c0,1.2,0.3,1.6,1.6,1.6c3.9-0.1,7.8,0,11.7,0C107.9,108.4,108.1,108.4,108.3,108.2z"/>
	<path class="st0" d="M6,109.2c0-4.7,0-9.4,0-14.1c16,0,32.1,0,48.1,0c0,0,0.1,0.1,0.3,0.3c-2.9,2.8-4.6,6.3-6,10
		c-0.3,0.8-0.7,1.9-0.6,2.5c0.1,1.7-0.8,1.4-1.8,1.4c-2.9,0-5.8,0.1-8.7,0c-1.6-0.1-2.1,0.3-2.1,2c0.1,14,0,28,0.1,42
		c0,1.6-0.5,1.9-2,1.9c-3.6-0.1-7.2-0.1-10.8,0c-1.3,0-1.6-0.4-1.6-1.6c0-14.1,0-28.1,0.1-42.2c0-1.6-0.4-2.1-2-2
		C14.6,109.3,10.3,109.2,6,109.2z M52.1,96.3c-0.5-0.4-1-0.3-1.5-0.4c-14.1,0-28.2,0-42.4,0c-1.1,0-1.6,0.2-1.5,1.4
		c0.1,3.2,0.1,6.3,0,9.5c0,1.1,0.4,1.4,1.4,1.4c3.8,0,7.7,0,11.5,0c2.6,0,2.4-0.4,2.4,2.4c0,13.9,0,27.8,0,41.6c0,1.6,0.4,2,2,1.9
		c2.6-0.1,5.2,0,7.8,0c2.5,0,2.5,0,2.5-2.4c0-13.9,0-27.8,0-41.6c0-1.5,0.4-1.9,1.8-1.9c3.2,0.1,6.3,0,9.5,0c0.7,0,1.3,0.1,1.5-0.9
		C47.9,103.3,49.5,99.6,52.1,96.3z"/>
	<path class="st2" d="M214.7,95.1c16.8,0.2,29.9,13.3,29.9,30c0.1,16.6-13.5,29.9-30.1,29.9c-16.4,0-29.8-13.4-29.8-29.8
		C184.7,108.5,197.7,95.2,214.7,95.1z M214.8,106.9c-10.1,0-18.3,8.1-18.3,18c0,10,8.2,18.3,18.1,18.4c10,0.1,18.3-8.1,18.3-18
		C232.9,115,225,107,214.8,106.9z"/>
	<path class="st2" d="M54.9,125.1c0-4,0-8.1,0-12.1c0.1-9.6,7.3-16.8,16.8-16.9c4,0,8.1,0.1,12.1,0c1.6,0,2,0.5,1.9,2
		c-0.1,3-0.1,5.9,0,8.9c0,1.1-0.3,1.3-1.3,1.3c-4.4-0.1-8.8-0.1-13.2-0.1c-3.6,0-5,1.4-5,5.1c0,1.4,0.1,2.9,0,4.3
		c-0.1,1.1,0.2,1.4,1.4,1.4c5.4-0.1,10.8,0,16.2-0.1c1.7,0,2.1,0.5,2,2.1c-0.1,2.8-0.2,5.6,0,8.4c0.1,1.7-0.5,1.9-1.9,1.9
		c-5.3-0.1-10.5,0-15.8-0.1c-1.4,0-2,0.2-1.9,1.8c0.1,1.6,0,3.2,0,4.8c0,2.8,1.7,4.5,4.5,4.5c4.5,0,8.9,0,13.4,0
		c1.3,0,1.9,0.2,1.8,1.7c-0.1,2.9,0,5.8,0,8.7c0,0.7,0.2,1.5-0.9,1.4c-5.6-0.2-11.2,0.6-16.7-0.4c-7.3-1.3-13-8-13.2-15.4
		C54.9,133.9,55,129.5,54.9,125.1C55,125.1,54.9,125.1,54.9,125.1z"/>
	<path class="st2" d="M189.1,96.4c-3.9,3-6.6,7-9,11.2c-0.4,0.7-1,0.6-1.6,0.6c-3.5,0-6.9,0-10.4,0c-9.5,0.1-17.1,7.7-17,17.2
		c0.1,10,8.4,16.7,16.7,16.8c4,0.1,7.9,0,11.9,0c1.1,0,1.5,0.2,1.5,1.4c-0.1,3,0,6.1,0,9.1c0,0.7,0.1,1.4-1,1.4
		c-6-0.2-12,0.5-18-0.6c-4.7-0.9-9-2.8-12.7-5.9c-5.4-4.5-9.2-10.2-10.4-17.2c-2.8-17.3,8.6-31.4,23.7-33.9c1.8-0.3,3.6-0.4,5.4-0.4
		c6.6,0,13.3,0,19.9,0C188.4,96.1,188.8,95.9,189.1,96.4z"/>
	<path class="st2" d="M107.8,108.2c-3.9,0-7.8-0.1-11.7,0c-1.2,0-1.6-0.3-1.6-1.6c0.1-3,0.1-5.9,0.1-8.9c0-1.3,0.3-1.7,1.7-1.7
		c5.8,0,11.6,0,17.5-0.1c9.4,0,18.7,0,28.1,0c0.7,0,1.5-0.1,2.3,0.3c-3,2.4-5.7,4.9-7.9,7.9c-0.1,0.2-0.3,0.3-0.3,0.4
		c-1.2,3.4-3.9,3.9-7.1,3.6c-1.6-0.2-3.2,0-4.8-0.1c-1.4-0.1-1.9,0.3-1.9,1.8c0.1,8.2,0,16.4,0,24.5c0,5.9,0,11.8,0,17.7
		c0,1.5-0.4,1.9-1.9,1.8c-2.9-0.1-5.8-0.1-8.7,0c-1.5,0.1-2-0.4-2-1.9c0.1-14.1,0-28.1,0-42.2c0-0.9,0.2-2-1.3-1.7
		C108.1,108.2,107.9,108.2,107.8,108.2z"/>
	<path class="st1" d="M107.8,108.2c0.2,0,0.3,0,0.5,0C108.1,108.4,107.9,108.4,107.8,108.2z"/>
	<path class="st2" d="M52.1,96.3c-2.6,3.2-4.2,6.9-5.1,11c-0.2,1-0.8,0.9-1.5,0.9c-3.2,0-6.3,0.1-9.5,0c-1.5-0.1-1.9,0.4-1.8,1.9
		c0.1,13.9,0,27.8,0,41.6c0,2.4,0,2.4-2.5,2.4c-2.6,0-5.2-0.1-7.8,0c-1.5,0.1-2-0.4-2-1.9c0.1-13.9,0-27.8,0-41.6
		c0-2.8,0.3-2.4-2.4-2.4c-3.8,0-7.7,0-11.5,0c-1,0-1.4-0.3-1.4-1.4c0.1-3.2,0.1-6.3,0-9.5c0-1.2,0.5-1.4,1.5-1.4
		c14.1,0,28.2,0,42.4,0C51,96,51.5,95.9,52.1,96.3z"/>
	<path class="st3" d="M214.8,106.9c10.3,0,18.1,8,18.1,18.4c0,10-8.3,18.1-18.3,18c-9.9-0.1-18.1-8.4-18.1-18.4
		C196.4,115,204.7,106.9,214.8,106.9z M219.5,124c4.5,0,4.5,0,3.2-4.4c0-0.1,0-0.1,0-0.2c-0.2-1.5-0.9-2-2.4-1.4
		c-0.9,0.3-1.9,0.5-2.9,0.5c-1.3,0-1.7,0.4-1.7,1.7C215.8,124,215.7,124,219.5,124z M209.7,124c0.8,0,1.6-0.1,2.4,0
		c1.1,0.1,1.5-0.2,1.5-1.4c0-3.7,0.1-3.7-3.5-4.4c-0.2,0-0.4,0-0.5-0.1c-1.8-0.8-2.5-0.1-3,1.8C205.6,124,205.5,124,209.7,124z
		 M215.7,129.2c-0.6,1.9,0.4,2.7,2.5,2.6c0.1,0,0.1,0,0.2,0c4.1,0.6,4.1,0.6,4.8-3.6c0-0.3,0.1-0.6,0.2-0.9c0.2-0.8-0.1-1.1-0.9-1.1
		c-1.4,0-2.7,0-4.1,0C215.7,126.2,215.7,126.2,215.7,129.2z M201.7,124c1.8,0.5,2.5-0.4,2.6-2.5c0-1.1,0.4-2.3,0.8-3.4
		c0.3-0.9,0.2-1.5-0.7-1.6c-1-0.1-2-2-3.1-0.2c-0.9,1.5-1.6,3-2.1,4.7C198.5,124,198.5,124,201.7,124z M227.7,124c0.6,0,0.9,0,1.2,0
		c1.6,0.3,1.9-0.5,1.5-1.9c-0.4-1.5-0.8-3-1.5-4.3c-1.3-2.5-1.3-2.4-3.8-1.4c-1.1,0.4-1.2,0.9-0.8,1.9c0.4,1.1,0.8,2.3,0.8,3.4
		C225.1,123.8,226.1,124.4,227.7,124z M209.9,126.2c-4.5,0-4.5,0-3.2,4.4c0,0.1,0,0.1,0,0.2c0.2,1.6,1,1.8,2.4,1.4
		c0.9-0.3,1.9-0.5,2.9-0.5c1.4,0,1.5-0.6,1.5-1.8C213.5,126.2,213.5,126.2,209.9,126.2z M201.6,126.2c-0.6,0-0.8,0-1.1,0
		c-1.5-0.2-2,0.3-1.6,1.8c0.4,1.6,1,3.2,1.7,4.7c0.8,1.7,1.6,2.3,3.4,1.2c1.1-0.7,1.4-1.1,0.9-2.2c-0.4-0.9-0.7-1.9-0.7-2.9
		C204.3,126.6,203.4,125.7,201.6,126.2z M230.5,127.2c0.2-0.8-0.2-1-1.1-1c-0.9,0-1.9,0.1-2.8,0c-0.9-0.1-1.3,0.2-1.4,1.2
		c-0.1,1.6-0.4,3.2-1,4.7c-0.4,1,0,1.3,0.8,1.6c2.5,1.2,2.5,1.2,3.8-1.3C229.7,130.8,230.2,129.1,230.5,127.2z M215.8,109.4
		c0,1.2,0,1.9,0,2.7c0,5.3,0,5.3,5.1,3.7c0.1,0,0.1-0.2,0.2-0.3C219.8,113.2,218.2,111.2,215.8,109.4z M215.7,140.5
		c2.2-0.7,3.1-2.4,4.3-3.9c1.5-2,1.2-2.4-1.2-2.8c-0.7-0.1-1.4-0.2-2-0.3c-0.8-0.2-1.1,0.1-1.1,1
		C215.8,136.5,215.7,138.4,215.7,140.5z M213.5,137c0-3.6,0-3.6-2.9-3.2c-2.7,0.4-2.8,0.5-1.2,2.7c0.7,0.9,1.3,1.9,2.1,2.8
		c0.5,0.6,1,1.3,1.8,1c0.6-0.2,0.2-1.1,0.2-1.7C213.6,138.1,213.5,137.5,213.5,137z M213.6,109.4c-2.4,1.9-4.1,3.9-5.3,6.4
		c1.4,0.5,2.8,0.6,4.2,0.9c0.9,0.2,1.2-0.3,1.1-1.1C213.6,113.6,213.6,111.7,213.6,109.4z M226,113.9c-1.7-1.7-3.5-2.8-5.4-3.6
		c-0.4-0.2-0.7-0.3-0.9,0.2c-0.2,0.4,0.2,0.5,0.4,0.7c1.1,0.8,1.7,1.9,2.3,3c0.4,0.7,0.8,1.3,1.7,0.7
		C224.6,114.5,225.2,114.2,226,113.9z M219.3,140.2c2.3-0.5,3.9-1.5,5.4-2.8c0.4-0.3,1.3-0.6,0.9-1.2c-0.4-0.5-1.2-0.7-1.9-1
		c-0.6-0.3-0.8,0.1-1.1,0.6C221.6,137.2,220.5,138.6,219.3,140.2z M210.1,140.6c-1.1-1.4-1.9-2.4-2.5-3.4c-1.6-2.4-1.5-2.4-4.1-0.8
		C205.1,138.3,207.4,139.3,210.1,140.6z M209.9,109.8c-2.7,0.9-4.7,2.2-6.5,4c0.5,0.3,0.8,0.4,1.1,0.6c1.2,0.8,2,0.7,2.7-0.7
		C207.8,112.4,208.8,111.3,209.9,109.8z"/>
	<path class="st4" d="M219.5,124c-3.8,0-3.7,0-3.8-3.8c0-1.3,0.4-1.7,1.7-1.7c1,0,2-0.1,2.9-0.5c1.5-0.6,2.2-0.1,2.4,1.4
		c0,0.1,0,0.1,0,0.2C224,124,224,124,219.5,124z"/>
	<path class="st4" d="M209.7,124c-4.2,0-4.1,0-3.1-4.1c0.4-1.8,1.1-2.6,3-1.8c0.2,0.1,0.4,0.1,0.5,0.1c3.6,0.7,3.6,0.7,3.5,4.4
		c0,1.2-0.4,1.5-1.5,1.4C211.3,123.9,210.5,124,209.7,124z"/>
	<path class="st4" d="M215.7,129.2c0-2.9,0-2.9,2.6-2.9c1.4,0,2.7,0,4.1,0c0.8,0,1.1,0.3,0.9,1.1c-0.1,0.3-0.1,0.6-0.2,0.9
		c-0.7,4.2-0.7,4.2-4.8,3.6c-0.1,0-0.1,0-0.2,0C216.1,131.9,215.1,131,215.7,129.2z"/>
	<path class="st4" d="M201.7,124c-3.3,0-3.2,0-2.5-2.9c0.4-1.7,1.2-3.2,2.1-4.7c1.1-1.9,2.1,0,3.1,0.2c0.9,0.1,1.1,0.7,0.7,1.6
		c-0.4,1.1-0.8,2.2-0.8,3.4C204.2,123.6,203.5,124.6,201.7,124z"/>
	<path class="st4" d="M227.7,124c-1.6,0.4-2.5-0.2-2.5-2.3c0-1.1-0.4-2.3-0.8-3.4c-0.4-1-0.3-1.5,0.8-1.9c2.5-1,2.5-1.1,3.8,1.4
		c0.7,1.4,1.1,2.8,1.5,4.3c0.4,1.4,0.1,2.2-1.5,1.9C228.6,124,228.3,124,227.7,124z"/>
	<path class="st5" d="M209.9,126.2c3.6,0,3.6,0,3.6,3.6c0,1.2-0.1,1.8-1.5,1.8c-1,0-2,0.2-2.9,0.5c-1.4,0.5-2.2,0.2-2.4-1.4
		c0-0.1,0-0.1,0-0.2C205.4,126.2,205.4,126.2,209.9,126.2z"/>
	<path class="st4" d="M201.6,126.2c1.9-0.5,2.7,0.4,2.7,2.6c0,1,0.3,2,0.7,2.9c0.5,1.2,0.2,1.6-0.9,2.2c-1.8,1.1-2.7,0.5-3.4-1.2
		c-0.7-1.5-1.3-3.1-1.7-4.7c-0.4-1.5,0.1-2.1,1.6-1.8C200.7,126.2,201,126.2,201.6,126.2z"/>
	<path class="st4" d="M230.5,127.2c-0.3,1.9-0.8,3.7-1.7,5.3c-1.3,2.5-1.3,2.4-3.8,1.3c-0.8-0.4-1.2-0.6-0.8-1.6
		c0.6-1.5,1-3.1,1-4.7c0-1,0.5-1.3,1.4-1.2c0.9,0.1,1.9,0,2.8,0C230.3,126.1,230.8,126.4,230.5,127.2z"/>
	<path class="st4" d="M215.8,109.4c2.5,1.8,4.1,3.8,5.3,6.2c-0.1,0.1-0.1,0.3-0.2,0.3c-5.1,1.6-5.1,1.6-5.1-3.7
		C215.8,111.3,215.8,110.6,215.8,109.4z"/>
	<path class="st4" d="M215.7,140.5c0-2.1,0-4,0-6c0-0.8,0.3-1.1,1.1-1c0.7,0.1,1.3,0.2,2,0.3c2.4,0.4,2.7,0.8,1.2,2.8
		C218.9,138.1,218,139.8,215.7,140.5z"/>
	<path class="st4" d="M213.5,137c0,0.6,0,1.1,0,1.7c-0.1,0.6,0.3,1.5-0.2,1.7c-0.8,0.3-1.3-0.5-1.8-1c-0.7-0.9-1.4-1.9-2.1-2.8
		c-1.6-2.2-1.5-2.3,1.2-2.7C213.5,133.4,213.5,133.4,213.5,137z"/>
	<path class="st4" d="M213.6,109.4c0,2.3,0,4.2,0,6.1c0,0.8-0.2,1.3-1.1,1.1c-1.4-0.2-2.8-0.3-4.2-0.9
		C209.5,113.3,211.2,111.3,213.6,109.4z"/>
	<path class="st4" d="M226,113.9c-0.8,0.4-1.4,0.6-2,1c-0.9,0.5-1.3,0-1.7-0.7c-0.6-1.1-1.2-2.3-2.3-3c-0.2-0.1-0.6-0.3-0.4-0.7
		c0.2-0.4,0.6-0.3,0.9-0.2C222.6,111.1,224.3,112.2,226,113.9z"/>
	<path class="st4" d="M219.3,140.2c1.2-1.6,2.3-3,3.3-4.4c0.3-0.4,0.5-0.9,1.1-0.6c0.7,0.3,1.5,0.5,1.9,1c0.4,0.5-0.5,0.8-0.9,1.2
		C223.2,138.7,221.6,139.7,219.3,140.2z"/>
	<path class="st4" d="M210.1,140.6c-2.7-1.3-5-2.3-6.6-4.2c2.5-1.6,2.5-1.6,4.1,0.8C208.2,138.2,209,139.2,210.1,140.6z"/>
	<path class="st4" d="M209.9,109.8c-1.1,1.5-2.1,2.6-2.7,3.9c-0.7,1.5-1.5,1.5-2.7,0.7c-0.3-0.2-0.6-0.4-1.1-0.6
		C205.2,112,207.2,110.8,209.9,109.8z"/>
</g>
</svg>
