<?xml version="1.0" encoding="utf-8"?>
<!-- Generator: Adobe Illustrator 21.1.0, SVG Export Plug-In . SVG Version: 6.00 Build 0)  -->
<svg version="1.1" id="Layer_1" xmlns="http://www.w3.org/2000/svg" xmlns:xlink="http://www.w3.org/1999/xlink" x="0px" y="0px"
	 viewBox="0 0 250 250" style="enable-background:new 0 0 250 250;" xml:space="preserve">
<style type="text/css">
	.st0{fill:#E02526;}
</style>
<title>CR</title>
<path class="st0" d="M128.5,125.2c0.4-0.5,0.7-1.1,0.8-1.7c2.4-6.6,4.8-13.2,7.2-19.8c0.1-0.7,0.8-1.2,1.5-1.1c0,0,0.1,0,0.1,0
	c2.1,0.1,4.3,0.1,6.4,0c1.3,0,1.3,0.3,0.9,1.3c-4.3,11.6-8.6,23.2-12.9,34.8c-1,2.7-0.2,2.2-3.2,2.2c-1.9,0-3.7,0-5.6,0
	c-1.2,0-1.6-0.3-1.7-1.6c-0.1-3.2-0.4-6.4-0.6-9.6c0-0.4-0.1-0.7-0.2-1.1c-0.5,0.3-0.6,0.8-0.7,1.3c-1.2,3.2-2.5,6.5-3.6,9.7
	c-0.2,0.8-0.9,1.3-1.7,1.2c-2.2-0.1-4.4,0-6.7,0c-0.9,0-1-0.3-0.7-1.1c3.3-8.7,6.6-17.4,9.8-26.2c0.1-0.5,0.6-0.9,1.2-0.8
	c2.4,0,4.8,0,7.2,0c0.8,0,1.1,0.3,1.1,1.1c0.3,3.4,0.7,6.8,1.1,10.2C128.2,124.6,128.2,124.9,128.5,125.2z"/>
<path class="st0" d="M103.8,126.4c0.6,0.6,1.3,0.5,1.9,0.8c1.4,0.3,2.2,1.7,1.9,3.1c0,0.1-0.1,0.3-0.1,0.4c-1.9,5.3-3.8,10.7-5.7,16
	c-0.1,0.4-0.5,0.7-1,0.7c-2.8,0-5.6,0-8.4,0c-1.1,0-0.7-0.6-0.5-1.1c1.7-4.8,3.4-9.5,5.2-14.2c0.2-0.5,0.3-0.9,0.5-1.3
	c0.5-1.6,0.1-2.1-1.6-2.2c-0.9-0.1-1.2,0.3-1.4,1.1c-1.3,3.5-2.6,6.9-3.8,10.4c-0.1,0.9-0.9,1.5-1.8,1.3c-2.7-0.1-5.5,0-8.3,0
	c-0.8,0-1.3,0-0.9-1.1c3.3-8.7,6.5-17.3,9.8-26c0.1-0.6,0.7-1,1.3-0.9c5.2,0,10.4,0,15.6,0.3c0.8,0,1.5,0.2,2.2,0.3
	c2.7,0.7,3.8,2.5,3.2,5.2c-0.2,1-0.5,2-1,2.9C109.5,125,108.2,125.8,103.8,126.4z M97.8,124.1c1,0.1,1.9-0.4,2.5-1.2
	c0.6-1.1,1.1-2.3,1.4-3.6c0.2-0.5,0-1.1-0.6-1.4c-0.1,0-0.2-0.1-0.4-0.1c-0.8-0.1-1.7-0.7-2.1,0.5c-0.6,1.6-1.2,3.2-1.8,4.8
	C96.6,124,96.8,124.3,97.8,124.1L97.8,124.1z"/>
<path class="st0" d="M33.8,113c3.1,0,6.3,0.1,9.5,0c1,0,1.3,0.1,0.9,1.2c-1.1,2.6-2,5.2-3,7.8c-0.3,0.8-0.2,1.1,0.7,1.1
	c2.3,0,2.3,0.1,3.1-2.1c0.9-2.4,1.8-4.7,2.7-7.1c0.1-0.6,0.7-1,1.3-0.9c2.9,0,5.9,0,8.8,0c1,0,1,0.3,0.7,1.1
	c-3.3,8.7-6.5,17.3-9.8,26c-0.1,0.6-0.7,1-1.3,1c-2.9,0-5.8,0-8.7,0c-0.9,0-1.1-0.2-0.8-1.1c1.2-3.1,2.4-6.3,3.6-9.5
	c0.4-0.9,0.3-1.3-0.9-1.3c-1.3-0.3-2.6,0.5-2.8,1.8c0,0,0,0.1,0,0.1c-0.9,2.9-2.2,5.8-3.2,8.7c-0.1,0.8-0.9,1.4-1.7,1.2
	c-2.8,0-5.6,0-8.4,0c-0.7,0-1.2,0-0.8-1C27,131,30.4,122,33.8,113L33.8,113z"/>
<path class="st0" d="M220.4,113.1l-5.1,13.8c-1.6,4.3-3.3,8.5-4.8,12.8c-0.2,1-1.1,1.6-2.1,1.4c-2.1-0.1-4.2-0.1-6.3,0
	c-1.5,0.1-1.8-0.5-1.9-1.8c-0.1-3.1-0.4-6.2-0.6-9.3c0.1-0.4,0-0.8-0.3-1.1c-0.4,0.2-0.5,0.7-0.6,1.1c-1.3,3.3-2.5,6.7-3.7,10
	c-0.2,0.8-0.9,1.3-1.6,1.1c-2.2,0-4.4,0-6.5,0c-1,0-1.3-0.2-0.9-1.2c3.3-8.6,6.5-17.3,9.7-25.9c0.1-0.6,0.7-1,1.3-0.9
	c2.3,0,4.6,0,6.9,0c0.8,0,1.1,0.2,1.2,1.1c0.3,3.2,0.7,6.4,1,9.5c0,0.6,0.2,1.2,0.5,1.8c1.3-3.7,2.8-7.3,4.1-10.9
	c0.4-1.1,0.8-1.5,2.1-1.5C215.3,113.2,217.8,113.1,220.4,113.1z"/>
<path class="st0" d="M74.6,112.5c2.1-0.1,4.3,0.2,6.3,0.9c3.2,1.1,4.3,3.3,3.3,6.5c-1.3,4.4-3.1,8.6-4.7,12.9
	c-1.4,4.1-4.9,7.1-9.1,8c-4.1,1.2-8.4,1.2-12.5,0.2c-1.2-0.3-2.3-0.9-3.2-1.8c-1-1-1.4-2.4-1-3.8c1.6-5.7,3.7-11.2,6.2-16.5
	c1.6-3.2,4.7-4.6,8-5.5C70.1,112.8,72.3,112.5,74.6,112.5z M65.5,137c1.2,0,1.9-0.8,2.3-1.9c2-5.3,4-10.7,6-16
	c0.2-0.5,0.5-1.1,0-1.6c-0.6-0.4-1.3-0.4-1.9-0.1c-0.6,0.2-1.1,0.7-1.3,1.3c-0.4,1-0.9,2-1.3,3.1c-1.7,4.6-3.4,9.1-5.1,13.7
	C63.8,136.6,64.2,137,65.5,137z"/>
<path class="st0" d="M181.2,112.5c2.2-0.1,4.4,0.2,6.5,1c3.1,1.2,4.2,3.2,3.2,6.4c-1.5,4.9-3.4,9.6-5.3,14.3
	c-1.1,2.6-3.2,4.6-5.7,5.6c-4.8,2.1-10.2,2.5-15.2,1.2c-0.9-0.2-1.7-0.6-2.4-1.1c-1.6-1-2.3-2.9-1.8-4.6c1.6-5.6,3.6-11.1,6.2-16.4
	c1.6-3.2,4.7-4.6,8-5.5C176.8,112.8,179,112.5,181.2,112.5z M172.3,137c1.1,0,1.7-0.7,2.2-1.8c2.2-5.3,4.2-10.8,6.1-16.3
	c0.5-1.5,0-2-1.6-1.7c-0.7,0.1-1.3,0.6-1.6,1.3c-0.4,0.9-0.8,1.8-1.1,2.7c-1.8,4.7-3.5,9.5-5.2,14.2
	C170.6,136.6,170.9,137,172.3,137z"/>
<path class="st0" d="M33.8,113c-1.2,0-2.5,0.1-3.7,0c-0.8-0.2-1.6,0.4-1.8,1.2c0,0,0,0,0,0c-3.8,10.5-7.7,21.1-11.6,31.6
	c-0.2,0.9-1.1,1.5-2,1.3c-2.8-0.1-5.6,0-8.4,0c-1.5,0-1.5,0-0.9-1.4l11.5-31.1c0.6-1.6,0.6-1.6-1.1-1.6H5.2c0.8-2.3,1.6-4.4,2.3-6.5
	c0.2-0.5,0.5-0.6,1-0.6c8.9,0,17.8,0,26.7,0c0.8,0,1,0.2,0.7,1C35,109,34.3,111,33.8,113L33.8,113z"/>
<path class="st0" d="M233.7,121.5c0.3-1,0.7-1.9,0.9-2.8c0.3-1.2,0-1.6-1.3-1.5c-1.5,0.1-2.8,1.3-3,2.8c-0.4,1.3,0,2,1.5,2.8
	c2.1,1,4.2,2.1,6.2,3.3c2.7,1.7,3.1,2.9,2.3,6c-1.1,4.5-3.6,7.6-8.3,8.7c-4,1-8.1,1.2-12.1,0.5c-0.5-0.1-0.9-0.2-1.4-0.4
	c-3.5-1.1-4.4-2.8-3.4-6.4c0.9-3.4,0.9-3.4,4.4-3.4c1.9,0,3.8,0,5.7,0c0.9,0,1.1,0.1,0.7,1c-0.4,1.1-0.8,2.1-1.2,3.3
	c-0.3,1.1,0,1.6,1.2,1.6c1,0.1,2.1-0.4,2.7-1.2c1.8-2.4,1.5-4.2-1.1-5.7c-2-1.1-4-2.2-5.9-3.3c-1.9-0.9-2.8-3.1-2.1-5.1
	c0.7-4.1,3.9-7.4,8-8.3c4.2-1.1,8.6-1.2,12.8-0.3c0.9,0.2,1.8,0.5,2.7,0.9c1.5,0.5,2.2,2.1,1.7,3.6c-0.8,3.9-0.8,3.9-4.7,3.9
	L233.7,121.5z"/>
<path class="st0" d="M142.1,118.6c0.7-1.8,1.3-3.4,1.9-5c0.2-0.5,0.5-0.5,0.9-0.5c7.4,0,14.8,0,22.1,0c0.9,0,0.9,0.3,0.6,0.9
	c0,0,0,0.1,0,0.1c-0.6,1.4-0.7,3.4-1.8,4.2c-1.1,0.8-3,0.3-4.5,0.2c-1.5-0.1-2.1,0.4-2.5,1.8c-2.4,6.5-4.9,13-7.3,19.6
	c-0.2,0.8-0.9,1.3-1.7,1.2c-2.8-0.1-5.5-0.1-8.3,0c-1.1,0-1.3-0.3-0.9-1.3c2.5-6.5,4.9-13,7.4-19.5c0.6-1.7,0.6-1.7-1.1-1.7
	L142.1,118.6z"/>
<path class="st0" d="M168.4,144.3c20.3,0,40.6,0,60.9,0c0.5,0,1.3-0.5,1.4,0.4c0.2,0.9-0.9,2.4-1.6,2.4c-0.4,0-0.7,0-1.1,0H106.8
	c-0.4,0-0.7,0-1.1,0c-0.4,0-0.4,0-0.5-0.1c-0.3-0.4,0.9-2.7,1.4-2.7s0.8,0,1.2,0L168.4,144.3z"/>
<path class="st0" d="M21.2,147.2c0-0.1,0-0.2,0-0.3c0.7-2.5,0.7-2.5,3.4-2.5c21.1,0,42.1,0,63.2,0c0.5,0,1.1-0.3,1.3,0.3
	c-0.1,1-0.6,2-1.4,2.6c-0.3,0-0.5,0-0.8,0L21.2,147.2L21.2,147.2z"/>
<path class="st0" d="M234.4,147.2c-0.8,0-1.5-0.7-1.5-1.5c0-0.8,0.7-1.5,1.5-1.5c0.8,0,1.5,0.7,1.5,1.5v0
	C235.9,146.5,235.2,147.2,234.4,147.2z M234.4,144.4c-0.7,0-1.3,0.6-1.3,1.3s0.6,1.3,1.3,1.3s1.3-0.6,1.3-1.3
	S235.1,144.4,234.4,144.4z"/>
<path class="st0" d="M233.8,144.7c0.2,0,0.3,0,0.5,0c0.2,0,0.4,0,0.5,0.2c0.1,0.1,0.2,0.2,0.1,0.4c0,0.2-0.1,0.4-0.4,0.5l0,0
	c0.2,0.1,0.3,0.2,0.3,0.4c0,0.2,0.1,0.4,0.1,0.5h-0.3c-0.1-0.1-0.1-0.3-0.1-0.5c0-0.3-0.2-0.4-0.4-0.4h-0.2v0.8h-0.2L233.8,144.7z
	 M234.1,145.6h0.2c0.3,0,0.4-0.1,0.4-0.4c0-0.2-0.2-0.3-0.4-0.4H234L234.1,145.6z"/>
</svg>
