<?xml version="1.0" encoding="utf-8"?>
<!-- Generator: Adobe Illustrator 21.1.0, SVG Export Plug-In . SVG Version: 6.00 Build 0)  -->
<svg version="1.1" id="Layer_1" xmlns="http://www.w3.org/2000/svg" xmlns:xlink="http://www.w3.org/1999/xlink" x="0px" y="0px"
	 viewBox="0 0 250 250" style="enable-background:new 0 0 250 250;" xml:space="preserve">
<style type="text/css">
	.st0{fill:#EC1C24;}
	.st1{fill:#231F20;}
</style>
<title>Coke_Dine</title>
<path class="st0" d="M154.6,127.9c0,7.7,0,15.4,0,23.2c0,0.6-0.1,0.8-0.8,0.8c-6.4,0-12.7,0-19.1,0c-0.6,0-0.7-0.1-0.8-0.7
	c-0.3-7.9-0.1-15.7-0.1-23.6c0-2.4,0.1-4.7,0.1-7.1c0.1-1.6,0-3.2-0.3-4.7c-0.1-0.4-0.1-1-0.6-1c-0.5,0-0.7,0.5-0.8,1
	c-0.3,1.8-0.4,3.6-0.3,5.4c0,0.2,0,0.4,0,0.6c0,4.7,0,9.4,0,14.1c0,5.1,0,10.2,0,15.4c0,0.6-0.2,0.7-0.7,0.7c-6.4,0-12.8,0-19.2,0
	c-0.5,0-0.7-0.1-0.7-0.7c0-10.1,0-20.3,0-30.4c0.1-1.7,0-3.4-0.2-5c-0.1-0.5,0-1.3-0.8-1.3s-0.7,0.8-0.7,1.3
	c-0.2,1.8-0.3,3.7-0.2,5.5c0,1.9,0,3.7,0,5.6c0,8.1,0,16.2,0,24.2c0,0.6-0.2,0.8-0.8,0.8c-6.3,0-12.5,0-18.8,0
	c-0.6,0-0.8-0.2-0.8-0.8c0.1-2.8,0.1-5.6,0-8.5c0-8.6,0-17.2,0-25.7c0-3.7,0-7.4,0-11.1c-0.1-2.8,1.2-5.5,3.5-7.1
	c1.3-0.8,2.8-1.2,4.3-1.3c5.3-0.4,10.6-0.5,15.9-0.2c3.2,0.2,6.2,1.7,8.3,4.3c0.4,0.5,0.6,0.5,1,0c1.1-1.4,2.5-2.6,4.1-3.5
	c1-0.5,2.1-0.7,3.2-0.7c3.8-0.3,7.7-0.4,11.6-0.2c2.4,0,4.8,0.3,7.2,0.8c1.5,0.4,2.9,1.1,4,2.2c1.4,1.2,2.2,3,2.2,4.9
	C154.6,112.7,154.6,120.3,154.6,127.9z"/>
<path class="st0" d="M39.8,64.9c0,3.8,0,7.5,0,11.1c0,0.5,0.1,0.7,0.6,0.7c1.3,0,2.7,0,4.1,0c6.7,0,13.4,0,20.1,0.1
	c0.5,0,0.7,0.1,0.7,0.6c0.1,6.8-0.1,13.6,0,20.5c0,0.6-0.4,0.5-0.7,0.5H44.7c-1.4,0-2.9,0-4.3,0c-0.5,0-0.7,0.1-0.7,0.7
	c0,4.6,0,9.2,0,13.9c0,2.6-0.2,5.2-0.1,7.9c0,1.1,0.2,2.2,0.4,3.3c0.3,1.8,1.5,3.3,3.1,4.2c1.9,1,3.9,1.5,6,1.7
	c4.6,0.3,9.3,0.4,13.9,0.2c0.9,0,1.8,0,2.7,0c0.6,0,0.7,0.2,0.7,0.7c0,5.4,0,10.8,0,16.2c0,1.4,0,2.9,0,4.3c0,0.4-0.1,0.6-0.6,0.6
	c-6.9,0-13.8,0.3-20.7-0.1c-6.7-0.2-13.1-2.4-18.4-6.5c-4.3-3.5-7.1-8.4-7.8-13.9c-0.3-1.8-0.4-3.6-0.4-5.5c0-9.1,0-18.1,0-27.2
	c0-0.6-0.1-0.8-0.8-0.8c-4.1,0-8.2,0-12.2,0C5.1,98,5,97.9,5,97.3C5,90.9,5,84.4,5,78c0-0.5,0.1-0.7,0.7-0.7c2.5,0,5,0,7.5,0
	c4.2,0,8.4-0.2,12.6-0.8c1.6-0.3,3.2-0.7,4.8-1.2c2-0.8,3.7-2.1,4.9-3.9c1.4-1.8,2.6-3.7,3.7-5.6C39.3,65.4,39.5,65.1,39.8,64.9z"/>
<path class="st0" d="M223.1,151.8c-4,0-8,0-11.9,0c-1.6,0-3.3,0-4.9,0c-2.9,0.1-4.5-1.4-4.9-4.6c-0.2-1.6-0.2-3.2-0.2-4.8
	c0-4.5,0-9.1,0-13.6c0-0.5,0.1-0.7,0.7-0.7c6.8,0.1,13.6,0.1,20.4,0.1c0.5,0,0.6,0.2,0.6,0.6c0,1.5,0.1,3.1,0.1,4.6
	c0,0.3,0,0.6,0.1,0.8c0,0.3,0.1,0.6,0.5,0.7c0.4,0.1,0.8-0.2,0.9-0.5c0.3-0.7,0.5-1.4,0.4-2.2c0-1.6-0.1-3.3-0.2-4.9
	c0-0.5-0.4-0.4-0.6-0.4c-2.7,0-5.4-0.1-8.1-0.1c-4.7,0-9.4,0-14.1,0c-0.5,0-0.7-0.1-0.7-0.6c0-7.5,0-15,0-22.5c-0.1-2,0.7-4,2.3-5.3
	c0.7-0.5,1.4-0.9,2.2-1c1.4-0.3,2.8-0.5,4.3-0.6c5.9,0,11.7,0,17.6,0.1c3.7,0,7.4,0,11.2,0.2c1.5,0.1,2.8,0.8,3.8,1.9
	c1.5,1.6,2.4,3.8,2.4,6.1c0,3.9,0,7.7,0,11.5c0,0.9,0,1.8,0,2.8c0,0.5-0.1,0.7-0.7,0.7c-2.7,0-5.5,0-8.2,0c-3.4,0-6.9,0-10.3,0.1
	c-0.6,0-0.8-0.1-0.8-0.7c0-1.3-0.1-2.6-0.4-3.9c-0.2-0.6-0.3-1.4-1.1-1.3c-0.7,0.1-0.6,0.8-0.7,1.4c0,0.6,0,1.3,0,1.9
	c0,1.2,0.1,2.3,0,3.5c0,0.6,0.2,0.9,0.9,0.9c6.8,0,13.5,0,20.3-0.1c0.7,0,0.9,0.1,0.9,0.8c0,3.9,0,7.9-0.1,11.8
	c0,3.8-0.1,7.6-0.5,11.3c-0.1,1.1-0.3,2.1-0.6,3.1c-0.4,1.6-1.8,2.7-3.5,2.6h-0.9h-16.3V151.8z"/>
<path class="st0" d="M156.4,123.8c0-3.8,0-7.6,0-11.4c0-2.6,0-5.2,0.1-7.8c0.1-1.7,0.8-3.3,2.1-4.3c1.9-1.9,4.5-2.9,7.2-2.9
	c4.3,0,8.6,0,13-0.1c6.7-0.1,13.3-0.2,20-0.3c0.6,0,0.8,0.1,0.8,0.7c0,5.5,0,11,0.1,16.6c0,0.6-0.1,0.8-0.8,0.8
	c-5.8,0-11.6,0-17.4,0c-0.9,0-1.8,0-2.8,0.2c-0.2,0-0.5,0.1-0.7,0.2c-0.3,0.1-0.5,0.3-0.5,0.6c0,0.3,0.2,0.5,0.5,0.5
	c1,0.3,2,0.4,3,0.4c5.9,0,11.8,0,17.7,0c0.6,0,0.8,0.1,0.8,0.8c0,5.1,0,10.2,0,15.3c0,0.6-0.2,0.7-0.7,0.7c-6.4,0-12.7,0-19.1,0
	c-0.4,0-0.9,0.1-1.3,0.2c-0.3,0.1-0.6,0.3-0.6,0.7c0,0.4,0.2,0.7,0.6,0.8c0.9,0.3,1.8,0.4,2.7,0.4c5.9,0,11.8,0,17.7,0
	c0.7,0,0.8,0.2,0.8,0.9c0,4.9,0,9.8,0,14.7c0,0.4,0,0.7-0.6,0.7c-4.1-0.2-8.2,0-12.4,0c-8,0-16-0.1-24-0.1c-0.9,0-1.8-0.1-2.7-0.3
	c-0.9-0.2-1.7-0.9-2.1-1.7c-0.7-1.7-1.1-3.5-1.1-5.3c-0.4-5.4-0.3-10.8-0.2-16.3C156.4,126.8,156.4,125.3,156.4,123.8z"/>
<path class="st0" d="M87.7,124.6c0,8.9,0,17.8,0,26.6c0,0.6-0.1,0.8-0.7,0.8c-6.2,0-12.3,0-18.5,0c-0.6,0-0.7-0.2-0.7-0.7
	c0-17.7,0-35.5,0-53.2c0-0.6,0.2-0.8,0.8-0.8c6.1,0,12.3,0,18.4,0c0.6,0,0.7,0.1,0.7,0.7C87.7,106.8,87.7,115.7,87.7,124.6z"/>
<path class="st0" d="M87.7,86.8c0,5.6-4.5,10.1-10.1,10.2c-5.6,0-10.1-4.5-10.2-10.1c0-5.6,4.5-10.1,10.1-10.2c0,0,0,0,0,0
	C83.2,76.7,87.7,81.2,87.7,86.8C87.7,86.8,87.7,86.8,87.7,86.8z"/>
<path class="st1" d="M43,105.6c0-2.6,2.1-4.8,4.7-4.8c0,0,0.1,0,0.1,0c2.7,0,4.8,2.2,4.8,4.8c0,2.7-2.2,4.8-4.9,4.8
	C45.2,110.5,43,108.3,43,105.6C43,105.7,43,105.6,43,105.6z"/>
<path class="st1" d="M53,121.3c-3.4-0.1-6.6-1.5-8.9-4c-0.6-0.5-0.7-1.4-0.2-2s1.4-0.7,2-0.2c0.1,0.1,0.1,0.1,0.2,0.2
	c1.9,2.1,4.7,3.2,7.5,3.2c2.3-0.2,4.6-1.1,6.4-2.6c0.3-0.2,0.6-0.5,0.9-0.8c0.7-0.4,1.5-0.2,1.9,0.5c0.3,0.5,0.3,1.1-0.1,1.6
	C60.1,119.7,56.7,121.2,53,121.3z"/>
<path class="st1" d="M58.8,103.4c0.8,0,1.6,0,2.5,0c0.9,0.1,1.6,1,1.5,1.9c-0.1,0.8-0.7,1.4-1.5,1.5c-1.7,0-3.3,0-5,0
	c-0.9-0.1-1.6-1-1.5-1.9c0.1-0.8,0.7-1.4,1.5-1.5C57.1,103.3,58,103.4,58.8,103.4z"/>
<path class="st1" d="M158.6,155.1c-2.2,0-4.4,0-6.6,0c-0.4-0.1-0.8,0.2-0.9,0.6c-2.1,5.6-4.3,11.1-6.4,16.7c-0.4,1-0.8,1.9-1.2,3
	l-0.2-0.6c-2.4-6.4-4.8-12.7-7.2-19.1c-0.1-0.5-0.5-0.8-1-0.7c-2.2,0-4.3,0-6.5,0c-0.6,0-0.8,0.1-0.8,0.8c0,5.6,0,11.1,0,16.7
	c0,3.7,0,7.4,0,11.1c0,0.6,0.2,0.7,0.7,0.7c1.2,0,2.3,0,3.5,0c0.6,0,0.8-0.1,0.8-0.8c0-7.5,0-15.1,0-22.6v-0.7
	c0.1,0.1,0.2,0.3,0.3,0.5c2.8,7.7,5.6,15.3,8.4,23c0.2,0.5,0.4,0.7,0.9,0.6c0.8,0,1.6,0,2.4,0c0.4,0.1,0.7-0.2,0.8-0.6
	c2.1-5.7,4.2-11.5,6.3-17.2l2.3-6.3h0.1v0.8c0,7.5,0,15,0,22.5c0,0.6,0.2,0.8,0.7,0.7c1.2,0,2.4,0,3.6,0c0.5,0,0.6-0.1,0.6-0.6
	c0-9.3,0-18.7,0-28C159.2,155.2,159.1,155.1,158.6,155.1z"/>
<path class="st1" d="M120.3,170c2-1.4,3.1-3.8,3-6.2c0.3-2.8-1-5.5-3.4-7c-1.7-1-3.7-1.6-5.8-1.6c-3.8-0.1-7.6,0-11.4,0
	c-0.4,0-0.5,0.1-0.5,0.5c0,0.9,0,1.8,0,2.8c0,8.4,0,16.8,0,25.2c0,0.6,0.1,0.8,0.7,0.7c1.2,0,2.5,0,3.7,0c0.6,0,0.8-0.1,0.8-0.8
	c0-3.6,0-7.3,0-10.9c0-0.5,0.1-0.7,0.7-0.7c0.8,0,1.6,0,2.4,0c0.4-0.1,0.9,0.2,1,0.6c2,3.7,4.1,7.4,6.1,11.1
	c0.2,0.4,0.6,0.7,1.1,0.6c1.5,0,3.1,0,4.6,0h1l-7.8-12.9C117.9,171.3,119.1,170.8,120.3,170z M111.6,167.4c-1.1,0-2.3,0-3.4,0
	c-0.6,0-0.8-0.1-0.8-0.7c0-1.1,0-2.1,0-3.2s0-2.3,0-3.5c0-0.2,0-0.5,0.3-0.5c2.3-0.1,4.6,0,6.9,0.3c2,0.2,3.4,2,3.2,4
	c0,0.3-0.1,0.6-0.2,0.9c-0.3,1.2-1.3,2.1-2.5,2.3C114,167.4,112.8,167.5,111.6,167.4L111.6,167.4z"/>
<path class="st1" d="M66.9,169.8c0-4.6,0-9.3,0-13.9c0-0.5-0.1-0.7-0.7-0.7c-1.3,0-2.6,0-3.9,0c-0.6,0-0.6,0.2-0.6,0.7
	c0,3.4,0,6.8,0,10.2c0,0.7-0.2,0.8-0.8,0.8c-4,0-8.1,0-12.1,0c-0.6,0-0.8-0.1-0.7-0.7c0-3.4,0-6.8,0-10.2c0-0.6-0.2-0.7-0.7-0.7
	c-1.3,0-2.6,0-4,0c-0.4,0-0.6,0-0.6,0.5c0,9.4,0,18.8,0,28.1c0,0.5,0.2,0.5,0.6,0.5c1.3,0,2.6,0,3.9,0c0.6,0,0.8-0.1,0.8-0.8
	c0-3.8,0-7.6,0-11.4c0-0.6,0.1-0.8,0.7-0.8c4.1,0,8.1,0,12.2,0c0.6,0,0.7,0.2,0.7,0.8c0,3.8,0,7.6,0,11.4c0,0.5,0.1,0.7,0.6,0.7
	c1.3,0,2.6,0,3.9,0c0.6,0,0.7-0.2,0.7-0.7C66.8,179,66.9,174.4,66.9,169.8z"/>
<path class="st1" d="M179.6,155.8c-0.1-0.5-0.6-0.8-1.1-0.7c-1,0.1-2,0.1-3,0c-0.5-0.1-1,0.2-1.1,0.8c-3.5,8.2-7.1,16.3-10.6,24.5
	c-0.6,1.3-1.1,2.6-1.7,4c1.8,0,3.6,0,5.3,0c0.4,0,0.7-0.2,0.8-0.6c0.7-1.9,1.5-3.7,2.2-5.5c0.1-0.4,0.5-0.6,0.9-0.6
	c3.8,0,7.6,0,11.4,0c0.4,0,0.8,0.2,0.9,0.6c0.7,1.9,1.5,3.7,2.3,5.6c0.1,0.3,0.2,0.5,0.6,0.5c1.8,0,3.7,0,5.6,0l-1.8-4.3
	C186.6,172,183.1,163.9,179.6,155.8z M180.9,173.2c-2.7,0-5.3,0-8,0c-0.3,0-0.5,0-0.4-0.4c1.5-3.8,2.9-7.5,4.4-11.4l4.3,11.3
	c0.1,0.3,0.1,0.5-0.4,0.5L180.9,173.2z"/>
<path class="st1" d="M87.1,155.6c-0.1-0.3-0.4-0.5-0.7-0.5c-1.1,0-2.2,0-3.3,0c-0.4-0.1-0.9,0.2-1,0.6c-3.5,7.9-6.9,15.8-10.3,23.7
	l-2.1,4.9c1.9,0,3.7,0,5.5,0c0.4,0,0.5-0.2,0.6-0.5c0.7-1.9,1.5-3.8,2.2-5.7c0.1-0.3,0.4-0.6,0.8-0.5c3.8,0,7.7,0,11.5,0
	c0.4,0,0.7,0.2,0.8,0.5c0.8,1.9,1.5,3.8,2.3,5.6c0.1,0.2,0.1,0.5,0.5,0.5h5.6c0.1-0.3,0-0.4-0.1-0.6C95.1,174.4,91.1,165,87.1,155.6
	z M88.3,173.2c-2.6,0-5.2,0-7.8,0c-0.4,0-0.5,0-0.4-0.5c1.4-3.6,2.8-7.3,4.2-11c0-0.1,0.1-0.2,0.2-0.2c1.4,3.7,2.8,7.4,4.2,11.1
	C88.9,173,88.8,173.2,88.3,173.2L88.3,173.2z"/>
<path class="st1" d="M35.4,156.5c-1.6-0.8-3.4-1.3-5.2-1.3c-3.6-0.1-7.3,0-10.9,0c-0.6,0-0.5,0.3-0.5,0.7c0,4.6,0,9.2,0,13.9
	c0,4.6,0,9.3,0,13.9c0,0.6,0.1,0.8,0.7,0.8c1.3,0,2.6,0,3.9,0c0.5,0,0.7-0.1,0.7-0.7c0-3.6,0-7.1,0-10.7c0-0.6,0.1-0.8,0.8-0.8
	c2.7,0.2,5.4,0,8.1-0.4c3-0.6,5.3-2.1,6.2-5.2c0.5-1.7,0.5-3.5,0.2-5.2C38.9,159.3,37.4,157.4,35.4,156.5z M33.8,164.6
	c-0.3,1.4-1.3,2.5-2.7,2.8c-1.3,0.3-2.6,0.4-3.9,0.4c-1.1,0-1.9,0-2.8,0c-0.3,0-0.5-0.1-0.5-0.4c0-2.5,0-4.9,0-7.4
	c0-0.2,0-0.4,0.3-0.4c2.1-0.1,4.2,0,6.2,0.3c2.1,0.2,3.6,2,3.4,4.1C33.9,164.2,33.9,164.4,33.8,164.6L33.8,164.6z"/>
<path class="st1" d="M217.5,179.5c-1.1-0.8-2.2-1.5-3.3-2.3c-0.4-0.3-0.6-0.3-1,0.1c-4.1,5-10.5,3.2-13.3,0.1
	c-2.6-2.9-3.6-7-2.5-10.7c1.8-7.8,11.4-9.8,15.5-4.9c0.2,0.3,0.4,0.2,0.6,0c1-0.8,2.1-1.6,3.2-2.3c0.6-0.4,0.5-0.6,0-1
	c-2.5-2.7-6.1-4.2-9.8-4c-0.9,0-1.9,0.1-2.8,0.2c-4.2,0.5-8,2.9-10.2,6.6c-2,3.3-2.8,7.3-2.1,11.1c0.4,3.9,2.4,7.5,5.6,9.8
	c3,2.2,6.8,3.2,10.5,2.9c3.8,0,7.3-1.8,9.7-4.7C217.9,180,217.9,179.8,217.5,179.5z"/>
<path class="st1" d="M238.9,155.1c-0.4,0-0.5,0.3-0.6,0.5l-6.5,10.4c-0.1,0.2-0.3,0.4-0.4,0.6c-2-3.3-4.1-6.5-6-9.8
	c-0.5-1.3-1.9-2-3.3-1.8c-1.5,0.1-2.9,0.1-4.4,0l0.5,0.8c3.4,5.1,6.7,10.2,10.1,15.4c0.2,0.3,0.3,0.7,0.3,1.1c0,3.8,0,7.5,0,11.3
	c0,0.5,0.1,0.6,0.6,0.6c1.3,0,2.6,0,4,0c0.5,0,0.7-0.1,0.6-0.7c0-3.7,0-7.5,0-11.2c0-0.4,0.1-0.7,0.3-1c2.7-4,5.3-8.1,7.9-12.1
	l2.8-4.2C242.8,155.2,240.8,155.2,238.9,155.1z"/>
</svg>
