<?xml version="1.0" encoding="utf-8"?>
<!-- Generator: Adobe Illustrator 21.1.0, SVG Export Plug-In . SVG Version: 6.00 Build 0)  -->
<svg version="1.1" id="svg" xmlns="http://www.w3.org/2000/svg" xmlns:xlink="http://www.w3.org/1999/xlink" x="0px" y="0px"
	 viewBox="0 0 250 250" style="enable-background:new 0 0 250 250;" xml:space="preserve">
<style type="text/css">
	.st0{fill:#D4241D;}
</style>
<g>
	<path class="st0" d="M184.1,76.6c3.5,0,6.9,0,10.4,0c1.5,0.8,3.1,0.8,4.7,0.8c8,0.4,15.9,2.1,23.3,5.1c9.2,3.8,17.7,8.7,22.5,18.1
		c0,1.1,0,2.1,0,3.2c-0.7,0.9-1.5,1.8-2.3,2.7c-4.8,5.1-10,6.1-14.8,2.8c-4.2-2.9-7.3-3-10-0.2c-2.7,2.8-2.8,6.7,0.1,10.5
		c3,3.9,6.3,7.6,9.1,11.7c8.1,11.4,6.3,24.6-4.5,33.5c-9.2,7.5-19.9,10.1-31.5,7.5c-12.3-2.8-18-11.7-16-24c1-6.1,3.9-11.6,5.5-17.5
		c0.6-2.4,1.5-5.3-1.3-6.8c-2.7-1.5-4.9,0.3-6.8,2c-3.3,2.9-5.1,6.8-6.1,11c-2,7.8-2,15.9-2.4,23.9c-0.4,8.3-4.1,12.1-12,12.5
		c-5.9,0.3-9.1-3-8.4-8.9c0.4-3.5,1.5-6.7,2.6-10c2.6-8,6.2-15.6,8-23.9c0.5-2.4,0.8-5-1.7-6.5c-2.3-1.5-4.7-0.5-6.7,0.9
		c-4.2,2.7-6.1,7-7.4,11.5c-2.2,8-2.5,16.3-3.3,24.6c-0.7,8.1-4.2,11.7-12,12.3c-6.2,0.4-9.4-3-8.4-9.1c0.6-3.1,1.6-6.2,2.6-9.2
		c2.7-8.2,6.8-16,8.7-24.5c0.5-2.3,0.7-4.6-1.5-6.2c-2.8-1.9-5.6-1.1-8.4,0.2c-2.3,1.1-3.3,2.7-3,5.4c0.4,2.6,0.5,5.4,0.2,8
		c-1.6,15-7.8,27.4-22.5,33.3c-15,6.1-35.2-1.4-35.2-22.4c-0.1-15.6,7.2-27.9,20.2-36.6c1.8-1.2,4.1-2,6.3-2.5
		c2.5-0.6,5.2-0.6,6.7,2.1c1.5,2.7-0.1,4.6-1.8,6.4c-3.4,3.6-7,6.9-9.8,11.1c-3.5,5.1-5.7,10.6-5.3,16.9c0.5,9.2,7.9,13.9,16.3,10.2
		c7.3-3.2,10.5-9.5,11.8-17c0.3-1.7-0.4-2.2-2.1-2.4c-7.2-0.7-10-4.5-9.2-11.6c0.9-7.8,9.3-15,15.2-12c4.7,2.3,7.5,0.9,11.1-1.2
		c2.5-1.4,5.4-2.3,8.2-3.1c3.5-0.9,8.1-1.7,10.3,1c5,6.2,9,3.2,14.2,0.5c7.7-3.9,13.1-2.6,19,3.4c1.5,1.5,2.5,1,3.7,0
		c2.8-2.4,5.9-4.1,9.5-4.9c9.2-2.2,16,3.2,16,12.6c0,3.7-1.1,7.1-2,10.6c-1.3,4.9-2.9,9.7-2.8,14.9c0.1,4.1,1.4,7.7,5.5,9.5
		c5.2,2.3,10.1,1,14.2-2.5c3.9-3.2,5.2-7.6,4-12.6c-0.8-3.3-2.6-6.1-4.6-8.8c-2-2.7-4.3-5.2-6-8c-5.8-9.4-4-17.6,4.8-24
		c0.8-0.6,2.2-1,2-2.2c-0.2-1.2-1.5-1.5-2.4-1.8c-5.8-2.2-11.9-3-18-3.3c-17-0.8-33.9,0.9-50.8,2.4c-24.3,2.1-48.7,4.2-73,6.1
		c-3.6,0.3-5.4,1.8-6.9,4.9c-8.1,17.2-13.2,35.1-15.5,54c-0.5,4.2-1.6,8.2-5.5,10.6c-3.9,2.4-11.3,2.7-14.1,0.3
		c-3.8-3.2-2.9-7.5-1.9-11.5c2.3-9.6,6-18.8,10.2-27.7c4.1-8.7,8.4-17.3,12.7-25.8c1.4-2.7,1-3.9-2.3-3.8c-5.2,0.2-10.4,0.3-15.6,0
		c-5.6-0.3-11.2-0.6-16.6-2.4C5.2,98.2,3.3,93,6.6,87.3c3.3-5.7,8.4-7.5,14.7-4.5c9.3,4.3,19,6.8,29.3,7c3.5,0.1,6.1-0.8,8-4
		c1.5-2.6,3.6-5,6.4-6.4c2.2-1.1,4.4-1,6.4,0.6c1.8,1.6,1.6,3.6,0.7,5.5c-1.5,3.2-0.1,3.7,2.7,3.4c7.3-0.7,14.6-1.3,21.9-2.1
		c22-2.5,44-5,66-7.7C169.8,78.2,177.1,78.2,184.1,76.6z"/>
</g>
</svg>
