<?xml version="1.0" encoding="utf-8"?>
<!-- Generator: Adobe Illustrator 21.1.0, SVG Export Plug-In . SVG Version: 6.00 Build 0)  -->
<svg version="1.1" id="Layer_1" xmlns="http://www.w3.org/2000/svg" xmlns:xlink="http://www.w3.org/1999/xlink" x="0px" y="0px"
	 viewBox="0 0 250 250" style="enable-background:new 0 0 250 250;" xml:space="preserve">
<style type="text/css">
	.st0{fill:#ED1C2E;}
	.st1{fill:#049B69;}
	.st2{fill:#FFFFFF;}
</style>
<g>
	<path class="st0" d="M76.3,151.2c-2.9,2.2-5.7,4.4-9.9,3.7c-3-0.5-4.5-1.9-5.5-4.4c-0.5-1.4-0.6-2.9-0.6-4.4
		c0.1-13.3,1.2-26.7,0.8-40c-0.2-5.4-0.4-10.8-0.6-16.2c-0.1-1.8-0.5-2.5-2.5-2.1c-3.6,0.7-7.1,1.7-10.2,3.6
		c-3.9,2.4-7.5,1.6-8.8-2.7c-1.4-4.4-2.1-9.1-0.5-13.7c0.6-1.8,1.3-2.5,3.6-1.7c3.1,1,6.5-0.3,9.7-0.6c17.5-1.7,35.1-1.4,52.6,0.2
		c1.2,0.1,2.7,0.3,3.4,1.1c1.8,1.9,3.1,1.2,4.9,0c6.2-4.1,12.8-6.3,20.4-4.2c1.2,0.3,2.1,1,2.9,1.7c1.4,1.1,2.8,2,4.5,2.5
		c3.9,1.2,5,4.1,2.8,7.5c-1.2,1.8-1,3,0.4,4.7c17.4,21.3,5.2,46.4-9.8,54.7c-3.1,1.7-6.4,3.1-9.9,3.8c-4.4,1.2-8.8,0.3-13.3,0.4
		c-0.5-1-1.6-0.9-2.4-1.1c-4.3-1.3-8.1-3.4-11.2-6.6c-8-8.3-10-18.2-8-29.3c1.3-7.1,3.8-13.8,7.6-20.2c-5.2-0.9-10.1-0.5-15.1-0.7
		c-1.8-0.1-2.3,0.4-2.4,2.3c-0.5,18.6-0.4,37.1,0.2,55.7C79,147.6,77.7,149.4,76.3,151.2z M107.5,118.2c0,3.6,0.3,7.1,1.7,10.4
		c2.5,5.6,8.1,7.5,13.5,4.4c2.9-1.6,4.8-4.2,6.2-7c3.6-7.2,4.6-14.9,3.5-22.9c-0.7-5.3-2.6-10.1-6.3-14.1c-1.3-1.4-2.4-1.9-4.3-0.7
		c-3,1.9-5.5,4.2-7.4,7.1C109.9,102.3,107.8,110,107.5,118.2z"/>
	<path class="st0" d="M171.9,145.2c-0.3,4.7-1.8,6.8-6.5,8.3c-2.9,0.9-5.6,2.1-8.5-0.4c-1.4-1.3-1.9-2.6-2.1-4.3
		c-0.2-1.2-0.3-2.4-0.5-3.6c0.6-17.1,0.9-34.1,0.3-51.2c-0.1-1.7-0.3-2.8-2.4-3.3c-3.6-0.8-6.7-5.5-6.1-9.6c0.4-3.2,0.2-6.7,2.7-9.3
		c0.5-0.5,0.6-1.3,1.6-0.8c3.3,1.9,7,1.6,10.6,1.5c10.2-0.5,20.4-0.5,30.3,2.1c5.7,1.5,11,3.5,15.3,7.7c8.3,8,7.7,19.7-1.3,26.8
		c-5.7,4.5-12.3,6.9-19.1,9c-4.2,1.3-8.4,2.4-12.7,3.5c-1.1,0.3-2.1,0.5-2,2.1C171.7,130.9,171.8,138.1,171.9,145.2z M182.2,88.6
		c-2.7,0-5.4,0.1-8.1,0c-1.7-0.1-2.6,0.4-2.5,2.3c0,3.4-0.1,6.7-0.3,10.1c-0.1,2.1,0.6,2.6,2.5,2.1c5.4-1.4,10.8-2.7,16.1-4.7
		c2.7-1,5.4-2.1,7.7-3.8c1-0.7,2.1-1.6,1.9-2.9c-0.2-1.4-1.6-1.7-2.8-2C191.9,88.4,187.1,88.5,182.2,88.6z"/>
	<path class="st1" d="M212.5,147.6c0-2-0.7-2.5-2.5-2.4c-12.7,0.1-25.4,0.1-38.1,0.1c-0.3,4.7-1.8,6.8-6.5,8.3
		c-2.9,0.9-5.6,2.1-8.5-0.4c-1.4-1.3-1.9-2.6-2.1-4.3c-0.2-1.2-0.3-2.4-0.5-3.6c-9.2,0-18.4,0-27.6,0c-0.9,0-2.1,0.5-2.8-0.5
		c-4.4,1.2-8.8,0.3-13.3,0.4c-10.4,0-20.9,0.1-31.3,0.1c-0.3,2.4-1.6,4.2-3,6c0,9.1,0.1,18.3,0.1,27.4c0,1.7,0.3,2.4,2.3,2.4
		c43.8-0.1,87.7-0.1,131.5,0c1.9,0,2.3-0.6,2.3-2.4C212.4,168.3,212.4,158,212.5,147.6z"/>
	<g>
		<path class="st2" d="M91.4,161.4h1.6v2.1h-1.6v7.6h-3.5v-7.6h-1.6v-2.1h1.6v-0.5c0-1.4,0.4-2.4,1.3-3.2c0.9-0.8,2-1.2,3.5-1.2
			c0.4,0,1.1,0.1,2.1,0.2v2.5c-0.7-0.1-1.2-0.1-1.5-0.1c-1.3,0-1.9,0.6-1.9,1.7V161.4z"/>
		<path class="st2" d="M98.5,161.2c1.7,0,3.2,0.4,4.4,1.3c1.2,0.9,1.8,2.1,1.8,3.7c0,1.6-0.6,2.8-1.8,3.7c-1.2,0.9-2.7,1.3-4.4,1.3
			c-1.8,0-3.3-0.5-4.5-1.4c-1.2-0.9-1.7-2.1-1.7-3.6c0-1.5,0.6-2.7,1.8-3.6C95.3,161.6,96.8,161.2,98.5,161.2z M98.5,169.4
			c1.7,0,2.5-1.1,2.5-3.3c0-2.1-0.8-3.1-2.5-3.1c-0.8,0-1.4,0.3-1.9,0.8c-0.4,0.6-0.7,1.3-0.7,2.4C96,168.4,96.9,169.4,98.5,169.4z"
			/>
		<path class="st2" d="M111.2,161.2c1.7,0,3.2,0.4,4.4,1.3c1.2,0.9,1.8,2.1,1.8,3.7c0,1.6-0.6,2.8-1.8,3.7c-1.2,0.9-2.7,1.3-4.4,1.3
			c-1.8,0-3.3-0.5-4.5-1.4c-1.2-0.9-1.7-2.1-1.7-3.6c0-1.5,0.6-2.7,1.8-3.6C107.9,161.6,109.4,161.2,111.2,161.2z M111.2,169.4
			c1.7,0,2.5-1.1,2.5-3.3c0-2.1-0.8-3.1-2.5-3.1c-0.8,0-1.4,0.3-1.9,0.8c-0.4,0.6-0.7,1.3-0.7,2.4
			C108.7,168.4,109.5,169.4,111.2,169.4z"/>
		<path class="st2" d="M129.3,156.8v14.3h-3.5v-0.8c-0.9,0.6-1.9,1-3.1,1c-1.5,0-2.7-0.5-3.7-1.4c-1-1-1.5-2.2-1.5-3.6
			c0-1.5,0.5-2.7,1.5-3.6s2.3-1.4,3.8-1.4c1,0,1.9,0.2,2.9,0.6v-5H129.3z M125.8,168.4v-4.6c-0.6-0.4-1.3-0.6-1.9-0.6
			c-0.9,0-1.5,0.3-2,0.8c-0.5,0.5-0.7,1.3-0.7,2.2c0,0.9,0.2,1.6,0.7,2.1c0.5,0.5,1.1,0.8,1.9,0.8
			C124.5,169.2,125.2,168.9,125.8,168.4z"/>
		<path class="st2" d="M148.1,163.6h3.5c-0.9,1.9-2,3.3-3.3,4.3l3.3,3.1h-4.9l-1.2-1.1c-1.6,0.9-3.3,1.3-5.1,1.3
			c-1.5,0-2.7-0.4-3.7-1.1c-1-0.7-1.5-1.6-1.5-2.7c0-1.6,1.2-3,3.6-4c-1-1.2-1.5-2.2-1.5-3.2c0-1.1,0.5-1.9,1.4-2.6
			c0.9-0.7,2.1-1,3.6-1c1.4,0,2.5,0.3,3.4,1c0.9,0.6,1.3,1.5,1.3,2.4c0,1.4-1,2.6-3,3.7l2.2,2.2C147,165.3,147.6,164.5,148.1,163.6z
			 M143.6,168.1l-2.9-2.8c-1.1,0.6-1.7,1.3-1.7,1.9c0,0.5,0.2,0.9,0.6,1.2s0.9,0.5,1.4,0.5C141.9,168.9,142.7,168.6,143.6,168.1z
			 M142.3,161.9c1.1-0.6,1.6-1.2,1.6-1.8c0-0.3-0.1-0.6-0.4-0.9c-0.3-0.2-0.6-0.3-1.1-0.3c-0.4,0-0.8,0.1-1.1,0.3
			c-0.3,0.2-0.4,0.5-0.4,0.8C140.9,160.6,141.4,161.2,142.3,161.9z"/>
		<path class="st2" d="M168.3,156.8v14.3h-3.5v-0.8c-0.9,0.6-1.9,1-3.1,1c-1.5,0-2.7-0.5-3.7-1.4c-1-1-1.5-2.2-1.5-3.6
			c0-1.5,0.5-2.7,1.5-3.6c1-0.9,2.3-1.4,3.8-1.4c1,0,1.9,0.2,2.9,0.6v-5H168.3z M164.9,168.4v-4.6c-0.6-0.4-1.3-0.6-1.9-0.6
			c-0.9,0-1.5,0.3-2,0.8c-0.5,0.5-0.7,1.3-0.7,2.2c0,0.9,0.2,1.6,0.7,2.1c0.5,0.5,1.1,0.8,1.9,0.8
			C163.5,169.2,164.2,168.9,164.9,168.4z"/>
		<path class="st2" d="M173.2,161.4v2.8h0c1-2,2.2-3,3.5-3c0.6,0,1.4,0.3,2.3,0.9l-1,2.7c-0.9-0.5-1.5-0.7-2.1-0.7
			c-0.8,0-1.5,0.4-2,1.3c-0.5,0.9-0.8,1.4-0.8,1.5v4.2h-3.5v-9.7H173.2z"/>
		<path class="st2" d="M186.4,171.1v-1.4c-1,1-2.2,1.6-3.6,1.6c-1.2,0-2.2-0.3-2.9-1c-0.7-0.6-1.1-1.5-1.1-2.7v-6.2h3.5v6
			c0,1.2,0.6,1.8,1.7,1.8c0.7,0,1.2-0.2,1.7-0.7c0.5-0.4,0.7-0.8,0.7-1v-6.2h3.5v9.7H186.4z"/>
		<path class="st2" d="M202.5,161.4v2h-1.6c0.4,0.5,0.5,1.1,0.5,1.6c0,0.8-0.3,1.4-1,2.1c-0.6,0.6-1.6,1-2.8,1.1
			c-1.2,0.1-2,0.2-2.1,0.3c-0.2,0.1-0.3,0.2-0.3,0.4c0,0.2,0.1,0.3,0.3,0.4c0.2,0.1,1.1,0.2,2.6,0.3c1.5,0.1,2.5,0.5,3.1,1
			c0.6,0.6,0.9,1.2,0.9,1.9c0,1.1-0.5,1.9-1.5,2.4c-1,0.6-2.4,0.8-4.3,0.8c-1.9,0-3.4-0.3-4.4-0.8c-1-0.5-1.5-1.2-1.5-2
			c0-1.2,1-2,2.9-2.5c-0.9-0.2-1.3-0.7-1.3-1.3c0-0.7,0.7-1.2,2-1.5c-0.9-0.1-1.6-0.5-2.2-1c-0.6-0.5-0.9-1.2-0.9-2
			c0-0.9,0.4-1.7,1.3-2.5c0.8-0.7,2.1-1.1,3.7-1.1H202.5z M196.5,174.1c0.7,0,1.3-0.1,1.8-0.4c0.5-0.2,0.7-0.5,0.7-0.9
			c0-0.7-0.9-1.1-2.7-1.1c-0.8,0-1.5,0.1-1.9,0.3c-0.5,0.2-0.7,0.5-0.7,0.8C193.7,173.7,194.6,174.1,196.5,174.1z M196.2,163.2
			c-0.6,0-1,0.2-1.4,0.5c-0.4,0.3-0.6,0.8-0.6,1.2c0,0.5,0.2,0.9,0.6,1.2c0.4,0.3,0.9,0.5,1.4,0.5c0.5,0,1-0.2,1.4-0.5
			c0.4-0.4,0.6-0.8,0.6-1.3c0-0.5-0.2-0.8-0.6-1.2C197.3,163.4,196.8,163.2,196.2,163.2z"/>
	</g>
</g>
</svg>
