<?xml version="1.0" encoding="utf-8"?>
<!-- Generator: Adobe Illustrator 21.1.0, SVG Export Plug-In . SVG Version: 6.00 Build 0)  -->
<svg version="1.1" id="Layer_1" xmlns="http://www.w3.org/2000/svg" xmlns:xlink="http://www.w3.org/1999/xlink" x="0px" y="0px"
	 viewBox="0 0 250 250" style="enable-background:new 0 0 250 250;" xml:space="preserve">
<style type="text/css">
	.st0{fill:#D21446;}
	.st1{fill:#D31D4A;}
</style>
<title>Logos</title>
<path class="st0" d="M99.8,85.8c1.1,0.3,2.3,0.4,3.5,0.5c7.1,0.9,13.9,2.4,21,3.6c3.9,0.8,7.8,1.3,11.8,1.5
	c3.7,0.3,7.3-0.7,10.3-2.8c0.4-0.3,0.9-0.5,1.4-0.1c0.4,0.4,0.5,0.9,0.2,1.4c-0.2,0.6-0.6,1.1-1,1.5c-3.6,4.2-8.7,6.9-14.1,7.6
	c-3.4,0.3-6.7,0.2-10.1-0.2c-0.9-0.1-1.9-0.1-2.8-0.2c-0.7-0.1-1,0.4-1.2,0.8l-15.2,26.7l-5,8.7c-0.2,0.3-0.3,0.6-0.5,0.9
	c-0.5,0.9-0.1,2.1,0.8,2.6c0.1,0,0.2,0.1,0.3,0.1c1.3,0.5,2.7,0.9,4.1,1.2c0.3,0.1,0.6,0.1,0.9,0.3c0.6,0.3,1,0.9,0.9,1.5
	c-0.1,0.7-0.6,1.2-1.3,1.3c-0.3,0-0.6,0-0.9,0H74c-0.3,0-0.6,0-0.9,0c-0.7,0-1.2-0.6-1.2-1.3c0-0.3,0.1-0.5,0.3-0.7
	c0.3-0.5,0.8-0.9,1.4-1c0.8-0.2,1.5-0.4,2.3-0.5c3.4-0.5,6.4-2.6,8-5.6c6.9-11.5,13.7-23.1,20-34.9c1-1.9,1-1.9-1.1-2.2
	c-5.9-1.2-11.8-2-17.7-2.4c-3.9-0.4-7.7,0.6-11,2.7c-2,1.4-3.5,3.3-4.5,5.5c-1.7,3.4-0.3,7.5,3.1,9.2c0.4,0.2,0.8,0.4,1.3,0.5
	c1,0.4,2.1,0.5,3.3,0.5c0.2,0,0.5,0,0.7-0.1c0.4-0.1,0.6-0.3,0.7-0.7c0-0.4-0.3-0.4-0.5-0.6c-2.5-1-3.6-3.9-2.6-6.3
	c0.5-1.3,1.6-2.3,2.9-2.7c3.5-1.5,7.5-0.8,10.3,1.7c2.6,2.8,2.4,7.2-0.4,9.8c-0.1,0.1-0.1,0.1-0.2,0.2c-5.9,5.4-17.6,3.8-21.7-3.1
	c-2.4-3.8-2.2-8.7,0.5-12.3c2.6-3.7,6.1-6.6,10.2-8.5c4.2-2.2,8.7-3.5,13.4-3.8c0.2,0,0.4,0,0.5-0.2L99.8,85.8z"/>
<path class="st0" d="M5,118.1c2-3.4,4-6.9,6-10.3c2.6-4.5,5.2-9,7.7-13.5c0.2-0.5,0.7-0.8,1.3-0.7c8.9,0,17.8,0,26.7,0
	c0.6-0.1,1.1,0.2,1.3,0.7c4.5,7.8,8.9,15.5,13.4,23.2c0.3,0.5,0.3,1.1,0,1.5c-4.5,7.8-9,15.6-13.4,23.4c-0.2,0.5-0.8,0.8-1.3,0.7
	c-8.9,0-17.7,0-26.6,0c-0.6,0.1-1.1-0.3-1.4-0.8c-4.4-7.8-8.8-15.5-13.2-23.2c-0.1-0.2-0.2-0.5-0.5-0.6L5,118.1z M20.4,140.5
	c0.1-0.1,0.2-0.2,0.3-0.4c4.1-7.1,8.3-14.2,12.4-21.3c0.2-0.3,0.2-0.8,0-1.1c-1.2-2-2.3-4-3.5-6.1L20.7,96c-0.2,0-0.3,0.3-0.4,0.4
	c-4.1,7.1-8.1,14.1-12.2,21.1c-0.3,0.4-0.3,0.8,0,1.2c2.2,3.9,4.4,7.7,6.6,11.6L20.4,140.5z"/>
<path class="st0" d="M245,108.1c-1.4,2.3-2.5,4.8-3.7,7.1c-0.6,1.1-1.2,2.3-1.8,3.4c-0.3,0.6-0.7,1.2-1.5,1
	c-0.9-0.2-0.9-0.8-0.9-1.5c0.1-1.7-0.1-3.3-0.5-5c-0.4-1.6-1.6-2.9-3.1-3.4c-2.8-1.3-6.1-1.1-8.7,0.6c-1.9,1.2-2.6,3.7-1.4,5.6
	c0.2,0.3,0.4,0.6,0.6,0.8c1.1,1.1,2.2,2.2,3.5,3.1c2.7,1.9,5.1,4.2,7.2,6.8c1.7,2,2.7,4.5,2.8,7c0,3.4-1.5,6.5-4.1,8.7
	c-4.2,4-9.7,6.4-15.5,6.9c-4.2,0.6-8.5,0.4-12.7-0.6c-2.3-0.5-4.5-1.6-6.3-3.2c-3.6-3.1-4-8.6-0.9-12.2c0.3-0.4,0.7-0.8,1.1-1.1
	c2.7-2.2,6.2-3.4,9.7-3.1c2.4-0.1,4.7,0.6,6.7,1.8c2.9,1.5,4,5,2.5,7.9c-0.8,1.5-2.1,2.6-3.7,3c-1.8,0.6-3.8,0.6-5.6-0.1
	c-2.2-0.6-3.5-2.7-3.1-4.9c0.5-2.2,2.5-3.7,4.8-3.4c0.2,0,0.5,0.2,0.8,0c-0.5-0.3-1.2-0.5-1.8-0.5c-3.1-0.4-6-0.1-8.3,2.3
	c-2.1,1.9-2.2,5.1-0.3,7.2c0.2,0.2,0.4,0.4,0.6,0.5c2.6,2.2,5.9,3.3,9.3,3.1c4.4,0.2,8.7-1.5,11.8-4.6c2.2-1.9,2.8-5.1,1.7-7.7
	c-0.7-1.6-1.9-2.9-3.3-3.7c-1.5-1-3.3-2-4.9-3c-1.4-0.8-2.7-1.9-3.9-3.1c-3.3-3.4-3.6-8.7-0.7-12.5c2.8-4,7.5-6.4,12.4-6.4
	c3.8-0.1,7.6,0.5,11.1,1.8c2.6,1,5.5,1.1,8.2,0.2c0.7-0.2,1.3-0.3,1.8,0.2L245,108.1z"/>
<path class="st1" d="M122.6,164.2c-0.1-0.3-0.2-0.5-0.2-0.8c0-0.5,0-0.9,0.7-0.7c0.6,0.2,1.3-0.1,1.5-0.7c0,0,0,0,0,0
	c0.6-0.9,0.6-1.9,0.2-2.9c-1.1-2.4-2-4.8-3-7.2c-0.1-0.3-0.2-0.6-0.4-1c1.8-0.3,1.8-0.3,2.3,1.2c0.6,1.8,1.3,3.6,1.9,5.3
	c0.1,0.3,0.2,0.7,0.5,0.9l2-5.8l0.3-0.9c0.2-0.7,0.9-1.1,1.5-0.9c0.1,0,0.1,0,0.2,0.1c0.5,0.2,0.1,0.5,0,0.8
	c-1.2,3.2-2.5,6.4-3.7,9.6c-0.4,1.2-1,2.3-2,3.1L122.6,164.2z"/>
<path class="st0" d="M128.1,144.1c-2.4,0.2-4.7-0.1-7-0.8c-5.8-1.7-9.4-7.5-8.4-13.4c2.2-12.4,11.8-22.3,24.2-24.8
	c3.8-0.6,7.6-0.4,11.3,0.6c6.2,1.6,10,7.9,8.7,14.1c-2.8,11.8-10.4,21.1-22.8,23.7c-1,0.2-2,0.4-3,0.4
	C130.1,144.2,129.1,144.1,128.1,144.1z M142.8,108.5c-1.8-0.1-3.5,0.6-4.7,1.9c-0.9,0.9-1.6,1.8-2.4,2.8c-4.1,6.1-7.9,12.4-11.3,19
	c-0.8,1.4-1.3,3-1.5,4.6c-0.4,1.7,0.6,3.3,2.3,3.8c0.1,0,0.1,0,0.2,0c1.6,0.5,3.3,0.2,4.6-0.7c1.5-1,2.8-2.2,3.9-3.7
	c2.8-3.9,5.4-8,7.6-12.2c1.9-3.3,3.5-6.8,4.8-10.4c0.3-0.7,0.4-1.5,0.4-2.2C146.5,109.5,145.1,108.5,142.8,108.5L142.8,108.5z"/>
<path class="st0" d="M181.8,105.9c4.4,0,8.9,0,13.3,0c2.8-0.1,5.4,1.1,7.2,3.1c1.6,1.9,2.2,4.5,1.5,6.9c-1.1,7.5-7,13.3-14.4,14.5
	c-3.8,0.6-7.7,0.8-11.6,0.5h-3.8c-0.5-0.1-1,0.1-1.2,0.6c-1,2-2.2,4-3.1,6c-0.8,1.7-0.5,2.2,1.3,2.7l1.9,0.5
	c0.7,0.1,1.1,0.7,1.1,1.4c0,0.7-0.5,1-1.1,1.2c-0.3,0.1-0.6,0.1-0.9,0.1h-21c-0.3,0-0.6,0-0.9,0c-0.5-0.1-1-0.2-1.1-0.8
	c-0.1-0.5,0.1-1.1,0.6-1.4c0.5-0.4,1.1-0.6,1.8-0.6c2.5-0.2,4.7-1.6,5.9-3.7c3.3-5.5,6.3-11.2,9.4-16.8c1.4-2.5,3-5,4.2-7.6
	c1.3-2.6,1-3-1.7-3.4c-0.6-0.1-1.2-0.2-1.8-0.4c-0.6-0.2-1-0.6-0.9-1.3c0-0.7,0.6-1.3,1.2-1.3c0.3,0,0.6,0,0.9,0L181.8,105.9
	L181.8,105.9z M188.3,109.4L188.3,109.4c-0.2,0-0.4,0-0.7,0c-2-0.4-3.1,0.7-3.9,2.3c-0.7,1.3-1.5,2.5-2.2,3.8
	c-2,3.6-3.9,7.2-5.8,10.8c-0.3,0.6-0.4,0.9,0.5,0.9c1.5,0,3,0,4.5,0c2.4-0.1,4.7-1.3,6.1-3.3c2.2-3,4.1-6.4,5.4-9.9
	c0.2-0.5,0.3-1,0.4-1.5c0.4-1.1-0.2-2.4-1.3-2.8c-0.3-0.1-0.5-0.1-0.8-0.1C189.8,109.5,189,109.4,188.3,109.4L188.3,109.4z"/>
<path class="st1" d="M137.5,149.9c0,3.1,0,6.3,0,9.4c0,0.6,0,1.1-0.8,1.1c-0.8,0-0.9-0.4-0.9-1.1c0-3.8,0-7.6,0-11.4
	c0-0.7,0.2-1,0.9-0.9c0.3,0,0.6,0,0.9,0c0.6,0,0.8,0.2,1,0.7c1.1,3.1,2.3,6.2,3.5,9.3c0.1,0.2,0.2,0.5,0.4,1
	c0.4-1.1,0.8-1.9,1.1-2.8c0.9-2.5,1.9-4.9,2.8-7.4c0.2-0.6,0.5-0.9,1.2-0.8c0.2,0,0.4,0,0.6,0c0.8-0.1,1.1,0.2,1.1,1
	c0,3.8,0,7.7,0,11.5c0,0.7-0.2,0.9-0.8,0.9c-0.7,0-0.9-0.1-0.9-0.9c0-2.9,0-5.8,0-8.7v-0.9h-0.2l-1.9,5c-0.6,1.5-1.2,3.1-1.8,4.8
	c-0.2,0.6-0.5,0.7-1.1,0.7c-0.5,0-0.8-0.1-1.1-0.7c-1.1-3.1-2.3-6.2-3.5-9.2l-0.3-0.7L137.5,149.9z"/>
<path class="st1" d="M115.7,159.4c-1.7,1.7-4.5,1.7-6.2-0.1c-0.7-0.7-1.1-1.5-1.2-2.5c-0.2-1-0.2-2.1,0.1-3.1c0.6-2.3,3-3.8,5.3-3.2
	c0.8,0.2,1.5,0.6,2,1.1c0-1.3,0-2.5,0-3.7c0-0.7,0-1,0.9-1c0.9,0,0.8,0.4,0.8,1c0,3.8,0,7.7,0,11.5c0,0.4,0.2,1-0.6,0.9
	C115.9,160.3,115.5,160.5,115.7,159.4z M115.7,155.6c0-0.6-0.1-1.1-0.2-1.7c-0.4-1.2-1.5-2.1-2.8-2c-1.3,0-2.4,0.9-2.6,2.2
	c-0.1,0.5-0.2,0.9-0.2,1.4c-0.3,1.7,0.8,3.3,2.5,3.6c0.2,0,0.4,0,0.6,0C114.6,159.1,115.7,157.8,115.7,155.6z"/>
<path class="st1" d="M71.2,153.7c0-2,0-4,0-5.9c0-0.6,0.2-0.8,0.7-0.7c2.5,0,5,0,7.4,0c0.7,0,0.7,0.3,0.7,0.8s0,0.8-0.7,0.8
	c-1.8,0-3.6,0-5.4,0c-0.8,0-1,0.2-0.9,1c0.1,0.8,0.1,1.6,0,2.4c0,0.7,0.2,0.9,0.9,0.9c1.5,0,3,0,4.5,0c0.7,0,0.7,0.3,0.7,0.9
	s-0.1,0.8-0.7,0.8c-1.5,0-3.1,0-4.6,0c-0.6,0-0.8,0.1-0.8,0.7c0,1.5,0,3.1,0,4.6c0,0.9-0.5,0.7-1,0.7c-0.5,0-1,0-0.9-0.7
	C71.2,157.7,71.2,155.7,71.2,153.7z"/>
<path class="st1" d="M156.9,159.3c-1.2,1.1-2.9,1.5-4.5,1.1c-1.1-0.2-1.9-1-2-2.1c-0.3-1.2,0.3-2.4,1.4-2.9c0.8-0.4,1.7-0.6,2.6-0.7
	c0.5-0.1,1.1-0.2,1.5-0.3c0.5-0.1,0.9-0.4,0.9-0.9c0-0.5-0.2-1-0.6-1.3c-1.3-0.8-3-0.3-3.7,1c0,0.1-0.1,0.1-0.1,0.2
	c-0.3,0.7-0.9,0.3-1.4,0.3c-0.5,0-0.3-0.5-0.2-0.7c0.3-1.3,1.3-2.2,2.6-2.4c1-0.2,2.1-0.2,3.1,0c1.2,0.2,2.1,1.2,2,2.4
	c0,1.7,0,3.4,0,5.1c0,0.4-0.1,1,0.6,1c0.7,0,0.4,0.3,0.4,0.6c0,0.3,0,0.7-0.5,0.8C158.1,160.8,157.4,160.5,156.9,159.3z
	 M156.9,156.6c-0.2-0.2,0.3-1-0.3-0.9c-1.2,0.1-2.4,0.3-3.6,0.7c-0.7,0.3-1.1,1.1-0.8,1.8c0.1,0.3,0.3,0.5,0.5,0.6
	c0.9,0.5,2,0.5,2.9,0C156.6,158.4,157,157.5,156.9,156.6L156.9,156.6z"/>
<path class="st1" d="M179.8,156.1c-1,0-2,0-2.9,0c-0.5,0-0.7,0.1-0.6,0.6c0.1,1.2,1,2.1,2.2,2.4c1.2,0.4,2.5-0.2,3.1-1.3
	c0.4-0.4,1-0.6,1.5-0.5c0.2,0.1,0.1,0.3,0.1,0.5c-0.2,0.7-0.5,1.3-1,1.8c-2,1.6-4.9,1.4-6.5-0.6c-0.2-0.3-0.5-0.6-0.6-1
	c-0.7-1.6-0.7-3.4,0-5c0.8-1.7,2.5-2.7,4.4-2.5c1.8,0.1,3.3,1.3,3.8,3.1v0.2c0.6,2.2,0.5,2.3-1.7,2.3L179.8,156.1z M178.9,154.5
	c0.7,0,1.4,0,2.2,0c0.5,0,0.6-0.1,0.5-0.6c-0.3-1.5-1.8-2.4-3.3-2c-1,0.2-1.8,1-2,2c0,0.4,0,0.6,0.4,0.6
	C177.4,154.6,178.2,154.6,178.9,154.5L178.9,154.5z"/>
<path class="st1" d="M94.7,156.1c-1,0-2,0-3.1,0c-0.5,0-0.6,0.1-0.5,0.6c0.1,1.2,1,2.2,2.2,2.4c1.2,0.4,2.6-0.2,3.1-1.4
	c0.4-0.8,1-0.5,1.5-0.4c0.4,0.1,0.1,0.7,0,1c-0.6,1.4-1.9,2.2-3.3,2.2c-1.7,0.3-3.5-0.5-4.4-2c-0.9-1.5-1.1-3.4-0.4-5.1
	c0.7-2.3,3.2-3.5,5.5-2.9c2.1,0.8,3.4,2.8,3.2,5c0,0.5-0.3,0.4-0.6,0.4H94.7z M93.9,154.5c0.7,0,1.4,0,2.1,0s0.7-0.2,0.5-0.8
	c-0.4-1.1-1.4-1.9-2.6-1.9c-1.2,0-2.2,0.8-2.5,1.9c-0.2,0.5-0.2,0.8,0.5,0.8C92.5,154.5,93.2,154.6,93.9,154.5L93.9,154.5z"/>
<path class="st1" d="M168.1,154.8l3.2-3.1c1.2-1.2,1.2-1.2,3.3-1l-2.1,2c-1.7,1.5-1.7,1.5-0.4,3.5l2.7,4.1c-1.7,0.4-1.9,0.3-2.8-1
	c-0.7-1.1-1.5-2.2-2.2-3.3c-0.2-0.4-0.4-0.4-0.8-0.1c-0.7,0.4-1.2,1.3-1,2.1c0.1,0.5,0,1.1,0,1.5c0.1,0.8-0.3,0.9-1,0.9
	s-0.7-0.2-0.7-0.8c0-4,0-7.9,0-11.9c0-0.7,0.2-0.8,0.8-0.8c0.6,0,0.9,0,0.9,0.8C168.1,150.1,168.1,152.3,168.1,154.8z"/>
<path class="st1" d="M192.3,160.6c-1.2,0.1-2.3-0.5-3.1-1.4c-0.2-0.2-0.3-0.5-0.4-0.7c0-0.4-0.5-0.9,0.1-1.1s1.2-0.4,1.5,0.5
	c0.5,1.4,3.5,1.8,4.4,0.7c0.4-0.4,0.4-1.1,0-1.6c-0.1-0.1-0.2-0.1-0.3-0.2c-0.7-0.4-1.4-0.6-2.1-0.7c-0.7-0.1-1.4-0.3-2.1-0.6
	c-0.9-0.3-1.6-1.2-1.5-2.2c-0.1-1,0.5-1.9,1.4-2.3c1.5-0.7,3.2-0.8,4.6-0.1c0.6,0.2,1.1,0.7,1.3,1.3c0.1,0.4,0.7,1,0,1.3
	c-0.7,0.2-1.2,0.4-1.5-0.6c-0.9-1.2-2.6-1.4-3.7-0.5c0,0,0,0,0,0c-0.4,0.4-0.4,1,0,1.3c0.1,0.1,0.2,0.2,0.3,0.2
	c0.8,0.4,1.6,0.6,2.4,0.8c0.6,0.1,1.2,0.3,1.7,0.5c0.9,0.3,1.6,1.1,1.6,2.1c0.1,1.1-0.4,2.2-1.4,2.7
	C194.5,160.5,193.4,160.7,192.3,160.6z"/>
<path class="st1" d="M100.8,152c0.9-1.2,2.3-1.8,3.8-1.5c1.5,0.1,2.7,1.3,2.6,2.8c0,2.1,0,4.3,0,6.4c0,0.7-0.4,0.6-0.9,0.6
	s-0.8,0-0.8-0.7c0-1.8,0-3.6,0-5.4c0-1.8-0.5-2.3-1.7-2.4c-1.4-0.2-2.7,0.7-3,2c-0.2,1.4-0.2,2.9-0.1,4.3c0,0.3,0,0.7,0,1
	c0.1,0.8,0,1.2-1,1.1c-0.6,0-0.7-0.2-0.7-0.8c0-2.7,0-5.4,0-8.1c0-0.5,0-0.9,0.7-0.9s1,0.2,0.9,0.9
	C100.7,151.6,100.7,151.8,100.8,152z"/>
<path class="st1" d="M184.8,155.7c0-0.9,0-1.8,0-2.7c0-0.6-0.1-0.9-0.8-0.8s-0.9,0.1-0.9-0.7c0-0.8,0.4-0.8,0.9-0.7s0.8-0.1,0.7-0.7
	c-0.1-0.6,0-0.9,0-1.3c-0.1-0.8,0.2-1,0.9-0.9c0.7,0,0.8,0.1,0.7,0.7c0,0.3,0,0.5,0,0.8c0,1.4,0,1.4,1.4,1.5c0.5,0,0.5,0.3,0.5,0.7
	s0.1,0.7-0.5,0.8c-1.4,0.1-1.4,0.1-1.4,1.5c0,1.4,0,2.6,0,4c0,0.9,0.2,1.3,1.1,1.2c0.6,0,0.8,0.2,0.8,0.8c0,0.6-0.3,0.7-0.8,0.7
	c-0.2,0-0.5,0-0.8,0c-1.5,0-2-0.5-2-2.1C184.8,157.4,184.8,156.6,184.8,155.7z"/>
<path class="st1" d="M119,153.6c0-1.9,0-3.8,0-5.7c0-0.7,0.2-0.9,0.8-0.9c0.7,0,0.9,0.1,0.9,0.8c0,3.9,0,7.9,0,11.8
	c0,0.7-0.3,0.8-0.9,0.8c-0.6,0-0.8-0.2-0.8-0.9C119,157.5,119,155.6,119,153.6z"/>
<path class="st1" d="M82.3,152.2c0.7-0.9,1.7-1.6,2.9-1.7c0.3,0,0.7-0.1,0.7,0.4c-0.1,0.5,0.4,1.1-0.4,1.3c-2.6,0.7-3.1,1.3-3.1,4.1
	c0,1.2,0,2.3,0,3.5c0,0.7-0.4,0.6-0.8,0.6c-0.4,0-0.9,0.2-0.9-0.6c0-2.8,0-5.7,0-8.5c0-0.6,0.3-0.6,0.8-0.6s0.9-0.1,0.9,0.6
	C82.3,151.6,82.3,151.9,82.3,152.2z"/>
<path class="st1" d="M162.2,152.3c0.6-1,1.6-1.7,2.7-1.8c0.4,0,0.8-0.1,0.7,0.4s0.4,1.1-0.4,1.3c-2.4,0.6-3.1,1.4-3.1,3.8
	c0,1.2,0,2.4,0,3.7c0,0.7-0.4,0.6-0.8,0.6c-0.4,0-0.9,0.1-0.9-0.6c0-2.8,0-5.6,0-8.4c0-0.7,0.4-0.7,0.8-0.7c0.5,0,0.9,0,0.8,0.7
	C161.9,151.7,162,152,162.2,152.3z"/>
<path class="st1" d="M86.6,155.5c0-1.4,0-2.8,0-4.1c0-0.8,0.4-0.7,0.9-0.7c0.5,0,0.8,0,0.8,0.7c0,2.8,0,5.6,0,8.4
	c0,0.8-0.4,0.7-0.9,0.7s-0.9,0-0.8-0.7C86.7,158.3,86.6,156.9,86.6,155.5z"/>
<path class="st1" d="M88.3,148.2c0,0.5,0,0.9-0.8,0.9c-0.8,0-0.9-0.4-0.9-1s0-1.2,0.9-1.1C88.4,147.2,88.3,147,88.3,148.2z"/>
<path class="st0" d="M236,148.9c-1.2,0-2.2-1-2.2-2.2s1-2.2,2.2-2.2c1.2,0,2.2,1,2.2,2.2v0C238.2,147.9,237.2,148.9,236,148.9z
	 M236,144.9c-1,0-1.8,0.8-1.8,1.8c0,1,0.8,1.8,1.8,1.8c1,0,1.8-0.8,1.8-1.8C237.8,145.7,237,144.9,236,144.9L236,144.9z"/>
<path class="st0" d="M235.1,147.7v-2.1h0.9c0.2,0,0.3,0,0.5,0c0.1,0,0.2,0.1,0.2,0.2c0.1,0.1,0.1,0.2,0.1,0.3c0,0.1,0,0.3-0.1,0.4
	c-0.1,0.1-0.3,0.2-0.4,0.2c0.1,0,0.2,0.1,0.2,0.2c0.1,0.1,0.2,0.2,0.2,0.3l0.2,0.4h-0.5l-0.3-0.4l-0.2-0.3l-0.1-0.1h-0.2h-0.1v0.9
	L235.1,147.7z M235.5,146.6h0.3h0.4c0.1,0,0.1,0,0.1-0.1c0-0.1,0-0.1,0-0.2c0-0.1,0-0.1,0-0.2c0,0-0.1-0.1-0.2-0.1h-0.6L235.5,146.6
	z"/>
</svg>
