<svg id="Layer_1" data-name="Layer 1" xmlns="http://www.w3.org/2000/svg" viewBox="0 0 250 250">
  <defs>
    <style>.cls-1{fill:#f15f30;}.cls-1,.cls-2,.cls-3,.cls-4{stroke:#444344;stroke-miterlimit:10;stroke-width:0.7px;}.cls-2{fill:#f7d157;}.cls-3{fill:#41a4d9;}.cls-4{fill:none;}</style>
  </defs>
  <title>Total</title>
  <rect class="cls-1" x="37.5" y="176.15" width="175" height="11.78"/>
  <rect class="cls-2" x="50.37" y="84.47" width="149.26" height="91.68"/>
  <rect class="cls-2" x="50.37" y="101.78" width="61.16" height="20.92"/>
  <rect class="cls-1" x="50.37" y="122.67" width="61.16" height="8.54"/>
  <rect class="cls-1" x="38.85" y="72.88" width="172.29" height="11.59"/>
  <rect class="cls-3" x="64.48" y="131.21" width="31.91" height="44.94"/>
  <rect class="cls-2" x="50.37" y="84.47" width="149.26" height="17.27"/>
  <polygon class="cls-2" points="204.3 72.91 47.47 72.91 51.31 62.08 200.46 62.08 204.3 72.91"/>
  <rect class="cls-3" x="124.17" y="117.51" width="61.23" height="46.1"/>
  <polygon class="cls-1" points="110.06 101.78 197.94 101.78 212.2 124.81 212.2 131.25 205.91 135.46 196.5 129.44 188.53 135.46 179.57 129.44 170.35 135.46 162.33 129.44 153.87 135.46 145.96 129.44 135.91 135.46 128.61 129.44 119.2 135.46 110.66 129.44 103.21 135.46 96.4 130.61 96.4 123.87 110.06 101.78"/>
  <polyline class="cls-4" points="123.04 101.78 110.77 125.23 110.77 175.47"/>
  <polyline class="cls-4" points="135.84 101.78 128.69 124.36 128.69 129.44"/>
  <line class="cls-4" x1="147.92" y1="101.78" x2="145.96" y2="129.44"/>
  <line class="cls-4" x1="160.04" y1="101.78" x2="162.33" y2="129.44"/>
  <polyline class="cls-4" points="172.04 101.78 179.34 124.06 179.34 130.04"/>
  <polyline class="cls-4" points="185.4 101.78 196.69 124.89 196.69 129.44"/>
</svg>