<?xml version="1.0" encoding="utf-8"?>
<!-- Generator: Adobe Illustrator 21.1.0, SVG Export Plug-In . SVG Version: 6.00 Build 0)  -->
<svg version="1.1" id="Layer_1" xmlns="http://www.w3.org/2000/svg" xmlns:xlink="http://www.w3.org/1999/xlink" x="0px" y="0px"
	 viewBox="0 0 250 250" style="enable-background:new 0 0 250 250;" xml:space="preserve">
<style type="text/css">
	.st0{fill:#CA1D2A;}
</style>
<title>Grocery</title>
<path class="st0" d="M74.7,136.4c0.3-1,0.7-1.9,1-2.9c0.7-2.3,1.2-4.6,1.5-7c0.3-2.1,0.2-4.3-0.2-6.4c-0.3-1.4-0.8-2.7-1.3-4
	c-0.4-0.8-0.7-1.6-1.1-2.5c-0.1-0.4-0.2-0.8-0.3-1.2h0.3c3.8,0,7.7,0,11.5,0c0.5,0.1,0.9,0.2,1.3,0.5c1.6,0.8,3,2,4.1,3.5
	c1.3,1.7,2.2,3.6,2.7,5.7c0.2,1.2,0.2,2.4,0.1,3.6c-0.2,1.7-0.6,3.3-1.3,4.8c-0.9,2-2.3,3.7-4.2,4.9c-1,0.6-2,0.9-3.2,1
	c-2.9,0.2-5.8,0-8.7,0L74.7,136.4z M81.9,116.8v0.6c-0.3,2-0.3,4-0.3,6c0.2,2.1,0.6,4.2,1.3,6.2c0.1,0.1,0.1,0.3,0.2,0.4h0.1
	c0-0.3,0.2-0.3,0.4-0.4l0.8-0.3c1.1-0.4,2.1-1.1,2.8-2c0.6-0.9,1-1.9,1.1-3c0.2-1.5-0.2-3-1.2-4.1c-0.9-1.1-2-1.9-3.3-2.5
	C83.2,117.4,82.6,117.1,81.9,116.8L81.9,116.8z"/>
<path class="st0" d="M172.6,124.3c0-2,0.5-3.9,1.3-5.7c1.1-2.5,3.2-4.4,5.7-5.4c2.2-0.9,4.6-0.8,6.7,0.2c2.3,1,4.1,2.9,5.2,5.1
	c0.8,1.7,1.3,3.5,1.4,5.3c0.2,2.5-0.3,5-1.4,7.2c-1.2,2.6-3.4,4.6-6.2,5.5c-2,0.7-4.3,0.5-6.2-0.4c-2.4-1.1-4.4-3.1-5.4-5.6
	C172.8,128.6,172.5,126.5,172.6,124.3z M176.4,125c0,2.8,2.4,5.1,5.2,5.1c2.8,0,5.1-2.4,5.1-5.2c0-2.8-2.4-5.1-5.2-5.1
	c-0.1,0-0.2,0-0.3,0C178.4,120,176.3,122.3,176.4,125L176.4,125z"/>
<path class="st0" d="M223,136.5l3.4-9.8h0.1c0.1,0.2,0.2,0.3,0.3,0.5c0.3,0.9,0.7,1.8,1.1,2.7c0.2,0.5,0.5,0.9,0.9,1.3
	c0.6,0.7,1.6,0.8,2.4,0.4c0.5-0.2,1-0.7,1.3-1.2c0.4-0.6,0.4-1.4-0.1-2c-0.6-0.9-1.5-1.5-2.5-2c-1.4-0.6-2.7-1.6-3.5-3
	c-0.5-0.9-0.8-1.9-0.9-3c-0.1-0.7-0.1-1.5,0-2.2c0.7-3.1,3.2-5.4,6.4-5.8c1.6-0.2,3.2-0.2,4.8,0c1.3,0.2,2.7,0.4,4,0.6
	c0.2,0,0.4,0.2,0.7,0.2c0.6,0.1,1.3,0,1.9-0.2c0.5-0.1,1.1-0.3,1.6-0.4c0.3,0,0.5,0,0.8,0l-4.6,8.7c0-0.4,0-0.7-0.1-1
	c-0.2-1.2-0.8-2.4-1.7-3.3c-0.5-0.4-1.1-0.7-1.7-0.7c-0.9-0.1-1.7-0.1-2.6,0.1c-1.4,0.3-2.2,1.6-1.9,2.9c0,0.2,0.1,0.5,0.2,0.7
	c0.5,1.1,1.5,1.9,2.7,2.1c1.4,0.3,2.7,1,3.7,2.1c1.1,1.1,1.8,2.5,2.1,4c0.2,1.5,0.1,3-0.3,4.4c-0.5,1.7-1.9,3-3.6,3.3
	c-1.4,0.3-2.8,0.4-4.2,0.4c-0.9,0-1.8,0-2.7-0.1c-0.9-0.1-1.7-0.3-2.7-0.5c-0.4-0.1-0.8-0.2-1.2-0.2c-0.1,0-0.3,0-0.4,0.1
	c-0.7,0.4-1.5,0.7-2.3,0.9C223.8,136.6,223.4,136.6,223,136.5z"/>
<path class="st0" d="M138.3,136.5h-8.6c0.1-0.3,0.1-0.7,0.2-1c0.4-1.6,0.3-3.3-0.2-4.9c-0.3-1.1-0.8-2.2-1.5-3.2
	c-0.4-0.5-0.9-1-1.3-1.5c-0.6-0.5-1.6-0.5-2.2,0.2c-0.1,0.1-0.2,0.2-0.2,0.4c-0.2,0.8-0.3,1.5-0.3,2.3c0.1,2.1,0.6,4.1,1.5,6
	c0.3,0.6,0.6,1.1,0.9,1.7h-9.6l0.3-0.5c0.6-0.9,1-2,1.3-3.1c0.7-2.3,1.3-4.6,1.6-7c0.1-0.9,0.1-1.8,0.1-2.7c0-1.3-0.1-2.5-0.3-3.8
	c-0.4-2.2-1.3-4.3-2.8-6.1c-0.2-0.2-0.4-0.5-0.5-0.9h0.3c5.1,0,10.3,0,15.4,0c0.7,0,1.3,0.3,1.7,0.8c1.4,1.6,1.8,3.8,1.1,5.8
	c-0.3,1-0.9,1.8-1.6,2.5c-0.6,0.7-1.3,1.3-1.9,1.9c-0.1,0.1-0.1,0.2-0.1,0.3c0.4,1.4,0.8,2.7,1.3,4c0.9,2.3,2.2,4.4,3.7,6.2
	c0.4,0.5,0.8,1.1,1.2,1.7C138.2,136,138.3,136.2,138.3,136.5z M125,123.2c0.1,0,0.2,0,0.3,0c1.3-0.3,2.5-1,3.5-1.9
	c0.5-0.4,0.9-1.1,0.9-1.8c0.1-1-0.4-2.1-1.2-2.7c-0.7-0.5-1.5-0.8-2.4-0.9c-0.3,0-0.7,0-1.1,0C125.6,118.4,125.6,120.9,125,123.2
	L125,123.2z"/>
<path class="st0" d="M26.4,136.4c0.6-0.7,1-1.6,1.3-2.5c0.7-1.9,1.2-3.9,1.6-5.9c0.1-0.7,0.3-1.4,0.4-2.2c0.1-0.5,0.1-1,0.1-1.4
	c0.1-2,0-3.9-0.5-5.9c-0.4-1.8-1.2-3.5-2.4-5c-0.2-0.2-0.4-0.5-0.5-0.8c0-0.1-0.1-0.2-0.1-0.3h0.4c5.1,0,10.2,0,15.3,0
	c0.7,0,1.3,0.3,1.7,0.8c0.7,0.9,1.2,1.9,1.3,3.1c0.2,1.8-0.4,3.6-1.6,5c-0.6,0.8-1.3,1.5-2.1,2.1c-0.1,0.1-0.2,0.2-0.1,0.3
	c0.4,1.4,0.8,2.8,1.3,4.1c0.9,2.2,2.1,4.2,3.6,6.1c0.4,0.6,0.8,1.2,1.2,1.8c0.1,0.2,0.2,0.4,0.2,0.6h-8.5c0.1-0.3,0.1-0.6,0.2-0.9
	c0.4-1.6,0.3-3.4-0.2-5c-0.2-1-0.7-1.9-1.2-2.8c-0.3-0.4-0.6-0.8-0.9-1.1c-0.3-0.4-0.5-0.5-0.7-0.8c-0.6-0.6-1.6-0.5-2.2,0.1
	c-0.1,0.2-0.3,0.4-0.3,0.6c-0.2,0.7-0.2,1.5-0.2,2.2c0.1,1.8,0.5,3.5,1.1,5.2c0.2,0.4,0.4,0.8,0.6,1.2c0.2,0.4,0.5,0.8,0.7,1.2
	L26.4,136.4z M34.4,123.2c0.1,0,0.2,0,0.3,0c1.3-0.3,2.5-1,3.5-1.9c0.5-0.4,0.9-1.1,0.9-1.8c0.1-1.2-0.5-2.3-1.6-2.9
	c-0.8-0.4-1.7-0.6-2.6-0.6h-0.6C34.9,118.4,34.9,120.8,34.4,123.2L34.4,123.2z"/>
<path class="st0" d="M55,112.6h9.8c0,0.2,0,0.4,0,0.7c-0.1,1.5,0,2.9,0.2,4.4c0.2,1.3,0.6,2.6,1.1,3.9c1.1,3,2.3,6,3.7,9
	c0.9,1.9,1.8,3.9,2.7,5.8v0.2h-8c-0.1-0.5-0.2-1.1-0.4-1.6c-0.4-1.8-1-3.5-1.9-5.1c-0.4-0.8-1.1-1.4-2-1.5c-1.1-0.2-2.2,0.1-3,0.8
	c-0.5,0.6-0.8,1.3-0.9,2c-0.1,1.5-0.1,3,0.2,4.4l0.1,1h-8.1c0.1-0.4,0.3-0.9,0.4-1.3c1.3-3.7,2.7-7.4,3.9-11
	c0.8-2.1,1.4-4.3,1.9-6.5c0.3-1.1,0.4-2.2,0.4-3.3c0-0.5-0.1-1-0.2-1.5L55,112.6z M62.8,125.4L62.8,125.4c-1.5-2-2.7-4.2-3.2-6.7
	c-0.4,2.4-1.2,4.6-2.5,6.7H62.8z"/>
<path class="st0" d="M194.8,136.5l0.7-1.8c0.8-2.1,1.4-4.3,1.7-6.5c0.2-1.5,0.3-3,0.1-4.5c-0.3-3.1-0.9-6.2-1.9-9.2l-0.6-2h16.4
	c0.2,0,0.3,0,0.3,0.3c0.5,2.4,1.1,4.9,1.6,7.3c0,0,0,0.1,0,0.1c-0.2,0-0.4-0.1-0.6-0.1l-3.5-1.4c-1.5-0.7-3-1.2-4.5-1.6
	c-0.5-0.2-1.1-0.2-1.6-0.1c-0.2,0-0.4,0.1-0.5,0.3c-0.6,0.5-1.1,1.2-1.4,2c-0.1,0.2-0.1,0.4-0.2,0.7c-0.2,0.8,0.3,1.6,1.1,1.8
	c0.6,0.2,1.2,0.3,1.8,0.3c0.9,0,1.9-0.2,2.8-0.4h0.1v4.7l-1.1-0.3c-0.9-0.3-1.9-0.5-2.8-0.6c-0.2,0-0.4,0-0.6,0
	c-0.3,0-0.6,0.3-0.7,0.6c-0.5,1.5-0.5,3.2,0,4.7c0.3,0.8,1.1,1.2,1.9,1.1c1.2-0.2,2.4-0.6,3.4-1.2c1.4-0.7,2.8-1.3,4.3-2
	c0.5-0.2,1.1-0.4,1.6-0.6c0.1,0,0.3,0,0.4,0l-0.6,2.8c-0.4,1.8-0.7,3.7-1.1,5.5c0,0.2-0.1,0.2-0.3,0.2L194.8,136.5L194.8,136.5z"/>
<path class="st0" d="M95.6,112.6h16.3c0.2,0,0.3,0,0.4,0.3c0.5,2.5,1.1,4.9,1.6,7.4c-0.2,0-0.4-0.1-0.6-0.2l-3.3-1.3
	c-1.5-0.7-3-1.2-4.6-1.7c-0.4-0.1-0.8-0.1-1.1-0.1c-0.4,0-0.9,0.1-1.1,0.5c-0.6,0.6-1.1,1.3-1.3,2.1c-0.4,0.8,0,1.8,0.9,2.2
	c0.1,0,0.2,0.1,0.2,0.1c0.6,0.2,1.1,0.3,1.7,0.2c1-0.1,1.9-0.2,2.9-0.4v4.6c-0.3-0.1-0.6-0.2-0.9-0.3c-0.9-0.2-1.8-0.4-2.7-0.6
	c-0.3,0-0.6,0-0.9,0c-0.3,0-0.6,0.3-0.7,0.6c-0.4,1.4-0.5,2.9-0.1,4.3c0.1,0.3,0.2,0.6,0.4,0.9c0.3,0.5,0.9,0.7,1.5,0.6
	c1.1-0.2,2.2-0.6,3.1-1.1c1.4-0.7,2.8-1.3,4.3-2c0.6-0.3,1.3-0.5,2-0.7c0.1,0,0.3,0,0.4,0l-0.4,1.8c-0.4,2.1-0.9,4.3-1.3,6.5
	c0,0.2-0.1,0.2-0.3,0.2H95.6c0.1-0.4,0.3-0.8,0.4-1.1c0.8-1.9,1.4-3.9,1.8-5.9c0.4-1.8,0.5-3.7,0.3-5.6c-0.3-3.1-0.9-6.1-1.9-9.1
	l-0.5-1.8C95.6,112.8,95.6,112.7,95.6,112.6z"/>
<path class="st0" d="M26.2,123.2c-0.5-0.5-1.1-1-1.6-1.5c-0.8-0.8-1.6-1.7-2.4-2.6c-0.5-0.6-1.3-0.9-2.1-0.7c-0.4,0.1-0.7,0.4-1,0.7
	c-0.5,0.8-0.7,1.7-0.7,2.6c0,1.7,0.2,3.4,0.6,5c0.8,3.2,1.7,6.3,2.8,9.3l0.1,0.3H9.7l0.5-1.1c1.4-3.3,2.4-6.7,3.1-10.2
	c0.2-1.2,0.4-2.4,0.4-3.6c0-0.8-0.2-1.7-0.7-2.4c-0.3-0.7-1.1-1-1.7-0.7c0,0-0.1,0-0.1,0c-0.6,0.1-1.2,0.5-1.7,0.9l-2,2l-1.9,1.7
	l0,0l0.3-0.8c1.3-3.2,2.5-6.3,3.8-9.5c0.1-0.2,0.2-0.3,0.5-0.3h12.1c0.2,0,0.3,0.1,0.3,0.2c1.2,3.4,2.4,6.7,3.6,10.1L26.2,123.2
	L26.2,123.2z"/>
<path class="st0" d="M147.4,128.8l9.9-5.1v0.1l-0.5,0.5c-0.4,0.5-0.8,1-1,1.6c-0.4,1-0.1,2.1,0.7,2.8c1,0.8,2.2,1,3.4,0.7
	c0.5-0.1,0.9-0.4,1.1-0.8c0.9-1.1,1.4-2.4,1.7-3.8c0.3-1.5,0.2-3-0.2-4.4c-0.7-2.4-1.9-4.6-3.6-6.5c-0.4-0.5-0.9-0.9-1.3-1.3h15.2
	l-0.2,0.2c-2.6,1.7-4.3,4.3-4.9,7.4c-0.4,1.7-0.5,3.4-0.4,5.2c0.1,1.5,0,3.1-0.4,4.6c-0.5,2-1.7,3.8-3.4,5c-0.8,0.6-1.6,1.1-2.5,1.5
	c-2.4,0.9-5.1,0.3-6.9-1.4c-0.7-0.7-1.3-1.6-1.8-2.5c-1-1.7-2.6-3-4.5-3.5L147.4,128.8L147.4,128.8z"/>
<path class="st0" d="M219.1,121.5l0.5-1.8c0.1-0.4,0.2-0.9,0.3-1.3c0.1-0.1,0-0.3-0.1-0.4c-1-0.7-1.8-1.6-2.4-2.7
	c-0.6-0.9-0.6-2.2,0-3.1c0.6-1,1.7-1.5,2.9-1.3c1.3,0.1,2.4,0.7,3.2,1.8c0.4,0.6,0.6,1.4,0.4,2.1c-0.2,0.8-0.5,1.6-1,2.3
	c-1,1.6-2.2,3-3.5,4.3L219.1,121.5z"/>
</svg>
