<?xml version="1.0" encoding="utf-8"?>
<!-- Generator: Adobe Illustrator 21.1.0, SVG Export Plug-In . SVG Version: 6.00 Build 0)  -->
<svg version="1.1" id="Layer_1" xmlns="http://www.w3.org/2000/svg" xmlns:xlink="http://www.w3.org/1999/xlink" x="0px" y="0px"
	 viewBox="0 0 250 250" style="enable-background:new 0 0 250 250;" xml:space="preserve">
<style type="text/css">
	.st0{fill:#EE1B2E;}
	.st1{fill:#0060AA;}
</style>
<title>CR</title>
<path class="st0" d="M108.3,151.9H97c-0.7,0-1.3,0-2,0c-0.5,0-0.5-0.1-0.4-0.5c1.2-3.8,2.4-7.5,3.6-11.3c2.6-8.2,5.2-16.4,7.8-24.5
	c1-3,1.9-6,2.9-9.1c1.1-3.6,2.3-7.2,3.5-10.8c1.3-4,2.6-8.1,3.8-12.1c0.1-0.4,0.4-0.7,0.9-0.7c0,0,0,0,0,0c3.8,0,7.5,0,11.3,0
	c3.8,0,7.3-0.1,10.9,0c0.5,0,0.7-0.2,0.9-0.6c2.2-7.2,4.5-14.3,6.7-21.5c0.5-1.7,1.1-3.4,1.6-5.2c0-0.3,0.3-0.6,0.7-0.5c0,0,0,0,0,0
	c3,0,6,0,9,0c0.5,0,0.7,0.2,0.9,0.6c2.5,8.4,5.1,16.8,7.7,25.2c2.2,7.1,4.4,14.3,6.6,21.4c2,6.5,4,13,6,19.5l9,29.5
	c0.2,0.6,0.2,0.6-0.4,0.6h-24.5c-0.7,0-1.4,0-2,0s-0.7-0.2-0.8-0.6c-1.6-5.1-3.3-10.3-4.9-15.4c-0.1-0.4-0.5-0.7-0.9-0.7
	c0,0,0,0,0,0c-3.6,0-7.1,0-10.7,0H128c-0.9,0-0.9,0-1.3,0.9c-0.8,2.4-1.6,4.7-2.5,7.1c-0.9,2.7-1.9,5.4-2.8,8.1
	c-0.1,0.5-0.5,0.8-1,0.7C116.5,151.9,112.4,151.9,108.3,151.9z M141.3,91.1c-0.2,0.1-0.2,0.3-0.2,0.5c-2,5.8-4,11.7-6,17.5
	c-0.2,0.5-0.1,0.6,0.4,0.6c4,0,8.1,0,12.1,0c0.6,0,0.6,0,0.4-0.6l-6.4-17.6C141.4,91.3,141.4,91.2,141.3,91.1L141.3,91.1z"/>
<path class="st1" d="M125.4,80.3c-3.7,0-7.5,0-11.2,0c-0.4-0.1-0.9,0.2-0.9,0.7c0,0,0,0,0,0c-1.6,5.1-3.2,10.3-4.9,15.4
	c-2.4,7.6-4.9,15.2-7.3,22.8c-3.5,10.8-6.9,21.6-10.4,32.5c-0.1,0.4-0.4,0.7-0.8,0.6c0,0,0,0,0,0H63.4c-0.6,0-0.6,0-0.4-0.6
	l13.4-43.4c1.7-5.6,3.4-11.1,5.2-16.7c1-3.2,1.9-6.5,3-9.8c0.1-0.4,0.2-0.9,0.3-1.3c0.1-0.4,0-0.4-0.4-0.4H62.3
	c-0.8,0-0.8,0-0.5-0.8c2.5-7.9,5.1-15.8,7.6-23.8c0.1-0.4,0.4-0.6,0.8-0.6c24.7,0,49.3,0,74,0c0.6,0,0.6,0.2,0.4,0.6
	c-1.4,4.8-2.8,9.5-4.3,14.3c-1,3.2-1.9,6.5-2.8,9.7c0,0.4-0.4,0.7-0.9,0.7c0,0,0,0,0,0c-3.8,0-7.5,0-11.3,0L125.4,80.3z"/>
<path d="M65.5,160.4h-3.9V159h9.5v1.4h-3.9v11.5h-1.7V160.4z"/>
<path d="M71.6,165.5c0-1.1,0-2-0.1-2.9H73v1.8h0.1c0.3-1.2,1.3-2,2.5-2c0.2,0,0.3,0,0.5,0v1.6c-0.2,0-0.4,0-0.6,0
	c-1.2,0-2.2,1-2.3,2.2c0,0.3-0.1,0.5-0.1,0.8v4.9h-1.6V165.5z"/>
<path d="M82.9,171.9l-0.1-1.2l0,0c-0.7,0.9-1.7,1.4-2.9,1.4c-1.5,0.1-2.7-1-2.8-2.4c0-0.1,0-0.1,0-0.2c0-2.2,2-3.5,5.6-3.4v-0.3
	c0.1-1-0.6-2-1.7-2.1c-0.1,0-0.3,0-0.4,0c-0.9,0-1.7,0.2-2.4,0.7l-0.4-1.1c0.9-0.6,2-0.8,3-0.8c2.8,0,3.5,1.9,3.5,3.8v3.5
	c0,0.7,0,1.5,0.2,2.2L82.9,171.9z M82.7,167.1c-1.8,0-3.9,0.3-3.9,2.1c-0.1,0.8,0.5,1.5,1.4,1.6c0.1,0,0.2,0,0.2,0
	c1,0,1.9-0.6,2.2-1.6c0.1-0.2,0.1-0.4,0.1-0.5L82.7,167.1z"/>
<path d="M87.5,162.6l1.8,5.2c0.3,0.8,0.5,1.6,0.8,2.4l0,0c0.2-0.8,0.5-1.5,0.8-2.4l1.8-5.2h1.8l-3.6,9.3h-1.6l-3.5-9.3H87.5z"/>
<path d="M96.8,167.5c-0.1,1.6,1.1,3.1,2.7,3.2c0.2,0,0.3,0,0.5,0c0.9,0,1.7-0.1,2.5-0.5l0.3,1.2c-1,0.4-2,0.6-3.1,0.6
	c-2.4,0.1-4.4-1.7-4.6-4c0-0.2,0-0.4,0-0.6c0-2.8,1.6-5,4.3-5c3,0,3.8,2.7,3.8,4.4c0,0.3,0,0.5,0,0.8L96.8,167.5z M101.7,166.3
	c0.2-1.3-0.7-2.5-2-2.7c-0.1,0-0.2,0-0.3,0c-1.4,0.1-2.5,1.3-2.5,2.7H101.7z"/>
<path d="M105.4,158.3h1.7v13.6h-1.7L105.4,158.3z"/>
<path d="M123.1,171.4c-1.1,0.4-2.2,0.6-3.4,0.6c-3.3,0.2-6.2-2.3-6.4-5.6c0-0.3,0-0.6,0-0.9c-0.2-3.5,2.4-6.5,5.9-6.8
	c0.3,0,0.5,0,0.8,0c1,0,2.1,0.2,3.1,0.6l-0.4,1.4c-0.8-0.4-1.7-0.5-2.5-0.5c-3,0-5.1,1.9-5.1,5.3c0,3.2,1.8,5.2,5,5.2
	c0.9,0,1.9-0.2,2.7-0.5L123.1,171.4z"/>
<path d="M125.8,167.5c-0.1,1.6,1.1,3.1,2.7,3.2c0.2,0,0.3,0,0.5,0c0.9,0,1.7-0.1,2.5-0.5l0.3,1.2c-1,0.4-2,0.6-3,0.6
	c-2.4,0.1-4.4-1.7-4.6-4c0-0.2,0-0.4,0-0.6c0-2.8,1.6-5,4.3-5c3,0,3.8,2.7,3.8,4.4c0,0.3,0,0.5,0,0.8L125.8,167.5z M130.8,166.3
	c0.2-1.3-0.7-2.5-2-2.7c-0.1,0-0.2,0-0.3,0c-1.4,0.1-2.5,1.3-2.5,2.7H130.8z"/>
<path d="M134.5,165.1c0-1,0-1.7-0.1-2.5h1.5l0.1,1.5l0,0c0.6-1.1,1.8-1.8,3.1-1.7c1.3,0,3.3,0.8,3.3,3.9v5.5h-1.7v-5.3
	c0-1.5-0.6-2.7-2.1-2.7c-1,0-2,0.7-2.3,1.7c-0.1,0.3-0.1,0.5-0.1,0.8v5.6h-1.7L134.5,165.1z"/>
<path d="M147,159.9v2.7h2.4v1.3H147v5c0,1.1,0.3,1.8,1.3,1.8c0.3,0,0.7,0,1-0.1l0.1,1.3c-0.5,0.2-1,0.3-1.5,0.3
	c-0.7,0-1.3-0.2-1.8-0.7c-0.5-0.7-0.7-1.6-0.6-2.4v-5.1H144v-1.3h1.4v-2.2L147,159.9z"/>
<path d="M152.2,167.5c-0.1,1.6,1.1,3.1,2.7,3.2c0.2,0,0.3,0,0.5,0c0.9,0,1.7-0.1,2.5-0.5l0.3,1.2c-1,0.4-2,0.6-3.1,0.6
	c-2.4,0.1-4.4-1.7-4.6-4c0-0.2,0-0.4,0-0.6c0-2.8,1.6-5,4.3-5c3,0,3.8,2.7,3.8,4.4c0,0.3,0,0.5,0,0.8L152.2,167.5z M157.1,166.3
	c0.2-1.3-0.7-2.5-2-2.7c-0.1,0-0.2,0-0.3,0c-1.4,0.1-2.5,1.3-2.5,2.7H157.1z"/>
<path d="M160.8,165.5c0-1.1,0-2-0.1-2.9h1.5v1.8h0.1c0.3-1.2,1.3-2,2.5-2c0.2,0,0.3,0,0.5,0v1.6c-0.2,0-0.4,0-0.6,0
	c-1.2,0-2.2,1-2.3,2.2c0,0.3-0.1,0.5-0.1,0.8v4.9h-1.7L160.8,165.5z"/>
<path d="M166.8,170.1c0.7,0.4,1.4,0.7,2.2,0.7c1.3,0,1.8-0.6,1.8-1.4c0-0.8-0.5-1.3-1.7-1.7c-1.7-0.6-2.4-1.5-2.4-2.6
	c0.1-1.6,1.4-2.8,3-2.7c0.1,0,0.2,0,0.2,0c0.8,0,1.6,0.2,2.3,0.6l-0.4,1.3c-0.6-0.4-1.2-0.5-1.9-0.5c-1,0-1.6,0.6-1.6,1.3
	s0.6,1.1,1.8,1.6c1.6,0.6,2.4,1.4,2.4,2.8c0,1.6-1.3,2.8-3.5,2.8c-0.9,0-1.8-0.2-2.5-0.6L166.8,170.1z"/>
<path d="M84.3,190.1c0.2,2.5-1.6,4.7-4.1,4.9c-0.2,0-0.4,0-0.5,0c-2.4,0-4.4-1.9-4.5-4.4c0-0.1,0-0.3,0-0.4
	c-0.2-2.5,1.6-4.7,4.1-4.9c0.2,0,0.3,0,0.5,0c2.4-0.1,4.4,1.8,4.5,4.3C84.3,189.8,84.3,189.9,84.3,190.1z M76.9,190.2
	c0,2,1.2,3.6,2.8,3.6c1.6,0,2.8-1.5,2.8-3.6c0-1.6-0.8-3.6-2.8-3.6S76.9,188.4,76.9,190.2L76.9,190.2z"/>
<path d="M86.5,194.8v-8h-1.3v-1.3h1.3v-0.4c-0.1-1.2,0.3-2.3,1.1-3.2c0.6-0.6,1.4-0.9,2.3-0.9c0.5,0,1,0.1,1.4,0.3l-0.2,1.3
	c-0.3-0.1-0.7-0.2-1.1-0.2c-1.4,0-1.8,1.3-1.8,2.7v0.5h2.2v1.3h-2.3v8L86.5,194.8z"/>
<path d="M98.1,190.7l-1.3,4.1h-1.7l4.4-12.9h2l4.4,12.9h-1.8l-1.4-4.1L98.1,190.7z M102.4,189.5l-1.3-3.7c-0.3-0.8-0.5-1.6-0.7-2.4
	l0,0c-0.2,0.8-0.4,1.6-0.6,2.3l-1.3,3.7L102.4,189.5z"/>
<path d="M107.6,188c0-1,0-1.7-0.1-2.5h1.5l0.1,1.5l0,0c0.6-1.1,1.7-1.7,2.9-1.7c1.2,0,2.2,0.7,2.6,1.9l0,0c0.3-0.5,0.6-0.9,1-1.2
	c0.6-0.4,1.3-0.7,2-0.6c1.3,0,3,0.8,3,4v5.4h-1.6v-5.2c0-1.8-0.6-2.9-2-2.9c-0.9,0-1.7,0.7-2,1.5c-0.1,0.3-0.1,0.6-0.1,0.8v5.7h-1.6
	v-5.6c0-1.5-0.6-2.5-1.9-2.5c-1.3,0.2-2.2,1.3-2.2,2.5v5.6h-1.6L107.6,188z"/>
<path d="M124.5,190.5c-0.1,1.6,1.1,3.1,2.7,3.2c0.2,0,0.3,0,0.5,0c0.9,0,1.7-0.1,2.5-0.5l0.3,1.2c-0.9,0.4-2,0.6-3,0.6
	c-2.4,0.1-4.4-1.7-4.6-4c0-0.2,0-0.4,0-0.6c0-2.8,1.6-5,4.3-5c3,0,3.8,2.7,3.8,4.4c0,0.3,0,0.5,0,0.8L124.5,190.5z M129.5,189.3
	c0.2-1.3-0.7-2.5-2-2.7c-0.1,0-0.2,0-0.3,0c-1.4,0.1-2.5,1.3-2.5,2.7H129.5z"/>
<path d="M133.2,188.4c0-1.1,0-2-0.1-2.9h1.5v1.8h0.1c0.3-1.2,1.3-2,2.5-2c0.2,0,0.3,0,0.5,0v1.6c-0.2,0-0.4,0-0.6,0
	c-1.2,0-2.2,1-2.3,2.2c0,0.3-0.1,0.5-0.1,0.8v4.9h-1.7L133.2,188.4z"/>
<path d="M141.4,182.9c0,0.6-0.5,1-1,1c-0.6,0-1-0.5-1-1c0-0.6,0.4-1,1-1.1c0,0,0,0,0.1,0c0.5,0,1,0.4,1,1
	C141.4,182.9,141.4,182.9,141.4,182.9z M139.5,194.8v-9.3h1.7v9.3H139.5z"/>
<path d="M150.6,194.5c-0.8,0.4-1.8,0.6-2.7,0.6c-2.4,0.1-4.5-1.7-4.6-4.2c0-0.2,0-0.4,0-0.6c-0.1-2.6,1.9-4.8,4.5-4.9
	c0.2,0,0.3,0,0.5,0c0.8,0,1.6,0.2,2.3,0.5l-0.4,1.3c-0.6-0.3-1.3-0.5-1.9-0.4c-1.9,0.1-3.4,1.8-3.3,3.7c0.1,1.8,1.5,3.2,3.3,3.3
	c0.7,0,1.4-0.2,2.1-0.5L150.6,194.5z"/>
<path d="M157.7,194.8l-0.1-1.2l0,0c-0.7,0.9-1.8,1.4-2.9,1.4c-1.5,0.1-2.7-1-2.8-2.4c0-0.1,0-0.1,0-0.2c0-2.2,2-3.5,5.6-3.4v-0.2
	c0.1-1-0.6-2-1.7-2.1c-0.1,0-0.3,0-0.4,0c-0.9,0-1.7,0.2-2.4,0.7l-0.4-1.1c0.9-0.6,2-0.8,3-0.8c2.8,0,3.5,1.9,3.5,3.8v3.5
	c0,0.7,0,1.5,0.2,2.2L157.7,194.8z M157.4,190.1c-1.8,0-3.9,0.3-3.9,2.1c-0.1,0.8,0.5,1.5,1.4,1.6c0.1,0,0.2,0,0.2,0
	c1,0,1.9-0.6,2.2-1.6c0.1-0.2,0.1-0.4,0.1-0.5L157.4,190.1z"/>
</svg>
