<?xml version="1.0" encoding="utf-8"?>
<!-- Generator: Adobe Illustrator 21.1.0, SVG Export Plug-In . SVG Version: 6.00 Build 0)  -->
<svg version="1.1" id="Layer_1" xmlns="http://www.w3.org/2000/svg" xmlns:xlink="http://www.w3.org/1999/xlink" x="0px" y="0px"
	 viewBox="0 0 250 250" style="enable-background:new 0 0 250 250;" xml:space="preserve">
<style type="text/css">
	.st0{fill:#D02348;}
	.st1{fill:#146A4F;}
</style>
<title>Grocery</title>
<path class="st0" d="M167.6,137.9c-1.3,1.1-2.4,1.9-3.5,2.7c-4.2,3.3-9.5,4.9-14.8,4.3c-3.9-0.2-7.3-2.8-8.6-6.4
	c-0.8-2.1-1.5-1.6-2.6-0.3c-2.1,2.6-4.8,4.7-7.9,6.1c-8,3.7-14.4,1.7-18.7-6c-1,0.1-1.2,1.1-1.7,1.7c-2.1,2.8-5.2,4.6-8.6,5.2
	c-3.2,0.8-6.5-0.9-7.7-4c-0.6-1.3-1-1.1-1.8-0.2c-1.5,2-3.6,3.4-6,4.1c-5,1.5-7.9-0.1-9.9-5.6c-1,0.1-1.3,1.1-1.9,1.7
	c-3.2,2.9-6.8,4.9-11.2,3.8c-2.8-0.4-4.7-3-4.3-5.8c0.1-0.6,0.3-1.2,0.6-1.8c1.7-3.6,3.7-7,5.5-10.5c0.3-0.5,0.9-1,0.3-1.6
	c-0.6-0.6-1.3-0.1-1.9,0.3c-2,1.7-3.8,3.7-5.3,5.8c-3.4,4.7-7.2,8.9-11.6,12.6c-1.1,0.9-2.2,2.2-3.8,0.5s0-2.6,1.1-3.5
	c4.9-4,9.3-8.6,13-13.8c1.1-1.4,1.6-3.2,1.4-4.9c-0.3-3.9,1.9-7.6,5.5-9.1c3-1.2,4.8,0,4.9,3.2c0,1.4,0.7,1.8,1.8,2
	c1.6,0.3,3.1-0.3,4.7-0.3c3.1,0,3.7,0.9,2.2,3.6c-1.7,3.1-3.5,6.1-5.1,9.2c-0.5,1-1.4,2.3-0.3,3.4c1.1,0.9,2.5,1,3.7,0.4
	c1.7-0.7,3.2-1.9,4.3-3.4c3.2-3.8,5.8-8,7.7-12.6c0.3-1.3,1.6-2.1,2.9-1.9c0,0,0,0,0,0c1.8,0.1,3.7,0.1,5.5,0
	c1.8-0.1,2.2,0.4,1.3,2.1c-2.4,4.3-4.7,8.6-7.1,13c-0.6,1.1-1.6,2.4-0.2,3.5s2.7,0.1,3.8-0.8c2-1.7,3.7-3.8,4.9-6.2
	c1.7-3.2,3.5-6.3,4.9-9.6c0.4-1.4,1.8-2.2,3.2-2c1.8,0.1,3.7,0,5.5,0.1c3,0,3,0.1,1.6,2.8c-2.3,4.3-4.6,8.5-6.9,12.8
	c-0.5,0.9-1.2,2,0,2.8c1.2,0.8,1.8-0.2,2.6-0.7c2.1-1.5,3-3.8,4-6.1c2.6-6.2,7.9-10.8,14.4-12.7c2.4-0.7,4.9-0.8,7.3-0.3
	c2.6,0.3,4.8,2.1,5.7,4.6c1,3,0.7,6.3-0.9,9c-0.4,0.8-1.2,0.6-1.9,0.7c-1.9,0-3.9,0-6.1,0c0.7-1.9,2.1-3.2,2.2-5.1
	c0.2-2.6-0.9-3.7-3.4-3.2c-3.6,0.8-6.6,3.1-8.3,6.4c-0.9,1.6-1.6,3.3-2.2,5.1c-1.3,3.9,1,6.8,5,6.4c5-0.5,9.6-2.8,12.9-6.6
	c2.3-2.7,4.4-5.5,6.3-8.5c3.7-5.5,9-8.3,15.4-9.2c7.9-1.1,13,4.8,10.4,11.9c-0.6,1.7-1.5,2.9-3.6,2.7c-1.7-0.1-3.3-0.1-5,0
	c0.7-1.4,1.3-2.7,2-3.9c0.6-1,0.5-2.3-0.2-3.2c-0.8-1.1-2.3-1.5-3.6-1.1c-1,0.2-1.9,0.6-2.7,1.2c-3.5,2.4-6,6.1-7,10.2
	c-1.1,4.5,1.3,7.2,5.9,6.9c4.4-0.4,8.6-2.3,11.7-5.5c3.7-3.5,6.9-7.5,9.3-12c2.7-4.8,5.3-9.5,7.8-14.4c1.3-2.6,2.9-4.3,6.1-3.7
	c1.9,0.2,3.8,0.2,5.7,0c-2.5,4.8-5.4,9.1-7.5,14.4c1.6-0.9,3.3-1.8,5-2.5c1.9-0.6,3.9-0.8,5.5,0.7c1.5,1.5,2.2,3.6,1.6,5.7
	c-0.9,3.8-3.5,6.7-5,10.2c-0.3,0.8-1.4,1.7-0.5,2.6s2,0,2.8-0.5c2.8-1.6,5.1-3.9,6.7-6.7c1.6-2.4,2.9-5,4.1-7.7
	c0.7-2.5,3.1-4,5.6-3.5c1.8,0.2,4.7-0.3,5.2,0.6c0.8,1.4-1.2,3.2-2.1,4.7c-2.4,4-4.6,8.1-6.4,12.4c-0.2,0.5-0.8,1.1-0.3,1.7
	c0.5,0.6,1.3,0,1.9-0.3c4.2-2.7,8.1-5.9,11.7-9.5c2.7-2.5,5.3-4.9,7.8-7.5c1.4-1.6,3.7-2,5.5-1c4.7,1.7,7.6,6.5,6.9,11.5
	c-1.5,9.3-9.3,16.3-18.7,16.9c-2.3,0.2-4.6-0.4-6.6-1.6c-1.4-0.6-2.2-2.1-2-3.7c0.3-1.5,1.6-2.7,3.1-2.8c1.4-0.2,2.8-0.4,4.2-0.4
	c5.2,0,9.6-5.6,8.7-11.1c-0.1-0.9-0.2-2-1-2.3c-1-0.4-1.4,0.8-2,1.3c-6,6.5-12.7,12.3-20,17.2c-5,3.3-8.3,2.5-11.1-2.7
	c-0.8-1.5-1.4-0.5-1.9,0c-1.3,1.6-2.8,2.9-4.6,3.9c-1.7,0.9-3.7,1.3-5.6,1c-3.3-0.4-4.9-2.7-4.3-5.9c0.6-2.5,1.6-4.9,3-7
	c1.1-1.8,2-3.7,2.7-5.7c0.2-0.6,0.4-1.3-0.2-1.7c-0.6-0.4-1.4-0.4-1.9,0.2c-1.7,1.4-3.3,3-4.5,4.8c-2.7,3.8-5,7.9-6.9,12.1
	c-0.8,1.6-1.6,2.5-3.6,2.3c-1.8-0.1-3.6-0.1-5.3,0.1c-2.2,0.2-1.9-0.7-1.2-2.1C166,141,167.3,140.1,167.6,137.9z"/>
<path class="st0" d="M30.6,116.8c-2.1,4.6-5.7,6.5-9.7,7.6c-7.6,2.2-14.3-1.8-15.7-9.1c-0.5-2.7,0.1-5.5,1.6-7.8
	c5-8.5,12.8-12.5,22.3-13.7c8.2-0.9,16.4,0.1,24.2,2.9c10.2,3.7,20.9,5.8,31.7,6.2c7.7,0.2,15.3-0.4,22.7-3.9
	c0.1,1.9-1.1,2.8-2.2,3.6c-5.2,3.8-11.2,5.4-17.4,6.3c-10.2,1.4-20.4,0.3-30.5-1.2c-1.6-0.4-3.3,0.4-3.9,2
	c-8,14.7-16.2,29.3-24.2,44c-1.2,2.1-2.5,3.1-4.9,2.8c-2.1-0.1-4.2-0.1-6.2,0c0.3-1.4,0.9-2.7,1.7-3.9c7.8-14.3,15.6-28.7,23.5-42.9
	c1.7-3.1,1.6-3.1-1.8-3.6c-4.2-0.8-8.4-0.9-12.6-0.5c-3.5,0.3-6.6,2.2-8.6,5.1c-1,1.5-2.2,3.2-0.8,5.1c1.2,1.8,3.4,2.8,5.5,2.4
	C27,117.9,28.8,117.4,30.6,116.8z"/>
<path class="st1" d="M223.6,120.2c-2.3-3.6-4-7.1-6.8-10.5c1.2,0.2,2.4,0.3,3.5,0.3c3.4-0.5,5.8-3.6,5.4-7c0-0.1,0-0.2-0.1-0.3
	c-0.6-2.8,0.4-4.1,3.3-4c2.6-0.1,5.1,1.4,6.1,3.8c1.1,2.6,0.9,5.3-1.2,7.1C230.1,112.8,226.7,116.4,223.6,120.2z"/>
<path class="st0" d="M218.9,108.5c-3.2,0-5.7-2.6-5.7-5.8c0-3,2.4-5.4,5.3-5.6c3.2-0.1,5.8,2.4,5.9,5.6c0,0.1,0,0.2,0,0.3
	C224.3,105.9,221.9,108.3,218.9,108.5z"/>
<path class="st0" d="M37.3,153.3c1.5-1.6,3.7-2.5,5.9-2.4c11.3,0.1,22.7,0,34,0c0.3,0,0.7,0,1.1,0c0.8,0.1,1.9-0.3,1.9,1.1
	c0.1,1.4-1.1,1.3-2,1.3H37.3z"/>
<path class="st0" d="M228.6,153.3h-41.1c-0.8,0-1.7,0.1-1.7-1.1s0.9-1.3,1.8-1.3H224C225.9,150.9,227.2,152.1,228.6,153.3z"/>
<path class="st1" d="M232.4,156.3h-46.4c-0.8,0-1.7,0.1-1.7-1.1c0-1.2,1-1.1,1.7-1.1c13.9,0,27.8,0,41.7,0
	C229.5,154.3,231.2,155,232.4,156.3z"/>
<path class="st1" d="M30.7,156.3c1.6-1.4,3.6-2.2,5.7-2.2c13.3,0,26.6,0,39.9,0h1.3c0.7,0,1.2,0.2,1.2,1.1s-0.4,1.1-1.1,1.1
	L30.7,156.3L30.7,156.3z"/>
<path class="st1" d="M81.2,155.1c0.8,0.2,1.6,0.4,2.4,0.4c1,0,1.5-0.2,1.5-0.6s-0.5-0.6-1.6-0.8c-1.6-0.3-2.7-0.9-2.7-1.7
	s1.3-1.7,3.6-1.7c0.8,0,1.7,0.1,2.5,0.3l-0.5,1c-0.7-0.2-1.3-0.3-2-0.3c-0.9,0-1.3,0.3-1.3,0.5s0.5,0.5,1.8,0.8
	c1.7,0.4,2.5,0.9,2.5,1.7c0,0.8-1.2,1.8-3.9,1.8c-0.9,0-1.8-0.1-2.7-0.3L81.2,155.1z"/>
<path class="st1" d="M91,150.7v3.3c0,1,0.6,1.5,1.7,1.5c1.1,0,1.8-0.5,1.8-1.5v-3.3h2.2v3.2c0,1.8-1.5,2.6-4,2.6s-3.9-0.8-3.9-2.7
	v-3.2L91,150.7z"/>
<path class="st1" d="M98.6,150.8c0.7-0.1,1.6-0.1,2.9-0.1c1-0.1,2,0.1,2.9,0.5c0.8,0.2,1.2,1,1,1.7c-0.1,0.4-0.4,0.8-0.8,0.9
	c-1,0.4-2,0.7-3.1,0.6h-0.7v2h-2.2L98.6,150.8z M100.8,153.4c0.2,0,0.5,0,0.7,0c1.2,0,1.9-0.3,1.9-0.9c0-0.6-0.6-0.8-1.7-0.8
	c-0.3,0-0.6,0-0.9,0L100.8,153.4z"/>
<path class="st1" d="M112.6,154h-3.5v1.3h4v1.1H107v-5.7h5.9v1.1h-3.8v1.3h3.5L112.6,154z"/>
<path class="st1" d="M114.5,150.8c0.7-0.1,1.7-0.1,2.9-0.1c1.1-0.1,2.1,0.1,3.1,0.5c0.5,0.2,0.9,0.7,0.9,1.2c0,0.7-0.9,1.2-1.7,1.4
	l0,0c0.6,0.1,1.1,0.5,1.3,1.1c0.2,0.6,0.5,1.1,0.8,1.6h-2.2c-0.3-0.4-0.5-0.9-0.7-1.3c-0.3-0.7-0.7-0.9-1.6-0.9h-0.7v2.2h-2.2
	L114.5,150.8z M116.7,153.2h0.9c1.1,0,1.7-0.3,1.7-0.8s-0.6-0.8-1.6-0.8c-0.3,0-0.7,0-1,0L116.7,153.2z"/>
<path class="st1" d="M131.1,154.2c0-0.7-0.1-1.5-0.1-2.3l0,0c-0.3,0.8-0.7,1.5-1.1,2.2l-1.2,2.2h-1.7l-1-2.2
	c-0.3-0.7-0.6-1.5-0.9-2.2l0,0c0,0.8-0.1,1.7-0.2,2.4l-0.2,2.2h-2l0.6-5.7h2.9l0.9,1.9c0.3,0.7,0.6,1.3,0.8,2l0,0
	c0.3-0.7,0.6-1.4,0.9-2.1l1-1.9h2.8l0.5,5.7h-2.1L131.1,154.2z"/>
<path class="st1" d="M137.3,154.9l-0.7,1.5h-2.3l2.9-5.7h2.9l3,5.7h-2.3l-0.7-1.5H137.3z M139.7,154l-0.6-1.2
	c-0.2-0.3-0.3-0.8-0.5-1.1l0,0c-0.1,0.3-0.3,0.8-0.4,1.1l-0.6,1.2H139.7z"/>
<path class="st1" d="M144.4,150.8c0.7-0.1,1.7-0.1,2.9-0.1c1.1-0.1,2.1,0.1,3.1,0.5c0.5,0.2,0.9,0.7,0.9,1.2c0,0.7-0.9,1.2-1.7,1.4
	l0,0c0.6,0.1,1.1,0.5,1.3,1.1c0.2,0.6,0.5,1.1,0.8,1.6h-2.2c-0.3-0.4-0.5-0.9-0.7-1.3c-0.3-0.7-0.7-0.9-1.6-0.9h-0.7v2.2h-2.2
	L144.4,150.8z M146.6,153.2h0.9c1.1,0,1.7-0.3,1.7-0.8s-0.6-0.8-1.6-0.8c-0.3,0-0.7,0-1,0V153.2z"/>
<path class="st1" d="M152.9,150.7h2.2v2.5l0,0c0.2-0.2,0.4-0.4,0.7-0.6l2.2-1.9h2.7l-3.2,2.4l3.4,3.3h-2.5l-2.4-2.5l-0.8,0.6v1.9
	h-2.1V150.7z"/>
<path class="st1" d="M167.4,154h-3.5v1.3h4v1.1h-6.1v-5.7h5.9v1.1h-3.8v1.3h3.5L167.4,154z"/>
<path class="st1" d="M171.2,151.8h-2.6v-1.1h7.4v1.1h-2.7v4.6h-2.2L171.2,151.8z"/>
<path class="st1" d="M177.1,155.1c0.8,0.2,1.6,0.4,2.4,0.4c1,0,1.5-0.2,1.5-0.6s-0.5-0.6-1.6-0.8c-1.6-0.3-2.7-0.9-2.7-1.7
	s1.3-1.7,3.6-1.7c0.8,0,1.7,0.1,2.5,0.3l-0.5,1c-0.7-0.2-1.3-0.3-2-0.3c-0.9,0-1.3,0.3-1.3,0.5s0.5,0.5,1.8,0.8
	c1.7,0.4,2.5,0.9,2.5,1.7c0,0.8-1.2,1.8-3.9,1.8c-0.9,0-1.8-0.1-2.7-0.3L177.1,155.1z"/>
</svg>
