<?xml version="1.0" encoding="utf-8"?>
<!-- Generator: Adobe Illustrator 21.1.0, SVG Export Plug-In . SVG Version: 6.00 Build 0)  -->
<svg version="1.1" id="Layer_1" xmlns="http://www.w3.org/2000/svg" xmlns:xlink="http://www.w3.org/1999/xlink" x="0px" y="0px"
	 viewBox="0 0 250 250" style="enable-background:new 0 0 250 250;" xml:space="preserve">
<style type="text/css">
	.st0{fill:#BFBFBF;}
	.st1{fill:#FDFDFD;}
	.st2{fill:#E13929;}
	.st3{fill:#50A3DA;}
	.st4{fill:#4D6BB0;}
	.st5{fill:#EDB467;}
	.st6{fill:#ED1B2E;}
</style>
<title>CR</title>
<path class="st0" d="M185.9,99.8c0-3.2-0.9-6.3-2.7-9c-1.4-2.1-3.2-4-5.3-5.4c-8.5-5.8-16.8-11.7-25.2-17.5
	c-5.3-3.6-10.2-7.8-16-10.6c-2.6-1.2-5.4-1.9-8.2-2.1c-10.5-1.4-18.5,3.4-26.4,9.2c-9.5,7-19.3,13.7-29.1,20.2
	c-1.7,1.1-3.2,2.5-4.5,4c-2.7,3-4.3,7-4.2,11.1c0,2.7,0.7,5.4,1.9,7.7c1.6,3,4,5.6,6.8,7.5c9.8,6.6,19.6,13.4,29.1,20.4
	c7.9,5.9,15.9,10.7,26.4,9.3c2.8-0.2,5.6-1,8.2-2.1c5.8-2.9,10.7-7.1,16-10.7c8.5-5.8,16.8-11.8,25.2-17.6c2.9-2,5.2-4.7,6.6-7.8
	C185.4,104.4,185.9,102.1,185.9,99.8z M137.3,137.6c-7.7,5.2-17.9,5.1-25.5-0.3c-11.7-8.1-23.4-16.2-35.1-24.4h0.2
	c-1.9-1.2-3.7-2.7-5.4-4.3c-2.3-2.3-3.6-5.4-3.8-8.7c0.1-3.3,1.5-6.4,3.8-8.8c0.7-0.8,1.5-1.5,2.3-2.1l0.4-0.3l7.2-5l91.1,3.4
	c-8.3-5.7-16.6-11.5-24.9-17.3c8.3,5.7,16.6,11.5,24.9,17.3l0,0l0.3,0.2l2.2,1.5l0.8,0.6h0.1l0.5,0.4c3,2.4,4.9,6,5.2,9.9
	c0,0.1,0,0.2,0,0.2s0,0.2,0,0.2c-0.1,4-2.4,8-6.9,11.1l-34.9,1.4l33.4-0.1C161.4,120.9,149.4,129.3,137.3,137.6z"/>
<path class="st0" d="M139.9,112.5L77,112.8c1.1,0.7,2.1,1.4,3.2,2.1L139.9,112.5z"/>
<path class="st1" d="M125.1,58.5c5.1,0.2,10,1.9,14.1,5c11.8,8.5,23.7,16.7,35.6,24.9c9,6.2,9.2,16.3,0.4,22.7
	c-12.5,9-25.2,17.8-37.8,26.5c-7.7,5.2-17.9,5.1-25.5-0.3c-12.5-8.7-25-17.3-37.5-26.1c-7.5-5.3-8.8-13.5-2.8-20.2
	c2.4-2.6,5.6-4.5,8.5-6.5C90.8,77,101.5,69.4,112.3,62C116.1,59.5,120.5,58.3,125.1,58.5z M106,126.7c0.3,0.3,0.7,1,1.1,0.5
	c0.4-0.5-0.3-0.8-0.7-1c-0.4-0.5-0.8-0.9-1.3-1.4c-8.7-8.7-12.8-19-11.9-31.3c0.4-4.5,1.2-8.9,2.4-13.3c-6.9,4.9-13.4,9.1-19.5,13.9
	c-4.3,3.4-3.9,8.8,0.7,12.2C86.5,113.3,96.3,119.9,106,126.7z M96.3,79.8c9.5,4,18.7,7.8,28.7,9c9.5,1.5,19.2-1.7,26-8.4
	c1.3-1.2,1.1-1.8-0.3-2.7c-5.3-3.6-10.3-7.4-15.7-10.9c-6.2-4-12.8-4.5-19.2-0.4c-4.9,3.1-9.6,6.5-14.4,9.8
	C99.7,77.4,98.1,78.5,96.3,79.8z M176.7,99.7c-0.1-2.5-1.4-4.9-3.5-6.3c-5.3-3.8-10.7-7.5-16-11.3c-1.5-1.1-2.1-0.7-2.8,0.7
	c-6.4,11.5-6.2,23-0.2,34.6c0.7,1.4,1.4,1.6,2.7,0.6c5.3-3.8,10.7-7.5,16-11.3C175.2,105.2,176.6,102.6,176.7,99.7L176.7,99.7z
	 M152.7,120.7c-1.9-1.6-4-2.9-6.4-3.7c-5.5-2.2-11.1-3-16.7-0.8c-7.5,3-10.4,9.4-11.9,16.7c-0.3,1.6,0.6,2.1,1.8,2.4
	c5,1.3,10.1,1.2,14.6-1.7C140.2,129.6,146.3,125.2,152.7,120.7z"/>
<path class="st2" d="M96.3,79.8c1.9-1.3,3.4-2.5,5-3.6c4.8-3.3,9.5-6.7,14.4-9.8c6.4-4,13-3.6,19.2,0.4c5.3,3.5,10.4,7.3,15.7,10.9
	c1.4,1,1.6,1.5,0.3,2.7c-6.8,6.8-16.5,9.9-26,8.4C114.9,87.6,105.8,83.8,96.3,79.8z"/>
<path class="st3" d="M176.7,99.7c-0.1,2.8-1.5,5.5-3.9,7c-5.3,3.8-10.7,7.5-16,11.3c-1.3,0.9-1.9,0.7-2.7-0.6
	c-6-11.6-6.2-23.1,0.2-34.6c0.8-1.3,1.4-1.7,2.8-0.7c5.3,3.8,10.7,7.5,16,11.3C175.2,94.8,176.5,97.2,176.7,99.7z"/>
<path class="st4" d="M106,126.7c-9.7-6.7-19.5-13.4-29.1-20.3c-4.6-3.4-5-8.8-0.7-12.2c6.1-4.8,12.6-9.1,19.5-13.9
	c-1.2,4.3-2,8.8-2.4,13.3c-0.9,12.3,3.3,22.7,11.9,31.3c0.4,0.4,0.8,0.9,1.3,1.4L106,126.7z"/>
<path class="st5" d="M152.7,120.7c-6.4,4.5-12.4,8.8-18.7,12.9c-4.5,2.9-9.5,2.9-14.6,1.7c-1.2-0.3-2.2-0.8-1.8-2.4
	c1.6-7.3,4.5-13.7,11.9-16.7c5.6-2.2,11.2-1.5,16.7,0.8C148.6,117.9,150.8,119.1,152.7,120.7z"/>
<path class="st4" d="M106.4,126.2c0.4,0.2,1.1,0.6,0.7,1c-0.4,0.4-0.8-0.2-1.1-0.5L106.4,126.2z"/>
<path class="st6" d="M142.5,195c-0.9-0.2-1.9-0.4-2.8-0.5c-0.3,0-0.4-0.2-0.4-0.5c0-1.5,0-2.9,0-4.4c0-0.4,0.2-0.5,0.5-0.4
	s0.8,0.1,1.3,0.1c1.4,0.1,2.7-0.6,3.4-1.7c0.6-0.8,1-1.7,1.5-2.5c0.3-0.4,0.3-0.9,0-1.4c-2.4-4.6-4.7-9.2-7.1-13.8
	c-0.3-0.5-0.5-1.1-0.8-1.6c-0.1-0.3-0.2-0.5,0.2-0.5c2.2,0,4.5,0,6.8,0c0.5,0,0.6,0.4,0.7,0.6c1.3,2.5,2.5,5,3.8,7.5
	c0.1,0.2,0.1,0.4,0.4,0.5l1.7-3.2c0.8-1.6,1.7-3.2,2.5-4.9c0.1-0.4,0.5-0.6,0.9-0.5c2.1,0,4.3,0,6.4,0c0.7,0,0.6,0.2,0.4,0.7
	c-2.7,5.3-5.4,10.6-8.1,16c-1.1,2.4-2.5,4.7-4,6.9c-0.8,1.3-2,2.3-3.4,3.1c-0.7,0.3-1.4,0.4-2.1,0.6L142.5,195z"/>
<path class="st6" d="M24.2,158.5c0.3,0,0.6,0,0.9,0h21.8c0.9,0,0.9,0,0.9,0.9c0,1.6,0,3.1,0,4.7c0,0.5-0.1,0.7-0.7,0.7
	c-2.2,0-4.5,0-6.7,0c-0.6,0-0.8,0.2-0.8,0.8c0,6.6,0,13.2,0,19.8c0,0.9,0,0.9-0.9,0.9c-1.9,0-3.9,0-5.8,0c-0.6,0-0.7-0.2-0.7-0.8
	c0-6.6,0-13.2,0-19.8c0-1,0-1-0.9-1h-7.1L24.2,158.5z"/>
<path class="st6" d="M225.8,186.1h-7c-0.4,0-0.5-0.2-0.5-0.5c0-0.1,0-0.2,0-0.3c0-7.8,0-15.7,0-23.6c0-0.8,0.2-1.1,1-1.3
	c2.2-0.6,4.3-1.3,6.5-1.9L225.8,186.1z"/>
<path class="st6" d="M188.2,172.3c0,4.4,0,8.7,0,13.1c0,0.6-0.1,0.8-0.8,0.8c-2,0-4,0-6,0c-0.6,0-0.8-0.1-0.8-0.7c0-3.2,0-6.5,0-9.8
	c0-0.6-0.1-0.8-0.7-0.8c-2.6,0-5.3,0-7.9,0c-0.6,0-0.8,0.2-0.7,0.8c0,3.2,0,6.5,0,9.7c0,0.6-0.1,0.8-0.8,0.8c-2,0-3.9,0-5.9,0
	c-0.6,0-0.8-0.2-0.8-0.8c0-8.8,0-17.5,0-26.3c0-0.5,0.2-0.7,0.7-0.7c2,0,4,0,6,0c0.6,0,0.7,0.2,0.7,0.7c0,2.9,0,5.7,0,8.6
	c0,0.6,0.2,0.8,0.7,0.8c2.6,0,5.3,0,7.9,0c0.6,0,0.7-0.2,0.7-0.8c0-2.8,0-5.7,0-8.5c0-0.6,0.1-0.8,0.8-0.8c1.9,0,3.9,0,5.8,0
	c0.9,0,0.9,0,0.9,0.9C188.2,163.7,188.2,168,188.2,172.3z"/>
<path class="st6" d="M113.6,186.1c-0.2,0.1-0.5,0.1-0.7,0.1c-2.4,0-4.7,0-7.1,0c-0.4,0-0.7-0.1-0.9-0.5c-1.5-2-3-3.9-4.5-5.8
	c-0.6-0.5-1.4-0.6-2.1-0.5c-0.3,0.1-0.2,0.4-0.2,0.6c0,1.8,0,3.6,0,5.5c0,0.6-0.2,0.8-0.7,0.8c-2,0-4,0-6,0c-0.5,0-0.7-0.2-0.7-0.7
	c0-8,0-16.1,0-24.1c-0.1-0.4,0.2-0.8,0.6-0.8c0,0,0,0,0,0c2.1-0.6,4.1-1.2,6.2-1.8c0.5-0.2,0.7-0.1,0.7,0.5c0,4.6,0,9.2,0,13.7
	c0,0.7,0.2,0.9,0.9,0.9c0.7-0.1,1.4,0,2.2-0.1c1.8-0.1,3.2-1.8,3.1-3.6c0-0.2,0-0.4-0.1-0.6c0-0.4-0.1-0.8-0.3-1.1
	c-0.3-0.6-0.2-0.7,0.5-0.7c2.1,0,4.2,0,6.2,0c0.4-0.1,0.8,0.2,0.9,0.6c0.9,3.2-0.3,6.7-3,8.6c-1.1,0.8-1.1,0.8-0.3,1.9
	c1.7,2.2,3.4,4.5,5,6.6C113.4,185.6,113.6,185.8,113.6,186.1z"/>
<path class="st6" d="M47.3,174.4c0-2,0-4,0-6c0-0.5,0.1-0.7,0.7-0.7c2.1,0,4.1,0,6.2,0c0.5,0,0.6,0.2,0.6,0.7c0,3.2,0,6.4,0,9.7
	c0,2.3,1.4,2.9,3.4,2.7c0.9-0.1,1.7-0.3,2.5-0.6c0.4-0.1,0.7-0.5,0.6-0.9c0-3.5,0-7.1,0-10.6c0-0.9,0-0.9,1-0.9c1.9,0,3.8,0,5.8,0
	c0.5,0,0.7,0.2,0.7,0.7c0,3.4,0,6.7,0,10.1c0,0.2,0,0.4,0,0.6c0,1.9,0.8,2.6,2.6,2.2c0.5-0.1,0.6,0,0.6,0.5c0,1.1,0,2.2,0,3.3
	c0,0.3,0,0.5-0.4,0.6c-2.3,0.9-4.9,1.1-7.3,0.4c-0.7-0.2-1.3-0.5-1.7-1c-0.2-0.3-0.6-0.3-0.9-0.2c-2.3,1-4.8,1.6-7.3,1.6
	c-1.7,0.1-3.4-0.3-4.8-1.3c-1.5-1.2-2.4-3.1-2.2-5.1C47.3,178.3,47.3,176.3,47.3,174.4z"/>
<path class="st6" d="M128.7,178.4c-2.1,0-4.2,0-6.2,0c-0.5,0-0.6,0.1-0.5,0.6c0.3,1.9,2.2,2.8,4.1,3c3.1,0.2,6.2-0.2,9-1.4
	c0.8-0.3,0.8-0.3,0.8,0.5c0,1.1,0,2.2,0,3.3c0.1,0.3-0.2,0.6-0.5,0.7c0,0,0,0,0,0c-1.8,0.6-3.7,1.1-5.6,1.4
	c-2.7,0.3-5.4,0.2-8.1-0.4c-1.8-0.4-3.5-1.3-4.8-2.7c-1.3-1.4-2.1-3.2-2.2-5c-0.4-2.5,0.2-5.1,1.8-7.1c1.3-1.5,3-2.7,4.9-3.2
	c1.4-0.4,2.9-0.6,4.4-0.7c2.4-0.2,4.8,0.2,7,1.1c3.4,1.5,4.9,5.4,3.5,8.7c0,0,0,0,0,0c-0.2,0.8-1,1.3-1.8,1.2
	C132.6,178.3,130.6,178.4,128.7,178.4z M126.1,174.7L126.1,174.7c1.1,0,2.2,0,3.4,0c0.4,0,0.5-0.2,0.6-0.5c0.1-0.8-0.3-1.6-1-1.9
	c-1-0.5-2.2-0.6-3.4-0.4c-1.5,0-2.8,0.9-3.4,2.3c-0.2,0.4-0.1,0.5,0.3,0.5H126.1z"/>
<path class="st6" d="M213.4,172.3c0,4.3,0,8.7,0,13c0,0.7-0.1,0.9-0.9,0.9c-2,0-3.9,0-5.9,0c-0.5,0-0.7-0.1-0.7-0.7
	c0-8,0-16.1,0-24.1c0-0.5,0.1-0.8,0.6-0.9c2.1-0.6,4.1-1.2,6.2-1.8c0.6-0.2,0.7,0,0.7,0.5C213.4,163.5,213.4,167.9,213.4,172.3z"/>
<path class="st6" d="M81.6,169.6c1.2-0.8,2.5-1.4,3.8-1.8c0.9-0.3,1.9-0.6,2.8-0.7c0.4-0.1,0.7,0,0.7,0.5c0,1.9,0,3.7,0,5.6
	c0,0.4-0.1,0.5-0.5,0.6c-2.1,0.1-4.2,0.5-6.2,1.2c-0.4,0.1-0.6,0.4-0.6,0.8c0,3.2,0,6.4,0,9.5c0,0.6-0.1,0.8-0.8,0.8c-2,0-4,0-6,0
	c-0.5,0-0.7-0.1-0.7-0.7c0-5.4,0-10.8,0-16.1c0-0.4,0-0.6,0.5-0.8c2.1-0.6,4.2-1.2,6.3-1.8c0.5-0.2,0.7,0,0.6,0.5
	C81.6,168,81.6,168.7,81.6,169.6z"/>
<path class="st6" d="M201.2,176.5c0,3,0,6,0,9c0,0.5-0.1,0.7-0.7,0.7c-2.1,0-4.1,0-6.2,0c-0.5,0-0.7-0.2-0.7-0.7
	c0-5.3,0-10.6,0-15.8c0-0.4,0.1-0.6,0.5-0.8c2.1-0.6,4.2-1.2,6.4-1.9c0.5-0.2,0.6,0,0.6,0.5C201.1,170.5,201.2,173.5,201.2,176.5z"
	/>
</svg>
