<?xml version="1.0" encoding="utf-8"?>
<!-- Generator: Adobe Illustrator 21.1.0, SVG Export Plug-In . SVG Version: 6.00 Build 0)  -->
<svg version="1.1" id="Layer_1" xmlns="http://www.w3.org/2000/svg" xmlns:xlink="http://www.w3.org/1999/xlink" x="0px" y="0px"
	 viewBox="0 0 250 250" style="enable-background:new 0 0 250 250;" xml:space="preserve">
<style type="text/css">
	.st0{fill:#007940;}
	.st1{fill:#F9F300;}
</style>
<title>Grocery</title>
<rect x="5" y="105.5" class="st0" width="240" height="39"/>
<path class="st1" d="M8.8,110.5v15.4c0,3.4,0.3,6.1,1.6,8.2c2.2,3.4,6.2,5.5,11.3,5.5s9.2-2,11.3-5.5c1.3-2.2,1.7-4.8,1.7-8.2v-15.4
	H24.6v15.4c0,2.9-0.5,4.7-2.8,4.7s-2.8-1.7-2.8-4.7v-15.4H8.8z"/>
<path class="st1" d="M112.2,138.8v-20h-9.3v2.7c-1.4-2.1-3.7-3.3-6.2-3.3c-4.7,0-8,4.1-8,10.8c0,6.7,3.7,10.6,8,10.6
	c2.6,0,4.6-1.2,6.5-3.8v3L112.2,138.8L112.2,138.8z M100.5,131.6c-1.6,0.2-3-0.9-3.2-2.5c-0.2-1.6,0.9-3,2.5-3.2
	c1.6-0.2,3,0.9,3.2,2.5c0,0.1,0,0.2,0,0.4c0.1,1.4-0.9,2.7-2.3,2.8C100.6,131.6,100.6,131.6,100.5,131.6L100.5,131.6z"/>
<path class="st1" d="M70.2,118.8v20h9.7v-7.9c-0.2-1.9,1.2-3.7,3.2-3.8c0.2,0,0.5,0,0.7,0c0.9,0.1,1.9,0.4,2.7,0.8v-9.7
	c-0.2,0-0.5,0-0.7,0c-2.5,0-4.8,1.3-6.1,3.3v-2.8L70.2,118.8L70.2,118.8z"/>
<rect x="39.6" y="110.5" class="st1" width="9.7" height="28.3"/>
<polygon class="st1" points="55,112.2 55,118.8 52.3,118.8 52.3,126.2 55,126.2 55,138.8 64.7,138.8 64.7,126.2 67.5,126.2 
	67.5,118.8 64.7,118.8 64.7,112.2 "/>
<path class="st1" d="M235.5,126.3c-2-0.5-3.1-0.5-3.1-1.4c0-0.6,0.5-1,1.4-1c1.6,0.2,3.1,0.8,4.3,1.8l2.4-6c-2.4-1-5-1.6-7.6-1.6
	c-5.8,0-9.4,3.1-9.4,7.1c0,3,1.7,4.8,5.4,5.6c1.6,0.4,2.7,0.4,2.7,1.3c0,0.7-0.5,1.1-1.6,1.1c-1.9-0.3-3.7-1-5.2-2.2l-2.6,6.2
	c2.9,1.4,6,2.2,9.2,2.2c6.2,0,9.8-3.4,9.8-7.6C241.1,128.9,239.3,127.3,235.5,126.3z"/>
<path class="st1" d="M204.6,118.2c-4.4,0-8,4.1-8,10.5c0,6.7,3.4,10.8,8,10.8c2.6,0,5.1-1.4,6.4-3.7v2.9h9v-28.3h-9.5v7.6
	c0,1.2,0.1,2.4,0.2,3.5C209.4,119.4,207.1,118.1,204.6,118.2z M210.9,128.9c0.2,1.4-0.8,2.7-2.2,2.9c-0.1,0-0.2,0-0.3,0
	c-1.5-0.1-2.6-1.3-2.5-2.8c0-0.1,0-0.1,0-0.2c-0.2-1.4,0.8-2.7,2.2-2.9c0.1,0,0.2,0,0.4,0c1.4,0,2.6,1.2,2.5,2.6
	C210.9,128.7,210.9,128.7,210.9,128.9L210.9,128.9z"/>
<path class="st1" d="M168.4,128.8c0-5.9-4.8-10.7-11.6-10.7c-6.8,0-11.6,4.8-11.6,10.7c0,5.9,4.8,10.7,11.6,10.7
	C163.6,139.5,168.4,134.7,168.4,128.8z M154.3,128.8c-0.2-1.3,0.8-2.5,2.1-2.7c0.1,0,0.2,0,0.3,0c1.3,0,2.4,1.1,2.4,2.4
	c0,0.1,0,0.2,0,0.2c0.1,1.3-0.8,2.5-2.1,2.7c-1.3,0.1-2.5-0.8-2.7-2.1C154.3,129.2,154.3,129,154.3,128.8z"/>
<path class="st1" d="M194.1,128.8c0-5.9-4.8-10.7-11.6-10.7c-6.8,0-11.6,4.8-11.6,10.7c0,5.9,4.8,10.7,11.6,10.7
	C189.3,139.5,194.1,134.7,194.1,128.8z M180.1,128.8c-0.2-1.3,0.8-2.5,2.1-2.7c0.1,0,0.2,0,0.3,0c1.3,0,2.4,1.1,2.4,2.4
	c0,0.1,0,0.2,0,0.2c0.2,1.3-0.8,2.5-2.1,2.7c-0.1,0-0.2,0-0.3,0C181,131.6,180.1,130.5,180.1,128.8z"/>
<polygon class="st1" points="143.1,118.1 143.1,110.5 124.2,110.5 124.2,138.8 134.3,138.8 134.3,128.7 142.2,128.7 142.2,121.4 
	134.3,121.4 134.3,118.1 "/>
</svg>
