<?xml version="1.0" encoding="utf-8"?>
<!-- Generator: Adobe Illustrator 21.1.0, SVG Export Plug-In . SVG Version: 6.00 Build 0)  -->
<svg version="1.1" id="svg" xmlns="http://www.w3.org/2000/svg" xmlns:xlink="http://www.w3.org/1999/xlink" x="0px" y="0px"
	 viewBox="0 0 250 250" style="enable-background:new 0 0 250 250;" xml:space="preserve">
<style type="text/css">
	.st0{fill:#3953A4;}
	.st1{fill:#FFFFFF;}
	.st2{fill:#ED2024;}
	.st3{fill:#FFFFFF;stroke:#3953A4;stroke-miterlimit:10;}
</style>
<g>
	<ellipse class="st0" cx="125" cy="125" rx="120" ry="40.9"/>
	<ellipse class="st1" cx="125" cy="125" rx="116" ry="36.6"/>
	<ellipse class="st2" cx="125" cy="125" rx="113.4" ry="34.5"/>
	<g>
		<g>
			<path class="st3" d="M46.8,140.3c-2,0-3.7-0.2-5.1-0.6c-1.4-0.4-2.5-1-3.3-1.8c-0.8-0.8-1.4-1.8-1.7-3c-0.3-1.2-0.5-2.5-0.5-4.2
				c0-7,0-14,0-21c2.8,0,5.6,0,8.5,0c0,7.4,0,14.9,0,22.3c0,0.4,0,0.8,0.1,1.1c0,0.3,0.1,0.6,0.3,1c0.1,0.3,0.3,0.6,0.6,0.8
				c0.3,0.2,0.7,0.3,1.2,0.3c0.5,0,0.8-0.1,1.2-0.3c0.3-0.2,0.5-0.5,0.6-0.8c0.1-0.3,0.2-0.7,0.2-1c0-0.3,0.1-0.6,0.1-1.1
				c0-7.4,0-14.9,0-22.3c2.8,0,5.7,0,8.5,0c0,7,0,14.1,0,21.1c0,1.6-0.2,3-0.5,4.2c-0.3,1.2-0.9,2.1-1.7,3c-0.8,0.8-1.9,1.4-3.3,1.8
				C50.5,140.1,48.8,140.3,46.8,140.3z"/>
			<path class="st3" d="M61.8,139.9c0-7.2,0-14.4,0-21.6c2.6,0,5.1,0,7.7,0c0,0.7,0,1.5,0,2.2c2-1.7,4-2.6,6-2.6
				c1.5,0,2.7,0.5,3.6,1.4c0.9,1,1.3,2.2,1.3,3.8c0,5.6,0,11.2,0,16.9c-2.6,0-5.1,0-7.7,0c0-5.3,0-10.7,0-16c0-0.5-0.1-0.8-0.3-1.1
				c-0.2-0.2-0.5-0.3-0.9-0.3c-0.6,0-1.2,0.3-1.9,0.6c0,5.6,0,11.2,0,16.8C67,139.9,64.4,139.9,61.8,139.9z"/>
			<path class="st3" d="M84.4,114.5c0-1.4,0-2.9,0-4.3c2.6,0,5.2,0,7.7,0c0,1.4,0,2.9,0,4.3C89.5,114.4,87,114.5,84.4,114.5z
				 M84.4,140c0-7.2,0-14.5,0-21.7c2.6,0,5.1,0,7.7,0c0,7.3,0,14.5,0,21.8C89.5,140,87,140,84.4,140z"/>
			<path class="st3" d="M97.1,128.3c0-1.4,0-2.8,0-4.2c3.9,0,7.7,0,11.6,0c0,1.4,0,2.8,0,4.2C104.8,128.3,100.9,128.3,97.1,128.3z"
				/>
			<path class="st3" d="M113.9,140.1c0.2-10.2,0.4-20.4,0.6-30.6c3.1,0,6.2,0,9.3,0c1.1,5.3,2.1,10.5,3.2,15.8
				c1.2-5.3,2.3-10.5,3.5-15.8c3,0,5.9,0,8.9,0c0.2,10.3,0.4,20.5,0.6,30.8c-2,0-3.9,0-5.9,0c-0.2-6.7-0.4-13.3-0.7-20
				c-1.2,6.7-2.4,13.3-3.5,19.9c-1.8,0-3.6,0-5.4,0c-1.3-6.7-2.6-13.4-3.8-20.1c-0.2,6.7-0.4,13.4-0.6,20.1
				C117.9,140.1,115.9,140.1,113.9,140.1z"/>
			<path class="st3" d="M149.8,140.6c-1,0-1.9-0.2-2.6-0.5c-0.8-0.3-1.4-0.8-1.9-1.3c-0.5-0.5-0.9-1.1-1.1-1.7
				c-0.3-0.6-0.4-1.3-0.4-1.9c0-0.7,0.1-1.4,0.3-2c0.2-0.6,0.5-1.2,0.8-1.6c0.3-0.5,0.7-0.9,1.3-1.3c0.5-0.4,1-0.8,1.5-1
				c0.5-0.3,1-0.5,1.7-0.8c0.7-0.3,1.2-0.5,1.7-0.7c0.5-0.2,1-0.3,1.7-0.6c0.6-0.2,1.1-0.4,1.4-0.5c0-0.8,0-1.6,0-2.4
				c0-0.9-0.4-1.4-1.2-1.4c-0.4,0-0.7,0.1-0.9,0.4c-0.2,0.2-0.3,0.6-0.3,1c-0.1,0.6-0.2,1.2-0.2,1.8c-2.4-0.1-4.7-0.2-7.1-0.3
				c0-0.1,0-0.2,0-0.3c0-0.2,0-0.3,0-0.4c0.2-2.5,1.1-4.3,2.6-5.5c1.5-1.2,3.7-1.8,6.6-1.8c2.4,0,4.3,0.6,5.7,1.8
				c1.3,1.2,2,2.8,2,4.7c0,3.5,0,6.9,0,10.4c0,0.7,0,1.4,0.1,2c0,0.7,0.1,1.2,0.1,1.5c0,0.3,0.1,0.7,0.2,1.3
				c0.1,0.5,0.1,0.8,0.1,0.8c-2.3,0-4.5,0-6.8,0c-0.4-2-0.6-3-0.6-3.1c-0.3,1-0.9,1.8-1.7,2.5C151.9,140.3,151,140.6,149.8,140.6z
				 M152.4,136.2c0.6,0,1.2-0.3,1.7-0.9c0-2,0-4,0-6c-1.1,0.4-1.9,1.1-2.6,2.1c-0.6,0.9-1,1.8-1,2.6c0,0.7,0.2,1.2,0.5,1.6
				C151.5,136,151.9,136.2,152.4,136.2z"/>
			<path class="st3" d="M165.6,140.3c0-7.4,0-14.8,0-22.1c2.6,0,5.1,0,7.7,0c0,1.3,0,2.6,0,3.9c1.5-2.7,3.1-4.1,4.8-4.1
				c0.3,0,0.7,0.1,1.1,0.2c0,1.9,0,3.8,0,5.7c-0.2,0-0.4,0-0.6,0c-2.1,0.1-3.8,1.1-5.2,2.9c0,4.5,0,9.1,0,13.6
				C170.7,140.3,168.1,140.3,165.6,140.3z"/>
			<path class="st3" d="M189.2,140.6c-0.8,0-1.6-0.2-2.3-0.4c-0.7-0.2-1.2-0.4-1.7-0.7c-0.5-0.3-0.8-0.7-1.2-1.1
				c-0.3-0.5-0.6-0.9-0.8-1.4c-0.2-0.5-0.3-1-0.4-1.7c-0.1-0.6-0.2-1.2-0.2-1.8c0-0.5,0-1.2,0-1.9c0-3,0-6.1,0-9.1
				c-0.8,0-1.5,0-2.3,0c0-1.5,0-3,0-4.5c0.8,0,1.5,0,2.3,0c0-2.3,0-4.6,0-6.8c2.6,0,5.2,0,7.8,0c0,2.3,0,4.6,0,6.9
				c1.1,0,2.3,0,3.4,0c0,1.5,0,3,0,4.5c-1.1,0-2.3,0-3.4,0c0,3.6,0,7.1,0,10.7c0,0.5,0.2,0.9,0.6,1.2c0.4,0.3,0.9,0.4,1.6,0.5
				c0.3,0,0.6,0,0.9,0c0.3,0,0.6-0.1,0.7-0.1c0.2,0,0.3-0.1,0.3-0.1c0,1.8,0,3.7,0,5.5c-1.5,0.2-2.9,0.4-4.3,0.4
				C189.9,140.6,189.5,140.6,189.2,140.6z"/>
			<path class="st3" d="M205.5,140.8c-2.2,0-3.9-0.4-5.4-1.2c-1.4-0.8-2.7-2.2-3.8-4.2c1.7-0.7,3.4-1.4,5.1-2.2
				c0.6,0.9,1.2,1.7,1.9,2.2c0.6,0.5,1.2,0.7,1.8,0.8c0.1,0,0.2,0,0.2,0c0.3,0,0.6-0.2,0.8-0.4c0.2-0.2,0.3-0.5,0.3-0.8
				c0-0.2-0.1-0.4-0.2-0.6c-0.2-0.2-0.4-0.4-0.7-0.7c-0.3-0.3-0.6-0.5-0.8-0.7c-0.3-0.2-0.6-0.5-1.1-0.8c-0.4-0.3-0.8-0.6-1-0.7
				c-0.4-0.3-0.7-0.6-1.1-0.8c-1.3-1-2.4-2.1-3.3-3.2c-0.9-1.2-1.3-2.3-1.3-3.4c0-1.8,0.8-3.3,2.4-4.5c1.6-1.2,3.5-1.8,5.6-1.8
				c2.1,0,3.8,0.5,5.3,1.4c1.4,1,2.5,2.4,3.2,4.3c-1.6,0.7-3.3,1.4-4.9,2.2c-0.3-0.7-0.7-1.4-1.3-2c-0.6-0.6-1.2-1-1.8-1
				c-0.5,0-0.8,0-1.1,0.3c-0.3,0.2-0.4,0.5-0.4,0.7c0,0.2,0,0.4,0.2,0.7c0.1,0.2,0.4,0.5,0.7,0.8c0.3,0.3,0.6,0.6,0.9,0.8
				c0.3,0.2,0.6,0.5,1.2,0.9c0.5,0.4,0.9,0.7,1.2,0.9c0.3,0.2,0.6,0.5,1,0.7c0.1,0.1,0.2,0.1,0.3,0.2c0.6,0.4,1,0.8,1.3,1
				c0.3,0.2,0.7,0.6,1.2,1.1c0.5,0.5,0.8,0.9,1.1,1.2c0.2,0.4,0.5,0.8,0.6,1.3c0.2,0.5,0.3,1,0.3,1.6c0,1-0.2,1.8-0.7,2.6
				c-0.5,0.8-1.1,1.4-1.9,1.9c-0.8,0.5-1.7,0.9-2.6,1.2C207.6,140.7,206.6,140.8,205.5,140.8z"/>
		</g>
	</g>
</g>
</svg>
