<?xml version="1.0" encoding="utf-8"?>
<!-- Generator: Adobe Illustrator 21.1.0, SVG Export Plug-In . SVG Version: 6.00 Build 0)  -->
<svg version="1.1" id="Layer_1" xmlns="http://www.w3.org/2000/svg" xmlns:xlink="http://www.w3.org/1999/xlink" x="0px" y="0px"
	 viewBox="0 0 250 250" style="enable-background:new 0 0 250 250;" xml:space="preserve">
<style type="text/css">
	.st0{fill:#372B9A;}
	.st1{fill:#FF2626;}
</style>
<title>Grocery</title>
<path class="st0" d="M56.8,80.8c0,0.8-0.1,1.6-0.1,2.4c0,11.2,0,22.3,0,33.5c0,3.3-0.4,6.7-1.3,9.9c-1.7,6.7-7,11.8-13.7,13.2
	c-6.6,1.7-13.6,1.8-20.2,0.3c-9.5-2.1-14.3-7.5-15.9-17C5.1,121,5,118.8,5,116.7c0-12,0-23.9,0-35.9h17.7c0,4.4-0.1,8.8-0.1,13.2
	c0,8.7,0,17.3,0.1,26c0,3.1,1,5.8,4.2,7.1c6.1,2.5,11.5-0.6,12.2-7.1c0.1-0.6,0.1-1.2,0.1-1.8c0-12.4,0-24.9,0-37.5L56.8,80.8z"/>
<path class="st0" d="M245,80.8c0,18.8,0,37.7,0,56.5c0,1.9-0.5,2.5-2.4,2.4c-3.1-0.2-6.3-0.1-9.4,0c-1.7,0.1-2.1-0.6-2-2.1
	c0.2-0.8,0.1-1.7-0.2-2.5c-0.6-0.1-0.7,0.3-1,0.6c-6,8.3-21,6-25.8-3.2c-4.5-8.5-3.4-22,2.7-29.4c4-5.3,11.1-7.3,17.3-4.9
	c2.3,0.9,4.2,2.8,5.1,5.1l0.6-0.2V80.8H245z M230.2,120.1c-0.2-1.5-0.3-3.2-0.5-4.9c-0.1-0.8-0.4-1.5-0.7-2.3
	c-1.2-3.1-4.7-4.7-7.8-3.5c-1.6,0.6-2.9,1.9-3.5,3.5c-1.3,4-1.4,8.2-0.3,12.3c0.5,2.3,2.4,4,4.7,4.3c2.7,0.5,5.4-0.8,6.7-3.2
	C229.8,124.4,230.3,122.3,230.2,120.1z"/>
<path class="st0" d="M73.7,102.9c0.6-0.1,1.1-0.5,1.3-1c4.8-5.8,10.9-6.9,17.8-4.9c6.4,1.9,8.8,7,9.1,13c0.4,9.4,0.2,18.8,0.2,28.3
	c0,1.3-0.7,1.3-1.7,1.3c-4,0-7.9-0.1-11.8,0c-1.5,0-1.9-0.5-1.9-1.9c0.1-7,0-13.9,0-20.9c0-1.5-0.1-3.1-0.5-4.6
	c-0.5-2.4-2.7-4-5.1-3.8c-2.5-0.2-4.8,1.4-5.5,3.8c-0.4,1.4-0.6,2.9-0.5,4.4c0,7,0,13.9,0,20.9c0,1.6-0.4,2.2-2.1,2.2
	c-3.9-0.1-7.8-0.1-11.6,0c-1.2,0-1.7-0.2-1.7-1.6c0.1-13,0.1-26.1,0-39.1c0-1.2,0.3-1.7,1.5-1.6c3.7,0.1,7.4,0,11,0
	c1.1,0,1.6,0.3,1.5,1.5C73.6,100,73.7,101.5,73.7,102.9z"/>
<path class="st0" d="M184.2,122.8h-12.8c-2.1,0-2.3,0.3-1.7,2.3c0.7,2.9,2.9,5.1,5.7,5.9c2.7,0.9,5.7-0.2,7.2-2.7
	c0.4-0.6,1-0.6,1.6-0.6c4,0,8,0,12,0c1.5,0,1.5,0.5,1,1.7c-1.5,4.1-4.7,7.3-8.7,8.9c-7,3.2-15,3.4-22.2,0.6
	c-6.6-2.3-11.2-8.2-12-15.1c-0.8-4.4-0.4-9,1.1-13.3c3.1-8.8,10.8-13.8,20.9-13.7c7.6,0.1,14.2,2.3,18.7,9
	c3.1,4.8,3.9,10.2,4.1,15.7c0.1,1.3-0.8,1.1-1.6,1.1L184.2,122.8z M176.4,114.8c1.9,0,3.9,0,5.8,0c1.2,0,1.5-0.5,1.5-1.6
	c0.1-3-2.1-5.6-5.1-6c-5.3-1-8.9,1.3-9.1,6.1c0,1,0.2,1.5,1.3,1.4C172.6,114.8,174.5,114.9,176.4,114.8L176.4,114.8z"/>
<path class="st0" d="M129.1,119.4c0-3.7,0-7.5,0-11.2c0-1.5-0.5-1.9-2-1.9c-3.5,0-3.5,0-3.5-3.6c0-0.1,0-0.3,0-0.4
	c0.1-1.5-0.6-3.4,0.3-4.5s2.8-0.3,4.2-0.4c1.1,0,1.3-0.7,1.3-1.6c0-3.1,0-6.1,0-9.2c0-1.2,0.3-1.7,1.5-1.6c4,0.1,8,0,12,0
	c1.2,0,1.6,0.4,1.6,1.6c-0.1,2.9,0.1,5.8,0,8.6c-0.1,1.9,0.6,2.3,2.3,2.2c1.3-0.1,2.5,0,3.8,0c1,0,1.5,0.2,1.5,1.3
	c0,2.1,0,4.3,0,6.4c0,1-0.5,1.2-1.3,1.2c-1.5,0-3.1,0.1-4.6,0s-1.6,0.7-1.6,1.9c0,5.1,0,10.3,0,15.4c0,3.9,1,5,4.9,4.9
	c2.1-0.1,2.6,0.7,2.5,2.6c-0.2,2.4,0,4.8,0,7.2c0,0.8,0,1.5-1.1,1.5c-4.8,0-9.6,0.6-14.4-0.3c-4.6-0.9-6.4-2.9-6.9-7.6
	C129.2,127.8,129,123.6,129.1,119.4z"/>
<path class="st0" d="M120.6,118.6c0,6.5,0,13,0,19.5c0,1.3-0.3,1.7-1.7,1.7c-4-0.1-8-0.1-12,0c-1.2,0-1.6-0.3-1.6-1.5
	c0-13.1,0-26.2,0-39.3c0-1.1,0.3-1.5,1.5-1.5c4.1,0,8.2,0.1,12.2,0c1.4,0,1.6,0.5,1.6,1.8C120.6,105.6,120.6,112.1,120.6,118.6z"/>
<path class="st0" d="M112.9,93.9c-2.1,0-4.1,0-6.2,0c-1.1,0-1.3-0.4-1.3-1.4c0-2.1,0-4.1,0-6.2c0-1,0.3-1.4,1.3-1.4
	c4.2,0,8.4,0,12.6,0c1.1,0,1.3,0.4,1.3,1.3c0,2.1-0.1,4.1,0,6.2c0,1.2-0.5,1.4-1.6,1.4C117,93.8,114.9,93.9,112.9,93.9z"/>
<path class="st1" d="M114,152.8c1.6-1.7,2.9-4.3,5.6-3.5c3,0.9,2.4,4.1,3,6.6c0.9-0.7,1-1.7,1.4-2.4c0.3-0.5,0.5-1.1,0.8-1.6
	c1.2-2,3.4-3.3,4.9-2.8c2.2,0.8,2.2,2.8,2.2,4.7c0,3.3-0.3,6.5-0.7,9.8c-0.1,0.9-0.4,1.8-1.5,1.7c-1.1-0.1-1.2-1.1-1.1-2
	c0.2-3.1,0.5-6.3,0.7-9.3c0-0.7,0.3-1.7-0.6-1.9c-0.9-0.2-1.4,0.7-1.7,1.4c-1.5,3.5-3,7-4.5,10.5c-0.4,0.9-0.7,1.9-1.8,1.8
	c-1.2-0.2-1.3-1.3-1.3-2.3c0-3.3,0.7-6.5,0-9.8c-0.1-0.5,0-1.2-0.6-1.3c-0.6-0.2-1.1,0.4-1.5,0.8c-1.5,2-2.5,4.3-2.9,6.7
	c-0.4,1.5-0.5,3-0.8,4.5c-0.1,0.9-0.5,1.7-1.6,1.6c-1.1-0.1-1.2-0.9-1.2-1.8c0-3.9,0-7.7,0-11.6c0-0.9,0.1-1.9,1.2-2
	s1.3,0.8,1.5,1.7C113.7,152.4,113.9,152.5,114,152.8z"/>
<path class="st1" d="M173,151.8c0.9-0.6,1.8-1.3,2.7-1.9c1.3-0.9,2.9-1.1,4.4-0.5c2.9,1.2,3.3,4,1,6.1c-1.1,1-2.4,1.8-3.8,2.3
	c-1.5,0.6-1.3,1.2-0.3,2c1.1,0.8,2.2,1.8,3.3,2.7c0.7,0.6,1.9,1,1.1,2.2s-1.8,0.6-2.7,0c-2.7-1.9-5.1-4.1-7.2-6.5
	c-0.4,1.8-0.6,3.6-0.5,5.4c0,0.9,0,2.1-1.3,2s-1.2-1.1-1.2-2c0-3.2,0.2-6.4,0.6-9.6c0.8-5.1,4.4-7.9,8.5-10.2
	c0.8-0.4,1.8-0.6,2.3,0.4c0.5,1-0.3,1.5-1.1,2C176.3,147.3,174.3,149.3,173,151.8z M173,156.1c2.1-0.2,4-0.9,5.7-2.1
	c0.6-0.4,1.5-0.8,1-1.7c-0.5-0.9-1.3-0.7-2.1-0.4C175.7,153,174.1,154.4,173,156.1z"/>
<path class="st1" d="M65.4,153.2c0.8-0.3,1.2-1,1.7-1.6c1.6-1.6,3.9-2.4,6.2-2.2c2.3,0.1,4.2,2,4.2,4.3c0.4,4.6-2.7,8.8-7.2,9.7
	c-0.5,0.1-0.9,0.2-1.3,0.3c-1.2,0.2-2.6,0-3.5,0.6c-0.9,0.6-0.3,2.2-0.5,3.4c-0.1,0.8-0.4,1.5-1.3,1.5s-1.3-0.7-1.3-1.5
	c0-5.2,0-10.4,0-15.6c0-0.9,0.3-1.7,1.3-1.7c1.1,0,1.2,0.8,1.3,1.5C65,152.4,64.8,152.9,65.4,153.2z M74.8,154.7
	c0-1.9-0.6-2.5-2.5-2.5c-1.2-0.1-2.3,0.4-3.1,1.2c-1.4,1.5-2.7,3-3.9,4.6c-0.6,0.9-0.7,2.1-0.2,3.1c0.5,1,1.5,0.4,2.4,0.3
	c0.7,0,1.5-0.1,2.2-0.3C72.7,160.3,74.8,157.7,74.8,154.7L74.8,154.7z"/>
<path class="st1" d="M147.6,161.2c-1.3,1.2-2.3,2.6-3.9,3.2c-2.3,0.9-4.6,1.2-6.7-0.3c-2.1-1.5-2.2-3.8-1.6-6.2
	c0.7-3.6,3.4-6.5,7-7.5c2.2-0.6,4.6-0.9,6.9-0.9c0.9,0,2,0,2.1,1.3s-1,1.3-2,1.3c-2.1,0-4.1,0.3-6.1,0.8c-3,0.8-5.2,3.4-5.4,6.5
	c-0.2,2.5,1.3,3.7,3.7,3c1.7-0.6,3.1-1.8,4-3.4c0.7-1.2,1.3-2.5,2.1-3.7c0.4-0.7,1-1.3,1.9-1.1c1,0.3,1,1,1,1.8c0,2.3,0,4.7,0,7
	c0,0.9-0.1,1.9-1.3,1.9s-1.3-0.9-1.3-1.8C148,162.5,147.9,161.8,147.6,161.2z"/>
<path class="st1" d="M87.4,159.5c-0.4,0-0.8,0-1.2,0c-0.9,0-1.8-0.3-1.7-1.5c0.1-1.1,0.9-1.1,1.8-1.1c1.7,0.2,3.5-0.3,4.9-1.4
	c0.7-0.6,1.3-1.3,0.9-2.2c-0.3-0.8-1.1-1.2-1.9-1.3c-2.6-0.4-4.3,0.9-5.8,2.7c-1.5,1.8-2.5,4-1.6,6.5c0.4,1,1.4,1.7,2.5,1.7
	c1.9,0.3,3.8,0.1,5.5-0.7c0.8-0.4,1.6-0.5,2,0.4c0.4,0.9-0.1,1.6-0.9,1.9c-2.9,1.6-6.4,1.6-9.3,0.2c-2.5-1.2-3.6-4.7-2.4-8
	c1.1-3.7,4-6.5,7.7-7.5c1.3-0.3,2.7-0.2,3.9,0.3c2.3,0.6,3.6,2.9,3,5.2c-0.2,0.8-0.7,1.6-1.3,2.1C91.9,158.6,89.7,159.5,87.4,159.5z
	"/>
<path class="st1" d="M192.8,165.9c-6.7,0-9.5-5-6.4-10.4c2-3.4,4.5-6.2,9-6c2.1,0,4.1,1.2,4.9,3.2c0.6,1.8-0.1,3.6-2.1,5.2
	c-1.9,1.5-4.4,2.2-6.8,1.7c-0.8-0.1-1.5-0.4-1.5-1.3c0-0.9,0.8-1.3,1.7-1.3c1.9,0.1,3.7,0,5.2-1.5c0.6-0.4,0.9-1.2,0.8-1.9
	c-0.2-0.8-1-1.4-1.8-1.4c-2.9-0.5-4.7,1.1-6.3,3.1c-1.6,1.7-2.1,4.2-1.2,6.3c0.4,0.8,1.2,1.3,2,1.4c2,0.5,4,0.2,5.9-0.7
	c0.8-0.4,1.6-0.4,2.1,0.5c0.4,0.9-0.3,1.5-1,1.9C196,165.7,194.4,166,192.8,165.9z"/>
<path class="st1" d="M56,158.1c-1.1,1.7-2.2,3.4-3.3,5c-1,1.3-2.2,2.6-4,1.9c-1.8-0.6-2.1-2.3-2.1-4c0-2.9,0-5.7,0-8.6
	c0-1.1,0.1-2.2,1.5-2.1s1.2,1.3,1.2,2.2c0,2.7,0,5.3,0,8c0,0.5-0.2,1.2,0.4,1.4c0.6,0.2,1-0.5,1.3-1c2-2.9,3.7-5.9,5.2-9
	c0.4-0.9,0.8-1.9,2-1.6s1.1,1.3,1.1,2.3c0,3.4,0,6.8,0,10.2c0,1,0,2.1-1.3,2.1c-1.3,0-1.3-1-1.3-2c0-1.6,0-3.2,0-4.7L56,158.1z"/>
<path class="st1" d="M32.2,165.5c-0.9-0.3-2.8,0.7-2.9-1.2c-0.1-1.9,1.9-1.2,3-1.4c1.8-0.1,3.6-0.4,5.3-0.7c0.8-0.2,1.6-0.7,2.3-1.3
	c1.3-1.3,1.1-2.3-0.6-3s-3.5-1-5.1-1.7c-3.8-1.5-4.4-4.6-1.5-7.5c2-2.2,5-3.3,7.9-3c0.9,0.1,1.9,0.2,1.9,1.3s-1,1.5-2,1.3
	c-2.2-0.3-4.3,0.5-5.8,2.1c-1.7,1.7-1.5,2.5,0.7,3.4c1.3,0.5,2.8,0.8,4.2,1.3c1.8,0.6,3.6,1.5,3.8,3.7c0.3,2.2-1.1,3.6-2.7,4.8
	C39,164.8,36.1,165.4,32.2,165.5z"/>
<path class="st1" d="M220.1,165.8h-1c-0.9,0-1.9,0-1.9-1.2c0-1.2,1-1.3,1.9-1.3c1.7,0,3.3-0.3,4.9-0.8c0.9-0.2,1.6-0.9,1.7-1.8
	c0-1-1-1.1-1.7-1.3c-1.3-0.3-2.6-0.8-3.7-1.4c-1.7-0.7-2.4-2.7-1.7-4.4c0.1-0.2,0.2-0.4,0.3-0.6c1.6-2.2,3.5-3.8,6.5-3.7
	c1,0,2.3-0.1,2.3,1.3c0,1.5-1.2,1.4-2.2,1.3c-1.2-0.1-2.4,0.4-3.3,1.2c-1.6,1.5-1.5,2.2,0.7,3c0.9,0.3,1.9,0.6,2.9,0.9
	c3.1,1.3,3.7,4.1,1.3,6.5C225,165.6,222.5,165.8,220.1,165.8z"/>
<path class="st1" d="M207.9,158.4c0-1.6,0-3.2,0-4.8c0-1.3-0.3-2.1-1.8-1.9c-0.3,0-0.5,0-0.8,0c-0.7,0-1.3-0.5-1.3-1.2
	c-0.1-0.6,0.3-1.2,1-1.3c0.1,0,0.2,0,0.3,0c2.3,0.3,2.7-0.8,2.6-2.8c-0.1-0.9,0-1.9,1.2-2c1.2,0,1.5,1.1,1.3,2
	c-0.3,2.3,0.6,3,2.8,2.7c0.9-0.1,1.8,0.2,1.8,1.3c0,1.2-1,1.3-1.9,1.3c-2.7,0.1-2.7,0.1-2.7,2.7c0,2.6,0,5.6,0,8.4
	c0,1,0.3,2.5-1.3,2.4s-1.2-1.5-1.3-2.5C207.9,161.4,207.9,159.9,207.9,158.4L207.9,158.4z"/>
<path class="st1" d="M158.8,151.3c0.8-0.7,1.4-1.3,2.1-1.8c1.2-1,2.9-0.9,3.9,0.3c0.4,0.5,0.7,1.1,0.7,1.8c0.1,0.7,0,1.3-0.7,1.7
	c-0.6,0.3-1.2,0-1.5-0.5c0,0,0,0,0,0c-0.7-1.3-1.3-0.7-1.9,0.1c-1.6,2.5-3.3,5.1-2.8,8.3c0,0.5,0,0.9,0,1.4c0,1,0.2,2.4-1.3,2.4
	c-1.5,0-1.3-1.4-1.3-2.4c0-3.7,0-7.5,0-11.2c0-1.1-0.5-2.8,1.2-2.9S158.3,150.1,158.8,151.3z"/>
<path class="st1" d="M101,152.2c0.6-0.5,1.1-1.1,1.8-1.5c0.8-0.8,2-1,2.9-0.5c1,0.6,1.7,1.6,1.8,2.7c0.1,0.6-0.2,1.2-0.7,1.5
	c-0.5,0.3-1.2,0.1-1.5-0.4c0,0,0-0.1,0-0.1c-0.9-1.7-1.5-0.7-2,0.2c-1.6,2.5-3.1,5-2.7,8.1c0.1,0.5,0.1,1.1,0,1.6
	c-0.1,0.8-0.4,1.5-1.3,1.4c-0.9,0-1.3-0.7-1.3-1.5s0-1.7,0-2.6c0-2.9,0-5.9,0-8.8c0-1.1-0.2-2.5,1.3-2.7c1.6-0.1,1.3,1.2,1.5,2.1
	C100.8,152,100.9,152.1,101,152.2z"/>
</svg>
