<?xml version="1.0" encoding="utf-8"?>
<!-- Generator: Adobe Illustrator 21.1.0, SVG Export Plug-In . SVG Version: 6.00 Build 0)  -->
<svg version="1.1" id="Layer_1" xmlns="http://www.w3.org/2000/svg" xmlns:xlink="http://www.w3.org/1999/xlink" x="0px" y="0px"
	 viewBox="0 0 250 250" style="enable-background:new 0 0 250 250;" xml:space="preserve">
<style type="text/css">
	.st0{fill:#DA040F;}
	.st1{fill:#FFFFFF;}
</style>
<title>CR</title>
<g>
	<path class="st0" d="M104.3,124.7c2.3,0.9,4.6,1.6,7,2.1c15.6,1.8,29.5-4.3,35.4-20c4.7-12.5-4.1-24-17.5-23
		C117.2,84.6,107.2,90,98,97.5c-12.8,10.4-21.4,24.1-29.2,38.3c-6.5,11.9-11.4,24.6-14.7,37.7c-1.2,4.9-3.4,9.5-7.9,12.4
		c-7,4.7-14.4,1.1-14.9-7.4c-0.2-4.9,0.5-9.8,2.2-14.4c5.6-16.6,8.9-33.5,7.6-51.1c-0.5-6.2-1.1-12.3-2-18.5c-0.3-2.6-1-6-4.2-5.8
		c-2,0.2-4.2,2.6-5.7,4.6s-1.9,4.4-2.9,6.6c-2.3,5.3-8.3,8-13.8,6.2c-5.7-1.9-8.4-6.8-6.6-13c0.8-2.8,2.2-5.5,4-7.8
		c5.3-6.9,11.5-12.9,19.7-16.2c10.9-4.3,18.9-1,23.3,9.8c3.3,8.3,4.6,17.4,3.7,26.3c-0.7,7.3-1.1,14.7-1.7,22.9
		c1.1-1.4,1.7-2.1,2.2-2.9c8.7-12.3,17-24.9,26-36.9c10.9-14.4,25-23.9,43.3-26c17.2-2,34.5,8,39.5,23.7c4.5,14.2,0.2,26.7-10,36.8
		c-13.3,13.3-29.8,18.2-48.3,15.8c-9.8-1.4-17.4-6.3-20.6-16.3c-3.3-10.5,2.2-18.3,12.8-18.3c5.1-0.2,9.7,3.2,11,8.1
		c1.4,4.8-0.1,8.3-5,11.5C105.6,123.6,105.4,123.8,104.3,124.7z M47.3,101h-0.6c0-0.9,0-1.7,0-2.6c-0.6-6.3-0.3-13-2-19.1
		c-2.1-7.9-7.3-9.5-14.7-6c-7.9,3.8-12.9,10.5-17.3,17.8c-0.4,0.7,0,1.8,0,2.7c1,0,2-0.2,2.9-0.6c1-0.8,1.9-1.8,2.7-2.8
		c3-3.7,5.8-7.6,9-11.3c5.1-5.9,12.1-4.9,14.4,2.4c1.6,5.6,2.5,11.5,2.6,17.3c0.7,17.2,1.1,34.4-4,51.3c-2,6.9-3.4,14-5,21
		c-0.5,2.3-0.6,4.4,1.9,5.6c0.6,0.2,1.2,0.2,1.8-0.1c0.3-0.5,0.4-1.1,0.1-1.7c-2.4-2.1-1.4-4.6-0.9-7c1.8-8.1,4.3-16.1,5.3-24.3
		C45.3,129.5,46.1,115.2,47.3,101L47.3,101z M137.2,69.5l0.1-0.8c-0.8-0.3-1.6-0.5-2.4-0.7c-14.4-2.5-26.6,2.4-37.3,11.8
		c-9.9,8.8-18.6,19-25.7,30.3c-3.3,5.2-6.2,10.8-11.9,14.2c-1.6,0.9-2.3,2.9-3.6,4.6c2.9,1.4,4.3-0.2,5.5-1.8
		c3.5-4.6,6.7-9.4,10.3-13.9c7.2-9.4,13.9-19.2,22.7-27.3c10.7-9.8,22.4-16.5,37.5-15.8c1.7,0,3.3-0.2,4.9-0.5L137.2,69.5z
		 M110.5,130.3c0.4,0.1,0.7,0.3,1.1,0.3c2.8,0.2,5.7,0.3,8.5,0.3c15.1-0.9,26-8.3,33.2-21.4c1.3-1.7,0.9-4.2-0.8-5.5
		C144.3,122.2,130,130.2,110.5,130.3L110.5,130.3z M101,109.8l-0.2-1.6c-1.9-0.5-3.9-1.6-5.8-1.4c-1.6,0.4-2.9,1.5-3.6,2.9
		c-0.6,1.3,2.9,4.6,4.2,3.9c2-1.1,3.8-2.4,5.5-3.8L101,109.8z"/>
	<path class="st0" d="M75.6,188c-6.4,0.1-11.7-4.9-11.9-11.4c0-6.1,5.6-11.3,12.1-11.2c6.3-0.2,11.6,4.8,11.8,11.1
		c0,0.1,0,0.2,0,0.3C87.6,183.3,82.4,188,75.6,188z M73.3,169.3l-3.2,2.9c1.9,1.7,3.5,4.2,5.7,5s3.3-1.4,3.5-3.6
		C79.3,171,77.5,169.3,73.3,169.3L73.3,169.3z"/>
	<path class="st1" d="M47.3,101c-1.2,14.2-2,28.5-3.8,42.5c-1,8.2-3.6,16.2-5.3,24.3c-0.5,2.4-1.4,4.9,0.9,7
		c0.3,0.5,0.2,1.2-0.1,1.7c-0.5,0.3-1.2,0.3-1.8,0.1c-2.5-1.2-2.5-3.3-1.9-5.6c1.6-7,2.9-14.2,5-21c5-16.8,4.7-34.1,4-51.3
		c-0.1-5.9-1-11.7-2.6-17.3c-2.3-7.3-9.3-8.2-14.4-2.4c-3.2,3.6-6,7.5-9,11.3c-0.7,1.1-1.6,2-2.7,2.8c-0.9,0.4-1.9,0.6-2.9,0.6
		c0-0.9-0.3-2,0-2.7c4.4-7.2,9.5-13.9,17.3-17.8c7.4-3.6,12.6-1.9,14.7,6c1.6,6.1,1.4,12.7,2,19.1c0,0.9,0,1.7,0,2.6L47.3,101z"/>
	<path class="st1" d="M137.4,69.5c-1.6,0.3-3.1,0.5-4.7,0.5c-15-0.7-26.8,5.9-37.5,15.8c-8.8,8.1-15.5,17.9-22.7,27.3
		c-3.5,4.6-6.8,9.3-10.3,13.9c-1.2,1.6-2.7,3.2-5.5,1.8c1.3-1.7,2.1-3.8,3.6-4.6c5.7-3.4,8.6-9,11.9-14.2
		c7.1-11.3,15.7-21.4,25.7-30.3c10.7-9.5,22.9-14.2,37.3-11.8c0.8,0.2,1.6,0.4,2.4,0.7L137.4,69.5z"/>
	<path class="st1" d="M110.5,130.3c19.5-0.1,33.8-8.1,42.1-26.4c1.7,1.3,2.1,3.8,0.8,5.5c-7.2,13.1-18.1,20.5-33.2,21.4
		c-2.8,0.1-5.7,0-8.5-0.3C111.2,130.6,110.8,130.5,110.5,130.3z"/>
	<path class="st1" d="M101.1,109.9c-1.6,1.5-3.4,2.8-5.4,4c-1.4,0.6-4.9-2.6-4.2-3.9c0.7-1.5,2-2.5,3.6-2.9c1.9-0.2,3.8,0.9,5.8,1.4
		L101.1,109.9z"/>
	<path class="st1" d="M73.3,169.3c4.2,0,6.1,1.7,5.9,4.3c-0.1,2.2-1.4,4.4-3.5,3.6c-2.1-0.8-3.8-3.3-5.7-5L73.3,169.3z"/>
	<path d="M96,171.1l2.8,7.4l2.8-7.4h3.4l-4.7,11.8h-2.8l-4.7-11.8H96z"/>
	<path d="M107.4,167.1c0.3-0.3,0.8-0.5,1.3-0.5c0.5,0,1,0.1,1.3,0.5c0.3,0.3,0.5,0.7,0.5,1.2c0,0.4-0.2,0.9-0.5,1.2
		c-0.8,0.6-1.8,0.6-2.6,0c-0.3-0.3-0.5-0.7-0.5-1.2C106.9,167.8,107.1,167.4,107.4,167.1z M110.4,182.9v-11.8h-3.3v11.8H110.4z"/>
	<path d="M113.3,182.9v-17.8h3.3v17.8H113.3z"/>
	<path d="M120.1,182.9v-17.8h3.3v17.8H120.1z"/>
	<path d="M127.1,172.5c1.6-1,3.4-1.5,5.2-1.4c2.3-0.2,4.4,1.5,4.6,3.8c0,0.3,0,0.6,0,0.9v7.1h-3.3V182c-0.8,0.6-1.7,0.9-2.6,0.9
		c-1.3,0.1-2.5-0.3-3.5-1c-0.8-0.7-1.2-1.7-1.2-2.8c0-1.1,0.4-2.1,1.1-3c0.9-1,2.3-1.4,3.6-1.3c0.9,0,1.8,0.3,2.6,0.7v-0.4
		c0-0.9-0.6-1.3-1.9-1.4c-1.1-0.1-2.3,0.2-3.3,0.7L127.1,172.5z M133.6,179.4v-1.3c-0.3-0.6-1.1-0.9-2.3-0.9
		c-1.4,0.2-2.2,0.7-2.3,1.7c0.1,0.9,0.8,1.5,2.3,1.6C132.6,180.3,133.3,180,133.6,179.4z"/>
	<path d="M151.1,171.5V182c0,1.5-0.5,3-1.5,4.2c-0.9,1.1-2.3,1.7-3.7,1.8h-0.7c-2,0.1-3.9-0.6-5.3-2l1.6-1.8c0.9,0.7,2,1,3.2,1.1
		c0.9,0.1,1.9-0.2,2.6-0.9c0.4-0.6,0.7-1.2,0.7-2v-0.6c-0.9,0.7-2,1.1-3.2,1.1c-1.5,0.1-3-0.5-4.1-1.6c-1-1.2-1.4-2.8-1.4-4.3
		c-0.1-1.6,0.5-3.1,1.5-4.3c1.1-1.1,2.6-1.8,4.2-1.7c1.1,0,2.1,0.3,2.8,1.1v-1.1L151.1,171.5z M147.8,178.1v-1.9
		c-0.1-1.3-1.2-2.3-2.5-2.3c-1.6-0.1-3,1.1-3.1,2.7c0,0.1,0,0.2,0,0.2c0.1,2.2,1.1,3.4,3.2,3.4C146.8,180,147.6,179.3,147.8,178.1
		L147.8,178.1z"/>
	<path d="M152.8,177c-0.1-3.1,2.3-5.8,5.4-5.9c0.2,0,0.3,0,0.5,0c1.6-0.1,3.1,0.5,4.1,1.7c1.1,1.2,1.6,2.7,1.6,4.3v1.2h-8.2
		c0.1,0.6,0.4,1.1,0.8,1.5c0.5,0.4,1.1,0.5,1.7,0.5c1.1,0,2.1-0.3,3-0.9l1.9,1.9c-1.2,1.3-3,2-4.9,1.8c-3.1,0.1-5.8-2.3-5.9-5.4
		C152.8,177.3,152.8,177.2,152.8,177L152.8,177z M160.4,174.3c-1-0.7-2.3-0.7-3.3,0c-0.5,0.3-0.7,0.9-0.7,1.5h4.7
		C161.1,175.2,160.9,174.7,160.4,174.3L160.4,174.3z"/>
	<path d="M175.3,187.9v-16.5l3.3-0.3v0.9c0.7-0.6,1.7-0.9,2.6-0.9c1.6-0.1,3.2,0.6,4.3,1.8c2.1,2.4,2.1,5.9,0,8.3
		c-1.1,1.2-2.7,1.9-4.3,1.8c-1,0-1.9-0.3-2.6-1v6L175.3,187.9z M178.6,175.9v1.9c0.1,1.3,1.2,2.3,2.5,2.3c1.7,0,3-1.3,3.2-2.9
		c-0.1-2.2-1.1-3.4-3.2-3.4C179.6,174.1,178.7,174.8,178.6,175.9L178.6,175.9z"/>
	<path d="M189.7,172.5c1.6-1,3.4-1.5,5.2-1.4c2.3-0.2,4.4,1.5,4.6,3.8c0,0.3,0,0.6,0,0.9v7.1h-3.3V182c-0.8,0.6-1.7,0.9-2.6,0.9
		c-1.3,0.1-2.5-0.3-3.5-1c-0.8-0.7-1.2-1.7-1.2-2.8c0-1.1,0.4-2.1,1.1-3c0.9-1,2.3-1.4,3.6-1.3c0.9,0,1.8,0.3,2.6,0.7v-0.4
		c0-0.9-0.6-1.3-1.9-1.4c-1.1-0.1-2.3,0.2-3.3,0.7L189.7,172.5z M196.2,179.4v-1.3c-0.3-0.6-1.1-0.9-2.3-0.9
		c-1.4,0.2-2.2,0.7-2.3,1.7c0.1,0.9,0.8,1.5,2.3,1.6C195.1,180.3,195.8,180,196.2,179.4L196.2,179.4z"/>
	<path d="M205.8,175.4v7.5h-3.3v-11.5l3.3-0.3v1.1c0.8-0.7,1.8-1.1,2.8-1.1c1.3-0.1,2.6,0.4,3.4,1.4c0.8,0.9,1.2,2,1.2,3.2v7.3h-3.3
		v-6.5c0-0.7-0.2-1.3-0.6-1.8c-0.5-0.5-1.1-0.7-1.8-0.7C206.9,174,206.3,174.5,205.8,175.4z"/>
	<path d="M221.4,182.9c-1.2,0.1-2.3-0.3-3.2-1.1c-0.8-0.8-1.2-1.8-1.2-2.9v-5.1h-1.8v-2.7h1.8V168l3.3-0.4v3.6h1.8v2.6h-1.8v4.7
		c-0.1,0.5,0.1,1,0.4,1.3c0.3,0.3,0.6,0.4,1,0.4c0.3,0,0.6-0.1,0.9-0.2l0.7,2.4C222.8,182.8,222.1,183,221.4,182.9z"/>
	<path d="M228.4,172.4c0.8-0.9,2-1.3,3.2-1.3c0.4,0,0.7,0,1.1,0.1l-0.5,3.3c-0.5-0.4-1.1-0.6-1.7-0.6c-0.8,0.1-1.5,0.6-2,1.7v7.3
		h-3.3v-11.5l3.3-0.3L228.4,172.4z"/>
	<path d="M242.1,178.8v-7.7h3.3V182c0,1.5-0.5,3-1.6,4.2c-0.9,1.1-2.3,1.7-3.7,1.8h-0.7c-1.7-0.1-3.3-0.8-4.5-2l1.6-1.8
		c0.8,0.6,1.7,1,2.7,1.2c0.8,0.1,1.6-0.2,2.2-0.8c0.5-0.6,0.7-1.4,0.7-2.2v-0.6c-1.9,1.5-4.6,1.4-6.3-0.3c-0.8-0.9-1.2-2-1.2-3.2
		V171h3.3v6.5c0,0.7,0.2,1.3,0.6,1.8c0.8,0.9,2.2,0.9,3.1,0.1C241.9,179.2,242,179,242.1,178.8L242.1,178.8z"/>
</g>
</svg>
