<?xml version="1.0" encoding="utf-8"?>
<!-- Generator: Adobe Illustrator 21.1.0, SVG Export Plug-In . SVG Version: 6.00 Build 0)  -->
<svg version="1.1" id="Layer_1" xmlns="http://www.w3.org/2000/svg" xmlns:xlink="http://www.w3.org/1999/xlink" x="0px" y="0px"
	 viewBox="0 0 250 250" style="enable-background:new 0 0 250 250;" xml:space="preserve">
<style type="text/css">
	.st0{fill:#ED1C24;}
</style>
<title>Grocery</title>
<path class="st0" d="M177.2,169.4h-0.7c-7.5,0-15.1,0-22.6,0c-0.5,0-0.8-0.1-0.9-0.7c-2.3-10.1-4.6-20.1-6.9-30.2l-4.7-20.6
	c0-0.1-0.1-0.3-0.2-0.4v51.7h-19.6V81.7h25.1l10.7,50.2h0.1V81.7h19.7L177.2,169.4z"/>
<path class="st0" d="M115.8,125.5c0,8.3,0,16.6,0,24.9c0.2,5.5-2.1,10.8-6.1,14.6c-2.9,2.7-6.5,4.4-10.4,5.1c-4.5,0.8-9,1-13.5,0.7
	c-2.9-0.1-5.9-0.6-8.6-1.6c-6.8-2.3-11.8-8.2-12.8-15.3c-0.2-1.1-0.3-2.3-0.3-3.4c0-16.6,0-33.2,0-49.8c-0.2-6.2,2.6-12.1,7.6-15.8
	c2.8-2.1,6-3.5,9.5-4c5.1-0.8,10.2-0.9,15.3-0.3c4.7,0.3,9.2,2.2,12.9,5.2c3.5,3,5.7,7.3,6.2,11.9c0.1,1.2,0.2,2.5,0.2,3.7
	C115.8,109.4,115.8,117.5,115.8,125.5z M95.2,125.5c0-3.6,0-7.1,0-10.7c0-3.4,0-6.8,0-10.2c0-2.9-2.3-5.2-5.2-5.3
	c-1.4,0-2.8,0.6-3.8,1.6c-1,1.1-1.6,2.6-1.5,4.1c0,13.6,0,27.2,0,40.8c0,0.1,0,0.3,0,0.4c0,2.9,2.4,5.2,5.3,5.2
	c2.9,0,5.2-2.4,5.2-5.3C95.2,139.3,95.2,132.4,95.2,125.5z"/>
<path class="st0" d="M182.6,136.3h20.1v0.7c0,2.8,0,5.7,0,8.5c-0.1,3.4,2.6,6.3,6,6.3c0.7,0,1.4-0.1,2.1-0.3
	c1.3-0.3,2.4-1.2,2.9-2.5c1.9-5.3,0.9-9.6-3.8-12.7c-2.1-1.3-4.3-2.4-6.6-3.2c-3.9-1.6-7.7-3.5-11.3-5.7c-4.7-2.9-8-7.7-9-13.1
	c-1.3-6-1.2-12.2,0.2-18.2c1.5-6.5,6.3-11.8,12.6-13.8c5-1.7,10.3-2.3,15.6-2c2.9,0.1,5.7,0.5,8.5,1.3c7.1,1.9,12.4,7.7,13.8,14.9
	c0.7,3.7,1,7.5,0.8,11.2c0,1.4,0,2.9,0,4.3c0,0.2,0,0.4,0,0.7h-20.2c0-0.3,0-0.5,0-0.8c0-2.6,0-5.1-0.1-7.7c-0.1-3.1-2.1-4.8-5.1-5
	c-5.3-0.3-7.9,5-6,9.5c0.9,1.9,2.4,3.5,4.2,4.5c2.4,1.3,4.9,2.5,7.3,3.7c4.3,1.8,8.3,4.2,12.1,6.9c4.2,3,7.1,7.5,8.1,12.6
	c0.6,3.6,0.8,7.3,0.6,11c-0.1,2.9-0.6,5.7-1.4,8.4c-2,6.8-7.5,12-14.4,13.7c-4.4,1.2-9,1.6-13.5,1.3c-3.4-0.1-6.7-0.7-9.9-1.7
	c-4.2-1.2-7.8-3.9-10.3-7.5c-1.8-2.7-2.9-5.9-3.1-9.2c-0.2-5.2-0.3-10.3-0.4-15.5C182.6,136.6,182.6,136.5,182.6,136.3z"/>
<path class="st0" d="M4.7,81.7h20.1c0.5,0,0.8,0.1,0.9,0.7c0.8,6,1.7,12,2.5,17.9c0.7,5.3,1.5,10.6,2.2,15.9c0.7,5,1.4,10,2.1,15
	c0.4,3.2,0.9,6.3,1.3,9.5h0.1l8.2-59H63c-0.2,1-0.4,1.9-0.5,2.8L56.2,116l-7.5,37.8c-1,4.9-2,9.9-2.9,14.8c-0.1,0.6-0.3,0.8-0.9,0.7
	c-7.3,0-14.7,0-22,0c-0.6,0-0.8-0.1-0.9-0.7c-1.7-8.6-3.4-17.2-5.1-25.8c-1.8-8.8-3.5-17.5-5.2-26.3S8.1,99,6.3,90.3l-1.6-8.1
	C4.7,82,4.7,81.9,4.7,81.7z"/>
<path class="st0" d="M240.1,161.6c2.5,0,4.6,2.1,4.6,4.6c0,2.5-2.1,4.6-4.6,4.6c-2.5,0-4.6-2.1-4.6-4.6S237.5,161.6,240.1,161.6
	C240.1,161.6,240.1,161.6,240.1,161.6z M236,166.3c0,2.3,1.8,4.1,4.1,4.1c0,0,0,0,0,0c2.3,0,4.1-1.8,4.1-4.1c0-2.3-1.8-4.1-4.1-4.1
	C237.8,162.1,236,164,236,166.3C236,166.3,236,166.3,236,166.3L236,166.3z"/>
<path class="st0" d="M240.1,170.8c-2.5,0-4.5-2-4.5-4.5c0-2.5,2-4.5,4.5-4.5c2.5,0,4.5,2,4.5,4.5c0,0,0,0,0,0
	C244.6,168.8,242.6,170.8,240.1,170.8z M240.1,162.3c-2.2,0-4,1.8-4,4s1.8,4,4,4s4-1.8,4-4S242.3,162.3,240.1,162.3z"/>
<path class="st0" d="M237.9,168.8v-5.1h2.3c0.4,0,0.7,0,1,0.1c0.2,0.1,0.4,0.3,0.6,0.5c0.1,0.2,0.2,0.5,0.2,0.8
	c0,0.3-0.1,0.7-0.3,0.9c-0.3,0.3-0.7,0.4-1.1,0.5c0.1,0.1,0.3,0.2,0.4,0.3c0.2,0.2,0.4,0.4,0.6,0.7l0.9,1.3h-0.9l-0.7-1.1
	c-0.2-0.3-0.4-0.5-0.5-0.7c-0.1-0.1-0.2-0.3-0.3-0.3c-0.1-0.1-0.2-0.1-0.3-0.1h-0.4h-0.8v2.3H237.9z M238.5,166h1.5
	c0.2,0,0.5,0,0.7-0.1c0.2-0.1,0.3-0.2,0.4-0.3c0.1-0.1,0.1-0.3,0.1-0.5c0-0.2-0.1-0.5-0.3-0.6c-0.2-0.2-0.5-0.3-0.8-0.2h-1.6V166z"
	/>
</svg>
