<?xml version="1.0" encoding="utf-8"?>
<!-- Generator: Adobe Illustrator 21.1.0, SVG Export Plug-In . SVG Version: 6.00 Build 0)  -->
<svg version="1.1" id="Layer_1" xmlns="http://www.w3.org/2000/svg" xmlns:xlink="http://www.w3.org/1999/xlink" x="0px" y="0px"
	 viewBox="0 0 250 250" style="enable-background:new 0 0 250 250;" xml:space="preserve">
<style type="text/css">
	.st0{fill:#00AA67;}
	.st1{fill:#EE3E43;}
</style>
<title>Grocery</title>
<path class="st0" d="M185.1,123.7c5-5.3,8.6-5.3,12.4,0.1c0.9-0.4,1.2-1.3,1.8-2c1.9-2.2,4.3-2.3,6.8-1.7c2.5,0.7,3.2,2.3,3.4,4.7
	c0.7,8.3,0.1,16.7,0.3,25c0,1.1-0.5,1.5-1.5,1.5c-1.7,0-3.3-0.1-5,0s-2.3-0.5-2.2-2.2c0.1-6.1,0-12.3,0-18.4c0-0.6,0-1.2,0-1.8
	c-0.1-1.1-0.6-2.2-1.9-2.1c-1.3,0.1-1.7,1.1-1.7,2.3c0,6.6,0,13.2,0,19.8c0,1.8-0.5,2.7-2.4,2.5c-1.4-0.1-2.9-0.1-4.3,0
	c-1.6,0.1-2.1-0.5-2.1-2.1c0.1-6.1,0-12.3,0-18.4c0-0.6,0-1.2,0-1.8c-0.2-1.2-0.8-2.2-2.1-2.2c-1.4,0-1.6,1.1-1.6,2.1
	c-0.1,2.9-0.1,5.8-0.1,8.6c0,4-0.1,7.9,0,11.8c0,1.5-0.4,2.1-2,2c-1.7-0.1-3.5,0-5.2,0c-1,0-1.6-0.3-1.6-1.4
	c0.2-9.2-0.3-18.3,0.2-27.5c0.1-1.7,0.7-2.3,2.4-2.1c0.8,0,1.7,0,2.5,0C184.5,120.4,184.5,120.4,185.1,123.7z"/>
<path class="st0" d="M16.7,135c1.3-4.1,1.2-8.4,1.8-12.5c0.2-1.3,0.7-1.7,1.9-1.6s2.3,0,3.4,0c3.2,0,3.3,0.2,3.5,3.5
	c0.2,1.9,0.7,3.9,0.8,5.8c0,2,0.4,4,1,5.9c1-3.1,1.6-6.4,1.8-9.6c0.4-5.6,0.3-5.5,5.8-5.6c1.6,0,2.4,0.1,2.1,2.2
	c-0.9,5.5-1.6,11-2.2,16.6c-0.3,3.4-0.8,6.7-1.1,10.1c-0.1,1.7-0.7,2.3-2.3,2.2c-2.3-0.1-4.5-0.3-6.8-0.4c-1.1,0-1.4-0.5-1.5-1.5
	c-0.4-2.9-0.9-5.8-1.3-8.7c0-0.9-0.4-1.8-1.1-2.4c-0.5,3.7-1.2,7.2-1.5,10.7c-0.1,1.4-0.6,2.1-2,2.1c-2.3,0.1-4.5,0.1-6.8,0.1
	c-1.2,0-1.3-0.7-1.4-1.6c-0.9-5.1-1.8-10.2-2.7-15.4c-0.7-4.2-1.2-8.3-2-12.5c-0.3-1.3,0.2-1.6,1.3-1.6c1.1,0,2.3,0,3.4,0
	c4,0,3.8,0,4.2,4C15.2,128.2,15.8,131.6,16.7,135z"/>
<path class="st0" d="M111.1,123.7c1.3-2.8,4.2-4.3,7.2-3.8c2.7,0.2,4.8,2.3,5,5c-0.1,5.8,0.8,11.6,0.5,17.5c0,1.3-0.2,2.7-0.5,4
	c-1.3,5.4-7.1,7.4-11.7,4.1c-0.3-0.2-0.5-0.8-0.9-0.3c-2.4,2.6-5.3,0.6-8,1.1c-0.8,0.1-0.9-0.8-0.9-1.5c0-11.8,0-23.7,0-35.5
	c0-1.1,0.4-1.7,1.6-1.6h0.2c6.9-0.3,6.9-0.3,6.9,6.5c0,1.3,0,2.7,0.1,4.1C110.7,123.4,110.9,123.5,111.1,123.7z M114.6,135.9
	c0-2.3,0-4.5,0-6.8c0-1.3-0.5-2.2-2-2.2c-1.4,0-2,0.9-2,2.2c0,4.5,0,9.1,0,13.6c0,1.4,0.7,2.4,2.2,2.3c1.5,0,1.9-1,1.9-2.3
	C114.6,140.5,114.6,138.2,114.6,135.9L114.6,135.9z"/>
<path class="st0" d="M89.9,149.6c-2.8,2.8-5.9,2.6-9,1.9c-2.4-0.5-4-3-4-6.1c-0.1-6.7-0.1-13.3,0-20c0-2.3,1.5-4.4,3.7-5.1
	c2.3-0.9,5-0.4,6.7,1.3c0.9,0.9,1.8,1.8,2.6,2.8c0-3.4,0.1-6.2,0-9c-0.1-2.1,0.5-2.9,2.7-2.9c6,0.1,6,0,6,6.1c0,10.1,0,20.3,0,30.4
	c0,1.8-0.5,2.5-2.3,2.3c-1.4-0.1-2.9,0-4.3,0C91.1,151.4,89.7,151.7,89.9,149.6z M85.6,135.9c0,2.1,0,4.2,0,6.3c0,1.5,0.5,3,2.1,3.1
	c1.8,0.1,2.3-1.5,2.3-3c0.1-4.2,0.1-8.5,0-12.7c0-1.4-0.5-2.8-2.3-2.7c-1.8,0.1-2.1,1.5-2.1,2.9C85.6,131.8,85.6,133.8,85.6,135.9
	L85.6,135.9z"/>
<path class="st0" d="M164,149.5c-2.8,3.1-6.1,2.7-9.2,1.8c-2-0.7-3.3-2.6-3.2-4.8c-0.1-8.2,0-16.4,0-24.6c0-1.2,0.4-1.7,1.6-1.6h0.2
	c6.9-0.3,6.9-0.3,6.9,6.5c0,5,0,10,0,15c0,1.5,0.2,3.2,2,3.2s2.5-1.6,2.5-3.2c0-6.3,0.1-12.6,0-18.9c0-2,0.4-2.8,2.7-2.7
	c6.2,0.1,6.4,0,6.1,6.2c-0.3,7.6,0.4,15.1-0.3,22.7c-0.1,1.6-0.5,2.4-2.2,2.2c-1.4-0.1-2.9-0.1-4.3,0
	C165.3,151.5,164.1,151.5,164,149.5z"/>
<path class="st0" d="M148.4,138.6c0,3.6,0,7.3,0,10.9c0,1.3-0.4,2-1.8,1.9c-1.7-0.1-3.5,0-5.2,0c-0.4,0-1,0-1.1-0.1
	c-0.9-2.5-1.9-0.6-3.1-0.2c-2,0.8-4.1,1-6.2,0.6c-2.7-0.5-4.7-2.9-4.5-5.7c0-0.2,0-0.3,0-0.5c-0.9-6.3,1.5-10.4,7.7-12.5
	c2.1-0.7,4.2-1.7,5.1-4.1c0.5-1,0.3-2.3-0.5-3.1c-0.4-0.6-1.2-0.8-1.8-0.5c-1.1,0.4-1.7,1.5-1.7,2.7c-0.3,3-0.3,3-3.4,3H130
	c-3.7,0-4.3-0.8-3.4-4.4c0.4-1.7,1.4-3.2,2.8-4.3c4.2-3.3,12.2-3.1,16.4,0.2c1.7,1.3,2.7,3.4,2.7,5.5
	C148.4,131.5,148.4,135.1,148.4,138.6z M139.7,140.2c0-1,0-1.8,0-2.5c0-0.7,0.2-1.3-0.4-1.6s-1.3,0.2-1.8,0.6
	c-2.1,1.9-2.9,4.9-1.9,7.6c0.3,0.8,1.1,1.3,2,1.1c0.8,0,1.5-0.5,1.7-1.2C139.6,142.9,139.8,141.6,139.7,140.2z"/>
<path class="st0" d="M61.9,138.4c0,3.6,0,7.3,0,10.9c0,1.5-0.4,2.3-2,2.2c-1.7-0.1-4,0.7-5.1-0.2c-2.2-1.5-3.5,0.2-5.2,0.5
	c-1.7,0.3-3.3,0.3-5,0c-1.5-0.2-2.9-1.1-3.6-2.5c-2.3-3.8-1.1-11.2,2.4-13.9c1.5-0.9,3.2-1.8,4.8-2.4c1.6-0.7,3-1.7,4.1-3.1
	c0.8-0.9,1-2.2,0.5-3.4c-0.4-0.9-1.5-1.4-2.5-1.1c-1.1,0.1-1.2,0.9-1.2,1.8c0,0.5,0,1.1,0,1.6c0.2,1.6-0.4,2.2-2.1,2.1
	c-1.7-0.1-3.5-0.1-5.2,0c-1.3,0-1.9-0.4-1.9-1.8c-0.3-3.7,2-7.1,5.5-8.3c5-1.6,9.9-1.8,14.3,1.9c1.1,0.8,1.7,2,1.7,3.3
	c0,4.1,0,8.2,0,12.3L61.9,138.4z M53.1,140.1L53.1,140.1c0.1-0.7,0.1-1.3,0.1-2c0-0.7,0.3-1.5-0.3-1.9c-0.7-0.4-1.3,0.4-2,0.8
	c-2.5,1.6-1.5,4.2-1.7,6.4c-0.1,1.2,0,2.4,1.6,2.5c1.2,0,2.2-0.9,2.3-2.1C53.1,142.5,53.2,141.2,53.1,140.1L53.1,140.1z"/>
<path class="st0" d="M230.3,130.9H229c-3.1,0-3.2,0-3.2-3c0-1.1-0.2-2.1-1.3-2.7c-0.7-0.3-1.6,0-2,0.6c-0.7,0.8-0.9,2-0.4,3
	c0.8,1.9,2.5,2.7,4.1,3.7c2,1.3,4.4,1.9,6.1,3.9c3.6,4.1,3.1,10.8-1.4,13.8c-3.1,2.1-6.7,1.6-10.3,1.4c-6.4-0.4-7.9-4.9-7.9-10
	c0-1.5,0.5-2.3,2.1-2.2c1.6,0.1,3.5,0.1,5.2,0c1.3,0,1.9,0.5,1.8,1.9c-0.1,1-0.1,2,0,3c0,1.4,0.9,2,2.2,2c1.3,0,1.7-0.8,1.8-2
	c0.2-2.2-1-4.3-3-5.3c-1.6-0.9-3.3-1.7-5-2.7c-4.2-2.6-5.7-5.3-4.7-9.8c0.8-3.9,3.9-5.6,7.3-6.2c4.5-0.8,8.9-0.6,12.6,2.8
	c2,1.9,1.9,4.5,1.9,7c0,0.8-0.7,0.9-1.3,0.9L230.3,130.9z"/>
<path class="st0" d="M65.5,131.9c0-5.6,0-11.2,0-16.8c0-1.8,0.3-2.5,2.4-2.5c6,0.1,6,0,6,5.9c0,10.1,0,20.2,0,30.2
	c0,2-0.5,2.8-2.7,2.9c-5.7,0.1-5.7,0.2-5.7-5.6C65.4,141.3,65.5,136.6,65.5,131.9z"/>
<path class="st1" d="M211.7,122.7c-1.9-5.7-6.5-6.1-11.3-6.2c-4.7-0.2-9.2-1.3-12.2-5.6c-1.5-2.1-1.8-4.5-2.5-6.7
	c-0.4-2-0.6-4.1-0.5-6.2c1.6,3.4,4.5,6,8,7.2c3.1,1.1,6.3,1.9,9.6,2.4c4.6,0.8,7,3.8,8.4,7.9c0.2,0.5-0.1,1.2,0.6,1.3
	c0.9,0.1,0.8-0.8,1-1.3c1.3-3.6,3.2-7,5.5-10c1.8-2.1,4.1-3.6,6.7-4.4c0.7-0.2,1.3-0.2,2-0.1c1,0.2,2,0.9,1.9,1.9s-1.3,0.5-1.9,0.5
	c-6.4,0-9.5,4.2-12,9.1C213.4,115.6,212.3,119.1,211.7,122.7z"/>
<path class="st1" d="M211.6,112.2c-3.2-5.6-8.3-6.3-13.3-7.2c-3.5-0.4-6.8-2-9.3-4.6c-0.7-0.6-1.1-1.4-1.3-2.3
	c5.2,1.8,10.5,1.1,15.7,1.7c2.4,0.3,4.6,1.7,6,3.7C211.1,106,212,109.1,211.6,112.2z"/>
<path d="M240.1,124.6c0-1.5,0-3.1,0-4.6c0-0.3,0-0.6,0.4-0.7c0.5-0.1,0.9,0.1,1.1,0.5c0.4,0.9,0.8,1.9,1.3,3.1
	c0.5-1.2,0.9-2.1,1.2-3.1c0.2-0.6,0.6-0.6,1-0.6s0.8,0.4,0.7,0.9c0.1,1.6,0,3.2-0.3,4.8c-1.1-1.2-0.5-2.4-1-3.7l-1.7,3.5l-1.7-3.4
	C240.7,122.5,241.3,123.7,240.1,124.6z"/>
<path d="M239.2,119.7c-3.5,0.5-1,3.4-2.3,4.9c-1.3-1.3,0.9-4.1-2.3-4.8C236.1,119.1,237.7,119.1,239.2,119.7z"/>
</svg>
