<?xml version="1.0" encoding="utf-8"?>
<!-- Generator: Adobe Illustrator 21.1.0, SVG Export Plug-In . SVG Version: 6.00 Build 0)  -->
<svg version="1.1" id="Layer_1" xmlns="http://www.w3.org/2000/svg" xmlns:xlink="http://www.w3.org/1999/xlink" x="0px" y="0px"
	 viewBox="0 0 250 250" style="enable-background:new 0 0 250 250;" xml:space="preserve">
<style type="text/css">
	.st0{fill:#73B745;}
	.st1{fill:#0073AC;}
	.st2{fill:#EFB541;}
	.st3{fill:#F8FBF6;}
</style>
<title>Grocery</title>
<path class="st0" d="M99.1,135c28.3,0,56.7,0,85,0c2.4-0.1,4.7,0.7,6.3,2.4c1.6,1.6,2.4,3.7,2.4,5.9c0,3.8,0,7.6,0,11.4
	c0.1,4.5-3.5,8.2-8,8.3c0,0-0.1,0-0.1,0c-56.9,0-114.2,0-171.1,0c-4.5,0.1-8.2-3.4-8.3-7.8c0-0.1,0-0.3,0-0.4
	c0.2-3.7,0.1-7.8,0-11.5c-0.2-4.4,3.3-8.1,7.7-8.3c0.2,0,0.4,0,0.6,0C42,135,70.7,135,99.1,135z M139.6,146.1h0.1
	c0.1,2.7,0.3,5.5,0.4,8.2c0,1.5,0,1.5,1.5,1.4c0.5,0,0.7-0.1,0.7-0.7c-0.1-1.8-0.2-3.7-0.3-5.5c-0.2-2.8-0.4-5.5-0.5-8.3
	c0-0.6-0.3-0.8-0.8-0.7c-0.3,0-0.6,0-0.9,0c-0.6-0.1-0.8,0.2-1,0.8c-0.7,2.9-1.5,5.7-2.2,8.6c-0.1,0.3,0.1,0.7-0.3,0.8
	c-0.8-2.9-1.5-5.8-2.3-8.7c-0.4-1.6-0.5-1.6-2.1-1.5c-0.5,0-0.7,0.2-0.7,0.7c-0.3,4.5-0.5,9.1-0.8,13.6c0,0.5-0.2,1.1,0.7,1
	c0.7-0.1,1.4,0.2,1.4-1c0-2.1,0.1-4.2,0.2-6.3c0-0.7,0.1-1.5,0.2-2.2c0.9,2.8,1.6,5.7,2.4,8.5c0.1,0.5,0.3,0.8,1,0.9
	c0.7,0,0.9-0.5,1.1-1.1C138.1,151.7,138.8,148.9,139.6,146.1z M20.1,150.5c-1.3-3.1-2.5-6-3.6-9c-0.2-0.8-1-1.3-1.8-1.1c0,0,0,0,0,0
	c-0.5,0-0.7,0.1-0.7,0.7c0,4.7,0,9.3,0,13.9c0,1.1,0.8,0.5,1.3,0.6c0.5,0.1,0.8,0,0.8-0.6c0-0.9,0-1.9,0-2.8c0-2.2,0-4.3,0-6.7
	c0.1,0.2,0.2,0.3,0.2,0.5c1.2,3,2.4,6,3.6,9c0.4,1,1.3,0.6,1.9,0.6s0.4-0.6,0.4-1c0-4.4,0-8.9,0-13.3c0-0.9-0.3-1-1.1-1
	s-1.1,0.1-1.1,1C20.2,144.4,20.2,147.3,20.1,150.5L20.1,150.5z M44.4,155.2c0.4,2.1-0.7,3.3-2.7,2.8c-0.2,0-0.4-0.1-0.7-0.2
	c-0.3-0.1-0.6-0.3-0.7,0.2c-0.1,0.5-0.9,1.1,0,1.6c1.7,0.8,3.6,0.6,5.1-0.5c1-1,1.5-2.4,1.3-3.8c0-3.2,0-6.4,0-9.6
	c0-0.3,0.3-0.9-0.2-1c-0.6-0.2-1.2-0.2-1.7,0.1c-0.2,0.2-0.2,0.3-0.5,0.2c-1.4-0.9-3.2-0.4-4.1,1c-0.1,0.2-0.3,0.5-0.3,0.7
	c-1,2.2-1,4.7,0,6.9c0.2,0.7,0.7,1.3,1.3,1.7C42.2,155.8,43.5,155.8,44.4,155.2L44.4,155.2z M120.7,144.8c-2.7-0.9-4.2-0.1-4.9,2.5
	c-0.7,2.3-0.5,4.7,0.5,6.9c0.6,1.4,2.1,2,3.5,1.5c0.2-0.1,0.4-0.2,0.5-0.3c0.3-0.2,0.5-0.5,0.8,0.1c0.4,0.5,1.1,0.2,1.6,0.2
	s0.3-0.6,0.3-0.9c0-4.6,0-9.2,0-13.8c0-0.7-0.2-1-0.9-0.9c-0.2,0-0.5,0-0.7,0c-0.7-0.1-0.8,0.2-0.8,0.8
	C120.8,142.2,120.7,143.5,120.7,144.8L120.7,144.8z M62.2,145.1c0-1.3,0-2.5,0-3.6c0-0.7,0.3-1.5-1.1-1.5c-1.3,0-1.1,0.6-1.1,1.4
	c0,4.5,0.2,8.9-0.1,13.3c0,0.3-0.3,0.8,0.2,0.9c0.5,0.1,1.3,0.4,1.7-0.2c0.3-0.4,0.3-0.3,0.6-0.1c1.2,0.9,2.9,0.6,3.7-0.6
	c0.1-0.1,0.2-0.3,0.3-0.4c1.2-2.3,1.5-4.9,0.7-7.4c-0.2-1-0.8-1.8-1.7-2.3C64.4,144.2,63.1,144.4,62.2,145.1z M88.7,145.1
	c0-1.5-0.1-2.8,0-4.2c0.1-1.1-0.6-0.8-1.2-0.8c-0.6,0-1.2-0.2-1.2,0.9c0.1,4.6,0.1,9.3,0,13.9c0,1.2,0.8,0.8,1.3,0.9
	c0.5,0.1,1-0.1,1-0.9c0-2.1,0-4.3,0-6.4c-0.1-0.5,0-0.9,0.3-1.3c0.3-0.5,0.7-0.9,1.3-0.8c0.6,0.1,0.9,0.6,0.9,1.2c0,0.4,0,0.9,0,1.3
	c0,2,0,4,0,6c0,0.6,0.2,0.9,0.8,0.8c0.3,0,0.6,0,1,0c0.4,0,0.6-0.1,0.6-0.5c0-2.5,0.1-5.1,0-7.7C93.5,145,91.4,143.5,88.7,145.1
	L88.7,145.1z M52.1,145.1c0-1.4-0.1-2.8,0-4.1c0.1-1-0.5-0.9-1.1-1c-0.7,0-1.2,0-1.2,1c0.1,4.4,0,8.8,0,13.2c0,1.7-0.3,1.4,1.5,1.5
	c0.7,0,0.9-0.3,0.8-0.9c0-2.1,0-4.1,0-6.2c0-0.6,0.1-1.1,0.4-1.6c0.2-0.5,0.7-0.8,1.3-0.7c0.5,0.1,0.9,0.5,0.9,1
	c0.1,0.5,0.1,1,0.1,1.5c0,1.8,0,3.6,0,5.4c0,1.5,0,1.5,1.6,1.4c0.5,0,0.6-0.2,0.6-0.6c0-2.7,0-5.2,0-7.8c0-1.4-0.9-2.5-2.2-2.8
	C53.8,144.3,52.8,144.5,52.1,145.1L52.1,145.1z M163.5,151.2h0.3c0.5,1,1,2.1,1.5,3.1c0.7,1.6,0.7,1.6,2.5,1.5
	c0.6,0,0.6-0.2,0.3-0.7c-0.7-1.4-1.3-2.9-2.2-4.3c-0.7-0.9-0.6-2.1,0.1-2.9c0.8-1.1,1.5-2.2,2.1-3.3c-0.4,0-0.8,0-1.2,0
	c-0.9-0.2-1.8,0.3-2,1.2c-0.4,0.9-0.9,1.8-1.6,2.5c0-2.4,0-4.6,0-6.9c0-1.5,0.2-1.3-1.3-1.3c-0.1,0-0.3,0-0.4,0
	c-0.4,0-0.5,0.2-0.5,0.6c0,4.8,0,9.6,0,14.4c0,0.2-0.1,0.5,0.2,0.6c0.6,0.2,1.2,0.2,1.8,0c0.5-0.2,0.2-0.7,0.3-1.1
	C163.3,153.4,163.3,152.3,163.5,151.2L163.5,151.2z M113.4,150.1c0.1-1.2-0.1-2.3-0.5-3.4c-0.5-1.4-1.7-2.3-3.1-2.3
	c-1.4-0.1-2.7,0.8-3.2,2.1c-1.2,2.5-1.1,5.5,0.4,7.9c1,1.5,3,1.9,4.5,0.9c0.3-0.2,0.6-0.5,0.9-0.9
	C113.1,153.1,113.5,151.6,113.4,150.1L113.4,150.1z M103.8,150.1c0-1.1-0.1-2.2-0.5-3.2c-0.4-1.4-1.6-2.3-3.1-2.5
	c-1.4-0.1-2.7,0.7-3.3,2c-1.3,2.5-1.2,5.6,0.3,8c1,1.5,3,1.9,4.5,0.9c0.3-0.2,0.6-0.5,0.9-0.9C103.4,153.1,103.8,151.6,103.8,150.1
	L103.8,150.1z M69.6,150.4c0,1.4,0.4,2.8,1.1,4c1,1.5,3,2,4.5,1c0.4-0.3,0.7-0.6,1-1c1.3-2.2,1.5-4.9,0.6-7.4
	c-0.4-1.5-1.7-2.6-3.3-2.6c-1.5,0-2.9,1.1-3.3,2.5C69.7,148.1,69.5,149.2,69.6,150.4L69.6,150.4z M151.4,151.4c0-1.2,0-2.2,0-3.2
	c0-3.8-3.1-4.5-5.7-3.2c-0.2,0.1-0.5,0.1-0.4,0.5c0.1,0.4,0.2,0.9,0.5,1.2c0.3,0.3,0.6-0.2,0.9-0.3c0.2-0.1,0.4-0.1,0.7-0.1
	c1.1-0.1,1.5,0.3,1.7,1.2c0.2,1.1-0.7,0.9-1.3,1.1c-2.1,0.3-3.6,2.3-3.3,4.5c0,0.1,0.1,0.3,0.1,0.4c0.1,1.5,1.4,2.5,2.9,2.4
	c0.5,0,1-0.2,1.4-0.6c0.1-0.1,0.3-0.4,0.5-0.1c0.4,0.9,1.2,0.3,1.7,0.4c0.3,0.1,0.4-0.2,0.3-0.5
	C151.4,153.9,151.3,152.6,151.4,151.4L151.4,151.4z M174.1,150.6h1.9c0.3,0,0.5,0,0.6-0.3c0.3-1.9-0.3-3.8-1.6-5.2
	c-1.5-1-3.5-0.7-4.6,0.8c-0.2,0.2-0.3,0.5-0.4,0.8c-0.9,1.9-1,4-0.5,5.9c0.9,3.3,3.4,3.8,6.1,2.9c1-0.3,0.2-1.1,0.2-1.6
	c-0.1-0.5-0.5-0.2-0.7-0.2c-2,0.6-3.1,0-3.5-2c-0.2-1-0.1-1.1,0.9-1.1H174.1z M29.6,150.6c0.6,0,1.2,0,1.8,0s0.7-0.1,0.7-0.6
	c0.1-1-0.1-2.1-0.3-3.1c-0.3-1.4-1.5-2.4-2.9-2.5c-1.4-0.1-2.7,0.8-3.2,2.1c-0.9,1.7-1.1,3.8-0.6,5.7c0.8,3.4,2.8,4.2,6,3.4
	c1-0.3,0.5-1,0.4-1.6c-0.1-0.6-0.5-0.4-0.9-0.3c-0.6,0.2-1.1,0.2-1.7,0.1c-1.2-0.4-1.9-1.6-1.7-2.8c0.2-1,1.1-0.3,1.7-0.5
	C29.1,150.5,29.3,150.5,29.6,150.6L29.6,150.6z M181.6,142.2c-0.4,0-0.6,0.2-0.9,0.3c-0.9,0.2-1.5,0.6-1.3,1.6
	c0.1,0.6-0.4,0.5-0.8,0.5c-0.6,0-0.5,0.4-0.4,0.8c0.1,0.3-0.3,1,0.4,1c0.9,0,0.8,0.5,0.9,1.1c0,2-0.1,4,0.1,6c0,1.4,1.2,2.6,2.6,2.5
	c0.3,0,0.7-0.1,1-0.2c0.9-0.3,0.3-1,0.4-1.6c0.1-0.5-0.3-0.5-0.6-0.4c-0.9,0.1-1.2-0.5-1.2-1.2c0-1.5,0-3,0-4.5s0-1.5,1.5-1.6
	c0.6,0,0.6-0.4,0.6-0.8c-0.1-0.4,0.3-1-0.5-1c-0.5,0-1.1,0.2-1.5-0.2c-0.3-0.4-0.1-1.1-0.1-1.6C181.6,142.6,181.6,142.3,181.6,142.2
	L181.6,142.2z M79.7,150.2L79.7,150.2c0,1.6,0,3.2,0,4.7c0,1.1,0.6,0.9,1.2,0.9c0.7,0,1.1,0,1.1-0.9c-0.1-1.9,0-3.7,0-5.6
	c-0.2-1.2,0.7-2.4,1.9-2.5c0,0,0.1,0,0.1,0c0.2,0,0.4,0,0.4-0.3c0-0.6,0.3-1.4-0.2-1.9c-0.5-0.4-1.1,0-1.7,0.3c-0.1,0-0.3,0-0.4,0.1
	c-0.2,0.2-0.3,0.3-0.6-0.1c-0.4-0.7-1.1-0.3-1.7-0.3c-0.6,0-0.3,0.5-0.3,0.8c0,1.6,0,3.1,0,4.7L79.7,150.2z M156.5,145.5
	c-0.1-1.3-1-0.8-1.7-0.9s-0.5,0.6-0.5,1c0,3.1,0,6.1,0,9.2c0,0.3-0.2,0.8,0.3,0.9c0.6,0.1,1.2,0.1,1.7,0c0.5-0.2,0.2-0.8,0.2-1.2
	c-0.1-2,0-4,0.2-6c0-1,0.8-1.8,1.8-1.8c0.2,0,0.5,0,0.5-0.3c0-0.6,0.3-1.5-0.1-1.9s-1.2,0-1.8,0.3c-0.3,0.1-0.5,0.3-0.7,0.4
	L156.5,145.5z M36.8,150.2c0-1.6,0-3.2,0-4.7c0-0.9-0.4-0.9-1-0.8s-1.3-0.3-1.3,0.8c0,3.2,0,6.4,0,9.6c0,1,0.6,0.8,1.1,0.8
	c0.6,0,1.2,0.2,1.1-0.8c-0.1-1.7-0.1-3.4-0.1-4.9L36.8,150.2z M37,142.2c-0.1-0.7-0.8-1.2-1.6-1.1c-0.5,0.1-0.9,0.5-1,1
	c-0.1,0.7,0.5,1.4,1.2,1.4c0,0,0,0,0,0C36.4,143.5,37,142.9,37,142.2L37,142.2z"/>
<path class="st1" d="M17.9,119.9c0.6-1.3,1-2.8,1.2-4.3c1.5-6.7,3.1-13.2,4.5-19.9c0.2-1.1,0.7-1.3,1.7-1.2c1.8,0.1,3.6,0,5.4,0
	c0.5,0,0.8,0.1,0.9,0.7c1.2,6,2.5,11.9,3.8,17.9c0.5,2.5,0.9,4.9,1.3,7.6c0.7-4.2,1.5-8.3,2.4-12.4c0.9-4.3,1.8-8.6,2.7-12.9
	c0.1-0.7,0.4-0.9,1.1-0.9c1.8,0,3.6,0,5.4,0c0.8,0,0.9,0.2,0.7,0.9c-1.1,4.2-2.2,8.4-3.3,12.6c-1.7,6.5-3.4,13-5.1,19.5
	c-0.2,0.7-0.5,1.1-1.2,1.2c-1.1,0.2-2.3,0.2-3.5,0c-2.2-0.5-3.9-2.3-4.2-4.6c-1.2-5.5-2.4-10.9-3.5-16.4c-0.3-1.5-0.5-3-0.7-4.8
	c-0.4,1.9-0.7,3.6-1.1,5.3c-1.3,5.4-2.7,10.8-4,16.2c-0.3,1.2-0.6,2.4-0.9,3.6c-0.1,0.3-0.1,0.6-0.5,0.6c-1.5,0.3-3,0.3-4.4,0.1
	c-1.8-0.4-3.2-1.9-3.6-3.7c-1.1-4-2.1-8-3-12c-1.4-5.7-2.8-11.4-4.2-17.1c-0.3-1.3-0.3-1.3,1-1.3c1.9,0,3.7,0,5.6,0
	c0.6,0,0.8,0.2,0.9,0.7c1.1,5.6,2.1,11.1,3.2,16.7C16.9,114.6,17.4,117.2,17.9,119.9z"/>
<path class="st1" d="M92.4,106.3c3.2-5.1,11.8-5.3,14.5,0.7c0.8-1.1,1.8-2.1,2.9-2.9c3.9-2.7,9.2-1.9,11.7,1.6
	c1.2,1.7,1.9,3.6,2,5.7c0.3,5.5,0.1,11,0.2,16.5c0,0.6-0.2,0.8-0.8,0.8c-1.8,0-3.6,0-5.3,0c-0.7,0-0.9-0.2-0.9-0.9
	c0-4.4,0-8.8,0-13.2c0-1-0.1-2-0.4-3c-0.2-1.8-1.7-3.1-3.4-3.3c-1.9-0.2-3.7,1-4.4,2.8c-0.3,0.8-0.4,1.7-0.4,2.6c0,4.7,0,9.3,0,14
	c0,0.8-0.2,1-1,1c-1.7,0-3.4,0-5.1,0c-0.7,0-0.9-0.2-0.9-0.9c0-4.6,0-9.1,0-13.7c0-1.2-0.2-2.4-0.6-3.5c-0.8-1.9-2.9-2.8-4.8-2
	c-0.3,0.1-0.6,0.3-0.8,0.5c-1.4,0.9-2.3,2.5-2.3,4.2c0,4.8,0,9.6,0,14.4c0,0.8-0.2,1-1,1c-1.7,0-3.5,0-5.2,0c-0.5,0-0.7-0.1-0.7-0.7
	c0-8,0-16,0-24.1c0-0.6,0.2-0.7,0.7-0.7c1.7,0,3.4,0,5.1,0c0.6,0,0.8,0.2,0.7,0.8C92.4,104.7,92.4,105.5,92.4,106.3z"/>
<path class="st1" d="M148.5,118.3c-0.1,3.2,0,6.5,0.3,9.7c0.1,0.5,0,0.7-0.5,0.8c-2.6,0.5-4.8,0.2-6-2.3c-0.4-0.7-0.5-0.3-0.8,0
	c-2.6,2.7-6.6,3.5-10.1,2.2c-3.2-1.1-5.2-4.2-4.9-7.5c0.1-4.5,3.1-6.9,6.5-8.1c2.5-0.8,5-1.2,7.6-1.2c0.9,0,1-0.3,0.8-1
	c-0.3-2-2.1-3.4-4.1-3.2c-2.4-0.1-4.8,0.4-6.9,1.5c-0.7,0.4-0.9,0.2-1.1-0.5c-0.3-1.1-0.6-2.1-0.9-3.1c-0.1-0.4-0.1-0.6,0.3-0.8
	c4.2-2.1,9.1-2.6,13.6-1.3c3.2,0.9,5.5,3.7,5.9,7C148.6,112.9,148.7,115.6,148.5,118.3z M141.7,118.6c0-2.5,0-2.5-2-2.3
	c-1.7,0-3.5,0.5-4.9,1.5c-1.2,0.9-1.6,2.5-1.2,3.9c0.3,1.3,1.4,2.1,2.7,2.2c0.9,0.1,1.8,0,2.5-0.4
	C140.9,122.8,142.1,120.7,141.7,118.6L141.7,118.6z"/>
<path class="st1" d="M69.5,119c0,2.9,0.1,5.8,0.4,8.7c0.1,0.7-0.1,1-0.8,1.1c-2.2,0.3-4.5,0.2-5.8-2.5c-0.4-0.8-0.6,0-0.8,0.1
	c-2.6,2.6-6.5,3.4-10,2.2c-5.3-1.7-6.8-8.9-2.9-12.9c2.3-2.2,5.3-3.5,8.4-3.7c1.2-0.2,2.4-0.2,3.7-0.2c0.9,0,0.9-0.4,0.8-1
	c-0.3-2-2.1-3.4-4.1-3.3c-2.4-0.1-4.7,0.4-6.8,1.5c-0.8,0.4-1,0.2-1.2-0.5c-0.2-1-0.5-2.1-0.9-3.1c-0.2-0.5,0-0.7,0.3-0.8
	c4.3-2.2,9.3-2.6,13.9-1.2c3.9,1.3,5.5,4.4,5.7,8.3C69.7,114.1,69.5,116.5,69.5,119z M62.7,118.6c0-2.5,0-2.5-2-2.3
	c-1.8,0-3.5,0.5-5,1.6c-1.2,1-1.6,2.7-1,4.1c0.5,1.3,1.9,2.1,3.3,2c0.7,0,1.4-0.2,2.1-0.5C62,122.7,63.1,120.6,62.7,118.6z"/>
<path class="st1" d="M170.8,107.8c0-4.1,0-8.3,0-12.4c0-0.7,0.2-0.9,0.9-0.9c1.7,0,3.4,0,5.1,0c0.6,0,0.8,0.1,0.8,0.8
	c0,2.2,0,4.3,0,6.5c0,0.6,0.2,0.8,0.8,0.8c1.5,0,3,0,4.5,0c0.5,0,0.7,0.2,0.7,0.7c0,1.7,0,3.4,0,5c0,0.6-0.2,0.7-0.8,0.7
	c-1.5,0-3,0-4.5,0c-0.5,0-0.8,0.1-0.8,0.7c0.1,3.4-0.2,6.7,0.1,10.1c0.2,2.8,1.6,3.8,4.4,3.2c1.3-0.2,1.3-0.2,1.3,1
	c0,1.2,0,2.4,0,3.6c0,0.4,0,0.7-0.5,0.8c-2.4,0.7-5.1,0.8-7.5,0.1c-2.4-0.8-4.1-3-4.3-5.5c-0.3-2.6-0.4-5.2-0.3-7.8
	C170.8,112.8,170.8,110.3,170.8,107.8z"/>
<path class="st1" d="M74.2,111.6c0-5.3,0-10.7,0-16c0-0.9,0.3-1.1,1.1-1c1.7,0.1,3.4,0,5,0c0.6,0,0.8,0.2,0.8,0.8
	c0,10.8,0,21.6,0,32.4c0,0.7-0.3,0.8-0.8,0.8c-1.7,0-3.4,0-5.1,0c-0.7,0-0.9-0.2-0.9-0.9C74.2,122.3,74.2,117,74.2,111.6z"/>
<path class="st1" d="M159.3,107.6c0.9-2,2.4-3.6,4.4-4.6c1.1-0.5,2.4-0.7,3.6-0.6c0.5,0,0.8,0.2,0.8,0.8c0,1.7,0,3.5,0,5.2
	c0,0.6-0.2,0.7-0.7,0.6c-0.7-0.1-1.5-0.1-2.2,0c-2.7,0.2-4.7,2.4-4.8,5.1c-0.1,4.3,0,8.7-0.1,13c0,1.3,0,1.3-1.3,1.3
	c-1.7,0-3.4,0-5,0c-0.6,0-0.8-0.1-0.8-0.7c0-8,0-16,0-24c0-0.5,0.1-0.8,0.7-0.7c1.6,0,3.2,0,4.8,0c0.6,0,0.7,0.2,0.7,0.7
	C159.3,105.1,159.3,106.4,159.3,107.6z"/>
<path class="st2" d="M215.3,87.1c0.7,0,1.5,0.3,2.1,0.7c0.7,0.4,1,1.2,0.9,2c-0.4,4.1-0.7,8.1-1,12.2c-0.2,1.3-1.4,2.2-2.7,2
	c-0.1,0-0.2,0-0.3-0.1c-1.3-0.4-1.5-0.7-1.7-2.1c-0.3-3.9-0.7-7.7-1.1-11.5C211.3,88.3,212.5,87.1,215.3,87.1z"/>
<path class="st2" d="M237.1,122.4c-0.1,1.5-0.9,2.8-2.2,3.7c-0.8,0.6-2,0.6-2.8-0.1c-3.1-2.4-6.4-4.6-9.6-6.9
	c-1-0.5-1.3-1.7-0.8-2.7c0-0.1,0.1-0.1,0.1-0.2c0.8-1.4,1.7-1.8,3-1.2c3.6,1.6,7.1,3.3,10.7,4.9
	C236.5,120.3,237.2,121.3,237.1,122.4z"/>
<path class="st2" d="M192.9,122.3c-0.2-1,0.5-2.1,1.5-2.3l10.7-5c1-0.5,2.3-0.1,2.8,0.9c0,0,0,0.1,0.1,0.1c0.7,1.2,0.6,2.2-0.4,2.9
	c-3.3,2.2-6.6,4.5-9.7,6.9c-1.1,0.9-2.8,0.8-3.8-0.3c-0.1-0.1-0.2-0.2-0.2-0.3C193.1,124.4,192.8,123.4,192.9,122.3z"/>
<path class="st2" d="M214.9,137c-0.8,0-1.7-0.2-2.3-0.7c-0.7-0.4-1.2-1.3-1-2.1c0.4-4.2,0.7-8.3,1.1-12.5c0.1-0.9,0.7-1.2,1.5-1.4
	c1.2-0.5,2.5,0.1,3,1.3c0.1,0.3,0.2,0.7,0.2,1.1c0.2,3.6,0.4,7.1,0.9,10.7C218.6,135.9,217.1,136.9,214.9,137z"/>
<path class="st2" d="M196.3,97.6c0.5,0.1,0.9,0.3,1.3,0.6l9.7,6.9c1.1,0.8,1.3,1.6,0.5,2.9c-0.4,1-1.6,1.6-2.6,1.1
	c-0.1,0-0.1,0-0.2-0.1c-3.8-1.7-7.5-3.5-11.2-5.2c-1.2-0.6-1.1-1.6-1-2.7C193.1,99.4,194.5,97.9,196.3,97.6z"/>
<path class="st2" d="M221.5,106.6c-0.1-0.6,0.2-1.2,0.7-1.5c3.1-2.2,6.3-4.4,9.4-6.6c2.1-1.5,4-0.9,4.9,1.5c0.3,0.6,0.4,1.2,0.4,1.9
	c0,0.8-0.5,1.6-1.2,1.9c-3.7,1.7-7.4,3.5-11.1,5.1c-1.2,0.5-2.6-0.1-3.1-1.3C221.6,107.4,221.5,107,221.5,106.6z"/>
<path class="st3" d="M139.6,146.1c-0.7,2.8-1.5,5.7-2.2,8.5c-0.1,0.6-0.2,1.1-1.1,1.1s-0.9-0.3-1-0.9c-0.7-2.8-1.5-5.7-2.4-8.5
	c0,0.7-0.1,1.5-0.2,2.2c-0.1,2.1-0.2,4.2-0.2,6.3c0,1.2-0.8,0.9-1.4,1c-0.9,0.1-0.7-0.5-0.7-1c0.3-4.5,0.5-9.1,0.8-13.6
	c0-0.5,0.2-0.6,0.7-0.7c1.7-0.1,1.7-0.1,2.1,1.5c0.8,2.9,1.5,5.8,2.3,8.7c0.5-0.1,0.3-0.5,0.3-0.8c0.7-2.9,1.5-5.7,2.2-8.6
	c0.1-0.6,0.4-0.8,1-0.8c0.3,0,0.6,0,0.9,0c0.5,0,0.8,0.1,0.8,0.7c0.1,2.8,0.4,5.5,0.5,8.3c0.1,1.8,0.1,3.7,0.3,5.5
	c0,0.6-0.1,0.7-0.7,0.7c-1.5,0-1.5,0-1.5-1.4c-0.1-2.7-0.3-5.5-0.4-8.2L139.6,146.1z"/>
<path class="st3" d="M20.2,150.5c0-3.2,0-6.1,0-9.1c0-0.9,0.3-1,1.1-1c0.7,0,1.1,0.1,1.1,1c0,4.4,0,8.9,0,13.3c0,0.3,0.3,1-0.4,1
	s-1.5,0.4-1.9-0.6c-1.2-3-2.4-6-3.6-9c0-0.1-0.1-0.3-0.2-0.5c0,2.3,0,4.4,0,6.7c0,0.9,0,1.9,0,2.8c0,0.6-0.3,0.7-0.8,0.6
	c-0.4-0.1-1.3,0.5-1.3-0.6c0-4.7,0-9.3,0-13.9c0-0.6,0.2-0.7,0.7-0.7c0.8-0.2,1.6,0.3,1.8,1.1c0,0,0,0,0,0
	C17.7,144.5,18.9,147.4,20.2,150.5z"/>
<path class="st3" d="M44.4,155.2c-1,0.6-2.2,0.6-3.2,0c-0.6-0.4-1-1-1.3-1.7c-1-2.2-1-4.7,0-6.9c0.5-1.6,2.1-2.5,3.7-2
	c0.3,0.1,0.5,0.2,0.7,0.3c0.3,0.1,0.3,0,0.5-0.2c0.5-0.3,1.2-0.4,1.7-0.1c0.5,0.1,0.2,0.7,0.2,1c0,3.2,0,6.4,0,9.6
	c0.1,1.4-0.4,2.8-1.3,3.8c-1.5,1.1-3.4,1.3-5.1,0.5c-0.9-0.4-0.1-1.1,0-1.6c0.1-0.5,0.4-0.3,0.7-0.2c0.2,0.1,0.4,0.1,0.7,0.2
	C43.8,158.4,44.9,157.3,44.4,155.2z M44.5,150c0.1-0.9,0.1-1.7-0.1-2.6c-0.2-0.6-0.5-1-1.1-1.1c-0.6,0-1.2,0.4-1.3,1
	c-0.6,1.7-0.6,3.5,0,5.2c0.2,0.6,0.6,1.2,1.3,1.1c0.7-0.1,1.1-0.7,1.1-1.3C44.5,151.6,44.5,150.8,44.5,150z"/>
<path class="st3" d="M120.7,144.8c0-1.3,0-2.7,0-4c0-0.6,0.1-0.9,0.8-0.8c0.2,0,0.5,0,0.7,0c0.7-0.1,0.9,0.2,0.9,0.9
	c0,4.6,0,9.2,0,13.8c0,0.3,0.2,0.8-0.3,0.9c-0.5,0.1-1.3,0.4-1.6-0.2c-0.3-0.5-0.5-0.2-0.8-0.1c-1.2,0.8-2.9,0.5-3.7-0.7
	c-0.1-0.2-0.2-0.3-0.3-0.5c-1.1-2.1-1.3-4.6-0.5-6.9C116.6,144.8,118.1,144,120.7,144.8z M120.7,150.1c0.1-0.9,0-1.8-0.2-2.7
	c-0.1-0.6-0.6-1-1.1-1.1c-0.6,0-1.1,0.4-1.2,0.9c-0.6,1.8-0.6,3.8,0,5.6c0.1,0.5,0.6,0.9,1.1,0.9c0.6,0,0.9-0.4,1.1-0.9
	C120.7,152,120.8,151,120.7,150.1L120.7,150.1z"/>
<path class="st3" d="M62.2,145.1c0.9-0.7,2.2-0.9,3.2-0.4c0.9,0.5,1.5,1.3,1.7,2.3c0.8,2.4,0.6,5.1-0.7,7.4
	c-0.6,1.3-2.2,1.9-3.6,1.3c-0.2-0.1-0.3-0.2-0.4-0.3c-0.3-0.2-0.4-0.3-0.6,0.1c-0.4,0.6-1.1,0.3-1.7,0.2c-0.6-0.1-0.3-0.6-0.2-0.9
	c0.3-4.5,0.1-8.9,0.1-13.3c0-0.8-0.1-1.4,1.1-1.4s1.1,0.7,1.1,1.5C62.2,142.6,62.2,143.8,62.2,145.1z M62.2,150
	c-0.1,0.9,0,1.8,0.3,2.7c0.2,0.6,0.5,1.1,1.2,1.1s1.1-0.5,1.3-1.1c0.5-1.7,0.5-3.5,0-5.1c-0.2-0.6-0.6-1.2-1.2-1.2
	c-0.7,0-1,0.5-1.2,1.1C62.2,148.3,62.1,149.2,62.2,150L62.2,150z"/>
<path class="st3" d="M88.7,145.1c2.7-1.6,4.7,0,4.8,2.4c0.1,2.4,0,5.1,0,7.7c0,0.4-0.2,0.6-0.6,0.5c-0.3,0-0.6,0-1,0
	c-0.6,0-0.8-0.2-0.8-0.8c0-2,0-4,0-6c0-0.4,0-0.9,0-1.3c0-0.6-0.4-1.1-1-1.3c-0.6-0.1-1,0.3-1.3,0.8c-0.2,0.4-0.3,0.9-0.3,1.3
	c0,2.1,0,4.3,0,6.4c0,0.8-0.3,1-1,0.9c-0.7-0.1-1.3,0.4-1.3-0.9c0.1-4.6,0.1-9.3,0-13.9c0-1,0.6-0.9,1.2-0.9c0.6,0,1.2-0.2,1.2,0.8
	C88.6,142.3,88.7,143.6,88.7,145.1z"/>
<path class="st3" d="M52.1,145.1c0.7-0.5,1.7-0.8,2.6-0.7c1.3,0.3,2.2,1.5,2.2,2.8c0.1,2.7,0,5.2,0,7.8c0,0.5-0.2,0.6-0.6,0.6
	c-1.6,0.1-1.6,0.1-1.6-1.4c0-1.8,0-3.6,0-5.4c0-0.5-0.1-1-0.1-1.5c0-0.5-0.4-0.9-0.9-1c-0.5-0.1-1,0.2-1.3,0.7
	c-0.3,0.5-0.4,1-0.4,1.6c0,2.1,0,4.1,0,6.2c0,0.6-0.1,0.9-0.8,0.9c-1.7-0.1-1.5,0.2-1.5-1.5c0-4.4,0-8.8,0-13.2c0-1.1,0.5-1,1.2-1
	c0.7,0,1.2-0.1,1.1,1C52,142.3,52.1,143.6,52.1,145.1z"/>
<path class="st3" d="M163.4,151.2c-0.1,1.1-0.1,2.2-0.1,3.3c0,0.4,0.2,1-0.3,1.1c-0.6,0.2-1.2,0.2-1.8,0c-0.3,0-0.2-0.4-0.2-0.6
	c0-4.8,0-9.6,0-14.4c0-0.4,0.1-0.6,0.5-0.6c0.1,0,0.3,0,0.4,0c1.5,0,1.3-0.2,1.3,1.3c0,2.2,0,4.5,0,6.9c0.7-0.8,1.2-1.6,1.6-2.5
	c0.3-0.9,1.2-1.4,2-1.2c0.4,0,0.8,0,1.2,0c-0.6,1.1-1.4,2.2-2.1,3.3c-0.8,0.8-0.8,2.1-0.1,2.9c0.8,1.3,1.5,2.9,2.2,4.3
	c0.2,0.4,0.2,0.6-0.3,0.7c-1.8,0.1-1.8,0.1-2.5-1.5c-0.5-1.1-1-2.1-1.5-3.1L163.4,151.2z"/>
<path class="st3" d="M113.4,150.1c0.1,1.5-0.2,3.1-1.1,4.3c-1,1.5-3,1.9-4.5,0.9c-0.3-0.2-0.6-0.5-0.9-0.9c-1.4-2.4-1.6-5.4-0.4-7.9
	c0.5-1.3,1.8-2.2,3.2-2.1c1.4,0,2.6,0.9,3.1,2.3C113.3,147.8,113.5,149,113.4,150.1z M108.1,150.1c0,1,0.1,1.9,0.4,2.8
	c0.2,0.5,0.5,0.9,1.1,0.9c0.5,0,1-0.4,1.1-0.9c0.6-1.8,0.6-3.8,0-5.6c-0.2-0.6-0.5-1.1-1.2-1c-0.7,0-0.9,0.6-1.1,1.1
	C108.1,148.2,108,149.2,108.1,150.1L108.1,150.1z"/>
<path class="st3" d="M103.7,150.1c0.1,1.5-0.3,3-1.1,4.3c-1,1.5-3,1.9-4.5,0.9c-0.3-0.2-0.6-0.5-0.9-0.9c-1.5-2.4-1.6-5.5-0.3-8
	c0.5-1.3,1.9-2.1,3.3-2c1.4,0.1,2.6,1.1,3.1,2.5C103.6,147.9,103.8,149,103.7,150.1z M101.5,150.1c0-1-0.2-2-0.6-3
	c-0.1-0.4-0.5-0.8-1-0.8c-0.5,0-0.9,0.3-1,0.7c-0.8,2-0.8,4.1,0,6.1c0.1,0.4,0.6,0.7,1,0.7c0.5,0,0.9-0.3,1-0.8
	C101.4,152.1,101.5,151.1,101.5,150.1L101.5,150.1z"/>
<path class="st3" d="M69.5,150.4c0-1.2,0.2-2.4,0.6-3.5c0.5-1.5,1.8-2.5,3.3-2.5c1.6,0,2.9,1.1,3.3,2.6c0.9,2.4,0.7,5.1-0.6,7.4
	c-1,1.5-3,2-4.5,1c-0.4-0.3-0.7-0.6-1-1C69.9,153.1,69.6,151.8,69.5,150.4z M71.9,150c-0.1,1,0,2,0.4,2.9c0.2,0.5,0.6,0.9,1.2,0.9
	c0.5,0,0.9-0.4,1.1-0.9c0.6-1.9,0.6-3.9,0-5.8c-0.1-0.5-0.6-0.9-1.1-0.9c-0.7,0-0.9,0.5-1.1,1C71.9,148.2,71.8,149.1,71.9,150
	L71.9,150z"/>
<path class="st3" d="M151.4,151.3c0,1.3,0,2.6,0.1,3.9c0,0.3,0,0.6-0.3,0.5c-0.6-0.1-1.3,0.5-1.7-0.4c-0.1-0.3-0.3,0-0.5,0.1
	c-1.2,0.9-2.8,0.7-3.7-0.5c-0.3-0.4-0.5-0.9-0.6-1.4c-0.6-2.1,0.7-4.2,2.7-4.8c0.1,0,0.3-0.1,0.4-0.1c0.6-0.1,1.5,0.1,1.3-1.1
	c-0.2-0.9-0.7-1.3-1.7-1.2c-0.2,0-0.4,0.1-0.7,0.1c-0.3,0-0.7,0.5-0.9,0.3c-0.2-0.2-0.3-0.8-0.5-1.2c-0.2-0.4,0.2-0.4,0.4-0.5
	c2.7-1.3,5.8-0.6,5.7,3.2C151.4,149.1,151.4,150.1,151.4,151.3z M149.2,151.5c0-0.3,0-0.6,0-0.8s-0.2-0.5-0.6-0.5
	c-1.2,0.2-2,1.3-1.9,2.5c0,0.1,0,0.2,0.1,0.3c0.2,0.5,0.4,0.9,1,0.9c0.5,0,1-0.3,1.2-0.8C149.1,152.6,149.2,152,149.2,151.5z"/>
<path class="st3" d="M174,150.5h-1.5c-1,0-1.1,0.1-0.9,1.1c0.4,2,1.5,2.6,3.5,2c0.3-0.1,0.7-0.5,0.7,0.2c0.1,0.7,0.8,1.3-0.2,1.6
	c-2.7,0.9-5.2,0.4-6.1-2.9c-0.6-2-0.4-4.1,0.5-5.9c0.6-1.7,2.5-2.6,4.2-2c0.3,0.1,0.5,0.2,0.8,0.4c1.3,1.4,1.9,3.3,1.6,5.2
	c-0.1,0.3-0.3,0.3-0.6,0.3H174L174,150.5z M172.9,148.7c1.5,0,1.5,0,1.4-0.5c0-1.1-0.6-2-1.3-2c-0.7,0-1.5,1-1.4,2
	C171.7,149.2,172.5,148.5,172.9,148.7L172.9,148.7z"/>
<path class="st3" d="M29.6,150.5c-0.3,0-0.5,0-0.8,0c-0.6,0.2-1.5-0.5-1.7,0.5c-0.2,1.3,0.5,2.5,1.8,2.8c0.6,0.1,1.2,0,1.7-0.1
	c0.4-0.1,0.9-0.4,0.9,0.3s0.6,1.3-0.4,1.6c-3.2,0.8-5.2,0-6-3.4c-0.5-1.9-0.3-3.9,0.6-5.7c0.5-1.3,1.8-2.1,3.2-2
	c1.4,0.1,2.6,1.1,2.9,2.5c0.3,1,0.4,2,0.3,3.1c0,0.5-0.2,0.6-0.7,0.6C31,150.5,30.2,150.5,29.6,150.5z M28.3,148.7
	c1.6,0,1.6,0,1.6-0.5c0-1-0.6-2-1.3-2c-0.7,0-1.5,1-1.4,2C27.1,149.2,28,148.5,28.3,148.7L28.3,148.7z"/>
<path class="st3" d="M181.6,142.1c0,0.2,0,0.5,0,0.7c0,0.5-0.2,1.2,0.1,1.6c0.3,0.4,1,0.1,1.5,0.2c0.8,0,0.5,0.6,0.5,1
	s0,0.7-0.6,0.8c-1.5,0.1-1.5,0.1-1.5,1.6c0,1.5,0,3,0,4.5c0,0.8,0.3,1.3,1.2,1.2c0.4,0,0.7-0.1,0.6,0.4c-0.1,0.5,0.5,1.3-0.4,1.6
	c-1.3,0.6-2.8,0-3.4-1.3c-0.1-0.3-0.2-0.6-0.2-1c-0.2-2,0-4-0.1-6c0-0.6,0.1-1.2-0.9-1.1c-0.7,0-0.3-0.6-0.4-1s-0.1-0.8,0.4-0.8
	c0.4,0,0.9,0,0.8-0.5c-0.2-1.1,0.4-1.4,1.3-1.6C180.9,142.3,181.2,142,181.6,142.1z"/>
<path class="st3" d="M79.6,150.1c0-1.5,0-3.1,0-4.6c0-0.3-0.2-0.9,0.3-0.8c0.5,0,1.3-0.4,1.7,0.3c0.2,0.5,0.3,0.3,0.6,0.1
	c0.1-0.1,0.2-0.2,0.3-0.2c0.5-0.3,1.2-0.7,1.7-0.3s0.2,1.2,0.2,1.9c0,0.3-0.2,0.3-0.4,0.3c-1.2,0.1-2.2,1.2-2.1,2.4c0,0,0,0.1,0,0.1
	c0,1.9,0,3.7,0,5.6c0,0.9-0.4,1-1.1,0.9c-0.7,0-1.3,0.1-1.2-0.9C79.7,153.2,79.6,151.6,79.6,150.1L79.6,150.1z"/>
<path class="st3" d="M156.5,145.4c0.2-0.2,0.5-0.4,0.7-0.6c0.6-0.3,1.2-0.8,1.8-0.3c0.5,0.5,0.1,1.2,0.1,1.9c0,0.3-0.3,0.3-0.5,0.3
	c-1,0-1.8,0.8-1.8,1.8c-0.2,2-0.2,4-0.2,6c0,0.4,0.3,1.1-0.2,1.2c-0.6,0.1-1.2,0.1-1.7,0c-0.5-0.1-0.3-0.6-0.3-0.9
	c0-3.1,0-6.1,0-9.2c0-0.4-0.3-1,0.5-1C155.7,144.6,156.4,144,156.5,145.4z"/>
<path class="st3" d="M36.8,150.1c0,1.6,0,3.2,0,4.8c0,1-0.6,0.8-1.1,0.8c-0.5,0-1.2,0.2-1.1-0.8c0-3.2,0-6.4,0-9.6
	c0-1.1,0.7-0.7,1.3-0.8c0.5,0,1.1,0,1,0.8C36.7,146.9,36.8,148.5,36.8,150.1z"/>
<path class="st3" d="M37,142.2c0,0.7-0.6,1.3-1.3,1.3c-0.7,0-1.3-0.7-1.2-1.4c0,0,0,0,0,0c0.2-0.7,0.9-1.1,1.6-1
	C36.5,141.2,36.9,141.6,37,142.2L37,142.2z"/>
<path class="st0" d="M44.5,150c0,0.7,0,1.5,0,2.2c-0.1,0.7-0.4,1.3-1.1,1.3c-0.8,0-1.2-0.5-1.3-1.1c-0.6-1.7-0.6-3.5,0-5.2
	c0.2-0.6,0.7-1,1.3-1c0.6,0,0.9,0.5,1.1,1.1C44.6,148.3,44.6,149.2,44.5,150z"/>
<path class="st0" d="M120.7,150.1c0.1,0.9,0,1.9-0.3,2.8c-0.2,0.5-0.6,0.9-1.1,0.9c-0.5,0-1-0.4-1.1-0.9c-0.6-1.8-0.6-3.8,0-5.6
	c0.1-0.6,0.6-1,1.2-0.9c0.6,0.1,1,0.5,1.1,1.1C120.7,148.3,120.8,149.2,120.7,150.1z"/>
<path class="st0" d="M62.2,150c-0.1-0.9,0-1.7,0.2-2.6c0.2-0.5,0.6-1.1,1.2-1.1c0.7,0,1.1,0.5,1.2,1.2c0.5,1.7,0.5,3.5,0,5.1
	c-0.2,0.6-0.5,1.1-1.3,1.1s-1-0.5-1.2-1.1C62.2,151.8,62.1,150.9,62.2,150z"/>
<path class="st0" d="M108.1,150.1c0-0.9,0.1-1.9,0.4-2.8c0.2-0.5,0.4-1,1.1-1.1c0.7,0,1,0.5,1.2,1c0.6,1.8,0.6,3.8,0,5.6
	c-0.1,0.5-0.6,0.9-1.1,0.9c-0.6,0-0.9-0.4-1.1-0.9C108.2,152,108,151.1,108.1,150.1z"/>
<path class="st0" d="M101.5,150.1c0,1-0.2,2.1-0.6,3c-0.1,0.4-0.5,0.8-1,0.8c-0.5,0-0.9-0.3-1-0.7c-0.8-2-0.8-4.1,0-6.1
	c0.1-0.4,0.6-0.7,1-0.7c0.5,0,0.9,0.3,1,0.8C101.3,148,101.5,149,101.5,150.1z"/>
<path class="st0" d="M71.9,150.1c-0.1-0.9,0-1.9,0.4-2.8c0.2-0.5,0.5-1,1.1-1c0.5,0,1,0.4,1.1,0.9c0.6,1.9,0.6,3.9,0,5.8
	c-0.1,0.5-0.5,0.9-1.1,0.9c-0.5,0-1-0.4-1.2-0.9C71.9,152.1,71.8,151.1,71.9,150.1z"/>
<path class="st0" d="M149.2,151.5c0.1,0.5,0,1.1-0.2,1.6c-0.2,0.5-0.6,0.9-1.2,0.8c-0.6,0-0.8-0.5-1-0.9c-0.3-1.2,0.3-2.4,1.5-2.7
	c0.1,0,0.2-0.1,0.3-0.1c0.4,0,0.6,0,0.6,0.5S149.2,151.2,149.2,151.5z"/>
<path class="st0" d="M172.9,148.7c-0.4-0.2-1.2,0.5-1.3-0.5c-0.1-0.9,0.8-2,1.4-2c0.7,0,1.3,0.9,1.3,2
	C174.4,148.7,174.4,148.7,172.9,148.7z"/>
<path class="st0" d="M28.3,148.7c-0.3-0.2-1.1,0.5-1.1-0.5c-0.1-0.9,0.8-2,1.4-2s1.3,1,1.3,2C29.9,148.8,29.9,148.8,28.3,148.7z"/>
<path class="st2" d="M242.9,129.5c-1.3,0-2.4-1.1-2.4-2.4c0-1.3,1.1-2.4,2.4-2.4c1.3,0,2.4,1.1,2.4,2.4S244.2,129.5,242.9,129.5
	L242.9,129.5z M242.9,125.1c-1.1,0-2,0.9-2,2c0,1.1,0.9,2,2,2c1.1,0,2-0.9,2-2l0,0C244.9,126,244,125.1,242.9,125.1
	C242.9,125.1,242.9,125.1,242.9,125.1z"/>
<path class="st2" d="M241.9,128.2v-2.3h1c0.2,0,0.4,0,0.5,0c0.1,0,0.2,0.1,0.3,0.2c0.1,0.1,0.1,0.2,0.1,0.4c0,0.2-0.1,0.3-0.2,0.4
	c-0.1,0.1-0.3,0.2-0.5,0.2c0.1,0.1,0.2,0.1,0.3,0.2c0.1,0.1,0.2,0.2,0.3,0.4l0.3,0.5h-0.6l-0.3-0.5c-0.1-0.1-0.2-0.2-0.3-0.3
	c0,0-0.1-0.1-0.1-0.1h-0.2h-0.1v1L241.9,128.2z M242.3,126.9h0.3c0.1,0,0.3,0,0.4,0c0.1,0,0.1,0,0.1-0.1c0-0.1,0-0.1,0-0.2
	c0-0.1,0-0.1,0-0.2c0-0.1-0.1-0.1-0.2-0.1h-0.7L242.3,126.9z"/>
</svg>
