<?xml version="1.0" encoding="utf-8"?>
<!-- Generator: Adobe Illustrator 21.1.0, SVG Export Plug-In . SVG Version: 6.00 Build 0)  -->
<svg version="1.1" id="Layer_1" xmlns="http://www.w3.org/2000/svg" xmlns:xlink="http://www.w3.org/1999/xlink" x="0px" y="0px"
	 viewBox="0 0 250 250" style="enable-background:new 0 0 250 250;" xml:space="preserve">
<style type="text/css">
	.st0{fill:#017DC6;}
	.st1{fill:#FEC221;}
</style>
<title>Mass</title>
<path class="st0" d="M17.4,135.5c0.8-4.5,1.9-8.8,2.9-13.2c0.9-4.1,1.9-8.3,2.9-12.4c0.1-0.4,0.2-0.5,0.6-0.5c2.2,0,4.3,0,6.5,0
	c0.4,0,0.5,0.1,0.6,0.5c1.3,6.5,2.8,12.9,4,19.4c0.4,2,0.7,4,1.1,6.2c0.2-1,0.3-1.9,0.5-2.8c1.2-7,2.8-13.9,4.2-20.8
	c0.1-0.7,0.3-1.3,0.4-2c0.1-0.4,0.2-0.5,0.6-0.5c2,0,4,0,6.1,0c0.5,0,0.6,0.1,0.5,0.6c-1.3,4.9-2.6,9.8-3.9,14.7
	c-1.5,5.9-3.1,11.8-4.7,17.7c-0.1,0.4-0.4,0.8-0.9,0.8c-1.2,0.2-2.5,0.2-3.7,0c-1.9-0.4-3.4-1.8-3.9-3.7c-0.7-2.2-1-4.5-1.5-6.7
	c-0.9-4.1-1.9-8.3-2.5-12.4c-0.1-0.9-0.3-1.8-0.5-2.7c-0.1,0.7-0.3,1.4-0.4,2.1c-0.8,4.4-2,8.7-3,13.1c-0.8,3.2-1.6,6.4-2.3,9.6
	c0,0.4-0.4,0.7-0.8,0.7c-0.9,0.1-1.8,0.2-2.7,0.2c-2.2,0.1-4.3-1.3-4.9-3.4c-0.7-2.1-1.3-4.2-1.7-6.3C8.9,125.8,7,117.9,5.1,110
	c-0.2-0.7-0.2-0.7,0.6-0.7c2.1,0,4.2,0,6.3,0c0.4,0,0.5,0.1,0.6,0.5c1.6,8.3,3.3,16.7,4.7,25.1C17.3,135.1,17.4,135.3,17.4,135.5z"
	/>
<path class="st0" d="M91.5,121.1c1.6-2.6,4.5-4.1,7.5-3.9c3.1-0.1,5.8,1.7,7,4.6l0.8-0.9c2.4-3,6.3-4.3,10-3.2
	c2.6,0.8,4.6,2.9,5.3,5.6c0.5,1.6,0.7,3.3,0.7,4.9c0,4.8,0,9.6,0,14.4c0,0.5-0.1,0.6-0.6,0.6c-1.9,0-3.8,0-5.7,0
	c-0.5,0-0.6-0.1-0.6-0.6c0-4.4,0-8.8,0-13.1c0-1.1-0.1-2.1-0.4-3.2c-0.3-1.9-1.9-3.2-3.7-3.2c-2,0-3.7,1.3-4.2,3.2
	c-0.2,0.7-0.3,1.4-0.3,2.2c0,4.7,0,9.4,0,14.1c0,0.5-0.1,0.6-0.6,0.6c-1.9,0-3.8,0-5.7,0c-0.5,0-0.6-0.1-0.6-0.6c0-4.6,0-9,0-13.6
	c0-1.2-0.1-2.3-0.5-3.4c-0.7-2-2.8-3-4.8-2.4c-0.5,0.2-1,0.5-1.4,0.9c-1.1,1-1.8,2.5-1.8,4c0,4.8,0,9.6,0,14.4
	c0,0.6-0.2,0.7-0.7,0.7c-1.9,0-3.7,0-5.6,0c-0.4,0-0.6-0.1-0.6-0.5c0-8.1,0-16.1,0-24.2c0-0.4,0.1-0.5,0.5-0.5c1.8,0,3.6,0,5.5,0
	c0.5,0,0.6,0.1,0.6,0.6C91.4,119.2,91.5,120.2,91.5,121.1z"/>
<path class="st0" d="M141.1,140c-1.2,1.7-3.1,2.9-5.1,3.3c-2.5,0.7-5.1,0.3-7.3-1.1c-3.6-2.6-4.4-7.6-1.8-11.2
	c0.4-0.6,0.9-1,1.4-1.5c2-1.5,4.3-2.5,6.7-2.8c1.6-0.3,3.2-0.4,4.8-0.4c0.4,0,0.5-0.1,0.5-0.5c0-2-1.7-3.7-3.7-3.7
	c-2.6-0.2-5.3,0.3-7.6,1.6c-0.4,0.2-0.5,0.1-0.6-0.3c-0.3-1.2-0.7-2.4-1-3.5c-0.1-0.4-0.1-0.6,0.3-0.8c1.9-0.9,4-1.5,6.1-1.8
	c2.1-0.3,4.2-0.3,6.3,0.1c3.9,0.7,6.9,3.9,7.2,7.9c0.1,1,0.2,2,0.2,3.1c0,3.6,0,7.3,0,10.9c0,1.1,0.1,2.2,0.3,3.2
	c0.1,0.4,0,0.5-0.4,0.6c-2.1,0.6-4.3-0.2-5.5-2C141.6,140.7,141.3,140.4,141.1,140z M140.5,132.9c0-0.5,0-1.1,0-1.6
	c0-0.4-0.1-0.4-0.5-0.4c-0.9,0-1.8,0.1-2.7,0.2c-1.4,0.1-2.6,0.6-3.7,1.4c-1.1,0.9-1.5,2.3-1.1,3.7c0.2,1.1,1.1,2,2.2,2.3
	c2.5,0.7,5.1-0.8,5.7-3.3c0.1-0.4,0.1-0.7,0.2-1.1C140.5,133.7,140.5,133.3,140.5,132.9z"/>
<path class="st0" d="M62.5,140c-0.5,0.6-1,1.2-1.7,1.7c-2.7,2.1-6.3,2.5-9.4,1.3c-5.4-2.1-6.3-9.6-1.7-13.4c2-1.5,4.3-2.4,6.7-2.8
	c1.6-0.3,3.2-0.4,4.8-0.4c0.4,0,0.5-0.1,0.5-0.5c0-2-1.7-3.7-3.7-3.7c-2.6-0.2-5.3,0.3-7.6,1.6c-0.4,0.2-0.5,0.2-0.6-0.2
	c-0.3-1.2-0.7-2.4-1.1-3.6c-0.1-0.4,0-0.6,0.3-0.7c2.4-1.2,5-1.8,7.6-2c1.6-0.1,3.3,0,4.9,0.3c3.6,0.7,6.3,3.6,6.9,7.2
	c0.2,1.2,0.3,2.4,0.3,3.6c0,3.8-0.1,7.5,0.1,11.3c0,1,0.1,1.9,0.3,2.9c0,0.4,0,0.5-0.4,0.6c-2,0.5-4.1-0.2-5.3-1.9
	C63.1,140.8,62.8,140.4,62.5,140z M61.9,132.9c0-0.5,0-1.1,0-1.6s-0.1-0.5-0.5-0.5c-0.9,0-1.8,0.1-2.7,0.2c-1.4,0.1-2.6,0.6-3.7,1.4
	c-1.1,0.9-1.5,2.3-1.1,3.7c0.2,1.1,1.1,2.1,2.2,2.3c2.5,0.7,5.1-0.8,5.7-3.3c0.1-0.4,0.1-0.7,0.2-1.1
	C61.9,133.7,61.9,133.3,61.9,132.9L61.9,132.9z"/>
<path class="st0" d="M169.6,122.7c0-4.2,0-8.5,0-12.7c0-0.5,0.1-0.6,0.6-0.6c1.8,0,3.6,0,5.5,0c0.5,0,0.7,0.1,0.7,0.7
	c0,2.3,0,4.5,0,6.7c0,0.5,0.2,0.6,0.6,0.6c1.6,0,3.2,0,4.8,0c0.4,0,0.6,0.1,0.6,0.5c0,1.8,0,3.6,0,5.5c0,0.4-0.1,0.5-0.5,0.5
	c-1.7,0-3.3,0-5,0c-0.3,0-0.5,0-0.5,0.4c0,3.4,0,6.9,0.1,10.3c0,0.5,0.1,1.1,0.3,1.6c0.3,1,1.3,1.7,2.4,1.7c0.8,0.1,1.7,0,2.5-0.2
	c0.4-0.1,0.5,0,0.5,0.4c0,1.5,0,3,0,4.6c0,0.2-0.1,0.4-0.3,0.5c0,0,0,0,0,0c-2.2,0.7-4.6,0.8-6.9,0.3c-2.8-0.6-4.8-2.9-5.1-5.7
	c-0.2-1.2-0.2-2.5-0.2-3.7C169.6,130.2,169.6,126.5,169.6,122.7z"/>
<path class="st0" d="M73.3,126.2c0-5.4,0-10.8,0-16.2c0-0.5,0.1-0.7,0.7-0.7c1.9,0,3.7,0,5.6,0c0.5,0,0.6,0.1,0.6,0.6
	c0,10.8,0,21.7,0,32.5c0,0.5-0.1,0.6-0.6,0.6c-1.9,0-3.8,0-5.7,0c-0.5,0-0.6-0.1-0.6-0.6C73.3,137,73.3,131.6,73.3,126.2z"/>
<path class="st0" d="M158.1,122.5c0.3-0.1,0.2-0.4,0.3-0.5c0.9-2.4,3-4.2,5.6-4.7c0.7-0.1,1.5-0.1,2.2,0c0.3,0,0.5,0.2,0.5,0.5
	c0,1.9,0,3.7,0,5.6c0,0.5-0.2,0.5-0.6,0.5c-1-0.2-1.9-0.2-2.9,0c-2.4,0.5-4.1,2.5-4.2,4.9c0,0.6-0.1,1.3-0.1,1.9c0,3.9,0,7.8,0,11.7
	c0,0.4-0.1,0.6-0.6,0.6c-2,0-4,0-6,0c-0.4,0-0.5-0.1-0.5-0.5c0-8.1,0-16.2,0-24.3c0-0.4,0.1-0.5,0.5-0.5c1.7,0,3.4,0,5.1,0
	c0.4,0,0.5,0.1,0.5,0.5c0,1.2,0,2.5,0,3.7C158.1,122.1,158,122.3,158.1,122.5z"/>
<path class="st1" d="M211.5,119.9c-0.1,1.2-0.7,2.2-1.7,2.8c-0.5,0.3-1.1,0.4-1.7,0.1c-4.4-2.1-8.9-4.2-13.4-6.2
	c-0.8-0.4-1.3-1.2-1.3-2c-0.1-2.3,1.3-4.4,3.6-5.2c0.6-0.1,1.1,0,1.6,0.3l12.2,8.5C211.2,118.7,211.5,119.3,211.5,119.9z"/>
<path class="st1" d="M219.1,97.2c1.1-0.1,2.1,0.2,3,0.8c0.8,0.5,1.2,1.4,1.1,2.3c-0.4,4.8-0.8,9.6-1.3,14.4c0,0.6-0.4,1.2-0.9,1.5
	c-1.1,0.6-2.5,0.6-3.6-0.1c-0.5-0.3-0.8-0.8-0.8-1.4c-0.4-4.4-0.8-8.7-1.1-13.1c0-0.4,0-0.8-0.1-1.1c-0.2-1.1,0.3-2.2,1.3-2.7
	C217.4,97.4,218.2,97.2,219.1,97.2z"/>
<path class="st1" d="M219.3,135.7c0.5,0,1.1,0.2,1.6,0.4c0.6,0.3,0.9,0.8,1,1.4c0.3,2.9,0.5,5.8,0.8,8.7c0.2,1.9,0.3,3.9,0.5,5.8
	c0.1,0.9-0.3,1.8-1.1,2.3c-1.7,1.1-3.9,1.1-5.6,0c-0.9-0.5-1.3-1.6-1.1-2.6c0.3-2.5,0.5-4.9,0.7-7.4c0.2-2.5,0.4-4.7,0.6-7
	c0-0.4,0.3-0.8,0.6-1.1C217.8,135.8,218.6,135.6,219.3,135.7z"/>
<path class="st1" d="M197.4,143c-0.5,0-0.9-0.1-1.3-0.3c-1.9-1-2.9-3-2.7-5.1c0.1-0.8,0.6-1.5,1.3-1.8l13.3-6.2
	c0.5-0.3,1.1-0.3,1.6,0c1,0.6,1.7,1.6,1.8,2.8c0.1,0.7-0.2,1.5-0.9,1.9c-4,2.8-7.9,5.5-11.8,8.3C198.4,142.8,197.9,143,197.4,143z"
	/>
<path class="st1" d="M245,114.2c0.1,1.1-0.6,2.1-1.6,2.5c-4.3,2-8.7,4-13,6c-0.6,0.3-1.3,0.3-1.8-0.1c-0.9-0.5-1.5-1.4-1.6-2.4
	c-0.2-0.9,0.2-1.8,0.9-2.3c3.9-2.7,7.8-5.4,11.6-8.1c0.7-0.6,1.8-0.7,2.6-0.2C243.9,110.6,244.9,112.3,245,114.2z"/>
<path class="st1" d="M245,138.5c-0.2,1.8-1.2,3.3-2.8,4.1c-0.8,0.5-1.9,0.4-2.7-0.2c-3.9-2.7-7.7-5.5-11.6-8.1
	c-0.8-0.5-1.2-1.4-0.9-2.3c0.1-0.9,0.6-1.6,1.3-2.2c0.6-0.5,1.5-0.6,2.2-0.2c4.3,2,8.6,4,12.9,6C244.5,136.1,245.2,137.3,245,138.5z
	"/>
</svg>
