<?xml version="1.0" encoding="utf-8"?>
<!-- Generator: Adobe Illustrator 21.1.0, SVG Export Plug-In . SVG Version: 6.00 Build 0)  -->
<svg version="1.1" id="Layer_1" xmlns="http://www.w3.org/2000/svg" xmlns:xlink="http://www.w3.org/1999/xlink" x="0px" y="0px"
	 viewBox="0 0 250 250" style="enable-background:new 0 0 250 250;" xml:space="preserve">
<style type="text/css">
	.st0{fill:#1D75CC;}
	.st1{fill:#FBBB34;}
</style>
<title>Logos</title>
<path class="st0" d="M26.1,116.8c-1.5,8.1-3.7,15.8-5.5,23.7c-0.1,0.6-0.6,1.1-1.3,1.1c-1.6,0.3-3.3,0.2-4.8-0.4
	c-1.5-0.9-2.5-2.5-2.8-4.3c-1.1-4.4-2.2-8.7-3.2-13.1c-1.2-4.8-2.3-9.6-3.5-14.3c-0.2-0.7-0.1-0.9,0.6-0.9c2,0,3.9,0,5.8,0
	c0.6,0,0.8,0.2,0.9,0.7c1.5,7.9,3.1,15.7,4.5,23.7c0,0.3,0.1,0.6,0.3,0.8c1.5-8.2,3.6-16.3,5.5-24.5c0.1-0.6,0.4-0.8,1-0.8
	c2,0,3.9,0,5.8,0c0.5,0,0.7,0.2,0.9,0.7c1.5,7.7,3.5,15.5,4.6,23.4c0,0.3,0.1,0.6,0.3,1.2c1.2-7,2.6-13.6,4-20.2
	c0.3-1.5,0.7-2.9,0.9-4.4c0.1-0.6,0.3-0.7,0.9-0.7c1.8,0,3.6,0,5.4,0c0.8,0,0.9,0.2,0.7,1c-2.7,10-5.3,20-7.9,30
	c-0.6,2.2-0.6,2.2-2.9,2.3c-2.9,0.4-5.5-1.6-5.9-4.4c0,0,0-0.1,0-0.1c-1.4-6.5-3.1-13-4-19.6C26.3,117.3,26.2,117.1,26.1,116.8z"/>
<path class="st0" d="M103.5,120.6l0.6-0.8c2.1-2.8,5.7-4.2,9.1-3.4c3.6,0.7,5.3,3.2,6.2,6.5c0.3,1.1,0.4,2.3,0.4,3.5
	c0,4.6,0,9.4,0,14.1c0,0.7-0.1,1-0.9,0.9c-1.5,0-3.3,0-4.9,0c-0.8,0-1-0.3-0.9-1c0-4.1,0-8.1,0-12.2c0-1-0.1-2-0.3-3
	c-0.5-2.4-2-3.6-4-3.5c-2.2,0.1-4,2-4,4.2c0,1.5,0,2.9,0,4.4c0,3.4,0,6.8,0,10.1c0,0.7-0.2,0.9-0.9,0.9c-1.6-0.1-3.2-0.1-4.9,0
	c-0.8,0-1-0.2-1-1c0-4.3,0-8.6,0-12.8c0.1-1.2-0.1-2.5-0.6-3.6c-0.8-1.9-2.9-2.7-4.8-2c-0.3,0.1-0.6,0.3-0.9,0.6
	c-1.4,1.1-2.2,2.8-2.1,4.6c0,4.4,0,8.8,0,13.2c0,0.7-0.1,1-0.9,1c-1.5,0-3.2,0-4.9,0c-0.6,0-0.9-0.1-0.9-0.8c0-7.7,0-15.4,0-23.1
	c0-0.6,0.2-0.8,0.8-0.8c1.5,0,3.2,0,4.9,0c0.6,0,0.8,0.2,0.8,0.8c0,0.8,0,1.6,0.1,2.3c1.6-2.4,4.3-3.8,7.2-3.7
	C99.7,116.2,102.4,117.9,103.5,120.6z"/>
<path class="st0" d="M60.8,138.8c-2.2,2.6-5.7,3.7-9,3c-2.9-0.3-5.2-2.5-5.9-5.3c-0.9-2.9,0-6.1,2.4-8c2.3-1.8,5-2.9,7.9-3.1
	c1.1-0.1,2.2-0.2,3.3-0.2c0.5,0,0.7-0.2,0.7-0.7c-0.1-1.9-1.7-3.4-3.6-3.4c-2.5-0.2-4.9,0.3-7.1,1.4l-0.5,0.3c-0.1,0-0.2,0-0.2,0
	c-0.4-1.3-0.7-2.6-1.2-3.9c-0.2-0.6,0.2-0.7,0.6-0.9c2.2-1,4.6-1.6,7.1-1.7c1.6-0.1,3.3,0,4.9,0.3c3.8,0.8,6.6,4,6.9,7.9
	c0.2,2.4,0.1,4.9,0.2,7.3c-0.1,3,0,6,0.3,9c0,0.5-0.1,0.7-0.6,0.8C64.2,142.3,62.4,141.5,60.8,138.8z M60.5,131.9c0-0.5,0-0.9,0-1.4
	c0.1-0.7-0.2-1.1-0.9-1c-0.8,0.1-1.4,0-2.1,0.2c-1.4,0.1-2.8,0.6-3.9,1.5c-1,1-1.3,2.5-0.8,3.8c0.3,1.1,1.3,1.9,2.4,2
	c1.1,0.2,2.2-0.1,3.2-0.6C60,135.5,60.8,133.7,60.5,131.9L60.5,131.9z"/>
<path class="st0" d="M137.6,138.8c-1.4,1.7-3.4,2.8-5.6,3.1c-4.2,1-8.3-1.6-9.3-5.7c0-0.1,0-0.1,0-0.2c-0.7-3.8,1.3-7.6,4.9-9
	c2.6-1.2,5.5-1.7,8.4-1.7c1.2,0,1.3-0.1,1-1.3c-0.4-1.6-1.8-2.8-3.4-2.8c-2.5-0.3-5,0.2-7.1,1.4c-0.6,0.3-0.9,0.4-1.1-0.4
	c-0.2-1-0.5-2-0.8-2.9c-0.3-0.7,0-0.9,0.6-1.2c2.2-1,4.6-1.6,7-1.7c1.6-0.1,3.1,0,4.6,0.2c3.9,0.7,6.8,3.8,7.1,7.7
	c0.1,1,0.2,2.1,0.2,3.1c-0.1,4.5,0,9.1,0.3,13.6c0,0.5-0.2,0.5-0.5,0.6C141.6,142,139.2,142.1,137.6,138.8z M137.3,131.8
	c0-0.4,0-0.9,0-1.3c0.1-0.7-0.2-1-0.9-0.9c-1,0.1-2,0.2-3,0.4c-1.1,0.1-2.2,0.6-3.1,1.4c-1,1-1.3,2.4-0.9,3.7c0.3,1.1,1.3,2,2.4,2.1
	c1.1,0.2,2.2,0,3.2-0.6C136.7,135.5,137.6,133.6,137.3,131.8L137.3,131.8z"/>
<path class="st0" d="M172.2,128.4c-0.1,1.8,0,3.5,0.2,5.3c0.4,2,1.2,2.7,3.3,2.6c0.4,0.1,0.8,0.1,1.2,0c1-0.4,1.1,0.2,1,0.9
	c0,1.2,0,2.3,0,3.5c0,0.4-0.1,0.7-0.5,0.8c-1.9,0.6-4,0.7-6,0.4c-3.4-0.6-5.1-2.7-5.6-6.3c-0.1-0.9-0.2-1.9-0.2-2.8
	c0-7.7,0-15.5,0-23.2c0-0.8,0.2-1,1-1c1.5,0,3.2,0,4.8,0c0.7,0,0.9,0.2,0.9,0.9c0,2,0,4.1,0,6.2c0,0.6,0.2,0.9,0.8,0.8
	c1.4,0,2.7,0,4.1,0c0.8,0,1,0.2,0.9,1c0,1.5,0,3,0,4.5c0,0.6-0.1,0.9-0.8,0.8c-1.4,0-2.8,0-4.3,0c-0.6,0-0.8,0.2-0.8,0.8
	C172.2,125,172.2,126.5,172.2,128.4z"/>
<path class="st0" d="M71.7,125c0-5.1,0-10.2,0-15.3c0-0.9,0.3-1.1,1.1-1.1c1.5,0,3.2,0,4.8,0c0.6,0,0.8,0.1,0.8,0.8
	c0,10.4,0,20.9,0,31.3c0,0.6-0.2,0.8-0.8,0.8c-1.5,0-3.3,0-4.9,0c-0.8,0-1-0.2-1-1C71.7,135.3,71.7,130.1,71.7,125z"/>
<path class="st0" d="M154.6,121.2c0.3-0.5,0.5-1.1,0.9-1.5c1.3-2.3,3.9-3.6,6.6-3.4c0.6,0,0.9,0.2,0.9,0.8c0,1.7,0,3.3,0,5
	c0,0.6,0,0.8-0.7,0.7c-1.8-0.4-3.7,0.1-5.1,1.3c-1.2,1.2-1.8,2.8-1.7,4.5c0,3.9,0,7.9,0,11.8c0,0.8-0.2,1.2-1.1,1.1
	c-1.7-0.1-3.4,0-5.1,0c-0.5,0-0.7-0.1-0.7-0.7c0-7.8,0-15.5,0-23.2c0-0.6,0.2-0.7,0.7-0.7c1.5,0,3.1,0,4.6,0c0.6,0,0.8,0.2,0.8,0.8
	C154.5,118.9,154.5,120.1,154.6,121.2L154.6,121.2z"/>
<path class="st1" d="M217.9,99.8c-0.4,4.6-0.8,9.3-1.2,13.9c-0.1,1.3-1.2,2.2-2.5,2.1c0,0-0.1,0-0.1,0c-1.5,0-2.5-0.7-2.6-2.1
	c-0.4-4.6-0.9-9.3-1.3-14c-0.1-0.9,0.4-1.8,1.2-2.2c1.6-1,3.6-1.1,5.2-0.1C217.5,97.8,218,98.8,217.9,99.8z"/>
<path class="st1" d="M217.9,150.3c0.1,0.9-0.4,1.8-1.2,2.3c-1.7,1-3.8,1-5.4,0c-0.8-0.5-1.2-1.4-1.1-2.3c0.4-4.6,0.9-9.3,1.3-13.9
	c0-0.7,0.5-1.3,1.1-1.5c1.2-0.8,2.9-0.5,3.7,0.8c0.3,0.5,0.5,1,0.4,1.6C217.1,141.4,217.6,145.9,217.9,150.3z"/>
<path class="st1" d="M235.3,141.4c-0.5,0-0.9-0.1-1.3-0.4l-11.5-8.1c-1-1.1-1-2.8,0-3.8c0.7-0.7,1.7-1,2.7-0.7l12.2,5.7
	c1.4,0.4,2.3,1.9,1.9,3.4c0,0.1-0.1,0.2-0.1,0.3C238.9,139.7,237.3,141.2,235.3,141.4z"/>
<path class="st1" d="M221.7,118.9c-0.1-0.7,0.2-1.4,0.8-1.7l11.5-8.1c0.7-0.5,1.5-0.6,2.3-0.3c2,0.9,3.2,3.1,2.9,5.3
	c-0.1,0.7-0.6,1.3-1.3,1.5c-4.3,2-8.6,4-12.9,6c-1.4,0.7-3.2-0.7-3.4-2.5C221.6,119,221.6,119,221.7,118.9z"/>
<path class="st1" d="M188.9,136.6c-0.1-1.1,0.5-2,1.5-2.4l12.6-5.8c1.2-0.6,2.3-0.1,3.1,1.3c0.8,1,0.6,2.4-0.4,3.1
	c0,0-0.1,0-0.1,0.1c-3.8,2.7-7.6,5.4-11.5,8c-1.2,0.8-2.8,0.5-3.7-0.6C189.5,139.4,188.9,138.1,188.9,136.6z"/>
<path class="st1" d="M192.9,108.6c0.5,0,1,0.2,1.4,0.5c3.7,2.6,7.4,5.2,11.1,7.7c0.9,0.5,1.4,1.6,1.1,2.6c-0.3,1.1-1.1,2-2.2,2.4
	c-0.4,0.1-0.8,0-1.1-0.2l-12.9-6c-1-0.5-1.6-1.6-1.4-2.6C189,110.8,190.6,109,192.9,108.6z"/>
<path class="st1" d="M242.9,142.5c-1.2,0-2.1-1-2.1-2.1c0-1.2,1-2.1,2.1-2.1c1.2,0,2.1,1,2.1,2.1S244.1,142.5,242.9,142.5
	C242.9,142.5,242.9,142.5,242.9,142.5z M242.9,138.7c-1,0-1.7,0.8-1.7,1.7c0,1,0.8,1.7,1.7,1.7c1,0,1.7-0.8,1.7-1.7
	C244.6,139.4,243.9,138.6,242.9,138.7C242.9,138.6,242.9,138.6,242.9,138.7L242.9,138.7z"/>
<path class="st1" d="M242,141.3v-1.9h0.8c0.1,0,0.3,0,0.4,0c0.1,0,0.2,0.1,0.2,0.2c0.1,0.1,0.1,0.2,0.1,0.3c0,0.1,0,0.3-0.1,0.4
	c-0.1,0.1-0.2,0.2-0.4,0.2c0.1,0,0.1,0.1,0.2,0.2c0.1,0.1,0.2,0.2,0.2,0.3l0.2,0.4h-0.5l-0.3-0.4l-0.2-0.3l-0.1-0.1h-0.3v0.8
	L242,141.3z M242.4,140.2h0.3h0.3c0,0,0.1,0,0.1-0.1c0,0,0-0.1,0-0.1c0-0.1,0-0.1,0-0.2c0,0-0.1,0-0.1,0h-0.6L242.4,140.2z"/>
</svg>
