<?xml version="1.0" encoding="utf-8"?>
<!-- Generator: Adobe Illustrator 21.1.0, SVG Export Plug-In . SVG Version: 6.00 Build 0)  -->
<svg version="1.1" id="Layer_1" xmlns="http://www.w3.org/2000/svg" xmlns:xlink="http://www.w3.org/1999/xlink" x="0px" y="0px"
	 viewBox="0 0 250 250" style="enable-background:new 0 0 250 250;" xml:space="preserve">
<style type="text/css">
	.st0{fill:#A71F2D;}
	.st1{fill:#FCC631;}
	.st2{fill:#FEFDFD;}
</style>
<title>CR</title>
<path class="st0" d="M5,110.1c0.7-0.5,1.5-0.9,2.4-1c3.7-0.9,7.5-1.3,11.3-1c1.2,0,2.3,0.3,3.4,0.7c1,0.4,1.6,1.3,1.6,2.3
	c0.2,3.4,0.2,6.9,0.3,10.3c0.1,3.4,0.1,7.1,0.1,10.7c0.1,4.7,0,9.4,0.1,14.1c0,1.9,0,3.9,0,5.8c0,0.1-0.1,0.4,0.1,0.4
	c0.3,0,0.3-0.2,0.3-0.4c1-2.8,2-5.6,2.9-8.4c2.1-6.1,4-12.3,5.6-18.5c1.3-4.8,2.5-9.6,3.7-14.5c0.1-0.5,0.5-0.9,1-1.1
	c1.6-0.5,3.2-0.9,4.9-1.1c2.6-0.4,5.3-0.6,7.9-0.4c1.1,0,2.2,0.3,3.3,0.6c1.1,0.3,1.8,1.3,1.8,2.4c0.1,2.8,0.2,5.7,0.3,8.5
	c0.1,5.3,0.2,10.7,0.2,15.9c0.1,5.3,0.1,10.3,0.1,15.5c0,0.4,0,0.7,0,1.1c0,0.1,0,0.2,0.1,0.3c0.1,0,0.2-0.1,0.3-0.2
	c0.2-0.5,0.4-1,0.6-1.6c2.4-7,4.6-14,6.6-21.2c1.7-6.2,3.4-12.4,5-18.7c0.1-0.4,0.4-0.8,0.8-1c1.8-0.7,3.7-1.2,5.6-1.4
	c1.7-0.3,3.4-0.3,5.2-0.1c0.9,0.1,1.7,0.3,2.4,0.8c0.6,0.4,0.9,1.1,0.7,1.8c-0.5,2.3-1.1,4.5-1.8,6.7c-4,12.6-8.4,25-13,37.4
	c-2.1,5.7-4.2,11.4-6.5,16.9c-0.3,0.8-0.7,1.6-1.1,2.4c-0.2,0.4-0.6,0.7-1,0.9c-1.5,0.5-3,0.9-4.6,1.1c-1.6,0.3-3.2,0.5-4.9,0.6
	h-3.4c-1.2,0-2.4-0.3-3.5-0.7c-0.8-0.3-1.4-1-1.5-1.8c0-0.4-0.1-0.8-0.1-1.2c-0.2-2.6-0.4-5.2-0.5-7.8c-0.3-5.3-0.5-10.6-0.8-15.9
	c-0.1-2.8-0.2-5.7-0.3-8.5c0-0.1,0-0.3-0.2-0.3c-0.1,0.2-0.2,0.4-0.2,0.6c-2.7,8.8-5.3,17.6-8.3,26.3c-0.7,2.2-1.6,4.3-2.7,6.4
	c-0.4,0.7-1,1.2-1.8,1.3c-3.9,1.1-7.9,1.6-11.9,1.5c-1.3,0-2.6-0.2-3.8-0.7c-0.8-0.2-1.4-0.9-1.5-1.7c-0.1-1.2-0.3-2.4-0.4-3.6
	c-0.3-3.1-0.5-6.2-0.8-9.3c-0.3-3.3-0.5-6.7-0.8-9.9c-0.2-2.9-0.4-5.7-0.7-8.6c-0.3-3.3-0.5-6.7-0.8-10c-0.2-3.1-0.5-6.2-0.7-9.3
	c-0.3-3.3-0.5-6.5-0.8-9.8c0-0.5-0.1-0.9-0.2-1.3L5,110.1z"/>
<path class="st1" d="M89.1,73.2l2.9,1.7l8,4.6l4.5,2.5c1.7,1,3.5,1.9,5.2,2.9c1.1,0.7,2,1.7,2.7,2.9c0.8,1.3,1.5,2.7,2.3,4
	c1,1.7,1.9,3.5,2.9,5.3c0.3-0.4,0.6-0.9,0.7-1.5c0.7-1.6,1.4-3.3,2.1-4.9c0.5-1.2,0.8-2.5,0.9-3.9c0.1-1.3,0-2.7-0.1-4
	c0-0.4-0.2-0.9,0.3-1.1c0.4-0.2,0.6,0.4,0.8,0.7c0.1,0.2,0.3,0.3,0.5,0.4c0.1-0.8,0-1.5-0.1-2.3c-0.1-1.3-0.1-2.6-0.1-3.8
	c0-0.1,0-0.1,0-0.2c0.1-0.2,0.1-0.4,0.3-0.5c0.2,0,0.4,0.2,0.5,0.3c0.2,0.4,0.4,0.9,0.6,1.3c0.1,0.2,0.2,0.4,0.3,0.6
	c-0.1-1.2-0.2-2.4-0.1-3.6c0-0.3,0.1-0.6,0.2-0.9c0.1-0.4,0.3-0.3,0.5-0.1c0.3,0.4,0.5,0.9,0.7,1.3c1,2.2,1.9,4.4,2.8,6.7
	s1.8,4.1,2.7,6.2c0.3,1,0.4,2.2,0.2,3.2c-0.4,2-1.1,3.9-2,5.7c-0.9,2.2-1.9,4.4-2.8,6.6c-0.4,0.9-0.4,0.9,0.5,1.2
	c1,0.3,2.1,0.3,3.2,0l4.6-1.1c1.9-0.5,3.9-0.9,5.8-1.5c0.9-0.3,1.7-0.8,2.7-1.1c1.9-0.7,3.9-0.5,5.6,0.6c0.7,0.5,1.6,0.7,2.4,0.7
	c0.4,0,0.9,0,1.3,0.1c0.4,0.2,0.4,0.3,0.1,0.6c-0.3,0.2-0.8,0.4-1.2,0.5c-0.6,0.2-1.3,0.2-2,0.2c-0.8,0-1.5,0.1-2.3,0.3
	c-0.2,0-0.3,0-0.3-0.2c0-0.8-0.7-1.4-1.5-1.3c-0.4,0-0.7-0.2-0.8-0.6c-0.1-0.5-0.6-0.6-1.1-0.4c-0.7,0.3-0.9,1.1-0.6,1.8
	c0.1,0.3,0.3,0.5,0.6,0.6c0.2,0.1,0.4,0.2,0.7,0.4c-0.8,0-1.5,0.1-2.2,0.2c-0.9,0.2-1.8,0.4-2.7,0.7c-1.7,0.6-3.4,1.2-5.1,1.8
	c-1.7,0.6-3.3,1.3-4.9,2.2c-2.5,1.3-5,2.5-7.6,3.5c-1.6,0.5-3.2,0.9-4.9,1.1c-2.3,0.4-4.6,0.6-6.9,0.5c-2.5,0-5,0-7.5-0.2
	c-1.2,0-2.4-0.4-3.3-1.2c-0.1-0.1-0.3-0.2-0.5-0.2c-1.1,0-2.3-0.1-3.4-0.2c-0.6,0-1.1-0.2-1.7-0.4c-0.4-0.1-0.6-0.5-0.5-0.9
	c0,0,0,0,0-0.1c0.1-0.3,0-0.5-0.4-0.4c-1.3,0-2.5,0-3.8,0c-0.4,0-0.9,0-0.9-0.3s0.5-0.4,0.8-0.5c1.9-0.6,3.8-0.9,5.8-0.9
	c1.9-0.1,3.9-0.4,5.7-0.9c1.3-0.4,2.7-0.6,4-0.9c0.3-0.1,0.7-0.2,1-0.2c0.1,0,0.2-0.1,0.2-0.2c0-0.1-0.1-0.2-0.2-0.2
	c-1.6-1.3-2.8-3.1-3.5-5.1c-0.7-1.8-1.3-3.6-2.3-5.3c-0.7-1.3-1.7-2.5-2.8-3.6c-0.9-0.9-1.7-1.9-2.4-2.9c-0.1-0.1-0.1-0.2-0.2-0.3
	c-0.1-0.3-0.5-0.6-0.3-0.9s0.6-0.1,1,0c0.2,0,0.3,0.1,0.5,0.2C95,87.8,94,86.9,93,86c-1.3-1.1-2.5-2.3-3.6-3.6
	c-0.1-0.1-0.1-0.2-0.2-0.3c-0.2-0.3-0.4-0.7-0.1-1c0.3-0.3,0.6-0.1,1,0s0.9,0.4,1.3,0.3c0,0.1,0,0.2,0.1,0.2c0.1,0,0,0,0,0
	c0-0.1-0.1-0.1-0.1-0.1c-0.3-0.5-0.7-0.9-1.1-1.3c-0.8-0.8-1.5-1.7-2.1-2.7c-0.1-0.2-0.4-0.5-0.2-0.7c0.2-0.2,0.5-0.1,0.8,0
	c0.2,0.1,0.4,0.2,0.6,0.3c0.1,0,0.2,0.2,0.3,0s0-0.2-0.1-0.3c-0.6-0.8-1-1.7-1.3-2.7c-0.1-0.3-0.1-0.6,0-0.9L89.1,73.2z"/>
<path class="st0" d="M245,131.5c-0.2,0.8-0.7,1.5-1.3,2.1c-1.7,1.2-4.1,0.8-5.3-0.9c-1.1-1.7-0.6-4.1,1.1-5.2c1.7-1.1,4-0.5,5.1,1.2
	c0.2,0.3,0.3,0.6,0.4,0.9c0,0.1,0.1,0.1,0.1,0.2L245,131.5z M243.9,130.6c-0.1-1.4-1.3-2.5-2.7-2.4c-1.4,0.1-2.5,1.3-2.4,2.7
	c0.1,1.3,1.2,2.4,2.5,2.5C242.7,133.4,243.9,132.2,243.9,130.6C243.9,130.7,243.9,130.7,243.9,130.6L243.9,130.6z"/>
<path class="st0" d="M155.7,146.6c-0.4,1.2-0.7,2.3-1,3.5c-2.2,7.4-4.9,14.7-8.1,21.7c-0.3,0.8-0.8,1.5-1.2,2.2
	c-0.4,0.7-1,1.2-1.8,1.5c-1.5,0.5-3,0.8-4.5,1c-2,0.3-4.1,0.3-6.1,0.1c-0.9-0.1-1.8-0.3-2.7-0.6c-0.8-0.3-1.4-1-1.5-1.9
	c-0.2-1.8-0.4-3.6-0.6-5.4c-0.3-3.2-0.5-6.3-0.8-9.5c-0.2-2.9-0.4-5.7-0.7-8.6c-0.3-3.1-0.5-6.2-0.8-9.3c-0.2-2.5-0.4-5-0.7-7.5
	c-0.2-2.5-0.4-5.1-0.7-7.7c0-0.7,0-1.3-0.1-2c-0.1-0.6,0.3-1.2,0.9-1.3c0.8-0.4,1.7-0.6,2.6-0.8c3-0.6,6.1-0.8,9.2-0.4
	c0.7,0.1,1.5,0.3,2.2,0.6c0.8,0.3,1.3,1.1,1.3,2c0.2,2.7,0.3,5.3,0.3,8c0.1,4.6,0.2,9.1,0.3,13.7c0.1,3.7,0.1,7.3,0.2,11
	c0,0.2-0.1,0.5,0.2,0.6s0.3-0.3,0.3-0.5c1.8-4.7,3.3-9.6,4.7-14.5c1.5-5.2,2.8-10.5,4.1-15.8c0.2-0.9,0.5-1.7,0.7-2.6
	c0.1-0.6,0.6-1.1,1.2-1.3c1.2-0.5,2.5-0.8,3.8-1c2.2-0.4,4.4-0.5,6.7-0.3c1.1,0.1,2.2,0.3,3.2,0.7c0.9,0.3,1.5,1.2,1.5,2.2
	c0.5,6,0.7,12,1,17.9c0.2,4.2,0.4,8.3,0.6,12.5c0,0.8,0,1.5,0.1,2.3c0,0.2-0.1,0.4,0.2,0.5s0.2-0.2,0.3-0.4c0.8-2.1,1.5-4.3,2.1-6.5
	c2.4-8,4.3-16.1,6.3-24.2c0.2-0.7,0.4-1.5,0.5-2.2c0.2-0.8,0.8-1.5,1.7-1.7c1.5-0.6,3.1-0.9,4.7-1c2.2-0.3,4.4-0.2,6.6,0.3
	c0.4,0.1,0.8,0.2,1.2,0.4c0.5,0.2,0.8,0.8,0.6,1.3c0,0,0,0.1-0.1,0.1c-1.4,4.6-3,9.1-4.6,13.6c-2.7,7.6-5.7,15.2-8.8,22.7
	c-1.8,4.4-3.6,8.8-5.7,13.1c-0.2,0.3-0.4,0.6-0.5,0.9c-0.4,0.8-1.1,1.5-2,1.7c-3.8,1.2-7.8,1.5-11.7,0.8c-0.4-0.1-0.8-0.2-1.1-0.3
	c-1.1-0.3-1.9-1.3-1.9-2.4c-0.1-2-0.4-4-0.5-6c-0.3-4.5-0.6-9.1-0.8-13.6c-0.1-2.3-0.2-4.7-0.4-7
	C155.8,146.9,155.7,146.7,155.7,146.6z"/>
<path class="st0" d="M215,169c-1.3,1.4-2.7,2.7-4.3,3.9c-3.8,2.8-8.4,4.2-13.1,3.8c-5.6-0.3-10.2-4.5-11.1-10.1
	c-0.9-5.5,0.5-11.1,3.9-15.4c1.8-2.1,4.1-3.7,6.7-4.6c3.4-1.2,6.9-2.3,10.4-3.1c3-0.7,5.9-1.6,8.7-2.7c0.7-0.3,1.3-0.6,2-0.9
	c0.1-0.1,0.3-0.1,0.3-0.3c0.2-1,0.4-2.1,0.3-3.1c-0.2-1.7-1.3-3.2-2.9-3.9c-2.4-1.1-5.2-0.8-7.3,0.8c-0.8,0.8-1.5,1.7-1.9,2.7
	c-0.6,1.4-1.9,2.5-3.4,2.9c-2.2,0.8-4.5,1.1-6.8,0.9c-0.6,0-1.2-0.3-1.7-0.6c-0.7-0.4-1.1-1.2-1.1-2c0.1-2.1,0.8-4,2.1-5.7
	c4.6-6,11.5-9.7,19.1-10.3c4-0.4,8,0.1,11.7,1.5c4.4,1.5,7.5,5.6,7.7,10.3c0.2,3.1,0,6.2-0.5,9.2c-0.5,3.2-0.9,6.4-1.3,9.6
	c-0.5,3.4-1,6.8-1.5,10.2c-0.2,1.5-0.5,2.9-0.6,4.4c-0.1,1.2,0.3,2.4,1.2,3.2c1.4,1.3,1.4,3.5,0.1,4.9c-0.4,0.4-0.8,0.7-1.3,0.8
	c-1.7,0.7-3.5,1.2-5.3,1.3c-1.5,0.2-3,0.1-4.5-0.1c-2.3-0.2-4.2-1.8-4.7-4C215.6,171.4,215.3,170.2,215,169z M217.5,148.4
	c-1.3,0.8-2.7,1.6-3.9,2.3c-2.4,1.3-4.9,2.5-7.4,3.8c-2.3,1-3.9,3.1-4.5,5.5c-0.5,1.8,0.4,3.7,2.1,4.4c1.7,0.9,3.8,0.9,5.6,0.1
	c2.6-1.3,4.8-3.2,6.3-5.7c0.1-0.2,0.2-0.5,0.2-0.7c0.3-1.6,0.5-3.3,0.8-4.9L217.5,148.4z"/>
<path class="st0" d="M101.4,169c-1,1.1-2.1,2.1-3.3,3.1c-3.9,3.3-8.9,4.9-14,4.6c-5.4-0.3-9.9-4.2-11-9.5c-0.7-3.5-0.4-7.1,0.8-10.4
	c0.8-2.8,2.4-5.4,4.6-7.3c2-1.6,4.2-2.8,6.7-3.6c3.6-1.2,7.4-2.1,11.1-3.1c2.3-0.6,4.6-1.3,6.8-2.2c1.3-0.3,2.2-1.4,2.3-2.7
	c0.2-1.7-0.4-3.4-1.6-4.5c-1.4-1.2-3.2-1.7-4.9-1.5c-2.2,0.1-4.1,1.4-5.1,3.4c-0.1,0.2-0.3,0.5-0.4,0.7c-0.7,1.6-2,2.7-3.7,3.1
	c-2,0.6-4,0.9-6.1,0.9c-2.4,0-3.5-1.5-3-3.9c0.5-2.4,1.7-4.5,3.4-6.2c3.6-3.9,8.2-6.6,13.3-7.9c3.5-0.8,7.1-1,10.7-0.5
	c2.5,0.2,5,1,7.2,2.2c3.2,1.8,5.3,5,5.7,8.6c0.3,3,0.2,6-0.3,9c-0.4,3.2-0.9,6.3-1.3,9.5c-0.5,3.4-1,6.8-1.5,10.2
	c-0.2,1.7-0.5,3.4-0.7,5.1c-0.2,1.3,0.3,2.5,1.2,3.4c1.2,1.1,1.4,3,0.5,4.4c-0.4,0.6-1,1.1-1.7,1.3c-3.4,1.4-7.2,1.8-10.8,1
	c-1.8-0.4-3.2-1.7-3.6-3.5C101.9,171.6,101.6,170.3,101.4,169z M103.9,148.4l-0.5,0.3c-1.8,1.1-3.7,2.2-5.7,3.2
	c-1.9,1-3.8,1.8-5.6,2.9c-1.8,1-3.2,2.7-3.8,4.7c-0.8,2,0.1,4.3,2.1,5.1c0.2,0.1,0.5,0.2,0.7,0.2c1.7,0.6,3.6,0.4,5.2-0.5
	c2.3-1.3,4.2-3,5.7-5.2c0.2-0.3,0.4-0.7,0.4-1.1c0.2-1.4,0.5-2.9,0.7-4.3L103.9,148.4z"/>
<path class="st2" d="M91.4,81.4c0.1,0,0.1,0,0.1,0.1l0,0C91.5,81.5,91.4,81.4,91.4,81.4L91.4,81.4z"/>
<path class="st0" d="M243,132.5c-0.5,0.2-1.1,0-1.3-0.5c0-0.1-0.1-0.1-0.1-0.2c-0.1-0.2-0.2-0.5-0.4-0.7c-0.1-0.1-0.1-0.3-0.3-0.3
	c-0.2,0-0.2,0.2-0.2,0.4c0,0.3,0,0.6,0,1c0,0.3-0.2,0.3-0.4,0.3c-0.2,0-0.5,0-0.4-0.3c0-1.1,0-2.2,0-3.3c0-0.2,0-0.3,0.3-0.3
	c0.6,0,1.3,0,1.9,0.1c0.5,0.1,0.8,0.4,0.9,0.9c0.1,0.5-0.1,1-0.6,1.2c-0.3,0.1-0.2,0.2-0.1,0.4L243,132.5z M241.2,130.3h0.5
	c0.2,0,0.4-0.2,0.4-0.4c0,0,0,0,0,0c0-0.2-0.2-0.4-0.4-0.4c-0.1,0-0.3,0-0.4,0c-0.3,0-0.5,0-0.5,0.4S240.9,130.3,241.2,130.3
	L241.2,130.3z"/>
</svg>
