<?xml version="1.0" encoding="utf-8"?>
<!-- Generator: Adobe Illustrator 21.1.0, SVG Export Plug-In . SVG Version: 6.00 Build 0)  -->
<svg version="1.1" id="Layer_1" xmlns="http://www.w3.org/2000/svg" xmlns:xlink="http://www.w3.org/1999/xlink" x="0px" y="0px"
	 viewBox="0 0 250 250" style="enable-background:new 0 0 250 250;" xml:space="preserve">
<style type="text/css">
	.st0{fill:#C3053E;}
	.st1{fill:#0B367E;}
</style>
<title>CR</title>
<path class="st0" d="M125,167.6H8.2c-1.4,0-3,0.4-3.1-2c-0.1-4.3-0.1-4.6,2.9-4.8c18.2-1.6,36.3-3.1,54.5-4.6
	c18.2-1.5,36.5-2.9,54.7-4.7c8.5-0.8,16.8,0.2,25.2,0.9c15.9,1.3,31.8,2.7,47.7,4c17.3,1.5,34.5,3,51.8,4.5c1,0.1,2.5-0.3,2.8,1
	c0.5,1.7,0.5,3.6-0.1,5.3c-0.4,0.9-1.6,0.6-2.5,0.6L125,167.6L125,167.6z"/>
<path class="st0" d="M124.9,99.1c-11-0.9-22-1.8-33-2.7c-15.1-1.3-30.2-2.7-45.2-3.9c-13.1-1.1-26.2-2.2-39.4-3.3
	C5.7,89.2,5,88.6,5.1,87c0.1-0.7,0.1-1.5,0-2.2C5,83,5.8,82.4,7.6,82.4c2.8,0.1,5.6,0,8.3,0c75.2,0,150.4,0,225.6,0
	c1.1,0,2.7-0.6,3.1,0.7c0.6,1.8,0.6,3.7,0,5.5c-0.2,0.6-1.1,0.5-1.8,0.6c-24,2-48,4-71.9,6c-14.5,1.2-29,2.5-43.5,3.7
	c-0.8,0.1-1.6,0-2.5,0L124.9,99.1z"/>
<path class="st1" d="M53,128.6c1.1-0.2,1-1.1,1.3-1.7c2.7-5.6,5.4-11.2,8-16.8c0.4-1.4,1.9-2.4,3.3-2.1c2.1,0.1,4.3,0.1,6.4,0
	c1.9-0.1,2.1,0.5,1.2,2.1c-3.9,7.1-7.8,14.2-11.7,21.3c-2.3,4.2-4.6,8.3-6.8,12.5c-0.5,1.3-1.7,2-3.1,1.8c-2-0.1-4.1-0.1-6.1,0
	c-1.9,0.1-2.5-0.5-2.3-2.4c0.6-4.7,1-9.4,1.4-14.1c0.2-0.6,0.1-1.2-0.2-1.7c-1.1,0-1.2,0.9-1.5,1.6c-2.4,4.9-4.8,9.8-7.2,14.8
	c-0.4,1.2-1.5,2-2.8,1.9c-2.2-0.1-4.4-0.1-6.7,0c-1.4,0-2.1-0.3-2.1-1.9c0.2-11.3,0.5-22.6,0.6-33.8c0-1.3,0.5-1.9,1.9-1.9
	c2.2,0.1,4.4,0.1,6.7,0c1.6-0.1,2.2,0.5,2,2.1c-0.5,5.3-1,10.7-1.5,16.1c0,0.8-0.4,1.6,0.2,2.4c1,0,1.1-0.9,1.3-1.5
	c2.8-5.8,5.6-11.6,8.3-17.5c0.5-1,0.9-1.7,2.1-1.6c2.1,0,4.3,0.1,6.4,0c1.5,0,1.7,0.7,1.6,2c-0.5,5.5-1,10.9-1.4,16.4
	C52.7,127.1,52.4,127.9,53,128.6z"/>
<path class="st1" d="M85.9,145.6c-4.3,0-8.7,0-13,0c-1.7,0-2.2-0.5-1.7-2.2c3.2-10.9,6.4-21.8,9.5-32.7c0.2-1.7,1.8-3,3.5-2.8
	c0.1,0,0.1,0,0.2,0c8.2,0.1,16.4,0,24.5,0c1.8,0,2.5,0.5,1.7,2.3c-0.1,0.2-0.2,0.5-0.2,0.7c-1.9,6.4-1.9,6.4-8.7,6.4
	c-3.4,0-6.7,0-10.1,0c-1.7,0-3.6,3-2.9,4.4c0.5,0.9,1.3,0.7,2.2,0.7c4.2,0,8.3,0,12.5,0c1.7,0,2.1,0.4,1.7,2.1
	c-1.7,6.5-1.6,6.5-8.2,6.5c-3,0-6.1,0-9.1,0c-2,0.4-3.4,2.2-3.1,4.3c0.3,1.1,1.2,0.9,2,0.9c4.7,0,9.5,0.1,14.2,0
	c2.1,0,2.6,0.4,2,2.5c-2,6.9-2,6.9-9.1,6.9L85.9,145.6L85.9,145.6z"/>
<path class="st1" d="M210.7,146.5c-11.5,0.2-17-5.7-16.2-15.7c0.9-10.7,5.5-18.8,15.9-22.6c4.6-1.7,9.6-1.5,14.2,0.3
	c4.8,1.9,6.9,5.9,7.1,10.8c0.4,9.6-2.7,17.8-10.7,23.7C218,145.1,214.4,146.4,210.7,146.5z M220.8,123.8c0.1-3.5-0.2-5.8-2.8-7
	c-2.6-1.2-5.6-0.6-7.5,1.5c-4,3.9-5.8,9.5-4.9,15c0.2,2.5,2.5,4.3,5,4.1c0,0,0,0,0,0c1.9,0,3.7-0.7,5.1-2.1
	C219.4,131.9,220.4,127.4,220.8,123.8L220.8,123.8z"/>
<path class="st1" d="M117.2,133.2c0.8,0.1,1.6,0.1,2.5,0c1.9-0.3,2.8,0.3,3,2.4s2.1,3.1,5.4,2.9c2.6-0.2,4.7-1.8,4.9-3.7
	c0.1-1.3-0.7-2.5-1.9-2.8c-1.9-0.7-3.8-1.3-5.8-2c-4.1-1.4-7.9-3.2-8.4-8.2c-0.7-4.9,1.8-9.6,6.2-11.9c5.6-3.4,12.5-3.7,18.4-0.9
	c3.6,1.6,4.9,4.9,5,8.6c0,1.2-0.4,1.8-1.7,1.8c-2.2-0.1-4.4-0.1-6.7,0c-1.1,0-1.5-0.5-1.9-1.5c-1.2-2.8-6-3.5-8.1-1.3
	c-1,0.9-1.2,2.5-0.2,3.6c0.3,0.3,0.6,0.5,1,0.7c2,0.8,4,1.4,6.1,1.9c4.2,1.3,7.7,3.5,8.4,8.2c0.5,3.6-0.7,7.3-3.2,10
	c-5.3,6-17.2,7.6-24,3.2c-3.3-2.1-4.4-5.3-4.4-9c0-1.2,0.5-1.8,1.8-1.8C114.7,133.2,115.9,133.2,117.2,133.2z"/>
<path class="st1" d="M182.3,121.8c-0.8,0-1.6,0-2.5,0c-1.5,0.1-2.4-0.2-2.6-2c-0.2-2.4-2-3.4-4.3-3.5c-2.9-0.1-5.7,1.4-7.1,4
	c-2.2,3.5-3.3,7.6-2.9,11.7c0.2,2.4,1.1,4.5,3.7,5.2c2.5,0.6,5.2-0.3,6.7-2.4c0.9-1,0.9-3,2.5-3.1c2.9-0.2,5.9-0.2,8.8,0
	c0.9,0,0.8,0.9,0.5,1.5c-2.3,6.2-6.2,10.7-12.8,12.5c-3.4,1-7,1.2-10.4,0.5c-4.8-0.7-8.6-4.3-9.6-9c-2.5-9.5,2-21.3,10.1-26.8
	c6.1-4.1,15.9-4.2,20.8-0.2c3.3,2.7,4.2,6.3,4.3,10.3c0.1,0.7-0.4,1.4-1.2,1.5c-0.1,0-0.2,0-0.3,0L182.3,121.8z"/>
</svg>
