<?xml version="1.0" encoding="utf-8"?>
<!-- Generator: Adobe Illustrator 21.1.0, SVG Export Plug-In . SVG Version: 6.00 Build 0)  -->
<svg version="1.1" id="Layer_1" xmlns="http://www.w3.org/2000/svg" xmlns:xlink="http://www.w3.org/1999/xlink" x="0px" y="0px"
	 viewBox="0 0 250 250" style="enable-background:new 0 0 250 250;" xml:space="preserve">
<style type="text/css">
	.st0{fill:#E7A839;}
	.st1{fill:#FFFFFF;}
	.st2{fill:#B86E27;}
</style>
<title>CR</title>
<path class="st0" d="M86.3,108.2c0-15,16-27.2,35.6-27.2s35.6,12.2,35.6,27.2s-16,27.2-35.6,27.2S86.3,123.2,86.3,108.2z"/>
<path class="st1" d="M112.8,88.4c1.2-0.5,2.6,0.2,3.1,1.4c0,0,0,0.1,0,0.1c0.2,0.8,0,1.7-0.6,2.4c-0.6,0.6-1.4,0.8-2.2,0.7
	c0.4,4.7,0.9,9.1,4.8,12c1.8,1.1,4.1,1.1,5.9-0.1c4-3.7,5.1-8.8,6.2-13.9c0.3-0.9,1-1.5,1.9-1.6c0.8-0.1,1.5,0.2,2.1,0.7
	c1.6,1.5,0,2.8,1.1,3.9c1.2-0.3,2.4-0.1,3.4,0.6c2.3,2.7,1.9,6.1,1.6,9.3c0.3,0.5,1.1-1.3,2,0.6c0.5,2.6,0.3,5.3-0.5,7.8
	c-1.3,2.5-9.1,4.8-14,5.4c-8.5,1.1-18.4,0.4-24.8-2.7c-2.1-0.8-3.1-3.1-2.4-5.1c0,0,0,0,0,0c0.6-3.4,3.1-6.2,4.2-9.3
	c0.3-0.9,0.1-1.8-0.6-2.5c-0.9-0.9-2.7-1-2.9-2.1c0.4-1.9,3.7-1.2,3.6-2.8c0,0-0.8,0.2-1-0.8c-0.1-0.5,0.1-1,0.6-1.2l0.7-0.1
	c0,0,0.3,0,0-0.3c-0.3-0.2-0.5-0.5-0.5-0.8c0,0-0.2-0.7,0.9-1.5c0.6-0.3,1.3-0.1,1.7,0.5c0.3,0.4,0.4,0,0.4,0c0-0.6,0.2-1.2,0.5-1.6
	c1-1,2.5-1.2,3.7-0.4c0.5,0.3,0.8,0.9,0.9,1.5c0,0.2,0,0.3,0,0.3L112.8,88.4z"/>
<path class="st1" d="M140.8,117.1c0,5.1-4.3,9-8.6,11.2c-8.3,4.3-20.3,3.3-27.3-2.9c-2.3-2.4-4.1-4.6-4.3-7.8
	c0.1-1.1,0.8-0.9,1.2-0.7c11.3,5,27.2,5,38.1-0.4C140.2,116.4,140.8,116.3,140.8,117.1L140.8,117.1z"/>
<path class="st2" d="M242.3,167h-0.5v-2.5h0.9c0.6,0,1,0.2,1,0.8c0,0.3-0.2,0.6-0.5,0.6c0,0-0.1,0-0.1,0l0.6,1.1h-0.6l-0.6-1.1h-0.3
	V167L242.3,167L242.3,167z M242.8,165.5c0.2,0,0.4,0,0.4-0.3c0-0.3-0.3-0.3-0.5-0.3h-0.4v0.6L242.8,165.5L242.8,165.5z M242.7,168.1
	c-1.3,0-2.3-1-2.3-2.3c0-1.3,1-2.3,2.3-2.3c1.3,0,2.3,1,2.3,2.3c0,1.2-0.9,2.3-2.2,2.3C242.8,168.1,242.7,168.1,242.7,168.1
	L242.7,168.1z M242.7,164c-1,0.1-1.7,1-1.6,1.9c0.1,0.9,0.8,1.6,1.6,1.6l0,0c1-0.1,1.7-1,1.6-1.9C244.2,164.8,243.6,164.1,242.7,164
	z"/>
<path class="st2" d="M165.8,149.2c-0.1-1,0.1-2.1,0.6-3c3.7-1.1,7.7-1.1,11.4,0c0.8,0.2,1.5,0.9,1.7,1.8v15.4h-4.8v-0.9
	c-2,1.8-5.5,1.7-7.7,0.5c-2.5-1.5-2.8-4.3-2.8-6.7c-0.1-1.7,0.6-3.4,1.9-4.6c0.8-1,4.7-1.2,4.7-1.2c1.4-0.1,2.9,0.1,4.2,0.5
	c0.2-0.6,0.2-1.2-0.1-1.8C173.7,147,165.8,149.2,165.8,149.2L165.8,149.2z M170.4,153.4c-1.1,0.4-2,2.9-1.3,4.8
	c0.4,1.2,1.1,2.5,2.5,2.7c1,0.2,2-0.3,2.5-1.2c1-1.6,1.2-3.6,0.5-5.4C173.7,152.7,171.5,152.8,170.4,153.4L170.4,153.4z M99.5,154.1
	h-5.1v9.3h-5.1v-21.1h5.1v8.8h5.1v-8.8h5.1v21.1h-5.2V154.1L99.5,154.1z M65.9,163c-2.1,0.8-4.4,0.8-6.5-0.1c-1-0.4-1.7-1.4-1.8-2.4
	v-12h-1.5v-2.2h1.5v-2.8h5.2v2.8h3.1v2.3h-3.1v11c0.6,1.2,1.8,1.9,3.1,1.8L65.9,163L65.9,163z M139.8,147.3c-1.6-1.4-3.8-2-5.9-1.7
	c-1.2,0.2-2.4,0.7-3.4,1.5v-0.9h-4.9v17.2h5.1v-13.6c0-0.9,1.2-1.5,2.4-1.5c1.1,0,2.4,0.7,2.4,1.5v13.6h5.1v-14.5
	C140.6,148.2,140.3,147.7,139.8,147.3L139.8,147.3z M222.3,151.7h-3.1v-2.1c-0.1-1.1-2.7-1.1-2.9,0v13.8h-5.1v-17.3h4.8v0.7
	c0.2-0.2,0.5-0.4,0.8-0.5c1.1-0.5,2.3-0.6,3.5-0.3c1,0.2,1.7,0.9,2,1.8L222.3,151.7L222.3,151.7z"/>
<path class="st2" d="M73.9,163.6c0,0-4.5,0-5.5-1c-1.5-1-2.7-3.3-2.6-7.7c0-3.1,0-6.6,2.7-8.4c1.8-1.3,5.5-1.3,5.5-1.3
	s4.5-0.1,6.2,1.1c0.3,0.2,0.5,0.4,0.7,0.6c1.3,2.1,1.1,4.6,0.9,7.4c-0.7,1.7-3.4,1.8-5.2,2.1c-1.9,0.2-3.8,0.1-5.6-0.2
	c0,1.3,0.3,3.3,1.7,4c1.4,0.3,2.9,0.3,4.4,0.1c0.9,0,4.3-0.9,4.3-0.9c0.2,0.9,0.1,1.9-0.2,2.8C80.5,163.6,73.9,163.6,73.9,163.6
	L73.9,163.6z M73.1,148.1c-1.8,1-1.9,3.1-2,4.9c2,0.4,4.1,0.3,6.1-0.1c0.2-1.6-0.3-3.3-1.5-4.4C75,147.8,74,147.7,73.1,148.1
	L73.1,148.1z M28.4,161.1c-0.1,0.4-0.2,0.7-0.4,1c-2.7,3.2-8,2.1-11.3,0.7l0,0c-3.3,1.4-8.6,2.5-11.3-0.7c-0.2-0.3-0.3-0.6-0.4-1
	v-18.8h5.1v16.8c0.2,0.6,0.6,1.1,1.1,1.3c0.9,0.4,1.9,0.1,2.6-0.7c0.2-0.2,0.3-0.5,0.3-0.8v-12.9c0.8-0.6,1.7-0.8,2.7-0.6
	c0.9-0.1,1.8,0.1,2.5,0.6V159c0,0.3,0.1,0.5,0.3,0.8c0.6,0.8,1.7,1,2.6,0.7c0.6-0.2,1-0.7,1.1-1.3v-16.8h5.1L28.4,161.1L28.4,161.1
	L28.4,161.1z M54.3,163.4h-5.2v-17.2h5.2L54.3,163.4z M48.9,143.2c0-1.1,1.2-2,2.7-2s2.7,0.9,2.7,2s-1.2,2-2.7,2
	S48.9,144.3,48.9,143.2L48.9,143.2z M115.4,163.5c0,0-4.5,0-5.5-1c-1.5-1-2.7-3.3-2.6-7.7c0-3.1,0-6.6,2.7-8.4
	c1.8-1.3,5.5-1.3,5.5-1.3s4.5-0.1,6.2,1.1c0.3,0.2,0.5,0.4,0.7,0.6c1.3,2.1,1.1,4.6,0.9,7.4c-0.7,1.7-3.4,1.8-5.2,2.1
	c-1.9,0.2-3.8,0.1-5.6-0.2c0,1.3,0.3,3.3,1.7,4c1.4,0.3,2.9,0.3,4.4,0.1c0.9,0,4.3-0.9,4.3-0.9c0.2,0.9,0.1,1.9-0.2,2.8
	C121.9,163.5,115.3,163.6,115.4,163.5L115.4,163.5z M114.5,148c-1.8,1-1.9,3.1-2,4.9c2,0.4,4.1,0.3,6.1-0.1c0.2-1.6-0.3-3.3-1.5-4.4
	C116.5,147.8,115.4,147.6,114.5,148L114.5,148z M160.1,142.2c3.2,0.3,3.9,3.4,4,5.7c0.4,2.8-0.9,5.5-3.3,6.9
	c-0.7,0.2-1.4,0.4-2.2,0.4h-5.3v8.1h-5.2v-21L160.1,142.2L160.1,142.2z M159,146.7c-0.4-1.3-2.7-1.2-2.7-1.2h-3.1l0,0v5.8h3.1
	c0,0,2.2,0.1,2.7-1.2c0.3-1,0.4-2.1,0.2-3.1L159,146.7L159,146.7z M209.1,162.9c-2.1,0.8-4.4,0.8-6.5-0.1c-1-0.4-1.7-1.4-1.8-2.4
	v-12h-1.5v-2.2h1.5v-2.8h5.2v2.8h3v2.3h-3.1v11c0.6,1.2,1.8,1.9,3.1,1.8L209.1,162.9L209.1,162.9z M196.7,147.3
	c-2.6-2.4-6.6-2.5-9.3-0.2v-0.9h-4.9v17.2h5.2v-13.6c0-0.9,1.2-1.5,2.4-1.5s2.4,0.7,2.4,1.5v13.6h5.2v-14.5
	C197.5,148.2,197.2,147.7,196.7,147.3L196.7,147.3z M45.4,147.3c-2.6-2.4-6.6-2.5-9.3-0.2v-4.8h-4.9v21.1h5.1v-13.6
	c0-0.9,1.2-1.5,2.4-1.5c1.1,0,2.4,0.7,2.4,1.5v13.6h5.2v-14.5C46.2,148.2,45.9,147.7,45.4,147.3L45.4,147.3z M238.6,166.5
	c-0.4,0.8-1.1,1.4-1.9,1.7c-3.7,1.1-7.6,1.1-11.2,0c-0.5-0.9-0.7-2-0.6-3c0,0,8,2.2,9.1,0c0.3-0.5,0.4-1.2,0.1-1.8
	c-1.4,0.4-2.8,0.6-4.2,0.5c0,0-3.9-0.2-4.7-1.2l-0.2-0.2c-0.5-0.5-0.9-1.1-1.1-1.9v-14.5h5.2v13.6c0,0.8,1.2,1.5,2.4,1.5
	s2.4-0.7,2.4-1.5v-13.6h5.1V165C239,165.5,238.9,166.1,238.6,166.5L238.6,166.5z"/>
</svg>
