<?xml version="1.0" encoding="utf-8"?>
<!-- Generator: Adobe Illustrator 21.1.0, SVG Export Plug-In . SVG Version: 6.00 Build 0)  -->
<svg version="1.1" id="Layer_1" xmlns="http://www.w3.org/2000/svg" xmlns:xlink="http://www.w3.org/1999/xlink" x="0px" y="0px"
	 viewBox="0 0 250 250" style="enable-background:new 0 0 250 250;" xml:space="preserve">
<style type="text/css">
	.st0{fill:#006F52;}
	.st1{fill:#FFFFFF;}
</style>
<title>Grocery</title>
<g>
	<path class="st0" d="M213.6,170.5c0-1.5,1.2-2.6,2.7-2.6c1.5,0,2.6,1.2,2.6,2.7c0,1.4-1.2,2.6-2.6,2.6c-1.4,0-2.6-1.1-2.6-2.5
		C213.6,170.6,213.6,170.5,213.6,170.5 M212.9,170.5c0,1.9,1.5,3.3,3.4,3.3c1.9,0,3.3-1.5,3.3-3.4c0-1.8-1.5-3.3-3.4-3.3
		C214.4,167.1,212.9,168.6,212.9,170.5C212.9,170.5,212.9,170.5,212.9,170.5 M215,172.3h0.7v-1.6h0.4l1.1,1.6h0.8l-1.1-1.6
		c0.6,0,1-0.5,1-1.1c0,0,0,0,0-0.1c0-0.8-0.4-1.2-1.3-1.2H215L215,172.3z M215.6,169h0.7c0.4,0,0.9,0.1,0.9,0.6c0,0.5-0.5,0.5-1,0.5
		h-0.5L215.6,169"/>
	<path class="st0" d="M118.1,99.8c0-14.9,8.9-19.3,17.3-24.1c0.3-0.2,0.2-0.9-0.3-0.8c-4.2,0.6-6.7-2.3-9.8-2.3c-3.3,0-4.7,3-6,3
		s-1.4-0.7-1.4-1.5c0-2.9,4.8-7.9,10.7-7.9c5.2,0,10.1,4.1,12.9,4.1c0.7,0,1.3-0.3,1.3-0.6c0-1-2.3-1.1-5-3.4
		c-2.7-2.3-6.6-4.6-10.3-4.6c-4.9,0-8.4,3.3-9.2,5c-0.6,1.4-1.2,2.4-2.1,2.4c-1.2,0-1.4-1.2-1.4-2.4c0-3.2,4.8-11.8,12.9-11.8
		c5.7,0,10.5,4.5,14.6,8.8c1.1,1.3,2.7,2,4.5,2c1.6,0.1,4,0.5,4,2.8c0,4.6-8,7-14.7,12c-6.3,4.6-8.8,9.3-8.8,19.1
		c0,8.5,3.8,18,12.7,18c8.3,0,11.5-8.8,11.5-16.7c0-11.2-2-15.2-7.9-19.4c-0.6-0.3-0.9-0.9-0.9-1.6c0-0.7,0.5-1.3,1.1-1.4
		c0.3-0.1,0.7-0.1,1-0.1c9.2,0,16,10.3,16,21.4c0,12.9-7.1,22.5-22,22.5C124.6,122.3,118.1,111.3,118.1,99.8"/>
	<path class="st0" d="M65.2,135.7c-0.7,0-1.2-0.4-1.8-1.3c-1.8-2.7-2.6-2.9-9.3-2.9c-4.7,0-5.1,0.1-5.1,2.6v9.6h8
		c1.9,0,2.8,0.7,2.8,2.2c0,1.5-1,2.2-2.8,2.2h-6.6c-0.3,0-0.6,0.1-0.9,0.2c-0.5,0.2-0.5,0.6-0.5,1.9v12.8c-0.1,0.8,0,1.7,0.2,2.5
		c0.3,0.5,0.8,0.8,1.4,0.8h1.5c1,0,1.7,0.8,1.7,1.8c0,0,0,0,0,0c0,1.4-0.8,1.9-3.2,1.9H38.8c-2.2,0-3-0.5-3-1.9
		c0-0.9,0.7-1.7,1.6-1.8h1.3c0.5,0,0.9-0.4,1.1-0.8c0.2-0.8,0.3-1.7,0.2-2.5v-29c0.1-0.8,0-1.7-0.2-2.5c-0.2-0.5-0.6-0.8-1.1-0.8
		h-1.3c-0.9-0.1-1.6-0.9-1.6-1.8c0,0,0,0,0,0c0-1.4,0.7-1.9,2.8-1.9h23.7c1,0,1.3,0.1,1.5,0.3c0.5,0.4,0.8,0.9,1,1.5l1.7,4.4
		c0.1,0.3,0.2,0.7,0.3,1.1C66.8,135.1,66.1,135.8,65.2,135.7C65.2,135.7,65.2,135.7,65.2,135.7"/>
	<path class="st0" d="M126.7,166.3c-7.3,0-11.6-6.6-11.6-17.6c0-11,4.3-18,11.5-18s11.6,6.9,11.6,18
		C138.2,159.5,133.8,166.3,126.7,166.3 M85.6,166.3c-7.3,0-11.6-6.6-11.6-17.6c0-11,4.3-18,11.5-18s11.6,6.9,11.6,18
		C97.1,159.5,92.7,166.3,85.6,166.3 M126.6,126.1c-10.8,0-18.3,6.1-20.5,16.1c-2.2-9.9-9.7-16.1-20.6-16.1c-13,0-21.2,8.8-21.2,22.5
		c0,13.5,8.3,22.3,21.1,22.3c10.9,0,18.5-6.1,20.7-16.2c2.2,9.9,9.7,16.2,20.4,16.2c13.1,0,21.4-8.8,21.4-22.6
		C147.9,134.8,139.6,126.1,126.6,126.1"/>
	<path class="st0" d="M165.7,130.3c-1.7-0.1-3.4,0.3-4.8,1.3c-0.8,0.6-1,1.4-1,5.1v24.2c0,2.6,0,3.1,0.5,3.8c0.7,1,2.6,1.6,5.1,1.6
		c7.9,0,12.5-6.6,12.5-17.9C178,137,173.4,130.3,165.7,130.3 M180.2,166.4c-3.8,3-8.8,4.4-15.9,4.4c-6.7,0-14.4-1.5-16.6-3.2
		c-0.5-0.3-0.7-0.9-0.8-1.4c0-1,0.8-1.7,1.7-1.7c0,0,0,0,0.1,0c2-0.3,2.1-0.5,2.2-1.9l0.1-1.4v-25.3l-0.1-1.4
		c-0.1-1.7-0.3-1.9-2-2.1c-1.3,0-1.9-0.7-1.9-1.7c0-0.6,0.3-1.2,0.8-1.6c2.3-1.7,9.8-3.1,17.1-3.1c7.7,0,13,1.7,16.9,5.7
		c3.8,3.8,5.9,9.7,5.9,16.6C187.6,156.2,185,162.7,180.2,166.4"/>
	<path class="st0" d="M201.3,170.9c-2.3,0-4.6-0.3-6.8-0.9c-0.4-0.2-0.9-0.3-1.4-0.3c-0.5,0-1,0.2-1.4,0.6c-0.4,0.4-0.9,0.6-1.5,0.6
		c-1.1,0-1.6-0.6-2-2.1l-1.6-6.5c-0.1-0.4-0.2-0.8-0.2-1.3c0-1.1,1-2,2.1-2c0.6,0,1.2,0.3,1.6,0.8l0.9,1.3c2.2,3.1,5.7,5,9.5,5.1
		c4.2,0,7-2.3,7-5.7c0-1.8-0.8-3.5-2.1-4.8c-2.1-2.1-4.4-3.9-6.8-5.5c-6.1-4.3-6.7-4.7-8.7-7c-1.6-1.9-2.5-4.3-2.5-6.8
		c0-6.3,4.8-10.4,11.8-10.4c1.9,0,3.7,0.2,5.5,0.6c0.5,0.2,1.1,0.3,1.6,0.4c0.3,0.1,0.6,0.1,0.9,0.1c0.5,0,1-0.2,1.5-0.6
		c0.4-0.3,0.9-0.5,1.4-0.5c1,0,1.5,0.7,1.8,1.8l1.6,7c0.1,0.3,0.1,0.6,0.1,0.9c-0.1,0.9-0.9,1.6-1.9,1.6c0,0,0,0,0,0
		c-0.7,0-1.1-0.3-1.7-1.1c-0.8-1.4-1.8-2.6-3.1-3.5c-1.7-1.3-3.9-2.1-6.1-2.1c-3,0-4.9,1.7-4.9,4.3c0,0.9,0.2,1.8,0.7,2.6
		c0.8,1.2,1.8,2.2,3,3c0.8,0.6,1.8,1.3,3.2,2.3c5.1,3.5,6.8,4.8,8.8,7c2.2,2.4,3.5,5.5,3.5,8.8c0,7.5-5.5,12.4-14,12.4"/>
	<path class="st0" d="M192.7,113.7l-0.3,0.7l-2,4.9c-0.7,1.6-1.2,1.9-3.2,1.9h-24.8c-2.1,0-2.8-0.5-2.8-1.9c0-0.9,0.7-1.7,1.6-1.7
		c0,0,0,0,0,0h1.3c0.5,0,0.9-0.4,1.1-0.8c0.3-0.8,0.4-1.6,0.3-2.4V85.3c0.1-0.8,0-1.7-0.3-2.5c-0.1-0.5-0.6-0.8-1.1-0.8h-1.3
		c-1,0-1.7-0.8-1.7-1.8c0,0,0,0,0,0c0-1.4,0.8-1.9,3-1.9h11.9c2.3,0,3.1,0.5,3.1,1.9c0,1-0.7,1.8-1.7,1.8h-1.4
		c-0.6,0-1.1,0.3-1.4,0.8c-0.2,0.8-0.3,1.7-0.2,2.5v27c0,2.8,0.1,3.5,0.9,3.9c0.8,0.4,1.9,0.5,6.3,0.5c3.9,0,4.6,0,5.7-0.5
		s1.9-1.3,3.5-3.5c0.8-1.1,1.2-1.4,1.9-1.4c0.9-0.1,1.6,0.5,1.7,1.4C192.8,113.1,192.8,113.4,192.7,113.7"/>
	<path class="st0" d="M225.3,115.4l-1.9,4.3c-0.5,1.1-0.8,1.4-1.8,1.4l-1.3,0.1h-25.2c-2.2,0-2.9-0.5-2.9-1.9c0-0.9,0.7-1.7,1.6-1.7
		c0,0,0,0,0,0h1.3c0.5,0,0.9-0.4,1-0.8c0.3-0.8,0.4-1.7,0.3-2.6V85.4c0.1-0.8,0-1.7-0.3-2.5c-0.1-0.5-0.5-0.9-1-1h-1.3
		c-0.9-0.1-1.7-0.8-1.7-1.8c0-1.4,0.8-1.9,3-1.9h24.8c1.4,0,1.9,0.3,2.3,1.3l1.9,4.8c0.2,0.3,0.3,0.7,0.3,1.1
		c-0.1,0.9-0.9,1.5-1.7,1.5c-0.3,0-0.5-0.1-0.7-0.2c-0.3-0.2-0.6-0.4-0.9-0.6c-0.2-0.4-0.5-0.7-0.8-1.1c-1.3-1.9-2.5-2.3-6.6-2.3
		h-4.3c-3.5,0-3.9,0.5-3.9,3.9v8.2h8.2c1.9,0,2.5,0.6,2.5,2.1c0,1.5-0.8,2.3-2.5,2.3h-5c-1.9,0-2.3,0.1-2.6,0.3
		c-0.3,0.2-0.6,0.9-0.6,2.3v10.2c0,3.4,0.2,4.1,1.3,4.5c1.1,0.4,2.1,0.5,5.5,0.5c2,0.1,4,0,6-0.3c1.7-0.4,3.2-1.5,4-3.1
		c0.8-1.2,1.1-1.4,1.9-1.4c0.8-0.1,1.6,0.5,1.7,1.4c0,0.1,0,0.1,0,0.2C225.8,114.2,225.6,114.8,225.3,115.4"/>
	<path class="st0" d="M117.8,117.5h-1.3c-0.5,0-0.9-0.3-1.1-0.8c-0.3-0.8-0.3-1.7-0.3-2.5v-29c-0.1-0.8,0-1.7,0.3-2.5
		c0.2-0.5,0.6-0.8,1.1-0.8h1.3c1,0,1.7-0.9,1.7-1.8c0-1.4-0.8-1.9-3-1.9h-11.7c-2.2,0-3,0.5-3,1.9c0,1,0.7,1.8,1.7,1.8c0,0,0,0,0,0
		h1.3c0.5,0,1,0.3,1.2,0.8c0.2,0.8,0.3,1.7,0.2,2.5v9.5h-14v-9.5c-0.1-0.8,0-1.7,0.2-2.5c0.2-0.5,0.7-0.8,1.3-0.8h1.3
		c0.9,0,1.7-0.8,1.6-1.8c0,0,0,0,0,0c0-1.4-0.7-1.9-2.8-1.9H72.3c-1.7,0-2.5,0.5-2.5,1.8c0,1,0.6,1.7,2.1,1.8
		c1.4,0.1,2.3,0.7,2.3,1.7c0,0.5-0.1,1-0.3,1.5l-7.6,24.7l-7.7-23.5c-0.4-0.9-0.6-1.8-0.6-2.7c0-1.2,0.4-1.5,2.2-1.7
		c1.4-0.2,2.1-0.7,2.1-1.7s-0.7-1.7-2.2-1.7H47.4c-1.5,0-2.3,0.7-2.3,1.9c0,1,0.5,1.4,1.9,1.8s2,0.7,2.4,1.7
		c0.1,0.3,0.3,0.8,0.5,1.5l3,8.6l-6,16.7l-8.7-24.2l-0.5-1.5c-0.2-0.5-0.3-0.9-0.3-1.4c0-1,0.6-1.5,2-1.6c1.7-0.1,2.3-0.6,2.3-1.7
		s-0.6-1.7-2.1-1.7H26.4c-1.5,0-2.2,0.6-2.2,1.7s0.4,1.5,1.8,1.7c2.1,0.5,2.4,0.8,3.4,3.4l12.6,33.9c0.9,2.4,1.8,3.2,3.7,3.2
		c0.8,0,1.6-0.3,2.2-0.7c0.6-0.7,1-1.6,1.3-2.5l6.3-17.7l5.9,17.7c0.8,2.4,1.8,3.2,3.7,3.2c1.9,0,2.8-0.9,3.8-4.1L79,85
		c0.7-2.3,1.2-2.9,2.5-3.2h0.4c0.5,0,0.9,0.4,1.1,0.8c0.2,0.8,0.3,1.7,0.2,2.5v28.9c0.1,0.8,0,1.7-0.2,2.5c-0.2,0.4-0.6,0.7-1.1,0.8
		h-1.3c-0.9,0.1-1.7,0.8-1.7,1.8c0,1.4,0.8,1.9,3,1.9h11.7c2.1,0,2.8-0.5,2.8-1.8c0.1-0.9-0.6-1.8-1.5-1.9c0,0,0,0,0,0h-1.3
		c-0.5,0-1-0.3-1.3-0.8c-0.2-0.8-0.2-1.7-0.2-2.5v-11.8c0-3,0.3-3.2,2.6-3.2h8.8c1.3,0,1.9,0.2,2.3,0.6c0.3,0.4,0.3,0.7,0.3,3v11.4
		c0.1,0.8,0,1.7-0.2,2.5c-0.2,0.5-0.7,0.7-1.2,0.8h-1.3c-0.9,0.1-1.7,0.8-1.7,1.8c0,1.4,0.7,1.9,2.9,1.9h11.7c2.3,0,3-0.5,3-1.9
		c0-1-0.7-1.8-1.7-1.8c0,0,0,0,0,0"/>
	<path class="st0" d="M213.1,175.1c5.5,0,9.9,4.4,9.9,9.9s-4.4,9.9-9.9,9.9H38.3c-5.5,0-9.9-4.4-9.9-9.9s4.4-9.9,9.9-9.9H213.1
		 M207.4,181.5c0-0.1,0-0.2,0-0.3l-0.5-1.4c0-0.1-0.1-0.3-0.2-0.4c-0.1-0.1-0.2-0.1-0.4-0.1h-7.1c-0.4,0-0.5,0-0.6,0.4l-0.5,1.3
		c-0.1,0.1-0.1,0.2-0.1,0.4c0,0.2,0.2,0.4,0.5,0.4c0.2,0,0.3-0.1,0.5-0.4l0.1-0.2c0.3-0.6,0.9-0.9,1.5-0.8c1,0,1,0,1,0.8v0.4v6.9
		c0,0.2,0,0.4-0.1,0.7c0,0.1-0.2,0.2-0.3,0.2h-0.5c-0.2,0-0.4,0.2-0.4,0.4c0,0,0,0,0,0c0,0.4,0.2,0.5,0.8,0.5h3.3
		c0.6,0,0.8-0.1,0.8-0.5c0-0.2-0.2-0.5-0.5-0.5l0,0h-0.4c-0.1,0-0.3-0.1-0.3-0.2c0-0.1,0-0.2,0-0.7v-7.3c0-0.7,0.1-0.8,0.9-0.8
		c0.4,0,0.7,0,1.1,0.1c0.2,0.2,0.4,0.4,0.6,0.6c0.1,0.1,0.1,0.1,0.2,0.2c0.2,0.3,0.3,0.4,0.5,0.4
		C207.3,181.9,207.5,181.7,207.4,181.5 M177.5,188.5c0-0.2-0.2-0.4-0.4-0.4c0,0,0,0,0,0c-0.2,0-0.3,0.1-0.5,0.4
		c-0.2,0.4-0.6,0.7-1,0.8c-0.5,0-1,0-1.5,0c-0.5,0-1,0-1.4-0.1c-0.3-0.1-0.3-0.3-0.3-1.2v-2.6c0-0.4,0-0.5,0.1-0.6
		c0.2-0.1,0.5-0.1,0.7-0.1h1.3c0.4,0,0.6-0.2,0.6-0.6c0-0.4-0.2-0.5-0.6-0.5h-2.1v-2.1c0-0.9,0.1-1,1-1h1.1c1,0,1.4,0.1,1.7,0.6
		c0.1,0.2,0.2,0.3,0.2,0.3c0.1,0.1,0.1,0.1,0.2,0.2c0.1,0,0.1,0,0.2,0c0.2,0,0.4-0.1,0.5-0.4c0-0.1,0-0.2-0.1-0.3l-0.5-1.3
		c-0.1-0.3-0.2-0.3-0.6-0.3h-6.4c-0.6,0-0.8,0.1-0.8,0.5c0,0.2,0.2,0.5,0.4,0.5c0,0,0,0,0,0h0.3c0.1,0,0.2,0.1,0.3,0.3
		c0.1,0.2,0.1,0.4,0.1,0.7v7.4c0,0.2,0,0.4-0.1,0.7c0,0.1-0.1,0.2-0.3,0.2h-0.3c-0.2,0-0.4,0.2-0.4,0.4c0,0,0,0,0,0
		c0,0.4,0.2,0.5,0.8,0.5h6.7c0.3,0,0.3-0.1,0.5-0.4l0.5-1.1c0.1-0.2,0.1-0.3,0.1-0.5 M148.1,190.1c0-0.3-0.2-0.4-0.5-0.5
		c-0.4,0-0.3,0-0.4-0.2c-0.2-0.2-0.4-0.5-0.6-0.7l-3.2-4.8l2-2.6c0.2-0.3,0.5-0.6,0.8-0.8c0.2-0.1,0.4-0.2,0.6-0.2
		c0.4-0.1,0.5-0.2,0.5-0.5c0-0.3-0.2-0.5-0.5-0.5H144c-0.4,0-0.6,0.2-0.6,0.5s0.2,0.5,0.7,0.5c0.3,0,0.4,0.1,0.4,0.3
		c0,0.1,0,0.1-0.1,0.2l-0.3,0.4l-2.4,3.1c-0.1,0.1-0.2,0.3-0.2,0.4c0,0.2,0.1,0.3,0.2,0.4l3.2,4.8c0.2,0.3,0.5,0.5,0.9,0.5h1.8
		C147.9,190.5,148.1,190.4,148.1,190.1 M142.2,190c0-0.2-0.2-0.4-0.4-0.5h-0.3c-0.1,0-0.2-0.1-0.3-0.2c-0.1-0.1-0.1-0.2-0.1-0.7
		v-7.4c0-0.2,0-0.5,0.1-0.7c0-0.1,0.1-0.2,0.3-0.2h0.3c0.2,0,0.4-0.2,0.4-0.4c0,0,0,0,0,0c0-0.4-0.2-0.5-0.8-0.5h-3
		c-0.6,0-0.8,0.1-0.8,0.5c0,0.2,0.2,0.5,0.4,0.5c0,0,0,0,0,0h0.3c0.1,0,0.2,0.1,0.3,0.2c0,0.2,0,0.4,0,0.7v7.4c0,0.2,0,0.4,0,0.7
		c0,0.1-0.2,0.2-0.3,0.2h-0.3c-0.2,0-0.4,0.2-0.4,0.5c0,0.4,0.2,0.5,0.8,0.5h3C142,190.5,142.2,190.4,142.2,190 M117.2,190.1
		c0-0.2-0.1-0.3-0.2-0.4c-0.1-0.1-0.3-0.1-0.5-0.2c-0.4-0.1-0.6-0.2-1-0.9l-2.2-3.6c1.3-0.2,2.3-1.4,2.3-2.8c0-2.1-1.5-3.1-4.3-3.1
		c-1.4-0.1-2.9,0.2-4.2,0.8c-0.1,0.1-0.2,0.2-0.2,0.4c0,0.3,0.2,0.4,0.5,0.4c0.3,0,0.5,0.1,0.5,0.6v7.3c0,0.4,0,0.5,0,0.7
		c0,0.1-0.2,0.2-0.3,0.2h-0.3c-0.2,0-0.4,0.2-0.4,0.5c0,0.4,0.2,0.5,0.7,0.5h3c0.6,0,0.7-0.1,0.7-0.5c0-0.2-0.2-0.4-0.4-0.5
		c0,0,0,0,0,0h-0.3c-0.1,0-0.3-0.1-0.3-0.2c0-0.2,0-0.4,0-0.7v-6.8c0-0.7,0.1-1,0.3-1.3c0.2-0.2,0.6-0.3,0.9-0.3
		c1,0,1.6,0.8,1.6,2.1c0,1.3-0.5,1.9-1.6,2.1c-0.4,0-0.6,0.2-0.6,0.5c0,0.3,0.1,0.5,0.3,0.8l2.5,4.2c0.2,0.3,0.5,0.5,0.9,0.5h1.9
		c0.4,0,0.7-0.2,0.7-0.5 M55.8,190.1c0-0.3-0.2-0.5-0.4-0.5h-0.3c-0.1,0-0.3-0.1-0.3-0.2c-0.1-0.2-0.1-0.4-0.1-0.7v-7.5
		c0-0.2,0-0.5,0.1-0.7c0.1-0.1,0.2-0.2,0.3-0.2h0.3c0.2,0,0.4-0.2,0.4-0.5c0,0,0,0,0,0c0-0.3-0.2-0.5-0.7-0.5h-1.9
		c-0.2,0-0.4,0.1-0.5,0.3l-0.1,0.2l-2.8,4.5l-3-4.5c-0.2-0.3-0.3-0.4-0.4-0.4s-0.2,0-0.3,0h-1.7c-0.6,0-0.7,0.1-0.7,0.5
		c0,0.2,0.2,0.5,0.4,0.5c0,0,0,0,0,0h0.3c0.1,0,0.2,0.1,0.3,0.2c0,0.2,0,0.5,0,0.7v7.5c0,0.2,0,0.4,0,0.7c0,0.1-0.2,0.2-0.3,0.2H44
		c-0.2,0-0.4,0.2-0.4,0.5c0,0.3,0.2,0.4,0.7,0.4h2.1c0.6,0,0.8-0.1,0.8-0.4c0-0.3-0.2-0.5-0.5-0.5h-0.3c-0.1,0-0.3-0.1-0.3-0.2
		c0-0.2,0-0.4,0-0.7v-6.1l2.8,4.1c0.2,0.3,0.3,0.4,0.5,0.4c0.2,0,0.4-0.2,0.5-0.4l2.5-4v6c0,0.4,0,0.5-0.1,0.7
		c0,0.1-0.1,0.2-0.3,0.2h-0.3c-0.2,0-0.4,0.2-0.4,0.5c0,0.3,0.2,0.4,0.7,0.4h3C55.6,190.5,55.8,190.4,55.8,190.1"/>
	<g>
		<path class="st1" d="M85.8,190.7h-3.6c-0.3,0-0.5-0.2-0.5-0.4s0.2-0.5,0.6-0.5s0.5-0.2,0.5-0.4c0-0.1,0-0.3-0.1-0.4l-0.3-1
			l-0.1-0.2c-0.1-0.3-0.2-0.3-0.6-0.3h-2.1c-0.2,0-0.3,0-0.5,0.1c-0.1,0-0.1,0.1-0.2,0.2c0,0.1-0.1,0.2-0.1,0.3l-0.3,1
			c-0.1,0.1-0.1,0.3-0.1,0.4c0,0.2,0.1,0.4,0.5,0.4s0.6,0.2,0.6,0.5s-0.2,0.5-0.6,0.5h-2.3c-0.4,0-0.6-0.1-0.6-0.4s0.2-0.4,0.5-0.5
			c0.2,0,0.4-0.1,0.5-0.2c0.1-0.2,0.2-0.4,0.3-0.7l2.8-8.4c0.3-0.9,0.5-1.1,1-1.1s0.8,0.3,1,1.1l2.8,8.2c0.3,0.8,0.4,0.9,0.7,1
			l0.2,0.1c0.2,0.1,0.3,0.2,0.3,0.4c0,0.3-0.2,0.5-0.6,0.5"/>
		<polyline class="st0" points="79.5,186 82,186 80.8,182.2 79.5,186 		"/>
	</g>
</g>
</svg>
