<?xml version="1.0" encoding="utf-8"?>
<!-- Generator: Adobe Illustrator 21.1.0, SVG Export Plug-In . SVG Version: 6.00 Build 0)  -->
<svg version="1.1" id="Layer_1" xmlns="http://www.w3.org/2000/svg" xmlns:xlink="http://www.w3.org/1999/xlink" x="0px" y="0px"
	 viewBox="0 0 250 250" style="enable-background:new 0 0 250 250;" xml:space="preserve">
<style type="text/css">
	.st0{fill:#E51636;}
	.st1{fill:#020000;}
</style>
<title>Grocery</title>
<path d="M95.2,127.1c0.6-0.5,1.1-0.9,1.6-1.3c1.8-1.5,4.1-2.2,6.4-1.7c3.1,0.5,5.3,3.2,5.1,6.3c0.1,3.1,0,6.3,0,9.4
	c0,0.6,0.1,1.3,0.1,1.9c0,0.9,0.7,1.7,1.6,1.8c0.4,0.1,0.8,0.2,1.2,0.3c0.6,0.1,0.6,0.4,0.6,0.9c0,0.5-0.4,0.5-0.7,0.4
	c-1.3-0.1-2.5-0.3-3.8-0.2c-1.8,0-3.6,0.2-5.4,0.2c-0.4,0-0.8,0.2-0.9-0.5c-0.1-0.6,0.2-0.8,0.7-0.9c1.6-0.2,2.1-0.8,2.2-2.4
	c0.1-3,0.1-5.9,0.1-8.9c0-0.6,0-1.3-0.1-1.9c-0.3-3.1-2.3-4.2-5.2-3.8c-1.4,0.3-2.7,1-3.5,2.1c-0.1,0.2-0.2,0.4-0.2,0.6
	c0,3.7,0,7.4,0,11.1c0,0.3,0,0.6,0,0.9c0.2,1.5,0.7,2,2.2,2.3c0.3,0,0.6,0.1,0.7,0.5s-0.1,0.9-0.7,0.8c-1.5-0.1-2.9-0.2-4.4-0.3
	c-1.2,0-2.4,0.2-3.6,0.2c-1.8,0-3.6-0.1-5.4-0.1c-1.8,0-3.5,0-5.3,0.1c-0.5,0-1.1,0-1.6,0.1c-0.3,0-0.6-0.1-0.6-0.5
	c0-0.4,0-0.7,0.4-0.8l0.8-0.2c0.9-0.1,1.6-0.9,1.7-1.8c0.1-0.5,0.1-1,0.1-1.4c0-3,0-5.9,0-8.9c0-0.6-0.1-1.3-0.2-1.9
	c-0.3-1.6-1.6-2.8-3.2-2.9c-2-0.3-4.1,0.6-5.3,2.2c-0.1,0.2-0.2,0.4-0.1,0.5c0,3.8,0,7.5,0,11.3c0,0.3,0,0.5,0.1,0.8
	c0.2,1.6,0.6,2,2.2,2.3c0.4,0,0.7,0.1,0.7,0.6c0,0.5-0.1,0.8-0.7,0.7c-1.5-0.1-2.9-0.2-4.4-0.3c-1.2,0-2.4,0.2-3.6,0.2
	c-1.8,0-3.6-0.1-5.4-0.1s-3.6,0-5.4,0.1c-0.6,0-1.2,0-1.7,0.1c-0.3,0-0.5-0.1-0.6-0.5s0-0.7,0.4-0.8c0.4-0.1,1-0.2,1.5-0.3
	c0.8-0.2,1.3-0.8,1.4-1.6c0.1-0.5,0.2-1.1,0.2-1.6c0-3.3,0-6.7,0-9.9c0-0.3,0-0.5,0-0.8c0-0.8-0.7-1.5-1.5-1.7
	c-0.3,0-0.5-0.1-0.8-0.2c-0.3,0-0.5-0.2-0.6-0.6c-0.1-0.3,0.2-0.6,0.5-0.7c0,0,0,0,0,0c1.3-0.4,2.5-0.7,3.7-1.2
	c0.8-0.3,1.5-0.9,2.2-1.3c0.3-0.2,0.6-0.2,0.9-0.2c0.1,0,0.2,0.5,0.2,0.7c-0.4,5.5-0.5,11-0.3,16.5c0,0.2,0,0.4,0,0.7
	c0.1,1.1,0.9,2,2,2.1c1,0.2,2,0.2,2.9-0.1c1-0.2,1.7-1.1,1.7-2.1c0-0.6,0.1-1.2,0.1-1.7c0-2.9,0-5.7,0-8.6c0-0.5,0-1-0.1-1.6
	c0-0.9-0.6-1.6-1.5-1.7c-0.3,0-0.5-0.1-0.8-0.2s-0.6-0.2-0.6-0.6c0-0.4,0.2-0.6,0.6-0.7c1.3-0.5,2.8-0.9,4.1-1.5
	c0.6-0.3,1.1-0.6,1.6-1c0.3-0.1,0.6-0.2,0.9-0.1c0.1,0,0.2,0.4,0.2,0.7c0,0.8-0.1,1.6-0.1,2.6c0.6-0.5,1-0.9,1.5-1.3
	c1.8-1.6,4.2-2.2,6.5-1.8c3.1,0.5,5.3,3.2,5.1,6.3c0,3.3,0,6.5,0,9.8c0,0.7,0.1,1.4,0.3,2.1c0.2,0.5,0.5,0.9,0.9,1.2
	c1.5,0.8,3.2,0.8,4.7,0c0.7-0.4,1.1-1.2,1.1-2c0.1-0.6,0.1-1.2,0.1-1.8c0-2.7,0-5.4,0-8.1c0-0.6,0-1.2-0.1-1.7
	c0-0.9-0.6-1.7-1.5-1.8c-0.3-0.1-0.6-0.2-0.9-0.2c-0.4,0-0.5-0.3-0.5-0.6c0-0.3,0.1-0.6,0.5-0.7c1.4-0.5,2.9-1,4.3-1.5
	c0.6-0.3,1.1-0.7,1.6-1c0.3-0.1,0.6-0.2,0.9-0.1c0.1,0,0.2,0.4,0.2,0.7C95.3,125.3,95.2,126.1,95.2,127.1z"/>
<path d="M25.6,139.7c0.1-0.2,0.2-0.4,0.3-0.5c1.7-3.2,3.4-6.4,5.1-9.7c0.1-0.3,0.1-0.6,0-0.8c-1.8-3.9-3.7-7.8-5.6-11.7
	c-0.3-0.6-0.7-1.2-1-1.7c-0.7-1.1-1.8-1.8-3.1-1.9c-0.2,0-0.5,0-0.6-0.2c-0.2-0.3-0.2-0.6-0.2-0.9c0-0.1,0.4-0.3,0.5-0.3
	c1.9,0.1,3.8,0.2,5.7,0.2s3.7-0.2,5.5-0.3c0.4,0,0.7,0,0.8,0.6c0,0.6-0.2,0.7-0.7,0.8c-0.6,0.1-1.1,0.2-1.6,0.4
	c-0.8,0.2-1.3,1-1.1,1.8c0,0.1,0.1,0.2,0.1,0.3c0.2,0.5,0.3,1,0.6,1.5c1.1,2.2,2.2,4.4,3.3,6.7c0,0.1,0.1,0.2,0.2,0.4
	c0.1-0.1,0.1-0.1,0.2-0.2c1.1-2.1,2.2-4.1,3.3-6.2c0.3-0.6,0.5-1.3,0.6-2c0.2-1-0.4-2-1.4-2.2c-0.5-0.1-0.9-0.2-1.4-0.3
	c-0.4,0-0.6-0.2-0.6-0.7c0-0.4,0.2-0.7,0.7-0.7c1.4,0.1,2.9,0.3,4.3,0.2c1.9,0,3.7-0.2,5.6-0.2c0.3,0,0.7-0.2,0.8,0.4
	s-0.1,0.9-0.7,0.9c-1.8,0.1-3.4,1.1-4.3,2.7c-1.3,2.2-2.5,4.4-3.8,6.7c-0.7,1.2-1.3,2.4-1.9,3.6c-0.1,0.2-0.1,0.5,0,0.7
	c1.9,4,3.9,8,5.9,12c0.1,0.1,0.1,0.2,0.2,0.3l1.8-4.2c2.4-5.5,4.8-11.1,7.1-16.6c0.2-0.6,0.4-1.2,0.5-1.8c0.4-1.3-0.3-2.6-1.5-3.1
	c-0.2-0.1-0.5-0.1-0.7-0.1c-0.2,0-0.4,0-0.5,0c-0.5,0-0.6-0.3-0.6-0.7s0.2-0.6,0.7-0.6c1.9,0.1,3.7,0.2,5.6,0.3c1.3,0,2.7-0.2,4-0.2
	c0.3,0,0.6-0.1,0.7,0.4c0,0.5-0.1,0.8-0.6,0.9c-0.2,0-0.5,0.1-0.7,0.1c-1.3,0.2-2.5,1-3.2,2.1c-0.8,1.3-1.5,2.8-2.1,4.3
	c-3.7,8.4-7.4,16.7-11.1,25.1c-0.2,0.4-0.3,0.9-0.9,0.9c-0.6,0-0.7-0.5-0.9-0.9l-6.2-13c-0.1-0.2-0.2-0.4-0.3-0.7
	c-0.1,0.2-0.3,0.4-0.4,0.6L24.9,145c0,0.1-0.1,0.2-0.2,0.3c-0.3,0.2-0.5,0.6-0.9,0.6c-0.3,0.1-0.6-0.3-0.8-0.7
	c-1.4-3.3-2.9-6.6-4.3-10c-2.4-5.6-4.9-11.1-7.3-16.7c-0.4-0.8-0.8-1.6-1.2-2.4c-0.9-1.5-2.5-2.5-4.2-2.7c-0.2,0-0.4-0.1-0.5-0.1
	c-0.4-0.1-0.5-0.4-0.5-0.8c0-0.4,0.3-0.5,0.6-0.5c1.2,0,2.4,0.2,3.6,0.2c2.2,0,4.5,0,6.7,0c0.9,0,1.8,0,2.7-0.1
	c0.4,0,0.6,0.2,0.6,0.5c0,0.4,0,0.7-0.5,0.8c-0.5,0-0.9,0.2-1.3,0.3c-1.3,0.3-2,1.6-1.7,2.9c0,0.2,0.1,0.4,0.2,0.5
	c0.7,1.6,1.3,3.2,2.1,4.8l7.5,17.2C25.4,139.3,25.5,139.5,25.6,139.7z"/>
<path d="M205.4,134.1c1.9,2.6,3.8,5.1,5.8,7.7c0.9,1.3,2.3,2,3.9,2.1c1.1,0.1,2.1-0.2,3-0.8c0.4-0.4,0.6-0.8,0.7-1.3
	c0.1-0.5,0.2-1,0.2-1.4c0-3.3,0-6.6,0-9.9c0-0.2,0-0.4,0-0.6c-0.2-1.4-0.6-1.9-2-2.1c-0.4,0-0.9,0-0.9-0.6c-0.1-0.3,0.2-0.7,0.5-0.7
	c0,0,0,0,0,0c1.5-0.5,2.9-1,4.3-1.5c0.6-0.3,1.1-0.6,1.6-1c0.3-0.1,0.5-0.2,0.8-0.1c0.1,0,0.3,0.4,0.2,0.6
	c-0.4,5.1-0.4,10.1-0.3,15.2c0,0.8,0.1,1.5,0.2,2.3c0.1,0.8,0.6,1.4,1.4,1.6c0.5,0.1,0.9,0.2,1.4,0.3c0.5,0.1,0.6,0.4,0.6,0.8
	c0,0.4-0.3,0.5-0.7,0.5c-2-0.1-4-0.2-6.1-0.2c-1.7,0-3.3,0.1-5,0.2c-0.7,0-1.3-0.1-2.1-0.1l-7.8,0.1c-0.4,0-0.8,0.1-0.8-0.5
	c-0.1-0.6,0.2-0.8,0.7-0.8h0.3c1.2-0.3,1.6-0.9,0.9-2c-1-1.7-2.2-3.3-3.3-5.1l-0.5,0.6l-2.7,3.9l-0.3,0.4c-0.8,1.3-0.6,1.9,1,2.2
	c0.5,0.1,0.8,0.3,0.7,0.8c0,0.5-0.2,0.6-0.6,0.6c-0.7,0-1.3-0.1-2-0.1c-1.7-0.1-3.5-0.1-5.2,0.1c-1.6,0.1-3.1-0.1-4.7-0.1
	c-1.8,0-3.5,0-5.3,0.1c-0.6,0-1.2,0-1.7,0.1c-0.4,0-0.6-0.1-0.6-0.5c0-0.4,0-0.7,0.4-0.8l1.3-0.3c1-0.2,1.7-1,1.7-1.9
	c0.1-0.5,0.1-1.1,0.1-1.6c0-3,0-6,0-8.9c0-0.5,0-1-0.1-1.5c0-0.8-0.6-1.4-1.3-1.6c-0.3-0.1-0.6-0.2-0.9-0.2c-0.3,0-0.5-0.2-0.5-0.5
	c0,0,0-0.1,0-0.1c0-0.3,0.2-0.6,0.5-0.7c1.2-0.3,2.4-0.7,3.5-1.2c0.9-0.4,1.7-1,2.5-1.4c0.3-0.1,0.6-0.2,0.8-0.1
	c0.1,0,0.2,0.4,0.2,0.7c-0.5,5.1-0.4,10.1-0.3,15.2c0,0.8,0.1,1.6,0.2,2.3c0.1,0.7,0.6,1.3,1.3,1.5c2.1,0.8,4.5,0.3,6.1-1.3
	c1.9-2,3.7-4.2,5.5-6.3c0.1-0.2,0.1-0.4,0-0.5c-1.8-2.5-3.6-4.9-5.3-7.4c-0.9-1.2-2.2-2-3.7-2.1c-0.4,0-0.7-0.1-0.7-0.7
	c0-0.5,0.2-0.7,0.7-0.7c1.3,0.1,2.7,0.3,4,0.3c1.9,0,3.9-0.2,5.9-0.3c0.4,0,0.7,0,0.8,0.5c0.1,0.4-0.1,0.7-0.5,0.8c0,0-0.1,0-0.1,0
	c-1.8,0.3-2.1,0.9-1.1,2.5c1,1.6,1.9,2.8,3,4.3c0.5-0.7,1-1.3,1.4-1.9c0.7-1,1.4-2,2.1-3.1c0.6-1.1,0.3-1.4-0.7-1.7
	c-0.2-0.1-0.4-0.1-0.6-0.1c-0.5,0-0.6-0.4-0.6-0.9c0-0.5,0.4-0.5,0.7-0.5c1,0.1,1.9,0.2,2.9,0.2c1.6,0,3.2-0.1,4.8-0.2
	c0.7,0,0.9,0.2,0.7,0.8c-0.1,0.2-0.2,0.4-0.4,0.4c-0.2,0.1-0.4,0.1-0.7,0.1c-1.3,0.2-2.5,0.7-3.4,1.6c-1.6,1.6-3.1,3.4-4.4,5.3
	L205.4,134.1z"/>
<path d="M154,145l-9.3,0.2c-0.4,0-0.7,0.1-0.8-0.5s0.1-0.8,0.7-0.8c0.8-0.1,1.7-0.3,2.5-0.5c1.3-0.2,2.2-1.4,2.1-2.7
	c0-1.1,0-2.3,0-3.4c0-6.4,0-12.8,0-19.2c0-0.4,0-0.9,0-1.3c0.1-1.2-0.8-2.3-2-2.6c-0.9-0.2-1.8-0.4-2.7-0.5
	c-0.5-0.1-0.6-0.3-0.6-0.8s0.2-0.5,0.6-0.5c5.6,0,11.1,0,16.7,0c3.5-0.1,7,0.6,10.1,2.3c5.4,2.8,8.6,8.4,8.4,14.5
	c0.1,4.3-1.6,8.5-4.7,11.5c-2.6,2.4-5.9,3.9-9.5,4.4c-2.7,0.3-5.3,0.4-8,0.2C156.4,145.1,155.2,145.1,154,145L154,145z M154,128.7
	c0,4,0,8,0,12.1c-0.2,1.3,0.8,2.5,2.1,2.7c0.2,0,0.4,0,0.6,0c1.4,0,2.8,0.1,4.2,0.1c3.3,0.2,6.6-1,9-3.3c2.6-2.4,4.2-5.8,4.5-9.3
	c0.5-3.6-0.2-7.2-1.9-10.4c-1.9-3.4-4.7-6-8.7-6.5c-2.3-0.2-4.6-0.3-6.9-0.1c-2.1,0-2.9,0.9-2.9,3.1C154,120.9,154,124.8,154,128.7
	L154,128.7z"/>
<path class="st0" d="M112.5,136.1l5.7-7.3l4.5,4.6c0.1-0.1,0.2-0.2,0.2-0.4c2.7-6.7,6.7-12.9,11.6-18.2c4.1-4.6,8.7-8.8,13.6-12.5
	l-0.4,0.4c-1.7,1.7-3.6,3.3-5.2,5.1c-5.3,5.8-9.5,12.5-12.6,19.7c-2.7,6.3-4.9,12.7-6.8,19.2c-0.1,0.3-0.2,0.5-0.4,0.8
	c-0.2-0.2-0.4-0.4-0.6-0.6c-2.6-3.6-5.5-7-8.8-10.1C113.1,136.6,112.9,136.4,112.5,136.1z"/>
<path d="M231.1,132.3c-0.2,2.7-0.4,5.3,1.1,7.7c1.3,2.1,3.7,3.3,6.1,2.9c2.2-0.1,4.2-1.2,5.6-2.8c0.2-0.2,0.4-0.3,0.6-0.4
	c0.1,0.3,0.2,0.6,0.3,0.9c0,0.1-0.1,0.3-0.2,0.4c-1.5,2.3-3.8,4-6.5,4.6c-4.1,0.9-8.4-1-10.4-4.7c-2.9-5-1.8-11.4,2.7-15.2
	c4.1-3.2,9.9-2.4,13.1,1.6c0,0.1,0.1,0.1,0.1,0.2c0.8,1.1,1.2,2.3,1.3,3.6c0.1,0.9-0.1,1.1-1,1.1L231.1,132.3L231.1,132.3z
	 M231.3,131l7.5-0.3c0.4,0,0.7-0.1,1.1-0.2c0.6-0.1,1-0.6,0.9-1.1c0,0,0,0,0,0c0-1.6-0.9-3-2.4-3.6c-1.5-0.8-3.4-0.6-4.6,0.6
	C232.3,127.6,231.5,129.2,231.3,131L231.3,131z"/>
<path d="M57.4,122c-1.4,0-2.5-1.1-2.5-2.4c0,0,0,0,0,0c0-1.3,1-2.4,2.4-2.5c0,0,0.1,0,0.1,0c1.4,0,2.5,1.1,2.5,2.4c0,0,0,0,0,0
	C59.8,120.9,58.7,122,57.4,122z"/>
<path d="M186.5,122c-1.4,0-2.5-1.1-2.5-2.4c0-1.3,1-2.5,2.4-2.5c0,0,0,0,0.1,0c1.4,0,2.5,1.1,2.5,2.5
	C188.9,120.9,187.8,122,186.5,122L186.5,122z"/>
<path d="M223.4,119.6c0.1,1.4-0.9,2.5-2.3,2.6s-2.5-0.9-2.6-2.3c0-0.1,0-0.2,0-0.4c-0.1-1.4,0.9-2.5,2.3-2.6
	c1.4-0.1,2.5,0.9,2.6,2.3C223.4,119.3,223.4,119.5,223.4,119.6z"/>
<path class="st1" d="M131.5,146.9c-1.4,0-2.5-1.1-2.5-2.5s1.1-2.5,2.5-2.5c1.4,0,2.5,1.1,2.5,2.5l0,0
	C134,145.8,132.9,146.9,131.5,146.9z M131.5,142.2c-1.2,0-2.2,1-2.2,2.2c0,1.2,1,2.2,2.2,2.2c1.2,0,2.2-1,2.2-2.2c0,0,0,0,0,0
	C133.7,143.2,132.7,142.2,131.5,142.2L131.5,142.2L131.5,142.2z"/>
<path d="M131.1,144.5v0.8c0,0.1,0,0.2,0,0.3c0,0,0.1,0.1,0.1,0.1c0.1,0,0.2,0,0.2,0v0.1h-1.3v-0.1c0.1,0,0.2,0,0.2,0
	c0,0,0.1-0.1,0.1-0.1c0-0.1,0-0.2,0-0.3v-1.8c0-0.1,0-0.2,0-0.3c0,0-0.1-0.1-0.1-0.1c-0.1,0-0.2,0-0.2,0V143h1.2
	c0.2,0,0.4,0,0.7,0.1c0.1,0,0.3,0.1,0.3,0.3c0.1,0.1,0.1,0.3,0.1,0.4c0,0.2-0.1,0.4-0.2,0.5c-0.1,0.1-0.2,0.2-0.4,0.2l0.6,0.9
	c0,0.1,0.1,0.2,0.2,0.2c0,0,0.1,0.1,0.2,0.1v0.1H132L131.1,144.5L131.1,144.5z M131.1,143.2v1.2h0.1c0.1,0,0.3,0,0.4,0
	c0.1,0,0.2-0.1,0.2-0.2c0.1-0.1,0.1-0.2,0.1-0.4c0-0.2,0-0.3-0.1-0.5c-0.1-0.1-0.3-0.2-0.4-0.1L131.1,143.2z"/>
</svg>
