<?xml version="1.0" encoding="utf-8"?>
<!-- Generator: Adobe Illustrator 21.1.0, SVG Export Plug-In . SVG Version: 6.00 Build 0)  -->
<svg version="1.1" id="Layer_1" xmlns="http://www.w3.org/2000/svg" xmlns:xlink="http://www.w3.org/1999/xlink" x="0px" y="0px"
	 viewBox="0 0 250 250" style="enable-background:new 0 0 250 250;" xml:space="preserve">
<style type="text/css">
	.st0{fill:#DD1F26;}
	.st1{fill:#292973;}
	.st2{fill:#0D6535;}
	.st3{fill:#302D12;}
	.st4{fill:#FFFFFF;}
</style>
<title>Grocery</title>
<path class="st0" d="M110.6,114.7c-0.1,2.7-0.6,5.3-1.7,7.8c-1,2.6-2.5,5.1-4.2,7.3c-1,1.4-2.2,2.5-3.7,3.4
	c-1.1,0.6-2.4,0.8-3.7,0.6c-0.8-0.2-1.5-0.5-2.2-0.7c-0.5-0.1-1-0.1-1.4,0.1c-2.1,1.2-4.7,1.1-6.7-0.4c-2.3-1.6-4.3-3.5-6-5.7
	c-1.8-2.2-3.2-4.8-4-7.6c-0.2-1-0.4-2-0.5-3.1c-0.2-1.9,0-3.9,0.5-5.8c0.5-1.8,1.4-3.4,2.6-4.8c0.8-0.9,1.7-1.6,2.7-2.2
	c1.2-0.7,2.6-1.1,4-1.3c2.3-0.3,4.6,0.1,6.7,0.9c0.4,0.1,0.7,0.1,1.1-0.1c1.4-0.8,3.1-1.1,4.7-1.1c2.3,0.2,4.5,0.9,6.4,2.2
	c2.7,1.8,4.6,4.5,5.2,7.7C110.5,112.9,110.6,113.8,110.6,114.7z M100.6,110c1.6,1.9,2.4,4.3,2.4,6.8c1.2-2.4,1.1-5.2-0.2-7.5
	c-0.1-0.1-0.3-0.2-0.5-0.1C101.8,109.4,101.2,109.6,100.6,110z"/>
<path class="st1" d="M73.2,144v14.1h-2.3v-18c0.7,0,1.5,0,2.2,0c0.1,0,0.3,0.2,0.4,0.4l4.7,7.2l4.5-7.2c0.1-0.3,0.5-0.5,0.9-0.5
	c0.6,0,1.2,0,1.8,0v18h-2.2v-14h-0.1l-4.8,7.4l-4.8-7.4L73.2,144z"/>
<path class="st1" d="M93.9,151.4c0,2.3,0.5,4.7,1.6,6.7l-1.9,1.3c-0.4-1-0.8-2-1.1-3c-0.6-1.6-0.8-3.3-0.8-5.1c0-2.9,0.9-5.7,2.7-8
	c1.3-1.7,3.3-2.8,5.5-3.1c1.2-0.2,2.3-0.2,3.5-0.3c0.4,0,0.6,0.1,0.6,0.5c0.1,0.4,0.2,0.9,0.3,1.4c-2.7-0.2-5.3,0-7.3,1.9
	c-1.5,1.5-2.4,3.4-2.7,5.4h7.5v-4.6h2.3v13.3h-2.3v-6.7L93.9,151.4z"/>
<path class="st1" d="M147.3,147.9h6.4l-0.6,1.9h-5.8v6.4h7.2c-0.2,0.6-0.3,1.1-0.5,1.6c-0.1,0.2-0.2,0.3-0.4,0.3H145v-18h1.7
	c2.1,0,4.2,0,6.3,0c0.4,0,0.6,0.1,0.6,0.5c0.1,0.4,0.2,0.9,0.3,1.4h-6.8V147.9z"/>
<path class="st1" d="M179.5,140.1l0.5,1.9h-4.1c-0.7-0.1-1.4,0.3-1.8,0.9c-0.3,0.6-0.2,1.4,0.3,1.9c1.8,2.5,3.7,5.1,5.5,7.6
	c0.8,1,1,2.3,0.7,3.5c-0.3,1.1-1.2,1.9-2.4,2.1c-1.7,0.1-3.5,0.1-5.3,0.1c-0.2,0-0.4-0.1-0.5-0.3c-0.2-0.5-0.2-1-0.4-1.6h4.2
	c0.2,0,0.4,0,0.6,0c0.8-0.1,1.5-0.8,1.4-1.7c0-0.3-0.2-0.7-0.4-0.9c-0.7-1.1-1.5-2.1-2.2-3.2c-1.2-1.7-2.4-3.4-3.6-5.1
	c-1.1-1.5-0.7-3.6,0.8-4.7c0.1-0.1,0.3-0.2,0.4-0.2c0.6-0.3,1.3-0.4,2-0.4C176.7,140,178.1,140.1,179.5,140.1z"/>
<path class="st1" d="M123.4,158.3l-1.9,1.3c-2.3-2.9-4.2-6.1-5.6-9.5c0-0.2,0-0.4,0.2-0.5c1-0.9,2-1.8,2.9-2.8
	c0.9-0.9,1.2-2.2,0.8-3.4c-0.2-0.6-0.7-1.1-1.3-1.3c-0.6-0.1-1.3-0.2-1.9-0.1c-2.1,0-4.3,0-6.4,0c0,0,0-0.1,0-0.1
	c0.2-0.6,0.2-1.3,0.6-1.7c0.4-0.3,1.2-0.1,1.8-0.1c1.8,0,3.7,0,5.5,0c0.8,0,1.6,0.1,2.3,0.3c1.1,0.5,1.9,1.5,2.1,2.7
	c0.3,1.5,0,3-0.9,4.2c-0.6,0.7-1.2,1.4-1.9,2c-0.3,0.3-0.6,0.4-0.8,0.7c-0.1,0.2-0.2,0.4-0.1,0.6c1.2,2,2.4,4,3.6,6
	C122.5,157.1,123,157.6,123.4,158.3z"/>
<path class="st1" d="M164.3,158.1H162V142h-4.7c0.2-0.7,0.3-1.2,0.5-1.8c0-0.1,0.3-0.2,0.4-0.2h10.2l0.5,1.9h-4.7L164.3,158.1z"/>
<path class="st1" d="M139.9,140.1l-2.9,3.9c-1,1.3-1.9,2.6-2.9,3.9c-0.2,0.2-0.2,0.6,0,0.9c2.2,3.1,4.3,6.2,6.4,9.3c0,0,0,0,0,0.1
	c-0.8,0-1.7,0-2.5,0c-0.1,0-0.3-0.2-0.4-0.3l-5.3-7.9l0,0c-0.4-0.5-1-1.1-1-1.7s0.7-1.1,1-1.6c1.5-2.1,3.1-4.2,4.6-6.2
	c0.1-0.1,0.3-0.3,0.4-0.3C138.1,140,139,140.1,139.9,140.1z"/>
<path class="st2" d="M107.1,90.7c-0.5,1.9-1.6,3.6-3,4.9c-1.5,1.3-3.3,2.2-5.3,2.4c-0.5,0.1-1.1,0.1-1.6,0.1c-0.5,0-0.7-0.2-0.7-0.8
	c0.2-1.2,0.7-2.4,1.5-3.3c1.4-1.7,3.4-2.9,5.6-3.4C104.8,90.3,106,90.4,107.1,90.7z"/>
<path class="st1" d="M128,140.1h2.2v18H128V140.1z"/>
<path class="st1" d="M110.3,144.8h2.3v13.3H112h-1.7V144.8z"/>
<path class="st1" d="M23,107.5L17.2,132h-4.3L5,101.3c1.3,0,2.5,0,3.7,0c0.2,0,0.4,0.2,0.5,0.4c0.7,3,1.3,6.1,2.1,9.1
	c0.6,2.5,1.1,4.9,1.7,7.3c0.6,2.4,1,4.5,1.5,6.8c0,0.2,0.1,0.3,0.2,0.5c0.6,0.2,0.7,0,0.8-0.6c0.4-2,0.9-4,1.3-6l2.7-11.6l1.3-5.8
	h4.7l1.6,6.9c0.4,1.6,0.7,3.1,1.1,4.7l2.5,11.1c0.1,0.3,0.2,0.7,0.3,1c0.1,0.3,0.3,0.6,0.8,0.5c0.3-1.3,0.6-2.5,0.9-3.8
	c0.4-1.7,0.8-3.5,1.2-5.2l2.6-11.2c0.3-1.1,0.5-2.3,0.8-3.4c0-0.3,0.1-0.5,0.5-0.5h3.7c-0.7,2.8-1.4,5.6-2.1,8.4
	c-1.3,5.2-2.6,10.3-4,15.5c-0.6,2.2-1.1,4.3-1.7,6.5c-0.1,0.2-0.3,0.4-0.5,0.4c-1.1,0-2.2,0-3.4,0c-0.2,0-0.5-0.2-0.6-0.4
	c-1-4.1-1.9-8.2-2.9-12.3c-0.6-2.6-1.2-5.2-1.9-7.8c-0.3-1.2-0.6-2.3-0.8-3.5C23.7,107.5,23.5,107.4,23,107.5z"/>
<path class="st1" d="M154.8,120.4l-8.5-13V132h-4v-30.7c1.3,0,2.7,0,4,0c0.1,0,0.3,0.2,0.4,0.4l4.2,6.6c1.3,2,2.5,3.9,3.8,6
	c0.4-0.6,0.8-1.2,1.2-1.8l5-8l1.8-2.8c0.1-0.3,0.5-0.5,0.8-0.5c1.1,0,2.3,0,3.5,0v30.7h-3.8v-24.3h-0.2L154.8,120.4z"/>
<path class="st1" d="M58.2,100.7c8.8,0,15.9,7.1,15.9,15.9s-7.1,15.9-15.9,15.9c-8.4,0-15.3-6.4-15.9-14.8
	c-0.7-8.7,5.7-16.3,14.4-17C57.3,100.7,57.7,100.7,58.2,100.7z M70.6,116.6c0-6.9-5.6-12.4-12.4-12.4c-6.9,0-12.4,5.6-12.4,12.4
	c0,6.7,5.4,12.2,12.1,12.4c6.8,0.2,12.5-5.2,12.7-12C70.6,116.8,70.6,116.7,70.6,116.6L70.6,116.6z"/>
<path class="st1" d="M197,101.3c1.3,0,2.5,0,3.7,0c0.3,0,0.5,0.2,0.7,0.4c1.6,1.9,3.1,3.8,4.7,5.7c1.6,2,3.2,4,4.9,6
	c0.8,1,1.7,2.1,2.7,3.2v-15.2h3.8V132h-3.8v-0.7c0-2.7,0-5.5,0-8.2c0-0.7-0.2-1.3-0.6-1.8c-1.9-2.2-3.7-4.5-5.6-6.8
	c-2.2-2.7-4.4-5.3-6.7-8.2V132H197V101.3z"/>
<path class="st1" d="M188.1,120.4h-13.2c0,0.8,0,1.7,0,2.5c0.1,1.2,0.2,2.3,0.5,3.5c0.5,1.8,1.1,3.5,1.8,5.2
	c0.2,0.5,0.2,0.7-0.3,1.1c-0.9,0.5-1.7,1.1-2.7,1.7c-0.2-0.3-0.3-0.7-0.5-1.1c-0.8-2.3-1.6-4.6-2.3-6.9c-0.3-1.1-0.4-2.2-0.5-3.4
	c-0.1-0.8-0.1-1.6-0.1-2.4c0-3.8,1-7.6,2.8-11c1.9-3.6,5.2-6.2,9.1-7.5c1.7-0.6,3.5-0.8,5.3-0.7c1,0,2.1,0,3.1,0
	c0.3,0,0.5,0.1,0.6,0.4c0.2,0.9,0.4,1.7,0.7,2.7h-2.9c-1.7-0.1-3.5,0.2-5.2,0.7c-1.3,0.4-2.6,1.1-3.7,2c-2.6,2.2-4.5,5.3-5.1,8.7
	c-0.1,0.5-0.3,0.9-0.4,1.4h13v-8.1h3.8V132h-3.8L188.1,120.4z"/>
<path class="st1" d="M116,104.4l0.8-3.1h9.3c2.5-0.1,5,0.5,7.2,1.7c1.6,0.9,2.9,2.4,3.7,4.1c0.9,2.1,1.3,4.3,1.3,6.5
	c0.2,3.4-0.6,6.7-2.3,9.7c-1.9,3.5-5,6.2-8.8,7.6c-2.1,0.8-4.4,1.2-6.7,1.2h-4v-22.9h3.8v19.8c1.1-0.1,2.2-0.1,3.3-0.3
	c2.8-0.6,5.4-2.1,7.2-4.4c2-2.3,3.3-5.1,3.7-8.1c0.3-2,0.2-4.1-0.4-6.1c-0.7-2.6-2.8-4.7-5.5-5.3c-1.1-0.3-2.3-0.4-3.4-0.4
	c-2.9,0-5.8,0-8.7,0L116,104.4z"/>
<path class="st1" d="M243.6,104.4c-2.4,0-4.7,0-7,0c-0.5,0-1,0.1-1.5,0.3c-1.5,0.6-2.2,2.2-1.7,3.7c0.1,0.3,0.3,0.7,0.6,0.9
	c2.1,2.8,4.1,5.6,6.1,8.4c1.2,1.6,2.4,3.3,3.5,4.9c1.3,1.8,1.7,4.1,0.8,6.2c-0.6,1.7-2.2,2.9-4.1,3.1c-3,0.2-6.1,0.1-9.1,0.2
	c-0.1,0-0.3-0.1-0.4-0.2c-0.3-1-0.5-1.9-0.7-3h0.8c2.2,0,4.5,0,6.7,0c1.1,0.1,2.1-0.4,2.7-1.3c0.5-0.7,0.6-1.7,0.1-2.4
	c-0.8-1.4-1.8-2.8-2.7-4.2c-1.9-2.7-3.8-5.3-5.7-7.9c-0.9-1.2-1.7-2.4-2.4-3.7c-1.1-2.3-0.6-4.9,1.2-6.7c1-0.8,2.2-1.3,3.5-1.3
	c2.7,0,5.2,0,7.8,0c0.4,0,0.7,0.1,0.8,0.5C243.1,102.7,243.3,103.5,243.6,104.4z"/>
<path class="st1" d="M222.9,101.3h3.1l-0.7,9.3h-2.4V101.3z"/>
<path class="st3" d="M92.3,100.1c-1.4,0.1-1.4,0.1-1.9-1.3c-0.5-1.4-1.5-2.5-2.7-3.4c-0.1-0.1-0.2-0.1-0.4-0.1
	c-0.5-0.1-0.8-0.6-0.7-1.1c0-0.1,0-0.1,0.1-0.2c0.2-0.4,0.7-0.6,1.1-0.4c0.1,0,0.1,0.1,0.1,0.1c2.2,1.2,3.7,3.2,4.3,5.6
	C92.2,99.5,92.3,99.8,92.3,100.1z"/>
<path class="st2" d="M195.1,152.2c-1,0-1.8-0.8-1.9-1.7c0,0,0-0.1,0-0.1c0.1-1,0.8-1.7,1.8-1.8c1.2,0.1,1.9,0.7,1.9,1.8
	c0,0.9-0.7,1.7-1.6,1.8C195.2,152.2,195.2,152.2,195.1,152.2z"/>
<path class="st2" d="M57.3,150.4c0,1-0.8,1.8-1.8,1.8c-1,0-1.8-0.8-1.8-1.8c0-1,0.8-1.8,1.8-1.8c0,0,0,0,0,0
	c0.9-0.1,1.7,0.6,1.8,1.5C57.3,150.2,57.3,150.3,57.3,150.4z"/>
<path class="st4" d="M100.6,110c0.7-0.3,1.2-0.6,1.7-0.8c0.2,0,0.4,0,0.5,0.1c1.3,2.3,1.3,5.1,0.2,7.5
	C103,114.3,102.1,111.9,100.6,110z"/>
</svg>
