<?xml version="1.0" encoding="utf-8"?>
<!-- Generator: Adobe Illustrator 21.1.0, SVG Export Plug-In . SVG Version: 6.00 Build 0)  -->
<svg version="1.1" id="Layer_1" xmlns="http://www.w3.org/2000/svg" xmlns:xlink="http://www.w3.org/1999/xlink" x="0px" y="0px"
	 viewBox="0 0 250 250" style="enable-background:new 0 0 250 250;" xml:space="preserve">
<style type="text/css">
	.st0{fill:#E31B23;}
	.st1{fill:#FFFFFF;}
</style>
<title>Mass</title>
<path class="st0" d="M245,146.2V81.5c0-3.3-2.6-5.9-5.9-5.9H10.9c-3.2,0-5.9,2.6-5.9,5.8c0,0,0,0.1,0,0.1v64.7H245z"/>
<path d="M5,168.5c0,3.3,2.6,5.9,5.9,5.9h228.2c3.3,0,5.9-2.6,5.9-5.9v-22.3H5V168.5L5,168.5z"/>
<polygon class="st0" points="183.3,108.5 179.1,111.2 182.9,113.3 185.7,109.9 "/>
<path class="st1" d="M34.7,151.1c1.9,0,2.8,0.8,2.8,2.3c-0.1,0-0.2,0.1-0.2,0.4l-0.1,0.1h-0.3v-0.7c-0.5-0.6-1.3-1-2-0.9
	c-1.9,0-3.7,0.7-5.2,1.9v0.1l0.3,0.6c-0.1,0.7-0.3,1.5-0.7,2.1l0.1,0.1v0.1l-0.1,0.3H29V157h-0.1l-0.2,1.1h0.2v-0.2h0.1l0.3,0.2
	l4.1-0.7l0.3,0.1c0-0.2,0.6-0.3,1.7-0.3l0.7,0.1l0.2-0.2h2l0.1,0.1l0.1-0.1h0.8l0.2,0.2l0.1-0.1H40l0.2,0.2c0,0.1-0.3,0.3-1.1,0.4
	v-0.1l-1.3,0.2l-0.1-0.1v-0.1l-0.8,0.3l-0.3-0.1v0.1l-0.1-0.1h-0.1l-1.3,0.2h-0.2c0,0.2-0.3,0.3-1.1,0.4h-0.1l-0.3-0.2l-0.6,0.4
	l-0.1-0.1c-2.3,0.4-3.5,0.8-3.5,1.2l-0.1,1l0.3,3l-0.1,0.1h-0.1l-0.1-0.1c0,0.3-0.2,0.6-0.4,0.7h-0.1c-0.3,0-0.6-1.4-0.8-4.1
	l0.1-0.3l-0.3-0.1l-0.8,0.4h-0.6c-0.7-0.1-1.1-0.4-1.1-1v0.1c0-0.3,1-0.5,3-0.8l0.7-3.7c-0.3-0.2-0.6-0.5-0.6-0.9
	c0-0.8,1.6-1.6,4.9-2.7L34.7,151.1L34.7,151.1z"/>
<path class="st1" d="M42.8,158.3c0.8,0.1,1.3,0.6,1.3,1.2c-0.1,0.3-0.3,0.6-0.5,0.6l-0.6-0.1l-2.1,4.6l-0.9,0.1h-0.3
	c-0.9-0.9-1.4-2.1-1.3-3.4v-0.5c0-0.9,0.1-1.3,0.3-1.3h0.3c0.5,0,0.8,0.9,0.9,2.7h0.1C41.2,159.6,42,158.3,42.8,158.3L42.8,158.3z"
	/>
<path class="st1" d="M47.8,158.5h0.5c0.5,0,0.9,0.3,1.1,0.8v0.6c-0.2,0.8-0.6,1.6-1.1,2.3c0,0.5-0.1,0.8-0.3,0.8h-0.3l-0.8-0.6v-0.1
	c0.2-0.8,0.6-1.6,1.1-2.3v-0.1c-1.4,1-2.2,2-2.2,2.9v0.1c0,0.3,0.2,0.7,0.5,0.8h0.5c1.7-0.2,3.4-0.6,5-1.1H52v0.2
	c-1.3,1.1-3,1.8-4.7,1.9h-1c-1.4-0.1-2.2-0.8-2.2-1.8v-0.4c0-1.2,1-2.5,3-3.8H47.8z"/>
<path class="st1" d="M53.5,163l0.1,0.2l0.2,0.1l0.3,0.1l-0.7-0.6L53.5,163L53.5,163z M53.6,158.5h1.1c0.7,0,1.4,0.5,1.4,1.2
	c0,0.1,0,0.1,0,0.2l-0.4,0.1l-1.2-0.2l-0.1,0.1l0,0l-0.1-0.1H54l-0.3,0.1l-0.1-0.1v0.1l-0.1-0.1h-0.1l-0.8,0.5c0,0.3,1,1.2,2.7,2.7
	c0.4,0.4,0.6,0.8,0.6,1.3l-0.6,0.5c-2.2,0-3.3-0.5-3.3-1.5v-0.1l0.6-0.7c-0.9-0.7-1.5-1.7-1.8-2.8C51.2,158.9,52.1,158.6,53.6,158.5
	L53.6,158.5z"/>
<path class="st1" d="M58.7,151.2c0.4,0,0.8,0.4,1.2,1.2v0.3c-1.3,1.1-2,3.7-2,7.8v1.2l0.3,0.3c1.6-2.2,2.7-3.2,3.2-3.2
	c1.3,0,2.7,1.9,4,5.8c0.6,0.8,1.4,1.4,2.3,1.7v0.1l-0.8,0.8h-0.5c-1.2,0-2.5-2-4.1-6.1l-0.6-0.3c-0.3,0-1.3,1.2-3,3.6l-0.6,0.1
	c-1.1-0.6-1.5-2.1-1.5-4.6c0.1-3,0.8-6,1.8-8.8L58.7,151.2L58.7,151.2z"/>
<path class="st1" d="M83.9,151.2h0.6c0.9,0.3,1.3,0.8,1.3,1.4c-0.6,0.1-0.8,0.3-0.8,0.4l-0.5-0.1l0.1-0.3l-0.1-0.1l-0.1,0.3
	l-0.1-0.1l-0.1-0.1l-0.2-0.1l0.1,0.2c-2.2,0.1-4.4,0.9-6.1,2.4l-0.5,0.7c0,0.5,2.5,1.3,7.4,2.5c0.8,0.3,1.5,0.9,2.1,1.5v0.4
	c-2.2,2-4.9,3.3-7.7,3.8l-2.3,0.4l-0.1-0.1l-0.5,0.1c-2.2,0-3.6-0.6-4.3-2v-0.3c0.3-0.6,0.5-0.8,0.6-0.8c0.6,0.6,1.4,1.1,2.2,1.4
	h0.6c3.2,0.1,6.2-0.9,8.7-2.8v-0.3c-2.5-0.6-5-1.3-7.4-2.1c-0.9-0.5-1.5-1.5-1.6-2.5c0.4-1.2,2.4-2.4,5.8-3.5
	C82,151.4,82.9,151.3,83.9,151.2L83.9,151.2z"/>
<path class="st1" d="M88.5,163.1l0.6-0.4c1.3-0.8,2.4-1.9,3.2-3.2h-0.1C90.3,159.9,88.9,161.3,88.5,163.1L88.5,163.1z M93.1,158.3
	l0.8,0.3c0,1-0.2,2-0.6,2.9l-0.1,0.8c0,0.8,0.4,1.6,1.1,2.1l0.1,0.6c-0.2,0.1-0.5,0.1-0.7,0.1c-0.5,0-1.1-0.5-1.8-1.5l-0.2-0.9
	l-0.1-0.3h-0.1c-1,1.1-2.2,1.9-3.6,2.3c-0.5-0.1-0.8-0.2-0.9-0.5l-0.1-0.6C87.4,160.1,89.5,158.4,93.1,158.3L93.1,158.3z"/>
<path class="st1" d="M99.7,158h0.3c0.1,0,0.2,0.1,0.2,0.3c-0.4,2.2-1.4,4.2-2.7,6l-0.8,0.4h-0.1c-1.4-1.3-2.2-3.1-2.3-5.1l0.3-0.1
	c0.5,0,0.8,0.7,1.1,2.1c0.2,0.5,0.5,0.9,0.8,1.3c0.6-0.3,1.5-1.8,2.7-4.6L99.7,158L99.7,158z"/>
<path class="st1" d="M100.6,158.5h0.6c0.2,0.1,0.4,0.4,0.6,1.1l-0.1,2.1c0,0.8,0.3,1.6,0.8,2.3v0.3l-0.3,0.4h-0.3c-1,0-1.5-1-1.5-3
	v-1.2C100.2,159.1,100.4,158.5,100.6,158.5L100.6,158.5z M100.6,151.6h0.4c0.7,0,1,0.3,1,1.1v0.4c-0.1,0.3-0.4,0.4-0.9,0.4
	c-0.3,0-0.6-0.3-1-1.1C100.3,151.8,100.4,151.5,100.6,151.6L100.6,151.6z"/>
<path class="st1" d="M102.9,158.3h0.4c0.4,0.3,0.6,0.7,0.6,1.1l-0.1,0.5l0.1,2.3h0.1c0.8-2,1.5-3,2.3-3c0.5,0,1,1.1,1.5,3.5
	c0.3,0.8,0.7,1.1,1.2,1.1l0.4-0.1l0.4,0.3v0.5c0,0.3-0.4,0.5-1.2,0.6h-0.4c-0.6-0.4-1.1-0.9-1.4-1.5c-0.4-0.8-0.6-1.6-0.8-2.5
	c-0.1,0-0.3,0.4-0.8,1.3c-0.9,1.4-1.5,2.1-1.9,2.1c-0.5,0-0.8-0.8-0.8-2.3v-3.7L102.9,158.3L102.9,158.3z"/>
<path class="st1" d="M118.7,163l0.1,0.2l0.2,0.1l0.3,0.1l-0.6-0.6V163L118.7,163z M118.7,158.5h1.1c0.7,0,1.4,0.5,1.4,1.2
	c0,0.1,0,0.1,0,0.2l-0.4,0.1l-1.2-0.2l-0.1,0.1h-0.1l-0.1-0.1h-0.1l-0.3,0.1l-0.1-0.1v0.1l-0.1-0.1h-0.1l-0.8,0.5
	c0,0.3,1,1.2,2.7,2.7c0.4,0.4,0.6,0.8,0.6,1.3l-0.6,0.5c-2.2,0-3.3-0.5-3.3-1.5v-0.1l0.6-0.7c-0.9-0.7-1.5-1.7-1.8-2.8
	C116.3,158.9,117.2,158.6,118.7,158.5L118.7,158.5z"/>
<path class="st1" d="M122.7,162.7c0.8,0.1,1.2,0.4,1.2,1.1c-0.2,0.6-0.4,0.8-0.6,0.9h-0.6c-0.5-0.3-0.8-0.9-0.8-1.5
	C121.8,162.9,122.1,162.7,122.7,162.7z"/>
<path class="st1" d="M142.6,151.2h0.6c0.9,0.3,1.3,0.8,1.3,1.4c-0.6,0.1-0.8,0.3-0.8,0.4l-0.5-0.1l0.1-0.3l-0.1-0.1l-0.1,0.3
	l-0.1-0.1l-0.1-0.1l-0.2-0.1l0.1,0.2c-2.2,0.1-4.4,0.9-6.1,2.4l-0.5,0.7c0,0.5,2.5,1.3,7.4,2.5c0.8,0.3,1.5,0.9,2.1,1.5v0.4
	c-2.2,2-4.9,3.3-7.7,3.8l-2.3,0.4l-0.1-0.1l-0.5,0.1c-2.2,0-3.6-0.6-4.3-2v-0.3c0.3-0.6,0.5-0.8,0.6-0.8c0.6,0.6,1.4,1.1,2.2,1.4
	h0.6c3.2,0.1,6.2-0.9,8.7-2.8v-0.3c-2.5-0.6-5-1.3-7.4-2.1c-0.9-0.5-1.5-1.5-1.6-2.5c0.4-1.2,2.4-2.4,5.8-3.5
	C140.7,151.4,141.6,151.2,142.6,151.2L142.6,151.2z"/>
<path class="st1" d="M147.2,157.7c1.1,0,2,1.2,2.5,3.5h0.2c0.4-1.8,1-2.7,1.8-2.7s1.7,1.4,2.7,3.8c0.5,0.6,1,1.2,1.6,1.7v0.1
	c0,0.5-0.1,0.8-0.4,0.9c-0.6,0-1.5-0.8-2.7-2.7c-0.3-0.8-0.7-1.5-1.2-2.1c-0.7,1.1-1.2,2.4-1.5,3.7l-0.1,0.1h-0.3
	c-0.4-0.1-1.1-1.6-1.9-4.4l-0.1,0h-0.1l-0.2,1.1v0.5c0.1,1.8,0.6,3.6,1.4,5.2v0.4h-0.2c-1.3-0.4-2-2.5-2.5-6v-0.5
	C146.1,159.4,146.4,158.4,147.2,157.7L147.2,157.7z"/>
<path class="st1" d="M156,163.1l0.6-0.4c1.3-0.8,2.4-1.9,3.2-3.2h0C157.9,159.9,156.4,161.3,156,163.1L156,163.1z M160.6,158.3
	l0.8,0.3c0,1-0.2,2-0.6,2.9l-0.1,0.8c0,0.8,0.4,1.6,1.1,2.1l0.1,0.6c-0.2,0.1-0.5,0.1-0.7,0.1c-0.5,0-1.1-0.5-1.8-1.5l-0.2-0.9
	l-0.1-0.3h-0.1c-1,1.1-2.2,1.9-3.6,2.3c-0.5-0.1-0.8-0.2-0.9-0.5l-0.1-0.5C154.9,160.2,157,158.5,160.6,158.3L160.6,158.3z"/>
<path class="st1" d="M166,158.3c0.8,0.1,1.3,0.6,1.3,1.2c-0.1,0.3-0.3,0.6-0.5,0.6l-0.5-0.1l-2,4.6l-0.9,0.1h-0.3
	c-0.9-0.9-1.4-2.1-1.3-3.4v-0.5c0-0.9,0.1-1.3,0.3-1.3h0.3c0.5,0,0.8,0.9,0.9,2.7h0.1C164.4,159.7,165.3,158.3,166,158.3L166,158.3z
	"/>
<path class="st1" d="M168.8,162.2v0.1c0.5,0.4,1.1,0.7,1.7,0.8h0.2c-0.3-1.3-0.6-2-0.8-2h-0.2l-0.6,0.3
	C169.1,161.7,169,162,168.8,162.2L168.8,162.2z M169.1,154.7h0.5c0.3,0,0.7,1.5,1.1,4.4l0.2,0.5l1.5-0.1c2.1,0,3.2,0.3,3.2,0.8
	l-0.2,0.3l-0.1-0.1l-0.5,0.3l-0.1-0.1h-0.1l-0.3,0.1v-0.1l-0.1,0.1h-0.3v-0.1l-2.7,0.3c0.4,1,0.7,2.1,0.8,3.2
	c-0.2,0.4-0.5,0.6-0.9,0.8c-1.3-0.2-2.5-0.8-3.5-1.8c-0.3-0.3-0.5-0.7-0.6-1.1c0-0.6,0.8-1.3,2.5-2v-0.3c-0.4-1.3-0.7-2.6-0.8-4
	v-0.6L169.1,154.7L169.1,154.7z"/>
<path class="st1" d="M188.1,150.9l1,0.8v0.3c-0.3,0.5-0.6,1.1-0.7,1.8c-0.5,0.1-1.1,0.9-1.7,2.2c-1.2,1.8-1.9,3.8-2.2,5.9
	c0,1.3,1.1,1.9,3.3,1.9l11-1.3v0.1l0.1-0.1h0.1c0.7,0.1,1,0.2,1,0.4c-0.3,0.4-0.8,0.7-1.3,0.8v-0.1l-1.8,0.6l-0.1-0.1h-0.1l-2.5,0.6
	l-0.7-0.1c0,0.2-1.2,0.4-3.7,0.7l-0.1-0.1h-0.1l-1.2,0.3v-0.1l-0.5,0.1c-3.6-0.3-5.3-1.3-5.3-3l-0.1-1.1c0-1.5,1.6-5,4.9-10.3
	L188.1,150.9L188.1,150.9z"/>
<path class="st1" d="M197.8,158.5h0.6c0.2,0.1,0.4,0.4,0.6,1.1l-0.1,2.1c0,0.8,0.3,1.6,0.8,2.3v0.3l-0.3,0.4H199c-1,0-1.5-1-1.5-3
	v-1.2C197.4,159.1,197.6,158.5,197.8,158.5L197.8,158.5z M197.8,151.6h0.4c0.7,0,1,0.3,1,1.1v0.4c-0.1,0.3-0.4,0.4-0.9,0.4
	c-0.3,0-0.6-0.3-1-1.1C197.5,151.8,197.6,151.5,197.8,151.6L197.8,151.6z"/>
<path class="st1" d="M205.1,158h0.3c0.1,0,0.2,0.1,0.2,0.3c-0.4,2.2-1.4,4.2-2.7,6l-0.8,0.4H202c-1.4-1.3-2.2-3.1-2.3-5.1l0.3-0.1
	c0.5,0,0.8,0.7,1.1,2.1c0.2,0.5,0.5,1,0.8,1.3c0.6-0.3,1.5-1.8,2.7-4.6L205.1,158L205.1,158z"/>
<path class="st1" d="M206.1,158.5h0.6c0.2,0.1,0.4,0.4,0.6,1.1l-0.1,2.1c0,0.8,0.3,1.6,0.8,2.3v0.3l-0.3,0.4h-0.3c-1,0-1.5-1-1.5-3
	v-1.2C205.7,159.1,205.8,158.5,206.1,158.5L206.1,158.5z M206.1,151.6h0.4c0.7,0,1,0.3,1,1.1v0.4c-0.1,0.3-0.4,0.4-0.9,0.4
	c-0.3,0-0.6-0.3-1-1.1C205.7,151.8,205.9,151.5,206.1,151.6L206.1,151.6z"/>
<path class="st1" d="M208.3,158.3h0.4c0.4,0.3,0.6,0.7,0.6,1.1l-0.1,0.5l0.1,2.3h0.1c0.8-2,1.5-3,2.3-3c0.5,0,1,1.1,1.5,3.5
	c0.3,0.8,0.7,1.1,1.2,1.1l0.4-0.1l0.4,0.3v0.5c0,0.3-0.4,0.5-1.2,0.6h-0.4c-0.6-0.4-1.1-0.9-1.4-1.5c-0.4-0.8-0.6-1.6-0.8-2.5
	c-0.1,0-0.3,0.4-0.8,1.3c-0.9,1.4-1.5,2.1-1.9,2.1c-0.5,0-0.8-0.8-0.8-2.3v-3.7L208.3,158.3L208.3,158.3z"/>
<path class="st1" d="M217.3,160.4c-0.5,0.2-0.9,0.7-1.1,1.2c0.7,0.4,1.5,0.5,2.3,0.1l0.4-0.5C218.9,160.5,218.3,160.2,217.3,160.4
	L217.3,160.4z M220.7,161.9l-0.2,2.2c-1.2,4.5-1.4,5-2,5.3c-4,1.3-3.5-1.8-3.5-2.1c-0.1-0.3,0.8-0.8,0.9-0.2c0.3,1.7,2,1.9,2.7-0.2
	c0.5-1.3,0.8-2.6,0.8-4l-1,0.6c-1.1,0.5-2.4,0.4-3.5-0.3v-0.3c-0.5-1.3,0-2.7,2.3-3.9C219.4,157.8,220.6,158.9,220.7,161.9
	L220.7,161.9z"/>
<path class="st1" d="M222.3,162.7c0.8,0.1,1.2,0.4,1.2,1.1c-0.2,0.6-0.4,0.8-0.6,0.9h-0.6c-0.5-0.3-0.8-0.9-0.8-1.5
	C221.5,162.9,221.8,162.7,222.3,162.7z"/>
<path class="st1" d="M112.2,160.4c-0.5,0.2-0.9,0.7-1.1,1.2c0.7,0.4,1.5,0.5,2.3,0.1l0.4-0.5C113.7,160.5,113.2,160.2,112.2,160.4
	L112.2,160.4z M115.5,161.9l-0.2,2.2c-1.2,4.5-1.4,5-2,5.3c-4,1.3-3.5-1.8-3.5-2.1c-0.1-0.3,0.8-0.8,0.9-0.2c0.3,1.7,2,1.9,2.7-0.2
	c0.5-1.3,0.8-2.6,0.8-4l-1,0.6c-1.1,0.5-2.4,0.4-3.5-0.3v-0.3c-0.5-1.3,0-2.7,2.3-3.9S115.5,158.9,115.5,161.9L115.5,161.9z"/>
<path class="st1" d="M54.7,101.6c4-3.9,7.6-7.1,10.8-10.7c2.2-2.4,1.6-3.9-1.4-5c-1-0.4-2.3-0.3-3.3-0.8s-2.2-1.1-2.3-1.9
	c-0.3-1.5,0.2-3.2,2.3-3.2c8.6,0,17.2-0.1,25.8,0c0.7,0,2.1,1.2,2.1,1.6c-0.2,1.2-0.9,3.1-1.6,3.2c-8.8,1.2-13.9,7.8-20.1,12.9
	c-2.7,2.2-5.1,4.7-7.7,7c-1.3,1.1-1.7,2.1-0.7,3.7c4.8,7.5,9.3,15.1,14.4,22.5c1.3,1.9,4,2.8,6,4.3c0.8,0.6,1.9,1.8,1.8,2.4
	c-0.2,1-1.3,2.5-2.2,2.6c-10.3,0.2-20.5,0.1-30.7,0c-0.7,0-1.9-0.9-1.9-1.3c0.3-1.2,0.7-2.4,1.3-3.5c0.1-0.2,0.8-0.2,1.2-0.2
	c5.7-0.8,5.9-1.2,2.9-6c-2.3-3.6-4.6-7.2-7.2-11.4c-4.1,4.1-8.1,7.6-11.5,11.6c-2.1,2.5-0.9,4.8,2.4,5.5c1.1,0.2,2.2,0.3,3.4,0.3
	c1.4,0,2.8,0.2,2.6,2.1c-0.2,1.7-0.6,3-2.7,3c-9.1,0-18.2,0-27.4-0.1c-0.7,0-2-0.9-2-1.2c0.3-1.3,0.8-3.5,1.5-3.6
	c8.3-1.1,13.4-7,19.2-12c3.2-2.8,6.2-5.6,9.4-8.3c1.5-1.3,1.9-2.5,0.8-4.2c-5-7.9-9.9-15.8-15-23.5c-0.7-1.1-2.7-1.4-3.9-2.3
	c-0.8-0.5-2-1.5-1.9-2c0.4-1.1,1.1-2.1,2-2.9c0.3-0.3,1.2-0.2,1.8-0.2c9.1,0,18.2,0,27.4,0c1.4,0,3.3-0.4,3.3,2
	c0,2.1-0.9,3.1-3.2,3.2c-4.5,0.2-5.1,1.5-2.7,5.3C49.7,94,52,97.5,54.7,101.6z"/>
<path class="st1" d="M143.4,94.3c3.8,0.5,5.3-1.5,6.9-3.9c0.8-0.9,1.7-1.6,2.8-2.2c0.4,1.1,0.6,2.3,0.6,3.6
	c-0.4,3.5-1.1,7.1-1.8,10.6c-0.2,0.9-1.1,1.7-1.6,2.5c-0.6-0.7-1.2-1.5-1.8-2.3c-0.5-1.1-1-2.2-1.7-3.2c-0.8-0.7-1.9-1.1-3-1.1
	c-0.5,0-1.2,1.5-1.3,2.3c-0.5,2.5-0.8,5-1.2,7.6c-0.2,1.8,0.6,2.6,2.4,2.7c5.7,0.4,10.3-1.3,13-6.7c0.3-0.9,0.8-1.6,1.4-2.3
	c0.6-0.4,1.4-0.6,2.2-0.4c0.3,0.1,0.7,1.2,0.6,1.7c-0.4,2.9-1.1,5.8-1.9,8.7c-0.5,1.1-1.5,1.9-2.7,2.1c-9.1,0.2-18.2,0.1-27.3,0
	c-0.7,0-1.5-0.9-2.2-1.4c0.7-0.6,1.3-1.6,2.1-1.6c2.4,0,3.1-1.2,3.4-3.4c1-7.1,2.2-14.1,3.4-21.2c0.3-1.8,0.3-3.2-2-3.6
	c-0.6-0.1-1.1-1-1.7-1.6c0.7-0.5,1.5-1.3,2.3-1.4c3.9-0.2,7.8-0.1,11.7-0.1c4.9,0,9.8,0.1,14.7,0c2.2,0,3.3,0.7,2.9,3.1
	c-0.4,2.5-0.5,5.1-1.1,7.6c-0.2,0.8-1.1,1.4-1.7,2.1c-0.6-0.7-1.5-1.3-1.7-2.1c-1.7-5.9-5-8.3-10.9-7.3c-1.4,0.3-2.6,1.3-3.3,2.6
	C144.2,88.5,143.7,91.4,143.4,94.3z"/>
<path class="st1" d="M106.2,79.4c4.4,0.3,8.8,0.5,13.1,1.1c3.5,0.5,6.1,2.4,6.7,6.1c0.8,4.2-1.1,8.5-4.9,10.7
	c-4.1,2.1-8.7,3-13.3,2.5c-2.9-0.3-3.9,1.1-3.9,3.7c0,0.9-0.1,1.8-0.3,2.7c-0.7,2.5-1.5,5,2.7,5c0.4,0,0.8,1,1.1,1.5
	c-0.8,0.5-1.5,1.4-2.3,1.5c-3.9,0.2-7.8,0.1-11.7,0.1c-1,0.1-2,0-3.1-0.1c-0.6-0.2-1.1-1-1.6-1.5c0.5-0.5,1.1-1.5,1.6-1.5
	c3.2,0.2,3.6-1.8,4-4.3c1-6.9,2.2-13.7,3.3-20.6c0.3-1.9,0-3.2-2.3-3.4c-0.6,0-1.1-0.9-1.7-1.3c0.7-0.6,1.4-1.6,2.2-1.7
	c3.5-0.2,7-0.1,10.4-0.1L106.2,79.4z M107.7,96.6c5.8-0.1,8.2-2.2,9.1-8c0.5-3-1.1-5-4.3-5.5c-4-0.7-5.3,0.1-6,3.5
	c-0.4,2.3-0.6,4.7-1.2,6.9S105.5,96.9,107.7,96.6L107.7,96.6z"/>
<path class="st1" d="M225.7,79.7c4,0,8,0.1,12,0c2.8-0.1,3.7,1,3.3,3.6c-0.4,2.7-0.5,5.3-0.9,7.9c-0.1,0.6-0.9,1.2-1.3,1.7
	c-0.5-0.5-1.3-1-1.6-1.6c-0.4-1.1-0.2-2.5-0.7-3.6c-0.8-1.7-1.9-3.3-3.4-4.5c-1.4-1.1-3.2-0.7-3.6,1.6c-1.3,7.9-2.6,15.7-3.9,23.6
	c-0.3,1.7,0.6,2.3,2.2,2.5c0.9,0.1,1.7,1,2.5,1.5c-1,0.6-1.9,1.6-2.9,1.6c-4.6,0.2-9.2,0.2-13.8,0c-1,0-1.9-0.9-2.9-1.5
	c0.9-0.6,1.8-1.6,2.7-1.7c1.9-0.2,3.1-0.8,3.4-2.8c1.1-7.4,2.3-14.7,3.3-22.1c0-1-0.1-1.9-0.3-2.9c-1.1,0.1-2.5-0.1-3.1,0.5
	c-2.1,2.1-3.9,4.6-5.8,6.9c-0.8,0.8-1.7,1.6-2.7,2.3c-0.3-1.1-0.4-2.2-0.4-3.4c0.3-2.5,0.9-5,1.7-7.4c0.6-1.2,1.7-2,2.9-2.2
	C216.9,79.6,221.3,79.7,225.7,79.7z"/>
<path class="st1" d="M178,99.8c-0.1,5.2-0.4,9.3,4,11.1c4,1.6,9.7-0.6,12.4-4.5c0.5-0.9,1-1.8,1.6-2.6c0.9-0.7,1.9-1.4,2.9-1.9
	c0,1.2,0.3,2.6-0.2,3.5c-2.1,4.1-5.2,7.4-9.8,8.7c-7.5,2-16.3,0.9-19.5-6.4c-3.1-6.9-1.5-13.5,2.6-19.5c5.6-8.1,14.7-10.7,24.1-7.4
	c1.1,0.1,2.3-0.2,3.2-0.8c1.9-0.8,3.1-0.7,2.9,1.7c-0.3,3.3-0.6,6.5-1.2,9.7c-0.1,0.7-1.1,1.2-1.7,1.9c-0.6-0.6-1.3-1.1-1.7-1.8
	c-0.5-1.1-0.6-2.4-1-3.5c-1.1-3-3-5.3-6.5-5.7c-3.2-0.5-6.5,1-8.2,3.8C179.4,90.1,178,94.9,178,99.8z"/>
<path class="st1" d="M202.3,133c0.6-2.1,1.2-4.2,1.8-6.3c0.1-0.9,0.5-1.8,1-2.5c0.6-0.6,1.4-0.9,2.3-0.8c0.5,0.1,1.1,1.5,0.9,2.1
	c-1.2,4.8-2.4,9.5-3.9,14.2c-0.3,0.8-1.5,2-2.2,1.9c-1.1-0.2-2.1-0.9-2.6-1.9c-0.8-2.6-1.6-5.2-2.1-7.8l-0.8-0.1
	c-0.6,2-1.2,3.9-1.8,5.9c-0.3,0.9-0.3,2-0.8,2.6c-0.8,0.6-1.7,1.1-2.7,1.4c-0.3-0.8-0.9-1.7-0.7-2.4c1.3-4.9,2.7-9.9,4.1-14.7
	c0.5-0.8,1.4-1.3,2.4-1.2c1.1,0.3,2,1.1,2.5,2.1c0.8,2.5,1.4,5,1.9,7.6L202.3,133z"/>
<path class="st1" d="M100.1,122.6c7.2,0,9.1,2.8,6.9,9.7c-2.3,7.3-6.6,10-14.1,9.2c-2-0.2-2.7-1.1-2.1-3.1c1.1-3.6,2-7.3,2.9-10.9
	C95,122.6,95,122.6,100.1,122.6z M95.2,137c2.4,0.7,4.7,0.8,5.7-1.3c1.1-2.6,1.8-5.2,2.2-8c0-0.3-1.9-1.3-3-1.3
	c-1,0-1.8,0.5-2.3,1.3C96.8,130.6,96.1,133.6,95.2,137z"/>
<path class="st1" d="M170.8,129c-0.1,7.3-5.3,13-11.6,12.9c-2.8,0.2-5.3-1.9-5.5-4.7c-1.1-5.5,2.9-12.5,8.2-14.3
	C166.8,121.1,170.9,124,170.8,129z M166.7,129.3c-0.3-0.5-0.7-2.2-1.6-2.5c-0.9-0.3-3.3-0.3-3.8,0.5c-1.6,2.2-2.8,4.8-3.4,7.5
	c-0.5,2.8,2.1,4.2,4.7,2.7C165.3,135.9,166.3,133.1,166.7,129.3L166.7,129.3z"/>
<path class="st1" d="M230.6,142.3c-2.2-0.3-4.7-0.5-5.4-3.4c0-1,0.2-2.1,0.6-3.1c1.1,0.3,2.1,0.6,3.2,0.9c1.4,0.6,2.8,1,4.2,1.3
	c0.5,0,1.4-1.1,1.6-1.9c0.1-0.4-0.9-1.2-1.5-1.6c-0.6-0.2-1.2-0.4-1.8-0.5c-4.5-1.3-5.6-4.5-2.8-8.3c1.8-2.5,5.9-4,8.7-2.9
	c1.3,0.6,2.3,1.5,3,2.7c0.4,0.7-0.3,2-0.4,3c-1.1-0.2-2.7-0.1-3.2-0.7c-0.8-1.4-2.5-1.9-3.9-1.1c-0.1,0.1-0.2,0.1-0.3,0.2
	c-0.5,0.4-0.9,1-0.9,1.7c0,0.4,0.7,0.9,1.2,1.1c0.9,0.4,1.9,0.7,2.9,1c3.7,1.3,4.6,4.1,2.5,7.4C236.6,140.8,233.7,142.4,230.6,142.3
	z"/>
<path class="st1" d="M122.8,142.4c-1.8-0.8-3.4-1.8-4.9-3c-0.6-0.6,0-2.5,0.1-3.8c1.1,0.3,2.7,0.3,3.3,1.1c1.1,1.5,3.1,1.8,4.6,0.8
	c0.6-0.3,1-0.9,1.2-1.6c0-0.5-0.7-1.1-1.3-1.5c-0.8-0.4-1.7-0.7-2.6-0.9c-4-1.5-4.8-3.4-2.9-7.2c1.6-3.1,6.7-5.1,9.8-3.6
	c1.2,0.6,2.1,1.6,2.6,2.8c0.2,1-0.1,2.1-0.8,2.8c-0.6,0.4-1.9-0.3-2.9-0.7c-0.9-0.4-2.1-1.4-3.2-1.5c-0.6,0-1.3,1.2-2.1,1.9l1.8,1.7
	c0,0,0.2,0,0.3,0.1c2.7,0.8,6,1.2,5.7,5.1c-0.3,3.5-3.9,6.6-7.6,6.8c-0.3,0-0.6,0-0.9,0L122.8,142.4z"/>
<path class="st1" d="M178.8,141.9c-4.5,0-6.3-2.1-5.2-6.7c0.7-3.3,1.5-6.6,2.6-9.8c0.4-1,1.9-1.6,2.9-2.4c0.3,1.1,1.1,2.3,0.9,3.2
	c-0.5,2.8-1.5,5.5-2,8.3c-0.2,1.1,0.6,2.3,0.9,3.5c1.3-0.7,3.2-1,3.6-2c1.2-3,2.1-6.2,2.9-9.3c0.2-0.8,0.2-1.8,0.7-2.3
	c0.8-0.6,1.8-1,2.7-1.3c0.3,0.8,1.1,1.7,0.9,2.4c-0.8,3.7-1.8,7.3-3.1,10.9C185.7,139.9,182.4,142.2,178.8,141.9z"/>
<path class="st1" d="M149.4,135.5c-1.9,4.6-5.2,6.7-9.5,6.3c-2.3-0.1-4.3-1.9-4.7-4.2c-1.3-5.2,2.7-12.7,7.7-14.7
	c3.7-1.4,7.7-0.1,8.5,2.9c0.3,0.9-0.4,2.1-0.7,3.2c-1.1-0.3-2.4-0.4-3.1-1.1c-2-2.1-3.8-2.5-5.5-0.1c-1.3,2-2.2,4.3-2.7,6.7
	c-0.2,0.9,0.6,2.8,1.2,3c1.3,0.2,2.7-0.1,3.8-0.8C146,135.5,147.1,133.9,149.4,135.5z"/>
<path class="st1" d="M216,127.2c-0.9,0-1.7-0.1-2.5-0.4c-0.7-0.4-1.7-1.1-1.6-1.7c0-0.5,1-1.8,1.5-1.9c3.7-0.2,7.3-0.1,11,0
	c0.4,0,1.3,1.2,1.2,1.3c-0.4,0.8-1.3,2.1-1.8,2c-3.7-0.5-4.1,2.1-4.7,4.7c-0.6,2.8-1.3,5.5-2.3,8.2c-0.3,0.9-1.9,1.3-2.9,2
	c-0.3-1-1.1-2.1-1-3C213.7,134.9,214.8,131.2,216,127.2z"/>
<path class="st1" d="M115.7,122.3c0.4,0.8,1.2,1.7,1.1,2.4c-1.3,5-2.7,10.1-4.2,15c-0.2,0.7-1.7,1.1-2.5,1.6c-0.4-0.9-1.2-2-1-2.7
	c1.1-4.5,2.4-9.1,3.7-13.5c0.5-1,1.1-1.9,1.8-2.7L115.7,122.3z"/>
</svg>
