<svg id="Layer_1" data-name="Layer 1" xmlns="http://www.w3.org/2000/svg" viewBox="0 0 58.49 62.89"><defs><style>.cls-1{fill:#f05f2f;}.cls-2{fill:#444344;}.cls-3{fill:#f7d057;}.cls-3,.cls-4,.cls-5{stroke:#444344;stroke-miterlimit:10;stroke-width:0.75px;}.cls-4{fill:#fff;}.cls-5{fill:#45a4d7;}.cls-6{fill:#444345;}</style></defs><title>Work or Job site</title><rect class="cls-1" x="3.63" y="31.71" width="4.57" height="26.45"/><path class="cls-2" d="M7.62,32.25V57.63H4.17V32.25H7.62M8.7,31.18H3.16V58.67H8.81V31.18Z"/><rect class="cls-3" x="8.73" y="31.99" width="16.23" height="7.3"/><rect class="cls-3" x="8.73" y="39.28" width="16.23" height="7.3"/><rect class="cls-3" x="8.73" y="46.58" width="16.23" height="7.3"/><rect class="cls-1" x="20.64" y="54.41" width="4.38" height="4.57"/><path class="cls-2" d="M24.5,54.95v3.49H21.2V54.95h3.3m1.08-1.08H20.11v5.65h5.46Z"/><rect class="cls-3" x="36.98" y="31.99" width="12.7" height="21.88"/><rect class="cls-1" x="50.23" y="31.71" width="4.57" height="26.45"/><path class="cls-2" d="M54.25,32.25V57.63H50.76V32.25h3.49m1.08-1.08H49.68V58.67h5.65Z"/><rect class="cls-1" x="3.63" y="26.89" width="51.16" height="4.57"/><path class="cls-2" d="M54.25,27.41V30.9H4.17V27.41H54.25m1.08-1.08H3.16V32H55.33Z"/><path class="cls-4" d="M22.5,26.34l2.87-5.65h7.77L36,26.34Z"/><path class="cls-4" d="M15.09,20.7V3.76h28.3V20.7ZM19.6,8.26v7.9H38.84V8.26Z"/><rect class="cls-5" x="19.61" y="8.26" width="19.19" height="7.9"/><path class="cls-6" d="M43,40.48V44a1.13,1.13,0,0,1-2.26,0V40.48a1.13,1.13,0,0,1,2.26,0Z"/><rect class="cls-1" x="36.89" y="54.41" width="4.38" height="4.57"/><path class="cls-2" d="M40.75,54.95v3.49h-3.3V54.95h3.3m1.08-1.08H36.37v5.65h5.46Z"/></svg>