<svg id="Layer_1" data-name="Layer 1" xmlns="http://www.w3.org/2000/svg" viewBox="0 0 48.68 61.46"><defs><style>.cls-1{fill:#e2bba1;}.cls-2{fill:#414042;}.cls-3{fill:#294356;}.cls-4{fill:#f15f2e;}.cls-5{fill:#f2ceb3;}.cls-6{fill:#45a5da;}.cls-7{fill:#8dc63f;}.cls-8{fill:#f6d056;}.cls-9{fill:#166037;opacity:0.39;}</style></defs><title>iSHOP Dashboard_Elements</title><polygon class="cls-1" points="38.06 37.34 31.89 56.56 29.8 56.56 32.7 36.03 38.06 37.34"/><path class="cls-2" d="M32.49,35.72l5.89,1.44L32.07,56.81H29.51Zm5.25,1.8-4.84-1.18-2.82,20H31.7Z"/><path class="cls-3" d="M29.42,56.89a.12.12,0,0,1,0-.1l3-21.09a.13.13,0,0,1,.05-.09.12.12,0,0,1,.1,0L38.41,37a.12.12,0,0,1,.08.06.13.13,0,0,1,0,.1L32.19,56.85a.13.13,0,0,1-.12.09H29.51A.12.12,0,0,1,29.42,56.89Zm8.81-19.64L32.6,35.88,29.65,56.69H32ZM30,56.39a.12.12,0,0,1,0-.1l2.82-20a.13.13,0,0,1,.05-.09.12.12,0,0,1,.1,0l4.84,1.18a.12.12,0,0,1,.08.06.13.13,0,0,1,0,.1l-6,18.79a.13.13,0,0,1-.12.09H30.08A.12.12,0,0,1,30,56.39Zm7.6-18.78L33,36.49l-2.78,19.7h1.39Z"/><path class="cls-2" d="M31.77,57.45l-1.3,3a2,2,0,0,1-1.43.81H25.47V59.8a1.25,1.25,0,0,1,.45-1.05c.5-.37,2.18-1,2.7-1.47a3,3,0,0,0,.73-1.86H32c.27,0,.46.31.46.62l-.26,5.19h-.48Z"/><path class="cls-3" d="M25.35,61.25a.13.13,0,0,1,0,0c0-.06,0-.61,0-1v-.42a1.36,1.36,0,0,1,.5-1.17A7.91,7.91,0,0,1,27,58.06a7.4,7.4,0,0,0,1.56-.87,2.89,2.89,0,0,0,.69-1.77.13.13,0,0,1,.12-.12H32c.36,0,.58.38.58.75l-.26,5.19a.13.13,0,0,1-.12.12h-.48a.13.13,0,0,1-.12-.12V58l-1.07,2.44a2.06,2.06,0,0,1-1.53.87H25.47A.12.12,0,0,1,25.35,61.25Zm6.44-3.93a.13.13,0,0,1,.1.12V61.1h.24L32.38,56c0-.24-.13-.49-.33-.49H29.47a3,3,0,0,1-.76,1.83,7.31,7.31,0,0,1-1.63.91,7.88,7.88,0,0,0-1.08.56,1.14,1.14,0,0,0-.4,1v.43c0,.45,0,.71,0,.87H29a1.84,1.84,0,0,0,1.31-.74l1.3-3a.13.13,0,0,1,.11-.07Z"/><path class="cls-4" d="M36.73.47S40.34,0,42,2.3s.92,5.22,1.65,7.36c.87,2.57,2.6,3,2.6,3a13.84,13.84,0,0,1-9.36,3.49c-5.92,0-8.5-3.74-8.5-3.74a6.25,6.25,0,0,0,3.48-5.08C32.37,4,33.19,1.33,36.73.47Z"/><path class="cls-2" d="M28.19,12.59a.25.25,0,0,1,.12-.37,6,6,0,0,0,3.32-4.88c.47-3.21,1.21-6.17,5.05-7.11h0c.15,0,3.77-.45,5.5,1.93a8.61,8.61,0,0,1,1.29,4.76,10.73,10.73,0,0,0,.4,2.66c.81,2.4,2.36,2.86,2.43,2.88a.25.25,0,0,1,.11.42,14,14,0,0,1-9.54,3.57C30.91,16.44,28.29,12.74,28.19,12.59ZM43.42,9.74A11.08,11.08,0,0,1,43,6.95a8.23,8.23,0,0,0-1.2-4.5C40.29.37,37,.69,36.78.71c-3.2.78-4.13,3-4.66,6.69a6.63,6.63,0,0,1-3.34,5.13,10.48,10.48,0,0,0,8.11,3.4,13.94,13.94,0,0,0,8.9-3.17A5,5,0,0,1,43.42,9.74Z"/><path class="cls-3" d="M28.08,12.66a.37.37,0,0,1,.17-.56A5.82,5.82,0,0,0,31.5,7.31C32,4.06,32.73,1.05,36.65.1h0c.15,0,3.84-.47,5.62,2A8.7,8.7,0,0,1,43.62,6.9,10.66,10.66,0,0,0,44,9.54c.79,2.34,2.28,2.78,2.34,2.8a.37.37,0,0,1,.26.26.38.38,0,0,1-.09.36,14.11,14.11,0,0,1-9.63,3.61C30.84,16.56,28.19,12.82,28.08,12.66ZM36.7.35c-3.77.91-4.49,3.83-5,7a6.08,6.08,0,0,1-3.4,5,.13.13,0,0,0-.07.08.12.12,0,0,0,0,.11c.11.15,2.69,3.8,8.6,3.8a13.84,13.84,0,0,0,9.45-3.53.12.12,0,0,0-.06-.21c-.07,0-1.67-.5-2.51-3a10.81,10.81,0,0,1-.4-2.7A8.5,8.5,0,0,0,42.1,2.23,5.58,5.58,0,0,0,37.54.3,6.79,6.79,0,0,0,36.7.35Zm-8,12.27a.13.13,0,0,1,0-.19,6.48,6.48,0,0,0,3.27-5c.54-3.7,1.49-6,4.77-6.8.36,0,3.61-.33,5.14,1.78a8.32,8.32,0,0,1,1.22,4.57,11,11,0,0,0,.41,2.76,4.91,4.91,0,0,0,2.31,3,.12.12,0,0,1,0,.21,14.13,14.13,0,0,1-9,3.2A10.62,10.62,0,0,1,28.69,12.62ZM43.3,9.78A11.15,11.15,0,0,1,42.87,7,8.13,8.13,0,0,0,41.7,2.52C40.23.48,36.93.82,36.81.83c-3.13.76-4,3-4.57,6.59A6.77,6.77,0,0,1,29,12.57a10.43,10.43,0,0,0,7.91,3.24,13.92,13.92,0,0,0,8.68-3A5.27,5.27,0,0,1,43.3,9.78Z"/><path class="cls-5" d="M33.29,18.08s-.49.45-1,2.71c-.4,1.65-.62,5.43-1.4,6.34s1.36,1.69,2.15,1.43c.52-.17,1.83-1.94,1.62-5.92C34.49,20.13,35.18,19.55,33.29,18.08Z"/><path class="cls-2" d="M30.58,28a.79.79,0,0,1,.08-1c.47-.55.75-2.49,1-4,.12-.84.24-1.64.37-2.2.55-2.27,1.06-2.78,1.12-2.84a.25.25,0,0,1,.32,0,3,3,0,0,1,1.43,3.18c0,.44,0,.94,0,1.57.21,4.1-1.14,6-1.79,6.17a1.43,1.43,0,0,1-.45.06A2.77,2.77,0,0,1,30.58,28Zm1.91-7.13c-.13.54-.24,1.32-.36,2.15-.26,1.79-.53,3.63-1.09,4.29a.29.29,0,0,0,0,.41,2.27,2.27,0,0,0,1.92.62c.38-.13,1.66-1.8,1.45-5.67,0-.65,0-1.19,0-1.62a2.46,2.46,0,0,0-1-2.6A9,9,0,0,0,32.49,20.85Z"/><path class="cls-3" d="M30.47,28.05a.92.92,0,0,1,.09-1.16c.45-.52.74-2.52.95-4,.12-.84.24-1.64.37-2.21.55-2.26,1.06-2.81,1.15-2.9a.37.37,0,0,1,.48,0A3.13,3.13,0,0,1,35,21.08c0,.44,0,.93,0,1.55.22,4.21-1.17,6.06-1.88,6.29a1.55,1.55,0,0,1-.49.07A2.88,2.88,0,0,1,30.47,28.05ZM33.21,18s-.53.5-1.08,2.77c-.13.56-.25,1.35-.37,2.19-.23,1.57-.51,3.53-1,4.1a.67.67,0,0,0-.07.86,2.64,2.64,0,0,0,1.94.82,1.32,1.32,0,0,0,.41-.06c.53-.18,1.92-1.94,1.71-6,0-.63,0-1.13,0-1.58A2.87,2.87,0,0,0,33.37,18l-.08,0A.12.12,0,0,0,33.21,18Zm-2.32,9.79a.42.42,0,0,1,.06-.56c.54-.63.81-2.46,1.06-4.23.12-.83.23-1.61.37-2.16a9.07,9.07,0,0,1,.86-2.45.12.12,0,0,1,.09-.06.12.12,0,0,1,.1,0A2.59,2.59,0,0,1,34.5,21c0,.43,0,1,0,1.61.2,3.91-1.08,5.64-1.54,5.8a1.08,1.08,0,0,1-.33,0A2.44,2.44,0,0,1,30.88,27.78Zm1.73-6.9c-.13.54-.24,1.32-.36,2.14-.26,1.8-.53,3.67-1.12,4.36-.12.14-.08.2,0,.26a2.19,2.19,0,0,0,1.78.57c.34-.12,1.56-1.8,1.37-5.55,0-.66,0-1.2,0-1.63a2.32,2.32,0,0,0-.87-2.4A9.92,9.92,0,0,0,32.61,20.88Z"/><polygon class="cls-1" points="37.3 33.35 39.66 58.04 41.52 58.04 43.32 37.51 37.3 33.35"/><path class="cls-2" d="M37,32.84l6.58,4.55-1.83,20.9H39.43Zm6.06,4.79L37.6,33.86l2.29,23.93h1.41Z"/><path class="cls-3" d="M39.31,58.3,36.87,32.85a.13.13,0,0,1,.2-.11l6.58,4.55a.13.13,0,0,1,.05.11L41.87,58.3a.12.12,0,0,1-.12.11H39.43A.13.13,0,0,1,39.31,58.3Zm4.14-20.85-6.3-4.35,2.4,25.07h2.09ZM39.76,57.8,37.47,33.87a.13.13,0,0,1,.2-.11l5.46,3.77a.13.13,0,0,1,.05.11L41.42,57.8a.12.12,0,0,1-.12.11H39.89A.13.13,0,0,1,39.76,57.8Zm3.17-20.11-5.18-3.58L40,57.67h1.18Z"/><path class="cls-6" d="M33.8,17.26s-3.24,3.24-3.24,5.35,3.72,2.84,3.41,4.82c-.49,3.08-5.68,25.07-5.68,25.07H44.65s.42-19.49-4.22-22.8c-2.16-1.54.9-4.67,1.8-8.24.61-2.45.49-3.55-1.47-3.93A21.06,21.06,0,0,0,33.8,17.26Z"/><path class="cls-2" d="M28,52.47c0-.1,5.19-22,5.67-25.06.13-.84-.62-1.41-1.49-2.08s-1.92-1.47-1.92-2.71c0-2.19,3.17-5.39,3.31-5.53l.06-.06h.08a21.13,21.13,0,0,1,7,.28,2.38,2.38,0,0,1,1.7.94c.47.73.33,1.85,0,3.29A19,19,0,0,1,41,25.1c-1.05,2.18-1.64,3.56-.46,4.4,4.72,3.37,4.38,22.74,4.32,23.05l0,.2H28ZM40.28,29.91c-1.58-1.13-.71-2.93.3-5A18.63,18.63,0,0,0,42,21.41c.33-1.32.47-2.32.1-2.9a1.94,1.94,0,0,0-1.37-.72,21.51,21.51,0,0,0-6.79-.29c-.42.44-3.11,3.28-3.11,5.12,0,1,.88,1.66,1.73,2.31s1.86,1.42,1.68,2.55c-.44,2.75-5.32,23.1-5.62,24.78H44.43C44.61,51,44.32,32.79,40.28,29.91Z"/><path class="cls-3" d="M27.9,52.84a.13.13,0,0,1,0-.1l.05-.29c0-.09,5.2-22,5.67-25.06.12-.77-.6-1.32-1.44-2s-2-1.5-2-2.8c0-2.25,3.21-5.48,3.35-5.62l.06-.06.07,0h.08a21.1,21.1,0,0,1,7.09.28,2.5,2.5,0,0,1,1.78,1c.49.77.35,1.91,0,3.39a19.14,19.14,0,0,1-1.44,3.6c-1,2.12-1.6,3.46-.5,4.24,4.79,3.42,4.43,22.86,4.37,23.18l0,.2a.13.13,0,0,1-.12.1H28A.12.12,0,0,1,27.9,52.84Zm16.87-.31c.06-.31.39-19.6-4.27-22.93-1.26-.9-.66-2.32.42-4.56a19,19,0,0,0,1.42-3.55c.35-1.41.5-2.5.05-3.19a2.27,2.27,0,0,0-1.61-.88,20.83,20.83,0,0,0-7-.28h0l0,0c-.13.13-3.27,3.3-3.27,5.44,0,1.18,1,1.94,1.87,2.61s1.68,1.28,1.53,2.2c-.48,3-5.66,25-5.68,25.07l0,.15h16.6ZM28.5,52.34a.13.13,0,0,1,0-.1c.07-.4,5.16-21.81,5.62-24.78.17-1.06-.75-1.76-1.63-2.43s-1.78-1.35-1.78-2.41c0-1.87,2.62-4.67,3.14-5.21a.12.12,0,0,1,.07,0,21.6,21.6,0,0,1,6.83.29,2.05,2.05,0,0,1,1.45.77c.4.62.25,1.65-.08,3a18.78,18.78,0,0,1-1.4,3.5c-1,2-1.84,3.8-.34,4.87,4.1,2.92,4.39,21.22,4.2,22.47a.12.12,0,0,1-.12.11H28.59A.13.13,0,0,1,28.5,52.34ZM40.21,30c-1.66-1.19-.77-3,.27-5.19a18.51,18.51,0,0,0,1.38-3.44c.32-1.29.46-2.26.11-2.81a1.83,1.83,0,0,0-1.29-.66A21.49,21.49,0,0,0,34,17.62c-.43.44-3,3.24-3,5,0,.93.85,1.58,1.68,2.21s1.92,1.46,1.73,2.67c-.44,2.8-5.37,23.35-5.6,24.64H44.33C44.52,50.7,44.08,32.77,40.21,30Z"/><path class="cls-5" d="M39.1,11.51l0,6.09a2.46,2.46,0,0,1-2.14,1.05,2.21,2.21,0,0,1-1.6-1.05l.77-5.4Z"/><path class="cls-2" d="M36.91,18.9a2.44,2.44,0,0,1-1.8-1.18l0-.07L35.87,12l3.49-.8-.05,6.47,0,.06a2.69,2.69,0,0,1-2.21,1.18Zm1.95-7.08-2.54.58-.73,5.14a1.89,1.89,0,0,0,1.35.86,2.2,2.2,0,0,0,1.88-.88Z"/><path class="cls-3" d="M36.9,19A2.59,2.59,0,0,1,35,17.78l0-.07a.13.13,0,0,1,0-.08L35.75,12a.13.13,0,0,1,.1-.1l3.49-.8a.13.13,0,0,1,.11,0,.13.13,0,0,1,0,.1l-.05,6.47a.12.12,0,0,1,0,.06l0,.06A2.83,2.83,0,0,1,37.05,19Zm2.33-7.67L36,12.09l-.79,5.53,0,0a2.32,2.32,0,0,0,1.7,1.12,2.6,2.6,0,0,0,2.25-1.11l0,0Zm-2.3,7.18a2,2,0,0,1-1.45-.92.12.12,0,0,1,0-.09l.73-5.14a.13.13,0,0,1,.1-.1l2.54-.58a.13.13,0,0,1,.11,0,.13.13,0,0,1,0,.1l0,5.7a.12.12,0,0,1,0,.07,2.31,2.31,0,0,1-1.86.94ZM38.73,12l-2.3.52-.71,5a1.74,1.74,0,0,0,1.22.77,2,2,0,0,0,1.74-.8Z"/><path class="cls-5" d="M40.76,8.47c-.26,3.85-2,7-4.47,7s-4.1-3.15-4.47-7,2.1-5.85,4.56-5.85S41,4.24,40.76,8.47Z"/><path class="cls-2" d="M31.58,8.5A5.72,5.72,0,0,1,32.85,3.9a4.77,4.77,0,0,1,3.53-1.53,4.41,4.41,0,0,1,3.32,1.33A6.16,6.16,0,0,1,41,8.49h0c-.29,4.25-2.23,7.22-4.72,7.22S32,12.88,31.58,8.5Zm8.94,0A5.69,5.69,0,0,0,39.35,4a4,4,0,0,0-3-1.17,4.27,4.27,0,0,0-3.17,1.36,5.32,5.32,0,0,0-1.15,4.21c.32,3.37,1.75,6.76,4.22,6.76,2.18,0,4-2.84,4.22-6.75Z"/><path class="cls-3" d="M31.45,8.51a5.84,5.84,0,0,1,1.31-4.69,4.89,4.89,0,0,1,3.63-1.57A4.53,4.53,0,0,1,39.8,3.62,6.27,6.27,0,0,1,41.13,8.5c-.29,4.32-2.28,7.34-4.84,7.34S31.88,13,31.45,8.51ZM32.94,4a5.6,5.6,0,0,0-1.24,4.5c.42,4.31,2.22,7.1,4.59,7.1s4.31-2.92,4.59-7.1a6,6,0,0,0-1.27-4.69A4.29,4.29,0,0,0,36.39,2.5,4.64,4.64,0,0,0,32.94,4Zm-1,4.47a5.45,5.45,0,0,1,1.18-4.31,4.39,4.39,0,0,1,3.26-1.4A4.09,4.09,0,0,1,39.44,4a5.81,5.81,0,0,1,1.2,4.5h0c-.27,4-2.1,6.87-4.34,6.87C33.75,15.34,32.28,11.88,31.95,8.46Zm8.44,0a5.58,5.58,0,0,0-1.13-4.31A3.85,3.85,0,0,0,36.39,3a4.14,4.14,0,0,0-3.07,1.32A5.2,5.2,0,0,0,32.2,8.44c.32,3.31,1.71,6.65,4.1,6.65,2.11,0,3.84-2.79,4.1-6.64Z"/><path class="cls-4" d="M38.91.54S31.67-1,30.62,5.27c-.72,4.29-2.9,4.24-3.32,4.14s1.87,2.07,7,.15C37.37,8.41,41.61,4.48,38.91.54Z"/><path class="cls-2" d="M27.09,9.64a.29.29,0,0,1,0-.36.28.28,0,0,1,.31-.12,1.73,1.73,0,0,0,1.23-.31c.6-.4,1.4-1.35,1.78-3.63a5.68,5.68,0,0,1,2.36-3.94c2.55-1.74,6.08-1,6.23-1a.25.25,0,0,1,.15.1,4.64,4.64,0,0,1,.67,4.19C39,7,36.51,9,34.4,9.79a11.59,11.59,0,0,1-4,.81A4.67,4.67,0,0,1,27.09,9.64ZM33,1.7a5.2,5.2,0,0,0-2.15,3.61c-.33,2-1,3.3-2,4a2.45,2.45,0,0,1-.89.37c.9.42,3,.9,6.25-.32,2-.75,4.4-2.67,5.1-4.88A4.15,4.15,0,0,0,38.77.76C38.19.66,35.16.23,33,1.7Z"/><path class="cls-3" d="M27,9.71a.41.41,0,0,1-.06-.5A.4.4,0,0,1,27.39,9a1.62,1.62,0,0,0,1.14-.29c.58-.38,1.35-1.31,1.73-3.55a5.79,5.79,0,0,1,2.41-4c2.59-1.77,6.18-1,6.33-1a.37.37,0,0,1,.23.15,4.76,4.76,0,0,1,.69,4.3C39.15,7,36.58,9.1,34.44,9.91a11.79,11.79,0,0,1-4.08.82A4.73,4.73,0,0,1,27,9.71ZM32.8,1.39a5.56,5.56,0,0,0-2.3,3.85C30.1,7.57,29.28,8.55,28.66,9a1.86,1.86,0,0,1-1.33.33.16.16,0,0,0-.18.06s0,.11,0,.21a4.56,4.56,0,0,0,3.17.92,11.54,11.54,0,0,0,4-.8c2.09-.78,4.59-2.79,5.32-5.12A4.52,4.52,0,0,0,39,.47a.12.12,0,0,0-.08-.05A10,10,0,0,0,37.05.25,7.6,7.6,0,0,0,32.8,1.39ZM27.92,9.76a.12.12,0,0,1,0-.24,2.33,2.33,0,0,0,.84-.35c1-.64,1.62-1.94,1.94-3.88a5.32,5.32,0,0,1,2.2-3.69C35.13.1,38.19.54,38.79.64a.13.13,0,0,1,.08.05,4.27,4.27,0,0,1,.57,3.78c-.71,2.25-3.14,4.2-5.17,5a11.18,11.18,0,0,1-3.9.78A5.83,5.83,0,0,1,27.92,9.76Zm5.16-8A5.08,5.08,0,0,0,31,5.33c-.34,2-1,3.37-2.05,4a2.71,2.71,0,0,1-.57.29c.91.32,2.83.65,5.81-.46,2-.74,4.33-2.62,5-4.8A4,4,0,0,0,38.69.88C38,.77,35.13.41,33.08,1.8Z"/><path class="cls-2" d="M36,13.44h.19a1.79,1.79,0,0,0,1.42-1,.12.12,0,1,0-.24-.07,1.55,1.55,0,0,1-1.21.84A1.59,1.59,0,0,1,35,12.8a.12.12,0,0,0-.17.18A1.82,1.82,0,0,0,36,13.44Z"/><path class="cls-3" d="M34.76,13.07a.25.25,0,0,1,0-.35.25.25,0,0,1,.35,0,1.42,1.42,0,0,0,2.19-.42.25.25,0,1,1,.48.15,1.9,1.9,0,0,1-1.53,1.1H36A2,2,0,0,1,34.76,13.07Zm1,.21a1.75,1.75,0,0,1-.77-.35A1.71,1.71,0,0,0,35.75,13.29Zm1.42-.41a1.16,1.16,0,0,0,.35-.46A1.18,1.18,0,0,1,37.17,12.88Z"/><path class="cls-2" d="M38.9,54.92l3.27.05-.11,2.3s.05.77.66.93A1.63,1.63,0,0,1,44,60v1.26H41.46s-2.24,0-2.24-3.23A16.8,16.8,0,0,0,38.9,54.92Z"/><path class="cls-3" d="M39.09,58a16.86,16.86,0,0,0-.31-3,.12.12,0,0,1,.12-.15h0l3.27.05a.12.12,0,0,1,.09,0,.13.13,0,0,1,0,.09l-.11,2.28s.05.68.56.82A1.75,1.75,0,0,1,44.1,60v1.26a.13.13,0,0,1-.12.13H41.46S39.09,61.3,39.09,58Zm4.76,2a1.51,1.51,0,0,0-1.17-1.63c-.68-.19-.75-1-.75-1.06L42,55.1l-3-.05A17.14,17.14,0,0,1,39.34,58c0,3.06,2,3.1,2.12,3.1h2.39Z"/><rect class="cls-2" x="39.21" y="55.69" width="0.6" height="5.64"/><path class="cls-3" d="M39.09,61.33V55.69a.13.13,0,0,1,.13-.12h.6a.13.13,0,0,1,.13.13v5.64a.13.13,0,0,1-.12.13h-.6A.13.13,0,0,1,39.09,61.33Zm.6-5.51h-.35v5.39h.35Z"/><path class="cls-5" d="M41.19,17.65a2.25,2.25,0,0,0-.54,2.16,2.68,2.68,0,0,0,1.54,1.92s3.31.92,3.53,2c.19.88-4.53,6.2-4.53,6.2-.25.64.24,1.59.64,2.53s1.06.8,1.58.87A1.11,1.11,0,0,0,44.68,32c-.09-.26-1.05-.08-1.05-.08s-.64-1.7-.6-1.76c1.51-.75,5.68-4.47,5.25-7C47.65,19.6,41.19,17.65,41.19,17.65Z"/><path class="cls-2" d="M43.38,33.59l-.22,0a1.58,1.58,0,0,1-1.55-1l-.16-.37A3.38,3.38,0,0,1,41,29.84l0-.07c2.2-2.49,4.54-5.48,4.47-6-.14-.67-2.14-1.47-3.39-1.82a2.91,2.91,0,0,1-1.69-2.11,2.48,2.48,0,0,1,.63-2.4.25.25,0,0,1,.22,0c.27.08,6.62,2,7.26,5.71.45,2.57-3.59,6.21-5.21,7.12.08.26.28.81.47,1.35.49-.07,1-.06,1.13.28a1.4,1.4,0,0,1-.27,1.26,1.28,1.28,0,0,1-1,.47Zm.29-1.47a.25.25,0,0,1-.28-.16c-.68-1.83-.66-1.87-.56-2a.25.25,0,0,1,.09-.08c1.49-.73,5.52-4.36,5.11-6.68-.54-3.09-5.84-5-6.77-5.28a2.21,2.21,0,0,0-.36,1.84,2.46,2.46,0,0,0,1.36,1.72h0c.35.1,3.46,1,3.71,2.19.2.92-3.39,5.07-4.55,6.38A3.42,3.42,0,0,0,41.91,32l.16.38c.26.62.67.66,1.14.7l.25,0a.82.82,0,0,0,.81-.28.94.94,0,0,0,.2-.74A2.33,2.33,0,0,0,43.67,32.12Z"/><path class="cls-3" d="M43.37,33.71l-.22,0a1.7,1.7,0,0,1-1.66-1.08l-.16-.37a3.44,3.44,0,0,1-.48-2.44.35.35,0,0,1,.07-.11c2.67-3,4.49-5.53,4.44-5.88-.11-.53-1.77-1.29-3.31-1.73a3.05,3.05,0,0,1-1.77-2.21A2.6,2.6,0,0,1,41,17.35a.37.37,0,0,1,.34-.06c.27.08,6.69,2,7.35,5.81.44,2.52-3.37,6.13-5.18,7.2.08.25.23.67.41,1.15.66-.08,1,0,1.16.37a1.53,1.53,0,0,1-.29,1.38,1.41,1.41,0,0,1-1.12.52Zm.44-2a.12.12,0,0,1-.13-.08c-.17-.46-.39-1.06-.48-1.35a.12.12,0,0,1,.06-.15c1.73-1,5.57-4.54,5.15-7-.63-3.61-6.91-5.53-7.17-5.61a.13.13,0,0,0-.11,0,2.35,2.35,0,0,0-.59,2.28,2.79,2.79,0,0,0,1.6,2c1.13.32,3.31,1.13,3.48,1.92.08.64-2.72,4.07-4.5,6.09l0,0a3.31,3.31,0,0,0,.48,2.25l.16.37a1.46,1.46,0,0,0,1.46.93l.21,0a1.2,1.2,0,0,0,1.15-.41,1.27,1.27,0,0,0,.25-1.14c-.06-.18-.32-.23-.58-.23A3.07,3.07,0,0,0,43.8,31.72Zm-.37,1.5-.24,0A1.22,1.22,0,0,1,42,32.42l-.14-.33,0,0a3.46,3.46,0,0,1-.49-2l0,0c2.87-3.25,4.65-5.71,4.52-6.28-.19-.9-2.37-1.74-3.62-2.09h0a2.56,2.56,0,0,1-1.43-1.81,2.33,2.33,0,0,1,.39-1.94.12.12,0,0,1,.13,0c1,.35,6.31,2.23,6.86,5.37.42,2.38-3.67,6.07-5.18,6.82l0,0c-.05.07-.05.19.58,1.87a.12.12,0,0,0,.14.08,2.36,2.36,0,0,1,.85,0,.12.12,0,0,1,.09.09,1.07,1.07,0,0,1-.22.84.91.91,0,0,1-.74.33Zm.26-1a.37.37,0,0,1-.42-.24c-.71-1.89-.68-1.93-.55-2.11a.38.38,0,0,1,.14-.12c1.46-.72,5.44-4.28,5-6.55-.51-2.93-5.42-4.75-6.61-5.15A2.18,2.18,0,0,0,41,19.76a2.31,2.31,0,0,0,1.28,1.62c.61.17,3.53,1.05,3.79,2.28.2.92-2.76,4.44-4.56,6.47A3.55,3.55,0,0,0,42,31.94l0,0,.14.33c.23.55.57.58,1,.62l.25,0a.69.69,0,0,0,.69-.23.86.86,0,0,0,.18-.55A2.83,2.83,0,0,0,43.69,32.24Z"/><path class="cls-5" d="M30.85,27.13C29,29.28,26.9,31.56,26.9,31.56S24.53,30.3,24,30.76,22.93,32,22.95,32.47s.76,1,1.11,1.33c.54.45,1.3-.26,1.3-.26s-.8-.79-.33-.57a5,5,0,0,0,2.79.11c1.28-.88,4.13-2.66,5.79-5.11"/><path class="cls-2" d="M24.47,34.2a1.69,1.69,0,0,0,1.06-.48.25.25,0,0,0,0-.36h0A4.33,4.33,0,0,0,28,33.28l.45-.31a19.87,19.87,0,0,0,5.4-4.87.25.25,0,0,0-.41-.28,19.46,19.46,0,0,1-5.27,4.74l-.46.31a5,5,0,0,1-2.54-.13c-.21-.1-.36-.08-.45.06s-.08.3.3.72c-.21.14-.54.29-.77.1-.74-.62-1-1-1-1.15a3,3,0,0,1,1-1.52c.19-.18,1.42.23,2.58.84a.25.25,0,0,0,.3-.05s2.08-2.31,4-4.43a.25.25,0,0,0-.37-.33c-1.6,1.81-3.34,3.75-3.82,4.28-.83-.43-2.45-1.16-3-.68-.33.31-1.19,1.25-1.17,1.91,0,.35.42.85,1.2,1.51A.87.87,0,0,0,24.47,34.2Z"/><path class="cls-3" d="M23.81,34.09c-.82-.69-1.22-1.21-1.24-1.6,0-.86,1.19-2,1.21-2,.53-.49,1.92.05,3,.61.36-.4,2.1-2.34,3.75-4.21a.38.38,0,0,1,.53,0,.37.37,0,0,1,.13.26.38.38,0,0,1-.09.27c-1.64,1.86-3.42,3.84-3.93,4.41l0,0a.37.37,0,0,1-.45.08A5.79,5.79,0,0,0,24.29,31a3,3,0,0,0-1,1.42c0,.06.2.41,1,1.06.13.11.33.05.49,0-.27-.3-.37-.53-.21-.76s.25-.26.61-.1a5.06,5.06,0,0,0,2.42.14l.46-.31a19.35,19.35,0,0,0,5.23-4.7.37.37,0,0,1,.68.14.37.37,0,0,1-.06.28,20,20,0,0,1-5.44,4.9l-.45.31a4.06,4.06,0,0,1-2.3.14v0a.37.37,0,0,1-.12.27,1.81,1.81,0,0,1-1.14.51A1,1,0,0,1,23.81,34.09Zm1.63-.64a.13.13,0,0,1,0-.15.12.12,0,0,1,.13-.06,4.25,4.25,0,0,0,2.33-.06l.46-.31A19.75,19.75,0,0,0,33.71,28a.12.12,0,0,0,0-.09.12.12,0,0,0-.22,0,19.56,19.56,0,0,1-5.3,4.77l-.46.31a5,5,0,0,1-2.67-.12c-.22-.1-.28,0-.3,0s-.1.14.29.56a.13.13,0,0,1,0,.19c-.37.24-.69.27-.92.09-.64-.54-1.05-1-1.06-1.24,0-.44.6-1.21,1-1.62s2,.43,2.72.82a.12.12,0,0,0,.15,0l0,0c.51-.56,2.29-2.55,3.93-4.4a.12.12,0,0,0-.19-.16c-1.82,2.06-3.74,4.19-3.82,4.28a.12.12,0,0,1-.15,0c-1.44-.74-2.5-1-2.83-.7s-1.15,1.26-1.12,1.81c0,.21.22.63,1.15,1.42a.75.75,0,0,0,.49.18,1.56,1.56,0,0,0,1-.45.12.12,0,0,0,0-.17Z"/><path class="cls-2" d="M37.42,8.78a.49.49,0,1,0,.95.19.49.49,0,0,0,0-.19Z"/><path class="cls-3" d="M37.26,9a.63.63,0,0,1,0-.24.13.13,0,0,1,.12-.08h.91a.13.13,0,0,1,.12.08.61.61,0,0,1,0,.24.62.62,0,1,1-1.24,0Zm.26-.07a.37.37,0,1,0,.73.07.37.37,0,0,0,0-.07Z"/><rect class="cls-7" x="19.95" y="49.69" width="1.74" height="10.32"/><path class="cls-2" d="M20.2,49.94h1.24v9.82H20.2V49.94m-.5-.5V60.26h2.24V49.44H19.7Z"/><path class="cls-3" d="M19.58,60.26V49.44a.13.13,0,0,1,.13-.12h2.24a.13.13,0,0,1,.13.13V60.26a.13.13,0,0,1-.12.13H19.7A.13.13,0,0,1,19.58,60.26Zm2.24-10.69h-2V60.13h2ZM20.08,59.76V49.94a.13.13,0,0,1,.13-.12h1.24a.13.13,0,0,1,.13.13v9.82a.13.13,0,0,1-.12.13H20.2A.13.13,0,0,1,20.08,59.76Zm1.24-9.7h-1v9.57h1Z"/><polygon class="cls-7" points="26.59 33.48 22.48 33.48 21.77 38.29 23.16 38.29 23.61 34.91 26.59 34.91 26.59 33.48"/><path class="cls-2" d="M22.27,33.23h4.57v1.93h-3l-.45,3.38h-1.9Zm1.13,1.43h2.95v-.94H22.7L22.06,38h.89Z"/><path class="cls-3" d="M21.39,38.62a.13.13,0,0,1,0-.1l.79-5.31a.12.12,0,0,1,.12-.11h4.57a.13.13,0,0,1,.13.13v1.93a.13.13,0,0,1-.12.13h-2.9l-.44,3.27a.12.12,0,0,1-.12.11h-1.9A.12.12,0,0,1,21.39,38.62Zm2.32-3.48a.13.13,0,0,1,.12-.11h2.89V33.35H22.38l-.75,5.06h1.65Zm-1.75,3a.13.13,0,0,1,0-.1l.64-4.32a.12.12,0,0,1,.12-.11h3.65a.13.13,0,0,1,.13.13v.94a.13.13,0,0,1-.12.13H23.51l-.44,3.27a.13.13,0,0,1-.12.11h-.89A.12.12,0,0,1,22,38.12Zm1.31-3.48a.13.13,0,0,1,.12-.11h2.82v-.69H22.81l-.6,4.07h.64Z"/><path class="cls-7" d="M4.12,50.89a1.92,1.92,0,0,1-1.9-1.68L.88,38.48h22.7L22.25,49.2a1.92,1.92,0,0,1-1.9,1.68Zm15.81-10L19,48.66a.74.74,0,0,0,.65.81h.09a.73.73,0,0,0,.73-.65l.9-7.82a.74.74,0,0,0-.65-.81h-.09A.73.73,0,0,0,19.92,40.84Zm-8.37,0v7.87a.73.73,0,0,0,1.47,0V40.85a.73.73,0,0,0-1.47,0Zm5-.72a.74.74,0,0,0-.73.68l-.57,7.85a.73.73,0,0,0,.68.79h.05a.74.74,0,0,0,.73-.68l.57-7.85a.73.73,0,0,0-.68-.79Zm-12.62,0a.74.74,0,0,0-.65.81l.9,7.82a.73.73,0,0,0,.73.65h.09a.74.74,0,0,0,.65-.81l-.9-7.82A.73.73,0,0,0,4,40.14Zm4.18-.07a.74.74,0,0,0-.68.79l.57,7.85a.74.74,0,0,0,.73.68h.05a.73.73,0,0,0,.68-.79l-.57-7.85a.74.74,0,0,0-.73-.68Z"/><path class="cls-2" d="M1.16,38.73H23.3L22,49.17a1.67,1.67,0,0,1-1.66,1.46H4.12a1.67,1.67,0,0,1-1.66-1.46L1.16,38.73M8.68,49.64h.07a1,1,0,0,0,.91-1.05l-.57-7.85a1,1,0,0,0-1-.91H8a1,1,0,0,0-.91,1.05l.57,7.85a1,1,0,0,0,1,.91m3.6.06a1,1,0,0,0,1-1V40.85a1,1,0,0,0-2,0v7.87a1,1,0,0,0,1,1m3.65,0a1,1,0,0,0,1-.91l.57-7.85a1,1,0,0,0-.91-1.05H16.5a1,1,0,0,0-1,.91L15,48.64a1,1,0,0,0,.91,1.05h.07m-11.08,0H5a1,1,0,0,0,.86-1.09l-.9-7.82a1,1,0,0,0-1-.87H3.85A1,1,0,0,0,3,41l.9,7.82a1,1,0,0,0,1,.87m14.89,0a1,1,0,0,0,1-.87l.9-7.82a1,1,0,0,0-.86-1.09h-.11a1,1,0,0,0-1,.87l-.9,7.82a1,1,0,0,0,.86,1.09h.11M.6,38.24l.07.56L2,49.23a2.17,2.17,0,0,0,2.15,1.9H20.35a2.17,2.17,0,0,0,2.15-1.9L23.8,38.79l.07-.56H.6ZM8.68,49.15a.49.49,0,0,1-.48-.45l-.57-7.85a.49.49,0,0,1,.45-.52h0a.49.49,0,0,1,.48.45l.57,7.85a.49.49,0,0,1-.45.52Zm3.6.06a.49.49,0,0,1-.49-.49V40.85a.49.49,0,0,1,1,0v7.87a.49.49,0,0,1-.49.49Zm3.65,0h0a.49.49,0,0,1-.45-.52L16,40.82a.49.49,0,0,1,.48-.45h0a.49.49,0,0,1,.45.52l-.57,7.85a.49.49,0,0,1-.48.45Zm-11.08,0a.49.49,0,0,1-.48-.43l-.9-7.82a.49.49,0,0,1,.43-.54H4a.49.49,0,0,1,.48.43l.9,7.82a.49.49,0,0,1-.43.54Zm14.89,0H19.7a.49.49,0,0,1-.43-.54l.9-7.82a.49.49,0,0,1,.48-.43h.06a.49.49,0,0,1,.43.54l-.9,7.82a.49.49,0,0,1-.48.43Z"/><path class="cls-3" d="M1.84,49.25l-1.36-11a.13.13,0,0,1,0-.1.13.13,0,0,1,.09,0H23.86a.13.13,0,0,1,.09,0,.13.13,0,0,1,0,.1l-1.36,11a2.3,2.3,0,0,1-2.28,2H4.12A2.3,2.3,0,0,1,1.84,49.25ZM.74,38.36,2.09,49.22a2,2,0,0,0,2,1.79H20.35a2,2,0,0,0,2-1.79l1.35-10.86ZM2.33,49.19,1,38.75a.12.12,0,0,1,.12-.14H23.3a.12.12,0,0,1,.12.14L22.13,49.19a1.8,1.8,0,0,1-1.78,1.57H4.12A1.8,1.8,0,0,1,2.33,49.19Zm-1-10.33,1.28,10.3a1.55,1.55,0,0,0,1.53,1.35H20.35a1.55,1.55,0,0,0,1.53-1.35l1.28-10.3Zm18.32,11a1.11,1.11,0,0,1-1-1.23l.9-7.82a1.11,1.11,0,0,1,2.2.25l-.9,7.82a1.11,1.11,0,0,1-1.1,1Zm.17-9-.9,7.82a.86.86,0,0,0,1.71.2L21.5,41a.86.86,0,0,0-.75-1h-.1A.86.86,0,0,0,19.8,40.83Zm-8.63,7.89V40.85a1.11,1.11,0,0,1,2.22,0v7.87a1.11,1.11,0,1,1-2.22,0Zm.25-7.87v7.87a.86.86,0,1,0,1.72,0V40.85a.86.86,0,0,0-1.72,0Zm4.43,9a1.11,1.11,0,0,1-1-1.19l.57-7.85a1.11,1.11,0,0,1,1.1-1h.08a1.11,1.11,0,0,1,1,1.19L17,48.79a1.11,1.11,0,0,1-1.1,1Zm-.21-9-.57,7.85a.86.86,0,0,0,1.71.12l.57-7.85a.86.86,0,0,0-.79-.92H16.5A.86.86,0,0,0,15.64,40.8Zm-11.88,8L2.86,41a1.11,1.11,0,0,1,2.2-.25L6,48.57a1.11,1.11,0,0,1-1,1.23H4.86A1.11,1.11,0,0,1,3.76,48.82Zm.1-8.8a.86.86,0,0,0-.75,1L4,48.79a.85.85,0,0,0,1,.75.86.86,0,0,0,.76-1l-.9-7.82A.86.86,0,0,0,4,40Zm3.71,8.72L7,40.89a1.11,1.11,0,1,1,2.21-.16l.57,7.85a1.11,1.11,0,0,1-1,1.19H8.68A1.11,1.11,0,0,1,7.57,48.74ZM8,40a.86.86,0,0,0-.79.92l.57,7.85a.86.86,0,0,0,.85.8h.06a.86.86,0,0,0,.79-.92L9,40.75a.86.86,0,0,0-.86-.8Zm11.63,9.4a.61.61,0,0,1-.54-.68l.9-7.82a.6.6,0,0,1,.68-.54.61.61,0,0,1,.54.68l-.9,7.82a.61.61,0,0,1-.61.54Zm.61-8.47-.9,7.82a.36.36,0,0,0,.32.4.37.37,0,0,0,.4-.32L21,41a.36.36,0,0,0-.32-.4h0A.36.36,0,0,0,20.29,40.88Zm-8.62,7.84V40.85a.61.61,0,1,1,1.22,0v7.87a.61.61,0,1,1-1.22,0Zm.25-7.87v7.87a.36.36,0,1,0,.72,0V40.85a.36.36,0,1,0-.72,0Zm4,8.47a.61.61,0,0,1-.56-.65l.57-7.85a.61.61,0,1,1,1.22.09l-.57,7.85a.61.61,0,0,1-.61.57Zm.25-8.49-.57,7.85a.36.36,0,0,0,.33.39h0a.36.36,0,0,0,.36-.33l.57-7.85a.36.36,0,0,0-.09-.26.37.37,0,0,0-.27-.12A.36.36,0,0,0,16.14,40.83ZM4.25,48.76l-.9-7.82a.61.61,0,1,1,1.21-.14l.9,7.82a.61.61,0,0,1-.54.68H4.86A.61.61,0,0,1,4.25,48.76Zm-.33-8.25a.36.36,0,0,0-.24.13.36.36,0,0,0-.08.27l.9,7.82a.35.35,0,0,0,.4.32.36.36,0,0,0,.32-.4l-.9-7.82A.36.36,0,0,0,4,40.51ZM8.07,48.7,7.5,40.85a.61.61,0,1,1,1.22-.09l.57,7.85a.61.61,0,0,1-.15.44.62.62,0,0,1-.43.21h0A.61.61,0,0,1,8.07,48.7Zm0-8.25a.36.36,0,0,0-.33.39l.57,7.85a.36.36,0,0,0,.36.33v.13l0-.13A.36.36,0,0,0,9,48.63l-.57-7.85a.37.37,0,0,0-.38-.33Z"/><path class="cls-8" d="M26.12,35.47a1.26,1.26,0,0,0,1.26-1.26v-.11a1.26,1.26,0,0,0-1.26-1.26H24.54a.25.25,0,0,0-.25.25v2.14a.25.25,0,0,0,.25.25Z"/><path class="cls-2" d="M24.54,33.08h1.57a1,1,0,0,1,1,1v.11a1,1,0,0,1-1,1H24.54V33.08m0-.5a.5.5,0,0,0-.5.5v2.14a.5.5,0,0,0,.5.5h1.57a1.51,1.51,0,0,0,1.51-1.51v-.11a1.51,1.51,0,0,0-1.51-1.51Z"/><path class="cls-3" d="M23.92,35.22V33.08a.62.62,0,0,1,.62-.62h1.57a1.64,1.64,0,0,1,1.63,1.63v.11a1.64,1.64,0,0,1-1.63,1.63H24.54A.62.62,0,0,1,23.92,35.22Zm.62-2.51a.37.37,0,0,0-.37.37v2.14a.37.37,0,0,0,.37.37h1.57a1.39,1.39,0,0,0,1.38-1.38v-.11a1.39,1.39,0,0,0-1.38-1.38Zm-.12,2.51V33.08a.13.13,0,0,1,.13-.12h1.57a1.14,1.14,0,0,1,1.14,1.14v.11a1.14,1.14,0,0,1-1.14,1.14H24.54A.13.13,0,0,1,24.42,35.22Zm.25-2v1.89h1.45a.89.89,0,0,0,.89-.89v-.11a.89.89,0,0,0-.89-.89Z"/><path class="cls-9" d="M1.38,40.48H3.06a1,1,0,0,1,1.79,0H7.19a1,1,0,0,1,1.85,0h2.34a1,1,0,0,1,1.82,0h2.4a1,1,0,0,1,1.81,0h2.37a1,1,0,0,1,1.75,0h1.56l.22-1.75H1.16Z"/><path class="cls-8" d="M23.2,39.65a.74.74,0,1,0,0-1.48H1.11a.74.74,0,1,0,0,1.48Z"/><path class="cls-2" d="M1.11,38.41H23.2a.49.49,0,1,1,0,1H1.11a.49.49,0,1,1,0-1m0-.5a1,1,0,1,0,0,2H23.2a1,1,0,1,0,0-2Z"/><path class="cls-3" d="M0,38.91a1.12,1.12,0,0,1,1.11-1.11H23.2a1.11,1.11,0,1,1,0,2.23H1.11A1.12,1.12,0,0,1,0,38.91ZM1.11,38a.86.86,0,1,0,0,1.73H23.2a.86.86,0,1,0,0-1.73Zm-.62.86a.62.62,0,0,1,.62-.62H23.2a.62.62,0,1,1,0,1.23H1.11A.62.62,0,0,1,.5,38.91Zm.62-.37a.37.37,0,0,0,0,.73H23.2a.37.37,0,0,0,0-.73Z"/><rect class="cls-7" x="7.38" y="58.4" width="14.49" height="1.59"/><path class="cls-2" d="M7.63,58.65h14v1.1h-14v-1.1m-.5-.5v2.09h15V58.15h-15Z"/><path class="cls-3" d="M7,60.24V58.15A.13.13,0,0,1,7.13,58h15a.13.13,0,0,1,.13.13v2.09a.13.13,0,0,1-.12.13h-15A.13.13,0,0,1,7,60.24Zm15-2H7.26v1.84H22ZM7.51,59.74v-1.1a.13.13,0,0,1,.13-.12h14a.13.13,0,0,1,.13.13v1.1a.13.13,0,0,1-.12.13h-14A.13.13,0,0,1,7.51,59.74Zm14-1H7.76v.85H21.5Z"/><circle class="cls-2" cx="8.05" cy="59.36" r="1.9"/><path class="cls-3" d="M6,59.36a2,2,0,1,1,2,2A2,2,0,0,1,6,59.36Zm.25,0a1.77,1.77,0,1,0,1.77-1.77A1.77,1.77,0,0,0,6.28,59.36Z"/><circle class="cls-2" cx="8.04" cy="59.36" r="1.08"/><path class="cls-3" d="M6.83,59.36A1.21,1.21,0,1,1,8,60.57,1.21,1.21,0,0,1,6.83,59.36Zm.25,0a1,1,0,1,0,1-1A1,1,0,0,0,7.08,59.36Z"/><circle class="cls-2" cx="20.7" cy="59.36" r="1.9"/><path class="cls-3" d="M18.68,59.36a2,2,0,1,1,2,2A2,2,0,0,1,18.68,59.36Zm.25,0a1.77,1.77,0,1,0,1.77-1.77A1.77,1.77,0,0,0,18.93,59.36Z"/><circle class="cls-2" cx="20.73" cy="59.39" r="1.08"/><path class="cls-3" d="M19.52,59.39a1.21,1.21,0,1,1,1.21,1.21A1.21,1.21,0,0,1,19.52,59.39Zm.25,0a1,1,0,1,0,1-1A1,1,0,0,0,19.77,59.39Z"/></svg>