<svg id="Layer_1" data-name="Layer 1" xmlns="http://www.w3.org/2000/svg" viewBox="0 0 63.2 52.18"><defs><style>.cls-1{fill:#f4cfb3;}.cls-2{fill:#414042;}.cls-3{fill:#f6d056;}.cls-4,.cls-7{fill:none;stroke:#414042;stroke-miterlimit:10;stroke-width:0.5px;}.cls-5{fill:#8dc63f;}.cls-6{fill:#45a5da;}.cls-7{stroke-linecap:round;}.cls-8{fill:#f15f2e;}.cls-9{fill:#fff;}.cls-10{fill:#a67c52;}</style></defs><title>Other family members-18_v2</title><path class="cls-1" d="M46.74,31.09c1.09.32,3.21.53,3.47,3,.09.94-.27,1.91-1.28,1.38a11,11,0,0,1-2.39-2.25S45.21,30.64,46.74,31.09Z"/><path class="cls-2" d="M46.31,33.11c-.23-.48-.7-1.61-.31-2.07.17-.2.46-.22.83-.13l.43.12c1.17.29,2.93.74,3.18,3a1.73,1.73,0,0,1-.5,1.61,1,1,0,0,1-1.12,0,11,11,0,0,1-2.43-2.34ZM49.77,33a3.5,3.5,0,0,0-2.61-1.66l-.45-.12h0c-.13,0-.35-.09-.43,0s.14,1.22.44,1.81a10.64,10.64,0,0,0,2.33,2.21.65.65,0,0,0,.68.06,1.61,1.61,0,0,0,.32-1.26A3.18,3.18,0,0,0,49.74,33Z"/><path class="cls-3" d="M42.74,18.13s.32-2.83,2.2-3c2.78-.19,1.32,8.38,1.32,8.38S47.83,30,48.4,31.21a11,11,0,0,1-2.72,1.29L43,26a11.46,11.46,0,0,1-.57-5.28Z"/><path class="cls-4" d="M42.74,18.13s.32-2.83,2.2-3c2.78-.19,1.32,8.38,1.32,8.38S47.83,30,48.4,31.21a11,11,0,0,1-2.72,1.29L43,26a11.46,11.46,0,0,1-.57-5.28Z"/><path class="cls-5" d="M32.3,15.08c2.26.26,5.7-.81,7.38-.16,1.37.46,3.22,0,4.52.61l.07,0-1.5,4.23c-1.09-.12-3.32.22-6.36,0a21.35,21.35,0,0,1-4.72-.21L27.87,15S27.4,14.89,32.3,15.08Z"/><path class="cls-4" d="M32,15c2.88-.08,5.47-.18,7.64-.06,1.37.46,3.22,0,4.52.61l.07,0-1.5,4.23c-1.18-.18-3.32.22-6.36,0a19.22,19.22,0,0,1-4.72-.21L25.51,15S27.43,15.06,32,15Z"/><path class="cls-2" d="M33.37,45.52l-2.48,2.16L32,49l.57-.49a1.19,1.19,0,0,0,.09,1.21l2,2.28s1-.72.71-1.38-1.37-2-.66-3.27l.71-1.22Z"/><path class="cls-2" d="M34.61,52.18,32.55,49.8a1.11,1.11,0,0,1-.25-.91l-.31.27-1.32-1.5,2.65-2.3,2.27.68-.79,1.38c-.54.94,0,2,.44,2.71a4.44,4.44,0,0,1,.22.43c.34.75-.71,1.52-.76,1.55ZM33,47.9l-.33.64a1.06,1.06,0,0,0,.06,1.08l1.92,2.19c.23-.19.76-.69.57-1.13,0-.11-.13-.25-.21-.41-.42-.76-1.06-1.92-.44-3l.62-1.07-1.78-.53-2.32,2L32,48.75Z"/><path class="cls-2" d="M45.27,48.41v3.37H47V51a1.22,1.22,0,0,0,1,.77h3.09s.13-1.26-.58-1.47-2.5-.33-3-1.7l-.47-1.37Z"/><path class="cls-2" d="M51.11,52H48a1.16,1.16,0,0,1-.8-.32v.1A.21.21,0,0,1,47,52H45.26a.21.21,0,0,1-.21-.21V48.41a.21.21,0,0,1,.1-.18L47,47.08a.21.21,0,0,1,.29.05l0,.06.47,1.37c.34,1,1.54,1.27,2.34,1.44l.49.12c.86.26.74,1.64.73,1.7A.21.21,0,0,1,51.11,52ZM47,50.79a.21.21,0,0,1,.2.14s.26.63.81.64H50.9c0-.32,0-.94-.44-1.06L50,50.4c-.83-.18-2.23-.48-2.65-1.72L47,47.57l-1.5.94v3h1.33V51a.21.21,0,0,1,.17-.21Z"/><path class="cls-6" d="M45.26,30.08s.72,1.44,1.2,5.75c.7,6.28,1.58,13,1.58,13l-3.18.34A46,46,0,0,0,40,33.28C36.67,26.75,45.26,30.08,45.26,30.08Z"/><path class="cls-2" d="M44.86,49.39a.22.22,0,0,1-.22-.2,46.29,46.29,0,0,0-4.87-15.8q-1.32-2.64-.36-3.73c1.38-1.52,5.74.15,5.93.22a.22.22,0,0,1,.12.1,21.14,21.14,0,0,1,1.22,5.82c.69,6.2,1.57,12.93,1.57,13a.22.22,0,0,1-.19.24l-3.18.34ZM41.33,29.45a2.13,2.13,0,0,0-1.59.49c-.51.57-.37,1.66.42,3.24a47.71,47.71,0,0,1,4.9,15.75l2.74-.29c-.16-1.21-.93-7.21-1.55-12.79a21.62,21.62,0,0,0-1.15-5.6A12.31,12.31,0,0,0,41.33,29.45Z"/><path class="cls-6" d="M41.76,29.59s0,8.11-.85,10.3c-1.12,3-5.88,7.68-5.88,7.68l-1.91-2.36A13.78,13.78,0,0,0,36.5,38.1c.19-2-1-4.82-1.1-6.21C35.09,24.59,41.76,29.59,41.76,29.59Z"/><path class="cls-2" d="M35,47.79h0a.22.22,0,0,1-.16-.08L33,45.35a.22.22,0,0,1,0-.28,13.66,13.66,0,0,0,3.32-7,12.45,12.45,0,0,0-.62-3.91,12.25,12.25,0,0,1-.47-2.26c-.09-2.08.38-3.4,1.38-3.94,2-1,5.18,1.35,5.32,1.45a.22.22,0,0,1,.09.17c0,.33,0,8.18-.86,10.37C40,43,35.4,47.52,35.2,47.71A.22.22,0,0,1,35,47.79Zm-1.62-2.57,1.64,2c.85-.86,4.69-4.84,5.66-7.44.74-2,.83-9.13.83-10.11-.52-.37-3.21-2.18-4.77-1.35-.85.45-1.24,1.64-1.15,3.53A12.25,12.25,0,0,0,36.08,34a12.71,12.71,0,0,1,.64,4.07,13.72,13.72,0,0,1-3.31,7.15Z"/><path class="cls-3" d="M35.48,32.48a.22.22,0,0,1-.21-.16s-1-3.65-2.34-14.45A2.53,2.53,0,0,1,34.67,15a20.48,20.48,0,0,1,5.59-.68,29.06,29.06,0,0,1,3.58.21A2.77,2.77,0,0,1,46,15.77c1.38,2.12.18,6.15,0,6.59V32a.22.22,0,0,1-.21.22Z"/><path class="cls-2" d="M40.3,14.55a28.56,28.56,0,0,1,3.55.21c4.31.44,2,7.59,2,7.59V32l-10.34.29s-1-3.51-2.33-14.42a2.32,2.32,0,0,1,1.62-2.63,20.66,20.66,0,0,1,5.53-.67m0-.43a20.7,20.7,0,0,0-5.66.68,2.74,2.74,0,0,0-1.93,3.1C34,28.72,35,32.24,35.08,32.39a.43.43,0,0,0,.42.31h0l10.34-.29a.43.43,0,0,0,.42-.43V22.42c.18-.58,1.33-4.59-.08-6.74a3,3,0,0,0-2.31-1.34,28.87,28.87,0,0,0-3.6-.21Z"/><path class="cls-3" d="M42.91,14.76h.93c4.31.44,2,7.59,2,7.59V32L43,32l.85-9.65S45.67,16.29,42.91,14.76Z"/><path class="cls-1" d="M40.61,30c1.14,0,3.22-.49,4.23,1.76.38.87.33,1.9-.79,1.71a11,11,0,0,1-3-1.4S39,30,40.61,30Z"/><path class="cls-2" d="M40.83,32c-.37-.38-1.17-1.32-.94-1.87.1-.25.37-.35.75-.38l.45,0c1.2-.08,3-.21,4,1.9a1.73,1.73,0,0,1,0,1.68,1,1,0,0,1-1.07.33,11,11,0,0,1-3-1.48ZM44.1,30.9a3.5,3.5,0,0,0-3-.77l-.46,0h0c-.13,0-.36,0-.4.15-.11.3.51,1.12,1,1.58a10.64,10.64,0,0,0,2.9,1.38.65.65,0,0,0,.67-.15,1.61,1.61,0,0,0-.09-1.3,3.18,3.18,0,0,0-.64-.9Z"/><path class="cls-3" d="M32.79,18.89S32.21,16.11,34,15.4c2.59-1,3.85,7.56,3.85,7.56s3.5,5.67,4.41,6.61A11,11,0,0,1,40,31.64l-4.59-5.37a11.46,11.46,0,0,1-2.17-4.84Z"/><path class="cls-4" d="M32.79,18.89S32.21,16.11,34,15.4c2.59-1,3.85,7.56,3.85,7.56s3.5,5.67,4.41,6.61A11,11,0,0,1,40,31.64l-4.59-5.37a11.46,11.46,0,0,1-2.17-4.84Z"/><line class="cls-7" x1="41.3" y1="15.84" x2="41.58" y2="21.63"/><path class="cls-2" d="M16.91,45.16l-2.75,1.75,1,1.41.62-.41a1.18,1.18,0,0,0-.13,1.25l1.64,2.5s1.08-.57.88-1.26S17.1,48.16,18,47.09L18.82,46Z"/><path class="cls-2" d="M32.44,48.28v3.33h1.72v-.75a1.21,1.21,0,0,0,1,.76h3.06s.12-1.25-.57-1.46-2.49-.3-2.93-1.66l-.46-1.34Z"/><path class="cls-8" d="M28.59,29.84s1.77,1.51,3.82,6.07A39.91,39.91,0,0,1,35.23,48.7L32.09,49a27.41,27.41,0,0,0-6.85-15C20.23,28.81,28.59,29.84,28.59,29.84Z"/><path class="cls-4" d="M28.59,29.84s1.77,1.51,3.82,6.07A39.91,39.91,0,0,1,35.23,48.7L32.09,49a27.41,27.41,0,0,0-6.85-15C20.23,28.81,28.59,29.84,28.59,29.84Z"/><path class="cls-8" d="M27,29.67a27.51,27.51,0,0,1-1.45,8.14c-1.91,6-7.68,9.69-7.68,9.69l-1.38-2.33S21.6,40.85,21.35,32C21.14,24.72,27,29.67,27,29.67Z"/><path class="cls-4" d="M27,29.67a27.51,27.51,0,0,1-1.45,8.14c-1.91,6-7.68,9.69-7.68,9.69l-1.38-2.33S21.6,40.85,21.35,32C21.14,24.72,27,29.67,27,29.67Z"/><path class="cls-5" d="M30.34,32.1a.26.26,0,0,0,.25-.24l.88-9c.13-.41,1.34-4.44,0-6.57A2.79,2.79,0,0,0,29.3,15H21.81c-.09,0-2,.08-2.71,1a1.2,1.2,0,0,0-.2,1c2.54,10.46,2.55,15,2.55,15a.26.26,0,0,0,.26.26h0Z"/><path class="cls-4" d="M30.34,32.1a.26.26,0,0,0,.25-.24l.88-9c.13-.41,1.34-4.44,0-6.57A2.79,2.79,0,0,0,29.3,15H21.81c-.09,0-2,.08-2.71,1a1.2,1.2,0,0,0-.2,1c2.54,10.46,2.55,15,2.55,15a.26.26,0,0,0,.26.26h0Z"/><path class="cls-9" d="M24.23,15.4s.78,13.38.85,15.54h2.71l.65-15.44S25,15,24.23,15.4Z"/><path class="cls-4" d="M24.23,15.4s.78,13.38.85,15.54h2.71l.65-15.44S25,15,24.23,15.4Z"/><polygon class="cls-3" points="21.34 32.35 30.63 32.35 30.63 30.77 21.36 30.76 21.34 32.35"/><polygon class="cls-4" points="21.34 32.35 30.63 32.35 30.63 30.77 21.36 30.76 21.34 32.35"/><path class="cls-10" d="M24.23,10V15.4a4.28,4.28,0,0,0,2.64.77,1.93,1.93,0,0,0,1.57-.67V10.41Z"/><path class="cls-4" d="M24.23,10V15.4a4.28,4.28,0,0,0,2.64.77,1.93,1.93,0,0,0,1.57-.67V10.41Z"/><path class="cls-10" d="M31.69,6.31s.92,7.73-3,8.06a4.89,4.89,0,0,1-4.25-3.31s-.67.21-1.19-.65-1.42-2.81.21-2.54C23.29,5.69,24,3.42,26.25,3S31.17,4,31.69,6.31Z"/><path class="cls-4" d="M31.69,6.31s.92,7.73-3,8.06a4.89,4.89,0,0,1-4.25-3.31s-.67.21-1.19-.65-1.42-2.81.21-2.54C23.29,5.69,24,3.42,26.25,3S31.17,4,31.69,6.31Z"/><path class="cls-2" d="M31.6,3.77l.62-.66a3.91,3.91,0,0,0-2.15-1.69L30.36,1A5.39,5.39,0,0,0,27.57.71l.22-.55a5.83,5.83,0,0,0-4.21,1h0C20.65,2.47,21.51,6.68,22,7.48c.19.33,1,1.38,1.42,1.93a.19.19,0,0,0,.32-.14V5.73c0-1.05.69-1.5,2.07-.78,1.12.6,2.2.87,4.62.68a3.7,3.7,0,0,0,1.86-.89S32,4.29,31.6,3.77Z"/><path class="cls-2" d="M30.62,8.6A.43.43,0,1,1,31,8.17a.43.43,0,0,1-.43.43Z"/><path class="cls-2" d="M27.06,8.68a.43.43,0,1,1,.43-.43.43.43,0,0,1-.43.43Z"/><path class="cls-2" d="M27.65,11.47c0,.39.47.67,1.15.67s1.15-.27,1.15-.67a.32.32,0,0,0-.63-.08,1.33,1.33,0,0,1-1,0,.32.32,0,0,0-.63.08Zm0,0"/><line class="cls-4" x1="25.07" y1="30.81" x2="25.07" y2="32.38"/><line class="cls-4" x1="27.85" y1="30.81" x2="27.85" y2="32.38"/><path class="cls-10" d="M15.86,29.73c.69.91,2.26,2.34,1,4.47-.49.81-1.36,1.37-1.85.34a11,11,0,0,1-.57-3.23S14.9,28.46,15.86,29.73Z"/><path class="cls-2" d="M14.3,31.09c.1-.52.4-1.71,1-1.84.26-.06.5.1.75.39l.28.35c.76.94,1.91,2.35.73,4.33a1.73,1.73,0,0,1-1.36,1,1,1,0,0,1-.88-.68,11,11,0,0,1-.54-3.33Zm2.81,2A3.5,3.5,0,0,0,16,30.22l-.28-.36h0c-.08-.11-.23-.28-.35-.24-.31.08-.62,1.06-.73,1.71a10.64,10.64,0,0,0,.54,3.17c.14.29.31.45.51.46a1.61,1.61,0,0,0,1-.82,3.18,3.18,0,0,0,.37-1Z"/><path class="cls-5" d="M18.39,16.44s1.95-2.08,3.53-1.05c2.34,1.51-4,7.5-4,7.5s-.61,6.63-.86,7.92a11,11,0,0,1-3-.59l-.26-7.35a11.46,11.46,0,0,1,2.7-4.57Z"/><path class="cls-4" d="M18.39,16.44s1.95-2.08,3.53-1.05c2.34,1.51-4,7.5-4,7.5s-.61,6.63-.86,7.92a11,11,0,0,1-3-.59l-.26-7.35a11.46,11.46,0,0,1,2.7-4.57Z"/><path class="cls-10" d="M43.34,13.79c.93.16,2.68.14,3.12,2.13.17.77,0,1.59-.92,1.25a9.05,9.05,0,0,1-2.17-1.62S42,13.57,43.34,13.79Z"/><path class="cls-4" d="M43.34,13.79c.93.16,2.68.14,3.12,2.13.17.77,0,1.59-.92,1.25a9.05,9.05,0,0,1-2.17-1.62S42,13.57,43.34,13.79Z"/><path class="cls-1" d="M38.8,9.34v5.5a4.33,4.33,0,0,0,2.67.78A2,2,0,0,0,43,15V9.86Z"/><path class="cls-2" d="M41.3,15.84A4.49,4.49,0,0,1,38.67,15l-.08-.06V9.1l4.61.53v5.46a2.15,2.15,0,0,1-1.72.75ZM39,14.73a4.21,4.21,0,0,0,2.45.67,1.89,1.89,0,0,0,1.34-.51V10l-3.75-.43Z"/><path class="cls-1" d="M37.39,7.19c.29,0,.79.64,1.15,1.13-.17-1.64-.37-3.69-.37-3.69a18.62,18.62,0,0,1,4.2-1.31,17.55,17.55,0,0,1,3.94,1.31V8.41s.06,5.37-3.27,5.37a5.28,5.28,0,0,1-4.3-3.49.94.94,0,0,1-1-.54C36.89,8.2,36.81,7.15,37.39,7.19Z"/><path class="cls-2" d="M43.06,14a5.48,5.48,0,0,1-4.39-3.48,1.18,1.18,0,0,1-1-.66C37,8.65,36.73,7.66,37,7.22A.52.52,0,0,1,37.41,7h0c.16,0,.39.1.84.62l-.3-2.94V4.52l.15-.06A18.5,18.5,0,0,1,42.36,3.1h0a17.28,17.28,0,0,1,4,1.33l.13.06V8.4c0,.13,0,3.24-1.49,4.77A2.71,2.71,0,0,1,43.06,14ZM38.9,10.05l.06.16a5,5,0,0,0,4.1,3.36,2.29,2.29,0,0,0,1.68-.69c1.38-1.4,1.37-4.43,1.37-4.46V4.78a16.1,16.1,0,0,0-3.74-1.24h0a17.18,17.18,0,0,0-4,1.24c0,.51.21,2.16.36,3.53l.08.8-.47-.65c-.74-1-1-1-1-1h-.1c-.12.19,0,.94.68,2.2a.73.73,0,0,0,.78.43Z"/><circle class="cls-2" cx="45.13" cy="7.48" r="0.39"/><circle class="cls-2" cx="41.53" cy="7.51" r="0.39"/><path class="cls-2" d="M43.67,11.45h-.21c-.46,0-1.32-.41-1.34-1.07a.14.14,0,0,1,.13-.14h0a.14.14,0,0,1,.14.13c0,.49.78.76,1.09.8a1.31,1.31,0,0,0,.85-.16.14.14,0,0,1,.16.22A1.49,1.49,0,0,1,43.67,11.45Z"/><path class="cls-2" d="M48.94,2.16s.33,3.64-2.48,4.21c-2.06.42-4-1.11-5.17-1.74-1.38-.76-2.11-.34-2.12.79s0,2.8,0,3.68a.19.19,0,0,1-.33.14c-.43-.57-1.27-1.67-1.46-2C36.92,6.44,36,2.08,38.93.76c2.31-1,4.34.17,5.25.39,2.35.56,3.17-.17,3.17-.17a1.52,1.52,0,0,1-.93,1.58A2.4,2.4,0,0,0,48.94,2.16Z"/></svg>