<svg id="Layer_1" data-name="Layer 1" xmlns="http://www.w3.org/2000/svg" viewBox="0 0 63.2 52.18"><defs><style>.cls-1{fill:#f4cfb3;}.cls-2{fill:#414042;}.cls-3{fill:#8dc63f;}.cls-4{fill:#fdffff;}.cls-5{fill:#f6d056;}.cls-10,.cls-6,.cls-8{fill:none;stroke:#414042;stroke-miterlimit:10;}.cls-6{stroke-linecap:round;}.cls-6,.cls-8{stroke-width:0.5px;}.cls-7{fill:#45a5da;}.cls-9{fill:#e5cbbd;}.cls-10{stroke-width:0.4px;}.cls-11{fill:#f96767;}.cls-12{fill:#f15f2e;}.cls-13{fill:#f55;}</style></defs><title>Other family members-18_v2</title><path class="cls-1" d="M21.73,31.67a5.06,5.06,0,0,0,2.5,2.15c.73.21,1.73-.36.82-1-.62-.43-1.07-.65-1.07-1.23s.74-.3.59-.5c-.53-.73-1.52-.45-1.7-.58a11.41,11.41,0,0,1-.48-1.2l-1.62.79A10,10,0,0,0,21.73,31.67Z"/><path class="cls-2" d="M25.49,33.77a1.42,1.42,0,0,1-1.33.29A4.94,4.94,0,0,1,21.66,32l-.16-.15a10.35,10.35,0,0,1-.88-1.56l-.11-.22L22.58,29l.05.25a10.25,10.25,0,0,0,.39,1h.15a1.84,1.84,0,0,1,1.57.64.32.32,0,0,1,.05.29.48.48,0,0,1-.37.27.73.73,0,0,0-.23.1c0,.35.21.51.72.85l.21.2c.59.41.49.8.44,1A.68.68,0,0,1,25.49,33.77Zm-3.56-2.24.15.15a4.5,4.5,0,0,0,2.19,1.93.87.87,0,0,0,.87-.2c.08-.15-.1-.24-.25-.34l-.2-.19c-.51-.34-.94-.63-.94-1.28a.59.59,0,0,1,.49-.51,1.59,1.59,0,0,0-1-.26.84.84,0,0,1-.51-.09l-.06-.06-.05,0,0,0c-.07-.13-.2-.43-.36-.86l-1.11.56a9.69,9.69,0,0,0,.83,1.23Z"/><path class="cls-3" d="M18.59,28.25C16.08,24,16,20.9,16.32,19.8a1.35,1.35,0,0,1,2.57-.11c.75,1.64.93,3.07,2,5.73,1.26,3,2.19,3.28,1.88,4.81l-1.33,1.38A9.89,9.89,0,0,1,18.59,28.25Z"/><path class="cls-2" d="M23,30.33l-1.54,1.6-.17-.16a3.41,3.41,0,0,0-.45-.44,8.91,8.91,0,0,1-2.43-3h0c-2.6-4.29-2.66-7.44-2.3-8.61a1.47,1.47,0,0,1,1.3-1.15,1.8,1.8,0,0,1,1.68,1,19.11,19.11,0,0,1,.86,2.4,34.14,34.14,0,0,0,1.18,3.34,19.56,19.56,0,0,0,1.26,2.5A3,3,0,0,1,23,30.26Zm-1.54,1,1.14-1.18A2.64,2.64,0,0,0,22,28.05a20,20,0,0,1-1.29-2.55,34.49,34.49,0,0,1-1.19-3.39,18.76,18.76,0,0,0-.84-2.34A1.37,1.37,0,0,0,17.46,19a1,1,0,0,0-.91.84c-.34,1.06-.25,4.08,2.25,8.28A8.54,8.54,0,0,0,21.12,31l.34.3Z"/><path class="cls-4" d="M15.44,4.63c-1,1-2.89-1.45-4.1,1-.65,1.36-1.39.55-2,1.18-1.23,1.18.36,2.65-.6,3.68C7.41,11.9,7.41,14.34,10.2,15c1.29.33.91,2.71,4,2.25,1.3-.19,2.35.48,3.89.39a2.92,2.92,0,0,0,3-2.71c0-.8,1-.53,1.75-1.3A2.09,2.09,0,0,0,23,10.84c-.72-.84-1.54-.81-.83-2.26A1.71,1.71,0,0,0,20.61,6.1c-1.21,0-1.49-.7-2-1.24A2.35,2.35,0,0,0,15.44,4.63Z"/><path class="cls-5" d="M15.44,4.63c-1,1-2.89-1.45-4.1,1C10.66,7,10,6.31,9.26,6.86c-1.39,1.12.36,2.65-.6,3.68-1.28,1.36-1.28,3.8,1.51,4.5,1.29.33.91,2.71,4,2.25,1.3-.19,2.35.48,3.89.39a2.92,2.92,0,0,0,3-2.71c0-.8,1-.53,1.75-1.3A2.09,2.09,0,0,0,23,10.84c-.72-.84-1.54-.81-.83-2.26A1.71,1.71,0,0,0,20.58,6.1c-1.21,0-1.49-.7-2-1.24A2.35,2.35,0,0,0,15.44,4.63Z"/><path class="cls-6" d="M15.44,4.63c-1,1-2.89-1.45-4.1,1C10.66,7,10,6.31,9.26,6.86c-1.39,1.12.36,2.65-.6,3.68-1.28,1.36-1.28,3.8,1.51,4.5,1.29.33.91,2.71,4,2.25,1.3-.19,2.35.48,3.89.39a2.92,2.92,0,0,0,3-2.71c0-.8,1-.53,1.75-1.3A2.09,2.09,0,0,0,23,10.84c-.72-.84-1.54-.81-.83-2.26A1.71,1.71,0,0,0,20.58,6.1c-1.21,0-1.49-.7-2-1.24A2.35,2.35,0,0,0,15.44,4.63Z"/><path class="cls-2" d="M33.37,45.52l-2.48,2.16L32,49l.57-.49a1.19,1.19,0,0,0,.09,1.21l2,2.28s1-.72.71-1.38-1.37-2-.66-3.27l.71-1.22Z"/><path class="cls-2" d="M34.61,52.18,32.55,49.8a1.11,1.11,0,0,1-.25-.91l-.31.27-1.32-1.5,2.65-2.3,2.27.68-.79,1.38c-.54.94,0,2,.44,2.71a4.44,4.44,0,0,1,.22.43c.34.75-.71,1.52-.76,1.55ZM33,47.9l-.33.64a1.06,1.06,0,0,0,.06,1.08l1.92,2.19c.23-.19.76-.69.57-1.13,0-.11-.13-.25-.21-.41-.42-.76-1.06-1.92-.44-3l.62-1.07-1.78-.53-2.32,2L32,48.75Z"/><path class="cls-2" d="M45.27,48.41v3.37H47V51a1.22,1.22,0,0,0,1,.77h3.09s.13-1.26-.58-1.47-2.5-.33-3-1.7l-.47-1.37Z"/><path class="cls-2" d="M51.11,52H48a1.16,1.16,0,0,1-.8-.32v.1A.21.21,0,0,1,47,52H45.26a.21.21,0,0,1-.21-.21V48.41a.21.21,0,0,1,.1-.18L47,47.08a.21.21,0,0,1,.29.05l0,.06.47,1.37c.34,1,1.54,1.27,2.34,1.44l.49.12c.86.26.74,1.64.73,1.7A.21.21,0,0,1,51.11,52ZM47,50.79a.21.21,0,0,1,.2.14s.26.63.81.64H50.9c0-.32,0-.94-.44-1.06L50,50.4c-.83-.18-2.23-.48-2.65-1.72L47,47.57l-1.5.94v3h1.33V51a.21.21,0,0,1,.17-.21Z"/><path class="cls-7" d="M45.26,30.08s.72,1.44,1.2,5.75c.7,6.28,1.58,13,1.58,13l-3.18.34A46,46,0,0,0,40,33.28C36.67,26.75,45.26,30.08,45.26,30.08Z"/><path class="cls-2" d="M44.86,49.39a.22.22,0,0,1-.22-.2,46.29,46.29,0,0,0-4.87-15.8q-1.32-2.64-.36-3.73c1.38-1.52,5.74.15,5.93.22a.22.22,0,0,1,.12.1,21.14,21.14,0,0,1,1.22,5.82c.69,6.2,1.57,12.93,1.57,13a.22.22,0,0,1-.19.24l-3.18.34ZM41.33,29.45a2.13,2.13,0,0,0-1.59.49c-.51.57-.37,1.66.42,3.24a47.71,47.71,0,0,1,4.9,15.75l2.74-.29c-.16-1.21-.93-7.21-1.55-12.79a21.62,21.62,0,0,0-1.15-5.6A12.31,12.31,0,0,0,41.33,29.45Z"/><path class="cls-7" d="M41.76,29.59s0,8.11-.85,10.3c-1.12,3-5.88,7.68-5.88,7.68l-1.91-2.36A13.78,13.78,0,0,0,36.5,38.1c.19-2-1-4.82-1.1-6.21C35.09,24.59,41.76,29.59,41.76,29.59Z"/><path class="cls-2" d="M35,47.79h0a.22.22,0,0,1-.16-.08L33,45.35a.22.22,0,0,1,0-.28,13.66,13.66,0,0,0,3.32-7,12.45,12.45,0,0,0-.62-3.91,12.25,12.25,0,0,1-.47-2.26c-.09-2.08.38-3.4,1.38-3.94,2-1,5.18,1.35,5.32,1.45a.22.22,0,0,1,.09.17c0,.33,0,8.18-.86,10.37C40,43,35.4,47.52,35.2,47.71A.22.22,0,0,1,35,47.79Zm-1.62-2.57,1.64,2c.85-.86,4.69-4.84,5.66-7.44.74-2,.83-9.13.83-10.11-.52-.37-3.21-2.18-4.77-1.35-.85.45-1.24,1.64-1.15,3.53A12.25,12.25,0,0,0,36.08,34a12.71,12.71,0,0,1,.64,4.07,13.72,13.72,0,0,1-3.31,7.15Z"/><path class="cls-1" d="M47.68,30.81c1.12.23,3.24.28,3.69,2.71.17.93-.12,1.93-1.17,1.47a11,11,0,0,1-2.56-2.06S46.12,30.49,47.68,30.81Z"/><path class="cls-2" d="M47.41,32.86c-.26-.46-.83-1.56-.47-2,.15-.22.44-.25.82-.2l.44.08c1.19.2,3,.51,3.4,2.78a1.73,1.73,0,0,1-.37,1.64,1,1,0,0,1-1.12.07,11,11,0,0,1-2.6-2.15Zm3.44-.33a3.5,3.5,0,0,0-2.73-1.45L47.67,31h0c-.13,0-.36-.06-.42,0-.18.27.23,1.2.58,1.77a10.64,10.64,0,0,0,2.49,2,.65.65,0,0,0,.69,0,1.61,1.61,0,0,0,.22-1.28,3.18,3.18,0,0,0-.41-1Z"/><path class="cls-5" d="M42.68,18.2s.1-2.85,2-3.12c2.76-.4,2,8.25,2,8.25s2.07,6.33,2.73,7.46a11,11,0,0,1-2.61,1.5L43.53,26a11.46,11.46,0,0,1-1-5.22Z"/><path class="cls-8" d="M42.68,18.2s.1-2.85,2-3.12c2.76-.4,2,8.25,2,8.25s2.07,6.33,2.73,7.46a11,11,0,0,1-2.61,1.5L43.53,26a11.46,11.46,0,0,1-1-5.22Z"/><path class="cls-5" d="M35.48,32.48a.22.22,0,0,1-.21-.16s-1-3.65-2.34-14.45A2.53,2.53,0,0,1,34.67,15a20.48,20.48,0,0,1,5.59-.68,29.06,29.06,0,0,1,3.58.21A2.77,2.77,0,0,1,46,15.77c1.38,2.12.18,6.15,0,6.59V32a.22.22,0,0,1-.21.22Z"/><path class="cls-2" d="M40.3,14.55a28.56,28.56,0,0,1,3.55.21c4.31.44,2,7.59,2,7.59V32l-10.34.29s-1-3.51-2.33-14.42a2.32,2.32,0,0,1,1.62-2.63,20.66,20.66,0,0,1,5.53-.67m0-.43a20.7,20.7,0,0,0-5.66.68,2.74,2.74,0,0,0-1.93,3.1C34,28.72,35,32.24,35.08,32.39a.43.43,0,0,0,.42.31h0l10.34-.29a.43.43,0,0,0,.42-.43V22.42c.18-.58,1.33-4.59-.08-6.74a3,3,0,0,0-2.31-1.34,28.87,28.87,0,0,0-3.6-.21Z"/><path class="cls-5" d="M42.91,14.76h.93c4.31.44,2,7.59,2,7.59V32L43,32l.85-9.65S45.67,16.29,42.91,14.76Z"/><path class="cls-1" d="M38.8,9.34v5.5a4.33,4.33,0,0,0,2.67.78A2,2,0,0,0,43,15V9.86Z"/><path class="cls-2" d="M41.3,15.84A4.49,4.49,0,0,1,38.67,15l-.08-.06V9.1l4.61.53v5.46a2.15,2.15,0,0,1-1.72.75ZM39,14.73a4.21,4.21,0,0,0,2.45.67,1.89,1.89,0,0,0,1.34-.51V10l-3.75-.43Z"/><path class="cls-1" d="M37.39,7.19c.29,0,.79.64,1.15,1.13-.17-1.64-.37-3.69-.37-3.69a18.62,18.62,0,0,1,4.2-1.31,17.55,17.55,0,0,1,3.94,1.31V8.41s.06,5.37-3.27,5.37a5.28,5.28,0,0,1-4.3-3.49.94.94,0,0,1-1-.54C36.89,8.2,36.81,7.15,37.39,7.19Z"/><path class="cls-2" d="M43.06,14a5.48,5.48,0,0,1-4.39-3.48,1.18,1.18,0,0,1-1-.66C37,8.65,36.73,7.66,37,7.22A.52.52,0,0,1,37.41,7h0c.16,0,.39.1.84.62l-.3-2.94V4.52l.15-.06A18.5,18.5,0,0,1,42.36,3.1h0a17.28,17.28,0,0,1,4,1.33l.13.06V8.4c0,.13,0,3.24-1.49,4.77A2.71,2.71,0,0,1,43.06,14ZM38.9,10.05l.06.16a5,5,0,0,0,4.1,3.36,2.29,2.29,0,0,0,1.68-.69c1.38-1.4,1.37-4.43,1.37-4.46V4.78a16.1,16.1,0,0,0-3.74-1.24h0a17.18,17.18,0,0,0-4,1.24c0,.51.21,2.16.36,3.53l.08.8-.47-.65c-.74-1-1-1-1-1h-.1c-.12.19,0,.94.68,2.2a.73.73,0,0,0,.78.43Z"/><circle class="cls-2" cx="45.13" cy="7.48" r="0.39"/><circle class="cls-2" cx="41.53" cy="7.51" r="0.39"/><path class="cls-2" d="M43.67,11.45h-.21c-.46,0-1.32-.41-1.34-1.07a.14.14,0,0,1,.13-.14h0a.14.14,0,0,1,.14.13c0,.49.78.76,1.09.8a1.31,1.31,0,0,0,.85-.16.14.14,0,0,1,.16.22A1.49,1.49,0,0,1,43.67,11.45Z"/><path class="cls-2" d="M48.94,2.16s.33,3.64-2.48,4.21c-2.06.42-4-1.11-5.17-1.74-1.38-.76-2.11-.34-2.12.79s0,2.8,0,3.68a.19.19,0,0,1-.33.14c-.43-.57-1.27-1.67-1.46-2C36.92,6.44,36,2.08,38.93.76c2.31-1,4.34.17,5.25.39,2.35.56,3.17-.17,3.17-.17a1.52,1.52,0,0,1-.93,1.58A2.4,2.4,0,0,0,48.94,2.16Z"/><path class="cls-2" d="M26.57,17.63h0a4.16,4.16,0,0,1,4.16,4.16h0a42.93,42.93,0,0,0,.38,5.3,13.36,13.36,0,0,1-4.54,1.51A13.36,13.36,0,0,1,22,27.09a42.93,42.93,0,0,0,.38-5.3h0a4.16,4.16,0,0,1,4.16-4.16Z"/><path class="cls-2" d="M26.57,28.78h0a13.41,13.41,0,0,1-4.61-1.54l-.1-.06,0-.12a43.24,43.24,0,0,0,.38-5.27,4.34,4.34,0,1,1,8.68,0,43.14,43.14,0,0,0,.38,5.27l0,.12-.1.06a13.42,13.42,0,0,1-4.61,1.54ZM22.23,27a13.53,13.53,0,0,0,4.35,1.43A13.54,13.54,0,0,0,30.92,27a43.31,43.31,0,0,1-.36-5.2,4,4,0,1,0-8,0A43.37,43.37,0,0,1,22.23,27Z"/><path class="cls-9" d="M29.9,30.09l.79,2.72a1.13,1.13,0,0,0,1.06,1l3,.63a1.38,1.38,0,0,1-.1,1.2c-1.27-.22-2.24-.29-3.9-.55a1.47,1.47,0,0,1-1.15-.83L28.27,31.3Z"/><path class="cls-9" d="M34.61,35.6a3.62,3.62,0,0,0,2.28-.5c.43-.31.56-1.11-.18-.88-.51.15-.83.31-1.14.05s.16-.54,0-.54c-.64,0-.92.64-1.07.68S33.31,34.14,33,34l.29,1.38Z"/><path class="cls-10" d="M36.71,34.22c-.51.15-.83.31-1.14.05s.16-.54,0-.54c-.56,0-.84.49-1,.64l-2.79-.6a1.13,1.13,0,0,1-1.06-1l-.79-2.72L28.27,31.3l1.29,2.93a1.47,1.47,0,0,0,1.15.83c1.08.17,3.44.49,3.76.53l.14,0h0a3.62,3.62,0,0,0,2.28-.5C37.32,34.79,37.45,34,36.71,34.22Z"/><path class="cls-7" d="M28.47,27.54s1.71.77,2.37,4.51c-.88.8-3.62.6-3.62.6Z"/><path class="cls-2" d="M28,32.84c-.42,0-.72,0-.76,0l-.21,0,1.33-5.57.19.08c.07,0,1.74.75,2.49,4.71l0,.1-.07.07A5.18,5.18,0,0,1,28,32.84Zm-.53-.36c.62,0,2.46.05,3.2-.5C30.07,29.06,29,28,28.57,27.74Z"/><path class="cls-1" d="M26.47,39.08l-.21,10.22,1.45,1,1.56-.41a3.2,3.2,0,0,1-1.41-.85c-.56-.88,1-5.74.7-8.16C28.49,40.21,26.47,39.08,26.47,39.08Z"/><path class="cls-2" d="M27.67,50.48,26.1,49.37v-.08l.22-10.47.22.13c.21.12,2.11,1.19,2.19,1.93a17.9,17.9,0,0,1-.45,4.78C28,47.1,27.75,48.6,28,49a3,3,0,0,0,1.3.79l.49.16Zm-1.27-1.27,1.32.94,1-.27a2.46,2.46,0,0,1-1-.7c-.3-.46-.11-1.65.23-3.52A17.75,17.75,0,0,0,28.43,41c-.06-.41-1.07-1.13-1.82-1.58Z"/><path class="cls-5" d="M28.53,36.91A21.32,21.32,0,0,1,28,47.32H26.15a37.71,37.71,0,0,0-.7-10C25.25,36.53,28.36,36.05,28.53,36.91Z"/><path class="cls-2" d="M26.15,47.51a.15.15,0,0,1-.16-.15h0a37.89,37.89,0,0,0-.7-9.93.56.56,0,0,1,.22-.55,3.41,3.41,0,0,1,2.68-.46.65.65,0,0,1,.5.47h0a21.68,21.68,0,0,1-.56,10.5.15.15,0,0,1-.14.1H26.11Zm1.27-10.9a3,3,0,0,0-1.73.48c-.15.13-.13.23-.12.26a38.43,38.43,0,0,1,.7,9.86h1.6A21.59,21.59,0,0,0,28.34,37h0c0-.13-.18-.2-.3-.25A2.07,2.07,0,0,0,27.42,36.61Z"/><path class="cls-1" d="M26.1,36.82s.08,6.2-1.3,7.36c-.39.34-2.11,1.41-3,2.11-1.17,1-1,1.17-1.44,2.32A7.38,7.38,0,0,1,20,47.49a4.45,4.45,0,0,1,.15-1.81A12.06,12.06,0,0,1,23.48,43c.32-.15-.66-6.2-.66-6.2Z"/><path class="cls-2" d="M20.38,48.79c-.13,0-.16-.06-.44-.92,0-.14-.08-.26-.11-.31a4.36,4.36,0,0,1,.14-1.9h0a12.13,12.13,0,0,1,3.38-2.72,40.9,40.9,0,0,0-.7-6.05v-.18h3.63v.11c0,.25.06,6.28-1.36,7.48-.18.15-.58.43-1.06.75-.64.44-1.41,1-1.91,1.37A2.82,2.82,0,0,0,20.79,48c-.07.2-.15.42-.27.7l-.06.1Zm-.12-3a4,4,0,0,0-.14,1.68s.06.18.11.32l.15.44.13-.35a3.06,3.06,0,0,1,1.25-1.7c.49-.4,1.3-1,1.94-1.41l1-.7C25.92,43,26,37.91,26,37H23c.07.44.26,1.65.42,2.87.42,3.18.27,3.25.13,3.32a11.86,11.86,0,0,0-3.32,2.6Z"/><path class="cls-5" d="M22.62,42.45c.7-1.27.18-5.63.18-5.63h3.64s0,5.55-1.27,7.11a13,13,0,0,1-3.09,2.58l-1.27-1.6C21.3,44.18,22.22,43.15,22.62,42.45Z"/><path class="cls-2" d="M22.07,46.68a.15.15,0,0,1-.12-.06L20.68,45a.15.15,0,0,1,0-.18c.2-.3.47-.65.75-1a14.9,14.9,0,0,0,1.06-1.48c.7-1.21.16-5.5.16-5.54a.15.15,0,0,1,0-.12.15.15,0,0,1,.11,0l3.64,0a.15.15,0,0,1,.15.15c0,.23,0,5.63-1.31,7.21a11.37,11.37,0,0,1-2.67,2.3l-.45.3A.15.15,0,0,1,22.07,46.68ZM21,44.91l1.11,1.41.34-.23A11.12,11.12,0,0,0,25,43.86c1.14-1.37,1.23-6,1.24-6.86L23,37c.09.84.45,4.39-.22,5.55h0A15,15,0,0,1,21.66,44C21.42,44.33,21.18,44.64,21,44.91Zm1.63-2.46Z"/><path class="cls-2" d="M27,49.2c.7.21.79-.36.79-.36,1.17.6,1.84,1,1.94,1,.32.14.3.63.3.63v.25H26.28a6.19,6.19,0,0,1-.19-1.54C26.09,49,26.34,49,27,49.2Z"/><path class="cls-2" d="M20.38,46.64c.18.79.7.62.7.62.09,1.45.13,2.3.15,2.42,0,.39-.39.6-.39.6l-.22.12-2-3.77a6.15,6.15,0,0,1,1.36-1C20.08,45.51,20.17,45.83,20.38,46.64Z"/><path class="cls-7" d="M21.3,41.25a40,40,0,0,0,.93-5.3c.06-.71.27-7.58,1-8A7,7,0,0,1,26.27,27a6.34,6.34,0,0,1,2.25.46,4.5,4.5,0,0,1,.58,4c-.2.75,1.53,6,2,9.74Z"/><path class="cls-10" d="M21.3,41.25a40,40,0,0,0,.93-5.3c.06-.71.27-7.58,1-8A7,7,0,0,1,26.27,27a6.34,6.34,0,0,1,2.25.46,4.5,4.5,0,0,1,.58,4c-.2.75,1.53,6,2,9.74Z"/><path class="cls-1" d="M25.64,24.4l-.18,2.82a1.51,1.51,0,0,0,1.22.54.75.75,0,0,0,.7-.49l-.15-2.41Z"/><path class="cls-2" d="M26.6,27.89a1.65,1.65,0,0,1-1.3-.59v0l.19-3,1.89.49.14,2.57h0a.9.9,0,0,1-.83.59Zm-1-.74a1.34,1.34,0,0,0,1.06.43.6.6,0,0,0,.55-.36l-.13-2.29-1.32-.34Z"/><path class="cls-9" d="M22.9,31.11,21.38,33.5a1.13,1.13,0,0,0,0,1.43l1.47,2.64a1.38,1.38,0,0,1-1,.72c-.67-1.1-1.26-1.88-2.16-3.29a1.47,1.47,0,0,1-.13-1.41l1.35-2.9Z"/><path class="cls-9" d="M21.87,38.28a3.62,3.62,0,0,0,1.88,1.39c.52.12,1.21-.31.54-.72-.45-.28-.78-.42-.8-.82s.51-.23.4-.37c-.4-.5-1.09-.26-1.22-.35-.14-.27-.57-1.06-.68-1.34l-.84,1.12C21.46,37.66,21.66,38,21.87,38.28Z"/><path class="cls-10" d="M24.3,38.94c-.45-.28-.78-.42-.8-.82s.51-.23.4-.37c-.35-.44-.93-.31-1.15-.33L22,36.13l0-.08h0l-.63-1.14a1.13,1.13,0,0,1,0-1.43l1.52-2.39-2-.43-1.35,2.9A1.47,1.47,0,0,0,19.71,35c.58.92,1,1.57,1.47,2.22.26.41.44.69.62,1l.07.12h0a3.62,3.62,0,0,0,1.88,1.38C24.27,39.78,25,39.35,24.3,38.94Z"/><path class="cls-7" d="M23.3,27.93s-2.13.62-3.34,4c.91.76,3.64,1.1,3.64,1.1Z"/><path class="cls-2" d="M23.79,33.21l-.22,0c-.11,0-2.8-.35-3.73-1.14L19.75,32l0-.12c1.23-3.41,3.37-4.07,3.46-4.09l.1.34s-2,.63-3.18,3.75a9.56,9.56,0,0,0,3.24,1l-.19-2s-.09-.47.22-.4S23.79,33.21,23.79,33.21Z"/><path class="cls-1" d="M29.89,23.15c0-2.46-2.4-1.6-4.09-2.76a.32.32,0,0,0-.46.11c-.26.43-.79,1.15-1.48,1.16a.72.72,0,0,0-.69.74h0a.71.71,0,0,0,.67.74,3.71,3.71,0,0,0,.07.74,3,3,0,0,0,5.9,0A3.71,3.71,0,0,0,29.89,23.15Z"/><path class="cls-2" d="M26.87,26.67a3.26,3.26,0,0,1-3.12-2.75,3.88,3.88,0,0,1-.08-.62.91.91,0,0,1-.67-.9.9.9,0,0,1,.87-.92c.61,0,1.1-.68,1.33-1.08a.5.5,0,0,1,.33-.24.49.49,0,0,1,.38.08,5.18,5.18,0,0,0,1.9.69c1.17.26,2.27.5,2.27,2.21a3.86,3.86,0,0,1-.08.78A3.26,3.26,0,0,1,26.87,26.67Zm-1.24-6.16h0a.15.15,0,0,0-.1.07c-.27.46-.85,1.23-1.63,1.25a.54.54,0,0,0-.52.56.54.54,0,0,0,.5.57H24v.18a3.5,3.5,0,0,0,.07.71,2.79,2.79,0,0,0,5.55,0,3.51,3.51,0,0,0,.07-.71c0-1.43-.83-1.62-2-1.87a5.53,5.53,0,0,1-2-.74A.14.14,0,0,0,25.63,20.51Z"/><path class="cls-2" d="M27.76,22.44a.33.33,0,0,0,0,.47.33.33,0,1,0,.47-.47.35.35,0,0,0-.47,0Zm0,0"/><path class="cls-2" d="M25.41,22.34a.33.33,0,0,0,0,.47.33.33,0,1,0,.47-.47.35.35,0,0,0-.47,0Zm0,0"/><path class="cls-11" d="M27.66,24.47a1.13,1.13,0,0,1-.58,0,1,1,0,0,0-.39,0,1.41,1.41,0,0,1-.7,0s.25.7.86.7S27.66,24.47,27.66,24.47Z"/><path class="cls-1" d="M34.79,31.22c1.06.42,3.14.84,3.17,3.31,0,.95-.46,1.88-1.41,1.25a11,11,0,0,1-2.16-2.47S33.31,30.63,34.79,31.22Z"/><path class="cls-2" d="M34.16,33.19c-.18-.5-.54-1.67-.11-2.09.19-.19.48-.17.84-.05l.42.16c1.14.41,2.85,1,2.87,3.33a1.73,1.73,0,0,1-.65,1.55A1,1,0,0,1,36.43,36a11,11,0,0,1-2.19-2.57Zm3.45.27a3.5,3.5,0,0,0-2.44-1.9l-.43-.16h0c-.12-.05-.34-.12-.42,0s0,1.23.26,1.84a10.64,10.64,0,0,0,2.1,2.43.65.65,0,0,0,.67.13,1.61,1.61,0,0,0,.44-1.22,3.18,3.18,0,0,0-.22-1.08Z"/><path class="cls-5" d="M32,17.94s.59-2.79,2.48-2.73c2.79.08.5,8.47.5,8.47s.94,6.59,1.4,7.82a11,11,0,0,1-2.83,1l-2.06-6.76a11.46,11.46,0,0,1-.05-5.31Z"/><path class="cls-8" d="M32,17.94s.59-2.79,2.48-2.73c2.79.08.5,8.47.5,8.47s.94,6.59,1.4,7.82a11,11,0,0,1-2.83,1l-2.06-6.76a11.46,11.46,0,0,1-.05-5.31Z"/><path class="cls-1" d="M15.44,35.42l-.3,14.51,2.06,1.46,2.21-.58a4.55,4.55,0,0,1-2-1.21c-.8-1.25,1.48-8.16,1-11.59C18.31,37,15.44,35.42,15.44,35.42Z"/><path class="cls-2" d="M17.15,51.62,14.91,50v-.11l.31-14.87.31.18c.3.17,3,1.69,3.11,2.74A25.42,25.42,0,0,1,18,44.77c-.36,2-.74,4.17-.39,4.72a4.2,4.2,0,0,0,1.84,1.12l.7.23Zm-1.8-1.81,1.88,1.34,1.47-.39a3.5,3.5,0,0,1-1.45-1c-.42-.65-.15-2.34.33-5a25.21,25.21,0,0,0,.64-6.65c-.08-.58-1.52-1.61-2.58-2.25Z"/><path class="cls-12" d="M18.36,32.34a30.29,30.29,0,0,1-.72,14.79H15A53.57,53.57,0,0,0,14,33C13.71,31.8,18.12,31.12,18.36,32.34Z"/><path class="cls-2" d="M15,47.39a.22.22,0,0,1-.22-.22v0a53.82,53.82,0,0,0-1-14.1.79.79,0,0,1,.31-.78,4.85,4.85,0,0,1,3.8-.65.92.92,0,0,1,.71.67h0a30.8,30.8,0,0,1-.79,14.92.22.22,0,0,1-.2.14H14.93Zm1.81-15.48a4.27,4.27,0,0,0-2.46.68c-.21.19-.18.32-.17.37a54.58,54.58,0,0,1,1,14h2.27a30.66,30.66,0,0,0,.67-14.54h0c0-.18-.25-.29-.42-.35A2.94,2.94,0,0,0,16.79,31.91Z"/><path class="cls-1" d="M14.92,32.21S15,41,13.07,42.67c-.56.48-3,2-4.23,3C7.18,47,7.45,47.33,6.79,49a10.48,10.48,0,0,1-.59-1.59,6.32,6.32,0,0,1,.21-2.57A17.13,17.13,0,0,1,11.19,41c.45-.21-.94-8.81-.94-8.81Z"/><path class="cls-2" d="M6.79,49.21c-.19,0-.23-.09-.63-1.3-.06-.2-.12-.37-.15-.44a6.19,6.19,0,0,1,.2-2.7h0A17.23,17.23,0,0,1,11,40.91c.16-.59-.39-4.82-1-8.6v-.25h5.16v.15c0,.36.09,8.92-1.93,10.63-.25.21-.83.61-1.51,1.06-.91.62-2,1.38-2.72,2a4,4,0,0,0-1.64,2.22c-.1.28-.21.59-.38,1l-.08.14Zm-.17-4.28a5.73,5.73,0,0,0-.2,2.39c0,.07.09.25.15.46l.22.63.18-.5A4.34,4.34,0,0,1,8.74,45.5c.69-.57,1.84-1.35,2.75-2,.67-.45,1.25-.84,1.47-1,1.7-1.44,1.77-8.74,1.77-10.08H10.51c.1.63.37,2.35.6,4.08.6,4.51.38,4.61.18,4.71A16.84,16.84,0,0,0,6.58,44.9Z"/><path class="cls-12" d="M10,40.21c1-1.81.25-8,.25-8h5.17s0,7.88-1.81,10.1A18.41,18.41,0,0,1,9.19,46L7.38,43.71C8.1,42.67,9.4,41.21,10,40.21Z"/><path class="cls-2" d="M9.19,46.21A.22.22,0,0,1,9,46.13l-1.8-2.28a.22.22,0,0,1,0-.26c.29-.43.67-.92,1.07-1.44A21.17,21.17,0,0,0,9.79,40c1-1.72.23-7.81.23-7.87a.22.22,0,0,1,.05-.17.21.21,0,0,1,.16-.07L15.4,32a.22.22,0,0,1,.21.22c0,.32,0,8-1.86,10.24A16.15,16.15,0,0,1,10,45.74l-.64.43A.22.22,0,0,1,9.19,46.21Zm-1.54-2.5,1.58,2,.48-.32a15.79,15.79,0,0,0,3.7-3.18c1.62-1.94,1.75-8.49,1.76-9.75l-4.71-.06c.13,1.19.64,6.23-.31,7.89h0a21.36,21.36,0,0,1-1.54,2.15C8.26,42.88,7.93,43.32,7.65,43.71ZM10,40.21Z"/><path class="cls-2" d="M16.25,49.79c1,.3,1.12-.51,1.12-.51,1.66.85,2.62,1.43,2.76,1.49.46.2.43.89.43.89V52H15.17a8.79,8.79,0,0,1-.27-2.19C14.9,49.58,15.25,49.48,16.25,49.79Z"/><path class="cls-2" d="M6.79,46.16c.25,1.12,1,.88,1,.88.13,2.06.19,3.27.21,3.44.07.55-.56.85-.56.85l-.31.17L4.22,46.14a8.74,8.74,0,0,1,1.93-1.46C6.36,44.56,6.49,45,6.79,46.16Z"/><path class="cls-3" d="M10.24,34.14s-1-.36-.83-3.17c.08-1,.38-10.76,1.38-11.37a10,10,0,0,1,4.36-1.29,9,9,0,0,1,3.19.66,6.39,6.39,0,0,1,.82,5.72c-.29,1.06.36,6,.18,7a7.17,7.17,0,0,1-.68,1.85Z"/><path class="cls-2" d="M10.21,34.39l0,0c-.12,0-1.17-.51-1-3.42,0-.16,0-.51.05-1,.34-7.09.76-10.15,1.45-10.57a10.32,10.32,0,0,1,4.48-1.33,9.23,9.23,0,0,1,3.3.68l.07,0,0,.06a6.66,6.66,0,0,1,.85,5.94,20.76,20.76,0,0,0,.09,3.84,19.66,19.66,0,0,1,.1,3.12,7.42,7.42,0,0,1-.71,1.92l-.07.12Zm4.94-15.83a9.81,9.81,0,0,0-4.23,1.26c-.33.2-.81,2.13-1.2,10.17,0,.5,0,.85-.05,1-.13,2.21.48,2.79.64,2.9l8.21-.58a6.91,6.91,0,0,0,.59-1.66,21.48,21.48,0,0,0-.11-3,19.32,19.32,0,0,1-.07-4,6.17,6.17,0,0,0-.74-5.45A8.73,8.73,0,0,0,15.15,18.56Z"/><path class="cls-1" d="M14.26,14.57l-.25,4a2.14,2.14,0,0,0,1.73.76,1.07,1.07,0,0,0,1-.69l-.21-3.43Z"/><path class="cls-2" d="M15.63,19.53a2.35,2.35,0,0,1-1.84-.84v-.06l.27-4.32,2.69.7.2,3.65h0a1.28,1.28,0,0,1-1.18.84Zm-1.4-1a1.91,1.91,0,0,0,1.5.61.85.85,0,0,0,.78-.51l-.18-3.25-1.87-.49Z"/><path class="cls-1" d="M5.42,32a5.06,5.06,0,0,0,.19,3.29c.36.67,1.46,1,1.28-.09-.12-.75-.28-1.22.14-1.62s.73.33.77.08C8,32.75,7.07,32.23,7,32a11.41,11.41,0,0,1,.53-1.18l-1.69-.62A10,10,0,0,0,5.42,32Z"/><path class="cls-2" d="M6.52,36.14a1.42,1.42,0,0,1-1.13-.76,4.94,4.94,0,0,1-.25-3.23v-.22a10.35,10.35,0,0,1,.51-1.72L5.73,30l2.2.76-.14.21a10.25,10.25,0,0,0-.47,1l.1.11a1.84,1.84,0,0,1,.63,1.58.32.32,0,0,1-.17.24.48.48,0,0,1-.45-.08.73.73,0,0,0-.23-.1c-.25.24-.22.5-.11,1.11v.29c.12.71-.24.91-.4,1ZM5.66,32v.21a4.5,4.5,0,0,0,.13,2.92.87.87,0,0,0,.75.49c.16,0,.1-.24.07-.41v-.28c-.11-.6-.2-1.12.27-1.56a.59.59,0,0,1,.71,0,1.59,1.59,0,0,0-.51-.91A.84.84,0,0,1,6.79,32v-.21c.05-.14.17-.44.37-.86L6,30.57A9.69,9.69,0,0,0,5.67,32Z"/><path class="cls-3" d="M5.7,27.35c1.3-4.74,3.47-7,4.51-7.5,1.43-.73,2.25.78,1.86,1.77-.66,1.68-1.56,2.8-2.71,5.44-1.3,3-.84,3.85-2.16,4.69H5.28A9.89,9.89,0,0,1,5.7,27.35Z"/><path class="cls-2" d="M7.27,32H5.05v-.23a3.41,3.41,0,0,0,0-.63,8.91,8.91,0,0,1,.46-3.82h0c1.28-4.85,3.51-7.08,4.6-7.64a1.47,1.47,0,0,1,1.73.14,1.8,1.8,0,0,1,.44,1.91A19.11,19.11,0,0,1,11.15,24a34.14,34.14,0,0,0-1.58,3.17,19.56,19.56,0,0,0-.92,2.64,3,3,0,0,1-1.32,2.14ZM5.5,31.54H7.14c.69-.46.82-.91,1.09-1.86A20,20,0,0,1,9.17,27a34.49,34.49,0,0,1,1.62-3.21,18.76,18.76,0,0,0,1.1-2.23,1.37,1.37,0,0,0-.32-1.43A1,1,0,0,0,10.33,20c-1,.49-3.11,2.65-4.4,7.37a8.54,8.54,0,0,0-.45,3.66c0,.14,0,.3,0,.46Z"/><path class="cls-1" d="M12,12.13c.2,3,2,5,3.67,5s3.52-1.94,3.81-5-1.82-4.66-3.76-4.66S11.75,8.8,12,12.13Z"/><path class="cls-6" d="M12,12.13c.2,3,2,5,3.67,5s3.52-1.94,3.81-5-1.82-4.66-3.76-4.66S11.75,8.8,12,12.13Z"/><path class="cls-5" d="M10.14,10.31c.23.07.84-1,1.27-2.34.73-2.36,3.16-1.49,3.49-1.36.84-.24,3.87-.92,4.84,1.68.61,1.65,1.49,2.87,1.82,2.79s-1.35,1.62-3.4.54S16.37,8.4,14.5,8.31c-.49.94-.31,1.4-1.28,2A3.12,3.12,0,0,1,10.14,10.31Z"/><path class="cls-6" d="M20.55,11.93A3.29,3.29,0,0,1,18,11.47c-1.73-1.26-1.31-2.7-3.31-3.25a3.59,3.59,0,0,1-1.47,2.09,3.12,3.12,0,0,1-3.08,0"/><path class="cls-13" d="M16.73,14.33a1.54,1.54,0,0,1-.8,0,1.38,1.38,0,0,0-.54,0,2,2,0,0,1-.92,0s.34.94,1.18.94S16.73,14.33,16.73,14.33Z"/><line class="cls-8" x1="41.3" y1="15.84" x2="41.58" y2="21.63"/><ellipse class="cls-2" cx="14.15" cy="12.18" rx="0.41" ry="0.42"/><path class="cls-2" d="M14.79,12.31a.18.18,0,0,1-.17-.11.54.54,0,0,0-.48-.25.57.57,0,0,0-.42.14.82.82,0,0,1-.42.19.66.66,0,0,1-.62-.34.18.18,0,1,1,.32-.18s.1.18.26.16a.48.48,0,0,0,.24-.12.9.9,0,0,1,.65-.21.89.89,0,0,1,.8.47.18.18,0,0,1-.09.24h-.07Z"/><ellipse class="cls-2" cx="17.23" cy="12.14" rx="0.38" ry="0.42"/><path class="cls-2" d="M16.55,12.31h-.07a.18.18,0,0,1-.09-.23.9.9,0,0,1,1.22-.35l.15.1a.42.42,0,0,0,.22.11.33.33,0,0,0,.26-.07.18.18,0,0,1,.26.24.67.67,0,0,1-.56.18.76.76,0,0,1-.4-.19.55.55,0,0,0-.78,0l-.05.07A.18.18,0,0,1,16.55,12.31Z"/></svg>