<svg id="Layer_1" data-name="Layer 1" xmlns="http://www.w3.org/2000/svg" viewBox="0 0 64 53.81"><defs><style>.cls-1{fill:#45a4d7;}.cls-1,.cls-4{stroke:#444344;stroke-miterlimit:10;stroke-width:0.75px;}.cls-2{fill:#f05f2f;}.cls-3{fill:#444344;}.cls-4{fill:#f7d057;stroke-linecap:round;}</style></defs><title>Spouse-Other Adult family members 18+</title><path class="cls-1" d="M14.21,8.34a3.58,3.58,0,0,1,3.65,3.51q0,.08,0,.15a3.66,3.66,0,0,1-3.65,3.65,3.41,3.41,0,0,1-2.56-1.1A3.4,3.4,0,0,1,10.55,12,3.66,3.66,0,0,1,14.2,8.35Z"/><path class="cls-2" d="M16,48.42c-.69,0-1-.36-1.17-1.12V33.75H17v13.6c-.06.93-.51,1.06-.94,1.06Zm-3.41,0c-.67,0-1-.36-1.14-1.12V33.75h2.1v13.6c0,.94-.55,1.07-1,1.07Z"/><path class="cls-3" d="M16.58,34.13V47.31c0,.74-.31.74-.58.74s-.69-.13-.8-.75V34.13h1.35m-3.38,0v13.2c-.06.71-.34.71-.6.71s-.65-.07-.77-.75V34.12h1.35m4.13-.75h-2.8v14A1.48,1.48,0,0,0,16,48.8h0q1.22,0,1.31-1.44v-14Zm-3.38,0H11.09v14a1.46,1.46,0,0,0,1.48,1.44h0q1.27,0,1.36-1.44v-14Z"/><path class="cls-1" d="M51.2,6.71a3.58,3.58,0,0,1,3.63,3.53s0,.08,0,.12A3.55,3.55,0,0,1,51.2,14a3.43,3.43,0,0,1-2.58-1.1,3.4,3.4,0,0,1-1.1-2.56A3.66,3.66,0,0,1,51.2,6.71Z"/><path class="cls-2" d="M53.74,48.42c-.75,0-1.15-.38-1.29-1.2V30.69l-.08-.2a1.46,1.46,0,0,0-1.17-.69,1.81,1.81,0,0,0-1.25.65l-.11.11V47.29c0,.79-.38,1.14-1.11,1.14s-1.15-.38-1.29-1.2v-28a1.89,1.89,0,0,0-.16-.79v-.1L47,18.11a.57.57,0,0,0-.38-.16h0a.73.73,0,0,0-.66.4,2.23,2.23,0,0,0-.24.72l-1.2,10.86a.42.42,0,0,1-.44.24H44c-.39,0-.7-.16-.7-.84l1.29-13.14V16c.06-.7.34-.75.59-.75H57.32c.31,0,.62.06.62.77V29.78c0,.41-.2.58-.62.58a.79.79,0,0,1-.85-.65V19.19a1.89,1.89,0,0,0-.16-.79.71.71,0,0,0-.63-.46.75.75,0,0,0-.25,0,.83.83,0,0,0-.42.39,1.87,1.87,0,0,0-.17.82V47.29c-.08,1-.6,1.14-1.09,1.14Z"/><path class="cls-3" d="M45.27,15.61h12a.38.38,0,0,1,.18,0h0s.07.08.07.37V29.74a.45.45,0,0,1,0,.2.55.55,0,0,1-.24,0c-.27,0-.36-.06-.42-.28V19.15a2.28,2.28,0,0,0-.2-1,1.06,1.06,0,0,0-1-.65,1.14,1.14,0,0,0-.39.07,1.19,1.19,0,0,0-.6.55h0a2.22,2.22,0,0,0-.19,1V47.25c-.07.73-.35.79-.75.79s-.79-.15-.92-.83V30.46l-.15-.2a1.81,1.81,0,0,0-1.47-.84,2.16,2.16,0,0,0-1.52.76l-.21.22V47.24c0,.75-.34.81-.72.81a.87.87,0,0,1-.92-.83v-28a2.32,2.32,0,0,0-.14-.81l.1-.16-.48-.42a.94.94,0,0,0-.58-.25h-.08a1.12,1.12,0,0,0-1,.62,2.61,2.61,0,0,0-.28.86l-1.1,10.67H44c-.16,0-.26,0-.26-.43L45,16.22V16a.61.61,0,0,1,.09-.33h.12m0-.75q-.86,0-1,1v.19L43,29.26q0,1.12,1,1.22h.24a.8.8,0,0,0,.81-.57l1.19-10.84a1.81,1.81,0,0,1,.19-.58.37.37,0,0,1,.31-.22h0a.21.21,0,0,1,.13.06h0a.52.52,0,0,1,.14.2,1.5,1.5,0,0,1,.12.63V47.29a1.58,1.58,0,0,0,1.65,1.51h0q1.39,0,1.48-1.51V30.73a1.46,1.46,0,0,1,1-.54,1.11,1.11,0,0,1,.86.54V47.29a1.58,1.58,0,0,0,1.65,1.51h0q1.34,0,1.46-1.51V19.18a1.47,1.47,0,0,1,.12-.63.46.46,0,0,1,.22-.22h.12c.11,0,.21.08.29.24a1.51,1.51,0,0,1,.12.63V29.79a1.08,1.08,0,0,0,1.15,1h0a.9.9,0,0,0,1-1V16c0-.76-.33-1.15-1-1.15h-12Z"/><path class="cls-4" d="M20,17.74l5.16,10.67a1,1,0,0,1,.07.19q.53,1.34-.56,1.87h0a1.43,1.43,0,0,1-1.93-.6l0,0L17.35,19.52A1.3,1.3,0,0,0,17,19.1a.28.28,0,0,0,0-.1c-.1,0-.19.16-.29.39L22.53,37.1a.57.57,0,0,1-.5.63H6.61A.56.56,0,0,1,6,37.11l5.77-17.73a1.43,1.43,0,0,0-.12-.27,2.24,2.24,0,0,0-.19.39L7.85,30.21A1.38,1.38,0,0,1,6.08,31L6,31a1.31,1.31,0,0,1-.93-1.75V29L8.63,17.74A1.22,1.22,0,0,1,9.77,17h9.11a1.17,1.17,0,0,1,1.14.73Z"/><path class="cls-2" d="M35.45,48.57c-.78,0-.8-.33-.82-.51V40.14h1.81v8C36.4,48.26,36.22,48.57,35.45,48.57Zm-3,0c-.75,0-.78-.33-.79-.51V40.14h1.78v8c0,.18-.22.48-1,.48Z"/><path class="cls-3" d="M36.06,40.51V48c0,.1-.17.22-.64.22s-.43-.08-.43-.08A.18.18,0,0,1,35,48V40.51h1.06m-3,0L33,48c0,.1-.16.21-.64.21a.71.71,0,0,1-.4-.07h0a.2.2,0,0,1,0-.07V40.51h1m3.79-.75h-2.5v8.33c0,.57.45.85,1.19.85s1.24-.28,1.39-.85V39.76Zm-3,0H31.23v8.33c0,.57.44.85,1.17.85h0q1.17,0,1.36-.85V39.76Z"/><path class="cls-1" d="M44.65,28.17h0a1.16,1.16,0,0,0-1.44-.32l-5,2.56-1.49.71H31.16l-1.51-.71-5-2.56a1.16,1.16,0,0,0-1.44.32h0q-.49.61.27,1.1l.15.07L30.41,33h.07l.49.28-2.69,9.26c0,.23.13.34.39.34h10.6q.46,0,.46-.34l-2.85-9.16h-.16l.62-.35h.07l6.82-3.7.12-.07Q45.16,28.78,44.65,28.17Z"/><path class="cls-1" d="M36.76,27.49a2.41,2.41,0,0,1-.83,1.85A2.66,2.66,0,0,1,34,30.1a2.83,2.83,0,0,1-2-.76,2.48,2.48,0,0,1-.78-1.85A2.58,2.58,0,0,1,32,25.63a2.89,2.89,0,0,1,2-.73,2.71,2.71,0,0,1,1.92.73,2.51,2.51,0,0,1,.83,1.85Z"/></svg>