<svg id="Layer_1" data-name="Layer 1" xmlns="http://www.w3.org/2000/svg" viewBox="0 0 63.2 52.18"><defs><style>.cls-1{fill:#f6d056;}.cls-2{fill:#414042;}.cls-3{fill:#f4cfb3;}.cls-4{fill:#45a5da;}.cls-5{fill:#fff;}.cls-6{fill:#f15f2e;}.cls-7{fill:#8dc63f;}.cls-8{fill:#f55;}.cls-9{fill:#ddd;}.cls-10{fill:#6cc8dd;}.cls-11{fill:#b2b2b2;}</style></defs><title>iSHOP Dashboard_Elements</title><path class="cls-1" d="M18.64,4.78C18.67,6,17.15,6.26,16,6.26c-.89,0-2.15.16-2.35-.69a.86.86,0,0,1,.45-1,1,1,0,0,1-.36-.76c0-1.37,1.3-1.74,2.43-1.64a2.07,2.07,0,0,1,1.42.68c.57.72.13,1.07.13,1.07A.9.9,0,0,1,18.64,4.78Z"/><path class="cls-2" d="M15.23,6.48c-.78,0-1.59-.1-1.77-.87a1.1,1.1,0,0,1,.33-1.13,1.2,1.2,0,0,1-.24-.73,1.69,1.69,0,0,1,.54-1.3,2.78,2.78,0,0,1,2.13-.55,2.28,2.28,0,0,1,1.57.76,1.12,1.12,0,0,1,.3,1,1.08,1.08,0,0,1,.77,1.06h0a1.28,1.28,0,0,1-.37,1A3.66,3.66,0,0,1,16,6.47h-.79Zm.61-4.17a2.19,2.19,0,0,0-1.46.45,1.27,1.27,0,0,0-.4,1,.77.77,0,0,0,.27.59.22.22,0,0,1,0,.38.65.65,0,0,0-.32.79c.12.53.8.55,1.75.53H16a3.17,3.17,0,0,0,2.15-.6.85.85,0,0,0,.24-.65h0a.68.68,0,0,0-.68-.7.22.22,0,0,1-.13-.39s.25-.25-.16-.77a1.85,1.85,0,0,0-1.27-.6Z"/><path class="cls-1" d="M14.93,16a6.6,6.6,0,0,1-3.31-4.9,5.06,5.06,0,0,1,5-5.93c4-.22,6,3.62,5,7.26C20.84,14.83,17.7,17.61,14.93,16Z"/><path class="cls-2" d="M16.68,16.69a3.64,3.64,0,0,1-1.86-.51,6.82,6.82,0,0,1-3.41-5.07A5.66,5.66,0,0,1,12.6,6.79a5.46,5.46,0,0,1,4-1.84,4.91,4.91,0,0,1,4.24,1.82,6.32,6.32,0,0,1,.93,5.71,6.42,6.42,0,0,1-3.56,3.91A4.1,4.1,0,0,1,16.68,16.69Zm.24-11.32h-.31a5,5,0,0,0-3.68,1.69,5.23,5.23,0,0,0-1.09,4A6.39,6.39,0,0,0,15,15.8h0A3.32,3.32,0,0,0,18,16a6,6,0,0,0,3.31-3.63A6,6,0,0,0,20.49,7,4.43,4.43,0,0,0,16.92,5.37Z"/><path class="cls-3" d="M40.45,21.86l.36-2.27.88-.78,2.44.79-.07,1.56-1.35,1.6S40.46,23.15,40.45,21.86Z"/><path class="cls-2" d="M42,23a2.23,2.23,0,0,1-1.38-.37,1,1,0,0,1-.36-.78.18.18,0,0,1,0,0l.36-2.27a.19.19,0,0,1,.06-.11l.88-.78a.19.19,0,0,1,.19,0l2.44.79a.19.19,0,0,1,.13.19l-.07,1.56a.19.19,0,0,1,0,.12l-1.35,1.6a.19.19,0,0,1-.11.07A4.74,4.74,0,0,1,42,23Zm-1.35-1.14a.6.6,0,0,0,.22.47,2.66,2.66,0,0,0,1.75.24l1.26-1.5.06-1.35L41.74,19l-.75.66Z"/><path class="cls-1" d="M33.16,16.71s-.29,7.9,3.25,9.27C39.57,27.19,43,22.63,43,22.63l-2.64-.81s-1.26,1.75-2.18.8c-.77-.8-1.05-3-1.24-4.08s-.67-3.05-2-3.54C32.41,14.13,33.16,16.71,33.16,16.71Z"/><path class="cls-2" d="M37.54,26.39a3.3,3.3,0,0,1-1.2-.22c-3.55-1.37-3.4-8.8-3.38-9.43-.06-.21-.31-1.31.25-1.84.35-.34.93-.37,1.72-.09,1.06.37,1.81,1.65,2.18,3.7l.08.46c.18,1.07.48,2.87,1.11,3.52a.64.64,0,0,0,.52.22c.54,0,1.15-.73,1.34-1a.21.21,0,0,1,.23-.08l2.64.81a.21.21,0,0,1,.1.32C43,22.92,40.38,26.39,37.54,26.39ZM34,15a.71.71,0,0,0-.5.16c-.36.34-.21,1.17-.13,1.46a.21.21,0,0,1,0,.07c0,.08-.24,7.77,3.12,9.07,2.57,1,5.38-2.15,6.12-3l-2.21-.68a2.65,2.65,0,0,1-1.55,1,1,1,0,0,1-.85-.35c-.72-.74-1-2.54-1.22-3.73l-.08-.46c-.34-1.89-1-3.06-1.91-3.38A2.54,2.54,0,0,0,34,15Z"/><path class="cls-2" d="M22.7,45.52l-2.48,2.16L21.34,49l.57-.49A1.19,1.19,0,0,0,22,49.72L24,52s1-.72.71-1.38-1.37-2-.66-3.27l.71-1.22Z"/><path class="cls-2" d="M23.94,52.18l-2.06-2.38a1.11,1.11,0,0,1-.25-.91l-.31.27L20,47.66l2.65-2.3,2.27.68-.79,1.38c-.54.94.05,2,.44,2.71.09.16.17.31.22.43.34.75-.71,1.52-.76,1.55ZM22.35,47.9l-.33.64a1.06,1.06,0,0,0,.06,1.08L24,51.81c.23-.19.76-.69.57-1.13-.05-.11-.13-.25-.21-.41-.42-.76-1.06-1.92-.44-3l.62-1.07-1.78-.53-2.32,2,.94,1.08Z"/><path class="cls-2" d="M34.6,48.41l0,3.37h1.75V51a1.22,1.22,0,0,0,1,.77h3.09s.13-1.26-.58-1.47-2.5-.33-3-1.7l-.47-1.37Z"/><path class="cls-2" d="M40.44,52H37.35a1.16,1.16,0,0,1-.8-.32v.1a.21.21,0,0,1-.21.21H34.59a.21.21,0,0,1-.21-.21l0-3.37a.21.21,0,0,1,.1-.18l1.83-1.15a.21.21,0,0,1,.32.11l.47,1.37c.34,1,1.54,1.27,2.34,1.44l.49.12c.86.26.74,1.64.73,1.7A.21.21,0,0,1,40.44,52Zm-4.1-1.21a.21.21,0,0,1,.2.14s.26.63.81.64h2.88c0-.32-.05-.94-.44-1.06l-.45-.11c-.83-.18-2.23-.48-2.65-1.72l-.38-1.11-1.5.94v3h1.33V51a.21.21,0,0,1,.17-.21Z"/><path class="cls-4" d="M34.59,30.08s.72,1.44,1.2,5.75c.7,6.28,1.58,13,1.58,13l-3.18.34a46,46,0,0,0-4.9-15.89C26,26.75,34.59,30.08,34.59,30.08Z"/><path class="cls-2" d="M34.19,49.39a.22.22,0,0,1-.22-.2,46.29,46.29,0,0,0-4.87-15.8c-.88-1.76-1-3-.36-3.73,1.38-1.52,5.74.15,5.93.22a.22.22,0,0,1,.12.1c0,.06.74,1.52,1.22,5.82.69,6.2,1.57,12.93,1.57,13a.22.22,0,0,1-.19.24l-3.18.34ZM30.66,29.45a2.13,2.13,0,0,0-1.59.49c-.51.57-.37,1.66.42,3.24a47.71,47.71,0,0,1,4.9,15.75l2.74-.29c-.16-1.21-.93-7.21-1.55-12.79a21.62,21.62,0,0,0-1.15-5.6A12.31,12.31,0,0,0,30.66,29.45Z"/><path class="cls-4" d="M31.09,29.59s0,8.11-.85,10.3c-1.12,3-5.88,7.68-5.88,7.68l-1.91-2.36a13.78,13.78,0,0,0,3.38-7.11c.19-2-1-4.82-1.1-6.21C24.42,24.59,31.09,29.59,31.09,29.59Z"/><path class="cls-2" d="M24.37,47.79h0a.22.22,0,0,1-.16-.08l-1.91-2.36a.22.22,0,0,1,0-.28,13.66,13.66,0,0,0,3.32-7A12.45,12.45,0,0,0,25,34.16a12.25,12.25,0,0,1-.47-2.26c-.09-2.08.38-3.4,1.38-3.94,2-1,5.18,1.35,5.32,1.45a.22.22,0,0,1,.09.17c0,.33,0,8.18-.86,10.37-1.12,3-5.73,7.57-5.93,7.76A.22.22,0,0,1,24.37,47.79Zm-1.62-2.57,1.64,2c.85-.86,4.69-4.84,5.66-7.44.74-2,.83-9.13.83-10.11-.52-.37-3.21-2.18-4.77-1.35-.85.45-1.24,1.64-1.15,3.53A12.25,12.25,0,0,0,25.41,34a12.71,12.71,0,0,1,.64,4.07A13.72,13.72,0,0,1,22.74,45.22Z"/><path class="cls-1" d="M24.81,32.48a.22.22,0,0,1-.21-.16s-1-3.65-2.34-14.45A2.53,2.53,0,0,1,24,15a20.48,20.48,0,0,1,5.59-.68,29.06,29.06,0,0,1,3.58.21,2.77,2.77,0,0,1,2.15,1.24c1.38,2.12.18,6.15,0,6.59l0,9.59a.22.22,0,0,1-.21.22Z"/><path class="cls-2" d="M29.63,14.55a28.56,28.56,0,0,1,3.55.21c4.31.44,2,7.59,2,7.59l0,9.63-10.34.29s-1-3.51-2.33-14.42a2.32,2.32,0,0,1,1.62-2.63,20.66,20.66,0,0,1,5.53-.67m0-.43A20.7,20.7,0,0,0,24,14.8a2.74,2.74,0,0,0-1.93,3.1c1.3,10.82,2.3,14.34,2.34,14.49a.43.43,0,0,0,.42.31h0l10.34-.29a.43.43,0,0,0,.42-.43l0-9.56c.18-.58,1.33-4.59-.08-6.74a3,3,0,0,0-2.31-1.34,28.87,28.87,0,0,0-3.6-.21Z"/><path class="cls-1" d="M32.24,14.76h.93c4.31.44,2,7.59,2,7.59l0,9.63L32.31,32l.85-9.65S35,16.29,32.24,14.76Z"/><path class="cls-5" d="M28.13,14.84s1.62,15.25,1.69,17.43l2.42-.06L32.36,15S28.91,14.45,28.13,14.84Z"/><path class="cls-2" d="M29.82,32.48a.22.22,0,0,1-.22-.21c-.06-2.14-1.67-17.26-1.68-17.41a.22.22,0,0,1,.12-.22c.81-.41,4,.05,4.35.1a.22.22,0,0,1,.18.22l-.12,17.24a.22.22,0,0,1-.21.21l-2.42.06ZM28.37,15C28.55,16.68,29.89,29.4,30,32L32,32l.11-16.84A14.4,14.4,0,0,0,28.37,15Z"/><path class="cls-3" d="M28.13,9.34v5.5a4.33,4.33,0,0,0,2.67.78A2,2,0,0,0,32.36,15l0-5.14Z"/><path class="cls-2" d="M30.63,15.84A4.49,4.49,0,0,1,28,15l-.08-.06V9.1l4.61.53,0,5.4,0,.06a2.15,2.15,0,0,1-1.72.75Zm-2.28-1.11a4.21,4.21,0,0,0,2.45.67,1.89,1.89,0,0,0,1.34-.51l0-4.87-3.75-.43Z"/><path class="cls-3" d="M26.72,7.19c.29,0,.79.64,1.15,1.13-.17-1.64-.37-3.69-.37-3.69a18.62,18.62,0,0,1,4.2-1.31,17.55,17.55,0,0,1,3.94,1.31l0,3.78s.06,5.37-3.27,5.37a5.28,5.28,0,0,1-4.3-3.49.94.94,0,0,1-1-.54C26.22,8.2,26.14,7.15,26.72,7.19Z"/><path class="cls-2" d="M32.39,14A5.48,5.48,0,0,1,28,10.52a1.18,1.18,0,0,1-1-.66c-.69-1.21-.94-2.2-.67-2.64A.52.52,0,0,1,26.74,7h0c.16,0,.39.1.84.62-.15-1.46-.3-2.94-.3-2.94l0-.16.15-.06A18.5,18.5,0,0,1,31.69,3.1h0a17.28,17.28,0,0,1,4,1.33l.13.06,0,3.91c0,.13,0,3.24-1.49,4.77A2.71,2.71,0,0,1,32.39,14Zm-4.16-3.95.06.16a5,5,0,0,0,4.1,3.36,2.29,2.29,0,0,0,1.68-.69c1.38-1.4,1.37-4.43,1.37-4.46l0-3.64A16.1,16.1,0,0,0,31.7,3.54h0a17.18,17.18,0,0,0-4,1.24c.05.51.21,2.16.36,3.53l.08.8-.47-.65c-.74-1-1-1-1-1s-.08,0-.1,0c-.12.19,0,.94.68,2.2a.73.73,0,0,0,.78.43Z"/><circle class="cls-2" cx="34.46" cy="7.48" r="0.39"/><circle class="cls-2" cx="30.86" cy="7.51" r="0.39"/><path class="cls-2" d="M33,11.45h-.21c-.46,0-1.32-.41-1.34-1.07a.14.14,0,0,1,.13-.14h0a.14.14,0,0,1,.14.13c0,.49.78.76,1.09.8a1.31,1.31,0,0,0,.85-.16.14.14,0,0,1,.16.22A1.49,1.49,0,0,1,33,11.45Z"/><path class="cls-3" d="M6.63,31.77a5.06,5.06,0,0,0,.19,3.29c.36.67,1.46,1,1.28-.09-.12-.75-.28-1.22.14-1.62s.73.33.77.08c.16-.89-.73-1.41-.76-1.63a11.41,11.41,0,0,1,.53-1.18L7.09,30A10.05,10.05,0,0,0,6.63,31.77Z"/><path class="cls-2" d="M7.73,35.93a1.42,1.42,0,0,1-1.13-.76,4.94,4.94,0,0,1-.25-3.23l0-.22A10.35,10.35,0,0,1,6.86,30l.08-.23,2.2.76L9,30.74a10.25,10.25,0,0,0-.47,1l.1.11a1.84,1.84,0,0,1,.63,1.58.32.32,0,0,1-.17.24.48.48,0,0,1-.45-.08.73.73,0,0,0-.23-.1c-.25.24-.22.5-.11,1.11l0,.29c.12.71-.24.91-.4,1A.68.68,0,0,1,7.73,35.93Zm-.86-4.12,0,.21A4.5,4.5,0,0,0,7,34.94c.19.35.59.54.75.49s.1-.24.07-.41l0-.28c-.11-.6-.2-1.12.27-1.56a.59.59,0,0,1,.71,0,1.59,1.59,0,0,0-.51-.91A.84.84,0,0,1,8,31.84v-.08l0-.07,0-.06c.05-.14.17-.44.37-.86l-1.18-.41A9.69,9.69,0,0,0,6.88,31.81Z"/><path class="cls-3" d="M16.65,35.21l-.3,14.51,2.06,1.46,2.21-.58a4.55,4.55,0,0,1-2-1.21c-.8-1.25,1.48-8.16,1-11.59C19.52,36.81,16.65,35.21,16.65,35.21Z"/><path class="cls-2" d="M18.36,51.41l-2.24-1.58v-.11l.31-14.87.31.18c.3.17,3,1.69,3.11,2.74a25.42,25.42,0,0,1-.64,6.79c-.36,2.05-.74,4.17-.39,4.72a4.2,4.2,0,0,0,1.84,1.12l.7.23Zm-1.8-1.81,1.88,1.34,1.47-.39a3.5,3.5,0,0,1-1.45-1c-.42-.65-.15-2.34.33-5a25.21,25.21,0,0,0,.64-6.65c-.08-.58-1.52-1.61-2.58-2.25Z"/><path class="cls-6" d="M19.57,32.13a30.29,30.29,0,0,1-.72,14.79l-2.66,0a53.57,53.57,0,0,0-1-14.17C14.92,31.59,19.33,30.91,19.57,32.13Z"/><path class="cls-2" d="M16.19,47.18a.22.22,0,0,1-.22-.24,53.82,53.82,0,0,0-1-14.1.79.79,0,0,1,.31-.78,4.85,4.85,0,0,1,3.8-.65.92.92,0,0,1,.71.67h0A30.8,30.8,0,0,1,19,47a.22.22,0,0,1-.2.14l-2.66,0ZM18,31.7a4.27,4.27,0,0,0-2.46.68c-.21.19-.18.32-.17.37a54.58,54.58,0,0,1,1,14l2.27,0a30.66,30.66,0,0,0,.67-14.54h0c0-.18-.25-.29-.42-.35A2.94,2.94,0,0,0,18,31.7Z"/><path class="cls-3" d="M16.13,32s.12,8.8-1.85,10.46c-.56.48-3,2-4.23,3C8.39,46.83,8.66,47.12,8,48.75a10.48,10.48,0,0,1-.59-1.59,6.32,6.32,0,0,1,.21-2.57,17.13,17.13,0,0,1,4.78-3.83c.45-.21-.94-8.81-.94-8.81Z"/><path class="cls-2" d="M8,49c-.19,0-.23-.09-.63-1.3-.06-.2-.12-.37-.15-.44a6.19,6.19,0,0,1,.2-2.7v0l0,0a17.23,17.23,0,0,1,4.8-3.86c.16-.59-.39-4.82-1-8.6l0-.25,5.16,0V32c0,.36.09,8.92-1.93,10.63-.25.21-.83.61-1.51,1.06-.91.62-2,1.38-2.72,1.95a4,4,0,0,0-1.64,2.22c-.1.28-.21.59-.38,1L8.12,49Zm-.17-4.28a5.73,5.73,0,0,0-.2,2.39c0,.07.09.25.15.46L8,48.2l.18-.5a4.34,4.34,0,0,1,1.77-2.41c.69-.57,1.84-1.35,2.75-2,.67-.45,1.25-.84,1.47-1,1.7-1.44,1.77-8.74,1.77-10.08l-4.22,0c.1.63.37,2.35.6,4.08.6,4.51.38,4.61.18,4.71A16.84,16.84,0,0,0,7.79,44.69Z"/><path class="cls-6" d="M11.18,40c1-1.81.25-8,.25-8L16.6,32s.05,7.88-1.81,10.1a18.41,18.41,0,0,1-4.39,3.67L8.59,43.5C9.31,42.46,10.61,41,11.18,40Z"/><path class="cls-2" d="M10.4,46a.22.22,0,0,1-.17-.08l-1.8-2.28a.22.22,0,0,1,0-.26c.29-.43.67-.92,1.07-1.44a21.17,21.17,0,0,0,1.5-2.1c1-1.72.23-7.81.23-7.87a.22.22,0,0,1,.05-.17.21.21,0,0,1,.16-.07l5.17.07a.22.22,0,0,1,.21.22c0,.32,0,8-1.86,10.24a16.15,16.15,0,0,1-3.79,3.27l-.64.43A.22.22,0,0,1,10.4,46ZM8.86,43.5l1.58,2,.48-.32A15.79,15.79,0,0,0,14.62,42c1.62-1.94,1.75-8.49,1.76-9.75l-4.71-.06c.13,1.19.64,6.23-.31,7.89h0a21.36,21.36,0,0,1-1.54,2.15C9.47,42.67,9.14,43.11,8.86,43.5ZM11.18,40h0Z"/><path class="cls-7" d="M19.51,18.76s1.77.24,2.26,3.08c.26,1.53,0,2.62.5,3.28.38.49,1.35.36,2.08-.16a4.57,4.57,0,0,1,1.58-.64l1.32,1.87a3.6,3.6,0,0,1-1.15,1.74c-1.35.92-3.6,1.23-4.92,0S18.59,20.1,19.51,18.76Z"/><path class="cls-2" d="M23.45,29a3.44,3.44,0,0,1-2.44-.9c-1.51-1.46-2.67-8-1.68-9.41l.08-.11.13,0c.08,0,1.94.29,2.45,3.26a11.74,11.74,0,0,1,.14,1.63A2.7,2.7,0,0,0,22.44,25c.28.36,1.13.26,1.78-.21a4.75,4.75,0,0,1,1.67-.68l.14,0,1.46,2.07,0,.1a3.79,3.79,0,0,1-1.24,1.86A5,5,0,0,1,23.45,29ZM19.62,19c-.73,1.51.4,7.47,1.7,8.73s3.31.92,4.65,0a3.26,3.26,0,0,0,1-1.53l-1.17-1.67a4.18,4.18,0,0,0-1.36.57c-.76.55-1.89.75-2.37.12a3,3,0,0,1-.4-1.8,11.4,11.4,0,0,0-.14-1.58C21.18,19.67,20,19.13,19.62,19Z"/><path class="cls-2" d="M17.46,49.58c1,.3,1.12-.51,1.12-.51,1.66.85,2.62,1.43,2.76,1.49.46.2.43.89.43.89v.35H16.38a8.79,8.79,0,0,1-.27-2.19C16.11,49.37,16.46,49.27,17.46,49.58Z"/><path class="cls-2" d="M8,45.95c.25,1.12,1,.88,1,.88.13,2.06.19,3.27.21,3.44.07.55-.56.85-.56.85l-.31.17L5.43,45.93a8.74,8.74,0,0,1,1.93-1.46C7.57,44.35,7.7,44.8,8,45.95Z"/><path class="cls-7" d="M11.45,33.93s-1-.36-.83-3.17C10.7,29.75,11,20,12,19.39a10,10,0,0,1,4.36-1.29,9,9,0,0,1,3.19.66,6.39,6.39,0,0,1,.82,5.72c-.29,1.06.36,6,.18,7a7.17,7.17,0,0,1-.68,1.85Z"/><path class="cls-2" d="M11.42,34.15h0c-.12,0-1.19-.5-1-3.39,0-.14,0-.46,0-.89.35-7,.77-10.21,1.39-10.64a10.12,10.12,0,0,1,4.48-1.33,9.17,9.17,0,0,1,3.27.68l0,0,0,0a6.56,6.56,0,0,1,.87,5.92,20.41,20.41,0,0,0,.09,3.91,19.43,19.43,0,0,1,.1,3A7.32,7.32,0,0,1,20,33.4l-.06.1Zm4.86-15.83a9.8,9.8,0,0,0-4.2,1.25c-.32.22-.79,2.19-1.2,10.3,0,.44,0,.76,0,.9-.17,2.3.5,2.84.65,2.93l8.21-.62a6.81,6.81,0,0,0,.6-1.68,20.93,20.93,0,0,0-.11-2.93,19.41,19.41,0,0,1-.07-4.06,6.32,6.32,0,0,0-.75-5.49,8.91,8.91,0,0,0-3.06-.62Z"/><path class="cls-3" d="M15.47,14.36l-.25,4a2.14,2.14,0,0,0,1.73.76,1.07,1.07,0,0,0,1-.69L17.74,15Z"/><path class="cls-2" d="M16.84,19.32A2.35,2.35,0,0,1,15,18.48l0-.06.27-4.32,2.69.7.2,3.65v0a1.28,1.28,0,0,1-1.18.84Zm-1.4-1.05a1.91,1.91,0,0,0,1.5.61.85.85,0,0,0,.78-.51l-.18-3.25-1.87-.49Z"/><path class="cls-3" d="M13.19,12.62c.21,3.14,2,5.2,3.79,5.2s3.64-2,3.94-5.14S19,7.86,17,7.86,13,9.17,13.19,12.62Z"/><path class="cls-2" d="M17,18c-1.79,0-3.78-2-4-5.4a4.91,4.91,0,0,1,1.09-3.78,4,4,0,0,1,3-1.2,4.1,4.1,0,0,1,3,1.33,4.65,4.65,0,0,1,1.08,3.72C20.82,16,18.77,18,17,18Zm0-10a3.56,3.56,0,0,0-2.65,1.07,4.44,4.44,0,0,0-1,3.46h0c.21,3.09,2,5,3.58,5s3.43-1.85,3.73-4.94a4.28,4.28,0,0,0-1-3.39A3.67,3.67,0,0,0,17,8.08Z"/><ellipse class="cls-2" cx="15.59" cy="12.87" rx="0.41" ry="0.42"/><ellipse class="cls-2" cx="19.19" cy="12.83" rx="0.38" ry="0.42"/><path class="cls-2" d="M16.23,13a.18.18,0,0,1-.17-.11.54.54,0,0,0-.48-.25.57.57,0,0,0-.42.14.82.82,0,0,1-.42.19.66.66,0,0,1-.62-.34.18.18,0,0,1,.32-.18s.1.18.26.16a.48.48,0,0,0,.24-.12.9.9,0,0,1,.65-.21.89.89,0,0,1,.8.47.18.18,0,0,1-.09.24Z"/><path class="cls-2" d="M18.51,13h-.07a.18.18,0,0,1-.09-.23.9.9,0,0,1,1.37-.25.42.42,0,0,0,.22.11.33.33,0,0,0,.26-.07.18.18,0,0,1,.26.24.67.67,0,0,1-.56.18.76.76,0,0,1-.4-.19.55.55,0,0,0-.83.11A.18.18,0,0,1,18.51,13Z"/><path class="cls-8" d="M18.3,15.42a1.6,1.6,0,0,1-.83,0,1.43,1.43,0,0,0-.56,0,2,2,0,0,1-1,0s.35,1,1.22,1S18.3,15.42,18.3,15.42Z"/><path class="cls-7" d="M6.91,27.14c1.3-4.74,3.47-7,4.51-7.5,1.43-.73,2.25.78,1.86,1.77-.66,1.68-1.56,2.8-2.71,5.44-1.3,3-.84,3.85-2.16,4.69H6.49A9.89,9.89,0,0,1,6.91,27.14Z"/><path class="cls-2" d="M8.48,31.76H6.26l0-.23a3.41,3.41,0,0,0,0-.63,8.91,8.91,0,0,1,.46-3.82h0C8,22.23,10.23,20,11.32,19.44a1.47,1.47,0,0,1,1.73.14,1.8,1.8,0,0,1,.44,1.91,19.11,19.11,0,0,1-1.13,2.28,34.14,34.14,0,0,0-1.58,3.17,19.56,19.56,0,0,0-.92,2.64,3,3,0,0,1-1.32,2.14Zm-1.77-.43H8.35c.69-.46.82-.91,1.09-1.86a20,20,0,0,1,.94-2.7A34.49,34.49,0,0,1,12,23.56a18.76,18.76,0,0,0,1.1-2.23,1.37,1.37,0,0,0-.32-1.43,1,1,0,0,0-1.24-.07c-1,.49-3.11,2.65-4.4,7.37a8.54,8.54,0,0,0-.45,3.66C6.69,31,6.71,31.16,6.71,31.32Z"/><path class="cls-9" d="M56.1,48.82a.43.43,0,0,0,.39-.63l-6.08-11.8a.43.43,0,1,0-.77.4l6.08,11.8A.44.44,0,0,0,56.1,48.82Z"/><path class="cls-2" d="M56.1,49a.59.59,0,0,1-.53-.32l-6.08-11.8a.6.6,0,0,1,.26-.8.6.6,0,0,1,.8.26l6.08,11.8a.6.6,0,0,1-.53.87ZM50,36.31a.27.27,0,0,0-.24.4l6.08,11.8a.28.28,0,0,0,.37.12.27.27,0,0,0,.12-.37l-6.08-11.8A.27.27,0,0,0,50,36.31Z"/><path class="cls-2" d="M54.8,50.56a1.49,1.49,0,1,0,1.49-1.49A1.49,1.49,0,0,0,54.8,50.56Zm.48,0a1,1,0,1,1,1,1A1,1,0,0,1,55.27,50.56Z"/><path class="cls-5" d="M55.3,50.33a1,1,0,0,1,.27-.48l.72.41.72-.41a1,1,0,0,1,.27.48l-.71.41v.79a1,1,0,0,1-.55,0v-.79Z"/><path class="cls-9" d="M55.27,48.9a.37.37,0,0,0,.37.37,1.68,1.68,0,0,0,.49.26,1.68,1.68,0,0,0,.49-.26A.37.37,0,0,0,57,48.9h0a.37.37,0,0,0-.37-.37h-1a.37.37,0,0,0-.37.37Z"/><path class="cls-2" d="M56.12,49.69a1.32,1.32,0,0,1-.54-.26.53.53,0,0,1,.06-1.05h1a.53.53,0,0,1,.06,1.05A1.32,1.32,0,0,1,56.12,49.69Zm-.49-1a.21.21,0,1,0,0,.41h.05l0,0a1.69,1.69,0,0,0,.4.23,2,2,0,0,0,.39-.23l0,0h.05a.21.21,0,1,0,0-.41Z"/><path class="cls-9" d="M51.91,37.63l-.68.68a.69.69,0,0,0,1,1l.85-.85"/><path class="cls-2" d="M51.71,39.65a.85.85,0,0,1-.6-1.45l.68-.68.23.23-.68.68a.53.53,0,0,0,.75.75l.85-.85.23.23-.85.85A.85.85,0,0,1,51.71,39.65Z"/><polygon class="cls-9" points="46.47 48.43 45.73 48.5 43.4 24.68 44.19 25.14 46.47 48.43"/><path class="cls-2" d="M45.58,48.68l0-.16L43.2,24.38l1.13.66v.08l2.3,23.45Zm-2-23.7,2.28,23.35.42,0L44,25.24Z"/><path class="cls-2" d="M41.6,42.24a8.55,8.55,0,0,0,3.91-.06A8.72,8.72,0,0,1,50.14,42c1.32.27-2.22,5.19-4.17,5.61s-5.36-.94-7.75-6C37.28,39.6,39.79,41.55,41.6,42.24Z"/><path class="cls-7" d="M52.59,40l-7.45-.16c-2.64-.54-2.77-4.34-2.77-4.34s-5-2.21-3.72.5c1.8,3.79,3.67,6.08,6,6.08h8a1,1,0,1,0,0-2.07Z"/><path class="cls-2" d="M52.59,42.37h-8c-2.21,0-4.18-2-6.19-6.22-.31-.65-.31-1.13,0-1.43.79-.81,3.53.34,4.08.58l.15.07v.16s.15,3.57,2.54,4.09l7.43.16a1.3,1.3,0,0,1,0,2.59ZM39.27,34.94a.71.71,0,0,0-.5.14c-.12.13-.08.42.12.84,1.92,4,3.73,5.93,5.72,5.93h8a.78.78,0,1,0,0-1.55h0l-7.5-.17c-2.51-.52-2.91-3.64-3-4.42A9.09,9.09,0,0,0,39.27,34.94Z"/><path class="cls-2" d="M43.22,24.67a.37.37,0,0,1-.46-.26c-.46-1.6,0-2.14.6-2.59.3-.23.39-.3.28-.69-.25-.91-2.27-.59-3-.41a.37.37,0,0,1-.2-.72h0c.34-.09,3.37-.84,3.87.93a1.22,1.22,0,0,1-.54,1.48c-.38.29-.7.55-.34,1.8a.37.37,0,0,1-.25.46Z"/><path class="cls-2" d="M43.12,24.82a.52.52,0,0,1-.49-.37c-.49-1.68.05-2.28.64-2.74.29-.23.31-.24.23-.54-.2-.73-2-.52-2.79-.31a.51.51,0,0,1-.63-.37.52.52,0,0,1,.35-.62h0c.38-.1,3.5-.86,4,1a1.35,1.35,0,0,1-.59,1.63c-.35.27-.62.49-.29,1.65a.51.51,0,0,1-.35.64h0Zm-.9-4.44c.72,0,1.4.16,1.55.72s0,.58-.33.84c-.56.44-1,.92-.55,2.44a.23.23,0,0,0,.28.16h0a.23.23,0,0,0,.15-.28c-.36-1.25-.08-1.58.39-1.95A1.07,1.07,0,0,0,44.22,21c-.45-1.61-3.29-.94-3.68-.84h0a.23.23,0,0,0-.15.28.23.23,0,0,0,.28.16A6.7,6.7,0,0,1,42.22,20.38Z"/><path class="cls-2" d="M44.4,50.07a2,2,0,1,0,2-2A2,2,0,0,0,44.4,50.07Zm.63,0a1.34,1.34,0,1,1,1.34,1.34A1.35,1.35,0,0,1,45,50.07Z"/><path class="cls-5" d="M45.07,49.76a1.34,1.34,0,0,1,.35-.64l1,.55,1-.55a1.35,1.35,0,0,1,.35.64l-.94.54v1.06a1.31,1.31,0,0,1-.73,0V50.3Z"/><path class="cls-7" d="M49.9,24s3.72,0,.15,4.07c-2.14,2.43-.33,6.49-.46,8.66a3.16,3.16,0,0,1-3,3.15H43.16c-1.72,0-1.62-1.44-1.53-3.16L42.27,24Z"/><path class="cls-2" d="M46.61,40.15H43.16a1.74,1.74,0,0,1-1.33-.48c-.58-.61-.53-1.66-.47-2.88v-.08l.66-13H49.9c.06,0,1.42,0,1.84.94s-.12,2-1.5,3.56-1,4-.65,6a12.13,12.13,0,0,1,.26,2.47A3.43,3.43,0,0,1,46.61,40.15Zm-4.1-15.88-.64,12.55c-.06,1.1-.1,2,.32,2.5a1.26,1.26,0,0,0,1,.31h3.45a2.93,2.93,0,0,0,2.72-2.91,11.81,11.81,0,0,0-.26-2.35c-.35-2.09-.79-4.68.77-6.46s1.61-2.58,1.42-3c-.28-.62-1.36-.64-1.37-.64Z"/><path class="cls-7" d="M43.46,38A2.69,2.69,0,0,0,46.08,40H49.3c1.08,0,1.24-1,1-2.05l-1.87-7.75a2.69,2.69,0,0,0-2.61-2.05H43.2a1.66,1.66,0,0,0-1.61,2.05Z"/><path class="cls-2" d="M49.3,40.29H46.08A2.94,2.94,0,0,1,43.21,38h0l-1.87-7.75a1.92,1.92,0,0,1,1.86-2.37h2.6a2.94,2.94,0,0,1,2.86,2.25l1.87,7.75a2.26,2.26,0,0,1-.2,1.92A1.26,1.26,0,0,1,49.3,40.29Zm-5.59-2.37a2.42,2.42,0,0,0,2.36,1.85H49.3a.75.75,0,0,0,.64-.26A1.81,1.81,0,0,0,50,38l-1.87-7.75a2.42,2.42,0,0,0-2.36-1.85H43.2a1.4,1.4,0,0,0-1.36,1.73Z"/><path class="cls-7" d="M54.48,42.8a.37.37,0,0,1-.35.47H47.37a.66.66,0,0,1-.64-.47L46,40.27a.37.37,0,0,1,.35-.47H53.1a.66.66,0,0,1,.63.47Z"/><path class="cls-2" d="M54.13,43.53H47.37a.93.93,0,0,1-.88-.66l-.75-2.53a.63.63,0,0,1,.6-.81H53.1a.93.93,0,0,1,.88.66l.75,2.53a.63.63,0,0,1-.6.81Zm-7.79-3.48a.11.11,0,0,0-.09,0,.11.11,0,0,0,0,.1L47,42.73a.41.41,0,0,0,.39.29h6.76a.11.11,0,0,0,.1-.14h0l-.75-2.53a.4.4,0,0,0-.39-.29Z"/><path class="cls-4" d="M50.69,33s-1.34.81-.91,1.29a3.22,3.22,0,0,1,1.11,1.45c.31.91,1.76.52,1.88.22S53.55,34.69,50.69,33Z"/><path class="cls-2" d="M51.81,36.43h-.06a1,1,0,0,1-1-.69,2.48,2.48,0,0,0-.85-1.19,2.28,2.28,0,0,1-.22-.2.48.48,0,0,1-.12-.4c.08-.53,1-1.08,1.07-1.14a.17.17,0,0,1,.18,0c2.5,1.52,2.47,2.46,2.17,3.11l0,.06C52.81,36.25,52.26,36.43,51.81,36.43Zm-1.11-3.27c-.33.22-.78.59-.82.84a.14.14,0,0,0,0,.12l.19.17a2.82,2.82,0,0,1,1,1.34.66.66,0,0,0,.63.44,1.31,1.31,0,0,0,.93-.24l0-.07C52.79,35.44,53.15,34.67,50.69,33.16Z"/><path class="cls-6" d="M52.2,39.53c-.35-.58-1.93-1.22-1.93-1.22l-1.94-.21s-.31,1.28.22,1.62c.84.53,2.17.25,2.23.66,0,.2.08.91.14,1.67h1.32A5,5,0,0,0,52.2,39.53Z"/><path class="cls-2" d="M52.24,42.22H50.92a.17.17,0,0,1-.17-.16c-.06-.9-.11-1.49-.13-1.65s-.41-.11-.64-.13a3.48,3.48,0,0,1-1.51-.4c-.62-.39-.33-1.66-.3-1.8a.17.17,0,0,1,.19-.13l1.94.21h0a5.3,5.3,0,0,1,2,1.29h0a4.45,4.45,0,0,1,.08,2.44l0,.19A.17.17,0,0,1,52.24,42.22Zm-1.16-.35h1v0a4.41,4.41,0,0,0,0-2.22,5,5,0,0,0-1.82-1.13l-1.76-.19c-.07.38-.13,1.09.17,1.28a3.22,3.22,0,0,0,1.36.35c.5.05.89.09.94.43C51,40.52,51,41,51.08,41.87Z"/><path class="cls-5" d="M53.39,43.84c-.27-.2-1.1-1-1.17-1.05s0-.36,0-.75H50.92c0,.63.09,1.3.11,1.72a.47.47,0,0,0,.47.45h1.85C53.51,44.21,53.62,44,53.39,43.84Z"/><path class="cls-2" d="M53.35,44.39H51.5a.65.65,0,0,1-.64-.61c0-.42-.07-1.09-.11-1.72a.17.17,0,0,1,.17-.19h1.32a.17.17,0,0,1,.17.2,3.41,3.41,0,0,0,0,.62c.43.41.94.88,1.13,1h0a.4.4,0,0,1,.19.45A.34.34,0,0,1,53.35,44.39ZM51.1,42.22c0,.58.08,1.15.1,1.54a.3.3,0,0,0,.29.28h1.85a.24.24,0,0,0-.06-.06h0c-.26-.19-1-.86-1.18-1.06s-.12-.28-.07-.7Z"/><path class="cls-6" d="M50.37,39.53c-.35-.58-1.93-1.22-1.93-1.22L46.5,38.1s-.31,1.28.22,1.62c.84.53,2.17.25,2.23.66,0,.2.08.91.14,1.67H50.4A5,5,0,0,0,50.37,39.53Z"/><path class="cls-2" d="M50.4,42.22H49.08a.17.17,0,0,1-.17-.16c-.07-1-.11-1.49-.13-1.65s-.41-.11-.64-.14a3.48,3.48,0,0,1-1.51-.4c-.62-.39-.33-1.66-.3-1.8a.17.17,0,0,1,.19-.13l1.94.21h0a5.31,5.31,0,0,1,2,1.29h0a4.45,4.45,0,0,1,.08,2.44l0,.19A.17.17,0,0,1,50.4,42.22Zm-1.16-.35h1v0a4.41,4.41,0,0,0,0-2.22,5,5,0,0,0-1.82-1.13l-1.76-.19c-.07.38-.13,1.09.17,1.28a3.22,3.22,0,0,0,1.36.35c.5.05.89.09.94.43C49.14,40.51,49.18,41,49.24,41.87Z"/><path class="cls-5" d="M51.56,43.84c-.27-.2-1.1-1-1.17-1.05s0-.36,0-.75H49.08c0,.63.08,1.3.11,1.72a.47.47,0,0,0,.47.45h1.85C51.67,44.21,51.79,44,51.56,43.84Z"/><path class="cls-2" d="M51.52,44.39H49.66a.65.65,0,0,1-.64-.61c0-.42-.07-1.09-.11-1.72a.17.17,0,0,1,.17-.18H50.4a.17.17,0,0,1,.17.2,3.39,3.39,0,0,0,0,.62c.33.32.92.87,1.13,1a.4.4,0,0,1,.19.45A.34.34,0,0,1,51.52,44.39Zm-2.25-2.17c0,.58.08,1.15.1,1.54a.3.3,0,0,0,.29.28h1.85a.25.25,0,0,0-.06-.06h0c-.28-.2-1.09-1-1.18-1.07s-.12-.27-.07-.7Zm1.24.45h0Z"/><rect class="cls-9" x="46.19" y="44.21" width="7.83" height="0.75" rx="0.09" ry="0.09"/><path class="cls-2" d="M53.94,44.3v.58H46.28V44.3h7.66m0-.17H46.28a.17.17,0,0,0-.17.17v.58a.17.17,0,0,0,.17.17h7.66a.17.17,0,0,0,.17-.17V44.3a.17.17,0,0,0-.17-.17Z"/><path class="cls-4" d="M46.87,33.3s-.1,1.14-.41,3.21c-.19,1.26-.46,2.4-.46,2.4l5.43.1s-.06-5.58-.69-6A3.33,3.33,0,0,0,49,32.64,3.06,3.06,0,0,0,46.87,33.3Z"/><path class="cls-2" d="M51.44,39.18h0L46,39.09a.17.17,0,0,1-.17-.21s.27-1.15.45-2.39c.3-2,.4-3.19.41-3.2a.17.17,0,0,1,0-.11A3.22,3.22,0,0,1,49,32.47a3.57,3.57,0,0,1,1.85.38c.65.45.75,4.82.76,6.16a.17.17,0,0,1-.17.18Zm-5.21-.44,5,.09c0-2.65-.27-5.46-.61-5.7A3.35,3.35,0,0,0,49,32.82a3.05,3.05,0,0,0-2,.57c0,.27-.14,1.38-.4,3.15C46.5,37.48,46.31,38.36,46.23,38.74Z"/><path class="cls-4" d="M47.39,32.31s2.62.55,3.43-.09c0,0,.52,1.69-.81,2C48.38,34.56,47.12,33.73,47.39,32.31Z"/><path class="cls-2" d="M49.28,34.46a2.26,2.26,0,0,1-1.6-.57,1.73,1.73,0,0,1-.46-1.62.17.17,0,0,1,.21-.14c.71.15,2.68.42,3.28-.06a.17.17,0,0,1,.27.09,2.31,2.31,0,0,1-.09,1.62,1.24,1.24,0,0,1-.84.59A3.56,3.56,0,0,1,49.28,34.46Zm-1.74-1.95a1.33,1.33,0,0,0,.38,1.13A2.24,2.24,0,0,0,50,34a.9.9,0,0,0,.62-.42,1.73,1.73,0,0,0,.11-1.12A6.64,6.64,0,0,1,47.54,32.51Z"/><path class="cls-10" d="M47.59,36a.69.69,0,0,0-.64-.43h5.82a.47.47,0,0,1,.52.38.85.85,0,0,1-.16.8.71.71,0,0,1-.33.2H47.24l.2-.2A.69.69,0,0,0,47.59,36Z"/><path class="cls-2" d="M52.83,37.09h-6l.48-.48a.53.53,0,0,0-.37-.9v-.32h5.82a.63.63,0,0,1,.67.48,1,1,0,0,1-.19,1,.86.86,0,0,1-.41.25Zm-5.21-.32h5.16a.55.55,0,0,0,.23-.15.69.69,0,0,0,.13-.64c-.07-.21-.15-.27-.37-.27H47.62a.85.85,0,0,1,.12.2h0A.85.85,0,0,1,47.62,36.77Z"/><path class="cls-4" d="M48.11,36.1a9.92,9.92,0,0,0-.42-2.3.66.66,0,0,0-.81-.5c-.79.16-1.23,1.84-.55,3.57C46.87,38.28,48.11,37.48,48.11,36.1Z"/><path class="cls-2" d="M47.12,37.78c-.26,0-.67-.13-1-.85a4,4,0,0,1,0-3.21,1.08,1.08,0,0,1,.71-.6.83.83,0,0,1,1,.63,9.56,9.56,0,0,1,.43,2.34,1.6,1.6,0,0,1-1,1.67ZM47,33.46l-.14,0a.78.78,0,0,0-.47.42,3.7,3.7,0,0,0,.05,2.92c.17.45.43.67.71.62a1.29,1.29,0,0,0,.74-1.33,9.24,9.24,0,0,0-.42-2.25A.48.48,0,0,0,47,33.46Z"/><path class="cls-9" d="M52.82,38.67l1.95-1.94a.69.69,0,0,0-.48-1.18H45.9a.69.69,0,0,0-.49.2l-2.19,2.19a.69.69,0,1,0,1,1l2-2h6.43l-.78.78"/><path class="cls-2" d="M43.7,39.28a.85.85,0,0,1-.6-1.45l2.19-2.19a.85.85,0,0,1,.6-.25h8.39a.85.85,0,0,1,.58,1.45l-1.95,1.94-.23-.23,1.95-1.94a.53.53,0,0,0-.37-.9H45.9a.53.53,0,0,0-.37.15l-2.19,2.19a.53.53,0,0,0,0,.75.54.54,0,0,0,.75,0l2-2a.16.16,0,0,1,.11,0h6.43a.16.16,0,0,1,.11.28l-.78.78-.23-.23.5-.5h-6L44.3,39A.84.84,0,0,1,43.7,39.28Z"/><path class="cls-9" d="M48,48.82a.43.43,0,0,0,.39-.63l-6.08-11.8a.43.43,0,0,0-.77.4l6.08,11.8A.43.43,0,0,0,48,48.82Z"/><path class="cls-2" d="M48,49a.59.59,0,0,1-.53-.32l-6.08-11.8a.6.6,0,1,1,1.06-.55l6.08,11.8A.6.6,0,0,1,48,49ZM42,36.3a.27.27,0,0,0-.24.4l6.08,11.8a.27.27,0,1,0,.49-.25L42.2,36.45a.27.27,0,0,0-.16-.14Z"/><path class="cls-2" d="M46.73,50.56a1.49,1.49,0,1,0,1.49-1.49A1.49,1.49,0,0,0,46.73,50.56Zm.48,0a1,1,0,1,1,1,1A1,1,0,0,1,47.21,50.56Z"/><path class="cls-5" d="M47.24,50.33a1,1,0,0,1,.27-.48l.72.41.72-.41a1,1,0,0,1,.27.48l-.71.41v.79a1,1,0,0,1-.55,0v-.79Z"/><path class="cls-9" d="M47.2,48.9a.37.37,0,0,0,.37.37,1.68,1.68,0,0,0,.49.26,1.68,1.68,0,0,0,.49-.26.37.37,0,0,0,.37-.37h0a.37.37,0,0,0-.37-.37h-1a.37.37,0,0,0-.37.37Z"/><path class="cls-2" d="M48.06,49.69a1.32,1.32,0,0,1-.54-.26.53.53,0,0,1,.06-1.05h1a.53.53,0,0,1,.06,1.05A1.32,1.32,0,0,1,48.06,49.69Zm-.49-1a.21.21,0,1,0,0,.41h.05l0,0a1.69,1.69,0,0,0,.4.23,2,2,0,0,0,.39-.23l0,0h.05a.21.21,0,0,0,0-.41Z"/><polygon class="cls-11" points="38.83 48.24 38.09 48.32 35.76 24.49 36.55 24.95 38.83 48.24"/><polygon class="cls-9" points="38.83 48.24 38.09 48.32 35.76 24.49 36.55 24.95 38.83 48.24"/><path class="cls-2" d="M37.95,48.49,35.57,24.2l1.13.66v.08L39,48.39Zm-2-23.7,2.28,23.35.42,0L36.4,25Z"/><path class="cls-2" d="M36.77,50.07a2,2,0,1,0,2-2A2,2,0,0,0,36.77,50.07Zm.63,0a1.34,1.34,0,1,1,1.34,1.34A1.34,1.34,0,0,1,37.4,50.07Z"/><path class="cls-5" d="M37.44,49.76a1.34,1.34,0,0,1,.35-.64l1,.55,1-.55a1.34,1.34,0,0,1,.35.64l-.94.54v1.06a1.3,1.3,0,0,1-.73,0V50.3Z"/><path class="cls-7" d="M48.41,24H39.07c-1.89,0-2.9,2.17-2.1,6l.55,4.09c0,3.13,1.94,3.08,3.71,3.13a2.56,2.56,0,0,0,2.47-3.11c-.29-2-1.9-3.36-.57-6.72C44.23,24.65,48.41,24,48.41,24Z"/><path class="cls-2" d="M41.31,37.5h-.25c-1.69,0-3.79-.1-3.79-3.37l-.55-4.07c-.51-2.45-.32-4.39.55-5.46a2.26,2.26,0,0,1,1.81-.85h9.34l0,.52s-4,.66-5.07,3.25a5.83,5.83,0,0,0,.08,4.89,8.29,8.29,0,0,1,.5,1.7,3.15,3.15,0,0,1-.71,2.54A2.56,2.56,0,0,1,41.31,37.5ZM39.07,24.27a1.73,1.73,0,0,0-1.4.66c-.76.94-.92,2.73-.44,5l.55,4.14c0,2.78,1.52,2.82,3.29,2.87h.17a2,2,0,0,0,1.62-.7,2.63,2.63,0,0,0,.58-2.12A7.78,7.78,0,0,0,43,32.58a6.34,6.34,0,0,1-.08-5.26,5.94,5.94,0,0,1,3.6-3.05Z"/><path class="cls-2" d="M36.52,36.89a.45.45,0,0,0,.51.38l.95-.14a.45.45,0,0,0,.38-.51h0a.45.45,0,0,0-.51-.38l-.95.14a.45.45,0,0,0-.38.51Z"/><path class="cls-2" d="M36.83,41.15a.45.45,0,0,0,.51.38l.95-.14a.45.45,0,0,0,.38-.51h0a.45.45,0,0,0-.51-.38l-.95.14a.45.45,0,0,0-.38.51Z"/><path class="cls-2" d="M36.21,25.72a.4.4,0,0,0,.38-.42c-.09-1.8-.77-2.19-1.53-2.45-.39-.13-.5-.17-.53-.61-.06-1,2.12-1.41,2.89-1.47a.4.4,0,0,0-.05-.81h0c-.38,0-3.75.33-3.64,2.32a1.32,1.32,0,0,0,1.07,1.33c.49.17.91.31,1,1.72a.4.4,0,0,0,.42.38Z"/><path class="cls-2" d="M36.18,25.86a.54.54,0,0,1-.54-.52c-.07-1.31-.43-1.44-.89-1.6a1.45,1.45,0,0,1-1.17-1.45c-.12-2.12,3.37-2.44,3.77-2.47a.54.54,0,1,1,.08,1.09c-.88.06-2.81.49-2.76,1.32,0,.34.06.35.43.48.77.26,1.53.68,1.62,2.57a.55.55,0,0,1-.51.57h0Zm0-.28v0a.26.26,0,0,0,.25-.28c-.09-1.72-.7-2.07-1.43-2.32-.42-.15-.59-.23-.62-.73-.07-1.14,2.16-1.55,3-1.61a.26.26,0,0,0,0-.53c-.37,0-3.62.32-3.51,2.17a1.19,1.19,0,0,0,1,1.2c.52.18,1,.35,1.08,1.85a.26.26,0,0,0,.28.25Z"/><path class="cls-3" d="M48.46,35.07a1.31,1.31,0,0,1,1.15.41c.24.24.47,1,.09,1.1s-.95-.1-1-.45-.8-.59-.8-.59S48.15,35.11,48.46,35.07Z"/><path class="cls-2" d="M49.53,36.77c-.42,0-.94-.19-1-.59,0-.17-.43-.38-.69-.47l-.21-.07.12-.18a1.29,1.29,0,0,1,.71-.55h0a1.47,1.47,0,0,1,1.3.46A1.35,1.35,0,0,1,50,36.47a.39.39,0,0,1-.31.28Zm-1.39-1.3c.25.12.61.33.68.62s.53.37.84.32c0,0,0,0,0,0a1,1,0,0,0-.23-.76,1.14,1.14,0,0,0-1-.36h0A.69.69,0,0,0,48.15,35.47Z"/><path class="cls-3" d="M52.41,35a1.31,1.31,0,0,1,1.15.41c.24.24.47,1,.09,1.1s-.95-.1-1-.45-.8-.59-.8-.59S52.1,35,52.41,35Z"/><path class="cls-2" d="M53.49,36.67c-.42,0-.94-.19-1-.59,0-.17-.43-.38-.69-.47l-.21-.07.12-.19a1.29,1.29,0,0,1,.71-.55h0a1.47,1.47,0,0,1,1.3.46A1.36,1.36,0,0,1,54,36.37a.39.39,0,0,1-.31.28Zm-1.39-1.3c.25.12.61.33.68.62s.53.37.84.32c0,0,0,0,0,0a1,1,0,0,0-.23-.76,1.14,1.14,0,0,0-1-.36A.69.69,0,0,0,52.1,35.37Z"/><path class="cls-1" d="M45.68,29.31c-.31-2.46,1.5-4.76,3.41-4.76.06,0,.31.53.35.5C50,24.6,51,24.88,51,24.88s-.06.52.07.6c1.36.82,1.82,2.65,1.31,4.72A3.42,3.42,0,0,1,45.68,29.31Z"/><path class="cls-2" d="M49,32.75h-.24a3.51,3.51,0,0,1-3.29-3.41h0a4.85,4.85,0,0,1,1.16-3.75,3.35,3.35,0,0,1,2.44-1.23c.14,0,.2.1.34.35l0,.08A2.36,2.36,0,0,1,51,24.7a.19.19,0,0,1,.14.21,1.41,1.41,0,0,0,0,.43c1.38.85,1.91,2.73,1.38,4.91A3.55,3.55,0,0,1,49,32.75Zm-3.15-3.47a3.14,3.14,0,0,0,2.93,3.07,3.25,3.25,0,0,0,3.36-2.2c.5-2,0-3.75-1.23-4.51-.14-.08-.2-.29-.18-.62a1.59,1.59,0,0,0-1.2.15.21.21,0,0,1-.16,0c-.12,0-.17-.11-.3-.34L49,24.74a3,3,0,0,0-2.06,1.09,4.46,4.46,0,0,0-1.07,3.45Zm3.44-4.39h0Z"/><path class="cls-3" d="M52.56,30.26c0,.61-.52,1.07-.89,1.05s-.48-.52-.45-1.12.36-1.08.73-1.06C52.67,29.16,52.59,29.65,52.56,30.26Z"/><path class="cls-2" d="M51.7,31.42h0c-.23,0-.61-.19-.55-1.24a1.62,1.62,0,0,1,.26-.82A.67.67,0,0,1,52,29a.77.77,0,0,1,.57.22,1.24,1.24,0,0,1,.15.92v.11A1.19,1.19,0,0,1,51.7,31.42Zm.23-2.18a.48.48,0,0,0-.38.25,1.4,1.4,0,0,0-.22.71c0,.3,0,1,.34,1a1,1,0,0,0,.77-.95v-.11c0-.33,0-.61-.1-.76a.58.58,0,0,0-.41-.15Z"/><path class="cls-3" d="M45.42,30.5c0,.61.52,1.07.89,1.05s.48-.52.45-1.12-.36-1.08-.73-1.06C45.31,29.41,45.39,29.9,45.42,30.5Z"/><path class="cls-2" d="M46.29,31.75a1.26,1.26,0,0,1-1.06-1.23V30.4a1.31,1.31,0,0,1,.17-1,.85.85,0,0,1,.62-.25c.49,0,.89.52.93,1.24.06,1.12-.37,1.31-.63,1.33Zm-.67-1.26c0,.52.44.88.68.87s.29-.48.27-.92-.29-.89-.52-.88a.51.51,0,0,0-.36.12c-.11.12-.09.39-.08.7Z"/><path class="cls-3" d="M51.81,29.7c0,2.09-.93,3.57-2.81,3.57-1.61,0-2.85-1.44-2.78-3.52.08-2.33,1.29-2.29,2.74-2.29S51.81,27.2,51.81,29.7Z"/><path class="cls-2" d="M49,33.46a2.75,2.75,0,0,1-2-.85,3.88,3.88,0,0,1-1-2.87c.08-2.44,1.39-2.48,2.8-2.48h.49a2.79,2.79,0,0,1,2.1.49,2.65,2.65,0,0,1,.58,2C52,32.05,50.88,33.46,49,33.46Zm-.18-5.82c-1.41,0-2.34,0-2.41,2.11a3.5,3.5,0,0,0,.87,2.59,2.33,2.33,0,0,0,1.71.73c1.66,0,2.62-1.23,2.62-3.37A2.31,2.31,0,0,0,51.15,28a2.54,2.54,0,0,0-1.82-.38h-.5Z"/><ellipse class="cls-2" cx="50.25" cy="29.85" rx="0.29" ry="0.3"/><ellipse class="cls-2" cx="47.78" cy="29.85" rx="0.29" ry="0.3"/><path class="cls-2" d="M49,32a1.47,1.47,0,0,1-.93-.33.14.14,0,0,1,.18-.2h0a1.23,1.23,0,0,0,.82.26,1.3,1.3,0,0,0,.67-.23.14.14,0,1,1,.23.15,1.4,1.4,0,0,1-.88.36Z"/><path class="cls-3" d="M32.06,21.74c.76-.85,1.86-2.67,4.19-1.85.89.32,1.61,1.07.69,1.75a11,11,0,0,1-3.06,1.19S31,22.93,32.06,21.74Z"/><path class="cls-2" d="M33.7,23c-.53,0-1.76-.06-2-.61-.11-.24,0-.51.24-.81l.29-.34c.77-.93,1.93-2.33,4.11-1.56.55.19,1.16.59,1.24,1.14a1,1,0,0,1-.5,1A11,11,0,0,1,33.92,23H33.7Zm1.43-3.15a3.5,3.5,0,0,0-2.62,1.64l-.3.35h0c-.09.1-.23.28-.17.39.14.29,1.16.4,1.82.38a10.64,10.64,0,0,0,3-1.15c.26-.19.38-.39.35-.59s-.44-.64-1-.83A3.18,3.18,0,0,0,35.12,19.88Z"/><path class="cls-1" d="M21.87,18.67S22,25,25.51,26.38c3.15,1.22,8-2.75,8-2.75l-1.38-2.17s-4.2,2.72-5.13,1.77c-.77-.8-1.22-4.43-1.22-4.43s-.23-2.69-1.6-3.18C21.73,14.76,21.87,18.67,21.87,18.67Z"/><path class="cls-2" d="M26.85,26.83a3.91,3.91,0,0,1-1.42-.25c-3.62-1.4-3.77-7.61-3.78-7.91,0-.12-.06-2.33,1-3.12a1.64,1.64,0,0,1,1.59-.14c1.49.52,1.74,3.25,1.75,3.36.12,1,.57,3.69,1.16,4.3s3.17-.71,4.85-1.8a.22.22,0,0,1,.3.07l1.38,2.17a.22.22,0,0,1,0,.28C33.46,23.94,29.9,26.82,26.85,26.83ZM23.52,15.71a1,1,0,0,0-.61.19c-.74.55-.85,2.17-.83,2.75h0c0,.06.14,6.22,3.5,7.51a3.47,3.47,0,0,0,1.25.22c2.57,0,5.66-2.26,6.37-2.81l-1.16-1.82c-1,.65-4.28,2.58-5.22,1.62s-1.23-4.18-1.28-4.55c0,0-.23-2.57-1.46-3A1.77,1.77,0,0,0,23.52,15.71Z"/><path class="cls-3" d="M40.69,19.5a1.75,1.75,0,0,0,.63,1.41.62.62,0,0,0,.67,0c.16-.15,0-.87,0-.87a3.11,3.11,0,0,0,.51.89,1.79,1.79,0,0,0,1.5,0,1.47,1.47,0,0,0,.18-1.34,3.37,3.37,0,0,0-2.67-1C41.13,18.57,40.77,19.11,40.69,19.5Z"/><path class="cls-2" d="M43.23,21.28a1.56,1.56,0,0,1-.82-.19.82.82,0,0,1-.19-.2.39.39,0,0,1-.09.16.8.8,0,0,1-.9,0,1.92,1.92,0,0,1-.73-1.62h0c.08-.44.48-1.07,1-1.14a3.56,3.56,0,0,1,2.86,1.13,1.62,1.62,0,0,1-.22,1.61A1.66,1.66,0,0,1,43.23,21.28ZM42,19.84a.2.2,0,0,1,.19.13,2.83,2.83,0,0,0,.44.8,1.63,1.63,0,0,0,1.27,0A1.38,1.38,0,0,0,44,19.68a3.18,3.18,0,0,0-2.48-1c-.28,0-.6.48-.66.82a1.59,1.59,0,0,0,.52,1.19c.17.09.37.1.44,0a2,2,0,0,0,0-.69.2.2,0,0,1,.14-.23Z"/><path class="cls-3" d="M28.25,23.12c.34.33,1,1,.85,1.72a1.14,1.14,0,0,1-1.18,1c-.42,0-.64-.83-.68-1.24a6.39,6.39,0,0,0-.64-2A1.86,1.86,0,0,1,28.25,23.12Z"/><path class="cls-2" d="M28,26H27.9c-.58-.06-.83-1-.88-1.43a6.2,6.2,0,0,0-.62-2,.22.22,0,0,1,.14-.31A2.07,2.07,0,0,1,28.4,23h0c.33.32,1.1,1.05.91,1.92A1.38,1.38,0,0,1,28,26Zm-1.1-3.31a6.33,6.33,0,0,1,.52,1.82c.05.47.28,1,.49,1.05a.92.92,0,0,0,.95-.8c.14-.63-.51-1.25-.79-1.51h0A1.83,1.83,0,0,0,26.93,22.73Z"/><path class="cls-2" d="M36.05,3.58l.6-.64a3.79,3.79,0,0,0-2.08-1.64l.28-.43a5.22,5.22,0,0,0-2.7-.25l.21-.53a5.65,5.65,0,0,0-4.08,1h0c-2.83,1.24-2,5.31-1.54,6.09.18.32,1,1.34,1.38,1.87a.18.18,0,0,0,.31-.14c0-.82,0-2.41,0-3.43s.67-1.45,2-.76c1.08.58,2.13.84,4.47.66a3.58,3.58,0,0,0,1.8-.86S36.43,4.09,36.05,3.58Z"/><path class="cls-1" d="M17.19,7.2c-4.13,0-4.71,4.24-4.71,4.24l4.21-.32c.33-.58.49-.94.79-1.49A4.25,4.25,0,0,1,18,11.12l3.31,0A4,4,0,0,0,17.19,7.2Z"/><path class="cls-2" d="M21,11.49H17.88a.22.22,0,0,1-.22-.22,2.7,2.7,0,0,0-.19-1.15l-.15.35a9.28,9.28,0,0,1-.44.91.22.22,0,0,1-.19.11H12.92a.22.22,0,0,1,0-.43h3.64c.14-.26.25-.52.36-.76s.22-.51.36-.77a.21.21,0,0,1,.19-.11.22.22,0,0,1,.19.12,3.1,3.1,0,0,1,.42,1.53H21a.22.22,0,1,1,0,.43Z"/><path class="cls-1" d="M17.74,3.87a3.91,3.91,0,0,1-2,.37"/><path class="cls-2" d="M15.92,4.46h-.14a.22.22,0,0,1,0-.43h0a3.76,3.76,0,0,0,1.85-.34.22.22,0,0,1,.22.37A4,4,0,0,1,15.92,4.46Z"/></svg>