<svg id="Layer_1" data-name="Layer 1" xmlns="http://www.w3.org/2000/svg" viewBox="0 0 93.6 80.46"><defs><style>.cls-1{fill:#f15f2e;}.cls-2{fill:#fff;}.cls-3{fill:#45a5da;}.cls-4,.cls-5{fill:#8dc63f;}.cls-4{stroke:#414042;stroke-miterlimit:10;stroke-width:1.5px;}.cls-6{fill:#414042;}</style></defs><title>Work</title><polygon class="cls-1" points="53.85 0.84 53.85 6.63 51.64 6.63 20.51 6.63 18.3 6.63 18.3 0.84 53.85 0.84"/><path class="cls-2" d="M51.64,6.63v13H46.86V11.84H38.31v7.84h4.83v5.55H38.31v7.84h4.83V38.6H38.31v7.84h4.83V52H38.31v7.84h4.83v8h-12V79.52H25.72a1,1,0,0,1,.1-.27,3.51,3.51,0,0,0,.1-.4,1.43,1.43,0,0,0,0-.26A3.68,3.68,0,0,0,26,78a4,4,0,0,0-3.48-3.95,4.29,4.29,0,0,0-.07-.44v-.29a6.77,6.77,0,0,0-.31-1,5,5,0,0,0-.24-.55,6.85,6.85,0,0,0-1.35-1.91V6.63ZM33.85,59.81V52H25.29v7.84Zm0-13.37V38.6H25.29v7.84Zm0-13.38V25.22H25.29v7.84Zm0-13.38V11.84H25.29v7.84Z"/><path class="cls-3" d="M69.91,67.84H54.53V79.52H43.14V19.68H81.28V70.12A6,6,0,0,0,78.46,73a3.76,3.76,0,0,0-.58,0,4.31,4.31,0,0,0-4.31,4.31v.1a4.23,4.23,0,0,0,.62,2.2H69.91Zm5-6.26V56.39H49.53v5.19Zm0-10V46.4H49.53v5.19Zm0-10V36.41H49.53V41.6Zm0-10V26.41H49.53V31.6Z"/><rect class="cls-2" x="38.31" y="51.97" width="4.83" height="7.84"/><path class="cls-4" d="M92.76,78.17a3.37,3.37,0,0,1-.29,1.35H74.24A4.22,4.22,0,0,1,77.88,73a3.77,3.77,0,0,1,.58,0,5.82,5.82,0,0,1,2.69-2.86l.13-.07a5.86,5.86,0,0,1,2.59-.59,6,6,0,0,1,6,5.32A3.35,3.35,0,0,1,92.76,78.17Z"/><rect class="cls-2" x="49.53" y="56.39" width="25.35" height="5.19"/><rect class="cls-2" x="49.53" y="46.4" width="25.35" height="5.19"/><rect class="cls-2" x="49.53" y="36.41" width="25.35" height="5.19"/><rect class="cls-2" x="49.53" y="26.41" width="25.35" height="5.19"/><rect class="cls-5" x="54.53" y="67.84" width="15.38" height="11.68"/><polygon class="cls-2" points="46.86 11.84 46.86 19.68 43.14 19.68 38.31 19.68 38.31 11.84 46.86 11.84"/><rect class="cls-5" x="31.18" y="67.84" width="11.96" height="11.68"/><rect class="cls-2" x="38.31" y="38.6" width="4.83" height="7.84"/><rect class="cls-2" x="38.31" y="25.22" width="4.83" height="7.84"/><rect class="cls-2" x="25.29" y="51.97" width="8.56" height="7.84"/><rect class="cls-2" x="25.29" y="38.6" width="8.56" height="7.84"/><rect class="cls-2" x="25.29" y="25.22" width="8.56" height="7.84"/><rect class="cls-2" x="25.29" y="11.84" width="8.56" height="7.84"/><path class="cls-4" d="M26,78a3.68,3.68,0,0,1,0,.58,1.43,1.43,0,0,1,0,.26,2.37,2.37,0,0,1-.1.4.74.74,0,0,1-.1.27v.11H4a5.11,5.11,0,0,1,4.32-7.87,5.47,5.47,0,0,1,.7.05,7.12,7.12,0,0,1,11.5-2h0a7.24,7.24,0,0,1,1.35,1.91,5.38,5.38,0,0,1,.24.55,6.77,6.77,0,0,1,.31,1v.29a4.29,4.29,0,0,1,.07.44A4,4,0,0,1,26,78Z"/><ellipse class="cls-5" cx="9.06" cy="51.69" rx="8.23" ry="10.38"/><path class="cls-6" d="M25.29,60.65h8.56a.84.84,0,0,0,.84-.84h0V52a.84.84,0,0,0-.84-.84H25.29a.84.84,0,0,0-.84.84h0v7.84A.84.84,0,0,0,25.29,60.65Zm.84-7.84H33V59H26.13Z"/><path class="cls-6" d="M25.29,47.27h8.56a.84.84,0,0,0,.84-.84h0V38.6a.84.84,0,0,0-.84-.84H25.29a.84.84,0,0,0-.84.84h0v7.84A.84.84,0,0,0,25.29,47.27Zm.84-7.84H33V45.6H26.13Z"/><path class="cls-6" d="M25.29,33.9h8.56a.84.84,0,0,0,.84-.84h0V25.22a.84.84,0,0,0-.84-.84H25.29a.84.84,0,0,0-.84.84h0v7.84a.84.84,0,0,0,.84.84Zm.84-7.84H33v6.16H26.13Z"/><path class="cls-6" d="M25.29,20.52h8.56a.84.84,0,0,0,.84-.84h0V11.84a.84.84,0,0,0-.84-.84H25.29a.84.84,0,0,0-.84.84h0v7.84a.84.84,0,0,0,.84.84Zm.84-7.84H33v6.16H26.13Z"/><path class="cls-6" d="M46.86,11H38.31a.84.84,0,0,0-.84.84h0v7.84a.84.84,0,0,0,.84.84h5.23v-.84a1.4,1.4,0,0,1,.28-.84H39.14V12.68H46V19.4h1.7V11.84a.84.84,0,0,0-.84-.84Z"/><path class="cls-6" d="M37.47,25.22v7.84a.84.84,0,0,0,.84.84h4.28V32.22H39.14V26.06h3.44V24.39H38.31A.84.84,0,0,0,37.47,25.22Z"/><path class="cls-6" d="M37.47,52v7.84a.84.84,0,0,0,.84.84h4.41V59H39.14V52.81h3.58V51.14H38.31a.84.84,0,0,0-.84.84Z"/><path class="cls-6" d="M37.47,38.6v7.84a.84.84,0,0,0,.84.84h4.41V45.6H39.14V39.44h3.58V37.76H38.31a.84.84,0,0,0-.84.84Z"/><path class="cls-6" d="M74.89,25.57H49.53a.84.84,0,0,0-.84.84h0V31.6a.84.84,0,0,0,.84.84H74.89a.84.84,0,0,0,.84-.84V26.41A.84.84,0,0,0,74.89,25.57Zm-.84,5.19H50.37V27.25H74.05Z"/><path class="cls-6" d="M74.89,35.57H49.53a.84.84,0,0,0-.84.84h0V41.6a.84.84,0,0,0,.84.84H74.89a.84.84,0,0,0,.84-.84V36.41A.84.84,0,0,0,74.89,35.57Zm-.84,5.19H50.37V37.25H74.05Z"/><path class="cls-6" d="M74.89,45.56H49.53a.84.84,0,0,0-.84.84h0v5.19a.84.84,0,0,0,.84.84H74.89a.84.84,0,0,0,.84-.84V46.4A.84.84,0,0,0,74.89,45.56Zm-.84,5.19H50.37V47.24H74.05Z"/><path class="cls-6" d="M74.89,55.55H49.53a.84.84,0,0,0-.84.84h0v5.19a.84.84,0,0,0,.84.84H74.89a.84.84,0,0,0,.84-.84V56.39A.84.84,0,0,0,74.89,55.55Zm-.84,5.19H50.37V57.23H74.05Z"/><rect class="cls-6" x="69.07" y="67.55" width="1.68" height="12.22"/><rect class="cls-6" x="53.69" y="67.55" width="1.68" height="12.22"/><path class="cls-6" d="M30.35,67.84V79.23H32V68.68H42.85V67H31.18A.84.84,0,0,0,30.35,67.84Z"/><path class="cls-6" d="M21.48,5.79H19.14V1.68H53V5.79H51.2a1.4,1.4,0,0,1,.28.84v.84h2.35a.84.84,0,0,0,.84-.84h0V.84A.84.84,0,0,0,53.85,0H18.3a.84.84,0,0,0-.84.84h0V6.63a.84.84,0,0,0,.84.84h2.9V6.63A1.4,1.4,0,0,1,21.48,5.79Z"/><polygon class="cls-6" points="55.94 67.55 55.94 68.68 68.49 68.68 68.49 67.55 71.32 67.55 71.32 68.68 72.48 68.68 72.48 67 51.95 67 51.95 68.68 53.11 68.68 53.11 67.55 55.94 67.55"/><rect class="cls-6" x="69.07" y="68.13" width="1.68" height="0.55"/><polygon class="cls-6" points="68.49 67.55 68.49 68.68 68.78 68.68 68.78 67.84 71.03 67.84 71.03 68.68 71.32 68.68 71.32 67.55 68.49 67.55"/><polygon class="cls-6" points="68.78 67.84 68.78 68.68 69.07 68.68 69.07 68.13 70.74 68.13 70.74 68.68 71.03 68.68 71.03 67.84 68.78 67.84"/><rect class="cls-6" x="53.69" y="68.13" width="1.68" height="0.55"/><polygon class="cls-6" points="55.65 67.84 55.65 68.68 55.94 68.68 55.94 67.55 53.11 67.55 53.11 68.68 53.4 68.68 53.4 67.84 55.65 67.84"/><polygon class="cls-6" points="55.37 68.13 55.37 68.68 55.65 68.68 55.65 67.84 53.4 67.84 53.4 68.68 53.69 68.68 53.69 68.13 55.37 68.13"/><path class="cls-6" d="M8.23,55.89v4.69a4.94,4.94,0,0,0,1.67,0V55.89Z"/><path class="cls-6" d="M9.9,69.82V59.29a7.35,7.35,0,0,1-1.67,0V71.75A8.56,8.56,0,0,1,9.9,69.82Z"/><path class="cls-6" d="M1.68,51.69c0-5.26,3.31-9.54,7.39-9.54s7.39,4.28,7.39,9.54c0,4.64-2.58,8.52-6,9.37v1.71c4.33-.84,7.65-5.49,7.65-11.08C18.11,45.5,14,40.47,9,40.47s-9,5-9,11.22c0,5.59,3.32,10.24,7.65,11.08V61C4.25,60.2,1.68,56.33,1.68,51.69Z"/><path class="cls-6" d="M9.9,62.86V61.17a5.59,5.59,0,0,1-1.68,0v1.69A7.08,7.08,0,0,0,9.9,62.86Z"/><path class="cls-6" d="M10.19,61.12v1.7l.29,0V61Z"/><path class="cls-6" d="M7.65,61v1.72l.29.05v-1.7Z"/><path class="cls-6" d="M7.94,61.12v1.7h.29V61.17Z"/><path class="cls-6" d="M9.9,61.17v1.69h.29V61.12Z"/><path class="cls-6" d="M51.36,20.52H80.45V69l.23-.12a7.06,7.06,0,0,1,1.45-.52V19.68a.84.84,0,0,0-.84-.84H51.64v.84A1.4,1.4,0,0,1,51.36,20.52Z"/><path class="cls-6" d="M72.35,78.68h-1v1.13H68.49V78.68H55.94v1.13H53.11V78.68H43v.84a1.4,1.4,0,0,1-.28.84H73.11L73,80.27A5.79,5.79,0,0,1,72.35,78.68Z"/><rect class="cls-6" x="69.07" y="78.68" width="1.68" height="0.55"/><polygon class="cls-6" points="71.03 79.52 68.78 79.52 68.78 78.68 68.49 78.68 68.49 79.81 71.32 79.81 71.32 78.68 71.03 78.68 71.03 79.52"/><polygon class="cls-6" points="70.74 79.23 69.07 79.23 69.07 78.68 68.78 78.68 68.78 79.52 71.03 79.52 71.03 78.68 70.74 78.68 70.74 79.23"/><rect class="cls-6" x="53.69" y="78.68" width="1.68" height="0.55"/><polygon class="cls-6" points="55.65 79.52 53.4 79.52 53.4 78.68 53.11 78.68 53.11 79.81 55.94 79.81 55.94 78.68 55.65 78.68 55.65 79.52"/><polygon class="cls-6" points="55.37 79.23 53.69 79.23 53.69 78.68 53.4 78.68 53.4 79.52 55.65 79.52 55.65 78.68 55.37 78.68 55.37 79.23"/><path class="cls-6" d="M80.45,69v.32l.36-.19a6.8,6.8,0,0,1,1.32-.48v-.3a7.06,7.06,0,0,0-1.45.52Z"/><path class="cls-6" d="M72.65,78.68h-.3a5.79,5.79,0,0,0,.7,1.59l.06.08h.38a1.12,1.12,0,0,1-.2-.24A5.52,5.52,0,0,1,72.65,78.68Z"/><path class="cls-6" d="M80.45,69.29v.33l.48-.26a6.51,6.51,0,0,1,1.2-.44v-.3a6.8,6.8,0,0,0-1.32.48Z"/><path class="cls-6" d="M44,78.11V20.52h7.38V18.26h1.1V8H51.36V5.79H20.8V8H19.67V67.4a8.57,8.57,0,0,1,1.68,1.26V7.47H50.81V18.84H48.28V20H45.45V18.84h-2v2.25H42.3v2.72h1.13v2.83H42.3v5h1.13v2.83H42.3v2.71h1.13V40H42.3v5h1.13v2.83H42.3v2.71h1.13v2.83H42.3v5h1.13V61.2H42.3v5.2h1.13v2.83H42.3v9.43H32.6v1.13H29.77V78.68H27.38a2.88,2.88,0,0,1-.07.44,3.73,3.73,0,0,1-.15.56v.06h0l-.09.2h0L27,80.1a1.48,1.48,0,0,1-.12.21h16v-2.2Z"/><path class="cls-6" d="M42.3,19.68v.84h.55V18.89A.84.84,0,0,0,42.3,19.68Z"/><rect class="cls-6" x="46.02" y="18.84" width="1.68" height="0.55"/><polygon class="cls-6" points="43.14 20.8 42.3 20.8 42.3 21.09 43.43 21.09 43.43 18.84 43.14 18.84 43.14 20.8"/><polygon class="cls-6" points="47.7 19.39 46.02 19.39 46.02 18.84 45.74 18.84 45.74 19.68 47.99 19.68 47.99 18.84 47.7 18.84 47.7 19.39"/><rect class="cls-6" x="42.3" y="24.39" width="0.55" height="1.68"/><rect class="cls-6" x="42.3" y="32.22" width="0.55" height="1.68"/><polygon class="cls-6" points="43.14 24.1 43.14 26.35 42.3 26.35 42.3 26.64 43.43 26.64 43.43 23.81 42.3 23.81 42.3 24.1 43.14 24.1"/><polygon class="cls-6" points="43.14 31.93 43.14 34.19 42.3 34.19 42.3 34.47 43.43 34.47 43.43 31.65 42.3 31.65 42.3 31.93 43.14 31.93"/><polygon class="cls-6" points="42.85 24.39 42.85 26.06 42.3 26.06 42.3 26.35 43.14 26.35 43.14 24.1 42.3 24.1 42.3 24.39 42.85 24.39"/><polygon class="cls-6" points="42.85 32.22 42.85 33.9 42.3 33.9 42.3 34.19 43.14 34.19 43.14 31.93 42.3 31.93 42.3 32.22 42.85 32.22"/><rect class="cls-6" x="42.3" y="51.14" width="0.55" height="1.68"/><rect class="cls-6" x="42.3" y="58.97" width="0.55" height="1.68"/><polygon class="cls-6" points="43.14 50.85 43.14 53.1 42.3 53.1 42.3 53.39 43.43 53.39 43.43 50.56 42.3 50.56 42.3 50.85 43.14 50.85"/><polygon class="cls-6" points="43.14 58.68 43.14 60.94 42.3 60.94 42.3 61.22 43.43 61.22 43.43 58.4 42.3 58.4 42.3 58.68 43.14 58.68"/><polygon class="cls-6" points="42.85 58.97 42.85 60.65 42.3 60.65 42.3 60.94 43.14 60.94 43.14 58.68 42.3 58.68 42.3 58.97 42.85 58.97"/><polygon class="cls-6" points="42.85 51.14 42.85 52.81 42.3 52.81 42.3 53.1 43.14 53.1 43.14 50.85 42.3 50.85 42.3 51.14 42.85 51.14"/><rect class="cls-6" x="42.3" y="45.6" width="0.55" height="1.68"/><rect class="cls-6" x="42.3" y="37.76" width="0.55" height="1.68"/><polygon class="cls-6" points="43.14 37.47 43.14 39.73 42.3 39.73 42.3 40.01 43.43 40.01 43.43 37.19 42.3 37.19 42.3 37.47 43.14 37.47"/><polygon class="cls-6" points="43.14 45.31 43.14 47.56 42.3 47.56 42.3 47.85 43.43 47.85 43.43 45.02 42.3 45.02 42.3 45.31 43.14 45.31"/><polygon class="cls-6" points="42.85 37.76 42.85 39.44 42.3 39.44 42.3 39.73 43.14 39.73 43.14 37.47 42.3 37.47 42.3 37.76 42.85 37.76"/><polygon class="cls-6" points="42.85 45.6 42.85 47.27 42.3 47.27 42.3 47.56 43.14 47.56 43.14 45.31 42.3 45.31 42.3 45.6 42.85 45.6"/><rect class="cls-6" x="42.3" y="67" width="0.55" height="1.68"/><rect class="cls-6" x="30.35" y="78.68" width="1.68" height="0.55"/><polygon class="cls-6" points="43.14 66.72 43.14 68.97 42.3 68.97 42.3 69.25 43.43 69.25 43.43 66.43 42.3 66.43 42.3 66.72 43.14 66.72"/><polygon class="cls-6" points="32.31 79.52 30.06 79.52 30.06 78.68 29.77 78.68 29.77 79.81 32.6 79.81 32.6 78.68 32.31 78.68 32.31 79.52"/><polygon class="cls-6" points="32.02 79.23 30.35 79.23 30.35 78.68 30.06 78.68 30.06 79.52 32.31 79.52 32.31 78.68 32.02 78.68 32.02 79.23"/><polygon class="cls-6" points="42.85 67 42.85 68.68 42.3 68.68 42.3 68.97 43.14 68.97 43.14 66.72 42.3 66.72 42.3 67 42.85 67"/><path class="cls-6" d="M20.22,5.85a.84.84,0,0,0-.55.78v.84h.55Z"/><path class="cls-6" d="M51.93,5.85V7.47h.55V6.63A.84.84,0,0,0,51.93,5.85Z"/><polygon class="cls-6" points="51.64 5.79 51.64 5.79 51.36 5.79 51.36 8.05 52.48 8.05 52.48 7.76 51.64 7.76 51.64 5.79"/><polygon class="cls-6" points="20.8 5.79 20.51 5.79 20.51 5.79 20.51 7.76 19.67 7.76 19.67 8.05 20.8 8.05 20.8 5.79"/><path class="cls-6" d="M51.93,5.85a.83.83,0,0,0-.29-.05v2h.84V7.47h-.55Z"/><path class="cls-6" d="M20.51,5.79a.83.83,0,0,0-.29.05V7.47h-.55v.29h.84Z"/><path class="cls-6" d="M51.93,20.46a.84.84,0,0,0,.55-.78v-.84h-.55Z"/><path class="cls-6" d="M44,79.52v-.84h-.55V80.3A.84.84,0,0,0,44,79.52Z"/><polygon class="cls-6" points="43.98 78.39 43.98 78.11 42.85 78.11 42.85 80.36 43.14 80.36 43.14 78.39 43.98 78.39"/><polygon class="cls-6" points="51.36 20.52 51.64 20.52 51.64 20.52 51.64 18.55 52.48 18.55 52.48 18.26 51.36 18.26 51.36 20.52"/><path class="cls-6" d="M44,78.68v-.29h-.84v2a.83.83,0,0,0,.29-.05V78.68Z"/><path class="cls-6" d="M51.64,20.52a.83.83,0,0,0,.29,0V18.84h.55v-.29h-.84Z"/><path class="cls-6" d="M21.35,69.1v-.4a8.57,8.57,0,0,0-1.68-1.26v.33a8.31,8.31,0,0,1,1.64,1.29Z"/><polygon class="cls-6" points="27.14 79.78 27.13 79.78 27.06 79.99 27.14 79.78"/><path class="cls-6" d="M21.36,69.54h0V69.1h0a8.31,8.31,0,0,0-1.64-1.29v.34a8,8,0,0,1,1.44,1.15Z"/><polygon class="cls-6" points="25.39 79.1 25.39 79.4 25.68 79.5 25.68 79.2 25.39 79.1"/><rect class="cls-6" x="19.67" y="63.9" width="1.69" height="5.85"/><rect class="cls-6" x="26.01" y="78.68" width="66.94" height="1.69"/><rect class="cls-6" x="80.45" y="64.16" width="1.68" height="5.91"/><rect class="cls-6" x="42.28" y="19.34" width="1.72" height="60.47"/><rect class="cls-6" x="44.1" y="18.84" width="22.08" height="1.68"/><rect class="cls-6" x="52.18" y="67" width="19.85" height="1.68"/><path class="cls-6" d="M11.84,60.53a6,6,0,0,1-2,.66H8.29a6.57,6.57,0,0,1-1.84-.58l0,1.81a7.07,7.07,0,0,0,4.81.16,8.78,8.78,0,0,0,2-.92Z"/></svg>