<svg id="Layer_1" data-name="Layer 1" xmlns="http://www.w3.org/2000/svg" viewBox="0 0 19.24 24"><defs><style>.cls-1{fill-rule:evenodd;}</style></defs><title>coke_Icon</title><path d="M19.22,9.2V8.6c0-.2.4-3.7-2.1-5.6.2,0,.3-.2.3-.4V2.4c0-.1-.1-.2-.1-.3V.6a.65.65,0,0,0-.6-.6h-2.8a.65.65,0,0,0-.6.6V2.1a.37.37,0,0,0-.1.3v.1c0,.2.1.3.3.4-2.6,1.6-2.2,5.4-2.2,5.6v.7a.52.52,0,0,0,.2.4.37.37,0,0,1,.1.3c0,.1,0,.1-.1.2s-.2.2-.2.3v4.9a.52.52,0,0,0,.2.4.37.37,0,0,1,.1.3c0,.1-.1.2-.1.3s-.2.2-.2.3v6.3a1.11,1.11,0,0,0,1.1,1.1h5.7a1.11,1.11,0,0,0,1.1-1.1V16.7a.52.52,0,0,0-.2-.4c-.1-.1-.2-.2-.2-.3s.1-.2.2-.3a.52.52,0,0,0,.2-.4V10.5a.52.52,0,0,0-.2-.4c-.1-.1-.2-.2-.2-.3s.1-.2.2-.3.2-.2.2-.3m-.5,5.4h-6.8V11.1h6.8Zm-2.3-12h-2.3V2.5l2.3.1ZM13.92.5h2.8V2h-2.9l.1-1.5h0M14,3.2h2.6c2.5,1.7,2.1,5.2,2.1,5.3v.6a.75.75,0,0,0-.4.7.67.67,0,0,0,.4.7h-6.8v-.1a1,1,0,0,0,0-1.4V8.3c0,.1-.4-3.7,2.1-5.1m4.7,13.5v6.2a.58.58,0,0,1-.6.6h-5.7a.58.58,0,0,1-.6-.6V16.7a1,1,0,0,0,0-1.4v-.1h6.8v.1a.78.78,0,0,0-.3.7.67.67,0,0,0,.4.7"/><path d="M14,6.3a.1.1,0,0,0,.1-.1c0-.1,0-.2-.1-.2l-.1.1a.35.35,0,0,0,.1.2"/><path d="M14.42,5.1a.1.1,0,1,0,0-.2c-.1,0-.1,0-.1.1a.1.1,0,0,0,.1.1"/><path d="M14.12,7.7a.19.19,0,0,0,.3.1.52.52,0,0,0,.2-.4c-.1-.1-.2-.1-.4-.1s-.2.2-.1.4"/><path d="M14.52,8.8a.19.19,0,0,0-.1.3.52.52,0,0,0,.4.2.52.52,0,0,0,.2-.4c-.2-.1-.3-.2-.5-.1"/><path d="M15.32,21.3h0a.14.14,0,0,0,0,.2s.1,0,0-.2h0"/><path d="M16.42,20.3h0a.14.14,0,0,0,0,.2v-.2h0"/><path d="M14.32,20.7h0a.14.14,0,0,0,.2,0c-.1,0-.1-.1-.2,0h0"/><path d="M14.22,21.2a.52.52,0,0,0-.2.4.52.52,0,0,0,.4.2.52.52,0,0,0,.2-.4.4.4,0,0,0-.4-.2"/><path d="M16.82,20.9a.52.52,0,0,0-.2.4.52.52,0,0,0,.4.2.52.52,0,0,0,.2-.4c-.1-.2-.3-.3-.4-.2"/><path d="M15.72,20.5a.52.52,0,0,0-.2.4.6.6,0,0,0,.4.1.52.52,0,0,0,.2-.4c-.1-.1-.3-.2-.4-.1"/><path d="M13.22,9.9V7.7a4.46,4.46,0,0,1,.7-2.7l-.5-.3a6.44,6.44,0,0,0-.7,3V9.9Z"/><path d="M12.72,15.9v5.3h.6V15.9Z"/><path d="M12.72,14.3h.6V11.6h-.6v2.7"/><path class="cls-1" d="M7.09,24H3.23a1.7,1.7,0,0,1-1.7-1.48L0,10.71H10.3L8.79,22.52A1.72,1.72,0,0,1,7.09,24ZM.55,11.19,2,22.45a1.21,1.21,0,0,0,1.22,1.07H7.09a1.24,1.24,0,0,0,1.22-1.07L9.75,11.19Z"/><path class="cls-1" d="M9.64,14.64a1.44,1.44,0,0,1-1.11-.51,1.51,1.51,0,0,1-2.25,0,1.41,1.41,0,0,1-1.11.51A1.44,1.44,0,0,1,4,14.13a1.44,1.44,0,0,1-1.11.51,1.44,1.44,0,0,1-1.11-.51,1.48,1.48,0,0,1-1.11.51v-.48a1,1,0,0,0,.9-.55l.22-.42.2.42a1,1,0,0,0,.92.55,1,1,0,0,0,.9-.55L4,13.19l.22.42a1,1,0,0,0,1.81,0l.2-.42.22.42a1,1,0,0,0,1.81,0l.22-.42.22.42a1,1,0,0,0,.9.55v.48Z"/><path class="cls-1" d="M6.35,12.82h0a.25.25,0,0,1-.2-.28l.24-1.61a.22.22,0,0,1,.26-.2.22.22,0,0,1,.2.26L6.59,12.6a.26.26,0,0,1-.24.22Z"/><path class="cls-1" d="M6.72,10.15h0a.25.25,0,0,1-.2-.28L6.94,7l3-1a.24.24,0,0,1,.28.17.22.22,0,0,1-.15.28l-2.73.89L7,9.93a.25.25,0,0,1-.24.22Z"/><path class="cls-1" d="M7,18,5.76,16.75,7,15.48l1.29,1.26L7,18Zm-.61-1.26.61.6.62-.6L7,16.14l-.61.6Z"/><path class="cls-1" d="M4.13,19.46,2.62,17.93l1.51-1.51,1.53,1.51L4.13,19.46ZM3.3,17.93l.83.85L5,17.93l-.85-.83-.83.83Z"/><path class="cls-1" d="M6.55,20.68,5.43,19.55l1.12-1.12,1.13,1.12L6.55,20.68Zm-.42-1.12.42.44L7,19.55l-.44-.45-.42.45Z"/></svg>