<svg id="Layer_1" data-name="Layer 1" xmlns="http://www.w3.org/2000/svg" viewBox="0 0 32.74 24"><defs><style>.cls-1{fill-rule:evenodd;}</style></defs><title>coke_Icon_Any Food Item Net2</title><path class="cls-1" d="M11.07,12.91c-4.71,0-8.4-1.65-8.4-3.73s3.69-3.73,8.4-3.73,8.4,1.63,8.4,3.73-3.69,3.73-8.4,3.73Zm0-6.85c-4.22,0-7.8,1.42-7.8,3.12s3.59,3.12,7.8,3.12,7.8-1.44,7.8-3.12-3.56-3.12-7.8-3.12Z"/><path class="cls-1" d="M11.07,17.5c-4.71,0-8.4-1.66-8.4-3.73a2,2,0,0,1,.45-1.21.29.29,0,0,1,.42-.05.3.3,0,0,1,.05.42,1.34,1.34,0,0,0-.31.84c0,1.68,3.59,3.13,7.8,3.13s7.8-1.45,7.8-3.13a1.36,1.36,0,0,0-.29-.84.28.28,0,0,1,.08-.42.3.3,0,0,1,.42.08,2,2,0,0,1,.39,1.18c0,2.08-3.69,3.73-8.4,3.73Z"/><path class="cls-1" d="M11.06,24c-5.18,0-9.23-1.79-9.23-4.07a2.33,2.33,0,0,1,.45-1.31.3.3,0,0,1,.42-.05.28.28,0,0,1,.08.42,1.55,1.55,0,0,0-.34.95c0,1.87,3.95,3.47,8.63,3.47s8.65-1.6,8.65-3.47a1.55,1.55,0,0,0-.34-.95.3.3,0,0,1,.5-.34,2.19,2.19,0,0,1,.45,1.29c0,2.29-4.05,4.07-9.26,4.07Z"/><path class="cls-1" d="M11.06,17.5a.36.36,0,0,1-.24-.13C7.32,12.85.37,12.64.29,12.64A.31.31,0,0,1,0,12.43a.3.3,0,0,1,.13-.32L3.07,9.93a.3.3,0,0,1,.37.47L1.13,12.09c2,.21,6.92,1,9.93,4.63,3-3.6,8-4.42,9.93-4.63L18.71,10.4a.3.3,0,0,1,.37-.47L22,12.11a.29.29,0,0,1-.16.53c-.08,0-7,.21-10.56,4.73a.27.27,0,0,1-.24.13Z"/><path class="cls-1" d="M11.07,21.09c-.58,0-1.08-.5-1.55-1s-.73-.76-1-.78a2.29,2.29,0,0,0-1.23.47,2.54,2.54,0,0,1-1.76.55c-.58-.16-.92-.76-1.26-1.33a4.81,4.81,0,0,0-.52-.81A.68.68,0,0,0,3.25,18a2,2,0,0,1-.39,0c-.58,0-1.34-.05-1.63-.89a1.57,1.57,0,0,1,.21-1.28A2.74,2.74,0,0,1,3.2,14.39a.32.32,0,0,1,.31.13c.92,1.39,4,2.35,7.56,2.35s6.67-1,7.58-2.35a.32.32,0,0,1,.31-.13,2.8,2.8,0,0,1,1.76,1.39,1.68,1.68,0,0,1,.21,1.28h0c-.31.84-1,.86-1.63.89a2,2,0,0,1-.39,0,.68.68,0,0,0-.45.24,7.25,7.25,0,0,0-.55.81c-.31.58-.66,1.18-1.23,1.33a2.47,2.47,0,0,1-1.76-.55,2.29,2.29,0,0,0-1.23-.47c-.31,0-.71.42-1,.78a2.5,2.5,0,0,1-1.57,1ZM8.4,18.73h.16a2.89,2.89,0,0,1,1.42,1c.37.39.79.78,1.1.78s.73-.39,1.13-.78a2.89,2.89,0,0,1,1.42-1,2.81,2.81,0,0,1,1.63.58c.47.26,1,.55,1.29.47s.6-.58.87-1a6.55,6.55,0,0,1,.63-.94,1.36,1.36,0,0,1,.84-.42,2,2,0,0,0,.39,0c.63,0,.94-.05,1.1-.5a1,1,0,0,0-.16-.78A2.41,2.41,0,0,0,19,15c-1.15,1.47-4.3,2.46-8,2.46S4.3,16.48,3.15,15a2.41,2.41,0,0,0-1.18,1,.93.93,0,0,0-.16.78c.16.44.47.47,1.08.5a2.4,2.4,0,0,0,.42,0,1.36,1.36,0,0,1,.84.42,4.83,4.83,0,0,1,.6.94c.29.47.55,1,.89,1s.81-.21,1.29-.47a3,3,0,0,1,1.47-.58Z"/><polygon class="cls-1" points="7.94 7.98 8.5 7.98 8.5 8.54 7.94 8.54 7.94 7.98 7.94 7.98"/><polygon class="cls-1" points="9.34 9.82 9.95 9.82 9.95 10.44 9.34 10.44 9.34 9.82 9.34 9.82"/><polygon class="cls-1" points="10.79 7.98 11.35 7.98 11.35 8.54 10.79 8.54 10.79 7.98 10.79 7.98"/><polygon class="cls-1" points="12.2 9.82 12.81 9.82 12.81 10.44 12.2 10.44 12.2 9.82 12.2 9.82"/><polygon class="cls-1" points="13.65 7.98 14.27 7.98 14.27 8.54 13.65 8.54 13.65 7.98 13.65 7.98"/><path d="M27.85,0A4.89,4.89,0,0,0,23,4.88v9.66a.31.31,0,0,0,.31.31h9.15a.31.31,0,0,0,.31-.31V4.88A4.89,4.89,0,0,0,27.85,0Zm4.27,14v.2H23.58V4.88a4.27,4.27,0,1,1,8.54,0Z"/><path d="M26.84,14.24a.31.31,0,0,0-.31.31v9.15a.31.31,0,1,0,.61,0V14.54A.31.31,0,0,0,26.84,14.24Z"/><path d="M26.54,23.69c0,.17,0,.31.08.31h2.48s.08-.14.08-.31,0-.31-.08-.31H26.62S26.54,23.53,26.54,23.69Z"/><path d="M28.87,14.24a.31.31,0,0,0-.31.31v9.15a.31.31,0,0,0,.61,0V14.54A.31.31,0,0,0,28.87,14.24Z"/><path d="M29.38,6.61a.31.31,0,0,0-.31.31V11a1.32,1.32,0,0,0,1.32,1.32.31.31,0,0,0,0-.61.71.71,0,0,1-.71-.71V6.92A.31.31,0,0,0,29.38,6.61Z"/><path d="M25.31,4.58a.31.31,0,0,0-.31.31v2a1.32,1.32,0,1,0,2.64,0,.31.31,0,1,0-.61,0,.71.71,0,0,1-1.42,0v-2A.31.31,0,0,0,25.31,4.58Z"/><path d="M28.36,5.59A1.32,1.32,0,0,0,27,6.92a.31.31,0,1,0,.61,0,.71.71,0,0,1,1.42,0,.31.31,0,1,0,.61,0A1.32,1.32,0,0,0,28.36,5.59Z"/></svg>