<svg id="Layer_1" data-name="Layer 1" xmlns="http://www.w3.org/2000/svg" viewBox="0 0 24.97 29.02"><defs><style>.cls-1{fill:#414042;}</style></defs><title>iSHOP Dashboard_Elements</title><path class="cls-1" d="M24.92,15.25,21.46,8.71A3.12,3.12,0,0,0,20,7.33L16.45,5.74a.41.41,0,0,0-.57.27l0,.07C14.5,5.51,13.19,5,12.93,4.88v0a.89.89,0,0,1,.3-.74L13.36,4l0,0A2.78,2.78,0,0,0,14.52,2a2,2,0,1,0-3.88.61l0,.12.78-.25,0-.12A1.16,1.16,0,1,1,13.7,2c0,.55-.5,1-.88,1.36l-.19.18a1.73,1.73,0,0,0-.54,1.38c-1.12.45-2.12.86-3,1.23l0-.11a.41.41,0,0,0-.57-.27L5,7.33A3.12,3.12,0,0,0,3.51,8.71L0,15.25a.41.41,0,0,0,.15.55l4.05,2.4a.41.41,0,0,0,.33,0A.41.41,0,0,0,4.84,18l.52-1.12V28.61a.41.41,0,0,0,.41.41H19.2a.41.41,0,0,0,.41-.41V16.9L20.13,18a.41.41,0,0,0,.25.22.41.41,0,0,0,.33,0l4.05-2.4A.41.41,0,0,0,24.92,15.25ZM12.48,8.65a3.49,3.49,0,0,1-3-1.77c1.28-.55,2.55-1.06,3.1-1.28a.82.82,0,0,0,.22.1c.79.31,1.8.72,2.8,1.14A3.49,3.49,0,0,1,12.48,8.65Zm7.38,3.64a.41.41,0,0,0-.09-.3.4.4,0,0,0-.28-.15.39.39,0,0,0-.3.09.41.41,0,0,0-.15.28L18.8,15V28.2H6.18V15h0l-.25-2.8a.41.41,0,0,0-.15-.28.42.42,0,0,0-.3-.1.41.41,0,0,0-.37.45L5.35,15,4.28,17.26,1,15.28,4.24,9.09a2.29,2.29,0,0,1,1.08-1l3.12-1.4a4.41,4.41,0,0,0,.19.42,4.33,4.33,0,0,0,7.74,0c.07-.13.12-.26.17-.38l3.12,1.4a2.29,2.29,0,0,1,1.08,1L24,15.28l-3.33,2L19.62,15Z"/></svg>