<svg id="Layer_1" data-name="Layer 1" xmlns="http://www.w3.org/2000/svg" viewBox="0 0 32.77 23.19"><defs><style>.cls-1{fill:#414042;}</style></defs><title>iSHOP Dashboard_Elements</title><path class="cls-1" d="M32.45,20.36H30.73V9.4a1.81,1.81,0,0,0-1.81-1.81H19.74A2.07,2.07,0,0,0,18.48,4.1l0-.08h0a5.21,5.21,0,0,1-.29-1.08c-.11-.9.2-2,2.46-2.28a.32.32,0,0,0,0-.64C15.53.35,14.5,3.22,14.3,4.1a2.07,2.07,0,0,0-1.23,3.49H3.85A1.81,1.81,0,0,0,2,9.4v11H.32a.32.32,0,0,0-.32.32H0c0,.64.91,1.17,2.08,1.57a19.67,19.67,0,0,0,4.67.93H26a19.67,19.67,0,0,0,4.66-.93c1.18-.4,2.08-.93,2.08-1.58A.32.32,0,0,0,32.45,20.36ZM2.68,16.31H30.09v1.4H2.68Zm27.41-.64H2.68V13.12a2.67,2.67,0,0,0,.18.22,2.65,2.65,0,0,0,3.75,0h0a2.67,2.67,0,0,0,.46-.64,2.66,2.66,0,0,0,.44.62l0,0a2.62,2.62,0,0,0,4.21-.64,2.62,2.62,0,0,0,4.67,0,2.64,2.64,0,0,0,4.21.64h0a2.67,2.67,0,0,0,.46-.64,2.64,2.64,0,0,0,4.21.64h0a2.66,2.66,0,0,0,.46-.64,2.67,2.67,0,0,0,.46.64h0a2.65,2.65,0,0,0,3.73,0l0,0c.05-.05.09-.11.14-.16ZM19.68,6.15a1.43,1.43,0,0,1-.42,1h0a1.44,1.44,0,0,1-2,0h0a1.44,1.44,0,1,1,2.47-1Zm-3.27,1a2.09,2.09,0,0,0,.34.48h-.67A2.09,2.09,0,0,0,16.41,7.11Zm1.53-5.93A2.4,2.4,0,0,0,17.53,3a5.29,5.29,0,0,0,.29,1.12,2,2,0,0,0-1.41,1.08A2,2,0,0,0,15,4.11,4.45,4.45,0,0,1,17.94,1.18Zm-4.38,6h0a1.44,1.44,0,1,1,2.05,0h0a1.44,1.44,0,0,1-2,0ZM3,8.58a1.16,1.16,0,0,1,.82-.34H28.92A1.17,1.17,0,0,1,30.09,9.4v2.06a2,2,0,0,1-.59,1.42v0a2,2,0,0,1-2.83,0h0a2,2,0,0,1-.59-1.42.32.32,0,1,0-.64,0,2,2,0,0,1-.59,1.42h0a2,2,0,0,1-3.44-1.42.32.32,0,0,0-.64,0,2,2,0,0,1-.59,1.42h0a2,2,0,0,1-3.44-1.42.32.32,0,0,0-.64,0,2,2,0,1,1-4,0,.32.32,0,0,0-.64,0A2,2,0,0,1,8,12.88H8a2,2,0,0,1-.57-1.41.32.32,0,0,0-.64,0,2,2,0,0,1-.59,1.42h0a2,2,0,0,1-3.44-1.42s0-.07,0-.11v-2A1.16,1.16,0,0,1,3,8.58Zm-.34,9.77H30.09v2H2.68Zm27.8,3.3a18.86,18.86,0,0,1-4.46.9H6.75a18.86,18.86,0,0,1-4.46-.9A5.56,5.56,0,0,1,.87,21h31A5.56,5.56,0,0,1,30.48,21.65Z"/></svg>