<svg id="Layer_1" data-name="Layer 1" xmlns="http://www.w3.org/2000/svg" viewBox="0 0 25.54 25.54"><defs><style>.cls-1{fill:#414042;}</style></defs><title>iSHOP Dashboard_Elements</title><path class="cls-1" d="M24.53,4.93,19.75.15A.52.52,0,0,0,19,.89l4.77,4.77a2.38,2.38,0,0,1,.42,2.81,35.8,35.8,0,0,1-6.77,9,35.7,35.7,0,0,1-9,6.75,2.38,2.38,0,0,1-2.81-.42L.89,19a.52.52,0,0,0-.74.74l4.77,4.77a3.42,3.42,0,0,0,4,.6,36.71,36.71,0,0,0,9.22-6.94,36.81,36.81,0,0,0,7-9.23A3.42,3.42,0,0,0,24.53,4.93Z"/><path class="cls-1" d="M7,22.75a.52.52,0,0,0,.74,0l.7-.7a.52.52,0,0,0-.74-.74l-.33.33L2.8,17.11a.52.52,0,0,0-.74.74Z"/><path class="cls-1" d="M9.09,20.62a.52.52,0,0,0,.57.11.52.52,0,0,0,.17-.11l.7-.7a.52.52,0,1,0-.74-.74l-.33.33L4.93,15a.52.52,0,0,0-.74.74Z"/><path class="cls-1" d="M11.22,18.49a.52.52,0,0,0,.74,0l.7-.7a.52.52,0,1,0-.74-.74l-.33.33L7.06,12.85a.52.52,0,0,0-.74.74Z"/><path class="cls-1" d="M13.35,16.36a.52.52,0,0,0,.74,0l.7-.7a.52.52,0,1,0-.74-.74l-.33.33L9.19,10.72a.52.52,0,0,0-.74.74Z"/><path class="cls-1" d="M15.48,14.23a.52.52,0,0,0,.74,0l.7-.7a.52.52,0,1,0-.74-.74l-.33.33L11.32,8.59a.52.52,0,0,0-.74.74Z"/><path class="cls-1" d="M17.61,12.1a.53.53,0,0,0,.37.15.53.53,0,0,0,.37-.15l.7-.7a.52.52,0,1,0-.74-.74L18,11,13.45,6.46a.52.52,0,0,0-.74.74Z"/><path class="cls-1" d="M19.74,10a.5.5,0,0,0,.61.08.52.52,0,0,0,.13-.08l.7-.7a.52.52,0,1,0-.74-.74l-.33.33L15.57,4.33a.52.52,0,1,0-.74.74Z"/><path class="cls-1" d="M21.87,7.84a.52.52,0,0,0,.74,0l.7-.7a.52.52,0,1,0-.74-.74l-.33.33L17.7,2.2a.52.52,0,0,0-.74.74Z"/></svg>