<svg id="Layer_1" data-name="Layer 1" xmlns="http://www.w3.org/2000/svg" viewBox="0 0 500 500"><defs><style>.cls-1{fill:#434243;}</style></defs><title>Icons</title><path class="cls-1" d="M250.36,499.62c-59.58,0-124.09-28.94-172.55-77.41C-5.69,338.71-25.25,216.62,35.08,155.61l.41-.42c24-24,56.89-36.66,95.16-36.66a187.82,187.82,0,0,1,27.46,2.08l5.49-2.37a300.32,300.32,0,0,1,33.89-40.42C246.7,28.61,308,.38,365.73.38c38.41,0,71.67,12.83,96.17,37.11l.42.4c62.95,62.95,45.32,179.18-40.12,264.63a299.49,299.49,0,0,1-40.42,33.89l-2.37,5.49c7.3,49.24-4.87,92.66-34.26,122.28-23.29,23.3-55.95,35.43-94.78,35.43ZM32.1,191.1c-31,59.72-5.7,153.43,58.84,218,45.07,45.07,104.74,72,159.61,72,29.43,0,55-8.05,74-23.28l1.84-6.2-4.58-13.93A176.2,176.2,0,0,0,188.84,320,195.11,195.11,0,0,1,42.51,191.88Zm98.76-54c-29.41,0-55.38,8.57-75.08,24.77L54,168l6.05,17.79A176.46,176.46,0,0,0,192.45,301.74,195.36,195.36,0,0,1,338.18,428.17l10.31.88c13.41-24.17,17.57-54.51,12-87.74-7.67-46.06-32.94-92.47-71.15-130.67C243.32,164.57,184.06,137.07,130.86,137.07Zm300.81-74.6c-59.94,20.41-101.39,67.79-113.72,130-.88,4.46-2,9.16-3.34,14l1.21,5.26c26.46,30,46,64.36,56.58,99.22l8.89,2.85a284.53,284.53,0,0,0,27.76-24.38c74.25-74.25,94.28-173.65,46.6-231.23l-6.2-1.75ZM365.49,19c-51.9,0-109.79,26.91-154.86,72a284.6,284.6,0,0,0-24.38,27.76l2.85,8.89c36.15,11,71.54,31.48,102.33,59.37l9.34-3A188.34,188.34,0,0,1,425.68,44.89l.68-.23,1-10.3C409.51,24.15,388.69,19,365.49,19Z"/></svg>