<svg id="Layer_1" data-name="Layer 1" xmlns="http://www.w3.org/2000/svg" viewBox="0 0 22.23 27.28"><defs><style>.cls-1{fill:#444344;}</style></defs><title>Ishop icon P2P_9-10</title><path class="cls-1" d="M17.59,14.26h-13V12.08h13ZM5.36,13.54H16.87v-.73H5.36Z"/><path class="cls-1" d="M16.62,12.81h-11V11.7a5.51,5.51,0,1,1,11,0Zm-10.3-.72h9.58V11.7a4.79,4.79,0,1,0-9.58,0Z"/><polygon class="cls-1" points="15.49 27.14 6.72 27.14 5.66 15.01 6.38 14.95 7.39 26.42 14.84 26.42 15.9 14.97 16.62 15.04 15.49 27.14"/><path class="cls-1" d="M16.63,15.38h-11V13.55h11ZM6.31,14.66h9.6v-.38H6.31Z"/><path class="cls-1" d="M14.79,11.32a.36.36,0,0,1-.36-.36,2.58,2.58,0,0,0-2.58-2.58.36.36,0,0,1,0-.72,3.31,3.31,0,0,1,3.3,3.3A.36.36,0,0,1,14.79,11.32Z"/><path class="cls-1" d="M11.7,6.61h0a.36.36,0,0,1-.32-.4l.4-3.86L15.94.18a.36.36,0,0,1,.33.64l-3.86,2-.36,3.47A.36.36,0,0,1,11.7,6.61Z"/></svg>