<svg id="Layer_1" data-name="Layer 1" xmlns="http://www.w3.org/2000/svg" viewBox="0 0 26.25 24.71"><defs><style>.cls-1{fill:#414042;}</style></defs><title>iSHOP Dashboard_Elements</title><path class="cls-1" d="M3.65,16.3a2.15,2.15,0,1,0,2.16,2.15A2.16,2.16,0,0,0,3.65,16.3Zm0,3.56a1.4,1.4,0,1,1,1.41-1.4A1.41,1.41,0,0,1,3.65,19.86Z"/><path class="cls-1" d="M2.11,13.67H5.2a.38.38,0,0,0,.38-.37V2.82a.38.38,0,0,0-.37-.37H2.11a.38.38,0,0,0-.37.38V13.29A.38.38,0,0,0,2.11,13.67ZM2.48,3.19H4.83v9.72H2.48Z"/><path class="cls-1" d="M10.31,16.3a2.15,2.15,0,1,0,2.15,2.15A2.16,2.16,0,0,0,10.31,16.3Zm0,3.56a1.4,1.4,0,1,1,1.4-1.4A1.41,1.41,0,0,1,10.31,19.86Z"/><path class="cls-1" d="M8.76,13.67h3.1a.38.38,0,0,0,.38-.37V2.82a.38.38,0,0,0-.37-.37H8.76a.38.38,0,0,0-.37.38V13.29A.38.38,0,0,0,8.76,13.67ZM9.14,3.19h2.35v9.72H9.14Z"/><path class="cls-1" d="M26.21,21.93,20.56.88A1.19,1.19,0,0,0,19.11,0L14.35,1.32h0a1.18,1.18,0,0,0-.42.21,1.17,1.17,0,0,0-1.15-1H7.84A1.18,1.18,0,0,0,7,.92,1.18,1.18,0,0,0,6.12.53H1.19A1.19,1.19,0,0,0,0,1.72V23.52a1.19,1.19,0,0,0,1.19,1.19H6.12A1.18,1.18,0,0,0,7,24.33a1.18,1.18,0,0,0,.86.38h4.93A1.19,1.19,0,0,0,14,23.52v-19l5.18,19.35a1.19,1.19,0,0,0,1.46.84l4.76-1.28a1.19,1.19,0,0,0,.84-1.45ZM6.56,23.52a.44.44,0,0,1-.44.44H1.19a.44.44,0,0,1-.44-.44V1.72a.44.44,0,0,1,.44-.44H6.12a.44.44,0,0,1,.44.44Zm6.66,0a.44.44,0,0,1-.44.44H7.84a.44.44,0,0,1-.44-.44V1.72a.44.44,0,0,1,.44-.44h4.93a.44.44,0,0,1,.44.44Zm12.22-1.06a.43.43,0,0,1-.26.2l-4.76,1.28a.44.44,0,0,1-.33,0,.44.44,0,0,1-.21-.26L14.23,2.58A.44.44,0,0,1,14.54,2L19.3.77a.44.44,0,0,1,.54.31l5.64,21.05A.43.43,0,0,1,25.44,22.46Z"/><path class="cls-1" d="M22.44,16.13a2.16,2.16,0,1,0,1,1.31A2.15,2.15,0,0,0,22.44,16.13Zm.14,2.57A1.4,1.4,0,1,1,21,16.64h0a1.42,1.42,0,0,1,.37,0,1.41,1.41,0,0,1,1.21,2.11Z"/><path class="cls-1" d="M21.85,12.79a.38.38,0,0,0,0-.28L19.18,2.39a.38.38,0,0,0-.46-.27l-3,.8a.37.37,0,0,0-.23.17.38.38,0,0,0,0,.28L18.17,13.5a.37.37,0,0,0,.36.28h.1l3-.8A.37.37,0,0,0,21.85,12.79Zm-3,.15L16.28,3.55l2.26-.61,2.52,9.39Z"/></svg>