<svg id="Layer_1" data-name="Layer 1" xmlns="http://www.w3.org/2000/svg" viewBox="0 0 55.47 53.81"><defs><style>.cls-1{fill:none;stroke:#444344;stroke-miterlimit:10;stroke-width:0.75px;}.cls-2{fill:#edf0f1;}</style></defs><title>Candy- Gum- Mints</title><path class="cls-1" d="M43.22,20.91s1.38-.53,1.38-1.5c0-.46-.33-1.08-.83-1a.83.83,0,0,1-.84-.82s0,0,0,0l.06-.4a.82.82,0,0,0-.81-.83h0l-.4.06a.82.82,0,0,1-.83-.81s0,0,0,0l.06-.4a.83.83,0,0,0-.82-.84h0l-.4.06a.82.82,0,0,1-.84-.8s0,0,0,0l.06-.4a.82.82,0,0,0-.81-.83h0l-.4.05a.82.82,0,0,1-.84-.8s0,0,0,0v-.07c.07-.48-.52-.75-1-.79-1.19-.11-1.56,1.39-1.56,1.41A21.92,21.92,0,0,0,32,20.59l2.91,2.91a16.14,16.14,0,0,0,8.29-2.57Z"/><path class="cls-1" d="M14.25,32.16s-1.47.44-1.38,1.5c0,.46.33,1.08.83,1a.82.82,0,0,1,.83.81s0,0,0,0l-.06.4a.83.83,0,0,0,.82.84h0l.4-.06a.82.82,0,0,1,.84.8s0,0,0,0l-.06.4a.82.82,0,0,0,.81.83h0l.4-.06a.82.82,0,0,1,.84.8s0,0,0,0l-.06.4a.82.82,0,0,0,.8.84h0l.4-.06a.83.83,0,0,1,.84.82s0,0,0,0v.07c-.07.48.51.76,1,.79,1.19.11,1.56-1.39,1.56-1.41a21.93,21.93,0,0,0,2.42-8.52l-2.91-2.91a16.36,16.36,0,0,0-8.34,2.6Z"/><path class="cls-2" d="M19.58,33a.56.56,0,0,1-.07-1.11c.44,0,.83-.07,1.17-.08a2.29,2.29,0,0,0,2.14-.89.56.56,0,0,1,.93.63l-.08.09a3.36,3.36,0,0,1-3,1.28,5.87,5.87,0,0,0-1.07.07Z"/><path class="cls-2" d="M21.25,38a.55.55,0,0,1-.55-.49,6.34,6.34,0,0,1,2.89-6.18.57.57,0,0,1,.54,1h0A5.27,5.27,0,0,0,21.8,37.4a.56.56,0,0,1-.48.62Z"/><path class="cls-2" d="M34.27,22.39a.57.57,0,0,1-.36-.13.56.56,0,0,1-.07-.78,3.36,3.36,0,0,1,3-1.28,10.49,10.49,0,0,0,1.07-.07.55.55,0,0,1,.14,1.1c-.44,0-.83.07-1.17.08a2.29,2.29,0,0,0-2.14.89.55.55,0,0,1-.42.2Z"/><path class="cls-2" d="M33.66,21.85a.56.56,0,0,1-.27-1,5.26,5.26,0,0,0,2.33-5.07.56.56,0,1,1,1.1-.19v.05a6.34,6.34,0,0,1-2.89,6.18.53.53,0,0,1-.27.07Z"/><path class="cls-1" d="M36.3,28.07l-6,6a2.23,2.23,0,0,1-3.14,0l-6-6a2.23,2.23,0,0,1,0-3.14l6-6a2.23,2.23,0,0,1,3.14,0l6,6A2.23,2.23,0,0,1,36.3,28.07Z"/><path class="cls-1" d="M34.81,29.55l-4.08,4.08L22.93,23.1,27,19Z"/></svg>