<svg id="Layer_1" data-name="Layer 1" xmlns="http://www.w3.org/2000/svg" viewBox="0 0 500 500"><defs><style>.cls-1{fill:none;}</style></defs><title>Icon</title><path d="M336.22,446.34a135.94,135.94,0,0,1-15.88,5.59c-2.09,0-4.71-1.57-7.16-2.44,1.22-2.09,1.92-5.24,3.49-6.11a250.19,250.19,0,0,1,25.83-9.6,7.85,7.85,0,0,1,7,2.79A253.44,253.44,0,0,1,362.4,461.7c0,1.92-1,4.89-1.57,7.33-2.27-1.22-5.59-1.74-6.81-3.67a139.57,139.57,0,0,1-8-14.84l-4.19,7a63.53,63.53,0,0,1-62.31,32.12,64.4,64.4,0,0,1-57.77-46.43c-1.22-3.32-3-7.33,1.75-9.25s6.28,2.62,7.5,6.28a56.55,56.55,0,0,0,103.5,10.65l1.22-2.44A13.12,13.12,0,0,0,336.22,446.34Z"/><path d="M225.74,391.19a67.89,67.89,0,0,1,41.36-34.91,66,66,0,0,1,80.46,41.36c1.4,3.67,3.14,7.85-1.92,9.6s-5.76-2.79-7.16-6.11a55,55,0,0,0-47.65-37.35,54.11,54.11,0,0,0-52.36,23.91c-1.57,2.09-2.62,4.36-4.71,7.85a150.37,150.37,0,0,1,17.45-4.36c2.27,0,4.71,1.74,7.16,2.79-1.4,2.09-2.44,5.41-4.54,6.11a211.71,211.71,0,0,1-25.31,7,8.2,8.2,0,0,1-7-3.14,237.67,237.67,0,0,1-11.87-25c0-1.92,1.22-4.89,1.92-7.33,2.09,1,5.24,1.4,6.28,3.14A157.06,157.06,0,0,1,225.74,391.19Z"/><path class="cls-1" d="M226.79,25.53a5.59,5.59,0,1,0-5.59-5.59,5.59,5.59,0,0,0,5.59,5.59Zm0-9.95c2.79,0,3.49,4.54,3.67,4.89a1,1,0,0,1-.84,1.22h0a1,1,0,0,1-1-.87c0-.87-.87-3-1.92-3.14a1,1,0,0,1,0-2.09Z"/><path class="cls-1" d="M244.07,117.69A16.06,16.06,0,1,0,228,101.63h0A16.06,16.06,0,0,0,244.07,117.69Zm7.5-27.23c4.89,2.27,5.59,10.82,5.59,11.17a1,1,0,0,1-.86,1.21h-.19a1,1,0,0,1-1-1c0-2.09-1.22-7.85-4.36-9.25a1.05,1.05,0,0,1,.87-1.92Z"/><path class="cls-1" d="M291.19,73.53a27.4,27.4,0,1,0-27.4-27.4,27.4,27.4,0,0,0,27.4,27.4Zm17.45-45.9a20.07,20.07,0,0,1,7.85,13.09,1,1,0,0,1-.84,1.22h0a1,1,0,0,1-1-.87,18.33,18.33,0,0,0-6.81-11.52A1.14,1.14,0,1,1,309,27.63Z"/><path class="cls-1" d="M264.14,67.42a11.37,11.37,0,0,0,3.67,0,31.59,31.59,0,0,1-7.68-20.6h0a11.17,11.17,0,0,0,4,21.64Z"/><rect class="cls-1" x="182.45" y="147.36" width="68.77" height="11"/><path class="cls-1" d="M188.39,239.69a15.71,15.71,0,0,0,11-4.19,27.23,27.23,0,0,1,34.91,0,16.23,16.23,0,0,0,21.82,0,30.73,30.73,0,0,1,9.25-5.24l-21.12-41.71a5.58,5.58,0,0,1,0-2.44V168.65H190.13v17.45a5.58,5.58,0,0,1,0,2.44L169,230.61a30.73,30.73,0,0,1,9.25,5.24A15.71,15.71,0,0,0,188.39,239.69Zm17.45-59.17h20.94a5.59,5.59,0,0,1,0,11H205.84a5.59,5.59,0,0,1,0-11Z"/><path d="M158.37,472a9.25,9.25,0,0,1-9.25-9.25h0V281.58a68.24,68.24,0,0,1,6.11-25.48l7.85-15.71a17.45,17.45,0,0,1,7.68,4,27.23,27.23,0,0,0,34.91,0,16.23,16.23,0,0,1,21.82,0,27.23,27.23,0,0,0,34.91,0,17.45,17.45,0,0,1,7.68-4l7.85,15.71A68.24,68.24,0,0,1,284,281.58v52.36h11V281.58a78.9,78.9,0,0,0-7.16-30.37l-33.51-66.32V169.53h1.92a5.59,5.59,0,0,0,5.59-5.59h0V141.77a5.58,5.58,0,0,0-5.59-5.59H176.35a5.59,5.59,0,0,0-5.59,5.59h0v22.17a5.58,5.58,0,0,0,5.59,5.59h1.92v15.36l-33.51,66.32a78.9,78.9,0,0,0-7.16,30.37V462.75A20.25,20.25,0,0,0,157.85,483h63.53a90.29,90.29,0,0,1-8.55-11Zm24.09-324.64h68.77v11H182.46Zm6.81,41.19a5.58,5.58,0,0,0,0-2.44V168.65h54.11v17.45a5.58,5.58,0,0,0,0,2.44l21.12,41.71a30.73,30.73,0,0,0-9.25,5.24,16.23,16.23,0,0,1-21.82,0,27.23,27.23,0,0,0-34.91,0,16.23,16.23,0,0,1-21.82,0,30.73,30.73,0,0,0-9.25-5.24Z"/><path d="M165.7,427.66a5.59,5.59,0,0,0-5.59,5.59h0v22.17a5.59,5.59,0,0,0,11,0V433.25A5.59,5.59,0,0,0,165.7,427.66Z"/><path d="M165,261.16a58.82,58.82,0,0,0-4.89,20.42V411.08a5.59,5.59,0,0,0,11,0V281.58A48.88,48.88,0,0,1,174.78,266a5.59,5.59,0,0,0-9.95-5.06Z"/><path d="M206.37,191.69h20.94a5.59,5.59,0,0,0,0-11H206.37a5.59,5.59,0,0,0,0,11Z"/><path d="M264.14,72a15.71,15.71,0,0,0,7-1.74,31.77,31.77,0,1,0-10.47-29.15A15.71,15.71,0,0,0,264.14,72ZM291.89,19.6A27.4,27.4,0,1,1,264.49,47a27.4,27.4,0,0,1,26.69-28.1h0ZM260.12,46.48h0a31.59,31.59,0,0,0,7.68,20.6A11.24,11.24,0,1,1,260.12,46Z"/><path d="M226.79,29.9a9.95,9.95,0,1,0-9.95-9.95,9.95,9.95,0,0,0,9.95,9.95Zm0-15.53a5.5,5.5,0,1,0,0,.17Z"/><path d="M223.65,101.46A20.6,20.6,0,1,0,244.41,81h-.17A20.6,20.6,0,0,0,223.65,101.46Zm20.6-16.06a16.06,16.06,0,1,1-16.06,16.06h0A16.06,16.06,0,0,1,244.07,85.4Z"/><path d="M314.4,41.07a1,1,0,0,0,1,.87h0a1,1,0,0,0,.88-1.19v0a20.07,20.07,0,0,0-7.85-13.09,1.14,1.14,0,0,0-1.22,1.92A17.45,17.45,0,0,1,314.4,41.07Z"/><path d="M255.06,101.63a1,1,0,0,0,1,1h0a1,1,0,0,0,1.06-1,1,1,0,0,0,0-.19s0-8.73-5.59-11.17a1.05,1.05,0,0,0-.87,1.92C253.84,93.78,254.89,99.54,255.06,101.63Z"/><path d="M228.71,21.17a1,1,0,0,0,1,.87h0a1,1,0,0,0,.88-1.19v0s-.87-4.36-3.67-4.89A1,1,0,0,0,227,18C227.83,18,228.53,19.95,228.71,21.17Z"/></svg>