<svg id="Layer_1" data-name="Layer 1" xmlns="http://www.w3.org/2000/svg" viewBox="0 0 22.45 29.3"><defs><style>.cls-1{fill:#414042;}</style></defs><title>iSHOP Dashboard_Elements</title><path class="cls-1" d="M21.41,11.75h0v-.47A1.32,1.32,0,0,0,20.1,10h-1L18.86,6.1a.72.72,0,0,0-.72-.67h-.94a.72.72,0,0,0-.72.67L16.24,10h-1a1.32,1.32,0,0,0-1.32,1.32v.47h0a1.53,1.53,0,0,0-1,1.44V27.78a1.53,1.53,0,0,0,1.53,1.53h6.48a1.53,1.53,0,0,0,1.53-1.53V13.19A1.53,1.53,0,0,0,21.41,11.75ZM17.32,6.26H18L18.28,10H17.07Zm-2.06,4.53H20.1a.48.48,0,0,1,.48.48v.38H14.77v-.38A.48.48,0,0,1,15.25,10.79Zm6.36,17a.7.7,0,0,1-.69.7H14.44a.7.7,0,0,1-.69-.7V13.19a.7.7,0,0,1,.69-.69h6.48a.7.7,0,0,1,.69.69Z"/><path class="cls-1" d="M17.68,17.23c-1.21,0-2.19,1.42-2.19,3.16s1,3.16,2.19,3.16,2.19-1.42,2.19-3.16S18.89,17.23,17.68,17.23Zm0,5.77C16.79,23,16,21.8,16,20.39s.75-2.61,1.64-2.61,1.64,1.19,1.64,2.61S18.56,23,17.68,23Z"/><path class="cls-1" d="M6.12,16.78c-2,0-3.58,1.22-3.58,2.28l.79,6.36H8.91L9.7,19.1v0C9.7,18,8.14,16.78,6.12,16.78ZM8.3,24.72H3.94L3.23,19c0-.62,1.26-1.57,2.89-1.57S9,18.41,9,19Z"/><path class="cls-1" d="M11.88,14.6A22.61,22.61,0,0,1,8.7,3.46h.65V1.64A1.64,1.64,0,0,0,7.71,0H4.53A1.64,1.64,0,0,0,2.89,1.64V3.46h.65A22.61,22.61,0,0,1,.36,14.6l0,.07A3.48,3.48,0,0,0,0,16.13V27.29a2,2,0,0,0,2,2h8.22a2,2,0,0,0,2-2V16.13a3.48,3.48,0,0,0-.32-1.46Zm-8-13a.6.6,0,0,1,.6-.6H7.71a.6.6,0,0,1,.6.6v.79H3.93ZM11.2,27.29a1,1,0,0,1-1,1H2a1,1,0,0,1-1-1V16.13a2.45,2.45,0,0,1,.21-1A23.28,23.28,0,0,0,4.58,3.46H7.66A23.28,23.28,0,0,0,11,15.13a2.45,2.45,0,0,1,.21,1Z"/></svg>