<svg id="Layer_1" data-name="Layer 1" xmlns="http://www.w3.org/2000/svg" viewBox="0 0 28.74 22.67"><defs><style>.cls-1{fill:#414042;stroke:#414042;stroke-miterlimit:10;stroke-width:0.25px;}</style></defs><title>iSHOP Dashboard_Elements</title><path class="cls-1" d="M26.61,3.88A10,10,0,0,0,18.94.13a6.83,6.83,0,0,0-5,2C11.77,4.38,9.36,4.87,7,5.34,3.76,6,.68,6.62.16,12.37a7.78,7.78,0,0,0,2,6.18c2.29,2.5,6.42,4,11.06,4A17.9,17.9,0,0,0,22.69,20a12.23,12.23,0,0,0,5.6-7.6A9.57,9.57,0,0,0,26.61,3.88Zm.76,8.26c-1.53,6.51-8.4,9.48-14.13,9.48-4.37,0-8.25-1.38-10.36-3.69A6.88,6.88,0,0,1,1.1,12.45c.45-5,2.82-5.53,6.1-6.19,2.37-.48,5-1,7.38-3.48a5.9,5.9,0,0,1,4.36-1.72,9.06,9.06,0,0,1,6.94,3.4A8.67,8.67,0,0,1,27.38,12.14Z"/><path class="cls-1" d="M11.51,9C8.47,9,6,11,6,13.4s2.47,4.36,5.51,4.36S17,15.8,17,13.4,14.55,9,11.51,9Zm0,8.24c-2.78,0-5-1.74-5-3.89s2.26-3.89,5-3.89,5,1.74,5,3.89S14.29,17.28,11.51,17.28Z"/><path class="cls-1" d="M15,12.25a2.33,2.33,0,0,1,.3,1.14,2.46,2.46,0,0,1-.68,1.66l.35.31a2.92,2.92,0,0,0,.8-2A2.79,2.79,0,0,0,15.42,12Z"/><path class="cls-1" d="M11.51,10v.47a4.31,4.31,0,0,1,3,1.09l.32-.34A4.78,4.78,0,0,0,11.51,10Z"/></svg>