<svg id="Layer_1" data-name="Layer 1" xmlns="http://www.w3.org/2000/svg" viewBox="0 0 29.09 20.83"><defs><style>.cls-1{fill:#414042;}</style></defs><title>iSHOP Dashboard_Elements</title><path class="cls-1" d="M29.06,20a.36.36,0,0,0,0-.13v0l0,0v0l-3.58-4a1.51,1.51,0,0,0,.59-1.2v-13A1.52,1.52,0,0,0,24.47,0H4.63A1.52,1.52,0,0,0,3.11,1.52v13a1.51,1.51,0,0,0,.6,1.2l-3.57,4a.51.51,0,0,0-.08.57.93.93,0,0,0,.79.49H28.27a.92.92,0,0,0,.77-.45A.53.53,0,0,0,29.06,20ZM3.86,1.52A.77.77,0,0,1,4.63.75H24.47a.77.77,0,0,1,.77.77v13a.77.77,0,0,1-.77.77H4.63a.77.77,0,0,1-.77-.77ZM4.44,16l.18,0H24.47l.19,0,3.58,4H.87Z"/><path class="cls-1" d="M5.2,14.15H23.9a.38.38,0,0,0,.38-.37V2.22a.38.38,0,0,0-.37-.37H5.2a.38.38,0,0,0-.37.38V13.78A.38.38,0,0,0,5.2,14.15ZM5.57,2.59h18V13.4h-18Z"/></svg>