<svg id="Layer_1" data-name="Layer 1" xmlns="http://www.w3.org/2000/svg" viewBox="0 0 22.23 27.28"><defs><style>.cls-1{fill:#444344;}</style></defs><title>Ishop icon P2P_9-10</title><rect class="cls-1" x="11.7" y="16.52" width="1.33" height="4.31"/><path class="cls-1" d="M19.07,17.24H10.39V15.37h8.68Zm-8-.73h7.23V16.1H11.12Z"/><path class="cls-1" d="M12.91,14.24a.66.66,0,0,1-.68-.62h.48c0,.06.08.14.2.14s.2-.07.2-.14h.48A.66.66,0,0,1,12.91,14.24Z"/><path class="cls-1" d="M13,13.85a3.75,3.75,0,0,1-1.17-.2l-.31-.12,1-1.28V11.09h.75v1.13c.14.19.57.74.81,1l.2.21-.24.16A1.92,1.92,0,0,1,13,13.85Zm-.67-.57a2.38,2.38,0,0,0,1.2,0c-.23-.27-.48-.6-.61-.76Z"/><path class="cls-1" d="M16.77,14.26a.65.65,0,0,1-.68-.62h.48c0,.06.08.13.2.13s.2-.07.2-.13h.48A.65.65,0,0,1,16.77,14.26Z"/><path class="cls-1" d="M16.87,13.88a3.75,3.75,0,0,1-1.17-.2l-.31-.12,1-1.28V11h.75v1.18c.14.19.57.74.81,1l.2.21-.24.16A1.92,1.92,0,0,1,16.87,13.88Zm-.67-.57a2.38,2.38,0,0,0,1.2,0c-.23-.27-.48-.6-.61-.76Z"/><polygon class="cls-1" points="20.25 21.71 1.98 21.71 1.98 10.52 2.71 10.52 2.71 20.99 19.52 20.99 19.52 10.48 20.25 10.48 20.25 21.71"/><polygon class="cls-1" points="8.16 20.93 3.37 20.93 3.37 11 4.09 11 4.09 20.2 7.43 20.2 7.43 10.94 8.16 10.94 8.16 20.93"/><polygon class="cls-1" points="19.17 20.83 8.33 20.83 8.33 10.98 9.05 10.98 9.05 20.11 18.45 20.11 18.45 11.09 19.17 11.09 19.17 20.83"/><path class="cls-1" d="M19.78,4.57l1,3.67H1.49L2.4,4.57H19.78m.55-.73H1.83L.56,9h21.2L20.34,3.84Z"/><path class="cls-1" d="M1.44,11.46A1.34,1.34,0,0,1,.11,10.12V8.58H2.78v1.54A1.34,1.34,0,0,1,1.44,11.46ZM.84,9.3v.82a.61.61,0,1,0,1.22,0V9.3Z"/><path class="cls-1" d="M3.38,11.46A1.34,1.34,0,0,1,2,10.12V8.58H4.71v1.54A1.34,1.34,0,0,1,3.38,11.46ZM2.77,9.3v.82a.61.61,0,1,0,1.22,0V9.3Z"/><path class="cls-1" d="M5.31,11.46A1.34,1.34,0,0,1,4,10.12V8.58H6.65v1.54A1.34,1.34,0,0,1,5.31,11.46ZM4.7,9.3v.82a.61.61,0,1,0,1.22,0V9.3Z"/><path class="cls-1" d="M7.24,11.46a1.34,1.34,0,0,1-1.34-1.34V8.58H8.58v1.54A1.34,1.34,0,0,1,7.24,11.46ZM6.63,9.3v.82a.61.61,0,1,0,1.22,0V9.3Z"/><path class="cls-1" d="M9.18,11.46a1.34,1.34,0,0,1-1.34-1.34V8.58h2.67v1.54A1.34,1.34,0,0,1,9.18,11.46ZM8.57,9.3v.82a.61.61,0,1,0,1.22,0V9.3Z"/><path class="cls-1" d="M11.11,11.46a1.34,1.34,0,0,1-1.34-1.34V8.58h2.67v1.54A1.34,1.34,0,0,1,11.11,11.46ZM10.5,9.3v.82a.61.61,0,1,0,1.22,0V9.3Z"/><path class="cls-1" d="M13,11.46a1.34,1.34,0,0,1-1.34-1.34V8.58h2.67v1.54A1.34,1.34,0,0,1,13,11.46ZM12.43,9.3v.82a.61.61,0,1,0,1.22,0V9.3Z"/><path class="cls-1" d="M15,11.46a1.34,1.34,0,0,1-1.34-1.34V8.58h2.67v1.54A1.34,1.34,0,0,1,15,11.46ZM14.36,9.3v.82a.61.61,0,1,0,1.22,0V9.3Z"/><path class="cls-1" d="M16.91,11.46a1.34,1.34,0,0,1-1.34-1.34V8.58h2.67v1.54A1.34,1.34,0,0,1,16.91,11.46ZM16.3,9.3v.82a.61.61,0,1,0,1.22,0V9.3Z"/><path class="cls-1" d="M18.84,11.46a1.34,1.34,0,0,1-1.34-1.34V8.58h2.67v1.54A1.34,1.34,0,0,1,18.84,11.46ZM18.23,9.3v.82a.61.61,0,1,0,1.22,0V9.3Z"/><path class="cls-1" d="M20.77,11.46a1.34,1.34,0,0,1-1.34-1.34V8.58h2.67v1.54A1.34,1.34,0,0,1,20.77,11.46ZM20.16,9.3v.82a.61.61,0,1,0,1.22,0V9.3Z"/><path class="cls-1" d="M21.06,22.53a.09.09,0,1,1,0,.18H1.17a.09.09,0,1,1,0-.18H21.06m0-.73H1.17a.82.82,0,1,0,0,1.64H21.06a.82.82,0,1,0,0-1.64Z"/><path class="cls-1" d="M5.46,15.38H3.93a.48.48,0,1,1,0-1H5.46a.48.48,0,1,1,0,1Z"/></svg>