<svg id="Layer_1" data-name="Layer 1" xmlns="http://www.w3.org/2000/svg" viewBox="0 0 23.22 27.28"><defs><style>.cls-1{fill:#444344;}</style></defs><title>Ishop icon P2P_9-10</title><path class="cls-1" d="M16.11,4.9l-.65-.38.46-.8a9.31,9.31,0,0,0-8.62,0l.46.8-.65.38L6.27,3.44l.33-.19a10.06,10.06,0,0,1,10,0l.32.19Z"/><path class="cls-1" d="M1.79,13.17H.11v-.38a10.07,10.07,0,0,1,5-8.68l.33-.19.84,1.45-.65.38-.46-.8A9.32,9.32,0,0,0,.87,12.42h.92Z"/><path class="cls-1" d="M5.45,23.36l-.32-.19a10.07,10.07,0,0,1-5-8.69v-.38H1.79v.75H.87a9.32,9.32,0,0,0,4.31,7.47l.46-.8.65.38Z"/><path class="cls-1" d="M11.61,25.36A10,10,0,0,1,6.6,24l-.33-.19.84-1.45.65.38-.46.8a9.32,9.32,0,0,0,8.62,0l-.46-.8.65-.38L17,23.84l-.33.19A10.05,10.05,0,0,1,11.61,25.36Z"/><path class="cls-1" d="M17.77,23.36l-.84-1.46.65-.38.46.8a9.32,9.32,0,0,0,4.31-7.47h-.92v-.75h1.68v.38a10.07,10.07,0,0,1-5,8.69Z"/><path class="cls-1" d="M23.11,13.17H21.43v-.75h.92A9.32,9.32,0,0,0,18,4.95l-.46.8-.65-.38.84-1.46.32.19a10.07,10.07,0,0,1,5,8.69Z"/><path class="cls-1" d="M11.61,12.69,6.91,4.54l.37-.17a10.29,10.29,0,0,1,8.67,0l.37.17ZM8,4.89l3.64,6.31,3.64-6.31A9.55,9.55,0,0,0,8,4.89Z"/><path class="cls-1" d="M10.79,13.17H1.38l0-.41A10.21,10.21,0,0,1,5.75,5.25L6.09,5Zm-8.58-.75H9.49L5.85,6.11A9.45,9.45,0,0,0,2.21,12.42Z"/><path class="cls-1" d="M6.08,22.26,5.75,22a10.21,10.21,0,0,1-4.33-7.51l0-.41h9.41Zm-3.88-7.4a9.45,9.45,0,0,0,3.64,6.3l3.64-6.3Z"/><path class="cls-1" d="M11.61,23.87a10.14,10.14,0,0,1-4.33-1l-.37-.17,4.71-8.15,4.7,8.15-.37.17A10.14,10.14,0,0,1,11.61,23.87ZM8,22.39a9.53,9.53,0,0,0,7.28,0l-3.64-6.31Z"/><path class="cls-1" d="M17.13,22.26l-4.7-8.15h9.41l0,.41A10.2,10.2,0,0,1,17.47,22Zm-3.4-7.4,3.64,6.31A9.45,9.45,0,0,0,21,14.86Z"/><path class="cls-1" d="M21.84,13.17H12.43L17.13,5l.34.23a10.21,10.21,0,0,1,4.33,7.51Zm-8.11-.75H21a9.45,9.45,0,0,0-3.64-6.31Z"/><path class="cls-1" d="M11.61,9.25a.75.75,0,1,1,.75-.75A.75.75,0,0,1,11.61,9.25Zm0-.75h0Z"/><path class="cls-1" d="M3.51,12.2a.75.75,0,1,1,.75-.75A.75.75,0,0,1,3.51,12.2Zm0-.75h0Z"/><path class="cls-1" d="M6.78,12.15a.75.75,0,1,1,.75-.75A.75.75,0,0,1,6.78,12.15Zm0-.75h0Z"/><path class="cls-1" d="M7.36,17.42a.75.75,0,1,1,.75-.75A.75.75,0,0,1,7.36,17.42Zm0-.75h0Z"/><path class="cls-1" d="M11.39,19.16a.75.75,0,1,1,.75-.75A.75.75,0,0,1,11.39,19.16Zm0-.75h0Z"/><path class="cls-1" d="M15.79,16.85a.75.75,0,1,1,.75-.75A.75.75,0,0,1,15.79,16.85Zm0-.75h0Z"/><path class="cls-1" d="M17.55,20.28a.75.75,0,1,1,.75-.75A.75.75,0,0,1,17.55,20.28Zm0-.75h0Z"/><path class="cls-1" d="M17.55,8.47a.75.75,0,1,1,.75-.75A.75.75,0,0,1,17.55,8.47Zm0-.75h0Z"/><path class="cls-1" d="M11.61,7.49A1.29,1.29,0,1,1,12.9,6.2,1.29,1.29,0,0,1,11.61,7.49Zm0-1.82a.54.54,0,1,0,.54.54A.54.54,0,0,0,11.61,5.67Z"/><path class="cls-1" d="M5.17,11.21A1.29,1.29,0,1,1,6.46,9.92,1.29,1.29,0,0,1,5.17,11.21Zm0-1.82a.54.54,0,1,0,.54.54A.54.54,0,0,0,5.17,9.39Z"/><path class="cls-1" d="M5.17,18.65a1.29,1.29,0,1,1,1.29-1.29A1.29,1.29,0,0,1,5.17,18.65Zm0-1.82a.54.54,0,1,0,.54.54A.54.54,0,0,0,5.17,16.82Z"/><path class="cls-1" d="M11.61,22.36a1.29,1.29,0,1,1,1.29-1.29A1.29,1.29,0,0,1,11.61,22.36Zm0-1.82a.54.54,0,1,0,.54.54A.54.54,0,0,0,11.61,20.54Z"/><path class="cls-1" d="M18,18.65a1.29,1.29,0,1,1,1.29-1.29A1.29,1.29,0,0,1,18,18.65Zm0-1.82a.54.54,0,1,0,.54.54A.54.54,0,0,0,18,16.82Z"/><path class="cls-1" d="M18,11.21a1.29,1.29,0,1,1,1.29-1.29A1.29,1.29,0,0,1,18,11.21Zm0-1.82a.54.54,0,1,0,.54.54A.54.54,0,0,0,18,9.39Z"/></svg>