<svg id="Layer_1" data-name="Layer 1" xmlns="http://www.w3.org/2000/svg" viewBox="0 0 26.27 25.66"><defs><style>.cls-1{fill:#414042;stroke:#414042;stroke-miterlimit:10;stroke-width:0.25px;}</style></defs><title>iSHOP Dashboard_Elements</title><path class="cls-1" d="M23.44,7.45a3.31,3.31,0,0,0,.1-.81,3.35,3.35,0,0,0-4.41-3.18A7.7,7.7,0,0,0,7.48,2.24,4.43,4.43,0,0,0,2.29,6.61a4.56,4.56,0,0,0,0,.49A5.51,5.51,0,0,0,5.64,17a5.46,5.46,0,0,0,2.18-.43,13.86,13.86,0,0,1,2.66,8.66v.29H17v-.29a14.51,14.51,0,0,1,3.23-9.16,4.62,4.62,0,0,0,3.21-8.64Zm-7,17.5H11.06a14.4,14.4,0,0,0-2.71-8.63,5,5,0,0,0,1.28-1.09A11.53,11.53,0,0,1,12,19.52l.57,1.92V15.53h.26a7.67,7.67,0,0,0,1.37-.13v4.53a.72.72,0,0,0,.59.72h.14a.72.72,0,0,0,.67-.46,17.33,17.33,0,0,1,3-5,4.65,4.65,0,0,0,1.08.67A14.93,14.93,0,0,0,16.41,25Zm-5.94-9.61a8.38,8.38,0,0,0,1.47.18v2.27A11.65,11.65,0,0,0,10.47,15.34Zm7-1.42a4.59,4.59,0,0,0,.65.87A17.91,17.91,0,0,0,15,20a.13.13,0,0,1-.16.09.14.14,0,0,1-.12-.14V15.25A7.68,7.68,0,0,0,17.49,13.93Zm4,1.77a4,4,0,0,1-3.66-2.34l0,0a4,4,0,0,1,.28-3.8.29.29,0,1,0-.5-.31,4.54,4.54,0,0,0-.37,4.18,7.11,7.11,0,0,1-4.46,1.59,7.31,7.31,0,0,1-3-.45l-.21-.09-.14.19a4.46,4.46,0,0,1-3.76,1.84A4.92,4.92,0,0,1,2.46,7.75a4.44,4.44,0,0,0,1.71,2.48.29.29,0,1,0,.34-.48A3.86,3.86,0,0,1,2.92,7.19h0A3.84,3.84,0,0,1,7.51,2.84a3.84,3.84,0,0,1,2.76,2.28.29.29,0,0,0,.27.18l.11,0a.29.29,0,0,0,.16-.38A4.43,4.43,0,0,0,8.17,2.42,7.1,7.1,0,0,1,18.77,4l.13.21.23-.09a2.76,2.76,0,0,1,3.68,3.43l-.09.27.26.1a4,4,0,0,1-1.46,7.8Z"/></svg>