<svg id="Layer_1" data-name="Layer 1" xmlns="http://www.w3.org/2000/svg" viewBox="0 0 500 500"><defs><style>.cls-1{fill:#434243;}</style></defs><title>Icons</title><path class="cls-1" d="M346,63.56l-13.89-8,9.82-17a198.67,198.67,0,0,0-183.88,0l9.82,17-13.89,8-17.91-31,6.94-4a214.68,214.68,0,0,1,213.93,0l6.92,4Z"/><path class="cls-1" d="M40.57,239.9H4.71v-8a214.71,214.71,0,0,1,107-185.25l6.94-4,17.91,31-13.89,8-9.82-17a198.78,198.78,0,0,0-92,159.24H40.57Z"/><path class="cls-1" d="M118.58,457.41l-6.92-4A214.72,214.72,0,0,1,4.73,268.1v-8H40.57v16H20.91a198.84,198.84,0,0,0,91.9,159.26l9.84-17.05,13.89,8Z"/><path class="cls-1" d="M250,500a213.94,213.94,0,0,1-107-28.54l-6.94-4,17.93-31,13.84,8-9.8,17a198.81,198.81,0,0,0,183.86,0l-9.82-17,13.89-8,17.91,31-6.94,4A214.42,214.42,0,0,1,250,500Z"/><path class="cls-1" d="M381.36,457.39l-17.91-31,13.89-8,9.82,17a198.78,198.78,0,0,0,92-159.24H459.43v-16h35.86v8a214.74,214.74,0,0,1-107,185.26Z"/><path class="cls-1" d="M495.27,239.92H459.43v-16h19.66A198.78,198.78,0,0,0,387.17,64.64l-9.82,17-13.89-8,18-31.06,6.92,4A214.75,214.75,0,0,1,495.27,231.91Z"/><path class="cls-1" d="M250,229.83,149.65,56l7.9-3.71a219.58,219.58,0,0,1,184.93,0l7.9,3.71ZM172.33,63.27,250,197.8,327.69,63.27A203.79,203.79,0,0,0,172.33,63.27Z"/><path class="cls-1" d="M232.52,239.92l-200.67,0,.73-8.69A217.71,217.71,0,0,1,125,71.11l7.15-5Zm-183-16,155.32,0L127.13,89.41A201.6,201.6,0,0,0,49.47,223.88Z"/><path class="cls-1" d="M132.15,433.89l-7.15-5a217.7,217.7,0,0,1-92.42-160.1l-.73-8.69H232.52ZM49.47,276.11a201.59,201.59,0,0,0,77.64,134.47l77.68-134.47Z"/><path class="cls-1" d="M250,468.23a216.2,216.2,0,0,1-92.46-20.51l-7.9-3.71L250,270.19,350.35,444l-7.9,3.71A216.18,216.18,0,0,1,250,468.23Zm-77.68-31.48a203.36,203.36,0,0,0,155.34,0L250,302.21Z"/><path class="cls-1" d="M367.82,433.91,267.48,260.1l200.67,0-.73,8.69A217.62,217.62,0,0,1,375,428.91Zm-72.62-157.8L372.87,410.6a201.49,201.49,0,0,0,77.66-134.47Z"/><path class="cls-1" d="M468.15,239.92H267.48L367.85,66.1l7.15,5a217.77,217.77,0,0,1,92.42,160.12Zm-172.94-16H450.53A201.62,201.62,0,0,0,372.87,89.41Z"/><path class="cls-1" d="M250,156.29a16,16,0,1,1,16-16A16,16,0,0,1,250,156.29Zm0-16v0l8,0Z"/><path class="cls-1" d="M77.32,219.38a16,16,0,1,1,16-16A16,16,0,0,1,77.32,219.38Zm0-16s0,0,0,0l8,0Z"/><path class="cls-1" d="M147,218.32a16,16,0,1,1,16-16A16,16,0,0,1,147,218.32Zm0-16a0,0,0,0,0,0,0l8,0Z"/><path class="cls-1" d="M159.28,330.67a16,16,0,1,1,16-16A16,16,0,0,1,159.28,330.67Zm0-16v0l8,0Z"/><path class="cls-1" d="M245.22,367.72a16,16,0,1,1,16-16A16,16,0,0,1,245.22,367.72Zm0-16v0l8,0Z"/><path class="cls-1" d="M339.07,318.54a16,16,0,1,1,16-16A16,16,0,0,1,339.07,318.54Zm0-16a.06.06,0,0,0,0,0l8,0Z"/><path class="cls-1" d="M376.77,391.67a16,16,0,1,1,16-16A16,16,0,0,1,376.77,391.67Zm0-16v0l8,0Z"/><path class="cls-1" d="M376.77,139.66a16,16,0,1,1,16-16A16,16,0,0,1,376.77,139.66Zm0-16a0,0,0,0,0,0,0l8,0Z"/><path class="cls-1" d="M250,118.87a27.47,27.47,0,1,1,27.46-27.46A27.5,27.5,0,0,1,250,118.87Zm0-38.92a11.46,11.46,0,1,0,11.45,11.47A11.49,11.49,0,0,0,250,79.95Z"/><path class="cls-1" d="M112.64,198.16A27.46,27.46,0,1,1,140.1,170.7,27.49,27.49,0,0,1,112.64,198.16Zm0-38.9a11.45,11.45,0,1,0,11.45,11.45A11.45,11.45,0,0,0,112.64,159.25Z"/><path class="cls-1" d="M112.64,356.77a27.46,27.46,0,1,1,27.46-27.46A27.49,27.49,0,0,1,112.64,356.77Zm0-38.9a11.45,11.45,0,1,0,11.45,11.45A11.45,11.45,0,0,0,112.64,317.87Z"/><path class="cls-1" d="M250,436.08a27.47,27.47,0,1,1,27.46-27.48A27.5,27.5,0,0,1,250,436.08Zm0-38.92a11.46,11.46,0,1,0,11.45,11.45A11.47,11.47,0,0,0,250,397.15Z"/><path class="cls-1" d="M387.36,356.77a27.46,27.46,0,1,1,27.46-27.46A27.49,27.49,0,0,1,387.36,356.77Zm0-38.9a11.45,11.45,0,1,0,11.45,11.45A11.45,11.45,0,0,0,387.36,317.87Z"/><path class="cls-1" d="M387.36,198.16a27.46,27.46,0,1,1,27.46-27.46A27.49,27.49,0,0,1,387.36,198.16Zm0-38.9a11.45,11.45,0,1,0,11.45,11.45A11.45,11.45,0,0,0,387.36,159.25Z"/></svg>