<svg id="Layer_1" data-name="Layer 1" xmlns="http://www.w3.org/2000/svg" viewBox="0 0 14.87 27.64"><defs><style>.cls-1{fill:#414042;}</style></defs><title>iSHOP Dashboard_Elements</title><path class="cls-1" d="M14.76,6.82a.6.6,0,0,0-.33-.23,7,7,0,0,0-14,0A.6.6,0,0,0,0,7.37L6.79,27v0l.06.18a.62.62,0,0,0,.57.43h0A.62.62,0,0,0,8,27.22l3.42-10,3.41-9.87A.61.61,0,0,0,14.76,6.82ZM7.43,1.26a5.77,5.77,0,0,1,5.78,5.36H1.66A5.77,5.77,0,0,1,7.43,1.26Zm-1.95,9.4L5.07,7.83H9.6l-.4,2.83Zm3.61.81-.51,3.72H6.13L5.6,11.47ZM1.46,7.83h2.8l.41,2.83H2.46Zm1.28,3.64h2l.53,3.74H4Zm3.1,9L4.3,16H5.43l.63,4.47Zm.28.81h.06l0,.31ZM7.38,24,7,21.31h.76Zm.48-3.52h-1L6.24,16l2.23,0Zm.58,1.7.12-.89h.18ZM9,20.49H8.68L9.29,16h1.28Zm1.82-5.31H9.4l.51-3.71h2.21Zm1.56-4.51H10l.4-2.83h3Z"/></svg>