<svg id="Layer_1" data-name="Layer 1" xmlns="http://www.w3.org/2000/svg" viewBox="0 0 23.22 27.28"><defs><style>.cls-1{fill:#444344;}</style></defs><title>Ishop icon P2P_9-10</title><path class="cls-1" d="M23,23H21.17l0-.32a7.45,7.45,0,0,0-.7-2.28l.67-.33a8.24,8.24,0,0,1,.72,2.18h.33a8.52,8.52,0,0,0-.79-2.41L22,19.5a9.3,9.3,0,0,1,.93,3.08Z"/><path class="cls-1" d="M10.05,7.89,7.5,6.62a3.19,3.19,0,0,0-1.17-.3L2.1,6.13h0a.61.61,0,0,1-.46-.22.59.59,0,0,1-.13-.48l.07-.58a.66.66,0,0,1,.64-.57l4.63.24a3.75,3.75,0,0,1,1.21.27l3.19,1.3L11,6.78,7.76,5.48a3,3,0,0,0-1-.21L2.31,5l0,.35,4.09.19a4,4,0,0,1,1.46.37l2.56,1.27ZM2.25,5.53h0Zm-.13-.15h0Z"/><rect class="cls-1" x="3.83" y="4.77" width="0.75" height="1.08"/><rect class="cls-1" x="4.55" y="4.79" width="0.75" height="1.08"/><rect class="cls-1" x="5.28" y="4.84" width="0.75" height="1.08"/><path class="cls-1" d="M10.8,8.72,10,8.35A.53.53,0,0,1,9.74,8a.58.58,0,0,1,.09-.5l1-1.3a.56.56,0,0,1,.63-.2l2.08.62-.21.72-2-.59-.8,1,.56.27Zm-.45-1.06h0Zm.91-.95h0Zm.2-.08,0,0Z"/><polygon class="cls-1" points="14.88 18.05 14.12 14.5 13.12 14.31 13.26 13.57 14.75 13.86 15.62 17.9 14.88 18.05"/><path class="cls-1" d="M15.47,17.68l-.51-4-.07-.08-1.22-.41.24-.71,1.32.45a.81.81,0,0,1,.51.67l.47,4Z"/><path class="cls-1" d="M15,19.75a1.49,1.49,0,0,1-.54-.1,1.47,1.47,0,0,1-.83-.81l-2.28-5.72.7-.28,2.28,5.72a.72.72,0,0,0,.4.39.74.74,0,0,0,.58,0l3.52-1.66.32.68-3.52,1.66A1.51,1.51,0,0,1,15,19.75Z"/><path class="cls-1" d="M15.17,18.38l-.2,0a.82.82,0,0,1-.51-.39L13,15.15a1.94,1.94,0,0,1,.18-2.08l.56-.73.6.46-.55.73a1.2,1.2,0,0,0-.11,1.28l1.46,2.81L18,15.91l.39.64-2.84,1.71A.75.75,0,0,1,15.17,18.38Z"/><path class="cls-1" d="M11.71,13.33a.87.87,0,0,1-.83-.51l-.72-1.5a.77.77,0,0,1-.07-.54l.26-2a.88.88,0,0,1,.47-.67l2.84-1.62a.83.83,0,0,1,1,.09h0l3.12,2.93a.91.91,0,0,1,.24,1l-.5,1.42-1.4.79-4.32.67ZM14.1,7.08h0L11.17,8.74a.14.14,0,0,0-.08.11l-.26,2.06.73,1.59c0,.06.09.08.18.08L16,11.92l1-.57.41-1.17a.17.17,0,0,0-.06-.16l-3.1-2.91A.17.17,0,0,0,14.1,7.08Z"/><rect class="cls-1" x="18.74" y="10.95" width="0.75" height="7.4" transform="translate(-4.64 10.67) rotate(-27.96)"/><rect class="cls-1" x="17.41" y="11.79" width="0.75" height="7.33" transform="translate(-5.34 10.93) rotate(-29.92)"/><path class="cls-1" d="M20.3,20.81l-.21,0a.75.75,0,0,1-.46-.37l-.55-.93a.74.74,0,0,1-.09-.56.81.81,0,0,1,.36-.5l1.35-.8a.77.77,0,0,1,1.06.27l.56.95a.77.77,0,0,1-.27,1.06l-1.35.8A.75.75,0,0,1,20.3,20.81Zm.82-2.52-1.38.78.55,1,1.38-.79Z"/><path class="cls-1" d="M1.9,10.61A1.64,1.64,0,0,1,.27,9,7.61,7.61,0,0,1,1.59,6.24l.31-.44.31.44A7.61,7.61,0,0,1,3.53,9,1.64,1.64,0,0,1,1.9,10.61Zm0-3.49A5.69,5.69,0,0,0,1,9a.89.89,0,0,0,.88.9A.89.89,0,0,0,2.78,9,5.68,5.68,0,0,0,1.9,7.13Z"/><path class="cls-1" d="M1.9,9.85A.87.87,0,0,1,1,9a.16.16,0,1,1,.32,0,.56.56,0,0,0,.55.57.16.16,0,1,1,0,.32Z"/></svg>