<svg id="Layer_1" data-name="Layer 1" xmlns="http://www.w3.org/2000/svg" viewBox="0 0 25.15 25.16"><defs><style>.cls-1{fill:#414141;}</style></defs><title>iSHOP Dashboard_Elements</title><path class="cls-1" d="M5.71,6.74c1.2.93,3.53,1.12,5.27,1.12h0c.89,0,1.52-.05,1.55-.05h0l.06,0s.49,0,1.19,0c1.34,0,3.14-.15,4.07-.87a3.5,3.5,0,0,0,1.34-2.08,2.68,2.68,0,0,0-.52-2.17,3.06,3.06,0,0,0-4.32-.26A7.14,7.14,0,0,0,12.58,6C12.19,4.41,11.41,2,10.15,1A4.51,4.51,0,0,0,7.4,0,3.45,3.45,0,0,0,4.65,1.33C3.38,3,3.84,5.29,5.71,6.74Zm9.15-3.63a2.26,2.26,0,0,1,3.21.12,1.91,1.91,0,0,1,.37,1.54,2.72,2.72,0,0,1-1.05,1.6,6.51,6.51,0,0,1-3.58.71l-.68,0C13.37,5.9,14,3.79,14.86,3.11ZM5.27,1.81A2.64,2.64,0,0,1,7.4.79a3.73,3.73,0,0,1,2.27.85C11,2.68,11.78,5.88,12,7.05l-1,0h0c-2.29,0-4-.34-4.79-1C4.65,4.92,4.27,3.11,5.27,1.81Z"/><path class="cls-1" d="M23.19,8.65H2a2,2,0,0,0-2,2V23.19a2,2,0,0,0,2,2H23.19a2,2,0,0,0,2-2V10.61A2,2,0,0,0,23.19,8.65ZM2,9.43H23.19a1.18,1.18,0,0,1,1.18,1.18V13.4H.79V10.61A1.18,1.18,0,0,1,2,9.43ZM23.19,24.37H2A1.18,1.18,0,0,1,.79,23.19V14.58H24.37v8.61A1.18,1.18,0,0,1,23.19,24.37Z"/><path class="cls-1" d="M8.65,19.5H3.54a.59.59,0,1,0,0,1.18H8.65a.59.59,0,1,0,0-1.18Z"/></svg>