<svg id="Layer_1" data-name="Layer 1" xmlns="http://www.w3.org/2000/svg" viewBox="0 0 500 500"><defs><style>.cls-1{fill:#414042;}</style></defs><title>Icons</title><path class="cls-1" d="M346.81,264.44a25.9,25.9,0,0,0-18.43-7.64,26.39,26.39,0,0,0-5,.48L208.72,142.6l22.22-22.22a9.12,9.12,0,0,0,0-12.89l-5.62-5.62,84.37-84.37A9.12,9.12,0,0,0,303.87,2,170.9,170.9,0,0,0,173.22,49.76l-5.65-5.65a9.11,9.11,0,0,0-12.89,0L64.14,134.65a9.12,9.12,0,0,0,0,12.89l8.72,8.72-16,16-8.72-8.72a9.12,9.12,0,0,0-12.89,0l-32.6,32.6a9.12,9.12,0,0,0,0,12.89L66,272.39a9.11,9.11,0,0,0,12.89,0l32.6-32.6a9.11,9.11,0,0,0,0-12.89l-8.72-8.72,16-16,8.72,8.72a9.11,9.11,0,0,0,12.89,0l22.22-22.22L277.32,303.39a26.06,26.06,0,0,0,7.15,23.4l136,136a26.07,26.07,0,0,0,36.87,0l25.47-25.47h0a26.1,26.1,0,0,0,0-36.87ZM281.22,20.18,212.43,89,186.11,62.65A152.65,152.65,0,0,1,281.22,20.18ZM72.49,253,22,202.56l19.7-19.7L92.2,233.34Zm17.42-47.77L69.77,185.14l16-16L105.9,189.3Zm44-13.7L83.48,141.1l77.64-77.64,50.48,50.48Zm61.87-36.08L307.36,267l-20.31,20.31L175.52,175.8Zm274.1,268.93L444.45,449.9a7.84,7.84,0,0,1-11.08,0l-136-136a7.85,7.85,0,0,1,0-11.08l25.49-25.49a7.84,7.84,0,0,1,11.08,0l136,136A7.85,7.85,0,0,1,469.93,424.43Z"/><path class="cls-1" d="M302.06,206.89a9.12,9.12,0,1,0,12.89,12.89l19.47-19.47c23.11-23.11,34.33-54.53,30.8-86.21A58.66,58.66,0,0,1,384.8,63.59a57.41,57.41,0,0,1,13.7-8.94l-7.49,24a39,39,0,1,0,74.45,23.22l7.74-24.81a58.48,58.48,0,0,1-31.89,86.13,108.78,108.78,0,0,0-43.47,26.37L350.2,237.21A9.12,9.12,0,0,0,363.1,250.1l47.64-47.64a90.45,90.45,0,0,1,36.16-21.9,76.87,76.87,0,0,0,30.65-18.75,76.69,76.69,0,0,0-1.79-110.18,9.12,9.12,0,0,0-14.94,3.93L448.06,96.46A20.76,20.76,0,1,1,408.42,84.1L421,43.67A9.12,9.12,0,0,0,410.86,32a76.55,76.55,0,0,0-63.76,84.16c2.92,26.14-6.4,52.13-25.57,71.3Z"/><path class="cls-1" d="M257.44,330c-23.11,23.11-34.33,54.53-30.79,86.21a58.66,58.66,0,0,1-19.59,50.51,57.45,57.45,0,0,1-13.7,8.94l7.49-24A39,39,0,0,0,126.4,428.4l-7.74,24.81a58.48,58.48,0,0,1,31.89-86.13A108.76,108.76,0,0,0,194,340.72l48.4-48.4a9.12,9.12,0,0,0-12.89-12.89l-48.4,48.4A90.46,90.46,0,0,1,145,349.73a76.84,76.84,0,0,0-30.64,18.75,76.69,76.69,0,0,0,1.79,110.18,9.12,9.12,0,0,0,14.94-3.93l12.76-40.89a20.76,20.76,0,0,1,39.64,12.37l-12.61,40.42A9.11,9.11,0,0,0,181,498.33a76.55,76.55,0,0,0,63.76-84.16c-2.92-26.14,6.4-52.13,25.57-71.3A9.12,9.12,0,0,0,257.44,330Z"/></svg>