<svg id="Layer_1" data-name="Layer 1" xmlns="http://www.w3.org/2000/svg" width="18.01" height="25.66" viewBox="0 0 18.01 25.66"><defs><style>.cls-1{fill:#414042;}</style></defs><title>Household Cleaning Products</title><path class="cls-1" d="M17.47,14.24l-.78-3.7V9.12a.78.78,0,0,0-.51-.74V7.18c0-.64,1.3-.77,1.31-.77a.3.3,0,0,0,.28-.3V4.63a.3.3,0,0,0-.15-.26,20.74,20.74,0,0,0-3.53-1.78H7.79a.3.3,0,0,0-.3.3V5.18a.3.3,0,0,0,.25.3L9,5.69H9l.87.15A6.7,6.7,0,0,1,8.23,9.18a.41.41,0,0,0,0,.54A.73.73,0,0,0,8.8,10a.88.88,0,0,0,.43-.12,8,8,0,0,0,3.29-3.4,1,1,0,0,1,.3.69V8.4a.81.81,0,0,0-.44.72v1.47a.31.31,0,0,0,0,.06,6.56,6.56,0,0,1-1.68,4.26l-.18.2A7.08,7.08,0,0,0,9,17.87l-.06.22a7.1,7.1,0,0,0-.22,1.76V24a1.69,1.69,0,0,0,1.69,1.69h5.9A1.69,1.69,0,0,0,18,24V20.3A34.35,34.35,0,0,0,17.47,14.24ZM8.74,5l-.65-.11V3.2h.65Zm.2,4.35v0A7.47,7.47,0,0,0,10.51,6L12,6.21A7.37,7.37,0,0,1,8.94,9.35Zm3.82-3.46v0a1.6,1.6,0,0,0-.56-.25h-.06l-1.53-.27-.3,0-.31,0-.67-.12V3.2h4.73a30.33,30.33,0,0,1,3.1,1.61v1c-.69.12-1.59.49-1.59,1.34V8.36H13.43V7.18A1.58,1.58,0,0,0,12.76,5.89Zm3.32,3.23v1.14H13V9.12A.31.31,0,0,1,13,9h3A.31.31,0,0,1,16.08,9.12ZM9.77,17.49a6.48,6.48,0,0,1,1.21-2l.18-.2A7.17,7.17,0,0,0,13,10.9h1.25v2.75c-.06,1.63-.16,3-.28,4.2h.6c.19-1.82.32-4.12.33-7h1.3l.73,3.46q.27,1.5.39,3v.39a4.86,4.86,0,0,1-2.82.59h-.82a2.72,2.72,0,0,1-.75-.18A5,5,0,0,0,9.64,18,1.85,1.85,0,0,1,9.77,17.49ZM17.4,24a1.09,1.09,0,0,1-1.08,1.09h-5.9A1.09,1.09,0,0,1,9.33,24V19.85a6.5,6.5,0,0,1,.11-1.2c.31-.22,1.29-.7,3.31-.11a8.33,8.33,0,0,0,.84.2h.22a27.65,27.65,0,0,1-.64,3.51,8,8,0,0,1-.45,1.36.3.3,0,0,0,.54.28,16.93,16.93,0,0,0,1.16-5.07h.46a5.47,5.47,0,0,0,2.47-.55c0,.65.06,1.31.06,2Z"/><circle class="cls-1" cx="5.89" cy="4.1" r="0.38"/><circle class="cls-1" cx="4.15" cy="4.1" r="0.48"/><circle class="cls-1" cx="2.42" cy="4.1" r="0.58"/><circle class="cls-1" cx="0.68" cy="4.1" r="0.68"/><circle class="cls-1" cx="6.27" cy="2.72" r="0.38" transform="translate(1.32 7.43) rotate(-67.02)"/><circle class="cls-1" cx="4.67" cy="2.04" r="0.48" transform="matrix(0.39, -0.92, 0.92, 0.39, 0.97, 5.54)"/><circle class="cls-1" cx="3.06" cy="1.36" r="0.58" transform="translate(0.61 3.65) rotate(-67.02)"/><circle class="cls-1" cx="1.46" cy="0.68" r="0.68" transform="translate(0.26 1.76) rotate(-67.02)"/><circle class="cls-1" cx="6.26" cy="5.49" r="0.38" transform="translate(-1.65 2.88) rotate(-22.98)"/><circle class="cls-1" cx="4.66" cy="6.17" r="0.48" transform="translate(-2.04 2.31) rotate(-22.99)"/><circle class="cls-1" cx="3.06" cy="6.85" r="0.58" transform="translate(-2.43 1.74) rotate(-22.98)"/><circle class="cls-1" cx="1.46" cy="7.53" r="0.68" transform="translate(-2.82 1.17) rotate(-22.98)"/></svg>