<svg id="Layer_1" data-name="Layer 1" xmlns="http://www.w3.org/2000/svg" viewBox="0 0 23.59 23.59"><defs><style>.cls-1{fill:#414042;}</style></defs><title>iSHOP Dashboard_Elements</title><path class="cls-1" d="M8.62,18h-5a.53.53,0,0,0,0,1.07h5a.53.53,0,0,0,0-1.07Z"/><path class="cls-1" d="M8.62,15.36h-5a.53.53,0,0,0,0,1.07h5a.53.53,0,0,0,0-1.07Z"/><path class="cls-1" d="M17.2,10.8a6.39,6.39,0,1,0,6.39,6.39A6.4,6.4,0,0,0,17.2,10.8Zm0,11.72a5.33,5.33,0,1,1,5.33-5.33A5.33,5.33,0,0,1,17.2,22.52Z"/><path class="cls-1" d="M3.1,6.91a.53.53,0,0,0,.75,0l.61-.61.61.61a.53.53,0,1,0,.75-.75l-.61-.61.61-.61a.53.53,0,1,0-.75-.75l-.61.61-.61-.61a.53.53,0,1,0-.75.75l.61.61-.61.61A.53.53,0,0,0,3.1,6.91Z"/><path class="cls-1" d="M10.23,4.19a.53.53,0,0,0-.75,0l-.61.61-.61-.61a.53.53,0,1,0-.75.75l.61.61-.61.61a.53.53,0,1,0,.75.75l.61-.61.61.61a.53.53,0,1,0,.75-.75l-.61-.61.61-.61A.53.53,0,0,0,10.23,4.19Z"/><path class="cls-1" d="M14.63,4.19a.53.53,0,0,0-.75,0l-.61.61-.61-.61a.53.53,0,0,0-.75.75l.61.61-.61.61a.53.53,0,1,0,.75.75l.61-.61.61.61a.53.53,0,0,0,.75-.75L14,5.55l.61-.61A.53.53,0,0,0,14.63,4.19Z"/><path class="cls-1" d="M3.1,11.92a.53.53,0,0,0,.75,0l.61-.61.61.61a.53.53,0,1,0,.75-.75l-.61-.61L5.83,10a.53.53,0,1,0-.75-.75l-.61.61L3.86,9.2A.53.53,0,0,0,3.1,10l.61.61-.61.61A.53.53,0,0,0,3.1,11.92Z"/><path class="cls-1" d="M10.23,9.2a.53.53,0,0,0-.75,0l-.61.61L8.26,9.2A.53.53,0,1,0,7.5,10l.61.61-.61.61a.53.53,0,1,0,.75.75l.61-.61.61.61a.53.53,0,1,0,.75-.75l-.61-.61.61-.61A.53.53,0,0,0,10.23,9.2Z"/><path class="cls-1" d="M16.64,17.43H15.41l1-2.25a.53.53,0,1,0-1-.44l-1.37,3a.53.53,0,0,0,.49.75h1.53v.94a.53.53,0,1,0,1.07,0V18A.53.53,0,0,0,16.64,17.43Z"/><path class="cls-1" d="M19.37,14.47a.53.53,0,0,0-.58.1l-1.17,1.09a.53.53,0,1,0,.73.78l.27-.25v3.25a.53.53,0,0,0,1.07,0V15A.53.53,0,0,0,19.37,14.47Z"/><path class="cls-1" d="M11.42,22.52H2.87a2.41,2.41,0,0,0-1.81-1.81V2.87A2.41,2.41,0,0,0,2.87,1.07h12a2.41,2.41,0,0,0,1.81,1.81V9a.53.53,0,0,0,1.07,0V2.4a.53.53,0,0,0-.53-.53A1.34,1.34,0,0,1,15.86.53.53.53,0,0,0,15.33,0H2.4a.53.53,0,0,0-.53.53A1.34,1.34,0,0,1,.53,1.87.53.53,0,0,0,0,2.4V21.19a.53.53,0,0,0,.53.53,1.34,1.34,0,0,1,1.33,1.33.53.53,0,0,0,.53.53h9a.53.53,0,0,0,0-1.07Z"/></svg>