<svg id="Layer_1" data-name="Layer 1" xmlns="http://www.w3.org/2000/svg" xmlns:xlink="http://www.w3.org/1999/xlink" viewBox="0 0 22.23 27.28"><defs><style>.cls-1{fill:none;}.cls-2{fill:#444344;}.cls-3{clip-path:url(#clip-path);}.cls-4{fill:#454244;}.cls-5{fill:#fff;}.cls-6{fill:#333;}</style><clipPath id="clip-path"><rect class="cls-1" x="4.06" y="13.05" width="6.21" height="9.35"/></clipPath></defs><title>Ishop icon P2P_9-10</title><path class="cls-2" d="M13.31,26.7H2.63a1.41,1.41,0,0,1-1.41-1.41V9H13.31ZM1.92,9.7v15.6a.71.71,0,0,0,.71.71h10V9.7Z"/><path class="cls-2" d="M19.58,26.7h-7l0-17.52,3-5.7h2.17L21,9.35V25.29A1.41,1.41,0,0,1,19.58,26.7ZM13.31,26h6.27a.71.71,0,0,0,.71-.71V9.44L17.42,4.19H16.08L13.31,9.44Z"/><path class="cls-2" d="M13.17,9.7H1L4.27,3.49H16.51ZM2.15,9h10.6l2.59-4.81H4.7Z"/><path class="cls-2" d="M18,4.19H4.14V2A1.41,1.41,0,0,1,5.54.58h11A1.41,1.41,0,0,1,18,2ZM4.83,3.49H17.27V2a.71.71,0,0,0-.71-.71h-11A.71.71,0,0,0,4.83,2Z"/><path class="cls-2" d="M13.31,23.37H1.22V12.21H13.31Zm-11.39-.7H12.61V12.91H1.92Z"/><g class="cls-3"><path class="cls-2" d="M7.16,22.58l-.09,0c-2.33-.6-3.42-3.42-3.17-5.17C4.18,15.47,7,15.48,7.17,15.5s3,0,3.25,1.89c.25,1.75-.83,4.57-3.17,5.17Zm0-6.39c-.16,0-2.38,0-2.56,1.29-.21,1.44.69,3.82,2.56,4.37,1.87-.55,2.77-2.93,2.56-4.37h0c-.19-1.31-2.51-1.29-2.56-1.29Z"/></g><path class="cls-4" d="M7.16,16.19H6.81v-.35a3,3,0,0,1,3-3h.35v.35a3,3,0,0,1-3,3Zm2.23-2.58a2.27,2.27,0,0,0-1.84,1.84,2.26,2.26,0,0,0,1.84-1.84Z"/><path class="cls-4" d="M7.51,16.19H7.16a3,3,0,0,1-3-3v-.35h.35a3,3,0,0,1,3,3ZM4.93,13.62a2.26,2.26,0,0,0,1.84,1.84A2.27,2.27,0,0,0,4.93,13.62Z"/><path class="cls-5" d="M8.64,20.82a.16.16,0,0,1-.12-.26,4.1,4.1,0,0,0,.41-.63,4.18,4.18,0,0,0,.51-2.4.78.78,0,0,0-.29-.5,2,2,0,0,0-.7-.35l-.4-.1a.16.16,0,0,1,.06-.31l.43.11a2.31,2.31,0,0,1,.82.41,1.09,1.09,0,0,1,.4.7,4.51,4.51,0,0,1-.54,2.6,4.41,4.41,0,0,1-.45.68.16.16,0,0,1-.12.06Zm0,0"/><g class="cls-3"><path class="cls-5" d="M7.78,16.36a.16.16,0,1,1-.16-.16.16.16,0,0,1,.16.16Zm0,0"/><path class="cls-6" d="M10.23,17.42c-.11-.73-.68-1.27-1.66-1.54l-.39-.09a2.77,2.77,0,0,0,1.75-2.57.16.16,0,0,0-.16-.16A2.77,2.77,0,0,0,7.16,14.9a2.77,2.77,0,0,0-2.61-1.84.16.16,0,0,0-.16.16,2.77,2.77,0,0,0,1.75,2.57l-.39.09c-1,.27-1.55.8-1.66,1.54a5,5,0,0,0,.59,2.89,3.94,3.94,0,0,0,2.43,2.06H7.2a3.94,3.94,0,0,0,2.43-2.06,5,5,0,0,0,.59-2.89ZM8,14.09a2.43,2.43,0,0,1,1.57-.71,2.45,2.45,0,0,1-2.28,2.28A2.43,2.43,0,0,1,8,14.09Zm-3.32-.71A2.45,2.45,0,0,1,7,15.66a2.45,2.45,0,0,1-2.28-2.28Zm4.64,6.78a3.64,3.64,0,0,1-2.19,1.89A3.64,3.64,0,0,1,5,20.16a4.69,4.69,0,0,1-.56-2.7C4.61,16,7,16,7.15,16h0s2.54,0,2.75,1.46a4.69,4.69,0,0,1-.56,2.7Zm0,0"/></g><path class="cls-6" d="M9.15,17.57A.16.16,0,1,1,9,17.41a.16.16,0,0,1,.16.16Zm0,0"/><path class="cls-6" d="M6.4,19.22a.16.16,0,1,1-.16-.16.16.16,0,0,1,.16.16Zm0,0"/><path class="cls-6" d="M8.23,19.22a.16.16,0,1,1-.16-.16.16.16,0,0,1,.16.16Zm0,0"/><path class="cls-6" d="M5.49,17.57a.16.16,0,1,1-.16-.16.16.16,0,0,1,.16.16Zm0,0"/><path class="cls-6" d="M7.32,17.57a.16.16,0,1,1-.16-.16.16.16,0,0,1,.16.16Zm0,0"/><path class="cls-6" d="M7.32,20.87a.16.16,0,1,1-.16-.16.16.16,0,0,1,.16.16Zm0,0"/></svg>