<svg id="Layer_1" data-name="Layer 1" xmlns="http://www.w3.org/2000/svg" viewBox="0 0 22.32 22.32"><defs><style>.cls-1{fill:#414042;}</style></defs><title>iSHOP Dashboard_Elements</title><path class="cls-1" d="M11.16,7.19a4,4,0,1,0,4,4A4,4,0,0,0,11.16,7.19Zm0,7.19a3.22,3.22,0,1,1,3.22-3.22A3.22,3.22,0,0,1,11.16,14.38Z"/><path class="cls-1" d="M8.71,3.71,8.47,3A8.63,8.63,0,0,0,3,8.48l.71.23A7.87,7.87,0,0,1,8.71,3.71Z"/><path class="cls-1" d="M8.44,5.22A6.55,6.55,0,0,0,5.21,8.44l.68.31A5.81,5.81,0,0,1,8.75,5.9Z"/><rect class="cls-1" x="10.65" y="10.79" width="1.03" height="0.75"/><path class="cls-1" d="M11.16,0A11.16,11.16,0,1,0,22.32,11.16,11.17,11.17,0,0,0,11.16,0Zm0,21.57A10.41,10.41,0,1,1,21.57,11.16,10.42,10.42,0,0,1,11.16,21.57Z"/></svg>