<svg id="Layer_1" data-name="Layer 1" xmlns="http://www.w3.org/2000/svg" viewBox="0 0 25.43 24.24"><defs><style>.cls-1{fill:#414042;}</style></defs><title>iSHOP Dashboard_Elements</title><path class="cls-1" d="M17.07,6A.37.37,0,0,0,17,5.86h0L11.24.11h0A.37.37,0,0,0,11.06,0H1.26A1.26,1.26,0,0,0,0,1.26V23a1.26,1.26,0,0,0,1.26,1.26H15.84A1.27,1.27,0,0,0,17.09,23V6.12a.36.36,0,0,0,0,0ZM11.35,1.28l4.47,4.47h-4a.51.51,0,0,1-.51-.51Zm4.49,22.21H1.26A.51.51,0,0,1,.75,23V1.26A.51.51,0,0,1,1.26.75H10.6V5.24A1.26,1.26,0,0,0,11.85,6.5h4.49V23A.52.52,0,0,1,15.84,23.49Z"/><path class="cls-1" d="M25.32,5.63a.38.38,0,0,0-.27-.11H23.37V3.32A.38.38,0,0,0,23,2.95H19.84a.38.38,0,0,0-.37.38V5.8a.24.24,0,0,0,0,.18V19.66c0,1.64.73,2.52,1.52,2.75v1.45a.38.38,0,0,0,.75,0V22.44c.83-.18,1.63-1.06,1.63-2.78V6.27h1.31V12a.38.38,0,0,0,.37.38h0a.37.37,0,0,0,.38-.37V5.9A.38.38,0,0,0,25.32,5.63ZM22.62,3.7V5.52h-2.4V3.7Zm0,16c0,2.71-2.4,2.72-2.4,0V6.27h2.4Z"/><path class="cls-1" d="M3.9,5.47H8.55a.38.38,0,0,0,0-.75H3.9a.38.38,0,0,0,0,.75Z"/><path class="cls-1" d="M13.19,8.74H3.9a.38.38,0,0,0,0,.75h9.29a.38.38,0,0,0,0-.75Z"/><path class="cls-1" d="M13.19,11.08H3.9a.38.38,0,0,0,0,.75h9.29a.38.38,0,0,0,0-.75Z"/><path class="cls-1" d="M13.19,13.42H3.9a.37.37,0,1,0,0,.75h9.29a.37.37,0,0,0,0-.75Z"/><path class="cls-1" d="M8.55,15.77H3.9a.38.38,0,0,0,0,.75H8.55a.38.38,0,0,0,0-.75Z"/></svg>