<svg id="Layer_1" data-name="Layer 1" xmlns="http://www.w3.org/2000/svg" width="22.23" height="27.28" viewBox="0 0 22.23 27.28"><defs><style>.cls-1{fill:#444344;}</style></defs><title>PERSONAL CARE ITEMS</title><path class="cls-1" d="M17.51,21.91l-.69-7.11q-.14-1.4-.27-2.8a4.77,4.77,0,0,0-.74-2.42,2.31,2.31,0,0,0-2-1.13H10.25a2.22,2.22,0,0,0-1.6.67,3.52,3.52,0,0,0-1,2c-.09.69-.16,1.34-.22,2l-.06.62q-.24,2.3-.46,4.59L6.8,19.45c-.13,1.21-.25,2.41-.35,3.61a4.37,4.37,0,0,0,.83,3.08,2.36,2.36,0,0,0,2,1h5.6a2.28,2.28,0,0,0,1.9-1,4.5,4.5,0,0,0,.84-3C17.6,22.76,17.51,22.33,17.51,21.91ZM16.22,25.7a1.54,1.54,0,0,1-1.39.7H13.72v0H9.26a1.53,1.53,0,0,1-1.39-.71,3.66,3.66,0,0,1-.68-2.59c.1-1.2.22-2.4.34-3.6l.11-1.12.46-4.58.06-.62c.06-.64.12-1.28.22-1.92a2.76,2.76,0,0,1,.8-1.58,1.46,1.46,0,0,1,1.08-.46h3.59a1.6,1.6,0,0,1,1.38.82,3.94,3.94,0,0,1,.62,2q.13,1.4.27,2.8l.69,7.12c0,.41.11.82.11,1.23A3.75,3.75,0,0,1,16.22,25.7Z"/><path class="cls-1" d="M5.7,3.64c.34.22.82-.12.82-.12l1-.73.94-.69A.55.55,0,0,1,8.72,2H10.5c.12.29.23.59.34.89l.16.37a2.2,2.2,0,0,0-.94,1.57C10,5.62,10,6.4,10,7.16V7.7a.51.51,0,0,0,.19.37.58.58,0,0,0,.39.19H12l1.55,0a.6.6,0,0,0,.53-.54V5.26a2.47,2.47,0,0,0-1-2l.08-.2c.14-.37.28-.73.41-1.11h1.06a.85.85,0,0,0,.63-.24A1,1,0,0,0,15.5,1a.83.83,0,0,0-.89-.86h-6A1.05,1.05,0,0,0,8,.31L6.27,1.59,5.72,2a1,1,0,0,0,0,1.64ZM6,2.86a.25.25,0,0,1,.15-.27l.55-.41L8.4.9a.35.35,0,0,1,.16,0h6c.15,0,.15,0,.15.2v.2a.23.23,0,0,1-.12,0H13.52a.68.68,0,0,0-.65.42l-.43,1.15-.08.22a.62.62,0,0,0,.21.78,1.75,1.75,0,0,1,.71,1.45V7.53H10.71l0-.33c0-.75,0-1.52.06-2.27a1.49,1.49,0,0,1,.62-1.05.66.66,0,0,0,.22-.81l-.14-.38c-.12-.35-.25-.68-.38-1a.69.69,0,0,0-.57-.38H8.7A1.24,1.24,0,0,0,8,1.55l-1,.7L6,3H6A.44.44,0,0,1,6,2.86Z"/><path class="cls-1" d="M7.23,10.21a2.44,2.44,0,0,0,.36-2c-.25-1-.53-2-.82-3L6.71,5a.93.93,0,0,0-.3-.38l-.34-.26L5.8,4.7A.85.85,0,0,0,5.58,5c-.24.74-.47,1.49-.68,2.25-.09.33-.16.69-.22,1l-.08.39A2.86,2.86,0,0,0,5,10.21a1.35,1.35,0,0,0,1.14.64A1.34,1.34,0,0,0,7.23,10.21ZM6.64,9.8a.65.65,0,0,1-.5.33.66.66,0,0,1-.51-.33,2.07,2.07,0,0,1-.31-1.12l.07-.27a8.9,8.9,0,0,1,.21-1c.16-.62.35-1.23.54-1.83.26.92.53,1.84.76,2.77A1.72,1.72,0,0,1,6.64,9.8Z"/><path class="cls-1" d="M15.43,18.25c0-.25-.12-.28-.32-.28v0H9.21c-.56,0-.56,0-.64.54v.26L8.2,22.29a2.92,2.92,0,0,0,.31,2,1.16,1.16,0,0,0,1,.57h5a1.12,1.12,0,0,0,1.06-.65,2.66,2.66,0,0,0,.3-1.5C15.73,21.22,15.57,19.71,15.43,18.25Zm-.5,5.65a.41.41,0,0,1-.44.27h-5a.44.44,0,0,1-.42-.24,2.25,2.25,0,0,1-.19-1.54l.21-2.09.14-1.42v-.15h5.46l0,0L15,20.8c.07.7.13,1.32.2,2A2,2,0,0,1,14.93,23.9Z"/></svg>