<svg id="Layer_1" data-name="Layer 1" xmlns="http://www.w3.org/2000/svg" viewBox="0 0 22.95 22.92"><defs><style>.cls-1{fill:#414042;}</style></defs><title>iSHOP Dashboard_Elements</title><path class="cls-1" d="M13.3,11.34h.11c.39,0,1-.2,1.55-1.28a1.72,1.72,0,0,0-.1-1.85,1.3,1.3,0,0,0-1.29-.48,1.77,1.77,0,0,0-1.23,1.46,2.24,2.24,0,0,0,.32,1.74A.9.9,0,0,0,13.3,11.34Zm-.23-2c.12-.51.36-.83.66-.9a.55.55,0,0,1,.54.21,1,1,0,0,1,0,1.06c-.28.57-.65.89-.9.86A1.34,1.34,0,0,1,13.07,9.36Z"/><path class="cls-1" d="M19,13.36a1.53,1.53,0,0,0-1.59.41c-.84.8-.75,1.44-.62,1.74a.81.81,0,0,0,.54.44,1.72,1.72,0,0,0,.53.08,2,2,0,0,0,1-.27,1.56,1.56,0,0,0,.89-1.43A1.16,1.16,0,0,0,19,13.36Zm-.52,1.76h0a1.21,1.21,0,0,1-1,.1c-.09-.22.08-.56.45-.91a.92.92,0,0,1,.62-.29.56.56,0,0,1,.2,0,.42.42,0,0,1,.28.34C19,14.65,18.83,14.91,18.47,15.13Z"/><path class="cls-1" d="M15.28,14.87a4.58,4.58,0,0,0-.11-.61,2.53,2.53,0,0,0-1.43-1.51,2.17,2.17,0,0,0-1.82-.09l-.32.17a1.58,1.58,0,0,1-.82.29,2.82,2.82,0,0,0-2.55,1.66,1.58,1.58,0,0,0,.33,1.77,2.67,2.67,0,0,0,1.66.84,5.1,5.1,0,0,1,1.28.42,3.07,3.07,0,0,1,.88.68,2.46,2.46,0,0,0,1.7.87l.27,0a1.44,1.44,0,0,0,.94-.34,2.24,2.24,0,0,0,.7-1.65,3.72,3.72,0,0,0-.6-2A2.24,2.24,0,0,1,15.28,14.87Zm-.47,3.59a.74.74,0,0,1-.63.15A1.75,1.75,0,0,1,12.91,18a3.81,3.81,0,0,0-1.08-.82,5.81,5.81,0,0,0-1.45-.48,2,2,0,0,1-1.26-.6l0,0a.85.85,0,0,1-.18-1,2.08,2.08,0,0,1,1.87-1.19,2.29,2.29,0,0,0,1.19-.4l.26-.15a1,1,0,0,1,.42-.08,1.88,1.88,0,0,1,.77.19,1.8,1.8,0,0,1,1,1,3.72,3.72,0,0,1,.09.51,2.7,2.7,0,0,0,.2.81,3.09,3.09,0,0,1,.51,1.6A1.49,1.49,0,0,1,14.81,18.47Z"/><path class="cls-1" d="M9.42,11.83a.89.89,0,0,0,.53.2l.14,0c.33-.07.9-.37,1.06-1.52a1.53,1.53,0,0,0-.59-1.54A1.16,1.16,0,0,0,9.31,8.9a1.57,1.57,0,0,0-.64,1.56A2,2,0,0,0,9.42,11.83Zm.28-2.28a.41.41,0,0,1,.44,0,.79.79,0,0,1,.27.81c-.07.51-.25.84-.45.89a1.12,1.12,0,0,1-.53-.88C9.39,10,9.49,9.66,9.69,9.54Z"/><path class="cls-1" d="M18.47,10.37a1.29,1.29,0,0,0-1.14-.79,1.71,1.71,0,0,0-1.58,1c-.65,1.15-.34,1.81-.1,2.09a.91.91,0,0,0,.71.28h0A2.25,2.25,0,0,0,18,12.2,1.77,1.77,0,0,0,18.47,10.37Zm-1.05,1.34a1.37,1.37,0,0,1-1.18.46c-.2-.23-.13-.69.18-1.24a1,1,0,0,1,.84-.6h0a.55.55,0,0,1,.49.32C17.89,10.93,17.76,11.32,17.41,11.71Z"/><path class="cls-1" d="M21.67,4.25V.37a.38.38,0,0,0-.61-.29L19,1.71,17,.08a.38.38,0,0,0-.47,0L14.44,1.71,12.39.08a.38.38,0,0,0-.47,0L9.87,1.71,7.82.08a.38.38,0,0,0-.47,0L5.3,1.71,3.25.08a.38.38,0,0,0-.61.29V4.08l0,.08C-.71,9.79-.11,15,.41,19.63c.11,1,.22,1.92.29,2.86a.38.38,0,0,0,.36.35l2.24.06H21.69a.37.37,0,0,0,.37-.34c.1-1,.21-2,.33-3.07C23,14.65,23.54,9.62,21.67,4.25ZM3.13,22.15l-1.7,0c-.07-.84-.17-1.69-.27-2.55C.64,15,.1,10.32,2.9,5.16A35.12,35.12,0,0,1,3.13,22.15Zm18.53-2.73c-.11.92-.21,1.83-.3,2.75H3.9A36,36,0,0,0,3.55,4.68H17.86a.38.38,0,0,0,0-.75H3.39V1.15L5.07,2.48a.38.38,0,0,0,.47,0L7.59.85,9.64,2.48a.38.38,0,0,0,.47,0L12.16.85l2.05,1.63a.38.38,0,0,0,.47,0L16.73.85l2.05,1.63a.38.38,0,0,0,.47,0l1.68-1.33V4.32a.36.36,0,0,0,0,.12C22.78,9.67,22.21,14.63,21.65,19.42Z"/></svg>