<svg id="Layer_1" data-name="Layer 1" xmlns="http://www.w3.org/2000/svg" viewBox="0 0 22.23 27.28"><defs><style>.cls-1{fill:#444344;}.cls-2{fill:none;}</style></defs><title>Ishop icon P2P_9-10</title><polygon class="cls-1" points="11.96 7.37 11.23 7.37 11.23 3.96 13.86 1.33 13.54 1.01 10.79 3.77 10.79 7.37 10.06 7.37 10.06 3.47 13.54 -0.01 14.88 1.33 11.96 4.26 11.96 7.37"/><path class="cls-1" d="M15.15,27.13H7.08a1.42,1.42,0,0,1-1.42-1.29L4.29,11.9,5,11.83,6.38,25.77a.7.7,0,0,0,.7.64h8.07a.71.71,0,0,0,.7-.64l1.38-14,.72.07-1.38,14A1.43,1.43,0,0,1,15.15,27.13Z"/><path class="cls-1" d="M19.12,12.17h-16V9.27h16ZM3.84,11.44H18.39V10H3.84Z"/><path class="cls-1" d="M17.89,10H4.44V8.1A1.1,1.1,0,0,1,5.54,7H16.79a1.1,1.1,0,0,1,1.09,1.09ZM5.16,9.25h12V8.09a.37.37,0,0,0-.37-.37H5.54a.38.38,0,0,0-.38.38Z"/><path class="cls-1" d="M11.63,17.44l-1.54-.13,0-.36a4.36,4.36,0,0,1,.19-1H9.63l.77-.25a2.06,2.06,0,0,1,1.2-1.24.79.79,0,0,1,1,.73.77.77,0,0,1-.51.72h0s-.35.2-.43,1.13Zm-.74-.79H11A2.72,2.72,0,0,1,11.2,16h-.11A2.89,2.89,0,0,0,10.89,16.66Zm.94-1.48a.92.92,0,0,0-.33.2l.38-.16A0,0,0,0,0,11.84,15.18Z"/><path class="cls-1" d="M11,23.37a3.64,3.64,0,0,1-.61-7.23.36.36,0,1,1,.12.71,2.91,2.91,0,1,0,.9,0,.36.36,0,0,1-.31-.41.35.35,0,0,1,.41-.31A3.64,3.64,0,0,1,11,23.37Z"/><circle class="cls-2" cx="10.61" cy="21.78" r="0.41"/><circle class="cls-2" cx="11.02" cy="20.55" r="0.41"/><circle class="cls-2" cx="9.79" cy="20.96" r="0.41"/><path class="cls-1" d="M10.18,16.63a2.52,2.52,0,0,1-1.84-.82,3.11,3.11,0,0,1-.81-2.48l0-.26L7.81,13a2.4,2.4,0,0,1,2.43,1.35h0a3.15,3.15,0,0,1,.43,1.73c0,.09,0,.15,0,.22l0,.3-.3,0Zm-2-2.93a2.39,2.39,0,0,0,.63,1.61,1.84,1.84,0,0,0,1.09.58,2.48,2.48,0,0,0-.34-1.17h0A1.88,1.88,0,0,0,8.22,13.71Z"/></svg>