<svg id="Layer_1" data-name="Layer 1" xmlns="http://www.w3.org/2000/svg" viewBox="0 0 64 53.81"><defs><style>.cls-1{fill:none;stroke:#444344;stroke-miterlimit:10;stroke-width:0.75px;}.cls-2{fill:#444344;}</style></defs><title>Pre packaged prepared</title><path class="cls-1" d="M42.56,28V10.85L46,7.4a.72.72,0,0,0,0-1h0a.72.72,0,0,0-1,0L41.61,9.77H19.14L15.76,6.38a.72.72,0,0,0-1,1l3.38,3.38v32a.72.72,0,0,0,.72.72h23.7V31"/><polygon class="cls-1" points="41.12 22.15 19.57 28.21 19.57 21.08 41.12 15.02 41.12 22.15"/><path class="cls-1" d="M51.17,34.91H31.06a.72.72,0,0,0-.72.72h0a10.77,10.77,0,0,0,21.55,0,.72.72,0,0,0-.72-.72Z"/><path class="cls-2" d="M53.55,22a.72.72,0,0,0-.91.45L49,33.24a.72.72,0,1,0,1.36.45L54,22.92a.72.72,0,0,0-.44-.92Z"/><path class="cls-1" d="M32.93,32.48A1.44,1.44,0,1,0,34.37,31h0A1.44,1.44,0,0,0,32.93,32.48Z"/><path class="cls-1" d="M37.24,32.48A1.44,1.44,0,1,0,38.68,31h0A1.44,1.44,0,0,0,37.24,32.48Z"/><path class="cls-1" d="M41.11,29.6a1.44,1.44,0,1,0,1.44-1.44h0A1.44,1.44,0,0,0,41.11,29.6Z"/><path class="cls-1" d="M44.71,32.48A1.44,1.44,0,1,0,46.15,31h0A1.44,1.44,0,0,0,44.71,32.48Z"/></svg>