<svg id="Layer_1" data-name="Layer 1" xmlns="http://www.w3.org/2000/svg" viewBox="0 0 22.23 27.28"><defs><style>.cls-1{fill:#444344;}.cls-2{fill:none;}</style></defs><title>Ishop icon P2P_9-10</title><path class="cls-1" d="M21,12.38H1.22a1.1,1.1,0,0,1-1.11-1.1v-1.1h22v1.1A1.1,1.1,0,0,1,21,12.38ZM.84,10.91v.37a.38.38,0,0,0,.38.37H21a.38.38,0,0,0,.38-.37v-.37Z"/><path class="cls-1" d="M17.58,10.91H5.07L3.94,9.08H3A1.1,1.1,0,1,1,3,6.89H19.18A1.1,1.1,0,0,1,20.28,8a1.1,1.1,0,0,1-1.1,1.1h-.86Zm-12.1-.73H17.09l.75-1.83h1.34A.37.37,0,0,0,19.56,8a.35.35,0,0,0-.11-.26h0a.36.36,0,0,0-.26-.11H3a.37.37,0,1,0,0,.74h1.3Z"/><path class="cls-1" d="M18.82,7.43a.36.36,0,0,1-.36-.36A4,4,0,0,0,11,4.91a.36.36,0,0,1-.61-.39,4.77,4.77,0,0,1,8.79,2.54A.36.36,0,0,1,18.82,7.43Z"/><path class="cls-1" d="M13.68,6.14a.73.73,0,1,1,.73-.73A.73.73,0,0,1,13.68,6.14Zm0-.73h0Z"/><path class="cls-1" d="M15.15,5a.73.73,0,1,1,.73-.73A.73.73,0,0,1,15.15,5Zm0-.73h0Z"/><path class="cls-1" d="M11.84,7.06h-.73a3.49,3.49,0,0,0-7,0H3.42a4.21,4.21,0,1,1,8.43,0Z"/><path class="cls-1" d="M9.65,7.43a.36.36,0,0,1-.36-.36A1.65,1.65,0,1,0,6,7.06a.36.36,0,1,1-.73,0,2.38,2.38,0,1,1,4.76,0A.36.36,0,0,1,9.65,7.43Z"/><path class="cls-1" d="M14.12,23.18l-.24-.43a33,33,0,0,0-2.71-3.27L7,14a1,1,0,0,1-.35-.62.94.94,0,0,1,.25-.75.77.77,0,0,1,.59-.29c.48,0,.93.47,1.21.79l.08.09c.27.29,2.58,2.65,2.58,2.65h0s1.8,1.44,3.06.89L14.76,14a1.76,1.76,0,0,1,.34-1.22,1,1,0,0,1,.75-.32c.63,0,.87.32.87,1V16h0s.13,1,.25,1.61c0,.12.06.27.09.42a5.69,5.69,0,0,1,.22,2c.1.16.24.35.3.42l.28.36-.42.19a14.34,14.34,0,0,0-3,1.75ZM7.52,13.1h0c-.09.09-.14.16-.13.22a.3.3,0,0,0,.1.16l.08.08L11.74,19c.07.07,1.81,2,2.55,3a16.78,16.78,0,0,1,2.47-1.42,2.86,2.86,0,0,1-.17-.28l-.06-.12,0-.13a4.77,4.77,0,0,0-.19-1.85c0-.16-.07-.32-.1-.45-.12-.63-.26-1.7-.26-1.7V13.44a1.12,1.12,0,0,0,0-.28h-.06c-.2,0-.24,0-.28.08a1.19,1.19,0,0,0-.16.74l-.36,3.26-.15.09c-1.7,1-4-.82-4.08-.9S8.53,14,8.26,13.74l-.09-.1C8.05,13.51,7.69,13.1,7.52,13.1ZM14.78,17h0Z"/><path class="cls-1" d="M11.73,16.78a.24.24,0,0,1-.21-.12L9.66,13.61C9.55,13.4,9.27,13,9,13H9a.28.28,0,0,0-.3.25.24.24,0,0,1-.27.22.24.24,0,0,1-.22-.27A.76.76,0,0,1,9,12.53H9c.61,0,1,.76,1.06.85l1.86,3a.24.24,0,0,1-.08.33A.24.24,0,0,1,11.73,16.78Z"/><path class="cls-1" d="M12.24,17.13A.24.24,0,0,1,12,17c0-.12-.88-2.87-1-3.47a.59.59,0,0,0-.25-.42.41.41,0,0,0-.35,0,1.62,1.62,0,0,0,0,.87.24.24,0,0,1-.19.28A.24.24,0,0,1,9.91,14c-.05-.28-.18-1.22.33-1.41a.9.9,0,0,1,.75,0,1,1,0,0,1,.49.74c.12.58,1,3.4,1,3.43a.24.24,0,0,1-.16.3Z"/><path class="cls-1" d="M13,17.38a.24.24,0,0,1-.24-.22l-.24-3.26A1.61,1.61,0,0,0,12.3,13c-.09,0-.17,0-.2,0a.24.24,0,0,0,0,.15v0L11.94,15a.24.24,0,0,1-.26.22.24.24,0,0,1-.22-.26l.14-1.67a.69.69,0,0,1,.12-.5.65.65,0,0,1,.51-.24.56.56,0,0,1,.4.15A1.93,1.93,0,0,1,13,13.88l.24,3.25a.24.24,0,0,1-.22.26Z"/><path class="cls-1" d="M17.79,21.87c.37.58.84,1.37,1.21,2H15.51l-.31-.48a16.43,16.43,0,0,1,2.59-1.53M18.1,21c-1.11.13-3.89,2.18-3.89,2.18l.91,1.39h5.13S18.8,22,18.1,21Z"/><circle class="cls-2" cx="17.8" cy="21.92" r="0.25"/><circle class="cls-2" cx="18.14" cy="22.52" r="0.25"/></svg>