<svg id="Layer_1" data-name="Layer 1" xmlns="http://www.w3.org/2000/svg" viewBox="0 0 500 500"><title>Icon</title><path d="M295.84,234.16A42.49,42.49,0,0,0,281,232a57.36,57.36,0,0,0,24-46.32,8.64,8.64,0,0,0-8.64-8.64,53.76,53.76,0,0,0-45.84,26.16A49.21,49.21,0,0,0,237,187.6a8.64,8.64,0,1,0-9.6,14.16,42.72,42.72,0,0,1,14.64,33.84,84,84,0,0,1-12.72-2.16,43.44,43.44,0,0,0-24,0,50.88,50.88,0,0,0-31.68,33.84,89.29,89.29,0,0,0,0,53.52,81.12,81.12,0,0,0,37.68,49.68,48,48,0,0,0,24,6,42.73,42.73,0,0,0,13.2-2.16h0a12,12,0,0,1,7.44,0h0a45.84,45.84,0,0,0,36.24-3.84,81.12,81.12,0,0,0,37.68-49.68,89.29,89.29,0,0,0,0-53.52,50.88,50.88,0,0,0-31.68-33.84Zm-10.08-38.4a38.64,38.64,0,0,1-26.16,28.08A38.64,38.64,0,0,1,285.76,195.76Zm25.2,120a65,65,0,0,1-29.28,39.36,29.52,29.52,0,0,1-24,2.64h0a29,29,0,0,0-18,0h0a29.52,29.52,0,0,1-24-2.64,65,65,0,0,1-29.28-39.36c-8.64-29.52,0-59.76,20.64-66.24a25.44,25.44,0,0,1,7.92-1.2,28.57,28.57,0,0,1,7.2,0,101.28,101.28,0,0,0,51.12,0,26.64,26.64,0,0,1,15.12,0C308.32,254.8,317.68,285,309,314.56Z"/><path d="M347,490H153a21.6,21.6,0,0,1-21.6-21.6h0V104.08l36.48-44.4V10H334.48V59.68l34.08,42.72v366A21.6,21.6,0,0,1,347,490ZM144.4,108.64v360a8.64,8.64,0,0,0,8.64,8.64H347a8.64,8.64,0,0,0,8.64-8.64V106L321.52,63.28V22H180.88V63.28Z"/><rect x="174.16" y="55.6" width="153.6" height="12.96"/></svg>