<svg id="Layer_1" data-name="Layer 1" xmlns="http://www.w3.org/2000/svg" viewBox="0 0 13.2 21.22"><defs><style>.cls-1,.cls-2{fill:#414042;}.cls-2{font-size:1.81px;font-family:CenturyGothic-Bold, Century Gothic;font-weight:700;}</style></defs><title>iSHOP Dashboard_Items purchased</title><path class="cls-1" d="M7,20H.39V4.26H7.7L8.64,5.8v9.06L9,14.73v-9a.19.19,0,0,0,0-.1L8,4a.19.19,0,0,0-.16-.09H.19A.19.19,0,0,0,0,4.07V20.19a.19.19,0,0,0,.19.19H7.3A3.72,3.72,0,0,1,7,20Z"/><rect class="cls-1" x="0.13" y="5.49" width="8.64" height="0.39"/><path class="cls-1" d="M6.94,16.32H.13v.39h6.6A3.41,3.41,0,0,1,6.94,16.32Z"/><path class="cls-1" d="M6.46,18.26H5.55v.39h1Q6.47,18.46,6.46,18.26Z"/><rect class="cls-1" x="4.19" y="18.26" width="0.64" height="0.39"/><rect class="cls-1" x="3.29" y="18.26" width="0.39" height="0.39"/><rect class="cls-1" x="0.19" y="7.42" width="3.74" height="0.39"/><rect class="cls-1" x="4.64" y="7.42" width="0.64" height="0.39"/><rect class="cls-1" x="5.8" y="7.42" width="0.39" height="0.39"/><polygon class="cls-1" points="6.64 4.07 6.26 4.07 6.26 1.22 7.47 0 7.75 0.27 6.64 1.38 6.64 4.07"/><path class="cls-1" d="M4.42,14.57a1.75,1.75,0,0,1-1.9-1.72A1.92,1.92,0,0,1,4,11l.14,0-.06-.13a5.28,5.28,0,0,0-.25-.48.12.12,0,0,1,0-.17l.06,0a.12.12,0,0,1,.11.06c.08.13.15.27.21.39l.1.21.1-.21A1.93,1.93,0,0,1,5,9.83a1.6,1.6,0,0,1,.82-.17,4,4,0,0,1,.48,0,.12.12,0,0,1,.09.07.12.12,0,0,1,0,.12,3.42,3.42,0,0,1-.91.85,1.77,1.77,0,0,1-.33.11l-.36.09.35.13a1.84,1.84,0,0,1,1.28,1.71A1.89,1.89,0,0,1,4.42,14.57Zm-.29-3.36a1.66,1.66,0,0,0-1.37,1.64,1.5,1.5,0,0,0,1.66,1.47,1.66,1.66,0,0,0,1.77-1.55,1.66,1.66,0,0,0-1.55-1.58l-.16,0,0,.16q0,.14.06.29l0,.09H4.7c.1,0,.16.06.16.12a.12.12,0,0,1-.12.12H4.22a.12.12,0,0,1-.12-.12.12.12,0,0,1,.12-.12h.14l0-.14c0-.1,0-.2-.07-.29l0-.1Zm1.7-1.3a1.34,1.34,0,0,0-.67.13c-.06,0-.16.12-.35.45l-.12.21.24,0a1.89,1.89,0,0,0,.47-.13,2,2,0,0,0,.52-.43l.18-.19Z"/><path class="cls-1" d="M10.14,21.22a3.06,3.06,0,1,1,3.06-3.06A3.07,3.07,0,0,1,10.14,21.22Zm0-5.87a2.81,2.81,0,1,0,2.81,2.81A2.81,2.81,0,0,0,10.14,15.35Z"/><text class="cls-2" transform="translate(7.97 18.81)">100%</text></svg>