<svg id="Layer_1" data-name="Layer 1" xmlns="http://www.w3.org/2000/svg" viewBox="0 0 20 20"><defs><style>.cls-1{fill:#414042;}</style></defs><title>iSHOP Dashboard_Items purchased</title><path class="cls-1" d="M.29,20A.36.36,0,0,1,0,19.91V4.19c.06-.07.13-.09.26-.09H.34a.83.83,0,0,0,.21,0l.08,0V3c0-.28,0-.29.3-.29H2.39l0-.22c0-.09,0-.17,0-.26L2.5,1.7c0-.49.09-1,.14-1.49A.45.45,0,0,1,2.72,0l0,0h1l0,.06a.7.7,0,0,1,.09.22C4,1,4,1.82,4.09,2.5a.24.24,0,0,0,.27.25H5.65c.2,0,.24,0,.24.24s0,.23,0,.34v.77h.45c.11,0,.16,0,.18.17a1.06,1.06,0,0,1,0,.12V19.66c0,.34,0,.34-.33.34H.29Zm0-.31H6.22V4.41H4.95V5.57q0,1.26,0,2.51a1.69,1.69,0,0,1,0,.31.64.64,0,0,1-.58.51H4.28a.65.65,0,0,1-.66-.72q0-1.22,0-2.43V4.41H2.9v.93c0,.46,0,.92,0,1.39a.66.66,0,1,1-1.32,0q0-.69,0-1.39V4.41H.31ZM3.92,4.51v.05a1.12,1.12,0,0,0,0,.12q0,1.74,0,3.47v0a.27.27,0,0,0,0,.19H4a.61.61,0,0,0,.27.22h.09a.33.33,0,0,0,.31-.27.94.94,0,0,0,0-.24q0-1.71,0-3.41s0-.08,0-.13V4.41H3.93Zm-2.05.65c0,.55,0,1.09,0,1.63a.37.37,0,0,0,.35.38.33.33,0,0,0,.18-.05.49.49,0,0,0,.2-.36c0-.58,0-1.18,0-1.75V4.62a.4.4,0,0,0,0-.1v0l0-.09h-.7ZM.93,4.09H5.59v-1H.93ZM2.69,2.74H3.82L3.61.31H2.91Z"/><path class="cls-1" d="M16.84,20h-2.5a.63.63,0,0,1-.67-.67V18.9c0-2.8,0-5.69,0-8.54a3.25,3.25,0,0,1,.64-1.89l.17-.25a6.14,6.14,0,0,1,.44-.59,2,2,0,0,0,.47-1.72V5.85l-.07,0c-.23-.06-.32-.21-.31-.51,0-.14,0-.28,0-.41s0-.19,0-.28a.36.36,0,0,1,.41-.41h.67V3c0-.51,0-1,0-1.52a.44.44,0,0,1,.16-.37l.62-.57.36-.34L17.37,0l0,0h.05a.27.27,0,0,1,.12.27q0,1.36,0,2.72V4.21h.61c.35,0,.47.12.47.47,0,.08,0,.16,0,.24s0,.27,0,.41c0,.29-.08.44-.31.5l-.07,0v.07a2.1,2.1,0,0,0,.43,1.68,12.31,12.31,0,0,1,1,1.5,2.52,2.52,0,0,1,.3,1.28q0,4.48,0,9a.63.63,0,0,1-.67.66ZM14,10.53v.16s0,.06,0,.09q0,4.25,0,8.51c0,.32.12.43.44.43h4.84c.37,0,.47-.1.47-.48q0-3.64,0-7.28s0-.09,0-.14v-.14H19.6l-.41,0a4.75,4.75,0,0,1-.84-.11c-.69-.17-1.35-.4-2-.62a6.77,6.77,0,0,0-2.22-.38ZM15.73,5.9h0a.15.15,0,0,0,0,.07V6a1.66,1.66,0,0,0,0,.19,2.06,2.06,0,0,1-.47,1.46c-.27.34-.53.72-.84,1.2a2.61,2.61,0,0,0-.4,1.2v.11l.4,0,.6,0a8.43,8.43,0,0,1,2.14.6l.17.06a5.88,5.88,0,0,0,2.1.39h.3V11c0-.13,0-.26,0-.39A3.33,3.33,0,0,0,19,8.49L18.64,8l-.32-.44A1.73,1.73,0,0,1,18,6.46c0-.11,0-.23,0-.34V5.84H15.76Zm-.43-.38h3.07v-1H15.3ZM17.1.67l-.18.16c-.14.13-.28.25-.41.39a.54.54,0,0,0-.14.34c0,.59,0,1.19,0,1.76V4.2h.91V.5Z"/><path class="cls-1" d="M10,20H7.61c-.15,0-.19,0-.2-.2s0-.11,0-.17a4,4,0,0,1,0-.64,1,1,0,0,1,.11-.3c0-.06.06-.13.09-.19a.41.41,0,0,0,0-.27.62.62,0,0,1,.19-.73A.3.3,0,0,0,8,17.14l-.12-.5c-.11-.44-.23-.9-.3-1.35a4.41,4.41,0,0,1,.5-3c.11-.2.21-.4.31-.61l.14-.29.05-.11-.21-.08-.1,0a.56.56,0,0,1-.37-.51.52.52,0,0,1,.32-.53.32.32,0,0,0,.2-.38.36.36,0,0,1,0-.1c0-.22-.12-.29-.22-.33a1.81,1.81,0,0,1-1.07-2A1.86,1.86,0,0,1,8.87,5.84h.35V5.73c0-.37,0-.67.27-.87A.81.81,0,0,1,10,4.74h.25a.56.56,0,0,1,.52.31,2,2,0,0,1,.12.46c0,.08,0,.15,0,.22l0,.07H11l.21,0a3,3,0,0,1,.48.08,1.82,1.82,0,0,1,.21,3.44.34.34,0,0,0-.19.28.46.46,0,0,1,0,.09.31.31,0,0,0,.15.38.57.57,0,0,1,.37.62c0,.26-.2.42-.57.52l-.12,0,.12.25.15.3.19.36a7.61,7.61,0,0,1,.36.76,4.54,4.54,0,0,1,.17,2.53c-.08.44-.2.89-.31,1.32l-.08.29a.32.32,0,0,0,.12.38.63.63,0,0,1,.19.72.44.44,0,0,0,0,.28c0,.07.05.13.08.19a1,1,0,0,1,.11.29,4.6,4.6,0,0,1,0,.68v.15c0,.14,0,.18-.19.18ZM8.14,18.62c-.33,0-.42.17-.43.31a4.12,4.12,0,0,0,0,.46c0,.07,0,.13,0,.2v.11h4.67v-.27c0-.11,0-.21,0-.32,0-.36-.13-.49-.49-.49H8.14Zm.16-1H8.18a.36.36,0,0,0-.27.26.31.31,0,0,0,.1.32.54.54,0,0,0,.32.1h3.51a.33.33,0,0,0,.35-.34.33.33,0,0,0-.33-.35H8.3Zm1.83-6.37H9a.28.28,0,0,0-.22.15l-.19.43c-.1.23-.2.47-.32.69a4,4,0,0,0-.48,1.78,8.65,8.65,0,0,0,.53,3l0,.07h3.27a.28.28,0,0,0,.22-.19,8.8,8.8,0,0,0,.5-2.4,4,4,0,0,0-.41-2.06L11.56,12l-.29-.59a.29.29,0,0,0-.23-.14Zm-1.64-.89c-.3,0-.34.2-.34.29s0,.29.32.31h3a.81.81,0,0,0,.25,0,.3.3,0,0,0,.2-.23.25.25,0,0,0-.1-.25.53.53,0,0,0-.3-.09h-3Zm.19-.3H11.4V9.53H8.69ZM10,6.13l-1.27,0a1.53,1.53,0,0,0,0,3l.5,0h1.61l.5,0a1.53,1.53,0,0,0,0-3.05ZM10,5a.9.9,0,0,0-.34.06c-.23.1-.2.32-.19.49a1.27,1.27,0,0,1,0,.13v.11h1V5.73s0-.09,0-.13,0-.39-.19-.49A.88.88,0,0,0,10,5Z"/></svg>