<svg id="Layer_1" data-name="Layer 1" xmlns="http://www.w3.org/2000/svg" viewBox="0 0 30.45 25.56"><defs><style>.cls-1{fill:#414042;}</style></defs><title>iSHOP Dashboard_Elements</title><path class="cls-1" d="M30.45,19h0a.39.39,0,0,0,0-.08.4.4,0,0,0,0-.06h0c-.16-.42-.28-.81-.39-1.16l0-.05a4.2,4.2,0,0,0-1.42-2.49A4.39,4.39,0,0,0,30,12.71c.12-.38.25-.76.41-1.2a.39.39,0,0,0,0-.09.39.39,0,0,0,0-.05h0a.4.4,0,0,0,0-.09.4.4,0,0,0,0-.07h0a.39.39,0,0,0-.08-.12.41.41,0,0,0-.14-.09h0L30,11h0a5.21,5.21,0,0,0-3.13,1.14A6.59,6.59,0,0,0,25,14.45a13.57,13.57,0,0,0-4.93-3.37,19.32,19.32,0,0,0-14.62,0A13,13,0,0,0,.09,15a.4.4,0,0,0,0,.49,13,13,0,0,0,5.36,3.88,19.33,19.33,0,0,0,14.62,0A13.57,13.57,0,0,0,25,16a6.58,6.58,0,0,0,1.87,2.36A5.19,5.19,0,0,0,30,19.44h0l.13,0h0a.4.4,0,0,0,.22-.2h0a.41.41,0,0,0,0-.08A.4.4,0,0,0,30.45,19Zm-1-7.21c-.07.22-.15.44-.22.66-.46,1.44-.74,2.31-2.22,2.31a.4.4,0,1,0,0,.81H27c1.48,0,1.76.87,2.22,2.31l.22.66a4.46,4.46,0,0,1-2.11-.9,5.88,5.88,0,0,1-1.83-2.48,5.9,5.9,0,0,1,1.8-2.46A4.49,4.49,0,0,1,29.41,11.83Zm-4.83,3.37a12.53,12.53,0,0,1-4.83,3.38,18.55,18.55,0,0,1-14,0A12.53,12.53,0,0,1,.92,15.21a12.52,12.52,0,0,1,4.83-3.38,18.54,18.54,0,0,1,14,0A12.51,12.51,0,0,1,24.57,15.21Z"/><path class="cls-1" d="M8,11.69a.4.4,0,0,0-.3.07.41.41,0,0,0-.09.57,4.88,4.88,0,0,1,.63,2.54A7.78,7.78,0,0,1,7.74,18a.4.4,0,0,0,.37.56.4.4,0,0,0,.37-.25A8.59,8.59,0,0,0,9,14.85a5.66,5.66,0,0,0-.79-3A.41.41,0,0,0,8,11.69Z"/><path class="cls-1" d="M5.08,12.85A1.58,1.58,0,0,0,4,13.31a1.57,1.57,0,1,0,1.11-.46Zm.76,1.57a.75.75,0,0,1-.22.54.78.78,0,0,1-1.07,0,.75.75,0,0,1-.22-.54.77.77,0,0,1,.23-.55.76.76,0,0,1,1.06,0h0A.75.75,0,0,1,5.83,14.42Z"/><path class="cls-1" d="M12.67,6.22a2.2,2.2,0,0,0,.94,1.89.42.42,0,0,0,.25.08.42.42,0,0,0,.31-.13.36.36,0,0,0,.1-.28.36.36,0,0,0-.15-.26,1.59,1.59,0,0,1-.46-.5,1.63,1.63,0,0,1-.18-.8,1.53,1.53,0,0,1,.34-.82,2,2,0,0,0,.44-1.16,1.69,1.69,0,0,0-.47-1.11,1.1,1.1,0,0,1-.32-.69,1.6,1.6,0,0,1,.33-.82A2.25,2.25,0,0,0,14.27.38a.41.41,0,0,0-.81,0,1.66,1.66,0,0,1-.34.87,2.18,2.18,0,0,0-.44,1.2,1.71,1.71,0,0,0,.47,1.13,1.09,1.09,0,0,1,.31.67,1.46,1.46,0,0,1-.33.79A2.07,2.07,0,0,0,12.67,6.22Z"/><path class="cls-1" d="M10.71,8.38a.41.41,0,0,0,.81,0,1.7,1.7,0,0,0-.47-1.11,1.1,1.1,0,0,1-.32-.69,1.6,1.6,0,0,1,.33-.82,2.25,2.25,0,0,0,.46-1.25.41.41,0,0,0-.81,0,1.68,1.68,0,0,1-.34.87,2.18,2.18,0,0,0-.44,1.2,1.71,1.71,0,0,0,.47,1.13A1.09,1.09,0,0,1,10.71,8.38Z"/><path class="cls-1" d="M16.2,8.38a.4.4,0,0,0,.81,0,1.7,1.7,0,0,0-.47-1.11,1.1,1.1,0,0,1-.32-.69,1.6,1.6,0,0,1,.33-.82A2.25,2.25,0,0,0,17,4.51a.4.4,0,0,0-.81,0,1.66,1.66,0,0,1-.34.87,2.18,2.18,0,0,0-.44,1.2,1.71,1.71,0,0,0,.47,1.13A1.09,1.09,0,0,1,16.2,8.38Z"/><path class="cls-1" d="M25.16,18.25a.41.41,0,0,0-.23-.21.4.4,0,0,0-.31,0L15.94,22h0a.4.4,0,0,0-.21.22h0a.41.41,0,0,0,0,.13.4.4,0,0,0,0,.18A5.16,5.16,0,0,0,17,24.24l0,0,.06,0a5.07,5.07,0,0,0,3.35,1.25l.3,0h.06a5.08,5.08,0,0,0,3.5-1.73l0,0,0,0a4.92,4.92,0,0,0,1.24-3.28.38.38,0,0,0,0-.08.38.38,0,0,0,0,0A5.16,5.16,0,0,0,25.16,18.25Zm-7.87,5.12a4.33,4.33,0,0,1-.62-.84l2.26-1Zm5-3.39,2.24-1a4.32,4.32,0,0,1,.22,1Zm-2.26,1.48.26,3.27a4,4,0,0,1-2.42-.83Zm1.07,3.22-.27-3.4,2.58,2.27a4,4,0,0,1-2.31,1.13ZM24,22.94l-2.45-2.15h3.26A3.92,3.92,0,0,1,24,22.94Z"/></svg>