<svg id="Layer_1" data-name="Layer 1" xmlns="http://www.w3.org/2000/svg" viewBox="0 0 22.23 27.28"><defs><style>.cls-1{fill:#444344;}.cls-2{fill:#444345;}</style></defs><title>Ishop icon P2P_9-10</title><path class="cls-1" d="M11,2A3.16,3.16,0,1,1,7.88,5.19,3.16,3.16,0,0,1,11,2m0-.72a3.88,3.88,0,1,0,3.88,3.88A3.88,3.88,0,0,0,11,1.31Z"/><path class="cls-1" d="M20.23,26.34H1.75a.83.83,0,0,1-.5-1.5l4.29-3.21a1.15,1.15,0,0,1,.68-.22h2.9v.72H6.22a.42.42,0,0,0-.25.08L1.68,25.42a.12.12,0,0,0,.07.21H20.23a.12.12,0,0,0,.07-.21l-4.23-3.2a.42.42,0,0,0-.25-.08h-3v-.72h3a1.14,1.14,0,0,1,.69.23l4.23,3.2a.83.83,0,0,1-.5,1.5Z"/><path class="cls-1" d="M17.69,22.83l-.7-.17,1-4.12a1.15,1.15,0,0,0-.07-.69l-1.32-3.07h-.27v7h-.72V14H17.1l1.51,3.51a1.85,1.85,0,0,1,.11,1.14Z"/><path class="cls-1" d="M20.31,24.79l-.69-.19,1.74-6.35a1.14,1.14,0,0,0-.06-.76l-3-6.57a1.64,1.64,0,0,0-1.49-1H5.26a1.63,1.63,0,0,0-1.51,1L.92,17.6a1.14,1.14,0,0,0-.06.72l1.51,6.23-.7.17L.17,18.49a1.86,1.86,0,0,1,.1-1.17l2.83-6.65A2.35,2.35,0,0,1,5.26,9.24H16.84A2.35,2.35,0,0,1,19,10.63l3,6.57a1.86,1.86,0,0,1,.1,1.24Z"/><path class="cls-1" d="M4.4,22.72l-.85-4a1.84,1.84,0,0,1,.1-1.11L5.13,14h1.5v7.77H5.91V14.68h-.3l-1.3,3.16a1.14,1.14,0,0,0-.06.69l.85,4Z"/><rect class="cls-1" x="8.07" y="16.8" width="5.85" height="1.33"/><path class="cls-1" d="M13.51,17.52h-5v-.67a2.52,2.52,0,1,1,5,0ZM9.19,16.8h3.6a1.8,1.8,0,0,0-3.6,0Z"/><path class="cls-1" d="M13,23.53H9l-.49-5.19a.36.36,0,1,1,.71-.07l.43,4.54h2.75l.43-4.58a.36.36,0,0,1,.71.07Z"/><rect class="cls-1" x="8.47" y="17.41" width="5.05" height="1.18"/><path class="cls-2" d="M12.53,16.54h-.3a.92.92,0,0,0-.93-.93v-.3A1.23,1.23,0,0,1,12.53,16.54Z"/><path class="cls-1" d="M11.24,14.92h0a.36.36,0,0,1-.32-.39l.18-1.73,1.86-1a.36.36,0,0,1,.33.64l-1.52.79-.14,1.34A.36.36,0,0,1,11.24,14.92Z"/></svg>