<svg id="Layer_1" data-name="Layer 1" xmlns="http://www.w3.org/2000/svg" viewBox="0 0 29.38 27.14"><defs><style>.cls-1{fill:#414042;}</style></defs><title>iSHOP Dashboard_Elements</title><path class="cls-1" d="M10.23,10.42h.7a.37.37,0,1,0,0-.75h-.7a.37.37,0,1,0,0,.75Z"/><path class="cls-1" d="M12.29,8.51H13a.37.37,0,0,0,0-.75h-.7a.38.38,0,0,0,0,.75Z"/><path class="cls-1" d="M14.34,10.42H15a.37.37,0,1,0,0-.75h-.7a.37.37,0,1,0,0,.75Z"/><path class="cls-1" d="M16.4,8.51h.7a.38.38,0,0,0,0-.75h-.7a.37.37,0,0,0,0,.75Z"/><path class="cls-1" d="M18.45,10.42h.7a.37.37,0,1,0,0-.75h-.7a.37.37,0,1,0,0,.75Z"/><path class="cls-1" d="M29.38,13.5a1.76,1.76,0,0,0-1.73-1.76,3.91,3.91,0,0,0-3.59-3.53l4.52-5.86A1.5,1.5,0,1,0,26.09.68L22.14,6.06A3.92,3.92,0,0,0,18,5.73a3.93,3.93,0,0,0-6.56,0A3.93,3.93,0,0,0,5.79,8.18H5.63a3.93,3.93,0,0,0-3.9,3.56A1.76,1.76,0,0,0,.84,15c.1,1.21.95,7.69,7,10.07a1.74,1.74,0,0,0,.3,1.32,1.81,1.81,0,0,0,1.47.76H19.77a1.81,1.81,0,0,0,1.47-.76,1.74,1.74,0,0,0,.3-1.32c6.06-2.38,6.91-8.86,7-10.07A1.76,1.76,0,0,0,29.38,13.5ZM26.7,1.12A.76.76,0,0,1,27.75.87a.75.75,0,0,1,.22,1L23.44,7.78a3.91,3.91,0,0,0-.74-1.21ZM5.63,8.93A3.21,3.21,0,0,1,6,9l.35,0,.06-.35a3.18,3.18,0,0,1,4.88-2.09l.34.23.19-.37a3.18,3.18,0,0,1,5.63,0l.19.37L18,6.56a3.18,3.18,0,0,1,4.88,2.1L23,9l.35,0a3.21,3.21,0,0,1,.41,0,3.18,3.18,0,0,1,3.15,2.81H2.48A3.18,3.18,0,0,1,5.63,8.93Zm22.11,6.55c0,.14,0,.29-.07.46l0,.17c0,.12,0,.24-.08.37l-.06.24-.1.38-.08.28-.13.41-.1.3c-.05.15-.11.3-.17.45l-.12.3c-.08.18-.16.36-.25.54l-.11.22c-.13.25-.27.51-.43.76l-.13.19c-.12.19-.25.38-.39.57l-.21.27c-.12.16-.25.32-.39.47l-.26.28-.44.43-.31.27c-.16.14-.34.27-.51.39l-.33.24c-.2.13-.42.25-.64.38L22.1,24a10,10,0,0,1-1.07.47H8.35A10,10,0,0,1,7.28,24L7,23.82c-.22-.12-.43-.24-.63-.37L6,23.21c-.17-.13-.34-.25-.5-.39l-.31-.27-.43-.42-.27-.29c-.13-.15-.26-.31-.38-.46l-.22-.28c-.13-.18-.26-.37-.38-.55l-.14-.21c-.15-.25-.29-.51-.42-.76l-.11-.23c-.09-.18-.17-.35-.24-.53l-.12-.3c-.06-.15-.12-.3-.17-.45l-.1-.3-.13-.41L2,17.11l-.1-.38-.06-.24c0-.13-.05-.25-.08-.37l0-.17c0-.17-.06-.32-.07-.46h0c0-.08,0-.15,0-.22H27.76c0,.07,0,.14,0,.22ZM20.63,25.95a1,1,0,0,1-.86.44H9.61a1,1,0,0,1-.86-.44,1,1,0,0,1-.17-.75l12.22,0A1,1,0,0,1,20.63,25.95Zm7.45-11.56H1.31a1,1,0,0,1,.45-1.9H27.62a1,1,0,0,1,.46,1.9Z"/><path class="cls-1" d="M8.4,22.56a7.52,7.52,0,0,1-4.53-5.48h2a.38.38,0,0,0,0-.75H3l.09.45a8.4,8.4,0,0,0,5.09,6.49l.13,0a.38.38,0,0,0,.13-.73Z"/></svg>