<svg id="Layer_1" data-name="Layer 1" xmlns="http://www.w3.org/2000/svg" viewBox="0 0 24.46 24.46"><defs><style>.cls-1{fill:#414042;}</style></defs><title>iSHOP Dashboard_Elements</title><path class="cls-1" d="M24.26,10.11v0A12.22,12.22,0,1,0,3.48,20.76.35.35,0,0,0,3.7,21,12.2,12.2,0,0,0,24.26,10.11Zm-1-.84a13.08,13.08,0,0,0-6-1.2,14.36,14.36,0,0,0-.68-2.25h.27a3.23,3.23,0,0,0,2.81-1.54,2,2,0,0,0,.19-.56A11.48,11.48,0,0,1,23.31,9.27Zm-12.11,14a.37.37,0,0,0-.37.33,11.42,11.42,0,0,1-6.14-2.75c4.3-.93,6.28-3.29,7.9-5.21,1.35-1.6,2.43-2.87,4.4-3.11C16.94,18.88,14.58,23.29,11.2,23.29ZM1,14.38l.05,0a.37.37,0,0,0,.27-.11C4.47,11,8.92,9.31,15.7,8.86l1,0a19.59,19.59,0,0,1,.29,3c-2.32.26-3.61,1.77-5,3.38-1.68,2-3.59,4.27-8,5.06A11.46,11.46,0,0,1,1,14.38ZM19.09,3a.37.37,0,0,0,0,.13.82.82,0,0,1-.09.74,2.43,2.43,0,0,1-2.18,1.14H16.3A8.15,8.15,0,0,0,12,.76h.27A11.4,11.4,0,0,1,19.09,3Zm-9.45-2a.36.36,0,0,0,.2.07c2.06,0,4.22,1.28,5.61,4a14.85,14.85,0,0,1-4.7-1,8.42,8.42,0,0,0-7.47,1A11.49,11.49,0,0,1,9.64,1.05ZM2,7a.37.37,0,0,0,.25-.11,7.75,7.75,0,0,1,8.23-2.12,15.28,15.28,0,0,0,5.3,1.08,13.23,13.23,0,0,1,.72,2.25l-.88,0C8.74,8.57,4.17,10.29.85,13.67A11.17,11.17,0,0,1,2,7Zm10.9,16.7c2.87-1.21,4.77-5.45,4.81-11.15a3,3,0,0,1,2.58,1.38,7.69,7.69,0,0,1,.54,5.87h0A11.44,11.44,0,0,1,12.93,23.68Zm9-5.32a8.06,8.06,0,0,0-1-4.86,3.79,3.79,0,0,0-3.22-1.75,20.37,20.37,0,0,0-.28-2.93c2.72,0,5,.57,6.09,1.5a11.22,11.22,0,0,1-1.62,8Z"/></svg>