<svg id="Layer_1" data-name="Layer 1" xmlns="http://www.w3.org/2000/svg" viewBox="0 0 24.66 27.88"><defs><style>.cls-1{fill:#414042;stroke:#414042;stroke-miterlimit:22.93;stroke-width:0.25px;}</style></defs><title>iSHOP Dashboard_Elements</title><path class="cls-1" d="M8,7.12A9.11,9.11,0,0,0,9.94,2,1.92,1.92,0,0,0,6.68.68,1.92,1.92,0,0,0,4,.68,1.92,1.92,0,0,0,.72,2,9.11,9.11,0,0,0,2.64,7.12,3.19,3.19,0,0,0,.13,10.24v7.4a3.19,3.19,0,0,0,2.52,3.11A9.11,9.11,0,0,0,.72,25.83,1.92,1.92,0,0,0,4,27.2a1.92,1.92,0,0,0,2.69,0,1.92,1.92,0,0,0,3.27-1.37A9.11,9.11,0,0,0,8,20.75a3.19,3.19,0,0,0,2.52-3.11v-7.4A3.19,3.19,0,0,0,8,7.12ZM2.64.75a1.29,1.29,0,0,1,1,.53V3.11a.31.31,0,0,0,.63,0V1.28a1.27,1.27,0,0,1,2.06,0V3.11a.31.31,0,0,0,.63,0V1.28A1.29,1.29,0,0,1,9.32,2c0,2.17-1.63,5-2.23,5H3.57c-.6,0-2.23-2.84-2.23-5A1.3,1.3,0,0,1,2.64.75ZM8,27.12a1.29,1.29,0,0,1-1-.53V24.76a.31.31,0,0,0-.63,0V26.6a1.27,1.27,0,0,1-2.06,0V24.76a.31.31,0,0,0-.63,0V26.6a1.29,1.29,0,0,1-2.33-.77c0-2.17,1.63-5,2.23-5H7.09c.6,0,2.23,2.84,2.23,5A1.3,1.3,0,0,1,8,27.12Zm1.89-9.48A2.56,2.56,0,0,1,7.36,20.2h-4A2.56,2.56,0,0,1,.75,17.64v-7.4A2.56,2.56,0,0,1,3.31,7.68h4a2.56,2.56,0,0,1,2.56,2.56Z"/><path class="cls-1" d="M7.48,8.72H3.19a1.45,1.45,0,0,0-1.45,1.45.31.31,0,0,0,.63,0,.83.83,0,0,1,.82-.82H7.48a.82.82,0,0,1,.82.82v6.69a.31.31,0,1,0,.63,0V10.17A1.45,1.45,0,0,0,7.48,8.72Z"/><path class="cls-1" d="M24.51,15.35l-1-4.42.37-.16-.46-.23-.05-.22-.21.09L19.8,8.72a2,2,0,0,0-1.93,0L14.52,10.4l-.21-.09-.05.22-.46.23.37.16-1,4.41a.8.8,0,0,0,.36.9l5,3v.38l.31-.19.31.19v-.38l5-3A.8.8,0,0,0,24.51,15.35ZM18.15,9.27h0a1.42,1.42,0,0,1,1.35,0l2.88,1.45-3.17,1.39-.39.17-1.4-.61-2.16-.95ZM13.83,15.7a.18.18,0,0,1-.07-.21l1-4.31,3.77,1.65v5.7Zm10,0-4.69,2.84v-5.7l1-.46,2.73-1.19,1,4.32A.18.18,0,0,1,23.83,15.7Z"/></svg>