<svg id="Layer_1" data-name="Layer 1" xmlns="http://www.w3.org/2000/svg" viewBox="0 0 29.39 28.01"><defs><style>.cls-1{fill:#414042;}</style></defs><title>iSHOP Dashboard_Elements</title><path class="cls-1" d="M7.85.1a.38.38,0,0,0-.37.38V6.91a1.24,1.24,0,0,1-1,1.2,2,2,0,0,0-1.59,2V26.46a.79.79,0,0,1-1.58,0V10.08a2,2,0,0,0-1.59-2,1.23,1.23,0,0,1-1-1.2V.47A.38.38,0,0,0,0,.47V6.91A2,2,0,0,0,1.57,8.85a1.26,1.26,0,0,1,1,1.23V26.46a1.54,1.54,0,0,0,3.08,0V10.08a1.26,1.26,0,0,1,1-1.23A2,2,0,0,0,8.23,6.91V.47A.38.38,0,0,0,7.85.1Z"/><path class="cls-1" d="M2.88,6.41A.38.38,0,0,0,3.25,6V.47a.38.38,0,0,0-.75,0V6A.38.38,0,0,0,2.88,6.41Z"/><path class="cls-1" d="M5.35,6.41A.38.38,0,0,0,5.72,6V.47A.38.38,0,0,0,5,.47V6A.38.38,0,0,0,5.35,6.41Z"/><path class="cls-1" d="M13.15.11,12.69,0V26.46a1.54,1.54,0,1,0,3.08,0V16.59h0v-.35a.62.62,0,0,1,.62-.62h1.33V8C17.73,1.24,13.2.12,13.15.11ZM17,14.87H16.4a1.35,1.35,0,0,0-.62.16V11.27a.38.38,0,0,0-.75,0v5.32h0v9.87a.79.79,0,1,1-1.58,0V1C14.5,1.46,17,3.05,17,8Z"/><path class="cls-1" d="M29.39,6.11c0-3.2-2-6-4.26-6s-4.26,2.81-4.26,6a6.26,6.26,0,0,0,1.8,4.57,2.83,2.83,0,0,1,.92,2.07V26.46a1.54,1.54,0,0,0,3.08,0V12.74a2.83,2.83,0,0,1,.92-2.06A6.27,6.27,0,0,0,29.39,6.11Zm-3.47,6.63V26.46a.79.79,0,0,1-1.58,0V12.74a3.59,3.59,0,0,0-1.16-2.62,5.51,5.51,0,0,1-1.56-4c0-2.75,1.67-5.26,3.51-5.26s3.51,2.51,3.51,5.26a5.51,5.51,0,0,1-1.57,4A3.58,3.58,0,0,0,25.92,12.74Z"/><path class="cls-1" d="M25.13,1.9a.38.38,0,0,0,0,.75c.69,0,1.79,1.58,1.79,3.46a.38.38,0,1,0,.75,0C27.67,4,26.41,1.9,25.13,1.9Z"/></svg>