<svg id="Layer_1" data-name="Layer 1" xmlns="http://www.w3.org/2000/svg" viewBox="0 0 26.8 17.95"><defs><style>.cls-1{fill:#414042;}</style></defs><title>iSHOP Dashboard_Elements</title><path class="cls-1" d="M26.38,13H.42A.42.42,0,0,0,0,13.4v4.13a.42.42,0,0,0,.42.42h26a.42.42,0,0,0,.42-.42V13.4A.42.42,0,0,0,26.38,13Zm-2.09.84v3.29h-.84V13.82Zm-1.67,3.29H6.7V13.82H22.61ZM.84,13.82h5v3.29h-5ZM26,17.11h-.84V13.82H26Z"/><path class="cls-1" d="M18.12,3.79a1.94,1.94,0,0,1,1.94,1.94V7.5a1,1,0,0,0,1,1h1.77A3.13,3.13,0,0,1,26,11.63a.42.42,0,0,0,.84,0,4,4,0,0,0-4-4H21.07a.17.17,0,0,1-.17-.17V5.73a2.78,2.78,0,0,0-2-2.67,2.9,2.9,0,0,0,0-2.84.42.42,0,0,0-.74.4,2.1,2.1,0,0,1-.37,2.46.42.42,0,0,0,.3.71Z"/><path class="cls-1" d="M16.35,6.74H17.7V8.09a2.78,2.78,0,0,0,2.78,2.78h2.36a.76.76,0,0,1,.76.76.42.42,0,0,0,.84,0,1.6,1.6,0,0,0-1.6-1.6H20.48a1.94,1.94,0,0,1-1.94-1.94V6.32a.42.42,0,0,0-.42-.42H16.35c-2.17,0-3.74-.6-4.45-1.69A3.73,3.73,0,0,1,12,.59a.42.42,0,1,0-.76-.35,4.51,4.51,0,0,0,0,4.42C12.06,6,13.89,6.74,16.35,6.74Z"/></svg>