<svg id="Layer_1" data-name="Layer 1" xmlns="http://www.w3.org/2000/svg" viewBox="0 0 20 16.34"><defs><style>.cls-1{fill:#414042;}.cls-2{fill:none;stroke:#414042;stroke-miterlimit:10;stroke-width:0.8px;}</style></defs><title>Toys-Games</title><path class="cls-1" d="M17.4,16.34c-1.26,0-2.52-1.14-3.73-3.38a21.78,21.78,0,0,1-1.06-2.31v-.11H7.43v.11A21.79,21.79,0,0,1,6.32,13c-1.2,2.2-2.46,3.34-3.72,3.34A2.11,2.11,0,0,1,2,16.27,2.48,2.48,0,0,1,.4,14.55,8.61,8.61,0,0,1,0,11.62,24,24,0,0,1,.72,6.33a3.83,3.83,0,0,1,.17-.51h0L.94,5.7,1,5.56l0-.1H1A3.89,3.89,0,0,1,2.3,4.07L2.45,4l.08,0h0l.11-.06h.84a3.85,3.85,0,0,1,.85-.1h.79a3.85,3.85,0,0,1,.55.13h.24A3.85,3.85,0,0,1,6.47,4H8.93V2.54a.22.22,0,0,1,.22-.22h.63V.22a.22.22,0,0,1,.44,0h0v2.1h.63a.22.22,0,0,1,.22.22h0V4h2.42a3.84,3.84,0,0,1,.58-.29l.16-.06h.08a3.84,3.84,0,0,1,.55-.14h.64a3.84,3.84,0,0,1,.85.1h.55l.11,0v.22l.23,0,.11.08.09,0,.11.15a3,3,0,0,1,1.18,1.09l0,0,.1.08.06.12,0,.12-.06,0,.14,0,.09.37,0,0c0,.1,0,.14.05.26A25.35,25.35,0,0,1,20,11.62a8.61,8.61,0,0,1-.39,2.93A2.48,2.48,0,0,1,18,16.27,2.11,2.11,0,0,1,17.4,16.34Zm-4.32-5.68c.79,2,2.4,5.24,4.32,5.24a1.67,1.67,0,0,0,.43-.06c1.15-.31,1.75-1.77,1.73-4.22A20.23,20.23,0,0,0,19.35,9l-.08-.59L19,8.94a3.88,3.88,0,0,1-3.48,2.19,3.83,3.83,0,0,1-2.18-.68l-.49-.34ZM.65,9a20.23,20.23,0,0,0-.21,2.63c0,2.46.58,3.92,1.73,4.22a1.67,1.67,0,0,0,.43.06c1.91,0,3.53-3.29,4.32-5.24l.22-.55-.49.34a3.83,3.83,0,0,1-2.18.68A3.88,3.88,0,0,1,1,8.94L.73,8.4ZM15.54,3.84a3.45,3.45,0,0,0-.5,0h-.63l-.15.06-.11,0h0L14,4a3.44,3.44,0,0,0-.79.59L13,5h0l-.08.09h0l-.05.07-.05.07h0l-.07.1h0l-.08.13a3.45,3.45,0,0,0-.37.91v.15h0v.72h0v.15h0v.76a3.42,3.42,0,0,0,6.62-1.72V6.1h0V6h0l-.06-.12h0l-.07-.14a3.46,3.46,0,0,0-1.68-1.53L17,4.15A3.41,3.41,0,0,0,15.54,3.84Zm-11.07,0A3.4,3.4,0,0,0,3.3,4l-.16.06A3.45,3.45,0,0,0,1.46,5.63l-.07.14h0v.11h0v.47a3.42,3.42,0,0,0,6.38,1.8L7.8,8h0V7.45h0V7.3h0V6.66h0V6.51a3.45,3.45,0,0,0-.37-.92l-.08-.13h0l-.07-.1V5.31l-.05-.07-.06-.07h0L7,5H7l-.1-.11a3.44,3.44,0,0,0-.79-.59L6,4.19H6l-.11-.05H5.64L5.51,4H5.14L5,3.89H5a3.5,3.5,0,0,0-.54-.05Zm3.84,3V7a3.82,3.82,0,0,1,0,.67V7.9a4,4,0,0,1-.1.46c-.07.26-.23.79-.49,1.53l-.09.24H12.4l-.09-.24c-.27-.74-.42-1.28-.49-1.53a3.83,3.83,0,0,1-.1-.44V7.74h0a3.89,3.89,0,0,1,0-.6V6.82a3.84,3.84,0,0,1,.15-.71l.07-.23h-1.3a.22.22,0,1,1,0-.44h1.65c.29,0,.16-.26.25-.37l0-.11V4.77l.26-.3H7.11l.26.3L7.55,5a3.85,3.85,0,0,1,.74,1.78h0ZM9.37,4h1.26V2.76H9.37Z"/><path class="cls-1" d="M4.48,8.66a.22.22,0,0,1-.22-.22h0V7.27H3.1a.22.22,0,1,1,0-.44H4.27V5.67a.22.22,0,1,1,.44,0V6.79H5.87a.22.22,0,0,1,0,.44H4.7V8.45A.22.22,0,0,1,4.48,8.66Z"/><circle class="cls-1" cx="15.65" cy="5.66" r="0.31"/><circle class="cls-1" cx="14.26" cy="7.05" r="0.31"/><circle class="cls-1" cx="17.03" cy="7.05" r="0.31"/><circle class="cls-1" cx="15.65" cy="8.44" r="0.31"/><path class="cls-1" d="M9.49,5.87a.22.22,0,1,1,.23-.23h0a.22.22,0,0,1-.22.22h0Z"/><circle class="cls-2" cx="4.49" cy="7.24" r="3.41"/><circle class="cls-2" cx="15.46" cy="7.05" r="3.41"/></svg>