<svg id="Layer_1" data-name="Layer 1" xmlns="http://www.w3.org/2000/svg" viewBox="0 0 10.66 27.54"><defs><style>.cls-1{fill:#414042;}</style></defs><title>iSHOP Dashboard_Elements</title><path class="cls-1" d="M9.25,7.31,7.55,4.75V.89A.89.89,0,0,0,6.66,0H4a.89.89,0,0,0-.89.89V4.75L1.41,7.31A7.24,7.24,0,0,0,0,11.55V24.88a2.55,2.55,0,0,0,2.67,2.67H8a2.55,2.55,0,0,0,2.67-2.67V11.55A7.24,7.24,0,0,0,9.25,7.31ZM6.66.89V2.22H4V.89ZM2.15,7.8,4,5V3.11H6.66V5L8.52,7.8a6.42,6.42,0,0,1,1.26,3.75v2.22H2.67v-.89H1.78v.89H.89V11.55A6.42,6.42,0,0,1,2.15,7.8Zm.52,9.08V14.66H9.77v6.22H.89V14.66h.89v2.22ZM8,26.65H2.67A1.67,1.67,0,0,1,.89,24.88V21.77H9.77v3.11A1.67,1.67,0,0,1,8,26.65Z"/><path class="cls-1" d="M5.33,20a1.65,1.65,0,0,0,1.78-1.78c0-.93-1.21-2.27-1.45-2.53l-.32-.34L5,15.69c-.24.26-1.45,1.59-1.45,2.53A1.7,1.7,0,0,0,5.33,20Zm0-3.32a3.72,3.72,0,0,1,.89,1.55.78.78,0,0,1-.89.89.82.82,0,0,1-.89-.89A3.73,3.73,0,0,1,5.33,16.67Z"/><rect class="cls-1" x="1.78" y="10.66" width="0.89" height="1.33"/></svg>