<svg id="Layer_1" data-name="Layer 1" xmlns="http://www.w3.org/2000/svg" viewBox="0 0 500 500"><defs><style>.cls-1{fill:#414042;}.cls-2{fill:#8dc63f;}.cls-3{fill:#f15f2e;}.cls-4{fill:#ed1c24;}</style></defs><title>Icons</title><path class="cls-1" d="M247,213.36H119.65a14.19,14.19,0,1,1,0-28.39H247a14.19,14.19,0,0,1,0,28.39Z"/><path class="cls-1" d="M235.2,261.69h-169a14.19,14.19,0,1,1,0-28.39h169a14.19,14.19,0,0,1,0,28.39Z"/><path class="cls-1" d="M230.86,310H13.93a14.19,14.19,0,0,1,0-28.39H230.86a14.19,14.19,0,1,1,0,28.39Z"/><rect class="cls-2" x="318.03" y="98.35" width="86.82" height="14.47"/><path class="cls-3" d="M359.59,133.41a136.7,136.7,0,1,0,136.7,136.7A136.7,136.7,0,0,0,359.59,133.41Zm0,244.59A109.92,109.92,0,1,1,469.52,268.07,109.92,109.92,0,0,1,359.59,378Z"/><path class="cls-4" d="M359.59,408.31c-76.2,0-138.2-62-138.2-138.2s62-138.2,138.2-138.2,138.2,62,138.2,138.2S435.8,408.31,359.59,408.31Zm0-273.41c-74.55,0-135.21,60.65-135.21,135.21S285,405.31,359.59,405.31,494.8,344.66,494.8,270.11,434.14,134.9,359.59,134.9Zm0,244.59A111.42,111.42,0,1,1,471,268.07,111.55,111.55,0,0,1,359.59,379.49Zm0-219.85A108.43,108.43,0,1,0,468,268.07,108.55,108.55,0,0,0,359.59,159.65Z"/><path class="cls-1" d="M434.48,268.12a4.68,4.68,0,0,0,4.69,4.67h22.19a4.67,4.67,0,1,0,0-9.34H439.16A4.68,4.68,0,0,0,434.48,268.12Z"/><path class="cls-1" d="M359.59,343a4.69,4.69,0,0,0-4.69,4.69v22.19a4.68,4.68,0,0,0,9.36,0V347.69A4.68,4.68,0,0,0,359.59,343Z"/><path class="cls-1" d="M489.11,214.49a141.51,141.51,0,0,0-8.66-17.4l13.39-11.3a4.69,4.69,0,0,0,.55-6.59l-24.15-28.58a4.63,4.63,0,0,0-3.18-1.64,4.57,4.57,0,0,0-3.39,1.09l-13.31,11.24A139.56,139.56,0,0,0,383,129.87v-9.4H403.2a4.69,4.69,0,0,0,4.69-4.69V96.36a4.68,4.68,0,0,0-4.69-4.67H316a4.68,4.68,0,0,0-4.67,4.67v19.43a4.68,4.68,0,0,0,4.67,4.69h20.24v9.4a140.12,140.12,0,1,0,152.89,84.62ZM398.53,101v10.07H320.67V101Zm76.93,88c-2.71-4-5.55-7.74-8.45-11.21a122.91,122.91,0,0,0-9.62-10.29l8.74-7.38,18.11,21.46ZM373.64,128.62c-4.7-.46-9.42-.7-14-.7s-9.41.23-14,.69v-8.14h28.08Zm-33.14,10a4.18,4.18,0,0,0,1.39-.1c2.28-.36,4.69-.64,7.18-.85l.64-.05c3.29-.24,6.61-.37,10.14-.37a138.71,138.71,0,0,1,17.83,1.34,4.65,4.65,0,0,0,1,0A130,130,0,0,1,447,170.79l.15.13.16.15c1.65,1.49,3.25,3,4.74,4.51A131,131,0,1,1,340.5,138.66Z"/><path class="cls-1" d="M250.36,222.88a118.15,118.15,0,0,0,25.85,128.94A120.3,120.3,0,0,0,294,366.39a118.42,118.42,0,0,0,19.53,10.55l.86.38A117.25,117.25,0,0,0,336.49,384a118.33,118.33,0,0,0,132.4-70.9,117.08,117.08,0,0,0,6.62-21.93,119.31,119.31,0,0,0,0-46.19,118.36,118.36,0,0,0-32.36-60.49,119.7,119.7,0,0,0-17.95-14.74h0a117.91,117.91,0,0,0-42.55-17.62,118.33,118.33,0,0,0-68,6.59l-.27.11A118.09,118.09,0,0,0,294,169.75a120.83,120.83,0,0,0-18,14.76,119.16,119.16,0,0,0-14.73,17.95A117.92,117.92,0,0,0,250.36,222.88Zm.4,45.19a108.72,108.72,0,0,1,2.07-21.28A108.73,108.73,0,0,1,269,207.64a111.23,111.23,0,0,1,13.6-16.55A109.37,109.37,0,0,1,318,167.45l.56-.24a109.42,109.42,0,0,1,19.81-5.92,110.66,110.66,0,0,1,42.54,0,108.77,108.77,0,0,1,85.49,85.47,110.49,110.49,0,0,1,0,42.61,109.11,109.11,0,0,1-65.14,79.3,107.45,107.45,0,0,1-20.32,6.16,111.63,111.63,0,0,1-42.59,0,107.66,107.66,0,0,1-19.92-6l-.43-.18a108.25,108.25,0,0,1-18.78-10,110.74,110.74,0,0,1-16.35-13.39l-.2-.21A109.35,109.35,0,0,1,269,328.48a108.35,108.35,0,0,1-16.2-39.13A109,109,0,0,1,250.76,268.07Z"/><path class="cls-1" d="M343.41,286.55l.4,0a4.61,4.61,0,0,0,3-1.11l89.24-76a4.66,4.66,0,0,0-2.62-8.19,4.55,4.55,0,0,0-3.41,1.09l-89.22,76a4.66,4.66,0,0,0,2.61,8.2Z"/><path class="cls-1" d="M359.59,193.23a4.68,4.68,0,0,0,4.67-4.67V166.35a4.68,4.68,0,0,0-9.36,0v22.21A4.68,4.68,0,0,0,359.59,193.23Z"/><path class="cls-1" d="M257.82,272.79H280a4.67,4.67,0,0,0,0-9.34H257.82a4.67,4.67,0,1,0,0,9.34Z"/></svg>